<?xml version="1.0" ?>
<svg xmlns="http://www.w3.org/2000/svg" width="800" height="1000">
<path d="m 372.04242,78.997431 c -0.6453,12.153077 -0.854,24.319889 -1.02094,36.487169 -0.32947,16.03394 0.0195,32.07204 -0.12589,48.10645 -0.11368,12.53363 -0.30023,14.77937 -0.79855,27.53731 -0.73399,17.09181 -2.55914,34.1004 -4.33957,51.10499 -5.49982,52.74705 69.09578,60.52497 74.5956,7.77792 v 0 c 1.93528,-18.63255 3.91078,-37.27017 4.68846,-55.99791 0.54898,-14.452 0.72691,-16.27995 0.85406,-30.43098 0.14098,-15.69076 -0.20119,-31.38499 0.11891,-47.07528 0.15157,-11.19061 0.32741,-22.381434 0.92379,-33.558971 2.79357,-52.959381 -72.10231,-56.910078 -74.89587,-3.950698 z"/>
</svg>
