<?xml version="1.0" ?>
<svg xmlns="http://www.w3.org/2000/svg" width="1000" height="1000">
<path d="m 253.98916,738.236 c -1.91473,-2.08969 -3.56574,-4.43702 -4.94115,-6.91526 -0.93421,-1.68329 -1.2789,-1.29709 -0.64387,-1.83639 2.0912,5.32679 2.33387,4.8469 2.36711,11.99761 0.007,1.58177 -0.50783,3.12325 -0.70502,4.6927 -0.0146,0.11625 -0.0133,0.42415 0.0722,0.34402 0.61259,-0.5742 0.93364,-1.39629 1.4268,-2.07583 -0.064,0.19383 -0.0758,0.41371 -0.19202,0.58148 -0.59141,0.85341 -1.20579,1.69821 -1.91398,2.45751 -0.77658,0.83263 -1.75858,1.45849 -2.5243,2.30111 -0.0894,0.0984 -0.0548,0.37892 0.0776,0.39134 0.585,0.0548 1.16552,-0.15014 1.7489,-0.22007 0.82278,-0.0986 1.64637,-0.19042 2.46955,-0.28563 0.38954,0.0386 0.81054,-0.0423 1.16861,0.11589 0.1258,0.0556 -0.18546,0.24008 -0.32178,0.25819 -0.59674,0.0793 -1.2058,0.0736 -1.80577,0.0244 -2.61131,-0.21408 -4.71687,-1.35014 -6.97767,-2.56899 -3.95769,-3.13896 -4.37052,-3.05843 -7.53372,-7.44056 -0.81182,-1.12466 -1.42085,-2.38415 -2.06634,-3.61185 -0.32557,-0.61921 -0.42267,-1.36284 -0.84318,-1.92193 -0.153,-0.20343 -0.0394,0.5088 -0.0284,0.7631 0.0344,0.79523 0.10967,1.58817 0.1645,2.38225 -0.0282,2.80295 0.60439,5.66977 0.20591,8.47037 -0.009,0.0632 -0.16767,-0.0313 -0.16607,-0.0951 0.021,-0.83527 0.0262,-1.68593 0.23129,-2.4959 0.45723,-1.80572 1.16328,-3.53915 1.74491,-5.30873 3.0826,-5.04505 2.41099,-4.74148 6.61161,-8.65739 2.2461,-2.09386 2.33002,-0.73703 2.20126,-1.91481 -50.167461,17.19668 -25.84769,88.14418 24.31977,70.94751 v 0 c 2.51093,-0.93775 5.102,-1.6839 7.53278,-2.81326 11.23825,-5.22138 18.79284,-11.46097 25.40391,-22.06777 1.52635,-3.52807 3.3523,-6.94112 4.57905,-10.58422 3.48061,-10.33644 2.66108,-21.49044 2.03724,-32.16364 -1.44638,-14.85848 -3.75508,-26.90177 -14.17066,-38.52665 -2.01866,-2.25304 -4.4963,-4.0482 -6.74445,-6.0723 -5.69739,-3.65269 -6.99646,-4.88988 -13.43935,-7.34579 -10.95304,-4.17508 -22.67001,-4.88316 -34.21482,-3.38844 -2.75733,0.49068 -5.54015,0.85509 -8.272,1.47204 -17.75235,4.00917 -31.589317,11.33405 -42.207437,26.50816 -5.521696,8.73389 -11.014703,18.18673 -12.305722,28.6753 -1.59592,12.96568 -0.185737,14.45878 2.808756,25.94939 1.08807,2.43627 2.068932,4.9233 3.26421,7.3088 4.760601,9.50105 11.305825,18.09017 18.608273,25.76176 37.54199,37.45795 90.51554,-15.63445 52.97354,-53.09241 z"/>
</svg>
