<?xml version="1.0" ?>
<svg xmlns="http://www.w3.org/2000/svg" width="800" height="1000">
<path d="m 371.41681,76.005839 c -0.35705,10.501155 -0.19559,21.011672 -0.14047,31.516491 0.0907,16.58199 0.11315,33.16424 0.12913,49.74644 -0.17464,19.51532 -0.39759,39.02999 -0.51986,58.54578 -0.20815,20.14364 0.0876,40.28649 0.27126,60.42896 0.17889,19.93118 0.22191,39.86316 0.24931,59.79501 0.0189,19.60206 0.0152,39.20414 0.014,58.80622 -0.002,18.09298 -0.002,36.18596 -0.003,54.27894 -3.7e-4,14.94643 -4e-4,29.89285 -4.1e-4,44.83927 -10e-6,10.18404 1e-5,20.36808 2e-5,30.55212 0,5.92232 0,11.84464 1e-5,17.76697 10e-6,53.033 75.00001,53.03299 75,-2e-5 v 0 c -1e-5,-5.92234 -1e-5,-11.84467 -1e-5,-17.76701 -10e-6,-10.18399 -3e-5,-20.36799 -2e-5,-30.55199 1e-5,-14.94572 4e-5,-29.89143 4.1e-4,-44.83715 5.3e-4,-18.09218 0.002,-36.18435 0.003,-54.27652 10e-4,-19.63801 0.005,-39.27602 -0.0141,-58.91402 -0.0277,-20.12542 -0.0716,-40.25098 -0.25236,-60.37571 -0.1802,-19.75804 -0.47446,-39.51642 -0.2696,-59.27561 0.12317,-19.69638 0.35367,-39.39157 0.52129,-59.08754 -0.0161,-16.68928 -0.0389,-33.37861 -0.13014,-50.06769 -0.0544,-10.374396 -0.19963,-20.751833 0.14151,-31.122941 0,-53.033009 -75,-53.033009 -75,0 z"/>
<path d="m 407.66995,733.62378 c -2.42052,-0.0498 -4.84577,0.0682 -7.26577,0 -0.44592,-0.0126 -1.73222,-0.0899 -1.31511,-0.24804 0.29384,-0.11142 0.62845,-0.009 0.94267,-0.0129 3.71104,0.0901 6.33648,2.78116 8.58575,5.42649 3.66699,5.62194 3.35302,9.11319 1.76362,15.53485 -3.19232,7.32732 0.17416,-0.036 -2.56097,5.16552 -0.0716,0.13625 -0.2562,0.46608 -0.1031,0.45013 0.65424,-0.0681 4.17012,-2.38062 4.85061,-2.76454 0.4894,-0.25004 0.96519,-0.52872 1.4682,-0.75011 0.0854,-0.0376 -0.11777,0.15407 -0.2025,0.19303 -0.83099,0.38213 -1.64762,0.82085 -2.52955,1.06327 -2.04054,0.5609 -4.09783,1.15449 -6.20608,1.33797 -5.83408,0.50773 -6.83599,0.0219 -11.65973,-1.00912 -1.40877,-0.2752 -1.09993,-0.24257 2.53301,1.09105 12.24725,4.49584 -1.85795,-0.79486 7.94226,2.71079 2.24414,0.80276 2.47906,0.726 1.38826,0.7751 -7.64618,-4.80524 -6.29748,-3.01069 -11.53294,-9.60803 -0.69237,-0.87247 -1.75183,-2.80329 -2.04648,-3.97212 -0.6284,-2.49277 -0.3254,-3.1325 -0.0944,-5.79038 0.77046,-4.03971 2.23069,-5.43851 5.42288,-7.90404 -44.62458,28.65567 -4.09934,91.76435 40.52523,63.10868 v 0 c 1.53971,-1.07888 3.1365,-2.08058 4.61914,-3.23664 9.55694,-7.45185 16.36377,-17.65584 20.78211,-28.85375 2.579,-10.08029 3.89191,-12.24734 3.54504,-22.79793 -0.43633,-13.27215 -5.07325,-27.04619 -13.96424,-37.1185 -3.63072,-4.11314 -8.4964,-6.94344 -12.74461,-10.41515 -2.41189,-1.16064 -4.78345,-2.40912 -7.23567,-3.48192 -4.96439,-2.17182 -10.30945,-3.28947 -15.22437,-5.59207 -7.64999,-2.06309 -9.43075,-3.0817 -18.15995,-2.67319 -8.674,0.40593 -16.68669,3.80077 -24.12994,7.97367 -14.18148,8.27727 -26.01134,17.074 -33.50802,32.29891 -1.12817,3.14962 -2.53503,6.21293 -3.3845,9.44886 -2.91368,11.0991 -2.07136,23.3052 1.81716,34.05556 1.02489,2.83345 2.45094,5.50529 3.67641,8.25793 4.49557,7.0024 4.90715,8.49225 10.9607,14.42612 7.80314,7.64888 17.68837,12.6967 28.12577,15.63154 2.40961,0.49187 4.80119,1.08231 7.22885,1.47561 5.85126,0.94795 11.78861,0.79864 17.6903,0.80331 53.03301,0 53.03301,-75 0,-75 z"/>
</svg>
