<?xml version="1.0" ?>
<svg xmlns="http://www.w3.org/2000/svg" width="1000" height="1000">
<path d="m 389.32999,99.301032 c 0,23.368028 0,46.736048 0,70.104068 0,32.10644 0,64.21288 0,96.31932 0,3.65371 0,7.30742 0,10.96112 0,53.03301 75,53.03301 75,0 v 0 c 0,-3.6537 0,-7.30741 0,-10.96112 0,-32.10644 0,-64.21288 0,-96.31932 0,-23.36802 0,-46.73604 0,-70.104068 0,-53.033008 -75,-53.033008 -75,0 z"/>
<path d="m 513.05475,104.62697 c -0.46337,19.03593 -0.20277,38.08193 -0.12846,57.12129 0.11268,29.59502 0.1499,59.19025 0.17252,88.78545 0.01,19.49594 0.006,9.62004 0.0115,29.62772 0.0149,53.03301 75.01494,53.01187 75,-0.0211 v 0 c -0.006,-20.03054 -0.002,-10.14257 -0.0115,-29.66392 -0.0227,-29.67367 -0.0601,-59.34737 -0.17307,-89.02085 -0.0707,-18.10707 -0.31787,-36.22012 0.0872,-54.32437 1.77073,-53.003438 -73.18745,-55.507627 -74.95818,-2.50419 z"/>
</svg>
