<?xml version="1.0" ?>
<svg xmlns="http://www.w3.org/2000/svg" viewBox="0 0 1000 1000">
<path d="m 543.56454,81.343368 c -16.24536,7.137291 -31.89909,15.546908 -46.53704,25.601642 -4.97643,3.41828 -9.77185,7.09288 -14.65778,10.63932 -23.42945,18.21103 -44.56723,39.23795 -63.65158,61.93415 -13.27785,15.79078 -18.5438,23.44827 -30.88804,40.11538 -26.3855,36.74337 -47.89872,76.75675 -66.09977,118.11721 -3.75308,8.52858 -7.16955,17.20136 -10.75433,25.80204 -16.52427,41.97647 -25.94611,86.32961 -30.08588,131.17913 -0.76282,8.26432 -1.13653,16.55995 -1.7048,24.83992 -1.40539,31.44443 0.74506,62.98675 8.60174,93.53733 4.53467,17.63303 6.83093,22.04005 13.38732,38.81889 10.11389,22.409 23.60054,43.24879 39.97491,61.60297 9.90359,11.10103 13.49234,13.836 24.41295,23.7361 18.97794,16.26212 40.20688,29.9711 63.01913,40.24145 4.53442,2.04145 9.19496,3.79033 13.79243,5.68549 19.08645,7.29138 39.05929,11.40206 59.46142,12.32866 13.85264,0.62913 17.07202,-0.004 30.9617,-0.97765 21.7792,-2.27512 42.83031,-8.41762 62.37185,-18.30002 12.8929,-6.52009 15.80483,-9.06808 27.77442,-17.2041 19.79505,-15.00055 35.21158,-34.50967 47.3536,-56.05325 8.03554,-14.25743 10.11177,-20.23984 16.54168,-35.26212 9.69803,-24.80384 16.86981,-50.59566 19.80698,-77.113 1.94523,-17.56187 1.46086,-22.53681 1.45323,-40.0994 -1.19991,-26.47768 -6.21496,-52.68528 -16.82392,-77.07183 -7.17227,-16.4867 -9.71785,-19.02695 -19.49842,-34.06182 -4.414,-5.15774 -8.51266,-10.60301 -13.24201,-15.47323 -13.64761,-14.05412 -29.99738,-25.51454 -47.54846,-34.14591 -15.81632,-7.77822 -20.69865,-8.56596 -37.59795,-13.82662 -26.97592,-6.58364 -54.95048,-9.03004 -82.66699,-7.01096 -18.49418,1.34725 -22.81978,2.80477 -40.90859,6.44012 -24.02834,5.97585 -47.56441,14.15274 -69.52555,25.67574 -12.95274,6.79629 -15.52306,8.96274 -27.49235,16.96666 -13.45359,9.36921 -24.82851,21.12524 -35.87335,33.12388 -35.85321,39.07746 19.41066,89.78155 55.26386,50.70409 v 0 c 7.07158,-7.74046 14.14906,-15.54847 22.68245,-21.74041 7.95559,-5.50022 9.61182,-6.95258 18.36354,-11.67705 16.32198,-8.81116 33.92716,-14.91744 51.8264,-19.61865 12.08317,-2.6239 15.93028,-3.8663 28.29177,-4.92044 19.52423,-1.66497 39.30614,-0.28381 58.43393,3.87783 4.08891,1.16199 8.23866,2.12799 12.26672,3.48596 17.48401,5.89431 33.28555,15.87559 45.39399,29.84809 6.13224,8.71805 7.25446,9.53061 11.89671,19.44874 7.40626,15.82339 10.69943,33.02787 11.75931,50.37993 0.15757,12.91271 0.54601,16.19058 -0.70378,29.11147 -1.94605,20.11917 -7.43726,39.64199 -14.63155,58.47732 -1.86238,4.47342 -3.59049,9.00513 -5.58714,13.42025 -6.26601,13.85578 -14.28954,28.15695 -24.98233,39.13705 -2.17991,2.23848 -4.62278,4.2049 -6.93416,6.30736 -2.72829,1.9446 -5.37467,4.00956 -8.18486,5.83379 -13.66737,8.87219 -28.85389,14.70256 -45.08041,16.56524 -3.24555,0.29085 -6.48192,0.71477 -9.73665,0.87256 -9.30773,0.45122 -19.00047,0.10106 -28.16889,-1.68834 -7.05958,-1.37782 -11.69597,-3.08398 -18.5623,-5.2751 -2.99639,-1.18038 -6.04152,-2.24384 -8.98917,-3.54114 -16.56874,-7.29208 -32.08741,-16.99406 -45.88627,-28.6917 -7.14276,-6.3162 -10.47162,-8.92068 -16.90407,-15.95009 -11.2501,-12.29418 -20.70005,-26.24647 -27.87999,-41.27663 -4.8836,-11.98942 -6.42371,-14.76147 -9.88142,-27.44423 -6.41357,-23.52466 -7.94004,-47.90055 -6.96921,-72.18985 0.4636,-7.12213 0.7588,-14.25722 1.39081,-21.36638 3.36694,-37.87256 10.97719,-75.39764 24.82622,-110.88683 3.18116,-7.68185 6.20601,-15.43031 9.54348,-23.04555 16.10551,-36.74862 34.99365,-72.40383 58.36711,-105.07618 10.75464,-14.5864 15.44271,-21.41462 26.89919,-35.17091 15.47675,-18.5836 32.59328,-35.86487 51.56373,-50.89169 3.77753,-2.78172 7.49146,-5.65194 11.33258,-8.34518 11.08613,-7.77314 23.00948,-14.16739 35.38839,-19.61858 48.67788,-21.04671 18.91334,-89.88763 -29.76454,-68.840922 z"/>
</svg>
