<?xml version="1.0" ?>
<svg xmlns="http://www.w3.org/2000/svg" viewBox="0 0 1000 1000">
<path d="m 496.9955,257.31038 c -0.59969,0 -1.19938,0 -1.79907,0 -1.37757,0 -2.75514,0 -4.13271,0 -0.79392,0 -1.58824,0.0254 -2.38175,0 -0.18196,-0.006 -0.7181,-0.066 -0.53812,-0.0933 0.43359,-0.0659 0.87698,-0.0166 1.31547,-0.0249 4.02603,0.67346 3.62044,0.37905 8.10455,2.49097 0.9697,0.45671 1.77474,1.22231 2.7507,1.66552 1.08289,0.49178 -1.30604,-1.75004 0.15214,-1.41626 1.42963,2.90152 1.2366,2.07113 1.89958,5.94877 0.11978,0.7006 -0.15133,1.4964 0.18122,2.12457 0.15419,0.29127 0.3498,-0.56064 0.48843,-0.85964 2.40131,-5.17907 -0.3636,0.31154 1.88335,-4.06334 -2.00616,4.69475 -0.97394,3.05197 -5.41568,8.21021 -0.55094,0.63982 -1.3393,1.06784 -1.81932,1.76245 -0.50434,0.72979 2.00683,0.13725 -0.38304,1.22571 -5.22393,0.76583 -8.81803,-3.54846 -11.83264,-7.21609 -0.44519,-0.73742 -0.89037,-1.47485 -1.33556,-2.21227 -0.11247,-0.11107 -0.29051,-0.48415 -0.33742,-0.3332 -0.11983,0.3856 0.0394,0.80665 0.0651,1.20963 0.0459,0.72121 0.10696,1.44142 0.14946,2.16283 0.1495,2.53777 0.14547,2.95534 0.22798,5.52206 0.0149,2.86139 0.14111,5.72959 0.0482,8.59122 -0.007,0.20461 -0.0139,-0.40921 -0.0208,-0.61382 -3.35842,52.92656 71.49104,57.67609 74.84946,4.74953 v 0 c 0.24085,-5.1332 0.23994,-10.26908 0.0753,-15.40645 -0.52362,-13.78819 -1.80904,-27.59424 -8.17505,-40.12011 -1.92999,-2.98331 -3.58512,-6.16362 -5.78998,-8.94995 -7.67157,-9.69478 -18.91894,-16.59526 -30.77034,-19.88666 -3.4837,-0.96749 -7.0792,-1.47432 -10.6188,-2.21148 -10.08023,-0.43053 -12.66534,-1.13631 -22.63114,0.79824 -15.20168,2.95093 -26.89401,9.02995 -37.46521,20.63301 -2.76053,3.02998 -4.49594,6.85505 -6.7439,10.28258 -6.74048,14.81704 -11.38581,28.54483 -9.05303,45.27023 0.52499,3.76406 1.87567,7.36593 2.8135,11.0489 3.29269,7.53522 3.89207,9.88761 8.4243,16.59291 7.42369,10.9831 15.3998,18.46583 27.6644,23.963 3.07092,1.37643 6.44472,1.94062 9.66708,2.91094 2.43809,0.34216 4.86505,0.77609 7.31427,1.02648 4.37347,0.44712 8.7853,0.11511 13.16915,0.2177 53.03301,0 53.03301,-75 0,-75 z"/>
<path d="m 503.56799,595.8028 c 0.14926,0.0598 3.23706,0.89133 3.29604,0.76183 0.11736,-0.25766 -0.20766,-0.53021 -0.35717,-0.77064 -0.39255,-0.63129 -0.84292,-1.22474 -1.26438,-1.8371 -0.44774,-0.75368 -0.89549,-1.50735 -1.34323,-2.26102 0.30008,-1.53089 -2.43549,-2.87643 -2.28217,-4.57319 0.0324,-0.35817 0.55212,0.49429 0.69724,0.82334 1.11072,2.51868 1.2474,4.77158 1.67037,7.42402 1.19622,-2.1054 2.19553,-4.31416 3.33733,-6.44922 0.91513,-1.71122 0.39428,-1.35233 1.09214,-1.78617 -2.44674,4.18114 -5.83593,7.19647 -10.12105,9.52754 -1.6344,0.8891 -3.44801,1.40025 -5.18724,2.0612 -1.54863,0.58851 -1.80047,0.0266 -1.33487,0.73571 0.20847,0.10113 0.72989,0.0966 0.6254,0.3034 -0.12422,0.24584 -0.54699,0.10257 -0.8219,0.0855 -2.05119,-0.12744 -3.41654,-1.13608 -4.99631,-2.35665 -1.66814,-0.92652 -2.13648,-3.10022 -3.48662,-4.28232 -0.30219,-0.26459 -0.0707,0.80473 -0.0321,1.20453 0.0533,0.55333 0.10948,1.1064 0.16421,1.6596 0.31708,3.19913 0.38025,6.41401 0.38576,9.62623 -0.002,0.42951 -0.003,0.85902 -0.005,1.28853 0.0677,-0.75791 -0.0928,3.61989 -0.0197,2.71711 0.74511,-9.20682 -1.05077,-7.17736 7.262,-20.8248 1.71634,-2.81779 4.81702,-4.50992 7.22553,-6.76489 -0.0569,-0.0741 -0.11376,-0.14814 -0.17064,-0.22222 -49.17727,19.85186 -21.1025,89.39902 28.07477,69.54716 v 0 c 2.76608,-1.21364 5.53216,-2.42729 8.29824,-3.64093 4.5712,-3.44695 10.19849,-5.82185 13.7136,-10.34085 8.86068,-11.3912 10.79676,-19.61096 10.62091,-31.99734 -0.0259,-6.31813 -0.24589,-12.64021 -0.99352,-18.9196 -2.07654,-15.14891 -5.62312,-27.78986 -15.78778,-39.7699 -1.92743,-1.92799 -3.73735,-3.9811 -5.7823,-5.78397 -10.73958,-9.46824 -24.33825,-14.68684 -38.44624,-16.3018 -6.77314,-0.33904 -11.58704,-0.95369 -18.41569,0.34104 -15.31363,2.90351 -25.13902,9.48926 -34.10012,21.93045 -5.5654,9.08647 -10.36783,18.67375 -13.5127,28.88799 -2.02162,8.85858 -3.34367,12.16522 -2.86783,21.7877 0.65766,13.29894 6.0543,25.32237 13.21531,36.29246 1.84875,2.61693 3.57195,5.32725 5.54627,7.85079 9.14268,11.68603 20.73948,21.35219 34.98495,25.99178 50.88715,14.93311 72.00576,-57.03219 21.1186,-71.9653 z"/>
</svg>
