<?xml version="1.0" ?>
<svg xmlns="http://www.w3.org/2000/svg" width="1000" height="1000">
<path d="m 496.9955,257.31038 c -0.59969,0 -1.19938,0 -1.79907,0 -1.37757,0 -2.75514,0 -4.13271,0 -0.79392,0 -1.58824,0.0254 -2.38175,0 -0.18196,-0.006 -0.7181,-0.066 -0.53812,-0.0933 0.43359,-0.0659 0.87698,-0.0166 1.31547,-0.0249 4.02603,0.67346 3.62044,0.37905 8.10455,2.49097 0.9697,0.45671 1.77474,1.22231 2.7507,1.66552 1.08289,0.49178 -1.30604,-1.75004 0.15214,-1.41626 1.42963,2.90152 1.2366,2.07113 1.89958,5.94877 0.11978,0.7006 -0.15133,1.4964 0.18122,2.12457 0.15419,0.29127 0.3498,-0.56064 0.48843,-0.85964 2.40131,-5.17907 -0.3636,0.31154 1.88335,-4.06334 -2.00616,4.69475 -0.97394,3.05197 -5.41568,8.21021 -0.55094,0.63982 -1.3393,1.06784 -1.81932,1.76245 -0.50434,0.72979 2.00683,0.13725 -0.38304,1.22571 -5.22393,0.76583 -8.81803,-3.54846 -11.83264,-7.21609 -0.44519,-0.73742 -0.89037,-1.47485 -1.33556,-2.21227 -0.11247,-0.11107 -0.29051,-0.48415 -0.33742,-0.3332 -0.11983,0.3856 0.0394,0.80665 0.0651,1.20963 0.0459,0.72121 0.10696,1.44142 0.14946,2.16283 0.1495,2.53777 0.14547,2.95534 0.22798,5.52206 0.0149,2.86139 0.14111,5.72959 0.0482,8.59122 -0.007,0.20461 -0.0139,-0.40921 -0.0208,-0.61382 -3.35842,52.92656 71.49104,57.67609 74.84946,4.74953 v 0 c 0.24085,-5.1332 0.23994,-10.26908 0.0753,-15.40645 -0.52362,-13.78819 -1.80904,-27.59424 -8.17505,-40.12011 -1.92999,-2.98331 -3.58512,-6.16362 -5.78998,-8.94995 -7.67157,-9.69478 -18.91894,-16.59526 -30.77034,-19.88666 -3.4837,-0.96749 -7.0792,-1.47432 -10.6188,-2.21148 -10.08023,-0.43053 -12.66534,-1.13631 -22.63114,0.79824 -15.20168,2.95093 -26.89401,9.02995 -37.46521,20.63301 -2.76053,3.02998 -4.49594,6.85505 -6.7439,10.28258 -6.74048,14.81704 -11.38581,28.54483 -9.05303,45.27023 0.52499,3.76406 1.87567,7.36593 2.8135,11.0489 3.29269,7.53522 3.89207,9.88761 8.4243,16.59291 7.42369,10.9831 15.3998,18.46583 27.6644,23.963 3.07092,1.37643 6.44472,1.94062 9.66708,2.91094 2.43809,0.34216 4.86505,0.77609 7.31427,1.02648 4.37347,0.44712 8.7853,0.11511 13.16915,0.2177 53.03301,0 53.03301,-75 0,-75 z"/>
<path d="m 465.48354,556.60599 c -0.18432,0.15199 -0.73725,0.608 -0.55295,0.45598 2.97295,-2.45233 3.5342,-3.15902 7.87684,-4.98296 1.80426,-0.75781 3.75422,-1.10666 5.63554,-1.6454 0.34549,-0.0989 0.97468,0.085 1.0444,-0.2675 0.0629,-0.31816 -0.63292,-0.14192 -0.94939,-0.21288 -0.21816,-0.1 -0.8492,-0.15973 -0.65447,-0.29999 0.68203,-0.49125 4.2669,0.91165 4.37386,0.96257 3.93108,1.87133 6.5319,4.59742 8.9221,8.12122 1.99739,4.00428 1.66147,8.08899 0.69352,12.33715 -0.19859,0.87157 -0.66082,1.66558 -0.89153,2.5292 -0.0205,0.0767 0.10925,0.21394 0.17178,0.16501 0.49179,-0.38484 0.87887,-0.88736 1.3183,-1.33105 2.36986,-2.23683 4.58343,-4.63892 6.96384,-6.86445 0.12954,-0.12112 -0.21177,0.28989 -0.35081,0.39997 -1.36506,1.08066 -2.76933,2.11086 -4.154,3.16629 -10.83815,4.54743 -6.8271,3.87769 -16.47856,4.92887 -0.48984,0.0533 -1.90295,-0.21543 -1.47781,0.0336 0.66787,0.39128 1.52065,0.29016 2.28069,0.43673 3.954,0.76252 3.11826,0.60256 7.20122,1.41292 1.74083,0.8236 6.1872,0.66057 7.7514,1.77989 0.16115,0.11532 -0.4039,0.0157 -0.59285,-0.044 -0.79041,-0.24976 -1.58618,-0.50551 -2.32646,-0.87848 -1.13428,-0.57149 -2.18452,-1.2964 -3.27678,-1.9446 -3.89121,-3.40168 -2.57024,-1.92757 -5.40778,-5.44516 -0.61666,-0.76445 -0.83516,-1.19978 -0.90736,-1.01324 -0.24602,0.63563 0.10029,1.35961 0.16728,2.03789 0.26007,3.8483 0.76919,7.8231 -0.31217,11.58758 -1.11238,3.92691 -3.74778,6.80278 -6.26028,9.88229 -1.00369,1.18796 -2.01911,2.36611 -3.01108,3.56388 -3.73387,4.5085 -4.90161,5.95984 -8.49583,10.84451 -1.63748,2.22539 -5.56513,7.93595 -7.52295,10.28737 -0.82167,0.98686 -1.78286,1.84866 -2.67429,2.77299 -11.10865,10.24057 -23.19083,19.30095 -35.57648,27.91873 -11.88715,6.69676 -5.43251,3.3996 -19.47237,9.67618 -48.12379,22.28454 -16.60868,90.34186 31.51511,68.05731 v 0 c 22.06279,-10.44372 11.81077,-4.93789 30.9009,-16.24493 17.06738,-11.95618 33.82067,-24.52466 48.5094,-39.3792 2.274,-2.61115 4.631,-5.15228 6.822,-7.83346 2.58095,-3.15837 5.09446,-6.92695 7.50877,-10.26845 2.69291,-3.72709 2.8598,-3.88773 5.98157,-7.67268 1.50799,-1.82833 3.0334,-3.64222 4.55009,-5.46333 4.1355,-5.37121 6.21954,-7.77056 9.77669,-13.7417 5.52246,-9.27014 9.26522,-19.49748 11.4247,-30.04809 0.37668,-2.53987 0.84464,-5.06786 1.13004,-7.61959 1.03175,-9.22468 0.44618,-18.56127 -0.66904,-27.74375 -2.09081,-12.55642 -5.37091,-24.59693 -13.45866,-34.80605 -2.11421,-2.66875 -4.69057,-4.93628 -7.03585,-7.40442 -2.50713,-1.8054 -4.88754,-3.80125 -7.52138,-5.41618 -8.19441,-5.02438 -17.61069,-7.20737 -26.92447,-9.00813 -10.15333,-2.01274 -20.98574,-4.90259 -31.35212,-2.55339 -4.4832,1.01597 -8.6303,3.16907 -12.94545,4.7536 -2.27549,1.5823 -4.61828,3.07198 -6.82649,4.7469 -4.54538,3.44768 -8.04237,8.18294 -12.29416,11.9454 -5.78573,6.31991 -11.46501,12.80191 -14.92227,20.79488 -3.95118,9.13485 -5.53045,16.64705 -5.10228,26.60868 0.18122,4.21624 1.34065,8.3331 2.01098,12.49965 4.19121,10.90914 4.65712,14.82527 12.81173,24.07236 10.14647,11.5058 24.21834,17.4701 39.12448,19.37462 5.05589,0.38372 10.05423,0.99408 15.13995,0.35135 11.80756,-1.49223 20.65677,-4.99782 29.40881,-13.02949 39.13347,-35.79207 -11.48416,-91.13514 -50.61762,-55.34307 z"/>
</svg>
