<?xml version="1.0" ?>
<svg xmlns="http://www.w3.org/2000/svg" width="1000" height="1000">
<path d="m 257.85964,156.77796 c 20.48668,15.08414 40.51383,30.79581 60.83735,46.10451 39.8707,29.44024 79.92696,58.62848 119.83819,88.01455 34.87825,25.77716 69.56306,51.822 103.88362,78.33803 20.83585,16.4581 42.44533,31.887 63.24073,48.39482 10.32542,8.37459 20.68816,16.70605 30.86521,25.26131 -3.3719,-3.41712 4.28054,3.85449 3.24292,2.85556 -12.81409,-12.33637 -10.76621,-22.61049 -7.42318,-40.64262 0.53134,-2.86597 3.14887,-4.90603 4.7233,-7.35905 -10.61164,9.02511 -22.40028,16.57749 -33.94455,24.33156 -35.98178,23.80465 -71.27207,48.62788 -106.45291,73.59368 -28.53815,20.55534 -57.12204,41.06134 -85.25728,62.16833 -13.02829,9.77378 -25.93575,19.7076 -38.90725,29.55663 -28.35811,20.9485 -54.82446,44.25657 -82.09343,66.55944 -11.61071,9.35897 -23.60471,18.25401 -34.5202,28.43521 -2.14352,2.02272 -4.05939,4.25922 -6.09305,6.38602 -36.46422,38.50792 17.9942,90.07612 54.45843,51.5682 v 0 c 1.05314,-1.11704 2.12667,-2.21946 3.10548,-3.40378 9.44354,-9.15484 20.59635,-16.37811 30.54588,-24.94189 26.5551,-21.7397 52.34321,-44.43967 79.95097,-64.8704 12.7357,-9.67 25.40597,-19.42659 38.19667,-29.02371 27.72588,-20.80329 55.89677,-41.0105 84.01936,-61.2707 34.66082,-24.59849 69.42836,-49.05824 104.88138,-72.50824 16.18645,-10.88354 32.86486,-21.49874 46.80597,-35.26364 2.58136,-3.52624 6.6205,-6.35553 7.74407,-10.57872 2.51011,-9.43482 3.92667,-19.45157 2.82629,-29.15237 -1.06925,-9.42635 -10.62834,-17.90976 -17.56552,-23.86406 -10.71867,-9.00007 -21.61487,-17.78604 -32.49372,-26.59096 -21.05761,-16.69845 -42.8894,-32.36691 -64.00448,-48.99277 -34.77994,-26.86595 -69.92176,-53.26373 -105.26665,-79.38117 -39.69281,-29.22507 -79.52681,-58.25753 -119.1853,-87.52836 -17.93859,-13.50885 -13.01267,-9.73201 -30.00381,-22.77552 -10.27716,-7.88941 -20.42073,-16.03434 -31.0125,-23.506016 -2.09886,-1.48058 -4.27888,-2.842606 -6.41832,-4.26391 -45.50235,-27.240342 -84.02601,37.109696 -38.52367,64.350036 z"/>
</svg>
