<?xml version="1.0" ?>
<svg xmlns="http://www.w3.org/2000/svg" width="800" height="1000">
<path d="m 525.26437,90.900345 c -1.90624,1.190522 -3.87131,2.291649 -5.71872,3.571566 -5.81198,4.026654 -11.2721,8.466869 -16.80039,12.864579 -11.40321,9.07115 -22.58762,18.40051 -33.82036,27.68134 -32.59449,27.30358 -66.96469,52.3309 -101.58611,76.97072 -30.40117,20.27661 -58.89859,43.21121 -88.79383,64.19274 -4.65539,3.26731 -9.39645,6.41081 -14.09467,9.61622 -21.94975,13.63132 -43.22883,28.33402 -65.34586,41.6927 -12.96794,7.30435 -26.01991,14.4676 -38.09454,23.20048 -4.7886,3.91393 -9.87005,7.74963 -13.70016,12.67749 -1.26637,1.62933 -2.36024,3.38569 -3.54036,5.07853 -1.57887,4.04168 -3.99069,7.85052 -4.73659,12.12505 -1.83658,10.52478 -0.55356,18.03165 3.87651,27.3256 4.04212,8.48007 11.08792,14.77002 17.86726,20.96343 15.32795,13.38191 31.71365,25.48065 48.05973,37.57362 23.90787,17.65567 47.58565,35.63881 70.92217,54.04431 26.49056,21.39655 53.00251,42.78108 79.1238,64.62825 22.95647,19.31021 45.4009,39.19808 67.62614,59.34048 15.22426,13.41211 29.97571,27.33338 44.66843,41.32004 9.47902,9.1684 19.06353,18.22573 28.97194,26.9294 3.50129,3.01623 7.06451,5.95826 10.70826,8.80012 41.98658,32.39796 87.80421,-26.98003 45.81763,-59.37798 v 0 c -2.44111,-1.81356 -4.6956,-3.87066 -7.05194,-5.78993 -9.15636,-8.02881 -17.97309,-16.42853 -26.73492,-24.88448 -15.13671,-14.40853 -30.33799,-28.74607 -46.01484,-42.57065 -22.9657,-20.81277 -46.16467,-41.35558 -69.88617,-61.3079 -26.68153,-22.29668 -53.7338,-44.15435 -80.79615,-65.98601 -23.94998,-18.87264 -48.22876,-37.33844 -72.76018,-55.4479 -14.47619,-10.70068 -29.00275,-21.38569 -42.63678,-33.15775 -0.79049,-0.67048 -1.50491,-1.44269 -2.37149,-2.01143 -0.13222,-0.0868 -0.0387,0.3304 0.0283,0.47362 0.60657,1.29469 1.48993,2.46222 1.9769,3.80647 2.84523,7.85412 3.6499,12.64376 1.81546,21.61613 -0.76252,3.72955 -2.92333,7.02979 -4.38499,10.54469 -0.90219,1.2356 -1.7472,2.51505 -2.70655,3.70682 -0.56364,0.70018 -1.22294,1.31801 -1.8538,1.95828 -0.13232,0.1343 -0.571,0.49227 -0.43356,0.36321 0.84303,-0.79157 1.70645,-1.56396 2.58,-2.32122 10.02269,-7.72105 21.86009,-12.74779 32.51621,-19.47071 23.2577,-14.12038 45.74891,-29.46434 68.80056,-43.9168 5.20389,-3.56015 10.45238,-7.05596 15.61168,-10.68043 29.7743,-20.91681 58.18086,-43.7412 88.46021,-63.95388 36.08106,-25.68906 71.88519,-51.80166 105.86334,-80.2533 10.85208,-8.96634 21.65896,-17.97386 32.66733,-26.74771 3.46902,-2.76487 6.84183,-5.65395 10.39595,-8.30853 0.75134,-0.56117 1.56448,-1.03444 2.34671,-1.55167 46.1936,-26.05094 9.352,-91.37855 -36.8416,-65.327605 z"/>
</svg>
