<?xml version="1.0" ?>
<svg xmlns="http://www.w3.org/2000/svg" width="1000" height="1000">
<path d="m 396.00288,170.44108 c 12.89145,1.43142 25.86298,1.09273 38.79949,0.7351 22.9304,-0.93655 45.86011,-1.7524 68.8103,-1.87738 20.89785,-0.19791 41.78086,0.40526 62.60522,2.15426 9.03593,0.80284 18.03754,1.91675 27.10673,2.24269 53.01527,1.37165 54.95508,-73.60326 1.93981,-74.97491 v 0 c -2.81863,0.08073 -5.7957,-0.388472 -8.56997,-0.659327 -8.52117,-0.831933 -4.77467,-0.472411 -14.26337,-1.350655 -23.03663,-1.898164 -46.13331,-2.645849 -69.24987,-2.410819 -23.50934,0.141887 -46.99935,0.924768 -70.48804,1.905807 -9.86458,0.283048 -19.76261,0.685754 -29.59524,-0.428409 -52.79517,-5.016969 -59.89023,69.646673 -7.09506,74.663643 z"/>
<path d="m 462.60239,149.65584 c 1.2159,6.15095 1.41865,12.44934 1.67117,18.69674 0.49533,13.58167 -0.21224,27.16957 -0.8043,40.73648 -0.82249,16.97424 -1.1268,33.96555 -1.30947,50.95666 -0.13664,16.15387 -0.12888,32.30849 -0.12906,48.4628 -0.004,15.72478 0.11926,31.4487 -0.24198,47.1703 -0.55795,16.64309 -1.23303,33.28118 -1.91352,49.91951 -0.77432,18.55321 -0.9495,37.12006 -0.84918,55.68651 -0.0453,17.97027 0.86091,35.91917 1.54478,53.87058 0.48693,15.80739 0.91356,31.61704 1.19296,47.4296 0.1731,16.06008 0.39322,32.11984 0.76487,48.17669 0.36762,16.33985 1.31589,32.65361 2.20425,48.97031 0.80927,14.72609 1.62266,29.45203 2.10602,44.19295 0.44154,11.08491 0.7745,22.17335 0.9675,33.26531 0.0778,4.83485 0.10178,9.67028 0.11126,14.50567 0.1056,53.0329 75.10545,52.88356 74.99985,-0.14934 v 0 c -0.0105,-5.22274 -0.0375,-10.44551 -0.12258,-15.66765 -0.20167,-11.47959 -0.53887,-22.95583 -0.99686,-34.42815 -0.50723,-15.2763 -1.33067,-30.5381 -2.17626,-45.79898 -0.84717,-15.53847 -1.76147,-31.07355 -2.11346,-46.63416 -0.3722,-15.91836 -0.57978,-31.83986 -0.75636,-47.76141 -0.29001,-16.32207 -0.72725,-32.64127 -1.23562,-48.95787 -0.6537,-17.13668 -1.53448,-34.27073 -1.49148,-51.42551 -0.0973,-17.40759 0.0617,-34.81544 0.7877,-52.21073 0.69872,-17.09582 1.3946,-34.19137 1.95706,-51.29244 0.36111,-16.28521 0.27374,-32.57197 0.26105,-48.86039 1.6e-4,-15.88703 -0.008,-31.77436 0.12476,-47.66097 0.17225,-16.17099 0.45611,-32.3423 1.24279,-48.49713 0.68246,-15.71078 1.43997,-31.44509 0.80814,-47.17141 -0.46678,-10.66403 -1.08331,-21.37475 -3.3977,-31.82839 -11.52897,-51.764689 -84.73529,-35.460269 -73.20633,16.30442 z"/>
<path d="m 404.54577,808.88308 c 10.06142,-1.18897 20.18519,-1.48682 30.30352,-1.72703 15.69218,-0.31532 31.38799,-0.32572 47.08263,-0.34188 14.81171,-0.0104 29.62105,0.32082 44.43173,0.47835 10.21706,-0.0273 20.42715,0.28111 30.63862,0.56328 5.1077,0.13651 10.21168,0.0623 15.29779,0.57405 4.62251,0.54556 9.26709,0.79963 13.91749,0.92774 0.42083,1.54212 2.03083,-0.39193 2.84843,0.0918 0.12426,0.0735 -0.28853,0.0113 -0.43279,0.017 52.70861,5.85686 60.99146,-68.68437 8.28285,-74.54123 v 0 c -2.91489,-0.27597 -5.82834,-0.58144 -8.76159,-0.5425 -2.89122,-0.0657 -5.77304,-0.24265 -8.64465,-0.60541 -6.79995,-0.64184 -13.60941,-0.82488 -20.43711,-0.8928 -10.63587,-0.29355 -21.27074,-0.60762 -31.91225,-0.58764 -15.10208,-0.16026 -30.20278,-0.49928 -45.306,-0.48254 -16.27404,0.0169 -32.54932,0.0306 -48.82072,0.36382 -12.74675,0.31397 -25.50014,0.76717 -38.16694,2.33222 -52.58953,6.84408 -42.91054,81.21691 9.67899,74.37283 z"/>
</svg>
