<?xml version="1.0" ?>
<svg xmlns="http://www.w3.org/2000/svg" width="800" height="1000">
<path d="m 98.614319,120.63833 c -3.118471,14.78146 -5.845426,29.62933 -8.254061,44.54229 -4.526639,29.28534 -6.551983,58.8622 -8.179164,88.42434 -1.601379,36.12006 -2.43137,72.26806 -3.663741,108.40147 -1.182296,37.97331 -3.561148,75.87681 -7.1473,113.69487 -3.881559,35.93986 -7.922421,71.8533 -10.689496,107.89991 -2.041176,30.20344 -2.793369,60.47515 -3.263186,90.73773 -0.263435,20.16536 -0.300376,40.33262 -0.30059,60.49939 0.0034,8.69199 0.01691,17.38398 0.02822,26.07597 0.003,2.45294 0.0017,1.29834 0.004,3.4638 0.05762,53.03298 75.057589,52.95149 74.999969,-0.0815 v 0 c -0.002,-2.17735 -0.001,-1.0174 -0.004,-3.47985 -0.0113,-8.65928 -0.0247,-17.31855 -0.0281,-25.97783 1.1e-4,-19.78032 0.0352,-39.56111 0.29161,-59.34006 0.44284,-28.74034 1.14437,-57.48951 3.05354,-86.17538 2.71489,-35.60066 6.78108,-71.06091 10.57473,-106.55852 3.71139,-39.31898 6.2134,-78.72407 7.43714,-118.20342 1.21345,-35.6156 2.04141,-71.24504 3.59468,-106.8484 1.473,-26.94698 3.26154,-53.91147 7.33857,-80.6132 2.24056,-13.97241 4.82414,-27.87466 7.74449,-41.72132 10.42298,-51.998666 -63.11425,-66.738985 -73.537236,-14.74031 z"/>
<path d="m 114.41958,155.64765 c 12.79833,10.38837 24.45276,22.11613 36.24366,33.61199 22.24115,22.21979 42.40224,46.35851 62.49304,70.49918 22.09653,25.73831 40.76178,54.10984 59.53381,82.28821 14.63137,21.99273 27.3994,45.13013 41.65886,67.35603 7.4435,11.4917 15.63876,22.4823 25.56694,31.93666 6.63975,6.12019 14.45415,10.35837 23.27745,12.36963 1.68614,0.38436 3.42387,0.49016 5.13581,0.73524 13.69759,1.04294 22.71204,-3.64515 34.16109,-9.90965 18.30436,-9.9191 34.28493,-23.46529 50.15719,-36.79397 13.70956,-12.5189 27.86597,-24.54089 41.50334,-37.13873 43.3133,-40.01169 -20.29508,18.31606 21.55985,-20.00823 15.37178,-13.14113 29.50576,-27.61769 44.35231,-41.32675 6.91194,-6.38238 13.92482,-12.65465 20.86029,-19.01147 18.22046,-17.86348 37.53313,-34.54604 55.98076,-52.16563 12.60206,-12.93842 26.88149,-23.99547 41.00344,-35.18285 5.18916,-3.80596 9.86268,-8.26798 14.89433,-12.26129 40.80495,-33.87412 -7.1003,-91.581028 -47.90524,-57.70691 v 0 c -4.48681,3.76708 -8.91225,7.60855 -13.56168,11.1805 -15.94527,12.6324 -31.97622,25.22535 -46.26525,39.76543 -18.04325,17.27779 -37.01761,33.55172 -54.82473,51.08329 -7.17552,6.57783 -14.42945,13.07011 -21.57761,19.67766 -14.59425,13.49048 -28.4952,27.72591 -43.61793,40.64493 -43.69379,40.04362 18.32938,-16.89152 -21.32518,19.79417 -12.93384,11.9655 -26.39638,23.34306 -39.36612,35.27006 -9.97199,8.41184 -6.66697,5.75587 -16.80542,13.78789 -6.70858,5.31475 -13.4243,10.68796 -21.08148,14.60723 -1.31797,0.72219 -2.64076,1.43568 -3.95393,2.16657 -0.35919,0.19992 -1.4453,0.4751 -1.06277,0.62565 0.46477,0.18292 0.93674,-0.35024 1.41739,-0.48609 4.15177,-1.17341 8.41505,-1.81303 12.73379,-1.25799 5.42808,0.9352 11.02785,2.55839 15.12782,6.38173 -0.46656,-0.003 -2.65943,-2.71067 -2.9747,-3.0955 -3.71513,-4.53467 -7.08091,-9.34722 -10.31649,-14.23081 C 362.92208,346.30706 350.09111,322.71835 335.10549,300.46196 314.85502,270.07128 294.61796,239.55232 270.80241,211.78045 249.04583,185.6415 227.1543,159.55413 203.01272,135.55181 189.55006,122.43306 176.19708,109.11108 161.54567,97.302722 120.28958,63.979533 73.163476,122.32447 114.41958,155.64765 Z"/>
<path d="m 636.97115,166.59334 c -0.49378,14.46953 -2.32278,28.8251 -4.2906,43.15287 -4.70869,33.25765 -10.00032,66.42247 -15.76616,99.51193 -4.95728,28.09687 -9.84257,56.21842 -13.3314,84.54319 -2.42185,19.66232 -2.66414,24.18395 -4.4211,43.80372 -3.05878,38.17009 -3.63215,76.47191 -3.93821,114.7438 -0.11782,29.4344 0.70818,58.86676 2.34912,88.25337 1.35528,22.68751 3.8269,45.28638 6.9253,67.79603 1.91965,13.40404 4.60489,26.6803 7.21673,39.96186 1.26065,6.85033 3.36818,13.50536 4.84564,20.30342 0.15085,0.80485 0.28656,1.62498 0.25712,2.44673 -10e-4,0.0419 -0.003,0.0838 -0.004,0.12569 1.25472,53.01817 76.23372,51.24373 74.97901,-1.77443 v 0 c -0.015,-0.53174 -0.03,-1.06348 -0.045,-1.59521 -0.25682,-5.2533 -0.85958,-10.48675 -2.00722,-15.62623 -1.39784,-6.13766 -3.12679,-12.19301 -4.43489,-18.35214 -2.33705,-11.88342 -4.76072,-23.75835 -6.51179,-35.74607 -2.83897,-20.49809 -5.08455,-41.08074 -6.33849,-61.74149 -1.56749,-27.78804 -2.32824,-55.62133 -2.2337,-83.45493 0.28679,-36.24897 0.79352,-72.52709 3.64452,-108.68297 1.60804,-18.13958 1.82753,-22.31306 4.05389,-40.50872 3.34656,-27.35085 8.10559,-54.49632 12.88214,-81.62546 5.91922,-33.99435 11.35841,-68.06522 16.18878,-102.23267 2.40415,-17.68863 4.59793,-35.43258 4.98051,-53.30229 0,-53.03301 -75,-53.03301 -75,0 z"/>
</svg>
