<?xml version="1.0" ?>
<svg xmlns="http://www.w3.org/2000/svg" width="1000" height="1000">
<path d="m 214.48162,97.224095 c 0,13.979545 0,27.959085 0,41.938625 0,32.00035 0,64.0007 0,96.00105 0,43.9035 0,87.807 0,131.7105 0.0259,47.83226 0.0348,95.66405 -0.1851,143.49585 -0.32824,41.03627 -1.03781,82.06789 -1.42806,123.10364 -0.36738,28.38759 -0.69396,56.77548 -0.88004,85.16486 -0.0761,12.82139 -0.11393,25.64297 -0.12112,38.46457 0.1226,4.68162 0.022,2.45642 0.27827,6.67662 3.70665,52.90332 78.52323,47.66133 74.81658,-5.24198 v 0 c -0.0118,-0.035 -0.0236,-0.07 -0.0353,-0.10506 -0.0198,-0.42925 -0.0397,-0.8585 -0.0595,-1.28776 0.007,-12.67178 0.0445,-25.34354 0.11951,-38.01511 0.18536,-28.31553 0.51268,-56.62953 0.87826,-84.94327 0.39103,-41.15847 1.1057,-82.31277 1.43066,-123.4718 0.22031,-47.94671 0.21207,-95.8934 0.1859,-143.84056 0,-43.9035 0,-87.807 0,-131.7105 0,-32.00035 0,-64.0007 0,-96.00105 0,-13.97954 0,-27.95908 0,-41.938625 0,-53.033009 -75,-53.033009 -75,0 z"/>
<path d="m 255.52034,461.66794 c 10.90578,1.59075 21.92997,1.75966 32.92761,1.91802 20.83826,-0.0559 41.67077,-0.74591 62.49984,-1.32449 26.85216,-0.71191 53.70286,-1.42658 80.55106,-2.28859 29.39417,-1.19347 58.80884,-1.61022 88.22092,-2.06455 27.81118,-0.5023 55.61753,-1.22639 83.42976,-1.66874 18.92612,-0.55302 37.84343,0.029 56.75514,0.70567 9.85232,0.42119 19.72241,0.34183 29.55494,1.14381 52.86645,4.19972 58.80576,-70.56474 5.9393,-74.76446 v 0 c -10.92108,-0.85202 -21.8679,-0.9647 -32.81259,-1.33139 -20.20311,-0.72279 -40.41318,-1.3118 -60.6312,-0.74412 -27.80022,0.44339 -55.59467,1.16214 -83.39378,1.66818 -29.82834,0.46079 -59.65922,0.88772 -89.46948,2.09424 -26.74019,0.85869 -53.48281,1.57109 -80.227,2.27888 -19.78717,0.54986 -39.57712,1.19627 -59.37246,1.30284 -9.09242,-0.12167 -18.18651,-0.23471 -27.19699,-1.61866 -52.81617,-4.7907 -59.59124,69.90266 -6.77507,74.69336 z"/>
<path d="m 671.00178,102.23209 c 1.92883,14.17106 3.4575,28.3915 4.88232,42.62102 2.48966,25.64062 3.25775,51.39396 3.6567,77.13745 0.59844,33.3514 -0.91352,66.68679 -2.014,100.01129 -1.29502,35.90894 -2.18106,71.82925 -2.88921,107.75395 -0.58838,32.96501 -1.62571,65.91923 -2.59656,98.8745 -0.8927,28.60519 -1.23803,57.22251 -1.43075,85.83964 -0.11931,22.47877 -0.11246,44.95794 -0.10844,67.43695 0.005,15.50753 0.0118,31.01505 0.0153,46.52258 0.002,7.73929 0.002,15.47858 0.003,23.21787 3e-5,1.41187 10e-6,2.82374 -10e-6,4.23561 -9.1e-4,53.033 74.99909,53.0343 75,10e-4 v 0 c 2e-5,-1.41303 4e-5,-2.82606 10e-6,-4.2391 -2.3e-4,-7.74427 -10e-4,-15.48855 -0.003,-23.23282 -0.004,-15.50629 -0.01,-31.01258 -0.0153,-46.51887 -0.004,-22.30651 -0.011,-44.61319 0.10675,-66.91947 0.18812,-28.04891 0.5242,-56.09805 1.39992,-84.13524 0.97797,-33.19896 2.02173,-66.39689 2.61453,-99.60565 0.7008,-35.59204 1.57909,-71.17968 2.86291,-106.75607 1.14045,-34.54081 2.68099,-69.09291 2.04564,-103.6615 -0.44093,-27.85095 -1.30829,-55.71141 -4.02208,-83.44894 -1.46784,-14.60557 -3.0197,-29.20522 -5.00432,-43.750895 -6.09272,-52.681864 -80.59613,-44.065461 -74.50341,8.616405 z"/>
</svg>
