<?xml version="1.0" ?>
<svg xmlns="http://www.w3.org/2000/svg" width="1000" height="1000">
<path d="m 731.33429,144.1006 c -8.88022,-10.7752 -19.14776,-20.42378 -29.83068,-29.39089 -4.27381,-3.58738 -8.56066,-7.17088 -13.057,-10.47505 -5.31067,-3.90257 -10.89445,-7.419157 -16.34168,-11.128737 -6.32074,-3.49641 -12.45926,-7.34468 -18.96221,-10.48924 -31.0304,-15.005 -66.71551,-23.58447 -101.03999,-25.92551 -10.37597,-0.70768 -20.79555,-0.43797 -31.19333,-0.65696 -27.92715,2.08473 -37.72073,1.82046 -65.16813,7.84847 -33.71453,7.4044 -67.32975,19.72487 -97.85517,35.83123 -10.4728,5.525847 -20.39515,12.037287 -30.59273,18.055927 -23.27977,16.65361 -34.84888,23.5517 -55.36758,43.78768 -18.27331,18.02153 -32.74351,36.61906 -46.91196,57.96596 -17.69719,26.66348 -20.69351,34.9386 -34.856609,63.47843 -11.65582,30.39595 -16.16244,38.47455 -22.77546,70.73384 -5.43286,26.50235 -7.40919,50.96715 -7.44201,78.00406 -0.04,32.92272 2.25969,43.97788 6.14007,76.41292 8.10416,47.6395 22.53948,94.06849 44.109009,137.35969 12.98635,26.0643 17.21911,31.0889 32.88832,55.15986 22.54242,31.1218 49.71103,58.93 82.69159,79.02298 19.85691,12.09756 25.33363,13.17208 46.71266,21.51268 7.89953,2.05791 15.69174,4.58376 23.69859,6.17373 23.70376,4.70698 48.07219,5.09957 71.88158,0.89675 21.10647,-3.7257 25.88148,-6.58726 45.8476,-14.11329 28.67933,-13.2497 55.11979,-31.02365 78.2429,-52.5638 16.25671,-15.1438 19.29356,-19.75669 33.67312,-36.74017 18.92438,-24.12236 34.71523,-50.47362 47.96089,-78.08745 6.93849,-14.465 8.43575,-18.74952 14.37116,-33.32687 7.5066,-20.85061 3.898,-10.3998 10.82922,-31.35127 16.62138,-50.361 -54.59982,-73.86718 -71.2212,-23.50618 v 0 c -5.99398,18.20948 -2.94655,9.31521 -9.11812,26.69105 -1.80421,4.47847 -3.51585,8.99535 -5.41263,13.43541 -11.8158,27.65894 -26.52971,54.06156 -44.87314,77.94874 -10.67512,12.88604 -13.21275,16.73696 -25.28605,28.22279 -16.71151,15.89835 -35.79862,29.19682 -56.4617,39.42109 -12.35789,5.10992 -14.809,6.78936 -27.97619,9.56441 -19.89963,4.19393 -40.14309,2.74097 -59.62037,-2.81378 -14.14711,-5.09647 -17.94642,-5.76494 -31.22418,-13.48447 -24.81929,-14.42962 -45.01529,-35.13546 -62.00735,-58.04429 -13.15143,-19.85407 -16.42669,-23.59015 -27.41066,-45.25353 -18.39097,-36.27203 -30.68804,-75.26188 -37.85204,-115.24755 -3.49869,-27.76755 -5.38684,-36.27187 -5.6393,-64.38606 -0.19213,-21.39651 1.10661,-41.14943 5.12047,-62.17216 4.91439,-25.7393 8.37539,-31.93224 17.45376,-56.36871 4.36109,-8.96412 8.35241,-18.11777 13.08327,-26.89237 13.5978,-25.22064 30.72408,-50.90481 50.93585,-71.35245 16.20405,-16.39314 25.68471,-22.14882 44.25562,-35.6871 8.06459,-4.88159 15.89942,-10.16466 24.19376,-14.64478 24.0038,-12.96549 51.89793,-23.57054 78.49535,-29.72266 21.48396,-4.96934 29.52392,-4.89182 51.35911,-6.77725 7.90337,0.0565 15.81861,-0.2671 23.71013,0.16938 24.32206,1.34528 51.6171,7.1201 73.84926,17.32434 4.43607,2.0361 8.6299,4.56316 12.94485,6.84473 3.79447,2.49823 7.70002,4.83541 11.38341,7.49469 5.89632,4.25694 13.28458,10.61152 18.7553,15.56847 1.89592,1.71786 7.81402,7.30286 10.08595,9.81449 1.14293,1.26351 2.17392,2.62393 3.26088,3.9359 33.99565,40.70375 91.55945,-7.37337 57.56379,-48.07712 z"/>
<path d="m 423.87985,476.67465 c 19.75187,0.51558 39.50827,-0.33467 59.23754,-1.20043 36.21302,-1.64319 72.34602,-4.57965 108.48243,-7.37929 41.68264,-3.60246 83.36887,-7.06084 125.13349,-9.56088 23.65707,-1.26496 47.3757,-2.0221 71.05456,-0.94397 52.98219,2.32119 56.26485,-72.60694 3.28266,-74.92813 v 0 c -26.27078,-1.11598 -52.57724,-0.47441 -78.82339,1.00639 -42.20018,2.53131 -84.32365,6.00016 -126.44054,9.65067 -35.30588,2.7353 -70.6077,5.61465 -105.98807,7.22779 -17.82674,0.7876 -35.67794,1.58692 -53.526,1.16666 -53.00556,-1.70602 -55.41824,73.25516 -2.41268,74.96119 z"/>
<path d="m 628.17339,441.01039 c 0,8.8048 0,17.6096 0,26.41441 0,19.09237 0,38.18475 0,57.27713 0,23.97851 0,47.95703 0,71.93555 0,23.01236 0,46.02472 0,69.03709 0,21.06175 0,42.1235 0,63.18525 0,17.81991 0,35.63982 0,53.45973 -0.0505,14.24484 0.0993,28.49097 -0.0753,42.73505 -0.16511,9.45384 -0.37162,18.90685 -0.49947,28.36131 -0.0319,2.43448 -0.0508,4.86909 -0.0672,7.30372 -0.35423,53.03183 74.64409,53.53278 74.99832,0.50096 v 0 c 0.015,-2.2644 0.0326,-4.52878 0.0621,-6.79304 0.12777,-9.49594 0.34001,-18.99032 0.50105,-28.4857 0.16659,-14.54002 0.042,-29.08156 0.0806,-43.6223 0,-17.81991 0,-35.63982 0,-53.45973 0,-21.06175 0,-42.1235 0,-63.18525 0,-23.01237 0,-46.02473 0,-69.03709 0,-23.97852 0,-47.95704 0,-71.93555 0,-19.09238 0,-38.18476 0,-57.27713 0,-8.80481 0,-17.60961 0,-26.41441 0,-53.03301 -75,-53.03301 -75,0 z"/>
</svg>
