<?xml version="1.0" ?>
<svg xmlns="http://www.w3.org/2000/svg" width="1000" height="1000">
<path d="m 209.68367,141.26721 c 1.92635,14.08068 3.30121,28.22352 4.53422,42.379 2.84234,30.47057 3.6478,61.06715 4.25201,91.64713 0.61421,42.6977 0.5082,85.40056 0.87793,128.10045 0.41543,37.53319 1.76003,75.07602 4.99365,112.48031 0.61252,7.08525 1.36398,14.15781 2.04598,21.23672 2.83238,25.1116 5.70633,50.27045 10.47249,75.1062 2.78715,14.52345 3.66475,17.15348 7.21944,31.17134 5.89921,20.47605 12.01805,41.26919 22.80874,59.81309 2.16414,3.7191 4.66223,7.23356 6.99335,10.85035 9.46426,13.24725 20.81102,25.08741 33.91681,34.778 8.77959,6.49175 12.06164,8.00595 21.47935,13.39192 15.07738,7.89189 31.01761,14.01665 47.33396,18.80676 10.97005,3.22056 15.21445,4.04576 26.39048,6.65782 22.88778,4.88633 46.1509,8.24398 69.5329,9.49818 4.84065,0.25965 9.68928,0.33939 14.53392,0.50908 28.17745,0.49252 56.21761,-2.72957 84.07061,-6.62624 20.45429,-3.29635 40.85432,-7.32784 60.80958,-12.95475 3.73093,-1.05204 7.42319,-2.2367 11.13478,-3.35505 18.12485,-5.92632 35.29294,-14.5415 50.93598,-25.4441 3.07786,-2.14515 6.03258,-4.46179 9.04887,-6.69269 13.80471,-10.95251 25.19802,-24.4535 34.52418,-39.35748 5.82596,-9.31039 8.08391,-14.26134 13.05136,-24.00389 10.43225,-22.06298 20.11646,-44.55825 27.24318,-67.93238 1.58394,-5.19498 2.93634,-10.45775 4.4045,-15.68662 8.3284,-31.83999 12.4198,-64.53416 15.55702,-97.22692 3.10914,-36.1756 3.35161,-72.504 3.28591,-108.78604 -0.3737,-36.30374 -0.20877,-72.60938 0.38002,-108.90946 0.52007,-29.19149 0.70453,-58.3901 -0.98154,-87.54521 -0.94918,-14.68483 -2.6066,-29.31031 -5.13057,-43.80609 -0.28944,-1.47312 -0.57889,-2.94623 -0.86833,-4.41935 -10.33352,-52.016514 -83.89599,-37.40272 -73.56247,14.6138 v 0 c 0.18642,0.92228 0.37284,1.84456 0.55926,2.76683 2.06725,11.65834 3.32776,23.43636 4.13147,35.24789 1.63608,27.28153 1.28495,54.61283 0.86199,81.92888 -0.59312,36.75234 -0.76846,73.51027 -0.38969,110.26631 0.0685,33.85668 -0.10924,67.75761 -2.94707,101.51986 -2.68317,28.31079 -6.10435,56.63751 -13.15172,84.24698 -1.13853,4.14054 -2.18189,8.30844 -3.41559,12.42163 -5.93453,19.78588 -14.18685,38.76989 -22.90833,57.46037 -6.75838,13.52521 -13.76429,27.26595 -25.57334,37.14827 -11.24648,8.572 -23.29221,16.0597 -36.84776,20.42535 -19.82292,6.08095 -40.09593,10.61035 -60.58532,13.80315 -23.57256,3.3269 -47.29831,6.17669 -71.14908,5.93822 -3.90292,-0.12064 -7.80884,-0.16727 -11.70878,-0.36192 -19.46482,-0.9715 -38.83498,-3.74747 -57.89695,-7.74639 -18.49643,-4.25148 -36.9761,-9.08608 -53.95855,-17.80371 -4.91248,-2.66761 -7.17732,-3.71833 -11.71243,-6.85251 -6.88065,-4.75517 -12.8361,-10.71195 -17.88731,-17.35927 -3.10336,-4.40393 -4.10156,-5.4735 -6.55265,-10.45565 -5.83634,-11.86309 -9.34457,-24.73187 -13.09845,-37.34636 -2.90178,-11.23301 -3.71891,-13.72477 -5.99475,-25.46496 -4.45055,-22.95878 -7.05562,-46.23377 -9.70754,-69.4505 -0.63981,-6.59317 -1.34519,-13.18031 -1.91943,-19.77952 -3.10678,-35.70382 -4.37606,-71.54245 -4.77495,-107.37057 -0.37323,-42.97919 -0.26022,-85.96147 -0.88987,-128.93836 -0.64305,-32.26219 -1.52784,-64.53999 -4.52187,-96.6867 -1.30605,-14.90727 -2.7391,-29.80447 -4.76564,-44.63409 -6.21044,-52.668113 -80.6944,-43.885228 -74.48396,8.78289 z"/>
</svg>
