<?xml version="1.0" ?>
<svg xmlns="http://www.w3.org/2000/svg" width="800" height="1000">
<path d="m 278.75868,122.96668 c 1.79034,1.43971 3.56364,2.90063 5.35944,4.33353 5.50189,4.39007 13.20867,10.38278 18.42245,14.77736 8.93227,7.52881 15.07798,13.34715 23.82887,21.36634 32.99828,30.89723 63.14308,64.62991 93.34208,98.21399 23.26338,25.484 11.30331,12.66351 35.90779,38.4357 36.63453,38.34594 90.86388,-13.4631 54.22935,-51.80905 v 0 C 486.52941,223.89441 497.98284,236.15605 475.47908,211.50832 443.65247,176.11847 411.83757,140.61469 377.00393,108.11627 358.45791,91.163664 339.64327,74.559844 319.25114,59.836966 274.6117,31.204471 234.11923,94.334182 278.75868,122.96668 Z"/>
</svg>
