<?xml version="1.0" ?>
<svg xmlns="http://www.w3.org/2000/svg" width="800" height="1000">
<path d="m 409.92556,175.83752 c -0.95539,0.1175 -2.45599,-1.12541 -0.20004,-0.27529 1.03548,0.3902 2.06665,0.81087 3.03196,1.35184 1.00845,0.56513 1.91046,1.30214 2.86568,1.95321 -0.37988,-1.11651 3.07886,3.12217 3.03189,2.75262 -0.0543,-0.42684 -0.27368,-0.81701 -0.37453,-1.2353 -0.0854,-0.35403 -0.19406,-1.49986 -0.22739,-1.81227 -0.28225,-3.182 -0.46916,-6.37703 -0.51323,-9.57183 -0.0119,-0.8645 -0.012,-3.45754 0.0224,-2.59365 0.0487,1.22312 0.0137,2.44814 0.0205,3.67221 -1.25826,3.62933 -1.95228,7.50662 -3.77478,10.88801 -2.19604,4.07442 -7.12501,9.01962 -11.94107,10.39196 -2.59125,0.73838 -3.44481,0.56513 -5.90693,0.51003 -3.9052,0.2788 -8.15339,-5.28657 -10.08657,-7.61851 -2.3174,-2.79542 -0.75558,-3.42512 -2.11509,-2.77602 -0.093,1.83343 0.75098,4.9621 0.13127,6.69213 -0.10442,0.29152 -0.24371,-0.59679 -0.21097,-0.90471 0.17295,-1.6265 0.29314,-3.28978 0.82157,-4.83774 0.7482,-2.19174 1.98233,-4.18622 2.9735,-6.27934 3.19836,-3.89559 2.75667,-2.18348 3.1979,-4.23214 -46.74682,25.04465 -11.32834,91.15464 35.41849,66.10999 v 0 c 12.78737,-7.44796 6.13618,-2.85193 19.48144,-14.44746 2.81001,-4.32102 6.17744,-8.32698 8.43001,-12.96306 6.63213,-13.64973 5.36239,-29.3561 3.30359,-43.83013 -1.83248,-7.86417 -2.56515,-13.30178 -6.81696,-20.60953 -8.24754,-14.17536 -18.56467,-20.91464 -33.42609,-26.27362 -3.73006,-0.86872 -7.38927,-2.13592 -11.19018,-2.60615 -19.23465,-2.37964 -40.94216,4.01025 -53.07506,20.05504 -3.98301,5.26722 -5.80754,11.86189 -8.71131,17.79283 -0.50776,3.7559 -1.17906,7.49329 -1.52328,11.26769 -0.15706,1.72223 -0.0121,3.45906 0.0225,5.18809 0.14895,7.44308 0.71004,14.89737 2.03568,22.22886 0.4659,2.08271 0.85489,4.18413 1.39769,6.24814 3.19957,12.16629 8.82344,23.54101 17.50458,32.74339 2.48198,2.12549 4.78786,4.47579 7.44593,6.37647 9.36841,6.69896 20.5402,10.03649 31.86184,11.30789 52.79517,5.01693 59.89018,-69.64673 7.095,-74.66365 z"/>
<path d="m 315.4056,474.99047 c 5.96708,-2.73061 11.71544,-5.91712 17.82845,-8.3247 4.55279,-1.79309 9.65117,-3.51311 14.2359,-5.11332 16.12774,-6.04267 32.67583,-10.72632 49.31281,-15.11459 5.27384,-1.30119 10.53202,-2.70976 15.86889,-3.74103 0.69213,-0.13375 2.79958,-0.33336 2.10225,-0.23009 -0.65983,0.0977 -1.32746,0.13263 -1.99118,0.19895 -12.65231,-0.3661 -21.97328,-6.34804 -28.37865,-17.14056 -0.60261,-1.01535 -0.98314,-2.14703 -1.47471,-3.22055 -0.20899,-0.58123 -0.25575,-1.25001 -0.62695,-1.74368 -0.17432,-0.23184 -0.0399,0.57975 -0.0303,0.86965 0.0366,1.10151 0.12288,2.20088 0.16872,3.30205 0.24693,5.93203 0.31851,11.86584 0.39513,17.8019 0.14338,19.18684 0.10637,38.37453 0.0998,57.56175 -0.011,23.11109 -0.017,46.22218 -0.0203,69.33327 -0.003,25.82451 -0.003,51.64902 -0.003,77.47353 -1e-5,27.42742 9e-5,54.85483 1.4e-4,82.28224 -0.0951,23.31382 0.19242,46.63053 -0.15192,69.94251 -0.37163,12.54584 -1.32564,25.09233 -3.35268,37.48654 -1.23935,7.57788 -1.87372,10.02891 -3.51016,17.57747 -3.20557,15.72847 -9.51644,30.46021 -15.72295,45.16948 -4.72607,11.09196 -8.89538,22.40236 -12.65055,33.8557 -0.22738,0.62417 -0.45476,1.24835 -0.68214,1.87252 -0.0806,0.14242 -0.29701,0.58123 -0.24166,0.42725 1.41284,-3.93018 3.99933,-6.8119 7.03865,-9.57157 0.25733,-0.23821 0.99045,-0.44034 0.77198,-0.71462 -0.24156,-0.30328 -0.76193,0.1502 -1.1336,0.2606 -3.96503,1.17779 -7.8522,2.5842 -11.87937,3.54672 -0.3629,-0.113 -0.74397,-0.24137 -1.11889,-0.28888 -4.73859,-0.60049 -9.37786,-0.97257 -14.04024,-2.09111 -7.71406,-2.89143 -15.34829,-6.90937 -21.16456,-12.86328 -1.13061,-1.15736 -2.06891,-2.48811 -3.10337,-3.73216 -7.52419,-10.75864 -13.25137,-22.69627 -17.14851,-35.22712 -0.86976,-2.79663 -1.55737,-5.64669 -2.33606,-8.47004 -4.32996,-15.88254 -1.48263,-30.03052 1.18937,-45.85811 8.71929,-52.31132 -65.26008,-64.64226 -73.97937,-12.33094 v 0 c -1.44574,8.76415 -2.91081,16.59468 -3.70281,25.43749 -1.60749,17.94777 -0.36815,35.92461 4.37624,53.34767 1.27732,4.37568 2.40924,8.79644 3.83195,13.12703 7.32948,22.31026 18.25099,43.40429 33.27962,61.50931 3.38815,3.43209 6.57615,7.07404 10.16447,10.29627 12.40048,11.13535 27.51512,19.71128 43.21051,25.23052 3.23753,1.13847 6.58334,1.94175 9.87501,2.91266 2.83962,0.5684 5.66328,1.2235 8.51887,1.7054 13.46033,2.2716 27.38882,2.8583 40.78615,-0.058 11.53696,-3.03912 23.11941,-6.46823 33.59627,-12.29302 2.63455,-1.87787 5.43595,-3.54132 7.90365,-5.63362 8.43959,-7.15571 13.93327,-16.79393 17.26633,-27.20957 3.09956,-9.48819 6.5544,-18.85262 10.47469,-28.03582 8.03288,-19.04504 15.80554,-38.25944 19.95486,-58.60355 2.0896,-9.83772 2.86447,-12.85012 4.43525,-22.78294 2.45458,-15.52157 3.6616,-31.21784 4.08528,-46.91938 0.33264,-23.67218 0.082,-47.3481 0.15969,-71.02204 -5e-5,-27.42728 -1.5e-4,-54.85455 -1.4e-4,-82.28183 10e-5,-25.821 -1e-5,-51.642 0.003,-77.46299 0.003,-23.10619 0.009,-46.21238 0.0203,-69.31856 0.007,-19.52469 0.045,-39.04988 -0.10633,-58.57414 -0.18924,-14.13443 0.10752,-28.52842 -3.53123,-42.29681 -2.47272,-6.43491 -3.14647,-9.48423 -7.7212,-15.21461 -8.47255,-10.61283 -19.95141,-15.72203 -33.30333,-16.36892 -1.99162,0.0576 -3.98735,0.0326 -5.97486,0.17287 -10.08818,0.71178 -19.84321,3.84912 -29.6432,6.08294 -18.5438,4.90106 -36.98362,10.1648 -54.97718,16.85228 -7.1818,2.52662 -12.10637,4.16045 -19.16033,7.03707 -7.3597,3.00131 -14.39206,6.6795 -21.5735,10.06595 -47.45539,23.67458 -13.97448,90.78664 33.48091,67.11206 z"/>
</svg>
