<?xml version="1.0" ?>
<svg xmlns="http://www.w3.org/2000/svg" viewBox="0 0 1000 1000">
<path d="m 318.06754,95.273996 c -0.1077,14.815534 0.55577,29.623184 1.17087,44.422234 1.24295,30.30228 4.339,60.47998 7.32704,90.64701 3.12372,31.93819 5.11976,64.01054 4.91588,96.11296 -0.0456,7.17801 -0.28072,14.35356 -0.42109,21.53033 -1.59184,46.60104 -4.9796,93.11303 -7.92753,139.6408 -2.86358,42.7378 -4.05016,85.55586 -4.73539,128.37556 -0.37295,27.44986 -0.39855,54.90263 -0.38719,82.35449 0.0127,14.37853 0.0354,28.75704 0.0487,43.13557 0.006,6.79564 0.008,13.59129 0.009,20.38693 1.4e-4,1.69212 7e-5,3.38423 1e-5,5.07635 -0.002,53.03301 74.9981,53.03569 75,0.003 v 0 c 6e-5,-1.69569 1.3e-4,-3.39139 -10e-6,-5.08708 -7.3e-4,-6.81609 -0.003,-13.63218 -0.009,-20.44827 -0.0133,-14.36578 -0.036,-28.73155 -0.0487,-43.09733 -0.0113,-27.04239 0.0125,-54.08567 0.37764,-81.12612 0.66313,-41.63728 1.80684,-83.27331 4.5949,-124.83083 3.01747,-47.63397 6.48799,-95.25231 8.06416,-142.96359 0.14403,-7.85038 0.39159,-15.69955 0.4321,-23.55114 0.17732,-34.37034 -1.93381,-68.70949 -5.27878,-102.9048 -2.84809,-28.74684 -5.82913,-57.5018 -7.02681,-86.37711 -0.57526,-13.75835 -1.20908,-27.52476 -1.10579,-41.298644 0,-53.033009 -75,-53.033009 -75,0 z"/>
<path d="m 391.1378,511.5176 c 2.29721,-4.04553 6.15958,-7.20172 9.42647,-10.44649 10.35971,-10.84724 22.36609,-19.87452 34.48001,-28.64358 10.97323,-6.73396 22.04228,-13.46827 33.70551,-18.9647 6.73128,-3.17219 11.98736,-5.13077 18.92045,-7.88393 8.82317,-3.71754 18.06878,-6.08513 27.48799,-7.67509 5.50453,-0.92916 11.27786,-1.74623 16.894,-1.67613 2.16266,0.027 4.31029,0.36421 6.46544,0.54632 12.97904,1.59439 24.84285,6.66949 35.91768,13.4424 2.82503,1.72767 5.54943,3.61476 8.32414,5.42213 2.42117,1.87906 4.9585,3.61732 7.26352,5.63718 8.17627,7.16472 15.71225,18.11521 20.76821,27.66173 1.47447,2.78405 2.7054,5.69041 4.0581,8.53562 6.73581,16.36833 10.38232,33.91357 10.40201,51.63447 0.004,3.94056 -0.30596,7.87518 -0.45895,11.81278 -1.84674,17.66912 -4.39412,35.40848 -9.31079,52.5216 -3.23608,11.26364 -4.95766,14.73947 -9.33688,25.65121 -7.20962,16.78363 -15.6278,33.05967 -26.34377,47.88867 -5.86853,8.121 -8.45291,10.94326 -14.79333,18.51627 -8.10049,9.35467 -17.67711,17.693 -29.43489,22.06235 -1.58494,0.58899 -3.24973,0.93541 -4.87459,1.40311 -14.78703,3.58666 -28.6617,2.29133 -43.51552,0.0576 -12.51478,-2.34232 -24.76886,-6.17162 -36.39886,-11.36384 -7.25372,-3.23843 -9.76486,-4.8791 -16.69555,-8.80081 -8.12747,-5.01466 -16.23353,-10.19978 -23.39463,-16.56408 -2.78006,-2.47072 -6.23965,-5.72457 -7.93132,-9.24745 -0.57709,-1.2018 -0.69787,-2.5734 -1.04681,-3.8601 -0.56148,-2.57003 -1.12296,-5.14007 -1.68443,-7.71011 -15.05182,-50.85216 -86.96764,-29.56568 -71.91583,21.28649 v 0 c 2.16361,6.6366 4.32722,13.2732 6.49083,19.9098 3.09276,5.61078 5.72332,11.5024 9.27827,16.83234 2.88953,4.33227 6.41134,8.22572 9.97039,12.02717 12.53584,13.38963 28.30548,23.32177 43.78271,32.87239 4.12925,2.26936 8.18985,4.66838 12.38775,6.80809 20.94428,10.67549 43.50652,18.03968 66.65099,22.07055 4.42515,0.60072 8.83362,1.3407 13.27546,1.80216 21.87578,2.27265 43.95264,1.0461 65.11747,-5.19026 4.33254,-1.57921 8.75605,-2.92822 12.99761,-4.73763 21.39823,-9.12825 39.53189,-24.21645 54.61146,-41.70872 8.17018,-9.87949 11.80993,-13.91725 19.35117,-24.60088 13.67253,-19.36982 24.69106,-40.4091 33.88554,-62.23714 6.07584,-15.60733 7.922,-19.19566 12.41467,-35.32951 6.19737,-22.25575 9.51335,-45.27978 11.43349,-68.25973 0.332,-15.8921 0.91298,-19.83115 -0.71943,-35.59396 -2.2573,-21.79678 -8.08966,-43.10415 -16.93252,-63.13206 -2.37782,-4.71739 -4.56194,-9.53752 -7.13346,-14.15218 -12.83722,-23.03668 -29.96887,-42.75729 -51.78344,-57.66989 -10.45508,-6.61427 -14.5085,-9.57166 -25.66673,-15.0445 -17.41418,-8.54124 -36.12151,-13.78219 -55.43753,-15.56816 -4.97017,-0.15766 -9.93873,-0.56733 -14.9105,-0.47297 -8.63419,0.16387 -18.81405,1.52156 -27.28803,3.08796 -13.69929,2.53228 -27.16614,6.19018 -40.07457,11.4687 -10.36288,4.16862 -14.94615,5.82593 -25.14573,10.70954 -15.16474,7.26095 -29.64158,15.99418 -43.73793,25.11872 -15.28547,11.15622 -30.3776,22.69116 -43.51658,36.382 -10.92658,11.05179 -20.95834,22.16114 -26.48411,36.97881 -18.65752,49.6427 51.54785,76.02841 70.20537,26.38572 z"/>
</svg>
