<?xml version="1.0" ?>
<svg xmlns="http://www.w3.org/2000/svg" viewBox="0 0 1000 1000">
<path d="m 268.58319,491.71621 c 0.47497,-1.23494 -0.18042,2.85422 0.25238,2.46528 1.23002,-1.10537 2.02757,-2.61365 3.0032,-3.94892 4.93721,-6.75719 6.50319,-9.15312 11.35199,-16.21182 3.01664,-4.32321 5.85565,-8.73415 9.389,-12.66712 5.59007,-6.22228 12.95367,-11.38014 19.69069,-16.27079 1.26954,-0.80277 2.47868,-1.71015 3.80861,-2.40833 0.21418,-0.11243 0.90271,-0.13603 0.72514,0.0282 -1.29785,1.20068 -2.77191,1.54392 -4.29335,2.28247 -0.24458,0.11873 -1.51705,0.9202 -1.7896,1.09022 0.20618,0.70488 -0.72312,0.905 -0.8018,1.45237 -0.24182,1.68226 1.59534,6.34216 1.70246,6.73923 2.16388,8.02068 2.20993,9.58535 3.78907,18.48135 4.1702,31.53141 3.62006,63.42783 3.47124,95.16007 -0.27726,22.51441 -0.44135,45.05225 -2.03956,67.52248 -0.96802,13.60994 -1.53464,17.21082 -3.09586,30.69482 -3.36094,25.36957 -8.46292,50.47252 -14.2179,75.39563 -3.22109,12.76535 -6.39235,25.56461 -10.20085,38.1715 -0.60587,1.66753 -0.61407,2.14323 -0.55654,1.31431 -20.61731,48.8613 48.483,78.01859 69.10031,29.15729 v 0 c 2.38634,-5.95169 1.29204,-2.97609 3.29388,-8.92275 4.2306,-14.17498 7.89664,-28.51919 11.44734,-42.87668 6.36453,-27.66302 12.00479,-55.52435 15.64502,-83.69107 1.77744,-15.61924 2.36594,-19.28998 3.46692,-35.04332 1.66013,-23.75379 1.87944,-47.5752 2.15644,-71.37479 0.16724,-36.54295 0.66856,-73.29412 -4.79378,-109.53425 -2.60183,-13.10512 -3.56834,-20.73333 -8.23601,-33.30328 -5.98716,-16.12328 -15.02983,-30.57162 -28.8782,-41.09394 -3.98842,-3.0305 -8.60782,-5.12553 -12.91174,-7.6883 -4.66669,-1.61803 -9.19572,-3.70768 -14.00007,-4.8541 -13.81225,-3.29588 -27.26087,-1.98317 -40.40177,3.15836 -6.58941,2.57818 -11.00309,5.8731 -16.76157,9.67669 -8.78742,6.49527 -17.4683,13.09014 -25.27904,20.77524 -8.06684,7.9371 -15.08638,16.74592 -21.27768,26.20585 -11.51218,16.81311 1.65442,-2.30834 -10.59652,15.13091 -5.8426,8.31695 -8.86482,12.05271 -12.922673,21.73972 -2.563608,6.11991 -2.857769,9.44926 -3.825264,15.37874 -5.564003,52.74032 69.022077,60.60901 74.586087,7.86869 z"/>
<path d="m 392.99302,508.26059 c 4.50279,-7.19524 9.7244,-14.16805 14.60831,-21.16325 8.73077,-13.49427 20.63022,-24.28199 33.42563,-33.809 1.24364,-0.70254 2.44904,-1.47755 3.7309,-2.10763 2.21646,-1.08946 7.4832,-3.05453 9.53319,-3.78646 4.63772,-1.65584 9.24228,-3.06395 14.05145,-4.09481 0.42736,-0.0126 1.2783,-0.46535 1.28208,-0.0378 0.004,0.44253 -0.83794,0.32244 -1.27928,0.35507 -1.22889,0.0909 -2.46953,0.12455 -3.69669,0.0128 -1.28928,-0.11736 -2.5494,-0.45284 -3.82076,-0.69713 -0.55143,-0.10595 -1.08668,-0.38949 -1.64704,-0.35351 -0.18123,0.0116 -0.17638,0.31752 -0.26457,0.47627 6.24965,8.5569 10.91077,18.196 14.23976,28.2411 0.98285,2.96571 1.77071,5.99252 2.65606,8.98877 4.50962,18.86752 6.14256,38.36612 5.88255,57.74132 -0.0604,4.50227 -0.33916,8.99896 -0.50874,13.49844 -1.86693,29.66328 -8.09987,58.7671 -15.46433,87.48246 -5.25721,19.31623 -10.45771,38.65655 -14.4903,58.27333 -2.38615,11.60758 -2.54175,13.31797 -4.38759,24.75119 -2.25795,15.01834 -3.37918,30.17339 -3.77575,45.34631 -0.0591,4.40764 -0.0445,2.33477 -0.0528,6.21856 -0.0679,53.03296 74.93205,53.12898 74.99994,0.096 v 0 c 2e-5,-2.72161 -0.007,-1.24724 0.0291,-4.42306 0.2844,-11.83886 1.1432,-23.66431 2.85758,-35.38815 4.0857,-25.8204 10.37036,-51.17302 17.48815,-76.31815 1.41481,-5.56174 2.91169,-11.10324 4.24442,-16.68522 6.80419,-28.49844 11.67309,-57.51817 13.50745,-86.77824 0.18164,-5.72399 0.50044,-11.44528 0.54491,-17.17199 0.2054,-26.4505 -2.43602,-53.01409 -9.1691,-78.6277 -1.46896,-4.6825 -2.77089,-9.42071 -4.40688,-14.04751 -7.26594,-20.549 -17.83585,-40.00518 -32.8812,-55.89629 -7.86053,-6.7813 -10.47135,-10.02175 -19.9197,-14.3864 -12.42886,-5.74151 -25.77589,-6.49959 -39.01473,-3.70736 -19.59023,4.73872 -38.85838,11.58288 -55.50726,23.20595 -2.5433,1.94199 -5.13523,3.82189 -7.62989,5.82596 -16.04949,12.89327 -30.53336,27.75478 -42.05139,44.8683 -6.09997,8.73695 -12.70686,17.35101 -17.74704,26.76828 -4.87525,9.10911 -8.52086,18.76142 -9.90559,29.02889 -5.86943,52.70721 68.66982,61.00783 74.53924,8.30062 z"/>
<path d="m 558.54428,493.39886 c 0.1391,-2.90684 0.0847,-5.84788 0.51136,-8.73488 0.0704,-0.47648 -0.0668,-1.54059 0.39101,-1.39105 0.48925,0.15979 0.0343,1.02909 0.0723,1.54237 0.0271,0.36605 0.0819,0.72952 0.12289,1.09428 8.14979,-8.06044 14.53801,-17.70662 22.42063,-25.98821 9.44004,-6.17429 18.87089,-12.41625 28.81436,-17.75384 5.31234,-2.42557 10.75308,-4.58486 16.36663,-6.2115 1.36759,-0.39628 2.74426,-0.77271 4.14213,-1.04348 0.58042,-0.11243 1.73452,-0.69198 1.77071,-0.10187 0.0374,0.60939 -1.16154,0.37663 -1.74231,0.56495 -0.69075,0.082 -1.43452,-0.0319 -2.07224,0.24586 -0.18733,0.0816 0.17476,0.39437 0.3458,0.50614 0.80786,0.52793 1.71505,0.88791 2.54389,1.38224 3.50554,2.09073 5.78969,3.97851 8.53831,6.95982 0.52113,0.80146 1.1119,1.56172 1.56338,2.40438 0.58197,1.08622 2.48612,6.15511 2.66317,6.66357 2.62249,7.53176 4.52773,15.21787 6.39334,22.96299 3.85659,17.68076 6.34048,35.65785 7.19659,53.73877 0.17691,3.73642 0.21078,7.47825 0.31617,11.21737 0.0767,26.35017 -3.00008,52.59435 -5.45287,78.79856 -2.53637,28.76341 -8.64503,57.01741 -14.03712,85.33403 -3.03748,17.64447 -6.62751,35.51324 -5.93927,53.52191 0.11549,3.02214 0.49604,6.02831 0.74406,9.04247 1.99807,13.0304 6.73691,25.59429 15.54525,35.58219 1.41597,1.6056 3.01868,3.03632 4.52803,4.55448 7.65857,6.7871 17.03212,10.62997 27.20777,11.52442 4.60377,0.40467 7.61513,0.0853 12.2131,-0.15519 9.94353,-0.87895 19.80998,-2.79194 29.24728,-6.08896 7.34844,-2.56726 10.20924,-4.0815 17.3473,-7.34583 11.24459,-5.48243 21.62809,-12.46253 31.10735,-20.61666 10.58758,-9.1075 19.96606,-19.49894 29.37311,-29.77907 10.75639,-11.75778 19.51433,-24.97803 27.63488,-38.6297 2.99451,-5.03414 5.75957,-10.20239 8.7517,-15.23795 3.03231,-5.10319 6.21311,-10.11667 9.31967,-15.175 27.71329,-45.21585 -36.23159,-84.40836 -63.94488,-39.19251 v 0 c -3.47891,5.68624 -7.03098,11.32837 -10.43673,17.05873 -8.29157,13.95105 -15.50444,28.66281 -26.727,40.6237 -7.21817,7.93798 -7.96509,8.94214 -15.35787,16.38228 -6.37741,6.41827 -13.05917,12.52824 -21.27498,16.52724 -6.38616,3.03177 -12.72698,6.0971 -19.89794,6.63124 -0.43793,0.0541 -1.02108,-0.16778 -1.31378,0.16243 -0.22869,0.258 0.68185,0.10379 1.0205,0.16844 1.04143,0.19881 2.10706,0.30656 3.11934,0.62184 4.67123,1.45492 6.71131,2.25553 10.58123,4.94865 0.99984,0.6958 1.86022,1.57316 2.79033,2.35974 0.99363,1.11674 5.37497,5.70509 3.78882,7.55973 -0.7391,-4.01518 -0.49698,-7.96433 -0.13131,-12.03233 0.87552,-9.74018 2.6063,-19.38246 4.38069,-28.98946 5.83333,-30.6461 12.33757,-61.23824 15.03417,-92.37246 2.74028,-29.28626 6.11295,-58.62233 5.74414,-88.079 -0.1521,-4.68277 -0.21707,-9.36917 -0.45631,-14.0483 -1.14389,-22.37164 -4.29497,-44.61414 -9.17782,-66.47105 -4.09844,-16.50976 -8.33483,-33.23954 -16.73674,-48.2053 -6.03953,-10.75781 -7.86576,-11.93666 -15.78523,-21.01547 -3.05992,-2.71106 -5.97638,-5.59324 -9.17977,-8.13316 -10.56053,-8.37332 -24.80341,-16.09433 -38.01474,-19.11871 -3.91483,-0.89619 -7.94329,-1.1918 -11.91493,-1.7877 -3.85134,0.13651 -7.71974,0.0227 -11.55404,0.40953 -5.21844,0.52643 -12.34837,2.41353 -17.37992,3.96321 -9.91934,3.05508 -19.55166,6.98554 -28.82883,11.63531 -7.39477,4.10141 -14.47749,8.33456 -21.60838,12.87017 -5.89803,3.75146 -11.92113,7.51528 -17.37432,11.90744 -3.1758,2.55789 -6.09179,5.42257 -9.13769,8.13386 -2.06469,2.2992 -4.18366,4.55079 -6.19406,6.8976 -2.59213,3.02587 -4.92797,6.26445 -7.50381,9.3042 -2.92939,3.45699 -8.16896,9.20153 -10.83794,12.58931 -2.40651,3.05464 -4.62811,6.25051 -6.94216,9.37577 -2.06417,3.8918 -4.48358,7.61505 -6.19251,11.67541 -4.57692,10.87456 -5.35181,22.63002 -5.5039,34.25201 0,53.03301 75,53.03301 75,0 z"/>
</svg>
