<?xml version="1.0" ?>
<svg xmlns="http://www.w3.org/2000/svg" width="800" height="1000">
<path d="m 539.75703,486.83959 c -6.03772,-17.53176 -18.60111,-31.48502 -29.97769,-45.74045 -11.32571,-12.99983 -23.48063,-25.75882 -37.84104,-35.48592 -11.13441,-7.54196 -14.91591,-8.82572 -26.82036,-14.5257 -4.31761,-1.67077 -8.55621,-3.56213 -12.95282,-5.01233 -17.97528,-5.92905 -39.20453,-9.19901 -58.16533,-8.36927 -5.50227,0.24079 -10.96474,1.05175 -16.4471,1.57762 -5.58668,1.22467 -11.26097,2.10203 -16.76003,3.67401 -22.63373,6.47012 -43.64361,18.75523 -61.64043,33.78204 -4.76695,3.98026 -9.13502,8.41524 -13.70253,12.62286 -4.30729,5.08492 -8.91769,9.92787 -12.92186,15.25475 -15.5294,20.65931 -26.98824,45.86382 -34.68959,70.44148 -2.03793,6.50371 -3.6004,13.14697 -5.4006,19.72046 -8.28269,34.28632 -8.77562,69.70514 -4.62395,104.60391 0.80219,6.74315 1.98289,13.43585 2.97434,20.15378 1.45617,6.76334 2.6644,13.58486 4.36851,20.29002 6.20843,24.42822 16.35298,50.07799 28.9533,71.95203 3.09251,5.36856 6.62474,10.47153 9.93711,15.70729 13.45238,19.04753 29.67632,36.01807 49.91586,47.90459 13.32769,7.82724 16.42262,8.02519 31.04181,12.95182 5.79692,0.98741 11.53647,2.40865 17.39077,2.96223 17.86883,1.68965 35.87753,-0.87277 52.71713,-6.99964 15.06316,-5.48053 19.75664,-9.17385 33.41855,-17.35165 5.07386,-3.86864 10.33469,-7.50363 15.22158,-11.60592 9.23111,-7.74903 17.99763,-16.79895 25.97419,-25.81783 7.57356,-8.56323 15.5132,-18.54978 22.08691,-27.90097 3.39104,-4.8238 6.48538,-9.8495 9.72806,-14.77426 6.74261,-12.00415 10.92731,-18.37721 15.77269,-31.39329 2.30876,-6.20201 3.89677,-12.64897 5.84516,-18.97346 14.83518,-50.91578 -57.17061,-71.8959 -72.0058,-20.98012 v 0 c -0.86457,3.32988 -1.49273,6.73028 -2.59373,9.98964 -2.81283,8.32705 -5.5819,12.56215 -9.82388,20.3638 -2.36225,3.66251 -4.607,7.40354 -7.08675,10.98753 -9.56929,13.8305 -21.50435,28.19315 -34.08264,39.40689 -2.70208,2.40895 -5.6089,4.57794 -8.41336,6.86691 -2.84186,1.85197 -5.60013,3.83901 -8.52558,5.5559 -10.48265,6.15205 -21.18362,9.40991 -33.37838,8.03908 -1.94626,-0.46249 -3.94461,-0.74406 -5.83877,-1.38747 -14.59571,-4.95787 -25.2661,-16.4405 -34.29014,-28.42346 -2.21705,-3.35872 -4.6025,-6.61215 -6.65117,-10.07615 -4.54813,-7.69021 -8.91378,-16.95856 -12.36744,-25.15801 -5.87673,-13.95217 -10.47117,-28.38593 -13.15097,-43.30896 -0.81892,-5.29829 -1.79457,-10.57471 -2.45678,-15.89486 -3.24282,-26.0527 -3.58986,-52.53838 2.37757,-78.23976 1.25737,-4.81352 2.34072,-9.67589 3.77212,-14.44055 4.9142,-16.35779 12.15191,-33.46584 21.86488,-47.59787 1.94811,-2.83443 4.19968,-5.44787 6.29952,-8.17181 2.67896,-2.60167 5.22715,-5.34515 8.03689,-7.80501 9.33181,-8.16979 21.31613,-16.21692 33.15927,-20.25767 2.57777,-0.8795 5.2577,-1.42485 7.88655,-2.13727 2.53836,-0.37142 5.05711,-0.91917 7.61507,-1.11427 5.32864,-0.40643 11.3674,0.0228 16.64463,0.60608 5.1711,0.57157 10.47815,1.39913 15.4751,2.91229 2.6452,0.80101 5.19426,1.89062 7.79139,2.83593 3.98689,1.76998 9.56552,4.04638 13.35941,6.43306 9.36599,5.89202 17.00446,14.28851 24.38411,22.3928 11.24806,14.09154 0.26937,0.31386 10.60876,13.35347 1.721,2.17045 3.49596,4.2983 5.18932,6.49038 0.33395,0.43231 0.55791,0.95728 0.95678,1.33052 0.086,0.0805 0.0696,-0.22499 0.10444,-0.33749 15.47273,50.72568 87.20968,28.84392 71.73694,-21.88175 z"/>
<path d="m 508.38885,84.370331 c -2.79543,14.394821 -5.59978,28.784959 -8.14573,43.226429 -5.03528,30.67786 -7.24488,61.71304 -9.34696,92.70014 -1.90201,36.14996 -6.31896,72.07763 -10.63799,107.99628 -5.23295,40.96576 -7.95242,82.17076 -9.88041,123.40401 -1.76224,40.64984 -2.54802,81.33291 -3.0557,122.015 -0.098,30.62722 -0.6427,61.28334 0.33455,91.90371 0.17893,5.60645 0.49205,11.20782 0.73807,16.81173 1.30027,19.76847 3.51379,39.60645 8.90113,58.73167 3.08948,10.96777 4.36282,13.2796 8.577,23.58405 5.5428,11.36293 11.55551,22.93109 20.36845,32.18067 2.4309,2.55135 4.89725,5.1214 7.7489,7.19185 3.87985,2.81697 8.2258,4.92853 12.3387,7.39279 4.72429,1.43086 9.33149,3.32963 14.17287,4.29259 14.90952,2.96554 29.99081,0.0425 43.74499,-5.96884 12.66786,-5.53655 18.11612,-10.36056 29.29909,-18.39243 24.14318,-19.55788 44.12586,-43.42569 64.24449,-66.92017 34.47052,-40.30239 -22.52567,-89.05107 -56.9962,-48.74867 v 0 c -16.43477,19.24011 -32.64766,38.85645 -51.90043,55.40952 -2.29182,1.80674 -4.52186,3.69473 -6.87547,5.42022 -1.66954,1.22397 -3.52611,2.18022 -5.18356,3.42051 -0.45773,0.34253 -1.02383,0.73434 -1.12148,1.29764 -0.0586,0.33809 0.53977,0.42673 0.78008,0.67166 1.90388,1.94046 -2.50538,-1.26114 3.20771,2.35173 1.00737,0.92126 2.0942,1.76253 3.02212,2.76377 0.20286,0.21889 0.6112,0.87956 0.3157,0.83781 -0.70664,-0.0998 -3.00906,-3.55202 -3.11663,-3.71211 -2.34219,-3.48555 -2.83709,-4.66516 -4.89188,-8.51005 -2.36145,-5.3638 -3.21799,-6.8965 -4.96977,-12.73671 -4.27032,-14.23676 -5.64642,-29.14165 -6.74013,-43.89574 -1.57547,-34.79044 -1.30312,-69.62539 -1.00412,-104.44271 0.49555,-39.82833 1.26082,-79.65767 2.98005,-119.45464 1.83391,-39.40934 4.41243,-78.79274 9.42551,-117.9452 4.47416,-37.21042 9.01176,-74.43387 11.00293,-111.8818 1.91573,-28.3317 3.87472,-56.71223 8.38429,-84.7749 2.48421,-14.15711 5.26312,-28.25637 7.98964,-42.368309 9.79449,-52.120705 -63.91532,-65.972206 -73.70981,-13.8515 z"/>
</svg>
