<?xml version="1.0" ?>
<svg xmlns="http://www.w3.org/2000/svg" width="800" height="1000">
<path d="m 570.3767,464.57911 c -0.90675,-2.31475 -1.6998,-4.67733 -2.72026,-6.94425 -2.22483,-4.94243 -5.12991,-9.92508 -7.7882,-14.63969 -3.05621,-5.42033 -6.5554,-11.74379 -10.00473,-16.8214 -2.6616,-3.91802 -5.59064,-7.64754 -8.38596,-11.47131 -15.58725,-19.06915 -32.04687,-37.73622 -51.89252,-52.53324 -4.36244,-3.25266 -8.99809,-6.12185 -13.49713,-9.18277 -5.21808,-2.70689 -10.30717,-5.67844 -15.65423,-8.12068 -20.13289,-9.19558 -42.76459,-14.57877 -64.96915,-14.11232 -6.22505,0.13077 -12.4043,1.0986 -18.60646,1.64791 -6.46189,1.60545 -13.03374,2.81975 -19.38568,4.81635 -19.02442,5.97993 -36.40693,15.7289 -51.67552,28.52459 -12.61353,10.57065 -17.15944,16.74186 -27.93481,29.07738 -18.98693,23.26753 -32.69257,48.93151 -41.68475,77.59349 -6.05411,19.29711 -7.01115,27.62393 -10.73449,47.4459 -4.50464,30.60068 -7.31155,61.64869 -4.63619,92.56798 1.75891,20.32771 3.22224,23.83355 7.6215,43.45789 5.31642,18.59361 11.89385,36.89711 21.74788,53.6269 3.21071,5.45102 6.81569,10.6698 10.54831,15.77761 7.84315,10.73278 12.21233,14.86553 21.13472,24.42835 4.11445,3.66431 8.06943,7.51594 12.34335,10.99293 7.52211,6.11949 16.60051,12.21012 24.8707,17.34663 8.14222,5.05704 15.15975,8.99823 23.90022,13.0411 4.26204,1.97139 8.65769,3.64003 12.98654,5.46005 16.48422,6.48137 33.72022,10.43775 51.44169,11.13166 11.04647,0.43255 14.63367,-0.20927 25.44344,-1.14886 4.20664,-0.77653 8.46638,-1.30638 12.61991,-2.32959 17.43705,-4.29557 35.65232,-12.75396 49.90614,-23.71577 4.0676,-3.12816 7.73233,-6.7479 11.5985,-10.12185 12.46726,-11.97776 20.47563,-27.0933 28.50022,-42.15003 3.02196,-5.67018 5.97233,-11.37823 8.9585,-17.06734 24.64522,-46.95863 -41.76431,-81.81225 -66.40953,-34.85362 v 0 c -2.90309,5.53218 -5.80901,11.06287 -8.70926,16.59653 -1.21241,2.31326 -7.06425,13.83444 -9.45927,17.5306 -1.0292,1.58832 -2.28121,3.02062 -3.42181,4.53094 -1.24157,1.28472 -2.3762,2.6822 -3.72471,3.85418 -5.68713,4.9426 -14.72124,9.62985 -21.95141,11.8536 -1.67875,0.51632 -3.41718,0.81369 -5.12577,1.22053 -6.59213,0.76313 -13.08649,1.30898 -19.7292,0.71011 -7.36229,-0.66375 -14.41356,-2.87346 -21.33213,-5.37172 -2.7158,-1.08655 -5.473,-2.07485 -8.14739,-3.25965 -6.54135,-2.89794 -10.51826,-5.17649 -16.69456,-8.93918 -4.64952,-2.83255 -11.87311,-7.50355 -16.24191,-10.85671 -2.44768,-1.87865 -4.72858,-3.96513 -7.09287,-5.9477 -7.15601,-7.44123 -14.36839,-14.96707 -19.90295,-23.75641 -6.90665,-10.96833 -11.1797,-23.2388 -15.00002,-35.54285 -3.29715,-13.51434 -4.37275,-15.94625 -5.77165,-30.22852 -2.46123,-25.12844 0.0307,-50.38249 3.49396,-75.283 2.68468,-15.03788 3.37766,-21.37851 7.63647,-35.87728 5.85623,-19.93705 14.81922,-37.60469 27.87064,-53.80108 7.50132,-8.91943 14.86244,-18.00433 24.43074,-24.85339 7.85554,-5.62305 16.77687,-9.20513 25.98098,-11.93794 2.49223,-0.4151 4.95628,-1.06921 7.47671,-1.24532 14.64867,-1.02355 28.92841,3.40263 41.94202,9.73128 2.58571,1.65243 5.2717,3.15758 7.75715,4.9573 15.04232,10.89217 27.19623,25.03125 39.06066,39.16206 5.29689,6.84393 4.57123,5.48364 9.08279,13.06187 1.41632,2.37904 2.72899,4.81826 4.09526,7.22638 0.95628,1.68548 1.90681,3.37425 2.87239,5.05442 0.38979,0.67825 0.71184,1.40431 1.1936,2.02064 0.093,0.119 0.0217,-0.30129 0.0326,-0.45194 15.47274,50.72568 87.20968,28.84393 71.73695,-21.88175 z"/>
<path d="m 548.72736,346.62909 c -10.91527,12.48157 -19.10316,26.9576 -24.62738,42.58963 -1.82871,5.17475 -3.18769,10.5037 -4.78154,15.75555 -1.2752,5.5349 -2.66111,11.04545 -3.8256,16.6047 -2.04393,9.75769 -4.80907,25.90685 -6.44111,35.64995 -3.36058,20.06241 -6.31471,40.16721 -9.13406,60.31158 -3.99015,29.60705 -6.73663,59.37222 -8.04808,89.21914 -0.79929,18.19087 -0.7559,24.97742 -1.00157,43.08366 -0.2085,37.19181 1.26765,74.36196 1.71307,111.54558 -0.0405,18.62996 -0.0579,37.36768 -2.96254,55.82191 -1.39038,8.8336 -2.86416,14.46574 -4.88632,23.17625 -3.44501,12.29261 -6.06848,25.19385 -12.36581,36.46007 -2.27844,4.07625 -4.17892,6.0713 -7.11306,9.64485 -1.37759,1.38078 -2.66374,2.85927 -4.13277,4.14232 -2.74263,2.39542 -6.15926,4.41234 -9.30325,6.17851 -4.19628,2.35731 -9.39634,5.02364 -13.79728,6.90898 -2.45068,1.04986 -4.97347,1.92271 -7.46021,2.88407 -11.5692,3.79621 -23.21289,7.48857 -35.21594,9.66056 -7.15998,1.29562 -11.2907,1.68455 -18.52255,2.5565 -8.16963,0.90421 -16.37625,0.46627 -24.50888,-0.5617 -4.94988,-0.62567 -10.38298,-1.4967 -15.17898,-3.01785 -1.95818,-0.62108 -3.81628,-1.52213 -5.72441,-2.2832 -8.87122,-4.23283 -17.15026,-9.75954 -23.01604,-17.78883 -4.06285,-5.56137 -4.67084,-7.74796 -7.65072,-14.15353 -1.30099,-3.68561 -2.60198,-7.37121 -3.90297,-11.05682 -18.72132,-49.61867 -88.89271,-23.14272 -70.17139,26.47594 v 0 c 2.47827,6.3309 4.95655,12.66179 7.43483,18.99269 7.77066,14.37867 9.15076,18.78073 19.70097,31.17139 14.17363,16.64619 32.49858,28.69226 52.55107,37.05063 4.62189,1.55329 9.1716,3.34066 13.86567,4.65986 16.54111,4.64863 36.23813,6.37844 53.36567,5.84494 4.14748,-0.12919 8.27739,-0.59838 12.41608,-0.89756 10.14337,-1.27279 14.82631,-1.70253 25.00756,-3.64685 16.13603,-3.0815 31.86429,-7.94184 47.35366,-13.35017 4.04624,-1.64632 8.14747,-3.16349 12.13873,-4.93896 21.07703,-9.37591 39.57491,-21.44242 54.39325,-39.35763 7.59854,-10.28992 9.66511,-12.24558 15.62168,-23.80553 8.26836,-16.04647 12.83619,-33.65986 17.32269,-51.03114 2.80665,-12.38991 4.33479,-18.09666 6.22734,-30.84012 3.23438,-21.77867 3.55097,-43.8367 3.5084,-65.80932 -0.44864,-36.54929 -1.86505,-73.0853 -1.71414,-109.64218 0.21698,-16.80835 0.17386,-23.15066 0.89748,-40.0042 1.19084,-27.7357 3.73412,-55.39431 7.43621,-82.90666 4.76245,-34.09536 9.72201,-68.23174 17.1006,-101.87411 3.22887,-11.75936 5.75659,-21.04953 14.05407,-30.24058 34.77715,-40.03811 -21.84528,-89.22043 -56.62243,-49.18232 z"/>
</svg>
