<?xml version="1.0" ?>
<svg xmlns="http://www.w3.org/2000/svg" viewBox="0 0 1000 1000">
<path d="m 188.756916,793.1838 c 0.21406,-9.36647 -0.696001,-19.11045 2.160747,-28.1934 0.658738,-2.09444 1.617183,-4.08254 2.425775,-6.12381 4.480131,-10.26624 9.361642,-20.38883 15.354832,-29.87282 6.90606,-10.92859 15.05636,-20.96126 23.20313,-30.96454 10.51768,-11.25673 22.35011,-21.48287 35.22686,-29.98096 7.28743,-4.80938 10.67318,-6.29226 18.37806,-10.25698 11.78339,-5.86269 24.59037,-9.63089 37.85206,-9.27645 2.02377,0.0541 4.03393,0.34883 6.05089,0.52324 16.32258,2.04007 32.13826,6.77603 48.36242,9.37955 4.23858,0.68018 8.50835,1.14929 12.76253,1.72394 17.46898,2.01225 34.52835,1.29999 51.47127,-3.69645 10.45893,-3.08431 13.9306,-5.17328 23.66521,-9.76973 15.13097,-7.88678 27.38125,-18.68614 37.45324,-32.41841 5.03638,-6.86666 6.96387,-10.77939 11.07572,-18.08281 8.68915,-16.64204 13.56478,-34.83434 17.22236,-53.14537 10.1884,-52.04514 -63.41454,-66.45371 -73.60294,-14.40857 v 0 c -2.0257,10.69895 -4.65975,21.40238 -9.27908,31.30743 -2.29129,4.31857 -5.37441,10.51076 -8.78556,14.07861 -2.52191,2.63775 -3.82155,3.18827 -7.03207,5.29399 -4.39258,2.32465 -8.87459,4.69873 -13.72133,5.96812 -6.13188,1.60597 -12.50242,0.92839 -18.73244,0.50759 -2.9428,-0.36743 -5.89803,-0.64622 -8.8284,-1.1023 -19.45078,-3.02731 -38.36982,-9.20788 -58.10606,-10.53283 -12.49266,-0.46951 -15.16702,-1.04343 -27.58296,0.36141 -19.29211,2.18287 -37.83078,8.12377 -55.11938,16.89048 -12.36165,6.58165 -15.71618,7.96432 -27.49362,15.91121 -18.24118,12.30835 -34.883377,27.08865 -49.503482,43.50251 -8.455403,10.47407 -12.309917,14.89934 -20.131934,26.04842 -12.682663,18.07719 -23.282111,37.47554 -31.243272,58.09368 -1.670674,5.32705 -3.662241,10.5639 -5.012022,15.98117 -3.443173,13.81897 -3.54158,28.11686 -3.490554,42.25408 0,53.03301 75,53.03301 75,0 z"/>
<path d="m 464.69938,476.667 c -0.20273,-0.39672 -0.26951,-0.90071 -0.60818,-1.19016 -0.15814,-0.13517 -0.0752,0.41422 -0.0572,0.62147 0.0931,1.0714 0.27286,2.13361 0.38942,3.2027 0.1735,1.59134 0.34514,3.18318 0.48072,4.7782 0.42725,5.02648 0.47088,7.02236 0.72037,12.22157 0.35734,16.99663 0.10114,33.9956 0.35201,50.99391 0.3305,16.0242 0.99134,32.10156 3.75567,47.92108 0.55882,3.19798 1.28461,6.36453 1.92691,9.5468 3.22806,11.77612 6.4318,24.55778 11.89304,35.56026 1.32917,2.6778 2.88006,5.2397 4.32009,7.85954 2.66879,3.35991 5.04645,6.97323 8.00636,10.07972 8.90145,9.34227 22.55486,17.64628 34.60525,22.32199 3.55158,1.37806 7.2283,2.40891 10.84244,3.61337 13.54031,3.5024 27.47724,5.541 41.48455,5.40453 9.08579,-0.0885 13.60366,-0.72889 22.59968,-1.61106 22.03749,-2.73101 43.47636,-8.78639 64.73249,-15.01907 18.72363,-5.50144 37.24045,-11.6591 55.78926,-17.71234 12.47534,-3.81278 25.13413,-7.08073 37.92729,-9.64182 -3.34105,2.27088 2.8299,-1.02712 2.57584,-0.20413 -0.0292,0.0947 -1.2294,0.14965 -0.29343,0.40426 2.03444,0.55342 4.10346,0.97243 6.14342,1.50516 2.90802,0.84317 5.93204,1.69398 8.50001,3.37499 1.46463,0.95875 2.75855,2.44672 3.95576,3.69811 5.50832,6.9298 8.95715,15.12149 11.99447,23.35274 4.01994,12.43516 6.77864,25.26716 8.05772,38.27815 0.27103,2.75692 0.3946,5.52636 0.5919,8.28954 0.78421,18.88958 -1.46404,37.72049 -3.6433,56.44712 -0.97866,8.38094 -2.00473,16.76041 -3.42326,25.08039 -0.5933,3.47988 -1.19003,6.99259 -2.22491,10.37859 -0.54002,1.7669 -1.2196,3.4881 -1.8294,5.23215 -16.4426,50.41964 54.86154,73.673 71.30415,23.25335 v 0 c 1.14755,-3.64469 2.41508,-7.25375 3.44265,-10.93407 4.0354,-14.45302 5.18552,-29.55895 7.23029,-44.36049 2.72423,-23.51236 5.29705,-47.16957 3.92084,-70.87563 -0.32756,-4.02863 -0.55611,-8.06654 -0.98266,-12.08589 -2.00778,-18.91891 -6.2252,-37.57344 -12.41632,-55.55692 -1.32696,-3.38834 -2.5475,-6.82031 -3.98087,-10.16503 -6.68372,-15.59621 -15.79719,-30.20825 -27.93483,-42.14029 -2.30559,-1.99683 -4.52435,-4.09858 -6.91679,-5.99051 -11.09458,-8.77351 -24.06575,-14.60431 -37.71566,-18.10159 -5.78773,-1.38324 -8.91511,-2.27943 -14.78905,-3.10302 -8.82431,-1.23725 -17.71082,-1.06662 -26.45073,0.71478 -15.61844,3.18785 -31.09831,7.10043 -46.31619,11.85234 -17.83965,5.82459 -35.64747,11.75265 -53.65416,17.05044 -16.83616,4.95569 -33.79132,9.88635 -51.2004,12.36535 -4.68604,0.50443 -8.92236,1.05585 -13.60415,1.23728 -6.98632,0.27072 -13.92438,-0.70232 -20.75666,-2.08201 -3.1256,-0.64911 -2.64881,-0.38818 -5.86701,-1.84228 -1.08404,-0.48982 -2.13223,-1.0557 -3.1883,-1.60322 -0.77275,-0.40063 -1.46772,-0.97833 -2.29759,-1.24093 -0.80556,-0.25489 -0.15951,5.68531 0.52615,2.47958 -1.45881,-1.04725 -2.58286,-5.27626 -3.05296,-6.57916 -1.68787,-4.67806 -3.19813,-9.4218 -4.47093,-14.23006 -3.09967,-14.25272 -4.0203,-28.77767 -4.12512,-43.34753 -0.273,-17.86585 0.075,-35.73479 -0.4363,-53.59722 -0.7933,-15.50232 -1.50649,-31.38047 -7.14539,-46.02307 -21.29667,-48.56905 -89.98367,-18.451 -68.68699,30.11804 z"/>
</svg>
