<?xml version="1.0" ?>
<svg xmlns="http://www.w3.org/2000/svg" viewBox="0 0 1000 1000">
<path d="m 270.32126,431.48922 c 4.63397,11.76283 7.75162,24.0315 10.42517,36.36325 5.04902,25.67462 6.1916,51.8897 7.75281,77.94693 1.65815,31.81466 5.03008,63.47907 9.18684,95.05168 2.74134,18.58065 4.52538,37.32455 8.13036,55.77291 2.39205,12.24127 3.31135,14.8518 6.50785,26.73422 3.55193,12.1949 8.36165,23.96925 14.30319,35.19073 2.83356,5.35159 7.10512,12.54292 10.82602,17.37012 2.29735,2.98039 4.91165,5.70245 7.36748,8.55368 3.20102,2.72404 6.19044,5.71835 9.60306,8.1721 10.08357,7.25034 21.92123,12.03717 34.0554,14.4953 11.24103,2.27721 14.32635,1.74261 25.9309,1.86931 4.724,-0.53759 9.49489,-0.75852 14.17201,-1.61276 22.22504,-4.05925 42.73405,-14.6972 60.87135,-27.89006 5.02746,-3.65691 9.72597,-7.74589 14.58896,-11.61883 20.25194,-16.93315 37.73725,-36.70516 52.68676,-58.42479 9.04443,-13.14034 12.46856,-19.5747 20.44318,-33.23336 11.72245,-22.33144 23.67905,-44.78091 32.07175,-68.64197 6.4094,-18.22241 6.91874,-22.87022 11.37914,-42.01982 11.80028,-51.70351 -61.31953,-68.39163 -73.11981,-16.68812 v 0 c -2.99044,13.46773 -3.69657,18.54443 -8.07412,31.30547 -6.9706,20.32007 -17.3023,39.31542 -27.0979,58.35289 -6.54691,11.32278 -9.06463,16.12726 -16.37773,26.97789 -11.04163,16.38276 -23.95095,31.31654 -39.08652,44.06661 -3.10113,2.57089 -6.1012,5.26882 -9.3034,7.71267 -8.04617,6.14066 -18.94664,13.14294 -28.91307,15.76188 -1.66078,0.43641 -3.37456,0.63786 -5.06183,0.95679 -3.53321,0.29311 -4.04428,0.48523 -7.37215,0.25385 -4.03397,-0.28048 -1.20381,-0.25548 -4.62196,-0.70469 -1.02915,-0.13525 -0.81552,-0.16605 -1.38013,0.34764 -2.95859,-2.05732 -4.88902,-6.00693 -6.57142,-9.03464 -3.74252,-6.73515 -6.75787,-13.83139 -8.95397,-21.2227 -2.2998,-8.3099 -3.26102,-11.20374 -4.96334,-19.77132 -3.46995,-17.46387 -5.03027,-35.24288 -7.68334,-52.8329 -3.93447,-29.80706 -7.12511,-59.70015 -8.67799,-89.7383 -1.79884,-29.98418 -3.29761,-60.13021 -9.38182,-89.62647 -3.60835,-16.13079 -7.71474,-32.1883 -13.83926,-47.57807 -19.36261,-49.37194 -89.18509,-21.98907 -69.82247,27.38288 z"/>
<path d="m 565.96501,420.07975 c -0.24262,-0.39752 -0.66035,-1.25612 -0.72876,-1.07974 -0.16667,0.42977 -0.0745,0.91891 -0.11625,1.37797 -0.0823,0.90527 -0.14768,1.81244 -0.25585,2.71498 -0.16882,1.40871 -0.3833,2.81158 -0.57495,4.21737 -3.44052,21.17283 -5.43556,42.52517 -7.14128,63.89485 -1.43115,25.74518 -4.7363,51.30231 -8.29779,76.82052 -3.9566,25.72965 -6.74188,51.60672 -8.72333,77.55689 -1.7495,22.4586 -1.62307,44.99064 -0.62151,67.47642 0.5502,15.27029 3.20711,30.27015 7.55634,44.88629 2.6629,7.61809 5.36459,15.35933 9.58628,22.2905 1.16129,1.9066 2.48232,3.71118 3.72348,5.56677 7.96457,10.58374 18.6559,18.32257 30.93292,23.19931 2.39204,0.95017 4.8712,1.66436 7.3068,2.49654 15.2129,4.27487 30.95983,3.61406 46.22093,-0.0941 3.57356,-0.86832 7.07299,-2.01741 10.60949,-3.02611 4.02895,-1.58948 8.17189,-2.91588 12.08685,-4.76844 20.69121,-9.79113 38.58226,-24.75838 54.68303,-40.82315 4.9318,-4.92078 9.57546,-10.12212 14.3632,-15.18318 21.63032,-25.42033 10.73402,-12.35451 32.65799,-39.22322 33.51761,-41.0983 -24.60416,-88.49935 -58.12177,-47.40106 v 0 c -20.20558,24.78893 -10.4572,13.05066 -29.18861,35.26168 -3.7203,3.99192 -7.33083,8.08902 -11.1609,11.97575 -5.49173,5.57297 -12.7785,12.25361 -19.00871,17.23406 -3.22507,2.57813 -8.88929,6.68572 -12.78594,8.81051 -1.57449,0.85856 -3.26509,1.4845 -4.89764,2.22674 -3.47841,1.12829 -6.9565,2.255 -10.55119,2.96573 -0.48822,0.0965 -0.99646,0.0776 -1.4804,0.1937 -0.035,0.008 -0.4789,0.3888 -0.52954,0.43168 -3.02762,-0.54126 -0.42424,0.63771 0.008,2.2913 0.10486,0.2559 0.23573,0.50262 0.31457,0.76769 0.0163,0.0547 -0.005,0.21481 -0.0365,0.16733 -1.43722,-2.15309 -1.88903,-4.91136 -2.98964,-7.22317 -2.74924,-8.55449 -3.99019,-17.44184 -4.37561,-26.41303 -0.89663,-19.46204 -1.02317,-38.96625 0.48279,-58.40683 1.84101,-24.38622 4.49685,-48.69725 8.21928,-72.87336 3.76322,-26.98348 7.22922,-54.01287 8.78068,-81.23204 1.62115,-20.42318 3.57722,-40.81597 6.86024,-61.05064 0.32811,-2.99552 0.75537,-5.98184 0.98435,-8.98657 0.89961,-11.805 0.11542,-23.81935 -4.17707,-34.94878 -19.73455,-49.22446 -89.34845,-21.31559 -69.6139,27.90887 z"/>
</svg>
