<?xml version="1.0" ?>
<svg xmlns="http://www.w3.org/2000/svg" width="800" height="1000">
<path d="m 93.457185,847.94938 c 9.132715,-9.41882 17.125675,-19.85937 25.681665,-29.78897 3.05029,-3.53999 6.16572,-7.02332 9.24857,-10.53498 14.97473,-16.17949 30.24158,-32.22715 47.23317,-46.32863 11.6755,-9.68959 16.48645,-12.81855 28.87835,-21.73107 19.85178,-13.67295 40.80476,-25.81754 63.43279,-34.28916 14.33695,-5.36755 19.87324,-6.49037 34.65207,-10.48781 29.17741,-7.21496 59.27972,-9.06861 89.23938,-8.12513 6.57053,0.20691 13.12899,0.69883 19.69348,1.04825 25.22402,1.8561 50.26795,5.98459 74.46983,13.41839 14.86757,4.56669 19.09102,6.60093 33.55659,12.38119 20.69934,9.37376 40.40278,20.85675 59.22568,33.55928 11.2587,7.59788 16.71123,11.76569 27.65184,19.79551 15.48289,11.20099 28.71216,24.99918 42.01846,38.60484 12.34596,12.62372 7.07733,7.14253 18.43012,19.18043 9.79708,10.49455 17.38131,22.70199 24.01264,35.36488 24.78521,46.8849 91.09047,11.83332 66.30526,-35.05157 v 0 c -9.88839,-18.58892 -21.29531,-36.39488 -35.77759,-51.7949 -11.85838,-12.55291 -7.06686,-7.59141 -19.41105,-20.2002 -16.16268,-16.50913 -32.45261,-33.00588 -51.24052,-46.59482 -12.31638,-9.01629 -18.4065,-13.66576 -31.16627,-22.22071 -22.98109,-15.40797 -47.07367,-29.25012 -72.43161,-40.37296 -17.88435,-7.03172 -23.05779,-9.49553 -41.49601,-15.02358 -29.37854,-8.80812 -59.73158,-13.78332 -90.2991,-15.94699 -7.66545,-0.38168 -15.32445,-0.92865 -22.99634,-1.14506 -36.85018,-1.03949 -73.82491,1.74919 -109.6451,10.80048 -18.84873,5.23821 -25.5779,6.62103 -43.95652,13.71333 -27.81544,10.73397 -53.7333,25.62271 -78.18373,42.58819 -14.9836,10.86233 -20.35371,14.35023 -34.53518,26.24809 -19.38094,16.26006 -36.960703,34.54675 -54.047557,53.15759 -12.763828,14.56693 -25.012249,29.56422 -37.940484,43.98333 -32.3803694,42.00014 27.016796,87.7929 59.397166,45.79276 z"/>
<path d="m 105.77028,669.73325 c -0.16243,0.8997 -0.55298,1.78722 -0.48727,2.69909 0.0164,0.22788 0.51965,0.0356 0.67207,-0.13463 1.27951,-1.42877 2.36385,-3.02117 3.52268,-4.54945 0.95951,-1.26542 11.38288,-15.2315 12.01321,-16.01901 1.95686,-2.44483 4.08041,-4.75146 6.12061,-7.12719 10.12979,-10.00529 20.12534,-20.20447 30.99522,-29.42145 5.86761,-4.97537 11.94833,-9.58938 18.02266,-14.30492 2.88251,-2.11555 5.70425,-4.31652 8.64754,-6.34667 6.37284,-4.39569 10.91199,-6.91412 17.68544,-10.76848 10.25008,-5.8327 20.60175,-11.41613 31.07491,-16.83558 3.48071,-1.69834 6.94734,-3.42585 10.44213,-5.09502 7.85296,-3.75068 12.16987,-5.83416 20.24362,-8.83656 9.79087,-3.64095 19.77254,-6.35579 29.91027,-8.80587 20.98677,-4.63181 42.41744,-6.18439 63.83076,-7.14518 25.47637,-0.73242 50.95531,-0.22327 76.4041,1.03052 21.37001,1.48844 42.52938,5.23353 63.18837,10.87096 4.08699,1.11525 8.12657,2.39745 12.18986,3.59617 15.67735,5.09347 31.3115,10.47372 46.37048,17.21666 8.77701,3.93007 12.10178,5.80552 20.70406,10.25339 19.35254,10.31961 37.64014,22.52515 55.33174,35.45271 9.40161,7.06845 17.5669,15.56577 26.01651,23.70048 10.03047,9.59635 5.08932,4.84909 14.82496,14.2402 8.38777,8.05813 16.1896,16.67791 22.90567,26.17684 1.45051,1.9717 2.787,4.01844 4.01113,6.13605 27.33322,45.44661 91.60444,6.7916 64.27122,-38.65502 v 0 c -2.314,-3.79587 -4.67148,-7.56482 -7.30692,-11.15021 -9.46776,-13.1218 -20.08921,-25.31838 -31.81354,-36.48885 -2.47678,-2.38883 -4.95356,-4.77766 -7.43034,-7.16649 -2.42198,-2.31643 -4.85161,-4.62487 -7.26593,-6.94929 -10.97853,-10.56974 -21.73371,-21.44532 -34.06919,-30.47659 -20.85206,-15.13595 -42.34137,-29.49197 -65.16621,-41.5123 -11.11761,-5.69567 -14.49484,-7.62367 -25.90233,-12.68081 -17.68979,-7.84221 -36.00976,-14.19034 -54.42521,-20.08038 -5.01655,-1.45724 -10.00519,-3.01423 -15.04965,-4.37172 -25.41654,-6.83969 -51.45444,-11.28722 -77.72395,-13.02241 -27.8116,-1.34896 -55.65807,-1.90927 -83.49764,-1.04131 -26.31046,1.22707 -52.63143,3.33354 -78.37008,9.25173 -4.40903,1.10464 -8.84666,2.10079 -13.22708,3.31392 -22.2116,6.15137 -43.47877,15.05214 -63.91703,25.65494 -23.77036,12.34439 -47.64527,24.94857 -68.93301,41.3326 -8.25728,6.43278 -13.8057,10.61199 -21.84206,17.4841 -13.499364,11.54367 -26.050542,24.19007 -38.361551,36.97112 -2.952606,3.51921 -5.988759,6.96999 -8.857818,10.55764 -0.402151,0.50287 -10.993985,14.65536 -11.889763,15.85513 -4.824125,6.46122 -9.005722,11.57537 -12.66684,18.94191 -1.702052,3.4247 -2.743984,7.13952 -4.115976,10.70929 -12.402617,51.56234 60.517547,69.10229 72.920168,17.53994 z"/>
</svg>
