<?xml version="1.0" ?>
<svg xmlns="http://www.w3.org/2000/svg" width="800" height="1000">
<path d="m 555.36093,465.75912 c -2.01678,-1.74776 -3.8447,-3.29043 -5.77545,-5.20356 -1.75899,-1.74294 -7.65697,-8.2461 -8.74785,-9.40055 -7.72014,-8.16996 -8.36019,-8.65556 -16.70734,-16.91369 -18.36678,-18.13367 -37.9226,-35.59448 -61.13495,-47.32637 -5.53597,-2.79797 -11.35757,-4.99081 -17.03635,-7.48621 -5.53411,-1.86674 -10.96865,-4.0598 -16.60231,-5.60022 -19.0881,-5.21927 -39.1795,-7.47713 -58.88107,-4.6899 -18.72088,2.64848 -23.67154,5.72942 -41.12293,12.51536 -6.37659,3.65173 -13.02251,6.86896 -19.12979,10.95519 -24.63961,16.48576 -44.98264,40.44541 -60.37556,65.5753 -4.09861,6.69123 -7.57226,13.74576 -11.35838,20.61864 -3.14896,7.22981 -6.63316,14.32268 -9.44688,21.68943 -5.67892,14.86832 -9.75159,29.7682 -13.02743,45.32368 -2.97844,14.14324 -5.37046,30.33423 -6.33419,44.76466 -0.50401,7.54676 -0.4055,15.12169 -0.60825,22.68254 0.43392,7.38438 0.53931,14.79542 1.30174,22.15313 2.67364,25.80151 9.88699,52.94824 20.66476,76.58867 2.51156,5.50896 5.51119,10.78207 8.26678,16.17311 11.21144,19.19561 25.13121,36.66396 42.59534,50.5348 9.67888,7.68744 14.53591,10.17473 24.92522,16.42816 20.67349,11.13439 43.47028,18.73567 67.06777,19.85081 4.85789,0.22956 9.72649,-0.0513 14.58973,-0.0769 19.73908,-1.2487 38.99088,-6.05649 56.87549,-14.53938 12.19478,-5.78414 15.81814,-8.64032 27.12425,-15.93131 20.30341,-14.45965 37.69099,-32.69438 52.90767,-52.36875 3.2006,-4.13821 6.17934,-8.44336 9.26902,-12.66504 7.71288,-12.55134 11.03536,-16.88634 16.78463,-30.71482 2.50232,-6.01871 4.35469,-12.2875 6.53203,-18.43125 17.10454,-50.19895 -53.88749,-74.38842 -70.99204,-24.18947 v 0 c -1.11916,3.53093 -2.04309,7.1298 -3.35748,10.5928 -3.19581,8.41993 -5.10161,10.90981 -9.66384,18.68696 -2.21403,3.08536 -4.33476,6.23986 -6.64209,9.25608 -4.30167,5.62327 -9.95933,12.15235 -14.71556,17.41967 -6.49596,7.19399 -13.32782,14.0758 -21.26518,19.70603 -2.66252,1.7964 -5.26036,3.6926 -7.98756,5.3892 -11.13334,6.92609 -23.28674,11.61916 -36.41257,12.80516 -2.13663,0.11842 -4.26998,0.35838 -6.40988,0.35525 -12.4334,-0.0181 -24.52627,-4.13788 -35.49943,-9.68476 -7.21023,-4.15151 -14.51434,-8.27247 -20.69153,-13.93765 -7.33967,-6.73131 -13.23773,-14.85312 -18.55885,-23.21386 -1.77719,-3.2854 -3.72858,-6.48238 -5.33159,-9.8562 -7.60274,-16.00129 -13.13653,-35.48703 -15.23337,-53.04739 -0.6216,-5.20568 -0.77365,-10.45675 -1.16048,-15.68512 0.0761,-5.52479 -0.0865,-11.05804 0.22833,-16.57438 0.65624,-11.49881 2.41507,-23.72815 4.6699,-35.0083 2.22932,-11.15253 5.15955,-22.59777 9.0506,-33.30304 1.90567,-5.24296 4.28762,-10.30034 6.43143,-15.45051 2.5667,-4.85509 4.90553,-9.83766 7.70009,-14.56527 9.30459,-15.74079 21.86322,-31.93446 36.59512,-42.9911 2.8905,-2.16938 6.05381,-3.9492 9.08071,-5.92379 7.07583,-3.21262 11.028,-5.50077 18.53755,-7.13664 13.55547,-2.95289 27.43066,0.0131 40.25008,4.53487 7.74747,3.10631 11.54424,4.22716 18.62298,8.61832 13.46841,8.35485 24.88905,19.59549 36.2091,30.54456 6.84724,6.74738 7.95558,7.71204 14.31072,14.4356 7.0724,7.48239 13.91468,15.23214 22.00493,21.66475 40.97492,33.66834 88.58913,-24.27894 47.61421,-57.94727 z"/>
<path d="m 509.18461,404.99939 c 0.46006,11.38629 -0.2548,22.78589 -0.90749,34.15095 -1.62297,23.5229 -3.98629,46.98593 -6.11084,70.46662 -2.96873,31.59921 -4.18424,63.31609 -5.12254,95.02829 -0.85324,33.36846 -0.94515,66.74963 -1.02111,100.12693 -0.19034,31.51267 0.0158,63.02221 1.04028,94.5193 0.72493,27.15572 3.86778,54.12816 7.62459,81.00282 2.66237,18.30488 5.96364,36.50979 10.07482,54.54393 2.1143,8.87671 4.5429,17.67103 7.03348,26.44746 0.15137,0.56477 0.30274,1.12954 0.45412,1.69431 13.82218,51.2001 86.23001,31.65256 72.40783,-19.54752 v 0 c -0.23809,-0.87788 -0.47618,-1.75577 -0.71427,-2.63365 -2.14031,-7.5333 -4.23423,-15.07958 -6.07175,-22.69421 -3.66463,-15.93184 -6.52144,-32.03396 -8.90811,-48.20543 -3.39674,-24.24068 -6.30271,-48.56252 -6.94084,-73.06092 -1.00879,-30.6225 -1.17599,-61.25795 -1.00034,-91.89568 0.0742,-32.69658 0.16022,-65.39695 0.98866,-98.08503 0.88863,-30.19525 2.02257,-60.39619 4.85021,-90.48395 2.19862,-24.31253 4.65081,-48.60662 6.29486,-72.96556 0.79095,-14.03313 1.59202,-28.10611 0.93445,-42.16233 -2.65425,-52.96655 -77.56025,-49.21288 -74.90601,3.75367 z"/>
</svg>
