<?xml version="1.0" ?>
<svg xmlns="http://www.w3.org/2000/svg" viewBox="0 0 1000 1000">
<path d="m 471.59685,76.321581 c 0,12.151156 0,24.302309 0,36.453469 0,22.46259 0,44.92519 0,67.38778 0,28.47882 0,56.95763 0,85.43645 -0.099,32.02141 -0.11396,64.04272 -0.0797,96.06438 -0.22975,33.43376 -0.27492,66.86653 -0.16599,100.30077 0.0566,30.51962 -0.45111,61.03608 -1.3264,91.54209 -0.82127,26.06828 -1.53715,52.13918 -2.19331,78.21212 -0.28892,20.15316 -0.88297,40.29773 -1.44217,60.44444 -0.39034,14.5206 -1.04676,29.03165 -1.54057,43.54865 -0.24146,7.33117 -0.36876,14.66542 -0.42026,22.0002 -0.32851,5.35348 1.05364,10.07918 2.12626,15.39549 16.55057,50.38431 87.80474,26.97827 71.25417,-23.40603 v 0 c 0.53528,2.88987 1.1449,5.76696 1.60583,8.66962 0.0772,0.48622 -0.0367,1.96743 0.005,1.47692 0.0461,-0.53664 0.004,-1.07723 0.007,-1.61584 0.0455,-6.65934 0.16081,-13.31818 0.37884,-19.97427 0.49763,-14.67239 1.16377,-29.33868 1.55495,-44.01479 0.56046,-20.21116 1.15742,-40.42024 1.44729,-60.63784 0.65374,-25.98597 1.36761,-51.96989 2.18629,-77.95121 0.89521,-31.30316 1.41777,-62.61693 1.35675,-93.934 -0.10885,-33.37954 -0.0608,-66.75757 0.16635,-100.13664 -0.0343,-31.99488 -0.0194,-63.98942 0.0797,-95.98406 0,-28.47882 0,-56.95763 0,-85.43645 0,-22.46259 0,-44.92519 0,-67.38778 0,-12.15116 0,-24.302313 0,-36.453469 0,-53.033008 -75,-53.033008 -75,0 z"/>
</svg>
