<?xml version="1.0" ?>
<svg xmlns="http://www.w3.org/2000/svg" width="500" height="1000">
<path d="m 183.4929,355.77619 c -0.285,-0.38611 -0.83204,-1.63767 -0.855,-1.15832 -0.0503,1.0506 0.53002,2.03608 0.76382,3.06157 0.38121,1.67203 0.76736,3.34395 1.08097,5.02997 1.51925,8.16764 2.26964,16.41825 3.05399,24.67973 2.12707,24.73101 2.41668,49.56277 2.50454,74.36849 -0.009,28.44782 -0.15242,56.89501 -0.44067,85.34129 -0.34525,26.24908 -1.60338,52.47093 -3.29214,78.66404 -1.55354,21.452 -3.51188,42.87156 -5.59556,64.27768 -1.41188,13.51527 -2.2081,27.07928 -2.60376,40.65893 -0.16419,6.5168 -0.18152,13.03592 -0.16493,19.55437 0.008,2.12053 0.004,1.11379 0.0131,3.02019 0.25574,53.0324 75.25487,52.67073 74.99913,-0.36166 v 0 c -0.009,-1.80914 -0.004,-0.85835 -0.0125,-2.85239 -0.0151,-5.73623 -0.005,-11.47307 0.13429,-17.20798 0.33494,-11.87328 1.03942,-23.7316 2.28205,-35.54749 2.16175,-22.22164 4.19309,-44.45735 5.79348,-66.72742 1.76773,-27.5434 3.09007,-55.11662 3.44297,-82.71859 0.29154,-28.7906 0.43689,-57.58214 0.44402,-86.37431 -0.10153,-27.1303 -0.46925,-54.28831 -2.85401,-81.33206 -2.02808,-20.57912 -4.15249,-41.61812 -13.0119,-60.58221 -25.60163,-46.44412 -91.28354,-10.23796 -65.68191,36.20617 z"/>
<path d="m 52.104039,798.73543 c 12.839917,-0.0745 25.67802,0.13461 38.516525,0.29156 18.841716,0.25447 37.678776,0.63719 56.522926,0.62294 13.50822,-0.0814 27.00143,0.61496 40.49451,1.14642 5.07614,0.213 10.15048,0.39413 15.23094,0.39103 53.03132,-0.42371 52.43209,-75.42132 -0.59922,-74.9976 v 0 c -3.88934,0.15789 -7.7917,-0.34691 -11.68057,-0.33534 -14.4973,-0.57077 -28.99511,-1.29662 -43.50862,-1.20448 -18.51753,0.0172 -37.02792,-0.3748 -55.543168,-0.61737 -13.144064,-0.16068 -26.287825,-0.37095 -39.433323,-0.29716 -53.03300843,0 -53.03300843,75 0,75 z"/>
</svg>
