<?xml version="1.0" ?>
<svg xmlns="http://www.w3.org/2000/svg" width="500" height="1000">
<path d="m 253.58066,387.65347 c -5.95412,-0.29794 -11.99282,0.45452 -17.93078,-0.10662 9.32324,0.13588 17.41083,5.68202 22.00586,13.60698 2.07349,3.5361 0.0943,7.50022 -1.35768,10.87689 -3.90119,5.56013 -2.80869,4.79215 -8.02141,9.11682 -0.65009,0.53934 -1.42394,0.9105 -2.11077,1.40219 -0.0931,0.0667 -0.33034,0.241 -0.21841,0.26522 0.59045,0.12778 1.19561,-0.17467 1.79477,-0.25194 -2.02559,0.63522 -4.77934,0.43949 -6.79079,0.0971 -4.09518,-0.69713 -7.56153,-2.00876 -11.00484,-4.36098 -1.58234,-1.08093 -2.8938,-2.51291 -4.3407,-3.76937 -1.28166,0.41951 -3.04983,-5.04171 -3.97056,-5.84062 -0.0877,-0.0761 -0.0309,0.23129 -0.0278,0.34743 0.0134,0.50284 0.0716,1.00351 0.10106,1.50566 0.0286,0.89122 0.0555,3.1147 -0.0135,-1.08949 -2.76563,52.96084 72.13232,56.87203 74.89795,3.91119 v 0 c 0.0649,-3.28711 0.15565,-6.558 -0.21291,-9.83342 -1.32125,-13.03956 -4.49901,-25.63773 -12.57535,-36.30713 -2.66644,-2.75681 -5.03162,-5.84088 -7.99933,-8.27042 -12.1415,-9.93974 -26.99702,-12.58183 -42.1021,-10.06427 -12.78536,2.58571 -25.07943,6.61622 -34.74235,15.93265 -2.63303,2.53862 -4.60914,5.68029 -6.91371,8.52044 -3.49691,6.70503 -4.69309,8.03756 -6.5783,15.22824 -2.85073,10.8734 -2.51554,22.10997 0.0189,32.99965 2.50257,7.53106 3.40755,11.9854 8.11293,18.69433 7.5034,10.69836 16.7709,17.40907 29.38317,20.77133 2.88259,0.76846 5.89161,0.94251 8.83742,1.41376 7.25039,0.29898 14.50331,0.19906 21.75922,0.2044 53.03301,0 53.03301,-75 0,-75 z"/>
</svg>
