<?xml version="1.0" ?>
<svg xmlns="http://www.w3.org/2000/svg" width="500" height="1000">
<path d="m 111.66069,591.72673 c 24.2999,-4.90878 48.50706,-10.25088 72.83755,-15.02675 35.8519,-6.83255 71.79304,-13.46408 108.08772,-17.50442 5.91629,-0.6586 11.85193,-1.12992 17.7779,-1.69488 18.31554,-1.02765 36.94441,-2.41236 55.20026,0.22508 52.58216,6.90043 62.34084,-67.46198 9.75867,-74.36241 v 0 c -23.93378,-2.98869 -48.13538,-2.40756 -72.14336,-0.51777 -6.64966,0.64526 -13.30976,1.19066 -19.94897,1.93577 -38.00192,4.26492 -75.64582,11.15495 -113.18656,18.32466 -23.17199,4.55369 -46.26759,9.44473 -69.35024,14.42689 -52.462956,7.75486 -41.495929,81.94869 10.96703,74.19383 z"/>
<path d="m 231.39829,456.93612 c 0,18.68801 0,37.37602 0,56.06403 0,29.10821 0,58.21641 0,87.32462 0,26.37576 0,52.75151 0,79.12727 0,18.27529 0,36.55058 0,54.82587 0,10.14429 0,20.28858 0,30.43286 0,3.72479 0,7.44959 0,11.17438 0,53.03301 75,53.03301 75,0 v 0 c 0,-3.72479 0,-7.44959 0,-11.17438 0,-10.14428 0,-20.28857 0,-30.43286 0,-18.27529 0,-36.55058 0,-54.82587 0,-26.37576 0,-52.75151 0,-79.12727 0,-29.10821 0,-58.21641 0,-87.32462 0,-18.68801 0,-37.37602 0,-56.06403 0,-53.03301 -75,-53.03301 -75,0 z"/>
<path d="m 258.95047,531.56385 c -8.69363,2.49194 -10.80799,2.58825 -19.51628,7.91651 -6.02842,3.68856 -12.7752,9.76277 -18.10757,14.54822 -10.69005,9.5936 -8.23426,7.4739 -19.38154,18.74872 -23.61433,25.55254 -46.53928,51.72351 -69.96474,77.44743 -17.29622,18.86548 -8.00765,8.74441 -27.87056,30.35873 -35.884511,39.04872 19.33871,89.79708 55.22322,50.74836 v 0 c 19.97981,-21.74162 10.61433,-11.53652 28.10122,-30.61088 22.79372,-25.03295 45.14213,-50.46204 68.03443,-75.40577 9.39718,-9.6682 5.76816,-6.24415 15.5603,-15.12007 1.76013,-1.59544 3.65167,-3.05177 5.31482,-4.74808 0.15946,-0.16265 0.23709,-0.66178 0.0103,-0.68327 -1.09579,-0.10383 -2.14966,0.70333 -3.2704,0.45641 52.08287,-9.9937 37.94965,-83.65001 -14.13322,-73.65631 z"/>
</svg>
