<?xml version="1.0" ?>
<svg xmlns="http://www.w3.org/2000/svg" viewBox="0 0 500 1000">
<path d="m 96.919457,670.53318 c 1.89832,2.78602 3.680603,5.65476 5.694973,8.35806 3.64213,4.88775 7.7271,9.43027 11.50224,14.21603 7.82905,9.92494 15.75943,19.7021 23.90736,29.37053 14.38383,16.58243 27.77219,33.98451 41.72684,50.92179 5.96728,7.08186 3.09426,3.71494 8.60842,10.10982 34.64856,40.14944 91.42844,-8.85103 56.77988,-49.00047 v 0 c -4.77477,-5.52747 -2.26661,-2.59339 -7.51349,-8.81162 -14.14244,-17.1508 -27.68928,-34.79107 -42.2732,-51.57704 -6.86076,-8.12517 -9.20704,-10.78021 -15.68929,-18.91628 -9.14468,-11.47778 -4.56043,-6.13914 -13.23549,-16.74639 -1.10368,-1.3495 -2.1576,-2.74866 -3.38376,-3.98793 -0.10803,-0.10919 -0.0816,0.29615 -0.12246,0.44423 -25.18662,-46.67048 -91.188653,-11.05121 -66.002023,35.61927 z"/>
</svg>
