<?xml version="1.0" ?>
<svg xmlns="http://www.w3.org/2000/svg" width="500" height="1000">
<path d="m 116.66218,497.98341 c 10.87674,-2.3488 22.02173,-3.42351 33.06344,-4.72918 28.69826,-3.30845 57.43962,-6.22628 86.21795,-8.74023 28.77318,-2.33753 57.59503,-3.92487 86.46511,-3.93409 15.85271,0.10667 31.72585,0.70144 47.39838,3.19144 3.29473,0.59159 6.57463,1.26079 9.85528,1.92475 51.98093,10.51106 66.84581,-63.00109 14.86488,-73.51214 v 0 c -4.40518,-0.89008 -8.81012,-1.78472 -13.24302,-2.52924 -19.51399,-2.96987 -39.22403,-4.06454 -58.95955,-4.07477 -31.02238,0.0566 -61.9971,1.66185 -92.91421,4.21914 -29.54324,2.58571 -59.04967,5.57404 -88.51056,8.97624 -14.18041,1.68365 -28.47274,3.14531 -42.389826,6.43789 -51.456293,12.83549 -33.304167,85.60568 18.152126,72.77019 z"/>
</svg>
