<?xml version="1.0" ?>
<svg xmlns="http://www.w3.org/2000/svg" width="500" height="1000">
<path d="m 83.930777,579.48376 c 11.098677,-6.20581 21.329283,-13.81613 31.658273,-21.19199 32.84952,-23.45763 -8.27101,5.91963 29.05115,-20.74757 42.32825,-31.66573 86.89831,-60.18924 131.92809,-87.82121 33.66222,-20.55749 68.78039,-38.57497 104.35295,-55.55885 4.76138,-1.57298 9.11018,-4.86602 14.08432,-5.95603 0.27421,-0.0601 -0.48146,0.31273 -0.75608,0.37088 -1.87255,0.39651 -3.74289,1.0162 -5.65674,0.98702 -3.75611,-0.0573 -7.46718,-0.82936 -11.20077,-1.24405 -20.41125,-11.64384 -9.86719,-2.76707 -23.33984,-22.00023 -0.10889,-0.15545 -0.27421,0.3098 -0.27316,0.4996 0.0115,2.06513 0.28556,4.1227 0.31037,6.18771 0.14163,11.78847 -0.0733,9.96569 -1.51035,22.4501 -3.56645,18.60655 -8.99279,36.75035 -16.71621,54.07132 -3.23811,7.26195 -7.05058,14.25393 -10.57587,21.38089 -23.2387,47.67036 44.17736,80.53484 67.41606,32.86449 v 0 c 4.3801,-9.08963 9.14546,-18.00348 13.1403,-27.26889 10.16212,-23.56953 17.25286,-48.23962 21.36121,-73.56211 1.61573,-17.74089 2.28915,-18.37219 1.71861,-34.92675 -0.52027,-15.09571 -2.40893,-29.46699 -13.3411,-41.44713 -4.24299,-4.64973 -10.71503,-6.60907 -16.07254,-9.91361 -4.59006,-0.67901 -9.13372,-1.85552 -13.77017,-2.03703 -3.15503,-0.12352 -6.29847,0.56348 -9.40473,1.12972 -9.62943,1.75536 -18.83279,6.99252 -27.73934,10.7382 -37.93496,18.12766 -75.3707,37.38126 -111.26687,59.31898 -46.50472,28.56382 -92.54892,58.02291 -136.29024,90.71357 -9.690834,6.92424 -19.387192,13.84076 -29.077186,20.76618 -6.501017,4.64626 -10.779782,7.80542 -17.143178,12.1033 -3.492272,2.3587 -3.771197,2.46674 -6.968823,4.34321 -46.4924678,25.51373 -10.410604,91.26401 36.081864,65.75028 z"/>
<path d="m 110.79636,298.26392 c 0.34745,0.96534 0.74399,1.9144 1.04234,2.89602 1.18852,3.91029 2.73891,10.62613 3.46654,14.06893 3.03487,14.35971 5.11043,28.85637 7.21542,43.37361 5.38489,41.52523 8.09119,83.33558 11.53377,125.05137 3.5318,39.44573 7.88344,78.80609 11.03002,118.28629 1.771,21.03903 2.59322,42.28614 6.57858,63.07342 0.64306,3.35411 1.4847,6.66708 2.22704,10.00061 3.8061,14.65767 10.68423,28.37411 21.57619,39.09217 8.27734,8.14517 11.94916,9.77175 21.67106,15.97867 4.02994,2.09413 7.99579,4.31653 12.08983,6.2824 14.08508,6.76338 28.80582,12.10793 43.47303,17.43687 10.19531,3.70421 20.42147,7.32299 30.62895,10.99353 24.81017,9.26736 49.91714,17.71132 74.7521,26.90796 2.14239,0.82895 4.28478,1.6579 6.42717,2.48685 49.47022,19.11014 76.49604,-50.85131 27.02582,-69.96145 v 0 c -2.47471,-0.95462 -4.94943,-1.90924 -7.42414,-2.86386 -25.05554,-9.26587 -50.37046,-17.81238 -75.4025,-27.14523 -24.36842,-8.76264 -49.18476,-16.71918 -72.47369,-28.14065 -1.34491,-0.71667 -2.67134,-1.46913 -4.03472,-2.15 -0.79628,-0.39766 -1.61627,-0.76724 -2.47433,-1.0037 -0.1887,-0.052 -0.43295,0.0649 -0.58418,-0.0593 -1.27622,-1.04853 -1.74442,-3.51835 -2.1672,-4.70112 -4.98441,-20.32283 -5.24355,-41.44795 -7.12656,-62.19168 -3.15818,-39.54796 -7.47858,-78.97971 -11.04662,-118.49079 -3.57111,-43.26377 -6.38275,-86.62634 -12.06125,-129.68203 -3.8614,-26.4514 -7.36947,-53.69143 -16.89366,-78.81742 -20.70307,-48.82502 -89.752078,-19.54646 -69.04901,29.27857 z"/>
</svg>
