<?xml version="1.0" ?>
<svg xmlns="http://www.w3.org/2000/svg" viewBox="0 0 500 1000">
<path d="m 84.550413,370.13171 c 1.71548,-0.0644 3.43481,-0.0616 5.14644,-0.19322 8.11562,-0.6243 12.954397,-1.40428 21.407247,-2.96572 18.92344,-3.49561 37.49993,-8.39228 56.13597,-13.14073 49.96321,-11.94123 100.75938,-19.98472 151.5971,-27.1324 16.11174,-2.09829 32.2469,-4.11878 48.45359,-5.34152 5.68108,-0.42863 11.34466,-0.75504 17.03475,-0.46832 53.00749,1.64476 55.33354,-73.31916 2.32605,-74.96393 v 0 c -26.23004,-0.60536 -52.29679,3.35553 -78.26714,6.50574 -53.5543,7.54491 -107.05959,16.05939 -159.67528,28.72578 -21.16459,5.40077 -42.40584,11.47894 -64.158727,13.97432 -53.033005,0 -53.033005,75 0,75 z"/>
<path d="m 248.94764,184.18329 c 3.29927,13.32968 4.05301,27.11544 5.10779,40.7552 2.2191,39.49367 2.2227,79.07219 2.94973,118.61217 1.01033,48.56655 1.97845,97.13378 3.09377,145.69809 1.2628,48.31597 2.91313,96.62023 4.03022,144.93996 0.72602,34.4294 0.88646,68.87179 0.5938,103.30726 -0.0838,11.81448 -0.71961,23.61467 -0.98646,35.42388 -1.13148,53.02094 73.85145,54.62109 74.98293,1.60015 v 0 c 0.23738,-12.13221 0.96997,-24.25436 1.00087,-36.39261 0.29388,-35.22421 0.13694,-70.45527 -0.6112,-105.67321 -1.1184,-48.31555 -2.76228,-96.61581 -4.02993,-144.92749 -1.1128,-48.45026 -2.07842,-96.90343 -3.0867,-145.35592 -0.75572,-41.03573 -0.7436,-82.11379 -3.16664,-123.09646 -1.74871,-22.02968 -3.08915,-44.65856 -11.36775,-65.40856 -21.57916,-48.44418 -90.08959,-17.92665 -68.51043,30.51754 z"/>
<path d="m 241.46638,297.06815 c -2.16635,8.89252 -2.86546,18.06588 -4.85661,26.99013 -0.52254,2.34199 -1.21019,4.64406 -1.81528,6.96609 -0.90564,2.51565 -1.72502,5.06405 -2.71694,7.54694 -2.11895,5.30398 -7.02416,15.95532 -9.23607,20.70724 -4.68295,10.06055 -7.62589,16.36593 -12.93383,26.17961 -2.53987,4.69589 -5.25488,9.29491 -7.88233,13.94236 -2.94028,5.05572 -5.8894,10.10632 -8.82086,15.16717 -6.05516,10.45357 -12.61941,21.99857 -18.82918,32.35854 -10.11444,16.87428 -20.53017,33.56558 -30.63423,50.44774 -10.41787,17.51999 -21.2978,34.75518 -31.84155,52.19895 -3.49174,5.77679 -6.87736,11.61798 -10.42456,17.36088 -7.213427,11.67852 -14.870797,23.22837 -22.377767,34.7149 -4.018375,6.50479 -8.036764,13.00957 -12.055148,19.51436 -27.847383,45.1334 35.980865,84.51554 63.828245,39.38215 v 0 c 3.67157,-5.95863 7.34314,-11.91726 11.01471,-17.87589 8.74076,-13.38334 15.4952,-23.54003 23.89001,-37.12848 3.47151,-5.61924 6.78335,-11.33562 10.19959,-16.98864 10.63645,-17.6007 21.61802,-34.98765 32.12413,-52.66731 10.21269,-17.07038 20.74342,-33.94586 30.96652,-51.00855 6.29348,-10.50403 12.83625,-22.00667 18.9798,-32.61646 3.10291,-5.35868 6.2219,-10.70803 9.33286,-16.06205 3.0839,-5.49598 6.269,-10.9364 9.25172,-16.48795 5.70852,-10.62492 9.44004,-18.49938 14.45178,-29.31357 3.78471,-8.16656 8.83395,-19.18374 11.97401,-27.59392 1.67087,-4.47516 3.00264,-9.06971 4.50396,-13.60456 0.93608,-3.84869 1.97036,-7.6748 2.80824,-11.54605 1.94562,-8.98943 2.75514,-18.18391 4.88367,-27.13785 9.5076,-52.17381 -64.2773,-65.61958 -73.78489,-13.44578 z"/>
</svg>
