<?xml version="1.0" ?>
<svg xmlns="http://www.w3.org/2000/svg" viewBox="0 0 500 1000">
<path d="m 76.721667,389.85288 c 26.710033,-9.94996 54.655543,-16.1956 82.391693,-22.51806 47.04374,-9.88405 95.08636,-14.47921 143.08569,-16.17134 8.74851,-0.30841 17.50425,-0.35693 26.25638,-0.5354 32.38232,-0.57629 64.69143,1.70332 96.93765,4.34365 2.97302,0.2517 5.94605,0.5034 8.91907,0.7551 52.84404,4.47295 59.16976,-70.25981 6.32571,-74.73276 v 0 c -3.04344,-0.25756 -6.08688,-0.51512 -9.13033,-0.77268 -34.80295,-2.8441 -69.677,-5.22366 -104.62482,-4.57682 -9.46573,0.20363 -18.93549,0.2677 -28.39719,0.61091 -52.37632,1.89984 -104.77508,7.07955 -156.08744,17.96573 -23.83587,5.46407 -27.47723,6.02908 -50.476121,12.30996 -15.911779,4.34543 -32.190063,8.76217 -47.239902,15.66805 -2.616351,1.20056 -5.097632,2.67595 -7.646448,4.01392 -45.0000935,28.06228 -5.314035,91.70202 39.686058,63.63974 z"/>
<path d="m 119.24772,217.03937 c -0.18715,19.36489 -0.44807,38.72199 0.41702,58.07797 0.33081,7.4018 0.85471,14.7937 1.28206,22.19055 2.38044,32.97645 7.23082,65.69573 11.15078,98.50565 2.50752,20.98775 2.64473,23.26874 4.69911,43.69842 1.92507,19.39327 3.11703,38.84316 4.01141,58.30695 2.44813,52.97647 77.36817,49.5143 74.92004,-3.46218 v 0 c -0.96699,-20.81674 -2.24439,-41.61905 -4.30896,-62.36031 -2.15932,-21.4085 -2.279,-23.54311 -4.89842,-45.46675 -3.72518,-31.17857 -8.33831,-62.26904 -10.70164,-93.5962 -0.39653,-6.70473 -0.87871,-13.40495 -1.1896,-20.1142 -0.90791,-19.59375 -0.40882,-39.1825 -0.442,-58.78419 -2.12435,-52.99044 -77.06416,-49.98615 -74.9398,3.00429 z"/>
<path d="m 320.93916,213.58665 c 3.65375,10.87949 4.94494,22.33028 6.38035,33.66048 2.74714,28.67561 2.85999,57.60959 0.53165,86.3209 -0.57888,7.13824 -1.41305,14.25349 -2.11958,21.38024 -4.23306,32.09248 -7.27396,64.41317 -13.40497,96.22898 -3.87268,20.0966 -5.99488,26.61056 -11.2844,46.35744 -6.39307,23.69185 -15.25748,46.58362 -25.08029,69.03677 -7.21675,16.49617 -14.23605,31.53644 -22.91747,47.32464 -4.25323,7.73501 -8.94282,15.22193 -13.41423,22.8329 -20.68837,33.48823 -45.59021,64.15228 -71.38349,93.80242 -7.24052,8.3232 -14.71174,16.44287 -22.06761,24.66431 -35.34389,39.5387 20.57229,89.52251 55.91618,49.98381 v 0 c 7.81865,-8.75409 15.75949,-17.40057 23.45597,-26.26227 28.59487,-32.92406 56.02502,-67.09073 78.8299,-104.34234 5.14676,-8.84484 10.53766,-17.55205 15.44027,-26.53452 9.37076,-17.16895 17.57933,-34.68248 25.36653,-52.61149 11.10694,-25.57223 21.05736,-51.66325 28.33245,-78.60928 6.18975,-23.39995 8.22847,-29.46275 12.78449,-53.30498 6.3989,-33.48634 9.67921,-67.48132 14.06978,-101.25847 0.78021,-8.05876 1.70899,-16.10452 2.34063,-24.17629 2.61744,-33.44842 2.38359,-67.15094 -1.02556,-100.53154 -2.68914,-20.17835 -5.40644,-40.87632 -14.60692,-59.31722 -25.00012,-46.77065 -91.14381,-11.41514 -66.14368,35.35551 z"/>
</svg>
