<?xml version="1.0" ?>
<svg xmlns="http://www.w3.org/2000/svg" width="500" height="1000">
<path d="m 203.78136,173.30481 c 8.00753,6.61187 14.26142,14.89267 20.85306,22.82726 8.26015,9.94303 9.04459,10.73422 17.54309,20.50934 3.80114,4.36954 10.5043,11.67913 13.83328,16.83752 1.42631,2.21011 2.41544,4.67347 3.62316,7.01021 26.42075,45.98308 91.45065,8.6185 65.0299,-37.36459 v 0 c -3.11052,-5.17879 -5.95113,-10.52958 -9.33156,-15.53637 -4.38288,-6.49151 -11.38032,-14.20668 -16.57286,-20.17569 -8.02197,-9.21264 -8.29011,-9.41767 -16.14232,-18.8515 -8.73674,-10.49652 -17.27563,-21.24659 -27.72313,-30.14243 -38.81044,-36.142077 -89.92306,18.74417 -51.11262,54.88625 z"/>
<path d="m 109.93958,388.43775 c 5.93328,-0.12064 11.85457,-0.38016 17.76309,-0.9801 4.20055,-0.42651 8.43527,-0.68322 12.57679,-1.50441 13.91548,-2.75919 27.56629,-7.02805 41.1666,-10.97677 37.79795,-11.60778 76.31154,-20.57135 114.81636,-29.45368 16.78444,-3.16007 33.26936,-8.72136 50.36105,-10.1481 0.47189,-0.0137 0.94582,-0.087 1.41566,-0.041 0.71654,0.0701 -1.44452,0.16275 -2.15868,0.0716 -1.47093,-0.18782 -2.97283,-0.27571 -4.39264,-0.70354 -2.7024,-0.81432 -5.63924,-1.33727 -7.91593,-3.00541 -5.08218,-3.72374 -9.20357,-8.60659 -13.80535,-12.90989 -5.13034,-13.05298 -4.16392,-7.71399 -5.23901,-16.6622 -0.20467,-1.70345 -0.23176,-3.12822 -0.72023,-2.57137 -1.2761,1.45471 -2.06162,3.27542 -3.1019,4.90712 -1.86349,2.92295 -3.73958,5.83784 -5.60938,8.75676 -16.71852,23.21557 -35.2348,45.11977 -54.56341,66.1974 -4.88493,5.32697 -9.9057,10.52775 -14.85855,15.79163 -31.56953,32.90358 -64.27943,64.70684 -97.69215,95.73081 -14.34603,13.59552 -28.93388,26.93569 -44.167107,39.53579 -8.724257,7.21624 -14.464145,11.92545 -23.826563,17.98187 -3.671876,2.37529 -7.520653,4.46526 -11.28098,6.69788 -3.670643,1.99144 -7.341286,3.98287 -11.011929,5.97431 -46.5431396,25.42117 -10.59217,91.24311 35.95097,65.82194 v 0 c 4.611413,-2.5321 9.222827,-5.0642 13.83424,-7.5963 5.277389,-3.22567 10.672759,-6.26581 15.832179,-9.677 11.12061,-7.35247 18.83197,-13.55638 29.05275,-22.03773 16.06704,-13.33269 31.50492,-27.3871 46.65612,-41.74668 34.64811,-32.1888 68.58203,-65.17047 101.30443,-99.32184 5.39003,-5.74129 10.85188,-11.41599 16.1701,-17.22386 22.03327,-24.06194 43.11762,-49.1121 61.85926,-75.8386 9.44753,-14.90108 19.80431,-30.02531 21.10529,-48.21604 0.25309,-3.5388 0.39592,-7.17004 -0.35447,-10.63761 -1.08883,-5.03157 -3.40133,-9.71803 -5.102,-14.57704 -4.87784,-4.7614 -9.19082,-10.18039 -14.63352,-14.28419 -2.66325,-2.00808 -6.09857,-2.74019 -9.27885,-3.74573 -6.6421,-2.10009 -13.86521,-1.70004 -20.69643,-1.32187 -20.3162,2.08867 -40.09514,7.29691 -59.99213,11.71842 -39.88264,9.2011 -79.76483,18.52253 -118.92115,30.52373 -5.92825,1.73103 -11.85571,3.46477 -17.78475,5.19308 -3.83798,1.11876 -7.60889,2.50324 -11.5163,3.34812 -7.68648,1.662 -16.24572,1.63359 -24.11749,1.98575 -52.994003,2.03365 -50.117987,76.97849 2.87601,74.94484 z"/>
<path d="m 193.86924,485.99432 c 5.16541,16.35306 7.06263,33.55712 9.73036,50.44097 4.16099,28.66183 10.25513,57.05671 13.58775,85.84112 0.61426,5.30542 0.99083,10.63566 1.48624,15.9535 1.41396,23.37188 0.62432,46.99084 -3.14909,70.12931 -0.53142,3.25868 -1.2798,6.47825 -1.9197,9.71738 -3.61907,14.147 -9.14667,27.71482 -14.36164,41.32964 -0.4833,1.20875 -0.9666,2.41749 -1.4499,3.62624 -19.64442,49.2605 50.02045,77.0419 69.66487,27.7814 v 0 c 0.6083,-1.52856 1.2166,-3.05713 1.8249,-4.58569 6.79195,-17.73941 13.8847,-35.46492 17.98772,-54.06872 0.86747,-4.64575 1.86715,-9.26875 2.6024,-13.93726 4.52998,-28.76306 5.40481,-58.08258 3.4625,-87.10406 -0.61724,-6.36318 -1.10795,-12.7399 -1.85171,-19.08953 -3.42837,-29.26857 -9.52004,-58.15752 -13.80342,-87.29879 -3.26833,-20.68389 -5.85027,-41.66593 -12.3944,-61.6403 -16.19614,-50.49936 -87.61301,-27.59457 -71.41688,22.90479 z"/>
<path d="m 254.63187,507.1649 c 18.03951,11.51846 34.1478,25.66964 50.37922,39.53636 25.90517,23.56476 49.8942,49.16308 72.81907,75.6099 6.40079,7.53629 12.62934,15.22332 18.34683,23.29265 30.83534,43.14722 91.85472,-0.46054 61.01938,-43.60775 v 0 c -7.14532,-9.94317 -14.73346,-19.55304 -22.71896,-28.83862 -25.39924,-29.2443 -51.96234,-57.56501 -80.77025,-83.49733 -20.84135,-17.78041 -41.6479,-36.05028 -65.59438,-49.60727 -47.4554,-23.67458 -80.93631,43.43748 -33.48091,67.11206 z"/>
</svg>
