<?xml version="1.0" ?>
<svg xmlns="http://www.w3.org/2000/svg" width="500" height="1000">
<path d="m 300.59053,211.55945 c -0.18675,-0.85657 0.65436,-1.81729 0.2934,-2.61769 -0.14741,-0.32686 -0.60145,0.41777 -0.80628,0.71208 -1.28358,1.84429 -2.37366,3.81751 -3.63867,5.67458 -5.97607,8.77306 -9.08684,12.63388 -15.87783,21.64802 -19.20522,24.46713 -40.72105,46.97236 -62.70408,68.92928 -6.71991,6.71193 -13.37885,13.48958 -20.28829,20.00624 -7.06274,6.66126 -14.41206,13.01198 -21.6181,19.51797 -7.40617,5.55996 -14.81234,11.11993 -22.21851,16.6799 -42.25029,32.05329 3.0799,91.80422 45.33019,59.75093 v 0 c 9.07147,-6.94084 18.14294,-13.88168 27.2144,-20.82251 7.98636,-7.24328 16.11945,-14.328 23.95908,-21.72984 7.15425,-6.75473 14.05665,-13.77185 21.01267,-20.73055 24.33973,-24.3491 48.09874,-49.36428 69.27809,-76.55539 7.77117,-10.37075 12.58181,-16.42282 19.53754,-26.98461 4.09238,-6.214 8.41614,-13.45904 11.26715,-20.36347 2.46958,-5.98068 2.65483,-8.18986 3.67752,-13.79189 6.5924,-52.62167 -67.82588,-61.94473 -74.41828,-9.32305 z"/>
<path d="m 93.692953,563.18967 c 25.283337,-0.56525 50.420857,-3.98322 75.507407,-6.95082 41.66697,-5.20392 83.52919,-8.46178 125.46148,-10.46748 26.78463,-1.32348 53.5927,-1.32334 80.36913,0.029 7.05883,0.28749 14.07654,1.0399 21.07537,1.95734 52.608,6.70057 62.08405,-67.69838 9.47604,-74.39896 v 0 c -8.9078,-1.11188 -17.83116,-2.09352 -26.80778,-2.46489 -29.22335,-1.44679 -58.48104,-1.49078 -87.71228,-0.036 -43.67389,2.10744 -87.27725,5.48305 -130.67631,10.9008 -22.16485,2.62423 -44.36855,5.66658 -66.693057,6.43107 -53.033009,0 -53.033009,75 0,75 z"/>
<path d="m 259.41204,372.22738 c -0.17163,12.99815 0.24308,25.98405 0.77578,38.96913 1.32957,25.25734 1.10843,50.54494 0.78122,75.82257 -0.47657,19.27618 0.0573,38.60747 -1.6198,57.84003 -1.07906,12.37479 -1.7326,14.69074 -3.82062,26.93092 -1.02372,4.42589 -1.92326,8.88234 -3.07114,13.27766 -2.51108,9.61506 -5.28917,17.68235 -8.40347,27.13728 -4.78893,14.539 -9.58001,29.06142 -14.66509,43.4996 -1.70165,4.15524 -3.28905,8.35912 -5.10494,12.46571 -2.92371,6.61189 -8.80096,18.22987 -12.07013,24.53643 -4.13298,7.97291 -8.49445,16.15435 -13.10441,23.87103 -2.21195,3.7026 -4.58266,7.30802 -6.87399,10.96204 -5.98172,8.60861 -8.3779,12.26412 -14.73115,20.5847 -4.33476,5.67705 -7.51235,10.09395 -12.98473,14.52745 -2.35014,1.90398 -4.97983,3.43431 -7.46974,5.15147 -42.31911,31.96237 2.88251,91.81063 45.20161,59.84826 v 0 c 5.20669,-4.09586 10.68207,-7.87147 15.62005,-12.28756 15.32196,-13.70263 26.2095,-31.5549 38.00324,-48.13752 2.82038,-4.54279 5.73137,-9.03056 8.46112,-13.62838 5.08687,-8.56798 10.24042,-18.20177 14.81085,-27.05374 4.72285,-9.14719 10.54834,-20.78149 14.63159,-30.16886 2.26393,-5.20476 4.24295,-10.52888 6.36442,-15.79332 5.26326,-14.99174 10.28003,-30.05204 15.2246,-45.15205 4.03508,-12.32257 7.04654,-21.16546 10.23823,-33.79868 1.46729,-5.80776 2.60499,-11.69385 3.90748,-17.54078 2.6331,-16.1591 3.34637,-18.52269 4.70083,-34.72713 1.70636,-20.41446 1.31241,-40.91714 1.74893,-61.37618 0.34305,-26.63042 0.54509,-53.27117 -0.83861,-79.88026 -0.49551,-11.95598 -0.88386,-23.91139 -0.71213,-35.87982 0,-53.03301 -75,-53.03301 -75,0 z"/>
</svg>
