<?xml version="1.0" ?>
<svg xmlns="http://www.w3.org/2000/svg" width="500" height="1000">
<path d="m 128.06691,407.78273 c 23.59595,-7.90284 47.82935,-13.49784 72.35368,-17.62323 8.26897,-1.39098 16.57971,-2.52114 24.86957,-3.78171 46.97854,-6.41722 94.37344,-9.02 141.72645,-10.66835 17.29712,-0.32923 9.09487,-0.23118 24.60632,-0.3284 53.03187,-0.34729 52.54073,-75.34569 -0.49115,-74.99839 v 0 c -16.86154,0.11478 -7.95001,0.003 -26.73408,0.37253 -50.27071,1.76272 -100.58242,4.58103 -150.44462,11.48443 -9.11595,1.40109 -18.25663,2.64979 -27.34784,4.20329 -31.02591,5.3017 -61.96873,12.36763 -91.326646,23.88669 -47.696576,23.18484 -14.908254,90.63798 32.788316,67.45314 z"/>
<path d="m 252.09396,190.34295 c 4.33296,11.33669 5.65193,23.46239 6.97636,35.43335 3.07452,31.10713 1.18505,62.37441 -1.04979,93.4609 -2.70347,28.75032 -3.68796,57.65865 -6.87975,86.36554 -2.34478,21.08894 -3.20398,23.88622 -6.95122,44.88832 -7.32425,32.66344 -14.85962,65.35334 -24.47677,97.4357 -5.99939,20.01367 -9.69691,29.93231 -16.57918,49.70136 -12.12828,33.63375 -25.76409,66.82198 -42.45886,98.47457 -8.68517,16.46673 -16.48934,29.18671 -25.97827,45.20529 -27.00419,45.64289 37.54461,83.83258 64.5488,38.18969 v 0 c 10.92254,-18.48254 18.56512,-30.89157 28.58074,-49.99278 18.09325,-34.50639 32.97146,-70.62151 46.15052,-107.254 7.67392,-22.11227 11.24124,-31.61426 17.95388,-54.08523 10.29003,-34.44648 18.40244,-69.53378 26.11562,-104.62771 4.26594,-24.36103 5.10386,-26.83003 7.78529,-51.12921 3.2218,-29.19604 4.27277,-58.58835 6.99861,-87.82811 2.53616,-35.72044 4.4804,-71.64416 0.75,-107.36684 -0.54629,-4.62597 -0.98476,-9.26595 -1.63888,-13.87792 -1.94331,-13.70146 -5.03219,-27.28187 -9.96728,-40.22912 -19.2589,-49.41249 -89.13872,-22.17629 -69.87982,27.2362 z"/>
</svg>
