<?xml version="1.0" ?>
<svg xmlns="http://www.w3.org/2000/svg" width="500" height="1000">
<path d="m 105.60022,388.65836 c 1.5673,-0.33479 3.1449,-0.62454 4.7019,-1.00437 13.08361,-3.19172 26.03614,-6.95212 39.05948,-10.37336 20.92776,-5.49773 17.76184,-4.60403 39.50553,-9.75504 43.77752,-9.96375 88.30486,-16.01047 132.9121,-20.73273 20.03172,-2.23717 40.1643,-2.58296 60.24212,-1.02331 3.54231,0.28664 7.07203,0.69893 10.60332,1.09309 0.48577,0.0542 1.13457,0.526 1.45769,0.15925 0.32084,-0.36419 -0.96386,-0.11518 -1.44578,-0.17277 -1.69145,-0.41779 -3.45546,-0.60935 -5.07433,-1.25339 -9.56428,-3.80498 -14.68751,-7.68194 -20.5344,-17.82684 -2.44182,-4.23681 -2.86981,-9.3663 -3.83453,-14.1603 -0.68106,-3.38442 0.86567,-6.24425 -0.28994,-3.91862 -5.02818,15.97431 -7.67519,32.55396 -11.81436,48.75231 -1.15447,4.51795 -2.5082,8.98263 -3.7623,13.47395 -1.66728,5.02463 -3.29011,10.06423 -5.00183,15.0739 -4.1722,12.21071 -8.50208,24.36699 -12.7256,36.56004 -5.2586,15.18129 -8.60097,25.14052 -14.29042,40.1933 -2.57126,6.80286 -5.30198,13.54437 -7.95297,20.31655 -2.82928,7.11162 -5.65591,14.22429 -8.48783,21.33485 -7.00751,17.59487 -10.32681,26.31132 -17.90392,43.63746 -9.69642,22.17224 -20.05513,44.07724 -30.31027,65.99397 -18.20793,36.93391 -37.20107,73.64244 -59.75646,108.15305 -4.48878,6.86799 -9.26483,13.54387 -13.89724,20.31581 -4.86039,6.17915 -9.72078,12.35831 -14.58117,18.53747 -32.64894,41.79171 26.45346,87.96428 59.1024,46.17257 v 0 c 5.81226,-7.48217 11.62452,-14.96435 17.43677,-22.44652 5.19979,-7.642 10.55591,-15.17994 15.59937,-22.926 24.12521,-37.05297 44.5557,-76.38425 64.02958,-116.02473 10.66007,-22.78952 21.41675,-45.5703 31.48276,-68.6312 7.83954,-17.96014 11.29673,-27.00516 18.48655,-45.05949 2.8869,-7.24927 5.76803,-14.50083 8.65204,-21.75125 2.85781,-7.32012 5.79895,-14.60825 8.57344,-21.96035 5.8668,-15.54637 9.29488,-25.74252 14.69233,-41.3251 4.35039,-12.55966 8.84183,-25.07082 13.09772,-37.66281 2.07806,-6.14841 4.02739,-12.33959 6.04109,-18.50939 1.51783,-5.53127 3.13799,-11.03547 4.5535,-16.5938 3.95937,-15.54745 6.50553,-31.45181 11.33095,-46.78068 1.18573,-4.99331 3.24318,-12.08734 2.66175,-17.18524 -0.6535,-5.72985 -1.22706,-11.75013 -3.91568,-16.85205 -5.77478,-10.9582 -11.9202,-15.57662 -22.1458,-19.77404 -2.07175,-0.85042 -4.32566,-1.16198 -6.48849,-1.74296 -5.93839,-0.90124 -11.91958,-1.47567 -17.90311,-1.99428 -24.60915,-1.83946 -49.29269,-1.5002 -73.84218,1.2264 -47.76702,5.08142 -95.44239,11.60994 -142.31025,22.33959 -23.05505,5.47757 -19.68381,4.52671 -41.61386,10.28765 -11.79615,3.0988 -23.52953,6.52656 -35.363383,9.4822 -1.208583,0.30186 -2.4355,0.52488 -3.65325,0.78732 -52.007628,10.37818 -37.330662,83.92808 14.676963,73.54989 z"/>
</svg>
