<?xml version="1.0" ?>
<svg xmlns="http://www.w3.org/2000/svg" viewBox="0 0 500 1000">
<path d="m 14.898942,181.87783 c 1.907893,3.14697 3.625803,6.41727 5.723679,9.4409 1.705997,2.45883 9.632197,11.68451 11.625618,14.00226 8.965111,10.42372 18.291742,20.49874 27.597002,30.61811 12.19652,13.47225 22.942195,28.14545 34.3776,42.24623 6.991259,8.62079 7.019899,8.51092 13.994489,16.47799 1.85272,1.99142 3.70543,3.98285 5.55815,5.97428 36.20834,38.74863 91.00718,-12.4577 54.79884,-51.20633 v 0 c -1.33446,-1.41935 -2.66893,-2.83871 -4.00339,-4.25807 -17.1619,-19.46313 -32.09406,-40.75584 -49.5192,-60.00067 -8.67317,-9.43142 -17.375953,-18.80605 -25.736286,-28.51707 -1.759774,-2.04408 -3.485237,-4.11763 -5.252533,-6.15521 -0.665408,-0.76717 -1.68547,-3.20812 -2.044951,-2.25833 -0.45449,1.20081 1.045411,2.34545 1.568117,3.51818 -21.29645,-48.56914 -89.9835847,-18.45141 -68.687135,30.11773 z"/>
<path d="m 105.78796,134.54558 c 10.14139,9.73897 19.24611,20.46539 29.00339,30.57438 2.831,2.93305 5.72883,5.80086 8.59325,8.70129 11.78601,11.13342 22.77234,22.98403 32.42769,36.00416 31.69301,42.5212 91.82708,-2.29949 60.13406,-44.82069 v 0 c -3.59436,-4.8048 -5.48408,-7.43119 -9.44758,-12.24542 -9.22905,-11.21002 -19.43872,-21.53313 -29.79973,-31.68813 -12.00128,-12.10326 -23.21487,-24.94207 -35.35199,-36.90601 -35.62434,-39.28621 -91.18343,11.09421 -55.55909,50.38042 z"/>
</svg>
