<?xml version="1.0" ?>
<svg xmlns="http://www.w3.org/2000/svg" width="1000" height="1000">
<path d="m 471.35021,145.67785 c -0.82718,16.95827 -0.35763,33.95386 -0.22407,50.92477 0.45342,30.55745 0.6694,61.11717 0.80599,91.67743 0.0978,26.00275 0.12187,52.0057 0.13867,78.0086 0.0343,53.033 75.03428,52.98451 74.99999,-0.0485 v 0 c -0.0169,-26.09857 -0.0411,-52.19718 -0.13941,-78.29559 -0.13717,-30.64517 -0.35192,-61.28984 -0.80757,-91.93217 -0.11845,-15.05052 -0.51531,-30.11945 0.0479,-45.16292 3.6569,-52.906782 -71.16459,-58.078412 -74.82148,-5.17163 z"/>
<path d="m 472.06829,524.16259 c -0.002,11.92348 0.033,23.8467 -0.0764,35.76974 -0.29233,22.85521 -0.41926,45.7119 -0.50153,68.56867 -0.0605,21.90118 -0.008,43.80177 -0.26087,65.70178 -0.16742,12.55405 -0.33148,25.10813 -0.42244,37.663 -0.0341,5.01328 -0.0456,10.02666 -0.0463,15.04005 7.2e-4,2.5998 0.003,5.19959 0.004,7.79939 3.8e-4,1.01379 6.1e-4,2.02758 7.4e-4,3.04137 5e-5,0.3448 -0.011,1.37902 1.1e-4,1.0344 0.0662,-2.06075 0.0768,-2.0548 -0.0191,-1.30574 -0.17338,1.62284 -0.30465,3.24936 -0.42265,4.87699 -3.703,52.90357 71.11394,58.1404 74.81695,5.23683 v 0 c 0.0619,-1.02201 0.17308,-2.03997 0.27314,-3.05877 0.29385,-3.27974 0.40882,-6.565 0.35083,-9.85695 -10e-4,-2.58569 -0.003,-5.17137 -0.004,-7.75706 6.5e-4,-4.83609 0.0116,-9.67217 0.0444,-14.50816 0.0898,-12.44764 0.2541,-24.89449 0.41942,-37.34132 0.25404,-22.09814 0.20756,-44.1968 0.26537,-66.2961 0.0816,-22.72182 0.20818,-45.44355 0.49898,-68.1638 0.10722,-12.14795 0.0816,-24.29596 0.0795,-36.44432 0,-53.03301 -75,-53.03301 -75,0 z"/>
</svg>
