<?xml version="1.0" ?>
<svg xmlns="http://www.w3.org/2000/svg" width="800" height="1000">
<path d="m 541.26647,215.59781 c -3.03111,-14.1923 -11.00561,-26.18898 -20.66059,-36.76033 -2.13894,-2.34195 -4.32796,-4.65015 -6.69506,-6.76121 -3.05382,-2.7235 -6.3623,-5.14723 -9.54345,-7.72084 -15.58898,-10.40124 -32.90923,-17.4746 -51.27072,-21.18599 -13.14041,-2.65605 -17.13892,-2.42449 -30.54675,-3.23507 -5.90509,0.32271 -11.84925,0.2171 -17.71526,0.96814 -27.06255,3.46486 -52.36258,15.16446 -74.16674,31.32518 -5.93892,4.40179 -11.34942,9.47507 -17.02414,14.21261 -5.18418,5.63552 -10.70289,10.9807 -15.55254,16.90655 -17.33982,21.18776 -32.00106,48.84217 -41.19629,74.61225 -2.37025,6.64276 -4.1759,13.47366 -6.26385,20.21048 -5.43531,20.22171 -7.68029,40.99933 -7.38909,61.9081 0.27272,19.58233 3.07986,38.98572 5.61464,58.36156 5.40387,35.9631 7.35318,72.26854 8.53546,108.57269 0.51408,22.28091 0.41855,44.77603 -5.03839,66.52693 -2.81842,11.234 -5.50746,17.78451 -9.46201,28.73165 -2.16927,4.52489 -4.13665,9.15224 -6.50783,13.57467 -8.15505,15.2098 -18.36538,29.18853 -28.92929,42.77713 -12.97079,16.68463 -11.89987,15.03156 -25.82944,31.2436 -4.84901,4.70963 -9.69801,9.41926 -14.54702,14.12889 -37.79626,37.20138 14.81443,90.65337 52.61069,53.45199 v 0 c 6.2954,-6.25936 12.59079,-12.51872 18.88619,-18.77808 5.07651,-5.93777 10.26047,-11.78532 15.22954,-17.81329 23.57694,-28.60113 45.6288,-58.93963 59.74814,-93.44479 5.49916,-15.63954 8.64809,-23.24613 12.42249,-39.55814 6.32203,-27.32218 7.17617,-55.37717 6.37664,-83.29858 -1.27875,-38.74546 -3.40918,-77.4897 -9.13304,-115.87553 -3.9684,-30.12287 -8.47451,-58.76013 -0.80082,-88.79137 1.36444,-4.67503 2.51519,-9.4178 4.09332,-14.02509 6.14763,-17.94784 16.03498,-37.41573 27.51725,-52.55489 2.60538,-3.43514 5.57419,-6.57885 8.36128,-9.86827 3.31218,-2.9482 6.45072,-6.1039 9.93654,-8.84461 10.49754,-8.25365 24.38115,-16.454 37.74241,-18.8745 2.87032,-0.51999 5.80448,-0.58688 8.70672,-0.88031 2.90306,0.0942 5.81324,0.0586 8.70918,0.28263 11.38217,0.88042 20.93145,3.57987 31.11337,8.64866 0.83132,0.51731 1.73308,0.93569 2.49395,1.55194 9.5798,7.75894 -1.85628,-0.82344 5.50724,5.38353 0.19862,0.16743 0.52182,0.38477 0.74014,0.24399 0.33397,-0.21536 -0.0343,-0.88164 0.28253,-1.1582 10.03672,52.0746 83.68133,37.88052 73.6446,-14.19408 z"/>
<path d="m 155.96234,797.68797 c 10.12609,-0.99149 20.24442,-2.05885 30.38367,-2.91529 21.76819,-2.06633 43.60966,-1.73248 65.41579,-0.68137 23.92341,1.23305 47.09376,7.16569 69.9701,13.85642 28.69249,8.87771 57.35504,17.83129 86.27427,25.94716 30.77341,8.33107 61.94057,15.10863 93.24878,21.081 20.79977,3.47659 41.96685,6.10277 63.06822,3.84142 5.87713,-0.62983 11.78272,-1.35161 17.50412,-2.83582 7.25313,-1.88157 14.19084,-4.81798 21.28626,-7.22698 23.41048,-12.64941 22.40032,-10.772 43.97436,-28.19938 7.36409,-5.94867 14.2319,-12.48675 21.34785,-18.73013 39.73829,-35.11934 -9.92796,-91.31777 -49.66625,-56.19842 v 0 c -13.17813,11.75169 -25.99545,24.30554 -41.66717,32.78295 -2.76422,1.23677 -5.40914,2.78519 -8.29265,3.71032 -2.90997,0.93362 -5.95608,1.41305 -8.98325,1.83239 -14.8804,2.0613 -29.85953,-0.38688 -44.54994,-2.654 -29.21847,-5.54603 -58.29672,-11.88987 -87.02203,-19.61835 -28.68589,-8.03553 -57.09447,-16.97796 -85.56322,-25.744 -12.12041,-3.51307 -16.77248,-5.01743 -29.11248,-7.95914 -19.13856,-4.56242 -38.62472,-7.57868 -58.26824,-8.80143 -25.10994,-1.17121 -50.26223,-1.49031 -75.32552,0.8676 -9.57348,0.8203 -19.14144,1.72141 -28.69061,2.79045 -52.930188,3.30073 -48.26225,78.15533 4.66794,74.8546 z"/>
<path d="m 173.24419,510.56586 c 13.50908,0.58485 27.0283,0.30021 40.54103,0.0519 23.53659,-0.5149 47.07219,-0.96493 70.61179,-1.32365 23.75036,-0.14072 47.50001,-0.39874 71.25098,-0.33785 15.86344,0.27824 31.71801,-0.17088 47.56719,-0.76454 1.21214,-0.0405 2.42428,-0.081 3.63642,-0.12151 53.00328,-1.77541 50.49247,-76.73337 -2.51081,-74.95796 v 0 c -1.31256,0.0441 -2.62512,0.0881 -3.93767,0.1322 -14.84895,0.55804 -29.70247,0.98977 -44.56519,0.71205 -24.19533,-0.0605 -48.38938,0.19706 -72.58405,0.34632 -23.61864,0.36015 -47.23332,0.81181 -70.84894,1.32764 -11.9198,0.21977 -23.8448,0.50878 -35.76242,0.0125 -52.97854,-2.40299 -56.37687,72.51998 -3.39833,74.92296 z"/>
</svg>
