<?xml version="1.0" ?>
<svg xmlns="http://www.w3.org/2000/svg" width="500" height="1000">
<path d="m 215.69505,78.86901 c 0.85775,8.801095 1.45248,17.624011 2.20316,26.43472 1.2221,12.39376 1.69358,24.8433 2.19168,37.28215 0.51723,14.32281 0.59648,28.65636 0.66062,42.98684 0.0774,16.46177 -0.27277,32.92198 -0.61907,49.37915 -0.39015,19.31098 -0.50407,38.62549 -0.80028,57.93792 -0.14908,18.21379 -0.6808,36.42189 -0.79378,54.63567 -0.21269,16.7274 0.33351,33.43871 1.12357,50.14348 0.45728,13.09106 1.17017,26.17007 1.76378,39.25504 0.47571,11.2773 0.56936,22.56541 0.63305,33.85103 0.0414,10.92276 0.0305,21.84562 0.0258,32.76843 -0.004,8.13938 -0.007,16.27875 -0.009,24.41813 0.0268,2.18239 0.0537,4.36477 0.0806,6.54716 0.67803,53.02867 75.6719,52.0698 74.99387,-0.95888 v 0 c -0.0248,-1.85846 -0.0496,-3.71692 -0.0744,-5.57538 10e-4,-8.1329 0.005,-16.26579 0.009,-24.39868 0.005,-11.07566 0.0158,-22.15137 -0.027,-33.22697 -0.0703,-12.27967 -0.18266,-24.56186 -0.70927,-36.83211 -0.59852,-13.13091 -1.31004,-26.25603 -1.77019,-39.39314 -0.72815,-15.37663 -1.25116,-30.75792 -1.04103,-46.15601 0.0998,-17.97779 0.65248,-35.94994 0.78626,-53.92783 0.29389,-19.16983 0.40893,-38.34167 0.7925,-57.5101 0.3597,-17.0954 0.71692,-34.194 0.63491,-51.29417 -0.0688,-15.22127 -0.16084,-30.4457 -0.72024,-45.65849 -0.54588,-13.56158 -1.08251,-27.13296 -2.40256,-40.646307 -0.68944,-8.075869 -1.20266,-16.172321 -2.04789,-24.231177 -2.9483,-52.950992 -77.83231,-48.781467 -74.88401,4.169524 z"/>
<path d="m 269.45997,744.94219 c -0.81269,-0.23695 -1.62226,-0.48485 -2.43806,-0.71084 -4.06185,-1.1252 -8.18905,-1.98954 -12.25149,-3.10403 -2.22031,-0.60912 -2.28785,0.0232 -2.06992,-0.91659 4.07947,0.81331 7.10876,4.45461 8.67604,8.12464 0.51967,1.21689 0.77521,2.53032 1.16281,3.79548 0.0976,1.68049 0.46173,3.36666 0.29265,5.04147 -0.51171,5.0688 -1.53131,7.56574 -4.03431,11.7509 -0.52101,0.87115 -1.27806,1.57933 -1.86181,2.40974 -0.0856,0.12173 -0.28043,0.43663 -0.13198,0.42646 0.43296,-0.0297 0.80146,-0.33319 1.20218,-0.49979 -0.0185,0.0658 2.21828,-0.7409 2.2182,-0.64874 -8e-5,0.1004 -1.74658,0.50565 -2.13838,0.58403 -1.2911,0.0554 -5.97649,0.4822 -7.69675,-0.10953 -4.51448,-1.55287 -8.64539,-4.25917 -13.30348,-5.30516 -1.2216,-0.27432 1.62778,1.90286 2.4306,2.86362 3.81086,4.56056 2.7017,3.20325 6.08963,7.66221 1.53704,2.18566 2.18578,3.01523 3.47885,5.13905 0.23203,0.38108 0.89158,1.54488 0.64711,1.17166 -1.86611,-2.84894 -3.63531,-6.95763 -3.69604,-10.02479 -0.12471,-6.29874 1.35153,-12.52724 2.02729,-18.79086 1.84063,-3.05663 3.68125,-6.11327 5.52188,-9.1699 0.38452,-0.44623 1.69762,-1.5645 1.15357,-1.33868 -0.83484,0.34652 -1.39992,1.14397 -2.09026,1.72748 -1.01624,0.85897 -2.0482,1.7008 -3.02924,2.59975 -4.02224,3.68567 -4.14117,3.95845 -7.69996,7.7867 -35.69442,39.22254 19.77463,89.70208 55.46906,50.47953 v 0 c 1.73689,-2.11162 3.85562,-3.61512 5.90564,-5.43238 8.55795,-7.5863 4.94741,-4.29326 13.7245,-17.15365 1.0747,-7.19616 3.18006,-14.31263 3.2241,-21.58846 0.0236,-3.89276 -1.75523,-7.60002 -3.02516,-11.27989 -2.3881,-6.92002 -8.14399,-13.89282 -12.20048,-19.90054 -3.88986,-5.00659 -5.77959,-7.60566 -10.07846,-12.4184 -2.23641,-2.50375 -4.15075,-5.40187 -6.88344,-7.35192 -17.58151,-12.54619 -19.50003,-14.28517 -37.07696,-14.22826 -9.40784,1.08033 -18.45952,3.605 -26.95723,7.86914 -8.19441,4.31812 -16.21575,8.8889 -22.42059,16.00937 -6.91178,7.93174 -10.65146,14.96606 -12.89378,25.34287 -0.90014,4.16558 -0.59691,8.50252 -0.89537,12.75378 0.61394,3.9175 0.81881,7.92142 1.84181,11.7525 3.82894,14.3392 13.21146,26.37612 25.50343,34.47638 2.58188,1.70142 5.42037,2.97714 8.13056,4.46571 2.57692,1.01586 5.11672,2.13145 7.73076,3.04757 5.65691,1.98252 11.61213,2.87361 17.32375,4.65763 50.88713,14.9332 72.00586,-57.03206 21.11873,-71.96526 z"/>
</svg>
