<?xml version="1.0" ?>
<svg xmlns="http://www.w3.org/2000/svg" width="500" height="1000">
<path d="m 89.518944,171.29856 c -9.077743,17.94016 -13.257849,38.00099 -11.002751,58.09692 0.595796,5.30933 1.99979,10.49651 2.999685,15.74477 2.022635,5.21706 3.346103,10.76237 6.067905,15.6512 10.172844,18.27218 26.268467,30.62107 47.438587,33.16866 18.37634,2.21139 25.08968,-2.18444 41.94182,-7.9246 6.17998,-3.85748 12.74773,-7.15399 18.53993,-11.57243 21.48785,-16.39148 40.2058,-42.73239 44.75891,-69.77894 1.14575,-6.80602 0.61659,-13.78979 0.92489,-20.68469 -2.1071,-7.17502 -2.91155,-14.86966 -6.3213,-21.52506 -10.67451,-20.8353 -30.95177,-32.17598 -53.16295,-36.43189 -16.85503,-3.22961 -24.34329,-1.30676 -41.00395,0.34161 -6.35916,1.78938 -12.90387,3.01707 -19.07746,5.36813 -11.60147,4.41811 -22.79736,11.03729 -31.680633,19.80415 -11.020689,10.87626 -11.828274,15.25881 -18.209113,28.49373 -14.826206,34.17585 33.505736,55.14327 48.331936,20.96742 v 0 c 0.92548,-3.4011 1.32705,-6.0655 3.61255,-8.9947 5.75619,-7.37739 14.5421,-10.74155 23.19187,-13.31712 3.69925,-0.56267 7.36746,-1.3949 11.09777,-1.68802 6.27735,-0.49327 12.31268,-0.11883 18.44822,1.16069 0.10402,0.0217 8.31905,2.41941 9.18544,2.96252 1.14357,0.71686 1.93572,1.88136 2.90358,2.82204 0.30191,2.31795 1.06672,4.62186 0.90574,6.95383 -1.04899,15.19567 -12.10238,29.90877 -23.04536,39.65464 -2.62893,2.34133 -5.62964,4.2284 -8.44445,6.34261 -2.68861,1.40929 -11.28535,6.30574 -14.91988,6.51101 -5.69952,0.32191 -8.11559,-4.6718 -9.93418,-9.15767 -0.64672,-2.55861 -1.48592,-5.07614 -1.94017,-7.67583 -1.77154,-10.13843 0.0602,-20.23862 4.3359,-29.50746 18.23311,-32.48628 -27.70942,-58.2718 -45.942536,-25.78552 z"/>
<path d="m 380.64795,65.700103 c -1.1186,2.199865 -2.70722,5.343974 -3.72126,7.150292 -3.07674,5.480593 -8.87987,14.920173 -11.78286,19.740307 -6.92836,11.503898 -13.34414,22.250428 -20.27003,33.827358 -30.65381,50.68077 -58.31748,103.07604 -84.99567,155.93112 -30.63216,61.86835 -60.42314,124.14864 -90.30881,186.37971 -26.86772,57.23646 -53.67029,114.51435 -78.733175,172.56857 -14.248363,33.02555 -25.577065,67.16736 -36.160119,101.50588 -2.608232,8.63905 -5.441538,17.20469 -8.38156,25.73515 -12.120398,35.22642 37.697281,52.36725 49.817679,17.14083 v 0 c 3.116977,-9.07266 6.139795,-18.17635 8.911865,-27.36178 10.01799,-32.51757 20.6945,-64.86582 34.1828,-96.14214 24.77383,-57.4092 51.29968,-114.03679 77.85403,-170.63939 29.73627,-61.92038 59.37932,-123.8892 89.85194,-185.45181 26.10064,-51.73445 53.17106,-103.01709 83.17215,-152.61872 7.43033,-12.42021 12.81671,-21.4459 20.14955,-33.62698 7.16503,-11.90231 14.82622,-23.651142 20.08172,-36.569269 12.42325,-35.120756 -37.245,-52.689884 -49.66825,-17.569128 z"/>
<path d="m 272.88727,568.81304 c -8.28445,14.27427 -14.55769,29.84426 -16.77965,46.29842 -0.7394,5.47551 -0.73728,11.02579 -1.10593,16.53869 0.52391,5.7819 0.56237,11.62853 1.57173,17.34571 4.39199,24.87684 18.01497,49.31659 43.99198,56.81378 7.17945,2.07205 14.87908,1.40161 22.31862,2.10242 7.18492,-1.79026 14.63314,-2.74034 21.55477,-5.37078 26.80899,-10.18826 47.88814,-34.05138 59.50505,-59.70736 2.94802,-6.51071 4.73685,-13.48639 7.10528,-20.22958 1.00492,-7.06083 2.72956,-14.05622 3.01475,-21.18251 0.85433,-21.34787 -4.98404,-43.15697 -20.20268,-58.8613 -14.32021,-14.77721 -21.32059,-14.56403 -40.12877,-20.78391 -33.04649,-0.28297 -16.51273,-2.30088 -49.5437,6.50812 -35.67399,10.7318 -20.49693,61.18243 15.17705,50.45063 v 0 c 14.8738,-5.52314 7.93276,-3.73384 20.62068,-6.09955 2.29111,0.17951 4.61993,0.0874 6.87333,0.53855 3.13481,0.62769 8.00682,2.59931 10.04491,5.34979 5.86251,7.91165 4.98181,18.50479 4.10241,27.60579 -1.12015,3.8536 -1.87036,7.83461 -3.36047,11.56082 -4.36358,10.91171 -11.6056,21.67064 -20.71134,29.19922 -4.14294,3.42536 -8.97339,5.81288 -13.66229,8.33945 -0.56801,0.43325 -3.59998,3.02746 -4.75997,2.9692 -3.7227,-0.18696 -5.57019,-4.19345 -6.85372,-6.94515 -3.04063,-6.51871 -2.99233,-9.87653 -4.03986,-16.96117 0.0585,-2.99388 -0.10643,-6.00048 0.17555,-8.98162 1.08034,-11.42139 5.80115,-21.89843 11.55517,-31.66203 17.56144,-32.85423 -28.90146,-57.68986 -46.4629,-24.83563 z"/>
</svg>
