<?xml version="1.0" ?>
<svg xmlns="http://www.w3.org/2000/svg" width="500" height="1000">
<path d="m 222.82753,57.175643 c -1.23757,13.407973 -1.09734,26.899644 -1.07294,40.35033 -0.0619,24.824327 0.12295,49.648657 0.20745,74.472837 0.11142,25.78722 0.0249,51.57496 0.18847,77.36187 0.0368,5.21767 0.0737,10.43533 0.11053,15.65299 0.37451,53.03169 75.37264,52.50205 74.99813,-0.52963 v 0 c -0.0367,-5.20083 -0.0735,-10.40166 -0.11019,-15.60249 -0.16548,-25.7123 -0.0733,-51.42548 -0.18738,-77.13809 -0.0844,-24.78716 -0.26929,-49.57447 -0.20714,-74.361782 -0.0214,-10.47458 -0.1252,-20.964989 0.55709,-31.423635 6.21009,-52.668157 -68.27393,-61.4505568 -74.48402,-8.7824 z"/>
</svg>
