<?xml version="1.0" ?>
<svg xmlns="http://www.w3.org/2000/svg" width="500" height="1000">
<path d="m 91.965129,199.30189 c 0.20984,-0.11656 3.79348,-0.15375 4.020929,-0.38095 0.108207,-0.10809 -1.863868,-2.98646 -2.231201,-3.62984 0.694789,-0.0748 1.01625,0.0908 0.895119,-1.04358 -0.149252,-1.39771 -0.566124,-2.75421 -0.805034,-4.13941 -0.552402,-3.20285 -1.323228,-7.4228 -1.097472,-10.73471 0.09019,-1.32318 0.560813,-2.59253 0.841219,-3.88879 3.217063,-8.01845 6.841901,-16.31861 11.930121,-23.35623 2.9132,-4.02932 7.10353,-7.73598 10.60423,-11.13445 7.33657,-6.8384 15.60883,-12.66069 24.733,-16.88295 10.91025,-5.04879 22.64338,-7.50975 34.29371,-10.11816 19.42595,-3.61966 39.20477,-4.78095 58.93205,-5.09055 5.2212,-0.082 10.446,-0.14896 15.66552,0.007 4.9327,0.14697 9.85151,0.60033 14.77726,0.90049 4.29117,0.691 8.62852,1.13937 12.87352,2.07299 7.51983,1.65388 16.23734,4.82147 23.24801,7.8633 8.50199,3.6889 14.01838,6.44378 21.38215,11.84069 2.67784,1.96259 5.08484,4.27022 7.62726,6.40533 2.02778,2.18231 4.22191,4.22111 6.08332,6.54694 1.76345,2.20343 3.28399,4.59639 4.76003,7.00182 5.16959,8.42467 9.3435,17.36676 11.96964,26.91125 0.89606,3.25669 1.49802,6.58724 2.24704,9.88086 0.35183,3.12964 0.8855,6.24417 1.05551,9.38894 0.17248,3.19031 0.0678,6.39137 -0.0297,9.58485 -0.21404,7.01032 -0.74095,16.11569 -2.11716,23.00282 -1.84565,9.23644 -3.81121,12.83688 -7.37569,21.58002 -2.06147,4.15603 -3.92906,8.41399 -6.18441,12.46808 -5.2756,9.48316 -10.86962,17.45639 -17.39559,26.13231 -11.5991,15.42036 -24.40979,29.83449 -37.04145,44.40088 -13.03696,15.59896 -26.46755,30.86685 -39.50254,46.46724 -7.9459,9.50973 -17.75102,21.30436 -24.80004,31.54109 -3.88733,5.64525 -7.31593,11.59301 -10.97389,17.38951 -12.04088,21.05859 -19.88522,43.9052 -24.4023,67.67218 -2.02241,10.64108 -2.48018,16.13254 -3.6893,26.60984 -1.45432,13.96895 -1.51593,28.01831 -1.59252,42.04455 -0.26973,53.03232 74.7293,53.41377 74.99903,0.38145 v 0 c 0.053,-11.34518 0.0309,-22.71186 1.12073,-34.0182 1.10673,-10.11902 2.31189,-20.19358 4.67294,-30.11758 2.7405,-11.51893 7.0317,-22.52338 12.5889,-32.97891 2.4393,-4.01275 4.67806,-8.15449 7.31792,-12.03824 6.17152,-9.07952 14.97264,-19.61596 21.91543,-27.92553 12.87463,-15.40919 26.14051,-30.48949 39.01495,-45.8991 28.18335,-32.51833 57.16866,-65.28466 74.04235,-105.43943 2.37291,-6.48649 5.13985,-12.84212 7.11874,-19.45946 5.17938,-17.31966 7.24328,-35.40812 7.26622,-53.44192 0.008,-6.00574 -0.0904,-12.0247 -0.62894,-18.00625 -0.52049,-5.78078 -1.6955,-11.48384 -2.54324,-17.22577 -3.82623,-14.93171 -4.29623,-19.05424 -10.33367,-33.36006 -6.87766,-16.29673 -16.36338,-31.97903 -28.10482,-45.236928 -3.96072,-4.47227 -8.52104,-8.375323 -12.78156,-12.562985 -4.98389,-3.848922 -9.74509,-8.004873 -14.95166,-11.546766 -21.18011,-14.408293 -47.84102,-25.100104 -72.9413,-30.039776 -6.49513,-1.278226 -13.11004,-1.846394 -19.66506,-2.769591 -6.3616,-0.340303 -12.71636,-0.851442 -19.0848,-1.02091 -6.01177,-0.159976 -12.02872,-0.07372 -18.04167,0.03296 -24.60949,0.43662 -49.26014,2.156448 -73.43451,6.988533 -15.01782,3.565999 -22.17863,4.773056 -36.75912,10.259727 C 99.400625,59.488518 79.473089,72.175678 62.526698,88.530307 52.053823,99.514768 49.66308,101.09964 41.189447,113.57019 c -2.40639,3.54146 -4.489704,7.29723 -6.526065,11.06364 -4.444323,8.22013 -9.127355,18.27949 -11.817755,27.16973 -1.698784,5.61352 -2.647484,11.42719 -3.971226,17.14078 -0.303505,5.37418 -0.945165,10.73991 -0.910514,16.12254 0.0262,4.06949 0.560561,8.12508 1.092583,12.15972 1.565147,11.86946 4.626331,24.16991 10.04069,34.89723 1.950283,3.86405 4.595904,7.33591 6.893856,11.00386 5.991533,6.8657 7.902368,9.70712 15.190607,15.38515 11.873743,9.25044 25.637182,15.23934 40.783506,15.78905 53.033011,0 53.033011,-75 0,-75 z"/>
<path d="m 238.44446,758.79227 c -6.67011,-4.57202 -13.96529,-8.07828 -21.12851,-11.78093 -3.74017,-1.93328 -2.63494,-0.98453 -4.23181,-2.52023 8.02893,4.31878 9.37083,9.78145 8.69452,18.90445 -0.10746,1.44956 -0.70627,2.81997 -1.0594,4.22995 0.012,0.26103 -0.22544,0.7814 0.0359,0.78308 1.26638,0.008 2.27761,-3.08575 2.09072,-1.20336 -0.14565,1.46698 -4.72234,2.00284 -0.69849,2.06372 1.30878,-0.0843 2.61613,-0.19457 3.92632,-0.25278 1.54735,-0.0687 3.09606,-0.14158 4.64488,-0.12801 1.15608,0.0101 2.31928,0.0278 3.46265,0.19901 0.21534,0.0322 0.73624,0.3936 0.51854,0.39724 -3.89413,0.0651 -5.06671,-1.141 -9.038,-2.88322 -1.70268,-1.47461 -3.76188,-2.6179 -5.10804,-4.42385 -5.18164,-6.95149 -6.11705,-11.702 -5.68618,-20.51606 0.11351,-2.32202 1.1535,-4.50719 1.86573,-6.7202 0.74229,-2.30638 1.88944,-2.59584 0.22866,-1.87673 -2.38681,1.58202 -4.76624,3.17691 -7.24837,4.60648 -45.59793,27.08004 -7.30097,91.56525 38.29696,64.48521 v 0 c 6.01956,-3.61612 11.92928,-7.42936 17.4049,-11.84434 2.33879,-2.08719 4.86591,-3.98082 7.01638,-6.26157 6.79312,-7.2047 13.18984,-15.44405 15.49121,-25.42129 3.42693,-14.85695 2.02707,-25.69093 -5.44452,-38.76371 -2.65029,-4.63712 -6.93929,-8.12121 -10.40893,-12.18182 -4.37331,-2.77337 -8.45348,-6.07471 -13.11991,-8.32011 -15.16928,-7.29917 -33.19921,-5.7191 -49.35251,-4.03674 -9.74419,1.92388 -12.66239,1.94419 -21.98746,6.1592 -8.26819,3.73729 -16.22516,9.86806 -22.38044,16.50593 -2.78527,3.00364 -5.22878,6.307 -7.84317,9.4605 -2.46297,4.73614 -5.77879,9.11874 -7.38891,14.20841 -1.94405,6.14529 -3.05794,12.63453 -3.14167,19.07944 -0.18338,14.11613 6.91056,28.59459 16.24589,38.79384 2.6469,2.89186 5.92738,5.13242 8.89108,7.69863 2.24072,1.40146 4.44087,2.86999 6.72218,4.20437 5.4582,3.19263 11.39302,5.52585 16.7848,8.84307 43.47828,30.36674 86.42334,-31.12084 42.94505,-61.48758 z"/>
</svg>
