<?xml version="1.0" ?>
<svg xmlns="http://www.w3.org/2000/svg" width="500" height="1000">
<path d="m 265.3986,461.74158 c -0.44949,-0.74845 -2.60118,-2.08982 -2.37244,-3.39403 0.0346,-0.19703 0.2463,-0.33098 0.28761,-0.5267 0.29701,-1.40705 0.23105,-2.86695 0.32139,-4.30216 0.23241,-1.87832 0.48174,-4.43517 0.96942,-6.28457 0.099,-0.37535 0.5914,-1.4261 0.51141,-1.04625 -1.40966,6.69444 -4.66832,7.8033 -10.20879,10.68425 -1.28991,0.20389 -2.58099,0.40049 -3.86973,0.61165 -0.35146,0.0576 -0.80478,-0.0632 -1.05057,0.19455 -0.37145,0.38949 2.32893,2.02479 0.24058,1.9909 -0.34826,-0.39364 -0.74369,-0.75012 -1.04476,-1.18092 -0.29775,-0.42604 -0.31164,-1.07802 -0.73986,-1.37263 -0.58403,-0.40179 -2.10106,3.84565 -2.25805,1.89956 2.79278,-3.88867 7.2142,-4.90954 11.64925,-2.40114 2.06153,1.16598 3.67449,2.98929 5.51173,4.48393 2.1026,3.03202 3.21514,5.46002 2.81517,9.16201 -0.0901,0.83415 -0.35343,1.64299 -0.60767,2.44254 -0.17622,0.55421 -0.63178,1.02716 -0.67989,1.60671 -0.0155,0.18663 0.35423,0.12165 0.53135,0.18247 27.97414,-15.44853 6.12662,-55.00994 -21.84752,-39.56141 v 0 c -6.77472,4.16054 -9.97153,5.34313 -15.1047,11.96616 -6.1006,7.87126 -9.07799,18.52156 -6.92114,28.37141 0.76684,3.50198 2.46125,6.73422 3.69188,10.10133 2.93609,3.22059 5.33391,7.03087 8.80827,9.66177 10.12166,7.66443 25.73657,7.049 36.47871,1.25873 2.78239,-1.49978 5.17394,-3.63243 7.76092,-5.44865 1.84887,-2.06208 3.87461,-3.97833 5.54663,-6.18625 7.11674,-9.39774 11.1561,-22.19023 9.87912,-33.97069 -0.38757,-3.57546 -1.78027,-6.96901 -2.67041,-10.45352 -1.49492,-2.73795 -2.72726,-5.63657 -4.48475,-8.21386 -6.0301,-8.84292 -17.22422,-17.09754 -27.86798,-19.0763 -3.67745,-0.68367 -7.46852,-0.43033 -11.20279,-0.6455 -3.93685,1.29836 -8.21308,1.83531 -11.81057,3.89506 -13.93568,7.9789 -16.39781,23.2463 -17.2173,37.64243 0.0846,2.88993 -0.0512,5.79475 0.25377,8.66979 1.18049,11.12833 5.34559,21.66415 13.29528,29.67664 21.52243,23.62192 54.92886,-6.81539 33.40643,-30.43731 z"/>
<path d="m 269.72718,763.58028 c -1.52758,-4.84533 -1.30145,-9.97544 -1.12206,-14.98473 0.1044,-0.9478 0.10146,-1.91368 0.31321,-2.84341 0.0241,-0.10605 0.32414,-0.0238 0.31512,0.0846 -0.0696,0.83621 -0.20082,1.6884 -0.52694,2.46153 -0.45229,1.07225 -1.02804,2.11482 -1.77858,3.00418 -2.08834,2.47462 -3.05326,2.68543 -5.67366,4.02234 -0.20272,0.18339 -0.72875,0.30484 -0.60817,0.55017 0.20756,0.42232 0.83517,0.43831 1.22416,0.70312 0.39756,0.27066 0.80644,0.54175 1.12878,0.8987 0.19058,0.21105 0.5902,0.58072 0.37479,0.76635 -0.57469,0.49523 -1.71273,-0.86296 -2.62003,-1.70078 -0.92919,-0.97404 -1.30241,-2.02047 -1.66232,-3.26272 -0.0722,-0.24919 0.0106,-0.7939 -0.24301,-0.7394 -0.51901,0.11153 -0.81015,0.68685 -1.19822,1.04909 -0.72512,0.67686 -1.42695,1.37824 -2.14042,2.06736 -0.85598,0.43691 -3.59457,3.60918 -3.39053,0.78268 4.59756,-0.0269 8.12789,2.83683 10.92037,6.34516 1.05267,1.32251 1.63089,2.97149 2.25085,4.544 0.87383,2.21646 0.036,3.35289 0.72165,2.31507 4.34305,-31.65987 -40.43077,-37.80187 -44.77382,-6.142 v 0 c -0.51799,4.65911 -1.19634,8.27669 -0.16975,13.14579 2.36549,11.21946 8.59045,18.64676 19.19648,22.93961 2.33762,0.94616 4.89559,1.21322 7.34338,1.81983 5.89325,0.37297 7.94261,0.83453 13.95476,-0.22196 10.14563,-1.78285 18.92871,-6.90768 26.29739,-13.97114 5.88021,-6.1834 11.30297,-12.26461 14.36254,-20.44045 3.65648,-9.77091 2.95759,-17.93083 0.18619,-27.75905 -1.65854,-3.16302 -2.92826,-6.56268 -4.97562,-9.48906 -6.88586,-9.84227 -19.00336,-16.51346 -30.72431,-18.43474 -3.30957,-0.54251 -6.68999,-0.48407 -10.03499,-0.72611 -3.6259,0.73327 -7.41745,0.89154 -10.8777,2.19979 -9.98605,3.77554 -16.6795,11.68453 -20.20129,21.51922 -1.70841,4.77079 -1.75439,8.40754 -2.16597,13.25559 -0.24562,10.70902 0.12919,21.53237 3.8366,31.71628 10.9424,30.02455 53.40352,14.54966 42.46112,-15.47489 z"/>
</svg>
