<?xml version="1.0" ?>
<svg xmlns="http://www.w3.org/2000/svg" width="500" height="1000">
<path d="m 113.93334,205.31048 c 0.82739,-0.54498 4.87048,0.93088 4.97828,0.74325 0.19728,-0.34338 -0.1728,-0.77395 -0.29182,-1.15166 -0.2749,-0.87243 -0.59275,-1.73075 -0.88913,-2.59612 -1.75687,-5.91807 -2.73991,-12.0414 -3.3751,-18.17311 -0.53597,-5.174 -1.14248,-12.00404 -0.43523,-17.25089 0.30681,-2.27614 1.16768,-4.44255 1.75152,-6.66383 1.07219,-2.28799 1.93744,-4.68491 3.21658,-6.86397 8.21812,-13.99987 22.2877,-23.41332 36.76362,-30.00887 5.29446,-2.41228 10.83107,-4.25318 16.24661,-6.37978 29.97353,-8.89319 61.90241,-12.26556 92.61031,-4.81182 5.20263,1.26284 10.18635,3.29955 15.27952,4.94932 4.32204,2.25926 8.82517,4.20159 12.96612,6.77779 11.6486,7.24693 22.61226,17.14274 29.01232,29.4677 4.80294,9.24928 5.13469,15.10855 7.09486,25.28043 0.11058,4.80247 0.59945,9.61112 0.33175,14.40739 -1.28729,23.06373 -10.54852,44.76155 -22.07846,64.46038 -3.29387,5.62757 -7.05838,10.96612 -10.58758,16.44918 -14.82221,21.20223 -32.51818,40.11995 -49.04819,59.95028 -11.72063,14.06071 -12.27815,15.09003 -23.41319,29.60051 -15.1706,20.39506 -28.27525,42.27695 -36.97209,66.24037 -5.81895,16.03363 -6.3299,20.72347 -10.07569,37.30688 -4.28188,23.708 -5.18769,47.87765 -3.28779,71.87208 0.79823,10.08098 2.11045,18.79365 3.46195,28.76101 0.52269,3.84394 1.04538,7.68788 1.56807,11.53182 5.01942,36.91354 57.22306,29.81501 52.20364,-7.09854 v 0 c -0.52343,-3.84935 -1.04685,-7.6987 -1.57028,-11.54805 -1.09627,-7.99745 -2.37736,-16.59728 -3.06452,-24.64126 -1.63835,-19.17853 -1.08033,-38.51611 2.13239,-57.51134 2.80021,-13.05052 3.06993,-16.27504 7.47009,-28.91223 6.82728,-19.60785 17.6497,-37.32577 29.94986,-53.95293 10.1811,-13.30256 10.88708,-14.50853 21.69382,-27.47379 18.0905,-21.70386 37.45865,-42.41947 53.39826,-65.83819 10.8635,-17.22723 15.49735,-23.24452 23.8907,-41.86873 9.96917,-22.12082 16.60767,-45.56724 16.94605,-69.98379 0.10854,-7.83243 -1.05285,-15.63095 -1.57928,-23.44643 -4.93565,-19.87806 -5.02801,-26.44201 -15.71833,-44.38092 C 353.07575,103.36035 335.32948,87.655281 316.07402,76.638705 309.4055,72.823458 302.1972,70.040577 295.25879,66.741513 287.8363,64.546661 280.5444,61.84856 272.9913,60.156955 c -31.72991,-7.106288 -65.23615,-5.933334 -96.82861,1.225775 -8.13206,1.842789 -16.05446,4.512089 -24.08169,6.768134 -18.14928,7.545578 -25.98939,9.699826 -42.26598,20.79513 -16.748685,11.417106 -31.018924,26.526066 -39.860739,44.887466 -2.488788,5.16835 -3.974343,10.76235 -5.961515,16.14353 -0.916511,5.34983 -2.230308,10.64662 -2.749532,16.0495 -0.725101,7.54518 0.06466,17.93406 0.952695,25.52125 0.864699,7.38783 2.227878,15.60846 4.28908,22.77919 1.044288,3.63299 2.479416,7.14205 3.719124,10.71308 4.09466,7.95453 5.17806,11.36986 11.206352,18.01743 7.702098,8.49332 17.82514,13.8199 29.243865,14.83495 37.18103,2.31859 40.46002,-50.26332 3.27899,-52.58191 z"/>
<path d="m 237.04343,774.67952 c -7.22218,-0.0824 -14.976,2.20966 -22.14546,0.81123 -0.85511,-0.16679 -1.65196,-0.5542 -2.47794,-0.8313 -1.42416,-1.65913 -3.32893,-3.28551 -3.82696,-5.53876 -0.14435,-0.6531 0.16402,-1.32995 0.17813,-1.99866 0.0628,-2.97358 -0.0396,-5.94858 -0.0132,-8.9227 0.33502,-1.52687 0.39642,-3.14077 1.00506,-4.5806 0.94668,-2.23946 6.98711,-5.46275 9.31501,-4.97855 0.53241,0.11074 0.82422,0.70962 1.23633,1.06443 3.3466,1.46817 8.90793,2.64192 9.67289,6.97145 0.23967,1.35646 -0.30612,2.738 -0.48202,4.10419 -0.004,5.10177 -1.82192,8.28604 -4.79719,12.15361 -18.71394,32.2117 26.84027,58.6772 45.55421,26.46551 v 0 c 1.88836,-3.50613 4.12187,-6.84725 5.66509,-10.5184 5.61185,-13.34997 6.93851,-27.02336 4.58746,-41.27773 -4.22247,-13.25398 -4.12681,-17.45218 -13.49638,-28.4012 -9.53405,-11.14122 -23.71968,-18.39741 -38.07479,-20.77448 -5.09827,-0.84423 -10.31554,-0.64038 -15.47331,-0.96056 -5.5362,1.13414 -11.27487,1.53502 -16.60859,3.40242 -14.54663,5.09297 -27.16657,17.14401 -34.06378,30.75434 -2.43332,4.80171 -4.08704,10.01167 -5.28663,15.25937 -1.03623,4.53304 -0.9166,9.25465 -1.37489,13.88197 0.79804,11.10194 0.47282,17.31894 4.64571,28.09776 5.41018,13.97479 15.22452,25.26127 28.4064,32.38801 3.85316,2.0832 8.12291,3.28094 12.18436,4.92141 3.4219,0.63387 6.81217,1.47218 10.26568,1.9016 9.43392,1.17306 18.90541,-0.2907 28.32066,-0.79106 37.19615,-2.06181 34.2803,-54.66511 -2.91585,-52.6033 z"/>
</svg>
