<?xml version="1.0" ?>
<svg xmlns="http://www.w3.org/2000/svg" width="500" height="1000">
<path d="m 283.02117,139.8398 c -17.85991,-0.38952 -35.24742,4.26546 -52.3165,8.95639 -20.39399,6.22942 -39.57474,16.00619 -56.65613,28.78624 -12.38495,9.26623 -15.68199,13.1842 -26.72075,23.94938 -21.27901,22.51731 -37.12373,49.44829 -50.313848,77.33456 -2.796929,5.91322 -5.30289,11.95972 -7.954335,17.93958 -10.620698,25.53959 -17.360211,52.41988 -21.57502,79.70783 -2.620408,16.96531 -3.168151,25.16887 -4.829006,42.30191 -2.4855,37.28623 -3.608688,74.72111 -2.913433,112.09287 0.139552,7.50123 0.491262,14.99702 0.736892,22.49553 2.191356,36.82077 10.384969,73.22308 24.766633,107.23209 2.717045,6.42513 5.914175,12.63649 8.871263,18.95474 12.354134,22.89239 27.343964,44.48607 45.648464,63.05294 11.75316,11.92162 15.18622,13.96605 28.2035,24.19875 18.76617,13.18714 39.56006,23.40024 62.00561,28.52131 15.32576,3.49666 18.19212,2.91791 34.0452,3.6821 23.77192,-0.33876 46.82482,-5.90615 68.12308,-16.47853 14.61968,-7.25715 17.74776,-10.28953 31.06997,-19.77875 4.70194,-4.23567 9.6628,-8.20046 14.1058,-12.70699 19.48782,-19.7665 33.47664,-44.38038 44.60325,-69.60894 3.07267,-6.967 5.69655,-14.12342 8.54482,-21.18513 14.05331,-38.6954 20.73048,-79.49131 23.85011,-120.41335 0.67368,-8.83707 1.02571,-17.69571 1.53857,-26.54357 1.32431,-36.10696 2.45393,-72.34864 -0.93697,-108.38639 -1.99189,-21.16945 -4.19132,-32.64445 -7.56033,-53.52916 -6.20844,-33.18082 -12.81295,-66.49944 -23.57993,-98.56531 -7.05351,-21.00652 -8.92021,-23.79089 -17.91902,-43.54149 -3.84464,-6.43489 -7.29429,-13.12288 -11.53392,-19.30468 -12.25341,-17.86668 -27.74903,-33.41456 -47.11026,-43.50833 -17.87448,-9.31866 -24.26677,-9.26061 -43.8199,-13.38446 -30.95838,-1.11495 -15.88256,-1.56995 -45.23514,1.08048 -37.07214,3.66893 -31.88349,56.09685 5.18865,52.42792 v 0 c 20.13662,-2.2391 10.1095,-1.6624 30.07869,-1.77589 11.53467,1.87684 15.4395,1.71751 26.04941,6.44254 17.66238,7.86578 29.15129,23.76348 38.50706,40.01229 7.68366,16.56796 9.32431,18.99929 15.37661,36.83733 10.11351,29.80771 16.1523,60.84824 21.99208,91.70687 3.01239,18.49965 5.19311,29.99548 7.00181,48.65373 3.28124,33.84857 2.08471,67.90224 0.90336,101.82098 -0.4642,8.20541 -0.78294,16.42036 -1.39262,24.61625 -2.6701,35.89376 -8.21296,71.73908 -20.30479,105.76444 -2.39352,6.02459 -4.60147,12.12625 -7.18055,18.07376 -10.0531,23.18306 -22.71056,45.6771 -42.06811,62.34723 -3.51426,2.60541 -6.8973,5.39784 -10.54279,7.81622 -16.746,11.10912 -35.69601,17.71673 -55.82219,18.46212 -10.1866,-0.18479 -11.89421,0.25721 -21.89953,-1.80312 -15.8128,-3.25623 -30.44595,-10.29732 -43.73269,-19.3374 -9.81148,-7.52483 -12.76935,-9.30123 -21.64394,-18.13773 -14.75642,-14.69307 -26.80984,-31.89366 -36.91874,-50.03475 -2.43192,-5.08739 -5.06915,-10.08163 -7.29575,-15.26217 -12.27545,-28.56071 -19.37881,-59.17202 -21.3218,-90.16814 -0.23612,-6.99509 -0.57595,-13.98746 -0.70836,-20.98529 -0.67371,-35.60788 0.37742,-71.27528 2.67174,-106.80652 1.48811,-15.58985 1.96448,-22.88319 4.27885,-38.24527 3.47991,-23.09858 8.98305,-45.88916 17.88162,-67.53793 2.27434,-5.18052 4.4173,-10.42073 6.82301,-15.54156 10.66691,-22.70579 23.17048,-44.91356 40.21809,-63.47231 3.20984,-3.20379 6.29683,-6.53558 9.62952,-9.61138 14.61365,-13.48723 31.83488,-23.92187 50.83691,-29.88437 12.46486,-3.48409 25.18343,-7.30011 38.25578,-7.04542 37.25325,0 37.25325,-52.68405 0,-52.68405 z"/>
</svg>
