<?xml version="1.0" ?>
<svg xmlns="http://www.w3.org/2000/svg" width="500" height="1000">
<path d="m 113.12022,279.66203 c -0.30248,-10.88874 -1.1618,-21.83182 -0.4279,-32.72459 0.24808,-3.68191 0.80272,-7.33672 1.20408,-11.00508 5.79121,-27.82246 19.87275,-52.32067 39.22674,-73.01715 4.93044,-5.27245 10.41783,-9.99502 15.62675,-14.99253 5.70967,-4.35634 11.1639,-9.06956 17.12899,-13.06903 21.86333,-14.65891 47.91021,-25.07584 74.59787,-24.70201 5.48875,0.0769 10.89885,1.32075 16.34827,1.98112 12.10935,4.99158 15.76943,5.15658 25.40693,14.55865 13.21708,12.89418 21.57347,32.0548 26.15754,49.60161 1.9887,7.61235 2.86588,15.47249 4.29883,23.20873 5.18687,50.14491 -2.92868,100.22118 -16.88167,148.35853 -3.20401,11.05374 -7.02322,21.9198 -10.53483,32.8797 -20.16418,56.82815 -50.01251,109.45206 -82.15656,160.24039 -6.2656,9.8998 -12.76544,19.64939 -19.14817,29.47409 -28.34844,41.62643 -57.52445,82.837 -89.70169,121.62621 -4.46642,5.38421 -9.12173,10.60888 -13.6826,15.91332 -9.129012,10.22165 -18.598746,20.15164 -28.561977,29.56585 -2.710402,2.56105 -6.410841,6.49646 -9.896099,8.31994 17.572971,-11.69624 27.207897,3.12616 37.336289,17.42398 1.291547,1.82322 -0.17313,6.78892 -0.01879,9.69779 0.111064,0.15203 0.145139,0.46528 0.333191,0.45609 0.590456,-0.0289 1.123696,-0.3677 1.684486,-0.55473 1.10817,-0.36956 2.18708,-0.8399 3.32239,-1.11502 1.34218,-0.32527 2.71279,-0.54171 4.08683,-0.6805 5.57185,-0.5628 6.86555,-0.22482 12.8153,0.1127 17.4163,1.88442 34.49407,5.8535 51.64973,9.24856 18.47173,3.65552 19.22055,3.66734 38.11706,6.94417 33.83604,5.78273 68.12348,8.16818 102.43025,7.75112 6.4845,-0.0788 12.96469,-0.3697 19.44704,-0.55455 18.4109,-0.78929 36.72435,-2.96397 54.77798,-6.6605 11.7667,-2.40926 17.347,-4.11098 28.57741,-7.18148 35.92097,-9.87362 21.95755,-60.67355 -13.96342,-50.79992 v 0 c -9.36829,2.59111 -14.29877,4.09842 -24.05534,6.15023 -15.43993,3.24702 -31.11384,5.13186 -46.87556,5.8301 -5.91502,0.17744 -11.82792,0.45277 -17.74507,0.53232 -31.34945,0.42144 -62.68124,-1.67908 -93.60233,-6.97851 -17.9252,-3.10067 -18.93746,-3.16217 -36.51708,-6.64151 -20.17038,-3.99211 -40.26994,-8.69038 -60.82406,-10.30504 -11.61827,-0.13313 -15.6319,-0.79634 -26.960735,1.42906 -11.138228,2.18796 -22.217702,6.72161 -31.120903,13.88021 -2.804054,2.2546 -5.153255,5.02271 -7.729883,7.53407 -3.397753,5.06126 -7.278087,9.7164 -8.653526,15.85855 -0.952746,4.25459 -3.404565,9.13448 -1.397504,13.00499 4.807287,9.27062 11.47189,18.39907 20.448869,23.73462 7.95526,4.72829 17.317574,-1.1174 24.053398,-4.54501 18.497954,-13.14052 33.387574,-30.68632 48.812114,-47.13552 4.92152,-5.73835 9.94115,-11.39398 14.76454,-17.21505 33.2926,-40.17884 63.51624,-82.83324 92.83517,-125.95416 6.60514,-10.17626 13.33275,-20.27407 19.81542,-30.52878 34.40306,-54.42097 66.11624,-110.91777 87.49554,-171.86554 3.7896,-11.92595 7.92038,-23.7488 11.36881,-35.77784 12.92173,-45.07438 21.36898,-91.93974 20.07232,-138.99466 -0.30179,-10.95145 -1.69794,-21.84534 -2.54691,-32.76801 -5.43014,-25.91427 -5.75893,-35.57243 -17.3105,-59.42415 -12.96275,-26.76555 -31.86816,-49.028366 -59.23759,-61.784856 -8.29421,-3.86581 -17.43829,-5.555123 -26.15744,-8.332684 -8.78394,-0.649273 -17.54553,-2.116379 -26.35182,-1.947821 -36.53137,0.699235 -71.96366,14.926977 -101.70336,35.495929 -7.53272,5.209874 -14.40746,11.312092 -21.61119,16.968142 -6.54145,6.45017 -13.4525,12.54583 -19.62434,19.35051 -21.44917,23.64851 -38.202508,51.73038 -46.845944,82.56652 -1.704786,6.08196 -2.68968,12.34308 -4.034521,18.51463 -0.487643,5.10021 -1.146012,10.18698 -1.462928,15.30064 -0.695763,11.22659 -0.0051,22.52228 0.418049,33.74316 0,37.25325 52.684054,37.25325 52.684054,0 z"/>
</svg>
