<?xml version="1.0" ?>
<svg xmlns="http://www.w3.org/2000/svg" width="500" height="1000">
<path d="m 399.12562,105.77473 c -6.2339,-14.579627 -15.92729,-27.54952 -28.5122,-37.296334 -3.82814,-2.964835 -8.03862,-5.400028 -12.05793,-8.100041 -4.75424,-2.257346 -9.36404,-4.848183 -14.26274,-6.772038 -16.00335,-6.284962 -33.59368,-9.436864 -50.76879,-9.482795 -17.28455,-0.04622 -22.07619,1.627671 -39.12505,4.70078 -26.90006,6.473954 -52.05871,18.212478 -74.54637,34.310005 -15.76105,11.282361 -19.14559,15.412756 -33.29297,28.795473 -28.55072,29.70883 -51.519299,64.33135 -69.037999,101.58094 -3.736872,7.94562 -6.974238,16.11671 -10.461357,24.17507 -12.720568,32.08254 -21.680641,65.5418 -26.434568,99.72969 -2.943554,21.16858 -2.848585,27.53542 -3.992677,48.69421 -1.507998,44.82239 5.311832,89.23619 12.281473,133.35436 4.423914,29.04022 12.134538,57.40467 21.900092,85.07458 4.517499,12.79997 10.120844,26.93062 15.04545,39.60025 12.013663,30.54217 26.960346,60.10754 46.376816,86.66191 3.58261,4.89966 7.49829,9.54688 11.24744,14.32032 14.64535,16.35625 31.26016,31.62976 50.82236,41.97399 12.96064,6.85341 16.54196,7.29219 30.40487,11.65186 5.21474,0.98147 10.3772,2.29988 15.6442,2.9444 21.39092,2.61756 43.8514,0.18337 64.43805,-6.01746 5.16747,-1.55647 10.16255,-3.6365 15.24383,-5.45475 20.79641,-8.79052 40.11692,-20.72718 56.33988,-36.53018 10.82488,-10.54466 14.19215,-15.77922 23.42329,-27.72756 19.39328,-27.04037 33.69675,-57.3193 45.09894,-88.49103 2.66306,-7.28036 5.00806,-14.67316 7.51208,-22.00974 10.19502,-32.56146 16.05409,-66.27098 19.57343,-100.15784 2.19759,-21.15999 2.54035,-31.26542 3.76763,-52.47136 1.77231,-44.16834 2.85426,-88.56442 -1.81713,-132.60652 -0.91844,-8.6591 -2.27578,-17.266 -3.41368,-25.899 -1.56877,-8.16648 -2.87961,-16.38675 -4.70633,-24.49942 -6.28909,-27.93045 -15.6792,-57.60094 -31.14593,-81.91682 -3.62094,-5.69262 -7.96632,-10.89064 -11.94947,-16.33595 -4.4974,-4.64232 -8.61239,-9.68843 -13.4922,-13.92697 -15.33056,-13.31589 -34.46825,-22.93788 -54.64503,-26.08174 -19.95516,-3.10933 -25.04649,-0.76985 -44.8674,2.22794 -7.41033,2.6275 -15.09529,4.58121 -22.23099,7.8825 -31.65264,14.64391 -57.1127,41.15115 -75.50843,70.3046 -4.85904,7.70058 -8.77676,15.95635 -13.16514,23.93453 -3.31149,8.28996 -7.23436,16.36113 -9.93446,24.86988 -7.98636,25.16717 -10.76152,52.58202 -6.28705,78.72424 4.10378,23.97645 7.88462,27.94465 18.31988,49.51852 4.27109,6.36474 8.54218,12.72948 12.81328,19.09423 21.06517,30.7256 64.51774,0.93494 43.45257,-29.79066 v 0 c -3.09068,-4.37312 -6.18136,-8.74623 -9.27204,-13.11934 -6.9774,-12.79951 -9.83848,-15.83284 -12.84472,-30.45841 -3.69384,-17.97077 -2.30283,-37.27685 2.88789,-54.79144 1.92252,-6.48695 4.801,-12.65135 7.20151,-18.97703 3.27612,-6.18813 6.19113,-12.58138 9.82838,-18.5644 12.35898,-20.32968 29.751,-40.2189 51.08199,-51.44331 4.06377,-2.13837 8.48121,-3.52367 12.72181,-5.28551 9.17727,-2.00202 13.83267,-3.80553 23.15994,-2.9818 10.66916,0.94225 21.59747,5.41403 29.94034,12.09579 3.13072,2.50739 5.77878,5.56412 8.66817,8.34618 7.84651,10.11673 9.75331,11.58429 15.64397,23.49886 11.55005,23.36141 17.39607,49.18418 22.1061,74.62745 1.04301,7.75014 2.28772,15.47579 3.12904,23.25041 4.50187,41.60173 3.3465,83.55334 1.72795,125.27905 -0.47084,8.2463 -0.83058,16.49969 -1.4125,24.73889 -2.71819,38.486 -7.80986,76.98141 -19.21031,113.9527 -2.23637,6.60336 -4.33119,13.25636 -6.70911,19.81008 -9.63905,26.56596 -21.5555,52.49916 -37.88109,75.66013 -6.40243,8.49764 -9.26217,12.90794 -16.62275,20.39333 -11.24063,11.43126 -24.85668,19.93807 -39.4551,26.40615 -3.36305,1.28499 -6.66425,2.74531 -10.08916,3.85497 -13.14482,4.25892 -28.46496,6.42229 -42.27916,5.18278 -3.21349,-0.28833 -6.3752,-0.9976 -9.5628,-1.49641 -7.45024,-2.09572 -11.42847,-2.82267 -18.35056,-6.28813 -14.1644,-7.09123 -26.10562,-18.10246 -36.78107,-29.58785 -3.02359,-3.78755 -6.19075,-7.46481 -9.07077,-11.36264 -17.16282,-23.22822 -30.23808,-49.21434 -40.76877,-76.02575 -7.19438,-18.4943 -14.57068,-36.94831 -20.4965,-55.90314 -4.21376,-13.47852 -7.04832,-24.38138 -9.90943,-38.21304 -1.35168,-6.53447 -2.4028,-13.12752 -3.6042,-19.69127 -6.404269,-40.48754 -12.869746,-81.23223 -11.707601,-122.36961 0.941044,-18.60486 0.839683,-24.19851 3.349614,-42.80068 4.048312,-30.00379 11.804387,-59.37281 22.858137,-87.55423 3.01961,-7.0597 5.82085,-14.21684 9.05883,-21.17908 14.84274,-31.91456 34.23969,-61.69196 58.43562,-87.30526 4.22725,-4.08669 8.27938,-8.36266 12.68175,-12.26007 19.76518,-17.49803 42.99627,-30.52151 68.58317,-37.18277 11.0506,-2.244311 15.10184,-3.600236 26.21672,-3.869838 13.5708,-0.329173 27.15459,2.350888 39.52155,7.903658 2.06425,1.23342 4.20561,2.3461 6.19275,3.70026 5.75775,3.92367 9.75186,9.15893 13.31451,15.02342 12.42329,35.12075 62.09152,17.55157 49.66823,-17.56917 z"/>
</svg>
