<?xml version="1.0" ?>
<svg xmlns="http://www.w3.org/2000/svg" width="500" height="1000">
<path d="m 56.597251,119.98395 c 0,10.0614 0,20.1228 0,30.18419 0,16.08051 0,32.16103 0,48.24154 0,19.90893 0,39.81785 0,59.72678 0,24.58153 0,49.16306 0,73.7446 0,29.0303 0,58.0606 0,87.09091 0,30.29911 0,60.59822 0,90.89732 0,27.98153 0,55.96305 0,83.94457 0,23.55248 0,47.10496 0,70.65744 0,18.37673 0,36.75346 0,55.13019 0,11.23665 0,22.47331 0,33.70997 0,5.57074 0,11.14148 0,16.71222 0,53.033 74.999999,53.033 74.999999,0 v 0 c 0,-5.57074 0,-11.14148 0,-16.71222 0,-11.23666 0,-22.47332 0,-33.70997 0,-18.37673 0,-36.75346 0,-55.13019 0,-23.55248 0,-47.10496 0,-70.65744 0,-27.98152 0,-55.96304 0,-83.94457 0,-30.2991 0,-60.59821 0,-90.89732 0,-29.03031 0,-58.06061 0,-87.09091 0,-24.58154 0,-49.16307 0,-73.7446 0,-19.90893 0,-39.81785 0,-59.72678 0,-16.08051 0,-32.16103 0,-48.24154 0,-10.06139 0,-20.12279 0,-30.18419 0,-53.033006 -74.999999,-53.033006 -74.999999,0 z"/>
<path d="m 87.854774,158.37514 c 3.958971,2.54049 6.578307,6.80001 9.329596,10.49422 7.92446,11.29042 16.57154,22.08752 24.15789,33.61591 4.57482,6.95201 5.65203,9.24759 9.65512,16.5206 11.1974,22.82323 23.3299,45.18527 34.18089,68.17556 1.4534,3.49886 2.99689,6.96164 4.36019,10.49657 2.64346,6.85431 5.39722,15.48676 7.66416,22.41399 4.27459,13.06218 8.57247,26.11333 12.94296,39.14388 7.88222,23.07152 16.37444,45.92039 23.9281,69.10406 2.05375,6.19897 3.83794,12.4781 5.52131,18.78527 13.76941,51.21429 86.19735,31.7414 72.42794,-19.47289 v 0 c -2.04628,-7.5696 -4.17627,-15.11608 -6.64389,-22.56201 -7.62888,-23.38147 -16.1367,-46.44809 -24.12709,-69.70571 -3.80849,-11.35308 -4.86581,-14.44329 -8.59342,-25.80043 -6.0238,-18.35306 -11.60075,-36.91848 -19.69742,-54.50392 -2.08164,-4.38284 -4.1026,-8.79502 -6.24494,-13.14851 -3.51329,-7.13945 -8.74536,-16.96491 -12.38866,-24.11387 -11.32442,-22.22103 -0.41425,-1.13794 -11.76845,-23.58952 -1.98351,-3.92217 -4.02754,-7.81344 -6.04131,-11.72015 -6.04815,-10.76546 -6.80117,-12.56531 -13.60388,-22.8474 -8.41033,-12.71196 -17.90268,-24.6803 -26.73055,-37.09612 -5.84642,-7.27597 -8.1834,-10.75233 -15.0757,-17.07782 C 131.04939,96.255788 119.16154,89.31304 106.00668,85.6049 54.550348,72.769563 36.398441,145.53981 87.854774,158.37514 Z"/>
<path d="m 391.18827,108.67486 c 0.0888,-0.3262 0.57755,-1.11114 0.26652,-0.97861 -0.63226,0.26939 -0.98579,0.96001 -1.43782,1.47768 -1.41994,1.62617 -2.82863,3.26369 -4.1755,4.95088 -2.18925,2.74243 -4.39766,5.47472 -6.43047,8.33504 -5.66438,7.97017 -8.22796,12.59731 -13.20058,20.89068 -10.56165,18.20523 -23.63058,34.82006 -33.90361,53.20265 -2.42514,4.33954 -4.60025,8.81414 -6.90037,13.22122 -1.97458,4.07319 -3.92941,8.15601 -5.92375,12.21957 -5.20391,10.60316 -5.96673,12.12654 -11.64581,22.5801 -3.99553,7.35463 -9.86304,17.6339 -13.62141,25.03066 -2.41648,4.75584 -4.63391,9.61022 -6.95087,14.41533 -7.89971,17.79789 -14.32692,36.19806 -22.42537,53.91116 -3.79852,8.3082 -7.52709,15.5774 -11.61518,23.74509 -8.10963,16.17071 -15.35788,32.79943 -20.54902,50.15197 -2.69889,9.02165 -3.55554,13.4019 -5.62469,22.42946 -2.65995,11.69409 -4.62335,23.57576 -8.0302,35.08963 -0.10245,0.2424 -0.20491,0.48479 -0.30737,0.72719 -17.37624,50.10556 53.48371,74.67927 70.85995,24.57371 v 0 c 0.50142,-1.49892 1.00284,-2.99784 1.50426,-4.49676 3.68886,-12.94734 6.34654,-26.14518 9.11747,-39.31248 1.40152,-6.27555 2.10979,-9.8873 3.88953,-16.08124 3.94726,-13.7375 9.85121,-26.78704 16.22582,-39.54788 5.04438,-10.10353 8.56128,-16.92751 13.2693,-27.28153 7.696,-16.92526 14.06058,-34.39193 21.32163,-51.49917 1.79939,-3.78549 3.50277,-7.61812 5.39817,-11.35646 3.52831,-6.95894 10.08783,-18.50398 13.73656,-25.24605 6.14892,-11.36187 7.44449,-13.91317 12.96567,-25.1791 1.7062,-3.48149 3.36844,-6.98435 5.05266,-10.47653 4.55761,-8.97526 4.8285,-9.99411 10.25565,-18.66559 9.21374,-14.72171 19.69618,-28.64109 28.31695,-43.74164 1.68486,-2.84589 6.18493,-10.60385 8.32875,-13.70251 6.48849,-9.37841 15.2699,-17.13813 20.16971,-27.61195 22.46798,-48.038422 -45.46861,-79.812939 -67.93658,-31.77452 z"/>
<path d="m 388.20206,122.66183 c 0,10.45207 0,20.90414 0,31.35621 0,15.06984 0,30.13968 0,45.20953 0,18.93141 0,37.86282 0,56.79423 0,20.58462 0,41.16924 0,61.75387 0.0323,20.62882 -0.0778,41.25806 0.079,61.88643 0.21857,20.74152 0.38751,41.48306 0.68859,62.22357 0.21783,20.02232 0.61771,40.04184 0.8935,60.06335 0.34622,17.79131 0.97612,35.57473 1.30269,53.36667 0.25357,16.36212 0.28025,32.7265 0.29977,49.09021 0.0103,16.77027 0.002,33.54054 -9.8e-4,50.31081 0.0582,14.70269 -0.38791,29.40011 -0.39911,44.10231 0.0587,10.70488 0.23365,21.40858 0.32314,32.1132 0.0606,8.37215 0.0674,16.74455 0.0725,25.11688 0.002,5.26492 8.6e-4,10.52985 -3.7e-4,15.79477 -4.1e-4,1.59427 -6.4e-4,3.18855 -8.6e-4,4.78282 -0.007,53.03301 74.99265,53.0434 75,0.0104 v 0 c 2.2e-4,-1.59189 4.5e-4,-3.18377 8.6e-4,-4.77566 0.001,-5.286 0.003,-10.57199 3.5e-4,-15.85798 -0.005,-8.56662 -0.0126,-17.13331 -0.0751,-25.69973 -0.0881,-10.48777 -0.25533,-20.97465 -0.32052,-31.46262 -0.004,-14.70429 0.48358,-29.40405 0.39912,-44.10907 0.003,-16.80526 0.0113,-33.61053 9.2e-4,-50.41579 -0.0201,-16.79426 -0.049,-33.58922 -0.31243,-50.38181 -0.32669,-17.67607 -0.93864,-35.34401 -1.2971,-53.01915 -0.27644,-20.03986 -0.67599,-40.07773 -0.89427,-60.11841 -0.29871,-20.5703 -0.4655,-41.14164 -0.68292,-61.71294 -0.15986,-20.4356 -0.0399,-40.87219 -0.0768,-61.30825 0,-20.58463 0,-41.16925 0,-61.75387 0,-18.93141 0,-37.86282 0,-56.79423 0,-15.06985 0,-30.13969 0,-45.20953 0,-10.45207 0,-20.90414 0,-31.35621 0,-53.033012 -75,-53.033012 -75,0 z"/>
</svg>
