<?xml version="1.0" ?>
<svg xmlns="http://www.w3.org/2000/svg" width="500" height="1000">
<path d="m 10.710673,122.22737 c -0.06502,-0.0956 -0.181189,-0.40168 -0.195066,-0.28688 -0.17315,1.4325 0.382652,2.8604 0.561571,4.29219 0.534976,4.28112 0.829854,8.57763 1.117161,12.88059 0.480521,8.88463 0.589585,17.78216 0.895373,26.67359 0.653597,11.13434 1.303088,22.26859 1.925352,33.40522 0.63328,12.4925 1.167214,24.98971 1.518615,37.49347 0.256549,13.82055 0.409737,27.64041 0.887363,41.45587 0.375108,14.99921 1.640731,29.95128 2.931924,44.89287 1.330488,15.77288 3.081709,31.50478 4.767109,47.2423 1.541241,16.11931 3.688641,32.16532 6.171218,48.16364 2.861835,16.56436 5.324932,33.18611 7.354161,49.87216 1.920204,19.02603 3.496475,38.05622 6.777544,56.90659 3.511646,17.21294 8.046433,34.18652 11.436421,51.42534 2.349742,12.55943 4.3553,25.21837 7.912771,37.51431 2.688061,9.29094 3.584554,10.95725 7.116673,19.93613 7.208884,15.41472 13.725841,31.1232 20.408348,46.76794 6.220563,13.29941 12.344139,26.65712 18.968629,39.76185 8.04516,15.02971 19.45735,27.68482 31.62828,39.44821 8.05152,6.86855 15.13182,14.83213 23.36392,21.49416 2.03033,1.64309 4.16187,3.15704 6.2428,4.73556 9.43007,6.41445 19.16665,12.58636 29.79456,16.84344 2.10653,0.84379 4.27296,1.52958 6.40944,2.29437 10.71007,3.49844 21.74066,5.63244 32.89408,7.06442 12.66835,1.85339 25.34917,1.15523 37.92174,-0.924 12.8945,-2.62739 24.95391,-8.09283 36.62379,-14.01571 13.63541,-7.13847 25.04788,-17.38317 36.20058,-27.80966 7.86287,-7.16088 15.9812,-14.05711 23.37209,-21.71946 5.4378,-5.63753 6.48444,-7.10131 11.49196,-13.08487 9.39591,-11.66734 18.03382,-24.065 24.23007,-37.76053 1.45839,-3.22348 2.67961,-6.54909 4.01942,-9.82363 1.11773,-3.30547 2.2966,-6.59088 3.3532,-9.91639 2.07354,-6.52623 3.59489,-12.4637 5.54984,-19.01835 2.81455,-9.43675 6.0473,-18.72826 9.25664,-28.03544 6.62689,-19.20862 12.65569,-38.66694 16.65536,-58.61234 0.87725,-4.37465 1.57105,-8.78409 2.35657,-13.17614 3.94982,-26.00907 5.86678,-52.26704 8.57938,-78.42108 2.69084,-24.75307 5.70338,-49.47048 8.25455,-74.23858 1.82063,-21.51635 3.3634,-43.05919 4.72349,-64.60966 1.47993,-21.57364 2.02794,-43.19179 2.34669,-64.80861 0.24377,-21.43026 0.22872,-42.8623 0.22875,-64.29361 -0.006,-19.21089 -0.0161,-38.42178 -0.0216,-57.63268 -0.0753,-12.89555 0.24085,-25.79498 -0.36919,-38.68018 -0.31428,-5.59934 -0.8389,-11.18406 -1.18232,-16.781302 -0.0164,-0.330124 -0.0328,-0.660248 -0.0491,-0.990371 -1.90412,-37.204556 -54.5193,-34.511733 -52.61519,2.692823 v 0 c 0.0271,0.51921 0.0542,1.03842 0.0813,1.55763 0.33625,5.38111 0.81256,10.7522 1.14616,16.13356 0.63578,12.01515 0.13967,24.05743 0.30439,36.08292 0.005,19.20585 0.0154,38.4117 0.0216,57.61756 -1e-5,21.17349 0.0154,42.34769 -0.22307,63.52017 -0.30361,20.76967 -0.82225,41.54094 -2.24809,62.26896 -1.31206,20.85721 -2.81673,41.70574 -4.55123,62.53188 -2.54295,24.75589 -5.57347,49.45841 -8.25056,74.19992 -2.57739,24.90006 -4.43534,49.89222 -8.05414,74.67167 -0.63621,3.64342 -1.19151,7.30191 -1.90865,10.93028 -3.55861,18.00479 -9.05693,35.5414 -15.03335,52.86928 -3.50872,10.18376 -7.0104,20.35611 -10.09101,30.6801 -1.74085,5.83411 -3.1035,11.09717 -4.8898,16.88803 -0.72054,2.33583 -1.51584,4.64794 -2.27376,6.97191 -2.13985,5.52462 -2.40028,6.67204 -5.13035,11.87452 -4.06553,7.74735 -9.31518,14.79657 -14.73377,21.63408 -3.40448,4.13674 -4.3985,5.49787 -8.11292,9.39115 -6.97987,7.31599 -14.80779,13.74589 -22.21805,20.60686 -7.57241,7.0836 -15.07104,14.34917 -24.23233,19.39805 -6.92596,3.59574 -14.07778,6.96666 -21.63449,9.00235 -7.40222,1.42141 -14.84894,1.66167 -22.32852,0.55559 -7.53012,-0.91585 -14.95442,-2.32182 -22.21327,-4.57222 -7.95831,-2.55001 -15.05438,-6.96439 -21.96618,-11.59803 -8.94179,-6.44333 -16.24294,-14.77259 -24.56828,-21.95781 -7.96955,-7.61658 -15.6554,-15.67576 -21.16553,-25.31038 -6.14195,-12.05914 -11.70078,-24.41239 -17.50893,-36.63396 -6.52273,-15.25442 -12.82248,-30.60093 -19.926,-45.60076 -2.3981,-5.87743 -3.22972,-7.50534 -5.04887,-13.63036 -3.35126,-11.28361 -4.98195,-22.97468 -7.22485,-34.50205 C 105.19034,549.54689 100.91715,532.8864 97.305551,516.0642 94.090358,498.15522 92.93947,480.00841 90.942523,461.93854 88.834986,444.68112 86.315853,427.48412 83.350784,410.35205 80.990202,395.1778 78.960946,379.95695 77.504576,364.66649 75.85741,349.2861 74.142145,333.91158 72.841245,318.49669 71.626851,304.455 70.417722,290.40442 70.07318,276.30794 69.592384,262.6086 69.467933,248.90415 69.196779,235.19989 68.829006,222.20973 68.27858,209.22609 67.616774,196.2477 67.013404,185.48876 66.404702,174.73087 65.742626,163.97579 65.416556,154.49744 65.3121,145.0116 64.75722,135.54216 64.03202,125.01536 63.327166,114.32693 60.209874,104.18746 47.45373,69.18624 -2.0454705,87.22615 10.710673,122.22737 Z"/>
</svg>
