<?xml version="1.0" ?>
<svg xmlns="http://www.w3.org/2000/svg" width="500" height="1000">
<path d="m 39.528937,827.22523 c 4.162373,0 8.324746,0 12.48712,0 7.577587,0.24486 15.143923,0.70989 22.718744,1.01973 13.705721,0.0622 27.405569,0.26067 41.106429,0.6404 16.877,0.2213 33.75375,0.0879 50.63103,0.29795 17.85083,0.54724 35.62502,-1.18096 53.40833,-2.36456 17.09057,-0.96226 34.19549,-1.61629 51.31312,-1.71507 17.01452,0.0239 34.02717,0.2078 51.03696,0.59978 16.29584,0.61629 32.58616,0.43477 48.85749,-0.59968 10.59924,-0.73859 21.22106,-0.98358 31.84214,-1.11425 7.21934,-0.0582 14.42839,0.0806 21.62923,-0.49064 4.92726,-0.433 9.69158,-1.77573 14.53404,-2.68432 2.6665,-0.31395 -1.34002,0.0882 -2.22284,0.0937 37.168,2.51877 40.73009,-50.04473 3.56208,-52.5635 v 0 c -3.79348,-0.15863 -7.58744,-0.0741 -11.31347,0.73851 -3.08284,0.60235 -6.1366,1.33077 -9.21688,1.93777 -5.83202,0.70198 -11.77318,-0.0823 -17.62574,0.28845 -11.53587,0.14424 -23.07215,0.42203 -34.58441,1.21975 -14.73597,0.96981 -29.48989,1.05365 -44.24864,0.5041 -17.52403,-0.40333 -35.05113,-0.59332 -52.58004,-0.61272 -18.18086,0.12202 -36.34937,0.78623 -54.50086,1.83161 -16.39409,1.10256 -32.77876,2.74857 -49.2363,2.25105 -16.60899,-0.20583 -33.21716,-0.0939 -49.82607,-0.2818 -13.47443,-0.37323 -26.948497,-0.61118 -40.428415,-0.61725 -8.286538,-0.3336 -16.563278,-0.88206 -24.855928,-1.06309 -4.162374,0 -8.324747,0 -12.48712,0 -37.2532503,0 -37.2532503,52.68405 0,52.68405 z"/>
</svg>
