<?xml version="1.0" ?>
<svg xmlns="http://www.w3.org/2000/svg" width="500" height="1000">
<path d="m 31.960509,83.279393 c 6.772026,12.451428 12.408721,25.461877 18.250277,38.365547 15.891745,32.59319 32.181915,64.9879 48.089636,97.57561 21.160268,42.21759 44.112368,83.49686 68.149588,124.13402 25.98674,42.99792 51.23903,86.42735 76.44617,129.8841 15.57409,26.63823 31.55168,53.04181 46.59762,79.98572 5.77424,10.34037 14.5322,26.50907 20.20616,36.94012 11.71834,22.1583 23.92147,44.07796 35.04481,66.54725 5.79097,11.69782 8.00101,16.83652 13.31916,28.57867 9.70519,22.43275 19.45719,44.8454 29.15652,67.28069 4.68714,10.96092 9.12609,22.01905 13.20683,33.21836 0.24321,0.69657 0.48641,1.39314 0.72962,2.08971 12.31292,35.15959 62.03609,17.74649 49.72316,-17.4131 v 0 c -0.31748,-0.90447 -0.63496,-1.80894 -0.95244,-2.71341 -4.43343,-12.16707 -9.25476,-24.18187 -14.34911,-36.08868 -9.82246,-22.71852 -19.69171,-45.41697 -29.53168,-68.12788 -5.87767,-12.95183 -7.96945,-17.84209 -14.38281,-30.7867 C 380.33061,609.87428 367.9182,587.5486 355.97995,564.98969 350.02141,554.03621 341.37838,538.07656 335.32774,527.24635 320.19087,500.1524 304.14025,473.58863 288.46849,446.80434 263.18496,403.21608 237.85636,359.65505 211.79167,316.52655 188.46044,277.10703 166.19876,237.05564 145.64472,196.10938 129.96053,163.97958 113.92689,132.02672 98.205757,99.917256 91.522245,85.153911 85.031167,70.287183 77.109751,56.12879 57.911376,24.203455 12.762134,51.354058 31.960509,83.279393 Z"/>
<path d="m 396.31948,53.102379 c -9.22462,15.277783 -19.07758,30.16173 -28.76064,45.150229 -18.62748,30.004042 -35.08056,61.276662 -52.61459,91.920042 -19.34319,34.48886 -38.13209,69.2883 -56.98232,104.04875 -18.30943,34.4616 -34.53651,69.96395 -51.79284,104.95408 -17.58255,35.84192 -34.62518,71.94371 -51.61524,108.06899 -15.75072,33.37762 -28.95141,67.87358 -41.58584,102.52564 -9.28599,28.58983 -21.408774,56.09232 -32.583172,83.95634 -7.50786,19.6818 -13.989595,39.72832 -21.711375,59.32998 -2.512679,6.41087 -5.071528,12.80127 -7.970749,19.04783 -15.589981,33.83426 32.258888,55.88183 47.848869,22.04757 v 0 c 3.287787,-7.17214 6.302827,-14.45829 9.151777,-21.81643 7.6571,-19.50523 14.22222,-39.39892 21.5856,-59.01314 11.36392,-28.38566 23.71592,-56.3954 33.17816,-85.51199 12.08305,-33.16842 24.69507,-66.1948 39.76144,-98.14411 16.85128,-35.83076 33.75374,-71.63868 51.19137,-107.18903 16.95394,-34.38103 32.91038,-69.25782 50.85498,-103.14166 18.65831,-34.40926 37.26001,-68.85486 56.398,-102.99989 7.99468,-13.97491 10.85753,-18.87509 18.64549,-32.90002 10.55965,-19.01634 20.81181,-38.22762 32.49313,-56.59434 9.53511,-14.75957 19.2758,-29.396771 28.31344,-44.469604 20.69647,-30.975159 -23.10902,-60.244397 -43.80549,-29.269237 z"/>
</svg>
