<?xml version="1.0" ?>
<svg xmlns="http://www.w3.org/2000/svg" width="500" height="1000">
<path d="m 90.227376,150.26634 c 1.330911,11.56395 2.723359,23.11805 3.863808,34.70288 1.910515,25.39058 3.115751,50.83064 4.093768,76.27237 0.887543,23.36014 0.955693,46.74818 -0.06919,70.10468 -0.64315,14.65693 -1.433105,25.14881 -2.417215,39.84265 -3.408841,42.58363 -6.439034,85.18758 -8.648953,127.85056 -2.133028,40.68993 -2.831029,81.43197 -3.237197,122.16937 -0.09485,30.40359 -0.609749,60.80303 -0.976827,91.20391 -0.183455,9.67655 -0.270101,19.35557 -0.579408,29.02943 -0.166305,5.20136 -0.317481,10.39407 -0.979541,15.55745 -0.101122,0.346 -0.202244,0.69199 -0.303366,1.03799 -9.780553,52.12332 63.932955,65.95511 73.713505,13.83179 v 0 c 0.37881,-2.21165 0.7576,-4.4233 1.13641,-6.63495 1.77332,-17.24596 1.66417,-34.59838 2.00693,-51.91635 0.36758,-30.45398 0.88338,-60.90651 0.97858,-91.36319 0.39399,-39.69374 1.06379,-79.39231 3.14071,-119.03993 2.18566,-42.28835 5.2146,-84.51586 8.58231,-126.72603 1.05203,-15.78101 1.86951,-26.61668 2.54436,-42.40292 1.0744,-25.13231 1.00711,-50.29749 0.0532,-75.43279 -1.04082,-26.94068 -2.30604,-53.88219 -4.40208,-80.76379 -1.13081,-11.39219 -2.43721,-22.76292 -3.80923,-34.12837 -4.81203,-52.814247 -79.50265,-46.009008 -74.690619,6.80524 z"/>
<path d="m 121.10275,174.4508 c 7.04378,-2.98005 14.36194,-5.2194 21.86433,-6.72805 2.75981,-0.55497 5.54992,-0.9469 8.32488,-1.42034 21.86045,-3.04411 44.06036,-3.28163 66.02971,-1.28897 5.13247,0.46553 10.24005,1.17354 15.36008,1.7603 23.41355,3.1491 46.93706,8.88983 67.5523,20.85089 3.66765,2.12799 7.09508,4.64541 10.64263,6.96811 12.93055,9.39461 25.23511,20.24156 32.96584,34.47894 3.55902,6.55451 4.52303,10.68194 6.80831,17.75963 3.46185,13.93112 5.82282,28.34013 3.51237,42.67066 -1.38079,8.56432 -3.16855,12.54271 -6.01827,20.82689 -1.72784,3.55131 -3.26687,7.20087 -5.18352,10.65394 -9.15517,16.4941 -22.46359,31.83407 -36.32383,44.52394 -3.84475,3.5201 -7.95257,6.74163 -11.92885,10.11244 -21.92501,16.9557 -45.85663,31.49558 -71.65742,41.77146 -4.77705,1.90259 -9.68566,3.45662 -14.52849,5.18494 -16.17391,5.01339 -32.66907,9.22911 -49.55188,10.93385 -7.244,0.73146 -10.15661,0.68866 -17.26976,0.88344 -8.85933,-0.10428 -4.6826,0.0355 -12.53201,-0.36133 -52.977884,-2.41732 -56.396494,72.50473 -3.41861,74.92205 v 0 c 11.69712,0.49572 5.57448,0.34176 18.36938,0.40027 10.3069,-0.36795 14.2245,-0.32614 24.75636,-1.50142 22.23212,-2.48093 44.00379,-7.91609 65.26018,-14.78615 6.43602,-2.37 12.956,-4.52339 19.30807,-7.10999 32.50504,-13.23622 62.67737,-31.73147 90.15907,-53.46631 5.37178,-4.66622 10.9235,-9.13303 16.11535,-13.99866 20.24222,-18.97039 38.73986,-41.4642 51.41602,-66.24574 3.16397,-6.18547 5.62757,-12.70486 8.44135,-19.0573 5.04607,-16.46358 7.44695,-21.62687 9.43278,-38.88131 2.8172,-24.4781 -0.85992,-48.95378 -7.64545,-72.46956 -5.70723,-15.44154 -6.75785,-20.46584 -15.42705,-34.82905 -13.69946,-22.69741 -33.39237,-40.7683 -54.97182,-55.80287 -5.80168,-3.59004 -11.43195,-7.47315 -17.40504,-10.77013 -28.51159,-15.7376 -60.4424,-24.021195 -92.54395,-28.197145 -6.30671,-0.690896 -12.5988,-1.531634 -18.92013,-2.072687 -27.98228,-2.395046 -56.24248,-1.846703 -84.03169,2.312611 -4.2718,0.789204 -8.56613,1.464939 -12.81539,2.367612 -12.53571,2.662962 -24.74945,6.697379 -36.446159,11.916859 -47.862772,22.83977 -15.562462,90.52795 32.300309,67.68818 z"/>
<path d="m 155.26262,504.28241 c 3.6182,0.67575 6.62056,2.71685 9.84782,4.41393 8.20229,4.31323 6.08616,3.19901 14.2222,7.68675 1.98986,1.19883 4.03319,2.31307 5.96958,3.59648 3.27176,2.16848 7.16582,5.51114 10.05826,7.99513 3.17305,2.72499 11.00352,9.56028 13.9242,12.54434 1.66835,1.70454 3.11306,3.61445 4.66959,5.42168 1.28044,1.86622 2.60486,3.70301 3.84133,5.59865 3.56825,5.47052 6.65251,10.80439 9.98739,16.45495 1.5861,2.68746 11.7781,20.00187 13.24345,22.61951 2.00801,3.58702 3.88119,7.24786 5.82179,10.87179 1.71564,3.56894 3.44993,7.12897 5.14691,10.70681 5.46199,11.51585 6.37863,13.99398 12.43968,25.7872 6.91664,13.45799 7.34296,13.48022 14.34953,26.43848 2.04048,3.77376 4.00087,7.59028 6.0013,11.38542 8.02299,17.60437 19.34197,33.07809 30.40508,48.81158 7.32867,10.42254 6.00648,8.55727 12.85271,18.59033 11.8999,17.67297 25.72276,33.92215 39.25302,50.34347 33.72387,40.92922 91.60652,-6.76354 57.88265,-47.69275 v 0 c -12.09699,-14.6814 -24.52776,-29.15707 -35.19405,-44.93826 -7.22116,-10.57258 -5.96483,-8.80884 -13.54566,-19.5879 -2.45419,-3.48956 -4.92869,-6.96479 -7.38815,-10.45063 -2.06722,-2.92992 -4.23703,-5.79058 -6.19186,-8.79665 -5.32857,-8.19409 -7.08949,-12.24678 -11.74625,-21.28867 -2.23476,-4.22867 -4.42987,-8.47854 -6.70427,-12.68603 -5.67903,-10.50578 -7.29413,-12.80691 -12.76142,-23.40695 -6.09954,-11.82586 -6.3573,-13.08427 -12.14973,-25.19503 -2.16671,-4.53015 -4.39734,-9.02946 -6.59601,-13.54418 -2.36006,-4.37278 -4.65199,-8.78302 -7.08018,-13.11834 -1.41723,-2.53035 -12.05789,-20.62196 -13.58205,-23.19449 -4.16897,-7.03654 -9.16344,-15.6078 -13.86012,-22.3206 -2.76551,-3.95266 -5.7931,-7.71532 -8.68966,-11.57299 -3.16717,-3.43887 -6.20916,-6.9974 -9.5015,-10.31663 -2.72046,-2.74269 -5.64303,-5.27814 -8.52192,-7.85403 -11.20998,-10.03014 -22.87774,-19.69546 -36.15516,-26.89885 -14.90459,-8.19616 -29.90466,-17.10998 -46.86121,-20.19906 -52.18132,-9.46624 -65.56861,64.32929 -13.38729,73.79554 z"/>
</svg>
