<?xml version="1.0" ?>
<svg xmlns="http://www.w3.org/2000/svg" width="500" height="1000">
<path d="m 56.561958,70.450872 c -0.527396,11.506319 0.970322,22.910428 4.119055,33.981438 0.946817,3.32903 2.137017,6.58397 3.205525,9.87596 5.09246,14.6668 12.409964,28.40029 18.394218,42.6932 2.788822,6.66088 6.088649,15.78031 8.558622,22.42972 7.335185,20.60188 17.138942,40.16236 26.127602,60.05634 2.47121,5.46936 10.85362,24.74156 13.12958,29.96027 2.47189,5.47337 4.89029,10.97121 7.41568,16.4201 6.45309,13.92354 9.60146,19.95607 16.12705,33.77796 8.04718,17.04478 15.67198,34.28796 23.4566,51.45322 2.8811,6.25346 5.78882,12.49473 8.64329,18.76039 7.27301,15.96451 9.4462,20.82762 16.2019,36.94215 9.20793,21.96387 6.77593,17.01911 16.45715,39.38554 2.91515,6.73485 5.93826,13.42247 8.90739,20.1337 11.36088,24.80899 21.66265,50.08579 33.0767,74.87073 1.53497,3.3331 15.33297,32.46477 17.12784,36.25708 2.51078,5.53053 5.06425,11.04187 7.53234,16.59158 26.99614,60.70307 -13.03116,-28.55559 14.18442,32.43312 6.92008,15.50754 14.23854,30.80227 21.66765,46.07016 2.08384,4.33337 4.19796,8.6523 6.25153,13.0001 3.73646,7.91083 6.48695,13.88564 9.79288,21.88273 3.58657,8.67596 6.78344,17.51964 10.10011,26.30068 4.54113,12.02966 9.73275,23.80373 15.40332,35.3406 0.53487,1.05894 1.06974,2.11789 1.60461,3.17683 0.12602,0.2928 0.50423,1.17113 0.37806,0.8784 -0.35823,-0.83119 -0.71618,-1.6625 -1.07427,-2.49375 16.68802,50.33895 87.87804,26.73852 71.19002,-23.60043 v 0 c -1.43162,-3.78648 -2.81653,-7.56808 -4.81793,-11.10219 -4.62445,-9.36143 -8.82615,-18.93338 -12.52191,-28.70055 -3.72655,-9.86598 -7.35062,-19.78223 -11.40258,-29.52129 -3.73253,-8.97128 -6.8948,-15.84525 -11.06233,-24.66631 -2.10455,-4.45452 -4.27071,-8.87968 -6.40606,-13.31951 -7.00727,-14.39041 -13.91687,-28.80197 -20.44093,-43.42008 -3.38848,-7.59238 -11.35412,-25.91759 -14.56252,-33.27924 -2.62985,-5.90567 -5.35056,-11.77047 -8.02584,-17.65571 -0.81649,-1.72512 -15.67775,-33.11273 -16.51733,-34.93409 -11.3615,-24.64717 -21.58608,-49.798 -32.89708,-74.46817 -2.8079,-6.33887 -5.66836,-12.65472 -8.42368,-19.01662 -9.4865,-21.90385 -7.22828,-17.40398 -16.54909,-39.60174 -7.09154,-16.88869 -9.50234,-22.28545 -17.05725,-38.86935 -2.79228,-6.12939 -5.63764,-12.23446 -8.45646,-18.35169 -8.01054,-17.66298 -15.86948,-35.39816 -24.1494,-52.93753 -5.17228,-10.95646 -10.29492,-21.21578 -15.39117,-32.19847 -2.38987,-5.15031 -4.67769,-10.34737 -7.01653,-15.52105 -3.0867,-7.07702 -10.64113,-24.4602 -13.81412,-31.48334 -8.19334,-18.13529 -17.20744,-35.93321 -23.90009,-54.71228 -3.71723,-9.96942 -6.18387,-16.89896 -10.29417,-26.68845 -5.06619,-12.06614 -11.14831,-23.69319 -15.78107,-35.943277 -1.90115,-5.470934 -4.02244,-10.704555 -3.5766,-16.611543 2.52815,-52.972714 -72.386586,-56.548053 -74.914732,-3.575338 z"/>
</svg>
