<?xml version="1.0" ?>
<svg xmlns="http://www.w3.org/2000/svg" width="500" height="1000">
<path d="m 44.263273,88.874194 c 11.018895,-2.290524 22.214022,-2.170282 33.402642,-1.996151 26.349285,1.033236 52.554715,4.552249 78.564675,8.751675 22.64655,3.86577 45.10089,8.764792 67.6986,12.886732 13.22504,2.41231 22.97262,3.90451 36.22008,6.02971 28.02323,4.24925 56.30271,7.46898 84.67568,7.84558 5.09265,0.0676 10.18569,-0.10071 15.27854,-0.15107 23.03757,-0.82806 45.92377,-4.02562 68.35666,-9.26116 10.47028,-2.67199 20.73046,-6.15673 30.4502,-10.88772 -19.74446,2.70989 -13.91289,5.27707 -33.02512,-12.029388 -1.61195,-1.459653 -0.93525,-5.387561 -2.26636,-4.877842 -6.14043,14.476536 -14.28032,28.00652 -21.73178,41.8321 -16.13267,30.63963 -35.2782,59.54468 -53.85131,88.72841 -23.57777,36.91315 -45.93914,74.57997 -68.78265,111.9475 -22.99166,37.51522 -44.61773,75.84083 -66.54684,113.98016 -20.79178,36.89918 -40.65537,74.30528 -61.33405,111.268 -18.65972,33.906 -37.82265,67.5293 -56.707326,101.30893 -14.349519,25.69467 -28.492804,51.5153 -43.645694,76.74852 -9.462373,15.5073 -19.359713,30.74451 -28.558529,46.41153 -2.937018,5.32295 -9.682282,14.26443 -8.731929,20.17888 1.302589,8.10657 3.939193,16.34355 8.666438,23.05669 2.71649,3.85768 8.259642,4.56315 12.389464,6.84472 12.112655,2.58959 24.593337,2.86553 36.93276,3.28608 19.121276,0.75411 38.214576,2.05256 57.330166,2.96789 23.69159,1.54028 47.41937,2.3752 71.13829,3.36176 26.57767,0.97533 53.15676,1.86982 79.73992,2.67821 24.05598,1.24785 48.12176,1.3879 72.19648,0.84509 17.13123,-0.18055 34.1352,-2.23554 50.9851,-5.18787 9.58382,-1.66727 19.04671,-3.91867 28.09661,-7.50643 6.17706,-2.58238 11.4453,-6.55911 15.89029,-11.5139 24.55853,-28.0122 -15.0567,-62.7432 -39.61523,-34.731 v 0 c 1.27581,-1.12403 2.28865,-2.13049 3.68222,-2.47777 -5.28483,2.63977 -11.57886,2.84168 -17.19224,4.34365 -14.2213,2.52025 -28.57357,4.27818 -43.03969,4.40277 -23.14378,0.52666 -46.27661,0.37659 -69.40229,-0.83425 -26.38718,-0.80231 -52.77031,-1.68997 -79.15208,-2.65705 -23.6088,-0.98167 -47.2262,-1.81359 -70.80779,-3.34698 -19.36475,-0.92707 -38.706612,-2.24923 -58.07802,-2.99837 -5.985205,-0.19849 -11.960569,-0.38882 -17.93088,-0.87345 -1.409002,-0.11438 -2.815311,-0.25983 -4.223228,-0.38686 -0.760827,-0.0687 -1.539655,-0.3763 -2.282992,-0.20017 -0.411662,0.0975 0.788349,0.30727 1.182524,0.46091 12.77782,8.28187 12.868193,5.67148 15.763507,27.06379 0.78988,5.83612 -4.631745,10.85055 -2.410186,7.09601 0.678209,-1.1462 1.406111,-2.26242 2.089699,-3.40542 0.754407,-1.26142 1.482689,-2.53828 2.224033,-3.80742 9.099669,-15.524 18.956487,-30.58371 28.293236,-45.9644 15.412927,-25.70635 29.864007,-51.97118 44.456727,-78.14846 18.87924,-33.77628 38.04347,-67.39255 56.6992,-101.2944 20.57619,-36.7833 40.35658,-73.99919 61.02818,-110.72871 21.69369,-37.73009 43.08327,-75.64707 65.82444,-112.76194 22.67767,-37.09695 44.87601,-74.49142 68.27874,-111.13969 19.25709,-30.25849 39.06523,-60.25136 55.78421,-92.02352 2.07627,-3.85401 4.15255,-7.70802 6.22883,-11.56203 1.92684,-3.49678 3.87632,-6.98117 5.7805,-10.49033 6.28022,-11.57363 12.50876,-23.33257 15.34324,-36.309412 0.69278,-5.595217 1.6579,-9.863296 0.79161,-15.46323 -0.49288,-3.186094 -0.22477,-6.942181 -2.32477,-9.388429 -13.04471,-15.195515 -20.63455,-21.98854 -38.79254,-13.796845 -5.77503,3.37818 -12.69563,4.590594 -18.94546,6.708889 -18.6383,4.473916 -37.71949,6.978283 -56.86514,7.853563 -4.26911,0.05997 -8.53809,0.229284 -12.80734,0.17992 -26.19907,-0.302934 -52.31144,-3.296178 -78.18596,-7.213767 -12.09862,-1.938488 -22.5334,-3.543551 -34.5869,-5.741438 C 210.76869,52.566685 187.78341,47.542443 164.59458,43.613828 136.06129,39.042926 107.31829,35.195531 78.409699,34.199242 64.497399,34.019785 50.544088,34.01856 36.828926,36.717318 -0.05155475,41.974195 7.3827923,94.131071 44.263273,88.874194 Z"/>
</svg>
