<?xml version="1.0" ?>
<svg xmlns="http://www.w3.org/2000/svg" width="500" height="1000">
<path d="m 27.70143,87.434354 c -0.104721,-0.07829 -0.334253,-0.364076 -0.314161,-0.234877 0.158277,1.017787 0.496023,1.999432 0.744035,2.999148 0.282686,1.58193 0.612737,3.156124 0.848057,4.74579 1.327155,8.965355 1.77045,17.995425 2.291196,27.033355 1.211061,31.36819 1.635641,62.75761 2.706916,94.13061 1.362436,38.92521 3.421283,77.82073 5.750057,116.69861 2.778211,40.41547 4.478742,80.8824 5.153435,121.38471 0.267742,38.05998 0.275118,76.12084 0.474382,114.18147 0.353111,31.54002 0.920241,63.08083 1.899213,94.60806 0.762414,22.85936 1.84706,45.70186 3.488726,68.51488 1.054032,14.15041 1.901104,28.31642 1.909738,42.50864 -0.05886,5.94867 -0.01981,3.09349 -0.112167,8.56561 -0.622291,37.24805 52.054413,38.1281 52.676703,0.88005 v 0 c 0.1,-6.03997 0.0579,-2.86795 0.11947,-9.51614 -0.0302,-15.4322 -0.87968,-30.83848 -2.04597,-46.22503 -1.59483,-22.09711 -2.63477,-44.22347 -3.377904,-66.36555 -0.967753,-31.07337 -1.52134,-62.16037 -1.874479,-93.24634 -0.200328,-38.26317 -0.204313,-76.5266 -0.481068,-114.78908 -0.69642,-41.25838 -2.40908,-82.48193 -5.240334,-123.65216 -2.302959,-38.42809 -4.338627,-76.87364 -5.686537,-115.34854 -1.08944,-31.80141 -1.49115,-63.62078 -2.766593,-95.41585 C 82.758832,100.34789 82.034862,81.210542 74.802412,63.831244 58.112493,30.52582 11.011511,54.12893 27.70143,87.434354 Z"/>
<path d="m 56.772814,110.31281 c 0.100254,-0.0667 0.200507,-0.13346 0.300761,-0.20019 0.03994,0.11681 0.0031,0.39049 0.119814,0.35041 0.739244,-0.25378 1.368801,-0.75608 2.069651,-1.10206 1.3236,-0.65339 2.637429,-1.33288 4.002179,-1.89528 5.734329,-2.36306 7.791398,-2.73749 14.144859,-4.57072 21.965608,-5.278671 44.820942,-5.181475 67.172692,-2.70122 6.12425,0.67957 12.20478,1.70774 18.30717,2.56161 32.58876,5.76395 65.46662,13.82786 94.46643,30.37202 5.27871,3.01147 10.1916,6.62317 15.2874,9.93475 4.26179,3.69387 8.81851,7.07268 12.78536,11.08161 14.60732,14.7623 24.44195,34.73735 28.19609,55.11124 0.95875,5.2032 1.08019,10.52631 1.62029,15.78947 -0.46893,5.43084 -0.49448,10.91837 -1.40681,16.29253 -4.44846,26.20421 -18.17411,51.56362 -34.35607,72.3291 -4.61101,5.91707 -9.86057,11.30759 -14.79085,16.96138 -5.6293,5.35963 -11.05924,10.93678 -16.88789,16.07891 -21.59703,19.05325 -46.5201,36.51346 -72.18701,49.64914 -5.11117,2.61577 -10.4101,4.84718 -15.61514,7.27076 -15.29863,6.04839 -30.90571,12.25075 -47.34175,14.38843 -5.41561,0.70436 -8.19079,0.55443 -13.524292,0.56788 -5.686743,-0.27775 -11.511793,-0.60935 -16.816274,-2.82767 11.537669,8.37108 13.534698,7.07752 14.496362,26.83919 0.179864,3.69611 -2.401747,7.04863 -4.242409,10.25885 -4.26879,7.44501 -4.067521,2.09008 -4.116644,4.76048 7.084544,-1.92599 14.343627,-3.36206 21.686897,-3.79125 5.30989,-0.31035 8.91087,-0.0464 14.28372,0.14454 13.02414,0.8717 25.70429,4.47992 37.59873,9.7925 2.52758,1.12893 4.96622,2.44729 7.44934,3.67093 10.28988,5.24774 19.56242,11.98464 27.41395,20.46587 4.94084,5.3371 7.66945,9.14065 12.19142,14.9715 9.87627,12.93573 17.62514,27.30907 23.56417,42.44036 3.90079,9.93835 6.31726,18.01713 9.60955,28.23483 4.8924,15.92358 9.51064,31.93134 13.55866,48.09208 2.75281,10.98995 5.10346,22.07858 7.89474,33.05882 1.47252,5.79252 3.116,11.54023 4.67399,17.31035 7.4549,25.75481 16.63899,51.04892 28.8229,74.96731 1.95214,3.83226 4.08363,7.57049 6.12545,11.35573 8.95916,14.90366 20.20426,28.42432 35.46959,37.2 10.55211,6.06615 13.34784,5.90995 25.24645,9.00145 4.95946,0.30317 9.9114,1.04057 14.87839,0.90951 15.79472,-0.41678 31.32816,-5.23431 45.0418,-12.96387 12.82666,-7.22961 16.81558,-11.63811 28.00064,-21.25111 4.61526,-5.00202 9.23051,-10.00404 13.84577,-15.00606 25.03291,-27.58909 -13.98395,-62.99098 -39.01687,-35.40189 v 0 c -3.1912,3.60158 -6.3824,7.20315 -9.5736,10.80473 -2.91423,2.63801 -5.70895,5.41438 -8.74269,7.91404 -9.46375,7.79771 -20.51397,13.34678 -32.94826,13.57773 -1.32376,-0.13104 -2.67349,-0.10119 -3.97129,-0.39313 -10.1915,-2.2925 -16.5492,-11.30666 -21.91588,-19.50349 -1.67275,-3.0655 -3.42365,-6.08963 -5.01825,-9.19651 -10.76288,-20.97018 -18.80943,-43.18086 -25.39122,-65.78356 -9.12262,-33.58953 -15.94282,-67.80018 -26.85329,-100.90599 -4.00292,-12.33335 -6.57348,-20.97593 -11.41555,-33.01351 -7.73043,-19.21816 -17.78737,-37.43677 -30.38456,-53.90249 -6.40024,-8.13134 -9.78939,-12.86242 -16.99402,-20.31713 -11.94598,-12.36065 -25.8833,-22.36625 -41.21353,-30.11311 -3.64108,-1.73193 -7.22515,-3.5892 -10.92325,-5.19579 -17.57055,-7.63327 -36.33256,-12.40338 -55.47603,-13.48142 -9.10789,-0.22794 -12.34802,-0.5311 -21.46895,0.13527 -12.057472,0.88091 -24.002544,3.38454 -35.462178,7.19588 -6.771,3.0484 -12.676118,4.84269 -17.536524,11.21401 -2.942229,3.85685 -6.317342,8.18574 -6.472805,13.03423 -0.53059,16.54775 4.467616,26.17755 18.469231,32.07952 11.672814,4.34498 23.951541,6.23402 36.409879,6.29659 9.419027,-0.20947 12.623117,-0.01 22.262177,-1.42858 20.88265,-3.07372 40.83181,-10.51888 60.24157,-18.52832 6.29283,-2.98204 12.69622,-5.74115 18.87848,-8.94611 29.39552,-15.23903 58.41204,-35.59268 83.0302,-57.6809 7.02443,-6.30255 13.54859,-13.14135 20.32288,-19.71202 6.11892,-7.20359 12.64311,-14.08169 18.35677,-21.61078 21.74291,-28.65138 38.81222,-62.87528 43.42402,-98.88133 1.09602,-8.55706 0.73766,-17.23816 1.1065,-25.85723 -1.08312,-7.93969 -1.57712,-15.98226 -3.24937,-23.81905 -6.52093,-30.55961 -22.37502,-59.29049 -44.89973,-80.93297 -5.74266,-5.51774 -12.27676,-10.1477 -18.41514,-15.221547 -6.7633,-4.251278 -13.31064,-8.86726 -20.2899,-12.753836 C 246.56533,66.889686 208.2572,57.125071 170.05563,50.560892 c -7.15439,-0.96613 -14.28351,-2.142554 -21.46317,-2.898391 -28.81628,-3.033632 -58.175233,-2.508563 -86.340935,4.776272 -4.127243,1.272417 -8.31133,2.373286 -12.381728,3.817252 -13.833416,4.907379 -27.410548,12.079718 -36.381825,24.022945 -21.2371336,30.60701 22.047709,60.64085 43.284842,30.03384 z"/>
</svg>
