<?xml version="1.0" ?>
<svg xmlns="http://www.w3.org/2000/svg" width="500" height="1000">
<path d="m 118.90136,433.41102 c 15.6315,3.27491 31.65496,3.52428 47.55668,3.88511 24.26744,0.29028 48.51781,-0.825 72.78175,-0.98914 22.25162,-0.25983 44.47973,0.40955 66.69727,1.54981 14.4501,0.8491 28.92697,1.01083 43.398,1.0423 5.87932,0.0396 11.74601,0.0601 17.60569,-0.4432 35.18279,-3.4887 30.24903,-53.24468 -4.93376,-49.75598 v 0 c -4.0876,0.80454 -8.44966,-0.26685 -12.5657,0.1993 -13.65237,-0.0283 -27.31078,-0.16902 -40.94321,-0.97679 -23.18724,-1.18843 -46.38662,-1.87796 -69.60895,-1.61421 -23.77427,0.1723 -47.53486,1.21973 -71.31205,1.00043 -12.50733,-0.27586 -25.11443,-0.32836 -37.45659,-2.62269 -34.453818,-7.93312 -45.672946,40.79194 -11.21913,48.72506 z"/>
<path d="m 401.9041,195.75685 c 0.17702,-9.56383 -0.69052,-19.08975 -2.62838,-28.45843 -0.59651,-2.88385 -1.34671,-5.73377 -2.02007,-8.60065 -4.29557,-19.45622 -14.12648,-36.74555 -23.74498,-53.94438 -5.83866,-10.657129 -11.91358,-21.223878 -19.03612,-31.088099 -4.93525,-6.834973 -6.64809,-8.655674 -12.01194,-15.070573 -8.78965,-9.859376 -17.32407,-20.180571 -27.9965,-28.111026 -2.33764,-1.737047 -4.82732,-3.259521 -7.24098,-4.889281 C 296.92995,19.685275 285.91316,14.51846 274.1896,12.19384 c -2.05691,-0.407857 -4.1465,-0.628856 -6.21975,-0.943284 -11.6865,-0.913108 -22.80469,2.086087 -32.44312,8.816591 -5.99581,4.18686 -8.05402,6.915733 -12.93666,12.141226 -10.23903,12.32742 -17.24661,26.804121 -21.40374,42.239802 -0.9352,3.472435 -1.60971,7.00988 -2.41457,10.51482 -4.68312,23.732645 -3.07642,47.893705 -0.90413,71.788365 2.6471,23.53371 5.17177,47.07465 7.172,70.67303 2.00995,23.74701 3.1299,47.55148 4.19806,71.355 1.06116,26.67892 1.6995,53.37416 1.90907,80.07299 0.0833,29.46492 -0.66672,58.92011 -1.62447,88.36649 -1.25605,30.17888 -2.25076,60.35909 -2.56249,90.56287 -0.19014,28.64114 0.22813,57.28207 0.4345,85.92222 0.16695,24.57407 0.21358,49.14872 0.23905,73.72328 0.12614,17.19367 0.38447,34.38594 0.54637,51.57928 0.0557,6.20819 0.0922,12.41653 0.11372,18.62492 0.12275,35.35513 50.12245,35.18153 49.9997,-0.1736 v 0 c -0.0219,-6.30752 -0.059,-12.61499 -0.11564,-18.9223 -0.16071,-17.05364 -0.41495,-34.10623 -0.54417,-51.16015 -0.0256,-24.67739 -0.0726,-49.35486 -0.24033,-74.03176 -0.20434,-28.34897 -0.61819,-56.69871 -0.43583,-85.04864 0.30455,-29.83337 1.30299,-59.64277 2.53873,-89.45164 0.97856,-30.12002 1.74113,-60.24923 1.64928,-90.38818 -0.21949,-27.31386 -0.86512,-54.62419 -1.95777,-81.91756 -1.09821,-24.46598 -2.25889,-48.93248 -4.32677,-73.34016 -2.01334,-23.7085 -4.52108,-47.36309 -7.20127,-71.00482 -1.72759,-18.72235 -3.36731,-37.67309 -0.0886,-56.336643 2.38032,-11.144056 5.03241,-21.012163 12.16421,-30.177379 0.63012,-0.776286 1.27294,-1.54244 1.89037,-2.328859 0.40063,-0.510273 1.33299,-1.178789 0.94708,-1.700278 -0.27721,-0.3746 -1.17802,-0.119744 -1.17287,-0.832483 6.56115,0.330102 12.63048,3.802877 18.40836,6.59005 1.10356,0.676539 2.24853,1.289753 3.31068,2.029616 8.24806,5.745372 14.25798,14.101721 21.07438,21.336232 3.92275,4.631278 5.4964,6.322773 9.08742,11.230384 6.27368,8.57384 11.48276,17.86267 16.59182,27.15676 7.37095,13.17813 15.37931,26.23726 18.74922,41.14428 0.88005,3.6077 1.85532,7.23552 2.45283,10.90938 0.78157,4.80562 0.84593,9.68754 0.82984,14.54316 0,35.35533 50,35.35533 50,0 z"/>
</svg>
