<?xml version="1.0" ?>
<svg xmlns="http://www.w3.org/2000/svg" width="500" height="1000">
<path d="m 261.34251,405.39765 c -8.63656,-4.29433 -17.82816,-7.72458 -27.32924,-9.53155 -2.85555,-0.54308 -5.75034,-0.85445 -8.62551,-1.28168 -16.7238,-1.44514 -33.43768,0.99169 -49.2248,6.63187 -3.41194,1.21897 -6.72567,2.69711 -10.0885,4.04567 -14.83084,6.91151 -28.23016,16.57618 -39.15582,28.79805 -7.71191,8.62684 -9.2135,11.73351 -15.56663,21.45003 -14.841266,25.13863 -22.590637,53.46972 -29.669405,81.55502 -4.599814,20.45011 -8.192094,41.23043 -8.757976,62.23092 -0.363055,13.4734 0.271038,18.56971 1.13989,31.89591 2.49638,29.7933 10.538456,58.68525 19.298788,87.14548 6.923463,20.85215 16.933803,40.65366 30.288013,58.14651 2.45236,3.21238 5.14007,6.23808 7.71011,9.35711 12.65767,14.13742 28.01628,25.60755 45.2371,33.60269 3.19366,1.48273 6.49956,2.71062 9.74934,4.06592 13.61238,4.87188 27.9736,7.75383 42.48451,6.38221 9.7811,-0.92455 12.81507,-2.29092 22.08484,-5.021 20.57818,-7.83336 35.08481,-20.12 49.17172,-36.78158 2.94074,-3.47822 5.66492,-7.13391 8.49739,-10.70086 12.16806,-16.45026 22.69649,-34.04409 31.21099,-52.6536 5.59882,-12.23691 7.94195,-18.89475 12.79584,-31.48429 8.27172,-22.85754 15.66256,-46.2043 19.32034,-70.30465 2.52857,-16.66023 2.15946,-20.28457 2.70592,-36.9909 -0.50714,-27.84261 -4.77939,-55.70597 -14.10869,-82.01219 -1.78832,-5.04262 -3.94933,-9.9452 -5.924,-14.9178 -7.88105,-17.2507 -16.76119,-34.37976 -29.52245,-48.60292 -7.75511,-8.64351 -10.82934,-10.53475 -19.69057,-17.63728 -14.17256,-10.09436 -30.39546,-17.08387 -47.85087,-18.73825 -12.69976,-1.20365 -15.45184,-0.0489 -28.04836,1.73664 -4.68799,1.4295 -9.48023,2.55355 -14.06396,4.28851 -12.97386,4.91063 -25.75282,12.31679 -35.97519,21.75188 -9.52532,8.79173 -10.60078,11.68463 -17.74347,22.25877 -8.18663,14.7597 -13.63696,30.93019 -13.9174,47.94351 -0.1925,11.67857 1.05776,14.62775 3.37937,26.01164 1.48496,4.20954 2.73013,8.51151 4.45487,12.62862 6.93401,16.55205 17.75494,31.53264 30.32746,44.25221 3.22893,3.2667 6.73645,6.24575 10.10467,9.36863 20.49562,17.34229 44.32046,29.41603 71.26997,32.56824 6.84884,0.80109 13.7764,0.63597 20.6646,0.95396 35.33583,1.17414 36.99633,-48.79828 1.66049,-49.97242 v 0 c -10.87423,-0.14434 -14.40601,0.44407 -24.71289,-1.95772 -13.13322,-3.06039 -24.86442,-9.96787 -35.14941,-18.49872 -2.32344,-2.07931 -4.7437,-4.05526 -6.97032,-6.23794 -9.85412,-9.65969 -18.02639,-21.0749 -22.86192,-34.04914 -1.33932,-4.97085 -2.03127,-6.45768 -2.28855,-11.58141 -0.42961,-8.55575 2.34224,-16.74476 6.05618,-24.32667 2.62313,-4.51742 3.56296,-6.77702 7.26982,-10.5671 7.26866,-7.43186 16.94914,-12.09178 26.61426,-15.49836 5.11307,-1.10789 6.96793,-1.84881 12.20322,-1.67373 8.99256,0.30073 17.35799,3.6561 24.7139,8.67639 4.85674,3.67544 7.54527,5.40084 11.77603,9.86335 9.69255,10.22349 15.90008,23.1349 21.91218,35.69733 1.55115,3.79343 3.25091,7.52944 4.65345,11.38028 7.63591,20.96531 11.13124,43.23368 11.78764,65.47536 -0.29479,12.95834 0.0174,16.17495 -1.862,29.15245 -3.06168,21.14149 -9.66261,41.57563 -16.85357,61.61561 -4.26724,11.13266 -6.27044,16.85453 -11.11538,27.61048 -6.92528,15.3744 -15.5582,29.88358 -25.48268,43.50973 -9.47654,12.12399 -18.8033,24.35369 -33.28074,30.70695 -3.66487,1.27642 -5.67999,2.16025 -9.4639,2.80869 -7.23268,1.23945 -14.47817,-0.51455 -21.33704,-2.7247 -2.03765,-0.80302 -4.11086,-1.52111 -6.11297,-2.40907 -11.12172,-4.93263 -21.13469,-12.05463 -29.37881,-21.00108 -1.78285,-2.09776 -3.6577,-4.12068 -5.34855,-6.29328 -10.25277,-13.17402 -17.97122,-28.11066 -23.26289,-43.91801 -7.65849,-24.75779 -14.83009,-49.87682 -17.19079,-75.78432 -0.72719,-10.26141 -1.31753,-15.27814 -1.11257,-25.56715 0.35635,-17.88884 3.49083,-35.57903 7.33969,-53.00339 5.71166,-22.84519 11.71657,-46.02029 23.25757,-66.73083 1.52529,-2.44899 2.94719,-4.96549 4.57587,-7.34697 6.88017,-10.06024 16.09987,-18.17676 27.00106,-23.62673 2.13597,-0.90174 4.23991,-1.88346 6.4079,-2.70523 8.70703,-3.30036 17.90263,-5.09645 27.23135,-4.70325 6.71517,0.73298 13.29106,2.38545 19.33804,5.4802 31.26193,16.51338 54.61537,-27.69767 23.35344,-44.21105 z"/>
</svg>
