<?xml version="1.0" ?>
<svg xmlns="http://www.w3.org/2000/svg" width="500" height="1000">
<path d="m 116.02567,24.958979 c -5.20102,12.182153 -7.6723,25.28742 -10.28464,38.20695 -3.48804,16.846073 -5.45637,33.93605 -6.97529,51.054461 -1.711117,19.5296 -0.169705,39.11197 0.892594,58.62758 1.091996,21.15591 2.002826,42.32037 2.711396,63.49247 0.67027,26.11293 0.36017,52.23479 0.13937,78.35105 -0.20654,31.98803 -0.30395,63.97411 -1.04831,95.95512 -1.02729,34.70228 -4.144853,69.29466 -6.895526,103.89034 -2.570577,31.25812 -4.234409,62.57878 -5.54478,93.91187 -0.949106,25.18907 -1.53393,50.38802 -1.847186,75.59235 -0.1867,17.31956 -0.208746,34.64026 -0.213281,51.96064 8.99e-4,9.62222 0.0093,19.24443 0.01519,28.86664 0.0023,3.78706 0.0037,7.57412 0.0043,11.36118 0.102402,2.86334 0.440129,5.70556 0.562385,8.56755 0.257096,5.09779 -0.332467,11.89306 3.335765,15.84792 5.056198,5.45128 12.084373,8.66569 18.126553,12.99853 34.80785,6.19788 43.57298,-43.02785 8.76513,-49.22573 v 0 c 5.76943,4.28427 12.45729,7.55102 17.3083,12.85282 2.06241,2.25407 1.74875,5.85626 2.51588,8.8136 0.0793,0.3057 0.0229,1.26305 0.0161,0.94731 -0.0321,-1.49676 -0.0519,-2.99392 -0.1186,-4.48976 -0.0796,-1.70783 -0.17208,-3.41249 -0.31206,-5.11664 -0.04,-0.48727 -0.0844,-0.97419 -0.13044,-1.46092 -0.0174,-0.18362 -0.0124,-0.72828 -0.06,-0.55007 -0.0695,0.26041 -0.006,0.53903 -0.009,0.80854 -5.2e-4,-3.7949 -0.002,-7.58981 -0.004,-11.38472 -0.006,-9.60773 -0.0143,-19.21547 -0.0152,-28.82321 0.004,-17.11797 0.0257,-34.23625 0.20943,-51.35341 0.30606,-24.71536 0.87967,-49.42536 1.80747,-74.12584 1.28117,-30.7072 2.91155,-61.40216 5.43105,-92.03573 2.82479,-35.52837 6.0121,-71.05426 7.03937,-106.69334 0.74562,-32.22682 0.85762,-64.45845 1.05997,-96.69233 0.2267,-26.81548 0.53837,-53.63688 -0.16564,-80.44864 -0.7223,-21.51979 -1.64485,-43.03201 -2.75725,-64.5353 -0.93319,-17.14274 -2.40587,-34.3477 -1.0128,-51.50828 1.34407,-15.2761 3.06502,-30.530498 6.18091,-45.56298 1.86516,-9.257826 3.50177,-18.682291 6.85206,-27.543693 14.53551,-32.229159 -31.0434,-52.7854872 -45.57892,-20.556328 z"/>
<path d="m 151.86701,533.64142 c -0.0283,0.36283 -0.37892,1.30297 -0.0849,1.08847 0.50444,-0.36803 0.58501,-1.10343 0.86821,-1.65994 0.65238,-1.28196 1.26738,-2.58305 1.93846,-3.85531 2.54712,-4.82886 5.54501,-9.16281 8.71464,-13.60083 8.4856,-11.83085 17.15724,-23.49457 26.60217,-34.57943 6.62254,-7.01954 12.98729,-14.39272 20.36742,-20.65183 3.38775,-2.87315 5.10224,-3.89471 8.75268,-6.37024 4.79175,-2.75079 9.9197,-5.57149 15.51677,-6.2105 1.85317,-0.21157 3.2485,0.0593 5.09117,0.26957 7.42967,1.49852 12.61191,6.76533 17.50126,12.17055 0.91117,1.31309 1.92092,2.56301 2.7335,3.93929 1.84511,3.12511 3.41665,7.11941 4.56572,10.49743 2.90029,8.52628 4.19105,16.0091 5.54104,24.87809 2.59802,24.9297 1.71479,50.07555 1.08562,75.08654 -0.63323,30.99469 -1.11592,61.99244 -1.6437,92.98914 -0.542,27.69677 -1.1508,55.39357 -1.21468,83.09639 0.24237,15.7031 -0.30837,34.41078 7.68195,48.56442 1.88903,3.34614 4.45158,6.26449 6.67737,9.39673 3.33697,2.60829 6.31757,5.75177 10.01091,7.82487 10.81731,6.07186 23.64344,6.69891 35.56883,4.4588 10.15079,-1.90677 13.63577,-4.00974 23.1701,-8.05386 18.03552,-9.43481 34.24972,-22.22089 47.7734,-37.45083 11.07197,-12.46891 15.54706,-19.84651 25.2164,-33.75557 4.37661,-6.78713 8.75322,-13.57426 13.12984,-20.36139 19.144,-29.72385 -22.89188,-56.79755 -42.03588,-27.0737 v 0 c -4.07457,6.33457 -8.14915,12.66915 -12.22372,19.00372 -7.09164,10.32799 -11.84035,17.94817 -19.86442,27.25915 -9.15314,10.62112 -20.12442,19.71577 -32.28083,26.6784 -1.85154,0.89826 -3.668,1.87276 -5.55464,2.69479 -1.34414,0.58565 -2.73378,1.0646 -4.12636,1.52331 -0.92028,0.30314 -1.9232,0.35989 -2.80562,0.76008 -0.24678,0.11192 -0.52518,0.45294 -0.41357,0.69985 0.67312,1.48911 2.95429,1.92135 2.95408,3.91255 0.0821,0.54221 0.58914,1.19848 0.24645,1.62662 -0.25475,0.31828 -0.65594,-0.53065 -0.82776,-0.90035 -0.45062,-0.96954 -0.78327,-1.99987 -1.00618,-3.04551 -1.65401,-7.75856 -0.9864,-15.79696 -1.29047,-23.6514 0.0581,-27.45597 0.67672,-54.90587 1.20755,-82.35587 0.52546,-30.86281 1.00666,-61.72664 1.63525,-92.58749 0.70092,-28.06231 1.63323,-56.28823 -1.69589,-84.22639 -0.70626,-4.27684 -1.25786,-8.58211 -2.11879,-12.83052 -3.91265,-19.30746 -10.9953,-38.07416 -23.96318,-53.15819 -6.1363,-6.24404 -8.21098,-8.89045 -15.46497,-14.04618 -10.9057,-7.75115 -23.39663,-12.36815 -36.71318,-13.54228 -8.42562,-0.0431 -10.11631,-0.46809 -18.40396,1.13555 -11.54872,2.23466 -22.27059,7.47843 -32.15032,13.69565 -6.52405,4.58585 -7.99949,5.38584 -14.11002,10.65803 -8.87953,7.66129 -16.68364,16.49598 -24.62925,25.08558 -10.37165,12.24483 -20.01047,25.03664 -29.33023,38.09775 -8.14485,11.62001 -15.98944,23.80572 -19.73813,37.64202 -6.529617,34.74715 42.61027,43.98142 49.13988,9.23427 z"/>
</svg>
