<?xml version="1.0" ?>
<svg xmlns="http://www.w3.org/2000/svg" width="500" height="1000">
<path d="m 239.96142,229.87421 c 0.0901,-0.74894 0.62131,0.42953 0.87175,0.45845 0.35522,-0.25954 0.17177,-0.23193 0.52996,-0.17001 0.84986,1.44949 -3.91775,4.66338 -4.70941,5.14671 -0.92622,0.56549 -1.95425,0.90404 -2.9648,1.26834 -3.1769,0.66634 -5.87257,-0.96574 -8.27969,-2.82698 -0.20914,1.5024 0.44802,3.09913 0.43547,4.63544 -10e-4,0.15085 -0.18867,-0.25531 -0.20059,-0.4057 -0.0625,-0.78815 -0.0131,-1.58119 -0.0197,-2.37178 0.62552,-2.93836 0.41264,-2.97875 1.87652,-5.65315 0.33491,-0.61185 0.81313,-1.13445 1.18712,-1.72322 0.10661,-0.16783 0.44992,-0.54562 0.25114,-0.54104 -0.51272,0.0118 -0.94845,0.39124 -1.42982,0.56817 -0.59967,0.22042 -1.20828,0.41571 -1.81242,0.62357 -0.0407,0.35 -6.37648,1.42471 -3.03361,0.63165 -35.35497,0.16137 -35.12676,50.16085 0.22821,49.99948 v 0 c 1.96593,-0.0896 3.94055,-0.0637 5.89778,-0.26892 5.17468,-0.54264 10.16909,-2.08871 15.06282,-3.77478 11.82976,-4.79093 21.97429,-10.24635 27.99389,-22.26796 1.23244,-2.46129 1.86886,-5.1783 2.80329,-7.76745 0.33158,-2.47756 0.84586,-4.93746 0.99473,-7.43268 0.54609,-9.15318 -2.39622,-18.94069 -5.84381,-27.26106 -3.45172,-5.95543 -4.11029,-8.02499 -9.22506,-12.92924 -7.51776,-7.20835 -17.1967,-10.73207 -27.46956,-11.23095 -6.3085,0.37227 -9.18468,0.0948 -15.35235,2.43814 -10.12086,3.84526 -17.36555,11.35965 -22.10786,20.89755 -0.86222,2.14179 -1.87107,4.23023 -2.58665,6.42536 -3.52478,10.81277 -3.24746,22.37479 0.83645,32.97195 13.74608,32.57369 59.81224,13.1338 46.06616,-19.43989 z"/>
<path d="m 139.84989,449.18119 c 9.19658,-3.26689 18.59877,-5.88178 28.0829,-8.15849 13.31194,-3.14224 26.85637,-4.81831 40.50891,-5.27751 5.30947,-0.0256 10.63177,0.21426 15.88919,0.99258 1.94594,0.28809 4.42142,0.55553 6.13046,1.71582 -2.24482,-0.25598 -3.52777,-1.90169 -5.18099,-3.22198 -0.19482,-0.15558 -0.61984,-0.57836 -0.66926,-0.33398 -0.14555,0.71971 0.19717,1.45526 0.29534,2.18295 0.179,1.32682 0.35744,2.65373 0.53617,3.98059 1.43685,14.82386 1.31046,29.74694 0.7759,44.61262 -0.67365,20.73137 -3.96928,41.20297 -7.36221,61.62202 -4.22625,24.16639 -7.46558,48.47896 -10.19936,72.85397 -2.69884,23.0295 -3.6255,46.18847 -3.49898,69.35849 0.38356,17.79803 1.88256,35.54709 3.60492,53.25788 0.94291,8.42104 1.62362,16.9347 3.79623,25.1584 1.51368,5.72952 2.08765,6.67473 4.26346,12.04488 3.1696,6.81109 6.81461,13.63533 12.37152,18.84546 5.2834,4.95368 6.63694,5.22384 12.74296,8.5779 8.22326,3.55915 17.07293,5.56766 26.08315,4.68199 7.48926,-0.73616 9.15975,-1.7917 16.13261,-4.25318 14.12944,-6.52012 26.61323,-16.15448 37.62885,-27.07509 3.01333,-2.98734 5.84711,-6.15049 8.77066,-9.22574 3.2979,-3.81769 6.5958,-7.63539 9.8937,-11.45308 23.06607,-26.79471 -14.82738,-59.41506 -37.89344,-32.62035 v 0 c -2.78845,3.25251 -5.57689,6.50501 -8.36533,9.75752 -8.4735,9.06768 -17.26406,18.04411 -28.26897,24.06031 -0.20695,0.18116 -0.52277,0.28653 -0.62086,0.54349 -0.0162,0.0424 0.7616,0.74959 0.1078,0.82735 -0.41351,0.0492 -0.83416,-0.16906 -1.24878,-0.0349 0.3685,0.59192 0.85768,1.1038 1.2165,1.70164 0.0917,0.15272 0.30237,0.55204 0.12734,0.51898 -0.81023,-0.15304 -2.22714,-3.80203 -2.62036,-4.313 -3.37508,-7.02112 -3.38282,-14.99136 -4.35248,-22.58907 -1.58013,-16.20017 -2.96764,-32.43397 -3.37039,-48.71259 -0.14113,-21.21046 0.71941,-42.40928 3.1891,-63.49109 2.62886,-23.49781 5.75594,-46.9337 9.83462,-70.2289 3.74294,-22.55124 7.27602,-45.17342 8.00722,-68.06645 0.61241,-17.96659 0.74348,-36.02014 -1.31848,-53.90803 -1.38065,-8.51906 -2.72736,-17.10546 -7.15196,-24.72116 -4.49876,-7.74334 -10.84078,-13.09707 -18.86541,-16.83275 -2.03226,-0.74442 -4.02811,-1.597 -6.09678,-2.23326 -11.6575,-3.58549 -24.07686,-3.8767 -36.16046,-3.94608 -16.99038,0.67061 -33.868,2.67663 -50.42951,6.64784 -12.16457,2.96615 -24.27252,6.28689 -35.97431,10.78088 -32.507935,13.90088 -12.84912,59.87404 19.65881,45.97316 z"/>
</svg>
