<?xml version="1.0" ?>
<svg xmlns="http://www.w3.org/2000/svg" width="500" height="1000">
<path d="M 102.46772,21.652837 C 95.053255,34.399654 90.793295,48.600375 86.666546,62.660903 81.011385,82.738638 76.212486,103.0914 72.928581,123.69979 c -0.749945,4.70633 -1.354388,9.4347 -2.031582,14.15205 -4.209161,30.67004 -4.70032,61.653 -4.686103,92.55638 0.229552,34.05744 1.984686,68.07835 3.949725,102.07186 2.393932,37.81107 3.36854,75.69231 3.804457,113.57046 0.411888,38.84302 0.675277,77.68791 1.289517,116.52841 0.706395,31.95526 0.765514,63.9171 0.728539,95.87832 0.07797,21.15743 -0.101104,42.3087 -0.530523,63.46072 -0.182938,9.94318 0.0067,19.88931 1.061316,29.78095 0.388985,5.23965 1.82866,10.29809 2.785416,15.43821 0.401733,2.89714 0.564643,5.81477 0.917489,8.72016 0.697014,3.74042 1.107838,7.51452 1.349593,11.3083 0.138088,2.92725 0.16544,5.85156 0.555064,8.76144 5.152823,34.97782 54.618941,27.69063 49.466121,-7.28719 v 0 c 0.0858,0.69525 -0.0148,1.41317 0.13668,2.09712 0.0968,0.43717 -0.0168,-0.89539 -0.0286,-1.343 -0.0488,-1.84522 -0.12736,-3.68965 -0.23853,-5.5322 -0.32609,-4.80789 -0.761,-9.61614 -1.64568,-14.35834 -0.59224,-3.95393 -0.51124,-8.00338 -1.43296,-11.91799 -0.75297,-3.79119 -1.79023,-7.53007 -2.16807,-11.38709 -0.91129,-7.71785 -0.81473,-15.50745 -0.76812,-23.26617 0.43532,-21.47084 0.6192,-42.94094 0.54078,-64.4172 0.0371,-32.24422 -0.0242,-64.48907 -0.73477,-96.72729 -0.6141,-38.76965 -0.87413,-77.54373 -1.2866,-116.31589 -0.44988,-38.64792 -1.44368,-77.29882 -3.88451,-115.8785 -1.91182,-33.04338 -3.62861,-66.113 -3.86634,-99.21846 -0.0253,-28.53013 0.3492,-57.13904 4.18488,-85.46094 0.59501,-4.1997 1.12519,-8.40909 1.78504,-12.59909 2.95848,-18.78601 7.34334,-37.333036 12.47986,-55.633748 2.81317,-9.684142 5.58989,-19.456735 10.18035,-28.48574 18.76837,-29.962443 -23.60492,-56.5049376 -42.3733,-26.542495 z"/>
<path d="m 303.63681,386.5127 c -15.70728,5.59522 -29.47956,15.63568 -40.86213,27.72773 -3.69297,3.92316 -6.98458,8.20563 -10.47687,12.30844 -15.01336,19.28106 -26.578,40.89003 -40.68645,60.7961 -10.19804,14.38874 -11.06574,14.80845 -22.3536,28.00996 -13.8104,14.61112 -29.24714,27.78402 -46.734,37.81288 -8.08075,4.63437 -10.95636,5.5809 -19.25664,9.09993 -6.52807,2.53199 -13.22285,4.61612 -20.05294,6.15668 -2.2111,0.49872 -4.839654,1.14236 -7.151485,1.21095 18.111005,-1.04822 5.979735,-1.22569 16.955915,44.51017 0.36715,1.52985 -5.93368,2.44693 -1.75715,2.03028 0.7608,-0.0759 1.52318,-0.13504 2.28477,-0.20255 7.48481,-0.83089 14.83531,0.36308 22.07192,2.18963 9.03829,3.59964 16.04286,10.81477 22.85928,17.51119 11.21984,12.17342 20.78065,25.78816 30.25513,39.33457 9.13414,13.0776 15.30198,27.82204 21.54195,42.4098 5.44119,12.04138 9.36814,24.72075 15.07989,36.64437 1.20762,2.521 2.54855,4.97594 3.82283,7.4639 6.77156,12.23523 15.25007,23.69168 25.97004,32.77749 2.29225,1.94282 4.76411,3.66319 7.14616,5.49479 14.22866,9.38117 30.88224,15.14259 48.13695,12.86489 4.45457,-0.58803 8.75312,-2.03439 13.12969,-3.05158 4.70259,-2.16971 9.63064,-3.90579 14.10776,-6.50912 10.27983,-5.97744 19.70561,-14.26996 28.08138,-22.59128 16.34102,-16.23478 30.04723,-34.75347 43.99321,-53.00073 5.40132,-7.31664 10.80265,-14.63328 16.20397,-21.94991 20.9948,-28.44676 -19.23499,-58.1379 -40.22979,-29.69115 v 0 c -5.2391,7.10052 -10.4782,14.20105 -15.7173,21.30157 -9.56811,12.54934 -16.86868,22.54625 -27.02622,34.38538 -8.32682,9.70533 -17.29168,19.31552 -27.70682,26.84523 -1.50928,1.09115 -3.16682,1.96097 -4.75023,2.94146 -0.68125,0.28152 -4.4818,1.99034 -5.73393,2.10895 -4.47889,0.42423 -8.84735,-1.65208 -12.62235,-3.75362 -1.03346,-0.71227 -2.11877,-1.35461 -3.10037,-2.1368 -6.4576,-5.14576 -11.44296,-11.90973 -15.48766,-19.03839 -6.90642,-13.10066 -11.36606,-27.24428 -17.32935,-40.77664 -7.5996,-17.75179 -15.36598,-35.55133 -26.54959,-51.41368 -11.28237,-16.1022 -22.70707,-32.26089 -36.33887,-46.48729 -13.67052,-13.21853 -27.34554,-25.05344 -46.09959,-30.31055 -2.36848,-0.54935 -4.72103,-1.17256 -7.10544,-1.64806 -10.50185,-2.09429 -21.25176,-2.65394 -31.91097,-1.63184 -5.4111,0.62142 -11.104282,1.14954 -16.224299,3.17112 -2.606769,1.02926 -7.800571,0.88877 -7.559235,3.68097 4.14655,47.9746 -3.222771,46.46673 16.772944,46.25998 14.41759,-1.68665 28.40423,-5.91937 41.88815,-11.20854 11.48723,-5.0397 15.02328,-6.21256 26.16755,-12.75483 21.72349,-12.75286 40.98143,-29.23898 58.07408,-47.66998 13.09988,-15.49307 14.03749,-15.92011 25.74845,-32.49278 13.07528,-18.5034 24.00038,-38.4198 37.53648,-56.60366 2.31234,-2.83328 4.50384,-5.76964 6.93702,-8.49984 5.88208,-6.60012 12.89054,-12.46565 21.08372,-15.9368 33.72107,-10.62496 18.69511,-58.31375 -15.02596,-47.68879 z"/>
</svg>
