<?xml version="1.0" ?>
<svg xmlns="http://www.w3.org/2000/svg" width="500" height="1000">
<path d="m 103.97899,393.32775 c -1.33695,10.36818 -3.95941,20.55631 -6.252116,30.74768 -5.147994,22.3782 -7.525665,45.24798 -9.321988,68.09936 -1.69421,27.57167 -2.212244,55.2037 -2.404323,82.82176 -0.21223,28.30054 0.331941,56.59524 2.247028,84.83248 1.939699,20.11838 4.626195,40.33829 9.664599,59.95234 0.928881,3.61605 2.061459,7.17669 3.09219,10.76504 4.52934,13.15829 10.27911,26.00717 18.41983,37.36141 4.21853,5.88378 6.69877,8.35068 11.41548,13.55768 8.42428,9.03967 18.47561,16.37393 29.62857,21.69043 2.03448,0.96981 4.13505,1.79441 6.20257,2.69161 10.87235,3.84651 22.53895,5.62789 34.0203,3.84072 2.40718,-0.37469 4.76605,-1.01212 7.14908,-1.51818 12.97311,-3.5863 24.63922,-10.32378 34.90841,-18.94771 2.25253,-1.89164 4.36391,-3.94525 6.54586,-5.91787 8.25221,-8.61324 16.20936,-17.58483 23.48001,-27.05215 5.4576,-7.10651 6.97624,-9.60721 12.0206,-17.08111 13.88202,-20.65181 23.19538,-43.72467 32.44482,-66.68177 8.04162,-20.65654 15.33342,-41.64768 21.63395,-62.90505 2.02686,-6.83844 3.8376,-13.73909 5.7564,-20.60864 9.48848,-34.05831 -38.67724,-47.47706 -48.16573,-13.41875 v 0 c -1.75786,6.32761 -3.41068,12.68535 -5.2736,18.98283 -5.92379,20.02508 -12.76801,39.8069 -20.32986,59.26797 -7.94303,19.72416 -15.71261,39.66398 -27.55924,57.46521 -3.66602,5.47811 -5.53245,8.46179 -9.48234,13.63432 -5.72058,7.49133 -12.02165,14.53906 -18.31677,21.5445 -5.68315,5.33507 -11.60073,10.52425 -19.12426,13.04966 -3.49153,1.1927 -6.68975,1.18712 -10.29905,0.26667 -6.94234,-2.72391 -13.31709,-6.51819 -18.3776,-12.0841 -2.19413,-2.35009 -4.69038,-4.90321 -6.64726,-7.46949 -5.40315,-7.08578 -8.9416,-15.37899 -12.04908,-23.66444 -0.78013,-2.62213 -1.64978,-5.21927 -2.3404,-7.86638 -4.45736,-17.08496 -6.7796,-34.73186 -8.53379,-52.26327 -1.859,-26.98686 -2.31223,-54.03331 -2.13189,-81.08126 0.17843,-26.4348 0.67414,-52.88226 2.25397,-79.27474 1.58423,-20.47014 3.65664,-40.96764 8.25451,-61.0157 2.92516,-13.00427 6.31704,-26.01994 7.41427,-39.3375 1.68544,-35.31514 -48.25772,-37.6987 -49.94315,-2.38356 z"/>
<path d="m 312.68614,397.65399 c 0.30185,5.20759 0.39047,10.42385 0.4567,15.6387 0.16451,8.12918 0.002,16.25439 -0.2122,24.38035 -0.22095,7.11775 -1.22035,14.17887 -2.11809,21.23412 -1.0694,9.44251 -2.4426,18.83817 -3.98324,28.21365 -1.77553,9.86205 -3.14444,19.7858 -4.4176,29.72285 -1.48242,11.4639 -2.81685,22.94456 -4.02828,34.43999 -1.36561,14.0257 -2.09009,28.10111 -3.07532,42.15599 -1.00998,13.25296 -2.22302,26.48836 -3.18116,39.74546 -0.59164,11.2488 -1.46939,22.47619 -2.50461,33.69179 -1.22193,11.70457 -2.38778,23.40809 -3.26634,35.1438 -1.06923,12.3584 -1.04572,24.74575 -0.26984,37.1146 0.5379,9.97364 2.68085,19.69634 5.87217,29.12878 3.00671,8.79117 8.00854,16.17633 14.07873,23.11065 5.37913,5.95795 11.86502,10.64847 19.38193,13.52989 1.66451,0.63804 3.39573,1.08616 5.0936,1.62923 10.52404,2.87727 21.3744,3.15158 32.17406,2.26126 11.34513,-1.53248 22.12416,-5.52018 32.90377,-9.19352 9.4423,-3.13119 18.35184,-7.52972 27.06103,-12.28415 5.95951,-3.55502 2.93944,-1.64405 9.04121,-5.76283 29.15024,-20.00659 0.85665,-61.23125 -28.29359,-41.22467 v 0 c -3.01766,2.14363 -1.44329,1.10075 -4.73183,3.11544 -6.1902,3.38991 -12.47282,6.6254 -19.20456,8.82867 -7.08398,2.414 -14.13563,4.99003 -21.42262,6.73744 -4.43221,0.53804 -8.87682,0.42859 -13.27496,-0.40326 -0.22369,-0.0284 -0.54596,-0.2727 -0.67108,-0.0851 -0.22492,0.33722 0.67725,0.48758 0.88144,0.83773 0.11708,0.20078 -0.45043,-0.15397 -0.62686,-0.30525 -0.33302,-0.28554 -0.63383,-0.60663 -0.95075,-0.90995 -1.74752,-1.88536 -3.39497,-3.7138 -4.19191,-6.24199 -1.87757,-5.14462 -2.90993,-10.51843 -3.22374,-15.99099 -0.67425,-10.05232 -0.63834,-20.11765 0.23452,-30.16256 0.85551,-11.44832 2.01081,-22.86302 3.19436,-34.28177 1.0639,-11.54657 1.97881,-23.1048 2.58627,-34.68551 0.95701,-13.29195 2.18796,-26.56075 3.18853,-39.84924 0.94315,-13.47289 1.64198,-26.96474 2.92243,-40.4119 1.17134,-11.12426 2.46371,-22.23392 3.89848,-33.32754 1.19672,-9.35187 2.48227,-18.69091 4.16163,-27.97071 1.63657,-9.97146 3.09992,-19.96489 4.24436,-30.00625 1.10802,-8.71138 2.2733,-17.43458 2.50046,-26.22489 0.23159,-8.77995 0.3953,-17.55983 0.22546,-26.34309 -0.0787,-6.04285 -0.19075,-12.08716 -0.55037,-18.12106 -2.21031,-35.28618 -52.11251,-32.16033 -49.90219,3.12585 z"/>
</svg>
