<?xml version="1.0" ?>
<svg xmlns="http://www.w3.org/2000/svg" width="500" height="1000">
<path d="m 64.244248,461.87221 c 4.550275,-0.67671 9.141769,-0.97609 13.720565,-1.37903 4.140392,-0.34414 8.156094,0.50748 12.144184,1.49316 3.680621,1.21251 7.777743,2.00612 11.050503,4.21645 0.3392,0.22908 0.89794,1.08846 1.116,1.39806 4.74347,6.30461 8.11478,13.41306 11.31508,20.58052 5.67398,13.2491 8.59494,27.37558 10.87252,41.53636 2.46347,19.00938 3.43417,38.17014 4.58981,57.29171 1.13679,22.12231 2.84791,44.20266 5.72488,66.16779 3.05638,18.55037 5.70811,37.15354 8.34194,55.76652 2.25727,14.36744 6.02514,28.79174 13.12709,41.59816 1.39654,2.51828 3.04095,4.8909 4.56143,7.33635 7.01009,9.30498 14.83797,18.41759 24.41489,25.20968 2.00594,1.42264 4.14448,2.64841 6.21672,3.97262 7.77442,4.26936 16.18266,7.19901 24.98661,8.37526 4.54938,0.60782 7.18581,0.56142 11.65285,0.6679 6.58325,0.0497 13.19386,-0.29284 19.60342,-1.9209 5.4235,-1.3776 7.01338,-2.24096 12.18643,-4.35898 11.71026,-5.71881 22.3425,-13.64759 31.45961,-22.95481 2.26487,-2.31209 4.36089,-4.78376 6.54133,-7.17565 12.04288,-14.48522 22.28762,-30.45607 31.36162,-46.9487 2.23583,-4.06378 4.29346,-8.22308 6.44018,-12.33462 14.14358,-27.90382 20.56979,-58.52405 26.83424,-88.90971 4.50252,-22.19571 8.86539,-44.4374 12.01445,-66.87312 2.00155,-14.26023 2.1828,-17.4489 3.60246,-31.61158 1.4781,-18.20817 2.4699,-36.571 0.36057,-54.77625 -1.11225,-9.59965 -2.07616,-12.95973 -4.09079,-22.13799 -2.68761,-10.45413 -6.39032,-20.59884 -9.63743,-30.88301 -10.65429,-33.71181 -58.32999,-18.64437 -47.6757,15.06744 v 0 c 2.82298,8.92471 5.96937,17.74674 8.52431,26.75408 1.41853,6.14483 2.24439,9.06169 3.05948,15.43683 1.93494,15.13373 0.83904,30.43406 -0.29394,45.58022 -1.27996,12.92398 -1.45563,15.98161 -3.27492,29.01548 -3.01345,21.58912 -7.23408,42.98543 -11.56066,64.34193 -5.32276,25.87245 -10.41309,52.07627 -22.23202,75.94558 -8.82906,17.09948 -18.45827,33.94809 -30.63136,48.92391 -5.93732,6.77484 -12.44626,13.12374 -20.38833,17.53614 -1.2834,0.60826 -2.82052,1.53727 -4.24743,1.8617 -2.31211,0.5257 -4.73488,0.32056 -7.07795,0.42971 -3.97214,-0.0213 -7.83059,0.0224 -11.50899,-1.75428 -6.0164,-2.9503 -10.24879,-8.70178 -14.62177,-13.5805 -0.63485,-0.89612 -1.33468,-1.74959 -1.90456,-2.68838 -4.78116,-7.87635 -6.79687,-17.19631 -8.29577,-26.15513 -2.61543,-18.45451 -5.21999,-36.9043 -8.27721,-55.2931 -2.76313,-20.79083 -4.28066,-41.70632 -5.38676,-62.6472 -1.25776,-20.80737 -2.32552,-41.66028 -5.15164,-62.32893 -3.04943,-18.46772 -7.07884,-36.8382 -14.64841,-54.05597 -6.17416,-13.56725 -13.02343,-27.0263 -23.85297,-37.54106 -1.91118,-1.58635 -3.72354,-3.29992 -5.73353,-4.75903 -8.334,-6.04987 -18.21487,-9.382 -28.06246,-12.00366 -9.191306,-2.09138 -18.519308,-3.50288 -27.973601,-2.61476 -5.700229,0.51303 -11.416814,0.89881 -17.076021,1.79195 -34.924599,5.50203 -27.143549,54.89287 7.78105,49.39084 z"/>
<path d="m 321.26559,431.77576 c 6.13744,4.97326 12.95202,8.76239 20.22965,11.76827 7.71622,2.84575 15.87706,3.85909 24.03328,4.35735 4.7186,0.10423 9.43486,0.30329 14.15401,0.37042 7.48017,0.0716 14.78018,-1.39649 21.92815,-3.45978 7.4324,-2.18459 14.33768,-5.7159 20.92622,-9.729 9.097,-6.2375 17.18641,-13.78849 25.1754,-21.35374 1.98433,-2.00685 3.96867,-4.01371 5.953,-6.02057 24.81678,-25.18188 -10.79578,-60.27811 -35.61257,-35.09622 v 0 c -1.58557,1.61556 -3.17114,3.23113 -4.75671,4.8467 -5.54009,5.26967 -11.1453,10.46184 -17.17641,15.17237 -2.68876,1.79628 -5.6489,3.24204 -8.7222,4.24318 -2.35327,0.74618 -4.74357,1.36398 -7.23163,1.3994 -3.9118,-9e-5 -7.82266,-0.27903 -11.73588,-0.2885 -2.84869,-0.15018 -5.68858,-0.39817 -8.49679,-0.91789 -2.93918,-0.96144 -5.37066,-2.77591 -7.81931,-4.64156 -27.82434,-21.81297 -58.67255,17.53659 -30.84821,39.34957 z"/>
</svg>
