<?xml version="1.0" ?>
<svg xmlns="http://www.w3.org/2000/svg" width="500" height="1000">
<path d="m 91.873855,451.21888 c 2.12745,0.48307 4.408095,1.16284 6.097081,2.62337 0.891705,0.77109 1.517875,1.80418 2.269334,2.71249 7.70547,9.45638 10.67321,21.61695 13.61347,33.19408 4.46919,21.55903 5.20583,43.64977 6.11918,65.57997 0.98294,21.41088 0.58481,42.9223 2.68822,64.27573 0.46294,4.69971 1.16665,9.37259 1.74998,14.05889 4.19705,24.72605 10.71817,49.01401 18.70808,72.76736 5.85128,16.83192 13.52901,33.03378 23.59785,47.7697 1.83123,2.68005 3.83106,5.24091 5.7466,7.86137 8.06456,9.96982 17.70839,18.50638 29.00419,24.64382 6.35395,3.45234 9.0493,4.20107 15.6914,6.67556 13.28989,4.00247 27.04126,3.97142 40.16558,-0.77529 8.81011,-3.18637 11.91874,-5.72237 19.74444,-10.64733 17.85041,-13.31782 31.52037,-31.07905 43.43733,-49.69994 2.68068,-4.18871 5.19301,-8.4828 7.78952,-12.7242 6.89593,-12.98232 9.40101,-16.73196 14.69551,-30.89705 2.35415,-6.29837 4.18024,-12.78168 6.27036,-19.17251 10.82979,-33.65585 -36.76676,-48.97148 -47.59654,-15.31564 v 0 c -1.58173,5.02021 -2.96137,10.10861 -4.74519,15.06061 -4.03623,11.20487 -5.87195,13.8817 -11.30134,24.27357 -10.20332,16.77086 -20.66132,33.85918 -35.89113,46.61296 -3.43211,2.42969 -8.43106,6.69529 -13.02414,6.5765 -0.87769,-0.0227 -1.74149,-0.22495 -2.61224,-0.33742 -3.62252,-1.20936 -7.35268,-2.42503 -10.61628,-4.47204 -4.09117,-2.56608 -7.63072,-5.93027 -10.81156,-9.53318 -1.29145,-1.71569 -2.649,-3.38358 -3.87436,-5.14708 -7.85684,-11.30735 -13.8043,-23.77357 -18.30334,-36.76486 -6.99907,-20.5818 -12.57936,-41.66584 -16.47396,-63.06065 -0.49346,-3.78366 -1.09828,-7.55445 -1.48037,-11.35098 -2.098,-20.84601 -1.57961,-41.8618 -2.60215,-62.76391 -1.06592,-25.46341 -2.07832,-51.10627 -7.68154,-76.06418 -1.01436,-3.84177 -1.90864,-7.71727 -3.04308,-11.52531 -4.87156,-16.35259 -12.02819,-32.09283 -23.8102,-44.65379 -2.16575,-2.03629 -4.19494,-4.22837 -6.49725,-6.10887 -8.42691,-6.88301 -18.57887,-11.17752 -29.242263,-13.06257 -34.924584,-5.50214 -42.705776,43.88868 -7.781192,49.39082 z"/>
<path d="m 333.57081,417.40158 c -6.347,15.09372 -10.37362,30.96785 -13.87874,46.91533 -5.3667,25.86933 -6.99582,52.27037 -8.29062,78.59366 -0.86412,28.41385 -1.8815,56.80969 -3.5291,85.18947 -1.47782,24.4371 -3.55036,48.85989 -3.82868,73.35386 -0.0545,4.79505 0.0319,9.59067 0.0479,14.386 0.61624,24.93826 2.4508,49.82153 2.71238,74.76847 0.34814,21.87669 -3.7865,43.34438 -8.51843,64.58759 -4.5956,17.27725 -9.87367,34.51527 -16.94425,50.96615 -1.19979,2.7915 -2.55321,5.51442 -3.82982,8.27163 -5.388,10.67524 -11.01645,21.43714 -19.03126,30.42333 -1.07051,1.20025 -2.25015,2.29851 -3.37523,3.44776 -6.64817,6.07371 -15.2692,7.06852 -23.86551,7.94069 -13.98218,0.93517 -28.17795,0.38406 -41.84743,-2.93106 -2.74834,-0.66653 -5.43112,-1.57903 -8.14668,-2.36854 -10.16508,-3.5032 -20.01301,-8.31712 -26.92069,-16.85034 -5.10129,-6.30174 -6.55275,-10.42632 -10.26905,-17.91888 -1.8864,-4.85985 -3.77279,-9.7197 -5.65919,-14.57956 -13.09266,-32.84177 -59.537947,-14.32596 -46.44529,18.51582 v 0 c 2.631776,6.47359 5.263552,12.94718 7.895328,19.42077 7.803532,14.23424 9.350222,19.21017 20.268062,31.02644 12.90611,13.96816 29.83378,22.72463 47.68192,28.54307 4.0923,1.11176 8.14315,2.38916 12.27691,3.33516 18.68514,4.2761 38.03096,4.9769 57.08123,3.456 8.91698,-1.1528 12.38241,-1.2412 20.99312,-3.7578 12.57976,-3.67662 23.86623,-10.28574 33.24162,-19.43052 1.98827,-2.13451 4.05969,-4.19447 5.96479,-6.40352 10.58686,-12.27595 18.48588,-26.54205 25.6043,-41.02237 1.61058,-3.53709 3.309,-7.03549 4.83174,-10.61127 8.06556,-18.93993 14.14514,-38.74432 19.30823,-58.64221 5.52496,-24.98741 10.13643,-50.26292 9.70248,-75.97557 -0.29151,-24.8297 -1.97746,-49.59899 -2.7097,-74.41645 -0.0214,-4.29744 -0.10946,-8.59506 -0.0641,-12.89231 0.25302,-23.95779 2.34067,-47.84326 3.76133,-71.7459 1.65465,-28.52958 2.70058,-57.07475 3.55315,-85.63904 1.14991,-23.5669 2.49182,-47.21569 7.20404,-70.39466 2.79299,-12.95212 5.99299,-25.85094 11.09148,-38.12154 13.74592,-32.57376 -32.32034,-52.01342 -46.06625,-19.43966 z"/>
</svg>
