<?xml version="1.0" ?>
<svg xmlns="http://www.w3.org/2000/svg" viewBox="0 0 1000 1000">
<path d="m 176.693968,653.59953 c 4.446651,-1.6675 9.029342,-3.00954 13.339951,-5.0025 4.493214,-2.07739 8.742785,-4.65299 13.001621,-7.17625 10.95046,-6.48787 24.9997,-16.00565 35.42796,-22.64257 27.69032,-17.62312 22.72495,-14.29292 52.95014,-31.68984 48.51828,-26.76538 99.80083,-48.2526 153.0128,-63.73906 33.94156,-9.87813 43.73169,-11.12932 77.71342,-17.96777 11.72873,-1.51374 23.41047,-3.45192 35.18621,-4.54121 34.03516,-3.14837 72.44602,-3.41471 104.83522,9.28061 5.07013,1.9873 9.69932,4.95436 14.54898,7.43154 3.45673,2.87989 7.22615,5.4213 10.37018,8.63966 8.9738,9.18595 14.41713,21.25075 15.90783,33.97986 1.65608,14.14135 -0.40029,21.46044 -2.36744,35.93464 -2.35391,7.52682 -4.13684,15.2566 -7.06174,22.58046 -6.61185,16.55584 -18.66935,37.88304 -28.11126,52.58827 -13.3152,20.73768 -25.08035,35.93919 -41.46856,54.42162 -7.86087,8.86539 -16.29193,17.20835 -24.43789,25.81252 -36.36857,38.59828 18.21765,90.0312 54.58621,51.43292 v 0 c 9.25701,-9.86575 18.85867,-19.41907 27.77101,-29.59725 18.75052,-21.41367 33.28813,-40.39597 48.42975,-64.44642 12.98502,-20.625 27.08563,-46.52722 35.3297,-69.554 4.12052,-11.50912 6.36858,-23.60499 9.55287,-35.40749 2.41878,-27.94146 5.41127,-37.86128 -0.41836,-65.42498 -5.94743,-28.12071 -21.24701,-53.67095 -42.91224,-72.46973 -7.11463,-6.17331 -15.39623,-10.85665 -23.09434,-16.28498 -8.65183,-3.91076 -17.01832,-8.52679 -25.95549,-11.73229 -42.79598,-15.3497 -90.58514,-15.9005 -135.29257,-11.5435 -13.4905,1.31473 -26.8691,3.59723 -40.30365,5.39585 -37.58505,7.67425 -48.39383,9.08368 -85.8981,20.11454 -58.20531,17.11949 -114.30724,40.75293 -167.38453,70.12236 -10.38547,5.99749 -20.8696,11.82731 -31.15641,17.99249 -17.66923,10.58967 -27.386412,17.31938 -44.05609,28.03767 -4.212392,2.70849 -8.440108,5.39363 -12.695773,8.03361 -2.185273,1.35562 -4.694845,2.25357 -6.625541,3.95226 -0.528914,0.46536 1.408929,0.0118 2.113393,0.0177 -51.937902,10.72168 -36.775163,84.17296 15.162739,73.45129 z"/>
</svg>
