<?xml version="1.0" ?>
<svg xmlns="http://www.w3.org/2000/svg" width="800" height="1000">
<path d="m 154.2651,211.03296 c 0.34386,26.55916 0.7576,53.13188 2.49595,79.6448 0.65976,10.0626 1.56849,20.10733 2.35274,30.161 1.18364,11.3052 2.2232,22.6264 3.55091,33.91559 2.72997,23.2124 6.79759,51.75235 10.29545,74.78599 4.06141,26.7446 8.09089,51.99653 13.34462,78.55123 2.57172,12.99862 5.56095,25.91114 8.34143,38.86671 12.01172,50.13931 25.28783,100.29043 45.42297,147.88071 2.71892,6.42629 5.77027,12.7068 8.65541,19.0602 9.68858,19.04215 4.89176,10.16807 14.25093,26.69718 26.26291,46.07342 91.42056,8.93206 65.15765,-37.14135 v 0 c -7.22557,-12.56327 -3.44754,-5.68552 -11.18687,-20.71346 -2.4032,-5.22577 -4.95204,-10.38698 -7.20959,-15.67729 -18.6384,-43.67689 -30.61646,-89.84546 -41.76799,-135.87967 -2.62394,-12.16635 -5.44898,-24.29105 -7.87181,-36.49904 -5.11874,-25.79192 -8.9674,-49.96486 -12.91941,-75.95202 -3.32466,-21.86189 -7.30974,-49.73716 -9.92351,-71.81744 -1.25868,-10.63301 -2.24669,-21.29632 -3.37003,-31.94448 -0.74022,-9.37398 -1.59868,-18.73938 -2.22066,-28.12195 -1.67307,-25.2382 -2.05285,-50.53395 -2.39819,-75.81671 0,-53.03301 -75,-53.03301 -75,0 z"/>
<path d="m 448.01462,166.80652 c -0.267,1.33443 -0.4357,2.69236 -0.80102,4.00329 -1.68966,6.06322 -5.03714,14.89049 -7.12968,20.21315 -2.37717,6.04666 -4.80389,12.07505 -7.34957,18.05272 -6.48918,15.23766 -15.43834,34.64154 -22.1733,49.45171 -30.69995,67.05517 -67.97317,130.76718 -104.51357,194.73224 -25.98501,44.25004 -12.43673,21.52288 -38.30561,64.25147 -13.08521,21.61333 -20.53668,34.30577 -34.02303,55.25414 -9.91861,15.40659 -18.61348,27.97059 -28.85557,42.9971 -9.22781,12.83486 -17.88208,26.28813 -28.94354,37.68721 -5.23926,5.39917 -11.26253,9.6152 -17.50178,13.72802 -1.12562,0.63404 -4.80857,2.93651 -6.61355,3.33736 -1.57524,0.34983 0.85521,-0.80228 0.97396,-1.17971 0.072,-0.22889 -0.93439,-0.7318 -1.66649,-1.14892 -0.66831,-0.885 -1.0882,-1.50754 -2.01054,-2.28523 -11.72521,-9.88635 4.271,4.48712 -11.10462,-8.96043 -6.90451,-6.03869 -6.81601,-6.27758 -12.98262,-12.89807 -8.54992,-10.30269 -15.35724,-22.38184 -18.11894,-35.60255 -0.56391,-2.69951 -0.81424,-5.45513 -1.22136,-8.18269 -0.12996,-3.10607 -0.61156,-6.21733 -0.38988,-9.3182 0.39338,-5.50261 3.36596,-13.97727 5.4325,-18.62773 5.27574,-11.87231 9.75299,-18.84115 18.18682,-29.27504 5.30038,-6.55736 11.18042,-12.62417 16.77063,-18.93626 32.94782,-33.54443 69.85287,-63.16026 109.67874,-88.16912 28.24837,-17.7387 42.27173,-24.20715 72.01564,-39.61306 44.83761,-21.43824 90.91638,-41.37697 140.30582,-49.4147 26.89385,-4.37676 33.26151,-3.4673 59.66426,-3.67433 21.26559,1.93601 40.43847,4.41753 57.83726,17.81714 8.38458,6.45735 18.45246,18.23955 24.00646,26.99336 3.44029,5.42235 5.89282,11.41158 8.83923,17.11738 1.69901,6.29984 3.9719,12.47234 5.09701,18.89953 2.57222,14.69382 2.74941,35.559 1.98562,49.9965 -1.16784,22.07502 -3.73318,38.87474 -8.55107,60.44925 -2.22388,9.95853 -5.12691,19.75314 -7.69037,29.62971 -7.31311,25.42137 -17.098,50.11359 -29.83507,73.31803 -5.96337,10.8641 -11.6662,20.10909 -20.01699,29.16094 -2.6336,2.85469 -5.77974,5.18989 -8.66961,7.78484 -2.11517,0.9566 -4.09634,2.29515 -6.34551,2.86982 -1.50595,0.38478 -7.66566,-0.48195 -8.94811,-1.02071 -1.14544,-0.4812 -1.92477,-1.57528 -2.94309,-2.28705 -20.36945,-14.23761 12.68275,9.6887 -15.3491,-10.78705 -12.71121,-10.44221 -21.35014,-23.23601 -27.02206,-38.62244 -3.67923,-9.9808 -4.1761,-14.07131 -6.42255,-24.47297 -0.97651,-7.57429 -2.38042,-12.03701 -0.88728,-19.24691 0.32248,-1.55716 1.15814,-2.96554 1.85098,-4.39686 0.74,-1.52873 1.22282,-3.2895 2.44205,-4.47192 0.39432,-0.38241 0.98974,0.50084 1.52487,0.62478 0.72392,0.16767 1.47741,0.1611 2.21611,0.24166 2.10502,-0.199 11.07768,-1.05633 11.75406,-1.06221 19.9486,-0.17346 38.89813,6.84286 57.4459,13.29882 6.1143,2.6372 12.29933,5.1161 18.34289,7.9116 10.92604,5.05394 28.02867,13.92963 38.63586,19.58364 11.96387,6.37717 23.54664,12.65517 35.01249,19.88165 4.62024,2.91196 9.05685,6.10556 13.58528,9.15834 14.47156,10.89907 7.64955,5.53457 20.51974,16.02499 41.18981,33.40508 88.43173,-24.84611 47.24192,-58.25119 v 0 c -16.23635,-13.11475 -7.57836,-6.37814 -26.05359,-20.10708 -5.69174,-3.78567 -11.2815,-7.72932 -17.07521,-11.35702 -12.49308,-7.82248 -25.57133,-14.9467 -38.57611,-21.86333 -12.55839,-6.6792 -31.13388,-16.28384 -43.93481,-22.08631 -7.73361,-3.50552 -15.65337,-6.58498 -23.48005,-9.87747 -18.23835,-6.12763 -28.10843,-10.14991 -47.12762,-13.69417 -22.55436,-4.20305 -46.36002,-5.21718 -68.5188,1.85579 -7.05912,2.25323 -13.5903,5.91074 -20.38545,8.86612 -5.86716,4.64162 -12.4495,8.50035 -17.6015,13.92485 -13.94556,14.68317 -20.95007,34.49133 -22.80487,54.33931 -1.41588,15.15112 0.59045,22.7782 2.77794,37.49849 3.93822,16.49862 4.89063,23.27334 11.46456,39.2014 8.49012,20.57084 20.51515,39.19611 36.36143,54.88258 5.12253,5.07087 10.9167,9.41498 16.37504,14.12247 14.22536,9.39236 22.88829,16.47647 39.6439,21.67752 23.71942,7.36266 46.89482,5.47202 69.15378,-5.56044 6.87084,-3.40548 12.75964,-8.50967 19.13946,-12.76451 5.3391,-5.32614 11.0779,-10.27965 16.0173,-15.97843 11.1389,-12.85138 19.75939,-26.66866 27.81072,-41.60477 15.0578,-27.9339 26.65435,-57.59079 35.33256,-88.09318 2.94002,-11.59499 6.30799,-23.0898 8.82005,-34.78497 5.50015,-25.60655 8.77451,-47.98323 9.76947,-74.18009 0.87578,-23.059 -0.0976,-49.52126 -5.40583,-72.12397 -2.64958,-11.28202 -7.41333,-21.96042 -11.12,-32.94062 -14.03916,-24.21739 -16.80358,-32.78909 -36.98645,-52.56043 -16.9207,-16.57568 -33.13739,-27.52528 -55.30108,-36.00725 -24.66351,-9.43864 -38.92507,-9.16437 -65.04565,-11.91918 -33.07599,0.6586 -41.14739,-0.37929 -74.5717,5.39318 -55.83582,9.643 -108.15577,31.59997 -158.87787,56.13202 -33.36985,17.38069 -47.71641,23.95927 -79.51771,44.08303 -45.23923,28.62725 -87.09954,62.54884 -124.245595,101.09558 -17.710233,20.71632 -25.992515,28.2581 -39.214879,51.75019 -7.868736,13.98032 -14.391926,31.30922 -17.356955,47.14963 -1.361677,7.27464 -1.897747,14.7118 -2.008068,22.11197 -0.08789,5.89533 0.943719,11.75415 1.415578,17.63123 1.08659,5.54517 1.866982,11.15922 3.259768,16.63551 6.214872,24.43622 19.035598,46.65139 35.553284,65.52285 3.317191,3.43999 6.521593,6.99243 9.951574,10.31996 5.536919,5.37155 13.354364,12.05137 19.553563,16.75881 7.51788,5.7088 14.53453,10.61634 23.25218,14.4804 4.19702,1.8603 8.69083,2.96181 13.03625,4.44272 10.4947,1.72171 13.95472,2.93877 24.61982,2.12889 14.46593,-1.09852 27.53749,-6.84398 39.53451,-14.70095 8.50912,-5.89499 12.26381,-8.15579 20.32282,-15.32 18.13856,-16.12462 32.17175,-36.00832 45.89178,-55.85756 11.12817,-16.3366 19.56653,-28.51655 30.40639,-45.36812 13.7451,-21.36804 21.37742,-34.34377 34.6465,-56.26552 26.37625,-43.57602 12.84917,-20.88452 39.27498,-65.89928 37.68489,-65.9692 76.05405,-131.714 107.66547,-200.8935 7.39761,-16.2753 16.36795,-35.70117 23.39576,-52.29483 7.39136,-17.45207 14.62602,-35.21715 18.89502,-53.74224 0.736,-3.19383 1.03922,-6.47218 1.55883,-9.70826 4.96111,-52.80045 -69.71,-59.81651 -74.67111,-7.01606 z"/>
</svg>
