<?xml version="1.0" ?>
<svg xmlns="http://www.w3.org/2000/svg" width="800" height="1000">
<path d="m 91.794444,196.49273 c 4.436293,6.74425 5.070812,14.89936 5.859035,22.72409 1.430748,31.21124 -4.216443,62.21133 -9.196118,92.89159 -5.283166,31.31418 -10.594582,62.65667 -13.839299,94.26352 -2.421417,23.58707 -2.326012,27.40596 -3.579214,51.15627 -1.268179,34.15113 0.189332,68.32659 3.185194,102.35017 1.639581,18.6205 3.02359,29.60204 5.146345,48.06544 4.044902,37.01594 12.02873,73.38296 20.680883,109.54181 3.25155,13.81854 6.63495,27.60519 10.07745,41.37706 5.31834,21.09601 14.82458,32.75298 51.48611,29.86919 18.59916,-1.46301 21.93957,-22.01184 25.51034,-35.17734 0.91607,-3.37754 1.88556,-6.74036 2.82834,-10.11054 6.62319,-20.98516 11.28457,-42.47719 16.02082,-63.93979 11.37908,-51.79785 -61.87414,-67.89029 -73.25321,-16.09245 v 0 c -4.3961,20.11237 -8.77063,40.23836 -15.01081,59.88477 -1.07912,3.87978 -2.18937,7.75104 -3.23736,11.63935 -0.44753,1.66047 -2.59325,6.07819 -1.24888,5.00574 7.91059,-6.31059 11.53133,-21.36227 21.65034,-21.28078 17.54679,0.14131 31.93161,14.56059 47.89741,21.84088 0.25305,0.89699 0.22919,1.92431 0.75914,2.69097 0.49312,0.71338 -0.42789,-1.68084 -0.64183,-2.52126 -3.38281,-13.52786 -6.70418,-27.07108 -9.89834,-40.64505 -7.95762,-33.23232 -15.4082,-66.63572 -19.11278,-100.66241 -5.28095,-45.78351 -9.82441,-91.79049 -7.93993,-137.94921 1.09064,-21.41998 0.99931,-24.92784 3.16502,-46.26906 3.09843,-30.53236 8.30515,-60.79531 13.38895,-91.04294 6.09453,-37.68366 12.65628,-75.82016 9.58961,-114.12956 -0.64906,-4.76793 -1.08765,-9.56926 -1.9472,-14.30377 -2.45488,-13.5217 -7.11593,-26.66323 -14.38295,-38.34929 -27.69921,-45.22448 -91.65628,-6.05188 -63.957066,39.1726 z"/>
<path d="m 300.70452,365.67187 c 18.06589,-6.30357 35.59427,-14.03254 53.93488,-19.56283 5.95787,-1.79649 11.9946,-3.32025 17.9919,-4.98038 37.37629,-9.35894 75.54327,-15.24298 113.87839,-18.88603 7.91778,-0.75245 15.85382,-1.2985 23.78073,-1.94775 7.50649,-0.42832 15.00849,-0.94446 22.51947,-1.28496 14.32749,-0.64953 23.7055,-0.8329 37.84744,-0.59012 14.53147,0.24947 29.0251,1.17978 43.52174,2.14042 7.79079,0.54555 15.57391,1.19052 23.35581,1.84839 52.84474,4.46466 59.15872,-70.26909 6.31398,-74.73376 v 0 c -8.23959,-0.69573 -16.48051,-1.37741 -24.72969,-1.95175 -16.09524,-1.05866 -32.18573,-2.06171 -48.32005,-2.30317 -15.60815,-0.23358 -26.59085,-0.0135 -42.29985,0.71397 -8.12823,0.37643 -16.24655,0.94297 -24.36982,1.41446 -8.56525,0.71011 -17.14054,1.30809 -25.69576,2.13035 -42.4236,4.07738 -84.65028,10.70886 -125.97948,21.21502 -7.1497,2.01217 -14.34698,3.86238 -21.4491,6.03652 -17.59979,5.38773 -34.62191,12.35473 -51.80749,18.8914 -50.80577,15.20767 -29.29888,87.05789 21.5069,71.85022 z"/>
<path d="m 495.2366,123.36976 c -4.68636,15.39038 -9.07999,30.85219 -13.15348,46.41813 -8.5436,35.06096 -12.36191,71.21164 -10.74112,107.28718 0.3826,8.51584 1.31135,16.99835 1.96702,25.49753 1.06485,8.44675 2.01795,16.90834 3.19456,25.34024 0.70106,5.02402 6.56888,42.49257 7.41946,47.95309 3.56426,22.88189 7.28402,45.72983 11.10299,68.57055 4.04732,25.53704 8.83085,51.08946 9.88396,76.98502 0.52833,12.99143 0.03,18.72823 -0.50248,31.65608 -0.8711,14.35402 -2.26804,28.75042 -6.4664,42.57251 -2.11092,6.9497 -6.3145,16.95083 -9.46283,23.4192 -1.83856,3.77737 -3.95214,7.41456 -5.92821,11.12185 -8.45869,13.59714 -18.82139,26.01569 -30.36538,37.10685 -7.37744,7.08806 -10.53192,9.31766 -18.51477,15.70991 -16.62837,12.29669 -34.567,23.01202 -53.52784,31.32556 -3.43823,1.50752 -6.95677,2.82481 -10.43515,4.23721 -6.64615,2.09673 -13.50575,5.22156 -20.67396,4.57453 -3.43245,-0.30982 -6.13625,-2.06094 -9.04597,-3.71746 -2.90178,-2.05151 -4.19811,-2.75857 -6.67317,-5.35077 -4.59836,-4.81599 -7.74075,-11.15045 -10.87932,-16.93007 -4.96723,-10.50286 -10.17048,-21.19945 -12.79178,-32.58467 -0.0636,-0.61088 -0.21684,-1.21902 -0.1908,-1.83265 0.0168,-0.39558 0.49423,0.67114 0.52407,1.06595 0.0442,0.58405 -0.20248,2.78301 0.0465,2.94536 0.29731,-0.5734 0.57133,-1.1595 0.89193,-1.72022 0.11881,-0.20779 0.21152,-0.46848 0.42329,-0.58004 0.53712,-0.28295 -2.02304,3.40809 -1.99021,3.4435 0.31172,0.33627 0.87287,-0.28124 1.3093,-0.42187 10.86094,-4.57782 22.91085,-4.62839 34.50224,-4.86454 23.95688,0.49489 47.58121,5.19081 70.70362,11.20646 6.19207,1.61096 12.32743,3.43255 18.49114,5.14882 32.39184,9.96914 64.15188,22.0761 94.94887,36.23133 5.44308,2.50181 10.80944,5.16725 16.21416,7.75088 19.69104,9.85357 39.05977,20.40812 57.56228,32.35969 44.58704,28.71403 85.19481,-34.34158 40.60776,-63.0556 v 0 c -21.20482,-13.62337 -43.30121,-25.8083 -65.88139,-36.99784 -6.05497,-2.88243 -12.068,-5.85466 -18.16491,-8.6473 -34.13566,-15.63556 -69.33711,-28.99775 -105.25801,-39.91735 -7.02559,-1.93867 -14.01834,-4.00051 -21.07676,-5.81601 -29.50224,-7.58827 -59.69551,-13.10705 -90.24471,-13.23373 -4.71606,0.15607 -9.43918,0.16662 -14.14817,0.46821 -18.55894,1.18862 -37.01713,4.85775 -53.71798,13.28025 -7.62643,4.3397 -10.79096,5.62333 -17.51409,11.70464 -6.71966,6.07818 -11.67262,13.62162 -15.52641,21.74009 -2.27689,5.1306 -3.69419,7.80067 -5.12434,13.43465 -2.94462,11.60014 -2.78896,23.45569 -0.003,35.0691 0.68882,2.55862 1.30344,5.13838 2.06646,7.67586 4.45236,14.80668 10.91309,29.00343 17.88554,42.76151 4.47566,7.86992 6.59917,12.12215 12.02143,19.49935 11.38228,15.48602 24.79064,27.0089 42.14582,35.40017 12.59855,4.81684 15.87063,6.93626 29.46993,8.6016 19.82524,2.42776 39.23457,-2.29755 57.62592,-9.33244 4.67951,-1.94387 9.41164,-3.76565 14.03854,-5.83163 24.32899,-10.86324 47.33993,-24.72892 68.57219,-40.7918 4.27222,-3.48488 8.65017,-6.844 12.81666,-10.45463 21.78511,-18.87872 40.70564,-41.05187 55.34199,-65.90692 7.1653,-13.88853 10.00131,-18.42564 15.5835,-33.1718 2.35908,-6.23186 4.55555,-12.53746 6.35405,-18.9536 5.19969,-18.54982 7.33235,-37.71421 8.40389,-56.88986 0.60473,-17.0149 1.14628,-22.75212 0.35842,-39.95884 -1.29172,-28.21096 -6.20987,-56.08037 -10.71265,-83.90371 -3.77453,-22.57158 -7.45006,-45.15002 -10.97239,-67.7624 -0.44256,-2.84111 -6.664,-42.63714 -7.12727,-45.89296 -1.03419,-7.26802 -1.88724,-14.56067 -2.83086,-21.84101 -0.57828,-6.87135 -1.37498,-13.72781 -1.73483,-20.61406 -1.5318,-29.31263 1.44924,-58.70725 8.317,-87.22298 4.20511,-16.14898 8.99653,-32.11172 13.58366,-48.1498 12.17235,-51.617184 -60.82538,-68.831486 -72.99773,-17.2143 z"/>
<path d="m 691.70298,166.89731 c -2.61802,-3.30378 -5.03588,-6.77655 -7.85406,-9.91132 -2.65245,-2.45622 -7.74194,-6.99279 -10.40243,-9.99195 -2.58191,-2.91059 -4.66766,-5.77606 -6.36352,-9.29075 -0.90741,-1.88063 -1.54477,-3.87999 -2.31715,-5.81999 -3.91935,-11.64739 -6.15184,-22.67056 -1.90883,-34.619813 0.80822,-2.276125 1.81495,-4.516562 3.17065,-6.515569 0.99621,-1.468918 2.5245,-2.495489 3.78675,-3.743233 1.46176,-0.951525 2.7727,-2.189925 4.38526,-2.854575 1.28877,-0.531189 2.74457,-0.503084 4.13018,-0.655231 6.17335,-0.677863 12.53426,-0.793078 18.21177,2.223029 1.68291,0.894029 3.0555,2.27813 4.58325,3.417195 3.5937,3.558797 7.03495,6.180452 8.98568,11.026727 0.52867,1.31339 0.26732,2.81917 0.3712,4.23116 0.31147,4.23364 0.88216,7.18496 -0.53431,11.28091 -0.46909,1.35646 -1.46716,2.4673 -2.20074,3.70095 -3.6144,6.33545 -7.06886,12.88328 -12.78684,17.62236 -4.53858,3.76158 -10.12492,6.0019 -15.56034,8.0501 -1.27442,0.29371 -2.54885,0.58742 -3.82328,0.88113 -50.74435,15.4114 -28.94935,87.17474 21.795,71.76335 v 0 c 4.07694,-1.33153 8.15389,-2.66307 12.23083,-3.9946 11.88268,-5.51243 16.89468,-7.14034 27.75275,-15.25001 14.84564,-11.0879 26.46596,-24.78603 34.86464,-41.31024 3.04606,-5.99306 5.34241,-12.33856 8.01361,-18.50784 1.57057,-7.44075 4.01452,-14.74957 4.7117,-22.32224 2.05611,-22.333302 -4.57998,-45.772223 -17.23188,-64.175963 -11.01329,-16.020194 -19.17609,-19.757437 -34.75274,-30.903931 -7.41229,-3.052019 -14.52196,-6.979578 -22.23687,-9.156057 -21.808,-6.1523277 -46.78281,-4.0543679 -67.44183,5.117035 -7.29486,3.238494 -14.21971,7.445345 -20.50395,12.365831 -5.71019,4.47101 -10.12457,10.386428 -15.18685,15.579642 -3.96301,6.517371 -8.65946,12.641871 -11.88903,19.552112 -9.35366,20.01382 -11.39308,42.797371 -8.56861,64.471401 1.81999,13.966 5.15027,21.46886 9.69112,34.48993 2.46845,4.99211 4.6244,10.15133 7.40537,14.97633 4.66967,8.10191 9.96464,14.65934 16.24952,21.46929 2.16583,2.34678 4.50113,4.53252 6.81569,6.73273 0.6884,0.65439 2.45945,2.73583 2.18762,1.82576 -0.55554,-1.85986 -2.0749,-3.2811 -3.11234,-4.92165 26.04417,46.19742 91.37718,9.3654 65.33301,-36.83201 z"/>
</svg>
