<?xml version="1.0" ?>
<svg xmlns="http://www.w3.org/2000/svg" width="800" height="1000">
<path d="m 135.50025,551.13442 c 0.72388,-2.15216 1.52251,-4.28061 2.17163,-6.45648 2.86553,-9.60527 2.79966,-11.55348 6.21039,-21.2662 1.62449,-4.62605 3.50123,-9.15977 5.29284,-13.72371 8.61513,-21.94609 5.9213,-15.17926 15.88814,-37.85528 10.74322,-20.98073 21.19909,-42.15405 33.25112,-62.43237 3.91727,-6.59108 8.05156,-13.0528 12.24652,-19.47071 8.64101,-13.21998 13.1157,-19.13277 22.09582,-31.55685 3.65448,-4.77141 9.62566,-13.27364 14.59919,-17.68338 0.94169,-0.83494 2.11893,-1.45203 3.33819,-1.76398 0.44766,-0.11454 1.52232,0.21188 1.25499,0.58879 -8.11539,11.44223 -1.11761,-2.4303 -4.42472,4.46195 15.94233,12.03948 30.56282,25.62991 44.99176,39.41069 18.6087,17.77277 20.30883,19.63209 38.96714,38.11874 31.78949,31.16389 64.70046,61.29283 99.49689,89.09008 20.76446,16.58776 34.01769,26.0871 55.24275,41.77722 41.22515,28.65 83.83216,55.55904 128.41762,78.71308 6.66938,3.46353 13.45997,6.68849 20.18996,10.03273 6.92772,3.13403 13.85545,6.26806 20.78317,9.40209 48.34242,21.80622 79.18106,-46.56028 30.83865,-68.36649 v 0 c -6.10516,-2.74482 -12.21031,-5.48964 -18.31546,-8.23446 -5.95042,-2.94066 -11.95768,-5.76898 -17.85125,-8.82197 -41.4788,-21.4868 -81.10314,-46.49442 -119.49437,-73.04633 -19.71114,-14.55573 -32.84288,-23.978 -52.07183,-39.30018 -33.05778,-26.34141 -64.27754,-54.96043 -94.45496,-84.52943 -17.84024,-17.66803 -22.46207,-22.42601 -40.34882,-39.45278 -6.21415,-5.91538 -12.38894,-11.87604 -18.76549,-17.616 -9.95575,-8.96184 -25.31507,-22.20843 -36.85723,-29.21934 -6.52791,-3.96516 -13.68675,-6.78362 -20.53013,-10.17543 -7.75438,-1.49315 -15.36753,-4.34113 -23.26316,-4.47946 -21.26627,-0.37258 -38.06509,9.07777 -52.88339,23.22994 -6.91483,6.60397 -13.94996,16.46818 -19.68064,23.98011 -10.06075,13.96583 -15.16332,20.72844 -24.83618,35.62941 -19.02672,29.3105 -35.2327,60.26846 -50.627944,91.60726 -8.603926,19.68025 -17.196147,39.40341 -24.203367,59.72984 -5.335805,15.47801 -2.716251,9.09049 -5.683811,19.61471 -0.349724,1.24027 -0.792908,2.45226 -1.189363,3.67839 -18.657574,49.64268 51.547775,76.02847 70.205345,26.3858 z"/>
<path d="m 558.50235,263.06981 c -0.42666,-0.0197 -1.00757,0.26988 -1.27999,-0.0591 -0.2513,-0.30345 0.79022,-0.1158 1.18041,-0.0611 2.23652,0.31324 4.66157,2.18464 6.67477,1.16134 1.34094,-0.68159 -2.39912,-1.8152 -3.59609,-2.72622 -8.45532,-6.43537 -4.75988,-3.09866 -11.49405,-10.13432 -4.01187,-5.76364 -4.70691,-6.09656 -7.41607,-12.80961 -1.161,-2.87687 -2.47197,-5.74973 -3.02046,-8.80316 -0.77175,-4.2963 1.17843,-9.07488 2.4264,-12.96261 1.10067,-3.42887 2.26321,-6.83758 3.39481,-10.25638 1.54742,-2.71495 2.76001,-5.65034 4.64226,-8.14485 2.75725,-3.65414 7.73361,-7.12237 11.86147,-8.95013 2.64293,-1.17025 5.35013,-2.71023 8.24053,-2.69903 2.11551,0.008 3.69352,2.14027 5.71834,2.7531 4.15278,1.25689 8.47103,1.88228 12.70655,2.82342 7.35738,3.12183 12.74423,4.47175 18.49216,10.06336 2.48891,2.42122 4.89758,8.46534 5.93464,11.53283 2.61113,7.72338 2.60473,5.2833 0.97666,11.01831 -0.67734,1.13979 -1.16662,2.41488 -2.03203,3.41935 -0.83739,0.97196 -1.98004,1.63262 -2.99574,2.41638 -1.5411,1.18919 -3.07173,2.39543 -4.67349,3.50156 -2.31266,1.59705 -4.60714,3.23841 -7.06372,4.60377 -6.78304,3.76999 -12.28168,5.61183 -19.55492,8.4528 -3.39711,1.09725 -6.79421,2.19449 -10.19132,3.29174 -50.32493,16.73024 -26.6648,87.90045 23.66013,71.17021 v 0 c 5.03301,-1.70529 10.06602,-3.41059 15.09903,-5.11588 14.73347,-6.25714 23.17434,-9.03578 36.75176,-18.38007 19.85704,-13.66607 36.00971,-32.41122 42.66494,-56.01923 2.15307,-7.63757 2.04877,-15.73772 3.07316,-23.60657 -1.11221,-7.82323 -1.33917,-15.82442 -3.33661,-23.46968 -1.78403,-6.82841 -4.61756,-13.39907 -7.92483,-19.63381 -8.28193,-15.61276 -17.22572,-26.77298 -31.56136,-37.3496 -16.14704,-11.91306 -26.24898,-13.58466 -45.11661,-19.89625 -25.75441,-3.56101 -34.75982,-7.14558 -61.97103,0.2881 -8.28608,2.26364 -15.80555,6.93765 -22.97893,11.66268 -13.828,9.10838 -24.63799,20.94316 -33.11421,35.09325 -3.85657,6.43812 -6.26023,13.64183 -9.39034,20.46274 -4.90869,18.42722 -8.61353,27.24464 -7.81063,47.18401 0.84881,21.07967 9.41916,41.38838 21.23886,58.55724 3.36081,4.88177 7.47762,9.1974 11.21642,13.79611 3.94839,3.6761 7.72458,7.54632 11.84516,11.02831 3.20429,2.7077 6.64026,5.13581 10.09675,7.51315 3.72029,2.55877 7.34925,5.33139 11.41972,7.28564 10.12638,4.86171 16.8299,7.0119 27.2075,6.99823 53.03301,0 53.03301,-75 0,-75 z"/>
</svg>
