<?xml version="1.0" ?>
<svg xmlns="http://www.w3.org/2000/svg" width="1000" height="1000">
<path d="m 358.59392,286.93072 c 1.22874,0.1263 2.45348,0.30073 3.68622,0.37888 11.43148,0.72476 22.90601,0.64957 34.35419,0.62206 16.11124,-0.0387 16.88882,-0.11903 33.57979,-0.41326 35.41062,-0.20229 70.41554,-5.63426 105.0961,-12.3014 7.83263,-1.58185 15.62623,-3.34567 23.41005,-5.14939 1.28603,-0.29801 2.56514,-0.62707 3.85695,-0.89891 0.13244,-0.0279 0.5409,-0.009 0.406,0.002 -2.43547,0.19656 -4.87275,0.3702 -7.30913,0.5553 -45.68981,-34.92523 -30.45456,-8.50554 -28.97673,-56.02298 0.0413,-1.32901 -1.80172,1.95607 -2.71731,2.92026 -2.26528,2.38557 -4.5383,4.76386 -6.82508,7.12883 -19.29533,19.955 -1.64862,1.40597 -24.66318,25.79985 -27.27876,29.27093 -52.94679,60.02739 -76.53726,92.3526 -18.3919,25.20178 -25.6621,36.77977 -43.0469,62.94237 -28.01837,43.18557 -54.37832,87.48765 -78.43645,133.00673 -10.44374,19.76005 -20.7503,40.76603 -30.71668,60.79873 -17.62386,36.00276 -35.60113,71.83747 -52.63686,108.12454 -16.335932,35.4029 -19.434462,28.70974 49.20862,62.73025 3.98528,1.97516 6.13953,-6.43749 9.2093,-9.65623 1.49434,-1.97311 3.0466,-3.90366 4.48301,-5.91934 6.94633,-9.74763 6.15198,-9.351 13.15708,-19.50747 3.91133,-5.6709 13.30342,-18.61734 17.21648,-23.62533 3.54845,-4.54135 7.29852,-8.92149 10.94777,-13.38223 23.40481,-27.36236 49.57487,-52.46171 78.42962,-74.04547 6.06279,-4.53505 12.36319,-8.74344 18.54478,-13.11517 6.45859,-3.80905 12.78415,-7.85326 19.37577,-11.42716 26.00931,-14.10193 54.9714,-25.68946 83.89228,-32.1252 6.57034,-1.46209 13.25871,-2.33128 19.88807,-3.49692 6.31353,-0.45805 12.6132,-1.18829 18.94059,-1.37413 23.08117,-0.67792 46.94406,2.17971 68.4739,10.89792 4.19956,1.70056 8.11868,4.0249 12.17802,6.03735 3.35805,2.38654 6.86672,4.57419 10.07417,7.15961 9.69308,7.81327 18.81267,17.56007 24.68784,28.63361 4.65553,8.77476 4.43501,11.6756 6.22369,21.30253 -0.0513,11.74291 0.48552,15.07005 -2.17991,27.26448 -4.36584,19.97376 -14.32218,40.65952 -24.44317,58.22953 -4.42632,7.68407 -9.46403,14.99938 -14.19605,22.49906 -16.59366,24.27081 -35.59993,46.76492 -57.78265,66.13465 -7.69434,6.71863 -16.00555,12.69622 -24.00832,19.04433 -41.36664,33.18585 5.56524,91.68712 46.93189,58.50126 v 0 c 9.77907,-7.91715 19.9427,-15.3816 29.33723,-23.75145 26.50784,-23.61659 49.32055,-50.84235 69.15155,-80.22663 5.77299,-9.33642 11.93946,-18.44071 17.31895,-28.00926 14.71562,-26.1748 27.18342,-54.50876 32.24944,-84.29904 4.16205,-24.47455 2.30153,-29.18708 0.39321,-53.5311 -2.26425,-8.14744 -3.80096,-16.53303 -6.79276,-24.44231 -10.4868,-27.7235 -31.75668,-52.51883 -55.48994,-69.8873 -6.29471,-4.6066 -13.15676,-8.38312 -19.73514,-12.57467 -7.08437,-3.19267 -13.98057,-6.84097 -21.25313,-9.57801 -30.78519,-11.58609 -64.54904,-15.63025 -97.28463,-14.15233 -8.78497,0.39662 -17.5183,1.56249 -26.27745,2.34373 -8.70032,1.6358 -17.47677,2.90876 -26.10098,4.90739 -35.2939,8.17925 -70.97857,22.55731 -102.63791,40.09357 -8.3001,4.59747 -16.25364,9.79452 -24.38047,14.69178 -7.23468,5.16267 -14.60807,10.13628 -21.70404,15.48801 -33.09752,24.96192 -63.14842,53.87971 -89.97867,85.44611 -13.26592,16.35055 -11.80123,14.06731 -23.40018,30.04995 -3.06324,4.22094 -6.08459,8.47288 -9.04643,12.76558 -3.60494,5.22479 -6.90307,10.65861 -10.55981,15.84728 -1.12197,1.59199 -2.3438,3.11121 -3.5157,4.66682 1.54267,-1.28392 2.94295,-4.94212 4.62801,-3.85177 20.1101,13.01254 47.63228,65.86664 56.96265,43.80567 2.10032,-4.96604 4.59708,-9.75486 6.75637,-14.6943 16.78892,-35.77543 34.53107,-71.09311 51.89539,-106.59041 9.29362,-18.68777 19.74309,-39.9696 29.46072,-58.38459 22.99866,-43.58262 48.22498,-85.9894 75.02194,-127.33622 16.24362,-24.48353 23.26564,-35.6607 40.38172,-59.18429 21.94881,-30.16547 45.86214,-58.8482 71.28569,-86.1409 29.04586,-30.81476 -1.10008,1.01916 24.44375,-25.56817 12.81384,-13.3373 32.15103,-30.95934 23.00931,-53.54926 -5.35055,-13.22165 -22.15484,-17.97012 -33.23226,-26.955174 -3.61171,0.09705 -7.23243,0.01826 -10.83512,0.291161 -1.93243,0.146381 -6.49814,1.277373 -8.5993,1.76478 -6.89232,1.598814 -13.79225,3.166743 -20.72538,4.580863 -30.43616,5.88211 -61.14353,10.82336 -92.23496,10.95801 -15.0013,0.26861 -29.99171,0.45641 -44.99569,0.37655 -4.64707,-0.0247 -9.30059,0.065 -13.93992,-0.20433 -1.17707,-0.0683 -2.34576,-0.24097 -3.51863,-0.36146 -52.74292,-5.53943 -60.57684,69.05031 -7.83393,74.58973 z"/>
</svg>
