<?xml version="1.0" ?>
<svg xmlns="http://www.w3.org/2000/svg" width="800" height="1000">
<path d="m 256.79736,65.767997 c -3.24161,18.140942 -3.79667,36.610163 -5.92901,54.881193 -0.82435,7.06337 -1.92395,14.0919 -2.88592,21.13785 -6.41601,38.7784 -15.84241,76.96891 -22.6649,115.67256 -5.22258,29.62743 -5.73311,35.99415 -9.66522,65.81343 -6.62762,54.61653 -8.63587,109.6262 -9.65127,164.5867 -0.38605,25.70585 -0.34201,51.41519 -0.20366,77.12269 0.25746,34.44955 -3.45568,18.06715 75.10993,8.94709 2.05119,-0.23811 10e-4,-4.12995 0.0142,-6.19488 0.0204,-3.31538 0.0569,-6.63064 0.0853,-9.94596 -0.47897,-14.9505 2.75178,-28.56672 6.55229,-42.90378 1.82919,-6.9004 3.76891,-13.77136 5.73154,-20.635 7.65823,-26.78208 5.5865,-19.58376 14.80736,-46.51902 12.97901,-33.50936 26.67906,-66.73879 42.73837,-98.9043 3.73807,-7.48706 7.45371,-14.99204 11.52379,-22.30392 3.66644,-6.58674 7.78225,-12.9131 11.67337,-19.36965 14.05912,-21.04186 28.61055,-41.70705 47.48978,-58.74959 3.2669,-2.94907 6.53726,-5.92942 10.14465,-8.45062 2.30637,-1.61192 4.9982,-2.58621 7.4973,-3.87932 1.7437,-0.16076 3.48042,-0.52098 5.23109,-0.48228 1.27821,0.0283 6.53458,0.78527 7.72368,2.13147 0.45751,0.51795 -0.57131,1.47485 -0.20805,2.06274 1.20999,1.95827 3.13407,3.37365 4.64188,5.11301 2.50548,2.89027 4.93073,5.84914 7.39609,8.7737 2.45564,3.64719 5.16333,7.13679 7.36692,10.94157 10.65831,18.40299 15.7505,40.79504 18.81844,61.62106 0.99379,6.74615 1.5996,13.54378 2.39941,20.31567 0.5479,7.30115 1.21031,14.59461 1.6437,21.90345 0.46332,7.81354 0.78442,15.6356 1.04612,23.45849 0.53139,15.88492 0.97171,31.41351 -0.2585,47.28816 -1.54602,19.94983 -3.6062,27.33181 -7.47899,46.91325 -4.18117,17.70184 -7.0836,31.48079 -12.59055,48.83871 -4.14162,13.05437 -12.41356,34.38847 -17.90308,46.79891 -9.02659,20.40688 -12.35544,25.43561 -23.12151,44.96646 -16.37352,27.87722 -34.25571,55.23651 -56.62409,78.75594 -12.67746,13.32984 -19.15153,17.8462 -33.41352,29.46785 -6.49632,5.27027 -12.99265,10.54053 -19.48897,15.8108 -41.18305,33.41342 6.07066,91.65505 47.25371,58.24163 v 0 c 6.64112,-5.38865 13.28223,-10.77729 19.92335,-16.16594 19.21731,-15.96846 25.3396,-20.05458 42.53131,-38.38401 6.34696,-6.767 12.29998,-13.90186 18.11947,-21.12749 17.81586,-22.12067 33.3165,-45.95919 47.47,-70.55517 4.73343,-8.68085 9.71941,-17.22869 14.20029,-26.04256 13.30086,-26.16274 24.5175,-53.64948 33.30657,-81.65605 6.16919,-19.65826 9.29139,-34.69159 13.9764,-54.72788 4.87176,-25.72734 6.9117,-32.48395 8.80319,-58.79741 1.263,-17.57032 0.82861,-35.44073 0.21782,-53.02489 -0.29883,-8.60334 -0.6564,-17.20617 -1.18895,-25.79822 -0.52188,-8.42008 -1.31596,-16.82109 -1.97394,-25.23164 -2.536,-20.32155 -3.13025,-29.48993 -7.79948,-49.43058 -5.47828,-23.39582 -13.73056,-46.12807 -26.51621,-66.57707 -3.90968,-6.25304 -8.62857,-11.96211 -12.94286,-17.94316 -11.29263,-12.14851 -18.71724,-21.87268 -33.44911,-30.41032 -14.16866,-8.21124 -26.39246,-11.77597 -42.49985,-11.66488 -7.17538,0.0495 -14.40637,0.78064 -21.38838,2.43599 -7.45593,1.76772 -14.42452,5.17651 -21.63678,7.76476 -5.84824,3.6847 -11.96607,6.97271 -17.54471,11.05408 -5.06264,3.70386 -9.69892,7.96997 -14.29442,12.23967 -5.30929,4.9329 -10.48892,10.0179 -15.39881,15.34848 -16.52765,17.94377 -30.34845,38.10275 -43.84286,58.3503 -4.65393,7.82759 -9.54629,15.51825 -13.9618,23.48276 -4.38762,7.91419 -8.40554,16.02934 -12.43548,24.13152 -17.35338,34.88891 -32.24754,70.89605 -46.16709,107.27485 -9.7668,28.77787 -8.20277,22.93112 -16.10371,50.72329 -7.73111,27.19478 -15.42583,54.33537 -14.99348,82.88844 -0.0293,3.4738 -0.0665,6.94754 -0.0879,10.4214 -0.0118,1.90604 -1.90826,5.52875 -0.0116,5.71821 79.05774,7.89735 75.06929,25.13217 74.88626,-8.7121 -0.1354,-25.11309 -0.18122,-50.22797 0.19207,-75.3395 0.95482,-52.15562 2.79652,-104.36098 9.02505,-156.19727 3.60273,-27.53634 4.15898,-34.13957 8.97219,-61.51028 7.04264,-40.04854 16.92422,-79.5434 23.32273,-119.71139 1.07942,-8.07707 2.29639,-16.13695 3.23827,-24.23122 1.99709,-17.16242 2.4981,-34.511605 5.54424,-51.550514 7.26218,-52.533425 -67.03131,-62.803695 -74.29348,-10.270269 z"/>
</svg>
