<?xml version="1.0" ?>
<svg xmlns="http://www.w3.org/2000/svg" viewBox="0 0 1000 0">
<path d="m 692.64717,-761.50039 c 12.52956,10.45281 23.16154,23.01604 33.9976,35.16017 10.9691,12.94592 21.69038,26.5544 28.38932,42.27116 0.39404,1.11316 0.78808,2.22633 1.18213,3.33949 18.74,49.61162 88.90142,23.10926 70.16142,-26.50236 v 0 c -0.99574,-2.56609 -1.99148,-5.13219 -2.98721,-7.69829 -1.39333,-3.00789 -2.68063,-6.0672 -4.17998,-9.02367 -9.66407,-19.05599 -22.78526,-36.16956 -36.62373,-52.3413 -14.30135,-16.00401 -28.45895,-32.45823 -45.51419,-45.63191 -42.72814,-31.41348 -87.1535,29.01323 -44.42536,60.42671 z"/>
<path d="m 756.12355,-852.82712 c 2.75741,13.66018 10.73528,22.37362 19.38278,32.55654 5.16109,6.07747 4.41436,5.26228 9.21298,11.51155 10.13597,13.80561 20.34583,27.5533 30.76958,41.14293 4.80669,6.28153 9.86235,12.36468 14.89328,18.46591 33.73909,40.91667 91.604,-6.79761 57.86491,-47.71428 v 0 c -4.47084,-5.42194 -8.97563,-10.81821 -13.2492,-16.39897 -10.48587,-13.66956 -20.72805,-27.51887 -30.9547,-41.38326 -6.26785,-8.06037 -5.55879,-7.34076 -11.91053,-14.80172 -1.28223,-1.50615 -2.55069,-3.02667 -3.90809,-4.46543 -0.21608,-0.22903 -0.85601,-0.82389 -0.79138,-0.51573 0.58326,2.78095 2.66226,5.14213 2.47534,8.15705 -9.50735,-52.17387 -83.29231,-38.72847 -73.78497,13.44541 z"/>
</svg>
