<?xml version="1.0" ?>
<svg xmlns="http://www.w3.org/2000/svg" width="1000" height="0">
<path d="m 798.48819,-742.49926 c -6.74271,-9.59077 -15.85565,-17.47605 -20.5272,-28.46337 -0.92298,-2.17082 -1.44561,-4.49083 -2.16841,-6.73625 -0.0999,-2.10185 -0.4391,-4.20597 -0.29958,-6.30557 0.1417,-2.13257 0.67339,-4.22385 1.13787,-6.31004 1.62621,-7.30407 2.04187,-9.85329 5.96219,-16.18616 3.25584,-5.25948 7.9535,-10.19191 11.98894,-14.79057 1.78909,-1.10515 3.41858,-2.52504 5.36728,-3.31545 1.35655,-0.55023 2.88664,-0.52306 4.347,-0.62475 3.68948,-0.25691 8.14835,-0.25079 11.0894,2.41491 0.73205,0.66352 1.20221,1.56822 1.80331,2.35232 2.81654,2.81942 5.81701,5.29766 7.48713,9.0634 0.52426,1.18208 0.46083,2.54937 0.56071,3.83863 0.26478,3.41785 0.1561,7.69336 -0.63512,10.98052 -0.57125,2.37325 -1.60681,4.61006 -2.41021,6.91509 -6.40843,14.58095 -14.43469,26.00889 -28.77062,33.63667 -1.85891,0.98908 -3.88288,1.63047 -5.82432,2.4457 -1.31179,0.0749 -2.62933,0.36864 -3.93535,0.22481 -2.31435,-0.25487 -8.00823,-3.7928 -9.97945,-4.83896 -49.28979,-19.57082 -76.96711,50.13546 -27.67733,69.70628 v 0 c 5.39184,1.95369 10.6147,4.45887 16.17551,5.86106 14.42049,3.6362 25.78061,4.50031 40.49735,1.82083 6.26376,-1.14044 12.17519,-3.72907 18.26279,-5.5936 13.71851,-7.20954 17.74158,-8.40623 29.8384,-18.56114 15.63604,-13.12598 28.31257,-29.41929 36.83046,-48.01074 3.14485,-6.86406 5.31072,-14.1357 7.96608,-21.20355 3.42308,-20.05764 6.12066,-25.42566 2.84709,-45.46236 -2.47665,-15.15892 -7.84106,-27.95553 -16.73459,-40.49014 -9.31467,-13.12818 -16.57947,-17.04263 -29.20593,-26.50978 -6.58273,-3.04706 -12.85163,-6.89296 -19.74818,-9.14117 -26.51811,-8.64466 -56.83471,-2.5826 -79.69807,12.66031 -5.93566,3.95728 -10.80325,9.31978 -16.20487,13.97966 -10.50386,13.06533 -16.131,18.67267 -23.70173,34.3629 -9.35261,19.38315 -13.63845,41.77943 -11.59027,63.25443 0.6723,7.04893 2.85039,13.87202 4.27558,20.80803 2.28212,5.54805 4.23086,11.24526 6.84636,16.64416 3.82355,7.89259 9.3711,15.9033 14.68623,22.88814 1.43184,1.88164 5.67965,7.30784 8.21531,9.49369 28.85556,44.49557 91.7818,3.68764 62.92624,-40.80794 z"/>
</svg>
