<?xml version="1.0" ?>
<svg xmlns="http://www.w3.org/2000/svg" width="1000" height="1000">
<path d="m 401.74869,256.28659 c 2.9886,1.66021 5.85869,3.55451 8.96582,4.98063 16.05235,7.36771 36.60468,9.56174 54.0454,9.55023 5.91886,-0.004 11.82742,-0.49358 17.74112,-0.74037 26.95647,-1.66101 53.13412,-8.36209 78.87958,-16.12068 1.82486,-0.52515 3.63629,-1.0994 5.47456,-1.57543 0.95843,-0.2482 -1.87256,1.13097 -2.83319,0.89142 -9.47327,-2.3623 -21.56184,-1.24573 -28.00484,-8.58134 -8.27032,-9.41607 -7.04829,-24.06143 -11.08633,-35.92544 -0.1231,-0.36169 -0.89501,-0.30213 -1.1461,-0.0142 -2.5234,2.894 -4.59355,6.15391 -6.89033,9.23087 -18.55704,24.14636 -38.00741,47.59771 -56.35262,71.90886 -14.76933,19.57238 -20.93621,28.60891 -35.20422,48.75435 -17.28649,25.29498 -34.73842,50.48809 -51.52747,76.1191 -14.94625,22.81769 -29.22859,46.06639 -43.79776,69.12459 -15.86219,24.78165 -32.53095,49.03205 -48.50194,73.74236 4.36471,-5.11444 -6.06793,8.46049 -4.33545,6.51159 0.99385,-1.11799 1.21905,-3.44459 2.70899,-3.57775 17.46896,-1.56126 37.37314,-10.0718 52.59805,-1.36524 43.15273,24.67744 -2.47854,42.07545 10.7275,36.97032 10.16382,-17.67636 22.33403,-34.14107 35.82861,-49.41461 3.87918,-4.39057 7.95007,-8.60797 11.9251,-12.91195 16.64715,-17.30761 35.13296,-32.91586 55.4735,-45.73425 13.4611,-8.48304 18.52973,-10.59814 32.79231,-17.77412 27.66479,-12.44605 57.19485,-21.37562 87.64273,-22.9793 5.19325,-0.27353 10.40082,-0.0377 15.60123,-0.0565 11.76338,1.1975 16.47738,1.23416 27.83221,4.0735 6.58381,1.64632 12.05106,3.40241 17.57666,7.232 3.98301,2.76047 4.80155,4.5454 7.47413,8.29672 1.82324,4.99336 3.05188,10.43328 2.78652,15.79504 -0.22146,4.47485 -2.27151,11.71284 -3.74842,15.58711 -1.387,3.6384 -3.17874,7.10931 -4.76811,10.66397 -2.42875,4.05507 -4.62646,8.25779 -7.28625,12.1652 -13.43259,19.73341 -31.4465,36.41721 -50.81873,50.20225 -5.06851,3.60668 -10.42022,6.79783 -15.63033,10.19675 -5.18988,2.74367 -10.26884,5.70828 -15.56963,8.23101 -14.98521,7.13168 -33.40708,13.99253 -50.31659,13.28557 -2.67602,-0.11188 -5.30668,-0.73047 -7.96002,-1.0957 -4.25763,-1.3122 -9.18638,-2.65152 -11.56336,-6.85817 -0.62953,-1.11411 -2.22087,-7.4784 -2.54131,-8.54058 -0.50825,-1.89509 -3.38643,-14.47738 -1.0266,-15.23159 0.34021,-0.10873 0.52007,0.48966 0.78011,0.73449 0.34637,-0.12977 0.69274,-0.25954 1.03912,-0.38931 0.40052,-0.12469 0.80105,-0.24939 1.20157,-0.37408 0.23941,0.2719 0.3568,0.84027 0.71825,0.8157 1.28755,-0.0875 2.47718,-0.72563 3.70709,-1.1165 2.12509,-0.67536 4.2105,-1.47892 6.35723,-2.08197 6.17622,-1.73498 7.48472,-1.69262 13.93547,-2.603 7.98608,-0.71173 16.0331,-1.46213 24.06123,-0.99474 2.26135,0.13166 5.77045,0.15683 7.49443,2.06745 -2.90859,0.67421 -3.98621,-1.22243 -5.71277,-3.63711 -0.48616,-0.67993 -1.85785,-3.30803 -2.39566,-4.32272 -1.61563,-0.59151 -0.75817,-0.5774 -2.52193,1.64798 -1.20788,1.52402 -2.25819,3.17558 -3.54718,4.63165 -7.37302,8.32878 -15.88335,14.48456 -24.76505,21.06319 -33.94023,23.47866 -70.5784,42.56489 -106.84428,62.10642 -35.71991,19.13314 -71.48293,38.47323 -104.73903,61.73203 -6.71613,4.69715 -13.22121,9.68907 -19.83181,14.53361 -28.39613,21.99629 -55.32157,46.10359 -79.071938,73.10412 -3.162207,3.59495 -6.15323,7.33693 -9.229845,11.0054 -2.016592,2.60503 -10.50742,13.22919 -12.304485,16.75373 -11.323567,22.20865 -12.723952,36.23292 17.346226,59.98599 13.760552,10.86975 32.662132,-1.00222 44.696512,-7.17247 4.33967,-2.37085 13.76419,-7.58194 18.22419,-9.77126 4.80167,-2.35705 7.98911,-4.21756 13.16736,-4.56131 2.87579,-0.1909 6.73516,0.83271 9.44911,1.39899 8.425,2.40403 16.68714,5.36523 24.49927,9.3642 2.93497,1.5024 5.76145,3.20907 8.60518,4.87773 4.49801,2.63936 18.38243,11.13687 22.5,13.64854 20.39897,12.86373 41.44458,25.65618 66.20214,27.38189 5.79488,0.40393 11.61429,-0.28822 17.42144,-0.43234 6.00493,-1.49843 12.17659,-2.44108 18.0148,-4.49531 17.41292,-6.12688 32.14857,-17.44129 46.41133,-28.77406 6.05858,-4.81397 24.06297,-19.7984 29.75615,-24.51922 12.77137,-10.14149 17.57457,-14.54828 31.22882,-23.13422 16.24301,-10.21379 33.87897,-18.55879 51.56974,-25.9102 6.05528,-2.51627 12.22626,-4.74456 18.33939,-7.11684 20.89053,-7.65305 42.64255,-13.2825 65.03345,-13.15217 10.7219,0.0624 16.67937,1.26117 27.33642,2.74308 3.90723,1.00982 7.9061,1.71514 11.72169,3.02947 10.81033,3.72376 22.50527,12.94974 30.65186,20.79453 2.41653,2.327 4.64596,4.84079 6.96894,7.26119 2.14858,2.52849 4.35639,5.00781 6.44573,7.58547 1.89868,2.34243 3.78884,4.69794 5.51478,7.17041 1.10599,1.58436 2.92025,3.04816 2.96688,4.97981 0.0339,1.40509 -2.31739,-1.77196 -2.9201,-3.04167 -1.24471,-2.62221 -0.27141,-6.46849 -2.48531,-8.3457 -1.23006,-1.04301 -2.49731,2.04136 -3.74596,3.06204 -13.64396,16.00211 -6.06617,7.98781 -22.99606,23.79176 -38.2465,36.73833 13.70935,90.82705 51.95585,54.08872 v 0 c 24.98642,-24.46731 13.64322,-11.86077 34.29317,-37.58081 11.73511,-21.05832 17.86218,-25.40372 16.09648,-51.71131 -1.31219,-19.55082 -19.55872,-38.56012 -31.66015,-52.59587 -9.87979,-9.88962 -12.8317,-13.47213 -23.96977,-22.07737 -14.97806,-11.572 -31.46054,-20.75867 -49.62673,-26.31345 -6.40055,-1.95714 -13.04943,-2.98365 -19.57414,-4.47548 -17.23087,-2.11973 -23.74173,-3.5119 -41.29453,-3.24025 -30.24622,0.46811 -59.74983,7.71695 -87.99323,18.16516 -7.19834,2.82574 -14.46561,5.48185 -21.59502,8.47723 -21.99783,9.24226 -43.64054,19.88056 -63.75389,32.76845 -15.95979,10.22644 -21.83641,15.47612 -36.38322,27.04594 -5.87571,4.8728 -21.47624,17.85294 -27.90818,23.03541 -3.32196,2.67664 -12.67393,10.09871 -17.06801,13.11167 -1.62612,1.115 -3.40813,1.98931 -5.04145,3.09374 -0.6254,0.42289 -1.14496,0.98434 -1.71744,1.47651 -0.55144,0.31726 -1.02562,0.85447 -1.65433,0.95179 -2.84882,0.44096 -7.05433,-0.44433 -9.57251,-1.35986 -10.10302,-3.67316 -18.5591,-10.70058 -27.91737,-15.76913 -13.07177,-7.97103 -26.03366,-16.41424 -39.83831,-23.09401 -15.13473,-7.32337 -31.1302,-12.61146 -47.71805,-15.42867 -16.47618,-1.04765 -20.24416,-2.36624 -36.799,1.04973 -17.11541,3.53163 -32.122317,12.6481 -47.276524,20.82602 -10.02039,7.54173 9.867725,-8.21127 21.292404,4.09124 10.73988,11.56511 14.59332,28.21079 19.0211,43.35978 0.80481,2.75354 -3.03251,4.8983 -4.14301,7.54339 -1.71947,4.09559 11.93156,-20.8922 7.81512,-10.79341 2.34887,-2.83445 4.62572,-5.73017 7.04662,-8.50336 20.40497,-23.37428 43.66822,-44.15497 68.08978,-63.22521 15.95701,-11.77322 18.51401,-14.05338 35.36418,-24.8718 25.95894,-16.66657 53.20611,-31.21072 80.36031,-45.7972 39.66591,-21.3738 79.71095,-42.33591 116.59396,-68.37764 5.34156,-4.11624 10.87206,-7.99828 16.02467,-12.34871 17.3807,-14.6748 33.6484,-32.88982 40.87989,-54.91151 1.69245,-5.15392 2.3328,-10.59561 3.4992,-15.89342 -0.13391,-12.9296 1.00886,-17.28803 -3.7074,-29.49464 -4.76213,-12.3253 -13.62355,-22.71609 -24.50874,-30.06443 -3.62526,-2.44732 -7.65213,-4.23942 -11.47819,-6.35913 -3.83544,-1.33228 -7.58779,-2.9335 -11.50632,-3.99684 -19.27894,-5.23158 -39.65107,-3.13634 -59.20425,-1.16442 -4.65597,0.81146 -9.35225,1.41842 -13.96792,2.43438 -19.80708,4.35975 -39.66938,12.35604 -54.54916,26.52907 -3.60797,3.4366 -6.32315,7.70249 -9.48472,11.55373 -6.7752,12.41698 -9.27914,14.85057 -12.10677,29.30117 -3.4724,17.74567 0.53711,35.79815 5.95725,52.64193 5.08787,11.6722 6.68959,17.2655 14.89068,27.6231 11.43366,14.44017 26.7397,24.60874 44.24162,30.2058 5.97364,1.91035 12.23746,2.7532 18.35619,4.1298 18.19356,1.07386 21.10647,2.21089 39.34932,-0.63537 21.04401,-3.28329 41.63985,-10.90703 60.66184,-20.30191 7.26975,-3.59049 14.22288,-7.78929 21.33432,-11.68394 6.83426,-4.56957 13.85995,-8.86506 20.50278,-13.70871 27.04285,-19.71844 51.85516,-43.81476 69.80013,-72.23734 4.30517,-6.81885 7.7618,-14.13787 11.6427,-21.20681 6.82833,-17.99146 10.64332,-24.51946 12.72504,-43.74504 2.23293,-20.62209 -1.14053,-41.85407 -10.64608,-60.38688 -3.07299,-5.99136 -7.33897,-11.29152 -11.00845,-16.93728 -12.47521,-12.5148 -14.31679,-16.06825 -29.99767,-24.87059 -17.28792,-9.70445 -37.21411,-14.46661 -56.72366,-16.90318 -7.33901,-0.91658 -14.74548,-1.17303 -22.11822,-1.75955 -7.47892,0.15414 -14.97248,-0.03 -22.43676,0.46242 -39.54563,2.60885 -77.90687,14.1795 -113.75422,30.70069 -18.25498,9.34608 -23.9652,11.71087 -41.25946,22.80077 -24.99572,16.02844 -47.75048,35.3745 -68.24942,56.81412 -4.73955,5.17529 -9.59603,10.24589 -14.21866,15.52588 -16.56874,18.9249 -31.44436,39.34822 -43.91853,61.19959 -7.75047,15.27357 -21.39338,36.78641 2.69563,53.26873 31.32472,21.43317 45.8347,9.84472 58.83358,-6.68547 0.73949,-0.94038 5.04721,-7.57715 5.36166,-8.05744 16.10344,-24.92784 32.9441,-49.37036 48.91336,-74.38622 14.23316,-22.5278 28.17323,-45.25312 42.77306,-67.54696 16.41037,-25.05852 33.47223,-49.68653 50.3608,-74.42217 13.13769,-18.56634 19.71884,-28.17568 33.29545,-46.17681 18.68127,-24.76936 38.53948,-48.6233 57.38069,-73.26843 2.5775,-3.51805 18.03463,-23.66302 18.0976,-27.89091 0.2247,-15.08739 0.70537,-32.18195 -7.90792,-44.571105 -10.01947,-14.411779 -27.81759,-12.589769 -41.34136,-9.756268 -2.17075,0.454817 -4.26156,1.230953 -6.39233,1.84643 -19.87636,6.027757 -40.03614,11.519072 -60.84791,13.003169 -9.15777,0.549512 -12.37304,1.03971 -21.20615,0.528419 -2.6273,-0.152077 -5.2388,-0.515612 -7.84937,-0.848406 -1.53737,-0.195984 -3.05985,-0.494971 -4.59058,-0.737435 -0.52255,-0.08277 -1.72401,-0.744171 -1.5692,-0.238264 0.24605,0.80407 1.31741,1.045331 1.97611,1.567997 -43.02572,-31.00464 -86.8729,29.842913 -43.84718,60.847553 z"/>
</svg>
