<?xml version="1.0" ?>
<svg xmlns="http://www.w3.org/2000/svg" width="800" height="1000">
<path d="m 413.11177,65.76987 c 0.0255,22.208055 0.51129,44.4121 1.04125,66.61281 1.13949,39.66978 2.15184,79.34266 2.65216,119.02601 0.55895,42.11579 -0.26508,84.23222 -1.04382,126.3396 -0.72692,30.17162 -1.32914,60.34577 -1.95788,90.51951 -0.21063,10.09398 -0.4024,20.18833 -0.57207,30.28307 -0.89092,53.02553 74.0985,54.28548 74.98942,1.25995 v 0 c 0.16785,-9.99391 0.35793,-19.98743 0.56638,-29.98059 0.62995,-30.23247 1.23394,-60.46534 1.96133,-90.69572 0.79244,-42.88576 1.62333,-85.7807 1.05063,-128.67497 -0.50769,-39.96401 -1.51583,-79.91777 -2.66754,-119.8681 -0.51652,-21.60372 -0.99293,-43.210703 -1.01986,-64.82157 0,-53.033009 -75,-53.033009 -75,0 z"/>
<path d="m 462.16034,94.791135 c 10.90806,-1.277339 21.91867,-1.111812 32.88482,-1.186388 26.359,-0.05138 52.71513,0.303701 79.07412,0.330138 27.98047,-0.200874 55.9637,-0.476315 83.9337,-1.300738 17.22362,-0.828896 34.46662,-0.58257 51.70258,-0.643778 7.72025,-0.03245 15.44036,-0.08873 23.16052,-0.136844 1.92627,-0.135414 9.25381,0.222891 0.52896,-0.222509 -11.49299,-1.996944 -17.77137,-5.962513 -25.24886,-15.333853 -2.95939,-3.708925 -3.95798,-7.762222 -5.31008,-11.983091 1.00167,12.325164 1.05177,24.704651 1.33681,37.060698 0.19055,12.81149 0.72707,25.62507 0.61686,38.43956 -0.0711,4.5897 -0.25968,9.17625 -0.41284,13.76362 0.0138,1.88184 -0.35764,9.75311 0.10607,1.42764 14.92573,-28.77897 4.0842,-17.83321 23.66034,-30.05425 0.0981,-0.0613 -0.19261,-0.17183 -0.30771,-0.16041 -1.34416,0.13333 -2.67244,0.39528 -4.00928,0.58865 -4.91787,0.71135 -5.32536,0.75857 -10.45643,1.46671 -16.21894,2.00031 -32.47117,3.69598 -48.78627,4.64643 -16.62803,1.09327 -33.27752,0.85093 -49.91282,0.16754 -8.31619,-0.28638 -16.57986,-1.20049 -24.79238,-2.4953 -0.81612,-0.1288 -2.38664,-0.38107 -3.21465,-0.49457 -0.39594,-0.0543 0.78645,0.1525 1.18497,0.18241 0.2255,0.0169 -0.44122,-0.0996 -0.66312,-0.14323 -0.70431,-0.13833 -1.40739,-0.28422 -2.11536,-0.40244 -0.8705,-0.14537 -1.74604,-0.2588 -2.61906,-0.3882 -3.30357,-0.41965 -6.63334,-0.53618 -9.9597,-0.57826 -1.54573,-0.0129 -3.09153,-0.006 -4.63729,-0.003 -12.71202,0.4273 -22.34527,4.96163 -31.02826,14.82589 -5.09466,5.78776 -5.89559,10.35459 -8.10108,17.20659 -2.23138,9.58036 -1.05528,19.33265 -0.0162,28.96998 0.98142,11.65329 2.03042,23.3008 3.02074,34.95332 0.99496,15.91433 1.97382,31.83295 2.75666,47.75978 0.97023,17.5504 1.65286,35.11049 2.04049,52.68292 0.29995,16.37043 0.31697,32.74427 0.33383,49.1169 0.005,14.35678 -0.005,28.71356 -0.0108,43.07034 -10e-4,11.52763 0.0629,23.05405 -0.18317,34.57953 -0.18066,7.55018 -0.43448,15.09867 -0.35012,22.65133 0.18981,6.67256 0.35654,13.34545 0.45318,20.02004 0.01,0.89985 0.0199,1.7997 0.0299,2.69955 0.59202,53.0297 75.58734,52.19246 74.99533,-0.83724 v 0 c -0.0111,-0.98509 -0.0221,-1.97019 -0.0332,-2.95528 -0.0981,-6.6922 -0.25254,-13.38316 -0.45398,-20.07307 -0.16104,-6.63918 0.28757,-13.28196 0.34213,-19.92029 0.25235,-12.04381 0.20785,-24.08829 0.19991,-36.13429 0.006,-14.39271 0.0159,-28.78542 0.0107,-43.17813 -0.0175,-16.90085 -0.0373,-33.80295 -0.35221,-50.70144 -0.40639,-18.25042 -1.10643,-36.48876 -2.11317,-54.71646 -0.83232,-16.8136 -1.84671,-33.62034 -2.93524,-50.41864 -1.03943,-12.21798 -2.1228,-24.43236 -3.18427,-36.64838 -0.0645,-0.59696 -0.45152,-6.55247 -0.81699,-7.46642 -0.059,-0.14744 -0.0661,0.31075 -0.0916,0.46747 -0.0808,0.49587 -0.13087,0.99693 -0.22742,1.48997 -0.1194,0.60974 -0.27998,1.21069 -0.41998,1.81604 -1.8558,5.11336 -2.66103,8.54738 -6.72579,12.91053 -7.60877,8.1673 -15.9876,12.65454 -26.98416,12.8293 1.20792,-0.002 2.41586,-0.007 3.62378,-0.001 0.22783,0.002 2.32197,0.0816 0.92129,-0.0726 -0.38076,-0.0703 -1.51807,-0.30676 -1.13854,-0.23015 2.27018,0.45828 4.54087,0.9119 6.83673,1.22548 11.05829,1.72883 22.19138,2.92465 33.38287,3.34038 19.13455,0.76531 38.28685,1.00761 57.4115,-0.23903 18.25055,-1.10866 36.44196,-2.92142 54.58205,-5.21851 12.29003,-1.69803 33.41475,-3.29435 41.81968,-12.45531 6.27611,-6.84066 8.9705,-16.25628 13.45576,-24.38442 0.20195,-2.75021 0.42732,-5.47159 0.43063,-8.22495 0.17485,-5.25467 0.39036,-10.50849 0.45283,-15.76623 0.0704,-13.55763 -0.38104,-27.11229 -0.63519,-40.666333 -0.33573,-14.53609 -0.40459,-29.103956 -1.77317,-43.590805 -0.96218,-7.484248 -2.29908,-15.389849 -7.00858,-21.625487 -6.04596,-8.005198 -10.56911,-11.754441 -19.54896,-15.254255 -2.63235,-1.025936 -5.49442,-1.318568 -8.24163,-1.977852 -3.40349,-0.23243 -6.77256,-0.475226 -10.18197,-0.340656 -7.65346,0.04771 -15.30687,0.103497 -22.96042,0.135863 -17.88667,0.06401 -35.78053,-0.174238 -53.65458,0.676146 -27.20551,0.809121 -54.42446,1.060816 -81.64016,1.267931 -26.56124,-0.02591 -53.11963,-0.390607 -79.68092,-0.328284 -12.95109,0.09552 -25.94768,0.0143 -38.83506,1.465204 -52.83452,4.584063 -46.35167,79.303356 6.48285,74.719293 z"/>
<path d="m 451.76368,511.1769 c 15.97457,0.88414 31.98115,0.86734 47.97337,1.15278 16.32774,0.2038 32.58531,1.87547 48.84282,3.2543 6.84972,0.56008 3.48978,0.32314 10.0792,0.71952 52.94407,3.07006 57.2858,-71.80416 4.34173,-74.87422 v 0 c -4.74581,-0.259 -2.05031,-0.0842 -8.08291,-0.57702 -17.9221,-1.51996 -35.84649,-3.30604 -53.84659,-3.51071 -14.77714,-0.26213 -29.56629,-0.25454 -44.32983,-0.99928 -52.91607,-3.51982 -57.89386,71.31481 -4.97779,74.83463 z"/>
</svg>
