<?xml version="1.0" ?>
<svg xmlns="http://www.w3.org/2000/svg" width="1000" height="1000">
<path d="m 140.458962,159.798043 c -0.20743,19.26324 -0.0624,38.53119 -0.0402,57.795907 0.0335,33.82688 0.0387,67.65377 0.0431,101.48067 0.003,30.42998 0.003,60.85997 0.002,91.28996 -1.9e-4,16.9128 -4.1e-4,33.82561 -5.3e-4,50.73842 -5e-5,6.12415 -6e-5,12.2483 -7e-5,18.37245 -8e-5,53.03301 74.999918,53.03312 74.999998,1.1e-4 v 0 c 10e-6,-6.124 3e-5,-12.24801 7e-5,-18.37201 1.2e-4,-16.91277 3.4e-4,-33.82553 5.3e-4,-50.7383 2.8e-4,-30.43345 6.5e-4,-60.86691 -0.002,-91.30036 -0.004,-33.8525 -0.01,-67.70501 -0.0432,-101.55749 -0.0204,-17.673177 -0.0148,-35.348377 -0.10649,-53.020567 3.3153,-52.92927 -71.537988,-57.6180604 -74.853468,-4.68879 z"/>
<path d="m 183.592361,200.06403 c 13.387089,-1.007264 26.764379,-2.132774 40.133039,-3.361244 17.91118,-1.96024 35.82148,-3.88588 53.75615,-5.62428 4.98012,-0.48162 9.96054,-0.9627 14.94628,-1.38321 0.88286,-0.0745 1.76512,-0.15853 2.64944,-0.21292 0.14939,-0.009 0.59791,0.0145 0.44845,0.0224 -0.62497,0.0329 -1.25118,0.0352 -1.87677,0.0529 -11.19299,-0.80579 -17.57772,-5.38261 -25.35178,-13.63284 -1.67699,-1.77971 -2.5744,-4.16159 -3.73619,-6.31331 -1.65435,-3.06396 -0.22662,-1.73129 -1.21752,-2.60784 0.798,14.74669 0.80047,29.52268 0.88209,44.286444 0.0685,19.31744 0.0484,38.63505 0.0378,57.95256 -0.008,12.23268 -0.0135,24.46535 -0.0168,36.69803 -0.001,4.16055 -0.002,8.32111 -0.002,12.48167 -0.002,53.03301 74.99832,53.03538 75,0.002 v 0 c 1.3e-4,-4.15475 6.4e-4,-8.3095 0.002,-12.46425 0.003,-12.22552 0.009,-24.45104 0.0167,-36.67657 0.0107,-19.47025 0.0309,-38.9406 -0.0389,-58.41076 -0.10066,-18.009844 0.0299,-36.069964 -1.57144,-54.023294 -1.38021,-8.32322 -2.95263,-18.1474 -8.59436,-24.89152 -9.41164,-11.25067 -17.08594,-15.74594 -31.14242,-17.27921 -9.26875,-0.2344 -18.45429,0.82569 -27.6711,1.74934 -17.81225,1.72685 -35.6023,3.62342 -53.38907,5.58961 -13.15025,1.21075 -26.309652,2.31198 -39.478145,3.30389 -52.850638,4.39432 -46.636132,79.136414 6.214506,74.742094 z"/>
<path d="m 305.95963,375.85578 c 12.00215,-0.23969 24.0044,-0.452 36.00366,-0.81211 20.61801,-0.62574 41.22124,-1.56866 61.84463,-2.00596 26.64621,-0.57002 53.2969,-0.88032 79.94474,-1.36436 29.76859,-0.59898 59.53073,-1.41384 89.28758,-2.43731 27.67307,-1.10041 55.31652,-2.81163 82.98738,-3.95216 19.19518,-0.75808 38.40362,-1.01592 57.61173,-1.12399 11.18716,0.0487 22.37117,-0.0892 33.55284,-0.43165 2.93855,-0.0963 1.57252,-0.0513 4.09808,-0.13499 53.00387,-1.75766 50.51817,-76.71646 -2.48571,-74.9588 v 0 c -2.44702,0.0812 -1.14221,0.0381 -3.91441,0.12913 -10.55604,0.32511 -21.1139,0.44489 -31.6752,0.39752 -20.09901,0.11437 -40.1983,0.39018 -60.28364,1.18672 -27.49829,1.13888 -54.97034,2.81856 -82.47011,3.93257 -29.35154,1.0103 -58.7083,1.81361 -88.07143,2.40535 -26.7273,0.48605 -53.4575,0.79573 -80.18314,1.36907 -20.84333,0.4481 -41.66703,1.37764 -62.50461,2.02296 -11.24581,0.34108 -22.49442,0.52352 -33.74239,0.77801 -53.03301,0 -53.03301,75 0,75 z"/>
<path d="m 720.28339,329.19944 c 0.46017,14.19477 0.85058,28.39198 1.20255,42.59027 0.50835,20.26676 0.66309,40.53808 0.52663,60.80996 -0.0669,14.77655 -0.28286,29.54921 -0.65768,44.32081 -0.17376,6.66247 -0.32282,13.32562 -0.39944,19.98997 -0.60519,53.02955 74.38993,53.88542 74.99511,0.85586 v 0 c 0.0715,-6.31563 0.21668,-12.63005 0.38021,-18.94391 0.38645,-15.23863 0.60979,-30.47851 0.68013,-45.72219 0.13938,-21.05869 -0.0192,-42.11691 -0.54802,-63.17023 -0.33699,-13.57836 -0.66198,-27.15769 -1.17949,-40.73054 0,-53.03301 -75,-53.03301 -75,0 z"/>
<path d="m 178.029459,540.33904 c 13.74557,0.82645 27.533161,0.6411 41.297721,0.65615 25.06905,-0.14094 50.1298,-0.87224 75.1895,-1.51805 29.71777,-0.6005 59.42469,-1.62675 89.13543,-2.49001 32.14697,-0.81174 64.2426,-2.7953 96.32594,-4.89199 30.36899,-2.10535 60.78128,-3.52883 91.20675,-4.48297 27.95617,-0.86782 55.92299,-1.24077 83.88033,-2.06947 21.91828,-0.93614 43.85228,-1.39558 65.77538,-2.18222 10.77336,-0.42223 21.5452,-0.8863 32.32349,-1.16479 6.57936,-0.48705 3.14597,-0.098 10.29058,-1.24891 51.99891,-10.4218 37.26026,-83.95936 -14.73865,-73.53756 v 0 c 2.4173,-0.25975 1.65341,-0.60123 2.50315,-0.18831 -11.02901,0.28714 -22.05186,0.75061 -33.0757,1.18809 -21.76543,0.78561 -43.5423,1.23133 -65.30292,2.1667 -28.00164,0.83193 -56.01313,1.19641 -84.01347,2.07354 -31.27075,0.98636 -62.52834,2.44188 -93.74133,4.60564 -31.17967,2.03889 -62.37077,3.97797 -93.61256,4.76391 -29.62847,0.86147 -59.25315,1.88445 -88.88864,2.48324 -24.38869,0.62856 -48.77822,1.34209 -73.17585,1.4932 -11.71986,-0.0126 -23.454151,0.12157 -35.164621,-0.39828 -52.850634,-4.39434 -59.065169,70.34775 -6.21453,74.74209 z"/>
</svg>
