<?xml version="1.0" ?>
<svg xmlns="http://www.w3.org/2000/svg" viewBox="0 0 1000 1000">
<path d="m 132.967981,223.56546 c 17.72207,15.78254 35.809814,31.16013 53.495226,46.99247 35.911453,32.42845 72.127893,64.51301 108.413183,96.52155 6.57372,5.82032 13.14018,11.64885 19.72116,17.46095 15.61791,13.79321 21.68292,18.92547 36.74465,32.75825 14.84696,13.63554 29.33484,27.66228 43.91387,41.58195 12.94761,12.205 25.79289,24.51501 38.59516,36.87123 12.21522,11.54391 22.02808,15.08909 40.60375,12.55753 8.52503,-1.16182 16.24809,-7.81632 22.88413,-12.7578 2.72858,-2.45042 5.54568,-4.80573 8.18576,-7.35125 5.55851,-5.35943 13.39385,-13.93675 18.5166,-19.52365 11.20719,-12.22261 22.31546,-24.52699 33.59265,-36.68597 28.45244,-31.00345 58.7398,-60.23497 89.55204,-88.86731 31.08823,-28.64727 64.39728,-54.68333 97.81911,-80.51356 20.32248,-15.09876 41.01521,-29.72317 62.32913,-43.39274 3.97002,-2.54504 8.00529,-4.98529 12.0306,-7.44107 45.27197,-27.621539 6.20922,-91.645759 -39.06275,-64.024229 v 0 c -4.51379,2.75415 -9.03493,5.4971 -13.48613,8.35216 -23.13881,14.86821 -45.64054,30.71669 -67.67971,47.167469 -35.214,27.22566 -70.27772,54.7069 -103.01382,84.92008 -32.16082,29.90611 -63.77533,60.43418 -93.48365,92.8038 -17.2885,18.64851 -8.00656,8.54129 -23.99382,26.13181 -7.87718,8.66713 -15.65255,17.47431 -23.85631,25.83869 -1.14799,1.17046 -2.35829,2.27812 -3.53744,3.41718 -4.27915,4.13585 0.75173,-1.14893 6.78483,-1.25437 6.82907,-0.11934 13.75385,0.5113 20.3719,2.20008 3.16216,0.80691 5.5819,3.38359 8.34082,5.12678 0.13437,0.0849 0.44787,0.44985 0.32522,0.34875 -0.39726,-0.32745 -0.76748,-0.68639 -1.15121,-1.02959 -12.90156,-12.43926 -25.82761,-24.85184 -38.87477,-37.13957 -15.08138,-14.39923 -30.07715,-28.89768 -45.43965,-42.99875 -15.44332,-14.17526 -21.43147,-19.2402 -37.29362,-33.24914 -6.61518,-5.84232 -13.21584,-11.70107 -19.82376,-17.55161 -36.15231,-31.89124 -72.23616,-63.85803 -108.01549,-96.16822 -17.11519,-15.308809 -10.58381,-9.58962 -26.75175,-23.611759 -7.61596,-6.60517 -15.417269,-13.05071 -22.926994,-19.77758 -1.270578,-1.13812 -2.479128,-2.34365 -3.718692,-3.51548 -39.458623,-35.43328 -89.568843,20.36964 -50.110223,55.802919 z"/>
</svg>
