<?xml version="1.0" ?>
<svg xmlns="http://www.w3.org/2000/svg" viewBox="0 0 1000 1000">
<path d="m 638.40272,241.14501 c 22.92774,-0.63573 45.77743,-2.99681 68.6151,-5.01709 5.35235,-0.4703 10.70378,-0.95119 16.05705,-1.4109 10.92353,-0.93805 19.81904,-1.71865 30.72039,-2.35927 13.49107,-0.79282 26.99708,-1.10381 40.50556,-1.39952 10.05203,0.40918 20.73645,-0.86366 30.65021,0.8032 -0.74428,-0.13633 -1.48856,-0.27265 -2.23284,-0.40898 50.9445,14.73628 71.78474,-57.310127 20.84024,-72.046401 v 0 c -1.93961,-0.482088 -3.87922,-0.964175 -5.81883,-1.446263 -14.91132,-2.318758 -30.04098,-2.01717 -45.0928,-1.883312 -14.693,0.326432 -29.37914,0.690549 -44.05279,1.561843 -11.38539,0.676044 -20.71075,1.489862 -32.08396,2.466568 -5.36837,0.461024 -10.7349,0.943261 -16.10235,1.414891 -21.37023,1.891178 -42.75209,4.135993 -64.20509,4.757514 -53.01018,1.55571 -50.81008,76.52343 2.20011,74.96772 z"/>
<path d="m 586.21372,207.87327 c 1.16324,12.89994 3.59173,25.63826 5.29478,38.47296 2.80427,23.92055 3.42115,48.01593 3.93012,72.07155 0.49923,33.07876 0.45277,66.16275 0.45795,99.24438 -0.009,34.59058 -0.0269,69.18116 -0.0369,103.77174 -0.007,26.84564 -0.009,53.69128 -0.01,80.53692 -2.9e-4,13.87238 -2.3e-4,27.74476 -3e-5,41.61714 10e-6,0.89977 3e-5,1.79954 4e-5,2.69931 8.8e-4,53.03301 75.00088,53.03177 75,-0.001 v 0 c -1e-5,-0.89971 -3e-5,-1.79943 -4e-5,-2.69914 -2e-4,-13.87126 -2.6e-4,-27.74253 3e-5,-41.61379 8.2e-4,-26.83916 0.003,-53.67832 0.01,-80.51748 0.01,-34.60175 0.0281,-69.20349 0.0369,-103.80525 -0.005,-33.6104 0.0413,-67.22324 -0.47496,-100.83062 -0.57594,-26.84105 -1.33608,-53.72454 -4.57333,-80.40326 -1.46741,-10.92443 -3.28335,-21.79077 -4.75054,-32.71274 -2.94829,-52.950991 -77.8323,-48.781473 -74.88401,4.16952 z"/>
</svg>
