<?xml version="1.0" ?>
<svg xmlns="http://www.w3.org/2000/svg" viewBox="0 0 1000 1000">
<path d="m 161.986452,180.861187 c 15.630901,7.44468 31.291653,14.80109 46.720318,22.665153 18.64503,9.75625 37.90697,18.23365 57.05012,26.94235 10.69186,4.864 21.34932,9.80326 32.02553,14.70153 29.2489,13.95814 59.77313,24.92427 90.29261,35.71526 17.33664,6.21916 35.09854,11.39567 51.88369,19.05101 1.41506,1.07957 3.69163,1.50117 4.95846,2.87966 0.11972,0.13028 -0.3323,-0.13115 -0.47679,-0.23326 -1.55046,-1.09568 -1.58869,-1.20429 -2.85244,-2.39183 35.69248,39.22431 91.16404,-11.25248 55.47156,-50.47679 v 0 c -3.19384,-3.32048 -3.57634,-3.91342 -7.42694,-6.98676 -5.74298,-4.58373 -12.33655,-7.98889 -18.90955,-11.191 -18.74679,-8.35748 -38.25903,-14.70944 -57.65648,-21.36471 -28.39064,-10.02899 -56.81236,-20.161563 -84.00859,-33.169323 -10.83353,-4.97045 -21.64881,-9.98083 -32.49826,-14.91644 -18.05631,-8.21414 -36.23909,-16.18026 -53.82042,-25.39374 -14.48185,-7.36777 -29.0493,-14.58436 -43.911218,-21.15872 -46.193595,-26.05095 -83.035195,39.27666 -36.8416,65.32761 z"/>
<path d="m 430.3734,288.83639 c 0.0204,14.56311 0.25481,29.12619 0.47464,43.68759 0.61688,30.26776 1.60349,60.5263 2.34096,90.79131 0.65343,33.20496 1.90256,66.39156 3.72056,99.55215 1.87835,29.47319 3.70639,58.93496 4.20235,88.46798 0.0198,24.91114 -0.48609,49.81663 -0.51143,74.72781 0.0106,17.17647 0.19354,34.35152 -0.0259,51.52705 -0.0776,5.33747 -0.16998,10.6747 -0.25278,16.01208 -0.0348,2.2415 0.0423,4.55823 -0.26114,6.79209 -0.0389,0.27742 -0.0425,0.56218 -0.11683,0.83227 -0.0428,0.15555 -1.2e-4,-0.32358 0.0208,-0.48354 0.0516,-0.39405 0.11584,-0.7868 0.1965,-1.17594 0.31645,-1.52677 0.57616,-1.97356 1.20466,-3.71719 -21.70973,48.38581 46.71815,79.08802 68.42788,30.7022 v 0 c 2.55923,-6.36897 4.59051,-12.87292 4.99554,-19.78284 0.71257,-9.39233 0.56614,-18.8149 0.7793,-28.22756 0.22016,-17.46821 0.0523,-34.93575 0.0319,-52.40487 0.024,-25.36535 0.56648,-50.72499 0.50039,-76.09051 -0.53482,-30.47418 -2.33399,-60.87984 -4.3041,-91.29154 -1.78234,-32.39927 -2.99035,-64.82473 -3.63,-97.26755 -0.73256,-30.03373 -1.70715,-60.06117 -2.32727,-90.09747 -0.21487,-14.18341 -0.44509,-28.36847 -0.46606,-42.55352 0,-53.03301 -75,-53.03301 -75,0 z"/>
<path d="m 462.03798,742.48616 c -14.73261,1.60532 -28.94541,6.08332 -43.05792,10.40401 -21.91665,7.55338 -43.8688,14.96499 -66.20625,21.17973 -23.0469,6.49668 -46.46832,11.49426 -69.61356,17.6045 -20.80297,5.40585 -41.04703,12.56446 -61.07686,20.29853 -12.58468,4.7732 -25.513098,8.54862 -38.372738,12.49286 -3.38007,1.36041 -6.76165,1.97412 -10.34134,2.13728 -2.75904,0.0747 -1.4014,0.071 -4.07288,0.0173 -53.03242,-0.25011 -53.38613,74.74905 -0.35372,74.99917 v 0 c 6.45694,-0.009 3.32615,0.0589 9.39283,-0.18109 9.31795,-0.68171 18.51394,-2.18418 27.369038,-5.27004 14.55738,-4.46567 29.17841,-8.78272 43.40714,-14.235 17.46263,-6.75043 35.08812,-13.05849 53.23546,-17.75481 23.466,-6.2269 47.24348,-11.21563 70.60044,-17.87286 22.94612,-6.4293 45.57358,-13.85305 68.06494,-21.72479 9.24825,-2.85538 18.53643,-5.92607 28.12029,-7.43113 52.79519,-5.01683 45.70032,-79.6805 -7.09487,-74.66367 z"/>
</svg>
