<?xml version="1.0" ?>
<svg xmlns="http://www.w3.org/2000/svg" width="800" height="1000">
<path d="m 450.78959,120.6083 c 14.15343,0.0517 28.3061,-0.0669 42.45925,-0.1075 27.64945,0.10123 55.29162,-0.59834 82.93784,-0.8977 24.91683,-0.40919 49.83608,-0.62079 74.75543,-0.37071 14.0422,0.19218 28.08235,0.50054 42.12531,0.63437 2.69485,0.0381 5.3897,0.0762 8.08455,0.11431 53.02774,0.74715 54.08437,-74.245412 1.05662,-74.992558 v 0 c -2.81037,-0.03946 -5.62074,-0.07893 -8.43111,-0.118391 -14.03232,-0.131934 -28.0617,-0.448506 -42.09334,-0.63406 -25.43788,-0.248314 -50.87568,-0.05177 -76.311,0.371451 -27.44821,0.298279 -54.89241,0.991476 -82.34379,0.893611 -14.07999,0.04201 -28.15949,0.158011 -42.23976,0.107175 -53.03301,0 -53.03301,75.000002 0,75.000002 z"/>
<path d="m 420.27811,105.06073 c 0,9.74705 0,19.4941 0,29.24115 -0.15292,19.74149 0.27571,39.47832 0.77753,59.21191 0.94945,25.87392 1.36408,51.75707 1.42145,77.64675 0.12458,30.63083 -0.44323,61.25667 -0.68841,91.88524 -0.31188,32.06133 0.18259,64.1217 0.54978,96.18012 0.4929,30.74886 0.0135,61.49957 -0.5254,92.24384 -0.48155,25.37276 -0.70509,50.74902 -0.82424,76.12572 -0.0704,17.50509 -0.0707,35.01033 -0.0692,52.51553 0.002,11.04336 0.006,22.08672 0.008,33.13008 7.8e-4,4.20203 4.4e-4,2.18948 0.001,6.03765 0.008,53.03301 75.00809,53.02157 75,-0.0114 v 0 c -5.9e-4,-3.85168 -2.5e-4,-1.83737 -0.001,-6.04291 -0.002,-11.03992 -0.006,-22.07984 -0.008,-33.11976 -0.001,-17.38584 -0.001,-34.77174 0.0684,-52.15748 0.11732,-25.05588 0.33767,-50.11133 0.81355,-75.16331 0.55132,-31.46856 1.0333,-62.9437 0.53199,-94.41692 -0.36164,-31.57226 -0.85321,-63.14644 -0.54725,-94.72158 0.24656,-30.88505 0.81922,-61.76739 0.69061,-92.65475 -0.0613,-26.46958 -0.47614,-52.93297 -1.44558,-79.38651 -0.48725,-19.09713 -0.90625,-38.19731 -0.75321,-57.30218 0,-9.74705 0,-19.4941 0,-29.24115 0,-53.033007 -75,-53.033007 -75,0 z"/>
<path d="m 537.54495,118.21677 c 0,9.26603 0,18.53206 0,27.79809 -0.0565,17.76463 0.54961,35.52205 0.87068,53.28217 0.32907,21.85842 0.0588,43.72116 -0.0492,65.58064 -0.12033,26.10974 -0.45984,52.21776 -0.63391,78.32725 -0.15481,26.36198 -0.17392,52.72449 -0.1886,79.08684 -0.008,23.45899 -0.004,46.91798 -0.002,70.37697 0.002,21.51418 0.002,43.02835 0.003,64.54253 0.0392,20.14544 -0.0864,40.29148 0.0795,60.43641 0.20482,16.18985 0.39762,32.37974 0.49965,48.5706 0.0638,11.94992 0.0729,23.90004 0.0769,35.8501 8e-4,3.50326 3e-5,7.00653 -8.3e-4,10.50979 -0.013,53.03301 74.98704,53.05133 75,0.0183 v 0 c 8.6e-4,-3.51779 0.002,-7.03558 8.2e-4,-10.55337 -0.004,-12.09946 -0.0134,-24.19898 -0.0784,-36.2983 -0.10271,-16.24222 -0.29379,-32.48349 -0.50079,-48.72468 -0.16972,-19.93608 -0.0318,-39.87346 -0.0768,-59.81007 -3.5e-4,-21.51589 -9.5e-4,-43.03179 -0.003,-64.54768 -0.002,-23.44296 -0.006,-46.88591 0.002,-70.32886 0.0146,-26.20971 0.0334,-52.41958 0.18695,-78.62892 0.17413,-26.15253 0.51511,-52.30358 0.63465,-78.45637 0.11084,-22.43559 0.38558,-44.8745 0.0378,-67.30895 -0.31385,-17.30759 -0.90498,-34.61257 -0.85839,-51.92442 0,-9.26603 0,-18.53206 0,-27.79809 0,-53.033011 -75,-53.033011 -75,0 z"/>
<path d="m 455.58359,763.31433 c 8.60357,0.2799 17.21016,0.43386 25.8175,0.52992 16.36404,0.19878 32.69806,-0.73466 49.02329,-1.7209 18.63691,-1.30474 37.27474,-2.57916 55.92174,-3.7314 16.37747,-1.17763 32.79219,-1.64472 49.19768,-2.241 11.17551,-0.28953 22.35445,-0.18434 33.52855,0.0879 7.53913,0.20211 15.07798,0.41485 22.61916,0.52291 4.31441,0.0519 8.62918,0.0575 12.94384,0.058 4.94095,-0.0314 10.23664,-0.2118 14.8573,-2.11534 4.7366,-1.95131 8.91816,-5.04362 13.37724,-7.56543 40.39678,-34.35986 -8.19539,-91.48954 -48.59218,-57.12969 v 0 c 4.14355,-2.25343 8.05016,-5.01148 12.43064,-6.76029 2.53811,-1.01329 5.37219,-1.01333 8.0738,-1.42567 0.4265,-0.0651 1.72558,0.007 1.29429,-0.004 -0.47711,-0.0124 -0.95455,3.9e-4 -1.43183,5.8e-4 -3.96309,-4.5e-4 -7.92626,-0.005 -11.88913,-0.0505 -7.29017,-0.10226 -14.57786,-0.31712 -21.8661,-0.50843 -12.6876,-0.30596 -25.38143,-0.41416 -38.06993,-0.0604 -17.03961,0.6194 -34.08817,1.11623 -51.09894,2.33428 -18.61416,1.15021 -37.21957,2.41691 -55.82325,3.72538 -14.54215,0.8803 -29.0896,1.76004 -43.66722,1.58872 -8.88396,-0.0972 -17.7652,-0.29767 -26.64645,-0.5345 -53.03301,0 -53.03301,75 0,75 z"/>
</svg>
