<?xml version="1.0" ?>
<svg xmlns="http://www.w3.org/2000/svg" viewBox="0 0 1000 1000">
<path d="m 136.864529,194.788131 c -0.47855,-0.27141 -1.52298,-1.35739 -1.43563,-0.81422 0.12616,0.78453 1.07864,1.16789 1.59027,1.77587 0.80573,0.95746 1.65272,1.88715 2.3606,2.91906 1.33111,1.940379 3.02951,5.849919 3.88038,7.698509 1.30541,2.8361 2.5931,5.68033 3.88965,8.52049 8.11741,18.85114 17.34514,37.21064 25.25947,56.15079 4.1268,9.87604 8.54662,21.77458 12.32687,31.72684 6.58438,17.52374 13.50285,34.91818 20.602031,52.23891 4.32334,10.54818 8.65377,20.65432 12.73775,31.28483 1.71345,4.46006 3.28983,8.97158 4.93475,13.45737 6.44622,19.28026 11.68817,38.94326 17.07604,58.54034 0.66164,3.40021 2.02964,6.68767 2.47415,10.13937 0.0263,0.20431 -0.11506,-0.3956 -0.17259,-0.5934 7.03129,52.56483 81.36918,42.62108 74.33789,-9.94375 v 0 c -1.01548,-6.59231 -2.47201,-13.07967 -4.325,-19.4924 -5.94956,-21.62199 -11.73138,-43.32044 -19.00223,-64.54404 -1.89724,-5.14299 -3.72329,-10.3128 -5.69173,-15.42896 -10.60788,-27.57094 -22.86995,-54.49617 -32.86645,-82.31052 -4.72754,-12.4247 -8.60478,-22.92685 -13.7414,-35.18558 -8.12141,-19.38205 -17.5286,-38.19409 -25.85945,-57.483999 -3.93628,-8.45292 -6.92185,-15.47562 -11.82044,-23.4714 -6.547031,-10.68647 -15.036201,-20.07715 -25.016931,-27.63085 -44.15651,-29.3718 -85.6945109,33.07494 -41.538,62.44674 z"/>
<path d="m 271.62388,494.40086 c 7.62996,1.49425 15.23542,3.10963 22.89854,4.42813 12.35052,1.69593 24.85746,1.75933 37.29818,2.21382 15.12441,0.44272 30.22049,1.51818 45.33106,2.26746 19.56313,0.744 39.13992,1.18076 58.7162,1.36058 21.29501,0.22861 42.58478,-0.30405 63.87541,-0.60714 21.6187,-0.13169 43.23007,-0.73364 64.84529,-1.10309 20.01778,-0.27348 40.03412,-0.62995 60.04884,-1.07122 15.89769,-0.21211 31.79688,-0.20926 47.69265,0.10711 12.30211,0.24563 24.59949,0.67589 36.90065,0.96656 8.02621,0.31822 16.04808,-0.0693 24.0443,-0.74262 6.95488,-0.74194 13.88253,-1.73698 20.8053,-2.73269 4.79612,-0.53292 9.48359,-1.47669 14.14616,-2.71342 50.81862,-15.16471 29.37249,-87.03308 -21.44613,-71.86838 v 0 c 1.02203,-0.22212 4.12395,-0.70118 3.08891,-0.55095 -2.18464,0.3171 -4.38175,0.55256 -6.56083,0.91034 -5.49585,0.80846 -11.00429,1.55239 -16.51671,2.23585 -5.24978,0.47977 -10.51983,0.71721 -15.79167,0.48274 -12.39559,-0.29209 -24.78728,-0.72915 -37.18392,-0.97271 -16.94206,-0.3344 -33.88796,-0.34176 -50.83188,-0.10361 -19.89118,0.43855 -39.78398,0.79226 -59.67821,1.06397 -21.54564,0.36872 -43.08744,0.96812 -64.63656,1.09981 -20.70833,0.29816 -41.41582,0.81773 -62.12844,0.60247 -18.56735,-0.16244 -37.13477,-0.59029 -55.69027,-1.27232 -15.43291,-0.75865 -30.85016,-1.86813 -46.29752,-2.30895 -9.16034,-0.33334 -18.34138,-0.48885 -27.48005,-1.20601 -7.18513,-1.19186 -14.28842,-2.82622 -21.4461,-4.16687 -52.10044,-9.90176 -66.10364,63.77938 -14.0032,73.68114 z"/>
<path d="m 795.1248,156.611133 c -3.56627,10.16276 -7.31556,20.24974 -10.07413,30.6784 -1.00846,3.81243 -1.84239,7.6689 -2.76358,11.50336 -3.44982,16.032167 -5.49696,32.316337 -8.67347,48.400247 -2.09794,10.62267 -2.81714,13.1655 -5.33628,23.69597 -4.8559,20.46116 -12.29227,40.15147 -18.66515,60.15232 -1.37994,4.33083 -2.65286,8.69503 -3.97929,13.04255 -6.56777,22.02571 -9.706,44.81942 -13.9929,67.34125 -2.02896,10.24816 -4.99005,20.28531 -8.28803,30.18909 -0.20103,0.51464 -0.40206,1.02928 -0.60309,1.54393 -18.5289,49.69084 51.74457,75.89466 70.27347,26.20381 v 0 c 0.50804,-1.38695 1.01609,-2.77391 1.52413,-4.16086 4.30798,-13.05188 8.15537,-26.27625 10.77628,-39.78129 3.76977,-19.88673 6.51568,-40.01259 12.0663,-59.51727 7.84787,-25.91252 17.51892,-51.27767 23.84911,-77.64354 2.96784,-12.51806 3.66777,-14.92842 6.1454,-27.53844 2.91671,-14.84474 4.92428,-29.84606 7.89328,-44.67973 1.65368,-7.16985 1.80755,-8.43854 3.92747,-15.34484 2.73792,-8.919597 6.55254,-17.483617 8.84065,-26.545027 12.4026,-51.56234 -60.51757,-69.1022702 -72.92017,-17.53993 z"/>
</svg>
