<?xml version="1.0" ?>
<svg xmlns="http://www.w3.org/2000/svg" viewBox="0 0 1000 1000">
<path d="m 165.496577,215.19636 c 19.170609,2.93557 38.561633,3.73896 57.922463,4.15578 26.29323,0.32189 52.58445,-0.66267 78.86068,-1.50993 19.89335,-0.80854 39.80265,-1.14568 59.70698,-1.57961 13.13186,-0.44454 26.26722,-0.73066 39.40516,-0.90783 53.02816,-0.71668 52.01462,-75.709815 -1.01354,-74.993135 v 0 c -13.34507,0.18073 -26.68785,0.46427 -40.02669,0.9188 -20.16585,0.43984 -40.33667,0.7843 -60.49148,1.60083 -24.95434,0.80632 -49.92288,1.75097 -74.8933,1.48686 -15.76073,-0.30897 -31.544141,-0.89478 -47.16717,-3.15576 -52.314595,-8.69961 -64.617697,65.284395 -12.303103,73.983995 z"/>
<path d="m 389.51294,165.267471 c -1.63205,14.39297 -2.02087,28.89144 -2.78619,43.347989 -1.49835,25.22596 -2.50343,50.47463 -3.44667,75.7261 -1.48752,32.37192 -2.62247,64.75618 -3.56205,97.14811 -1.04402,35.12344 -1.80464,70.25472 -2.49751,105.38663 -0.86651,33.54687 -1.44072,67.09465 -1.2393,100.65283 0.18422,29.23845 2.34715,58.40011 4.79993,87.51864 1.89832,21.28596 4.07498,42.5477 5.43165,63.87712 0.78639,15.72789 1.2639,31.47092 1.57779,47.21497 0.18566,10.52405 0.23128,21.04985 0.24817,31.57531 0.005,4.26043 -0.001,8.52086 -0.007,12.78129 -0.0736,53.03296 74.92629,53.1371 74.99993,0.10414 v 0 c 0.006,-4.33551 0.0121,-8.67102 0.007,-13.00654 -0.0178,-10.98556 -0.0671,-21.97147 -0.2631,-32.95554 -0.33856,-16.84238 -0.84773,-33.68414 -1.71616,-50.50807 -1.40714,-21.83005 -3.56833,-43.59685 -5.54319,-65.38113 -2.29152,-27.17614 -4.35507,-54.39021 -4.53639,-81.67902 -0.20535,-32.91241 0.38346,-65.81421 1.22613,-98.71556 0.68791,-34.89998 1.44349,-69.79933 2.48056,-104.6909 0.93319,-32.18357 2.06394,-64.3593 3.54132,-96.52301 0.92853,-24.86318 1.9159,-49.72363 3.3941,-74.56157 0.63789,-12.05626 1.07152,-24.127709 2.05752,-36.161549 7.88442,-52.44365 -66.2821,-63.59389 -74.16651,-11.15024 z"/>
<path d="m 181.452302,847.61034 c 13.64958,-0.3705 27.297788,-0.86218 40.940198,-1.44699 21.95948,-0.97729 43.83745,-3.11176 65.75158,-4.73618 19.28856,-1.62116 38.62715,-2.26713 57.97339,-2.62146 13.67238,-0.28395 27.34444,-0.25554 41.01361,0.13214 9.54593,0.40278 19.09555,0.58794 28.64911,0.48168 0.71818,-0.0122 1.43636,-0.0244 2.15455,-0.0366 53.02507,-0.91765 51.72732,-75.90642 -1.29775,-74.98877 v 0 c -0.5729,0.0101 -1.1458,0.0203 -1.7187,0.0304 -8.5696,0.10245 -17.13365,-0.0996 -25.69638,-0.45748 -14.82667,-0.4074 -29.65648,-0.46189 -44.48644,-0.14856 -20.73999,0.38448 -41.4719,1.09217 -62.15078,2.81506 -21.1387,1.57523 -42.2431,3.6262 -63.42416,4.59952 -13.48813,0.58574 -26.982408,1.06183 -40.477868,1.42848 -52.99684,1.95844 -50.22719,76.90728 2.76964,74.94884 z"/>
<path d="m 256.76676,176.428749 c -1.80904,12.33423 -1.27772,24.872241 -1.20876,37.299751 0.20712,20.88159 -0.2122,41.76044 -0.8196,62.63188 -1.0056,27.83119 -1.91943,55.6641 -2.27325,83.51183 -0.23396,31.30154 0.93615,62.58755 1.67404,93.87504 0.74801,32.46625 0.77981,64.94195 1.03137,97.41407 0.0832,30.33128 1.39085,60.63101 3.34576,90.89314 1.50443,22.57274 3.38211,45.11913 4.63181,67.70814 0.77614,15.04916 0.99919,30.11803 1.10409,45.18432 0.0448,8.82337 0.0266,17.64689 0.0114,26.47032 -0.007,3.77633 -0.0137,7.55267 -0.0174,11.329 -0.001,1.48245 -0.001,2.96489 -0.001,4.44733 5e-5,0.8439 3e-5,0.42218 8e-5,1.26524 0.003,53.03301 75.00343,53.02816 75,-0.005 v 0 c -5e-5,-0.84215 -3e-5,-0.42113 -8e-5,-1.26316 -5e-5,-1.45724 -5e-5,-2.91448 0.001,-4.37172 0.004,-3.75761 0.0106,-7.51522 0.0173,-11.27283 0.0155,-9.04195 0.0338,-18.084 -0.0132,-27.1259 -0.1152,-16.27787 -0.36905,-32.55828 -1.21767,-48.81713 -1.27205,-22.81804 -3.1347,-45.59552 -4.67321,-68.39644 -1.87338,-28.8414 -3.11494,-57.71924 -3.19119,-86.6272 -0.25528,-32.86799 -0.28855,-65.7396 -1.04998,-98.60158 -0.71733,-30.38414 -1.85708,-60.76664 -1.65908,-91.16425 0.34009,-27.43618 1.26755,-54.857 2.24758,-82.27699 0.62951,-21.7357 1.06287,-43.47901 0.85002,-65.22518 -0.0442,-7.93761 -0.19127,-15.886721 0.0637,-23.820671 9.23638,-52.22236 -64.61739,-65.28451 -73.85373,-13.06201 z"/>
</svg>
