<?xml version="1.0" ?>
<svg xmlns="http://www.w3.org/2000/svg" width="800" height="1000">
<path d="m 40.463406,460.44181 c 0,17.47811 0,34.95623 0,52.43434 0,27.86017 0,55.72035 0,83.58053 0,25.92688 0,51.85376 0,77.78064 0,14.58919 0,29.17837 0,43.76755 0,5.86934 0,11.73869 0,17.60803 0,0.71392 0,1.42784 0,2.14176 0,53.033 75.000004,53.033 75.000004,0 v 0 c 0,-0.71392 0,-1.42784 0,-2.14176 0,-5.86934 0,-11.73869 0,-17.60803 0,-14.58918 0,-29.17836 0,-43.76755 0,-25.92688 0,-51.85376 0,-77.78064 0,-27.86018 0,-55.72036 0,-83.58053 0,-17.47811 0,-34.95623 0,-52.43434 0,-53.03301 -75.000004,-53.03301 -75.000004,0 z"/>
<path d="m 69.344791,472.96086 c 16.677396,5.69348 34.312309,6.79384 51.761109,7.81881 30.07202,1.1486 60.17184,1.35338 90.26251,1.24862 35.64186,-0.5078 71.27436,-1.31887 106.92029,-1.51891 35.95518,0.14271 71.90996,-0.0451 107.8651,-0.0533 33.47573,-0.14828 66.95276,-0.33301 100.42554,-0.81862 26.51891,-0.30829 53.03803,-0.58805 79.55333,0.0352 19.33083,0.60119 38.6705,0.86708 58.00768,1.184 9.22418,-0.21854 18.53105,0.84708 27.74492,0.007 2.04763,-0.18672 4.0803,-0.51161 6.12045,-0.76742 2.21222,-0.54921 4.42445,-1.09843 6.63667,-1.64765 50.73889,-15.42936 28.91847,-87.18499 -21.82041,-71.75563 v 0 c 1.1375,-0.2224 2.275,-0.4448 3.41251,-0.66721 0.54473,-0.0181 1.09691,-0.14608 1.63419,-0.0545 0.43684,0.0745 -0.88221,0.0924 -1.3251,0.10717 -1.01524,0.0338 -2.03137,0.0411 -3.04716,0.0386 -6.04276,-0.0152 -12.08491,-0.20346 -18.12729,-0.2502 -19.16582,-0.31399 -38.33409,-0.57623 -57.49357,-1.17381 -27.46003,-0.63172 -54.92336,-0.38339 -82.38698,-0.0475 -33.11487,0.48292 -66.23406,0.66062 -99.35187,0.81069 -36.0904,0.008 -72.18043,0.19499 -108.27089,0.0545 -35.5941,0.20162 -71.17511,0.99271 -106.76487,1.51819 -28.56911,0.10438 -57.14517,-0.0963 -85.69846,-1.12593 -11.12094,-0.6195 -22.48784,-0.7985 -33.1535,-4.35905 -50.499493,-16.19571 -73.403692,55.22135 -22.904199,71.41707 z"/>
<path d="m 110.63368,593.62478 c 14.46712,2.11057 29.01268,3.60415 43.55606,5.07044 26.28296,2.44723 52.64731,3.86278 79.01217,5.05951 30.21847,1.38128 60.46649,1.83009 90.71167,2.1017 29.18117,0.0336 58.35731,0.5485 87.51731,1.64779 27.79979,1.49637 55.59149,3.04671 83.40996,4.16292 25.02796,0.94854 50.0737,1.21877 75.11444,1.61742 19.72434,0.337 39.45142,0.43742 59.17819,0.50085 13.68774,-0.0921 27.3735,-0.35326 41.06066,-0.50502 8.10977,-0.24059 16.4108,-0.21882 24.27101,-2.56833 3.13942,-0.93841 6.1266,-2.32617 9.1899,-3.48926 48.17495,-22.17373 16.81656,-90.30339 -31.35839,-68.12966 v 0 c 0.37508,-0.10682 4.58157,-1.62815 6.02277,-1.31571 0.44183,0.0958 -0.88882,0.17525 -1.33921,0.21441 -2.31412,0.20118 -5.38494,0.23556 -7.61842,0.29317 -13.32944,0.14807 -26.65758,0.39556 -39.98746,0.50079 -19.40909,-0.0623 -38.81851,-0.15987 -58.22523,-0.49174 -24.43665,-0.38902 -48.87828,-0.64863 -73.3027,-1.56667 -27.88226,-1.11774 -55.73632,-2.69387 -83.60104,-4.17034 -29.87423,-1.11774 -59.76425,-1.66676 -89.66005,-1.69761 -29.33726,-0.26207 -58.67746,-0.68962 -87.98891,-2.02786 -24.98858,-1.12993 -49.97677,-2.46349 -74.8896,-4.7587 -14.07734,-1.41679 -28.15353,-2.87553 -42.15704,-4.91624 -52.656926,-6.30463 -61.573018,68.16351 -8.91609,74.46814 z"/>
<path d="m 663.879,443.72424 c 2.29617,10.82179 3.27522,21.86172 4.18461,32.86851 1.53886,19.21304 1.30165,38.49086 0.75019,57.737 -0.736,21.10398 -2.15213,42.17459 -3.10665,63.2685 -1.01611,19.0531 -1.30704,38.13026 -1.71149,57.20241 -0.51452,15.5424 -0.92889,31.08699 -1.18816,46.63574 -0.10612,7.01477 -0.17225,14.03015 -0.18802,21.04571 -0.11725,53.03288 74.88256,53.1987 74.99982,0.16582 v 0 c 0.0144,-6.65487 0.078,-13.30956 0.17782,-19.96369 0.2563,-15.43546 0.67786,-30.86638 1.18173,-46.29571 0.39068,-18.47382 0.6639,-36.95274 1.65199,-55.40799 0.96878,-21.51446 2.43343,-43.00429 3.15298,-64.53025 0.61613,-22.0426 0.81405,-44.12039 -0.98221,-66.121 -1.20958,-14.26645 -2.59176,-28.55878 -5.64193,-42.57193 -11.29029,-51.81727 -84.57097,-35.85038 -73.28068,15.96688 z"/>
</svg>
