<?xml version="1.0" ?>
<svg xmlns="http://www.w3.org/2000/svg" width="800" height="1000">
<path d="m 61.98645,80.861186 c 15.630901,7.444685 31.291653,14.801093 46.72032,22.665154 18.64503,9.75625 37.90697,18.23365 57.05012,26.94235 10.69186,4.864 21.34932,9.80326 32.02553,14.70153 29.2489,13.95814 59.77313,24.92427 90.29261,35.71526 17.33664,6.21916 35.09854,11.39567 51.88369,19.05101 1.41506,1.07957 3.69163,1.50117 4.95846,2.87966 0.11972,0.13028 -0.3323,-0.13115 -0.47679,-0.23326 -1.55046,-1.09568 -1.58869,-1.20429 -2.85244,-2.39183 35.69248,39.22431 91.16404,-11.25248 55.47156,-50.47679 v 0 c -3.19384,-3.32048 -3.57634,-3.91342 -7.42694,-6.98676 -5.74298,-4.58373 -12.33655,-7.98889 -18.90955,-11.191 C 351.97623,123.17903 332.46399,116.82707 313.06654,110.1718 284.6759,100.14281 256.25418,90.010241 229.05795,77.002475 218.22442,72.032026 207.40914,67.021645 196.55969,62.086037 178.50338,53.871898 160.3206,45.905781 142.73927,36.692303 128.25742,29.324533 113.68997,22.107941 98.82805,15.533577 52.634455,-10.517369 15.792855,54.810241 61.98645,80.861186 Z"/>
<path d="m 330.3734,188.83639 c 0.0204,14.56311 0.25481,29.12619 0.47464,43.68759 0.61688,30.26776 1.60349,60.5263 2.34096,90.79131 0.65343,33.20496 1.90256,66.39156 3.72056,99.55215 1.87835,29.47319 3.70639,58.93496 4.20235,88.46798 0.0198,24.91114 -0.48609,49.81663 -0.51143,74.72781 0.0106,17.17647 0.19354,34.35152 -0.0259,51.52705 -0.0776,5.33747 -0.16998,10.6747 -0.25278,16.01208 -0.0348,2.2415 0.0423,4.55823 -0.26114,6.79209 -0.0389,0.27742 -0.0425,0.56218 -0.11683,0.83227 -0.0428,0.15555 -1.2e-4,-0.32358 0.0208,-0.48354 0.0516,-0.39405 0.11584,-0.7868 0.1965,-1.17594 0.31645,-1.52677 0.57616,-1.97356 1.20466,-3.71719 -21.70973,48.38581 46.71815,79.08802 68.42788,30.7022 v 0 c 2.55923,-6.36897 4.59051,-12.87292 4.99554,-19.78284 0.71257,-9.39233 0.56614,-18.8149 0.7793,-28.22756 0.22016,-17.46821 0.0523,-34.93575 0.0319,-52.40487 0.024,-25.36535 0.56648,-50.72499 0.50039,-76.09051 -0.53482,-30.47418 -2.33399,-60.87984 -4.3041,-91.29154 -1.78234,-32.39927 -2.99035,-64.82473 -3.63,-97.26755 -0.73256,-30.03373 -1.70715,-60.06117 -2.32727,-90.09747 -0.21487,-14.18341 -0.44509,-28.36847 -0.46606,-42.55352 0,-53.03301 -75,-53.03301 -75,0 z"/>
<path d="m 362.03798,642.48616 c -14.73261,1.60532 -28.94541,6.08332 -43.05792,10.40401 -21.91665,7.55338 -43.8688,14.96499 -66.20625,21.17973 -23.0469,6.49668 -46.46832,11.49426 -69.61356,17.6045 -20.80297,5.40585 -41.04703,12.56446 -61.07686,20.29853 -12.58468,4.7732 -25.513092,8.54862 -38.37274,12.49286 -3.380064,1.36041 -6.761644,1.97412 -10.341333,2.13728 -2.759038,0.0747 -1.401403,0.071 -4.072882,0.0173 -53.032419,-0.25011 -53.386134,74.74905 -0.353716,74.99917 v 0 c 6.456935,-0.009 3.326142,0.0589 9.392829,-0.18109 9.317945,-0.68171 18.513932,-2.18418 27.369032,-5.27004 14.55738,-4.46567 29.17841,-8.78272 43.40714,-14.235 17.46263,-6.75043 35.08812,-13.05849 53.23546,-17.75481 23.466,-6.2269 47.24348,-11.21563 70.60044,-17.87286 22.94612,-6.4293 45.57358,-13.85305 68.06494,-21.72479 9.24825,-2.85538 18.53643,-5.92607 28.12029,-7.43113 52.79519,-5.01683 45.70032,-79.6805 -7.09487,-74.66367 z"/>
</svg>
