<?xml version="1.0" ?>
<svg xmlns="http://www.w3.org/2000/svg" viewBox="0 0 1000 1000">
<path d="m 410.55336,354.90808 c 8.54978,8.29167 18.03762,15.51303 26.41149,24.00412 6.459,6.54941 7.58013,8.23312 13.28004,15.19326 4.87965,6.57672 7.69592,14.20291 10.65001,21.7444 20.07419,49.08693 89.4936,20.69774 69.41941,-28.38919 v 0 c -1.84029,-4.39228 -3.47644,-8.87578 -5.52087,-13.17683 -7.00528,-14.73771 -7.78171,-14.78497 -16.86181,-28.10792 -8.49235,-10.12128 -9.86429,-12.19813 -19.32207,-21.6496 -9.53218,-9.52582 -20.1098,-17.83993 -29.88002,-27.09916 -40.64515,-34.06571 -88.82133,23.41522 -48.17618,57.48092 z"/>
<path d="m 343.20196,524.58297 c 20.23693,-3.57251 39.64542,-10.55628 59.3941,-16.04735 19.97858,-5.555 30.00627,-7.80362 50.74891,-12.85799 48.96996,-11.60866 98.0059,-23.10149 147.55176,-32.00598 8.24195,-1.27612 13.91253,-2.28757 21.9501,-3.10991 1.89306,-0.19368 3.79287,-0.3641 5.69567,-0.38726 0.19656,-0.002 0.6955,0.33695 0.50054,0.31183 -15.68319,-2.02064 -8.2791,-0.76678 -26.26619,-15.19719 -1.6782,-5.14615 -3.35641,-10.29229 -5.03461,-15.43844 -0.11845,-0.88815 0.54035,-2.64094 -0.35536,-2.66446 -1.01369,-0.0266 -1.03955,1.74141 -1.55566,2.61429 -1.22801,2.07688 -2.45228,4.15596 -3.6767,6.23496 -8.56019,14.53483 -4.82121,8.1565 -14.28334,24.45746 -23.78065,38.89206 -48.77953,77.04082 -74.38048,114.75514 -5.77901,8.1421 -11.51848,16.31241 -17.33704,24.4263 -15.97889,22.28233 -21.06239,29.5578 -38.28311,50.85016 -11.73516,14.5098 -30.06261,35.95539 -42.55543,49.80142 -7.16413,7.94015 -14.57753,15.65179 -21.8663,23.47769 -19.92238,21.8748 -41.89823,41.69608 -65.33189,59.72538 -15.74683,12.11524 -29.24261,21.75862 -46.53795,31.60883 -8.15177,4.64267 -16.68481,8.58137 -25.02722,12.87206 -47.046814,24.47648 -12.43184,91.01071 34.61497,66.53423 v 0 c 10.15954,-5.3351 20.5458,-10.2591 30.47861,-16.00529 19.42915,-11.23988 35.99763,-23.01508 53.67707,-36.72911 26.13875,-20.27594 50.69085,-42.50554 73.03814,-66.92085 7.80799,-8.40167 15.74654,-16.68389 23.42399,-25.20502 13.40182,-14.87455 32.64288,-37.42963 45.18254,-52.97926 17.95599,-22.26608 23.89287,-30.65717 40.35872,-53.63705 6.11837,-8.53885 12.15099,-17.13881 18.22649,-25.70822 26.57295,-39.17699 52.55846,-78.78196 77.18416,-119.21674 5.04489,-8.69221 10.29568,-17.26679 15.18157,-26.04936 2.50591,-4.50447 5.10462,-8.97309 7.23528,-13.66671 3.02858,-6.67165 8.09914,-20.20792 7.58532,-27.83872 -0.52075,-7.7336 -3.30871,-15.14501 -4.96307,-22.71752 -6.60775,-6.12653 -12.21575,-13.55027 -19.82327,-18.37961 -4.4448,-2.82161 -10.10495,-3.06808 -15.30073,-3.91751 -3.21946,-0.52634 -6.52412,-0.2809 -9.78487,-0.18362 -11.85413,0.35366 -23.56748,2.85126 -35.26875,4.47057 -51.03995,9.21712 -101.58306,20.94697 -152.02842,32.9544 -23.11049,5.64424 -31.84483,7.56718 -54.08794,13.75459 -46.78838,13.01521 2.7179,-0.30977 -34.45277,10.17669 -7.11606,2.00756 -8.61111,2.29181 -14.4103,3.58766 -52.50234,7.48364 -41.91887,81.73316 10.58346,74.24951 z"/>
<path d="m 318.85203,627.61126 c 18.16617,10.06981 34.51436,23.00837 50.82625,35.76728 30.37326,24.55959 61.1553,48.59899 91.28141,73.46373 29.51051,24.54177 57.63802,50.64894 85.65862,76.85682 21.68846,20.24347 43.16458,40.77761 65.82609,59.94596 4.25422,3.59845 8.60776,7.07781 12.91163,10.61671 18.35368,14.82975 38.14543,27.82577 59.21028,38.47552 13.85214,7.00323 22.3643,10.3543 36.75317,16.5005 7.12722,2.79369 14.25444,5.58737 21.38166,8.38105 49.38926,19.31841 76.70961,-50.52856 27.32034,-69.84696 v 0 c -6.44086,-2.51342 -12.88173,-5.02683 -19.32259,-7.54025 -11.61574,-4.92673 -19.55776,-8.07191 -30.68686,-13.58973 -16.78005,-8.31957 -32.5091,-18.59079 -47.07473,-30.35447 -3.75908,-3.0786 -7.56508,-6.10079 -11.27723,-9.23581 -21.98542,-18.56736 -42.77507,-38.51333 -63.81166,-58.12913 -29.15512,-27.26596 -58.4405,-54.4069 -89.15436,-79.92855 -30.6442,-25.28086 -61.93363,-49.74946 -92.83566,-74.7119 -19.2564,-15.03447 -38.65308,-30.10448 -60.09315,-41.95794 -46.165,-26.10158 -83.07821,39.18559 -36.91321,65.28717 z"/>
</svg>
