<?xml version="1.0" ?>
<svg xmlns="http://www.w3.org/2000/svg" width="800" height="1000">
<path d="m 369.24908,192.78902 c 0,9.09514 0,18.19028 0,27.28542 0,18.47656 0,36.95313 0,55.42969 0,27.74677 0,55.49354 0,83.24031 0.10355,36.01134 0.001,72.0197 -0.55402,108.02701 -0.71959,37.14508 -0.80713,74.2977 -0.60529,111.44787 0.18797,25.97473 0.35735,51.94954 0.45162,77.92479 0.041,12.41493 0.0574,24.82991 0.0606,37.2449 3.5e-4,2.00434 -1.1e-4,4.00868 -10e-4,6.01301 -0.0319,53.033 74.96805,53.07817 74.99999,0.0452 v 0 c 0.001,-2.02577 0.002,-4.05154 0.001,-6.07731 -0.003,-12.49937 -0.0197,-24.99875 -0.0611,-37.49807 -0.0945,-26.02061 -0.26369,-52.04077 -0.45224,-78.06086 -0.19989,-36.62947 -0.1138,-73.26135 0.59754,-109.88578 0.55879,-36.39188 0.66911,-72.78479 0.56289,-109.18073 0,-27.74677 0,-55.49354 0,-83.24031 0,-18.47656 0,-36.95313 0,-55.42969 0,-9.09514 0,-18.19028 0,-27.28542 0,-53.03301 -75,-53.03301 -75,0 z"/>
</svg>
