<?xml version="1.0" ?>
<svg xmlns="http://www.w3.org/2000/svg" width="0" height="1000">
<path d="m -741.63631,98.391029 c -1.66302,-8.1288 -5.60864,-15.76101 -6.223,-24.08277 0.386,-8.47404 1.22174,-17.03581 3.76028,-25.16052 2.24567,-2.16779 -1.61756,3.74747 -1.59581,4.0731 0.0273,0.40923 0.81788,-0.0881 1.21646,-0.18478 0.86612,-0.21004 1.71402,-0.48912 2.57102,-0.73368 0.97398,-0.23149 1.94796,-0.46299 2.92194,-0.69448 5.3027,-0.91847 11.11035,-1.56096 16.13748,0.85548 0.95072,0.45699 1.79486,1.10876 2.69229,1.66315 2.80685,2.61447 7.63613,5.35531 8.78206,9.26649 0.19755,0.67424 -0.004,2.69468 -0.0378,3.2265 -0.10237,5.36786 -2.51879,8.11735 -6.55358,11.15662 -4.01165,2.4573 -8.03372,4.92109 -12.13902,7.22288 -4.65697,1.6812 -9.70658,2.25431 -14.59559,2.93424 -1.76741,0.30159 -3.47033,0.3165 -5.22147,0.0473 -35.28167,-2.28124 -38.50784,47.614531 -3.22617,49.895841 v 0 c 5.17377,0.2493 10.34714,0.3873 15.48932,-0.4415 11.05428,-1.59731 22.26969,-3.49841 32.19109,-8.92719 7.5957,-4.32693 15.25105,-8.6979 21.89045,-14.43526 5.41309,-5.40028 7.83661,-7.25204 12.05835,-13.97837 6.12808,-9.763631 9.52506,-20.808351 9.79681,-32.351221 0.0904,-3.83759 -0.51774,-7.65983 -0.77661,-11.48975 -2.62675,-10.22949 -2.33593,-12.233551 -7.71565,-21.247571 -4.75133,-7.96109 -12.00968,-14.972599 -19.52508,-20.305179 -3.11782,-2.21226 -6.47946,-4.0591 -9.71919,-6.0886598 -3.70898,-1.54038 -7.30046,-3.40157 -11.12694,-4.62115 -13.32165,-4.24589003 -27.49787,-3.76865003 -40.9862,-0.7728 -7.53157,2.0367 -15.34161,4.14629 -21.96752,8.4731498 -9.5139,6.21278 -14.94412,12.93382 -18.6068,23.616209 -0.59135,2.13325 -1.25765,4.24714 -1.77404,6.39977 -3.05134,12.719691 -4.18689,25.975451 -3.5266,39.017961 0.40301,2.72076 0.68935,5.46139 1.20903,8.1623 1.37627,7.15289 4.20813,13.920211 5.93537,20.980041 8.11488,34.41152 56.78003,22.93528 48.66516,-11.476171 z"/>
</svg>
