<?xml version="1.0" ?>
<svg xmlns="http://www.w3.org/2000/svg" width="800" height="0">
<path d="m 717.96733,-900.54255 c -1.66302,-8.1288 -5.60864,-15.761 -6.223,-24.0828 0.386,-8.474 1.22174,-17.0358 3.76028,-25.1605 2.24567,-2.1678 -1.61756,3.7474 -1.59581,4.0731 0.0273,0.4092 0.81788,-0.088 1.21646,-0.1848 0.86612,-0.21 1.71402,-0.4891 2.57102,-0.7337 0.97398,-0.2315 1.94796,-0.463 2.92194,-0.6945 5.3027,-0.9184 11.11035,-1.5609 16.13748,0.8555 0.95072,0.457 1.79486,1.1088 2.69229,1.6632 2.80685,2.6144 7.63613,5.3553 8.78206,9.2665 0.19755,0.6742 -0.004,2.6946 -0.0378,3.2265 -0.10237,5.3678 -2.51879,8.1173 -6.55358,11.1566 -4.01165,2.4573 -8.03372,4.9211 -12.13902,7.2229 -4.65697,1.6812 -9.70658,2.2543 -14.59559,2.9342 -1.76741,0.3016 -3.47033,0.3165 -5.22147,0.047 -35.28167,-2.2812 -38.50784,47.6145 -3.22617,49.8958 v 0 c 5.17377,0.2493 10.34714,0.3873 15.48932,-0.4415 11.05428,-1.5973 22.26969,-3.4984 32.19109,-8.9271 7.5957,-4.327 15.25105,-8.6979 21.89045,-14.4353 5.41309,-5.4003 7.83661,-7.252 12.05835,-13.9784 6.12808,-9.7636 9.52506,-20.8083 9.79681,-32.3512 0.0904,-3.8376 -0.51774,-7.6598 -0.77661,-11.4898 -2.62675,-10.2294 -2.33593,-12.2335 -7.71565,-21.2475 -4.75133,-7.9611 -12.00968,-14.9726 -19.52508,-20.3052 -3.11782,-2.2123 -6.47946,-4.0591 -9.71919,-6.0887 -3.70898,-1.5403 -7.30046,-3.4015 -11.12694,-4.6211 -13.32165,-4.24586 -27.49787,-3.76866 -40.9862,-0.77276 -7.53157,2.03666 -15.34161,4.14626 -21.96752,8.47306 -9.5139,6.2128 -14.94412,12.9339 -18.6068,23.6162 -0.59135,2.1333 -1.25765,4.2472 -1.77404,6.3998 -3.05134,12.7197 -4.18689,25.9755 -3.5266,39.018 0.40301,2.7207 0.68935,5.4614 1.20903,8.1623 1.37627,7.1529 4.20813,13.9202 5.93537,20.98 8.11488,34.4115 56.78003,22.9353 48.66516,-11.4762 z"/>
</svg>
