<?xml version="1.0" ?>
<svg xmlns="http://www.w3.org/2000/svg" width="800" height="1000">
<path d="m 205.94014,287.0587 c 0,23.47863 0,46.95725 0,70.43587 -0.26236,42.79746 1.30748,85.57269 1.87154,128.36092 0.0912,43.05261 -0.81065,86.09962 -1.34766,129.14746 -0.20804,17.11968 -0.34758,34.24004 -0.45996,51.36057 -0.34793,53.03187 74.65046,53.52392 74.99838,0.49205 v 0 c 0.1113,-16.97274 0.2496,-33.94532 0.45575,-50.91722 0.54487,-43.69094 1.46546,-87.38115 1.3469,-131.07703 -0.56591,-42.45685 -2.11159,-84.9009 -1.86495,-127.36675 0,-23.47862 0,-46.95724 0,-70.43587 0,-53.033 -75,-53.033 -75,0 z"/>
<path d="m 372.06829,383.78515 c 0,15.21396 0,30.42791 0,45.64186 0,22.43117 0,44.86234 0,67.29352 0,20.05688 0,40.11376 0,60.17064 0,9.57511 0,19.15021 0,28.72532 0,53.03301 75,53.03301 75,0 v 0 c 0,-9.57511 0,-19.15021 0,-28.72532 0,-20.05688 0,-40.11376 0,-60.17064 0,-22.43118 0,-44.86235 0,-67.29352 0,-15.21395 0,-30.4279 0,-45.64186 0,-53.033 -75,-53.033 -75,0 z"/>
<path d="m 532.78125,219.66532 c 1.07382,13.05567 1.61732,26.14457 2.16423,39.23026 1.16569,24.36585 1.51067,48.75817 1.74871,73.14726 0.41921,32.1037 0.62829,64.2093 0.7512,96.31532 0.19486,33.11081 0.0241,66.22137 -0.5438,99.32758 -0.6685,30.27245 -1.51492,60.54047 -2.28423,90.81042 -0.55912,23.52436 -0.93111,47.05503 -0.86756,70.58638 0.0571,16.69938 0.36769,33.39427 0.75677,50.08852 0.22328,9.1296 0.35269,18.26102 0.41477,27.39303 0.0171,3.62451 0.0105,1.88243 0.0206,5.22623 0.16057,53.03276 75.16022,52.80569 74.99966,-0.22707 v 0 c -0.0108,-3.52541 -0.004,-1.68812 -0.022,-5.51187 -0.0656,-9.54365 -0.20027,-19.0867 -0.43338,-28.62784 -0.3772,-16.18417 -0.68175,-32.36881 -0.73672,-48.55799 -0.0708,-22.82382 0.30971,-45.64706 0.84367,-68.46413 0.77437,-30.47736 1.62779,-60.95274 2.29746,-91.43269 0.57392,-33.62963 0.75316,-67.26359 0.55422,-100.89787 -0.12365,-32.25502 -0.33329,-64.50963 -0.75424,-96.76232 -0.24739,-25.18913 -0.611,-50.38139 -1.81062,-75.54666 -0.61563,-14.71282 -1.23021,-29.43195 -2.52743,-44.10419 -5.66225,-52.72986 -80.23355,-44.72223 -74.5713,8.00763 z"/>
</svg>
