<?xml version="1.0" ?>
<svg xmlns="http://www.w3.org/2000/svg" viewBox="0 0 0 1000">
<path d="m -925.63495,372.55943 c 0.19012,0.56754 -0.239,-0.76657 -0.26433,-0.849 -0.0218,-0.071 0.0483,0.1405 0.0705,0.21138 0.10988,0.3505 0.12801,0.43847 0.23467,0.83619 0.18107,0.87665 0.4215,1.74312 0.54323,2.62997 0.58393,4.25453 0.58624,5.98088 0.13524,10.4905 -0.11322,1.13218 -0.39418,2.24155 -0.62263,3.35621 -0.0813,0.39658 -0.49752,1.87824 -0.23823,0.95047 -1.92424,6.60966 -5.55307,12.7488 -10.78808,17.3156 -2.22793,1.94354 -4.71801,3.59122 -7.28044,5.066 -1.78608,1.02797 -3.79757,1.60178 -5.69635,2.40267 -3.03354,0.9376 -6.14111,1.562 -9.32256,1.53532 -0.94976,-0.008 -1.89791,-0.0797 -2.84686,-0.11952 -6.29458,-1.13712 -7.24782,-0.87748 -13.21282,-3.80699 -1.75867,-0.86372 -3.38652,-1.98163 -4.98397,-3.11611 -2.44279,-1.7348 -4.39501,-3.86869 -6.28168,-6.15337 -2.66687,-3.47389 -4.58202,-7.43317 -5.7593,-11.64592 -0.52287,-1.87104 -0.60112,-2.63823 -0.87873,-4.40989 -0.38867,-2.67172 -0.22226,-5.35625 0.0373,-8.03115 -7.16515,52.54675 67.14717,62.67981 74.31232,10.13306 v 0 c 0.10077,-0.94521 0.23634,-1.88736 0.3023,-2.83563 0.19528,-2.80717 0.11569,-5.62191 -0.21206,-8.41527 -0.33931,-2.29292 -0.43422,-3.31185 -1.07604,-5.70011 -1.40558,-5.23027 -3.75523,-10.1353 -7.00875,-14.46989 -0.6134,-0.76213 -1.19548,-1.55057 -1.84021,-2.28639 -1.83243,-2.09135 -4.042,-4.30954 -6.26658,-5.93758 -4.31969,-3.16133 -7.86304,-5.06881 -13.09342,-6.63348 -2.34775,-0.70234 -4.81389,-0.92052 -7.22084,-1.38078 -1.20693,-0.0634 -2.41239,-0.16883 -3.6208,-0.19017 -4.6279,-0.0817 -9.22679,0.67655 -13.66177,1.96085 -2.13155,0.87457 -4.38511,1.49668 -6.39463,2.62371 -2.74913,1.54183 -5.41334,3.28546 -7.8041,5.33955 -5.70106,4.89822 -9.54247,11.48547 -11.64604,18.61122 -1.8845,6.82293 -2.07402,13.56081 -0.44418,20.46163 0.49586,1.96067 1.0501,3.90455 1.69458,5.82198 16.80444,50.30021 87.93968,26.53515 71.13524,-23.76506 z"/>
<path d="m -923.62674,506.0645 c 0,-0.64171 0,-1.28343 0,-1.92515 0,-0.43127 0,-0.86253 0,-1.2938 -0.0691,1.31404 -0.0359,2.63748 -0.20738,3.94212 -0.839,6.38482 -2.27864,10.52756 -6.04644,16.55184 -1.7125,2.73808 -4.09315,5.01583 -6.41507,7.26047 -2.3781,2.29897 -4.61838,3.39929 -7.33798,4.91722 -1.55305,0.6391 -3.06504,1.38892 -4.65916,1.91731 -4.3303,1.43534 -9.04902,2.04154 -13.59936,1.62675 -4.28981,-0.39104 -4.89481,-0.75016 -8.78741,-1.87999 -3.71764,-1.33386 -7.16902,-3.29164 -10.19699,-5.82035 -0.55731,-0.46542 -0.94059,-0.85906 -1.49319,-1.38857 -2.63439,-2.65654 -4.70809,-5.80147 -6.27898,-9.19085 1.5843,3.23412 0.74551,1.65529 2.51229,4.73867 27.68544,45.23291 91.65444,6.07979 63.969,-39.15313 v 0 c 1.41589,2.51036 0.74336,1.22369 2.01362,3.86208 -2.12931,-4.68645 -4.97677,-8.99468 -8.5808,-12.68075 -1.17643,-1.15858 -1.70664,-1.72408 -2.8949,-2.7536 -3.98399,-3.45177 -8.45819,-6.27546 -13.42716,-8.10085 -4.59146,-1.3902 -5.35709,-1.84631 -10.36818,-2.3533 -5.31564,-0.5378 -10.83542,0.0993 -15.918,1.72377 -1.84619,0.59006 -3.59992,1.43769 -5.39988,2.15654 -3.14208,1.71426 -5.7633,2.95882 -8.49616,5.54984 -2.46114,2.33341 -4.96774,4.71782 -6.7865,7.58037 -3.9452,6.20938 -5.4581,10.5708 -6.35607,17.20875 -0.19182,1.41798 -0.16353,2.8571 -0.2453,4.28566 0,0.43127 0,0.86253 0,1.2938 0,0.64172 0,1.28344 0,1.92515 0,53.03301 75,53.03301 75,0 z"/>
</svg>
