<?xml version="1.0" ?>
<svg xmlns="http://www.w3.org/2000/svg" width="1000" height="1000">
<path d="m 595.85013,307.05565 c 0.10961,10.3049 0.15759,20.62725 -1.82777,30.79394 -1.87798,9.61678 -4.65252,17.78362 -7.50821,27.24131 -8.4901,27.7359 -19.57468,54.54536 -30.95743,81.18924 -3.40653,7.97375 -6.7741,15.96541 -10.32418,23.87629 -3.59146,8.0031 -7.39897,15.90749 -11.09846,23.86123 -16.48141,34.47003 -34.80269,68.04653 -54.81071,100.59514 -13.06653,21.25633 -18.96244,29.76745 -32.74357,50.56159 -21.33364,31.11549 -43.9577,61.47306 -69.595,89.20912 -15.27237,16.52262 -18.86635,19.29331 -35.06038,34.30808 -20.47998,17.50071 -42.75068,32.8419 -66.25444,45.98695 -10.87137,6.08008 -16.7807,8.87018 -27.68015,14.29357 -47.45483,23.6757 -13.97233,90.78697 33.4825,67.11126 v 0 c 12.69529,-6.34849 19.48929,-9.5651 32.19214,-16.74094 28.20445,-15.9327 54.90936,-34.49969 79.36883,-55.76111 18.67448,-17.45163 22.74253,-20.6063 40.28512,-39.68495 27.86645,-30.30648 52.57181,-63.35944 75.78994,-97.30724 14.63108,-22.10312 20.73981,-30.92054 34.63439,-53.56874 21.32286,-34.75633 40.84586,-70.6076 58.41133,-107.40718 3.97344,-8.56479 8.05681,-17.07944 11.92032,-25.69439 3.64262,-8.12242 7.10195,-16.32596 10.5961,-24.51335 12.45759,-29.1902 24.49584,-58.59835 33.74898,-88.99268 1.94586,-6.65501 4.11946,-13.24762 5.83758,-19.96504 1.61936,-6.33132 3.05689,-12.71722 4.1687,-19.15708 2.29729,-13.30643 2.59106,-26.77791 2.42437,-40.23502 0,-53.033 -75,-53.033 -75,0 z"/>
<path d="m 339.11242,518.40006 c 0.18365,0.0948 0.36731,0.18967 0.55096,0.28451 0.3731,0.24233 0.72855,0.5143 1.1193,0.72698 12.22776,6.65522 -4.4522,-2.86233 13.54155,7.21236 9.75367,5.46108 13.44496,7.8362 23.39048,13.87595 37.83584,22.96218 73.52568,49.17901 108.71131,75.95833 25.70419,20.13451 51.06715,40.76667 75.11948,62.86753 12.09634,11.11491 16.35349,15.56671 27.73576,26.89816 14.87031,14.87249 28.76698,30.66847 43.26972,45.8884 36.61239,38.36708 90.87164,-13.41065 54.25926,-51.77773 v 0 c -14.98099,-15.6704 -29.25469,-32.01625 -44.64874,-47.29601 -12.7549,-12.66703 -17.0836,-17.2032 -30.65886,-29.65282 -25.52223,-23.40597 -52.39918,-45.29332 -79.66745,-66.61846 -37.29216,-28.35721 -75.1348,-56.09142 -115.23496,-80.39942 -11.23458,-6.8024 -15.64484,-9.62866 -26.80223,-15.82427 -9.84954,-5.46937 -19.85427,-10.82467 -30.62243,-14.27636 -2.18383,-0.70002 -4.45059,-1.10846 -6.67589,-1.66269 -52.18132,-9.46623 -65.56859,64.32931 -13.38726,73.79554 z"/>
</svg>
