<?xml version="1.0" ?>
<svg xmlns="http://www.w3.org/2000/svg" viewBox="0 0 1000 0">
<path d="m 60.039114,-899.35239 c -1.66302,-8.1288 -5.60864,-15.761 -6.223,-24.0828 0.386,-8.474 1.22174,-17.0358 3.76028,-25.1605 2.24567,-2.1678 -1.61756,3.7475 -1.59581,4.0731 0.0273,0.4093 0.81788,-0.088 1.21646,-0.1848 0.86612,-0.21 1.71402,-0.4891 2.57102,-0.7336 0.97398,-0.2315 1.94796,-0.463 2.92194,-0.6945 5.3027,-0.9185 11.11035,-1.561 16.13748,0.8555 0.95072,0.457 1.79486,1.1087 2.69229,1.6631 2.80685,2.6145 7.63613,5.3553 8.78206,9.2665 0.19755,0.6742 -0.004,2.6947 -0.0378,3.2265 -0.10237,5.3679 -2.51879,8.1174 -6.55358,11.1566 -4.01165,2.4573 -8.03372,4.9211 -12.13902,7.2229 -4.65697,1.6812 -9.70658,2.2543 -14.59559,2.9342 -1.76741,0.3016 -3.47033,0.3165 -5.22147,0.047 -35.28167,-2.2812 -38.50784,47.6146 -3.22617,49.8959 v 0 c 5.17377,0.2493 10.34714,0.3873 15.48932,-0.4415 11.05428,-1.5973 22.26969,-3.4984 32.19109,-8.9272 7.595706,-4.3269 15.251056,-8.6979 21.890446,-14.4353 5.41309,-5.4002 7.83661,-7.252 12.05835,-13.9783 6.12808,-9.7637 9.52506,-20.8084 9.79681,-32.3513 0.0904,-3.8375 -0.51774,-7.6598 -0.77661,-11.4897 -2.62675,-10.2295 -2.33593,-12.2336 -7.71565,-21.2476 -4.75133,-7.9611 -12.00968,-14.9726 -19.52507,-20.3052 -3.11782,-2.2122 -6.47946,-4.0591 -9.71919,-6.0886 -3.708981,-1.5404 -7.300466,-3.4016 -11.126946,-4.62116 -13.32165,-4.2459 -27.49787,-3.7686 -40.9862,-0.7728 -7.53157,2.03666 -15.34161,4.14626 -21.96752,8.47316 -9.5139,6.2128 -14.94412,12.9338 -18.6067999,23.6162 -0.59135,2.1332 -1.2576495,4.2471 -1.7740395,6.3998 -3.05134,12.7197 -4.186888,25.9754 -3.526598,39.0179 0.40301,2.7208 0.689348,5.4614 1.209028,8.1623 1.37627,7.1529 4.2081295,13.9202 5.9353694,20.9801 8.11488,34.4115 56.78003,22.9352 48.66516,-11.4762 z"/>
</svg>
