<?xml version="1.0" ?>
<svg xmlns="http://www.w3.org/2000/svg" width="1000" height="1000">
<path d="m 347.93663,372.25529 c 0,18.42865 0,36.85729 0,55.28593 0.016,34.97459 0.54961,69.94092 1.39794,104.90418 0.79439,35.54629 2.56606,71.05815 3.81222,106.58896 0.81616,22.51076 1.11748,45.05265 -0.0852,67.55285 -0.53135,6.48814 -0.2176,3.55496 -0.86642,8.80723 -6.12529,52.67808 68.37278,61.34055 74.49806,8.66246 v 0 c 0.97148,-8.65757 0.53669,-4.13867 1.26641,-13.56032 1.26304,-24.6809 1.08073,-49.40088 0.14098,-74.09315 -1.23863,-35.26071 -2.99313,-70.50275 -3.78816,-105.77866 -0.8349,-34.3565 -1.36004,-68.71588 -1.37584,-103.08355 0,-18.42864 0,-36.85728 0,-55.28593 0,-53.033 -75,-53.033 -75,0 z"/>
<path d="m 565.74982,247.47462 c -0.51275,0.024 -1.80098,-2.25626 -2.06688,-2.19255 -0.48014,0.11504 -0.0524,0.98935 -0.009,1.48116 0.14599,1.65119 0.4205,3.28908 0.57658,4.93934 0.23583,2.49359 0.39929,4.99349 0.59894,7.49023 1.10416,26.47644 1.17133,52.99031 1.16998,79.48658 -0.34164,37.57627 0.24097,75.14858 1.03221,112.71504 1.03016,42.76708 0.65839,85.55068 0.72258,128.32594 0.0976,40.65259 1.57194,81.28084 1.91854,121.93039 0.12981,31.24385 -0.0418,62.48789 -0.14225,93.73158 -0.0667,17.72423 -0.32899,35.44747 -1.3453,53.14478 -0.5041,6.55906 -0.68013,13.16256 -1.50228,19.69487 -0.0562,0.42221 -0.0841,0.84919 -0.16872,1.26664 -0.0668,0.32935 0.0264,-0.67741 0.11497,-1.00158 0.62992,-2.30553 0.94536,-4.74848 2.03696,-6.87466 1.90307,-3.70674 4.57207,-6.96724 6.85811,-10.45087 -36.87163,38.11802 17.03538,90.26237 53.90701,52.14436 v 0 c 2.63397,-3.84332 5.71849,-7.41395 7.90192,-11.52996 2.45841,-4.6344 3.19724,-9.98321 3.87128,-15.09567 0.86603,-7.94669 1.38597,-15.92544 1.86028,-23.90395 1.06919,-19.03314 1.41577,-38.09098 1.46538,-57.15288 0.10138,-31.53931 0.27496,-63.07898 0.13986,-94.61844 -0.35177,-40.47203 -1.79292,-80.92298 -1.91585,-121.39769 -0.0655,-43.26442 0.30669,-86.53719 -0.73915,-129.79332 -0.78128,-37.04011 -1.35633,-74.08591 -1.01555,-111.13571 -0.002,-28.6583 -0.0287,-57.34403 -1.45104,-85.97237 -1.81534,-19.87707 -3.73053,-38.08717 -16.92858,-54.103689 -34.55803,-40.227388 -91.44815,8.645039 -56.89012,48.872429 z"/>
</svg>
