<?xml version="1.0" ?>
<svg xmlns="http://www.w3.org/2000/svg" width="1000" height="0">
<path d="m 39.849633,-584.79977 c 0.37228,-0.0285 -0.13695,-0.009 -0.20899,-0.008 1.03865,0.0102 2.0773,0.0203 3.11596,0.0305 1.80448,0.2457 3.66361,0.2325 5.41344,0.7371 7.89984,2.27808 16.2881,5.76811 21.01786,13.20069 3.90471,6.13606 6.51635,13.22186 7.78384,20.38367 1.40161,7.9196 -1.44533,13.05238 -4.21649,19.46567 -2.02719,3.66089 -4.65589,6.8704 -7.96304,9.44406 -0.84341,0.65635 -1.74719,1.23121 -2.62079,1.84681 -2.56326,1.58564 -5.30636,2.8614 -8.21879,3.66762 -1.31404,0.36375 -2.64241,0.70457 -3.99446,0.88058 -1.98156,0.25795 -3.98494,0.52677 -5.98026,0.41788 -2.93383,-0.1601 -5.81977,-0.81375 -8.72966,-1.22062 -2.19526,-0.828 -4.48537,-1.43852 -6.58578,-2.484 -9.17247,-4.5656 -15.63116,-12.48937 -18.47851,-22.32562 -0.8043801,-2.77877 -0.8698401,-5.71995 -1.3047601,-8.57993 1.2906001,53.0173 76.2683901,51.19211 74.9777801,-1.82519 v 0 c -0.44123,-3.1193 -0.4805,-6.32248 -1.3237,-9.3579 -3.02359,-10.88453 -10.17946,-19.81399 -20.245,-24.95093 -2.31107,-1.17946 -4.83682,-1.87986 -7.25523,-2.81979 -3.15161,-0.47298 -6.27417,-1.21951 -9.45482,-1.41894 -2.26113,-0.14177 -4.5358,0.12782 -6.78487,0.40071 -1.65834,0.20122 -3.29203,0.59099 -4.90704,1.01796 -3.97009,1.04962 -7.71681,2.7536 -11.2328,4.85387 -1.18925,0.81129 -2.41864,1.56664 -3.56773,2.43386 -3.40591,2.57045 -6.84234,6.01426 -9.2830701,9.52933 -0.91626,1.31957 -1.73542,2.70399 -2.60313,4.05599 -3.17199,7.03747 -6.49480998,12.72956 -5.09591,21.41531 1.19515,7.42065 3.8474,14.77106 7.82912,21.14604 4.8743801,7.80419 13.7591101,11.61112 22.0137701,14.04718 1.97355,0.58241 4.07229,0.59405 6.10843,0.89108 2.67542,0.0552 5.34233,0.13655 8.00916,-0.13322 52.85064,-4.39434 46.6361,-79.13643 -6.21453,-74.74209 z"/>
</svg>
