<?xml version="1.0" ?>
<svg xmlns="http://www.w3.org/2000/svg" width="1000" height="1000">
<path d="m 646.37049,373.27775 c 2.08373,1.56961 4.10222,3.22982 6.25121,4.70883 8.71624,5.99881 18.07664,11.1868 27.18598,16.54445 15.96003,9.38687 8.04352,4.58357 23.27478,14.08773 6.8485,4.65308 11.49182,7.60353 17.87895,12.67725 0.90096,0.71569 6.87708,5.17724 7.71053,7.78513 0.10596,0.33153 -0.80782,0.48944 -1.02179,0.21493 -1.55338,-1.99285 -2.58966,-4.33952 -3.88448,-6.50928 -0.70081,-1.90976 -0.0682,-5.71514 -2.10242,-5.72927 -2.68951,-0.0187 -3.82176,3.78542 -5.73588,5.67485 -3.53678,3.49116 -6.97622,7.08415 -10.61681,10.46691 -13.40517,12.45579 -27.68231,24.01656 -41.63695,35.84304 -8.53813,7.35524 -12.97953,11.04346 -21.0401,18.47254 -10.63688,9.80356 -21.56623,20.38606 -24.11344,35.70315 -1.41967,8.53692 0.97833,17.28064 1.4675,25.92096 3.51862,6.44229 6.25474,13.37841 10.55585,19.32689 5.42029,7.49632 18.02093,17.81445 25.48391,23.68844 13.23104,10.41394 27.24837,19.64808 41.30181,28.89091 9.97032,6.5876 20.24178,12.68461 30.59059,18.64985 45.97521,26.43444 83.35916,-38.58433 37.38394,-65.01877 v 0 c -9.07481,-5.20172 -18.06207,-10.55211 -26.79612,-16.31552 -11.9094,-7.81322 -23.75158,-15.61859 -35.05187,-24.30597 -2.79217,-2.14655 -5.42016,-4.50382 -8.24488,-6.60734 -0.97774,-0.72811 -2.37738,-2.82176 -3.14172,-1.87207 -1.06005,1.31712 0.3962,3.35814 0.5943,5.03721 -2.43817,16.38689 0.62444,8.96909 -7.71351,20.94914 -0.61622,0.88539 1.17437,-1.8246 1.91572,-2.60821 7.78518,-8.22899 16.94432,-15.0954 25.29866,-22.69532 4.18909,-3.5503 26.23147,-22.21079 29.41852,-25.00509 5.81629,-5.09952 11.69532,-10.13886 17.25368,-15.51835 9.52122,-9.21482 25.48134,-25.635 31.13268,-37.70455 4.34624,-9.28227 5.78381,-19.66593 8.67571,-29.4989 -1.63977,-8.23942 -2.12508,-16.79557 -4.91932,-24.71827 -1.87993,-5.33029 -5.50215,-9.91481 -8.89078,-14.43845 -2.836,-3.78591 -6.26699,-7.10293 -9.69077,-10.36694 -9.75428,-9.29907 -21.38111,-16.4536 -32.41633,-24.05411 -15.52111,-9.64791 -31.30268,-18.88298 -47.03179,-28.17367 -39.95003,-34.87829 -89.27539,21.61957 -49.32536,56.49787 z"/>
</svg>
