<?xml version="1.0" ?>
<svg xmlns="http://www.w3.org/2000/svg" width="1000" height="1000">
<path d="m 626.86543,678.36918 c 8.37756,16.36708 17.7528,32.24186 27.22525,48.00104 15.64077,25.65324 34.11692,49.45417 55.15071,70.88482 37.28404,37.71471 90.62071,-15.01289 53.33666,-52.72761 v 0 c -17.02192,-17.03416 -31.57189,-36.38255 -44.2339,-56.84172 -10.40938,-17.25778 -19.96811,-34.97285 -30.08143,-52.39057 -30.45795,-43.41444 -91.85523,-0.34039 -61.39729,43.07404 z"/>
<path d="m 715.36572,646.14511 c -0.0885,0.006 -0.30632,-0.0608 -0.26553,0.018 2.42441,4.68153 5.31099,9.11147 8.12746,13.56815 8.17536,12.93633 17.18347,25.01144 26.62836,37.03728 11.19637,13.53411 23.32267,26.24682 34.94474,39.40813 35.12011,39.73762 91.31758,-9.92972 56.19747,-49.66733 v 0 c -10.71029,-12.10915 -21.81135,-23.86659 -32.26526,-36.2005 -7.59508,-9.56789 -14.85751,-19.16077 -21.39314,-29.49584 -1.32089,-2.08877 -9.20359,-15.28419 -10.74985,-17.5918 -1.50729,-2.24944 -3.22408,-4.35121 -4.83612,-6.52681 -34.96697,-39.87243 -91.3551,9.57833 -56.38813,49.45077 z"/>
<path d="m 678.60412,77.884297 c -18.75,0 -37.5,13.258884 -37.5,39.775383 -1.02237,24.94741 -7.66636,49.26755 -13.56836,73.39063 -9.66408,37.53658 -23.09031,73.9322 -33.65821,111.20703 -6.57002,23.17359 -12.56775,46.50705 -18.92382,69.74023 -11.20312,38.45687 -25.32227,75.98919 -39.17383,113.54688 -4.99079,13.53223 -9.8034,27.13577 -15.15039,40.53125 -13.95408,34.9583 -20.48057,47.53036 -36.54883,81.76172 -30.079,64.42182 -65.46503,126.19417 -104.32422,185.69531 -6.5292,9.9975 -13.32789,19.81666 -19.99219,29.72461 -25.76913,38.35774 -57.88965,71.55435 -90.32031,104.20312 -10.43702,11.30458 -22.43586,21.97924 -29.49219,35.92969 -1.67392,3.30936 -2.88523,6.83163 -4.32812,10.24805 -2.45148,10.78977 -4.16361,15.40502 -3.42188,26.4257 h 73.61133 c -1.93402,0.5819 0.27767,-1.62646 0.93945,-2.45695 4.88405,-6.12879 10.52177,-11.61893 15.9043,-17.29297 35.78094,-36.02739 70.95713,-72.88718 99.35352,-115.2207 7.0217,-10.45503 14.18416,-20.81788 21.0664,-31.36524 40.57471,-62.18259 77.46297,-126.76876 108.91407,-194.06054 6.80735,-14.54522 13.88878,-28.96627 20.42187,-43.63672 16.19588,-36.36884 20.32108,-48.16439 33.84961,-84.85156 4.74307,-12.86246 24.58421,-67.46732 28.9082,-80.42969 4.30413,-12.90286 8.0834,-25.9754 12.125,-38.96289 6.20187,-22.67148 12.0463,-45.44142 18.44336,-68.0586 10.8907,-38.50471 24.86202,-76.07334 34.65821,-114.89648 7.29079,-29.94122 15.1331,-60.17323 15.70703,-91.17188 0,-26.516499 -18.75,-39.775383 -37.5,-39.775383 z"/>
</svg>
