<?xml version="1.0" ?>
<svg xmlns="http://www.w3.org/2000/svg" width="800" height="1000">
<path d="m 446.9603,373.09345 c 24.21927,-7.20202 47.95853,-15.93796 72.69779,-21.32355 8.10753,-1.76496 16.30022,-3.11307 24.45033,-4.6696 34.32366,-5.58567 68.89448,-9.84882 103.57731,-12.45418 17.47111,-1.31242 23.31956,-1.37379 40.35657,-1.9983 20.18034,-0.3964 10.64099,-0.27911 28.61748,-0.39548 53.0318,-0.35709 52.5268,-75.35539 -0.50501,-74.99829 v 0 c -19.40129,0.13532 -9.09996,0.003 -30.90331,0.44571 -18.8788,0.713 -24.7829,0.76783 -44.15372,2.23626 -37.24948,2.82375 -74.37858,7.42923 -111.22852,13.52838 -9.50007,1.85654 -19.05039,3.47225 -28.50022,5.56962 -24.42543,5.42117 -48.09522,13.46644 -71.87486,21.12155 -51.57486,12.35044 -34.10871,85.28831 17.46616,72.93788 z"/>
<path d="m 570.78813,207.07034 c 5.68462,24.28234 9.99793,48.84039 12.80064,73.6257 0.90635,8.01519 1.57503,16.05548 2.36254,24.08322 4.19279,54.41511 5.22198,109.01997 5.43307,163.57691 -0.37366,19.20704 -0.84581,38.54481 -4.03242,57.54085 -1.20286,7.17053 -2.60802,12.89796 -5.34291,19.4754 -0.74713,1.79685 -1.76462,3.46896 -2.64693,5.20344 -2.35726,5.16687 -6.2656,6.15097 -1.11283,1.13848 2.19542,-2.13565 5.29908,-3.13082 6.74707,-5.86209 -7.20264,-3.62363 -14.35568,-7.30491 -21.4564,-11.12751 -46.79431,-24.95582 -82.08716,41.22133 -35.29285,66.17714 v 0 c 14.05959,7.44547 28.08014,15.02094 43.69463,18.80548 13.74543,1.53339 20.47494,3.78465 33.84871,-0.17517 5.97449,-1.76898 11.80419,-4.26717 17.09992,-7.55033 11.50053,-7.12989 18.51182,-18.70086 24.68767,-30.23569 5.51729,-12.63924 7.09787,-14.9363 10.61586,-28.84058 7.00027,-27.66738 7.50703,-56.50068 8.18989,-84.84762 -0.23219,-56.92033 -1.31842,-113.89212 -5.79636,-170.6578 -0.8768,-8.80605 -1.62109,-17.6263 -2.6304,-26.41815 -3.02437,-26.3444 -7.52435,-52.48656 -13.56315,-78.30588 -10.17824,-52.04713 -83.78399,-37.65292 -73.60575,14.3942 z"/>
<path d="m 561.12797,348.63267 c -24.98461,21.637 -49.91896,43.33387 -74.65772,65.25145 -6.91816,6.3619 -13.83631,12.72381 -20.75446,19.08571 -39.02818,35.90684 11.75177,91.10102 50.77995,55.19418 v 0 c 6.57174,-6.04913 13.14349,-12.09825 19.71524,-18.14737 24.06589,-21.32974 48.34672,-42.41539 72.61949,-63.50935 40.92354,-33.73076 -6.77896,-91.60538 -47.7025,-57.87462 z"/>
</svg>
