<?xml version="1.0" ?>
<svg xmlns="http://www.w3.org/2000/svg" viewBox="0 0 1000 1000">
<path d="m 754.54427,309.22731 c -1.3524,1.11059 -2.65168,2.28922 -4.05721,3.33177 -5.42632,4.02499 -14.57053,9.82146 -19.54535,13.11093 -5.51231,3.64488 -11.01357,7.30649 -16.50791,10.9784 -32.80796,21.92584 -8.21894,5.74951 -44.47279,29.37202 -52.0508,33.09303 -103.30313,67.42354 -155.20834,100.73968 -6.28528,3.5154 -12.57056,7.0308 -18.85584,10.5462 -46.20988,26.02204 -9.40915,91.37268 36.80073,65.35063 v 0 c 7.52466,-4.26135 15.04933,-8.52271 22.57399,-12.78407 52.04318,-33.4193 103.45167,-67.82421 155.64095,-101.01952 37.33413,-24.3386 12.16179,-7.77096 45.05445,-29.75498 5.40669,-3.6136 10.82529,-7.20937 16.24458,-10.80406 10.45682,-6.93618 17.10252,-10.96421 26.76515,-18.51847 2.67497,-2.0913 5.14547,-4.43171 7.7182,-6.64757 38.11374,-36.87605 -14.03687,-90.77701 -52.15061,-53.90096 z"/>
<path d="m 648.84764,465.36451 c 2.12663,18.42802 1.74734,37.04469 1.49787,55.55653 -1.08713,37.96918 -2.83185,75.91394 -3.94898,113.88246 -0.48877,15.66825 -0.52341,31.34022 0.0372,47.00448 1.97165,52.99635 76.9198,50.20802 74.94815,-2.78833 v 0 c -0.54633,-13.99947 -0.4201,-28.00879 -0.0177,-42.0124 1.12728,-38.38346 2.91518,-76.74215 3.97524,-115.12747 0.28522,-23.45151 0.72782,-47.10682 -2.78193,-70.36677 -9.79449,-52.12071 -83.5043,-38.2692 -73.70981,13.8515 z"/>
</svg>
