<?xml version="1.0" ?>
<svg xmlns="http://www.w3.org/2000/svg" width="1000" height="1000">
<path d="m 506.56642,416.04152 c 20.4771,0.004 39.483,-6.23256 59.04748,-11.38256 7.92382,-2.0858 15.83938,-4.21656 23.82791,-6.0389 9.17462,-2.09292 18.43246,-3.80263 27.64869,-5.70394 54.23212,-10.17081 109.27074,-14.51102 164.29459,-17.42747 4.80778,-0.2038 20.92487,-0.97321 26.88478,-0.95218 2.03094,0.007 4.11582,-0.15353 6.08262,0.35291 1.26003,0.32445 -2.6469,0.56783 -3.89777,0.20967 -3.19263,-0.91412 -6.69828,-1.70331 -9.14838,-3.94508 -4.1674,-3.81307 -6.70929,-9.08913 -10.06393,-13.63369 -0.64686,-2.77226 0.0411,-6.27306 -1.94058,-8.31677 -1.04252,-1.07515 -1.64815,2.50157 -2.5118,3.72504 -1.74895,2.47762 -3.49019,4.96234 -5.32513,7.37696 -2.85995,3.76342 -5.67287,7.57139 -8.7568,11.15357 -8.68295,10.08583 -13.80064,14.37231 -23.67219,23.65319 -15.06799,13.98601 -31.29748,26.61401 -47.4371,39.31451 -41.66323,32.81273 4.74098,91.73343 46.40421,58.9207 v 0 c 17.94341,-14.14262 35.95702,-28.24008 52.67515,-43.847 5.5068,-5.26905 11.19987,-10.35007 16.5204,-15.80715 9.92287,-10.17754 18.80554,-20.48855 26.91349,-32.15273 6.03521,-8.68231 15.54136,-23.49171 17.96482,-34.20448 1.91017,-8.44379 1.61991,-17.23837 2.42987,-25.85755 -4.24261,-8.6 -6.68613,-18.353 -12.72783,-25.79999 -4.47635,-5.51756 -11.30704,-8.81451 -17.7625,-11.78238 -15.93585,-7.32645 -39.64438,-3.44436 -56.61234,-3.30182 -58.80726,3.13442 -117.62327,7.88429 -175.56071,18.88792 -31.50129,6.5782 -27.21676,5.22209 -56.2084,12.88668 -5.24477,1.38657 -20.97603,6.09988 -28.08228,7.48242 -3.73115,0.7259 -7.26452,0.92067 -10.98627,1.19012 -53.03301,0 -53.03301,75 0,75 z"/>
<path d="m 632.33304,463.29999 c 0,15.05528 0,30.11055 0,45.16583 0.0819,14.72872 -0.29805,29.5138 -2.93594,44.04283 -1.69193,9.31893 -2.41242,10.9795 -5.00636,19.98098 -1.11614,3.01485 -2.15913,6.05779 -3.34843,9.04453 -2.24828,5.64619 -5.66724,13.07186 -8.12402,18.59073 -4.06663,9.13523 -7.96066,18.32116 -11.73899,27.57869 -3.23886,8.45026 -6.9544,16.72373 -11.92174,24.31166 -2.78349,4.25195 -4.27136,6.04242 -7.34007,10.0466 -1.12179,1.34587 -2.24358,2.69174 -3.36537,4.03761 -33.69914,40.94958 24.21231,88.60736 57.91145,47.65778 v 0 c 1.77044,-2.16863 3.54088,-4.33726 5.31132,-6.50589 5.13256,-6.863 7.22579,-9.38885 11.8936,-16.81434 6.82786,-10.86166 12.33245,-22.46569 16.9601,-34.41741 2.54662,-6.25308 3.84203,-9.52751 6.56806,-15.81867 6.80828,-15.71222 14.43084,-31.12285 19.43473,-47.55464 1.3337,-4.88626 2.8318,-9.7306 4.0011,-14.65879 5.40291,-22.77131 6.95592,-46.17795 6.70056,-69.52167 0,-15.05528 0,-30.11055 0,-45.16583 0,-53.033 -75,-53.033 -75,0 z"/>
</svg>
