<?xml version="1.0" ?>
<svg xmlns="http://www.w3.org/2000/svg" width="1000" height="1000">
<path d="m 302.38827,403.39599 c 2.61202,0.0277 5.2251,0.16289 7.83605,0.0831 15.22311,-0.46503 30.41631,-2.87532 45.45848,-5.03903 8.25037,-1.18675 39.9296,-5.98753 47.38991,-7.11432 52.01073,-8.03677 104.36513,-13.45434 156.77485,-18.05791 21.30486,-1.46695 42.56854,-4.04733 63.92059,-4.82542 0.31691,0.0224 1.26834,0.0744 0.95073,0.0671 -14.07213,-0.32474 -23.20068,-8.45996 -30.28502,-20.59648 -3.28016,-5.61941 -2.93168,-11.17638 -2.85276,-16.99495 -0.51743,0.94715 -1.07153,1.87517 -1.55228,2.84145 -8.31348,16.71 0.11493,0.61118 -10.65137,21.97029 -9.87701,19.59487 -20.67677,38.69323 -31.36598,57.85017 -15.91044,28.62414 -32.5335,56.83518 -49.48023,84.85506 -14.55265,24.06147 -25.29277,41.80929 -40.71433,65.44448 -7.32432,11.2253 -14.92076,22.27068 -22.38115,33.40601 -30.90252,45.01019 -62.63791,89.55388 -97.48714,131.62464 -20.07438,24.23423 -27.98613,32.43907 -48.8468,55.40941 -22.24914,22.42099 -22.67694,23.69414 -45.75941,43.82354 -6.52515,5.69036 -13.29205,11.09741 -19.93808,16.64611 -40.66943,34.0367 7.46574,91.55197 48.13517,57.51526 v 0 c 7.41092,-6.21571 14.96156,-12.26853 22.23276,-18.64713 25.5675,-22.42889 26.45949,-24.23699 50.87268,-48.93975 22.28091,-24.57569 30.38773,-32.97554 51.85403,-58.93681 36.16687,-43.74006 69.17294,-89.98908 101.25699,-136.76766 7.79498,-11.64856 15.73028,-23.20445 23.38496,-34.94568 15.69421,-24.07278 26.90547,-42.57058 41.69672,-67.03596 17.35207,-28.7011 34.37444,-57.597 50.6715,-86.91311 13.83295,-24.80181 27.58515,-49.57552 39.92268,-75.16311 1.79273,-3.71805 3.65716,-7.40382 5.32798,-11.17822 1.68148,-3.79849 3.15,-7.68772 4.725,-11.53158 2.52668,-11.52002 6.08143,-20.53031 0.37089,-32.71571 -9.2755,-19.7925 -23.23201,-26.27141 -43.06934,-26.02806 -22.54626,0.94612 -45.01154,3.35153 -67.50538,5.05414 -53.95931,4.74543 -107.86009,10.33981 -161.40934,18.61103 -6.95955,1.0512 -38.45487,5.82265 -46.45568,6.97923 -8.93237,1.29123 -20.09973,2.86869 -29.3659,3.84767 -2.95048,0.31173 -5.33829,0.44006 -8.13376,0.60618 -52.88875,-3.9089 -58.41677,70.88709 -5.52802,74.79599 z"/>
<path d="m 462.66524,652.8164 c 14.54093,19.18572 31.14526,36.71657 47.55815,54.28942 30.50563,32.2179 58.77813,66.43006 86.667,100.90674 18.99299,24.22414 36.39684,49.63515 53.562,75.17011 5.63396,8.3832 2.97751,4.44622 7.96444,11.81424 29.72729,43.91798 91.83668,1.87724 62.10939,-42.04073 v 0 c -4.85085,-7.16593 -2.23758,-3.29357 -7.83405,-11.62097 -18.4018,-27.36375 -37.08285,-54.57809 -57.49561,-80.49669 -29.01502,-35.85536 -58.44524,-71.42023 -90.17077,-104.93521 -15.12809,-16.18584 -30.49111,-32.29052 -43.84669,-50.00309 -33.17475,-41.37555 -91.68861,5.54063 -58.51386,46.91618 z"/>
</svg>
