<?xml version="1.0" ?>
<svg xmlns="http://www.w3.org/2000/svg" viewBox="0 0 1000 1000">
<path d="m 299.81697,598.5694 c 2.08694,12.43099 3.07347,25.00081 5.33256,37.41455 0.87945,4.83261 1.94669,9.62915 2.92004,14.44372 3.23716,14.60951 7.62318,28.94513 13.45335,42.73382 4.32427,10.22713 9.59803,20.04576 14.67276,29.91042 24.26386,47.15682 90.95367,12.84254 66.68981,-34.31428 v 0 c -3.93159,-7.63948 -8.12176,-15.22943 -11.58673,-23.09763 -4.28375,-9.72749 -7.41274,-19.89675 -9.74982,-30.25839 -2.05841,-9.92221 -2.61565,-11.80159 -4.01928,-21.52632 -1.44422,-10.00594 -2.12594,-20.13048 -4.17547,-30.04625 -10.42301,-51.99866 -83.96022,-37.2583 -73.53722,14.74036 z"/>
<path d="m 429.82405,561.22372 c -0.94639,17.74296 -0.3724,35.56341 0.56319,53.29668 1.24339,17.36855 4.00773,34.61788 8.505,51.44478 2.21354,8.28215 3.35271,11.28203 6.00063,19.13771 3.35273,9.8096 7.79865,19.14926 13.11164,28.03077 27.71614,45.21412 91.65855,6.01759 63.94242,-39.19653 v 0 c -2.72225,-3.94818 -4.27859,-8.59593 -6.05544,-13.0044 -5.70421,-16.51793 -9.48601,-32.97906 -10.6153,-50.49218 -0.76196,-13.45799 -1.00369,-26.97379 -0.96812,-40.4344 6.21011,-52.66816 -68.27391,-61.45059 -74.48402,-8.78243 z"/>
<path d="m 595.77775,567.83139 c 1.91863,11.54166 1.74403,23.28996 1.71209,34.94888 -0.58116,17.73035 0.0117,35.55713 -1.89955,53.22582 -1.41069,13.04112 -2.12446,14.36196 -5.09259,27.1274 -8.01976,29.11556 -20.50098,56.70343 -35.79903,82.69395 -3.75495,6.37944 -7.83416,12.56238 -11.75125,18.84357 -13.05941,19.75493 -27.55918,38.5108 -43.70934,55.84004 -12.53775,13.45309 -21.67109,21.68165 -35.07508,34.35932 -38.49171,36.48135 13.10071,90.91684 51.59241,54.43549 v 0 c 15.65167,-14.86183 25.22022,-23.45907 39.90021,-39.3776 18.83887,-20.42828 35.79624,-42.47975 51.02268,-65.71771 4.57749,-7.41059 9.34418,-14.70761 13.73248,-22.23178 18.76842,-32.1803 33.80114,-66.46594 43.29207,-102.53558 1.41036,-6.52633 3.07575,-13.00273 4.23107,-19.579 4.46437,-25.41206 3.99751,-51.27279 4.55582,-76.9613 0.0106,-15.09719 0.015,-30.27894 -2.40276,-45.22721 -7.18117,-52.54456 -81.4904,-42.38885 -74.30923,10.15571 z"/>
</svg>
