<?xml version="1.0" ?>
<svg xmlns="http://www.w3.org/2000/svg" width="1000" height="1000">
<path d="m 347.5267,355.04068 c 27.00742,-0.42568 53.66497,-5.8889 80.1662,-10.61674 26.54992,-4.51911 53.00764,-9.87147 79.78872,-12.90877 13.37009,-1.51633 17.2621,-1.5456 30.33573,-2.25395 8.63705,-0.0792 11.71299,-0.47655 19.62337,0.56426 1.65565,0.21785 3.27138,0.67276 4.90707,1.00914 52.29429,8.82079 64.76877,-65.13452 12.47448,-73.95531 v 0 c -4.06066,-0.62446 -8.0956,-1.44859 -12.18197,-1.87337 -12.03833,-1.2514 -16.77495,-0.80614 -29.02051,-0.62716 -15.92367,0.91752 -19.79943,0.92432 -36.05966,2.79553 -27.86886,3.20711 -55.41946,8.67632 -83.04852,13.41703 -11.61755,2.07564 -24.63242,4.47584 -36.36812,6.30634 -8.86958,1.38345 -17.94682,2.73142 -26.93643,3.143 -1.2255,0.0561 -2.45357,0 -3.68036,0 -53.03301,0 -53.03301,75 0,75 z"/>
<path d="m 224.62372,601.95486 c 2.18105,-0.13307 4.36799,-0.19104 6.54317,-0.39922 15.02416,-1.43792 29.91038,-4.42695 44.65225,-7.5717 7.10443,-1.51553 39.70557,-9.02389 45.90325,-10.44544 65.8723,-13.62076 132.37634,-24.00937 198.92504,-33.69856 37.68033,-5.19188 75.49899,-9.81751 113.52495,-11.46438 15.38305,-0.66623 18.15027,-0.48095 32.58293,-0.36822 9.31678,0.14907 18.60876,0.81078 27.80894,2.27704 52.42828,7.98598 63.72216,-66.1588 11.29388,-74.14478 v 0 c -12.79596,-1.89788 -25.68086,-3.01256 -38.6279,-3.13075 -16.59842,-0.0842 -19.9196,-0.28829 -37.39299,0.4921 -40.19144,1.79502 -80.17212,6.60958 -119.99985,12.12213 -68.54647,9.9881 -137.04969,20.69256 -204.88267,34.81382 -3.17909,0.72922 -38.74924,8.90968 -43.83297,10.00122 -11.41671,2.45133 -23.10822,5.01401 -34.75341,6.27119 -1.35602,0.14639 -2.72132,0.18799 -4.08197,0.28198 -53.007251,1.65276 -50.6699,76.61633 2.33735,74.96357 z"/>
<path d="m 480.40951,537.11441 c 3.90422,10.66608 3.67041,22.02837 3.25224,33.20237 -1.53048,17.74804 -3.13312,35.60726 -7.31347,52.97213 -3.03445,12.60493 -5.35437,18.35702 -9.6233,30.79297 -10.79702,30.69988 -25.96113,59.61482 -42.39409,87.6296 -3.68094,6.27524 -7.55609,12.43452 -11.33414,18.65178 -12.59556,20.40788 -26.56389,39.87501 -42.06513,58.17569 -5.85366,6.9108 -12.00643,13.56259 -18.00965,20.34389 -35.09271,39.76181 21.13898,89.3904 56.23169,49.62859 v 0 c 6.75601,-7.67555 13.69343,-15.19514 20.26802,-23.02664 17.52785,-20.87877 33.39492,-43.02434 47.70154,-66.22686 4.17137,-6.88911 8.44664,-13.71638 12.51411,-20.66734 18.77164,-32.07911 35.84437,-65.29545 48.1227,-100.44583 5.80584,-17.3212 8.06285,-22.66778 12.17769,-40.37848 4.99611,-21.50372 7.09018,-43.57599 8.69983,-65.54436 0.0885,-4.90524 0.35549,-9.8105 0.2656,-14.71571 -0.27457,-14.9851 -2.5306,-29.95045 -7.35833,-44.15664 -16.80428,-50.30026 -87.93959,-26.53541 -71.13531,23.76484 z"/>
</svg>
