<?xml version="1.0" ?>
<svg xmlns="http://www.w3.org/2000/svg" width="800" height="1000">
<path d="m 235.99122,380.35362 c -4.68046,6.73246 -5.61812,7.68234 -9.93409,16.75496 -2.38762,5.01903 -13.18713,31.45956 -14.86425,35.5089 -16.5912,40.05905 -2.79624,6.40419 -20.65413,50.1971 -17.48221,40.78725 -33.30091,82.27426 -51.2194,122.87539 -3.62032,8.20321 -21.67013,47.54455 -25.65623,56.24845 -3.89307,8.66015 -7.78613,17.32029 -11.67919,25.98044 -21.742719,48.371 46.66421,79.11985 68.40693,30.74884 v 0 c 3.82059,-8.50042 7.64118,-17.00084 11.46178,-25.50126 4.81803,-10.52084 22.11356,-48.20368 26.39708,-57.91968 18.08365,-41.01791 34.09577,-82.90873 51.73776,-124.11479 17.53384,-43.00569 3.98716,-9.95211 20.5442,-49.92898 4.05146,-9.78221 7.9511,-19.62695 12.01942,-29.40216 1.60695,-3.86113 1.24584,-3.12483 2.83753,-5.65477 32.38014,-42.00031 -27.01727,-87.79275 -59.39741,-45.79244 z"/>
<path d="m 442.63659,437.7872 c 1.50004,2.55042 2.91478,5.15297 4.50013,7.65125 3.75316,5.91441 7.86403,11.59472 11.70918,17.44975 10.07798,15.34581 20.08545,30.73926 30.07314,46.14395 27.95228,41.95367 53.76868,85.25148 79.59802,128.52596 14.19833,24.24984 28.4741,48.56374 39.75213,74.34375 21.36684,48.53822 90.01024,18.32095 68.6434,-30.21727 v 0 c -12.63066,-28.55817 -28.09591,-55.72025 -43.99512,-82.56587 -26.30553,-44.07098 -52.61336,-88.1563 -81.06898,-130.88956 -22.19704,-34.23195 -1.70345,-2.7003 -22.00437,-33.74482 -6.26955,-9.5875 -12.2911,-19.46249 -19.05972,-28.71921 -0.12799,-0.17505 -0.34401,-0.2641 -0.51602,-0.39615 -22.92315,-47.82289 -90.55493,-15.40467 -67.63179,32.41822 z"/>
<path d="m 585.85131,275.66812 c -0.9754,-0.50244 -1.38884,-0.61894 -2.18207,-1.4517 -0.36321,-0.3813 -0.63499,-0.84027 -0.95734,-1.25668 -3.31598,-4.28358 -5.87004,-8.72178 -8.54433,-13.45301 -1.06118,-2.46675 -2.32261,-4.85667 -3.18352,-7.40024 -2.06413,-6.09842 -3.56308,-15.73371 -2.3267,-22.09924 0.67284,-3.46416 2.7051,-5.72613 4.65016,-8.49865 3.30915,-2.75984 6.12198,-5.30055 9.96925,-7.46738 8.67607,-4.88649 19.11026,-7.67823 28.96619,-8.64735 3.57951,-0.35198 7.19229,-0.13489 10.78844,-0.20234 8.60223,0.69295 18.04229,1.65784 24.91858,7.58579 3.59316,3.09761 4.95978,9.34385 6.20227,13.59713 -1.98276,6.69949 -3.07678,13.78903 -5.87259,20.23237 -1.28,2.94992 -2.96808,5.71793 -4.7315,8.40693 -4.49272,6.85088 -9.23802,11.96235 -14.5718,18.19146 -2.5116,2.25603 -4.83124,4.74607 -7.53481,6.76809 -3.89402,2.91237 -10.70479,6.38665 -15.86631,5.78317 -0.62494,-0.0731 -1.12703,-0.56059 -1.70136,-0.81756 -0.81053,-0.36267 -1.63476,-0.69392 -2.45214,-1.04087 -7.23964,-2.72865 -3.21962,-1.08233 -11.97973,-5.13081 -48.73464,-20.91494 -78.31283,48.00625 -29.57818,68.92119 v 0 c 19.4118,8.01893 9.6839,4.67048 29.13899,10.17427 14.47538,1.86329 18.66279,3.44055 33.55526,0.9457 18.71719,-3.13557 35.94981,-12.34772 50.43466,-24.36056 4.87418,-4.04234 9.07716,-8.83162 13.61575,-13.24743 10.07495,-12.31364 16.74765,-19.40147 24.57402,-33.77377 7.27167,-13.35364 12.51471,-27.38923 14.72674,-42.47883 1.19499,-8.15181 2.08884,-16.45191 1.51116,-24.67057 -0.59488,-8.46347 -3.33295,-16.63816 -4.99942,-24.95724 -8.42365,-16.76723 -9.88348,-23.15198 -23.82596,-36.54666 -16.03421,-15.40423 -36.8318,-23.84263 -58.56499,-27.07606 -7.03934,-1.0473 -14.20379,-0.92131 -21.30569,-1.38196 -7.29436,0.559 -14.64889,0.58773 -21.88309,1.677 -29.30024,4.41182 -58.72181,17.41916 -78.61134,39.93583 -5.01319,5.67536 -8.78702,12.33512 -13.18052,18.50269 -2.65304,6.55299 -6.03024,12.85752 -7.95912,19.65897 -6.86203,24.19635 -3.27735,50.39625 5.80858,73.47151 1.95995,4.97762 4.6161,9.65215 6.92416,14.47823 2.65501,4.30941 5.08321,8.76708 7.96504,12.92823 10.63217,15.35208 24.58171,28.3303 42.18631,35.09483 49.77641,18.29778 75.65337,-52.0967 25.87695,-70.39448 z"/>
</svg>
