<?xml version="1.0" ?>
<svg xmlns="http://www.w3.org/2000/svg" viewBox="0 0 1000 1000">
<path d="m 311.06747,372.0398 c 10.29293,29.62988 12.90344,61.25034 15.91298,92.24903 5.56227,74.80687 5.60944,149.88373 5.95801,224.85471 0.0719,53.85933 0.27878,107.71834 0.42576,161.57749 0.0453,17.53859 0.0824,35.07722 0.0959,52.61587 -0.14874,21.43924 8.81721,28.95897 31.74233,41.69303 5.30221,2.94518 12.15382,0.68322 18.19525,0.1459 5.68217,-0.50536 15.67797,-4.27171 21.14943,-6.15147 37.47709,-13.37692 70.0851,-36.88274 102.28537,-59.67483 35.39007,-26.34632 70.70765,-52.9626 103.77468,-82.22144 24.23659,-21.44537 32.35592,-30.0304 55.42277,-52.71868 8.81689,-9.1023 17.63379,-18.20459 26.45068,-27.30689 36.88729,-38.10286 -16.9983,-90.26936 -53.88558,-52.1665 v 0 c -8.39549,8.67731 -16.79098,17.35461 -25.18647,26.03191 -21.17585,20.87505 -29.2099,29.34758 -51.39769,49.03397 -31.3739,27.83689 -64.95904,53.07723 -98.53946,78.15272 -17.36759,12.3203 -34.57272,24.62407 -52.9955,35.33869 -6.52843,3.79691 -14.61701,8.26716 -21.70863,11.32131 -2.97171,1.27982 -6.04927,2.29834 -9.0739,3.44752 -1.81222,0.66167 -3.66784,1.21481 -5.43667,1.98501 -0.19255,0.0838 -0.54522,0.48533 -0.34009,0.53037 2.91299,0.63955 6.50931,-0.51519 8.84661,1.33726 30.77906,24.39426 22.35267,14.29323 25.69813,34.04738 0.16047,0.94753 -8.6e-4,-1.92205 -0.001,-2.88308 -0.0136,-17.5876 -0.0507,-35.17518 -0.0962,-52.76272 -0.14712,-53.90741 -0.35403,-107.81468 -0.42629,-161.72227 -0.36095,-77.30304 -0.43507,-154.71786 -6.317,-231.84296 -1.02102,-10.27133 -1.83775,-20.56503 -3.06304,-30.814 -3.15345,-26.37701 -7.59711,-53.14076 -16.52118,-78.26449 -1.01489,-2.8572 -2.2815,-5.61864 -3.42225,-8.42796 -23.04823,-47.76274 -90.59494,-15.16762 -67.54671,32.59512 z"/>
</svg>
