<?xml version="1.0" ?>
<svg xmlns="http://www.w3.org/2000/svg" width="1000" height="1000">
<path d="m 401.50709,660.76367 c 15.1362,-5.72305 30.91269,-9.40645 46.64053,-13.07103 32.50379,-7.24966 65.65819,-10.59148 98.85393,-12.43159 20.04014,-0.66453 40.24459,-0.0794 59.96195,3.79219 1.04178,0.26652 2.09163,0.50325 3.12533,0.79956 2.67622,0.76715 1.02386,0.63913 0.001,0.0947 -1.55911,-0.83012 -3.20351,-1.55672 -4.5832,-2.65961 -2.33,-1.86256 -4.31559,-4.1192 -6.47338,-6.17879 -6.17499,-0.49745 -2.73758,-6.96135 -5.2408,-9.61998 -0.35621,-0.37832 0.0415,1.03848 0.0722,1.5572 0.0904,1.52366 0.21432,3.04535 0.29115,4.56976 0.35574,7.05834 0.3762,9.77453 0.57416,17.25174 0.29102,22.23589 -0.18662,44.51754 -2.13792,66.67899 -0.41289,4.6894 -0.96956,9.36502 -1.45434,14.04754 -2.7717,24.45492 -7.61045,48.63587 -14.3884,72.28533 -4.00038,13.73182 -9.29165,27.02619 -13.91967,40.54642 -2.29588,6.49304 -3.90239,13.17914 -5.24408,19.9227 -10.00467,52.08077 63.64866,66.22951 73.65333,14.14874 v 0 c 0.57562,-3.34821 1.43226,-6.63267 2.568,-9.83861 5.02468,-14.76509 10.85477,-29.25965 15.08947,-44.29016 1.12508,-3.99045 2.32245,-7.96123 3.37522,-11.97136 6.30168,-24.00369 10.54665,-48.54103 13.47656,-73.16868 0.54991,-5.42942 1.18005,-10.85132 1.64972,-16.28827 2.12772,-24.63108 2.66234,-49.39067 2.30466,-74.10142 -0.26957,-9.77536 -0.36367,-19.61496 -1.44887,-29.34663 -0.53343,-4.78366 -1.60495,-11.85465 -3.40869,-16.25854 -1.57484,-3.84505 -3.83959,-7.36992 -5.75938,-11.05489 -2.80149,-2.91994 -5.33416,-6.12399 -8.40447,-8.75982 -8.04896,-6.90997 -19.74351,-9.68788 -29.77776,-12.05902 -7.93799,-1.46683 -10.01086,-1.97131 -18.46048,-2.96197 -19.78462,-2.31962 -39.76458,-2.79083 -59.65787,-2.01855 -5.83948,0.33329 -11.68414,0.58578 -17.51845,0.99989 -31.6588,2.24707 -63.18714,6.52854 -94.20585,13.28536 -19.36795,4.5481 -38.76728,9.23089 -57.35436,16.44146 -49.25516,19.65781 -21.45482,89.31512 27.80034,69.65731 z"/>
<path d="m 463.36896,785.8086 c 0.77923,-0.44252 3.23726,-1.87751 4.1832,-2.27989 2.03631,-0.86618 4.20443,-1.38245 6.31542,-2.04617 9.02967,-2.83904 6.26929,-1.97959 16.22022,-4.5814 22.88262,-5.74154 46.24845,-9.01749 69.73731,-10.87696 11.82664,-0.76365 23.74852,-0.66104 35.48049,1.11836 3.75105,0.62227 1.95109,0.31374 5.40063,0.9212 52.2385,9.14544 65.1721,-64.73096 12.9336,-73.8764 v 0 c -4.80946,-0.83832 -2.21903,-0.40118 -7.7736,-1.29756 -17.25706,-2.37082 -34.70484,-2.93805 -52.08832,-1.62142 -27.93124,2.29892 -55.72634,6.19928 -82.91936,13.13977 -15.11238,4.05153 -30.58833,8.00777 -44.19675,15.99723 -46.24708,25.95588 -9.53991,91.35913 36.70716,65.40324 z"/>
<path d="m 396.2269,914.03913 c 17.04925,-3.98158 34.33062,-6.88937 51.60244,-9.71083 29.37764,-5.02609 59.1023,-7.09419 88.84954,-8.16489 18.83373,-0.66698 37.68724,-0.085 56.35052,2.55949 5.09613,1.0267 2.73121,0.46788 7.10807,1.61906 51.50703,12.63038 69.36908,-60.21155 17.86206,-72.84194 v 0 c -9.47834,-2.25014 -4.58664,-1.21417 -14.68343,-3.06833 -23.01604,-3.13391 -46.15243,-4.10959 -69.37426,-3.21832 -32.88698,1.21661 -65.74665,3.55391 -98.22615,9.09966 -18.8514,3.09066 -37.70801,6.2879 -56.31727,10.63846 -51.68076,11.89953 -34.85229,84.98717 16.82848,73.08764 z"/>
</svg>
