<?xml version="1.0" ?>
<svg xmlns="http://www.w3.org/2000/svg" width="800" height="1000">
<path d="m 192.8797,372.78812 c 18.72031,-2.96275 36.42741,-9.99986 54.65585,-14.87681 17.84931,-4.77553 33.57168,-7.67881 51.84832,-11.43403 44.17695,-9.09685 88.27189,-18.78419 132.9145,-25.38694 21.82163,-3.22747 30.4488,-3.92716 51.60165,-6.14437 14.40189,-1.08144 18.44716,-1.60931 31.8725,-1.90155 6.0345,-0.13135 12.05857,-0.0946 18.03836,0.74194 52.70104,5.92451 61.07957,-68.60602 8.37852,-74.53053 v 0 c -2.54035,-0.25971 -5.07362,-0.60207 -7.62107,-0.77911 -19.50552,-1.3556 -39.09456,0.33153 -58.52664,1.88208 -23.15959,2.45157 -31.89475,3.15312 -55.82847,6.71162 -45.66476,6.78949 -90.78851,16.62163 -135.97832,25.95274 -23.76891,4.91892 -35.44935,6.94751 -58.32479,13.07352 -13.1258,3.51507 -19.07023,6.01452 -31.23736,9.43111 -2.34713,0.65908 -8.4771,2.1218 -11.90435,2.94504 -52.54884,7.14977 -42.43754,81.46506 10.1113,74.31529 z"/>
<path d="m 229.03642,571.3037 c 14.72766,-3.6831 29.08343,-8.70254 43.74494,-12.62887 5.46351,-1.46312 10.97821,-2.7279 16.46731,-4.09185 34.16365,-7.10629 68.59384,-13.10693 103.24857,-17.26557 6.19516,-0.74343 12.40817,-1.32968 18.61226,-1.99452 23.38609,-2.2418 46.87773,-1.33527 70.26562,0.23837 1.80517,0.13777 3.61035,0.27553 5.41552,0.41329 52.88039,4.02049 58.56623,-70.76367 5.68584,-74.78416 v 0 c -2.03127,-0.15393 -4.06254,-0.30785 -6.09381,-0.46177 -27.73329,-1.84674 -55.58899,-2.7222 -83.30665,0.0258 -6.79352,0.73543 -13.59663,1.38717 -20.38057,2.20629 -37.47969,4.52546 -74.72628,11.01576 -111.64538,18.86373 -6.3913,1.60762 -12.80871,3.11482 -19.17392,4.82285 -14.03934,3.76729 -27.79199,8.55576 -41.88666,12.11532 -51.29432,13.46821 -32.2474,86.00933 19.04693,72.54113 z"/>
<path d="m 510.83416,295.40034 c 0.18194,17.65677 -0.11455,35.29536 -1.00958,52.92944 -2.27898,35.12389 -12.86154,68.8869 -22.06984,102.64179 -5.2763,20.17874 -12.46628,39.75176 -20.02053,59.16373 -3.62987,9.32762 -12.39441,31.32669 -16.32732,40.47724 -2.84495,6.61924 -5.91217,13.14072 -8.86825,19.71108 -15.44443,33.65744 -33.25787,66.17709 -53.92215,96.9227 -4.23859,6.30645 -8.72538,12.44248 -13.08807,18.66373 -13.11028,18.2217 -28.76593,34.33182 -44.10016,50.63885 -36.30031,38.66249 18.3767,89.99888 54.67701,51.33639 v 0 c 17.76516,-18.94765 35.78402,-37.76575 50.88325,-58.99087 4.9066,-7.03221 9.9482,-13.97212 14.71979,-21.09662 22.69174,-33.88118 42.25744,-69.7154 59.25512,-106.76509 3.27804,-7.32026 6.6703,-14.59043 9.83412,-21.96079 3.00337,-6.9966 5.81895,-14.07255 8.66508,-21.13457 11.52288,-28.59138 22.72222,-57.3917 30.6484,-87.22831 10.63473,-38.98869 22.39573,-78.05341 24.62139,-118.6624 0.91798,-18.87356 1.3141,-37.74951 1.10174,-56.6463 0,-53.03301 -75,-53.03301 -75,0 z"/>
<path d="m 552.8631,192.01844 c 7.55056,6.51424 14.04921,14.10108 20.69553,21.49985 16.65568,18.54131 1.41595,1.499 17.97925,20.0529 15.51717,17.65554 29.63426,36.45733 44.83667,54.37837 5.80682,6.85879 12.23434,13.1233 18.75969,19.28209 38.70458,36.25543 89.97749,-18.4811 51.27292,-54.73653 v 0 c -4.49616,-4.15997 -8.89197,-8.42632 -12.86927,-13.09813 -15.62503,-18.36958 -30.01094,-37.75305 -46.05196,-55.77393 -13.85592,-15.51957 -4.42449,-4.98508 -18.1006,-20.1885 -8.9107,-9.90582 -17.76872,-19.91658 -27.95038,-28.56309 -40.40901,-34.34548 -88.98086,22.80149 -48.57185,57.14697 z"/>
<path d="m 645.52679,126.06589 c 12.33195,8.41167 23.10011,18.9658 33.59121,29.51959 2.48222,2.84028 5.02688,5.62719 7.44666,8.52086 5.83103,6.97299 11.24348,14.21144 16.93316,21.29921 8.12272,10.11866 16.57248,19.89046 25.25519,29.52688 35.53644,39.36574 91.208,-10.89037 55.67156,-50.25611 v 0 c -5.89045,-6.51062 -7.69609,-8.39809 -13.62275,-15.45551 -12.99815,-15.4781 -24.70773,-32.03202 -38.67338,-46.69089 C 717.37126,87.862298 702.19983,73.253572 684.57203,62.030982 639.29251,34.421829 600.24727,98.456736 645.52679,126.06589 Z"/>
</svg>
