<?xml version="1.0" ?>
<svg xmlns="http://www.w3.org/2000/svg" viewBox="0 0 1000 1000">
<path d="m 284.0157,586.99842 c 23.21527,1.04071 46.47007,-0.8607 69.64923,-2.06673 42.56574,-1.92076 85.1122,-4.22196 127.66053,-6.49076 40.58069,-2.42677 81.23259,-2.2104 121.84954,-1.13626 25.69064,0.96437 51.37823,2.05012 77.05521,3.33192 6.73246,0.34574 13.46599,0.66853 20.20185,0.94001 52.9902,2.13037 56.00301,-72.80909 3.01281,-74.93947 v 0 c -6.49394,-0.26036 -12.98541,-0.57515 -19.47606,-0.9073 -26.26543,-1.31064 -52.54167,-2.42374 -78.82147,-3.39922 -42.60589,-1.11519 -85.24797,-1.31879 -127.81546,1.21672 -42.51616,2.26713 -85.03045,4.56621 -127.56399,6.48567 -20.1702,1.04948 -40.40074,2.70149 -60.60355,2.14236 -52.9079,-3.64064 -58.05654,71.18243 -5.14864,74.82306 z"/>
</svg>
