<?xml version="1.0" ?>
<svg xmlns="http://www.w3.org/2000/svg" width="800" height="1000">
<path d="m 407.6856,447.38062 c 0.27503,-0.939 2.22623,1.6777 2.6033,0.84674 0.21669,-0.47755 -0.49612,-0.92412 -0.75233,-1.38168 -1.42564,-2.546 -2.27035,-4.67304 -2.97775,-7.50893 -0.0829,-1.03704 -0.5398,-2.11235 -0.24863,-3.11112 0.22111,-0.75844 1.71797,0.60739 2.36502,0.15413 0.77926,-0.54585 1.15697,-1.51214 1.77966,-2.23147 0.62925,-0.72691 1.3683,-2.85112 1.97314,-2.10378 0.65941,0.81477 -0.92996,1.8788 -1.39494,2.8182 -3.75919,2.34693 -7.51839,4.69386 -11.27759,7.04078 -2.32789,0.43971 -4.85409,0.2812 -6.98368,1.31912 -0.61932,0.30185 1.17068,0.7675 1.60494,1.30238 0.22417,0.27611 0.61128,1.17335 0.28682,1.02769 -5.53675,-2.48553 -5.4494,-3.58139 -9.10382,-8.28922 -0.33062,-0.0704 -0.68567,-0.35443 -0.99185,-0.21119 -0.43089,0.2016 -0.43419,1.0676 -0.90878,1.10042 -0.70042,0.0484 -1.11151,-2.20155 -1.26637,-2.35417 -0.38538,-0.37979 -2.32521,-0.0903 -2.58655,-0.0681 1.91126,-2.72071 1.49034,-2.63554 7.58794,-2.89571 12.26955,-0.52351 21.18073,7.83235 24.72396,19.57482 1.4884,4.93265 0.0631,10.30444 0.0946,15.45666 10.05735,-3.03934 -3.52224,4.55033 -1.89602,5.74036 0.24865,0.18196 0.57521,-0.22111 0.86282,-0.33167 42.56173,-31.63857 -2.18197,-91.82995 -44.7437,-60.19138 v 0 c -2.49501,1.95793 -5.14352,3.73465 -7.48504,5.87378 -10.19209,9.31108 -8.955,9.55171 -16.93152,22.49152 -1.183,8.37938 -4.77247,16.76457 -3.549,25.13813 3.30426,22.61461 22.37763,38.17383 43.98546,41.08502 14.66148,1.97531 20.15627,-1.43812 32.93793,-5.92235 10.89928,-6.45539 16.2219,-8.55027 25.01707,-18.42304 11.79319,-13.23811 18.60404,-29.23517 19.15358,-47.00771 0.17436,-5.63908 -0.76994,-11.25725 -1.15492,-16.88588 -2.56464,-6.80831 -3.95203,-14.18565 -7.69393,-20.42493 -6.47182,-10.79116 -15.75191,-17.93486 -26.68149,-23.37025 -4.45628,-2.21615 -9.05828,-4.34827 -13.92622,-5.38409 -7.37016,-1.56824 -15.02517,-3.44897 -22.48165,-2.36288 -8.60432,1.25328 -16.27445,6.12882 -24.41168,9.19323 -3.98249,3.85055 -8.35402,7.33572 -11.94747,11.55166 -2.95611,3.46821 -5.37718,7.387 -7.59026,11.37063 -9.40379,16.92716 -12.94249,31.99475 -10.8151,51.39505 0.50273,4.58456 2.11773,8.97769 3.17659,13.46654 1.47281,3.78202 2.72647,7.65687 4.41841,11.34607 6.10781,13.31776 15.50868,25.50283 27.30833,34.24302 2.41955,1.7922 5.15635,3.11077 7.73452,4.66616 47.90121,22.75904 80.08736,-44.98349 32.18616,-67.74254 z"/>
</svg>
