<?xml version="1.0" ?>
<svg xmlns="http://www.w3.org/2000/svg" width="1000" height="1000">
<path d="m 531.53556,461.36476 c 25.15511,-13.64609 52.9848,-21.72968 80.08231,-30.52637 32.28941,-9.68751 64.62517,-19.70197 97.68969,-26.47893 16.23014,-3.32656 19.68145,-3.46793 35.34138,-5.40778 4.2674,-0.0127 19.7911,-2.31163 24.42834,0.54172 0.37347,0.2298 -0.80117,0.58912 -1.22545,0.47837 -5.60881,-1.46408 -5.99595,-2.42402 -10.31336,-5.77435 -0.14274,0.54731 -0.42152,1.07636 -0.4282,1.64195 -0.25929,21.95025 1.6254,-16.69601 0.34207,16.04264 -0.36044,9.19497 -1.30932,17.62602 -2.87333,26.72914 -0.892,5.19174 -2.0841,10.32743 -3.12615,15.49114 -5.34659,22.90749 -12.86083,45.21458 -19.51429,67.75452 -3.06965,10.39906 -6.01455,20.83456 -9.04766,31.24433 -4.08484,13.49746 -8.79725,26.92395 -15.74196,39.25258 -2.65198,4.70794 -4.24113,6.7589 -7.28204,11.09285 -6.02125,8.04273 -12.73733,15.504 -18.63742,23.64108 -3.19065,3.9857 -5.18102,8.73666 -7.8782,13.02069 -0.23151,0.36771 0.41198,-0.76517 0.61797,-1.14776 0.8276,-1.14157 1.48989,-2.42359 2.48281,-3.42471 5.94435,-5.99344 8.81932,-8.12232 17.28765,-10.61521 2.49581,-0.73471 5.17217,-0.57067 7.75424,-0.88976 0.37468,-0.0463 1.06379,0.16809 1.11367,-0.20613 0.0554,-0.41525 -0.65438,-0.52324 -0.98157,-0.78486 -8.69689,-6.40665 -16.83485,-13.57568 -23.03906,-22.50654 -4.92643,-7.09152 -9.63752,-16.54598 -13.64116,-24.07898 -25.23385,-46.64496 -91.19979,-10.95891 -65.96594,35.68606 v 0 c 7.98101,14.56756 12.27291,23.59984 22.58664,37.11322 10.86593,14.23688 24.53454,26.85474 39.56941,36.60738 3.58904,2.3281 7.4798,4.15422 11.2197,6.23133 7.25686,2.82164 13.44671,5.82719 21.34426,6.53244 16.69092,1.49048 26.65713,-1.71256 38.75922,-13.207 1.703,-1.61749 2.90766,-3.68937 4.36149,-5.53406 1.84699,-2.99555 3.52389,-6.06659 5.34484,-9.07188 6.06427,-8.66305 13.76725,-16.08247 19.56353,-24.9615 5.51118,-8.15063 7.39801,-10.54528 12.24091,-19.43846 9.01265,-16.55023 15.52291,-34.32023 20.927,-52.33134 2.96258,-10.1687 5.83515,-20.36363 8.83324,-30.52192 7.35301,-24.91377 15.66566,-49.57382 21.30893,-74.96258 1.29637,-6.70863 2.80342,-13.37996 3.88911,-20.12589 3.64275,-22.6343 5.80031,-50.62908 0.32882,-73.12105 -1.37554,-5.65452 -3.72774,-11.02573 -5.59161,-16.53859 -3.92156,-5.71275 -6.93197,-12.17246 -11.76468,-17.13826 -20.08339,-20.63649 -50.49535,-19.40448 -76.70009,-17.12309 -19.26357,2.4948 -22.93467,2.62549 -42.70295,6.71834 -35.20897,7.28973 -69.67409,17.86793 -104.05886,28.24252 -22.87785,7.44162 -45.82923,14.64365 -67.99536,24.06515 -10.16092,4.3188 -18.57128,8.29493 -27.98859,13.8356 -2.22301,1.30791 -4.27596,2.88542 -6.41393,4.32813 -42.16183,32.16956 3.3328,91.79538 45.49463,59.62582 z"/>
<path d="m 619.36759,260.47797 c 0.27429,12.95349 -0.0605,25.8561 -2.96087,38.54486 -0.97277,4.2558 -2.2535,8.43529 -3.38026,12.65294 -5.41013,16.69751 -11.19957,33.27809 -17.13005,49.79765 -2.24606,6.25651 -4.42367,12.54059 -6.86525,18.72341 -5.69672,14.42581 -9.95756,23.00501 -16.5527,37.17279 -3.10383,6.55797 -6.22188,13.10922 -9.31151,19.67389 -6.05481,12.86492 -12.38873,26.7839 -18.8143,39.47913 -9.57792,18.92343 -19.98915,37.45516 -29.9089,56.20138 -9.99603,19.3198 -22.246,37.31884 -33.4245,55.93984 -3.97073,6.61438 -7.7492,13.34229 -11.6238,20.01343 -26.60064,45.87926 38.28243,83.49824 64.88306,37.61899 v 0 c 3.483,-6.01882 6.8688,-12.09495 10.449,-18.05646 12.07214,-20.10169 25.23513,-39.57311 36.00899,-60.44058 10.32808,-19.52264 21.13236,-38.83071 31.09573,-58.54273 6.64072,-13.13833 12.85804,-26.81111 19.12686,-40.13144 3.169,-6.73368 6.36615,-13.45407 9.54922,-20.1811 8.21754,-17.75214 11.79351,-24.79246 18.94304,-42.94022 2.56099,-6.50061 4.84859,-13.10586 7.20915,-19.6819 6.65942,-18.55185 13.209,-37.16004 19.01124,-56.00033 1.55784,-6.24176 3.3652,-12.42649 4.67353,-18.72528 3.4996,-16.84831 4.37414,-33.96345 4.02232,-51.11827 0,-53.033 -75,-53.033 -75,0 z"/>
</svg>
