<?xml version="1.0" ?>
<svg xmlns="http://www.w3.org/2000/svg" viewBox="0 0 500 1000">
<path d="m 464.82369,745.35232 c -1.31759,-2.42199 -2.48899,-4.92944 -3.95277,-7.26598 -3.67221,-5.86172 -8.58145,-12.0728 -12.75334,-17.5712 -9.74099,-12.83828 -19.68511,-25.51399 -29.58832,-38.22754 -9.23164,-12.2207 -19.28934,-23.77894 -28.78784,-35.78502 -15.75824,-19.91834 -31.11487,-40.37852 -45.17804,-61.5347 -4.88999,-7.35634 -9.45187,-14.92559 -14.1778,-22.38838 -4.95235,-8.08279 -9.99381,-16.11165 -14.85705,-24.24837 -4.93813,-8.26202 -9.929,-16.49887 -14.54531,-24.94493 -10.16811,-18.60367 -16.73023,-33.25969 -25.45976,-52.6621 -13.2286,-29.40212 -12.45633,-28.1322 -24.81065,-57.78868 -14.11827,-35.84967 -23.75809,-73.26519 -30.61622,-111.13063 -3.89317,-21.49513 -4.60602,-28.69261 -7.44419,-50.01554 -2.33003,-20.28641 -3.63667,-40.70056 -3.63372,-61.12427 0.001,-10.05884 -0.0884,-19.74465 2.18632,-29.5835 0.68228,-2.9511 2.06027,-5.69677 3.09041,-8.54516 1.25927,-2.31038 2.19001,-4.83292 3.77782,-6.93114 1.24435,-1.64436 6.88572,-4.85252 8.39348,-5.577 7.47641,-3.59243 15.41607,-4.72471 23.5106,-6.09391 13.75006,-1.02996 28.20166,-2.02719 41.59283,2.12289 4.97007,1.54028 11.41967,5.05909 15.90245,7.31233 9.93895,5.5834 19.7515,12.496 25.11242,22.91241 2.81274,5.46525 2.69584,7.32023 3.80993,13.32441 -0.15869,2.37634 -0.14292,4.77081 -0.47609,7.12903 -3.98965,28.23974 -20.57296,54.02256 -35.07192,77.84563 -33.46782,51.1827 -73.49222,97.61362 -112.44633,144.61588 -6.93458,8.43757 -13.90683,16.84432 -20.80373,25.31271 -16.41992,20.16128 -26.50785,32.39644 -41.72546,53.69475 -11.29055,15.80207 -26.885878,39.66788 -37.164938,56.29707 -5.65068,9.14153 -11.01759,18.45546 -16.52639,27.68319 -14.464642,25.06722 -27.335751,51.03718 -37.13549,78.29903 -4.627923,12.87441 -10.378898,31.65652 -12.567237,45.38306 -1.203707,7.55035 -1.38286,15.22874 -2.074289,22.84311 0.602423,7.56041 0.672083,15.18229 1.807271,22.68123 3.013158,19.90463 10.577596,39.01824 23.767622,54.41917 11.706995,13.66932 17.093503,15.09245 32.481603,24.16273 6.48089,2.25564 12.7891,5.08762 19.44266,6.7669 21.588558,5.4487 44.333478,4.63191 65.894048,-0.45346 21.29591,-5.02295 27.6817,-9.16269 47.85119,-18.32362 8.24274,-4.83055 16.68763,-9.33162 24.72822,-14.49164 34.84479,-22.36153 66.59288,-50.26587 95.9284,-79.35792 7.20352,-7.14374 14.1145,-14.57655 21.17175,-21.86482 17.81441,-19.23522 35.61768,-38.51368 52.4874,-58.59286 8.79451,-10.46765 17.45184,-21.07117 24.82587,-32.61904 3.83374,-6.00372 7.10536,-12.34839 10.65804,-18.52259 26.05143,-46.19332 -39.2758,-83.0356 -65.32723,-36.84228 v 0 c -2.2284,4.07658 -4.23537,8.28225 -6.6852,12.22974 -5.95104,9.58911 -12.97443,18.08177 -20.22174,26.71942 -15.96123,19.02323 -32.82205,37.27471 -49.66837,55.50831 -6.34972,6.5848 -12.56706,13.29987 -19.04917,19.75439 -25.38185,25.27381 -52.51322,49.34739 -82.45943,69.12782 -5.89728,3.89535 -12.08496,7.33216 -18.12744,10.99823 -5.26298,2.5628 -10.40012,5.40203 -15.78895,7.6884 -11.10016,4.70956 -23.22355,7.98476 -35.35222,8.09837 -6.69668,0.0627 -8.8913,-0.72001 -15.08854,-2.03968 -1.43055,-0.41651 -2.9165,-0.67597 -4.29163,-1.24953 -1.31837,-0.54989 -5.78881,-3.19239 -6.75822,-4.47061 -5.141268,-6.779 -6.022758,-15.83682 -7.423748,-23.88311 0.1504,-3.95346 -0.0947,-7.94191 0.45118,-11.86038 1.46255,-10.49797 5.816108,-24.75401 9.216368,-34.44107 8.23649,-23.46518 19.34714,-45.72461 31.7258,-67.25825 5.10645,-8.57584 10.07965,-17.23244 15.31934,-25.72753 8.98961,-14.57478 24.08631,-37.79814 34.00927,-51.73628 14.43139,-20.27083 23.87555,-31.67673 39.61207,-51.00012 6.83168,-8.38884 13.7382,-16.71646 20.60729,-25.07469 41.32439,-49.86233 83.72084,-99.17906 118.90077,-153.70154 4.99212,-8.31933 10.26201,-16.47816 14.97636,-24.95799 16.24474,-29.21987 30.61132,-61.83384 30.77358,-95.92879 0.0369,-7.75632 -1.46871,-15.44313 -2.20307,-23.1647 -5.59134,-17.76842 -5.51885,-21.75394 -15.53869,-37.3858 -9.86373,-15.388306 -23.61911,-27.918586 -38.80927,-37.882992 -4.68494,-3.073217 -9.70849,-5.596303 -14.56274,-8.394454 -13.81694,-6.36919 -18.75209,-9.384897 -33.80521,-13.204101 -16.98529,-4.309426 -35.15094,-5.013161 -52.56785,-3.947868 -5.99378,0.366606 -11.94446,1.252693 -17.9167,1.879039 -15.48882,3.30542 -23.10915,4.090603 -37.91983,10.906549 -20.00671,9.20718 -35.91137,23.117511 -47.1384,42.136497 -3.26996,5.53944 -5.25853,11.74139 -7.88779,17.61209 -1.88277,6.87886 -4.28324,13.63658 -5.64831,20.63659 -2.62255,13.44833 -2.79888,26.9358 -2.76466,40.56071 0.0583,23.23106 1.58974,46.44732 4.28016,69.51783 3.10213,23.07291 3.96168,31.47442 8.23028,54.73821 7.83912,42.72295 18.91162,84.89715 34.94263,125.3212 12.3316,29.55743 12.73057,31.11846 25.8893,60.25078 4.5657,10.10808 9.06812,20.2489 13.92804,30.21885 11.46696,23.52404 17.01552,33.08783 30.27917,55.25965 5.07167,8.47794 10.32803,16.84401 15.49205,25.26602 5.33108,8.37111 10.48765,16.85595 15.99325,25.11333 15.11824,22.67456 31.60962,44.5826 48.51123,65.95194 4.77749,6.04036 9.76112,11.91502 14.58949,17.91478 4.43202,5.50724 8.7941,11.07038 13.19115,16.60557 7.06609,9.07125 14.19485,18.09385 21.21527,27.20049 2.64769,3.43449 5.23724,6.91342 7.86302,10.36469 1.75309,2.30424 3.50758,4.60744 5.27355,6.90181 0.78401,1.0186 1.50473,2.09219 2.3763,3.03695 0.0933,0.10116 0.0313,-0.27347 0.0469,-0.4102 21.29651,48.56911 89.98361,18.45129 68.68709,-30.11782 z"/>
</svg>
