<?xml version="1.0" ?>
<svg xmlns="http://www.w3.org/2000/svg" width="500" height="1000">
<path d="m 57.997613,445.5967 c 16.228899,-0.053 32.454227,-0.0219 48.679647,0.33194 31.80366,0.66484 63.58545,2.03129 95.38147,2.9623 31.82987,0.88127 63.67133,1.1952 95.50357,1.95262 20.30251,0.40638 40.59076,1.27833 60.88358,1.99406 9.69557,0.4476 19.37362,1.15997 29.07305,1.53826 7.12113,0.24316 14.24657,0.30588 21.37126,0.33109 4.15458,0.0724 8.29515,-0.003 12.44255,-0.23078 52.82321,-4.71253 46.15869,-79.41584 -6.66452,-74.70331 v 0 c 0.78841,-0.0229 1.57761,-0.0265 2.36524,-0.0685 0.37325,-0.0199 -0.74757,0.002 -1.12135,0.002 -2.2535,0.004 -4.50702,0.006 -6.76052,9e-4 -6.24898,-0.0214 -12.49864,-0.0711 -18.74475,-0.27592 -9.78129,-0.37139 -19.53798,-1.15029 -29.31797,-1.54729 -20.58031,-0.72553 -41.15602,-1.60802 -61.74617,-2.01952 -31.69465,-0.7511 -63.39817,-1.07192 -95.09055,-1.94167 -31.99017,-0.93523 -63.96591,-2.31445 -95.96393,-2.97708 -16.762525,-0.35515 -33.524596,-0.412 -50.290607,-0.34924 -53.0330087,0 -53.0330087,75 0,75 z"/>
<path d="m 222.73921,189.13351 c -1.59034,11.97312 -2.73353,24.00071 -4.00881,36.01017 -2.84345,25.03881 -5.14992,50.12155 -6.82675,75.26471 -1.80124,28.74742 -2.33354,57.53681 -2.08917,86.33234 0.54837,27.26594 2.08771,54.49816 3.36254,81.73651 1.08102,22.2331 1.43947,44.49078 1.64093,66.74629 0.0488,17.54507 0.24561,35.09269 0.0362,52.63725 -0.0595,6.23753 -0.23276,12.46972 -0.55013,18.699 -2.65707,52.9664 72.24873,56.72407 74.90581,3.75767 v 0 c 0.35636,-7.19259 0.57413,-14.3884 0.63931,-21.59009 0.20261,-18.06093 0.0302,-36.12437 -0.0343,-54.18575 -0.21184,-23.19736 -0.59347,-46.39675 -1.71984,-69.57072 -1.23038,-26.28855 -2.71387,-52.57092 -3.28338,-78.88485 -0.24203,-26.91874 0.25754,-53.83053 1.927,-80.70521 1.59895,-24.16035 3.84365,-48.25852 6.5725,-72.3179 1.30325,-12.27419 2.50278,-24.561 4.08874,-36.80299 5.03915,-52.79306 -69.62151,-59.91949 -74.66066,-7.12643 z"/>
</svg>
