<?xml version="1.0" ?>
<svg xmlns="http://www.w3.org/2000/svg" viewBox="0 0 500 1000">
<path d="m 61.292979,355.17891 c 11.452281,-2.27357 22.995737,-3.74881 34.595044,-5.01927 23.486907,-2.55073 47.087617,-3.79034 70.668317,-5.09545 29.07069,-1.74168 58.14239,-3.33074 87.25917,-4.00538 22.65897,-0.33564 45.31446,0.3771 67.95774,1.13372 17.54808,0.4463 35.08621,1.20556 52.63467,1.6291 12.34452,0.2446 24.69145,0.33446 37.03811,0.37642 3.49502,0.0678 6.97964,-0.003 10.47034,-0.16055 52.90936,-3.61935 47.79084,-78.44448 -5.11852,-74.82514 v 0 c 0.45906,-0.003 1.83596,0.008 1.37717,-0.008 -2.15564,-0.0755 -4.31941,0.0758 -6.4751,-0.006 -11.83174,-0.0399 -23.66374,-0.12489 -35.49349,-0.35529 -17.31376,-0.41252 -34.61693,-1.17582 -51.9304,-1.60889 -24.06156,-0.80279 -48.13659,-1.54148 -72.21453,-1.15498 -29.91394,0.70602 -59.78403,2.29686 -89.65049,4.09951 -24.93141,1.38033 -49.88168,2.71805 -74.712392,5.42926 -12.520998,1.37904 -25.01085,2.91626 -37.372816,5.37702 -52.4629439,7.75496 -41.4957668,81.94877 10.967177,74.1938 z"/>
<path d="m 61.729493,559.34021 c 14.398174,-2.24718 28.910579,-3.65487 43.426557,-4.87215 26.00524,-1.85186 52.07664,-2.31243 78.13642,-2.66068 27.17024,-0.34368 54.33971,-0.72713 81.50929,-1.11807 20.65693,-0.0799 41.31347,0.0385 61.96366,-0.56417 13.8966,-0.43405 27.78324,-1.12358 41.68042,-1.54201 11.51302,-0.49247 23.02401,-0.99174 34.54365,-1.3097 6.12979,-0.20869 12.26559,-0.14019 18.39145,-0.43671 52.92054,-3.45207 48.03857,-78.29301 -4.88196,-74.84094 v 0 c 0.2446,0.003 0.97834,0.004 0.73379,0.009 -1.4786,0.0352 -2.9579,0.0302 -4.43675,0.0526 -2.34732,0.0355 -4.7833,0.0798 -7.12349,0.13136 -1.58614,0.0349 -3.17216,0.0753 -4.75824,0.11298 -11.58327,0.32148 -23.15882,0.80621 -34.73492,1.31523 -13.8805,0.42125 -27.75103,1.0954 -41.63063,1.54052 -20.27058,0.60811 -40.54903,0.4223 -60.82615,0.53917 -27.14538,0.39068 -54.29064,0.77377 -81.43668,1.11707 -27.83259,0.37514 -55.67791,0.89052 -83.44894,2.9206 -15.819569,1.34726 -31.638209,2.86722 -47.33301,5.30582 -52.5377889,7.23054 -42.3122557,81.5302 10.225533,74.29965 z"/>
</svg>
