<?xml version="1.0" ?>
<svg xmlns="http://www.w3.org/2000/svg" width="500" height="1000">
<path d="m 222.72539,51.758538 c -3.4e-4,12.040768 0.0311,24.081246 -0.0765,36.121596 -0.15452,8.285021 -0.3159,16.634276 -2.1717,24.754896 -2.0214,8.84525 -5.77535,17.09767 -9.35699,25.38141 -8.03103,16.72097 -13.81553,34.35686 -20.50769,51.616 -4.54865,11.73099 -5.35344,12.96042 -10.69797,24.43947 -7.39484,14.4069 -13.88904,29.22129 -20.19674,44.12545 -2.14984,5.07974 -4.14919,10.22493 -6.42257,15.25059 -4.74294,10.485 -7.92707,15.88191 -13.44545,26.01862 -10.51993,17.90318 -18.89365,36.94911 -28.8862,55.12997 -5.33731,9.71092 -7.72189,13.19116 -13.560153,22.44487 -2.336129,3.68229 -4.716438,7.33693 -7.008389,11.04688 -5.768003,9.3366 -8.011638,13.23312 -13.180877,22.83474 -4.25647,7.9062 -8.283125,15.89356 -12.743686,23.68825 -4.141277,6.83607 -9.146706,13.0493 -14.640771,18.82932 -4.965064,5.16597 -14.239155,11.44044 -13.663838,18.94485 1.138544,14.85114 8.715132,28.48609 13.072698,42.72914 5.978929,2.43782 11.81058,5.27382 17.936788,7.31347 1.715075,0.57102 3.599173,0.34938 5.403575,0.45742 4.51833,0.27055 9.04947,-0.0598 13.54319,-0.48262 1.708375,-0.29207 3.42352,-0.54698 5.125124,-0.8762 1.508104,-0.29179 5.944845,-1.37703 7.444113,-1.68643 4.973846,-1.02644 10.006966,-1.82699 15.006696,-2.71428 14.23074,-2.72218 28.72267,-3.69964 43.16807,-4.4646 20.78807,-1.07515 41.60475,-1.29295 62.41559,-1.46372 23.48611,-0.16247 46.9729,-0.0474 70.45896,-0.19121 22.84834,-0.22103 45.69709,-0.38627 68.54629,-0.48225 15.94089,0.0101 31.87647,0.50102 47.81062,0.91625 3.20657,0.0853 6.41331,0.16357 9.62017,0.23698 53.01915,1.21244 54.7338,-73.76795 1.71465,-74.98039 v 0 c -3.12716,-0.0714 -6.2542,-0.148 -9.38107,-0.23114 -16.69029,-0.43493 -33.38219,-0.94363 -50.07964,-0.94104 -22.89856,0.0963 -45.79668,0.261 -68.69437,0.48303 -23.5374,0.14677 -47.07559,0.0241 -70.61303,0.19231 -21.95404,0.18132 -43.91389,0.42668 -65.84339,1.57035 -17.48355,0.9599 -35.00625,2.23145 -52.23344,5.51024 -6.208646,1.10272 -12.430391,2.16416 -18.605746,3.44458 -1.267269,0.26275 -2.52438,0.57237 -3.785077,0.86505 -0.49508,0.11493 -1.079119,0.0481 -1.482176,0.35775 -0.299538,0.23009 0.753193,-0.058 1.12979,-0.0871 0.136511,0.008 0.285584,-0.0327 0.409535,0.0251 0.07566,0.0353 -0.161636,0.0487 -0.245064,0.0516 -0.485334,0.0173 -0.971299,0.002 -1.456893,0.009 -0.174336,0.002 -0.694474,-0.0119 -0.52274,0.0182 9.632532,1.68845 -8.097797,-4.31106 18.461376,7.33946 4.11672,14.06082 11.304875,27.56873 12.350165,42.18247 0.37258,5.20888 -5.53594,8.85727 -8.386427,13.23289 -0.143027,0.21955 -0.770916,0.71008 -0.579876,0.53073 2.230283,-2.09374 4.496593,-4.15266 6.569723,-6.40678 9.50969,-10.16075 18.1487,-21.10168 25.20676,-33.13085 10.37182,-18.29554 19.28214,-37.42925 31.26795,-54.78652 7.52432,-12.02839 9.58743,-14.95346 16.52031,-27.6021 9.79687,-17.87382 18.0472,-36.56946 28.37274,-54.16433 7.62998,-14.1702 9.94594,-17.8891 16.60417,-32.60311 0.35392,-0.78213 11.387,-27.10112 12.11021,-28.73279 2.01599,-4.54836 4.15163,-9.0431 6.29044,-13.53502 2.35185,-4.93936 4.78735,-9.83846 7.18103,-14.7577 6.78698,-14.77768 7.25109,-15.18291 13.00811,-30.01852 6.25364,-16.11536 11.59133,-32.60867 19.1549,-48.19757 4.64188,-11.08238 7.34287,-16.69015 10.76408,-28.30705 4.83581,-16.42024 6.7508,-33.39072 6.72125,-50.470435 0.10557,-12.259561 0.0828,-24.519152 0.0794,-36.779117 0,-53.0330082 -75,-53.0330082 -75,0 z"/>
<path d="m 263.76887,229.2158 c 0.15243,6.94587 1.04699,13.84152 1.47156,20.77271 0.49438,9.25551 0.19605,18.53105 0.086,27.79338 -0.13799,14.51153 -0.19638,29.02251 -0.41882,43.5331 -0.29663,18.1653 -0.38854,36.33295 -0.44779,54.50029 -0.0483,19.80293 -0.0444,39.60593 -0.0445,59.40889 10e-4,21.41431 0.003,42.82861 0.004,64.24292 8.2e-4,21.87522 8.9e-4,43.75043 9.5e-4,65.62565 4e-5,21.20189 10e-6,42.40379 0,63.60568 -1e-5,18.08908 -1e-5,36.17816 -2e-5,54.26724 0,13.86634 0,27.73268 0,41.59903 0,9.74841 0,19.49681 0,29.24522 0,6.0424 0,12.08479 0,18.12719 0,1.91729 0,3.83459 0,5.75188 0,53.03301 75,53.03301 75,0 v 0 c 0,-1.91729 0,-3.83459 0,-5.75188 0,-6.0424 0,-12.08479 0,-18.12719 0,-9.74841 0,-19.49681 0,-29.24522 0,-13.86634 0,-27.73269 0,-41.59903 10e-6,-18.08906 10e-6,-36.17813 2e-5,-54.2672 10e-6,-21.20198 4e-5,-42.40396 0,-63.60594 -6e-5,-21.87623 -1.3e-4,-43.75246 -9.5e-4,-65.62869 -9.3e-4,-21.41312 -0.003,-42.82623 -0.004,-64.23934 8e-5,-19.72166 -0.004,-39.44335 0.0441,-59.16496 0.0581,-17.86592 0.14753,-35.73214 0.43939,-53.59605 0.22334,-14.59644 0.28666,-29.19323 0.42233,-43.79063 0.13217,-11.12568 0.44403,-22.26639 -0.22794,-33.3813 -0.34266,-5.36765 -0.77931,-10.72512 -1.32434,-16.07575 0,-53.03301 -75,-53.03301 -75,0 z"/>
</svg>
