<?xml version="1.0" ?>
<svg xmlns="http://www.w3.org/2000/svg" viewBox="0 0 500 1000">
<path d="m 248.99424,154.01792 c -11.51218,0.51975 -22.61647,3.3784 -33.53706,6.85535 -17.8668,5.58215 -34.01843,15.01903 -49.97476,24.57751 -22.56891,13.28644 -40.46693,32.46764 -57.76401,51.79154 -10.132998,11.51932 -19.216335,23.88429 -26.785273,37.24212 -7.546128,13.31759 -13.41906,27.44321 -19.339651,41.52349 -10.043541,25.01061 -19.475215,50.35849 -26.481009,76.41173 -1.570576,5.84067 -2.907622,11.74166 -4.361433,17.61249 -5.449597,25.10538 -8.685496,50.72125 -8.8188,76.43395 -0.09068,17.49008 0.718017,22.60321 2.15922,40.03838 3.945082,36.50842 13.875832,71.98623 23.736233,107.24751 7.828498,26.03314 19.445765,51.08624 34.880495,73.52113 2.938433,4.27111 6.186018,8.32107 9.279028,12.48161 12.20984,14.46031 25.77789,27.86662 40.65376,39.59225 9.42498,7.42906 12.51684,9.20085 22.38891,15.75765 18.32572,11.98546 38.90983,19.61397 60.35379,23.73583 3.99,0.76693 8.02306,1.28987 12.03458,1.93481 19.42335,2.17355 39.14698,3.55503 58.6226,1.10686 4.20123,-0.52811 8.35784,-1.36515 12.53676,-2.04773 21.69058,-4.37184 41.93409,-13.84445 59.97594,-26.56643 4.0014,-2.82153 7.78232,-5.94343 11.67348,-8.91515 3.72613,-3.37064 7.58707,-6.598 11.17839,-10.11193 7.90373,-7.73339 14.50286,-15.44744 21.35499,-24.13749 6.62792,-8.4057 14.76309,-19.63268 20.35407,-28.69142 3.47504,-5.6304 6.54511,-11.5009 9.81766,-17.25134 16.28466,-32.59909 29.04858,-66.97538 38.736,-102.09727 2.10343,-7.62604 3.88563,-15.33707 5.82844,-23.0056 9.04071,-39.59628 13.01439,-80.36717 10.50178,-120.95223 -0.49359,-7.97272 -1.4932,-15.90603 -2.2398,-23.85904 -3.92577,-30.06297 -9.54039,-60.00579 -19.23757,-88.79159 -5.64408,-16.75431 -9.25748,-24.37064 -16.11932,-40.43809 -2.95099,-6.09537 -5.71427,-12.28525 -8.85299,-18.28611 -11.51116,-22.008 -26.10939,-44.47883 -42.54129,-63.15667 -3.92294,-4.45913 -8.17959,-8.61322 -12.26939,-12.91983 -15.5736,-15.36564 -33.18971,-28.32949 -52.98409,-37.7209 -11.87932,-5.63612 -15.19669,-6.26833 -27.59937,-10.27963 -14.84719,-3.12537 -16.46055,-4.10439 -31.93027,-4.69691 -5.02001,-0.19228 -10.04604,0.16407 -15.06906,0.24611 -53.01117,1.52167 -50.8592,76.49079 2.15198,74.96912 v 0 c 7.54395,-0.40177 15.06266,-0.85452 22.47889,1.06836 2.55301,0.74711 5.1448,1.37257 7.65902,2.24133 15.95284,5.51236 29.12766,14.47786 41.23661,26.16211 2.80093,2.85804 5.72405,5.60126 8.40279,8.57412 6.29215,6.98301 11.50777,13.97878 16.81838,21.75485 5.58311,8.17509 11.57551,17.83589 16.20904,26.57993 2.61536,4.93551 4.91416,10.03238 7.37125,15.04857 5.4853,12.70033 8.80206,19.72755 13.32918,32.82797 8.28357,23.97068 12.84528,48.99864 16.29706,74.06334 0.64341,6.36685 1.49334,12.71621 1.93022,19.10056 2.29813,33.58424 -0.90347,67.35335 -8.2733,100.15317 -1.65576,6.62442 -3.16675,13.28673 -4.96727,19.87328 -8.14671,29.80168 -18.82912,58.98813 -32.25863,86.81334 -2.26251,4.10445 -4.35857,8.30515 -6.78755,12.31334 -4.52327,7.4641 -10.60801,15.84711 -15.9561,22.76283 -4.59008,5.93553 -8.96155,11.20921 -14.18705,16.55211 -2.0522,2.09831 -4.25905,4.03957 -6.38857,6.05935 -2.26533,1.81005 -4.45848,3.71434 -6.796,5.43015 -9.48666,6.96349 -20.04559,12.7341 -31.57071,15.37076 -5.93155,1.11619 -7.68449,1.63089 -13.69315,2.03332 -11.09791,0.74327 -22.24024,-0.26881 -33.28076,-1.29845 -15.03127,-2.17565 -29.80391,-5.53091 -42.59076,-14.18254 -6.5105,-4.23977 -9.52498,-6.01416 -15.68439,-10.78455 -10.43222,-8.07963 -19.93657,-17.35492 -28.76874,-27.13457 -1.96299,-2.53412 -4.04489,-4.98044 -5.88898,-7.60236 -11.4228,-16.24093 -20.13576,-34.44884 -25.89582,-53.41593 -8.61417,-30.74484 -17.44544,-61.65039 -21.234231,-93.43506 -1.183632,-13.22047 -1.904011,-17.94995 -1.926588,-31.14952 -0.03509,-20.51688 2.466974,-40.96252 6.692309,-61.0184 1.1886,-4.87995 2.27585,-9.7857 3.56578,-14.63985 6.19144,-23.29904 14.68307,-45.9319 23.6145,-68.29441 4.46098,-10.68423 8.8203,-21.47741 14.33303,-31.68119 5.10762,-9.45393 11.48086,-18.0731 18.57319,-26.1313 12.20501,-13.71872 24.50748,-27.84295 40.39376,-37.42032 11.07993,-6.65726 22.12531,-13.59617 34.52983,-17.55084 4.51155,-1.51362 9.01289,-2.9488 13.79875,-3.2746 52.97855,-2.40271 49.5806,-77.3257 -3.39795,-74.92298 z"/>
</svg>
