<?xml version="1.0" ?>
<svg xmlns="http://www.w3.org/2000/svg" viewBox="0 0 500 1000">
<path d="m 92.006051,231.52511 c 11.927629,1.14126 23.832199,2.43062 35.780529,3.34742 25.96319,1.47559 52.03006,1.80853 78.00748,0.42919 6.66259,-0.35377 13.31205,-0.92212 19.96808,-1.38318 37.29434,-3.32126 73.98982,-11.04177 110.7242,-18.00411 20.71882,-4.32791 41.6754,-7.22855 62.73816,-9.19119 2.05707,-0.16283 4.11322,-0.33767 6.17121,-0.48848 4.15795,-0.30471 8.37086,-0.65057 12.54561,-0.64994 0.2857,5e-5 -0.57059,0.0306 -0.85589,0.0458 -14.18779,-1.978 -20.85088,-1.50291 -31.54827,-20.94092 -4.28096,-7.77885 -2.10047,-17.70147 -1.80783,-26.57567 0.0789,-2.39304 2.06843,-4.32624 2.90092,-6.5712 0.11429,-0.3082 -0.49638,0.43357 -0.71571,0.67842 -0.93658,1.04556 -1.83288,2.12651 -2.74932,3.18977 -7.24669,7.87869 -13.70231,16.37888 -19.01495,25.68503 -2.02566,3.54836 -6.25409,12.05732 -8.21095,15.94608 -7.87936,14.41548 -17.88728,27.5024 -25.61019,42.02217 -2.19196,4.12108 -4.13757,8.36855 -6.20636,12.55283 -1.82247,4.15433 -3.65854,8.30272 -5.46741,12.46299 -5.02475,11.55659 -4.83414,11.59251 -10.2093,22.95198 -5.89829,12.46502 -12.23133,24.7217 -18.24213,37.13309 -8.80383,18.05125 -14.20503,37.40491 -20.34818,56.43847 -4.1636,12.90027 -4.03775,12.09191 -8.82493,24.71511 -7.56386,18.53474 -15.84136,36.77982 -21.95156,55.8739 -3.53152,11.03584 -5.56003,19.39164 -8.47409,30.54196 -1.20333,4.75418 -2.36304,9.51962 -3.61,14.26255 -2.43383,9.25734 -4.61271,17.05071 -7.5926,26.14564 -4.46545,13.62901 -9.73694,27.00302 -14.72012,40.44671 -10.91455,28.03127 -16.47679,57.58375 -21.98459,87.02303 -3.71174,20.81332 -9.23393,41.22803 -15.58854,61.37168 -3.96268,12.05882 -8.07867,24.07383 -12.5059,35.97107 -0.93219,2.44398 -1.92344,4.86783 -2.98567,7.25849 -0.0714,0.16063 0.10771,-0.3362 0.18725,-0.49295 0.45664,-0.89988 0.94647,-1.78254 1.41971,-2.67381 -28.22416,44.89874 35.27225,84.81373 63.49641,39.91498 v 0 c 3.2615,-5.72306 5.9811,-11.67089 8.18742,-17.88793 4.85875,-13.09642 9.4114,-26.3087 13.74541,-39.58728 7.21932,-23.01194 13.51561,-46.32244 17.76543,-70.08521 4.72311,-25.25821 9.19822,-50.6919 18.58737,-74.74499 5.48763,-14.80468 11.23187,-29.53651 16.11028,-44.55846 3.37013,-10.37754 5.81931,-19.18199 8.58642,-29.70243 1.20372,-4.57648 2.32115,-9.17523 3.48172,-13.76284 2.07435,-8.00085 4.31389,-17.07433 6.79604,-24.98795 5.78799,-18.45329 14.14813,-35.91202 21.22964,-53.87313 5.67022,-15.11915 5.42125,-13.90707 10.26369,-28.90272 4.99949,-15.48197 9.1986,-31.29596 16.2402,-46.03447 6.23095,-12.88725 12.80779,-25.60547 18.91142,-38.55392 5.26335,-11.16588 6.09062,-13.35013 10.78709,-24.24472 1.37138,-3.18124 2.7462,-6.36098 4.1193,-9.54147 3.79467,-7.94444 4.05861,-8.97603 8.625,-16.58674 7.47591,-12.45994 16.31474,-24.10732 22.78576,-37.16896 2.22631,-4.42985 4.6583,-10.06864 7.28338,-14.31539 2.77868,-4.49522 6.55693,-8.24443 9.93727,-12.26668 4.19109,-4.9259 13.72866,-15.6579 14.45359,-21.55066 1.18826,-9.6589 3.45566,-20.48231 -0.90766,-29.18103 -10.30393,-20.54191 -18.75523,-20.21278 -34.0104,-22.74885 -9.17923,-0.14235 -18.33907,0.62475 -27.4819,1.37505 -23.39292,2.20832 -46.67806,5.39755 -69.69761,10.17503 -33.85906,6.41746 -67.67045,13.59102 -102.01796,16.87692 -5.8269,0.41659 -11.64772,0.92916 -17.48068,1.24977 -23.15929,1.27294 -46.40048,0.98423 -69.55209,-0.26487 -10.74799,-0.80727 -21.44849,-2.01483 -32.18116,-2.98642 -52.625301,-6.56339 -61.907336,67.86002 -9.282039,74.42341 z"/>
<path d="m 15.705125,132.09364 c 0.948576,14.36547 4.236376,28.43565 7.362361,42.44716 0.642308,2.81053 1.287523,5.62039 1.926925,8.43158 1.34022,5.8924 2.10181,8.85527 3.053431,14.67833 1.07327,6.56743 1.564728,13.10821 1.846509,19.74711 2.8e-4,1.74902 5.61e-4,3.49805 8.41e-4,5.24708 0.358107,53.0318 75.356398,52.52536 74.998288,-0.50644 v 0 c -0.0306,-2.82237 -0.0612,-5.64474 -0.0918,-8.46711 -0.49278,-9.0713 -0.43264,-10.8507 -1.58045,-19.99303 -1.50525,-11.98919 -4.181042,-23.7599 -6.961409,-35.50444 -2.279539,-10.16732 -4.817793,-20.36296 -5.701443,-30.76901 -3.315467,-52.929275 -78.168759,-48.240497 -74.853293,4.68877 z"/>
</svg>
