<?xml version="1.0" ?>
<svg xmlns="http://www.w3.org/2000/svg" viewBox="0 0 500 1000">
<path d="m 56.597251,46.81606 c 0,6.090788 0,12.181576 0,18.272363 0,11.395249 0,22.790498 0,34.185746 0,17.975581 0,35.951171 0,53.926751 0,22.60812 0,45.21623 0,67.82434 0,27.03865 0,54.07729 0,81.11594 0.09399,26.46593 -0.0604,52.93016 -0.293568,79.39481 -0.177675,20.84745 -0.93817,41.68648 -2.292629,62.48972 -0.935882,13.68166 -2.354992,27.3227 -4.074243,40.92616 -1.057375,8.03994 -1.835513,16.11247 -2.286896,24.20855 -0.102824,1.89539 -0.149668,3.79281 -0.187841,5.69031 -0.984745,53.02387 74.002326,54.41651 74.987066,1.39264 v 0 c 0.0152,-0.99909 0.0381,-1.99807 0.0893,-2.99611 0.33358,-6.32658 0.99044,-12.6294 1.80891,-18.91103 1.90264,-15.11503 3.47766,-30.27113 4.50748,-45.47285 1.42531,-22.19499 2.26845,-44.42499 2.4459,-66.66665 0.2351,-26.68489 0.3902,-53.36938 0.29648,-80.05555 0,-27.03865 0,-54.07729 0,-81.11594 0,-22.60811 0,-45.21622 0,-67.82434 0,-17.97558 0,-35.95117 0,-53.926751 0,-11.395248 0,-22.790497 0,-34.185746 0,-6.090787 0,-12.181575 0,-18.272363 0,-53.0330084 -74.999999,-53.0330084 -74.999999,0 z"/>
<path d="m 131.59725,525.68666 c 0.0352,-2.95622 -0.0397,-5.93566 0.22744,-8.88454 0.0533,-0.58833 0.0125,-2.25726 0.30734,-1.74537 0.27303,0.47399 -0.20891,4.05774 -0.25984,4.51349 7.89475,-7.9918 13.71697,-17.81455 21.41039,-25.97876 1.14705,-1.21725 2.45436,-2.27283 3.68154,-3.40924 1.67633,-1.38269 3.3427,-2.77753 5.02898,-4.14806 8.50046,-6.90878 4.93685,-3.82074 13.89542,-11.35113 5.30522,-4.45946 8.51349,-7.45461 13.98477,-11.548 2.09302,-1.56591 4.2861,-2.99343 6.42915,-4.49015 4.05809,-2.60717 8.73918,-5.76278 13.06,-7.97953 3.75365,-1.92577 9.2867,-3.90662 13.12935,-5.28535 8.15483,-2.92593 8.91008,-3.08914 17.11627,-5.71389 11.31581,-3.01765 22.82134,-5.88394 34.56361,-6.53978 6.59825,-0.36854 10.78143,-0.0484 17.43414,0.20162 11.81598,0.70398 23.50693,3.10811 34.422,7.76635 6.24531,2.66532 8.41943,4.26912 14.17996,7.77493 12.49306,9.07546 25.14183,19.59595 33.80915,32.54313 1.39669,2.08637 2.52158,4.3424 3.78237,6.51361 7.09108,13.58467 8.44267,28.76885 9.46517,43.7863 0.30359,14.53533 1.43882,29.26233 -0.38757,43.75083 -0.2722,2.15931 -0.74389,4.28877 -1.11583,6.43315 -1.97447,9.41755 -6.31276,17.98959 -10.68724,26.46779 -10.04116,19.46084 1.33939,-2.80877 -9.14581,17.76849 -2.92418,5.66247 -5.21438,10.46502 -8.63115,15.78819 -2.71266,4.22618 -6.29787,8.62256 -9.42077,12.5063 -5.32612,6.62375 -6.99367,8.56594 -12.46416,15.131 -2.00039,2.17511 -3.91147,4.43587 -6.00116,6.52533 -3.42242,3.42205 -8.26265,7.37763 -12.05971,10.32807 -3.84642,2.98879 -8.83537,6.66594 -13.03125,9.20673 -2.07551,1.25682 -4.26124,2.32191 -6.39185,3.48286 -10.67174,5.28767 -21.60143,10.05815 -33.06328,13.35973 -7.77315,2.23905 -9.089,2.34134 -16.81558,3.88385 -9.56264,1.32223 -19.3531,1.05136 -28.79636,-1.02741 -6.63481,-1.46053 -9.97428,-2.80899 -16.57578,-5.03738 -9.07721,-3.12529 -16.83747,-8.61858 -24.73968,-13.8934 -4.29597,-2.86761 -8.58256,-5.74924 -12.87385,-8.62386 -44.06702,-29.50589 -85.794646,32.81429 -41.72762,62.32018 v 0 c 17.86734,11.95827 35.5516,24.61078 56.15212,31.52217 12.07455,3.83215 16.23173,5.564 28.65797,7.88532 18.19504,3.39898 36.88376,3.35617 55.11345,0.29585 11.05894,-2.3452 13.82322,-2.69569 24.79297,-5.99978 16.22006,-4.88548 31.78697,-11.62174 46.81216,-19.41128 3.80751,-2.19925 7.69386,-4.26734 11.42253,-6.59775 17.44075,-10.90041 33.24601,-24.77287 46.7562,-40.22302 7.41509,-8.90814 15.02746,-17.75745 21.80943,-27.16702 5.79752,-8.0437 8.56374,-12.61113 13.22498,-21.14843 1.62936,-2.98427 3.11954,-6.04246 4.67931,-9.06369 4.94676,-9.7141 10.29019,-19.3017 14.82418,-29.21735 5.48937,-12.00506 9.88089,-24.46881 12.28041,-37.48036 0.59431,-4.03812 1.32934,-8.05803 1.78295,-12.11437 2.04276,-18.26695 1.04846,-36.75534 0.42428,-55.06541 -0.71349,-9.45309 -0.92342,-14.63232 -2.4007,-24.10872 -2.94406,-18.88548 -8.65079,-37.14819 -18.14467,-53.8134 -2.81581,-4.39705 -5.40719,-8.94619 -8.44744,-13.19116 -11.41068,-15.93224 -27.1063,-30.87096 -42.7663,-42.59445 -4.01427,-3.00518 -8.25421,-5.69648 -12.38132,-8.54471 -11.57709,-6.5731 -14.54207,-8.78691 -27.0835,-13.72597 -18.18854,-7.163 -37.49676,-10.9435 -56.98151,-11.95726 -11.67669,-0.29342 -15.94669,-0.68482 -27.73418,0.19686 -16.80079,1.25667 -33.30463,5.12184 -49.46841,9.7041 -11.25607,3.63159 -22.59089,7.22665 -33.43973,11.98238 -10.70763,4.69382 -20.73329,10.61374 -30.34187,17.24885 -3.28457,2.35746 -6.63023,4.63206 -9.85373,7.07237 -6.59796,4.99491 -8.97685,7.30323 -15.01681,12.38864 -5.99603,5.0484 -8.28681,6.84174 -14.63475,11.9724 -3.07395,2.57875 -6.06607,5.25352 -9.0991,7.88027 -2.79473,2.83388 -5.691326,5.57079 -8.384189,8.50163 -3.774053,4.10759 -6.948754,8.47067 -10.40671,12.81848 -6.196522,7.79111 -12.812292,15.25473 -18.341676,23.56063 -2.165958,4.30767 -4.761355,8.42502 -6.497874,12.92301 -3.834301,9.93174 -4.031041,20.61175 -4.04703,31.07509 0,53.03301 74.999999,53.03301 74.999999,0 z"/>
<path d="m 83.290962,152.73872 c 8.666893,2.66293 17.418158,5.40005 26.377608,6.92806 2.92636,0.49909 5.87874,0.83139 8.81811,1.24709 21.82803,2.3534 43.81061,1.11342 65.66615,-0.0952 28.19216,-1.95397 56.42632,-3.04817 84.66428,-4.06448 27.86987,-1.14946 55.75764,-1.72025 83.64765,-2.05847 18.63867,-0.11882 37.27539,-0.42777 55.91231,-0.69644 1.40481,-0.0196 2.80963,-0.0392 4.21444,-0.0587 53.02786,-0.73902 51.98272,-75.731734 -1.04514,-74.992714 v 0 c -1.41679,0.01975 -2.83359,0.03949 -4.25039,0.05924 -18.58046,0.267861 -37.16071,0.576036 -55.74292,0.69419 -28.4856,0.347129 -56.96895,0.929969 -85.43408,2.10147 -28.72648,1.034318 -57.44931,2.150574 -86.12955,4.13158 -17.23986,0.964116 -34.57239,2.091165 -51.81678,0.607607 -6.4897,-0.660988 -12.74,-2.420859 -19.00486,-4.197763 -49.776455,-18.297677 -75.653278,52.09685 -25.876828,70.39453 z"/>
</svg>
