<?xml version="1.0" ?>
<svg xmlns="http://www.w3.org/2000/svg" width="500" height="1000">
<path d="m 128.23773,145.01407 c 5.44177,-6.08353 10.63934,-12.5741 17.25209,-17.43327 9.30512,-4.69022 18.54113,-9.58662 28.23694,-13.44296 2.40857,-0.95797 4.86177,-1.79966 7.29266,-2.69949 8.98689,-2.95677 18.03605,-6.0365 27.48221,-7.12252 5.32124,-0.61179 7.8135,-0.55179 13.19063,-0.68664 12.67596,0.42614 24.92022,4.44135 36.89561,8.31778 11.91216,4.14352 22.12277,11.87394 31.99,19.52746 9.82306,7.84213 15.75135,19.0776 22.16459,29.64224 6.30508,10.61557 12.37657,21.52465 15.95644,33.41032 0.61279,2.03455 1.04581,4.11896 1.56872,6.17844 3.59734,16.21815 3.00265,32.79392 1.8047,49.23213 -2.19482,22.53292 -8.73078,44.32309 -14.00424,66.26114 -4.0681,17.64498 -6.78274,35.63646 -12.7311,52.79987 -3.00054,8.65775 -6.55107,16.54673 -10.14851,24.97753 -2.01847,4.69545 -4.036,9.39128 -6.05539,14.08633 -4.50301,10.46939 -7.31149,17.39663 -12.36224,27.54978 -7.10514,14.28292 -15.15208,28.13579 -22.87114,42.08972 -7.83507,14.53134 -16.73064,28.44052 -25.7384,42.26031 -6.12343,9.39464 -12.08272,18.55734 -18.62668,27.66459 -3.08412,4.29219 -6.33326,8.46336 -9.49989,12.69504 -3.40361,4.46951 -6.80559,8.94027 -10.21082,13.40855 -8.75147,11.48351 -10.87109,14.48722 -19.94189,25.46298 -10.41686,12.60451 -21.09026,24.99311 -31.47878,37.62378 -16.73718,20.04666 -34.4233,39.32791 -52.561586,58.11519 -8.155034,8.10747 -17.573438,14.7419 -26.614633,21.78927 -7.216622,5.62517 -6.428515,5.06861 -13.239494,10.80562 -7.695137,6.38089 -13.873746,14.12829 -19.426044,22.36617 -28.9185195,44.45469 33.949902,85.35165 62.868422,40.89697 v 0 c 1.113137,-2.41899 3.034167,-4.26157 5.00535,-6.01091 14.995005,-12.77146 31.604165,-23.63026 45.403495,-37.79606 19.47904,-20.2345 38.52841,-40.93951 56.49513,-62.53179 10.55898,-12.84486 21.42548,-25.43128 31.99803,-38.26238 9.64882,-11.71005 12.09214,-15.11797 21.16552,-27.0268 3.55506,-4.66602 7.10582,-9.3353 10.65873,-14.00295 3.70668,-4.98453 7.50277,-9.90379 11.12003,-14.95358 6.84605,-9.5573 13.48606,-19.71384 19.89696,-29.56805 9.92227,-15.25155 19.68655,-30.6215 28.3549,-46.6328 8.55039,-15.4578 17.37421,-30.82081 25.20107,-46.66479 5.48058,-11.09436 8.47555,-18.42345 13.30807,-29.6599 2.06712,-4.80644 4.1321,-9.6138 6.19816,-14.4207 5.23013,-12.39411 8.57607,-19.68834 12.88855,-32.5439 6.23791,-18.59529 9.73128,-37.87375 13.86915,-56.9971 6.23837,-25.98164 13.8006,-51.81643 15.89838,-78.5753 0.71121,-10.60187 1.16017,-14.65805 1.16346,-25.30773 0.005,-16.4312 -1.63413,-32.84414 -5.4257,-48.84831 -1.09913,-3.89311 -2.06116,-7.82756 -3.29741,-11.67932 -5.34653,-16.65815 -13.54876,-32.20372 -22.50893,-47.16192 -5.3631,-8.80507 -10.63969,-17.75593 -16.88241,-25.982157 C 353.08152,87.125747 345.13405,79.00984 336.23393,71.972127 319.41759,59.164535 301.79919,47.046826 281.47127,40.523239 261.22034,34.084255 240.51181,28.275222 219.05423,28.675603 c -9.78664,0.403709 -13.29025,0.31426 -23.14761,1.705351 -14.14598,1.996309 -27.83711,6.182922 -41.29459,10.860176 -3.51666,1.337572 -7.06295,2.599722 -10.54999,4.012715 -6.00956,2.435148 -11.49689,5.006824 -17.31143,7.827352 -5.42161,2.629931 -13.1985,6.46724 -18.26778,9.515695 -3.46295,2.082477 -6.75654,4.434434 -10.134805,6.651652 -2.485915,2.070823 -5.044495,4.057406 -7.457746,6.212471 -3.131558,2.796522 -8.110094,7.992485 -10.965747,11.080708 -5.856086,6.333017 -11.568699,12.846325 -16.171087,20.173827 -27.081142,45.59728 37.403145,83.8958 64.484285,38.29852 z"/>
<path d="m 68.021843,819.55725 c 8.178221,-2.55213 16.482794,-4.55904 24.896688,-6.16147 14.978619,-2.89479 30.168449,-3.95909 45.386449,-4.45547 18.33745,-0.22975 36.66867,0.50207 54.96473,1.6699 20.44894,1.12164 40.78797,3.53004 61.16792,5.45802 19.28365,2.08326 38.63058,3.08293 58.02043,3.03753 17.01389,0.0211 33.97123,-1.25985 50.81696,-3.57182 15.22523,-2.08952 29.56074,-7.6199 43.68024,-13.4243 10.43525,-4.18859 20.44179,-9.29048 29.84535,-15.44663 1.20948,-0.88503 2.41896,-1.77005 3.62844,-2.65508 42.32399,-31.95591 -2.86849,-91.81107 -45.19248,-59.85516 v 0 c 0.0137,0.0178 0.0274,0.0357 0.0411,0.0535 -5.19604,3.63277 -11.09835,6.06753 -16.8956,8.5595 -8.27492,3.41952 -16.58003,7.07271 -25.48375,8.48947 -13.48695,1.9314 -27.08372,2.83399 -40.7111,2.851 -16.94545,0.0882 -33.84347,-0.89284 -50.69466,-2.70547 -21.14903,-1.99561 -42.25607,-4.48647 -63.47707,-5.64027 -20.72757,-1.30628 -41.49732,-2.12871 -62.27047,-1.77649 -19.16754,0.67842 -38.301711,2.11848 -57.160561,5.79428 -12.753891,2.52083 -25.411704,5.53944 -37.693172,9.85806 -49.4415381,19.18422 -22.310952,89.10511 27.130586,69.92089 z"/>
</svg>
