<?xml version="1.0" ?>
<svg xmlns="http://www.w3.org/2000/svg" width="500" height="1000">
<path d="m 64.765242,120.88984 c 0,16.29461 0,32.58921 0,48.88382 0,34.20153 0,68.40307 0,102.6046 0,44.4881 0,88.9762 0,133.46429 0,43.76053 0,87.52106 0,131.28159 0.06002,34.24169 -0.112639,68.48411 0.07852,102.72542 0.155047,19.51717 0.368005,39.03381 0.500527,58.55116 0.04831,7.51528 0.07143,15.03069 0.07677,22.54611 0.0012,2.71781 -0.0012,5.43561 -0.0029,8.15341 -1.57e-4,0.33087 -3.14e-4,0.66175 -4.71e-4,0.99262 -0.02516,53.033 74.974832,53.06858 74.999992,0.0356 v 0 c 1.5e-4,-0.32743 3.1e-4,-0.65485 4.6e-4,-0.98228 0.002,-2.75096 0.004,-5.50192 0.003,-8.25288 -0.006,-7.66742 -0.0291,-15.33482 -0.0785,-23.00209 -0.13247,-19.48812 -0.34408,-38.97555 -0.49998,-58.4635 -0.1933,-34.10066 -0.0143,-68.2025 -0.0773,-102.30355 0,-43.76053 0,-87.52106 0,-131.28159 0,-44.48809 0,-88.97619 0,-133.46429 0,-34.20153 0,-68.40307 0,-102.6046 0,-16.29461 0,-32.58921 0,-48.88382 0,-53.033011 -74.999996,-53.033011 -74.999996,0 z"/>
<path d="m 42.245032,133.01372 c 13.182408,1.37125 26.381963,2.46898 39.536206,4.1101 17.59385,2.40416 35.147552,5.44203 52.347242,9.9062 4.06147,1.05415 8.08682,2.24285 12.13023,3.36427 17.49469,5.19827 35.15483,10.12884 52.03724,17.14713 9.86378,4.10053 14.5859,6.7708 24.18121,11.68825 12.58845,6.24033 24.21951,14.06105 35.45552,22.44194 8.19215,6.11049 16.17058,12.31705 23.87935,19.03167 3.67817,3.20383 7.19442,6.58895 10.79163,9.88343 3.89095,3.71797 7.82582,7.39053 11.67285,11.15392 8.35775,8.17605 14.33046,14.1677 21.93819,22.95371 10.33195,11.93217 19.43089,24.79464 28.60791,37.61128 11.56904,16.3001 22.00212,33.44705 29.13836,52.18023 3.58134,9.40129 5.50744,16.6283 8.36906,26.31165 6.3155,24.21724 12.29553,48.76957 13.83845,73.84246 0.28523,4.63509 0.23614,9.2847 0.35421,13.92705 -0.12,14.73054 -1.26439,29.43447 -2.80643,44.07733 -1.00199,9.51456 -2.01066,19.00014 -4.21837,28.33263 -0.98638,4.16966 -2.42039,8.22056 -3.63058,12.33084 -6.41409,17.16634 -13.63205,34.1368 -23.71694,49.50696 -5.81125,8.8568 -9.79801,13.63791 -16.32275,22.04155 -9.01525,10.56361 -18.88552,20.45936 -29.64471,29.25774 -11.14007,9.10985 -23.36798,16.87095 -35.34038,24.80942 -12.05409,7.53667 -24.412,14.68934 -37.42264,20.46766 -11.7721,5.22826 -23.99055,9.08032 -36.30356,12.77012 -25.00932,6.65155 -50.61936,10.46184 -76.19279,14.15391 -19.94606,2.57903 -39.92464,5.3554 -60.03025,6.31475 -2.976063,-0.37844 -1.76112,-0.008 -3.72768,-0.78835 -52.280321,-8.90326 -64.871429,65.03228 -12.591108,73.93554 v 0 c 13.321242,1.91512 6.60068,1.32423 20.163301,1.75421 22.402297,-1.20674 44.687047,-3.96796 66.908947,-6.98669 29.30905,-4.23648 58.64891,-8.72322 87.2446,-16.61395 13.62595,-4.1738 17.64297,-5.13543 31.01136,-10.32394 21.89796,-8.49899 42.68999,-19.48356 62.42642,-32.20237 9.72479,-6.46524 19.41523,-12.74227 28.81645,-19.68668 20.01448,-14.78415 38.27564,-31.8133 54.07529,-51.06354 8.73554,-11.39053 13.5761,-17.19661 21.3461,-29.42713 13.40605,-21.10203 23.41299,-44.11549 31.52609,-67.7093 1.74615,-6.45503 3.77463,-12.84024 5.23844,-19.36509 2.52706,-11.26417 3.87665,-23.13028 5.06598,-34.60067 1.83795,-17.72612 3.13343,-35.52992 3.08754,-53.36178 -0.2303,-6.34482 -0.2541,-12.7005 -0.6909,-19.03445 -2.05534,-29.80412 -8.9207,-59.04067 -16.59968,-87.81764 -4.06086,-13.48692 -6.10392,-21.27372 -11.3366,-34.48705 -9.36709,-23.65331 -22.37358,-45.56493 -37.08909,-66.25547 -8.22658,-11.45385 -13.58987,-19.2156 -22.3695,-30.26132 -15.22256,-19.15162 -32.3381,-36.63091 -50.30467,-53.20624 -4.50401,-4.08107 -8.91417,-8.26818 -13.51204,-12.24322 -22.43915,-19.39952 -46.76495,-36.84834 -73.1234,-50.51487 -13.4762,-6.80464 -17.66092,-9.25158 -31.60689,-14.969525 -19.0711,-7.81928 -38.93223,-13.507 -58.67708,-19.31333 -4.87784,-1.33586 -9.73407,-2.75333 -14.63353,-4.00759 C 131.64074,68.984817 111.35912,65.437306 91.012233,62.694057 78.150208,61.107028 65.259672,59.885425 52.356199,58.698411 -0.19265519,51.548736 -10.303823,125.86404 42.245032,133.01372 Z"/>
</svg>
