<?xml version="1.0" ?>
<svg xmlns="http://www.w3.org/2000/svg" viewBox="0 0 500 1000">
<path d="m 377.59365,469.53575 c 0.33562,-10.83602 -1.46045,-21.26764 -5.80037,-31.3021 -3.40062,-7.86267 -8.1897,-14.25969 -12.95613,-21.24128 -9.40972,-14.27799 -20.08426,-26.21191 -33.80145,-36.55491 -3.58452,-2.7028 -7.24993,-5.3293 -11.14518,-7.56112 -4.78465,-2.74141 -9.88911,-4.88247 -14.83366,-7.3237 -5.18844,-1.75988 -10.31065,-3.72868 -15.56533,-5.27965 -20.448,-6.03542 -42.85658,-8.97527 -63.96746,-4.8191 -6.34608,1.24938 -12.40455,3.66906 -18.60683,5.50358 -6.51092,3.8118 -13.50479,6.89827 -19.53276,11.43539 -11.58654,8.72094 -21.13374,20.81618 -29.16844,32.71135 -8.01368,11.86407 -15.45024,25.81329 -21.00922,38.98044 -3.00128,7.10891 -5.32048,14.48688 -7.98072,21.73031 -1.83469,7.33347 -4.22532,14.54985 -5.50408,22.00039 -3.69247,21.51378 -2.7368,43.17137 1.06969,64.56459 0.94546,5.31364 1.91094,10.65367 3.53419,15.80087 1.90584,6.04326 4.68014,11.77749 7.02021,17.66623 7.57256,11.30869 12.30655,20.4653 22.89726,29.06938 5.40064,4.38758 11.17594,8.45009 17.45406,11.45058 12.17106,5.81688 27.35545,8.97819 40.87168,8.1794 7.32386,-0.43283 14.43097,-2.6556 21.64645,-3.9834 6.30595,-2.65576 12.82371,-4.85609 18.91785,-7.9673 17.16355,-8.76239 32.83946,-21.53366 45.45766,-36.04958 10.59214,-12.18516 12.88552,-17.28312 21.13541,-30.93252 2.50448,-4.58838 4.96894,-9.19882 7.51344,-13.76513 4.40785,-7.91029 7.40976,-13.12349 12.25329,-20.60979 4.59822,-7.10713 9.63275,-13.87367 14.73966,-20.61597 4.30099,-5.5702 8.92846,-10.87552 13.13725,-16.51631 14.09512,-35.56529 13.13694,-17.59531 -44.70363,-56.75244 -1.42699,-0.96605 -3.12175,1.46044 -4.68176,2.19251 -3.58549,1.6826 -6.76448,3.64866 -10.19169,5.70272 -2.71274,2.12074 -5.58193,4.0553 -8.13823,6.36221 -7.91737,7.14496 -14.90278,16.10095 -19.83306,25.56465 -5.40696,10.37866 -5.78733,13.33279 -9.21916,24.38595 -4.51861,19.41648 -7.67193,39.70917 -5.01624,59.66637 0.65661,4.93434 1.91999,9.76877 2.87999,14.65316 1.77886,4.87587 3.23764,9.88072 5.33657,14.6276 6.06912,13.72579 17.69176,30.59802 29.79532,39.68848 4.20465,3.15793 8.96115,5.50492 13.44173,8.25737 4.23763,1.6901 8.37687,3.65153 12.71289,5.07029 13.64005,4.46307 27.9783,5.61537 42.09937,2.62842 14.31405,-3.02778 19.02563,-6.61953 31.76693,-13.31668 5.01343,-3.91519 10.35955,-7.43814 15.04029,-11.74556 8.52962,-7.84933 17.04873,-18.80866 23.74303,-28.26426 6.81532,-9.62654 14.25675,-21.60563 19.93623,-31.90774 3.2055,-5.8145 6.08639,-11.80212 9.12958,-17.70318 12.54331,-26.79217 21.38763,-55.43624 23.24496,-85.10807 1.35999,-21.72662 -0.21601,-27.12136 -2.67527,-48.61845 -5.39142,-31.07192 -16.07026,-60.95599 -32.23433,-88.08199 -10.64181,-17.85873 -15.02652,-22.19611 -27.96958,-38.36335 -20.50286,-23.52959 -43.70268,-43.34253 -71.20095,-58.2656 -18.00674,-9.77211 -21.96088,-10.36341 -41.3245,-17.35597 -7.25616,-1.84202 -14.4289,-4.05116 -21.7685,-5.52605 -22.26124,-4.47342 -45.40494,-5.86517 -67.96032,-2.82665 -20.357,2.74236 -25.80408,5.45878 -45.05704,11.72412 -7.37695,3.59636 -14.9914,6.74169 -22.13085,10.78909 -21.62147,12.25734 -41.066,28.459 -57.46189,47.09703 -13.285801,15.10264 -18.238979,23.64865 -29.384837,40.26044 -17.988401,28.42724 -32.870536,58.7515 -42.213685,91.1433 -6.045628,20.95962 -7.105972,30.17749 -10.904401,51.56835 -3.713091,25.59956 -5.731487,51.4158 -6.502197,77.26457 -0.530216,17.78287 -0.570509,33.99348 0.590588,51.76985 0.573045,8.77332 1.662215,17.50528 2.493323,26.25792 4.568196,32.43184 11.890319,64.6916 25.783318,94.51059 8.592391,18.44212 12.083777,22.54791 23.013129,39.35249 4.762448,5.80223 9.207344,11.88036 14.287344,17.40671 15.272245,16.6141 33.431558,30.47904 53.545248,40.73143 18.39462,9.37614 23.80503,10.04366 43.49193,15.97395 7.75755,1.36462 15.45006,3.17253 23.27265,4.09386 24.72444,2.912 50.23778,1.47414 74.23172,-5.44692 22.7768,-6.56998 31.01308,-12.10012 52.02615,-22.89287 46.96798,-24.6274 12.13958,-91.05016 -34.8284,-66.42276 v 0 c -11.80838,6.37361 -20.59448,11.87669 -33.24333,16.05213 -19.67077,6.49342 -40.48409,6.35382 -60.6419,2.5634 -12.12011,-3.26221 -15.64169,-3.6271 -27.00425,-8.98513 -16.82492,-7.93382 -31.0939,-19.84632 -42.56468,-34.42214 -7.91366,-11.70371 -10.10866,-14.09606 -16.44102,-27.05628 -11.13798,-22.79569 -16.43639,-47.82391 -20.282051,-72.73829 -0.730506,-7.25982 -1.685009,-14.50058 -2.191517,-21.77946 -1.105935,-15.89305 -1.059227,-29.64378 -0.614831,-45.58013 0.631899,-22.6603 2.333342,-45.29434 5.460898,-67.75207 2.9008,-16.9632 3.77975,-24.69886 8.317911,-41.18974 7.14634,-25.96855 19.11075,-50.14019 33.37461,-72.89952 7.70032,-11.72103 12.10491,-19.22653 21.04586,-29.85789 13.63706,-16.21533 30.46129,-29.40982 49.46737,-38.75297 11.25352,-4.02323 15.3231,-6.04028 27.16928,-8.0319 19.6655,-3.30624 39.70558,-0.72543 58.80604,4.37618 4.69015,1.57 9.47616,2.87836 14.07045,4.71001 25.73161,10.25869 46.68864,26.82471 65.01814,47.3739 8.97995,10.88032 12.84703,14.79058 20.22718,26.75387 11.7045,18.97307 19.64053,39.8848 23.81175,61.7625 1.88228,13.27464 3.06999,17.38241 2.57853,30.81159 -0.75808,20.7147 -6.94655,40.70111 -15.49064,59.43446 -2.35928,4.65373 -4.5873,9.37636 -7.07784,13.96118 -7.65435,14.09092 -16.64074,28.29329 -27.06495,40.53889 -1.16467,1.36817 -2.46773,2.61223 -3.70159,3.91835 -1.41778,0.98306 -2.82681,1.97886 -4.25333,2.94919 -0.83946,0.57101 -1.82348,0.95941 -2.54417,1.6745 -0.22737,0.22561 0.14961,0.76201 -0.10598,0.95508 -1.57248,1.18784 -5.30564,-0.35776 -7.06228,-0.45997 -0.29399,0.41833 -0.63536,1.31856 -1.44823,0.60676 -1.08526,-0.95031 -1.94237,-2.13598 -2.84173,-3.26383 -2.5812,-3.23697 -4.90319,-6.70932 -6.92673,-10.31903 -0.44101,-1.41735 -1.03994,-2.79492 -1.32301,-4.25205 -2.10831,-10.8526 0.28423,-22.1136 2.24269,-32.777 0.59005,-2.43169 0.91582,-4.94901 1.81558,-7.2839 0.37253,-0.9667 0.88576,-1.87521 1.39621,-2.77674 0.46588,-0.82281 1.03968,-1.58022 1.52888,-2.38939 0.21789,-0.36038 0.52045,-0.70151 0.59085,-1.11671 0.0228,-0.13454 -0.24857,-0.11266 -0.37285,-0.16898 0.91884,-0.8458 4.52631,-2.13717 4.87277,-2.67143 0.47652,-0.73481 -1.71916,1.54835 -2.42,1.02314 -17.21852,-12.90355 -37.09984,-23.48182 -50.26229,-40.50323 -3.53563,-4.5722 4.34416,-10.71218 6.51624,-16.06826 0.29564,-0.37295 1.19373,-1.48264 0.88691,-1.11885 -4.38145,5.19502 -8.50456,10.61638 -12.76053,15.91202 -4.52681,6.00481 -7.25808,9.51642 -11.66461,15.88537 -10.22692,14.78145 -19.26063,30.33063 -27.61439,46.23739 -3.63805,6.45658 -5.99195,11.29557 -10.60684,17.05175 -7.71106,9.61805 -17.52412,17.20609 -28.2537,23.15828 -0.62769,0.60721 -1.11686,1.40254 -1.88307,1.82163 -0.57823,0.31627 -4.70862,1.30859 -5.60391,1.59868 -0.53649,0.17384 -1.06461,0.89227 -1.56742,0.63687 -2.75903,-1.40141 -4.40381,-4.46786 -7.11478,-5.96371 -4.01768,-6.83221 -3.02838,-4.14491 -5.10531,-14.48939 -2.30375,-11.47418 -3.95162,-24.37346 -2.32114,-36.04908 0.66897,-4.79037 2.11051,-9.44067 3.16576,-14.16101 1.738,-5.01673 3.23805,-10.12233 5.21401,-15.0502 4.06038,-10.12625 8.12446,-17.64892 13.83592,-26.87246 5.15198,-8.32003 5.36369,-7.77422 10.05059,-14.37737 0.63903,-0.9003 1.21326,-1.84489 1.81989,-2.76733 4.06285,-2.01016 5.64976,-3.22993 10.45067,-3.62571 10.92396,-0.90055 22.04365,2.40047 32.45107,5.20951 1.61013,0.58219 3.30394,0.97106 4.83039,1.74657 4.52616,2.2995 11.37794,7.25553 14.82211,11.07521 3.02103,3.35041 7.3529,9.66548 9.89269,13.22696 1.2369,1.74013 2.39372,3.54005 3.71071,5.22039 0.33517,0.42764 0.85977,1.47909 1.22428,1.07616 0.54729,-0.60498 -0.11429,-1.64205 0.0162,-2.44735 0.0251,-0.15509 0.30198,0.18596 0.32499,0.34137 0.17528,1.18373 0.12928,4.49841 0.12928,5.63967 0,53.03301 75,53.03301 75,0 z"/>
</svg>
