<?xml version="1.0" ?>
<svg xmlns="http://www.w3.org/2000/svg" width="500" height="1000">
<path d="m 269.41995,131.63118 c -11.0419,-2.89933 -22.57149,-4.31057 -33.98808,-3.4171 -2.93244,0.22949 -5.83668,0.73531 -8.75502,1.10296 -12.8289,2.45198 -25.74731,5.28691 -37.61237,10.9517 -9.42991,4.50216 -13.53984,7.6418 -22.13052,13.33281 -9.9494,6.88732 -19.81485,13.93602 -28.6635,22.23099 -9.30049,8.71854 -17.56026,18.52522 -25.95336,28.09286 -12.845749,14.8753 -25.06806,30.4251 -34.037284,48.00675 -6.22374,12.19989 -7.619459,17.30284 -12.236101,30.08777 -7.544889,24.99926 -13.486659,50.51227 -17.884271,76.25421 -0.923143,5.40373 -1.702663,10.83102 -2.553995,16.24652 -4.03444,29.18713 -6.291598,58.70868 -5.492159,88.18837 0.170344,6.28152 0.604335,12.55313 0.906502,18.8297 0.536409,6.20419 0.975529,12.41756 1.609225,18.61257 1.198654,11.71802 2.886626,23.70699 4.461003,35.38484 0.629933,4.67249 3.734382,27.75865 4.472051,32.46736 0.874629,5.58296 1.92288,11.13732 2.884321,16.70598 6.007207,33.18145 19.932332,63.99122 34.259183,94.2568 6.943589,14.07986 15.966215,26.9419 25.357975,39.46285 4.90125,6.53427 11.80942,15.42363 17.31718,21.43751 3.39812,3.71039 7.06968,7.16076 10.60452,10.74113 10.26243,9.37204 21.23554,17.99543 33.46378,24.68495 11.67269,6.3856 24.04161,10.84489 36.57358,15.14998 4.12162,1.08797 8.1993,2.35861 12.36486,3.26391 16.49033,3.58387 33.9447,5.14699 50.78833,3.65841 4.56628,-0.40356 9.08876,-1.20401 13.63314,-1.80602 21.8317,-4.1351 41.03013,-13.56791 58.30802,-27.4561 11.7429,-9.43909 15.34081,-13.98757 25.6808,-24.91261 3.92034,-5.06439 8.10062,-9.93782 11.76102,-15.19317 18.90362,-27.1405 30.85063,-58.4457 42.35407,-89.20656 10.3032,-29.00307 17.56125,-59.01273 21.60852,-89.52446 2.82135,-21.26967 2.76355,-27.64244 3.9702,-49.16998 0.93671,-34.05529 -0.92204,-68.18217 -5.05044,-101.99363 -2.47326,-20.25594 -4.25878,-29.35957 -7.65787,-49.34008 -5.46878,-28.43748 -9.8303,-57.20304 -18.13057,-85.01146 -4.89779,-16.40909 -7.55331,-22.25264 -13.6963,-37.90675 -8.61785,-21.11226 -19.47384,-41.20543 -33.78527,-59.01879 -8.30771,-10.34056 -10.83167,-12.24308 -20.22441,-21.3702 -4.453,-3.30616 -8.66526,-6.96405 -13.35901,-9.91847 -13.71025,-8.62975 -29.72043,-14.84404 -46.01804,-15.8085 -14.29425,-0.8459 -19.59937,1.1757 -33.10148,4.05037 -20.1285,6.0313 -37.58865,16.45768 -51.80817,32.01449 -8.18092,8.95029 -9.10147,11.69702 -15.2687,22.05505 -6.65058,14.22657 -10.9949,29.66525 -11.83226,45.40861 -0.20119,3.78268 -0.46345,7.60304 -0.0121,11.36408 0.6424,5.35255 2.18448,10.55831 3.27672,15.83747 4.32513,12.30258 12.23257,22.17228 19.98405,32.35427 4.50062,5.91182 8.1358,11.1762 13.9277,16.23257 4.7041,4.10672 9.99621,7.48669 14.99432,11.23003 43.72774,30.00641 86.16321,-31.83395 42.43547,-61.84036 v 0 c -1.11969,-0.45476 -2.35265,-0.69522 -3.35908,-1.36427 -3.19367,-2.12305 -6.48731,-7.28217 -8.42569,-9.82211 -1.53915,-2.0168 -3.07073,-4.03956 -4.63306,-6.03846 -0.8598,-1.10004 -1.37895,-2.64353 -2.63281,-3.25767 -0.56496,-0.27671 -0.12223,1.25222 -0.18334,1.87833 -0.13552,0.98731 0.22781,2.19335 -0.40656,2.96194 -0.44262,0.53626 -0.33936,-1.36288 -0.33935,-2.05822 2e-5,-1.50518 0.17056,-3.0071 0.33943,-4.50278 0.39423,-3.4917 0.82671,-5.58537 1.61486,-8.94706 0.22775,-0.97143 0.49956,-1.93199 0.74934,-2.89799 0.3475,-0.88255 0.59877,-1.80934 1.0425,-2.64764 3.79541,-7.17033 10.55118,-12.12454 17.96315,-15.01291 1.5874,-0.51296 3.20387,-0.94342 4.76221,-1.53887 1.26033,-0.48158 2.45158,-1.68178 3.95918,-1.51927 5.07065,0.54655 10.37194,3.35407 14.56221,6.05546 1.9876,1.83472 4.06544,3.57626 5.9628,5.50416 13.65018,13.86981 22.70883,30.28995 30.06824,48.191 4.58369,11.48786 7.34966,17.73132 10.97414,29.65101 7.77778,25.57848 11.52149,52.14926 16.66975,78.31604 3.02334,17.63642 4.78691,26.70061 6.99214,44.49277 3.70392,29.88394 5.44868,60.04933 4.75619,90.15855 -0.36836,7.07947 -0.56581,14.1699 -1.10509,21.2384 -2.47904,32.49323 -8.95397,64.58349 -19.85808,95.31433 -5.90301,15.88712 -11.88201,31.65971 -19.19942,46.96592 -3.61109,7.55351 -8.0132,16.08917 -12.65095,23.13768 -2.11945,3.22116 -4.55385,6.22368 -6.83078,9.33553 -9.46483,10.37162 -19.89631,22.1957 -33.41469,27.35133 -2.12012,0.80857 -4.34626,1.30573 -6.51938,1.95859 -2.15166,0.37108 -4.28669,0.85651 -6.45496,1.11322 -11.8333,1.40103 -23.96614,-0.22123 -35.45725,-3.03557 -7.44974,-2.47899 -15.03752,-4.92318 -22.08449,-8.44139 -7.03979,-3.51462 -13.20618,-8.41235 -19.13506,-13.5267 -2.10797,-2.03553 -4.32493,-3.96392 -6.32391,-6.10658 -4.64861,-4.98273 -9.97127,-11.91219 -14.03602,-17.2818 -6.57704,-8.68836 -13.10335,-17.48699 -18.06127,-27.23324 -11.46453,-24.11919 -23.04031,-48.56517 -28.13254,-74.96573 -0.83384,-4.75577 -1.75332,-9.49733 -2.50151,-14.26733 -0.7365,-4.69546 -3.80108,-27.50728 -4.41575,-32.05745 -1.36628,-10.11403 -3.01162,-21.79902 -4.07944,-31.95226 -0.55249,-5.25333 -0.9429,-10.52245 -1.41436,-15.78367 -0.71338,-13.70974 -1.1309,-17.49999 -0.96959,-31.2022 0.23821,-20.23364 2.00383,-40.45537 4.74839,-60.49261 4.14237,-26.66447 9.37297,-53.18233 17.04757,-79.08119 2.57826,-7.53546 3.68513,-11.50733 7.05875,-18.6149 6.19079,-13.0428 15.65538,-24.09553 24.89967,-35.03998 6.11684,-6.9809 12.35433,-14.63016 18.98509,-21.12681 6.3918,-6.26252 13.81759,-11.27129 21.10058,-16.41157 3.14655,-2.17234 6.15865,-4.55994 9.46572,-6.47909 5.81747,-3.37599 12.68041,-4.16924 19.09243,-5.79878 0.9938,-0.22173 1.96051,-0.62508 2.97701,-0.68466 2.35835,-0.13824 4.63728,0.45349 6.96937,0.5362 0.0898,0.003 -0.13778,-0.11541 -0.20666,-0.17311 50.629,15.78621 72.95407,-55.814 22.32507,-71.60022 z"/>
</svg>
