<?xml version="1.0" ?>
<svg xmlns="http://www.w3.org/2000/svg" viewBox="0 0 500 1000">
<path d="m 215.78783,147.85339 c 10.20348,1.14518 20.43782,1.94667 30.68365,2.58931 17.77848,1.26601 35.59493,0.76577 53.38716,0.18368 16.85374,-0.70515 33.70726,-1.33095 50.57223,-1.69192 13.58878,-0.13177 27.16754,-0.42332 40.73459,-1.21495 8.98468,-0.58933 17.93951,-1.56291 26.92522,-2.13327 2.61987,-0.15534 5.24431,-0.19502 7.86804,-0.21645 53.03095,-0.46684 52.37073,-75.46393 -0.66022,-74.99709 v 0 c -4.0154,0.0372 -8.03134,0.11885 -12.04002,0.36937 -8.84787,0.57827 -17.67119,1.46259 -26.51416,2.10786 -12.62951,0.75646 -25.27278,0.95421 -37.9227,1.1018 -17.15081,0.36904 -34.29069,0.99315 -51.42994,1.71524 -15.41412,0.51054 -30.84989,1.02768 -46.25354,-0.0789 -8.7045,-0.53889 -17.39662,-1.21947 -26.06828,-2.15804 -52.6253,-6.56339 -61.90733,67.86002 -9.28203,74.42341 z"/>
<path d="m 345.85576,137.15903 c 0,6.9155 0,13.831 0,20.7465 -0.0846,12.59239 0.40797,25.17582 1.08555,37.74693 0.69079,16.06716 2.06216,32.08978 3.5426,48.09968 2.01112,19.13691 2.79148,38.3578 3.46281,57.57751 0.89812,21.68201 1.61732,43.36725 2.00006,65.06457 0.32656,21.52669 -0.55066,43.04337 -1.56669,64.54045 -1.17826,21.1734 -2.88816,42.31058 -4.5313,63.45129 -1.98049,22.68767 -2.46574,45.45675 -3.21734,68.20566 -0.46663,12.48759 -1.65087,24.98956 -4.45715,37.18771 -1.65836,7.20841 -2.46574,9.18819 -4.74028,16.23477 -6.7853,18.0795 -14.61846,35.77883 -22.91598,53.213 -6.5676,13.63631 -16.5724,25.09417 -26.13866,36.67182 -3.07912,3.42782 -6.2072,6.8964 -10.1086,9.41835 -3.14981,2.03611 -6.76178,3.48441 -10.16584,5.0126 -9.26766,4.11122 -19.41767,5.02062 -29.40189,5.86407 -12.7942,1.10388 -25.56608,-0.19693 -38.08358,-2.8309 -8.8756,-2.19898 -17.74271,-4.71866 -26.03828,-8.6318 -4.79599,-2.26234 -5.75019,-3.04056 -10.27034,-5.8546 -7.51302,-5.24071 -15.07374,-10.8056 -20.66644,-18.17122 -2.72031,-3.58267 -3.70492,-5.79637 -5.85688,-9.78662 -8.21666,-15.87502 -12.99525,-33.09747 -17.10609,-50.3971 -3.5545,-16.16546 -5.45306,-32.64466 -6.18697,-49.16562 -0.0651,-7.74405 -0.0978,-3.95696 0.0815,-11.36139 1.08654,-53.02187 -73.897718,-54.55848 -74.98426,-1.5366 v 0 c -0.192697,10.74577 -0.180984,5.25831 -0.0125,16.4624 1.057574,21.21026 3.446811,42.36848 8.172499,63.10137 2.424936,10.02823 3.289577,14.20418 6.296704,24.16523 4.838462,16.02729 11.002964,31.66691 18.907766,46.43977 6.161902,10.25701 7.392464,13.2046 15.10802,22.43569 10.674922,12.77176 23.878651,23.1287 37.754251,32.18284 3.3517,1.9627 6.63473,4.04769 10.0551,5.88811 15.66039,8.42645 32.74953,13.77094 50.01146,17.76794 3.42739,0.66629 6.83799,1.42566 10.28218,1.99886 16.23615,2.70211 32.82057,3.20728 49.21718,1.99545 18.62823,-1.72783 37.25693,-4.55895 54.37031,-12.57108 6.44284,-3.0537 10.15254,-4.61518 16.35576,-8.41896 11.4635,-7.02935 21.47544,-15.95502 30.1013,-26.25309 13.49706,-16.35534 27.0168,-32.90904 36.06144,-52.26592 9.73854,-20.56478 19.03276,-41.40592 26.69634,-62.84104 3.35417,-10.82761 4.41272,-13.42912 6.83601,-24.50311 3.52183,-16.09406 5.17315,-32.53429 5.78517,-48.97907 0.71212,-21.63451 1.14721,-43.28964 3.03258,-64.86591 1.70198,-21.89894 3.4699,-43.79467 4.67348,-65.7285 1.0887,-23.1167 2.00483,-46.25472 1.63826,-69.40277 -0.39331,-22.12834 -1.11585,-44.24492 -2.03412,-66.35765 -0.7229,-20.65121 -1.59568,-41.30211 -3.7359,-61.8655 -1.39406,-15.06159 -2.69539,-30.13426 -3.33367,-45.25063 -0.61214,-11.21872 -1.05767,-22.4488 -0.97558,-33.68699 0,-6.9155 0,-13.831 0,-20.7465 0,-53.03301 -75,-53.03301 -75,0 z"/>
</svg>
