<?xml version="1.0" ?>
<svg xmlns="http://www.w3.org/2000/svg" width="500" height="1000">
<path d="m 93.918529,178.19657 c 11.164101,-1.59406 22.301861,-3.4016 33.460361,-5.06304 24.3067,-3.63689 48.71009,-6.4732 73.20166,-8.49141 29.43992,-1.94647 58.90849,-3.46359 88.39851,-4.37995 22.05358,-0.27978 44.11285,-0.57123 66.16725,-0.23988 11.9181,0.28201 23.82525,0.87348 35.73632,1.34956 3.51606,0.12106 7.02882,0.33355 10.54575,-0.006 2.13331,-0.20597 4.23962,-0.63195 6.35944,-0.94793 51.95616,-10.63282 36.91908,-84.109932 -15.03709,-73.477109 v 0 c 1.2476,-0.137477 2.49028,-0.331102 3.74279,-0.41243 0.61418,-0.03988 2.45956,0.09512 1.84577,0.04955 -1.48472,-0.110218 -2.98092,0.0027 -4.46401,-0.146336 -12.54032,-0.500321 -25.0765,-1.125669 -37.62487,-1.401154 -23.20422,-0.335269 -46.41351,-0.06122 -69.61645,0.268416 -30.77499,0.968774 -61.52939,2.529971 -92.25028,4.599733 -26.11107,2.176768 -52.13531,5.162191 -78.05011,9.052743 -9.96226,1.483327 -19.926139,2.982307 -29.861444,4.615837 -52.770972,5.2654 -45.32457,79.89482 7.446403,74.62942 z"/>
<path d="m 76.2359,163.23279 c 0.526861,11.15797 0.889287,22.32051 1.50857,33.47481 1.074421,19.92829 2.918138,39.79616 4.960351,59.64443 2.177885,23.104 4.797642,46.16224 6.909831,69.2722 2.267451,29.05771 2.959662,58.21019 3.651084,87.33917 0.658789,32.92087 0.967389,65.84939 0.522993,98.77439 -0.531373,33.73161 -2.970048,67.38002 -5.436078,101.01149 -2.078208,26.87228 -4.606401,53.70519 -6.383519,80.60029 -1.182981,16.9899 -2.031129,33.99652 -2.525109,51.01973 -0.307265,6.86065 -0.09612,13.73742 -0.372294,20.59743 -1.768784,53.00351 73.189491,55.50494 74.958271,2.50144 v 0 c 0.20978,-6.97638 0.15926,-13.95787 0.38279,-20.93454 0.46219,-16.09952 1.27488,-32.18236 2.39388,-48.25016 1.75686,-26.71204 4.30343,-53.35922 6.34519,-80.04976 2.57526,-35.12426 5.08973,-70.26815 5.63022,-105.49698 0.44525,-33.85238 0.15165,-67.70812 -0.53754,-101.55612 -0.73394,-30.8162 -1.48491,-61.65707 -3.94222,-92.39396 -2.14472,-23.3904 -4.77782,-46.73076 -6.99177,-70.11479 -1.92478,-18.68761 -3.67461,-37.39237 -4.68331,-56.15594 -0.69213,-12.2506 -0.93539,-24.52081 -1.7652,-36.76242 -5.28866,-52.76865 -79.9148,-45.28936 -74.62614,7.47929 z"/>
<path d="m 142.71985,481.29841 c 9.24723,-1.28752 18.54441,-2.24079 27.848,-3.01322 18.85436,-1.45264 37.75119,-1.90578 56.65301,-2.07879 15.19341,-0.39623 30.35995,0.37875 45.518,1.2743 11.21346,0.7203 22.45339,0.83735 33.68623,0.82232 3.58999,-0.0194 1.90078,-0.007 5.06762,-0.0343 53.03106,-0.45518 52.38734,-75.45242 -0.64371,-74.99724 v 0 c -2.83613,0.0246 -1.3244,0.0135 -4.53521,0.0316 -9.72045,0.016 -19.44833,-0.061 -29.15187,-0.69187 -16.8625,-0.99613 -33.7373,-1.80433 -50.63759,-1.4016 -20.78109,0.19563 -41.55766,0.72297 -62.28452,2.34299 -11.53599,0.99185 -23.07955,2.11527 -34.52595,3.88211 -52.229511,9.19662 -39.223522,83.06031 13.00599,73.86368 z"/>
</svg>
