<?xml version="1.0" ?>
<svg xmlns="http://www.w3.org/2000/svg" viewBox="0 0 500 1000">
<path d="m 100.36556,173.8475 c 23.1055,-1.12719 46.1452,-3.4155 69.19863,-5.31077 39.06754,-3.40821 78.15168,-6.54273 117.29355,-8.96011 24.48399,-1.41916 49.01631,-1.61216 73.53424,-1.51086 4.30671,0.0223 8.61309,0.0785 12.91932,0.14333 53.02706,0.79465 54.15086,-74.19693 1.1238,-74.991578 v 0 c -4.57924,-0.06837 -9.15863,-0.128013 -13.73838,-0.151135 -26.16281,-0.104605 -52.3402,0.125454 -78.46595,1.653109 -39.64804,2.45264 -79.23909,5.613635 -118.81185,9.06943 -21.78677,1.791194 -43.56102,3.933814 -65.39071,5.095017 -53.007248,1.652757 -50.669897,76.616327 2.33735,74.963567 z"/>
<path d="m 55.274359,136.40831 c -0.196197,13.25799 0.214348,26.51914 0.370186,39.77707 0.304507,26.87402 0.601452,53.74759 0.763769,80.62299 0.169805,33.99946 0.179199,67.99944 0.191874,101.99924 0.0071,36.94231 0.0023,73.88463 2.12e-4,110.82694 -0.0021,36.38287 -0.0027,72.76575 -0.003,109.14862 -2.32e-4,33.25787 -2.06e-4,66.51574 -1.93e-4,99.77361 1.1e-5,20.4413 2.6e-5,40.88259 3.4e-5,61.32388 3e-6,4.82751 4e-6,9.65502 5e-6,14.48252 1.2e-5,53.03301 75.000004,53.03299 74.999994,-2e-5 v 0 c 0,-4.82751 0,-9.65502 0,-14.48253 -1e-5,-20.44129 -3e-5,-40.88258 -4e-5,-61.32387 -10e-6,-33.25763 -4e-5,-66.51526 1.9e-4,-99.77288 3.5e-4,-36.38168 9.1e-4,-72.76337 0.003,-109.14505 0.002,-36.95306 0.007,-73.90613 -2.2e-4,-110.85919 -0.0127,-34.14158 -0.0223,-68.28335 -0.19324,-102.42459 -0.16343,-27.01871 -0.46158,-54.0356 -0.7676,-81.05294 -0.13659,-11.57513 -0.36342,-23.14967 -0.48097,-34.72428 2.94829,-52.950991 -71.935711,-57.120509 -74.884006,-4.16952 z"/>
<path d="m 109.42456,456.25406 c 7.06791,-1.96064 14.30341,-2.71165 21.57732,-3.38153 20.72914,-1.6051 41.49561,-2.73051 62.24738,-4.01827 22.87895,-1.46481 45.7909,-2.0974 68.71243,-2.19762 8.77127,-0.0933 17.52782,0.32532 26.25393,1.17749 52.79044,5.0665 59.95555,-69.59046 7.16511,-74.65695 v 0 c -11.22185,-1.06371 -22.48116,-1.62795 -33.75787,-1.51977 -24.35807,0.11337 -48.70652,0.7854 -73.01933,2.34087 -21.55067,1.33762 -43.11765,2.49472 -64.64175,4.2054 -11.65539,1.11821 -23.25929,2.62531 -34.568661,5.77492 -51.106464,14.16438 -31.075017,86.43983 20.031441,72.27546 z"/>
<path d="m 93.294104,795.83086 c 7.899116,0 15.798236,0 23.697356,0 13.16657,0 26.33313,0 39.4997,0 14.1232,0 28.2464,0 42.3696,0 14.60721,0.005 29.21281,0.29439 43.81899,0.45511 13.61704,0.1403 27.23492,0.15874 40.85255,0.17488 10.20194,0.009 20.40389,0.005 30.60584,0.004 7.9495,-10e-4 15.899,-0.002 23.84849,-0.002 3.0661,-2e-4 6.1322,-2.2e-4 9.1983,-2.2e-4 4.05209,2e-5 8.10417,2e-5 12.15626,3e-5 4.33952,0 8.67904,0 13.01857,0 2.19204,0 4.38408,0 6.57612,0 53.03301,0 53.033,-75 -10e-6,-75 v 0 c -2.19203,0 -4.38407,0 -6.57611,0 -4.33949,0 -8.67899,0 -13.01849,0 -4.05209,-10e-6 -8.10417,-10e-6 -12.15626,-3e-5 -3.06764,0 -6.13529,2e-5 -9.20294,2.2e-4 -7.95175,4.8e-4 -15.9035,10e-4 -23.85524,0.002 -10.16858,0.002 -20.33716,0.005 -30.50574,-0.004 -13.37234,-0.0158 -26.74492,-0.0332 -40.11668,-0.1704 -14.88105,-0.16353 -29.7615,-0.45854 -44.64365,-0.45964 -14.1232,0 -28.2464,0 -42.3696,0 -13.16657,0 -26.33313,0 -39.4997,0 -7.89912,0 -15.79824,0 -23.697356,0 -53.033009,0 -53.033009,75 0,75 z"/>
</svg>
