<?xml version="1.0" ?>
<svg xmlns="http://www.w3.org/2000/svg" viewBox="0 0 500 1000">
<path d="m 52.265345,817.27908 c 13.819561,1.87667 27.796781,1.82182 41.713733,1.88151 24.916912,-0.0956 49.810242,-1.28524 74.703352,-2.25556 26.55362,-0.96374 53.12531,-1.21356 79.69361,-1.37424 21.81551,-0.1063 43.63136,-0.0941 65.44705,-0.0876 17.73387,0.007 35.46773,0.013 53.2016,0.0163 13.60841,0.002 27.21682,0.002 40.82524,0.002 2.91411,2e-5 5.82823,0 8.74234,-4e-5 53.03301,-5.9e-4 53.03217,-75.00059 -8.4e-4,-75 v 0 c -2.91359,4e-5 -5.82719,6e-5 -8.74078,4e-5 -13.6039,-1.3e-4 -27.2078,-4.3e-4 -40.81169,-0.002 -17.73116,-0.003 -35.46231,-0.009 -53.19346,-0.0163 -21.97468,-0.007 -43.94951,-0.0187 -65.92399,0.0889 -27.39082,0.16635 -54.78503,0.43043 -82.1605,1.42978 -23.82359,0.92874 -47.64688,2.07442 -71.492749,2.1992 -10.909627,-0.0367 -21.882535,0.14186 -32.720368,-1.30541 C 8.922641,736.2919 -0.35990702,810.71525 52.265345,817.279 Z"/>
</svg>
