<?xml version="1.0" ?>
<svg xmlns="http://www.w3.org/2000/svg" viewBox="0 0 500 1000">
<path d="m 99.062668,119.63756 c 14.391772,-0.51223 28.769192,-1.20929 43.141152,-2.12615 25.58802,-1.75994 51.1298,-4.10951 76.71845,-5.86634 26.50422,-1.69238 53.05716,-2.21101 79.609,-2.24743 19.72454,0.20974 39.43768,1.3008 59.06564,3.24684 10.83972,1.35001 21.64123,2.85706 32.53679,3.69015 1.82376,0.10468 3.64751,0.20936 5.47127,0.31404 52.9492,2.98024 57.16391,-71.901237 4.2147,-74.881483 v 0 c -1.37439,-0.07533 -2.74879,-0.150653 -4.12318,-0.22598 -10.30576,-0.734807 -20.49088,-2.425482 -30.75892,-3.536629 -22.1087,-2.159465 -44.30689,-3.423254 -66.52352,-3.606851 -28.22991,0.04917 -56.46115,0.607793 -84.63951,2.424208 -25.46666,1.755486 -50.889,4.067556 -76.35375,5.842145 -13.55736,0.867927 -27.11924,1.527894 -40.695603,2.009913 -53.007246,1.652849 -50.669764,76.616417 2.337481,74.963567 z"/>
<path d="m 52.790531,79.813919 c -0.930362,9.519353 -2.228128,18.99313 -3.460779,28.476341 -2.635845,20.70219 -5.218238,41.41093 -7.59657,62.14437 -3.238288,27.03549 -4.404731,54.23991 -4.68922,81.44746 0.182292,28.08982 1.673165,56.15052 3.022336,84.20252 1.449029,29.46093 3.272595,58.89717 6.000344,88.26807 2.988404,28.85012 6.138303,57.675 8.041843,86.62081 1.536377,26.47524 1.720645,53.00185 1.859289,79.51335 -0.03623,23.51622 0.205373,47.03085 0.403092,70.54585 0.05678,16.22392 0.222763,32.44511 0.520743,48.66625 0.158979,8.11041 0.286879,16.22133 0.339516,24.33315 0.02692,5.72066 0.02339,11.4414 0.02212,17.1621 -0.0018,5.56321 -0.0031,11.12642 -0.0039,16.68964 -0.008,53.033 74.992035,53.04427 74.999995,0.0113 v 0 c 8.4e-4,-5.56141 0.002,-11.12282 0.004,-16.68423 0.001,-5.88984 0.005,-11.77972 -0.0237,-17.66951 -0.0554,-8.40749 -0.18512,-16.81411 -0.35057,-25.22015 -0.2935,-15.97214 -0.45512,-31.94424 -0.51074,-47.91914 -0.19707,-23.4362 -0.43813,-46.87202 -0.40147,-70.30943 -0.14807,-28.03139 -0.36525,-56.0784 -2.02183,-84.06978 -1.96968,-29.61455 -5.10439,-59.11477 -8.20184,-88.62944 -2.64272,-28.25239 -4.35289,-56.57261 -5.76337,-84.91196 -1.27968,-26.60446 -2.69643,-53.216 -2.93943,-79.85505 0.22951,-24.60251 1.27683,-49.20261 4.20484,-73.64936 2.33271,-20.35933 4.87399,-40.69344 7.45933,-61.02213 1.27007,-9.77675 2.60673,-19.544664 3.57005,-29.358078 6.21046,-52.668113 -68.273501,-61.451027 -74.483958,-8.782913 z"/>
<path d="m 96.151446,818.51213 c 10.568604,0 21.137214,0 31.705824,0 18.2663,0.014 36.5311,0.0779 54.79471,-0.2698 19.80434,-0.50027 39.60372,-0.91697 59.41464,-0.82752 18.20392,0.15001 36.40766,0.30586 54.61207,0.38314 14.28227,0.0541 28.56465,0.0635 42.84701,0.0671 10.58457,10e-4 21.16913,-3.9e-4 31.7537,-0.002 5.6486,-7.9e-4 11.2972,-0.001 16.94581,-0.001 3.1793,-5e-5 6.3586,-6e-5 9.5379,-5e-5 53.03301,1.1e-4 53.03316,-74.99989 1.5e-4,-75 v 0 c -3.17988,-10e-6 -6.35976,0 -9.53965,5e-5 -5.65132,1.2e-4 -11.30265,3.6e-4 -16.95397,0.001 -10.57503,10e-4 -21.15006,0.003 -31.72509,0.002 -14.18263,-0.004 -28.36529,-0.0128 -42.54784,-0.0664 -18.20027,-0.0771 -36.39986,-0.23448 -54.59966,-0.38309 -20.40289,-0.0878 -40.79446,0.31844 -61.19042,0.84073 -17.78169,0.34735 -35.56499,0.25896 -53.34936,0.25587 -10.56861,0 -21.13722,0 -31.705824,0 -53.033009,0 -53.033009,75 0,75 z"/>
</svg>
