<?xml version="1.0" ?>
<svg xmlns="http://www.w3.org/2000/svg" width="500" height="1000">
<path d="m 62.179481,157.18535 c 4.757415,8.28357 10.235276,16.12506 14.991714,24.40992 2.099958,3.65775 9.351949,17.26804 10.918156,20.19075 2.568561,4.59036 5.103458,9.19972 7.705684,13.77107 2.421411,4.25372 14.262445,24.58646 16.744755,28.97901 8.15181,14.42493 15.92453,29.05607 24.06656,43.48784 9.73551,16.81875 20.30891,33.13116 30.16304,49.87866 2.90265,4.93318 7.72158,13.44481 10.57256,18.45607 7.15321,13.18906 15.64138,25.61727 22.87495,38.75364 25.82754,46.31887 91.33233,9.79322 65.50479,-36.52566 v 0 c -7.4531,-13.26687 -15.78729,-26.02161 -23.19361,-39.31934 -3.46947,-6.09647 -7.89477,-13.92098 -11.42242,-19.91137 -9.5326,-16.18755 -19.71758,-31.97944 -29.18875,-48.20381 -8.26901,-14.63595 -16.15295,-29.47884 -24.42352,-44.1131 -3.89751,-6.89642 -12.2766,-21.14083 -16.2628,-28.13147 -2.37739,-4.16926 -4.6943,-8.37271 -7.04146,-12.55907 -3.63342,-6.77431 -8.99701,-16.90591 -12.8632,-23.60126 -4.47323,-7.7466 -9.51917,-15.13396 -14.06406,-22.83496 -26.35605,-46.020199 -91.438436,-8.74712 -65.082389,37.27308 z"/>
<path d="m 388.46588,106.42164 c -0.10655,-0.20038 -0.34753,-0.92751 -0.8307,-0.2981 -1.60397,2.08945 -9.16743,14.45203 -9.30415,14.67897 -5.17108,8.58314 -7.71391,13.26147 -12.68567,22.09579 -2.26296,3.77784 -4.46351,7.59377 -6.78888,11.33351 -4.96193,7.97996 -10.24335,15.75735 -15.26636,23.69901 -4.14877,6.55942 -11.58502,18.82705 -15.94352,25.39796 -2.50513,3.77676 -5.17526,7.44143 -7.76289,11.16215 -2.87691,3.95557 -5.77446,7.89621 -8.63072,11.86671 -4.09096,5.68686 -13.50106,19.06135 -17.77851,24.84315 -9.05483,12.23933 -18.60426,24.12249 -27.9557,36.13445 -2.90404,3.83007 -5.82322,7.64872 -8.71212,11.49023 -7.64966,10.17216 -9.21541,12.58761 -17.12993,22.53538 -6.69286,8.41228 -9.67114,11.77306 -16.50067,19.77869 -34.39145,40.36989 22.70019,89.00675 57.09164,48.63687 v 0 c 7.95787,-9.35271 10.87737,-12.63336 18.71593,-22.50596 8.40514,-10.58619 9.75409,-12.70815 17.59634,-23.1443 2.69263,-3.58324 5.41286,-7.14564 8.11929,-10.71847 9.93405,-12.76043 20.04051,-25.40304 29.65683,-38.40702 4.54823,-6.15048 13.10026,-18.33641 17.58027,-24.56889 3.18647,-4.43294 6.41121,-8.83825 9.61681,-13.25738 3.14537,-4.56236 6.37566,-9.06733 9.43609,-13.68709 5.05199,-7.62602 10.74469,-17.18323 15.65819,-24.95139 3.24805,-5.13512 13.58336,-20.97412 16.5875,-25.82797 2.66639,-4.30813 5.19086,-8.7025 7.78629,-13.05375 3.91007,-6.96225 6.96833,-12.54152 11.04595,-19.32066 7.55849,-12.56616 16.77502,-24.52607 19.93591,-39.17158 10.42297,-51.99867 -63.11425,-66.738976 -73.53722,-14.74031 z"/>
<path d="m 224.45486,368.87245 c -1.42372,3.67543 -3.19655,7.23406 -4.27114,11.02628 -0.90116,3.18018 -1.25896,6.49705 -1.62528,9.78209 -1.23375,11.0642 -0.0917,22.40371 0.67688,33.45635 1.47158,16.55278 2.13869,33.15334 2.5235,49.76159 0.32849,17.79023 0.32952,35.58426 0.34031,53.37686 -3.1e-4,16.80843 -0.0123,33.61686 -0.0185,50.42528 -0.005,16.81834 -0.006,33.63668 -0.007,50.45503 0.0954,14.28558 -0.89087,28.53857 -1.64137,42.79477 -0.482,10.59595 -0.6336,21.20453 -1.70652,31.76313 -0.67708,5.0478 -1.47376,10.07759 -2.04096,15.13959 -0.3637,3.22486 -0.47595,6.46785 -0.49473,9.71054 0.002,2.59758 0.0112,5.19516 0.0151,7.79275 0.004,3.16092 0.005,6.32185 0.005,9.48278 -0.0731,3.06007 0.0594,6.10391 0.22201,9.15945 4.64256,52.82941 79.35463,46.26384 74.71207,-6.56557 v 0 c 0.17123,6.21265 0.009,-1.60401 0.0659,-2.60425 -4.4e-4,-3.19414 -10e-4,-6.38828 -0.005,-9.58242 -0.004,-2.45132 -0.0103,-4.90264 -0.0157,-7.35396 6.2e-4,-0.62328 -0.025,-1.2464 0.0489,-1.86721 0.55469,-5.34074 1.60401,-10.61995 2.12688,-15.96565 1.12671,-11.69807 1.54419,-23.42986 1.96369,-35.17119 0.81744,-15.56698 1.8566,-31.13152 1.74483,-46.73027 5.6e-4,-16.80991 10e-4,-33.61982 0.007,-50.42972 0.006,-16.83293 0.0183,-33.66585 0.0185,-50.49878 -0.0112,-18.36202 -0.0145,-36.72554 -0.36081,-55.08501 -0.41936,-17.7738 -1.12728,-35.54076 -2.68688,-53.25647 -0.37609,-5.30612 -0.56544,-7.52687 -0.81711,-12.67819 -0.0687,-1.4068 -0.11173,-2.81475 -0.15942,-4.22242 -0.0258,-0.76156 0.41607,-1.69104 -0.0611,-2.28517 -0.32747,-0.40778 -0.40991,0.96232 -0.61487,1.44348 -0.95391,1.99979 -1.90782,3.99959 -2.86172,5.99939 26.35604,-46.0202 -38.72635,-83.29328 -65.08239,-37.27308 z"/>
</svg>
