<?xml version="1.0" ?>
<svg xmlns="http://www.w3.org/2000/svg" viewBox="0 0 500 1000">
<path d="m 98.87131,168.93893 c 1.66263,13.4087 2.8595,26.87134 3.81777,40.34711 1.62296,30.10419 2.47391,60.24448 3.47359,90.37421 1.36477,38.65414 3.31327,77.28284 4.33815,115.94832 0.77983,40.72136 -0.95862,81.43227 -2.44697,122.11742 -1.39661,37.79723 -3.31939,75.57076 -4.20918,113.38505 -0.6847,26.61138 -0.20959,53.22777 -0.12048,79.84166 0.046,5.88159 -0.1367,11.75569 -0.55354,17.62055 -3.469234,52.91942 71.37012,57.82565 74.83935,4.90623 v 0 c 0.4721,-7.58656 0.79819,-15.17822 0.71375,-22.78343 -0.0906,-25.94367 -0.55648,-51.88972 0.10041,-77.83106 0.87143,-37.48525 2.81303,-74.92883 4.17957,-112.39751 1.54571,-42.26329 3.32379,-84.55383 2.47054,-126.8544 -1.03756,-38.82919 -2.96653,-77.62244 -4.35285,-116.4399 -1.03164,-31.09296 -1.90149,-62.1978 -3.62518,-93.26203 -1.09267,-15.07231 -2.41412,-30.13367 -4.3157,-45.12796 -7.18119,-52.54455 -81.490418,-42.38882 -74.30923,10.15574 z"/>
<path d="m 98.26174,187.94998 c 16.51911,0 33.03822,0 49.55732,0 23.12118,0.1797 46.33877,-0.56338 69.38375,1.83452 16.60945,1.72825 19.86627,2.90844 36.21861,6.45522 23.31918,5.53658 46.01605,13.44305 66.77591,25.55359 13.44124,7.84112 15.58205,10.09678 27.89992,19.53758 13.89355,11.36228 24.55535,24.72637 30.86708,41.61681 3.15969,8.45545 3.91346,13.77105 5.77344,22.63402 0.2688,3.85016 0.86727,7.69143 0.80638,11.55048 -0.1871,11.85966 -3.66219,23.9411 -8.74373,34.57614 -5.17447,10.8295 -8.97742,15.36029 -15.95166,25.38128 -19.75925,25.52188 -45.83117,44.95191 -73.6719,60.90109 -6.17697,3.53861 -12.5883,6.65144 -18.88245,9.97716 -24.13427,11.56749 -49.54278,20.34801 -75.75181,25.80819 -15.35463,3.19886 -20.49078,3.46226 -36.12126,5.32368 -52.64018,6.44299 -43.52841,80.88744 9.11176,74.44445 v 0 c 19.55707,-2.44635 25.44893,-2.74877 44.71098,-6.88701 32.33024,-6.94582 63.65272,-17.9916 93.34965,-32.51561 7.74467,-4.16306 15.63043,-8.07369 23.234,-12.48919 22.26513,-12.92968 43.78139,-27.86961 62.71957,-45.3691 16.83286,-15.55411 19.10662,-19.60571 33.46451,-37.2323 11.1797,-16.90232 16.29678,-22.9602 24.27022,-41.70396 9.0536,-21.28295 13.62647,-44.22979 12.91977,-67.37278 -0.21406,-7.00991 -1.53741,-13.94185 -2.30611,-20.91277 -3.81387,-16.17778 -4.70249,-22.86794 -11.26632,-38.46254 -8.59092,-20.41065 -21.13987,-38.66952 -36.7416,-54.35353 -5.23631,-5.26392 -11.09551,-9.86919 -16.64326,-14.80379 -16.85363,-12.55229 -20.13392,-15.81818 -38.39457,-26.16294 -26.82846,-15.19846 -55.98053,-25.41818 -85.93679,-32.42155 -7.86349,-1.62509 -15.67355,-3.53447 -23.59047,-4.87526 -32.2187,-5.45649 -64.94734,-5.09225 -97.50362,-5.03188 -16.5191,0 -33.03821,0 -49.55732,0 -53.033009,0 -53.033009,75 0,75 z"/>
</svg>
