<?xml version="1.0" ?>
<svg xmlns="http://www.w3.org/2000/svg" viewBox="0 0 500 1000">
<path d="m 40.513098,245.8403 c 5.177222,6.42651 9.23377,13.67203 13.013657,20.97687 0.968136,2.28141 2.030322,4.52516 2.904408,6.84423 3.762062,9.98128 6.109234,20.54119 9.084543,30.76221 4.290681,14.7397 4.933466,16.45121 9.681508,31.43898 1.916038,5.71922 3.822024,11.44181 5.748113,17.15765 4.245437,12.59871 7.567614,21.8685 11.334851,34.59221 5.391958,18.21114 9.525562,36.76728 13.891182,55.24056 1.71906,7.04896 3.38679,14.11063 5.15716,21.14688 4.58909,18.239 6.56121,25.35323 11.70916,43.46894 4.83516,17.015 7.14687,24.20755 11.66012,41.11702 1.6838,6.3086 3.22965,12.65323 4.84447,18.97985 6.25577,25.18189 11.97351,50.51743 19.39122,75.39499 4.37613,14.67673 6.24674,19.64214 11.15269,33.8862 7.92574,20.92159 14.62167,42.25082 21.13196,63.64189 3.02411,11.02381 7.55901,21.48882 11.96963,31.99539 20.62647,48.85743 89.72131,19.68721 69.09485,-29.17022 v 0 c -3.4313,-8.09766 -7.04236,-16.12788 -9.31392,-24.66224 -6.7796,-22.27581 -13.76,-44.48696 -21.98911,-66.28183 -4.23926,-12.24443 -6.10569,-17.23186 -9.87241,-29.80423 -7.27055,-24.26727 -12.7559,-49.01674 -18.90251,-73.57887 -1.74949,-6.83128 -3.42813,-13.68109 -5.24848,-20.49383 -9.17093,-34.32266 -20.1565,-68.16553 -27.79661,-102.89451 -4.79931,-20.29473 -9.43263,-40.62891 -15.37914,-60.62914 -3.95006,-13.28548 -7.3247,-22.74561 -11.72655,-35.79382 -1.79665,-5.32572 -3.57713,-10.65689 -5.3657,-15.98534 -4.31178,-13.5801 -5.10448,-15.78124 -9.00225,-29.1738 -5.15702,-17.71933 -9.39486,-35.85306 -17.91725,-52.37027 -1.84478,-3.42208 -3.59757,-6.89537 -5.53433,-10.26624 -6.36009,-11.06952 -13.7713,-21.75227 -22.911581,-30.70634 C 52.313957,154.74562 1.5042763,209.91243 40.513098,245.8403 Z"/>
<path d="m 399.40161,186.22209 c -1.33582,7.53738 -5.47192,14.48669 -8.83035,21.2458 -8.66285,17.11695 -15.66611,34.99421 -23.54616,52.46929 -4.82267,10.6949 -9.83536,21.3031 -14.74319,31.95919 -2.63227,6.14624 -5.35626,12.254 -7.89681,18.43871 -5.78872,14.09205 -9.62143,24.76528 -15.08338,38.98767 -7.72103,20.1048 -15.7454,40.08557 -23.44902,60.19752 -10.20542,27.98968 -18.11645,56.72832 -26.92856,85.16711 -5.34113,17.23711 -7.07062,22.25385 -12.66653,39.27163 -2.08435,6.33389 -4.2108,12.65408 -6.25303,19.00167 -4.483,13.93396 -7.33891,23.00013 -11.04226,37.12877 -4.31362,16.4569 -7.61807,33.10647 -10.85352,49.79839 -4.01322,22.09528 -8.9625,43.9926 -15.01863,65.614 -2.77636,9.39485 -5.61007,18.86401 -9.97843,27.66608 -0.13217,0.16426 -0.18907,0.53053 -0.39649,0.49278 -0.15929,-0.029 0.16221,-0.50716 0.68712,-1.37292 -34.249,40.49081 23.01366,88.92622 57.26266,48.4354 v 0 c 3.82189,-4.76853 7.52033,-9.61536 10.10956,-15.20192 6.03206,-12.81863 10.77675,-26.17615 14.54799,-39.8333 6.57918,-23.58943 12.04309,-47.45874 16.42167,-71.55862 2.83516,-14.6948 5.68955,-29.37228 9.45391,-43.86606 3.35939,-12.9345 5.90476,-20.98071 10.04811,-33.85857 2.04489,-6.3557 4.17401,-12.68399 6.26102,-19.02599 5.90494,-17.97133 7.54257,-22.70199 13.18498,-40.91208 8.2865,-26.74356 15.72724,-53.76636 25.20186,-80.1285 7.72467,-20.18317 15.78147,-40.23081 23.52818,-60.40519 4.69555,-12.2284 8.97289,-24.00615 13.92723,-36.12065 2.26899,-5.54823 4.70303,-11.02751 7.05455,-16.54127 5.09503,-11.06261 10.28987,-22.0797 15.29394,-33.18375 7.44507,-16.52064 14.05289,-33.42418 22.22043,-49.61401 1.84474,-3.80087 3.79783,-7.55103 5.53423,-11.40261 6.10372,-13.53892 10.79843,-27.86346 10.94892,-42.84857 0,-53.03301 -75,-53.03301 -75,0 z"/>
</svg>
