<?xml version="1.0" ?>
<svg xmlns="http://www.w3.org/2000/svg" viewBox="0 0 500 1000">
<path d="m 102.02964,212.1434 c 5.79569,-6.02061 11.13275,-12.48547 16.93818,-18.49407 4.92425,-5.09658 7.25682,-6.87786 12.7912,-11.66611 9.95921,-8.78889 20.17249,-17.32368 32.25103,-23.05894 2.33854,-1.11041 4.6921,-2.24062 7.17599,-2.97007 1.6288,-0.47833 3.36976,-0.41448 5.05465,-0.62172 11.62545,-0.4956 22.7241,3.22422 33.66399,6.68047 5.33053,1.68409 19.09885,6.41779 24.3443,8.20819 16.10873,4.99874 32.03641,10.6464 48.26133,15.27159 10.9546,3.1228 13.74596,3.62264 24.82131,6.18587 11.40525,2.54785 22.93158,4.60295 34.65272,4.78765 11.31824,0.17836 22.50603,-1.32631 33.69233,-2.79502 7.8552,-1.24828 15.78281,-2.28207 23.48616,-4.33061 2.49104,-0.66244 4.9301,-1.50686 7.39515,-2.26029 50.43128,-16.4069 27.22842,-87.727497 -23.20286,-71.3206 v 0 c -5.46281,2.44738 -11.83485,2.21273 -17.57245,3.56697 -6.632,0.898 -13.35164,2.00912 -20.05496,2.23303 -7.32638,0.24472 -14.47976,-1.52154 -21.60324,-2.97696 -8.11033,-1.84617 -11.75958,-2.56263 -19.73356,-4.82733 -15.44186,-4.38566 -30.5902,-9.78216 -45.92404,-14.516649 -20.51355,-6.996078 -41.29544,-14.932284 -62.93233,-17.661448 -16.52112,-2.083886 -20.24132,-0.767568 -36.88832,0.84811 -5.85681,1.612777 -11.83945,2.823596 -17.57042,4.83833 -4.62341,1.625368 -9.0329,3.825738 -13.40016,6.049426 -16.66785,8.486811 -31.444843,19.888571 -45.365259,32.280001 -3.426258,3.03226 -6.936034,5.97269 -10.278774,9.09678 -10.524127,9.83573 -19.814088,20.93895 -29.399261,31.6608 -32.380256,42.00023 27.017034,87.79283 59.397294,45.7926 z"/>
<path d="m 378.62405,129.53462 c -6.19648,6.87747 -12.28956,13.81704 -17.73835,21.31749 -4.67249,6.43185 -9.00274,13.10555 -13.52142,19.64638 -2.31456,3.12148 -4.6288,6.2432 -6.94368,9.36444 -7.24793,9.77265 -9.82178,13.06852 -16.83845,23.24874 -8.72568,12.65974 -17.13869,25.52411 -25.91109,38.15442 -3.08809,4.44827 -6.23913,8.85351 -9.26427,13.34483 -9.5563,14.18791 -9.64953,14.99429 -18.88438,29.24692 -9.35607,14.43971 -19.09334,28.62647 -28.50186,43.03283 -3.16328,5.09471 -6.35784,10.17011 -9.48983,15.28411 -3.11074,5.07929 -6.12316,10.2184 -9.23799,15.29518 -4.87236,7.94131 -14.20779,22.6099 -18.90189,30.45106 -9.09752,15.19679 -10.54566,18.27332 -18.98507,33.85899 -11.19438,22.11273 -24.09589,43.30246 -35.41299,65.34871 -7.70978,15.01903 -8.86161,18.07226 -15.84322,33.49743 -8.12502,20.35874 -18.56956,39.62913 -28.22348,59.26668 -7.125958,14.49531 -6.711422,13.98396 -13.201494,28.76339 -1.941617,4.69351 -3.858239,9.39744 -5.824852,14.08053 -3.859571,9.19079 -6.141828,14.65215 -10.476662,23.46093 -5.13815,10.44118 -10.906004,20.57856 -16.513764,30.77021 -6.645498,11.92884 -12.893205,24.06943 -18.736404,36.40937 -22.669184,47.9438 45.13359,80.00287 67.802776,32.05907 v 0 c 5.17387,-10.96187 10.74727,-21.72642 16.64574,-32.31712 6.40631,-11.64642 12.93084,-23.24687 18.76194,-35.19773 4.83013,-9.89938 7.5793,-16.4092 11.83548,-26.55151 1.76521,-4.20641 3.47821,-8.43455 5.21732,-12.65183 1.76745,-4.05767 3.46176,-8.14799 5.30235,-12.17301 9.16624,-20.04482 19.86341,-39.3285 28.93543,-59.42519 2.34194,-5.18796 4.55899,-10.43139 6.83848,-15.64709 5.90876,-13.14194 7.12189,-16.2863 13.68928,-29.11092 11.2221,-21.91422 24.08715,-42.94419 35.18611,-64.92564 7.2135,-13.37907 8.99032,-17.03344 16.79912,-30.08103 3.89792,-6.51296 15.36153,-24.68399 19.31051,-31.11991 2.95956,-4.8234 5.82142,-9.70623 8.77265,-14.53473 2.82459,-4.6213 5.70301,-9.20947 8.55451,-13.8142 9.56178,-14.65608 19.46076,-29.08503 28.97711,-43.77029 7.33994,-11.32672 9.7508,-15.65388 17.21427,-26.7348 3.02595,-4.4926 6.1779,-8.89904 9.26685,-13.34856 3.18634,-4.59297 6.40597,-9.16303 9.55901,-13.77893 5.39451,-7.8973 10.55691,-15.95184 15.97295,-23.83439 6.80295,-9.90108 8.67755,-12.18219 15.92409,-21.98404 2.7848,-3.76679 5.55763,-7.5424 8.33645,-11.3136 2.25934,-3.2718 4.53832,-6.53012 6.77802,-9.8154 3.57141,-5.23867 4.91299,-7.67912 8.75388,-12.44318 2.30181,-2.85506 7.46496,-8.48954 9.84046,-11.26421 1.40563,-1.64181 2.75206,-3.3334 4.12809,-5.0001 31.86527,-42.39227 -28.08646,-87.456567 -59.95173,-45.0643 z"/>
<path d="m 58.966781,786.98179 c 9.109385,2.887 18.342429,5.3583 27.652879,7.50162 11.819277,2.82913 23.99774,3.14324 36.07065,3.85609 12.28947,0.65986 24.49532,2.30293 36.64292,4.22223 15.59303,2.72881 31.00965,6.38638 46.38984,10.11135 14.50883,3.35318 28.72618,7.79861 42.94644,12.18336 13.35246,4.15278 27.20969,7.17447 41.22719,7.72236 3.2351,0.12645 6.47513,-0.002 9.7127,-0.003 16.56752,-1.03452 33.02534,-4.89731 48.21127,-11.67621 3.61576,-1.61405 7.08392,-3.54027 10.62587,-5.3104 3.31446,-2.01772 6.68322,-3.94883 9.94337,-6.05316 4.38823,-2.83247 12.41214,-8.60706 16.79831,-11.73216 7.43761,-5.29921 14.818,-10.64404 22.10456,-16.14926 8.53168,-6.68855 16.91174,-13.75429 23.76817,-22.21242 3.07422,-3.79238 5.87447,-7.97183 8.65379,-11.99747 0.85983,-1.15572 1.71967,-2.31144 2.57951,-3.46715 31.46927,-42.68706 -28.89933,-87.19134 -60.36861,-44.50428 v 0 c -1.32071,1.80211 -2.64141,3.60422 -3.96212,5.40634 -0.92117,1.33905 -1.87425,2.6567 -2.76352,4.01715 -0.27581,0.42195 -0.43752,0.91364 -0.72857,1.32522 -3.29803,4.66386 -8.13698,8.01318 -12.44517,11.63343 -12.40122,9.40919 -25.0945,18.464 -38.03323,27.11577 -1.41455,0.79328 -2.78764,1.66549 -4.24365,2.37982 -6.6687,3.27176 -14.00521,5.18927 -21.33131,6.23424 -9.39477,0.62952 -18.74431,-1.59919 -27.64945,-4.39956 -15.69424,-4.8392 -31.3979,-9.69727 -47.40708,-13.40947 -17.3747,-4.20048 -34.79342,-8.3128 -52.42248,-11.31155 -14.53456,-2.26054 -29.13223,-4.21272 -43.83177,-4.99546 -7.96115,-0.46929 -16.03526,-0.45876 -23.86326,-2.1206 -7.33154,-1.63156 -14.56888,-3.66527 -21.738243,-5.90045 -50.581584,-15.93749 -73.1205896,55.59568 -22.539006,71.53316 z"/>
</svg>
