<?xml version="1.0" ?>
<svg xmlns="http://www.w3.org/2000/svg" viewBox="0 0 500 1000">
<path d="m 98.889146,109.74183 c 13.605614,-0.76102 27.241514,-0.60254 40.862674,-0.61426 24.12819,0.1112 48.24805,0.81746 72.36464,1.5188 22.625,0.6628 45.24909,1.28386 67.8852,1.18548 15.74082,-0.0578 31.47421,-0.5096 47.20644,-0.9883 5.94329,-0.20359 11.8889,-0.3058 17.8353,-0.34452 0.68483,-0.003 1.36965,-0.005 2.05448,-0.008 53.03259,-0.20983 52.73585,-75.209244 -0.29674,-74.999416 v 0 c -0.75125,0.003 -1.50249,0.006 -2.25374,0.009 -6.54153,0.04387 -13.08226,0.155608 -19.62042,0.37757 -15.08947,0.459166 -30.17983,0.899948 -45.27761,0.954436 -21.79182,0.110891 -43.57154,-0.534844 -65.3528,-1.154613 -24.86487,-0.723048 -49.73329,-1.446302 -74.6102,-1.550465 -14.52263,0.01285 -29.06041,-0.130805 -43.566959,0.665387 -52.996833,1.958499 -50.227098,76.907341 2.769735,74.948841 z"/>
<path d="m 305.46376,74.550274 c 0,12.668205 0,25.33641 0,38.004616 0,23.7183 0,47.4366 0,71.1549 0.0258,29.15463 -0.0689,58.30944 0.0784,87.46377 0.2564,31.76955 0.0969,63.54071 0.0278,95.31076 -0.0683,31.21001 -0.0885,62.42009 -0.10066,93.63017 0.1986,28.43902 0.59324,56.87641 0.89125,85.31483 0.10194,22.05291 -0.0556,44.10591 -0.14612,66.1586 -0.0626,15.19353 -0.0855,30.38717 -0.0967,45.58081 -0.006,10.61579 -0.005,21.23159 -0.004,31.84739 7.2e-4,9.41299 0.001,18.82598 0.001,28.23898 1.2e-4,7.00279 1.3e-4,14.00559 1.4e-4,21.00839 -10e-6,4.6569 -10e-6,9.31381 -2e-5,13.97071 0,2.78425 0,1.47327 0,4.15135 -2e-5,53.03301 74.99998,53.03304 75,3e-5 v 0 c 0,-2.71127 0,-1.32915 0,-4.15133 1e-5,-4.65693 1e-5,-9.31386 2e-5,-13.97079 -10e-6,-7.00332 -2e-5,-14.00665 -1.4e-4,-21.00998 -2.1e-4,-9.4141 -5.5e-4,-18.8282 -0.001,-28.2423 -7e-4,-10.59582 -0.002,-21.19163 0.004,-31.78744 0.0111,-15.10934 0.0338,-30.21869 0.0961,-45.32792 0.092,-22.41728 0.25291,-44.83491 0.14264,-67.2524 -0.29517,-28.16676 -0.68374,-56.33253 -0.88714,-84.49983 0.0121,-31.16534 0.0323,-62.33069 0.1005,-93.49596 0.0696,-31.95157 0.22891,-63.90425 -0.0285,-95.85531 -0.14849,-29.02724 -0.0498,-58.05499 -0.0774,-87.08253 0,-23.7183 0,-47.4366 0,-71.1549 0,-12.668206 0,-25.336411 0,-38.004616 0,-53.033009 -75,-53.033009 -75,0 z"/>
<path d="m 67.817055,808.63711 c 6.199252,0.35135 12.406802,0.4871 18.614546,0.56107 15.979569,0.14295 31.958579,0.0579 47.937479,-0.10715 23.94741,-0.21578 47.89424,-0.51229 71.83954,-0.89796 21.7279,-0.42016 43.45848,-0.65235 65.18978,-0.79295 12.75754,-0.17116 25.50705,0.36453 38.26314,0.11434 7.1997,-0.23004 14.396,-0.54941 21.59691,-0.74206 2.42611,-0.0548 1.27733,-0.0315 3.4463,-0.0714 53.02383,-0.98644 51.62879,-75.97347 -1.39504,-74.98703 v 0 c -2.58369,0.0485 -1.22735,0.0205 -4.06899,0.0856 -7.06737,0.19118 -14.13092,0.48627 -21.19647,0.73235 -12.37597,0.30236 -24.7531,-0.40606 -37.13159,-0.13021 -21.97259,0.14246 -43.94446,0.37686 -65.91362,0.80113 -23.80069,0.38447 -47.60295,0.67728 -71.40575,0.89222 -15.43236,0.15986 -30.86474,0.24413 -46.297781,0.10812 -5.030311,-0.0556 -10.060347,-0.16035 -15.084156,-0.43721 -52.941903,-3.10723 -57.336201,71.76392 -4.394298,74.87116 z"/>
</svg>
