<?xml version="1.0" ?>
<svg xmlns="http://www.w3.org/2000/svg" viewBox="0 0 500 1000">
<path d="m 90.275161,474.62802 c -2.840987,10.34579 -0.834922,5.72252 -5.768594,14.24135 -0.235917,0.40735 -1.164917,1.35275 -0.713703,1.21859 1.088301,-0.32359 1.907201,-1.23252 2.856313,-1.85566 5.001492,-3.2837 4.206397,-2.77525 9.353344,-6.28015 5.192389,-3.3794 9.799849,-7.5355 14.704579,-11.29057 1.36,-1.04121 -2.84502,1.90878 -4.2919,2.82544 -1.58239,3.59201 -5.49506,1.20296 -7.888291,2.59354 -0.217011,0.1261 0.447921,0.23432 0.689376,0.30282 0.735116,0.20856 1.491145,0.33577 2.231275,0.52579 2.66316,0.68376 2.01397,0.49466 4.1605,1.32561 -0.69427,-0.17007 -1.43815,-0.20144 -2.08281,-0.51023 -1.80819,-0.8661 -3.569635,-1.84964 -5.220184,-2.98779 -1.116227,-0.7697 -1.949896,-1.89565 -3.036979,-2.70599 -0.122469,-0.0913 -0.444514,-0.0421 -0.444694,0.11065 -8.61e-4,0.72982 0.323674,1.42421 0.442034,2.14437 0.177001,1.07695 0.295711,2.16268 0.443566,3.24402 2.142264,18.62392 2.877157,37.39597 3.461572,56.1249 0.650831,25.21278 0.307567,50.43489 0.103954,75.65097 -0.181537,21.78135 -0.264527,43.56335 -0.310783,65.34535 -0.02638,16.06639 -0.02482,32.13281 -0.024,48.19922 9.91e-4,10.98366 0.0024,21.96733 0.0033,32.951 2.22e-4,2.74497 3.58e-4,5.48994 4.79e-4,8.23491 0.0024,53.03301 75.002355,53.02968 75.000005,-0.003 v 0 c -1.2e-4,-2.74591 -2.6e-4,-5.49182 -4.8e-4,-8.23774 -9e-4,-10.98289 -0.002,-21.96577 -0.003,-32.94866 -8.1e-4,-16.01209 -0.002,-32.02418 0.0238,-48.03624 0.0459,-21.63321 0.1282,-43.2664 0.3085,-64.89895 0.21162,-26.20918 0.55791,-52.42473 -0.13907,-78.63011 -0.73397,-22.88091 -1.53074,-45.86481 -4.89539,-68.5345 -1.87283,-8.50074 -2.36329,-12.56736 -5.65177,-20.55059 -5.70954,-13.86066 -12.40801,-22.69925 -25.21905,-30.88735 -2.90061,-1.85391 -6.24903,-2.88995 -9.37354,-4.33493 -12.1473,-3.8116 -26.83343,-7.45642 -39.579782,-5.54558 -4.250386,0.63719 -8.341905,2.07359 -12.512858,3.11039 -3.117605,1.63179 -6.318937,3.11273 -9.352816,4.89536 -4.993616,2.93412 -8.867519,7.51789 -13.797559,10.55255 -7.691131,5.25273 -18.230189,11.28193 -24.331141,17.98721 -9.731846,10.69582 -8.550746,11.31043 -13.119002,24.29757 -8.7375513,52.30827 65.237515,64.66503 73.975066,12.35676 z"/>
<path d="m 166.48601,552.92744 c 15.16975,-13.916 30.02031,-28.30009 46.12989,-41.14857 3.33673,-2.66126 6.8389,-5.10821 10.25835,-7.66232 9.21932,-6.25616 18.46281,-12.52777 28.07117,-18.18175 2.2363,-1.31593 4.47637,-2.63743 6.8144,-3.76274 3.94038,-1.89652 6.38155,-2.35143 10.55615,-3.47796 0.87107,-0.28445 15.24158,-3.10855 14.80366,-1.11371 3.90114,1.62357 8.37893,1.9823 12.02887,4.22174 0.80358,0.49305 1.97755,1.94666 2.55148,2.59984 0.84483,1.14274 1.76377,2.1321 2.15027,3.54086 0.12842,0.46808 -0.0156,0.9767 0.0703,1.45442 1.97023,10.96076 -0.45077,-5.99047 1.97268,9.42008 0.39423,2.50691 0.64646,5.03409 0.9697,7.55113 2.27327,24.17475 2.0095,48.49603 1.75142,72.74795 -0.28016,27.26596 -1.49199,54.5021 -2.55765,81.74369 -0.76392,19.84926 -0.003,39.69438 1.14567,59.50884 0.49867,7.74674 0.78974,15.50359 0.92115,23.26459 0.2829,5.31974 0.34338,10.79386 1.6495,15.99676 0.64887,2.58474 1.0314,5.30152 2.24922,7.67193 2.55837,4.97968 5.98874,9.46069 8.98311,14.19104 4.98026,3.44744 9.56336,7.55465 14.9408,10.34231 3.73195,1.93464 7.96652,2.73947 12.06828,3.65918 7.81896,1.7532 17.53402,1.82167 25.47859,0.64286 2.91947,-0.43319 5.78198,-1.1885 8.67297,-1.78274 3.30509,-1.28223 6.72363,-2.30358 9.91526,-3.8467 5.61981,-2.71712 10.32414,-6.34364 15.08387,-10.30283 7.67343,-6.38284 14.50361,-13.58034 21.33308,-20.83213 9.97993,-10.92486 16.21661,-24.40255 24.23938,-36.67126 2.7533,-4.21045 5.74574,-8.25959 8.61861,-12.38938 30.11376,-43.65388 -31.62215,-86.24117 -61.73591,-42.58729 v 0 c -3.63836,5.30909 -7.39985,10.53586 -10.91507,15.92727 -18.18569,27.89194 -0.25512,1.12669 -11.51932,19.45922 -1.06892,1.73966 -2.31726,3.36249 -3.47589,5.04373 -4.8283,5.22102 -5.06035,5.64729 -10.07008,10.40986 -1.25909,1.19697 -2.59144,2.31496 -3.8582,3.50381 -0.34162,0.32062 -1.37776,0.80156 -0.96453,1.02234 1.6171,0.86402 3.64909,-4.33378 5.2837,-1.52848 0.51503,-0.005 1.04311,-0.12908 1.54508,-0.0138 1.50016,0.34456 -0.98278,0.0447 -1.39257,0.42813 -0.0979,0.0915 0.0916,0.27905 0.20924,0.34322 8.61304,4.69847 -1.59211,-2.6658 12.4645,9.19514 5.70598,10.51629 5.0365,7.00129 6.55591,14.26423 0.0365,0.1743 -0.14714,-0.32914 -0.17348,-0.50525 -0.15759,-1.05387 -0.14667,-1.79392 -0.19721,-2.93486 -0.15382,-8.7787 -0.47586,-17.55321 -1.03597,-26.31615 -1.01073,-17.39282 -1.7433,-34.81019 -1.07687,-52.23549 1.09089,-27.95546 2.32718,-55.90564 2.61071,-83.88602 0.29001,-28.09335 0.54354,-56.28243 -2.51722,-84.25259 -1.61987,-10.56101 -2.07314,-16.04334 -5.15701,-26.26341 -5.49881,-18.22331 -13.56048,-31.36535 -27.84218,-43.9131 -3.28052,-2.43145 -6.40479,-5.08927 -9.84157,-7.29434 -10.22556,-6.56081 -21.70388,-10.22504 -33.29966,-13.44743 -6.64686,-1.45551 -8.2747,-2.06267 -15.27287,-2.50944 -13.38603,-0.85459 -26.73194,1.43499 -39.62468,4.85202 -12.0834,3.96232 -13.45674,3.92396 -24.86589,9.6185 -3.32382,1.65899 -6.51344,3.57682 -9.71144,5.46701 -11.5754,6.8417 -22.71439,14.4221 -33.76004,22.07489 -4.51137,3.42644 -9.11335,6.73675 -13.5341,10.27932 -16.98809,13.61339 -32.72456,28.75046 -48.74262,43.46474 -38.854862,36.09432 12.19022,91.04339 51.04507,54.94907 z"/>
</svg>
