<?xml version="1.0" ?>
<svg xmlns="http://www.w3.org/2000/svg" width="500" height="1000">
<path d="m 339.45829,463.0933 c -2.89862,-11.7544 -6.531,-21.44934 -13.9236,-31.43812 -2.3786,-3.21393 -5.27648,-6.00892 -7.91472,-9.01338 -9.56798,-9.41089 -19.84563,-18.15349 -31.75197,-24.49686 -8.79005,-4.6831 -13.10373,-5.93921 -22.24267,-9.30762 -4.56005,-1.11904 -9.05578,-2.54381 -13.68015,-3.35711 -21.25538,-3.73824 -43.32353,-1.89556 -63.90869,4.43509 -5.90589,1.81626 -11.57965,4.31569 -17.36947,6.47354 -5.63354,2.9819 -11.4987,5.56224 -16.90062,8.94569 -22.33727,13.99073 -43.57301,36.07725 -58.416373,57.75476 -4.088442,5.97083 -7.569211,12.3358 -11.353817,18.5037 -3.169746,6.81009 -6.702658,13.46265 -9.509238,20.43027 -5.703414,14.1593 -9.277844,27.5041 -12.366773,42.41918 -2.497389,12.0588 -4.831373,28.25826 -5.754188,40.59339 -0.506739,6.7735 -0.527453,13.57461 -0.791179,20.36191 -0.0901,20.94218 4.102954,41.27039 11.126378,60.92423 2.123289,5.94166 4.419648,11.84073 7.182452,17.51334 8.119937,16.67193 11.407993,19.79063 22.270253,34.65798 11.526585,14.7917 24.382075,28.52899 38.676945,40.68547 4.59152,3.90468 9.26737,7.73388 14.21937,11.16991 14.5264,10.07939 18.08533,10.90716 33.96414,18.27218 25.44728,9.92284 48.89287,14.19488 76.24113,10.11701 19.46319,-2.90213 25.77513,-6.36148 44.29669,-13.22351 23.09262,-10.18943 44.00362,-24.22777 63.71078,-39.86599 6.81419,-5.40726 13.32278,-11.18884 19.98417,-16.78327 40.54069,-34.18994 -7.81119,-91.52314 -48.35189,-57.33319 v 0 c -5.6151,4.75894 -11.11841,9.65302 -16.84531,14.27682 -14.13643,11.41353 -29.02719,21.9112 -45.48939,29.73098 -4.33024,1.78366 -8.56614,3.81619 -12.99072,5.35097 -5.06219,1.75595 -15.13737,4.3324 -20.93049,4.68884 -9.97415,0.61369 -19.69774,-2.07414 -28.96983,-5.40763 -7.59204,-3.18142 -11.75226,-4.4986 -18.64906,-9.08314 -3.42506,-2.27675 -6.64855,-4.85182 -9.81595,-7.47522 -10.77264,-8.92245 -20.41132,-19.1059 -29.03814,-30.10364 -5.27322,-6.73286 -9.17789,-11.02827 -13.09212,-18.617 -1.93071,-3.74317 -3.47282,-7.67887 -4.99771,-11.6049 -4.42705,-11.39799 -7.45609,-23.04449 -7.5445,-35.35668 0.13266,-4.94004 0.0693,-9.88923 0.39797,-14.82011 0.65284,-9.79371 2.36127,-21.92644 4.20924,-31.54509 1.9484,-10.14135 4.11352,-18.99266 7.69952,-28.67161 1.59492,-4.30482 3.62255,-8.4367 5.43383,-12.65506 2.35829,-4.04891 4.50756,-8.22702 7.07488,-12.14673 5.49051,-8.38273 10.91135,-14.81355 17.83516,-22.03423 4.28107,-4.46462 11.49523,-11.30508 16.80491,-15.05029 2.50991,-1.77038 5.26974,-3.1568 7.90461,-4.7352 2.91711,-1.23416 5.76516,-2.64633 8.75134,-3.70248 10.77113,-3.80951 22.40555,-5.29345 33.67133,-3.13305 4.33984,1.47217 9.18362,2.7391 13.13766,5.17265 4.14599,2.55168 7.61379,6.04119 11.30483,9.16964 0.46853,0.3286 0.86196,1.16458 1.40559,0.98579 0.44528,-0.14644 -0.28688,-0.94893 -0.15235,-1.39795 0.057,-0.19021 0.37869,0.2 0.45652,0.38268 1.35879,3.18939 1.76587,6.72335 2.88909,9.98965 14.59936,50.98391 86.70149,30.3373 72.10213,-20.64661 z"/>
</svg>
