<?xml version="1.0" ?>
<svg xmlns="http://www.w3.org/2000/svg" viewBox="0 0 500 1000">
<path d="m 98.292139,91.964609 c 0.283458,14.492441 -3.146226,28.741421 -5.887943,42.880711 -4.320962,22.37101 -7.905105,44.89718 -10.140821,67.57896 -1.774739,18.00508 -1.863444,23.50459 -2.843545,41.72143 -1.864434,48.12112 -1.437158,96.2897 -1.219163,144.43469 0.151243,51.62143 0.334073,103.24174 0.05984,154.86301 -0.36099,42.83659 -1.317628,85.66565 -2.187851,128.49425 -0.622237,23.88973 -0.78163,47.78801 -1.231552,71.68055 0.09843,4.01486 -0.444794,7.9201 -1.290682,11.81742 -9.460008,52.18245 64.337118,65.56092 73.797128,13.37847 v 0 c 1.33493,-7.87624 2.53134,-15.77351 2.48044,-23.79324 0.44336,-23.85244 0.61305,-47.71021 1.22919,-71.55982 0.87761,-43.20383 1.84229,-86.40813 2.20227,-129.62006 0.27436,-51.86704 0.0938,-103.73311 -0.0595,-155.60031 -0.21166,-46.70678 -0.63484,-93.43558 1.11457,-140.12087 0.83635,-16.01022 0.93436,-21.39508 2.46265,-37.169 2.0116,-20.76226 5.29964,-41.37725 9.25984,-61.85008 3.64321,-18.84559 7.6854,-37.83244 7.25518,-57.136111 0,-53.033009 -75,-53.033009 -75,0 z"/>
<path d="m 173.29214,536.90632 c 0.0161,-2.45339 -0.0214,-4.90701 0,-7.36038 0.0121,-1.38494 -0.2073,-2.79798 0.0729,-4.15433 0.0943,-0.45645 0.0534,1.34766 0.51695,1.2992 0.68245,-0.0714 1.03014,-0.92858 1.40917,-1.50056 1.24409,-1.87743 2.29277,-3.87727 3.43915,-5.81591 1.49805,-2.34809 2.85781,-4.79038 4.49416,-7.04428 3.41329,-4.70145 8.88896,-10.247 12.75229,-14.24385 3.37483,-3.49147 14.72934,-15.0569 18.43475,-18.41787 2.55106,-2.31393 5.31729,-4.37893 7.97594,-6.5684 7.12333,-5.04436 14.7,-9.43175 22.57975,-13.18167 3.99939,-1.90328 7.52547,-3.49474 11.90034,-3.96617 0.0432,0.23608 0.22908,0.48987 0.12954,0.70826 -0.16681,0.36595 -0.69356,0.48867 -0.84497,0.86126 -0.34184,0.8412 0.75829,1.69638 0.88712,2.29928 0.0753,0.35233 -0.2756,0.68613 -0.2708,1.04638 0.009,0.69702 0.20818,1.37853 0.31226,2.0678 5.3825,19.14739 5.69934,39.30169 6.41534,59.04452 0.72056,34.63417 0.5851,69.28211 0.36407,103.92123 -0.43698,30.07734 -0.61324,60.15757 -0.71519,90.23764 0.3879,12.34526 -0.67607,24.77673 0.24989,37.11062 0.18851,2.51092 0.5336,5.00762 0.80039,7.51143 3.72379,12.77095 3.52072,17.05072 14.45396,27.73473 7.65293,7.47848 17.75713,11.5368 28.06072,13.33313 10.67264,1.86066 14.63408,0.3534 25.16308,-1.28597 4.15418,-1.58936 8.50237,-2.74314 12.46253,-4.76808 24.80724,-12.68468 40.16436,-37.39504 55.16687,-59.71454 16.76321,-26.74158 8.50694,-12.67943 24.59698,-42.28686 25.18418,-46.6718 -40.81971,-82.28761 -66.00389,-35.61582 v 0 c -13.25086,24.77246 -6.27217,12.73224 -20.8934,36.14539 -3.92751,5.87922 -10.92391,16.60573 -15.60734,22.86369 -1.52313,2.03519 -3.20923,3.94314 -4.81384,5.91471 -1.20823,1.22881 -2.56737,2.3256 -3.6247,3.68643 -0.51721,0.66568 2.95682,3.00718 2.46695,0.55662 0.97643,0.0617 1.96405,0.0252 2.92927,0.18505 2.13006,0.35276 5.36466,1.62268 6.97039,2.76639 6.85146,4.88008 8.72245,7.37401 12.16053,15.61863 0.71171,1.70671 0.614,3.64699 0.921,5.47048 -0.80341,-2.75139 -0.48331,-7.71849 -0.49846,-10.45304 -0.0453,-8.17273 0.0584,-16.34624 0.0386,-24.51897 0.10155,-30.00584 0.27913,-60.01179 0.7141,-90.01491 0.22626,-35.7265 0.37012,-71.46263 -0.41429,-107.18335 -0.60952,-16.0597 -1.12989,-32.14409 -3.379,-48.08342 -1.50999,-10.70122 -3.53778,-21.54083 -7.14724,-31.76929 -1.79469,-5.08577 -4.29066,-9.89615 -6.43598,-14.84423 -3.17598,-4.80638 -5.86187,-9.97526 -9.52793,-14.41915 -14.02411,-16.99965 -34.8618,-27.42933 -56.87545,-28.39324 -4.88448,-0.21388 -9.7515,0.72389 -14.62725,1.08584 -3.6704,0.91543 -7.39212,1.64535 -11.0112,2.74631 -5.99814,1.8247 -13.30627,5.02469 -18.90759,7.77344 -12.82837,6.29528 -25.08497,13.71956 -36.4327,22.42202 -4.07094,3.473 -8.25845,6.81384 -12.21281,10.41901 -3.5092,3.19932 -6.81079,6.61974 -10.16422,9.98198 -14.2689,14.3064 -28.58147,28.91975 -38.48857,46.71937 -5.49182,10.13258 -9.26995,15.8901 -12.51153,27.34321 -2.51868,8.89898 -2.574872,17.66789 -2.430701,26.73024 0,53.03301 75.000001,53.03301 75.000001,0 z"/>
</svg>
