<?xml version="1.0" ?>
<svg xmlns="http://www.w3.org/2000/svg" viewBox="0 0 500 1000">
<path d="m 231.28062,144.90736 c -4.7588,1.77354 -9.69164,1.77718 -14.53393,0.28804 -8.84748,-2.72085 -0.25956,-0.59326 -3.99345,-1.49466 3.48825,7.184 5.42114,14.48883 6.9049,22.30903 2.25534,14.62662 2.28739,29.47661 2.46278,44.2401 0.12029,21.89121 0.0362,43.78301 0.006,65.67439 -0.12914,28.73835 0.16416,57.47571 0.34322,86.21315 0.25773,31.03634 -0.80312,62.06028 -2.14538,93.06196 -1.59413,31.87192 -3.93679,63.69911 -5.86707,95.55147 -1.85076,29.70979 -2.60022,59.4589 -2.86046,89.21926 0.059,23.15754 0.16841,46.31844 0.80942,69.46813 0.56544,15.20827 1.32907,30.41541 2.83607,45.56189 0.78713,8.53284 2.5067,16.90564 4.96346,25.10273 5.5003,17.30936 18.19693,28.94424 37.06233,30.38909 4.38018,0.33546 8.72909,-0.99851 13.09364,-1.49776 3.04928,-1.23262 6.22556,-2.18864 9.14784,-3.69785 11.542,-5.96086 21.63865,-17.89333 30.08422,-27.55745 7.95312,-9.22875 14.21343,-19.6776 19.08335,-30.81934 2.25826,-5.16661 3.73051,-9.42339 5.64914,-14.67134 1.41543,-4.35142 3.08061,-8.59793 5.03916,-12.72843 21.9284,-48.28711 -46.35989,-79.29855 -68.28829,-31.01144 v 0 c -2.64974,5.9487 -5.23142,11.92272 -7.24181,18.12683 -2.77849,7.71322 -5.30933,15.61176 -10.82963,21.88188 -2.97541,3.4435 -4.01495,4.726 -7.05717,7.95642 -0.8514,0.90407 -1.7574,1.75564 -2.60888,2.65964 -0.21402,0.22722 -0.882,0.82725 -0.58499,0.73123 2.90935,-0.94056 5.0421,-3.82045 8.51924,-3.40052 3.52183,-0.27748 7.05569,-1.23432 10.5655,-0.83243 4.42088,0.50621 8.91262,1.49731 12.87774,3.51677 7.27188,3.70362 15.18513,11.00587 17.31072,19.35412 -1.08854,-3.6003 -1.90901,-7.24205 -2.16357,-11.02252 -1.36712,-13.33754 -1.93818,-26.74151 -2.48725,-40.13335 -0.62554,-22.23539 -0.70717,-44.48226 -0.78306,-66.72524 0.24523,-28.46464 0.95287,-56.91812 2.72599,-85.33443 1.95574,-32.28478 4.33697,-64.54369 5.93442,-96.84931 1.39051,-32.23625 2.4834,-64.49538 2.21386,-96.76737 -0.17791,-28.54667 -0.47049,-57.09325 -0.34183,-85.64083 0.0311,-22.23004 0.11796,-44.46055 -0.011,-66.69039 -0.24192,-19.5206 -0.48848,-39.15138 -3.99115,-58.41984 -0.71828,-3.36228 -1.32615,-6.75005 -2.15484,-10.08683 -4.18361,-16.84569 -11.1445,-32.94386 -21.89634,-46.659972 -7.47407,-7.734166 -9.61776,-11.107273 -19.40782,-16.366467 -12.74571,-6.846959 -27.09021,-8.111672 -40.92356,-4.431549 -50.5816,15.937434 -28.04266,87.470618 22.53894,71.533188 z"/>
</svg>
