<?xml version="1.0" ?>
<svg xmlns="http://www.w3.org/2000/svg" viewBox="0 0 500 1000">
<path d="m 141.01518,641.60571 c 16.58115,-0.1405 33.25768,0.4688 49.77172,-1.45107 6.98076,-0.81155 13.88648,-2.17356 20.82971,-3.26034 19.83428,-4.08859 39.0626,-10.45633 58.23393,-16.86216 8.94242,-2.98798 22.61758,-7.52401 31.3893,-11.11279 5.0973,-2.08546 10.04847,-4.51163 15.0727,-6.76745 18.0753,-9.68687 35.36472,-21.83055 45.6781,-40.11081 7.19338,-12.75013 7.08442,-17.07418 10.15709,-31.01566 -0.0167,-5.96976 0.71675,-11.98894 -0.05,-17.90928 -1.66913,-12.88787 -5.6867,-21.62892 -11.2122,-32.9933 -2.11102,-4.34177 -9.45848,-17.74417 -12.27838,-21.95792 -2.87806,-4.30065 -6.14554,-8.32753 -9.21831,-12.49129 -14.16408,-16.37898 -30.75111,-30.29014 -49.98214,-40.36867 -5.09724,-2.67135 -10.29854,-5.19444 -15.69738,-7.18705 -6.06066,-2.23687 -12.39547,-3.64597 -18.59321,-5.46895 -6.25754,-0.88767 -12.47096,-2.17937 -18.77262,-2.66301 -18.7253,-1.43714 -39.11614,0.44704 -57.18663,5.58726 -16.99884,4.83539 -20.90258,7.86302 -36.46305,15.95254 -5.84233,4.06775 -11.94036,7.79087 -17.52698,12.20323 -17.914,14.14866 -32.760531,31.49972 -43.662281,51.58741 -9.431166,17.37799 -10.727173,24.44591 -16.70112,43.13082 -7.750353,30.20012 -10.98778,61.30616 -7.435023,92.37846 2.257533,19.74432 4.801086,26.72982 9.781904,45.64326 2.249416,6.61461 4.190183,13.34235 6.748248,19.84384 9.859208,25.0578 24.347714,48.77706 42.632422,68.59749 4.34921,4.7145 9.16742,8.97369 13.75112,13.46054 4.70153,3.77204 9.2188,7.78598 14.10457,11.31612 18.69191,13.50553 40.62836,23.41012 63.46765,27.19696 5.9653,0.98906 12.03252,1.21258 18.04878,1.81887 6.03263,-0.18562 12.09217,0.0419 18.09788,-0.55687 18.33877,-1.82825 36.50263,-7.43851 53.23883,-15.03584 15.16561,-6.88437 19.80431,-10.43687 33.96573,-19.27541 23.21049,-14.94939 42.662,-34.64552 62.5675,-53.55525 38.44803,-36.52738 -13.20949,-90.9011 -51.65751,-54.37371 v 0 c -5.04058,4.78913 -10.0737,9.58612 -15.12172,14.36741 -11.36279,10.76238 -22.62735,21.71869 -35.8939,30.18538 -3.84004,2.47868 -7.59745,5.09034 -11.52014,7.43604 -8.09544,4.84094 -12.51821,6.86383 -21.34651,10.2069 -5.34243,2.02305 -12.06674,4.23295 -17.81415,5.13006 -2.80446,0.43775 -5.65684,0.4761 -8.48526,0.71415 -2.58307,-0.0874 -5.18208,0.0373 -7.7492,-0.26228 -15.75475,-1.83874 -29.93742,-9.52041 -42.00898,-19.46101 -2.79917,-2.58859 -5.75041,-5.02188 -8.39753,-7.76578 -11.80809,-12.23982 -22.56916,-28.85007 -28.97365,-44.5845 -1.99323,-4.89692 -3.50048,-9.97786 -5.25071,-14.9668 -3.57758,-12.78121 -5.56578,-18.20651 -7.37592,-31.42229 -2.98709,-21.80866 -0.76779,-43.64881 4.30735,-64.97398 3.16787,-10.96853 4.05306,-15.88911 8.9872,-26.0376 7.58921,-15.6094 18.67694,-27.18013 32.8721,-36.96057 6.27342,-3.64642 10.3492,-6.48028 17.22548,-8.75556 12.81978,-4.24191 26.69645,-4.93935 40.03924,-3.68749 2.56791,0.53815 5.20431,0.81651 7.70373,1.61444 2.97513,0.94982 5.83193,2.25458 8.6476,3.60574 10.66178,5.11625 19.71313,12.4483 27.85907,20.95442 5.5933,6.72584 3.87924,4.12814 8.8969,12.94207 1.53196,2.69103 2.95492,5.44268 4.44257,8.15845 0.92398,1.68676 1.63468,3.51322 2.79227,5.04908 0.2371,0.31459 1.96473,0.44034 2.35828,0.48286 0.0336,0.2696 0.86368,4.53802 0.69118,4.85888 -2.6573,4.94271 -9.49979,8.24273 -13.81485,11.18231 -3.35055,1.56443 -6.63395,3.28158 -10.05166,4.6933 -8.09569,3.34402 -20.73843,7.5043 -28.83587,10.2168 -15.46549,5.18066 -30.95188,10.40062 -46.86621,14.06454 -4.60018,0.81379 -9.16483,1.86345 -13.80055,2.44138 -14.79185,1.84408 -29.75908,1.08314 -44.61651,1.27368 -53.033011,0 -53.033011,75 0,75 z"/>
</svg>
