<?xml version="1.0" ?>
<svg xmlns="http://www.w3.org/2000/svg" viewBox="0 0 500 1000">
<path d="m 108.82074,467.4772 c 10.81664,-6.93927 20.87352,-14.93039 30.40598,-23.52708 1.08008,-0.98495 2.08807,-2.05528 3.24023,-2.95484 0.4537,-0.35424 -0.65004,0.98743 -1.1291,1.30653 -2.09129,1.39305 -4.2357,2.7358 -6.51791,3.78727 -1.48169,0.68265 -3.1472,0.86611 -4.69581,1.37918 -0.39455,0.13072 -0.90419,0.19261 -1.12018,0.54771 -0.14136,0.23239 0.22281,0.49628 0.33422,0.74442 -0.91697,1.74684 -3.52991,-2.11697 -4.59722,-0.97074 -0.55416,0.59512 -0.04,1.63393 0.0797,2.43825 0.33934,2.27896 0.93464,4.51417 1.29436,6.79001 1.95293,12.35573 1.96515,15.06116 3.25451,28.61181 2.97214,44.9748 2.51147,90.09916 2.47146,135.14883 -0.0746,34.06283 -0.22211,68.12543 -0.31195,102.18822 -0.0277,11.7064 -0.0534,23.41282 -0.0613,35.11925 -0.002,2.40914 -2.9e-4,4.81828 0.001,7.22742 1.1e-4,0.2265 2.2e-4,0.453 3.2e-4,0.67951 0.0253,53.033 75.02529,52.99723 75,-0.0358 v 0 c -1.1e-4,-0.22801 -2.2e-4,-0.45602 -3.3e-4,-0.68402 -10e-4,-2.37881 -0.003,-4.75761 -10e-4,-7.13641 0.008,-11.65741 0.0335,-23.3148 0.061,-34.97217 0.09,-34.10671 0.2378,-68.21323 0.31219,-102.31997 0.0415,-47.52456 0.52057,-95.13326 -2.83275,-142.56793 -2.47942,-24.49536 -4.28216,-52.08919 -17.85306,-73.53691 -9.06798,-14.33122 -12.37977,-14.81257 -25.60493,-24.17619 -9.99961,-4.09537 -15.46689,-7.21378 -26.63736,-7.99956 -18.04823,-1.26959 -32.19282,3.45504 -45.124451,15.87952 -6.674569,6.14525 -13.865025,11.68586 -21.505462,16.58677 -44.156623,29.37163 -2.618867,91.81852 41.537763,62.44689 z"/>
<path d="m 214.85209,572.72075 c 0.46484,0.23396 -1.02765,4.20419 -0.17794,3.43461 1.50903,-1.36671 2.21691,-3.41598 3.28289,-5.15055 2.12163,-3.45229 4.10884,-6.98719 6.2793,-10.409 6.69751,-10.55893 8.97376,-13.33418 16.57044,-23.81971 3.41354,-4.64651 6.80203,-9.31152 10.24062,-13.93953 7.6934,-10.35455 12.8585,-17.31059 21.08024,-27.18125 8.41875,-10.10718 17.4097,-19.60699 26.67581,-28.92667 2.78768,-2.62894 7.2718,-6.98913 10.44387,-9.56512 0.63295,-0.51402 2.62474,-1.91957 2.03677,-1.35466 -1.06882,1.02693 -2.22163,1.98933 -3.49204,2.75288 -4.8768,2.21521 -3.08228,1.1437 -5.62392,2.77265 0.55678,1.05708 2.25196,0.97354 2.79049,1.97862 0.50665,0.94558 -2.95648,-0.54619 -2.9834,-0.26279 -0.11564,1.21718 1.02075,2.224 1.60235,3.29947 1.25723,2.32478 2.60781,4.59784 3.91171,6.89676 9.59672,16.54264 21.62631,31.52559 34.63336,45.49077 15.2303,10.87907 17.76903,15.71425 41.44009,13.38571 15.03521,-1.47903 28.95783,-13.18385 39.45093,-22.70989 13.10023,-11.8929 19.40668,-20.40952 30.81239,-34.03523 4.81141,-7.06387 9.62282,-14.12775 14.43423,-21.19163 29.52318,-44.05544 -32.78062,-85.80752 -62.3038,-41.75208 v 0 c -3.29226,5.02867 -6.58452,10.05735 -9.87678,15.08602 -15.96017,19.51638 -5.94214,7.98222 -22.19549,25.22461 -1.52123,1.6138 -5.41479,2.89198 -4.49153,4.90843 0.9256,2.02156 4.49984,-0.64498 6.66835,-0.15412 15.65455,3.54354 13.00166,2.26883 20.67651,9.83572 -9.11019,-9.49362 -17.33046,-19.96152 -24.10043,-31.24688 -7.17513,-12.52573 -13.22732,-23.54337 -24.54707,-33.17207 -10.27072,-8.73639 -22.97448,-12.94586 -35.84257,-15.90105 -14.1407,-1.07652 -18.07735,-2.66557 -32.37563,1.93763 -13.9249,4.48299 -24.06826,15.30726 -34.35725,25.00033 -8.81441,8.92832 -11.33632,11.27428 -20.05886,21.06703 -16.34137,18.34638 -31.12497,37.95816 -45.47586,57.88054 -3.63926,5.06375 -7.37815,10.05734 -10.91776,15.19124 -6.64816,9.64258 -9.58652,14.54803 -15.28094,24.10017 -6.02359,10.10429 -7.89024,12.36266 -11.80844,23.86005 -0.80701,2.36806 -1.02594,4.89727 -1.53891,7.3459 -6.59242,52.62166 67.82585,61.94475 74.41827,9.32309 z"/>
</svg>
