<?xml version="1.0" ?>
<svg xmlns="http://www.w3.org/2000/svg" viewBox="0 0 500 1000">
<path d="m 222.72539,71.469344 c 0,8.807552 0,17.615105 0,26.422657 -0.0329,16.635509 -0.0457,33.268759 0.27035,49.901679 0.51799,21.64845 1.17147,43.29139 1.3122,64.94663 0.12214,25.13699 -0.4082,50.26957 -0.5127,75.40542 0.005,28.58264 -0.19949,57.16483 -0.30264,85.74723 -0.0775,27.81868 -0.41328,55.63575 -0.58634,83.45397 -0.14319,26.14861 -0.16675,52.29766 -0.18145,78.44659 -0.008,23.7724 -0.004,47.5448 -0.002,71.31719 0.002,21.75019 0.002,43.50037 0.003,65.25055 2.3e-4,19.19741 2.2e-4,38.39481 2.1e-4,57.59221 -1e-5,14.22341 -2e-5,28.44681 -3e-5,42.67022 -0.0916,9.14233 0.14775,18.29012 -0.0697,27.43084 -0.12656,4.64406 -0.59442,9.2701 -0.90053,13.90463 -0.0374,0.6506 -0.0748,1.3012 -0.11223,1.9518 -3.00638,52.94772 71.87301,57.19939 74.87939,4.25166 v 0 c 0.0242,-0.43491 0.0485,-0.86982 0.0727,-1.30473 0.37109,-5.74204 0.96131,-11.47301 1.0442,-17.23074 0.18503,-9.66637 0.0393,-19.33574 0.0862,-29.00342 10e-6,-14.22341 2e-5,-28.44682 3e-5,-42.67023 1e-5,-19.19781 2e-5,-38.39561 -2.1e-4,-57.59342 -3.4e-4,-21.75171 -9.3e-4,-43.50342 -0.003,-65.25513 -0.002,-23.75643 -0.006,-47.51286 0.002,-71.26929 0.0146,-26.00752 0.0379,-52.01515 0.18001,-78.02235 0.17332,-27.88348 0.51043,-55.76581 0.5873,-83.64976 0.10306,-28.57061 0.3072,-57.14102 0.30251,-85.71188 0.10156,-25.40545 0.64897,-50.80766 0.51164,-76.21433 -0.15158,-21.96761 -0.78468,-43.92336 -1.32435,-65.88391 -0.31389,-16.15275 -0.28083,-32.30611 -0.25652,-48.461429 0,-8.807552 0,-17.615105 0,-26.422657 0,-53.033009 -75,-53.033009 -75,0 z"/>
</svg>
