<?xml version="1.0" ?>
<svg xmlns="http://www.w3.org/2000/svg" viewBox="0 0 500 1000">
<path d="m 56.56632,426.6257 c -2.260662,17.62707 -5.958671,35.0498 -9.025548,52.55171 -4.646113,26.45966 -6.937041,53.30279 -6.045054,80.17111 0.542679,16.34651 1.778907,25.82286 3.424006,41.9899 3.162452,25.39437 5.954739,50.87261 10.886214,76.0049 3.147583,16.04104 4.015868,18.32948 8.125874,33.85564 6.273874,22.06124 15.205102,43.22742 26.13753,63.35712 2.647874,4.47971 5.177832,9.12997 8.551851,13.12957 1.529377,1.81294 2.975877,3.7484 4.837067,5.21869 3.50542,2.76918 6.73808,6.78978 11.16078,7.41917 11.09676,1.57916 22.40624,-0.69869 33.60936,-1.04803 5.50215,-5.52603 11.49852,-10.60052 16.50645,-16.57809 1.60924,-1.92082 2.04607,-4.57534 3.11456,-6.84195 0.39013,-0.82759 0.80718,-1.6435 1.26024,-2.43839 5.90764,-10.36482 -0.37211,1.50985 8.28508,-13.92812 2.47749,-4.41801 4.80179,-8.92019 7.20269,-13.38029 2.55195,-5.39972 5.13853,-10.78321 7.65587,-16.19916 2.60228,-5.59869 5.09649,-11.24723 7.70267,-16.84411 8.84659,-18.99834 18.1789,-37.71856 26.06506,-57.15383 2.86392,-7.05805 5.45378,-14.22424 8.18066,-21.33635 11.97987,-33.66259 24.17934,-67.25002 37.61667,-100.36197 5.22906,-12.38733 9.97012,-24.99106 12.99182,-38.11626 1.4597,-6.34039 1.73056,-8.8216 2.67776,-15.02711 0.67164,-4.27193 0.78574,-8.6079 1.34024,-12.89216 0.085,-0.65665 0.0952,-0.55884 0.187,-0.33433 11.69741,-51.72688 -61.45545,-68.26952 -73.15286,-16.54263 v 0 c -1.30276,6.22845 -2.12978,12.50043 -2.57519,18.8494 -0.57963,4.24114 -1.24077,8.44091 -2.37084,12.57988 -2.18522,8.00351 -5.51604,15.61964 -8.60116,23.29987 -13.61099,33.59057 -26.06909,67.62518 -38.17636,101.78364 -6.44445,16.94542 -7.46091,20.35625 -14.87646,36.90506 -2.45876,5.48707 -14.93536,31.62125 -17.51609,37.16299 -2.50327,5.3754 -4.91537,10.79284 -7.3948,16.17928 -1.94507,4.22559 -3.91909,8.43779 -5.87864,12.65668 -1.85961,3.50023 -3.63868,7.04445 -5.57884,10.50068 -4.87776,8.68935 -10.44694,16.93842 -14.411255,26.11959 -0.217306,0.50327 0.582907,-0.92856 0.87436,-1.39285 4.917875,-4.48667 9.835745,-8.97335 14.753615,-13.46003 10.66792,-0.076 21.45869,-1.84391 32.00377,-0.22786 3.74899,0.57454 6.35005,4.17194 9.29862,6.55753 1.04093,0.84218 1.76068,2.01888 2.59557,3.06567 0.12172,0.15261 0.39568,0.66753 0.26575,0.52185 -0.65198,-0.731 -2.25601,-3.58345 -2.38106,-3.79331 -8.16813,-14.83608 -14.73463,-30.50732 -19.50361,-46.77105 -3.39022,-12.54066 -4.13114,-14.47778 -6.741,-27.61878 -4.6327,-23.32615 -7.13591,-46.99794 -10.12413,-70.56945 -1.3458,-12.86922 -2.51027,-21.97047 -3.03096,-34.86487 -0.90245,-22.34821 1.03148,-44.66981 4.92396,-66.67586 3.58866,-20.52579 8.16582,-40.95546 10.05477,-61.72942 2.65424,-52.96655 -72.251764,-56.72022 -74.90601,-3.75367 z"/>
<path d="m 222.72539,468.07644 c -0.10126,12.65602 -0.003,25.2976 0.53447,37.9428 1.58758,23.57503 6.376,46.8285 12.85682,69.51807 1.38644,4.854 2.93733,9.65952 4.406,14.48928 1.53359,4.69773 3.06279,9.39689 4.60076,14.09319 3.88728,11.87015 4.70985,13.91001 8.08787,25.69829 5.11459,17.84842 1.78965,7.66882 7.3337,26.27863 1.42217,4.77383 2.95699,9.51338 4.43549,14.27007 7.66308,24.85104 18.81241,48.33649 30.17558,71.6489 4.82668,9.8752 9.12134,19.995 13.63122,30.01565 1.7423,3.08322 2.84655,6.60288 4.72773,9.61574 1.463,2.3431 3.01282,4.63087 4.51923,6.9463 22.40911,15.86876 17.44274,18.28443 51.76548,7.40406 4.11474,-1.30438 6.39599,-5.82037 9.27832,-9.03357 2.70977,-3.02085 6.05638,-9.45954 8.13815,-13.13966 7.58849,-14.74011 13.97268,-30.18795 18.83146,-46.04851 1.38,-4.50474 2.53662,-9.07491 3.80492,-13.61236 1.12183,-4.93873 2.31569,-9.86165 3.36547,-14.81619 2.16782,-10.23121 3.97934,-20.53539 6.11362,-30.77365 3.46559,-16.6246 7.37231,-33.14877 11.27997,-49.67323 7.00362,-29.13558 14.50678,-58.20478 19.45487,-87.78441 0.93228,-5.57319 1.6736,-11.17665 2.51041,-16.76497 2.65247,-19.77977 3.39434,-39.82493 1.42605,-59.70483 -1.02252,-10.32755 -1.75144,-12.9201 -3.67136,-22.79056 -2.513,-10.95159 -6.18304,-21.6608 -11.96279,-31.34101 -2.55837,-4.2849 -3.69827,-5.51314 -6.66193,-9.29374 -5.1169,-6.00612 -11.19815,-11.16044 -18.47379,-14.36566 -1.71919,-0.75738 -3.53094,-1.28431 -5.2964,-1.92647 -5.01162,-1.52473 -10.21002,-1.87324 -15.40839,-1.7838 -53.02404,0.9757 -51.6442,75.963 1.37983,74.98731 v 0 c 0.1179,-0.003 0.23587,-0.003 0.3537,-0.008 0.21816,-0.009 -0.43646,-0.0165 -0.65428,-0.0317 -0.48257,-0.0337 -0.96642,-0.0581 -1.4464,-0.11832 -2.86371,-0.35915 -2.67434,-0.42791 -5.82601,-1.22408 -4.6137,-1.78491 -9.54357,-3.86363 -12.6093,-7.9566 -0.8512,-1.51562 0.0206,-0.79583 0.65358,0.60721 1.28541,2.8493 1.46812,3.98584 2.42679,7.25368 1.20654,5.66233 1.73211,7.50459 2.40008,13.51023 1.59766,14.36451 1.07877,28.86441 -0.81656,43.17397 -0.69775,4.74995 -1.30989,9.51326 -2.09327,14.24984 -4.68651,28.33632 -12.01614,56.14654 -18.67323,84.0577 -4.10389,17.36675 -8.19211,34.73407 -11.83258,52.20564 -1.09119,5.23694 -2.09984,10.49074 -3.14977,15.73611 -0.86916,4.45252 -1.68953,8.91485 -2.6075,13.35757 -0.78,3.77499 -1.65735,7.52922 -2.48603,11.29383 -0.88489,3.27672 -1.68467,6.57761 -2.65466,9.83014 -3.3862,11.35448 -7.90272,22.39737 -13.07809,33.04434 -0.45912,0.8295 -0.90568,1.66608 -1.37738,2.4885 -0.40831,0.71191 -0.9923,1.33886 -1.26229,2.11387 -0.14938,0.4288 0.55253,-0.72659 0.88627,-1.03449 2.40437,-2.21823 4.15319,-5.71725 7.32021,-6.53668 34.20959,-8.85133 27.59057,-8.00327 49.51078,7.9643 7.76373,12.47552 1.49322,2.34629 0.28521,-0.86447 -4.82555,-10.71719 -9.42246,-21.53989 -14.6049,-32.09316 -9.70528,-19.90755 -19.41738,-39.88249 -25.98927,-61.10214 -1.30076,-4.16038 -2.65583,-8.30416 -3.90226,-12.48114 -4.80488,-16.10189 -2.78496,-10.48899 -7.65251,-27.36757 -3.62665,-12.57569 -4.61899,-15.19813 -8.61908,-27.39035 -1.38927,-4.2345 -2.77456,-8.4703 -4.16184,-12.70545 -6.56409,-21.34769 -12.47909,-43.04997 -14.0622,-65.42815 -0.54634,-11.52916 -0.50671,-23.06028 -0.45997,-34.60071 0,-53.03301 -75,-53.03301 -75,0 z"/>
</svg>
