<?xml version="1.0" ?>
<svg xmlns="http://www.w3.org/2000/svg" viewBox="0 0 500 1000">
<path d="m 88.594367,509.01509 c 4.704998,-8.2942 10.398227,-15.96709 15.328383,-24.12597 1.91683,-3.17215 3.70714,-6.41906 5.5607,-9.62858 1.66736,-3.19398 3.33472,-6.38797 5.00208,-9.58195 1.34498,-2.64648 2.66367,-5.30649 4.03494,-7.93945 3.20865,-6.16086 4.67576,-9.5608 10.00384,-13.78442 1.62339,-1.14933 2.59365,-2.00449 4.37117,-2.74555 0.27554,-0.11488 1.09311,-0.37822 0.87933,-0.16985 -1.51154,1.47325 -3.86156,1.91466 -5.71237,2.80099 0.53291,1.6467 2.37961,2.16916 2.97872,3.85281 0.15866,0.44587 -0.15929,0.95269 -0.0725,1.41792 0.21341,1.14358 0.66549,2.22984 0.96309,3.35445 0.55378,2.09277 1.06051,4.19771 1.59076,6.29656 0.61368,3.35294 1.34826,6.68598 1.84103,10.05881 1.5164,10.37931 2.29043,20.35603 2.91527,30.85524 1.19659,20.10631 1.44024,40.24423 1.74275,60.37772 0.84807,34.56861 -1.08546,69.27032 2.0628,103.76416 0.59819,6.55397 1.5846,13.06669 2.3769,19.60004 4.2506,24.92137 13.06698,48.98352 26.44378,70.47239 1.81569,2.91678 3.83908,5.69903 5.75862,8.54854 2.24938,2.73035 4.30484,5.63277 6.74814,8.19104 12.58902,13.18136 28.80338,21.3661 47.32467,21.28028 4.72194,-0.0219 9.37874,-1.10822 14.0681,-1.66234 4.60417,-1.69246 9.42036,-2.89292 13.81251,-5.07738 8.79736,-4.3754 16.36876,-10.76208 23.51402,-17.37089 7.14483,-6.60842 13.77668,-13.81365 19.75198,-21.49691 3.30524,-4.25 6.25188,-8.76713 9.37781,-13.1507 2.79825,-4.45092 5.68771,-8.8458 8.39475,-13.35278 5.46631,-9.10092 11.35189,-19.8799 16.23814,-29.27707 5.58497,-10.74096 11.18288,-21.97926 15.86593,-33.14077 2.59696,-6.18954 4.84359,-12.52031 7.26538,-18.78047 9.10721,-25.98824 14.55027,-53.08892 17.66022,-80.41159 1.77639,-15.60667 2.03118,-23.48547 2.94526,-39.04554 1.33755,-30.24723 1.23199,-60.53173 1.10068,-90.80053 -0.0367,-15.05222 0.0594,-30.11179 -1.37772,-45.10772 -0.17454,-1.39759 -0.31887,-2.79928 -0.52361,-4.19276 -0.21039,-1.43192 -0.45723,-2.85855 -0.72151,-4.28151 -0.19534,-1.05173 -0.43986,-2.09373 -0.65709,-3.14116 -0.81769,-3.94279 1.48313,5.92777 0.60571,6.62607 -16.32013,12.98846 -35.07647,22.57939 -52.6147,33.86909 -0.2929,-0.0953 -1.14093,-0.44752 -0.87868,-0.28597 10.71927,6.6037 22.5046,11.43461 34.59113,14.87281 4.05364,1.15312 8.18758,2.00255 12.28137,3.00382 22.05638,4.43233 44.73653,4.01916 66.76778,-0.3428 3.5599,-0.70482 7.06546,-1.66071 10.59818,-2.49107 11.07234,-3.09743 21.94405,-7.19614 31.34354,-13.95822 1.99141,-1.43264 3.79684,-3.10754 5.69525,-4.66131 39.76351,-35.09079 -9.86236,-91.32488 -49.62587,-56.23409 v 0 c 1.09946,-0.6928 2.19754,-1.46856 2.38901,-1.21745 0.18933,0.24831 -0.45813,0.43697 -0.73587,0.57966 -2.26138,1.16183 -4.34651,1.7667 -6.78042,2.61342 -13.85438,3.57332 -28.17609,5.2958 -42.38912,2.72551 -5.42356,-1.20702 -7.91888,-1.60532 -13.05484,-3.30759 -6.52465,-2.16255 -12.34935,-5.80482 -18.29346,-9.17071 -52.67307,32.09874 -56.68368,12.30392 -53.54085,41.59363 0.17805,1.65939 0.98542,3.20684 0.92068,4.90746 1.38773,12.58639 0.70658,25.29442 1.0018,37.92703 0.12518,28.71805 0.23946,57.45046 -0.97661,86.14983 -0.74177,13.09886 -0.98195,20.37962 -2.40755,33.42348 -2.35495,21.54716 -6.38851,42.97016 -13.35982,63.52906 -1.84838,4.88706 -3.54561,9.834 -5.54514,14.66119 -9.14607,22.08011 -21.1244,43.33817 -33.60665,63.68412 -1.83846,2.70222 -3.56974,5.48056 -5.51537,8.10667 -4.39346,5.93005 -6.75349,8.26344 -11.94661,13.45767 -1.38761,1.38791 -2.96117,2.59477 -4.24916,4.07559 -0.20801,0.23915 -0.41879,0.84838 -0.11651,0.94368 0.86735,0.27344 1.81707,-0.0807 2.7256,-0.12113 3.38984,0.41726 5.70153,0.77081 8.38431,3.09543 0.58121,0.50361 1.12413,1.08016 1.50636,1.74749 0.0781,0.13633 -0.16537,0.45668 -0.29485,0.3677 -0.72561,-0.49865 -1.25059,-1.23963 -1.87589,-1.85945 -9.79531,-13.61926 -16.3806,-29.3314 -19.56945,-45.79516 -0.65161,-5.04344 -1.47269,-10.06787 -1.95483,-15.13032 -3.16726,-33.25633 -0.91795,-66.75715 -1.91684,-100.08817 -0.33134,-21.67786 -0.58329,-43.36916 -1.95664,-65.01391 -0.81678,-12.87276 -2.01977,-27.64734 -4.27357,-40.39967 -1.09682,-6.20596 -2.73848,-12.30319 -4.10772,-18.45479 -5.12846,-14.14663 -6.32128,-20.55718 -15.19833,-32.86116 -9.36137,-12.97527 -22.20645,-22.86853 -37.11491,-28.62487 -4.49062,-1.73388 -9.25178,-2.6632 -13.87766,-3.9948 -12.22814,-1.03657 -14.87294,-2.23198 -26.81784,0.45546 -13.526392,3.04326 -25.032537,11.14763 -35.313274,20.05038 -7.605126,7.70791 -8.935855,8.4163 -15.19183,17.32723 -6.700576,9.5442 -11.274415,20.33505 -16.751415,30.57123 -1.275136,2.25053 -2.493055,4.53446 -3.825409,6.75159 -6.856021,11.40894 -15.14712,21.99397 -20.67711,34.17346 -21.2965127,48.56911 47.390583,78.68693 68.687095,30.11782 z"/>
</svg>
