<?xml version="1.0" ?>
<svg xmlns="http://www.w3.org/2000/svg" viewBox="0 0 500 1000">
<path d="m 89.823504,495.40823 c 0.22418,-0.25165 7.26756,-8.27894 8.83076,-9.70966 1.10116,-1.00784 2.338606,-1.85615 3.526556,-2.76006 2.64426,-2.01201 9.29824,-6.98849 11.96627,-8.67463 1.82647,-1.15429 3.78608,-2.08303 5.67912,-3.12454 9.98486,-3.91285 20.90679,-9.62901 32.03446,-7.80537 1.33509,0.2188 2.57582,0.82856 3.86372,1.24285 1.02871,0.63927 2.18636,1.10706 3.08611,1.91783 0.84533,0.76173 1.31607,1.86122 2.06164,2.72082 1.84818,2.13084 3.90684,4.07587 5.71277,6.24263 6.62296,7.94621 11.15797,14.18398 16.39069,23.317 2.84418,4.96414 5.23968,10.17223 7.85951,15.25834 2.55796,6.2913 5.23556,12.53528 7.67388,18.87391 1.98303,5.15506 15.63371,42.84417 17.24803,47.29873 6.46529,17.84028 10.5209,28.64134 16.37395,46.49735 2.27189,6.93093 4.35596,13.92203 6.53395,20.88305 5.42343,18.73387 11.79763,37.1757 20.51173,54.65782 6.26295,12.56466 13.92717,24.28358 21.56307,36.02888 3.81188,5.86469 7.65609,11.70966 11.29908,17.68176 1.29441,2.12197 2.58341,4.2178 3.61976,6.476 9.09879,19.69816 21.37847,23.38298 43.56608,24.38763 8.11954,0.36765 19.35433,-7.18668 26.07526,-11.06786 3.62424,-2.96371 7.44898,-5.69792 10.87273,-8.89114 3.61953,-3.37581 6.91164,-7.09049 10.21476,-10.77648 10.99958,-12.27457 20.95575,-25.53188 29.86134,-39.39363 3.23502,-5.03537 6.1952,-10.2421 9.2928,-15.36315 14.48785,-26.60802 28.12518,-53.69862 41.22472,-81.01704 22.90903,-47.82966 -44.73233,-80.22791 -67.64135,-32.39825 v 0 c -12.05771,25.20554 -24.70268,50.14987 -37.87287,74.79068 -2.37758,3.99222 -4.65192,8.04777 -7.13274,11.97667 -8.47056,13.4149 -18.46383,25.64875 -28.81793,37.62853 -0.82597,2.7868 0.12384,-1.21888 5.41349,-0.004 27.50505,6.31714 19.34988,2.83435 33.88406,20.47275 0.89151,1.08192 -4.30735,-7.3638 -1.81298,-3.79492 -5.59749,-11.00911 -12.45352,-21.29103 -19.19117,-31.6251 -5.68944,-8.72657 -11.57451,-17.39434 -16.37597,-26.65919 -7.49176,-14.45603 -12.43265,-29.96192 -16.98836,-45.54604 -2.37793,-7.57124 -4.65749,-15.17409 -7.1338,-22.71373 -6.0528,-18.42898 -10.20883,-29.52279 -16.83835,-47.81523 -2.56289,-7.07161 -15.87946,-43.89248 -18.49379,-50.50083 -3.34204,-8.4478 -7.07118,-16.73728 -10.60678,-25.10592 -3.84634,-7.16031 -7.35525,-14.51239 -11.53904,-21.48091 -14.62243,-24.35517 -34.37379,-48.94692 -60.64324,-61.3271 -5.49045,-2.58752 -11.53528,-3.78136 -17.30291,-5.67204 -5.79159,-0.72813 -11.54376,-1.91624 -17.37478,-2.18439 -18.71163,-0.86051 -37.53943,4.36708 -54.610416,11.60013 -4.59551,1.94714 -9.039331,4.23446 -13.558995,6.3517 -3.794419,2.2653 -7.671926,4.3969 -11.383255,6.79591 -4.016653,2.59638 -14.263769,10.30325 -17.686233,13.16573 -6.634242,5.54874 -9.744098,8.47279 -15.031462,14.58075 -0.0523,0.0604 0.133752,0.0874 0.200628,0.13118 -38.48963792,36.48352 13.105861,90.91609 51.595497,54.43257 z"/>
<path d="m 341.96796,367.61587 c -12.35525,13.22485 -23.28672,27.68338 -34.7342,41.68407 -3.48374,4.40506 -6.92877,8.84099 -10.4512,13.21517 -44.78706,55.61683 25.87014,-32.63281 -23.82477,29.01304 -14.53121,18.02575 -28.51714,36.4623 -42.42357,54.97012 -4.86448,6.51788 -9.68931,13.06554 -14.59344,19.55364 -4.98475,6.59475 -10.10214,13.08871 -15.07265,19.6942 -12.76312,16.96133 -17.34834,23.55612 -29.74978,40.67247 -23.1203,31.91044 -5.87162,7.90169 -28.46626,39.48139 -4.34728,6.54574 -8.80696,13.0182 -13.04183,19.63721 -12.4578,19.4713 -10.01631,17.17632 -22.05253,35.33425 -6.81108,10.27525 -11.613576,16.35622 -18.655461,26.38899 -3.05817,4.35706 -6.021454,8.77995 -9.032181,13.16993 -10.217532,16.19542 -5.467309,8.36468 -14.319072,23.45061 -26.769369,45.78101 37.974754,83.63862 64.744124,37.85761 v 0 c 7.10379,-12.20113 3.30363,-5.88283 11.45082,-18.92454 2.69416,-3.93858 5.34058,-7.91024 8.08248,-11.81574 9.35959,-13.33157 11.72443,-15.84211 21.04998,-29.93369 13.99834,-21.15251 7.7965,-12.96984 21.2506,-34.0979 3.7405,-5.87402 7.68026,-11.61876 11.52039,-17.42813 22.38931,-31.29818 4.93328,-6.99413 28.26085,-39.19569 11.59577,-16.00689 16.62281,-23.20944 28.5216,-39.02088 5.15106,-6.84488 10.44931,-13.57802 15.61499,-20.41188 4.85791,-6.42669 9.63683,-12.91271 14.45525,-19.36906 13.23392,-17.62557 26.53446,-35.19679 40.36996,-52.35857 4.20853,-5.22032 8.52116,-10.35587 12.78174,-15.5338 3.98987,-4.87606 8.01796,-9.72111 11.96962,-14.62818 3.2644,-4.05364 6.45184,-8.16864 9.67776,-12.25296 8.72569,-10.67643 9.40651,-11.43773 17.58546,-21.70013 1.66328,-2.08697 3.25059,-4.23508 4.95695,-6.28697 3.17337,-3.816 6.77095,-7.48212 10.01279,-11.23078 1.52119,-1.75903 2.96196,-3.58603 4.44295,-5.37904 31.50496,-42.66072 -28.82641,-87.21548 -60.33137,-44.55476 z"/>
</svg>
