<?xml version="1.0" ?>
<svg xmlns="http://www.w3.org/2000/svg" viewBox="0 0 500 1000">
<path d="m 90.540029,453.79683 c 0.334945,0.3965 -1.003964,5.4126 0.127515,4.61293 0.862889,-0.60985 1.500271,-1.48853 2.235666,-2.24728 4.247661,-4.38251 4.720798,-4.97527 9.25251,-9.91267 8.17426,-9.36401 18.03569,-16.98159 28.96393,-22.84178 0.24922,-0.003 0.49843,-0.007 0.74765,-0.0101 -1.5964,0.60699 -3.09379,1.61481 -4.78921,1.82096 -3.68331,0.44786 -7.45302,0.60643 -11.13074,0.11477 -2.65842,-0.35539 -5.12598,-1.60282 -7.60775,-2.61984 -1.09825,-0.45005 -1.91124,-1.64872 -3.09242,-1.76502 -0.5458,-0.0537 0.41654,1.01471 0.62481,1.52207 7.59743,12.17995 13.48861,25.38481 17.44837,39.1911 1.048,3.65397 1.83355,7.37815 2.75032,11.06723 6.54556,32.02615 5.85427,64.8804 5.07077,97.37949 -1.70866,44.64466 -4.14158,89.25592 -5.86018,133.90032 -1.53186,44.22109 -1.16912,88.47869 -0.70477,132.71504 0.26605,31.83429 1.6939,63.64143 2.29306,95.468 0.22943,10.45678 -0.0596,20.90755 -0.62234,31.34748 -2.80149,52.95897 72.09379,56.92087 74.89528,3.96192 v 0 c 0.63727,-12.23385 0.98053,-24.47989 0.71356,-36.73217 -0.60427,-31.61525 -1.99834,-63.21156 -2.28371,-94.83418 -0.45349,-43.01241 -0.81972,-86.04572 0.65352,-129.04376 1.72963,-45.01569 4.20671,-89.99694 5.89473,-135.01421 0.91012,-39.38923 1.27399,-79.17378 -7.41912,-117.84997 -1.42542,-5.40701 -2.6703,-10.86486 -4.27627,-16.22102 -6.3481,-21.17193 -15.82324,-41.3608 -28.10345,-59.72924 -5.93784,-7.56842 -9.48006,-13.32584 -17.83326,-18.71184 -15.05622,-9.70797 -28.23898,-10.72436 -45.02059,-5.38236 -3.09551,0.98538 -5.941834,2.62814 -8.912751,3.94221 -2.574082,1.46486 -5.196332,2.84814 -7.722246,4.39458 -14.843439,9.08759 -28.316023,20.31936 -39.961752,33.24878 -5.838556,6.3778 -12.282478,12.48054 -17.393937,19.47392 -7.073405,9.67767 -12.102901,19.63053 -13.597854,31.62819 -5.03915,52.79306 69.621508,59.9195 74.660659,7.12644 z"/>
<path d="m 215.03237,493.1667 c 0.43105,2.06754 -0.46646,4.04857 -0.47995,6.08225 -0.001,0.22256 0.23006,0.64671 0.41507,0.523 0.94374,-0.63105 1.5885,-1.62285 2.40673,-2.40985 2.47512,-2.38065 3.80935,-3.51022 6.41277,-5.81299 12.32221,-7.40109 23.8414,-16.06226 36.15462,-23.47773 7.1452,-4.30309 8.79772,-4.91643 16.06517,-8.44912 2.24042,-0.91093 4.40027,-2.05288 6.72125,-2.73279 2.08454,-0.61065 6.88142,-0.3003 8.75673,-0.12311 2.01303,0.1902 4.04107,0.35075 6.01366,0.79498 3.17977,0.71608 10.24544,3.78165 12.68149,4.77309 2.80729,1.43148 5.72427,2.66567 8.42188,4.29446 4.67694,2.82389 10.52919,7.80135 14.4054,11.47906 6.08784,5.77608 12.169,12.47911 17.45671,18.94834 3.01847,3.69293 5.81544,7.5615 8.72317,11.34226 6.21777,9.93209 8.45378,12.59678 12.98145,23.41169 5.57533,13.31741 8.87109,27.69208 10.48647,42.0072 0.5674,5.02819 0.67947,10.09736 1.01921,15.14604 -0.23023,4.64756 -0.17451,9.31815 -0.69068,13.94269 -0.98143,8.79302 -3.45504,18.52447 -5.9324,26.97887 -2.07788,7.09115 -6.18744,19.04142 -8.94305,25.91206 -1.58303,3.94702 -3.41403,7.78999 -5.12104,11.68499 -5.93352,10.86718 -12.75575,21.78528 -22.44056,29.75226 -3.79553,3.12229 -9.3809,6.47879 -13.43035,9.05734 -6.57481,3.77171 -13.09377,7.941 -20.29653,10.46876 -4.45175,1.56231 -9.15914,1.76667 -13.81262,2.0038 -11.56996,-1.54713 -23.40555,-3.45194 -34.18298,-8.14332 -2.96611,-1.29115 -5.81623,-2.8339 -8.72435,-4.25085 -3.16849,-1.74871 -6.33698,-3.49742 -9.50547,-5.24613 -46.60208,-25.31297 -82.40002,40.59232 -35.79795,65.90529 v 0 c 4.5614,2.44995 9.12279,4.8999 13.68419,7.34985 5.15463,2.33164 10.20707,4.90388 15.46391,6.99494 9.27448,3.6892 16.74182,5.70627 26.32519,7.79564 7.8516,1.71181 18.01158,3.53703 25.98139,4.09791 4.48074,0.31533 8.9827,0.13013 13.47406,0.19519 10.85515,-1.14281 14.28189,-1.08054 25.01559,-3.98213 15.61965,-4.22238 29.84446,-12.04842 43.5265,-20.48647 10.53492,-7.03781 15.48877,-9.82064 25.10389,-18.5191 16.3935,-14.83062 28.63786,-33.59802 38.4593,-53.23375 2.24784,-5.25393 4.64398,-10.44686 6.74352,-15.76179 9.48874,-24.02044 17.22012,-50.29565 19.36855,-76.08759 0.61485,-7.38122 0.33891,-14.8097 0.50836,-22.21455 -1.63343,-19.3607 -1.41682,-24.63607 -5.69594,-43.70849 -6.23703,-27.79896 -17.63858,-53.97246 -34.34362,-77.08678 -3.88702,-4.96422 -7.62146,-10.05179 -11.66107,-14.89266 -15.76865,-18.8964 -33.71187,-36.29409 -55.37501,-48.32104 -4.90916,-2.72547 -10.15364,-4.79745 -15.23047,-7.19618 -13.77982,-4.841 -18.37387,-7.23798 -33.03524,-9.20072 -20.84352,-2.79036 -41.4822,0.5708 -60.38219,9.63866 -3.83762,1.92337 -7.73221,3.73706 -11.51286,5.77012 -11.29336,6.07304 -21.86336,13.22938 -32.53751,20.30026 -3.86148,2.55796 -7.7821,5.02817 -11.59419,7.65919 -4.50469,3.10904 -8.90119,6.37199 -13.35179,9.55799 -14.33646,12.95103 -26.28152,24.87745 -31.97526,44.15647 -0.97409,3.29827 -1.10522,6.78882 -1.65784,10.18324 -2.21272,52.98683 72.72197,56.11608 74.93469,3.12925 z"/>
</svg>
