<?xml version="1.0" ?>
<svg xmlns="http://www.w3.org/2000/svg" viewBox="0 0 1000 1000">
<path d="m 210.02583,294.91898 c 2.51313,-0.48148 5.03993,-0.89641 7.53939,-1.44444 12.69428,-2.78331 25.1976,-6.42304 37.86211,-9.3384 19.2416,-4.42939 23.59672,-5.03524 44.07623,-8.93395 9.64709,-1.67436 19.28804,-3.38446 28.94126,-5.02309 22.95804,-3.89712 45.93877,-7.65944 68.91251,-11.46285 27.15433,-4.49552 49.79578,-8.33063 77.07432,-12.27557 13.18914,-1.90737 26.41115,-3.58019 39.61673,-5.37029 60.50604,-7.3975 121.33786,-12.12671 182.24921,-14.42827 9.35282,-0.3534 18.71112,-0.54264 28.06668,-0.81396 26.50738,-0.36485 53.09123,-0.40832 79.46719,2.52597 52.72571,5.70082 60.78789,-68.86459 8.06218,-74.56541 v 0 c -3.67424,-0.38866 -7.34132,-0.85232 -11.02272,-1.16598 -26.1598,-2.22884 -52.46795,-2.04601 -78.69427,-1.76267 -9.76512,0.28664 -19.53309,0.48869 -29.29537,0.8599 -63.14197,2.401 -126.20018,7.3299 -188.91851,15.03164 -13.64574,1.85383 -27.3082,3.58847 -40.93723,5.56147 -27.62147,3.99862 -50.50147,7.8714 -77.97068,12.41906 -0.39371,0.0652 -67.43142,11.21107 -69.44846,11.55396 -10.06259,1.71059 -20.112,3.49784 -30.168,5.24676 -8.78292,1.68134 -17.58665,3.25741 -26.34876,5.04404 -19.59811,3.99612 -38.984,8.93328 -58.34602,13.91869 -52.62528,6.56351 -43.34307,80.9869 9.28221,74.42339 z"/>
<path d="m 475.13869,410.34466 c 11.64813,3.98347 23.98662,5.31263 36.14582,6.75649 10.3828,1.23293 20.31206,2.25942 30.72867,3.37201 17.40282,1.92548 34.83553,3.70472 52.15358,6.319 9.57613,1.44559 19.80587,3.17784 29.20528,5.67187 3.77056,1.00048 7.4408,2.34666 11.1612,3.51999 6.0766,2.71493 13.68909,5.15064 17.17785,11.45659 0.62726,1.13377 0.86475,2.44706 1.17813,3.70431 1.53328,6.15153 1.37474,7.80867 2.06254,14.84775 -0.0464,4.54925 0.11529,9.1054 -0.13929,13.64777 -2.32112,41.41347 -14.74038,81.25647 -26.80934,120.64242 -12.43724,38.14563 -26.2386,75.8569 -41.48323,112.97165 -8.29132,20.18615 -11.39841,26.85854 -20.04541,46.37659 -7.48609,16.56873 -15.52555,32.8814 -24.07554,48.92573 -4.28892,8.0483 -8.52659,16.14103 -13.75815,23.61876 2.28786,-5.10226 2.08941,-5.61377 10.85544,-9.3075 3.82286,-1.61084 8.155,-1.53534 12.25497,-2.16723 1.10409,-0.17017 3.55382,0.8603 3.34301,-0.23676 -0.36287,-1.88843 -2.8152,-2.62251 -4.15711,-3.99987 -2.52885,-2.59566 -4.96796,-5.27726 -7.45194,-7.91589 -13.92482,-17.10525 -6.61878,-7.83991 -21.78757,-27.89846 -32.06164,-42.24395 -91.8036,3.09806 -59.74196,45.34201 v 0 c 18.49576,24.29408 9.09979,12.56631 28.1351,35.22556 9.13244,9.02132 17.1949,18.19334 28.44962,24.73569 14.1025,8.19777 26.22952,12.37747 43.12138,8.56473 15.70939,-3.54585 19.83971,-10.361 29.24251,-20.53006 1.94983,-2.96281 3.9977,-5.86337 5.84948,-8.88844 2.78781,-4.55416 9.9735,-17.77608 12.13211,-21.83672 9.28797,-17.47198 18.0283,-35.2314 26.16767,-53.26844 9.13505,-20.64505 12.34981,-27.54936 21.11167,-48.90923 16.01994,-39.05379 30.52461,-78.73373 43.5626,-118.88011 3.16983,-10.39574 6.51663,-20.73916 9.50949,-31.18722 8.16668,-28.50987 15.34629,-57.4908 18.68115,-87.01808 0.97268,-8.61224 1.71912,-17.26756 1.87753,-25.93311 0.15178,-8.30328 -0.63224,-16.5973 -0.94837,-24.89595 -3.87505,-19.02279 -3.79258,-26.51542 -13.49537,-43.53914 -10.11172,-17.74118 -24.94313,-29.98007 -43.02005,-38.87455 -5.15323,-2.53558 -10.6325,-4.34625 -15.94875,-6.51937 -5.61957,-1.67113 -11.18018,-3.55511 -16.85871,-5.01338 -29.28769,-7.52122 -59.63792,-9.6863 -89.54931,-13.32707 -13.15608,-1.40405 -26.33933,-2.70102 -39.45755,-4.43866 -2.08803,-0.27658 -4.16877,-0.60656 -6.2487,-0.93863 -0.92645,-0.14792 -1.83489,-0.42006 -2.76956,-0.5012 -0.19735,-0.0171 0.34001,0.20337 0.51002,0.30505 -49.5124,-19.00059 -76.3833,51.02051 -26.87091,70.0211 z"/>
<path d="m 468.95405,254.37316 c -0.0411,0.72208 -0.0379,1.44806 -0.12319,2.16626 -0.75228,6.33191 -2.57161,12.65598 -4.44244,18.71174 -3.22692,10.44531 -6.41814,19.12789 -10.09441,29.57005 -14.09723,39.10438 -31.8517,76.7715 -51.20447,113.52344 -5.00921,9.51275 -10.23225,18.91137 -15.34837,28.36705 -24.4528,43.65209 -50.34097,86.50255 -78.00873,128.19566 -16.77719,25.28189 -30.8642,45.25884 -48.21514,70.22459 -22.03305,31.02162 -29.29739,41.67101 -52.04318,72.02831 -8.38988,11.19742 -16.99318,22.23333 -25.48977,33.35 -32.19788,42.1402 27.39737,87.67488 59.59524,45.53467 v 0 c 8.7758,-11.48922 17.66109,-22.89562 26.32738,-34.46767 23.25208,-31.04837 30.72323,-41.9946 53.19988,-73.64662 17.99309,-25.8962 32.14635,-45.96133 49.55089,-72.21388 28.75019,-43.36606 55.66282,-87.92783 81.05842,-133.33573 5.38909,-9.97505 10.89128,-19.88982 16.16727,-29.92515 20.8912,-39.73658 39.96721,-80.49845 55.17013,-122.77333 8.54572,-24.36721 18.23682,-49.16675 18.90049,-75.30939 0,-53.03301 -75,-53.03301 -75,0 z"/>
</svg>
