<?xml version="1.0" ?>
<svg xmlns="http://www.w3.org/2000/svg" viewBox="0 0 1000 1000">
<path d="m 477.49053,251.74819 c 25.86175,-7.21446 52.40959,-11.97518 78.9718,-15.76635 8.61306,-1.22933 17.25901,-2.21593 25.88852,-3.3239 32.36446,-3.63274 64.96281,-5.25134 97.52549,-4.47079 12.68737,0.30412 19.22447,0.83483 31.43875,1.62427 52.92512,3.38107 57.70668,-71.46635 4.78156,-74.84742 v 0 c -13.97935,-0.88378 -21.01444,-1.45375 -35.59108,-1.77422 -35.98054,-0.79103 -71.9961,1.01606 -107.75119,5.08464 -9.35092,1.21175 -18.71976,2.29236 -28.05275,3.63525 -30.40045,4.37423 -60.78027,9.92261 -90.30214,18.48164 -50.45693,16.32783 -27.36589,87.68471 23.09104,71.35688 z"/>
<path d="m 413.77661,101.84668 c -2.22905,26.00351 -6.88343,51.75883 -11.24704,77.47109 -8.28926,45.76671 -16.08742,91.61534 -23.26892,137.56845 -3.62906,23.93691 -7.84065,47.78267 -11.31909,71.74242 -2.64844,18.53809 -3.20651,32.7449 15.2327,47.47476 6.58665,5.26163 16.18945,4.70919 24.28417,7.06379 3.69614,-0.46243 7.41751,-0.75498 11.0884,-1.38729 3.01566,-0.51944 5.97214,-1.33933 8.94529,-2.06348 1.43158,-0.34868 23.03987,-5.88268 23.07511,-5.89143 15.54261,-3.86062 15.23767,-3.6779 31.52086,-7.28025 24.46794,-4.99364 49.14819,-9.22129 74.07481,-11.0826 15.2981,-1.14234 18.58344,-0.91392 33.6161,-1.00431 15.53472,0.31791 31.08299,1.85759 46.16391,5.70739 5.9109,1.50892 8.21249,2.41332 13.80474,4.33099 3.00597,1.2993 4.88918,1.96894 7.59838,3.60571 0.55111,0.33295 1.08028,0.7132 1.54684,1.15694 0.13227,0.12581 0.38494,0.53209 0.20395,0.50825 -0.69844,-0.092 -2.08949,-1.30247 -2.54372,-1.65626 -0.30349,-0.22747 -0.60138,-0.9022 -0.91046,-0.6824 -0.3889,0.27655 -0.15953,0.94877 -0.1342,1.4253 0.0962,1.81059 0.36525,3.60831 0.49789,5.4166 0.88192,12.02302 0.83228,23.96236 0.71129,36.01214 -0.87537,40.81882 -7.98767,81.09743 -15.25244,121.16008 -1.58255,8.0418 -3.06646,16.10365 -4.74766,24.12541 -3.55347,16.95522 -6.85672,31.05935 -11.40897,47.76555 -6.27784,23.03888 -13.8113,45.65822 -21.42731,68.27796 -10.75684,31.14608 -23.0216,61.80155 -37.57463,91.37985 -2.29175,4.65786 -4.72466,9.24492 -7.08699,13.86738 -5.71155,10.68784 -11.68985,21.26299 -18.58505,31.24202 -3.28195,4.74977 -6.68008,9.34187 -11.01456,13.16336 2.42842,-3.44917 1.20276,-2.23205 7.01191,-5.40547 1.12144,-0.61262 3.38475,-0.24015 3.52347,-1.51045 0.13416,-1.22856 -2.05287,-1.3847 -3.14393,-1.96518 -3.31764,-1.76509 -6.79405,-3.22743 -10.07159,-5.0659 -4.70303,-2.63807 -9.23542,-5.56947 -13.85312,-8.3542 -25.45427,-16.6962 -12.04703,-7.9577 -40.23826,-26.1901 -44.53185,-28.79956 -85.26058,34.17797 -40.72874,62.97754 v 0 c 28.86591,18.66748 14.5733,9.39283 42.87934,27.82162 14.00181,8.12288 23.68428,14.63187 38.8424,20.14233 6.24369,2.26978 12.63127,4.39777 19.21359,5.29704 14.82519,2.02539 24.6326,0.34418 37.95576,-6.23012 4.21372,-2.07926 7.61364,-5.50887 11.42047,-8.26331 2.44645,-2.51204 5.00692,-4.91788 7.33936,-7.53613 14.85857,-16.67923 25.54513,-36.63781 36.26691,-56.05898 2.67905,-5.2664 5.43568,-10.49403 8.03714,-15.79918 15.81529,-32.252 29.18342,-65.65516 40.89241,-99.59987 6.46608,-19.2391 9.7662,-28.56809 15.66492,-48.14031 10.15517,-33.69531 18.38813,-67.93515 24.63207,-102.5724 8.01046,-44.26457 15.65196,-88.78858 16.45077,-133.88927 0.11113,-15.36126 0.3258,-30.73171 -1.29819,-46.03742 -0.91862,-8.65777 -2.17397,-16.97573 -5.10513,-25.22709 -1.37567,-3.87258 -3.40722,-7.47986 -5.11084,-11.2198 -2.17815,-3.13735 -4.10414,-6.46573 -6.53446,-9.41206 -10.37297,-12.57538 -25.12667,-20.01495 -40.08677,-25.64207 -8.94181,-2.95216 -12.10231,-4.18042 -21.56402,-6.47567 -20.57821,-4.99193 -41.7186,-7.14938 -62.86824,-7.44716 -18.10731,0.18857 -21.97367,-0.0677 -40.30365,1.35965 -27.92079,2.17419 -55.57922,6.85869 -82.98654,12.50197 -15.58085,3.46001 -31.06405,7.12318 -46.5253,11.07868 -3.04944,0.78015 -6.09719,1.56693 -9.14837,2.34024 -1.63488,0.41435 -3.42236,0.42762 -4.90974,1.22273 -0.66174,0.35374 1.49455,0.13564 2.24183,0.20345 6.48879,2.35338 14.38006,2.39407 19.46639,7.06013 6.8127,6.24979 10.3156,15.43513 14.20009,23.82462 1.0089,2.17897 0.11949,4.80096 0.16567,7.20172 0.002,0.0783 -0.0393,-0.15492 -0.0316,-0.23288 0.15997,-1.62157 0.67578,-5.33248 0.84979,-6.6329 3.42785,-23.68782 7.62793,-47.25617 11.19567,-70.92287 7.12946,-45.63275 14.88519,-91.15923 23.11233,-136.60729 4.92275,-29.04811 10.22294,-58.16409 12.26365,-87.58756 1.71367,-53.005312 -73.24717,-55.428807 -74.96084,-2.4235 z"/>
<path d="m 243.85511,664.21862 c 29.47961,-7.56386 59.69929,-11.99386 89.6947,-16.98777 38.13021,-6.19326 76.45047,-11.40674 114.99086,-14.23414 21.83665,-1.60198 28.53425,-1.61435 49.85909,-2.30682 25.20591,0.22634 13.21274,-0.50804 35.99806,1.87555 52.79209,5.04932 59.9329,-69.60997 7.14082,-74.65929 v 0 c -30.38519,-2.71239 -15.18047,-1.99025 -45.61372,-2.17541 -23.15419,0.77607 -30.23494,0.79072 -53.93916,2.55296 -40.46983,3.00865 -80.71445,8.45496 -120.75636,14.96603 -32.59239,5.42921 -65.41447,10.29527 -97.40574,18.69344 -51.10646,14.16437 -31.07501,86.43983 20.03145,72.27545 z"/>
</svg>
