<?xml version="1.0" ?>
<svg xmlns="http://www.w3.org/2000/svg" viewBox="0 0 1000 1000">
<path d="m 293.44793,273.71845 c 0.71214,30.42786 1.63594,60.85125 2.43983,91.27724 2.04901,82.01725 1.92704,164.06328 1.06857,246.09458 -0.54048,57.2359 -1.94791,114.45404 -3.78108,171.661 -1.69724,53.00585 73.26434,55.40611 74.96159,2.40027 v 0 c 1.84761,-57.74581 3.27055,-115.50278 3.8154,-173.27773 0.86526,-82.95282 0.98539,-165.92054 -1.09064,-248.85905 -0.78647,-29.766 -1.66009,-59.52976 -2.41367,-89.29631 0,-53.03301 -75,-53.03301 -75,0 z"/>
<path d="m 459.31189,240.83829 c 24.67902,-0.4178 49.26314,-3.32583 73.79246,-5.88138 30.9189,-3.72068 61.95646,-6.04546 93.09145,-6.54505 8.58418,0.0171 17.28534,-0.0869 25.81685,0.44262 -6.80704,-0.67584 -12.90676,-3.28326 -18.29868,-7.8903 -3.3409,-2.85458 -5.80515,-6.63092 -8.25104,-10.28166 -2.24006,-3.34352 -2.39442,-7.77161 -2.18132,-4.30998 1.78772,22.99095 2.14208,46.06759 2.75192,69.1116 1.27947,53.55067 3.18761,107.08001 5.36999,160.60051 1.89875,44.52101 2.86615,89.0861 2.16956,133.64669 -0.38747,24.78591 -1.13227,43.04236 -1.98493,67.81418 -2.07843,60.89993 -5.96231,121.71887 -8.25035,182.60796 -1.98583,52.99581 72.96157,55.80421 74.9474,2.80839 v 0 c 2.27786,-60.96704 6.20122,-121.86237 8.25872,-182.84082 0.88392,-25.7685 1.63228,-44.04799 2.02733,-69.86665 0.70008,-45.75396 -0.283,-91.51254 -2.23003,-137.22592 -2.1685,-53.1635 -4.06399,-106.33576 -5.33397,-159.52929 -0.69994,-26.42664 -0.90394,-52.94867 -3.71291,-79.25578 -1.00346,-5.56235 -1.79978,-11.82322 -4.60843,-16.81854 -2.61254,-4.64652 -5.60243,-9.23486 -9.52105,-12.84872 -7.08322,-6.53234 -15.29219,-9.21445 -24.37043,-10.41442 -11.25711,-0.88451 -22.5712,-0.71665 -33.85342,-0.73937 -33.31144,0.57752 -66.53044,2.95117 -99.61323,6.93881 -21.94647,2.28941 -43.94407,4.92905 -66.01589,5.47712 -53.03301,0 -53.03301,75 0,75 z"/>
<path d="m 349.62002,455.36041 c 1.95335,0.004 3.90721,0.0558 5.86007,0.0116 9.13069,-0.20623 18.2723,-1.08429 27.36723,-1.83324 10.01914,-0.82507 20.03532,-1.68571 30.05378,-2.51894 24.05055,-1.73676 48.12964,-3.57958 72.24639,-4.10404 14.06475,-0.30586 17.10122,-0.0599 30.80916,0.32035 4.23697,0.22463 8.47393,0.44926 12.7109,0.6739 52.96132,2.75644 56.85952,-72.14219 3.89819,-74.89863 v 0 c -4.87746,-0.24974 -9.75491,-0.49948 -14.63237,-0.74922 -16.14035,-0.40653 -19.08225,-0.66649 -35.56076,-0.29505 -25.26541,0.56951 -50.49181,2.47975 -75.68795,4.31076 -17.54151,1.459 -35.12674,3.068 -52.67034,4.21131 -52.94191,-3.10724 -57.33621,71.76392 -4.3943,74.87115 z"/>
<path d="m 342.99797,649.55462 c 12.88706,-0.97252 25.76822,-2.02056 38.65804,-2.95679 27.20876,-2.02762 54.48006,-2.74131 81.75632,-2.62466 19.25116,0.30405 38.56834,0.21478 57.72497,2.37348 1.32555,0.17874 2.6511,0.35748 3.97665,0.53622 52.57445,6.95893 62.41588,-67.39257 9.84142,-74.35151 v 0 c -1.89211,-0.24716 -3.78422,-0.49432 -5.67633,-0.74148 -21.77731,-2.32575 -43.68694,-2.63718 -65.57255,-2.81613 -29.1898,-0.10497 -58.37504,0.64588 -87.49235,2.82176 -12.63172,0.92036 -25.2563,1.9322 -37.88407,2.90451 -52.9302,3.30071 -48.26229,78.15531 4.6679,74.8546 z"/>
<path d="m 205.16467,884.47351 c 15.98062,-4.72912 32.20379,-8.62307 48.60254,-11.60589 5.79324,-1.05376 11.61747,-1.92945 17.4262,-2.89418 48.60946,-7.5432 97.83996,-9.22 146.92567,-10.78187 54.6357,-1.92574 109.26556,0.67646 163.8309,3.23137 45.29751,1.88861 90.49961,5.42662 135.5291,10.65936 24.79261,3.21184 49.50853,7.00793 74.06019,11.72176 52.08718,9.97127 66.18868,-63.69112 14.1015,-73.66239 v 0 c -26.36761,-5.03446 -52.89885,-9.15656 -79.52697,-12.56065 -46.73649,-5.40335 -93.6444,-9.12555 -140.65743,-11.07608 -56.53054,-2.64469 -113.12801,-5.2798 -169.73038,-3.27518 -52.42891,1.67906 -105.00258,3.59318 -156.90537,11.7713 -6.61761,1.11373 -13.2528,2.12757 -19.85281,3.3412 -19.13862,3.51926 -38.07241,8.11739 -56.70739,13.71419 -50.49948,16.19575 -27.59524,87.6128 22.90425,71.41706 z"/>
</svg>
