<?xml version="1.0" ?>
<svg xmlns="http://www.w3.org/2000/svg" viewBox="0 0 1000 1000">
<path d="m 595.55659,133.34531 c -27.1638,19.73964 -55.65944,37.59945 -84.04713,55.50785 -35.88128,21.62773 -71.96604,42.995 -109.11268,62.39923 -21.70098,11.3359 -28.23503,14.19557 -50.14164,24.6117 -47.88531,22.79248 -15.65188,90.51253 32.23343,67.72005 v 0 c 23.49544,-11.19443 30.18519,-14.1178 53.46253,-26.29471 38.66362,-20.22583 76.24425,-42.45479 113.58174,-65.00813 30.06482,-18.97544 60.2338,-37.91204 88.95932,-58.88772 42.46054,-31.77424 -2.47503,-91.82252 -44.93557,-60.04827 z"/>
<path d="m 290.24582,312.83996 c 1.85642,17.92804 3.02609,35.92189 4.27885,53.89977 3.64825,58.17152 3.91318,116.47852 3.79202,174.74122 -0.59196,69.55414 -2.16301,139.10042 -5.09806,208.59528 -1.80053,34.87165 -0.86143,17.82722 -2.80192,51.13414 -3.08272,52.94334 71.79046,57.30297 74.87318,4.35964 v 0 c 1.98079,-34.03774 1.02112,-16.59369 2.86211,-52.3331 2.96984,-70.49741 4.57646,-141.04629 5.16454,-211.6038 0.11885,-60.05407 -0.17921,-120.1534 -3.97361,-180.11153 -1.32366,-18.96272 -1.16801,-17.45703 -2.55655,-34.89983 -0.73351,-9.21429 -1.34,-18.49195 -2.87975,-27.61927 -0.24868,-1.47412 -0.60657,-2.92771 -0.90986,-4.39157 -12.88988,-51.4427 -85.64084,-33.21364 -72.75095,18.22905 z"/>
<path d="m 391.51179,556.28256 c 21.61518,-7.13639 43.9278,-11.9213 66.40713,-15.38194 8.85815,-1.36369 17.76146,-2.41589 26.64219,-3.62384 60.9347,-7.44212 122.22086,-7.30492 183.47224,-5.94004 22.59259,0.58914 45.16055,1.76408 67.72169,3.04816 52.94766,3.00745 57.20084,-71.87186 4.25318,-74.87931 v 0 c -23.42555,-1.328 -46.85802,-2.54645 -70.31617,-3.15051 -25.1981,-0.5535 -36.51194,-0.9604 -62.02819,-0.85495 -44.52033,0.18398 -89.06164,2.19184 -133.2899,7.47173 -9.84401,1.3592 -19.71444,2.53914 -29.53203,4.07761 -27.10263,4.24713 -54.01338,10.19175 -79.97732,19.12654 -49.57281,18.84241 -22.92563,88.94895 26.64718,70.10655 z"/>
<path d="m 542.63997,534.19767 c 2.13044,21.43462 1.99285,43.02559 2.10691,64.54099 -0.0274,7.27489 -0.0309,14.54991 -0.0822,21.82468 -0.0729,10.34129 -0.40092,40.25521 -0.61447,50.14397 -0.41948,19.42536 -0.76746,35.53621 -2.75949,54.91673 -0.97478,9.48357 -2.52594,18.89902 -3.78891,28.34853 -6.94294,37.37454 -3.1339,18.81922 -11.41363,55.66872 -11.57621,51.75415 61.6152,68.12538 73.19141,16.37124 v 0 c 9.11292,-40.90964 4.90068,-20.15247 12.58473,-62.28204 1.41412,-10.95181 3.1434,-21.86752 4.24235,-32.85543 2.08176,-20.8147 2.48827,-38.30815 2.93584,-59.09288 0.21727,-10.08989 0.54883,-40.43898 0.62166,-50.94186 0.052,-7.50376 0.0544,-15.00778 0.0816,-22.51168 -0.13365,-23.75872 -0.0644,-47.59087 -2.44513,-71.25739 -5.03914,-52.79306 -79.6998,-45.66664 -74.66066,7.12642 z"/>
<path d="m 143.21088,901.60657 c 23.9783,-2.31428 47.85094,-5.56517 71.73085,-8.70576 39.10962,-5.19094 78.29249,-9.85779 117.61496,-13.11883 32.21724,-2.6718 41.32766,-3.01628 74.03883,-4.96129 55.04303,-2.86364 110.169,-4.07859 165.28415,-3.50963 33.19323,0.34266 48.00088,0.95953 80.96043,1.96803 44.66298,1.71009 89.30063,4.39665 133.76727,8.97292 15.59415,1.60486 34.64741,3.92633 50.29181,5.78427 52.66318,6.25216 61.50506,-68.22483 8.84188,-74.47698 v 0 c -16.54525,-1.96358 -35.54604,-4.28098 -52.04553,-5.9716 -46.06361,-4.71989 -92.30124,-7.5159 -138.56705,-9.27369 -33.87984,-1.03181 -48.91244,-1.6583 -83.067,-2.00273 -56.66344,-0.57143 -113.33784,0.68646 -169.92643,3.64217 -33.68173,2.01057 -43.21863,2.37609 -76.42157,5.14138 -40.3029,3.35661 -80.46566,8.12477 -120.55166,13.44636 -22.88076,3.00945 -45.75296,6.13452 -68.72599,8.37202 -52.816187,4.79068 -46.041133,79.48405 6.77505,74.69336 z"/>
</svg>
