<?xml version="1.0" ?>
<svg xmlns="http://www.w3.org/2000/svg" viewBox="0 0 1000 1000">
<path d="m 162.17246,368.90184 c 0.60934,2.82888 1.11643,5.68174 1.82801,8.48665 4.0035,15.78109 9.45741,31.24248 14.59072,46.67419 4.36364,13.11797 11.38724,33.92741 15.71434,46.77455 14.00664,41.32967 28.25486,82.5801 41.58821,124.13376 16.2072,50.49581 87.61906,27.57536 71.41185,-22.92045 v 0 c -13.44939,-41.89208 -27.79225,-83.48784 -41.92342,-125.15307 -9.95928,-29.5687 -20.34072,-59.03661 -29.02303,-89.01097 -7.78903,-52.4579 -81.9757,-41.44256 -74.18668,11.01534 z"/>
<path d="m 262.11511,417.39806 c -0.46364,0.41062 -1.96307,0.99478 -1.39092,1.23188 0.81668,0.33843 1.69975,-0.48752 2.54244,-0.7547 10.61432,-3.36522 8.62839,-3.01122 21.30129,-6.31948 12.90397,-3.36857 29.05446,-7.05488 41.73831,-10.03136 55.65018,-13.01556 112.16923,-22.02306 169.03995,-27.57949 12.47601,-1.21895 24.98206,-2.108 37.47309,-3.162 51.75943,-3.4603 103.75453,-5.06898 155.58721,-2.19656 7.06274,0.3914 14.11103,1.01028 21.16655,1.51543 12.98366,1.50437 26.28316,2.69149 38.72257,7.0395 1.79562,0.62763 3.55523,1.4053 5.17925,2.39562 0.49408,0.30129 1.6005,1.51674 1.03502,1.3938 -1.51866,-0.33015 -2.78303,-1.38421 -4.17455,-2.07632 -0.67484,4.98298 -3.45335,-6.05437 -5.11651,-4.5057 -1.04164,0.96994 -1.02695,2.6554 -1.49999,3.9978 -1.15902,3.28908 -2.14947,6.6385 -3.39578,9.89551 -5.70742,14.91544 -6.98436,16.70966 -14.27331,31.90066 -3.44393,6.31297 -6.73802,12.71002 -10.33179,18.93891 -7.27601,12.61113 -17.09351,28.06998 -25.32845,40.01876 -8.40726,12.1988 -19.25407,26.85174 -28.895,38.13849 -4.93193,5.77387 -10.27009,11.18802 -15.40514,16.78202 -35.71411,39.20462 19.7296,89.71201 55.44371,50.50739 v 0 c 6.23642,-6.88884 12.70275,-13.57633 18.70926,-20.66653 10.96591,-12.9444 23.23789,-29.59677 32.82937,-43.57955 9.38689,-13.68453 20.33819,-31.02767 28.57524,-45.44629 4.22969,-7.40391 8.09855,-15.00819 12.14782,-22.51228 7.64525,-16.22501 12.48715,-25.27366 18.23474,-42.10011 2.22283,-6.50747 4.3389,-13.08503 5.71429,-19.82271 2.71138,-13.28234 3.71201,-26.75683 -0.207,-40.01131 -1.96189,-6.63531 -5.9482,-12.49498 -8.9223,-18.74247 -4.60379,-4.65778 -8.70168,-9.8769 -13.81139,-13.97333 -6.90007,-5.53175 -18.60962,-10.27144 -26.92876,-12.93176 -17.15582,-5.48615 -35.17264,-7.62175 -53.00323,-9.45274 -22.50089,-1.57763 -26.91965,-2.11767 -50.34419,-2.73472 -46.03384,-1.21263 -92.11279,0.29018 -138.03955,3.49626 -13.1456,1.11814 -26.30717,2.06218 -39.43681,3.35442 -59.84718,5.89026 -119.32149,15.41401 -177.88882,29.10515 -13.72578,3.22485 -31.14035,7.19425 -44.99623,10.8739 -13.35055,3.54546 -27.30335,7.2739 -39.6911,13.58794 -2.73355,1.39329 -5.23584,3.20002 -7.85377,4.80003 -42.1619,32.16945 3.33257,91.79539 45.49448,59.62594 z"/>
<path d="m 297.65292,636.48179 c 1.70178,-0.40484 3.41207,-0.77547 5.10534,-1.21454 7.57892,-1.96521 15.0287,-4.28457 22.67954,-5.99588 12.59615,-2.81745 17.11922,-3.40786 30.54218,-5.72863 45.10027,-6.70311 90.59468,-10.76985 136.10722,-13.38279 10.74714,-0.61701 21.50516,-1.02702 32.25774,-1.54053 39.26296,-1.38925 78.56775,-2.10377 117.8533,-1.35516 15.67938,0.29878 25.32652,0.74347 40.61993,1.34119 17.83001,0.84485 9.5314,0.41898 24.89712,1.2524 52.95541,2.86784 57.01116,-72.02241 4.05575,-74.89026 v 0 c -16.08625,-0.8699 -7.40889,-0.42612 -26.0334,-1.3053 -16.25628,-0.6313 -25.97887,-1.08092 -42.7037,-1.39338 -40.76248,-0.76153 -81.54458,-0.0259 -122.28287,1.43667 -11.23389,0.54125 -22.47345,0.9756 -33.70168,1.62376 -48.13556,2.77865 -96.25005,7.12511 -143.93458,14.32506 -19.91268,3.48841 -39.95399,6.93458 -59.25354,13.10636 -52.12864,9.75217 -38.33699,83.4732 13.79165,73.72103 z"/>
<path d="m 468.09044,130.81834 c 0.18332,11.90694 0.71559,23.81046 1.15331,35.71125 0.78028,28.34411 1.50784,56.69031 2.21188,85.0366 1.12753,36.92151 1.21625,73.862 1.46541,110.79671 0.34812,43.70529 -0.75581,87.40204 -2.04476,131.08396 -1.67546,47.54633 -3.0417,95.09888 -4.02276,142.66434 -0.94802,49.66358 -1.46279,99.33357 -1.9729,149.00311 -0.60513,42.21445 0.27609,84.42094 1.19603,126.6224 1.15594,53.02041 76.13812,51.38567 74.98219,-1.63474 v 0 c -0.90271,-41.39996 -1.77956,-82.80469 -1.18218,-124.2175 0.50737,-49.41082 1.01887,-98.8221 1.96092,-148.227 0.97609,-47.34405 2.33921,-94.67509 4.00612,-142.00012 1.31375,-44.58719 2.43246,-89.1895 2.07563,-133.80044 -0.25226,-37.38701 -0.34741,-74.77979 -1.48684,-112.15348 -0.71186,-28.64439 -1.44374,-57.28882 -2.23943,-85.93082 -0.40402,-10.98227 -0.88739,-21.96773 -1.10262,-32.95427 0,-53.033004 -75,-53.033004 -75,0 z"/>
</svg>
