<?xml version="1.0" ?>
<svg xmlns="http://www.w3.org/2000/svg" viewBox="0 0 1000 1000">
<path d="m 574.61033,87.9365 c -1.3508,1.344669 -2.66239,2.729915 -4.05241,4.034008 -3.32265,3.117256 -7.39915,6.183169 -10.90919,8.874562 -3.97885,3.05087 -7.9454,6.11947 -11.99297,9.07857 -16.85655,12.3235 -19.26017,13.57729 -37.96824,25.99158 -9.03475,5.70616 -18.01285,11.50302 -27.10425,17.11849 -25.04546,15.46977 -41.88976,25.24166 -67.60725,40.3052 -20.15017,11.80259 -56.26821,32.92436 -76.5498,44.40348 -12.61888,7.14212 -25.34902,14.08586 -38.02354,21.12879 -45.34345,24.21007 -23.43609,12.65093 -65.69828,34.72249 -47.00721,24.55243 -12.28482,91.03067 34.72239,66.47824 v 0 c 43.2436,-22.58916 20.76406,-10.72399 67.41191,-35.64605 13.01035,-7.233 26.07671,-14.36613 39.03103,-21.69899 20.30191,-11.492 56.90771,-32.89374 77.10678,-44.72759 26.4032,-15.46861 43.92501,-25.64167 69.67591,-41.56634 9.57786,-5.92306 19.03542,-12.03847 28.55313,-18.05771 20.59791,-13.71306 23.14571,-15.03524 41.75738,-28.68319 11.08677,-8.12994 22.29862,-16.46202 32.03617,-26.204 39.28086,-35.63024 -11.1079,-91.181775 -50.38877,-55.55154 z"/>
<path d="m 423.31587,312.60216 c 12.43138,14.75751 22.4386,31.28 32.43188,47.72385 8.62607,14.65731 4.48709,7.51646 12.43316,21.41316 26.33617,46.03158 91.43465,8.78662 65.09849,-37.24496 v 0 c -8.59891,-15.02138 -4.11848,-7.30073 -13.45908,-23.15161 -11.18763,-18.36863 -22.4195,-36.83325 -36.23903,-53.38435 -31.56801,-42.61409 -91.83343,2.02983 -60.26542,44.64391 z"/>
<path d="m 263.38157,489.85893 c 3.6324,-0.63524 7.23846,-1.40917 10.86399,-2.08027 10.25679,-1.89858 13.02478,-2.22521 24.31171,-4.42596 17.30272,-3.37372 24.15365,-4.98985 42.06081,-8.9056 38.65391,-8.48301 77.52959,-16.003 116.62286,-22.1721 24.67786,-3.89429 32.88514,-4.79752 57.35906,-7.98076 33.02142,-3.85519 66.15333,-7.7775 99.44238,-7.9085 1.49812,0.0859 3.00666,0.0617 4.49438,0.2578 0.47805,0.063 -0.98045,0.29325 -1.43928,0.14499 -4.00671,-1.29465 -8.83606,-1.47038 -11.82895,-4.43222 -15.33577,-15.1767 -19.73833,-24.64279 -12.87521,-43.99599 -21.87543,20.1002 -44.77654,39.04925 -67.32691,58.38022 -33.57805,28.64681 -65.76947,58.85018 -98.43218,88.51973 -9.53788,8.66385 -19.13541,17.26181 -28.70312,25.89272 -9.64677,8.78062 -19.29354,17.56124 -28.94031,26.34186 -9.60419,8.62909 -19.13031,17.34586 -28.81257,25.88726 -9.35289,8.25084 -18.80723,16.38657 -28.29043,24.4873 -16.63888,14.21325 -34.77647,29.55749 -52.26316,42.83256 -17.85209,13.55247 -25.92969,18.51056 -44.19576,30.61505 -6.03536,3.80284 -12.07072,7.60567 -18.10608,11.40851 -44.85507,28.29351 -4.842,91.72816 40.01307,63.43464 v 0 c 6.53126,-4.12389 13.06253,-8.24778 19.59379,-12.37167 20.98037,-13.96845 28.79541,-18.72437 49.39059,-34.3965 18.18938,-13.84141 37.33072,-30.01055 54.66133,-44.82338 9.82971,-8.40166 19.62659,-16.8429 29.32298,-25.39806 9.80251,-8.6488 19.44754,-17.47446 29.17131,-26.21169 38.35154,-34.90942 19.09023,-17.45439 57.78508,-52.36384 32.06503,-29.12647 63.65931,-58.786 96.61859,-86.91348 50.40489,-43.21113 -10.33703,8.81719 34.70781,-29.63939 11.42708,-9.75575 23.13432,-19.42459 33.8891,-29.93924 2.83978,-2.77637 5.4982,-5.73237 8.24731,-8.59856 8.00933,-11.70496 17.01075,-21.00866 13.18516,-37.85867 -5.00918,-22.06321 -14.48308,-28.34413 -32.18004,-34.41613 -4.73276,-1.62385 -13.09161,-1.64054 -18.14162,-1.84244 -36.3767,0.28117 -72.59436,4.15186 -108.67572,8.53553 -25.80126,3.3662 -34.03884,4.26843 -60.07541,8.38532 -40.30841,6.37354 -80.39362,14.13041 -120.25196,22.87308 -16.16112,3.53975 -23.95981,5.3576 -39.60334,8.41069 -8.92689,1.74222 -16.24766,2.93548 -25.04856,4.56539 -4.42407,0.81932 -4.82257,0.91306 -7.92995,1.57007 -52.41905,8.04635 -41.0398,82.17807 11.37925,74.13173 z"/>
<path d="m 163.4607,799.21124 c 15.228,0.22567 30.40909,2.01731 45.54723,3.56341 39.7894,4.20092 79.32513,10.39718 118.79217,16.89459 30.13882,5.05076 60.19944,10.63036 89.96389,17.58078 18.6191,4.34782 21.78329,5.35081 39.97803,10.22895 32.15429,9.30104 63.96486,19.75433 95.63087,30.58925 20.62711,7.51524 41.54563,14.09335 62.90781,19.15236 17.14125,3.84943 34.68987,5.04343 52.16776,6.24542 20.38873,1.18299 40.79216,2.56706 61.2275,2.46248 6.33816,-0.0324 12.67379,-0.26226 19.01068,-0.39339 23.29157,-0.97534 46.48296,-3.46127 69.6794,-5.66382 52.79535,-5.01505 45.703,-79.67895 -7.09236,-74.6639 v 0 c -21.38292,2.03201 -42.75947,4.33425 -64.2234,5.34558 -5.4907,0.12698 -10.98008,0.34194 -16.47212,0.38096 -19.02289,0.13515 -38.0151,-1.21477 -56.99494,-2.29193 -13.43054,-0.91953 -26.93597,-1.67203 -40.14577,-4.43267 -18.97768,-4.41409 -37.46902,-10.4895 -55.78868,-17.10363 -33.27845,-11.38217 -66.70954,-22.36449 -100.51802,-32.07723 -19.5734,-5.22918 -23.09178,-6.3351 -43.05737,-10.98365 -31.13482,-7.24905 -62.57141,-13.10166 -94.09416,-18.38008 -40.98461,-6.7427 -82.04274,-13.15708 -123.36306,-17.50317 -17.66636,-1.7987 -35.37987,-3.8159 -53.15546,-3.95031 -53.03301,0 -53.03301,75 0,75 z"/>
</svg>
