<?xml version="1.0" ?>
<svg xmlns="http://www.w3.org/2000/svg" viewBox="0 0 1000 1000">
<path d="m 348.17703,390.02425 c 40.07094,-5.99449 80.51982,-9.09246 120.90272,-12.10058 57.67751,-3.6004 115.47562,-6.5098 173.28594,-5.50596 8.75717,0.15207 17.50854,0.54363 26.26281,0.81544 6.97254,0.39213 13.94508,0.78426 20.91762,1.17639 52.951,2.94815 57.12032,-71.93587 4.16931,-74.88402 v 0 c -7.59767,-0.41909 -15.19535,-0.83819 -22.79303,-1.25728 -9.38124,-0.28313 -18.75954,-0.69191 -28.14373,-0.84939 -59.81076,-1.00368 -119.60911,1.95977 -179.2815,5.71288 -42.91724,3.20968 -85.91346,6.50735 -128.47587,13.05536 -52.21076,9.30251 -39.05503,83.13967 13.15573,73.83716 z"/>
<path d="m 221.10482,639.10712 c 18.73734,-5.13921 37.54974,-10.10321 56.6228,-13.85646 7.17602,-1.41211 14.3925,-2.61027 21.58876,-3.91541 54.25803,-8.60244 109.02711,-13.87761 163.85602,-17.10344 13.34527,-0.78517 26.70333,-1.33519 40.055,-2.00278 67.6775,-2.75341 135.45521,-2.93242 203.16283,-1.21424 12.06861,0.30626 24.13295,0.76267 36.19942,1.14401 31.04615,1.09587 62.085,2.38233 93.12373,3.66719 52.98763,2.19336 56.08951,-72.74247 3.10188,-74.93583 v 0 c -31.28483,-1.29494 -62.56978,-2.59154 -93.86215,-3.69411 -12.36606,-0.38898 -24.72993,-0.85488 -37.09817,-1.16695 -69.44834,-1.75229 -138.968,-1.55194 -208.38437,1.29408 -13.80303,0.69433 -27.61276,1.26617 -41.40909,2.08297 -57.62549,3.41169 -115.18673,9.00164 -172.19776,18.14546 -8.0058,1.46659 -16.03418,2.81479 -24.01738,4.39977 -19.59361,3.89011 -38.96604,8.8781 -58.20763,14.21786 -51.57487,12.35041 -34.10876,85.28829 17.46611,72.93788 z"/>
<path d="m 392.69057,229.11658 c 3.40846,18.80582 5.26434,37.88847 5.87731,56.98822 0.25346,7.89782 0.19277,15.8026 0.28916,23.7039 -0.27067,9.35668 -0.35977,18.72037 -0.81202,28.07003 -0.9456,19.54885 -3.39151,49.39414 -5.17412,68.45772 -2.52952,27.05128 -5.16622,52.17741 -9.20505,79.07809 -2.07718,13.83511 -4.66673,27.58843 -7.0001,41.38265 -10.07087,56.73066 -24.96744,112.55999 -45.0619,166.56996 -12.10905,32.54675 -18.56145,46.0344 -32.44338,77.66817 -21.94561,44.90066 -11.03569,23.34274 -32.61494,64.73174 -24.49964,47.03475 42.01754,81.68248 66.51718,34.64773 v 0 c 22.93361,-44.06758 11.2878,-20.99834 34.79307,-69.2804 14.86452,-33.97484 21.65762,-48.18396 34.62282,-83.23625 21.43342,-57.94667 37.36356,-117.81226 48.14447,-178.63837 2.47167,-14.72056 5.21121,-29.39864 7.41502,-44.16168 4.16341,-27.89029 6.95481,-54.40593 9.56648,-82.44663 1.94258,-20.85691 4.4302,-51.51019 5.41153,-72.69019 0.48124,-10.3866 0.55592,-20.78805 0.83388,-31.18207 -0.13563,-8.99969 -0.0928,-18.00385 -0.40689,-26.99908 -0.76694,-21.96802 -2.97977,-43.90594 -6.86649,-65.54199 -9.10644,-52.24531 -82.99247,-39.36687 -73.88603,12.87845 z"/>
<path d="m 583.35785,160.01356 c -0.0871,26.72245 0.0264,53.4411 0.42347,80.1607 0.67566,44.2253 3.34808,88.38913 4.22246,132.6086 0.69405,35.09944 0.43019,50.80409 0.31779,86.4684 -1.24653,102.18784 -3.02025,204.36659 -3.99489,306.55825 -0.40846,46.15547 -0.59895,92.31232 -0.78182,138.46907 -0.21005,53.03259 74.78936,53.32966 74.99941,0.29706 v 0 c 0.18223,-46.01741 0.37201,-92.03491 0.779,-138.05103 0.97572,-102.35337 2.75918,-204.69372 3.99795,-307.04338 0.1106,-37.08022 0.37754,-52.36946 -0.34957,-88.89345 -0.87318,-43.8616 -3.50343,-87.66812 -4.19871,-131.53485 -0.39649,-26.34578 -0.49797,-52.69073 -0.41509,-79.03937 0,-53.03301 -75,-53.03301 -75,0 z"/>
</svg>
