<?xml version="1.0" ?>
<svg xmlns="http://www.w3.org/2000/svg" viewBox="0 0 1000 1000">
<path d="m 322.46137,143.30601 c -1.25424,2.0783 -2.50902,4.15628 -3.76272,6.23491 -7.05421,11.69579 -14.27803,23.0868 -22.5514,33.99274 -7.52432,9.91857 -28.91259,36.14629 -35.56959,44.368 -8.0786,9.98993 -16.17472,19.96571 -24.2358,29.96978 -28.05486,34.81703 -26.83377,33.68163 -55.77322,68.94922 -28.42584,34.64167 -57.15935,69.03306 -85.684752,103.59291 -29.905972,36.79741 -15.66322,19.2447 -42.735552,52.65219 -33.389212,41.20268 24.880173,88.42216 58.269384,47.21948 v 0 c 26.88681,-33.17871 12.78626,-15.80041 42.30816,-52.12961 28.63089,-34.68798 57.47064,-69.20687 86.00041,-103.97795 29.20705,-35.59652 27.78586,-34.21448 55.93315,-69.1463 8.05299,-9.99406 16.14102,-19.95985 24.21153,-29.93978 23.20449,-28.66978 47.5332,-56.93374 65.44416,-89.36965 29.9926,-43.73722 -31.86116,-86.15316 -61.85376,-42.41594 z"/>
<path d="m 202.91677,379.39308 c 4.62088,31.58532 4.94293,63.66873 5.89487,95.52099 1.72062,78.36222 1.76993,156.74927 1.90823,235.12663 -0.13998,47.25599 -0.48288,94.5783 -3.86888,141.7372 -0.64502,8.98355 -1.57602,17.94427 -2.36402,26.9164 -4.60735,52.8325 70.10907,59.34828 74.71643,6.51578 v 0 c 0.84168,-9.71547 1.83288,-19.41914 2.52504,-29.14641 3.46037,-48.63076 3.85796,-97.42547 3.99131,-146.15537 -0.13968,-79.08385 -0.19072,-158.1776 -1.94191,-237.24591 -0.6825,-22.61394 -0.88839,-34.75055 -2.11829,-56.76095 -0.90293,-16.15893 -1.95133,-32.47504 -4.7396,-48.44519 -0.47184,-2.70254 -1.1435,-5.36636 -1.71525,-8.04954 -14.13249,-51.11528 -86.42043,-31.12892 -72.28793,19.98637 z"/>
<path d="m 545.47567,282.48005 c 2.754,35.28785 1.76736,70.76585 1.31792,106.12075 -1.58589,65.64971 -2.08058,131.33294 -4.14489,196.97115 -0.42969,13.66292 -1.04089,27.31953 -1.56133,40.97929 -1.62907,37.28552 -4.58365,74.4982 -8.92328,111.56496 -1.15796,9.89065 -2.55059,19.75241 -3.82589,29.62862 -6.77546,52.59841 67.60993,62.18036 74.38539,9.58194 v 0 c 1.33998,-10.42639 2.80476,-20.83751 4.01994,-31.27918 4.51045,-38.75687 7.59303,-77.66394 9.28968,-116.64671 0.53073,-13.98639 1.15277,-27.9696 1.59218,-41.95915 2.07137,-65.94514 2.57332,-131.93529 4.1622,-197.89201 0.48514,-38.51675 1.53612,-77.18077 -1.79912,-115.60444 -6.03499,-52.6885 -80.5478,-44.15373 -74.5128,8.53478 z"/>
<path d="m 331.73603,567.27457 c 2.35442,26.65019 2.97567,53.42742 3.65845,80.1618 0.89428,42.30224 0.34796,84.6099 -0.69274,126.90232 -0.45459,17.89724 -0.99399,35.79233 -1.40176,53.69076 -0.0949,20.08909 6.02273,29.22002 30.58598,41.9663 9.55061,4.95597 22.39005,-1.60642 31.52396,-5.2112 2.28881,-0.9033 4.59933,-1.75056 6.899,-2.62584 24.31115,-8.56458 49.83419,-13.03354 75.36519,-16.05651 7.90809,-0.93635 15.84311,-1.62927 23.76467,-2.4439 57.70079,-4.84116 115.64193,-5.35798 173.50147,-6.43191 26.4813,-0.64226 52.96667,-1.08493 79.45191,-1.52313 53.02575,-0.8775 51.78477,-75.86723 -1.24097,-74.98973 v 0 c -26.53553,0.43922 -53.07119,0.88246 -79.60277,1.52578 -59.97871,1.11327 -120.04315,1.67759 -179.84889,6.81936 -8.76043,0.91602 -17.53705,1.68856 -26.28129,2.74806 -31.21482,3.78218 -62.3402,9.61092 -91.97909,20.33044 -3.05936,1.18117 -6.1374,2.31507 -9.17809,3.54351 -10.13618,4.09506 10.5801,-1.4563 14.78774,1.30523 30.20966,19.82697 25.59757,17.24101 27.26102,34.34715 0.0515,0.52976 -0.0195,-1.06433 -0.0293,-1.59649 0.40619,-17.85299 0.94654,-35.7026 1.39853,-53.55443 1.06983,-43.54805 1.62082,-87.11214 0.69071,-130.67 -0.74988,-29.0814 -1.41656,-58.21803 -4.17036,-87.19314 -6.33255,-52.65358 -80.79595,-43.698 -74.4634,8.95557 z"/>
<path d="m 786.6206,584.61468 c 0.72956,27.38597 -3.81239,54.60389 -7.79039,81.60031 -7.25814,43.33194 -13.5063,86.85326 -22.45574,129.88529 -4.74276,22.80482 -10.47062,46.26709 -15.84048,68.92402 -2.65968,11.34891 -5.31936,22.69782 -7.97903,34.04674 -12.10056,51.63406 60.92103,68.74683 73.02159,17.11276 v 0 c 2.64585,-11.29022 5.2917,-22.58045 7.93755,-33.87068 5.81316,-24.54968 11.37603,-47.2836 16.50153,-72.00091 9.1527,-44.13808 15.60593,-88.76462 23.02022,-133.21038 4.47244,-30.60777 9.37863,-61.44917 8.58475,-92.48715 0,-53.03301 -75,-53.03301 -75,0 z"/>
</svg>
