<?xml version="1.0" ?>
<svg xmlns="http://www.w3.org/2000/svg" width="1000" height="1000">
<path d="m 350.30089,158.56856 c -18.6514,28.1632 -40.20859,54.20323 -61.66462,80.23512 -7.31614,8.45007 -14.56482,16.95902 -21.94843,25.35021 -10.58878,12.03374 -39.92171,44.58796 -50.3077,56.11297 -25.58752,28.39364 -51.23701,56.72974 -76.76318,85.17861 -29.07922,32.7791 -14.76625,16.75779 -42.92612,48.07532 -35.458112,39.4363 20.31325,89.58165 55.77136,50.14534 v 0 c 28.39917,-31.58708 14.07046,-15.54513 42.97802,-48.13309 25.50152,-28.42215 51.1274,-56.73061 76.69029,-85.09751 10.97119,-12.17461 40.26629,-44.6852 51.27411,-57.20816 7.77804,-8.84862 15.41163,-17.82317 23.11745,-26.73476 23.15032,-28.11257 46.34782,-56.27976 66.44012,-86.71045 29.14242,-44.30823 -33.51888,-85.52183 -62.6613,-41.2136 z"/>
<path d="m 223.83599,359.0552 c 4.18424,18.84087 6.44215,38.03183 8.70082,57.17568 5.73144,56.13309 6.77725,112.61366 8.23523,168.98062 0.89671,48.22481 2.15251,96.51059 0.2689,144.73082 -0.27366,7.00573 -0.73526,14.00285 -1.10288,21.00427 -0.98458,16.04056 -3.17901,31.96068 -6.44468,47.68468 -10.59175,51.96455 62.89723,66.94355 73.48898,14.97899 v 0 c 3.90038,-19.39967 6.72532,-38.99461 7.85464,-58.77169 0.39205,-7.61801 0.8829,-15.23157 1.17613,-22.85402 1.90608,-49.54813 0.67651,-99.16086 -0.26619,-148.71338 -1.51916,-58.66998 -2.65102,-117.45717 -8.73216,-175.87389 -2.60421,-21.85228 -5.25082,-43.75018 -10.10772,-65.24232 -11.95027,-51.66905 -85.02135,-34.76881 -73.07107,16.90024 z"/>
<path d="m 388.45275,511.49162 c 17.67385,-7.67301 35.72698,-14.40265 54.10872,-20.18144 7.48293,-2.35246 15.03036,-4.49462 22.54553,-6.74193 43.25578,-12.00013 87.13562,-21.80625 131.32671,-29.68826 7.92602,-1.41371 15.88002,-2.66582 23.82003,-3.99872 24.97079,-3.97139 50.07711,-7.03218 75.26271,-9.2387 52.82885,-4.64892 46.25429,-79.36019 -6.57457,-74.71128 v 0 c -27.14735,2.39843 -54.21288,5.67949 -81.12675,9.98863 -8.42131,1.4187 -16.85734,2.75266 -25.26394,4.25609 -46.7748,8.36515 -93.21716,18.77766 -138.98615,31.55253 -8.24982,2.48 -16.53693,4.8392 -24.74947,7.44001 -14.89872,4.71823 -24.68032,8.19474 -38.89165,13.72504 -5.25454,2.04479 -17.40943,7.03983 -23.02431,9.66623 -2.3662,1.10681 -4.64694,2.3878 -6.97041,3.58169 -45.5024,27.24027 -6.97884,91.59037 38.52355,64.35011 z"/>
<path d="m 491.36787,256.18821 c 6.8962,14.77774 10.68508,30.80502 15.26467,46.38888 2.14587,7.30216 4.34776,14.58774 6.52163,21.88161 15.52487,50.24522 31.13189,100.47426 48.13687,150.24317 4.02375,11.77639 8.18637,23.50488 12.27955,35.25732 20.98896,58.76605 43.98234,116.8514 70.02034,173.57555 4.76396,10.37836 9.76289,20.64723 14.64434,30.97085 16.9388,34.45021 35.06665,68.38402 55.7655,100.74189 10.00629,15.64253 13.04726,19.5118 23.47962,34.07205 8.5008,11.25447 17.11451,22.49002 26.92081,32.65933 3.81726,3.95857 11.04862,10.91415 15.76366,13.93161 3.96344,2.53646 8.30039,4.43549 12.45059,6.65324 9.61746,0.26116 19.71616,3.799 28.85238,0.78349 27.41879,-9.0499 35.99559,-37.95788 41.56804,-62.41349 4.08387,-17.92275 6.54101,-38.27751 9.09496,-56.38946 7.35689,-52.52025 -66.91796,-62.92446 -74.27484,-10.40421 v 0 c -2.77692,19.9712 -3.70312,28.82822 -7.38997,47.8565 -0.82777,4.2722 -2.24543,8.42714 -2.89368,12.73025 -0.12591,0.8358 -0.21233,2.67815 0.60493,2.46248 29.55863,-7.80031 -1.43307,-9.07182 34.40296,-3.37955 1.12115,0.89761 2.37685,1.64913 3.36343,2.69282 0.57454,0.6078 -1.46297,-0.82893 -2.10649,-1.36313 -1.43573,-1.19182 -2.80141,-2.47014 -4.11165,-3.79868 -7.84317,-7.9527 -14.54643,-16.9319 -21.3291,-25.7732 -9.08907,-12.61941 -11.85112,-16.12827 -20.59384,-29.74502 -19.24677,-29.97677 -36.02986,-61.46535 -51.77369,-93.39533 -4.6481,-9.81587 -9.40974,-19.57878 -13.94431,-29.44761 -25.17849,-54.79739 -47.39793,-110.91807 -67.68859,-167.6935 -3.99568,-11.46702 -8.05966,-22.91046 -11.98703,-34.40104 -16.73963,-48.97631 -32.09357,-98.40849 -47.38044,-147.85246 -2.11443,-7.09133 -4.25592,-14.17464 -6.34329,-21.27399 -6.12335,-20.82613 -11.42077,-42.17915 -21.50907,-61.54631 -25.43883,-46.53349 -91.24712,-10.55755 -65.80829,35.97594 z"/>
<path d="m 699.50286,260.43072 c 12.87933,8.12996 25.55843,16.75277 37.04174,26.7979 3.26401,2.85522 6.34022,5.91827 9.51033,8.87741 7.66716,8.11651 11.80961,12.12495 18.72579,20.9909 3.03418,3.88955 5.77602,7.99857 8.66403,11.99786 31.33686,42.78435 91.84307,-1.53267 60.50621,-44.31702 v 0 c -4.01848,-5.43017 -7.854,-11.00061 -12.05543,-16.29049 -9.39643,-11.83076 -14.52398,-16.63955 -24.98317,-27.50404 -4.37112,-3.99857 -8.62721,-8.12663 -13.11337,-11.99569 -14.43586,-12.45013 -30.25927,-23.25276 -46.43025,-33.29611 -45.77758,-26.77522 -83.64347,37.96406 -37.86588,64.73928 z"/>
</svg>
