<?xml version="1.0" ?>
<svg xmlns="http://www.w3.org/2000/svg" width="1000" height="1000">
<path d="m 294.0269,114.49771 c -0.0496,-0.22315 -0.005,-0.84745 -0.14873,-0.66944 -0.84164,1.04479 -1.39285,2.29341 -2.08518,3.44258 -1.64888,2.73689 -3.23087,5.51494 -4.93846,8.21559 -2.49816,3.95098 -5.04887,7.86978 -7.67658,11.73581 -9.27886,13.65154 -14.38578,20.3333 -24.50457,34.14623 -26.74529,34.61192 -54.84928,68.22586 -84.34192,100.53538 -19.05839,20.87868 -30.83825,32.75338 -50.45302,53.01579 -22.403079,23.01307 -45.273715,45.55347 -68.297818,67.94126 -38.017799,36.97495 14.272677,90.74024 52.290478,53.76528 v 0 c 23.56229,-22.92067 46.97623,-45.98887 69.90241,-69.54983 20.68123,-21.37676 32.46343,-33.24479 52.59893,-55.32866 31.07558,-34.08254 60.69414,-69.53457 88.82184,-106.08226 12.42833,-16.9939 24.92678,-33.90175 36.08209,-51.77554 3.52559,-5.64893 9.19595,-15.31661 11.96231,-21.52887 1.39181,-3.12549 2.35951,-6.42309 3.53927,-9.63463 12.88963,-51.442757 -59.86141,-69.671452 -72.75105,-18.22869 z"/>
<path d="m 193.73018,298.58061 c -0.29629,-0.53594 -0.36957,-1.28324 -0.88887,-1.60781 -0.2927,-0.18294 -0.0659,0.69212 -0.0274,1.03513 0.21877,1.94786 0.56937,3.8792 0.798,5.82592 1.75444,14.93824 2.68712,29.93942 3.70722,44.94069 2.62327,50.90227 2.4924,101.93318 1.05884,152.87256 -0.36244,12.8786 -0.91775,25.75106 -1.37662,38.62659 -3.23976,75.30248 -8.89673,150.47973 -15.5542,225.54945 -2.20728,24.08067 -4.53724,48.14958 -6.91619,72.21377 -5.21684,52.7758 69.4194,60.15353 74.63625,7.37773 v 0 c 2.40337,-24.31579 4.75807,-48.63629 6.98697,-72.96883 6.76901,-76.38764 12.52235,-152.88445 15.79989,-229.50946 0.46956,-13.25937 1.03813,-26.51561 1.40867,-39.77811 1.48484,-53.14621 1.5826,-106.38768 -1.21777,-159.49178 -0.98175,-14.32878 -1.49231,-23.48484 -2.8544,-37.45624 -1.10577,-11.34214 -2.21621,-23.03503 -5.64603,-33.97407 -0.77795,-2.48119 -1.90829,-4.83781 -2.86244,-7.25672 -23.75962,-47.41287 -90.81155,-13.81169 -67.05192,33.60118 z"/>
<path d="m 458.92459,124.02883 c 0.67621,15.42701 -3.38375,30.3367 -7.47789,45.05859 -1.86093,6.69161 -3.84662,13.3479 -5.76993,20.02185 -9.27338,31.44852 -22.13177,61.65586 -34.32151,92.0408 -9.1788,22.87967 -7.30056,18.21387 -15.73315,39.95528 -2.68594,7.15821 -7.48766,19.84146 -10.21523,27.48945 -5.85195,16.40867 -12.90148,38.48735 4.80595,53.24799 11.16443,9.3065 28.27142,6.76376 42.40713,10.14564 4.9807,-2.30832 10.0595,-4.41577 14.94209,-6.92497 3.88966,-1.99893 7.56483,-4.39022 11.34725,-6.58533 3.91943,-2.13004 7.77836,-4.3754 11.75829,-6.39012 8.79502,-4.45221 20.55499,-9.71808 29.68093,-13.09538 6.06315,-2.24384 12.26755,-4.08581 18.40133,-6.12871 39.60634,-11.91063 80.67555,-17.78888 121.82562,-20.96526 8.61515,-0.66501 17.24851,-1.06815 25.87276,-1.60223 32.38094,-1.29156 65.03667,-2.17716 97.17959,2.6667 52.47723,7.65771 63.30687,-66.5563 10.82964,-74.21401 v 0 c -10.6236,-1.51487 -12.97387,-2.00282 -24.40188,-2.89051 -29.37309,-2.28161 -58.88943,-1.71946 -88.29249,-0.4157 -9.37774,0.59268 -18.7658,1.04003 -28.13322,1.77805 -46.96032,3.6998 -93.78394,10.72303 -138.90057,24.59359 -7.73286,2.64516 -15.55176,5.05101 -23.19857,7.93549 -11.84479,4.46803 -25.41835,10.69805 -36.75362,16.48303 -1.17467,0.59949 -19.26593,10.36984 -22.41348,12.60297 -0.24669,0.17503 0.20213,0.57019 0.30319,0.85528 11.26027,4.17547 25.47346,3.85368 33.78081,12.52641 7.13165,7.44531 4.80099,20.05368 7.06184,30.11258 0.027,0.12008 -0.36514,-0.0462 -0.33063,-0.16435 3.37567,-11.55769 8.56345,-22.54239 12.3703,-33.94585 8.2156,-21.19318 6.32611,-16.49223 15.36502,-39.02438 13.15034,-32.78108 26.92076,-65.40657 36.84208,-99.36088 8.03083,-27.98698 17.05744,-56.33235 16.16835,-85.80602 0,-53.033009 -75,-53.033009 -75,0 z"/>
<path d="m 381.43651,605.87583 c 17.20645,-7.82594 35.05972,-14.20366 53.23675,-19.37729 7.72907,-2.19988 15.53795,-4.10901 23.30693,-6.16352 52.01099,-12.35623 104.94623,-20.93596 158.16903,-25.95011 11.24957,-1.05983 22.52908,-1.7734 33.79362,-2.6601 41.51447,-2.6195 83.12855,-3.2651 124.70505,-2.09292 21.34729,0.60185 26.71685,1.04512 47.43718,2.21875 15.91565,0.82792 31.75547,2.5298 47.57167,4.41903 52.66341,6.25021 61.50254,-68.2271 8.83912,-74.47731 v 0 c -17.35398,-2.04788 -34.73143,-3.91181 -52.19113,-4.82292 -21.84799,-1.22519 -27.75806,-1.70392 -50.22177,-2.32382 -44.03103,-1.21505 -88.10222,-0.50536 -132.06411,2.31351 -12.02387,0.95854 -24.06381,1.73337 -36.07162,2.87561 -56.95912,5.41821 -113.60549,14.66772 -169.24306,28.01969 -8.78755,2.34866 -17.62255,4.52644 -26.36263,7.04597 -21.4411,6.18089 -42.48793,13.80031 -62.78144,23.08659 -48.00466,22.54002 -16.12825,90.42886 31.87641,67.88884 z"/>
<path d="m 583.46361,200.30409 c 0.90362,29.44582 1.77155,58.89028 2.88513,88.33004 2.38256,63.32128 3.7064,126.68987 3.37732,190.05821 -0.0812,15.63312 -0.33869,31.26482 -0.50803,46.89724 -1.62451,96.87801 -4.30571,193.73128 -7.10241,290.58085 -0.40173,14.17634 -0.80346,28.35269 -1.20519,42.52904 -1.50225,53.01173 73.46766,55.13622 74.9699,2.12449 v 0 c 0.40135,-14.16289 0.80269,-28.32579 1.20404,-42.48868 2.80975,-97.30161 5.50265,-194.60701 7.1293,-291.9373 0.17079,-15.92162 0.4313,-31.84253 0.51237,-47.76487 0.32734,-64.29421 -1.01406,-128.58862 -3.43095,-192.83513 -1.11523,-29.45733 -1.97776,-58.91951 -2.88714,-88.3828 -2.04277,-52.99366 -76.98711,-50.10474 -74.94434,2.88891 z"/>
</svg>
