<?xml version="1.0" ?>
<svg xmlns="http://www.w3.org/2000/svg" viewBox="0 0 1000 1000">
<path d="m 342.79288,121.79635 c -15.47895,18.56388 -30.23427,37.73204 -45.54986,56.43237 -6.07804,7.42127 -12.2935,14.72892 -18.44025,22.09339 -33.83428,37.87018 -65.34391,77.7123 -97.36114,117.1041 -66.07747,81.2972 14.44993,-17.97007 -49.64619,61.08012 -19.40716,24.58119 -38.970265,49.03244 -58.789764,73.28164 -33.557465,41.06576 24.518289,88.52318 58.075754,47.45742 v 0 c 19.87517,-24.32679 39.51298,-48.84036 58.97032,-73.50345 63.50981,-78.32795 -16.25685,20.00237 49.64361,-61.07695 31.79835,-39.12246 63.08852,-78.69423 96.69917,-116.29927 6.46262,-7.75088 12.9933,-15.44552 19.38785,-23.25265 14.38791,-17.56622 28.33027,-35.50449 42.70175,-53.08242 35.52101,-39.37966 -20.17023,-89.613961 -55.69125,-50.2343 z"/>
<path d="m 214.22573,329.76899 c 2.3454,28.91662 4.61273,57.83754 6.63966,86.77851 3.39805,53.75411 4.86359,107.64166 4.2828,161.50189 -0.13564,12.57938 -0.49217,25.15542 -0.73826,37.73313 -1.85784,66.99473 -5.70842,133.91157 -9.18197,200.83605 -1.64196,32.2602 -0.88833,16.36158 -2.2704,47.69541 -2.33491,52.98159 72.59236,56.28365 74.92727,3.30207 v 0 c 1.35612,-30.79856 0.61288,-15.09502 2.24232,-47.11002 3.51558,-67.73458 7.41018,-135.46167 9.26866,-203.26812 0.25076,-13.02123 0.61559,-26.04076 0.75228,-39.06368 0.58411,-55.65087 -0.94254,-111.3291 -4.46616,-166.8694 -2.03628,-29.04417 -4.3037,-58.06901 -6.66203,-87.08854 -3.92635,-52.88746 -78.72052,-47.33477 -74.79417,5.5527 z"/>
<path d="m 461.32449,196.46943 c 5.92211,16.5929 13.75665,32.41018 20.23181,48.7826 1.66132,4.20064 3.17825,8.45696 4.76738,12.68544 5.89661,17.43559 3.02672,8.52097 8.58132,26.75298 15.51747,50.71201 87.23509,28.767 71.71762,-21.94502 v 0 c -6.51659,-21.21698 -3.13137,-10.78706 -10.13258,-31.29722 -1.89188,-4.99222 -3.70705,-10.01419 -5.67564,-14.97667 -5.8351,-14.70927 -12.73024,-28.97386 -18.35457,-43.76687 -16.80422,-50.30028 -87.93956,-26.53552 -71.13534,23.76476 z"/>
<path d="m 681.08031,123.30104 c -2.09016,15.05466 -4.66123,30.12211 -8.42077,44.86352 -1.64461,6.4486 -3.58719,12.81752 -5.38079,19.22629 -2.28388,7.30968 -4.511,14.63733 -6.85165,21.92903 -6.0966,18.99241 -10.29182,31.63668 -17.34819,50.39566 -7.19823,19.13614 -12.48729,31.38798 -20.35134,50.29313 -20.35513,48.9711 48.90047,77.75761 69.2556,28.78651 v 0 c 8.56948,-20.63169 13.83044,-32.79288 21.68822,-53.74779 9.57989,-25.5474 17.96514,-51.51388 25.88088,-77.61812 2.10152,-7.63993 4.37787,-15.23391 6.30456,-22.91979 3.11549,-12.4282 4.70224,-21.20455 6.8107,-33.45516 1.23129,-7.15407 2.43787,-14.30784 3.11678,-21.54067 0.19375,-2.06415 0.19733,-4.14174 0.296,-6.21261 0,-53.03301 -75,-53.03301 -75,0 z"/>
<path d="m 423.75504,410.69754 c 26.40092,-5.39526 52.66249,-11.44098 78.96124,-17.31479 53.55914,-12.05631 108.15424,-18.71041 162.88974,-22.33867 10.80906,-0.71651 21.636,-1.13125 32.454,-1.69687 25.1764,-0.95311 50.38351,-1.01705 75.54625,0.30481 5.50524,0.28921 10.99985,0.75391 16.49978,1.13086 52.91226,3.57676 57.97055,-71.25247 5.05829,-74.82923 v 0 c -6.2171,-0.41509 -12.42836,-0.92959 -18.65131,-1.24528 -27.44741,-1.39238 -54.94115,-1.33001 -82.40045,-0.2572 -11.49037,0.61015 -22.99027,1.06165 -34.47112,1.83046 -58.22917,3.89925 -116.29376,11.09915 -173.27436,23.90478 -14.61024,3.2635 -29.20113,6.61337 -43.81422,9.86405 -11.5774,2.57539 -23.25128,4.70663 -34.80791,7.36863 -1.52506,0.35129 -3.03431,0.76801 -4.55147,1.15202 -51.00109,14.53921 -30.43955,86.66564 20.56154,72.12643 z"/>
<path d="m 383.95676,595.70477 c 16.39254,-4.87416 32.79767,-9.65078 49.51593,-13.31257 7.52264,-1.64768 15.09116,-3.07845 22.63673,-4.61767 54.99222,-10.06972 110.45959,-17.673 166.13786,-22.74843 12.08603,-1.10172 24.19467,-1.93932 36.29201,-2.90897 41.34631,-2.8014 82.89529,-3.72164 124.27415,-0.99742 18.07799,1.19018 25.97004,2.34613 43.57401,4.43599 22.76231,3.21818 11.91742,1.60177 32.54108,4.80621 52.40622,8.12947 63.90302,-65.98412 11.49681,-74.11359 v 0 c -22.22159,-3.44186 -10.4692,-1.69795 -35.26513,-5.17778 -20.02778,-2.34204 -28.21703,-3.54818 -48.84727,-4.86914 -44.54958,-2.85253 -89.27401,-1.89054 -133.78399,1.15694 -12.63505,1.01874 -25.28189,1.90046 -37.90514,3.05622 -58.17252,5.32614 -116.12497,13.29433 -173.57018,23.88669 -8.35275,1.71858 -16.7318,3.314 -25.05826,5.15575 -16.92641,3.74398 -33.62909,8.37541 -50.19029,13.47747 -51.45637,12.83518 -33.30469,85.60548 18.15168,72.7703 z"/>
<path d="m 499.95507,422.81218 c -0.0664,15.5081 -1.36738,30.99474 -3.96635,46.28846 -1.13216,6.66223 -2.53791,13.27506 -3.80686,19.91259 -8.06183,39.96599 -18.05031,79.55992 -31.10483,118.20602 -9.83701,29.12112 -13.49235,36.79973 -25.12161,65.2554 -19.08705,46.7412 -42.6139,91.42189 -65.98718,136.10514 -24.58068,46.99245 41.87668,81.75478 66.45736,34.76233 v 0 c 24.4719,-46.7855 49.01901,-93.60955 68.98145,-142.55721 4.78462,-11.76574 9.81232,-23.43554 14.35387,-35.29724 20.17638,-52.69705 35.12885,-107.23277 46.11707,-162.55037 1.46456,-7.83018 3.09934,-15.63043 4.39368,-23.49054 2.83888,-17.23956 4.48865,-34.74489 4.5534,-52.22061 3.12115,-52.94109 -71.74885,-57.35506 -74.87,-4.41397 z"/>
<path d="m 641.34976,377.07402 c 3.10155,23.57461 3.55329,47.40267 4.36808,71.13539 1.32317,41.842 1.8719,83.71457 0.94104,125.5717 -0.69749,31.36319 -1.52065,45.718 -2.9321,77.32147 -4.29227,78.25388 -9.95469,156.42339 -14.81145,234.64374 -0.63934,10.79006 -1.27869,21.58012 -1.91804,32.37018 -3.13664,52.94017 71.73207,57.37605 74.86871,4.43588 v 0 c 0.63506,-10.71945 1.27012,-21.4389 1.90519,-32.15835 4.88351,-78.65621 10.58571,-157.26084 14.8812,-235.95198 1.45514,-32.71314 2.28737,-47.18279 3.00026,-79.69416 0.94378,-43.04097 0.3833,-86.09766 -0.97935,-129.12284 -0.99053,-28.61244 -1.3277,-57.50149 -6.32583,-85.76538 -12.17239,-51.61718 -85.1701,-34.40282 -72.99771,17.21435 z"/>
</svg>
