<?xml version="1.0" ?>
<svg xmlns="http://www.w3.org/2000/svg" viewBox="0 0 1000 1000">
<path d="m 335.80967,106.92587 c -13.36178,21.24338 -27.95393,41.704 -42.35306,62.25564 -5.89884,8.01891 -11.70307,16.10829 -17.69653,24.05673 -14.46876,19.18825 -29.33871,38.07138 -43.84779,57.22916 -24.30404,32.09102 -48.51735,64.24688 -72.91009,96.27111 -14.89276,19.18603 -29.52455,38.57317 -44.39068,57.77967 -6.47009,8.35913 -12.80885,16.82512 -19.517922,24.99368 -5.750026,7.00088 -11.897442,13.66569 -17.846163,20.49854 -34.749478,40.06212 21.906921,89.20531 56.656395,49.14318 v 0 c 6.76768,-7.82768 13.7371,-15.48538 20.30302,-23.48305 6.83651,-8.32725 13.29703,-16.95638 19.89172,-25.47641 14.92547,-19.28301 29.61482,-38.74803 44.56713,-58.0104 24.38664,-32.01661 48.59507,-64.16394 72.89235,-96.24783 14.77156,-19.50544 29.91219,-38.73013 44.63102,-58.2754 6.33107,-8.40708 12.46182,-16.96315 18.69273,-25.44473 7.23555,-10.32821 19.26328,-27.41025 26.63826,-38.24046 6.73346,-9.88813 13.60549,-19.90769 19.53532,-30.32043 1.15756,-2.03268 2.17658,-4.14118 3.26486,-6.21177 21.57894,-48.444293 -46.93164,-78.961518 -68.51057,-30.51723 z"/>
<path d="m 210.83012,329.61383 c 2.23013,33.40172 4.78345,66.77965 6.96315,100.18549 4.88293,77.82897 5.43591,155.83709 4.91623,233.78928 -0.74446,64.66489 -3.4298,129.2818 -5.95147,193.89485 -0.88214,24.10051 -0.44904,12.71469 -1.28908,34.15784 -2.07556,52.99238 72.86698,55.92766 74.94254,2.93528 v 0 c 0.84485,-21.57487 0.41193,-10.18555 1.28949,-34.16832 2.55323,-65.42245 5.26526,-130.84907 6.00688,-196.32421 0.52207,-79.74711 -0.0618,-159.55059 -5.07391,-239.17058 -2.15346,-32.96914 -4.64157,-65.91283 -6.88909,-98.87497 -2.52815,-52.97271 -77.44288,-49.39738 -74.91474,3.57534 z"/>
<path d="m 407.87539,245.00595 c 0.49279,2.6332 1.16076,5.23079 1.65768,7.86285 1.19101,6.30846 3.65203,21.4658 4.53433,26.70604 3.5904,21.32455 2.93697,17.34572 6.8566,39.35619 6.26646,33.13696 12.5509,66.3299 21.3732,98.89896 13.94268,51.16739 86.3043,31.44946 72.36161,-19.71793 v 0 c -8.33787,-30.37387 -13.9274,-61.43299 -19.89721,-92.33431 -3.87467,-21.74373 -3.1443,-17.34103 -6.71332,-38.5248 -2.40791,-14.29205 -4.31419,-28.8032 -8.20224,-42.79866 -0.78468,-2.82457 -1.84185,-5.56626 -2.76277,-8.34938 -20.43613,-48.93736 -89.644,-20.03632 -69.20788,28.90104 z"/>
<path d="m 543.65584,205.93825 c 20.8345,-6.44692 42.35723,-10.09218 63.86393,-13.42266 21.0937,-2.98405 42.37135,-4.5732 63.67816,-4.32592 10.89933,0.1265 14.05302,0.45146 24.58502,1.11502 9.74402,1.0022 19.78666,1.40931 29.1863,4.43448 -1.08554,-0.0759 -3.31921,-1.2725 -4.05506,-1.72452 -4.82424,-2.96349 -6.62812,-5.1522 -10.20905,-9.53671 -7.40567,-13.48523 -0.27119,0.14599 -4.15954,-8.58011 -0.0354,-0.0794 -0.13701,0.1373 -0.13325,0.22414 0.0605,1.39619 0.24159,2.7849 0.32411,4.17996 0.51232,8.66034 0.45355,10.26814 0.69164,19.9093 0.66047,32.56225 -1.97794,65.12169 -7.20835,97.25562 -1.22212,7.50828 -2.72836,14.96755 -4.09254,22.45132 -4.50813,21.31723 -8.86875,42.69911 -14.36251,63.79281 -1.53325,5.88702 -3.08557,11.77546 -4.95033,17.56601 -1.72885,5.36852 -3.88174,10.59113 -5.8226,15.88669 -17.96199,49.89857 52.60525,75.30065 70.56723,25.40208 v 0 c 2.49048,-7.01477 5.21694,-13.95018 7.47145,-21.04432 2.11926,-6.66854 3.88294,-13.44668 5.64204,-20.21916 5.8421,-22.49185 10.49053,-45.28728 15.25488,-68.02236 1.51598,-8.42403 3.19179,-16.82087 4.54794,-25.27211 5.81918,-36.26407 8.68353,-73.0024 7.92777,-109.73354 -0.26585,-9.91647 -0.27532,-15.14955 -0.96645,-24.67192 -0.54157,-7.46192 -1.25548,-15.39006 -4.08744,-22.40774 -1.11079,-2.75256 -2.66642,-5.30396 -3.99963,-7.95594 -1.53933,-1.98523 -2.95704,-4.07103 -4.61798,-5.95569 -5.85408,-6.64259 -14.00899,-10.6971 -22.28208,-13.402 -14.99804,-4.37424 -30.51715,-6.38517 -46.0836,-7.43613 -12.63381,-0.75491 -16.68896,-1.15089 -29.7165,-1.25317 -24.99393,-0.19622 -49.95474,1.67605 -74.69294,5.22067 -6.226,0.97797 -12.46759,1.86137 -18.678,2.93392 -19.04271,3.28871 -37.94472,7.50551 -56.43442,13.14534 -50.5204,16.13038 -27.7086,87.57702 22.8118,71.44664 z"/>
<path d="m 505.99374,424.4329 c 12.98973,-2.46246 25.88325,-5.43619 38.90529,-7.73149 14.57881,-2.56971 20.21819,-3.15151 35.32435,-5.17125 27.21488,-3.06093 54.56057,-5.19828 81.93913,-6.04069 13.66327,-0.42041 18.93681,-0.27732 32.14873,-0.19656 53.03221,0.28945 53.44156,-74.70943 0.40934,-74.99888 v 0 c -15.00049,-0.0731 -20.2966,-0.22366 -35.84607,0.26755 -29.62101,0.93571 -59.20557,3.26806 -88.64412,6.63729 -6.98699,0.94397 -13.98678,1.79756 -20.96096,2.8319 -19.10307,2.83318 -37.98331,6.82418 -56.90287,10.65052 -52.15026,9.63587 -38.52309,83.38748 13.62718,73.75161 z"/>
<path d="m 551.67447,390.1648 c -2.56348,12.60305 -2.81577,25.54004 -3.42231,38.34261 -0.6637,14.009 -1.05609,22.77349 -1.71043,37.12591 -2.10616,54.23264 -3.2267,108.49623 -4.96568,162.74088 -1.26448,40.27345 -2.61868,80.54708 -2.85727,120.84212 -0.30982,53.0321 74.6889,53.47026 74.99872,0.43816 v 0 c 0.22833,-39.64018 1.58602,-79.25888 2.82007,-118.87793 1.72704,-53.90685 2.84789,-107.83218 4.92634,-161.72754 0.74816,-16.41102 1.4006,-32.83267 2.28083,-49.23747 0.20939,-3.90257 0.68449,-7.78815 0.88092,-11.69139 0.006,-0.1129 -0.13349,0.18247 -0.20023,0.27371 12.88989,-51.4427 -59.86107,-69.67175 -72.75096,-18.22906 z"/>
<path d="m 621.12517,611.12528 c 22.23604,-1.76223 44.50614,-2.75367 66.8022,-3.28673 28.18555,-0.29606 56.36961,0.39998 84.54574,1.05095 53.01887,1.22471 54.75087,-73.75529 1.73201,-74.98 v 0 c -29.35895,-0.67807 -58.72662,-1.39768 -88.09526,-1.04893 -23.24606,0.57066 -46.46852,1.57141 -69.6526,3.41011 -52.93019,3.30071 -48.26229,78.15531 4.66791,74.8546 z"/>
<path d="m 374.30631,598.40385 c -3.5693,28.41237 -10.5292,56.29095 -16.65619,84.22708 -8.2916,40.1395 -19.5041,79.59893 -31.6704,118.71485 -2.96053,9.5184 -5.90962,19.0432 -9.13572,28.47489 -2.85479,8.3461 -6.0688,16.56497 -9.10319,24.84746 -3.25181,7.30274 -6.50362,14.60548 -9.75543,21.90822 -21.41014,48.51913 47.20626,78.79764 68.61641,30.27852 v 0 c 3.86351,-8.82183 7.72703,-17.64366 11.59054,-26.46549 3.35683,-9.22333 6.89921,-18.38123 10.07049,-27.67 3.361,-9.84443 6.43623,-19.78476 9.52264,-29.7187 12.72544,-40.95813 24.40447,-82.28659 33.12341,-124.30255 6.68944,-30.50068 14.21277,-60.94662 17.93669,-91.99366 5.86942,-52.70721 -68.66983,-61.00783 -74.53925,-8.30062 z"/>
<path d="m 397.93118,766.79163 c 23.84459,10.09065 47.62317,20.33556 71.54022,30.25975 6.95036,2.81382 13.88736,5.6609 20.85109,8.44146 17.31065,6.91201 27.41497,10.87496 45.05978,17.22778 22.70915,8.17616 45.66236,15.57941 68.65752,22.89794 33.30654,10.44846 66.97216,19.69004 100.79326,28.30799 15.10135,3.90721 30.33519,7.28476 45.69633,9.99228 19.75196,3.98527 39.8667,5.20678 59.94946,6.0959 18.96792,0.73144 37.94824,0.20305 56.91512,-0.19591 53.02103,-1.12727 51.42683,-76.11032 -1.5942,-74.98305 v 0 c -17.35668,0.37317 -34.72605,0.88592 -52.08483,0.2488 -16.83285,-0.70554 -33.69989,-1.63865 -50.24618,-5.04112 -13.49513,-2.34447 -26.8583,-5.38591 -40.12275,-8.79613 -32.40347,-8.25086 -64.65799,-17.09951 -96.57017,-27.09954 -21.87318,-6.95486 -43.71012,-13.98397 -65.31418,-21.74691 -16.93994,-6.08699 -26.30699,-9.76632 -42.99908,-16.42879 -6.76296,-2.69936 -13.49993,-5.46338 -20.24989,-8.19507 -24.40402,-10.12371 -48.6455,-20.62445 -73.00445,-30.84926 -49.40123,-19.28779 -76.67828,50.5761 -27.27705,69.86388 z"/>
</svg>
