<?xml version="1.0" ?>
<svg xmlns="http://www.w3.org/2000/svg" width="1000" height="1000">
<path d="m 326.83419,94.474083 c -0.17499,0.07938 -0.41452,0.0809 -0.52495,0.238148 -1.44205,2.05342 -2.64714,4.266304 -4.08331,6.323839 -6.5657,9.4063 -11.57309,15.44952 -19.10017,24.81752 -14.13442,17.59134 -22.77404,28.058 -37.46269,46.00937 -33.56215,40.15415 -68.20844,79.45452 -104.31349,117.34812 -21.07987,22.12411 -29.60588,30.28671 -50.92973,51.42231 -7.70639,7.0837 -15.41279,14.16741 -23.119187,21.25111 -39.01489,35.92128 11.785472,91.09667 50.800357,55.17539 v 0 c 8.37511,-7.72264 16.75021,-15.44529 25.12532,-23.16793 22.29092,-22.109 30.90104,-30.34784 52.96016,-53.51535 37.21325,-39.08305 72.93169,-79.60632 107.52232,-121.01954 12.22662,-14.94348 26.04794,-31.74081 38.20477,-46.93105 12.65485,-15.81251 25.67101,-31.69246 34.53476,-50.04373 19.73408,-49.224652 -49.88008,-77.132856 -69.61416,-27.908207 z"/>
<path d="m 218.04142,285.48849 c -1.78236,22.37438 -2.66338,44.8035 -3.52165,67.22799 -1.72915,56.19426 -2.62122,112.40571 -4.53174,168.59541 -2.69674,67.85175 -5.95706,135.67872 -8.65203,203.53059 -1.84133,47.84599 -2.49968,95.72196 -2.50521,143.59962 0.0521,16.67865 0.0157,8.89392 0.10022,23.35423 0.31071,53.03209 75.30942,52.59268 74.99871,-0.43942 v 0 c -0.0832,-14.17551 -0.0473,-6.53961 -0.0989,-22.90774 0.003,-46.8877 0.64469,-93.77369 2.44613,-140.63048 2.70007,-67.99527 5.97212,-135.96538 8.66788,-203.96079 1.90304,-56.0838 2.81306,-112.18858 4.52026,-168.27731 0.8158,-21.38006 1.64209,-42.76527 3.33644,-64.09793 4.23852,-52.86336 -70.52156,-58.85753 -74.76008,-5.99417 z"/>
<path d="m 670.56909,63.097553 c -28.25724,23.427518 -58.93891,43.680677 -89.37382,64.113847 -49.3403,33.06858 -100.38441,63.42447 -151.72452,93.24698 -45.85655,26.63976 -8.18224,91.49071 37.67431,64.85095 v 0 c 52.74481,-30.64427 105.17417,-61.85574 155.86343,-95.83514 32.89723,-22.09844 66.02097,-44.06403 96.46824,-69.51678 40.20599,-34.582922 -8.70165,-91.442778 -48.90764,-56.859857 z"/>
<path d="m 581.9508,196.24974 c -4.33331,6.06586 -3.45408,4.79096 -8.61669,12.28289 -6.69261,9.71224 -7.4504,11.17925 -14.9071,20.90361 -9.70666,12.65856 -12.57053,15.73338 -23.27289,28.42934 -20.18835,23.13796 -41.28615,45.54137 -64.17575,66.04171 -11.72566,10.50172 -18.83534,16.0623 -30.87899,25.86102 -10.56621,8.35327 -21.26858,16.53943 -32.19397,24.41862 -0.31744,0.22893 -10.40071,7.30394 -11.31348,8.06291 -2.48576,2.06695 -4.78413,4.34939 -7.17619,6.52408 -12.15742,35.69014 -20.12999,31.47724 12.24155,62.97727 3.73946,3.63879 9.8412,3.5115 14.89081,4.8252 3.88911,1.01179 7.8964,1.50417 11.86505,2.1356 7.92806,1.26137 18.43704,2.47407 26.33436,3.44293 25.03062,2.75692 49.82617,7.14066 74.33745,12.86932 9.86419,2.52095 5.21817,1.29745 13.94372,3.64888 51.2136,13.77196 70.6901,-58.65501 19.4765,-72.42697 v 0 c -10.20044,-2.73797 -4.72957,-1.30464 -16.42047,-4.2699 -27.12392,-6.2892 -54.53912,-11.21082 -82.22788,-14.26608 -9.22283,-1.12533 -13.8552,-1.63298 -22.74245,-2.91489 -2.2136,-0.31929 -4.41772,-1.38302 -6.62809,-1.04211 -0.93589,0.14435 1.76097,0.91326 2.26477,1.71509 5.90557,9.39915 15.67991,17.68159 16.85749,28.7194 1.04032,9.75129 -7.25151,18.22348 -10.87727,27.33522 -0.749,0.51398 -2.97061,2.09114 -2.24701,1.54195 2.12627,-1.61378 10.70086,-7.62278 11.76354,-8.39029 6.58737,-4.75763 14.71295,-10.8206 21.02472,-15.67557 4.76105,-3.66218 9.4691,-7.39274 14.20365,-11.08911 13.85388,-11.30454 21.0962,-16.95535 34.66276,-29.16102 25.08532,-22.56894 48.27316,-47.15293 70.40472,-72.59826 4.77018,-5.67938 9.62526,-11.28851 14.31053,-17.03813 13.1562,-16.14487 25.03188,-33.18691 36.85522,-50.30834 30.09048,-43.66994 -31.66813,-86.2243 -61.75861,-42.55437 z"/>
<path d="m 615.99294,331.90417 c -0.15506,0.13288 -0.34297,0.23505 -0.46518,0.39865 -4.82904,6.46454 -0.94292,2.10209 -7.56636,9.96264 -9.90063,11.74985 -20.91228,22.30408 -31.93118,32.98838 -38.90578,35.7296 -79.87132,69.15194 -121.34164,101.84168 -6.31498,4.89754 -12.6144,9.81519 -18.94493,14.69261 -13.71848,10.56954 -18.11419,13.86989 -31.45937,23.85356 -3.52916,2.6402 -17.03176,12.63461 -21.20582,15.91984 -2.55625,2.01192 -5.0222,4.13598 -7.53329,6.20397 -13.2157,13.9391 -25.08757,23.14061 -11.3394,51.86846 5.7931,12.10513 22.12417,15.65312 34.61635,20.55617 5.08572,1.9961 10.93602,-0.0961 16.38137,-0.5401 8.27403,-0.67467 25.75668,-3.66494 33.64302,-4.93442 36.6821,-6.18942 73.58491,-11.07906 110.64239,-14.36827 7.63426,-0.67762 15.28048,-1.21303 22.92072,-1.81955 28.24571,-2.06513 56.5605,-2.88687 84.87173,-3.31377 53.0269,-0.80491 51.88858,-75.79627 -1.13832,-74.99136 v 0 c -29.91876,0.45701 -59.84072,1.34156 -89.68907,3.54197 -8.09676,0.6471 -16.19985,1.2194 -24.29029,1.94129 -38.61052,3.44512 -77.06228,8.53405 -115.28545,14.97078 -5.23771,0.85063 -10.46898,1.74183 -15.71311,2.55188 -3.72442,0.57531 -7.4767,0.96902 -11.1914,1.60401 -0.99835,0.17066 -3.65511,0.10395 -2.92863,0.80969 9.45758,9.18746 59.57998,35.32657 16.39489,59.8388 8.33679,-6.99833 17.1549,-13.33714 25.86865,-19.85765 17.41095,-13.02864 34.70334,-26.21399 51.81633,-39.63254 43.49464,-34.30144 86.46727,-69.36911 127.18186,-106.95827 19.99865,-19.48282 40.69185,-39.10238 54.73805,-63.52727 23.75962,-47.41287 -43.2923,-81.01405 -67.05192,-33.60118 z"/>
<path d="m 776.47337,497.71815 c 4.01765,4.89759 7.81891,9.98998 10.8214,15.5903 0.95151,1.77479 1.74884,3.62802 2.62327,5.44203 2.13977,5.01456 3.95476,10.31174 3.65637,15.85928 -0.0936,1.74036 -0.52671,3.44574 -0.79007,5.1686 -2.35919,52.98051 72.56656,56.31691 74.92576,3.33641 v 0 c 0.0822,-6.0371 0.62217,-12.08532 0.24657,-18.11128 -0.87391,-14.02052 -5.35751,-27.4579 -11.12795,-40.13458 -1.84041,-3.54734 -3.55517,-7.16275 -5.52122,-10.64204 -6.49391,-11.49215 -14.58216,-22.15055 -23.86151,-31.52501 -38.90239,-36.04308 -89.87501,18.9732 -50.97262,55.01629 z"/>
<path d="m 530.13775,596.83143 c 1.09805,25.18758 2.0729,50.37563 2.71055,75.58061 0.94891,42.91656 0.70091,85.83614 -1.10223,128.72352 -1.37458,26.10949 -3.53359,52.24033 -8.07753,78.00802 -0.33359,1.54555 -0.66717,3.0911 -1.00076,4.63664 -10.93144,51.89416 62.45798,67.35356 73.38942,15.4594 v 0 c 0.50078,-2.41538 1.00156,-4.83077 1.50234,-7.24616 4.98975,-29.00064 7.69483,-58.34407 9.12117,-87.72745 0.29976,-7.21902 0.66222,-14.43571 0.89928,-21.65706 1.22624,-37.35335 0.82923,-74.73781 0.24419,-112.09868 -0.62481,-24.57023 -1.46092,-49.13071 -2.68643,-73.67884 0,-53.03301 -75,-53.03301 -75,0 z"/>
<path d="m 380.07447,695.85575 c -0.38417,1.84794 -0.7911,3.6913 -1.15253,5.54383 -2.23301,11.44532 -4.31327,22.89827 -6.89773,34.27469 -2.08901,9.19553 -5.69817,23.67418 -7.90759,32.65361 -5.20403,20.92244 -9.92519,41.95931 -14.48148,63.03066 -11.20384,51.83603 62.10337,67.68066 73.30722,15.84463 v 0 c 4.403,-20.38005 8.96938,-40.72597 14.00337,-60.961 6.04051,-24.56454 11.92912,-49.1614 16.335,-74.08169 11.52918,-51.76464 -61.67707,-68.06937 -73.20626,-16.30473 z"/>
<path d="m 757.53423,766.91236 c 10.80929,7.23835 20.49389,15.8395 29.66723,25.02078 7.44375,7.65094 14.58437,15.58591 21.61275,23.61731 34.9356,39.89993 91.36262,-9.50647 56.42702,-49.40639 v 0 c -8.18298,-9.34139 -16.50172,-18.56694 -25.19898,-27.43545 -11.1379,-10.99386 -22.66867,-21.68879 -35.71989,-30.41255 -41.44798,-33.08421 -88.23611,25.5321 -46.78813,58.6163 z"/>
</svg>
