<?xml version="1.0" ?>
<svg xmlns="http://www.w3.org/2000/svg" viewBox="0 0 1000 1000">
<path d="m 337.43314,90.900653 c -0.0531,-0.107232 -0.0914,-0.420177 -0.15945,-0.321696 -1.28327,1.858362 -2.37291,3.84343 -3.58731,5.747517 -4.57093,7.166896 -11.24229,17.465676 -15.95807,24.015586 -11.26985,15.65309 -16.40435,21.31301 -29.24153,36.91198 -6.86708,8.12606 -13.72073,16.26348 -20.60122,24.37819 -20.45507,24.12425 -27.38014,32.56222 -48.97162,56.19142 -25.6921,28.11681 -52.41198,55.26213 -79.08867,82.4362 -29.16129,30.04324 -15.23365,15.61007 -41.80328,43.27984 -36.731067,38.25348 17.36752,90.19906 54.09859,51.94558 v 0 c 26.19123,-27.27789 12.45543,-13.04236 41.22771,-42.68699 27.51603,-28.03426 55.06214,-56.04883 81.54992,-85.0671 22.07722,-24.18636 29.51633,-33.204 50.27775,-57.69638 7.10955,-8.38718 14.18973,-16.79922 21.2846,-25.19883 6.22405,-7.6015 12.59964,-15.0814 18.67214,-22.80451 10.81097,-13.74957 15.81517,-21.00401 25.04585,-34.92945 1.99676,-3.01231 9.89713,-15.25742 12.27512,-19.42089 1.52687,-2.67331 2.87189,-5.44645 4.30784,-8.16968 20.23088,-49.022558 -49.09749,-77.633347 -69.32837,-28.610787 z"/>
<path d="m 210.97637,274.54512 c 2.82891,27.07741 5.99643,54.11834 8.87219,81.19154 5.17957,50.12864 8.13514,100.48096 9.24831,150.86114 0.26592,12.03509 0.34037,24.07365 0.51055,36.11048 0.60379,68.96595 -1.62926,137.9086 -5.40467,206.7605 -2.30335,40.89391 -5.66214,81.71931 -9.509,122.49413 -0.33142,3.44478 -0.66284,6.88957 -0.99426,10.33436 -5.07846,52.78929 69.57687,59.97132 74.65533,7.18203 v 0 c 0.33588,-3.49157 0.67176,-6.98315 1.00763,-10.47472 3.93606,-41.75377 7.3731,-83.55913 9.72809,-125.4348 3.85986,-70.57433 6.14611,-141.24139 5.50924,-211.93211 -0.17931,-12.44374 -0.25897,-24.88931 -0.53792,-37.33121 -1.17175,-52.26172 -4.25556,-104.49309 -9.63306,-156.49368 -2.80072,-26.35466 -5.83458,-52.68271 -8.67433,-79.03267 -4.07647,-52.8761 -78.85458,-47.1111 -74.7781,5.76501 z"/>
<path d="m 542.40996,153.82024 c -0.10239,0.0803 -0.41815,0.17295 -0.30717,0.24088 1.46907,0.89917 3.07083,1.56172 4.58713,2.37875 2.66034,1.43348 5.33584,2.84234 7.94189,4.37231 11.03316,6.47735 21.33489,13.94482 31.65275,21.4827 3.59855,2.80637 7.19711,5.61275 10.79566,8.41912 41.86491,32.55502 87.90466,-26.65091 46.03975,-59.20593 v 0 c -4.236,-3.28594 -8.47201,-6.57189 -12.70802,-9.85783 -16.51833,-11.97919 -32.65587,-23.386228 -50.90831,-32.651163 -3.40473,-1.728236 -6.82885,-3.43342 -10.35729,-4.892554 -3.0234,-1.25028 -6.18031,-2.149475 -9.27047,-3.224212 -51.5749,-12.350273 -69.04082,60.587659 -17.46592,72.937929 z"/>
<path d="m 387.74285,341.31431 c 23.21452,-8.4066 47.63303,-13.17754 71.72584,-18.30798 42.55013,-8.55089 85.58412,-14.72233 128.80429,-18.6711 30.37841,-2.7755 42.28016,-3.10326 72.69942,-4.69528 59.60568,-2.49943 119.28256,-1.47559 178.87003,0.89997 5.92504,0.27732 11.85008,0.55463 17.77512,0.83195 52.97515,2.47673 56.47778,-72.44144 3.50263,-74.91817 v 0 c -6.09894,-0.28484 -12.19788,-0.56968 -18.29682,-0.85452 -61.8947,-2.45663 -123.88227,-3.49554 -185.79395,-0.85551 -32.25618,1.70767 -44.43653,2.03935 -76.70809,5.01427 -45.80762,4.22274 -91.41404,10.80525 -136.50836,19.9006 -27.90709,5.96959 -56.12647,11.65335 -82.94107,21.63469 -49.51238,19.00064 -22.64141,89.02172 26.87096,70.02108 z"/>
<path d="m 510.45222,456.63538 c 21.38916,-5.41994 43.22438,-8.80551 64.98459,-12.32743 32.72504,-4.99128 65.73981,-8.3392 98.84356,-9.24574 17.83002,-0.48828 25.58323,-0.10267 43.0072,0.30178 15.29256,0.49718 30.55425,1.71517 45.66312,4.13113 52.40362,8.14621 63.92411,-65.9637 11.52049,-74.10991 v 0 c -18.38545,-2.80162 -36.90775,-4.50467 -55.50936,-5.00253 -19.85282,-0.42755 -27.79451,-0.83219 -48.1858,-0.23856 -35.95162,1.04663 -71.80502,4.6926 -107.3454,10.13106 -18.98603,3.08479 -24.06295,3.75994 -42.25208,7.24908 -11.51208,2.20832 -23.14034,4.51412 -34.35124,8.00626 -1.74643,0.54401 -3.44397,1.23406 -5.16596,1.85109 -48.96981,20.35822 -20.17894,89.61199 28.79088,69.25377 z"/>
<path d="m 516.39844,598.37793 c 12.82593,-5.89557 26.1923,-10.64215 39.89976,-14.04182 4.89279,-1.21349 9.84962,-2.15235 14.77444,-3.22852 32.86096,-5.7803 66.20086,-8.94172 99.54488,-10.01477 6.71662,-0.21614 13.43829,-0.22547 20.15743,-0.33821 16.67815,0.13812 33.40198,0.68265 49.95638,2.86975 9.37644,1.23878 11.85043,1.98514 20.55931,3.96021 51.79637,11.38579 67.89831,-61.86533 16.10194,-73.25112 v 0 c -4.41394,-0.9493 -8.80089,-2.03421 -13.24183,-2.8479 -24.6253,-4.51193 -49.71021,-5.61814 -74.69736,-5.7193 -7.47209,0.13736 -14.94711,0.16172 -22.41627,0.41209 -37.63033,1.26135 -75.25679,4.91819 -112.2951,11.72876 -6.36169,1.44178 -12.76389,2.71524 -19.08507,4.32535 -16.84226,4.28999 -33.28591,10.16525 -49.10668,17.34078 -48.65227,21.10584 -18.80411,89.91054 29.84817,68.8047 z"/>
<path d="m 384.03466,709.82755 c 8.09517,13.76546 14.84102,28.22712 20.3858,43.19892 1.82412,4.9254 3.46874,9.91543 5.20311,14.87315 10.53576,30.85428 17.5348,62.71884 22.94714,94.82123 0.46907,3.31719 0.93814,6.63438 1.4072,9.95158 7.49168,52.50119 81.73957,41.90636 74.2479,-10.59483 v 0 c -0.56942,-3.96042 -1.13883,-7.92085 -1.70825,-11.88127 -6.17322,-36.30088 -14.15921,-72.3252 -26.14863,-107.19838 -2.08688,-5.89843 -4.05804,-11.83908 -6.26066,-17.69528 -6.86445,-18.25083 -15.15857,-35.9074 -24.99118,-52.74812 -26.35599,-46.02023 -91.43843,-8.74723 -65.08243,37.273 z"/>
<path d="m 471.68553,727.06142 c 19.64506,-8.78266 41.00074,-12.84537 61.9489,-17.18073 45.99703,-8.3962 92.67402,-11.98191 139.28281,-14.88255 34.2194,-1.87767 68.49449,-3.59309 102.76615,-2.40793 6.71463,0.35645 13.42574,0.80993 20.10182,1.62448 1.55758,0.19004 4.73333,0.3904 6.33872,0.95647 -6.61013,-1.6527 -10.95469,-2.31136 -16.78695,-8.78156 -4.47413,-4.96353 -7.06488,-11.37596 -9.95244,-17.40228 -0.7383,-1.54082 -0.18442,-3.47165 -0.81109,-5.06115 -0.25142,-0.63772 -0.28079,1.34248 -0.38809,2.01952 -0.35629,2.24801 -0.66831,4.50281 -1.00246,6.75422 -4.06149,24.19868 -8.34085,48.38603 -13.68417,72.34063 -1.38083,6.19036 -2.92573,12.34298 -4.3886,18.51448 -8.15826,31.05945 -19.40003,61.2473 -32.2035,90.67009 -21.10776,48.65144 47.69576,78.50233 68.80352,29.85089 v 0 c 14.50418,-33.51615 27.28728,-67.86779 36.38964,-103.27249 1.60583,-6.81418 3.29649,-13.60892 4.81749,-20.44253 5.6602,-25.43029 10.20239,-51.10599 14.47494,-76.79939 0.53443,-3.69124 2.09836,-13.61888 2.14822,-17.41052 0.0521,-3.95739 0.67491,-8.11399 -0.60937,-11.85756 -2.55416,-7.44514 -5.67881,-14.9829 -10.68292,-21.05849 -6.50284,-7.89522 -13.14746,-9.14532 -21.45936,-11.61616 -12.73497,-2.38642 -25.68312,-3.34645 -38.6106,-3.98714 -36.66308,-1.18016 -73.3244,0.40417 -109.93052,2.51193 -50.17727,3.13728 -100.42425,7.08813 -149.91218,16.314 -28.43174,5.95921 -57.44909,11.8732 -83.49169,25.27624 -46.19354,26.05104 -9.35181,91.37858 36.84173,65.32753 z"/>
<path d="m 497.6613,902.47409 c 19.14968,-5.06912 38.94919,-6.93087 58.60257,-8.86059 34.5042,-2.7935 69.1138,-4.69347 103.73976,-4.79747 6.37432,-0.0191 12.74819,0.11421 19.12228,0.17131 24.53141,0.40779 48.94445,3.04052 73.08274,7.32111 52.22664,9.21294 65.25569,-64.64668 13.02906,-73.85962 v 0 c -28.23702,-4.95899 -56.78801,-8.02755 -85.47805,-8.45881 -6.94336,-0.0554 -13.88654,-0.19166 -20.83008,-0.1663 -36.73934,0.13419 -73.46187,2.14829 -110.06907,5.15608 -24.41912,2.44402 -49.00354,4.96686 -72.70592,11.64402 -50.80581,15.20754 -29.2991,87.05781 21.50671,71.85027 z"/>
</svg>
