<?xml version="1.0" ?>
<svg xmlns="http://www.w3.org/2000/svg" viewBox="0 0 1000 1000">
<path d="m 469.11204,75.052746 c -11.91682,32.728484 -26.9786,64.194344 -41.82303,95.662044 -25.18344,51.38444 -51.67756,102.13241 -80.98179,151.30182 -20.12499,33.76762 -31.15294,50.4359 -52.38839,83.65028 -29.68982,43.64986 -25.48114,38.38038 -56.66734,80.60042 -19.88641,26.92231 -34.83342,46.5411 -55.6739,72.49559 -18.6773,23.2605 -31.11169,37.70926 -50.15156,60.24544 -7.4345,8.24121 -14.86901,16.48241 -22.30351,24.72362 -35.500445,39.3982 20.21702,89.60341 55.71747,50.20521 v 0 c 7.96046,-8.84403 15.92092,-17.68806 23.88137,-26.53209 19.82582,-23.47572 32.34125,-38.01445 51.82325,-62.29684 41.13829,-51.27483 80.2027,-104.2857 116.56883,-159.05024 21.99057,-34.4157 33.26183,-51.45087 54.12511,-86.50577 30.34244,-50.98197 57.81706,-103.57665 83.88808,-156.85217 11.9011,-25.25327 15.3848,-32.15256 26.10047,-56.60941 6.85705,-15.65014 14.36829,-32.7089 19.46138,-49.093847 0.93643,-3.012568 1.5522,-6.115597 2.3283,-9.173396 9.03022,-52.258541 -64.87452,-65.029202 -73.90474,-12.770661 z"/>
<path d="m 490.45125,168.96435 c 1.71844,1.02463 4.21879,2.46095 5.83492,3.64425 10.69957,7.83403 20.18617,18.51923 29.23024,28.07948 32.42132,35.25062 58.55079,75.49911 84.21199,115.74945 19.05198,29.93121 36.93034,60.588 56.00902,90.50209 10.75339,16.8606 14.2723,21.93341 25.15804,38.19792 13.97059,20.3731 29.02726,40.1279 46.31854,57.82451 10.10366,10.34051 12.34868,11.81613 23.2812,21.10346 25.89053,20.1715 55.14909,35.44944 84.24579,50.39683 24.43501,11.26447 11.78688,5.82439 37.9853,16.22481 49.34182,19.43926 76.83308,-50.34062 27.49126,-69.77987 v 0 c -21.40992,-8.35537 -11.00149,-3.94354 -31.24903,-13.17931 -13.81651,-7.0737 -27.51247,-14.30858 -40.96423,-22.0608 -6.74791,-3.8888 -14.19898,-8.31067 -20.65754,-12.73713 -2.9215,-2.00229 -5.72066,-4.17748 -8.581,-6.26622 -7.57152,-6.27369 -9.51836,-7.58146 -16.56593,-14.70725 -14.62344,-14.78576 -27.2292,-31.43843 -38.98344,-48.54555 -10.29329,-15.36761 -13.78877,-20.4109 -23.95077,-36.33579 -19.18504,-30.06489 -37.13111,-60.89734 -56.30496,-90.96985 -11.48807,-18.00275 -19.29707,-30.56386 -31.35195,-48.17 -18.88104,-27.57574 -39.14148,-54.27319 -61.73932,-78.92664 -15.33362,-16.06016 -30.78946,-32.68764 -50.17455,-43.95794 -45.1937,-27.7494 -84.43728,36.16415 -39.24358,63.91355 z"/>
<path d="m 456.84367,376.53393 c 15.16657,7.71443 28.58429,18.21971 41.71561,28.91972 41.16595,33.43448 88.44945,-24.78296 47.2835,-58.21744 v 0 c -17.05918,-13.81801 -34.61963,-27.17171 -54.25963,-37.17158 -47.00089,-24.56453 -81.74038,41.90478 -34.73948,66.4693 z"/>
<path d="m 392.87229,512.81343 c 18.32942,-3.85759 36.39764,-8.81625 54.78523,-12.41598 6.16313,-1.20656 12.35636,-2.25386 18.53455,-3.38079 39.10392,-6.9199 78.66044,-10.53559 118.20176,-13.81167 14.2757,-0.9906 28.61369,-2.02775 42.93044,-1.39485 -2.87891,-0.48627 7.84891,0.69468 4.79551,0.3621 -14.01563,-1.52659 -15.4294,-7.43801 -27.38236,-18.44984 -1.18402,-3.32858 -2.06507,-6.78102 -3.55206,-9.98574 -0.22407,-0.48291 -0.30251,1.02682 -0.35926,1.55615 -0.2839,2.64828 -0.42836,5.30971 -0.66122,7.96297 -0.66975,7.63152 -1.89564,21.06287 -2.73098,28.21817 -0.69805,5.9794 -1.55266,11.93947 -2.32899,17.90921 -6.00586,41.56941 -17.27623,82.10394 -27.73666,122.70759 -3.42915,14.83324 -8.40511,29.18215 -13.70758,43.42024 -18.34876,49.75764 52.01917,75.70671 70.36794,25.94906 v 0 c 1.89091,-5.16785 3.9076,-10.2914 5.67273,-15.50355 4.9713,-14.6795 6.21142,-20.14722 10.29548,-35.15506 11.2311,-43.59553 23.21832,-87.14188 29.48937,-131.80454 2.14184,-16.66337 4.06003,-33.16379 5.45121,-49.90406 0.36872,-4.43689 1.57604,-18.03728 0.89905,-22.5822 -0.84551,-5.6762 -2.80106,-11.13062 -4.20159,-16.69593 -6.16767,-6.15967 -11.5253,-13.25472 -18.50302,-18.479 -5.03447,-3.76935 -16.16017,-3.99738 -22.77041,-4.46405 -17.40089,-0.66545 -34.81487,0.25064 -52.16557,1.58986 -41.99348,3.48512 -83.99604,7.39339 -125.51793,14.78273 -6.85454,1.26049 -13.72606,2.43188 -20.56361,3.78148 -18.09379,3.57138 -35.90198,8.33091 -53.919,12.23781 -52.00763,10.37818 -37.33066,83.92807 14.67697,73.54989 z"/>
<path d="m 433.2244,609.3122 c 17.35675,-3.31039 34.55135,-7.44617 51.95775,-10.50765 5.48518,-0.96475 10.9994,-1.75636 16.49911,-2.63454 16.59183,-2.28928 33.29863,-3.94145 50.06461,-3.94378 11.09572,-0.002 16.50588,0.60094 27.322,1.42257 52.89286,3.85294 58.34174,-70.94886 5.44888,-74.8018 v 0 c -14.4751,-1.01887 -20.17046,-1.67495 -35.15534,-1.58286 -19.9563,0.12264 -39.84464,2.07384 -59.58916,4.85741 -6.27776,1.01595 -12.57079,1.94168 -18.83328,3.04787 -16.75629,2.95978 -33.33341,6.83667 -50.01756,10.15875 -52.31461,8.69953 -40.01162,82.68356 12.30299,73.98403 z"/>
<path d="m 393.81635,712.29574 c 24.21231,-6.09545 48.90057,-9.86647 73.60378,-13.29492 33.62705,-4.62481 67.53031,-6.21996 101.41973,-7.32153 53.00469,-1.73286 50.55406,-76.69281 -2.45064,-74.95995 v 0 c -36.53416,1.20089 -73.07909,2.99544 -109.32684,8.00015 -26.3915,3.69573 -52.78597,7.68888 -78.66402,14.17812 -51.90032,10.90216 -36.48233,84.30029 15.41799,73.39813 z"/>
<path d="m 345.11463,507.7759 c 1.46012,17.22464 0.89775,34.55944 0.56538,51.81828 -1.00756,38.78778 -9.86833,76.7802 -22.03883,113.48058 -3.14721,9.49048 -6.72193,18.8338 -10.08289,28.2507 -19.46385,49.33304 -43.37164,97.04658 -72.32083,141.52533 -5.49573,8.44386 -11.38185,16.6271 -17.07277,24.94066 -21.85416,28.74166 -10.70091,15.16839 -33.30213,40.84882 -34.89203,39.93803 21.58888,89.28281 56.48091,49.34478 v 0 c 26.66097,-30.70274 13.71591,-14.75235 38.76448,-47.90847 6.312,-9.26946 12.83931,-18.39591 18.936,-27.80839 31.73185,-48.98974 57.96373,-101.4948 79.18545,-155.8311 3.73053,-10.54054 7.70855,-20.99673 11.1916,-31.62162 14.19115,-43.2896 24.11244,-88.13151 25.2457,-133.80838 0.3975,-21.53424 1.12222,-43.22354 -1.42803,-64.66037 -8.08165,-52.41362 -82.2057,-40.98443 -74.12404,11.42918 z"/>
<path d="m 352.61242,813.10134 c 0.28492,0.11811 1.13517,0.48272 0.85475,0.35432 -4.65212,-2.13016 -7.7585,-4.20167 -11.29665,-8.07662 -2.71354,-2.97185 -2.12529,-4.73038 -2.60847,-2.50413 3.28536,20.6987 4.03439,41.69142 4.80578,62.60152 0.68934,19.80959 1.12723,39.62705 1.39619,59.44652 0.7209,53.02811 75.71397,52.00859 74.99307,-1.01951 v 0 c -0.27793,-20.4088 -0.72909,-40.81552 -1.44106,-61.21408 -1.00523,-26.83444 -1.87118,-53.91774 -7.59058,-80.2459 -1.15147,-3.60354 -1.96858,-7.33158 -3.45439,-10.81062 -5.60944,-13.13457 -14.4806,-22.97996 -27.85744,-28.18847 -49.25492,-19.65841 -77.05611,49.99856 -27.8012,69.65697 z"/>
<path d="m 392.09958,823.37275 c 24.99441,-5.37269 49.79629,-11.58483 74.69204,-17.39038 35.08848,-7.7166 70.72951,-13.0497 106.54652,-15.90678 5.36851,-0.42824 10.74963,-0.68022 16.12445,-1.02033 16.00995,-0.83291 32.08846,-0.56483 47.90845,2.14082 1.00538,0.1958 3.4618,0.66032 4.59618,0.92593 0.0467,0.0109 0.16954,0.0858 0.12287,0.0748 -7.79575,-1.83609 -11.10924,-6.3936 -17.63504,-11.90444 -1.88741,-3.63458 -3.77483,-7.26915 -5.66225,-10.90373 -0.24784,-0.62813 -0.47204,-2.50268 -0.74352,-1.88439 -0.60595,1.38004 -0.24149,3.00518 -0.40641,4.50336 -0.3405,3.09319 -0.67477,6.18811 -1.1097,9.26944 -1.64205,11.63332 -2.66335,16.38158 -4.87673,28.3762 -5.69766,27.19561 -9.80267,55.00108 -19.18703,81.27412 -1.23922,3.4694 -2.77265,6.82657 -4.15897,10.23986 -1.31731,2.65841 -2.63462,5.31682 -3.95193,7.97522 -23.0255,47.7737 44.53671,80.33668 67.56221,32.56299 v 0 c 2.04058,-4.30859 4.08115,-8.61718 6.12173,-12.92577 1.98744,-5.10677 4.15669,-10.14646 5.96233,-15.3203 10.21223,-29.26192 15.27304,-59.99574 21.41973,-90.26832 2.88513,-15.79785 5.99697,-31.62715 7.13641,-47.67823 0.43415,-6.1158 0.87427,-17.88687 -0.92012,-23.96149 -1.62988,-5.51769 -4.57968,-10.55614 -6.86951,-15.83421 -4.24514,-3.85783 -8.15083,-8.12594 -12.73541,-11.5735 -2.03426,-1.52974 -4.56982,-2.25252 -6.9271,-3.21251 -4.9218,-2.00439 -10.30404,-2.62936 -15.45895,-3.72308 -21.48669,-3.49927 -43.26568,-4.27038 -65.00116,-2.99812 -6.11933,0.39918 -12.24567,0.70244 -18.35799,1.19752 -39.17869,3.17335 -78.15738,9.05676 -116.53497,17.53538 -24.82621,5.79167 -49.56007,11.9821 -74.4846,17.34231 -51.68076,11.89952 -34.85229,84.98716 16.82847,73.08763 z"/>
<path d="m 416.16517,953.68929 c 20.77695,-1.99125 41.28112,-6.07854 61.98559,-8.65039 5.88712,-0.73128 11.7962,-1.27339 17.6943,-1.91009 23.97875,-2.115 48.07877,-2.8251 72.13619,-1.94556 10.94749,0.40024 14.51684,0.7906 24.91587,1.63033 2.73487,0.30452 5.46974,0.60904 8.20461,0.91356 52.71884,5.76394 60.87029,-68.79177 8.15145,-74.55571 v 0 c -3.47148,-0.37405 -6.94295,-0.74809 -10.41443,-1.12213 -12.25803,-0.96094 -16.39555,-1.40628 -29.25456,-1.84892 -27.30639,-0.93995 -54.65926,-0.10169 -81.86873,2.37033 -6.69043,0.73592 -13.39224,1.37496 -20.0713,2.20776 -18.76446,2.33971 -37.36408,5.8628 -56.14689,8.05622 -52.9302,3.30071 -48.26229,78.1553 4.6679,74.8546 z"/>
</svg>
