<?xml version="1.0" ?>
<svg xmlns="http://www.w3.org/2000/svg" width="1000" height="1000">
<path d="m 321.62223,117.22516 c -0.0249,-0.20862 0.0433,-0.79966 -0.0748,-0.62587 -1.39677,2.05541 -2.54264,4.27073 -3.84172,6.38925 -2.00195,3.26475 -3.98913,6.5394 -6.0611,9.76017 -11.28689,17.54485 -23.24504,34.67929 -34.97464,51.9267 -38.05426,54.25992 -79.32226,106.19545 -121.2609,157.48237 -17.79838,21.84138 -36.40529,42.99218 -55.09317,64.06866 -35.177739,39.6866 20.94759,89.43544 56.12534,49.74884 v 0 c 19.34244,-21.82828 38.60482,-43.73021 57.03167,-66.3455 43.32436,-52.99982 85.95049,-106.67378 125.21463,-162.7783 6.62786,-9.74609 20.17919,-29.61738 27.11631,-40.01299 7.14463,-10.70659 14.40243,-21.51499 20.70653,-32.75833 1.64956,-2.94199 3.15078,-5.96473 4.72616,-8.94709 19.73388,-49.224734 -49.88041,-77.132643 -69.61428,-27.90791 z"/>
<path d="m 239.01957,301.92 c 1.9561,16.94077 4.31169,33.83121 6.47527,50.74622 5.84376,45.7972 10.15825,91.7621 13.55713,137.79916 2.5404,38.54129 3.73308,77.1853 3.14522,115.81026 -0.37524,24.65558 -1.01018,34.30646 -2.14492,58.86629 -2.7328,51.07878 -8.27889,101.94886 -13.39157,152.82903 -2.26629,22.56093 -1.1721,11.82442 -3.27403,32.21042 -5.43875,52.75339 69.1658,60.44494 74.60456,7.69156 v 0 c 2.12163,-20.58063 1.02108,-9.77973 3.29368,-32.40351 5.24803,-52.22879 10.92297,-104.4488 13.68827,-156.88414 1.19039,-26.03182 1.84124,-35.88303 2.22361,-62.06253 0.59231,-40.55331 -0.66929,-81.12551 -3.34917,-121.58996 -3.51017,-47.36794 -7.93853,-94.6637 -13.95924,-141.78502 -2.28624,-17.86338 -4.68942,-35.7116 -6.89375,-53.58455 -8.73755,-52.30827 -82.71261,-39.9515 -73.97506,12.35677 z"/>
<path d="m 569.17316,158.5828 c 7.59941,5.63383 15.49069,10.88087 22.5434,17.21779 5.41267,4.86333 8.14978,7.99217 13.16185,13.3082 1.89327,2.17128 3.78654,4.34256 5.67981,6.51384 34.9969,39.84616 91.34789,-9.64693 56.35099,-49.49309 v 0 c -2.57979,-2.92158 -5.15957,-5.84316 -7.73936,-8.76474 -8.14834,-8.48426 -10.74665,-11.54284 -19.704,-19.40023 -9.25154,-8.11546 -19.38834,-15.10552 -29.38695,-22.244479 -44.45064,-28.92473 -85.35639,33.937979 -40.90574,62.862709 z"/>
<path d="m 456.3573,305.1874 c 17.78502,-4.97149 35.67991,-9.53063 53.81325,-13.06323 7.25428,-1.41322 14.54407,-2.63754 21.81611,-3.95631 45.46248,-7.19427 91.20983,-13.12853 137.19386,-15.6639 8.19408,-0.45179 16.40004,-0.65349 24.60006,-0.98023 21.83146,-0.70742 43.61843,0.61826 65.33162,2.7146 52.79348,5.03474 59.91368,-69.62652 7.1202,-74.66125 v 0 c -25.09089,-2.36764 -50.26562,-3.85435 -75.48605,-2.99195 -8.92468,0.36663 -17.8559,0.59899 -26.77406,1.09989 -48.7419,2.73762 -97.23947,8.99596 -145.42148,16.69613 -7.98698,1.45975 -15.99396,2.81402 -23.96095,4.37925 -18.64315,3.66273 -37.10439,8.20734 -55.37396,13.41212 -51.62931,12.1208 -34.48792,85.13568 17.1414,73.01488 z"/>
<path d="m 483.3863,298.29479 c 1.79693,11.9933 2.83858,24.08973 5.05611,36.02276 0.92368,4.97053 2.07077,9.89692 3.10616,14.84538 6.41202,27.7306 18.69134,53.50806 30.67196,79.15838 22.44645,48.04848 90.39727,16.30441 67.95082,-31.74407 v 0 c -9.57572,-20.4936 -19.70386,-40.98091 -25.2627,-63.01235 -0.80119,-3.68923 -1.69724,-7.35914 -2.40357,-11.0677 -2.34915,-12.33423 -3.195,-24.88835 -5.26501,-37.26458 -9.23635,-52.2225 -83.09012,-39.16032 -73.85377,13.06218 z"/>
<path d="m 663.77091,271.30208 c -2.59204,14.08166 -3.1924,28.42349 -6.60008,42.37389 -1.16841,4.7833 -2.64124,9.48705 -3.96186,14.23058 -10.37244,33.20654 -26.27188,64.48195 -44.26646,94.17062 -4.01344,6.62164 -8.31297,13.06561 -12.46945,19.59841 -3.99188,5.90362 -7.98375,11.80725 -11.97563,17.71087 -29.67424,43.95383 32.48587,85.91955 62.16011,41.96572 v 0 c 4.38451,-6.50358 8.76902,-13.00716 13.15353,-19.51073 4.71285,-7.45334 9.58739,-14.80687 14.13854,-22.36003 21.23602,-35.24367 39.69248,-72.4594 51.63849,-111.92134 1.72434,-6.47032 3.6562,-12.88887 5.17301,-19.41096 3.05687,-13.14415 4.62825,-26.55641 6.08087,-39.94678 11.95028,-51.66906 -61.12079,-68.5693 -73.07107,-16.90025 z"/>
<path d="m 410.93775,561.2652 c 2.24449,-0.38526 4.49514,-0.73615 6.73346,-1.15576 14.25146,-2.67164 28.3906,-5.84566 42.67324,-8.37125 22.6503,-4.00525 26.14862,-4.30732 49.93092,-7.74803 55.76913,-7.54599 111.90107,-12.35248 168.12375,-14.76381 11.08263,-0.47532 22.17336,-0.73782 33.26005,-1.10673 40.71756,-0.65321 81.56711,-0.69881 122.17343,2.8416 4.71352,0.41096 9.41162,0.98279 14.11743,1.47418 7.97571,0.78447 15.82845,2.23363 23.57871,4.22037 51.53055,12.53405 69.25638,-60.34115 17.72583,-72.8752 v 0 c -11.08659,-2.61862 -22.23725,-4.8888 -33.60486,-5.94889 -5.45716,-0.5575 -10.90604,-1.20315 -16.37149,-1.6725 -43.25462,-3.71456 -86.7574,-3.74432 -130.12819,-2.99758 -11.55569,0.38902 -23.11563,0.66755 -34.66707,1.16706 -58.51413,2.53028 -116.93207,7.56044 -174.97174,15.43796 -9.5292,1.38509 -19.07314,2.67226 -28.58759,4.15525 -23.65459,3.68698 -47.08974,8.47456 -70.56946,13.09383 -52.50232,7.48372 -41.91874,81.73322 10.58358,74.2495 z"/>
<path d="m 448.41367,637.76755 c 2.78822,23.85099 6.87236,47.52915 10.67904,71.23242 5.56038,34.87205 10.20716,69.88788 13.75761,105.02098 0.91657,8.62882 1.49167,17.28178 1.83338,25.94939 2.21599,52.98669 77.15049,49.8528 74.9345,-3.13389 v 0 c -0.44228,-10.143 -1.06429,-20.27448 -2.14965,-30.37325 -3.71301,-36.58151 -8.52337,-73.0456 -14.32471,-109.35567 -3.59219,-22.36757 -7.45053,-44.70987 -10.14409,-67.20867 -5.564,-52.74033 -80.15008,-44.87164 -74.58608,7.86869 z"/>
<path d="m 583.40079,674.18852 c 18.7825,-6.58983 38.33725,-10.29914 57.92243,-13.52416 23.20384,-3.62625 46.72815,-4.76681 70.17624,-3.78667 5.02015,0.25167 10.01382,0.83596 14.98303,1.57231 0.95456,0.14144 1.90909,0.28484 2.85908,0.45429 1.27205,0.22689 1.46174,0.1497 0.99302,0.28869 -1.98283,-0.5074 -3.5985,-0.84993 -5.51979,-2.05098 -2.96816,-1.85548 -6.00383,-3.71599 -8.49033,-6.17973 -7.05967,-0.69061 -4.39064,-7.70944 -7.29112,-11.02658 -0.374,-0.42773 0.18487,1.12121 0.2773,1.68181 3.0471,16.04236 5.21486,32.26351 6.39981,48.55209 0.36654,5.03868 0.56845,10.088 0.85268,15.132 0.96796,21.66023 0.42506,43.37967 -2.09069,64.92243 -1.40041,11.99185 -2.51639,17.57735 -4.53775,29.36017 -2.36341,12.08051 -4.79237,24.17143 -8.09277,36.03924 -1.66825,5.99881 -3.18221,10.96525 -5.70845,16.58165 -0.78664,1.74886 -1.78365,3.39527 -2.67547,5.0929 -23.36739,47.60741 43.95964,80.65389 67.32704,33.04649 v 0 c 1.80665,-3.80009 3.78345,-7.52386 5.41996,-11.40026 8.98937,-21.29311 13.05828,-44.27234 17.66768,-66.78334 2.40608,-14.24923 3.62706,-20.34057 5.27249,-34.93805 2.85264,-25.30736 3.46469,-50.81427 2.29309,-76.2474 -0.34751,-5.88979 -0.6008,-11.7859 -1.04253,-17.66938 -1.45403,-19.3664 -4.07929,-38.65513 -7.8165,-57.71084 -1.07767,-4.64034 -2.23634,-10.73731 -4.45103,-14.92167 -2.14394,-4.05067 -4.45882,-8.10649 -7.54764,-11.49229 -5.90707,-6.47503 -13.19455,-10.1894 -21.35131,-12.56919 -11.40346,-2.78782 -23.11799,-4.00901 -34.82426,-4.67806 -28.53664,-1.04163 -57.14828,0.2116 -85.37742,4.74512 -5.31608,0.89035 -10.64774,1.69224 -15.94826,2.67104 -18.32001,3.38301 -36.43035,7.93855 -54.07898,13.91857 -50.14787,17.25372 -25.74743,88.17352 24.40045,70.9198 z"/>
<path d="m 543.93019,870.04825 c -0.47819,0.28163 -1.94768,0.63346 -1.43458,0.8449 0.74764,0.30809 1.58482,-0.32465 2.38303,-0.45406 5.15213,-0.83527 8.87799,-1.29874 14.32641,-1.79023 11.74793,-1.05975 13.58423,-0.9649 25.94952,-1.45686 27.7561,-0.72418 55.58188,-0.15207 83.21158,2.74627 4.58132,0.48058 9.14361,1.12798 13.71541,1.69197 13.92633,2.49045 7.36482,1.11724 19.70811,4.00538 51.7051,11.79331 68.38335,-61.32876 16.67825,-73.12206 v 0 c -17.40508,-3.89841 -8.30619,-2.08434 -27.3182,-5.33309 -5.40864,-0.65166 -10.80676,-1.39749 -16.22591,-1.95496 -30.84433,-3.17296 -61.90138,-3.82295 -92.88104,-2.96893 -14.80511,0.63643 -29.57453,1.25762 -44.25656,3.4229 -6.25542,0.92254 -13.40051,2.25581 -19.49896,4.22808 -2.66509,0.86189 -5.22544,2.01915 -7.83816,3.02872 -47.45532,23.67472 -13.97422,90.78668 33.4811,67.11197 z"/>
</svg>
