<?xml version="1.0" ?>
<svg xmlns="http://www.w3.org/2000/svg" viewBox="0 0 1000 1000">
<path d="m 283.32961,85.740987 c -13.56223,30.427813 -33.44535,57.407443 -52.30916,84.668773 -31.00964,44.20332 -65.95907,85.4194 -100.08686,127.19708 -26.40102,32.31892 -26.38927,32.46429 -51.822443,64.25102 -7.529486,9.20456 -15.058971,18.40911 -22.588457,27.61367 -33.575944,41.05065 24.478444,88.53421 58.05439,47.48356 v 0 c 7.69903,-9.41414 15.39805,-18.82828 23.09708,-28.24242 25.10674,-31.38224 25.1129,-31.54838 51.22244,-63.51077 35.43115,-43.3736 71.66808,-86.20084 103.8089,-132.13122 20.18612,-29.20275 41.64982,-58.25129 56.15126,-90.84418 25.79916,-46.334691 -39.72799,-82.820205 -65.52715,-36.485513 z"/>
<path d="m 179.65645,291.53947 c 3.9468,26.33654 6.55125,52.85017 9.12372,79.34825 6.08012,67.09066 7.34945,134.49007 8.28325,201.81044 0.63636,47.98784 0.12892,95.997 -2.64458,143.91679 -1.39766,24.14841 -2.58696,36.90671 -4.54643,60.7031 -1.90734,22.29396 -4.02075,44.56937 -6.11455,66.84633 -4.96258,52.80031 69.70834,59.81845 74.67091,7.01814 v 0 c 2.12106,-22.56783 4.26143,-45.13414 6.19147,-67.71939 2.04485,-24.91194 3.2582,-37.91829 4.7121,-63.24707 2.83946,-49.46712 3.3816,-99.0251 2.72382,-148.56154 -0.96882,-69.39426 -2.31752,-138.86797 -8.62773,-208.02195 -2.68788,-27.62541 -5.4169,-55.26527 -9.52912,-82.72311 -7.51654,-52.49763 -81.75941,-41.86763 -74.24286,10.63001 z"/>
<path d="m 528.12727,113.09886 c 12.8564,9.7345 25.11236,20.26861 37.26257,30.86593 6.91345,5.95787 13.32332,12.44132 19.623,19.03065 36.75672,38.22883 90.82045,-13.75302 54.06373,-51.98185 v 0 c -7.86696,-8.14734 -15.83381,-16.200195 -24.42313,-23.600524 -13.99847,-12.181152 -28.09988,-24.314799 -42.99775,-35.390203 -43.18725,-30.779237 -86.71567,30.296758 -43.52842,61.075997 z"/>
<path d="m 380.3892,268.23227 c 1.57347,-0.63668 3.12364,-1.3343 4.72042,-1.91002 13.05458,-4.70685 26.64617,-8.03524 40.18831,-10.96018 20.38033,-4.40192 30.06271,-5.82705 51.22904,-9.48593 56.9458,-8.64647 114.07775,-16.92297 171.58667,-20.78828 10.7086,-0.71976 21.43818,-1.08336 32.15727,-1.62504 30.21204,-0.95898 60.62826,-0.34836 90.49758,4.69261 9.85589,1.66335 12.80483,2.60674 21.80927,4.94853 51.40004,13.05894 69.86817,-59.63169 18.46813,-72.69063 v 0 c -12.56618,-3.13971 -16.36671,-4.33351 -29.92034,-6.53934 -34.57704,-5.62733 -69.73136,-6.50571 -104.68408,-5.31334 -11.51331,0.59497 -23.0378,1.00288 -34.53992,1.78492 -59.71849,4.0603 -119.05393,12.60058 -178.18451,21.63263 -37.95093,6.59579 -76.5714,12.68458 -112.49542,27.1581 -48.85822,20.62459 -19.69065,89.72056 29.16758,69.09597 z"/>
<path d="m 431.6746,328.94438 c 7.60164,18.04413 13.80144,36.63057 19.77495,55.26242 7.77082,25.78609 13.72132,52.07623 19.04547,78.46218 10.50532,51.98209 84.0191,37.12533 73.51378,-14.85677 v 0 c -5.89232,-29.11484 -12.49107,-58.11999 -21.15539,-86.55073 -6.88899,-21.39377 -14.02408,-42.7524 -22.92745,-63.40973 -21.98581,-48.261 -90.23717,-17.16836 -68.25136,31.09263 z"/>
<path d="m 513.60913,348.85237 c -0.58228,0.34643 -2.41351,1.1602 -1.74684,1.03929 1.48726,-0.26976 2.84913,-1.01083 4.27976,-1.4987 6.44319,-2.19726 11.38565,-3.85788 18.07873,-5.77542 11.86216,-3.39847 14.05462,-3.71896 26.49528,-6.58031 29.58823,-6.43933 59.76561,-9.43089 89.97265,-10.77262 13.04099,-0.0333 26.3186,-0.88741 39.24685,1.34096 0.32212,0.0886 1.29525,0.32459 0.96636,0.26591 -7.79943,-1.39158 -13.29195,-6.21568 -18.32702,-12.2094 -4.72652,-5.62642 -1.21381,-7.15467 -3.77432,-5.92634 0.83527,18.81373 -0.31912,37.74618 -2.95294,56.38819 -0.73208,5.18161 -1.71942,10.32394 -2.57913,15.4859 -3.72572,19.07198 -9.16528,37.73828 -14.69605,56.34588 -15.0902,50.84079 56.80954,72.18154 71.89973,21.34075 v 0 c 6.41449,-21.6391 12.6669,-43.36363 16.81226,-65.5771 1.02768,-6.37419 2.20814,-12.72562 3.08306,-19.12257 2.89434,-21.162 4.45815,-43.37835 3.4932,-64.75015 -0.17018,-3.76907 -0.59795,-7.5221 -0.89692,-11.28315 -1.68068,-8.93172 -2.15792,-15.76357 -7.50573,-23.77571 -8.70408,-13.04055 -19.40824,-18.7499 -34.14964,-21.31491 -17.88476,-2.61218 -35.99019,-2.73848 -54.03102,-2.13064 -4.95312,0.23027 -9.91008,0.38908 -14.85936,0.69082 -29.78019,1.81555 -59.46209,5.70684 -88.64225,11.94238 -5.60922,1.30934 -11.24205,2.52138 -16.82766,3.92803 -9.70331,2.44363 -17.55145,4.77551 -26.97052,7.80059 -1.94016,0.62312 -12.73444,4.25592 -15.46147,5.35074 -2.45662,0.98625 -4.84523,2.1341 -7.26784,3.20116 -46.38367,25.71099 -10.02285,91.3074 36.36083,65.59642 z"/>
<path d="m 517.11667,459.84919 c 17.89147,-2.84664 35.94982,-4.54661 53.97864,-6.25053 32.44452,-3.02652 65.00732,-4.29176 97.58241,-3.88093 53.02919,0.63666 53.92957,-74.35793 0.90038,-74.9946 v 0 c -35.23829,-0.40401 -70.46519,0.91241 -105.56134,4.21032 -21.73753,2.06673 -43.6062,3.92809 -65.05209,8.14552 -51.45631,12.8354 -33.30431,85.60562 18.152,72.77022 z"/>
<path d="m 302.22657,517.71319 c -0.82548,22.05298 -0.34304,44.1384 0.55509,66.18015 1.3308,25.2228 7.50077,49.73155 16.37422,73.29049 3.9379,10.45507 6.14958,14.89638 10.61739,24.66099 22.18629,48.16917 90.30778,16.79301 68.12148,-31.37615 v 0 c -10.26401,-22.08936 -18.86452,-45.10459 -20.17786,-69.69167 -0.80544,-18.93165 -1.1009,-37.87346 -0.75054,-56.82158 4.41393,-52.849 -70.32585,-59.09123 -74.73978,-6.24223 z"/>
<path d="m 456.15773,568.57103 c 25.26496,-4.16527 50.43041,-8.9427 75.67448,-13.25876 33.24039,-5.29487 66.56263,-10.15617 100.04376,-13.66949 23.04919,-2.41865 28.06672,-2.64828 50.96853,-4.41217 27.95802,-1.91725 55.97577,-3.04598 84.00232,-2.90291 10.89464,0.0556 19.5614,0.31969 30.36554,0.58776 17.90481,0.40307 35.76761,1.64296 53.61246,3.09052 3.2914,0.26476 4.93523,0.40307 8.11522,0.63805 0.95043,0.0702 1.90222,0.12234 2.85193,0.20173 0.19701,0.0165 0.7821,0.1169 0.58687,0.0857 -10.77529,-1.72019 -2.73206,0.17624 -21.40325,-10.56229 -22.64337,-49.30441 -5.7915,-3.98299 -9.4828,-30.61984 -0.13011,-0.93889 -0.89632,1.67111 -1.30819,2.52481 -1.47768,3.06294 -2.81085,6.19627 -4.35981,9.22378 -6.50907,12.72224 -8.81188,15.93593 -16.7112,29.00499 -4.19615,6.52708 -8.39231,13.05416 -12.58847,19.58124 -28.64773,44.62967 34.46816,85.14368 63.11589,40.514 v 0 c 4.58452,-7.15214 9.16904,-14.30429 13.75355,-21.45644 3.89802,-6.51504 7.94481,-12.94334 11.69406,-19.54511 4.9973,-8.7994 10.27274,-19.07657 14.3367,-28.50019 3.05958,-7.09463 7.94938,-19.04664 6.5426,-26.63871 -1.64803,-8.89407 -6.7298,-16.79262 -10.0947,-25.18893 -6.25812,-3.8585 -12.21166,-8.26144 -18.77436,-11.57551 -2.06482,-1.0427 -4.52617,-0.96528 -6.80823,-1.34332 -4.41743,-0.73179 -8.9762,-0.4573 -13.40364,-1.09859 -19.24672,-1.56034 -38.51452,-2.87323 -57.82519,-3.31311 -11.75438,-0.28832 -20.588,-0.5589 -32.49131,-0.61006 -29.86262,-0.12834 -59.71594,1.06665 -89.50474,3.12536 -24.06728,1.86585 -29.50626,2.1224 -53.70495,4.67417 -34.86129,3.67615 -69.56086,8.7256 -104.17071,14.25769 -24.55884,4.20062 -49.04926,8.81082 -73.61569,12.93607 -52.50235,7.48354 -41.91902,81.73308 10.58333,74.24953 z"/>
<path d="m 476.23402,681.65623 c 5.47856,-1.25317 4.14446,-0.9269 11.21639,-2.68846 8.92871,-2.22406 14.36382,-3.69737 23.60585,-5.74568 14.75465,-3.27006 19.78786,-4.06336 35.13476,-6.92383 35.84795,-5.91721 72.17541,-9.04405 108.51076,-9.3334 6.20108,-0.0494 12.4019,0.12706 18.60285,0.19059 16.53984,0.24766 33.0124,1.53563 49.37315,3.91363 52.50555,7.46101 63.05702,-66.79305 10.55146,-74.25406 v 0 c -19.64311,-2.7438 -39.39587,-4.42818 -59.24503,-4.65649 -7.05767,-0.0566 -14.11544,-0.23678 -21.17303,-0.16983 -40.32337,0.38249 -80.63021,3.93224 -120.39886,10.5861 -6.84847,1.28317 -13.71099,2.49351 -20.54541,3.84951 -17.42159,3.45658 -34.62774,7.77554 -51.8683,12.01026 -51.77553,11.48017 -35.54012,84.70183 16.23541,73.22166 z"/>
<path d="m 591.56879,655.99107 c 0.65685,20.05374 0.76418,40.12001 0.91544,60.18234 -0.0662,27.8161 0.82845,55.7378 -1.77721,83.47852 -0.4063,4.32561 -1.03212,8.62778 -1.54819,12.94167 -2.37428,13.75819 -4.72327,28.14696 -11.51562,40.56173 -0.0811,-0.0225 -0.27639,0.01 -0.24325,-0.0676 2.10623,-4.91557 8.6327,-8.40451 12.95863,-10.19398 7.91842,-3.27554 6.885,0.89571 7.5336,-2.22434 -14.86063,-3.73873 -28.902,-9.8774 -42.93929,-15.88852 -48.79435,-20.77528 -78.17503,48.23034 -29.38068,69.00562 v 0 c 18.86779,7.99473 37.81547,16.03045 57.90733,20.48505 11.19704,1.70263 16.77794,3.57962 28.5899,0.41104 15.44134,-4.14217 25.1029,-14.74847 32.64954,-27.97377 1.18033,-2.433 2.44647,-4.82621 3.54099,-7.29899 8.15346,-18.42069 12.49762,-38.2886 15.39491,-58.13655 0.62322,-5.46433 1.37276,-10.91574 1.86967,-16.393 2.69212,-29.67456 1.96625,-59.52019 1.95753,-89.27328 -0.16084,-21.26352 -0.26224,-42.53301 -1.02929,-63.7855 -2.9483,-52.95099 -77.83231,-48.78146 -74.88401,4.16953 z"/>
</svg>
