<?xml version="1.0" ?>
<svg xmlns="http://www.w3.org/2000/svg" viewBox="0 0 1000 1000">
<path d="m 265.85267,116.14119 c -0.17932,0.50854 -0.31613,1.03413 -0.53794,1.52563 -2.24577,4.97627 -4.73548,9.84204 -7.29749,14.66311 -2.92349,5.50128 -5.86892,10.99488 -9.02648,16.36523 -9.75005,16.58275 -19.10145,30.43136 -29.71509,46.69723 -6.68572,9.97297 -13.31781,19.9821 -20.05716,29.91889 -1.4882,2.19428 -44.57633,65.01225 -45.49208,66.36013 -21.66117,31.88269 -43.05242,63.95011 -64.67848,95.85708 -15.665285,22.79707 -30.26886,46.28286 -44.720685,69.85664 -27.707412,45.21945 36.242557,84.40365 63.949965,39.18419 v 0 c 13.84113,-22.60147 27.83239,-45.1159 42.85427,-66.96195 21.55063,-31.79629 42.86625,-63.75322 64.45216,-95.52508 5.50757,-8.10647 40.22209,-58.58738 45.93508,-67.01359 6.91738,-10.20261 13.72427,-20.47969 20.5864,-30.71953 15.15437,-23.2688 30.48858,-46.34046 43.26969,-71.03507 5.35701,-10.35038 9.14123,-18.32467 12.65056,-29.25816 0.84113,-2.62058 1.25412,-5.35976 1.88119,-8.03964 8.39697,-52.364017 -65.65694,-64.239134 -74.05391,-11.87511 z"/>
<path d="m 187.2256,311.3461 c 6.0862,21.07871 8.4873,42.98927 11.22152,64.68632 4.32462,37.22608 7.53262,74.58281 9.34341,112.01762 1.35138,27.93751 1.42744,38.83953 2.08496,66.97566 0.58363,55.55073 2.14248,111.10017 1.94257,166.65784 -0.0337,9.37415 -0.19477,18.7474 -0.29216,28.1211 -0.90076,33.71329 -1.62119,67.71878 -7.7611,100.98508 -0.72647,3.93603 -1.67563,7.82769 -2.51345,11.74153 -3.05366,11.36118 -1.46701,6.15381 -4.61654,15.66509 -16.26594,50.47692 55.11921,73.48043 71.38514,23.00351 v 0 c 4.63345,-14.63105 2.38348,-6.8899 6.63101,-23.25767 3.09572,-14.96693 3.88615,-17.51127 5.97065,-33.24441 4.13266,-31.19202 5.275,-62.69791 5.90033,-94.12239 0.0986,-9.6981 0.26193,-19.39575 0.29585,-29.09429 0.19614,-56.07777 -1.36512,-112.14725 -1.96301,-168.21793 -0.69158,-29.25407 -0.77068,-40.48662 -2.19146,-69.57943 -1.91057,-39.12223 -5.27078,-78.16359 -9.80952,-117.06648 -3.331,-26.22549 -6.46251,-52.67342 -14.17352,-78.05775 -16.11256,-50.52609 -87.56723,-27.73949 -71.45468,22.7866 z"/>
<path d="m 326.91653,296.77464 c -1.24115,33.05908 0.0338,66.17533 0.7707,99.23534 1.22154,61.30022 4.14378,122.54339 6.8423,183.7903 1.69598,38.71519 2.97377,77.44831 2.85722,116.20317 -0.0326,3.1015 -0.0652,6.203 -0.0978,9.3045 -0.55163,53.03014 74.44431,53.81027 74.99595,0.78013 v 0 c 0.0339,-3.28974 0.0677,-6.57947 0.10159,-9.86921 0.10959,-39.92753 -1.17129,-79.83343 -2.9296,-119.72002 -2.67484,-60.7038 -5.57702,-121.4037 -6.78824,-182.16036 -0.67646,-30.34002 -1.70682,-60.70396 -1.03529,-91.05203 4.60455,-52.83274 -70.11222,-59.34456 -74.71678,-6.51182 z"/>
<path d="m 445.33517,233.34314 c 8.19848,-4.97352 16.24708,-10.17477 24.8516,-14.44559 8.68337,-4.30995 12.57203,-5.70227 21.78169,-9.4874 14.87173,-5.81715 29.97644,-11.20318 45.5888,-14.68191 6.92518,-1.54305 8.8986,-1.69512 15.6082,-2.63406 4.16412,0.005 9.95264,-1.42734 14.12473,-0.47811 0.071,0.0162 -0.12591,0.0978 -0.1985,0.0915 -0.66905,-0.0581 -1.32992,-0.18791 -1.99488,-0.28187 -6.92772,-2.33266 -10.00116,-2.75491 -16.08312,-9.33505 -3.15946,-3.41827 -5.24654,-7.7155 -7.40171,-11.84127 -0.8177,-1.56538 -0.2563,-3.79204 -1.44627,-5.09703 -0.83584,-0.91663 0.11595,2.47833 0.18766,3.71676 0.16094,2.7796 0.34019,5.55812 0.51029,8.33718 0.29339,4.1128 0.57051,8.22678 0.88017,12.33838 1.46558,19.45958 2.99897,38.9014 4.09992,58.38738 1.30679,23.12925 1.53953,30.80193 2.53632,54.49272 1.6382,55.27448 3.26114,110.59384 2.78268,165.901 -0.0951,10.99752 -0.40897,21.99206 -0.61346,32.98809 -0.97393,39.52571 -5.14491,78.89599 -11.43018,117.91136 -3.12641,19.407 -4.94636,27.88841 -8.64809,46.75254 -5.13003,24.38642 -2.60251,12.74961 -7.54384,34.91881 -11.5289,51.7647 61.67745,68.06902 73.20634,16.30432 v 0 c 5.20402,-23.38337 2.54421,-11.1171 7.93907,-36.80755 3.97344,-20.32318 5.8893,-29.25944 9.2413,-50.20752 6.75088,-42.18901 11.17689,-84.76185 12.22274,-127.49359 0.20869,-11.48199 0.52872,-22.9625 0.62607,-34.44597 0.47756,-56.33338 -1.16689,-112.67894 -2.84911,-168.97869 -1.78299,-42.26066 -4.02449,-84.49149 -7.59008,-126.64417 -0.44097,-7.20145 -0.42203,-19.76326 -2.98859,-26.17588 -2.14558,-5.36077 -4.76408,-10.68868 -8.49175,-15.09842 -7.0011,-8.28212 -11.84017,-9.22771 -20.59513,-12.59287 -1.99332,-0.43306 -3.96914,-0.95653 -5.97998,-1.29919 -11.69991,-1.99373 -23.69046,-0.75466 -35.3917,0.43182 -10.14801,1.5344 -12.74779,1.7426 -23.09835,4.12622 -19.13313,4.40616 -37.70666,10.9066 -55.94247,18.11722 -4.99242,2.08534 -10.03419,4.05625 -14.97726,6.25601 -13.92814,6.1983 -27.25111,13.56873 -40.07108,21.80093 -46.07075,26.26758 -8.92279,91.42147 37.14797,65.15389 z"/>
<path d="m 398.06981,420.28718 c 16.73147,-3.06364 33.40351,-6.38643 50.2247,-8.93203 11.58032,-1.74834 23.23176,-2.7712 34.93243,-3.08846 53.00725,-1.65256 50.67018,-76.61614 -2.33707,-74.96358 v 0 c -14.6988,0.4996 -29.35252,1.66427 -43.90024,3.90893 -16.57403,2.5432 -33.04904,5.59925 -49.50329,8.82563 -52.50233,7.48364 -41.91887,81.73315 10.58347,74.24951 z"/>
<path d="m 406.11425,558.81106 c 7.64303,-3.89031 15.57194,-7.29182 23.86379,-9.55937 2.74589,-0.75092 5.55309,-1.25637 8.32964,-1.88455 13.18473,-2.12939 26.6492,-2.9466 39.94959,-1.37713 3.72166,0.43916 7.40317,1.16936 11.10475,1.75404 52.4741,7.67907 63.33396,-66.53052 10.85985,-74.2096 v 0 c -5.75288,-0.79888 -11.47884,-1.82415 -17.25864,-2.39666 -20.80273,-2.06059 -41.80981,-0.57608 -62.30218,3.33493 -4.7641,1.1973 -9.57426,2.22436 -14.29231,3.59188 -12.71438,3.68526 -24.91015,9.01528 -36.61501,15.14987 -46.38379,25.71077 -10.02328,91.30736 36.36052,65.59659 z"/>
<path d="m 395.44196,730.68106 c 19.94125,-7.06743 40.44371,-12.30317 61.019,-17.1339 20.34283,-3.95151 40.87313,-7.83939 61.65439,-8.36221 9.76435,-0.24566 13.6691,0.24649 23.13153,0.92415 52.92018,3.4576 57.80997,-71.38283 4.88979,-74.84043 v 0 c -13.97654,-0.85127 -18.30864,-1.42397 -32.78137,-0.93252 -24.97654,0.84814 -49.67623,5.28102 -74.11289,10.21429 -22.74063,5.38604 -45.41278,11.16728 -67.46953,18.9634 -50.32283,16.73656 -26.65375,87.90379 23.66908,71.16722 z"/>
<path d="m 386.24676,756.27649 c -0.0436,-0.52129 0.18976,-1.97732 -0.13071,-1.56388 -1.00053,1.29081 -1.39864,2.95176 -2.09144,4.4307 -1.59451,3.40385 -3.11943,6.84087 -4.77048,10.21765 -2.14472,4.38647 -4.28521,8.7784 -6.6154,13.06921 -6.15354,11.33106 -10.95598,18.64686 -17.83903,29.69128 -8.44768,13.5349 -17.62283,26.58215 -26.88355,39.56462 -30.77234,43.19217 30.31061,86.71083 61.08295,43.51866 v 0 c 10.16044,-14.27696 20.23263,-28.621 29.50462,-43.50047 3.65594,-5.89918 7.42189,-11.73158 10.96784,-17.69752 7.74415,-13.02925 11.44267,-19.87818 17.84859,-33.14947 3.37265,-6.9872 8.71564,-18.57254 11.07118,-26.11258 1.11977,-3.58436 1.65437,-7.32593 2.48156,-10.98889 5.28868,-52.76864 -69.33746,-60.24796 -74.62613,-7.47931 z"/>
<path d="m 499.27958,849.76346 c 7.33305,3.33156 13.87592,8.16161 20.38516,12.84348 4.30054,3.10234 8.34992,6.52414 12.38893,9.95267 40.50117,34.23676 88.91926,-23.04054 48.41809,-57.27729 v 0 c -5.59957,-4.71908 -11.22677,-9.41166 -17.18253,-13.68279 -12.6245,-8.9887 -25.59711,-17.84557 -40.3405,-23.00327 -50.32281,-16.73662 -73.99196,54.43059 -23.66915,71.1672 z"/>
<path d="m 668.4692,370.81135 c 1.67104,24.28439 1.87421,48.64143 2.16542,72.97214 0.56788,36.43917 0.55455,72.88217 0.46236,109.32439 0.0473,16.25199 0.008,8.54707 0.10826,23.1148 0.367,53.03174 75.36521,52.51272 74.9982,-0.51902 v 0 c -0.0982,-14.13322 -0.0595,-6.66452 -0.1067,-22.40617 0.093,-36.80598 0.10435,-73.61275 -0.46754,-110.41566 -0.31031,-25.6982 -0.5546,-51.42177 -2.32685,-77.07051 -3.53556,-52.91502 -78.3687,-47.91499 -74.83315,5.00003 z"/>
<path d="m 827.26972,166.12504 c 0.56477,21.50709 3.47787,42.86154 5.38851,64.26847 0.72839,8.16085 1.32497,16.33293 1.98745,24.4994 4.76584,68.1704 5.89163,136.53415 6.88465,204.84353 0.51696,52.01041 -0.22737,104.05942 -3.55094,155.97749 -2.05088,32.03713 -3.09642,39.78198 -6.23481,71.27179 -3.35875,29.73883 -8.05603,59.30732 -13.31492,88.76276 -2.53365,14.19112 -5.61818,30.68707 -8.86757,44.8564 -1.297,5.65571 -2.8341,11.25365 -4.25115,16.88048 -2.77318,8.65974 -4.04992,14.10955 -8.0412,21.93027 -0.92492,1.81233 -1.9531,3.61312 -3.3123,5.12724 -0.31562,0.3516 -1.45822,0.60456 -1.41103,0.13445 0.0895,-0.89161 2.51493,-4.47747 3.16081,-5.47095 -0.90931,-0.48881 -1.76483,-1.09465 -2.72793,-1.46642 -13.70293,-5.28959 -4.36197,-0.19311 -21.21559,-8.25441 -12.15408,-5.81346 -22.98107,-11.9635 -33.93616,-19.93579 -6.13581,-4.46518 -11.80042,-9.54432 -17.70063,-14.31647 -41.53258,-32.97795 -88.17044,25.75799 -46.63786,58.73593 v 0 c 8.02937,6.28829 15.75553,12.98427 24.08811,18.86488 14.10543,9.95472 30.46203,19.1997 46.27131,26.2628 12.58597,5.62301 28.66614,11.47515 42.47456,13.3471 7.21567,0.9782 14.55538,0.48134 21.83307,0.722 7.13272,-1.8562 14.66292,-2.57563 21.39815,-5.56859 29.39943,-13.06435 40.13661,-43.51795 48.51388,-71.90786 1.62889,-6.54699 3.3862,-13.06337 4.88669,-19.64099 3.41355,-14.96383 6.72491,-32.63222 9.39787,-47.63575 5.55769,-31.19572 10.49882,-62.51408 14.02437,-94.01135 3.2772,-33.07701 4.36339,-41.14305 6.49995,-74.77006 3.40473,-53.58667 4.18469,-107.30628 3.64536,-160.98705 -1.0208,-69.9742 -2.19132,-140.00386 -7.12365,-209.83274 -0.70127,-8.59715 -1.33678,-17.19992 -2.10381,-25.79146 -1.69272,-18.96021 -4.21013,-37.86435 -5.02519,-56.8951 0,-53.03301 -75,-53.03301 -75,0 z"/>
</svg>
