<?xml version="1.0" ?>
<svg xmlns="http://www.w3.org/2000/svg" width="1000" height="1000">
<path d="m 382.61246,80.89214 c -17.888,21.15326 -35.82184,42.2797 -53.84226,63.32452 -30.38766,36.84288 -62.47481,72.20921 -94.21275,107.8772 -41.68003,46.84117 -13.05026,15.10742 -54.51542,60.71534 -24.67308,26.51789 -49.00764,53.35287 -74.41794,79.17433 -13.481017,13.69915 -24.931933,24.68369 -38.586621,37.94172 -38.044667,36.94731 14.206712,90.75059 52.251381,53.80329 v 0 c 14.56747,-14.15018 25.86484,-24.98138 40.31647,-39.67749 25.91922,-26.35769 50.76632,-53.72521 75.93363,-80.79295 42.27791,-46.51465 13.13323,-14.20276 54.96918,-61.21906 32.08066,-36.05305 64.50608,-71.80889 95.23085,-109.04166 19.22745,-22.4553 38.47808,-44.89663 57.3066,-67.6886 31.4073,-42.73267 -29.02582,-87.14931 -60.43312,-44.41664 z"/>
<path d="m 210.81532,297.15806 c 1.46799,30.17446 4.52705,60.24819 7.11206,90.34131 5.0622,57.63268 8.2729,115.43512 8.6619,173.29719 0.0928,13.80417 -0.0962,27.6088 -0.14437,41.41319 -1.14817,71.12647 -5.84904,142.13075 -10.45571,213.09839 -0.99487,19.47163 -3.25802,38.81929 -5.90076,58.12053 -7.13015,52.55151 67.1889,62.63506 74.31905,10.08355 v 0 c 2.83235,-21.04207 5.32615,-42.12625 6.42423,-63.34643 4.70524,-72.50233 9.49186,-145.04324 10.61278,-217.70917 0.0445,-14.32248 0.23522,-28.64524 0.13338,-42.96743 -0.42358,-59.56822 -3.719,-119.07596 -8.9257,-178.40895 -2.4843,-28.91857 -5.42397,-57.81811 -6.89252,-86.81109 -2.04277,-52.99366 -76.98711,-50.10474 -74.94434,2.88891 z"/>
<path d="m 507.7729,114.04952 c -0.9586,19.92141 -1.56822,39.8645 -1.02433,59.80945 0.21252,7.79319 0.64677,15.57876 0.97015,23.36814 3.46481,50.29143 9.28543,100.38789 14.49803,150.5205 2.69801,24.20965 1.33003,12.64952 4.06395,34.68507 6.53952,52.62827 80.96713,43.37999 74.42761,-9.24828 v 0 c -2.6029,-20.91338 -1.28975,-9.85077 -3.89372,-33.19321 -5.05401,-48.60731 -10.6727,-97.17968 -14.16273,-145.93038 -0.30287,-7.03121 -0.70257,-14.05893 -0.90859,-21.09365 -0.53229,-18.17576 0.0497,-36.34806 0.89963,-54.50369 3.12114,-52.941084 -71.74887,-57.355039 -74.87,-4.41395 z"/>
<path d="m 666.09622,101.15038 c 0,21.72878 0,43.45755 0,65.18633 -0.17844,37.692 -0.27358,75.59134 -5.61798,112.98902 -1.01637,7.11213 -2.43562,14.16083 -3.65343,21.24124 -4.23062,20.35101 -9.62198,40.43207 -14.68237,60.58558 -12.91524,51.43634 59.82673,69.70124 72.74197,18.26491 v 0 c 5.53655,-22.04998 11.4457,-44.02053 15.88765,-66.32838 1.4086,-8.42942 3.04498,-16.82393 4.2258,-25.28827 5.61077,-40.21894 5.96732,-80.93582 6.09836,-121.4641 0,-21.72878 0,-43.45755 0,-65.18633 0,-53.033009 -75,-53.033009 -75,0 z"/>
<path d="m 473.88745,272.46401 c 18.10695,-8.02752 37.50334,-12.79227 56.90171,-16.505 7.57063,-1.44897 15.20086,-2.56707 22.80129,-3.8506 8.52234,-1.03229 17.02626,-2.23012 25.56703,-3.09687 17.49161,-1.77513 40.8322,-3.31307 58.29802,-4.22022 18.72915,-0.97277 37.86388,-1.64483 56.6279,-1.78781 8.07314,-0.0615 16.14641,0.10561 24.21962,0.15842 20.23957,0.93269 41.10573,1.04491 60.52497,7.61624 2.0843,0.70531 4.07031,1.67324 6.10546,2.50986 49.58588,18.80798 76.18439,-51.31705 26.59851,-70.12503 v 0 c -12.74628,-4.64621 -15.4377,-6.10163 -29.43444,-9.01273 -20.82541,-4.33134 -42.14865,-5.36317 -63.34468,-5.98699 -8.73529,-0.048 -17.47076,-0.21668 -26.20589,-0.14403 -19.69079,0.16378 -40.06791,0.8827 -59.71726,1.91486 -19.08073,1.00229 -43.78875,2.65416 -62.81046,4.63622 -9.70613,1.01138 -19.36855,2.40544 -29.05283,3.60815 -8.76527,1.51103 -17.56688,2.82463 -26.29582,4.53307 -24.52155,4.79938 -48.90377,11.21543 -71.76089,21.44888 -48.29792,21.90459 -17.32015,90.20816 30.97776,68.30358 z"/>
<path d="m 388.3942,457.01908 c 22.31802,-6.71921 45.09001,-11.84878 67.80898,-17.00428 51.87217,-11.51911 104.45237,-19.89004 157.41602,-24.30748 11.66554,-0.97297 23.35915,-1.57372 35.03873,-2.36058 32.78572,-1.58556 65.63143,-1.9586 98.43914,-0.8587 17.18294,0.57608 35.48813,1.59739 52.63858,3.42854 7.03654,0.75129 14.02998,1.86253 21.04497,2.79379 19.92513,2.98838 39.5174,7.70917 58.43486,14.62074 49.88244,18.00672 75.34779,-52.5377 25.46535,-70.54443 v 0 c -8.11259,-2.90367 -11.49877,-4.23544 -20.25546,-6.77206 -17.68109,-5.12181 -35.73266,-8.85905 -53.91839,-11.67089 -8.17716,-1.05571 -16.33125,-2.30879 -24.53148,-3.16713 -18.62261,-1.94926 -38.75383,-3.06603 -57.41181,-3.67422 -34.99137,-1.1406 -70.02259,-0.72064 -104.98749,1.01671 -12.4713,0.85329 -24.95777,1.50811 -37.41391,2.55985 -56.04295,4.73202 -111.6829,13.602 -166.5745,25.79949 -26.18397,5.95498 -52.52651,11.74325 -78.06429,20.11948 -49.51245,19.00045 -22.64175,89.02163 26.8707,70.02117 z"/>
<path d="m 490.49438,391.40377 c -11.6465,19.36163 -27.56469,35.71374 -42.8523,52.17937 -39.06034,42.02942 -82.34167,79.8145 -125.39376,117.64254 -24.47011,20.5381 -12.62884,10.90473 -35.44867,28.99226 -41.53812,32.97097 5.08986,91.71474 46.62799,58.74377 v 0 c 24.8592,-19.75758 12.06124,-9.31911 38.32726,-31.39689 44.97638,-39.52479 90.13074,-79.06541 130.90399,-123.00962 19.01901,-20.56721 38.48767,-41.1858 52.70604,-65.51087 26.6159,-45.8704 -38.25465,-83.51097 -64.87055,-37.64056 z"/>
<path d="m 419.98496,510.25257 c 5.28846,13.9682 10.67635,27.88454 14.57821,42.3274 1.38168,5.11435 2.53307,10.28816 3.79961,15.43224 7.12117,33.85987 9.46019,68.53034 9.18776,103.07834 -0.0615,7.79715 -0.39772,15.58971 -0.59658,23.38457 -1.47894,38.71545 -6.15962,77.19517 -13.03329,115.2972 -1.6596,8.81404 -3.76504,17.5255 -6.09999,26.18019 -13.67539,51.23948 58.78817,70.5794 72.46356,19.33992 v 0 c 2.82556,-10.67224 5.45338,-21.39365 7.45457,-32.25804 7.49696,-41.88302 12.6566,-84.16997 14.19268,-126.7234 0.20475,-8.68915 0.56503,-17.37602 0.61427,-26.06744 0.22873,-40.37022 -2.79349,-80.85906 -11.4069,-120.35983 -1.58457,-6.30158 -3.0312,-12.63947 -4.75371,-18.90476 -4.03335,-14.67045 -9.11495,-29.04991 -14.82845,-43.14259 -15.85065,-50.60886 -87.42239,-28.19267 -71.57174,22.4162 z"/>
<path d="m 501.35771,569.29019 c 26.7255,-4.10186 53.38902,-8.58802 80.11518,-12.69568 42.2856,-6.38455 84.78979,-11.24094 127.44815,-14.234 19.34476,-1.13428 38.81056,-1.82571 58.09377,0.46598 0.94535,0.13789 1.89193,0.26759 2.83605,0.41366 3.72574,0.57644 1.22687,0.34221 -0.22203,-0.12317 -3.734,-1.19933 -3.69622,-1.40385 -7.2988,-3.34305 -5.86167,-4.79556 -7.38288,-5.18816 -11.32783,-11.92216 -1.21579,-2.07536 -1.91621,-4.41286 -2.82269,-6.64075 -0.20479,-0.50333 -0.43356,-2.08665 -0.50935,-1.54856 -0.17266,1.22574 0.14316,2.47157 0.20519,3.70787 0.12068,2.40519 0.22861,4.81101 0.34291,7.21651 1.94558,34.43009 2.91989,68.88852 3.32228,103.36773 0.28485,46.94414 -0.54478,93.88661 -2.1726,140.80085 -1.3329,26.3404 -1.93161,52.90528 -6.59623,78.9367 -0.51354,2.86584 -1.20038,5.69791 -1.80057,8.54687 -0.57541,1.99968 -1.03863,4.03511 -1.72624,5.99904 -1.97263,5.63415 -3.05926,1.6521 1.67609,-2.91554 4.26739,-4.11627 7.44726,-5.65855 11.99814,-8.1326 -1.67505,-0.6 -3.33801,-1.23488 -5.02514,-1.8 -13.61196,-4.55939 -14.53268,-4.35934 -29.04015,-10.28305 -14.00946,-5.72037 -27.38894,-12.21151 -41.10133,-18.62412 -48.05295,-22.43688 -79.7835,45.52025 -31.73055,67.95714 v 0 c 21.91495,10.21779 43.6915,20.5156 66.61075,28.34013 6.03426,2.06007 12.0917,4.09189 18.27201,5.66033 6.08652,1.54464 12.31881,2.44411 18.47822,3.66616 6.89475,-0.32227 14.00195,0.76185 20.68426,-0.96681 7.36206,-1.90451 14.37919,-5.40318 20.63758,-9.72286 4.54674,-3.13825 7.88335,-7.80231 11.17809,-12.23697 6.55938,-8.82881 9.86392,-21.41568 12.5616,-31.88532 0.82311,-4.09696 1.75292,-8.17392 2.46933,-12.29088 5.03456,-28.93202 6.04952,-58.38214 7.40921,-87.65268 1.66144,-48.07367 2.51676,-96.176 2.21232,-144.28015 -0.42093,-35.3911 -1.41045,-70.76187 -3.40442,-106.10283 -0.35289,-7.20514 -0.323,-16.98912 -2.18718,-23.93301 -3.27037,-12.18176 -7.67354,-18.44203 -17.59925,-26.05287 -1.78136,-1.0183 -3.50012,-2.1549 -5.34408,-3.05489 -7.03303,-3.43261 -14.77675,-4.65298 -22.45881,-5.61443 -23.88377,-2.66563 -47.94249,-2.35893 -71.90256,-0.76604 -44.70179,3.1741 -89.25037,8.19871 -133.56169,14.91855 -25.68549,3.9493 -51.32755,8.1504 -76.98364,12.28158 -52.71009,5.84354 -44.44607,80.38686 8.26401,74.54332 z"/>
<path d="m 521.24996,667.31495 c 22.81573,-4.19575 45.88731,-6.78479 68.93783,-9.28235 35.63895,-3.87002 71.51561,-3.75284 107.31156,-3.85056 14.32354,-0.0261 28.6471,-0.0128 42.97065,5e-4 53.03298,0.0494 53.10276,-74.95062 0.0698,-74.99996 v 0 c -14.41526,-0.0134 -28.83054,-0.0267 -43.2458,-2.6e-4 -38.43148,0.10555 -76.94342,0.0929 -115.20117,4.28841 -25.41962,2.76491 -50.86484,5.6441 -76.00553,10.39292 -51.93791,10.72164 -36.77523,84.17294 15.16268,73.4513 z"/>
<path d="m 513.02347,761.53244 c 19.71763,-5.21653 40.15959,-6.56231 60.42524,-7.88414 41.4008,-1.58294 82.84951,-1.87343 124.27607,-1.51227 24.12397,0.54679 12.50665,0.23103 34.85257,0.92499 53.00759,1.64172 55.32933,-73.32234 2.32174,-74.96405 v 0 c -23.32921,-0.72065 -11.15298,-0.3925 -36.5294,-0.95816 -43.3022,-0.36741 -86.63027,-0.0832 -129.90218,1.67508 -25.40026,1.7201 -50.96981,3.71672 -75.62451,10.48457 -51.07714,14.26974 -30.89667,86.50373 20.18047,72.23398 z"/>
<path d="m 580.8725,542.17259 c -0.40204,22.21719 -2.33581,44.3778 -3.93894,66.53085 -0.57804,8.46063 -1.20519,16.91804 -1.73413,25.38188 -1.34952,21.59462 -2.24306,37.18203 -2.60154,58.99446 -0.56358,34.29235 0.81211,68.51601 2.14408,102.77203 2.19649,48.78279 1.09393,24.41804 3.30759,73.09426 2.4093,52.97825 77.33187,49.57098 74.92256,-3.40727 v 0 c -2.20534,-48.49316 -1.10967,-24.28992 -3.28712,-72.60971 -1.27093,-32.48819 -2.62985,-64.95441 -2.12461,-97.47781 0.32393,-20.85237 1.17168,-35.54843 2.46467,-56.25464 0.52224,-8.36324 1.14194,-16.72011 1.71291,-25.08016 1.81848,-25.13139 4.14371,-50.30261 4.04926,-75.51925 -2.52816,-52.97271 -77.44289,-49.39736 -74.91473,3.57536 z"/>
</svg>
