<?xml version="1.0" ?>
<svg xmlns="http://www.w3.org/2000/svg" viewBox="0 0 1000 1000">
<path d="m 300.34216,109.71773 c -0.25399,0.4155 -0.50799,0.83099 -0.76198,1.24649 -1.04621,1.94251 -1.99908,3.93826 -3.13862,5.82752 -6.52526,10.81827 -11.65766,17.89241 -19.4915,28.565 -14.28106,19.45607 -22.02377,29.112 -37.29687,48.76849 -8.04498,9.77532 -15.98533,19.63769 -24.13493,29.32595 -8.82836,10.49518 -17.86885,20.81006 -26.79624,31.22113 -12.77329,14.89614 -42.22665,49.34434 -55.18241,64.28103 -16.46708,18.98487 -33.09348,37.83097 -49.62913,56.75614 -25.354151,29.25454 -13.3733,15.36212 -35.962783,41.65979 -34.555682,40.22941 22.337285,89.09852 56.892963,48.86912 v 0 c 22.30761,-25.9711 10.46494,-12.23809 35.54838,-41.18145 16.66273,-19.07064 33.41524,-38.06305 50.00871,-57.19398 12.58516,-14.50967 42.82222,-49.86103 55.24643,-64.35553 9.26479,-10.80863 18.64543,-21.51889 27.80242,-32.419 8.59078,-10.22612 16.95864,-20.63746 25.43796,-30.95619 14.49937,-18.67327 25.54262,-32.56257 39.2798,-51.44181 11.97332,-16.45512 24.11011,-33.2538 31.93435,-52.18922 1.37187,-3.32008 2.26239,-6.8192 3.39358,-10.22879 11.70593,-51.724961 -61.4442,-68.279644 -73.15013,-16.55469 z"/>
<path d="m 182.54729,318.38538 c 6.33162,14.86404 9.28447,30.91561 12.59295,46.63983 8.52033,47.6764 11.42362,96.19407 12.73164,144.54637 0.3561,13.16387 0.43624,26.33375 0.65437,39.50063 0.36053,56.46668 -1.82898,112.93572 -6.01774,169.24295 -2.4176,32.49852 -3.75857,43.88047 -6.95965,75.7898 -3.66032,34.85789 -8.27786,69.5987 -13.64776,104.23055 -8.11454,52.40853 66.00232,63.88423 74.11686,11.4757 v 0 c 5.56054,-35.96239 10.37193,-72.03339 14.15735,-108.23007 3.30637,-33.0474 4.67987,-44.71215 7.17427,-78.38595 4.32232,-58.35052 6.56344,-116.8682 6.16609,-175.38236 -0.23332,-13.71446 -0.32116,-27.43218 -0.69996,-41.1434 -1.45344,-52.60887 -4.77904,-105.38541 -14.30958,-157.2149 -4.8708,-22.78331 -9.49165,-46.10761 -20.1504,-67.04483 -25.43865,-46.53359 -91.24709,-10.55791 -65.80844,35.97568 z"/>
<path d="m 509.13933,77.593636 c -0.24159,0.673112 -0.38865,1.388092 -0.72478,2.019336 -0.43172,0.81078 -1.0688,1.495395 -1.56002,2.271573 -1.82974,2.891188 -3.51831,5.871797 -5.40152,8.728442 -2.91082,4.415427 -5.84093,8.823389 -8.97675,13.081963 -10.58516,14.37507 -18.56427,23.46563 -30.26155,37.50975 -37.07623,43.79592 -76.81054,85.18692 -116.96488,126.13686 -37.12973,37.86665 16.42181,90.37601 53.55153,52.50936 v 0 c 41.58909,-42.41593 82.71326,-85.31838 121.08872,-130.70301 21.79464,-26.26554 45.50735,-53.36442 59.3803,-84.94934 0.63794,-1.45241 1.02568,-3.00232 1.53851,-4.503475 15.62809,-50.67803 -56.04146,-72.779489 -71.66956,-22.101459 z"/>
<path d="m 537.73443,157.39669 c 13.85904,-1.24198 27.59898,-3.48141 41.42609,-5.01567 13.81852,-1.5333 17.49935,-1.76036 31.46876,-2.95981 24.24844,-1.83394 48.57502,-2.44121 72.87444,-1.54405 4.86437,0.24212 5.13361,0.23622 9.55059,0.51797 0.96721,0.0617 1.9351,0.116 2.9007,0.19915 0.20343,0.0175 0.80555,0.13456 0.60389,0.10261 -9.35412,-1.48164 -3.01927,-0.11155 -18.46638,-8.10963 -3.7626,-6.09556 -8.53666,-11.67275 -11.28782,-18.28669 -1.42021,-3.41426 -0.60302,-7.37112 -0.91751,-11.05559 -0.0584,-0.68387 0.27259,-2.54595 -0.20106,-2.04923 -1.58229,1.65935 -2.24458,4.00252 -3.49445,5.92473 -6.39817,9.83984 -9.73615,13.78299 -17.33311,23.79608 -21.95218,28.01054 -45.32343,54.86713 -68.43111,81.91964 -34.4443,40.3248 22.58359,89.0364 57.02789,48.7116 v 0 c 24.10128,-28.2162 48.47282,-56.23326 71.30474,-85.50023 9.40173,-12.54932 15.19031,-19.54911 23.1205,-32.73362 2.51542,-4.18208 4.93833,-8.44541 6.88824,-12.91922 4.05263,-9.29825 8.38211,-21.85335 5.27699,-32.24156 -2.35102,-7.865362 -7.9986,-14.338312 -11.9979,-21.507469 -5.39977,-3.019971 -10.56304,-6.508428 -16.19932,-9.059914 -2.15811,-0.976952 -4.62642,-1.031661 -6.96244,-1.425172 -6.14547,-1.035224 -12.49331,-0.61313 -18.67109,-1.234427 -27.35191,-0.972105 -54.73411,-0.341741 -82.02585,1.772034 -15.21129,1.315566 -18.95084,1.542525 -34.02141,3.22388 -14.79396,1.650495 -12.47761,1.545415 -25.71131,3.270861 -6.41828,0.836834 -6.47826,0.819348 -11.69991,1.369104 -52.91607,3.519864 -47.93823,78.354493 4.97784,74.834623 z"/>
<path d="m 371.39025,341.81225 c 4.03547,25.0213 11.03411,49.4203 17.75596,73.81558 4.73029,17.18552 9.0535,34.49538 12.27338,52.03426 1.4736,8.02676 3.03363,17.81781 3.58922,26.10168 0.17532,2.61398 0.0496,5.23946 0.0744,7.85918 -0.16936,1.65152 -0.33873,3.30304 -0.50809,4.95456 -3.62662,52.90886 71.19781,58.03767 74.82443,5.12881 v 0 c 0.21925,-4.01808 0.43851,-8.03616 0.65776,-12.05424 -0.168,-4.71405 -0.14362,-9.43889 -0.504,-14.14214 -0.79086,-10.32145 -2.76489,-22.7311 -4.64084,-32.80796 -3.5752,-19.20451 -8.28156,-38.17377 -13.46201,-57.00157 -6.20328,-22.50223 -12.74038,-44.99113 -16.41555,-68.08224 -10.03673,-52.0746 -83.68134,-37.88052 -73.64461,14.19408 z"/>
<path d="m 458.63836,378.94628 c 23.09859,-11.43234 47.23874,-20.81793 71.75536,-28.73771 8.55338,-2.76305 17.21074,-5.19323 25.81611,-7.78985 46.02572,-12.98979 93.53143,-20.0269 141.21411,-22.98923 7.97476,-0.49544 15.96513,-0.69536 23.94769,-1.04304 26.89075,-0.43371 53.98353,0.19303 80.4727,5.20939 3.92197,0.85201 7.85217,1.71974 11.70787,2.84436 0.0762,0.0222 -0.16007,-0.01 -0.23553,-0.0342 -0.70374,-0.22857 -1.39898,-0.48255 -2.09847,-0.72383 -15.95071,-10.81245 -10.6813,-4.67334 -20.57392,-22.58571 -0.35521,-0.64317 -0.48479,-2.79271 -0.69984,-2.09015 -0.43804,1.4311 0.0124,2.99388 -0.0347,4.48977 -0.0955,3.03546 -0.18965,6.07224 -0.39278,9.1024 -0.28696,4.28063 -0.71813,8.55037 -1.07719,12.82555 -2.0288,18.22474 -6.18626,36.11219 -10.61887,53.87376 -3.33111,13.34788 -7.52233,29.49809 -11.91224,42.55405 -2.32359,6.91054 -5.10052,13.66027 -7.65079,20.4904 -18.37943,49.74632 51.97249,75.73877 70.35192,25.99245 v 0 c 3.05213,-8.33345 6.35302,-16.57997 9.15639,-25.00036 4.66909,-14.02443 9.47368,-32.34847 13.03384,-46.74349 5.30526,-21.45114 10.14267,-43.07627 12.39374,-65.09719 0.96432,-12.2114 1.61732,-17.37601 1.70699,-29.15846 0.0311,-4.0911 -0.17428,-16.2223 -1.68161,-20.15654 -2.39596,-6.25364 -4.99704,-12.66801 -9.27104,-17.82375 -3.56959,-4.306 -9.08273,-6.52981 -13.62409,-9.79472 -8.04882,-3.07821 -16.42834,-5.05265 -24.87894,-6.72078 -8.97216,-1.62431 -11.27228,-2.16598 -20.8691,-3.30455 -25.38334,-3.0115 -51.00438,-3.63366 -76.53965,-3.07415 -8.85561,0.40186 -17.72009,0.64117 -26.56683,1.20558 -53.0368,3.38367 -105.84275,11.42293 -157.00816,25.97503 -9.57204,2.91111 -19.2022,5.63755 -28.71611,8.73333 -28.68628,9.33437 -56.94661,20.41672 -83.81398,34.1684 -46.24711,25.95583 -9.54003,91.35912 36.70708,65.40329 z"/>
<path d="m 554.69262,295.4306 c -0.71755,21.6694 -2.31722,43.29867 -3.77506,64.9274 -1.64408,26.06504 -2.80744,52.15474 -4.42399,78.2211 -3.27595,52.93174 71.58082,57.56463 74.85678,4.6329 v 0 c 1.60166,-25.92997 2.77929,-51.88143 4.39745,-77.81067 1.57058,-23.30541 3.3268,-46.61569 3.94482,-69.97073 0,-53.03301 -75,-53.03301 -75,0 z"/>
<path d="m 475.14579,515.07537 c 0.78602,-0.16956 1.58175,-0.29913 2.35806,-0.50869 13.89434,-3.75066 9.70888,-3.17261 26.77542,-6.81453 15.19098,-3.24168 30.65598,-5.89535 46.01968,-8.11588 9.11001,-1.31668 18.25548,-2.37507 27.38322,-3.56261 46.45655,-5.0974 93.23594,-8.25259 139.99541,-7.34498 6.9006,0.13394 13.79425,0.51333 20.69137,0.77 21.1405,1.61394 11.23001,0.63477 29.74601,2.78646 52.69176,6.00657 61.18633,-68.51082 8.49457,-74.51739 v 0 c -22.3783,-2.51058 -10.54143,-1.38871 -35.52413,-3.21986 -7.71475,-0.27292 -15.42593,-0.6791 -23.14423,-0.81875 -50.09729,-0.90643 -100.21395,2.44452 -149.98049,7.97724 -9.86949,1.29583 -19.75885,2.44842 -29.60847,3.8875 -17.0785,2.49525 -34.6913,5.54745 -51.5794,9.23006 -10.41786,2.27171 -25.4174,5.97805 -35.83513,9.60546 -4.01407,1.39768 -7.86166,3.23411 -11.79249,4.85116 -46.52396,25.45627 -10.52336,91.25108 36.0006,65.79481 z"/>
<path d="m 553.78508,455.18137 c -12.4621,10.85744 -23.73103,22.99282 -35.60958,34.46732 -12.74349,12.31001 -25.71131,24.38565 -38.5721,36.57306 -25.31368,24.97362 -51.53489,48.9886 -77.73844,73.01594 -17.50002,16.04665 -38.61751,35.53033 -56.29537,51.40196 -8.98963,8.07112 -18.07889,16.03057 -27.11834,24.04585 -7.88014,6.84089 -15.76029,13.68178 -23.64043,20.52267 -40.0454,34.76875 9.12503,91.4015 49.17043,56.63275 v 0 c 8.07762,-7.01418 16.15525,-14.02835 24.23287,-21.04252 9.26351,-8.21642 18.57719,-16.37661 27.79053,-24.64925 17.65357,-15.85108 39.04508,-35.58066 56.53388,-51.6196 26.50887,-24.31122 53.03696,-48.6088 78.65357,-73.86878 1.83732,-1.74112 36.51112,-34.58329 39.69318,-37.65781 11.82202,-11.42248 12.53299,-12.51137 22.81281,-22.6085 4.50776,-4.42765 4.32691,-4.21135 8.03733,-7.54365 40.77845,-33.90601 -7.17189,-91.57545 -47.95034,-57.66944 z"/>
<path d="m 547.10987,560.45592 c 9.9899,6.38279 19.01644,14.14669 27.38015,22.5277 3.71233,3.72001 7.21686,7.64177 10.82529,11.46266 17.31696,20.24583 32.2373,42.63202 43.82885,66.6483 8.1139,16.81104 9.409,22.14657 15.53302,39.72627 7.79312,25.63744 12.43403,52.23314 12.22038,79.08238 -0.1201,15.09229 -1.09982,19.31119 -2.99885,33.98622 -3.08402,16.5951 -7.20026,33.32053 -15.23656,48.30388 -3.29859,6.15008 -4.67985,7.51652 -8.77758,12.81588 -5.52153,6.56449 -11.96349,12.21765 -19.7508,15.85935 -0.16898,0.0554 -1.08941,0.49102 -1.52917,0.37833 -0.10393,-0.0266 0.11425,-0.21591 0.2198,-0.23511 1.05901,-0.19262 2.11741,-0.42351 3.19173,-0.49014 1.42742,-0.0885 2.86028,0.0174 4.29042,0.0261 -1.48001,-5.87988 7.89954,4.60386 7.98653,1.87099 0.0437,-1.37339 -1.86497,-2.02028 -2.84959,-2.97875 -3.10045,-3.01813 -6.26876,-5.96576 -9.40314,-8.94864 -38.51043,-36.46157 -90.07489,18.00041 -51.56445,54.46198 v 0 c 10.44626,9.84978 20.63954,20.86218 34.13287,26.61281 3.50281,1.49285 7.30857,2.13959 10.96286,3.20938 2.99148,0.2345 5.97382,0.69081 8.97445,0.70348 10.37929,0.0438 20.4203,-3.61987 29.72601,-7.83034 5.87257,-3.08522 7.89079,-3.9624 13.63101,-7.81501 12.44242,-8.35088 23.21884,-18.87801 32.53824,-30.57649 7.93282,-11.16257 10.10222,-13.35687 16.40426,-25.82252 11.14911,-22.05329 17.43282,-46.1838 21.49866,-70.44244 2.33832,-19.98102 3.57023,-25.48055 3.49842,-45.95739 -0.12065,-34.40486 -6.1914,-68.46103 -16.46353,-101.23851 -3.03157,-8.45916 -5.74524,-17.03909 -9.09472,-25.37748 -15.8356,-39.42202 -38.7621,-75.75004 -66.66906,-107.70742 -4.69069,-4.88972 -9.24586,-9.91316 -14.07207,-14.66917 -12.87367,-12.68645 -26.96914,-24.2983 -42.58101,-33.46193 -46.58114,-25.35149 -82.43356,40.52418 -35.85242,65.87567 z"/>
<path d="m 576.40307,570.49733 c -1.33506,1.24206 -2.73336,2.41945 -4.0052,3.72618 -1.91988,1.97256 -3.71277,4.06487 -5.56216,6.10366 -8.59844,9.47903 -4.12224,4.65278 -14.57559,16.01496 -14.2906,15.53304 -10.17799,11.06084 -26.09538,27.77729 -38.73372,41.17273 -80.78901,79.03989 -122.20047,117.46611 -38.875,36.07262 12.13939,91.05018 51.01439,54.97756 v 0 c 42.54872,-39.48151 85.72491,-78.42123 125.51152,-120.73539 14.33026,-15.06121 28.68459,-30.13597 42.44687,-45.72463 1.79148,-2.02922 2.4158,-2.07478 1.41639,-1.93632 40.77844,-33.90602 -7.17192,-91.57545 -47.95037,-57.66942 z"/>
<path d="m 605.96157,694.17883 c -10.88543,15.67085 -26.29339,27.48504 -40.70131,39.71456 -30.38869,24.15408 -61.48532,47.43029 -92.89863,70.23391 -9.02328,6.5502 -18.19526,12.89558 -27.16244,19.52236 -9.11286,6.73444 -18.04867,13.70523 -27.073,20.55785 -42.22359,32.08844 3.15632,91.80162 45.37991,59.71317 v 0 c 8.48932,-6.45714 16.88952,-13.03318 25.46797,-19.37143 9.16035,-6.7682 18.52757,-13.25219 27.74362,-19.94435 32.87175,-23.86957 65.42458,-48.22203 97.15181,-73.59635 12.2598,-10.4584 19.04728,-15.87623 30.29144,-26.75358 7.24206,-7.00581 14.79334,-14.62543 20.31453,-23.15999 33.17472,-41.37557 -25.33918,-88.29172 -58.5139,-46.91615 z"/>
<path d="m 878.85941,521.20241 c -0.1563,0.0806 -0.33603,0.12658 -0.46891,0.24176 -6.24918,5.41732 0.64216,0.18497 -9.15715,7.91305 -13.43907,10.59855 -27.53306,20.31345 -41.57958,30.07456 -22.71189,14.7753 -45.42329,29.57233 -68.64154,43.54744 -16.81143,10.11884 -29.06733,16.93443 -45.95846,26.51324 -46.12755,26.16772 -9.1208,91.40192 37.00674,65.2342 v 0 c 18.26957,-10.36766 30.10763,-16.94104 48.38438,-27.95037 24.3747,-14.68255 48.22611,-30.21614 72.0425,-45.77925 16.21957,-11.29704 19.41072,-13.27982 34.30342,-24.46849 12.29961,-9.24053 24.69001,-18.71277 34.40037,-30.77193 31.50458,-42.66101 -28.82719,-87.21521 -60.33177,-44.55421 z"/>
<path d="m 660.53238,653.41248 c 6.26138,6.26778 13.36519,11.59812 20.0804,17.35176 7.09409,6.07827 8.72429,7.76193 15.88213,14.45432 19.21134,18.63824 36.36333,39.29359 52.11824,60.90539 3.57192,4.89977 7.00287,9.90076 10.5043,14.85114 19.63648,28.6749 37.68709,58.38381 55.75442,88.05827 12.73581,20.6887 26.00908,41.34675 42.96865,58.8972 3.54169,3.66509 7.3522,7.06051 11.0283,10.59076 12.58055,11.25955 26.7426,20.50499 41.69528,28.28947 5.6146,2.923 11.42088,5.46204 17.13131,8.19306 47.94664,22.6632 79.99719,-45.14358 32.0506,-67.80678 v 0 c -14.05097,-6.53509 -27.58955,-12.8141 -39.34604,-23.16924 -2.29205,-2.11346 -4.6775,-4.12991 -6.87615,-6.34037 -13.91082,-13.98559 -24.2055,-31.04442 -34.59162,-47.65761 -18.9719,-31.15968 -37.94558,-62.34476 -58.62096,-92.4174 -3.93001,-5.53696 -7.77927,-11.13212 -11.79005,-16.61086 -18.38045,-25.10777 -38.45201,-49.03801 -60.88168,-70.63947 -3.41552,-3.17686 -6.7882,-6.4004 -10.24657,-9.53057 -7.78817,-7.04907 -16.09761,-13.47612 -23.88678,-20.51124 -37.54184,-37.45812 -90.51561,15.63405 -52.97378,53.09217 z"/>
</svg>
