<?xml version="1.0" ?>
<svg xmlns="http://www.w3.org/2000/svg" width="1000" height="1000">
<path d="m 334.86743,90.100394 c -12.76243,30.906026 -28.83068,60.301946 -44.25359,89.924246 -6.07195,11.18754 -12.02204,22.44209 -18.21585,33.56263 -6.98902,12.54827 -14.16567,24.99137 -21.33057,37.44006 -16.54054,28.73847 -30.54104,52.97758 -48.29651,81.03816 -17.82151,28.16493 -32.82013,49.6483 -51.56458,77.12312 -8.27889,11.94444 -16.55778,23.88887 -24.83667,35.83331 -30.2097,43.58755 31.4324,86.31051 61.6421,42.72297 v 0 c 8.38517,-12.09902 16.77034,-24.19804 25.15551,-36.29705 19.97305,-29.2935 34.58588,-50.19498 53.61501,-80.29854 18.05372,-28.56049 32.64761,-53.78299 49.45796,-83.00723 7.41812,-12.89616 14.84495,-25.78852 22.08007,-38.78823 6.39818,-11.49593 12.54512,-23.12991 18.81768,-34.69486 17.03239,-32.71658 34.81417,-65.20962 48.4362,-99.54751 17.6855,-49.997235 -53.02126,-75.008307 -70.70676,-25.011076 z"/>
<path d="m 331.91204,222.0329 c 2.02157,-0.006 4.04436,0.0521 6.06471,-0.0185 10.49738,-0.36659 20.95102,-1.65476 31.37083,-2.89296 4.91288,-0.58381 9.82174,-1.20099 14.73261,-1.80148 5.56948,-0.65844 11.13897,-1.31689 16.70846,-1.97533 23.11176,-2.72326 46.30737,-4.87299 69.58804,-5.2693 12.14635,-0.20677 14.45217,-0.001 25.97059,0.37511 6.8027,0.24515 13.5821,0.9111 20.30219,1.9838 1.46334,0.23359 2.99466,0.29894 4.35742,0.881 0.20111,0.0859 -0.43364,-0.0571 -0.65045,-0.0856 -7.48858,-2.33169 -14.12103,-7.69873 -17.90152,-14.69056 -2.18751,-4.0457 -3.29624,-8.61274 -4.39712,-13.07827 -0.45347,-1.83943 -0.15138,-3.78599 -0.22707,-5.67898 -0.24425,0.43248 -0.53378,0.84236 -0.73276,1.29745 -8.42825,19.27642 5.73007,-11.70246 -7.42392,17.45816 -4.46206,9.89178 -9.96921,21.48791 -15.04862,30.94756 -3.41326,6.35671 -7.10609,12.55931 -10.65913,18.83896 -13.0767,20.96731 -13.39919,22.43265 -28.51972,42.68272 -5.79005,7.7543 -11.92218,15.24724 -17.8557,22.89232 -6.42037,8.27238 -12.80392,16.57328 -19.20588,24.85992 -32.42233,41.96776 26.92904,87.81986 59.35137,45.8521 v 0 c 6.35115,-8.22109 12.69333,-16.44913 19.05345,-24.66328 6.61675,-8.5456 13.44598,-16.92983 19.87715,-25.61596 17.1471,-23.15938 17.9369,-25.47474 32.64519,-49.1986 4.10349,-7.31267 8.36164,-14.54067 12.31047,-21.938 5.61628,-10.52097 11.98135,-23.92841 16.92046,-34.95832 2.82361,-6.30563 8.01717,-18.39973 10.27772,-25.22967 1.17914,-3.56259 1.98855,-7.23708 2.98282,-10.85562 0.33042,-4.32163 1.52754,-8.66396 0.99128,-12.9649 -0.72662,-5.82769 -2.18988,-11.67539 -4.7241,-16.97328 -5.07793,-10.61559 -15.19613,-16.91417 -25.73635,-20.69126 -14.19773,-4.01996 -28.96115,-5.37231 -43.66541,-6.03572 -13.58854,-0.40154 -16.59404,-0.64381 -30.75669,-0.37057 -25.39961,0.49004 -50.71301,2.76711 -75.9305,5.74767 -18.9586,2.24204 -37.89951,4.9824 -56.95452,6.23409 -52.98724,-2.20285 -56.10253,72.73242 -3.1153,74.93527 z"/>
<path d="m 211.82914,393.91499 c 4.91534,22.27279 11.64395,44.0831 17.27375,66.17332 1.88878,7.41121 3.60817,14.86456 5.41226,22.29684 9.78855,43.40735 18.88388,86.96714 28.39795,130.43515 0.93438,4.2673 1.86875,8.5346 2.80313,12.8019 11.34348,51.80565 84.60773,35.76354 73.26425,-16.04211 v 0 c -0.934,-4.26559 -1.868,-8.53119 -2.80201,-12.79678 -9.63863,-44.03152 -18.83676,-88.15975 -28.78769,-132.12221 -1.94884,-7.99854 -3.81199,-16.01844 -5.84651,-23.99562 -5.3003,-20.78198 -11.61553,-41.30211 -16.33086,-62.23434 -10.94873,-51.89051 -84.333,-36.40667 -73.38427,15.48385 z"/>
<path d="m 302.05134,438.65717 c 19.59951,-5.66879 39.11952,-11.65105 59.03935,-16.13279 6.90184,-1.55284 13.85546,-2.86589 20.78319,-4.29884 42.01611,-7.83628 84.6947,-11.67542 127.38088,-13.20133 8.67538,-0.31012 17.35712,-0.4046 26.03569,-0.6069 29.0771,-0.25132 58.18933,0.42362 87.16715,2.95419 12.83192,1.12058 16.88334,1.74226 29.17505,3.29536 11.1957,1.60948 22.54585,2.98473 33.27731,6.71729 0.96104,0.3673 1.93991,0.68612 2.90252,1.04908 0.087,0.0328 -0.18228,-0.0413 -0.26838,-0.0765 -0.58707,-0.24004 -1.20381,-0.42501 -1.74934,-0.74853 -2.26717,-1.3445 -4.78719,-2.40199 -6.67139,-4.24522 -3.40636,-3.33232 -6.00807,-7.39823 -9.01211,-11.09734 -0.88648,-2.30544 -1.56027,-4.70438 -2.65946,-6.91632 -0.18454,-0.37136 -0.15833,0.81846 -0.16475,1.23309 -0.0351,2.26663 0.0668,4.53384 0.0404,6.80059 -0.10114,8.68624 -0.37455,16.50415 -1.06336,25.24986 -0.44921,5.70356 -1.10602,11.38886 -1.65903,17.0833 -2.83816,20.16811 -6.57758,40.3458 -13.06481,59.70558 -2.22354,6.6357 -4.84289,13.13991 -7.62667,19.56075 -4.88401,11.26507 -13.98603,28.58208 -19.50358,39.35461 -24.13692,47.22192 42.64496,81.35667 66.78187,34.13475 v 0 c 7.5434,-14.78549 16.39826,-31.49764 22.8027,-46.77505 3.59501,-8.57567 6.90685,-17.28154 9.78754,-26.12281 7.69535,-23.61817 12.20291,-48.17036 15.48418,-72.73742 0.62772,-6.68613 1.37665,-13.36199 1.88315,-20.0584 0.73986,-9.7816 1.13353,-20.41792 1.17267,-30.28958 0.0168,-4.23851 -0.0952,-15.54809 -0.96334,-19.89719 -0.87593,-4.38794 -2.46222,-8.60364 -3.69332,-12.90546 -3.42815,-4.57851 -6.32637,-9.60655 -10.28445,-13.73555 -4.909,-5.12096 -12.12967,-7.26807 -18.56265,-9.65348 -15.527,-5.14413 -31.63003,-8.03607 -47.84547,-10.04621 -13.94753,-1.74028 -18.43728,-2.42518 -32.96999,-3.67395 -31.41586,-2.69952 -62.97238,-3.44767 -94.49299,-3.13833 -9.29418,0.22451 -18.59189,0.3329 -27.88254,0.67353 -46.60147,1.70863 -93.18286,6.01997 -139.03281,14.68645 -7.82447,1.63682 -15.67749,3.14264 -23.4734,4.91047 -20.18141,4.57641 -40.01515,10.48901 -59.85245,16.33828 -51.34302,13.28135 -32.56035,85.89135 18.78267,72.60999 z"/>
<path d="m 417.88119,397.76781 c -0.39624,29.01792 -0.18836,58.04168 -0.14094,87.06154 0.12344,21.33201 -0.23428,42.66042 -0.64779,63.98703 -1.02405,53.02312 73.96196,54.47134 74.98601,1.44822 v 0 c 0.42039,-21.85018 0.78617,-43.70217 0.66168,-65.55781 -0.0474,-28.97908 -0.25402,-57.96178 0.14104,-86.93898 0,-53.03301 -75,-53.03301 -75,0 z"/>
<path d="m 302.70394,614.53951 c 20.67552,-2.96085 41.2197,-6.76112 61.89355,-9.73425 7.48833,-1.07691 14.99505,-2.02185 22.49257,-3.03277 35.69535,-4.38389 71.67254,-6.06402 107.62201,-5.86574 20.51036,0.11313 29.75928,0.63102 49.92892,1.41255 23.07648,1.09261 46.06193,3.40097 69.02125,5.88276 52.72657,5.69283 60.77745,-68.87381 8.05088,-74.56664 v 0 c -24.67843,-2.66154 -49.38718,-5.11434 -74.19221,-6.26081 -21.55636,-0.82186 -31.43149,-1.37071 -53.39546,-1.46557 -39.11193,-0.16891 -78.24929,1.72894 -117.07876,6.53896 -7.9605,1.0779 -15.93044,2.08821 -23.8815,3.2337 -20.51802,2.95597 -40.9097,6.71393 -61.42828,9.66398 -52.46296,7.75486 -41.49593,81.94869 10.96703,74.19383 z"/>
<path d="m 407.47277,564.95267 c -10.27324,19.25167 -23.50258,36.6956 -36.37397,54.24036 -25.68322,33.63935 -52.71647,66.26562 -80.65212,98.05709 -14.24036,16.20588 -36.86709,41.06889 -51.32596,57.03422 -24.74765,27.15341 -50.64972,53.20816 -76.53984,79.26047 -37.37976,37.61985 15.82274,90.48283 53.2025,52.86298 v 0 c 26.70173,-26.87734 53.40952,-53.76318 78.92922,-81.7792 15.27212,-16.86469 37.55071,-41.3386 52.53298,-58.40006 29.23124,-33.28785 57.51301,-67.45358 84.34865,-102.70377 15.32972,-20.94062 30.95147,-41.86033 42.93038,-64.97074 23.75974,-47.41281 -43.2921,-81.01416 -67.05184,-33.60135 z"/>
<path d="m 417.88119,684.45751 c 0,16.63592 0,33.27184 0,49.90776 0.0571,23.82329 0.50465,47.65577 2.21249,71.42184 1.44485,15.41767 4.00311,30.97168 10.77076,45.05386 1.33664,2.78128 2.96076,5.41501 4.44115,8.12252 7.26926,11.40294 16.84843,20.91914 28.62315,27.66697 8.85742,5.07598 13.27882,6.18273 22.86583,9.62544 29.97365,8.66217 61.29241,10.73331 92.26755,12.8385 36.46708,2.28767 73.00793,2.22616 109.52646,1.97643 27.42193,-0.26774 54.845,-0.38741 82.26508,-0.81324 10.36289,-0.5031 20.93177,-0.0573 31.18647,-1.97955 2.91647,-0.5467 5.90682,-0.94391 8.66587,-2.03582 4.76424,-1.88546 9.17662,-4.56084 13.76493,-6.84127 4.47222,-4.90992 9.82228,-9.1451 13.41667,-14.72977 8.9273,-13.87055 10.34601,-35.60528 11.52159,-51.54376 0.60446,-8.19534 2.13966,-39.9637 2.49039,-46.9738 0.53701,-9.24824 1.07402,-18.49647 1.61104,-27.74471 3.07199,-52.94396 -71.80208,-57.28841 -74.87407,-4.34445 v 0 c -0.54779,9.44771 -1.09557,18.89542 -1.64336,28.34313 -0.27445,5.49047 -1.78715,36.48029 -2.28591,44.03966 -0.29196,4.42507 -0.7236,8.83982 -1.09758,13.25871 -0.16538,1.95424 -1.36012,4.08819 -0.52049,5.8606 1.94833,4.11283 10.50852,-30.88887 10.3267,-8.93092 2.49295,-0.90985 4.94718,-1.93377 7.47886,-2.72954 0.32409,-0.10187 1.34314,-0.0378 1.01747,0.0589 -1.40036,0.41573 -6.38735,0.75584 -7.15036,0.80135 -4.75836,0.28382 -10.37815,0.37995 -15.07384,0.50029 -27.20307,0.4232 -54.40918,0.53855 -81.61409,0.80595 -34.66241,0.23868 -69.3461,0.33714 -103.96151,-1.80796 -24.43735,-1.6366 -49.10832,-3.12807 -72.98092,-8.95036 -2.5403,-0.77515 -5.037,-1.69897 -7.60459,-2.37828 -0.283,-0.0749 -0.59516,0.016 -0.87556,-0.0681 -0.91874,-0.27546 -1.64041,-0.99395 -2.4392,-1.48281 -4.40846,-4.81316 -4.26492,-15.13299 -5.31897,-21.07803 -1.64563,-21.93691 -1.89453,-43.95114 -2.01201,-65.9418 0,-16.63592 0,-33.27184 0,-49.90776 0,-53.03301 -75,-53.03301 -75,0 z"/>
</svg>
