<?xml version="1.0" ?>
<svg xmlns="http://www.w3.org/2000/svg" width="1000" height="1000">
<path d="m 242.72423,221.17226 c 2.85894,28.66978 2.97388,57.53413 3.34677,86.31603 0.37649,64.85641 -0.12409,129.71469 -1.61862,194.55432 -0.82166,27.69701 -1.57705,55.41027 -3.59343,83.05327 -1.30528,17.8944 -1.90977,21.74858 -3.85866,38.73046 -6.00519,52.69191 68.51243,61.18452 74.51762,8.49261 v 0 c 2.13717,-18.87048 2.7736,-22.91364 4.20431,-42.6964 2.06668,-28.57651 2.86956,-57.22328 3.71032,-85.85499 1.50957,-65.74165 2.02584,-131.50208 1.63204,-197.26066 -0.41974,-31.77052 -0.5731,-63.64542 -4.00121,-95.26897 -7.02463,-52.56572 -81.36378,-42.63139 -74.33914,9.93433 z"/>
<path d="m 379.70089,207.64901 c 1.24514,24.62894 2.90794,49.23337 4.08463,73.86952 2.00819,55.14946 2.23326,110.3458 2.10359,165.52543 -0.22119,33.60074 -0.52519,67.22154 -2.36626,100.78103 -0.9278,16.91228 -1.3988,20.83315 -2.83361,37.16761 -0.51163,4.86023 -1.02326,9.72047 -1.53489,14.5807 -5.53166,52.74373 69.05924,60.56667 74.59089,7.82294 v 0 c 0.5532,-5.29278 1.1064,-10.58556 1.65959,-15.87834 1.55212,-17.86638 2.03971,-21.89868 3.04334,-40.34667 1.88323,-34.61634 2.21925,-69.29432 2.44074,-103.95283 0.12992,-56.43269 -0.10476,-112.88286 -2.18907,-169.28377 -1.12324,-23.44254 -2.52146,-46.86397 -3.99895,-70.28562 0,-53.03301 -75,-53.03301 -75,0 z"/>
<path d="m 438.2362,256.49932 c 15.51985,-2.95944 30.96677,-6.32372 46.48215,-9.33662 35.48651,-6.16048 70.84485,-12.97912 106.17627,-19.96545 23.30851,-4.19622 46.58753,-9.14203 70.22075,-11.14848 4.72859,-0.32624 9.47551,-0.47332 14.21019,-0.20783 -9.68257,-0.43962 -17.81711,-5.56148 -24.27524,-12.70156 -2.1709,-2.40014 -3.48428,-5.4652 -4.97001,-8.34027 -0.59764,-1.1565 -0.83442,-2.46625 -1.25164,-3.69938 -0.092,-0.27056 -0.26158,-1.09709 -0.276,-0.81168 -0.0506,1.00269 0.11374,2.00472 0.1651,3.00737 0.22234,4.33987 0.51505,10.42393 0.66861,14.54837 0.37517,10.07656 0.41512,13.71403 0.65441,24.25579 0.475,38.64214 0.95058,77.28287 1.70871,115.92086 1.19764,45.53316 2.29438,91.06862 3.1827,136.60888 0.2218,31.57019 1.03748,63.20724 -0.79925,94.74959 -0.27959,4.80142 -0.71995,9.59212 -1.07992,14.38817 -0.80496,10.19571 -2.58949,20.25486 -4.51479,30.28294 -9.85525,52.10926 63.83836,66.04668 73.69361,13.93743 v 0 c 2.39675,-12.81983 4.62653,-25.6766 5.6178,-38.70076 0.40509,-5.57136 0.8985,-11.137 1.21527,-16.71407 1.87974,-33.09544 1.12519,-66.28257 0.85301,-99.4064 -0.88887,-45.54318 -1.98245,-91.08165 -3.18287,-136.61767 -0.76028,-38.71793 -1.22887,-77.4387 -1.71381,-116.16067 -0.2668,-11.62455 -0.5583,-23.23912 -1.10154,-34.8544 -0.12217,-2.61196 -0.48013,-10.20667 -0.7773,-13.07938 -0.22983,-2.22184 -0.59222,-4.42796 -0.88833,-6.64194 -2.0152,-7.44657 -2.69571,-12.30394 -8.13962,-18.89428 -8.36517,-10.12678 -18.30372,-15.04192 -30.97057,-15.97968 -8.21873,-0.40109 -16.45447,-0.24499 -24.65865,0.40421 -26.27975,2.40293 -52.22934,7.39293 -78.13922,12.27945 -35.25051,6.97034 -70.52954,13.76188 -105.93308,19.91778 -14.54154,2.82715 -29.04581,5.88174 -43.55599,8.82795 -52.41904,8.04635 -41.03979,82.17807 11.37925,74.13173 z"/>
<path d="m 462.42909,456.51113 c 26.00154,-4.22208 51.99224,-8.49627 78.05627,-12.31712 28.18773,-3.86469 56.64108,-6.46555 85.11762,-6.3296 3.92398,0.0187 7.84585,0.18581 11.76877,0.27872 7.96172,0.27342 15.87781,1.14418 23.78486,2.05397 52.69423,5.98486 61.1581,-68.53602 8.46388,-74.52089 v 0 c -10.17712,-1.14393 -20.36779,-2.21469 -30.614,-2.51527 -4.78172,-0.0969 -9.56247,-0.2807 -14.34517,-0.29061 -31.80612,-0.0659 -63.58233,2.76825 -95.06588,7.11849 -26.06221,3.8287 -52.05803,8.06699 -78.05454,12.31687 -52.47117,7.69911 -41.58298,81.90455 10.88819,74.20544 z"/>
<path d="m 438.44027,640.32723 c 13.74892,-4.90271 28.12573,-7.39188 42.48248,-9.72975 30.55055,-4.33096 61.40311,-5.53158 92.21914,-5.82361 10.57968,0.0675 21.16741,0.26479 31.71583,1.13887 2.26827,0.18796 8.75351,0.49181 11.2012,1.58034 -0.41951,-0.0647 -0.83902,-0.12934 -1.25852,-0.19401 49.97963,17.73518 75.06095,-52.94669 25.08132,-70.68187 v 0 c -2.28399,-0.72627 -4.56797,-1.45255 -6.85196,-2.17883 -2.47026,-0.52137 -4.92331,-1.1323 -7.41079,-1.56411 -17.45626,-3.03029 -35.59038,-2.65016 -53.22211,-3.09669 -34.65822,0.35878 -69.35862,1.79067 -103.69721,6.82264 -5.02695,0.8399 -10.07022,1.58743 -15.08086,2.51971 -13.16742,2.44994 -26.15668,5.76437 -38.8484,10.04035 -50.32264,16.73713 -26.65276,87.9041 23.66988,71.16696 z"/>
<path d="m 340.19969,731.42877 c -4.13837,12.20399 -9.86236,24.00082 -16.24714,35.18111 -3.08078,5.39471 -6.43285,10.6299 -9.64927,15.94484 -12.83993,20.01594 -27.10852,39.09488 -42.37996,57.31688 -11.5091,13.73276 -19.00149,21.54249 -30.99013,34.51194 -35.97231,38.96785 19.13655,89.84038 55.10886,50.87253 v 0 c 13.60351,-14.75449 21.27503,-22.73617 34.40068,-38.47521 17.3864,-20.84812 33.59881,-42.69085 48.15598,-65.6114 3.92428,-6.57468 8.02377,-13.04789 11.77285,-19.72403 9.20139,-16.38529 17.32993,-33.71006 22.57908,-51.78761 12.88989,-51.44269 -59.86106,-69.67175 -72.75095,-18.22905 z"/>
<path d="m 494.84814,665.14025 c 0.88042,14.5496 1.31823,29.12704 1.73562,43.69807 0.92656,30.0987 0.19243,60.20858 0.0963,90.31237 0.22543,21.00207 0.6195,42.09745 3.34387,62.95484 0.42882,3.28301 0.99966,6.54591 1.4995,9.81887 2.35852,12.83361 5.68898,25.81838 12.93014,36.88543 6.18194,9.44819 8.32985,10.48101 16.50661,17.93882 16.07076,12.03817 35.31241,17.33244 54.96815,19.822 4.06071,0.51432 8.14679,0.80325 12.22018,1.20488 26.03561,1.70071 52.14498,1.64089 78.22072,2.2599 21.83866,0.65454 43.67365,1.41632 65.52327,1.52202 14.87066,0.13589 30.5766,-0.34458 43.24943,-9.43712 4.50618,-3.2331 7.9828,-7.70127 11.97421,-11.5519 2.57224,-4.6879 5.63551,-9.13811 7.71673,-14.06369 3.74666,-8.86715 6.00136,-21.78279 7.57566,-31.09077 1.10566,-6.53714 2.03764,-13.1028 2.97555,-19.6661 3.07308,-21.50498 4.01708,-30.01518 6.76366,-52.15644 6.52371,-52.63023 -67.90668,-61.85614 -74.43039,-9.22591 v 0 c -2.79308,22.55109 -5.55208,45.10198 -9.08457,67.55257 -0.54629,3.47191 -1.22646,6.92183 -1.77584,10.39324 -0.17771,1.12295 -1.44636,2.93054 -0.40494,3.38664 1.07217,0.46956 1.66286,-1.64773 2.49429,-2.47159 6.48776,-4.74597 5.44414,-4.91284 12.95855,-6.9974 0.74953,-0.20793 1.56877,-0.29146 2.32985,-0.13086 0.53162,0.11218 -1.06342,0.24137 -1.60509,0.2838 -3.10792,0.24344 -7.45451,0.17121 -10.38718,0.17634 -21.37375,-0.0957 -42.7325,-0.8795 -64.09584,-1.50177 -24.3206,-0.5757 -48.66664,-0.57601 -72.95926,-1.94993 -6.54207,-0.57485 -8.7055,-0.63764 -14.89325,-1.61584 -1.68876,-0.26697 -3.36879,-0.59175 -5.03963,-0.95437 -1.80997,-0.39281 -3.5594,-1.08201 -5.39488,-1.32958 -0.23662,-0.0319 -0.47526,0.0464 -0.71289,0.0696 -0.53715,1.81448 0.42697,-1.75229 0.12817,1.80809 -0.0118,0.14033 -0.31668,0.24247 -0.40188,0.13034 -0.43927,-0.57813 -0.7185,-1.26822 -0.97797,-1.94635 -1.22729,-3.20751 -1.51995,-5.41519 -2.27108,-8.92499 -3.25469,-20.14293 -3.8348,-40.58242 -3.94422,-60.95734 0.0952,-30.90047 0.84536,-61.80722 -0.12686,-92.70227 -0.49485,-17.16652 -0.87498,-34.36232 -2.36547,-51.47759 -7.02439,-52.56575 -81.36359,-42.63177 -74.3392,9.93398 z"/>
</svg>
