<?xml version="1.0" ?>
<svg xmlns="http://www.w3.org/2000/svg" width="1000" height="1000">
<path d="m 452.4158,67.866719 c -7.31986,19.879844 -16.59224,38.930931 -26.03118,57.868091 -28.42495,56.17539 -59.37688,111.01506 -90.96639,165.4559 -35.62953,60.12451 -72.58912,119.54767 -112.71309,176.79839 -7.92102,11.30208 -16.11273,22.41201 -24.16909,33.61802 -23.49402,31.71065 -47.72799,62.88174 -72.80039,93.36155 -7.4422,9.04726 -14.88103,18.10188 -22.5895,26.92339 -6.944362,7.94709 -14.239435,15.58075 -21.359154,23.37113 -35.737089,39.18368 19.676994,89.72355 55.414084,50.53987 v 0 c 7.80316,-8.5717 15.78712,-16.98224 23.40947,-25.71511 8.01187,-9.17915 15.74585,-18.5983 23.48344,-28.0098 25.95456,-31.5694 51.03971,-63.85531 75.34914,-96.70659 8.39745,-11.69281 16.93408,-23.28691 25.19235,-35.07843 41.16041,-58.77061 79.10097,-119.75118 115.65552,-181.46572 32.38487,-55.8291 64.11612,-112.06714 93.24082,-169.68223 10.96035,-22.06253 21.70307,-44.28944 30.01919,-67.513379 16.80446,-50.300203 -54.33077,-74.065285 -71.13522,-23.765082 z"/>
<path d="m 472.22935,176.82513 c 20.28854,19.25026 39.85939,39.22957 59.23437,59.39269 40.99942,43.96541 78.95329,90.64243 117.0205,137.1333 31.6006,38.5297 62.47423,77.6315 92.79527,117.17259 15.19019,19.6175 30.08105,39.48137 46.30114,58.26769 18.93832,20.46253 40.13683,38.65254 60.60102,57.54122 12.93707,12.08642 25.72651,24.32809 38.48459,36.60263 38.21888,36.76707 90.21536,-17.28259 51.99648,-54.04966 v 0 c -13.13353,-12.63354 -26.2977,-25.23502 -39.61884,-37.67132 -18.41911,-16.9928 -37.43922,-33.39978 -54.7713,-51.52503 -15.30817,-17.60375 -29.11455,-36.43696 -43.47777,-54.80462 -30.80783,-40.17356 -62.17675,-79.90142 -94.2824,-119.04907 -39.32767,-48.02728 -78.55907,-96.23018 -120.97782,-141.59216 -20.16587,-20.97267 -40.52977,-41.75932 -61.64176,-61.7863 -38.44401,-36.531602 -90.10749,17.83645 -51.66348,54.36804 z"/>
<path d="m 386.25284,522.6317 c 17.20886,-4.82313 34.55295,-9.19086 52.09972,-12.61238 6.50405,-1.26825 13.0406,-2.36375 19.5609,-3.54563 29.28993,-4.88619 58.91841,-7.68895 88.59832,-8.55108 15.00114,-0.43574 22.29024,-0.18468 36.9891,0.0233 18.61925,0.66792 9.81681,0.24564 26.41039,1.20154 52.94749,3.01065 57.20518,-71.8684 4.2577,-74.87905 v 0 c -18.753,-1.05402 -8.86704,-0.59377 -29.66085,-1.31573 -16.70264,-0.21348 -24.32676,-0.4796 -41.44573,0.0493 -33.02896,1.02036 -65.9949,4.20016 -98.58371,9.68481 -7.22946,1.32162 -14.47726,2.54657 -21.68838,3.96485 -18.71135,3.68016 -37.22556,8.29685 -55.58438,13.43893 -51.29432,13.46821 -32.2474,86.00933 19.04692,72.54113 z"/>
<path d="m 264.10276,727.04214 c 31.69982,-10.58667 64.52744,-17.1389 97.22144,-23.77288 57.90943,-10.85784 116.52815,-18.20914 175.40648,-20.86526 11.65652,-0.52585 23.32751,-0.65656 34.99127,-0.98484 38.91713,-0.49882 77.84142,1.63985 116.49455,6.1386 15.98668,1.86065 24.26477,3.22764 39.78965,5.56438 19.47211,3.23647 10.23682,1.63674 27.71212,4.76302 52.20634,9.32726 65.39707,-64.50366 13.19073,-73.83092 v 0 c -18.76986,-3.34932 -8.84918,-1.63587 -29.76879,-5.10105 -16.99352,-2.54476 -25.66754,-3.9771 -43.22125,-5.99887 -41.92696,-4.82898 -84.14444,-7.09431 -126.35114,-6.50421 -12.49108,0.36577 -24.99009,0.52139 -37.47325,1.09732 -62.33744,2.87603 -124.40026,10.67674 -185.70642,22.22411 -35.64496,7.25405 -71.40605,14.51543 -105.95476,26.10346 -50.32276,16.73677 -26.65339,87.90391 23.66937,71.16714 z"/>
<path d="m 461.3653,507.18385 c 2.6454,21.92718 4.05208,43.99691 5.62981,66.02138 2.71455,47.83418 4.77666,95.76387 4.52043,143.68795 -0.0566,10.58458 -0.35948,21.16641 -0.53923,31.74961 -0.92952,30.36418 -3.03365,60.6725 -5.00106,90.98122 -3.43374,52.92173 71.40889,57.77777 74.84262,4.85604 v 0 c 2.04353,-31.50936 4.22203,-63.01895 5.14803,-94.58747 0.18268,-11.16297 0.49284,-22.32457 0.54804,-33.48889 0.24502,-49.54995 -1.87696,-99.10531 -4.71079,-148.56106 -1.68954,-23.55292 -3.21249,-47.14957 -6.09867,-70.59284 -7.02444,-52.56574 -81.36362,-42.63169 -74.33918,9.93406 z"/>
<path d="m 361.27771,898.0152 c 1.96956,-0.11451 3.94212,-0.1856 5.90866,-0.34354 8.51038,-0.68347 16.98468,-1.9624 25.45966,-2.96327 14.49389,-1.71167 12.84123,-1.47881 28.25217,-3.05947 25.86383,-2.43368 51.87082,-3.65819 77.85307,-3.345 17.86787,0.21537 23.24051,0.7732 40.99066,1.88222 29.90136,2.3665 59.6199,6.97602 88.82494,13.79514 51.66233,11.9793 68.60362,-61.08227 16.94129,-73.06157 v 0 c -33.27901,-7.67264 -67.09395,-13.02614 -101.16371,-15.59222 -7.58307,-0.45948 -15.15954,-1.04513 -22.74919,-1.37845 -36.13166,-1.58686 -72.36918,-0.29829 -108.36304,3.09269 -17.30885,1.7815 -34.76789,3.53909 -51.95451,5.97347 -53.033,0 -53.033,75 0,75 z"/>
</svg>
