<?xml version="1.0" ?>
<svg xmlns="http://www.w3.org/2000/svg" width="1000" height="1000">
<path d="m 170.35263,305.1898 c -6.80548,38.52952 -3.86295,77.97999 -1.96915,116.80694 2.72276,49.85529 6.07156,99.69121 12.19877,149.26088 4.31781,34.93138 5.9749,42.92173 11.63851,77.46448 2.15529,12.0657 4.23943,24.14432 6.46587,36.19709 4.37714,23.69552 7.89048,41.61943 13.03762,65.02349 5.39831,24.54614 11.50563,48.90901 17.80496,73.23512 3.36268,13.3846 7.38775,26.5744 11.70449,39.67497 16.6828,50.34068 87.87528,26.74764 71.19248,-23.59304 v 0 c -3.84177,-11.5082 -7.32476,-23.12657 -10.29493,-34.89531 -6.01919,-23.21181 -11.8565,-46.46024 -17.01773,-69.88183 -5.00162,-22.6973 -8.33928,-39.73541 -12.59689,-62.75924 -2.16504,-11.70791 -4.19215,-23.4409 -6.28822,-35.16136 -5.39188,-32.74213 -6.98718,-40.42761 -11.10137,-73.5551 -5.96724,-48.04832 -9.18484,-96.35936 -11.83373,-144.68675 -1.58943,-32.17286 -4.19932,-64.76485 0.26561,-96.82576 11.52908,-51.76466 -61.67721,-68.06924 -73.20629,-16.30458 z"/>
<path d="m 323.24678,394.60342 c 17.79496,-12.35143 37.9839,-19.78801 58.07108,-27.45988 34.3725,-11.99451 69.52571,-21.75759 105.04683,-29.71025 26.01139,-5.82356 37.76629,-7.75178 64.08124,-12.63567 49.67132,-8.43413 99.73972,-15.07014 150.06725,-17.93408 7.66493,-0.43618 15.34145,-0.63678 23.01217,-0.95517 13.24847,-0.0669 22.64348,-0.42398 35.63444,0.58774 9.39197,0.73144 19.44721,2.04844 27.79091,6.84267 1.42782,0.82041 2.59716,2.0253 3.89573,3.03794 8.38016,12.87256 13.63951,27.53574 17.46068,42.33957 1.48277,5.74449 2.60976,11.57498 3.91465,17.36247 5.69804,30.64734 7.95034,61.85134 7.18345,93.00488 -0.5419,22.01364 -1.98452,35.05781 -3.84772,57.14345 -3.89107,39.24632 -9.99465,78.28334 -18.32212,116.83434 -4.39615,20.35143 -7.97399,34.00294 -12.99945,54.11868 -7.56366,28.74458 -16.17511,57.24589 -26.78951,85.02254 -4.26562,11.16264 -8.2046,20.30722 -12.80753,31.2674 -6.79699,17.06643 -15.19914,33.17791 -25.3994,48.42181 1.30749,-2.09591 -4.43977,6.16799 -4.03688,4.82392 0.53182,-1.7742 3.88523,-3.25305 5.13141,-3.99546 -5.50174,3.09862 5.53494,-1.30024 4.27709,-2.3256 -1.28005,-1.04346 -2.92507,-1.53521 -4.36291,-2.3476 -3.47691,-1.9645 -7.0454,-3.78497 -10.38002,-5.98234 -16.37826,-10.79259 -19.68948,-14.59497 -35.80196,-28.30786 -7.24973,-7.04394 -14.49947,-14.08789 -21.7492,-21.13183 -38.14459,-36.84413 -90.25007,17.10046 -52.10548,53.9446 v 0 c 8.53106,8.19884 17.06212,16.39768 25.59318,24.59652 8.52951,7.10067 16.75372,14.58501 25.58855,21.302 13.00511,9.88758 28.21376,19.76039 43.44352,26.14278 11.30284,4.73673 22.63487,7.75246 34.93947,7.44823 4.86854,-0.12037 9.62469,-1.49461 14.43704,-2.24192 3.46818,-1.41233 7.06348,-2.54578 10.40456,-4.23699 11.45932,-5.80055 19.87998,-15.79129 27.06004,-26.13793 3.64296,-5.49632 5.46534,-8.12074 8.97,-13.99564 8.95734,-15.01527 16.40882,-30.84197 23.15076,-46.96074 5.26979,-12.57218 9.20039,-21.67855 14.10592,-34.58028 11.50275,-30.25263 20.89537,-61.26753 29.09909,-92.56369 5.41173,-21.70254 9.02757,-35.47593 13.76296,-57.5105 8.8902,-41.36766 15.40207,-83.25153 19.53051,-125.3606 2.06936,-24.99569 3.59136,-38.63656 4.10747,-63.69141 0.75658,-36.72936 -2.09996,-73.50833 -9.10774,-109.58356 -1.76466,-7.49864 -3.26638,-15.06406 -5.29397,-22.49591 -6.81454,-24.97774 -17.36841,-52.30989 -35.39882,-71.48848 -4.47173,-4.7565 -9.83042,-8.59333 -14.74562,-12.89 -14.50534,-8.2155 -16.02353,-10.19193 -32.0463,-14.87495 -25.10704,-7.33811 -51.58386,-6.76248 -77.44701,-6.47164 -8.38426,0.35871 -16.77482,0.59207 -25.15278,1.07612 -53.1468,3.07063 -106.02304,10.06108 -158.47405,19.00981 -27.98936,5.21134 -40.14773,7.20415 -67.88546,13.44547 -38.7061,8.70932 -77.00679,19.40917 -114.42234,32.62237 -7.19259,2.77507 -14.44726,5.3943 -21.57776,8.3252 -18.86271,7.75327 -37.1609,16.90504 -53.89379,28.62188 -42.79947,31.31622 1.48835,91.84381 44.28782,60.52759 z"/>
<path d="m 509.99746,94.749634 c -0.19505,21.355816 0.41924,42.728416 -0.30709,64.078416 -0.24803,7.29086 -0.72757,14.57201 -1.09136,21.85801 -3.78652,49.48156 -14.63304,98.29681 -29.65544,145.54039 -3.68413,11.58612 -7.90595,22.99434 -11.85892,34.49151 -27.18352,75.05352 -68.80532,143.41403 -110.44247,211.08908 -25.97057,41.36306 -13.39438,21.41978 -37.71294,59.83968 -28.36337,44.81093 35.00885,84.9228 63.37222,40.11187 v 0 c 24.58841,-38.84756 11.84148,-18.63181 38.22361,-60.65807 16.75029,-27.23953 27.67493,-44.57622 43.70151,-72.39724 28.39867,-49.29813 54.46722,-100.07236 73.81134,-153.68239 4.31158,-12.63148 8.91613,-25.16673 12.93474,-37.89445 16.68474,-52.84378 28.51061,-107.44899 32.53654,-162.77118 0.39064,-8.11629 0.90198,-16.22766 1.17192,-24.34886 0.7227,-21.74331 0.13093,-43.50783 0.31634,-65.256766 0,-53.033008 -75,-53.033008 -75,0 z"/>
<path d="m 571.62587,501.72092 c 19.01348,16.23528 36.57756,34.02672 53.92847,51.99818 19.1987,19.66932 36.42127,41.10417 52.37582,63.45099 2.15447,3.18012 4.36515,6.33575 6.12109,9.75861 25.67011,46.40631 91.29854,10.1033 65.62843,-36.30301 v 0 c -3.31406,-5.86295 -6.79094,-11.62316 -10.7463,-17.08595 -18.13399,-25.31646 -37.67428,-49.62034 -59.44202,-71.93396 -18.70277,-19.34396 -37.64495,-38.48253 -58.10058,-55.99594 -39.67652,-35.1891 -89.44144,20.92198 -49.76491,56.11108 z"/>
</svg>
