<?xml version="1.0" ?>
<svg xmlns="http://www.w3.org/2000/svg" viewBox="0 0 1000 1000">
<path d="m 127.97123,168.80291 c 0.0545,21.32566 -0.14694,42.68913 1.36008,63.97818 0.54537,7.70432 1.42047,15.38175 2.1307,23.07263 4.77942,42.30381 16.53263,83.30891 27.71709,124.24788 1.05868,3.89465 2.11735,7.7893 3.17603,11.68395 13.91121,51.17595 86.28494,31.50253 72.37373,-19.67342 v 0 c -1.06711,-3.92558 -2.13421,-7.85117 -3.20132,-11.77675 -10.04685,-36.77213 -20.79561,-73.56078 -25.39581,-111.51259 -0.62747,-6.5157 -1.40762,-13.01849 -1.88239,-19.54709 -1.4632,-20.12058 -1.21287,-40.31644 -1.27811,-60.47279 0,-53.03301 -75,-53.03301 -75,0 z"/>
<path d="m 298.96397,236.67491 c 18.33425,-4.01224 36.13802,-10.06833 54.29,-14.8098 7.27538,-1.90039 14.58901,-3.65126 21.88351,-5.47689 50.08945,-11.40533 100.94176,-19.49088 151.98382,-25.2254 11.4614,-1.28767 22.95142,-2.30643 34.42713,-3.45964 43.62853,-3.86146 87.3875,-6.27554 131.18596,-6.82274 23.14495,-0.28916 29.993,-0.0411 52.56,0.29516 17.95224,0.55078 35.95389,0.98641 53.82101,2.98569 4.05026,0.45321 13.84938,1.7192 18.39891,3.28739 0.40889,0.14095 0.48829,0.714 0.73243,1.071 -20.27855,-10.70731 0.63831,2.15432 -16.49691,-14.79883 -0.5523,-0.54643 -1.85436,-0.0233 -2.2376,0.6525 -2.04364,3.60393 -2.94742,7.75022 -4.66516,11.52039 -7.2026,15.80859 -12.39303,24.56015 -21.03058,40.43903 -21.50049,36.80786 -10.26117,18.26648 -33.78217,55.58514 -28.24903,44.8831 35.22525,84.83326 63.47428,39.95017 v 0 c 25.24126,-40.15661 13.17848,-20.20357 36.25676,-59.81771 9.09622,-16.85951 18.25386,-32.67604 25.52698,-50.41826 10.30154,-25.12979 17.45525,-50.59245 1.35799,-75.78669 -4.44046,-6.94988 -12.47009,-10.7968 -18.70514,-16.1952 -4.82147,-1.82744 -9.52336,-4.00848 -14.46441,-5.48231 -7.14236,-2.13045 -20.67142,-3.94218 -27.81922,-4.72039 -19.68025,-2.14268 -39.49637,-2.68838 -59.26739,-3.26386 -23.74156,-0.3429 -30.95412,-0.60096 -55.29086,-0.28548 -45.76555,0.59327 -91.49018,3.12361 -137.07648,7.18311 -12.06141,1.21924 -24.13785,2.29803 -36.18423,3.65771 -54.06016,6.10179 -107.91226,14.72575 -160.94527,26.90104 -22.4161,5.62988 -21.73361,5.27053 -42.39583,11.10262 -7.19551,2.03099 -14.32998,4.27528 -21.53253,6.28114 -3.21335,0.8949 -4.57776,1.19629 -7.3922,1.85557 -52.18134,9.46618 -38.79414,83.26172 13.3872,73.79554 z"/>
<path d="m 431.02436,431.39601 c 15.90474,-4.1955 31.84416,-8.20278 48.02187,-11.22364 5.69677,-1.06375 11.41833,-1.9901 17.1275,-2.98516 36.86326,-6.07575 74.19049,-8.35509 111.50554,-8.7932 10.37025,-0.0627 20.73683,0.18845 31.10104,0.49743 53.00992,1.56472 55.22277,-73.40263 2.21285,-74.96735 v 0 c -11.41441,-0.33389 -22.83142,-0.60568 -34.2523,-0.52421 -5.8143,0.0768 -11.63013,0.0761 -17.44289,0.23027 -35.51028,0.94167 -70.97907,4.04241 -106.05714,9.68054 -23.01327,4.04466 -45.95923,8.44782 -68.45166,14.86361 -51.77557,11.48001 -35.54038,84.70172 16.23519,73.22171 z"/>
<path d="m 365.11108,257.23452 c -1.34564,17.91457 -3.6025,35.74683 -5.8595,53.56497 -5.75098,41.98971 -11.72916,83.94778 -17.57025,125.92516 -3.80545,27.90409 -8.17635,55.72702 -12.04433,83.62201 -0.70787,6.02475 -1.5548,12.08391 -1.46089,18.16873 0.0311,2.0125 -0.0801,4.05965 0.3363,6.02885 0.9542,4.5125 0.88338,9.70816 3.75468,13.31771 6.3441,7.97527 15.28471,13.48288 22.92707,20.22431 7.2573,0.30163 14.52117,1.33641 21.77191,0.90489 2.60602,-0.15509 12.1121,-3.98905 15.21236,-5.10068 8.16024,-2.92593 16.4231,-5.06605 24.83114,-7.1579 26.20695,-5.63892 52.87242,-9.02422 79.5947,-10.9963 6.30193,-0.46508 12.61489,-0.76625 18.92233,-1.14938 33.00695,-1.67688 66.07004,-0.64399 98.94999,2.50262 8.6733,1.04145 17.3654,2.29057 25.78309,4.69604 3.19513,0.91304 6.11389,1.91144 8.79563,3.84637 -0.007,0.11402 0.0859,0.38035 -0.0217,0.34206 -1.89863,-0.67533 -3.75944,-2.81604 -4.8442,-4.13048 -0.82566,-1.00047 -1.25175,-2.30747 -2.14883,-3.24443 -0.15982,-0.16692 -0.42811,0.28521 -0.46619,0.51315 -0.20883,1.24983 -0.16888,2.52868 -0.25332,3.79302 -1.64406,20.58495 -4.98446,41.0553 -9.4791,61.20666 -1.30391,5.84596 -2.80803,11.64545 -4.21204,17.46818 -8.87581,33.42305 -19.84605,66.30066 -32.74456,98.38692 -2.56581,6.38267 -5.29398,12.69887 -7.94097,19.0483 -11.30237,25.57915 -22.53964,51.30275 -36.43704,75.6133 -1.80563,3.15856 -3.7354,6.24452 -5.60309,9.36679 -3.6988,5.57446 -7.10496,11.45611 -11.56655,16.48748 -0.35645,0.40198 -1.47049,1.52912 -1.21913,1.05429 1.49553,-2.82507 7.25033,-5.35738 8.71227,-6.24932 2.50683,-10.03723 11.13919,1.0598 15.22838,-2.02241 0.82604,-0.62263 -1.63988,-1.26451 -2.50452,-1.8323 -2.76598,-1.81637 -5.59826,-3.52982 -8.38297,-5.31732 -9.34596,-5.99915 -18.64986,-12.06358 -27.97555,-18.0942 -6.00944,-3.77432 -12.01889,-7.54864 -18.02833,-11.32297 -44.91438,-28.19927 -84.79417,35.31925 -39.87979,63.51852 v 0 c 5.72721,3.59448 11.45442,7.18896 17.18164,10.78344 9.65859,6.2459 19.25892,12.58295 28.97938,18.73212 12.07645,7.63957 26.15905,17.13192 40.91118,18.22088 6.19013,0.45694 12.36593,-1.09063 18.54889,-1.63594 4.52481,-2.16698 9.29067,-3.88957 13.57441,-6.50093 2.98915,-1.82217 5.53454,-4.30499 8.08526,-6.70273 9.27447,-8.71823 15.79083,-20.28961 22.78192,-30.75653 6.73569,-11.36052 7.9305,-13.06608 14.30416,-25.17858 11.8937,-22.60279 22.33084,-45.94237 32.5314,-69.34421 2.88099,-6.93216 5.8507,-13.82812 8.64296,-20.7965 14.10849,-35.20921 26.09881,-71.28608 35.73402,-107.97315 1.59534,-6.68822 3.30284,-13.35068 4.78604,-20.06467 5.53506,-25.05554 9.62897,-50.55504 10.97166,-76.19464 -0.20705,-9.47089 0.2228,-16.08617 -2.32903,-25.37259 -4.82935,-17.57461 -13.84517,-28.21129 -28.97718,-37.61852 -2.80221,-1.45307 -5.53508,-3.04852 -8.40665,-4.35921 -17.29536,-7.89424 -36.38247,-10.70502 -55.0721,-13.03291 -5.00814,-0.46852 -10.00994,-1.01052 -15.02441,-1.40557 -31.78786,-2.50431 -63.73946,-2.743 -95.58341,-1.28893 -6.96268,0.43203 -13.93162,0.77294 -20.88805,1.29609 -30.6927,2.30818 -61.31551,6.30022 -91.37521,12.9866 -11.57595,2.9509 -13.51923,3.24301 -24.38699,6.73302 -2.86703,0.9207 -5.70016,1.94458 -8.53499,2.96013 -1.59721,0.57219 -3.24504,1.0387 -4.75992,1.80264 -0.39345,0.19841 0.88013,-0.0453 1.3202,-0.068 5.80669,0.59081 11.61339,1.18162 17.42009,1.77243 6.91871,6.49099 14.97328,11.95233 20.75614,19.47298 1.51444,1.96953 3.02757,8.91285 2.68765,12.99364 -0.0203,0.24366 -0.0727,-0.48647 -0.0632,-0.73079 0.0392,-1.00406 0.10994,-2.00729 0.20904,-3.00721 0.1753,-1.76873 0.40932,-3.53114 0.61398,-5.29671 3.86228,-27.88204 8.24285,-55.68995 12.03873,-83.58166 5.88384,-42.28526 11.91083,-84.55038 17.69302,-126.84955 2.64371,-20.92705 5.44931,-41.89343 6.45243,-62.97706 0,-53.03301 -75,-53.03301 -75,0 z"/>
<path d="m 241.79584,767.20103 c 23.3924,-10.895 48.46428,-17.36419 73.36632,-23.73757 39.04655,-8.95775 78.93475,-14.05933 118.91722,-16.2837 7.35929,-0.40943 14.73035,-0.56933 22.09553,-0.854 27.94004,-0.74879 55.7874,1.76091 83.35599,6.08186 52.39959,8.17209 63.95667,-65.93212 11.55708,-74.10421 v 0 c -8.37472,-1.3005 -13.69875,-2.19191 -22.36931,-3.22731 -25.043,-2.99053 -50.29049,-4.23543 -75.50747,-3.69176 -8.17641,0.32996 -16.35944,0.52399 -24.52924,0.98988 -44.46067,2.53543 -88.79963,8.34694 -132.18972,18.45017 -7.47215,1.92775 -14.97584,3.73715 -22.41645,5.78325 -22.09709,6.07651 -43.95655,13.30962 -64.75708,22.98987 -47.80291,22.96479 -15.32578,90.56831 32.47713,67.60352 z"/>
</svg>
