<?xml version="1.0" ?>
<svg xmlns="http://www.w3.org/2000/svg" width="1000" height="1000">
<path d="m 174.87715,306.67229 c 0.5822,21.02333 -1.1723,42.00263 -4.33162,62.7806 -1.46725,9.6497 -3.32924,19.23524 -4.99385,28.85286 -6.79003,37.09359 -16.09433,73.66224 -26.03364,110.0172 -7.7384,28.3047 -14.53131,51.83519 -23.49281,79.77928 -4.07702,12.71311 -8.48207,25.31868 -12.7231,37.97802 -9.08564,25.8479 -13.911045,40.32619 -23.683362,65.39314 -3.237629,8.30483 -6.747932,16.50077 -10.121899,24.75116 -20.043796,49.09935 49.393171,77.44556 69.436971,28.34621 v 0 c 3.6435,-8.93964 7.42888,-17.82276 10.93051,-26.81891 10.14392,-26.06101 15.14278,-41.05731 24.56026,-67.86842 4.43431,-13.26205 9.0391,-26.46831 13.30291,-39.78616 9.18187,-28.67923 16.37858,-53.57796 24.30111,-82.6115 10.50351,-38.49199 20.29249,-77.21882 27.44239,-116.49417 1.83639,-10.78245 3.91384,-21.52662 5.50917,-32.34736 3.68538,-24.99697 5.98931,-50.58834 4.70257,-75.88747 -0.12297,-2.41771 -0.42602,-4.82289 -0.63903,-7.23433 -7.88414,-52.44369 -82.05072,-41.29384 -74.16658,11.14985 z"/>
<path d="m 304.38748,413.05527 c 9.57199,-1.33624 18.79515,-4.32384 28.03296,-7.05104 5.98425,-1.76669 11.97115,-3.5244 17.9557,-5.29009 9.56616,-2.83425 19.20584,-5.5317 29.08043,-7.04987 0.0824,0.0113 0.33,0.028 0.24708,0.0339 -6.91196,0.4931 -12.42464,0.78127 -19.49805,-3.93309 -6.27116,-4.17967 -11.09415,-10.35294 -15.46614,-16.49157 -3.55609,-4.99303 -2.04648,-12.58554 -2.87528,-7.89136 -0.83287,31.30199 -8.94917,61.67167 -16.47509,91.86681 -10.30352,40.31057 -23.46772,79.86032 -39.21046,118.3696 -10.81256,26.44927 -15.28992,35.3951 -27.21768,61.22156 -12.49257,26.11213 -27.01578,51.14671 -41.56495,76.13981 -26.66351,45.84274 38.16792,83.55064 64.83143,37.70789 v 0 c 15.7193,-27.048 31.38695,-54.15397 44.83704,-82.43256 12.67551,-27.50991 17.52825,-37.23583 29.01797,-65.46213 16.88163,-41.47238 31.0121,-84.04987 42.08848,-127.4388 4.40653,-17.74573 8.27356,-32.35287 11.81144,-50.20009 3.82541,-19.29773 6.23358,-38.86076 6.87149,-58.52725 -0.0315,-7.12456 0.50073,-16.59984 -3.16194,-22.85871 -4.30338,-7.35374 -9.77628,-14.3818 -16.69263,-19.35781 -8.66717,-6.23566 -19.5731,-5.98033 -29.37588,-4.80681 -13.03041,2.12354 -25.84272,5.33225 -38.47101,9.17614 -6.02156,1.77663 -12.04613,3.54308 -18.06674,5.32294 -6.06208,1.79212 -12.09003,3.95683 -18.36996,4.86632 -52.38688,8.2532 -40.71509,82.33943 11.67179,74.08623 z"/>
<path d="m 236.10791,613.04507 c 20.59424,13.49986 40.31595,28.30442 60.2729,42.7206 6.37525,4.61328 12.74701,9.23139 19.12577,13.83983 16.49386,11.91628 27.5967,19.9777 44.41511,31.75781 24.45927,17.13198 49.26142,33.75257 74.07455,50.36454 43.3698,29.22908 87.19906,57.74799 131.57466,85.42412 22.89174,13.81112 45.43301,28.44633 69.66361,39.87217 3.72195,1.75507 7.5254,3.33185 11.2881,4.99778 33.14531,13.37524 69.24618,14.71556 104.47874,16.57583 29.88739,0.87246 59.86128,1.54696 89.73468,-0.2608 10.50658,-0.63579 20.97038,-1.84751 31.45556,-2.77127 52.81953,-4.75372 46.09675,-79.45181 -6.72277,-74.69809 v 0 c -9.08,0.83709 -18.13924,1.94276 -27.24,2.51128 -27.74049,1.73293 -55.57814,1.08931 -83.33462,0.31998 -17.37139,-0.88695 -23.3395,-0.95729 -39.91753,-2.61297 -10.45274,-1.04393 -21.10318,-2.3524 -31.22091,-5.32453 -2.40365,-0.70608 -4.74227,-1.61712 -7.11341,-2.42568 -2.66833,-1.15416 -5.36949,-2.23518 -8.00498,-3.46247 -22.10801,-10.29521 -42.4873,-23.89726 -63.38016,-36.36082 -43.69264,-27.24411 -86.83838,-55.33155 -129.53851,-84.10817 -24.25538,-16.23687 -48.50425,-32.47702 -72.41475,-49.2208 -16.59178,-11.61871 -27.52853,-19.56138 -43.82975,-31.33849 -6.39551,-4.62055 -12.78402,-9.25077 -19.17602,-13.87616 -21.7002,-15.67534 -43.11828,-31.82576 -65.66658,-46.27371 -45.50234,-27.24037 -84.02603,37.10965 -38.52369,64.35002 z"/>
<path d="m 462.83361,259.91243 c 0,28.61492 0,57.22984 0,85.84476 0.12516,30.18757 -0.44854,60.40871 -3.58262,90.45976 -1.07567,10.31396 -2.49126,20.59298 -4.05545,30.84423 -3.5705,23.39996 -6.31619,35.27802 -11.0471,58.25233 -6.03013,22.36193 -5.86595,24.45057 -14.0779,45.14212 -2.34357,5.90508 -5.10694,11.63479 -7.66041,17.45219 -21.09586,48.6566 47.71497,78.49065 68.81082,29.83405 v 0 c 3.17399,-7.39273 6.62245,-14.67357 9.52198,-22.17819 9.75597,-25.25062 9.85,-28.62876 16.87365,-55.1693 5.13741,-25.10111 8.11424,-38.01664 11.95523,-63.68069 1.72982,-11.55808 3.27705,-23.1488 4.46064,-34.77552 3.25317,-31.95671 3.93005,-64.08454 3.80116,-96.18098 0,-28.61492 0,-57.22984 0,-85.84476 0,-53.03301 -75,-53.03301 -75,0 z"/>
<path d="m 603.09119,270.69626 c 14.31458,-4.62947 29.19767,-7.3475 43.95193,-10.16775 16.93134,-2.87953 33.79307,-6.32348 50.86713,-8.27283 2.31723,-0.23761 4.64094,-0.42412 6.96962,-0.49681 0.3244,-0.0101 1.29797,-0.0249 0.97355,-0.0157 -2.67057,0.0758 -1.46068,0.0403 -5.41471,-0.35693 -2.10797,-0.58561 -4.28561,-0.96197 -6.32391,-1.75684 -5.95147,-2.3209 -11.14433,-6.30128 -15.04635,-11.43718 -2.47699,-3.26027 -3.95747,-7.18181 -5.60384,-10.93072 -1.1297,-2.57243 -0.99283,-6.47406 -0.97543,-2.09058 -0.0921,22.58164 -1.48026,45.12933 -3.45116,67.61631 -3.55301,33.81667 -10.06431,67.23127 -14.17214,100.97535 -0.84771,6.9636 -1.50081,13.94952 -2.25122,20.92427 -3.0082,32.40405 -1.84542,65.27182 5.60241,97.03929 1.38153,5.89267 3.20297,11.67346 4.80445,17.51019 7.30373,22.12184 17.90212,43.16658 32.56584,61.36031 9.27899,11.51273 12.959,14.25899 23.64435,24.24548 15.45515,13.4273 32.92744,24.15378 51.45175,32.77775 10.27249,4.78235 14.25087,6.0864 24.74578,10.0838 18.04145,6.40611 36.48885,11.64276 55.30124,15.20025 19.9072,3.13631 35.49491,0.79436 50.37064,-15.57003 10.19802,-11.21856 12.50423,-25.68544 16.31646,-39.51025 7.98371,-39.88341 13.91809,-80.13121 19.67012,-120.3831 7.49473,-52.50076 -66.75255,-63.09991 -74.24728,-10.59916 v 0 c -5.3669,37.63508 -10.98318,75.24085 -18.13209,112.58759 -0.61577,3.03417 -2.6641,6.11618 -1.8473,9.10252 0.39238,1.4346 2.32319,-1.88252 3.62567,-2.60056 4.01523,-2.21355 7.94253,-4.72155 12.29126,-6.17427 2.50109,-0.8355 5.25492,-0.48157 7.89047,-0.56754 0.20463,-0.007 0.74484,0.29458 0.5401,0.29254 -0.92995,-0.009 -1.84811,-0.20984 -2.77217,-0.31477 -14.47799,-2.61738 -28.60129,-6.877 -42.5105,-11.6268 -18.54172,-6.92146 -36.77348,-14.94563 -51.97144,-27.94475 -5.95303,-5.30573 -8.94499,-7.59913 -14.10224,-13.64344 -9.25071,-10.84183 -15.8732,-23.62335 -20.6245,-36.99537 -1.156,-3.98128 -2.4755,-7.91869 -3.46801,-11.94385 -5.99228,-24.30198 -6.84945,-49.51162 -4.5697,-74.35567 0.66574,-6.2758 1.23804,-12.56221 1.9972,-18.82739 4.23356,-34.93841 11.0814,-69.52365 14.57016,-104.55975 2.19753,-25.56074 3.82642,-51.20185 3.68063,-76.87029 -0.21826,-4.62502 -0.28327,-11.1266 -1.75936,-15.39 -1.6139,-4.66143 -3.44546,-9.36635 -6.29447,-13.39335 -4.28955,-6.06317 -10.46798,-10.75119 -17.26744,-13.56337 -2.54099,-1.05092 -5.26373,-1.59292 -7.8956,-2.38938 -1.99819,-0.262 -3.98693,-0.6106 -5.99457,-0.786 -6.31741,-0.55193 -12.69436,0.4414 -18.97731,0.87998 -18.8997,2.226 -37.5994,5.81752 -56.33376,9.11369 -19.40657,3.7335 -39.00845,7.37824 -57.62482,14.16789 -49.2551,19.65796 -21.45454,89.31519 27.80056,69.65723 z"/>
</svg>
