<?xml version="1.0" ?>
<svg xmlns="http://www.w3.org/2000/svg" viewBox="0 0 1000 1000">
<path d="m 468.95405,173.76985 c -0.0524,14.96955 0.0394,29.93782 0.18733,44.90655 0.45314,30.31225 0.97901,60.62343 1.61965,90.93231 0.90101,38.03425 1.84539,76.06748 2.18307,114.11157 0.0434,38.51731 -0.63339,77.03163 -1.18557,115.54393 -0.76761,37.84313 -0.71794,75.69515 -0.94402,113.54348 -0.23349,31.03975 -0.3445,62.07996 -0.68177,93.1188 -0.22256,17.71412 -0.39717,35.42867 -0.48953,53.14395 -0.27625,53.03229 74.72273,53.42296 74.99898,0.39067 v 0 c 0.0915,-17.57397 0.26545,-35.14721 0.48612,-52.72004 0.33833,-31.16129 0.45119,-62.32393 0.68487,-93.48612 0.22409,-37.63902 0.1742,-75.28171 0.93764,-112.91554 0.56051,-39.09407 1.24773,-78.19027 1.19028,-117.28948 -0.34508,-38.34911 -1.28298,-76.68751 -2.19683,-115.02669 -0.63513,-30.02769 -1.15502,-60.05768 -1.60656,-90.08868 -0.14572,-14.72147 -0.23608,-29.44242 -0.18366,-44.16471 0,-53.03301 -75,-53.03301 -75,0 z"/>
<path d="m 303.94548,276.91029 c 2.5588,11.44734 4.69602,22.97774 5.72389,34.67458 0.37654,4.28497 0.57948,8.58343 0.86921,12.87514 1.0231,31.73006 -1.26151,63.45094 -3.55077,95.07947 -1.11128,15.18769 -2.33854,30.36804 -3.24422,45.56997 0.12073,8.31676 -0.34752,16.17884 5.38192,23.8351 5.50665,7.35854 13.11693,13.19013 21.09168,17.75901 4.37557,2.50684 9.83706,2.38874 14.85979,2.83823 6.68465,0.59821 15.45021,-1.16881 21.99248,-2.1876 4.06397,-0.87663 8.14774,-1.66605 12.19192,-2.6299 15.56784,-3.71024 30.8957,-8.36402 46.43412,-12.19719 17.97374,-4.43394 19.06975,-4.46644 37.50109,-8.25323 35.6666,-6.49329 71.79946,-10.303 107.9929,-12.19385 6.54595,-0.34198 13.09897,-0.53168 19.64846,-0.79752 21.71142,-0.89255 43.43737,-0.41968 65.03083,1.984 52.72293,5.72647 60.82137,-68.83502 8.09844,-74.56148 v 0 c -10.30989,-1.09855 -13.35823,-1.54927 -24.22919,-2.11843 -17.30925,-0.90625 -34.66011,-0.79415 -51.97786,-0.24092 -7.11035,0.29519 -14.22461,0.50786 -21.33106,0.88558 -39.68341,2.10924 -79.29466,6.36065 -118.38281,13.58876 -20.38374,4.21902 -21.39714,4.21943 -41.14959,9.10127 -14.64032,3.61836 -29.09299,7.94095 -43.73302,11.55095 -2.80604,0.69193 -5.63848,1.27202 -8.45773,1.90802 -1.60206,0.30882 -3.24493,0.45267 -4.80619,0.92645 -0.18025,0.0547 0.20411,0.35564 0.38257,0.41594 2.56998,0.86843 5.61748,0.72548 7.7926,2.34654 11.84936,8.83109 21.821,16.72748 20.5366,32.48889 0.88166,-14.88246 2.10241,-29.74229 3.18108,-44.61112 2.54,-35.18013 5.01273,-70.4737 3.56025,-105.76171 -0.39491,-5.41893 -0.67383,-10.84757 -1.18473,-16.25679 -1.32078,-13.98373 -3.78846,-27.80234 -6.83844,-41.50221 -10.94888,-51.89048 -84.3331,-36.40643 -73.38422,15.48405 z"/>
<path d="m 665.87558,283.80771 c 1.51358,18.26508 2.36957,36.55387 2.81805,54.87362 0.35613,29.69474 -1.91709,59.37977 -5.87222,88.79808 -2.86468,21.30752 -5.16424,33.0696 -8.90759,54.30978 -9.18359,52.23181 64.68334,65.21936 73.86693,12.98755 v 0 c 4.06034,-23.14455 6.45388,-35.36653 9.54404,-58.68071 4.36111,-32.90305 6.79733,-66.09923 6.34511,-99.30113 -0.50191,-19.47628 -1.37847,-38.92345 -2.98576,-58.34261 -3.78685,-52.89763 -78.59541,-47.54222 -74.80856,5.35542 z"/>
<path d="m 211.8986,625.65412 c 2.56479,15.00031 3.09193,30.42023 3.57987,45.61816 0.86392,31.88374 -2.49485,63.64008 -5.98477,95.2775 -1.98432,17.78248 -4.31773,35.52436 -6.17734,53.3208 -1.79928,14.21215 0.0247,27.08974 10.44678,38.44515 3.69601,4.02699 8.98751,6.2236 13.48126,9.3354 4.16127,1.10162 8.2351,2.61334 12.48381,3.30486 5.08792,0.82811 12.62984,0.25659 17.88365,-0.14855 9.92482,-0.76533 19.82933,-1.90393 29.73874,-2.84165 32.90738,-3.11843 65.74143,-6.95141 98.60461,-10.49399 44.73933,-4.87891 89.56449,-8.80733 134.46443,-11.84237 44.44417,-3.052 88.97467,-4.51444 133.51658,-4.83792 24.5148,0.0289 49.07001,0.92565 73.42247,3.84496 52.66648,6.22426 61.46892,-68.25739 8.80244,-74.48166 v 0 c -27.46666,-3.20934 -55.13197,-4.40905 -82.78032,-4.36124 -46.0462,0.34729 -92.08091,1.84674 -138.0261,5.00708 -45.89232,3.11037 -91.71006,7.11326 -137.43856,12.10324 -32.54049,3.50848 -65.05227,7.30345 -97.6361,10.39593 -38.88237,3.68448 11.28358,-1.09477 -21.15738,2.06599 -2.28954,0.22307 -4.58126,0.42318 -6.87201,0.6335 -1.14648,0.10526 -2.40427,-0.19018 -3.43967,0.31324 -0.57758,0.28082 1.24923,0.29872 1.87385,0.44808 2.49878,0.85611 4.99756,1.71223 7.49635,2.56835 10.80448,8.17838 13.02856,7.60409 18.10851,21.56497 1.21847,3.34864 0.92202,7.06768 1.29693,10.61133 0.0276,0.2606 -0.10616,1.04243 -0.0917,0.78078 0.0494,-0.89147 0.36722,-4.11339 0.41668,-4.63448 1.83765,-17.65215 4.18115,-35.24642 6.13072,-52.88612 3.87588,-35.20136 7.44122,-70.54274 6.39375,-106.01354 -0.72959,-20.90282 -1.65842,-41.95189 -6.08072,-62.46309 -13.69333,-51.23468 -86.15011,-31.8694 -72.45679,19.36529 z"/>
<path d="m 758.86404,606.14334 c 0,7.4727 0,14.9454 0,22.4181 0,15.46684 0,30.93367 0,46.40051 -0.01,13.31036 -0.10019,26.70925 -1.92643,39.92185 -0.39098,2.82865 -0.93241,5.63446 -1.39861,8.45169 -4.08758,21.51918 -10.89017,42.47784 -18.84831,62.85902 -2.21548,5.67396 -4.64995,11.25995 -6.97493,16.88992 -8.05124,18.93924 -17.36039,37.29013 -26.64518,55.6408 -23.92299,47.33065 43.01265,81.16287 66.93565,33.83222 v 0 c 10.14858,-20.09777 20.31519,-40.20033 29.07705,-60.95728 2.68315,-6.55282 5.48862,-13.05688 8.04945,-19.65846 9.65346,-24.88565 17.69735,-50.51627 22.47205,-76.80534 0.63818,-4.11426 1.37543,-8.21436 1.91456,-12.34276 2.0692,-15.84505 2.36074,-31.87616 2.3447,-47.83166 0,-15.46684 0,-30.93367 0,-46.40051 0,-7.4727 0,-14.9454 0,-22.4181 0,-53.03301 -75,-53.03301 -75,0 z"/>
</svg>
