<?xml version="1.0" ?>
<svg xmlns="http://www.w3.org/2000/svg" viewBox="0 0 1000 1000">
<path d="m 168.75985,303.75225 c 19.45643,-6.36255 39.34373,-11.41826 59.38425,-15.57088 7.83998,-1.62453 15.72555,-3.02074 23.58833,-4.53111 49.4982,-8.79856 99.62307,-13.76857 149.80542,-16.45558 9.11925,-0.48828 18.24839,-0.76999 27.37258,-1.15498 23.55539,-0.76064 47.12329,-0.66495 70.683,-0.25903 53.02528,0.90514 54.30535,-74.08393 1.28007,-74.98908 v 0 c -25.04842,-0.42383 -50.10559,-0.51746 -75.14869,0.31579 -9.66212,0.41368 -19.32949,0.71884 -28.98635,1.24102 -53.3395,2.88427 -106.60968,8.24588 -159.21201,17.65955 -8.63859,1.67283 -17.30231,3.22071 -25.91577,5.01848 -21.99136,4.58996 -43.80889,10.17648 -65.1759,17.1256 -50.629008,15.78621 -28.30393,87.38643 22.32507,71.60022 z"/>
<path d="m 295.08684,239.75653 c -0.60894,1.64915 -1.24706,3.28783 -1.82682,4.94747 -2.38746,6.83435 -2.76337,8.76364 -5.54354,15.96599 -6.39314,16.5622 -14.19014,32.44147 -21.93838,48.39725 -27.61647,55.48499 -60.5408,108.06423 -93.73759,160.32085 -18.29863,29.12947 -9.59345,15.1449 -26.14342,41.93634 -27.86914,45.11997 35.94013,84.53288 63.80927,39.41292 v 0 c 16.18337,-26.20365 7.64582,-12.48561 25.64198,-41.13585 34.72939,-54.67947 69.10239,-109.73835 97.92366,-167.82992 11.5739,-23.93274 23.26465,-47.93579 31.14306,-73.40391 20.23113,-49.02246 -49.09709,-77.6336 -69.32822,-28.61114 z"/>
<path d="m 323.54346,394.28607 c 18.88039,-2.25519 37.90874,-2.73326 56.89941,-3.15785 21.77145,-0.16457 43.59056,0.38116 65.21764,3.01472 2.46961,0.42515 5.54532,0.8286 8.02921,1.61303 0.13876,0.0438 0.46014,0.31669 0.31538,0.30183 -5.1772,-0.53151 -9.51763,-6.25683 -12.65237,-9.33352 -8.22954,-16.16 -2.33375,-2.5452 -5.86051,-15.29225 -0.0509,-0.18391 -0.3141,0.25807 -0.36323,0.44245 -0.4336,1.62703 -0.69818,3.29456 -1.07031,4.93673 -2.0416,9.00938 -2.31785,9.88045 -4.73695,19.61963 -6.39081,24.20747 -11.32187,48.77899 -17.94699,72.9265 -6.00604,21.8911 -7.58507,25.64642 -14.876,47.6107 -17.1712,47.55758 -40.43244,92.68635 -67.50496,135.33342 -5.68493,8.95541 -11.71791,17.68507 -17.57686,26.5276 -16.91642,24.036 -35.11138,47.22688 -55.22594,68.68481 -10.65154,11.36292 -22.24312,22.7589 -34.63702,32.29135 -4.90718,3.77422 -10.25425,6.93909 -15.38137,10.40864 -4.81509,2.34396 -9.63017,4.68793 -14.44526,7.0319 -47.19707,24.18546 -12.99365,90.9322 34.20342,66.74673 v 0 c 7.6583,-4.04785 15.31661,-8.0957 22.97491,-12.14354 7.21895,-5.09028 14.71381,-9.81021 21.65685,-15.27083 14.78122,-11.62528 29.01667,-25.64437 41.79558,-39.36258 22.43467,-24.08371 42.75966,-50.06455 61.61714,-77.0167 6.38059,-9.66578 12.95286,-19.20772 19.14176,-28.99734 30.00959,-47.46927 55.66772,-97.74318 74.58542,-150.67421 8.12251,-24.62106 9.64162,-28.11886 16.33968,-52.61041 6.65192,-24.32285 11.66242,-49.05428 18.07566,-73.43776 1.90646,-7.70241 3.78722,-14.99994 5.44028,-22.73988 2.25855,-10.57496 4.5471,-21.98654 1.80645,-32.76344 -1.28505,-5.05316 -4.0033,-9.62894 -6.00495,-14.44341 -3.11629,-3.50843 -5.86566,-7.38084 -9.34888,-10.52528 -2.57618,-2.32562 -5.65083,-4.05624 -8.68001,-5.75011 -9.41173,-5.2629 -20.34501,-6.93561 -30.82048,-8.59012 -25.14178,-2.93261 -50.46492,-3.84671 -75.77101,-3.51931 -21.95887,0.5063 -43.96491,1.12125 -65.77897,3.88896 -52.50235,7.48351 -41.91908,81.73305 10.58328,74.24954 z"/>
<path d="m 275.44789,512.29828 c 14.11617,7.91688 26.68642,18.18682 39.15958,28.4096 13.9544,11.59386 27.14852,24.06004 39.80918,37.04335 37.06741,37.92765 90.70522,-14.49358 53.6378,-52.42124 v 0 c -14.63832,-14.95052 -29.84882,-29.3459 -45.97942,-42.68958 -17.16372,-13.99955 -34.63544,-27.9446 -54.44099,-38.08467 -47.90121,-22.75905 -80.08736,44.98349 -32.18615,67.74254 z"/>
<path d="m 535.41585,359.32759 c 2.91565,22.33917 4.50313,44.83204 6.00136,67.30245 2.29794,42.26901 1.35736,84.62408 -0.23515,126.89759 -0.54951,15.38698 -1.71592,30.73626 -3.01501,46.07378 -4.4526,52.84576 70.28259,59.14269 74.73519,6.29693 v 0 c 1.38345,-16.49819 2.63763,-33.00798 3.22707,-49.55822 1.67797,-44.88033 2.63206,-89.84707 0.12046,-134.71892 -1.69898,-25.29114 -3.42672,-50.63711 -7.04895,-75.73902 -9.50734,-52.17385 -83.29231,-38.72844 -73.78497,13.44541 z"/>
<path d="m 737.32511,157.61362 c 2.82731,18.38517 2.89037,37.09689 3.38918,55.65219 1.35495,51.16173 2.94255,102.31225 3.68885,153.4877 0.71076,64.04451 -0.91898,128.07376 -2.93218,192.07947 -1.75852,56.13196 -3.74838,112.2561 -5.76743,168.37917 -1.26495,31.85018 -1.67168,63.78085 -5.58475,95.4476 -0.79992,4.73171 -1.21475,8.34431 -2.56689,12.81838 -0.24839,0.8219 -0.17957,2.12644 -1.00204,2.37293 -0.71288,0.21365 0.0968,-1.51911 0.40829,-2.19498 2.51297,-5.45216 3.64204,-5.34072 8.64252,-9.68775 1.22562,-0.70804 3.42182,-0.73184 3.67685,-2.12411 0.19444,-1.0615 -2.09288,-0.53377 -3.15382,-0.73126 -2.95228,-0.54955 -5.9333,-0.93903 -8.88169,-1.50907 -18.39234,-3.55591 -36.51407,-8.16746 -54.65227,-12.81631 -32.37463,-8.77529 -15.76516,-4.27245 -49.82835,-13.50873 -51.18475,-13.8788 -70.81235,58.50737 -19.6276,72.38617 v 0 c 34.42193,9.33354 17.46474,4.73924 50.87139,13.78352 20.59151,5.25662 41.22905,10.75115 62.20037,14.33888 9.51346,1.62755 22.9027,3.50838 32.62831,2.44548 5.99197,-0.65485 11.7687,-2.61304 17.65305,-3.91956 5.19251,-3.17629 10.88581,-5.65087 15.57752,-9.52886 3.83415,-3.16917 6.89092,-7.23776 9.68572,-11.35278 8.34118,-12.28143 10.50179,-27.46744 12.82151,-41.72923 0.49428,-4.12711 1.05983,-8.24631 1.48285,-12.38134 3.03887,-29.70464 3.25961,-59.60872 4.60054,-89.41258 2.0231,-56.23613 4.01677,-112.47335 5.77887,-168.71839 2.04824,-65.15651 3.6941,-130.33732 2.96122,-195.53314 -0.75476,-51.48784 -2.34036,-102.95093 -3.70841,-154.42491 -0.60701,-22.19062 -0.83878,-44.54329 -4.47558,-66.49695 -9.10645,-52.245311 -82.99248,-39.36685 -73.88603,12.87846 z"/>
</svg>
