<?xml version="1.0" ?>
<svg xmlns="http://www.w3.org/2000/svg" width="1000" height="1000">
<path d="m 340.60002,94.032946 c -0.2682,1.321367 -0.41955,2.671939 -0.80459,3.964102 -0.76967,2.582902 -5.50428,13.162682 -5.58995,13.348172 -5.47914,11.86361 -9.06763,18.92998 -15.78594,30.61015 -3.86259,6.71533 -7.97918,13.28133 -11.96877,19.92199 -26.82307,42.7904 -55.91831,84.17455 -86.9595,124.01092 -6.0848,7.80886 -12.34395,15.48029 -18.51593,23.22043 -25.30508,31.51766 -53.05939,60.91986 -81.11009,89.97566 -3.0934,3.83997 -7.17052,6.77721 -10.36692,10.52246 -9.44074,11.0618 -19.687942,26.19674 -10.263845,42.98201 17.636225,31.41191 31.257195,26.32873 53.362355,23.55182 22.60186,-5.01276 45.11867,-10.40917 68.01221,-13.9762 20.31241,-3.16486 31.30394,-4.1576 52.05634,-6.48413 37.79785,-3.91473 75.77675,-5.96049 113.76734,-6.57248 15.1975,-0.24481 32.86908,-0.13132 48.15009,-0.0903 7.37591,-0.0488 14.75181,-0.0975 22.12771,-0.1463 53.03183,-0.35452 52.53046,-75.35284 -0.50136,-74.99832 v 0 c -7.14329,0.0483 -14.28658,0.0966 -21.42987,0.14488 -16.42467,-0.042 -33.89405,-0.15789 -50.27202,0.11476 -40.15099,0.66841 -80.28765,2.86179 -120.23309,7.01866 -23.13426,2.61506 -34.01285,3.57791 -56.74756,7.16304 -22.93755,3.61712 -45.56226,8.80333 -68.17777,14.00572 5.04208,13.09328 0.084,0.59197 30.85069,26.00037 4.36911,9.85931 -2.96061,21.38371 -5.22479,31.92735 -0.2015,0.93834 -2.72439,2.70391 -2.06274,2.0087 3.5741,-3.75536 7.37717,-7.28892 10.9126,-11.08186 29.69741,-30.76457 59.02989,-61.94171 85.80425,-95.32438 6.50683,-8.16986 13.10537,-16.2675 19.52048,-24.50956 32.73226,-42.05407 63.40943,-85.74153 91.64921,-130.93583 16.54307,-27.71285 34.0417,-56.2482 42.54044,-87.69913 0.51358,-1.90061 0.76466,-3.86259 1.14699,-5.79389 9.10669,-52.245268 -64.77927,-65.124082 -73.88597,-12.878814 z"/>
<path d="m 301.2795,338.56354 c -1.84042,27.06994 -2.37395,54.21765 -3.03747,81.33656 -0.89783,63.47328 -0.51492,126.95931 -0.47924,190.43785 0.30828,69.15551 -0.48841,138.30743 -1.86432,207.44776 -0.61037,27.63011 -1.10736,55.26222 -1.5576,82.8953 -0.86362,53.02598 74.12643,54.24733 74.99006,1.22135 v 0 c 0.4484,-27.54303 0.94443,-55.08506 1.55271,-82.62512 1.3848,-69.65154 2.18835,-139.31471 1.87914,-208.98151 -0.0354,-62.85401 -0.41023,-125.71529 0.45688,-188.56428 0.61817,-25.35309 1.15043,-50.72569 2.72049,-76.04148 5.03915,-52.79305 -69.6215,-59.91949 -74.66065,-7.12643 z"/>
<path d="m 297.9614,430.4939 c -18.9724,27.0545 -37.32906,54.54105 -55.75443,81.97031 -37.72961,55.4688 -78.16713,109.03374 -119.27802,162.02279 -21.49436,28.36892 -44.262275,55.70863 -67.72477,82.45698 -34.95795,39.88035 21.44137,89.31835 56.39932,49.43801 v 0 c 24.43243,-27.89014 48.17867,-56.3653 70.58457,-85.92373 42.15251,-54.3414 83.60489,-109.28017 122.27663,-166.17331 18.14246,-27.00855 36.21144,-54.07818 54.8938,-80.71674 30.45814,-43.41431 -30.93896,-86.48862 -61.3971,-43.07431 z"/>
<path d="m 339.1762,537.43112 c 17.16567,13.49802 33.40079,28.1379 49.09263,43.31127 19.39073,19.6789 37.34469,40.70516 54.67217,62.20343 33.29397,41.27968 91.67224,-5.80511 58.37827,-47.08478 v 0 c -19.30639,-23.92214 -39.32064,-47.3138 -61.00961,-69.1256 -14.55415,-13.98336 -9.1174,-9.03297 -23.37014,-21.72837 -8.28242,-7.37742 -16.52504,-14.85425 -25.33806,-21.60369 -0.33377,-0.25562 -0.72267,-0.42981 -1.08401,-0.64471 -38.65926,-36.30374 -90.00051,18.3687 -51.34125,54.67245 z"/>
<path d="m 554.72369,331.15905 c -1.26694,23.73445 -0.0914,47.55016 0.544,71.29212 1.56365,47.52017 1.72859,95.0671 2.07381,142.60678 0.20772,29.66766 0.10971,15.31996 0.29495,43.04308 0.35434,53.03183 75.35267,52.53071 74.99832,-0.50112 v 0 c -0.18544,-27.75362 -0.0873,-13.39142 -0.29525,-43.0866 -0.34879,-48.02724 -0.52157,-96.06168 -2.09869,-144.06925 -0.5514,-20.59009 -1.42075,-41.20872 -0.891,-61.80571 5.28866,-52.76865 -69.33748,-60.24794 -74.62614,-7.4793 z"/>
<path d="m 787.72022,163.36736 c 1.69616,28.60493 3.92573,57.16923 6.27864,85.72731 4.94491,55.82234 6.86733,111.86724 6.82238,167.89672 -0.0103,12.78486 -0.2118,25.56885 -0.3177,38.35327 -1.35108,62.27697 -3.82114,124.57615 -8.35064,186.71123 -0.80812,11.08557 -1.79962,22.15702 -2.69943,33.23553 -3.16719,35.81796 -7.83918,71.51385 -14.42149,106.86859 -2.83601,15.23266 -4.4018,21.73957 -7.67149,36.4784 -4.46943,17.59255 -8.03424,35.54583 -14.48148,52.56496 -0.19328,0.29748 -0.62063,1.24484 -0.57985,0.89243 0.24933,-2.15425 4.60582,-6.91316 4.82755,-7.12704 3.91731,-3.77858 8.02922,-5.58842 13.02047,-7.15049 -22.53988,-6.37299 -45.13205,-12.65143 -67.12127,-20.79382 -7.85082,-2.90708 -15.57745,-6.13915 -23.36618,-9.20873 -49.3668,-19.37573 -76.76822,50.43947 -27.40142,69.8152 v 0 c 8.806,3.4436 17.54384,7.06684 26.41799,10.3308 15.96326,5.87138 27.93644,9.53386 43.96464,14.28482 7.20204,2.13478 23.23232,6.8201 31.12062,8.44264 4.3814,0.9012 8.83979,1.37595 13.25968,2.06392 11.00492,-0.26318 16.23214,0.69852 26.51365,-3.67512 15.11931,-6.43159 23.68748,-17.14332 29.68426,-31.8503 7.41236,-20.30756 12.4011,-41.36681 17.36882,-62.38014 3.60547,-16.32135 5.20474,-22.95052 8.33909,-39.86114 6.96835,-37.59599 11.92102,-75.55056 15.28112,-113.6342 0.92899,-11.47819 1.95159,-22.94918 2.78697,-34.43456 4.62224,-63.54948 7.14763,-127.26567 8.50589,-190.96017 0.10612,-13.16346 0.31155,-26.3265 0.31837,-39.49039 0.03,-57.91031 -1.97965,-115.83517 -7.07393,-173.53226 -2.40491,-29.17539 -4.57993,-58.36253 -6.45397,-87.5751 -5.66226,-52.72987 -80.23355,-44.72222 -74.57129,8.00764 z"/>
</svg>
