<?xml version="1.0" ?>
<svg xmlns="http://www.w3.org/2000/svg" width="1000" height="1000">
<path d="m 242.6629,117.05931 c 0.45848,0.29911 0.89881,0.62807 1.37544,0.89732 12.80792,7.23534 1.3614,0.38272 17.12859,9.60224 13.43386,7.85514 26.51018,16.25524 39.59659,24.66989 44.61198,28.67526 85.16493,-34.41561 40.55294,-63.090876 v 0 c -14.22846,-9.142455 -28.45683,-18.249277 -43.06971,-26.771711 -4.53323,-2.643841 -15.5926,-8.903232 -20.68497,-11.500364 -2.71173,-1.382992 -5.50089,-2.608602 -8.25133,-3.912903 -49.57271,-18.842665 -76.22026,51.26374 -26.64755,70.106404 z"/>
<path d="m 126.89241,276.66342 c 32.32629,-13.45342 66.95072,-19.99424 101.08164,-27.02949 45.57225,-8.73165 91.39632,-16.77543 137.69571,-20.49973 26.98142,-2.17037 33.64907,-1.80635 60.12695,-2.10153 21.79084,-0.13808 43.4944,1.64042 65.16674,3.6305 52.81526,4.80082 59.60464,-69.89125 6.78938,-74.69206 v 0 c -24.24346,-2.18369 -48.52175,-4.12366 -72.8932,-3.93258 -29.71708,0.40712 -36.6727,0.015 -66.88766,2.49176 -48.80833,4.00089 -97.1303,12.41226 -145.17432,21.65518 -39.35299,8.14982 -79.18095,16.02428 -116.308728,31.91683 -48.480036,21.49851 -18.076545,90.05964 30.403488,68.56112 z"/>
<path d="m 368.30783,221.79148 c -9.66512,13.74763 -19.01506,27.70893 -29.87049,40.57488 -13.11933,15.54915 -21.17077,23.46658 -35.65345,38.64919 -34.41534,33.59063 -69.6074,66.55726 -107.4838,96.25832 -24.98979,19.59593 -34.62016,25.78155 -60.29985,43.66562 -24.68852,16.84234 -51.429883,30.13012 -78.126929,43.37602 -47.4844061,23.61633 -14.085867,90.76942 33.398539,67.15309 v 0 c 8.60807,-4.29052 17.3054,-8.40643 25.82421,-12.87156 31.97821,-16.76138 30.42681,-16.62035 61.80741,-36.14078 27.82335,-19.43042 37.83943,-25.85874 64.95551,-47.1897 40.24758,-31.66091 77.72445,-66.6987 114.24417,-102.53623 7.33543,-7.71844 14.81483,-15.30257 22.00629,-23.15533 17.43539,-19.0387 33.68071,-39.17544 47.71236,-60.86748 33.17466,-41.37562 -25.33931,-88.29167 -58.51397,-46.91604 z"/>
<path d="m 211.77611,334.00905 c 1.48621,1.58876 2.92437,3.22386 4.45861,4.76627 7.11985,7.15775 14.75559,13.85886 22.23961,20.62253 17.93358,16.20744 4.30611,3.85584 23.18396,20.99323 18.60043,16.56259 37.84596,32.43835 58.33887,46.61964 11.09303,7.67648 17.679,11.63847 28.94234,18.7002 19.18753,11.93835 39.25956,22.50974 60.14011,31.17728 3.65055,1.51535 7.35214,2.90469 11.02822,4.35703 25.23593,9.01629 50.45229,18.07743 75.96835,26.27384 25.17229,7.22666 12.12358,3.72159 39.16988,10.42642 51.48986,12.70019 69.45063,-60.11746 17.96077,-72.81765 v 0 c -23.61595,-5.7912 -12.21361,-2.75701 -34.22727,-9.0261 -24.00168,-7.68334 -47.68828,-16.26831 -71.44812,-24.663 -20.4426,-7.97255 -40.2698,-17.4824 -58.79855,-29.3005 -9.49856,-5.93475 -15.73204,-9.69117 -25.02632,-16.07412 -18.17476,-12.48171 -35.16265,-26.57734 -51.63739,-41.20449 -10.63297,-9.65235 -21.36435,-19.20295 -31.94887,-28.90821 -3.4463,-3.16003 -6.74141,-6.48473 -10.23878,-9.58813 -0.0355,-0.0315 -0.0739,0.0594 -0.11089,0.0891 -33.62762,-41.00833 -91.62215,6.54832 -57.99453,47.55664 z"/>
<path d="m 169.61857,535.12539 c 1.05749,17.13065 1.76559,34.40452 0.77472,51.55844 -0.40635,7.03487 -1.24853,14.03777 -1.8728,21.05666 -3.85641,28.50445 -10.17886,56.61183 -18.49634,84.13982 -5.28796,17.50133 -14.69922,43.97954 -21.12042,61.04361 -3.67941,9.77788 -7.61765,19.45639 -11.42648,29.18459 -3.57979,8.39277 -7.15957,16.78554 -10.73936,25.17831 -20.776993,48.79361 48.22759,78.17672 69.00459,29.38311 v 0 c 3.86131,-9.08224 7.72262,-18.16447 11.58394,-27.2467 4.03891,-10.34004 8.21658,-20.62695 12.11674,-31.02012 7.29603,-19.44249 17.04101,-47.0308 22.9525,-66.84124 9.51372,-31.88214 16.68877,-64.44056 20.85469,-97.46154 0.70963,-8.6547 1.65862,-17.2931 2.12888,-25.9641 1.0414,-19.20206 0.25276,-38.52539 -0.90737,-57.69963 -3.31548,-52.92927 -78.16877,-48.24048 -74.85329,4.68879 z"/>
<path d="m 339.77516,475.48084 c 1.38352,36.78845 1.0969,73.60952 0.93501,110.41511 -0.36248,77.51017 -2.19477,155.00123 -3.65406,232.49553 -0.63587,33.25565 -1.0618,66.51443 -1.45194,99.77363 -0.62178,53.02937 74.37306,53.9087 74.99485,0.87934 v 0 c 0.38772,-33.08164 0.8114,-66.16286 1.4438,-99.24096 1.46597,-77.85546 3.30494,-155.70771 3.66663,-233.57914 0.16774,-38.47774 0.47354,-76.97596 -1.08101,-115.43255 -3.31565,-52.92926 -78.16893,-48.24022 -74.85328,4.68904 z"/>
<path d="m 240.39102,608.94213 c 22.72426,-1.88306 45.41138,-4.1379 68.15379,-5.80426 20.05685,-0.68091 9.98111,-0.62363 30.2273,-0.15616 53.02308,1.02658 54.47489,-73.95936 1.45182,-74.98595 v 0 c -25.31877,-0.41592 -12.92568,-0.55881 -37.18015,0.34412 -22.75056,1.67901 -45.45024,3.89035 -68.18078,5.80626 -52.88876,3.9089 -47.36074,78.70489 5.52802,74.79599 z"/>
<path d="m 210.19819,768.85914 c 22.72786,-2.08459 45.24644,-5.9312 67.864,-8.91256 7.68516,-1.01303 15.38377,-1.92142 23.07565,-2.88213 24.74056,-3.09067 49.61217,-4.70022 74.48525,-6.20869 52.93443,-3.23212 48.36352,-78.0927 -4.57091,-74.86058 v 0 c -26.45458,1.62547 -52.90828,3.34985 -79.22163,6.64901 -8.04332,1.0072 -16.09338,1.9619 -24.12996,3.02159 -21.53053,2.83899 -42.96598,6.51044 -64.59726,8.5297 -52.79519,5.01683 -45.70032,79.68049 7.09486,74.66366 z"/>
<path d="m 553.74253,330.89719 c -0.60556,31.29581 -0.15442,62.60514 -0.0521,93.90471 0.0837,37.49383 -0.66062,74.98803 -2.65352,112.43091 -0.80482,15.12117 -2.31524,37.53504 -3.31117,52.76164 -2.09801,31.70862 -1.09112,16.00852 -3.02441,47.10005 -3.29059,52.93082 71.5649,57.58442 74.85549,4.6536 v 0 c 1.91517,-30.81293 0.91385,-15.19278 3.00911,-46.86009 1.04472,-15.98246 2.5535,-38.34537 3.3908,-54.18805 2.04427,-38.67979 2.82146,-77.4117 2.7333,-116.14352 -0.098,-29.9018 -0.46363,-59.80823 -0.0516,-89.70855 2.79356,-52.95938 -72.10231,-56.91008 -74.89588,-3.9507 z"/>
<path d="m 755.29042,166.06935 c 5.59848,24.10682 7.07684,48.95122 8.94024,73.55218 4.7698,71.87937 3.18858,143.95016 1.18978,215.89415 -2.77887,83.65609 -7.41636,167.23788 -12.51977,250.78002 -3.27304,55.27233 -8.4503,110.40394 -14.92312,165.38644 -1.80152,14.4742 -3.75471,28.94005 -6.38609,43.29054 -0.95877,5.22877 -1.76314,11.10633 -3.98358,16.03 4.06065,-10.2224 3.28477,-10.82785 18.61275,-18.97276 3.82033,-2.03003 8.86465,-0.27336 12.81922,-2.02758 1.12609,-0.49953 -1.76902,-1.73551 -2.79341,-2.4198 -4.05848,-2.71108 -8.33077,-5.08983 -12.42521,-7.7463 -6.05232,-3.92674 -12.0078,-8.00076 -18.0117,-12.00114 -25.00028,-17.16521 -48.6078,-36.22965 -72.37855,-55.02418 -41.60559,-32.88578 -88.11311,25.95341 -46.50751,58.83919 v 0 c 25.39147,20.06397 50.62842,40.38992 77.37688,58.65089 9.64932,6.39684 27.50591,18.6543 38.25695,24.28931 5.90482,3.09493 11.73817,6.77251 18.25805,8.16413 8.5584,1.82671 17.80668,3.73795 26.21986,1.3293 21.45826,-6.1434 22.97526,-13.30513 31.29448,-28.11257 0.96739,-2.91206 2.05549,-5.78676 2.90216,-8.73619 1.64125,-5.71736 3.25233,-13.93653 4.2939,-19.66382 2.84163,-15.62537 4.9839,-31.36932 6.93817,-47.12654 6.62734,-56.37645 11.94289,-112.90387 15.29725,-169.57662 5.15242,-84.37279 9.8338,-168.78565 12.63046,-253.2738 2.06229,-74.53987 3.63618,-149.21099 -1.37839,-223.67926 -2.24376,-29.20437 -4.19709,-58.68121 -11.26597,-87.21063 -13.69314,-51.234728 -86.14999,-31.86969 -72.45685,19.36504 z"/>
</svg>
