<?xml version="1.0" ?>
<svg xmlns="http://www.w3.org/2000/svg" width="1000" height="1000">
<path d="m 440.83242,85.78509 c 4.68494,21.97762 7.07309,44.35814 9.40416,66.6799 2.77792,32.03937 3.93235,64.22373 3.37459,96.38018 -0.3581,20.64541 -0.93318,27.00159 -2.12267,47.29798 -1.77157,23.76772 -4.17629,47.53311 -8.58361,70.97394 -1.89821,10.09581 -2.88285,13.69206 -5.21221,23.36715 -1.86535,7.24238 -3.7435,14.4926 -6.04156,21.61325 -0.34783,1.07777 -0.70876,2.15248 -1.12198,3.2069 -0.0627,0.16009 -0.3831,0.57022 -0.29939,0.42004 1.43352,-2.57188 2.90018,-5.12515 4.35027,-7.68772 6.69176,-4.09454 13.38353,-8.18907 20.0753,-12.28361 3.12566,-0.2079 6.52345,0.66871 9.37698,-0.62371 1.19727,-0.54226 -2.20595,-1.43012 -3.32682,-2.11653 -3.10119,-1.89915 -6.32969,-3.59764 -9.33869,-5.63973 -11.71399,-7.94984 -15.88803,-12.07881 -27.18078,-21.65545 -4.92039,-4.55865 -9.84078,-9.11731 -14.76117,-13.67597 -38.97761,-35.96173 -89.83518,19.16094 -50.85757,55.12267 v 0 c 5.80713,5.33882 11.61425,10.67764 17.42137,16.01645 6.42178,5.34042 12.65039,10.92205 19.26533,16.02125 10.47227,8.07267 22.03511,15.92758 33.93375,21.86687 9.55226,4.76807 25.08769,11.39938 36.0077,8.93983 9.57597,-2.15682 17.55812,-8.78162 26.33717,-13.17244 2.53028,-3.82323 5.29787,-7.49959 7.59084,-11.46969 1.19481,-2.06872 3.53363,-9.09901 4.27185,-11.41108 2.7407,-8.58379 5.0181,-17.30981 7.24309,-26.03784 2.82873,-11.90855 3.90653,-15.83463 6.21185,-28.2672 4.84962,-26.15392 7.57943,-52.65061 9.51234,-79.16274 1.27541,-22.18384 1.88088,-28.86975 2.24835,-51.44569 0.56706,-34.83797 -0.71972,-69.70497 -3.78458,-104.41088 -2.87399,-27.22407 -5.65462,-54.674443 -12.42214,-81.262253 -15.85059,-50.60888 -87.42236,-28.192757 -71.57177,22.416123 z"/>
<path d="m 294.5879,171.85845 c -1.77994,2.5351 -3.65177,5.00812 -5.33983,7.60531 -9.53959,14.67729 -17.84019,30.2051 -26.73074,45.27089 -15.67921,26.56975 -12.38129,20.87627 -29.66428,48.36622 -5.99604,9.27457 -11.91609,18.59872 -17.98812,27.82372 -14.31579,21.74939 -22.83149,34.25396 -38.0422,55.26206 -15.45552,21.34622 -31.59334,42.17376 -47.83303,62.92358 -32.680361,41.76714 26.3873,87.98415 59.06766,46.21701 v 0 c 16.97866,-21.70491 33.84618,-43.49282 49.99493,-65.82845 15.83513,-21.90188 24.93273,-35.26311 39.80019,-57.86096 6.24739,-9.49574 12.33879,-19.0932 18.50818,-28.6398 5.6596,-9.0153 11.41578,-17.97068 16.97879,-27.04589 13.65547,-22.27682 26.1409,-45.25596 39.95999,-67.42512 32.99966,-41.51533 -25.71188,-88.1839 -58.71154,-46.66857 z"/>
<path d="m 614.61541,191.51571 c 9.94088,2.20862 19.29455,6.45634 28.47497,10.75341 12.95066,6.0618 13.68599,6.67375 26.59136,13.54651 24.97167,14.18273 48.72631,30.47158 70.61327,49.06288 7.06797,6.4644 3.88266,3.41115 9.61814,9.09441 37.85656,37.14002 90.38048,-16.39724 52.52392,-53.53726 v 0 c -8.48206,-8.2672 -3.91814,-3.96384 -13.74562,-12.85274 -3.27907,-2.75774 -6.50285,-5.58259 -9.83721,-8.27322 -23.16296,-18.69112 -48.19409,-35.02789 -74.03147,-49.75196 -23.06951,-12.19276 -46.5351,-24.59862 -72.05552,-30.81229 -51.45634,-12.83529 -69.60818,59.93497 -18.15184,72.77026 z"/>
<path d="m 625.98946,271.11038 c -10.75017,16.22146 -21.70253,32.33032 -34.36978,47.14726 -5.13065,6.00135 -10.5781,11.72445 -15.86715,17.58667 -23.31583,24.57858 -46.82332,49.01477 -71.59562,72.14386 -19.63839,18.33572 -41.71757,37.55253 -62.44471,54.56496 -11.4095,9.36469 -23.10329,18.37755 -34.65494,27.56632 -12.15243,9.05731 -24.20593,18.24891 -36.4573,27.17194 -23.15858,16.86706 -51.1399,36.45516 -75.11386,52.18184 -36.46383,23.91992 -74.12083,46.00327 -111.37929,68.64563 -45.32053,27.54178 -6.37056,91.63469 38.94996,64.09291 v 0 c 38.32388,-23.28986 77.02376,-46.03931 114.51843,-70.66191 24.72202,-16.23485 53.98968,-36.72518 77.86856,-54.14163 12.88092,-9.39492 25.55123,-19.07524 38.32684,-28.61286 12.15409,-9.68394 24.45824,-19.18249 36.46227,-29.05182 22.19681,-18.24951 45.09982,-38.24365 66.11174,-57.89033 26.03104,-24.33967 50.75282,-50.03476 75.2291,-75.91904 6.23323,-6.97843 12.64996,-13.7972 18.69968,-20.93531 14.72427,-17.37327 27.56594,-36.19079 39.98999,-55.23796 27.33005,-45.44853 -36.94387,-84.09906 -64.27392,-38.65053 z"/>
<path d="m 322.69161,663.80683 c 30.35296,-10.35718 61.55986,-18.08302 92.72723,-25.54414 40.22631,-8.87088 81.04893,-15.00166 122.11596,-18.24123 25.31218,-1.99676 33.42318,-1.92322 58.4341,-2.63486 38.03618,-0.45035 76.08883,1.61862 113.7956,6.62206 2.93296,0.46252 5.87164,0.89017 8.79889,1.38755 5.2177,0.88656 10.60545,1.85295 15.6743,3.44759 0.49592,0.15601 -1.00821,-0.2542 -1.51232,-0.3813 -17.77578,-11.30587 -12.07223,-4.6127 -22.41827,-25.16928 -0.42425,-0.84295 -0.38799,-3.59564 -0.75828,-2.72764 -0.87951,2.06169 -0.59725,4.44302 -0.91974,6.66115 -1.55073,10.66623 -2.48604,16.42011 -4.22591,27.54949 -5.86415,36.72068 -12.41754,73.35163 -21.09283,109.5252 -1.80681,7.53392 -3.80822,15.01984 -5.71233,22.52975 -8.77178,32.96538 -19.85292,65.27701 -33.01814,96.73617 -5.0103,11.74175 -10.77918,23.12993 -16.83936,34.35756 1.94755,-2.96061 -3.2161,5.55658 -2.33606,4.21332 0.65232,-0.99566 0.95954,-2.26961 1.85962,-3.04854 4.76413,-4.12289 9.19987,-9.02015 14.98086,-11.52523 15.33839,-6.64659 18.75865,3.35685 16.22045,-3.27546 -20.62261,-12.10103 -39.87217,-26.74714 -57.40369,-43.00479 -6.01701,-5.57981 -11.618,-11.59211 -17.427,-17.38816 -37.69289,-37.30611 -90.4517,15.99969 -52.75881,53.3058 v 0 c 7.14916,7.02913 14.05986,14.30931 21.44747,21.08739 18.06469,16.57425 38.62948,32.50916 59.48012,45.48019 4.92949,3.0666 10.10392,5.72072 15.15587,8.58108 5.08812,2.05413 9.83514,5.36741 15.26436,6.16238 8.26989,1.21091 17.06665,2.14335 25.07292,-0.25605 13.61144,-4.0792 20.56894,-13.5959 26.45397,-24.72757 7.2324,-13.41695 14.08331,-27.04298 20.04497,-41.0796 14.52228,-34.88893 26.8736,-70.66502 36.51151,-107.22302 2.05092,-8.12256 4.20431,-16.21992 6.15276,-24.36766 9.04485,-37.82234 15.91737,-76.11369 22.04407,-114.50341 1.02799,-6.58117 3.57439,-22.59787 4.53864,-29.76736 2.42094,-18.00034 3.90236,-31.32591 -8.59545,-47.49015 -3.8983,-5.04193 -10.44275,-7.30892 -15.66412,-10.96338 -12.71898,-4.27898 -25.96733,-6.60781 -39.23572,-8.48527 -41.6821,-5.44338 -83.72152,-7.84842 -125.76327,-7.23098 -27.24821,0.8115 -35.91499,0.73745 -63.50859,2.95518 -44.51293,3.57756 -88.75824,10.2785 -132.35132,19.95807 -9.15306,2.19984 -18.33232,4.29344 -27.45919,6.59954 -11.65632,2.94522 -30.49286,8.17775 -42.47557,11.63156 -9.69481,2.79436 -17.47092,5.08497 -26.84433,8.27813 -2.10349,0.71658 -4.16937,1.53916 -6.25405,2.30874 -49.25507,19.65805 -21.45438,89.31523 27.80068,69.65718 z"/>
<path d="m 500.59962,512.71557 c -0.0821,0.10262 -0.20903,0.18183 -0.24624,0.30786 -3.0913,10.4718 1.28025,-2.05729 -4.07448,13.10051 -4.37299,12.37874 -7.25375,20.30027 -12.73051,32.70456 -3.25507,7.37239 -6.82336,14.60247 -10.23505,21.90371 -20.49973,40.31925 -44.51325,78.83553 -70.05302,116.13927 -17.04992,24.90333 -30.81379,43.27609 -48.66955,67.6467 -33.35937,43.00984 -16.46581,22.06324 -50.62849,62.88184 -34.01113,40.69083 23.53439,88.78982 57.54552,48.099 v 0 c 36.31813,-43.5042 18.44505,-21.29148 53.5885,-66.6629 18.92865,-25.84989 32.61705,-44.10463 50.71055,-70.57707 27.61387,-40.40162 53.5114,-82.15136 75.50946,-125.89463 3.88523,-8.38567 7.95096,-16.69006 11.6557,-25.15703 5.3224,-12.16407 10.37632,-25.34287 14.65964,-37.97966 3.08009,-9.08698 5.08404,-15.30032 6.79204,-24.43189 0.48912,-2.61498 0.70661,-5.27353 1.05992,-7.9103 2.94861,-52.95097 -71.93537,-57.12094 -74.88399,-4.16997 z"/>
</svg>
