<?xml version="1.0" ?>
<svg xmlns="http://www.w3.org/2000/svg" viewBox="0 0 1000 1000">
<path d="m 387.7895,66.104635 c -24.53635,15.460401 -49.18678,30.750676 -74.01983,45.734755 -8.17185,5.00259 -16.36742,9.96665 -24.51556,15.00777 -28.2518,17.47889 -24.39083,15.65064 -53.13935,32.47316 -84.58594,49.4964 29.87741,-18.19368 -53.1655,30.5937 -8.55777,5.02765 -17.04469,10.17494 -25.56704,15.26241 -45.53311,27.18889 -7.0822,91.58243 38.45091,64.39354 v 0 c 8.22075,-4.91024 16.4063,-9.87988 24.66226,-14.7307 91.05563,-53.50011 -42.80524,25.61874 54.11211,-31.15041 29.75676,-17.42997 25.30835,-15.24298 53.80648,-32.87683 8.01368,-4.95864 16.07412,-9.84131 24.11118,-14.76196 25.7692,-15.5578 51.36456,-31.40865 76.80243,-47.49876 44.15647,-29.371866 2.61838,-91.81854 -41.53809,-62.446675 z"/>
<path d="m 109.8656,261.30101 c -0.77251,-0.88128 -1.54502,-1.76256 -2.31753,-2.64385 -0.15685,-0.0375 -0.49588,-0.27171 -0.47054,-0.11245 0.22127,1.39082 0.78525,2.70648 1.10158,4.07881 0.68034,2.95155 1.36515,5.90508 1.88745,8.88866 2.48738,14.20911 2.52835,17.96151 4.06336,33.39549 3.77225,53.42119 1.103,107.09119 -4.35628,160.3 -1.45142,14.14623 -3.28659,28.25045 -4.92988,42.37568 -6.125535,45.86079 -14.37446,91.46854 -25.043997,136.4965 -6.909048,29.1578 -16.87579,65.14566 -25.46146,93.83606 -4.506523,15.05927 -9.398741,30.00042 -14.098112,45.00063 -19.039467,54.2985 -9.343722,27.81647 -29.003059,79.47687 -18.8459511,49.57147 51.258687,76.22367 70.104638,26.6522 v 0 c 20.6296,-54.31373 10.438885,-26.41721 30.47406,-83.72532 12.87121,-41.15627 17.21831,-53.6704 28.56537,-95.64253 4.46601,-16.51955 8.79081,-33.08156 12.72214,-49.73645 11.19155,-47.41254 19.83082,-95.4326 26.24102,-143.71737 1.7149,-14.82968 3.63415,-29.63715 5.14471,-44.48904 5.89069,-57.91783 8.59975,-116.34217 4.2506,-174.46821 -1.85229,-17.66601 -2.24836,-25.71591 -5.59387,-42.6194 -2.48689,-12.56523 -5.90209,-25.59088 -12.59265,-36.67625 -1.53218,-2.5386 -3.49883,-4.78816 -5.24825,-7.18224 -35.71753,-39.20151 -91.15683,11.3107 -55.4393,50.51221 z"/>
<path d="m 181.14496,403.03665 c 2.1456,-0.56414 4.30624,-1.07387 6.43679,-1.69243 4.36988,-1.2687 16.74365,-5.32834 20.02635,-6.37441 12.71488,-4.05175 21.29549,-6.82103 34.42057,-10.34511 7.23201,-1.9418 14.52266,-3.65825 21.78399,-5.48738 42.40869,-9.71933 85.58213,-16.44981 129.04435,-18.92502 6.9607,-0.39641 13.93439,-0.51631 20.90158,-0.77447 14.55427,-0.34593 29.10113,0.13352 43.63975,0.72366 52.99068,2.11846 55.98663,-72.82168 2.99595,-74.94014 v 0 c -16.49318,-0.65038 -32.99589,-1.17266 -49.50537,-0.7286 -7.89365,0.31086 -15.79487,0.46785 -23.68096,0.9326 -47.75683,2.81442 -95.19689,10.22238 -141.78237,21.00079 -8.06251,2.04594 -16.15695,3.96993 -24.18752,6.13781 -18.44998,4.98065 -36.62719,10.95661 -54.7701,16.92281 -52.00763,10.3782 -37.33063,83.92809 14.67699,73.54989 z"/>
<path d="m 299.74841,524.2499 c 15.36856,0.2426 30.65262,2.05478 45.81534,4.45268 12.91277,2.83389 26.59978,6.62639 36.85891,15.47658 0.97665,0.84252 1.76583,1.88058 2.64874,2.82087 0.24083,0.59726 0.65027,1.15186 0.72248,1.79179 0.0897,0.79516 -0.94629,1.36296 -1.05679,2.15551 -0.23251,1.66763 -0.14946,3.36425 -0.23875,5.04565 -0.77071,14.51274 -0.37077,8.29023 -2.08783,25.46998 -6.06259,47.56019 -17.80307,94.16373 -30.11769,140.42317 -9.95092,35.79808 -21.42913,71.23194 -35.77159,105.53087 -2.08093,4.97639 -4.31446,9.88759 -6.47168,14.83138 -8.01537,17.76537 -17.11139,34.62911 -29.51089,49.70744 -1.10696,1.13219 -2.75179,3.01887 -4.22578,3.95605 -0.12518,0.0796 -0.55528,0.0952 -0.44502,-0.004 0.91547,-0.824 1.83954,-1.68406 2.9385,-2.24025 5.73626,-2.90316 6.57503,-2.40807 12.9011,-3.08357 -0.51615,-0.77875 -0.90591,-1.65802 -1.54845,-2.33626 -12.46898,-13.16173 -3.33597,-0.91016 -17.91558,-19.33247 -11.53129,-14.57056 -15.50594,-21.38875 -26.03335,-37.32082 -29.35091,-44.1704 -91.81729,-2.66195 -62.46638,41.50845 v 0 c 5.32964,7.98251 10.42522,16.12634 15.9889,23.94752 9.89356,13.90796 21.41619,28.75866 33.78562,40.65591 5.43322,5.22581 11.16118,10.21341 17.39438,14.45322 5.85567,3.98302 12.46299,6.72956 18.69449,10.09435 7.13906,1.2683 14.16718,3.6948 21.4172,3.80491 5.6957,0.0865 11.35777,-1.48534 16.78206,-3.22477 12.63514,-4.05178 22.50294,-14.19317 31.08418,-23.76071 5.50182,-6.8876 7.07309,-8.6 12.20806,-16.16494 10.84354,-15.97494 19.73376,-33.18067 27.72036,-50.73061 6.91509,-15.92563 8.43072,-18.9789 14.84051,-35.62785 12.02313,-31.22919 22.22136,-63.13653 31.11464,-95.39039 13.34461,-50.23844 26.00188,-100.8687 32.29561,-152.55486 1.69582,-18.36605 4.10771,-37.21897 0.49744,-55.56773 -2.31505,-11.76594 -6.08786,-20.84765 -12.85168,-30.64821 -2.7564,-3.99394 -6.28409,-7.39646 -9.42613,-11.0947 -3.4534,-2.96881 -6.73061,-6.15581 -10.36019,-8.90644 -19.78681,-14.99518 -43.76105,-23.16225 -67.88695,-27.80143 -4.60034,-0.70087 -9.18826,-1.48886 -13.80104,-2.10261 -14.40978,-1.91729 -28.96321,-2.94919 -43.49275,-3.23365 -53.03301,0 -53.03301,75 0,75 z"/>
<path d="m 274.52543,353.43372 c -2.38841,5.92876 -2.59998,6.17838 -4.90675,14.0394 -3.02879,10.32148 -5.47689,20.80726 -8.49547,31.13173 -4.14042,14.16149 -10.55379,33.91377 -14.89984,47.53459 -21.56106,64.5446 -44.3971,128.77984 -71.69912,191.15465 -6.34847,14.50385 -13.13021,28.81417 -19.69531,43.22126 -27.17839,56.63338 -13.50479,28.71601 -40.99361,83.76544 -23.6875,47.44894 43.41544,80.94813 67.10294,33.49918 v 0 c 28.22908,-56.56032 14.1684,-27.83566 42.15007,-86.18963 6.86825,-15.10064 13.96237,-30.10058 20.60476,-45.30194 28.14527,-64.41157 51.75555,-130.71201 73.98351,-197.35784 5.2477,-16.45769 10.9054,-33.80735 15.76225,-50.43986 4.06403,-13.91748 4.39956,-16.28698 7.71425,-28.48262 1.23319,-4.53721 0.91248,-3.49796 2.28427,-6.97464 20.93016,-48.7281 -47.98179,-78.32782 -68.91195,-29.59972 z"/>
<path d="m 506.82053,453.07333 c 2.20008,-0.32062 4.4098,-0.58084 6.60022,-0.96187 13.61595,-2.36852 27.09466,-5.64145 40.64721,-8.3352 21.17809,-4.20943 25.74536,-4.96831 47.80831,-9.03953 48.82368,-8.59322 98.1021,-14.84708 147.5665,-18.26326 8.7978,-0.60761 17.60978,-0.98893 26.41466,-1.48339 28.80752,-1.08755 57.93855,-1.57014 86.37471,3.83586 3.12985,0.6361 6.18954,1.54149 9.18346,2.64279 0.14768,0.0543 2.26687,0.87265 2.48547,0.96544 0.13923,0.0591 -0.28672,-0.0964 -0.43008,-0.14463 -7.18373,-3.02735 -11.15662,-8.13923 -15.68895,-14.45383 -0.83394,-1.16188 -1.0973,-2.65553 -1.85283,-3.86986 -0.16864,-0.27107 -0.005,0.64093 0.0404,0.95688 0.27311,1.885 0.61026,3.76016 0.91539,5.64024 5.05458,34.72994 6.72127,69.81873 8.22461,104.84366 1.11341,35.59629 0.80469,71.26209 -1.81126,106.79055 -1.72253,23.39453 -2.80673,30.35263 -5.55684,53.55715 -5.56349,39.8583 -13.05539,79.52358 -23.69617,118.3583 -1.82162,6.64821 -3.85718,13.23593 -5.78578,19.8539 -8.05267,25.75167 -17.42893,51.1677 -30.04827,75.0534 -0.7765,1.28638 -3.61668,6.31497 -5.10912,7.8584 -0.25445,0.26314 0.0581,-0.79647 0.32234,-1.04973 2.29671,-2.20111 4.43252,-4.7286 7.24937,-6.20678 23.5013,-12.33263 6.46269,0.14648 13.12212,-4.83675 -29.71426,-20.38556 -55.58579,-46.18072 -78.9284,-73.51513 -7.04027,-8.24423 -13.59652,-16.8898 -20.39478,-25.3347 -6.44611,-8.88515 -12.89221,-17.77029 -19.33832,-26.65543 -31.20528,-42.88043 -91.84735,1.25049 -60.64208,44.13092 v 0 c 7.21744,9.89048 14.43487,19.78096 21.65231,29.67144 7.75585,9.5608 15.23978,19.34876 23.26756,28.6824 14.41643,16.76153 30.92307,33.9337 47.18785,48.98252 11.78563,10.90454 27.84136,24.48494 41.47451,33.43397 5.96635,3.91642 12.42368,7.02817 18.63552,10.54225 6.76317,2.02097 13.25006,5.54228 20.2895,6.06291 8.16946,0.6042 16.61596,-0.26666 24.42027,-2.75622 15.94881,-5.08764 25.49224,-20.728 33.24167,-34.23427 1.69658,-3.26429 3.46329,-6.49307 5.08976,-9.79286 12.51511,-25.39068 22.0198,-52.1619 30.53123,-79.11547 2.133,-7.36466 4.38297,-14.69645 6.39901,-22.09398 11.47064,-42.08965 19.59024,-85.06092 25.54385,-128.25614 2.95719,-25.19677 4.10971,-32.6142 5.94954,-58.04045 2.75226,-38.03605 3.08397,-76.21519 1.86502,-114.32037 -1.6506,-38.13158 -3.5326,-76.33478 -9.20563,-114.123 -1.31992,-7.6083 -2.66046,-18.48298 -6.70909,-25.19727 -5.50932,-9.13669 -10.79104,-14.75274 -20.2202,-19.11417 -9.05929,-3.87549 -18.50497,-6.78696 -28.17951,-8.69227 -10.1692,-1.81291 -12.15306,-2.33871 -22.98859,-3.47058 -26.93827,-2.81396 -54.09007,-2.62013 -81.11675,-1.46931 -9.41659,0.53661 -18.84077,0.95358 -28.24979,1.60983 -51.99321,3.62637 -103.78957,10.21017 -155.10881,19.2631 -29.5823,5.46266 -59.11627,11.1487 -88.53622,17.42689 -52.79517,5.01697 -45.70011,79.68062 7.09506,74.66365 z"/>
<path d="m 634.97628,179.62563 c 0.96029,32.04234 -2.35577,64.06886 -5.38834,95.92174 -9.15004,73.52202 -23.74905,146.33391 -43.05328,217.85618 -4.74206,17.56936 -9.9861,34.99937 -14.97915,52.49905 -22.12582,72.53325 -49.46477,143.48078 -82.10099,211.93912 -7.94328,16.66198 -16.52378,33.01262 -24.78568,49.51893 -23.71434,47.43553 43.36963,80.97269 67.08398,33.53716 v 0 c 8.66728,-17.35693 17.67097,-34.54992 26.00186,-52.07079 34.15817,-71.83879 62.78857,-146.26836 85.9287,-222.36789 5.18414,-18.20959 10.63107,-36.3464 15.5524,-54.62877 20.25468,-75.24457 35.54566,-151.85271 45.0176,-229.2069 3.3742,-35.75761 7.01479,-71.72244 5.57619,-107.68661 -3.31546,-52.92927 -78.16876,-48.24049 -74.85329,4.68878 z"/>
</svg>
