<?xml version="1.0" ?>
<svg xmlns="http://www.w3.org/2000/svg" viewBox="0 0 1000 1000">
<path d="m 233.53143,113.94011 c -3.81802,14.17337 -8.85476,27.56328 -15.4569,40.71643 -2.88762,5.75289 -6.10099,11.33641 -9.15149,17.00461 -28.07083,48.749 -63.68523,92.41074 -99.45045,135.60548 -19.426651,22.58503 -10.085602,12.00738 -27.940468,31.80578 -35.495957,39.40225 20.227238,89.60111 55.723198,50.19887 v 0 c 19.31014,-21.45638 9.28814,-10.0851 29.99091,-34.17989 13.80024,-16.67505 24.93836,-29.92914 38.40216,-47.08513 25.25355,-32.17884 49.0872,-65.54974 69.45905,-101.06586 3.7585,-7.10558 7.72564,-14.10465 11.27549,-21.31673 8.77013,-17.81792 15.56107,-36.47914 20.42933,-55.71734 11.28982,-51.817369 -61.99101,-67.78359 -73.28083,-15.96622 z"/>
<path d="m 293.38523,226.53769 c 19.5996,-0.62555 39.20131,-1.08634 58.80876,-1.39962 19.50785,-0.21957 39.06848,-0.17618 58.50267,1.71353 1.34948,0.15684 2.70188,0.29034 4.04844,0.47052 5.32503,0.71253 -1.3654,0.72873 -4.26158,-1.52279 -6.18186,-4.80585 -13.0073,-9.44683 -17.06326,-16.14464 -3.25181,-5.36987 -2.58278,-12.28692 -3.87417,-18.43038 0.24958,-1.72749 0.64514,-3.44012 0.74874,-5.18247 0.0103,-0.17287 -0.35194,0.11108 -0.45545,0.24991 -0.83991,1.1265 -1.56205,2.33619 -2.34346,3.50402 -1.73388,2.59128 -3.42131,5.21427 -5.20242,7.77332 -7.46634,10.72742 -8.50283,11.75992 -17.01805,22.78749 -13.69682,16.83836 -28.5259,32.70067 -43.86474,48.04374 -6.1772,6.17891 -12.59542,12.11425 -18.7529,18.3128 -6.66944,6.71391 -13.14917,13.61364 -19.72376,20.42047 -36.82196,38.16599 17.15291,90.24011 53.97487,52.07411 v 0 c 6.05781,-6.28667 12.02027,-12.66664 18.17344,-18.86002 6.607,-6.65016 13.48597,-13.02612 20.1029,-19.6664 17.3484,-17.40963 34.09721,-35.42965 49.52352,-54.57889 9.3221,-12.14459 18.66866,-24.24118 26.80494,-37.23335 3.47779,-5.55341 7.72794,-12.5692 9.86316,-18.90351 1.23573,-3.6659 1.86371,-7.50933 2.79556,-11.26399 -1.16443,-7.41059 0.0361,-15.61241 -3.49328,-22.23179 -10.12218,-18.98411 -24.77887,-22.44456 -42.92943,-24.28577 -22.1866,-2.05169 -44.48577,-2.38796 -66.75611,-2.0363 -19.20691,0.30799 -38.41087,0.70204 -57.60839,1.39001 -53.03301,0 -53.03301,75 0,75 z"/>
<path d="m 131.05446,371.43599 c 1.44127,26.37553 4.27495,52.64804 6.93169,78.92104 2.7524,29.95782 6.32963,59.95109 6.47886,90.07706 0.0186,3.75107 -0.13737,7.50097 -0.20606,11.25146 -0.18425,2.74265 -0.3685,5.4853 -0.55275,8.22795 -3.29421,52.9306 71.56095,57.58932 74.85517,4.65873 v 0 c 0.22948,-3.90503 0.45895,-7.81005 0.68843,-11.71507 0.0642,-4.75499 0.22853,-9.50969 0.19259,-14.26498 -0.2421,-32.03169 -3.83965,-63.92841 -6.83681,-95.78104 -2.60477,-25.75673 -5.38295,-51.51172 -6.79105,-77.36949 -4.23864,-52.86335 -78.99871,-46.86901 -74.76007,5.99434 z"/>
<path d="m 202.76948,430.22014 c 1.58338,-0.78934 3.17956,-1.55352 4.75015,-2.36801 6.39221,-3.31491 12.56636,-6.73112 19.32517,-9.30249 10.03232,-3.81677 13.82203,-4.65221 24.69086,-7.81823 42.16443,-10.35988 85.33511,-15.89421 128.4106,-20.85592 33.54027,-3.66312 67.21711,-5.83134 100.89335,-7.76569 11.21335,-0.31376 22.49627,-1.5187 33.72654,-0.97666 -7.49266,0.67526 -19.25239,-7.3265 -22.45549,-10.97049 -4.39248,-4.99708 -6.17932,-11.79984 -8.79577,-17.91693 -0.51213,-1.19732 0.73813,-4.19321 -0.52375,-3.87148 -1.37658,0.35097 -0.49861,2.79713 -0.74791,4.1957 -5.47281,29.51186 -9.34942,59.2791 -13.74314,88.96122 -3.49077,23.75438 -9.25052,47.23204 -19.36022,69.08623 -1.2453,2.69197 -2.68775,5.28827 -4.03162,7.9324 -1.12115,1.86653 -2.2423,3.73306 -3.36345,5.59959 -26.73005,45.80398 38.04656,83.60598 64.77661,37.802 v 0 c 1.90959,-3.32687 3.81918,-6.65374 5.72877,-9.98061 5.71521,-11.64074 7.20996,-14.05241 12.00454,-26.62504 8.95775,-23.4896 14.78727,-47.98544 18.43757,-72.83651 4.35354,-29.43334 8.20411,-58.9489 13.62862,-88.21336 0.78585,-5.2696 2.87558,-16.60838 1.60427,-21.43674 -2.05098,-7.78946 -4.38118,-15.94167 -9.34667,-22.28407 -8.01635,-10.23924 -19.56267,-13.56929 -31.41164,-14.40347 -13.48132,-0.35346 -26.97014,0.35435 -40.42901,1.06169 -35.11229,2.01765 -70.22375,4.29924 -105.1923,8.137 -47.35212,5.47748 -94.81772,11.62878 -141.07565,23.43918 -5.9971,1.79367 -12.04436,3.42748 -17.99131,5.38101 -10.27838,3.37637 -17.60679,6.30653 -27.22263,10.8033 -3.98661,1.8643 -8.4039,4.25096 -12.29141,6.48989 -48.60404,21.21669 -18.59912,89.95317 30.00492,68.73649 z"/>
<path d="m 296.90681,404.08455 c -0.008,24.56609 0.0753,49.13175 -0.15425,73.69692 -0.75776,20.62326 -0.26172,10.57038 -1.45184,30.1604 -3.17593,52.93783 71.68947,57.42926 74.86539,4.49143 v 0 c 1.30835,-22.05569 0.76686,-10.7369 1.58324,-33.95831 0.22699,-24.79639 0.15378,-49.59315 0.15746,-74.39044 0,-53.033 -75,-53.033 -75,0 z"/>
<path d="m 225.60647,574.33754 c 15.81964,-4.8773 32.29001,-7.32436 48.58289,-10.03446 30.17457,-4.70271 60.57183,-8.1838 91.0928,-9.52612 6.0182,-0.26469 12.04271,-0.35832 18.06406,-0.53748 22.81492,-0.72249 45.59743,0.33917 68.25053,3.00999 1.78794,0.228 3.57587,0.45601 5.36381,0.68401 52.60925,6.69081 62.07148,-67.70991 9.46223,-74.40071 v 0 c -2.03325,-0.25797 -4.0665,-0.51595 -6.09975,-0.77392 -26.31099,-3.06543 -52.77384,-4.32075 -79.26747,-3.48438 -6.71569,0.21004 -13.43503,0.3252 -20.14709,0.63012 -33.19137,1.50785 -66.25102,5.2785 -99.0647,10.42156 -20.6458,3.45571 -41.50131,6.70177 -61.41226,13.36281 -49.95609,17.80138 -24.78114,88.44996 25.17495,70.64858 z"/>
<path d="m 255.15898,554.3257 c -7.21019,18.12645 -16.63013,35.29784 -26.05026,52.3485 -20.0377,34.75699 -44.06505,67.00629 -69.51934,97.9499 -5.42674,6.59704 -11.01804,13.05698 -16.52706,19.58547 -15.03271,17.00649 -30.26323,33.83507 -45.364036,50.78084 -35.281777,39.59414 20.712796,89.49011 55.994576,49.89597 v 0 c 15.55582,-17.45795 31.25972,-34.78241 46.71037,-52.33408 5.90195,-7.00643 11.89196,-13.93963 17.70585,-21.0193 28.16071,-34.29175 54.60906,-70.11994 76.69121,-108.67016 8.96163,-16.30894 17.86907,-32.56076 25.23888,-49.67142 4.22139,-9.80089 6.40985,-15.13079 8.73869,-25.34983 0.59619,-2.61608 0.78353,-5.30881 1.17529,-7.96321 3.92633,-52.88747 -70.86784,-58.44014 -74.79417,-5.55268 z"/>
<path d="m 338.6017,564.93034 c 0.0532,14.27974 -0.0413,28.55813 -0.18364,42.83705 -0.0887,24.28047 -1.38553,48.51966 -3.22571,72.72247 -1.38411,19.42869 -3.75073,38.8307 -3.68122,58.33734 0.0133,3.73658 0.20503,7.47039 0.30754,11.20559 0.9069,15.51939 3.31137,31.33274 11.07628,45.09332 6.6884,11.85286 9.41254,13.19238 19.03299,22.63153 3.95525,2.77461 7.73797,5.81307 11.86575,8.32383 16.56117,10.07351 35.69985,15.91239 54.52215,19.95403 5.11124,1.09752 10.27894,1.91332 15.41841,2.86998 32.50232,5.15274 65.37437,7.39385 98.20035,9.26884 32.1109,1.602 64.24163,2.76475 96.36608,4.05494 28.30227,1.2356 56.63006,1.53598 84.95231,1.94673 23.08081,0.66772 46.15643,0.0546 69.20198,-1.23217 11.09023,-0.71894 22.23975,-1.53465 33.11634,-3.95366 6.87891,-1.52991 8.4499,-2.21448 14.9777,-4.35614 12.22742,-4.74881 24.90782,-10.77415 33.04486,-21.56701 2.81083,-3.72824 4.83444,-7.98938 7.25166,-11.98407 1.38895,-4.67351 3.24477,-9.23298 4.16684,-14.02054 2.74242,-14.23919 0.93521,-32.53405 0.16092,-46.92176 -0.38967,-7.24083 -0.80757,-14.48011 -1.21135,-21.72017 -0.48701,-9.0522 -0.97401,-18.10441 -1.46101,-27.15662 -0.5514,-10.22854 -1.10279,-20.45709 -1.65419,-30.68563 -2.85475,-52.95612 -77.74601,-48.9189 -74.89126,4.03722 v 0 c 0.55125,10.22591 1.10251,20.45182 1.65377,30.67772 1.15104,21.3931 2.47597,42.78409 3.48782,64.18453 0.14169,2.99674 0.15371,5.99938 0.33291,8.99411 0.0484,0.80919 -0.45376,2.51704 0.34933,2.40669 1.0421,-0.14318 1.10755,-1.78863 1.66133,-2.68295 1.15944,-1.41679 2.19935,-2.94047 3.47832,-4.25036 4.9e-4,-5.1e-4 2.81156,-2.56506 3.84798,-2.63436 0.17456,-0.0117 -0.20278,0.29773 -0.35167,0.38958 -0.58505,0.36096 -1.20865,0.65645 -1.82783,0.95509 -0.69923,0.33725 -1.41707,0.63448 -2.1256,0.95172 -1.68259,0.62189 -3.43265,1.32101 -5.17835,1.75647 -7.52321,1.87667 -15.34848,2.08166 -23.0349,2.69819 -21.28257,1.20347 -42.59269,1.75693 -63.90838,1.122 -27.68123,-0.40117 -55.36809,-0.68635 -83.02983,-1.8942 -31.70732,-1.27341 -63.42075,-2.4227 -95.11514,-3.99423 -29.74151,-1.68537 -59.5232,-3.6785 -88.99493,-8.17116 -15.45228,-2.74475 -31.079,-5.77363 -45.11948,-13.13121 -0.40098,-0.07 -0.80195,-0.14003 -1.20293,-0.21005 -0.19544,0.14626 -0.34518,0.47671 -0.58632,0.43878 -1.23673,-0.19454 -1.88854,-3.04266 -1.97573,-3.36112 -1.09899,-4.01413 -1.13706,-6.9107 -1.53402,-11.17859 -0.0938,-2.52661 -0.25663,-5.0516 -0.28154,-7.57982 -0.17768,-18.03728 2.33917,-35.97453 3.47754,-53.94397 1.95299,-25.84112 3.33467,-51.72096 3.43651,-77.64385 0.14463,-14.52792 0.24046,-29.05536 0.18736,-43.58411 0,-53.033 -75,-53.033 -75,0 z"/>
<path d="m 591.26168,328.48174 c 16.09287,-0.35353 32.06196,-2.66321 48.02968,-4.51255 37.06838,-4.33942 74.31443,-6.83235 111.56539,-8.93829 26.41579,-1.40971 52.84006,-2.69826 79.27934,-3.57816 5.06454,-0.072 10.13442,-0.19671 15.19982,-0.0816 0.68024,0.0155 1.36055,0.0468 2.03866,0.10279 0.13973,0.0115 0.54889,0.0963 0.40872,0.0993 -0.39421,0.009 -0.78669,-0.0551 -1.18003,-0.0826 -10.19513,-1.99945 -16.03747,-6.65111 -22.13901,-15.03758 -1.26231,-1.73504 -1.79745,-3.89837 -2.78408,-5.80372 -0.064,-0.12352 -0.33202,-0.37519 -0.34372,-0.2366 -0.0982,1.16384 0.0454,2.33549 0.0681,3.50324 0.26791,24.66389 -1.76061,49.27812 -4.04205,73.81337 -3.71946,37.39061 -9.75271,74.49003 -16.86257,111.36927 -6.38798,32.859 -15.98482,64.93389 -25.85387,96.87649 -6.60359,20.44831 -12.47494,41.15053 -20.19007,61.21942 -3.23367,8.74268 -8.75383,16.16407 -14.44551,23.42169 -5.44495,6.122 -9.67452,13.43992 -15.33164,19.35956 -0.16734,0.11815 -0.64045,0.50542 -0.502,0.35445 3.64194,-3.97152 8.34803,-6.01364 13.49889,-7.26477 1.24859,-0.30328 3.51777,0.69248 3.8141,-0.55778 0.28252,-1.19206 -2.198,-1.08266 -3.297,-1.62398 -15.10263,-6.54895 -29.83117,-13.91608 -44.77535,-20.80893 -7.07325,-3.26247 -14.19629,-6.41591 -21.29444,-9.62386 -48.33159,-21.8302 -79.20414,46.52099 -30.87255,68.35119 v 0 c 6.72085,3.03374 13.46676,6.01258 20.16255,9.10124 17.11813,7.89632 33.94898,16.441 51.41778,23.562 11.72519,3.84603 17.06944,6.63683 29.8535,6.43269 15.10704,-0.24124 27.96762,-7.23147 37.99325,-18.03094 6.51135,-7.45285 12.32597,-15.45228 18.51044,-23.17463 10.19977,-13.16402 19.48485,-27.03373 25.33646,-42.75082 8.20946,-21.62285 14.80201,-43.7906 21.78089,-65.83184 10.6723,-34.55876 20.95949,-69.28467 27.84303,-104.83713 7.54846,-39.28507 13.97054,-78.80069 17.89482,-118.63016 2.59225,-28.11978 4.8848,-56.34674 4.2606,-84.61241 -0.65758,-10.26184 -1.09804,-21.19298 -6.49256,-30.38417 -6.06344,-10.33092 -11.04976,-14.42716 -21.49551,-19.4596 -2.59561,-1.25049 -5.51941,-1.65522 -8.27911,-2.48283 -1.66914,-0.25981 -3.33048,-0.57592 -5.00742,-0.77941 -9.07899,-1.10166 -18.28293,-0.39232 -27.39208,-0.42971 -27.01927,0.90224 -54.02357,2.21163 -81.01877,3.65636 -38.71745,2.19403 -77.42841,4.80285 -115.95584,9.31647 -14.135,1.63715 -28.27003,3.76631 -42.51618,4.07925 -52.98724,2.20285 -49.87194,77.13812 3.1153,74.93527 z"/>
<path d="m 669.5551,152.31896 c 0.27447,18.58446 -3.79925,36.87448 -7.44005,54.98804 -7.18713,31.51781 -14.50856,63.02219 -23.41011,94.10921 -7.51209,26.23457 -9.61611,31.89979 -18.17929,58.26427 -23.76593,69.76729 -57.50978,135.43785 -91.40245,200.6803 -37.30699,68.47236 0.77583,-0.92114 -36.51394,65.55826 -5.92451,10.56209 -11.70707,21.20318 -17.5606,31.80478 -25.62956,46.42871 40.03056,82.67438 65.66012,36.24567 v 0 c 5.69189,-10.3133 11.31343,-20.66573 17.07567,-30.93989 37.782,-67.36578 0.12579,1.28585 37.89665,-68.09939 13.70095,-26.38389 23.93389,-45.70792 37.01006,-72.41704 22.24489,-45.43693 42.81963,-91.77385 59.17416,-139.68854 9.02695,-27.85542 11.2734,-33.92658 19.19276,-61.65942 9.35485,-32.75979 17.09199,-65.94906 24.60462,-99.17002 4.56039,-22.96402 9.29161,-46.13877 8.8924,-69.67623 0,-53.033005 -75,-53.033005 -75,0 z"/>
</svg>
