<?xml version="1.0" ?>
<svg xmlns="http://www.w3.org/2000/svg" viewBox="0 0 1000 1000">
<path d="m 318.05564,156.23072 c 23.67997,-7.03864 47.42566,-13.84259 71.49502,-19.44671 8.57817,-1.99727 17.20373,-3.78525 25.80559,-5.67787 36.28273,-7.53621 73.06974,-12.63883 110.10982,-14.21206 20.82874,-0.88468 24.55553,-0.47369 44.46594,0.0436 11.20485,1.32958 24.06924,0.9035 34.77078,5.34854 0.45657,0.18964 1.37978,1.35074 0.9234,1.16064 -11.49691,-4.78868 -8.23209,-6.072 -16.45017,-20.50758 0.0728,-4.234997 1.00483,-8.543034 0.21829,-12.704984 -0.16244,-0.859579 -1.7467,0.440467 -2.43373,0.982001 -3.00181,2.366111 -5.63774,5.164342 -8.53167,7.661241 -4.19999,3.623782 -8.45727,7.181482 -12.74722,10.698302 -7.49764,6.14642 -25.67216,20.53851 -32.81511,26.21513 -9.78073,7.82665 -26.66574,21.16532 -36.17337,29.45156 -5.93709,5.17438 -11.62013,10.63323 -17.43019,15.94985 -39.05099,35.88203 11.69388,91.10847 50.74486,55.22643 v 0 c 4.85197,-4.4802 9.5815,-9.09675 14.5559,-13.4406 9.12548,-7.96874 25.68834,-21.04707 34.96725,-28.47243 16.81644,-13.3659 34.06387,-26.41805 50.05535,-40.78379 7.75348,-6.96524 22.62297,-20.67167 27.04902,-30.26668 3.89895,-8.45233 4.84197,-17.97582 7.26295,-26.963728 -3.52835,-9.388705 -5.21204,-19.696882 -10.58504,-28.166114 -3.51151,-5.535045 -9.66176,-8.970032 -15.1996,-12.477132 -4.28362,-2.712807 -9.175,-4.374401 -13.97751,-6.000659 -16.82015,-5.695757 -34.87823,-6.566873 -52.39978,-7.888289 -22.72656,-0.509618 -27.52785,-0.976882 -51.07379,0.08862 -40.85502,1.848773 -81.43836,7.465296 -121.45754,15.817791 -9.23171,2.040088 -18.48863,3.969222 -27.69512,6.120264 -23.81958,5.565308 -47.41152,12.087378 -70.78916,19.275405 -51.59701,12.257574 -34.26218,85.226772 17.33483,72.969202 z"/>
<path d="m 419.14403,235.48425 c 0.5136,0.16232 1.04197,0.28372 1.54079,0.48697 2.20628,0.89898 4.30294,2.0481 6.42292,3.13507 8.30226,4.2568 16.26608,8.98501 24.20406,13.8786 11.82566,7.95629 24.00233,15.92727 34.01311,26.18316 -0.0163,0.0711 -0.0326,0.14219 -0.0489,0.21329 34.05963,40.65023 91.54774,-7.51737 57.4881,-48.1676 v 0 c -1.61976,-1.84265 -3.23953,-3.6853 -4.8593,-5.52795 -14.39382,-13.91263 -30.47482,-25.94901 -47.3891,-36.63878 -16.85949,-10.29347 -34.07849,-20.87717 -53.21973,-26.33299 -51.45633,-12.83538 -69.60828,59.93485 -18.15196,72.77023 z"/>
<path d="m 220.75586,319.65418 c 3.53194,22.54302 8.29186,44.8646 13.11908,67.15767 7.18567,32.38958 15.24086,64.58307 24.50307,96.44358 6.00491,20.65588 8.2062,27.10201 14.6611,47.30605 7.11591,21.62805 14.49267,43.1686 21.76037,64.74573 16.92874,50.25851 88.005,26.31766 71.07627,-23.94085 v 0 c -7.14484,-21.21125 -14.39381,-42.38755 -21.39924,-63.64561 -6.1066,-19.08378 -8.21713,-25.26107 -13.89674,-44.76081 -8.85487,-30.40134 -16.54379,-61.12395 -23.40645,-92.03351 -4.58152,-21.1207 -9.10379,-42.26832 -12.44239,-63.62897 -8.73752,-52.30828 -82.7126,-39.95155 -73.97507,12.35672 z"/>
<path d="m 362.37843,383.92648 c 18.80427,-10.03538 38.73039,-17.88078 58.89214,-24.72336 7.64246,-2.59372 15.37437,-4.91596 23.06155,-7.37394 43.91401,-12.77372 89.12886,-20.94147 134.68523,-24.87884 8.01706,-0.69291 16.05994,-1.04494 24.08991,-1.5674 22.8671,-0.78695 45.88946,-0.91552 68.60565,2.22269 7.62977,1.05404 9.64552,1.64268 16.66593,3.22564 2.508,0.74005 5.05149,1.33904 7.42819,2.45506 0.17137,0.0805 0.59336,0.43506 0.40837,0.39476 -5.00146,-1.08963 -8.5107,-6.93691 -11.28276,-10.40354 -0.91502,-2.08583 -1.62661,-4.27329 -2.74506,-6.25748 -0.1138,-0.20188 -0.48968,0.22611 -0.52566,0.45505 -0.35714,2.27313 -0.36537,4.5884 -0.62594,6.87462 -1.13474,9.95596 -2.09829,16.39722 -4.11361,26.57408 -1.24945,6.30942 -2.72008,12.57302 -4.08012,18.85953 -7.80718,32.86818 -17.00235,65.43037 -28.58708,97.17989 -7.98171,21.87495 -10.03956,25.91233 -19.03197,46.9095 -8.54868,17.03897 -8.86498,18.95081 -18.69396,34.07958 -2.60863,4.0152 -5.50978,7.83259 -8.26466,11.74888 -30.25468,43.55634 31.34328,86.34291 61.59796,42.78658 v 0 c 3.66922,-5.33221 7.53881,-10.53195 11.00765,-15.99663 12.18446,-19.19491 12.99235,-22.27924 23.32737,-43.16443 3.55293,-8.34186 7.26452,-16.61791 10.65879,-25.02558 17.37946,-43.04923 30.76932,-87.58876 41.31552,-132.77719 1.55347,-7.28647 3.24616,-14.54463 4.66041,-21.85939 2.15662,-11.15452 3.91375,-22.42077 4.99587,-33.73529 0.67169,-7.02313 1.47393,-18.65958 0.26592,-25.66973 -0.87141,-5.05684 -2.81381,-9.86946 -4.22072,-14.80419 -2.64761,-3.97732 -4.85022,-8.28988 -7.94283,-11.93194 -9.68344,-11.40386 -25.68313,-16.30817 -39.56601,-19.96873 -10.45845,-2.23179 -13.31778,-3.03884 -24.4477,-4.49901 -27.09553,-3.55474 -54.5134,-3.59514 -81.77316,-2.5083 -9.03193,0.60919 -18.07839,1.03168 -27.09579,1.82759 -50.63297,4.46901 -100.86631,13.69546 -149.63775,28.04287 -8.58675,2.76571 -17.22499,5.3764 -25.76025,8.29715 -25.14451,8.60439 -50.02701,18.55168 -73.16841,31.70377 -44.90674,28.21143 -5.00976,91.71915 39.89698,63.50773 z"/>
<path d="m 430.51656,332.60963 c -0.0386,25.61007 -0.71291,51.2137 -1.31522,76.81518 -0.90202,42.81726 -1.98921,85.62962 -2.45931,128.45438 -0.038,4.9835 -0.076,9.96701 -0.11405,14.95052 -0.40377,53.03147 74.59405,53.6025 74.99783,0.57103 v 0 c 0.0372,-4.89997 0.0745,-9.79993 0.11171,-14.6999 0.46483,-42.51072 1.55082,-85.009 2.44308,-127.51232 0.61595,-26.18929 1.30023,-52.38078 1.33596,-78.57889 0,-53.03301 -75,-53.03301 -75,0 z"/>
<path d="m 355.06469,504.00431 c 29.80238,-8.23697 60.39246,-13.1546 90.88257,-18.03264 32.40269,-4.651 65.01048,-8.11979 97.75083,-8.98742 15.62337,-0.41402 19.50148,-0.15927 34.37837,0.18136 3.9722,0.23517 7.94439,0.47034 11.91659,0.70551 52.94641,3.02951 57.23078,-71.84802 4.28437,-74.87753 v 0 c -4.8588,-0.27012 -9.71761,-0.54025 -14.57642,-0.81038 -16.91367,-0.3484 -21.55239,-0.63354 -39.20088,-0.13075 -35.64497,1.01549 -71.15111,4.74983 -106.42561,9.86492 -34.78822,5.58846 -69.76315,11.1853 -103.59979,21.23262 -50.10156,17.38774 -25.51159,88.24205 24.58997,70.85431 z"/>
<path d="m 347.82805,615.02254 c 23.42714,-1.09652 46.61702,-5.3989 69.7301,-9.13502 42.15311,-7.14147 84.66506,-12.50097 127.3868,-14.62522 7.60693,-0.37824 15.22464,-0.49416 22.83696,-0.74124 17.17247,-0.20594 34.36788,0.21599 51.46615,1.90326 3.52357,0.34771 7.02823,0.86581 10.54235,1.29871 52.65466,6.32346 61.59738,-68.14148 8.94272,-74.46494 v 0 c -4.54853,-0.53537 -9.08614,-1.17351 -13.64559,-1.60609 -19.87288,-1.88546 -39.85073,-2.38128 -59.80359,-2.08933 -8.42348,0.28731 -16.85293,0.4341 -25.27045,0.86193 -45.08005,2.29123 -89.94473,7.90639 -134.4319,15.42534 -21.39745,3.46394 -42.83348,7.49275 -64.52862,8.47924 -52.81618,4.79069 -46.04111,79.48406 6.77507,74.69336 z"/>
<path d="m 308.08755,761.7986 c 16.08257,-10.08722 34.24089,-16.89013 52.32004,-22.43386 7.96565,-2.44256 16.05643,-4.45666 24.08464,-6.68499 39.87773,-9.69249 80.39551,-16.77856 121.20191,-21.15123 24.53912,-2.62953 33.50714,-2.91817 57.81167,-4.42019 32.29428,-1.16216 64.79913,-2.22395 97.02233,0.99073 3.4039,0.33958 6.78915,0.8455 10.18373,1.26825 2.34709,0.45452 4.72237,0.78203 7.04125,1.36355 1.11849,0.2805 2.28073,0.57338 3.23916,1.21455 0.30052,0.20105 -0.70848,0.34358 -1.05652,0.24562 -1.23965,-0.34894 -2.4314,-0.89029 -3.54314,-1.54031 -4.13439,-2.41736 -1.64736,-2.61685 -4.08278,-2.18361 1.43822,19.04297 -0.86509,38.19554 -4.39842,56.89679 -1.12643,5.96195 -2.52669,11.86889 -3.79004,17.80334 -5.30628,22.36351 -12.31766,44.34218 -21.69554,65.34368 -4.66242,10.44136 -6.59238,13.68974 -11.81217,23.50566 -4.29396,7.63372 -8.85138,15.12343 -13.8489,22.31872 -2.01381,2.89942 -4.08201,5.85026 -6.51115,8.42385 3.72126,-5.23209 10.08694,-7.23364 15.87691,-8.99715 1.34606,-0.40999 3.45116,0.55902 4.171,-0.65002 0.55785,-0.93696 -1.97397,-0.92862 -2.97849,-1.35291 -3.03997,-1.28405 -6.10236,-2.51434 -9.15354,-3.77151 -14.82156,-6.74839 -28.64741,-15.39731 -42.55679,-23.79972 -45.42148,-27.37498 -84.13554,36.86069 -38.71406,64.23567 v 0 c 17.45911,10.50091 34.86401,21.22509 53.63781,29.2879 9.38365,3.6298 19.20879,8.04366 29.27344,9.66311 11.81092,1.90044 19.86429,1.38664 31.13883,-3.34947 3.99195,-1.6769 7.42257,-4.49136 10.87164,-7.10892 1.88731,-1.43231 3.37706,-3.32405 5.06558,-4.98607 11.68987,-13.76662 21.29165,-29.1253 30.04891,-44.89208 6.55407,-12.48077 8.90752,-16.47131 14.74311,-29.73223 11.14477,-25.32565 19.56157,-51.77097 25.8381,-78.70413 1.48624,-7.14057 3.14849,-14.24675 4.45871,-21.42169 2.47602,-13.55898 4.31152,-26.9795 5.19449,-40.73535 0.71518,-11.14168 0.87045,-23.90921 -0.49346,-35.06123 -0.65588,-5.36277 -1.98964,-10.6207 -2.98446,-15.93105 -5.33271,-13.76886 -5.67749,-18.58902 -16.14689,-29.65128 -12.6332,-13.3486 -30.27884,-18.3184 -47.80325,-20.8882 -4.43817,-0.52715 -8.86575,-1.15266 -13.31449,-1.58145 -35.74301,-3.44506 -71.77063,-2.48118 -107.58749,-1.07772 -26.25519,1.65002 -35.84859,1.9645 -62.39173,4.84705 -44.52331,4.83519 -88.73376,12.62007 -132.21109,23.36616 -9.4665,2.67896 -19.01253,5.09135 -28.3995,8.03688 -24.28282,7.6197 -49.75572,17.5625 -70.87146,32.07446 -2.57617,1.77049 -4.92428,3.85183 -7.38642,5.77774 -39.20388,35.71493 11.30464,91.15759 50.50852,55.44266 z"/>
<path d="m 439.568,598.18463 c -2.61318,24.37744 -7.38504,48.45413 -13.68254,72.14109 -2.52562,9.49969 -5.39008,18.90604 -8.08512,28.35906 -14.84975,47.18513 -32.72319,93.47975 -54.22628,138.04866 -5.25416,10.89017 -10.9991,21.53666 -16.49864,32.30499 -24.07419,47.25392 42.75296,81.29996 66.82714,34.04603 v 0 c 5.97539,-11.75522 12.21376,-23.38042 17.92617,-35.26565 23.06757,-47.99435 42.25196,-97.83142 58.11829,-148.64362 2.94767,-10.41492 6.0882,-20.77718 8.84299,-31.24476 7.14898,-27.16444 12.50721,-54.78829 15.4491,-82.72975 4.9611,-52.80045 -69.71002,-59.8165 -74.67111,-7.01605 z"/>
</svg>
