<?xml version="1.0" ?>
<svg xmlns="http://www.w3.org/2000/svg" width="1000" height="1000">
<path d="m 106.61408,267.75335 c 36.33461,-7.87191 72.97251,-14.21165 109.61246,-20.46393 46.74806,-7.73139 93.77547,-13.95426 141.07253,-17.08404 27.71513,-1.83399 33.87374,-1.6412 60.73765,-2.12325 18.51773,-0.30112 36.97218,0.96126 55.3918,2.63874 52.8228,4.71711 59.4938,-69.98562 6.671,-74.70273 v 0 c -21.10573,-1.85355 -42.24707,-3.29417 -63.45854,-2.92302 -28.98771,0.55743 -35.62545,0.35846 -65.44431,2.35894 -49.47934,3.31944 -98.68235,9.80789 -147.59004,17.90473 -37.32653,6.37375 -74.65238,12.83075 -111.669723,20.84471 -52.007596,10.37832 -37.330432,83.92817 14.677173,73.54985 z"/>
<path d="m 177.46966,120.61748 c -1.47171,30.21305 -0.33115,60.49764 0.45797,90.7148 1.36254,49.10294 2.52559,98.21684 2.74282,147.34037 0.17476,39.51826 -0.0786,49.81762 -0.48712,89.50742 -0.48388,42.4496 -2.22264,84.86368 -4.04584,127.27102 -2.27504,52.98419 72.65592,56.20157 74.93096,3.21739 v 0 c 1.85361,-43.22323 3.62189,-86.4533 4.11093,-129.71945 0.41278,-40.41194 0.66826,-50.75512 0.48759,-90.99954 -0.2224,-49.53658 -1.39091,-99.06354 -2.76501,-148.57941 -0.71867,-27.39886 -1.69146,-54.83619 -0.71551,-82.24096 4.60442,-52.83275 -70.11237,-59.344384 -74.71679,-6.51164 z"/>
<path d="m 347.52093,102.50017 c -0.0601,27.45361 0.15009,54.90662 0.37421,82.3591 0.6039,62.73686 0.1681,125.47767 -0.0304,188.21556 -0.11851,46.85711 -0.44942,93.72084 -2.36946,140.54461 -1.15251,28.10604 -1.73812,35.20649 -3.45967,62.79703 -3.29617,52.93047 71.55883,57.59197 74.855,4.66149 v 0 c 1.77304,-28.52593 2.37677,-35.86805 3.56143,-64.91228 1.94124,-47.59331 2.2953,-95.22655 2.41232,-142.85354 0.19941,-63.02122 0.63556,-126.04537 0.0283,-189.06557 -0.22275,-27.24824 -0.43175,-54.49702 -0.3717,-81.7464 0,-53.033007 -75,-53.033007 -75,0 z"/>
<path d="m 230.0513,364.5793 c 2.57502,0.29258 5.139,0.70853 7.72505,0.87775 5.56175,0.36394 12.41772,0.1276 17.93617,-0.0235 11.29911,-0.30928 22.58631,-0.86806 33.87577,-1.41411 21.9091,-1.05184 43.85814,-1.11852 65.77903,-0.44688 6.6462,0.2391 13.29047,0.52721 19.93486,0.81114 52.98467,2.26394 56.18636,-72.66769 3.2017,-74.93163 v 0 c -6.96008,-0.29736 -13.92003,-0.59918 -20.88216,-0.84562 -23.88174,-0.70633 -47.79182,-0.65977 -71.66026,0.50073 -10.70244,0.51867 -21.40022,1.01939 -32.11033,1.34947 -2.23396,0.0688 -4.46798,0.13689 -6.70235,0.19083 -1.11608,0.0269 -2.24604,-0.12221 -3.34879,0.0518 -0.32446,0.0512 0.61898,0.22008 0.92848,0.33012 -52.0076,-10.37833 -66.68477,63.17153 -14.67717,73.54985 z"/>
<path d="m 233.7248,487.67575 c 13.17536,-1.0662 26.36718,-1.92191 39.56128,-2.71915 24.19249,-1.57442 48.43898,-1.38909 72.63887,-0.19534 10.24776,0.81192 5.39702,0.37315 14.55511,1.28401 52.77909,5.18341 60.10953,-69.45749 7.33044,-74.6409 v 0 c -11.41776,-1.10981 -5.33831,-0.57609 -18.24238,-1.55457 -26.92424,-1.29301 -53.89849,-1.50906 -80.81314,0.2438 -13.4608,0.81602 -26.91983,1.68483 -40.36177,2.77189 -52.89884,3.77 -47.56725,78.58026 5.33159,74.81026 z"/>
<path d="m 111.26586,650.47438 c 14.3479,-2.60709 28.46382,-6.36656 42.70508,-9.48796 5.55904,-1.21844 11.13829,-2.34276 16.70744,-3.51414 39.1066,-7.61504 78.74934,-12.30363 118.50767,-14.71917 8.71371,-0.52941 17.43981,-0.83034 26.15971,-1.24551 30.43328,-0.95068 60.92868,-1.09206 91.33689,0.69065 14.15719,0.82997 17.70832,1.35009 31.27043,2.77751 9.67353,0.95777 19.22068,2.72931 28.73101,4.67955 51.98204,10.50559 66.83919,-63.00812 14.85715,-73.51371 v 0 c -11.86572,-2.37186 -23.76905,-4.56586 -35.82463,-5.76294 -15.65541,-1.61334 -19.45898,-2.17244 -35.7261,-3.10743 -32.71076,-1.88014 -65.51272,-1.73608 -98.24806,-0.67702 -9.37065,0.45498 -18.74807,0.78703 -28.11194,1.36494 -43.08757,2.65926 -86.04402,7.81065 -128.41547,16.12454 -18.22424,3.84621 -36.37431,8.00187 -54.53243,12.14115 -52.502359,7.48348 -41.919112,81.73303 10.58325,74.24954 z"/>
<path d="m 123.09861,614.79611 c -2.77737,21.75611 -1.34948,43.84536 -0.60383,65.69344 1.95987,39.78156 2.92386,79.59011 3.158,119.4159 0.15116,21.24671 -0.049,42.49164 -0.57323,63.73173 -0.29615,10.46428 -0.44936,24.5308 7.71774,32.33935 7.7447,7.40468 17.87893,12.43512 28.12839,15.55891 5.24045,1.59716 10.87423,-1.34318 16.31134,-2.01477 16.4379,-6.03506 33.97158,-7.80037 51.22154,-10.02966 41.35512,-5.06526 83.00366,-6.56808 124.61921,-7.49799 29.95387,-0.66592 59.91298,-0.83122 89.87282,-0.74646 53.03281,0.14689 53.24055,-74.85282 0.20774,-74.99972 v 0 c -30.59103,-0.083 -61.18135,0.0833 -91.76625,0.76513 -44.2841,1.00136 -88.60084,2.66493 -132.60163,8.1048 -21.13998,2.76231 -42.57128,5.25636 -62.76501,12.46595 3.97171,-0.2395 8.2057,-2.1579 11.91514,-0.7185 26.09796,10.12694 25.12909,10.88777 31.96359,32.08943 0.27093,0.84044 -0.002,1.76697 0.0461,2.64869 0.11099,2.03645 -0.29117,-12.91686 0.10654,-6.11751 0.54145,-22.00408 0.75029,-44.01326 0.59467,-66.02415 -0.2424,-40.53384 -1.20675,-81.05125 -3.20069,-121.5402 -0.57367,-16.66288 -1.48618,-33.40003 -0.49837,-50.06228 9.23629,-52.22251 -64.61749,-65.2846 -73.85379,-13.06209 z"/>
<path d="m 238.29457,625.52913 c -0.004,-0.22368 0.0521,-0.8855 -0.0116,-0.67104 -3.61764,12.18102 1.74366,-3.61564 -3.43457,13.12829 -0.96333,3.11496 -2.033,6.19916 -3.20981,9.2399 -4.70275,12.15138 -6.29653,14.69694 -12.31686,27.06231 -9.61365,17.40418 -20.15796,34.36019 -32.10865,50.27025 -9.41314,12.53178 -13.95277,17.15263 -24.17935,28.60273 -35.21148,39.65667 20.87153,89.45322 56.08301,49.79654 v 0 c 4.80079,-5.43296 9.75631,-10.73304 14.40238,-16.29889 20.56102,-24.63144 38.27642,-51.51422 53.36799,-79.81424 3.00861,-6.29522 6.19535,-12.50836 9.02581,-18.88567 7.37907,-16.62581 13.04301,-33.96673 16.62444,-51.79976 7.51684,-52.49759 -66.72597,-63.12801 -74.24281,-10.63042 z"/>
<path d="m 340.18789,682.88394 c -0.19932,-0.15223 -0.70757,-0.68226 -0.59796,-0.45668 0.44442,0.91463 1.07736,1.72507 1.62928,2.57915 1.2684,1.9628 2.53299,3.92831 3.83155,5.87129 5.91219,8.84611 12.11649,17.47913 18.33035,26.11398 8.84791,12.1163 17.20902,24.62994 24.1845,37.92682 24.83212,46.86007 91.10226,11.74215 66.27014,-35.11791 v 0 c -8.67393,-16.26323 -18.66029,-31.78241 -29.58618,-46.62707 -5.54852,-7.70458 -11.11769,-15.39383 -16.39355,-23.28973 -1.8331,-2.74341 -6.23334,-9.67603 -8.18822,-12.35251 -1.40032,-1.91721 -2.95102,-3.71993 -4.42653,-5.5799 -36.01476,-38.92862 -91.06813,12.00394 -55.05338,50.93256 z"/>
<path d="m 484.75337,443.40221 c 24.89176,-10.92017 51.36927,-17.32784 77.7016,-23.66229 44.4663,-9.70617 89.5619,-16.38432 134.81592,-21.11503 8.36475,-0.87442 16.74637,-1.57925 25.11955,-2.36888 30.67692,-2.45607 61.52126,-3.98694 92.28143,-2.33408 4.00287,0.37433 4.45973,0.31241 7.79284,0.89992 0.50262,0.0886 1.00038,0.20347 1.49745,0.31919 0.23535,0.0548 0.93746,0.2313 0.699,0.19216 -1.68181,-0.27604 -2.66344,-0.76992 -4.44625,-1.40508 -8.31,-3.78722 -11.35359,-7.93341 -16.32084,-15.43489 -0.46346,-0.69992 -0.4737,-1.69494 -1.08088,-2.27461 -0.40698,-0.38855 0.27324,1.09167 0.41278,1.63676 0.39247,1.53314 0.78883,3.06527 1.18325,4.59791 4.81778,20.72744 7.76908,41.88274 9.6903,63.06512 0.63263,6.9751 1.05597,13.96761 1.58395,20.95141 2.42305,43.12609 0.21161,86.45383 -5.54125,129.24595 -1.22914,9.14279 -2.81943,18.23338 -4.22915,27.35007 -6.22021,33.9942 -14.83752,67.56719 -25.74153,100.36287 -6.08059,18.2884 -8.22406,23.01331 -15.17701,40.57493 -9.50617,21.69428 -19.14042,43.75975 -33.1909,62.99559 -1.40564,1.9244 -2.95242,3.74163 -4.42864,5.61244 -1.54004,1.6442 -3.4927,4.0484 -5.52987,5.3675 -0.12808,0.0829 -0.57136,0.023 -0.45204,-0.0721 1.30269,-1.03848 2.57109,-2.20555 4.10993,-2.84384 5.64671,-2.34218 7.63505,-2.35648 12.68065,-2.9389 -16.6602,-9.26364 -33.27487,-18.91022 -48.35817,-30.64122 -5.45531,-4.24286 -10.48432,-9.00712 -15.72648,-13.51068 -40.49035,-34.24955 -88.92653,23.01245 -48.43618,57.262 v 0 c 7.06585,5.90742 13.89262,12.11319 21.19757,17.72226 6.48421,4.97887 13.31271,9.49829 20.12976,14.01073 15.10506,9.99857 30.81309,19.27012 47.52815,26.32539 6.05417,1.42369 11.95214,3.93746 18.1625,4.27109 24.2466,1.30255 39.58659,-12.07111 54.04106,-29.09428 6.90676,-9.05291 8.48425,-10.72635 14.79827,-20.76729 13.16462,-20.93518 23.64483,-43.42787 33.24109,-66.17397 2.87055,-7.29871 5.87964,-14.54444 8.61165,-21.89614 16.28468,-43.82125 28.27844,-89.21577 36.67127,-135.18289 1.53976,-10.09081 3.27649,-20.15352 4.61927,-30.27242 6.30288,-47.49731 8.5954,-95.58045 5.80143,-143.42938 -0.6018,-7.78067 -1.08698,-15.57123 -1.80542,-23.34199 -2.29289,-24.80057 -5.86771,-49.55313 -11.65463,-73.79052 -1.35835,-5.20274 -3.06523,-13.27202 -5.66047,-17.91599 -5.47808,-9.8026 -10.32124,-15.24802 -20.33381,-20.15676 -1.75042,-0.6907 -3.47243,-1.45825 -5.25126,-2.07209 -8.71878,-3.00873 -18.12222,-3.59427 -27.21697,-4.44827 -34.41108,-1.72299 -68.89881,-0.31963 -103.21459,2.56743 -8.85875,0.84034 -17.72641,1.59145 -26.57624,2.52103 -48.31362,5.07483 -96.45226,12.2676 -143.90666,22.72635 -8.23782,1.99729 -16.50839,3.86403 -24.71346,5.99186 -20.95007,5.43301 -41.7347,11.83053 -61.66057,20.32963 -49.67004,18.58461 -23.38743,88.82865 26.2826,70.24404 z"/>
<path d="m 588.86715,173.93103 c 1.68063,27.12023 1.13434,54.32917 0.60866,81.47655 -2.14638,60.64846 -10.33789,121.00383 -21.62847,180.58835 -2.91456,15.38117 -6.2286,30.68396 -9.3429,46.02593 -13.68832,64.36113 -31.86855,127.68999 -54.23332,189.56497 -5.23213,14.47536 -10.92222,28.78106 -16.38333,43.17159 -18.79698,49.59006 51.33394,76.17301 70.13093,26.58296 v 0 c 5.72436,-15.1189 11.69177,-30.148 17.1731,-45.3567 23.42096,-64.9847 42.47063,-131.48588 56.8179,-199.06407 3.23939,-16.00491 6.69008,-31.9685 9.71815,-48.01472 11.95943,-63.37487 20.5482,-127.56809 22.7343,-192.068 0.56016,-29.79441 1.14193,-59.66261 -0.87823,-89.41849 -4.60442,-52.83275 -79.32121,-46.32112 -74.71679,6.51163 z"/>
</svg>
