<?xml version="1.0" ?>
<svg xmlns="http://www.w3.org/2000/svg" width="1000" height="1000">
<path d="m 143.58551,228.26221 c 27.66343,-12.24221 57.18628,-19.26586 86.48641,-26.30815 46.44234,-10.37564 93.59747,-17.20885 140.93374,-21.84226 11.22814,-0.95583 22.47966,-1.64302 33.74364,-1.97807 2.3291,-0.0693 6.99285,-0.49538 9.62981,0.0674 -10.13388,-1.6291 -17.30433,-1.82403 -24.91655,-13.65313 -5.03275,-7.82069 -5.42798,-17.83289 -7.10407,-26.9807 -0.33211,-1.81259 1.44904,-3.58133 1.17062,-5.40294 -0.15021,-0.98284 -1.09843,1.65827 -1.61292,2.50906 -1.6528,2.73311 -3.2588,5.49425 -4.8882,8.24138 -2.41377,3.91251 -4.7696,7.86137 -7.2413,11.73754 -6.82302,10.7 -13.99299,21.17604 -20.82001,31.87349 -8.50748,13.33063 -16.51776,26.97452 -25.04028,40.29553 -4.21595,6.58967 -8.65102,13.03656 -12.97652,19.55485 -29.28691,44.21286 33.23952,85.6308 62.52643,41.41794 v 0 c 4.75859,-7.1955 9.62586,-14.32028 14.27577,-21.58648 8.1873,-12.79387 15.86516,-25.90873 24.0362,-38.71299 7.17022,-11.23594 14.69173,-22.24536 21.84596,-33.49149 2.70945,-4.25911 5.29357,-8.59667 7.94036,-12.895 1.99288,-3.37477 8.97968,-14.91254 10.63646,-18.81427 1.64806,-3.88118 4.30121,-7.7722 4.05661,-11.9817 -0.60079,-10.33933 -1.2848,-21.44162 -6.51807,-30.37894 -7.80079,-13.3221 -17.8017,-14.01871 -29.60233,-16.51001 -18.83014,-1.18306 -37.71016,0.78203 -56.48363,2.04871 -50.77692,5.01725 -101.36407,12.33922 -151.16725,23.57043 -8.47922,2.0494 -16.98874,3.97725 -25.43765,6.1482 -25.3466,6.51284 -50.48234,14.17385 -74.45093,24.76795 -48.297945,21.90454 -17.320245,90.20814 30.9777,68.3036 z"/>
<path d="m 241.69085,299.04095 c 14.02367,4.34631 26.53724,12.14707 38.82311,19.97032 14.18382,9.34324 27.64981,19.81855 39.44939,32.0682 5.04877,5.24135 6.2087,6.86513 10.52761,12.17329 33.77179,40.88967 91.59853,-6.87086 57.82673,-47.76054 v 0 c -6.56501,-7.87282 -8.52965,-10.52725 -16.0501,-18.16464 -15.60758,-15.85027 -33.15801,-29.62362 -51.77105,-41.77018 -4.63198,-2.89575 -9.18693,-5.91852 -13.89593,-8.68724 -14.36717,-8.44739 -29.60678,-15.61859 -45.6256,-20.30762 -51.24998,-13.63597 -70.53414,58.84245 -19.28416,72.47841 z"/>
<path d="m 128.41555,485.88306 c 26.28552,-11.73332 53.17341,-21.96608 80.65233,-30.5533 9.35461,-2.92333 18.78951,-5.58326 28.18426,-8.3749 39.31769,-11.39628 79.46633,-19.54653 120.10306,-24.42569 23.94792,-2.87537 30.96409,-3.05665 54.49507,-4.64665 29.25603,-1.2061 58.7988,-2.41374 87.91951,1.44636 0.39492,0.18622 1.58932,0.72281 1.18475,0.55864 -16.31601,-6.62093 -17.52861,-4.83755 -25.43006,-28.94775 -1.48672,-4.53653 2.15984,-9.5018 1.55445,-14.23719 -0.17885,-1.399 -2.04554,1.94609 -2.9921,2.99167 -2.99369,3.30687 -5.88267,6.70704 -8.824,10.06056 -15.13842,17.54697 -31.86433,33.61888 -47.74639,50.46857 -7.08302,7.51456 -13.98295,15.19962 -20.97443,22.79943 -35.88927,39.04433 19.32775,89.79943 55.21703,50.7551 v 0 c 6.54361,-7.12517 12.99482,-14.33631 19.63084,-21.37549 16.79419,-17.81449 34.45702,-34.83009 50.44137,-53.40318 3.76629,-4.35174 18.54367,-20.72884 21.07607,-26.35749 3.5964,-7.99358 8.61054,-16.4939 7.53586,-25.19312 -3.15405,-25.5314 -12.22398,-32.26731 -31.44286,-40.35774 -3.08942,-1.30053 -6.54617,-1.44612 -9.81926,-2.16918 -3.26356,-0.39982 -6.51857,-0.87708 -9.7907,-1.19946 -30.78021,-3.03259 -61.82218,-2.07534 -92.65729,-0.66495 -25.63026,1.77195 -33.64209,2.00392 -59.6997,5.18554 -44.38197,5.41901 -88.23839,14.3711 -131.18592,26.83129 -10.11462,3.01788 -20.27384,5.8901 -30.34385,9.05364 -28.89281,9.07682 -57.23736,19.74598 -84.8886,32.09806 -49.255092,19.65796 -21.454537,89.31519 27.80056,69.65723 z"/>
<path d="m 285.03607,503.57399 c -0.30603,-0.30531 -1.01171,-1.33795 -0.91807,-0.91593 0.23271,1.04883 0.93866,1.93365 1.36289,2.92069 0.92872,2.16084 1.84714,4.32713 2.6951,6.52094 1.39306,3.60406 2.77833,7.2132 4.02687,10.86985 5.23837,15.34179 4.88764,15.5267 9.10297,32.28015 9.0733,42.51157 11.7649,86.13829 10.29709,129.52305 -0.32572,9.62778 -1.05777,19.23752 -1.58665,28.85628 -2.71539,35.17555 -7.15171,70.33274 -15.9622,104.55109 -4.18272,16.24492 -6.71253,22.89268 -11.93626,38.41684 -7.06153,18.928 -14.46293,38.09656 -26.19629,54.69396 -0.64078,0.74781 -1.28157,1.49563 -1.92236,2.24345 -0.20629,0.10389 -0.75621,0.49739 -0.61888,0.31168 5.0961,-6.89138 14.63111,-7.68046 22.47735,-7.98539 -0.94104,-0.89011 -1.87607,-1.78662 -2.82311,-2.67035 -2.26619,-2.11469 -4.69841,-4.06179 -6.8165,-6.32481 -8.61811,-9.2078 -11.84889,-14.63915 -19.54154,-25.4289 -31.20182,-42.88295 -91.84746,1.24308 -60.64564,44.12603 v 0 c 5.11287,6.92584 9.8919,14.11104 15.33862,20.77753 12.69329,15.53586 27.12796,28.98109 44.91796,38.44512 5.9925,1.94817 11.72204,5.0865 17.97751,5.84452 17.03457,2.06422 29.96152,-2.89399 42.2695,-13.87216 4.57808,-4.08344 7.44306,-8.18012 11.18226,-12.96546 4.86157,-7.17237 6.12011,-8.72572 10.53058,-16.59512 10.13332,-18.08041 17.96988,-37.36247 25.00124,-56.82146 6.20922,-18.67817 8.96497,-25.90773 13.92913,-45.52383 9.71371,-38.38419 14.78383,-77.76098 17.73032,-117.19362 0.56346,-10.68537 1.35712,-21.36109 1.69038,-32.05611 1.55558,-49.9225 -1.85288,-100.09557 -12.63074,-148.93372 -1.92434,-7.42932 -3.64792,-14.91357 -5.77302,-22.28798 -2.81576,-9.77112 -7.17765,-22.1394 -11.05285,-31.7548 -2.44331,-6.06252 -5.6151,-13.28128 -9.00103,-19.03271 -1.40644,-2.38903 -3.06052,-4.62335 -4.59078,-6.93502 -33.17476,-41.37554 -91.68861,5.54065 -58.51385,46.91619 z"/>
<path d="m 269.27055,469.41226 c -2.34641,8.33903 -3.92002,16.87976 -6.17212,25.24082 -2.70006,10.02411 -6.79372,22.75786 -10.38722,32.19376 -2.77451,7.2854 -5.93189,14.41918 -8.89783,21.62876 -17.29098,39.32746 -40.23264,75.76213 -63.4421,111.78534 -19.47185,30.2221 -21.42154,32.7188 -41.46697,62.25513 -6.83408,9.59084 -13.66817,19.18168 -20.50225,28.77252 -30.763723,43.1983 30.32791,86.70477 61.09163,43.50646 v 0 c 7.15823,-10.05712 14.31646,-20.11424 21.47469,-30.17136 20.37475,-30.04041 23.0053,-33.53181 42.74671,-64.20604 25.59203,-39.76493 50.68541,-80.09349 69.5348,-123.59472 3.47416,-8.56539 7.17105,-17.04378 10.42248,-25.69617 7.77412,-20.68779 13.27052,-42.01996 18.34922,-63.48579 12.88965,-51.44275 -59.86139,-69.67146 -72.75104,-18.22871 z"/>
<path d="m 541.66296,60.559474 c 0.28569,11.947006 -2.49486,23.575468 -5.77894,34.977579 -3.82566,13.282397 -7.07727,22.450147 -11.53535,35.734947 -10.95847,32.57372 -26.0982,63.4669 -42.54289,93.56554 -1.42378,2.5225 -2.82347,5.05874 -4.27132,7.5675 -3.72803,6.45972 -15.75385,23.37173 -10.62467,28.31207 45.72946,44.04577 43.70204,41.2365 69.77832,24.89289 34.58095,-20.79975 72.46888,-35.58398 110.75955,-47.99535 10.77897,-3.49385 21.6866,-6.57756 32.5299,-9.86633 45.98848,-12.66774 93.03516,-23.02256 140.78029,-25.88849 5.95003,-0.35716 11.91724,-0.3177 17.87587,-0.47655 9.7429,0.53138 13.47118,0.17757 22.23358,2.30836 1.60146,0.38944 3.09985,1.12079 4.64978,1.68118 50.91835,14.82636 71.88599,-57.18307 20.96763,-72.00943 v 0 c -4.70926,-1.26215 -9.34667,-2.8319 -14.12778,-3.78645 -14.71538,-2.93791 -20.66027,-2.53586 -35.98921,-3.15942 -7.41383,0.24536 -14.83854,0.26562 -22.24149,0.73607 -52.89486,3.36143 -105.03431,14.68093 -155.97713,28.84155 -11.77001,3.59055 -23.6118,6.95372 -35.31002,10.77166 -43.73861,14.27494 -86.86829,31.50489 -126.26936,55.47511 -26.19198,16.83427 5.57679,-6.49007 45.32805,39.81839 4.17449,4.86311 -4.48446,12.05787 -5.81019,18.32833 -0.37653,1.78091 1.96619,-3.06437 2.91186,-4.61974 3.65964,-6.01914 5.00835,-8.55589 8.64209,-15.00568 18.52639,-33.98817 35.4826,-68.91109 47.82641,-105.67841 10.23045,-30.6164 21.51883,-61.796271 21.19502,-94.525326 0,-53.0330089 -75,-53.0330089 -75,0 z"/>
<path d="m 712.95007,253.36341 c -0.66497,15.35084 -6.33607,29.79265 -13.50747,43.23397 -3.40864,6.38881 -7.2653,12.52829 -10.89796,18.79243 -31.01876,51.16168 -71.64165,95.38143 -114.05455,137.22721 -9.70251,9.57278 -19.64912,18.89496 -29.47368,28.34244 -26.8366,24.03727 -27.41349,25.32869 -54.68546,46.90299 -7.5914,6.0054 -15.40016,11.73081 -23.10024,17.59622 -42.16321,32.16774 3.32885,91.79552 45.49206,59.62778 v 0 c 8.3727,-6.39706 16.86686,-12.6382 25.1181,-19.19118 29.43692,-23.37826 30.4647,-25.11278 59.1775,-50.89142 23.95654,-23.06467 39.15912,-37.18194 62.15309,-61.46134 35.25962,-37.23075 68.04341,-76.95754 94.51999,-120.99233 4.66832,-8.28851 9.69896,-16.38312 14.00495,-24.86551 10.88905,-21.45041 18.68237,-44.6407 20.04784,-68.76857 3.92635,-52.88746 -70.86782,-58.44015 -74.79417,-5.55269 z"/>
<path d="m 576.54288,362.68839 c -0.11007,0.0148 -0.41657,-0.0255 -0.33021,0.0443 0.83177,0.67237 1.76564,1.20766 2.64034,1.82314 2.06819,1.45529 4.14282,2.90188 6.18819,4.38907 3.12674,2.27346 6.25011,4.55248 9.32746,6.89238 11.16563,8.48994 15.24613,11.954 26.666,21.19763 40.15342,32.93752 77.40771,69.18131 113.90629,106.06687 28.43679,29.04475 56.23452,58.70216 84.28287,88.11879 12.29382,12.76221 25.22171,24.94097 39.11035,35.96254 9.2557,7.34502 14.24528,10.75288 23.90528,17.69672 13.81221,9.47699 28.04149,18.31947 42.12991,27.37462 44.61318,28.67339 85.16344,-34.41918 40.5503,-63.09257 v 0 c -13.01499,-8.36456 -26.15032,-16.54607 -38.96187,-25.22225 -7.7575,-5.55241 -12.55619,-8.84573 -19.94376,-14.64979 -11.57906,-9.09711 -22.29944,-19.23207 -32.51138,-29.82648 -28.37262,-29.75312 -56.48698,-59.75447 -85.25983,-89.12436 -38.45455,-38.83329 -77.72211,-76.96979 -120.04498,-111.61905 -13.15306,-10.62962 -26.27707,-21.23563 -40.00663,-31.11897 -4.69767,-3.38166 -10.87504,-7.73275 -15.9995,-10.67489 -2.14399,-1.23095 -4.39993,-2.25574 -6.5999,-3.38361 -48.89355,-20.5407 -77.94249,48.60523 -29.04893,69.14593 z"/>
<path d="m 537.32688,696.75211 c 23.6096,-6.29385 47.30779,-12.3054 71.30071,-16.98287 7.41967,-1.44648 14.8816,-2.6671 22.32239,-4.00065 30.23458,-4.78486 60.7636,-7.82768 91.35964,-8.90553 15.5007,-0.54606 20.62697,-0.31148 35.73528,-0.12053 11.77204,0.30866 23.53813,1.04001 35.23684,2.40421 4.53903,0.5293 9.09273,1.12449 13.51612,2.29088 -6.64341,-1.63357 -7.6217,-1.40112 -14.74739,-8.23253 -2.52311,-2.41891 -3.8573,-5.83047 -5.83284,-8.71394 -0.28193,-0.4115 -0.80322,-1.64752 -0.93678,-1.16693 -0.47684,1.71585 -0.1215,3.55998 -0.22239,5.338 -0.18396,3.24212 -0.42141,6.48098 -0.63212,9.72148 -2.84896,34.96692 -9.81595,69.41717 -16.96355,103.70846 -5.24723,23.93594 -11.4941,47.7009 -19.82886,70.76378 -3.99417,11.05217 -5.20863,13.39926 -9.7193,23.69398 -2.64212,5.30359 -4.39965,9.37477 -7.63507,14.16963 -0.6579,0.97499 -1.32976,1.9917 -2.26347,2.70697 -0.28468,0.21809 -0.1109,-0.79825 0.12473,-1.06858 3.89067,-4.46358 4.52315,-4.13673 9.75451,-6.74594 -0.2979,-0.40615 -0.44134,-0.99692 -0.89369,-1.21844 -2.22892,-1.09155 -4.67135,-1.68337 -6.96543,-2.63033 -7.99027,-3.29828 -17.46137,-7.52456 -24.87439,-11.77727 -12.33177,-7.07453 -12.47434,-8.13039 -23.04954,-17.42312 -40.65743,-34.05104 -88.81288,23.44724 -48.15545,57.49828 v 0 c 6.3283,5.15157 12.35347,10.6997 18.98491,15.45471 11.03336,7.91137 24.24977,14.81648 36.60977,20.4276 9.81957,4.45783 24.00459,10.18148 34.71673,12.36129 6.11875,1.24511 12.40643,1.42773 18.60964,2.14159 6.76159,-1.23203 13.81133,-1.38708 20.28478,-3.6961 22.52123,-8.03312 33.97213,-30.26169 43.53591,-50.30433 5.61003,-12.98969 7.05057,-15.79135 11.986,-29.57312 9.28499,-25.92756 16.33239,-52.60512 22.20374,-79.49362 7.87422,-37.86235 15.45721,-75.91643 18.40558,-114.54009 0.64979,-11.68603 2.26324,-29.67772 -1.52769,-40.83793 -2.07231,-6.10074 -4.524,-12.3032 -8.54382,-17.33852 -9.07287,-11.36487 -14.0963,-12.00634 -25.47957,-16.28569 -21.2667,-4.70881 -43.10378,-5.96639 -64.82685,-6.62932 -17.31892,-0.18553 -22.71025,-0.43668 -40.48092,0.21562 -33.75349,1.23898 -67.42925,4.64446 -100.77523,9.9923 -8.20598,1.48368 -16.43429,2.8487 -24.61793,4.45103 -24.54343,4.80553 -48.81704,10.87538 -72.96344,17.35591 -51.61148,12.19649 -34.36304,85.18615 17.24844,72.98966 z"/>
<path d="m 623.33748,527.32074 c -0.25631,1.04989 -0.4828,2.1075 -0.76893,3.14965 -2.50651,9.1294 -5.69554,18.11772 -8.59962,27.1178 -9.0537,28.05841 -2.90247,9.61656 -13.53453,40.69539 -14.94609,42.60141 -33.05551,84.05308 -53.07083,124.50486 -14.74985,29.81005 -23.15826,44.70825 -39.02912,74.04662 -26.98772,47.0735 -13.30337,24.1241 -40.98332,68.88975 -27.86709,45.12122 35.94396,84.53125 63.81105,39.41002 v 0 c 29.2559,-47.42221 14.85673,-23.22274 43.14637,-72.62879 16.73579,-30.96842 25.21694,-45.97967 40.79428,-77.52455 21.24898,-43.03023 40.4294,-87.13612 56.30075,-132.44145 11.1215,-32.56707 4.77105,-13.49518 13.89767,-41.78509 3.76624,-11.67424 7.82741,-23.29116 10.78734,-35.20579 12.88944,-51.44281 -59.86168,-69.67123 -72.75111,-18.22842 z"/>
</svg>
