<?xml version="1.0" ?>
<svg xmlns="http://www.w3.org/2000/svg" width="1000" height="1000">
<path d="m 235.46592,68.649085 c 0.18883,7.613292 -2.01449,15.119922 -4.17475,22.339472 -2.75156,9.195683 -6.52208,19.796493 -9.60483,28.751603 -7.9769,23.45815 -16.76148,46.65179 -27.24794,69.11321 -5.10923,10.9437 -7.56641,15.40473 -12.98508,25.8014 -18.17176,33.32894 5.41618,-9.79005 -9.26712,16.67061 -1.18516,2.13577 -2.56999,4.18301 -3.47201,6.45291 -1.71795,4.32311 -5.60428,8.77454 -4.36049,13.25712 4.09232,14.74864 8.27174,31.20983 19.56528,41.54063 7.61025,6.9615 20.4206,2.91766 30.63091,4.37649 5.81991,-1.59139 11.70206,-2.97051 17.45972,-4.77416 3.44917,-1.08048 33.245,-11.90419 35.74385,-12.75552 14.27523,-4.86339 28.16454,-9.1662 42.78948,-12.90683 7.55295,-1.93182 15.19077,-3.51517 22.78615,-5.27276 26.44984,-5.54649 53.31407,-9.41058 80.37831,-9.64169 11.25803,-0.0961 14.9222,0.36865 25.60738,1.15468 2.84366,0.34604 5.68732,0.69207 8.53098,1.03811 52.67504,6.15145 61.3745,-68.34231 8.69946,-74.49376 v 0 c -4.01574,-0.45501 -8.03147,-0.91002 -12.04721,-1.36503 -14.21557,-0.93915 -18.71264,-1.49558 -33.60148,-1.28131 -31.85118,0.45839 -63.47898,4.9302 -94.59952,11.54855 -8.70816,2.04419 -17.46425,3.89395 -26.12447,6.13256 -22.55262,5.8297 -44.48156,13.31811 -66.37938,21.1874 -4.5918,1.65012 -9.20908,3.23104 -13.77475,4.95214 -1.64189,0.61893 -3.22787,1.3771 -4.84181,2.06565 5.92636,1.99845 14.09737,0.93961 17.77907,5.99536 43.1681,59.27891 15.85468,23.00732 11.86368,44.66987 -0.32751,1.77768 1.67322,-3.20513 2.55088,-4.78537 13.85686,-24.94949 -5.81274,11.06812 10.62644,-19.16821 6.29572,-12.13466 8.96991,-16.99076 14.91554,-29.7992 11.37753,-24.51017 21.00655,-49.77403 29.70566,-75.34654 8.35977,-24.38223 17.93287,-49.305153 17.84805,-75.457385 0,-53.033009 -75,-53.033009 -75,0 z"/>
<path d="m 130.12516,456.16494 c 2.30013,-0.77722 4.62033,-1.49738 6.90038,-2.33167 2.89596,-1.05965 5.73859,-2.26029 8.62384,-3.34877 9.88304,-3.72842 15.36132,-5.70867 25.94325,-8.90752 16.30339,-4.92839 24.39425,-6.77063 41.41532,-11.10972 28.46142,-6.91149 57.13047,-12.94468 85.88309,-18.50967 20.81694,-4.02905 39.09559,-7.42049 60.0395,-10.466 9.0929,-1.32222 18.22773,-2.33794 27.34159,-3.50691 30.86721,-3.20027 62.16805,-4.5264 93.10086,-1.26034 2.90469,0.30669 5.78637,0.80186 8.67956,1.20278 1.94579,0.38364 3.89159,0.76728 5.83738,1.15091 52.12231,9.78595 65.96173,-63.92612 13.83942,-73.71207 v 0 c -3.27055,-0.59573 -6.5411,-1.19147 -9.81166,-1.7872 -4.18551,-0.53833 -8.35788,-1.19112 -12.55653,-1.61499 -36.1275,-3.64718 -72.64588,-2.20716 -108.6828,1.63704 -9.90857,1.28448 -19.83941,2.40747 -29.7257,3.85342 -21.79896,3.18829 -41.1662,6.77333 -62.80739,10.96724 -30.0359,5.82074 -59.98276,12.1384 -89.71025,19.38187 -28.39312,7.2749 -56.93904,14.5301 -84.00245,25.99308 -51.172266,13.92476 -31.479682,86.29328 19.69259,72.36852 z"/>
<path d="m 295.373,244.22906 c -2.11487,5.24722 -2.12257,5.03915 -4.23081,11.87965 -4.76924,15.4745 -0.99323,5.04835 -6.72375,22.54181 -4.06522,12.40986 -9.39472,26.91304 -13.73498,38.994 -20.78915,55.74244 -44.65998,110.32112 -71.17088,163.57706 -6.2797,12.61486 -12.83785,25.08919 -19.25678,37.63378 -31.06719,58.34744 -63.73102,115.97873 -100.231084,171.13074 -6.067085,9.16743 -12.38253,18.16806 -18.573795,27.25209 -5.451324,7.71481 -10.902648,15.42962 -16.353972,23.14443 -30.595754,43.31743 30.664345,86.58636 61.260101,43.26893 v 0 c 5.69495,-8.06608 11.38991,-16.13216 17.08486,-24.19824 6.55142,-9.62801 13.23309,-19.16867 19.65425,-28.88404 37.83121,-57.23957 71.74299,-117.01099 103.93422,-177.56489 6.66853,-13.04647 13.48243,-26.01964 20.00559,-39.13939 27.66044,-55.63224 52.55984,-112.6465 74.23533,-170.8757 5.32587,-14.84143 10.01705,-27.52508 14.86424,-42.39207 1.50198,-4.60677 2.86564,-9.2577 4.24741,-13.90194 1.06469,-3.57851 1.89848,-7.22701 3.07711,-10.76962 0.23706,-0.71253 0.5498,-1.39761 0.82469,-2.09642 20.93049,-48.72796 -47.98125,-78.32815 -68.91175,-29.60018 z"/>
<path d="m 362.75351,436.36062 c -10.5297,15.06339 -24.60446,26.83257 -38.35723,38.78725 -5.60794,4.87473 -11.19558,9.77275 -16.79337,14.65912 -39.95269,34.87524 9.36835,91.37688 49.32104,56.50164 v 0 c 5.5754,-4.86686 11.1547,-9.72925 16.7262,-14.60056 5.64228,-4.9332 11.42139,-9.7149 16.91516,-14.81298 14.74542,-13.68339 28.64402,-28.68077 38.82996,-46.12697 24.32978,-47.12284 -42.31198,-81.53034 -66.64176,-34.4075 z"/>
<path d="m 204.0253,514.53031 c 3.47782,29.48305 6.85998,58.96903 9.72385,88.51932 5.04116,55.65071 4.33907,111.58741 2.44738,167.36532 -0.96879,30.12481 -4.38341,60.06766 -9.98285,89.66302 -9.78011,52.12341 63.93352,65.95456 73.71363,13.83115 v 0 c 2.39181,-12.83649 3.27322,-16.8187 5.15081,-30.48684 3.21112,-23.37564 5.13123,-46.90588 6.07582,-70.48001 0.31619,-9.431 0.71426,-18.85962 0.94859,-28.29302 1.23281,-49.62782 0.64628,-99.36968 -3.70418,-148.84514 -2.91666,-30.00667 -6.33409,-59.95077 -9.86957,-89.88957 -6.09226,-52.68192 -80.59574,-44.06615 -74.50348,8.61577 z"/>
<path d="m 262.51151,580.21133 c 18.58139,-4.25096 37.07563,-8.85807 55.86649,-12.1343 5.84401,-1.01892 11.71767,-1.85977 17.57651,-2.78966 23.50802,-3.30794 47.1995,-5.33945 70.94456,-5.54895 12.45095,-0.10986 15.34931,0.14503 27.24849,0.6336 8.56623,0.50467 17.14907,1.13995 25.57776,2.80322 52.15625,9.6034 65.73751,-64.15668 13.58126,-73.76008 v 0 c -11.96909,-2.1292 -24.04693,-3.46982 -36.20142,-3.9848 -13.94612,-0.5318 -17.66319,-0.83407 -32.14444,-0.66689 -27.0585,0.31237 -54.05756,2.63159 -80.83953,6.4633 -6.63145,1.0658 -13.27939,2.03365 -19.89435,3.19739 -19.37039,3.40775 -38.46291,8.06524 -57.61372,12.49159 -51.82779,11.24186 -35.9294,84.53744 15.89839,73.29558 z"/>
<path d="m 333.9436,548.74276 c 1.29871,24.5386 1.88175,49.09094 2.00366,73.66139 -0.33461,40.66627 -1.87734,81.31039 -2.91354,121.96251 -0.59425,21.09209 -0.70274,42.19365 -1.14996,63.28831 -1.11556,53.02127 73.86784,54.59891 74.9834,1.57763 v 0 c 0.43837,-20.98392 0.56001,-41.97416 1.14223,-62.95556 1.05497,-41.41949 2.63698,-82.8309 2.93685,-124.26546 -0.13926,-25.36671 -0.71015,-50.71686 -2.05426,-76.05089 -1.96722,-52.99651 -76.9156,-50.21444 -74.94838,2.78207 z"/>
<path d="m 289.73051,684.78966 c 16.4494,-6.66694 33.88396,-10.02328 51.29362,-13.02924 27.76071,-4.28418 55.85799,-5.6897 83.91297,-6.00007 9.96717,-0.0985 19.90677,0.48535 29.76869,1.89606 52.5536,7.11472 62.61534,-67.20729 10.06174,-74.32202 v 0 c -13.50417,-1.76724 -27.07927,-2.77631 -40.714,-2.56884 -32.09527,0.39849 -64.2343,2.07215 -95.9733,7.12027 -5.43152,0.96292 -10.88375,1.81552 -16.29456,2.88875 -16.66026,3.30455 -33.08469,7.84843 -48.92612,13.99402 -49.51238,19.00064 -22.64142,89.02171 26.87096,70.02107 z"/>
<path d="m 278.54956,772.93577 c 17.46787,-2.25353 34.88517,-4.8108 52.40033,-6.71381 28.51195,-2.97912 57.06659,-5.45184 85.71864,-6.47183 12.77659,-0.42014 25.55325,-0.15127 38.31852,0.41235 52.98317,2.29857 56.23384,-72.63095 3.25066,-74.92952 v 0 c -14.75457,-0.6305 -29.5222,-0.93196 -44.28843,-0.43351 -30.46268,1.12366 -60.82987,3.66121 -91.14295,6.86594 -16.78681,1.84223 -33.51705,4.05922 -50.22466,6.50819 -52.86485,4.21994 -46.89696,78.98213 5.96789,74.76219 z"/>
<path d="m 268.99079,895.97389 c 22.45397,-3.97015 45.10383,-6.69843 67.72419,-9.51594 42.88279,-5.62155 85.90132,-10.0233 128.99627,-13.62735 52.84824,-4.42314 46.59297,-79.16183 -6.25526,-74.73869 v 0 c -44.1028,3.69396 -88.12881,8.19237 -132.01544,13.94169 -15.44806,1.92596 -21.7943,2.6658 -36.8703,4.73381 -12.03626,1.65105 -24.16004,3.25787 -36.07,5.7051 -2.35344,0.48358 -4.67744,1.10074 -7.01616,1.65111 -50.80582,15.20753 -29.29911,87.05781 21.5067,71.85027 z"/>
<path d="m 539.2177,465.07985 c 18.00463,-6.50785 35.94655,-13.28315 54.36724,-18.55292 6.94767,-1.98759 13.96989,-3.70466 20.95484,-5.55698 42.84994,-10.37966 86.55241,-16.94936 130.37604,-21.53731 8.04195,-0.84192 16.10152,-1.50615 24.15228,-2.25923 27.33654,-2.13541 54.88778,-3.97312 82.23565,-1.12016 2.96814,0.77188 6.5165,0.60606 9.37345,1.95946 0.21803,0.10329 -0.47611,-0.0886 -0.70415,-0.16733 -0.72758,-0.25126 -1.43885,-0.54745 -2.15828,-0.82118 -6.98582,-3.08889 -10.97271,-7.86136 -15.08588,-14.0045 -0.54962,-0.82088 -0.42349,-2.31986 -1.36045,-2.63296 -0.74472,-0.24886 0.29199,1.54318 0.41837,2.31815 0.31799,1.94988 0.60977,3.90395 0.91465,5.85593 3.20491,25.73681 3.74763,51.79251 3.03058,77.69997 -0.20683,7.47267 -0.65681,14.93663 -0.98522,22.40495 -2.82293,41.99314 -9.63864,83.69558 -19.84286,124.52075 -1.97407,7.89789 -4.23781,15.72055 -6.35672,23.58082 -9.44368,31.24336 -19.70477,62.43927 -33.60025,92.03587 -1.76858,3.76697 -3.71936,7.44568 -5.57905,11.16852 -3.59517,6.27507 -6.87668,12.95686 -11.75748,18.39209 -0.44817,0.49908 -0.95702,1.60758 -1.5465,1.28751 -0.54971,-0.29847 0.54333,-1.1791 1.03577,-1.56481 1.87339,-1.46738 3.97768,-2.61328 5.96653,-3.91992 2.16413,-0.6669 4.64028,-0.69768 6.49241,-2.0007 0.58404,-0.41088 -0.93146,-1.12691 -1.55688,-1.47155 -2.82095,-1.55455 -5.85352,-2.6958 -8.70912,-4.18574 -4.65504,-2.42881 -9.28765,-4.9079 -13.81533,-7.5666 -17.42096,-10.22975 -20.45612,-12.83198 -37.71144,-24.7612 -6.67033,-5.24052 -13.34066,-10.48104 -20.01099,-15.72156 -41.79025,-32.65079 -87.96545,26.44956 -46.17519,59.10035 v 0 c 7.88876,6.13452 15.77753,12.26904 23.66629,18.40356 7.72243,5.29409 15.3154,10.78217 23.16729,15.88226 11.88523,7.7199 27.38718,16.91093 40.34452,23.16591 9.8574,4.75853 24.28534,10.92939 35.40555,11.96026 6.81968,0.6322 13.68198,-0.65917 20.52297,-0.98875 5.39642,-2.33248 11.08354,-4.08311 16.18926,-6.99745 3.57127,-2.03847 6.60281,-4.92986 9.61352,-7.73075 11.06447,-10.29332 18.82794,-24.93234 26.06641,-37.95382 2.31707,-4.697 4.73981,-9.34332 6.9512,-14.09099 15.4426,-33.15408 27.03063,-67.99977 37.47477,-102.9931 2.33602,-8.73095 4.83101,-17.42091 7.00805,-26.19285 11.24087,-45.2927 18.68177,-91.55658 21.68793,-138.13371 0.35039,-8.30612 0.83365,-16.60769 1.05119,-24.91835 0.79392,-30.33117 0.006,-60.83499 -4.07857,-90.92493 -1.56769,-8.8829 -2.86432,-19.09956 -7.16778,-27.21751 -4.67256,-8.81422 -10.83765,-15.34534 -19.83784,-19.7159 -1.49756,-0.63843 -2.9728,-1.332 -4.49267,-1.9153 -8.44133,-3.23961 -17.5384,-4.5232 -26.42945,-5.77709 -9.40815,-0.90377 -11.66519,-1.25157 -21.66672,-1.59065 -25.02467,-0.84838 -50.0653,0.66403 -74.99866,2.67142 -8.57869,0.80831 -17.16681,1.52199 -25.73605,2.42492 -47.44765,4.99951 -94.75021,12.2156 -141.11694,23.57854 -7.9962,2.1451 -16.03426,4.13985 -23.9886,6.4353 -20.07328,5.79272 -39.65915,13.12647 -59.27462,20.27533 -49.40126,19.28771 -22.12433,89.15164 27.27693,69.86393 z"/>
<path d="m 639.47788,177.92989 c 0.0687,35.99425 -3.70687,71.86678 -7.41628,107.62385 -5.84365,55.4056 -14.9315,110.38493 -25.72464,165.0247 -3.23071,16.35531 -6.5196,32.70154 -10.11958,48.97956 -3.65643,16.53322 -7.76504,32.96319 -11.64757,49.44479 -14.99026,62.83502 -36.00861,123.95297 -56.27353,185.21282 -16.65537,50.34976 54.54994,73.90402 71.20532,23.55426 v 0 c 20.95792,-63.35822 42.613,-126.59371 58.07484,-191.59055 4.0305,-17.15169 8.29211,-34.2507 12.0915,-51.45506 3.69174,-16.71694 7.06732,-33.50315 10.37978,-50.29936 11.17579,-56.66825 20.55446,-113.69357 26.61554,-171.15154 4.02712,-39.01152 8.08798,-78.15926 7.78557,-117.43065 -1.47585,-53.01247 -76.44681,-50.92529 -74.97095,2.08718 z"/>
</svg>
