<?xml version="1.0" ?>
<svg xmlns="http://www.w3.org/2000/svg" width="1000" height="1000">
<path d="m 301.01481,33.756695 c -17.68407,27.74138 -41.31424,51.075345 -63.75674,74.903545 -36.89922,38.40501 -74.28029,76.35691 -112.28234,113.67214 -9.81719,10.31479 -21.04705,19.29621 -30.526856,29.9445 -1.457744,1.63743 -4.32467,2.8873 -4.183266,5.07503 1.168955,18.08548 5.324896,35.85317 7.987344,53.77975 11.268098,1.9809 22.398398,5.04853 33.804288,5.94269 3.45441,0.2708 6.72744,-1.66337 10.08952,-2.50167 4.15771,-1.03669 8.31141,-2.08944 12.46983,-3.12331 10.42122,-2.59091 26.76262,-6.64776 36.80274,-8.91358 8.03687,-1.81373 16.10931,-3.46603 24.16396,-5.19905 47.88638,-9.56043 96.30095,-17.09184 145.11511,-19.6468 8.88113,-0.46484 17.77866,-0.53083 26.66799,-0.79625 20.06924,0.009 40.17072,0.84365 60.05795,3.67215 4.02617,0.57263 8.01146,1.40298 12.01719,2.10446 52.27954,8.90784 64.87713,-65.02659 12.59759,-73.93443 v 0 c -5.35912,-0.89418 -10.69409,-1.94754 -16.07734,-2.68253 -23.49828,-3.20824 -47.22897,-4.22068 -70.9283,-4.12336 -9.94698,0.32078 -19.90324,0.42601 -29.84093,0.96233 -52.27442,2.82116 -104.13114,10.8425 -155.41093,21.12795 -27.3633,5.90702 -21.6364,4.47933 -46.73418,10.55919 -4.68049,1.13383 -23.43274,5.79317 -29.31725,7.28951 -2.07716,0.52819 -8.15729,0.71321 -6.21985,1.62966 8.0547,3.81001 17.0938,5.03782 25.6407,7.55674 2.07437,17.48708 4.33347,34.95324 6.22312,52.46125 0.0231,0.2141 -0.66148,0.54593 -0.5195,0.38402 2.53539,-2.89128 6.12405,-6.26833 8.69746,-8.75802 2.88013,-2.78643 5.77921,-5.5532 8.66881,-8.32979 3.76857,-3.65656 7.53713,-7.31311 11.3057,-10.96966 38.69544,-38.00639 76.77257,-76.6469 114.33705,-115.7706 12.13658,-12.89468 27.45433,-28.92396 39.16496,-42.31174 12.36246,-14.13297 24.34595,-28.93169 33.96957,-45.117065 1.87234,-3.148966 3.4106,-6.484928 5.1159,-9.727393 20.619,-48.860586 -48.4803,-78.020253 -69.0993,-29.159667 z"/>
<path d="m 96.430995,402.92098 c 10.348595,25.47417 17.334625,52.10325 23.843635,78.76092 5.78912,24.9094 9.14832,50.27292 11.74239,75.684 5.41439,52.7559 80.02249,45.0988 74.6081,-7.6571 v 0 c -2.97409,-28.84175 -6.86616,-57.62042 -13.50626,-85.87956 -1.71638,-6.98012 -3.33138,-13.98596 -5.14914,-20.94037 -6.05508,-23.16552 -13.21223,-46.0787 -22.10394,-68.31945 -20.04758,-49.09781 -89.482367,-20.74624 -69.434785,28.35156 z"/>
<path d="m 231.06107,421.68512 c 16.72651,-6.14774 33.59775,-11.93671 50.8672,-16.38549 5.64043,-1.45304 11.33176,-2.70084 16.99764,-4.05126 27.71386,-5.81547 56.06732,-9.03018 84.40421,-9.03482 4.07027,-6.7e-4 8.13816,0.19622 12.20724,0.29434 10.74059,0.91477 21.95886,1.07167 32.32248,4.45525 -1.99541,-0.14947 -6.62755,-3.03123 -7.44049,-3.7227 -7.53537,-6.40953 -9.72313,-9.94342 -13.19201,-19.07203 0.73929,22.79563 -0.18908,45.65328 -2.47748,68.34352 -0.70879,7.02783 -1.659,14.02922 -2.48849,21.04383 -3.7871,26.30794 -7.54338,52.85184 -16.08187,78.13222 -3.80446,11.26405 -5.9592,15.31984 -10.72876,25.72939 -21.79712,48.34651 46.57518,79.17229 68.3723,30.82578 v 0 c 6.56374,-14.73169 9.1035,-19.50196 14.32283,-35.44021 9.61763,-29.36937 14.38233,-60.00311 18.60635,-90.52289 0.91717,-7.89899 1.97038,-15.78337 2.75151,-23.69697 2.69334,-27.28641 3.78956,-54.82805 2.31651,-82.21852 -1.49621,-9.76465 -1.26904,-14.0024 -7.20548,-23.18063 -6.16059,-9.5248 -15.63987,-15.04762 -26.09868,-18.32016 -16.7461,-4.62851 -34.04618,-6.71381 -51.39432,-7.33915 -5.17046,-0.0971 -10.34006,-0.31314 -15.51139,-0.29135 -33.65355,0.1418 -67.30106,4.02529 -100.18779,11.08614 -6.59216,1.59157 -13.21425,3.06394 -19.77649,4.77472 -18.39405,4.79535 -36.43559,10.82946 -54.25436,17.42385 -50.32277,16.73675 -26.65343,87.90389 23.66934,71.16714 z"/>
<path d="m 183.54699,523.11768 c 19.97393,-4.39725 40.2607,-7.04752 60.54782,-9.48454 21.80583,-2.14188 43.68598,-4.16622 65.62041,-4.0866 11.2629,0.0409 13.60315,0.38164 24.30527,1.16304 2.9426,0.32958 5.8852,0.65917 8.8278,0.98875 52.72205,5.73459 60.83199,-68.82565 8.10994,-74.56024 v 0 c -3.91139,-0.41593 -7.82279,-0.83185 -11.73418,-1.24778 -13.76673,-0.92094 -16.59661,-1.32518 -30.89742,-1.33091 -24.47537,-0.01 -48.893,2.16043 -73.22199,4.61451 -23.88571,2.89721 -47.80926,6.02329 -71.25058,11.57534 -51.1722,13.92501 -31.47927,86.29343 19.69293,72.36843 z"/>
<path d="m 184.11897,612.5588 c 24.00396,-6.55555 48.82979,-9.47332 73.47254,-12.45159 30.81679,-3.53243 61.8565,-5.13023 92.87366,-4.87947 16.20837,0.13104 23.6928,0.65218 39.61609,1.43202 5.41303,0.32189 10.82607,0.64377 16.23911,0.96565 52.93993,3.14072 57.38157,-71.72764 4.44165,-74.86836 v 0 c -5.68586,-0.33657 -11.37172,-0.67315 -17.05758,-1.00972 -17.88597,-0.85514 -25.54473,-1.39469 -43.82127,-1.51733 -33.8481,-0.22714 -67.71562,1.56242 -101.34332,5.42543 -29.89955,3.65468 -60.09114,7.27599 -89.01085,16.04906 -50.10156,17.38774 -25.51159,88.24205 24.58997,70.85431 z"/>
<path d="m 261.18752,177.42336 c 2.40979,25.59483 3.69429,51.28141 4.87123,76.95751 1.74431,50.06096 0.58383,100.16165 -0.5368,150.22119 -0.68575,30.63347 -1.44305,61.26531 -2.13504,91.89865 -1.59288,83.62782 -2.87506,167.26198 -4.0807,250.89634 -0.7644,53.0275 74.22781,54.10853 74.99221,1.08103 v 0 c 1.20263,-83.43012 2.48191,-166.86003 4.06936,-250.28365 0.69296,-30.67839 1.45252,-61.35527 2.13798,-92.03383 1.15579,-51.72923 2.32454,-103.50123 0.47356,-155.23056 -1.30014,-28.0984 -0.87026,-22.10066 -2.56078,-47.56728 -0.7684,-11.5755 -1.39068,-23.23828 -2.8193,-34.7604 -0.24541,-1.97935 -0.58299,-3.94619 -0.87449,-5.91928 -10.42295,-51.99867 -83.96018,-37.25839 -73.53723,14.74028 z"/>
<path d="m 222.8716,695.51621 c 17.41543,-2.33883 34.93076,-3.66342 52.46362,-4.71214 25.33965,-1.57967 50.66804,0.18141 75.83425,3.08766 52.68682,6.04973 61.24243,-68.46068 8.55562,-74.51041 v 0 c -9.02288,-1.03086 -15.04224,-1.78805 -24.31223,-2.52122 -21.48189,-1.69902 -43.07194,-2.06938 -64.59354,-0.91995 -18.50808,1.12491 -37.00899,2.4699 -55.39391,4.94662 -52.77099,5.26525 -45.32479,79.8947 7.44619,74.62944 z"/>
<path d="m 176.47538,819.69388 c 33.23583,-8.54449 66.69987,-16.12009 100.1732,-23.66488 10.67195,-2.39739 21.34763,-4.77825 32.01586,-7.19215 28.26842,-6.3963 39.61865,-8.92067 67.80156,-15.89619 23.66922,-5.85835 42.75409,-10.93004 66.31087,-17.08972 51.30762,-13.41748 32.33243,-85.9774 -18.97518,-72.55992 v 0 c -22.85344,5.97707 -41.97456,11.05681 -64.91769,16.7396 -27.71871,6.86566 -38.73703,9.31222 -66.65814,15.62992 -10.68597,2.4179 -21.37938,4.80274 -32.06907,7.20412 -34.32839,7.73823 -68.64478,15.51999 -102.72833,24.2881 -51.29432,13.46821 -32.2474,86.00933 19.04692,72.54112 z"/>
<path d="m 549.88612,422.78032 c 2.38816,-0.69439 4.77893,-1.37989 7.16449,-2.08319 14.33934,-4.22744 28.64879,-8.18397 43.26865,-11.37785 20.06814,-4.38411 26.32729,-5.25606 46.99821,-8.89191 32.9529,-5.06207 66.24582,-8.09514 99.58745,-8.68373 16.00595,-0.28256 21.30371,0.0908 36.68712,0.63572 10.22221,0.56659 20.45793,1.34153 30.5462,3.15107 2.96715,0.53222 6.0294,1.14527 8.84815,2.25896 -1.59489,-0.18064 -4.35021,-1.87799 -5.26824,-2.63509 -6.95216,-5.73337 -8.75219,-7.87796 -12.51044,-16.7108 -0.89523,-2.10401 -1.02512,-4.45671 -1.53767,-6.68507 -1.50258,22.41244 -2.25654,44.90676 -3.38151,67.3514 -2.30981,42.73547 -6.38494,85.3742 -12.16295,127.78016 -1.19536,8.77295 -2.54745,17.52383 -3.82118,26.28575 -4.8315,30.30655 -10.07174,60.60816 -17.911,90.30639 -3.87514,14.6806 -5.0335,17.54658 -9.59919,31.40919 -1.49829,3.94445 -2.90676,7.92419 -4.49485,11.83334 -2.78727,6.861 -5.8518,14.20574 -10.19461,20.28822 -0.44098,0.61763 -0.8019,1.81269 -1.54728,1.67011 -0.66128,-0.12649 0.62956,-1.19029 0.94434,-1.78544 2.24419,-6.17527 9.59562,-4.21586 13.3908,-7.69407 0.7044,-0.64558 -1.33121,-1.42454 -2.18266,-1.8581 -3.89438,-1.98304 -8.02885,-3.46017 -11.97001,-5.34853 -20.41512,-9.78165 -19.57348,-9.82919 -40.29521,-21.67128 -6.9339,-4.74647 -13.86781,-9.49294 -20.80171,-14.23941 -43.90015,-29.7536 -85.9781,32.33058 -42.07795,62.08419 v 0 c 8.60856,5.78753 17.21712,11.57506 25.82567,17.3626 20.04282,11.33415 27.67332,16.28306 48.1858,25.56163 20.75719,9.38926 40.59279,17.41821 63.74388,10.6352 5.86242,-1.71762 10.70818,-5.88281 16.06228,-8.82422 2.97623,-2.96545 6.17454,-5.72356 8.92869,-8.89633 4.08155,-4.70192 8.60856,-12.23337 11.52672,-17.67153 6.54031,-12.18826 11.59682,-25.1187 16.23732,-38.12286 5.33941,-16.4083 6.66699,-19.71783 11.17613,-36.93697 8.38527,-32.02099 14.10524,-64.66024 19.27509,-97.32915 1.33342,-9.2004 2.74864,-18.38932 4.00024,-27.6012 6.01908,-44.30071 10.2596,-88.84353 12.66776,-133.48631 0.85401,-17.06617 1.55916,-34.13744 2.3949,-51.20415 0.28477,-5.8152 0.74659,-11.62292 0.9094,-17.44281 0.0669,-2.39036 0.015,-4.78256 0.0225,-7.17383 -0.60919,-3.76148 -0.58491,-7.68227 -1.82758,-11.28444 -5.52823,-16.02491 -15.50948,-23.78836 -30.51137,-29.28936 -19.43796,-6.05091 -39.75117,-8.09938 -60.02827,-9.04348 -17.76528,-0.58808 -23.46692,-0.99047 -41.93208,-0.6315 -36.81186,0.71563 -73.56547,4.10963 -109.93826,9.7769 -8.89049,1.57358 -17.80255,3.02984 -26.67147,4.72074 -26.13577,4.98289 -52.0189,11.18418 -77.41913,19.12258 -51.17223,13.9249 -31.47944,86.29336 19.69279,72.36846 z"/>
<path d="m 629.61324,180.78646 c -0.69738,40.69747 -5.48511,81.16496 -10.21479,121.54444 -7.2814,59.28505 -15.88644,118.44948 -28.20967,176.92186 -9.4491,44.83494 -13.77435,59.38741 -25.35822,104.11716 -14.23526,51.9108 -31.73719,102.82965 -48.73595,153.87408 -16.75502,50.31669 54.40352,74.01187 71.15855,23.69518 v 0 c 17.53586,-52.66592 35.56431,-105.21106 50.18786,-158.7884 12.13732,-46.98148 16.48338,-61.55033 26.39077,-108.69567 12.67009,-60.2919 21.55778,-121.28841 29.05896,-182.41232 5.05293,-43.26999 10.11434,-86.64362 10.72249,-130.25633 0,-53.03301 -75,-53.03301 -75,0 z"/>
<path d="m 92.482222,900.71243 c 8.580468,13.06673 16.533678,26.55273 25.637698,39.27245 3.1707,4.42995 6.53041,8.72154 9.79561,13.08231 13.20569,16.00204 6.66891,8.37679 19.55764,22.92081 35.23473,39.636 91.28852,-10.1934 56.0538,-49.82942 v 0 c -10.44747,-11.70779 -5.21016,-5.65042 -15.68776,-18.19297 -2.58753,-3.4154 -5.2574,-6.76995 -7.7626,-10.24618 -8.47301,-11.75722 -15.76376,-24.30325 -23.75936,-36.37817 -27.83962,-45.13818 -91.674649,-5.76701 -63.835028,39.37117 z"/>
<path d="m 297.38507,867.63116 c 8.42393,10.53468 16.24209,21.52811 24.59075,32.12217 6.48247,8.22594 13.10812,16.33811 19.63012,24.53273 11.86985,15.24278 6.06995,7.76035 17.40364,22.44426 32.40482,41.98127 91.77531,-3.84605 59.3705,-45.82733 v 0 c -11.6968,-15.15269 -5.66765,-7.37655 -18.09322,-23.32399 -6.28268,-7.89271 -12.66692,-15.70452 -18.91728,-23.62285 -8.26556,-10.47132 -15.97919,-21.35955 -24.32132,-31.77061 -32.13491,-42.18825 -91.79809,3.25737 -59.66319,45.44562 z"/>
<path d="m 506.7867,868.45713 c 0.90824,1.54492 1.79115,3.10502 2.72473,4.63477 6.29451,10.31403 3.25466,4.88651 9.96502,16.14895 2.18363,3.66493 10.98151,18.96104 12.87333,22.00458 2.88771,4.64574 5.97096,9.16704 8.95644,13.75056 4.03712,5.17873 8.07424,10.35745 12.11135,15.53618 32.92465,41.57485 91.72036,-4.98763 58.79572,-46.56248 v 0 c -2.72557,-3.3607 -5.45114,-6.7214 -8.1767,-10.0821 -2.33513,-3.53559 -4.76754,-7.00883 -7.00539,-10.60679 -2.37982,-3.82622 -4.56541,-7.76989 -6.84275,-11.65798 -5.83468,-9.96146 -11.74946,-19.86646 -17.87464,-29.65128 -25.7992,-46.33466 -91.32631,-9.84908 -65.52711,36.48559 z"/>
<path d="m 797.0727,870.69881 c -0.38923,0.74222 -0.26371,-1.9585 -0.8868,-1.75505 -0.69117,0.22567 -0.11932,1.44949 -0.20106,2.17196 -0.20771,1.83569 -0.26456,3.69892 -0.66724,5.50191 -1.40538,6.29261 -3.64905,10.60925 -6.23062,16.68017 -7.26233,13.49543 -17.53554,24.96432 -27.27313,36.66816 -33.78494,40.87882 24.02643,88.65794 57.81138,47.77912 v 0 c 14.79063,-17.99297 29.91103,-35.88509 39.42685,-57.43091 2.37573,-6.47739 5.20468,-12.8061 7.12717,-19.43216 5.52833,-19.05395 7.18872,-40.23112 0.10109,-59.0848 -20.43651,-48.93719 -89.64416,-20.0356 -69.20764,28.9016 z"/>
</svg>
