<?xml version="1.0" ?>
<svg xmlns="http://www.w3.org/2000/svg" viewBox="0 0 1000 1000">
<path d="m 213.93178,241.00531 c 19.44557,-2.59999 38.53727,-7.26678 57.75966,-11.09037 7.77488,-1.54652 15.57068,-2.98589 23.35602,-4.47883 56.06804,-9.86832 112.77272,-15.71514 169.51327,-20.02051 13.25096,-1.00546 26.51527,-1.82663 39.77291,-2.73994 50.2109,-3.19526 100.5563,-4.69872 150.86355,-3.42789 23.59649,0.59609 36.71027,1.50693 59.91722,2.81763 20.85309,1.21101 41.65172,3.13238 62.44247,5.10745 52.79589,5.00942 59.88028,-69.65524 7.08439,-74.66466 v 0 c -21.74679,-2.06101 -43.50213,-4.06177 -65.31384,-5.32436 -24.72385,-1.38592 -37.953,-2.30892 -63.16394,-2.92983 -52.35132,-1.28934 -104.741,0.26777 -156.99137,3.59948 -13.60978,0.94011 -27.22649,1.7848 -40.82934,2.82032 -59.39752,4.52162 -118.75122,10.70549 -177.43338,21.10693 -8.15428,1.56664 -16.31899,3.07994 -24.46284,4.69993 -17.44621,3.47045 -34.77125,7.73249 -52.40522,10.17965 -52.56985,6.99359 -42.67942,81.3386 9.89044,74.345 z"/>
<path d="m 342.0918,382.08221 c 26.03515,-5.19213 52.43581,-8.34997 78.77415,-11.54319 49.34622,-5.64563 98.93977,-8.97733 148.58181,-10.44649 9.51844,-0.28169 19.04102,-0.40028 28.56152,-0.60043 33.50965,-0.64048 67.01664,0.2439 100.50237,1.42919 52.9999,1.87361 55.6496,-73.07957 2.64969,-74.95318 v 0 c -34.8984,-1.23218 -69.81911,-2.13316 -104.74204,-1.45915 -9.93684,0.21244 -19.87584,0.34045 -29.81051,0.63733 -51.71564,1.54538 -103.37937,5.0449 -154.78546,10.93985 -28.47559,3.46432 -57.01267,6.91484 -85.14911,12.59786 -51.90037,10.90187 -36.4828,84.30008 15.41758,73.39821 z"/>
<path d="m 373.76919,287.83491 c 1.17178,21.20425 1.45595,42.44497 1.79197,63.67488 0.24239,17.49748 0.36158,34.99624 0.48033,52.49487 0.36012,53.03179 75.35839,52.5225 74.99827,-0.50929 v 0 c -0.12045,-17.72549 -0.24149,-35.45111 -0.48804,-53.17543 -0.36192,-22.75564 -0.66239,-45.52613 -2.00443,-68.25004 -4.07648,-52.87611 -78.85459,-47.11109 -74.7781,5.76501 z"/>
<path d="m 563.65349,259.13814 c 1.50016,5.58455 1.86418,11.37276 2.01653,17.13178 0.29558,11.17355 0.12429,18.65449 -0.94673,30.0063 -0.62755,6.65148 -1.59686,13.26628 -2.39529,19.89942 -2.46984,16.7967 -4.28585,30.83423 -7.75645,47.50232 -1.65872,7.96628 -3.76585,15.83258 -5.64877,23.74887 -12.1528,51.62179 60.85144,68.80845 73.00424,17.18666 v 0 c 2.16014,-9.25755 4.56104,-18.4622 6.48042,-27.77264 3.78912,-18.38006 5.71442,-33.43824 8.41219,-51.94761 0.9271,-8.11145 2.08429,-16.1999 2.78129,-24.33436 2.02653,-23.65106 2.18071,-48.03567 -3.60135,-71.19561 -13.98294,-51.1564 -86.32902,-31.38154 -72.34608,19.77487 z"/>
<path d="m 440.03162,411.29083 c -2.20719,22.9862 -6.90738,45.68929 -11.23913,68.34719 -10.46078,46.89267 -25.38089,92.7496 -44.04987,137.0133 -4.0911,9.69989 -8.5877,19.22371 -12.88155,28.83557 -17.5049,34.53513 -8.74691,17.971 -26.16764,49.74847 -25.45744,46.52331 40.33646,82.52556 65.7939,36.00225 v 0 c 19.14236,-35.04179 9.46642,-16.65743 28.88246,-55.22935 4.69438,-10.56325 9.60589,-21.03265 14.08313,-31.68974 20.4378,-48.64775 36.68711,-99.07065 48.00858,-150.61362 4.01124,-21.03146 4.30828,-21.91442 7.63847,-41.69761 2.26771,-13.47141 4.57273,-27.02936 4.93165,-40.71646 0,-53.03301 -75,-53.03301 -75,0 z"/>
<path d="m 312.82982,574.94844 c 16.01705,-3.35768 31.89825,-7.33198 47.89315,-10.78678 7.0845,-1.5302 14.1944,-2.9404 21.2916,-4.41061 50.55597,-9.84602 101.62239,-17.01883 152.91038,-21.73265 11.10345,-1.0205 22.22924,-1.78131 33.34386,-2.67197 38.7128,-2.46837 77.57831,-3.21937 116.31096,-0.73652 19.103,1.22454 22.6455,1.89253 40.66664,4.086 17.1951,3.00741 9.27598,1.36557 23.79847,4.72289 51.72965,11.68518 68.25498,-61.47159 16.52533,-73.15677 v 0 c -19.60618,-4.35402 -9.16145,-2.28262 -31.37021,-6.02975 -20.4318,-2.43062 -24.67961,-3.20387 -46.13955,-4.54156 -41.89771,-2.61167 -83.93416,-1.82093 -125.80495,0.89716 -11.69114,0.94376 -23.39395,1.75274 -35.07343,2.83127 -53.80366,4.96849 -107.37207,12.53398 -160.4033,22.89574 -7.55608,1.56991 -15.12492,3.07965 -22.66825,4.70974 -16.17149,3.4946 -32.23128,7.50065 -48.42255,10.90903 -51.62924,12.12113 -34.48739,85.1359 17.14185,73.01478 z"/>
<path d="m 409.37101,639.84451 c 4.60145,15.52763 9.17465,31.08912 13.5986,46.67645 7.18028,25.69608 13.36615,51.68086 18.0353,77.95273 9.33107,52.20566 83.16103,39.00954 73.82996,-13.19612 v 0 c -5.15757,-28.71879 -11.82368,-57.15133 -19.71713,-85.24191 -5.06566,-17.83399 -3.1975,-11.43333 -8.06325,-27.93795 -2.63184,-8.92721 -5.04715,-18.01112 -8.3913,-26.7105 -0.67102,-1.74557 -1.49343,-3.42911 -2.24015,-5.14367 -23.75947,-47.41295 -90.8115,-13.81198 -67.05203,33.60097 z"/>
<path d="m 487.54362,663.36589 c -1.86201,2.32111 -3.72403,4.64221 -5.58604,6.96332 -0.22024,0.31465 -1.04453,0.92971 -0.66072,0.94396 0.9817,0.0364 1.88132,-0.5667 2.81767,-0.86386 2.4758,-0.78573 4.92161,-1.66924 7.41861,-2.38474 9.89187,-2.83443 13.2418,-3.33782 23.80885,-5.59423 21.79931,-4.30578 43.82341,-7.53104 65.98126,-9.26889 13.46099,-1.05575 16.77624,-0.99109 29.89734,-1.35534 14.8749,-0.19168 29.77066,0.6372 44.47403,2.9208 0.59138,0.10097 3.6595,0.61788 4.45879,0.77723 0.92718,0.18484 -1.86391,-0.357 -2.75599,-0.67008 -1.46396,-0.51378 -3.05184,-0.85231 -4.30734,-1.76382 -4.38671,-3.18481 -8.3211,-6.95013 -12.48166,-10.42519 -23.53443,20.2538 -0.96184,-16.49908 -6.81509,-16.20701 -1.15154,0.0575 -0.29287,2.28727 -0.43789,3.43109 -0.34926,2.75472 -0.6391,5.51756 -1.04495,8.26452 -1.77728,12.02918 -2.06117,12.34643 -4.72279,24.97919 -4.08747,16.89051 -9.62589,33.39378 -15.47039,49.74441 -3.17083,8.87072 -8.69974,24.21965 -13.14341,32.87642 -2.02262,3.94029 -4.67041,7.52694 -7.00561,11.29041 -26.93862,45.68162 37.66495,83.77858 64.60357,38.09696 v 0 c 3.76484,-6.58078 7.89679,-12.96472 11.29451,-19.74234 5.03596,-10.04552 11.41468,-27.56903 15.17329,-38.12841 6.88211,-19.33451 13.31702,-38.87302 17.97933,-58.87816 2.86845,-13.95941 5.66453,-27.8298 7.0566,-42.03006 0.54699,-5.57975 1.44012,-15.89892 -0.0135,-21.26721 -1.56394,-5.77578 -4.55904,-11.06514 -6.83855,-16.59772 -4.5425,-3.99924 -8.77711,-8.37807 -13.62751,-11.99772 -1.73999,-1.29849 -3.92908,-1.86049 -5.96244,-2.62146 -4.70323,-1.76013 -9.70484,-2.42191 -14.62033,-3.27205 -19.18105,-2.89382 -38.58349,-4.09783 -57.983,-3.74781 -15.33985,0.46717 -19.19352,0.40159 -34.87098,1.66628 -25.09541,2.02444 -50.0415,5.69843 -74.72489,10.63238 -15.15273,3.33055 -30.32734,6.53644 -44.79506,12.30724 -6.17371,2.46252 -15.36254,6.64986 -20.58801,11.17911 -3.59173,3.1132 -6.4944,6.94212 -9.7416,10.41317 -28.51734,44.7131 34.71653,85.04271 63.23387,40.32961 z"/>
<path d="m 506.80134,790.86971 c 20.84114,-5.0632 42.41158,-5.54126 63.73942,-6.06479 15.31811,-0.21589 30.61995,0.51384 45.91375,1.24105 52.97408,2.49948 56.50887,-72.41718 3.5348,-74.91666 v 0 c -17.11735,-0.8019 -34.24442,-1.58603 -51.38811,-1.2993 -28.41073,0.76748 -57.18717,1.7988 -84.70415,9.62266 -50.49947,16.19577 -27.59519,87.61281 22.90429,71.41704 z"/>
<path d="m 169.6085,338.11911 c 2.44658,17.14085 3.2833,34.46867 4.18595,51.74313 1.25042,31.13691 1.75845,62.29645 2.97494,93.43479 1.04584,26.77046 1.44571,32.63754 2.86319,59.66648 3.77212,59.30131 6.90213,118.62884 8.74163,178.02193 1.26593,39.17802 1.08149,78.37749 0.6882,117.56703 0.0148,13.21278 -0.55187,26.42805 -0.38275,39.64057 0.5119,9.9402 2.60411,19.52682 9.71132,27.43687 4.47528,4.98079 10.31637,8.77162 16.35682,11.66113 8.103,3.87614 15.10353,2.78226 23.34586,2.39839 2.49513,-0.38159 4.9953,-0.73153 7.48539,-1.14478 8.52045,-1.41402 16.99157,-2.96717 25.55191,-4.15237 11.16192,-1.54538 13.96944,-1.77914 25.57632,-3.08174 38.55702,-3.91243 77.24659,-6.34469 115.9428,-8.36054 49.78725,-2.07462 99.56726,-4.41061 149.38497,-5.60648 48.10011,-1.16985 96.19122,0.6295 144.23488,2.78357 25.3482,1.14318 50.68587,2.3983 75.99289,4.2423 52.89404,3.83677 58.32005,-70.9667 5.42601,-74.80347 v 0 c -25.99758,-1.87784 -52.02324,-3.20466 -78.0629,-4.36371 -49.76406,-2.22686 -99.57736,-4.05752 -149.39921,-2.83689 -50.51804,1.2239 -100.99893,3.56619 -151.48578,5.68663 -40.19447,2.10168 -80.38266,4.63042 -120.42965,8.73002 -19.26701,2.17805 -38.53708,4.50255 -57.5714,8.26885 4.23474,0.35588 8.33732,0.54346 12.32071,2.78962 13.30111,7.50026 14.77652,10.677 20.01864,24.06102 0.88089,2.24907 0.75001,3.28679 0.58985,5.0322 -0.32348,-12.53452 0.58787,-25.09313 0.38955,-37.62926 0.40284,-40.21543 0.57833,-80.44092 -0.72049,-120.64441 -1.8619,-59.9284 -4.99485,-119.79241 -8.80869,-179.62809 -1.3851,-26.35986 -1.78284,-32.21413 -2.80466,-58.32062 -1.23653,-31.59209 -1.73213,-63.20663 -3.03429,-94.79623 -1.05049,-19.77807 -2.06491,-39.6115 -4.95801,-59.22544 -8.08188,-52.41358 -82.20587,-40.98408 -74.124,11.4295 z"/>
</svg>
