<?xml version="1.0" ?>
<svg xmlns="http://www.w3.org/2000/svg" width="1000" height="1000">
<path d="m 275.55847,330.83611 c 32.54036,-6.42425 65.09177,-12.8385 97.90048,-17.77082 12.91397,-1.94143 25.86998,-3.59223 38.80497,-5.38835 78.36633,-9.78711 157.39755,-13.73521 236.34954,-13.66801 14.11791,0.012 28.2333,0.37834 42.34995,0.56752 48.29993,2.10619 24.92042,0.50317 70.15229,4.60383 52.82215,4.7245 59.5036,-69.97729 6.68145,-74.70179 v 0 c -49.42875,-4.36655 -24.14935,-2.68657 -75.84764,-4.89556 -14.71244,-0.18991 -29.42365,-0.56276 -44.13732,-0.56972 -82.14136,-0.0389 -164.35998,4.14301 -245.88463,14.37941 -13.53628,1.88725 -27.09447,3.62348 -40.60884,5.66176 -33.5029,5.05301 -66.75052,11.57679 -99.98121,18.14231 -52.07093,10.05574 -37.84997,83.69516 14.22096,73.63942 z"/>
<path d="m 402.56129,347.44241 c -4.49344,25.56798 -8.79176,51.18512 -16.45821,76.05239 -2.69846,8.75284 -5.9343,17.33088 -8.90145,25.99632 -15.93724,41.4983 -37.17843,80.77132 -60.67685,118.43665 -4.56755,7.32128 -31.0931,47.46725 -35.98019,54.88157 -29.18553,44.27985 33.43563,85.55442 62.62116,41.27457 v 0 c 6.91162,-10.48664 31.66465,-47.91279 37.77135,-57.7367 26.21992,-42.18017 49.74607,-86.23099 67.29028,-132.7658 3.43994,-10.22469 7.18448,-20.35191 10.31984,-30.67407 8.26179,-27.19934 13.1111,-55.16516 17.98914,-83.10821 8.73752,-52.30827 -65.23755,-64.665 -73.97507,-12.35672 z"/>
<path d="m 550.52236,406.86586 c 0,18.50713 0,37.01426 0,55.52139 -0.17979,26.86027 0.10379,53.71381 0.88577,80.56235 0.55424,12.10466 0.71729,24.45703 3.75553,36.27579 0.83322,3.24119 1.67525,6.50945 3.01364,9.57675 1.77343,4.0643 4.18793,7.81767 6.28189,11.7265 3.0335,3.42709 5.743,7.17092 9.10049,10.28128 5.96441,5.5254 13.68381,9.86623 21.28629,12.61296 11.21199,4.05083 23.05129,4.8472 34.8009,5.78214 21.41249,0.89318 42.83642,1.19511 64.23216,2.47868 13.50665,1.01761 27.01161,2.28118 40.42695,4.17463 52.52794,7.30177 62.8542,-66.98395 10.32627,-74.28572 v 0 c -15.37092,-2.11383 -30.82139,-3.66204 -46.29747,-4.75644 -21.00832,-1.24137 -42.03784,-1.69678 -63.06837,-2.40032 -2.30028,-0.15712 -4.60215,-0.29239 -6.90082,-0.47136 -1.5609,-0.12152 -3.11157,-0.41604 -4.67713,-0.43008 -0.2708,-0.002 -0.81317,0.12852 -0.71716,0.38174 0.22298,0.58812 0.93487,0.84465 1.35843,1.30962 1.77433,1.94782 1.95775,2.63372 3.51649,5.23442 0.36817,1.18004 0.84768,2.33096 1.1045,3.54012 0.0255,0.11998 -0.32033,0.0608 -0.364,-0.0538 -0.33335,-0.87489 -0.5295,-1.79999 -0.69354,-2.72175 -1.1993,-6.73884 -1.20297,-13.6315 -1.51694,-20.44211 -0.76317,-26.11974 -1.03033,-52.24421 -0.85388,-78.37544 0,-18.50713 0,-37.01426 0,-55.52139 0,-53.03301 -75,-53.03301 -75,0 z"/>
<path d="m 179.20492,443.81294 c 0.15095,26.06939 1.39699,52.12049 2.22925,78.17429 1.26307,56.92934 0.47246,113.88789 -1.10753,170.80212 -1.3841,39.65356 -2.89912,79.30188 -3.88102,118.96801 -0.24467,11.16664 -0.48223,22.33448 -0.52419,33.50408 0.28071,8.37625 1.44034,17.32455 7.07353,24.20378 4.78459,5.84291 11.10466,10.43165 17.63828,14.21896 5.45523,3.16219 14.28635,3.24154 20.5488,3.65516 2.69517,0.004 5.39091,0.0668 8.08552,0.0117 12.26105,-0.25094 24.52828,-1.16742 36.75844,-1.99947 6.03757,-0.41075 32.37982,-2.28314 37.35962,-2.63618 55.52517,-4.10558 111.09178,-7.5642 166.70093,-10.29306 65.7536,-2.92767 131.5535,-4.75125 197.36865,-5.34449 35.34872,-0.25839 70.67554,1.00516 105.97943,2.61044 52.97853,2.40316 56.37711,-72.5198 3.39858,-74.92296 v 0 c -36.66297,-1.65921 -73.34968,-2.95978 -110.05876,-2.68439 -66.81478,0.61059 -133.61441,2.4489 -200.36649,5.43166 -56.15105,2.75933 -112.25985,6.2435 -168.32623,10.39057 -24.56347,1.74147 -49.13519,3.8513 -73.75633,4.50212 -3.08812,0.91831 1.75102,-0.64451 6.16651,2.47879 15.08358,10.66936 15.053,10.84177 20.10107,26.35547 0.4575,1.40597 0.37687,2.86031 0.32796,4.29385 0.037,-10.64196 0.27333,-21.28217 0.50174,-31.92134 0.97865,-39.59245 2.50121,-79.16674 3.87523,-118.74685 1.61296,-58.40456 2.42417,-116.85444 1.09798,-175.27392 -0.80771,-25.2554 -2.01281,-50.50843 -2.19097,-75.7783 0,-53.03301 -75,-53.03301 -75,0 z"/>
</svg>
