<?xml version="1.0" ?>
<svg xmlns="http://www.w3.org/2000/svg" viewBox="0 0 1000 1000">
<path d="m 534.64198,135.89015 c -11.85846,12.61012 -25.37515,23.47937 -38.73826,34.42194 -37.39206,29.60955 -75.77153,57.94938 -114.67508,85.53368 -23.27972,16.04458 -47.06022,31.34035 -70.78529,46.71185 -44.5071,28.83779 -3.7243,91.78033 40.7828,62.94254 v 0 c 24.60528,-15.94354 49.26637,-31.81149 73.39185,-48.47953 40.31837,-28.60523 80.11087,-57.97187 118.83639,-88.70911 15.23533,-12.50421 30.59109,-24.98 44.16105,-39.32889 37.54206,-37.45789 -15.43141,-90.550378 -52.97346,-53.09248 z"/>
<path d="m 177.73871,517.0996 c 14.96346,-0.62492 29.89879,-1.90263 44.82823,-3.07626 44.50585,-3.30233 88.90597,-7.7011 133.23955,-12.7896 42.47859,-4.89658 84.77199,-11.27071 127.2693,-16.01295 27.00564,-3.01354 38.04412,-3.8425 64.96817,-6.23274 38.79171,-3.146 77.68871,-5.21221 116.60629,-5.8447 20.72049,-0.33674 26.61974,-0.11618 46.84329,0.15359 25.81372,0.39581 51.58182,2.23032 77.11038,6.07434 1.5331,0.26195 3.06619,0.5239 4.59929,0.78586 52.28865,8.85419 64.81038,-65.09313 12.52173,-73.94732 v 0 c -2.00829,-0.33773 -4.01658,-0.67545 -6.02486,-1.01317 -28.88503,-4.29753 -58.02492,-6.47614 -87.22932,-6.89334 -21.6369,-0.27567 -27.60617,-0.50261 -49.76506,-0.13474 -40.4854,0.67211 -80.94852,2.83207 -121.30252,6.11406 -28.15517,2.50596 -39,3.31424 -67.27823,6.47419 -42.36539,4.73413 -84.53065,11.06561 -126.87567,15.96669 -43.4421,4.99221 -86.95043,9.2957 -130.56208,12.53066 -12.97754,1.02088 -25.95652,2.03153 -38.94849,2.84543 -53.033,0 -53.033,75 0,75 z"/>
<path d="m 463.77516,341.22233 c -0.90709,12.46795 -1.02691,24.98089 -1.39204,37.47327 -1.23093,29.83634 -2.79412,59.65758 -4.06644,89.49264 -1.80709,38.83501 -2.74409,77.69454 -3.08086,116.5675 -0.0538,37.64639 -0.33565,75.28753 -1.24055,112.92328 -1.16834,33.19665 -0.21653,66.4168 -0.74585,99.61945 -0.10797,6.77253 -0.3441,13.54241 -0.51614,20.31361 -0.31475,6.83625 -0.6295,13.6725 -0.94424,20.50875 -2.41869,52.97782 72.50327,56.39836 74.92196,3.42053 v 0 c 0.33289,-7.34938 0.66579,-14.69876 0.99868,-22.04814 0.17938,-7.23568 0.42446,-14.47004 0.53815,-21.70705 0.51473,-32.76566 -0.4133,-65.54762 0.72584,-98.30733 0.9112,-38.02024 1.20951,-76.04577 1.25937,-114.07674 0.32594,-38.02328 1.24611,-76.0331 3.01557,-114.01916 1.28596,-30.16975 2.87802,-60.32503 4.10252,-90.49692 0.33002,-11.2994 0.43049,-22.61908 1.20214,-33.89867 4.07648,-52.8761 -70.70162,-58.64112 -74.77811,-5.76502 z"/>
</svg>
