<?xml version="1.0" ?>
<svg xmlns="http://www.w3.org/2000/svg" width="1000" height="1000">
<path d="m 252.72253,482.91594 c -0.11957,0.0852 -0.50083,0.29247 -0.35872,0.2556 1.80951,-0.4695 3.58419,-1.06516 5.38687,-1.56021 8.14423,-2.23659 14.27679,-3.76557 22.77437,-5.73914 19.45328,-4.51803 16.73778,-3.76982 37.5833,-7.72224 8.02753,-1.22283 16.03901,-2.55608 24.08257,-3.6685 18.27042,-2.52678 41.98681,-5.21721 60.12576,-7.07622 22.93477,-2.35052 45.9932,-4.43119 68.99797,-5.9621 11.77991,-0.78393 23.57549,-1.31146 35.36324,-1.96719 44.31159,-2.05457 88.70862,-1.65486 133.01076,0.40887 22.42647,1.04469 31.67749,1.84883 53.67035,3.44018 23.43134,1.81998 46.76483,4.60824 70.03987,7.82176 52.53671,7.23834 62.77327,-67.05979 10.23655,-74.29813 v 0 c -24.88321,-3.42165 -49.82755,-6.39958 -74.87738,-8.32905 -23.15196,-1.66693 -32.64449,-2.49243 -56.28189,-3.58295 -46.62551,-2.15108 -93.34964,-2.52732 -139.98271,-0.34386 -12.33079,0.69201 -24.66975,1.25143 -36.99239,2.07603 -23.71579,1.58699 -47.74673,3.75662 -71.39341,6.18705 -19.09553,1.96265 -44.10738,4.80859 -63.28582,7.49233 -8.93699,1.2506 -17.83708,2.75204 -26.75562,4.12806 -26.61851,5.09715 -53.3318,10.37937 -79.14406,18.78242 -49.25514,19.65784 -21.45475,89.31514 27.80039,69.65729 z"/>
<path d="m 476.24532,154.11806 c 0.33285,15.84197 0.4183,31.68721 0.72369,47.53016 1.03621,31.4956 2.77932,62.95316 3.43813,94.46152 0.32817,38.49178 -0.93685,76.97378 -2.10034,115.44246 -1.32771,41.15981 -2.57975,82.32231 -4.04504,123.47751 -1.75373,43.60878 -2.70595,87.24253 -3.68848,130.87361 -1.3068,49.36323 -0.46346,98.74305 -0.61173,148.11532 -0.15756,53.03278 74.84211,53.2556 74.99967,0.22283 v 0 c 0.14369,-48.88373 -0.68804,-97.77484 0.59305,-146.64966 0.97517,-43.30456 1.91779,-86.61183 3.66002,-129.8942 1.46927,-41.28885 2.72711,-82.58493 4.05824,-123.87841 1.20193,-39.75151 2.50034,-79.51743 2.1179,-119.29279 -0.67052,-31.46375 -2.34394,-62.87917 -3.43544,-94.32835 -0.32232,-16.61082 -0.36062,-33.22589 -0.80367,-49.83367 -2.65424,-52.966546 -77.56025,-49.21287 -74.906,3.75367 z"/>
</svg>
