<?xml version="1.0" ?>
<svg xmlns="http://www.w3.org/2000/svg" width="1000" height="1000">
<path d="m 369.02857,67.920981 c -10.93404,23.45345 -21.55469,47.045889 -33.4667,70.031549 -5.01865,9.6841 -10.27526,19.243 -15.41289,28.86451 -19.24725,36.22064 -40.72503,71.16959 -63.0504,105.55576 -17.52775,26.99673 -30.13449,45.84968 -49.03156,71.75845 -7.85534,10.77005 -16.06083,21.28029 -24.09125,31.92044 -7.6479,9.92779 -15.29579,19.85557 -22.94368,29.78336 -32.36216,42.01417 27.05484,87.78118 59.41701,45.76701 v 0 c 7.8039,-10.1325 15.60781,-20.26501 23.41172,-30.39751 8.49646,-11.27903 17.1771,-22.42164 25.48939,-33.83708 19.43797,-26.69455 33.03776,-46.99031 51.02812,-74.73708 23.34546,-36.00603 45.791,-72.60765 65.9444,-110.51414 5.44866,-10.22411 11.02321,-20.38211 16.34597,-30.67232 12.34492,-23.86577 23.38746,-48.34235 34.72808,-72.688103 21.80353,-48.343625 -46.56468,-79.178472 -68.36821,-30.834846 z"/>
<path d="m 382.87724,233.27596 c 19.44475,-5.05224 38.79407,-10.44819 58.29395,-15.30398 24.08637,-5.62463 48.55733,-9.95667 73.26902,-11.53571 3.34998,-0.21406 6.70792,-0.2768 10.06187,-0.4152 2.63706,0.0178 5.27498,-0.0164 7.91118,0.0534 3.45647,0.0914 6.94792,0.32183 10.38275,0.75742 0.89333,0.11328 1.78276,0.26179 2.66508,0.44168 0.28029,0.0572 1.09676,0.21697 0.81527,0.2679 -0.39776,0.072 -0.79749,-0.13265 -1.19624,-0.19897 -11.77171,-5.52628 -14.72174,-5.27468 -22.10162,-21.04682 -2.21131,-4.72597 -1.63886,-10.32159 -1.96894,-15.52887 -0.0927,-1.46189 2.12048,-4.73104 0.70972,-4.33677 -1.62059,0.45291 -1.29466,3.10662 -1.91081,4.67245 -1.18974,3.02348 -2.33774,6.06322 -3.50662,9.09483 -11.29154,29.63903 -26.76678,57.41968 -44.68274,83.5414 -5.25117,7.65628 -10.8321,15.08108 -16.24815,22.62161 -17.12517,23.18691 -35.54665,45.36336 -53.85601,67.61085 -33.69625,40.95196 24.21856,88.60565 57.91481,47.65369 v 0 c 19.37022,-23.54562 38.84399,-47.02854 56.91952,-71.5994 6.06744,-8.49615 12.33157,-16.85521 18.20232,-25.48844 20.73297,-30.48884 38.57423,-62.92433 51.7465,-97.40414 0.99989,-2.60423 1.97925,-5.21643 2.99965,-7.81269 0.85132,-2.16603 1.87726,-4.26645 2.61531,-6.47364 1.23922,-3.70594 3.06339,-7.34611 3.30991,-11.24598 0.41682,-6.5941 1.06767,-13.62638 -1.34896,-19.77584 -7.18189,-18.27529 -12.19297,-18.69705 -25.83681,-25.88233 -1.94533,-0.56359 -3.86911,-1.20772 -5.83598,-1.69077 -13.37131,-3.28392 -27.3537,-3.17418 -41.01563,-3.15717 -4.3543,0.20279 -8.71378,0.31478 -13.0629,0.60838 -28.69621,1.93718 -57.12274,6.91333 -85.09325,13.49638 -18.67977,4.66156 -37.26352,9.6614 -55.83312,14.73435 -51.86092,11.08809 -36.17999,84.43049 15.68092,73.34241 z"/>
<path d="m 305.13885,440.16597 c 30.7249,-10.09577 62.93795,-14.3607 94.83669,-18.85849 58.30951,-7.35358 117.09682,-10.13626 175.83511,-10.66543 10.88455,-0.0981 21.76998,-0.007 32.65498,-0.0105 25.33541,0.32261 50.67649,1.04929 75.96079,2.74756 7.77856,0.52246 19.09021,1.36978 27.18154,2.68913 2.09131,0.341 4.12914,0.95375 6.19371,1.43062 0.73958,0.34499 1.47915,0.68997 2.21873,1.03496 50.23858,16.98778 74.26293,-54.06031 24.02435,-71.04809 v 0 c -3.63249,-1.13339 -7.26497,-2.26677 -10.89745,-3.40016 -4.14242,-0.82058 -8.25502,-1.80953 -12.42727,-2.46174 -9.45242,-1.47761 -22.79239,-2.50889 -32.05255,-3.12472 -26.70874,-1.7762 -53.47619,-2.54429 -80.23819,-2.86755 -11.30559,0.007 -22.61168,-0.0841 -33.91677,0.0217 -61.82489,0.57905 -123.69719,3.58746 -185.06179,11.39635 -37.96124,5.40593 -76.39076,10.65713 -112.65476,23.67802 -49.10032,20.04144 -20.75743,89.47977 28.34288,69.43832 z"/>
<path d="m 276.78514,453.98928 c -2.67935,29.00717 -11.14717,57.14393 -19.08036,85.03958 -3.50804,11.00127 -6.85507,22.05519 -10.52413,33.00382 -8.8709,26.47111 -18.26273,52.00262 -28.34186,78.05883 -11.69116,30.22359 -22.05961,55.67009 -35.16317,85.35223 -6.24985,14.15713 -12.86323,28.15097 -19.29485,42.22645 -17.07473,34.34018 -21.98581,45.21112 -40.42987,78.44747 -6.43894,11.60304 -12.9401,23.18112 -19.90797,34.47445 -6.216608,10.07572 -13.084425,19.73482 -19.626638,29.60223 -29.220458,44.25681 33.368118,85.58076 62.588578,41.32397 v 0 c 7.33513,-11.15099 15.01214,-22.08445 22.00541,-33.45296 7.38036,-11.99777 14.27122,-24.29333 21.09664,-36.61525 19.42038,-35.05958 24.51239,-46.37697 42.49802,-82.62766 6.69052,-14.66231 13.56983,-29.23993 20.07157,-43.98693 13.47895,-30.57242 24.35458,-57.26477 36.37818,-88.38631 10.51547,-27.21792 20.35424,-54.00894 29.59374,-81.67104 3.91238,-11.71328 7.4782,-23.53947 11.2173,-35.3092 2.90899,-10.30705 6.00878,-20.56215 8.72698,-30.92116 4.11987,-15.70079 7.27026,-29.94011 9.99505,-45.79823 1.71062,-9.95573 2.71959,-16.98212 3.0585,-26.75314 0.0925,-2.66572 -0.0674,-5.33422 -0.10104,-8.00132 -4.23852,-52.86336 -78.9986,-46.86919 -74.76008,5.99417 z"/>
<path d="m 389.51985,575.88639 c 26.90026,-7.89814 54.73732,-11.9241 82.39759,-16.10454 33.58362,-4.58398 67.27592,-8.95869 101.16455,-10.49811 4.72207,-0.2145 9.45049,-0.25337 14.17573,-0.38005 9.62264,-0.0391 19.27491,0.13084 28.84103,1.27457 3.0099,0.35986 6.29287,0.75532 9.12336,1.96392 -5.20198,-1.12671 -10.28453,-5.22783 -13.33276,-9.40409 -2.02632,-2.77618 -3.37773,-5.99861 -4.77525,-9.13869 -0.56033,-1.25899 -0.0621,-3.05303 -1.06935,-3.99348 -0.63995,-0.59749 -0.28881,1.72707 -0.43322,2.5906 -3.57075,26.45679 -8.62163,52.69969 -14.36162,78.76335 -6.41581,27.01568 -15.49931,53.3278 -27.29617,78.45306 -1.91619,3.66362 -3.58525,7.2284 -5.93704,10.61337 -0.3702,0.53284 -1.01857,2.01038 -1.31632,1.43391 -0.33296,-0.64467 0.58251,-1.36216 1.08115,-1.88924 3.75458,-3.96865 4.19944,-3.68745 8.92892,-6.04898 0.54448,-0.26253 1.93113,-0.2615 1.63345,-0.78759 -0.44765,-0.7911 -1.71302,-0.60978 -2.57952,-0.88436 -2.2645,-0.71757 -4.55377,-1.35627 -6.81252,-2.09176 -5.16781,-1.68272 -21.86681,-7.44175 -25.67085,-8.74711 -50.16354,-17.20813 -74.4995,53.73382 -24.33597,70.94195 v 0 c 5.30404,1.81893 24.13043,8.34588 29.90565,10.06125 9.04314,2.68603 18.59777,5.22869 28.09315,5.70696 4.65562,0.23451 9.31563,-0.37146 13.97345,-0.55719 4.94449,-1.43783 10.1312,-2.21493 14.83347,-4.3135 17.96166,-8.01607 27.96555,-24.91632 36.18946,-41.77008 1.73815,-3.75445 3.55434,-7.47374 5.21444,-11.26334 11.67892,-26.66007 20.52448,-54.51045 27.3522,-82.78191 6.39882,-29.25434 12.14114,-58.70532 15.831,-88.43757 0.52647,-8.02502 1.58803,-15.56924 -0.56466,-23.59014 -4.12178,-15.35767 -11.56043,-24.24251 -25.28361,-31.59368 -2.40715,-1.28945 -5.063,-2.04802 -7.5945,-3.07203 -2.37935,-0.6729 -4.73391,-1.44062 -7.13806,-2.01869 -17.83442,-4.28826 -36.39939,-4.29597 -54.61947,-4.38954 -5.55758,0.16412 -11.11878,0.23311 -16.67273,0.49234 -36.10255,1.68506 -72.00304,6.28439 -107.78035,11.20182 -30.54578,4.63701 -61.41903,9.06063 -91.0857,17.97376 -2.80358,0.84232 -5.54792,1.87052 -8.32188,2.80578 -49.1291,19.97079 -20.88614,89.44982 28.24295,69.47903 z"/>
<path d="m 335.14282,647.48378 c 0.0536,24.10694 -0.0491,48.21317 -0.18491,72.31966 -0.0364,34.6518 -0.72154,69.32167 0.3292,103.96607 0.18761,6.18572 0.50388,12.36686 0.75582,18.55029 1.38543,22.49425 3.95576,45.62499 14.43238,65.99591 2.61605,5.08669 5.5234,10.08225 9.08737,14.55621 3.96039,4.97158 8.90171,9.0755 13.35256,13.61325 5.40035,3.44432 10.48734,7.43801 16.20105,10.33295 29.86017,15.12914 67.22208,13.9998 99.76836,13.822 46.69683,-1.1752 93.36546,-3.15717 140.06372,-4.30359 31.3685,-0.89361 62.76699,-0.74816 94.12546,-1.97085 15.41019,-1.07419 30.41135,-3.5921 41.82337,-15.99444 6.13513,-6.66753 10.10828,-15.23733 13.23973,-23.73967 4.1272,-11.20597 4.48603,-35.60123 5.08299,-46.90531 0.16327,-8.9985 0.32654,-17.997 0.48981,-26.99549 0.92857,-53.02488 -74.05993,-54.33809 -74.98851,-1.31321 v 0 c -0.13869,8.24488 -0.27739,16.48977 -0.41609,24.73465 -0.24972,6.10366 -0.56299,12.20506 -0.74914,18.31099 -0.0696,2.2839 -2.30177,6.77758 -0.0181,6.85486 3.2328,0.1094 4.33032,-4.94384 7.0997,-6.61521 3.40325,-2.05392 7.34054,-3.06614 11.09677,-4.36668 0.16006,-0.0554 0.0378,0.33665 0.0566,0.50498 -1.89554,0.19445 -3.79107,0.38889 -5.6866,0.58334 -30.98053,1.25026 -62.00801,0.99603 -92.99847,1.93467 -46.25162,1.13768 -92.47479,3.06932 -138.72364,4.28264 -21.66564,0.17589 -43.67634,0.9129 -64.84976,-4.50005 -0.61423,-0.0948 -1.32272,0.0561 -1.84268,-0.28435 -2.49498,-1.63355 -4.25954,-5.44511 -5.21341,-7.87741 -4.20588,-10.72474 -4.62048,-22.41914 -5.49692,-33.74455 -1.64999,-39.65204 -1.31915,-79.33167 -1.02276,-119.00963 0.13653,-24.24728 0.23963,-48.4943 0.1861,-72.74203 0,-53.03301 -75,-53.03301 -75,0 z"/>
</svg>
