<?xml version="1.0" ?>
<svg xmlns="http://www.w3.org/2000/svg" viewBox="0 0 1000 1000">
<path d="m 227.5582,401.78166 c 26.89621,-4.52919 53.74287,-9.33793 80.65037,-13.80471 57.92467,-9.4486 115.99561,-18.0783 174.22037,-25.47461 12.9761,-1.64836 25.97101,-3.14513 38.95652,-4.7177 45.98698,-5.05524 92.02086,-9.96755 138.21898,-12.65883 21.99634,-1.2814 25.42971,-1.19182 46.33341,-1.67119 11.91923,0.10715 17.96351,-0.10248 29.33013,0.86114 5.61576,0.47608 10.99683,1.25771 16.28957,3.14218 50.86562,15.0063 72.08774,-56.92854 21.22212,-71.93484 v 0 c -2.98467,-0.82948 -5.93431,-1.79724 -8.95401,-2.48844 -19.53518,-4.47152 -39.71462,-4.60767 -59.64523,-4.55945 -22.45187,0.53673 -26.19237,0.44623 -49.66923,1.82374 -47.5101,2.78766 -94.85454,7.81397 -142.14727,13.03026 -13.27311,1.6091 -26.55574,3.14161 -39.81935,4.82732 -59.02756,7.50199 -117.89914,16.25344 -176.62273,25.83368 -27.27438,4.53099 -54.48843,9.39954 -81.7511,13.99594 -52.1813,9.46636 -38.79385,83.26186 13.38745,73.79551 z"/>
<path d="m 421.26327,113.50932 c -0.11289,-0.33772 -0.0125,-1.15599 -0.33867,-1.01317 -0.34227,0.14984 0.0812,0.74313 0.10363,1.11608 0.0521,0.8644 0.0989,1.72942 0.1199,2.59513 0.18154,7.4775 -0.49503,14.79729 -1.13894,22.24745 -0.51972,4.19745 -0.94245,8.40805 -1.55916,12.59235 -2.63552,17.88173 -6.6545,35.54597 -10.62364,53.16634 -5.56595,24.70916 -5.5994,24.32368 -11.8328,49.834 -11.08878,41.39758 -23.49743,82.45746 -37.05807,123.11295 -8.76924,26.29066 -15.20129,44.09077 -24.48766,70.34884 -17.3116,49.27952 -36.61764,97.85378 -58.56698,145.2579 -14.80925,31.98363 -19.22005,39.9066 -35.20619,71.26879 -16.77522,32.01589 -35.07944,63.2191 -55.37231,93.1371 -9.88006,14.56627 -24.2006,34.65037 -35.95888,48.09846 -5.48482,6.27306 -11.63528,11.9314 -17.45292,17.8971 -36.757901,38.2277 17.30423,90.21122 54.06213,51.98352 v 0 c 7.4092,-7.79003 15.19084,-15.24207 22.2276,-23.37009 12.97176,-14.98341 29.00051,-37.44829 39.99793,-53.72347 21.71602,-32.13774 41.34644,-65.62208 59.32665,-99.98256 16.71077,-32.83102 21.36347,-41.20568 36.84197,-74.69169 22.76424,-49.24794 42.82177,-99.69421 60.81064,-150.87213 9.60071,-27.1557 16.0486,-44.99248 25.11943,-72.21299 14.13472,-42.41663 27.06982,-85.2551 38.57554,-128.45893 6.34102,-25.97975 6.576,-26.40435 12.22539,-51.52644 5.62419,-25.01003 11.20577,-50.12359 13.67657,-75.68257 1.39823,-17.52356 2.91974,-35.50546 -1.66746,-52.71724 -15.27016,-50.787026 -87.09386,-29.191753 -71.8237,21.59527 z"/>
<path d="m 410.57615,514.19069 c 20.6381,-1.91902 41.28244,-3.77536 61.92637,-5.634 37.66342,-3.70751 75.28455,-7.83959 112.90545,-11.95424 20.80446,-2.23782 41.59304,-4.65481 62.45034,-6.35709 0.98256,-0.0488 1.96401,-0.16007 2.94769,-0.14627 0.85669,0.012 -1.73297,0.35257 -2.56586,0.15163 -4.89067,-1.17993 -10.52821,-1.14788 -14.47823,-4.2637 -6.70711,-5.29063 -12.25227,-12.29674 -16.15164,-19.89746 -8.39231,-16.35843 3.45382,-12.91154 -1.81145,-14.3777 -9.97923,22.92748 -23.78187,43.97041 -37.19,64.99289 -16.46234,25.08638 -33.36169,49.92207 -51.59692,73.76423 -12.35553,16.15458 -17.9773,22.65457 -30.99339,38.4112 -26.56354,31.29906 -54.52835,61.45549 -84.26974,89.76763 -5.72351,5.44846 -11.58897,10.74583 -17.38346,16.11875 -16.01845,14.65224 -32.87577,28.37574 -50.71469,40.75622 -8.48513,5.88881 -20.47744,13.74658 -29.93327,18.37852 -4.31068,2.11159 -8.88395,3.63848 -13.32592,5.45772 -48.73266,20.91957 -19.14792,89.83795 29.58474,68.91838 v 0 c 6.98105,-3.08434 14.13019,-5.8133 20.94316,-9.25304 11.54565,-5.82917 26.44919,-15.57699 36.97012,-22.93817 20.19433,-14.12939 39.31959,-29.71751 57.49972,-46.35087 6.26346,-5.81967 12.6026,-11.55893 18.79037,-17.45902 31.64809,-30.1767 61.4194,-62.29961 89.68141,-95.6546 14.26105,-17.29201 19.82362,-23.70395 33.3981,-41.48416 19.28727,-25.26297 37.18922,-51.55607 54.60246,-78.13269 16.16766,-25.40039 32.68493,-50.9101 44.13114,-78.87659 3.4526,-10.38596 8.20588,-20.82536 3.78814,-32.44497 -3.49655,-9.19669 -9.83323,-17.50388 -17.28983,-23.9229 -8.2557,-7.10693 -20.70474,-6.79244 -30.75351,-6.26485 -21.53513,1.76855 -43.00392,4.22345 -64.48383,6.55151 -37.14503,4.06272 -74.29043,8.14082 -111.47641,11.81178 -20.66052,1.86014 -41.32123,3.72058 -61.97613,5.6385 -52.81618,4.7907 -46.04111,79.48406 6.77507,74.69336 z"/>
<path d="m 349.58414,527.04395 c 1.25461,1.90931 2.44124,3.86506 3.76383,5.72792 4.16781,5.87033 9.14538,11.21251 13.7676,16.7145 2.80694,3.34119 12.86984,15.49031 15.0537,18.12408 23.8258,29.09233 46.26634,59.28378 68.79263,89.38309 22.61779,30.1487 45.62503,59.99897 69.91217,88.82432 15.73288,18.29861 31.45432,36.61402 47.79769,54.37278 8.58538,9.40505 18.21061,17.73654 28.31911,25.44551 6.40224,5.10478 13.51343,9.11319 20.76548,12.85744 15.1032,8.2355 30.95609,14.90682 46.91568,21.26832 34.08103,12.75516 68.49335,24.61292 102.94559,36.32186 31.46232,10.32744 15.46565,5.17766 47.99539,15.43262 50.5808,15.93995 73.1233,-55.59211 22.5425,-71.53206 v 0 c -31.43759,-9.90359 -15.97064,-4.92765 -46.40589,-14.91215 -33.25464,-11.30004 -66.46588,-22.75344 -99.38213,-35.00935 -13.7392,-5.43908 -27.37693,-11.16505 -40.34785,-18.28526 -3.35899,-1.71054 -6.70884,-3.36009 -9.60609,-5.82206 -6.6241,-5.02756 -12.98823,-10.3903 -18.57814,-16.57798 -15.61731,-16.93695 -30.58258,-34.45847 -45.62318,-51.90567 -23.37288,-27.6983 -45.43642,-56.44609 -67.20442,-85.41704 -23.2726,-31.09592 -46.46939,-62.2771 -71.10437,-92.31675 -6.90285,-8.32475 -13.80897,-16.6421 -20.7998,-24.89288 -1.07932,-1.27385 -2.16025,-2.5464 -3.22841,-3.82962 -0.52568,-0.63152 -0.73609,-2.00357 -1.55291,-1.91439 -0.74205,0.081 0.71351,1.31139 1.07026,1.96708 -25.43865,-46.53359 -91.24708,-10.55791 -65.80844,35.97569 z"/>
</svg>
