<?xml version="1.0" ?>
<svg xmlns="http://www.w3.org/2000/svg" viewBox="0 0 1000 1000">
<path d="m 180.63614,395.67605 c 8.55223,31.17984 16.00422,62.64783 23.65456,94.05823 13.05681,50.1489 24.11032,100.80457 37.46808,150.87641 2.44485,9.16456 5.07971,18.27737 7.61956,27.41606 9.88997,32.62561 20.14348,65.45002 35.40663,96.05229 2.02951,4.06912 4.30636,8.01011 6.45955,12.01516 2.09133,3.31403 4.18267,6.62806 6.274,9.9421 28.68279,44.60715 91.76683,4.04356 63.08404,-40.56359 v 0 c -1.16078,-1.74363 -2.32157,-3.48726 -3.48235,-5.23088 -1.46462,-2.64235 -3.03125,-5.23066 -4.39385,-7.92703 -13.55205,-26.81749 -22.29324,-55.77764 -31.09238,-84.39083 -2.4084,-8.64689 -4.91023,-17.2683 -7.22521,-25.94067 -13.28763,-49.7779 -24.2578,-100.1434 -37.24837,-149.99745 -7.68945,-31.57017 -15.1755,-63.20023 -23.77314,-94.53822 -12.88944,-51.4428 -85.64055,-33.21439 -72.75112,18.22842 z"/>
<path d="m 266.52373,438.39642 c -0.27378,0.27015 -1.17782,0.95491 -0.82135,0.81045 1.25957,-0.51044 2.38528,-1.30367 3.59011,-1.9325 2.65892,-1.38775 5.29098,-2.83133 8.00072,-4.11703 3.92795,-1.8637 7.89085,-3.65835 11.90523,-5.32776 15.57491,-6.47691 19.61128,-7.5429 36.3127,-13.28368 46.57574,-14.64843 94.28571,-25.56131 142.35199,-34.02886 10.72469,-1.88931 21.49146,-3.53141 32.2372,-5.29711 38.88643,-5.93325 77.95808,-10.84941 117.23063,-13.32616 21.10098,-1.33075 24.79236,-1.18066 45.23049,-1.54883 23.54841,-0.10742 47.19975,1.61555 69.99367,7.75485 2.9218,0.9392 4.1553,1.26177 6.79942,2.33552 0.44727,0.18163 1.79405,0.64274 1.31224,0.6127 -0.58116,-0.0362 -1.12905,-0.33284 -1.62836,-0.63241 -6.60256,-3.96139 -5.10907,-3.39596 -10.8878,-9.95703 -1.04296,-2.09984 -2.08591,-4.19969 -3.12886,-6.29954 -0.18877,-0.26309 -0.51319,-1.10871 -0.56631,-0.78928 -0.25225,1.51675 -0.0245,3.0753 -0.0695,4.61223 -0.0885,3.02532 -0.18798,6.05058 -0.33087,9.07382 -0.50987,10.78786 -1.10812,19.22364 -1.8146,30.1947 -3.01717,39.06914 -7.42724,78.08618 -14.40199,116.6615 -1.5632,8.64556 -3.36733,17.24582 -5.05099,25.86873 -7.41928,34.67873 -16.88988,68.92968 -28.43985,102.46233 -6.55871,19.04169 -10.7966,29.41926 -18.0589,48.11012 -12.71628,30.66248 -6.11513,15.44661 -19.80184,45.6483 -21.85315,48.32121 46.48336,79.22624 68.33652,30.90503 v 0 c 14.86049,-32.92084 7.73868,-16.44545 21.38436,-49.41797 7.95157,-20.51099 12.24651,-31.00711 19.44302,-51.98909 12.50405,-36.45653 22.75114,-73.68871 30.7547,-111.38733 1.80812,-9.31382 3.74602,-18.60337 5.42436,-27.94145 7.37667,-41.04287 12.08043,-82.54501 15.25615,-124.10923 0.65514,-10.2101 1.49173,-22.258 1.92991,-32.58247 0.43728,-10.30353 1.23363,-24.28877 -1.44556,-34.33823 -1.17602,-4.41119 -3.22429,-8.54228 -4.83643,-12.81341 -2.72986,-3.55296 -5.06665,-7.44595 -8.18959,-10.65888 -8.77128,-9.02406 -21.45966,-12.51592 -33.03834,-16.13493 -8.98923,-2.3023 -11.10926,-3.00456 -20.68546,-4.72447 -22.98001,-4.12728 -46.34373,-5.57589 -69.67084,-5.45082 -22.42245,0.43859 -26.53156,0.28249 -49.5536,1.75511 -41.43137,2.65018 -82.65535,7.82031 -123.67918,14.10277 -11.31493,1.86618 -22.65241,3.60043 -33.94478,5.59854 -51.66512,9.14179 -102.93894,20.94901 -152.96236,36.84624 -7.68652,2.66961 -15.42986,5.18093 -23.05956,8.00883 -12.52768,4.6433 -23.20419,9.13848 -35.12925,14.87931 -3.99523,1.92334 -13.489,6.95618 -17.73302,9.60652 -2.0598,1.28631 -3.99556,2.76132 -5.99335,4.14198 -41.08211,33.53744 6.34698,91.63633 47.4291,58.09889 z"/>
<path d="m 344.70945,805.66817 c 13.08838,-5.01265 26.21798,-9.91597 39.64322,-13.96972 4.9789,-1.50338 10.00392,-2.84955 15.00588,-4.27432 32.34433,-8.4222 65.53208,-13.42196 98.84641,-15.8955 7.32391,-0.54379 14.66424,-0.83723 21.99636,-1.25585 32.75291,-1.21061 65.62863,-1.57696 98.31535,1.25986 4.7544,0.41263 9.49029,1.01623 14.23543,1.52434 12.05882,1.35223 23.89094,3.96 35.59389,7.08533 51.27611,13.53734 70.42081,-58.97804 19.14469,-72.51538 v 0 c -15.42274,-4.03754 -31.01049,-7.41805 -46.88436,-9.15755 -5.65796,-0.58736 -11.30592,-1.28074 -16.97388,-1.76206 -35.83773,-3.04336 -71.87624,-2.69804 -107.78177,-1.30825 -8.19082,0.48337 -16.39117,0.8258 -24.57245,1.45011 -37.95502,2.89634 -75.74419,8.73861 -112.56325,18.47195 -5.80456,1.66921 -11.63519,3.25031 -17.41368,5.00762 -15.02707,4.56992 -29.73792,10.05382 -44.39222,15.68213 -49.25515,19.65784 -21.45476,89.31513 27.80038,69.65729 z"/>
</svg>
