<?xml version="1.0" ?>
<svg xmlns="http://www.w3.org/2000/svg" viewBox="0 0 1000 1000">
<path d="m 211.91706,318.88828 c 33.80642,-11.20178 68.18757,-20.61807 102.9701,-28.28026 14.1694,-3.12136 28.42893,-5.81856 42.6434,-8.72784 87.47543,-16.19289 176.25943,-26.50683 265.27025,-28.01501 16.14013,-0.27347 32.28448,0.16404 48.42673,0.24605 42.84829,1.71222 86.02721,4.45977 127.94021,14.13272 4.95576,1.14372 9.82217,2.64496 14.73325,3.96744 51.26959,13.56207 70.44924,-58.94408 19.17965,-72.50614 v 0 c -6.37542,-1.66308 -12.69902,-3.53926 -19.12627,-4.98923 -46.69401,-10.53401 -94.68281,-13.89299 -142.39719,-15.60406 -17.19397,-0.0645 -34.39059,-0.50213 -51.58191,-0.19353 -93.12499,1.67166 -186.00793,12.47353 -277.51704,29.49186 -15.01188,3.0865 -30.07158,5.94884 -45.03562,9.25948 -35.80864,7.92229 -71.26139,17.53011 -106.06707,29.09207 -51.0011,14.53918 -30.43959,86.66563 20.56151,72.12645 z"/>
<path d="m 250.17016,454.21736 c 9.22358,22.73344 15.21354,46.60387 21.61484,70.23606 7.98771,29.96307 16.87408,59.67427 26.1135,89.2717 15.80696,50.62253 87.39802,28.26811 71.59106,-22.35441 v 0 c -8.96035,-28.68814 -17.575,-57.48778 -25.31501,-86.53243 -7.48861,-27.62736 -14.59857,-55.53048 -25.85098,-81.92769 -22.13723,-48.19174 -90.29064,-16.88497 -68.15341,31.30677 z"/>
<path d="m 293.15836,482.12665 c 2.42314,-0.42318 4.85871,-0.78045 7.2694,-1.26953 13.56138,-2.75129 26.95304,-6.41527 40.38158,-9.72786 22.16884,-5.46868 15.79097,-3.90235 38.70299,-9.25741 29.25929,-6.35007 58.74556,-12.75062 88.72487,-14.43345 3.72515,-0.20911 7.45935,-0.19946 11.18903,-0.29918 6.14022,0.17738 12.42164,0.0616 18.45323,1.46582 0.4318,0.10053 1.64934,0.30295 1.24158,0.47699 -0.5248,0.22398 -1.16166,-0.0654 -1.68764,-0.28661 -2.01233,-0.8463 -3.91671,-1.92931 -5.87506,-2.89396 -7.80477,-7.35227 -7.38763,-5.5151 -11.82569,-15.82808 -0.6295,-1.46281 0.053,-3.59059 -1.1467,-4.63789 -0.82835,-0.72312 -0.29794,2.17915 -0.41774,3.27219 -0.32706,2.98412 -0.60682,5.97325 -0.92276,8.95857 -0.45752,4.32298 -0.93174,8.64418 -1.39761,12.96627 -3.00131,31.43516 -9.68411,62.3138 -15.53796,93.29127 -1.34017,7.09196 -2.59416,14.19993 -3.89124,21.2999 -9.52367,52.17087 64.25708,65.63938 73.78075,13.46851 v 0 c 7.27972,-39.9105 16.13363,-79.60478 20.2169,-120.0256 0.31978,-2.96929 2.17597,-19.93427 2.51235,-23.96907 0.62708,-7.52165 1.38117,-16.0331 -0.5898,-23.42153 -3.94929,-14.80437 -6.48763,-15.12249 -16.22892,-25.70825 -3.46912,-2.08023 -6.7787,-4.45324 -10.40735,-6.24069 -2.64794,-1.30436 -5.5041,-2.15445 -8.33469,-2.99153 -13.01761,-3.84964 -26.83923,-3.97275 -40.2775,-4.15993 -14.65217,0.50476 -17.02332,0.33444 -32.16916,1.9725 -27.79159,3.00572 -55.23013,8.6159 -82.48561,14.69372 -26.2243,6.13481 -52.31201,12.84242 -78.5593,18.86142 -52.6253,6.56341 -43.34324,80.98682 9.28205,74.42341 z"/>
<path d="m 343.93318,634.75687 c 23.73588,-5.72248 47.6215,-10.90753 71.66463,-15.17701 7.25654,-1.28858 14.53974,-2.42227 21.80961,-3.63341 29.37181,-3.69774 14.54236,-2.20051 44.49155,-4.4596 52.87468,-4.0949 47.08362,-78.87099 -5.79106,-74.77609 v 0 c -34.59085,2.73886 -17.5748,0.96259 -51.05525,5.26029 -7.80666,1.30681 -15.62751,2.53155 -23.41999,3.92045 -25.59486,4.56192 -51.02472,10.08405 -76.2886,16.20558 -51.37823,13.14448 -32.78912,85.80427 18.58911,72.65979 z"/>
<path d="m 642.45944,256.75936 c 3.49008,21.94728 4.89819,44.1747 6.41722,66.32522 3.47058,59.44635 4.24621,118.99369 4.28026,178.5261 -0.1924,44.57851 -1.90996,89.16576 -5.89806,133.57345 -2.36183,26.29898 -3.53715,33.70532 -6.82354,59.60107 -6.01436,43.68656 -14.23935,87.05464 -24.23937,129.99751 -2.44921,9.29484 -3.43744,13.70756 -6.33246,22.4694 -0.44403,1.34387 -3.09064,9.14022 -4.57199,11.19729 -0.35068,0.48697 -0.0609,-1.30664 0.31794,-1.77201 2.55436,-3.13738 5.54645,-5.89141 8.31967,-8.83712 3.23266,-1.39438 7.05619,-1.85605 9.69798,-4.18313 0.83598,-0.73639 -1.67409,-1.51507 -2.67589,-2.00244 -4.10496,-1.99702 -8.43519,-3.49975 -12.57747,-5.41818 -6.03126,-2.79328 -11.95701,-5.80894 -17.93552,-8.71341 -47.77866,-23.0152 -80.32707,44.55403 -32.54841,67.56923 v 0 c 12.50894,5.98369 29.11733,14.53744 42.58426,18.71281 6.98594,2.16597 14.0912,4.67293 21.4035,4.83158 8.68416,0.18841 17.18593,-2.53861 25.77889,-3.80791 6.19455,-4.66827 13.04807,-8.57136 18.58366,-14.00482 3.25385,-3.19384 5.20628,-7.50642 7.40255,-11.50198 1.69364,-3.08113 2.94351,-6.3903 4.23087,-9.66207 4.83497,-12.28789 8.10556,-25.13197 11.37488,-37.89672 10.54612,-45.44721 19.28356,-91.32736 25.59359,-137.5629 3.4794,-27.57374 4.69602,-35.23431 7.19372,-63.23511 4.13419,-46.34706 5.92444,-92.87889 6.12119,-139.40201 -0.0424,-61.23534 -0.85191,-122.48671 -4.45749,-183.63168 -1.77084,-25.61069 -3.38617,-51.34302 -7.85571,-76.65601 -10.94874,-51.89051 -84.333,-36.40667 -73.38427,15.48384 z"/>
</svg>
