<?xml version="1.0" ?>
<svg xmlns="http://www.w3.org/2000/svg" width="1000" height="1000">
<path d="m 169.6085,258.16583 c 2.75306,27.38625 8.47253,54.32225 14.36857,81.16624 10.34421,42.98835 20.56151,86.01767 32.23192,128.66925 6.0809,19.89754 2.95582,10.40365 9.2836,28.51166 17.60808,50.02456 88.35348,25.12298 70.7454,-24.90157 v 0 c -5.1437,-14.47865 -2.53627,-6.68617 -7.69263,-23.42043 -11.35602,-41.42689 -21.23164,-83.23862 -31.32295,-124.98718 -5.58388,-25.28929 -10.90107,-50.66255 -13.48991,-76.46747 -8.08188,-52.41358 -82.20587,-40.98408 -74.124,11.4295 z"/>
<path d="m 350.72401,291.04131 c 26.37782,-10.24711 54.5762,-14.84637 82.29489,-19.88344 46.22756,-7.69833 92.94903,-12.51544 139.75984,-14.7279 9.02191,-0.42641 18.05349,-0.61513 27.08024,-0.9227 37.15666,-0.70848 74.3847,0.37633 111.32732,4.53149 6.20059,0.76493 12.34735,1.89355 18.4448,3.24247 1.80434,0.39917 4.0133,0.77752 5.77581,1.43356 -8.05918,-2.23708 -13.40994,-7.51234 -18.58099,-14.23535 -1.8137,-2.35804 -2.31898,-5.49003 -3.74503,-8.10083 -0.11708,-0.21435 -0.30585,0.41552 -0.31956,0.65938 -0.12008,2.13632 -0.0522,4.27907 -0.0783,6.41861 -0.60293,27.82696 -3.00942,55.68315 -8.60235,82.98006 -1.42461,6.95295 -3.18977,13.83176 -4.78465,20.74764 -4.91078,19.65638 -10.69772,39.10222 -18.74734,57.72396 -2.11248,4.88695 -4.56927,9.61775 -6.8539,14.42662 -22.51636,48.01577 45.38818,79.85871 67.90454,31.84294 v 0 c 2.93055,-6.31242 6.08043,-12.52758 8.79165,-18.93726 9.35003,-22.1047 16.28245,-45.08807 22.02454,-68.36677 1.84458,-8.15299 3.89287,-16.26256 5.53374,-24.45898 6.33541,-31.64637 9.15193,-63.91117 9.73353,-96.15067 -0.0648,-6.09005 0.1981,-16.70584 -1.30853,-22.79411 -1.21976,-4.92898 -2.40321,-10.05214 -5.10212,-14.35314 -6.35372,-10.12533 -14.14562,-16.03115 -25.01103,-19.44447 -12.04308,-3.36705 -24.39045,-5.57366 -36.78445,-7.17405 -40.56244,-4.46826 -81.4111,-5.83757 -122.20547,-4.94644 -9.66436,0.33773 -19.33393,0.54999 -28.99309,1.0132 -49.81367,2.38884 -99.52727,7.56427 -148.71316,15.80934 -33.67591,6.15988 -67.88424,12.04431 -99.65263,25.28819 -48.35101,21.78716 -17.53931,90.16581 30.8117,68.37865 z"/>
<path d="m 251.91974,489.84643 c 1.7998,0.0195 3.6001,0.10492 5.3994,0.0585 11.9375,-0.30823 23.80644,-1.72663 35.66425,-3.03018 62.22499,-6.84052 -32.19585,3.44592 38.80043,-4.27256 55.31829,-6.04416 110.71623,-11.29513 166.2019,-15.52826 36.81769,-2.58856 73.75353,-3.77888 110.65451,-2.61396 19.86095,0.627 26.60994,1.31671 46.09588,2.74395 16.48726,1.2245 32.86313,3.45396 49.21399,5.8279 52.48795,7.58382 63.2131,-66.64536 10.72514,-74.22918 v 0 c -18.10984,-2.60536 -36.24638,-5.05657 -54.50446,-6.40156 -21.39672,-1.54292 -28.44107,-2.26496 -50.26948,-2.9305 -39.2268,-1.19602 -78.48937,0.0626 -117.62652,2.8211 -56.28469,4.30246 -112.48242,9.61351 -168.59755,15.74991 -50.95785,5.5408 5.62663,-0.63343 -38.75552,4.26769 -8.97114,0.99068 -18.03749,2.21123 -27.07063,2.59753 -0.97926,0.0419 -1.96031,-4.6e-4 -2.94046,-6.9e-4 -52.99083,-2.11487 -55.9817,72.82547 -2.99088,74.94034 z"/>
<path d="m 457.62713,105.80065 c -0.0371,1.71341 -0.10631,3.42642 -0.11125,5.14022 -0.0269,9.34011 0.27646,18.67878 0.24345,28.02059 -0.0631,17.86686 -0.15735,16.34316 -0.74875,35.54521 -2.28771,47.32839 -8.53035,94.49391 -18.19076,140.88201 -2.40925,11.56893 -5.25581,23.04245 -7.88371,34.56368 -16.04626,64.49585 -37.07156,127.8177 -63.88624,188.66097 -5.56617,12.62979 -11.65231,25.02398 -17.47847,37.53597 -18.23514,36.44163 -38.13708,72.10988 -61.76311,105.37141 -7.52032,10.58735 -15.47239,20.86861 -23.58553,31.00884 -7.76624,9.70666 -15.65826,19.33049 -24.03761,28.51308 -7.66535,8.40015 -16.0373,16.12715 -24.05595,24.19073 -8.12247,6.69286 -16.24494,13.38572 -24.36741,20.07859 -40.73981,33.95243 7.27618,91.56723 48.016,57.61479 v 0 c 9.90591,-8.33193 19.81183,-16.66387 29.71774,-24.9958 9.36481,-9.5405 19.11424,-18.71811 28.09444,-28.62148 9.20438,-10.15059 17.89346,-20.76635 26.41766,-31.49449 9.07789,-11.42499 17.96026,-23.01836 26.37115,-34.94293 25.66151,-36.38166 47.39251,-75.30145 67.2071,-115.1153 6.23974,-13.45202 12.75518,-26.77957 18.71924,-40.35608 28.45612,-64.77709 50.77091,-132.17746 67.76622,-200.82787 2.82432,-12.47034 5.88117,-24.89028 8.47298,-37.41101 10.38699,-50.17835 17.03472,-101.19355 19.43172,-152.37916 0.6586,-21.98678 1.1499,-43.98819 0.48424,-65.98195 3.53555,-52.915021 -71.2976,-57.915044 -74.83315,-5.00002 z"/>
<path d="m 214.55325,606.26904 c 14.74966,6.99939 29.34557,14.31734 43.93854,21.63646 45.73963,22.64734 90.82509,46.56058 135.72475,70.81916 52.45153,28.29997 103.6045,58.88878 154.49389,89.88117 31.60166,19.41981 63.73427,37.931 96.39582,55.50268 11.59264,6.01215 23.1226,12.42737 35.52976,16.65862 2.00412,0.68347 4.04581,1.25137 6.06872,1.87706 18.21558,4.48702 37.14302,4.72592 55.79651,5.11624 32.43903,0.36875 64.80414,-2.14172 97.19127,-3.50011 7.16891,-0.30068 14.34168,-0.50116 21.51252,-0.75174 6.5374,-0.12217 13.07481,-0.24435 19.61221,-0.36652 53.0235,-1.00417 51.60339,-75.99073 -1.42012,-74.98656 v 0 c -6.94125,0.13309 -13.8825,0.26618 -20.82375,0.39927 -7.51567,0.26507 -15.03328,0.47977 -22.54701,0.79521 -30.6755,1.28779 -61.32815,3.67566 -92.05135,3.42493 -12.03379,-0.21819 -24.0944,-0.47523 -36.04299,-2.06404 -2.52501,-0.58289 -4.88299,-1.57371 -7.25729,-2.61209 -6.85115,-2.99628 -13.42839,-6.56121 -20.04041,-10.04144 -31.48633,-16.93261 -62.45332,-34.78641 -92.91388,-53.50788 -51.99356,-31.66281 -104.26489,-62.89874 -157.85431,-91.81046 -45.57085,-24.61927 -91.33142,-48.88603 -137.7522,-71.87491 -16.17398,-8.11087 -32.32473,-16.29883 -48.7697,-23.84878 -48.96978,-20.35831 -77.76077,48.89542 -28.79098,69.25373 z"/>
</svg>
