<?xml version="1.0" ?>
<svg xmlns="http://www.w3.org/2000/svg" viewBox="0 0 1000 1000">
<path d="m 609.87058,63.652892 c -0.59861,0.746578 -1.11541,1.566854 -1.79581,2.239734 -0.34886,0.34501 -0.86401,0.473734 -1.25185,0.774267 -2.16857,1.680428 -4.2528,3.467419 -6.40976,5.162729 -3.89109,3.058296 -7.78981,6.107576 -11.73366,9.097529 -14.23173,10.789514 -24.61083,18.244931 -39.39967,29.040009 -8.87808,6.15601 -17.70314,12.38919 -26.63424,18.46801 -21.2891,14.49011 -42.05567,28.19081 -63.89493,41.87671 -31.65422,19.8366 -63.98136,38.54486 -96.30311,57.2605 -34.78233,19.72738 -17.71593,10.23813 -51.1772,28.50726 -46.54279,25.42182 -10.59091,91.24326 35.95188,65.82144 v 0 c 34.70758,-18.96487 17.09821,-9.16667 52.81057,-29.42609 33.32016,-19.29778 66.63363,-38.60283 99.25992,-59.06524 22.40439,-14.05148 44.26087,-28.46776 66.1094,-43.35576 9.42387,-6.4216 18.73423,-13.00822 28.10135,-19.51233 14.93939,-10.90859 26.70161,-19.36737 41.19994,-30.39628 6.13781,-4.66904 18.06264,-13.8902 24.12732,-19.43972 5.81848,-5.32424 6.12647,-5.86212 9.55361,-10.13647 33.17484,-41.375476 -25.33893,-88.291778 -58.51376,-46.916298 z"/>
<path d="m 280.83212,254.55318 c 0.87093,18.42392 -0.95915,36.84999 -2.62315,55.17507 -4.27194,35.87069 -9.14033,71.73 -15.96172,107.21814 -5.54296,28.83712 -8.48944,39.81017 -15.35522,68.72547 -12.30144,48.91491 -27.53518,97.11911 -45.96181,144.07833 -9.93569,25.32055 -16.5217,39.69011 -27.35967,64.39074 -11.78974,26.10598 -26.07082,50.93566 -40.25685,75.77589 -26.2819,46.06258 38.86043,83.2308 65.14233,37.16822 v 0 c 15.47077,-27.13782 30.98992,-54.29328 43.80296,-82.82938 11.59647,-26.47028 18.29179,-41.06344 28.93997,-68.28898 19.50669,-49.87522 35.64933,-101.05717 48.67105,-152.997 7.38958,-31.2279 10.28578,-41.92495 16.26108,-73.13228 7.18684,-37.53492 12.33801,-75.45861 16.77743,-113.40267 2.0844,-23.45364 4.37868,-47.11681 2.40762,-70.66395 -6.21009,-52.66816 -80.69412,-43.88576 -74.48402,8.7824 z"/>
<path d="m 317.8583,510.49184 c 28.85687,-11.16753 59.14092,-18.04435 89.21065,-25.01864 61.27275,-13.18362 123.59051,-21.0894 186.02049,-26.22611 13.23966,-1.08936 26.50231,-1.87859 39.75346,-2.81788 45.13018,-2.60818 90.34332,-3.99585 135.55127,-3.7413 19.58672,0.11029 25.61868,0.39478 44.28875,0.9583 19.45692,0.80693 10.41538,0.35014 27.12777,1.30612 52.94764,3.00806 57.20168,-71.8712 4.25405,-74.87926 v 0 c -18.15365,-1.02492 -8.44258,-0.54125 -29.13606,-1.39323 -19.7443,-0.58726 -26.01133,-0.88192 -46.70027,-0.99174 -46.9277,-0.24911 -93.86054,1.19757 -140.70619,3.93008 -13.81005,0.98535 -27.63214,1.81451 -41.43016,2.95604 -65.79307,5.44314 -131.45484,13.87313 -196.01262,27.84861 -33.98573,7.92413 -68.187,15.83313 -100.72292,28.69575 -49.05429,20.15381 -20.55252,89.52706 28.50178,69.37326 z"/>
<path d="m 336.46202,608.77633 c 6.78713,31.73737 15.60225,62.99358 24.24409,94.26216 12.13217,43.623 26.83734,86.46157 41.58118,129.25281 1.50482,4.26253 3.00964,8.52506 4.51446,12.7876 17.65863,50.00673 88.37882,25.03366 70.7202,-24.97307 v 0 c -1.44198,-4.08238 -2.88396,-8.16476 -4.32594,-12.24715 -14.23855,-41.32195 -28.46936,-82.68043 -40.2006,-124.80159 -8.20302,-29.67336 -16.59354,-59.32877 -23.0808,-89.43713 -10.71717,-51.93883 -84.16977,-36.78246 -73.45259,15.15637 z"/>
<path d="m 471.14421,652.73766 c 17.67085,-7.10341 35.44995,-13.89506 53.82197,-18.99745 5.89658,-1.63763 11.85407,-3.04749 17.78111,-4.57123 24.93298,-5.72249 50.27654,-9.75724 75.80677,-11.52557 14.3548,-0.99427 17.93563,-0.79315 31.91543,-0.84804 16.77093,0.4331 33.68811,1.59869 49.9315,6.0289 0.99592,0.32738 2.5646,0.76481 3.61385,1.29873 0.31823,0.16193 -0.7138,-0.14592 -1.01831,-0.33238 -1.70315,-1.04294 -3.59245,-1.87302 -5.02151,-3.26809 -2.98249,-2.91153 -5.39435,-6.35531 -8.09152,-9.53297 -1.09825,-2.7287 -2.1965,-5.4574 -3.29475,-8.1861 -0.19512,-0.63879 -0.30489,-2.52257 -0.58537,-1.91638 -0.58752,1.26981 -0.28134,2.78443 -0.45842,4.17232 -0.38334,3.0044 -0.76073,6.01031 -1.22274,9.00362 -2.35688,15.27012 -2.46547,14.56997 -5.92737,31.01609 -10.36739,42.28277 -26.19667,82.9617 -44.09903,122.56798 -3.79138,8.38788 -7.79631,16.67758 -11.69447,25.01637 -3.98005,7.36402 -7.96011,14.72805 -11.94017,22.09207 -25.10529,46.71429 40.95868,82.21853 66.06398,35.50425 v 0 c 4.61087,-8.62143 9.22175,-17.24285 13.83263,-25.86428 4.15763,-8.91324 8.43149,-17.77317 12.47287,-26.73971 19.97583,-44.31998 37.46372,-89.90768 48.78474,-137.26581 3.40584,-16.46349 6.88039,-32.87662 8.5131,-49.63653 0.59205,-6.07747 1.2115,-15.66291 -0.0109,-21.69981 -0.92785,-4.58225 -2.84014,-8.90872 -4.26022,-13.36307 -3.20975,-4.13857 -5.99904,-8.64054 -9.62924,-12.41571 -2.08114,-2.16425 -4.808,-3.60679 -7.3359,-5.22693 -5.95294,-3.81524 -13.05598,-5.61919 -19.68955,-7.77665 -6.7893,-1.73919 -8.63987,-2.3274 -15.88632,-3.65059 -17.64442,-3.22184 -35.59591,-4.5191 -53.51092,-4.82389 -16.83981,0.13561 -21.09536,-0.0885 -38.30461,1.16038 -29.5595,2.14521 -58.90251,6.86494 -87.75296,13.60614 -6.91659,1.80179 -13.86969,3.46882 -20.74976,5.40537 -19.22682,5.41183 -37.99678,12.24359 -56.45418,19.84911 -50.14791,17.2536 -25.74763,88.17346 24.40028,70.91986 z"/>
<path d="m 465.8741,844.12216 c 22.13299,-4.90542 44.52529,-8.6286 67.08169,-10.94527 7.24698,-0.7443 14.51851,-1.22622 21.77777,-1.83934 27.23182,-1.58593 54.63523,-1.68514 81.75161,1.60968 4.74267,0.57627 9.44768,1.42875 14.17151,2.14312 52.46498,7.74124 63.41273,-66.45544 10.94776,-74.19667 v 0 c -6.0252,-0.87165 -12.0283,-1.91286 -18.0756,-2.61496 -31.59064,-3.66773 -63.48891,-3.63785 -95.19582,-1.66756 -8.18334,0.7096 -16.38041,1.27546 -24.55,2.12878 -24.56395,2.56572 -48.95715,6.62069 -73.07194,11.93099 -51.93786,10.72187 -36.77485,84.1731 15.16302,73.45123 z"/>
</svg>
