<?xml version="1.0" ?>
<svg xmlns="http://www.w3.org/2000/svg" width="1000" height="1000">
<path d="m 458.74176,121.73204 c -2.15543,2.23603 -4.43184,4.36145 -6.46629,6.70809 -1.37973,1.59145 -9.41289,12.40669 -10.48352,13.84494 -8.77099,11.78255 -17.49605,23.58463 -26.39477,35.27211 -32.27679,42.10492 -66.01447,83.04641 -100.09547,123.69342 -26.64041,31.50976 -53.49239,62.86019 -81.52467,93.14798 -6.49026,7.01247 -12.98704,14.02198 -19.66419,20.85672 -6.03443,6.17685 -12.30927,12.11417 -18.46391,18.17125 -5.86641,4.85231 -11.73283,9.70462 -17.59925,14.55694 -40.67912,34.02512 7.43967,91.55409 48.11879,57.52896 v 0 c 7.38003,-6.22737 14.76005,-12.45474 22.14008,-18.68211 6.7951,-6.7122 13.71485,-13.30049 20.38529,-20.13659 6.98662,-7.16013 13.78616,-14.50132 20.57925,-21.84532 28.70353,-31.03137 56.21748,-63.13372 83.50104,-95.41152 34.83762,-41.55313 69.31789,-83.41281 102.30597,-126.46005 9.03022,-11.87147 17.89698,-23.8486 26.80234,-35.81272 1.74702,-2.34707 3.51622,-4.67767 5.25228,-7.03286 0.64266,-0.87184 2.44502,-1.72154 1.88351,-2.64773 -0.52096,-0.85931 -1.55067,1.27855 -2.32601,1.91783 40.77838,-33.9061 -7.17209,-91.575439 -47.95047,-57.66934 z"/>
<path d="m 497.79639,232.5163 c 21.20603,2.49328 42.54663,3.71679 63.85121,5.04218 25.67683,1.39698 51.33692,3.07428 76.91214,5.77405 5.42065,1.08858 11.28842,0.6634 16.62054,2.32612 0.0821,0.0256 -0.17419,0.0412 -0.25733,0.0191 -0.7961,-0.21133 -1.57681,-0.47685 -2.36522,-0.71527 -1.54541,-0.74866 -3.27632,-1.19743 -4.63622,-2.24598 -11.08829,-8.54961 -13.24352,-11.3147 -16.85267,-26.40055 -0.75732,-3.16552 0.2147,-6.50628 0.35878,-9.75794 0.0189,-0.42694 0.43331,-1.57663 0.1301,-1.27547 -0.67305,0.66849 -0.90788,1.6659 -1.36182,2.49884 -12.55124,24.01072 -25.9715,47.54741 -39.35555,71.09899 -20.43189,34.96807 -41.87309,69.36814 -64.63905,102.86871 -5.38669,7.92662 -10.9117,15.75836 -16.36755,23.63754 -5.85491,8.04157 -11.60138,16.16322 -17.56474,24.12471 -12.59447,16.81449 -24.76523,32.22292 -38.37029,48.24482 -21.2848,25.06591 -43.87249,48.92514 -66.54282,72.72481 -37.92353,38.5039 -78.13782,74.78201 -119.83772,109.15483 -7.34434,6.05387 -14.82547,11.93986 -22.23821,17.90979 -11.11911,8.48317 -26.26694,20.55314 -38.4707,28.05778 -4.92829,3.03063 -10.23773,5.39258 -15.3566,8.08888 -46.60279,25.31166 -10.80669,91.21795 35.7961,65.90629 v 0 c 7.43168,-4.12036 15.08077,-7.87092 22.29503,-12.36109 13.69594,-8.52437 30.14537,-21.62284 42.79745,-31.29463 7.83582,-6.31861 15.74262,-12.55018 23.50745,-18.95581 43.80144,-36.13423 86.01975,-74.29018 125.82502,-114.78976 23.93883,-25.15423 47.76623,-50.3805 70.22226,-76.88777 14.52035,-17.13994 27.57522,-33.69712 41.02031,-51.67436 6.3102,-8.43727 12.39135,-17.04345 18.58702,-25.56518 5.70733,-8.24956 11.48681,-16.44966 17.12198,-24.74867 23.7468,-34.97234 46.11909,-70.87772 67.42161,-107.38545 14.09831,-24.8092 28.23696,-49.60384 41.38985,-74.93292 4.37794,-9.16193 10.02479,-20.50962 8.36171,-31.04968 -2.61089,-16.54693 -6.44125,-21.48901 -18.34157,-30.97017 -1.96131,-1.5626 -4.43928,-2.3338 -6.65891,-3.5007 -1.81862,-0.65715 -3.61194,-1.38902 -5.45584,-1.97145 -9.35073,-2.95361 -19.28288,-3.49454 -28.93617,-4.76681 -26.63934,-2.79346 -53.36034,-4.60334 -80.1054,-6.04112 -18.74949,-1.16445 -37.50096,-2.35683 -56.20119,-4.17069 -52.3146,-8.69953 -64.6176,65.2845 -12.30299,73.98403 z"/>
<path d="m 340.63734,430.67762 c 15.22711,6.36602 29.04946,15.49058 42.75162,24.57184 14.61471,9.81574 28.30788,21.05748 39.89669,34.35627 1.47054,1.68753 2.82093,3.47611 4.2314,5.21416 0.95595,1.3711 1.91191,2.74221 2.86786,4.11331 31.03746,43.00205 91.85154,-0.89155 60.81408,-43.8936 v 0 c -1.96657,-2.67803 -3.93315,-5.35607 -5.89973,-8.0341 -2.37537,-2.83701 -4.66931,-5.74425 -7.12611,-8.51104 -15.64805,-17.62242 -33.91505,-32.69735 -53.44366,-45.82264 -16.90482,-11.13753 -34.01456,-22.19296 -52.72069,-30.11785 -48.1707,-22.18297 -79.54215,45.94068 -31.37146,68.12365 z"/>
<path d="m 409.87365,583.02045 c 6.18046,23.08653 10.13892,46.67213 14.36308,70.17092 6.1368,34.78924 12.2853,69.57779 19.27143,104.20803 2.94603,13.3249 5.29913,26.86979 9.89188,39.76625 0.88132,2.47476 1.94755,4.87972 2.92133,7.31958 20.33833,48.97808 89.6038,20.21534 69.26546,-28.76274 v 0 c -1.92793,-4.05309 -2.99016,-8.20954 -4.04984,-12.5871 -1.61131,-6.65631 -3.09692,-13.91778 -4.51167,-20.57601 -6.88911,-34.10664 -12.91739,-68.37618 -18.97207,-102.63905 -4.48255,-24.92974 -8.73456,-49.94061 -15.25951,-74.44014 -12.40283,-51.56229 -85.32292,-34.02203 -72.92009,17.54026 z"/>
<path d="m 492.06134,622.04954 c 19.00271,-7.27385 39.40544,-10.233 59.37963,-13.54143 40.17942,-6.14008 80.70911,-9.50294 121.26293,-11.88899 19.76286,-0.66632 39.63373,-1.89469 59.39036,-0.39031 -6.80361,-0.38196 5.45913,0.35852 4.0935,0.52416 -0.43904,0.0533 -0.89176,-0.0425 -1.31625,-0.16655 -8.73834,-2.55336 -12.96347,-4.46687 -20.01978,-13.59476 -3.17123,-4.10223 -3.96705,-9.58136 -5.95058,-14.37204 -0.16116,-0.94805 0.13963,-3.57664 -0.48348,-2.84416 -0.95345,1.12078 -0.51755,2.89713 -0.79147,4.34288 -0.58981,3.11306 -1.16136,6.22993 -1.79969,9.33341 -3.36518,16.36111 -7.27911,32.58408 -11.24071,48.80842 -10.20621,39.61983 -20.78689,79.24478 -34.66019,117.77033 -2.74085,7.61121 -5.74455,15.12519 -8.61682,22.68778 -7.2685,18.87695 -16.21126,37.01181 -25.22053,55.09411 -23.61299,47.48607 43.54245,80.87988 67.15544,33.39382 v 0 c 10.08681,-20.32041 20.0722,-40.71157 28.2021,-61.92103 3.1588,-8.35954 6.45984,-16.66671 9.47641,-25.07861 14.57302,-40.63782 25.80158,-82.39092 36.52763,-124.17476 4.25544,-17.4659 8.48811,-34.92982 12.05335,-52.55341 0.95125,-4.70219 3.31924,-16.9481 3.70758,-22.13597 0.28802,-3.84757 0.11086,-7.71588 0.16628,-11.57381 -2.1641,-6.3101 -2.7568,-13.40339 -6.4923,-18.9303 -9.93575,-14.70062 -23.68871,-18.1341 -39.49848,-19.42257 -23.00557,-1.55046 -46.09158,-0.70048 -69.10293,0.33376 -43.20455,2.55939 -86.38253,6.17091 -129.17957,12.78027 -25.51077,4.27982 -51.41393,8.44008 -75.54382,18.14634 -49.05441,20.15353 -20.55302,89.52694 28.50139,69.37342 z"/>
<path d="m 516.46503,842.46794 c 12.86226,-3.68228 26.22663,-4.98622 39.50256,-6.1736 22.73012,-1.97648 45.54113,-1.38935 68.3034,-0.52334 8.33528,0.17813 16.61897,0.95507 24.86007,2.16272 52.50057,7.496 63.10152,-66.75102 10.60094,-74.24702 v 0 c -10.81989,-1.51812 -21.68718,-2.60123 -32.61975,-2.86186 -26.00399,-0.98252 -52.06357,-1.51886 -78.02405,0.78567 -17.06739,1.60799 -34.21507,3.43463 -50.77484,8.08713 -51.45638,12.83518 -33.3047,85.60548 18.15167,72.7703 z"/>
</svg>
