<?xml version="1.0" ?>
<svg xmlns="http://www.w3.org/2000/svg" width="1000" height="1000">
<path d="m 383.68516,246.40405 c 16.20347,-2.05156 32.05404,-6.18899 47.99024,-9.65033 21.55767,-4.68231 21.08151,-4.47647 43.52817,-8.92294 40.28158,-7.36767 81.02835,-12.73727 121.98024,-14.26941 6.47174,-0.24213 12.95025,-0.24318 19.42538,-0.36477 13.43333,0.0257 26.89445,0.31758 40.26373,1.736 4.49103,0.47648 8.94305,1.00302 13.1879,2.56971 -5.41144,-0.86753 -9.73763,-5.08556 -13.09467,-9.08096 -1.04359,-1.24204 -1.68803,-2.77091 -2.54739,-4.14686 -0.1692,-0.27092 -0.38393,-1.07292 -0.53787,-0.79305 -0.27238,0.49522 0.0278,1.13003 0.0417,1.69504 1.19368,21.58244 -0.77706,43.18294 -2.75653,64.6561 -3.26265,31.3211 -9.36546,62.34539 -17.73102,92.70017 -1.61953,5.87655 -3.46891,11.68734 -5.20336,17.531 -4.87215,16.03573 -11.83644,31.2457 -18.95351,46.36643 -22.45218,48.04581 45.49485,79.79798 67.94703,31.75217 v 0 c 2.61664,-5.63226 5.37596,-11.20042 7.84992,-16.8968 7.92737,-18.25312 8.50152,-21.05894 15.08735,-39.98593 1.98407,-6.75184 4.09353,-13.46808 5.95221,-20.2555 9.36123,-34.18491 16.1071,-69.12566 19.74006,-104.38497 2.4333,-26.82784 4.80156,-53.8736 2.48677,-80.80056 -1.4669,-10.13234 -2.89871,-19.73103 -8.68094,-28.60037 -7.35818,-11.28669 -16.15394,-17.40013 -28.61566,-21.76054 -2.67556,-0.73251 -5.32288,-1.57734 -8.02667,-2.19755 -22.19659,-5.09157 -45.30041,-4.61668 -67.90482,-5.08862 -7.3444,0.15407 -14.69282,0.17427 -22.03319,0.4622 -44.47064,1.7444 -88.72167,7.53666 -132.46176,15.5889 -23.52429,4.66738 -22.74184,4.39687 -45.24368,9.28393 -9.35735,2.03227 -18.67401,4.25163 -28.04507,6.21973 -2.49904,0.52484 -6.83059,1.32924 -9.85914,1.8957 -52.85064,4.39434 -46.6361,79.13642 6.21453,74.74208 z"/>
<path d="m 176.41922,403.61112 c 5.22127,-0.64967 6.29997,-0.72243 12.54856,-1.94305 9.13771,-1.78498 20.50606,-4.50743 29.34664,-6.5043 24.5786,-5.55173 18.84103,-4.23846 45.35399,-9.86578 59.71392,-12.21056 119.94404,-21.75719 180.37025,-29.66136 14.2524,-1.86432 28.52701,-3.55472 42.79051,-5.33208 66.97084,-7.7401 134.32005,-13.00854 201.76711,-13.3808 10.90031,-0.0602 21.80008,0.19458 32.70013,0.29186 33.16648,0.69114 66.32017,2.8307 99.203,7.28492 13.82388,1.87254 17.62647,2.67336 30.67666,4.99485 3.43572,0.7061 6.87145,1.4122 10.30717,2.1183 51.96047,10.61179 66.96781,-62.8714 15.00734,-73.48319 v 0 c -4.08276,-0.82939 -8.16553,-1.65878 -12.24829,-2.48817 -14.74123,-2.59556 -19.14554,-3.5121 -34.67982,-5.59219 -35.68064,-4.77775 -71.6462,-7.11258 -107.62924,-7.83182 -11.58776,-0.0937 -23.17536,-0.35226 -34.76328,-0.28099 -70.07212,0.43094 -140.04286,5.882 -209.61968,13.94343 -14.57047,1.81756 -29.15236,3.54577 -43.71139,5.45268 -62.22976,8.15074 -124.25512,18.00664 -185.74878,30.60029 -27.01188,5.73821 -21.58619,4.48828 -46.48578,10.11526 -7.57381,1.71157 -17.5862,4.09342 -25.55961,5.74085 -4.20856,0.86956 -4.24142,0.81597 -7.88948,1.27797 -52.71009,5.84353 -44.44609,80.38685 8.26399,74.54332 z"/>
<path d="m 368.08403,488.66916 c 23.75159,-3.74417 47.5198,-7.25117 71.39164,-10.15083 44.63606,-4.92982 89.53096,-6.37691 134.39947,-7.04367 22.00508,-0.39413 43.99564,0.10442 65.97344,1.1464 52.97468,2.48662 56.49129,-72.43089 3.51661,-74.91752 v 0 c -23.52363,-1.09416 -47.06071,-1.64536 -70.61263,-1.22048 -47.52256,0.71637 -95.07231,2.30402 -142.34216,7.58515 -23.70574,2.89303 -47.33615,6.23256 -70.90411,10.09308 -52.68502,6.06538 -44.10728,80.57325 8.57774,74.50787 z"/>
<path d="m 448.29615,229.88852 c -6.2842,22.24445 -13.59732,44.19244 -20.50506,66.25062 -13.85699,43.56337 -30.47548,86.23393 -50.03411,127.5589 -4.76401,10.06576 -9.8353,19.98319 -14.75295,29.97479 -28.72788,55.69576 -61.68342,109.14096 -97.38167,160.62488 -7.42977,10.71519 -15.13583,21.23615 -22.70374,31.85422 -21.72626,29.45992 -43.93255,58.58054 -67.24711,86.80761 -7.10495,8.602 -14.41403,17.03333 -21.62105,25.55 -34.24562,40.49367 23.02108,88.92429 57.2667,48.43062 v 0 c 7.57807,-8.96594 15.26255,-17.84301 22.73422,-26.89781 24.25207,-29.39071 47.36381,-59.70107 69.95556,-90.3793 7.93225,-11.1437 16.00836,-22.18639 23.79676,-33.4311 37.6149,-54.3075 72.29281,-110.70931 102.50993,-169.47714 5.25318,-10.70228 10.67046,-21.32555 15.75953,-32.10683 20.81683,-44.1008 38.51301,-89.62823 53.29065,-136.09575 5.63729,-18.00233 5.84931,-18.74657 11.27212,-35.82538 4.19329,-13.2065 8.69053,-26.37882 11.54619,-39.9595 9.10671,-52.24527 -64.77926,-65.1241 -73.88597,-12.87883 z"/>
<path d="m 340.01785,612.40973 c 9.28692,14.82705 12.86932,32.18815 16.57173,49.03112 7.3295,37.11829 8.72723,75.00132 9.56813,112.71642 0.21879,14.09224 0.0819,28.18517 -0.0801,42.27677 -0.60477,53.02956 74.39035,53.88483 74.99512,0.85527 v 0 c 0.16905,-14.94086 0.30963,-29.88318 0.0659,-44.82457 -0.97414,-42.66519 -2.79806,-85.50247 -11.36777,-127.44046 -1.41867,-6.22728 -2.65646,-12.49856 -4.256,-18.68185 -4.98089,-19.25449 -11.9745,-38.14406 -22.71821,-54.96715 -29.01574,-44.39129 -91.79451,-3.35685 -62.77878,41.03445 z"/>
<path d="m 418.02053,654.27442 c 17.61732,-5.52807 35.51655,-10.18622 53.68038,-13.54056 6.29342,-1.16221 12.62489,-2.10801 18.93733,-3.16201 38.96504,-5.83246 78.34765,-8.27597 117.6988,-9.46084 15.65207,0.042 31.50409,-0.79672 47.05054,1.52561 0.37299,0.0945 0.76303,0.13738 1.11898,0.28352 0.13911,0.0571 -0.3067,0.0329 -0.45103,-0.009 -1.28186,-0.3748 -2.62423,-0.62413 -3.81091,-1.23686 -7.78212,-4.01828 -11.19687,-6.62808 -16.08058,-14.72839 -1.68881,-2.80114 -2.24179,-6.14558 -3.36269,-9.21837 -0.18363,-1.49501 -0.36727,-2.99002 -0.5509,-4.48504 -0.0551,-0.12166 -0.13173,-0.49425 -0.16522,-0.36498 -0.8244,3.18235 -1.18837,6.46656 -1.80675,9.69526 -1.62356,8.47701 -1.99667,10.23043 -3.79687,19.21838 -6.08004,32.11835 -11.49448,64.35715 -17.53272,96.48371 -2.92138,15.35744 -6.22436,30.64287 -10.48966,45.68822 -2.38336,8.40704 -5.10508,16.6922 -7.76593,25.01258 -16.1312,50.52014 55.31506,73.3331 71.44626,22.81296 v 0 c 3.21493,-10.08283 5.94806,-18.37528 8.82864,-28.65655 4.70955,-16.80919 8.43521,-33.86383 11.6911,-51.00894 5.97858,-31.83499 11.36839,-63.77565 17.36265,-95.6072 1.8211,-9.09792 3.68727,-18.19226 5.31951,-27.32685 0.71705,-4.01282 1.7983,-10.04148 1.88457,-14.03304 0.0693,-3.20485 -0.2801,-6.40507 -0.42016,-9.60761 -1.3268,-4.32398 -1.86411,-8.97464 -3.98042,-12.97195 -8.20968,-15.50649 -21.03504,-21.65387 -37.25641,-24.24526 -19.72533,-2.58863 -39.65583,-2.58511 -59.51827,-2.18506 -42.75585,1.31923 -85.54275,4.01323 -127.86479,10.46693 -7.22803,1.22577 -14.47881,2.32421 -21.6841,3.67729 -20.79002,3.90416 -41.28868,9.2428 -61.45994,15.59117 -50.48259,16.24832 -27.504,87.64148 22.97859,71.39317 z"/>
<path d="m 425.28627,824.41174 c 20.70243,-1.48643 41.41391,-2.86537 62.11889,-4.32431 25.78059,-1.82061 51.59816,-3.32259 77.45445,-3.03524 11.86834,0.13189 21.64451,0.63034 33.42646,1.12845 16.63765,0.88055 8.76778,0.46014 23.60976,1.25886 52.95639,2.84977 56.98657,-72.04186 4.03019,-74.89163 v 0 c -15.19005,-0.8174 -7.02454,-0.38225 -24.49676,-1.30134 -13.43125,-0.55926 -23.21992,-1.06471 -36.85009,-1.19382 -27.52154,-0.26069 -55.00463,1.27002 -82.44597,3.22024 -20.5036,1.44491 -41.01367,2.8153 -61.51484,4.28419 -52.93019,3.30071 -48.26228,78.15531 4.66791,74.8546 z"/>
</svg>
