<?xml version="1.0" ?>
<svg xmlns="http://www.w3.org/2000/svg" width="1000" height="1000">
<path d="m 458.46069,89.702341 c -12.29565,34.206959 -29.89531,66.079719 -47.3068,97.863009 -46.3485,84.56126 -104.15414,161.95854 -161.85233,238.95111 -48.95683,65.78621 -100.01733,129.95412 -151.932646,193.4171 -33.577408,41.04946 24.475286,88.53508 58.052696,47.48563 v 0 c 52.58364,-64.29032 104.30685,-129.29015 153.89964,-195.92899 24.21579,-32.3207 42.56898,-56.42776 66.02586,-89.28373 36.49939,-51.12458 71.28781,-103.57011 101.59929,-158.63632 5.43057,-9.93316 10.98908,-19.79744 16.29171,-29.79949 14.08746,-26.57232 27.03418,-53.86114 36.98591,-82.27325 15.41144,-50.744334 -56.35189,-72.539403 -71.76333,-21.795069 z"/>
<path d="m 461.82386,147.63415 c 1.40667,2.72975 2.65193,5.5489 4.22,8.18924 1.57221,2.6473 3.38621,5.14543 5.18389,7.64511 5.19663,7.22595 10.53889,13.71227 16.23833,20.6139 8.81857,10.67868 17.76928,21.24756 26.64798,31.87629 33.03731,39.25861 64.63248,79.70145 97.48712,119.11 7.06129,8.4699 14.22489,16.85397 21.33734,25.28096 35.01994,41.15065 71.93498,80.66136 110.11797,118.88262 18.2406,18.11177 37.70282,35.00985 58.51286,50.1153 11.77778,8.54918 19.86109,13.65523 32.03889,21.65643 23.65899,14.67323 11.44516,7.40603 36.67622,21.74315 46.1426,26.14116 83.11179,-39.11433 36.96919,-65.25549 v 0 c -22.15036,-12.50546 -11.32221,-6.09818 -32.50076,-19.19426 -10.06596,-6.59485 -18.26413,-11.79708 -27.97928,-18.79609 -18.0498,-13.00348 -34.89735,-27.61341 -50.67049,-43.28843 -36.71632,-36.71615 -72.17726,-74.70961 -105.85405,-114.24195 -6.91896,-8.19495 -13.8883,-16.34764 -20.75689,-24.58486 -32.96908,-39.53841 -64.66074,-80.12626 -97.81867,-119.5097 -11.36972,-13.61069 -22.99359,-27.05815 -34.04729,-40.93075 -1.67514,-2.10233 -3.26816,-4.26881 -4.89925,-6.4055 -0.63022,-0.82557 -0.85445,-2.61329 -1.88465,-2.48127 -0.91647,0.11744 0.64152,1.73298 0.96229,2.59947 -19.07479,-49.483855 -89.05554,-22.508027 -69.98075,26.97583 z"/>
<path d="m 455.04465,350.24529 c 6.9657,6.87526 14.21221,13.46073 20.74837,20.76226 5.33706,5.96203 8.22098,9.84282 13.16776,16.13969 32.87724,41.61234 91.72598,-4.88309 58.84874,-46.49544 v 0 c -7.22496,-9.10402 -9.77559,-12.6119 -17.68673,-21.34799 -8.85611,-9.77958 -18.5208,-18.82476 -28.29001,-27.67482 -41.44798,-33.08421 -88.23611,25.53209 -46.78813,58.6163 z"/>
<path d="m 383.88674,484.92788 c 26.57705,-5.46642 53.37511,-9.71615 80.21873,-13.62107 40.61228,-5.92318 81.56893,-8.72326 122.56953,-9.79492 18.91899,-0.35084 37.83637,0.27399 56.66494,2.13186 0.8414,0.11515 1.68279,0.23031 2.52419,0.34547 0.11365,0.0446 0.45955,0.16304 0.34097,0.1339 -7.73928,-1.90154 -12.24636,-2.7579 -18.82194,-10.6827 -4.0764,-4.91282 -6.36203,-11.17013 -8.34197,-17.23913 -0.94688,-2.90242 -0.17919,-6.10331 -0.26879,-9.15496 0.0241,-0.62594 0.56125,-2.26949 0.0724,-1.87782 -0.97115,0.77805 -1.19085,2.18552 -1.80636,3.26702 -1.23416,2.16853 -2.40032,4.37926 -3.74243,6.48269 -1.82486,2.86001 -3.7569,5.65259 -5.7516,8.39684 -8.57127,11.79207 -10.37814,13.48822 -20.35368,25.39823 -22.89487,26.28656 -47.67013,50.81396 -72.34222,75.40533 -37.5583,37.44161 15.39214,90.55706 52.95043,53.11545 v 0 c 26.30169,-26.22421 52.69077,-52.40602 77.01312,-80.51263 4.66364,-5.62204 9.45952,-11.13696 13.99091,-16.86613 9.43481,-11.92869 18.31234,-24.45275 25.35871,-37.96128 1.63936,-3.1428 3.2876,-6.29477 4.60099,-9.58715 1.4492,-3.63285 2.44632,-7.43013 3.66948,-11.1452 0.29986,-5.084 1.99083,-10.27745 0.89958,-15.252 -1.63743,-7.46437 -4.29936,-15.01964 -8.8817,-21.1352 -8.34165,-11.13269 -21.15557,-14.35085 -33.80313,-15.77394 -21.92025,-2.13184 -43.94102,-2.9034 -65.96434,-2.46218 -43.95255,1.18575 -87.85867,4.18619 -131.39415,10.55261 -27.90685,4.07486 -55.77169,8.4766 -83.40467,14.15574 -52.10046,9.90163 -38.09745,83.5828 14.00301,73.68117 z"/>
<path d="m 308.19861,652.27213 c 10.44877,22.37909 15.08377,46.81962 19.94393,70.85902 6.05123,32.50327 11.20323,65.24723 13.83841,98.22481 0.36949,4.62387 0.58348,9.25885 0.87522,13.88827 0.35612,13.82478 0.36146,7.39708 0.1185,19.28273 -0.84903,53.02622 74.14136,54.22693 74.99039,1.20072 v 0 c 0.2068,-16.08879 0.26148,-7.65766 -0.26323,-25.29256 -0.35156,-5.38244 -0.61793,-10.77113 -1.05468,-16.14733 -2.8937,-35.61973 -8.42807,-70.99308 -15.008,-106.09815 -6.38997,-31.27909 -12.90006,-62.64984 -27.36262,-91.3958 -25.08694,-46.72414 -91.16486,-11.24585 -66.07792,35.47829 z"/>
<path d="m 392.27387,678.05931 c 25.30596,-8.26065 51.69812,-12.17315 77.9606,-15.94499 42.06636,-5.36121 84.41024,-8.00696 126.78117,-9.19533 16.77756,-0.30463 33.59821,-0.4208 50.30592,1.32691 0.7257,0.0888 1.45141,0.17754 2.17711,0.26632 0.0216,0.0205 0.0944,0.0663 0.0649,0.0615 -8.4242,-1.37871 -14.92385,-6.23343 -20.66929,-12.79657 -2.5838,-2.95153 -3.65344,-6.94281 -5.48016,-10.41421 -0.10604,0.007 -0.31532,-0.0853 -0.31812,0.021 -0.044,1.67346 0.15601,3.34491 0.18549,5.01869 0.0508,2.88544 0.10785,5.77207 0.0554,8.65748 -0.26489,14.55959 -1.76413,28.95144 -3.32899,43.41635 -2.48064,19.98201 -6.41585,39.74327 -10.85549,59.37058 -2.58797,11.44123 -6.54859,28.05375 -9.96943,39.38627 -1.76675,5.85288 -3.90087,11.58851 -5.85131,17.38277 -5.21576,14.43125 -12.33699,27.9955 -19.5648,41.48067 -24.92736,46.80948 41.27124,82.06208 66.19859,35.2526 v 0 c 9.12926,-17.23262 18.06784,-34.58952 24.5297,-53.05296 2.36976,-7.18868 4.93953,-14.31449 7.10927,-21.56605 3.67764,-12.29117 8.07696,-30.68388 10.88012,-43.15441 4.9887,-22.19342 9.35984,-44.54549 12.09986,-67.14061 1.85179,-17.5593 3.54792,-34.4799 3.74843,-52.15456 0.0648,-5.71275 -0.13898,-15.91276 -0.77321,-21.85079 -0.3448,-3.22825 -0.9855,-6.418 -1.47824,-9.62699 -2.25668,-5.15477 -3.38745,-10.96737 -6.77002,-15.4643 -9.11664,-12.12004 -20.44917,-16.31738 -34.36727,-17.70435 -19.95252,-2.00532 -40.01661,-2.15531 -60.0533,-1.68517 -45.25126,1.29504 -90.47549,4.12987 -135.39302,9.93771 -7.80106,1.13554 -15.62111,2.14752 -23.40318,3.40661 -23.57158,3.81375 -47.03252,8.77482 -69.69773,16.37144 -49.7764,18.29781 -23.89939,88.69227 25.87701,70.39446 z"/>
<path d="m 402.37672,860.02924 c 30.60732,-2.3321 61.19266,-4.9304 91.80586,-7.18701 23.29036,-1.74172 46.64813,-2.52672 70.00157,-2.07198 15.70395,0.30579 23.62003,0.92624 38.92278,1.8488 52.93881,3.15943 57.40693,-71.70736 4.46811,-74.86679 v 0 c -17.17047,-1.01529 -25.48661,-1.669 -43.18313,-1.98172 -25.2636,-0.44645 -50.53097,0.40202 -75.72648,2.27489 -30.84553,2.27668 -61.66367,4.88846 -92.50324,7.24172 -52.85064,4.39434 -46.6361,79.13643 6.21453,74.74209 z"/>
</svg>
