<?xml version="1.0" ?>
<svg xmlns="http://www.w3.org/2000/svg" width="1000" height="1000">
<path d="m 41.030892,320.83778 c 2.563601,23.85899 5.02361,47.69604 9.325247,71.329 1.729416,9.50131 3.784144,18.94053 5.676216,28.41079 13.225357,60.67791 24.3614,121.78226 35.005565,182.95722 1.30156,7.82512 2.60312,15.65025 3.90468,23.47537 8.70376,52.3139 82.68679,40.00492 73.98303,-12.30898 v 0 c -1.33274,-8.00831 -2.66547,-16.01663 -3.99821,-24.02494 -10.75791,-61.80851 -22.00464,-123.54737 -35.36116,-184.85551 -4.14634,-20.56069 -5.90521,-27.69314 -8.81234,-47.75348 -2.38787,-16.47728 -3.4078,-33.1077 -5.74799,-49.58642 -8.73769,-52.30825 -82.712721,-39.9513 -73.975038,12.35695 z"/>
<path d="m 123.15826,382.67582 c 2.03613,-1.01134 4.155,-2.08756 6.23631,-2.93103 5.76713,-2.33717 14.15857,-5.07162 19.62855,-6.80388 17.21564,-5.45194 17.57824,-5.33477 36.01529,-10.35892 30.00786,-7.64764 60.34527,-14.16047 91.07026,-18.17123 17.55657,-2.29178 21.26093,-2.31641 38.24033,-3.51077 11.19351,-0.45465 22.44612,-0.67962 33.61031,0.46441 3.25614,0.33367 6.62614,0.82718 9.72527,1.93721 -0.80797,0.0764 -0.74747,0.11809 -1.96548,-0.55348 -6.70367,-3.69619 -8.44054,-5.0075 -13.5877,-12.27028 -1.42171,-2.00607 -1.80807,-4.60326 -3.11255,-6.68745 -0.27807,-0.44427 -0.0604,1.0465 -0.0906,1.56974 1.4307,35.6016 -0.0689,71.25747 -1.02524,106.85415 -0.81002,30.17259 -1.56711,60.39122 -4.85115,90.4233 -1.12573,10.29466 -2.54686,20.55833 -4.14263,30.79067 -3.44155,22.06768 -6.94308,38.02824 -11.37776,59.82416 -2.02683,9.44965 -4.05367,18.8993 -6.0805,28.34895 -11.118,51.85451 62.21535,67.57773 73.33335,15.72322 v 0 c 2.08252,-9.71644 4.16503,-19.43288 6.24755,-29.14932 4.86084,-23.98942 8.48159,-40.45673 12.22221,-64.85547 1.75605,-11.45405 3.30134,-22.94443 4.53973,-34.46595 3.37852,-31.43258 4.24842,-63.04973 5.08217,-94.62585 0.34162,-12.72184 1.04718,-38.03835 1.30471,-51.18141 0.35341,-18.03636 0.65643,-36.11758 -0.0233,-54.15188 -0.14546,-3.85896 -0.44028,-7.71085 -0.66042,-11.56628 -1.1734,-8.81968 -1.34882,-15.37162 -6.0081,-23.63921 -6.95155,-12.33511 -16.95236,-18.66042 -29.84218,-22.68225 -6.45465,-1.67956 -7.79425,-2.19246 -14.67972,-3.24255 -17.85835,-2.72357 -36.01054,-2.46501 -54.00292,-1.67086 -19.57828,1.43695 -23.89087,1.48231 -44.00189,4.15013 -33.63372,4.46166 -66.85706,11.57148 -99.70458,19.99386 -19.07505,5.23145 -22.08229,5.81821 -40.01806,11.57432 -12.81377,4.11232 -25.662133,8.45285 -37.577076,14.79545 -46.717479,25.09935 -11.221646,91.16784 35.495836,66.0685 z"/>
<path d="m 157.94849,641.83768 c 27.62726,-8.68897 55.98983,-15.0311 84.48778,-20.11561 8.88897,-1.58593 17.82402,-2.90173 26.73603,-4.3526 36.04851,-4.4761 17.93223,-2.55794 54.35015,-5.74195 52.82728,-4.66674 46.2275,-79.3758 -6.59978,-74.70905 v 0 c -40.06537,3.57254 -20.11545,1.42485 -59.8508,6.43357 -9.67409,1.5876 -19.37324,3.02935 -29.02226,4.76281 -32.42679,5.8255 -64.7124,13.11879 -96.04869,23.35434 -49.75803,18.34771 -23.81046,88.71619 25.94757,70.36849 z"/>
<path d="m 439.67155,98.368159 c 3.50024,16.114961 2.97138,32.761731 2.67994,49.135821 -2.2258,38.7748 -9.43637,77.03431 -15.905,115.26734 -2.40671,15.61988 -5.71565,31.12371 -7.64478,46.8163 5.44012,11.75667 5.41256,28.28188 16.32036,35.27002 24.38856,15.62466 39.26171,1.72573 57.37568,-6.97783 13.39798,-6.43758 13.53112,-6.15854 28.41289,-12.05778 38.04639,-13.96416 78.02629,-21.8652 118.29111,-25.8917 8.92096,-0.8921 17.88082,-1.33941 26.82123,-2.00911 36.11921,-1.57848 72.5341,-0.78084 108.27859,5.06439 4.31598,0.70578 8.59293,1.63243 12.88939,2.44864 7.64827,1.76767 15.36468,3.47606 22.68683,6.37086 1.40688,0.55621 3.415,1.32967 4.59134,2.46935 -1.55313,-0.84127 -2.77371,-1.421 -4.03641,-3.03653 -8.56996,-10.96463 -8.76527,-11.63315 -10.04862,-26.44995 -0.99901,-11.53395 1.65,-3.1792 0.64815,-6.22313 -4.13108,5.9993 -5.07561,7.53668 -10.57731,14.32916 -15.96535,19.7111 -33.72307,37.81274 -51.40973,55.95966 -8.69145,8.91762 -17.44498,17.77454 -26.16747,26.66181 -38.31171,37.64394 -18.87258,19.14066 -58.3155,55.51184 -38.97087,35.96903 11.89702,91.08216 50.86789,55.11313 v 0 c 41.47077,-38.30971 21.15192,-18.93878 60.97619,-58.0922 12.52308,-12.76126 37.66359,-38.23001 50.33506,-51.69774 15.5402,-16.51672 30.91008,-33.47449 43.88512,-52.13478 2.39368,-3.44251 4.48448,-7.08603 6.72672,-10.62904 3.08482,-6.46669 7.5607,-14.09962 7.68479,-21.60195 0.10772,-6.51281 -0.29975,-13.21159 -2.3257,-19.40221 -3.26347,-9.97207 -10.80194,-16.58405 -18.95146,-22.19203 -5.03515,-2.97741 -6.17845,-3.82683 -11.74799,-6.33526 -13.07715,-5.88971 -27.08448,-9.3019 -41.04352,-12.3445 -15.58594,-2.87485 -19.11379,-3.77834 -35.54754,-5.66447 -34.87914,-4.00313 -70.07961,-4.7243 -105.12694,-2.90599 -10.16205,0.79353 -20.34649,1.33937 -30.48617,2.38057 -46.59734,4.78487 -92.79307,14.29825 -136.7502,30.66456 -17.88754,7.20616 -18.66079,7.12029 -34.75247,14.94168 -3.7568,1.826 -7.45116,3.77875 -11.14237,5.73393 -1.54902,0.82049 -6.28849,2.2188 -4.57571,2.59169 50.57744,11.01125 28.75823,-12.31548 50.75231,38.44196 -0.0142,-2.03039 1.33397,-8.65792 1.58087,-10.17149 1.76558,-10.82352 3.61044,-21.63369 5.47447,-32.44066 7.1047,-41.99399 14.94932,-84.03902 16.94764,-126.66568 0.0811,-6.51372 0.3164,-13.02736 0.24325,-19.54118 -0.20018,-17.82575 -1.55476,-35.888366 -6.34332,-53.124116 -15.85094,-50.608771 -87.42255,-28.192155 -71.57161,22.416615 z"/>
<path d="m 540.785,400.43839 c 0.22641,12.38706 -2.08038,24.55607 -4.95539,36.5509 -4.1512,17.3193 -6.49253,24.56591 -11.64309,42.40353 -12.78066,39.6403 -27.40089,78.77905 -45.58135,116.29066 -13.64042,28.14418 -17.85389,34.2758 -33.62077,61.56903 -18.43603,31.32207 -40.02515,60.57334 -63.04742,88.64215 -14.2679,17.39545 -30.33274,35.90214 -46.12383,51.9963 -7.3718,7.51329 -15.18605,14.57929 -22.77908,21.86894 -38.18571,36.80151 13.85949,90.80426 52.0452,54.00275 v 0 c 8.58942,-8.3062 17.41929,-16.37073 25.76825,-24.91859 16.86074,-17.26243 34.71615,-37.81364 49.94727,-56.46544 25.26815,-30.94302 48.91311,-63.21508 69.17915,-97.69137 6.53331,-11.37223 13.34177,-22.59075 19.59992,-34.11669 27.69831,-51.01332 49.15068,-105.1549 66.68396,-160.42375 9.34082,-32.51817 19.74224,-65.51975 19.52718,-99.70842 0,-53.03301 -75,-53.03301 -75,0 z"/>
<path d="m 519.28448,616.97294 c 0.66641,0.70979 1.36132,1.39386 1.99923,2.12937 1.84509,2.12739 6.1192,7.64421 7.31725,9.15075 8.62218,10.84235 17.25286,21.67176 25.79616,32.57689 16.41217,20.6496 32.65989,41.43651 49.55502,61.69654 11.92705,14.30249 14.78622,17.43623 26.89688,31.33842 19.88862,22.91715 41.51591,44.20217 63.52192,65.05862 7.96182,7.32907 15.88995,14.75247 24.69281,21.08313 5.50791,3.96107 8.02363,5.37602 13.74809,8.90685 18.25723,10.46811 38.1632,17.75932 58.28016,23.76089 5.8737,1.75232 11.8083,3.29364 17.71244,4.94046 28.44665,6.7439 13.76908,3.5184 44.05113,9.5923 52.00708,10.38095 66.68795,-63.16817 14.68088,-73.54911 v 0 c -26.80427,-5.32113 -13.91494,-2.51817 -38.68824,-8.31523 -19.41233,-5.34732 -39.09762,-10.76006 -56.9022,-20.4099 -2.4807,-1.49711 -5.33462,-3.15855 -7.74312,-4.82165 -6.60366,-4.55993 -12.27792,-10.30453 -18.24451,-15.62795 -20.27703,-19.21099 -40.24516,-38.77765 -58.56742,-59.89325 -11.45741,-13.14174 -14.21395,-16.1629 -25.50394,-29.69287 -16.52546,-19.80418 -32.40069,-40.13772 -48.45306,-60.32362 -8.63069,-11.014 -17.32952,-21.96775 -26.05554,-32.90604 -5.05963,-6.34237 -6.46089,-8.33018 -11.67071,-14.16977 -1.1092,-1.24328 -2.29979,-2.41149 -3.44968,-3.61723 -37.542,-37.45796 -90.51554,15.63444 -52.97355,53.0924 z"/>
</svg>
