<?xml version="1.0" ?>
<svg xmlns="http://www.w3.org/2000/svg" width="1000" height="1000">
<path d="m 315.09614,161.18824 c 6.91266,24.8688 10.6178,50.49293 14.42338,75.97628 4.57042,33.10544 7.95244,66.37859 10.02581,99.73468 1.21652,19.57125 1.29791,25.63361 1.94974,44.72207 0.10077,5.86982 0.20154,11.73965 0.30231,17.60947 0.92653,53.02492 75.91508,51.71461 74.98856,-1.31031 v 0 c -0.11176,-6.29334 -0.22353,-12.58669 -0.33529,-18.88003 -0.70432,-20.2982 -0.79328,-26.72069 -2.0989,-47.52628 -2.21335,-35.27069 -5.80184,-70.45377 -10.65936,-105.4575 -4.3998,-29.30306 -8.7587,-58.76723 -17.0245,-87.28457 -15.85065,-50.608871 -87.42239,-28.19267 -71.57175,22.41619 z"/>
<path d="m 388.01489,201.09545 c 18.57459,-3.47707 36.94223,-7.94512 55.52633,-11.3838 6.50438,-1.20352 13.03164,-2.27992 19.54747,-3.41988 35.28203,-5.77259 70.97031,-9.31734 106.73166,-9.85723 6.22678,-0.094 12.45491,0.041 18.68236,0.0615 20.27232,0.70221 40.77166,1.78754 60.48565,6.90733 1.54536,0.49022 3.17065,0.97301 4.69155,1.55949 0.16706,0.0644 0.65533,0.26426 0.47714,0.2467 -2.21381,-0.21818 -6.73528,-4.14747 -7.41977,-4.63443 -9.78316,-11.18548 -2.76576,-2.1025 -8.88141,-12.41513 -0.0563,-0.0949 -0.28817,0.0572 -0.28548,0.16754 0.0395,1.62185 0.29639,3.23138 0.40784,4.84989 0.72208,10.48582 0.55329,9.29262 0.8567,20.94791 0.51251,37.12865 -2.18799,74.18816 -5.49689,111.13969 -2.30993,24.69885 -6.51656,49.18388 -12.90603,73.15669 -3.3193,12.45376 -4.935,16.86629 -8.83098,28.76573 -16.41885,50.42739 54.89625,73.64714 71.3151,23.21975 v 0 c 4.61357,-14.23651 6.46327,-19.30894 10.38251,-34.22445 7.25805,-27.6221 12.07692,-55.81706 14.74228,-84.24843 3.54928,-39.86888 6.41163,-79.85635 5.76446,-119.91413 -0.32323,-10.86487 -0.30243,-16.27204 -1.24764,-26.77353 -0.94838,-10.53672 -2.33372,-21.55301 -7.91906,-30.83679 -2.07723,-3.45269 -5.04125,-6.28726 -7.56187,-9.43089 -2.26085,-1.72816 -4.43681,-3.57344 -6.78256,-5.18447 -6.85551,-4.70824 -15.29793,-6.67104 -23.08584,-9.14435 -7.35765,-1.80418 -9.24536,-2.38637 -17.126,-3.75543 -20.27614,-3.52246 -40.8739,-4.88996 -61.4242,-5.39853 -7.09912,-0.007 -14.19922,-0.14012 -21.29735,-0.0214 -39.2802,0.65723 -78.47679,4.57488 -117.22774,10.94435 -7.02906,1.2355 -14.07046,2.40281 -21.08719,3.70651 -17.85184,3.31684 -35.51679,7.50709 -53.33426,10.98572 -52.31458,8.69969 -40.01137,82.68368 12.30322,73.98399 z"/>
<path d="m 389.56435,416.34058 c 20.13815,0.78588 40.3071,0.31202 60.45131,0.0207 44.3914,-0.83247 88.76274,-2.32469 133.16115,-2.77988 16.49613,-0.0987 32.99179,0.0468 49.48685,0.20842 53.03048,0.51809 53.76316,-74.47833 0.73269,-74.99642 v 0 c -16.9972,-0.16561 -33.99503,-0.31403 -50.9933,-0.208 -44.50294,0.46196 -88.97921,1.93259 -133.47483,2.78376 -18.12464,0.26352 -36.26252,0.65523 -54.3861,0.13682 -52.91607,-3.51982 -57.89384,71.31481 -4.97777,74.83463 z"/>
<path d="m 211.30149,217.65305 c -1.58386,29.35629 -2.41882,58.73176 -2.79317,88.12606 -0.0978,49.80712 1.33198,99.60133 2.59185,149.38802 0.66192,26.30423 1.1948,52.61179 1.49965,78.92265 0.22345,11.20462 -0.58355,25.42151 8.33942,34.0964 7.66987,7.45665 17.87584,12.20078 27.97758,15.7198 4.67212,1.62757 9.88021,-0.54055 14.82031,-0.81082 3.04167,-0.69546 6.09089,-1.35866 9.12499,-2.08638 11.23369,-2.69434 8.04422,-2.22323 20.19448,-4.86795 15.77996,-3.43478 31.67172,-6.01743 47.61917,-8.52714 43.9229,-6.14183 88.26314,-8.42143 132.53539,-10.31283 35.54521,-1.54253 71.11854,-2.20532 106.69034,-1.48432 8.23871,0.24142 16.4719,0.63944 24.69847,1.14232 2.94444,0.17999 5.93698,0.29352 8.86762,0.66429 -13.64415,-1.0921 -20.7894,-10.48985 -27.80143,-21.71697 -1.8148,-2.90572 -0.97838,-6.86651 -2.35222,-10.00487 -0.2906,-0.66384 -0.94165,1.12329 -1.24836,1.77984 -1.39981,2.99652 -2.56945,6.09526 -3.85417,9.14289 -8.91616,18.65817 -20.16658,36.12927 -32.01026,53.04094 -5.06801,7.23664 -10.43461,14.25951 -15.65191,21.38927 -31.26092,42.83988 29.32382,87.04949 60.58473,44.20961 v 0 c 5.83846,-8.02102 11.85157,-15.91778 17.51537,-24.06307 14.78603,-21.26427 28.66643,-43.31084 39.30134,-66.98266 3.61892,-9.4827 9.57031,-22.7295 10.17672,-33.2304 0.3854,-6.6736 0.98756,-13.84272 -1.64691,-19.98641 -7.63409,-17.80307 -17.50794,-25.54184 -35.12629,-28.16237 -13.2745,-1.32141 -26.63227,-1.67328 -39.95391,-2.20743 -37.14161,-0.73273 -74.28496,-0.0858 -111.39871,1.53805 -47.11527,2.02317 -94.29987,4.50867 -141.02886,11.16282 -25.89735,4.10536 -51.81733,8.45032 -77.10732,15.50831 13.36788,0.97562 15.68029,0.066 30.15246,15.62075 3.92194,4.21532 3.93241,10.82403 5.77878,16.27759 0.0658,0.19434 -0.0473,0.81733 -0.0604,0.61256 -0.11827,-1.85311 -0.13085,-7.20216 -0.14145,-8.33183 -0.30958,-26.65331 -0.84748,-53.30334 -1.51861,-79.94993 -1.23595,-48.84111 -2.64103,-97.68926 -2.57375,-146.55024 0.35683,-28.92581 1.22508,-57.8299 2.76231,-86.71872 1.66017,-53.00702 -73.30307,-55.35485 -74.96324,-2.34783 z"/>
<path d="m 180.49368,727.39995 c 22.77369,-5.27776 45.77713,-9.42951 68.77712,-13.5735 49.8047,-8.51536 100.02007,-14.64446 150.37533,-18.78281 12.52112,-1.02902 25.06124,-1.81209 37.59186,-2.71813 64.52821,-3.87319 129.25103,-4.69864 193.86662,-2.80806 11.61102,0.33973 23.21446,0.90215 34.82168,1.35322 29.02135,1.40931 58.00527,3.55399 86.91952,6.41118 11.6824,1.15441 28.42363,2.90132 40.29149,4.8823 5.39453,0.90046 10.72593,2.1451 16.0889,3.21765 52.04203,10.20427 66.47304,-63.39428 14.43101,-73.59854 v 0 c -6.7788,-1.30818 -13.52401,-2.80431 -20.33639,-3.92453 -12.81268,-2.1069 -30.92174,-4.01262 -43.64135,-5.2649 -30.2235,-2.97558 -60.51952,-5.20732 -90.85456,-6.66713 -12.06927,-0.46466 -24.13467,-1.04417 -36.20782,-1.394 -66.92881,-1.93927 -133.96717,-1.05627 -200.80296,2.98919 -13.03083,0.94736 -26.07156,1.76732 -39.09251,2.8421 -52.49313,4.33288 -104.83756,10.75226 -156.75432,19.65178 -23.45711,4.22933 -46.92664,8.4397 -70.15108,13.83438 -52.00756,10.37854 -37.33009,83.92833 14.67746,73.5498 z"/>
<path d="m 309.1372,737.77456 c -0.50964,1.47812 -0.93094,2.98972 -1.5289,4.43436 -2.45246,5.92501 -6.42804,13.515 -9.41113,18.73756 -6.66203,11.66335 -13.47531,22.26973 -21.31204,33.24348 -4.56527,6.39273 -9.43782,12.56036 -14.15673,18.84054 -5.21376,5.92655 -10.42752,11.8531 -15.64128,17.77966 -34.85253,39.9725 21.67713,89.26142 56.52966,49.28891 v 0 c 6.38831,-7.37992 12.77663,-14.75983 19.16494,-22.13975 5.45811,-7.32275 11.09925,-14.51259 16.37434,-21.96827 15.43718,-21.81853 29.87668,-44.98378 39.57866,-69.99069 0.99978,-2.57695 1.72627,-5.25175 2.5894,-7.87763 14.38833,-51.04387 -57.7986,-71.39203 -72.18692,-20.34817 z"/>
<path d="m 568.64155,787.35078 c 10.78969,6.27628 21.04687,13.58515 30.71759,21.47467 3.24707,2.64901 6.36746,5.44961 9.5512,8.17442 12.39933,11.18516 24.08581,23.16261 34.69698,36.06278 3.95596,4.80933 6.81772,8.7062 10.51743,13.61816 1.17926,1.64379 2.35853,3.28757 3.53779,4.93136 30.98389,43.04066 91.85258,-0.77717 60.86869,-43.81784 v 0 c -1.51982,-2.10558 -3.03963,-4.21117 -4.55945,-6.31676 -4.98718,-6.58777 -7.95481,-10.64053 -13.39618,-17.19621 -13.19363,-15.8955 -27.67522,-30.68573 -43.09336,-44.4284 -4.11399,-3.47788 -8.15144,-7.04838 -12.34198,-10.43365 -13.10896,-10.58987 -27.03463,-20.332 -41.75923,-28.53784 -47.00089,-24.56452 -81.74038,41.90478 -34.73948,66.46931 z"/>
</svg>
