<?xml version="1.0" ?>
<svg xmlns="http://www.w3.org/2000/svg" width="1000" height="1000">
<path d="m 253.36566,171.49325 c 4.43535,21.55876 11.82706,42.36335 17.38934,63.63735 1.9424,7.42905 3.65753,14.91566 5.48629,22.37349 8.12658,35.94912 13.85532,72.37874 21.71852,108.38262 5.564,25.47636 6.32816,27.23587 12.98012,52.27104 13.6569,51.24441 86.12744,31.93063 72.47053,-19.31377 v 0 c -6.12325,-22.90031 -6.85313,-24.59972 -11.99516,-48.09963 -8.08023,-36.92796 -13.87188,-74.31578 -22.34677,-111.16212 -2.03109,-8.22707 -3.94456,-16.48406 -6.09328,-24.68119 -4.95587,-18.9061 -11.33041,-37.43055 -15.75589,-56.47039 -9.23666,-52.22245 -83.09035,-39.15985 -73.8537,13.0626 z"/>
<path d="m 433.55811,185.4988 c 21.51107,-7.98936 44.3086,-11.54913 66.87401,-15.07923 26.58871,-3.7054 53.41331,-5.55844 80.25866,-5.05749 13.7371,0.25634 17.54407,0.67484 30.67702,1.59053 11.4772,0.96862 22.88084,2.69742 34.12122,5.19949 -8.852,-2.12809 -14.82565,-8.31342 -20.28613,-15.74648 -1.64032,-2.23289 -1.90633,-5.23237 -3.28775,-7.63407 -0.33791,-0.58748 0.0437,1.35474 0.0656,2.03211 2.03309,26.43371 2.37894,53.07452 0.003,79.50332 -0.75979,8.45216 -1.96614,16.8582 -2.94921,25.28731 -6.28035,38.1736 -13.60874,76.30683 -24.0291,113.59704 -6.57807,23.54026 -8.88169,28.76752 -17.02519,51.64431 -17.71008,49.98853 52.98438,75.03436 70.69446,25.04583 v 0 c 9.19137,-26.05348 11.57144,-31.39346 18.99879,-58.13337 11.27268,-40.58385 19.25683,-82.07017 25.87558,-123.63425 1.10228,-9.81003 2.46066,-19.59465 3.30686,-29.43008 2.64143,-30.70179 2.20138,-61.65208 -0.3537,-92.33738 -1.00751,-7.63769 -1.43018,-15.28002 -5.64332,-22.19364 -7.52646,-12.35069 -15.96387,-18.0901 -29.16852,-21.229822 -14.89732,-3.281872 -30.00309,-5.570413 -45.21309,-6.796058 -15.10867,-1.013239 -20.05904,-1.524835 -35.77561,-1.764794 -30.76641,-0.469738 -61.50963,1.657949 -91.97236,5.976136 -7.40911,1.180282 -14.8419,2.220567 -22.22735,3.540846 -21.62735,3.866272 -43.24663,8.974462 -63.66404,17.199862 -48.38015,21.72235 -17.66012,90.14223 30.72004,68.41988 z"/>
<path d="m 379.02705,421.21172 c 20.90246,-4.04565 42.10608,-6.12638 63.28461,-8.07651 34.97789,-2.59973 70.06721,-4.56536 105.15815,-4.21002 6.05372,0.0613 12.10364,0.32691 18.15546,0.49037 21.49768,1.68416 10.90088,0.43712 31.79594,3.69371 52.45113,7.83444 63.5307,-66.34267 11.07957,-74.17711 v 0 c -27.55685,-3.98363 -13.91185,-2.51303 -40.92636,-4.49127 -6.83418,-0.17155 -13.6665,-0.45097 -20.50253,-0.51465 -37.26821,-0.34714 -74.53457,1.73007 -111.68041,4.52892 -23.2146,2.1635 -46.45296,4.47724 -69.37018,8.89284 -52.22954,9.19645 -39.22379,83.06018 13.00575,73.86372 z"/>
<path d="m 311.83001,581.1306 c 25.73601,-6.57678 52.07821,-10.45331 78.29127,-14.56417 50.61892,-7.43398 101.57176,-12.84883 152.67219,-15.54461 10.37243,-0.54719 20.75771,-0.8148 31.13656,-1.2222 32.93107,-0.91603 65.91769,-0.11356 98.70132,3.22007 12.84435,1.30609 16.78714,2.00468 28.8372,3.77542 52.4783,7.65041 63.29761,-66.5651 10.81932,-74.21551 v 0 c -13.86313,-2.00712 -18.47155,-2.81234 -33.1664,-4.27857 -35.93115,-3.58516 -72.07735,-4.47697 -108.16395,-3.44248 -11.03137,0.44183 -22.06949,0.73864 -33.09409,1.32548 -53.34414,2.83954 -106.53323,8.51013 -159.37339,16.28979 -29.63877,4.65724 -59.44681,9.06117 -88.45262,16.8927 -50.74487,15.40969 -28.95228,87.17377 21.79259,71.76408 z"/>
<path d="m 471.41756,526.66351 c -4.75265,32.26069 -5.01447,64.97893 -5.73666,97.51639 -0.84253,57.96935 -3.04536,115.90347 -4.83064,173.84782 -1.00746,37.84959 -0.55859,19.03693 -1.35031,56.4379 -1.12132,53.02115 73.86191,54.60693 74.98323,1.58578 v 0 c 0.77936,-36.88713 0.33693,-18.31566 1.33152,-55.71434 1.79146,-58.16196 4.00124,-116.31369 4.8479,-174.50071 0.63939,-29.0857 0.7678,-58.34006 4.79384,-87.20437 8.46298,-52.3534 -65.5759,-64.32186 -74.03888,-11.96847 z"/>
<path d="m 405.0927,728.77023 c 21.6394,-5.85084 43.96656,-8.72933 66.15109,-11.6214 29.25765,-3.39723 58.71733,-5.40712 88.18417,-4.6858 16.915,0.41406 21.77837,1.08408 38.10886,2.51939 4.84573,0.60353 9.69145,1.20705 14.53717,1.81058 52.63737,6.4658 61.7814,-67.97469 9.14402,-74.44049 v 0 c -5.74809,-0.69779 -11.49619,-1.39557 -17.24428,-2.09335 -19.14255,-1.62043 -24.61743,-2.36794 -44.40717,-2.796 -32.77641,-0.70897 -65.54395,1.50152 -98.08335,5.32351 -27.63678,3.64965 -55.58839,7.19783 -82.26752,15.5891 -49.7764,18.2978 -23.89939,88.69227 25.87701,70.39446 z"/>
<path d="m 218.26601,941.95558 c 24.09669,-4.89511 48.06923,-10.3834 72.22998,-14.96717 8.93249,-1.69467 17.89302,-3.23811 26.83953,-4.85717 58.63346,-9.95946 117.98635,-15.18537 177.34385,-18.3383 13.3158,-0.7073 26.64327,-1.17441 39.96491,-1.76162 61.52182,-1.93824 123.17261,-2.76673 184.67019,0.46542 10.27947,0.54026 20.54247,1.35794 30.81371,2.03691 24.95995,1.96951 49.81117,5.20019 74.44047,9.69637 13.98307,2.55267 19.54987,3.95236 32.81031,6.97083 51.72037,11.72617 68.30369,-61.41748 16.58331,-73.14365 v 0 c -15.08312,-3.40761 -21.15433,-4.93077 -37.06625,-7.80715 -27.08488,-4.89611 -54.40932,-8.41417 -81.85101,-10.55506 -10.91462,-0.71292 -21.82075,-1.57046 -32.74386,-2.13876 -63.59732,-3.30877 -127.35012,-2.48325 -190.97113,-0.45164 -13.77412,0.61133 -27.55433,1.09793 -41.32235,1.83399 -62.27565,3.32937 -124.5367,8.89441 -186.04454,19.39443 -9.38967,1.70349 -18.79377,3.3293 -28.16902,5.11049 -24.75611,4.70335 -49.32441,10.31114 -74.01236,15.34604 -51.7362,11.65613 -35.25195,84.82217 16.48426,73.16604 z"/>
</svg>
