<?xml version="1.0" ?>
<svg xmlns="http://www.w3.org/2000/svg" width="1000" height="1000">
<path d="m 169.01464,188.74846 c 0.40402,29.66242 0.61118,59.32319 0.60112,88.98913 0.29437,63.6734 -1.30679,127.37528 -6.94476,190.82194 -1.32639,14.92647 -3.03761,29.81624 -4.55641,44.72436 -1.86134,15.17055 -3.58362,30.35881 -5.584,45.51165 -4.26965,32.34236 -8.06193,57.9803 -13.99195,90.02692 -7.72936,41.77056 -17.35902,83.14978 -27.02642,124.50115 -8.29118,30.82329 -9.47427,37.20989 -19.325943,66.54946 -3.155202,9.39661 -6.699756,18.65795 -10.049634,27.98693 -17.873032,49.9305 52.739357,75.20678 70.612387,25.27628 v 0 c 3.66621,-10.2713 7.54643,-20.46871 10.99861,-30.81391 10.58279,-31.71359 11.94179,-38.87306 20.79709,-71.93261 10.01024,-42.85688 19.95696,-85.74094 27.93954,-129.03556 6.10195,-33.09478 10.09635,-60.0754 14.48969,-93.43811 2.06292,-15.6657 3.83772,-31.368 5.75658,-47.052 1.57637,-15.55933 3.35314,-31.09966 4.72911,-46.67799 5.76867,-65.31138 7.45323,-130.88236 7.15611,-196.42511 0.008,-29.67365 -0.18587,-59.34251 -0.60112,-89.01253 0,-53.03301 -75,-53.03301 -75,0 z"/>
<path d="m 258.78161,240.55668 c 21.17977,-4.36134 41.79516,-11.04456 62.76585,-16.26196 7.19577,-1.79027 14.44227,-3.37005 21.6634,-5.05508 57.97856,-12.33859 116.78175,-20.1971 175.56197,-27.54385 50.61837,-6.45534 101.49695,-10.45703 152.48188,-12.28651 13.79572,-0.34507 27.60414,-0.53655 41.40059,-0.10083 5.40312,0.17064 10.75882,0.47692 16.11105,1.21469 -1.29409,0.72514 1.07773,-0.0147 1.05718,0.35669 -0.003,0.0496 -0.1015,0.0143 -0.14903,-1.5e-4 -0.68677,-0.20858 -1.38285,-0.39562 -2.04735,-0.6669 -1.1284,-0.46067 -2.34874,-0.79317 -3.32298,-1.52553 -3.8164,-2.86887 -7.31017,-6.1435 -10.96526,-9.21525 -1.88138,-3.48044 -3.76276,-6.96087 -5.64414,-10.4413 -0.11715,-0.13479 -0.35698,-0.58285 -0.35146,-0.40436 0.0548,1.77208 0.3455,3.52903 0.50265,5.29498 0.29998,3.37117 0.59188,6.7431 0.86872,10.11625 3.74209,45.59648 -1.99546,-22.86743 2.65454,32.33576 3.16272,34.85343 6.93112,69.65624 9.19545,104.58651 1.99705,30.80699 1.90755,36.46924 2.89439,67.80344 1.73044,76.21766 -2.61184,152.35779 -7.57144,228.37386 -3.3108,46.72706 -7.18558,93.45093 -13.75991,139.84908 -3.36609,23.75609 -5.15309,32.67942 -9.27791,55.88292 -4.0041,21.0253 -8.35798,41.9962 -13.46058,62.78547 -1.83374,7.47112 -4.71179,18.51676 -7.19035,26.10788 -0.8449,2.58767 -1.89927,5.1022 -2.84891,7.6533 -0.53582,0.68618 -1.84533,2.89603 -1.60746,2.05856 2.00864,-7.07189 7.98597,-9.49922 14.48944,-13.11314 1.85888,-1.03297 5.86053,0.32743 6.12573,-1.78257 0.26304,-2.09288 -3.65355,-2.1105 -5.51074,-3.11058 -4.41517,-2.37753 -8.86985,-4.68093 -13.30478,-7.0214 -21.52404,-12.03672 -42.6947,-24.69261 -63.97372,-37.15411 -45.76311,-26.79996 -83.66398,37.91885 -37.90087,64.71881 v 0 c 22.3749,13.10326 44.62406,26.43342 67.31013,38.99579 9.56873,4.91009 26.66318,14.45849 37.36708,16.84213 7.87814,1.75438 16.17032,3.55703 24.11777,2.14949 18.63565,-3.30048 27.36145,-10.52636 37.14546,-24.65333 2.63245,-3.80094 4.17053,-8.25314 6.25579,-12.37972 1.42982,-4.01582 2.98242,-7.99003 4.28947,-12.04748 2.82722,-8.77649 6.13063,-21.46476 8.26933,-30.20118 5.41048,-22.10147 10.03137,-44.39399 14.27391,-66.74578 4.3994,-24.84145 6.22313,-33.92899 9.81546,-59.39424 6.76623,-47.96431 10.80554,-96.25758 14.2167,-144.55942 5.11219,-78.43319 9.53336,-156.99687 7.69256,-235.63649 -0.39106,-12.20204 -0.64618,-24.40919 -1.17318,-36.60611 -2.01752,-46.69404 -6.70947,-93.19026 -11.14364,-139.69874 -1.23139,-14.61025 -2.25127,-29.25 -3.65376,-43.84531 -0.33302,-3.46568 -1.34334,-14.1558 -2.56052,-17.51851 -1.82597,-5.04465 -4.53988,-9.72215 -6.80982,-14.58322 -4.10023,-3.65825 -7.96076,-7.60432 -12.30068,-10.97475 -1.46394,-1.1369 -3.2899,-1.71531 -4.99013,-2.45346 -5.62822,-2.44347 -11.73554,-3.59152 -17.7456,-4.60186 -23.05562,-2.73191 -46.33401,-2.12118 -69.50016,-1.64088 -53.18879,1.93817 -106.27046,6.07246 -159.0778,12.8172 -61.39839,7.68268 -122.81823,15.93208 -183.35642,28.93988 -7.96698,1.87184 -15.95961,3.63768 -23.90094,5.61552 -18.77995,4.67727 -37.27021,10.50305 -56.14231,14.81152 -52.26529,8.99111 -39.54993,82.90538 12.71535,73.91427 z"/>
<path d="m 348.05831,386.82382 c 29.38201,-9.84552 59.91347,-15.64598 90.32175,-21.2673 30.38522,-4.90692 61.08069,-7.85862 91.84747,-8.71822 14.40533,-0.40247 19.79259,-0.21818 33.74676,-0.064 15.98126,0.53957 8.44837,0.21365 22.6006,0.93156 52.96639,2.65745 56.72458,-72.24833 3.7582,-74.90578 v 0 c -16.00221,-0.795 -7.47528,-0.43628 -25.58303,-1.02176 -15.52784,-0.15084 -21.67164,-0.3513 -37.6963,0.12719 -34.28993,1.02386 -68.49929,4.34729 -102.35216,9.90891 -34.44418,6.409 -69.01487,13.09947 -102.22336,24.50651 -49.85309,18.08785 -24.27301,88.59075 25.58007,70.50291 z"/>
<path d="m 417.88119,252.50084 c -0.008,26.07368 -0.017,52.14715 0.0782,78.22068 0.32441,31.87737 0.53485,63.754 0.52293,95.63298 -0.0185,53.033 74.98149,53.05917 74.99999,0.0262 v 0 c 0.0104,-31.97924 -0.1949,-63.9562 -0.52343,-95.93382 -0.0955,-25.98196 -0.0853,-51.96388 -0.0777,-77.946 0,-53.03301 -75,-53.03301 -75,0 z"/>
<path d="m 248.80095,537.143 c 24.12739,-8.45033 49.43979,-12.78046 74.50071,-17.41316 49.62877,-8.44862 99.83097,-13.05469 150.1107,-15.12344 11.0364,-0.45409 22.08134,-0.66925 33.12201,-1.00388 38.25606,-0.72831 76.58993,-0.15314 114.724,3.20882 19.00688,1.67567 25.65853,2.78289 44.17678,5.2866 15.233,2.18141 30.34042,5.10399 45.43994,8.04241 52.0588,10.1184 66.36838,-63.50386 14.30958,-73.62226 v 0 c -16.53255,-3.20967 -33.07637,-6.38771 -49.75721,-8.75153 -20.66213,-2.76313 -27.5827,-3.91966 -48.81332,-5.76375 -40.67959,-3.53343 -81.56565,-4.1661 -122.37182,-3.36526 -11.58223,0.35706 -23.16906,0.5875 -34.74669,1.0712 -53.55245,2.23732 -107.01777,7.21879 -159.8672,16.278 -30.11354,5.59911 -60.54815,10.97075 -89.32887,21.78283 -49.05441,20.15353 -20.55302,89.52694 28.50139,69.37342 z"/>
<path d="m 302.58463,626.59524 c 7.86149,17.20209 11.99883,35.71814 15.95657,54.11346 4.70423,22.44398 6.08464,45.31011 6.47934,68.1723 0.15521,9.03392 0.05,4.70924 0.30051,12.97439 1.63811,53.0077 76.60232,50.69106 74.96421,-2.31665 v 0 c -0.22932,-7.25101 -0.12646,-3.25503 -0.27653,-11.98871 -0.13183,-7.25221 -0.20709,-14.1472 -0.57909,-21.42204 -1.05329,-20.59764 -3.55127,-41.11115 -7.59745,-61.3388 -5.90991,-26.99552 -12.32957,-54.44996 -26.11836,-78.6872 -28.63306,-44.63909 -91.76226,-4.14583 -63.1292,40.49325 z"/>
<path d="m 388.63089,646.49391 c 17.01028,-7.37756 34.97674,-12.0532 52.92151,-16.49983 22.15677,-5.09676 44.76816,-8.3647 67.50399,-9.14815 3.2854,-0.11322 6.5742,-0.0818 9.8613,-0.12264 9.12927,0.11421 18.38186,0.34439 27.27082,2.62161 0.43146,0.11889 0.86801,0.22064 1.29438,0.35667 0.10302,0.0329 -0.21774,-0.0144 -0.32112,-0.0462 -0.57632,-0.17687 -1.18692,-0.28497 -1.71361,-0.57827 -3.10532,-1.72929 -6.52564,-3.07716 -9.15171,-5.47241 -7.75324,-7.07175 -7.80235,-8.89317 -10.87827,-16.62261 -0.0782,0.40139 -0.20512,0.79631 -0.23458,1.20419 -0.13214,1.82935 -0.13198,3.66635 -0.24943,5.49671 -0.42332,6.59701 -1.04297,13.5281 -1.82315,20.06479 -1.28673,10.78072 -2.13616,15.37276 -3.88085,26.31187 -5.26941,28.25309 -9.88232,56.63953 -15.85359,84.75634 -0.7741,3.2029 -1.5482,6.4058 -2.32229,9.6087 -12.38625,51.56627 60.53947,69.08307 72.92572,17.5168 v 0 c 0.92397,-3.86645 1.84793,-7.7329 2.7719,-11.59935 6.1964,-29.37829 11.11728,-59.00839 16.5523,-88.53357 2.30511,-14.60455 4.51479,-29.16435 5.76644,-43.90536 0.58799,-6.92481 1.22629,-16.36554 1.0222,-23.40527 -0.10201,-3.51876 -0.54154,-7.01962 -0.81232,-10.52943 -1.2017,-4.30102 -1.58027,-8.92273 -3.6051,-12.90304 -7.40525,-14.55688 -17.13987,-21.07709 -32.018,-24.6578 -15.04513,-3.51042 -30.45661,-4.82024 -45.90136,-4.6754 -4.28827,0.0765 -8.57905,0.0643 -12.86482,0.22939 -27.44868,1.05755 -54.7422,5.03821 -81.48284,11.26019 -22.79601,5.71337 -45.60689,11.84705 -67.07783,21.58387 -47.86277,22.83977 -15.56246,90.52795 32.30031,67.68818 z"/>
<path d="m 385.85525,784.55151 c 17.89015,-4.05269 36.30475,-5.18449 54.54934,-6.55335 24.06303,-1.77289 48.1799,-1.37527 72.2527,-0.2009 52.97214,2.54001 56.56426,-72.37392 3.59211,-74.91392 v 0 c -27.152,-1.28197 -54.35243,-1.69964 -81.48916,0.32751 -22.45874,1.7041 -45.08976,3.30817 -67.05697,8.57043 -51.45632,12.83539 -33.30434,85.60561 18.15198,72.77023 z"/>
</svg>
