<?xml version="1.0" ?>
<svg xmlns="http://www.w3.org/2000/svg" width="1000" height="1000">
<path d="m 37.452174,418.34094 c 8.198216,24.16727 11.934466,49.64835 16.085456,74.73978 9.17926,61.36818 12.14868,123.39838 14.10499,185.3436 1.68024,53.00639 76.64258,50.63017 74.96235,-2.37621 v 0 c -2.07631,-65.26703 -5.29316,-130.61972 -15.082,-195.26251 -3.60416,-21.59892 -4.41261,-28.14327 -8.84669,-48.72408 -3.0274,-14.05168 -6.45611,-28.14007 -11.64392,-41.57505 -0.75383,-1.9522 -1.68545,-3.83102 -2.52817,-5.74653 -23.75949,-47.41294 -90.811507,-13.81194 -67.052016,33.601 z"/>
<path d="m 105.69801,462.77172 c 16.8136,-4.55036 33.45752,-9.69173 50.37398,-13.86795 5.50159,-1.35819 11.03367,-2.58979 16.5505,-3.88469 28.40822,-6.0483 57.16629,-10.64456 86.15266,-12.72703 4.32597,-0.31079 8.66178,-0.46475 12.99266,-0.69713 10.12051,-0.2129 20.43119,-0.33099 30.25718,2.42341 -1.04523,0.0118 -3.95088,-1.3788 -4.51774,-1.7751 -2.87127,-2.00735 -6.02427,-3.77551 -8.32003,-6.42186 -5.6657,-6.53091 -6.2157,-8.75668 -8.39796,-14.75277 -0.22593,22.33962 -2.373,44.68256 -6.1854,66.69502 -1.26709,7.31605 -2.86252,14.57142 -4.29378,21.85713 -7.15046,31.86798 -14.92509,63.6301 -24.71349,94.80378 -2.11977,6.75096 -4.45025,13.43394 -6.67538,20.15091 -16.6385,50.35535 54.57471,73.88573 71.21321,23.53039 v 0 c 2.44555,-7.41855 5.0058,-14.80026 7.33666,-22.25564 10.47765,-33.51345 18.85731,-67.64212 26.45903,-101.90848 1.6281,-8.44161 3.44525,-16.84895 4.8843,-25.32483 2.52904,-14.89581 4.1654,-28.65986 5.43979,-43.65119 0.75663,-8.90055 1.44884,-21.16295 1.47322,-30.33689 0.01,-3.67563 -0.20689,-7.34839 -0.31033,-11.02258 -0.70358,-4.15066 -0.61667,-8.51615 -2.11074,-12.45198 -2.12299,-5.59256 -4.93434,-11.02289 -8.59616,-15.7531 -5.90377,-7.62628 -15.17626,-11.34171 -24.00417,-14.01902 -17.35889,-4.33455 -35.20764,-5.53652 -53.07306,-4.67313 -5.15006,0.29111 -10.30591,0.49332 -15.45017,0.87335 -32.55101,2.40469 -64.85232,7.56404 -96.74489,14.43202 -6.10022,1.43964 -12.21686,2.81139 -18.30066,4.31893 -16.89838,4.18733 -33.5464,9.25799 -50.33127,13.85682 -51.32295,13.35868 -32.43092,85.9403 18.89204,72.58161 z"/>
<path d="m 115.49683,663.22623 c 27.96985,-1.95119 55.7012,-6.22248 83.39003,-10.48733 23.99647,-4.04157 48.07415,-7.53502 72.16854,-10.92858 52.51378,-7.40293 42.04445,-81.66863 -10.46933,-74.2657 v 0 c -24.41334,3.44456 -48.8123,6.97425 -73.12719,11.07005 -25.20658,3.89002 -50.44195,7.81399 -75.89514,9.71476 -52.96003,2.78111 -49.02694,77.67791 3.93309,74.8968 z"/>
<path d="m 374.21231,239.30005 c 27.54968,-2.98528 54.93874,-7.31866 82.38136,-11.1443 36.5234,-5.40051 73.15487,-9.96779 110.01279,-12.23892 7.31148,-0.456 14.62782,-0.50748 21.94292,-0.22376 53.00518,1.7176 55.43423,-73.24306 2.42904,-74.96065 v 0 c -9.6798,-0.27603 -19.3598,-0.31488 -29.03166,0.3293 -14.29664,0.89801 -17.19569,0.97819 -32.16407,2.38662 -27.94916,2.62984 -55.75127,6.52901 -83.54552,10.42589 -25.66001,3.57802 -51.27615,7.51873 -77.00279,10.5912 -52.91606,3.51993 -47.93814,78.35454 4.97793,74.83462 z"/>
<path d="m 442.7889,119.82317 c 0.81924,23.36295 2.39331,46.67865 4.16713,69.9862 3.1796,40.09839 5.78936,80.26687 6.60742,120.49151 0.15393,7.56893 0.15174,15.14024 0.22761,22.71036 0.19352,17.43952 -1.01146,34.82988 -2.34829,52.20096 -4.02122,52.88033 70.76286,58.5672 74.78409,5.68687 v 0 c 1.46891,-19.52287 2.78432,-39.0671 2.56019,-58.66331 -0.0858,-8.06067 -0.0905,-16.12261 -0.25727,-24.18201 -0.85632,-41.37689 -3.52168,-82.69712 -6.79071,-123.94498 -1.75401,-22.97089 -3.26822,-45.94985 -4.09688,-68.97438 -3.31547,-52.929268 -78.16876,-48.24049 -74.85329,4.68878 z"/>
<path d="m 403.5896,336.29374 c 15.09283,-0.88476 30.03869,-3.33522 44.98343,-5.50141 18.10991,-2.62498 14.50718,-2.08455 33.14371,-4.49167 21.49031,-2.90558 43.1539,-3.87038 64.80155,-4.6533 52.99759,-1.938 50.25684,-76.88791 -2.74075,-74.9499 v 0 c -23.9474,0.88452 -47.90783,2.01785 -71.68131,5.22279 -6.02955,0.7809 -12.06391,1.52548 -18.08865,2.34271 -17.62958,2.39139 -35.17871,5.51129 -52.91113,7.07223 -53.0037,1.76292 -50.51055,76.72147 2.49315,74.95855 z"/>
<path d="m 412.42157,492.74032 c 5.92652,-1.32448 6.47369,-1.35756 13.72229,-3.63757 24.95963,-7.85097 49.28041,-17.80312 73.65065,-27.26959 26.91689,-10.35254 53.7173,-21.08122 81.20059,-29.87929 8.87318,-2.84052 17.86259,-5.30429 26.79388,-7.95644 50.82174,-15.15422 29.39043,-87.02702 -21.43131,-71.87279 v 0 c -9.90993,2.966 -19.88185,5.73225 -29.72978,8.89801 -28.41591,9.13471 -56.15655,20.17651 -83.99273,30.90078 -13.51965,5.25294 -28.01233,10.94745 -41.66693,16.03183 -10.06855,3.74909 -20.31025,7.72244 -30.67962,10.64675 -0.83779,0.23627 -1.69616,0.39231 -2.54424,0.58847 -52.0076,10.37835 -37.33039,83.92819 14.6772,73.54984 z"/>
<path d="m 655.99978,270.73777 c 19.53335,-6.60504 39.959,-10.11801 60.26156,-13.40336 25.07489,-3.62646 50.42663,-5.00458 75.74249,-4.4002 9.05127,0.36245 18.07028,1.22025 27.07148,2.20527 -8.49431,-1.14404 -15.15265,-5.79869 -20.94051,-12.08754 -0.91541,-0.99465 -3.75241,-6.00331 -5.31794,-8.75429 2.56368,15.19722 3.52862,30.65864 3.32045,46.06305 -0.0672,4.97581 -0.36293,9.9459 -0.54439,14.91884 -1.94171,27.03138 -6.11134,54.03997 -13.3667,80.18353 -1.26051,4.54205 -2.77144,9.01086 -4.15715,13.51629 -6.29206,19.07978 -16.34191,36.43285 -27.26006,53.1651 -2.94314,4.21126 -5.81642,8.48115 -8.89209,12.59872 -0.3805,0.50939 -1.61295,1.96621 -1.20185,1.48118 5.90763,-6.96984 0.58034,-1.92143 15.02749,-10.52073 4.299,-0.4506 8.598,-0.9012 12.89699,-1.3518 0.32097,-0.16181 1.24366,-0.26096 0.9629,-0.48541 -1.79233,-1.43284 -4.00701,-2.24365 -5.93437,-3.48894 -9.04802,-5.84601 -11.09248,-7.83174 -20.27456,-15.0106 -41.97519,-32.4127 -87.81368,26.94918 -45.83848,59.36188 v 0 c 13.32359,10.19393 26.6498,20.95001 42.08936,27.89459 4.56687,2.05414 9.13617,4.45067 14.08257,5.23096 6.99635,1.10366 14.16391,0.22804 21.24587,0.34206 5.99256,-2.95783 12.33349,-5.29543 17.9777,-8.87349 2.71088,-1.71852 4.6253,-4.45771 6.78997,-6.8276 1.12569,-1.23241 2.06526,-2.6232 3.06401,-3.96055 3.77395,-5.05339 7.28447,-10.30465 10.87066,-15.48983 4.16818,-6.42213 6.88345,-10.46767 10.85445,-17.22115 10.26018,-17.44953 18.93842,-35.80947 25.30253,-55.04853 1.72806,-5.74673 3.60424,-11.45098 5.18419,-17.24018 8.52402,-31.2333 13.4328,-63.45894 15.53422,-95.73534 0.19307,-6.16697 0.52654,-12.33115 0.57922,-18.50091 0.17954,-21.02966 -1.32231,-42.17621 -5.45876,-62.81319 -2.15788,-7.63816 -3.04509,-12.9995 -8.53708,-19.7381 -7.98556,-9.79815 -17.7529,-14.76336 -29.90527,-16.16352 -11.16845,-1.22064 -22.36352,-2.24163 -33.59632,-2.63209 -29.89991,-0.59849 -59.83621,0.92613 -89.43766,5.35958 -25.90774,4.25004 -51.99741,8.88651 -76.69651,18.05297 -49.05435,20.15366 -20.55277,89.52699 28.50159,69.37333 z"/>
<path d="m 674.94581,271.17072 c -0.62602,1.41245 -1.2913,2.80815 -1.87806,4.23737 -2.0736,5.05087 -5.0032,13.06075 -7.14157,17.86768 -1.82154,4.09473 -3.74815,8.14474 -5.78891,12.13474 -7.90024,15.44621 -10.48339,19.15363 -19.78327,34.7613 -9.25547,14.74099 -18.23853,29.51793 -28.37246,43.69186 -5.14162,7.19138 -10.72035,14.05998 -16.08052,21.08997 -32.05073,42.25222 27.70295,87.5788 59.75368,45.32657 v 0 c 6.21975,-8.23573 12.67181,-16.30107 18.65926,-24.70721 10.9755,-15.40914 20.50523,-31.11576 30.53585,-47.12208 4.28519,-7.24476 8.72456,-14.4005 12.85557,-21.73427 6.8819,-12.21743 12.14467,-22.6415 17.74877,-35.31861 4.42376,-10.00707 3.23574,-8.23021 6.24174,-15.73803 0.36708,-0.91682 0.79101,-1.80985 1.18651,-2.71477 22.46798,-48.03843 -45.46861,-79.81294 -67.93659,-31.77452 z"/>
<path d="m 383.30536,649.657 c 21.19526,-5.22521 42.92943,-8.04517 64.50204,-11.21249 52.24448,-6.9422 104.70084,-12.5773 157.3164,-15.79847 11.79357,-0.72201 23.60179,-1.18051 35.40269,-1.77076 39.64903,-1.40626 79.42782,-1.24537 118.93688,2.70711 16.65616,1.66629 21.05347,2.57093 36.73207,5.05954 8.85776,1.43967 17.53697,3.6054 26.06028,6.36774 50.62816,15.78889 72.95703,-55.81015 22.32886,-71.59904 v 0 c -12.06867,-3.68127 -24.24822,-6.92701 -36.74572,-8.85939 -18.06449,-2.81447 -23.22929,-3.85765 -42.29338,-5.72183 -42.78741,-4.18394 -85.8528,-4.4327 -128.78508,-2.85952 -12.35351,0.62418 -24.71464,1.11244 -37.06053,1.87254 -54.45021,3.3523 -108.73677,9.18696 -162.80064,16.39958 -24.00972,3.53378 -48.17,6.76173 -71.74555,12.64469 -51.45638,12.83518 -33.3047,85.60548 18.15168,72.7703 z"/>
<path d="m 534.16989,500.73369 c -0.29425,14.31303 -1.91629,27.31982 -6.15844,41.12075 -1.9051,6.19784 -4.24547,12.25343 -6.36821,18.38015 -3.13943,7.2734 -6.01295,14.66743 -9.41829,21.82019 -18.2993,38.43683 -41.95069,74.39151 -67.75785,108.15525 -7.26106,9.49971 -14.92811,18.68211 -22.39217,28.02316 -21.93342,25.81724 -45.20728,50.57579 -70.22648,73.43988 -7.44114,6.80017 -15.2378,13.20077 -22.8567,19.80116 -40.02776,34.78906 9.17141,91.39685 49.19916,56.60779 v 0 c 8.55622,-7.45779 17.30532,-14.6999 25.66865,-22.37337 27.39259,-25.13307 52.87119,-52.33359 76.85432,-80.71571 8.12777,-10.21184 16.4823,-20.24724 24.38331,-30.63552 29.09519,-38.25448 55.77424,-79.26798 76.12497,-122.90222 4.16037,-8.92029 7.64881,-18.13881 11.47321,-27.20822 2.74023,-8.26266 5.83912,-16.4149 8.22067,-24.788 5.81292,-20.43713 8.92138,-42.10262 7.93456,-63.39199 -0.13256,-2.85983 -0.56916,-5.69744 -0.85375,-8.54616 -9.3429,-52.20355 -83.16986,-38.99069 -73.82696,13.21286 z"/>
<path d="m 622.76922,722.75943 c 12.46122,11.60382 23.72168,24.42004 35.22115,36.95711 15.12314,16.3025 27.97711,34.47637 41.43605,52.12502 9.5768,11.70929 18.72845,24.18988 30.43202,33.9413 3.11838,2.59824 6.4691,4.90422 9.70365,7.35633 18.51993,12.28491 39.21249,20.90439 60.41993,27.35762 5.052,1.53728 10.17719,2.82283 15.26578,4.23424 17.46409,4.63669 35.38915,6.65039 53.28485,8.68917 52.70618,5.87863 61.01983,-68.65917 8.31365,-74.5378 v 0 c -14.02261,-1.52263 -28.07501,-2.98966 -41.78419,-6.48665 -3.84388,-1.0354 -7.71542,-1.9731 -11.53164,-3.10619 -13.83399,-4.10752 -27.45965,-9.36014 -39.8566,-16.80639 -1.03553,-0.65328 -2.13122,-1.21974 -3.10659,-1.95984 -2.51085,-1.9052 -5.14605,-4.73777 -7.21919,-7.00724 -5.02264,-5.49827 -9.72651,-11.28565 -14.29243,-17.1647 -14.83916,-19.44375 -29.07318,-39.41411 -45.79485,-57.3318 -13.13542,-14.32019 -26.03739,-28.92237 -40.38137,-42.06309 -39.45862,-35.43328 -89.56884,20.36963 -50.11022,55.80291 z"/>
</svg>
