<?xml version="1.0" ?>
<svg xmlns="http://www.w3.org/2000/svg" width="1000" height="1000">
<path d="m 233.83453,172.94651 c 2.02785,4.25149 0.88714,1.76343 3.57718,8.16011 4.3407,10.32179 5.70464,13.96344 11.05249,24.826 6.8555,13.92492 9.79943,18.67345 17.4647,32.22693 9.8035,16.93753 22.45905,31.82997 35.05395,46.69047 34.37503,40.38387 91.48646,-8.22976 57.11143,-48.61364 v 0 c -9.59097,-11.20777 -19.37094,-22.33428 -26.93047,-35.08232 -6.23965,-10.96086 -9.14935,-15.70246 -14.70216,-26.8655 -5.26995,-10.59439 -9.3595,-21.65514 -14.34532,-32.37058 -0.91545,-1.96747 -1.96599,-3.86922 -2.94899,-5.80384 -26.04441,-46.197274 -91.37723,-9.36491 -65.33281,36.83237 z"/>
<path d="m 395.70229,147.83879 c 13.75415,15.88508 26.59269,32.54654 39.78746,48.89676 17.12805,19.88532 8.02795,9.93888 27.40259,29.7454 37.22971,37.76835 90.64223,-14.8824 53.41253,-52.65076 v 0 c -15.47044,-15.53805 -7.98155,-7.47633 -22.45225,-24.19852 -25.74188,-31.89166 4.43077,5.54766 -20.5333,-25.60766 -8.69442,-10.8507 -17.21397,-22.09775 -27.41691,-31.614689 -2.39819,-2.236944 -5.04927,-4.186381 -7.5739,-6.279572 -43.63488,-30.141288 -86.2611,31.567751 -42.62622,61.709041 z"/>
<path d="m 709.31553,89.200824 c -0.27409,0.343332 -0.59887,0.651711 -0.82225,1.029997 -6.5395,11.074479 -3.55464,7.469398 -12.48161,20.618919 -15.19608,22.38398 -32.53765,43.26048 -49.40928,64.37057 -31.89097,38.60652 -15.61239,19.33053 -48.85538,57.81136 -34.65968,40.13983 22.10662,89.15602 56.7663,49.01619 v 0 c 34.56644,-40.05013 17.68046,-20.03813 50.68466,-60.01347 12.77398,-15.99426 27.55405,-34.16375 39.80674,-50.72715 11.13736,-15.05568 21.86165,-30.66288 30.47225,-47.33939 1.5743,-3.04902 2.92468,-6.20855 4.38702,-9.31283 17.99883,-49.885287 -52.54962,-75.339484 -70.54845,-25.454196 z"/>
<path d="m 63.189911,372.58616 c 0.660726,2.41642 1.310667,4.83581 1.982177,7.24925 3.384126,12.16272 3.378072,11.49763 6.614857,24.76044 3.138133,12.85857 5.6228,24.87741 9.094504,37.71643 2.063102,7.62974 4.428565,15.17449 6.642848,22.76173 6.952179,21.03655 14.505003,41.88762 23.230573,62.25967 2.31878,5.41377 4.83967,10.73873 7.2595,16.10809 21.85426,48.32072 90.19007,17.41412 68.33581,-30.90659 v 0 c -2.06942,-4.55655 -4.2284,-9.07348 -6.20825,-13.66966 -7.74071,-17.96987 -14.40972,-36.37502 -20.65266,-54.91124 -1.93041,-6.53567 -4.00845,-13.02954 -5.79122,-19.60702 -3.18409,-11.74764 -6.35236,-26.52285 -9.26433,-38.39132 -3.33419,-13.58935 -3.6014,-14.05406 -6.94276,-25.99466 -0.52226,-1.86633 -1.03331,-3.73577 -1.54996,-5.60366 -12.88953,-51.44279 -85.640614,-33.21425 -72.751089,18.22854 z"/>
<path d="m 221.73966,406.55424 c 1.99049,-0.76695 4.00117,-1.4834 5.97146,-2.30085 26.52338,-11.0042 -9.386,3.42906 24.0761,-10.43813 14.84522,-6.15209 26.711,-10.7035 42.25642,-15.71297 9.49406,-3.05943 19.11192,-5.72047 28.66788,-8.5807 62.54476,-16.69333 126.95205,-25.19654 191.4295,-29.78676 13.18151,-0.9384 26.38615,-1.51735 39.57923,-2.27602 54.57087,-2.22749 109.27651,-2.03881 163.79948,1.31094 7.34089,0.451 14.67084,1.06514 22.00626,1.59771 21.31258,1.71972 42.61311,3.99667 63.55279,8.40244 -4.22661,-1.54497 4.79038,1.35354 3.59937,0.99239 -10.1986,-3.0925 -17.18526,-10.38813 -21.28631,-20.5675 -1.86749,-4.63536 -1.19201,-9.92347 -1.78801,-14.8852 -0.15176,-0.41898 -0.17631,-1.60441 -0.45527,-1.25692 -1.81771,2.26422 -2.96389,4.99473 -4.51561,7.4489 -2.96902,4.6957 -5.99889,9.35288 -9.04535,13.99872 -15.71487,23.96516 -31.55433,47.84817 -47.49565,71.66316 -6.43019,8.9806 -12.86038,17.9612 -19.29058,26.9418 -30.85052,43.13636 30.1535,86.76559 61.00402,43.62923 v 0 c 6.87142,-9.6182 13.74283,-19.23641 20.61425,-28.85461 30.72474,-45.91019 6.25078,-9.15488 34.43081,-51.93919 5.69822,-8.65132 19.00962,-28.43557 24.81871,-38.08553 2.84627,-4.72816 5.7395,-9.4541 8.06673,-14.45818 2.19512,-4.71999 3.64091,-9.75353 5.46136,-14.63029 -0.11055,-7.43288 1.71146,-15.15122 -0.33167,-22.29863 -3.94133,-13.78782 -11.3175,-19.74492 -22.3935,-26.05579 -4.87517,-2.77777 -10.73441,-3.60476 -16.05942,-5.05811 -24.22632,-5.03153 -48.8234,-7.87972 -73.48234,-9.79172 -7.84557,-0.56419 -15.68543,-1.21442 -23.53672,-1.69257 -57.25607,-3.48693 -114.70183,-3.67446 -172.00502,-1.28586 -13.86696,0.80681 -27.74638,1.42216 -41.60087,2.42042 -69.64322,5.01797 -139.18192,14.42507 -206.67714,32.69517 -10.64834,3.21635 -21.36682,6.20904 -31.94502,9.64904 -17.56373,5.71167 -30.53067,10.7403 -47.26351,17.67799 -15.01669,6.22615 -10.11105,4.52686 -21.41461,9.34208 -1.14641,0.48836 -2.31645,0.91927 -3.47468,1.37891 -50.06785,17.48456 -25.34095,88.2912 24.72691,70.80663 z"/>
<path d="m 302.22127,454.86922 c 10.77176,24.22723 18.46855,49.64117 26.96651,74.7131 5.5199,15.9994 11.4448,31.86585 18.28997,47.35061 1.81637,4.10889 3.78768,8.14752 5.68152,12.22127 22.44078,48.05114 90.39534,16.31508 67.95456,-31.73605 v 0 c -7.93951,-16.90409 -15.02941,-34.17013 -20.89671,-51.91554 -9.13426,-26.93833 -17.48573,-54.21161 -29.08396,-80.23325 -20.93027,-48.72806 -89.84215,-19.1282 -68.91189,29.59986 z"/>
<path d="m 385.07861,474.67655 c 19.07589,-8.45689 40.04953,-10.9589 60.50233,-13.87902 27.00294,-3.1699 54.20168,-4.51183 81.38485,-4.20484 15.04119,0.16987 20.16337,0.58334 34.76361,1.35692 14.5306,1.17836 29.18841,2.30943 43.46019,5.44745 0.51039,0.12275 1.02495,0.22932 1.53118,0.36823 0.15532,0.0426 -0.32236,-0.0328 -0.4767,-0.0789 -0.81016,-0.24169 -1.66566,-0.38667 -2.41245,-0.78301 -3.15303,-1.67339 -6.69541,-2.90589 -9.24518,-5.404 -9.59619,-9.40172 -9.21798,-10.41066 -12.1477,-19.5618 -0.11194,0.21693 -0.28931,0.41116 -0.33582,0.65079 -1.8757,9.6634 0.85822,-0.0936 -2.61857,13.3937 -3.99102,15.48205 -9.44209,30.52241 -14.72383,45.59311 -9.40915,24.70135 -4.61429,12.59653 -14.35663,36.32551 -20.11011,49.07223 49.2885,77.51222 69.39861,28.43999 v 0 c 10.69574,-26.14356 5.4343,-12.81136 15.75413,-40.00848 4.90403,-14.05173 8.56458,-23.96464 12.7525,-38.14329 4.31656,-14.61414 8.1501,-29.59291 8.79051,-44.89918 0.14746,-3.52451 -0.15386,-7.05352 -0.23079,-10.58028 -0.88041,-4.02241 -0.82999,-8.36934 -2.64123,-12.06722 -2.94422,-6.01103 -6.7575,-11.70171 -11.37448,-16.54777 -5.66901,-5.95029 -14.30203,-8.18806 -21.96393,-10.03583 -18.18498,-3.8355 -36.72875,-5.73056 -55.25113,-7.00713 -16.40007,-0.8442 -22.07734,-1.29699 -38.97545,-1.45823 -30.67339,-0.29267 -61.36341,1.28714 -91.81998,4.97695 -7.03521,1.02911 -14.09425,1.90667 -21.10561,3.08733 -21.28929,3.58496 -42.54908,8.61411 -62.13949,17.90699 -47.45534,23.67468 -13.97428,90.78667 33.48106,67.11198 z"/>
<path d="m 403.35589,603.73344 c 15.99865,-5.44962 32.54207,-9.3729 49.19651,-12.21443 5.88796,-1.00459 11.81644,-1.75517 17.72466,-2.63276 24.31652,-3.23994 48.88924,-3.7084 73.3559,-2.28276 11.96686,0.6973 17.28284,1.3957 28.8258,2.63368 52.73751,5.59064 60.64388,-68.99145 7.90637,-74.5821 v 0 c -13.60259,-1.42753 -19.70354,-2.22182 -33.84392,-2.99595 -29.16767,-1.59681 -58.45229,-0.86787 -87.42152,3.0647 -7.0196,1.07082 -14.06358,1.99243 -21.05878,3.21247 -21.77844,3.7984 -43.46273,9.04905 -64.17293,16.83728 -48.76199,20.8511 -19.27408,89.81097 29.48791,68.95987 z"/>
<path d="m 425.05285,569.20547 c -6.96419,15.70762 -16.82315,30.46988 -27.04717,44.21009 -4.31529,5.79938 -8.91223,11.38377 -13.36834,17.07566 -5.19567,5.75768 -10.39134,11.51536 -15.58701,17.27304 -35.37981,39.50657 20.49092,89.54118 55.87073,50.03461 v 0 c 6.29447,-7.07269 12.58894,-14.14538 18.88342,-21.21807 5.24299,-6.75927 10.65735,-13.38902 15.72898,-20.2778 13.99309,-19.0068 27.21234,-39.33337 35.89849,-61.39722 0.95723,-2.43148 1.58135,-4.98126 2.37202,-7.4719 12.88943,-51.4428 -59.86168,-69.67122 -72.75112,-18.22841 z"/>
<path d="m 218.06884,718.96445 c 12.13912,23.91204 19.87759,49.7475 28.1217,75.17356 14.37368,44.26761 26.27271,89.2708 36.71441,134.61039 4.17493,19.54912 2.27715,10.32418 5.73869,27.66544 10.3954,52.00416 83.94043,37.30287 73.54503,-14.70132 v 0 c -3.7456,-18.71333 -1.69491,-8.77351 -6.19998,-29.80953 -3.95141,-17.12941 -5.65001,-24.91017 -10.10781,-42.38138 -8.45053,-33.11971 -17.9598,-65.97013 -28.35178,-98.53117 -9.42019,-29.01205 -18.47692,-58.38039 -32.40841,-85.62732 -23.75973,-47.41282 -90.81158,-13.81148 -67.05185,33.60133 z"/>
<path d="m 309.92381,754.31601 c 26.95244,-10.73406 55.49642,-16.48168 83.7816,-22.43312 47.56606,-9.37999 95.77903,-15.91194 144.24086,-18.05719 8.98721,-0.39783 17.986,-0.46541 26.979,-0.69812 27.79048,-0.23779 55.61312,0.72336 83.25078,3.74203 11.17587,1.22067 14.59639,1.86537 25.20798,3.51894 9.61951,1.62408 19.24846,3.48831 28.53266,6.53416 0.0307,0.0263 0.13041,0.0917 0.0921,0.0788 -1.76259,-0.59483 -4.06902,-1.67211 -5.33161,-2.6408 -7.85376,-6.02561 -10.9516,-9.92241 -14.46586,-19.29716 -0.40088,25.44575 -4.39638,50.61266 -8.55561,75.65742 -6.49089,38.22521 -17.69126,75.37567 -30.42161,111.92279 -17.41775,50.09114 53.42182,74.72355 70.83956,24.63241 v 0 c 4.99815,-14.39677 7.07633,-20.01544 11.72179,-35.05273 9.04887,-29.29101 16.59412,-59.05683 21.85623,-89.27155 3.22042,-19.56659 6.29728,-39.06275 8.03125,-58.82896 0.69481,-7.92046 1.41969,-19.22128 1.38816,-27.35429 -0.0144,-3.70572 -0.30103,-7.40537 -0.45154,-11.10805 -0.6927,-3.70328 -0.79442,-7.56777 -2.0781,-11.10984 -1.74273,-4.80875 -3.92007,-9.55118 -6.91283,-13.69901 -5.60734,-7.77154 -13.93667,-12.29551 -22.69127,-15.3086 -13.08909,-4.18376 -26.54309,-7.10212 -40.10628,-9.27584 -12.57498,-1.92734 -16.4462,-2.65269 -29.63752,-4.06862 -30.6371,-3.28854 -61.47329,-4.35737 -92.27455,-4.04422 -9.88304,0.2724 -19.7727,0.36454 -29.64913,0.81721 -52.09413,2.38766 -103.92178,9.39803 -155.05035,19.52742 -32.48148,6.87291 -65.1837,13.72594 -96.09646,26.1598 -49.25505,19.65808 -21.45433,89.31524 27.80072,69.65716 z"/>
<path d="m 342.61339,959.50453 c 28.72757,-4.73627 57.63605,-8.34709 86.48894,-12.23222 37.27108,-5.11426 74.82811,-7.99651 112.45528,-8.05415 23.80711,-0.0365 31.28524,0.60129 54.7566,1.72097 20.96954,1.05398 41.77748,3.77549 62.55215,6.66266 52.53385,7.25909 62.79975,-67.03499 10.2659,-74.29409 v 0 c -23.01626,-3.16393 -46.06928,-6.14126 -69.29736,-7.28589 -25.56511,-1.18475 -33.80529,-1.8746 -59.75249,-1.78914 -40.4808,0.13334 -80.88828,3.22474 -120.98906,8.71051 -29.98246,4.03751 -60.02455,7.78208 -89.86723,12.76581 -52.18132,9.46623 -38.79406,83.26176 13.38727,73.79554 z"/>
</svg>
