<?xml version="1.0" ?>
<svg xmlns="http://www.w3.org/2000/svg" viewBox="0 0 1000 1000">
<path d="m 192.1835,200.0109 c 7.22387,27.56534 10.67194,56.0002 14.37083,84.2059 3.37416,26.02795 5.36283,52.22529 5.13381,78.47815 -0.10012,11.47743 -0.39033,14.97292 -0.96349,25.88561 -2.71622,52.96341 72.18534,56.80473 74.90157,3.84132 v 0 c 0.63371,-12.61478 0.98261,-17.05819 1.06011,-30.24901 0.1724,-29.34642 -1.99603,-58.63571 -5.77184,-87.73188 -2.9237,-22.1877 -5.86643,-44.36406 -10.05437,-66.35875 -2.00766,-10.54407 -4.18023,-20.94566 -7.47278,-31.17021 -1.05457,-3.27483 -2.48038,-6.41828 -3.72058,-9.62741 -23.14097,-47.71788 -90.62423,-14.9916 -67.48326,32.72628 z"/>
<path d="m 261.32566,231.491 c 1.8534,-0.77413 3.72148,-1.51403 5.56021,-2.3224 9.24943,-4.06636 18.35915,-8.42607 27.69487,-12.30196 10.12968,-4.20552 15.50839,-6.1236 25.90347,-10.03329 22.36495,-8.13924 45.33165,-14.64559 68.63322,-19.47935 0.91507,-0.14953 5.88046,-1.13649 7.70434,-1.00832 0.3086,0.0217 -0.57807,0.27831 -0.88737,0.27192 -1.75334,-0.0362 -3.55393,0.0622 -5.24601,-0.39865 -3.16099,-0.86086 -6.41251,-1.76433 -9.17321,-3.52827 -3.44026,-2.19814 -6.08566,-5.44368 -9.12849,-8.16553 -1.20389,-2.04001 -2.00158,-4.38262 -3.61165,-6.12005 -0.49729,-0.53661 -0.0638,1.46404 -0.026,2.19468 0.1402,2.7115 0.4149,5.41486 0.55967,8.12612 0.83893,15.71108 1.03112,31.44196 1.29026,47.16998 0.17461,29.2938 0.84841,58.79856 -2.94421,87.9257 -0.52035,3.9963 -1.28191,7.95747 -1.92286,11.93621 -0.70885,3.20191 -1.4177,6.40381 -2.12654,9.60571 -11.14765,51.84815 62.1767,67.6133 73.32434,15.76516 v 0 c 0.9667,-4.59112 1.93339,-9.18223 2.90009,-13.77335 0.81277,-5.30927 1.77052,-10.59838 2.43831,-15.92783 4.01938,-32.07751 3.61338,-64.5199 3.32055,-96.77581 -0.28871,-17.28497 -0.39591,-34.61272 -1.51597,-51.8713 -0.40719,-6.27432 -1.37543,-19.12653 -3.29078,-25.35171 -1.55781,-5.06312 -4.06888,-9.78224 -6.10332,-14.67336 -4.1236,-4.3336 -7.57945,-9.41931 -12.3708,-13.00081 -3.96632,-2.96479 -8.75474,-4.73692 -13.4528,-6.30212 -11.10618,-3.70011 -23.93015,-1.45587 -35.11883,0.4958 -27.04582,5.71136 -53.74145,13.15147 -79.69424,22.70111 -19.81117,7.47555 -39.48125,15.3008 -58.59307,24.44719 -49.77645,18.29768 -23.89963,88.69221 25.87682,70.39453 z"/>
<path d="m 293.24566,389.96642 c 21.78069,-7.13736 43.69068,-14.02262 65.89281,-19.7468 7.27432,-1.87547 14.6092,-3.5077 21.9138,-5.26155 8.16359,-1.65109 16.32719,-3.30218 24.49078,-4.95326 51.97023,-10.56389 37.03065,-84.06088 -14.93958,-73.497 v 0 c -9.04451,1.84677 -18.08903,3.69354 -27.13354,5.5403 -8.14005,1.97065 -16.31165,3.81528 -24.42017,5.91195 -24.58872,6.35806 -48.88373,13.95043 -72.93482,22.08552 -49.4415,19.18431 -22.31078,89.10515 27.13072,69.92084 z"/>
<path d="m 495.64701,140.56816 c 1.75733,25.28609 2.50102,50.62001 2.80495,75.96008 -0.16448,34.9865 -0.44041,70.09962 -4.5204,104.89696 -0.65886,5.61926 -1.59527,11.20251 -2.39291,16.80376 -3.47037,16.86969 -1.57293,8.99111 -5.51727,23.67722 -13.4495,51.29923 59.09857,70.3197 72.54807,19.02047 v 0 c 5.25104,-20.38034 2.7791,-9.63071 7.24329,-32.28807 0.92797,-6.71117 2.00958,-13.40287 2.7839,-20.1335 4.30954,-37.4597 4.72748,-75.24121 4.84964,-112.90027 -0.33672,-26.69976 -1.1098,-53.39369 -2.96613,-80.03667 -3.53555,-52.915029 -78.36869,-47.915006 -74.83314,5.00002 z"/>
<path d="m 552.88002,189.75015 c 2.00096,-0.5091 4.00965,-0.98877 6.00289,-1.5273 9.35825,-2.52844 18.61353,-5.37203 28.02538,-7.71335 12.77852,-3.17884 14.78483,-3.45551 27.95537,-6.18802 19.27044,-3.61877 38.71261,-6.38715 58.29064,-7.61254 10.52897,-0.659 12.7072,-0.53635 22.8213,-0.58863 6.26262,0.32989 12.64628,0.19698 18.83513,1.41491 0.37598,0.074 1.45237,0.4557 1.07108,0.41753 -4.58632,-0.4592 -6.72962,-2.79858 -11.28056,-5.37269 -11.51752,-14.85916 -6.93789,-6.03281 -11.43285,-20.83716 -0.0783,-0.25777 -0.35453,-0.9497 -0.42239,-0.689 -0.60407,2.32058 -0.85368,4.71944 -1.2427,7.08559 -2.17445,13.22575 -2.1183,13.60814 -4.12185,28.1651 -4.91817,36.19069 -6.7493,72.69081 -10.2492,109.02217 -0.67908,7.04932 -1.4829,14.08606 -2.22436,21.12909 -2.99829,24.6857 -1.47446,12.84868 -4.53227,35.51611 -7.07929,52.55838 67.24948,62.57002 74.32878,10.01164 v 0 c 3.23489,-24.05104 1.62304,-11.48788 4.79334,-37.69487 0.78255,-7.46954 1.62888,-14.93267 2.34765,-22.40861 3.37638,-35.11763 5.15403,-70.39553 9.84035,-105.38369 1.83527,-13.43109 1.73282,-13.41391 3.72374,-25.59462 2.06319,-12.6229 5.02638,-25.47703 -0.14946,-38.03147 -2.48811,-6.03512 -7.20795,-10.88572 -10.81192,-16.32858 -4.17346,-2.80016 -8.09037,-6.02693 -12.52037,-8.400487 -2.90326,-1.555547 -6.14773,-2.392475 -9.31442,-3.298419 -12.03359,-3.442634 -24.85501,-3.125712 -37.21494,-3.720317 -12.60053,0.122091 -15.35638,-0.01687 -28.33185,0.833889 -22.67351,1.486633 -45.19657,4.694086 -67.50873,8.943464 -20.63918,4.32058 -41.21233,9.00818 -61.35494,15.3004 -52.0076,10.37833 -37.33044,83.92818 14.67716,73.54986 z"/>
<path d="m 558.06443,362.23283 c 23.86491,-1.99772 47.70408,-4.23855 71.5922,-5.95077 17.9342,-1.12377 35.90237,-1.4126 53.86337,-1.74183 53.02396,-0.97928 51.63905,-75.9665 -1.38492,-74.98722 v 0 c -19.29324,0.35886 -38.59391,0.68661 -57.85689,1.92215 -23.75381,1.71279 -47.46396,3.88897 -71.19153,5.92304 -52.91608,3.51982 -47.93831,78.35445 4.97777,74.83463 z"/>
<path d="m 176.90381,558.49079 c 22.42013,-7.36657 45.10826,-13.90809 68.15975,-19.01032 8.66155,-1.91716 17.38526,-3.54183 26.07789,-5.31274 46.76216,-8.55137 94.11192,-13.71 141.59248,-15.90587 34.52923,-1.59689 50.35643,-1.27742 85.15898,-1.40656 82.47813,0.97476 164.93397,3.7082 247.32407,7.58946 23.49917,0.98213 46.94442,2.76024 70.36345,4.87428 52.82014,4.74684 59.53318,-69.95213 6.71304,-74.69896 v 0 c -24.48092,-2.19095 -48.9864,-4.06754 -73.54962,-5.09235 -83.66504,-3.93612 -167.39685,-6.71838 -251.15169,-7.67183 -36.77631,0.15801 -53.08248,-0.17347 -89.65951,1.5598 -50.91973,2.41293 -101.69513,8.01905 -151.83142,17.27556 -9.57899,1.96918 -19.19189,3.78009 -28.73697,5.90756 -24.23969,5.40269 -48.13938,12.21234 -71.72337,19.96917 -50.8571,15.03516 -29.59418,86.95795 21.26292,71.9228 z"/>
<path d="m 316.93928,415.11194 c -6.54245,19.15839 -14.00441,37.96736 -22.58192,56.31921 -3.98902,8.53465 -8.25433,16.93742 -12.3815,25.40613 -23.58922,44.27046 -50.0503,87.09568 -79.60957,127.64203 -17.14191,23.5135 -32.42718,42.2654 -50.5084,65.01562 -8.26615,9.90318 -16.53231,19.80636 -24.79847,29.70954 -33.972351,40.7232 23.61896,88.76736 57.59131,48.04416 v 0 c 8.6442,-10.36754 17.28839,-20.73507 25.93258,-31.1026 19.49042,-24.54615 34.79625,-43.3007 53.29328,-68.75421 31.79729,-43.75584 60.28857,-89.94352 85.54839,-137.75796 4.51256,-9.29968 9.18089,-18.52537 13.53769,-27.89904 10.46528,-22.5161 19.73695,-45.64824 26.97433,-69.40858 12.17235,-51.61719 -60.82537,-68.83149 -72.99772,-17.2143 z"/>
<path d="m 607.38065,526.17877 c 3.13885,1.64232 5.65669,4.17972 8.18179,6.61193 7.51094,7.23462 5.43566,5.24816 13.60817,13.60112 22.33207,24.13826 43.79788,49.05523 65.8343,73.46014 18.0932,19.74288 36.4728,39.22161 54.99868,58.55837 10.29452,10.59258 20.58982,21.3744 32.55814,30.12551 3.16208,2.31209 6.47565,4.40951 9.71348,6.61427 15.74478,9.98606 32.34858,18.6544 49.59596,25.75032 11.31086,4.65351 22.08352,8.27392 33.62302,12.33695 50.03369,17.58209 74.89852,-53.17623 24.86483,-70.75832 v 0 c -8.13924,-2.85391 -20.06915,-6.91242 -28.28974,-10.23046 -13.24767,-5.34712 -26.00505,-11.91689 -38.13024,-19.46134 -4.41336,-2.84243 -5.59855,-3.41444 -9.54177,-6.65326 -7.26532,-5.96747 -13.67143,-12.91368 -20.23876,-19.61052 -18.01754,-18.80404 -35.89136,-37.74749 -53.4941,-56.941 -22.73223,-25.16351 -44.82442,-50.90365 -67.95184,-75.7098 -12.19398,-12.40476 -24.33101,-25.43916 -39.83643,-33.76258 -46.7176,-25.09911 -82.2131,40.96957 -35.49549,66.06867 z"/>
<path d="m 211.39986,671.69936 c 4.86781,28.6832 11.28694,57.08836 17.34564,85.53872 6.76595,31.99813 12.19512,64.26092 16.4425,96.68532 6.90234,52.58191 81.26439,42.82054 74.36206,-9.76138 v 0 c -4.52271,-34.38774 -10.2625,-68.60913 -17.44948,-102.54544 -5.70698,-26.79869 -11.72196,-53.55709 -16.45787,-80.54735 -7.51664,-52.49762 -81.75948,-41.86749 -74.24285,10.63013 z"/>
<path d="m 296.88622,693.85686 c -0.49447,0.44636 -2.14841,1.29995 -1.48342,1.3391 1.01775,0.0599 1.84938,-0.85937 2.78583,-1.26242 1.9603,-0.84371 3.91376,-1.70626 5.90367,-2.47751 2.8488,-1.10414 5.71626,-2.16277 8.60862,-3.14716 10.5733,-3.59855 12.65674,-3.97754 23.89159,-7.06721 18.0902,-4.69909 36.39211,-8.63838 54.92688,-11.11599 9.19917,-1.22968 11.55735,-1.30313 20.42819,-1.99916 5.73046,-0.23676 7.7152,-0.42271 13.1003,-0.30986 1.24439,0.0261 2.48825,0.0948 3.72892,0.1944 0.59684,0.0479 1.22787,0.0141 1.77909,0.24795 0.39817,0.16892 -0.88069,0.0745 -1.29683,-0.0434 -2.61659,-0.74134 -5.17269,-1.68159 -7.75904,-2.52239 -16.22189,-14.62494 -13.11361,-7.76297 -18.95668,-27.17371 -0.30375,-1.00905 0.25868,-4.04263 -0.29715,-3.14735 -0.98073,1.5797 -0.76341,3.63957 -1.13901,5.46062 -2.6488,12.84248 -1.98196,9.64384 -4.85502,24.20514 -5.46178,29.84435 -11.54667,59.59933 -16.02534,89.6157 -0.94442,6.32959 -1.7391,12.68062 -2.60865,19.02093 -7.17488,52.54542 67.13556,62.69223 74.31044,10.14682 v 0 c 0.77904,-5.73313 1.48658,-11.47642 2.33711,-17.19937 4.3346,-29.16654 10.27896,-58.07167 15.5689,-87.07127 8.00328,-40.59427 -1.97336,9.83326 4.80957,-23.97659 2.76247,-13.76964 5.39327,-27.37967 -2.52595,-40.65517 -3.78475,-6.34461 -10.48497,-10.41051 -15.72746,-15.61577 -3.78202,-1.46918 -7.4706,-3.20629 -11.34607,-4.40753 -2.23853,-0.69385 -4.59661,-0.93273 -6.91814,-1.25362 -10.66518,-1.47418 -21.53225,-0.72465 -32.22987,-0.27108 -11.24418,0.93192 -14.11078,1.02893 -25.6796,2.61118 -21.48868,2.93897 -42.71947,7.50054 -63.69172,12.99392 -14.35836,4.01828 -28.25191,8.01269 -42.10072,13.59719 -5.05841,2.0398 -12.82523,5.50784 -17.68871,8.35857 -2.51151,1.47212 -4.85257,3.21742 -7.27885,4.82613 -41.0821,33.53746 6.34702,91.63632 47.42912,58.09887 z"/>
<path d="m 298.30291,841.79475 c 22.34645,-6.66097 44.95213,-12.33316 67.62279,-17.76542 19.79068,-4.61222 39.86227,-7.80603 59.90487,-11.0719 52.34005,-8.54509 40.25547,-82.56511 -12.08459,-74.02002 v 0 c -21.85433,3.5744 -43.73496,7.09746 -65.30918,12.1595 -23.18814,5.56438 -46.32925,11.31823 -69.18121,18.15682 -51.29425,13.46849 -32.24692,86.00951 19.04732,72.54102 z"/>
<path d="m 501.10363,664.17676 c 5.96677,15.87554 8.71002,32.77149 11.80716,49.37669 4.61741,26.95811 8.34588,54.05569 12.65434,81.06374 8.35542,52.37066 82.41873,40.55431 74.06331,-11.81636 v 0 c -4.41623,-27.67688 -8.21299,-55.44994 -13.00178,-83.06664 -4.54315,-24.12657 -8.69014,-48.91105 -19.52089,-71.17648 -25.18647,-46.67057 -91.18861,-11.05152 -66.00214,35.61905 z"/>
<path d="m 562.84505,686.81564 c 20.40217,-4.7122 41.01148,-8.30896 61.73901,-11.22609 26.73854,-3.6234 53.73846,-4.28285 80.68053,-4.62746 6.48835,-3.9e-4 12.9801,-0.12245 19.46845,-0.01 0.52953,0.009 3.34612,0.11063 4.19591,0.20238 0.2033,0.022 -0.40895,0.002 -0.61342,0.004 -11.84397,-1.59405 -17.54679,-7.06927 -24.99689,-16.38903 -1.46229,-1.82926 -1.93368,-4.26678 -2.96388,-6.36992 -0.0768,-0.15682 -0.3514,-0.56606 -0.34812,-0.39147 0.0326,1.74039 0.29219,3.46911 0.43829,5.20366 1.2477,24.10428 1.7714,48.39182 -0.69081,72.44575 -0.6233,6.0892 -1.62521,12.13368 -2.43782,18.20051 -4.39336,23.79747 -10.68713,47.37175 -19.81645,69.82007 -4.57194,11.24207 -6.43921,14.16507 -11.89837,24.40589 -24.64318,46.9597 41.76786,81.81043 66.41105,34.85072 v 0 c 7.50596,-14.46621 9.6296,-17.74855 15.90684,-33.44785 11.05715,-27.6538 18.68226,-56.64674 23.77048,-85.95534 0.96322,-7.58641 2.14623,-15.14813 2.88966,-22.75922 2.74029,-28.05458 2.18581,-56.37282 0.54655,-84.46916 -0.85153,-8.74059 -1.60598,-21.20593 -6.63538,-28.64975 -8.73375,-12.92646 -16.18883,-18.39891 -31.03101,-20.93534 -11.01973,-1.14712 -22.10317,-0.77667 -33.16691,-0.74983 -30.13901,0.3953 -60.33439,1.25238 -90.23701,5.3638 -5.48628,0.78286 -10.9833,1.49386 -16.45884,2.34857 -16.99961,2.65355 -33.8444,6.17923 -50.64995,9.83924 -51.82784,11.24165 -35.92975,84.53729 15.89809,73.29564 z"/>
<path d="m 588.67526,837.28542 c 14.95678,-4.18884 30.53806,-5.28054 45.96116,-6.31604 18.30156,-1.03485 36.62158,-0.22884 54.90277,0.73514 52.96131,2.75682 56.86004,-72.14178 3.89874,-74.8986 v 0 c -21.32059,-1.097 -42.68635,-1.94927 -64.02468,-0.65444 -5.40577,0.38898 -10.82084,0.66522 -16.21732,1.16692 -16.25734,1.51142 -32.54614,4.03381 -48.18976,8.79979 -50.32283,16.73657 -26.65374,87.9038 23.66909,71.16723 z"/>
</svg>
