<?xml version="1.0" ?>
<svg xmlns="http://www.w3.org/2000/svg" width="1000" height="1000">
<path d="m 152.43906,262.70666 c 1.56069,30.65441 3.2131,61.30229 4.56741,91.9684 0.36242,9.45806 0.72587,18.91609 1.08728,28.37419 0.9345,24.45612 1.41671,39.74391 2.75981,64.3863 1.9217,35.2584 4.77235,70.43368 7.6959,105.61942 5.27682,64.95576 13.59058,129.60878 23.42846,194.01583 5.2681,31.9067 11.19908,63.82864 20.87871,94.72947 15.98882,50.56538 87.49907,27.95378 71.51025,-22.6116 v 0 c -8.70133,-27.15251 -13.38649,-55.4234 -18.25017,-83.45101 -9.59314,-62.70583 -17.68276,-125.65458 -22.82508,-188.89623 -2.85281,-34.29766 -5.64458,-68.58546 -7.52205,-102.95398 -1.33056,-24.35699 -1.80418,-39.47327 -2.7309,-63.71172 -0.36718,-9.60365 -0.73686,-19.20721 -1.1053,-28.81082 -1.34902,-30.5256 -2.98243,-61.03393 -4.54998,-91.54716 -2.04277,-52.99366 -76.98711,-50.10474 -74.94434,2.88891 z"/>
<path d="m 255.52526,349.57555 c 15.07241,-7.23166 30.90799,-12.71441 46.67941,-18.18521 28.19017,-9.39013 56.92788,-17.08744 86.00494,-23.19362 22.94629,-4.81871 33.65193,-6.43491 56.95708,-10.44464 47.59124,-7.34348 95.43686,-13.93601 143.57564,-16.32983 8.11201,-0.40339 16.23642,-0.4983 24.35463,-0.74745 26.0327,-0.35112 52.09465,0.56893 77.94938,3.72813 11.59313,1.41657 15.62836,2.22113 26.80854,4.11117 14.4694,2.57523 28.78867,6.02911 42.65112,10.92806 0.58468,0.28275 2.35772,0.60875 1.75403,0.84823 -0.69008,0.27375 -1.4523,-0.36616 -2.11229,-0.70611 -1.19523,-0.61565 -2.30262,-1.39078 -3.41749,-2.14222 -0.55777,-0.37595 -0.95651,-1.02435 -1.5949,-1.23625 -0.21791,-0.0723 -0.0954,0.45858 -0.0632,0.6859 0.11468,0.80778 0.33378,1.59726 0.50067,2.39589 5.15415,25.37112 8.68619,51.05123 12.26337,76.6829 4.99906,37.90955 8.83635,76.04667 8.778,114.3256 -0.0127,8.3495 -0.35971,16.69515 -0.53957,25.04272 -1.79527,41.0693 -5.85642,82.0867 -12.69315,122.63309 -1.21733,7.21957 -2.64047,14.40293 -3.96071,21.60439 -5.70399,28.60236 -13.06502,56.93983 -23.00044,84.3828 -1.37224,3.7903 -2.89926,7.52277 -4.34889,11.28415 -3.52237,8.57745 -7.48908,16.96945 -11.82045,25.16694 -1.99957,3.78434 -4.00872,7.76814 -6.68343,11.13622 0.99633,-4.27026 5.27862,-4.08453 7.22101,-6.91332 0.32085,-0.46728 -1.05692,-0.4722 -1.62257,-0.50892 -2.72675,-0.17698 -5.4656,-0.0343 -8.19647,-0.12838 -4.54922,-0.15673 -9.09432,-0.416 -13.64148,-0.624 -52.98538,-2.2471 -56.16326,72.68554 -3.17788,74.93264 v 0 c 15.25211,0.60683 33.64214,2.1907 48.55099,-1.94381 14.11547,-3.91448 23.40091,-10.4684 32.2683,-21.74674 1.45933,-2.14718 2.98786,-4.24893 4.378,-6.44154 9.18502,-14.48709 15.98302,-30.41674 22.76333,-46.1058 1.76365,-4.62894 3.61454,-9.22557 5.29095,-13.88682 11.13099,-30.94963 19.41354,-62.88401 25.79836,-95.12711 1.43482,-7.88175 2.98085,-15.74407 4.30446,-23.64525 7.34175,-43.82602 11.70418,-88.15532 13.55457,-132.54366 0.18009,-9.35248 0.54473,-18.70323 0.54027,-28.05744 -0.0196,-41.25103 -4.07273,-82.35675 -9.48425,-123.21061 -2.43783,-17.4401 -4.93583,-34.86422 -7.76177,-52.24656 -1.15171,-7.08415 -3.06225,-18.61987 -4.63252,-25.78687 -0.85297,-3.89314 -1.91313,-7.73799 -2.8697,-11.60699 -2.94967,-8.33942 -4.02825,-12.85122 -8.67382,-20.37825 -8.08845,-13.10538 -18.54537,-21.7204 -32.96595,-26.94895 -17.89833,-6.19174 -36.2753,-10.86318 -54.94599,-14.07999 -13.0511,-2.1757 -17.85292,-3.12088 -31.37727,-4.73402 -29.24992,-3.48885 -58.72379,-4.55998 -88.16673,-4.10159 -9.01757,0.29388 -18.04198,0.42375 -27.05272,0.88163 -50.708,2.57673 -101.11372,9.46745 -151.24338,17.24823 -24.96131,4.31105 -36.15439,6.00026 -60.81233,11.2138 -31.79884,6.72336 -63.2244,15.18825 -94.04957,25.49775 -19.39644,6.76409 -38.87876,13.57735 -57.27072,22.81244 -46.81703,24.91317 -11.58448,91.12244 35.23254,66.20927 z"/>
<path d="m 314.03018,469.2706 c 4.56849,22.04132 8.92574,44.12169 13.70608,66.1191 5.95978,25.53691 10.84249,51.30172 14.98151,77.1909 1.64677,11.01866 3.67041,21.97174 5.94942,32.87517 10.85963,51.90923 84.27037,36.55139 73.41074,-15.35784 v 0 c -2.03989,-9.74097 -3.84381,-19.5273 -5.30332,-29.37411 -4.36923,-27.2539 -9.48757,-54.38338 -15.75113,-81.27098 -4.85655,-22.31774 -9.22575,-44.73176 -13.92226,-67.08263 -11.95038,-51.66903 -85.02142,-34.76864 -73.07104,16.90039 z"/>
<path d="m 387.12294,508.17086 c 11.75448,-6.76806 23.83263,-12.99929 36.42064,-18.08421 4.63435,-1.87205 9.35913,-3.51195 14.03869,-5.26793 29.21014,-10.1312 59.55774,-16.56592 90.11424,-21.0087 5.99103,-0.87107 12.00543,-1.57306 18.00814,-2.35959 20.75921,-2.11881 41.80723,-3.97968 62.61537,-1.45238 0.7909,0.15647 1.58179,0.31294 2.37269,0.46941 0.17175,0.0776 0.70366,0.22843 0.51525,0.23277 -0.38276,0.009 -0.7728,-0.0747 -1.12756,-0.21867 -2.05069,-0.83222 -4.27284,-1.40248 -6.06541,-2.70042 -9.48415,-6.86712 -8.62498,-6.94754 -13.38565,-15.21768 -0.13855,-0.0815 -0.38222,-0.40176 -0.41566,-0.24452 -0.17889,0.84127 -0.0405,1.71983 -0.0808,2.57897 -0.0908,1.9392 -0.15738,3.88047 -0.31224,5.81562 -0.24793,3.09836 -0.53702,6.19418 -0.89585,9.28167 -1.29431,11.13667 -2.05532,15.02944 -3.89289,26.51358 -5.16425,31.3072 -12.80351,62.11369 -20.38538,92.89966 -3.66415,15.06248 -7.90234,29.98061 -12.80362,44.68611 -16.70655,50.33281 54.47479,73.95943 71.18133,23.62662 v 0 c 5.4889,-16.59184 10.33087,-33.39088 14.44651,-50.37861 8.08281,-32.82296 16.16839,-65.68087 21.63224,-99.06627 2.37778,-15.06096 4.88207,-30.13048 5.68598,-45.38285 0.40533,-7.69028 0.43366,-15.56242 -0.64815,-23.21464 -0.47518,-3.36125 -1.38564,-6.64644 -2.07847,-9.96967 -1.95749,-4.36677 -3.10626,-9.19538 -5.87249,-13.10031 -10.3841,-14.65869 -23.08621,-18.7984 -39.54591,-21.14742 -7.82851,-0.83193 -9.55757,-1.13992 -17.86674,-1.44039 -21.00078,-0.75941 -42.01581,0.72576 -62.87613,3.07291 -6.69226,0.88724 -13.39803,1.67792 -20.07678,2.66172 -35.58124,5.24121 -70.87949,12.94579 -104.83422,24.93565 -5.89677,2.25454 -11.84933,4.36826 -17.69031,6.76363 -14.48316,5.93952 -28.45974,13.05535 -42.02899,20.84011 -46.58125,25.35129 -10.72911,91.22712 35.85213,65.87583 z"/>
<path d="m 400.28613,681.618 c 19.29714,-6.59773 39.46069,-10.19143 59.4831,-13.78725 26.51281,-4.1977 53.2828,-6.73966 80.12407,-7.0919 7.32339,-0.0179 14.62309,0.53911 21.91527,1.13215 52.86602,4.20527 58.81316,-70.55857 5.94714,-74.76384 v 0 c -9.64965,-0.75435 -19.31031,-1.43793 -28.99871,-1.3597 -4.24107,0.0712 -8.48395,0.0705 -12.7232,0.21354 -26.6603,0.89948 -53.23197,3.99204 -79.57593,8.06049 -23.52933,4.25939 -47.16912,8.64907 -69.84112,16.42938 -50.32276,16.73678 -26.65338,87.90391 23.66938,71.16713 z"/>
<path d="m 289.66765,870.75803 c 14.61398,-4.71796 29.48306,-8.55522 44.40118,-12.1694 34.57521,-8.01665 69.84162,-12.46093 105.04129,-16.67591 43.60028,-4.97494 87.35596,-8.44359 131.12933,-11.46508 35.70312,-2.665 71.49986,-3.0196 107.26028,-1.65052 10.38034,0.51115 20.73689,1.50106 31.0202,3.00732 5.08796,0.74527 9.92673,1.51325 14.71048,3.37487 50.42115,16.43799 73.66799,-54.86828 23.24684,-71.30627 v 0 c -3.01673,-0.93011 -5.99728,-1.98694 -9.0502,-2.79034 -6.429,-1.69184 -12.66838,-2.71311 -19.24032,-3.65267 -12.55361,-1.79473 -25.19256,-2.97114 -37.85892,-3.57957 -38.42681,-1.43094 -76.89228,-1.09134 -115.25703,1.7755 -45.02944,3.11301 -90.04051,6.68654 -134.89051,11.82027 -38.15355,4.58157 -76.36568,9.48303 -113.82368,18.26389 -16.05441,3.91275 -32.07314,8.00888 -47.80767,13.08265 -50.88712,14.9332 -29.76839,86.89846 21.11873,71.96526 z"/>
</svg>
