<?xml version="1.0" ?>
<svg xmlns="http://www.w3.org/2000/svg" width="1000" height="1000">
<path d="m 156.45025,167.74083 c 0.4189,17.50776 -0.12936,35.02363 -0.40091,52.53007 -1.12994,59.1987 -0.47694,118.40125 0.41507,177.59688 0.29087,12.52718 0.48568,25.05696 0.8726,37.58154 0.88142,28.53133 1.88552,49.93215 3.74635,78.45923 2.52689,38.73792 5.92105,77.42769 9.01888,116.12267 0.96508,11.79477 1.87367,23.5943 2.89524,35.38431 2.10549,24.29992 3.64289,40.47076 6.43172,64.49941 2.88549,24.8615 6.3832,49.63755 9.99125,74.40172 2.16303,14.76687 4.63639,29.48292 7.24593,44.17607 9.28804,52.21334 83.12885,39.07805 73.8408,-13.13528 v 0 c -2.48084,-13.92188 -4.81632,-27.86819 -6.87128,-41.8605 -3.4801,-23.85545 -6.85669,-47.7229 -9.64427,-71.67177 -2.71321,-23.30985 -4.19674,-38.90111 -6.24397,-62.52602 -1.01788,-11.74629 -1.92308,-23.50208 -2.88461,-35.25312 -6.05737,-75.66238 -12.81632,-151.34734 -13.40716,-227.30887 -0.8814,-58.4311 -1.53372,-116.86897 -0.41557,-175.30316 0.30971,-19.96986 1.0553,-39.97244 0.14971,-59.93541 -4.41392,-52.849 -79.1537,-46.60677 -74.73978,6.24223 z"/>
<path d="m 375.59152,229.92752 c 10.97321,-6.14147 22.8854,-10.36313 34.59713,-14.84134 34.97085,-13.47538 71.4075,-22.35208 107.89776,-30.5583 40.61714,-8.90645 81.67175,-15.56581 122.87615,-21.04905 27.37789,-3.66747 54.96197,-5.22475 82.52599,-6.66672 8.90664,-0.18752 17.8574,-1.04553 26.75428,-0.23452 0.16725,0.0182 2.3678,0.25322 2.62664,0.29784 0.31023,0.0535 -0.62987,-0.0394 -0.93949,-0.0964 -0.92338,-0.16972 -1.85304,-0.32425 -2.75557,-0.58283 -4.815,-1.37954 -4.97819,-1.98466 -10.27961,-4.94489 -6.06891,-5.35562 -3.22826,-2.40029 -6.96454,-6.85751 -0.19194,-0.22898 -0.5086,-0.9551 -0.59611,-0.66941 -0.14738,0.48111 0.22564,0.98087 0.35146,1.46807 0.35592,1.37812 0.76279,2.74324 1.09368,4.12758 0.52936,2.2147 0.99108,4.44503 1.48662,6.66754 5.56074,29.52082 9.57725,59.32447 13.87041,89.05261 6.73786,46.13896 8.9406,92.75372 10.35468,139.30715 0.83467,43.663 1.45766,87.38289 -0.20602,131.03708 -0.32123,8.42892 -0.83918,16.84919 -1.25877,25.27378 -2.24087,32.31115 -5.06412,64.61286 -9.53156,96.70158 -2.66029,19.10832 -3.63417,23.54325 -6.97842,42.24569 -4.67924,23.65751 -9.25939,47.36091 -15.18471,70.74718 -2.86659,11.31398 -3.73849,13.89559 -6.94516,24.74435 -2.75502,8.61332 -5.41484,17.27113 -8.56931,25.75076 -1.16122,3.1215 -2.26795,6.40001 -4.40438,9.00452 -1.12114,0.58164 -0.42476,0.15097 -1.89674,1.5608 -35.99853,38.94363 19.07606,89.85324 55.0746,50.90962 v 0 c 7.19161,-8.01164 3.54905,-3.61271 10.78762,-13.31155 1.55725,-2.67389 3.23506,-5.28112 4.67176,-8.02167 7.38176,-14.08093 11.13169,-29.77219 16.2822,-44.70736 3.69159,-12.57803 4.6298,-15.35044 7.92248,-28.4016 6.26572,-24.83536 11.16234,-49.99332 16.09844,-75.11725 3.64111,-20.49709 4.6544,-25.09411 7.55,-46.00174 4.70624,-33.9814 7.7007,-68.18475 10.03178,-102.40169 0.44131,-8.99713 0.98484,-17.98983 1.32393,-26.99139 1.69812,-45.07909 1.07605,-90.22441 0.19726,-135.31204 -1.51758,-49.3741 -3.92597,-98.80593 -11.08993,-147.73745 -2.62069,-18.14233 -5.29226,-36.27611 -8.02129,-54.40249 -1.60092,-10.63344 -2.72472,-18.48785 -4.64786,-28.96807 -0.72695,-3.96149 -1.57169,-7.90045 -2.35754,-11.85068 -3.31813,-14.04148 -6.76112,-29.96859 -16.55716,-41.187677 -2.11006,-2.416576 -4.61553,-4.457084 -6.92329,-6.685626 -2.80857,-1.684615 -5.50892,-3.56441 -8.42569,-5.053845 -5.88808,-3.006723 -12.66387,-3.680458 -19.12736,-4.347556 -12.2341,-0.939375 -24.49091,-0.475705 -36.73616,0.0915 -29.5672,1.547299 -59.15071,3.278919 -88.51626,7.221747 -43.40947,5.794874 -86.66282,12.815867 -129.45067,22.225387 -7.75083,1.7491 -15.52066,3.41607 -23.2525,5.24729 -32.17924,7.62138 -64.03923,16.71506 -94.98181,28.43664 -13.96955,5.35623 -28.12636,10.52258 -41.25787,17.76983 -47.45539,23.67458 -13.97448,90.78664 33.48091,67.11206 z"/>
<path d="m 340.24076,316.24127 c 3.14409,13.71971 9.12137,26.53705 16.1059,38.68813 2.09096,3.63767 4.38037,7.1576 6.57056,10.7364 8.98902,14.11268 18.57871,27.98345 30.03859,40.23112 1.6436,1.75659 3.38614,3.41793 5.07921,5.12689 37.64316,37.3563 90.47294,-15.87917 52.82978,-53.23546 v 0 c -9.61283,-9.14833 -16.89533,-20.44988 -24.11044,-31.4903 -5.77027,-9.25761 -11.90988,-18.5392 -14.05673,-29.42175 -13.6931,-51.23474 -86.14997,-31.86978 -72.45687,19.36497 z"/>
<path d="m 444.60549,318.45743 c 6.74426,9.5641 13.65707,19.01516 20.84802,28.24889 9.66179,11.52248 19.91932,23.14753 33.33836,30.41394 3.07909,1.66732 6.40003,2.84299 9.60005,4.26449 49.40515,19.27773 76.66798,-50.59171 27.26282,-69.86944 v 0 c 0.40928,0.33256 0.87439,0.60629 1.22783,0.99768 0.1577,0.17463 0.4754,0.75841 0.26425,0.65458 -0.78489,-0.38597 -1.44457,-0.99244 -2.10872,-1.5616 -3.88149,-3.32634 -7.21336,-7.2433 -10.51942,-11.11985 -6.94214,-8.8121 -13.43452,-17.9713 -19.96171,-27.09332 -31.86551,-42.39209 -91.81698,2.67253 -59.95148,45.06463 z"/>
<path d="m 621.65536,262.77874 c -0.0829,-0.12542 -0.14623,-0.4863 -0.24866,-0.37626 -0.14763,0.15858 -0.0166,0.43355 -0.006,0.64996 0.0385,0.79894 0.13164,1.59514 0.15275,2.39473 0.21644,8.19675 -0.81191,16.10863 -1.81037,24.23986 -5.98808,34.3971 -16.19934,68.0985 -29.89121,100.21535 -3.99086,9.3613 -8.48486,18.50003 -12.72728,27.75004 -5.21595,9.74526 -10.11713,19.66564 -15.64784,29.23576 -12.1648,21.0495 -26.57418,42.62288 -40.86644,62.22847 -15.49423,21.25439 -33.73309,44.06807 -51.0051,63.88235 -9.07699,10.41303 -18.61284,20.417 -27.91926,30.62549 -26.55656,27.46066 -54.10242,54.0756 -84.10156,77.79379 -19.0329,15.04795 -27.55485,20.21762 -47.04055,33.21434 -44.06864,29.50349 -2.34441,91.82594 41.72423,62.32246 v 0 c 22.5951,-15.17687 31.41748,-20.50627 53.55308,-38.10672 32.55253,-25.88315 62.52058,-54.81481 91.33537,-84.746 10.03709,-11.04825 20.32109,-21.87713 30.11127,-33.14476 37.22268,-42.84006 72.17995,-89.51482 100.40833,-138.81827 6.25303,-10.92149 11.78871,-22.23834 17.68307,-33.35752 4.79839,-10.56715 9.88523,-21.008 14.39516,-31.70144 16.06427,-38.08986 27.93514,-78.07554 34.5057,-118.89504 0.6022,-5.56917 1.39899,-11.12073 1.80659,-16.70752 1.18488,-16.24065 0.5228,-32.99524 -5.4994,-48.29925 -20.93049,-48.72797 -89.84224,-19.12778 -68.91175,29.60018 z"/>
<path d="m 389.64075,544.48441 c 18.50347,11.11701 35.22961,24.9708 52.01097,38.47213 31.68365,25.77561 61.26344,53.97853 90.01577,82.94695 9.60998,9.82257 19.02773,19.84272 27.99105,30.26205 4.09353,4.75849 8.16388,9.57053 11.66065,14.78845 0.042,0.178 0.0841,0.356 0.12612,0.534 26.33683,46.03121 91.43478,8.78531 65.09796,-37.24589 v 0 c -1.26243,-2.10193 -2.52486,-4.20386 -3.78728,-6.30579 -1.5361,-2.15362 -3.01303,-4.35071 -4.60831,-6.46087 -13.06248,-17.27849 -28.37239,-32.75778 -43.26358,-48.42072 -30.73885,-30.93681 -62.36791,-61.04649 -96.24794,-88.55725 -20.94898,-16.82112 -41.89309,-34.12737 -65.51435,-47.12505 -47.45534,-23.67468 -80.9364,43.4373 -33.48106,67.11199 z"/>
<path d="m 259.47159,889.13235 c -0.44024,0.2316 -1.10057,0.24872 -1.32074,0.69479 -0.15781,0.31972 0.71043,-0.0793 1.05742,-0.16128 1.77708,-0.42008 3.53485,-0.91895 5.31074,-1.34407 2.55378,-0.61134 5.11065,-1.21121 7.67749,-1.76511 8.55361,-1.84578 13.47663,-2.69918 22.36676,-4.36821 37.11188,-6.72433 74.42339,-12.21936 111.86336,-16.73962 33.82367,-4.03184 67.85588,-5.44281 101.89465,-5.27736 18.03471,-0.0214 36.00703,1.30276 53.77481,4.36228 6.99077,1.24486 3.62273,0.64558 10.10409,1.79804 52.214,9.28431 65.34398,-64.55744 13.12998,-73.84174 v 0 c -6.67234,-1.18643 -3.11122,-0.55346 -10.6834,-1.89871 -21.84442,-3.66801 -43.83396,-5.46293 -65.99942,-5.41916 -37.15711,-0.1443 -74.30789,1.39796 -111.228,5.81949 -39.06637,4.73479 -78.00416,10.45056 -116.72665,17.49056 -11.64457,2.1961 -23.27177,4.37725 -34.78784,7.18616 -4.35743,1.06284 -10.32474,2.6097 -14.57155,4.11718 -1.81911,0.64573 -3.56164,1.48975 -5.34246,2.23463 -47.45544,23.67447 -13.97468,90.7866 33.48076,67.11213 z"/>
</svg>
