<?xml version="1.0" ?>
<svg xmlns="http://www.w3.org/2000/svg" width="1000" height="1000">
<path d="m 137.34917,162.74741 c -0.19366,23.216 0.27385,46.42097 0.99617,69.6241 1.59037,36.23893 5.99603,72.26613 9.66519,108.33029 2.55653,25.12812 3.71936,37.85033 6.11478,63.10179 3.80394,44.33119 9.27293,88.49377 13.69776,132.76191 2.57321,25.74365 3.63296,39.06641 5.84576,64.75919 3.88247,54.05311 11.67286,107.68844 20.08849,161.18665 3.30272,19.37568 6.1262,38.8968 11.08205,57.94473 2.07392,7.97117 2.66158,9.29087 5.17315,16.65559 17.44696,50.08097 88.27215,25.40724 70.82518,-24.67373 v 0 c -7.18643,-19.78562 -9.11086,-41.02571 -12.99202,-61.58483 -8.14825,-51.76562 -15.72425,-103.66027 -19.45372,-155.96691 -2.28882,-26.55143 -3.31963,-39.55331 -5.98282,-66.18942 -4.39993,-44.00634 -9.83727,-87.90772 -13.6191,-131.97683 -2.44307,-25.7484 -3.57869,-38.18762 -6.1866,-63.82184 -3.48462,-34.25183 -7.6912,-68.46553 -9.29494,-102.87725 -0.70842,-22.4196 -1.1466,-44.84117 -0.95933,-67.27344 0,-53.03301 -75,-53.03301 -75,0 z"/>
<path d="m 309.96045,187.75215 c 10.54734,-4.18157 21.69379,-7.45403 32.64376,-10.67004 23.7674,-6.66022 47.77623,-12.49176 72.01333,-17.18039 18.84597,-3.64573 29.58497,-5.22144 48.75077,-8.31792 54.20656,-8.32297 108.80634,-13.65798 163.46562,-17.88568 37.82242,-2.99424 75.75635,-3.81221 113.6798,-3.38274 13.12505,0.54834 26.42033,0.523 39.36885,3.02557 1.41735,0.37248 0.89869,0.17725 1.76443,0.53013 0.1624,0.0662 0.65529,0.24826 0.48679,0.19964 -1.39287,-0.40193 -2.65022,-0.93667 -3.94,-1.58277 -0.46162,0.1396 -4.11817,-3.57327 -3.79694,-2.33762 0.29597,1.13846 0.86922,2.18671 1.26318,3.29508 0.74705,2.10178 1.48556,4.20742 2.15928,6.33384 1.01944,3.21755 1.94629,6.4637 2.91943,9.69555 10.07552,34.0236 13.33469,69.4245 16.50707,104.60494 4.21878,51.91677 5.67671,103.98909 6.06213,156.05727 -0.13151,35.83634 -0.14901,71.71946 -2.24321,107.51007 -1.36823,23.38365 -2.11297,27.6428 -4.61394,50.82718 -5.31997,40.88609 -13.54994,81.40339 -23.92479,121.30153 -1.92245,7.39312 -4.0185,14.74002 -6.02775,22.11002 -9.90767,35.98226 -23.51197,70.77497 -38.71887,104.80749 -8.66024,19.53427 -18.65693,38.41554 -29.89716,56.57788 -2.20495,3.1019 -3.92009,6.62331 -6.39763,9.54276 -0.1912,0.22529 0.31472,-0.50021 0.47208,-0.75032 -34.75328,40.05883 21.89845,89.20739 56.65173,49.14857 v 0 c 4.83467,-5.85817 9.21791,-12.02744 13.10572,-18.56477 12.93737,-21.02692 24.56823,-42.81265 34.56075,-65.40304 2.36888,-5.31965 4.80299,-10.61073 7.10666,-15.95895 13.96369,-32.4182 25.9155,-65.72551 35.48451,-99.70435 2.15463,-7.92966 4.40256,-15.83456 6.4639,-23.78899 11.1942,-43.19683 20.03876,-87.06489 25.69489,-131.33574 0.98056,-9.22673 2.11518,-18.43839 2.94169,-27.6802 4.13808,-46.27072 4.16742,-92.78929 4.3393,-139.20256 -0.41246,-54.13641 -1.94314,-108.27773 -6.3653,-162.25409 -1.55656,-17.13992 -2.55655,-29.96991 -4.7444,-46.99071 -3.15815,-24.56953 -7.81835,-48.96266 -14.72952,-72.76548 -5.7438,-18.60401 -11.16851,-37.198285 -25.23956,-51.444838 -1.83846,-1.861381 -4.00121,-3.371786 -6.00181,-5.057679 -1.70255,-1.119741 -3.35558,-2.318658 -5.10764,-3.359223 -7.02932,-4.174783 -14.89044,-6.563293 -22.85895,-8.158187 -17.13716,-3.012471 -34.53595,-3.880743 -51.91334,-4.223388 -40.13323,-0.436164 -80.27738,0.430885 -120.30334,3.602105 -56.73017,4.400248 -113.39816,9.952573 -169.65452,18.624829 -20.77223,3.366548 -31.56737,4.943131 -52.05419,8.928699 -26.22617,5.102119 -52.20819,11.426161 -77.92351,18.663482 -16.69585,4.93172 -33.6803,9.69001 -49.17655,17.79286 -45.83479,26.6772 -8.10754,91.49737 37.72725,64.82018 z"/>
<path d="m 437.36736,268.70153 c 17.34945,-4.95501 35.15156,-8.11813 52.88223,-11.35383 22.79294,-4.14043 45.91868,-6.58647 69.10165,-6.46396 3.59553,0.019 7.18826,0.20474 10.78238,0.30711 9.42916,0.32186 18.76094,1.65689 28.04647,3.23044 52.3061,8.75057 64.68128,-65.22141 12.37519,-73.97199 v 0 c -12.75331,-2.11315 -25.57718,-3.83685 -38.5186,-4.2343 -4.64963,-0.10687 -9.29803,-0.31457 -13.94888,-0.32062 -27.28218,-0.0355 -54.49883,2.81716 -81.32719,7.67631 -20.24576,3.70803 -40.5549,7.39544 -60.34998,13.11823 -50.9206,14.81865 -29.96387,86.83125 20.95673,72.01261 z"/>
<path d="m 468.95405,155.80238 c 0.22364,20.64512 0.25528,41.28946 0.1002,61.93547 -0.10645,17.07684 -0.85273,34.19983 -3.93396,51.02911 -1.35831,7.41896 -2.1705,10.04514 -4.00384,17.06283 -13.14493,51.37812 59.5147,69.96785 72.65963,18.58973 v 0 c 2.56098,-10.15874 3.62425,-13.64679 5.48995,-24.36496 3.5494,-20.39079 4.68062,-41.08644 4.78614,-61.75781 0.15405,-20.83226 0.13149,-41.66305 -0.0981,-62.49437 0,-53.033 -75,-53.033 -75,0 z"/>
<path d="m 310.63745,393.99562 c 16.17985,-4.47281 32.33811,-8.97313 48.61505,-13.0906 35.02907,-9.22355 70.66903,-16.21964 106.7138,-19.99802 8.22549,-0.86224 16.48284,-1.38724 24.72426,-2.08086 33.1968,-2.26341 66.52843,-2.63017 99.71827,-0.0607 19.56474,1.51466 24.14433,2.42293 43.17527,5.04447 23.79286,3.82315 47.42597,8.89531 70.3739,16.2955 50.50232,16.18692 73.39408,-55.23414 22.89176,-71.42106 v 0 c -27.13227,-8.65554 -54.99754,-14.81647 -83.13479,-19.18706 -21.58642,-2.91592 -26.91795,-3.95099 -49.04413,-5.61065 -36.73753,-2.75565 -73.6287,-2.34633 -110.36536,0.21177 -9.26178,0.80194 -18.5414,1.4192 -27.78533,2.40581 -39.06483,4.16943 -77.70404,11.73719 -115.68712,21.6978 -16.69929,4.23678 -33.28599,8.83472 -49.88817,13.42506 -51.17227,13.92476 -31.47968,86.29328 19.69259,72.36852 z"/>
<path d="m 382.24916,426.52258 c 1.52858,17.95233 5.02949,35.60861 8.82997,53.1918 4.63585,20.2567 9.97702,40.35869 16.02613,60.23945 0.50039,1.52841 1.00079,3.05682 1.50118,4.58523 16.5958,50.36943 87.82893,26.89943 71.23314,-23.47 v 0 c -0.33396,-1.00392 -0.66792,-2.00784 -1.00188,-3.01176 -5.48679,-17.90185 -10.24023,-36.03333 -14.46941,-54.27083 -2.07921,-9.50557 -2.90687,-12.76312 -4.53277,-22.15748 -1.28501,-7.42468 -2.05633,-14.87701 -2.93165,-22.35313 -0.16343,-1.3958 -0.35378,-2.78831 -0.53067,-4.18247 -8.08165,-52.41361 -82.20569,-40.98442 -74.12404,11.42919 z"/>
<path d="m 437.33073,460.45596 c 17.46963,-4.93978 35.18812,-8.82787 52.9776,-12.40909 25.03534,-4.64239 50.37604,-7.73225 75.84846,-8.03066 5.32634,0.53196 11.1173,-0.12818 16.31555,1.5478 0.44926,0.14485 -0.93836,-0.1219 -1.3961,-0.23717 -1.93735,-0.92795 -4.12433,-1.45493 -5.81205,-2.78385 -3.6714,-2.89089 -7.32254,-5.96794 -10.08719,-9.73533 -2.2404,-3.053 -3.28629,-6.8319 -4.66004,-10.36078 -0.44502,-1.14314 0.42684,-3.34675 -0.7739,-3.59783 -1.10206,-0.23046 -0.24336,2.2387 -0.3832,3.35587 -0.26604,2.12548 -0.55628,4.24786 -0.83442,6.37178 -3.10347,21.50494 -8.76815,42.50193 -15.17961,63.22323 -2.59278,7.09252 -4.36507,14.75603 -8.64678,21.0947 -26.45143,45.96544 38.55352,83.37341 65.00495,37.40797 v 0 c 1.43576,-2.59741 2.98272,-5.13638 4.30729,-7.79222 4.57161,-9.16636 7.83352,-18.906 11.00691,-28.6181 7.64867,-24.8946 14.34924,-50.13306 17.92348,-75.97621 1.07991,-8.8611 3.1242,-21.70828 1.07796,-30.38076 -3.21211,-13.61376 -6.68183,-18.55064 -17.50637,-27.63028 -2.48483,-2.08427 -5.71511,-3.06786 -8.57266,-4.6018 -1.79338,-0.62793 -3.5617,-1.3326 -5.38014,-1.88378 -12.12529,-3.67528 -24.97454,-4.09644 -37.53612,-4.39469 -3.98109,0.0702 -7.96451,0.0574 -11.94327,0.2106 -26.06499,1.00383 -51.97849,4.66271 -77.61905,9.29561 -20.0277,4.05597 -39.98214,8.45435 -59.63819,14.07478 -50.80578,15.20767 -29.29889,87.05788 21.50689,71.85021 z"/>
<path d="m 450.7102,569.10177 c 16.40719,-0.97722 32.62404,-4.16955 48.81337,-6.89034 15.89016,-2.701 31.82966,-5.10944 47.85493,-6.84887 -6.8787,-0.58231 6.09576,-0.19644 4.57564,-0.37229 -3.98361,-0.46082 -10.32851,2.4648 -11.97119,-1.1935 -8.75555,-19.49891 -11.54826,-41.17415 -16.40022,-61.99063 -0.17439,-0.74819 1.03649,-1.13424 1.55473,-1.70136 -2.04838,1.33973 -4.09675,2.67947 -6.14513,4.0192 -32.36125,21.25967 -62.5719,45.54645 -92.39454,70.17651 -31.95839,27.2252 -63.37956,55.07085 -95.19541,82.46104 -12.82631,11.19229 -26.20276,21.78367 -38.5379,33.53299 -5.09653,4.85449 -6.5573,6.53311 -11.10416,11.38436 -36.13975,38.81261 18.74957,89.92193 54.88931,51.10932 v 0 c 13.28559,-14.41873 28.98649,-26.28915 43.68652,-39.1893 31.43125,-27.06195 62.48638,-54.55768 94.03581,-81.48295 27.66654,-22.8743 55.67027,-45.46531 85.68243,-65.23126 1.60776,-1.05222 15.23341,-9.78109 15.16423,-10.6843 -1.67524,-21.87389 -5.43696,-44.09906 -13.94752,-64.31895 -1.55349,-3.69089 -17.19666,-1.44618 -22.02521,-1.07664 -17.46183,1.91259 -34.83881,4.48885 -52.1541,7.44413 -12.01385,2.01958 -24.57481,4.11174 -36.38159,5.85284 -53.033,0 -53.033,75 0,75 z"/>
<path d="m 405.12556,598.51561 c -0.0482,-0.14029 -0.14295,-0.56921 -0.1446,-0.42088 -0.0303,2.72074 0.2483,5.43722 0.27944,8.15795 0.0279,2.44032 0.0213,4.88121 -0.0148,7.32143 -0.10058,6.80495 -0.42754,15.45612 -0.65019,22.11144 -1.44323,30.66036 -1.99385,61.33852 -1.18899,92.02179 0.41661,13.40566 1.39424,26.78287 2.44855,40.15024 4.17624,52.86832 78.94333,46.96223 74.76709,-5.90609 v 0 c -0.95502,-12.07007 -1.85496,-24.14819 -2.24255,-36.25274 -0.80008,-29.18146 -0.17646,-58.35727 1.17434,-87.51693 0.57415,-17.31591 1.53271,-34.76272 -0.45322,-52.02294 -8.73753,-52.30827 -82.7126,-39.95155 -73.97508,12.35673 z"/>
<path d="m 620.65192,567.60295 c -13.18088,9.59572 -26.95188,18.46785 -40.80913,27.08585 -12.61712,7.30732 -25.00173,16.07642 -39.31549,19.76655 -4.90529,1.01768 -16.06716,0.67024 -17.47023,4.4883 -6.94644,18.90271 -7.11715,39.64352 -10.67572,59.46528 2.88503,2.39105 5.67425,4.90266 8.6551,7.17313 3.16273,2.40902 6.7175,4.25513 10.03988,6.4387 7.73065,5.08083 15.13618,10.54188 22.5513,16.06958 21.26664,16.20324 42.1674,32.88045 63.03776,49.58895 11.13054,9.54513 23.47471,18.10686 32.83581,29.53052 0.26457,0.41221 0.57018,0.8008 0.79372,1.23663 0.0217,0.0423 -0.0931,0.11797 -0.11931,0.0783 -0.55991,-0.8494 -1.17207,-1.68297 -1.55877,-2.62395 -0.83535,-2.03273 -1.39289,-4.16883 -2.08933,-6.25325 9.61238,52.1546 83.37012,38.56063 73.75774,-13.59396 v 0 c -0.90585,-3.22058 -1.55811,-6.52351 -2.71754,-9.66173 -2.48178,-6.71744 -6.86305,-12.52575 -11.21658,-18.10117 -1.67598,-1.91098 -3.29685,-3.87174 -5.02796,-5.73294 -11.47511,-12.33745 -24.81753,-22.74603 -37.78518,-33.42719 -21.56075,-17.26072 -43.1536,-34.48865 -65.13733,-51.20973 -8.79713,-6.53581 -17.6032,-12.97177 -26.7665,-18.98775 -1.87963,-1.23403 -3.77824,-2.43895 -5.67452,-3.64722 -0.89229,-0.56855 -3.31368,-2.53861 -2.69107,-1.68316 1.28516,1.76578 3.16682,3.00827 4.75023,4.51241 -3.9589,19.37889 -4.83836,39.6522 -11.8767,58.13669 -1.42213,3.73488 -7.70321,2.13661 -11.5221,3.31464 -0.40962,0.12636 0.85142,-0.1005 1.27671,-0.15419 5.35662,-0.67628 10.6895,-1.51968 15.88802,-3.03244 7.52225,-2.32112 8.79179,-2.51985 16.256,-5.65227 14.51744,-6.09239 28.08108,-14.1406 41.45787,-22.3801 11.65673,-7.27215 23.21224,-14.63837 34.47755,-22.50964 5.33398,-3.72695 11.32458,-7.97977 16.32591,-12.21638 1.78244,-1.50989 3.4145,-3.18884 5.12175,-4.78327 36.22872,-38.72957 -18.54317,-89.96472 -54.77189,-51.23515 z"/>
<path d="m 290.74082,873.5079 c -2.74973,4.42955 -1.84633,3.39778 -5.9074,7.76726 -0.52335,0.56309 -1.76861,0.80463 -1.68993,1.56934 0.0646,0.62751 1.19601,-0.40226 1.78744,-0.62168 11.3305,-4.20357 -2.01162,0.58185 12.91996,-4.70098 20.62402,-6.84195 41.5002,-13.1049 62.80353,-17.48229 5.09683,-1.04729 10.23459,-1.88448 15.35188,-2.82673 29.07443,-4.75868 58.56017,-6.48209 87.99824,-6.3737 6.25948,0.023 12.5172,0.2157 18.7758,0.32355 36.88076,1.31559 73.4263,7.00196 109.79792,12.91688 17.74622,3.19606 35.56947,6.13512 53.11697,10.33222 6.20893,1.48509 10.17355,2.65981 16.22546,4.36249 6.47984,1.80255 12.83988,3.98545 19.08552,6.47263 49.36388,19.38316 76.77581,-50.42791 27.41193,-69.81108 v 0 c -8.62016,-3.35581 -17.34922,-6.42245 -26.27315,-8.88328 -8.02762,-2.2393 -11.77667,-3.36181 -20.13276,-5.34428 -18.97356,-4.50142 -38.2236,-7.73644 -57.41065,-11.1587 -39.94005,-6.4787 -80.07882,-12.60821 -120.58496,-13.87669 -6.94201,-0.10978 -13.88316,-0.31465 -20.82603,-0.32933 -33.76981,-0.0714 -67.58382,2.05955 -100.91483,7.63686 -6.12178,1.15071 -12.26717,2.18229 -18.36535,3.45213 -24.15851,5.03057 -47.85211,12.11543 -71.23466,19.94081 -12.07983,4.32845 -25.69625,8.5206 -35.81443,16.75048 -2.76491,2.24892 -5.28185,4.81058 -7.62012,7.50036 -1.56197,1.79679 -2.68511,3.9323 -4.02766,5.89846 -25.79899,46.33478 39.7283,82.82005 65.52728,36.48527 z"/>
</svg>
