<?xml version="1.0" ?>
<svg xmlns="http://www.w3.org/2000/svg" width="1000" height="1000">
<path d="m 266.38183,214.61449 c 23.70922,-4.05924 47.75181,-6.04601 71.67582,-8.43523 28.91082,-2.9704 57.90572,-5.00982 86.90962,-6.80533 52.93151,-3.27944 48.29369,-78.13591 -4.63783,-74.85647 v 0 c -29.94401,1.85668 -59.87824,3.9686 -89.7265,7.0332 -26.04842,2.60261 -52.21463,4.80836 -78.01302,9.34285 -52.1286,9.75235 -38.3367,83.47333 13.79191,73.72098 z"/>
<path d="m 144.94973,407.43325 c 32.30296,-6.71911 64.74657,-12.66383 97.27273,-18.18864 43.10097,-7.13101 86.54082,-12.21207 130.17556,-14.5047 25.59293,-1.34469 36.03468,-1.23638 61.32718,-1.56026 21.97718,-0.14758 43.93957,0.61206 65.89454,1.46661 52.99326,2.05276 55.8963,-72.89104 2.90304,-74.9438 v 0 c -23.25185,-0.89658 -46.51164,-1.6892 -69.78664,-1.51629 -27.07135,0.36679 -37.97185,0.25443 -65.41439,1.72573 -46.14519,2.47402 -92.08725,7.84753 -137.67032,15.39375 -33.47659,5.69687 -66.87197,11.808 -100.11948,18.72943 -51.900345,10.90202 -36.482564,84.30019 15.41778,73.39817 z"/>
<path d="m 262.02174,245.22245 c 0.76964,19.52979 1.38859,39.24684 -1.63561,58.63695 -0.98611,6.32256 -2.49937,12.55156 -3.74906,18.82734 -6.70926,29.81267 -17.33839,58.51711 -30.08574,86.23728 -3.07461,6.68599 -6.39282,13.25725 -9.58923,19.88587 -22.97939,47.7959 44.61421,80.29367 67.59361,32.49777 v 0 c 3.5816,-7.46928 7.30779,-14.87093 10.74481,-22.40783 14.96475,-32.81556 27.28264,-66.84136 35.00164,-102.12569 1.56801,-8.45836 3.48087,-16.86 4.70403,-25.37506 3.38495,-23.56444 2.91392,-47.47025 1.8487,-71.17665 -3.53555,-52.91503 -78.3687,-47.915 -74.83315,5.00002 z"/>
<path d="m 361.46929,224.31798 c 3.98226,19.49853 5.03558,39.5166 6.65463,59.31491 2.27943,31.59087 4.53608,63.23605 4.46358,94.93 -0.051,22.27709 -0.77361,30.37551 -1.96911,52.64957 -1.42593,24.11664 -4.71788,48.04122 -8.13271,71.93454 -7.47182,52.50402 66.78008,63.07076 74.25189,10.56674 v 0 c 3.6979,-26.08754 7.25593,-52.20962 8.77607,-78.53887 1.30228,-24.94563 2.03645,-32.89913 2.06257,-57.91315 0.0348,-33.30271 -2.28927,-66.55529 -4.70248,-99.74974 -1.92941,-23.53239 -3.31137,-47.29569 -8.40684,-70.40881 -12.17271,-51.6171 -85.17031,-34.40229 -72.9976,17.21481 z"/>
<path d="m 560.96861,249.54274 c 0.6743,22.40145 0.62742,44.82143 0.86202,67.23137 0.44348,32.53562 0.53179,65.07251 -0.0526,97.60596 -0.94579,53.02458 74.04228,54.36212 74.98807,1.33755 v 0 c 0.58892,-33.24121 0.51885,-66.48573 0.0604,-99.72913 -0.30237,-28.84425 -0.11835,-9.61623 -0.33786,-36.7253 -0.0982,-12.12904 0.0828,-24.34412 -0.90266,-36.44744 -0.17261,-2.11998 -0.50907,-4.22343 -0.76361,-6.33514 -9.23632,-52.22251 -83.0901,-39.16038 -73.85378,13.06213 z"/>
<path d="m 706.14913,147.73287 c 2.77968,21.60175 3.33322,43.43798 3.93966,65.18983 0.68969,54.91742 1.50569,109.83401 2.06603,164.75306 0.0344,31.45514 0.52407,62.94313 -0.82437,94.38191 -0.6766,15.77491 -1.058,18.01114 -2.45119,33.06079 -1.11866,8.7091 -1.58416,14.00315 -3.36108,22.31686 -0.46719,2.18587 -1.02091,4.35793 -1.71452,6.48284 -0.32046,0.98174 -0.48636,3.41799 -1.31698,2.80432 -0.8785,-0.64905 0.22356,-2.25665 0.81787,-3.17308 1.79068,-2.76129 4.1433,-5.11449 6.21495,-7.67174 1.00855,-0.9077 3.93038,-1.71188 3.02565,-2.72309 -1.2699,-1.41935 -3.80435,-0.18927 -5.70699,-0.27382 -21.39125,-0.95064 -7.04333,-0.15377 -32.87476,-1.8541 -52.92136,-3.43947 -57.78551,71.40263 -4.86415,74.8421 v 0 c 10.75421,0.69091 29.38182,2.13032 40.50415,1.961 5.90306,-0.0899 11.87771,-0.019 17.67473,-1.13649 6.94105,-1.338 13.52381,-4.12068 20.28571,-6.18103 5.79635,-4.74963 12.32542,-8.72475 17.38906,-14.2489 3.44155,-3.75453 5.53989,-8.58012 7.74516,-13.17114 1.68621,-3.51041 2.77466,-7.28609 3.87571,-11.02159 3.84939,-13.05967 5.36439,-26.68118 6.9956,-40.14126 1.56348,-17.37214 1.96808,-19.67616 2.72934,-37.6899 1.37011,-32.42139 0.90215,-64.89149 0.8522,-97.32948 -0.56588,-55.37351 -1.38052,-110.74473 -2.09235,-166.11637 -0.78327,-27.12348 -1.20596,-54.53475 -6.15832,-81.28913 -12.88943,-51.442808 -85.64055,-33.214393 -72.75111,18.22841 z"/>
<path d="m 392.51368,690.71588 c 28.66833,-6.42596 57.93921,-9.25437 87.16253,-11.69949 19.77631,-1.39822 39.61272,-2.33888 59.43899,-1.53894 11.9358,0.48158 16.93841,1.19448 28.44808,2.4287 52.74387,5.53026 60.56485,-69.06084 7.82097,-74.5911 v 0 c -14.56349,-1.49886 -19.96843,-2.27748 -35.12904,-2.82894 -22.31038,-0.81151 -44.63022,0.19157 -66.88174,1.79558 -7.73628,0.65712 -15.48189,1.21244 -23.20885,1.97137 -24.43995,2.40046 -48.80149,5.82499 -72.81389,11.01158 -51.93787,10.72183 -36.77492,84.17307 15.16295,73.45124 z"/>
<path d="m 452.95296,543.08928 c 1.20743,27.9028 0.49498,55.86414 0.40208,83.78601 -0.1373,33.87422 -0.47604,67.80127 -4.05535,101.52117 -1.91503,18.04118 -3.97329,30.00837 -6.73376,47.9452 -8.03702,52.42047 66.09672,63.78654 74.13375,11.36607 v 0 c 3.11112,-20.36312 5.19266,-32.37699 7.33073,-52.96144 3.71356,-35.75261 4.20933,-71.70976 4.32421,-107.62195 0.0997,-30.08456 0.93317,-60.22229 -0.66188,-90.27732 -4.41394,-52.849 -79.15372,-46.60674 -74.73978,6.24226 z"/>
<path d="m 196.55213,878.34545 c 29.98894,-5.96445 60.23235,-10.52469 90.45548,-15.11216 61.19223,-8.82881 122.70605,-15.53424 184.43249,-19.19448 14.18716,-0.84126 28.39053,-1.38207 42.58579,-2.07311 54.27638,-1.96593 108.66255,-1.36767 162.85531,2.33213 28.15016,1.92184 38.28566,3.27842 65.63173,6.24273 34.98261,4.51957 17.91416,2.13533 51.2119,7.10571 52.45417,7.81406 63.50491,-66.36735 11.05074,-74.1814 v 0 c -35.27034,-5.24416 -17.20328,-2.73122 -54.20789,-7.49053 -29.18383,-3.14205 -39.55855,-4.53376 -69.62403,-6.56641 -56.7651,-3.83773 -113.73023,-4.44007 -170.57956,-2.35279 -14.72869,0.72284 -29.46583,1.29025 -44.18608,2.1685 -63.73351,3.8025 -127.2488,10.73079 -190.43047,19.85973 -30.56933,4.64417 -61.16769,9.23064 -91.49842,15.27805 -52.3146,8.69954 -40.0116,82.68357 12.30301,73.98403 z"/>
</svg>
