<?xml version="1.0" ?>
<svg xmlns="http://www.w3.org/2000/svg" width="1000" height="1000">
<path d="m 117.71389,487.01211 c 33.22882,-3.98174 66.63832,-6.18653 100.0126,-8.53041 46.55669,-3.49231 93.16404,-6.19985 139.82765,-7.69162 53.0058,-1.69845 50.60383,-76.65998 -2.40197,-74.96153 v 0 c -47.61561,1.52915 -95.17523,4.2715 -142.68198,7.83757 -35.47912,2.49357 -71.00615,4.81431 -106.3092,9.24113 -52.400049,8.16914 -40.847146,82.274 11.5529,74.10486 z"/>
<path d="m 203.44197,356.24354 c 3.75435,20.92565 6.4366,41.99624 7.58484,63.23662 0.43193,7.98988 0.585,15.99241 0.8775,23.98861 0.7656,61.19808 -2.91585,122.339 -5.48106,183.45939 -0.35625,9.88579 -0.7125,19.77157 -1.06876,29.65736 -1.90872,52.99865 73.04269,55.69799 74.95141,2.69935 v 0 c 0.35047,-9.73736 0.70093,-19.47471 1.0514,-29.21206 2.64812,-63.10852 6.45226,-126.24141 5.49371,-189.43105 -0.34669,-8.94931 -0.53407,-17.90621 -1.04007,-26.84793 -1.2774,-22.57357 -3.95683,-45.031 -8.00172,-67.27203 -6.87431,-52.58559 -81.24156,-42.86384 -74.36725,9.72174 z"/>
<path d="m 144.12628,791.06845 c 27.22558,-21.69837 57.31456,-39.48762 87.10877,-57.3566 29.76248,-17.15931 59.82412,-33.85569 90.93783,-48.46774 10.55524,-4.9571 21.31336,-9.47018 31.97004,-14.20528 48.4444,-21.57869 17.92752,-90.08942 -30.51688,-68.51073 v 0 c -11.59354,5.17587 -23.29577,10.11483 -34.78061,15.52761 -32.90618,15.5086 -64.72957,33.16344 -96.21118,51.35234 -33.05712,19.86064 -66.38538,39.7122 -96.458334,63.99097 -40.77844,33.90603 7.171924,91.57546 47.950364,57.66943 z"/>
<path d="m 410.06344,215.03258 c 0.21686,24.68689 2.59534,49.32773 6.36995,73.71511 1.31615,8.50351 2.91839,16.96026 4.37758,25.44039 6.53725,33.50754 14.32167,66.76275 19.93297,100.44905 2.89014,17.35041 3.41443,22.5106 5.60671,39.41914 0.56659,5.12566 1.13318,10.25132 1.69978,15.37698 5.84974,52.70939 80.39209,44.4366 74.54234,-8.2728 v 0 c -0.6233,-5.59593 -1.2466,-11.19187 -1.8699,-16.7878 -2.42535,-18.55546 -2.96919,-23.92646 -6.15253,-42.95149 -5.61174,-33.53829 -13.23667,-66.67638 -19.85725,-100.01887 -1.32375,-7.60537 -2.77195,-15.19013 -3.97127,-22.81612 -3.30606,-21.02207 -5.44773,-42.26425 -5.67838,-63.55359 0,-53.03301 -75,-53.03301 -75,0 z"/>
<path d="m 548.75103,250.15586 c 21.46104,-7.95136 43.93562,-12.53304 66.33344,-16.91584 34.40508,-5.90715 69.28241,-9.70836 104.21399,-10.19664 5.87032,-0.0821 11.74136,0.0999 17.61205,0.1499 19.41462,0.86961 39.05055,2.52209 57.73119,8.18263 0.63079,0.88341 2.27919,0.51347 3.08388,1.28292 0.1176,0.11245 -0.32745,-0.048 -0.47294,-0.12091 -0.84533,-0.42336 -1.7355,-0.78944 -2.48788,-1.36193 -2.09355,-1.59301 -4.35459,-3.06859 -6.01568,-5.10855 -2.48842,-3.056 -4.19585,-6.67236 -6.29378,-10.00854 -0.30408,-0.63387 -0.77042,-2.5902 -0.91224,-1.90162 -0.35014,1.70017 0.17892,3.46733 0.23248,5.20235 0.27668,8.96376 0.34543,14.79251 0.23188,24.11692 -0.21632,17.76509 -0.42643,18.3843 -1.33291,36.85181 -2.17946,45.44148 -12.34652,89.87394 -22.98987,133.93431 -4.68486,16.31835 -5.32905,20.38941 -11.49799,35.45111 -1.77104,4.32407 -3.90113,8.49223 -5.85169,12.73834 -21.77991,48.35427 46.60336,79.15571 68.38326,30.80144 v 0 c 2.65144,-5.97095 5.53813,-11.84289 7.95432,-17.91285 7.40327,-18.59848 8.40168,-24.05073 13.92106,-43.4916 11.71832,-48.64778 22.66793,-97.73332 24.99332,-147.89715 0.89886,-18.8342 1.65792,-37.60989 1.40245,-56.4707 -0.0743,-5.48191 -0.38613,-18.06262 -1.19782,-23.91462 -0.53786,-3.87781 -1.52283,-7.68035 -2.28425,-11.52052 -2.65688,-4.99007 -4.68171,-10.37207 -7.97063,-14.9702 -6.55276,-9.16121 -19.56111,-14.26794 -29.87206,-17.69333 -7.25291,-2.07489 -9.20477,-2.76065 -17.00353,-4.3882 -20.14217,-4.20354 -40.70763,-6.14047 -61.25197,-6.79945 -6.91645,-0.035 -13.8337,-0.21639 -20.74934,-0.10513 -38.90961,0.62599 -77.75181,4.88661 -116.06219,11.56264 -6.98428,1.38227 -13.99165,2.65267 -20.95286,4.14681 -18.45864,3.96194 -36.776,8.83947 -54.56304,15.18946 -50.32277,16.73676 -26.65342,87.9039 23.66935,71.16714 z"/>
<path d="m 503.87461,376.82298 c 4.09544,-1.39691 5.54249,-1.96367 10.34001,-3.12544 21.35179,-5.17059 43.31942,-7.67902 65.06739,-10.48098 35.25322,-4.25351 70.7985,-6.52478 106.31533,-5.53655 5.62938,0.15663 11.25091,0.52393 16.87637,0.7859 4.86633,0.351 9.73267,0.702 14.599,1.05299 52.89887,3.76957 58.22985,-71.04072 5.33098,-74.8103 v 0 c -5.51422,-0.38872 -11.02844,-0.77744 -16.54267,-1.16616 -6.49874,-0.28617 -12.99337,-0.68981 -19.49622,-0.85851 -38.98729,-1.01142 -78.00309,1.46328 -116.69905,6.15167 -17.74938,2.30205 -25.63246,3.1529 -42.99664,6.04636 -17.40328,2.89998 -34.90926,6.20783 -51.41608,12.61711 -49.01941,20.23851 -20.39783,89.56243 28.62158,69.32391 z"/>
<path d="m 497.61903,502.9499 c 24.77768,-3.38292 49.6927,-5.48346 74.61757,-7.4075 48.38862,-3.52049 96.92213,-3.219 145.37348,-1.53889 27.48037,1.25339 14.21995,0.60742 39.78204,1.92134 52.96319,2.72053 56.81059,-72.18072 3.84741,-74.90125 v 0 c -26.2765,-1.34883 -12.59376,-0.68384 -41.04916,-1.97569 -51.292,-1.75345 -102.51105,-2.03935 -153.73816,1.71788 -25.96986,2.01293 -51.93079,4.20218 -77.74927,7.71598 -52.65693,6.30462 -43.74084,80.77276 8.91609,74.46813 z"/>
<path d="m 582.71994,229.57914 c 4.55672,27.65828 6.50409,55.6155 8.1616,83.56652 3.0291,67.80291 0.99334,135.69028 -1.71251,203.46337 -0.64016,13.11362 -1.24955,26.22879 -1.92048,39.34088 -1.41753,27.70274 -2.78451,51.05424 -4.24548,78.73592 -1.9311,36.58949 -3.64824,73.1862 -5.68526,109.77012 -1.63748,23.5446 -2.44193,38.31877 -4.88806,61.52578 -0.96722,9.17622 -2.22508,18.31948 -3.33762,27.47922 -6.36142,52.65009 68.09706,61.64649 74.45847,8.99639 v 0 c 1.19225,-9.91581 2.53622,-19.81456 3.57675,-29.74745 2.53758,-24.22365 3.37476,-39.56912 5.07457,-64.08625 2.03699,-36.61675 3.7578,-73.24604 5.69066,-109.86825 1.46282,-27.71617 2.84877,-51.40569 4.2669,-79.15145 0.68156,-13.33459 1.30005,-26.67234 1.95007,-40.00851 2.7947,-70.25867 4.86593,-140.63727 1.63844,-210.92348 -0.50173,-8.33731 -0.91282,-16.68057 -1.50519,-25.01194 -1.53144,-21.539 -3.94889,-43.00936 -7.22938,-64.35116 -7.26219,-52.53343 -81.55567,-42.26314 -74.29348,10.27029 z"/>
<path d="m 531.25981,679.0669 c 23.97948,-6.31571 48.48484,-10.24664 72.98558,-13.8766 29.34822,-3.57108 58.99324,-4.01253 88.48236,-2.19398 17.43518,1.0752 23.66959,2.03984 40.97918,4.05782 52.68302,6.08268 61.28523,-68.42236 8.6022,-74.50504 v 0 c -19.6197,-2.2457 -26.67596,-3.32509 -46.48738,-4.48893 -34.2131,-2.00988 -68.59692,-1.33847 -102.62162,2.9479 -26.43474,3.9536 -52.88336,8.18676 -78.76879,14.9712 -51.68076,11.89953 -34.85229,84.98716 16.82847,73.08763 z"/>
<path d="m 374.90461,905.77937 c 22.03628,-3.74489 44.04097,-7.69055 66.16802,-10.87936 8.16922,-1.1773 16.35767,-2.21707 24.5365,-3.3256 70.41361,-8.89512 141.44327,-10.88399 212.32072,-12.56654 38.31526,-0.73496 76.64789,-0.38813 114.94698,0.91608 23.23603,0.79126 42.04901,1.47456 65.02066,4.15836 9.63952,1.12619 19.19992,2.84926 28.79987,4.27389 52.47587,7.66704 63.3187,-66.54504 10.84284,-74.21208 v 0 c -11.06619,-1.59482 -22.09031,-3.51535 -33.19857,-4.78445 -24.44858,-2.79321 -44.90707,-3.57949 -69.52698,-4.41068 -39.53982,-1.3349 -79.11382,-1.68158 -118.66983,-0.91988 -73.65529,1.75844 -147.46335,3.90146 -220.62726,13.22734 -30.49488,4.14817 -60.91834,8.73838 -91.19619,14.27338 -52.50236,7.48349 -41.91911,81.73303 10.58324,74.24954 z"/>
</svg>
