<?xml version="1.0" ?>
<svg xmlns="http://www.w3.org/2000/svg" viewBox="0 0 1000 1000">
<path d="m 94.11035,450.69588 c 31.42339,-3.73754 62.94798,-6.5547 94.47455,-9.25227 28.98822,-2.44011 58.06348,-3.68756 87.15553,-3.36732 20.51549,0.22583 32.70227,0.99664 52.8672,1.97949 52.97104,2.56309 56.59579,-72.34927 3.62476,-74.91236 v 0 c -21.9092,-1.05283 -34.54314,-1.85421 -56.92216,-2.06589 -31.08444,-0.29403 -62.15121,1.03692 -93.12479,3.6396 -23.91939,2.05014 -47.81169,4.22956 -71.69127,6.7011 -5.88866,0.60948 -18.12215,1.87268 -24.592478,2.74447 -2.410788,0.32481 -4.805946,0.75664 -7.208919,1.13496 -51.900377,10.90187 -36.482804,84.30009 15.417577,73.39822 z"/>
<path d="m 167.96628,304.26879 c 4.06937,30.25079 5.32487,60.78371 6.69805,91.24614 2.57185,72.23507 -0.41698,144.51823 -2.84696,216.71493 -0.38078,11.76223 -0.76157,23.52447 -1.14236,35.2867 -1.71593,53.00524 73.2448,55.43193 74.96073,2.42669 v 0 c 0.37974,-11.73028 0.75947,-23.46055 1.1392,-35.19083 2.49562,-74.16736 5.52475,-148.42387 2.81266,-222.62921 -1.47471,-32.44521 -2.86929,-64.95822 -7.20307,-97.17777 -6.5926,-52.62165 -81.01085,-43.2983 -74.41825,9.32335 z"/>
<path d="m 105.06609,770.04201 c 2.42237,-1.25052 4.881,-2.43319 7.26713,-3.75156 16.14172,-8.91852 31.75021,-18.8913 47.32404,-28.74214 18.27146,-11.55716 36.47646,-23.21908 54.72923,-34.80573 28.79334,-17.60218 35.24758,-22.0707 65.22343,-38.24932 11.2717,-6.08357 22.7562,-11.76433 34.1343,-17.64649 47.09499,-24.38363 12.61132,-90.98601 -34.48367,-66.60238 v 0 c -12.15992,6.30475 -24.43388,12.39426 -36.47976,18.91424 -31.50292,17.05132 -38.56815,21.90015 -68.58907,40.26428 -32.88415,20.87466 -65.47681,42.25653 -99.130757,61.8827 -48.603973,21.21683 -18.598849,89.95323 30.005127,68.7364 z"/>
<path d="m 411.00174,264.25984 c 28.11941,-3.79808 55.9173,-9.6014 83.97998,-13.78136 10.5097,-1.56543 21.0537,-2.89124 31.58056,-4.33685 62.93502,-7.78121 126.33636,-11.42704 189.73588,-11.91864 11.79859,-0.0915 23.59777,0.0764 35.39666,0.1146 27.9253,-0.003 55.78542,1.67731 83.61946,3.70104 52.89545,3.8172 58.2938,-70.98826 5.39834,-74.80547 v 0 c -29.55756,-2.11825 -59.14105,-3.90104 -88.79311,-3.89524 -12.33266,-0.0341 -24.66568,-0.20296 -36.99798,-0.10229 -66.3607,0.54168 -132.72053,4.41572 -198.58901,12.60692 -11.13018,1.5362 -22.27796,2.94985 -33.39053,4.6086 -26.66388,3.98007 -53.09273,9.36451 -79.77418,13.21895 -52.74291,5.53942 -44.90898,80.12916 7.83393,74.58974 z"/>
<path d="m 446.70201,155.4333 c 4.14647,28.16448 10.34383,55.95481 16.51751,83.72659 6.78993,30.77696 3.48792,15.27517 9.89815,46.50706 10.67113,51.94831 84.13714,36.85705 73.46601,-15.09126 v 0 c -6.64842,-32.3394 -3.25708,-16.44178 -10.15275,-47.69738 -5.84256,-26.26045 -11.74258,-52.53212 -15.65073,-79.1677 -8.2892,-52.381193 -82.36739,-40.6585 -74.07819,11.72269 z"/>
<path d="m 689.57853,129.307 c -0.058,-0.0329 -0.17015,-0.16516 -0.17384,-0.0986 -0.63004,11.35986 1.78315,-12.71281 -0.30653,11.4302 -0.36948,4.26875 -0.83051,8.53473 -1.5121,12.76488 -1.8954,11.76332 -5.77091,28.21488 -8.252,39.3772 -6.23349,28.32762 -13.45348,56.44248 -22.29934,84.07428 -2.921,9.12435 -6.18258,18.13614 -9.27387,27.20422 -17.0675,50.21156 53.94237,74.34864 71.00987,24.13708 v 0 c 3.37142,-9.94484 6.92857,-19.82864 10.11426,-29.83453 9.35577,-29.38546 17.04298,-59.26631 23.67728,-89.37518 6.56727,-29.79221 14.52305,-60.5119 10.95401,-91.2879 -0.25826,-2.22693 -0.79109,-4.41336 -1.18663,-6.62003 -12.88944,-51.44281 -85.64056,-33.214384 -72.75111,18.22842 z"/>
<path d="m 554.65241,301.31042 c -2.94126,5.63106 -2.35117,4.29922 -5.75248,12.47223 -6.76934,16.26606 -2.08458,6.48555 -10.42988,24.53637 -8.68393,18.78328 -10.7322,22.4114 -20.59058,42.01425 -26.54287,50.88897 -56.93504,99.68815 -89.88557,146.66169 -7.4104,10.56411 -15.09415,20.93381 -22.64123,31.40072 -29.09666,39.80698 -59.8215,78.37134 -90.80527,116.71264 -33.33038,41.25029 25.00632,88.38656 58.33671,47.13628 v 0 c 31.84673,-39.41888 63.42247,-79.07099 93.3181,-120.00449 7.92224,-11.0022 15.98749,-21.90281 23.76671,-33.00659 34.82562,-49.7088 66.90386,-101.37315 94.92771,-155.22979 10.11567,-20.15245 13.15429,-25.72429 22.13236,-45.27629 2.46321,-5.36427 4.84413,-10.76685 7.15502,-16.19848 1.83149,-4.30486 3.28275,-8.76628 5.14954,-13.05594 0.32716,-0.75177 0.75129,-1.45751 1.12694,-2.18626 25.43911,-46.53334 -40.36896,-82.50968 -65.80808,-35.97634 z"/>
<path d="m 568.25596,349.75046 c 1.09863,1.92171 2.11516,3.89276 3.2959,5.76515 3.85904,6.11955 7.49764,10.91251 11.74138,16.81598 8.49144,11.81244 16.89327,23.689 25.31513,35.55103 16.11751,23.07614 32.75007,45.80007 50.30394,67.80898 11.73472,14.71289 16.14721,19.69671 28.25715,33.96921 20.88969,24.59897 42.17082,48.95136 65.4352,71.35804 4.39506,4.23303 8.9349,8.31311 13.40236,12.46967 17.69268,15.83416 36.46711,30.48962 56.26681,43.60541 14.13638,9.36428 18.72857,11.75194 33.45053,20.32762 17.29671,9.67579 35.19272,18.20349 53.00455,26.87004 47.68966,23.19907 80.49812,-44.24429 32.80844,-67.44336 v 0 c -16.16379,-7.86131 -32.4135,-15.57623 -48.14774,-24.28291 -12.23911,-7.08284 -16.75122,-9.45321 -28.45214,-17.15456 -16.85245,-11.09201 -32.8448,-23.48841 -47.91274,-36.89672 -3.83065,-3.54429 -7.72733,-7.01851 -11.49193,-10.63286 -21.79536,-20.92546 -41.64342,-43.75991 -61.19035,-66.76157 -11.08598,-13.04841 -15.56933,-18.1256 -26.28501,-31.54584 -16.86616,-21.12305 -32.82694,-42.94777 -48.29493,-65.1097 -11.45103,-16.12853 -22.94417,-32.2306 -34.45451,-48.31457 -23.75947,-47.41295 -90.8115,-13.81199 -67.05204,33.60096 z"/>
<path d="m 517.22765,601.10514 c 16.79732,-3.37532 33.62242,-6.70693 50.59272,-9.11095 5.84803,-0.82843 11.72219,-1.46065 17.58328,-2.19098 23.37276,-2.55638 46.92322,-3.33033 70.37316,-1.43016 10.72926,0.86939 16.13135,1.77639 26.50554,3.24357 52.52479,7.32435 62.88299,-66.95693 10.35819,-74.28128 v 0 c -13.00602,-1.7925 -19.18186,-2.82668 -32.72426,-3.84797 -27.95653,-2.10833 -56.02735,-1.20312 -83.87723,1.90278 -6.70177,0.85066 -13.41751,1.59766 -20.10531,2.55198 -19.37748,2.76509 -38.62154,6.51501 -57.75341,10.62199 -51.29425,13.46849 -32.24692,86.00951 19.04732,72.54102 z"/>
<path d="m 419.92118,703.09075 c 5.32387,14.56891 10.26965,29.28865 13.67951,44.43984 1.15277,5.12216 2.07953,10.29258 3.11929,15.43888 5.53492,32.85917 7.75948,66.15359 9.36578,99.4002 0.12101,3.11391 0.24201,6.22782 0.36301,9.34172 2.06874,52.99265 77.01165,50.06701 74.94292,-2.92563 v 0 c -0.13135,-3.35014 -0.26269,-6.70027 -0.39403,-10.0504 -1.80578,-37.07877 -4.37331,-74.21094 -10.80376,-110.81859 -1.30738,-6.31037 -2.4731,-12.65176 -3.92213,-18.93111 -3.89841,-16.89375 -9.24366,-33.39762 -15.21525,-49.65964 -16.8042,-50.30029 -87.93955,-26.53556 -71.13534,23.76473 z"/>
<path d="m 502.49238,746.98875 c 24.12788,-9.95196 50.20662,-13.93694 75.8186,-18.04841 32.76319,-4.72566 65.82586,-7.58513 98.93476,-7.99816 4.76139,-0.0594 9.52346,0.0297 14.28519,0.0445 12.50743,0.46767 25.17863,0.83779 37.4901,3.32785 0.41554,0.0945 0.83776,0.16333 1.24663,0.28344 0.24724,0.0726 -0.51399,-0.0644 -0.76017,-0.14053 -1.2147,-0.3758 -2.49162,-0.62044 -3.61636,-1.21347 -3.03628,-1.60092 -6.48317,-2.81016 -8.80664,-5.3367 -10.71844,-11.65523 -10.05968,-11.75508 -12.50606,-21.87528 -1.79917,21.95874 -4.28414,43.8608 -6.84325,65.74316 -4.77939,41.50383 -16.69364,81.63563 -29.38055,121.28576 -16.1378,50.51803 55.30548,73.34033 71.44328,22.8223 v 0 c 14.11679,-44.25853 27.15838,-89.08928 32.43062,-135.4051 1.94428,-16.65852 3.80275,-33.31971 5.45154,-50.01041 0.69403,-7.02575 1.5054,-14.66649 1.72282,-21.77375 0.0838,-2.74045 -0.0207,-5.48343 -0.0311,-8.22514 -0.57323,-3.59996 -0.1955,-7.48852 -1.71971,-10.79988 -3.1093,-6.75499 -7.04536,-13.24357 -11.92876,-18.8516 -4.96956,-5.70697 -15.15475,-8.58326 -22.51934,-10.14954 -16.97384,-3.19421 -34.26892,-4.349 -51.5186,-4.68095 -5.4712,-0.006 -10.94292,-0.0949 -16.41359,-0.0187 -36.46344,0.50771 -72.8741,3.67415 -108.95036,8.9367 -7.6036,1.24076 -15.2318,2.33924 -22.81082,3.72228 -25.0419,4.5697 -50.16049,10.36309 -73.49528,20.75804 -47.80294,22.96471 -15.32593,90.56829 32.47702,67.60357 z"/>
<path d="m 489.56169,906.39061 c 2.44489,-0.21018 4.89531,-0.36385 7.33469,-0.63053 14.03494,-1.53438 28.0065,-3.75502 42.00691,-5.56147 23.02311,-2.97064 18.02507,-2.2989 41.81623,-4.77929 28.73208,-2.51726 57.6542,-4.18904 86.50019,-2.75699 5.99839,0.29779 11.97517,0.9341 17.96275,1.40115 52.88412,3.97104 58.50002,-70.81841 5.61589,-74.78945 v 0 c -7.30497,-0.53108 -14.59865,-1.25136 -21.91492,-1.59324 -32.00651,-1.49563 -64.09097,0.31535 -95.96744,3.1456 -7.74036,0.81235 -15.48875,1.55152 -23.22108,2.43704 -21.0443,2.41003 -41.98267,5.64313 -63.00924,8.18234 -52.994,2.03365 -50.11799,76.97849 2.87602,74.94484 z"/>
</svg>
