<?xml version="1.0" ?>
<svg xmlns="http://www.w3.org/2000/svg" width="1000" height="1000">
<path d="m 357.78575,56.299019 c -0.0264,-0.03128 -0.0499,-0.122486 -0.0791,-0.09384 -4.06639,3.98608 -7.86425,7.955821 -12.33174,11.559567 -6.69083,5.39723 -17.06776,12.835759 -23.58586,17.608633 -29.03567,21.073211 -59.24877,40.448711 -88.96075,60.539071 -17.0386,11.52099 -34.86571,23.84292 -51.81606,35.51056 -29.90659,20.41269 -15.49949,10.55994 -43.22502,29.55281 -43.751703,29.97146 -1.36566,91.84571 42.38605,61.87425 v 0 c 27.70252,-18.97729 13.24903,-9.09242 43.36455,-29.64863 16.32651,-11.23869 34.61718,-23.87887 51.02584,-34.97399 30.59676,-20.68876 61.70601,-40.6472 91.5848,-62.37894 18.5792,-13.64916 37.82742,-27.10596 52.24533,-45.37177 31.23837,-42.856325 -29.36963,-87.034044 -60.60799,-44.17772 z"/>
<path d="m 221.61774,306.20389 c 1.46299,1.33245 2.94644,2.64278 4.38899,3.99734 7.11065,6.67699 14.01174,13.50216 21.39208,19.8982 6.58535,5.70706 13.09929,10.91626 19.85036,16.39986 41.17548,33.42274 88.44238,-24.80818 47.2669,-58.23093 v 0 c -5.06557,-4.10879 -12.17,-9.81002 -17.10764,-14.06204 -7.26156,-6.25323 -14.0243,-12.99112 -21.00254,-19.54718 -1.00241,-0.94177 -2.04205,-1.84313 -3.06308,-2.7647 -38.40258,-36.57515 -90.12765,17.7343 -51.72507,54.30945 z"/>
<path d="m 409.0349,180.40154 c -2.25829,2.47959 -4.63544,4.85593 -6.77486,7.43878 -2.08757,2.52025 -3.93339,5.23134 -5.89179,7.85322 -6.98376,9.34977 -9.3866,12.81711 -17.25382,22.5304 -11.65281,14.38719 -17.94169,21.31433 -30.5379,35.77774 -50.22274,57.31896 -109.08786,106.0647 -167.78818,154.33024 -26.88758,22.11435 -55.5837,41.81237 -84.282619,61.44989 -43.757025,29.96369 -1.381969,91.84547 42.375059,61.88178 v 0 c 30.49715,-20.89849 60.9704,-41.88906 89.54897,-65.40676 61.90053,-50.92516 123.83488,-102.4886 176.72304,-163.01974 14.03123,-16.13464 20.07387,-22.75763 33.07632,-38.85632 3.80255,-4.70804 7.48697,-9.51076 11.16549,-14.31632 2.45741,-3.21032 4.8408,-6.47669 7.24119,-9.72987 1.10299,-1.49485 2.38865,-2.87793 3.26876,-4.51396 0.24875,-0.4624 -0.87371,0.58258 -1.31056,0.87386 39.80512,-35.04357 -9.75398,-91.33652 -49.5591,-56.29294 z"/>
<path d="m 328.75553,247.0127 c -1.16228,-0.69523 -2.16691,-1.7823 -3.48683,-2.08569 -0.6204,-0.1426 0.71667,1.05487 1.12539,1.54291 1.80556,2.15599 3.71814,4.22113 5.51407,6.38515 9.61786,11.58906 17.34881,23.11124 25.70699,35.64403 15.48607,23.75519 28.37196,49.1262 36.37778,76.40347 5.81638,19.81743 5.99999,24.8701 9.33384,45.2194 4.03311,35.2077 2.44485,70.79201 -2.54753,105.81255 -0.78528,5.50857 -1.79213,10.98328 -2.6882,16.47493 -3.48549,18.22911 -7.62968,36.53977 -15.38416,53.48307 -2.3418,5.04375 -5.80215,9.35473 -9.22979,13.67466 -0.41577,0.51123 -0.83153,1.02245 -1.2473,1.53367 -0.095,0.0894 -0.3732,0.36417 -0.28492,0.26816 6.97865,-7.5905 12.85525,-9.15512 23.51552,-10.77212 2.20642,-0.33468 4.45451,0.28038 6.68176,0.42057 -9.3731,-5.75256 -18.39078,-12.05592 -27.47769,-18.24137 -43.87599,-29.78922 -86.0043,32.26081 -42.12831,62.05002 v 0 c 14.37959,9.74076 28.52624,20.1998 44.6669,26.92353 5.44342,1.27416 10.73996,3.76807 16.33025,3.82249 17.44408,0.16979 28.70243,-6.59586 38.72058,-19.41859 7.33405,-9.26114 14.11396,-18.95782 18.98171,-29.78455 3.3058,-7.5531 4.10888,-9.02121 6.92212,-17.04749 6.26053,-17.86153 10.56323,-36.35979 13.97396,-54.95442 1.02982,-6.43329 2.18892,-12.84721 3.08946,-19.29987 5.89232,-42.22048 7.40374,-85.11027 2.05076,-127.47992 -4.44777,-25.56133 -4.81974,-32.41446 -12.42942,-57.28844 -10.18405,-33.28892 -25.89477,-64.42916 -44.89776,-93.51338 -3.84107,-5.72223 -7.57434,-11.51832 -11.5232,-17.1667 -7.38105,-10.55771 -11.87192,-16.37268 -19.8804,-25.93391 -3.11504,-3.71902 -10.52936,-12.25087 -14.32492,-15.5834 -2.6041,-2.28642 -5.54208,-4.16192 -8.31311,-6.24288 -46.07093,-26.26728 -83.21847,38.88684 -37.14755,65.15412 z"/>
<path d="m 294.01816,414.93218 c 0.31627,-0.58914 1.51636,-2.12094 0.9488,-1.76741 -1.02555,0.63879 -1.62513,1.78839 -2.42966,2.6898 -1.99318,2.23323 -3.94806,4.50079 -5.96339,6.71405 -2.79555,3.0701 -5.6285,6.10607 -8.46846,9.13513 -12.13509,12.94315 -12.1276,12.80767 -25.19853,26.26178 -5.83821,6.04065 -26.0466,27.08763 -32.0098,32.69275 -5.332,5.01184 -11.0303,9.61914 -16.54544,14.42871 -39.82906,35.01637 9.69157,91.34316 49.52063,56.32679 v 0 c 6.7636,-5.98551 13.71529,-11.76498 20.29082,-17.95651 6.1239,-5.76628 26.32503,-26.80244 32.54637,-33.23964 13.17054,-13.56582 14.17372,-14.46573 26.43099,-27.5615 6.79112,-7.2557 9.71983,-10.43112 15.82606,-17.39771 1.69839,-1.93769 3.45771,-3.82663 5.04945,-5.85286 1.67754,-2.13545 3.16571,-4.41311 4.74856,-6.61966 26.76662,-45.78262 -37.97977,-83.63634 -64.7464,-37.85372 z"/>
<path d="m 337.32177,478.74385 c -3.1068,3.46888 -2.28139,2.49744 -6.81107,8.08976 -4.05268,5.0034 -12.8837,16.26252 -16.63211,20.62776 -10.62904,12.37809 -16.68069,18.19915 -28.509,30.40442 -26.83471,28.2854 -55.63741,54.56688 -84.50441,80.73503 -39.28745,35.62298 11.09104,91.18382 50.37849,55.56085 v 0 c 30.07873,-27.27956 60.06918,-54.69856 88.04697,-84.16604 6.10355,-6.32683 12.32181,-12.54497 18.31065,-18.98048 4.95142,-5.32072 9.77353,-10.76301 14.50372,-16.28134 8.14266,-9.49939 15.42252,-19.71315 23.73061,-29.07377 33.17476,-41.37554 -25.33909,-88.29173 -58.51385,-46.91619 z"/>
<path d="m 539.38346,171.11326 c 1.35923,-0.22808 2.72558,-0.41716 4.07769,-0.68423 10.87272,-2.14762 21.61705,-4.90409 32.46719,-7.1608 14.44443,-3.00428 21.22679,-4.13353 36.13625,-6.84654 34.56217,-5.40462 69.39923,-9.61546 104.36121,-11.29164 5.18173,-0.24842 10.37065,-0.31287 15.55597,-0.46931 15.82208,-0.35652 31.57957,0.98017 47.10601,3.95015 1.26781,0.28962 3.36448,0.7519 4.68204,1.10904 0.16666,0.0452 0.65126,0.22926 0.48576,0.17999 -3.7642,-1.12074 -6.3827,-1.99341 -9.92598,-4.91148 -3.04195,-2.50518 -5.37272,-5.7664 -8.05908,-8.64961 -0.7615,-1.32236 -0.76509,-4.10834 -2.2845,-3.96709 -1.38122,0.12839 0.26319,2.76184 0.39291,4.14293 0.31338,3.33678 0.71479,6.66656 0.93639,10.01069 0.71529,10.79449 0.92115,19.26318 0.37395,30.22281 -0.31687,6.34652 -1.00634,12.66895 -1.50952,19.00342 -2.67543,22.41904 -6.22746,44.74111 -10.46938,66.91656 -2.54145,13.28594 -5.55706,27.92705 -9.289,40.99942 -1.52802,5.35245 -3.46015,10.58119 -5.19022,15.87178 -6.78365,16.56102 -3.30005,8.76663 -10.32219,23.44024 -22.62565,47.96436 45.20621,79.96185 67.83185,31.99749 v 0 c 9.49269,-20.33635 4.80094,-9.53485 13.89142,-32.48374 2.18754,-6.89561 4.60446,-13.72261 6.56262,-20.68684 4.10754,-14.60847 7.5231,-31.13627 10.35587,-46.0005 2.61879,-13.74141 6.29708,-35.51659 8.25377,-49.34092 1.18051,-8.34052 2.10854,-16.71483 3.16281,-25.07225 0.57229,-7.92325 1.38201,-15.83293 1.71687,-23.76976 0.56628,-13.42226 0.25962,-25.18677 -0.73244,-38.47373 -0.44905,-6.01443 -1.90386,-20.20076 -3.56364,-26.34648 -1.23525,-4.57379 -3.21705,-8.91247 -4.82558,-13.368704 -3.54717,-4.406172 -6.51401,-9.350655 -10.64153,-13.218518 -7.59631,-7.118424 -18.20007,-9.142189 -27.9192,-11.302776 -20.89657,-3.908581 -42.09659,-5.744203 -63.374,-5.215162 -5.98381,0.194297 -11.97169,0.288996 -17.95144,0.582891 -37.87765,1.86163 -75.62088,6.419197 -113.05638,12.356001 -23.37539,4.264765 -46.67401,8.857155 -69.81983,14.227142 -52.50235,7.483546 -41.91902,81.733076 10.58333,74.249526 z"/>
<path d="m 589.82548,279.05693 c 20.09104,-5.44413 40.94686,-7.38243 61.5889,-9.51603 32.90607,-3.04356 65.96597,-4.08979 98.98299,-2.79945 7.07263,0.31799 14.11144,0.93333 21.04898,2.33925 52.18682,9.43591 65.53121,-64.36739 13.3444,-73.8033 v 0 c -10.44719,-1.78943 -20.93347,-3.18565 -31.55221,-3.48211 -4.92962,-0.18193 -9.85708,-0.43725 -14.78886,-0.54578 -31.63295,-0.69613 -63.29051,0.9604 -94.79598,3.694 -24.59105,2.57321 -49.37239,5.10697 -73.28566,11.68133 -51.21722,13.75849 -31.75979,86.19058 19.45744,72.43209 z"/>
<path d="m 582.4651,393.58105 c 23.3103,-4.1383 46.8756,-6.58101 70.40254,-9.09455 26.1716,-2.7112 52.37841,-5.18251 78.655,-6.62052 12.77641,-0.6992 21.10806,-0.93769 33.89166,-1.39599 52.99871,-1.90689 50.30196,-76.85839 -2.69675,-74.9515 v 0 c -13.70265,0.49471 -22.15905,0.73523 -35.8911,1.49466 -27.37087,1.51371 -54.67131,4.06786 -81.93336,6.89851 -25.77288,2.75838 -51.58966,5.46355 -77.10516,10.11954 -52.0076,10.37832 -37.33043,83.92818 14.67717,73.54985 z"/>
<path d="m 527.74174,139.52619 c -0.70517,2.85816 -1.55178,5.68509 -2.11552,8.57448 -2.91582,14.94494 -3.88689,30.35889 -4.70568,45.52371 -0.87639,16.23135 -1.24839,32.07741 -1.73896,48.3399 -1.07899,40.05469 -1.54077,80.12428 -2.81182,120.17417 -0.84023,26.47517 -1.33318,35.60591 -2.51246,61.9949 -2.27983,48.90624 -5.54278,97.75856 -8.10936,146.64945 -0.61532,16.32971 -1.81614,32.65979 -1.81437,49.00827 0.15931,2.04522 -0.11518,4.17185 0.47793,6.13565 6.49145,21.49352 9.18381,26.94062 36.93726,34.43961 6.50016,1.75635 13.43896,-1.57363 19.89928,-3.47127 7.00897,-2.0588 22.18819,-11.62824 27.78846,-14.93968 28.10298,-17.34004 55.33479,-36.03894 82.84971,-54.28575 44.19713,-29.31065 2.74562,-91.81482 -41.45151,-62.50418 v 0 c -26.54594,17.60525 -52.82221,35.64021 -79.89972,52.42664 -3.43771,2.09041 -6.887,4.16186 -10.31312,6.27121 -1.08319,0.66688 -4.45131,1.76131 -3.21415,2.05707 3.43566,0.82134 7.36644,-1.7301 10.59336,-0.29298 17.23219,7.67446 31.33167,14.09607 31.33173,33.82205 -0.0583,-3.96833 0.1359,-7.94696 0.27769,-11.9114 0.39144,-10.94519 0.88966,-21.88631 1.43439,-32.82485 2.57497,-49.086 5.8582,-98.13286 8.13779,-147.23469 1.20853,-27.09365 1.69778,-36.11508 2.55967,-63.31194 1.26683,-39.97482 1.73574,-79.96901 2.80538,-119.94875 0.80868,-26.99963 1.18391,-54.11571 4.72936,-80.92686 16.80422,-50.30028 -54.33112,-74.065035 -71.13534,-23.76476 z"/>
<path d="m 790.01119,400.3479 c -1.23989,1.01799 -2.43264,2.09627 -3.71967,3.05398 -3.14312,2.33885 -10.99751,7.28098 -13.4068,8.80989 -13.08725,8.30501 -26.38078,16.09652 -39.88698,23.69845 -12.98915,6.99913 -26.89527,11.92813 -40.70985,16.97334 -49.78167,18.28346 -23.92495,88.68538 25.85672,70.40191 v 0 c 17.58098,-6.48736 35.21399,-12.97492 51.68421,-22.04171 14.80797,-8.35972 29.43622,-16.87916 43.76512,-26.04184 8.62428,-5.51483 12.44366,-7.90204 20.34732,-13.88198 1.59883,-1.20968 3.09447,-2.55001 4.6417,-3.82501 40.40906,-34.34543 -8.16272,-91.49246 -48.57177,-57.14703 z"/>
<path d="m 641.62804,489.09011 c 15.26389,10.90886 29.01875,23.73308 42.88034,36.32421 17.50207,15.89636 34.41803,32.49254 49.46577,50.76361 9.08465,11.03066 11.34425,14.62062 19.494,26.07652 9.96908,14.56063 18.98654,29.79434 26.37264,45.82807 0.36723,0.82264 0.73446,1.64527 1.10169,2.4679 21.67481,48.40147 90.12483,17.74865 68.45001,-30.65282 v 0 c -0.50187,-1.11814 -1.00374,-2.23628 -1.50562,-3.35442 -9.42133,-20.23915 -20.69673,-39.56687 -33.41428,-57.91738 -10.09095,-14.04884 -12.63361,-18.09166 -23.86527,-31.61781 -17.01567,-20.49178 -35.98694,-39.23285 -55.68599,-57.12325 -11.90925,-10.80647 -23.74693,-21.68413 -36.34197,-31.69943 -5.86789,-4.66603 -12.3586,-9.5497 -18.77012,-13.50145 -2.25761,-1.39149 -4.65986,-2.53335 -6.9898,-3.80003 -48.22912,-22.05565 -79.42052,46.15063 -31.1914,68.20628 z"/>
<path d="m 351.14564,796.72981 c 26.8544,-4.47199 53.77776,-8.58139 80.81081,-11.82759 8.90079,-1.06883 17.81987,-1.97935 26.72981,-2.96902 35.49277,-3.54742 71.23551,-5.51722 106.91099,-4.21137 17.68681,0.64741 23.23234,1.52242 40.30148,3.3488 20.08121,2.93217 10.59861,1.37505 28.46429,4.56986 52.21897,9.25627 65.30931,-64.59252 13.09034,-73.84879 v 0 c -21.20225,-3.73038 -9.9681,-1.92065 -33.72128,-5.31088 -20.35647,-2.10357 -26.06899,-3.0246 -47.13809,-3.75236 -38.77976,-1.33953 -77.62646,0.78996 -116.20525,4.66514 -9.3692,1.04511 -18.7479,2.00833 -28.1076,3.13531 -27.69927,3.33521 -55.28929,7.53426 -82.80708,12.11464 -52.3869,8.25305 -40.71532,82.33931 11.67158,74.08626 z"/>
<path d="m 448.49644,683.13797 c -0.57761,29.46112 -0.84902,58.92195 -1.65496,88.37878 -1.13507,33.31043 -2.88999,66.59515 -4.48891,99.88534 -2.5442,52.97195 72.36944,56.57 74.91364,3.59805 v 0 c 1.62379,-33.80852 3.40581,-67.61152 4.54746,-101.44101 0.81756,-30.13747 1.116,-60.27898 1.68277,-90.42116 0,-53.033 -75,-53.033 -75,0 z"/>
<path d="m 241.08322,959.47914 c 24.46841,-4.98342 49.07409,-9.17684 73.72367,-13.14917 49.18586,-7.60887 98.83006,-12.11101 148.57616,-13.62757 11.71904,-0.35727 23.44541,-0.40819 35.16812,-0.61229 65.15114,-0.52818 130.09264,5.15618 194.8774,11.35926 32.78846,3.11767 65.56984,6.287 98.30886,9.88765 52.71516,5.79756 60.91415,-68.75294 8.19898,-74.5505 v 0 c -33.08974,-3.63913 -66.22197,-6.84578 -99.36174,-9.99593 -67.60241,-6.46854 -135.37365,-12.31025 -203.35731,-11.68862 -12.3867,0.22474 -24.77742,0.28705 -37.16011,0.67421 -52.63183,1.64557 -105.15365,6.44588 -157.19147,14.51049 -24.76776,3.9972 -49.50919,8.14419 -74.08555,13.20845 -52.31461,8.69952 -40.01162,82.68355 12.30299,73.98402 z"/>
</svg>
