<?xml version="1.0" ?>
<svg xmlns="http://www.w3.org/2000/svg" width="1000" height="1000">
<path d="m 126.80349,485.83423 c 7.59829,-1.3032 7.25109,-1.16884 16.23091,-3.16008 40.63197,-9.01001 -16.07807,3.20332 33.62789,-7.67289 25.7265,-5.62924 25.00745,-5.30388 52.48834,-10.61855 66.37461,-12.18709 133.41667,-20.62074 200.70169,-25.74336 15.89276,-1.20996 31.81142,-2.05145 47.71713,-3.07718 62.09214,-3.31429 124.32269,-3.23084 186.4422,-0.76635 33.35219,1.3232 49.28386,2.53345 82.19809,4.63726 31.02863,2.06787 61.99876,4.87812 92.96638,7.68769 52.8162,4.79054 59.59105,-69.90284 6.77485,-74.69338 v 0 c -31.63309,-2.86845 -63.26904,-5.73397 -94.96459,-7.84205 -34.00467,-2.16681 -50.21191,-3.39835 -84.71114,-4.75535 -64.48842,-2.53661 -129.09119,-2.58082 -193.54845,0.88868 -16.4893,1.07036 -32.99208,1.95013 -49.46791,3.21107 -69.85625,5.34626 -139.45746,14.1415 -208.36558,26.82058 -10.00139,1.93879 -20.01948,3.79329 -30.00416,5.81635 -19.19999,3.89024 -38.24137,8.41456 -57.34635,12.72485 -6.87058,1.55008 -6.0875,1.35844 -11.7063,2.34888 -52.462965,7.75484 -41.495961,81.94868 10.967,74.19383 z"/>
<path d="m 459.03262,247.08595 c 1.09896,26.72228 1.41274,53.47033 1.85373,80.20939 1.06442,59.56632 1.0383,119.13798 0.46448,178.7083 -0.99791,66.78703 -1.70558,133.57689 -2.11367,200.37 -0.0442,9.83506 -0.0884,19.67012 -0.13256,29.50518 -0.23818,53.03248 74.76106,53.36931 74.99924,0.33684 v 0 c 0.044,-9.79465 0.0879,-19.5893 0.13192,-29.38395 0.40729,-66.70537 1.116,-133.40745 2.1116,-200.10675 0.57835,-60.22307 0.60449,-120.44756 -0.47121,-180.66656 -0.45083,-27.32836 -0.77803,-54.66561 -1.90373,-81.97674 -2.12435,-52.99044 -77.06415,-49.98615 -74.9398,3.00429 z"/>
<path d="m 299.21349,817.47228 c 14.58922,-2.78606 29.04669,-6.20449 43.67204,-8.81936 5.90482,-1.05573 11.8324,-1.97993 17.7486,-2.96989 43.72949,-6.68801 87.9758,-9.10467 132.17482,-9.4877 10.28331,-0.0891 20.56734,0.0396 30.85101,0.0594 38.20433,0.4195 76.38636,2.24749 114.40564,6.0596 17.89205,1.79399 26.5374,2.97511 43.88544,5.14772 52.62323,6.57989 61.9286,-67.84061 9.30536,-74.4205 v 0 c -18.28384,-2.28271 -27.56893,-3.54714 -46.44078,-5.42285 -40.22356,-3.99792 -80.6159,-5.9422 -121.03258,-6.36387 -10.82446,-0.0148 -21.64939,-0.14592 -32.47339,-0.0445 -47.859,0.44836 -95.76142,3.19187 -143.0988,10.50878 -20.2191,3.40771 -40.36843,7.12581 -60.37733,11.62156 -52.41897,8.04686 -41.039,82.17847 11.37997,74.13162 z"/>
</svg>
