<?xml version="1.0" ?>
<svg xmlns="http://www.w3.org/2000/svg" viewBox="0 0 1000 1000">
<path d="m 442.59635,167.97035 c 13.10541,9.68232 25.77819,20.19373 36.64244,32.39058 2.41815,2.71476 4.61789,5.61645 6.92683,8.42467 1.86536,2.62477 3.73072,5.24953 5.59608,7.8743 31.12948,42.93548 91.84942,-1.08825 60.71994,-44.02373 v 0 c -2.93919,-4.00194 -5.87838,-8.00389 -8.81758,-12.00583 -3.5239,-4.15632 -6.90395,-8.43903 -10.57171,-12.46897 -14.88877,-16.35901 -32.04181,-30.64536 -50.08523,-43.37306 -44.67645,-28.574724 -85.08722,34.60731 -40.41077,63.18204 z"/>
<path d="m 176.67488,355.64363 c 35.06304,-10.25958 70.95758,-17.42476 106.75081,-24.59287 66.3706,-12.19051 133.4135,-20.81648 200.71784,-25.73586 14.61342,-1.06812 29.25073,-1.77953 43.87609,-2.6693 72.76832,-3.59692 145.65063,-2.62294 218.42369,0.10846 27.07951,1.09033 54.16464,2.66742 80.95005,6.91623 52.39673,8.19039 63.97969,-65.90978 11.58296,-74.10017 v 0 c -11.28135,-1.74299 -13.9222,-2.27756 -26.0146,-3.53456 -21.17591,-2.20123 -42.45206,-3.26129 -63.71216,-4.22898 -75.23256,-2.81035 -150.57808,-3.79133 -225.80315,-0.0214 -15.23095,0.93415 -30.47443,1.68271 -45.69287,2.80245 -70.10781,5.1584 -139.94241,14.17357 -209.07045,26.92638 -38.80496,7.78758 -77.73741,15.56327 -115.67756,26.9625 -50.32277,16.73675 -26.65342,87.9039 23.66935,71.16714 z"/>
<path d="m 318.48968,316.61469 c -5.72881,15.16276 -14.60694,28.94123 -24.0144,42.05084 -12.74571,17.76158 -19.34986,25.28568 -33.56414,42.75508 -43.88389,51.46134 -91.23199,99.80763 -138.97229,147.66097 -6.72573,6.7318 -13.45147,13.4636 -20.1772,20.19541 -37.483058,37.51693 15.57389,90.52598 53.05696,53.00905 v 0 c 6.73923,-6.74533 13.47846,-13.49065 20.21769,-20.23598 49.53975,-49.66364 98.65344,-99.86187 144.09682,-153.35155 26.84565,-33.12065 55.02649,-66.70778 70.09862,-107.17275 17.61479,-50.02219 -53.12727,-74.93326 -70.74206,-24.91107 z"/>
<path d="m 262.30823,439.86098 c 2.01386,21.96403 2.75656,44.03356 3.57902,66.06812 1.18324,50.17169 0.46878,100.37026 -0.74194,150.53401 -1.05041,45.74531 -5.63992,91.28504 -10.66074,136.73172 -2.70631,22.349 -5.12765,44.75983 -8.90929,66.96085 -0.68241,2.85802 -0.65358,3.54313 -0.6126,1.96383 -16.65431,50.35011 54.5515,73.90287 71.20581,23.55275 v 0 c 2.62964,-8.76299 1.52585,-4.42428 3.35579,-13.00475 3.97636,-23.62961 6.68868,-47.4516 9.50711,-71.24034 5.25249,-47.58237 10.0005,-95.2656 11.09221,-143.15951 1.2409,-51.7 1.97607,-103.43625 0.71118,-155.14359 -0.87694,-23.37029 -1.69208,-46.77321 -3.83593,-70.06833 -4.81203,-52.81424 -79.50265,-46.009 -74.69062,6.80524 z"/>
<path d="m 555.59435,264.2382 c -3.83925,9.91252 -9.55131,19.11589 -15.214,28.0576 -8.95999,14.14834 -15.56533,23.51322 -25.22722,37.65321 -23.65906,33.80766 -48.17739,67.03616 -74.33032,98.96623 -18.26371,22.29813 -22.85934,27.07715 -41.78495,48.44103 -26.06856,28.02265 -13.04791,14.39368 -39.02995,40.91749 -37.09395,37.9017 16.50716,90.36046 53.6011,52.45876 v 0 c 27.73303,-28.36091 13.8602,-13.81503 41.58853,-43.66618 20.09662,-22.72128 24.88021,-27.69613 44.26272,-51.38948 27.30653,-33.37973 52.9269,-68.09923 77.63162,-103.4361 9.85528,-14.44364 18.43511,-26.66733 27.63127,-41.4092 8.52153,-13.66042 16.50262,-27.63576 21.92821,-42.84713 0.86742,-2.43192 1.43287,-4.96119 2.14931,-7.44179 11.52898,-51.76469 -61.67735,-68.06912 -73.20632,-16.30444 z"/>
<path d="m 541.47029,432.02558 c 22.17652,5.12347 44.31272,10.42006 66.41929,15.83701 26.10534,6.43953 52.40647,12.02319 78.68222,17.7091 2.81786,0.60106 7.61741,1.59311 10.68054,2.3396 0.65653,0.15999 2.58603,0.77945 1.95348,0.54175 -10.00731,-3.76064 -12.2469,-2.18497 -20.82574,-16.27176 -3.12587,-5.1328 -2.90414,-11.66331 -4.35621,-17.49497 0.0978,-1.34502 0.81469,-2.79137 0.29329,-4.03507 -0.32081,-0.76522 -0.68653,1.51086 -1.03603,2.26342 -2.72566,5.8691 -3.58492,7.72443 -6.81448,14.11071 -5.99008,11.84503 -5.28583,10.27145 -12.11519,22.48546 -17.93559,29.85166 -38.28578,58.25885 -60.69203,84.92072 -5.86484,6.97875 -11.98439,13.73942 -17.97659,20.60913 -35.37104,38.70239 -72.19621,76.41789 -113.02598,109.44086 -8.33486,6.74122 -17.0072,13.05416 -25.5108,19.58124 -24.43872,17.25713 -49.83473,33.52768 -77.37211,45.46202 -7.88262,3.41622 -16.10152,5.99716 -24.15227,8.99574 -49.56908,18.85224 -22.90799,88.9535 26.66109,70.10126 v 0 c 10.27959,-3.97287 20.76179,-7.45675 30.83878,-11.9186 31.90662,-14.12748 61.44445,-33.01013 89.77727,-53.21244 9.47476,-7.31421 19.13266,-14.39713 28.42429,-21.94262 43.64388,-35.44205 83.12083,-75.762 120.92838,-117.2633 6.60247,-7.59826 13.34518,-15.07689 19.8074,-22.79478 25.08342,-29.95737 47.84091,-61.88893 67.80819,-95.47301 6.66557,-11.99744 13.21179,-24.00035 19.05691,-36.42523 2.05153,-4.36091 5.98722,-12.96485 7.35924,-17.82458 1.08651,-3.84848 1.69933,-7.81522 2.549,-11.72284 -1.32982,-7.53842 -0.48379,-15.81038 -3.98947,-22.61527 -9.48285,-18.40723 -25.02522,-21.62846 -42.40961,-25.16104 -25.61179,-5.54147 -51.2499,-10.97623 -76.69594,-17.25096 -22.00533,-5.39078 -44.03689,-10.67716 -66.11509,-15.76181 -51.45634,-12.83529 -69.60818,59.93497 -18.15183,72.77026 z"/>
<path d="m 512.60101,549.00555 c 11.44843,9.6789 20.72359,21.65056 30.14623,33.23123 7.44829,9.47612 3.97065,4.93334 10.46646,13.60259 31.85282,42.40163 91.81778,-2.64505 59.96496,-45.04668 v 0 c -7.78128,-10.33649 -3.69461,-5.02145 -12.28458,-15.9262 -13.65902,-16.74797 -27.38634,-33.8517 -44.76484,-46.93707 -43.18734,-30.77911 -86.71557,30.29702 -43.52823,61.07613 z"/>
<path d="m 391.56748,590.91729 c 27.03944,15.79742 52.49863,34.12088 78.29799,51.82732 47.69268,32.55267 92.59874,68.91914 136.689,106.13641 31.74974,27.32894 63.50913,54.6463 95.19552,82.04855 12.76776,11.13506 25.82658,21.98596 40.20059,30.99466 10.01532,5.82851 21.00284,9.69767 31.65363,14.17482 32.02546,13.52821 64.05892,27.30453 97.43227,37.24005 9.67244,2.87957 19.48662,5.25963 29.22993,7.88945 51.22544,13.72786 70.63958,-58.71585 19.41414,-72.44371 v 0 c -8.45453,-2.24701 -16.97075,-4.27357 -25.3636,-6.74104 -31.44026,-9.24331 -61.51557,-22.41654 -91.67078,-35.0936 -7.09519,-2.97757 -14.25415,-5.81434 -21.31871,-8.85748 -11.14475,-6.58688 -20.54268,-15.75997 -30.51843,-23.89243 -31.91554,-27.60021 -63.90313,-55.11667 -95.88627,-82.63862 -46.00211,-38.80615 -92.86521,-76.70699 -142.61752,-110.65448 -27.76295,-19.05402 -55.17931,-38.74998 -84.3768,-55.58625 -46.38363,-25.71108 -82.74458,39.88527 -36.36096,65.59635 z"/>
</svg>
