<?xml version="1.0" ?>
<svg xmlns="http://www.w3.org/2000/svg" width="1000" height="1000">
<path d="m 376.20402,113.89024 c -0.0105,-0.44351 0.25233,-1.67146 -0.0316,-1.33054 -0.58927,0.70769 -0.66775,1.71649 -1.00376,2.5739 -0.99137,2.52971 -1.96748,5.06548 -2.97838,7.58744 -1.76636,4.40668 -3.5006,8.8271 -5.35329,13.19819 -6.99564,16.505 -9.67203,21.81021 -17.63578,38.90291 -25.43613,52.26113 -55.06412,102.4524 -87.11211,150.91929 -7.225,10.92654 -14.78085,21.63066 -22.17128,32.44599 -13.07943,18.03854 -29.65375,41.40655 -43.7322,58.89196 -6.56108,8.14884 -13.60997,15.89259 -20.41496,23.83889 -34.42092,40.34476 22.63519,89.0233 57.05612,48.67854 v 0 c 7.67821,-9.02946 15.60982,-17.84941 23.03462,-27.08836 14.94335,-18.59455 32.10855,-42.84747 45.99816,-62.03367 7.80508,-11.44277 15.78122,-22.77072 23.41525,-34.32831 33.86154,-51.26499 65.09817,-104.3869 91.92373,-159.68001 8.78807,-18.90418 11.41168,-24.06439 19.15451,-42.39554 2.04617,-4.84431 4.00049,-9.72749 5.91441,-14.62556 2.99696,-7.66977 5.62077,-14.31745 7.47048,-22.2872 0.60398,-2.60233 0.84972,-5.275 1.27458,-7.9125 3.78685,-52.897637 -71.0217,-58.253051 -74.80855,-5.35542 z"/>
<path d="m 482.15795,241.40957 c 24.01982,2.06825 47.97313,4.80799 71.88232,7.88634 35.63441,4.84121 71.06398,11.1353 106.23033,18.64004 9.66188,2.17387 19.31047,4.41379 28.91624,6.82514 3.85707,0.96824 7.71841,1.92575 11.47983,3.22199 -4.40148,-1.49753 -9.24787,-4.2895 -11.86165,-8.09192 -9.59079,-13.95228 -12.69464,-24.19296 -5.95357,-39.82555 -9.1477,16.09093 -14.54833,33.97268 -20.43322,51.42553 -8.66128,25.56933 -15.63226,51.66474 -23.90778,77.35494 -7.25849,22.53298 -9.75525,28.92283 -17.87367,51.62509 -19.99216,52.93031 -45.2232,103.76802 -73.647,152.65372 -6.32939,10.88582 -13.0028,21.56794 -19.5042,32.35191 -33.49413,53.81215 -70.48239,105.53705 -111.5577,153.84258 -7.53929,8.86639 -15.3729,17.47825 -23.05934,26.21737 -20.36153,22.14239 -42.36045,42.81378 -66.36477,60.97986 -7.04345,5.33036 -14.43396,10.18591 -21.65094,15.27886 -43.23968,30.70555 0.18452,91.85568 43.42419,61.15014 v 0 c 8.50303,-6.0702 17.20799,-11.86705 25.50908,-18.21061 27.25271,-20.82605 52.2681,-44.43 75.427,-69.69784 8.21495,-9.36088 16.58713,-18.58607 24.64485,-28.08263 43.38786,-51.13549 82.49678,-105.84474 117.87751,-162.78726 6.90196,-11.4738 13.98582,-22.84012 20.70586,-34.42141 30.47582,-52.52185 57.44042,-107.17341 78.82323,-164.04141 8.72143,-24.4328 11.09193,-30.44421 18.90209,-54.7136 8.07469,-25.09143 14.90374,-50.56828 23.32519,-75.55093 4.26055,-12.65346 8.00337,-25.71995 14.15993,-37.61294 4.54008,-8.84601 8.33524,-14.43288 6.41685,-26.56238 -3.01002,-19.03162 -13.85679,-28.61868 -30.13761,-34.58209 -15.73995,-5.02536 -31.96647,-8.32452 -48.03426,-12.10065 -37.17921,-7.90696 -74.62457,-14.58969 -112.29869,-19.67445 -25.02235,-3.20873 -50.08794,-6.08606 -75.22556,-8.23993 -52.85064,-4.39434 -59.06517,70.34775 -6.21454,74.74209 z"/>
<path d="m 440.90526,503.48901 c 27.2931,13.49501 54.80943,26.5242 82.33969,39.52605 24.99704,12.63126 51.11776,23.79109 74.0531,40.11079 4.62484,3.29082 8.90578,7.03999 13.35866,10.55999 41.91006,32.49688 87.86759,-26.77289 45.95753,-59.26977 v 0 c -6.33783,-4.84708 -12.47107,-9.97409 -19.0135,-14.54125 -25.66774,-17.91823 -54.41668,-30.79103 -82.32752,-44.67709 -26.71176,-12.61517 -53.40741,-25.26099 -79.90502,-38.32183 -47.10258,-24.36897 -81.56551,42.24413 -34.46294,66.61311 z"/>
</svg>
