<?xml version="1.0" ?>
<svg xmlns="http://www.w3.org/2000/svg" viewBox="0 0 1000 1000">
<path d="m 333.45155,316.22903 c 26.46437,-8.55941 54.28696,-11.56746 81.78961,-14.71243 39.24247,-3.58199 78.67818,-4.67484 118.07043,-4.33588 22.41614,0.19288 31.1874,0.65515 53.11797,1.45211 27.94612,1.45899 14.60974,0.6617 40.01223,2.33965 52.91838,3.48501 57.84693,-71.35288 4.92855,-74.83789 v 0 c -26.83222,-1.76204 -12.75545,-0.92627 -42.23349,-2.45288 -23.13884,-0.83097 -32.27249,-1.31092 -55.94629,-1.50089 -42.22669,-0.33886 -84.49951,0.89077 -126.55661,4.83131 -9.05631,1.05574 -18.13338,1.94639 -27.16891,3.16723 -22.96314,3.10267 -45.90892,7.33241 -68.02472,14.35235 -50.69766,15.56429 -28.68643,87.26161 22.01123,71.69732 z"/>
<path d="m 205.7199,546.84594 c 38.06737,-10.19922 77.35473,-15.04923 116.34843,-20.18124 71.02595,-8.47301 142.53375,-12.73944 214.04847,-13.64258 14.69449,-0.18557 29.39124,-0.0709 44.08685,-0.10631 38.29914,0.38475 76.60255,1.52583 114.82401,4.06211 15.41175,1.02268 38.03213,2.78562 53.77623,5.13497 6.74214,1.00607 13.39573,2.53557 20.0936,3.80336 52.14953,9.63985 65.78234,-64.11072 13.63281,-73.75057 v 0 c -8.3875,-1.52075 -16.72833,-3.3263 -25.16251,-4.56225 -16.99951,-2.49113 -41.41878,-4.40509 -58.18125,-5.51012 -39.67094,-2.6152 -79.42598,-3.79542 -119.17674,-4.17725 -15.20019,0.0418 -30.4016,-0.072 -45.60056,0.1255 -74.2245,0.96478 -148.43926,5.43214 -222.15185,14.2676 -31.23676,4.13152 -37.02056,4.59556 -66.83983,9.61539 -19.75696,3.32593 -39.74732,6.86358 -59.01249,12.49865 -3.35068,0.98008 -6.61405,2.23711 -9.92108,3.35566 -48.8378,20.67291 -19.60189,89.73999 29.23591,69.06708 z"/>
<path d="m 450.06002,144.16551 c 4.21091,26.51704 4.16086,53.38397 4.10633,80.15114 -0.97608,53.69696 -5.58477,107.51175 -17.34503,160.00587 -2.76377,12.33664 -6.23028,24.50527 -9.34542,36.7579 -18.85283,65.65629 -47.12629,128.2243 -82.65499,186.51618 -7.21392,11.83587 -15.02538,23.29704 -22.53807,34.94556 -27.64361,41.64776 -59.01408,80.67188 -92.6345,117.62186 -15.97981,17.56236 -24.88784,26.41041 -41.08345,42.9848 -37.05294,37.94179 16.60486,90.34256 53.6578,52.40077 v 0 c 17.29635,-17.72112 26.52953,-26.89193 43.6302,-45.72625 36.13572,-39.7991 69.80087,-81.86372 99.50558,-126.70453 8.17251,-12.73383 16.67124,-25.26409 24.51752,-38.20148 38.94844,-64.22038 69.79561,-133.18326 90.31812,-205.47766 3.4293,-13.66888 7.24541,-27.24649 10.28788,-41.00663 12.62842,-57.11449 17.68789,-115.6244 18.6843,-174.02013 0.005,-8.66421 0.13624,-17.32926 0.0155,-25.99263 -0.30494,-21.88294 -1.73365,-43.74895 -4.9552,-65.40461 -7.88413,-52.443688 -82.0507,-41.29385 -74.16658,11.14984 z"/>
<path d="m 511.14277,625.69417 c 9.15465,6.7256 16.57233,15.56305 24.22982,23.87175 21.28231,23.97627 41.98673,48.45763 63.06014,72.61725 20.54432,23.45156 42.44664,45.63773 65.47531,66.63897 15.20959,13.55943 30.80639,26.71345 47.4016,38.55942 3.61574,2.58098 7.30831,5.0526 10.96246,7.57889 29.91133,20.69656 63.02869,35.83071 95.78297,51.33762 47.93286,22.6923 80.02462,-45.095 32.09176,-67.78731 v 0 c -29.10669,-13.77926 -58.66238,-27.00423 -85.30944,-45.30139 -17.69078,-12.15048 -34.60031,-25.32963 -50.43431,-39.84217 -20.93829,-19.03192 -40.77702,-39.21907 -59.45207,-60.486 -21.53802,-24.68874 -42.67695,-49.72603 -64.47132,-74.18971 -11.7194,-12.67566 -23.36326,-25.75904 -37.79895,-35.44407 -44.15652,-29.37178 -85.69449,33.07497 -41.53797,62.44675 z"/>
</svg>
