<?xml version="1.0" ?>
<svg xmlns="http://www.w3.org/2000/svg" viewBox="0 0 1000 1000">
<path d="m 211.35581,187.71748 c 2.97846,39.29535 2.42672,78.76204 2.15568,118.1357 -0.74436,54.0644 -3.17577,108.13492 -8.27375,161.97385 -3.05201,32.23183 -4.89773,44.34361 -9.00792,75.92014 -5.60829,39.39593 -12.29036,78.64938 -20.55224,117.57784 -1.33599,7.44187 -5.98493,21.42717 -3.6164,28.38642 2.81354,8.26677 7.97069,15.53994 11.95603,23.30991 4.9895,3.02253 9.74545,6.46941 14.9685,9.0676 2.01252,1.00112 12.69218,3.56963 15.2456,4.23791 11.73942,3.07246 23.24469,6.65362 34.78603,10.40248 39.63507,13.27828 77.15904,31.74773 114.18222,50.95206 25.99136,14.00322 51.74131,28.45254 77.07114,43.62008 45.50689,27.23276 84.01982,-37.1237 38.51294,-64.35646 v 0 c -26.64806,-15.9379 -53.71611,-31.15888 -81.07121,-45.85087 -17.11794,-8.86598 -24.92255,-13.07832 -42.42609,-21.44605 -27.07241,-12.94222 -54.76926,-24.59379 -83.18127,-34.27671 -13.09037,-4.22091 -26.13856,-8.26362 -39.44407,-11.74492 -1.98408,-0.51912 -3.96069,-1.07325 -5.96506,-1.50752 -0.12171,-0.0264 -0.44616,0.0655 -0.34637,0.14007 3.31791,2.47819 6.76108,4.78408 10.14163,7.17613 3.34926,7.14709 7.67257,13.91419 10.04778,21.44126 0.92994,2.947 -0.21145,6.17705 -0.35862,9.26378 -0.004,0.0832 -0.11048,0.31323 -0.0941,0.23154 0.90553,-4.51242 2.07645,-8.97056 2.95969,-13.48775 8.66337,-40.88205 15.7005,-82.09877 21.55881,-123.4742 4.31143,-33.24679 6.18297,-45.49725 9.38376,-79.47378 5.24746,-55.7019 7.76065,-111.6405 8.52123,-167.57358 0.28158,-42.03784 0.83692,-84.18142 -2.52782,-126.12422 -5.28866,-52.76865 -79.91479,-45.28935 -74.62613,7.47929 z"/>
<path d="m 379.44174,356.06674 c 2.67269,14.36645 2.71531,29.0612 2.47961,43.61762 -0.37982,23.45667 -0.88864,27.49357 -2.3043,52.11884 -1.06019,10.79245 -1.85564,21.61421 -3.18057,32.37737 -2.78933,22.65935 -7.85595,52.94791 -12.30787,75.06765 -5.23861,26.02842 -12.76579,57.90937 -20.1133,83.36606 -4.08091,14.13903 -8.86877,28.06437 -13.30315,42.09656 -13.21819,35.0912 -16.95292,47.12975 -32.85424,80.96597 -5.93461,12.62817 -12.34493,25.03217 -18.89871,37.35038 -11.80337,22.18511 -27.58637,48.78953 -40.26033,70.53417 -26.69807,45.82262 38.1049,83.5794 64.80298,37.75678 v 0 c 13.72128,-23.5586 29.71624,-50.49585 42.42748,-74.52705 7.18899,-13.59113 14.20333,-27.28457 20.71099,-41.21478 17.28746,-37.00529 21.24977,-49.94327 35.60994,-88.34219 4.78051,-15.23603 9.93505,-30.35971 14.34153,-45.70809 7.83826,-27.30178 15.76752,-61.08348 21.34936,-88.98469 4.8963,-24.47447 10.12095,-56.15278 13.14282,-81.09777 1.4248,-11.7615 2.27458,-23.58554 3.41187,-35.37832 1.39308,-24.70354 2.1501,-32.77507 2.42503,-56.6458 0.23494,-20.39857 -0.2561,-40.97051 -4.58196,-60.98793 -12.46998,-51.54609 -85.36716,-33.91087 -72.89718,17.63522 z"/>
<path d="m 104.33868,606.50071 c 14.67153,-17.53496 31.54943,-33.18361 49.02164,-47.88085 8.67371,-7.29614 17.46306,-14.4642 26.48848,-21.3205 10.59338,-8.0474 21.56545,-15.58373 32.34817,-23.37559 38.80763,-26.37164 79.18159,-50.3892 120.65497,-72.31822 30.14572,-15.93953 52.23357,-26.16442 82.83846,-40.83124 47.82024,-22.92868 15.39419,-90.55671 -32.42605,-67.62803 v 0 c -32.43645,15.56019 -54.63553,25.82596 -86.65828,42.79926 -44.1592,23.40609 -87.13863,49.05002 -128.41412,77.24473 -11.81496,8.5815 -23.8395,16.88161 -35.44488,25.74449 -9.96889,7.61312 -19.67916,15.56631 -29.25617,23.66688 -20.489379,17.33063 -40.138151,35.87788 -57.308994,56.54097 -33.487235,41.12305 24.669538,88.48115 58.156774,47.3581 z"/>
<path d="m 544.31694,369.26323 c 18.49586,-10.46377 38.34631,-18.60704 58.4353,-25.46765 7.59084,-2.59236 15.29146,-4.8514 22.93719,-7.27709 32.62052,-9.69383 65.98363,-16.80643 99.74143,-21.11544 17.9101,-2.28613 23.21156,-2.41513 40.60599,-3.61142 16.32832,-0.15257 33.98497,-1.6487 49.89883,3.11317 3.33946,1.04801 1.84011,1.47542 -0.63416,-0.35656 -10.76393,-7.96975 -7.24846,-5.52966 -15.19498,-19.4232 -0.45644,-2.50537 -0.75893,-5.04373 -1.36932,-7.51611 -0.0618,-0.25029 -0.25695,0.45595 -0.31152,0.70791 -0.37579,1.73509 -0.61873,3.49676 -0.97581,5.2358 -1.49189,7.26589 -2.68701,12.59325 -4.88639,19.86778 -1.39651,4.61898 -3.02084,9.16598 -4.53125,13.74898 -13.10955,36.86001 -30.46659,72.08981 -50.2554,105.80052 -4.99748,8.51333 -10.29348,16.84788 -15.44022,25.27181 -22.88514,36.77817 -49.20223,71.24523 -76.83085,104.55626 -16.69846,20.13284 -27.88233,32.58226 -45.13662,52.22217 -21.68841,23.98345 -44.19345,47.26558 -67.71694,69.46012 -16.00882,15.10441 -23.27424,21.10551 -39.44847,35.09074 -40.0978,34.7083 8.98716,91.41515 49.08495,56.70685 v 0 c 17.80646,-15.42845 25.02452,-21.37466 42.7087,-38.08556 24.91648,-23.54516 48.75066,-48.24258 71.72345,-73.67986 18.19362,-20.72102 29.48024,-33.27821 47.11874,-54.57461 29.71154,-35.87315 57.92739,-73.04967 82.53006,-112.64777 5.60619,-9.20916 11.37728,-18.31994 16.81858,-27.62748 22.21202,-37.99442 41.58116,-77.74284 56.1685,-119.3023 1.90293,-5.91486 3.95311,-11.78434 5.70877,-17.74457 2.53421,-8.60333 4.53701,-17.22036 6.23992,-26.01085 0.75798,-3.91269 2.49934,-13.81383 2.42387,-17.905 -0.0826,-4.47864 -0.85605,-8.91782 -1.28407,-13.37673 -2.82363,-5.50393 -4.84773,-11.49792 -8.4709,-16.51178 -6.39837,-8.85428 -18.87948,-13.21928 -28.85066,-16.4105 -7.05408,-1.78463 -8.74294,-2.37838 -16.31534,-3.5204 -19.18553,-2.89342 -38.69043,-2.77496 -58.02081,-1.90491 -19.91055,1.42108 -25.90481,1.57855 -46.35775,4.23872 -37.75677,4.91074 -75.07014,12.9371 -111.54473,23.85522 -8.76025,2.81061 -17.58437,5.42943 -26.28076,8.43182 -25.29658,8.73354 -50.25902,19.20653 -73.26664,32.94714 -44.41676,28.97675 -3.43745,91.79152 40.97931,62.81478 z"/>
<path d="m 540.71354,478.35692 c 17.71799,20.37067 35.3908,40.77533 52.7877,61.42163 32.49181,38.97053 64.93363,77.98351 97.18387,117.15447 24.59747,29.79735 48.21011,60.38423 72.91032,90.09695 11.24373,13.49755 23.08968,26.53471 36.40214,38.03445 8.07846,6.97844 10.67508,8.6412 19.24804,14.96775 19.96235,13.19253 40.87227,25.14576 62.54283,35.32512 5.78254,2.71624 11.67501,5.19202 17.51252,7.78803 48.50136,21.45037 78.83676,-47.1409 30.3354,-68.59127 v 0 c -4.80254,-2.10969 -9.65357,-4.11226 -14.40762,-6.32907 -17.85938,-8.32782 -35.07299,-18.13607 -51.68309,-28.71145 -5.98968,-4.33319 -7.70515,-5.40175 -13.35059,-10.17354 -10.69039,-9.03601 -19.96644,-19.55752 -28.93394,-30.26487 -24.63243,-29.60914 -48.12998,-60.132 -72.67548,-89.81315 -32.43301,-39.39233 -65.05764,-78.62666 -97.73508,-117.81618 -17.23518,-20.44664 -34.70159,-40.69106 -52.29461,-60.83043 -33.75838,-40.90075 -91.60078,6.8408 -57.84241,47.74156 z"/>
</svg>
