<?xml version="1.0" ?>
<svg xmlns="http://www.w3.org/2000/svg" viewBox="0 0 1000 1000">
<path d="m 565.87208,46.841975 c -1.10905,0.799654 -2.18041,1.654376 -3.32716,2.398962 -6.06724,3.939459 -12.38686,7.476627 -18.62711,11.135885 -6.19288,3.631489 -12.40499,7.230102 -18.61062,10.839782 -43.13863,25.092825 -5.63905,3.223805 -53.43369,31.131386 -52.70142,31.2317 -105.29463,62.70946 -159.51644,91.26733 -8.66315,4.56276 -17.43791,8.9104 -26.15686,13.3656 -25.61389,12.87482 -51.88506,24.3778 -78.75015,34.36612 -16.29373,5.89474 -26.244,14.1638 -31.01792,34.94739 -2.0136,8.76635 2.30227,17.96499 5.21349,26.47546 2.22119,6.49327 14.00375,19.44139 18.12708,24.32188 3.8987,4.10316 7.72223,8.27906 11.69609,12.30947 9.96836,10.11022 19.05761,18.52255 29.37429,28.34817 15.52915,14.78998 30.9015,29.72123 46.15891,44.79099 17.29477,17.47345 9.03522,9.06213 24.7944,25.21848 37.03287,37.96138 90.71838,-14.411 53.68551,-52.37239 v 0 c -16.34402,-16.75176 -7.75635,-8.00912 -25.78056,-26.21067 -15.6117,-15.41457 -31.33462,-30.69471 -47.22456,-45.82274 -9.77307,-9.30447 -17.37442,-16.31766 -26.78077,-25.76311 -3.11124,-3.12418 -6.11439,-6.35418 -9.17159,-9.53127 -1.86472,-2.0707 -3.64523,-4.22046 -5.59418,-6.21209 -0.38464,-0.39307 -1.3605,-1.46032 -1.37582,-0.91058 -0.16099,5.77712 3.04777,11.94082 0.91871,17.31373 -3.54462,8.94524 -10.82626,15.95071 -17.01837,23.31546 -0.90859,1.08066 -5.19623,0.98031 -3.92445,1.59344 1.30622,0.62974 2.71729,-1.01361 4.07593,-1.52042 29.58909,-11.01882 58.53383,-23.68446 86.74284,-37.88267 9.22793,-4.72293 18.51308,-9.33571 27.6838,-14.16878 54.93897,-28.95342 108.25915,-60.81109 161.65879,-92.47163 49.24816,-28.75663 8.80458,-5.16824 53.36675,-31.09234 14.56167,-8.47128 29.36793,-16.69289 43.42591,-26.00089 1.4837,-0.98238 2.88218,-2.08777 4.32327,-3.13165 42.46057,-31.774206 -2.47495,-91.822514 -44.93552,-60.048305 z"/>
<path d="m 407.93836,305.49313 c -0.16302,-0.018 -0.59159,-0.18194 -0.48904,-0.0539 1.0427,1.30131 2.25283,2.45922 3.39203,3.67695 4.77789,5.1073 9.65487,10.12136 14.42847,15.23266 8.14033,8.71619 7.62276,8.29499 15.38918,17.29716 10.27657,12.07665 5.21487,6.14832 15.18315,17.78665 34.49926,40.2778 91.46067,-8.51152 56.96141,-48.78932 v 0 c -9.94776,-11.61359 -4.80429,-5.59152 -15.42659,-18.06944 -3.00066,-3.4599 -5.95337,-6.96197 -9.00199,-10.37968 -6.4672,-7.25017 -9.93672,-10.74038 -16.45708,-17.62417 -1.09346,-1.1544 -11.50411,-12.24282 -12.79545,-13.48969 -2.16941,-2.09471 -4.50582,-4.00925 -6.75873,-6.01388 -42.72814,-31.41347 -87.1535,29.01323 -44.42536,60.42671 z"/>
<path d="m 625.06662,191.00749 c -0.1042,0.068 -0.26366,0.0895 -0.3126,0.20391 -2.5779,6.02391 -4.5535,12.28824 -6.87591,18.41518 -5.64849,14.9017 -10.19414,26.57481 -16.69766,41.39601 -3.83584,8.74169 -7.94055,17.36292 -11.91082,26.04438 -13.00415,26.35778 -16.29231,33.64532 -30.60437,60.00284 -5.70223,10.50138 -11.68123,20.85009 -17.52184,31.27514 -25.90355,46.27641 39.54118,82.90956 65.44473,36.63315 v 0 c 6.15917,-11.01244 12.46427,-21.94453 18.47752,-33.03732 15.19152,-28.02418 18.59734,-35.6192 32.43226,-63.7306 4.30228,-9.442 8.74893,-18.81954 12.90686,-28.326 6.74691,-15.42581 11.97855,-28.7782 17.85822,-44.35459 2.86261,-7.58361 7.63474,-20.30111 9.78802,-28.42643 0.77913,-2.94003 1.1175,-5.9795 1.67625,-8.96925 5.03914,-52.79306 -69.62152,-59.91948 -74.66066,-7.12642 z"/>
<path d="m 418.56108,427.90832 c -7.79094,31.09006 -15.27859,62.25395 -22.57382,93.46394 -11.55774,47.06923 -25.07739,93.70915 -40.52208,139.65575 -2.56717,7.63711 -5.31073,15.2138 -7.96609,22.8207 -8.26307,22.61114 -17.06709,45.11578 -28.20204,66.49133 -5.53747,10.66681 -10.27727,23.42864 -4.64423,35.84289 4.44176,9.78886 13.27687,17.1967 21.75552,23.80453 3.76223,2.9321 19.62754,5.14503 25.00871,6.04939 28.98895,4.30456 57.32793,12.03389 85.10981,21.24745 7.62051,2.52726 15.17233,5.25711 22.7585,7.88567 43.78761,15.7117 85.95222,35.48171 127.64955,56.00536 14.2479,7.11136 28.43995,14.33305 42.66577,21.48834 47.37786,23.82937 81.07767,-43.17304 33.69981,-67.0024 v 0 c -14.42278,-7.25393 -28.81001,-14.5778 -43.25744,-21.78268 -44.49247,-21.87925 -89.5031,-42.90511 -136.24597,-59.59004 -8.24921,-2.84753 -16.4596,-5.81008 -24.74762,-8.54258 -31.18927,-10.28284 -63.01221,-18.83019 -95.52207,-23.72492 -2.36104,-0.37034 -4.73906,-1.57693 -7.08311,-1.11102 -1.22796,0.24407 2.44063,0.9219 3.2564,1.87163 5.85845,6.82048 13.47897,12.82518 16.60768,21.2544 2.48264,6.68859 -0.1329,14.2841 -0.77944,21.38921 -0.0972,1.06795 -1.99094,3.79566 -1.42916,2.88222 0.68581,-1.11511 1.20168,-2.3262 1.80253,-3.4893 12.66925,-24.58506 23.06019,-50.26732 32.41561,-76.27747 2.82816,-8.12031 5.74783,-16.20933 8.48448,-24.36094 16.09725,-47.9487 30.18261,-96.61846 42.21681,-145.73891 7.20279,-30.82311 14.59838,-61.6001 22.29302,-92.30422 12.88938,-51.44282 -59.86175,-69.67115 -72.75113,-18.22833 z"/>
<path d="m 625.57146,539.88222 c 0.52138,22.26223 -7.12185,43.64393 -13.59597,64.62475 -10.85564,31.32151 -26.04331,60.93733 -44.10029,88.69745 -5.26973,8.10149 -10.67164,16.12818 -16.44438,23.8793 -5.90347,7.92665 -12.3738,15.41493 -18.56069,23.12239 -27.90456,31.09666 -58.82723,59.88214 -94.36171,82.13593 -23.15288,14.49971 -32.79655,18.07537 -57.62,29.68969 -26.42855,10.50383 -33.94522,14.07122 -60.8575,22.51413 -9.60272,3.01256 -19.35994,5.50851 -29.03991,8.26276 -50.984,14.59902 -30.33787,86.70129 20.64614,72.10227 v 0 c 10.91934,-3.14426 21.9256,-6.00106 32.75803,-9.43279 30.44401,-9.64471 38.5003,-13.56017 68.51591,-25.6264 30.03617,-14.29198 40.38828,-18.08156 68.49682,-35.99028 41.45129,-26.40975 77.68438,-60.15532 110.10336,-96.89832 7.25745,-9.15401 14.83457,-18.06344 21.77235,-27.46204 6.55417,-8.87893 12.70535,-18.05606 18.67806,-27.3361 21.28609,-33.07307 39.06736,-68.37243 51.71327,-105.65375 8.60008,-28.15627 17.69197,-56.82517 16.89651,-86.62899 0,-53.03301 -75,-53.03301 -75,0 z"/>
<path d="m 141.86591,641.90663 c 4.49725,-1.27515 10.68237,-3.04574 14.53222,-3.96501 36.70549,-8.76464 74.27,-13.47374 111.60783,-18.55081 84.69939,-10.73022 170.13098,-14.31384 255.45326,-14.63085 18.92933,-0.0703 37.85838,0.20476 56.78757,0.30714 67.26621,0.9567 134.56437,3.90506 201.40081,11.84514 29.31243,3.48228 43.8062,6.03359 72.10925,10.52002 52.38148,8.28742 64.10166,-65.79116 11.72019,-74.07859 v 0 c -30.05169,-4.74595 -44.90047,-7.36133 -76.09055,-11.04109 -69.27742,-8.17325 -139.02382,-11.27583 -208.74234,-12.24443 -19.38622,-0.10062 -38.77234,-0.37911 -58.15866,-0.30187 -88.3827,0.35217 -176.87228,4.15369 -264.60327,15.31094 -32.16326,4.38942 -42.45928,5.48538 -73.17491,10.75915 -21.19156,3.63852 -42.56443,7.59211 -63.14511,13.95854 -3.48513,1.07809 -6.87889,2.43195 -10.31834,3.64793 -48.411208,21.65305 -17.78916,90.11684 30.62205,68.46379 z"/>
</svg>
