<?xml version="1.0" ?>
<svg xmlns="http://www.w3.org/2000/svg" viewBox="0 0 1000 1000">
<path d="m 303.30604,203.53691 c 25.09103,-6.78886 50.16049,-13.70383 75.62845,-18.97639 9.51434,-1.96973 19.09092,-3.62582 28.63638,-5.43873 55.68505,-9.55801 112.25253,-13.32407 168.71805,-13.12655 9.63274,0.0337 19.26167,0.38935 28.89251,0.58402 22.55417,0.67224 45.04918,2.43415 67.35846,5.79521 52.46071,7.77008 63.44926,-66.42057 10.98856,-74.190648 v 0 c -4.17157,-0.609536 -8.33165,-1.303664 -12.5147,-1.828607 -21.35787,-2.680256 -42.86225,-3.97878 -64.36466,-4.76159 -10.41653,-0.197703 -20.83121,-0.567124 -31.24958,-0.593109 -60.88155,-0.151845 -121.85872,4.049999 -181.88068,14.449434 -10.4008,1.9916 -20.83479,3.81713 -31.20242,5.97481 -27.4613,5.71515 -54.51944,13.13778 -81.54931,20.57897 -50.58159,15.93743 -28.04266,87.47061 22.53894,71.53318 z"/>
<path d="m 262.98378,353.43229 c 1.98015,-0.70512 3.96301,-1.40268 5.94046,-2.11535 13.43507,-4.84195 26.87841,-9.26622 40.69375,-12.95837 22.29144,-5.95738 29.45865,-7.22862 52.97137,-12.39477 58.59063,-12.04201 118.05497,-19.32726 177.70477,-23.40402 10.85919,-0.74217 21.73384,-1.23755 32.60075,-1.85632 37.06576,-1.62396 74.21356,-2.52878 111.28167,-0.56578 3.90771,0.55105 7.96034,0.2246 11.85006,0.99165 0.20555,0.0405 -0.42255,0.0195 -0.62819,-0.0206 -1.00288,-0.19555 -2.03847,-0.30692 -2.9879,-0.68454 -2.74728,-1.0927 -5.37154,-2.47237 -8.05732,-3.70856 -3.74718,-3.8143 -8.19824,-7.04647 -11.24154,-11.44291 -2.27282,-3.2834 -3.00248,-7.40198 -4.39416,-11.14492 -0.20162,-0.54226 -0.0846,-2.19137 -0.37941,-1.69361 -0.45717,0.77183 -0.12217,1.79017 -0.20677,2.68323 -0.20908,2.20698 -0.3997,4.41651 -0.67421,6.61631 -0.43654,3.49825 -0.97241,6.98339 -1.45861,10.47508 -0.83104,4.68261 -1.55982,9.38453 -2.49312,14.04784 -2.39183,11.95097 -5.63223,25.3025 -8.68847,37.00863 -4.41812,16.92251 -7.81649,29.17002 -13.4982,45.79857 -2.69079,7.8751 -5.73223,15.62601 -8.59835,23.43901 -5.30975,13.7048 -13.37997,35.08715 -19.43455,48.51764 -3.34867,7.42815 -7.18509,14.62664 -10.77764,21.93995 -23.244,47.66778 44.16842,80.53975 67.41241,32.87198 v 0 c 4.22463,-8.71781 8.70436,-17.31655 12.6739,-26.15344 6.45685,-14.37406 14.89457,-36.76446 20.57667,-51.45286 3.2272,-8.87537 6.64997,-17.68204 9.68162,-26.6261 6.0857,-17.95425 10.03463,-32.09204 14.76595,-50.30985 3.55393,-13.68431 7.02811,-28.16998 9.75814,-42.07187 1.10198,-5.61154 1.95837,-11.26853 2.93755,-16.9028 2.1734,-16.2801 6.76727,-40.13237 -2.60286,-55.146 -3.18241,-5.09912 -8.18694,-8.8028 -12.2804,-13.20419 -3.27333,-1.62082 -6.44493,-3.46579 -9.82,-4.86245 -1.84547,-0.76369 -3.82996,-1.14435 -5.77648,-1.59166 -7.11986,-1.63614 -14.50765,-1.62776 -21.74356,-2.27133 -39.80157,-2.05642 -79.68232,-1.23188 -119.48043,0.58601 -30.4108,1.74796 -40.48434,2.07639 -71.39626,4.9209 -50.59866,4.65608 -100.98516,11.70618 -150.76226,21.97361 -10.41418,2.30035 -20.86176,4.45444 -31.24256,6.90104 -25.71459,6.06054 -51.18696,13.24886 -75.89533,22.64373 -50.32273,16.73687 -26.65322,87.90396 23.66951,71.16709 z"/>
<path d="m 156.65705,485.35888 c 3.90754,-0.72228 5.54121,-1.00095 10.40235,-2.1577 2.55145,-0.60715 28.03088,-7.14076 28.50341,-7.25928 19.96214,-5.00688 26.97251,-6.62494 47.94582,-11.65643 61.88151,-14.50158 124.47998,-26.0355 187.51594,-34.20989 15.29471,-1.98339 30.63527,-3.59559 45.95291,-5.39338 73.44206,-7.46878 147.31834,-12.12545 221.17369,-10.84195 12.13242,0.21084 24.25426,0.83142 36.3814,1.24714 26.99973,1.36986 53.94594,3.96559 80.56637,8.7425 13.01651,2.33575 18.7811,3.88469 31.08702,6.84091 51.58571,12.30507 68.98771,-60.64813 17.40201,-72.95321 v 0 c -14.74644,-3.49653 -21.18246,-5.22081 -36.80998,-7.97279 -29.65417,-5.22205 -59.65179,-8.13195 -89.7155,-9.61473 -12.92705,-0.4299 -25.84874,-1.07401 -38.78114,-1.28971 -76.82609,-1.28137 -153.67212,3.54198 -230.06488,11.3553 -15.93059,1.87758 -31.88508,3.56249 -47.79178,5.63275 -65.35448,8.50589 -130.25499,20.48217 -194.41443,35.52691 -21.76817,5.22363 -28.32133,6.73082 -49.0305,11.92524 -8.57723,2.1514 -17.0992,4.52281 -25.69511,6.59833 -3.34644,0.80801 -7.96859,1.69877 -11.45615,2.39237 -51.680749,11.89958 -34.85221,84.9872 16.82855,73.08762 z"/>
<path d="m 312.26787,553.30227 c 19.23855,-6.03194 39.41148,-8.55209 59.29598,-11.4704 50.83952,-6.8418 102.03475,-10.52829 153.24525,-13.11397 36.23154,-1.80043 72.50142,-0.91444 108.75308,-0.75489 53.03251,0.22928 53.35676,-74.77002 0.32424,-74.9993 v 0 c -37.62554,-0.15962 -75.26996,-1.05586 -112.8735,0.85032 -9.59129,0.48783 -19.18695,0.89614 -28.77387,1.4635 -43.9855,2.60305 -87.91615,6.60715 -131.60274,12.35469 -25.63221,3.78687 -51.67072,7.20251 -76.16912,16.01288 -49.25507,19.65805 -21.45438,89.31523 27.80068,69.65717 z"/>
<path d="m 458.92459,60.043181 c -0.54126,15.000842 -0.2901,30.024532 -0.23816,45.032679 0.3245,42.97841 -0.79199,85.94698 -2.03645,128.90267 -1.44984,52.77595 -4.53575,105.48395 -7.52749,158.18872 -1.70253,33.23182 -0.90833,16.60003 -2.38205,49.89537 -2.34314,52.98122 72.58363,56.29491 74.92676,3.31369 v 0 c 1.44209,-32.63508 0.66391,-16.31555 2.33475,-48.95859 3.03105,-53.39741 6.14898,-106.79845 7.6166,-160.26797 1.26715,-43.76577 2.39539,-87.54469 2.06743,-131.33352 -0.0517,-14.923371 -0.28135,-29.855237 0.23861,-44.773049 0,-53.033009 -75,-53.033009 -75,0 z"/>
<path d="m 446.49609,492.1557 c -7.77163,14.2711 -11.7296,30.13044 -16.35726,45.58451 -5.73834,19.16314 -5.25141,17.21094 -11.80074,37.12267 -10.43724,30.95801 -20.58179,62.01853 -31.79237,92.70965 -6.98011,19.10942 -8.44569,22.49388 -15.7101,40.90143 -8.46587,20.93568 -17.49575,41.63551 -26.57967,62.30815 -3.56954,8.4365 -7.94143,18.67262 -4.78994,27.99021 3.30314,9.76596 9.52828,18.59407 16.59919,26.09652 4.89532,5.19408 18.14487,7.77514 25.13298,9.52701 23.64781,4.72757 47.03282,10.88242 69.64893,19.31108 6.20228,2.31149 12.29126,4.91632 18.43689,7.37448 25.14756,10.92618 49.11922,24.4252 71.84487,39.74214 11.64352,7.84767 16.7281,11.89995 27.71391,20.18932 10.80027,8.34355 21.26837,17.09802 31.02427,26.64273 38.08324,36.90755 90.2784,-16.95028 52.19516,-53.85783 v 0 c -12.07347,-11.62571 -24.7762,-22.549 -38.11799,-32.70868 -12.93232,-9.71208 -18.4574,-14.1165 -32.23329,-23.33769 -26.79401,-17.93514 -55.07303,-33.67453 -84.72858,-46.36791 -7.2841,-2.8789 -14.50374,-5.92658 -21.85232,-8.63669 -25.0187,-9.22673 -50.83885,-16.14174 -76.96283,-21.40608 -1.13077,-0.19708 -4.11196,-1.48542 -3.39231,-0.59123 14.11538,17.53865 2.90462,-29.57597 18.91318,27.24853 1.42184,5.047 -1.14494,10.42492 -1.82126,15.62458 -0.0211,0.16258 -0.32507,0.56692 -0.26492,0.41441 0.41009,-1.03976 0.87839,-2.0556 1.31759,-3.0834 9.46991,-21.55171 18.87702,-43.13468 27.68749,-64.96678 7.70279,-19.54857 9.198,-22.99547 16.5855,-43.2342 11.41815,-31.28108 21.76924,-62.93193 32.4001,-94.48464 6.87696,-20.96265 6.55859,-19.49435 12.54418,-39.52067 1.90125,-6.36111 4.40138,-15.60773 6.66557,-22.28456 1.16278,-3.42891 1.70393,-4.54032 2.95052,-7.3401 26.13959,-46.14349 -39.11716,-83.11045 -65.25675,-36.96696 z"/>
<path d="m 542.00575,678.60227 c 0.81126,11.42494 -1.69802,22.65179 -5.61396,33.34669 -2.00879,5.48624 -4.45752,10.80123 -6.68628,16.20185 -22.04866,46.44914 -54.43519,86.8861 -89.94273,123.72897 -8.37181,8.68665 -17.15588,16.96631 -25.73382,25.44946 -8.5055,7.77676 -17.011,15.55351 -25.51649,23.33027 -39.10886,35.81895 11.54679,91.12723 50.65565,55.30828 v 0 c 9.22087,-8.45844 18.44175,-16.91688 27.66262,-25.37532 9.41357,-9.35249 19.06174,-18.47463 28.24071,-28.05747 41.65913,-43.49216 79.12837,-91.52915 104.28422,-146.56594 3.06119,-7.84412 6.50052,-15.55098 9.18355,-23.53235 6.62835,-19.71776 9.87297,-40.54952 8.09267,-61.31372 -5.28865,-52.76864 -79.91479,-45.28937 -74.62614,7.47928 z"/>
<path d="m 155.36029,737.08557 c 25.60924,-5.89308 50.95279,-12.88177 76.62962,-18.49183 9.33961,-2.04059 18.725,-3.86568 28.08749,-5.79852 63.36968,-12.03561 127.56442,-19.42484 191.86507,-24.21056 14.43285,-1.07419 28.88536,-1.86565 43.32803,-2.79848 55.08022,-2.76526 110.23485,-5.07592 165.39979,-4.51129 30.55372,0.31272 36.24638,0.90988 65.8487,2.4678 16.91007,1.39261 32.84585,2.32349 49.56405,5.05812 6.13727,1.00388 12.28449,2.11218 18.2532,3.85814 4.53499,1.32657 8.75815,3.54945 13.13723,5.32417 49.73728,18.40387 75.76428,-51.93527 26.027,-70.33914 v 0 c -8.03772,-2.81976 -15.90091,-6.19763 -24.11314,-8.45927 -7.89466,-2.17419 -16.00317,-3.52309 -24.08909,-4.81561 -18.66327,-2.9833 -36.00626,-3.99296 -54.87429,-5.52468 -31.6032,-1.63317 -37.41218,-2.24867 -69.93246,-2.56932 -56.722,-0.55929 -113.43355,1.80263 -170.0676,4.66785 -14.93439,0.96954 -29.87903,1.79238 -44.80317,2.90862 -67.28021,5.03218 -134.44218,12.83321 -200.73629,25.49862 -9.96648,2.06559 -19.95674,4.0196 -29.89944,6.19676 -25.88456,5.66796 -51.44181,12.68532 -77.25745,18.64085 -51.546513,12.46824 -33.91376,85.36602 17.63275,72.89777 z"/>
</svg>
