<?xml version="1.0" ?>
<svg xmlns="http://www.w3.org/2000/svg" width="1000" height="1000">
<path d="m 216.14403,165.8612 c 5.15671,22.66826 6.39928,45.98127 7.6167,69.11715 1.14968,38.81192 -0.0339,77.68393 -3.18134,116.38103 -1.81006,22.25401 -4.33734,44.3164 -6.7293,66.51256 -1.25603,11.0251 -2.45779,22.05651 -3.76808,33.07529 -2.60184,21.88002 -4.75767,38.83727 -7.99175,60.51255 -3.38022,22.65473 -7.42435,45.18809 -11.52937,67.71917 -1.97953,11.54987 -4.55323,22.98391 -6.82298,34.47637 -0.66607,3.37248 -2.4494,12.31547 -2.08872,15.42033 0.78312,6.74136 2.74975,13.29194 4.12462,19.93791 6.58828,6.67081 12.17092,14.51357 19.76484,20.01244 4.38056,3.17204 19.24173,6.0426 25.3585,7.65007 8.57519,2.25354 15.58906,4.39213 23.9284,7.65608 4.7457,1.85743 9.37119,4.00844 14.05678,6.01266 20.90384,9.96616 40.53338,22.45355 58.78097,36.69022 10.61476,8.28158 13.64154,11.31026 23.41067,20.11949 7.60464,7.06234 14.93705,14.40199 22.14776,21.86211 36.89943,38.09111 90.76839,-14.09256 53.86897,-52.18367 v 0 c -8.44746,-8.70427 -17.01113,-17.29423 -25.93941,-25.51088 -12.12454,-10.82757 -15.80744,-14.48752 -28.97721,-24.65087 -23.00415,-17.75271 -47.77914,-33.21805 -74.1624,-45.43849 -16.94471,-7.06195 -18.72215,-8.27988 -35.65934,-13.58977 -4.63025,-1.4516 -9.3292,-2.67704 -14.02173,-3.91258 -2.86244,-0.75367 -5.68128,-1.94233 -8.63918,-2.05399 -0.98129,-0.037 1.54675,1.21031 2.32013,1.81546 4.25172,5.37041 8.50345,10.74083 12.75518,16.11124 0.5754,4.7705 1.24798,9.53027 1.72619,14.31149 0.0114,0.11393 -0.28951,0.32051 -0.27408,0.20706 0.38645,-2.84194 2.45324,-12.4403 2.7709,-14.00158 2.81052,-13.81364 2.46318,-12.27899 5.35744,-27.50305 4.28394,-23.53159 8.49211,-47.06654 12.01439,-70.72788 3.32522,-22.33755 5.56222,-39.93666 8.2386,-62.45409 1.32787,-11.17188 2.54598,-22.35653 3.81898,-33.5348 2.54545,-23.66472 5.08484,-45.7763 6.99116,-69.50783 3.35113,-41.71785 4.58154,-83.62416 3.24119,-125.46 -0.44539,-8.0605 -0.74327,-16.13051 -1.33617,-24.1815 -1.53551,-20.85061 -4.12518,-41.79715 -9.23177,-62.09589 -14.99504,-50.868937 -86.93458,-29.66275 -71.93954,21.20619 z"/>
<path d="m 325.03154,427.89437 c 5.14655,17.69182 3.29222,36.33749 1.94071,54.41429 -6.47514,48.68922 -20.73409,96.02721 -38.40812,141.74746 -4.25477,11.00648 -8.91983,21.84994 -13.37974,32.7749 -18.0114,40.74388 -8.85674,20.81914 -27.41132,59.7984 -22.77153,47.89527 44.96262,80.09908 67.73415,32.2038 v 0 c 19.73222,-41.5492 10.00209,-20.32099 29.13597,-63.70953 4.80318,-11.81604 9.83418,-23.542 14.40954,-35.4481 20.09068,-52.28047 36.04994,-106.48249 42.74229,-162.21395 0.50836,-7.89658 1.28621,-15.78043 1.52508,-23.68976 0.54812,-18.14876 -0.74287,-36.54173 -5.53744,-54.10592 -12.88944,-51.44281 -85.64056,-33.21439 -72.75112,18.22841 z"/>
<path d="m 93.38536,602.01013 c 3.76153,-2.63039 5.16275,-3.59367 9.31159,-6.59466 10.05359,-7.27209 11.19821,-8.31586 22.39735,-16.06942 15.91657,-11.0196 21.32083,-14.38697 38.27949,-25.49511 49.06337,-30.8494 99.96726,-59.07207 153.03734,-82.4655 11.47049,-5.05622 23.144,-9.63874 34.716,-14.45811 11.50534,-4.27516 23.01067,-8.55031 34.51601,-12.82547 49.69777,-18.51032 23.52022,-88.79357 -26.17754,-70.28325 v 0 c -12.41021,4.63238 -24.82042,9.26475 -37.23063,13.89713 -12.50701,5.23234 -25.1225,10.21256 -37.52104,15.697 -56.32651,24.91581 -110.37914,54.88851 -162.44885,87.70803 -18.20973,11.93873 -23.43095,15.17797 -40.5583,27.04911 -11.969631,8.29628 -12.342468,8.78919 -22.581753,16.20062 -0.855951,0.61956 -5.391277,3.84916 -7.277998,5.19311 -44.1563531,29.37204 -2.618022,91.81855 41.538331,62.44652 z"/>
<path d="m 521.9003,391.88248 c 27.72236,-7.90181 55.97602,-13.67088 84.20049,-19.43567 26.80412,-5.29988 53.80716,-9.78584 81.0312,-12.27295 11.17134,-1.02058 14.25539,-1.02041 24.82638,-1.43395 8.2132,0.24532 4.67137,-0.0948 10.65196,0.69115 52.77327,5.24232 60.18703,-69.39036 7.41376,-74.63268 v 0 c -13.42676,-1.16886 -6.38376,-0.79053 -21.13603,-0.9956 -12.85935,0.54631 -16.29789,0.54686 -29.78804,1.8024 -29.56633,2.75177 -58.90078,7.59403 -88.01539,13.36023 -28.43427,5.81352 -56.97054,11.48957 -84.86525,19.57466 -51.86091,11.08809 -36.17999,84.43049 15.68092,73.34241 z"/>
<path d="m 459.85773,574.73985 c 17.43642,-4.92402 34.51037,-11.03083 51.8635,-16.22607 6.31545,-1.89074 12.67815,-3.61992 19.01723,-5.42988 42.60157,-11.60502 86.48592,-17.93674 130.40868,-21.89527 9.89812,-0.89207 19.82123,-1.48085 29.73185,-2.22128 34.79963,-2.01671 69.70557,-2.34077 104.5226,-0.5724 15.95789,0.81051 22.56995,1.49726 38.08732,2.81823 13.93885,1.16117 27.79828,3.01711 41.58778,5.32757 52.31273,8.7108 64.63166,-65.27058 12.31893,-73.98138 v 0 c -15.77983,-2.61409 -31.633,-4.75395 -47.57937,-6.07881 -16.9868,-1.43099 -24.06376,-2.16362 -41.55883,-3.03122 -37.64656,-1.86692 -75.38676,-1.50145 -113.01007,0.72974 -10.67138,0.80942 -21.35628,1.45698 -32.01415,2.42826 -48.22992,4.39527 -96.37633,11.55102 -143.13454,24.37248 -6.97606,2.0015 -13.97609,3.92125 -20.92817,6.00449 -17.09857,5.12372 -33.92534,11.13327 -51.10535,15.99146 -50.74487,15.40968 -28.95228,87.17376 21.79259,71.76408 z"/>
<path d="m 613.5833,133.39047 c 0,15.01268 0,30.02536 0,45.03804 -0.028,35.92834 0.10441,71.85675 -0.1549,107.78432 -0.46701,48.61078 -3.07002,97.16147 -4.93772,145.72937 -1.60567,53.01271 -1.90646,106.05073 -3.37041,159.06703 -1.76979,49.87799 -3.98497,99.73689 -5.53348,149.623 -1.11127,33.98148 -1.44135,67.98726 -3.31466,101.93941 -0.32066,8.69294 -1.45196,17.29262 -2.91059,25.85251 -8.54708,52.33973 65.47248,64.42713 74.01955,12.08739 v 0 c 1.78094,-11.21836 3.34449,-22.46405 3.7786,-33.83454 1.88264,-34.54657 2.30038,-69.14238 3.39104,-103.71917 1.54939,-49.97255 3.78046,-99.91735 5.54106,-149.88217 1.4512,-52.745 1.7761,-105.51069 3.34355,-158.25265 1.89611,-49.34854 4.53793,-98.67969 4.99114,-148.07225 0.25739,-36.10691 0.13198,-72.21458 0.15682,-108.32225 0,-15.01268 0,-30.02536 0,-45.03804 0,-53.033001 -75,-53.033001 -75,0 z"/>
<path d="m 522.92554,599.4562 c -14.46431,12.41192 -26.98764,26.85095 -39.70677,40.98665 -3.82872,4.26835 -7.66527,8.52969 -11.48617,12.80504 -13.78699,15.42675 -27.53949,30.85687 -41.76741,45.88263 -15.41373,16.27806 -18.06816,18.77445 -34.05853,34.92375 -18.29313,17.93823 -36.61129,35.89342 -55.89398,52.77995 -6.17473,5.40743 -12.54363,10.58906 -18.81544,15.8836 -40.49178,34.24785 7.942,91.51188 48.43378,57.26402 v 0 c 6.93394,-5.87486 13.97018,-11.63107 20.80182,-17.62458 20.26827,-17.78172 39.54612,-36.66037 58.77798,-55.54253 16.64037,-16.81769 19.56434,-19.58034 35.59645,-36.5242 14.55778,-15.38569 28.64353,-31.17213 42.7556,-46.96289 3.79655,-4.24817 7.60867,-8.48241 11.41301,-12.72361 10.15656,-11.29158 20.09477,-22.847 31.37908,-33.04921 41.08193,-33.53766 -6.34749,-91.63629 -47.42942,-58.09862 z"/>
<path d="m 692.48787,642.67419 c 9.1933,11.0555 18.16868,22.4704 26.9066,33.94098 14.73003,20.19023 29.80683,40.11742 44.9415,60.00464 9.30501,12.0724 18.40294,24.29914 27.31445,36.66409 8.69375,12.26159 18.99967,23.26624 29.193,34.27459 18.23795,18.3768 37.61344,35.58241 56.53378,53.24728 3.36005,3.16865 6.72009,6.33729 10.08014,9.50594 38.58403,36.38367 90.03832,-18.1824 51.45429,-54.56607 v 0 c -3.45166,-3.2546 -6.90332,-6.50921 -10.35498,-9.76381 -17.60479,-16.43244 -35.57426,-32.49176 -52.71281,-49.41308 -8.11418,-8.74017 -16.40147,-17.42311 -23.35162,-27.14002 -9.29273,-12.89045 -18.77403,-25.64128 -28.47374,-38.22916 -15.14971,-19.90665 -30.23138,-39.86039 -44.98598,-60.06302 -7.03003,-9.21001 -14.15159,-18.30946 -21.4858,-27.27892 -2.57249,-3.14605 -6.89264,-8.48817 -9.73205,-11.63622 -1.40825,-1.56132 -2.90292,-3.04247 -4.35438,-4.56371 -38.90253,-36.04294 -89.87493,18.97355 -50.9724,55.01649 z"/>
</svg>
