<?xml version="1.0" ?>
<svg xmlns="http://www.w3.org/2000/svg" viewBox="0 0 1000 1000">
<path d="m 218.72879,197.43206 c 0.0488,16.51315 0.28001,33.02547 0.39331,49.53858 0.15341,33.73948 0.16777,67.50862 -1.48094,101.21801 -0.41482,8.48157 -1.01551,16.95302 -1.52326,25.42953 -3.84256,56.04678 -10.76918,111.80579 -18.26912,167.45989 -5.82825,41.15748 -10.83227,82.4356 -17.95004,123.39755 -2.18326,13.13702 -5.60912,25.98103 -9.1011,38.808 -2.16342,9.00085 -2.82841,18.27433 0.82058,27.22882 2.19664,5.39048 5.62361,10.29353 9.42935,14.69794 4.28326,4.95706 11.56734,8.6782 17.26206,11.94137 22.08079,11.65817 43.04828,25.1834 63.74854,39.10249 26.8294,18.08751 52.79296,37.37679 78.63552,56.83044 12.36352,9.11472 24.7742,18.16403 37.08855,27.34523 42.51831,31.6969 87.34449,-28.43307 44.82618,-60.12997 v 0 c -12.22172,-9.1102 -24.53171,-18.09948 -36.80837,-27.13534 -26.91549,-20.26132 -53.97342,-40.32997 -81.91788,-59.16591 -22.39655,-15.03393 -45.08093,-29.64893 -68.93805,-42.29092 -0.99313,-0.52385 -3.34619,-2.63275 -2.97938,-1.57154 0.56935,1.64719 2.73745,2.23797 3.70969,3.68441 6.91134,10.28225 7.69092,11.85969 8.33129,23.89681 0.21434,4.02904 0.36422,3.81785 -0.82013,5.18719 4.0621,-15.08078 8.05121,-30.18204 10.61045,-45.61538 7.25079,-41.89771 12.4644,-84.09802 18.38126,-126.19765 7.74406,-57.49929 14.87352,-115.10998 18.80807,-173.01688 0.53492,-9.03976 1.16709,-18.07429 1.60474,-27.11928 1.68398,-34.80316 1.69381,-69.6662 1.53022,-104.50001 -0.11239,-16.34139 -0.34049,-32.682 -0.39154,-49.02338 0,-53.03301 -75,-53.03301 -75,0 z"/>
<path d="m 343.69651,445.70172 c 2.5696,18.98156 2.22776,38.20951 2.12603,57.31442 -0.0232,36.05421 -5.08702,71.83426 -12.04141,107.14227 -2.20838,11.21211 -4.54922,22.40266 -7.22105,33.51345 -2.75189,11.44372 -6.03044,22.75435 -9.04565,34.13153 -9.4936,33.33475 -20.37562,66.29292 -34.22427,98.09495 -4.08651,9.38426 -8.67527,18.54172 -13.0129,27.81259 -22.39478,48.07259 45.59013,79.74358 67.98491,31.67099 v 0 c 4.85744,-10.46728 9.99678,-20.8083 14.57233,-31.40184 15.00088,-34.73072 26.89601,-70.67112 37.19909,-107.0463 3.28523,-12.50646 6.85295,-24.9421 9.85569,-37.51938 2.86853,-12.01511 5.38814,-24.11397 7.75345,-36.23819 7.70374,-39.48818 13.11491,-79.51421 13.179,-119.81157 0.0919,-22.77764 0.3218,-45.68199 -2.88241,-68.29334 -7.51685,-52.4976 -81.75965,-41.86717 -74.24281,10.63042 z"/>
<path d="m 74.789281,673.47866 c 4.44176,-2.27636 5.738207,-2.87361 10.48304,-5.67628 7.507182,-4.43435 14.777729,-9.1452 22.135549,-13.83076 17.3162,-11.02718 20.10309,-12.83037 38.64069,-24.70154 69.65042,-44.51609 141.49693,-85.4635 213.15773,-126.62223 13.38366,-7.50697 26.76731,-15.01393 40.15097,-22.5209 46.25266,-25.94592 9.55959,-91.35707 -36.69308,-65.41115 v 0 c -13.60408,7.63209 -27.20817,15.26419 -40.81225,22.89628 -72.70565,41.76053 -145.59057,83.32115 -216.2497,128.49873 -21.519095,13.78061 -18.813561,12.06644 -38.44024,24.57362 -5.339635,3.4027 -12.991277,8.34026 -18.786924,11.82175 -2.07727,1.24784 -3.522532,2.02473 -5.461826,3.08347 -48.0047813,22.53977 -16.12874,90.42878 31.876041,67.88901 z"/>
<path d="m 607.30005,168.21657 c -0.74218,2.25563 -1.53468,4.49533 -2.22654,6.7669 -3.1635,10.38678 -2.36125,9.24318 -6.04468,20.25545 -5.96073,17.82064 -13.00481,35.31538 -19.67734,52.87342 -12.90698,32.07864 -26.47866,63.94813 -41.4512,95.1268 -8.82422,18.37545 -12.46727,24.86236 -21.85069,42.60236 -13.2277,24.82821 -26.94416,49.42358 -43.38186,72.28779 -20.61044,26.60526 -14.19875,9.54219 45.39564,62.02885 1.59078,1.40105 3.65448,-2.1519 5.52709,-3.14531 2.71277,-1.43912 5.48324,-2.7667 8.22487,-4.15005 26.85599,-12.74571 55.14236,-22.4273 83.96934,-29.63224 7.05294,-1.76279 14.17789,-3.22383 21.26684,-4.83575 20.23116,-4.34337 40.71416,-7.27856 61.18043,-10.22965 52.4876,-7.58626 41.75901,-81.81494 -10.72859,-74.22868 v 0 c -22.48395,3.25686 -44.98256,6.52006 -67.19809,11.35181 -8.13433,1.87523 -16.31073,3.57651 -24.40298,5.62568 -33.74093,8.54408 -66.81152,20.04435 -98.18641,35.14893 -3.79721,1.95454 -7.63165,3.83837 -11.39162,5.86362 -2.52417,1.3596 -8.93743,1.83372 -7.45587,4.28828 41.92694,69.46193 32.47143,74.48768 54.78084,45.57522 5.34257,-7.48617 7.02892,-9.6958 12.31322,-17.83013 13.23541,-20.37374 24.8432,-41.73171 36.40115,-63.08335 10.31535,-19.5461 13.86421,-25.83419 23.59127,-46.11638 15.71966,-32.77753 29.97617,-66.27539 43.5051,-100.00571 10.02008,-26.36878 20.5945,-52.61023 27.94508,-79.88663 18.84527,-49.57173 -51.25974,-76.22296 -70.105,-26.65123 z"/>
<path d="m 796.3819,394.83808 c 5.85235,17.19812 14.45836,33.27648 21.64922,49.92198 1.80336,4.17446 3.47296,8.40543 5.20945,12.60815 1.53955,4.0094 3.07911,8.01881 4.61866,12.02821 19.05751,49.49052 89.04767,22.53913 69.99016,-26.95138 v 0 c -1.77641,-4.60185 -3.55283,-9.2037 -5.32924,-13.80555 -2.03919,-4.90236 -4.00953,-9.83392 -6.11757,-14.70706 -5.99147,-13.85042 -12.98664,-27.27859 -18.40493,-41.36958 -15.75097,-50.63997 -87.36671,-28.36475 -71.61575,22.27523 z"/>
<path d="m 512.15729,632.52202 c 7.31654,18.90961 13.65315,38.16211 19.57801,57.54567 5.71799,20.06684 10.4824,40.41136 13.73229,61.02875 1.7232,10.93198 2.12862,15.38308 3.36299,26.11797 0.93753,8.60533 1.4891,17.2426 1.98314,25.88183 3.06432,52.94441 77.93902,48.6108 74.87469,-4.3336 v 0 c -0.58924,-10.07826 -1.24464,-20.15427 -2.35756,-30.19173 -1.46192,-12.50441 -1.93526,-17.63094 -3.98423,-30.39303 -3.80082,-23.67355 -9.26963,-47.04705 -15.90202,-70.08237 -6.36347,-20.7231 -13.10793,-41.32625 -20.93036,-61.55233 -18.36981,-49.74987 -88.72676,-23.77104 -70.35695,25.97884 z"/>
<path d="m 570.86905,667.06806 c 16.32822,-2.14704 32.35123,-6.27542 48.38921,-9.94255 30.68079,-7.29381 61.78173,-12.44616 92.97723,-16.92653 19.22433,-2.26432 38.79372,-4.47254 58.1194,-2.11618 0.58318,0.84771 2.3701,0.13751 3.16495,0.89227 0.1163,0.11044 -0.32618,0.0284 -0.48096,-0.0136 -0.51772,-0.14049 -1.02919,-0.31234 -1.51978,-0.52935 -2.03429,-0.89987 -2.39944,-1.26715 -4.28101,-2.52611 -3.94762,-3.01333 -6.20689,-6.75461 -8.60304,-11.2734 -0.70185,-1.32359 -0.71485,-2.98571 -1.58366,-4.20622 -0.41915,-0.58882 0.0868,1.44292 0.13019,2.16439 1.55928,24.24608 -0.16505,48.55307 -2.34419,72.70113 -2.32772,22.08075 -5.83056,44.05333 -11.13875,65.62231 -2.82067,11.46132 -4.38074,16.24878 -7.70095,27.43487 -4.08108,14.21589 -8.91251,28.16598 -14.6944,41.77262 -20.53656,48.8953 48.61183,77.93837 69.14839,29.04308 v 0 c 1.49493,-3.58953 3.0697,-7.14684 4.48479,-10.76858 4.96568,-12.70902 9.01971,-25.74365 12.98581,-38.79027 3.88752,-13.20281 5.63561,-18.57645 8.93323,-32.16682 6.02332,-24.82373 10.05961,-50.09002 12.68583,-75.4899 0.55574,-6.30584 1.20741,-12.60396 1.66722,-18.91753 1.66959,-22.92512 2.24773,-46.04033 0.48611,-68.9732 -0.84027,-6.50445 -1.16741,-11.88394 -3.77706,-18.14743 -3.19561,-7.66985 -7.85054,-13.5919 -14.09099,-18.78012 -3.97421,-2.90356 -4.8031,-3.73891 -9.29396,-6.04201 -8.16596,-4.18784 -17.1601,-6.30896 -26.19451,-7.58005 -2.98794,-0.29753 -5.96825,-0.68556 -8.96383,-0.89257 -22.63397,-1.56413 -45.36871,0.5427 -67.81419,3.3463 -33.22274,4.78316 -66.34244,10.29847 -99.02139,18.05025 -10.04523,2.29746 -20.08478,4.63761 -30.16378,6.78477 -1.65701,0.35299 -3.32041,0.67526 -4.98061,1.01289 -0.82524,0.1476 -1.65542,0.26987 -2.47573,0.4428 -0.0697,0.0147 0.14066,0.0231 0.21099,0.0347 -52.87749,4.0584 -47.13806,78.83847 5.73944,74.78007 z"/>
<path d="m 598.64538,836.17148 c 15.53025,-1.65551 31.14295,-2.51438 46.72791,-3.4951 21.09969,-1.08033 42.2345,-2.24973 63.36906,-1.52181 12.3624,0.42578 16.60335,0.97292 28.66955,2.0681 14.77202,1.81985 7.75477,0.87003 21.05799,2.80294 52.48941,7.57377 63.20034,-66.65746 10.71094,-74.23123 v 0 c -15.76333,-2.26105 -7.39317,-1.14703 -25.11915,-3.27633 -14.71188,-1.28804 -19.22419,-1.87937 -34.32704,-2.35692 -23.03895,-0.72849 -46.07669,0.45012 -69.07647,1.66361 -18.1201,1.14257 -36.301,2.03947 -54.31586,4.36272 -52.31459,8.69959 -40.01153,82.6836 12.30307,73.98402 z"/>
</svg>
