<?xml version="1.0" ?>
<svg xmlns="http://www.w3.org/2000/svg" width="1000" height="1000">
<path d="m 201.30404,197.84678 c 17.21598,12.13435 33.6023,25.39243 49.96804,38.64152 15.86042,14.28185 8.1732,6.80261 23.04139,22.45854 36.76584,38.22006 90.81716,-13.77469 54.05132,-51.99475 v 0 c -19.80575,-20.39347 -9.79751,-10.84371 -29.91329,-28.7656 -19.50707,-15.77949 -38.96239,-31.76712 -59.99985,-45.4938 -46.0709,-26.26732 -83.21851,38.88676 -37.14761,65.15409 z"/>
<path d="m 192.17427,503.99777 c 0.68211,-0.57459 1.33603,-1.18441 2.04632,-1.72377 3.50502,-2.66155 14.53586,-10.35175 16.13195,-11.48918 5.19573,-3.70265 10.37162,-7.43308 15.55025,-11.15961 6.42237,-4.62151 12.83515,-9.25633 19.25272,-13.8845 7.29723,-5.24781 14.59446,-10.49562 21.89169,-15.74343 31.59487,-22.95705 15.68002,-11.34014 47.74176,-34.85453 42.76414,-31.36444 -1.59188,-91.84207 -44.35602,-60.47763 v 0 c -31.69396,23.24587 -15.96814,11.7663 -47.1746,34.44262 -7.32428,5.2673 -14.64857,10.53459 -21.97286,15.80188 -6.37139,4.59495 -12.73828,9.19616 -19.11419,13.78485 -5.03257,3.6219 -10.06364,7.24595 -15.11123,10.8469 -9.46676,6.75358 -12.95503,8.93645 -21.52538,15.6828 -1.29477,1.01922 -2.4994,2.14801 -3.74911,3.22201 -39.2809,35.63019 11.1078,91.18178 50.3887,55.55159 z"/>
<path d="m 390.76365,96.440272 c -0.15931,-0.16757 -0.3161,-0.667849 -0.47793,-0.502709 -0.31417,0.320591 -0.27352,0.862597 -0.31291,1.309729 -0.16251,1.844652 -0.15417,3.701038 -0.29122,5.547748 -0.24599,3.31437 -0.50656,6.6286 -0.85777,9.93347 -0.95259,8.96385 -2.37861,18.87436 -3.59158,27.76422 -3.08037,23.39869 -8.4017,46.39042 -13.42489,69.42019 -2.09936,13.94311 -5.33011,27.28528 10.19745,39.93854 10.73498,8.74784 26.54907,8.82538 40.35898,9.85052 5.29734,0.39323 9.97049,-3.67953 14.86169,-5.75138 2.38849,-1.01174 28.47471,-13.26849 29.65627,-13.8223 35.56175,-15.87456 73.29376,-26.46239 111.62718,-33.08135 8.20725,-1.41713 16.47446,-2.46192 24.71168,-3.69288 33.54893,-3.76739 67.50573,-5.96397 101.2557,-3.72121 3.98363,0.26473 7.94999,0.74519 11.92499,1.11779 7.02514,0.88807 14.0429,2.00836 20.8415,4.02981 2.47877,0.73702 5.44483,1.59979 4.44524,1.76056 -7.04249,-3.8033 -11.13495,-5.43801 -15.48486,-15.60542 -2.77189,-6.47896 -2.77385,-13.87988 -3.03497,-20.92205 -0.0929,-2.50498 2.37173,-4.77443 1.9903,-7.25194 -0.20234,-1.31425 -1.76102,1.99291 -2.64736,2.98418 -2.81818,3.15182 -5.64412,6.2967 -8.46619,9.44505 -26.86383,28.2168 -54.46092,55.72537 -81.97135,83.30842 -37.45021,37.54972 15.65312,90.51232 53.10333,52.96259 v 0 c 28.58464,-28.66108 57.28968,-57.21877 85.09716,-86.63953 4.81587,-5.51543 15.76233,-17.24035 19.77099,-24.44779 2.67332,-4.80655 5.96224,-9.6717 6.56212,-15.13885 0.92398,-8.42095 0.76696,-17.36212 -2.1222,-25.32573 -4.44702,-12.25768 -11.17127,-15.32457 -20.10969,-20.8711 -1.81112,-0.83014 -3.59266,-1.72812 -5.43336,-2.49044 -14.54531,-6.02389 -30.2856,-8.5186 -45.79959,-10.4942 -5.14755,-0.45068 -10.2856,-1.02776 -15.44265,-1.35204 -38.56974,-2.42532 -77.35728,0.002 -115.67739,4.49262 -9.34919,1.42464 -18.73372,2.63406 -28.04758,4.27392 -44.30511,7.80066 -87.85268,20.28457 -128.92414,38.74951 -5.20951,2.44192 -10.41636,4.88953 -15.62854,7.32576 -3.94454,1.84373 -7.95633,3.54851 -11.84157,5.51413 -0.81007,0.40983 -3.0319,1.21196 -2.20835,1.59399 10.15252,4.70967 23.59415,3.90005 31.38082,11.93886 9.55982,9.86938 7.57072,40.06533 8.33417,27.29303 5.43747,-24.96994 11.14017,-49.90947 14.46035,-75.2796 1.29461,-9.53917 3.19177,-22.75834 4.07046,-32.32252 1.38659,-15.09236 1.94424,-29.590273 -1.662,-44.443604 -0.70669,-2.910735 -1.96072,-5.660633 -2.94108,-8.490949 -21.98604,-48.260896 -90.23725,-17.167941 -68.25121,31.092955 z"/>
<path d="m 500.61955,269.58503 c 0,1.66914 0.081,4.46388 -0.24663,6.11428 -0.34591,1.74261 -3.36755,9.13783 -3.38386,9.17611 -5.30585,12.45384 -4.74779,10.59699 -11.92007,23.66679 -19.97323,32.07586 -44.39273,61.47697 -71.98401,87.30591 -5.64275,5.28233 -11.64064,10.17201 -17.46096,15.25801 -21.86462,16.81884 -11.12457,8.936 -32.15017,23.74357 -43.30064,30.61952 0.002,91.85587 43.30253,61.23635 v 0 c 24.9126,-17.67768 12.07805,-8.17047 38.39099,-28.6731 7.00502,-6.19878 14.21266,-12.17586 21.01505,-18.59634 12.95659,-12.22914 27.49394,-27.78632 39.06484,-41.3182 12.20479,-14.27322 22.4963,-27.52816 32.99507,-43.04778 4.50799,-6.66386 8.59417,-13.60354 12.89125,-20.40531 3.31266,-6.25675 6.87036,-12.38977 9.93798,-18.77023 8.34634,-17.35991 14.96267,-36.20163 14.54799,-55.69006 0,-53.03301 -75,-53.03301 -75,0 z"/>
<path d="m 525.17279,411.64971 c 15.05028,7.74928 29.35628,16.74878 43.43549,26.1183 22.3789,14.68264 43.51516,31.11767 64.97805,47.07639 12.93099,9.18437 25.92786,18.85271 40.80177,24.73083 3.48039,1.37544 7.0815,2.42325 10.62226,3.63487 3.93662,0.93436 7.84857,1.97952 11.80986,2.80306 14.08095,2.9274 28.43665,4.68823 42.65461,6.78027 22.07704,3.24843 15.22026,2.23513 38.56663,5.80219 52.4248,8.00877 63.75091,-66.1311 11.32611,-74.13986 v 0 c -27.13984,-4.14548 -54.38228,-7.72976 -81.39485,-12.64404 -1.07907,-0.27415 -2.17807,-0.47928 -3.23722,-0.82246 -2.6331,-0.85316 -4.79737,-2.02216 -7.21538,-3.41556 -6.68838,-3.85423 -12.93981,-8.41065 -19.19055,-12.92102 -22.53267,-16.74469 -44.73246,-33.9747 -68.23578,-49.36629 -16.99921,-11.26449 -34.29703,-22.0889 -52.52513,-31.27918 -47.83047,-22.90734 -80.22634,44.73516 -32.39587,67.6425 z"/>
<path d="m 394.42779,532.76809 c -2.08878,12.58598 -4.45345,25.20635 -7.35864,37.63667 -1.28206,5.48552 -2.77842,10.91874 -4.16763,16.37811 -10.75776,36.86946 -24.39102,72.83101 -38.60102,108.48715 -3.81038,9.80112 -8.26908,19.33183 -12.29291,29.04276 -1.28363,3.09785 -4.48942,10.98684 -4.9928,14.2108 -0.79414,5.08604 -0.82935,10.26187 -1.24402,15.3928 5.13669,9.49899 8.24739,20.41536 15.41008,28.49696 6.18223,6.97535 21.57215,10.158 30.61322,12.15723 27.33058,6.04356 -2.64686,-1.2403 26.58558,5.53503 5.22124,1.21014 10.40886,2.56101 15.61329,3.84152 23.31131,6.33336 45.99523,15.02948 67.50506,26.03869 13.94419,7.13694 17.53329,9.73221 30.66961,17.88937 22.25607,14.63707 42.52415,31.97832 61.87029,50.21946 38.6137,36.35219 90.02346,-18.25583 51.40976,-54.60803 v 0 c -23.06404,-21.68443 -47.29142,-42.21642 -73.91703,-59.45149 -16.37635,-10.03962 -20.57212,-13.06415 -37.93858,-21.83554 -26.07411,-13.16941 -53.53607,-23.55122 -81.7475,-31.09695 -17.76943,-4.33931 -15.90308,-4.0558 -32.7683,-7.56319 -3.64147,-0.7573 -7.29139,-1.47424 -10.94549,-2.168 -1.52908,-0.2903 -5.31953,-2.16553 -4.60288,-0.78396 1.34077,2.58474 4.62987,3.53249 6.9448,5.29874 3.39553,7.98069 6.79106,15.96137 10.18659,23.94206 -0.52307,3.14517 -1.01831,6.2951 -1.56922,9.43551 -0.0452,0.25746 -0.0331,-0.53507 0.0512,-0.78249 0.51965,-1.52476 1.13308,-3.01659 1.75055,-4.50442 4.29344,-10.34525 9.02653,-20.50835 13.0845,-30.95299 15.41468,-38.71683 30.19035,-77.77693 41.6419,-117.87585 1.61553,-6.43786 3.34247,-12.84879 4.84659,-19.31359 1.33862,-5.75353 4.53305,-21.74409 5.75533,-28.23981 1.55816,-8.28072 2.2871,-11.81286 3.00408,-19.84855 0.14759,-1.65415 0.1357,-3.31867 0.20355,-4.978 0,-53.03301 -75,-53.03301 -75,0 z"/>
<path d="m 529.86967,630.72488 c -0.16022,1.12195 -0.25744,2.25471 -0.48066,3.36585 -3.70916,18.46336 -9.86359,36.66922 -17.44127,53.87329 -3.47369,7.88654 -7.42937,15.55187 -11.14406,23.3278 -24.83305,46.38335 -56.28161,89.26097 -95.59432,124.45186 -6.924,6.19804 -14.3958,11.75546 -21.5937,17.63319 -40.91433,33.74193 6.80396,91.60353 47.71829,57.8616 v 0 c 8.77612,-7.29599 17.87367,-14.2218 26.32834,-21.88798 45.649,-41.39169 82.26389,-91.59671 110.92722,-145.96378 4.39916,-9.36087 9.09517,-18.58789 13.19747,-28.0826 9.89896,-22.91103 17.83866,-47.22344 22.01939,-71.88299 0.42214,-2.48995 0.58985,-5.0164 0.88478,-7.5246 3.6569,-52.90678 -71.16458,-58.07842 -74.82148,-5.17164 z"/>
<path d="m 180.45296,704.99284 c 3.26341,-1.05178 3.82237,-1.26782 7.98436,-2.32414 23.41418,-5.94256 47.21674,-10.485 70.86103,-15.38163 59.62943,-12.232 120.24703,-18.87517 180.94583,-22.80476 14.64298,-0.94797 29.30488,-1.57667 43.95732,-2.36501 57.47322,-2.35501 115.11794,-3.71078 172.57185,-0.007 32.28517,2.08102 39.97693,3.59481 71.46632,7.7139 40.62434,6.78531 21.19101,3.2132 58.32691,10.56871 52.02883,10.2714 66.55477,-63.30847 14.52595,-73.57987 v 0 c -40.2392,-7.91968 -19.18197,-4.07758 -63.2009,-11.36518 -34.54421,-4.45014 -42.50147,-6.02724 -77.84463,-8.26608 -59.89338,-3.79397 -119.97984,-2.44128 -179.89066,0.0451 -15.20786,0.82454 -30.42569,1.48221 -45.62358,2.47363 -63.89099,4.16785 -127.6823,11.2652 -190.44602,24.14579 -19.09487,3.95564 -28.02435,5.74858 -46.42827,9.75774 -9.81603,2.13836 -19.93177,4.35555 -29.67528,6.9081 -6.27955,1.64507 -7.52374,2.11853 -12.70577,3.83274 -49.95594,17.8018 -24.7804,88.45017 25.17554,70.64837 z"/>
</svg>
