<?xml version="1.0" ?>
<svg xmlns="http://www.w3.org/2000/svg" width="1000" height="1000">
<path d="m 180.76384,268.702 c 3.38721,23.36047 1.30058,47.12827 0.11339,70.57052 -2.43817,46.51216 -6.54172,92.92766 -13.05048,139.05331 -3.93917,27.91575 -6.94219,44.3488 -11.65249,71.95046 -7.45266,41.98128 -15.81528,83.79229 -23.97547,125.63952 -1.57785,9.25664 -5.58834,25.00879 -2.25374,33.82458 2.88295,7.62175 6.69649,15.11863 12.02331,21.28527 3.76935,4.36362 9.67011,6.28377 14.50517,9.42565 3.25231,1.195 6.48181,2.45402 9.75694,3.58499 11.88113,4.1028 7.18918,1.90421 19.38306,6.61966 14.57384,5.6358 28.62121,12.40569 42.70401,19.14562 23.67973,11.82465 46.98249,24.42526 69.79673,37.84661 3.64817,2.14617 27.1858,16.38449 31.08186,18.73894 11.94883,7.27065 24.11379,14.17202 36.30087,21.03154 46.21981,26.00441 82.99559,-39.36027 36.77578,-65.36468 v 0 c -11.51193,-6.47409 -23.00312,-12.98762 -34.28637,-19.85653 -5.47997,-3.31154 -27.53669,-16.65952 -32.46113,-19.55248 -24.47304,-14.37716 -49.46789,-27.87719 -74.87984,-40.51841 -23.43337,-11.175 -47.07024,-22.62102 -72.19326,-29.516 10.02391,8.38259 9.80491,6.50224 15.18944,23.20808 0.79729,2.47362 -0.02,5.19785 -0.0147,7.79677 8.4e-4,0.41658 -0.0263,-0.8364 0.028,-1.24943 0.4512,-3.43205 1.59155,-9.09994 2.15752,-12.09619 8.27287,-42.4288 16.75173,-84.82081 24.29491,-127.3878 4.92669,-28.91999 7.99387,-45.69526 12.10933,-75.00921 6.74641,-48.05401 11.02988,-96.4053 13.56716,-144.85773 1.48695,-30.13756 4.13599,-61.13073 -1.96957,-90.9714 -0.37522,-1.83385 -0.92056,-3.62874 -1.38084,-5.44311 -15.62809,-50.67803 -87.29765,-28.57658 -71.66955,22.10145 z"/>
<path d="m 335.09499,422.83897 c -1.53782,29.28804 -8.04929,58.05588 -13.82455,86.7216 -11.19495,57.31688 -24.25259,114.48288 -43.2982,169.76705 -4.08236,11.84996 -8.69744,23.50965 -13.04616,35.26448 -12.76273,31.39953 -27.19613,62.21141 -45.06704,91.06563 -10.61275,17.13526 -17.42981,25.54173 -29.22356,41.23619 -31.76393,42.46826 28.29525,87.38924 60.05918,44.92099 v 0 c 14.34416,-19.25513 21.30046,-27.77791 34.29838,-48.97436 19.90323,-32.45734 36.08697,-67.02433 50.29975,-102.29605 4.71228,-12.81295 9.71151,-25.52398 14.13685,-38.43884 19.84476,-57.9147 33.64984,-117.72625 45.36583,-177.74405 6.54865,-32.55612 13.71996,-65.24198 15.23932,-98.51835 2.12436,-52.99044 -72.81545,-55.99473 -74.9398,-3.00429 z"/>
<path d="m 109.56601,582.35944 c 18.45529,-15.27318 38.59775,-28.56937 59.26734,-40.64211 9.00962,-5.26237 18.23074,-10.15396 27.34612,-15.23094 48.10222,-25.14719 97.85433,-47.16765 148.84396,-65.78538 13.03687,-4.76013 26.23989,-9.05221 39.35984,-13.57832 50.12395,-17.32309 25.6254,-88.20906 -24.49855,-70.88597 v 0 c -13.94756,4.82856 -27.98367,9.40855 -41.84268,14.48568 -54.28853,19.88815 -107.25985,43.39305 -158.43817,70.28707 -10.09794,5.65564 -20.31307,11.10696 -30.29383,16.96691 -23.00667,13.50779 -45.392515,28.41094 -66.016488,45.35883 -41.736431,32.71957 4.53603,91.7438 46.272458,59.02423 z"/>
<path d="m 554.44299,171.83615 c 12.35057,4.88857 24.94574,9.19285 37.21797,14.27803 3.56215,1.47603 7.06531,3.09056 10.59797,4.63585 48.6393,21.13572 78.52973,-47.65063 29.89043,-68.78636 v 0 c -4.427,-1.91351 -8.82362,-3.8989 -13.28101,-5.74053 -12.08102,-4.99144 -24.467,-9.2466 -36.62463,-14.04415 -49.25505,-19.658075 -77.05577,49.99908 -27.80073,69.65716 z"/>
<path d="m 466.7067,322.74637 c 2.48359,-0.68129 4.98645,-1.29586 7.45077,-2.04388 12.5485,-3.809 24.82235,-8.50756 37.28498,-12.58031 18.18423,-5.94255 18.40222,-5.80342 37.48503,-11.26113 34.88975,-9.14419 70.28926,-16.87252 106.14174,-21.12415 5.99223,-0.7106 12.01102,-1.17583 18.01653,-1.76374 19.72806,-1.38465 39.75546,-2.724 59.36244,0.60733 2.07827,0.53016 4.29217,0.83551 6.26507,1.74111 0.25224,0.11579 -0.56106,-0.0725 -0.80887,-0.19747 -1.1305,-0.5701 -2.2254,-1.20822 -3.33809,-1.81234 -18.60491,-16.4753 0.70314,1.56629 -10.0806,-10.54834 -0.14367,-0.1614 -0.27299,0.37817 -0.25988,0.59385 0.0981,1.61542 0.46174,3.20597 0.58875,4.81938 0.66696,8.4727 0.40168,10.28206 0.29817,19.60146 -0.28843,5.03864 -0.48868,10.08311 -0.86528,15.11593 -0.94332,12.60646 -2.4733,26.53585 -3.86602,39.03503 -1.44602,12.9776 -3.70516,32.69774 -5.56608,45.58293 -1.07103,7.41599 -2.37265,14.79684 -3.55898,22.19525 -3.45092,19.64684 -8.15092,39.09161 -14.60196,57.97879 -3.28237,9.61003 -7.15258,19.9676 -12.41891,28.75997 -2.2244,3.71373 -5.06271,7.02338 -7.59406,10.53507 -29.72633,43.91862 32.38398,85.958 62.11031,42.03938 v 0 c 4.3191,-6.60939 9.07374,-12.95381 12.9573,-19.82815 6.76077,-11.96733 12.25806,-26.42911 16.6211,-39.42486 7.47074,-22.25238 12.95526,-45.12975 16.98916,-68.24154 1.29359,-8.14224 2.70617,-16.26645 3.88076,-24.4267 1.898,-13.18613 4.27512,-33.85147 5.75445,-47.17926 1.50505,-13.55951 3.22705,-29.32341 4.18406,-42.98624 0.44268,-6.31995 0.6493,-12.65423 0.97395,-18.98135 -0.0206,-5.67853 0.16356,-11.36149 -0.0617,-17.03558 -0.34373,-8.65926 -1.33471,-18.38056 -3.35858,-26.88855 -1.83795,-7.72642 -4.6547,-15.94626 -9.48189,-22.39124 -2.78451,-3.71772 -6.54246,-6.59515 -9.81369,-9.89272 -2.10426,-1.29392 -4.1521,-2.68444 -6.3128,-3.88175 -8.28206,-4.58933 -17.86318,-6.437 -27.00351,-8.37451 -8.34354,-1.2536 -9.88648,-1.6421 -18.63853,-2.25957 -19.91259,-1.40487 -39.90879,-0.47637 -59.7785,1.11288 -6.96363,0.70191 -13.94245,1.26671 -20.8909,2.10573 -39.35626,4.75229 -78.22727,13.19569 -116.51877,23.31963 -7.28891,2.09519 -14.60537,4.09685 -21.86675,6.28559 -18.62316,5.61343 -36.89466,12.26607 -55.36136,18.35171 -51.86088,11.08823 -36.17976,84.43059 15.68112,73.34236 z"/>
<path d="m 542.09012,427.07133 c 21.99523,-6.19827 44.79608,-8.98213 67.42323,-11.75204 30.61323,-3.58702 61.44662,-2.8323 92.06985,2.1e-4 3.10016,0.3559 6.20033,0.71179 9.30049,1.06769 52.69312,5.99457 61.17073,-68.52476 8.47761,-74.51933 v 0 c -3.66194,-0.41339 -7.32388,-0.82677 -10.98581,-1.24016 -4.66198,-0.41789 -9.31765,-0.91344 -13.98593,-1.25368 -31.32256,-2.28288 -62.82289,-1.99774 -94.0488,1.50829 -26.79696,3.32152 -53.7592,6.78762 -79.75763,14.33884 -50.80575,15.20773 -29.29876,87.05792 21.50699,71.85018 z"/>
<path d="m 530.03753,544.77902 c 14.16859,-4.59189 28.96269,-6.64764 43.66078,-8.70466 31.55584,-3.97154 63.27641,-6.6266 95.03599,-8.25533 17.54307,-0.69471 35.10198,-0.74507 52.6555,-0.63008 53.0319,0.34283 53.51673,-74.6556 0.48483,-74.99844 v 0 c -19.00733,-0.12134 -38.02066,-0.0544 -57.01561,0.72871 -33.97271,1.77188 -67.90739,4.58103 -101.65711,8.89326 -17.64392,2.5146 -35.40917,5.07578 -52.44855,10.48812 -51.24998,13.63597 -31.96581,86.11439 19.28417,72.47842 z"/>
<path d="m 460.97787,323.2778 c 0.46541,23.55133 0.44217,47.1104 0.40147,70.66531 -0.19358,52.6028 -0.50726,105.20464 -0.70727,157.80744 -0.39795,56.3305 -1.09252,112.65678 -1.22755,168.98895 -0.26395,37.91273 -0.26836,75.82895 0.99384,113.72447 0.42926,13.98849 1.22225,27.95904 2.05148,41.92791 0.68736,6.70266 0.95667,17.76648 5.99226,22.12066 9.67269,8.36381 20.92779,15.77003 33.27826,19.08366 10.55444,2.83177 22.8476,-6.74145 30.92691,-11.91974 3.17614,-2.7102 6.42138,-5.34147 9.52844,-8.13062 12.43641,-11.16391 23.88464,-23.43093 35.48447,-35.44146 22.16035,-22.94494 6.19767,-6.67235 29.18511,-29.90087 20.16607,-19.29938 10.21161,-9.90716 29.84819,-28.19276 38.80449,-36.14846 -12.31715,-91.0263 -51.12165,-54.87784 v 0 c -20.89156,19.4686 -10.20155,9.3696 -32.04447,30.32405 -5.246,5.30455 -10.52676,10.57494 -15.73799,15.91365 -12.37291,12.67558 -24.40171,25.70975 -37.00877,38.15657 -2.74071,2.70587 -8.62499,8.16161 -12.05912,11.35845 4.53187,-0.92982 13.69267,-2.84694 15.18543,-2.25755 10.96218,4.32825 21.12932,11.03209 29.82904,18.98306 3.02871,2.76805 2.55003,7.80023 3.76465,11.7194 0.0358,0.11569 -0.004,0.48286 -0.0202,0.36278 -0.0765,-0.57951 -0.10826,-1.16405 -0.16239,-1.74608 -0.79106,-13.32451 -1.55576,-26.65008 -1.96169,-39.99355 -1.24624,-36.99887 -1.19448,-74.01916 -0.95203,-111.03483 0.13432,-56.2969 0.83303,-112.5879 1.22722,-168.88317 0.20018,-52.65535 0.51458,-105.30975 0.7077,-157.96511 0.0409,-24.43208 0.0702,-48.86909 -0.44318,-73.29697 -1.77073,-53.00344 -76.72891,-50.49925 -74.95818,2.50419 z"/>
<path d="m 736.94614,589.00851 c -20.46415,18.16918 -41.4972,35.70656 -62.4233,53.34249 -40.55201,34.17653 7.7809,91.52572 48.3329,57.3492 v 0 c 14.82324,-12.49292 29.64715,-24.98363 44.37233,-37.59219 2.84746,-2.43817 14.49898,-12.44069 18.03128,-15.617 1.58692,-1.42699 3.10689,-2.92673 4.66034,-4.39009 37.54199,-37.45796 -15.43156,-90.55036 -52.97355,-53.09241 z"/>
<path d="m 587.15647,657.8241 c 1.56481,1.99627 3.06626,4.04388 4.69445,5.98881 6.6668,7.96374 13.97476,15.43133 20.97622,23.09425 10.21417,11.17916 9.08111,10.00053 19.43322,21.72995 21.4125,24.65903 41.48004,50.43636 61.36896,76.32609 13.3713,17.69005 27.32442,34.93752 42.90482,50.73242 7.33192,7.18191 15.12463,13.95224 23.92236,19.29912 6.67256,4.05528 9.02957,4.91882 16.11142,8.2261 23.34565,9.51741 47.3954,17.24965 71.40799,24.89127 19.26997,6.23856 38.92966,11.07896 58.57975,15.92674 51.49693,12.67147 69.4171,-60.15618 17.92017,-72.82766 v 0 c -18.04092,-4.42647 -36.08974,-8.85022 -53.77725,-14.57411 -21.15734,-6.71877 -42.30775,-13.58317 -62.99559,-21.64826 -1.65487,-0.71726 -4.64871,-1.95474 -6.39741,-2.89363 -4.3863,-2.35505 -7.96567,-5.85268 -11.55122,-9.24471 -13.46544,-13.42666 -25.07435,-28.53191 -36.65093,-43.58005 -20.93019,-27.24073 -42.06677,-54.34867 -64.62272,-80.27476 -12.95128,-14.66141 -26.1094,-29.13431 -39.40137,-43.48654 -29.9212,-43.78609 -91.84408,-1.47112 -61.92287,42.31497 z"/>
</svg>
