<?xml version="1.0" ?>
<svg xmlns="http://www.w3.org/2000/svg" viewBox="0 0 1000 1000">
<path d="m 167.86296,227.72757 c 1.97184,20.67495 3.47517,41.39616 4.10171,62.1597 0.25146,8.3335 0.32118,16.6715 0.48176,25.00725 0.25978,43.07349 -2.0858,86.1654 -7.77246,128.87528 -3.61464,27.14784 -6.15304,38.90137 -11.12651,65.60469 -8.11841,41.46024 -18.49338,82.44177 -31.01375,122.78281 -1.98004,6.7101 -4.56606,13.23234 -6.55737,19.93854 -0.53041,1.78626 -1.14871,3.55852 -1.46332,5.39512 -0.5847,3.41337 -1.95755,6.93106 -1.22803,10.31644 1.89431,8.79054 5.95754,16.96925 8.93631,25.45388 7.36942,4.60914 14.25757,10.09661 22.10827,13.82742 2.09885,0.99742 16.36049,2.49237 19.51599,2.92197 8.17915,1.11354 14.74357,2.15793 22.92874,3.91895 5.03452,1.08317 10.02303,2.3701 15.03454,3.55515 33.17093,9.08558 65.27374,21.83918 96.17106,36.89436 6.36731,3.10257 12.63076,6.41391 18.94615,9.62087 14.67434,7.5028 28.70398,16.12573 42.60318,24.94978 44.81158,28.36235 84.92199,-35.01079 40.11042,-63.37314 v 0 c -15.93708,-10.06078 -32.00751,-19.91734 -48.81916,-28.4808 -7.05141,-3.56482 -14.04399,-7.24848 -21.15424,-10.69446 -35.57108,-17.23954 -72.55287,-31.75616 -110.77446,-41.94518 -6.10179,-1.41459 -12.17614,-2.95323 -18.30537,-4.24378 -10.05749,-2.11766 -17.7019,-3.29226 -27.68032,-4.65245 -2.61583,-0.35657 -5.22759,-0.78712 -7.86227,-0.95507 -0.17436,-0.0111 0.15625,0.31256 0.23438,0.46884 5.36493,4.02605 10.72986,8.0521 16.09479,12.07815 7.49122,24.84103 8.27508,14.99475 5.7708,29.0412 -0.0559,0.31333 0.0769,-0.63494 0.16793,-0.93993 2.09532,-7.02156 4.80508,-13.85227 6.85851,-20.88757 13.36145,-43.14426 24.47611,-86.95985 33.11733,-131.3018 5.38785,-29.11127 8.01575,-41.24893 11.91891,-70.93309 6.04531,-45.97564 8.54372,-92.35574 8.22541,-138.71335 -0.17968,-8.93706 -0.26198,-17.8766 -0.53903,-26.81117 -0.65827,-21.22904 -2.11525,-42.43063 -4.17661,-63.56739 -3.31546,-52.92927 -78.16876,-48.24049 -74.85329,4.68878 z"/>
<path d="m 331.42282,406.13972 c 0.45245,25.75785 -6.55294,50.92124 -12.28998,75.80095 -15.52424,60.14923 -34.33497,119.57161 -58.14829,176.98615 -5.09422,12.28232 -10.65833,24.36444 -15.98749,36.54666 -15.74466,32.2004 -17.73651,37.63737 -35.3032,68.31672 -5.78723,10.10712 -11.99871,19.96532 -17.99807,29.94798 -27.27705,45.48036 37.04189,84.05593 64.31893,38.57557 v 0 c 6.50769,-10.87094 13.24808,-21.60591 19.52305,-32.61283 18.9804,-33.29348 21.22924,-39.37842 38.19274,-74.21556 5.69365,-13.06233 11.6359,-26.01909 17.08096,-39.18699 25.16247,-60.85096 45.07653,-123.80966 61.41615,-187.56029 7.38794,-32.25015 15.79955,-64.98293 13.9733,-98.36338 -4.07648,-52.87611 -78.85459,-47.11109 -74.7781,5.76502 z"/>
<path d="m 88.336332,566.99831 c 27.098598,-15.81125 54.285238,-31.47932 82.107368,-45.99682 10.11111,-5.27595 20.32882,-10.34505 30.49324,-15.51757 62.27728,-30.67357 126.24362,-57.88047 190.98906,-82.89474 12.82403,-4.95454 25.73537,-9.68003 38.60306,-14.52004 49.6352,-18.67746 23.22129,-88.87222 -26.41391,-70.19477 v 0 c -13.27408,4.99699 -26.59288,9.87679 -39.82225,14.99098 -66.92435,25.8715 -133.03049,54.03634 -197.38879,85.7847 -10.64864,5.42579 -21.35273,10.74408 -31.9459,16.27739 -27.89247,14.56954 -55.204704,30.20358 -82.342,46.12337 -46.6319258,25.25794 -10.911804,91.20544 35.720122,65.9475 z"/>
<path d="m 500.74012,195.05832 c 0.18312,2.05359 0.30037,4.11412 0.54938,6.16077 1.59549,13.11381 4.36514,26.06709 7.16795,38.96344 2.72383,12.533 5.82024,25.74366 8.70268,38.22285 7.51436,31.77733 14.6652,63.63924 20.41758,95.78624 9.35659,52.20109 83.18009,38.96888 73.8235,-13.23222 v 0 c -5.98979,-33.36609 -13.34809,-66.45323 -21.16574,-99.43583 -5.36464,-23.21755 -11.24282,-46.42568 -14.58062,-70.04059 -2.52815,-52.97271 -77.44288,-49.39737 -74.91473,3.57534 z"/>
<path d="m 593.21973,226.67311 c 0.18448,-0.0222 0.37978,-5.6e-4 0.55345,-0.0667 10.70902,-4.07572 -4.72771,1.09378 13.72794,-5.36777 4.53638,-1.58825 9.09657,-3.11406 13.69691,-4.50627 15.53182,-4.70043 19.20876,-5.29273 35.34708,-9.1021 27.38411,-5.95647 55.41399,-9.485 83.47799,-8.69629 3.47509,0.0977 6.94104,0.40636 10.41155,0.60954 5.7855,0.55182 11.60056,1.20183 17.19892,2.83085 0.73744,0.21458 1.4637,0.46878 2.17999,0.74589 1.29062,0.4993 0.97909,0.42818 0.47385,0.38132 -6.46047,-2.7808 -10.54599,-9.00958 -13.56631,-15.08596 -0.56786,-1.14242 -0.8476,-2.40664 -1.2714,-3.60996 0.004,20.41232 -1.38115,40.79758 -2.52609,61.17003 -1.58545,26.33344 -4.53558,52.65928 -10.48179,78.39605 -3.14177,13.59843 -5.53228,20.64952 -9.55615,33.83319 -1.57042,4.69632 -3.14084,9.39265 -4.71126,14.08897 -16.77071,50.31147 54.38045,74.02883 71.15116,23.71736 v 0 c 1.77836,-5.34991 3.55673,-10.69982 5.3351,-16.04973 4.96176,-16.46474 7.44433,-23.7184 11.31856,-40.85037 6.60745,-29.21837 10.03493,-59.05793 11.8263,-88.92866 0.57883,-10.30714 1.3706,-23.90592 1.85354,-34.34271 0.54644,-11.80913 1.20251,-23.76343 0.49892,-35.58644 -0.16858,-2.83288 -0.56515,-5.64758 -0.84772,-8.47137 -0.7761,-3.20131 -1.15987,-6.52407 -2.3283,-9.60392 -4.779,-12.59695 -12.78466,-20.37321 -24.35303,-26.34497 -4.83738,-2.18814 -5.78284,-2.76774 -10.9685,-4.4604 -12.03733,-3.92914 -24.63268,-5.71877 -37.21785,-6.722 -4.79016,-0.2389 -9.57553,-0.61139 -14.37048,-0.71669 -33.92422,-0.74497 -67.7965,3.44366 -100.88778,10.73325 -7.20947,1.72711 -14.45644,3.30462 -21.62841,5.18135 -12.22346,3.19859 -25.59532,7.23045 -37.51308,11.59717 -9.67819,3.54615 -18.08538,7.02958 -26.96954,12.16445 -2.61241,1.50993 -4.97865,3.41049 -7.46797,5.11573 -40.9748,33.66846 6.6396,91.61559 47.6144,57.94712 z"/>
<path d="m 591.83171,391.97435 c 24.59438,-4.84274 49.40607,-8.33982 74.26779,-11.46191 22.51349,-2.45718 45.22927,-4.55484 67.88678,-2.93723 3.64369,0.26014 7.26292,0.79162 10.89438,1.18743 52.76051,5.36919 60.3537,-69.24544 7.59318,-74.61464 v 0 c -5.24368,-0.50737 -10.47308,-1.19431 -15.73105,-1.52212 -26.71309,-1.66544 -53.47447,0.46788 -80.01153,3.47395 -26.12639,3.29694 -52.20566,6.95897 -78.05528,12.03736 -52.21076,9.3025 -39.05503,83.13967 13.15573,73.83716 z"/>
<path d="m 461.20567,413.93721 c 3.54114,15.70158 4.79218,31.81333 5.90783,47.83369 1.08938,19.8025 1.48671,39.64108 3.2177,59.40341 1.56059,16.6293 6.65168,30.26147 21.32681,40.07795 3.20445,2.14351 7.01928,3.19096 10.52892,4.78644 9.55915,2.6168 18.36191,2.10928 27.77187,-0.37665 4.98045,-1.31574 9.95158,-3.27728 14.90676,-4.76113 22.97197,-6.28878 46.74281,-9.0173 70.34467,-11.75552 27.15939,-2.87546 54.45427,-3.99145 81.74473,-4.59347 10.35324,0.20337 20.77161,-0.7441 31.1213,-0.16696 -15.66786,-1.0654 -22.46692,-8.13384 -30.17373,-21.25898 -1.44847,-2.46682 -1.34723,-5.56497 -2.20847,-8.2929 -0.0459,-0.14529 -0.27619,0.19359 -0.30113,0.3439 -0.29017,1.7493 -0.42139,3.52129 -0.63208,5.28193 -2.73362,25.53352 -7.00817,50.84825 -11.71653,76.07985 -4.16894,21.45905 -2.10733,10.8829 -6.18372,31.72867 -10.17773,52.04723 63.42817,66.44071 73.60589,14.39348 v 0 c 4.13133,-21.12713 2.02782,-10.33289 6.30868,-32.38308 5.02413,-26.99793 9.58163,-54.08535 12.51197,-81.40277 1.06672,-9.80865 3.0767,-23.01336 -1.21881,-32.23984 -3.05767,-6.56769 -7.00809,-13.01907 -12.41974,-17.8355 -8.98832,-7.99968 -15.05759,-8.00877 -24.8004,-9.36352 -11.84792,-0.36814 -23.70909,0.0456 -35.55822,0.13421 -29.63396,0.66209 -59.27162,1.91216 -88.75878,5.07884 -28.02487,3.27742 -56.2156,6.70274 -83.41847,14.47553 -2.47683,0.75691 -4.96213,1.48667 -7.4305,2.27075 -1.5314,0.48645 -3.05166,1.00791 -4.56765,1.54046 -0.27086,0.0952 -1.07761,0.34057 -0.79052,0.34182 0.8639,0.004 1.70714,-0.2939 2.57012,-0.33404 5.62821,-0.26176 5.48417,0.27046 12.25493,1.69647 2.50746,1.27317 5.26182,2.14674 7.52238,3.81952 7.12791,5.27454 11.07423,10.85625 12.9393,19.36744 0.0193,0.0881 -0.11073,-0.14234 -0.1661,-0.21351 -0.13642,-1.03118 -0.27283,-2.06236 -0.40925,-3.09354 -1.75867,-19.31153 -1.88398,-38.72483 -3.11098,-58.07107 -1.49636,-20.67015 -3.25402,-41.45465 -8.19869,-61.63871 -13.52471,-51.27945 -86.0448,-32.15262 -72.52009,19.12683 z"/>
<path d="m 471.0463,713.5753 c 22.07223,-9.91666 46.17009,-14.42313 69.75524,-19.12572 47.31329,-8.08404 95.33742,-11.71962 143.307,-12.46257 10.1831,-0.15772 20.36863,-0.0325 30.55294,-0.0488 49.06738,0.29488 97.90564,5.14391 146.69264,9.86071 19.8765,1.84161 10.42674,1.02028 28.34662,2.49451 52.85515,4.33973 58.99245,-70.40874 6.1373,-74.74847 v 0 c -17.03946,-1.39611 -7.94957,-0.60895 -27.26648,-2.39796 -51.2366,-4.95361 -102.53341,-9.9621 -154.06489,-10.20863 -10.87453,0.0272 -21.75051,-0.0978 -32.6236,0.0816 -52.189,0.86119 -104.42875,4.93059 -155.87497,13.903 -8.29022,1.681 -16.61637,3.19359 -24.87065,5.04299 -21.70591,4.8633 -43.40992,10.9792 -63.57217,20.49728 -47.45536,23.67465 -13.97434,90.78666 33.48102,67.112 z"/>
<path d="m 543.10725,726.40774 c -0.23801,0.13906 -0.54971,0.19585 -0.71401,0.41718 -11.96173,16.11356 5.7003,-5.66432 -12.47396,17.30504 -13.20931,16.69446 -27.79713,32.20873 -42.22665,47.83343 -6.019,6.17082 -12.03799,12.34164 -18.05698,18.51246 -37.00979,37.98389 16.70754,90.32363 53.71733,52.33974 v 0 c 6.48575,-6.66305 12.9715,-13.3261 19.45725,-19.98915 16.26744,-17.64065 32.65172,-35.18253 47.4264,-54.12276 5.25363,-6.73481 13.38926,-17.98309 17.87447,-25.73789 1.99792,-3.45435 3.59543,-7.12529 5.39314,-10.68794 18.29294,-49.77819 -52.10406,-75.64831 -70.39699,-25.87011 z"/>
<path d="m 738.45243,786.61177 c 12.01276,7.17316 23.18989,15.70744 33.31368,25.36569 3.25892,3.10906 6.3478,6.3916 9.5217,9.58739 14.09689,14.95921 26.87473,31.07435 39.44619,47.31333 32.47347,41.92819 91.7689,-3.99623 59.29542,-45.92443 v 0 c -14.53288,-18.75638 -29.355,-37.3324 -45.77809,-54.4913 -4.239,-4.19771 -8.3589,-8.51919 -12.71698,-12.59312 -14.41742,-13.47738 -30.31393,-25.39415 -47.42244,-35.23788 -46.65513,-25.21505 -82.3146,40.76526 -35.65948,65.98032 z"/>
</svg>
