<?xml version="1.0" ?>
<svg xmlns="http://www.w3.org/2000/svg" width="1000" height="1000">
<path d="m 174.84009,266.64667 c 4.70918,25.88912 3.87313,52.50464 3.67676,78.6961 -1.60447,53.9227 -3.90338,107.94638 -10.97465,161.47556 -1.35257,10.23887 -3.07021,20.42619 -4.60531,30.63928 -6.8099,40.02397 -16.56701,79.47414 -27.53562,118.53977 -3.60083,13.30036 -12.0151,31.69378 -5.82942,45.2892 3.9927,8.7755 11.91749,15.15842 17.87623,22.73763 4.95291,2.09115 9.78685,4.49011 14.85872,6.27346 3.55016,1.24829 7.29315,1.85943 10.93772,2.79697 3.86494,0.99422 7.74317,1.93901 11.59079,2.9983 10.78094,2.96811 20.25713,5.85816 30.90109,9.53416 6.28155,2.1694 12.49194,4.53961 18.7379,6.80941 33.84357,13.06356 66.80538,28.54046 98.01647,47.06834 5.24196,3.11179 10.35748,6.43182 15.53622,9.64773 11.16778,7.11015 21.99978,14.72084 32.81838,22.34444 43.35816,30.53801 86.54542,-30.7797 43.18726,-61.3177 v 0 c -12.03547,-8.47286 -24.09305,-16.9211 -36.53227,-24.79863 -5.98693,-3.69538 -11.90268,-7.50864 -17.96078,-11.08616 -34.89564,-20.60707 -71.70484,-37.87176 -109.52682,-52.37601 -7.05576,-2.54748 -14.07129,-5.20929 -21.16729,-7.64246 -12.33567,-4.2298 -22.78302,-7.3755 -35.23814,-10.79587 -4.08241,-1.12109 -8.19016,-2.14844 -12.29681,-3.17717 -2.068,-0.51804 -4.41208,-2.58279 -6.22616,-1.46291 -1.39447,0.86086 2.68448,1.88046 4.02672,2.82069 4.21207,6.41232 9.97006,12.04315 12.63622,19.23696 1.7579,4.74313 0.14835,10.11646 0.11743,15.17478 -6.9e-4,0.113 -0.2397,0.37422 -0.21181,0.26471 1.72279,-6.76475 4.2817,-13.30249 5.96021,-20.08037 11.79718,-42.07966 22.26282,-84.57952 29.49863,-127.70477 1.64787,-11.06743 3.49069,-22.10759 4.94362,-33.20229 7.35923,-56.19574 9.84667,-112.89741 11.45977,-169.5029 0.19953,-33.17094 1.1178,-67.33804 -6.57299,-99.84709 -14.59952,-50.98386 -86.70159,-30.33702 -72.10207,20.64684 z"/>
<path d="m 327.17563,423.61887 c 0.8625,17.19769 -0.66272,34.44887 -3.32386,51.43447 -1.13181,7.22416 -2.54537,14.40135 -3.81806,21.60203 -9.78951,52.44663 -24.2868,103.94806 -42.03492,154.23968 -4.18265,11.85209 -8.71037,23.57955 -13.06556,35.36933 -13.21241,33.63548 -28.09548,66.64842 -45.12789,98.53234 -10.97571,20.54604 -20.73779,36.27334 -32.68715,56.19613 -27.25835,45.49157 37.07644,84.0407 64.33479,38.54913 v 0 c 13.40637,-22.39457 22.9353,-37.69845 35.28729,-60.91162 18.32616,-34.44049 34.34617,-70.08764 48.55758,-106.40792 4.60118,-12.4883 9.38776,-24.90985 13.80356,-37.4649 18.94462,-53.86368 34.38083,-109.0218 44.81091,-165.18123 1.44419,-8.33374 3.07137,-16.63783 4.33257,-25.00122 3.48076,-23.08184 5.29374,-46.60015 3.3941,-69.91212 -6.33278,-52.65355 -80.79614,-43.69764 -74.46336,8.9559 z"/>
<path d="m 112.92498,572.09422 c -0.10835,0.23711 -0.53013,0.87229 -0.32507,0.71132 1.39793,-1.09729 2.64181,-2.37778 3.96271,-3.56667 2.28214,-1.89866 4.50742,-3.86783 6.84642,-5.69599 13.39688,-10.47101 27.62681,-19.63177 41.9087,-28.82697 41.74063,-24.81376 85.92808,-45.41319 130.87279,-63.71194 10.32829,-4.20506 20.76834,-8.13025 31.15251,-12.19538 29.12829,-11.06829 58.74215,-20.78387 88.66708,-29.45096 8.75986,-2.53711 17.57128,-4.8927 26.35692,-7.33905 51.08537,-14.24025 30.94662,-86.48588 -20.13876,-72.24563 v 0 c -9.27404,2.58786 -18.57618,5.07705 -27.82212,7.76359 -31.8705,9.2604 -63.41023,19.63416 -94.43255,31.44431 -11.0171,4.32324 -22.09335,8.49864 -33.05128,12.96971 -48.9204,19.96057 -96.97317,42.51462 -142.28734,69.7581 -24.656438,15.96041 -49.957239,31.93595 -70.223964,53.4695 -33.174665,41.37561 25.339292,88.29167 58.513954,46.91606 z"/>
<path d="m 729.83221,82.678189 c -1.78219,0.792404 -3.58904,1.531555 -5.34659,2.377212 -11.31828,5.44586 -22.39682,11.388919 -33.70018,16.871469 -11.65533,5.65327 -28.40997,13.56281 -39.81876,18.97302 -40.85953,19.35961 -82.32969,37.37108 -123.96437,54.98539 -48.84151,20.66416 -19.61798,89.73648 29.22352,69.07232 v 0 c 42.61434,-18.03026 85.05673,-36.47529 126.87758,-56.29171 24.97281,-11.84329 49.9676,-23.65288 74.52944,-36.33051 49.25508,-19.65802 21.45444,-89.315212 -27.80064,-69.657191 z"/>
<path d="m 488.40273,199.34444 c -3.79835,23.9804 -5.21035,48.23834 -6.37098,72.46134 -1.72479,42.5929 0.69239,85.18309 3.77765,127.65072 2.78182,33.93683 6.39286,67.80246 10.06959,101.6526 1.60062,14.77086 3.08297,29.55949 3.95024,44.39366 1.16217,25.59418 9.69596,27.39509 57.17833,34.47076 6.04578,0.90092 17.81256,-19.90034 21.64731,-25.82833 2.74948,-4.25031 5.58914,-8.44159 8.38371,-12.66238 12.29805,-18.83921 26.63995,-36.18136 40.35723,-53.96583 5.47803,-7.10228 10.82137,-14.30744 16.23205,-21.46116 31.98004,-42.30575 -27.84934,-87.53236 -59.82937,-45.2266 v 0 c -5.11182,6.76629 -10.1569,13.58351 -15.33544,20.29886 -5.3894,6.98878 -10.99747,13.80748 -16.3669,20.81161 -14.05713,18.33674 -14.96024,20.03728 -27.62529,38.18758 -3.13471,4.74974 -6.31333,9.47079 -9.40412,14.24922 -1.71007,2.64381 -8.13812,7.79294 -4.99736,8.01579 4.1764,0.29633 5.95466,-8.91178 9.95139,-7.66428 19.54576,6.10085 36.73596,18.11868 54.74681,27.85862 0.008,0.005 0.38284,7.70265 -0.0685,-1.5002 -0.9545,-16.0637 -2.50936,-32.08283 -4.25885,-48.07795 -3.58251,-32.96676 -7.09944,-65.94873 -9.82885,-98.99831 -2.88078,-39.4743 -5.20464,-79.0615 -3.66364,-118.65568 1.0025,-21.43567 2.19207,-42.90775 5.50884,-64.13461 8.39719,-52.36399 -65.65667,-64.23942 -74.05386,-11.87543 z"/>
<path d="m 559.64592,395.06698 c 24.14389,-10.17657 49.4863,-17.09889 74.58679,-24.44892 26.9943,-7.73932 54.15856,-14.92452 81.67473,-20.57201 11.98046,-2.45891 19.57421,-3.72738 31.37656,-5.81514 11.05807,-1.81775 22.11904,-3.70373 32.93759,-6.67642 2.83055,-0.77777 5.61184,-1.72485 8.41777,-2.58728 50.58154,-15.93761 28.04236,-87.47071 -22.53919,-71.5331 v 0 c -10.37444,3.42702 -21.11601,5.28583 -31.90273,6.94735 -13.0572,2.31759 -20.8881,3.62402 -34.20913,6.37351 -29.24966,6.03721 -58.13983,13.6461 -86.83866,21.88737 -26.85059,7.8675 -53.93808,15.34871 -79.78631,26.18059 -49.67004,18.5846 -23.38745,88.82864 26.28258,70.24405 z"/>
<path d="m 618.2706,232.81299 c 5.31676,26.85558 14.73316,52.63353 23.84042,78.37298 13.81494,36.721 28.89013,72.97754 45.01403,108.74454 10.60752,23.53026 14.94699,32.28466 25.98656,55.38149 19.16638,40.63811 41.44373,79.6705 65.82507,117.37731 8.59957,12.92926 17.34305,25.7648 26.29526,38.45281 7.29605,10.63568 15.62015,20.25316 32.55349,19.55321 12.71874,-0.52574 23.85878,-9.69668 33.9976,-17.39387 3.34726,-2.54117 15.67828,-30.34862 16.74936,-32.65197 11.86289,-27.36502 24.87467,-54.20551 37.40177,-81.26517 4.94018,-10.67123 9.75213,-21.40136 14.62819,-32.10205 21.98658,-48.26065 -46.26429,-79.35436 -68.25087,-31.09371 v 0 c -4.74628,10.42041 -9.42826,20.87034 -14.23883,31.26122 -12.59659,27.20876 -25.67909,54.19793 -37.61046,81.71245 -2.25508,4.90638 -4.64641,9.7524 -6.76523,14.71914 -0.39489,0.92568 -1.72791,3.19902 -0.76044,2.92184 9.92111,-2.84245 18.6443,-11.67351 28.94232,-10.99609 18.90097,1.24332 33.05678,24.29796 24.62662,12.08508 -8.37828,-11.86429 -16.54726,-23.8763 -24.60823,-35.95789 -22.67403,-34.98567 -43.32698,-71.24386 -61.12181,-108.97364 -10.60544,-22.17442 -14.8478,-30.73354 -25.02873,-53.2968 -15.36524,-34.05289 -29.73089,-68.57184 -42.93916,-103.51794 -8.4212,-23.74966 -17.13426,-47.50337 -21.97598,-72.30417 -13.41468,-51.30835 -85.97564,-32.33711 -72.56095,18.97123 z"/>
<path d="m 440.29265,613.94744 c 7.66177,24.7936 10.76892,50.65433 14.1186,76.29219 4.17558,33.52175 7.71898,67.13308 10.12535,100.83145 1.33538,18.7005 1.69252,27.86164 2.59996,46.24792 0.76285,17.16018 1.19363,34.33655 0.67787,51.50802 -1.49337,53.01198 73.47689,55.12393 74.97026,2.11195 v 0 c 0.51043,-19.11283 0.16578,-38.22855 -0.73985,-57.32801 -0.96679,-19.47549 -1.32285,-28.6734 -2.74779,-48.52948 -2.50868,-34.95741 -6.184,-69.82531 -10.52326,-104.59958 -3.95199,-29.999 -7.85439,-60.20099 -16.97705,-89.16551 -16.00258,-50.56103 -87.50667,-27.92997 -71.50409,22.63105 z"/>
<path d="m 575.67532,654.19114 c 22.08387,-3.88704 44.08606,-8.18809 66.21339,-11.84724 25.66519,-3.96999 51.66104,-6.29177 77.64189,-5.57093 4.52044,0.37196 5.48936,0.30186 9.44694,1.05786 1.54311,0.29477 1.7903,0.33722 2.88682,0.8337 0.14435,0.0654 0.58329,0.22795 0.42568,0.21161 -0.29969,-0.031 -0.57767,-0.17152 -0.8665,-0.25729 -7.66698,-3.15293 -11.31429,-8.50202 -15.61698,-15.42113 -0.54786,-0.881 -0.23434,-2.74626 -1.26731,-2.84265 -0.91834,-0.0857 0.19434,1.83439 0.29151,2.75159 3.38739,29.33196 2.57646,58.9235 1.56034,88.36445 -1.41906,30.14114 -3.71152,60.25967 -7.49631,90.20197 -2.17917,17.23995 -2.86267,20.42658 -5.60333,36.91442 -3.65435,17.6027 -1.71357,9.33416 -5.68875,24.83661 -12.99993,51.41499 59.71185,69.79968 72.71179,18.38468 v 0 c 4.93519,-19.73345 2.57587,-9.41562 6.97086,-30.97777 1.04538,-6.34382 2.17815,-12.67386 3.13614,-19.03146 5.87862,-39.01276 9.08015,-78.38755 10.92635,-117.78161 1.14114,-34.07969 1.93259,-68.34851 -2.38092,-102.26153 -0.98466,-5.86874 -1.79538,-12.96272 -4.36087,-18.41884 -5.50433,-11.7063 -12.05475,-18.2412 -23.3703,-23.53901 -13.00078,-5.28664 -25.84545,-7.54135 -39.91078,-8.00413 -3.72012,-0.0787 -7.43942,-0.23647 -11.16038,-0.23615 -26.96195,0.002 -53.90081,2.74784 -80.5287,6.79325 -21.69741,3.59764 -43.2909,7.72461 -64.9276,11.64577 -52.46296,7.75486 -41.49594,81.94869 10.96702,74.19383 z"/>
<path d="m 544.29074,778.15283 c 18.71294,-1.0839 37.46981,-1.43374 56.21162,-1.56846 16.98006,0.0152 8.67953,-0.0125 24.90161,0.0779 53.0322,0.29382 53.44773,-74.70503 0.41553,-74.99885 v 0 c -16.78693,-0.0924 -8.15869,-0.0645 -25.88473,-0.077 -20.39643,0.16145 -40.8098,0.53277 -61.17235,1.77034 -52.88874,3.90912 -47.36042,78.70509 5.52832,74.79598 z"/>
<path d="m 518.73104,897.89894 c 21.92162,-1.99664 43.85019,-3.7966 65.82088,-5.17956 31.60568,-1.59819 63.28803,-2.32407 94.92121,-1.05174 5.81285,0.2338 11.61729,0.64363 17.42594,0.96544 5.58308,0.61339 11.16615,1.22679 16.74923,1.84018 52.73296,5.63332 60.69968,-68.94235 7.96672,-74.57568 v 0 c -6.87778,-0.71776 -13.75556,-1.43553 -20.63333,-2.1533 -6.52536,-0.35058 -13.04636,-0.79459 -19.57607,-1.05174 -33.85206,-1.33316 -67.75638,-0.55645 -101.57729,1.17574 -21.52687,1.36178 -43.02862,2.98841 -64.49524,5.10767 -52.97855,2.40271 -49.5806,77.3257 3.39795,74.92299 z"/>
</svg>
