<?xml version="1.0" ?>
<svg xmlns="http://www.w3.org/2000/svg" viewBox="0 0 1000 1000">
<path d="m 111.92062,245.75717 c 25.77194,-5.93137 51.93894,-9.91099 78.02547,-14.15949 30.04263,-4.71294 60.06479,-9.67454 90.28934,-13.10826 17.37628,-1.97407 19.82664,-2.00584 36.50753,-3.24885 10.0504,-0.41572 20.20663,-1.21818 30.24761,-0.0603 1.12794,0.13007 2.25077,0.34399 3.34249,0.65595 0.1346,0.0385 0.35106,0.39419 0.21515,0.36066 -1.56842,-0.38706 -3.08319,-0.96592 -4.62478,-1.44888 -10.41587,-8.02958 -13.14152,-7.7819 -16.98756,-22.66135 -1.02019,-3.94688 -0.0775,-8.15824 0.14108,-12.22898 0.058,-1.08116 1.76109,-3.04724 0.68592,-3.1749 -1.26045,-0.14966 -1.56585,1.99864 -2.37818,2.97397 -1.65759,1.99022 -3.3539,3.94787 -5.03085,5.92181 -2.68492,2.93701 -5.32342,5.91712 -8.05474,8.81103 -7.76331,8.22542 -16.94937,17.3969 -24.83199,25.34974 -16.21753,16.36202 -32.45049,32.6974 -48.52071,49.20458 -5.06373,5.2861 -10.12747,10.57219 -15.1912,15.85829 -36.68376,38.29886 17.47901,90.17751 54.16276,51.87866 v 0 c 4.92415,-5.14153 9.84829,-10.28306 14.77244,-15.42459 15.91822,-16.35676 32.00718,-32.53418 48.07152,-48.74702 8.5082,-8.58685 18.72909,-18.79464 27.0488,-27.68694 3.47619,-3.71544 6.82457,-7.54843 10.23686,-11.32265 6.92393,-8.45067 17.96698,-21.20187 20.81188,-31.91019 4.21269,-15.85671 3.69811,-26.15296 -5.61396,-40.55587 -3.25646,-5.03674 -8.88703,-8.05691 -13.33054,-12.08536 -3.66291,-1.64329 -7.2085,-3.57812 -10.98872,-4.92986 -5.37376,-1.92155 -13.62021,-3.16186 -19.2245,-3.68999 -13.4969,-1.27188 -27.08891,-0.60449 -40.58996,0.12388 -18.43474,1.40088 -21.12865,1.44033 -40.18252,3.61675 -31.14315,3.55732 -62.08447,8.63546 -93.04089,13.50427 -28.13282,4.58325 -56.35003,8.90552 -84.119632,15.41363 -51.456337,12.83532 -33.304458,85.60557 18.151882,72.77025 z"/>
<path d="m 193.13129,351.34873 c 8.71812,8.40518 15.03914,18.82627 21.48013,28.98057 16.01155,27.34124 25.4284,57.8322 31.49241,88.7925 1.53594,7.8419 2.6544,15.75983 3.9816,23.63974 5.79826,43.94282 6.89875,88.45909 4.95082,132.71533 -0.39133,8.89082 -1.09594,17.76508 -1.64391,26.64762 -2.9355,38.52884 -10.42889,76.51572 -20.71445,113.71784 -1.71115,6.18911 -3.61189,12.32423 -5.41783,18.48635 -7.12603,23.22532 -16.00605,45.95124 -27.87402,67.17471 -0.72549,1.12095 -1.45098,2.2419 -2.17647,3.36285 -0.25122,0.24818 -0.96994,1.02369 -0.75368,0.74452 4.46719,-5.76682 8.235,-9.89341 17.1156,-11.3962 7.15216,-1.21029 14.56922,0.27905 21.70321,1.59224 2.4194,0.44535 4.29886,2.39316 6.44829,3.58974 -15.42593,-19.07729 -34.38758,-34.71027 -52.92935,-50.60108 -40.26877,-34.5098 -89.073002,22.43883 -48.80424,56.94863 v 0 c 9.82718,8.42136 19.9964,16.60324 29.31367,25.59905 5.65253,5.45751 8.33045,8.78871 13.54956,14.57437 2.25361,2.49825 4.53393,4.97226 6.8009,7.45839 4.37159,3.34012 7.92624,8.19102 13.11476,10.02035 8.54372,3.01227 17.85636,4.98429 26.87002,4.07715 11.19824,-1.127 19.66831,-8.69117 26.5342,-16.48725 3.16441,-3.59313 6.34245,-9.13171 8.82668,-13.15214 4.38181,-7.96822 5.63538,-10.00138 9.7532,-18.64394 9.81424,-20.59835 17.81043,-42.02432 24.49817,-63.82886 2.00184,-6.87123 4.10811,-13.7129 6.00552,-20.6137 11.51926,-41.89507 19.75808,-84.69692 22.9978,-128.06773 0.58552,-9.74528 1.3393,-19.48191 1.75657,-29.23585 2.10222,-49.14095 0.70211,-98.56093 -5.99694,-147.31724 -1.59882,-9.24064 -2.94605,-18.52836 -4.79648,-27.72192 -7.93839,-39.44074 -20.7102,-78.01215 -41.50973,-112.62063 -3.27553,-5.04934 -6.39595,-10.20274 -9.82657,-15.148 -11.04183,-15.91685 -24.02364,-31.04996 -41.26836,-40.39939 -47.45534,-23.67469 -80.93641,43.43728 -33.48108,67.11198 z"/>
<path d="m 114.00944,725.24766 c 2.09821,-1.65019 4.25789,-3.22509 6.29463,-4.95058 2.80325,-2.37486 5.4964,-4.87693 8.21834,-7.34455 10.42434,-9.45035 16.0266,-14.7404 26.84775,-24.97199 39.97157,-37.79387 1.98544,-2.21041 47.92737,-45.06787 32.86272,-30.45408 66.38485,-60.18487 100.07875,-89.71278 23.16366,-20.29966 47.66331,-41.84448 71.57743,-61.27949 11.37949,-9.24812 23.07848,-18.09601 34.61773,-27.14401 41.71771,-32.74343 -4.5885,-91.74119 -46.30621,-58.99775 v 0 c -12.18976,9.57644 -24.54303,18.94833 -36.56929,28.72932 -24.32631,19.78464 -49.31515,41.74703 -72.89397,62.41237 -34.2299,30.00034 -68.28247,60.20988 -101.66671,91.15237 -26.80962,25.0137 -53.291556,50.37934 -80.311515,75.16394 -43.848416,29.82979 -1.662721,91.84081 42.185695,62.01102 z"/>
<path d="m 724.20129,55.941146 c -1.0904,0.683252 -2.1562,1.40743 -3.2712,2.049755 -4.43219,2.553281 -9.03941,4.790293 -13.53398,7.23209 -19.32329,10.497896 -38.60847,21.059884 -57.96504,31.497904 -63.13512,33.338775 -126.5687,66.108595 -189.88244,99.106445 -8.80559,4.58153 -17.61119,9.16307 -26.41678,13.74461 -47.04603,24.47798 -12.42893,91.0111 34.61709,66.53312 v 0 c 8.82098,-4.58954 17.64195,-9.17909 26.46293,-13.76863 63.62656,-33.16095 127.37525,-66.08956 190.81753,-99.60222 19.25061,-10.38127 38.43,-20.88637 57.64727,-31.32753 8.94079,-4.85773 9.88707,-5.11472 18.07816,-9.86274 1.06606,-0.61795 2.08825,-1.30865 3.13237,-1.96297 45.00016,-28.062176 5.31425,-91.70201 -39.68591,-63.639834 z"/>
<path d="m 626.19011,193.45324 c 0.60648,-1.77616 1.52397,-3.47504 1.81945,-5.32848 0.0871,-0.54626 -0.79934,0.76738 -1.15927,1.18742 -1.44769,1.68945 -2.78849,3.46966 -4.26073,5.13775 -9.63406,10.91566 -20.16719,20.97436 -30.58085,31.12962 -22.32379,21.00168 -44.99873,41.66809 -68.41604,61.45142 -12.17836,10.28848 -20.90393,17.15427 -33.2523,27.04831 -18.14143,15.0088 -37.56976,28.45479 -55.31066,43.9463 -11.14454,13.38921 -18.16354,18.4452 -12.74161,42.92124 2.09071,9.43803 10.42163,16.50106 17.36544,23.22644 3.70449,3.58797 9.05522,4.97907 13.81237,6.97065 6.24911,2.61619 17.71799,5.37442 24.29567,7.09327 13.03054,3.12881 26.21029,5.56566 39.30727,8.38768 8.02237,1.72858 16.15141,3.75435 24.23781,5.1563 5.27594,0.9147 10.59159,1.58335 15.88739,2.37503 52.47756,7.65543 63.30399,-66.55904 10.82643,-74.21448 v 0 c -3.94063,-0.55574 -7.89907,-0.99719 -11.82188,-1.66721 -7.0648,-1.20668 -16.93303,-3.58661 -23.82777,-5.07205 -11.94226,-2.57289 -23.95469,-4.81538 -35.85516,-7.58265 -2.95637,-0.75127 -5.91556,-1.49154 -8.86912,-2.25381 -1.69614,-0.43774 -3.34973,-1.62071 -5.0798,-1.34618 -0.83855,0.13306 1.2754,1.1556 1.71912,1.87946 3.67158,5.98951 9.93233,11.22293 10.59968,18.21645 2.06507,21.64117 -0.95467,23.13185 -10.20931,32.12572 4.8948,-4.42016 10.15046,-8.40039 15.35115,-12.45246 12.43747,-9.69052 24.89913,-19.35037 37.22054,-29.18894 13.5596,-10.87277 21.94635,-17.46131 35.38653,-28.82488 24.56935,-20.7732 48.36521,-42.4665 71.77129,-64.53418 12.43466,-12.1558 24.97525,-24.21275 36.32499,-37.41381 3.23322,-3.7606 10.04584,-12.27292 12.54344,-16.74935 1.96031,-3.51342 3.34526,-7.31826 5.01789,-10.97739 14.59977,-50.98379 -57.50219,-71.63098 -72.10196,-20.64719 z"/>
<path d="m 677.72148,297.84367 c -8.37292,7.17056 -15.67172,15.48136 -23.08811,23.60466 -17.20461,18.8445 -2.65272,2.99927 -22.07175,24.07957 -28.66408,31.13077 -59.65715,60.09139 -92.15316,87.18429 -7.58243,6.3217 -15.33806,12.43273 -23.00709,18.64909 -38.3798,30.46699 -78.18258,59.06184 -117.81653,87.85576 -9.49078,7.53464 -19.95867,13.98415 -28.92894,22.18667 -2.58367,2.36255 -5.44092,4.55741 -7.38258,7.47064 -3.65973,5.49098 -9.67802,10.91232 -9.25887,17.49782 0.90662,14.24404 8.64659,27.20468 12.96989,40.80702 8.04293,3.3722 15.69724,7.88742 24.1288,10.11662 6.51271,1.72188 26.18846,0.11858 32.73062,-0.47864 20.36619,-1.85918 40.64078,-4.9708 60.89038,-7.77104 42.89715,-6.20266 86.01672,-10.60521 129.16536,-14.60168 52.80689,-4.89208 45.88844,-79.5723 -6.91845,-74.68022 v 0 c -44.27081,4.10217 -88.51037,8.63297 -132.52413,14.98938 -13.5194,1.87087 -27.08761,3.80055 -40.63441,5.48013 -5.17505,0.64162 -10.36084,1.19333 -15.54126,1.78999 -3.55262,0.29889 -7.11484,0.49984 -10.65785,0.89667 -0.98118,0.10989 -3.63248,-0.0362 -2.89603,0.62141 3.69122,3.29598 8.34824,5.31613 12.52236,7.97419 2.83116,12.2549 8.22037,24.18999 8.49349,36.76471 0.0995,4.5809 -4.88706,7.75367 -7.44398,11.55586 -0.10029,0.14914 -0.0972,-0.41592 0.0347,-0.53806 1.67452,-1.55122 3.47528,-2.96208 5.2684,-4.37451 5.62615,-4.43167 14.61874,-11.00099 20.06465,-15.0294 40.71305,-29.578 81.59075,-58.96404 120.99011,-90.29331 8.20402,-6.66296 16.50081,-13.2133 24.61207,-19.98889 34.7135,-28.99731 67.80671,-59.99605 98.45608,-93.27134 12.43386,-13.49924 24.59119,-27.28003 37.42538,-40.39852 41.0821,-33.53746 -6.34702,-91.63632 -47.42912,-58.09887 z"/>
<path d="m 773.72423,535.45417 c 8.08506,7.97243 14.89865,17.17208 21.94655,26.05 10.4754,13.50107 20.32416,27.52493 28.72582,42.41674 0.58828,1.13491 1.17656,2.26983 1.76485,3.40474 24.66662,46.94739 91.06026,12.06352 66.39364,-34.88387 v 0 c -0.99247,-1.87369 -1.98493,-3.74739 -2.9774,-5.62108 -10.4067,-18.17365 -22.24227,-35.48633 -35.17573,-51.96038 -9.58315,-12.06197 -18.95425,-24.45677 -30.2892,-34.95789 -39.28102,-35.63007 -89.66954,19.92167 -50.38853,55.55174 z"/>
<path d="m 550.11802,630.13134 c 3.89681,14.45162 7.25024,29.07935 9.31643,43.91579 0.71363,5.12431 1.20432,10.2772 1.80648,15.4158 2.41073,25.75068 2.57866,51.67005 0.37982,77.44136 -1.2861,15.07363 -2.90033,25.40884 -4.95542,40.36621 -2.47836,16.12838 -5.15117,32.25157 -8.91693,48.1385 -1.68288,7.09969 -3.49334,13.89149 -6.68508,20.43968 -21.25655,48.58661 47.4553,78.64792 68.71185,30.0613 v 0 c 1.3747,-3.27232 2.89689,-6.48652 4.1241,-9.81696 3.01872,-8.19231 5.1558,-16.29888 7.14838,-24.80258 4.16764,-17.78622 7.18304,-35.82067 9.92795,-53.87189 2.38502,-17.56111 4.05768,-28.17783 5.50942,-46.00407 2.46343,-30.24914 2.17061,-60.66912 -0.77664,-90.87338 -0.76636,-6.28403 -1.39884,-12.58583 -2.29909,-18.85208 -2.51428,-17.50078 -6.45848,-34.76904 -11.08079,-51.82212 -14.32913,-51.06051 -86.5396,-30.79607 -72.21048,20.26444 z"/>
<path d="m 420.64485,687.01208 c -8.21984,11.44441 -14.94365,23.83162 -21.87923,36.06409 -7.84974,13.84483 -8.68324,15.12983 -16.93766,29.16332 -8.73456,15.10672 -17.8115,30.01331 -27.84851,44.29623 -2.84195,4.04418 -5.83061,7.98325 -8.74592,11.97488 -31.21258,42.8751 29.42197,87.01636 60.63456,44.14126 v 0 c 3.41724,-4.70707 6.92157,-9.35214 10.25174,-14.12122 10.89215,-15.59848 20.84021,-31.81044 30.3597,-48.27568 8.44463,-14.36591 9.71026,-16.38095 17.74106,-30.56393 5.82707,-10.29104 11.39238,-20.76375 18.34724,-30.36413 29.9211,-43.78616 -32.00188,-86.10098 -61.92298,-42.31482 z"/>
<path d="m 775.58663,761.55472 c 13.91609,6.44493 26.92311,14.74821 39.50198,23.47483 9.92114,7.60906 20.07117,15.7055 26.8327,26.40087 30.04795,43.6992 91.84796,1.20499 61.80001,-42.49422 v 0 c -1.66063,-2.34988 -3.23167,-4.76572 -4.98191,-7.04965 -11.49776,-15.0037 -25.93884,-27.50889 -41.12318,-38.63403 -16.98849,-11.62723 -34.49803,-22.75218 -53.40792,-31.02167 -49.01938,-20.23859 -77.64106,49.08529 -28.62168,69.32387 z"/>
</svg>
