<?xml version="1.0" ?>
<svg xmlns="http://www.w3.org/2000/svg" width="1000" height="1000">
<path d="m 381.64577,182.98868 c 15.55489,7.75224 30.94639,15.87385 45.77145,24.95804 4.60709,2.82304 9.1314,5.77899 13.6971,8.66849 18.5562,13.01788 9.36139,6.10257 27.5405,20.80422 41.38883,33.15817 88.28157,-25.37449 46.89273,-58.53266 v 0 c -23.07793,-18.35276 -11.58079,-9.83379 -34.39309,-25.68912 -5.21468,-3.28557 -10.38065,-6.64976 -15.64404,-9.85672 -17.30589,-10.54439 -35.2393,-20.05938 -53.46113,-28.91336 -48.48003,-21.498533 -78.88355,47.06258 -30.40352,68.56111 z"/>
<path d="m 84.322706,319.60231 c 0.29074,1.51333 0.58769,3.02548 0.87224,4.53999 1.69457,9.01937 2.94344,16.49803 5.23067,25.66097 5.56577,22.29718 13.162344,44.00949 20.399604,65.79753 7.6799,23.91817 17.45543,47.05787 28.28344,69.70033 3.03393,6.34426 6.2702,12.58976 9.4053,18.88464 23.67768,47.45385 90.78755,13.96856 67.10988,-33.48529 v 0 c -12.77777,-25.55602 -25.17121,-51.36216 -33.6246,-78.74834 -6.38138,-19.19977 -13.29426,-38.36645 -18.268,-58.0009 -2.49923,-9.86599 -3.15202,-15.22147 -5.07296,-24.9132 -0.5743,-2.89752 -1.22888,-5.77856 -1.84333,-8.66784 -13.59915,-51.25976 -86.091404,-32.02765 -72.492244,19.23211 z"/>
<path d="m 249.83006,365.70214 c 25.3145,-10.7747 51.70307,-18.76819 77.99931,-26.73075 9.45856,-2.54721 18.86509,-5.29617 28.37569,-7.64164 23.67487,-5.83861 44.22428,-9.83575 68.3134,-14.33079 25.42271,-4.74388 54.71373,-9.8011 80.22907,-13.73952 13.58081,-2.09626 27.19896,-3.94307 40.79845,-5.91461 45.87717,-6.3026 92.09102,-10.62522 138.43848,-10.22466 21.38498,0.18482 27.08083,0.88248 47.50004,2.33701 19.11443,2.15825 38.70184,4.21839 56.88722,10.91303 0.24688,0.14071 0.99612,0.54656 0.74064,0.42214 -10.11828,-4.92784 -10.18108,-4.80279 -18.67077,-20.80021 -1.7149,-3.23143 -0.44729,-7.38351 -1.58828,-10.8593 -0.24838,-0.75665 -0.96843,1.27618 -1.32355,1.989 -1.62665,3.26508 -3.07443,6.61626 -4.61164,9.92439 -15.14141,29.57966 -35.11382,56.24063 -53.89654,83.51978 -6.78974,9.86109 -13.4342,19.82144 -20.15129,29.73216 -29.74843,43.90366 32.34072,85.97428 62.08915,42.07062 v 0 c 6.50109,-9.59711 12.93019,-19.24339 19.50329,-28.79133 21.44571,-31.15155 44.1377,-61.69465 60.86226,-95.78224 3.31594,-7.53586 10.47125,-22.13939 11.58325,-30.79361 0.87084,-6.7774 2.21087,-14.04871 -0.0433,-20.49933 -6.4993,-18.59884 -14.29661,-24.72593 -29.6342,-30.89243 -24.68512,-8.48432 -50.5675,-12.68759 -76.52164,-14.97047 -23.07875,-1.58321 -29.53996,-2.35654 -53.60412,-2.51406 -49.65717,-0.32505 -99.17668,4.22007 -148.33066,10.99706 -14.05075,2.04124 -28.12066,3.95471 -42.15225,6.12373 -25.87071,3.99913 -56.69632,9.3138 -82.48015,14.14364 -26.38515,4.94249 -47.56278,9.10196 -73.48384,15.53201 -10.25712,2.54442 -20.40242,5.52012 -30.60363,8.28018 -29.22388,8.88273 -58.54036,17.82834 -86.62801,29.93913 -48.48,21.4986 -18.07639,90.05967 30.4036,68.56107 z"/>
<path d="m 500.69574,337.33944 c -0.78802,0.93257 -1.54352,1.89361 -2.36405,2.79771 -4.65936,5.13388 -8.84001,9.18433 -13.90853,14.23118 -10.67254,10.6269 -18.76577,18.73349 -30.05572,29.16502 -6.86365,6.34179 -13.89457,12.50012 -20.84185,18.75018 -8.20997,7.28126 -16.44257,14.53709 -24.62992,21.84379 -22.15493,19.77189 -31.86344,28.88509 -54.43953,48.33786 -26.46635,22.80484 -53.63254,44.74105 -80.88302,66.59348 -33.43397,26.88523 -68.56436,51.55339 -102.1081,78.29208 -4.49664,3.75069 -8.29424,6.85834 -12.61803,10.651 -1.3031,1.14303 -2.72839,2.17116 -3.86124,3.48313 -2.85622,3.30783 -8.56694,5.99181 -8.06923,10.3337 2.08431,18.18275 4.64653,37.84843 15.29842,52.7311 5.03054,7.0286 17.04086,2.90501 25.5613,4.35752 4.14286,-0.7118 8.29955,-1.34738 12.4286,-2.13541 4.21323,-0.8041 8.39604,-1.76012 12.59406,-2.64017 5.20815,-1.027 10.4097,-2.08799 15.62444,-3.08098 22.57011,-4.29784 45.21572,-8.11528 67.87968,-11.87862 56.16455,-9.02842 112.50353,-17.38035 169.21626,-22.13836 11.07215,-0.92892 22.16825,-1.54612 33.25238,-2.31919 35.2655,-1.89098 70.67122,-2.48024 105.91308,0.21654 5.45864,0.41771 10.89631,1.07483 16.34446,1.61224 52.78565,5.11617 60.021,-69.53401 7.23535,-74.65018 v 0 c -6.41053,-0.61197 -12.80962,-1.35876 -19.2316,-1.83591 -38.44002,-2.85604 -77.05022,-2.27115 -115.51074,-0.15875 -11.76314,0.83001 -23.53881,1.49815 -35.2894,2.49004 -58.38726,4.92854 -116.39649,13.49181 -174.22129,22.79763 -23.40923,3.89095 -46.79933,7.837 -70.1108,12.28403 -6.17706,1.17837 -20.83861,4.0746 -27.93786,5.66632 -1.2168,0.27282 -2.40919,0.64493 -3.61379,0.96739 30.77712,9.33957 22.8749,1.76309 28.97102,56.14887 0.33549,2.99307 -4.11141,4.41357 -5.95675,6.79386 -0.65538,0.84536 1.56511,-1.45888 2.36836,-2.16523 3.48971,-3.06874 6.92831,-5.90422 10.50635,-8.90222 33.57081,-26.80697 68.83951,-51.40656 102.25994,-78.41354 28.12393,-22.56008 56.14862,-45.21659 83.46294,-68.75965 23.01509,-19.83743 32.26279,-28.54372 54.7009,-48.5686 8.32946,-7.43362 16.70408,-14.81648 25.05611,-22.22472 7.47656,-6.74077 15.04108,-13.38525 22.42968,-20.22231 11.1289,-10.29816 20.80775,-19.89762 31.43577,-30.51646 7.81751,-7.81075 11.35036,-11.21415 18.27859,-19.01946 1.33154,-1.5001 2.56426,-3.0851 3.84639,-4.62766 32.73003,-41.72823 -26.2826,-88.01548 -59.01263,-46.28725 z"/>
<path d="m 431.58019,525.46248 c -2.13044,18.7151 -3.20499,37.52462 -4.42047,56.31474 -2.5012,42.40402 -6.23849,84.71795 -9.56941,127.0608 -1.92505,24.9976 -3.35498,50.09869 -2.37958,75.17773 0.50264,12.92349 1.00737,15.71305 2.35175,28.14538 2.69238,19.52235 8.26544,37.31067 22.94949,51.41768 10.96759,10.53659 15.861,11.33335 29.5086,17.50559 5.39896,1.41938 10.72572,3.14917 16.19689,4.25813 10.93112,2.21566 23.83519,3.23941 34.92427,3.70305 19.3504,0.80906 38.7528,0.0462 58.09679,-0.48838 37.18205,-1.16819 74.3841,-1.41747 111.58153,-1.57322 14.07955,-0.17823 28.18281,-0.24179 42.23236,-1.30935 7.14112,-0.54262 17.3098,-1.53689 24.22974,-3.39625 4.85171,-1.30364 9.50094,-3.26901 14.25141,-4.90352 15.80426,-10.41514 20.08541,-10.80642 30.33134,-28.38997 12.57978,-21.58877 14.3993,-48.49882 17.29337,-72.63079 6.09854,-52.68119 -68.40391,-61.30584 -74.50246,-8.62465 v 0 c -0.75865,6.86814 -1.37786,13.75311 -2.27597,20.60441 -0.60227,4.5945 -1.51585,9.14299 -2.22377,13.7224 -0.27632,1.78744 -1.18964,3.6279 -0.72874,5.37686 0.41356,1.56932 4.72519,-1.52487 4.86831,0.0626 -0.42946,0.38456 -0.74409,0.96376 -1.28837,1.15368 -3.76036,1.31211 -10.71619,1.87043 -14.18657,2.14472 -12.74404,1.00723 -25.54272,1.01012 -38.31515,1.19053 -37.78825,0.15871 -75.58107,0.41673 -113.35373,1.60159 -26.44162,0.74144 -53.25839,2.32371 -79.45668,-2.2092 -0.67778,0.0236 -1.45054,-0.2759 -2.03332,0.0709 -0.33861,0.20153 0.11311,1.96027 -0.13352,2.67306 -0.0918,0.26522 -0.49799,0.75809 -0.65686,0.52672 -0.7157,-1.04234 -1.08704,-2.30009 -1.40166,-3.52473 -0.61206,-2.38242 -0.91123,-4.83444 -1.36685,-7.25166 -1.06253,-9.20846 -1.49649,-11.6312 -1.90639,-21.31476 -0.95792,-22.62965 0.44347,-45.28203 2.16285,-67.83775 3.35713,-42.6895 7.12269,-85.34993 9.64396,-128.10104 1.2041,-18.62052 2.31381,-37.25022 4.3854,-55.79992 3.78685,-52.89763 -71.02171,-58.25305 -74.80856,-5.35541 z"/>
</svg>
