<?xml version="1.0" ?>
<svg xmlns="http://www.w3.org/2000/svg" viewBox="0 0 1000 1000">
<path d="m 444.53607,134.39702 c 10.52157,5.14832 20.68108,11.20339 29.9633,18.376 3.14109,2.4272 6.06604,5.12193 9.09905,7.68289 3.03344,3.1734 6.06688,6.3468 9.10032,9.5202 37.21247,37.78534 90.64901,-14.84105 53.43653,-52.62639 v 0 c -4.91936,-4.90183 -9.83873,-9.80366 -14.75809,-14.70549 -4.66219,-3.798781 -9.18816,-7.771159 -13.98658,-11.396344 -14.63763,-11.058672 -30.72821,-20.485943 -47.67933,-27.499355 -49.95603,-17.801556 -75.13123,52.846939 -25.1752,70.648489 z"/>
<path d="m 109.67025,249.80493 c 5.81511,20.28019 8.99601,41.1708 13.8401,61.68318 1.75156,7.41703 3.71311,14.7829 5.56966,22.17435 8.66375,32.22508 19.28407,63.87288 29.26891,95.70146 15.87514,50.60118 87.43602,28.15033 71.56087,-22.45085 v 0 c -9.55869,-30.46552 -19.71823,-60.75905 -28.10345,-91.57766 -1.68022,-6.64339 -3.4603,-13.26232 -5.04068,-19.93016 -5.12002,-21.6021 -8.45959,-43.61492 -14.63859,-64.96548 -13.69324,-51.23471 -86.150056,-31.86955 -72.45682,19.36516 z"/>
<path d="m 290.49437,295.0749 c 25.57707,-9.97968 51.92005,-17.77672 78.29196,-25.32694 48.26247,-12.86328 97.45346,-22.11386 146.88623,-29.14398 11.19683,-1.59237 22.42717,-2.93941 33.64075,-4.40912 41.30715,-4.80764 82.79243,-8.50684 124.38034,-9.60007 21.47692,-0.56457 27.14584,-0.2415 47.91908,0.14563 24.06631,0.90722 48.18691,2.55319 71.84868,7.21502 2.71416,0.63023 5.50564,1.10269 8.15517,2.00297 0.20902,0.071 -0.44306,-0.0566 -0.64716,-0.14077 -1.70832,-0.70427 -3.70514,-0.98487 -5.0794,-2.22008 -5.31409,-4.7764 -9.81556,-10.38601 -14.72334,-15.57901 -1.16222,-5.95824 -2.32443,-11.91647 -3.48665,-17.8747 -0.0509,-0.4098 0.0219,-1.60354 -0.15283,-1.22938 -0.93073,1.99308 -1.43697,4.15821 -2.18147,6.22807 -1.33159,3.70205 -2.63087,7.41667 -4.04668,11.08733 -5.50695,14.27743 -7.0577,17.29602 -13.58442,32.15784 -10.80558,23.59315 -22.96883,46.54213 -36.88977,68.45378 -5.35879,8.43475 -11.13233,16.59873 -16.6985,24.89809 -29.46719,44.09291 32.88959,85.76581 62.35679,41.67291 v 0 c 6.25011,-9.38179 12.73749,-18.60976 18.75032,-28.14536 15.51413,-24.60344 29.11266,-50.33714 41.18084,-76.79033 2.91395,-6.66912 5.92468,-13.29679 8.74184,-20.00737 4.35041,-10.36283 7.45202,-18.57371 11.11667,-28.94765 1.25966,-3.56586 5.86374,-16.54156 5.8371,-20.14801 -0.0567,-7.67249 -1.91407,-15.22554 -2.87111,-22.83832 -5.25712,-5.94834 -9.94346,-12.4547 -15.77137,-17.84503 -1.99114,-1.84165 -4.83994,-2.45816 -7.33353,-3.52509 -5.83232,-2.49545 -12.31925,-3.2848 -18.411,-4.84147 -27.94612,-5.34693 -56.34269,-7.68972 -84.76617,-8.57139 -22.8197,-0.39419 -28.78082,-0.73482 -52.3256,-0.0951 -43.82952,1.1908 -87.55217,5.07785 -131.08414,10.17611 -11.75704,1.54716 -23.53179,2.96523 -35.27112,4.64148 -52.56492,7.50574 -104.8622,17.41442 -156.16409,31.17891 -28.93058,8.30921 -57.82873,16.90197 -85.86025,27.94198 -49.12913,19.9707 -20.8863,89.44978 28.24283,69.47908 z"/>
<path d="m 383.55137,403.58374 c 15.31993,-2.28166 30.6255,-4.56871 46.0624,-5.93966 5.86235,-0.52064 11.73676,-0.89519 17.60514,-1.34278 31.41149,-1.62819 62.96758,-0.73571 94.26942,2.32485 4.94008,0.48302 9.86489,1.11109 14.79734,1.66664 4.01832,0.56987 8.03663,1.13974 12.05494,1.70961 52.51684,7.38119 62.95542,-66.88883 10.43858,-74.27002 v 0 c -4.7235,-0.65878 -9.44701,-1.31756 -14.17051,-1.97634 -5.61783,-0.62254 -11.2272,-1.32688 -16.85349,-1.8676 -35.30208,-3.39275 -70.88329,-4.32567 -106.29803,-2.36549 -6.54076,0.50854 -13.08853,0.93379 -19.62229,1.52563 -15.75309,1.42693 -31.40245,3.62331 -47.02724,6.04659 -52.67137,6.18276 -43.92763,80.67133 8.74374,74.48857 z"/>
<path d="m 197.48036,607.20641 c 17.25105,-6.57179 34.4227,-13.33233 52.27926,-18.14257 6.72644,-1.81198 13.53423,-3.3072 20.30135,-4.9608 52.73953,-10.85623 106.34569,-17.16702 159.94595,-21.93394 13.31719,-1.18436 26.65354,-2.14228 39.98032,-3.21341 53.28844,-3.81957 106.7003,-6.34664 160.13836,-5.924 31.16752,0.24651 38.801,0.857 69.19964,2.221 24.30506,1.09466 48.49028,3.6651 72.64453,6.45244 52.68618,6.05524 61.24958,-68.45428 8.56339,-74.50952 v 0 c -25.89329,-2.96476 -51.81892,-5.70269 -77.87124,-6.86866 -31.99743,-1.41472 -40.08789,-2.05461 -72.85438,-2.29458 -55.34072,-0.40531 -110.65459,2.19286 -165.83967,6.16526 -13.76115,1.10993 -27.53231,2.10222 -41.28347,3.32978 -57.1874,5.10514 -114.38142,11.91339 -170.6004,23.76197 -8.01079,1.99492 -16.07021,3.80384 -24.03238,5.98475 -19.24729,5.27201 -37.84305,12.40465 -56.4482,19.53779 -49.77642,18.29776 -23.89948,88.69224 25.87694,70.39449 z"/>
<path d="m 458.92459,541.03493 c -0.0979,18.45197 1.5929,36.85364 3.04981,55.23007 3.52704,39.88728 1.80761,79.95878 -0.16966,119.87378 -2.22957,34.39656 -5.16825,68.82004 -10.8747,102.83855 -0.84522,5.0387 -1.8521,10.04894 -2.77816,15.07342 -2.77282,13.11313 -5.49537,26.3044 -9.49514,39.11551 -1.28783,4.12489 -0.0247,3.74299 -1.70581,4.1346 7.70881,-12.62074 5.11059,-11.42548 25.26869,-18.90612 2.82888,-1.04979 6.27743,1.13573 9.05202,-0.0501 1.27394,-0.54447 -2.27532,-1.58144 -3.42467,-2.35498 -13.65002,-9.18688 -4.36191,-2.6152 -19.76705,-13.94743 -3.87068,-3.01225 -7.74136,-6.02451 -11.61203,-9.03676 -41.88944,-32.52346 -87.88455,26.71715 -45.99512,59.2406 v 0 c 4.46535,3.45994 8.93069,6.91987 13.39604,10.3798 9.78582,7.09694 17.60121,13.18025 28.04932,19.19781 4.45424,2.56541 8.84772,5.41797 13.73516,7.00997 6.90158,2.24808 14.136,5.41758 21.32422,4.41005 25.99683,-3.64381 26.03048,-8.29577 37.89451,-24.13519 1.14719,-2.63672 2.40707,-5.22723 3.44158,-7.91016 1.56866,-4.0682 3.77082,-11.79374 4.85805,-15.81623 3.37646,-12.49211 6.25444,-25.12109 8.75251,-37.8165 1.04881,-5.75553 2.18646,-11.49559 3.14643,-17.26661 6.07952,-36.54807 9.28964,-73.51551 11.64313,-110.46639 2.11721,-43.1242 3.84013,-86.40909 0.0257,-129.49939 -1.30234,-16.40241 -2.87669,-32.82814 -2.81486,-49.29827 0,-53.03301 -75,-53.03301 -75,0 z"/>
<path d="m 273.36677,655.65373 c -11.54646,23.46222 -26.41003,45.1168 -40.52228,67.06829 -5.44343,8.46721 -10.86762,16.94678 -16.30142,25.42017 -13.42865,21.05112 -21.37697,33.03053 -33.96677,54.73579 -5.53387,9.54057 -10.73102,19.27252 -16.09652,28.90878 -25.76587,46.35321 39.78747,82.79165 65.55334,36.43844 v 0 c 4.91833,-8.86454 9.67635,-17.81994 14.755,-26.59362 12.11418,-20.92797 19.85074,-32.56425 32.88876,-53.00332 10.28054,-16.03155 20.66314,-31.99772 30.8934,-48.06141 7.99811,-12.55873 13.69851,-21.5499 20.8736,-34.20283 5.0532,-8.91107 4.47677,-7.78533 7.00517,-13.43702 26.35618,-46.02013 -38.7261,-83.29339 -65.08228,-37.27327 z"/>
<path d="m 684.87753,727.37408 c 14.78135,10.7006 28.19614,23.12497 41.37715,35.6994 14.14143,14.10867 26.9458,29.50681 38.24608,45.97558 5.04378,7.35069 6.83156,10.49114 11.26757,17.78761 27.6526,45.253 91.65,6.14632 63.9974,-39.10668 v 0 c -5.67495,-9.24988 -7.91016,-13.15128 -14.36776,-22.45912 -14.05072,-20.2524 -29.91983,-39.20267 -47.45025,-56.53734 -15.77476,-14.9702 -31.83869,-29.73832 -49.54193,-42.43555 -43.18733,-30.77913 -86.71559,30.29697 -43.52826,61.0761 z"/>
</svg>
