<?xml version="1.0" ?>
<svg xmlns="http://www.w3.org/2000/svg" viewBox="0 0 1000 1000">
<path d="m 445.73071,151.10309 c 12.00531,3.46804 23.39631,9.16404 34.02244,15.68397 3.83696,2.35427 7.51311,4.96109 11.26967,7.44163 14.01129,10.71966 7.28096,5.28711 20.22283,16.25815 40.59588,34.1244 88.85506,-23.28685 48.25918,-57.41125 v 0 c -17.38103,-14.51671 -8.21582,-7.24884 -27.57207,-21.70687 -5.23886,-3.37377 -10.37094,-6.91942 -15.71658,-10.12132 -16.64319,-9.968845 -34.53649,-18.260123 -53.34396,-23.159161 -51.6293,-12.12088 -68.77081,60.893971 -17.14151,73.014851 z"/>
<path d="m 158.25765,276.95834 c 0.13857,1.86271 0.17913,3.73531 0.41572,5.58812 3.53046,27.64875 13.42332,53.93361 22.7924,80.01304 7.18821,19.66947 15.8639,38.73415 25.68589,57.21943 2.61038,4.9128 5.42225,9.71585 8.13338,14.57378 25.9157,46.2696 91.3508,9.61927 65.4351,-36.65034 v 0 c -2.27406,-4.04258 -4.62652,-8.04205 -6.8222,-12.12774 -8.39312,-15.61783 -15.77317,-31.74876 -21.8624,-48.41015 -4.651,-12.90075 -7.36067,-20.00088 -11.44527,-32.86226 -2.84211,-8.94907 -5.72696,-18.25013 -7.14334,-27.57938 -0.15955,-1.05091 -0.17799,-2.11845 -0.26699,-3.17767 -2.41347,-52.97806 -77.33577,-49.56489 -74.92229,3.41317 z"/>
<path d="m 341.2052,311.17022 c 24.18048,-10.08545 49.49565,-17.09635 74.69971,-24.07794 49.1793,-12.73641 99.25357,-22.06664 149.78867,-27.35922 10.19139,-1.06735 20.41579,-1.79154 30.62369,-2.68731 47.11527,-3.75283 94.39854,-3.28056 141.56707,-1.09237 20.0564,0.85096 39.98911,3.17815 59.86824,5.85529 1.30125,0.17647 2.6023,0.35445 3.90375,0.52943 0.97754,0.13143 1.95704,0.24866 2.93323,0.38978 0.30253,0.0437 1.20695,0.18738 0.90212,0.16469 -2.97936,-0.22177 -9.50024,-3.17144 -9.6228,-3.28092 -6.45483,-5.76638 -11.33863,-13.08051 -17.00794,-19.62076 -0.30546,-7.13477 -0.61091,-14.26954 -0.91636,-21.40431 -0.035,-0.54837 0.28873,-2.02832 -0.1051,-1.64512 -2.24977,2.189 -3.85948,4.95164 -5.816,7.40628 -3.72989,4.6795 -7.47384,9.34791 -11.24301,13.99583 -18.71722,23.08097 -12.74525,15.76592 -33.7508,40.05048 -7.10233,7.76815 -14.20467,15.5363 -21.30701,23.30445 -35.76743,39.15598 19.6075,89.73877 55.37492,50.58278 v 0 c 7.5604,-8.28371 15.1208,-16.56742 22.68119,-24.85113 6.66687,-7.7229 13.42836,-15.36512 20.00059,-23.16872 3.8394,-4.55875 23.2546,-28.4766 27.93461,-34.50395 3.80021,-4.89423 15.67844,-19.94126 17.06113,-26.51249 1.87441,-8.90814 0.75421,-18.19079 1.13131,-27.28618 -5.9402,-7.34104 -10.90145,-15.59643 -17.82058,-22.02313 -4.61032,-4.2822 -17.61875,-5.4937 -24.32752,-6.45659 -22.05332,-2.96745 -44.17286,-5.4877 -66.4199,-6.44613 -50.52274,-2.31567 -101.16686,-2.76962 -151.62705,1.30427 -11.02841,0.98199 -22.07482,1.77936 -33.08523,2.94598 -54.24623,5.7477 -107.99898,15.8034 -160.7806,29.54136 -28.10759,7.81657 -56.30339,15.73695 -83.26192,27.02174 -49.0194,20.23852 -20.39782,89.56243 28.62159,69.32391 z"/>
<path d="m 341.31135,371.28545 c 0.31779,2.82111 0.49129,5.66223 0.95338,8.46332 1.22414,7.42054 3.38947,15.78341 5.34945,22.99138 2.43406,8.9515 5.67407,19.89911 8.55965,28.63336 1.76155,5.33198 3.69122,10.60694 5.53683,15.91041 9.40349,25.72355 21.38004,50.44251 35.51896,73.8817 27.53155,45.32675 91.63324,6.39125 64.10169,-38.93549 v 0 c -11.57236,-18.86105 -21.04957,-38.97417 -28.81753,-59.6832 -6.23401,-17.76102 -12.01898,-35.68439 -16.25405,-54.04355 -1.96722,-52.99651 -76.9156,-50.21444 -74.94838,2.78207 z"/>
<path d="m 416.22798,406.38196 c 21.54223,-4.44431 43.06006,-8.94915 64.71029,-12.8465 29.44173,-4.87466 59.29176,-7.95999 89.16504,-7.81503 4.58802,0.0223 9.17235,0.2636 13.75853,0.3954 9.15829,0.6724 12.3512,0.70993 21.01547,2.01526 2.5844,0.38935 8.00431,1.30021 10.86469,2.46832 0.13119,0.0536 0.0812,0.48036 -0.0481,0.4224 -2.3662,-1.06049 -4.61552,-2.36457 -6.92327,-3.54686 -27.39926,-33.8592 4.09567,7.67449 -10.96749,-18.64587 -0.35539,-0.62099 -0.87166,1.1629 -1.10865,1.838 -1.0778,3.07029 -1.86021,6.2365 -2.81756,9.34645 -4.73771,15.39045 -4.0011,12.85108 -9.41487,29.10885 -8.53636,24.86174 -18.46114,49.20997 -27.48333,73.8932 -4.59027,12.55822 -6.90754,19.38988 -11.17043,31.68473 -17.36761,50.10855 53.49657,74.67005 70.86418,24.56151 v 0 c 3.96394,-11.4409 6.33154,-18.41326 10.58055,-30.04468 9.32477,-25.52598 19.60872,-50.69713 28.37685,-76.42747 4.65905,-14.02689 6.07374,-17.93319 10.17945,-31.54575 4.81745,-15.97234 10.61493,-33.34258 4.9163,-50.14492 -2.41432,-7.11862 -7.79179,-12.857 -11.68769,-19.2855 -4.57915,-3.23356 -8.86448,-6.92962 -13.73744,-9.70068 -5.02941,-2.86003 -14.75566,-5.35423 -20.42964,-6.54301 -12.84213,-2.69062 -25.97512,-3.71329 -39.04844,-4.42835 -5.67563,-0.13654 -11.34962,-0.39977 -17.02689,-0.40963 -33.90109,-0.0589 -67.76799,3.41581 -101.17587,8.99568 -21.48099,3.88486 -42.85892,8.23882 -64.21426,12.75871 -52.25218,9.06695 -39.42958,82.96269 12.8226,73.89574 z"/>
<path d="m 442.85947,548.41149 c 18.33088,-3.75945 36.95446,-5.75582 55.58136,-7.30843 17.94285,-1.78511 35.82247,-0.0182 53.62725,2.1169 52.67273,6.17116 61.40007,-68.31933 8.72734,-74.49049 v 0 c -5.27095,-0.60596 -10.52897,-1.33768 -15.81287,-1.81789 -17.59346,-1.59891 -35.26622,-2.01788 -52.88934,-0.53943 -5.64825,0.48735 -11.30505,0.88409 -16.94475,1.46204 -16.47181,1.68804 -32.89624,4.17427 -49.11747,7.48966 -51.68076,11.89953 -34.85228,84.98717 16.82848,73.08764 z"/>
<path d="m 507.42389,494.3649 c -13.77795,19.72187 -29.48433,37.96615 -45.31584,56.04371 -15.31822,16.37782 -29.94731,33.41488 -45.45833,49.61353 -5.18247,5.41222 -10.57437,10.61994 -15.86156,15.92991 -37.37558,37.624 15.8328,90.48106 53.20838,52.85705 v 0 c 5.93247,-5.98425 11.97044,-11.86572 17.7974,-17.95277 15.95645,-16.66866 31.0101,-34.1961 46.75679,-51.05922 17.51479,-20.03198 34.83651,-40.28334 50.09997,-62.11619 30.62905,-43.2939 -30.59776,-86.60992 -61.22681,-43.31602 z"/>
<path d="m 300.64879,675.73351 c -0.38914,-0.34315 -1.23567,-1.54378 -1.16742,-1.02946 0.14242,1.07325 0.9764,1.93357 1.41854,2.92183 0.98553,2.20287 2.00312,4.39478 2.86354,6.64947 1.2596,3.30069 2.44957,6.63121 3.49268,10.00658 3.63988,11.77813 4.35833,16.28057 7.13053,28.71569 4.65882,23.69189 8.20671,47.63038 10.43632,71.67714 1.27651,13.76733 1.34218,18.34337 1.98008,31.93008 0.60169,14.40766 0.31243,28.82046 -0.31765,43.21845 -2.27695,52.98411 72.65389,56.2042 74.93084,3.22009 v 0 c 0.70516,-16.66891 1.02067,-33.35492 0.30063,-50.03291 -0.77191,-15.79098 -0.82752,-20.4314 -2.33411,-36.4498 -2.52943,-26.89344 -6.53896,-53.66326 -11.85182,-80.14356 -1.50123,-6.5366 -2.82331,-13.11694 -4.50369,-19.60979 -4.79296,-18.51961 -11.26532,-38.61363 -21.8613,-54.76486 -1.65863,-2.52821 -3.64237,-4.8275 -5.46355,-7.24125 -36.01458,-38.92879 -91.06819,12.00352 -55.05362,50.9323 z"/>
<path d="m 379.44473,695.34655 c 12.70883,-4.60397 25.92728,-7.62539 39.06445,-10.72232 38.3922,-8.02396 77.60689,-10.90826 116.64763,-13.79787 40.62515,-2.85995 81.34133,-4.18442 122.06148,-4.37416 17.7078,0.35914 35.54713,0.25519 53.12121,2.76584 1.18526,0.19719 3.62255,0.58651 4.9139,0.85376 0.1048,0.0217 0.40561,0.1345 0.30116,0.11122 -2.3204,-0.51719 -4.76854,-1.18147 -6.79418,-2.43364 -3.10246,-1.91782 -5.88746,-4.30709 -8.83119,-6.46063 -8.55019,-13.0785 -7.36091,-8.34065 -10.04422,-21.20108 -0.14997,-0.71878 0.1776,-1.54338 -0.15655,-2.19719 -0.21849,-0.42753 -0.16369,0.9462 -0.24059,1.42012 -0.25136,1.54921 -0.46879,3.1041 -0.74418,4.64922 -0.44578,2.50116 -0.94607,4.9923 -1.41911,7.48846 -6.85311,31.15821 -14.55976,62.1357 -22.60618,93.00622 -8.74644,33.16663 -21.22821,65.13983 -33.91048,96.951 -1.37251,3.33243 -2.74501,6.66486 -4.11752,9.99729 -20.18577,49.04115 49.1689,77.58814 69.35467,28.54698 v 0 c 1.47776,-3.59228 2.95552,-7.18456 4.43329,-10.77684 13.82769,-34.7046 27.32296,-69.62362 36.81858,-105.81458 8.47644,-32.56659 16.64265,-65.23746 23.75115,-98.13168 2.37323,-12.83468 6.57853,-29.75334 1.22935,-42.39288 -2.09779,-4.95688 -5.65823,-9.15805 -8.48735,-13.73708 -3.33158,-2.55379 -6.4544,-5.40588 -9.99474,-7.66138 -6.547,-4.171 -15.78332,-5.22334 -23.32197,-6.5295 -21.0814,-2.79533 -42.37468,-3.29742 -63.6187,-3.45275 -42.4491,0.2134 -84.89417,1.58106 -127.24367,4.57861 -42.9891,3.19299 -86.15671,6.50979 -128.38218,15.61043 -18.68987,4.44217 -37.66614,8.69137 -55.26522,16.5925 -47.4553,23.67475 -13.97414,90.78669 33.48116,67.11193 z"/>
<path d="m 367.23446,897.87321 c 20.38132,2.38018 40.91145,-0.38787 61.17595,-2.62058 27.35667,-3.32462 54.84336,-5.52672 82.40044,-6.1002 5.681,-0.11823 11.36399,-0.10205 17.04599,-0.15307 5.50658,0.0963 11.01485,0.12191 16.51973,0.289 11.09629,0.33682 19.71124,0.81941 30.71343,1.85827 12.85753,1.21405 25.62408,3.10953 38.38873,5.03454 12.10983,1.9503 24.17843,4.14459 36.26245,6.24702 52.24814,9.09017 65.1036,-64.79986 12.85545,-73.89004 v 0 c -12.65069,-2.20094 -25.28479,-4.50131 -37.9658,-6.52321 -14.56041,-2.18358 -29.11972,-4.30136 -43.78826,-5.64737 -12.45702,-1.14308 -22.69308,-1.7073 -35.21295,-2.06874 -6.16217,-0.1779 -12.3279,-0.19735 -18.49185,-0.29603 -6.26965,0.0636 -12.54046,0.0539 -18.80894,0.19071 -29.48117,0.64358 -58.89169,2.97683 -88.16198,6.51354 -14.03022,1.55778 -28.20133,3.63822 -42.34873,2.91668 -52.50231,-7.48379 -63.08598,66.7657 -10.58366,74.24948 z"/>
</svg>
