<?xml version="1.0" ?>
<svg xmlns="http://www.w3.org/2000/svg" viewBox="0 0 1000 1000">
<path d="m 424.12477,84.514287 c 14.14008,12.019684 29.22623,23.095983 42.21431,36.413463 3.62019,3.712 6.94183,7.70388 10.41274,11.55582 35.78563,39.13935 91.13703,-11.46917 55.3514,-50.608521 v 0 c -4.83419,-5.231489 -9.49261,-10.631052 -14.50257,-15.694468 -13.28053,-13.422229 -28.29631,-25.048567 -42.85813,-37.00925 -39.13338,-35.7921582 -89.75113,19.550799 -50.61775,55.342956 z"/>
<path d="m 156.74392,218.77083 c 4.69624,13.91583 6.47789,28.62654 9.72357,42.91067 1.41177,6.21316 3.02865,12.37793 4.54297,18.56689 7.42233,27.57756 17.61659,54.2871 28.30048,80.73449 19.88207,49.16506 89.41197,21.04757 69.5299,-28.1175 v 0 c -9.36404,-23.12873 -18.35215,-46.46759 -25.00478,-70.5455 -1.30471,-5.26197 -2.71112,-10.49976 -3.91414,-15.78591 -3.9831,-17.50188 -6.25519,-35.49023 -12.35789,-52.45142 -17.45725,-50.07739 -88.27737,-25.3891 -70.82011,24.68828 z"/>
<path d="m 304.91044,242.78836 c 21.59278,-0.61201 42.47023,-7.24198 63.20292,-12.67206 7.30938,-1.91439 14.6318,-3.77861 21.9477,-5.66791 49.31756,-12.06203 99.47296,-20.75536 150.0206,-25.60237 10.60955,-1.01735 21.25006,-1.68084 31.87508,-2.52125 45.40502,-2.44345 91.13592,-1.76884 136.22641,4.53151 6.31473,0.88233 12.58241,2.07371 18.87362,3.11056 21.66558,3.93999 42.71756,10.52599 63.0765,18.83496 3.67752,1.57947 7.3956,3.06343 11.08477,4.61468 0.29392,0.12359 1.15173,0.54706 0.86958,0.39854 -1.396,-0.73479 -3.1552,-0.98674 -4.21213,-2.15792 -5.42489,-6.01134 -9.99165,-12.7448 -14.98747,-19.1172 0.92753,-9.78599 1.90194,-19.56764 2.78258,-29.35796 0.23344,-2.59518 -3.81415,3.55746 -5.58921,5.46499 -3.1198,3.35261 -6.29225,6.65633 -9.38674,10.03231 -13.94425,15.21268 -15.51747,17.25065 -29.94865,33.81612 -24.62628,28.77542 -12.08869,14.22045 -37.621,43.65784 -34.74729,40.06402 21.9118,89.20411 56.65909,49.14008 v 0 c 25.71626,-29.65279 13.21262,-15.13298 37.52495,-43.54732 13.16228,-15.12462 15.4096,-17.9257 28.15864,-31.83279 2.17107,-2.36829 14.22636,-15.09169 17.17542,-18.56049 2.27305,-2.67364 5.57143,-4.88376 6.52688,-8.26048 3.05178,-10.78547 3.47355,-22.14708 5.21033,-33.22062 -5.20383,-7.02842 -9.78718,-14.56178 -15.6115,-21.08527 -1.63505,-1.83134 -4.25053,-2.46108 -6.42637,-3.59815 -4.4777,-2.33998 -9.50937,-3.58802 -14.00716,-5.88202 -25.58444,-10.3374 -52.01018,-18.55566 -79.22751,-23.36479 -7.39899,-1.19184 -14.77208,-2.5574 -22.19697,-3.57553 -49.96635,-6.85158 -100.61822,-7.62592 -150.91581,-4.80373 -11.44744,0.9197 -22.91164,1.6504 -34.34233,2.75909 -54.02945,5.24044 -107.63788,14.57645 -160.3485,27.51055 -7.50466,1.93885 -15.01642,3.85044 -22.51398,5.81655 -14.4621,3.79245 -28.96698,8.48762 -43.87974,10.14008 -53.03301,0 -53.03301,75 0,75 z"/>
<path d="m 458.27311,257.80679 c 0.25987,23.8622 0.38179,47.72591 0.47239,71.58957 0.24956,48.32436 -0.32764,96.64735 -0.68558,144.96966 -0.3928,53.03155 74.60514,53.58705 74.99794,0.5555 v 0 c 0.35998,-48.60246 0.93903,-97.20559 0.6871,-145.81011 -0.0904,-23.76865 -0.20732,-47.5375 -0.47185,-71.30462 0,-53.03301 -75,-53.03301 -75,0 z"/>
<path d="m 307.26504,354.2549 c 2.09825,2.31628 3.7638,4.08357 5.72983,6.63461 1.87057,2.42717 11.55989,16.06386 11.86197,16.48508 27.99687,39.03903 -9.90657,-13.92782 19.57022,27.28488 17.56127,22.61905 8.18681,11.18787 28.24786,34.19107 34.96411,39.87494 91.35579,-9.57179 56.39167,-49.44673 v 0 c -16.63716,-18.84808 -8.78142,-9.36998 -23.6373,-28.37606 -23.50961,-32.86862 2.46389,3.41687 -19.56339,-27.27535 -5.11244,-7.12352 -10.10095,-14.32226 -15.53377,-21.20995 -2.69504,-3.41676 -4.87045,-5.75641 -7.62793,-8.79992 -35.71764,-39.20141 -91.1568,11.31096 -55.43916,50.51237 z"/>
<path d="m 593.62771,279.68784 c -1.19751,4.91705 -1.77933,9.96169 -3.52107,14.74598 -0.93013,2.55494 -2.07523,5.02866 -3.23157,7.4895 -6.02911,12.83084 -6.84361,13.56091 -14.53683,27.05847 -15.36269,24.90592 -7.58738,12.4736 -23.32795,37.29569 -28.39413,44.79144 34.95054,84.9468 63.34467,40.15536 v 0 c 16.77803,-26.47583 8.33927,-12.95193 25.29653,-40.584 3.63968,-6.49787 7.47279,-12.89112 10.91905,-19.49361 5.64153,-10.80829 10.16521,-20.97147 13.98324,-32.52008 2.31742,-7.00962 2.45428,-9.35378 3.71502,-15.37804 0.28183,-1.34664 0.59743,-2.68599 0.89614,-4.02899 10.42295,-51.99867 -63.11428,-66.73895 -73.53723,-14.74028 z"/>
<path d="m 293.79072,497.24488 c 3.73371,26.87002 6.93214,53.79564 9.74206,80.77929 3.75317,39.17458 6.07411,78.5295 5.61811,117.899 -0.30096,25.98345 -1.3232,38.13792 -2.84858,64.10568 -3.16343,43.26399 -6.49065,86.51785 -10.193,129.73933 -4.52489,52.83962 70.20161,59.23878 74.7265,6.39916 v 0 c 3.75827,-43.90014 7.14473,-87.83252 10.33957,-131.77701 1.64169,-28.40639 2.67771,-40.52359 2.97333,-69.03872 0.4331,-41.77645 -2.02494,-83.53672 -6.02035,-125.10554 -2.80649,-26.88172 -5.90191,-53.72197 -9.71151,-80.4805 -5.28867,-52.76865 -79.9148,-45.28933 -74.62613,7.47931 z"/>
<path d="m 385.60641,543.00934 c 21.04388,-6.2971 42.73195,-10.02668 64.31766,-13.89807 41.29784,-6.8697 83.07434,-10.06564 124.87055,-11.70246 22.04129,-0.67303 44.09642,0.009 66.07921,1.6463 0.79219,0.0658 5.82246,0.47536 7.0591,0.6048 0.28156,0.0295 1.12151,0.14793 0.83881,0.13302 -2.06413,-0.10888 -5.74304,-1.1885 -6.78958,-1.7105 -3.60175,-1.79652 -6.86545,-4.2031 -10.29818,-6.30465 -2.61786,-3.38813 -5.23573,-6.77625 -7.8536,-10.16438 -0.60265,-1.41712 -0.95267,-2.97077 -1.80795,-4.25137 -0.3198,-0.47884 0.0703,1.14961 0.11954,1.72333 0.16727,1.95061 0.37947,3.89738 0.52982,5.84936 0.60644,7.87326 1.02149,15.60032 1.4905,23.50005 2.39864,42.52672 3.17056,85.11918 3.57505,127.70407 0.15142,46.81141 -0.88218,93.61643 -3.05683,140.37529 -1.73025,29.34583 -3.72919,58.75191 -8.524,87.78032 -0.82713,4.07271 -1.41388,7.7037 -2.66174,11.61562 -0.20408,0.63978 -0.59892,2.47463 -0.81959,1.84038 -0.26655,-0.7661 0.23695,-1.64487 0.64338,-2.34685 5.27492,-9.11086 5.42193,-7.09067 16.0891,-13.92911 1.66381,-0.49596 4.48324,0.17223 4.99142,-1.48789 0.42332,-1.38292 -2.78603,-0.7777 -4.1806,-1.16091 -3.15446,-0.86681 -6.32519,-1.67571 -9.46647,-2.58915 -17.60065,-5.11803 -35.01203,-10.88755 -52.44525,-16.53913 -7.46018,-2.42005 -14.92036,-4.8401 -22.38053,-7.26014 -50.44516,-16.36417 -73.58759,54.97605 -23.14243,71.34022 v 0 c 7.46602,2.42195 14.93205,4.84389 22.39807,7.26583 18.71973,6.06639 37.41445,12.37047 56.36569,17.6928 6.88421,1.93338 21.01629,5.71857 28.29799,6.11212 6.01808,0.32526 12.04488,-0.46169 18.06732,-0.69254 6.73917,-3.21319 14.1018,-5.35715 20.21752,-9.63956 4.21217,-2.94948 7.18693,-7.41518 10.1451,-11.62126 2.14774,-3.05374 3.58584,-6.5622 5.05685,-9.99356 3.61002,-8.421 5.00028,-17.64511 6.84685,-26.5386 5.14546,-31.89244 7.65414,-64.1335 9.4208,-96.37429 2.22695,-48.15522 3.30789,-96.35704 3.13393,-144.56611 -0.42116,-43.83258 -1.22415,-87.67276 -3.7042,-131.44493 -0.72029,-12.06629 -1.13436,-24.25474 -2.7526,-36.24898 -0.69755,-5.1702 -2.15303,-13.54358 -4.57346,-18.02454 -2.54351,-4.7088 -6.16398,-8.75067 -9.24597,-13.12601 -4.00619,-2.62902 -7.77634,-5.65887 -12.01855,-7.88707 -6.82635,-3.58551 -16.44195,-3.64681 -24.02434,-4.43071 -24.8144,-1.82965 -49.70941,-2.58393 -74.58779,-1.79253 -6.77429,0.27099 -13.55192,0.46862 -20.32289,0.81297 -38.45424,1.95566 -76.83487,5.83207 -114.84333,12.01283 -24.36577,4.38535 -48.82047,8.70754 -72.56146,15.86582 -50.80574,15.2078 -29.29866,87.05796 21.50708,71.85017 z"/>
<path d="m 386.01569,666.80478 c 20.3004,-5.03905 41.21349,-7.06366 61.97587,-9.16227 23.39249,-2.03968 46.88147,-3.41562 70.3711,-2.74877 10.31633,0.29287 14.61968,0.75602 24.53301,1.55511 52.86865,4.17203 58.76879,-70.59553 5.90014,-74.76756 v 0 c -12.25397,-0.94989 -16.95914,-1.45832 -29.74594,-1.7844 -26.25646,-0.66959 -52.5119,0.80996 -78.65714,3.13156 -24.95566,2.55864 -50.07363,5.14394 -74.40848,11.50088 -51.10647,14.16437 -31.07502,86.43982 20.03144,72.27545 z"/>
<path d="m 383.18978,779.05684 c -0.10358,0.0677 -0.43418,0.21233 -0.31076,0.20315 1.41493,-0.10531 2.8166,-0.34649 4.22769,-0.49468 5.32583,-0.55931 11.22541,-1.08323 16.50508,-1.44866 10.33344,-0.71523 14.91852,-0.848 25.55316,-1.32102 29.46617,-0.94686 58.90608,1.45095 88.23135,4.0529 4.16099,0.41879 8.32197,0.83757 12.48296,1.25635 52.76754,5.2997 60.26244,-69.32487 7.4949,-74.62457 v 0 c -4.45475,-0.44654 -8.90949,-0.89307 -13.36424,-1.33961 -32.6405,-2.88339 -65.40944,-5.43948 -98.20331,-4.26984 -19.9561,0.9008 -40.02349,1.6723 -59.75823,4.9711 -51.62931,12.1208 -34.48791,85.13568 17.1414,73.01488 z"/>
</svg>
