<?xml version="1.0" ?>
<svg xmlns="http://www.w3.org/2000/svg" width="1000" height="1000">
<path d="m 408.09325,145.68207 c 12.7725,6.03437 24.96368,13.51868 36.37227,21.8455 3.97215,2.89917 7.79459,5.99808 11.69188,8.99713 14.83039,12.52639 7.69389,6.27527 21.43908,18.71955 39.37571,35.52539 89.6162,-20.16028 50.24048,-55.68567 v 0 c -16.62001,-14.95131 -7.91715,-7.38519 -26.15918,-22.64005 -4.98712,-3.78586 -9.87853,-7.70123 -14.96136,-11.35758 -14.93458,-10.743229 -31.37048,-20.816979 -48.16816,-28.404405 -1.87299,-0.846021 -3.81874,-1.520746 -5.7281,-2.281119 -50.06786,-17.484562 -74.79476,53.322074 -24.72691,70.806644 z"/>
<path d="m 86.42759,257.62885 c 1.094365,14.15688 5.07629,27.8761 9.282945,41.36687 3.783308,12.1331 7.909915,23.90903 12.025185,35.93828 13.1061,36.26768 30.30269,70.90769 48.95585,104.60473 25.71753,46.38005 91.30882,10.00996 65.59128,-36.37008 v 0 c -16.56247,-29.81134 -31.84145,-60.46804 -43.58911,-92.52372 -4.5581,-13.308 -6.96881,-20.09401 -11.14477,-33.19542 -2.40155,-7.53448 -3.6752,-11.50199 -5.30485,-18.76316 -0.57493,-2.56169 -0.68019,-3.57254 -0.96324,-5.74629 -3.31548,-52.92927 -78.168769,-48.24048 -74.85329,4.68879 z"/>
<path d="m 283.64002,295.21 c 24.79584,-8.52934 50.01716,-15.69982 75.30891,-22.58311 51.41151,-13.43007 104.03868,-21.5659 156.76895,-27.69071 12.33775,-1.43307 24.70229,-2.62515 37.05344,-3.93772 45.74616,-4.17609 91.67811,-6.82622 137.6278,-6.82044 23.37917,0.003 28.84469,0.48592 51.42126,1.50174 24.17862,1.81471 48.72219,3.06878 72.3293,9.03959 0.89995,0.28031 3.48095,0.98809 4.64352,1.5873 0.12132,0.0625 -0.28307,0.0115 -0.40686,-0.046 -1.17631,-0.54606 -2.43376,-0.97824 -3.47241,-1.75484 -2.60866,-1.95054 -5.44968,-3.77144 -7.40378,-6.37744 -2.84624,-3.79577 -4.51157,-8.34754 -6.76736,-12.5213 -0.43794,-3.05886 -0.87587,-6.11771 -1.3138,-9.17656 0.0623,-1.15122 0.32194,-2.30871 0.18682,-3.45367 -0.038,-0.32198 -0.33081,0.55772 -0.49564,0.83692 -0.58317,0.98779 -1.16509,1.97631 -1.74835,2.96405 -7.82501,13.25163 -3.29179,5.81716 -14.12069,22.60791 -14.65714,21.457 -30.33211,42.18901 -45.88131,62.99909 -31.74004,42.48612 28.34439,87.37331 60.08443,44.8872 v 0 c 16.61312,-22.24141 33.36621,-44.39751 48.92919,-67.39787 6.78051,-10.62172 12.96338,-19.64095 18.65493,-30.75072 4.21107,-8.21991 9.18713,-19.95291 9.32292,-29.50707 0.0632,-4.4455 -0.75929,-8.85943 -1.13894,-13.28915 -2.52809,-5.19745 -4.28429,-10.84737 -7.58428,-15.59235 -7.57018,-10.88496 -21.63875,-15.47066 -33.7179,-18.87983 -28.47837,-6.79558 -57.59944,-9.38545 -86.77936,-11.10173 -24.6304,-1.07621 -30.34122,-1.58266 -55.77334,-1.56819 -48.25747,0.0275 -96.49526,2.81726 -144.53669,7.23488 -12.84433,1.37004 -25.7028,2.61344 -38.53299,4.11013 -56.20778,6.55686 -112.2822,15.3602 -167.06988,29.736 -28.2065,7.69741 -56.39485,15.6281 -83.9309,25.50561 -49.10028,20.04153 -20.75727,89.47981 28.34301,69.43827 z"/>
<path d="m 313.27106,325.31469 c -3.42558,10.76592 -6.56102,21.57058 -10.97946,31.9953 -1.98975,4.69455 -4.17511,9.30376 -6.26266,13.95564 -2.59027,5.58085 -5.15001,11.17597 -7.77081,16.74254 -6.67343,14.17434 -10.82446,22.84616 -18.08073,36.83126 -8.78538,16.93219 -18.16447,33.54357 -27.52006,50.16362 -26.01104,46.21607 39.34836,83.00124 65.3594,36.78517 v 0 c 9.91622,-17.62191 19.83958,-35.24137 29.13877,-53.20071 7.57849,-14.63618 12.19031,-24.24482 19.13999,-39.0212 2.78453,-5.92045 5.50315,-11.87166 8.25472,-17.80749 2.57075,-5.8158 5.28318,-11.57101 7.71224,-17.44739 4.92102,-11.90487 5.81584,-15.07022 9.32037,-26.27711 0.86686,-2.77206 3.68227,-11.91898 4.46213,-14.91297 0.4689,-1.80018 0.80078,-3.63329 1.20117,-5.44993 8.73753,-52.30828 -65.23755,-64.665 -73.97507,-12.35673 z"/>
<path d="m 603.43946,361.70893 c 11.15929,7.19096 20.47077,16.82456 29.75856,26.2045 8.95864,9.40715 17.67939,19.17446 24.68102,30.16163 2.83758,4.45281 3.33119,5.70396 5.54284,10.14897 0.50279,1.18555 1.00558,2.37109 1.50838,3.55663 21.52972,48.46618 90.07126,18.01855 68.54153,-30.44763 v 0 c -1.1417,-2.51645 -2.28341,-5.03289 -3.42512,-7.54933 -4.35502,-8.26428 -5.21419,-10.34608 -10.52249,-18.42722 -9.5728,-14.57323 -21.05586,-27.77793 -33.13006,-40.31247 -13.47626,-13.51861 -27.21765,-27.03913 -43.54192,-37.14446 -45.12004,-27.86901 -84.53278,35.94036 -39.41274,63.80938 z"/>
<path d="m 423.26757,416.64649 c -0.94846,9.70322 -4.53147,18.69167 -8.06635,27.69059 -2.05273,5.22573 -4.17308,10.42465 -6.25961,15.63697 -16.72639,39.69547 -35.03469,78.94735 -57.87164,115.55191 -5.57462,8.93536 -11.59948,17.58183 -17.39923,26.37274 -18.82367,27.8123 -40.65082,53.34731 -64.16625,77.27107 -17.00443,17.29971 -30.193,29.70147 -49.20613,44.66039 -8.06517,6.34542 -16.58652,12.08854 -24.87977,18.13281 -7.59334,5.04501 -15.18667,10.09001 -22.78001,15.13501 -44.13141,29.4095 -2.54009,91.82074 41.59132,62.41123 v 0 c 8.51657,-5.69076 17.03314,-11.38152 25.54971,-17.07228 9.69012,-7.14754 19.64525,-13.9491 29.07037,-21.44262 20.91039,-16.62498 36.79293,-31.50163 55.43331,-50.59678 26.40711,-27.05135 50.87819,-55.93855 72.0568,-87.29746 6.48565,-9.89578 13.22279,-19.63122 19.45694,-29.68734 24.70015,-39.84308 44.68022,-82.43999 62.78912,-125.60636 7.92218,-19.85399 16.61674,-39.77342 19.02061,-61.22583 7.02443,-52.56574 -67.31475,-62.4998 -74.33919,-9.93405 z"/>
<path d="m 434.86567,459.87059 c 8.33865,6.53922 15.53647,14.50447 22.97186,22.01896 26.6464,27.06241 52.35597,55.02167 78.16341,82.87877 29.64629,32.46945 58.67133,65.4969 87.81922,98.41221 17.90601,20.33761 35.80328,40.67597 54.73896,60.06572 10.55618,11.01502 21.99249,20.39795 34.65772,28.84104 2.30438,1.3982 4.58228,2.841 6.91314,4.19458 5.43187,3.1544 11.66168,6.43353 17.16662,9.39461 12.35311,6.64469 24.72309,13.25077 37.12845,19.79765 17.49985,9.20369 34.68929,18.98016 51.93141,28.65296 46.25237,25.94646 82.94619,-39.46427 36.69383,-65.41072 v 0 c -17.80223,-9.98622 -35.5541,-20.07198 -53.62263,-29.57336 -18.41845,-9.71836 -36.9013,-19.36022 -54.97615,-29.70316 -8.18633,-5.2544 -15.49322,-11.62246 -22.25609,-18.61638 -18.09238,-18.49429 -35.10588,-37.97577 -52.22635,-57.36516 -29.5201,-33.33563 -58.91603,-66.7847 -88.94996,-99.66057 -26.36636,-28.45984 -52.63867,-57.01851 -79.8688,-84.65995 -10.32221,-10.43195 -20.45222,-21.1428 -32.23623,-29.96923 -42.92282,-31.14693 -86.97123,29.5551 -44.04841,60.70203 z"/>
<path d="m 335.56353,685.8801 c 3.38152,26.79554 9.89556,53.06885 16.4076,79.23847 6.04987,23.2872 12.36835,46.50383 18.28509,69.82549 13.04673,51.40314 85.74175,32.95227 72.69502,-18.45087 v 0 c -5.89437,-23.21381 -12.16283,-46.3297 -18.20458,-69.50531 -5.65546,-22.67224 -11.34779,-45.41166 -14.55699,-68.58708 -5.28866,-52.76865 -79.9148,-45.28935 -74.62614,7.4793 z"/>
<path d="m 405.92795,727.55955 c 16.11098,-8.20349 33.66664,-12.97605 51.0252,-17.71323 27.77844,-6.68095 56.08578,-11.55082 84.58883,-13.76603 5.00121,-0.38869 10.01576,-0.58062 15.02363,-0.87093 17.35193,-0.64903 34.79063,-0.52094 51.95257,2.32724 1.14214,0.24727 2.91106,0.54966 4.13225,1.01055 0.6171,0.23291 -1.31667,-0.24323 -1.901,-0.54917 -2.21071,-1.15744 -4.62732,-2.07323 -6.4859,-3.73833 -3.36431,-3.01408 -5.99819,-6.75534 -8.99729,-10.13301 -1.43649,-4.2097 -2.87298,-8.41941 -4.30947,-12.62911 -0.11101,-0.73728 0.0152,-2.87111 -0.33304,-2.21183 -0.63467,1.2017 -0.39259,2.68987 -0.62647,4.02859 -0.41972,2.4025 -0.83991,4.80571 -1.33414,7.19399 -2.27463,10.99171 -2.42003,10.74037 -5.59749,22.32845 -1.54057,4.85989 -3.03059,9.7361 -4.6217,14.57968 -2.81174,8.55943 -9.02739,26.6004 -12.01046,34.8418 -4.34321,11.9991 -8.06369,22.04701 -13.37096,33.59574 -2.14635,4.67049 -4.59067,9.19822 -6.886,13.79733 -8.89258,15.99186 -4.46509,8.38053 -13.21864,22.87101 -27.32776,45.4499 36.94811,84.09719 64.27587,38.64729 v 0 c 10.70157,-17.86638 5.27564,-8.44748 16.18899,-28.30767 2.90587,-5.93251 5.98513,-11.78319 8.71763,-17.79752 5.91052,-13.00926 10.21888,-24.57814 15.07332,-38.00373 3.13457,-8.66906 9.8815,-28.25112 12.77008,-37.12641 1.89283,-5.81583 3.65279,-11.67407 5.47919,-17.5111 1.40282,-5.24039 2.91657,-10.45233 4.20846,-15.72116 1.66102,-6.77422 3.48398,-15.90648 4.59912,-22.97226 0.68272,-4.3258 2.0672,-14.45057 1.42548,-18.48094 -0.93605,-5.87889 -3.12948,-11.48722 -4.69421,-17.23084 -3.48091,-4.25481 -6.4616,-8.97356 -10.44273,-12.76443 -7.3294,-6.97912 -20.55963,-9.89924 -30.24194,-11.78301 -22.56981,-3.50565 -45.41366,-4.23373 -68.22423,-3.12767 -5.94606,0.36411 -11.90026,0.61347 -17.83818,1.09231 -32.75591,2.64152 -65.28517,8.25353 -97.181,16.09376 -21.37661,5.91197 -42.91585,12.0069 -62.80407,22.03982 -48.07677,22.38579 -16.41848,90.37662 31.6583,67.99082 z"/>
<path d="m 426.02969,860.02701 c 15.58741,-3.51525 31.25018,-6.98913 47.16574,-8.66553 4.30666,-0.45362 8.63661,-0.64921 12.95491,-0.97381 20.95246,-0.86977 41.6861,2.47987 62.2888,5.79317 52.36379,8.39845 64.24099,-65.65513 11.8772,-74.05358 v 0 c -26.5027,-4.24033 -53.2101,-8.08269 -80.14319,-6.50103 -5.7444,0.47991 -11.50371,0.8062 -17.23321,1.43973 -18.37025,2.03124 -36.47368,5.94777 -54.47126,10.04595 -51.55876,12.41751 -33.99775,85.3326 17.56101,72.9151 z"/>
</svg>
