<?xml version="1.0" ?>
<svg xmlns="http://www.w3.org/2000/svg" viewBox="0 0 1000 1000">
<path d="m 421.72003,129.00843 c 1.69743,1.00026 3.4187,1.96112 5.09228,3.00079 4.40671,2.73756 11.81974,7.75132 15.6079,10.42495 6.88635,4.86031 14.2997,10.2274 20.56795,15.88957 2.99287,2.7035 5.70234,5.7051 8.55351,8.55765 2.24274,3.05115 4.48548,6.10231 6.72822,9.15347 32.66447,41.77956 91.7497,-4.41498 59.08523,-46.19455 v 0 c -4.48073,-5.5485 -8.96145,-11.097 -13.44217,-16.6455 -4.5371,-4.35472 -8.9007,-8.89773 -13.61131,-13.06415 -15.32601,-13.555485 -32.66164,-24.808116 -50.05784,-35.472205 -45.5023,-27.240418 -84.02607,37.109555 -38.52377,64.349975 z"/>
<path d="m 129.88946,216.85176 c 1.81944,13.23514 6.1685,25.97889 10.10823,38.69291 5.82582,18.80065 3.75802,12.25563 10.57344,32.23358 8.37424,23.4073 19.32632,45.7483 30.09006,68.11542 23.00101,47.7855 90.5799,15.25716 67.5789,-32.52833 v 0 c -9.47614,-19.68243 -19.2047,-39.30291 -26.70303,-59.85304 -6.36889,-18.5777 -4.20093,-11.80023 -9.83939,-29.97021 -2.39478,-7.71718 -5.15935,-15.57741 -6.98686,-23.47801 -0.15199,-0.65708 -0.2249,-1.32997 -0.33736,-1.99496 -6.21026,-52.66813 -80.69425,-43.88549 -74.48399,8.78264 z"/>
<path d="m 324.8819,279.04549 c 2.37128,-0.7661 4.7511,-1.50624 7.11383,-2.29831 13.15019,-4.40842 26.20652,-9.0588 39.45536,-13.17616 18.24014,-5.6685 23.46814,-6.94092 42.64795,-12.25163 51.23673,-13.2817 103.04828,-24.77047 155.45098,-32.41635 10.33664,-1.50818 20.71649,-2.70367 31.07474,-4.0555 35.12486,-4.12143 70.40026,-7.11241 105.75348,-8.2678 17.79392,-0.58153 21.17863,-0.4332 38.38556,-0.39552 10.8489,0.29478 17.05539,0.31638 27.55879,1.10352 3.06595,0.22977 11.30964,0.98143 14.95643,1.91243 0.16161,0.0413 -0.0765,0.52513 -0.22411,0.44738 -4.66554,-2.45835 -9.17095,-5.20929 -13.75643,-7.81394 -3.19873,-7.94764 -6.39746,-15.89527 -9.59619,-23.8429 -0.22753,-1.38674 0.47755,-4.95321 -0.68261,-4.16022 -3.22087,2.20153 -4.62974,6.28099 -6.97808,9.39645 -4.17557,5.53961 -8.38207,11.05588 -12.59337,16.56839 -27.71926,36.28403 -6.52414,8.16195 -36.54549,48.30686 -29.16798,38.52415 -14.27014,19.33213 -44.70933,57.56378 -33.02043,41.4988 25.66774,88.19675 58.68818,46.69794 v 0 c 31.63456,-39.78006 16.28569,-19.98597 46.0876,-59.35047 6.35022,-8.49462 12.6517,-17.0259 19.05065,-25.48387 4.34398,-5.74178 25.85713,-33.56721 31.14541,-40.84115 6.35372,-8.73946 20.66777,-27.87438 20.91115,-39.02859 0.26129,-11.97486 -5.43066,-23.33174 -8.146,-34.99761 -6.43916,-4.73958 -12.36232,-10.27511 -19.31748,-14.21874 -4.40629,-2.49841 -16.82947,-4.27218 -22.00295,-4.89591 -14.50418,-1.74866 -29.13718,-2.05752 -43.7246,-2.36325 -18.66135,-0.0206 -22.54978,-0.17776 -41.75222,0.46565 -37.52644,1.25739 -74.97128,4.42839 -112.25346,8.83337 -11.09318,1.45927 -22.20957,2.75187 -33.27955,4.37782 -55.12732,8.09703 -109.64304,20.15956 -163.53996,34.18483 -8.2436,2.28855 -16.50996,4.49667 -24.73081,6.86566 -21.79323,6.28012 -43.29019,13.48853 -64.71124,20.92318 -51.06065,14.32865 -30.79688,86.53931 20.26377,72.21066 z"/>
<path d="m 381.10839,281.29138 c -1.95169,1.51969 -4.00197,2.92061 -5.85508,4.55906 -9.79944,8.66432 -18.18755,18.93917 -26.76523,28.75577 -19.7645,22.61919 -7.33461,8.56001 -29.1942,33.04668 -35.02826,38.72955 -71.29593,76.38073 -109.24284,112.26758 -7.7576,7.33646 -15.67524,14.50183 -23.51285,21.75275 -19.43483,17.36685 -38.851,34.7531 -58.17038,52.24821 -39.309009,35.59918 11.03584,91.19051 50.34485,55.59133 v 0 c 19.52011,-17.6789 39.147,-35.23778 58.77258,-52.79958 8.22525,-7.61747 16.53345,-15.14634 24.67573,-22.85242 39.27663,-37.17245 76.82583,-76.15875 113.08716,-116.26668 21.35176,-23.9272 10.70182,-11.85478 29.69928,-33.6184 3.15934,-3.61937 6.29634,-7.2584 9.48104,-10.85548 2.76017,-3.11759 5.77066,-6.01947 8.37406,-9.26912 0.0402,-0.0502 -0.10414,-0.0753 -0.15622,-0.1129 44.15656,-29.37173 2.61865,-91.81853 -41.5379,-62.4468 z"/>
<path d="m 282.74777,461.26502 c 0.95425,20.55666 3.88131,40.94786 6.47408,61.34296 4.82645,36.82446 7.65972,73.91311 7.61895,111.06541 -0.009,8.08048 -0.27708,16.15859 -0.41562,24.23789 -1.2854,38.62242 -5.21043,77.08829 -9.7793,115.4402 -1.0678,8.60211 -2.22693,17.19236 -3.38896,25.78208 -7.1087,52.55442 67.21446,62.60764 74.32316,10.05323 v 0 c 1.21525,-8.98541 2.42688,-17.97146 3.54003,-26.97026 4.86336,-40.88767 9.0048,-81.90071 10.29505,-123.0792 0.13877,-8.88211 0.41919,-17.76315 0.41632,-26.64635 -0.0129,-39.91887 -3.03983,-79.77234 -8.20853,-119.34223 -2.41982,-19.03128 -5.20583,-38.05438 -6.06663,-57.23915 -3.78685,-52.89763 -78.5954,-47.54222 -74.80855,5.35542 z"/>
<path d="m 504.3119,391.83464 c -0.12179,0.13264 -0.54174,0.43428 -0.36537,0.39793 1.48598,-0.3062 2.91782,-0.83352 4.3834,-1.22589 3.31973,-0.88875 6.63239,-1.80709 9.97214,-2.61735 4.47782,-1.08637 8.96728,-2.12901 13.47751,-3.0718 15.5709,-3.25486 20.32752,-3.84056 36.56885,-6.50575 29.39162,-4.2493 59.026,-7.21245 88.74179,-7.56846 17.20464,-0.20612 22.86415,0.30617 39.7613,1.11133 16.51541,0.93512 32.90806,3.10649 49.20846,5.83867 52.31413,8.70234 64.62111,-65.28102 12.30697,-73.98337 v 0 c -19.23254,-3.17922 -38.57019,-5.71946 -58.05222,-6.7753 -19.63384,-0.88324 -25.74556,-1.43926 -45.75673,-1.14857 -32.95619,0.47874 -65.8231,3.74974 -98.41438,8.52542 -19.16543,3.17527 -38.22634,6.42041 -57.09633,11.0916 -6.581,1.6291 -16.41827,4.28071 -23.01684,6.71846 -2.46079,0.90911 -4.80967,2.09643 -7.2145,3.14465 -46.71744,25.09942 -11.22149,91.16785 35.49595,66.06843 z"/>
<path d="m 575.09864,353.28269 c 0.16083,-0.54827 0.92702,-2.00378 0.48249,-1.64481 -1.24456,1.00501 -1.98629,2.5099 -3.04205,3.71171 -2.05784,2.34254 -4.14347,4.66228 -6.29595,6.91816 -3.25728,3.41374 -6.56167,6.78372 -9.93034,10.08758 -10.78873,10.58117 -17.10795,16.16356 -28.50379,26.58839 -21.43784,19.1817 -43.15778,38.04082 -64.57986,57.24046 -39.49013,35.39816 10.57042,91.24564 50.06055,55.84748 v 0 c 21.61551,-19.37851 43.54874,-38.39425 65.1656,-57.77109 14.89653,-13.64949 29.88709,-27.20472 43.68595,-41.98881 4.72279,-5.06 11.69022,-12.92089 15.78969,-18.95051 2.01291,-2.96064 3.69062,-6.13581 5.53593,-9.20372 21.80352,-48.34362 -46.56469,-79.17847 -68.36822,-30.83484 z"/>
<path d="m 437.00339,503.98197 c 4.93634,20.85492 6.02714,42.44313 7.56133,63.75021 2.46786,43.35412 3.32971,86.7838 3.88318,130.19862 0.26779,25.38852 0.32294,50.77854 0.3237,76.16825 0.002,53.03301 75.00175,53.03054 75,-0.002 v 0 c -9.2e-4,-25.70834 -0.0574,-51.41701 -0.32982,-77.12413 -0.57517,-44.90326 -1.47253,-89.82257 -4.07319,-134.66067 -2.00471,-27.50582 -3.53903,-55.46091 -11.22996,-82.09486 -16.80443,-50.30021 -87.93967,-26.53516 -71.13524,23.76505 z"/>
<path d="m 501.9566,532.19789 c 19.70097,-6.58792 40.29118,-10.02406 60.7256,-13.44282 33.13279,-5.40702 66.59315,-8.24426 100.07443,-10.33709 17.41519,-1.04671 34.86455,-1.40758 52.30855,-1.30621 0.74116,0.0319 1.48379,0.0394 2.22348,0.0959 0.80638,0.0616 -1.62686,-0.0348 -2.41752,-0.20486 -1.48288,-0.31887 -3.01191,-0.55662 -4.39466,-1.18002 -10.71472,-4.83067 -8.77129,-4.60744 -17.15171,-13.58064 -1.06961,-2.1185 -2.13922,-4.237 -3.20883,-6.3555 -0.12058,-0.25697 -0.3687,-1.05466 -0.36174,-0.7709 0.0213,0.86714 0.30033,1.7094 0.40589,2.57035 0.15995,1.30457 0.28623,2.61343 0.39034,3.92364 0.45416,5.71538 0.64644,10.5368 0.94514,16.3884 1.70901,35.22568 0.33904,70.4766 -1.7625,105.64771 -3.50846,46.0208 -7.73182,91.98076 -11.29587,137.99799 -2.71292,27.57198 -3.09897,55.51805 -8.25069,82.80348 -9.52679,52.1703 64.25316,65.64321 73.77995,13.47291 v 0 c 0.56519,-3.16494 1.20438,-6.31755 1.69556,-9.49482 4.14432,-26.80821 5.04883,-54.01407 7.55129,-80.99087 3.59784,-46.46535 7.88388,-92.87118 11.38789,-139.34314 0.45959,-7.78569 0.9979,-15.56713 1.37876,-23.35706 1.47554,-30.17929 1.70023,-60.43063 0.41496,-90.62042 -0.51286,-9.75704 -0.91408,-19.51259 -2.32909,-29.19266 -0.41806,-2.85998 -1.7208,-9.76022 -2.66383,-12.34335 -1.2394,-3.39499 -2.91638,-6.61383 -4.37457,-9.92075 -3.15994,-3.62377 -5.80733,-7.76813 -9.47983,-10.8713 -9.02914,-7.62942 -20.7357,-9.49989 -32.06451,-9.67287 -19.14992,-0.10265 -38.30517,0.29634 -57.42315,1.45224 -36.07328,2.27148 -72.12081,5.3715 -107.81437,11.22821 -25.04448,4.23004 -50.2438,8.63231 -74.28641,17.05443 -49.74501,18.38296 -23.74757,88.73304 25.99744,70.35007 z"/>
<path d="m 503.11018,689.41576 c 14.84649,-3.18119 29.66859,-6.52642 44.67723,-8.87628 4.71349,-0.73798 9.44904,-1.32743 14.17356,-1.99114 29.33898,-3.57621 58.90992,-2.04821 88.25244,0.49246 11.68059,0.98209 23.25495,2.75889 34.75622,4.97404 52.09336,9.9389 66.14908,-63.73224 14.05572,-73.67114 v 0 c -14.03758,-2.65866 -28.1577,-4.83373 -42.40553,-6.02879 -34.98933,-2.97344 -70.24192,-4.51225 -105.19347,-0.023 -5.51953,0.78959 -11.05161,1.49592 -16.55859,2.36876 -16.00351,2.53653 -31.8226,6.05339 -47.65601,9.45955 -51.82779,11.24189 -35.92937,84.53745 15.89843,73.29557 z"/>
<path d="m 490.29747,819.25445 c 19.40571,-0.58798 38.74209,-2.541 58.0931,-4.02735 19.91964,-1.41283 39.91633,-2.00552 59.87229,-1.031 11.54536,0.5638 15.83797,1.1215 27.19447,2.23665 12.68779,1.46239 25.31593,3.37571 37.97677,5.04392 52.58004,6.91663 62.36162,-67.44277 9.78158,-74.3594 v 0 c -13.51105,-1.77407 -26.9835,-3.84191 -40.531,-5.33547 -13.60212,-1.30093 -18.3308,-1.91658 -32.2056,-2.55295 -22.61179,-1.03708 -45.26636,-0.39213 -67.83485,1.21871 -18.43327,1.41709 -36.85292,3.29715 -55.33765,3.86655 -52.99082,2.11487 -49.99993,77.05521 2.99089,74.94034 z"/>
</svg>
