<?xml version="1.0" ?>
<svg xmlns="http://www.w3.org/2000/svg" viewBox="0 0 1000 1000">
<path d="m 410.35474,126.6253 c 17.5954,5.88322 35.38328,11.3529 52.25071,19.16852 4.78885,2.21894 9.44897,4.70575 14.17345,7.05863 5.10665,2.83284 10.2133,5.66568 15.31995,8.49852 46.43364,25.62063 82.66669,-40.04646 36.23305,-65.667091 v 0 c -6.12752,-3.365827 -12.25504,-6.731654 -18.38256,-10.097481 -6.03402,-2.952385 -11.98801,-6.074292 -18.10206,-8.857156 -19.41398,-8.836443 -39.75112,-15.318011 -59.98565,-21.954163 -50.80578,-15.207669 -72.31267,56.642551 -21.50689,71.850221 z"/>
<path d="m 169.01464,206.24319 c -0.3488,23.92452 1.3244,47.86048 5.84645,71.38323 1.48761,7.73824 3.46896,15.37335 5.20344,23.06003 5.5767,21.14904 11.32704,42.2777 18.01566,63.10842 2.12484,6.6175 4.44361,13.17115 6.66542,19.75673 16.99441,50.23634 88.03932,26.20262 71.04492,-24.03372 v 0 c -1.99062,-5.86658 -4.07365,-11.70261 -5.97186,-17.59973 -6.16306,-19.14657 -11.45262,-38.56949 -16.6513,-57.99402 -1.41839,-6.06342 -3.02858,-12.08515 -4.25517,-18.19026 -3.93569,-19.58918 -5.24165,-39.54241 -4.89756,-59.49068 0,-53.033 -75,-53.033 -75,0 z"/>
<path d="m 351.39824,255.35489 c 0.43405,-0.21313 0.85266,-0.46114 1.30217,-0.63939 7.41251,-2.93933 15.32996,-5.3249 22.89308,-7.70784 19.90432,-6.27132 20.04813,-6.10728 41.79235,-12.20773 39.53748,-10.50025 79.63757,-19.32308 120.32039,-24.01153 25.75586,-2.9682 31.58006,-2.64956 57.00514,-3.47086 38.95764,-0.11752 77.8192,3.82026 116.10075,10.88128 10.75715,2.00222 21.33086,4.79923 31.63674,8.45601 -13.16793,-7.32474 -12.38381,-5.16221 -21.30253,-25.91716 -1.35481,-3.15283 0.45294,-6.97823 -0.46714,-10.28418 -0.25311,-0.90945 -1.26315,1.41239 -1.78259,2.20064 -2.16836,3.29046 -4.18102,6.68092 -6.27153,10.02138 -13.39809,20.49829 -28.19311,40.02922 -42.24872,60.07055 -6.27309,8.94455 -12.40757,17.98552 -18.61136,26.97828 -30.10809,43.6578 31.63336,86.23706 61.74145,42.57927 v 0 c 5.96869,-8.65778 11.8679,-17.36388 17.90609,-25.97333 15.16104,-21.61708 31.15692,-42.6625 45.42291,-64.89876 5.06251,-8.57726 13.97792,-22.02549 16.45853,-32.21387 1.56946,-6.44612 3.66036,-13.38189 1.99265,-19.80329 -4.94945,-19.0576 -11.93929,-27.26762 -27.85104,-33.47491 -14.05269,-4.95069 -28.46002,-8.78599 -43.11459,-11.51401 -4.83862,-0.88051 -9.6639,-1.83771 -14.51585,-2.64154 -38.85905,-6.43783 -78.28615,-9.53085 -117.66842,-9.42215 -29.27319,1.05764 -35.46928,0.70471 -65.02054,4.17808 -43.95626,5.16649 -87.29773,14.67434 -130.0221,26.0573 -22.71697,6.39456 -23.99412,6.53631 -44.86306,13.14206 -11.59684,3.67081 -23.26938,7.39297 -34.31935,12.53277 -1.45278,0.67575 -2.82721,1.50856 -4.24081,2.26283 -45.83473,26.67729 -8.10735,91.49738 37.72738,64.8201 z"/>
<path d="m 324.56375,338.77951 c -0.34041,2.56584 -0.81269,5.11762 -1.02124,7.69753 -1.02515,12.68197 -0.0102,25.43861 1.1133,38.07 0.93709,10.53607 2.69603,26.2573 3.81492,36.58287 4.08675,36.11124 10.32852,72.0084 18.7773,107.35927 1.39591,5.84071 2.96849,11.63779 4.45274,17.45668 1.39626,4.90874 2.79252,9.81748 4.18878,14.72622 14.55626,50.99623 86.67582,30.41056 72.11956,-20.58566 v 0 c -1.21726,-4.24744 -2.43453,-8.49488 -3.65179,-12.74232 -1.3132,-5.10768 -2.70836,-10.19498 -3.93962,-15.32303 -7.82391,-32.58569 -13.61364,-65.68092 -17.38398,-98.97571 -1.2189,-11.23489 -2.5621,-23.16757 -3.61509,-34.45818 -0.36974,-3.96455 -0.73167,-7.93075 -0.99286,-11.90393 -1.17783,-17.91646 0.0831,-1.09531 -0.31707,-12.15114 -0.004,-0.1043 -0.10712,-0.17917 -0.16068,-0.26876 10.94873,-51.89051 -62.43554,-67.37435 -73.38427,-15.48384 z"/>
<path d="m 470.30101,357.68885 c 13.72224,-4.68886 28.17523,-6.53039 42.52667,-8.0703 16.12743,-1.3497 32.33049,-1.64157 48.48985,-0.81064 3.62671,0.26662 7.26617,0.43625 10.885,0.80769 0.20046,0.0206 -0.40455,4.5e-4 -0.60383,-0.0295 -0.95242,-0.14314 -1.89842,-0.32614 -2.84763,-0.48921 -11.30805,-4.43004 -11.14522,-3.09523 -20.77909,-14.26909 -1.75024,-2.03001 -2.40869,-4.79137 -3.72587,-7.12574 -0.0441,-0.0781 -0.26847,-0.0331 -0.26306,0.0564 0.10469,1.7328 0.42391,3.44658 0.57916,5.17558 0.26277,2.92642 0.44982,5.85914 0.67473,8.78871 1.01789,28.61592 0.92657,57.36751 -1.30682,85.9318 -0.53598,6.85499 -1.34541,13.68585 -2.01812,20.52878 -2.22019,18.6573 -6.25357,37.05285 -11.68808,55.02917 -1.66173,5.49667 -3.60177,10.90533 -5.40266,16.35799 -16.4909,50.40387 54.79093,73.72553 71.28184,23.32166 v 0 c 2.1644,-6.66708 4.50145,-13.28056 6.49319,-20.00124 6.53594,-22.05402 11.31236,-44.6186 13.96616,-67.47496 0.74828,-7.82358 1.64607,-15.63431 2.24484,-23.47075 2.44475,-31.99605 2.54713,-64.20507 1.1872,-96.24813 -0.60393,-7.23959 -0.99517,-14.12812 -2.20654,-21.27413 -0.50018,-2.95064 -0.89386,-5.95096 -1.86028,-8.78335 -1.39225,-4.08043 -2.62094,-8.382 -5.18038,-11.85151 -9.58688,-12.9957 -11.46808,-12.21538 -23.92619,-17.48179 -1.65682,-0.33873 -3.3036,-0.73093 -4.97045,-1.01619 -5.53476,-0.94719 -11.22238,-0.82089 -16.79232,-1.38882 -20.16283,-0.98394 -40.38019,-0.6545 -60.49222,1.17371 -19.95288,2.26463 -39.70211,5.07543 -58.74951,11.72302 -50.12741,17.31309 -25.643,88.20395 24.48441,70.89086 z"/>
<path d="m 381.61153,462.32475 c 16.09513,-1.77867 32.14985,-3.90236 48.25695,-5.59409 13.01873,-1.18935 26.06493,-2.26345 39.14314,-2.48987 4.73296,-0.0819 9.46733,0.0202 14.201,0.0303 53.033,0.006 53.04109,-74.99428 0.008,-75 v 0 c -5.71339,0.009 -11.42791,-0.0867 -17.14018,0.027 -14.72479,0.29293 -29.41508,1.48851 -44.07279,2.84565 -15.26408,1.61372 -30.49663,3.48151 -45.72783,5.37076 -52.89883,3.77003 -47.5672,78.58028 5.33163,74.81025 z"/>
<path d="m 422.37948,562.62061 c 16.56247,-4.56994 33.46251,-8.04091 50.61286,-9.41282 5.32491,-0.42595 10.67103,-0.52326 16.00655,-0.78489 22.05636,0.39989 11.11356,-0.31469 32.83029,2.11473 52.75591,5.41424 60.41281,-69.19388 7.6569,-74.60812 v 0 c -30.06178,-2.88843 -15.2218,-2.12814 -44.51379,-2.39844 -6.91719,0.39715 -13.84953,0.58559 -20.75158,1.19143 -21.96562,1.92807 -43.65312,6.4114 -64.81982,12.50495 -50.4826,16.24831 -27.50401,87.64148 22.97859,71.39316 z"/>
<path d="m 417.86125,609.56977 c -5.93162,18.43695 -13.66378,36.23778 -21.42634,53.96135 -11.94738,25.36205 -24.22767,50.61915 -38.45991,74.79647 -7.58725,12.88902 -9.71895,15.76118 -17.68427,27.72901 -5.50341,8.1901 -11.54704,15.98392 -17.77181,23.63014 -1.6742,2.05649 -7.33931,8.70621 -8.06693,10.75353 -2.72281,7.66132 -4.148,15.72361 -6.22201,23.58541 8.62279,11.70393 15.05072,25.40031 25.86836,35.1118 3.67169,3.29623 24.19932,3.94471 29.90255,4.30452 11.2173,0.70769 19.48846,1.11957 30.80272,2.51139 6.22476,0.76574 12.41052,1.82072 18.61578,2.73108 35.27506,6.42505 69.21387,19.10551 100.29927,36.95679 5.95998,3.42261 11.67635,7.25294 17.51452,10.87942 13.16476,8.69757 25.59533,18.45261 36.849,29.51867 2.34328,2.30421 4.52809,4.76422 6.79213,7.14634 36.79488,38.1921 90.80667,-13.84372 54.01179,-52.03583 v 0 c -3.33103,-3.42542 -6.55103,-6.96242 -9.99309,-10.27626 -14.83856,-14.2858 -31.09412,-26.98076 -48.34916,-38.22522 -19.75162,-12.06614 -24.47923,-15.62889 -45.60017,-25.74931 -31.96387,-15.31596 -65.87334,-26.4109 -100.81072,-32.44545 -21.72377,-3.09203 -20.44795,-3.26803 -41.05053,-4.93853 -4.92744,-0.39953 -9.86535,-0.65861 -14.80031,-0.9508 -2.87267,-0.17007 -5.89121,-1.34343 -8.62208,-0.43595 -1.37708,0.4576 2.57106,1.34636 3.85658,2.01954 6.56679,10.82722 13.13358,21.65444 19.70037,32.48166 -2.10046,6.44111 -4.15793,12.89639 -6.30136,19.32332 -0.0266,0.0797 -0.11281,-0.17786 -0.0616,-0.24449 1.29873,-1.68992 2.70992,-3.29041 4.05117,-4.94678 7.66632,-9.4675 15.09645,-19.12656 21.88751,-29.25016 9.28318,-14.03772 11.68395,-17.28173 20.48834,-32.30403 15.47769,-26.40847 28.92052,-53.94429 41.88216,-81.6526 7.84838,-18.00758 8.30368,-18.51318 15.00864,-35.78298 5.51829,-14.21334 11.23775,-28.70639 12.57341,-44.03254 2.94829,-52.95099 -71.93572,-57.1205 -74.88401,-4.16951 z"/>
<path d="m 543.6174,740.90408 c 0.37072,7.36452 -2.24514,12.60643 -5.85842,19.07711 -7.49002,13.41318 -8.94899,14.24703 -19.11889,27.72404 -5.58463,6.1713 -10.93254,12.56538 -16.75389,18.51391 -21.88192,22.35999 -46.18808,42.42645 -72.44756,59.45507 -8.9568,5.80826 -18.0873,11.39138 -27.56588,16.30224 -9.15604,4.74375 -18.83143,8.40968 -28.24714,12.61453 -9.58067,2.9877 -19.16135,5.97541 -28.74202,8.96312 -50.4929,16.21626 -27.55965,87.624 22.93325,71.40774 v 0 c 12.29888,-4.03911 24.59776,-8.07822 36.89664,-12.11734 11.86174,-5.48653 24.0319,-10.35027 35.5852,-16.4596 11.22723,-5.93692 22.04381,-12.65099 32.65696,-19.62657 30.76486,-20.22046 59.39894,-44.00657 84.87306,-70.58485 7.38202,-7.70199 14.12912,-15.98836 21.19368,-23.98254 5.42765,-7.49346 11.24834,-14.71739 16.28296,-22.48038 13.2763,-20.47103 23.74344,-43.99121 23.31205,-68.80648 0,-53.03301 -75,-53.03301 -75,0 z"/>
<path d="m 214.357,776.66644 c 5.81976,-0.79577 6.04198,-0.77133 13.32224,-2.17004 7.51384,-1.44359 25.39907,-5.23764 31.85096,-6.61284 59.51688,-12.68576 -17.96702,3.70686 49.73607,-10.5866 60.59625,-12.44937 122.03689,-21.37838 183.86619,-24.44199 13.64183,-0.67595 27.30567,-0.79156 40.9585,-1.18733 49.45989,-0.12387 99.06809,1.47589 148.15519,7.94659 25.8569,3.40847 31.55922,5.04418 56.56589,10.21522 51.95121,10.65701 67.0225,-62.8131 15.07129,-73.47011 v 0 c -28.29367,-5.76274 -34.38761,-7.51472 -63.52804,-11.30544 -52.52069,-6.83213 -105.58417,-8.57708 -158.49535,-8.35307 -14.67753,0.44733 -29.36722,0.5957 -44.03259,1.342 -65.25253,3.32064 -130.09824,12.72072 -194.05422,25.87183 -26.42571,5.57948 -52.79394,11.50877 -79.28965,16.75172 -5.47337,1.08307 -4.94798,0.95975 -9.40855,1.57665 -52.62529,6.56341 -43.34322,80.98682 9.28207,74.42341 z"/>
</svg>
