<?xml version="1.0" ?>
<svg xmlns="http://www.w3.org/2000/svg" viewBox="0 0 1000 1000">
<path d="m 398.13395,268.12254 c 19.37638,-7.20963 39.46866,-12.3199 59.78382,-16.0857 6.60642,-1.22462 13.26026,-2.17789 19.89039,-3.26684 27.11639,-3.81493 54.49429,-6.06272 81.89349,-5.47689 12.59752,0.26935 16.43882,0.79879 28.37267,1.87447 3.11469,0.43183 6.22938,0.86367 9.34406,1.29551 52.56113,7.05887 62.54388,-67.27379 9.98276,-74.33267 v 0 c -4.26602,-0.55938 -8.53203,-1.11876 -12.79804,-1.67814 -14.87987,-1.26756 -19.44911,-1.88509 -35.06767,-2.15898 -31.45664,-0.55164 -62.88814,2.012 -94.00827,6.48902 -7.68009,1.28637 -15.38797,2.41659 -23.04027,3.8591 -24.21494,4.56468 -48.13226,10.82709 -71.22401,19.46008 -49.51235,19.00071 -22.64129,89.02175 26.87107,70.02104 z"/>
<path d="m 447.28783,135.14376 c 5.8151,21.42953 8.76139,43.55405 11.88678,65.49951 4.28857,34.68756 7.71537,69.78559 4.96219,104.75538 -0.46487,5.90452 -1.38662,11.76416 -2.07992,17.64624 -1.28296,5.1923 -2.56591,10.3846 -3.84887,15.57689 -11.92761,51.67429 61.15087,68.54248 73.07848,16.86819 v 0 c 1.76671,-8.01983 3.53342,-16.03966 5.30012,-24.05949 0.82879,-7.64601 1.92401,-15.26782 2.48635,-22.93802 2.89968,-39.55123 -0.7129,-79.23635 -5.65297,-118.46161 -2.588,-18.04551 -2.88229,-21.20946 -5.94003,-38.50716 -2.20435,-12.46998 -4.56908,-24.97596 -8.13933,-37.14142 -0.59241,-2.01862 -1.32414,-3.99371 -1.9862,-5.99056 -18.91656,-49.544568 -88.98316,-22.792519 -70.0666,26.75205 z"/>
<path d="m 223.91614,454.69706 c 13.80116,-0.10854 27.06762,-4.44966 40.2806,-7.93236 4.79457,-1.26376 9.59826,-2.49262 14.3974,-3.73893 5.68433,-1.34859 11.34957,-2.7804 17.05301,-4.04578 14.83874,-3.29218 29.2641,-6.01451 44.22771,-8.82041 28.07966,-5.26536 56.21743,-10.06336 84.4104,-14.67721 51.03007,-8.29194 102.55788,-14.14907 154.30486,-14.64937 9.8197,-0.0949 19.63925,0.20435 29.45887,0.30653 49.26851,1.30689 98.00459,9.04021 146.37576,17.9509 25.53631,4.85971 50.8408,11.06674 75.34253,19.78767 49.99783,17.68381 75.00652,-53.02379 25.00869,-70.70761 v 0 c -28.25964,-9.94606 -57.33648,-17.3265 -86.78101,-22.84217 -52.61747,-9.66813 -105.64637,-17.91781 -159.24005,-19.18547 -10.80688,-0.092 -21.61407,-0.39786 -32.42065,-0.27592 -55.05025,0.62119 -109.87476,6.7772 -164.16737,15.60095 -51.03037,8.35901 -102.12973,16.87374 -152.4308,28.96744 -11.91398,3.09614 -23.83535,6.52721 -35.81995,9.26174 -53.03301,0 -53.03301,75 0,75 z"/>
<path d="m 329.33642,604.34281 c 16.39067,-7.51725 34.20162,-11.4377 51.59837,-15.84558 34.94473,-8.15973 70.21212,-15.00894 105.75944,-19.96766 25.93086,-3.61725 36.40204,-4.42214 62.40884,-7.042 34.27761,-2.95029 68.72858,-4.64896 103.13129,-3.26663 14.12036,0.56737 19.22988,1.2211 32.75122,2.50675 11.40155,1.21877 22.68949,3.24376 33.95666,5.32917 52.15014,9.63655 65.77829,-64.11488 13.62815,-73.75144 v 0 c -13.46503,-2.4845 -26.96323,-4.84438 -40.59274,-6.25109 -15.95841,-1.47454 -21.47185,-2.18134 -38.13347,-2.81611 -37.45821,-1.42706 -74.96553,0.37687 -112.28412,3.62963 -27.8291,2.8223 -38.5422,3.64114 -66.3514,7.5464 -37.90188,5.32258 -75.50906,12.6407 -112.76086,21.39715 -22.56713,5.75923 -45.53633,11.17635 -66.59266,21.41954 -47.45526,23.67484 -13.97398,90.78671 33.48128,67.11187 z"/>
<path d="m 583.09949,434.33194 c 0.16964,1.70679 0.29026,3.41917 0.50893,5.12037 0.15832,1.23177 2.10689,13.88491 2.22298,14.68621 1.68655,11.64072 3.11642,23.31928 4.6106,34.98557 2.95956,22.43775 5.70812,44.92054 7.10148,67.51927 1.05305,17.07914 0.91452,20.43832 1.19547,37.55709 -0.0292,23.90525 -0.84856,47.88299 -4.75141,71.50968 -2.36956,14.34459 -3.39586,17.22464 -6.90869,31.19712 -5.64615,20.01359 -13.33419,39.41855 -22.74684,57.95672 -5.08091,10.00681 -8.68281,15.87844 -14.3147,25.55372 -11.8275,19.91102 -24.71823,39.19565 -38.86204,57.53538 -2.89783,3.60284 -5.85528,7.17868 -9.18125,10.4001 -0.48782,0.47249 -0.99621,0.92389 -1.5137,1.36369 -0.2682,0.22794 -0.97173,0.96489 -0.84146,0.63791 0.15759,-0.39554 0.62289,-0.58067 0.93433,-0.87101 6.20084,-4.56878 12.31148,-5.13297 19.82908,-5.20566 1.35057,-0.0131 3.70855,1.77245 4.02575,0.4596 0.33989,-1.40676 -2.3342,-1.71216 -3.52407,-2.53599 -3.01581,-2.08804 -6.06143,-4.1327 -9.09215,-6.19905 -4.2358,-2.97583 -8.4716,-5.95166 -12.7074,-8.92749 -43.40463,-30.47192 -86.49844,30.91149 -43.09381,61.38342 v 0 c 4.57834,3.21207 9.15667,6.42414 13.735,9.63621 11.67532,7.87063 23.86962,17.44578 38.12545,20.12901 13.11535,2.46858 23.95729,-0.0521 35.02509,-6.82262 1.70133,-1.24037 3.44906,-2.4195 5.104,-3.72113 8.67699,-6.8246 15.68171,-15.55452 22.64363,-24.0269 16.05768,-20.95476 30.85388,-42.85924 44.26877,-65.60297 7.057,-12.20166 10.77732,-18.23277 17.17508,-30.98546 11.57782,-23.07817 20.96578,-47.23811 27.81419,-72.13717 4.27019,-17.46857 5.5879,-21.32001 8.42884,-39.16373 4.36179,-27.39611 5.46015,-55.16228 5.41702,-82.86476 -0.12811,-7.04131 -0.14884,-14.08538 -0.38433,-21.12392 -1.0328,-30.86846 -4.3816,-61.58862 -8.50908,-92.17964 -2.11347,-16.49933 -4.10112,-33.02418 -6.85075,-49.43307 -2.94829,-52.951 -77.8323,-48.78149 -74.88401,4.1695 z"/>
<path d="m 417.72834,700.156 c 9.98418,5.17019 19.91584,10.68438 29.01257,17.32877 2.10445,1.53712 4.06665,3.2601 6.09997,4.89015 1.66845,1.58374 3.33689,3.16747 5.00534,4.75121 39.08501,35.84496 89.77745,-19.42959 50.69244,-55.27456 v 0 c -3.18547,-2.8678 -6.37094,-5.73561 -9.55641,-8.60342 -3.53063,-2.71194 -6.97461,-5.54061 -10.59189,-8.13584 -12.10121,-8.68206 -25.21618,-15.96972 -38.47573,-22.69878 -47.90116,-22.75915 -80.08746,44.98332 -32.18629,67.74247 z"/>
</svg>
