<?xml version="1.0" ?>
<svg xmlns="http://www.w3.org/2000/svg" width="1000" height="1000">
<path d="m 330.70815,44.272991 c -12.45934,21.308399 -28.61016,40.149699 -44.37335,59.034249 -16.48065,19.05442 -33.03314,38.0593 -50.69846,56.03653 -11.82323,12.03201 -19.74828,19.26693 -31.8739,30.66071 -38.63143,36.33336 12.7517,90.96645 51.38313,54.63309 v 0 c 13.63414,-12.83403 21.51191,-20.01118 34.88603,-33.65896 18.76965,-19.15373 36.40408,-39.35653 53.91552,-59.65242 17.76876,-21.34725 35.85715,-42.71225 49.99485,-66.723516 28.5174,-44.713066 -34.71643,-85.04274979 -63.23382,-40.329683 z"/>
<path d="m 142.94713,211.43437 c 7.51248,24.86874 11.28705,50.65379 15.36066,76.24808 5.59911,36.92824 9.15606,74.16692 10.14405,111.51206 0.69655,26.32888 0.17183,39.76435 -0.28055,66.26565 -1.25369,57.26415 -6.90122,114.27653 -14.261,171.03844 -6.81127,52.59379 67.56758,62.22637 74.37885,9.63258 v 0 c 7.70257,-59.54364 13.58503,-119.3518 14.87172,-179.42026 0.4678,-28.68188 1.01092,-42.3326 0.2136,-70.9224 -1.11999,-40.16004 -4.96928,-80.20548 -11.00251,-119.91714 -4.69796,-29.40597 -9.20202,-58.99949 -18.06176,-87.50892 -16.31431,-50.46131 -87.67737,-27.38939 -71.36306,23.07191 z"/>
<path d="m 231.90641,279.35611 c 15.41306,-5.36788 31.69806,-7.63216 47.76815,-10.05984 28.56881,-3.77747 57.40318,-4.64144 86.1859,-4.47569 13.86537,0.18125 27.72131,0.86151 41.51748,2.2575 0.81202,0.0876 1.62404,0.17523 2.43606,0.26285 0.13802,0.0315 0.55402,0.11593 0.41408,0.0945 -11.29218,-1.73181 -18.43263,-8.31715 -24.9592,-17.88569 -2.16245,-3.17035 -2.47942,-7.26373 -3.71913,-10.8956 -0.11291,-0.52743 -0.16362,-2.09245 -0.33874,-1.58229 -0.39806,1.15956 -0.2436,2.43985 -0.3741,3.65886 -0.91078,8.50757 -0.88563,7.86166 -1.94971,17.5728 -1.15342,10.52652 -2.02997,18.95999 -3.15422,29.62449 -5.41987,49.52423 -7.69521,99.30099 -9.48696,149.06378 -1.69293,64.21153 -2.66793,128.43749 -4.37777,192.64896 -1.53828,56.28014 -4.19258,112.52636 -7.51908,168.72737 -2.24921,30.68125 -3.67897,61.45007 -7.086,92.03442 -0.33185,1.74733 -0.50301,3.53299 -0.99555,5.242 -0.0457,0.15867 -0.52638,10e-4 -0.47081,-0.15409 0.91738,-2.56652 1.53285,-5.37297 3.21339,-7.51876 2.62441,-3.35096 5.91328,-6.20938 9.42352,-8.61659 6.649,-4.55967 9.5272,-0.72907 6.43498,-4.09051 -10.36523,-4.64773 -20.32331,-10.1326 -30.3265,-15.49479 -46.78017,-24.98231 -82.11049,41.17484 -35.33033,66.15715 v 0 c 16.28107,8.66691 32.44939,17.81612 50.36843,22.76287 14.49618,2.25695 23.61973,5.43016 38.52354,-0.45305 15.15708,-5.98319 21.7915,-14.26534 28.49386,-28.00294 1.77864,-3.64562 2.5923,-7.69847 3.54385,-11.64165 0.78954,-3.27182 1.11238,-6.63892 1.66856,-9.95838 3.491,-31.85598 5.14229,-63.87948 7.40821,-95.83745 3.36962,-57.01148 6.06674,-114.06817 7.62337,-171.15983 1.70257,-63.97879 2.68483,-127.97171 4.35594,-191.9509 1.72328,-48.03655 3.88974,-96.08865 9.12208,-143.89509 1.07717,-10.21898 1.99283,-19.02142 3.10219,-29.14565 0.99068,-9.04108 2.50188,-18.40572 2.76064,-27.50672 0.0864,-3.03758 -0.0874,-6.07699 -0.13113,-9.11548 -1.39744,-4.99338 -1.54017,-10.5245 -4.19234,-14.98013 -3.58465,-6.02219 -8.58971,-11.24437 -14.04002,-15.65013 -6.31758,-5.10683 -15.20902,-6.01426 -22.93921,-6.93817 -16.16103,-1.61612 -32.38865,-2.44543 -48.63007,-2.63262 -32.69304,-0.15308 -65.44261,0.90331 -97.87595,5.33095 -21.46899,3.29704 -43.15492,6.64447 -63.59804,14.28269 -49.44153,19.18425 -22.3109,89.10513 27.13063,69.92088 z"/>
<path d="m 235.85321,407.89509 c 17.30174,-0.70084 34.36903,-3.91146 51.5753,-5.63397 4.9869,-0.49923 9.98862,-0.83746 14.98293,-1.2562 17.77721,-1.49092 35.58458,-0.76271 53.34738,0.38074 52.92849,3.32791 57.63487,-71.52428 4.70638,-74.85219 v 0 c -21.45198,-1.322 -42.95707,-2.08421 -64.41702,-0.25812 -5.79708,0.50016 -11.60207,0.91584 -17.39124,1.50048 -14.29945,1.44406 -28.49008,3.81101 -42.80373,5.11926 -53.03301,0 -53.03301,75 0,75 z"/>
<path d="m 239.33956,530.2671 c 18.67267,-2.32868 37.44693,-3.63193 56.22232,-4.77543 15,-1.0343 30.02808,-1.12498 45.05377,-1.08398 53.03292,0.0966 53.16949,-74.9033 0.13657,-74.99987 v 0 c -16.60029,-0.017 -33.2034,0.0883 -49.77526,1.22412 -20.548,1.26501 -41.0957,2.70539 -61.5278,5.29015 -52.56986,6.99358 -42.67945,81.33858 9.8904,74.34501 z"/>
<path d="m 134.20223,707.8841 c 18.42299,-4.27179 37.08107,-7.62669 55.81529,-10.21022 7.32936,-1.01075 14.68496,-1.82118 22.02744,-2.73177 42.5198,-4.58829 85.29633,-5.88943 128.0102,-7.32718 53.00295,-1.78548 50.47789,-76.74297 -2.52505,-74.95749 v 0 c -44.97297,1.51614 -90.01052,2.93224 -134.76993,7.8616 -8.06972,1.01219 -16.1538,1.91584 -24.20916,3.03656 -22.29151,3.10136 -44.54922,7.05585 -66.36026,12.63125 -50.697606,15.56446 -28.686135,87.26171 22.01147,71.69725 z"/>
<path d="m 383.37482,581.65628 c -3.35105,1.38949 -6.80372,2.55558 -10.05315,4.16847 -12.81207,6.35939 -23.98791,15.93995 -34.674,25.26294 -7.14653,6.23495 -27.27321,24.70859 -33.58195,30.47327 -43.47604,41.01081 -88.64317,80.1393 -133.75377,119.32212 -26.91777,22.63693 -13.57533,11.9763 -39.93797,32.09337 -42.107226,32.24099 3.48843,91.7896 45.59565,59.5486 v 0 c 29.34502,-22.536 14.82982,-10.87163 43.52446,-35.01939 45.58631,-39.59614 91.22398,-79.1442 135.16543,-120.57984 6.65875,-6.08537 23.91594,-21.91981 31.5149,-28.65286 3.07699,-2.72636 6.17842,-5.42691 9.348,-8.04504 1.94416,-1.60591 3.95721,-3.12814 5.98809,-4.62287 1.02672,-0.75567 2.57826,-1.0009 3.17991,-2.12483 0.36629,-0.68424 -1.52277,0.30101 -2.28415,0.45151 51.10646,-14.16437 31.07501,-86.43982 -20.03145,-72.27545 z"/>
<path d="m 517.15225,412.99119 c 20.47615,-4.49313 40.46083,-10.93422 60.7834,-16.03493 7.38875,-1.85448 14.8315,-3.4868 22.24724,-5.2302 44.91229,-9.48079 90.54899,-15.1835 136.3159,-18.40907 8.29225,-0.58443 16.59684,-0.97807 24.89527,-1.4671 19.45279,-0.81079 38.97397,-1.2201 58.417,0.11471 7.94254,0.54528 14.00147,1.25526 21.59854,2.87291 2.03601,0.43353 4.02658,1.05818 6.03987,1.58726 51.50453,12.64054 69.38095,-60.19786 17.87642,-72.8384 v 0 c -11.21542,-2.64983 -13.60252,-3.50243 -25.68588,-5.00814 -27.40905,-3.41545 -55.1624,-2.59672 -82.68567,-1.59681 -8.8504,0.52789 -17.70748,0.95367 -26.55119,1.58369 -49.51278,3.52726 -98.87761,9.79022 -147.44335,20.1653 -8.17638,1.93552 -16.38013,3.75888 -24.52915,5.80655 -19.59752,4.92443 -38.87119,11.13531 -58.61323,15.48504 -51.59701,12.25757 -34.26219,85.22677 17.33483,72.96919 z"/>
<path d="m 698.26398,171.7776 c 1.85923,31.06935 5.35237,62.00371 8.54208,92.95517 6.98024,69.60453 8.20677,139.59584 9.33101,209.48597 0.52312,65.68373 1.59017,131.37623 0.86597,197.06309 -0.13058,11.84415 -0.39012,23.68653 -0.58518,35.52979 -1.57296,43.4611 -1.39991,87.16687 -6.60327,130.4145 -0.63719,5.29594 -1.52917,10.55811 -2.29375,15.83716 -1.98786,9.48159 -2.271,12.59088 -5.25537,21.16888 -0.7122,2.04708 -1.49032,4.0845 -2.49901,6.00292 -0.2714,0.51617 -1.56652,1.69914 -1.28279,1.18964 5.16737,-9.27878 4.00646,-6.68155 14.01862,-12.91332 1.21515,-0.58703 4.35231,-0.61151 3.64544,-1.76107 -1.33133,-2.16508 -4.57145,-2.2248 -6.8223,-3.40534 -4.28164,-2.24566 -8.58201,-4.46173 -12.77309,-6.87218 -11.98766,-6.89459 -23.64286,-14.35951 -35.00025,-22.24683 -6.5444,-4.54487 -12.9083,-9.34428 -19.36245,-14.01643 -6.02623,-4.60765 -12.05245,-9.21531 -18.07868,-13.82297 -42.14852,-32.18698 -87.66779,27.42004 -45.51926,59.60702 v 0 c 6.56641,5.00878 13.13282,10.01756 19.69923,15.02634 7.29618,5.25415 14.48846,10.65568 21.88853,15.76246 12.64501,8.72629 28.04484,18.5951 41.54351,26.11265 9.38732,5.2279 27.13052,14.4812 37.88921,17.00975 7.78861,1.8305 15.89214,1.86881 23.8382,2.80322 8.10068,-2.699 16.92747,-3.79333 24.30202,-8.097 6.16666,-3.59876 10.80517,-9.44619 15.28537,-15.00556 2.90198,-3.60099 4.7004,-7.98477 6.62947,-12.18801 6.33712,-13.80792 9.2905,-28.95466 12.10197,-43.76266 0.89281,-6.33954 1.92674,-12.66081 2.67842,-19.01863 5.35687,-45.30902 5.40781,-91.06267 6.96013,-136.59385 0.198,-12.10713 0.46144,-24.21336 0.59399,-36.32138 0.72514,-66.23616 -0.34074,-132.4779 -0.87442,-198.71084 -1.16357,-72.05429 -2.48577,-144.20939 -9.7164,-215.9658 -3.10343,-30.11383 -6.5205,-60.20965 -8.32549,-90.43861 -3.6571,-52.90676 -78.47856,-47.73484 -74.82146,5.17192 z"/>
<path d="m 539.41432,570.902 c 11.87048,5.58672 23.49469,11.82443 34.69571,18.66275 4.68557,2.86059 9.26533,5.89098 13.89799,8.83647 4.51183,3.04235 9.02366,6.0847 13.53549,9.12705 43.99684,29.61045 85.87234,-32.61047 41.8755,-62.22092 v 0 c -5.09402,-3.42251 -10.18805,-6.84503 -15.28207,-10.26755 -5.47438,-3.45564 -10.88685,-7.01137 -16.42314,-10.36693 -9.28301,-5.62645 -16.37935,-9.47977 -25.78803,-14.39137 -6.48512,-3.38542 -11.23836,-5.84306 -17.84434,-8.65514 -1.63899,-0.6977 -3.33197,-1.26105 -4.99796,-1.89157 -50.32281,-16.73662 -73.99196,54.43059 -23.66915,71.16721 z"/>
</svg>
