<?xml version="1.0" ?>
<svg xmlns="http://www.w3.org/2000/svg" viewBox="0 0 1000 1000">
<path d="m 446.76568,167.19249 c 5.30431,18.1319 8.77545,36.68879 11.91552,55.29347 6.69017,44.82966 6.35804,90.28273 5.88601,135.48415 -1.27219,58.63495 -3.69407,117.23894 -5.79437,175.84879 -2.03715,54.9799 -3.91255,109.96613 -6.40131,164.92794 -1.54321,32.94628 -3.92752,65.85125 -8.11296,98.571 -1.48858,11.22036 -3.47196,22.35948 -6.1478,33.35553 -0.0464,0.1116 -0.17965,0.4486 -0.13903,0.3348 4.41722,-12.37519 5.75476,-17.63378 26.10823,-24.59681 7.91887,-2.70908 16.60533,2.12793 24.93365,2.95668 0.20895,0.0208 0.59472,-0.26808 0.46066,-0.4297 -1.89058,-2.27931 -4.09438,-4.27952 -6.14157,-6.41927 -25.32628,-27.89099 -48.11236,-57.91916 -70.6106,-88.09267 -31.71195,-42.50708 -91.82605,2.34039 -60.1141,44.84748 v 0 c 24.47918,32.79505 49.28885,65.43391 77.01508,95.59284 2.88247,2.92251 16.01957,16.94038 20.26712,18.48849 9.71645,3.54138 20.33943,8.75963 30.38132,6.28752 19.30586,-4.75271 26.58076,-16.17061 30.72557,-31.28935 3.31587,-13.70367 5.82072,-27.57891 7.66045,-41.5597 4.40804,-34.74407 7.02922,-69.67179 8.63726,-104.65551 2.49748,-55.19699 4.38647,-110.41819 6.42992,-165.63336 2.12317,-59.24877 4.57602,-118.49163 5.83855,-177.76641 0.49938,-49.6645 0.65532,-99.59195 -6.94163,-148.81468 -0.99132,-5.80148 -1.90292,-11.61715 -2.97396,-17.40444 -2.86579,-15.48516 -6.5482,-30.80821 -10.77989,-45.97345 -14.59939,-50.9839 -86.70151,-30.33724 -72.10212,20.64666 z"/>
<path d="m 256.5353,418.99232 c -2.17127,22.26031 -9.46088,43.75963 -15.87081,65.06192 -17.84275,55.68538 -41.30959,109.43776 -66.83088,161.99289 -5.53967,11.40765 -11.35765,22.67803 -17.03647,34.01704 -5.64784,10.4174 -11.29568,20.8348 -16.94352,31.25221 -25.25075,46.63581 40.70225,82.34577 65.95301,35.70996 v 0 c 6.01998,-11.13199 12.03997,-22.26398 18.05995,-33.39597 5.93997,-11.87679 12.02521,-23.68203 17.81992,-35.63037 27.1155,-55.91054 51.94785,-113.12873 70.81348,-172.38974 8.12647,-27.14956 17.03402,-54.58193 18.95005,-83.04259 2.52815,-52.97271 -72.38658,-56.54807 -74.91473,-3.57535 z"/>
<path d="m 711.01839,514.11263 c 8.63908,7.68501 17.53986,15.12227 25.06376,23.95169 2.39828,2.81442 4.61819,5.77609 6.92729,8.66413 17.68271,23.75507 32.13718,49.66763 45.46673,76.04779 6.86209,14.13768 13.46787,28.40624 19.77412,42.80131 0.27965,0.67905 0.55929,1.35809 0.83894,2.03714 -0.0267,-0.0179 -0.0535,-0.0359 -0.0802,-0.0538 17.60296,50.02635 88.35091,25.132 70.74794,-24.89435 v 0 c -1.83253,-4.98163 -0.88564,-2.57851 -2.8236,-7.21605 -6.87563,-15.65835 -14.04282,-31.19388 -21.54853,-46.55986 -15.78855,-31.11288 -32.96718,-61.64834 -54.16597,-89.4556 -3.42716,-4.17222 -6.72507,-8.45405 -10.28147,-12.51665 -9.26253,-10.58089 -19.82045,-19.83894 -30.35988,-29.09872 -39.80513,-35.04357 -89.36422,21.24937 -49.5591,56.29295 z"/>
</svg>
