<?xml version="1.0" ?>
<svg xmlns="http://www.w3.org/2000/svg" width="1000" height="1000">
<path d="m 476.2322,84.045392 c 9.05447,11.292726 16.59279,23.672028 24.34908,35.860988 1.46945,2.22829 2.93889,4.45657 4.40834,6.68486 29.2256,44.25341 91.80937,2.92218 62.58377,-41.331236 v 0 c -1.2391,-1.872991 -2.4782,-3.745982 -3.71729,-5.618973 -9.22126,-14.490277 -18.29899,-29.124653 -29.10978,-42.511501 -33.17452,-41.3757292 -91.68864,5.540133 -58.51412,46.915862 z"/>
<path d="m 657.38674,41.000199 c 0.19001,-0.968206 0.58467,-1.918052 0.57003,-2.904618 -0.005,-0.359206 -0.44063,0.57334 -0.59984,0.895379 -1.00848,2.039879 -1.87469,4.148544 -2.89848,6.18078 -5.0056,9.936129 -11.31401,19.035963 -17.45732,28.28719 -10.96339,15.619012 -23.27017,30.21979 -35.40084,44.92666 -33.73225,40.92231 24.14064,88.62691 57.87289,47.7046 v 0 c 13.78791,-16.7369 27.74236,-33.38142 40.07638,-51.24656 7.06199,-10.70622 11.16715,-16.524892 17.43003,-27.532869 2.94509,-5.176461 6.02967,-11.460175 8.53276,-17.017422 1.12642,-2.500822 2.34497,-4.968051 3.27774,-7.547368 0.9323,-2.578047 1.53764,-5.262863 2.30646,-7.894295 9.79448,-52.1207081 -63.91534,-65.972186 -73.70981,-13.851477 z"/>
<path d="m 430.93151,225.99827 c 18.04226,-4.82493 36.22903,-9.21852 54.64705,-12.3683 7.14914,-1.22262 14.33623,-2.21184 21.50434,-3.31776 43.75913,-6.32202 87.88351,-10.37297 132.10336,-11.22594 8.43332,-0.16267 16.86971,-0.0448 25.30456,-0.0672 33.5638,0.44789 67.11588,2.60713 100.41475,6.85611 52.61201,6.66901 62.04342,-67.73562 9.4314,-74.40463 v 0 c -36.51736,-4.60245 -73.29538,-7.04995 -110.10203,-7.45105 -9.23404,0.0379 -18.46992,-0.0739 -27.70214,0.11368 -47.18854,0.95889 -94.27443,5.29699 -140.96933,12.06891 -8.05857,1.26087 -16.13913,2.38838 -24.17571,3.7826 -19.28881,3.3463 -38.39083,7.83032 -57.28503,12.92597 -51.68071,11.89974 -34.85194,84.98731 16.82878,73.08757 z"/>
<path d="m 588.87889,141.32081 c -1.01904,0.91472 -2.06658,1.79865 -3.05713,2.74415 -6.77323,6.46517 -13.17844,13.26759 -20.06236,19.62618 -10.97126,10.13402 -13.79913,12.36142 -25.72162,22.61075 -11.12493,9.5188 -22.82689,18.34375 -33.98363,27.82339 -6.37659,5.41805 -12.55836,11.06132 -18.83754,16.59198 -39.75836,35.09663 9.87576,91.32343 49.63412,56.22681 v 0 c 5.5479,-4.90968 10.99772,-9.93246 16.64369,-14.72903 11.65017,-9.89745 23.88333,-19.09478 35.47006,-29.0697 13.12035,-11.30576 16.3996,-13.90392 28.54968,-25.17304 6.39698,-5.93315 12.39756,-12.15034 18.5976,-18.26638 0.48713,-0.48054 1.00896,-0.92459 1.51345,-1.38689 40.30382,-34.46885 -8.44249,-91.46707 -48.74632,-56.99822 z"/>
<path d="m 415.74478,284.15541 c 4.35358,23.24838 5.36185,46.97208 6.64111,70.53934 1.94498,43.48962 1.7225,87.02906 1.38983,130.54781 0.0477,12.93315 -0.63895,25.83703 -1.61235,38.72526 -3.89896,52.88949 70.89807,58.40346 74.79704,5.51397 v 0 c 1.05024,-14.53541 1.86305,-29.08403 1.81313,-43.66674 0.34359,-45.07393 0.55147,-90.16959 -1.49934,-135.2119 -1.49191,-27.14225 -2.80605,-54.4423 -7.99226,-81.18837 -10.4232,-51.99862 -83.96036,-37.25799 -73.53716,14.74063 z"/>
<path d="m 468.66159,315.10834 c 15.85405,-2.81877 31.72527,-5.52685 47.63906,-8.00128 30.55909,-4.92879 61.41435,-7.58973 92.28473,-9.57251 24.59501,-1.58987 49.24751,-0.98142 73.81877,0.62473 11.59906,0.83326 23.19798,1.67669 34.81344,2.24804 2.12524,0.0582 4.25104,0.22112 6.37808,0.22549 0.44897,9.2e-4 -0.90011,0.008 -1.34625,-0.0428 -1.32004,-0.14896 -2.6821,-0.14704 -3.94648,-0.5545 -3.63694,-1.17206 -7.12135,-2.77317 -10.68202,-4.15976 -6.99042,-5.38614 -4.90845,-3.15641 -9.02291,-7.81281 -0.62213,-0.70408 -1.12366,-1.47343 -1.07319,-1.15231 0.13494,0.85846 0.53599,1.65349 0.78302,2.48664 0.54493,1.8379 1.0618,3.684 1.59271,5.526 6.70775,26.71543 8.97412,54.25379 10.84063,81.65048 1.25709,25.73106 1.89176,51.57276 -0.0733,77.28982 -1.22566,16.04068 -2.17979,20.60831 -4.50808,36.31383 -2.71723,17.1968 -8.05381,33.73675 -13.95381,50.05179 -17.90319,49.91969 52.69392,75.23862 70.59711,25.31893 v 0 c 7.53407,-21.14514 14.13792,-42.25943 17.57041,-64.53904 2.74509,-19.0588 3.77386,-23.89858 5.19884,-43.36147 2.10127,-28.69977 1.45028,-57.52973 -0.009,-86.23934 -2.30657,-33.02364 -5.22621,-66.0267 -13.84857,-98.11261 -3.16214,-10.25201 -6.20463,-20.89954 -12.69217,-29.66131 -1.34173,-1.81209 -2.66919,-3.66428 -4.2987,-5.22268 -2.48563,-2.37717 -5.32632,-4.35287 -7.98949,-6.52931 -4.05115,-1.68637 -7.99448,-3.65962 -12.15346,-5.05911 -4.37128,-1.47093 -9.17025,-0.98586 -13.69539,-1.32622 -11.22278,-0.54651 -22.42768,-1.38812 -33.63505,-2.18105 -27.79398,-1.78467 -55.67686,-2.43634 -83.49443,-0.6258 -33.11384,2.14596 -66.20859,5.02399 -98.98979,10.30914 -15.36451,2.3937 -30.7127,4.89027 -45.99486,7.76398 -52.56986,6.99357 -42.67945,81.33858 9.89041,74.34501 z"/>
<path d="m 490.00948,400.09481 c 17.97395,-0.56876 35.91535,-1.90634 53.87595,-2.79303 25.27729,-1.04133 50.57497,-1.66445 75.87387,-1.43359 8.00324,0.10697 16.00484,0.30038 24.00621,0.49819 53.01684,1.3093 54.86847,-73.66784 1.85162,-74.97714 v 0 c -8.39975,-0.20722 -16.79975,-0.40953 -25.20152,-0.51818 -26.7562,-0.22508 -53.51121,0.3956 -80.24402,1.52272 -16.72452,0.83246 -33.4329,1.97865 -50.16211,2.70103 -53.03301,0 -53.03301,75 0,75 z"/>
<path d="m 495.37238,482.81523 c 13.61756,-1.96769 27.42609,-2.18738 41.15622,-2.61648 26.79235,-0.77815 53.58694,-1.43228 80.38796,-1.81201 11.04719,-0.14284 22.09502,-0.22281 33.14293,-0.2804 53.03229,-0.27689 52.64071,-75.27586 -0.39158,-74.99898 v 0 c -11.27214,0.0589 -22.54418,0.14072 -33.81558,0.28693 -27.23498,0.3871 -54.46352,1.04931 -81.68967,1.84179 -16.24879,0.51746 -32.56661,0.9012 -48.68068,3.23414 -52.56986,6.99357 -42.67946,81.33858 9.8904,74.34501 z"/>
<path d="m 466.81792,565.20158 c 14.57509,0.61055 29.14451,-0.98461 43.6526,-2.17752 30.76117,-2.90188 61.61499,-4.41635 92.49458,-5.21133 30.68637,-0.76777 61.37099,0.28835 91.95859,2.73501 13.2811,0.88918 26.32062,3.71044 39.53969,5.08485 52.78697,5.10257 60.00309,-69.54948 7.21612,-74.65204 v 0 c -3.51664,-0.23869 -7.06053,-0.95947 -10.52758,-1.48165 -10.06026,-1.5152 -20.14727,-2.88086 -30.29057,-3.71575 -33.21317,-2.62078 -66.52745,-3.79856 -99.84589,-2.94508 -32.2811,0.84728 -64.53719,2.41188 -96.69574,5.43864 -12.46546,1.02659 -24.97778,2.51638 -37.5018,1.92487 -53.033,0 -53.033,75 0,75 z"/>
<path d="m 130.91753,177.58521 c 13.50684,7.5459 27.20374,14.79877 40.5253,22.67318 3.60532,2.13112 7.13083,4.39445 10.69625,6.59167 8.16604,4.90437 15.26063,11.1572 22.20124,17.6017 39.2278,35.68865 89.69918,-19.78784 50.47138,-55.47649 v 0 c -3.12019,-2.80328 -6.14401,-5.71768 -9.36055,-8.40985 -10.54532,-8.82619 -12.63685,-9.83409 -24.07539,-17.63314 -4.30043,-2.63132 -8.56009,-5.33048 -12.9013,-7.89396 -14.85354,-8.77102 -30.08752,-16.93962 -45.25681,-25.14138 -47.86284,-22.839631 -80.162955,44.84865 -32.30012,67.68827 z"/>
<path d="m 135.10898,353.09535 c 19.64885,-4.08023 39.53098,-6.87356 59.35553,-9.93288 27.84309,-4.0576 55.59937,-8.83566 83.60932,-11.61895 4.30319,-0.2921 7.38085,-0.63828 11.52553,-0.52459 0.56355,0.0154 2.24042,0.24999 1.67796,0.21173 -7.4983,-0.50995 -12.57937,-1.13279 -19.28612,-8.14118 -4.95469,-5.17753 -7.04469,-12.4818 -10.56703,-18.7227 -0.50085,-27.8149 -0.9752,-1.66164 0.85952,-15.8341 0.0207,-0.1601 -0.36447,-0.12582 -0.48401,-0.0173 -0.92071,0.83566 -1.68226,1.83144 -2.52352,2.74703 -6.77167,7.37 -3.07257,3.29866 -10.88,12.02056 -12.89112,15.11642 -24.8646,31.57176 -31.44118,50.52747 -1.47816,4.2605 -2.4386,8.68334 -3.6579,13.02501 -0.62897,4.60449 -1.63468,9.17308 -1.88691,13.81349 -0.8844,16.27057 2.51743,30.87877 9.39865,45.57385 4.81357,10.27953 8.533,14.85957 14.90119,24.06925 15.19708,20.06955 35.23138,35.43983 55.10058,50.55365 10.57718,8.2973 21.83065,15.9089 31.30288,25.5103 0.55187,0.66464 1.10375,1.32927 1.65562,1.99391 0.017,0.1572 0.16528,0.58104 0.0512,0.47159 -3.53607,-3.39215 -4.32507,-8.88999 -4.60394,-13.48071 -0.0774,-1.27344 0.17296,-2.54571 0.25944,-3.81857 2.72961,0.0184 0.41392,-3.236 -0.43241,-2.80975 -1.61815,0.81496 -2.99364,2.04234 -4.51549,3.02547 -2.81234,1.81681 -5.61896,3.64467 -8.48609,5.37371 -10.14471,6.11782 -13.33849,7.6633 -23.95112,13.37598 -20.94091,10.2163 -42.57204,18.92255 -63.88869,28.31364 -48.52998,21.38552 -18.28628,90.01729 30.2437,68.63176 v 0 c 23.14855,-10.20356 46.67613,-19.59315 69.29279,-30.95877 14.36702,-7.78513 28.9453,-15.45454 42.21905,-25.06097 8.74368,-6.32794 16.43058,-12.67873 22.83945,-21.51548 2.9081,-4.00978 4.83071,-8.64904 7.24607,-12.97357 1.24431,-4.48934 3.12185,-8.84968 3.73294,-13.46802 2.72268,-20.57676 -5.36223,-36.26959 -19.06988,-50.57001 -1.87529,-1.81826 -3.70515,-3.68457 -5.62586,-5.45479 -10.32685,-9.51775 -21.79487,-17.70631 -32.87974,-26.29131 -13.81936,-10.49923 -28.05271,-20.86465 -39.2997,-34.21498 -1.3731,-1.84522 -2.80499,-3.64813 -4.11931,-5.53567 -1.99502,-2.86513 -3.25715,-5.12529 -4.98915,-8.01744 -0.38755,-0.64716 -0.89442,-1.23421 -1.17318,-1.93514 -0.91081,-2.2902 -0.6553,-3.51089 -0.66639,-5.99624 0.21858,-1.27345 0.32137,-2.57229 0.65575,-3.82034 2.91849,-10.8933 10.82526,-19.73422 17.67763,-28.32421 8.53547,-9.54193 19.34047,-19.94383 25.14952,-31.36255 1.9758,-3.88381 4.00083,-7.8603 4.87634,-12.12893 1.16282,-5.6695 0.77626,-11.54899 1.16439,-17.32348 -3.76475,-7.75119 -5.6836,-16.71331 -11.29425,-23.25355 -13.10613,-15.27758 -35.89767,-13.69261 -53.60922,-12.30799 -29.32144,2.97556 -58.40392,7.78888 -87.54703,12.12032 -21.84669,3.3714 -43.76377,6.4483 -65.38286,11.11755 -51.574895,12.3503 -34.108936,85.28822 17.46596,72.93792 z"/>
<path d="m 133.44653,643.10959 c 20.46724,-2.34235 41.0742,-3.11474 61.64817,-3.85463 44.48378,-0.83937 88.98822,-0.66676 133.47643,-0.2214 48.74864,0.33404 97.45409,2.212 146.14463,4.46212 41.28707,2.0708 82.59527,3.64463 123.92105,4.67073 32.03728,0.71487 64.08029,0.11475 96.1151,-0.39212 25.26127,-0.54359 50.52341,-1.05067 75.79108,-1.08888 17.89336,-0.052 35.8208,0.40044 53.69212,-0.7708 14.5675,-0.95472 17.95097,-1.6749 32.84395,-3.66099 52.55199,-7.12659 42.47348,-81.44633 -10.07852,-74.31974 v 0 c -11.18052,1.54749 -15.0915,2.3013 -26.00621,3.05078 -16.83061,1.15571 -33.72268,0.60722 -50.5749,0.70085 -25.622,0.0455 -51.23863,0.5385 -76.85408,1.09816 -31.01971,0.49083 -62.04732,1.08571 -93.06964,0.40578 -40.79142,-1.00982 -81.56511,-2.57052 -122.31824,-4.61384 -49.59469,-2.29119 -99.20504,-4.19398 -148.85866,-4.53832 -45.64372,-0.45321 -91.30466,-0.63837 -136.94319,0.26697 -23.46791,0.85828 -46.98895,1.73917 -70.30837,4.67361 -52.419041,8.04636 -41.039766,82.17808 11.37928,74.13172 z"/>
<path d="m 215.37208,786.1194 c 18.96979,-2.94227 37.95209,-5.72777 57.00512,-8.07641 52.71663,-5.19685 105.66128,-7.71724 158.53309,-10.80518 65.39658,-3.97127 130.85861,-6.64425 196.36494,-7.74672 32.85813,-0.14914 65.81668,0.3152 98.50519,3.99136 13.96265,1.57024 18.7042,2.59557 32.08549,4.93952 10.29931,1.93571 20.42361,4.63201 30.53362,7.35609 51.21935,13.75054 70.66555,-58.68458 19.44619,-72.43511 v 0 c -12.30508,-3.29326 -24.63494,-6.52266 -37.17581,-8.81995 -16.15224,-2.77284 -21.2171,-3.87494 -38.0597,-5.72893 -35.38333,-3.89491 -71.04165,-4.49159 -106.60367,-4.29225 -66.54152,1.13149 -133.03903,3.82368 -199.4692,7.86358 -54.48823,3.18247 -109.05489,5.7666 -163.37245,11.24552 -20.08385,2.4949 -40.10081,5.40217 -60.09628,8.52454 -52.31455,8.69987 -40.01108,82.68381 12.30347,73.98394 z"/>
<path d="m 594.30498,676.42234 c 5.44885,16.97056 9.45252,34.35223 13.2489,51.75131 5.2925,27.02683 8.23991,54.61741 7.50248,82.18352 -0.13926,5.20558 -0.56016,10.39981 -0.84024,15.59972 -1.75205,21.06281 -6.17524,41.92295 -13.71091,61.69444 -1.07427,2.81856 -2.33846,5.56103 -3.50769,8.34155 -4.03975,8.80364 -9.39263,16.97018 -17.03686,23.00555 -1.49172,1.04507 -2.93392,2.21617 -4.58067,3.0213 -0.77823,0.38049 0.94462,-0.57503 1.8789,-0.9904 6.98522,-2.4394 13.92967,-2.34018 21.27895,-0.25202 3.78147,1.07444 6.93273,3.71825 10.50101,5.36788 0.14986,0.0693 0.136,-0.35713 0.0428,-0.49344 -1.26136,-1.84552 -2.69267,-3.56895 -4.039,-5.35343 -8.17157,-12.39113 -3.88703,-5.55689 -12.67255,-20.61513 -26.93745,-45.68231 -91.542,-7.587 -64.60454,38.09531 v 0 c 12.04452,20.26219 5.97248,10.78434 18.05363,28.53701 3.22391,4.08209 10.4417,13.84933 14.90643,17.19548 4.39135,3.29116 8.96944,6.59323 14.13983,8.43246 9.43732,3.3571 18.46116,2.63629 27.55598,-0.26114 9.68675,-3.7498 18.51366,-9.11627 26.46036,-15.83566 5.68634,-5.02451 7.4581,-6.31072 12.68316,-12.15901 10.35839,-11.59389 18.47879,-24.95354 24.78146,-39.13383 1.69611,-4.17683 3.51725,-8.30505 5.08834,-12.5305 9.81945,-26.40927 15.52958,-54.21765 17.68582,-82.28259 0.31185,-6.51791 0.79571,-13.02987 0.93555,-19.55373 0.70533,-32.90384 -2.81741,-65.81969 -9.23953,-98.06232 -4.39629,-19.99883 -9.0317,-39.97867 -15.37631,-59.46706 -16.8042,-50.30028 -87.93955,-26.53555 -71.13534,23.76473 z"/>
<path d="m 384.01623,854.2086 c 9.48984,3.8855 19.12887,7.58336 27.85729,13.05296 2.00212,1.25462 3.87734,2.70121 5.81601,4.05182 1.59506,1.60308 3.19011,3.20616 4.78517,4.80924 39.4451,35.44832 89.5766,-20.33548 50.1315,-55.7838 v 0 c -4.39911,-3.78373 -8.79822,-7.56745 -13.19733,-11.35118 -3.72846,-2.44283 -7.36896,-5.0255 -11.18538,-7.32851 -11.51712,-6.94997 -23.96733,-12.09205 -36.40647,-17.10766 -49.25503,-19.65813 -77.05582,49.999 -27.80079,69.65713 z"/>
</svg>
