<?xml version="1.0" ?>
<svg xmlns="http://www.w3.org/2000/svg" width="1000" height="1000">
<path d="m 315.61333,123.48255 c 0.61428,0.82633 1.2631,1.62807 1.84285,2.47898 4.87899,7.16102 9.11216,14.77286 13.65087,22.14506 7.28556,11.83388 7.88372,12.58703 15.53791,24.34024 2.42357,3.63726 4.84713,7.27453 7.2707,10.91179 29.41326,44.1289 91.82095,2.53227 62.40769,-41.59663 v 0 c -2.28298,-3.424 -4.56596,-6.84799 -6.84895,-10.27199 -6.81459,-10.44269 -7.672,-11.60496 -14.18042,-22.17823 -7.41794,-12.050838 -14.25756,-24.585855 -23.43215,-35.438759 -35.07925,-39.773693 -91.32774,9.835849 -56.2485,49.609539 z"/>
<path d="m 569.83807,66.598861 c -0.0748,-0.835604 0.21176,-1.79018 -0.22443,-2.506812 -0.23031,-0.378367 -0.42751,0.780838 -0.57108,1.199871 -0.69411,2.025865 -1.2685,4.091023 -1.93858,6.124961 -1.16567,3.538181 -2.23019,7.11416 -3.56845,10.590733 -4.53147,11.772027 -7.58212,17.133414 -13.42987,28.928926 -11.4502,20.57717 -24.11798,40.53675 -38.59385,59.13677 -5.41391,6.95632 -11.28174,13.54717 -16.92261,20.32075 -33.81051,40.85767 23.97096,88.67296 57.78147,47.81529 v 0 c 6.65378,-8.08364 13.56821,-15.95961 19.96134,-24.25093 16.96682,-22.00446 31.82284,-45.59157 45.10065,-69.97533 3.29881,-6.77467 6.79691,-13.45588 9.89643,-20.32401 5.20968,-11.544 8.02198,-19.19264 11.64783,-30.811371 2.3133,-7.412781 4.43276,-14.525519 5.35459,-22.25645 0.35515,-2.978512 0.22647,-5.994948 0.3397,-8.992422 -3.53555,-52.9150246 -78.36869,-47.915002 -74.83314,5.000024 z"/>
<path d="m 244.18198,311.71037 c 33.44232,-12.04401 68.26261,-19.63199 102.94117,-27.109 60.25766,-12.12301 121.36538,-19.88842 182.66535,-24.22365 12.21104,-0.86358 24.44203,-1.41736 36.66304,-2.12604 39.10399,-1.53401 78.37726,-2.07677 117.38893,1.58066 16.05866,1.50554 20.30413,2.41065 35.49883,4.83468 4.2554,0.82105 8.51081,1.64209 12.76621,2.46314 52.08817,9.96606 66.18231,-63.69774 14.09414,-73.6638 v 0 c -5.06393,-0.96202 -10.12785,-1.92405 -15.19178,-2.88607 -17.94032,-2.79501 -22.87907,-3.83252 -41.71702,-5.54964 -42.28172,-3.85408 -84.82921,-3.38516 -127.20474,-1.65182 -12.84016,0.7525 -25.69087,1.34255 -38.52049,2.2575 -64.53264,4.60219 -128.85605,12.83975 -192.28289,25.65691 -10.11604,2.19034 -20.25965,4.25701 -30.34813,6.57101 -27.74588,6.3641 -55.34993,13.71779 -82.17558,23.28641 -49.89325,17.97674 -24.47029,88.53645 25.42296,70.55971 z"/>
<path d="m 266.15593,384.77214 c 5.93337,16.91383 10.38662,34.36556 13.91474,51.93214 1.25143,6.23084 2.27632,12.50505 3.41449,18.75757 7.51833,44.68343 9.98252,89.9636 11.26372,135.18809 0.3168,27.49823 0.25971,13.83283 0.17861,40.99617 -0.14791,53.03281 74.8518,53.24198 74.99971,0.20918 v 0 c 0.0746,-28.67696 0.14102,-14.22629 -0.20904,-43.35196 -0.22746,-7.86564 -0.37799,-15.73388 -0.68238,-23.59692 -1.59378,-41.17031 -5.05633,-82.313 -11.7825,-122.98206 -1.32838,-7.18806 -2.52844,-14.40103 -3.98514,-21.56419 -4.49426,-22.10012 -10.18493,-44.08944 -18.20036,-65.18797 -20.93033,-48.72804 -89.84217,-19.12808 -68.91185,29.59995 z"/>
<path d="m 345.23355,423.60462 c 21.57569,-6.98345 43.88986,-11.32363 66.1165,-15.63498 44.80873,-7.60174 89.91486,-13.31293 135.01982,-18.82772 34.52989,-4.17715 69.16364,-7.46507 103.88998,-9.43215 13.56093,-0.64274 27.13421,-1.22695 40.71112,-0.8712 0.37706,0.0144 3.17651,0.11404 3.8083,0.16026 0.27656,0.0202 -0.55966,0.0337 -0.83164,-0.0204 -2.66272,-0.52914 -5.47276,-0.63682 -7.95923,-1.72656 -12.68205,-5.55815 -11.48625,-6.74169 -19.58272,-17.38317 -0.64853,-1.62155 -1.0401,-3.37129 -1.94559,-4.86465 -0.28121,-0.46379 -0.0359,1.08498 -0.0175,1.62705 0.0663,1.95528 0.21276,3.9074 0.27161,5.86292 0.34812,11.56761 0.0589,23.12848 -0.15218,34.69566 -0.86134,30.95562 -1.46484,61.96969 -4.57498,92.80382 -0.67703,6.71217 -1.56751,13.40109 -2.35127,20.10163 -3.70991,29.77646 -10.90212,58.92921 -18.30046,87.95614 -13.08795,51.39266 59.59224,69.90182 72.6802,18.50917 v 0 c 8.21241,-32.2731 16.07171,-64.71004 20.12051,-97.82165 0.86273,-7.49071 1.84211,-14.96891 2.58821,-22.47214 3.2291,-32.4737 3.9483,-65.12638 4.82563,-97.72618 0.23739,-13.34287 0.57488,-26.68826 0.0585,-40.02995 -0.16652,-4.30218 -0.68251,-13.88426 -1.60112,-18.19726 -0.81284,-3.81637 -2.14787,-7.50255 -3.22181,-11.25382 -3.15437,-4.57687 -5.4814,-9.85198 -9.46311,-13.73062 -8.96711,-8.73496 -20.59889,-11.37341 -32.47405,-11.46678 -15.6246,-0.37759 -31.24544,0.18014 -46.85096,0.96893 -36.34329,2.07832 -72.59391,5.47866 -108.73176,9.86556 -46.85116,5.73105 -93.70618,11.66294 -140.23484,19.65272 -25.12471,4.89902 -50.32042,9.90637 -74.70143,17.8383 -50.49948,16.19577 -27.5952,87.61281 22.90428,71.41704 z"/>
<path d="m 388.87497,291.00506 c 2.01526,26.2212 1.89061,52.56175 2.01226,78.84326 0.3013,41.56834 -2.52012,83.04561 -5.68133,124.46438 -4.03082,52.8796 70.75224,58.58004 74.78306,5.70044 v 0 c 3.30669,-43.43328 6.21617,-86.92933 5.89744,-130.51795 -0.13608,-28.43476 -0.0383,-56.93254 -2.32084,-85.29573 -4.81228,-52.81422 -79.50287,-46.00862 -74.69059,6.8056 z"/>
<path d="m 535.85068,240.5329 c -1.63016,23.76497 -1.80732,47.61346 -2.46057,71.42096 -0.93786,30.31097 -3.21784,60.57286 -7.24354,90.63368 -2.05033,15.31018 -5.12558,34.08581 -7.54606,49.33568 -1.35653,8.38767 -2.71306,16.77534 -4.06958,25.16301 -8.4666,52.35281 65.57146,64.32638 74.03805,11.97357 v 0 c 1.3685,-8.46242 2.737,-16.92483 4.1055,-25.38724 2.64991,-16.71718 5.72051,-35.4218 7.94123,-52.17731 4.28582,-32.33697 6.7425,-64.88446 7.74621,-97.48523 0.59952,-21.86953 0.85714,-43.76321 2.07484,-65.6084 5.56402,-52.74033 -69.02206,-60.60904 -74.58608,-7.86872 z"/>
<path d="m 339.74234,559.12861 c 16.65229,-2.96274 33.39267,-5.36385 50.1469,-7.66551 44.5181,-5.59742 89.3052,-8.57606 134.10697,-10.66696 31.00158,-1.10282 62.078,-1.48817 93.0431,0.71193 13.68125,0.97206 19.96837,1.83114 33.16648,3.35596 52.68778,6.04133 61.23151,-68.47045 8.54373,-74.51178 v 0 c -15.17366,-1.72817 -21.88796,-2.64639 -37.67422,-3.73551 -33.48008,-2.30984 -67.07354,-1.96475 -100.59003,-0.73837 -47.04499,2.21341 -94.07557,5.3523 -140.81735,11.28449 -17.94806,2.47229 -35.88099,5.05299 -53.71773,8.24481 -52.12857,9.75252 -38.33642,83.47346 13.79215,73.72094 z"/>
<path d="m 364.32368,650.31499 c 16.83045,-3.12032 33.60357,-6.51287 50.57835,-8.79957 6.12709,-0.82539 12.27374,-1.49852 18.4106,-2.24779 40.39564,-4.4176 80.97286,-7.61773 121.63309,-7.71297 8.21235,-0.0192 16.42296,0.24213 24.63444,0.3632 21.53745,0.53196 42.99217,2.42121 64.42748,4.4414 52.80153,4.94965 59.80139,-69.72298 6.99987,-74.67263 v 0 c -23.41742,-2.18431 -46.85613,-4.22641 -70.38462,-4.76153 -9.04136,-0.11882 -18.082,-0.38702 -27.1241,-0.35648 -43.23348,0.14605 -86.38164,3.53263 -129.33201,8.25875 -6.81529,0.84206 -13.64162,1.59906 -20.44586,2.52618 -17.13273,2.33445 -34.09554,5.62237 -51.06882,8.87518 -52.3869,8.25305 -40.71532,82.33931 11.67158,74.08626 z"/>
<path d="m 183.95432,790.82271 c 20.36702,-7.12472 42.07723,-9.55951 63.31862,-12.58891 9.25853,-1.0612 18.50708,-2.21341 27.77559,-3.1836 20.08744,-2.10268 47.69026,-4.47333 67.553,-6.21188 14.22585,-1.24517 66.10871,-5.7632 79.4269,-6.79895 14.47532,-1.12573 28.96418,-2.06987 43.44627,-3.10481 72.20865,-4.93619 144.68759,-2.9253 216.75577,3.15486 12.46388,1.05153 24.90118,2.39726 37.35177,3.59589 29.95233,3.21125 59.82833,7.36657 89.33881,13.47368 7.89971,1.63483 15.73242,3.57815 23.59863,5.36722 51.72503,11.70562 68.27928,-61.44461 16.55425,-73.15024 v 0 c -8.77913,-1.97785 -17.52188,-4.12477 -26.3374,-5.93354 -31.71357,-6.50701 -63.80684,-10.97925 -95.98663,-14.41383 -13.01941,-1.24669 -26.02502,-2.64701 -39.05823,-3.74009 -75.66638,-6.34602 -151.76103,-8.34507 -227.56837,-3.16279 -14.80154,1.05985 -29.60987,2.02869 -44.40461,3.17954 -13.31644,1.03587 -65.46155,5.57571 -79.71254,6.82361 -20.55593,1.8 -48.82547,4.22821 -69.53774,6.41373 -9.96788,1.0518 -19.91368,2.3032 -29.87053,3.45479 -29.05345,4.20839 -59.01735,7.72504 -86.12479,19.71342 -47.45528,23.6748 -13.97404,90.7867 33.48123,67.1119 z"/>
<path d="m 568.59634,668.48606 c 5.47636,18.10744 7.95429,36.87774 10.16765,55.60456 2.80059,29.01474 3.87462,58.275 2.04572,87.39116 -0.341,5.42887 -0.9191,10.84024 -1.37865,16.26036 -1.75689,16.75057 -4.54296,33.45498 -9.77641,49.5001 -2.31517,7.09801 -3.21321,8.78012 -6.05853,15.33507 -3.32344,6.78453 -6.71637,13.99293 -12.67972,18.88884 -1.73076,1.02352 -4.15142,3.25136 -6.10181,3.80098 -0.29282,0.0825 0.51257,-0.32786 0.76886,-0.49178 0.5206,-0.23989 1.01695,-0.54162 1.56182,-0.71966 1.44033,-0.47061 2.8998,-0.89115 4.37865,-1.22134 1.17863,-0.26317 3.60484,0.65172 3.58008,-0.55567 -0.0258,-1.2579 -2.41655,-0.70287 -3.61382,-1.08956 -10.56327,-3.41171 -8.81019,-2.95124 -21.07461,-7.61093 -22.18638,-9.0232 -10.73715,-4.26874 -34.33242,-14.30013 -48.81054,-20.7372 -78.13736,48.29133 -29.32682,69.02853 v 0 c 25.3236,10.75175 12.89015,5.59995 37.28899,15.48278 17.90486,6.66453 36.58427,14.70075 56.15397,13.54154 6.73781,-0.39911 9.88044,-1.86892 15.67929,-3.94649 9.81361,-4.6306 19.0069,-10.38873 26.98384,-17.82011 5.03836,-4.99912 6.31647,-5.97724 10.75714,-11.54897 7.8074,-9.79599 13.91104,-20.78974 19.03792,-32.18861 4.29573,-10.30256 5.60456,-12.82454 9.05523,-23.78461 6.55793,-20.82937 10.27558,-42.41838 12.46279,-64.11385 0.52397,-6.46335 1.18371,-12.91712 1.57191,-19.39005 1.98611,-33.11705 0.76086,-66.38904 -2.51715,-99.37925 -0.70388,-5.79728 -1.30746,-11.60762 -2.11166,-17.39184 -2.40234,-17.27881 -5.85195,-34.42347 -10.78531,-51.16282 -15.47274,-50.72568 -87.20968,-28.84393 -71.73695,21.88175 z"/>
<path d="m 399.29751,857.06352 c 12.19044,0.77533 24.43603,1.38343 36.53102,3.19019 3.53311,0.52779 7.02965,1.27654 10.54448,1.91481 3.70534,1.04598 7.41069,2.09196 11.11604,3.13795 51.21765,13.75687 70.67281,-58.67583 19.45516,-72.43271 v 0 c -5.86656,-1.52499 -11.73312,-3.04999 -17.59968,-4.57499 -4.94011,-0.84642 -9.86034,-1.81843 -14.82034,-2.53925 -14.96912,-2.17541 -30.13138,-3.00285 -45.22668,-3.696 -53.03301,0 -53.03301,75 0,75 z"/>
</svg>
