<?xml version="1.0" ?>
<svg xmlns="http://www.w3.org/2000/svg" viewBox="0 0 1000 1000">
<path d="m 253.70748,165.164 c 0.19946,6.607 0.19115,7.69597 0.65518,15.19929 0.67725,10.95104 1.5334,21.89033 2.26515,32.83786 1.28723,19.25776 2.1211,32.93023 3.35169,52.5637 3.4474,54.37955 5.69253,108.83891 5.8101,163.3341 0.0886,41.05855 -0.63338,64.6268 -1.47754,105.9767 -3.1663,99.99771 -7.33772,199.95634 -9.9141,299.97273 -1.178,46.69046 -0.59269,24.40927 -1.74383,66.84388 -1.438,53.01351 73.53443,55.04715 74.97243,2.03364 v 0 c 1.15445,-42.56367 0.56835,-20.24809 1.74655,-66.94703 2.57761,-100.15121 6.77304,-200.24392 9.92342,-300.37703 0.86164,-42.46028 1.59178,-66.22089 1.4873,-108.43274 -0.13798,-55.75008 -2.42595,-111.46403 -5.95124,-167.09617 -2.00416,-31.9718 -4.28783,-63.92944 -6.12511,-95.90893 0,-53.03301 -75,-53.03301 -75,0 z"/>
<path d="m 153.28298,398.97889 c 13.71348,9.2866 27.67865,18.19329 41.63752,27.10797 44.69579,28.54447 85.06377,-34.66491 40.36798,-63.20938 v 0 c -8.84183,-5.64674 -17.73388,-11.22272 -26.48875,-17.00419 -5.17429,-3.41696 -11.51224,-7.88289 -16.84658,-11.07044 -2.28414,-1.36489 -4.67469,-2.54324 -7.01204,-3.81486 -48.07682,-22.38568 -79.73496,45.60522 -31.65813,67.9909 z"/>
<path d="m 150.73981,742.33792 c 25.92767,-32.03705 55.01174,-61.44718 84.84821,-89.82433 12.02472,-11.43657 24.33569,-22.56835 36.50354,-33.85252 53.35601,-47.65219 26.61051,-24.03135 80.23278,-70.86675 39.94091,-34.88874 -9.39921,-91.37371 -49.34012,-56.48498 v 0 c -54.60268,47.70005 -27.29776,23.57852 -81.90664,72.37378 -12.66175,11.75518 -25.47551,23.34871 -37.98525,35.26553 -21.31092,20.30088 -38.19062,37.26293 -57.98496,58.53543 -10.04618,10.79639 -20.76628,22.91945 -30.12717,34.5474 -2.397965,2.97871 -4.621871,6.09345 -6.932806,9.14018 -29.108943,44.33023 33.583476,85.49649 62.692416,41.16626 z"/>
<path d="m 675.50311,50.104146 c -9.97385,8.142362 -19.99438,16.261087 -30.51541,23.69543 -10.59277,7.485037 -27.78429,18.629902 -38.13283,25.431344 -51.85727,35.18861 -104.15987,69.70909 -156.15254,104.69693 -6.91153,4.39499 -13.82306,8.78997 -20.73459,13.18496 -44.7374,28.4792 -4.46172,91.74744 40.27568,63.26824 v 0 c 7.44374,-4.74338 14.88747,-9.48675 22.33121,-14.23013 51.77103,-34.83875 103.85251,-69.20948 155.48537,-104.25312 13.58961,-8.93929 28.42634,-18.50897 41.74256,-27.95981 4.70235,-3.33737 9.27726,-6.85149 13.86396,-10.34611 4.78508,-3.64577 11.33027,-8.54104 15.88471,-12.78548 42.92297,-31.14673 -1.12515,-91.848979 -44.04812,-60.702254 z"/>
<path d="m 432.57076,339.29682 c 1.11693,1.0536 2.25888,2.0813 3.3508,3.16081 6.39722,6.32451 12.40251,12.99217 18.91166,19.21523 5.7808,5.5267 13.1136,12.06515 19.07587,17.44256 10.60482,9.57465 5.55185,4.97655 15.16794,13.78439 39.11109,35.81651 89.76328,-19.49493 50.65219,-55.31144 v 0 c -10.02219,-9.1762 -4.82405,-4.44785 -15.60097,-14.17785 -4.10746,-3.70126 -12.48193,-11.19402 -16.60052,-15.10703 -8.36099,-7.94366 -15.91827,-16.6811 -24.44844,-24.44933 -39.20388,-35.71492 -89.71241,19.72774 -50.50853,55.44266 z"/>
<path d="m 577.09727,269.27894 c 3.35729,11.37808 8.25994,22.23941 14.2476,32.47171 2.13719,3.65223 4.54941,7.13639 6.82412,10.70459 2.15391,3.01249 4.30782,6.02499 6.46173,9.03749 31.02446,43.01143 91.85181,-0.86378 60.82735,-43.87521 v 0 c -1.45249,-1.98731 -2.90497,-3.97462 -4.35746,-5.96193 -2.88384,-4.32101 -4.88851,-7.04928 -7.25781,-11.59819 -3.38531,-6.49961 -5.11981,-13.60969 -7.83374,-20.37855 -20.93042,-48.72799 -89.84221,-19.12791 -68.91179,29.60009 z"/>
<path d="m 748.83459,204.44864 c 0,4.18667 0.14935,8.90425 -0.54417,13.02947 -0.50188,2.98526 -1.33887,5.90648 -2.13937,8.82587 -3.46573,12.63941 -6.14066,21.20584 -11.1924,33.65358 -2.90015,7.1461 -6.22751,14.11128 -9.34127,21.16692 -12.46142,26.20215 -26.98423,51.37104 -42.57895,75.82036 -5.62933,8.82565 -11.55352,17.45973 -17.33029,26.18959 -29.23501,44.24719 33.33998,85.59174 62.57498,41.34455 v 0 c 6.23601,-9.45147 12.63462,-18.79762 18.70801,-28.35439 17.39909,-27.37831 33.54688,-55.58775 47.34892,-84.96356 3.7266,-8.59488 7.72435,-17.07721 11.1798,-25.78464 8.02781,-20.22936 14.6829,-41.39412 17.61204,-63.02442 0.81743,-6.03638 0.7027,-11.88675 0.7027,-17.90333 0,-53.03301 -75,-53.03301 -75,0 z"/>
<path d="m 407.345,606.64606 c 25.79642,-9.09389 52.20857,-16.29054 79.01783,-21.72131 9.67314,-1.95949 19.41339,-3.57174 29.12008,-5.35761 46.14657,-7.61248 92.793,-11.98552 139.51168,-13.92352 26.90147,-1.11594 41.74721,-1.01724 68.53002,-1.2341 41.38342,0.0655 82.74897,1.4196 124.10857,2.68624 53.00816,1.62329 55.30384,-73.34156 2.29568,-74.96485 v 0 c -42.33224,-1.29628 -84.67085,-2.67608 -127.02767,-2.7188 -28.34989,0.24151 -43.5159,0.13794 -72.06125,1.34667 -49.90071,2.11301 -99.71922,6.85252 -148.99808,15.05931 -10.65518,1.98038 -21.34767,3.76965 -31.96556,5.94114 -28.86894,5.90406 -57.34692,13.62925 -85.15353,23.37995 -50.563,15.99633 -27.94077,87.50321 22.62223,71.50688 z"/>
<path d="m 714.30597,466.62083 c -0.0765,23.1621 0.0393,46.32158 0.34465,69.48167 0.53908,33.29219 1.38994,66.58572 1.18413,99.88541 -0.15342,24.82365 -0.46315,29.62492 -1.24742,54.46689 -1.31388,34.10499 -4.28232,68.2205 -11.45896,101.63767 -3.93666,18.33062 -5.70187,23.09774 -10.90768,40.6274 -4.69592,13.90756 -9.93844,27.74614 -17.57153,40.35087 -2.0083,3.31636 -5.89533,9.04329 -9.19568,11.82429 -0.43628,0.36763 -1.10311,0.29172 -1.65467,0.43758 6.28936,-7.57738 -2.5652,2.50176 5.86181,-4.92249 0.37386,-0.32937 0.87273,-1.07686 0.50078,-1.40839 -1.62525,-1.44862 -3.81097,-2.1074 -5.6862,-3.21349 -3.50425,-2.06695 -7.04252,-4.08307 -10.45075,-6.30478 -4.6018,-2.99976 -9.0457,-6.23506 -13.56855,-9.35259 -21.78667,-16.28284 -10.63746,-7.83004 -33.4269,-25.38572 -42.0197,-32.35498 -87.77655,27.06985 -45.75685,59.42483 v 0 c 24.59083,18.92673 12.264,9.60938 36.97655,27.95728 6.02977,4.0667 11.91432,8.3575 18.08932,12.20011 16.74031,10.41728 35.83368,20.67616 56.15002,21.02944 19.01837,0.3307 22.12074,-3.49724 38.16795,-11.46308 3.99631,-3.49308 8.28624,-6.67633 11.98894,-10.47924 3.45303,-3.54648 6.49722,-7.48587 9.40378,-11.49246 14.83992,-20.45633 24.16194,-44.23321 32.11883,-68.02079 6.05859,-20.73129 8.14573,-26.4572 12.69207,-48.07179 7.82146,-37.18542 11.2616,-75.09659 12.69086,-113.02352 0.81463,-26.13798 1.12738,-30.87409 1.28413,-56.96892 0.20171,-33.58066 -0.64046,-67.15522 -1.19057,-100.72827 -0.3041,-22.82883 -0.41206,-45.65708 -0.33806,-68.48791 0,-53.03301 -75,-53.03301 -75,0 z"/>
<path d="m 530.94489,709.35761 c 17.69443,6.59218 34.12646,15.91783 50.53836,25.13801 46.25412,25.94332 82.94353,-39.46988 36.6894,-65.41321 v 0 c -20.56227,-11.51628 -41.26913,-22.99938 -63.55821,-30.89188 -50.32272,-16.73689 -73.99227,54.43018 -23.66955,71.16708 z"/>
</svg>
