<?xml version="1.0" ?>
<svg xmlns="http://www.w3.org/2000/svg" width="1000" height="1000">
<path d="m 261.44688,186.45317 c 16.86349,-5.57023 33.72857,-11.19012 50.94401,-15.59918 7.00375,-1.79374 14.06755,-3.34427 21.10132,-5.01641 46.88697,-9.89109 94.33647,-17.11213 141.95198,-22.4365 10.19699,-1.14023 20.41404,-2.09337 30.62106,-3.14005 36.02576,-3.32786 72.19972,-5.3308 108.38774,-5.15446 18.11434,0.0883 22.92764,0.47882 40.54399,1.28471 21.85608,1.3314 43.76343,3.2174 65.05736,8.51255 3.62492,0.9576 7.21389,2.05932 10.76605,3.25878 0.8261,0.27895 2.57318,0.78587 3.31172,1.25001 -7.28964,-2.90573 -12.64928,-8.96308 -16.43685,-15.74582 -0.76617,-1.37206 -2.406,-6.80504 -3.37842,-10.00735 -10e-4,22.62071 -2.93959,45.1473 -5.84824,67.54081 -3.01069,20.15316 -8.35429,39.86135 -14.47618,59.26594 -4.35535,13.80517 -8.49016,26.0111 -14.49436,39.16507 -2.76045,6.04756 -6.01228,11.85853 -9.01842,17.78779 -23.70205,47.44168 43.39061,80.96144 67.09267,33.51977 v 0 c 3.82047,-7.73479 7.93716,-15.3302 11.46143,-23.20436 6.79292,-15.17726 11.96932,-30.27568 16.91687,-46.12545 7.23502,-23.17781 13.40197,-46.74081 16.89989,-70.79978 3.43276,-26.70403 6.8657,-53.58939 6.38839,-80.56836 -0.56011,-7.43263 -0.41134,-12.00202 -4.1557,-19.49621 -4.8943,-9.795758 -12.59961,-16.479008 -22.38932,-20.680638 -8.10764,-3.25266 -16.46504,-5.84602 -24.91953,-8.03682 -8.0884,-1.93749 -9.83126,-2.4695 -18.37778,-3.99819 -20.16125,-3.60618 -40.60142,-5.29103 -61.02385,-6.56173 -19.4086,-0.86231 -24.63067,-1.28159 -44.54569,-1.35811 -38.53917,-0.14807 -77.0625,1.98033 -115.42763,5.54465 -10.65932,1.09732 -21.32921,2.09642 -31.97796,3.29196 -50.44541,5.66355 -100.71442,13.35079 -150.36664,23.94704 -7.95368,1.91061 -15.9407,3.68737 -23.86103,5.73183 -18.3789,4.744118 -36.40583,10.703608 -54.41623,16.661358 -50.32277,16.73676 -26.65342,87.9039 23.66935,71.16715 z"/>
<path d="m 331.80346,329.07288 c 33.43299,-4.73223 67.14094,-7.43634 100.79313,-10.0768 63.05788,-4.46019 126.29958,-4.08334 189.449,-2.43036 23.35716,0.79388 46.70066,1.92156 70.04808,2.95068 52.98157,2.33531 56.2842,-72.59194 3.30263,-74.92725 v 0 c -23.7971,-1.04892 -47.59023,-2.19887 -71.39765,-2.998 -65.76212,-1.70508 -131.61959,-2.05612 -197.28282,2.63584 -35.80015,2.82224 -71.66465,5.69321 -107.21555,10.8619 -52.31459,8.69966 -40.01141,82.68365 12.30318,73.98399 z"/>
<path d="m 273.90341,163.91365 c 0.0362,18.26977 -0.12241,36.56848 -1.62678,54.7888 -0.56746,6.87288 -1.39369,13.72194 -2.09053,20.58291 -5.62038,51.74929 -17.28732,102.60581 -32.44237,152.35115 -3.86626,12.69071 -8.14905,25.25076 -12.22358,37.87614 -18.22134,53.8315 -39.41296,106.63374 -63.10546,158.2854 -14.76519,32.18937 -20.0506,42.08491 -35.82137,73.58853 -16.63063,32.1505 -33.066202,64.4433 -51.689791,95.50713 -5.236772,8.73485 -10.820553,17.25692 -16.23083,25.88538 -28.132888,44.95599 35.444476,84.7419 63.577361,39.78591 v 0 c 5.89995,-9.44513 11.9837,-18.77792 17.69985,-28.33541 19.32402,-32.31003 36.45093,-65.85363 53.71685,-99.28478 16.40321,-32.80309 21.92894,-43.16122 37.28838,-76.69668 24.77101,-54.0845 46.92034,-109.37338 65.95273,-165.73995 4.32176,-13.44019 8.86796,-26.81028 12.96528,-40.32058 16.38278,-54.01978 28.87629,-109.26254 34.94036,-165.43573 0.77751,-7.8751 1.69788,-15.7374 2.33252,-23.6253 1.58451,-19.69378 1.79618,-39.46762 1.75738,-59.21292 0,-53.03301 -75,-53.03301 -75,0 z"/>
<path d="m 231.42109,571.66167 c 26.09096,-3.80668 51.87777,-9.4108 77.68825,-14.7391 50.33085,-10.18281 101.43809,-16.13875 152.63181,-19.79526 12.5529,-0.8966 25.12462,-1.50663 37.68694,-2.25994 50.92231,-2.10572 101.9792,-2.51683 152.89462,0.099 29.60515,1.52097 36.64577,2.53913 65.56439,5.37894 34.93868,3.84146 69.51939,10.21484 103.91775,17.32704 51.93649,10.72851 67.10889,-62.72079 15.1724,-73.44929 v 0 c -37.0053,-7.63756 -74.21265,-14.44332 -111.8024,-18.52284 -31.08015,-3.01797 -38.35979,-4.07415 -70.13204,-5.68451 -53.32489,-2.70274 -106.79535,-2.26554 -160.12436,-0.0126 -13.14421,0.79519 -26.29837,1.44015 -39.43262,2.38555 -54.1869,3.90039 -108.26961,10.29216 -161.54104,21.08304 -24.65099,5.08987 -49.27482,10.47593 -74.19531,14.10375 -52.38689,8.25308 -40.71528,82.33933 11.67161,74.08626 z"/>
<path d="m 496.05912,369.76685 c -0.009,22.64831 -0.0149,45.29637 0.0782,67.94451 -0.10259,40.29752 0.7091,80.62343 -0.27623,120.91584 -0.20556,8.40574 -0.63935,16.80434 -0.95903,25.20651 -0.74911,8.01259 -1.49822,16.02518 -2.24733,24.03776 -4.81935,52.81358 69.87033,59.62916 74.68967,6.81558 v 0 c 0.83496,-9.34669 1.66992,-18.69339 2.50488,-28.04008 0.33566,-9.05674 0.78695,-18.10994 1.007,-27.17022 0.98799,-40.67897 0.18101,-81.39119 0.2804,-122.07525 -0.0935,-22.54485 -0.0862,-45.08963 -0.0776,-67.63465 0,-53.03301 -75,-53.03301 -75,0 z"/>
<path d="m 330.77126,632.34898 c 0.21515,1.74674 0.39129,3.49873 0.64544,5.24023 1.43835,9.85626 3.37855,19.64807 5.02376,29.47009 2.6671,15.92283 2.41871,14.78251 4.90535,31.41347 5.07089,35.77673 8.76642,71.7356 11.6275,107.7516 0.90351,12.38412 1.76663,24.7742 1.90433,37.1933 0.72534,53.02805 75.71833,52.00226 74.99298,-1.02579 v 0 c -0.21877,-14.0622 -1.04609,-28.09783 -2.13386,-42.11957 -3.01063,-37.73901 -6.87865,-75.41947 -12.2178,-112.90557 -3.04465,-20.30707 -6.32344,-40.57475 -9.96959,-60.78278 -4.07649,-52.8761 -78.85459,-47.11108 -74.77811,5.76502 z"/>
<path d="m 407.58293,686.10204 c 19.70383,-6.12633 39.87699,-10.71274 60.0316,-15.12647 35.54076,-7.46707 71.6453,-12.15674 107.84436,-14.94208 6.52289,-0.50191 13.05819,-0.82699 19.58728,-1.24048 22.59358,-1.17965 45.30689,-1.43508 67.81524,1.11576 3.82508,0.52664 3.81822,0.49826 7.24232,1.05672 0.72925,0.11894 1.4593,0.23437 2.18488,0.37393 0.087,0.0167 0.33491,0.11333 0.24846,0.0941 -0.77705,-0.17286 -1.56753,-0.30351 -2.32264,-0.5555 -1.3895,-0.46369 -2.73192,-1.05807 -4.09788,-1.58711 -8.70644,-5.83569 -9.52476,-5.14891 -15.51113,-14.78713 -1.2985,-2.09062 -1.83934,-4.56555 -2.74534,-6.85377 -0.14603,-0.36882 -0.31098,-1.5009 -0.41061,-1.11694 -0.25067,0.96607 -0.0408,1.99579 -0.0763,2.99323 -0.0814,2.2904 -0.18298,4.58004 -0.27447,6.87006 -2.28071,31.2284 -8.43573,62.04604 -14.60927,92.69516 -1.45194,6.27794 -2.78315,12.58503 -4.35582,18.83382 -3.22393,12.8098 -5.94748,22.06001 -10.309,34.43282 -5.14609,14.5985 -11.29399,28.84235 -17.24867,43.1212 -6.30472,14.03769 -3.18736,7.45471 -9.27167,19.78684 -23.3525,47.61471 43.98488,80.64013 67.33737,33.02541 v 0 c 7.46643,-15.29537 3.72818,-7.31971 11.15952,-23.95278 6.7258,-16.13819 13.60291,-32.24649 19.34227,-48.77236 5.06097,-14.57252 8.32738,-25.8006 12.07427,-40.79729 1.73195,-6.93202 3.19977,-13.92737 4.79965,-20.89106 6.96392,-34.68116 13.84351,-69.57076 16.03825,-104.93938 0.25443,-8.50087 1.05273,-19.27165 -0.99648,-27.62558 -2.33107,-9.50303 -4.90253,-15.14493 -12.06981,-22.42889 -2.76418,-2.80917 -6.43254,-4.55532 -9.64882,-6.83298 -1.9839,-0.83437 -3.92597,-1.77618 -5.95171,-2.50312 -7.16272,-2.57035 -14.90937,-3.00033 -22.35418,-4.19272 -26.82715,-2.87231 -53.84951,-2.97404 -80.77573,-1.4095 -7.16772,0.46256 -14.34219,0.83032 -21.50317,1.38768 -39.35328,3.06302 -78.59168,8.23952 -117.22486,16.3868 -16.85058,3.70833 -33.60885,7.50922 -50.23098,12.14894 -4.45381,1.24318 -13.89119,3.98984 -18.64762,5.63792 -2.17267,0.75282 -4.29364,1.64729 -6.44046,2.47094 -48.17081,22.18272 -16.79971,90.30653 31.3711,68.12381 z"/>
<path d="m 416.91572,861.94001 c 23.23273,-2.07157 46.48133,-3.82399 69.77817,-4.97023 37.79275,-1.61406 75.50907,1.46805 112.99201,6.00249 4.3325,0.58416 8.66499,1.16832 12.99749,1.75249 52.55937,7.07194 62.56061,-67.25824 10.00123,-74.33018 v 0 c -4.67733,-0.62813 -9.35466,-1.25625 -14.032,-1.88437 -41.69547,-5.00003 -83.65218,-8.31265 -125.68248,-6.44793 -6.59264,0.33081 -13.18898,0.59486 -19.77793,0.99243 -17.81357,1.07484 -35.58289,2.81556 -53.37136,4.22164 -52.79518,5.01683 -45.70031,79.68049 7.09487,74.66366 z"/>
</svg>
