<?xml version="1.0" ?>
<svg xmlns="http://www.w3.org/2000/svg" viewBox="0 0 1000 1000">
<path d="m 452.30512,174.55203 c 3.01757,9.04769 4.20662,18.62082 5.47929,28.03468 3.09738,30.61693 4.06278,61.40452 5.50611,92.1314 2.71695,44.66884 4.04215,89.39218 5.0083,134.12698 1.20138,50.10469 2.05782,100.21075 1.56858,150.32928 -0.44008,45.08962 -4.73899,89.98957 -10.07604,134.72306 -2.04832,16.68095 -4.3097,33.33111 -7.20334,49.8869 -9.08292,52.24941 64.8089,65.0946 73.89182,12.84519 v 0 c 3.09386,-17.87942 5.60182,-35.84577 7.78487,-53.85963 5.64406,-47.43992 10.14583,-95.05831 10.59921,-142.8732 0.48387,-50.89959 -0.35124,-101.78666 -1.58261,-152.67212 -0.98115,-45.36776 -2.32477,-90.72436 -5.07339,-136.02555 -1.54967,-32.99055 -2.56323,-66.0546 -6.13323,-98.90571 -1.97342,-13.98743 -4.03131,-28.09037 -8.63423,-41.50604 -16.80422,-50.30027 -87.93956,-26.53552 -71.13534,23.76476 z"/>
<path d="m 174.77336,542.46722 c -0.10682,-0.2391 -0.31567,-0.97914 -0.32047,-0.7173 -0.0142,0.7747 0.18987,1.53802 0.29139,2.30617 0.29376,2.22263 0.60831,4.44251 0.89446,6.66613 0.44987,3.49586 0.91408,6.99017 1.31359,10.49214 1.60432,14.0632 1.54408,14.96079 2.75355,29.89355 1.8644,34.68019 2.41196,69.5529 -0.38871,104.20338 -0.55978,6.9258 -1.39039,13.82703 -2.08559,20.74054 -3.26155,28.15967 -8.64266,56.00758 -14.5473,83.71393 -1.814,9.71844 -4.72148,24.37392 0.56439,33.21302 5.4021,9.03346 12.44841,17.77245 21.52337,23.10453 13.04715,7.66598 26.18908,3.30161 39.06924,0.7548 4.16614,-1.22312 8.34249,-2.41197 12.49842,-3.66937 12.49166,-3.77941 15.6856,-5.05697 28.52028,-8.63256 18.59697,-5.18089 37.43449,-9.50701 56.20822,-13.9831 41.96829,-9.6812 84.45141,-17.04111 127.12162,-22.841 9.50475,-1.29192 19.02905,-2.43561 28.54357,-3.65341 38.04279,-4.51015 76.26909,-7.71214 114.57436,-8.73881 22.70035,-0.60842 30.82593,-0.29193 53.36571,-0.0145 28.81918,0.74062 57.70955,2.3509 86.13966,7.38001 12.26065,2.16883 16.77764,3.46962 28.48995,6.35215 9.7046,2.72055 19.36566,5.59035 29.05366,8.36872 50.97905,14.61631 71.64964,-57.47895 20.67059,-72.09526 v 0 c -10.65555,-3.05427 -21.27309,-6.23929 -31.9718,-9.14218 -14.57382,-3.52102 -19.71199,-4.99759 -34.9791,-7.63286 -31.8717,-5.50141 -64.21851,-7.45314 -96.51291,-8.2253 -24.42462,-0.27981 -32.69957,-0.60832 -57.33703,0.0725 -40.46275,1.11815 -80.84209,4.50441 -121.02715,9.28394 -9.90722,1.2713 -19.82475,2.46466 -29.72166,3.8139 -44.91717,6.12351 -89.63271,13.90661 -133.8085,24.11814 -20.07089,4.78815 -40.18701,9.45827 -60.06506,15.01215 -11.1263,3.10865 -17.91234,5.36348 -28.65997,8.67398 -2.93378,0.90367 -5.87516,1.7825 -8.81275,2.67374 -5.00316,4.43615 2.71616,-2.94521 12.46195,5.18311 6.57914,5.48723 11.87524,12.64397 15.84519,20.23569 1.803,3.44788 0.61269,7.7583 0.82532,11.64333 0.007,0.13394 -0.22525,-0.21223 -0.20697,-0.34511 0.24417,-1.77467 0.65428,-3.52252 0.98142,-5.28378 6.47805,-30.42097 12.32199,-61.00878 15.82682,-91.93541 0.77159,-7.86982 1.6961,-15.72614 2.31475,-23.60946 2.9974,-38.1952 2.44529,-76.62526 0.27716,-114.84403 -1.22246,-14.85944 -2.56832,-29.64627 -4.50814,-44.43011 -0.65316,-4.97785 -1.47104,-11.26277 -2.54753,-16.24521 -0.40974,-1.89643 -0.99517,-3.75059 -1.49276,-5.62589 -16.80443,-50.30021 -87.93967,-26.53515 -71.13524,23.76506 z"/>
<path d="m 809.7168,590.5982 c -0.0964,-0.0886 -0.3044,-0.39577 -0.28912,-0.26576 0.0911,0.77556 0.36786,1.51815 0.52613,2.28284 0.3632,1.75474 0.73321,3.50882 1.03812,5.27462 0.50042,2.89806 0.98891,5.79949 1.37748,8.71466 1.43045,10.73171 1.48575,13.83606 2.33422,25.11321 1.33746,23.5926 1.4459,47.26602 -0.23812,70.84466 -1.09068,15.27115 -2.11584,22.37523 -3.92137,37.56647 -3.49845,24.78773 -7.74913,49.68964 -15.61151,73.52812 -0.91455,2.77288 -2.0215,5.47855 -3.03225,8.21783 -0.87882,1.92332 -1.75764,3.84664 -2.63646,5.76996 -21.37312,48.53544 47.26636,78.76161 68.63949,30.22617 v 0 c 1.51324,-3.50873 3.02649,-7.01746 4.53973,-10.52619 1.45748,-4.09684 3.03223,-8.15385 4.37244,-12.29054 9.06093,-27.96737 14.20162,-57.07899 18.21179,-86.13623 2.03584,-17.36494 3.13431,-24.95703 4.33922,-42.50487 1.83956,-26.79056 1.70428,-53.68553 0.1133,-80.48417 -1.62694,-20.54126 -3.1284,-42.99417 -10.07756,-62.58817 -0.76533,-2.15796 -1.7558,-4.22932 -2.6337,-6.34398 -23.75976,-47.41281 -90.81159,-13.81144 -67.05183,33.60137 z"/>
</svg>
