<?xml version="1.0" ?>
<svg xmlns="http://www.w3.org/2000/svg" viewBox="0 0 1000 1000">
<path d="m 79.11776,376.73351 c 0.887834,3.47409 1.637922,6.98633 2.663502,10.42228 2.597764,8.70316 6.666736,19.51729 9.817649,27.91439 3.337129,8.89337 9.311409,24.64443 13.084109,33.144 2.76913,6.23864 5.88502,12.31751 8.82753,18.47627 8.39504,15.9303 18.02722,31.14497 27.58442,46.38736 28.18366,44.92417 91.71604,5.06645 63.53237,-39.85772 v 0 c -8.0896,-12.88703 -16.24244,-25.74681 -23.55734,-39.09835 -2.31523,-4.74771 -4.79234,-9.41983 -6.94567,-14.24313 -2.28572,-5.11983 -4.30351,-10.35573 -6.3643,-15.57017 -5.28251,-13.36643 -10.35055,-26.85385 -14.76989,-40.53149 -9.16168,-52.23565 -83.034052,-39.27909 -73.87238,12.95656 z"/>
<path d="m 243.48515,243.32276 c 0.40142,22.30135 0.18404,44.61031 0.14106,66.9142 0.45231,42.39875 -0.92637,84.8197 -6.16663,126.92688 -1.20581,9.68909 -2.76611,19.33076 -4.14917,28.99613 -6.31004,38.78889 -13.72382,77.43493 -25.28144,115.04268 -7.58351,24.67626 -9.64593,28.91651 -18.75546,52.80442 -9.70497,22.96692 -20.69324,45.42124 -33.68173,66.72421 -9.4564,15.50982 -14.10097,21.33319 -24.68857,35.97282 -30.987105,43.03835 29.87832,86.86073 60.86542,43.82238 v 0 c 12.71536,-17.72815 17.61002,-23.83045 29.00084,-42.68902 14.89776,-24.66467 27.53968,-50.62247 38.61837,-77.2037 9.98748,-26.39733 12.53793,-31.82959 20.80744,-59.00994 12.43033,-40.85619 20.59673,-82.78325 27.36814,-124.90494 1.49621,-10.58236 3.18513,-21.13926 4.48863,-31.74709 5.487,-44.65296 7.03455,-89.63342 6.57402,-134.5903 0.0431,-22.35187 0.26203,-44.70955 -0.14092,-67.05873 0,-53.03301 -75,-53.03301 -75,0 z"/>
<path d="m 350.81239,389.21553 c 4.65867,10.40388 7.66924,21.44199 11.56519,32.13397 1.81584,4.98335 3.77991,9.91142 5.66986,14.86713 5.92326,15.22251 13.35,29.7823 20.00733,44.67899 1.94496,4.35213 3.75603,8.76287 5.63405,13.14431 20.94586,48.72136 89.84827,19.09943 68.9024,-29.62193 v 0 c -2.1711,-5.03706 -4.27607,-10.10315 -6.51331,-15.11119 -5.95235,-13.32422 -12.60859,-26.33804 -17.99214,-39.91612 -1.59174,-4.13445 -3.25741,-8.24118 -4.77522,-12.40333 -5.29776,-14.52761 -9.32324,-29.61148 -16.49601,-43.39088 -25.18647,-46.67056 -91.18862,-11.05152 -66.00215,35.61905 z"/>
<path d="m 488.78215,278.73216 c -2.42944,21.77132 -1.99961,43.77816 -2.15275,65.65469 -0.28004,44.66125 1.1028,89.30577 2.30854,133.94431 0.68897,38.34274 2.1031,76.73181 0.79632,115.07939 -0.22587,6.6283 -0.64122,13.24878 -0.96183,19.87317 -1.81223,23.95359 -0.78887,12.39944 -3.01125,34.66759 -5.23123,52.77437 69.403,60.17245 74.63423,7.39808 v 0 c 2.4372,-24.73906 1.31833,-11.90983 3.29189,-38.4933 0.3439,-7.31086 0.78847,-14.61769 1.0317,-21.93259 1.31438,-39.5277 -0.0723,-79.09512 -0.8084,-118.61745 -1.18282,-43.78947 -2.55048,-87.58464 -2.28303,-131.39642 0.1228,-17.69382 0.0594,-35.45886 1.00827,-53.11487 9.23666,-52.22245 -64.61704,-65.28505 -73.85369,-13.0626 z"/>
<path d="m 609.20179,399.07946 c 7.42672,12.61012 13.68894,25.86663 20.16462,38.97832 9.17796,18.2648 16.83875,37.19664 22.76856,56.74849 15.52193,50.71065 87.23762,28.75933 71.71569,-21.95132 v 0 c -2.79092,-9.05487 -3.47048,-11.63764 -6.81856,-20.82963 -5.86926,-16.11378 -12.92591,-31.76498 -20.4203,-47.17985 -7.64354,-15.47563 -15.06419,-31.11459 -24.03871,-45.87932 -28.36439,-44.81028 -91.73569,-4.69697 -63.3713,40.11331 z"/>
<path d="m 755.00514,137.25156 c 0.30293,21.59003 0.35901,43.18468 0.56219,64.77699 0.085,47.86434 0.96621,95.71579 1.94563,143.56818 1.61968,63.88991 -0.49737,127.77856 -2.69916,191.62468 -2.61446,69.46382 -4.08826,138.96296 -6.66577,208.42736 -2.15337,50.69173 -4.60363,101.36906 -7.39069,152.02968 -2.91268,52.95297 71.97412,57.07211 74.8868,4.11915 v 0 c 2.81068,-51.10722 5.28387,-102.23121 7.45239,-153.36993 2.57606,-69.52953 4.06165,-139.09326 6.67274,-208.62225 2.24756,-65.21857 4.38075,-130.48049 2.72799,-195.74343 -0.97377,-47.57608 -1.85099,-95.15114 -1.93325,-142.73914 -0.21003,-22.32005 -0.23794,-44.64342 -0.61453,-66.96021 -2.04277,-52.993647 -76.98711,-50.10473 -74.94434,2.88892 z"/>
</svg>
