<?xml version="1.0" ?>
<svg xmlns="http://www.w3.org/2000/svg" width="1000" height="1000">
<path d="m 532.53894,43.23198 c -0.23409,0.376435 -0.50242,0.733625 -0.70227,1.129305 -4.2426,8.400018 -2.0876,5.213861 -8.00525,15.286764 -6.50853,11.078678 -12.46374,20.131039 -20.0927,30.736061 -5.20941,7.24161 -10.68916,14.28486 -16.03373,21.42729 -30.68323,39.44777 -63.20197,77.47583 -97.99109,113.36934 -26.08653,26.91465 -34.40505,34.15907 -61.59887,59.75255 -23.28894,20.56357 -35.26794,32.06518 -59.94065,50.37107 -9.16542,6.80027 -18.82494,12.90796 -28.23741,19.36194 -43.65823,30.10747 -1.07984,91.84952 42.57838,61.74206 v 0 c 10.81415,-7.49464 21.89814,-14.61417 32.44244,-22.48393 26.62939,-19.8749 39.56077,-32.26397 64.5805,-54.39583 28.65778,-27.01313 37.39577,-34.63154 64.90001,-63.06199 36.70005,-37.93595 71.02592,-78.1059 103.37551,-119.80068 5.97551,-8.02742 12.11294,-15.93681 17.92651,-24.08227 8.86388,-12.41929 16.47641,-24.07045 24.03263,-37.20447 4.03227,-7.00878 8.69366,-15.948931 11.86604,-23.583692 1.25239,-3.014034 2.23783,-6.132177 3.35675,-9.198265 13.6933,-51.23469 -58.76349,-70.5999433 -72.4568,-19.365253 z"/>
<path d="m 368.51198,151.56399 c 22.52403,13.74231 45.80481,26.19294 68.4581,39.72069 7.50634,4.48253 14.92322,9.11321 22.38484,13.66981 29.10002,18.16545 57.00497,38.17 83.63456,59.78668 11.92575,9.68077 16.82004,14.08298 28.02571,23.82136 12.10891,10.97211 6.58696,5.79801 16.63688,15.44615 38.31299,36.66899 90.17077,-17.51377 51.85777,-54.18275 v 0 c -11.96199,-11.42 -5.53967,-5.43443 -19.32366,-17.89567 -12.25818,-10.6341 -17.60084,-15.43326 -30.66082,-26.00587 -29.01751,-23.49088 -59.41347,-45.23832 -91.10137,-64.99026 -7.9018,-4.81908 -15.7581,-9.71356 -23.7054,-14.45723 -21.57001,-12.87497 -43.67725,-24.82215 -65.22727,-37.72766 -44.41675,-28.976773 -85.39608,33.83799 -40.97934,62.81475 z"/>
<path d="m 410.70555,334.79297 c 1.91513,19.19255 -0.63507,38.45912 -4.88973,57.17861 -1.87557,8.25211 -4.19493,16.39704 -6.29239,24.59556 -12.87916,43.26665 -30.22422,85.22388 -51.54978,125.01684 -13.95158,26.03332 -19.13816,33.09308 -34.87375,57.63176 -22.46996,30.29334 -10.81394,16.36807 -34.62902,42.05725 -35.74051,39.18057 19.66918,89.72527 55.40968,50.54471 v 0 c 29.78179,-33.05413 15.61214,-15.67672 42.41341,-52.21001 17.55174,-27.54036 23.2055,-35.25406 38.75795,-64.47514 23.75383,-44.63044 43.03259,-91.67315 57.1899,-140.20688 2.44611,-9.79864 5.20602,-19.52425 7.33834,-29.39594 5.71479,-26.45698 8.55616,-53.68292 5.46458,-80.6708 -7.02442,-52.56574 -81.36361,-42.6317 -74.33919,9.93404 z"/>
<path d="m 176.30832,550.9425 c 2.31552,-0.46279 4.64635,-0.85465 6.94656,-1.38837 8.44,-1.95835 15.02074,-3.96508 23.50767,-6.56993 20.1781,-6.19318 19.5481,-6.36498 41.43446,-12.90291 9.13572,-2.72903 18.31468,-5.31115 27.47202,-7.96673 48.84852,-13.89315 98.60584,-24.3609 148.79113,-32.07361 35.02149,-5.38226 52.70136,-7.12024 87.93519,-11.23284 63.10608,-6.82497 126.52312,-11.01275 190.01209,-11.15245 8.89132,-0.0196 17.78179,0.17779 26.67268,0.26668 21.93516,0.98904 44.23171,0.5916 65.82848,5.12287 52.04104,10.20932 66.4792,-63.38782 14.43816,-73.59714 v 0 c -3.24865,-0.61356 -6.47953,-1.33017 -9.74596,-1.84069 -23.06757,-3.60526 -46.5224,-3.86635 -69.79752,-4.68155 -9.45321,-0.088 -18.90604,-0.28951 -28.35963,-0.26397 -66.07744,0.17851 -132.0808,4.53384 -197.75862,11.65377 -36.88552,4.32031 -55.02614,6.10227 -91.76473,11.78107 -53.00645,8.19338 -105.55614,19.30624 -157.15442,33.98969 -9.5727,2.78003 -19.16722,5.48599 -28.7181,8.34009 -20.1276,6.01478 -39.98424,12.98159 -60.32274,18.26648 -52.50235,7.48351 -41.91908,81.73305 10.58328,74.24954 z"/>
<path d="m 368.54303,584.3533 c -1.14792,16.74959 -0.24011,33.682 1.98059,50.31338 0.7591,5.68509 1.80016,11.32896 2.70024,16.99344 5.9744,31.37797 15.63237,61.89465 25.8584,92.10465 0.98885,2.83903 1.9777,5.67805 2.96654,8.51708 17.45147,50.0794 88.27443,25.39931 70.82297,-24.68009 v 0 c -0.91923,-2.63648 -1.83847,-5.27296 -2.7577,-7.90944 -8.91533,-26.27275 -17.39703,-52.79205 -22.85609,-80.03007 -1.91137,-11.50209 -2.4538,-13.33194 -3.45104,-24.52991 -0.545,-6.1197 -0.67466,-10.92857 -0.76577,-16.9532 -0.0207,-1.36868 0.0531,-2.7388 -0.003,-4.10649 -0.004,-0.0884 -0.10414,0.14314 -0.15621,0.21471 7.02444,-52.56574 -67.31474,-62.4998 -74.33918,-9.93406 z"/>
<path d="m 434.55319,646.8651 c 0.0807,0.0732 0.14162,0.26211 0.24198,0.21971 1.22392,-0.51714 2.35465,-1.23233 3.54617,-1.8203 2.93729,-1.44945 5.85794,-2.93588 8.83964,-4.29164 11.40694,-5.18665 17.82722,-7.7902 30.10579,-11.84493 6.78201,-2.2396 13.66285,-4.168 20.49428,-6.252 38.30466,-10.79797 77.74743,-17.37339 117.40339,-20.51365 6.84346,-0.54192 13.7044,-0.83441 20.5566,-1.25162 14.82221,-0.52227 29.71855,-0.59485 44.47526,1.12136 5.11355,0.5947 11.14735,1.23701 15.79951,3.75704 -7.71851,-1.72704 -11.97013,-8.3097 -15.1475,-14.97896 -0.69321,-1.45505 -0.37847,-3.33513 -1.30058,-4.65703 -0.35495,-0.50883 -0.58515,1.10307 -0.76416,1.69708 -0.70076,2.32535 -1.24629,4.69467 -1.86944,7.042 -7.33108,26.84234 -14.8993,53.61711 -23.48802,80.08617 -3.60847,10.49591 -7.45994,20.92606 -12.03646,31.04444 -1.18421,2.61822 -3.83298,8.26358 -5.70315,10.97276 -0.21213,0.3073 -0.61686,0.42097 -0.9253,0.63145 2.35206,-3.6258 1.66224,-3.17789 5.56967,-6.12134 0.81751,-0.61583 1.907,-0.86202 2.62728,-1.58918 0.20422,-0.20617 0.0504,-0.7332 -0.21837,-0.84274 -1.58376,-0.64559 -3.32177,-0.818 -4.97058,-1.27244 -2.78012,-0.76625 -5.54326,-1.59285 -8.31489,-2.38928 -11.54141,-3.51593 -22.92319,-7.53236 -33.77922,-12.83133 -3.19122,-1.55768 -6.27238,-3.3314 -9.40857,-4.99709 -47.01841,-24.53098 -81.71046,41.96309 -34.69204,66.49407 v 0 c 4.59216,2.36643 9.10767,4.88793 13.77649,7.09928 14.28458,6.76581 29.16825,12.07636 44.30594,16.57498 14.59241,3.87416 29.01644,7.97388 44.36152,6.34453 11.24684,-1.19419 20.59879,-4.60238 29.85701,-11.16016 4.01226,-2.84196 7.15864,-6.74194 10.73797,-10.1129 2.19445,-3.10401 4.55624,-6.09624 6.58336,-9.31203 2.98263,-4.7316 6.92981,-13.03089 9.17261,-18.04715 5.45235,-12.19481 10.09661,-24.7355 14.40646,-37.37276 9.05414,-27.99229 17.11146,-56.28366 24.81487,-84.67591 3.26851,-13.15641 7.30319,-27.11787 4.01457,-40.81046 -3.35569,-13.97183 -8.6073,-21.58912 -19.62085,-30.47793 -3.51201,-2.83447 -7.87341,-4.41398 -11.81011,-6.62097 -3.58686,-1.23277 -7.10988,-2.66988 -10.76058,-3.6983 -7.75148,-2.18362 -17.21896,-3.67869 -25.1413,-4.52931 -18.32523,-1.96757 -36.79875,-1.95123 -55.19179,-1.2242 -7.71857,0.48605 -15.4473,0.83132 -23.15571,1.45815 -44.67833,3.6331 -89.09257,11.17798 -132.21803,23.4793 -8.06551,2.49915 -16.19632,4.79657 -24.19654,7.49745 -13.74033,4.63875 -25.05572,9.11492 -38.02318,15.26812 -9.26523,4.39645 -17.46027,8.65559 -25.71652,14.68448 -2.65877,1.9415 -4.99316,4.29213 -7.48975,6.43819 -36.61756,38.36214 17.63471,90.14719 54.25227,51.78505 z"/>
<path d="m 492.99068,487.39304 c 0.26645,16.58075 0.052,33.17047 -0.003,49.75338 0.25172,48.48779 -1.15206,96.95434 -3.24583,145.39052 -2.99664,58.44263 -7.65217,116.78728 -13.43872,175.01543 -2.56186,25.24559 -6.29868,50.34194 -10.09807,75.42257 -7.93312,52.43626 66.22301,63.65546 74.15613,11.21912 v 0 c 3.9812,-26.34741 7.89336,-52.7117 10.575,-79.23182 5.91374,-59.61827 10.69004,-119.35399 13.73594,-179.19222 2.12899,-49.43071 3.56782,-98.892 3.31514,-148.37511 0.0616,-18.58443 0.45029,-37.19253 -0.21858,-55.76689 -4.07648,-52.8761 -78.85458,-47.11108 -74.7781,5.76502 z"/>
</svg>
