<?xml version="1.0" ?>
<svg xmlns="http://www.w3.org/2000/svg" viewBox="0 0 1000 1000">
<path d="m 37.588764,396.26228 c 0.261917,2.04113 0.446563,4.09366 0.785749,6.12337 2.078861,12.44006 5.295855,24.73338 8.297573,36.96811 2.262318,9.22101 7.653971,30.74736 9.837331,39.48314 9.079558,38.78806 16.568475,77.92353 24.902108,116.87612 11.095275,51.85938 84.435505,36.1683 73.340235,-15.69108 v 0 c -8.51265,-39.78702 -16.14205,-79.76585 -25.48055,-119.37077 -5.79922,-23.20272 -11.8038,-46.37007 -16.87389,-69.7443 -3.78685,-52.89764 -78.595405,-47.54222 -74.808556,5.35541 z"/>
<path d="m 203.18626,394.57641 c 18.92995,-5.80833 38.35612,-9.53847 57.84162,-12.88956 23.26234,-4.05237 46.84413,-5.27359 70.41455,-5.26543 3.61554,0.055 8.38401,0.1009 12.09217,0.24608 1.07619,0.0421 2.15199,0.1026 3.22542,0.19038 0.4325,0.0354 1.72095,0.22514 1.28948,0.17884 -7.73673,-0.8302 -3.55586,-0.62464 -16.69434,-6.90169 -3.59465,-4.99375 -7.1893,-9.9875 -10.78395,-14.98124 -0.37489,-0.897 -0.69557,-3.56336 -1.12465,-2.69099 -0.8339,1.69542 -0.20782,3.77318 -0.33484,5.65831 -0.23251,3.45093 -0.48245,6.90071 -0.74373,10.34958 -1.13217,14.94488 -1.11177,14.1028 -2.50512,29.76953 -3.08259,33.26329 -7.56166,66.37422 -13.96997,99.15907 -1.91957,8.67163 -3.85207,17.35197 -6.31784,25.88894 -0.66795,2.31259 -1.5057,6.02921 -2.96738,8.17061 4.31059,-10.00739 11.16378,-13.81253 21.0334,-17.03121 1.7155,-0.55946 4.09584,0.50632 5.35603,-0.78513 0.78528,-0.80476 -1.91277,-1.1832 -2.88621,-1.74596 -2.60877,-1.50817 -5.23974,-2.97759 -7.85961,-4.46638 -17.06207,-10.85179 -7.98053,-4.91893 -27.17599,-17.90321 -43.96139,-29.66304 -85.91126,32.50776 -41.94986,62.1708 v 0 c 22.7697,15.33044 11.4775,8.04343 33.8421,21.91441 10.06606,5.18858 19.73798,11.06016 30.98853,13.50664 5.9375,1.29113 12.08691,2.39899 18.13658,1.83112 15.40127,-1.44569 22.75691,-6.39194 33.07543,-17.26744 2.43905,-2.57069 3.75813,-6.00883 5.63719,-9.01325 0.92356,-2.12059 1.92124,-4.2104 2.77068,-6.36175 5.65843,-14.33088 8.37249,-29.66103 11.93511,-44.57756 6.85395,-35.33842 11.77696,-71.0038 15.05775,-106.85477 1.29942,-14.65012 2.79406,-29.34013 3.49366,-44.03656 0.30253,-6.35505 0.9076,-20.56055 -1.37184,-26.27094 -3.07877,-7.71283 -8.42435,-14.31421 -12.63652,-21.47131 -5.58907,-3.05653 -10.93482,-6.60772 -16.76723,-9.16959 -2.33376,-1.0251 -4.98237,-1.09382 -7.50038,-1.48989 -8.04053,-1.26471 -16.29703,-0.60301 -24.38421,-1.01543 -27.83614,0.0358 -55.68054,1.57113 -83.14834,6.36125 -21.5851,3.74737 -43.12597,7.86346 -64.11481,14.25265 -51.29428,13.46835 -32.24716,86.00943 19.04712,72.54108 z"/>
<path d="m 157.93013,171.63634 c 2.10915,30.87479 3.41215,61.81012 4.97743,92.71857 3.17894,68.02074 5.60117,136.09695 5.98397,204.19697 0.0925,16.449 -0.0104,32.89852 -0.0156,49.34778 -0.54442,95.60285 -3.59755,191.16525 -5.58015,286.74376 -0.89744,50.42 -0.4961,26.23807 -1.21769,72.54555 -0.82616,53.02657 74.16474,54.19493 74.9909,1.16836 v 0 c 0.7176,-46.06784 0.31856,-22.01484 1.21067,-72.15878 1.99252,-96.09032 5.06506,-192.16445 5.59627,-288.27946 0.003,-16.75306 0.10661,-33.50639 0.0103,-50.25917 -0.39728,-69.06762 -2.84581,-138.1112 -6.07467,-207.09839 -0.85025,-16.78888 -1.72583,-33.57648 -2.57328,-50.3655 -0.70057,-13.87925 -1.16753,-27.79065 -2.2955,-41.6453 -0.18614,-2.28626 -0.44897,-4.56563 -0.67346,-6.84845 -7.02444,-52.56574 -81.36363,-42.63168 -74.33919,9.93406 z"/>
<path d="m 410.06344,317.24222 c -0.0964,23.52642 0.35499,47.06452 -0.71717,70.57737 -0.41675,9.13955 -1.11073,18.26435 -1.66609,27.39653 -6.08569,65.75568 -17.46327,131.05638 -33.77478,195.05086 -3.7367,14.66009 -8.02475,29.17409 -12.03712,43.76114 -11.21357,34.94373 -14.2243,46.60742 -27.79458,80.18774 -4.77647,11.8196 -10.00352,23.45514 -15.30485,35.04882 -8.42496,18.42482 -20.62133,42.5371 -29.7273,60.80825 -23.64912,47.46809 43.4809,80.91299 67.13001,33.4449 v 0 c 9.87879,-19.83501 22.28288,-44.33976 31.37131,-64.33436 5.82388,-12.81258 11.54873,-25.67846 16.79478,-38.73828 14.58238,-36.30226 17.83613,-48.92236 29.85648,-86.56836 4.2443,-15.49908 8.77833,-30.92172 12.7329,-46.49725 17.29836,-68.13147 29.31893,-137.65875 35.61817,-207.66595 0.59113,-9.95222 1.32956,-19.89679 1.77339,-29.85667 1.07809,-24.19259 0.66171,-48.40876 0.74485,-72.61474 0,-53.03301 -75,-53.03301 -75,0 z"/>
<path d="m 483.43488,238.38167 c 27.69763,-6.89864 55.58175,-13.06705 83.44249,-19.27448 31.83948,-6.93191 63.76842,-13.63204 96.15723,-17.40276 5.5468,-0.51995 11.11869,-1.02841 16.69573,-0.7917 0.0912,0.004 3.01526,0.19691 3.10119,0.29412 0.22143,0.25051 -0.66744,-0.0408 -1.00116,-0.0612 -10.78525,-2.07447 -18.0128,-8.25245 -24.09599,-17.74747 -2.16211,-3.37475 -2.66252,-7.56511 -3.78246,-11.41341 -0.2533,-0.87035 0.5138,-3.04393 -0.32485,-2.69992 -0.9269,0.38021 -0.24382,1.9888 -0.36573,2.98319 -3.66898,28.31309 -5.78658,56.78025 -7.49755,85.26776 -2.52901,52.0822 -1.71504,104.24676 -1.34823,156.36676 0.6691,49.28712 0.3788,98.60235 2.36157,147.86383 0.37967,9.43284 0.92556,18.85826 1.38834,28.28739 2.1254,34.82902 5.73262,69.68571 13.40711,103.7773 4.55735,20.24466 6.12834,23.72402 12.33508,43.11714 8.63038,24.28729 20.22891,47.51199 36.27907,67.78359 9.81367,12.39483 12.94904,14.62238 24.32475,25.44785 22.47926,19.64741 49.10756,33.1846 75.79904,46.05456 15.37239,7.51126 31.08953,14.26372 46.76847,21.09756 7.64861,3.08163 18.51333,8.5875 26.4921,5.64374 11.69539,-4.31502 22.94412,-11.12477 31.44735,-20.24051 6.69562,-7.17792 10.0216,-35.30624 11.47089,-44.02955 1.09132,-8.61817 2.18264,-17.23634 3.27396,-25.85451 6.62331,-52.61778 -67.78948,-61.98456 -74.41279,-9.36677 v 0 c -0.97824,7.82307 -1.95648,15.64614 -2.93471,23.46921 -0.75601,5.11456 -2.35223,10.17424 -2.26804,15.34369 0.0151,0.92535 1.66642,-0.80567 2.49819,-1.21145 8.86855,-4.32653 17.07461,-10.41952 26.60278,-12.98546 4.15109,-1.11789 8.43164,1.68929 12.66989,2.4093 1.72272,0.29267 -11.30754,-3.14636 -4.87352,-1.93112 -14.81178,-6.45551 -29.66812,-12.815 -44.18866,-19.91457 -19.89073,-9.56913 -39.97554,-19.24055 -57.16794,-33.31033 -7.09283,-6.40875 -8.85759,-7.55224 -15.05863,-15.02465 -11.39009,-13.72534 -19.28119,-29.79469 -25.3652,-46.47125 -5.07931,-15.4812 -6.38417,-18.3225 -10.13739,-34.67939 -6.99132,-30.46877 -10.11392,-61.66915 -12.05271,-92.8162 -0.44506,-8.99133 -0.97075,-17.97904 -1.33516,-26.974 -1.97068,-48.64442 -1.65152,-97.34347 -2.32569,-146.01331 -0.35519,-50.45131 -1.16444,-100.94531 1.21637,-151.3623 1.63268,-27.43544 3.70543,-54.8449 7.24177,-82.11065 0.97877,-10.41972 2.00541,-21.27532 -3.52999,-30.97734 -6.66486,-11.68162 -12.06214,-15.39394 -23.10448,-19.96396 -1.98053,-0.81967 -4.14414,-1.0971 -6.2162,-1.64565 -13.51847,-2.0865 -27.19796,-1.65082 -40.76992,-0.0942 -12.58808,1.50012 -14.45625,1.60099 -27.58931,3.72003 -25.52698,4.11882 -50.8222,9.54737 -76.0975,14.96222 -28.65958,6.38761 -57.34265,12.73525 -85.83113,19.84798 -51.35782,13.22401 -32.65625,85.85493 18.70157,72.63093 z"/>
<path d="m 510.01181,486.32767 c 14.9223,15.09464 29.56077,30.45867 44.18673,45.84002 36.54448,38.43178 90.89522,-13.24991 54.35074,-51.68169 v 0 c -15.07881,-15.8575 -30.18037,-31.68779 -45.56378,-47.25059 -37.54189,-37.45806 -90.51558,15.63421 -52.97369,53.09226 z"/>
</svg>
