<?xml version="1.0" ?>
<svg xmlns="http://www.w3.org/2000/svg" width="1000" height="1000">
<path d="m 64.515083,350.96873 c 5.159164,33.57208 9.253281,67.31456 13.34153,101.03368 5.8649,50.37632 13.974173,100.44955 22.748487,150.38916 9.17927,52.23256 83.04727,39.2511 73.868,-12.98146 v 0 c -8.54767,-48.62715 -16.45688,-97.38342 -22.16204,-146.43736 -4.25406,-35.06762 -8.50163,-70.16204 -13.94222,-105.06627 -9.2364,-52.22249 -83.090162,-39.16024 -73.853757,13.06225 z"/>
<path d="m 202.69138,399.58444 c 12.6193,-6.78502 25.59811,-12.93362 38.97009,-18.09514 4.7131,-1.81924 9.49422,-3.45712 14.24132,-5.18567 25.76143,-8.34692 52.38912,-14.75755 79.43067,-17.0753 4.16164,-0.3567 8.34249,-0.43435 12.51373,-0.65153 12.0541,0.25681 24.75599,-0.25167 36.33164,3.78006 0.10573,0.0765 0.44754,0.2352 0.3172,0.22934 -1.33089,-0.0598 -2.55653,-0.89375 -3.61719,-1.69989 -8.1519,-6.1958 -11.1676,-9.82733 -14.49078,-19.96177 0.40113,24.45613 -0.95308,48.89654 -2.49381,73.29279 -2.27394,32.34375 -6.64666,64.49113 -12.86749,96.30142 -0.73923,3.36533 -1.44171,6.73894 -2.21768,10.09599 -1.41146,6.10638 -2.92913,12.24901 -5.10761,18.1385 -1.30298,3.52258 -1.14274,3.03375 -0.88906,1.4651 5.67222,-8.33652 3.35582,-6.54339 12.55685,-12.62556 1.20304,-0.79525 4.0181,-0.51851 3.86096,-1.95205 -0.16078,-1.46669 -2.80692,-0.91167 -4.22104,-1.33273 -18.47563,-5.50114 -1.56205,-0.11194 -24.78898,-7.78819 -50.40605,-16.48424 -73.71828,54.80069 -23.31222,71.28492 v 0 c 21.90605,7.10316 49.7916,17.74272 73.00244,10.65928 16.58317,-5.06082 17.93753,-9.58239 28.19234,-21.33808 1.41131,-2.73014 2.95327,-5.39663 4.23395,-8.19044 1.64649,-3.59184 3.81009,-10.17449 4.93435,-13.90096 2.99363,-9.92268 5.26006,-20.04099 7.37316,-30.1816 6.78865,-34.99888 11.65437,-70.34926 14.10235,-105.93134 1.78883,-28.59339 3.54887,-57.30686 2.2179,-85.95692 -0.64067,-3.71829 -0.62941,-7.6101 -1.92201,-11.15486 -1.90338,-5.21975 -4.32625,-10.33728 -7.56204,-14.85373 -6.16447,-8.60424 -16.07272,-13.02799 -25.63708,-16.40207 -6.00863,-1.73742 -7.45913,-2.29462 -13.86793,-3.52381 -15.94494,-3.05822 -32.2358,-3.74095 -48.43604,-3.32958 -5.67444,0.34927 -11.36221,0.52531 -17.02334,1.04782 -32.83895,3.03096 -65.17519,10.77603 -96.42182,21.13561 -5.7044,2.10189 -11.45039,4.09415 -17.11318,6.30567 -14.98472,5.85206 -29.596,12.68436 -43.77069,20.28272 -47.45535,23.67467 -13.97431,90.78667 33.48104,67.112 z"/>
<path d="m 210.70956,153.59104 c -0.0496,37.98143 0.16607,75.96242 0.29524,113.94352 0.38012,92.77619 -3.00361,185.50739 -6.32215,278.20757 -0.59821,18.11932 -1.24102,36.23723 -1.79462,54.35797 -1.33097,43.5657 -1.78314,63.78443 -2.72405,107.18503 -0.65774,30.3388 -1.31203,69.06254 -2.28899,99.53089 -0.49204,15.34543 -1.19674,30.68331 -1.79512,46.02496 -0.77384,14.34824 -1.54769,28.69648 -2.32153,43.04473 -2.851,52.95632 72.04055,56.98823 74.89154,4.03191 v 0 c 0.79108,-14.71971 1.58215,-29.43942 2.37323,-44.15914 0.60918,-15.67746 1.32526,-31.35115 1.82756,-47.0324 0.98042,-30.60783 1.633,-69.22984 2.29403,-99.74047 0.9334,-43.08265 1.38141,-63.15826 2.7025,-106.41094 0.55134,-18.05129 1.19163,-36.09974 1.78745,-54.14961 3.35296,-93.67912 6.75853,-187.38972 6.36972,-281.14559 -0.1289,-37.89607 -0.34437,-75.79203 -0.29481,-113.68843 0,-53.03301 -75,-53.03301 -75,0 z"/>
<path d="m 471.53923,204.80547 c 18.26877,-4.31037 36.5568,-8.63679 54.99489,-12.17448 7.22678,-1.38659 14.49113,-2.56958 21.7367,-3.85438 45.85415,-6.89644 92.07852,-11.84429 138.44344,-13.41642 8.68977,-0.29465 17.3873,-0.27805 26.08096,-0.41708 20.14603,0.14209 40.3079,1.09498 60.31667,3.5205 9.84505,1.19344 12.56006,1.84651 21.60352,3.57365 52.12688,9.76156 65.93181,-63.95698 13.80493,-73.71854 v 0 c -11.87716,-2.1913 -15.19914,-2.97911 -27.94356,-4.48269 -22.90875,-2.70276 -45.98386,-3.78055 -69.04277,-3.882315 -9.5408,0.167645 -19.08592,0.170835 -28.62242,0.502945 -49.49879,1.72377 -98.84988,7.0235 -147.7916,14.48192 -7.97899,1.42675 -15.97727,2.74957 -23.93698,4.28026 -19.37721,3.72634 -38.59756,8.27405 -57.79562,12.81637 -51.45634,12.83529 -33.3045,85.60555 18.15184,72.77026 z"/>
<path d="m 440.96447,332.96467 c 4.80255,18.45501 7.80373,37.33769 10.92056,56.13416 3.96025,24.80739 6.84701,49.77152 9.12079,74.78535 4.81069,52.81437 79.50149,46.01102 74.69079,-6.80335 v 0 c -2.45012,-26.84811 -5.55509,-53.64282 -9.82463,-80.26742 -3.56347,-21.43276 -7.04714,-42.95089 -12.65536,-63.96408 -14.22369,-51.08998 -86.47584,-30.97465 -72.25215,20.11534 z"/>
<path d="m 514.54857,359.98287 c 26.15538,-5.852 52.66779,-10.03817 79.13095,-14.22746 41.64648,-6.50242 83.71936,-9.40047 125.79447,-11.19759 18.91109,-0.6297 37.83622,-0.78294 56.75517,-0.51011 0.11384,0.002 4.55785,0.0847 5.16706,0.11063 0.11211,0.005 -0.22411,0.0364 -0.33573,0.0249 -1.19359,-0.12309 -2.45807,0.0124 -3.57421,-0.42812 -5.28627,-2.08621 -11.26547,-3.31008 -15.50055,-7.09967 -5.28977,-4.73335 -8.03539,-11.70374 -12.05308,-17.55561 -0.36214,-1.47828 -0.43195,-3.06076 -1.08643,-4.43484 -0.246,-0.51647 -0.14484,1.13491 -0.21493,1.70266 -0.19823,1.60583 -0.34781,3.21827 -0.59002,4.81805 -1.63582,10.80434 -4.30746,21.28992 -7.01826,31.86562 -6.29965,21.73198 -12.1304,43.71175 -20.8597,64.63789 -4.61446,11.06193 -7.30466,15.76522 -12.714,26.22655 -24.1964,47.19146 42.54241,81.41034 66.73881,34.21887 v 0 c 7.1748,-14.08707 9.94271,-18.85384 16.10281,-33.85374 9.69579,-23.60932 16.45199,-48.28185 23.42878,-72.78531 3.56489,-14.16885 7.115,-28.25354 8.94233,-42.77732 0.6386,-5.07565 1.40319,-13.88486 1.00673,-19.20942 -0.26575,-3.56901 -1.00888,-7.08632 -1.51332,-10.62948 -4.28453,-6.80495 -7.06191,-14.83625 -12.8536,-20.41486 -8.9557,-8.62621 -20.74862,-9.26007 -32.00172,-9.40916 -20.3482,-0.28801 -40.70302,-0.12429 -61.04227,0.57145 -44.92903,1.93725 -89.85081,5.08703 -134.31875,12.05322 -29.74831,4.72016 -59.62182,9.28938 -88.89745,16.45263 -50.80577,15.20769 -29.29886,87.0579 21.50691,71.85021 z"/>
<path d="m 508.49136,483.93182 c 22.76013,-3.75156 45.7021,-6.21674 68.65689,-8.39942 31.01596,-2.50828 62.13218,-3.82262 93.25113,-3.75863 19.10124,0.0393 25.73349,0.39042 44.41722,0.9989 5.94286,0.26569 11.88571,0.53138 17.82856,0.79707 52.98046,2.3602 56.31828,-72.56549 3.33782,-74.92569 v 0 c -6.24994,-0.27748 -12.49987,-0.55496 -18.74981,-0.83244 -20.04197,-0.63992 -27.0251,-1.00828 -47.53268,-1.03458 -33.26694,-0.0427 -66.53083,1.37815 -99.68497,4.09532 -24.10551,2.31297 -48.20269,4.87939 -72.10741,8.80993 -52.50236,7.48349 -41.91911,81.73303 10.58325,74.24954 z"/>
<path d="m 394.19992,612.39333 c 4.34644,28.9784 8.23843,58.02918 11.80435,87.11465 5.18065,47.31399 9.99459,94.66905 14.78354,142.02438 1.35562,13.9635 2.80662,27.92191 3.4568,41.93938 2.56829,52.97078 77.48029,49.33867 74.912,-3.63212 v 0 c -0.76717,-15.32201 -2.20254,-30.59222 -3.74946,-45.85408 -4.84351,-47.8858 -9.70501,-95.77215 -14.9615,-143.61431 -3.7506,-30.52542 -7.79867,-61.02408 -12.46077,-91.42336 -9.50737,-52.17384 -83.29233,-38.72838 -73.78496,13.44546 z"/>
<path d="m 473.52884,648.73486 c 21.83376,-9.64873 44.74526,-16.5305 67.87678,-22.28647 7.95322,-1.97905 15.96394,-3.71941 23.94591,-5.57911 34.66426,-7.59784 69.89158,-12.52576 105.28973,-14.98101 20.88237,-1.44842 26.80633,-1.29116 47.26928,-1.63299 26.23857,0.24765 52.63125,1.02083 78.50672,5.70731 3.68878,0.77849 7.39125,1.55484 11.01643,2.60228 0.1483,0.0428 -0.30624,-0.0484 -0.45291,-0.0965 -0.79711,-0.26162 -1.58361,-0.55452 -2.37541,-0.83179 -7.39986,-3.95004 -8.53655,-3.85821 -15.01064,-12.104 -1.86102,-2.37031 -2.59914,-5.44977 -4.16896,-8.02222 -0.17902,-0.29336 -0.12257,0.68316 -0.10037,1.02611 0.14164,2.18765 0.44149,4.36296 0.59087,6.55009 0.23816,3.48706 0.38105,6.97996 0.57157,10.46994 1.05864,31.64525 -0.61299,63.36231 -4.51006,94.77795 -0.92625,7.46682 -2.10205,14.90057 -3.15308,22.35086 -5.5107,33.29977 -11.43496,66.69673 -21.28735,99.03912 -1.47754,4.85029 -3.18363,9.62799 -4.77545,14.44198 -4.16111,12.05939 -10.44994,23.06714 -17.66914,33.50407 -29.70088,43.93584 32.43378,85.93923 62.13466,42.00339 v 0 c 2.03997,-3.05888 4.18473,-6.05041 6.1199,-9.17664 8.38863,-13.55165 15.37623,-27.90859 20.6774,-42.95112 1.90836,-5.85476 3.94689,-11.66868 5.72508,-17.56428 10.7325,-35.58367 17.3807,-72.26176 23.34943,-108.89002 1.1539,-8.28703 2.4469,-16.55587 3.46172,-24.86107 4.33398,-35.46921 6.12294,-71.27826 4.80237,-106.99422 -0.87924,-14.63256 -0.96695,-34.68215 -9.39591,-47.35306 -6.42751,-9.6622 -9.4691,-10.45315 -17.88225,-15.21021 -7.95416,-3.06004 -16.22999,-5.00706 -24.60816,-6.56486 -30.65757,-5.33043 -61.80472,-6.82999 -92.89156,-6.84141 -22.77381,0.42219 -29.28447,0.25753 -52.50096,1.90845 -38.93887,2.76893 -77.68251,8.26297 -115.80897,16.66365 -8.76252,2.05551 -17.55849,3.9733 -26.28755,6.16654 -26.7488,6.72085 -53.19948,14.84935 -78.46404,25.99276 -48.60403,21.21668 -18.59911,89.95317 30.00492,68.73648 z"/>
<path d="m 583.35785,611.83181 c -0.68287,36.12464 -1.63239,72.23942 -2.82105,108.35096 -1.44597,44.09106 -3.36864,88.16285 -4.42043,132.26583 -1.26043,53.01803 73.71838,54.80055 74.97882,1.78252 v 0 c 1.03969,-43.87511 2.97297,-87.7185 4.40104,-131.58192 1.21477,-36.93322 2.1926,-73.87014 2.86162,-110.81739 0,-53.03301 -75,-53.03301 -75,0 z"/>
<path d="m 469.40554,779.90942 c 18.0874,-4.89401 35.9383,-10.65055 54.30886,-14.45774 6.89474,-1.42889 13.85068,-2.54465 20.77603,-3.81697 50.10194,-8.53297 100.99426,-8.64861 151.64023,-7.69963 32.06738,0.90292 64.14926,2.74169 95.94104,7.14396 52.54007,7.21395 62.74213,-67.08893 10.20206,-74.30288 v 0 c -34.72489,-4.7339 -69.73594,-6.92236 -104.76108,-7.82835 -21.94051,-0.39801 -32.06619,-0.76032 -54.23766,-0.4168 -37.65797,0.58345 -75.32046,3.10316 -112.49436,9.3674 -8.12536,1.52604 -16.28622,2.87388 -24.37608,4.57814 -19.2755,4.06069 -38.05212,9.96527 -57.03049,15.15741 -51.10646,14.16438 -31.07501,86.43983 20.03145,72.27546 z"/>
<path d="m 469.21833,912.84956 c 23.27354,-2.10006 46.55448,-4.12399 69.84351,-6.0532 46.39036,-3.75886 92.95798,-4.02567 139.46568,-3.43305 23.88219,0.36247 47.71528,1.87228 71.52222,3.69421 52.87915,4.03677 58.58801,-70.74564 5.70886,-74.78242 v 0 c -25.3933,-1.93399 -50.81507,-3.52689 -76.28783,-3.90586 -48.88855,-0.60719 -97.83801,-0.29011 -146.60112,3.68318 -22.35861,1.85248 -44.7192,3.6993 -67.04927,5.87415 -52.97855,2.40272 -49.5806,77.3257 3.39795,74.92299 z"/>
</svg>
