<?xml version="1.0" ?>
<svg xmlns="http://www.w3.org/2000/svg" width="1000" height="1000">
<path d="m 253.93516,82.254824 c 3.737,17.767996 5.37255,35.944376 5.79819,54.078946 0.16293,6.94219 0.0663,13.88804 0.0995,20.83206 -0.14768,21.17549 -1.30134,42.31928 -2.47557,63.45561 -2.93117,52.95194 71.95418,57.09724 74.88536,4.1453 v 0 c 1.25094,-22.67591 2.47395,-45.36037 2.58869,-68.07855 -0.062,-7.99526 0.0371,-15.99339 -0.18594,-23.98577 -0.63237,-22.66194 -2.85953,-45.354314 -7.68063,-67.526196 -12.07639,-51.63972 -85.10599,-34.56112 -73.02959,17.0786 z"/>
<path d="m 141.47974,151.68212 c 16.13011,15.63804 32.94254,30.54963 49.66839,45.54272 39.49027,35.398 89.55061,-20.44966 50.06035,-55.84767 v 0 c -16.11073,-14.44074 -32.3156,-28.79174 -47.84933,-43.857094 -38.29835,-36.684284 -90.17776,17.477754 -51.87941,54.162044 z"/>
<path d="m 379.71643,91.109004 c -10.85624,16.385546 -22.56008,32.179096 -34.21965,47.997016 -31.46264,42.69195 28.9129,87.18683 60.37553,44.49488 v 0 c 13.69141,-18.58147 27.5988,-37.06671 39.75758,-56.709 25.30233,-46.607855 -40.61113,-82.390751 -65.91346,-35.782896 z"/>
<path d="m 127.97123,243.66173 c 0,27.50301 0,55.00603 0,82.50905 -0.13266,41.17995 0.31997,82.38873 -1.45682,123.54329 -0.27209,6.30237 -0.68568,12.59783 -1.02852,18.89675 -1.48524,19.13714 -0.66808,10.18421 -2.36483,26.86655 -5.31883,52.76562 69.30301,60.28759 74.62185,7.52198 v 0 c 1.90208,-19.01829 0.99627,-8.90616 2.63383,-30.34375 0.36528,-6.81207 0.80455,-13.62057 1.09582,-20.43621 1.79442,-41.98989 1.37956,-84.03299 1.49867,-126.04861 0,-27.50302 0,-55.00604 0,-82.50905 0,-53.03301 -75,-53.03301 -75,0 z"/>
<path d="m 204.70479,286.57146 c 23.31392,-3.66791 46.71115,-6.76688 70.15088,-9.50441 31.63149,-3.61237 63.44354,-5.11851 95.26736,-4.89363 14.33454,0.33238 28.66955,1.29733 42.8552,3.42318 2.42634,0.41706 4.86715,0.75934 7.28936,1.20124 0.93645,0.17084 -1.90456,-0.27388 -2.78294,-0.64074 -3.00675,-1.25578 -5.89386,-2.78077 -8.84078,-4.17116 -28.01456,10.60812 -7.70183,-16.3439 -14.96049,-20.89029 -1.11096,-0.69584 0.1392,2.61811 0.20243,3.92748 0.13901,2.87854 0.2858,5.75677 0.40431,8.63623 0.52156,12.6726 0.52343,14.60294 0.89322,28.0913 0.67199,27.08364 0.71233,54.19089 -0.26888,81.26803 -0.66439,18.33454 -1.29322,26.94298 -2.39689,45.26508 -2.26067,32.55636 -5.14122,65.07635 -9.02044,97.4813 -0.0144,0.11339 -1.52152,12.07099 -1.68939,13.22318 -0.12921,0.8869 -0.76459,3.49534 -0.47899,2.64579 1.01799,-3.02808 0.67593,-6.71506 2.68266,-9.20073 12.99399,-16.09518 12.38009,-14.81447 25.1371,-18.75306 -12.67323,-2.33368 -25.07089,-5.86745 -37.49036,-9.24562 -51.19187,-13.85252 -70.78229,58.54372 -19.59042,72.39623 v 0 c 16.86919,4.54418 33.72632,9.3996 51.11032,11.61137 7.11324,-0.33812 14.78761,1.77535 21.3397,-1.01436 9.6352,-4.10241 18.06549,-11.10422 25.17717,-18.79129 6.16837,-6.66743 6.90086,-24.83574 8.27265,-33.97465 4.03874,-33.86929 7.0776,-67.85379 9.4151,-101.88185 1.1665,-19.47794 1.80934,-28.24989 2.50588,-47.79017 1.01316,-28.42214 0.97396,-56.87498 0.26638,-85.30348 -0.3682,-13.31864 -0.62002,-26.66431 -1.45678,-39.9655 -0.32389,-5.14865 -1.03547,-16.46153 -3.30624,-20.58397 -3.85292,-6.99475 -9.64407,-12.73098 -14.46611,-19.09646 -3.48607,-1.75839 -6.8743,-3.72592 -10.45822,-5.27517 -4.97511,-2.15063 -11.34796,-2.19266 -16.60785,-3.37515 -17.64609,-2.55014 -35.44339,-3.91413 -53.27244,-4.21533 -34.8913,-0.18924 -69.7712,1.40176 -104.44993,5.40065 -25.00058,2.93182 -49.96327,6.215 -74.81996,10.20044 -52.1813,9.46632 -38.79392,83.26183 13.38739,73.79552 z"/>
<path d="m 257.61636,259.83464 c 0.10257,25.40928 0.11221,50.81863 0.0974,76.22829 -0.0545,40.60153 -1.77827,81.1736 -3.23113,121.74192 -1.89804,52.99904 73.05391,55.68326 74.95195,2.68423 v 0 c 1.48436,-41.44814 3.23359,-82.90032 3.27917,-124.38249 0.0148,-25.42421 0.005,-50.84812 -0.0974,-76.27195 0,-53.03301 -75,-53.03301 -75,0 z"/>
<path d="m 215.73174,321.22546 c -8.88689,8.9352 -15.53677,19.73824 -22.86867,29.90668 -6.40562,8.8838 -11.5276,15.62765 -18.10973,24.40564 -31.80994,42.4338 28.20052,87.41985 60.01046,44.98605 v 0 c 7.56244,-10.0908 11.99105,-15.9038 19.38067,-26.15294 2.42177,-3.3589 4.77461,-6.76696 7.16191,-10.15045 1.24493,-1.80372 2.46194,-3.62705 3.7348,-5.41117 1.96035,-2.74776 1.76893,-2.43653 3.66396,-4.49126 37.5421,-37.45785 -15.4313,-90.5504 -52.9734,-53.09255 z"/>
<path d="m 325.18128,373.70192 c 0.80937,0.59529 1.31981,0.94282 2.10843,1.71257 2.13176,2.08076 4.06538,4.35604 6.04616,6.581 4.43625,4.98313 8.81285,10.01904 13.22256,15.02567 7.98564,8.85274 15.82087,17.83474 23.436,27.00756 33.90056,40.78298 91.57641,-7.15966 57.67584,-47.94265 v 0 c -8.08286,-9.7132 -16.35902,-19.25888 -24.83002,-28.63665 -12.88236,-14.62607 -25.2586,-30.50893 -42.62863,-40.06397 -46.89283,-24.7702 -81.92317,41.54628 -35.03034,66.31647 z"/>
<path d="m 532.17282,73.17937 c -6.60024,20.614237 -12.51291,41.43335 -18.48075,62.23664 -5.91098,20.52812 -12.76356,40.80393 -21.55263,60.29129 -3.9591,8.77821 -5.14323,10.79186 -9.36223,18.86865 -4.78192,8.57201 -2.15619,4.01272 -6.3977,11.14703 -0.75553,1.27081 -1.64116,2.47367 -2.25993,3.81641 -1.55326,3.37061 -5.83526,6.94177 -4.24248,10.29389 8.27142,17.40784 16.93845,36.13845 32.01175,48.14866 6.23417,4.96731 15.73595,-2.55652 23.60392,-3.83479 3.71156,-1.6844 7.42706,-3.36014 11.13467,-5.05321 4.17913,-1.90838 8.30815,-3.92872 12.52549,-5.7511 10.14167,-4.38237 22.98749,-9.33371 33.25026,-12.99318 18.97332,-6.76546 24.72142,-8.31496 44.40893,-14.42784 30.39404,-8.95194 61.19273,-16.90025 92.56147,-21.62111 16.97892,-2.55526 19.9709,-2.43854 36.49639,-3.55659 14.63964,-0.84077 29.25752,-0.13439 43.80756,1.46792 52.73554,5.60917 60.66811,-68.97014 7.93257,-74.57932 v 0 c -18.95495,-1.96507 -37.99133,-2.88825 -57.0468,-1.70063 -20.17988,1.48484 -23.69495,1.36001 -44.19122,4.50414 -34.50333,5.29282 -68.4035,13.98009 -101.84176,23.87189 -8.45966,2.63715 -16.95527,5.16165 -25.37899,7.91144 -27.30697,8.91391 -54.30951,19.02821 -80.09448,31.74111 4.61923,-0.0546 10.77219,-3.60187 13.8577,-0.16386 56.25508,62.68202 33.5485,29.32026 25.73917,53.95703 -0.44353,1.39923 1.49705,-2.5253 2.24371,-3.78905 5.33724,-9.03346 2.74262,-4.5261 8.45154,-14.84611 5.25293,-10.17616 6.88598,-13.0151 11.75402,-23.93212 9.97433,-22.36832 17.91621,-45.5647 24.68133,-69.0895 0.13578,-0.47331 8.72081,-30.41239 9.17308,-31.94345 3.35841,-11.36914 7.3304,-22.59908 10.22034,-34.103037 0.45122,-1.796156 0.74608,-3.628011 1.11912,-5.442017 8.08165,-52.413613 -66.04239,-63.842799 -74.12405,-11.429186 z"/>
<path d="m 673.73064,254.80945 c -0.0805,-0.15242 -0.11511,-0.57452 -0.24144,-0.45726 -0.23732,0.22028 -0.22475,0.61235 -0.27092,0.93283 -0.2351,1.63168 -0.29777,3.28679 -0.5713,4.91247 -0.42898,2.54959 -0.86724,5.10514 -1.53449,7.60298 -2.26583,8.48215 -5.42919,15.90431 -8.59519,24.16818 -15.28076,35.15966 -37.60358,66.70658 -63.20165,95.10017 -5.87657,6.51833 -12.15417,12.66359 -18.23125,18.99539 -17.44575,16.58476 -35.61372,32.70208 -56.01234,45.63114 -5.85552,3.71135 -12.0813,6.80344 -18.12196,10.20517 -45.99152,26.40606 -8.64771,91.44789 37.34381,65.04183 v 0 c 8.06378,-4.69635 16.35413,-9.02364 24.19134,-14.08905 24.29926,-15.7053 46.07491,-34.98506 66.85012,-55.00268 7.10784,-7.48062 14.44864,-14.74659 21.32354,-22.44185 31.16144,-34.87986 57.88463,-73.84995 76.06862,-117.06735 2.38596,-6.44608 5.0155,-12.80717 7.15789,-19.33825 5.54132,-16.89265 9.34566,-34.77737 8.17557,-52.65395 -0.1543,-2.35743 -0.63078,-4.68265 -0.94617,-7.02398 -10.94899,-51.89046 -84.33318,-36.40624 -73.38418,15.48421 z"/>
<path d="m 545.23746,349.90731 c 17.91537,18.94152 36.15452,37.57679 54.25327,56.34351 29.32828,30.44421 59.36376,60.19248 88.95585,90.37774 17.36608,17.80898 35.05792,35.334 54.38001,51.02613 18.87423,14.40225 40.79128,23.96782 62.20328,33.89268 16.08247,7.14158 32.47611,13.67151 49.40157,18.55797 6.8683,1.98292 13.84776,3.55832 20.77164,5.33748 51.4104,13.0181 69.82077,-59.68718 18.41037,-72.70528 v 0 c -5.40091,-1.34171 -10.84528,-2.51921 -16.20272,-4.02514 -14.01406,-3.93921 -27.55663,-9.34349 -40.85512,-15.21742 -9.20615,-4.26223 -13.49745,-6.18922 -22.42477,-10.54112 -6.65683,-3.24507 -13.43849,-6.51104 -19.68204,-10.52686 -1.54947,-0.99661 -3.02647,-2.10161 -4.5397,-3.15241 -17.17366,-13.70736 -32.4434,-29.59143 -47.90701,-45.15134 -29.44968,-30.03749 -59.33555,-59.64496 -88.5266,-89.9363 -16.94942,-17.57456 -33.91608,-35.13545 -50.92304,-52.65309 -34.2052,-40.52783 -91.52019,7.84563 -57.31499,48.37345 z"/>
<path d="m 248.50546,692.33686 c 3.49909,26.8836 9.84341,53.28418 16.15077,79.61426 9.31418,37.13736 18.60877,74.28027 28.48767,111.27219 13.68492,51.23693 86.14488,31.88353 72.45996,-19.3534 v 0 c -9.71658,-36.37437 -18.84878,-72.89968 -28.01704,-109.41533 -4.27477,-17.79011 -8.51907,-35.55541 -11.82342,-53.55747 -2.49077,-13.5697 -1.17412,-7.59671 -3.12073,-19.50062 -0.34302,-2.09764 -0.75965,-4.18259 -1.13947,-6.27388 -12.17231,-51.6172 -85.17005,-34.40295 -72.99774,17.21425 z"/>
<path d="m 340.23761,736.48821 c 18.36346,-3.91187 35.87057,-10.9233 53.6212,-16.88507 6.13585,-2.0608 12.30102,-4.03325 18.45152,-6.04987 36.76385,-11.53571 74.58537,-19.6494 112.82878,-24.34316 7.7658,-0.95313 15.56491,-1.61179 23.34737,-2.41768 25.94828,-1.88736 52.08355,-3.48493 78.07726,-1.37715 11.15964,0.90491 13.32919,1.54358 23.73802,3.44678 6.26047,1.44056 12.50296,3.15376 18.36185,5.83403 0.55173,0.2524 2.95242,1.34134 3.4676,2.17581 -6.30222,-3.929 -9.65854,-10.86032 -11.75557,-17.72352 -0.3916,-1.28162 0.1426,-2.91701 -0.70024,-3.95889 -0.58668,-0.72521 -0.16495,1.8583 -0.24742,2.78744 -2.0121,24.44502 -6.4803,48.54972 -11.53133,72.51886 -5.14403,23.29632 -11.26372,46.37382 -19.23634,68.86613 -1.55582,4.16243 -3.13293,8.324 -4.95327,12.3801 -0.24562,0.5473 -0.50617,1.08806 -0.77871,1.62245 -0.0899,0.17635 -0.39395,0.68612 -0.30778,0.5079 0.25973,-0.53716 0.55282,-1.05755 0.82922,-1.58633 2.88882,-4.61685 6.84507,-7.97651 11.65478,-10.56107 1.65651,-0.89015 3.49948,-1.37813 5.25261,-2.05848 0.63486,-0.24637 2.4207,-0.26973 1.91127,-0.72164 -0.94904,-0.84187 -2.47013,-0.57981 -3.70519,-0.86971 -11.97672,-2.89114 -23.71524,-6.67096 -34.85644,-11.98804 -5.21943,-2.49095 -10.22428,-5.40863 -15.33641,-8.11294 -47.09384,-24.38586 -81.58065,42.21489 -34.48681,66.60075 v 0 c 7.15774,3.6492 14.16735,7.60483 21.47322,10.94761 16.73279,7.65604 34.3506,13.10971 52.36123,16.76435 10.45321,1.27431 16.05956,2.71191 26.54973,1.0783 13.55428,-2.11078 24.24331,-9.16296 32.05364,-20.18709 0.92433,-1.52497 1.89635,-3.02202 2.77299,-4.57489 4.32801,-7.66668 7.04506,-16.15535 10.29448,-24.29191 9.00601,-25.63066 16.12587,-51.85809 21.90698,-78.40259 5.77312,-27.58012 10.84171,-55.33386 12.99913,-83.46725 0.30431,-6.19651 0.88542,-11.67345 -0.35998,-17.9225 -2.51264,-12.60765 -9.18288,-22.15521 -19.44938,-29.54295 -4.58073,-3.01477 -5.80679,-3.99049 -10.89431,-6.57739 -12.69367,-6.45446 -26.44122,-10.47405 -40.3303,-13.40844 -14.68235,-2.50065 -17.54667,-3.31983 -32.93585,-4.4805 -29.85598,-2.25176 -59.85447,-0.60985 -89.64764,1.69041 -8.71313,0.92101 -17.44518,1.6778 -26.13938,2.76302 -42.58117,5.31501 -84.68119,14.43462 -125.61028,27.32827 -6.50604,2.13624 -13.02671,4.22842 -19.51811,6.40873 -14.34153,4.81698 -28.47562,10.44307 -43.17554,14.10702 -52.10041,9.90189 -38.09701,83.583 14.0034,73.6811 z"/>
<path d="m 458.91034,587.98667 c -2.21794,27.33211 -3.09891,54.75241 -4.2563,82.14382 -2.82759,58.18079 -7.47017,116.25128 -11.13693,174.38147 -2.34367,35.54371 -3.57511,71.14265 -4.59822,106.74387 -1.52106,53.01117 73.44808,55.16227 74.96914,2.1511 v 0 c 0.99533,-34.74448 2.19072,-69.48694 4.48042,-104.17513 3.69678,-58.64788 8.39152,-117.23484 11.21873,-175.93513 1.1102,-26.27485 1.94354,-52.5783 4.03995,-78.79837 4.60442,-52.83275 -70.11237,-59.34438 -74.71679,-6.51163 z"/>
</svg>
