<?xml version="1.0" ?>
<svg xmlns="http://www.w3.org/2000/svg" viewBox="0 0 1000 1000">
<path d="m 337.98919,239.3155 c 13.29398,-3.14979 26.37409,-7.12371 39.71972,-10.09123 5.2753,-1.17301 10.58312,-2.19464 15.87468,-3.29197 39.84023,-7.63054 80.21825,-12.15027 120.69188,-14.60964 8.98179,-0.54577 17.97466,-0.89087 26.96199,-1.3363 30.94741,-1.13015 61.96422,-1.26779 92.88867,0.57357 13.27716,0.79057 16.66763,1.27232 29.23022,2.58602 3.34143,0.44418 6.68286,0.88837 10.02428,1.33255 52.58045,6.91349 62.3576,-67.4465 9.77715,-74.35999 v 0 c -4.0295,-0.52497 -8.05901,-1.04994 -12.08851,-1.57492 -14.51074,-1.48544 -18.27761,-2.01705 -33.51993,-2.9055 -33.31073,-1.94163 -66.71749,-1.80458 -100.05052,-0.55849 -9.54521,0.47953 -19.09648,0.85085 -28.63565,1.4386 -43.7995,2.69869 -87.4901,7.6642 -130.59216,15.99391 -18.15993,3.80631 -36.26258,7.84493 -54.07372,13.08241 -52.12861,9.75234 -38.33671,83.47333 13.7919,73.72098 z"/>
<path d="m 302.43499,346.15073 c 5.40278,11.7946 9.15469,24.23297 13.83111,36.31017 1.85175,4.78228 3.85822,9.5032 5.78733,14.25479 11.10313,24.42726 23.4527,48.26646 35.46205,72.25637 23.73985,47.42277 90.80578,13.84955 67.06593,-33.57322 v 0 c -11.15181,-22.27688 -22.56119,-44.4373 -33.08661,-67.01858 -1.58661,-3.86434 -3.2497,-7.69816 -4.75982,-11.59303 -5.13276,-13.23824 -9.29352,-26.85922 -15.20076,-39.79634 -20.61912,-48.86054 -89.71835,-19.7007 -69.09923,29.15984 z"/>
<path d="m 607.33821,307.98864 c -0.0846,-0.26745 -0.11649,-1.04698 -0.25371,-0.80234 -0.36316,0.64749 -0.32011,1.45034 -0.51198,2.1675 -0.44902,1.6783 -0.89256,3.35916 -1.41033,5.01755 -0.90922,2.91213 -1.83727,5.82 -2.86963,8.69079 -4.68505,13.02813 -4.74269,12.3387 -10.91429,25.76485 -22.6996,45.1946 -55.60959,84.07801 -86.79047,123.53096 -32.88311,41.60771 25.95908,88.11144 58.84218,46.50373 v 0 c 34.95015,-44.22419 71.48029,-88.03803 96.25664,-139.06747 2.75973,-6.15223 5.69924,-12.22694 8.27917,-18.45671 2.11242,-5.10085 3.99543,-10.29671 5.79065,-15.51765 4.08111,-11.86888 7.55621,-24.09852 8.30296,-36.69315 0.16306,-2.75021 -0.0404,-5.50993 -0.0606,-8.26489 -5.03943,-52.79303 -79.70005,-45.6662 -74.66062,7.12683 z"/>
<path d="m 165.55276,587.84841 c 15.84615,-3.99147 31.96361,-6.79122 48.01645,-9.79991 38.34922,-7.58939 76.92679,-13.92052 115.5783,-19.74429 51.54548,-7.64529 103.42622,-12.67824 155.31245,-17.32497 45.11977,-3.50207 90.25508,-7.35247 135.49138,-9.04106 8.67531,-0.32384 17.3566,-0.46034 26.03491,-0.69051 38.82572,-0.42251 77.72784,0.77201 116.39643,4.42808 6.34096,0.59953 12.66464,1.36941 18.99696,2.05411 21.41688,2.46902 42.60517,6.4577 63.43469,11.98103 51.29124,13.47995 70.35477,-59.05681 19.06353,-72.53676 v 0 c -24.4775,-6.38787 -49.32658,-11.18936 -74.48348,-14.0148 -6.96891,-0.7449 -13.92863,-1.58146 -20.90673,-2.23469 -41.36839,-3.87261 -82.98061,-5.14712 -124.51405,-4.64996 -9.20707,0.24997 -18.41727,0.40334 -27.62122,0.7499 -46.26896,1.74214 -92.43606,5.65769 -138.58562,9.25391 -53.38672,4.78576 -106.7658,9.98357 -159.80028,17.86384 -39.53187,5.96352 -78.99045,12.4317 -118.21505,20.19003 -17.23095,3.23023 -34.52238,6.27072 -51.53332,10.54681 -51.597041,12.25745 -34.2624,85.22669 17.33465,72.96924 z"/>
<path d="m 458.49702,297.30318 c 2.61427,10.45843 3.34101,21.27184 4.21419,31.97888 2.13299,34.3372 2.38558,68.75476 2.69005,103.14563 0.47372,52.01697 0.0286,104.03473 -0.49134,156.04927 -0.14735,9.68979 -0.25349,19.38029 -0.44205,29.06937 -0.39053,20.06732 -0.89739,39.22809 -1.74837,59.28383 -1.26686,29.85665 -3.2969,59.66729 -5.26801,89.48309 -2.48389,35.28198 -4.70802,70.57973 -6.56778,105.89978 -2.78534,52.95981 72.11114,56.89889 74.89649,3.93907 v 0 c 1.83776,-34.98445 4.05085,-69.94597 6.50801,-104.89265 2.02093,-30.58443 4.09101,-61.16324 5.38482,-91.78976 0.86862,-20.56144 1.3868,-40.21346 1.78619,-60.78429 0.19064,-9.81897 0.29797,-19.63938 0.44696,-29.45907 0.52424,-52.48624 0.97082,-104.97572 0.49213,-157.4644 -0.32263,-36.2487 -0.60034,-72.52767 -2.9467,-108.71467 -1.36505,-16.07178 -2.72941,-32.29522 -7.28503,-47.84554 -15.62809,-50.67803 -87.29765,-28.57657 -71.66956,22.10146 z"/>
</svg>
