<?xml version="1.0" ?>
<svg xmlns="http://www.w3.org/2000/svg" width="1000" height="1000">
<path d="m 438.5499,125.38284 c 10.74487,6.62161 21.49892,13.28926 31.69164,20.74832 2.84044,2.07865 5.58306,4.28775 8.37459,6.43163 8.67188,7.69606 4.69392,3.84886 12.01818,11.45377 37.30116,37.6978 90.61389,-15.054 53.31274,-52.7518 v 0 c -12.55625,-12.493478 -5.95569,-6.36499 -19.84731,-18.336199 -3.6666,-2.781802 -7.27686,-5.639466 -10.99979,-8.345405 -12.03682,-8.748711 -24.6904,-16.637574 -37.40251,-24.354443 -46.07092,-26.267281 -83.21847,38.886843 -37.14754,65.154127 z"/>
<path d="m 228.9038,292.79236 c 20.22768,-5.48395 40.12829,-12.11265 60.31661,-17.74018 8.69192,-2.42289 17.43815,-4.64653 26.15723,-6.9698 61.47806,-14.95901 124.47343,-22.57811 187.56802,-26.22485 14.34412,-0.82906 28.70847,-1.26046 43.0627,-1.89069 70.98982,-2.33601 142.06145,-1.93321 213.0222,1.05322 23.73737,1.54287 12.72813,0.67194 33.03729,2.48916 52.82562,4.68552 59.45194,-70.02119 6.62632,-74.7067 v 0 c -22.66959,-1.99508 -10.49847,-1.05009 -36.52235,-2.71664 -73.1126,-3.05332 -146.33753,-3.49555 -219.47887,-1.04573 -15.05447,0.67107 -30.1199,1.12978 -45.16339,2.0132 -67.79721,3.98135 -135.46722,12.34721 -201.49365,28.56596 -9.319,2.49143 -18.6655,4.88215 -27.95699,7.47429 -19.19263,5.35435 -38.13128,11.59017 -57.3268,16.92846 -51.45637,12.83518 -33.30469,85.60548 18.15168,72.7703 z"/>
<path d="m 228.29957,287.49652 c -0.84345,27.5984 -4.64777,55.04906 -8.05497,82.42142 -8.20273,56.37933 -23.55643,111.39585 -41.18663,165.47451 -4.23914,13.00308 -8.75034,25.91589 -13.1255,38.87384 -14.04214,38.62881 -28.24863,77.21822 -43.54625,115.37239 -12.9993,32.42185 -26.973369,64.4604 -40.436575,96.691 -3.706731,8.88821 -7.413461,17.77643 -11.120192,26.66464 -20.412822,48.94708 48.808807,77.81517 69.221627,28.86809 v 0 c 3.70134,-8.8753 7.40268,-17.75061 11.10402,-26.62591 13.69616,-32.79132 27.89664,-65.39065 41.11736,-98.3781 15.71999,-39.22347 30.32235,-78.89313 44.72387,-118.61446 4.5409,-13.46708 9.22656,-26.88622 13.62271,-40.40126 18.98887,-58.3773 35.35797,-117.80388 44.05264,-178.6722 3.77942,-30.43881 7.97081,-60.97053 8.62789,-91.67396 0,-53.03301 -75,-53.03301 -75,0 z"/>
<path d="m 420.4922,300.02782 c 0.13604,-0.52094 0.78884,-1.9435 0.40812,-1.5628 -1.4777,1.4776 -2.50899,3.34351 -3.81799,4.97244 -5.86725,7.30126 -12.4321,14.99584 -18.57741,21.93526 -2.3152,2.61437 -30.28229,33.45512 -30.93645,34.17689 -26.23667,29.22671 -52.61292,58.33561 -78.48009,87.89169 -75.61816,86.40201 33.9789,-38.26987 -35.47437,40.66996 -20.80849,23.26899 -10.49081,11.59042 -30.95436,35.03455 -34.86944,39.95775 21.63936,89.27059 56.5088,49.31284 v 0 c 19.99504,-22.91847 9.74795,-11.31116 30.75637,-34.8086 23.36395,-26.56039 11.58057,-13.05651 35.34143,-40.51925 25.66687,-29.32925 51.84087,-58.21304 77.87453,-87.21534 14.96875,-16.51619 30.17815,-32.84434 44.52122,-49.91436 4.09211,-4.87011 12.16681,-14.67754 16.01832,-20.50352 1.99423,-3.01658 3.66589,-6.23442 5.49884,-9.35163 21.29673,-48.56902 -47.39022,-78.68715 -68.68696,-30.11813 z"/>
<path d="m 335.14282,450.83668 c 0.56736,25.1207 1.99149,50.20901 2.80274,75.3233 0.83498,46.09663 -0.0949,92.26438 -3.5505,138.24876 -0.73921,9.83678 -1.72169,19.65378 -2.58254,29.48066 -3.36759,34.39726 -8.44729,68.62033 -15.71092,102.41426 -3.1796,14.79306 -4.98017,21.46299 -8.57086,35.72089 -2.78283,10.70288 -5.94078,21.29887 -9.21025,31.8606 -15.65219,50.67059 56.00685,72.80613 71.65904,22.13554 v 0 c 3.65078,-11.8406 7.19108,-23.71536 10.28925,-35.71562 3.94607,-15.7311 5.86619,-22.8504 9.35936,-39.20787 7.80117,-36.53057 13.28529,-73.51625 16.90075,-110.69132 0.90666,-10.43897 1.94127,-20.86762 2.71999,-31.31691 3.60336,-48.3516 4.5727,-96.89367 3.65724,-145.36089 -0.79174,-24.30421 -2.10319,-48.58426 -2.7633,-72.8914 0,-53.033 -75,-53.033 -75,0 z"/>
<path d="m 474.35962,512.68917 c 20.73926,-10.94783 43.37076,-17.47923 65.77506,-24.01201 44.0885,-12.13526 89.39346,-19.25872 134.85606,-23.74139 9.28744,-0.91576 18.60138,-1.53931 27.90207,-2.30897 37.77426,-2.56292 75.73755,-2.92621 113.4583,0.5286 8.03522,1.28559 4.73766,0.43366 10.01289,2.03452 51.47896,12.74425 69.50207,-60.058 18.0231,-72.80226 v 0 c -13.64004,-3.14423 -6.53901,-1.79534 -21.32468,-3.93138 -4.478,-0.3959 -8.94983,-0.86913 -13.43399,-1.18771 -37.59827,-2.6712 -75.3851,-1.81435 -112.96779,0.61762 -10.06211,0.84489 -20.13844,1.53468 -30.18632,2.53467 -49.72505,4.9488 -99.24764,12.92509 -147.44601,26.28741 -7.73066,2.27853 -15.50736,4.40629 -23.19198,6.83558 -18.8238,5.95068 -37.38432,12.99605 -54.95737,22.03314 -47.45548,23.6744 -13.97482,90.78658 33.48066,67.11218 z"/>
<path d="m 689.34267,336.64603 c 5.04502,16.54431 7.4488,33.7002 9.80567,50.78636 5.58275,47.63117 6.28256,95.64971 6.38245,143.55003 -0.35911,47.5254 -1.09047,95.09756 -4.44717,142.52265 -0.64674,9.13742 -1.49764,18.25925 -2.24645,27.38887 -3.99954,39.39937 -8.76907,78.8551 -17.47971,117.53492 -1.33728,5.93825 -2.91311,11.82026 -4.36967,17.73039 -3.46731,12.88111 -7.46149,25.67381 -13.02275,37.82464 -1.27856,2.79354 -4.2326,8.91492 -6.6764,11.65207 -0.16813,0.18831 -0.49348,-0.1068 -0.74021,-0.1602 8.02108,-8.59989 0.8435,-2.07427 11.43389,-8.39418 0.53044,-0.31653 1.70018,-0.98707 1.2292,-1.38674 -1.88144,-1.59662 -4.45872,-2.11659 -6.66344,-3.22483 -13.94794,-7.01114 -11.93748,-6.1259 -26.86815,-14.49885 -5.41797,-3.3571 -10.83595,-6.7142 -16.25393,-10.0713 -45.13296,-27.84809 -84.5161,35.97955 -39.38314,63.82764 v 0 c 6.36197,3.9114 12.72394,7.82281 19.08591,11.73421 11.30354,6.28328 23.06285,13.18615 34.94753,18.39388 11.80327,5.17205 25.39017,10.40438 38.59804,10.07908 20.77306,-0.51162 22.74255,-4.83881 38.81129,-15.40106 3.08678,-3.6402 6.44962,-7.06326 9.26035,-10.9206 4.54484,-6.23716 9.46453,-16.08553 12.55638,-23.04002 6.96062,-15.65649 12.14374,-32.0324 16.53241,-48.57225 1.6626,-6.82543 3.45636,-13.62024 4.98781,-20.4763 9.30357,-41.65068 14.52132,-84.10479 18.7656,-126.52425 0.78757,-9.67837 1.68172,-19.34865 2.36271,-29.03511 3.44254,-48.96707 4.22598,-98.08284 4.57971,-147.15267 -0.12523,-51.31359 -0.95215,-102.754 -7.10425,-153.7616 -3.36313,-23.79923 -6.74054,-47.95307 -15.39655,-70.52251 -21.29645,-48.56914 -89.98358,-18.45141 -68.68713,30.11773 z"/>
<path d="m 491.3199,638.90384 c 13.44954,9.32825 25.958,19.88915 38.16579,30.76494 14.48173,13.3594 6.88141,6.42907 22.82313,20.76661 39.4375,35.45678 89.58097,-20.31626 50.14347,-55.77305 v 0 c -15.60499,-14.02476 -7.88029,-6.99652 -23.17641,-21.0822 -16.1075,-14.25629 -32.60058,-28.29395 -50.80823,-39.83031 -46.07085,-26.26742 -83.21859,38.88659 -37.14775,65.15401 z"/>
</svg>
