<?xml version="1.0" ?>
<svg xmlns="http://www.w3.org/2000/svg" width="1000" height="1000">
<path d="m 444.52155,104.28749 c 11.7598,4.43046 23.5624,8.88801 34.93139,14.2648 2.95573,1.39786 5.84647,2.9292 8.76971,4.39379 11.30415,6.09218 5.80801,3.05509 16.49666,9.09638 46.19298,26.05202 83.03611,-39.274722 36.84313,-65.326749 v 0 c -12.76426,-7.185548 -6.10897,-3.527357 -19.98297,-10.943448 -3.89958,-1.923441 -7.76073,-3.926841 -11.69875,-5.770324 -12.4683,-5.836727 -25.35876,-10.774363 -38.22855,-15.635323 -49.44152,-19.184251 -76.57215,50.736625 -27.13062,69.920874 z"/>
<path d="m 213.36496,246.42305 c 28.67732,-2.77882 57.28542,-6.18911 85.86708,-9.80956 54.18397,-7.3011 108.5086,-13.61366 162.9582,-18.58377 12.11136,-1.10552 24.23654,-2.05397 36.35481,-3.08096 11.96509,-0.85469 23.92426,-1.79682 35.89529,-2.56406 34.45827,-2.20849 68.91661,-3.50462 103.44616,-3.70835 25.58319,-0.15094 34.3634,0.16196 59.42075,0.63431 22.99797,0.61893 45.98903,1.45514 68.98307,2.19966 53.00524,1.71612 55.43219,-73.24461 2.42695,-74.96072 v 0 c -23.33581,-0.75547 -46.66855,-1.60624 -70.00861,-2.22585 -26.06296,-0.48303 -35.30668,-0.80834 -61.91943,-0.63937 -48.26212,0.30642 -96.48227,2.60367 -144.58391,6.53281 -12.43998,1.05637 -24.88698,2.03315 -37.31995,3.16912 -55.15931,5.03974 -110.19294,11.43126 -165.08431,18.8225 -27.35459,3.46957 -54.73428,6.72113 -82.17551,9.43416 -52.8775,4.05838 -47.13809,78.83845 5.73941,74.78008 z"/>
<path d="m 230.42678,247.78425 c 1.93292,18.0304 2.49324,36.27468 2.14923,54.40253 -0.14009,7.38217 -0.55691,14.75649 -0.83537,22.13473 -2.6055,40.59361 -7.56755,81.02315 -15.46829,120.93403 -4.98123,25.16282 -10.31179,46.73671 -16.20526,71.7322 -3.13077,12.02524 -6.06673,24.10289 -9.39232,36.07572 -5.91118,21.28158 -14.75506,49.64941 -21.7682,70.57145 -6.9836,20.83391 -17.38984,49.89141 -25.4687,70.35019 -4.37274,11.07346 -9.13925,21.98735 -13.70887,32.98103 -14.30192,32.37871 -30.575616,63.84451 -47.972216,94.65818 -8.903433,15.77017 -23.668553,40.97406 -34.012442,56.18897 -5.190124,7.6342 -10.974759,14.84683 -16.462138,22.27024 -31.37725372,42.75474 29.087082,87.12888 60.464336,44.37414 v 0 c 6.490154,-8.89721 13.29707,-17.57179 19.47046,-26.69164 11.00225,-16.25343 26.81252,-43.23925 36.33812,-60.14756 18.6844,-33.16553 36.13574,-67.04431 51.44744,-101.90911 4.88708,-11.79777 9.97883,-23.51282 14.66124,-35.39331 8.49339,-21.54991 19.31385,-51.81941 26.65314,-73.75606 7.55444,-22.57973 16.59071,-51.69265 22.94339,-74.61962 3.47201,-12.53059 6.53892,-25.16992 9.80838,-37.75488 6.309,-26.80275 11.73608,-48.73292 17.03849,-75.76123 8.50662,-43.36139 13.87419,-87.28079 16.58394,-131.37837 0.29474,-8.39101 0.74193,-16.77804 0.88422,-25.17302 0.37543,-22.1503 -0.36712,-44.46158 -3.17351,-66.44533 -8.73752,-52.30828 -82.71259,-39.95155 -73.97507,12.35672 z"/>
<path d="m 384.14748,353.96787 c 20.7728,-8.67599 42.84927,-13.48087 64.78568,-18.13927 39.34165,-7.85308 79.34434,-11.25635 119.34654,-13.36212 23.99486,-1.19644 48.00044,-0.14472 71.94336,1.47247 4.80506,0.40399 9.62574,0.64553 14.42832,1.08178 0.0679,0.006 -0.13649,0.0239 -0.20406,0.0146 -0.90086,-0.12305 -1.79771,-0.2739 -2.69657,-0.41085 -13.53209,-5.59113 -12.42534,-3.33762 -22.6394,-16.06693 -1.40156,-1.7467 -1.65466,-4.20055 -2.90779,-6.05662 -0.29067,-0.43052 -0.14286,1.03332 -0.13306,1.55269 0.0477,2.52688 0.2406,5.04934 0.30527,7.57585 0.10806,4.22176 0.14193,8.4451 0.21289,12.66764 -0.0726,32.43119 -0.56065,65.03325 -5.35421,97.17634 -0.94516,6.33773 -2.26038,12.61472 -3.39057,18.92207 -5.24194,21.9574 -2.45921,11.44647 -8.23963,31.56133 -14.51173,51.00892 57.62578,71.5316 72.13751,20.52268 v 0 c 7.00932,-24.84185 3.63823,-11.82812 9.96599,-39.07905 1.33329,-7.68438 2.87834,-15.335 3.99987,-23.05313 5.16547,-35.54756 5.86879,-71.56828 5.86845,-107.42414 -0.15866,-8.0965 -0.1899,-19.14737 -0.99311,-27.40733 -0.70745,-7.27517 -2.15794,-17.55149 -6.14375,-23.79947 -9.64389,-15.11734 -11.6749,-13.82172 -26.03676,-20.22004 -1.63278,-0.30407 -3.2573,-0.65652 -4.89836,-0.9122 -6.02346,-0.93847 -12.19818,-0.74456 -18.24094,-1.47573 -26.94443,-1.81009 -53.96121,-2.90079 -80.96047,-1.53649 -43.93245,2.3515 -87.85827,6.17951 -131.04629,14.91331 -6.72068,1.44462 -13.46721,2.77384 -20.16205,4.33387 -20.00063,4.66056 -39.82605,10.42306 -58.79514,18.34404 -48.65224,21.10593 -18.80395,89.91058 29.84828,68.80465 z"/>
<path d="m 308.05055,465.03591 c 3.24351,-1.20204 5.37942,-2.04049 9.06392,-3.03735 8.55978,-2.31586 18.96953,-4.35341 27.42533,-5.89882 15.23991,-2.7853 31.04881,-5.17366 46.32178,-7.58456 42.73695,-6.46315 85.53221,-12.6568 128.52553,-17.18056 31.28673,-3.29199 39.66285,-3.70848 70.93692,-6.09781 45.91104,-2.96971 92.01411,-4.61961 138.00945,-2.64614 5.76739,0.24746 11.52586,0.6713 17.28878,1.00694 12.09292,0.96155 24.22882,1.98987 35.99061,5.07611 51.51512,12.59735 69.33046,-60.25603 17.81534,-72.85337 v 0 c -2.91592,-0.68815 -5.81088,-1.47208 -8.74775,-2.06445 -13.43898,-2.71062 -27.11056,-3.96265 -40.75938,-5.03499 -6.45346,-0.36572 -12.90223,-0.82675 -19.36039,-1.09716 -48.64868,-2.03692 -97.40625,-0.34085 -145.96413,2.83208 -32.65967,2.50738 -41.12486,2.92462 -73.8053,6.37301 -44.03177,4.64616 -87.86352,10.97874 -131.63326,17.60513 -15.77833,2.49467 -33.60283,5.19187 -49.38141,8.13314 -18.38058,3.4263 -36.94706,7.19349 -54.1218,14.82624 -47.83051,22.90726 -15.43475,90.54981 32.39576,67.64256 z"/>
<path d="m 379.18217,538.1067 c 15.22155,-2.09171 30.46953,-3.91523 45.75195,-5.50132 37.02883,-3.64265 74.17737,-5.75468 111.34655,-7.26136 35.1017,-1.14002 70.22413,-0.63332 105.32191,0.31727 53.01364,1.4332 55.04048,-73.53941 2.02684,-74.9726 v 0 c -36.78864,-0.99278 -73.60351,-1.50354 -110.39536,-0.28277 -38.74341,1.57956 -77.46577,3.78674 -116.06155,7.60216 -15.78879,1.6466 -31.54619,3.50936 -47.27237,5.67521 -52.6253,6.56339 -43.34326,80.9868 9.28203,74.42341 z"/>
<path d="m 252.93891,603.0082 c 3.34265,24.29211 9.09443,48.18726 14.40567,72.1035 1.58487,7.33819 3.2095,14.66789 4.75459,22.01455 3.52573,16.76433 6.10315,29.43653 9.00917,46.31916 3.65567,21.23773 6.44578,42.57349 9.0787,63.95574 2.60528,22.76066 5.0337,45.542 7.18375,68.35025 4.98041,52.79863 79.64895,45.75527 74.66854,-7.04336 v 0 c -2.22031,-23.52341 -4.72005,-47.01988 -7.41703,-70.49338 -2.82742,-22.86086 -5.83412,-45.66677 -9.75785,-68.37204 -3.04992,-17.64883 -5.77661,-31.06345 -9.45601,-48.55147 -1.57562,-7.48887 -3.23197,-14.96054 -4.84795,-22.44081 -4.89831,-22.05184 -10.26938,-44.07822 -13.37877,-66.47256 -7.51685,-52.49759 -81.75965,-41.86717 -74.24281,10.63042 z"/>
<path d="m 315.00435,647.95395 c 18.76675,-4.89839 37.77079,-8.83544 56.78406,-12.64133 33.60704,-6.36908 67.42604,-11.66823 101.40959,-15.58173 7.77237,-0.89505 15.55955,-1.65638 23.33933,-2.48458 29.94217,-3.03248 59.96301,-5.29934 90.04471,-6.3051 16.58451,-0.5545 21.72431,-0.48927 38.04615,-0.60825 23.11222,0.15863 46.2417,0.59735 69.25105,2.90477 4.02272,0.39743 8.00794,1.04294 11.92746,2.02385 1.58563,0.39682 1.80107,0.42015 1.01672,0.29498 -9.79568,-2.94535 -16.34501,-10.61385 -20.4377,-19.77576 1.6525,22.0331 0.0109,44.10159 -1.47061,66.09308 -2.63461,34.86765 -7.04278,69.59705 -13.35906,103.99035 -1.14372,6.22777 -2.42839,12.42884 -3.64258,18.64326 -4.92613,25.13119 -11.97935,49.72849 -20.35622,73.90294 -3.16011,8.78651 -6.35571,17.56467 -9.92026,26.1968 1.25428,-1.69729 -2.83302,5.56241 -1.67898,3.67025 6.321,-10.36389 3.26215,-9.27881 20.51469,-18.33208 3.06322,-1.60743 6.81689,-1.18255 10.22534,-1.77382 -0.67987,-0.29411 -1.3424,-0.6321 -2.03961,-0.88234 -2.86219,-1.02723 -5.80268,-1.83694 -8.63332,-2.94816 -12.36021,-4.85226 -16.47716,-7.31708 -29.09531,-13.62311 -47.53794,-23.50838 -80.78381,43.72043 -33.24586,67.22881 v 0 c 6.93306,3.39984 13.76458,7.0151 20.7992,10.19952 14.63397,6.62449 29.78411,12.26191 45.71538,14.74313 5.94663,-0.37049 12.27639,1.02097 17.83988,-1.11145 17.37386,-6.6592 22.97812,-14.23419 28.95324,-28.62373 4.09333,-9.96813 7.83039,-20.07705 11.44542,-30.22743 9.49798,-27.50381 17.49503,-55.49097 23.09135,-84.07215 1.31271,-6.75106 2.70137,-13.4878 3.93814,-20.25318 6.75528,-36.9528 11.4702,-74.26425 14.28138,-111.72258 1.21712,-18.31933 2.48033,-36.60105 2.30533,-54.97434 -0.0668,-7.01097 -0.45485,-16.8507 -1.26741,-24.01549 -0.36214,-3.19328 -0.96795,-6.35419 -1.45193,-9.53128 -2.3894,-8.1607 -2.87469,-12.28626 -8.50897,-19.5122 -5.79845,-7.43649 -13.24164,-12.03539 -21.94022,-14.97097 -9.01874,-2.63713 -18.27051,-4.35365 -27.62554,-5.27292 -25.65602,-2.50807 -51.42899,-3.1787 -77.19937,-3.2666 -17.4486,0.13696 -22.93031,0.07 -40.65951,0.67362 -31.67663,1.07854 -63.29056,3.46076 -94.82044,6.66092 -8.21414,0.87838 -16.43616,1.68592 -24.64242,2.63515 -35.82036,4.14343 -71.4686,9.73501 -106.89023,16.47078 -20.78877,4.17291 -41.56791,8.48775 -62.07484,13.90307 -51.10636,14.16475 -31.07438,86.44005 20.03197,72.2753 z"/>
<path d="m 350.36056,740.24888 c -0.18105,0.13888 -0.77007,0.39257 -0.54316,0.41664 0.56713,0.0602 1.12809,-0.17361 1.68523,-0.2955 2.15898,-0.47235 4.30136,-1.01878 6.46127,-1.48682 3.58841,-0.77757 7.18099,-1.53721 10.78286,-2.24983 13.18811,-2.60923 17.30921,-3.22465 31.19577,-5.62272 49.21409,-8.22128 98.69802,-14.63151 148.28739,-20.08382 31.5623,-2.94464 63.29255,-5.92362 95.03622,-4.80629 15.38015,0.54135 18.94986,1.31139 33.76326,3.17817 4.45897,0.7904 8.91794,1.5808 13.37692,2.3712 52.25134,9.07177 65.08077,-64.82278 12.82942,-73.89456 v 0 c -5.71036,-0.97518 -11.42072,-1.95036 -17.13108,-2.92554 -18.95181,-2.24905 -22.85417,-3.11161 -42.36989,-3.72781 -34.64318,-1.09384 -69.26776,1.97601 -103.71176,5.2552 -51.11978,5.63436 -102.13349,12.236 -152.86491,20.73109 -14.47958,2.50891 -19.929,3.34774 -33.83027,6.12715 -10.90528,2.1804 -22.02234,4.33244 -32.47387,8.2483 -2.05038,0.76821 -3.99305,1.79788 -5.98957,2.69682 -46.71735,25.09959 -11.22118,91.1679 35.49617,66.06832 z"/>
<path d="m 351.95091,830.74207 c 14.6085,-6.92552 31.07216,-8.96804 46.84392,-11.67737 43.9179,-6.65705 88.24082,-9.90889 132.56232,-12.3319 46.21511,-2.38397 92.51112,-2.37102 138.74449,-0.67451 21.15738,1.15643 11.11976,0.50988 30.11644,1.88332 52.89657,3.80171 58.273,-71.00533 5.37644,-74.80705 v 0 c -20.7515,-1.48333 -9.83194,-0.78902 -32.76222,-2.02654 -48.51365,-1.75557 -97.09145,-1.78548 -145.58478,0.73746 -47.23847,2.60173 -94.48096,6.10289 -141.2728,13.32304 -23.76763,4.15768 -48.12293,8.13667 -69.68328,19.59323 -46.65513,25.21505 -10.99566,91.19537 35.65947,65.98032 z"/>
<path d="m 475.47944,211.77178 c 4.23271,24.26492 5.55105,48.92176 7.00766,73.47048 3.80657,75.67092 -0.99362,151.42162 -5.01546,226.97857 -6.17745,100.22313 -11.92639,200.47184 -17.94392,300.70458 -3.87773,58.87866 -1.86983,29.93843 -6.00367,86.82208 -3.84279,52.8936 70.96006,58.32812 74.80284,5.43452 v 0 c 4.17881,-57.53481 2.15031,-28.2812 6.06604,-87.76217 6.02733,-100.40252 11.78831,-200.82087 17.97277,-301.21394 4.16874,-78.37474 9.05083,-156.94995 4.98776,-235.43893 -1.65852,-27.55577 -3.23814,-55.21911 -8.08912,-82.44096 -9.5076,-52.17381 -83.2925,-38.72803 -73.7849,13.44577 z"/>
</svg>
