<?xml version="1.0" ?>
<svg xmlns="http://www.w3.org/2000/svg" width="1000" height="1000">
<path d="m 443.6293,131.43331 c 20.77436,10.22585 39.83397,23.56109 58.80213,36.74032 43.57405,30.22916 86.32453,-31.39385 42.75048,-61.62301 v 0 c -22.30072,-15.449551 -44.76736,-30.958775 -69.2523,-42.805489 -47.86277,-22.839768 -80.16308,44.848409 -32.30031,67.688179 z"/>
<path d="m 253.9771,283.84851 c 28.27453,-5.12746 56.56988,-10.25384 85.03164,-14.25302 11.38854,-1.60022 22.80969,-2.95909 34.21453,-4.43863 68.85675,-7.75676 138.09865,-12.8896 207.4044,-13.87065 13.52263,-0.19142 27.04796,-0.0233 40.57193,-0.0349 31.41331,0.76074 38.62918,0.54574 68.79683,2.67099 8.62719,0.60777 17.22993,1.52325 25.84489,2.28487 52.83046,4.63066 59.37919,-70.08289 6.54873,-74.71354 v 0 c -9.41843,-0.81903 -18.82395,-1.80325 -28.25529,-2.45707 -32.04252,-2.22134 -39.8501,-2.00245 -73.02312,-2.7852 -14.17316,0.0208 -28.34783,-0.14506 -42.51949,0.0625 -71.85864,1.05251 -143.65044,6.37699 -215.03932,14.46908 -11.97694,1.56066 -23.97078,2.99667 -35.93082,4.68199 -29.56272,4.16577 -58.95668,9.4817 -88.32203,14.83374 -52.00761,10.3783 -37.33048,83.92816 14.67712,73.54986 z"/>
<path d="m 249.09696,323.52036 c -0.8441,19.17119 -2.69695,38.32523 -5.53554,57.30531 -1.23659,8.26843 -2.73313,16.49589 -4.09969,24.74383 -11.13165,66.58661 -29.82874,131.62958 -50.93844,195.66603 -5.25931,15.95413 -10.86331,31.79256 -16.29497,47.68884 -5.796,15.99791 -11.49969,32.02955 -17.38801,47.99371 -5.8015,15.72877 -11.64842,31.44181 -17.68084,47.08347 -14.55082,37.72926 -19.44956,48.60023 -34.33705,85.33537 -5.062265,12.49124 -10.038752,25.01707 -15.058129,37.52561 -19.749119,49.21862 49.856519,77.14809 69.605639,27.92947 v 0 c 4.95789,-12.35674 9.87318,-24.73066 14.87367,-37.07022 15.36149,-37.90711 20.0762,-48.30955 35.12987,-87.35748 6.13576,-15.91564 12.08518,-31.90296 17.98479,-47.90764 6.04412,-16.39673 11.89717,-32.86326 17.84575,-49.29489 5.60513,-16.42333 11.38964,-32.78653 16.81539,-49.26999 22.20455,-67.45753 41.74068,-135.99935 53.44508,-206.13244 1.49503,-9.12436 3.13262,-18.22651 4.48508,-27.37309 3.13378,-21.19344 5.15878,-42.57553 6.09174,-63.97697 2.04277,-52.99365 -72.90157,-55.88257 -74.94434,-2.88892 z"/>
<path d="m 345.72214,442.48593 c 21.34466,-7.67887 43.44212,-13.03921 65.71726,-17.22982 9.03411,-1.69958 18.12653,-3.07312 27.18979,-4.60967 43.03209,-6.45211 86.40637,-10.44867 129.84831,-12.77198 23.05977,-1.23326 35.92016,-1.48873 58.63631,-2.16306 24.80715,-0.67223 49.62148,-0.98086 74.4363,-1.16305 53.03157,-0.39062 52.47915,-75.38858 -0.55242,-74.99797 v 0 c -25.37576,0.18751 -50.75103,0.50434 -76.1189,1.19433 -23.76308,0.71139 -36.97672,0.97396 -61.14476,2.2799 -46.07904,2.48994 -92.08445,6.77296 -137.71939,13.69028 -10.0316,1.7215 -20.09624,3.26048 -30.0948,5.1645 -25.02955,4.76635 -49.84826,10.88841 -73.86721,19.43946 -50.32273,16.73687 -26.65322,87.90396 23.66951,71.16708 z"/>
<path d="m 376.28653,330.39347 c 1.2144,32.71328 3.4687,65.37442 5.36681,98.05233 2.05779,36.71979 3.56805,73.49362 3.38355,110.27915 -0.10174,20.28359 -0.48417,26.37859 -1.23129,45.93279 -2.00385,52.99514 72.94259,55.82901 74.94644,2.83387 v 0 c 0.79062,-21.11517 1.18468,-27.34495 1.28335,-49.24021 0.1716,-38.07843 -1.37621,-76.14476 -3.5083,-114.15537 -1.86465,-32.09179 -4.08205,-64.16697 -5.28531,-96.29301 -1.83172,-53.00136 -76.78697,-50.41092 -74.95525,2.59045 z"/>
<path d="m 541.66296,294.8583 c -0.0534,17.52451 0.0673,35.04818 0.18637,52.57216 0.079,46.10184 0.67661,92.19719 0.58814,138.29972 0.0497,37.32572 -0.38728,74.64007 -1.35398,111.95214 -1.36768,53.01537 73.60738,54.94956 74.97506,1.93419 v 0 c 0.97392,-37.90943 1.43342,-75.82093 1.37878,-113.7441 0.0868,-46.31983 -0.50705,-92.63245 -0.58973,-138.95155 -0.11793,-17.35413 -0.23827,-34.70791 -0.18464,-52.06256 0,-53.03301 -75,-53.03301 -75,0 z"/>
<path d="m 432.7671,598.4133 c 15.44713,-2.92701 30.95162,-5.5328 46.59539,-7.16778 5.83403,-0.60973 11.68323,-1.0643 17.52485,-1.59646 19.02542,-1.55736 38.07543,-0.32874 57.07735,0.75979 52.95055,2.95612 57.13114,-71.92727 4.18058,-74.88339 v 0 c -22.68683,-1.23789 -45.4297,-2.52423 -68.13099,-0.56081 -6.57337,0.61038 -13.15589,1.12924 -19.72013,1.83112 -16.40785,1.75442 -32.7092,4.35185 -48.9063,7.48581 -52.41904,8.04634 -41.03979,82.17807 11.37925,74.13172 z"/>
<path d="m 232.43111,791.34108 c 5.76448,17.35471 11.47179,34.68827 19.29342,51.26083 2.60949,5.529 5.52499,10.90832 8.28748,16.36249 11.45597,20.60753 5.3974,10.27153 18.22334,30.98001 28.02919,45.02071 91.69809,5.38146 63.66891,-39.63926 v 0 c -10.53267,-16.8092 -5.50705,-8.32712 -15.09113,-25.43782 -5.11247,-9.91696 -7.64333,-14.27588 -11.82237,-24.44022 -4.16243,-10.12395 -7.04712,-20.70484 -10.82271,-30.96778 -15.47274,-50.72568 -87.20968,-28.84393 -71.73694,21.88175 z"/>
<path d="m 387.22057,755.54922 c 9.48654,17.19611 17.06583,35.30338 24.98737,53.24684 9.74018,20.00594 4.72872,10.26202 14.99665,29.25113 25.32672,46.5946 91.22144,10.7772 65.89471,-35.8174 v 0 c -8.34184,-15.24705 -4.23148,-7.3476 -12.28042,-23.72463 -8.41394,-19.05747 -16.5205,-38.26895 -26.54628,-56.5569 -23.75947,-47.41295 -90.8115,-13.81198 -67.05203,33.60096 z"/>
<path d="m 545.21371,729.40795 c 4.32096,10.52368 9.42948,20.69748 14.09854,31.0656 2.54472,5.65081 9.62623,22.06707 11.87487,27.26003 9.78577,21.56844 4.80295,10.91455 14.93856,31.96632 23.03303,47.77007 90.59011,15.19645 67.55708,-32.57362 v 0 c -9.21902,-19.08914 -4.65545,-9.35969 -13.67198,-29.19714 -8.05548,-18.59991 -16.30192,-37.10387 -24.81633,-55.49701 -19.07479,-49.48386 -89.05553,-22.50804 -69.98074,26.97582 z"/>
<path d="m 750.38817,741.62104 c 1.3088,18.98756 1.57732,38.27512 -1.97461,57.06072 -1.21795,6.44157 -3.04742,12.75234 -4.57113,19.12852 -6.75502,23.17095 -18.89562,44.03945 -30.35037,65.07849 -25.25485,46.63359 40.69501,82.34936 65.94987,35.71576 v 0 c 4.83824,-8.97517 9.95404,-17.80618 14.51474,-26.92553 14.47931,-28.95211 12.70489,-27.01727 22.99983,-57.15548 1.9632,-8.87772 4.34801,-17.6726 5.88959,-26.63315 3.89278,-22.62701 4.23787,-47.42816 2.44559,-70.37232 -0.21561,-2.7602 -0.61896,-5.50251 -0.92844,-8.25376 -8.73754,-52.30828 -82.71261,-39.95153 -73.97507,12.35675 z"/>
</svg>
