<?xml version="1.0" ?>
<svg xmlns="http://www.w3.org/2000/svg" width="1000" height="1000">
<path d="m 239.8685,238.60687 c 23.84194,-6.13702 48.03524,-10.71877 72.28148,-14.91245 26.74237,-4.23914 53.59572,-7.99085 80.59279,-10.18666 13.79059,-1.12165 17.91161,-1.16057 31.23318,-1.69399 8.30802,-0.0588 12.37979,-0.27931 20.28528,0.2854 1.94534,0.13896 3.89318,0.32201 5.81281,0.6665 0.55993,0.10048 2.12162,0.81391 1.5742,0.65913 -12.25753,-3.46596 -6.9428,-1.38615 -18.71482,-12.46504 14.35646,9.0036 -3.3335,-10.60174 -4.81822,-7.89859 -1.38741,2.526 -2.05587,5.38523 -3.14111,8.05503 -1.76676,4.34641 -3.55514,8.68461 -5.41435,12.99229 -4.81814,11.16336 -9.86586,22.032 -14.92433,33.09439 -8.43105,18.45107 -17.33849,36.67705 -26.22891,54.90905 -23.24176,47.66886 44.17219,80.53768 67.41395,32.86882 v 0 c 9.16151,-18.79249 18.33798,-37.57999 27.0265,-56.59797 7.89754,-17.2831 16.25347,-34.53179 22.87232,-52.36439 3.95065,-10.64391 8.95895,-24.88486 8.61726,-36.44168 -0.2189,-7.40407 -2.77188,-14.55299 -4.15782,-21.82948 -5.0683,-6.44378 -9.00067,-13.97246 -15.20489,-19.33133 -4.64477,-4.01189 -10.79542,-5.9298 -16.54068,-8.08876 -3.43128,-1.28941 -7.15326,-1.63813 -10.77892,-2.17743 -12.14291,-1.80621 -24.52577,-1.36934 -36.746,-1.27317 -15.17553,0.6332 -19.5869,0.67433 -35.2671,1.9682 -28.91143,2.38567 -57.67334,6.38324 -86.3109,10.95344 -26.03213,4.52859 -52.01077,9.44958 -77.6136,16.03844 -51.45634,12.83532 -33.30446,85.60557 18.15188,72.77025 z"/>
<path d="m 248.2775,417.2335 c 21.95224,-5.02142 44.09308,-9.09514 66.28626,-12.88133 21.30646,-3.29551 42.70639,-6.31446 64.25238,-7.48693 10.61086,-0.57742 12.76235,-0.43047 22.87398,-0.38093 2.66111,0.13499 5.32221,0.26998 7.98332,0.40498 52.97654,2.44665 56.43664,-72.47349 3.4601,-74.92015 v 0 c -3.75977,-0.16155 -7.51954,-0.3231 -11.2793,-0.48465 -12.66555,-8.8e-4 -15.40468,-0.1705 -28.52296,0.58157 -23.9393,1.37245 -47.72614,4.64997 -71.39923,8.3575 -23.21129,3.97166 -46.37278,8.22165 -69.33553,13.46755 -51.86091,11.08813 -36.17992,84.43052 15.68098,73.34239 z"/>
<path d="m 249.31916,369.33709 c -11.86556,14.36893 -20.77912,30.9378 -29.97858,47.06863 -13.24355,24.41916 -26.34521,48.91296 -39.87294,73.17675 -3.65717,6.7032 -7.40609,13.35927 -10.96028,20.11849 -0.76892,1.4623 -1.60083,2.89619 -2.26033,4.41098 -1.10547,2.53915 -2.86921,4.9717 -3.02833,7.73648 -0.51164,8.89013 0.69787,17.79601 1.04681,26.69402 10.90788,8.11012 20.36358,18.67488 32.72366,24.33036 5.49988,2.51653 22.01599,-2.6248 28.38005,-4.40146 13.05734,-3.64522 26.10163,-7.04382 39.28667,-10.21313 39.18815,-8.98569 78.58439,-17.03868 118.195,-23.9227 14.24236,-2.24195 28.57115,-4.35213 43.00786,-4.77735 5.2018,-0.15322 10.85228,-0.2841 15.84194,1.4614 -3.23663,0.79631 -7.7299,-3.21086 -9.60306,-4.93115 -1.15979,-1.06514 -1.80368,-2.63604 -3.02883,-3.6253 -0.25405,-0.20514 -0.29766,0.60296 -0.31005,0.92926 -0.0539,1.41822 0.0754,2.83748 0.11318,4.25621 0.68036,22.15887 -1.28999,44.36125 -4.64581,66.25416 -0.97653,6.37071 -2.18522,12.70366 -3.27782,19.0555 -8.22841,43.64786 -21.39251,86.09386 -35.50392,128.13361 -9.87836,28.156 -20.0527,56.30117 -33.30648,83.07304 -2.51269,4.41238 -4.69262,9.16319 -7.95222,13.11598 -0.15366,0.18634 -0.70621,0.63195 -0.59042,0.42 1.08954,-1.9945 3.08976,-3.1808 4.78661,-4.57262 8.51332,-4.22111 1.17464,-1.02424 9.91885,-3.66556 0.35029,-0.10581 1.24309,-0.35722 0.94152,-0.56448 -1.32963,-0.91381 -3.00998,-1.17015 -4.46863,-1.85959 -2.67397,-1.26388 -5.35018,-2.53571 -7.9217,-3.99681 -3.86641,-2.19683 -7.58426,-4.64538 -11.37639,-6.96807 -5.06015,-3.44427 -10.1203,-6.88854 -15.18045,-10.3328 -43.93989,-29.69488 -85.9348,32.44551 -41.9949,62.14039 v 0 c 6.26491,4.20929 12.52983,8.41858 18.79474,12.62787 5.85966,3.42634 11.57285,7.11646 17.57899,10.27902 12.52955,6.5975 28.10643,13.0625 42.50825,13.66613 13.38625,0.56106 15.03864,-1.22033 26.99223,-5.41785 3.21809,-2.07033 6.62231,-3.87654 9.65427,-6.21097 11.75383,-9.04975 18.64761,-22.90424 25.61566,-35.57218 1.76257,-3.60475 3.59433,-7.17648 5.28771,-10.81424 12.31526,-26.45578 22.07168,-54.02672 31.81932,-81.49772 5.95664,-17.77285 8.9275,-26.23943 14.43543,-44.32152 9.52336,-31.26441 17.73457,-62.94567 23.89394,-95.05218 1.23533,-7.29741 2.60494,-14.57336 3.70598,-21.89224 4.13131,-27.46191 6.38637,-55.34165 4.95015,-83.10864 -1.09988,-9.44622 -1.35846,-17.1703 -4.90311,-26.1344 -1.99248,-5.03883 -4.26034,-10.05722 -7.39998,-14.47338 -6.09775,-8.57699 -13.25996,-13.94786 -22.57837,-18.35923 -3.57671,-1.69322 -7.47317,-2.60595 -11.20976,-3.90893 -3.73805,-0.70669 -7.44244,-1.62352 -11.21416,-2.12009 -7.96595,-1.04876 -17.11726,-1.15715 -25.08887,-0.86419 -17.16586,0.63085 -34.21361,3.0327 -51.15303,5.73991 -41.18456,7.17916 -82.15652,15.52016 -122.89845,24.89752 -14.74832,3.55987 -17.36956,4.06967 -31.4235,7.90239 -3.63295,0.99076 -7.25026,2.03865 -10.86338,3.09948 -1.66961,0.4902 -6.19525,0.3042 -4.98381,1.55332 9.81916,10.12448 52.8239,-43.72171 34.65653,24.27368 -0.0492,7.83797 0.28124,15.68753 -0.14755,23.51392 -0.0515,0.93966 -1.7019,3.35759 -1.27863,2.51708 3.76565,-7.47768 7.93182,-14.74614 11.92534,-22.10238 13.41122,-24.05965 26.43233,-48.33004 39.52685,-72.56274 5.11062,-8.97602 10.21059,-17.94375 15.69307,-26.69984 1.33848,-2.13771 2.82375,-4.18935 4.02567,-6.40672 36.12971,-38.82195 -18.77283,-89.91707 -54.90254,-51.09512 z"/>
<path d="m 676.36143,159.48384 c -0.0328,-0.0569 -0.10487,-0.23611 -0.0984,-0.17073 0.29832,3.01902 0.7352,6.02292 1.06268,9.03892 1.10801,10.20441 2.10154,20.42255 3.14015,30.63411 3.86664,37.4556 7.87664,74.89464 11.38785,112.38579 3.01835,33.19519 5.57946,66.43743 7.13841,99.73584 1.05562,22.5474 1.22779,32.15622 1.87815,54.80917 1.194,57.15409 -0.88006,114.29938 -3.20847,171.39617 -2.10422,58.60381 -7.95673,116.95451 -13.73436,175.27985 -0.97261,9.91944 -1.94522,19.83888 -2.91783,29.75832 -5.17507,52.7799 69.46699,60.09856 74.64206,7.31866 v 0 c 0.97017,-9.89465 1.94033,-19.78929 2.9105,-29.68393 5.92029,-59.7683 11.87947,-119.56534 14.0374,-179.61836 2.397,-58.83346 4.5049,-117.71766 3.23963,-176.60949 -0.6789,-23.50816 -0.85303,-33.26982 -1.95664,-56.70283 -1.61451,-34.2811 -4.24616,-68.50517 -7.35594,-102.68035 -3.53316,-37.68828 -7.55423,-75.32549 -11.44571,-112.97792 -1.58293,-15.5632 -2.92459,-31.17048 -5.18224,-46.65349 -10.42295,-51.998678 -83.96018,-37.2584 -73.53723,14.74027 z"/>
</svg>
