<?xml version="1.0" ?>
<svg xmlns="http://www.w3.org/2000/svg" viewBox="0 0 1000 1000">
<path d="m 134.66221,231.97592 c 24.47563,-5.24935 49.07996,-9.86714 73.68178,-14.47874 33.32714,-6.07119 66.86173,-11.3588 100.67651,-13.77678 4.81811,-0.34453 9.64643,-0.52742 14.46964,-0.79113 8.69766,-0.25887 17.42491,-0.40111 26.1076,0.30728 1.26402,0.10312 2.52862,0.22757 3.77963,0.43588 0.20193,0.0336 0.7481,0.30503 0.54445,0.28414 -0.89297,-0.0916 -1.76413,-0.33314 -2.6462,-0.49972 -6.28984,-2.11575 -11.18906,-6.12044 -14.90866,-11.55099 -0.67001,-0.9782 -1.03226,-2.14527 -1.70413,-3.1222 -0.0705,-0.10257 -0.25752,0.14704 -0.2564,0.27151 0.0133,1.47173 0.1991,2.93684 0.29864,4.40526 1.20719,26.2335 0.6983,52.67473 -3.18262,78.69024 -1.01403,6.79745 -2.4665,13.52223 -3.69975,20.28335 -4.44644,20.1662 -9.55294,40.25192 -17.06228,59.5281 -5.28367,13.56298 -8.28217,18.75127 -14.70408,31.40204 -23.80281,47.39121 43.21847,81.05346 67.02128,33.66226 v 0 c 8.4238,-16.9123 11.62399,-22.37568 18.57648,-40.58804 8.76637,-22.96393 14.8622,-46.82505 20.00138,-70.82409 1.46486,-8.35304 3.18784,-16.6649 4.39457,-25.05912 4.51015,-31.37314 5.10026,-63.26995 3.25098,-94.86929 -0.92871,-7.83781 -1.15957,-13.28949 -3.53205,-20.75417 -3.38538,-10.65159 -9.40428,-19.81727 -18.56503,-26.42236 -3.06462,-2.20966 -6.63902,-3.60852 -9.95852,-5.41278 -2.8336,-0.88688 -5.61997,-1.94183 -8.5008,-2.66064 -4.54762,-1.1347 -10.32265,-1.74492 -14.99703,-2.08449 -11.46019,-0.83252 -22.96699,-0.71594 -34.44143,-0.30538 -5.58082,0.3176 -11.16744,0.54575 -16.74245,0.95279 -36.28226,2.64899 -72.27631,8.24986 -108.03889,14.78246 -25.22382,4.72898 -50.4492,9.46909 -75.54354,14.8522 -51.860917,11.08808 -36.179995,84.43049 15.68092,73.34241 z"/>
<path d="m 145.83449,411.213 c 20.21745,-2.68972 40.36656,-5.93061 60.65005,-8.11231 6.19459,-0.66629 12.40564,-1.16931 18.60846,-1.75396 33.98448,-2.88626 68.09167,-2.46603 102.11207,-0.68997 52.96184,2.74654 56.84605,-72.15281 3.88421,-74.89936 v 0 c -11.63001,-0.59942 -18.76701,-1.03969 -30.71083,-1.31905 -27.47433,-0.64262 -54.97947,0.0787 -82.37735,2.24443 -6.86943,0.65701 -13.74751,1.22909 -20.60829,1.97102 -20.25296,2.19015 -40.38024,5.37524 -60.5632,8.10175 -52.649372,6.36741 -43.644491,80.82486 9.00488,74.45745 z"/>
<path d="m 129.11182,387.11494 c -7.33434,21.76004 -15.07734,43.37894 -22.32866,65.17264 -11.004343,34.3749 -24.625881,67.79906 -39.075384,100.84362 -4.546199,11.08197 -10.264516,21.64075 -14.909096,32.67334 -0.593531,1.84884 -1.491944,3.62632 -1.780593,5.54651 -2.805463,18.663 -1.596578,25.95993 17.070478,42.89339 7.66129,6.9498 22.334177,6.53 31.973585,4.90568 3.5083,-0.59118 6.88927,-1.78006 10.3339,-2.67008 27.26961,-9.67678 54.62579,-19.07713 82.22916,-27.7598 21.54735,-6.22355 43.31206,-12.05333 65.5135,-15.45334 10.41457,-1.59493 14.34761,-1.74506 24.59095,-2.58062 10.82687,-0.50141 21.80832,-1.1064 32.53185,0.83609 0.25273,0.0523 2.31679,0.47286 2.67298,0.56811 0.22593,0.0604 -0.46462,-0.0644 -0.6901,-0.12647 -0.78219,-0.21533 -1.58198,-0.3897 -2.32957,-0.70481 -1.84075,-0.77586 -3.86817,-1.30054 -5.41804,-2.56077 -4.24766,-3.45385 -7.86101,-7.62176 -11.79151,-11.43264 -1.41088,-3.23831 -2.82177,-6.47662 -4.23265,-9.71493 -0.1053,-0.14469 -0.30771,-0.61282 -0.31588,-0.43407 -0.0737,1.61288 0.0965,3.22787 0.11442,4.84234 0.0306,2.75171 0.0533,5.5038 0.0311,8.25559 -0.0784,9.70652 -0.3067,14.92856 -0.61935,24.97773 -1.25305,31.12424 -4.13122,62.21867 -9.88985,92.85292 -1.23659,6.57829 -2.72376,13.10699 -4.08565,19.66048 -5.73879,24.26651 -12.35052,48.37888 -20.86254,71.83396 -4.63833,12.78102 -6.27911,16.16771 -11.51282,28.41325 -8.9243,20.04737 -18.96865,39.576 -29.5691,58.78227 -3.58584,5.31672 -6.11877,11.8917 -10.48019,16.69344 -0.1335,0.14697 0.0423,-0.42154 0.1748,-0.56942 1.11147,-1.24069 2.34418,-2.36717 3.51627,-3.55076 3.41839,-9.9775 13.65868,-2.44428 19.07563,-6.39863 1.12911,-0.82425 -2.25761,-1.65509 -3.45135,-2.3826 -3.65676,-2.22856 -7.49023,-4.16528 -11.09247,-6.48093 -13.36248,-8.58989 -19.96841,-14.08459 -33.06073,-24.04784 -42.27647,-32.01874 -87.557812,27.76922 -45.28134,59.78796 v 0 c 18.64033,14.06002 37.18882,28.77836 58.35081,38.99623 12.6374,6.10184 24.24915,10.85974 38.85731,9.15331 6.62665,-0.77409 12.58009,-4.44836 18.87014,-6.67255 3.09298,-2.49408 6.37456,-4.77086 9.27893,-7.48225 2.01129,-1.87765 3.69463,-4.08303 5.41214,-6.23268 6.05853,-7.58293 10.54381,-16.31218 15.50826,-24.60041 11.81118,-21.44089 23.0119,-43.23553 32.90541,-65.63538 6.17809,-14.5798 8.01043,-18.36563 13.47817,-33.54788 9.51619,-26.42354 16.97013,-53.55959 23.33426,-80.89783 1.53579,-7.48483 3.21383,-14.94188 4.60738,-22.45449 6.29974,-33.96196 9.5194,-68.41626 10.88093,-102.90973 0.3861,-12.63824 0.83851,-25.27534 0.58612,-37.92189 -0.0711,-3.56132 -0.35393,-13.54385 -1.25589,-16.93061 -1.30497,-4.90005 -3.44265,-9.53948 -5.16398,-14.30922 -4.36183,-4.52128 -8.29789,-9.4961 -13.08549,-13.56382 -2.02964,-1.72446 -4.69215,-2.53271 -7.12779,-3.61013 -4.42392,-1.95694 -9.30432,-2.65012 -13.9977,-3.62253 -16.93686,-2.72682 -34.10934,-2.8163 -51.20474,-1.59066 -13.53009,1.17963 -17.73668,1.32421 -31.52157,3.4948 -25.32934,3.98838 -50.19128,10.55191 -74.77432,17.73329 -27.01038,8.51141 -53.86522,17.50785 -80.466919,27.22864 -2.694277,1.49412 -0.351375,-0.07 2.678493,0.82861 5.413493,1.6055 12.052676,1.60193 15.959406,5.67881 13.59909,14.19133 20.38049,26.17097 14.05316,43.00999 4.51526,-10.11659 9.78859,-20.39983 14.10345,-30.75836 15.35117,-35.13296 29.79593,-70.67945 41.52055,-107.21226 4.84801,-14.58205 6.3325,-19.26482 11.26102,-33.3056 4.0084,-11.41946 8.37435,-22.72778 11.84024,-34.33082 14.99504,-50.86893 -56.9445,-72.07512 -71.93954,-21.20619 z"/>
<path d="m 471.7105,159.85072 c 6.95764,8.46549 12.77614,17.7748 18.75722,26.93127 11.10559,17.00161 7.03167,10.74928 18.26303,28.08667 11.76796,18.85721 5.98505,9.28061 17.33737,28.73667 26.76976,45.78078 91.51356,7.92262 64.7438,-37.85816 v 0 c -12.70006,-21.67802 -6.31026,-11.13265 -19.13557,-31.65658 -9.75957,-15.06458 -8.80113,-13.6219 -18.46075,-28.39027 -6.87326,-10.50837 -13.61944,-21.15533 -21.55335,-30.91387 -31.86525,-42.392281 -91.817,2.67199 -59.95175,45.06427 z"/>
<path d="m 593.11489,131.74962 c 12.02261,13.64387 21.89847,28.96627 32.43518,43.74115 11.25724,14.93817 5.69901,7.74844 16.64548,21.59176 32.92649,41.57339 91.72014,-4.99169 58.79366,-46.56508 v 0 c -9.47328,-11.93895 -4.66959,-5.74853 -14.38763,-18.58944 -11.75964,-16.47094 -22.84872,-33.494759 -36.28634,-48.687361 -34.30102,-40.446756 -91.50137,8.06221 -57.20035,48.508971 z"/>
<path d="m 801.43896,70.598467 c -0.73106,2.487028 -1.69642,5.889093 -2.5788,8.101309 -2.4401,6.11755 -7.43335,15.998841 -10.10693,21.055621 -9.11183,17.233973 -13.33385,23.927643 -23.71664,41.642053 -12.89679,21.23745 -19.76075,33.3819 -34.24666,53.77288 -6.26086,8.81304 -13.04621,17.24148 -19.56931,25.86223 -31.91484,42.35496 27.98412,87.48936 59.89896,45.1344 v 0 c 7.37646,-9.82571 15.03666,-19.44469 22.12939,-29.47713 15.45411,-21.85938 22.82383,-34.8452 36.51505,-57.40624 14.64327,-25.04941 29.94481,-50.03043 40.36694,-77.22844 1.16652,-3.044206 2.4108,-7.403659 3.41012,-10.810023 14.59939,-50.983896 -57.50272,-71.630557 -72.10212,-20.64666 z"/>
<path d="m 418.19173,300.10528 c 2.82713,29.18869 7.68929,58.13262 12.43734,87.05537 8.06134,46.35485 16.53707,92.62775 23.09449,139.22578 1.67542,12.1227 2.99565,24.28806 4.23502,36.4612 5.38636,52.75876 79.99852,45.14131 74.61216,-7.61745 v 0 c -1.34325,-13.12398 -2.76892,-26.24007 -4.581,-39.30961 -2.7487,-19.47865 -2.9641,-21.66203 -6.22444,-41.85985 -5.34015,-33.08225 -11.61324,-66.00273 -17.12778,-99.05527 -4.46097,-27.14787 -9.05692,-54.31205 -11.75517,-81.70541 -4.81203,-52.81425 -79.50265,-46.00901 -74.69062,6.80524 z"/>
<path d="m 542.00465,341.77371 c 24.29579,-8.94956 49.65428,-14.48593 74.88567,-20.03971 31.09357,-6.25928 62.47649,-11.28279 94.08154,-14.09801 18.52485,-1.6501 24.29809,-1.67371 42.48797,-2.40978 22.98093,-0.62745 46.1436,-0.0135 68.71297,4.66886 2.94283,0.8619 6.1287,1.33943 8.88083,2.79093 0.0938,0.0495 -0.21149,-0.0337 -0.30893,-0.0755 -0.43669,-0.18714 -0.85906,-0.40607 -1.28859,-0.6091 -4.71151,-2.9996 -6.44443,-3.74918 -10.59916,-9.48141 -1.98817,-2.74307 -3.05843,-6.04648 -4.64209,-9.04135 -0.13219,-0.24997 -0.47036,-0.96573 -0.50092,-0.68462 -0.17702,1.62839 0.0563,3.27586 0.0412,4.91377 -0.0287,3.10796 -0.115,6.21512 -0.17249,9.32268 -1.46196,38.50942 -6.23173,76.79115 -11.41201,114.94593 -3.82957,27.93721 -10.3914,55.41435 -19.99627,81.92871 -4.29719,11.86242 -6.36961,16.14876 -11.24645,27.28787 -21.15935,48.62902 47.61247,78.55286 68.77182,29.92384 v 0 c 5.92604,-13.6885 8.40025,-18.8421 13.59969,-33.41622 11.05544,-30.98859 18.6969,-63.06095 23.19173,-95.65145 5.56645,-41.14003 10.66908,-82.42291 12.08389,-123.95109 0.0832,-7.47976 0.40661,-16.02935 -0.3163,-23.55483 -0.33468,-3.48405 -0.54073,-7.03756 -1.57419,-10.3816 -4.02089,-13.01062 -8.67733,-20.11252 -20.05771,-27.30114 -9.33027,-5.01392 -19.35416,-8.37678 -29.73706,-10.50734 -8.84896,-1.73037 -10.65029,-2.2256 -20.01613,-3.40564 -22.04892,-2.77803 -44.31666,-3.33075 -66.51307,-2.65726 -20.37581,0.85905 -26.58422,0.88568 -47.33739,2.76812 -34.36326,3.11697 -68.48946,8.57783 -102.29225,15.43714 -28.79114,6.36649 -57.69169,12.82857 -85.3739,23.17181 -49.57269,18.84272 -22.92506,88.9491 26.64763,70.10637 z"/>
<path d="m 514.87895,473.34904 c 20.00039,-8.62747 41.38807,-12.78453 62.64776,-16.94094 47.77186,-8.45254 96.26666,-11.66015 144.66335,-13.93572 28.58793,-1.2634 57.19715,-1.19465 85.78181,-0.0361 52.99029,2.12814 55.99994,-72.81145 3.00965,-74.93959 v 0 c -30.76901,-1.22537 -61.56466,-1.31399 -92.33605,0.0595 -52.0667,2.47798 -104.23198,6.0102 -155.60231,15.2637 -6.80241,1.34665 -13.62954,2.57395 -20.40723,4.03994 -18.94854,4.0985 -37.62675,9.40969 -55.55742,16.83195 -49.25513,19.65788 -21.45469,89.31515 27.80044,69.65727 z"/>
<path d="m 507.50977,575.45065 c 18.36266,-2.65383 36.82267,-4.54561 55.27449,-6.44981 45.96663,-4.91215 92.1761,-6.57612 138.35483,-7.98115 32.16831,-0.92117 64.35123,-1.54054 96.51351,-0.23144 52.991,2.11038 55.97553,-72.83021 2.98453,-74.94059 v 0 c -33.9196,-1.32476 -67.85651,-0.81974 -101.78186,0.20681 -47.9892,1.46384 -96.00739,3.2369 -143.77547,8.34315 -20.2248,2.0901 -40.46709,4.14813 -60.57602,7.18934 -52.22951,9.19662 -39.22352,83.06031 13.00599,73.86369 z"/>
<path d="m 378.48002,766.52212 c 17.2604,-2.34993 34.03745,-7.35812 51.03938,-11.04668 6.14577,-1.33333 12.31959,-2.53393 18.47939,-3.80089 56.56423,-10.36907 114.19606,-12.7105 171.5449,-14.70028 66.7121,-1.85612 133.45328,-1.85048 200.18322,-1.38009 32.3047,0.0248 64.58373,1.22771 96.81473,3.32703 52.92148,3.43762 57.78301,-71.40465 4.86153,-74.84227 v 0 c -33.67437,-2.1818 -67.39798,-3.45142 -101.14866,-3.48291 -67.77742,-0.47586 -135.56637,-0.47596 -203.32532,1.42383 -61.55682,2.15813 -123.40276,4.82631 -184.07818,16.20032 -6.71643,1.38838 -13.44727,2.70882 -20.1493,4.16514 -9.84763,2.13984 -18.98397,4.41454 -28.72748,6.71987 -2.8636,0.67753 -7.9615,1.8191 -11.23359,2.63686 -52.8775,4.05835 -47.13811,78.83843 5.73938,74.78007 z"/>
<path d="m 625.05281,309.00339 c 0,20.52082 0,41.04163 0,61.56244 0.15322,59.10947 -0.0231,118.21482 -0.81851,177.31919 -1.65796,76.85037 -4.09051,153.68269 -6.21757,230.52158 -1.06104,34.51558 -2.60646,69.05301 -6.57668,103.37669 -1.21742,10.52495 -2.87134,20.99482 -4.30701,31.49223 -7.13517,52.55083 67.18292,62.64148 74.31809,10.09065 v 0 c 1.55166,-11.50435 3.33734,-22.97955 4.65496,-34.51305 4.1112,-35.98631 5.77556,-72.18776 6.88192,-108.37117 2.1369,-77.19461 4.58374,-154.38258 6.23951,-231.58896 0.79794,-59.44036 0.98066,-118.88169 0.82529,-178.32716 0,-20.52081 0,-41.04162 0,-61.56244 0,-53.03301 -75,-53.03301 -75,0 z"/>
</svg>
