<?xml version="1.0" ?>
<svg xmlns="http://www.w3.org/2000/svg" width="1000" height="1000">
<path d="m 134.20989,202.33536 c 21.34848,-3.87712 42.64138,-8.05973 63.99005,-11.94572 38.23846,-6.94824 76.8476,-11.43608 115.59684,-14.20037 17.34789,-1.16173 34.74447,-1.37278 52.10651,-0.48768 0.91318,0.0579 1.82637,0.11581 2.73956,0.17372 0.13532,0.0293 0.5435,0.10393 0.40598,0.0878 -7.92214,-0.92652 -15.35212,-4.73385 -20.81687,-10.77466 -3.49599,-3.86451 -5.26751,-8.99327 -7.90126,-13.48991 -0.49618,-2.42575 -0.96679,-4.85688 -1.48855,-7.27725 -0.21475,-0.99617 -0.14433,2.03337 -0.18198,3.05173 -0.0765,2.06935 -0.15735,4.13854 -0.23581,6.20782 -0.50533,13.32883 -0.25847,6.66588 -0.80648,22.03601 -0.84067,24.02146 -2.39524,48.04695 -6.06818,71.8214 -2.83354,18.34108 -4.21036,23.15231 -8.23749,41.33374 -4.60499,20.10589 -10.33303,39.90709 -16.24176,59.65727 -15.16661,50.81805 56.70097,72.26687 71.86757,21.44882 v 0 c 6.40933,-21.52286 12.64937,-43.09439 17.62581,-65.00637 1.74037,-7.97233 3.65195,-15.90919 5.22113,-23.91697 6.63137,-33.84102 9.74714,-68.22421 10.78531,-102.66605 0.58914,-16.53038 0.26161,-7.59929 0.80061,-21.87599 0.0839,-2.22316 0.37798,-9.39181 0.39508,-12.03774 0.0103,-1.59904 0.11243,-3.20847 -0.0739,-4.79664 -0.3929,-3.34829 -1.10641,-6.65112 -1.65961,-9.97668 -2.79266,-5.01462 -4.61769,-10.70732 -8.37798,-15.04386 -8.82974,-10.18286 -21.34576,-13.34791 -34.00601,-13.86266 -20.40147,-1.004302 -40.84207,-0.802633 -61.22543,0.58687 -6.15277,0.44478 -12.31082,0.82172 -18.4583,1.33434 -35.26339,2.94051 -70.35038,7.78329 -105.19929,13.88632 -21.20538,3.86188 -42.35689,8.01267 -63.56128,11.86894 -52.229539,9.19646 -39.223786,83.06019 13.00576,73.86373 z"/>
<path d="m 147.26793,396.53638 c 15.56981,-4.05527 31.33224,-7.13662 47.18546,-9.84598 30.97923,-4.87627 62.29325,-6.74964 93.6172,-7.15849 11.07701,-0.0991 22.14301,0.34058 33.20407,0.85652 52.97714,2.43365 56.41884,-72.48734 3.4417,-74.92099 v 0 c -12.5527,-0.56892 -25.11078,-1.05884 -37.68077,-0.92839 -14.04312,0.20315 -18.80519,0.14748 -33.15153,0.89296 -24.14502,1.25464 -48.23319,3.69227 -72.13366,7.34199 -16.49928,2.84924 -32.97462,5.86894 -49.15967,10.21253 -52.007594,10.37835 -37.33039,83.9282 14.6772,73.54985 z"/>
<path d="m 111.71522,375.36087 c -1.70022,10.43257 -5.08011,20.54428 -7.99961,30.68153 -6.740959,24.23181 -11.157025,49.01449 -16.724424,73.52398 -2.553892,11.66281 -6.031934,23.11625 -7.91262,34.91654 -0.135194,1.9804 -0.60245,3.96597 -0.40558,5.94119 1.730078,17.35805 3.932115,24.11637 22.262074,36.05919 10.79616,7.03421 27.01034,3.27968 38.5804,0.81753 25.03379,-6.51657 50.15927,-12.60993 75.44754,-18.05918 27.24998,-5.76011 54.77207,-10.07395 82.18062,-14.98704 15.91418,-2.92019 31.81821,-5.94639 47.90923,-7.71571 4.96843,-0.49474 9.95715,-0.78361 14.95004,-0.81847 -11.36978,0.18117 -18.23311,-5.27699 -26.21757,-12.97598 -1.00948,-0.97339 -2.75642,-4.05996 -3.78016,-5.82952 2.00027,14.37315 2.30547,28.87157 2.29463,43.36474 -0.36934,18.64617 -2.69251,37.18304 -6.41842,55.44393 -2.56644,12.57824 -4.6482,20.37518 -7.76398,32.92234 -6.10599,23.50624 -12.95183,46.83542 -21.16603,69.69798 -4.54694,12.65548 -7.92486,20.91801 -12.86577,33.42348 -10.4544,26.7822 -22.1893,53.02142 -35.1038,78.7005 -5.35572,10.33931 -10.91235,20.60876 -17.31262,30.34687 -0.65893,0.89064 -1.2603,1.82196 -1.90782,2.72059 -0.0765,0.10615 0.12287,-0.23273 0.2042,-0.33522 0.59506,-0.74983 1.10498,-1.58584 1.82287,-2.21906 2.48913,-2.19558 4.72221,-4.90491 7.76269,-6.23602 5.586,-2.44552 11.75362,-3.25397 17.63043,-4.88096 2.68248,0.29733 5.34945,0.82163 8.04745,0.89198 0.45981,0.012 -0.77832,-0.49152 -1.18149,-0.71295 -1.51422,-0.83167 -3.06306,-1.59982 -4.56941,-2.44566 -11.38246,-6.39143 -22.23954,-13.56602 -33.16889,-20.69392 -20.70517,-13.86896 -10.48614,-6.96178 -30.66057,-20.7164 -43.82014,-29.87132 -86.06457,32.09971 -42.24443,61.97103 v 0 c 20.95214,14.28055 10.29749,7.08191 31.96904,21.58841 13.05248,8.49314 26.027,17.11566 39.74608,24.51778 3.53097,1.90513 12.9143,6.71641 17.11577,7.87995 4.48294,1.24148 9.12633,1.80617 13.68949,2.70925 6.8528,-1.61063 14.02503,-2.2108 20.5584,-4.83188 7.63856,-3.06448 13.43455,-11.58976 18.0122,-18.24483 7.87041,-12.12994 14.93672,-24.76293 21.50521,-37.64137 13.89745,-27.6919 26.58179,-55.96131 37.84763,-84.8326 5.53079,-14.02558 8.94058,-22.34901 14.0421,-36.6137 8.92045,-24.94308 16.39367,-50.37945 23.029,-76.01803 3.53988,-14.3354 5.87596,-23.09454 8.76103,-37.57816 4.52279,-22.70534 7.2647,-45.75248 7.61957,-68.91485 -0.0683,-22.31646 -0.35404,-44.98077 -6.0518,-66.70398 -1.96266,-5.27235 -3.90791,-11.82636 -7.76444,-16.12939 -3.82055,-4.26289 -8.03591,-8.29922 -12.85854,-11.38322 -6.39264,-4.088 -14.01486,-5.01439 -21.32954,-5.2378 -7.53683,0.0814 -15.06826,0.49107 -22.56579,1.27841 -17.73022,2.00287 -35.28922,5.13847 -52.82112,8.42946 -28.27119,5.06933 -56.66024,9.518 -84.76106,15.49653 -25.48307,5.50306 -50.82928,11.55683 -76.04258,18.19007 -1.26273,0.31848 -2.57466,0.48293 -3.78819,0.95543 -0.21414,0.0834 0.4118,0.2109 0.63303,0.27307 4.73019,1.32935 10.32534,0.89781 14.21508,3.89978 13.15897,10.15567 21.18512,20.03375 19.15695,35.86439 1.56202,-9.52383 5.01661,-19.29496 6.81231,-28.95765 5.234,-23.11529 9.45248,-46.4695 15.6528,-69.35659 4.16607,-14.46847 8.85214,-28.93563 10.55452,-43.9565 5.28866,-52.76864 -69.33747,-60.24794 -74.62613,-7.47929 z"/>
<path d="m 510.96787,196.43291 c 20.35928,-4.97363 40.7422,-9.95469 61.35609,-13.78189 7.25074,-1.34619 14.5438,-2.45348 21.8157,-3.68022 33.63644,-4.81731 67.55986,-7.56491 101.53997,-7.97299 20.22999,-0.24295 25.56551,0.19799 45.33774,0.9529 20.14336,1.44893 40.55402,2.30354 60.23721,7.17305 51.62716,12.12997 68.78153,-60.88186 17.15436,-73.01183 v 0 c -3.18706,-0.72694 -6.35357,-1.5508 -9.5612,-2.18084 -21.42058,-4.207398 -43.30416,-5.503674 -65.03863,-6.9284 -21.93364,-0.798653 -27.90855,-1.279752 -50.30994,-0.973175 -37.45371,0.512578 -74.84597,3.586015 -111.90783,8.998475 -8.10716,1.38313 -16.23673,2.64073 -24.32147,4.1494 -21.65124,4.04027 -43.06658,9.25682 -64.45364,14.48521 -51.45638,12.83515 -33.30474,85.60546 18.15164,72.77031 z"/>
<path d="m 540.79197,329.78519 c 24.28702,-4.82975 48.74313,-8.78062 73.21499,-12.54193 24.76648,-3.46394 49.73335,-6.18419 74.77485,-6.18328 12.42366,4.5e-4 16.54461,0.55717 28.62515,1.5204 10.34939,0.91154 20.58911,2.62751 30.80321,4.46885 52.20971,9.3084 65.37378,-64.52728 13.16407,-73.83567 v 0 c -12.69071,-2.24266 -25.41104,-4.34251 -38.26752,-5.41628 -15.83815,-1.16357 -20.09884,-1.76817 -36.37276,-1.70934 -28.17551,0.10185 -56.26839,3.09675 -84.13488,7.02799 -26.00643,4.00712 -52.00132,8.19505 -77.80015,13.39428 -51.81323,11.30879 -35.8202,84.58377 15.99304,73.27498 z"/>
<path d="m 554.42383,467.7008 c 15.92217,-7.47842 33.45826,-10.7482 50.60411,-14.08775 27.93178,-4.62016 56.12917,-7.85516 84.41335,-9.26013 4.91849,-0.24432 9.8433,-0.33841 14.76495,-0.50762 12.04099,-0.15937 24.10165,0.33316 36.05894,1.80272 5.84205,0.718 11.05908,1.7016 16.4964,3.81882 50.28076,16.86252 74.12796,-54.24523 23.84719,-71.10774 v 0 c -3.26352,-1.0382 -6.48179,-2.23119 -9.79058,-3.11459 -22.50334,-6.00812 -46.1503,-6.26752 -69.26765,-6.35218 -5.64001,0.20501 -11.28361,0.32786 -16.92004,0.61504 -31.55099,1.60751 -63.0063,5.24854 -94.14614,10.5293 -5.93848,1.18772 -11.90481,2.24382 -17.81544,3.56317 -18.93423,4.22644 -37.86185,9.69184 -55.08683,18.77343 -46.19354,26.05104 -9.3518,91.37858 36.84174,65.32753 z"/>
<path d="m 425.34177,621.43574 c 21.98095,-5.44938 44.29665,-9.42525 66.57244,-13.44497 43.69302,-7.23535 87.71757,-12.56372 131.83072,-16.48031 10.14669,-0.90088 20.30964,-1.60821 30.46447,-2.41232 47.11248,-2.77529 94.38584,-4.99988 141.59313,-3.52735 7.20551,0.22476 14.40076,0.70563 21.60114,1.05845 15.65655,0.81943 31.09057,3.40161 46.46823,6.27222 52.15863,9.59052 65.72168,-64.17291 13.56305,-73.76343 v 0 c -18.68195,-3.39341 -37.42649,-6.47237 -56.43116,-7.42233 -8.02327,-0.37879 -16.04128,-0.89317 -24.06981,-1.13637 -49.56573,-1.50146 -99.19803,0.79051 -148.66178,3.75419 -10.63274,0.84667 -21.27385,1.59417 -31.89823,2.54002 -46.11021,4.10505 -92.12439,9.70675 -137.78956,17.31129 -24.19505,4.37332 -48.43112,8.71579 -72.28946,14.70976 -51.29434,13.46813 -32.24752,86.00929 19.04682,72.54115 z"/>
<path d="m 475.36295,169.22549 c 0.76162,9.84417 0.84074,19.72272 0.96332,29.59015 0.27076,29.29999 -0.2961,58.59885 -0.75267,87.894 -0.7218,44.74344 -1.2364,89.48679 -1.15378,134.23629 0.46417,47.97825 1.17925,95.94762 0.30584,143.92397 -1.11815,42.66393 -5.11249,85.17511 -8.72753,127.6791 -2.82625,31.97857 -4.88954,64.00858 -5.68743,96.10172 -0.42167,17.81425 0.18046,35.62747 1.96093,53.35418 0.94379,8.07894 2.10225,16.13579 3.88535,24.0742 3.57669,13.23145 10.64166,23.32269 24.35513,29.3098 6.64214,2.89986 14.35146,2.87728 21.59191,2.55623 9.68152,-0.42928 17.51751,-6.24809 25.3967,-10.8634 3.074,-2.34961 6.21351,-4.61592 9.22201,-7.04883 8.25282,-6.67389 12.56348,-10.85156 20.4602,-18.2974 13.13631,-12.38625 26.00886,-25.04184 38.89314,-37.68861 20.93989,-20.92006 10.32522,-9.9479 31.77052,-32.98742 36.09123,-38.85774 -18.86191,-89.89844 -54.95313,-51.0407 v 0 c -19.34102,20.87426 -9.54926,10.71178 -29.35637,30.50565 -12.47491,12.24643 -24.96816,24.46272 -37.6496,36.49566 -2.76497,2.62358 -5.49296,5.28747 -8.31613,7.84831 -4.40682,3.99733 -7.05186,6.08761 -11.35766,9.60039 2.57142,-0.11973 5.0853,-1.31019 7.64822,-1.06939 5.53392,0.51995 11.46115,0.54053 16.37798,3.13271 8.9037,4.69409 16.82865,12.50796 18.95083,22.48619 -1.38299,-4.7314 -1.40125,-9.81299 -2.30715,-14.63286 -1.52267,-14.57753 -1.89956,-29.23871 -1.59556,-43.89025 0.7438,-30.58778 2.7571,-61.1119 5.44031,-91.5903 3.7565,-44.16799 7.87519,-88.34578 8.98513,-132.68205 0.1446,-8.08459 0.34625,-16.16836 0.43381,-24.25377 0.4374,-40.38927 -0.58244,-80.77641 -0.72758,-121.16406 -0.0847,-44.31292 0.43242,-88.61968 1.14481,-132.92662 0.46753,-29.99898 1.04212,-60.00182 0.75584,-90.00571 -0.14135,-11.11721 -0.26044,-22.24493 -1.10413,-33.3365 -3.31585,-52.92925 -78.1691,-48.23993 -74.85326,4.68932 z"/>
<path d="m 767.49463,610.29782 c -13.8981,6.44783 -27.20957,14.05995 -40.65634,21.37998 -27.65734,15.31149 -55.92449,29.45039 -84.20922,43.55209 -47.46139,23.66255 -13.9975,90.7831 33.4639,67.12055 v 0 c 29.09085,-14.5037 58.15575,-29.06152 86.60553,-44.80121 13.17342,-7.1719 26.22384,-14.59204 39.82647,-20.93493 46.89283,-24.77018 11.86249,-91.08666 -35.03034,-66.31648 z"/>
<path d="m 556.59051,689.65807 c 13.26048,10.33971 26.21887,21.05852 39.2753,31.65371 22.94612,18.8281 45.08957,38.59171 67.18371,58.40258 20.84088,18.46835 41.06572,37.61369 61.40685,56.62662 14.43997,14.00931 29.36789,27.45897 45.15264,39.93408 8.45563,6.37518 17.1201,12.5089 26.33883,17.7423 5.73099,3.25344 7.21695,3.84768 13.1418,6.70419 13.22892,5.91854 27.11444,10.14679 41.12351,13.75203 10.25103,2.42031 20.63227,4.41692 31.18663,4.88232 5.54876,0.24467 11.10829,0.0208 16.66243,0.0312 53.03102,-0.45869 52.38234,-75.45588 -0.64869,-74.99719 v 0 c -3.13839,0.0856 -6.27588,0.29773 -9.41516,0.25679 -6.5678,-0.0856 -12.99632,-1.39992 -19.36627,-2.87626 -9.29185,-2.29558 -18.46156,-5.13426 -27.32139,-8.77486 -9.0367,-4.19359 -17.41309,-9.51009 -25.28275,-15.62965 -14.16927,-11.1225 -27.39941,-23.31192 -40.35778,-35.81683 -20.71938,-19.36622 -41.32449,-38.86264 -62.55208,-57.67506 -23.01113,-20.63225 -46.08533,-41.20245 -69.99322,-60.79957 -12.8245,-10.40697 -25.53962,-20.95452 -38.58402,-31.08588 -40.77845,-33.90601 -88.7288,23.76343 -47.95034,57.66945 z"/>
</svg>
