<?xml version="1.0" ?>
<svg xmlns="http://www.w3.org/2000/svg" viewBox="0 0 1000 1000">
<path d="m 449.31941,114.9941 c 0.31284,0.31213 0.61962,0.63046 0.93851,0.93641 1.53477,1.47251 3.11087,2.89045 4.6957,4.30757 0.29467,0.26348 1.16036,1.07325 0.88275,0.79185 -0.84313,-0.85465 -1.72024,-1.6751 -2.58035,-2.51265 -5.01181,-6.4382 -0.61678,-0.54315 -3.89944,-5.47544 -0.11686,-0.17558 -0.43536,-0.67887 -0.42568,-0.46817 0.0435,0.94616 0.36043,1.85973 0.53245,2.79113 0.35479,1.92095 0.71304,3.84134 1.04798,5.76585 0.49305,2.83302 0.95729,5.67098 1.43593,8.50647 4.83713,28.40738 5.82151,57.21027 6.21332,85.95904 0.10124,27.16813 -0.61204,54.33039 -0.70595,81.49721 -0.0605,17.50331 0.0684,23.50007 0.26152,40.89928 0.57968,32.4941 0.91465,64.99199 0.26358,97.48649 -0.3506,14.41029 -0.998,28.822 -2.83434,43.12557 -2.13247,14.86829 0.38381,-6.10705 8.15594,-12.83113 6.95998,-6.02145 16.73221,-7.67006 25.09832,-11.50509 -53.02974,0.58895 -52.19683,75.58433 0.83291,74.99537 v 0 c 9.38733,-3.84637 20.26059,-5.17639 28.162,-11.53912 9.54541,-7.6866 10.68226,-19.06278 12.15435,-29.67988 2.13117,-16.9466 3.04972,-34.00408 3.41604,-51.0769 0.65491,-33.27024 0.35196,-66.54368 -0.25348,-99.8135 -0.18641,-16.55653 -0.31636,-22.77221 -0.25968,-39.40885 0.0945,-27.74133 0.83576,-55.47809 0.70114,-83.22091 -0.0996,-6.6915 -0.11701,-13.38472 -0.29879,-20.07449 -0.7037,-25.89592 -2.80184,-51.75995 -6.96045,-77.34008 -2.35131,-13.83671 -3.97534,-28.771494 -11.26266,-41.09459 -1.28885,-2.179483 -2.90501,-4.148012 -4.35751,-6.222018 -2.59064,-2.730647 -5.18496,-5.419795 -7.98028,-7.89155 -37.5418,-37.458152 -90.51563,15.633972 -52.97383,53.092128 z"/>
<path d="m 296.86008,308.02659 c 8.86796,11.31843 18.44942,22.13599 28.93677,31.98839 3.40725,3.20096 6.97962,6.2215 10.46942,9.33224 9.73707,7.4951 13.98531,11.29934 24.76933,17.41727 5.01174,2.84323 10.28883,5.19094 15.43325,7.78641 47.63903,23.30285 80.59424,-44.06891 32.95522,-67.37176 v 0 c -2.81644,-1.29862 -5.70869,-2.44404 -8.4493,-3.89585 -6.49386,-3.44006 -9.11413,-5.74141 -15.05316,-10.14414 -2.43642,-2.1246 -4.93866,-4.17602 -7.30928,-6.37382 -8.73409,-8.09736 -16.60615,-17.08863 -23.90982,-26.48027 -33.75837,-40.90077 -91.60079,6.84076 -57.84243,47.74153 z"/>
<path d="m 636.04429,213.84419 c -0.3587,-0.47009 -0.34445,-0.6653 -0.89091,0.40854 -6.83572,13.43276 5.59691,-8.25314 -7.49963,15.06223 -9.35165,16.64847 -12.94821,21.56773 -24.0488,38.80557 -19.96446,29.11108 -39.88102,58.25046 -59.62946,87.50854 -29.66832,43.95783 32.49744,85.91517 62.16576,41.95734 v 0 c 20.06775,-29.73532 40.3355,-59.33 60.57672,-88.9474 10.68029,-16.68134 19.0817,-28.94703 28.22511,-46.20086 6.0564,-11.42856 10.8087,-21.6498 13.88513,-34.14903 2.40056,-9.7533 1.95729,-12.34336 1.9067,-21.25017 -4.81203,-52.81425 -79.50265,-46.00901 -74.69062,6.80524 z"/>
<path d="m 315.39287,580.95138 c 17.74515,-7.01121 36.40447,-11.35404 54.85283,-16.0546 44.98251,-10.8781 90.57295,-19.0235 136.21197,-26.5833 42.48375,-6.80744 84.92393,-13.99473 127.62082,-19.35652 14.87623,-1.64942 29.82501,-3.29154 44.81514,-2.96459 0.2378,0.0339 0.95343,0.0927 0.7134,0.10169 -5.82623,0.2188 -12.08035,-3.64229 -16.51603,-7.01004 -4.13877,-4.2851 -4.6354,-4.25836 -7.61066,-9.5672 -0.71153,-1.26959 -1.16376,-2.66798 -1.74868,-4.00065 -0.145,-0.33036 -0.37782,-1.34358 -0.44106,-0.98839 -0.15511,0.87125 0.10016,1.76706 0.14509,2.65087 0.10579,2.08075 0.20472,4.16185 0.30707,6.24277 0.4047,22.30045 -0.64629,44.63398 -2.92006,66.82013 -0.64384,6.28221 -1.44683,12.54709 -2.17025,18.82063 -4.14525,33.71201 -11.00747,67.04672 -19.72819,99.8618 -1.67472,6.30175 -3.51972,12.55702 -5.27958,18.83553 -8.7788,30.58056 -20.13738,60.30243 -32.38335,89.63462 -5.6412,12.54015 -10.49934,25.63726 -18.00604,37.23259 -1.27685,1.70715 -0.68899,1.11036 -1.58577,1.94961 -33.32023,41.25848 25.02808,88.3804 58.3483,47.12191 v 0 c 4.62534,-5.90266 2.34933,-2.81952 6.80349,-9.26749 9.41178,-15.26164 16.7493,-31.63403 23.65725,-48.158 13.41258,-32.16746 25.80612,-64.77972 35.39625,-98.31896 1.9287,-6.91459 3.94903,-13.80427 5.7861,-20.74377 9.53517,-36.01897 16.97645,-72.61513 21.50399,-109.60998 0.79112,-6.94428 1.67317,-13.87881 2.37336,-20.83285 2.58736,-25.69655 3.75659,-51.56945 3.09532,-77.39131 -0.83138,-14.51365 -1.42534,-28.39359 -10.45834,-40.58377 -1.57951,-2.13159 -3.58386,-3.9128 -5.37579,-5.8692 -1.41137,-1.12702 -2.74066,-2.36532 -4.23411,-3.38108 -8.43928,-5.73992 -18.20996,-8.35385 -28.34656,-8.53776 -18.56766,-0.28193 -37.08891,1.3366 -55.51369,3.54094 -43.65984,5.51529 -87.07214,12.78014 -130.51312,19.77825 -47.74364,7.92072 -95.43514,16.46032 -142.48039,27.89968 -21.59765,5.51288 -43.38387,10.75621 -64.11943,19.07128 -49.25505,19.65808 -21.45433,89.31524 27.80072,69.65716 z"/>
<path d="m 418.56146,715.37886 c 18.92281,-8.46524 39.44498,-12.26167 59.69307,-16.03065 23.47467,-3.90402 47.22902,-6.13512 71.02647,-6.48898 13.36951,-0.1988 16.4743,0.11465 29.38882,0.68018 9.9965,0.62909 19.96418,1.77246 29.81574,3.5921 2.0974,0.38741 9.83595,1.6756 11.91351,3.01004 -1.06523,-0.38115 -2.13046,-0.7623 -3.19568,-1.14346 45.95367,26.47188 83.39056,-38.51642 37.43689,-64.9883 v 0 c -3.0093,-1.50104 -6.01859,-3.00209 -9.02788,-4.50313 -2.7297,-0.90319 -5.42566,-1.91558 -8.18909,-2.70958 -4.06501,-1.16797 -13.09918,-3.01401 -16.91844,-3.69621 -12.79544,-2.28554 -25.73151,-3.72957 -38.70495,-4.49611 -15.42565,-0.61861 -19.2564,-0.98424 -35.12437,-0.70026 -27.57783,0.49355 -55.10133,3.13377 -82.29399,7.73794 -6.49786,1.2344 -13.02282,2.33386 -19.4936,3.70321 -20.4693,4.33172 -40.81603,10.02377 -59.80756,18.92123 -47.45534,23.67468 -13.97428,90.78667 33.48106,67.11198 z"/>
<path d="m 317.21594,873.70566 c 16.40677,-3.97449 33.22545,-6.04984 49.91039,-8.49093 40.88748,-6.16018 82.0369,-10.24713 123.27693,-13.07756 22.06737,-1.20656 44.22838,-1.71553 66.3002,-0.28232 9.05932,0.58826 11.76165,1.0363 20.38368,2.10026 8.63632,1.1334 17.02966,3.41583 25.34733,5.92229 50.79876,15.23106 72.33874,-56.60924 21.53997,-71.8403 v 0 c -12.42517,-3.71144 -25.01049,-6.90642 -37.90194,-8.5418 -11.16841,-1.32423 -14.27946,-1.83958 -25.94339,-2.56217 -24.93352,-1.54467 -49.95914,-1.01778 -74.88413,0.38164 -43.14664,2.98698 -86.20223,7.24031 -128.98161,13.69082 -19.774,2.89607 -39.70129,5.41224 -59.0793,10.42473 -51.10638,14.16467 -31.07451,86.44 20.03187,72.27534 z"/>
</svg>
