<?xml version="1.0" ?>
<svg xmlns="http://www.w3.org/2000/svg" width="1000" height="1000">
<path d="m 269.05902,66.170125 c -0.65759,1.345818 -1.3238,2.687456 -1.97275,4.037455 -4.39832,9.149614 -8.97878,18.014466 -14.39146,26.632705 -8.04017,12.801845 -12.53088,18.743495 -21.60761,31.601205 -35.14246,48.128 -73.79405,93.55793 -112.55256,138.77899 -22.636355,26.08294 -11.785,13.65153 -32.535897,37.3101 -34.968935,39.87071 21.416767,89.32425 56.385697,49.45354 v 0 c 21.11169,-24.07212 10.07265,-11.42444 33.09863,-37.95917 40.29745,-47.02699 80.46163,-94.29025 116.92236,-144.39695 4.611,-6.56045 9.33225,-13.04476 13.83298,-19.68133 11.49882,-16.95561 21.94008,-34.59115 30.40641,-53.262561 22.99086,-47.79038 -44.59494,-80.304364 -67.5858,-32.513984 z"/>
<path d="m 333.55532,229.2128 c -0.26685,0.63131 -0.45944,1.29946 -0.80055,1.89395 -0.24875,0.43354 -0.66793,0.74738 -0.95126,1.15916 -6.27674,9.12228 -1.8994,3.65828 -10.52109,14.96164 -9.96198,13.06054 -12.6708,15.90064 -24.00591,29.35623 -42.79091,48.31294 -88.24389,94.14016 -134.20406,139.4125 -25.94837,24.96624 -52.50699,49.28431 -78.775077,73.91162 -38.68841,36.27267 12.608898,90.98635 51.297307,54.71367 v 0 c 26.7185,-25.05076 53.73893,-49.78041 80.11239,-75.19687 47.62545,-46.92292 94.72287,-94.42985 138.97907,-144.57982 12.2025,-14.54285 16.49567,-19.22271 27.38036,-33.68219 8.20291,-10.89696 16.29875,-22.2698 21.4696,-34.97417 19.07472,-49.48388 -50.90606,-76.45961 -69.98078,-26.97572 z"/>
<path d="m 241.18978,384.60874 c 1.17979,21.26682 1.42687,42.5677 1.63425,63.8612 -0.043,43.65968 -0.39959,87.34493 -2.11374,130.97647 -0.39623,10.08548 -0.95498,20.16392 -1.43247,30.24588 -2.95487,55.80147 -9.53631,111.32315 -17.30616,166.63306 -4.13654,27.53914 -8.91406,55.03206 -16.21277,81.92735 -13.80575,51.2045 58.60835,70.72879 72.41411,19.52428 v 0 c 8.02252,-29.90945 13.5714,-60.40213 18.07078,-91.02798 8.07585,-57.59628 14.905,-115.41277 17.95064,-173.52079 0.4933,-10.48629 1.06955,-20.96899 1.47988,-31.45885 1.74666,-44.65186 2.11451,-89.3582 2.14609,-134.03865 -0.23246,-23.3157 -0.47766,-46.64909 -1.93999,-69.92721 -4.81203,-52.81424 -79.50265,-46.009 -74.69062,6.80524 z"/>
<path d="m 423.3177,127.57399 c 3.65213,15.57795 6.2521,31.43126 7.03613,47.43202 0.28561,5.82883 0.22061,11.66955 0.33091,17.50432 -1.45686,40.91503 -9.7239,81.51294 -24.09689,119.85773 -3.10032,8.27118 -6.83862,16.28897 -10.25793,24.43346 -14.69457,29.05261 -7.18549,15.09793 -22.41834,41.92243 -26.09224,46.17028 39.2024,83.07029 65.29464,36.9 v 0 c 17.83408,-31.68889 8.97385,-15.03241 26.39297,-50.06884 4.07639,-9.91317 8.52665,-19.68072 12.22919,-29.7395 14.10971,-38.33214 23.18131,-78.72455 26.59834,-119.43025 0.71529,-8.52101 0.8251,-17.08204 1.23765,-25.62305 -0.19909,-7.43602 -0.18053,-14.88105 -0.59726,-22.30805 -1.08847,-19.39921 -4.22978,-38.6315 -8.62257,-57.53752 -11.77845,-51.70849 -84.9053,-35.051239 -73.12684,16.65725 z"/>
<path d="m 474.76781,169.32304 c 13.83212,-4.72815 28.0372,-8.28126 42.18613,-11.91216 28.24568,-6.92862 56.69141,-13.15682 85.44873,-17.57508 5.36109,-0.82368 10.74449,-1.495 16.11673,-2.2425 19.15455,-2.47169 38.45079,-3.58177 57.75218,-3.01703 2.59388,0.0956 5.1852,0.24903 7.77276,0.45185 0.41701,0.0327 1.66535,0.15797 1.25057,0.10385 -5.05053,-0.65896 2.18594,0.83445 -8.0617,-1.73116 -14.65247,-8.13945 -16.14566,-6.68356 -23.72337,-29.0095 -1.53995,-4.53709 0.28974,-9.583922 0.71988,-14.35588 0.0865,-0.959989 1.33881,-1.956854 0.82402,-2.771753 -0.45287,-0.716877 -0.76468,1.513747 -1.13767,2.275243 -0.82739,1.689154 -1.64228,3.384398 -2.46342,5.076596 -8.7328,18.513024 -15.2346,38.075534 -19.54533,58.085724 -1.16196,5.39375 -2.02491,10.8476 -3.03736,16.27141 -3.63163,23.4137 -4.31135,47.20222 -2.07641,70.78832 1.42967,15.08782 2.62849,19.97034 5.30129,34.76384 4.43559,20.78379 10.06578,41.42909 18.35359,61.04175 5.4773,12.96175 7.04151,15.05778 13.78496,27.30117 10.332,17.37288 23.4484,32.82656 39.00039,45.74446 10.07906,8.37194 13.79266,10.32832 24.76111,17.45572 16.67746,10.05288 34.60035,17.82441 53.07877,23.89608 10.62425,3.49093 14.56617,4.35127 25.19344,7.12537 9.30845,2.31763 18.69425,4.32159 28.15022,5.93657 2.33941,0.39955 10.1971,1.65982 12.75563,1.77278 3.30908,0.14609 6.62459,-0.0111 9.93688,-0.0166 6.11324,-1.92713 12.8419,-2.48601 18.33972,-5.78138 17.32568,-10.38494 23.45232,-27.84857 29.24014,-45.79168 5.58308,-17.30837 7.10557,-24.80603 11.68273,-43.07336 1.82862,-8.88231 3.65723,-17.76461 5.48584,-26.64692 10.62951,-51.95685 -62.84857,-66.98923 -73.47807,-15.03239 v 0 c -1.59449,7.84976 -3.18898,15.69953 -4.78347,23.54929 -4.78285,19.32736 -4.43583,19.13871 -9.81772,36.77648 -0.98539,3.22934 -2.41517,6.33091 -3.15411,9.62539 -0.0728,0.32432 0.61056,0.60074 0.8979,0.43366 16.28311,-9.46792 1.87532,-4.83805 21.46397,-8.94567 0.88775,0.12794 3.54423,0.21553 2.66324,0.38383 -0.9983,0.19071 -2.0256,-0.17807 -3.03293,-0.31321 -1.63388,-0.21918 -3.2625,-0.47753 -4.88844,-0.74945 -7.61945,-1.2743 -15.17897,-2.88346 -22.67814,-4.73711 -19.63439,-5.01951 -39.08511,-11.16707 -56.62141,-21.5787 -2.71462,-1.69653 -5.48999,-3.29952 -8.14386,-5.0896 -12.32715,-8.31483 -22.85013,-18.80545 -30.59133,-31.54848 -4.48928,-7.84321 -5.67948,-9.43774 -9.35037,-17.8932 -6.59492,-15.19063 -10.91763,-31.27685 -14.48508,-47.40688 -2.11661,-11.25809 -3.04678,-14.94661 -4.24306,-26.36832 -1.81755,-17.35343 -1.48246,-34.87655 1.03369,-52.14422 0.70828,-3.99592 1.29972,-8.01432 2.12485,-11.98776 3.0804,-14.83375 7.72908,-29.38056 14.15466,-43.10546 2.02491,-4.17326 6.72326,-12.66388 7.4481,-16.83208 0.95693,-5.5028 2.98246,-11.34665 1.38527,-16.698804 -6.8994,-23.119731 -9.59519,-22.14813 -24.73804,-30.851363 -2.51842,-0.684354 -5.00829,-1.484123 -7.55528,-2.053062 -5.58302,-1.247124 -11.48235,-0.729242 -17.12592,-1.316749 -23.46938,-0.619215 -46.93642,0.64155 -70.2218,3.712783 -6.03986,0.850179 -12.09184,1.618267 -18.11957,2.550538 -30.86345,4.773453 -61.40046,11.445767 -91.71535,18.903112 -15.26641,3.928621 -30.59439,7.779496 -45.52979,12.854526 -50.69758,15.564549 -28.68598,87.261759 22.01161,71.697209 z"/>
<path d="m 470.49577,525.88181 c 20.56486,-5.84098 41.22516,-11.32085 61.94053,-16.60029 37.8984,-9.28087 76.35191,-16.05939 115.00037,-21.298 15.64653,-1.88571 31.47043,-3.43537 47.2149,-1.95487 0.75246,0.0943 1.50492,0.18861 2.25739,0.28291 0.13562,0.0433 0.54792,0.14924 0.40686,0.12997 -5.90628,-0.80705 -13.22397,-4.72855 -16.77317,-8.95665 -4.11241,-4.89903 -6.3456,-11.10779 -9.51839,-16.66169 -15.44556,-2.73764 2.16985,-10.93631 -0.36658,-15.40146 -0.42344,-0.74543 -0.56882,1.61751 -0.85926,2.42411 -2.17809,6.0489 -4.55896,11.96042 -7.0761,17.87777 -11.70018,25.36802 -26.18152,49.29187 -40.97728,72.93884 -14.05827,21.88327 -29.22156,43.0925 -45.38054,63.47769 -10.0127,12.63143 -16.00904,19.38648 -26.55586,31.69612 -23.6848,26.38639 -48.18152,52.19501 -74.72684,75.7482 -4.67572,4.14868 -9.52231,8.10071 -14.28346,12.15107 -16.95215,13.71329 -34.78005,26.35906 -53.95775,36.7792 -9.14676,4.96987 -12.83543,6.51177 -21.95131,10.72431 -48.08064,22.3775 -16.43407,90.37378 31.64656,67.99628 v 0 c 11.60691,-5.43232 16.18624,-7.36332 27.82941,-13.78292 23.10692,-12.74028 44.69205,-27.99281 65.11805,-44.66624 5.49441,-4.70136 11.08076,-9.29735 16.48322,-14.1041 28.70117,-25.53641 55.22688,-53.46566 80.81903,-82.07459 11.97061,-13.99691 17.68913,-20.41069 29.0971,-34.83192 17.61931,-22.27321 34.13332,-45.45321 49.45924,-69.35834 16.8821,-27.03025 33.35013,-54.42135 46.47391,-83.52014 3.14093,-7.48119 6.19345,-14.9408 8.88352,-22.59592 1.17859,-3.35389 3.47439,-9.9575 3.68638,-12.975 0.36691,-5.22262 -0.24014,-10.46823 -0.3602,-15.70235 -3.33462,-6.24072 -5.57958,-13.20019 -10.00385,-18.72215 -7.56414,-9.44087 -21.56865,-12.44167 -32.93634,-13.59653 -21.2772,-1.74092 -42.61522,-0.45209 -63.76021,2.36316 -41.47763,5.66319 -82.75367,12.92047 -123.41987,22.93862 -20.88601,5.32827 -41.72638,10.82511 -62.45678,16.73389 -51.29424,13.46849 -32.24692,86.00951 19.04732,72.54102 z"/>
<path d="m 448.53545,595.13021 c 13.31639,13.4027 26.68504,26.75717 39.90751,40.25569 17.82917,18.20181 35.44287,36.6222 53.52376,54.57621 13.13311,13.04095 16.40817,16.01497 29.78246,28.72585 24.24184,22.72982 49.68746,44.11362 74.43002,66.28588 12.41405,11.30712 24.49634,22.97214 37.4335,33.6875 8.52614,7.06118 18.00354,12.75514 27.67723,18.06931 17.11112,9.53424 35.08245,17.30265 53.1946,24.69658 29.64805,11.67861 60.65677,19.40824 92.07535,24.49691 7.78107,1.26025 15.6068,2.22739 23.41019,3.34108 7.94469,0.87689 15.88937,1.75378 23.83405,2.63067 52.71739,5.77727 60.88768,-68.77638 8.17029,-74.55365 v 0 c -7.16352,-0.77881 -14.32704,-1.55762 -21.49056,-2.33643 -6.87786,-0.9649 -13.77409,-1.80682 -20.63357,-2.89471 -26.28372,-4.16852 -52.2594,-10.44451 -77.07998,-20.14547 -15.5069,-6.29636 -30.901,-12.89534 -45.53655,-21.06082 -5.535,-2.99385 -11.01281,-6.1165 -15.90673,-10.10834 -12.20042,-9.99481 -23.3371,-21.19155 -35.10115,-31.68255 -24.20327,-21.68017 -49.0695,-42.61561 -72.8198,-64.80027 -12.51335,-11.88307 -15.92045,-14.98745 -28.2043,-27.18174 -17.96884,-17.83782 -35.46542,-36.14714 -53.18386,-54.23148 -12.72358,-12.98621 -25.53309,-25.88935 -38.42885,-38.70253 -36.01457,-38.92878 -91.06819,12.00352 -55.05361,50.93231 z"/>
</svg>
