<?xml version="1.0" ?>
<svg xmlns="http://www.w3.org/2000/svg" width="1000" height="1000">
<path d="m 129.10897,140.56882 c 2.41214,14.2486 7.08506,28.01192 11.32514,41.78874 7.6182,24.753 3.41681,10.78241 11.1508,37.06806 11.90952,41.60533 23.71688,83.24081 36.17964,124.68463 5.71986,18.23642 2.91551,9.58968 8.36631,25.95531 16.78299,50.30737 87.92835,26.57265 71.14537,-23.73472 v 0 c -4.94784,-14.8041 -2.36585,-6.86961 -7.68973,-23.82169 -12.42405,-41.30269 -24.17646,-82.80182 -36.05446,-124.26395 -2.0118,-6.83028 -3.98423,-13.67229 -6.03541,-20.49085 -4.72003,-15.69039 -10.03673,-31.22612 -14.04847,-47.11959 -7.02444,-52.565742 -81.36362,-42.631682 -74.33919,9.93406 z"/>
<path d="m 302.94846,136.17824 c 17.94262,-7.80395 37.50663,-10.97685 56.66088,-14.26134 24.27023,-3.46369 48.89148,-5.86552 73.41652,-4.01713 3.02134,0.22771 6.02348,0.66257 9.03522,0.99385 4.41841,0.84182 9.09387,1.45412 13.18714,3.48793 0.2144,0.10653 0.77237,0.46387 0.53356,0.48079 -0.90217,0.0639 -3.45213,-1.83586 -3.59254,-1.92597 -3.42018,-3.29655 -3.92385,-3.36381 -6.51237,-8.09214 -0.78165,-1.42781 -1.22115,-3.01786 -1.84463,-4.52148 -0.13428,-0.32383 -0.40001,-1.30985 -0.4285,-0.96044 -0.11983,1.47002 0.11088,2.94781 0.14629,4.42229 0.0656,2.73131 0.10445,5.46319 0.15668,8.19479 0.26119,28.98842 -1.10491,57.99683 -4.22207,86.82066 -0.83831,7.75171 -1.88431,15.47955 -2.82647,23.21933 -3.05675,22.759 -6.83953,45.45871 -13.21654,67.55438 -4.26333,14.77199 -7.55711,22.71612 -12.88818,36.86452 -18.58715,49.66908 51.65553,75.95529 70.24269,26.28621 v 0 c 6.64409,-17.85755 10.07085,-26.04837 15.3885,-44.89 7.0979,-25.14943 11.49005,-50.92698 14.92957,-76.79861 1.01623,-8.43205 2.14816,-16.85095 3.04868,-25.29614 3.3733,-31.63533 4.85171,-63.46905 4.52842,-95.28002 -0.18344,-8.64583 0.1508,-18.37821 -1.74945,-26.869662 -2.36051,-10.54815 -6.99875,-19.01582 -14.74459,-26.5482 -6.32777,-5.11145 -6.94318,-6.133688 -14.17224,-9.894904 -11.87169,-6.17673 -25.16689,-8.932442 -38.28766,-10.859467 -4.46688,-0.438201 -8.92266,-1.010161 -13.40065,-1.314601 -29.93272,-2.035007 -59.96893,0.667496 -89.57302,5.052271 -6.42369,1.129343 -12.87338,2.119612 -19.27105,3.388028 -21.15629,4.194493 -42.45313,9.628373 -61.69175,19.610933 -46.07092,26.26729 -8.92336,91.421412 37.14756,65.154122 z"/>
<path d="m 258.80093,270.29527 c 20.52707,-6.60908 41.87872,-10.20241 63.14365,-13.47818 10.53505,-0.9859 12.56538,-1.66584 22.5506,-0.9352 2.85187,0.20868 5.66989,0.74781 8.50483,1.12171 52.72589,5.69916 60.78572,-68.86651 8.05983,-74.56567 v 0 c -5.4209,-0.51848 -10.82191,-1.32596 -16.26272,-1.55543 -15.32357,-0.64629 -19.34946,0.29368 -34.35707,1.8222 -27.65296,4.32096 -55.56822,9.0266 -81.8554,18.94674 -48.53852,21.36613 -18.32224,90.00997 30.21628,68.64383 z"/>
<path d="m 256.51211,367.18226 c 23.45342,-2.63563 46.97897,-4.57332 70.50948,-6.36681 24.3499,-1.9546 48.7674,-2.48257 73.18272,-2.67869 53.03115,-0.44341 52.40408,-75.44079 -0.62707,-74.99738 v 0 c -26.11038,0.22628 -52.22289,0.80578 -78.26328,2.89356 -24.54395,1.8757 -49.08291,3.89919 -73.54554,6.66074 -52.67137,6.18272 -43.92769,80.6713 8.74369,74.48858 z"/>
<path d="m 308.7711,413.9953 c 6.83266,6.37269 12.304,14.14782 16.09683,22.68993 0.99921,2.25038 1.78503,4.58956 2.67754,6.88434 0.66442,2.65336 1.32883,5.30671 1.99324,7.96007 14.50055,51.0121 86.64255,30.50523 72.142,-20.50687 v 0 c -1.63294,-5.4286 -3.26588,-10.8572 -4.89882,-16.2858 -1.92698,-4.47573 -3.6453,-9.04718 -5.78093,-13.42719 -7.97694,-16.36014 -19.0446,-31.1498 -32.46485,-43.42548 -39.67647,-35.18917 -89.44148,20.92183 -49.76501,56.111 z"/>
<path d="m 137.04727,560.71339 c 1.17741,-0.58739 2.32531,-1.2381 3.53223,-1.76217 10.61671,-4.60999 22.96619,-7.98523 34.04889,-10.84934 20.79141,-5.37315 27.4173,-6.3395 49.45228,-10.73284 57.0675,-10.34174 115.03424,-14.77164 172.94053,-16.79582 11.06284,-0.38672 22.13254,-0.54305 33.1988,-0.81458 30.24926,-0.65458 60.47146,0.59139 90.64453,2.57466 52.92017,3.45766 57.81003,-71.38276 4.88986,-74.84042 v 0 c -32.41982,-2.10649 -64.89188,-3.42818 -97.39145,-2.71124 -11.57275,0.2892 -23.14915,0.45758 -34.71826,0.86762 -61.72162,2.18756 -123.49329,7.04845 -184.30093,18.18188 -35.80515,7.2084 -72.54667,13.97768 -105.77718,29.77008 -47.455468,23.67442 -13.974772,90.78659 33.4807,67.11217 z"/>
<path d="m 213.37778,621.26899 c 5.47817,23.91817 13.91705,46.99864 22.10681,70.08349 4.5184,12.83612 8.95484,25.699 13.13965,38.64777 16.32342,50.45836 87.68232,27.37355 71.35889,-23.08481 v 0 c -4.40809,-13.61394 -9.05659,-27.14576 -13.81554,-40.64113 -7.09282,-19.98942 -14.49215,-39.93901 -19.42933,-60.60145 -11.02812,-51.87369 -84.38861,-36.27757 -73.36048,15.59613 z"/>
<path d="m 289.99017,647.24458 c 12.59459,-5.64472 25.5738,-10.46447 38.78346,-14.46538 5.01256,-1.5182 10.08113,-2.8449 15.12169,-4.26735 27.20052,-7.27905 55.15111,-11.11265 83.2317,-12.55818 4.97249,-0.0684 7.08639,-0.20823 11.70446,0.0624 0.85893,0.0503 1.71599,0.1428 2.56733,0.26732 0.20145,0.0295 0.78302,0.19804 0.57949,0.19296 -1.95448,-0.0488 -4.1002,-1.01254 -5.80083,-1.56063 -9.87514,-5.99781 -13.16602,-6.52095 -18.83198,-20.0316 -4.92868,-11.75258 -2.0948,-11.70896 -1.34829,-19.77758 0.0361,-0.39027 -0.28223,0.73174 -0.4022,1.10485 -0.48583,1.51088 -0.94326,3.03075 -1.41488,4.54613 -0.63473,2.39561 -1.31165,4.78044 -1.90418,7.18683 -2.96311,12.03397 -0.94948,5.0593 -4.07169,17.52744 -2.89187,11.54828 -6.46497,22.85145 -10.12476,34.17378 -6.95968,21.86155 -18.21132,41.83319 -29.8362,61.4692 -26.96499,45.66606 37.61657,83.80032 64.58156,38.13426 v 0 c 6.03925,-10.25053 10.15675,-16.95845 15.74485,-27.70185 8.19221,-15.74993 15.31585,-32.04272 20.89749,-48.90604 4.02239,-12.52475 5.13579,-15.54669 8.58644,-27.9655 2.57017,-9.24994 4.63654,-18.57897 6.8245,-27.91849 0.3001,-1.281 0.63383,-2.55389 0.95075,-3.83083 1.37109,-4.47008 4.02531,-10.83017 4.0154,-15.2452 -0.0134,-5.96436 0.3189,-12.22437 -1.79035,-17.80333 -5.7341,-15.16669 -10.17764,-16.211 -21.26888,-23.43232 -2.35877,-0.88139 -4.66959,-1.90367 -7.07631,-2.64415 -11.78058,-3.62453 -24.46832,-2.82895 -36.59598,-2.74009 -33.65381,1.86064 -67.15283,6.43724 -99.72849,15.30986 -6.00981,1.71939 -12.05357,3.32425 -18.02942,5.15817 -16.65899,5.11244 -33.04204,11.25708 -48.84585,18.60343 -47.4553,23.67476 -13.97414,90.78669 33.48117,67.11194 z"/>
<path d="m 300.72761,747.30897 c 15.14517,-2.75068 30.46774,-4.39532 45.75684,-6.108 14.95963,-1.61551 29.95194,-2.90471 44.94652,-4.14443 52.8524,-4.373 46.66805,-79.11759 -6.18436,-74.74459 v 0 c -15.72173,1.30175 -31.44096,2.65624 -47.12552,4.35678 -17.92922,2.01508 -35.9103,3.94258 -53.62845,7.41849 -51.7756,11.47986 -35.54063,84.70161 16.23497,73.22175 z"/>
<path d="m 295.86293,753.66746 c 5.08755,17.38522 7.81971,35.35053 10.1518,53.27705 1.9154,18.4357 1.85227,37.04371 0.10623,55.4891 -0.78133,8.25407 -1.5565,12.72971 -2.76099,20.7426 -0.90576,4.81496 -1.47239,8.40854 -2.69991,13.0397 -0.28068,1.05897 -0.61914,2.10418 -1.01062,3.12739 -0.1327,0.34683 -0.23591,0.77649 -0.55543,0.96572 -0.19951,0.11815 0.0102,-0.47197 0.0896,-0.68983 0.184,-0.50501 0.46159,-0.97083 0.69238,-1.45624 6.88446,-9.71892 15.7003,-12.11239 27.34906,-12.39472 2.21897,-0.0538 4.36749,0.84033 6.5793,1.02634 -4.52648,-4.63698 -9.31501,-9.10683 -13.96008,-13.62294 -38.0894,-36.90118 -90.27556,16.96536 -52.18616,53.86655 v 0 c 9.06358,8.7553 17.91035,17.87605 28.6128,24.68898 7.30547,3.82859 13.04941,7.61774 21.67225,8.46449 5.69263,0.559 11.55995,0.5221 17.14524,-0.71202 8.20575,-1.81311 14.94342,-6.29198 20.79648,-11.9467 1.88926,-1.82524 3.43544,-3.97505 5.15317,-5.96257 3.90604,-5.95816 4.79196,-6.77854 7.70564,-13.44178 4.71147,-10.77458 6.76589,-22.45708 8.80583,-33.95612 1.53586,-10.48069 2.41585,-15.55442 3.38494,-26.45238 2.08822,-23.48331 2.01498,-47.15579 -0.56581,-70.59904 -0.71828,-5.36857 -1.34175,-10.75068 -2.15482,-16.10571 -2.42741,-15.98738 -5.70814,-31.89868 -10.09861,-47.46284 -14.22344,-51.09006 -86.47569,-30.97508 -72.25225,20.11497 z"/>
<path d="m 206.71212,780.32069 c -16.19873,21.38905 -37.06828,38.61343 -57.02198,56.32314 -26.83737,22.20186 -13.04387,11.43412 -41.39964,32.27867 -42.660489,31.50528 1.89471,91.83635 44.5552,60.33103 v 0 c 32.32107,-23.96482 16.79716,-11.7569 46.64507,-36.53031 23.88777,-21.22447 48.53657,-42.15003 67.65433,-67.98569 31.40745,-42.73256 -29.02553,-87.1494 -60.43298,-44.41684 z"/>
<path d="m 418.53267,793.27324 c 0,14.28486 0,28.56972 0,42.85458 0,6.25745 0,12.5149 0,18.77235 0,53.03301 75,53.03301 75,0 v 0 c 0,-6.25745 0,-12.5149 0,-18.77235 0,-14.28486 0,-28.56972 0,-42.85458 0,-53.03301 -75,-53.03301 -75,0 z"/>
<path d="m 754.69196,98.082928 c -22.03929,20.942322 -46.57013,39.012372 -71.00536,57.009142 -45.22612,31.76547 -89.81454,64.41898 -134.48486,96.957 -42.86663,31.22421 1.29107,91.84679 44.15771,60.62257 v 0 c 44.78803,-32.62378 89.49976,-65.35466 134.83706,-97.21511 8.28087,-6.11243 16.64252,-12.1169 24.84261,-18.33728 18.94901,-14.37425 37.3675,-29.5709 54.62648,-45.94401 37.54193,-37.45802 -15.43171,-90.550332 -52.97364,-53.092312 z"/>
<path d="m 770.25741,353.09987 c -8.17695,12.39861 -18.84719,22.88224 -29.66799,32.94499 -14.81794,13.77985 -27.59156,24.579 -43.04715,37.971 -27.59935,23.54387 -55.62574,46.58777 -83.97028,69.22831 -9.1564,7.31379 -18.28529,14.66524 -27.59311,21.78532 -8.54761,6.53856 -17.31089,12.79025 -25.96634,19.18537 -42.63535,31.53929 1.96795,91.83478 44.6033,60.29549 v 0 c 9.28061,-6.87299 18.67094,-13.60026 27.84185,-20.61898 9.52429,-7.28917 18.86674,-14.81337 28.23699,-22.29952 29.02327,-23.18748 57.71909,-46.78991 85.97566,-70.90648 15.25397,-13.2304 31.75926,-27.23625 46.48612,-41.1456 16.24241,-15.34077 31.93684,-31.65915 43.24456,-51.08424 25.00023,-46.7706 -41.14338,-82.12626 -66.14361,-35.35566 z"/>
<path d="m 808.93291,569.87073 c -2.94474,9.0131 1.03634,-3.23 -3.20589,10.11901 -0.89677,2.82185 -1.67997,5.68429 -2.72885,8.45321 -5.28636,13.95528 -12.85456,26.86235 -20.15079,39.81278 -19.10338,32.2725 -41.34188,62.45391 -65.04235,91.46945 -7.16291,8.76927 -14.34767,17.52658 -21.82073,26.03309 -7.6801,8.74218 -15.75121,17.13295 -23.62681,25.69943 -24.36889,25.63533 -50.50403,49.46218 -76.61341,73.28318 -39.16862,35.75359 11.3946,91.14638 50.56321,55.39279 v 0 c 27.73356,-25.32768 55.48498,-50.67258 81.31828,-77.97647 8.61885,-9.4143 17.44247,-18.64515 25.85654,-28.24291 7.90242,-9.01413 15.50902,-18.28539 23.08084,-27.57894 26.20327,-32.16161 50.71071,-65.68317 71.74975,-101.48329 3.80553,-6.85105 7.7956,-13.6028 11.41658,-20.55316 8.44496,-16.20981 15.31783,-33.09743 20.33881,-50.66294 16.80455,-50.30017 -54.33063,-74.0654 -71.13518,-23.76523 z"/>
</svg>
