<?xml version="1.0" ?>
<svg xmlns="http://www.w3.org/2000/svg" width="1000" height="1000">
<path d="m 260.47423,130.24577 c 0.19265,-0.67094 0.53203,-1.31628 0.57795,-2.01282 0.0102,-0.15392 -0.35832,-0.0228 -0.45184,0.0999 -1.32119,1.73311 -2.44939,3.60581 -3.72183,5.37504 -7.84963,10.91434 -16.38365,21.23704 -24.93294,31.60509 -29.41601,34.3973 -61.16274,66.71287 -93.24626,98.60448 -19.64246,19.13468 -10.06975,9.83545 -28.71408,27.90184 -38.085378,36.90535 14.10667,90.7662 52.19204,53.86085 v 0 c 18.97378,-18.38617 9.17046,-8.86148 29.40455,-28.57962 33.83473,-33.65419 67.31033,-67.75989 98.26346,-104.11551 9.9312,-12.07798 19.84622,-24.11139 28.89609,-36.87446 3.61881,-5.10362 7.74109,-11.20505 10.56119,-16.78284 1.13352,-2.24194 1.89416,-4.65369 2.84124,-6.98054 15.62806,-50.67804 -56.04151,-72.779458 -71.66957,-22.10141 z"/>
<path d="m 331.21049,249.4927 c -0.51556,-1.42023 -0.0453,-0.22231 -2.38798,3.33285 -4.69944,7.13183 -3.74324,6.11134 -9.00212,13.27823 -7.60379,10.36259 -8.32379,10.94278 -17.11373,21.75392 -32.31776,38.95249 -68.52321,74.39904 -105.07504,109.31751 -19.83936,18.57956 -40.04489,36.81136 -61.12581,53.98273 -9.63743,7.85012 -22.56212,18.10453 -33.45612,24.60375 -4.557692,2.71907 -9.479062,4.77608 -14.218587,7.16411 -46.961897,24.63901 -12.11708,91.05315 34.844817,66.41415 v 0 c 7.27047,-3.91312 14.76499,-7.43583 21.81139,-11.73937 12.71011,-7.76261 27.88151,-19.73313 39.33741,-29.08165 22.27919,-18.18081 43.64646,-37.46454 64.62317,-57.12128 38.83683,-37.12499 77.25476,-74.85934 111.52915,-116.32169 3.85792,-4.77448 7.79391,-9.48692 11.57376,-14.32343 8.52164,-10.90386 16.2531,-22.36241 23.74185,-33.98635 26.35633,-46.02004 -38.72584,-83.29352 -65.08216,-37.27348 z"/>
<path d="m 228.11734,420.43014 c 3.62048,21.5202 5.68954,43.27868 7.85043,64.9833 4.5663,45.98032 6.10776,92.17525 6.53635,138.35587 0.13331,30.42563 -1.7155,60.82991 -5.26986,91.04251 -1.98238,16.85051 -3.07972,22.82488 -5.67445,39.3273 -3.98729,23.641 -8.83932,47.14021 -14.84123,70.35316 0.20984,0.67016 -4.9239,15.33533 -1.46641,5.81384 -21.01193,48.6929 47.85024,78.40826 68.86217,29.71535 v 0 c 2.07557,-5.49968 3.77409,-11.1073 5.22987,-16.80705 6.57451,-25.56776 11.97094,-51.42883 16.31223,-77.46969 2.84686,-18.2402 4.01081,-24.57829 6.18119,-43.22985 3.84092,-33.00781 5.80985,-66.22339 5.66311,-99.45794 -0.47004,-48.42797 -2.09945,-96.86989 -6.90322,-145.08666 -2.3691,-23.7144 -4.65653,-47.4846 -8.69522,-70.98558 -9.50737,-52.17385 -83.29233,-38.7284 -73.78496,13.44544 z"/>
<path d="m 509.04202,240.2203 c 2.24483,-0.34527 4.49505,-0.65714 6.73449,-1.03581 13.23939,-2.23867 26.4028,-4.91238 39.63112,-7.21637 18.58166,-3.23639 19.50226,-3.27215 38.66276,-6.20291 35.3533,-5.04992 70.91958,-8.45241 106.57754,-10.31632 7.49796,-0.41387 15.004,-0.40275 22.50767,-0.26747 53.02615,0.85271 54.23206,-74.1376 1.2059,-74.99031 v 0 c -9.2197,-0.13483 -18.44199,-0.14654 -27.65388,0.36136 -38.13887,2.01834 -76.18323,5.63548 -113.99288,11.0774 -27.83425,4.26921 -55.54911,9.15919 -83.2495,14.20438 -52.59888,6.7718 -43.0221,81.15786 9.57678,74.38605 z"/>
<path d="m 572.48404,114.01716 c 0.26522,26.68271 1.65892,53.3366 2.86787,79.98825 0.99436,26.31974 1.80843,52.70334 0.33562,79.02409 -0.87228,15.58857 -1.42787,18.1074 -3.28819,33.1039 -0.7344,4.48901 -1.46881,8.97803 -2.20322,13.46705 -8.4524,52.3551 65.5889,64.30861 74.0413,11.9535 v 0 c 0.87133,-5.4571 1.74266,-10.9142 2.61399,-16.3713 2.15361,-18.02365 2.79456,-20.98146 3.78962,-39.51246 1.52147,-28.33461 0.72873,-56.73138 -0.36616,-85.06339 -1.15762,-25.51979 -2.49797,-51.04085 -2.79083,-76.58964 0,-53.03301 -75,-53.03301 -75,0 z"/>
<path d="m 410.16676,417.70589 c 13.83988,-2.08358 27.67343,-4.19309 41.53761,-6.11045 41.75517,-5.47048 83.59599,-10.25635 125.53811,-14.03051 34.3009,-2.81882 68.73706,-3.75762 103.14229,-2.9995 19.88616,0.43819 27.43883,1.01824 47.02315,2.10951 23.6047,1.63751 47.18144,4.15316 70.46514,8.4294 8.95224,1.64415 13.6595,2.79576 22.33108,4.75979 6.9861,1.59182 13.87061,3.57028 20.7378,5.60179 50.87323,14.98048 72.05882,-56.96513 21.18559,-71.94561 v 0 c -8.4232,-2.47123 -16.86679,-4.87961 -25.43226,-6.82067 -10.57134,-2.37291 -15.45745,-3.57366 -26.45279,-5.56825 -26.00812,-4.71795 -52.32906,-7.54626 -78.68928,-9.3418 -21.11061,-1.16133 -28.98697,-1.76652 -50.45723,-2.22079 -36.89095,-0.78054 -73.81358,0.26321 -110.5904,3.29931 -8.75548,0.79137 -17.51753,1.51306 -26.26644,2.3741 -34.34414,3.38006 -68.59057,7.74775 -102.82616,12.06267 -14.22642,1.97386 -28.42413,4.12638 -42.62578,6.26934 -52.41901,8.04656 -41.03945,82.17824 11.37957,74.13167 z"/>
<path d="m 474.65834,577.843 c 23.39976,-5.7758 47.1551,-9.91566 70.92357,-13.82553 39.66385,-5.97965 79.64071,-10.6802 119.78741,-11.4369 8.21855,-0.15491 16.43996,0.0431 24.65994,0.0646 31.82718,0.89544 63.6573,4.57001 94.44636,12.87241 3.68758,0.99438 7.31618,2.19586 10.97427,3.29378 2.66729,0.95481 5.33457,1.90961 8.00186,2.86441 50.03005,17.59246 74.90954,-53.16071 24.87949,-70.75317 v 0 c -3.86808,-1.34328 -7.73616,-2.68655 -11.60424,-4.02983 -14.03315,-4.10627 -16.96518,-5.21731 -31.91301,-8.44092 -31.12515,-6.71237 -62.86584,-10.09581 -94.68839,-10.80662 -9.2672,-9.3e-4 -18.53638,-0.19415 -27.80161,-0.003 -43.21472,0.89251 -86.25092,5.8988 -128.9451,12.37446 -25.76368,4.25824 -51.51183,8.76743 -76.87252,15.0559 -51.45632,12.83538 -33.30435,85.60561 18.15197,72.77022 z"/>
<path d="m 681.9557,394.80717 c 2.50499,12.6624 4.30755,25.49787 6.2573,38.2651 4.06645,28.38064 8.4069,56.74468 11.54012,85.24933 0.72904,6.63244 1.3151,13.27982 1.97264,19.91973 2.75747,34.30636 3.18118,68.80263 1.61894,103.18098 -0.30509,6.7137 -0.77098,13.41913 -1.15647,20.1287 -1.82763,25.49318 -4.34751,50.95183 -8.13541,76.23373 -2.30503,15.3846 -3.04652,18.55729 -5.88507,33.60088 -4.86464,24.02767 -11.96999,47.52123 -20.95558,70.31196 -2.31466,5.77317 -4.9052,11.43757 -7.81935,16.93327 -1.40939,2.65792 -2.8541,5.35587 -4.71111,7.73094 0.16644,-1.35191 0.0585,-1.05152 2.11938,-2.83138 4.50523,-3.89085 5.36129,-3.87666 11.03751,-5.95019 0.82566,-0.30161 2.83381,0.0465 2.52068,-0.77482 -0.43156,-1.13202 -2.23454,-0.93687 -3.35181,-1.4053 -18.35196,-6.19037 -34.84312,-16.36798 -51.33104,-26.29389 -6.39347,-3.84895 -12.77971,-7.70991 -19.16957,-11.56486 -45.40975,-27.39443 -84.15133,36.82465 -38.74158,64.21908 v 0 c 28.52703,17.20898 56.76397,35.6838 88.79854,45.79961 11.39133,2.87156 18.02933,5.54027 30.05767,4.50414 17.23971,-1.48503 29.56301,-9.66654 39.72337,-23.00982 1.24391,-1.8486 2.54021,-3.66301 3.73173,-5.54581 6.85309,-10.82907 12.0382,-22.65085 16.96301,-34.44073 10.61085,-27.19674 19.1537,-55.1657 24.83774,-83.82956 3.13268,-16.72901 3.93906,-20.19222 6.47787,-37.24795 4.05695,-27.25452 6.77147,-54.69606 8.71181,-82.17698 0.41227,-7.30522 0.91248,-14.60601 1.23682,-21.91566 1.67192,-37.68044 1.15253,-75.48595 -1.94637,-113.07984 -0.71663,-7.17531 -1.3593,-14.35838 -2.1499,-21.52591 -3.22859,-29.27042 -7.67031,-58.39925 -11.85422,-87.54256 -2.50527,-16.40326 -4.61329,-32.94652 -8.72809,-49.04365 -15.62809,-50.67803 -87.29765,-28.57658 -71.66956,22.10146 z"/>
<path d="m 496.29354,682.17999 c 7.21082,3.95548 14.02164,8.64958 20.82414,13.26085 2.90298,1.96787 5.83673,3.89458 8.65999,5.97523 2.5198,1.85701 4.90699,3.88755 7.36049,5.83132 8.11909,7.62475 4.26932,3.76161 11.57967,11.5591 36.67733,38.305 90.84879,-13.56458 54.17146,-51.86958 v 0 c -12.25819,-12.63816 -5.7509,-6.34541 -19.59368,-18.80373 -3.65193,-2.82345 -7.23345,-5.74039 -10.95578,-8.47035 -3.16883,-2.32402 -6.45615,-4.48232 -9.70991,-6.68585 -9.65356,-6.53764 -19.36499,-13.10454 -29.78932,-18.36687 -47.77913,-23.01425 -80.32618,44.55564 -32.54706,67.56988 z"/>
</svg>
