<?xml version="1.0" ?>
<svg xmlns="http://www.w3.org/2000/svg" viewBox="0 0 1000 1000">
<path d="m 295.7789,109.54776 c -0.13962,0.0278 -0.33436,-0.0312 -0.41886,0.0834 -14.69185,19.91909 11.52323,-13.929902 -10.65534,14.95625 -6.26896,8.16492 -17.59185,22.10919 -23.80694,29.33104 -5.6259,6.53721 -11.46182,12.89069 -17.19273,19.33604 -28.4064,30.95376 -57.42059,61.3869 -87.40587,90.82126 -17.02724,16.71441 -22.50611,21.50905 -39.77774,37.40413 -39.011787,35.92465 11.79333,91.09565 50.80512,55.17101 v 0 c 18.4851,-17.03219 23.83344,-21.69774 42.06774,-39.60431 31.01965,-30.46211 61.03312,-61.95875 90.40362,-94.00664 17.78422,-20.07013 17.98886,-19.80328 33.75387,-39.31381 9.11235,-11.27731 18.34157,-22.81901 25.94175,-35.21186 1.74145,-2.8396 3.27267,-5.80289 4.909,-8.70433 21.39859,-48.524228 -47.22503,-78.786402 -68.62362,-30.26218 z"/>
<path d="m 372.761,219.95044 c -1.01031,1.19803 -2.04233,2.37807 -3.03093,3.59407 -5.06552,6.23071 -3.55532,4.82502 -9.4449,11.46561 -11.75076,13.24918 -24.18638,25.77793 -36.70899,38.29122 -6.38496,6.02767 -12.74183,12.08525 -19.1549,18.08301 -17.61002,16.4696 -27.27694,25.43683 -45.64661,41.43419 -24.66996,21.48401 -49.95758,42.25995 -75.19553,63.06812 -25.80836,21.20822 -52.09301,41.8255 -78.31365,62.51859 -41.630401,32.85437 4.8327,91.72865 46.4631,58.87428 v 0 c 26.64084,-21.02477 53.3439,-41.97603 79.56359,-63.52694 25.96411,-21.41023 51.97324,-42.79263 77.34387,-64.90867 18.59728,-16.2116 29.51027,-26.28898 47.3021,-42.95257 6.93048,-6.491 13.79488,-13.05219 20.69232,-19.57829 17.97825,-18.01796 36.12287,-36.03587 51.82192,-56.12847 35.5209,-39.37976 -20.17049,-89.61391 -55.69139,-50.23415 z"/>
<path d="m 233.11898,412.78324 c 5.57455,17.34772 7.74003,35.47055 9.91709,53.48187 4.98099,46.77919 4.07103,93.91 2.61474,140.84785 -1.20771,35.87422 -4.52656,71.63799 -10.11241,107.09354 -2.5515,16.19537 -5.35961,30.78342 -8.33822,46.86255 -4.63426,24.13228 -9.71094,48.18523 -15.40876,72.08949 -12.27972,51.59174 60.68203,68.95789 72.96175,17.36615 v 0 c 5.97595,-25.13995 11.34036,-50.42614 16.19453,-75.80637 3.20269,-17.31911 6.09809,-32.34835 8.8274,-49.83879 5.96568,-38.23038 9.54041,-76.78603 10.8402,-115.4592 1.55031,-50.75478 2.40889,-101.7129 -3.13643,-152.28043 -0.771,-6.21616 -1.43108,-12.44708 -2.31299,-18.64847 -2.50942,-17.64572 -6.08061,-35.20288 -11.84156,-52.09398 -18.65757,-49.64267 -88.86291,-23.25688 -70.20534,26.38579 z"/>
<path d="m 529.7058,195.74207 c 18.07025,-6.48687 36.7,-11.22194 55.34046,-15.73268 28.92474,-6.80188 58.39568,-10.75309 88.00164,-12.91656 5.65423,-0.0864 11.40204,-0.78607 17.06053,-0.17517 0.0661,0.007 0.0788,0.20572 0.0127,0.199 -1.1689,-0.11887 -2.3856,-0.12769 -3.48133,-0.55174 -3.18657,-1.23321 -6.1779,-2.92123 -9.26686,-4.38184 -9.60489,-10.66009 -10.54021,-8.79058 -13.50702,-22.30638 -2.17723,-9.91873 0.52495,-2.99294 0.27136,-9.0062 -0.008,-0.17876 -0.36838,0.1024 -0.47835,0.24354 -0.74064,0.95057 -1.35862,1.99064 -2.03793,2.98595 -12.79948,18.40211 -23.79694,37.97934 -35.19842,57.25868 -13.95042,23.87855 -29.08941,47.10168 -46.23488,68.82703 -13.54355,17.1613 -18.93175,22.56648 -33.74418,38.97188 -24.3567,25.32466 -50.13845,49.34627 -77.91505,70.89877 -14.21949,11.03323 -18.03529,13.30649 -32.2373,22.90729 -43.87984,29.78354 -1.75956,91.83901 42.12029,62.05547 v 0 c 16.50178,-11.23905 20.91817,-13.89012 37.34126,-26.69724 30.81026,-24.02659 59.45678,-50.73123 86.42374,-78.97625 17.00568,-18.92918 22.49757,-24.39782 38.09482,-44.27157 18.74638,-23.88632 35.37855,-49.35161 50.70749,-75.53817 10.93738,-18.49481 21.4589,-37.28935 33.76167,-54.92742 5.34721,-8.54057 10.80326,-17.17175 12.75652,-27.27037 0.82915,-4.28681 1.60207,-8.70336 1.16066,-13.04725 -0.59149,-5.82069 -1.59291,-11.8089 -4.2178,-17.03769 -2.83866,-5.65462 -7.86621,-9.91231 -11.79931,-14.86846 -4.33179,-2.401442 -8.45144,-5.233518 -12.99536,-7.204324 -2.82773,-1.226454 -5.92602,-1.730193 -8.9523,-2.314892 -10.90742,-2.107392 -22.21181,-0.839501 -33.19585,-0.566942 -33.69605,2.533357 -67.2437,7.023856 -100.15748,14.831018 -21.53852,5.25146 -43.06206,10.77074 -63.91631,18.36849 -49.67003,18.5846 -23.38743,88.82864 26.28261,70.24403 z"/>
<path d="m 504.88997,314.64158 c -0.14502,-0.0293 -2.29551,-0.46806 -2.27697,-0.44569 0.74686,0.90123 1.89027,1.38148 2.81456,2.09959 2.03519,1.58122 4.07167,3.16183 6.06312,4.7978 6.03185,4.95517 16.54938,14.02473 22.00835,18.69863 32.98355,28.83932 67.08837,56.34216 101.84767,83.00134 24.96937,18.80494 50.66952,36.6217 77.29768,52.99303 18.34254,10.91704 37.61488,20.14232 57.09643,28.81493 20.51337,8.38997 40.25283,18.50433 60.13245,28.26237 47.60709,23.36804 80.6545,-43.95854 33.04741,-67.32659 v 0 c -20.7408,-10.18059 -41.35202,-20.69615 -62.7397,-29.48064 -16.46641,-7.29183 -32.75115,-15.06246 -48.29564,-24.18523 -24.44451,-14.98371 -47.97563,-31.38939 -70.9055,-48.59776 -33.70064,-25.82798 -66.74315,-52.50352 -98.71066,-80.45928 -5.97581,-5.11364 -18.45229,-15.88668 -24.88077,-21.03689 -10.0583,-8.05828 -20.66464,-15.96989 -33.21413,-19.61399 -51.24995,-13.63606 -70.53425,58.84232 -19.2843,72.47838 z"/>
<path d="m 471.88122,618.30493 c 18.29553,-4.10626 36.86133,-7.07518 55.53094,-8.8754 6.71607,-0.64759 13.45597,-1.01827 20.18396,-1.52741 27.34311,-1.38471 54.76294,-1.06522 82.07432,0.80503 11.14028,0.76287 18.69673,1.58816 29.59215,2.67069 13.11505,1.45814 7.00567,0.74679 18.33094,2.1099 52.65425,6.32695 61.6019,-68.1374 8.94765,-74.46435 v 0 c -12.29813,-1.47548 -5.66811,-0.70637 -19.89308,-2.28103 -12.30201,-1.21281 -20.17135,-2.07389 -32.83224,-2.92056 -30.61903,-2.04758 -61.35815,-2.35861 -92.00471,-0.69624 -7.78723,0.61381 -15.58825,1.07242 -23.36168,1.84143 -12.53725,1.24029 -27.09201,3.30172 -39.57874,5.45067 -7.74403,1.33274 -18.10823,3.37282 -25.94315,5.48757 -2.98079,0.80456 -5.89803,1.82835 -8.84704,2.74253 -49.25506,19.65805 -21.45438,89.31523 27.80068,69.65717 z"/>
<path d="m 541.66296,494.15524 c -0.14434,21.34455 -0.81175,42.68488 -1.55616,64.01582 -2.60671,48.4158 -7.38007,96.68627 -11.49143,144.99111 -3.27238,34.05545 -1.43552,17.17749 -5.49173,50.63593 -6.35894,52.6504 68.09996,61.64329 74.4589,8.9929 v 0 c 4.27892,-35.55301 2.36014,-17.79665 5.76264,-53.2684 4.21755,-49.55295 9.12579,-99.07085 11.71624,-148.7431 0.77049,-22.20017 1.46622,-44.40984 1.60154,-66.62426 0,-53.033 -75,-53.033 -75,0 z"/>
<path d="m 381.15048,824.90394 c 18.68247,-3.8939 37.69502,-5.86803 56.64068,-7.96877 39.86374,-3.90235 79.84125,-6.7581 119.87091,-8.23857 9.03472,-0.33414 18.07402,-0.5305 27.11102,-0.79575 51.23245,-1.28185 102.43736,1.21053 153.48606,5.3424 23.83058,2.44569 47.77189,4.52279 71.34211,8.95782 9.13088,1.71809 11.62029,2.5139 20.06911,4.73799 51.34094,13.2894 70.135,-59.31765 18.79406,-72.60705 v 0 c -11.55393,-2.95369 -14.27511,-3.83561 -26.60856,-6.123 -25.63694,-4.75467 -51.64779,-7.12039 -77.56445,-9.72278 -8.02415,-0.6456 -16.04286,-1.36284 -24.07245,-1.93679 -45.80022,-3.27375 -91.74897,-4.54953 -137.65853,-3.61595 -9.4205,0.27952 -18.84341,0.48742 -28.26151,0.83856 -41.67386,1.55373 -83.2939,4.53221 -124.79297,8.62215 -21.08899,2.3493 -42.23763,4.62147 -63.03295,8.95994 -52.00755,10.37854 -37.33008,83.92833 14.67747,73.5498 z"/>
</svg>
