<?xml version="1.0" ?>
<svg xmlns="http://www.w3.org/2000/svg" viewBox="0 0 1000 1000">
<path d="m 297.03868,87.079112 c -12.82776,18.326868 -25.9017,36.482818 -39.80975,54.014678 -5.25011,6.61803 -10.66511,13.10357 -15.99766,19.65535 -39.19678,46.47187 -80.07204,91.47653 -121.53008,135.92871 -36.170249,38.78419 18.67888,89.93664 54.84912,51.15245 v 0 c 42.61374,-45.69532 84.62482,-91.96407 124.8749,-139.76874 5.75112,-7.08105 11.58828,-14.09308 17.25335,-21.24316 13.74387,-17.34658 26.84922,-35.20733 39.37272,-53.452 32.73005,-41.72821 -26.28255,-88.015498 -59.0126,-46.287288 z"/>
<path d="m 368.3013,194.46532 c -8.34032,15.88174 -19.48994,30.00951 -30.35268,44.201 -34.74956,43.37167 -71.99727,84.65892 -109.29283,125.83401 -26.86035,29.18875 -53.51656,58.62633 -81.96024,86.30072 -13.08347,12.72962 -18.46092,17.37999 -31.54138,29.18308 -3.90064,3.37957 -7.80127,6.75915 -11.70191,10.13873 -40.06431,34.74696 9.07531,91.40644 49.13962,56.65948 v 0 c 4.27833,-3.71387 8.55666,-7.42775 12.83499,-11.14162 14.38065,-13.00174 19.87114,-17.74412 34.28034,-31.78532 29.31444,-28.56577 56.84818,-58.88674 84.53686,-89.00685 38.69954,-42.72934 77.34306,-85.58487 113.31313,-130.66501 13.67278,-17.94345 27.50892,-35.94058 37.79579,-56.11659 23.75995,-47.41271 -43.29175,-81.01434 -67.05169,-33.60163 z"/>
<path d="m 267.91262,372.69917 c 1.85377,18.04286 4.38089,36.00613 5.56176,54.11748 0.40474,6.2076 0.6337,12.42541 0.95055,18.63811 1.31058,52.44272 -0.80527,104.89532 -1.76147,157.32847 -0.87568,48.53939 -0.29825,97.08627 -0.72903,145.62943 -0.19857,26.90747 -1.72486,53.77508 -4.28507,80.55426 -0.29427,2.7501 -0.57262,5.50195 -0.88283,8.25029 -0.29629,2.62509 -1.21549,10.05138 -1.56034,12.88482 -0.14157,1.16317 -0.68871,6.05878 -1.01853,7.82709 -0.059,0.31621 0.0439,-0.64182 0.0659,-0.96273 -12.32889,51.58002 60.61627,69.0157 72.94516,17.43568 v 0 c 2.6617,-12.62149 3.59422,-25.52578 5.1125,-38.32084 2.74783,-28.92498 4.40845,-57.94329 4.62032,-87.00543 0.42563,-48.30881 -0.13652,-96.62109 0.71951,-144.92619 0.98648,-54.18445 3.19944,-108.39208 1.67297,-162.58493 -0.368,-6.97339 -0.63869,-13.95261 -1.104,-20.92018 -1.20023,-17.97193 -3.54497,-35.81891 -5.52926,-53.71035 -4.07649,-52.8761 -78.85459,-47.11109 -74.7781,5.76502 z"/>
<path d="m 594.20986,55.020961 c -0.49777,1.021165 -0.94764,2.067108 -1.49333,3.063495 -1.84462,3.368171 -3.96757,6.576395 -5.92084,9.882746 -7.69254,13.02137 -15.66003,25.816999 -23.78648,38.573698 -16.06528,25.28009 -32.63349,50.25183 -50.14276,74.5592 -11.83366,16.42817 -14.7926,20.03531 -26.95769,35.87386 -16.19244,21.05262 -33.37763,41.32159 -51.53164,60.70394 -13.24233,13.52694 -22.56078,26.56204 -13.98689,49.99602 7.01582,19.17551 21.42289,21.05428 36.27115,25.14937 29.30763,5.97907 59.06635,9.3417 88.79529,12.39575 16.8711,1.71048 33.7557,3.1888 50.69383,4.00098 52.97578,2.46314 56.45919,-72.45592 3.48342,-74.91906 v 0 c -15.54945,-0.69458 -31.03904,-2.1713 -46.52766,-3.69079 -26.61017,-2.72264 -53.24093,-5.70094 -79.51024,-10.84999 -7.58835,5.61114 9.42986,-7.27008 16.06598,19.16618 2.69678,10.74315 -1.78548,22.10992 -3.65026,33.02828 -0.21832,1.27827 -1.71021,1.95221 -2.49986,2.98085 -1.67187,2.1779 11.94318,-14.24683 5.62877,-6.01351 19.80319,-21.18091 38.5933,-43.2893 56.26476,-66.28459 4.7432,-6.18442 9.55148,-12.31948 14.22962,-18.55326 23.59915,-31.44662 45.57106,-64.08069 66.64088,-97.26513 12.14571,-19.08888 24.31519,-38.23688 34.98601,-58.197126 23.75943,-47.412965 -43.29263,-81.0138789 -67.05206,-33.600913 z"/>
<path d="m 607.08528,259.20171 c -1.11721,-0.75238 0.81713,-3.91968 -0.5782,-4.30002 -0.80195,-0.21859 -0.419,1.60932 -0.66435,2.4035 -0.5419,1.75405 -1.05211,3.52073 -1.69692,5.23961 -3.0984,8.25944 -5.41496,12.76849 -9.32777,21.24997 -17.31725,34.71731 -40.11436,66.39105 -64.84642,96.17251 -5.88156,7.08236 -12.02404,13.94392 -18.03607,20.91588 -27.93559,31.66778 -58.81661,60.53497 -89.77617,89.18939 -2.5249,2.31624 -9.7857,8.99259 -12.81223,11.71939 -0.31274,0.28178 -5.88272,5.17268 -6.43314,5.77792 -2.21304,2.43347 -7.37696,4.41155 -6.36441,7.5411 6.67988,20.64599 18.56202,39.22961 27.84304,58.84442 6.13211,-0.75828 12.31407,-1.18677 18.39633,-2.27486 2.88944,-0.5169 5.62676,-1.67453 8.43606,-2.52534 3.72854,-1.1292 7.45082,-2.27897 11.1774,-3.41465 16.46595,-5.018 32.92193,-10.05779 49.35552,-15.18134 34.19934,-10.69067 68.70577,-20.60898 103.93583,-27.31968 6.35333,-1.21019 12.74893,-2.18685 19.12339,-3.28027 6.16127,-0.73714 12.32254,-1.47428 18.48381,-2.21142 52.64176,-6.43005 43.5483,-80.87673 -9.09346,-74.44669 v 0 c -7.38604,0.91763 -14.77209,1.83525 -22.15814,2.75288 -7.23678,1.25804 -14.49697,2.38811 -21.71033,3.77411 -37.57702,7.22019 -74.41672,17.71594 -110.9064,29.13093 -16.29659,5.0819 -32.61623,10.07804 -48.94512,15.05466 -3.61644,1.1022 -7.22984,2.21432 -10.84689,3.3145 -2.27487,0.69193 -8.81341,0.75217 -6.82883,2.06184 2.78648,1.83885 6.67702,0.0274 10.01553,0.0411 8.42018,19.51737 18.65805,38.34731 25.26054,58.55213 0.6907,2.11366 -3.11325,3.18359 -4.52534,4.90133 -0.58291,0.70908 1.34474,-1.24993 2.02777,-1.86316 5.86904,-5.26933 11.75395,-10.52093 17.51587,-15.90874 33.03644,-30.58222 65.92827,-61.45146 95.67498,-95.30538 6.61021,-7.69397 13.36687,-15.26451 19.83065,-23.0819 28.57511,-34.5592 54.67552,-71.44402 74.44083,-111.8013 8.95062,-19.78959 18.55989,-39.96409 18.58078,-62.15342 0.002,-1.98447 -0.38205,-3.95051 -0.57307,-5.92577 -8.73752,-52.30828 -82.71259,-39.95155 -73.97507,12.35673 z"/>
<path d="m 798.8424,456.11644 c 9.59526,7.93103 18.87427,16.20644 27.69542,24.98965 1.53142,1.65179 3.10398,3.26637 4.59426,4.95536 3.24113,3.67331 6.29232,7.60245 9.08528,11.62827 0.49381,0.71178 1.9239,2.88035 1.40751,2.18478 -0.65819,-0.88657 -1.22241,-1.83916 -1.83362,-2.75874 -3.25822,-27.38437 -5.88384,-15.362 4.62944,-36.62582 -40.5554,34.17251 7.77182,91.5265 48.32721,57.35399 v 0 c 22.2562,-30.15378 16.98808,-13.24644 15.78158,-50.72912 -1.48886,-2.93046 -2.84246,-5.93367 -4.46658,-8.79139 -1.26893,-2.23275 -5.78619,-8.33966 -7.24918,-10.25167 -5.42845,-7.09453 -11.2133,-13.92135 -17.51024,-20.26467 -11.50591,-11.34202 -23.48549,-22.20218 -36.17316,-32.21815 -42.79941,-31.3163 -87.08734,29.21121 -44.28792,60.52751 z"/>
<path d="m 623.10245,459.24774 c -23.56533,18.66193 -44.3988,40.48902 -65.33337,61.97646 -18.5937,19.3422 -36.85416,38.9998 -55.35152,58.43353 -9.15853,9.62215 -24.68087,25.93803 -34.40859,35.38248 -5.19028,5.03913 -10.59829,9.84903 -15.89744,14.77354 -38.79626,36.1573 12.33789,91.02349 51.13414,54.86619 v 0 c 6.02991,-5.63392 12.1729,-11.1492 18.08972,-16.90177 5.92823,-5.76367 11.67455,-11.71213 17.43845,-17.64013 24.54294,-25.24167 48.30315,-51.23095 72.72568,-76.58755 18.36668,-18.86778 36.58293,-38.0954 57.09731,-54.67673 42.16196,-32.16939 -3.33242,-91.7954 -45.49438,-59.62602 z"/>
<path d="m 565.79798,640.76789 c 14.23844,-6.40543 29.04944,-11.33838 43.92305,-16.01842 24.35513,-7.12606 49.33672,-11.87342 74.40722,-15.64865 6.19358,-0.85759 12.40648,-1.5837 18.63951,-2.08467 1.08936,-0.0876 2.17922,-0.1731 3.27079,-0.22621 0.39347,-0.0191 1.57564,0.0159 1.18176,0.01 -1.32311,-0.0215 -2.64631,-0.0366 -3.96946,-0.0548 -3.33025,-0.92398 -7.24078,-0.67862 -9.99075,-2.77194 -6.82394,-5.19451 -14.1069,-10.783 -17.91246,-18.46849 -3.22226,-6.50751 -1.74847,-14.43699 -1.97495,-21.69504 -0.0452,-1.44961 2.462,-3.53812 1.16719,-4.19146 -1.2801,-0.64592 -1.59392,2.38392 -2.40175,3.56852 -1.68503,2.47093 -3.3845,4.93197 -5.07674,7.39796 -17.20349,24.02681 -35.07292,47.59522 -54.06594,70.24163 -5.09427,6.07418 -10.31274,12.04311 -15.46911,18.06467 -29.8242,34.24134 -62.13501,66.24245 -96.57547,95.83156 -7.24116,6.22115 -14.67236,12.21762 -22.00854,18.32644 -19.52521,15.92266 -40.12863,30.4131 -60.7773,44.81479 -43.48498,30.35715 -0.55347,91.85419 42.9315,61.49704 v 0 c 22.38886,-15.64322 44.72173,-31.3922 65.87305,-48.70642 7.91424,-6.6059 15.93037,-13.09161 23.74273,-19.81769 37.01508,-31.8683 71.73214,-66.3378 103.79909,-103.18403 5.49997,-6.43192 11.06694,-12.80715 16.49992,-19.29575 20.36456,-24.32138 39.54672,-49.61638 57.96054,-75.43912 2.08447,-3.05731 9.36894,-13.50257 11.30845,-17.19981 2.00675,-3.82541 4.82317,-7.51677 5.34777,-11.80462 1.06701,-8.72134 2.68188,-18.23246 -0.6797,-26.35035 -8.27446,-19.98204 -16.3645,-20.23793 -31.61712,-25.13737 -2.66744,-0.20061 -5.32902,-0.50731 -8.00232,-0.60183 -2.02733,-0.0717 -7.27568,0.32799 -9.27659,0.49406 -7.74666,0.64296 -15.46977,1.54663 -23.16674,2.63085 -28.91176,4.4088 -57.71856,9.91512 -85.77242,18.28978 -17.71063,5.62147 -35.3438,11.55258 -52.29282,19.22622 -48.29797,21.90447 -17.32036,90.20812 30.97761,68.30364 z"/>
<path d="m 514.75082,669.56244 c 11.42996,20.94829 26.80772,39.32639 42.26222,57.36893 17.06572,19.18723 35.11613,37.53471 54.52934,54.36134 12.02473,10.42258 15.84022,13.08587 28.20211,22.6022 18.05014,13.46974 37.01897,25.62618 55.72317,38.15023 14.83023,9.86158 28.93514,20.74773 43.37175,31.16476 28.59692,19.84651 60.18953,35.58128 93.48861,45.87243 8.06326,2.49197 16.31005,4.34587 24.46507,6.51881 51.31336,13.39549 70.25745,-59.17256 18.94409,-72.56805 v 0 c -6.18087,-1.56949 -12.43393,-2.87805 -18.54261,-4.70847 -26.51198,-7.94414 -51.73191,-20.25657 -74.48848,-35.94822 -15.14879,-10.91583 -29.93403,-22.34587 -45.51392,-32.65352 -17.36439,-11.62392 -34.97333,-22.90614 -51.78786,-35.3274 -10.24175,-7.8301 -13.74655,-10.28239 -23.69964,-18.85888 -17.02852,-14.67334 -32.82758,-30.72022 -47.79729,-47.47274 -11.52791,-13.37797 -23.01527,-26.89316 -32.10471,-42.10276 -23.75973,-47.41281 -90.81158,-13.81148 -67.05185,33.60134 z"/>
</svg>
