<?xml version="1.0" ?>
<svg xmlns="http://www.w3.org/2000/svg" width="1000" height="1000">
<path d="m 297.84124,97.634221 c -16.14457,20.612029 -34.06568,39.699789 -52.06022,58.683629 -26.9524,28.08393 -54.23545,55.84911 -81.48244,83.64676 -7.05357,7.19612 -14.02542,14.47397 -21.18867,21.56092 -6.66309,6.5921 -13.52396,12.98124 -20.28594,19.47186 -38.239742,36.74537 13.72606,90.82453 51.9658,54.07916 v 0 c 7.27104,-6.99401 14.64144,-13.88617 21.81313,-20.98202 7.20864,-7.13241 14.22503,-14.45656 21.32357,-21.69855 27.52468,-28.08088 55.08603,-56.12876 82.30756,-84.50421 20.8706,-22.05221 41.79393,-44.20996 59.96781,-68.59035 29.46316,-44.095598 -32.89744,-85.762801 -62.3606,-41.667199 z"/>
<path d="m 352.37633,269.22294 c -0.44541,0.77779 -0.8183,1.60187 -1.33623,2.33338 -0.58362,0.82429 -1.32011,1.52938 -1.95492,2.31493 -1.9845,2.45574 -3.89019,4.97513 -5.90243,7.40819 -12.00409,14.51451 -24.95405,28.15284 -37.79608,41.91979 -6.2419,6.43082 -12.426,12.91825 -18.7257,19.29247 -7.05896,7.14245 -14.23793,14.16529 -21.34881,21.25606 -20.09687,20.04002 -28.18221,28.43115 -49.01376,48.11826 -16.15685,15.26921 -37.65907,34.68217 -54.11256,49.64644 -30.32003,27.30084 -61.24711,53.91309 -92.314058,80.35646 -40.383576,34.37538 8.230552,91.48639 48.614128,57.11101 v 0 c 31.69121,-26.97775 63.23927,-54.12835 94.16472,-81.98499 17.59272,-16.00296 38.5143,-34.882 55.76327,-51.19402 21.1427,-19.99424 29.5676,-28.70758 49.82545,-48.91455 7.41368,-7.39506 14.8964,-14.72133 22.25346,-22.17271 6.64347,-6.72865 13.16438,-13.57722 19.74657,-20.36582 10.29093,-11.04006 20.90555,-22.23817 30.86163,-33.60512 8.98795,-10.26165 17.78833,-20.84114 25.23824,-32.29438 0.88213,-1.35615 1.58251,-2.82222 2.37376,-4.23333 24.74313,-46.90712 -41.59355,-81.89919 -66.33668,-34.99207 z"/>
<path d="m 226.51213,461.41114 c 0.88732,3.33769 1.17108,4.12811 1.74843,8.15555 3.11516,21.73052 3.32162,43.74946 3.69487,65.64929 0.27788,61.3617 -1.33759,122.71202 -3.9113,184.01399 -1.87822,49.25227 -6.60343,98.31632 -11.68075,147.32065 -0.57851,5.1086 -1.15702,10.2172 -1.73554,15.3258 -5.96178,52.69684 68.56281,61.12807 74.52459,8.43123 v 0 c 0.60393,-5.34312 1.20785,-10.68623 1.81178,-16.02935 5.2331,-50.52954 10.07386,-101.12277 12.01411,-151.9071 2.62842,-62.79519 4.28673,-125.6402 3.96512,-188.49637 -0.37086,-19.89014 -0.23524,-26.73811 -1.54089,-45.98211 -1.01099,-14.90093 -2.46455,-29.8474 -6.05728,-44.37621 -0.55802,-2.25662 -1.31749,-4.45859 -1.97624,-6.68788 -17.38246,-50.1034 -88.23936,-25.52088 -70.8569,24.58251 z"/>
<path d="m 572.59617,71.223982 c -6.14807,18.47203 -12.99465,36.672978 -21.43294,54.238338 -3.51657,7.32019 -7.32796,14.49506 -10.99194,21.74259 -30.71013,57.83839 -69.76651,110.67581 -108.78408,163.07807 -28.1054,36.88676 -56.0253,73.94071 -85.00818,110.14844 -61.1754,76.42521 22.38134,-28.93242 -36.74209,45.76629 -32.90829,41.58779 25.90573,88.12714 58.81402,46.53935 v 0 c 55.65953,-70.35763 -24.2286,30.42381 36.82854,-45.87575 29.40966,-36.75154 57.75203,-74.35268 86.26932,-111.79462 41.59331,-55.88934 83.08692,-112.33003 115.60982,-174.13206 4.15539,-8.28176 8.48501,-16.47837 12.46616,-24.84529 7.96732,-16.7444 14.67492,-33.88926 20.71848,-51.39826 1.16993,-3.38943 2.39143,-6.762616 3.45939,-10.185537 0.82969,-2.659225 1.48752,-5.369053 2.23128,-8.053579 10.76781,-51.928357 -62.66997,-67.156339 -73.43778,-15.227982 z"/>
<path d="m 584.88364,135.79484 c 2.4208,3.21063 6.78652,8.98642 8.89662,11.86347 10.14786,13.8363 5.08198,7.36126 17.23795,23.54949 10.73926,14.3016 16.01655,20.92993 27.2739,35.37581 34.47428,42.94365 67.95003,86.66397 101.41537,130.39357 4.99803,6.61088 9.97545,13.2374 14.99408,19.83265 10.61251,13.94649 16.84018,22.10676 27.74343,35.60537 10.89274,13.4856 22.15211,26.65151 33.52679,39.72946 15.8328,17.72234 33.24741,34.07846 51.92069,48.78527 4.01989,3.16601 8.16085,6.17518 12.24128,9.26277 14.22782,10.10795 29.39565,18.7617 44.4315,27.58024 45.75192,26.81907 83.67985,-37.8839 37.9279,-64.70297 v 0 c -12.54817,-7.3513 -25.21767,-14.54056 -37.22098,-22.7732 -3.29396,-2.46985 -6.63822,-4.874 -9.88188,-7.40956 -15.39958,-12.03777 -29.78681,-25.43631 -42.84211,-39.97781 -10.63958,-12.21866 -21.17114,-24.52264 -31.35998,-37.12289 -10.49845,-12.98316 -16.38939,-20.70965 -26.6614,-34.20875 -5.10694,-6.71136 -10.17268,-13.45397 -15.25902,-20.18096 -33.60009,-43.90541 -67.20961,-87.8026 -101.82169,-130.91966 -10.5377,-13.51698 -16.04351,-20.44362 -26.08873,-33.81354 -10.80244,-14.37778 -7.79104,-10.67114 -17.49818,-23.89986 -2.29543,-3.128179 -6.12702,-8.190555 -8.71009,-11.612784 -31.56799,-42.614105 -91.83344,2.029775 -60.26545,44.643884 z"/>
<path d="m 531.25974,429.45663 c 23.3975,-4.65123 47.12885,-7.24027 70.84256,-9.62555 30.45619,-2.58434 61.26101,-3.26223 91.65881,0.51233 3.57294,0.44366 7.11071,1.13515 10.66607,1.70273 2.54409,0.57054 5.08818,1.14108 7.63228,1.71162 51.84438,11.16513 67.63426,-62.1539 15.78988,-73.31903 v 0 c -4.00736,-0.84037 -8.01473,-1.68074 -12.02209,-2.52112 -4.97832,-0.7448 -9.93683,-1.63693 -14.93497,-2.2344 -35.28209,-4.21757 -71.0055,-3.52434 -106.34222,-0.47092 -26.82624,2.73039 -53.68616,5.68285 -80.11879,11.1567 -51.68077,11.89953 -34.85229,84.98717 16.82847,73.08764 z"/>
<path d="m 385.88318,620.25027 c 29.69641,-6.47976 59.93255,-9.94904 90.0502,-13.79315 46.93848,-5.63939 93.88587,-11.61547 141.13028,-14.0467 32.69414,-1.68247 39.46644,-1.24621 71.86026,-1.18547 53.68473,0.9312 107.11959,6.64648 160.20093,14.40254 4.81362,0.7551 9.62725,1.5102 14.44087,2.2653 52.3935,8.21105 64.00568,-65.88454 11.61218,-74.09559 v 0 c -5.07615,-0.79482 -10.1523,-1.58963 -15.22845,-2.38445 -56.63852,-8.24711 -113.6555,-14.2904 -170.93648,-15.18775 -34.84616,-0.0191 -41.99786,-0.47676 -77.10813,1.36305 -48.69459,2.55164 -97.09213,8.63502 -145.47238,14.47329 -33.02553,4.21991 -66.18424,8.07802 -98.70103,15.41864 -51.45636,12.83522 -33.30461,85.60551 18.15175,72.77029 z"/>
<path d="m 583.90801,412.79582 c 4.28864,28.19349 5.97322,56.67093 7.50055,85.11867 2.45652,58.10367 -0.83614,116.23642 -3.91453,174.24884 -2.7785,43.8836 -5.93222,87.82315 -12.04489,131.39215 -0.94184,6.71312 -2.06325,13.39983 -3.09487,20.09974 -3.85252,24.56588 -9.78627,48.71737 -17.10081,72.46241 -0.51845,1.51955 -1.0369,3.03909 -1.55535,4.55863 -0.17653,0.293 -0.70862,1.17047 -0.52959,0.879 9.00808,-14.66542 5.78178,-13.45094 29.6829,-20.53879 3.15686,-0.93617 6.69617,2.04098 9.82571,1.01721 1.52878,-0.50012 -2.52325,-1.99558 -3.78487,-2.99337 -19.10571,-14.11922 -37.63195,-29.00513 -56.19255,-43.82752 -41.44194,-33.09179 -88.24079,25.51595 -46.79886,58.60774 v 0 c 20.17246,16.10624 40.28303,32.32291 61.18228,47.48532 9.33867,5.94566 22.10966,15.70249 34.00719,14.68994 10.85883,-0.92416 21.50175,-5.22743 30.84702,-10.83405 7.87639,-4.72539 12.09672,-18.50009 15.01072,-27.02403 8.34598,-27.24126 15.14428,-54.93866 19.53933,-83.11233 1.11937,-7.32452 2.33446,-14.63504 3.35812,-21.97354 6.33369,-45.4056 9.67252,-91.18514 12.54328,-136.9167 3.21615,-60.68208 6.58272,-121.49096 3.91062,-182.26543 -1.64801,-30.34446 -3.47987,-60.71798 -8.02415,-90.79563 -6.87431,-52.58559 -81.24156,-42.86384 -74.36725,9.72174 z"/>
<path d="m 422.12936,687.17573 c -2.61014,3.02013 -0.38782,0.31968 -4.74099,8.06884 -4.46831,7.95411 -12.89793,22.76523 -17.24313,29.81617 -9.80342,15.90798 -16.8544,25.82982 -27.57483,41.56558 -16.89445,24.9317 -35.05348,48.96038 -53.13971,73.02755 -31.85557,42.39956 28.10646,87.45014 59.96203,45.05058 v 0 c 18.78406,-25.00698 37.63249,-49.98181 55.18258,-75.88344 12.63534,-18.58716 18.72948,-27.06621 30.27385,-45.83399 3.65506,-5.94208 7.09215,-12.01576 10.57985,-18.05759 2.74441,-4.75419 11.13455,-19.47195 13.90645,-25.20222 1.62316,-3.35549 2.93976,-6.85081 4.40963,-10.27622 15.75099,-50.63997 -55.86473,-72.91523 -71.61573,-22.27526 z"/>
<path d="m 742.71263,738.71266 c 14.83204,16.75523 29.49277,33.66001 44.03771,50.66511 18.21617,20.92586 34.10324,43.68371 47.87258,67.7376 26.43983,45.97212 91.45422,8.58055 65.01439,-37.39156 v 0 c -5.63256,-9.75704 -7.16088,-12.66131 -13.53022,-22.52329 -12.79573,-19.81229 -27.03541,-38.65577 -42.3642,-56.57569 -15.33615,-17.92608 -30.77277,-35.76647 -46.4728,-53.37559 -36.39014,-38.57795 -90.94759,12.88547 -54.55746,51.46342 z"/>
</svg>
