<?xml version="1.0" ?>
<svg xmlns="http://www.w3.org/2000/svg" viewBox="0 0 1000 1000">
<path d="m 306.52207,77.985124 c 0.20497,-0.440761 1.05521,-1.528264 0.61492,-1.322285 -0.81373,0.380683 -1.27216,1.269108 -1.89176,1.919622 -2.04885,2.151053 -4.06619,4.331949 -6.11324,6.48471 -3.41134,3.587498 -6.80867,7.188722 -10.26183,10.735973 -6.68651,6.868676 -24.13391,24.367486 -30.20434,30.470416 -6.1606,6.06487 -12.27852,12.17339 -18.48179,18.1946 -6.44287,6.25377 -12.99302,12.39618 -19.45572,18.62946 -5.11085,4.92942 -31.68364,30.86134 -37.44508,36.24294 -5.58031,5.21243 -11.33847,10.23114 -17.00771,15.3467 -39.34326,35.56133 10.94806,91.2011 50.29131,55.63977 v 0 c 6.2567,-5.66396 12.60306,-11.23043 18.77009,-16.9919 5.95,-5.55871 31.73122,-30.73187 37.26883,-36.07358 6.71073,-6.47333 13.50924,-12.8555 20.19862,-19.35089 6.38932,-6.20405 12.69102,-12.4977 19.03653,-18.74655 7.28112,-7.32047 23.64226,-23.7224 31.25309,-31.54615 3.63393,-3.73559 7.22137,-7.5163 10.79991,-11.30499 4.91461,-5.20321 10.31181,-10.8074 14.63912,-16.57429 1.46418,-1.95128 2.6608,-4.08967 3.9912,-6.13451 25.18647,-46.670562 -40.81568,-82.289611 -66.00215,-35.619046 z"/>
<path d="m 366.59313,182.80472 c -9.81866,15.30345 -22.95322,28.05175 -35.89192,40.67398 -5.72764,5.58754 -11.51808,11.11034 -17.27712,16.66551 -31.18548,28.53843 -63.05407,56.37923 -95.74726,83.18393 -21.53477,17.65606 -31.54002,25.32087 -53.26766,42.36586 -22.35215,16.71546 -43.61341,34.95243 -66.595563,50.83159 -5.772067,3.98812 -11.813708,7.57124 -17.720562,11.35686 -44.5533,28.76636 -3.871524,91.77424 40.681775,63.00788 v 0 c 7.17384,-4.66008 14.48995,-9.10813 21.52151,-13.98024 23.58585,-16.34247 45.47057,-35.01201 68.41031,-52.21148 22.50812,-17.66424 32.69219,-25.46529 55.02934,-43.79167 34.07572,-27.95723 67.30437,-56.98184 99.76629,-86.79178 21.68503,-20.93137 44.51913,-41.43213 61.35633,-66.66659 31.56797,-42.61412 -28.69751,-87.25797 -60.26547,-44.64385 z"/>
<path d="m 239.72362,376.0613 c 5.36377,16.73858 6.44174,34.60242 8.11297,51.98907 3.9837,51.25793 4.71739,102.69846 5.07528,154.087 -0.0851,46.43659 -1.24352,92.99906 -6.7688,139.15242 -0.91711,7.66075 -2.13243,15.28284 -3.19865,22.92425 -4.76437,31.46576 -13.06933,62.21175 -22.01308,92.70139 -14.91558,50.89229 57.05699,71.98611 71.97257,21.09382 v 0 c 9.96672,-34.03405 19.10705,-68.37985 24.33223,-103.51219 1.17553,-8.55456 2.51145,-17.08861 3.5266,-25.66368 5.78138,-48.83621 7.08182,-98.09128 7.14728,-147.22306 -0.38025,-53.63953 -1.1697,-107.33502 -5.42678,-160.83164 -2.60606,-26.44672 -4.63626,-53.78106 -15.70769,-78.31856 -23.75963,-47.41287 -90.81155,-13.81169 -67.05193,33.60118 z"/>
<path d="m 481.6321,94.585229 c 3.95052,18.958401 7.14462,38.041731 9.96672,57.196741 5.40635,40.16789 7.13096,80.69999 8.37885,121.17234 0.37421,13.26493 0.54122,26.53392 0.6853,39.80282 0.57828,53.02986 75.57382,52.21205 74.99554,-0.8178 v 0 c -0.15077,-13.76971 -0.32564,-27.5395 -0.71673,-41.30503 -1.34702,-43.37054 -3.26945,-86.80059 -9.15129,-129.83394 -3.11178,-20.93553 -6.59022,-41.803497 -10.95206,-62.519551 -11.52897,-51.764688 -84.73529,-35.460269 -73.20633,16.30442 z"/>
<path d="m 550.26647,122.74423 c 20.60415,-4.54799 41.59441,-7.17383 62.47647,-10.09747 31.17496,-4.46097 62.54302,-7.39954 93.97069,-9.30979 13.304,-0.91601 26.62656,-0.97015 39.92257,-0.0251 0.59977,0.0716 1.19955,0.14312 1.79932,0.21468 0.13525,0.0407 0.54701,0.12304 0.40577,0.1221 -4.25273,-0.0283 -8.65421,-3.39626 -11.92144,-5.370249 -8.6975,-9.354202 -7.10587,-5.972475 -11.64993,-16.135353 -0.34268,-0.766415 -0.51817,-3.198133 -0.7712,-2.397635 -0.37385,1.182756 0.23528,2.469699 0.35827,3.704023 0.5656,5.676746 1.14774,11.351834 1.72138,17.027774 2.30957,24.3202 5.55204,48.55634 7.35715,72.92446 0.40042,5.40536 0.65604,10.82048 0.98406,16.23071 0.93225,19.59506 0.15331,39.26243 -3.3101,58.59253 -1.74161,9.72037 -3.00661,14.02329 -5.40083,23.44211 -3.76581,13.27563 -1.87079,6.89707 -5.65254,19.14534 -15.58907,50.69005 56.09748,72.73633 71.68655,22.04628 v 0 c 4.48603,-14.63573 2.23362,-6.98993 6.71383,-22.95014 3.10552,-12.51809 4.65599,-17.82788 6.86606,-30.84752 4.14962,-24.44553 5.18174,-49.28023 3.95596,-74.02656 -0.37666,-6.06253 -0.67716,-12.13026 -1.12997,-18.18757 -1.8462,-24.69652 -5.08862,-49.26377 -7.45029,-73.911085 -0.58022,-5.741128 -1.14327,-11.484021 -1.7414,-17.22331 -0.46178,-4.430888 -1.03569,-11.068329 -2.3541,-15.134323 -3.92683,-12.110344 -5.10309,-11.295665 -13.80784,-21.243385 -2.53518,-1.634384 -4.97379,-3.429296 -7.60553,-4.903153 -7.22003,-4.043436 -15.75816,-5.108681 -23.83319,-5.937844 -16.55927,-1.139065 -33.15579,-1.142938 -49.72342,-0.01676 -33.37338,2.054657 -66.68632,5.149564 -99.7927,9.894732 -23.70031,3.320612 -47.52833,6.318319 -70.85634,11.762526 -51.343,13.281402 -32.56027,85.891382 18.78274,72.609982 z"/>
<path d="m 548.43471,242.28916 c 19.26254,-1.77744 38.28752,-5.36885 57.38389,-8.35503 22.55003,-3.23739 45.42288,-4.83783 68.1858,-3.48674 1.72757,0.18855 3.45513,0.3771 5.18269,0.56564 52.76376,5.33716 60.31164,-69.28207 7.54788,-74.61923 v 0 c -2.89584,-0.27912 -5.79168,-0.55823 -8.68752,-0.83735 -3.56629,-0.17951 -7.12931,-0.4444 -10.69887,-0.53851 -24.44362,-0.64445 -48.94557,1.39499 -73.12739,4.81828 -18.20461,2.85171 -36.33832,6.29643 -54.70261,7.98481 -52.65692,6.30466 -43.74079,80.77279 8.91613,74.46813 z"/>
<path d="m 556.5329,347.17219 c 12.8963,-4.94014 26.06374,-9.19838 39.55991,-12.18595 4.77158,-1.05626 9.5905,-1.88596 14.38576,-2.82895 30.14662,-4.98163 60.77176,-7.16143 91.32012,-7.26669 5.56354,-0.0192 11.12595,0.16369 16.68892,0.24554 18.24132,0.91941 9.60721,0.30858 25.90946,1.72861 52.84253,4.49077 59.19342,-70.23986 6.35089,-74.73062 v 0 c -19.88129,-1.6554 -9.46485,-0.95841 -31.25584,-1.99127 -6.41912,-0.0787 -12.83784,-0.26876 -19.25736,-0.23595 -34.96336,0.17869 -70.00069,2.80646 -104.47199,8.70825 -6.03755,1.22466 -12.10505,2.30996 -18.11264,3.67399 -15.9044,3.6111 -31.46324,8.58926 -46.69731,14.38013 -49.85308,18.08785 -24.27301,88.59075 25.58008,70.50291 z"/>
<path d="m 497.68992,478.97212 c 3.17865,-1.14818 6.32766,-2.37701 9.50631,-3.52505 9.43823,-3.40883 12.86404,-4.65078 23.0731,-7.4134 14.46835,-3.91521 21.98817,-5.35916 37.00475,-8.65629 38.56235,-7.49201 77.52344,-13.22924 116.69781,-16.3301 6.37717,-0.50478 12.76831,-0.81418 19.15247,-1.22128 16.82183,-0.9923 33.6622,-0.64207 50.47335,0.25196 52.96151,2.7529 56.85469,-72.14599 3.89318,-74.89888 v 0 c -19.71917,-1.00531 -39.47129,-1.38911 -59.19886,-0.19724 -7.09542,0.46322 -14.19846,0.8216 -21.28625,1.38966 -42.26035,3.387 -84.2924,9.59305 -125.87955,17.76486 -7.42015,1.64204 -14.86601,3.17194 -22.26046,4.9261 -20.82961,4.94134 -41.3614,11.04155 -61.18097,19.17326 -48.60398,21.21683 -18.59885,89.95323 30.00512,68.7364 z"/>
<path d="m 418.98378,637.49419 c 19.47758,-8.62867 40.32341,-13.39785 60.97979,-18.2245 45.37728,-9.20277 91.34057,-15.49544 137.37027,-20.39394 10.48701,-1.11603 20.99308,-2.04495 31.48962,-3.06742 39.06919,-3.5273 78.28036,-5.30442 117.50391,-5.59157 18.99155,-0.13904 27.06805,0.10361 45.62296,0.41915 21.30686,0.69588 42.71287,1.15935 63.79208,4.58815 52.39537,8.19906 63.99059,-65.89919 11.59521,-74.09825 v 0 c -3.37777,-0.51483 -6.744,-1.1122 -10.13332,-1.5445 -21.2151,-2.70592 -42.64642,-3.20329 -63.99312,-3.9348 -19.65583,-0.3269 -27.95238,-0.57659 -48.09846,-0.41992 -41.25083,0.32081 -82.48765,2.21595 -123.57502,5.93646 -10.94506,1.07034 -21.90002,2.04388 -32.83519,3.21102 -48.90007,5.21923 -97.72726,11.9524 -145.90513,21.88657 -7.05284,1.66727 -14.13564,3.21253 -21.15852,5.00181 -19.16259,4.88221 -38.16683,10.79503 -56.13625,19.11981 -47.4553,23.67475 -13.97414,90.78669 33.48117,67.11193 z"/>
<path d="m 648.62118,498.4498 c 7.19992,17.12366 9.08274,36.02121 11.59725,54.25078 4.36936,40.17092 7.98086,80.47805 9.36902,120.87577 0.29194,8.49622 0.37771,16.99827 0.56657,25.49741 0.37633,30.61342 -1.2236,61.32793 -7.43184,91.37159 -3.30367,15.98751 -5.27343,21.34477 -9.8996,36.71361 -6.70402,19.49972 -13.88393,39.30634 -25.66154,56.42454 -1.05386,1.53172 -2.24286,2.96592 -3.36429,4.44888 -0.59484,0.53185 -0.99787,1.72935 -1.78451,1.59556 -0.67346,-0.11454 0.57894,-1.31017 1.13579,-1.70589 13.38976,-9.51527 2.42058,-1.16895 17.99726,-6.62889 0.5194,-0.18206 -0.45014,-1.07744 -0.91239,-1.37619 -2.78084,-1.79725 -5.78841,-3.21669 -8.68261,-4.82504 -19.73247,-11.05917 -9.25215,-5.27006 -31.46763,-17.31899 -46.62225,-25.27579 -82.36762,40.65803 -35.74537,65.93382 v 0 c 21.73655,11.77908 11.13471,5.93758 31.81548,17.50639 8.71919,4.56393 21.73443,12.21341 31.61546,13.8774 7.40937,1.24775 15.12729,1.77155 22.53519,0.51512 10.77314,-1.8272 19.3903,-8.00653 26.94773,-15.24644 2.59217,-2.48326 4.73969,-5.3925 7.10953,-8.08874 6.07953,-8.47412 7.53509,-10.08241 12.94502,-19.50749 11.62199,-20.24763 20.20324,-42.06302 27.40409,-64.22111 5.6513,-19.18517 7.94487,-25.45648 11.93834,-45.44928 6.94935,-34.791 8.96232,-70.29999 8.48667,-105.71665 -0.20959,-9.09781 -0.31047,-18.19878 -0.62878,-27.29343 -1.4945,-42.7017 -5.29742,-85.31257 -10.00991,-127.76591 -3.71686,-26.28882 -7.20289,-53.26099 -18.82301,-77.46801 -23.75962,-47.41287 -90.81154,-13.81168 -67.05192,33.60119 z"/>
<path d="m 466.93969,730.10992 c 10.73777,5.93586 21.43682,11.99567 31.51089,19.02254 2.97382,2.0743 5.84664,4.28977 8.76996,6.43465 11.05789,9.15243 5.6845,4.5191 16.13261,13.88554 39.59986,35.27536 89.48675,-20.72731 49.88688,-56.00266 v 0 c -13.90962,-12.33025 -6.62863,-6.13779 -21.88789,-18.52446 -3.90018,-2.82089 -7.74064,-5.72626 -11.70055,-8.46266 -11.54629,-7.97878 -23.73128,-14.97395 -36.00473,-21.75619 -46.24708,-25.95589 -82.95424,39.44735 -36.70717,65.40324 z"/>
</svg>
