<?xml version="1.0" ?>
<svg xmlns="http://www.w3.org/2000/svg" width="1000" height="1000">
<path d="m 258.99543,64.328185 c -16.55842,18.338254 -34.2893,35.537269 -52.14302,52.598595 -36.26216,33.82999 -73.99288,66.0576 -111.732469,98.21965 -40.362617,34.39999 8.286309,91.48135 48.648929,57.08136 v 0 c 38.82521,-33.09211 77.63937,-66.25379 114.91552,-101.09358 20.41114,-19.52748 40.78335,-39.17286 59.32364,-60.51874 32.73006,-41.728208 -26.28254,-88.015495 -59.0126,-46.287285 z"/>
<path d="m 342.38996,218.19786 c -9.26716,8.96488 -17.11003,19.25126 -25.51145,28.9956 -10.30642,11.95386 -13.85011,15.59263 -25.03168,27.75413 -33.50374,34.70361 -67.93633,68.56787 -103.50005,101.16616 -7.71273,7.06961 -15.55792,13.99335 -23.33687,20.99003 -7.62466,6.62083 -15.1943,13.30557 -22.87398,19.8625 -16.25568,13.87912 -25.52189,21.48638 -42.14848,34.4833 -15.613427,12.20493 -31.511866,24.05738 -47.230684,36.12701 -42.062846,32.29887 3.614655,91.78472 45.6775,59.48585 v 0 c 16.077264,-12.3457 32.340164,-24.46777 48.300294,-36.96384 17.45244,-13.66448 27.58892,-21.98897 44.5861,-36.51199 8.00937,-6.8435 15.90384,-13.82034 23.85575,-20.73051 8.12163,-7.31083 16.31129,-14.54678 24.36488,-21.93248 36.96408,-33.89862 72.75818,-69.10889 107.53753,-105.23722 12.79035,-13.93388 15.44847,-16.59366 27.23027,-30.25676 4.82974,-5.60094 9.47724,-11.35724 14.30263,-16.96192 2.86466,-3.3273 2.59028,-2.98298 5.11959,-5.5975 38.65919,-36.30382 -12.68215,-90.97617 -51.34135,-54.67236 z"/>
<path d="m 211.05235,408.84125 c 1.27209,19.40708 1.63395,38.86672 2.04278,58.30757 0.76106,45.23216 1.04777,90.46998 1.59127,135.70486 0.98798,51.85314 2.29404,103.69592 2.3286,155.5608 0.0699,41.8837 -1.70035,83.73197 -3.59255,125.5625 -0.7723,17.12273 -0.41078,9.03203 -1.0867,24.272 -2.34977,52.98093 72.57657,56.30401 74.92634,3.32308 v 0 c 0.67326,-15.1805 0.31273,-7.11174 1.08376,-24.20618 1.94382,-42.97815 3.74292,-85.97504 3.66913,-129.00762 -0.0433,-52.14658 -1.32312,-104.27135 -2.33399,-156.40592 -0.54656,-45.46186 -0.83292,-90.92673 -1.60255,-136.38581 -0.45324,-21.40774 -0.82607,-42.84416 -2.39995,-64.20458 -5.28866,-52.76864 -79.9148,-45.28935 -74.62614,7.4793 z"/>
<path d="m 471.67031,64.280781 c 2.19445,3.571767 -0.87277,-2.739176 -1.0015,-2.00368 -0.23365,1.334987 -0.16921,2.705564 -0.28803,4.055626 -0.24588,2.79384 -0.50846,5.586411 -0.80599,8.375223 -1.38245,12.957759 -1.50375,13.063646 -3.35453,26.66559 -3.85034,27.49428 -12.30129,53.46743 -22.41298,79.19121 -1.74076,4.62614 -3.96318,9.04912 -5.82519,13.62358 -0.83317,2.04687 -1.89009,4.03605 -2.36067,6.1953 -1.10813,5.0846 -4.67714,10.77733 -2.35309,15.43349 6.85665,13.73711 15.61469,27.64003 28.22436,36.39891 6.55555,4.55359 15.9634,-0.10744 23.9451,-0.16117 3.65386,-1.10262 7.31361,-2.18594 10.96158,-3.30787 13.2036,-4.06073 26.36506,-7.98618 39.84505,-11.07309 16.7409,-3.83366 20.44173,-4.22365 37.70061,-7.20485 49.11752,-7.42519 98.83512,-9.23527 148.43104,-10.01349 38.15802,0.13749 76.37621,0.94666 114.40649,4.24883 6.59158,0.56583 13.08711,1.70113 19.5043,3.26229 51.69671,11.83005 68.42694,-61.28013 16.73023,-73.11019 v 0 c -9.8457,-2.18253 -19.74481,-4.07215 -29.81977,-4.87727 -40.56725,-3.44788 -81.31532,-4.47194 -122.01791,-4.51411 -8.99369,0.14579 -17.98921,0.20453 -26.98106,0.43736 -44.50923,1.15251 -89.06271,4.03468 -133.1147,10.67757 -7.45534,1.30641 -14.93525,2.47966 -22.36604,3.91921 -23.45934,4.54474 -46.70859,10.50758 -69.30629,18.28794 25.65459,3.3159 20.67584,-1.00263 38.85701,37.04008 1.57521,3.29602 -1.70503,7.10854 -2.35245,10.7038 -0.15691,0.87138 0.54025,-1.68835 0.87648,-2.50742 2.21642,-5.39932 4.81099,-10.63936 6.85198,-16.11325 4.03226,-10.3315 6.04091,-15.15637 9.7016,-26.01249 7.7377,-22.94687 13.68681,-46.48297 17.19594,-70.45974 1.67095,-12.39214 2.54338,-17.960661 3.74085,-30.11791 1.33854,-13.589374 2.53131,-27.523331 -1.47709,-40.804277 -16.80425,-50.3002705 -87.93958,-26.535472 -71.13533,23.764798 z"/>
<path d="m 479.12052,311.18672 c 0.005,14.40334 0.0603,28.81654 0.81931,43.20422 0.31176,5.90993 0.77327,11.81101 1.1599,17.71651 3.35588,43.32215 10.44082,86.23736 18.44822,128.90796 4.69654,24.10121 10.26517,48.01709 15.87578,71.91766 12.12008,51.62949 85.13519,34.4891 73.01511,-17.14038 v 0 c -5.35471,-22.80986 -10.68224,-45.63131 -15.18118,-68.62936 -7.47777,-39.7297 -14.11696,-79.68559 -17.3223,-120.01858 -1.25344,-18.6319 -2.07678,-37.27751 -1.81484,-55.95803 0,-53.03301 -75,-53.03301 -75,0 z"/>
<path d="m 620.51677,352.43073 c 15.4874,-4.84485 31.64929,-6.97878 47.68062,-9.124 25.03305,-3.03842 50.26861,-3.34451 75.42823,-2.24969 6.80542,0.34112 13.59037,0.98213 20.36049,1.73829 2.07312,0.23155 4.8519,0.3581 6.94664,1.0027 -7.65555,-1.34245 -14.11783,-6.84219 -18.72361,-12.8272 -2.58043,-3.35314 -3.55478,-6.34004 -4.82718,-9.89147 1.04807,15.57538 1.51195,31.20514 0.90798,46.81124 -0.21353,5.51746 -0.62996,11.02519 -0.94494,16.53779 -0.5679,6.29393 -1.0615,12.595 -1.70371,18.88178 -1.28611,12.59022 -3.5154,30.53949 -5.09965,42.98815 -1.67656,13.174 -3.93999,30.72592 -6.04649,43.8866 -1.05916,6.61723 -2.32484,13.19976 -3.48727,19.79964 -5.07189,22.13533 -2.00998,11.6537 -8.92153,31.52087 -16.80696,50.29937 54.32709,74.068 71.13405,23.76863 v 0 c 9.19056,-28.27915 5.34197,-14.15538 11.66105,-42.33972 1.27868,-7.3257 2.66452,-14.63351 3.83605,-21.97711 2.16386,-13.56385 4.52425,-31.81897 6.25494,-45.43632 1.69586,-13.34329 4.0262,-32.14018 5.37284,-45.55383 0.71495,-7.12156 1.25656,-14.25945 1.88485,-21.38917 0.34992,-6.48678 0.81593,-12.96834 1.04978,-19.46035 0.71476,-19.84342 0.17967,-39.78549 -1.78565,-59.54327 -1.63262,-8.14384 -1.93412,-12.91251 -7.06976,-20.48721 -7.11179,-10.48937 -16.68389,-16.07446 -28.5941,-18.79456 -12.86572,-2.45098 -25.97433,-3.34219 -39.02774,-4.16815 -29.57434,-1.22602 -59.23442,-0.81512 -88.64664,2.8576 -20.00584,2.72481 -40.11362,5.60216 -59.43168,11.68463 -50.74491,15.40958 -28.95248,87.17371 21.79243,71.76413 z"/>
<path d="m 569.20144,472.48577 c 15.28015,-3.61556 30.8727,-5.56027 46.45051,-7.34823 22.58194,-2.62266 45.29579,-2.97822 67.9773,-1.90684 52.97732,2.42975 56.41351,-72.49149 3.43619,-74.92124 v 0 c -10.08335,-0.45104 -13.73041,-0.71245 -24.14054,-0.7398 -18.67261,-0.0491 -37.33075,1.12012 -55.8965,3.0653 -17.94313,2.092 -35.89735,4.37872 -53.50801,8.50843 -51.86089,11.08817 -36.17985,84.43055 15.68105,73.34238 z"/>
<path d="m 562.54778,585.20198 c 19.34766,-2.29967 38.61357,-5.23514 57.95085,-7.64961 34.10855,-4.12218 68.36674,-6.91855 102.71178,-7.82402 11.87681,-0.33436 23.71327,0.61401 35.53341,1.58984 52.86074,4.27103 58.90089,-70.48535 6.04015,-74.75638 v 0 c -14.50928,-1.15147 -29.03964,-2.22713 -43.612,-1.80575 -5.58951,0.15606 -11.18154,0.23897 -16.76853,0.46818 -31.16304,1.27846 -62.23321,4.35601 -93.20744,7.90729 -17.79775,2.22707 -35.56183,4.6717 -53.31616,7.21585 -52.93019,3.30073 -48.26225,78.15533 4.66794,74.8546 z"/>
<path d="m 593.42693,581.72691 c -20.42262,20.68052 -40.82875,41.37834 -61.35232,61.9602 -20.59932,20.19685 -10.13733,10.30774 -31.3821,29.67144 -39.15595,35.76746 11.42689,91.14234 50.58284,55.37487 v 0 c 23.37107,-21.39037 12.0817,-10.68019 33.90768,-32.08881 19.77294,-19.82947 39.51059,-39.69417 59.05346,-59.75079 39.0089,-35.92778 -11.80066,-91.0947 -50.80956,-55.16691 z"/>
<path d="m 632.55665,694.0226 c 14.71478,-1.3025 29.41515,-2.70229 44.15613,-3.68045 18.70433,-1.15623 37.40098,-2.43574 56.07273,-4.03691 4.01666,-0.28848 8.02182,-0.76456 12.0429,-0.99789 0.36529,-0.0212 -0.72929,0.1161 -1.09414,0.0884 -2.67044,-0.20295 -5.33104,-0.51951 -7.99655,-0.77926 -6.99468,-4.46495 -15.18662,-7.45758 -20.98404,-13.39486 -3.81346,-3.90546 -4.87522,-9.7986 -6.68981,-14.94664 -0.62931,-1.78537 -0.3293,-3.77277 -0.57026,-5.65041 -0.0326,-0.2544 -0.006,-0.81181 -0.24832,-0.7283 -0.45079,0.15524 -0.64594,0.71021 -0.88944,1.1201 -0.96696,1.62768 -1.82242,3.31907 -2.73363,4.9786 -14.61432,26.14536 -33.89302,49.24508 -53.30732,71.90118 -19.12381,21.35897 -39.49451,41.65677 -61.77587,59.73519 -14.54477,11.80119 -21.26506,16.24082 -36.59315,27.19164 -30.80271,21.21263 -64.27208,38.1544 -98.43285,53.2238 -6.36782,2.80905 -12.81171,5.44238 -19.21757,8.16356 -21.83319,8.64128 -11.35013,4.6203 -31.42775,12.11872 -49.67253,18.57792 -23.39939,88.82549 26.27315,70.24758 v 0 c 22.02873,-8.2497 10.51306,-3.81925 34.52239,-13.35519 7.01621,-2.9906 14.07378,-5.88596 21.04862,-8.97179 38.54809,-17.05456 76.20575,-36.4063 110.90658,-60.45368 17.65389,-12.67358 24.84029,-17.41262 41.66046,-31.16092 25.23062,-20.62275 48.37117,-43.67086 70.02944,-67.98701 4.77246,-5.58814 9.62857,-11.10591 14.3174,-16.76441 18.12454,-21.87279 35.14188,-44.87505 48.81365,-69.82308 5.36443,-10.88248 10.78779,-21.15531 11.82224,-33.54181 0.32642,-3.90852 0.83782,-7.95479 -0.0881,-11.76605 -1.54315,-6.35158 -2.87203,-13.34196 -7.20165,-18.23871 -5.88988,-6.66138 -14.74299,-9.94499 -22.11448,-14.91749 -3.26068,-0.39929 -6.50752,-0.93531 -9.78205,-1.19787 -1.25074,-0.10029 -2.50916,0.0543 -3.7626,0.11182 -4.32198,0.1984 -8.62246,0.80282 -12.93925,1.0694 -18.20365,1.56307 -36.43249,2.80013 -54.66788,3.92965 -15.43656,1.04051 -30.83484,2.47033 -46.24381,3.84945 -52.79518,5.01683 -45.70032,79.68049 7.09487,74.66366 z"/>
<path d="m 556.45478,811.67764 c 17.31756,13.93084 35.91678,26.18005 54.11611,38.91187 27.51667,19.59722 55.22739,38.91465 83.67979,57.13241 12.43559,7.61931 24.6334,15.68157 37.4714,22.62106 3.32116,1.602 4.85678,2.62037 7.62063,4.24758 16.9312,8.85537 35.83842,13.07748 54.24008,17.72286 25.33573,6.15808 51.23022,9.18155 77.26091,10.04259 6.94623,0.22976 13.89925,0.14879 20.84888,0.22318 53.0308,0.48438 53.71581,-74.5125 0.68501,-74.99687 v 0 c -14.12242,-0.10289 -21.65649,0.0789 -35.80048,-0.98645 -15.06598,-1.1348 -29.9709,-3.65556 -44.69027,-7.01457 -11.80841,-2.96123 -23.72375,-5.78477 -35.1594,-10.00907 -1.20713,-0.51213 0.041,0.0348 -2.75868,-1.65409 -2.22866,-1.34445 -4.55526,-2.51958 -6.86929,-3.70715 -11.19945,-5.85412 -21.54451,-13.26939 -32.42658,-19.66379 -27.59611,-17.64404 -54.42067,-36.43271 -81.11057,-55.41286 -16.10382,-11.26525 -32.49099,-22.17246 -48.05036,-34.18759 -40.11479,-34.68866 -89.17197,22.04222 -49.05718,56.73089 z"/>
</svg>
