<?xml version="1.0" ?>
<svg xmlns="http://www.w3.org/2000/svg" viewBox="0 0 1000 1000">
<path d="m 223.92197,103.68683 c -0.20149,0.18175 -0.43713,0.33166 -0.60448,0.54527 -1.37644,1.75694 -2.65122,3.59171 -4.01854,5.35576 -4.15407,5.35939 -15.12828,19.08718 -18.51209,23.21485 -15.46108,18.85993 -15.15876,18.16469 -32.125,37.48606 -33.63931,38.42553 -68.73581,75.53524 -103.870813,112.5861 -36.491207,38.48236 17.931064,90.08872 54.422273,51.60636 v 0 c 35.79999,-37.75473 71.55308,-75.57625 105.82832,-114.73217 6.2703,-7.15388 12.62524,-14.23445 18.8109,-21.46164 9.12265,-10.65869 18.17053,-21.85213 26.91918,-32.85722 4.37326,-5.50121 10.82245,-13.58201 14.98799,-19.65333 1.61247,-2.35018 3.04502,-4.81887 4.56753,-7.22831 24.65097,-46.955611 -41.7543,-81.817347 -66.40527,-34.86173 z"/>
<path d="m 290.26644,249.43656 c -2.0356,2.12689 -4.16059,4.1717 -6.10681,6.38068 -4.25452,4.82894 -8.08731,10.01405 -12.18833,14.97401 -12.06149,14.5877 -24.44039,28.91163 -36.72086,43.31439 -26.44762,31.42617 -52.78162,62.95172 -79.78143,93.90757 -16.75307,19.20776 -27.39532,31.03392 -44.33505,50.02582 -24.916872,26.56118 -48.306494,54.52035 -73.265879,81.03984 -4.091189,4.34692 -8.309877,8.57204 -12.464816,12.85806 -36.885987,38.10412 17.001375,90.26878 53.887363,52.16466 v 0 c 4.603062,-4.76121 9.272629,-9.45901 13.809187,-14.28362 25.199045,-26.79912 48.850585,-55.01585 74.005975,-81.85745 17.34048,-19.44298 27.95866,-31.24078 45.12376,-50.92444 27.10145,-31.07793 53.54663,-62.71742 80.09174,-94.26919 9.32849,-10.94063 18.7077,-21.83826 27.98034,-32.82627 3.27554,-3.88148 6.52032,-7.78891 9.75541,-11.70417 2.38206,-2.88289 4.74823,-5.77899 7.09581,-8.69001 1.02585,-1.27206 2.1408,-2.48378 3.02403,-3.85869 0.17641,-0.27461 -0.569,0.31993 -0.85351,0.4799 40.11494,-34.68849 -8.94199,-91.41958 -49.05693,-56.73109 z"/>
<path d="m 153.01206,464.24979 c 6.33198,20.89929 7.30543,43.00288 8.74538,64.64329 2.7406,57.56169 0.56573,115.21216 -0.72375,172.78441 -0.98976,61.20852 -2.64876,122.40197 -5.56484,183.54966 -0.844,19.97189 -2.64896,39.87082 -4.70125,59.74635 -5.415,52.75583 69.19301,60.4138 74.60802,7.65798 v 0 c 2.16812,-21.23797 4.10654,-42.49793 5.00831,-63.83628 2.93864,-61.77724 4.63615,-123.59969 5.63095,-185.43831 1.33998,-59.82719 3.57042,-119.73796 0.56991,-179.54992 -1.98332,-28.65157 -3.78301,-57.83197 -13.10672,-85.23873 -18.1596,-49.82699 -88.62561,-24.14544 -70.46601,25.68155 z"/>
<path d="m 458.92459,143.0071 c 0.25067,35.72247 1.82218,71.42137 2.64359,107.13466 0.67627,32.93782 0.14254,65.87982 -0.50256,98.81228 -1.03608,53.02289 73.94961,54.48812 74.98569,1.46524 v 0 c 0.66269,-33.99672 1.20265,-68.00326 0.49697,-102.00527 -0.81113,-35.13746 -2.34126,-70.2612 -2.62369,-105.40691 0,-53.033007 -75,-53.033007 -75,0 z"/>
<path d="m 337.55781,232.98522 c 4.0728,20.83495 5.11824,42.1232 6.40894,63.26817 1.39333,25.39313 1.96106,50.82135 2.24482,76.24802 0.36077,10.56891 -1.65878,27.1143 4.91263,35.81436 5.86023,7.75851 14.67126,12.76326 22.00689,19.14488 6.17035,0.8579 12.28973,2.25045 18.51104,2.57368 3.18368,0.16541 18.82567,-2.13303 21.88172,-2.56379 15.54726,-2.19146 31.06475,-4.56517 46.58192,-6.95882 37.66763,-6.1676 75.53753,-10.79224 113.56236,-14.03086 4.5848,-0.33012 9.16961,-0.66024 13.75441,-0.99036 52.89518,-3.82104 47.4914,-78.62612 -5.40378,-74.80507 v 0 c -4.91149,0.35587 -9.82299,0.71174 -14.73448,1.06762 -39.71318,3.40217 -79.272,8.19731 -118.61477,14.63572 -14.94373,2.30609 -18.34736,2.86291 -32.79907,4.97878 -7.26998,1.06439 -14.55588,2.01895 -21.823,3.10266 -1.10015,0.16406 -4.28798,0.0822 -3.28801,0.56932 3.08671,1.5036 6.6314,1.78298 9.9471,2.67447 5.89546,5.81224 13.01156,10.60409 17.68637,17.4367 2.46667,3.60523 1.97388,8.51075 2.97574,12.76262 0.0396,0.16809 -0.0851,-0.33776 -0.0888,-0.51041 -0.027,-1.27967 3.5e-4,-2.5599 -0.003,-3.83985 -0.0137,-5.33709 -0.0275,-6.14494 -0.0701,-11.90206 -0.30015,-26.67952 -0.90502,-53.36053 -2.3811,-80.00415 -1.68561,-27.30282 -2.93751,-54.98889 -9.85107,-81.57643 -16.19613,-50.49936 -87.61301,-27.59456 -71.41688,22.9048 z"/>
<path d="m 583.35785,218.67145 c 0,31.43437 0,62.86874 0,94.3031 0.48334,26.2493 -0.77318,52.45547 -2.16522,78.65367 -2.78461,52.95986 72.11193,56.8979 74.89654,3.93804 v 0 c 1.43235,-27.51082 2.75664,-55.02915 2.26868,-82.59171 0,-31.43436 0,-62.86873 0,-94.3031 0,-53.03301 -75,-53.03301 -75,0 z"/>
<path d="m 347.95532,567.33979 c 20.03173,-4.54013 40.03991,-9.18255 60.09585,-13.61583 36.76442,-7.69322 73.83946,-14.05673 111.25356,-17.58428 7.48722,-0.70592 14.99506,-1.17274 22.49259,-1.75912 23.55078,-1.79675 47.14123,-1.04278 70.67635,0.39288 52.93827,3.16859 57.41933,-71.69742 4.48107,-74.86601 v 0 c -26.99757,-1.58915 -54.05683,-2.38379 -81.06509,-0.29384 -8.27005,0.6595 -16.55147,1.1892 -24.81014,1.97849 -40.09063,3.83145 -79.82778,10.6288 -119.22283,18.90116 -19.79653,4.37973 -39.55128,8.94422 -59.31935,13.44842 -51.90032,10.90217 -36.48233,84.3003 15.41799,73.39813 z"/>
<path d="m 456.11534,533.2325 c 1.9027,29.51393 1.97955,59.1188 2.21521,88.68236 0.12126,52.30248 0.63467,104.60466 0.16265,156.90628 -0.4581,25.42768 -0.16703,13.38134 -0.82901,36.14007 -1.53443,53.01081 73.43417,55.18082 74.9686,2.17001 v 0 c 0.68593,-23.80771 0.38613,-11.26214 0.85739,-37.63767 0.46971,-52.72656 -0.0318,-105.45353 -0.16205,-158.18091 -0.25903,-32.03216 -0.29818,-64.12515 -2.6415,-96.08779 -5.66226,-52.72986 -80.23355,-44.72222 -74.57129,8.00765 z"/>
<path d="m 392.86687,707.6793 c 20.04873,-5.47016 40.68945,-8.4371 61.24564,-11.24786 37.63553,-4.43345 75.58207,-4.85395 113.42912,-5.2611 53.02991,-0.5736 52.21871,-75.56921 -0.8112,-74.99561 v 0 c -40.99562,0.44578 -82.09591,0.99737 -122.84629,5.95745 -23.66377,3.27712 -47.39796,6.78431 -70.47449,13.11497 -51.21727,13.75833 -31.76004,86.19048 19.45722,72.43215 z"/>
<path d="m 383.04516,896.45097 c 36.43208,-10.28695 72.06109,-23.19807 107.75476,-35.75192 49.73002,-17.29078 98.97378,-35.9157 148.02938,-55.02198 49.41648,-19.24869 22.19471,-89.13414 -27.22176,-69.88545 v 0 c -48.28046,18.80804 -96.74681,37.14042 -145.69304,54.15635 -34.26595,12.05316 -68.4605,24.48405 -103.43086,34.37655 -51.00109,14.5392 -30.43957,86.66564 20.56152,72.12645 z"/>
<path d="m 706.48815,121.87347 c -1.37509,22.84794 -7.18447,45.23513 -12.33664,67.45083 -6.92815,29.2037 -14.01775,58.40987 -23.3877,86.94685 -5.19357,15.81744 -7.06373,20.07435 -12.93813,35.21372 -5.01144,12.46727 -10.34759,24.80099 -15.83187,37.06649 -2.31348,5.17405 -4.5932,10.38585 -7.23667,15.40276 -11.68012,23.10321 -5.4021,9.31801 53.73017,49.62542 2.5645,1.74809 4.89506,-3.81753 7.38094,-5.67572 8.09235,-6.04905 16.75587,-11.00179 25.49599,-16.04429 28.55395,-15.18727 59.16313,-26.10675 90.18813,-35.03358 6.89564,-1.98408 13.85762,-3.72989 20.78642,-5.59483 27.72419,-6.85085 55.96268,-12.08031 84.50924,-13.78979 3.75768,-0.22503 7.52388,-0.2732 11.28582,-0.4098 12.07835,0.1072 6.33634,-0.0677 17.22796,0.45584 52.981,2.34828 56.30199,-72.57816 3.32097,-74.92644 v 0 c -14.94399,-0.6218 -7.11316,-0.43654 -23.49435,-0.47154 -4.82046,0.20071 -9.64648,0.29583 -14.46138,0.60213 -33.08703,2.10482 -65.82798,8.1093 -97.95551,16.1371 -7.75246,2.10276 -15.54231,4.07221 -23.25737,6.30829 -36.50577,10.58062 -72.42519,23.72967 -105.88232,41.90544 -12.34903,7.23863 -24.09801,14.06643 -35.37846,22.91472 -0.091,0.0714 0.24025,0.0434 0.32443,0.12261 17.4534,16.42777 34.55395,33.23477 52.2689,49.38015 0.32941,0.30021 0.40106,-0.79605 0.60159,-1.19408 9.86482,-19.40084 17.92149,-39.68435 26.33164,-59.73649 6.70898,-17.40961 8.7186,-21.97856 14.64563,-40.13143 9.88147,-30.2642 17.4712,-61.20055 24.79443,-92.16214 6.40935,-27.74483 13.44184,-55.75896 14.26814,-84.36222 0,-53.033006 -75,-53.033006 -75,0 z"/>
<path d="m 810.13107,416.35171 c -3.47092,17.27585 -6.78913,34.63916 -11.37848,51.66466 -1.85963,6.89884 -4.00404,13.71776 -6.00605,20.57664 -15.29517,49.36483 -35.41251,97.19626 -58.9165,143.20253 -5.47633,10.71926 -11.31992,21.24687 -16.97988,31.8703 -23.2202,42.05564 -49.45687,82.49888 -79.44929,120.06346 -19.17953,24.02177 -24.34965,28.68498 -45.18823,50.9592 -29.49505,28.46197 -14.57842,14.93029 -44.66682,40.68643 -40.21107,34.57702 8.68822,91.44405 48.89929,56.86704 v 0 c 34.29086,-29.60205 17.39976,-14.15703 50.61477,-46.399 8.52582,-9.16652 17.2968,-18.11099 25.57747,-27.49956 42.88349,-48.62098 79.09293,-102.79559 110.427,-159.45426 6.05827,-11.40498 12.3139,-22.70729 18.17483,-34.21493 25.39271,-49.85731 47.06288,-101.70207 63.53931,-155.19107 2.28777,-7.93288 4.73005,-15.82283 6.86332,-23.79866 3.22903,-12.07266 5.28551,-22.12415 7.85432,-34.15034 1.17907,-5.51997 3.07971,-14.28902 4.14196,-20.11568 0.34767,-1.90707 0.60751,-3.82911 0.91126,-5.74366 6.59242,-52.62167 -67.82586,-61.94476 -74.41828,-9.3231 z"/>
<path d="m 665.64927,547.51577 c 0.73772,2.39681 1.37968,4.82522 2.21316,7.19044 2.47038,7.01028 5.97636,15.06736 8.85209,21.79865 7.61558,17.82594 15.53078,35.48019 23.65129,53.08207 20.75313,44.12059 42.40232,87.81116 63.26731,131.87763 11.52779,24.28459 21.85575,49.10758 31.50131,74.19124 3.6448,9.12012 6.71554,18.57173 11.62805,27.12857 1.23541,2.15189 2.63544,4.205 3.95315,6.3075 13.17976,18.53806 30.64553,33.40636 47.70592,48.2226 15.3169,13.30785 32.09292,24.73908 48.52213,36.58477 5.93739,4.28094 11.82422,8.63158 17.73633,12.94737 42.83819,31.26323 87.05109,-29.31911 44.2129,-60.58234 v 0 c -6.15843,-4.49327 -12.29081,-9.02246 -18.47528,-13.47981 -14.48734,-10.44149 -29.33817,-20.44153 -42.87153,-32.14255 -11.89526,-10.28851 -24.0749,-20.48482 -34.10833,-32.67101 -1.22502,-1.19602 -1.77514,-2.79109 -2.4496,-4.34999 -2.11892,-4.89751 -3.90651,-9.92918 -5.85509,-14.89446 -10.32659,-26.83088 -21.38535,-53.38167 -33.71621,-79.36116 -20.76546,-43.84437 -42.28989,-87.32471 -62.95803,-131.21622 -10.40783,-22.5249 -20.58293,-45.16675 -29.88941,-68.17325 -12.40262,-51.56234 -85.32278,-34.02239 -72.92016,17.53995 z"/>
</svg>
