<?xml version="1.0" ?>
<svg xmlns="http://www.w3.org/2000/svg" width="1000" height="1000">
<path d="m 52.843753,421.79961 c 0.77797,1.63165 1.53482,3.27353 2.333912,4.89493 4.399242,8.92632 3.636527,6.90272 8.326572,16.83573 3.019061,6.39406 9.182787,20.23431 12.008488,26.0276 2.755513,5.6494 5.703915,11.20266 8.555872,16.80399 8.430754,15.20889 17.082743,30.2833 25.433023,45.53644 25.48332,46.50915 91.25718,10.4703 65.77387,-36.03885 v 0 c -8.01496,-14.61627 -16.23883,-29.10597 -24.42281,-43.62802 -2.42602,-4.72627 -4.94827,-9.40437 -7.27807,-14.1788 -7.50443,-15.37871 -13.98719,-31.25658 -22.04381,-46.37095 -21.29659,-48.56907 -89.98364,-18.45114 -68.687047,30.11793 z"/>
<path d="m 268.41515,370.37575 c 0.86737,0.84465 1.79398,1.63246 2.60211,2.53396 2.07564,2.31546 5.17418,6.74924 6.66345,9.04919 6.15767,9.5096 11.20659,19.67494 16.44926,29.69933 2.03927,3.90353 4.07854,7.80706 6.11782,11.71058 24.55644,47.00512 91.03172,12.27706 66.47527,-34.72805 v 0 c -2.05212,-3.9281 -4.10425,-7.85619 -6.15638,-11.78429 -11.8027,-22.49912 -23.58995,-45.78486 -42.8263,-62.9787 -39.95011,-34.87821 -89.27533,21.61977 -49.32523,56.49798 z"/>
<path d="m 189.86212,129.67379 c 0.0575,21.63211 -0.37943,43.26168 -0.0607,64.89383 0.13692,9.29188 0.41596,18.58113 0.62394,27.87169 1.50151,49.31688 4.00998,98.59481 5.98902,147.8931 1.66596,41.49913 1.75091,46.54475 3.12458,88.5778 2.87194,91.9 2.24347,183.85232 1.32494,275.7763 -0.49325,50.32719 -0.0363,100.65604 0.3601,150.98187 0.41778,53.03137 75.41546,52.44053 74.99767,-0.59083 v 0 c -0.39303,-49.87919 -0.84926,-99.76137 -0.36151,-149.64191 0.92856,-92.99066 1.55045,-186.0099 -1.36125,-278.97605 -1.38821,-42.44797 -1.47003,-47.41259 -3.15192,-89.30584 -1.95931,-48.80328 -4.43898,-97.58649 -5.94074,-146.40763 -0.20199,-8.86448 -0.47279,-17.72766 -0.60597,-26.59344 -0.3229,-21.49368 0.12651,-42.98516 0.0618,-64.47889 0,-53.033004 -75,-53.033004 -75,0 z"/>
<path d="m 537.97567,321.76811 c 0.0206,0.0928 -0.023,0.23535 0.0617,0.2784 4.91957,2.4991 10.00921,4.64967 14.97098,7.06391 7.18979,3.49834 16.07524,7.92348 22.98396,11.78422 4.09263,2.28704 8.07669,4.76318 12.11503,7.14477 3.73447,2.42409 7.46894,4.84818 11.20342,7.27227 44.55812,28.75889 85.22933,-34.25581 40.67121,-63.0147 v 0 c -4.65056,-2.98782 -9.30112,-5.97563 -13.95169,-8.96345 -5.02557,-2.9306 -9.9916,-5.96578 -15.0767,-8.79181 -7.69746,-4.27784 -17.70399,-9.26264 -25.73657,-13.16314 -3.58739,-1.74198 -15.13652,-7.23611 -19.19072,-8.91383 -2.63405,-1.09002 -5.346,-1.98136 -8.01899,-2.97203 -51.10643,-14.16452 -71.13808,58.11087 -20.03166,72.27539 z"/>
<path d="m 346.5579,520.79306 c 11.72334,-6.41403 24.62379,-10.69976 37.37333,-14.53469 20.20546,-6.07759 29.72561,-8.02607 51.06308,-13.18038 62.3469,-13.78859 125.69357,-22.62928 189.23085,-28.66794 13.61325,-1.29382 27.2516,-2.30841 40.8774,-3.46261 46.73151,-3.47511 93.54665,-6.00287 140.40437,-6.84522 18.72846,-0.33668 28.95717,-0.22652 47.18396,-0.1793 13.08463,0.47567 26.36435,-0.16547 39.30265,2.31859 1.73067,0.33228 3.39841,0.9345 5.09762,1.40175 51.6169,12.17352 68.83287,-60.82381 17.21596,-72.99733 v 0 c -4.2019,-0.92449 -8.36285,-2.06016 -12.6057,-2.77348 -16.13026,-2.71185 -32.53025,-2.64961 -48.82536,-2.9493 -19.22469,-0.0452 -29.48968,-0.15756 -49.29583,0.20382 -48.33233,0.88186 -96.62102,3.48972 -144.82244,7.08932 -14.13663,1.20286 -28.28636,2.26063 -42.4099,3.60858 -66.83507,6.37878 -133.46088,15.76453 -199.02486,30.36467 -35.63693,8.66868 -72.2539,16.75727 -105.03064,33.84774 -1.95235,1.01799 -3.81328,2.20247 -5.71991,3.30371 -44.8674,28.27396 -4.88198,91.72604 39.98542,63.45207 z"/>
<path d="m 475.98376,453.76896 c 0.7427,21.09867 1.09217,42.20269 1.16656,63.31348 -0.16775,39.88926 -2.67304,79.70695 -4.8391,119.52149 -1.01752,25.39109 -2.61807,50.91988 -0.3696,76.29824 0.34154,3.85487 0.89304,7.68825 1.33956,11.53237 2.56793,16.69621 6.92493,33.84165 17.60968,47.38125 2.39195,3.03106 5.23285,5.67911 7.84927,8.51867 10.7357,7.53382 11.67283,9.46169 24.40698,13.32242 17.469,5.29625 36.21342,3.59011 54.10519,2.46713 31.2797,-2.81869 62.47176,-6.46365 93.75794,-9.23244 28.76509,-2.36799 57.57845,-3.97508 86.41107,-5.21717 14.0554,-0.43297 28.07751,-1.40278 42.07519,-2.71165 52.79849,-4.98197 45.75291,-79.6503 -7.04557,-74.66833 v 0 c -12.72621,1.21387 -25.47886,2.05484 -38.25928,2.44955 -29.9639,1.29217 -59.90782,2.96998 -89.80077,5.44028 -30.70163,2.72339 -61.31814,6.2301 -92.00424,9.09776 -9.86803,0.66998 -9.95854,0.794 -19.00033,1.02092 -1.5982,0.0401 -3.20034,-0.0614 -4.79596,0.0377 -0.42074,0.0261 -1.22665,-0.0855 -1.21921,0.33598 0.0323,1.83011 5.11863,1.55615 3.76596,3.99632 0.34394,0.6464 1.38456,2.37982 0.71844,2.07582 -0.85943,-0.39222 -1.69548,-2.87634 -1.76786,-3.08364 -1.35029,-3.8674 -1.54889,-5.99165 -2.35047,-10.24721 -0.31891,-2.47648 -0.71926,-4.94383 -0.95672,-7.42945 -2.13772,-22.37612 -0.33531,-44.92043 0.42,-67.3105 2.24469,-41.26416 4.81682,-82.53305 4.94931,-123.87522 -0.0871,-22.20953 -0.44671,-44.41295 -1.25131,-66.60914 -2.52815,-52.97272 -77.44288,-49.39736 -74.91473,3.57535 z"/>
</svg>
