<?xml version="1.0" ?>
<svg xmlns="http://www.w3.org/2000/svg" viewBox="0 0 1000 1000">
<path d="m 46.170151,377.73536 c 0.606889,2.62548 1.118866,5.27472 1.820667,7.87643 3.638424,13.48835 8.62319,26.56376 13.602155,39.59772 6.272885,16.4212 5.939128,15.33485 12.704359,31.93936 8.603416,20.35237 18.307146,40.28949 29.906368,59.11738 5.10323,8.28357 6.64835,10.20336 12.00094,17.68979 31.01656,43.01712 91.85196,-0.84692 60.83541,-43.86404 v 0 c -13.76492,-18.84349 -24.21867,-39.81815 -33.29546,-61.26411 -8.57369,-21.00328 -17.33651,-42.05491 -23.66973,-63.86333 -9.03032,-52.25852 -82.935029,-39.48772 -73.904709,12.7708 z"/>
<path d="m 303.901,356.79544 c 6.13449,7.17414 11.74078,14.78382 15.76879,23.36437 3.36492,7.16804 4.0598,10.23228 6.52716,17.91951 2.9565,9.99941 4.54027,20.29861 6.12446,30.57695 8.24628,52.38797 82.33405,40.72597 74.08777,-11.662 v 0 c -2.30685,-14.42595 -4.69825,-28.86218 -9.12781,-42.83158 -1.80462,-5.21655 -3.38309,-10.51691 -5.41386,-15.64964 -7.02926,-17.76634 -17.02857,-34.14011 -29.45254,-48.63366 -33.17466,-41.37563 -91.68863,5.54042 -58.51397,46.91605 z"/>
<path d="m 204.85175,167.55318 c -0.56373,25.78768 0.52716,51.60075 1.22604,77.37916 1.74868,56.60847 3.19687,113.23114 3.24676,169.87045 0.0126,14.24656 -0.11726,28.49288 -0.1759,42.73933 -0.79584,91.63833 -6.72184,183.11986 -11.57973,274.60365 -2.65483,52.3522 -4.81268,104.7275 -7.03614,157.09923 -2.24951,52.98527 72.68299,56.16656 74.9325,3.18128 v 0 c 2.21219,-52.10644 4.3585,-104.21647 6.99812,-156.30358 4.92271,-92.70655 10.91091,-185.41147 11.68463,-278.2754 0.0584,-14.50403 0.18904,-29.00795 0.17507,-43.51209 -0.0551,-57.16119 -1.50718,-114.30587 -3.27288,-171.43601 -0.63586,-23.4409 -1.49348,-46.89441 -1.36532,-70.34601 3.53554,-52.91502 -71.29761,-57.91504 -74.83315,-5.00001 z"/>
<path d="m 498.09521,438.93111 c 24.19447,-5.06931 48.34489,-10.39409 72.67002,-14.81528 7.29923,-1.32667 14.62522,-2.50162 21.93783,-3.75242 33.91997,-5.51466 68.20809,-9.04222 102.59112,-9.38463 4.63958,-0.0462 9.27934,0.0732 13.91901,0.10987 8.47264,0.25552 16.97072,0.64576 25.34393,2.04971 0.52634,0.0883 4.60263,0.83908 5.7316,1.34201 0.27897,0.12428 -0.60639,-0.0733 -0.90958,-0.10995 -3.62872,-1.43289 -6.5363,-2.33855 -9.50564,-5.68334 -9.85026,-11.09577 -10.1984,-13.66637 -11.42471,-27.89369 -0.20503,-2.37877 1.52158,-7.51601 0.0285,-2.74256 -4.9152,18.27997 -6.59549,37.21851 -10.38939,55.73798 -1.16342,5.67907 -2.5317,11.31423 -3.79755,16.97135 -7.14873,27.21781 -14.98114,54.24689 -22.32938,81.41179 -13.84438,51.19407 58.55497,70.77298 72.39935,19.57891 v 0 c 7.64105,-28.26339 15.85803,-56.36703 23.14489,-84.72467 1.45211,-6.57669 3.01534,-13.12982 4.35634,-19.73006 3.19785,-15.73939 4.98759,-31.73061 8.37052,-47.42214 3.0701,-10.23453 4.8447,-19.47682 0.88574,-30.38294 -3.97904,-10.96145 -9.86089,-16.49647 -18.88437,-22.20444 -2.0881,-1.32087 -4.4566,-2.135 -6.6849,-3.20249 -2.24801,-0.76076 -4.46581,-1.61738 -6.74401,-2.28226 -15.88356,-4.63557 -32.71994,-4.97556 -49.10474,-5.71164 -15.6241,-0.0827 -19.14667,-0.27572 -35.39907,0.4232 -31.59428,1.35868 -63.07093,4.78756 -94.27025,9.92838 -7.83124,1.34535 -15.67622,2.61301 -23.49371,4.03606 -24.85534,4.52454 -49.53521,9.95602 -74.25758,15.13987 -51.84039,11.18365 -36.02432,84.49704 15.81607,73.31338 z"/>
<path d="m 381.91369,628.21406 c 32.75955,-5.64356 65.95683,-8.28158 99.03772,-11.25204 62.15918,-5.26786 124.49807,-8.58493 186.88344,-9.21516 13.10715,-0.13241 26.21562,-0.022 39.32343,-0.033 47.75937,0.88055 95.84753,1.46677 143.17998,8.68069 4.77946,0.72843 9.51278,1.73269 14.26917,2.59903 3.29185,0.80794 6.5837,1.61589 9.87555,2.42383 51.58038,12.32737 69.01392,-60.61831 17.43354,-72.94568 v 0 c -4.69784,-1.10154 -9.39568,-2.20308 -14.09352,-3.30462 -5.95381,-1.05087 -11.88242,-2.25614 -17.86142,-3.15261 -50.55629,-7.58023 -101.87072,-8.45707 -152.87838,-9.30061 -13.56664,0.0157 -27.134,-0.0938 -40.69992,0.0471 -64.14207,0.66605 -128.23638,4.07883 -192.14564,9.50222 -34.73977,3.12517 -69.59153,5.94973 -103.99553,11.86467 -52.3869,8.25305 -40.71532,82.33931 11.67158,74.08626 z"/>
<path d="m 560.88149,213.08473 c 2.32106,27.69298 0.32865,55.50165 -1.63195,83.14594 -3.74863,40.96917 -7.38074,82.00041 -13.91855,122.64321 -4.98557,30.99311 -7.37517,40.3596 -13.93679,71.34977 -11.87472,49.89159 -26.61909,99.23682 -46.18478,146.69451 -12.7465,30.91737 -17.34067,38.51299 -32.43821,68.22959 -17.29811,31.13432 -36.04997,61.66679 -58.14322,89.67867 -6.33913,8.03733 -13.32145,15.5458 -19.98217,23.3187 -34.36636,40.39126 22.7555,88.99262 57.12186,48.60137 v 0 c 7.83441,-9.26344 16.02505,-18.23698 23.50323,-27.7903 24.46131,-31.24916 45.2825,-65.22902 64.41188,-99.92865 16.74631,-33.17499 21.46713,-40.9211 35.61447,-75.41302 20.95784,-51.09626 36.78814,-104.19445 49.47844,-157.89394 7.03498,-33.39378 9.46069,-42.84126 14.8076,-76.28292 6.78039,-42.40713 10.61388,-85.20867 14.48212,-127.95488 2.20918,-31.76763 4.3184,-63.7182 1.47669,-95.52488 -5.03943,-52.79303 -79.70005,-45.6662 -74.66062,7.12683 z"/>
<path d="m 599.4641,704.97499 c 13.04247,8.97556 24.91604,19.44491 36.72158,29.95398 23.75853,21.46816 45.85241,44.67484 68.34431,67.44171 15.28376,15.54519 30.69303,31.01086 47.48092,44.95253 9.87446,8.20034 12.69075,10.02889 22.86436,17.47069 15.56538,10.928 32.27393,20.27339 49.97444,27.27552 2.79959,1.10749 5.65229,2.07574 8.47843,3.11362 15.86197,5.41307 32.18606,9.34671 48.57476,12.77849 4.61821,0.74651 9.23641,1.49303 13.85462,2.23954 52.37807,8.30895 64.12869,-65.76482 11.75063,-74.07376 v 0 c -3.46524,-0.5358 -6.93048,-1.0716 -10.39572,-1.60739 -12.9149,-2.63512 -25.75552,-5.77651 -38.29171,-9.87147 -14.1456,-4.97295 -27.55399,-11.79591 -39.8002,-20.48619 -7.95061,-5.75436 -10.32531,-7.29195 -18.06195,-13.66445 -15.29294,-12.59647 -29.17399,-26.75488 -43.07486,-40.83747 -23.62988,-23.91785 -46.85966,-48.27956 -71.86673,-70.78351 -12.96665,-11.51418 -25.97867,-23.06599 -40.28042,-32.92606 -41.73643,-32.71957 -88.00889,26.30465 -46.27246,59.02422 z"/>
</svg>
