<?xml version="1.0" ?>
<svg xmlns="http://www.w3.org/2000/svg" viewBox="0 0 1000 1000">
<path d="m 461.94593,62.928644 c -11.44501,19.603406 -22.25497,39.569936 -33.39771,59.349116 -26.5968,47.28649 -53.9524,94.1453 -82.35079,140.37432 -6.95551,11.3227 -14.0355,22.56846 -21.05325,33.85269 -35.48694,56.49689 -71.46095,112.77774 -111.18832,166.42249 -7.02965,9.49228 -14.32518,18.78475 -21.48778,28.17713 -26.52041,32.38559 -13.53804,16.86794 -38.88401,46.60568 -34.39018,40.37097 22.703,89.00603 57.09318,48.63506 v 0 c 26.86396,-31.55212 13.02114,-14.9802 41.44598,-49.78457 7.56566,-9.93648 15.26875,-19.76979 22.69697,-29.80943 40.71091,-55.02301 77.63653,-112.70512 114.01454,-170.64191 7.16436,-11.52297 14.39172,-23.00701 21.49307,-34.56891 28.8151,-46.91465 56.57351,-94.46757 83.56562,-142.45218 11.45119,-20.32924 22.58963,-40.83097 34.30417,-61.006727 24.85675,-46.847003 -41.39492,-81.999763 -66.25167,-35.152759 z"/>
<path d="m 459.94645,140.50998 c 1.1247,1.73041 2.18228,3.50633 3.37409,5.19121 6.20453,8.77145 13.23309,17.02676 20.18488,25.20014 7.52585,8.84832 15.16877,17.59639 22.75608,26.39207 20.82519,23.968 41.52987,48.05259 61.47899,72.7593 12.30037,15.23384 19.02767,24.07477 30.99738,39.52277 17.98783,23.01159 35.05883,46.73289 53.26847,69.57252 10.48813,13.15484 12.38627,15.14544 23.10872,27.63708 14.07031,16.09063 29.188,31.25084 45.25957,45.34299 10.7631,9.4375 15.49232,13.04985 26.7275,22.10133 30.06764,23.79434 61.77215,45.37982 92.70523,68.00133 4.49381,3.6402 8.98763,7.2804 13.48144,10.9206 41.28971,33.28152 88.3569,-25.11094 47.06719,-58.39247 v 0 c -5.43186,-4.36038 -10.86372,-8.72076 -16.29558,-13.08114 -30.0117,-21.91931 -60.73125,-42.88527 -89.94641,-65.88532 -9.751,-7.83201 -14.15023,-11.19593 -23.44323,-19.29973 -13.74062,-11.98227 -26.66797,-24.87991 -38.67928,-38.59596 -9.5609,-11.1059 -11.46254,-13.11534 -20.85187,-24.88173 -18.16922,-22.76906 -35.16493,-46.44788 -53.12077,-69.38256 -12.68331,-16.36205 -19.259,-25.01198 -32.32246,-41.18343 -20.33378,-25.17148 -41.42358,-49.72058 -62.64457,-74.14395 -12.8371,-14.88154 -25.89469,-29.59587 -38.02294,-45.06807 -26.35601,-46.020222 -91.43843,-8.747198 -65.08243,37.27302 z"/>
<path d="m 446.16716,318.22094 c 10.61408,7.29077 20.67802,15.37356 30.55251,23.62807 5.93729,4.98679 10.83346,10.95999 15.70244,16.94128 33.81619,40.85296 91.59101,-6.97036 57.77481,-47.82333 v 0 c -7.91464,-9.46232 -15.95728,-18.839 -25.48873,-26.75563 -8.59068,-7.12944 -17.25489,-14.12103 -26.23028,-20.76517 -5.57545,-4.1273 -9.40413,-6.91339 -15.32841,-10.36893 -1.95374,-1.13959 -4.00315,-2.10662 -6.00472,-3.15993 -48.29797,-21.90449 -79.27559,46.39915 -30.97762,68.30364 z"/>
<path d="m 386.36217,480.38984 c 1.72078,-0.42757 3.45231,-0.81396 5.16233,-1.28271 9.59423,-2.62996 18.97997,-5.85835 28.63046,-8.31385 13.72146,-3.49134 18.35951,-4.30429 32.61551,-7.3093 39.92998,-7.44134 80.28484,-12.38829 120.59719,-17.24283 11.59565,-1.38957 23.22266,-2.51756 34.87382,-3.31929 4.37441,-0.30101 8.75177,-0.6201 13.13679,-0.45547 -13.57197,0.29453 -22.71279,-10.2667 -29.65348,-21.1198 -2.45524,-3.83924 -1.8349,-8.92777 -2.74362,-13.39345 -0.0689,-0.3387 -0.0308,-1.32671 -0.18927,-1.01951 -0.58666,1.1377 -0.78062,2.43819 -1.17093,3.65728 -7.78734,22.54929 -18.62242,44.01907 -30.89263,64.4479 -4.14826,6.90649 -8.63801,13.60204 -12.95701,20.40306 -11.96187,17.19251 -20.67777,30.1479 -33.53839,46.836 -5.9106,7.66967 -12.16962,15.06441 -18.25443,22.59662 -33.2735,41.29618 25.12812,88.35201 58.40162,47.05583 v 0 c 6.76347,-8.41397 13.71092,-16.68332 20.29042,-25.24192 14.28796,-18.58576 23.1892,-31.9495 36.49807,-51.17429 4.98813,-7.92356 10.16917,-15.7289 14.96439,-23.77068 15.1538,-25.41355 28.32322,-52.21625 37.5492,-80.36364 3.09842,-11.22663 7.63186,-26.57505 1.74062,-37.73129 -9.62826,-18.233 -15.81295,-21.48867 -32.12944,-25.54694 -2.18087,-0.54243 -4.47523,-0.41702 -6.71285,-0.62553 -19.46858,-0.16209 -38.85841,2.24086 -58.18473,4.30368 -42.51091,5.12488 -85.06739,10.35434 -127.1537,18.32941 -22.07191,4.68773 -44.13311,9.54859 -65.55699,16.73085 -52.00761,10.37824 -37.33057,83.92811 14.67705,73.54987 z"/>
<path d="m 127.27046,731.52463 c -5.3061,21.01648 -11.33867,41.85159 -17.028,62.7692 -4.84402,17.63655 -8.95652,35.457 -13.041119,53.27992 -11.837173,51.69508 61.270709,68.43538 73.107879,16.7403 v 0 c 3.85229,-16.83891 7.72699,-33.67656 12.30449,-50.3377 6.0424,-22.21928 12.5172,-44.33594 17.98473,-66.70346 11.13571,-51.85071 -62.19227,-67.59897 -73.32798,-15.74826 z"/>
<path d="m 241.62269,679.35618 c 3.88295,11.19708 8.11353,22.21369 13.43055,32.82999 2.19419,4.38107 4.59319,8.65653 6.88978,12.9848 16.38971,29.18802 36.12157,56.50945 58.81829,81.13028 5.53318,6.00225 11.38395,11.70378 17.07593,17.55567 31.1891,30.32243 65.98248,56.83332 103.47429,78.89312 7.34304,4.32057 14.8901,8.28466 22.33515,12.42699 34.29876,17.87508 70.53693,32.01677 107.90851,42.00206 6.47241,1.72936 13.01812,3.17173 19.52718,4.7576 21.16724,4.67233 42.59596,8.27602 64.2077,10.0831 10.42773,0.87193 13.20642,0.82479 23.30095,1.11721 7.08437,-0.0117 14.18994,0.10653 21.26838,-0.2985 1.90806,-0.10918 3.82707,-0.15916 5.71571,-0.45186 3.06852,-0.47556 6.25613,-0.67332 9.13014,-1.84893 5.42466,-2.21894 10.35522,-5.49293 15.53282,-8.2394 4.14146,-5.44983 9.2567,-10.28171 12.42437,-16.34951 6.798,-13.02185 5.61088,-32.39988 5.01391,-46.58337 -0.29673,-7.05025 -1.6528,-29.73685 -2.01845,-36.00159 -3.09116,-52.94284 -77.96364,-48.57129 -74.87249,4.37155 v 0 c 0.86594,14.82583 1.58475,29.6554 2.389,44.48331 0.0685,1.26282 -0.95687,3.82583 0.30704,3.7816 5.75874,-0.20156 -2.73062,-24.13186 11.13016,-13.22698 10.45658,-4.52924 7.46808,-4.56529 14.36654,-5.09599 0.58542,-0.045 -1.16312,0.1721 -1.74922,0.20731 -5.53404,0.33251 -11.09117,0.24262 -16.63054,0.27923 -24.28005,-0.57944 -48.18713,-3.76057 -71.88841,-9.1262 -5.46851,-1.31042 -10.96777,-2.49855 -16.40552,-3.93124 -31.9468,-8.41704 -62.94223,-20.39715 -92.30251,-35.5289 -6.41545,-3.53917 -12.91818,-6.92454 -19.24635,-10.6175 -32.31957,-18.86086 -62.33754,-41.55109 -89.27766,-67.52137 -4.75633,-4.84008 -9.64443,-9.5541 -14.26899,-14.52024 -18.93574,-20.3344 -35.41459,-42.93471 -49.11797,-67.09498 -3.73436,-6.9235 -5.8706,-10.54075 -8.97897,-17.43682 -2.36461,-5.246 -2.86564,-7.17218 -4.77394,-12.5673 -1.71775,-4.85644 -1.34936,-3.84534 -2.73484,-7.43949 -19.07516,-49.48372 -89.0557,-22.50737 -69.98054,26.97635 z"/>
<path d="m 479.81812,723.13148 c 8.04724,7.28097 16.11823,14.52296 24.46417,21.4623 8.69014,6.64274 17.47659,13.47689 27.28072,18.44827 2.63024,1.33372 5.24414,2.76767 8.05573,3.65757 4.33367,1.37165 8.85379,2.06374 13.28068,3.09561 30.64941,-4.88595 16.34683,1.26859 42.06561,-20.30919 32.85441,-41.63038 -26.01983,-88.09353 -58.87424,-46.46316 v 0 c 16.43419,-9.23307 7.51076,-6.59883 26.87205,-7.54943 1.88939,0.68828 3.8097,1.29695 5.66815,2.06484 0.0832,0.0344 -0.0948,0.24113 -0.17684,0.20412 -5.98379,-2.69875 -11.08481,-7.15978 -16.36742,-10.93907 -9.61163,-7.89329 -18.46706,-16.65166 -28.22039,-24.37404 -42.92293,-31.14679 -86.97114,29.55539 -44.04822,60.70218 z"/>
<path d="m 736.86359,673.18948 c 12.43768,3.65986 24.35208,8.7554 36.05618,14.28091 8.32619,4.11816 16.35259,8.83698 23.85063,14.32172 43.07396,30.93758 86.82631,-29.9782 43.75235,-60.91578 v 0 c -11.32655,-8.05677 -23.21126,-15.29767 -35.76076,-21.31082 -14.38614,-6.71131 -28.99195,-12.99573 -44.2293,-17.54325 -50.32282,-16.73659 -73.99193,54.43063 -23.6691,71.16722 z"/>
</svg>
