<?xml version="1.0" ?>
<svg xmlns="http://www.w3.org/2000/svg" viewBox="0 0 1000 1000">
<path d="m 65.196463,363.26993 c 5.982722,16.61956 10.447339,33.72863 16.161196,50.43921 1.866501,5.45871 3.885634,10.86403 5.828451,16.29605 10.58083,27.86044 23.15282,54.9098 37.21205,81.17212 3.338,6.30184 7.11897,12.33927 11.04035,18.28718 29.40513,44.13432 91.82049,2.54919 62.41536,-41.58513 v 0 c -2.66852,-3.91887 -5.12521,-7.97269 -7.36424,-12.1551 -12.35689,-22.98067 -23.33746,-46.68617 -32.70919,-71.04575 -1.69982,-4.72128 -3.47047,-9.41766 -5.09946,-14.16385 -5.95403,-17.34753 -10.53075,-35.13961 -16.82015,-52.37534 -17.77003,-49.96725 -88.434393,-24.83664 -70.664367,25.13061 z"/>
<path d="m 317.21138,340.342 c 6.81607,5.25613 8.34081,11.95877 11.15709,19.85968 5.08259,14.83298 7.12307,30.33658 8.25507,45.89358 4.08851,52.87517 78.8653,47.09314 74.77679,-5.78203 v 0 c -0.31088,-3.85855 -0.52823,-7.72578 -0.93265,-11.57565 -1.98128,-18.86117 -5.82717,-37.50359 -12.08638,-55.42835 -1.8903,-4.74509 -3.52457,-9.60035 -5.67089,-14.23526 -6.58829,-14.22712 -15.7659,-27.03354 -28.07008,-36.83098 -41.0822,-33.53733 -88.51115,24.56168 -47.42895,58.09901 z"/>
<path d="m 211.30339,151.56126 c 2.88905,25.35172 3.96156,50.85376 5.11513,76.32806 2.75021,76.48772 4.69934,153.00154 6.09678,229.52507 0.90146,62.71203 1.79376,125.43654 0.69791,188.15276 -0.65848,37.68552 -1.33684,51.40583 -2.70609,88.772 -2.47496,58.47876 -5.38614,116.93737 -7.93265,175.41293 -2.30717,52.9828 72.62182,56.24563 74.92899,3.26283 v 0 c 2.55378,-58.64924 5.47668,-117.28133 7.95353,-175.93401 1.39808,-38.2833 2.08211,-52.09196 2.75206,-90.7239 1.1001,-63.43629 0.21024,-126.88083 -0.70626,-190.31279 -1.41144,-77.20162 -3.37497,-154.39372 -6.16156,-231.55884 -1.28319,-28.15509 -2.46184,-56.35985 -5.91379,-84.35325 -8.08162,-52.413618 -82.20567,-40.98448 -74.12405,11.42914 z"/>
<path d="m 485.92499,133.60034 c -0.14491,-0.35169 -0.24724,-1.38604 -0.43475,-1.05508 -0.2709,0.47814 0.0706,1.09685 0.10018,1.6456 0.30512,5.66442 0.45727,7.62902 0.26793,14.05952 -0.37004,12.56707 -0.94356,15.64682 -2.27417,29.01574 -5.76546,40.64321 -11.72378,81.35696 -21.09903,121.35722 -1.95566,8.34401 -4.20584,16.61624 -6.30876,24.92436 -7.47277,26.81822 -15.23099,53.66986 -25.96627,79.40213 -4.70877,11.28682 -5.76591,12.90346 -11.01123,23.13108 -3.47898,7.13462 -8.21793,13.44665 -12.77256,19.8826 -0.91859,1.29802 -2.69009,2.36229 -2.67151,3.95237 0.17701,15.14657 2.16494,30.21777 3.24741,45.32665 16.29581,2.41616 32.43024,6.50519 48.88742,7.24846 3.08144,0.13917 5.31139,-3.13833 7.98311,-4.67997 3.27773,-1.89132 6.5388,-3.81375 9.86488,-5.61871 9.65739,-5.24076 20.04478,-10.47991 30.06724,-14.89024 6.49786,-2.85934 13.12613,-5.41265 19.6892,-8.11898 33.97481,-12.56982 69.17361,-21.95363 104.91607,-27.90048 23.95053,-3.98491 30.68722,-4.10391 54.65309,-6.18161 29.57818,-1.81326 59.25319,-1.06698 88.7416,1.72393 11.37036,1.07614 17.88299,2.00905 28.94572,3.4446 14.14912,1.95196 7.44099,1.01537 20.12526,2.80333 52.51401,7.40128 62.981,-66.86474 10.467,-74.26602 v 0 c -13.12063,-1.84896 -6.12687,-0.87321 -20.98242,-2.9191 -12.52619,-1.61193 -19.61892,-2.62596 -32.54907,-3.8219 -33.68824,-3.11593 -67.58682,-3.86883 -101.3631,-1.67255 -10.25828,0.92495 -20.5443,1.58151 -30.77482,2.77483 -51.5642,6.01462 -102.32699,18.53948 -150.92319,36.74166 -7.70514,3.21404 -15.4856,6.25313 -23.11541,9.64211 -11.91325,5.29159 -23.60157,11.25318 -35.04841,17.4884 -3.70355,2.01736 -7.3417,4.15294 -10.98797,6.27208 -1.55909,0.90611 -6.3329,2.21847 -4.62701,2.80304 13.94607,4.77891 28.66618,6.89736 42.99927,10.34603 0.84956,14.83689 1.6943,29.67405 2.54867,44.51065 0.003,0.0471 -0.0212,-0.10309 0.006,-0.14136 1.10241,-1.53015 2.2767,-3.00789 3.3698,-4.5447 5.96958,-8.39265 11.37289,-17.16492 16.18838,-26.27285 6.67211,-13.25917 8.09783,-15.51819 13.99513,-29.79912 11.83488,-28.65934 20.59514,-58.47146 28.82043,-88.32628 2.29959,-9.14894 4.75831,-18.25935 6.89877,-27.44683 9.98007,-42.83736 16.43115,-86.42116 22.43803,-129.95883 0.63325,-6.71342 1.42174,-13.41401 1.89975,-20.14026 0.71687,-10.08737 0.95434,-20.15445 0.53707,-30.25671 -0.23863,-5.77716 -0.85447,-12.24147 -2.00569,-17.97489 -0.42504,-2.11682 -1.07135,-4.18312 -1.60703,-6.27468 -16.80422,-50.300276 -87.93956,-26.535518 -71.13534,23.76476 z"/>
<path d="m 623.2089,221.71983 c 0.88355,25.83382 0.81751,51.69811 0.59328,77.54294 -0.88657,41.12712 -4.97035,82.09258 -8.90957,123.01166 -1.19467,12.40972 -2.42523,24.81595 -3.63785,37.22393 -1.22212,12.76041 -2.44425,25.52082 -3.66637,38.28122 -6.26432,69.72817 -11.46649,139.54724 -16.71916,209.3575 -2.46782,33.84885 -1.31424,17.621 -3.47474,48.68255 -3.67935,52.90522 71.13993,58.10862 74.81928,5.2034 v 0 c 2.13851,-30.7537 0.99525,-14.66711 3.44406,-48.25875 5.21434,-69.30217 10.37809,-138.6131 16.58894,-207.83445 1.21747,-12.7123 2.43494,-25.42461 3.65241,-38.13692 1.21986,-12.48323 2.45854,-24.96463 3.65957,-37.44969 4.14199,-43.05737 8.38411,-86.16716 9.24074,-129.44553 0.22402,-27.09986 0.29548,-54.21971 -0.65592,-81.30747 -2.21296,-52.98682 -77.14764,-49.85721 -74.93467,3.12961 z"/>
<path d="m 553.85481,630.20871 c 18.72153,-6.15638 38.60793,-7.51049 58.1153,-9.11392 29.72985,-1.55305 59.72287,-1.28582 89.26146,2.79056 4.47006,0.61688 8.90362,1.47425 13.35543,2.21138 13.81033,3.16415 7.30084,1.47534 19.55599,4.95913 51.09235,14.21519 71.19566,-58.04031 20.10331,-72.2555 v 0 c -17.4565,-4.78331 -8.24875,-2.49294 -27.65629,-6.73692 -5.67156,-0.90417 -11.32206,-1.95207 -17.01467,-2.71252 -34.39772,-4.59505 -69.29017,-4.95931 -103.89093,-2.99226 -6.66496,0.57131 -13.34288,1.00766 -19.99489,1.71395 -19.1877,2.03728 -38.4381,5.13932 -56.74678,11.3944 -50.02193,17.61549 -25.10987,88.3572 24.91207,70.7417 z"/>
<path d="m 424.98539,849.93242 c 16.75626,-5.51425 33.96391,-9.45412 51.35735,-12.33954 6.38616,-1.0594 12.80234,-1.92907 19.20351,-2.8936 42.84972,-5.67279 86.13021,-7.97914 129.34056,-8.10769 9.66753,-0.0287 19.33416,0.19522 29.00125,0.29283 35.01551,0.91613 70.01069,3.27818 104.7483,7.84021 17.76059,2.33247 21.11923,3.10736 38.06982,6.10585 14.32443,2.58155 28.39171,6.27241 42.29866,10.51959 50.74587,15.40638 72.53378,-56.35911 21.78791,-71.7655 v 0 c -16.80494,-5.07803 -33.79287,-9.52475 -51.09046,-12.61951 -18.81333,-3.29415 -22.72976,-4.18016 -42.31332,-6.72795 -37.40325,-4.86611 -75.07831,-7.40708 -112.7769,-8.34919 -10.32161,-0.0954 -20.64285,-0.32442 -30.96484,-0.28608 -46.56274,0.17295 -93.19346,2.74567 -139.35574,8.94671 -7.22425,1.10356 -14.46696,2.09236 -21.67274,3.31068 -20.52296,3.46993 -40.82282,8.20305 -60.61195,14.68002 -50.48259,16.24832 -27.504,87.64148 22.97859,71.39317 z"/>
</svg>
