<?xml version="1.0" ?>
<svg xmlns="http://www.w3.org/2000/svg" width="1000" height="1000">
<path d="m 434.00251,69.366482 c -13.03753,28.868974 -32.23448,54.400158 -50.47587,80.097158 -37.5215,51.99517 -79.24567,100.73735 -121.04495,149.29341 -11.10061,12.8832 -22.39769,25.59385 -33.71969,38.28195 -2.05739,2.30564 -4.14484,4.58491 -6.16806,6.92058 -1.53829,1.77587 -3.55173,3.26954 -4.5151,5.41243 -3.47299,7.72521 -5.772,15.92627 -8.658,23.8894 17.45351,12.13879 32.9702,27.69913 52.36054,36.41636 4.80469,2.16002 9.69023,-4.14078 14.46042,-6.37596 35.92078,-16.83148 -9.24268,3.20141 33.55462,-16.08576 22.95698,-10.34586 25.76275,-11.19297 50.03138,-21.02138 52.62461,-20.08673 107.42105,-34.15105 162.88655,-43.75139 10.93271,-1.89231 21.92622,-3.41473 32.88933,-5.12209 9.63467,-1.291 19.26933,-2.58201 28.904,-3.87301 52.56111,-7.05905 42.57811,-81.39168 -9.98299,-74.33263 v 0 c -10.16948,1.36872 -20.33895,2.73745 -30.50843,4.10617 -11.78319,1.84963 -23.59974,3.498 -35.34957,5.54888 -60.30156,10.52535 -119.84434,25.96365 -177.02621,47.92245 -9.5795,3.89028 -19.20999,7.65725 -28.73848,11.67083 -15.36057,6.47016 -30.26402,13.26147 -45.2773,20.45691 -4.60605,2.20755 -9.20199,4.44051 -13.72533,6.81295 -1.12955,0.59244 -4.1117,1.16433 -3.21641,2.07281 13.69215,13.89387 29.10682,25.97791 43.66022,38.96686 -2.83517,6.84709 -6.15086,13.51443 -8.50553,20.54126 -0.45907,1.36997 1.79927,-2.2623 2.74605,-3.35371 2.00877,-2.31564 4.07801,-4.57812 6.11891,-6.86549 11.62452,-13.02836 23.22255,-26.08066 34.62015,-39.30896 43.32573,-50.33319 86.52608,-100.89758 125.37416,-154.82706 20.74582,-29.26022 42.23437,-58.47159 57.058,-91.3276 22.74435,-47.908189 -45.00806,-80.073557 -67.75241,-32.165368 z"/>
<path d="m 672.93406,232.88381 c -0.49366,-0.1272 -1.81956,-0.76273 -1.48099,-0.3816 1.1504,1.29498 2.76255,2.09813 4.04259,3.26514 1.95159,1.77926 3.84874,3.62354 5.64092,5.56327 5.96725,6.45854 11.42072,13.34044 16.44508,20.55936 3.36067,4.82855 6.42129,9.85916 9.63194,14.78873 12.13895,21.74505 6.65881,10.62334 16.46084,33.35505 21.46351,48.49554 90.04657,18.14154 68.58305,-30.354 v 0 c -13.86801,-30.76193 -6.34538,-16.03842 -22.40731,-44.25221 -4.21214,-6.34132 -8.21521,-12.82658 -12.63641,-19.02395 -12.28943,-17.22659 -27.37652,-35.12803 -45.1707,-46.96843 -2.92172,-1.94415 -6.06939,-3.52523 -9.10408,-5.28784 -48.60404,-21.21669 -78.60896,47.5198 -30.00493,68.73648 z"/>
<path d="m 309.39473,463.59115 c 10.54181,22.11532 15.15146,46.53564 20.56152,70.26691 5.82691,25.93073 11.92805,51.8274 19.89074,77.19995 1.53748,4.89908 3.23978,9.74491 4.85967,14.61736 16.79134,50.30458 87.93276,26.55804 71.14142,-23.74654 v 0 c -4.02503,-12.00173 -5.10267,-14.78068 -8.72407,-27.60126 -5.33559,-18.88923 -9.70747,-38.0311 -14.04996,-57.16644 -7.0929,-31.01196 -13.60532,-62.81552 -28.75167,-91.11196 -26.54619,-45.91078 -91.47384,-8.3688 -64.92765,37.54198 z"/>
<path d="m 466.84874,463.77774 c 19.42756,-8.35933 40.43489,-12.28539 61.1251,-16.08318 21.59998,-3.57423 43.44571,-5.49347 65.34379,-5.14236 10.82357,0.17355 13.65777,0.53379 23.97553,1.32549 6.6665,0.61422 13.31224,1.46604 19.87879,2.77787 1.9225,0.38407 4.19388,0.75635 6.06067,1.45181 -8.8317,-3.20718 -9.35199,-2.69298 -18.27173,-12.89405 -2.20167,-2.51795 -2.7648,-6.10952 -4.503,-8.96717 -0.18518,-0.30442 -0.31476,0.65974 -0.33368,1.01556 -0.12842,2.415 -0.0264,4.83737 -0.10611,7.25447 -0.13058,3.95917 -0.3498,7.91493 -0.5247,11.87239 -1.99366,32.87395 -6.64848,65.56934 -14.08076,97.65847 -1.68813,7.28856 -3.6574,14.50914 -5.4861,21.76371 -5.23989,19.56865 -13.5678,38.0042 -21.86884,56.39734 -21.71358,48.38409 46.71185,79.09174 68.42544,30.70765 v 0 c 2.98158,-6.67561 6.13319,-13.27785 8.94475,-20.02684 9.92535,-23.82512 9.37953,-24.01656 17.24643,-48.83644 2.04526,-8.19474 4.24823,-16.35172 6.13577,-24.58421 8.28519,-36.13565 13.45386,-72.95002 15.61821,-109.95538 0.3344,-8.42435 0.97117,-18.82438 0.52087,-27.37229 -0.2096,-3.97873 -0.21507,-8.0344 -1.21699,-11.89061 -1.45146,-5.5864 -2.79189,-11.47081 -6.08447,-16.21144 -9.04299,-13.01998 -12.45957,-13.27811 -23.71651,-18.01839 -13.4217,-3.70543 -27.23599,-5.72662 -41.0951,-6.93734 -12.73171,-0.9172 -16.74618,-1.38614 -29.98926,-1.52912 -26.33384,-0.28431 -52.60933,2.025 -78.57267,6.4027 -6.53899,1.22708 -13.10531,2.31657 -19.61699,3.68123 -21.7052,4.54879 -43.4718,10.41442 -63.46791,20.15981 -46.65513,25.21505 -10.99566,91.19537 35.65947,65.98032 z"/>
<path d="m 402.43481,645.32637 c 20.85369,-5.4982 42.05918,-10.01982 63.48086,-12.65429 7.72354,-0.94985 15.49249,-1.48448 23.23873,-2.22673 32.10071,-2.5669 64.14962,0.89189 96.01524,4.42674 52.71433,5.80515 60.92406,-68.74416 8.20973,-74.54932 v 0 c -8.28338,-0.90616 -16.55249,-1.95399 -24.85016,-2.71848 -28.82103,-2.65534 -57.80391,-4.16066 -86.7142,-1.79896 -9.12654,0.91687 -18.27943,1.60122 -27.3796,2.7506 -25.0906,3.16905 -49.95018,8.49445 -74.32605,15.17034 -50.62891,15.78647 -28.30347,87.38657 22.32545,71.6001 z"/>
<path d="m 130.45216,743.00192 c -1.32594,24.75776 -5.0937,49.29511 -8.25776,73.86017 -1.10524,8.58078 -2.16157,17.1678 -3.24235,25.7517 -2.90066,25.81273 -6.20101,51.72093 -6.0134,77.75672 0.0628,8.71322 0.81603,17.40777 1.22405,26.11166 2.74597,52.96187 77.64537,49.07849 74.8994,-3.88338 v 0 c -0.38678,-6.62548 -1.07463,-13.24023 -1.16034,-19.87643 -0.30595,-23.68933 2.87957,-47.25731 5.46303,-70.74139 4.34819,-34.54944 9.69064,-69.03393 11.90885,-103.80741 3.6569,-52.90678 -71.16458,-58.07842 -74.82148,-5.17164 z"/>
<path d="m 292.22258,728.97222 c 0.80793,2.7119 1.42488,5.48819 2.4238,8.13571 3.57607,9.47795 7.51982,17.1859 12.628,25.99883 6.18117,10.66414 13.77881,22.17818 21.12016,31.99546 4.63045,6.19211 9.61323,12.11276 14.41984,18.16914 30.43943,35.6252 67.50908,64.77702 107.24049,89.37139 8.56886,5.30426 17.39756,10.17677 26.09634,15.26515 34.06277,18.67553 69.66656,34.86256 107.09106,45.56074 21.63819,6.1855 27.62997,6.67956 49.34995,10.50397 25.31183,3.5515 50.95536,4.36293 76.42883,2.27667 10.4241,-0.85373 15.57207,-1.73601 25.60933,-3.1819 14.10738,-2.62295 33.378,-4.8125 44.38167,-14.92787 5.10537,-4.69323 8.65591,-10.83697 12.98387,-16.25546 7.41889,-16.40126 9.4078,-34.19153 12.28863,-51.73998 8.55911,-52.33776 -65.45766,-64.44217 -74.01677,-12.10441 v 0 c -0.88278,5.42122 -1.74427,10.84594 -2.64833,16.26364 -0.5507,3.30012 -1.52401,6.54925 -1.71589,9.88949 -0.022,0.38389 0.7576,0.13219 1.1364,0.19829 8.48684,-7.53705 4.81869,-5.66847 13.81781,-9.32099 0.21851,-0.0887 -0.36617,0.317 -0.59055,0.38952 -5.3394,1.72586 -11.00411,2.26494 -16.47106,3.39443 -7.28789,1.08204 -11.96938,1.87769 -19.43375,2.54006 -19.65877,1.74447 -39.46341,1.23966 -59.03037,-1.33155 -17.01231,-2.85257 -22.24686,-3.28748 -39.23274,-8.02609 -32.24193,-8.99464 -62.84222,-22.9748 -92.1812,-38.92564 -7.62833,-4.42785 -15.36842,-8.66853 -22.885,-13.28355 -33.01503,-20.27055 -64.09426,-44.0525 -89.61488,-73.35964 -3.88397,-4.82527 -7.90921,-9.54016 -11.65191,-14.47581 -8.85823,-11.68165 -17.19291,-24.27598 -23.61138,-37.50085 -0.28561,-0.5885 -0.48402,-1.21546 -0.72603,-1.82319 -11.52898,-51.76469 -84.7353,-35.46025 -73.20632,16.30444 z"/>
<path d="m 508.11984,715.49988 c 8.64965,11.55556 16.82165,23.47872 25.69861,34.86422 2.60442,3.3404 5.31446,6.59709 7.97169,9.89564 9.14595,11.30322 19.76269,21.18548 30.84735,30.52873 40.69122,34.01066 88.78956,-23.53541 48.09834,-57.54607 v 0 c -7.42934,-6.12573 -14.51649,-12.64351 -20.61926,-20.13165 -10.53551,-12.97702 -20.24127,-26.56514 -30.14286,-40.02665 -29.99248,-43.73729 -91.84636,-1.32151 -61.85387,42.41578 z"/>
<path d="m 767.83798,646.1946 c 17.92629,7.29839 34.39566,17.67718 50.47334,28.33336 11.2923,7.5144 21.96096,15.88255 32.58095,24.29981 41.59691,32.89677 88.11997,-25.93013 46.52307,-58.8269 v 0 c -12.32732,-9.73059 -24.7139,-19.3998 -37.81616,-28.08531 -4.74084,-3.11319 -9.41914,-6.32378 -14.22253,-9.33957 -17.06734,-10.71565 -34.99891,-20.41726 -53.86956,-27.54861 -50.32283,-16.73658 -73.99193,54.43064 -23.66911,71.16722 z"/>
</svg>
