<?xml version="1.0" ?>
<svg xmlns="http://www.w3.org/2000/svg" width="1000" height="1000">
<path d="m 95.815443,338.40614 c 2.421969,18.8338 5.372907,37.55057 10.074537,55.97521 1.81702,7.12054 3.97994,14.1483 5.96992,21.22246 9.46366,29.8562 18.57267,59.81712 27.26608,89.90601 14.7222,50.94857 86.77436,30.12824 72.05216,-20.82033 v 0 c -8.66129,-29.97 -17.69481,-59.82631 -27.16465,-89.55174 -4.23616,-14.78697 -5.68198,-18.73078 -8.72148,-33.39124 -2.68289,-12.94037 -3.76401,-26.10402 -6.14859,-39.08863 -11.1357,-51.85071 -84.463683,-36.10244 -73.327977,15.74826 z"/>
<path d="m 309.83633,306.04468 c 4.04002,11.94427 9.39707,23.38769 14.22558,35.02144 5.57412,13.4302 4.93823,12.10272 10.1231,25.92023 3.53998,10.82282 5.33594,15.50237 7.90975,26.56923 1.07644,4.62845 1.85274,9.32161 2.77911,13.98241 10.62026,51.95874 84.101,36.93943 73.48075,-15.01931 v 0 c -1.29807,-6.22208 -2.40795,-12.48641 -3.89421,-18.66624 -3.34538,-13.90996 -5.60945,-19.80157 -10.08093,-33.2808 -1.90539,-5.0508 -3.74817,-10.12566 -5.71616,-15.15239 -5.39184,-13.77216 -11.5326,-27.23129 -17.00327,-40.96979 -15.27012,-50.78704 -87.09384,-29.19182 -71.82372,21.59522 z"/>
<path d="m 230.19244,132.72405 c -0.0591,33.69188 -0.31656,67.38276 -0.63728,101.07318 -1.10029,82.35724 -1.80071,164.71617 -1.87513,247.0807 0.1946,96.55664 0.4151,193.11173 -0.0672,289.66775 -0.0301,39.86344 -0.59648,79.71841 -1.41207,119.57192 -1.08223,53.02196 73.90216,54.55246 74.98438,1.5305 v 0 c 0.8192,-40.23891 1.39754,-80.47917 1.42675,-120.72804 0.4822,-96.65838 0.26439,-193.31584 0.0681,-289.97485 0.0732,-82.14906 0.77532,-164.29249 1.87177,-246.43429 0.31575,-33.19151 0.60356,-66.38375 0.60811,-99.57702 1.5626,-53.009976 -73.40484,-55.219829 -74.96744,-2.20985 z"/>
<path d="m 457.11354,224.61259 c 24.63943,-10.24724 50.8523,-16.10982 76.69899,-22.41215 44.45415,-9.91094 89.68289,-16.16609 135.10919,-19.30915 7.9614,-0.55086 15.93702,-0.87229 23.90553,-1.30843 26.82919,-1.04145 53.85612,-1.17418 80.43262,3.08033 1.21053,0.26235 2.42904,0.49024 3.63159,0.78704 0.52144,0.1287 1.03932,0.28268 1.5355,0.48827 0.0927,0.0384 -0.2047,0.0551 -0.29994,0.0237 -0.84625,-0.27922 -1.70914,-0.53654 -2.49985,-0.94749 -1.62691,-0.84556 -3.29204,-1.67061 -4.72894,-2.80952 -2.17702,-1.72553 -4.0324,-3.82194 -6.0486,-5.73292 -6.13079,-10.80814 -5.13988,-7.03913 -7.30148,-15.73402 -0.11087,-0.44595 -0.13726,-1.80653 -0.23724,-1.35801 -0.17127,0.76834 0.0175,1.57436 0.0135,2.36154 -0.009,1.7709 -0.005,3.54221 -0.0522,5.3125 -0.0732,2.74717 -0.20601,5.49243 -0.30902,8.23864 -1.54764,37.34214 -7.53375,74.24924 -13.98839,110.99544 -1.57787,8.04299 -3.01156,16.1156 -4.73362,24.12895 -1.73621,8.07919 -3.57006,16.14064 -5.63953,24.14096 -7.83196,30.27742 -18.42776,59.74726 -29.15339,89.08907 -18.19334,49.81468 52.25526,75.54394 70.4486,25.72926 v 0 c 8.52486,-23.36095 16.96294,-46.75437 24.10784,-70.58602 6.10944,-20.37791 9.4026,-33.23544 13.83793,-53.95707 1.81934,-8.4999 3.33681,-17.06163 5.00522,-25.59244 7.02689,-40.14475 13.44611,-80.4778 15.06753,-121.27066 0.25807,-7.52399 0.69165,-15.12526 0.2851,-22.65853 -0.22592,-4.18641 -0.73319,-9.80745 -2.29635,-13.59063 -1.74047,-4.2123 -4.30161,-8.03661 -6.45241,-12.05491 -2.41345,-2.40834 -4.61215,-5.05306 -7.24035,-7.22501 -8.84501,-7.30956 -20.52259,-9.75711 -31.44998,-11.89098 -8.82742,-1.34085 -10.8968,-1.77237 -20.34724,-2.64538 -25.17135,-2.32528 -50.49282,-2.2706 -75.72969,-1.2076 -8.65102,0.48328 -17.30989,0.84228 -25.95307,1.44983 -49.33666,3.46803 -98.45252,10.33998 -146.71668,21.1956 -29.96377,7.33209 -60.2742,14.34189 -88.74933,26.4651 -48.65227,21.10584 -18.80411,89.91054 29.84816,68.8047 z"/>
<path d="m 506.59742,336.23177 c 25.41521,-3.21757 50.84483,-6.29524 76.31616,-9.05261 40.53069,-4.12454 81.26543,-5.80367 121.99268,-5.4873 17.01141,0.69391 8.97262,0.23339 24.12089,1.30017 52.9076,3.64502 58.06244,-71.17762 5.15484,-74.82264 v 0 c -18.15875,-1.22804 -8.57956,-0.70711 -28.74217,-1.47564 -6.14464,-0.0401 -12.28926,-0.1575 -18.43392,-0.12027 -37.45661,0.22692 -74.89602,2.39772 -112.16952,6.04188 -24.43793,2.64897 -48.86783,5.39908 -73.21701,8.7818 -52.91606,3.52001 -47.93801,78.35462 4.97805,74.83461 z"/>
<path d="m 484.91876,458.46199 c 21.72645,-1.47792 43.34254,-4.25015 65.00594,-6.4324 28.92452,-2.43712 57.93961,-3.97727 86.96659,-4.38087 19.0115,-0.26435 26.23414,-0.0177 45.09853,0.27286 19.32938,0.37975 38.63286,1.43207 57.9315,2.5239 52.94876,2.98809 57.17456,-71.89276 4.2258,-74.88085 v 0 c -20.32885,-1.14448 -40.6629,-2.24549 -61.02408,-2.63449 -20.28882,-0.30108 -27.62331,-0.5553 -48.10943,-0.25791 -30.9128,0.44873 -61.81266,2.10187 -92.61359,4.73579 -20.54093,2.07334 -41.03964,4.67231 -61.6322,6.16892 -52.95172,2.93516 -48.80078,77.8202 4.15094,74.88505 z"/>
<path d="m 434.3196,216.02712 c 1.00188,18.31754 0.784,36.68279 0.69729,55.01961 -0.24509,53.38971 -2.65225,106.73257 -4.94389,160.06344 -3.00501,69.01378 -5.41269,138.05168 -8.08055,207.07895 -2.05319,52.24459 -4.02336,104.49208 -5.26702,156.76288 -0.59931,22.84142 -0.30556,45.68964 0.58601,68.51749 0.0367,0.83063 0.28835,7.42761 0.48024,8.35181 4.99782,24.07105 8.15688,29.40557 48.60355,34.64806 10.52213,1.36383 22.53915,-15.59682 28.63579,-23.16087 17.28082,-23.35931 33.88764,-47.21803 51.26597,-70.5055 14.60496,-19.57107 23.01021,-29.94029 38.28583,-49.29382 6.80466,-8.96854 13.60932,-17.93707 20.41398,-26.90561 32.04664,-42.25533 -27.71142,-87.57612 -59.75806,-45.32079 v 0 c -6.51149,8.58957 -13.02298,17.17915 -19.53447,25.76872 -16.49524,20.91179 -24.2396,30.43372 -40.0358,51.60196 -16.8773,22.61699 -33.04581,45.7607 -49.75465,68.50142 -8.18168,11.39241 3.23124,-5.79567 12.09978,-3.39806 45.82648,12.3892 39.29525,9.46065 44.5601,32.35048 0.4172,1.81389 -1.71555,-12.33213 -0.31978,-5.57457 -0.83596,-21.25549 -1.11273,-42.52992 -0.54967,-63.79832 1.23266,-51.8994 3.1962,-103.77538 5.23225,-155.64878 2.66362,-68.91956 5.06757,-137.84973 8.06736,-206.75583 2.33249,-54.28767 4.76867,-108.58789 5.01222,-162.93544 0.091,-20.01673 0.29861,-40.06239 -0.84319,-60.05601 -3.31547,-52.92927 -78.16876,-48.24049 -74.85329,4.68878 z"/>
<path d="m 771.56311,498.3169 c -21.22388,14.83999 -43.33786,28.32343 -65.42516,41.82606 -19.67399,11.71416 -40.30144,21.67955 -60.79098,31.85132 -47.49714,23.5907 -14.13485,90.76181 33.36229,67.17111 v 0 c 22.45139,-11.15618 45.02656,-22.13795 66.55338,-35.03604 22.11911,-13.52744 44.35366,-26.93318 65.54405,-41.8989 45.1937,-27.7494 5.95013,-91.66295 -39.24358,-63.91355 z"/>
<path d="m 527.26234,576.34714 c 15.17611,14.76039 32.25836,27.42897 48.89392,40.4721 29.50344,22.85337 58.27657,46.63066 86.48519,71.05908 20.09972,17.35388 39.42381,35.55612 57.94783,54.57526 11.34775,11.65492 22.60721,23.65601 35.81571,33.26825 3.32201,2.41753 6.81725,4.58757 10.22588,6.88135 28.57375,17.17366 61.47237,24.12381 94.19151,28.23779 9.06568,1.13989 18.18215,1.8311 27.27323,2.74665 52.77503,5.2246 60.16373,-69.41056 7.3887,-74.63516 v 0 c -24.30324,-2.35783 -49.02473,-4.33332 -72.32664,-12.20467 -6.94259,-2.34519 -9.16145,-3.69945 -15.30872,-6.80296 -1.72426,-1.08274 -3.50035,-2.08702 -5.17277,-3.24823 -10.67411,-7.4113 -19.22644,-17.49417 -28.37519,-26.58853 -20.01448,-20.52538 -40.8658,-40.19815 -62.57216,-58.93451 -29.13621,-25.21325 -58.83271,-49.78038 -89.29798,-73.37687 -10.34777,-8.11243 -20.78684,-16.1345 -30.93211,-24.50197 -2.87564,-2.37174 -5.60223,-4.92047 -8.47835,-7.29163 -0.0331,-0.0273 -0.0444,0.0733 -0.0667,0.1099 -35.5209,-39.37976 -91.21229,10.85439 -55.69139,50.23415 z"/>
</svg>
