<?xml version="1.0" ?>
<svg xmlns="http://www.w3.org/2000/svg" viewBox="0 0 1000 1000">
<path d="m 45.508678,333.08436 c 1.749878,16.73966 6.755799,32.84563 11.818015,48.81514 3.796536,11.97673 7.714004,23.9148 11.55713,35.87666 2.234352,6.58491 4.398,13.19423 6.703056,19.75473 5.191664,14.77616 9.268181,25.71803 15.294021,40.16093 6.585444,15.78418 13.94849,31.22461 21.23908,46.68938 1.64022,3.42792 3.28044,6.85584 4.92066,10.28375 22.89286,47.8374 90.54516,15.462 67.6523,-32.3754 v 0 c -1.57863,-3.29825 -3.15726,-6.59651 -4.73589,-9.89476 -6.65122,-14.1033 -13.40736,-28.1745 -19.44078,-42.55821 -5.5304,-13.18452 -9.14267,-22.87169 -13.9125,-36.4221 -2.1719,-6.17006 -4.20987,-12.38645 -6.31481,-18.57968 -3.78967,-11.79528 -7.616,-23.57878 -11.39833,-35.37641 -3.41054,-10.63798 -6.96328,-21.27903 -8.62187,-32.3682 -4.23852,-52.86336 -78.998602,-46.86919 -74.760082,5.99417 z"/>
<path d="m 303.27586,310.56366 c 5.06275,6.83736 10.20219,13.66002 14.29057,21.14651 3.83032,7.01391 4.7039,9.76026 7.87553,17.41859 8.53516,21.69082 15.34377,43.99538 21.96674,66.32606 15.08913,50.8411 86.98931,29.50186 71.90019,-21.33925 v 0 c -7.43873,-25.04782 -15.12595,-50.05743 -24.8472,-74.33433 -2.09543,-4.84459 -4.0247,-9.76449 -6.2863,-14.53377 -6.88829,-14.52607 -15.84467,-27.87796 -25.60285,-40.60661 -32.47233,-41.92909 -91.76901,3.99372 -59.29668,45.9228 z"/>
<path d="m 210.70956,81.882837 c 0,24.646463 0,49.292923 0,73.939383 0.13348,74.41378 0.063,148.82366 -0.9741,223.23097 -1.26343,65.30733 -3.9497,130.57463 -5.83678,195.86437 -1.1378,39.36613 -1.52696,59.84093 -2.39702,99.06627 -1.03963,44.03494 -1.43284,88.08391 -2.61162,132.11587 -0.82479,30.80942 -1.39405,42.01886 -2.64865,72.42003 -2.18438,52.988 72.75198,56.07718 74.93635,3.08917 v 0 c 1.28503,-31.20481 1.8481,-42.23249 2.69448,-73.87428 1.17756,-44.02273 1.57376,-88.06235 2.61101,-132.08807 0.85984,-38.78555 1.25351,-59.44987 2.37799,-98.35856 1.89968,-65.73202 4.60643,-131.44142 5.86698,-197.19143 1.03822,-74.75513 1.11871,-149.51273 0.98136,-224.27434 0,-24.64646 0,-49.29292 0,-73.939383 0,-53.033009 -75,-53.033009 -75,0 z"/>
<path d="m 459.04952,74.164777 c 0.18934,16.188697 0.34411,32.435733 -1.34012,48.564083 -0.59578,5.70533 -1.53513,11.36955 -2.30269,17.05433 -1.25648,6.25215 -2.37041,12.53465 -3.76946,18.75646 -1.51088,6.71922 -3.24465,13.38681 -4.95822,20.05721 -5.04695,19.64631 -10.50977,39.20118 -16.71819,58.5145 -1.74887,5.44043 -3.63591,10.83547 -5.45386,16.2532 -5.42491,15.63771 -11.45156,31.10217 -18.97394,45.85847 -7.75887,18.74568 -13.79055,29.28099 18.17991,53.41891 9.94902,7.51158 24.94244,-1.55264 37.20602,-3.79127 2.507,-0.45764 4.23637,-2.83626 6.40783,-4.17015 6.61801,-4.06531 8.74622,-4.91985 16.20568,-8.69868 31.09984,-14.22512 63.84683,-24.69299 97.23729,-32.00344 8.90384,-1.9494 17.88668,-3.51861 26.83002,-5.27792 36.95236,-6.63278 74.37856,-10.39531 111.8905,-11.69718 21.35889,-0.74127 28.20755,-0.42947 49.2093,-0.18793 24.46818,0.55387 48.88331,2.39983 73.15831,5.47296 52.6181,6.62082 61.98136,-67.79241 9.36326,-74.41324 v 0 c -27.11605,-3.39407 -54.38103,-5.48763 -81.71107,-6.05534 -23.00374,-0.23401 -30.45284,-0.56589 -53.85364,0.28161 -41.11893,1.48917 -82.13798,5.69289 -122.63339,13.0293 -10.03228,2.00042 -20.11076,3.78172 -30.09684,6.00127 -39.0805,8.68619 -77.38858,21.14176 -113.66163,38.13626 -4.40026,2.2826 -8.85774,4.4581 -13.20076,6.8478 -3.33866,1.83706 -6.58664,3.83561 -9.8353,5.82752 -1.42548,0.87404 -5.85074,2.64131 -4.18345,2.76808 10.64655,0.80947 24.08695,-7.79185 32.02519,-0.65123 29.96706,26.95601 26.41304,32.7555 18.3235,49.14269 9.15409,-18.05321 16.6542,-36.88938 23.23196,-56.02415 2.00189,-5.98975 4.07865,-11.95499 6.00565,-17.96926 6.63582,-20.71074 12.53369,-41.67872 17.89061,-62.7549 1.98051,-7.79209 3.98901,-15.58057 5.70423,-23.43532 1.7029,-7.79828 3.03147,-15.67361 4.54721,-23.51042 0.92054,-7.223 2.04339,-14.4231 2.76161,-21.66902 1.89066,-19.07421 1.77885,-38.290741 1.42049,-57.428869 -2.65425,-52.966546 -77.56025,-49.21288 -74.90601,3.753666 z"/>
<path d="m 507.94718,374.71151 c 0.0577,0.93885 0.15985,1.87601 0.1731,2.81653 0.10442,7.40865 -0.74979,15.05116 -1.25055,22.40434 -1.44568,21.22879 -0.83928,12.95596 -2.87973,36.12211 -0.97396,7.59504 -1.77727,15.21393 -2.92186,22.78513 -3.04451,20.13864 -6.1174,34.64689 -10.30759,54.78723 -6.62597,31.848 -13.61905,63.61529 -20.72144,95.35959 -10.20277,46.10772 -23.02316,91.55054 -36.83537,136.68637 -2.40077,8.94515 -5.83979,17.59603 -8.28132,26.52829 -0.64623,2.36421 -1.66269,4.69983 -1.71411,7.15024 -0.14341,6.83337 -2.28813,14.55698 1.1344,20.47322 6.12786,10.59272 17.20792,17.4044 25.81189,26.1066 5.94498,0.73669 11.85441,1.86563 17.83496,2.21008 3.2131,0.18506 6.42273,-0.4262 9.63483,-0.62793 3.31853,-0.20842 6.63532,-0.45209 9.95699,-0.60249 9.29711,-0.42095 18.08188,-0.59253 27.4276,-0.37375 5.98318,0.14006 11.95924,0.49852 17.93887,0.74778 48.50445,3.04335 96.26483,12.61588 143.76444,22.42247 33.47752,7.10401 66.7362,15.16894 99.53137,24.95477 50.82892,15.13016 72.2262,-56.75277 21.39729,-71.88294 v 0 c -34.86523,-10.35569 -70.1869,-19.01623 -105.77534,-26.52506 -51.50276,-10.61718 -103.30951,-20.8423 -155.91699,-23.90919 -6.97009,-0.26927 -13.93644,-0.66494 -20.91027,-0.80783 -11.06109,-0.22662 -21.03433,0.005 -32.00548,0.5118 -3.60865,0.16663 -7.21345,0.4113 -10.8174,0.65973 -1.70347,0.11743 -6.46198,-0.59707 -5.10379,0.43778 2.39199,1.82253 5.81269,1.54453 8.71903,2.31679 6.92358,8.08993 15.90161,14.80013 20.77075,24.26979 2.4101,4.68723 -0.14456,10.54029 -0.16198,15.81081 -10e-4,0.37354 0.0134,-0.75497 0.11341,-1.11487 0.56792,-2.04364 1.25001,-4.05384 1.88531,-6.07754 6.52562,-20.78695 -1.2841,4.33681 6.48373,-20.73542 14.37002,-46.97407 27.68385,-94.27461 38.30821,-142.25654 7.21041,-32.23728 14.33354,-64.49493 21.03744,-96.84238 4.64696,-22.42242 7.86042,-37.75098 11.20305,-60.22913 1.26881,-8.53239 2.15477,-17.11734 3.23215,-25.676 2.07106,-23.67545 1.56616,-16.45623 3.00651,-37.77637 0.46691,-6.91116 1.16589,-16.714 1.32311,-23.83359 0.13283,-6.01511 0.0351,-6.64361 -0.25207,-11.29045 -3.53556,-52.91502 -78.36871,-47.91499 -74.83315,5.00003 z"/>
<path d="m 585.2875,424.18727 c -0.38234,0.35378 -1.65929,0.96688 -1.14702,1.06132 0.8418,0.1552 1.61416,-0.57184 2.43204,-0.8244 1.75932,-0.54327 3.51276,-1.11267 5.2982,-1.56268 2.75321,-0.69393 5.52227,-1.3324 8.31073,-1.86739 10.74063,-2.0607 15.52997,-2.47667 26.83479,-3.93009 36.72322,-3.95623 73.68973,-4.42558 110.58606,-4.15976 19.03305,0.3382 38.069,1.20108 57.00591,3.18059 -7.04585,-0.0674 6.08387,0.36551 4.56644,0.59808 -0.44497,0.0682 -0.91101,-0.0426 -1.33755,-0.18653 -2.82538,-0.95326 -5.94164,-1.39805 -8.39262,-3.09635 -4.67324,-3.23811 -9.38694,-6.79497 -12.62601,-11.46755 -3.0301,-4.37114 -3.77595,-9.94463 -5.66393,-14.91694 -0.0934,-1.60597 -0.097,-3.21968 -0.28009,-4.81791 -0.0352,-0.30754 -0.12625,0.60664 -0.16719,0.91347 -0.18769,1.40675 -0.36198,2.81541 -0.51852,4.22598 -0.89031,8.02232 -1.49041,16.07076 -2.1363,24.11531 -1.91697,29.33901 -5.57427,58.50482 -9.28892,87.6567 -0.84937,6.50718 -1.63188,13.02344 -2.5481,19.52155 -1.908,13.53198 -4.03741,27.23804 -6.82614,40.62023 -4.59588,22.05415 -10.89178,43.6978 -17.00645,65.3616 -9.96385,34.63319 -22.16905,68.67479 -37.21839,101.44031 -2.54626,5.54374 -5.33928,10.97079 -8.00891,16.45618 -10.06178,18.61073 -21.24771,36.67778 -35.20947,52.63712 -9.36244,10.70197 -10.45269,11.26347 -20.79584,21.0277 -15.84033,13.12151 -7.86573,6.75754 -23.913,19.10545 -41.96845,32.42143 3.88238,91.77378 45.85083,59.35235 v 0 c 19.61763,-15.20516 9.64361,-7.15941 29.85828,-24.2161 12.76611,-12.29521 15.74058,-14.55054 27.14598,-27.89838 17.55148,-20.54065 31.98463,-43.438 44.55888,-67.30745 3.10394,-6.43153 6.34013,-12.8009 9.31183,-19.2946 16.40469,-35.84717 29.70018,-73.08358 40.60449,-110.94646 6.74038,-23.92227 13.56554,-47.8139 18.58883,-72.17445 3.02951,-14.69163 5.33566,-29.60703 7.42831,-44.45693 0.92638,-6.57379 1.71827,-13.16583 2.5774,-19.74875 3.86152,-30.30941 7.63783,-60.63643 9.65018,-91.13824 0.56083,-6.99588 1.04882,-14.00587 1.81874,-20.98331 0.12523,-1.13485 1.01116,-8.03423 1.04282,-8.78667 0.12535,-2.97876 0.0149,-5.96278 0.0224,-8.94417 -1.98856,-5.87782 -2.62287,-12.40575 -5.96566,-17.63346 -9.06089,-14.1701 -22.2503,-18.16069 -37.38046,-19.61713 -21.33787,-2.20123 -42.77881,-3.24066 -64.22489,-3.57942 -40.32345,-0.27227 -80.72468,0.31428 -120.84385,4.79242 -23.04375,3.06104 -48.08269,5.87091 -69.06701,16.71462 -2.7165,1.40376 -5.24154,3.15056 -7.8623,4.72583 -42.46057,31.77421 2.47495,91.82252 44.93552,60.04831 z"/>
<path d="m 630.90187,441.08066 c -1.8713,18.22421 -2.11648,36.59588 -4.09441,54.80826 -0.65517,6.03272 -1.64244,12.02473 -2.46366,18.0371 -6.61312,32.16283 -14.88094,64.04505 -25.28421,95.19995 -6.44959,19.31472 -12.13412,33.91071 -19.296,52.97894 -9.63954,25.35917 -21.59445,49.71059 -33.50938,74.04595 -23.29742,47.64169 44.0781,80.58922 67.37552,32.94753 v 0 c 12.9433,-26.49842 25.89261,-53.03048 36.35229,-80.64253 7.81955,-20.85398 13.61122,-35.70249 20.64627,-56.90399 11.68705,-35.22123 21.04653,-71.26405 28.05579,-107.70002 0.96389,-7.35735 2.09853,-14.69433 2.89167,-22.07204 1.93605,-18.00893 2.2235,-36.16654 4.04291,-54.18752 4.60442,-52.83275 -70.11237,-59.34437 -74.71679,-6.51163 z"/>
<path d="m 348.12726,626.26327 c 3.46167,-1.04468 5.28211,-1.62301 9.25332,-2.60584 9.10165,-2.25258 15.32252,-3.45258 24.86686,-5.39215 21.13958,-4.29592 19.21258,-3.86103 41.90671,-8.23612 54.55627,-10.01548 109.67009,-16.96915 164.98169,-21.10243 12.90265,-0.96418 25.8257,-1.63258 38.73854,-2.44888 50.89396,-2.29646 101.92418,-2.74934 152.81928,-0.17345 27.29452,1.38143 35.0856,2.37833 61.66144,4.85734 26.57017,2.7104 52.97562,6.70735 79.33605,10.94419 52.36185,8.41049 64.25607,-65.64036 11.89422,-74.05084 v 0 c -28.00835,-4.49596 -56.06744,-8.71813 -84.30032,-11.5725 -28.48955,-2.63084 -36.6154,-3.67011 -65.85606,-5.12829 -53.3904,-2.66249 -106.91988,-2.1837 -160.30574,0.27419 -13.49047,0.85968 -26.9917,1.5646 -40.47142,2.57905 -57.90046,4.35746 -115.59134,11.66968 -172.69885,22.17838 -21.10352,4.07064 -23.04245,4.37996 -42.90329,8.43531 -14.66763,2.99496 -29.414,5.91524 -43.64916,10.63534 -50.06789,17.48443 -25.34117,88.29114 24.72673,70.8067 z"/>
</svg>
