<?xml version="1.0" ?>
<svg xmlns="http://www.w3.org/2000/svg" width="1000" height="1000">
<path d="m 185.40351,240.74718 c 24.49157,-4.18867 48.78668,-9.43985 73.29072,-13.56299 9.98905,-1.68079 20.01035,-3.16392 30.01552,-4.74587 68.67994,-9.68295 137.88732,-15.56832 207.16407,-18.75533 14.44907,-0.66472 28.90921,-1.06161 43.36382,-1.59241 47.08139,-1.18954 94.24685,-1.33269 141.28172,1.42491 8.96005,0.52532 17.90286,1.31222 26.85429,1.96832 52.89319,3.84842 58.33567,-70.95385 5.44248,-74.80226 v 0 c -9.64335,-0.69682 -19.27776,-1.53103 -28.93005,-2.09045 -49.07706,-2.84441 -98.28753,-2.70981 -147.41163,-1.4496 -14.91246,0.55188 -29.83067,0.96577 -44.73739,1.65566 -71.82086,3.32392 -143.56751,9.46437 -214.76202,19.56487 -10.54191,1.67298 -21.10036,3.24488 -31.62573,5.01895 -24.15552,4.07148 -48.11085,9.21807 -72.24879,13.38217 -52.31461,8.69953 -40.01162,82.68356 12.30299,73.98403 z"/>
<path d="m 217.22428,310.9536 c -0.26323,22.50773 0.61125,44.98589 1.87991,67.45171 2.89916,39.12732 8.80604,77.9756 16.15322,116.49418 3.6946,16.81823 1.82285,8.88621 5.5406,23.81357 12.88688,51.44344 85.6389,33.21863 72.75201,-18.22481 v 0 c -3.07439,-12.18512 -1.50645,-5.63153 -4.62802,-19.67877 -6.76676,-35.26946 -12.17386,-70.85009 -14.9394,-106.67299 -1.21218,-21.04343 -2.00871,-42.09913 -1.75832,-63.18289 0,-53.033 -75,-53.033 -75,0 z"/>
<path d="m 287.03864,362.11603 c 15.35463,-4.81214 31.3822,-6.91016 47.28142,-8.99828 24.17871,-2.85008 48.5565,-4.29227 72.90105,-3.34112 3.66351,0.14313 7.31934,0.44076 10.97901,0.66114 10.3693,0.96198 20.76976,2.47406 30.75657,5.51014 0.15669,0.0732 0.643,0.22246 0.47008,0.21959 -0.87339,-0.0145 -1.67377,-0.53853 -2.43708,-0.96324 -5.90517,-3.28571 -8.39211,-5.68396 -13.1352,-12.57423 -1.79418,-2.60641 -2.4403,-5.83907 -3.66046,-8.7586 -0.14122,-0.15872 -0.39543,-0.68675 -0.42366,-0.47618 -0.24227,1.8068 -0.14578,3.64314 -0.24505,5.4634 -0.44692,8.19483 -0.92189,15.43973 -1.65235,23.71259 -1.51417,17.14868 -1.59523,16.30061 -3.88595,33.92172 -3.29729,23.916 -10.45021,46.99531 -17.69193,69.93967 -15.91546,50.58852 55.62751,73.09638 71.54297,22.50787 v 0 c 8.52314,-27.16907 16.74291,-54.53949 20.53307,-82.85568 0.85516,-6.67965 1.80704,-13.34763 2.56547,-20.03896 1.11251,-9.81522 2.17954,-22.67729 2.85667,-32.70018 0.34853,-5.15887 1.07567,-17.15233 0.92703,-22.6906 -0.0941,-3.50629 -0.52659,-6.99531 -0.78988,-10.49296 -1.56093,-4.75242 -2.19017,-9.92035 -4.68279,-14.25727 -7.02661,-12.22559 -16.77705,-18.00649 -29.37651,-21.98184 -15.45068,-4.39858 -31.31441,-7.19678 -47.34601,-8.36043 -4.6063,-0.25708 -9.20845,-0.6045 -13.8189,-0.77125 -28.14321,-1.01788 -56.32358,0.64172 -84.26911,3.98043 -20.57378,2.76263 -41.26157,5.72201 -61.06784,12.17714 -50.32276,16.73678 -26.65338,87.90391 23.66938,71.16713 z"/>
<path d="m 313.17986,515.41029 c 19.80356,-6.79348 40.47983,-10.32352 61.03019,-14.00266 15.72269,-2.37371 22.82048,-3.68072 38.67113,-5.13075 6.6514,-0.60847 13.32654,-0.92142 19.98981,-1.38213 52.89988,-3.75535 47.58902,-78.56707 -5.31086,-74.81173 v 0 c -7.76671,0.56367 -15.54721,0.96176 -23.30012,1.69101 -17.79783,1.67408 -25.75955,3.14121 -43.32784,5.8183 -19.32163,3.49031 -38.64155,6.87932 -57.52766,12.35969 -9.13856,2.65183 -16.99745,5.35677 -25.506,9.48042 -2.42509,1.17532 -4.67025,2.69045 -7.00538,4.03568 -43.79973,29.90123 -1.513,91.8434 42.28673,61.94217 z"/>
<path d="m 239.70947,675.11531 c 34.91023,-7.79147 69.58531,-16.58773 104.27775,-25.28461 26.70653,-6.43481 35.32014,-8.77843 62.54654,-14.22758 10.92613,-2.18678 21.91005,-4.07416 32.86508,-6.11124 52.13513,-9.71745 38.39258,-83.44765 -13.74254,-73.7302 v 0 c -11.63013,2.17255 -23.29082,4.18745 -34.89038,6.51767 -28.31996,5.68915 -37.43582,8.15427 -65.01615,14.8025 -33.9157,8.50253 -67.81333,17.10605 -101.93866,24.73788 -51.8278,11.24183 -35.92945,84.53741 15.89836,73.29558 z"/>
<path d="m 465.69816,75.608693 c 1.84546,29.147447 8.16433,57.731817 14.19076,86.228457 11.3563,53.33679 26.33946,105.87251 44.77529,157.19407 4.22101,11.75043 8.78817,23.37363 13.18225,35.06044 18.03773,46.38413 39.56446,91.33107 64.09613,134.62152 14.83898,26.186 19.55581,33.02964 35.40038,58.1586 27.21144,41.98715 56.89633,82.27399 87.21465,122.04696 11.7946,15.27755 23.73589,30.47912 36.82145,44.68514 5.23918,5.68779 7.44862,7.7771 12.69257,12.97967 10.98514,10.35669 26.48266,23.84906 43.6479,18.11167 29.74032,-9.94054 29.15906,-20.89451 35.59673,-42.62138 1.10625,-6.43731 2.3059,-12.85927 3.31874,-19.31194 3.72354,-23.7221 3.74291,-28.53681 7.99846,-53.24226 4.95339,-28.75681 6.76158,-35.16821 13.18786,-63.97761 11.514,-51.76802 -61.69703,-68.05128 -73.21103,-16.28326 v 0 c -2.59157,11.68354 -5.37278,23.32662 -7.77471,35.05061 -6.8247,33.31191 -11.25348,66.98 -16.51701,100.55003 5.51436,11.16527 -4.47955,-7.78862 26.67574,-14.39336 7.70662,-1.63375 15.3961,3.3942 22.96983,5.56209 0.73345,0.20994 1.71457,0.74321 1.72336,1.50606 0.025,2.16422 -6.77281,-9.51441 -4.88191,-4.28103 -15.60174,-15.35914 -29.37364,-32.3825 -42.60338,-49.80444 -28.98404,-38.01608 -57.38729,-76.50429 -83.43897,-116.61279 -14.8503,-23.49425 -19.10238,-29.62968 -33.02737,-54.12613 -22.85245,-40.2014 -42.90853,-81.94712 -59.6993,-125.04442 -4.14164,-10.9847 -8.44605,-21.9094 -12.42492,-32.9541 -17.45264,-48.44569 -31.6333,-98.04474 -42.34974,-148.41126 -5.34358,-25.19978 -11.11202,-50.463765 -12.7696,-76.244027 -3.92634,-52.88746 -78.72051,-47.33477 -74.79416,5.55269 z"/>
<path d="m 672.61093,364.0443 c -0.0462,1.33969 0.0305,2.68931 -0.13871,4.01907 -1.14597,9.00309 -6.43468,22.71526 -9.6672,30.50357 -8.30107,20.00024 -10.21275,22.08632 -21.20928,42.13835 -22.68097,38.30324 -49.08857,74.22578 -78.50351,107.61901 -19.61136,22.26374 -26.23435,28.20233 -47.11884,49.02774 -37.51593,37.48406 15.49454,90.5396 53.01047,53.05554 v 0 c 22.8312,-22.8532 30.08997,-29.38578 51.53284,-53.83983 32.66028,-37.2467 61.9425,-77.34035 86.99924,-120.09198 5.01251,-9.31774 10.36253,-18.46165 15.03752,-27.95323 3.94541,-8.0103 7.48842,-16.22149 10.80396,-24.51236 7.62401,-19.06469 14.04304,-39.25381 14.25351,-59.96588 0,-53.03301 -75,-53.03301 -75,0 z"/>
<path d="m 699.91272,80.209713 c 15.08572,6.33672 29.958,13.358702 44.16584,21.496547 4.59326,2.63089 9.05637,5.48275 13.58455,8.22412 4.2951,2.78598 8.59019,5.57195 12.88528,8.35793 44.53,28.80241 85.26277,-34.172527 40.73277,-62.974937 v 0 c -4.98468,-3.21626 -9.96935,-6.43253 -14.95403,-9.6488 -5.5802,-3.3401 -11.08477,-6.80992 -16.7406,-10.02029 -17.86333,-10.1396 -36.84677,-19.16377 -56.00438,-26.6016802 -50.32275,-16.7368098 -73.99218,54.4303002 -23.66943,71.1671102 z"/>
<path d="m 103.96681,768.96452 c -5.83954,22.14537 -12.78378,43.97066 -18.18706,66.23922 -1.81172,7.4666 -3.40311,14.985 -5.10466,22.4775 -4.3342,19.8966 -7.40074,40.0245 -10.39967,60.1529 -7.79503,52.4571 66.39038,63.4809 74.18541,11.0239 v 0 c 2.70797,-18.2757 5.4655,-36.5528 9.36464,-54.6232 1.52081,-6.7471 2.93865,-13.5182 4.56241,-20.2412 5.36491,-22.2131 12.36915,-43.95821 18.13984,-66.05773 13.41481,-51.30831 -59.14611,-70.27971 -72.56091,-18.97139 z"/>
<path d="m 234.14033,759.187 c 1.06479,2.3153 1.98652,4.7019 3.19437,6.94589 2.74883,5.10689 6.87512,11.00677 10.2754,15.63785 8.16851,11.1253 17.20426,21.38944 26.39204,31.67245 22.17536,23.76315 46.64736,45.42465 73.09492,64.33635 5.8274,4.1669 11.84154,8.0664 17.76231,12.0996 30.5618,19.566 62.77639,36.7058 96.51467,50.1428 6.84498,2.7262 13.80932,5.1425 20.71397,7.7138 32.86037,11.3269 66.56492,20.1581 100.66098,26.8762 6.20536,1.2226 12.44162,2.2829 18.66243,3.4244 30.01705,5.1077 60.31551,8.4152 90.64242,11.0185 15.05124,1.22645 30.1716,1.96165 45.25119,0.93385 2.53359,-0.42945 5.17245,-0.44775 7.60076,-1.28855 16.10817,-5.5771 21.92417,-9.4436 30.27075,-27.5924 2.58378,-5.6182 2.08695,-12.2296 2.28412,-18.4103 0.15249,-4.7801 -2.62622,-21.1462 -3.32656,-25.6457 -2.89989,-17.4509 -5.56322,-34.9458 -7.4958,-52.5339 -0.78246,-7.1209 -1.38135,-14.2609 -2.07203,-21.3913 -5.14591,-52.78277 -79.792,-45.50535 -74.64609,7.2774 v 0 c 0.76442,7.7948 1.42983,15.5999 2.29325,23.3843 2.03917,18.3847 4.80355,36.6772 7.83225,54.9213 0.5587,3.5037 1.09438,7.011 1.6761,10.5109 0.224,1.3476 -0.0832,5.1205 0.74093,4.0309 1.70241,-2.2509 0.77307,-5.7972 2.36004,-8.131 6.95131,-10.2222 13.70725,-19.3453 26.57854,-19.8988 -3.30979,0.4 -6.7276,0.333 -10.05402,0.2832 -7.64355,-0.1144 -15.28139,-0.5672 -22.8997,-1.1768 -27.95083,-2.3829 -55.87612,-5.4212 -83.54893,-10.069 -5.58755,-1.0172 -11.18908,-1.9604 -16.76264,-3.0517 -30.47055,-5.9658 -60.60151,-13.7853 -89.99614,-23.8014 -5.85408,-2.1549 -11.75885,-4.1768 -17.56224,-6.4646 -29.22249,-11.5204 -57.10308,-26.3219 -83.60938,-43.1253 -4.98182,-3.364 -10.04256,-6.6141 -14.94548,-10.09208 -22.4869,-15.95171 -43.29653,-34.26199 -62.17374,-54.34189 -7.33164,-8.14681 -14.51074,-16.26635 -21.09066,-25.03807 -1.19134,-1.58817 -2.31026,-3.22955 -3.48795,-4.82786 -0.34438,-0.46738 -0.61619,-1.72066 -1.07758,-1.36829 -0.49017,0.37436 0.37339,1.17568 0.56008,1.76352 -17.87263,-49.93064 -88.48522,-24.65491 -70.61258,25.27573 z"/>
<path d="m 442.51866,737.84306 c 7.86619,14.39033 17.03654,28.03236 26.08001,41.69986 9.69738,14.11467 20.4933,27.68613 33.53802,38.87885 2.18666,1.87617 4.51193,3.58457 6.76789,5.37687 41.90742,32.5003 87.86976,-26.76573 45.96234,-59.26601 v 0 c -9.66271,-7.00557 -16.95525,-16.6985 -23.7347,-26.39691 -7.39519,-11.15926 -14.81503,-22.32741 -21.56151,-33.89359 -23.75945,-47.41296 -90.8115,-13.81203 -67.05205,33.60093 z"/>
<path d="m 630.50608,698.85603 c 17.33435,8.08678 32.94609,19.15166 48.36316,30.34552 11.53352,8.44612 21.57194,18.58775 31.56288,28.73699 37.32793,37.67129 90.60318,-15.11837 53.27525,-52.78966 v 0 c -12.93515,-12.98703 -25.98593,-25.9025 -40.87141,-36.70856 -4.74021,-3.42012 -9.4214,-6.92355 -14.22063,-10.26034 -14.60646,-10.1555 -29.87324,-19.37157 -45.92296,-27.06642 -47.90116,-22.75915 -80.08745,44.98332 -32.18629,67.74247 z"/>
</svg>
