<?xml version="1.0" ?>
<svg xmlns="http://www.w3.org/2000/svg" viewBox="0 0 1000 1000">
<path d="m 32.477448,420.83403 c 7.859604,26.28135 18.10209,51.75505 28.112677,77.26736 5.484204,13.36127 10.199771,25.9727 17.307842,38.62624 3.940467,7.01467 8.629957,13.58145 12.944935,20.37217 28.961498,44.4267 91.790338,3.46895 62.828838,-40.95774 v 0 c -2.80343,-4.12887 -5.91194,-8.0663 -8.41031,-12.38659 -6.08792,-10.52753 -10.25026,-21.84884 -14.85459,-33.05165 -6.59189,-16.7963 -13.34295,-33.54097 -19.28864,-50.58159 -2.67896,-7.678 -4.93822,-15.49964 -7.67966,-23.15555 -1.0619,-2.96552 -2.2989,-5.86539 -3.448353,-8.79808 -23.097946,-47.73871 -90.6106841,-15.07329 -67.512739,32.66543 z"/>
<path d="m 279.59765,359.20681 c 6.8098,10.24438 12.57065,21.24429 17.41594,32.5475 1.74988,4.08216 3.29521,8.24901 4.94282,12.37351 5.29322,17.41404 3.05531,8.42247 6.60306,27.00202 10.64702,51.95326 84.12002,36.89609 73.473,-15.05716 v 0 c -5.97586,-27.90759 -2.37678,-14.58398 -10.53719,-40.04017 -2.17413,-5.33469 -4.21138,-10.72724 -6.52238,-16.00408 -6.80507,-15.53839 -15.22274,-31.72451 -25.21682,-45.50161 -1.35241,-1.86432 -2.88067,-3.59452 -4.32101,-5.39178 -35.40609,-39.48302 -91.24351,10.58876 -55.83742,50.07177 z"/>
<path d="m 169.01464,96.494438 c -0.12976,33.417732 0.54197,66.829702 1.30197,100.236622 2.13663,83.13425 4.80222,166.2532 6.34617,249.40127 0.70124,65.33179 1.40858,130.66927 1.17971,196.00612 -0.14157,40.41574 -0.44106,54.96816 -0.99015,95.13916 -1.01903,65.70957 -3.29661,131.3897 -5.28981,197.07435 -1.60851,53.00861 73.35699,55.28338 74.9655,2.27478 v 0 c 2.00576,-66.10155 4.29589,-132.19859 5.31732,-198.32529 0.55504,-40.70439 0.85462,-55.21174 0.99714,-96.17693 0.22892,-65.79693 -0.48201,-131.59452 -1.19267,-197.3863 -1.54967,-83.25274 -4.20702,-166.47662 -6.35266,-249.71543 -0.74924,-32.83755 -1.41115,-65.68012 -1.28252,-98.528352 0,-53.033008 -75,-53.033008 -75,0 z"/>
<path d="m 585.08819,55.366408 c -0.28554,0.421377 -0.60125,0.823817 -0.85662,1.264133 -5.34039,9.208096 -2.83502,5.611293 -9.63084,16.885078 -10.06815,16.702363 -21.06017,32.848121 -31.85172,49.083361 -4.77585,7.06733 -9.54442,14.13958 -14.32757,21.20197 -12.62349,18.63878 -16.90019,25.12028 -29.96339,43.37771 -13.51541,18.88946 -27.44239,37.49387 -41.21877,56.19315 -13.24759,17.816 -26.86173,35.41408 -42.00989,51.66879 -10.9479,11.55377 -23.42578,28.25359 -9.95854,47.1177 9.67857,13.55716 30.10541,14.73212 46.18334,19.08773 0.70391,0.19069 21.06736,-7.80654 21.35475,-7.91772 31.68658,-11.75084 64.28094,-20.93458 97.22439,-28.41652 8.29859,-1.88474 16.6473,-3.5416 24.97095,-5.3124 29.29247,-6.28253 59.0479,-9.56781 88.83881,-12.27422 52.81281,-4.82771 45.98539,-79.51631 -6.82742,-74.68859 v 0 c -32.75072,3.01072 -65.45699,6.69969 -97.6591,13.61331 -8.99812,1.92447 -18.02334,3.72636 -26.99437,5.77341 -36.13887,8.24633 -71.87754,18.41073 -106.62356,31.36075 -3.39533,1.31466 -6.80883,2.58331 -10.18599,3.94397 -0.95057,0.38299 -3.6749,0.7633 -2.79295,1.28526 12.90272,7.63609 32.27285,7.80861 39.93476,20.69601 6.67528,11.2279 -2.7375,25.98464 -4.48583,38.92947 -0.13221,0.97896 -7.10171,4.1596 2.00068,-2.18632 17.00492,-18.38666 32.54778,-38.04978 47.41232,-58.19499 14.10785,-19.14923 28.36467,-38.20463 42.19797,-57.55386 13.38299,-18.71934 17.91729,-25.56934 30.74522,-44.51216 4.89037,-7.22154 9.76537,-14.45348 14.64806,-21.68022 15.87625,-23.89329 32.68432,-48.05199 45.9117,-73.564207 1.39675,-2.69399 2.62958,-5.469862 3.94437,-8.204792 19.07477,-49.483867 -50.90599,-76.4596695 -69.98076,-26.975803 z"/>
<path d="m 761.44669,225.74594 c 8.59997,9.9482 14.10084,22.12969 17.82433,34.65223 1.16205,3.90808 2.04803,7.89298 3.07205,11.83948 0.86906,4.05962 1.73811,8.11924 2.60717,12.17886 11.29091,51.81713 84.57141,35.84937 73.28049,-15.96777 v 0 c -1.16092,-5.2565 -2.32184,-10.513 -3.48277,-15.7695 -1.62725,-5.86845 -3.01221,-11.80953 -4.88175,-17.60535 -7.1193,-22.07082 -17.91223,-43.00795 -33.44434,-60.34491 -36.07444,-38.87332 -91.04962,12.14364 -54.97518,51.01696 z"/>
<path d="m 425.75614,484.79729 c 18.4802,-6.18986 37.02096,-12.29135 55.99423,-16.83109 7.42326,-1.77617 14.91841,-3.23717 22.37762,-4.85575 53.74194,-10.01396 108.39218,-14.52337 162.98742,-16.28474 11.15136,-0.35977 22.31034,-0.42129 33.46551,-0.63193 39.94901,-0.36345 79.83891,2.06881 119.55566,6.17029 52.75508,5.42233 60.42341,-69.18461 7.66833,-74.60694 v 0 c -42.7465,-4.37467 -85.67492,-6.99355 -128.66828,-6.54945 -11.80378,0.23157 -23.61169,0.30606 -35.41135,0.69469 -58.84501,1.93808 -117.73978,6.94129 -175.62835,17.94141 -8.57602,1.88999 -17.19191,3.60736 -25.72805,5.66997 -19.16327,4.63046 -38.02696,10.55241 -56.64418,17.00809 -51.10647,14.16437 -31.07502,86.43982 20.03144,72.27545 z"/>
<path d="m 543.58647,351.22263 c -0.0966,0.5871 -0.14677,1.18374 -0.28971,1.76131 -0.95577,3.86191 -2.90736,9.38767 -4.07333,12.61796 -4.47934,12.40998 -7.62488,20.55332 -13.31768,32.96478 -3.48222,7.59195 -7.28555,15.03247 -10.92832,22.54871 -4.65114,8.66703 -9.02313,17.48976 -13.95342,26.00109 -12.88386,22.24186 -23.32589,37.34253 -38.51242,58.36208 -12.75094,17.64846 -36.38782,48.72261 -49.75454,65.50909 -8.87299,11.14307 -18.05118,22.03966 -27.07677,33.0595 -26.01948,30.97534 -53.7623,60.40833 -81.55499,89.77528 -36.44656,38.52465 18.03553,90.06786 54.48208,51.54321 v 0 c 29.01532,-30.68018 57.97625,-61.43198 85.11133,-93.81542 9.45403,-11.55824 19.06497,-22.98989 28.36208,-34.67471 13.86767,-17.42922 38.86468,-50.29649 51.97654,-68.53528 17.25122,-23.9967 28.46435,-40.42668 43.09139,-65.83273 5.42936,-9.43039 10.25038,-19.1982 15.37557,-28.7973 4.13553,-8.60289 8.4596,-17.11767 12.40659,-25.80867 5.64588,-12.43186 11.20459,-26.23914 15.66327,-39.25135 3.67404,-10.72235 5.3503,-16.20826 7.19362,-26.94322 0.38176,-2.22328 0.46981,-4.48711 0.70472,-6.73066 2.65424,-52.96654 -72.25177,-56.72022 -74.90601,-3.75367 z"/>
<path d="m 622.98664,539.5164 c 11.75023,10.10672 21.98303,21.81287 32.39822,33.2466 22.62286,25.58726 44.62594,51.7181 66.83569,77.66483 11.50439,13.33372 22.77135,26.89246 35.0073,39.5726 6.3483,6.57876 9.09819,9.09363 15.56416,15.28037 17.45939,16.98312 39.02484,28.46375 60.49715,39.47665 26.26991,12.65032 53.65219,22.80012 80.90333,33.0952 49.61257,18.73748 76.11137,-51.42529 26.4988,-70.16277 v 0 c -24.6495,-9.30672 -49.42341,-18.45792 -73.26728,-29.71426 -15.0235,-7.64745 -30.50485,-15.20735 -42.83858,-26.93909 -5.10975,-4.86656 -7.71904,-7.25998 -12.69977,-12.39293 -11.46468,-11.81507 -21.90846,-24.55931 -32.68832,-36.98712 -22.71661,-26.53819 -45.21398,-53.27183 -68.38291,-79.41637 -13.97869,-15.32751 -27.79019,-31.1022 -44.29953,-43.79981 -43.18732,-30.77913 -86.71559,30.29697 -43.52826,61.0761 z"/>
<path d="m 554.86381,601.04308 c -0.53979,1.13726 -1.00036,2.31563 -1.61938,3.41178 -0.25402,0.44983 -0.6761,0.78255 -0.98365,1.19763 -5.74633,7.75554 -2.7519,4.29037 -10.4749,13.69579 -10.30302,12.54748 -10.96755,12.92251 -22.6602,25.7818 -20.97315,23.21458 -44.25874,44.09794 -67.02357,65.49159 -15.03043,14.12512 -15.86294,15.11825 -29.85527,28.97222 -37.67294,37.32626 15.11436,90.60384 52.7873,53.27759 v 0 c 13.0025,-12.89249 13.9703,-14.01171 28.05236,-27.24443 24.3471,-22.87863 49.1891,-45.27692 71.60061,-70.11912 12.44837,-13.76309 15.04388,-16.22291 26.12661,-29.89179 7.84204,-9.67199 15.65955,-19.70317 21.10191,-30.97166 23.75977,-47.41279 -43.29205,-81.01419 -67.05182,-33.6014 z"/>
<path d="m 625.33493,697.85498 c -3.01912,1.22408 2.81123,-5.61238 1.02861,-5.32054 -0.97255,0.15923 -1.2108,1.55566 -1.79151,2.35189 -1.67246,2.29317 -3.2365,4.6663 -4.96749,6.91561 -6.53208,8.48802 -10.31463,12.45156 -17.75592,20.90415 -30.72042,33.34719 -64.51583,63.65877 -98.37611,93.74494 -5.3223,4.59653 -10.6446,9.19307 -15.9669,13.7896 -40.13052,34.67046 8.90091,91.4236 49.03144,56.75314 v 0 c 5.58623,-4.82782 11.17247,-9.65563 16.75871,-14.48345 36.18188,-32.16469 72.2633,-64.60774 104.96204,-100.37747 10.1579,-11.63814 20.3195,-23.13973 28.94727,-35.98998 4.54508,-6.76945 7.36369,-11.16177 10.18707,-18.86363 0.94742,-2.58445 1.37789,-5.33005 2.06683,-7.99507 8.08166,-52.41362 -66.04238,-63.8428 -74.12404,-11.42919 z"/>
<path d="m 680.63674,784.73564 c -0.69222,2.31676 -1.81689,6.21946 -2.65106,8.15252 -0.79744,1.84798 -1.79756,3.60343 -2.78069,5.35967 -4.73432,8.45729 -7.56639,13.08881 -13.66091,21.17185 -3.70206,4.90997 -7.69943,9.59014 -11.54915,14.38521 -28.79473,35.15262 -63.9701,64.23545 -98.71734,93.22628 -40.70976,33.98846 7.35719,91.56073 48.06695,57.57229 v 0 c 38.64537,-32.28549 77.54469,-64.87191 109.38557,-104.15976 4.92743,-6.25853 10.07307,-12.35126 14.78227,-18.7756 12.70202,-17.32821 23.81193,-36.30065 29.47045,-57.15764 13.98291,-51.15641 -58.36318,-70.93123 -72.34609,-19.77482 z"/>
</svg>
