<?xml version="1.0" ?>
<svg xmlns="http://www.w3.org/2000/svg" width="1000" height="1000">
<path d="m 40.793043,386.16624 c 1.514981,18.96979 2.352994,37.99602 5.501333,56.79806 1.117663,6.67473 2.607427,13.2818 3.911141,19.9227 6.873347,28.80134 16.918664,56.70314 26.422049,84.70795 17.042131,50.22017 88.064184,26.11896 71.022054,-24.10121 v 0 c -8.45979,-24.92951 -17.40125,-49.75661 -23.89575,-75.2914 -1.0576,-5.1858 -2.26275,-10.34368 -3.17281,-15.55739 -2.88996,-16.55637 -3.4238,-33.3448 -4.87329,-50.05424 -2.52829,-52.97271 -77.443011,-49.39718 -74.914727,3.57553 z"/>
<path d="m 280.93364,372.87253 c 8.43012,13.70725 16.62485,27.5456 24.54247,41.5563 8.54528,16.60091 4.516,8.05905 12.04361,25.64641 21.15039,48.63292 89.92772,18.72176 68.77734,-29.91116 v 0 c -10.1076,-22.9699 -4.87037,-12.10819 -15.54353,-32.66571 -6.4708,-11.42603 -13.03525,-22.76766 -19.90179,-33.96124 -3.376,-5.50343 -6.97353,-11.43702 -10.82286,-16.63285 -1.43979,-1.94343 -3.08456,-3.72628 -4.62683,-5.58941 -36.45678,-38.51498 -90.92518,13.04268 -54.46841,51.55766 z"/>
<path d="m 169.01464,90.149686 c 0.0925,29.241614 0.40082,58.480054 0.42404,87.722534 -0.14335,82.84937 -0.26918,165.69874 -0.33875,248.54822 -0.16473,72.29021 0.0262,144.58362 -0.45061,216.87298 -0.32209,48.83509 -0.58388,57.7755 -1.37385,106.20445 -1.28587,58.23618 -2.29896,116.47582 -2.85363,174.72336 -0.50412,53.03061 74.49249,53.74355 74.99661,0.71294 v 0 c 0.55115,-58.07786 1.56735,-116.14771 2.84706,-174.21426 0.7971,-48.9605 1.05795,-57.79924 1.38333,-107.15767 0.477,-72.35797 0.28629,-144.71999 0.45106,-217.07882 0.0696,-82.8909 0.19579,-165.78169 0.33875,-248.67249 -0.0246,-29.22205 -0.32774,-58.4401 -0.42401,-87.661244 0,-53.033009 -75,-53.033009 -75,0 z"/>
<path d="m 390.49037,217.88986 c 30.1064,-5.76276 60.64703,-8.85824 91.08859,-12.22999 47.96839,-4.92384 96.17082,-7.24468 144.37081,-8.18338 29.68887,-0.57819 46.81456,-0.40673 76.35424,-0.36931 47.76217,0.41571 95.5181,1.37117 143.27447,2.20656 53.02489,0.92753 54.33661,-74.061 1.31171,-74.98852 v 0 c -48.16369,-0.84247 -96.32697,-1.80749 -144.49663,-2.21798 -30.57088,-0.0343 -47.79854,-0.20895 -78.57196,0.39945 -50.25039,0.99345 -100.50069,3.4561 -150.50739,8.60995 -33.52892,3.721 -67.19609,7.11062 -100.28983,13.8353 -51.5749,12.35033 -34.1089,85.28824 17.46599,72.93792 z"/>
<path d="m 580.10045,72.549208 c -2.46137,15.975995 -7.18379,31.518112 -11.18732,47.147142 -1.88224,7.34792 -3.69316,14.71393 -5.53973,22.07089 -5.98409,24.3102 -11.84564,48.69614 -19.44509,72.56908 -2.46586,7.74629 -5.29924,15.37076 -7.94886,23.05614 -17.20488,50.16465 53.73864,74.49603 70.94353,24.33138 v 0 c 2.99524,-8.77348 6.186,-17.48263 8.98573,-26.32044 7.85966,-24.81026 14.0023,-50.12714 20.20995,-75.3844 20.02267,-79.835641 -8.44182,33.34384 10.43068,-40.72362 3.90415,-15.32235 8.00697,-30.856987 8.55111,-46.746172 0,-53.033009 -75,-53.033009 -75,0 z"/>
<path d="m 418.03247,295.33039 c 0.96812,24.20632 3.24505,48.3481 5.18568,72.49114 4.61902,61.61218 5.61317,123.4145 6.44358,185.16972 0.33044,40.16591 0.90814,80.34938 -0.31975,120.50703 -0.60743,19.86578 -0.9656,23.76779 -2.09235,42.64606 -3.1406,52.93994 71.72778,57.38141 74.86837,4.44147 v 0 c 1.18903,-20.15731 1.56861,-24.33069 2.20623,-45.45619 1.23865,-41.03828 0.68011,-82.10194 0.3307,-123.14849 -0.85571,-63.42346 -1.90533,-126.89421 -6.6779,-190.16876 -1.90532,-23.70362 -4.15341,-47.40382 -5.09127,-71.17078 -3.31548,-52.92927 -78.16877,-48.24047 -74.85329,4.6888 z"/>
<path d="m 501.80823,355.62255 c 22.24408,-6.56837 45.39813,-9.47433 68.30523,-12.69513 25.55581,-3.08375 51.19813,-5.97057 76.94579,-6.80827 14.05961,-0.45742 16.34996,-0.17056 29.90032,0.2833 13.92175,1.04253 28.17648,1.66989 41.57246,5.96754 0.63953,0.22799 2.42222,0.85293 3.12838,1.14092 0.79412,0.32386 -1.66825,-0.51589 -2.36193,-1.02017 -3.4148,-2.48245 -7.18362,-4.6529 -9.93593,-7.85418 -2.86204,-3.3289 -4.40691,-7.59411 -6.61036,-11.39117 -0.15558,-0.24057 -0.46057,-1.00814 -0.46675,-0.72171 -0.0382,1.76961 0.27196,3.52988 0.36802,5.2973 0.184,3.38559 0.34956,6.77243 0.4721,10.16081 0.66131,18.28641 0.79894,36.58639 1.0072,54.88166 0.21888,46.53364 0.63163,93.09808 -1.01736,139.61362 -0.35994,10.15324 -0.91216,20.29874 -1.36824,30.44811 -1.66291,28.97379 -3.78673,57.91925 -6.05675,86.851 -0.97394,12.41297 -2.68582,35.61483 -4.51024,48.35668 -0.94085,6.57097 -2.41565,13.05435 -3.62348,19.58152 -9.39595,52.19402 64.41755,65.48191 73.8135,13.28788 v 0 c 1.46242,-8.3059 3.20747,-16.56697 4.38726,-24.9177 1.89272,-13.39697 3.67298,-37.30917 4.71644,-50.61354 2.33032,-29.71235 4.50894,-59.43898 6.19841,-89.19554 0.47275,-10.62275 1.04474,-21.24154 1.41825,-31.86824 1.66763,-47.44452 1.26993,-94.93773 1.03732,-142.40048 -0.17706,-15.4464 -0.25111,-26.37234 -0.61073,-41.61277 -0.29397,-12.4584 -0.33183,-26.32447 -2.01968,-38.71352 -0.43002,-3.1564 -1.1563,-6.26531 -1.73445,-9.39797 -2.62999,-5.26226 -4.32939,-11.10376 -7.88995,-15.78678 -6.78192,-8.9199 -16.72082,-12.69962 -26.77414,-15.95796 -5.68467,-1.6605 -7.16935,-2.19776 -13.24248,-3.49285 -15.64752,-3.3368 -31.6314,-4.74507 -47.58275,-5.60675 -5.76335,-0.16569 -11.52442,-0.46235 -17.29004,-0.49706 -34.25448,-0.20623 -68.39053,3.63445 -102.34547,7.72147 -28.03343,3.96586 -56.39447,7.65412 -83.40991,16.45703 -49.85311,18.08777 -24.27315,88.59072 25.57996,70.50295 z"/>
<path d="m 481.27394,474.18132 c 23.41642,-6.21928 47.42727,-9.55753 71.42665,-12.5419 18.90458,-2.05242 37.87331,-3.55703 56.88877,-4.00154 14.01153,-0.32755 18.23803,-0.0731 31.76325,0.26096 53.01837,1.24586 54.78028,-73.73344 1.7619,-74.9793 v 0 c -5.66024,-0.12713 -11.31915,-0.34736 -16.98072,-0.38138 -27.65447,-0.16616 -55.277,1.57085 -82.75112,4.68234 -6.7903,0.85541 -13.59299,1.61759 -20.37089,2.56625 -20.74382,2.90337 -41.3641,6.81729 -61.64108,12.08371 -51.1315,14.07371 -31.22827,86.38457 19.90324,72.31086 z"/>
<path d="m 520.68692,597.74683 c 16.789,-4.9543 34.25123,-7.23332 51.58902,-9.28282 22.46887,-2.32643 45.05971,-2.38768 67.58327,-1.07438 52.94943,2.97613 57.15833,-71.90567 4.20889,-74.88181 v 0 c -4.47162,-0.24377 -8.93951,-0.57027 -13.41488,-0.73131 -22.46126,-0.80821 -44.97466,0.0289 -67.33838,2.22476 -21.44398,2.61829 -42.99199,5.5759 -63.74665,11.7803 -50.88712,14.9332 -29.76839,86.89846 21.11873,71.96526 z"/>
<path d="m 504.7369,730.52152 c 26.60964,-5.60099 53.71161,-8.57364 80.72379,-11.46784 27.81481,-2.7077 55.8069,-3.91337 83.74296,-2.73972 15.96445,0.67069 22.15422,1.49204 37.94925,3.03432 5.53047,0.66757 11.06094,1.33514 16.59141,2.00271 52.65472,6.32301 61.5968,-68.14201 8.94208,-74.46502 v 0 c -6.11199,-0.73051 -12.22398,-1.46102 -18.33597,-2.19153 -18.40324,-1.7544 -24.92583,-2.62819 -43.59134,-3.36435 -31.13239,-1.22786 -62.3224,0.11623 -93.31611,3.15338 -30.41844,3.28117 -60.94922,6.65712 -90.85803,13.26782 -51.45633,12.83537 -33.30437,85.6056 18.15196,72.77023 z"/>
<path d="m 335.39841,856.10468 c 31.13335,-3.61004 62.15917,-8.1224 93.25588,-12.04954 46.02921,-5.47034 92.23975,-9.47856 138.55102,-11.54734 31.11626,-1.39 46.84122,-1.45646 77.9313,-2.00208 36.35907,-0.34754 72.72312,-0.18881 109.08081,0.24388 16.62453,0.19785 43.9384,0.61481 60.9216,1.25808 8.06224,0.30538 16.11464,0.83065 24.17196,1.24598 24.55597,2.37967 13.01523,0.94077 34.64715,4.11204 52.49357,7.5449 63.16366,-66.69222 10.67009,-74.23711 v 0 c -26.29193,-3.71782 -12.4685,-2.06444 -41.49175,-4.77731 -8.67397,-0.43919 -17.34298,-0.99077 -26.02191,-1.31757 -17.34888,-0.65327 -45.22411,-1.07918 -62.25143,-1.28133 -18.29803,-0.21723 -54.51998,-0.46062 -72.43922,-0.4449 -12.87117,0.0113 -25.74197,0.13997 -38.61296,0.20995 -32.41657,0.5771 -48.29748,0.64105 -80.79879,2.10768 -48.05212,2.16836 -96.00021,6.33376 -143.7594,12.02163 -30.22279,3.82049 -60.38381,8.14892 -90.62942,11.76458 -52.81618,4.79069 -46.04111,79.48406 6.77507,74.69336 z"/>
<path d="m 459.52682,843.32922 c 0.11421,-0.74148 0.97717,-2.62469 0.34263,-2.22445 -1.03353,0.6519 -1.22291,2.11594 -1.84139,3.1698 -1.55245,2.64527 -3.01725,5.34464 -4.67139,7.92754 -2.22499,3.47429 -4.54677,6.88847 -6.96005,10.23472 -8.3275,11.54695 -11.38305,14.82898 -20.78244,26.19811 -16.98042,18.51399 -8.42347,9.50364 -25.65118,27.04973 -37.10663,37.88929 16.47692,90.36603 53.58355,52.47669 v 0 c 19.92508,-20.39091 9.91706,-9.78724 29.97201,-31.86005 4.52852,-5.5212 9.17871,-10.94481 13.58557,-16.56359 7.69308,-9.80875 14.48436,-19.27727 21.08013,-29.8211 3.27476,-5.23495 9.00907,-15.43353 11.50049,-21.41069 1.27567,-3.06047 2.11336,-6.28563 3.17005,-9.42844 11.1357,-51.85071 -62.19227,-67.59898 -73.32798,-15.74827 z"/>
<path d="m 706.03391,921.86774 c 8.58048,6.51517 16.22718,14.18706 23.75011,21.87797 4.76071,4.86315 8.90652,10.24493 12.97393,15.68143 32.01504,42.27926 91.80697,-2.99683 59.79193,-45.2761 v 0 c -6.07124,-7.95589 -12.24306,-15.84238 -19.28317,-22.98481 -12.48715,-12.65231 -25.27401,-25.368 -40.52544,-34.70162 -46.247,-25.95603 -82.95436,39.44711 -36.70736,65.40313 z"/>
</svg>
