<?xml version="1.0" ?>
<svg xmlns="http://www.w3.org/2000/svg" width="1000" height="1000">
<path d="m 45.884342,314.85362 c 0.203577,2.54614 0.264465,5.10775 0.61073,7.63844 1.834992,13.41112 5.765091,26.59513 9.284647,39.62079 3.592578,13.29592 7.265478,26.57 10.880903,39.85972 7.989971,30.04364 16.702149,59.90489 27.722387,88.99273 5.090626,13.43668 8.539581,21.30378 13.997421,34.22944 20.65214,48.84659 89.73165,19.64007 69.07952,-29.20652 v 0 c -4.84493,-11.44297 -8.07462,-18.81032 -12.5858,-30.63538 -10.34877,-27.12705 -18.36998,-55.03324 -25.84381,-83.06845 -4.90059,-18.01334 -9.98814,-35.98604 -14.6715,-54.05776 -0.82125,-3.16897 -1.59666,-6.34982 -2.35585,-9.53423 -0.34287,-1.43813 -0.53646,-2.91297 -0.95009,-4.33238 -0.0486,-0.16691 -0.11237,0.32907 -0.16856,0.4936 0,-53.03301 -74.999998,-53.03301 -74.999998,0 z"/>
<path d="m 272.31307,312.60437 c 0.50922,0.54858 1.0629,1.05901 1.52764,1.64575 4.0163,5.07061 7.88294,12.38874 10.9714,17.84642 6.14059,10.85114 8.74308,15.89331 14.78715,27.19442 7.96194,14.53217 14.37522,29.80434 20.76494,45.06457 20.53973,48.89396 89.68623,19.84639 69.1465,-29.04757 v 0 c -7.33203,-17.40419 -14.71555,-34.8093 -23.78541,-51.40553 -5.79339,-10.81881 -10.18944,-19.2282 -16.24904,-29.79996 -7.76708,-13.55066 -15.90591,-27.20927 -27.60408,-37.79105 -39.80512,-35.04357 -89.36422,21.24937 -49.5591,56.29295 z"/>
<path d="m 182.31111,85.38746 c 0.71739,30.05042 2.23075,60.05938 4.02328,90.06259 0.63456,9.83024 1.29019,19.65914 1.90368,29.49072 2.26083,36.23111 4.08816,72.45902 5.02549,108.75215 0.9824,38.03795 0.81802,47.51339 0.99914,86.06268 -0.5752,80.7864 -1.34086,161.60954 -4.43871,242.34761 -0.61776,16.10047 -1.47814,32.19072 -2.21721,48.28608 -4.07761,67.93728 -9.52717,135.77968 -13.85025,203.70107 -3.36738,52.92599 71.48128,57.68819 74.84866,4.76219 v 0 c 4.34796,-68.36411 9.8557,-136.64713 13.92294,-205.02944 0.75334,-16.46709 1.62908,-32.92902 2.26001,-49.40125 3.12666,-81.63017 3.9041,-163.34607 4.4737,-245.02505 -0.0734,-15.07449 -0.0424,-30.14985 -0.22012,-45.22347 -0.72076,-61.13586 -3.4962,-122.2201 -7.84121,-183.20253 -1.82353,-30.43384 -3.21962,-60.87397 -4.11131,-91.348528 -4.0766,-52.876095 -78.85469,-47.110916 -74.77809,5.765178 z"/>
<path d="m 400.627,195.89856 c 23.85207,-5.96885 47.93693,-11.12751 72.16482,-15.33159 9.82017,-1.70402 19.68105,-3.1645 29.52158,-4.74674 60.43357,-8.64768 121.53002,-12.75068 182.57649,-12.62162 11.37824,0.0241 22.75327,0.386 34.1299,0.579 32.7692,0.84273 65.42319,3.59801 97.9725,7.33581 52.68982,6.02352 61.20836,-68.49114 8.51854,-74.514662 v 0 c -34.96985,-3.9813 -70.04877,-6.946268 -105.25281,-7.81093 -12.09402,-0.194549 -24.18648,-0.568786 -36.28205,-0.583646 -64.73883,-0.07954 -129.52412,4.325404 -193.60261,13.572578 -10.50488,1.69859 -21.03135,3.26866 -31.51464,5.09578 -26.59332,4.63491 -53.04531,10.29333 -79.18835,17.01339 -50.92063,14.81858 -29.96399,86.83121 20.95663,72.01263 z"/>
<path d="m 459.0188,92.032155 c 0.62882,22.361125 3.73716,44.628845 9.36731,66.285705 1.59659,6.14145 3.55281,12.18374 5.32922,18.27561 2.06223,6.1852 4.12447,12.37039 6.1867,18.55558 16.83614,50.2896 87.95638,26.47971 71.12024,-23.8099 v 0 c -1.79304,-5.33052 -3.58608,-10.66104 -5.37911,-15.99156 -1.39821,-4.65576 -2.92865,-9.27384 -4.19462,-13.96728 -4.53689,-16.82002 -6.99996,-34.14929 -7.4623,-51.558007 -1.5626,-53.009983 -76.53004,-50.800131 -74.96744,2.209852 z"/>
<path d="m 668.99175,80.298188 c -0.18926,-0.426915 -0.48599,-1.740513 -0.56778,-1.280745 -0.21702,1.220065 0.0997,2.476486 0.13473,3.715208 0.091,3.219079 0.23073,6.437689 0.24345,9.65803 0.0182,4.617697 -0.0398,9.235979 -0.15056,13.852379 -0.45044,18.77792 -0.47805,15.56505 -2.10739,34.76636 -3.98399,24.20494 -1.28793,12.34892 -8.0289,35.58148 -14.11319,51.12062 58.18229,71.07968 72.29547,19.95906 v 0 c 8.87134,-33.28494 5.45634,-16.80855 10.47998,-49.37988 0.5773,-7.18098 1.31087,-14.35111 1.73191,-21.54295 0.5104,-8.71813 0.85703,-26.578685 0.74155,-35.621761 -0.10213,-7.997712 -0.45387,-17.410831 -1.74123,-25.416572 -0.43795,-2.723519 -1.26394,-5.370278 -1.89591,-8.055417 -16.80426,-50.3002683 -87.93958,-26.53546 -71.13532,23.764808 z"/>
<path d="m 547.62295,292.96763 c 1.61743,1.31446 3.21218,2.65733 4.85228,3.94339 5.56482,4.36357 5.13155,3.65357 10.61275,8.29971 2.65071,2.24687 11.85959,10.60916 13.80144,12.31038 3.15377,2.76296 6.36158,5.46362 9.54238,8.19543 12.11728,10.25279 6.26512,5.24551 17.56598,15.01072 40.13347,34.66705 89.16008,-22.09026 49.0266,-56.7573 v 0 c -11.76057,-10.15521 -5.83796,-5.09313 -17.7687,-15.18521 -2.76611,-2.36817 -5.55984,-4.70447 -8.29834,-7.10451 -9.37473,-8.21612 -18.38455,-17.02613 -28.71676,-24.05568 -39.13347,-35.79207 -89.75109,19.551 -50.61763,55.34307 z"/>
<path d="m 421.92133,405.01057 c 25.90513,-3.08092 51.69977,-7.00628 77.57357,-10.35294 48.81722,-5.95279 97.84477,-10.62239 147.02033,-12.12803 10.13771,-0.31039 20.2819,-0.35014 30.42285,-0.52522 39.4214,0.12306 79.0504,1.07028 118.03109,7.41526 2.10876,0.44834 4.21753,0.89668 6.3263,1.34501 51.93764,10.72296 67.1022,-62.72795 15.16456,-73.45091 v 0 c -3.21705,-0.65122 -6.4341,-1.30245 -9.65115,-1.95367 -4.21144,-0.66382 -8.40987,-1.41616 -12.63432,-1.99145 -39.25838,-5.34627 -79.00224,-6.21255 -118.56288,-6.35251 -10.79638,0.19527 -21.59629,0.24757 -32.38914,0.58581 -51.2931,1.60745 -102.43445,6.45089 -153.35411,12.67607 -24.74002,3.2038 -49.41601,6.84792 -74.16181,9.99051 -52.85062,4.39446 -46.63591,79.13653 6.21471,74.74207 z"/>
<path d="m 487.42465,374.57868 c 0.35304,15.43909 -0.99143,30.83795 -2.31186,46.20353 -2.24204,24.2827 -4.80917,48.53293 -5.67791,72.91254 0.17488,8.98637 -0.55699,19.4705 1.7876,28.24826 0.94657,3.54376 1.74665,7.21992 3.54264,10.41816 2.73838,4.87644 6.60687,9.02566 9.91031,13.5385 5.11836,3.11343 9.89019,6.88548 15.35507,9.34031 6.17062,2.77185 17.42707,4.00881 24.18848,4.54817 14.62599,1.16672 29.35917,0.82809 44.01049,0.70797 38.03237,-0.94183 75.97575,-3.85934 113.96696,-5.75485 19.11766,-0.72896 9.92697,-0.42473 27.57138,-0.93333 53.01079,-1.53485 50.84017,-76.50344 -2.17062,-74.96858 v 0 c -18.63414,0.54181 -8.92032,0.21753 -29.14069,0.99521 -36.96496,1.84683 -73.88396,4.65277 -110.88504,5.66443 -12.10896,0.114 -15.66756,0.25594 -27.24312,-0.0116 -2.90552,-0.0671 -5.80929,-0.19971 -8.71251,-0.3336 -1.50133,-0.0692 -3.05085,-0.67295 -4.50035,-0.27577 -0.62087,0.17012 1.07272,0.712 1.60908,1.068 2.86875,2.18189 5.7375,4.36378 8.60625,6.54568 2.05364,3.28064 4.45101,6.36972 6.16092,9.84193 0.83414,1.69384 0.99953,3.64379 1.38992,5.49107 0.048,0.22689 -0.0401,0.91846 -0.0835,0.69066 -0.76326,-4.0075 -0.18074,-8.21481 -0.40762,-12.24134 0.76016,-23.11306 3.42963,-46.088 5.45052,-69.11315 1.76091,-20.75535 3.69573,-41.69564 1.92273,-62.5168 -7.02483,-52.56569 -81.36394,-42.63109 -74.33912,9.9346 z"/>
<path d="m 464.88275,615.23279 c 0.7976,8.77294 0.44567,17.72564 -0.15921,26.49802 -0.33011,4.78733 -0.65185,9.58285 -1.30628,14.33671 -0.73625,5.34818 -1.9079,10.62734 -2.86185,15.941 -6.18571,28.82304 -17.81008,56.02142 -32.05453,81.73366 -9.63124,17.38507 -16.82186,27.8206 -27.65354,44.51145 -19.87073,28.12733 -9.62058,14.33518 -30.74349,41.38164 -32.57382,41.85029 26.61142,87.91662 59.18524,46.06634 v 0 c 23.82657,-30.70337 12.32487,-15.13406 34.52091,-46.69625 12.68235,-19.64136 20.23889,-30.57052 31.5177,-51.21651 17.70975,-32.41789 31.73433,-66.8241 39.14842,-103.10243 1.21731,-7.34621 2.69353,-14.65417 3.65191,-22.03862 0.77234,-5.95094 1.15211,-11.94833 1.53627,-17.93686 0.89181,-13.90174 1.14071,-28.01145 -0.80648,-41.83484 -8.73749,-52.30828 -82.71257,-39.95159 -73.97507,12.35669 z"/>
<path d="m 578.63228,658.64007 c -0.20169,18.19755 -0.95097,36.38851 -1.59401,54.57556 -0.97523,21.58943 -1.50754,43.18403 -1.51949,64.79397 -0.003,53.03301 74.99717,53.03701 75,0.004 v 0 c -0.0104,-20.72806 0.55079,-41.43976 1.47267,-62.1482 0.35834,-10.13752 0.72303,-20.16578 1.04334,-30.30105 0.32573,-10.30654 0.84561,-20.68192 0.40376,-30.99532 -0.0839,-1.95873 -0.31139,-3.90868 -0.46708,-5.86301 -7.02444,-52.56575 -81.36363,-42.63169 -74.33919,9.93405 z"/>
<path d="m 672.93772,625.19614 c 3.16022,16.53822 4.05164,33.45194 5.15294,50.22536 1.84074,32.01212 2.64861,64.06809 4.9434,96.05304 1.56733,18.33475 3.94692,36.62996 7.96789,54.60042 2.1373,9.55203 2.86338,11.52747 5.53655,20.70625 5.14129,16.3278 13.02534,30.64629 26.44314,41.72885 9.93862,8.20891 14.85495,9.5067 26.50924,14.81496 27.37549,9.61334 56.39816,12.56142 85.06654,15.69704 10.44987,1.11337 20.89269,2.29411 31.35071,3.33011 0.95585,0.0947 12.54029,1.20888 14.2142,1.29828 2.54059,0.13568 5.08678,0.12952 7.63017,0.19428 18.60723,-3.60576 22.80369,-1.85038 37.67633,-20.59955 7.89282,-9.95007 11.52458,-31.27151 13.31228,-43.22987 2.73466,-18.29276 3.75843,-37.03227 5.12889,-55.44231 3.89447,-52.88982 -70.90303,-58.39744 -74.7975,-5.50762 v 0 c -1.51439,20.81751 -1.75073,28.01971 -4.16428,47.77025 -0.50079,4.09803 -2.14903,8.12787 -1.85474,12.24587 0.0689,0.96464 1.79784,-0.72595 2.64462,-1.19312 17.88911,-9.86952 8.92092,-8.10249 22.9357,-9.03847 -4.98123,0.19755 -10.13691,-0.61793 -15.07849,-1.10686 -10.29262,-1.01837 -20.56989,-2.18299 -30.85449,-3.27758 -21.51773,-2.3468 -43.22313,-4.44935 -64.14132,-10.2781 -1.23193,-0.3536 -2.45378,-0.74439 -3.69578,-1.0608 -0.53734,-0.1369 -1.09096,-0.39614 -1.63666,-0.29772 -0.30292,0.0546 -0.42184,1.53984 -1.21052,0.5775 -1.54483,-1.88495 -2.8036,-5.91761 -3.54105,-7.83997 -5.81611,-19.3687 -9.08513,-39.33706 -10.63654,-59.49817 -2.31904,-31.83012 -3.0007,-63.74226 -4.91188,-95.59762 -1.43475,-21.53989 -2.62979,-43.30055 -7.46939,-64.40179 -13.52507,-51.27936 -86.04503,-32.15202 -72.51996,19.12734 z"/>
</svg>
