<?xml version="1.0" ?>
<svg xmlns="http://www.w3.org/2000/svg" width="1000" height="1000">
<path d="m 210.74064,56.197798 c -0.0392,-0.398995 0.15981,-1.486387 -0.11764,-1.196984 -0.72688,0.758184 -0.96541,1.865865 -1.42777,2.808952 -1.29759,2.64674 -2.50527,5.337999 -3.8519,7.960132 -1.97346,3.842704 -3.95525,7.684546 -6.10645,11.430647 -6.14585,10.702372 -11.73622,18.916243 -18.54898,29.367085 -21.55996,31.469 -45.42486,61.31113 -70.19116,90.30049 -7.53522,9.31287 -16.332922,17.47017 -24.407497,26.28267 -1.271919,1.38816 -3.341352,2.41159 -3.711596,4.25758 -2.679325,13.3588 -3.514605,27.02208 -5.271907,40.53312 15.085093,6.93685 29.32502,16.1301 45.25528,20.81057 1.14952,0.33774 26.39202,-8.34312 26.58642,-8.40854 14.46926,-4.86934 21.26187,-7.29266 36.30713,-11.77883 7.24371,-2.15992 14.54259,-4.13029 21.81389,-6.19543 42.10777,-11.33689 84.80924,-20.41061 127.90408,-27.04774 4.56997,-0.5933 9.13993,-1.1866 13.7099,-1.7799 52.58642,-6.86788 42.87376,-81.23632 -9.71266,-74.36843 v 0 c -5.15701,0.67706 -10.31402,1.35412 -15.47104,2.03118 -6.12111,0.95194 -12.25573,1.8207 -18.36333,2.85581 -39.92986,6.76723 -79.47581,15.75771 -118.60171,26.17501 -7.92309,2.26032 -15.87562,4.41984 -23.76926,6.78096 -15.50587,4.63804 -22.98788,7.27343 -37.75253,12.24931 -4.15327,1.3997 -8.31905,2.7629 -12.45861,4.20262 -1.44064,0.50105 -5.51518,0.7242 -4.27989,1.61893 11.74392,8.50618 24.89156,14.88319 37.33735,22.32478 -2.04214,12.87191 -4.27633,25.71482 -6.1264,38.61575 -0.0567,0.39549 0.45484,-0.66022 0.7255,-0.95412 1.25445,-1.3622 2.55901,-2.67741 3.84546,-4.00944 8.02964,-8.31413 15.99489,-16.69068 23.48511,-25.50276 26.8522,-31.48131 52.74223,-63.87351 76.0232,-98.10786 10.5246,-16.22078 20.9612,-32.32308 29.59748,-49.656152 3.75595,-7.538208 7.7754,-16.292442 10.17859,-24.431173 0.93441,-3.164504 1.35138,-6.459302 2.02707,-9.688953 5.28866,-52.768648 -69.33748,-60.2479315 -74.62613,-7.479284 z"/>
<path d="m 386.27244,160.6587 c 7.52552,8.12397 15.38632,16.03914 20.97583,25.70044 1.02283,1.76793 1.8297,3.65229 2.74455,5.47843 2.40776,6.15738 3.58415,12.67603 4.90057,19.1231 11.10172,51.858 84.44,36.1578 73.33829,-15.70019 v 0 c -2.9314,-13.31227 -5.95737,-26.62382 -12.16006,-38.89955 -2.15232,-3.88678 -4.14012,-7.86933 -6.45697,-11.66034 -6.99482,-11.44544 -15.69696,-21.9532 -25.18553,-31.40012 -33.48733,-41.122973 -91.644,6.23525 -58.15668,47.35823 z"/>
<path d="m 130.11455,332.68675 c 0.79793,21.0896 1.85381,42.17162 2.87891,63.25302 2.96623,48.97092 2.7484,98.03001 1.49381,147.04849 -1.00752,32.35481 -3.04705,64.66275 -4.79134,96.98267 -2.85781,52.95595 72.03321,56.9975 74.89102,4.04155 v 0 c 1.78238,-33.0304 3.864,-66.04877 4.87603,-99.11554 1.28832,-50.86911 1.50197,-101.78003 -1.55804,-152.59995 -1.05962,-21.78958 -2.09053,-43.58169 -3.01229,-65.37526 -4.07649,-52.8761 -78.85459,-47.11108 -74.7781,5.76502 z"/>
<path d="m 259.73414,361.68763 c 16.78427,-4.40989 33.42955,-9.3445 50.16957,-13.9255 15.75284,-4.28829 31.7799,-7.48828 47.92823,-9.84937 2.78146,-0.29674 5.55834,-0.78277 8.35746,-0.91687 0.15329,-0.007 -0.29902,0.0817 -0.45244,0.0851 -0.94025,0.0213 -1.8997,0.17584 -2.82144,-0.011 -3.878,-0.78618 -7.67486,-1.9299 -11.51229,-2.89485 -21.11916,-17.60548 -9.89691,-4.94351 -18.72541,-20.25534 -0.14212,-0.24649 -0.11111,0.5638 -0.0975,0.848 0.0792,1.65039 0.25633,3.29463 0.37535,4.94263 1.35174,18.71736 -0.21367,-1.99721 1.56799,21.16936 2.63088,31.17735 7.0074,62.1994 8.29729,93.4863 0.30018,7.28092 0.32723,14.57054 0.49085,21.8558 -0.10611,7.46945 -0.11494,14.94091 -0.31831,22.40834 -0.34603,12.70554 -1.40144,33.14017 -2.10894,45.80042 -0.77472,13.8634 -1.71694,29.91633 -2.97749,43.79031 -0.58918,6.48465 -1.37777,12.94964 -2.06666,19.42445 -2.52141,19.81142 -5.97325,39.59733 -12.02839,58.66812 -2.34322,7.38003 -3.35296,9.38335 -6.21094,16.14891 -1.38626,2.75484 -2.72548,5.72861 -4.49111,8.29849 -0.14069,0.20478 -0.75673,0.63888 -0.59205,0.45283 2.16751,-2.44872 3.74309,-5.67549 6.60905,-7.25049 13.81833,-7.59393 14.23747,-6.65784 25.28083,-5.99202 -14.57654,-8.87722 -28.6994,-18.45927 -42.86783,-27.96554 -44.04173,-29.54363 -85.82273,32.74078 -41.781,62.28441 v 0 c 17.92579,12.02243 35.66319,24.49494 54.83184,34.49935 6.37632,1.88958 12.47872,5.71583 19.12898,5.66875 9.17467,-0.0649 18.45652,-2.32115 26.86405,-5.99433 5.19102,-2.26792 8.79007,-7.19326 12.70106,-11.29134 2.00741,-2.10345 3.40312,-4.72111 4.93744,-7.19093 3.72164,-5.9908 5.60364,-10.42421 8.69711,-16.88416 4.27497,-10.50037 5.54452,-13.01958 9.03444,-24.2766 7.19638,-23.21247 11.48114,-47.21949 14.47196,-71.30062 0.75444,-7.19541 1.61318,-14.38064 2.26331,-21.58622 1.29718,-14.37728 2.29371,-31.23298 3.09478,-45.61952 1.36966,-24.59817 2.6164,-49.2217 2.50687,-73.86703 -0.20338,-8.22215 -0.25872,-16.44931 -0.61013,-24.66647 -1.35462,-31.67559 -5.60485,-63.0984 -8.37815,-94.65634 -0.80662,-10.47285 -1.15042,-21.12165 -2.56043,-31.53863 -0.94806,-7.00413 -2.79771,-16.85777 -7.04923,-22.37712 -4.51544,-5.86198 -10.95197,-9.95301 -16.42796,-14.92951 -4.56016,-1.30411 -9.04441,-2.91105 -13.68048,-3.91232 -1.84538,-0.39856 -3.76975,-0.24761 -5.6576,-0.26422 -5.71034,-0.0502 -11.38208,0.9986 -17.03583,1.61222 -19.13147,2.83986 -38.12763,6.60649 -56.79283,11.70936 -15.55702,4.2614 -31.05499,8.7384 -46.59914,13.04146 -51.77558,11.47994 -35.54049,84.70167 16.23509,73.22173 z"/>
<path d="m 205.11586,462.60583 c 15.82809,-3.33656 31.86916,-5.31191 47.97186,-6.68754 6.04262,-0.58368 12.09879,-0.58861 18.15458,-0.37128 53.01345,1.44021 55.05021,-73.53213 2.03676,-74.97234 v 0 c -8.90041,-0.19824 -17.80302,-0.2275 -26.67995,0.62482 -18.84621,1.65856 -37.62892,3.96366 -56.16035,7.85647 -52.0076,10.37828 -37.33051,83.92815 14.6771,73.54987 z"/>
<path d="m 188.94642,568.45175 c 19.48294,-0.91542 38.77482,-4.18749 58.10618,-6.63039 13.85187,-1.83176 27.79056,-2.75178 41.727,-3.61505 52.92913,-3.31764 48.23728,-78.17074 -4.69186,-74.8531 v 0 c -15.51342,0.98251 -31.02894,2.02777 -46.44969,4.06139 -16.22375,2.05518 -32.40299,4.54885 -48.69163,6.03715 -53.03301,0 -53.03301,75 0,75 z"/>
<path d="m 720.19634,97.342304 c -3.47469,2.251069 -5.24961,3.497576 -9.36518,5.530736 -6.57291,3.24712 -17.8469,7.74718 -23.99067,10.29012 -46.74902,19.3497 10.96268,-4.55314 -39.47483,16.34072 -24.73235,9.57116 -49.38473,19.96198 -75.1558,26.519 -5.30512,1.3498 -10.70427,2.29862 -16.05641,3.44793 -51.78835,11.42219 -35.63493,84.66198 16.15343,73.23979 v 0 c 7.04067,-1.58399 14.13669,-2.93941 21.122,-4.75197 28.30278,-7.34404 55.46539,-18.55943 82.64035,-29.16474 13.2071,-5.47108 26.42721,-10.91077 39.6254,-16.40329 17.45482,-7.26393 35.26349,-14.31427 50.4831,-25.79703 41.89697,-32.51376 -4.08442,-91.765017 -45.98139,-59.251266 z"/>
<path d="m 496.61533,76.224157 c -0.41839,17.487346 -0.62334,34.980623 -0.91872,52.470793 -0.63913,34.48437 -1.16223,68.96755 -1.081,103.45844 0.41473,19.61089 0.2138,39.50232 4.45831,58.77704 2.96824,13.47905 4.15806,14.69365 9.49638,27.39456 9.43412,18.07407 20.97769,31.14416 38.9706,41.16359 11.21938,6.24757 15.95759,7.02151 28.25273,10.87248 30.60349,7.45041 62.14779,5.90777 93.30234,4.30426 23.7059,-1.49256 47.4135,-2.92947 71.15377,-3.7364 14.12344,-0.59738 31.56713,-0.63534 43.94443,-8.33057 4.99503,-3.10552 9.13347,-7.41338 13.70021,-11.12006 3.16768,-5.10523 6.98463,-9.86085 9.50303,-15.31568 4.42616,-9.58706 6.51802,-23.00326 7.91337,-33.2932 2.80523,-20.68716 3.80711,-41.62325 5.03634,-62.44196 3.10622,-52.94197 -71.76502,-57.33482 -74.87124,-4.39285 v 0 c -1.07239,18.4033 -1.15453,22.40057 -2.7431,40.19637 -0.4511,5.05342 -0.96322,10.10176 -1.53578,15.14285 -0.35698,3.14302 -0.96459,6.25656 -1.25251,9.40666 -0.0671,0.73383 -0.51036,2.42704 0.19145,2.20238 1.5873,-0.50812 2.42614,-2.28576 3.63921,-3.42863 6.14721,-3.60482 5.40146,-4.09199 11.11627,-5.0354 0.1802,-0.0297 -0.243,0.31203 -0.42167,0.34987 -1.12218,0.23767 -2.26766,0.35863 -3.41009,0.46166 -4.04078,0.36441 -9.45994,0.49781 -13.36836,0.64221 -24.18047,0.82855 -48.32989,2.25744 -72.47486,3.79316 -22.7771,1.18787 -45.83495,2.79739 -68.41624,-1.40275 -6.39128,-1.5166 -4.73563,-0.90384 -10.30528,-2.96483 -0.94026,-0.34794 -1.86979,-0.72463 -2.79642,-1.10738 -0.61996,-0.25608 -1.30893,-0.40245 -1.84261,-0.8088 -2.10562,-1.60322 -3.34831,-3.73993 -4.85772,-5.8592 -0.70576,-1.28931 -1.54577,-2.51374 -2.11728,-3.86791 -1.87558,-4.44408 -2.79145,-8.95044 -3.44516,-13.73496 -1.7217,-12.60111 -1.51354,-25.3694 -1.82034,-38.04839 -0.0849,-34.00823 0.44497,-68.00866 1.07054,-102.01048 0.30234,-17.91236 0.5255,-35.826527 0.9294,-53.736873 0,-53.033008 -75,-53.033008 -75,0 z"/>
<path d="m 687.90939,422.76913 c -14.17634,3.21828 -27.85683,8.20613 -41.68225,12.61534 -12.8764,4.10654 -22.41398,6.86208 -35.51603,10.75369 -20.96356,6.2416 -41.86338,12.69368 -62.76647,19.13383 -50.682,15.61521 -28.59876,87.29038 22.08324,71.67517 v 0 c 20.66356,-6.3666 41.32373,-12.74549 62.04698,-18.91609 14.82933,-4.40864 23.11067,-6.78664 37.65292,-11.42357 11.43306,-3.64554 22.72816,-7.82283 34.41684,-10.61667 51.77556,-11.48004 35.54033,-84.70174 -16.23523,-73.2217 z"/>
<path d="m 478.05281,418.55656 c 1.3065,17.87465 1.0525,35.83322 0.94496,53.74275 -0.30857,27.96708 -1.39722,55.96868 0.19821,83.91971 0.29744,5.21096 0.80287,10.40797 1.20431,15.61196 1.36449,12.79259 3.13681,25.58146 6.02038,38.13178 1.61144,7.01357 3.76213,14.96244 6.70622,21.53364 1.83624,4.09848 4.19963,7.93981 6.29944,11.90971 2.95272,3.80135 5.61994,7.84276 8.85816,11.40404 9.8429,10.8249 22.29656,18.29574 36.04859,23.06619 10.18582,3.53336 17.64106,4.36879 28.11929,6.14106 27.17001,3.37858 54.60539,2.953 81.927,2.83474 19.94012,-0.14128 39.87852,0.50367 59.77561,1.7875 9.8709,0.73245 19.74704,1.38812 29.6379,1.77561 13.22375,0.30975 25.67052,-3.71398 35.51195,-12.95564 7.77204,-7.29839 9.62278,-13.0504 14.10433,-22.213 6.06888,-14.97472 10.62902,-30.4968 14.04283,-46.28413 1.63527,-7.56242 2.86937,-15.20605 4.30406,-22.80907 9.70319,-52.13778 -64.03076,-65.86017 -73.73396,-13.72239 v 0 c -3.25682,17.80184 -6.33824,35.34896 -13.09902,52.24346 -0.079,3.24533 -0.27184,0.2802 4.04116,-2.81005 5.55491,-3.98007 7.9812,-5.07332 14.25684,-6.29884 2.6639,-0.52021 2.34044,-0.63657 3.47833,-0.094 -9.26353,-0.35475 -18.51066,-1.00615 -27.75578,-1.67892 -21.6005,-1.37172 -43.24263,-2.10007 -64.88917,-1.93983 -23.23885,0.10077 -46.55858,0.52272 -69.70804,-1.88631 -19.34916,-2.82275 1.13989,0.25076 -13.02736,-2.06703 -0.62074,-0.10155 -3.27404,-0.35778 -4.1238,-0.6829 -3.86703,-1.47954 -0.12458,-0.59356 -2.7186,-1.13952 -0.41682,-0.41562 -0.95367,-0.73853 -1.25044,-1.24686 -1.61853,-2.77229 -2.6428,-7.01556 -3.32735,-9.89928 -2.26485,-9.54091 -3.62478,-19.2809 -4.73202,-29.0129 -0.34237,-4.20111 -0.77862,-8.39562 -1.02711,-12.60332 -1.58485,-26.83587 -0.37229,-53.72581 -0.14323,-80.5777 0.12465,-21.95813 0.56819,-44.0468 -1.8655,-65.90316 -8.28919,-52.38119 -82.36738,-40.65849 -74.07819,11.7227 z"/>
<path d="m 115.41837,810.03391 c -5.31293,16.36572 -11.5785,32.39599 -16.981082,48.73452 -1.932323,5.84374 -3.736623,11.72904 -5.604934,17.59356 -4.473932,14.39313 -8.22806,28.98846 -11.915404,43.59681 -12.959596,51.42518 59.76659,69.75281 72.72618,18.32764 v 0 c 3.30338,-13.13151 6.66306,-26.25229 10.6619,-39.19437 4.9695,-15.65612 5.09783,-16.47674 10.55917,-32.00843 5.52305,-15.70722 12.16903,-31.22282 14.97243,-47.72649 6.59253,-52.62166 -67.82573,-61.9449 -74.41826,-9.32324 z"/>
<path d="m 258.78782,798.33144 c 7.73275,6.11216 14.31403,13.48774 21.28594,20.41429 3.07715,3.05713 6.19363,6.07442 9.29044,9.11163 22.65913,22.00407 46.61962,42.74753 72.83832,60.43502 6.42134,4.33192 13.06247,8.32876 19.59371,12.49315 26.68383,15.84788 54.81911,29.15748 83.70879,40.45668 17.33399,6.77959 22.89756,8.4097 40.35354,14.25965 24.16199,7.52014 48.74491,13.7868 73.70022,18.04733 14.28913,2.43952 18.69129,2.76409 32.87142,4.40926 23.67409,2.30231 47.46545,2.92407 71.22756,3.6416 10.71707,0.31246 21.43745,0.49389 32.15864,0.57297 12.99355,-0.1355 23.5541,-3.52759 33.41245,-14.163 5.04208,-5.4395 7.55347,-12.9166 9.75021,-20.00074 2.78941,-8.99534 0.80683,-23.27582 0.12071,-32.23604 -2.60005,-19.64503 -5.93921,-39.18127 -9.03119,-58.75248 -8.27629,-52.38323 -82.35737,-40.67879 -74.08108,11.70444 v 0 c 2.8428,17.992 5.85382,35.95891 8.43432,53.99096 0.31927,2.47199 0.25639,5.02417 0.9578,7.41596 0.12027,0.41012 0.7334,-0.48175 0.97165,-0.83657 2.66632,-3.97084 4.07549,-8.99457 7.71417,-12.09889 11.64938,-9.93862 13.10519,-9.0391 23.17729,-10.07423 0.29128,-0.0299 -0.58456,0.0351 -0.87684,0.0526 -10.15024,-0.0738 -20.29971,-0.24605 -30.44606,-0.54086 -21.66494,-0.65325 -43.35631,-1.19575 -64.94933,-3.18789 -11.8202,-1.33503 -15.65722,-1.61354 -27.56017,-3.60689 -21.59834,-3.61702 -42.86435,-9.03691 -63.7844,-15.47199 -5.85984,-1.95123 -11.75197,-3.80808 -17.57953,-5.8537 -31.17579,-10.94345 -61.52098,-24.38646 -90.07259,-41.05875 -5.42883,-3.42321 -10.95048,-6.70348 -16.28651,-10.26964 -23.036,-15.39538 -43.97185,-33.62479 -63.825,-52.89053 -10.8965,-10.67247 -21.2651,-21.9602 -32.96392,-31.76596 -39.45842,-35.43351 -89.56897,20.36911 -50.11056,55.80262 z"/>
<path d="m 540.64952,754.53903 c 5.9392,15.00368 14.26138,28.87948 22.66365,42.59833 4.52339,6.84732 8.49008,14.10273 13.27459,20.78035 1.1733,1.63754 2.23346,3.38587 3.65618,4.81207 3.10278,3.11035 6.57614,5.82756 9.86421,8.74135 6.50046,2.14498 13.00092,4.28996 19.50138,6.43494 52.87987,4.02722 58.57522,-70.75622 5.69535,-74.78344 v 0 c 5.61103,2.07724 11.22207,4.15449 16.83311,6.23173 2.25699,2.21613 4.55588,4.39039 6.77098,6.6484 0.0967,0.0986 0.21587,0.50379 0.13528,0.39163 -4.26224,-5.93194 -7.77415,-12.39517 -11.80394,-18.47847 -6.31324,-10.26856 -12.73405,-20.58752 -17.19701,-31.82866 -20.11844,-49.06881 -89.51222,-20.61704 -69.39378,28.45177 z"/>
<path d="m 857.70057,711.72519 c 10.41153,4.64444 19.54506,11.59029 28.18475,18.92617 4.28181,3.82418 8.55365,7.72145 11.90062,12.41217 32.60051,41.82949 91.75635,-4.27459 59.15584,-46.10409 v 0 c -6.92255,-8.66296 -14.43983,-16.77957 -22.99362,-23.8838 -2.68067,-2.21442 -5.3054,-4.49835 -8.04201,-6.64326 -11.8495,-9.2874 -24.66726,-17.42981 -38.44104,-23.5481 -48.67788,-21.04671 -78.44242,47.79421 -29.76454,68.84091 z"/>
</svg>
