<?xml version="1.0" ?>
<svg xmlns="http://www.w3.org/2000/svg" width="1000" height="1000">
<path d="m 6.9566536,333.75984 c 0.225662,1.87795 0.403175,3.76231 0.676984,5.63385 0.803831,5.49433 1.831365,10.95361 2.7614804,16.42798 1.731985,10.19393 3.043629,18.4645 5.340564,28.73355 1.417024,6.33517 3.099594,12.60801 4.649391,18.91202 2.018447,6.71877 3.896445,13.48136 6.055342,20.15633 3.616019,11.18017 9.63943,27.63315 13.926658,38.69349 3.803411,9.81216 9.390904,23.56772 13.949272,33.1748 2.379757,5.01551 5.050886,9.88751 7.57633,14.83127 2.542107,4.26493 5.084214,8.52986 7.626322,12.7948 27.407796,45.40168 91.615463,6.64121 64.207673,-38.76048 v 0 c -1.72795,-2.80853 -3.45591,-5.61706 -5.18386,-8.42559 -1.87552,-3.58528 -3.87936,-7.10631 -5.62655,-10.75584 -4.0552,-8.47053 -8.97445,-20.57832 -12.31938,-29.17956 -3.64972,-9.38498 -9.23159,-24.5409 -12.377877,-34.11763 -1.79224,-5.45525 -3.36066,-10.98152 -5.04099,-16.47227 -1.29319,-5.15453 -2.70624,-10.28046 -3.87955,-15.46359 -3.08311,-13.61967 -4.88866,-27.48371 -7.50866,-41.18317 -3.53556,-52.91502 -78.3687064,-47.91499 -74.8331494,5.00004 z"/>
<path d="m 213.93658,334.81016 c 5.6468,10.35882 9.27529,21.75751 11.91985,33.21836 1.06916,4.63346 1.8667,9.32543 2.80005,13.98815 3.3326,21.57603 1.86936,10.4727 4.3099,33.3204 5.75706,52.7196 80.31383,44.5779 74.55678,-8.1417 v 0 c -3.06032,-27.52369 -1.2303,-14.08832 -5.41033,-40.31691 -1.3177,-6.26019 -2.43454,-12.56605 -3.95308,-18.78057 -4.87317,-19.94317 -11.91762,-39.70838 -23.23949,-56.94537 -30.87062,-43.12198 -91.8543,0.53567 -60.98368,43.65764 z"/>
<path d="m 143.58086,109.23646 c -1.41298,29.57773 -1.4044,59.19246 -1.39181,88.79571 0.57792,78.10308 0.94448,156.20703 1.16557,234.31188 0.006,16.10766 0.0858,32.21546 0.0181,48.32298 -0.14369,34.16935 -0.5092,64.96945 -1.49281,99.13386 -1.40754,48.88879 -4.08605,97.71853 -6.68885,146.55369 -3.41727,57.17739 -6.82007,114.35049 -9.56781,171.5643 -2.54251,52.97203 72.37125,56.56768 74.91376,3.59565 v 0 c 2.73813,-57.08228 6.14484,-114.12309 9.5478,-171.16923 2.64404,-49.63216 5.35399,-99.25827 6.77804,-148.94507 0.99587,-34.74712 1.36415,-66.01575 1.50987,-100.76146 0.0678,-16.16888 -0.0123,-32.33804 -0.0184,-48.50705 -0.22099,-78.04603 -0.58517,-156.09117 -1.16528,-234.13541 -0.0151,-28.27395 -0.0414,-56.55861 1.2877,-84.80915 2.79357,-52.959374 -72.10231,-56.910077 -74.89588,-3.9507 z"/>
<path d="m 347.16025,292.14753 c 19.11028,-7.08923 39.46094,-10.08401 59.5199,-13.12549 20.70717,-2.74435 41.57099,-4.48627 62.47151,-4.38362 10.62219,0.0522 13.87415,0.39083 24.10692,1.02906 10.45446,0.66452 20.82596,2.10439 30.88856,5.02359 5.62809,1.71232 -0.0728,0.21098 -2.0087,-1.19587 -9.47554,-6.88599 -7.83007,-5.57629 -13.04234,-13.20019 -0.0796,0.11159 -0.25428,0.19857 -0.2388,0.33476 1.46137,12.8571 0.28649,-6.45471 1.68948,12.59482 1.07501,14.59618 0.22791,29.07709 -0.52538,43.66545 -2.07348,28.66111 -4.93401,57.31597 -10.27337,85.5748 -3.23626,17.12808 -4.74006,22.20484 -8.8661,38.78791 -5.7515,19.92067 -2.82417,10.55137 -8.65881,28.14607 -16.58525,50.3729 54.65279,73.82799 71.23804,23.45509 v 0 c 6.95338,-21.24363 3.5061,-10.0589 10.22591,-33.58969 4.69912,-19.09004 6.3566,-24.69922 10.03169,-44.41667 5.80244,-31.131 8.99898,-62.67896 11.21077,-94.24647 1.26806,-26.54111 2.88996,-54.90439 -4.05137,-80.89964 -0.86669,-3.24576 -2.08053,-6.38872 -3.12079,-9.58308 -2.05826,-3.65548 -3.50619,-7.72954 -6.17478,-10.96645 -7.79708,-9.45761 -15.82109,-13.50904 -26.87033,-16.58625 -15.3234,-4.32564 -31.05224,-6.80174 -46.95245,-7.76298 -12.75488,-0.74388 -16.59113,-1.13686 -29.79427,-1.15488 -24.30647,-0.0332 -48.57135,1.98289 -72.64647,5.23973 -27.03281,4.18017 -54.46783,8.5278 -79.8169,19.26907 -48.07685,22.38565 -16.41876,90.37657 31.65808,67.99093 z"/>
<path d="m 378.87882,400.93331 c 17.62841,-1.97613 35.15234,-4.83898 52.81095,-6.56324 4.90534,-0.47897 9.82571,-0.78898 14.73856,-1.18347 17.63175,-1.17597 35.29131,-0.74093 52.92492,0.0136 52.98625,2.22634 56.13478,-72.70754 3.14853,-74.93388 v 0 c -20.71951,-0.85664 -41.47069,-1.29254 -62.18131,0.16939 -5.7403,0.47597 -11.48858,0.86384 -17.22089,1.42792 -17.54854,1.72686 -34.96968,4.52305 -52.48477,6.52636 -52.71009,5.84354 -44.44607,80.38685 8.26401,74.54331 z"/>
<path d="m 378.41022,519.1582 c 17.66197,-3.4433 35.55076,-5.23035 53.47049,-6.62709 30.43876,-1.75235 60.93752,-1.90835 91.40625,-2.83592 53.00827,-1.6199 50.71738,-76.5849 -2.29088,-74.965 v 0 c -31.67317,0.97177 -63.38069,1.09454 -95.01792,3.03355 -20.86114,1.66507 -41.68927,3.79679 -62.24493,7.84457 -52.00763,10.3782 -37.33064,83.92809 14.67699,73.54989 z"/>
<path d="m 316.56027,266.95415 c 2.09379,17.18009 2.36852,34.49048 2.67759,51.77213 0.6624,41.15408 -0.64476,82.28358 -2.70175,123.37919 -2.85825,48.64873 -7.18732,97.19696 -11.70507,145.71502 -3.32242,33.20559 -6.61807,66.41319 -9.77277,99.63518 -0.71978,7.84978 -1.57947,15.68552 -2.44839,23.51982 -0.17509,1.57865 -0.98451,8.28008 -0.90229,9.7599 0.24468,4.40338 0.92637,8.77157 1.38956,13.15735 10.72969,9.60049 19.23885,22.50963 32.18908,28.80149 8.53159,4.14506 25.61132,-3.53087 33.96954,-7.40942 3.7317,-1.73166 7.33774,-3.72218 11.00851,-5.57952 15.40095,-7.79258 8.30549,-4.27241 24.72337,-12.18469 15.27159,-7.26484 31.28941,-12.68232 47.24593,-18.18477 50.11365,-17.35288 25.57298,-88.22428 -24.54067,-70.87141 v 0 c -18.68618,6.49384 -37.4245,12.93409 -55.29515,21.50695 -15.14783,7.31559 -12.28124,5.82554 -26.24156,12.93842 -2.67325,1.36204 -5.35686,2.70512 -7.99908,4.1264 -0.81947,0.44081 -3.29726,1.29491 -2.38101,1.45718 30.44105,5.39098 -3.84298,-16.60234 40.35754,28.35032 0.13471,2.97863 0.20136,5.96111 0.40413,8.93588 0.0404,0.59235 0.028,-1.18811 0.0837,-1.77922 0.15115,-1.60437 0.35902,-3.20289 0.53656,-4.80455 0.91015,-8.21081 1.8073,-16.42347 2.56437,-24.65016 3.15904,-33.26783 6.46169,-66.52099 9.7857,-99.77269 4.61591,-49.58749 9.03472,-99.2063 11.93476,-148.92858 2.13032,-42.79464 3.48293,-85.62492 2.78264,-128.47966 -0.35161,-19.09804 -0.70781,-38.22676 -2.97464,-57.21618 -4.8123,-52.81422 -79.50288,-46.0086 -74.69059,6.80562 z"/>
<path d="m 473.65958,641.44032 c 7.9221,6.28869 14.25219,14.10046 19.51765,22.69771 1.46214,2.38734 2.76793,4.86699 4.1519,7.30049 1.14809,2.67048 2.29618,5.34096 3.44426,8.01144 21.98977,48.2592 90.23858,17.16097 68.24882,-31.09823 v 0 c -2.29768,-4.89167 -4.59536,-9.78334 -6.89304,-14.67502 -2.29912,-3.88676 -4.46756,-7.85385 -6.89736,-11.66028 -8.95,-14.02071 -19.77582,-26.78421 -32.6135,-37.39197 -40.17488,-34.61905 -89.13361,22.19681 -48.95873,56.81586 z"/>
<path d="m 664.44602,315.32812 c 22.81587,-3.65533 45.90306,-5.48355 68.90911,-7.52315 28.49337,-2.77475 57.10485,-3.60634 85.71518,-3.22807 6.59499,0.14001 13.18078,0.50626 19.76419,0.90023 52.93974,3.14389 57.38586,-71.72421 4.44612,-74.86809 v 0 c -7.7473,-0.45704 -15.49757,-0.87893 -23.25858,-1.0261 -31.14077,-0.38051 -62.2841,0.50674 -93.29847,3.51579 -25.26868,2.24582 -50.62454,4.27792 -75.665,8.43389 -52.1813,9.46636 -38.79385,83.26186 13.38745,73.7955 z"/>
<path d="m 661.87345,328.74515 c -7.29294,11.16199 -14.0445,22.66365 -21.51745,33.70984 -2.28091,3.37154 -15.5994,22.33524 -17.51752,25.07101 -14.37836,21.01381 -30.28629,40.91191 -47.83957,59.34772 -4.14573,4.71451 -8.98339,8.74972 -13.38506,13.20318 -1.15322,1.16678 -3.46343,1.93482 -3.38412,3.57341 0.90005,18.59564 4.16229,37.00145 6.24343,55.50217 10.28129,2.1311 20.40928,5.22464 30.84388,6.39329 1.17695,0.13182 15.43386,-4.1384 16.41022,-4.41637 13.2338,-3.76766 26.54735,-7.0875 39.91851,-10.33174 38.28888,-8.8493 77.15239,-15.21816 116.31897,-18.54277 8.41464,-0.71426 16.85242,-1.12308 25.27863,-1.68463 26.97646,-1.44417 54.03299,-1.20161 80.9057,1.68389 10.81063,1.16081 15.33943,2.00098 25.66547,3.6441 52.38673,8.25404 64.05973,-65.83201 11.67298,-74.08605 v 0 c -12.48519,-1.95087 -17.68527,-2.90967 -30.77634,-4.27042 -30.73765,-3.19503 -61.679,-3.49191 -92.52444,-1.80086 -9.30872,0.63691 -18.6302,1.10878 -27.92616,1.91072 -42.53651,3.66949 -84.74462,10.62704 -126.3262,20.26731 -14.4675,3.52128 -28.87482,7.1235 -43.19457,11.2068 -2.24162,0.6392 -4.485,1.2739 -6.7112,1.9649 -0.43978,0.1365 -1.72149,0.38028 -1.28145,0.51597 8.66248,2.67123 17.48713,4.78504 26.23069,7.17755 1.74791,18.25506 3.94903,36.47239 5.24373,54.76517 0.0415,0.58706 -1.71294,1.61477 -1.2817,1.21429 5.65651,-5.25306 11.13115,-10.69533 16.46966,-16.27128 6.94373,-7.34055 9.11083,-9.4806 15.99905,-17.45369 13.88546,-16.07239 26.70477,-33.03486 38.84075,-50.45797 3.66448,-5.22706 15.31107,-21.78946 18.87407,-27.07388 7.61615,-11.2958 14.55459,-23.01652 21.98382,-34.4319 28.51744,-44.71303 -34.71633,-85.04279 -63.23378,-40.32976 z"/>
<path d="m 743.09605,372.527 c 0.13343,13.10956 -0.79704,26.16463 -3.67635,38.98295 -1.21335,5.40164 -2.74494,10.72683 -4.11741,16.09024 -11.71736,41.7341 -27.93488,82.23729 -48.57008,120.3756 -5.12599,9.47395 -10.71885,18.68776 -16.07827,28.03164 -28.53991,46.38405 -61.83445,89.80724 -98.65082,129.92673 -6.40562,6.98033 -13.10325,13.68696 -19.65487,20.53044 -16.17971,16.12928 -33.01057,31.57905 -49.78446,47.08157 -38.94529,35.99672 11.96177,91.07368 50.90706,55.07696 v 0 c 17.91369,-16.55891 35.88437,-33.06649 53.10838,-50.35119 7.23157,-7.58452 14.6194,-15.02307 21.69472,-22.75356 40.19148,-43.91325 76.45489,-91.48796 107.49499,-142.29487 5.9677,-10.47459 12.19971,-20.80295 17.9031,-31.42377 23.15629,-43.12151 41.34591,-88.88436 54.39901,-136.0417 1.74856,-7.1443 3.74725,-14.23198 5.24567,-21.4329 3.80264,-18.27413 5.12788,-36.91862 4.68533,-55.55181 -2.65424,-52.96655 -77.56025,-49.21287 -74.906,3.75367 z"/>
<path d="m 700.62476,600.34284 c 0.0536,19.50844 -0.045,39.01593 -0.18454,58.52379 0.12486,27.33091 -0.92122,54.68974 0.033,82.01475 0.17152,4.91157 0.50513,9.81614 0.7577,14.72421 0.52726,4.7336 0.83616,9.49665 1.58178,14.20079 3.08171,19.44268 10.16309,39.21768 24.96559,52.95791 4.28236,3.97504 9.40507,6.93562 14.10761,10.40344 5.04541,2.2205 9.92656,4.85977 15.13622,6.6615 9.78721,3.38485 20.54856,4.91203 30.79843,5.87508 15.97616,1.50108 31.99193,1.04049 47.99839,0.61931 27.84995,-1.36687 55.64526,-3.58066 83.53188,-4.0629 10.89017,-0.23823 21.75937,0.67837 32.64165,0.71102 16.5929,-3.20595 20.8026,-1.80191 34.11041,-19.30096 6.6981,-8.80772 7.1129,-22.0018 7.6105,-32.47562 0.1236,-2.60214 0.6894,-31.38795 0.6967,-31.74833 0.1675,-7.17755 0.335,-14.3551 0.5026,-21.53265 1.237,-53.01858 -73.74264,-54.76795 -74.97964,-1.74937 v 0 c -0.16912,7.25125 -0.33825,14.50251 -0.50738,21.75377 -0.20138,9.88449 -0.54277,19.76685 -0.62474,29.65306 -0.0104,1.2522 -0.69293,4.694 0.13476,3.7543 2.35712,-2.67611 2.3675,-7.0118 4.92423,-9.49791 13.93808,-13.55312 13.4726,-11.96985 27.42442,-13.85295 -2.33947,0.28446 -6.83481,-0.22574 -9.06641,-0.30586 -8.06745,-0.28962 -16.13995,-0.4553 -24.21313,-0.39642 -28.13075,0.52117 -56.17835,2.56611 -84.26665,4.07969 -12.43209,0.36642 -24.78503,0.65992 -37.20884,-0.14085 -2.60607,-0.16797 -5.20172,-0.47055 -7.80258,-0.70582 -1.53826,-0.20443 -3.06794,-0.48934 -4.61477,-0.61328 -0.60112,-0.0482 -1.20431,0.0659 -1.80646,0.0988 0.18271,1.18331 0.54883,2.48192 -0.24843,2.27572 -1.47211,-0.38074 -2.95893,-4.17891 -3.12547,-4.67248 -1.90997,-5.66039 -2.04423,-9.84694 -2.80519,-15.94699 -0.22263,-4.08385 -0.52038,-8.16429 -0.66789,-12.25155 -0.96182,-26.64993 0.13423,-53.33709 -0.0202,-79.99321 0.1407,-19.68658 0.24,-39.37281 0.18646,-59.05998 0,-53.03301 -75,-53.03301 -75,0 z"/>
</svg>
