<?xml version="1.0" ?>
<svg xmlns="http://www.w3.org/2000/svg" width="1000" height="1000">
<path d="m 330.67554,100.02831 c -5.8356,11.01476 -10.56549,22.55756 -15.7994,33.85555 -4.7673,10.29074 -11.52793,23.84158 -16.42299,33.78099 -15.98313,32.36671 -33.05248,64.20152 -51.4605,95.25603 -5.90344,9.95916 -23.90743,39.32238 -30.02478,49.32498 -20.43134,33.49838 -42.25303,66.11468 -64.55333,98.38879 -0.68929,0.98445 -7.57458,10.6987 -8.42989,12.33792 -8.61428,16.50929 -13.02322,30.53582 4.1399,50.71744 15.52497,18.25537 32.23375,12.05731 49.05106,8.5401 4.47207,-1.41734 8.95253,-2.80845 13.4162,-4.25202 5.14238,-1.66307 10.24707,-3.44244 15.40151,-5.06776 14.01489,-4.41926 24.12232,-7.34465 38.6282,-10.91183 23.42695,-5.76097 29.80418,-6.70072 54.28415,-11.52454 60.06737,-10.91941 121.05089,-15.73797 182.00014,-18.06027 13.38703,-0.51008 26.78241,-0.76996 40.17362,-1.15494 49.94978,-1.20362 99.93538,-0.83845 149.82481,2.0025 21.81657,1.24234 36.36507,2.49851 57.76254,4.18974 52.86856,4.17318 58.77033,-70.59425 5.90177,-74.76744 v 0 c -22.37988,-1.76431 -37.24883,-3.04859 -60.11828,-4.33843 -51.79292,-2.92112 -103.68443,-3.31224 -155.53864,-2.05503 -13.86443,0.40315 -27.7333,0.67496 -41.59329,1.20945 -64.62917,2.49229 -129.28142,7.73203 -192.95923,19.39862 -10.47602,2.07757 -20.98418,3.99919 -31.42807,6.2327 -32.09541,6.86386 -63.67631,15.77111 -94.6804,26.52621 -3.15401,10.32367 4.9776,-17.29409 24.86317,13.03116 26.69689,40.71243 9.32973,25.12686 3.45696,41.61201 -1.49535,4.19752 11.99714,-21.85033 7.54822,-11.03273 23.09031,-33.42178 45.67352,-67.20526 66.83228,-101.89205 6.85096,-11.20278 24.45407,-39.90286 30.9413,-50.86469 19.24522,-32.51966 37.11959,-65.83769 53.84784,-99.71851 6.19951,-12.59619 11.76499,-23.70039 17.63986,-36.3767 4.75992,-10.2706 9.0217,-20.78196 14.34733,-30.78635 23.75943,-47.412969 -43.29264,-81.013869 -67.05206,-33.6009 z"/>
<path d="m 338.30581,328.59484 c 5.1755,25.34908 7.52001,51.18132 9.94675,76.90413 4.83628,54.72699 3.25117,109.72282 -0.59972,164.44969 -0.86466,12.28815 -1.96843,24.5583 -2.95265,36.83745 -5.21889,59.01275 -14.10866,117.6164 -24.85158,175.85221 -2.79064,10.87757 -3.54573,23.19468 -7.6009,33.80151 -0.0893,0.23364 -0.41817,-0.50778 -0.26201,-0.70317 4.09867,-5.12858 6.86946,-12.14339 12.79226,-14.97567 8.0375,-3.84352 17.63806,-2.5289 26.45709,-3.79335 0.70901,-0.0472 2.51173,0.45585 2.12702,-0.14158 -1.36388,-2.11802 -3.65538,-3.46847 -5.5331,-5.14786 -3.3242,-2.9731 -6.68012,-5.91123 -10.07096,-8.8081 -12.50784,-10.68577 -25.31904,-20.95267 -38.27974,-31.07966 -18.76938,-13.72515 -9.58929,-7.17903 -27.51278,-19.67685 -43.519,-30.30835 -86.38149,31.23681 -42.86248,61.54516 v 0 c 15.92342,11.07465 7.83826,5.32822 24.23898,17.26243 11.8744,9.25002 23.60351,18.64831 35.05774,28.41802 3.11512,2.65699 6.1755,5.37754 9.25076,8.08055 3.41844,3.00463 6.57616,6.32918 10.23026,9.04229 5.02236,3.72901 10.48702,6.82208 15.73053,10.23312 12.17958,0.0669 24.9625,3.98711 36.53875,0.20067 8.47454,-2.77192 13.71202,-11.56317 19.34088,-18.47818 2.56754,-3.15421 3.4562,-7.37702 4.82338,-11.20744 1.26908,-3.55558 2.15745,-7.23855 3.06817,-10.90233 2.31237,-9.3025 4.41962,-20.83896 6.22362,-30.07413 11.19088,-60.75863 20.44723,-121.90036 25.85552,-183.47004 1.0186,-12.7699 2.16354,-25.53035 3.0558,-38.30969 4.0904,-58.58497 5.61448,-117.45548 0.40069,-176.03036 -2.74239,-28.82174 -5.44448,-57.75867 -11.40596,-86.13324 -11.52897,-51.76469 -84.73529,-35.46027 -73.20632,16.30442 z"/>
<path d="m 216.67042,727.26134 c 1.1703,-1.63497 2.28458,-3.31153 3.51089,-4.90492 6.04553,-7.85515 15.76703,-19.56108 21.63345,-26.36258 13.7153,-15.90145 25.85466,-29.43218 40.93703,-44.28106 8.68448,-8.55004 17.78363,-16.6684 26.67544,-25.00261 30.37105,-25.43533 29.66143,-25.78398 62.33504,-49.24993 11.0879,-7.96324 22.46463,-15.5164 33.69694,-23.27461 43.61644,-30.16796 0.9525,-91.85092 -42.66394,-61.68296 v 0 c -11.99706,8.30874 -24.15768,16.38613 -35.99116,24.92622 -35.82087,25.85148 -35.42151,26.5638 -68.74148,54.63078 -9.81164,9.2447 -19.84901,18.25554 -29.43492,27.73409 -16.14766,15.9668 -29.67679,31.03497 -44.38506,48.13292 -7.44722,8.65719 -18.43481,21.93121 -25.58233,31.53257 -2.14104,2.87609 -4.06073,5.91052 -6.0911,8.86579 -27.53213,45.32639 36.56907,84.2627 64.1012,38.9363 z"/>
<path d="m 500.61955,195.37626 c -0.2672,25.04535 2.24594,50.01448 6.1702,74.7285 1.60096,10.08243 3.55552,20.10553 5.33328,30.15829 11.97387,66.95071 28.40775,133.02073 48.31669,198.04029 4.48608,14.65087 9.30655,29.19727 13.95983,43.7959 18.13958,54.70213 38.5488,108.67942 62.43461,161.14458 12.00876,26.37723 17.50278,36.76607 30.19846,62.06447 14.37927,27.62483 29.68895,54.8885 48.13602,80.03868 7.19545,9.81006 9.47093,12.20835 16.93495,20.99987 16.14474,17.50944 30.97165,31.93247 60.29745,19.42392 17.38389,-7.41488 21.91702,-27.99532 27.03383,-43.24429 7.85707,-28.25111 19.05168,-55.36781 29.86398,-82.56434 4.95848,-12.47223 9.90874,-24.94772 14.86312,-37.42158 19.57611,-49.28768 -50.12721,-76.97248 -69.70332,-27.6848 v 0 c -4.95421,12.47345 -9.91217,24.94541 -14.86263,37.42035 -11.40418,28.73807 -23.15934,57.4129 -31.54073,87.22959 -1.01904,3.39958 -6.58511,10.58462 -3.05713,10.19873 6.21211,-0.67949 8.66865,-10.37031 14.81757,-11.4851 10.71851,-1.94326 21.80071,1.13858 32.55106,2.89721 1.45362,0.23779 2.20339,1.9559 3.27741,2.96389 2.23291,2.09563 -13.03764,-11.70628 -6.52843,-6.46357 -5.56227,-6.44657 -7.21,-8.1502 -12.65777,-15.49736 -16.36074,-22.06497 -29.67355,-46.19046 -42.40302,-70.47132 -11.98562,-23.84586 -17.23123,-33.75832 -28.56405,-58.59124 -22.83881,-50.04529 -42.30092,-101.5599 -59.63854,-153.75006 -4.48498,-14.04928 -9.13009,-28.04844 -13.45492,-42.14785 -19.13521,-62.38282 -34.94637,-125.77224 -46.43154,-190.01946 -1.63169,-9.13142 -3.41177,-18.23757 -4.89508,-27.39427 -3.44763,-21.28276 -5.72997,-42.78584 -5.4513,-64.36903 0,-53.03301 -75,-53.03301 -75,0 z"/>
<path d="m 682.07235,523.07182 c -0.75518,2.15273 -1.40935,4.3436 -2.26554,6.45819 -3.21612,7.94306 -6.02009,13.05315 -10.57463,20.76574 -8.24775,13.96662 -16.15139,26.18777 -25.97435,39.28705 -6.1451,8.19472 -12.77003,16.01841 -19.15505,24.02761 -30.235,35.24458 -62.35815,69.52497 -100.69616,96.13982 -8.93596,6.20349 -18.45329,11.52453 -27.67994,17.2868 -44.8376,28.32119 -4.7854,91.73113 40.0522,63.40995 v 0 c 11.15695,-7.11281 22.66168,-13.70748 33.47085,-21.33843 43.08248,-30.41497 79.6034,-68.8839 113.61407,-108.89188 7.33649,-9.29083 14.95039,-18.36918 22.00949,-27.87249 6.09886,-8.21059 11.84641,-16.68254 17.44448,-25.24241 11.9712,-18.30488 23.13665,-37.57138 30.22069,-58.34868 18.1594,-49.82706 -52.30671,-75.50833 -70.46611,-25.68127 z"/>
<path d="m 688.59814,243.28878 c 2.30884,1.59172 1.19485,0.84367 5.54741,3.53806 4.76895,2.95215 14.73353,9.01052 19.0949,11.80362 9.1201,5.84066 15.45701,10.27004 24.52719,16.45815 8.78266,6.43442 16.07072,11.31023 23.93534,18.80902 3.23542,3.08492 6.06487,6.56931 9.09731,9.85396 36.63783,38.34278 90.86272,-13.47094 54.22488,-51.81373 v 0 c -5.05446,-5.17856 -9.85905,-10.61339 -15.16338,-15.5357 -10.05707,-9.33276 -18.8474,-15.26372 -29.84729,-23.28292 -18.93154,-12.89742 -38.06528,-25.52717 -57.93524,-36.94241 -47.45531,-23.67473 -80.93644,43.43722 -33.48112,67.11195 z"/>
</svg>
