<?xml version="1.0" ?>
<svg xmlns="http://www.w3.org/2000/svg" width="1000" height="1000">
<path d="m 441.63105,114.25741 c 15.74516,4.77188 30.40253,12.42155 44.82195,20.20141 16.20909,10.18064 8.34128,4.92014 23.62249,15.75298 43.39777,30.4817 86.50539,-30.89201 43.10763,-61.373707 v 0 c -20.16853,-14.065838 -9.73578,-7.213478 -31.33463,-20.501582 -5.18598,-2.758774 -10.31087,-5.635593 -15.55795,-8.276321 -14.17078,-7.13182 -28.91087,-13.321421 -44.09808,-17.929254 -51.00112,-14.539114 -71.56253,57.587361 -20.56141,72.126474 z"/>
<path d="m 303.14488,269.23588 c 27.38855,-7.06463 55.25526,-12.01113 83.08272,-16.96746 51.28913,-8.53255 103.0032,-14.64246 154.93647,-17.39112 10.23696,-0.54181 20.48699,-0.79959 30.73048,-1.19938 33.34895,-0.89258 66.74974,-0.6314 100.02711,1.87854 14.18707,1.07005 17.57817,1.58669 30.96454,3.1424 11.89057,1.48931 23.72609,3.39881 35.4154,6.03998 3.84974,1.2733 -7.2325,-2.38127 -8.32534,-3.39675 -6.03487,-5.60767 -10.96573,-12.35294 -15.63492,-19.14001 -1.1426,-1.66087 0.44645,-5.59187 -1.55356,-5.8449 -1.85331,-0.23447 -0.36218,3.71979 -0.62523,5.56925 -0.48967,3.44289 -1.08825,6.8694 -1.63238,10.3041 -0.99198,4.69268 -1.87832,9.40895 -2.97593,14.07806 -3.00414,12.77925 -6.30608,24.27034 -9.93551,36.94071 -2.81955,9.84304 -9.64297,33.28656 -12.75326,42.92621 -2.26509,7.02012 -4.7849,13.95548 -7.17734,20.93323 -2.77181,6.42214 -5.54361,12.84428 -8.31541,19.26641 -20.78092,48.79194 48.2213,78.1806 69.00222,29.38866 v 0 c 3.42805,-8.1346 6.8561,-16.26921 10.28414,-24.40382 2.66109,-7.81135 5.45264,-15.57947 7.98326,-23.43406 3.15481,-9.79194 10.31609,-34.35885 13.1813,-44.39239 4.10026,-14.35851 7.84143,-27.45993 11.16753,-41.99283 1.37128,-5.99163 2.46092,-12.04424 3.69139,-18.06636 0.88216,-6.00467 3.23571,-19.73395 3.1025,-26.47798 -0.10497,-5.31405 0.77839,-11.06052 -1.46805,-15.87754 -8.54439,-18.32159 -14.49593,-25.25005 -31.52946,-29.54564 -14.29828,-3.21474 -28.76704,-5.58594 -43.31196,-7.38085 -15.02119,-1.71943 -19.05112,-2.31875 -34.85623,-3.48862 -35.82693,-2.65185 -71.78222,-2.96138 -107.68311,-1.96743 -10.91819,0.43556 -21.84338,0.72119 -32.75455,1.30668 -54.67553,2.93387 -109.12206,9.37693 -163.11722,18.3896 -29.50041,5.2639 -59.03434,10.54668 -88.07134,18.03303 -51.45636,12.83522 -33.30462,85.6055 18.15174,72.77028 z"/>
<path d="m 370.71651,399.56666 c 27.88541,-7.33824 56.60235,-10.89953 85.15291,-14.51184 48.19947,-5.38423 96.64383,-9.12558 145.1597,-9.65706 8.80297,-0.0964 17.60686,0.0705 26.4103,0.10578 31.20019,1.22864 15.92975,0.25929 45.81662,2.82311 52.84682,4.44001 59.12594,-70.29668 6.27912,-74.73669 v 0 c -34.16007,-2.81772 -16.8815,-1.7733 -51.83853,-3.08598 -9.51528,-0.0276 -19.03118,-0.19391 -28.54586,-0.0827 -51.04807,0.59665 -102.02141,4.52872 -152.73375,10.23158 -31.92205,4.07096 -64.0012,8.17505 -95.15788,16.48169 -51.21724,13.75844 -31.75987,86.19055 19.45737,72.43211 z"/>
<path d="m 316.37984,247.74265 c -0.15075,2.39921 -0.2363,3.98827 -0.56618,6.731 -1.14065,9.48351 -2.07484,14.39264 -3.77699,24.43424 -4.02087,23.7205 -2.97474,17.51021 -7.60884,42.92874 -10.82718,54.08018 -24.72998,107.57573 -41.44493,160.13673 -3.90082,12.26633 -8.1054,24.43399 -12.1581,36.65098 -17.64725,49.83201 -38.04213,98.86331 -63.89807,145.05011 -13.65976,24.40061 -29.10547,48.11645 -44.03485,71.73304 -29.47804,46.88058 -64.92507,89.5083 -99.32148,132.76565 -33.006636,41.50978 25.69706,88.18821 58.7037,46.67843 v 0 c 36.08281,-45.37869 73.14403,-90.18544 104.02645,-139.38987 16.70245,-26.46007 31.85596,-49.66135 47.08774,-77.03295 27.70566,-49.78726 49.70346,-102.54019 68.62924,-156.21213 4.24284,-12.81587 8.64505,-25.58006 12.72852,-38.44759 17.5499,-55.30202 32.1397,-111.58494 43.46681,-168.48737 4.21682,-23.15298 4.15612,-22.3367 7.81579,-44.11873 2.62894,-15.64718 5.58384,-31.43343 5.24706,-47.37098 -2.79356,-52.95938 -77.68944,-49.00868 -74.89587,3.9507 z"/>
<path d="m 483.32037,475.51047 c 13.1764,5.63758 25.70471,12.66436 37.97554,20.03386 2.39053,1.56444 4.78106,3.12888 7.17159,4.69331 44.46646,28.90041 85.33781,-33.98467 40.87135,-62.88507 v 0 c -3.19606,-2.06649 -6.39211,-4.13298 -9.58817,-6.19947 -15.02801,-8.93534 -30.32256,-17.50694 -46.42519,-24.37902 -48.60397,-21.21683 -78.60909,47.51957 -30.00512,68.73639 z"/>
<path d="m 346.0596,598.78544 c 31.84311,-9.76432 64.83325,-14.96298 97.65659,-20.14677 55.50231,-7.82021 111.50258,-11.94757 167.53862,-12.86624 10.57572,-0.17338 21.15407,-0.098 31.7311,-0.14701 38.50449,0.0489 76.89771,3.16372 115.1038,7.70912 52.66292,6.25431 61.50785,-68.22231 8.84492,-74.47662 v 0 c -41.26523,-4.8927 -82.73482,-8.20281 -124.31949,-8.23159 -11.15017,0.0584 -22.30181,-0.0147 -33.45051,0.17523 -59.26626,1.00986 -118.4922,5.42384 -177.18541,13.76118 -9.94368,1.5803 -19.90828,3.03417 -29.83105,4.74091 -27.13165,4.6667 -54.19288,10.34102 -80.4891,18.56202 -50.14785,17.25378 -25.74732,88.17355 24.40053,70.91977 z"/>
<path d="m 559.42321,664.13624 c 6.94374,3.57829 14.21681,6.50987 20.9236,10.54656 4.99795,3.00818 5.93207,3.94219 10.64729,7.55644 6.04333,5.22382 12.68532,10.826 15.08508,18.78465 1.0617,3.52107 0.8831,5.83333 1.01884,9.53588 -0.1836,2.26517 -0.26117,4.54144 -0.55082,6.79551 -0.90975,7.07969 -2.51507,14.49668 -4.19228,21.38355 -3.79683,15.59031 -8.72604,30.77422 -13.75919,45.99722 -10.04171,28.73539 -22.11998,56.71348 -34.9295,84.30946 -1.43989,2.90823 -2.84672,5.83307 -4.31967,8.72469 -2.65762,5.21732 -5.37859,10.51519 -8.76548,15.31319 -1.75292,2.48326 -1.60019,2.28254 -1.12566,1.10063 5.25101,-6.01432 9.65556,-7.26481 17.33851,-8.88999 1.1247,-0.23791 3.52229,0.77704 3.42899,-0.36876 -0.10828,-1.3299 -2.41188,-1.14287 -3.6013,-1.74755 -2.5177,-1.27998 -5.01277,-2.60399 -7.51916,-3.90598 -14.30256,-8.35266 -7.01528,-3.95358 -21.83973,-13.23382 -44.99865,-28.06459 -84.68798,35.57311 -39.68932,63.6377 v 0 c 18.3422,11.40381 8.9944,5.82793 28.05343,16.71082 13.01655,6.34156 26.55408,13.62979 41.50285,13.90684 11.27021,0.20887 19.24356,-2.20143 28.62367,-7.94618 3.11445,-1.90741 5.65429,-4.62396 8.48144,-6.93594 1.78157,-2.03041 3.65553,-3.98335 5.34473,-6.09124 9.32767,-11.63971 15.38536,-25.55212 22.12565,-38.71965 14.00913,-30.23094 27.21107,-60.88176 38.12028,-92.38389 5.85937,-17.82226 11.6611,-35.62291 15.89828,-53.92071 2.6599,-11.48645 5.1925,-24.16208 5.81721,-35.97209 0.32675,-6.1772 -0.14899,-12.37077 -0.22349,-18.55616 -2.79457,-15.77381 -2.40464,-19.58288 -9.11009,-34.12803 -8.10228,-17.57507 -21.54226,-31.68455 -36.49107,-43.6075 -3.31963,-2.42326 -6.55765,-4.96246 -9.95889,-7.26978 -9.5142,-6.45422 -19.79834,-11.64532 -30.25234,-16.37615 -46.49247,-25.51373 -82.57433,40.23655 -36.08186,65.75028 z"/>
<path d="m 543.47103,542.2933 c -1.56319,1.85102 -3.21161,3.63331 -4.68956,5.55307 -5.05788,6.56984 -10.48541,14.81497 -15.20059,21.47016 -14.59769,20.60376 -29.6907,40.86318 -44.66043,61.1957 -38.91074,51.99232 -79.48386,102.72411 -121.60652,152.14866 -7.36328,8.63969 -14.8502,17.17324 -22.27531,25.75986 -34.68456,40.11834 22.05134,89.16971 56.7359,49.05137 v 0 c 7.64291,-8.84199 15.34895,-17.6298 22.92873,-26.52597 43.16699,-50.66389 84.74256,-102.67057 124.61409,-155.96804 19.80537,-26.90178 39.67762,-53.76925 58.71115,-81.22139 36.39013,-38.57795 -18.16732,-90.04137 -54.55746,-51.46342 z"/>
</svg>
