<?xml version="1.0" ?>
<svg xmlns="http://www.w3.org/2000/svg" viewBox="0 0 1000 1000">
<path d="m 348.08647,249.29234 c 23.83748,-4.59443 47.51316,-9.88247 71.55249,-13.40351 9.33885,-1.36786 18.7135,-2.47904 28.07025,-3.71856 53.99797,-5.88931 108.37115,-10.01264 162.73334,-9.07836 9.02928,0.15518 18.04773,0.69856 27.07159,1.04784 20.13491,1.76808 23.29201,1.56921 42.21332,4.89349 5.14864,0.90457 10.23673,2.12519 15.35509,3.18778 51.96526,10.58826 66.93932,-62.90172 14.97405,-73.48998 v 0 c -6.48672,-1.30202 -12.93705,-2.80068 -19.46016,-3.90605 -22.54768,-3.82081 -26.73273,-3.64864 -50.26431,-5.63229 -10.02253,-0.36686 -20.03961,-0.94064 -30.06758,-1.10058 -57.611,-0.91886 -115.23167,3.41302 -172.45003,9.73371 -10.10613,1.35084 -20.23211,2.56067 -30.3184,4.05252 -23.68187,3.50276 -47.06999,8.45465 -70.51074,13.2401 -52.44886,7.84965 -41.34777,82.02354 11.10109,74.17389 z"/>
<path d="m 312.56957,434.34871 c 26.59743,-6.54852 53.18969,-13.11824 79.83988,-19.44952 49.80125,-11.39493 100.54792,-18.18368 151.43072,-22.38975 11.25384,-0.93027 22.53009,-1.56602 33.79514,-2.34902 38.12504,-1.94903 76.38126,-2.87869 114.51122,-0.49378 16.59147,1.03775 20.45642,1.70053 36.07934,3.56937 9.09283,1.28171 18.18484,2.78839 27.04808,5.23323 0.0191,0.005 4.07671,1.16043 4.94954,1.72668 0.23069,0.14965 -0.53289,-0.13592 -0.79933,-0.20389 -6.89941,-3.96565 -9.64851,-4.80793 -14.63217,-13.72747 -2.31537,-4.14395 -3.16162,-8.97906 -4.15786,-13.62026 -0.40193,-1.87245 0.69554,-3.96057 10e-4,-5.7453 -0.3783,-0.9721 -0.72751,1.95529 -1.09616,2.9311 -0.87709,2.32165 -1.7607,4.64084 -2.64104,6.96126 -12.22686,31.05387 -26.24746,61.35457 -40.27229,91.62494 -6.60639,14.98188 -14.23016,29.44476 -22.19339,43.73401 -25.72254,46.37727 39.86481,82.75444 65.58736,36.37717 v 0 c 8.78711,-15.90572 17.31032,-31.94636 24.65816,-48.58487 14.82782,-32.01056 29.6359,-64.06198 42.48757,-96.93121 3.48875,-9.45688 9.22896,-23.08731 8.41311,-33.25626 -0.50052,-6.23856 -1.62928,-12.62553 -4.33704,-18.26807 -5.43089,-11.31709 -10.30789,-13.26651 -19.18514,-19.02388 -1.88542,-0.8503 -3.7383,-1.77681 -5.65626,-2.55091 -15.70443,-6.33841 -32.80045,-8.49255 -49.38147,-11.15908 -18.02274,-2.10337 -22.51238,-2.85783 -41.49823,-4.01064 -40.99794,-2.48935 -82.12497,-1.55281 -123.11342,0.60032 -11.91151,0.83662 -23.83492,1.51832 -35.73454,2.50986 -54.30855,4.52529 -108.45561,11.88338 -161.60302,24.0785 -26.69133,6.34476 -53.32737,12.91694 -79.96573,19.47955 -51.57489,12.3503 -34.10893,85.28822 17.46596,72.93792 z"/>
<path d="m 377.34424,573.37329 c 2.2625,0.17624 4.51911,0.46278 6.78751,0.52872 11.63531,0.3382 23.37401,-1.06946 34.90521,-2.32623 12.91663,-1.40776 25.81643,-2.96616 38.72757,-4.42347 40.76412,-4.84665 81.76603,-7.81989 122.82936,-7.95348 7.70687,-0.0251 15.41282,0.17567 23.11923,0.2635 22.6057,0.60855 45.26212,2.092 67.52482,6.24047 8.13068,1.51509 10.83908,2.34201 18.45819,4.31759 2.11049,0.61558 4.22098,1.23115 6.33147,1.84673 50.95295,14.70704 71.75184,-57.35132 20.79889,-72.05835 v 0 c -2.8675,-0.82127 -5.73499,-1.64254 -8.60249,-2.46381 -10.55917,-2.65874 -13.82698,-3.65242 -25.0274,-5.68262 -25.95682,-4.70496 -52.33505,-6.54137 -78.677,-7.19567 -8.41083,-0.0855 -16.8213,-0.29222 -25.23249,-0.25646 -43.43708,0.18469 -86.81152,3.30525 -129.93522,8.41541 -12.66074,1.42926 -25.3131,2.9325 -37.97601,4.34247 -4.15685,0.46285 -8.314,0.92827 -12.47929,1.30771 -2.65085,0.24148 -5.3097,0.38621 -7.96618,0.55478 -1.07785,0.0684 -2.17452,-0.0417 -3.23628,0.15608 -0.34751,0.0647 0.68624,0.16993 1.02936,0.2549 -52.41904,-8.04634 -63.79829,66.08538 -11.37925,74.13173 z"/>
<path d="m 336.93559,415.60476 c 0.53654,11.70554 -0.20723,23.39245 -1.02481,35.06401 -1.88075,20.98376 -3.98587,41.96753 -7.09124,62.81134 -2.53221,16.99667 -3.66529,22.07034 -6.90045,39.23638 -7.69906,38.58132 -17.41466,76.85145 -30.28595,114.05367 -2.75224,7.95487 -5.79394,15.80664 -8.69091,23.70996 -17.05361,44.45378 -37.80939,87.48594 -61.39171,128.8411 -4.8051,8.42645 -9.89524,16.68713 -14.84286,25.0307 -27.01696,45.63533 37.52114,83.84309 64.53811,38.20776 v 0 c 5.36015,-9.06765 10.87203,-18.0473 16.08044,-27.20296 25.40464,-44.65777 47.71575,-91.13712 66.06012,-139.13503 3.19585,-8.77022 6.54952,-17.48452 9.58754,-26.31065 13.85361,-40.24784 24.36015,-81.62279 32.65587,-123.34756 1.3829,-7.3833 2.85715,-14.75008 4.1487,-22.14991 5.12014,-29.3353 8.41478,-58.95395 10.95657,-88.6131 1.05343,-15.63782 1.9717,-31.3346 0.8912,-47.00097 -4.81205,-52.81424 -79.50266,-46.00898 -74.69062,6.80526 z"/>
</svg>
