<?xml version="1.0" ?>
<svg xmlns="http://www.w3.org/2000/svg" viewBox="0 0 1000 1000">
<path d="m 295.30253,344.52437 c 32.6519,-7.98245 65.67244,-14.38893 98.7067,-20.56134 60.03428,-10.71487 120.67263,-17.79936 181.46038,-22.50091 12.54585,-0.97034 25.10909,-1.70099 37.66363,-2.55149 40.09939,-2.30899 80.28072,-3.62158 120.44937,-2.96236 15.68553,0.25742 20.06816,0.57642 34.85772,1.29794 8.07839,0.37591 16.1182,1.1958 24.12847,2.27018 52.58656,6.86685 62.29774,-67.50178 9.71118,-74.36863 v 0 c -10.03971,-1.28663 -20.10477,-2.35712 -30.22347,-2.81432 -16.19176,-0.77403 -20.87148,-1.11261 -37.98214,-1.38355 -42.02803,-0.6655 -84.06873,0.70002 -126.02341,3.13314 -13.02231,0.88668 -26.05362,1.64969 -39.06691,2.66004 -63.23688,4.90968 -126.31337,12.32869 -188.76319,23.49832 -34.79767,6.51445 -69.58394,13.26474 -103.96545,21.74191 -51.29428,13.46835 -32.24716,86.00942 19.04712,72.54107 z"/>
<path d="m 563.65173,103.59193 c 1.20636,16.73012 1.90664,33.49564 2.71892,50.24867 2.43789,49.58395 5.0756,99.159 7.85479,148.72504 3.26261,55.86617 7.18533,111.70359 9.16957,167.63674 0.4139,11.66727 0.66445,23.33976 0.99668,35.00963 1.57739,66.09842 -0.57532,132.19644 -2.11232,198.27252 -1.13092,42.96005 -1.61016,85.9393 -3.37788,128.88027 -0.24253,4.1017 -0.43915,8.20637 -0.7276,12.30509 -0.39619,5.62979 -0.91476,11.473 -1.70486,17.08278 -0.0114,0.0811 -0.9014,6.35962 -1.54838,7.42932 -0.26304,0.43491 0.10936,-1.01064 0.16404,-1.51597 5.89975,-10.7151 3.92771,-9.97496 16.21056,-17.38061 1.92892,-1.16299 4.6121,-0.78377 6.40852,-2.1425 0.58146,-0.4398 -0.96659,-1.12354 -1.58946,-1.50242 -2.45105,-1.49094 -5.11901,-2.60202 -7.58056,-4.07556 -4.13046,-2.47261 -8.12196,-5.17026 -12.18295,-7.75539 -15.20094,-11.64219 -17.15574,-12.46076 -31.58134,-26.60744 -6.0497,-5.93273 -11.71224,-12.24779 -17.56836,-18.37168 -36.79563,-38.19137 -90.80639,13.84551 -54.01076,52.03689 v 0 c 7.13558,7.36061 14.01442,14.97909 21.40673,22.08182 19.14462,18.39465 21.92373,19.49772 42.48612,34.75919 13.86562,8.32953 22.69867,14.71871 37.96653,19.9133 11.9052,4.05051 26.79333,6.95053 39.28505,3.03732 7.39955,-2.31801 14.34619,-6.41931 20.25414,-11.44152 4.4081,-3.74723 6.62786,-9.48492 9.9418,-14.22737 1.0958,-3.058 2.35992,-6.0608 3.2874,-9.17398 1.36276,-4.57424 2.50849,-11.65223 3.14077,-16.33055 1.57086,-11.62302 2.26994,-23.34349 2.87964,-35.04799 1.77229,-43.38436 2.29714,-86.8052 3.42057,-130.20891 1.56709,-67.37123 3.74071,-134.76508 2.10201,-202.15871 -0.34462,-12.01841 -0.60618,-24.03949 -1.03386,-36.05522 -2.00288,-56.27028 -5.92803,-112.44556 -9.21945,-168.64828 -2.76931,-49.37706 -5.39612,-98.76319 -7.82515,-148.15811 -0.86368,-17.81169 -1.59688,-35.6383 -2.94029,-53.421588 -4.81201,-52.814245 -79.50264,-46.009023 -74.69062,6.805218 z"/>
<path d="m 664.36494,339.27085 c -18.77136,18.73246 -39.41596,35.48831 -59.93552,52.2399 -67.48936,54.55263 -137.39005,106.01158 -207.23753,157.47669 -40.00402,29.51787 -80.5264,58.325 -120.60547,87.73978 -12.5808,9.23329 -25.07717,18.58109 -37.61576,27.87163 -42.60965,31.57401 2.04273,91.83315 44.65238,60.25915 v 0 c 12.3584,-9.15827 24.67464,-18.37371 37.0752,-27.47481 40.2047,-29.50729 80.85496,-58.40391 120.98319,-88.01627 70.85516,-52.20912 141.75542,-104.42376 210.20576,-159.78071 22.42428,-18.34132 44.94486,-36.71299 65.45149,-57.22314 37.54186,-37.45809 -15.43187,-90.55031 -52.97374,-53.09222 z"/>
</svg>
