<?xml version="1.0" ?>
<svg xmlns="http://www.w3.org/2000/svg" viewBox="0 0 1000 1000">
<path d="m 150.34046,347.11552 c 25.76518,-3.42622 51.47012,-7.29739 77.27118,-10.4554 9.40347,-1.15098 18.82159,-2.17901 28.23238,-3.26851 51.29784,-5.88341 102.87311,-8.47235 154.45075,-10.2076 53.00275,-1.79101 50.46988,-76.74822 -2.53288,-74.95721 v 0 c -53.61604,1.81935 -107.22848,4.53366 -160.55249,10.66351 -35.26981,4.09207 -70.46411,8.7069 -105.61263,13.73664 -52.671374,6.18272 -43.927687,80.67129 8.74369,74.48857 z"/>
<path d="m 261.86215,136.09398 c 5.53577,33.69432 5.71897,68.03767 6.65936,102.08581 1.66416,73.9788 2.82303,147.9771 2.31832,221.97686 -0.11921,17.47884 -0.40243,34.95617 -0.60365,52.43426 -1.49899,95.96601 -3.60458,191.92134 -7.68602,287.81434 -1.50733,29.56786 -2.71753,59.16353 -5.14199,88.67645 -0.74282,9.04237 -2.05358,24.11821 -3.94729,33.61309 -0.5417,2.71603 -1.55086,5.3175 -2.3263,7.97625 -1.38527,0.92636 -13.6741,9.47303 2.59414,-6.57105 3.03275,-2.99096 7.11655,-4.68294 10.69403,-6.99487 1.00463,-0.64924 3.66294,-0.86005 3.05156,-1.88816 -1.29558,-2.17869 -4.35319,-2.59854 -6.51078,-3.92897 -4.03681,-2.48919 -8.04799,-5.01973 -12.07198,-7.5296 -16.09821,-11.08269 -32.1413,-22.43857 -46.65285,-35.58682 -4.78837,-4.33853 -9.21683,-9.05842 -13.82525,-13.58763 -38.03442,-36.95786 -90.300719,16.83093 -52.2663,53.78879 v 0 c 6.03335,5.81135 11.86142,11.84366 18.10007,17.43405 17.34129,15.53936 36.42239,29.04433 55.69183,42.04297 11.20888,6.69398 25.47253,16.17884 38.2163,19.83636 8.06343,2.31425 16.50805,4.72413 24.85889,3.92529 21.43339,-2.05032 31.91122,-9.40146 43.55463,-26.03904 3.339,-4.77118 4.75435,-10.63243 7.13152,-15.94865 1.33016,-5.40312 2.94357,-10.74428 3.99048,-16.20935 2.09801,-10.95203 3.64883,-28.2518 4.52671,-38.98931 2.47167,-30.23138 3.72949,-60.54539 5.26484,-90.83276 4.10866,-96.66821 6.24533,-193.39863 7.74882,-290.14043 0.20281,-17.71614 0.48859,-35.43152 0.60845,-53.14842 0.50564,-74.74338 -0.66211,-149.48535 -2.34713,-224.20749 -0.64235,-22.9705 -0.87328,-38.12638 -2.18334,-60.63899 -0.98216,-16.87793 -2.39386,-33.78669 -5.25696,-50.46326 -0.41016,-2.38902 -0.95933,-4.75209 -1.439,-7.12813 -12.88943,-51.442804 -85.64055,-33.214397 -72.75111,18.22841 z"/>
<path d="m 156.26393,754.32976 c 25.08655,-24.04488 52.27737,-45.87545 80.16793,-66.56682 11.15814,-8.27797 22.55485,-16.22942 33.83227,-24.34413 37.27136,-26.34816 76.3813,-49.88195 115.41523,-73.47255 45.38295,-27.43881 6.57862,-91.61999 -38.80433,-64.18118 v 0 c -40.74462,24.64408 -81.5565,49.2477 -120.4427,76.7951 -11.90551,8.58218 -23.93863,16.99005 -35.71653,25.74654 -19.73873,14.67511 -36.81524,28.23291 -55.46205,44.00085 -8.8355,7.47139 -21.34875,18.53472 -30.01077,27.08685 -2.50074,2.46902 -4.81383,5.12114 -7.220741,7.68171 -33.41336,41.1831 24.828331,88.43672 58.241691,47.25363 z"/>
<path d="m 561.55802,278.66984 c -3.04894,23.16643 -7.20354,46.21076 -12.4317,68.98608 -2.2126,9.63872 -4.70496,19.21109 -7.05744,28.81663 -8.86448,34.96139 -19.89082,69.32381 -31.5652,103.43279 -9.33749,27.28133 -15.9263,45.52182 -26.33524,72.33495 -4.41457,11.3718 -9.05639,22.65406 -13.58459,33.98109 -19.84489,50.0339 -42.20518,98.98392 -66.09417,147.19825 -4.89301,10.02681 -10.03966,19.92785 -14.99621,29.9228 -0.92074,1.85668 -1.95458,3.66551 -2.7128,5.59428 -1.24419,3.16501 -3.85912,6.30777 -3.28357,9.65949 2.23904,13.03927 7.64471,25.33184 11.46706,37.99775 11.28416,3.30551 22.205,8.30571 33.85249,9.91653 3.27495,0.45292 21.87323,-6.11626 25.36516,-7.29316 13.27691,-4.47474 15.79361,-5.5239 29.98181,-9.63773 6.79041,-1.96886 13.6307,-3.76142 20.44605,-5.64213 43.33947,-11.36631 87.70222,-18.3048 132.21965,-23.01942 9.13913,-0.96789 18.30006,-1.71753 27.45009,-2.57629 9.19115,-0.66545 18.38229,-1.3309 27.57344,-1.99635 52.89336,-3.84603 47.45426,-78.64854 -5.4391,-74.80251 v 0 c -9.72366,0.70989 -19.44731,1.41979 -29.17097,2.12969 -9.73821,0.92122 -19.48811,1.72623 -29.21463,2.76365 -48.30214,5.15186 -96.41478,12.81908 -143.42278,25.21826 -7.51021,2.08389 -15.04846,4.0692 -22.53061,6.25166 -14.15289,4.12825 -18.85046,5.82152 -31.89394,10.25519 -2.94583,1.00133 -5.95184,1.84258 -8.83313,3.01679 -0.26154,0.10659 -0.65889,0.63133 -0.40096,0.7464 8.59899,3.83607 17.4198,7.15426 26.1297,10.73139 2.94563,11.81887 6.61837,23.47996 8.83691,35.45663 0.23385,1.26241 -2.23834,4.61972 -1.62184,3.49354 0.79743,-1.45669 1.42744,-2.99911 2.16554,-4.48674 5.03908,-10.15622 10.26465,-20.22027 15.23917,-30.40885 24.7651,-50.00697 47.94985,-100.77527 68.53447,-152.66253 4.70637,-11.78606 9.53184,-23.52525 14.11911,-35.35816 10.69039,-27.57596 17.74453,-47.09166 27.31893,-75.1088 12.31802,-36.04565 23.91692,-72.36824 33.25871,-109.31432 2.52915,-10.38242 5.21096,-20.72884 7.58745,-31.14727 4.05356,-17.77064 6.37468,-30.20665 9.3645,-47.74268 1.29987,-7.62408 3.26095,-19.7771 4.09407,-27.88338 0.30136,-2.93218 0.38972,-5.88235 0.58457,-8.82352 0,-53.03301 -75,-53.03301 -75,0 z"/>
<path d="m 765.93263,667.36872 c 11.56543,12.81688 21.62434,27.18294 29.94939,42.30576 3.17356,5.76492 5.89417,11.76784 8.84125,17.65176 11.95712,27.96654 6.13559,13.58135 17.39362,43.18419 18.9208,49.54295 88.9851,22.7849 70.06431,-26.75804 v 0 c -13.04179,-34.02268 -6.16902,-17.21806 -20.60407,-50.4197 -3.92267,-7.62656 -7.56797,-15.40229 -11.768,-22.8797 -6.64345,-11.82747 -14.97798,-24.20075 -23.13185,-35.10853 -5.48847,-7.34215 -11.36716,-14.45879 -17.82958,-20.9744 -2.04079,-2.05758 -4.2843,-3.90365 -6.42646,-5.85548 -41.61615,-32.87241 -88.10476,25.98172 -46.48861,58.85414 z"/>
</svg>
