<?xml version="1.0" ?>
<svg xmlns="http://www.w3.org/2000/svg" width="1000" height="1000">
<path d="m 157.99669,373.64275 c 20.1409,-4.69951 40.44584,-8.79655 60.88054,-12.00701 8.18796,-1.28639 16.40766,-2.36194 24.61148,-3.54292 26.04275,-3.45606 52.24176,-5.63931 78.49061,-6.66807 12.6642,-0.49635 30.12464,-0.84096 43.02509,-0.23271 5.88952,0.27769 11.75197,0.97235 17.62795,1.45852 52.87088,4.14378 58.73105,-70.62693 5.86018,-74.7707 v 0 c -7.47312,-0.56007 -14.93244,-1.35283 -22.41937,-1.6802 -14.37136,-0.62839 -33.95573,-0.24082 -48.13365,0.33397 -28.48717,1.15488 -56.91904,3.55684 -85.18088,7.33072 -8.89356,1.29054 -17.80424,2.46809 -26.68067,3.8716 -22.8683,3.61587 -45.61116,8.19089 -68.11279,13.63136 -51.106448,14.16441 -31.07494,86.43985 20.03151,72.27544 z"/>
<path d="m 252.40445,197.29834 c 0.11986,32.56844 0.72089,65.1335 1.47957,97.69268 1.77771,60.65091 3.84235,121.29788 4.58096,181.97359 0.16347,13.42935 0.20697,26.85989 0.31046,40.28984 -0.0184,71.81793 -1.65683,143.62827 -4.03042,215.40367 -0.90436,22.87047 -1.91284,45.75095 -3.9337,68.55558 -0.82284,9.28552 -1.6891,17.38235 -3.20167,26.47946 -0.46492,2.79618 -1.09107,5.56314 -1.6366,8.34471 -0.0246,0.0901 -1.42226,6.29788 -2.45813,7.54528 -0.24994,0.30098 -0.0496,-0.81964 0.13177,-1.16626 0.92527,-1.76789 1.78565,-3.63256 3.14455,-5.09372 2.1129,-2.27188 4.38949,-4.53752 7.14275,-5.96767 3.64232,-1.89197 7.80321,-2.54834 11.70481,-3.82251 3.50933,0.20529 7.02605,0.92247 10.52798,0.61586 0.61129,-0.0535 -0.69159,-1.02979 -1.15073,-1.43688 -1.92805,-1.70948 -4.02892,-3.21514 -5.98625,-4.89101 -6.53931,-5.59897 -17.50588,-15.56049 -23.36576,-20.83468 -39.42688,-35.46859 -89.58704,20.28945 -50.16016,55.75804 v 0 c 6.39955,5.75437 20.53464,18.62745 27.51928,24.3083 5.92606,4.81986 17.99663,14.10741 25.36973,16.76409 6.62889,2.38853 13.74844,3.09348 20.62267,4.64022 6.23157,-1.37917 12.7943,-1.70445 18.6947,-4.13753 4.89597,-2.0189 9.1882,-5.41632 13.10857,-8.97681 11.17617,-10.15022 15.48538,-25.14645 18.82359,-39.23974 0.74116,-3.95783 1.58197,-7.89828 2.22346,-11.87348 5.49674,-34.0618 6.06974,-68.71623 7.83822,-103.09404 2.40408,-72.79435 4.06569,-145.62409 4.06909,-218.46157 -0.10621,-13.65297 -0.15177,-27.30654 -0.31863,-40.95889 -0.7436,-60.84239 -2.80209,-121.65632 -4.59096,-182.47375 -0.74746,-31.97594 -1.33683,-63.95773 -1.45915,-95.94278 0,-53.03301 -75,-53.03301 -75,0 z"/>
<path d="m 157.63354,710.05008 c 26.65964,-36.92008 62.14925,-66.28423 96.47721,-95.72219 31.19935,-24.94675 35.41041,-28.99272 68.31669,-52.50245 11.79567,-8.42736 23.86814,-16.46041 35.80221,-24.69061 43.64349,-30.12883 1.0349,-91.85004 -42.60859,-61.72121 v 0 c -12.60868,8.71263 -25.36547,17.21472 -37.82604,26.13788 -34.88267,24.97989 -39.49596,29.39475 -72.54523,55.87642 -10.48834,9.01795 -21.13835,17.85121 -31.46503,27.05383 -28.06313,25.00844 -55.38959,51.46201 -77.307236,82.15241 -30.699689,43.24383 30.456326,86.65975 61.156016,43.41592 z"/>
<path d="m 432.80029,527.36483 c 17.65212,-1.31283 35.30302,-2.41035 52.99452,-3.03698 22.80692,-0.31256 45.62335,-0.19184 68.42355,0.45468 53.01194,1.49501 55.1262,-73.47518 2.11426,-74.97019 v 0 c -24.39999,-0.68462 -48.81795,-0.82685 -73.22444,-0.43636 -18.17879,0.65864 -36.3218,1.73105 -54.4593,3.10383 -52.9517,2.93548 -48.80029,77.8205 4.15141,74.88502 z"/>
<path d="m 376.18623,414.77423 c 0,23.54429 0,47.08858 0,70.63287 0.11719,47.53795 -0.43489,95.07364 -1.04693,142.60667 -0.28598,25.5259 -0.63587,51.05262 -1.59626,76.56317 -0.14685,6.02235 -0.80414,21.29016 3.2285,24.26534 13.6361,10.06033 29.66872,17.22547 46.066,21.50129 2.19677,0.57283 15.03755,-7.3507 18.87934,-9.6434 29.32529,-16.43816 60.4066,-29.33614 91.44084,-42.11825 22.29193,-9.19459 44.86824,-17.61537 67.56105,-25.75336 49.91135,-17.92643 24.55955,-88.51174 -25.3518,-70.58532 v 0 c -23.76881,8.54906 -47.43331,17.34896 -70.78502,26.99587 -34.42759,14.19472 -68.8766,28.61302 -101.30026,47.05815 -2.01661,1.20352 -6.05726,1.26214 -6.04982,3.61057 0.007,2.1226 4.09604,-2.78849 6.05501,-1.97125 47.64606,19.877 39.63491,7.69855 45.15547,34.8515 0.35831,1.76239 -1.41934,-14.14849 0.0478,-5.39514 0.97987,-26.12728 1.35525,-52.27056 1.64292,-78.41359 0.61612,-47.85487 1.17031,-95.71243 1.05315,-143.57225 0,-23.54429 0,-47.08858 0,-70.63287 0,-53.03301 -75,-53.03301 -75,0 z"/>
<path d="m 679.07859,525.50187 c 20.58714,-5.40946 41.08948,-11.11604 61.72524,-16.34465 32.37484,-8.21345 65.42161,-13.10976 98.56167,-16.91418 3.42607,-0.37471 6.85215,-0.74942 10.27822,-1.12413 52.71832,-5.76883 44.55995,-80.32378 -8.15836,-74.55495 v 0 c -3.56527,0.39033 -7.13054,0.78067 -10.69582,1.17101 -36.46119,4.20689 -72.80846,9.67817 -108.42535,18.72439 -20.53721,5.21444 -40.95567,10.85122 -61.43728,16.27221 -51.45637,12.83518 -33.3047,85.60548 18.15168,72.7703 z"/>
<path d="m 625.05281,296.02462 c 0.21775,29.23815 -0.73681,58.46559 -1.60246,87.6866 -2.09039,56.86143 -4.76691,113.69795 -6.49044,170.57277 -1.34826,47.39889 -0.26252,94.81772 1.94428,142.17019 0.89012,15.923 1.63776,31.86904 3.25589,47.74082 0.8259,8.10094 1.99323,18.23886 4.10613,26.12129 1.29674,4.83762 3.18767,9.49606 4.78151,14.24409 2.66272,4.78879 4.73679,9.956 7.98814,14.36635 8.20873,11.13487 16.36951,17.66189 28.46325,24.21346 10.07499,5.45795 22.36156,9.1935 33.42975,11.84461 5.80414,1.39024 11.7156,2.28651 17.5734,3.42977 33.9875,5.20356 68.3923,6.67561 102.71368,7.74422 11.65992,0.23744 23.33337,0.43563 34.98913,-0.104 5.74015,-0.26575 12.81976,-0.75946 18.48958,-1.77459 3.32661,-0.5956 6.5904,-1.50035 9.8856,-2.25052 10.77117,-4.27597 15.81371,-5.20943 24.80803,-14.20353 20.37566,-20.37517 23.80621,-53.23348 28.27718,-80.07607 1.10355,-9.50753 2.2071,-19.01505 3.31065,-28.52257 6.03865,-52.68809 -68.47356,-61.22803 -74.51221,-8.53994 v 0 c -0.94246,8.34422 -1.88491,16.68844 -2.82737,25.03266 -1.05729,6.7195 -1.95255,13.46651 -3.17186,20.15851 -0.80319,4.40819 -1.97977,8.74058 -2.89296,13.1273 -0.30065,1.44427 -1.77771,3.30582 -0.74782,4.36205 0.8534,0.87521 2.02832,-1.37601 3.11661,-1.93269 1.56793,-0.80203 3.16481,-1.57032 4.83335,-2.13389 0.46672,-0.15764 0.98525,10e-4 1.47787,0.002 -3.85518,1.52853 -8.26432,1.5819 -12.34399,1.78626 -10.11552,0.50672 -20.24902,0.2904 -30.36909,0.10478 -30.4423,-0.93836 -60.95009,-2.18369 -91.13651,-6.48089 -10.11327,-1.80913 -11.70627,-1.84304 -20.94536,-4.32829 -1.93554,-0.52065 -3.80128,-1.28499 -5.7436,-1.77976 -0.74034,-0.18859 -1.54631,-0.48711 -2.27679,-0.26332 -0.41342,0.12666 -0.18085,1.07062 -0.6065,1.14664 -0.52271,0.0934 -0.92161,-0.52761 -1.38242,-0.79141 -0.56677,-1.13328 -1.32291,-2.19024 -1.70031,-3.39983 -1.61502,-5.17629 -2.33998,-12.48045 -2.86798,-17.58815 -1.53802,-14.87807 -2.21042,-29.83035 -3.05677,-44.75732 -2.12997,-45.4299 -3.17811,-90.92441 -1.89682,-136.39962 1.71954,-56.89141 4.41571,-113.74369 6.49192,-170.62211 0.88648,-29.96065 1.85396,-59.92797 1.63531,-89.90608 0,-53.03301 -75,-53.03301 -75,0 z"/>
</svg>
