<?xml version="1.0" ?>
<svg xmlns="http://www.w3.org/2000/svg" viewBox="0 0 1000 1000">
<path d="m 109.86503,307.0769 c 22.10968,-3.22315 44.12967,-7.0423 66.25435,-10.16935 7.86587,-1.11174 15.74861,-2.10059 23.62291,-3.15089 49.62012,-5.90979 99.56878,-8.36924 149.49448,-9.74263 17.53157,-0.33936 35.0658,-0.17136 52.5939,0.23207 53.01919,1.21062 54.73127,-73.76983 1.71208,-74.98045 v 0 c -18.79008,-0.42588 -37.5867,-0.60305 -56.38016,-0.22293 -52.55254,1.46184 -105.12821,4.08031 -157.35173,10.3744 -8.27769,1.10754 -16.56396,2.15278 -24.83308,3.32261 -22.06611,3.12169 -44.02928,6.92292 -66.079899,10.14336 -52.462948,7.75495 -41.495793,81.94876 10.967149,74.19381 z"/>
<path d="m 217.05499,126.46437 c 2.59868,28.20501 3.77845,56.52396 5.54845,84.7901 3.84045,55.64312 7.98537,111.26837 10.76661,166.97839 0.65044,13.02865 1.16997,26.0635 1.75496,39.09525 3.04496,78.61833 2.95875,157.31328 2.69488,235.9765 -0.0362,50.70055 -1.30044,101.38564 -3.97263,152.01387 -0.62087,10.37564 -1.30316,20.75402 -2.32818,31.09927 -0.16385,1.65363 -0.33324,3.30753 -0.56299,4.9533 -0.082,0.58725 -0.51278,2.3155 -0.37137,1.73966 0.45308,-1.8449 0.87099,-3.69826 1.30648,-5.54739 5.31279,-6.05692 8.95439,-14.15376 15.93835,-18.17074 6.50795,-3.74319 14.76874,-2.73887 22.20545,-3.7685 0.92242,-0.12771 3.26745,1.10096 2.77644,0.3097 -0.90857,-1.46416 -2.89875,-1.86421 -4.33339,-2.81872 -10.00249,-6.65493 -8.25268,-5.55147 -19.15389,-13.30956 -14.18974,-10.0795 -28.25564,-20.32188 -42.2181,-30.71285 -42.55255,-31.65091 -87.3137,28.52749 -44.76115,60.1784 v 0 c 14.4114,10.71391 28.91543,21.29402 43.56007,31.68814 8.29211,5.87547 14.92852,10.76274 23.44122,16.13789 15.73795,9.93736 32.40084,18.33953 52.16424,9.30742 8.49953,-3.88438 13.08204,-13.34847 19.62306,-20.0227 1.11581,-3.48374 2.42264,-6.91199 3.34744,-10.45123 0.70484,-2.69743 1.47819,-10.1725 1.74109,-12.84431 1.1071,-11.25125 1.84793,-22.53759 2.52133,-33.82136 2.72814,-51.8594 4.04143,-103.77617 4.07611,-155.70943 0.26641,-79.86952 0.3418,-159.77112 -2.77008,-239.5944 -0.59772,-13.28622 -1.12925,-26.57558 -1.79316,-39.85865 -2.79379,-55.89623 -6.9389,-111.70854 -10.79953,-167.53736 -1.8538,-29.57675 -3.05266,-59.21365 -5.89823,-88.71646 -6.09227,-52.681911 -80.59575,-44.066151 -74.50348,8.61577 z"/>
<path d="m 131.71062,710.62586 c -0.0237,0.19246 -0.19104,0.72987 -0.0712,0.5774 1.46452,-1.86333 2.75075,-3.86033 4.15312,-5.77087 2.82093,-3.84312 5.59051,-7.726 8.5165,-11.48974 4.35173,-5.59769 8.73928,-11.1716 13.3128,-16.58958 16.89505,-20.01457 25.38521,-28.54631 44.00344,-48.49306 43.12574,-44.72128 87.94859,-87.87357 135.15878,-128.28477 12.00602,-10.27697 24.33611,-20.16916 36.50417,-30.25374 40.81954,-33.85655 -7.06084,-91.58409 -47.88038,-57.72755 v 0 c -12.75853,10.59003 -25.68566,20.98017 -38.27559,31.77009 -49.02419,42.01508 -95.58705,86.8555 -140.36197,133.3498 -8.82949,9.47935 -17.80161,18.82782 -26.48847,28.43805 -14.59379,16.14503 -23.372479,26.55041 -36.243459,43.15395 -1.94709,2.51174 -12.22299,16.41926 -15.056433,20.67803 -1.525585,2.29301 -2.88223,4.69404 -4.323344,7.04106 -23.759447,47.41296 43.292606,81.01389 67.052046,33.60093 z"/>
<path d="m 414.03303,372.78183 c 20.46879,-6.46163 40.90803,-13.06166 61.65529,-18.5935 8.93451,-2.38221 17.93488,-4.51019 26.90232,-6.76529 57.02717,-13.1914 115.07475,-21.87472 173.39187,-26.77922 10.93737,-0.91984 21.90043,-1.50333 32.85064,-2.25499 31.32986,-1.64916 62.74135,-2.29571 94.09234,-0.84981 9.82772,0.45325 14.57152,0.89331 23.9484,1.63354 9.19395,0.87538 5.02761,0.4339 12.50371,1.27929 52.70375,5.90043 61.04822,-68.63392 8.34447,-74.53435 v 0 c -9.16198,-1.01754 -4.16517,-0.49822 -14.9947,-1.51617 -10.77598,-0.83738 -15.89431,-1.31106 -27.21663,-1.81774 -33.93785,-1.51875 -67.9386,-0.84413 -101.85077,0.98386 -11.68424,0.81329 -23.38216,1.44939 -35.05271,2.43988 -62.0125,5.26303 -123.72962,14.57871 -184.35436,28.69207 -9.71028,2.45462 -19.45517,4.77619 -29.13085,7.36384 -23.53297,6.29362 -46.82795,13.60954 -69.8804,21.46502 -48.96967,20.35858 -20.17829,89.61215 28.79138,69.25357 z"/>
<path d="m 576.29734,160.00243 c 0.81291,25.72651 2.24969,51.43158 3.37371,77.14676 1.41187,32.24757 2.25457,64.52867 2.13236,96.80943 -0.079,20.85489 -0.40314,29.47158 -0.92197,50.24112 -0.67239,22.92525 -1.56854,45.84296 -2.43681,68.76135 -2.00765,52.995 72.93859,55.83424 74.94624,2.83924 v 0 c 0.88052,-23.24369 1.78897,-46.48672 2.46743,-69.73748 0.54012,-21.84684 0.86734,-30.46116 0.94439,-52.4333 0.11663,-33.26352 -0.75022,-66.52717 -2.20324,-99.75661 -1.11912,-25.58607 -2.55307,-51.16188 -3.35777,-76.75942 -2.04277,-52.99365 -76.98712,-50.10474 -74.94434,2.88891 z"/>
<path d="m 552.66508,546.15197 c 15.88612,-5.68756 32.11596,-10.46324 48.5455,-14.31323 5.34252,-1.25193 10.72452,-2.32897 16.08677,-3.49346 26.93307,-5.56167 54.04789,-8.48479 81.49207,-9.55815 6.43136,0.16196 12.95779,-0.66956 19.38473,-0.0461 0.0882,0.009 -0.17124,0.0739 -0.25887,0.0606 -1.60599,-0.24249 -3.20151,-0.54987 -4.80227,-0.82481 -13.78649,-6.67831 -15.34253,-5.2559 -23.83321,-22.50484 -4.24477,-8.62331 -1.64863,-9.27892 -1.63457,-15.33437 3.9e-4,-0.16696 -0.18255,0.28278 -0.24064,0.43931 -0.37666,1.01495 -0.70766,2.04626 -1.06148,3.06939 -4.19613,11.60397 -7.27458,23.57604 -11.37697,35.21104 -3.79019,10.74957 -5.71634,14.84528 -10.29221,25.74402 -13.9949,32.56406 -32.20738,63.1577 -53.37553,91.5587 -5.1582,6.92067 -10.64568,13.58971 -15.96852,20.38457 -21.7573,26.21156 -45.88639,50.57147 -73.28718,70.91474 -16.07828,11.93706 -20.10875,13.66034 -37.11642,23.54501 -22.67512,11.22126 -11.58229,6.0726 -33.22905,15.55209 -48.52401,21.39908 -18.26113,90.02239 30.26288,68.6233 v 0 c 26.46949,-11.74047 12.78516,-5.29382 40.96932,-19.51659 21.23135,-12.58964 26.10731,-14.70911 46.06806,-29.72092 31.90031,-23.99116 60.10791,-52.49653 85.45388,-83.24951 6.05237,-7.77821 12.2933,-15.41329 18.15711,-23.33462 24.32058,-32.85428 45.15684,-68.2633 61.27103,-105.85022 2.30553,-5.54377 4.7123,-11.04652 6.91661,-16.63131 6.38927,-16.18774 11.08394,-32.91211 16.65302,-49.378 1.79176,-5.4282 4.91739,-14.03312 4.80894,-19.65753 -0.10095,-5.23514 0.38474,-10.80416 -1.673,-15.61899 -8.25985,-19.32693 -11.30548,-18.30119 -26.45535,-26.24039 -2.61236,-0.57024 -5.20125,-1.26126 -7.83708,-1.71073 -2.41696,-0.41214 -7.12999,-0.58596 -9.60346,-0.63915 -6.96826,-0.14984 -13.94202,0.0611 -20.90741,0.21567 -9.93069,0.40718 -14.53532,0.5096 -24.80454,1.3324 -23.40533,1.87531 -46.66997,5.29717 -69.69161,9.89452 -6.18511,1.35894 -12.39323,2.6171 -18.55534,4.07681 -19.59725,4.64229 -38.96778,10.38036 -57.8659,17.34361 -49.25506,19.65805 -21.45437,89.31522 27.80069,69.65717 z"/>
<path d="m 510.37076,649.2606 c 20.22156,15.72586 39.14919,33.06306 58.22781,50.13728 35.0211,32.10526 70.63275,63.55451 105.95255,95.32846 24.48232,22.06061 48.28898,44.85118 72.53396,67.16923 10.16247,9.49781 20.63044,18.64931 32.12571,26.49965 13.27654,8.03192 27.5357,14.36628 41.62744,20.81618 15.49447,6.96142 31.37603,13.03198 47.53428,18.26914 6.61554,2.1442 13.30531,4.05221 19.95797,6.07831 50.75102,15.38946 72.51495,-56.38335 21.76393,-71.77278 v 0 c -19.7019,-5.9443 -39.38037,-12.08365 -58.08253,-20.78906 -10.43507,-4.76033 -20.85941,-9.59141 -31.03006,-14.89289 -8.51436,-5.3927 -15.50206,-12.86659 -23.1043,-19.39123 -24.45675,-22.50895 -48.46216,-45.50471 -73.16666,-67.74495 -35.3689,-31.81696 -71.02741,-63.31168 -106.09828,-95.45922 -21.07055,-18.85431 -41.97614,-38.0128 -64.4836,-55.15968 -43.07098,-30.94174 -86.8292,29.96982 -43.75822,60.91156 z"/>
</svg>
