<?xml version="1.0" ?>
<svg xmlns="http://www.w3.org/2000/svg" width="1000" height="1000">
<path d="m 94.350939,324.47322 c 28.886631,-2.06262 57.832741,-3.12389 86.770961,-4.15477 8.94542,-0.27381 17.88997,-0.57789 26.83626,-0.82144 28.97171,-0.78873 57.9338,-1.19207 86.91676,-0.95658 18.57262,0.15091 32.13861,0.50523 50.4801,0.90661 53.02036,1.15797 54.65798,-73.82415 1.63761,-74.98212 v 0 c -56.20009,-1.22501 -112.36221,-1.47614 -168.54361,0.90118 -30.80321,1.0996 -61.62651,2.18489 -92.362307,4.56383 -52.710069,5.84369 -44.445842,80.38698 8.264226,74.54329 z"/>
<path d="m 205.83843,123.18952 c -1.18351,33.05456 -0.12059,66.14357 0.63394,99.1951 1.19317,52.49796 2.4461,105.00027 2.86826,157.51174 0.31903,39.68257 0.13571,53.62879 -0.033,93.57063 -0.36914,89.28409 -3.59903,178.51845 -8.00385,267.68385 -2.25078,42.58682 -4.69932,85.1639 -6.58499,127.76907 -0.15333,2.04268 -0.18297,4.09844 -0.45999,6.12805 -0.0303,0.2224 -0.36509,-0.39314 -0.2937,-0.60595 1.2574,-3.74829 1.72003,-8.02 4.21593,-11.08614 3.9943,-4.90689 9.5751,-8.28957 14.64143,-12.07958 1.16717,-0.87314 4.95698,-0.7712 3.96659,-1.84067 -1.63959,-1.77051 -4.71869,-1.01282 -7.07804,-1.51923 -27.28521,-5.75372 -52.12404,-17.98407 -76.85828,-30.37966 -47.44265,-23.70011 -80.959667,43.39392 -33.51702,67.09403 v 0 c 6.6328,3.30415 13.20403,6.73489 19.8984,9.91245 24.85768,11.79898 50.63628,21.75527 77.67128,27.27187 10.63858,1.65276 26.31575,5.2251 36.84569,1.48199 8.98621,-3.19436 17.56292,-8.28408 24.41348,-14.91925 9.27842,-8.98669 10.69158,-24.12309 11.48095,-36.14313 1.87838,-42.47725 4.32765,-84.92603 6.56701,-127.38515 4.45612,-90.29267 7.72319,-180.65498 8.09445,-271.06764 0.16961,-40.6284 0.35355,-54.45377 0.0276,-94.83385 -0.42589,-52.76657 -1.68252,-105.52398 -2.88185,-158.27699 -0.70235,-30.69926 -1.64046,-61.41942 -0.80581,-92.12614 3.78685,-52.897635 -71.02171,-58.253038 -74.80855,-5.3554 z"/>
<path d="m 116.56844,750.26593 c 2.7776,-4.58478 4.7287,-7.88667 8.28672,-12.80945 26.83071,-37.12225 59.24507,-69.74307 91.11246,-102.45708 33.71227,-33.46484 69.25022,-65.06465 107.0115,-93.90458 11.88721,-9.07878 24.19961,-17.58692 36.29941,-26.38038 42.87238,-31.21633 -1.27418,-91.84702 -44.14656,-60.63069 v 0 c -13.02238,9.49857 -26.27444,18.69 -39.06715,28.4957 -40.15461,30.7788 -77.98019,64.44662 -113.84595,100.11247 -27.0881,27.85981 -36.42001,36.68624 -61.39207,65.20621 -17.807958,20.33803 -36.335027,42.30768 -49.639329,66.03044 -2.020155,3.60212 -3.522271,7.47119 -5.283406,11.20679 -17.769997,49.96726 52.894382,75.09783 70.664375,25.13057 z"/>
<path d="m 557.97497,176.37924 c -1.79762,1.1558 -3.57476,2.34411 -5.39287,3.46741 -5.34458,3.30208 -11.62922,6.72569 -16.8857,9.78546 -5.32698,3.10081 -10.63646,6.23184 -15.93015,9.38915 -19.32501,11.52599 -22.58925,13.63847 -42.53033,25.91423 -22.73422,14.3125 -45.89633,28.02415 -67.69715,43.7667 -7.02912,5.07579 -13.78854,10.51497 -20.68281,15.77246 -42.10399,32.24521 3.49763,91.78925 45.60162,59.54403 v 0 c 5.81255,-4.47399 11.50026,-9.11504 17.43765,-13.42198 20.79059,-15.08135 42.96925,-28.09548 64.66239,-41.7957 19.58107,-12.05787 22.36041,-13.8695 41.30152,-25.17377 34.09162,-20.34626 -2.14676,1.37648 27.55314,-16.04606 7.8416,-4.60003 6.02564,-3.30699 9.71023,-6.0478 46.07093,-26.26728 8.92338,-91.42141 -37.14754,-65.15413 z"/>
<path d="m 371.76733,271.95484 c -0.25576,2.05649 -0.60829,4.10324 -0.76726,6.16947 -0.81825,10.63551 -0.15543,21.36364 0.35577,31.99173 0.55339,11.50528 1.1849,23.00668 1.76109,34.51084 2.52324,49.65275 3.81626,99.34892 4.30137,149.05965 0.4058,44.594 -0.90947,89.17365 -2.21626,133.74212 -0.34174,10.46336 -0.74731,20.92448 -1.17477,31.38463 -0.0295,0.72159 -0.41527,9.22348 -0.36195,10.4993 0.11578,2.77026 0.44095,5.52779 0.66142,8.29169 16.67985,9.99158 31.38104,24.50585 50.03956,29.97475 6.41507,1.88029 11.71709,-6.48089 17.23363,-10.25665 3.60403,-2.46676 6.67703,-5.63166 10.04396,-8.41332 4.08256,-3.37291 8.15721,-6.75655 12.30409,-10.05006 15.23867,-12.10276 16.12332,-12.44873 32.55859,-24.34926 20.25278,-14.63682 41.50616,-27.75442 62.7877,-40.81152 45.18752,-27.75947 5.9297,-91.66427 -39.25782,-63.9048 v 0 c -22.90152,14.08527 -45.77722,28.22899 -67.57219,44.00986 -6.5063,4.72856 -13.08442,9.35985 -19.5189,14.18568 -10.4708,7.85303 -19.57408,15.23901 -29.58248,23.5272 -2.62555,2.17428 -7.18329,3.2534 -7.80822,6.60459 -0.45062,2.41643 4.67055,-1.53452 7.00583,-2.30178 15.33839,10.39921 30.67678,20.79843 46.01516,31.19765 0.0224,1.3752 -0.19622,2.77571 0.0673,4.1256 0.21634,1.10799 0.0379,-2.25762 0.0771,-3.38585 0.0686,-1.97453 0.16567,-3.94796 0.24631,-5.92202 0.43849,-10.73443 0.85415,-21.46986 1.20342,-32.20762 1.33539,-45.54637 2.66513,-91.10438 2.24486,-136.67674 -0.50119,-50.71629 -1.81497,-101.41805 -4.39166,-152.07518 -0.56892,-11.35677 -1.17964,-22.71143 -1.74025,-34.06861 -0.18293,-3.70597 -0.3658,-7.41212 -0.50408,-11.12002 -0.12223,-3.27755 -0.0307,-6.56133 -0.17741,-9.83787 -0.002,-0.0436 -0.0828,-0.028 -0.12414,-0.042 9.79446,-52.12071 -63.91536,-65.97217 -73.70981,-13.85145 z"/>
<path d="m 637.88081,354.59831 c 16.61527,-7.31082 33.99145,-12.87621 51.61431,-17.19142 5.85532,-1.43375 11.76757,-2.62409 17.65135,-3.93614 22.73719,-4.63836 45.9186,-6.8668 69.10331,-7.41343 11.39598,-0.26869 15.18765,0.0144 26.24302,0.40077 11.37857,0.98878 23.20924,1.23359 34.16089,4.88158 0.0745,0.0568 0.31556,0.18706 0.2234,0.1704 -0.6901,-0.1247 -2.28748,-0.87842 -2.65101,-1.11888 -6.8936,-4.55998 -7.41218,-5.08731 -12.74333,-12.99614 -0.90295,-1.33954 -1.33036,-2.94429 -1.99554,-4.41643 1.58823,16.28716 2.25682,32.66948 1.98111,49.03799 -0.10381,6.16327 -0.44045,12.32041 -0.66068,18.48062 -2.30743,35.50347 -8.2499,70.79752 -17.10241,105.25273 -1.67718,6.52781 -3.62898,12.98197 -5.44348,19.47295 -8.23503,27.23515 -19.5323,53.44907 -32.98754,78.49096 -1.03523,1.68603 -2.07046,3.37206 -3.10569,5.05809 -0.38086,0.32723 -1.44327,1.38382 -1.14257,0.98169 4.33825,-5.80162 6.05861,-7.44397 14.21685,-10.12636 2.86142,-0.94082 6.19702,0.15571 8.98169,-0.99253 0.83702,-0.34514 -1.28217,-1.27865 -1.92325,-1.91798 -12.4153,-7.81124 -24.06846,-16.74182 -35.8114,-25.50492 -42.52618,-31.68633 -87.33742,28.45478 -44.81123,60.14111 v 0 c 15.01433,11.17173 29.90277,22.61103 46.15529,31.97465 14.45107,6.6707 21.72136,12.0745 39.13115,10.37793 14.67651,-1.43021 23.36708,-7.74267 32.99429,-17.5638 4.28003,-4.36624 8.34559,-11.84691 11.4643,-17.08311 15.93138,-29.94686 29.46664,-61.1824 39.09959,-93.7539 2.06551,-7.47064 4.28338,-14.90083 6.19654,-22.41193 9.99314,-39.23325 16.60061,-79.41669 19.04411,-119.83393 0.23447,-7.14474 0.59929,-14.28639 0.70342,-21.43422 0.15641,-10.73643 -0.14691,-24.29127 -0.71655,-35.14906 -0.3411,-6.50148 -1.10694,-16.42368 -2.04976,-23.15655 -0.41693,-2.97733 -1.02861,-5.92411 -1.54291,-8.88617 -1.18064,-3.49197 -1.80017,-7.22722 -3.54193,-10.47592 -7.51663,-14.01991 -16.38592,-19.7365 -30.52605,-24.48856 -17.28856,-4.98052 -35.17675,-7.19888 -53.13435,-7.96986 -13.71455,-0.42726 -17.88379,-0.74237 -32.00986,-0.36842 -27.61583,0.73106 -55.20445,3.56699 -82.26952,9.1714 -6.94987,1.57676 -13.93469,3.00669 -20.84961,4.73027 -20.37236,5.07792 -40.48197,11.53728 -59.74637,19.90924 -49.25514,19.65787 -21.45471,89.31515 27.80042,69.65728 z"/>
<path d="m 601.26685,417.08308 c 1.63711,21.79747 3.69468,43.55986 4.71239,65.40211 0.36681,7.87266 0.57381,15.75196 0.86072,23.62795 1.57309,65.15625 -3.13009,130.22147 -8.29644,195.12084 -4.38498,48.40039 -8.03203,96.87757 -13.16127,145.20879 -1.14358,10.77567 -2.45747,21.53259 -3.68621,32.29889 -6.00641,52.69178 68.51101,61.18612 74.51742,8.49435 v 0 c 1.26917,-11.14687 2.62472,-22.28424 3.80752,-33.44061 5.17374,-48.79976 8.8652,-97.74542 13.28644,-146.61507 5.38735,-67.79431 10.22166,-135.76533 8.4818,-203.82563 -0.31282,-8.4192 -0.54177,-16.84193 -0.93846,-25.2576 -1.00968,-21.42007 -2.90269,-42.77614 -4.64922,-64.14327 -2.21272,-52.98683 -77.14741,-49.85757 -74.93469,3.12925 z"/>
</svg>
