<?xml version="1.0" ?>
<svg xmlns="http://www.w3.org/2000/svg" width="1000" height="1000">
<path d="m 113.76597,312.38275 c 6.50157,-0.87606 8.43162,-1.1499 15.96946,-2.0747 12.31977,-1.51147 19.20019,-2.36021 32.02958,-3.3473 16.43992,-1.26488 30.86431,-1.84487 47.42034,-2.65571 53.49806,-1.93751 107.03586,-2.20027 160.54918,-3.57319 53.01552,-1.36162 51.08991,-76.3369 -1.92562,-74.97528 v 0 c -54.09885,1.39096 -108.22345,1.6327 -162.30568,3.63891 -18.44786,0.90994 -32.43042,1.4587 -50.72755,2.89165 -13.69211,1.0723 -21.44527,2.01576 -34.52088,3.62255 -8.06114,0.99059 -10.06411,1.2767 -17.0723,2.22355 -52.50233,7.48365 -41.918861,81.73316 10.58347,74.24952 z"/>
<path d="m 214.83229,123.06872 c 2.12707,34.82203 4.8359,69.60632 7.24049,104.41019 3.93883,60.14764 5.75849,120.42232 6.08641,180.69373 0.0752,13.81981 0.003,27.64003 0.005,41.46005 -0.37891,83.17944 -2.51051,166.337 -6.18463,249.43289 -2.83028,57.60589 -7.28044,115.11902 -13.8236,172.42085 -1.73256,14.41121 -3.5991,28.81875 -6.19754,43.10394 -1.05837,5.81852 -2.19886,11.63969 -3.99901,17.27702 2.01429,-7.18626 1.93058,-8.7252 11.11665,-15.70525 3.6918,-2.80522 8.51273,-3.69141 12.8674,-5.28374 1.18436,-0.43307 4.17322,0.39472 3.70286,-0.77533 -0.69517,-1.72928 -3.34544,-1.64408 -5.01139,-2.47972 -3.44473,-1.72787 -6.88035,-3.47384 -10.32052,-5.21076 -14.5263,-7.67179 -28.17734,-16.82144 -41.86606,-25.86 -44.28091,-29.18392 -85.553209,33.43874 -41.2723,62.62266 v 0 c 16.26218,10.70003 32.50895,21.4855 49.83207,30.43623 8.37033,4.09511 20.83696,10.72167 29.99224,13.13681 6.06681,1.60042 12.3148,3.4541 18.57561,3.04209 7.83154,-0.51537 15.97037,-1.95006 22.82832,-5.76675 14.51668,-8.07903 15.93062,-14.67627 21.49555,-26.95305 0.71015,-2.49329 1.49103,-4.96751 2.13046,-7.47987 5.4699,-21.49155 7.68029,-43.68943 10.64273,-65.60681 6.72247,-59.02758 11.33742,-118.26816 14.23347,-177.60862 3.71587,-84.20294 5.88428,-168.46787 6.25769,-252.75536 -0.003,-14.09053 0.0691,-28.18128 -0.009,-42.27159 -0.34383,-61.72127 -2.22091,-123.4453 -6.26029,-185.0394 -2.38209,-34.4705 -5.06083,-68.92192 -7.17807,-103.40972 -2.9483,-52.950994 -77.83231,-48.781476 -74.88401,4.16951 z"/>
<path d="m 129.53203,718.62106 c -0.0502,0.48864 -0.4871,1.82384 -0.15068,1.46592 1.78683,-1.90099 3.09256,-4.20295 4.67383,-6.27806 3.24529,-4.25881 6.41635,-8.57784 9.80542,-12.72315 4.73354,-5.78979 9.55711,-11.51031 14.55519,-17.07333 14.71947,-16.38321 27.67543,-29.13613 43.27759,-44.98276 37.59456,-37.695 76.26615,-74.34031 117.01238,-108.62859 21.72454,-18.28139 42.24907,-34.35416 64.44909,-52.00494 41.50812,-33.00873 -5.17327,-91.71007 -46.68139,-58.70134 v 0 c -23.44339,18.64658 -43.88814,34.64751 -66.85508,54.00152 -42.2524,35.60567 -82.39045,73.61382 -121.3888,112.73466 -22.17914,22.56024 -43.85722,44.36176 -63.833339,68.94931 -3.85142,4.74051 -15.708141,20.27532 -19.512158,26.43002 -2.145795,3.47179 -3.805969,7.22119 -5.708954,10.83178 -18.369903,49.74984 51.986991,75.7288 70.356901,25.97896 z"/>
<path d="m 434.47878,123.94804 c 1.34515,19.9617 1.58258,40.08483 0.17833,60.054 -0.53293,7.57852 -1.42992,15.12703 -2.14489,22.69055 -1.29499,8.81145 -2.46964,17.64142 -3.88499,26.43433 -1.65337,10.2717 -3.48377,20.51441 -5.32041,30.75492 -4.19673,23.39967 -8.25747,45.46426 -13.62263,68.64479 -5.62328,24.29583 -10.76094,41.84571 -17.40371,65.80618 -10.99599,38.89543 -5.68625,20.20166 -15.91899,56.0842 -14.54359,50.99985 57.58108,71.56759 72.12467,20.56774 v 0 c 10.31654,-36.1774 4.95471,-17.29911 16.07462,-56.63797 7.3358,-26.52451 12.27671,-43.31366 18.50545,-70.32576 5.49144,-23.81465 9.85124,-47.34453 14.14844,-71.38651 1.94859,-10.902 3.9045,-21.80422 5.63601,-32.74279 1.59547,-10.07924 2.89597,-20.20296 4.34396,-30.30444 0.80035,-8.85017 1.80844,-17.68402 2.40105,-26.55053 1.55387,-23.24869 1.23262,-46.66475 -0.42629,-69.89394 -4.81202,-52.814244 -79.50264,-46.009014 -74.69062,6.80523 z"/>
<path d="m 487.48659,293.78138 c 26.27451,-6.61147 53.06239,-10.78329 79.84562,-14.68146 43.54061,-5.88138 87.41399,-9.09828 131.32071,-10.44126 8.28501,-0.25341 16.57427,-0.34032 24.8614,-0.51048 25.46635,-0.21083 50.98762,0.0573 76.36542,2.40358 9.8826,0.9137 12.72371,1.43354 22.08514,2.78511 7.99969,1.41318 16.14089,2.74114 23.70673,5.81438 0.40595,0.16627 0.81608,0.32265 1.21784,0.49881 0.0661,0.029 -0.14304,-0.0273 -0.20906,-0.0565 -0.45966,-0.20318 -0.9396,-0.37244 -1.36539,-0.63942 -1.90513,-1.19455 -4.00793,-2.16581 -5.61574,-3.73789 -8.27497,-8.09112 -7.39476,-8.00557 -11.09647,-16.90209 -1.4627,1.72204 -0.19544,0.10268 -0.059,5.93619 0.43779,18.72127 0.0629,37.4107 -0.45756,56.12642 -1.80115,37.28785 -4.47339,74.68982 -10.70875,111.53891 -1.25986,7.44539 -2.85541,14.83006 -4.28311,22.2451 -7.6859,32.69286 -17.79256,64.96813 -31.09652,95.83809 -2.22666,5.16668 -4.6951,10.22577 -7.04265,15.33865 -8.58035,16.93833 -17.57516,33.71881 -27.82428,49.71862 -5.21727,8.14464 -6.78292,10.08352 -12.35553,17.77815 -8.55168,10.65987 -16.69323,21.94916 -26.93246,31.10086 -1.07453,0.73698 -2.14874,1.67871 -3.48159,1.90791 -0.64376,0.11071 -0.92105,-0.0354 -0.86988,-0.0877 0.25387,-0.25935 0.63584,-0.35008 0.95377,-0.52512 -4.10763,-1.71664 6.34071,0.13349 5.18711,-1.21681 -1.09769,-1.28486 -2.91233,-1.71617 -4.34067,-2.61929 -3.12879,-1.97831 -6.27639,-3.93072 -9.32935,-6.02415 -13.1845,-9.04066 -15.83036,-11.47297 -29.14033,-21.86593 -5.91649,-5.00994 -11.83298,-10.01988 -17.74947,-15.02982 -40.51695,-34.21808 -88.90862,23.08154 -48.39167,57.29962 v 0 c 6.69793,5.64341 13.39586,11.28681 20.09379,16.93022 14.00251,10.85546 20.93383,16.6879 35.41982,26.25457 13.80021,9.11377 28.56553,17.84167 45.24159,20.30294 4.50998,0.66565 9.11663,0.13759 13.67494,0.20639 3.17859,-0.58603 6.39733,-0.9854 9.53577,-1.7581 12.89111,-3.17383 24.37941,-10.33025 34.33307,-18.9111 1.89046,-1.79329 3.82847,-3.53775 5.67137,-5.37988 11.33889,-11.33407 21.18639,-24.09357 30.97691,-36.7446 7.07905,-9.86701 8.7944,-11.97746 15.40652,-22.35856 11.85446,-18.61163 22.3115,-38.09473 32.14763,-57.83231 2.78535,-6.13107 5.70743,-12.20183 8.35605,-18.39319 15.14103,-35.39342 26.65394,-72.36718 35.22564,-109.86559 1.60899,-8.49182 3.40093,-16.951 4.82697,-25.47545 6.65069,-39.75598 9.58579,-80.08494 11.46689,-120.30795 0.45423,-16.64899 0.83973,-33.27368 0.65166,-49.93002 -0.0487,-4.31221 -0.25527,-15.77877 -0.63623,-20.51577 -0.24371,-3.03031 -0.70909,-6.03869 -1.06364,-9.05804 -1.3701,-4.15777 -2.00444,-8.63541 -4.11031,-12.47333 -5.90881,-10.76877 -14.08429,-17.09829 -25.07008,-21.22328 -12.98552,-4.96464 -26.55436,-8.08398 -40.29247,-10.15513 -11.58882,-1.63139 -14.82047,-2.22069 -26.97727,-3.31857 -27.78823,-2.50957 -55.724,-2.86569 -83.60619,-2.6027 -8.77337,0.18502 -17.54902,0.2827 -26.32011,0.55505 -46.5246,1.44467 -93.01025,4.90359 -139.14275,11.16821 -29.23752,4.28612 -58.47506,8.8833 -87.15578,16.12346 -51.45632,12.83539 -33.30434,85.60561 18.15198,72.77023 z"/>
<path d="m 527.01623,415.93492 c 20.40826,-3.52419 40.99802,-5.69354 61.61829,-7.49425 25.26537,-2.0217 50.62458,-2.70994 75.92787,-1.16107 8.39372,0.59669 16.7058,1.84939 24.84963,3.94942 0.063,0.0327 0.25765,0.11604 0.18902,0.098 -9.30458,-2.44874 -15.29667,-10.31118 -19.93184,-18.23965 -1.20798,-2.06624 -1.48701,-4.55006 -2.23051,-6.8251 -0.10998,-0.29053 -0.21264,-1.15926 -0.32993,-0.8716 -0.32861,0.80599 -0.24941,1.72287 -0.36867,2.58506 -0.29971,2.16681 -0.55255,4.34039 -0.88822,6.50191 -0.46885,3.01911 -0.98155,6.03157 -1.52506,9.03814 -0.69337,3.83546 -4.29427,22.37683 -4.83495,25.17179 -4.20396,21.37231 -7.78982,42.90836 -13.4961,63.95399 -3.54204,13.06357 -4.50814,15.0252 -8.95522,27.46375 -5.3364,12.9001 -10.57157,25.82486 -15.58882,38.85227 -19.01766,49.50584 50.99417,76.40089 70.01184,26.89504 v 0 c 5.23652,-13.67149 10.86458,-27.16988 16.29427,-40.76603 5.58063,-15.94715 6.64711,-18.05863 11.07705,-34.57151 5.97101,-22.25734 9.89376,-44.98602 14.29211,-67.58434 2.49743,-12.91264 5.20964,-25.81449 7.10556,-38.83468 0.86354,-5.93033 1.82184,-13.80106 1.86745,-19.85167 0.0222,-2.95115 -0.30117,-5.89479 -0.45175,-8.84218 -0.9758,-3.8624 -1.17975,-8.00725 -2.92741,-11.58719 -7.17213,-14.69146 -16.0622,-21.23014 -30.81643,-25.27044 -12.76197,-3.22131 -25.77328,-5.2551 -38.91417,-6.13414 -28.99007,-1.66684 -57.97433,-1.0882 -86.91823,1.31791 -23.15589,2.04464 -46.28381,4.50419 -69.18885,8.55025 -52.0829,9.99359 -37.94983,83.64993 14.13307,73.65634 z"/>
<path d="m 479.47977,592.50274 c 12.45784,-0.28975 24.83565,-1.92779 37.23655,-3.02464 13.6825,-1.21021 17.61786,-1.42956 31.6959,-2.43805 31.22282,-2.27073 62.54042,-1.94846 93.75348,0.1569 52.91579,3.52405 57.89954,-71.31019 4.98375,-74.83423 v 0 c -34.66246,-2.28267 -69.43642,-2.67052 -104.10661,-0.13022 -15.16193,1.09029 -18.67876,1.27706 -33.42233,2.58202 -23.13685,2.04785 -3.49121,0.42498 -21.94909,2.11431 -4.80257,0.43955 -4.45402,0.39393 -8.19165,0.57391 -53.03301,0 -53.03301,75 0,75 z"/>
<path d="m 437.42563,523.40647 c 0.13201,15.20811 -1.79247,30.3469 -3.46953,45.43458 -4.00464,32.9582 -7.52081,65.96812 -10.4631,99.0376 -2.08119,26.59525 -3.82801,53.28189 -3.12171,79.9748 0.119,4.49704 0.39391,8.9886 0.59087,13.48289 0.96636,21.85198 5.25724,43.25509 11.00322,64.29196 3.70152,12.99172 8.64139,25.64253 16.00523,37.03097 5.2389,8.10216 7.41069,10.10569 13.64745,17.29267 14.27041,14.74127 32.25661,24.98799 51.57172,31.63472 4.33882,1.49308 8.78674,2.64796 13.18011,3.97194 27.76749,7.40141 56.47229,9.60902 85.05189,11.16498 30.16719,1.63488 60.35651,0.74816 90.49706,-0.85642 27.48151,-1.75555 54.92929,-3.98977 82.39862,-5.92343 20.07133,-1.41492 40.16412,-2.48799 60.23633,-3.8905 12.42563,-1.2466 26.74196,-1.50738 38.44061,-6.27522 3.61929,-1.47506 7.00413,-3.47022 10.50619,-5.20533 4.07591,-3.66474 8.83099,-6.69242 12.22773,-10.99423 11.19318,-14.17557 14.12494,-32.64243 16.35436,-49.94316 2.3222,-18.02085 2.66049,-29.26133 3.79537,-47.81788 0.29713,-9.72857 0.59427,-19.45714 0.89141,-29.18571 1.58824,-53.00922 -73.37811,-55.25535 -74.96636,-2.24613 v 0 c -0.26334,8.97778 -0.52668,17.95556 -0.79002,26.93334 -1.11545,18.94242 -1.08951,23.36986 -3.07217,41.00275 -0.42747,3.80172 -1.07931,7.57507 -1.57075,11.36905 -0.16793,1.29647 -1.70902,3.78163 -0.40716,3.90071 4.13529,0.37824 3.76987,-11.26495 9.72311,-7.78806 1.20832,-0.39595 2.39254,-0.87486 3.62495,-1.18783 0.10961,-0.0278 0.38292,0.16002 0.2761,0.19714 -1.70579,0.59286 -5.75395,1.08325 -7.08465,1.24314 -4.87677,0.58599 -8.17306,0.78637 -13.1814,1.18019 -20.08354,1.40603 -40.1886,2.46931 -60.27094,3.89292 -27.04747,1.90455 -54.07436,4.09488 -81.13237,5.84504 -27.46685,1.47283 -54.97635,2.34066 -82.47006,0.85775 -22.83207,-1.20963 -45.78825,-2.72847 -68.05761,-8.2672 -10.53011,-2.90127 -21.37979,-6.23603 -29.7923,-13.52514 -2.11479,-2.21309 -3.49419,-3.50988 -5.30036,-5.94245 -4.04992,-5.45446 -6.09881,-11.94893 -8.02421,-18.38268 -4.35255,-15.62975 -7.64305,-31.52348 -8.38852,-47.78478 -0.17267,-3.63426 -0.4129,-7.26594 -0.518,-10.90278 -0.69936,-24.20069 0.98076,-48.39591 2.83182,-72.5088 2.88751,-32.52912 6.36709,-64.99662 10.30122,-97.41612 1.97065,-17.83267 4.10723,-35.72288 3.92585,-53.69529 0,-53.03301 -75,-53.03301 -75,0 z"/>
</svg>
