<?xml version="1.0" ?>
<svg xmlns="http://www.w3.org/2000/svg" width="1000" height="1000">
<path d="m 103.64039,329.35673 c 23.17556,-7.0975 46.84657,-12.52717 70.72969,-16.64192 8.02555,-1.3827 16.09562,-2.49316 24.14343,-3.73975 44.15476,-5.52184 88.77272,-8.28149 133.25895,-9.2014 7.39805,-0.15298 14.79864,-0.13484 22.19797,-0.20226 6.2309,0.0324 12.46181,0.0649 18.69272,0.0973 53.03235,0.26482 53.40687,-74.73424 0.37452,-74.99907 v 0 c -6.59345,-0.0316 -13.1869,-0.0632 -19.78036,-0.0948 -7.94114,0.0784 -15.88366,0.0675 -23.82342,0.23534 -47.60011,1.006 -95.24137,4.00941 -142.47195,10.05987 -8.91924,1.39825 -17.86316,2.64729 -26.75772,4.19477 -26.4849,4.60787 -52.72464,10.69374 -78.435415,18.55192 -50.727867,15.46554 -28.856284,87.20559 21.871585,71.74004 z"/>
<path d="m 224.37777,147.85088 c -0.36801,28.32044 0.2175,56.64379 0.79793,84.95737 1.40062,68.6663 2.07547,137.34601 2.43599,206.02488 0.74955,77.54834 -0.85971,155.08131 -2.7555,232.60042 -1.43369,54.76332 -2.4974,109.53845 -4.9686,164.26761 -0.70262,14.13203 -1.67017,28.25341 -3.05556,42.33573 -0.62638,6.36711 -1.33644,12.69712 -2.50176,18.98686 -0.10661,0.18852 -0.38168,0.77314 -0.31984,0.56558 1.95878,-6.57383 3.12415,-10.17563 9.60879,-15.39751 3.79701,-3.05761 8.48152,-4.87964 13.01681,-6.66779 2.02345,-0.7978 4.53134,0.0236 6.44709,-1.00634 0.77469,-0.41648 -1.56838,-0.79662 -2.35256,-1.19494 -18.51076,-7.57291 -35.99675,-17.3868 -53.36654,-27.23281 -20.72495,-11.74786 -18.4831,-10.60983 -39.2303,-23.24495 -45.30784,-27.56265 -84.287307,36.51232 -38.97947,64.07497 v 0 c 20.14309,12.24152 40.36241,24.28238 61.11252,35.47911 11.64943,6.28601 22.23644,11.78829 34.32998,17.02429 4.66865,2.02133 9.46058,3.74509 14.19086,5.61764 10.5102,2.85248 19.84616,6.52331 31.19064,4.28673 6.90075,-1.3605 13.74623,-3.93209 19.58419,-7.85504 9.16991,-6.16195 13.31938,-14.47685 16.80672,-24.15483 0.85293,-2.36703 1.22057,-4.88174 1.83086,-7.3226 3.99194,-23.42772 5.23752,-47.22269 6.61149,-70.91686 2.48601,-55.24398 3.58685,-110.53293 5.02227,-165.81145 1.91344,-78.26154 3.52999,-156.53717 2.77687,-234.82813 -0.36364,-69.06064 -1.04151,-138.12212 -2.45075,-207.1701 -0.54149,-26.33223 -0.99634,-52.6653 -0.91213,-79.00387 3.12114,-52.941088 -71.74886,-57.355058 -74.87,-4.41397 z"/>
<path d="m 125.26204,680.65515 c 0.19121,-0.0513 0.43831,-0.009 0.57361,-0.1538 5.54022,-5.91739 10.54383,-12.3186 16.00106,-18.3126 12.83913,-14.10201 19.43296,-20.86722 34.05614,-34.20439 7.79801,-7.11222 15.87231,-13.91547 23.80847,-20.8732 36.911,-30.85209 74.21068,-61.46722 114.34441,-88.09895 9.69317,-6.43215 19.70061,-12.37764 29.55091,-18.56646 44.86993,-28.26995 4.89018,-91.7256 -39.97974,-63.45565 v 0 c -10.85771,6.8581 -21.88472,13.45521 -32.57311,20.5743 -42.38311,28.2296 -81.86896,60.53017 -120.84917,93.20773 -8.74343,7.69909 -17.64974,15.21707 -26.2303,23.09728 -16.3418,15.00796 -24.207355,23.1186 -38.533075,38.88835 -3.40171,3.7446 -16.71329,18.97095 -20.417572,23.86094 -2.223964,2.93583 -4.104642,6.11657 -6.156963,9.17486 -24.650872,46.95566 41.75446,81.81726 66.40533,34.86159 z"/>
<path d="m 429.97552,380.92069 c 29.67766,-7.03873 59.77254,-12.13212 89.83687,-17.18666 53.1805,-8.20538 107.00696,-12.01156 160.76545,-13.72944 10.79191,-0.34486 21.59057,-0.42932 32.38586,-0.64398 33.49245,-0.23662 67.04357,0.54594 100.33668,4.44356 13.37152,1.5654 16.20118,2.21728 28.59066,4.38218 52.25941,9.02519 65.02295,-64.88078 12.76354,-73.90596 v 0 c -14.69836,-2.51381 -18.26513,-3.31041 -33.91746,-5.10661 -36.27,-4.16222 -72.80724,-5.09831 -109.28848,-4.79787 -11.38293,0.23345 -22.76942,0.33225 -34.14879,0.70035 -56.83134,1.83833 -113.72213,5.95988 -169.93277,14.69755 -33.28293,5.6052 -66.66562,11.14258 -99.40294,19.4496 -50.69763,15.5644 -28.68625,87.26167 22.01138,71.69728 z"/>
<path d="m 485.82293,538.90465 c 22.5401,-3.00878 45.04795,-6.19183 67.64039,-8.80874 43.94408,-4.49226 88.13481,-5.82146 132.26509,-7.12068 25.32577,-0.58096 50.6455,-1.26712 75.95368,-2.37881 52.9816,-2.33443 49.68021,-77.26174 -3.30139,-74.9273 v 0 c -24.94432,1.10263 -49.90093,1.75746 -74.86259,2.33869 -46.2806,1.36645 -92.62306,2.79765 -138.70142,7.5882 -21.87019,2.54307 -43.68444,5.45303 -65.47688,8.58937 -52.8345,4.58425 -46.35138,79.30352 6.48312,74.71927 z"/>
<path d="m 585.35553,124.87365 c 0.56706,25.07853 -0.27671,50.16932 -0.77824,75.24366 -1.13349,68.8434 -1.49133,137.69277 -2.79936,206.53378 -2.14544,86.47308 -4.28752,172.94404 -5.94374,259.42823 -1.23145,69.34231 -1.72377,138.6946 -3.84138,208.0178 -1.61723,53.00834 73.34789,55.29545 74.96512,2.28711 v 0 c 2.12106,-69.60708 2.63715,-139.24263 3.86252,-208.86898 1.65608,-86.48828 3.8012,-172.96325 5.94397,-259.44049 1.30549,-68.81567 1.67275,-137.63949 2.79787,-206.45761 0.0124,-0.62227 0.83891,-41.74366 0.87707,-44.36104 0.18002,-12.34758 0.43693,-24.81412 -0.3399,-37.15392 -0.14625,-2.32323 -0.44387,-4.63444 -0.6658,-6.95166 -8.2895,-52.38115 -82.36762,-40.658028 -74.07813,11.72312 z"/>
<path d="m 564.59302,511.45948 c -14.06089,17.69508 -26.47985,36.61324 -40.00096,54.71361 -5.02976,6.73323 -10.21001,13.35272 -15.31502,20.02908 -34.21675,44.83954 -71.50854,87.26166 -110.51911,127.97428 -8.47788,8.84778 -17.12875,17.52816 -25.69313,26.29223 -96.23465,93.6255 42.76285,-41.26217 -49.60734,47.29638 -7.84631,7.52253 -15.48409,15.25959 -23.22613,22.88939 -37.75671,37.24152 14.91075,90.63757 52.66746,53.39605 v 0 c 7.2472,-7.15491 14.38973,-14.41741 21.74158,-21.46474 88.76335,-85.08659 -40.70212,40.67101 52.07534,-49.70926 8.90379,-9.11843 17.8982,-18.14923 26.71137,-27.35528 40.74998,-42.56661 79.68513,-86.93134 115.44827,-133.78838 5.46394,-7.15809 11.00497,-14.25799 16.39184,-21.47427 12.88154,-17.2562 24.73883,-35.27149 38.07852,-52.18235 32.96302,-41.54442 -25.78967,-88.16117 -58.75269,-46.61674 z"/>
<path d="m 619.76675,574.25833 c 15.85795,14.85509 29.49936,31.88398 43.1586,48.72279 24.45932,31.10848 48.61792,62.44342 73.29322,93.38259 16.5862,20.67998 33.64821,41.10723 52.87245,59.41913 3.48315,3.31785 7.11243,6.47882 10.66865,9.71823 20.44197,17.74036 42.95075,33.09466 67.00799,45.52385 6.25491,3.2316 12.68697,6.10813 19.03046,9.1622 7.03985,2.86731 14.07971,5.73462 21.11956,8.60193 49.17803,19.84997 77.25016,-49.69826 28.0721,-69.54824 v 0 c -5.62468,-2.24453 -11.24936,-4.48907 -16.87404,-6.73361 -5.00786,-2.36627 -10.08745,-4.58633 -15.02357,-7.09882 -18.99712,-9.66956 -36.81614,-21.61312 -52.98325,-35.49466 -2.71147,-2.43766 -5.48606,-4.80688 -8.13441,-7.31298 -17.1974,-16.2737 -32.32023,-34.57509 -47.12086,-53.00162 -5.83182,-7.31204 -17.84588,-22.35104 -23.52448,-29.57253 -16.80918,-21.37631 -33.12327,-43.13919 -50.18025,-64.32142 -17.21242,-21.17919 -34.46283,-42.69926 -55.22327,-60.55991 -41.79925,-32.63927 -87.95816,26.4738 -46.1589,59.11307 z"/>
</svg>
