<?xml version="1.0" ?>
<svg xmlns="http://www.w3.org/2000/svg" viewBox="0 0 1000 1000">
<path d="m 169.86567,333.95992 c 23.85184,-4.82378 48.134,-6.99789 72.33369,-9.21859 26.69566,-2.06272 53.4915,-2.93434 80.26265,-2.32561 13.8192,0.31423 17.68115,0.65281 31.06288,1.43677 16.48503,1.06576 8.60217,0.57105 23.64811,1.49162 52.93409,3.23766 57.51282,-71.62245 4.57874,-74.8601 v 0 c -14.95718,-0.91453 -6.99298,-0.41576 -23.89198,-1.50614 -14.87064,-0.85177 -19.29038,-1.23044 -34.61148,-1.55803 -29.32966,-0.6271 -58.68478,0.33816 -87.92841,2.63767 -28.50522,2.63504 -57.17734,5.18402 -85.14691,11.53392 -51.17224,13.92485 -31.47953,86.29333 19.69271,72.36849 z"/>
<path d="m 238.72331,164.59173 c 0.12009,32.3267 1.67736,64.62965 2.71802,96.93527 2.14258,83.77352 0.8862,167.58289 1.09284,251.37337 0.19591,81.34328 3.24632,162.63206 5.43962,243.93424 0.58679,37.27483 2.41811,74.61557 0.47007,111.87946 -0.20619,1.74131 -0.27934,3.50358 -0.61857,5.22392 -0.0261,0.13252 -0.42828,0.0175 -0.38947,-0.11186 0.81448,-2.71519 1.1499,-5.73581 2.82875,-8.0199 3.12982,-4.25814 6.92634,-8.13856 11.26537,-11.15524 14.01132,-9.74124 7.64203,0.0618 10.47822,-4.49712 -15.15991,-5.91042 -29.05064,-14.43934 -43.15739,-22.42182 -5.99288,-3.39115 -12.0261,-6.71051 -18.03915,-10.06577 -46.31467,-25.83507 -82.85099,39.66376 -36.53631,65.49884 v 0 c 5.74599,3.20413 11.51014,6.37589 17.23796,9.61238 20.39034,11.52151 40.6394,23.7572 63.30324,30.37943 14.42715,2.48351 23.88506,6.04529 38.74119,-0.68837 18.26901,-8.28057 25.82145,-22.18004 28.84168,-40.54901 0.51214,-3.11483 0.63267,-6.28153 0.949,-9.42229 1.92441,-39.20549 0.38699,-78.4692 -0.40188,-117.68581 -2.17809,-80.68986 -5.20946,-161.36634 -5.41256,-242.09691 -0.21046,-84.53389 1.06371,-169.0871 -1.13153,-253.60348 -1.01574,-31.50054 -2.53489,-62.99873 -2.6791,-94.51933 0,-53.03301 -75,-53.03301 -75,0 z"/>
<path d="m 164.14342,744.73923 c 0.25492,-0.23248 0.58273,-0.40436 0.76475,-0.69745 1.72069,-2.77069 3.22349,-5.67207 4.92063,-8.45724 7.32957,-12.02848 16.06704,-25.6355 23.96617,-36.98472 18.36765,-26.39008 22.42488,-30.72434 43.21214,-57.23844 39.84877,-48.48095 83.61746,-93.53458 126.63416,-139.16692 36.37759,-38.58978 -18.19661,-90.03545 -54.57419,-51.44567 v 0 c -44.5891,47.30097 -89.93531,94.02532 -131.11838,144.38376 -8.61359,11.0203 -17.43135,21.88403 -25.84079,33.06091 -13.53586,17.99032 -24.30352,33.69081 -36.35495,52.3904 -5.00077,7.75945 -14.05951,22.28551 -18.582136,31.26084 -1.765599,3.5039 -3.131306,7.19538 -4.696959,10.79307 -15.628091,50.67803 56.041465,72.77949 71.669555,22.10146 z"/>
<path d="m 418.26742,238.78941 c 2.71201,26.8571 6.30267,53.61515 9.90198,80.36473 7.18674,51.25392 15.47534,102.36589 24.98698,153.24003 3.51611,17.25668 6.95501,34.58064 12.3386,51.37847 1.26086,3.9341 2.79123,7.77667 4.18685,11.66501 18.24446,49.79598 88.66661,23.99442 70.42215,-25.80156 v 0 c -0.87929,-2.32073 -1.85977,-4.60561 -2.63787,-6.9622 -4.74569,-14.373 -7.48728,-29.29467 -10.58947,-44.0755 -9.29328,-49.61242 -17.34941,-99.4654 -24.37742,-149.44816 -3.5247,-26.18232 -7.04532,-52.37286 -9.69255,-78.66147 -5.86945,-52.7072 -80.40869,-44.40656 -74.53925,8.30065 z"/>
<path d="m 552.35127,283.6142 c 1.79581,-0.54636 3.61305,-1.02669 5.38742,-1.6391 9.94806,-3.43345 19.52029,-7.84438 29.44981,-11.34118 15.52099,-5.46592 17.59193,-5.74169 34.22574,-10.43287 30.59226,-7.714 61.83101,-13.12195 93.34585,-15.08283 19.42093,-1.20839 23.40635,-0.69708 42.25737,-0.17376 22.53487,1.28133 44.72315,5.73673 65.4732,14.65894 2.67363,1.30555 5.41391,2.5334 7.90822,4.17361 0.16333,0.1074 0.63288,0.45538 0.46069,0.36285 -1.64512,-0.88401 -2.71594,-2.07433 -4.19393,-3.35656 -2.11295,-2.38703 -1.80009,-1.86652 -3.60699,-4.61488 -0.30515,-0.46414 -0.5372,-0.97436 -0.85072,-1.43288 -0.13693,-0.20026 -0.4965,-0.77676 -0.49427,-0.53418 0.0121,1.32347 0.39241,2.61884 0.52546,3.93567 0.25599,2.53362 0.42755,5.07507 0.64133,7.61261 1.20734,40.90799 -6.79502,81.39506 -14.7624,121.31368 -5.49667,26.06643 -12.81007,51.70325 -21.18443,76.97965 -3.27304,9.87902 -10.16075,29.68275 -14.61823,39.77017 -1.88631,4.26877 -4.27433,8.29773 -6.41149,12.4466 -1.93519,2.05585 -3.87038,4.1117 -5.80556,6.16755 -32.74853,41.71372 26.24357,88.02713 58.9921,46.31341 v 0 c 4.62581,-6.30128 9.25162,-12.60255 13.87743,-18.90383 3.07665,-6.26473 6.43335,-12.39953 9.22994,-18.79419 4.91154,-11.23074 12.58923,-33.29329 16.26429,-44.44586 9.18738,-27.88064 17.182,-56.16217 23.21518,-84.90343 1.90696,-9.6193 3.96182,-19.21046 5.72086,-28.8579 5.86706,-32.17771 10.5562,-64.92106 10.67744,-97.6968 0.0204,-5.52452 -0.35947,-11.04327 -0.53921,-16.5649 -1.90961,-18.50391 -3.32739,-34.3392 -15.99032,-48.90938 -1.75108,-1.67451 -3.41923,-3.44028 -5.25323,-5.02353 -7.25054,-6.25923 -16.32754,-10.07831 -24.83214,-14.21651 -8.56314,-3.52995 -11.05069,-4.74257 -20.30037,-7.68671 -23.43479,-7.45923 -47.76705,-11.46245 -72.31225,-12.77085 -8.1338,-0.17636 -16.26602,-0.60356 -24.40139,-0.52909 -45.09017,0.41274 -89.90725,7.51694 -133.53547,18.62024 -7.31781,2.09325 -14.68082,4.03451 -21.95344,6.27976 -15.20982,4.69566 -30.0619,10.41916 -44.75845,16.50625 -51.45632,12.83538 -33.30437,85.60561 18.15196,72.77023 z"/>
<path d="m 512.29904,430.59798 c 16.16384,-3.92106 32.49957,-7.02889 48.86072,-9.99632 35.29511,-6.2522 71.07949,-8.55928 106.84038,-10.0107 20.84343,-0.71292 41.70164,-0.71043 62.54194,-1.51074 52.99291,-2.0619 50.07694,-77.00519 -2.91597,-74.94329 v 0 c -20.89073,0.82507 -41.80365,0.74011 -62.69671,1.51692 -39.22699,1.62161 -78.47216,4.24668 -117.17926,11.15633 -17.95088,3.26793 -35.8689,6.70501 -53.60294,11.01754 -51.45635,12.83529 -33.30451,85.60555 18.15184,72.77026 z"/>
<path d="m 523.35618,555.31596 c 22.7411,-1.60962 45.45909,-3.51118 68.20041,-5.12593 35.16819,-2.24793 70.33576,-5.00491 105.57904,-5.7852 6.32938,-0.14014 12.66126,-0.125 18.99189,-0.1875 11.09066,0.25581 19.36936,0.17271 30.26343,1.39599 4.22724,0.47467 8.40705,1.30417 12.61058,1.95625 52.47232,7.69128 63.34944,-66.51578 10.87712,-74.20706 v 0 c -6.07827,-0.85501 -12.13022,-1.92434 -18.2348,-2.56501 -13.23368,-1.38887 -22.92812,-1.29758 -36.29664,-1.57611 -6.91088,0.0753 -13.82314,0.0688 -20.73266,0.22582 -36.17532,0.82186 -72.27471,3.60803 -108.373,5.93139 -22.35339,1.589 -44.68562,3.43399 -67.03631,5.05232 -52.95173,2.93515 -48.80079,77.8202 4.15094,74.88504 z"/>
<path d="m 615.32376,272.4295 c 2.59813,24.66114 2.62605,49.52505 2.8974,74.2942 0.21097,44.02493 -0.74499,88.04325 -1.12762,132.06456 -0.27273,31.37743 -0.31093,51.0819 -0.43366,82.58928 -0.31043,57.05837 -0.19593,114.15243 -2.69309,171.17118 -1.68369,38.44439 -2.4425,43.44452 -5.52914,81.25029 -5.0245,47.24695 -2.26007,24.15882 -8.21754,69.27342 -6.92395,52.57908 67.43408,62.37102 74.35803,9.79195 v 0 c 6.2527,-47.60676 3.35711,-23.28078 8.61277,-72.9867 3.21003,-39.62819 3.98572,-44.69598 5.73613,-84.88752 2.51448,-57.73531 2.42556,-115.54548 2.73227,-173.3207 0.12125,-31.18068 0.16017,-51.0227 0.42982,-82.06781 0.38714,-44.57211 1.35766,-89.14128 1.12733,-133.71711 -0.3241,-28.40102 -0.34074,-56.94539 -3.81451,-85.17774 -8.2892,-52.38119 -82.36739,-40.6585 -74.07819,11.7227 z"/>
</svg>
