<?xml version="1.0" ?>
<svg xmlns="http://www.w3.org/2000/svg" width="1000" height="1000">
<path d="m 90.11996,284.90488 c 24.91253,-2.1415 49.80858,-4.43572 74.73885,-6.37795 50.68547,-3.65017 101.46709,-5.54894 152.26577,-6.58665 28.38205,-0.4054 14.77163,-0.24261 40.83107,-0.50327 53.03034,-0.53142 52.2788,-75.52766 -0.75155,-74.99624 v 0 c -26.53569,0.2664 -12.66371,0.0999 -41.61575,0.51525 -52.23176,1.07311 -104.44635,3.02977 -156.56082,6.79794 -24.37019,1.90243 -48.71344,4.07367 -73.058511,6.26587 -52.951722,2.93516 -48.800781,77.8202 4.150941,74.88505 z"/>
<path d="m 210.88321,90.099767 c 2.41329,25.502753 4.30681,51.042683 6.03263,76.600143 4.72523,71.49289 6.57326,143.11551 7.73874,214.73984 0.10684,15.05916 0.26541,30.11804 0.32051,45.17748 0.10707,29.2609 0.0508,62.72801 -0.36112,91.99525 -0.6279,44.60854 -2.10785,89.20181 -3.45308,133.79251 -2.10629,70.28885 -3.74097,140.59052 -5.68771,210.88371 -0.23466,7.59155 -0.45168,15.18366 -0.70398,22.77464 -0.31703,9.53891 -0.78473,23.46809 -1.3967,33.33886 -0.0946,1.52524 -0.69651,13.31303 -1.92132,16.52566 -0.35213,0.92365 -0.005,-1.97697 -0.007,-2.96546 10.10357,-15.58779 4.1499,-10.92592 22.78071,-19.05134 1.23497,-0.5386 4.47378,0.13951 3.89566,-1.07745 -1.04868,-2.20749 -4.18133,-2.53237 -6.2378,-3.85283 -3.8127,-2.44813 -7.6477,-4.86603 -11.36828,-7.45203 -4.64522,-3.22867 -9.14779,-6.65788 -13.72169,-9.98682 -15.9778,-11.91153 -31.89562,-23.89927 -46.81479,-37.13451 -4.23162,-3.75399 -8.29269,-7.69594 -12.43903,-11.5439 -38.94332,-35.99886 -89.853392,19.0753 -50.910074,55.07416 v 0 c 4.935164,4.5469 9.770934,9.2041 14.805494,13.64069 16.42678,14.47574 33.85383,27.70142 51.42137,40.74627 11.86361,8.52839 20.89257,15.5162 33.54644,22.73284 5.45054,3.1085 10.87854,6.40679 16.78951,8.51192 7.13558,2.54127 14.52056,5.64368 22.08884,5.33423 9.74752,-0.39856 19.85722,-2.53721 28.31726,-7.39527 7.12913,-4.09379 10.99548,-12.22432 16.49322,-18.33648 1.79756,-5.07859 4.0141,-10.02781 5.3927,-15.23576 1.58552,-5.98963 2.43088,-18.86978 2.79852,-24.85356 1.18078,-19.21826 1.4654,-38.48027 2.16229,-57.7177 1.94477,-70.23147 3.57876,-140.47138 5.68236,-210.69852 1.36153,-45.14099 2.85218,-90.28414 3.48469,-135.44323 0.4143,-29.57981 0.47171,-63.56352 0.36171,-93.14056 -0.0569,-15.28867 -0.21905,-30.57676 -0.32857,-45.86514 -0.56162,-34.39751 -0.72225,-51.45148 -1.73143,-85.53103 -1.31413,-44.37737 -3.47098,-88.73005 -6.16804,-133.04348 -1.73521,-25.65631 -3.60639,-51.29885 -6.05338,-76.898547 -3.78685,-52.897635 -78.59541,-47.542221 -74.80856,5.355414 z"/>
<path d="m 116.89901,708.39675 c 19.04362,-26.6503 43.07924,-49.01817 66.49263,-71.71346 34.71114,-33.70117 71.29014,-65.34681 109.28724,-95.27568 9.71424,-7.65153 19.38391,-15.36961 29.36601,-22.66824 9.22771,-6.74702 18.82819,-12.96884 28.24229,-19.45325 9.20736,-5.32993 18.41473,-10.65985 27.62209,-15.98978 45.80596,-26.72665 8.00876,-91.50606 -37.7972,-64.77941 v 0 c -10.82112,6.35621 -21.64225,12.71241 -32.46337,19.06862 -10.48128,7.26438 -21.15457,14.25924 -31.44383,21.79313 -10.37107,7.59378 -20.42417,15.61416 -30.51645,23.57471 -39.80307,31.3957 -78.13157,64.57974 -114.51674,99.89611 -26.85549,26.06797 -54.501406,51.94224 -75.82272,82.94952 -1.748005,2.5421 -3.274637,5.22952 -4.911956,7.84428 -24.574401,46.99574 41.887601,81.74919 66.462006,34.75345 z"/>
<path d="m 580.739,132.90029 c -1.01905,24.62105 -0.84676,49.26738 -0.76158,73.903 1.01132,69.97666 0.33462,139.95507 -0.43897,209.92957 -0.72525,61.61447 -1.47876,123.23262 -3.44247,184.82271 -1.23877,38.8532 -1.88519,51.14563 -3.56617,89.74219 -2.66838,49.6529 -4.45804,99.37694 -8.46546,148.94957 -0.71603,8.85751 -1.63138,17.69779 -2.44707,26.54668 -4.85249,52.81054 69.83289,59.673 74.68538,6.86246 v 0 c 0.85717,-9.35714 1.81695,-18.70545 2.57151,-28.07143 4.04951,-50.26476 5.89219,-100.67976 8.58469,-151.02573 1.7016,-39.11279 2.35483,-51.54024 3.60818,-90.92031 1.97353,-62.00825 2.73839,-124.0445 3.46683,-186.07723 0.77725,-70.33812 1.45673,-140.6803 0.44309,-211.02059 -0.0815,-23.07686 -0.24921,-46.1616 0.63204,-69.22692 3.12115,-52.941085 -71.74885,-57.355055 -74.87,-4.41397 z"/>
<path d="m 433.00821,290.72054 c 0.72939,22.76808 -0.89839,45.51428 -2.49212,68.20986 -2.4484,31.56351 -5.51641,63.07337 -7.85211,94.64585 -1.14905,18.5473 -3.02283,39.49717 12.38144,53.83177 6.0855,5.66292 14.6712,7.82073 22.00681,11.7311 6.24934,0.0434 12.53559,0.80972 18.74802,0.13008 6.67961,-0.73076 19.54382,-5.69867 25.98331,-8.08741 13.14842,-4.87741 14.45914,-5.67181 28.26368,-10.34572 5.74366,-1.94468 11.53818,-3.73578 17.30727,-5.60366 28.61235,-8.75954 57.92949,-15.05851 87.5529,-19.22515 19.53102,-2.74711 30.10785,-3.56559 49.71148,-5.47305 32.82462,-3.03932 65.78567,-3.52416 98.7031,-2.25884 52.99566,1.99009 55.81008,-72.95708 2.81442,-74.94718 v 0 c -15.09774,-0.55517 -20.24442,-0.8848 -36.05696,-0.80922 -24.28651,0.11609 -48.56486,1.2927 -72.76097,3.37139 -21.48662,2.11148 -32.81192,2.98938 -54.30991,6.0668 -33.43936,4.78681 -66.52594,11.9845 -98.8146,21.9409 -6.43471,2.09439 -12.89688,4.1062 -19.30412,6.28317 -12.25204,4.16284 -17.46982,6.26714 -28.99977,10.61216 -2.76478,1.0419 -5.58491,1.94525 -8.30035,3.10968 -0.46588,0.19978 -1.66392,0.79892 -1.18217,0.9566 2.72024,0.89035 5.64477,0.95188 8.46716,1.42783 5.02821,3.34588 11.05983,5.53445 15.08464,10.03765 4.95824,5.54759 7.27839,11.47719 7.08502,18.20209 -0.0205,0.71399 -0.18424,-1.42037 -0.18725,-2.13464 -0.0159,-3.77079 0.40462,-9.81888 0.60283,-13.28805 2.33872,-31.67218 5.44211,-63.27926 7.87356,-94.94413 1.80295,-25.90193 3.58911,-51.87479 2.54469,-77.85383 -3.12114,-52.94109 -77.99114,-48.52713 -74.87,4.41395 z"/>
<path d="m 761.33769,272.4229 c 1.20807,18.4818 2.2518,36.98735 2.20334,55.51678 -0.0174,6.6522 -0.24339,13.30222 -0.36508,19.95333 -0.40889,7.50229 -0.74003,15.00922 -1.22666,22.50687 -0.57566,8.86929 -3.52344,46.85126 -4.13991,54.69448 -1.56933,19.96637 -2.97778,39.91105 -5.47033,59.79277 -1.20511,9.61247 -2.84056,19.16608 -4.26084,28.74912 -7.71136,52.46937 66.49154,63.37488 74.2029,10.90551 v 0 c 1.55458,-10.65836 3.33375,-21.28637 4.66373,-31.97508 2.56112,-20.5831 4.01764,-41.02856 5.64162,-61.69408 0.71246,-9.06616 3.64742,-46.86403 4.25606,-56.47226 0.53202,-8.39849 0.88149,-16.80756 1.32223,-25.21134 0.1224,-7.47238 0.3581,-14.94376 0.36719,-22.41714 0.0236,-19.39063 -1.0121,-38.76136 -2.28824,-58.10263 -2.65425,-52.96655 -77.56026,-49.21288 -74.90601,3.75367 z"/>
<path d="m 335.48561,689.65278 c 3.08412,22.95529 4.18147,46.08056 5.03538,69.20513 0.94005,39.07707 -0.0325,78.16227 -1.19064,117.22243 -0.25899,17.50874 -1.74325,35.02553 -0.87001,52.53431 1.34535,8.84115 1.93512,17.83825 9.47955,24.77501 7.25452,6.67018 16.45413,11.38697 25.85883,14.33161 5.40438,1.69213 11.36246,-0.0919 16.96414,-0.9236 4.46808,-0.66339 15.64967,-5.06424 20.01485,-6.6906 25.50412,-9.83036 51.74185,-17.75345 78.45785,-23.54932 7.67086,-1.66414 15.39988,-3.04786 23.09982,-4.57179 47.43074,-7.88208 95.46893,-12.71267 143.56344,-13.56748 9.88565,-0.1757 19.77441,0.0234 29.66161,0.0351 35.13071,0.34825 70.05209,4.13192 104.88711,8.314 52.65714,6.3028 61.57065,-68.16565 8.9135,-74.46845 v 0 c -37.78736,-4.51024 -75.67284,-8.5323 -113.77815,-8.84554 -10.82223,0.005 -21.64644,-0.19005 -32.46671,0.0165 -52.07812,0.99416 -104.09263,6.27277 -155.42965,14.96034 -8.64474,1.73117 -17.32297,3.30275 -25.9342,5.19351 -29.73144,6.52812 -58.94132,15.36281 -87.35287,26.27493 -2.2507,0.85553 -4.5308,1.63739 -6.7521,2.5666 -0.36577,0.15301 -1.37542,0.61045 -0.98332,0.66927 3.03757,0.45566 6.41203,-0.73164 9.19744,0.56292 15.3926,7.15394 26.40116,12.97103 27.4736,30.58416 -0.32234,-3.93002 -0.1913,-7.8764 -0.0926,-11.81455 0.2856,-11.39014 0.76105,-22.77541 1.05491,-34.16532 1.20653,-40.73366 2.19983,-81.49446 1.17124,-122.24487 -0.93252,-24.6839 -2.09244,-49.37614 -5.35694,-73.88365 -5.28867,-52.76864 -79.91481,-45.28933 -74.62613,7.47932 z"/>
<path d="m 813.64509,664.94333 c 1.88327,20.77859 -0.11063,41.67608 -1.81793,62.38756 -0.83959,7.4409 -1.61774,14.88899 -2.51878,22.32271 -2.04306,16.85564 -4.3151,33.68275 -6.44614,50.5275 -1.9649,15.53148 -4.44256,36.02929 -6.88513,51.54706 -1.25683,7.98472 -2.78865,15.92373 -4.18297,23.88559 -1.74736,7.59195 -3.49471,15.1839 -5.24207,22.77585 -11.78481,51.70705 61.33999,68.37329 73.1248,16.66625 v 0 c 2.00125,-8.85543 4.00251,-17.71086 6.00376,-26.56629 1.52208,-8.77363 3.1856,-17.52389 4.56623,-26.32089 2.49626,-15.90538 5.00173,-36.60238 7.02361,-52.58463 2.17529,-17.19495 4.50519,-34.37067 6.57149,-51.57906 0.98361,-8.19157 1.82585,-16.3995 2.73877,-24.59924 2.21386,-27.59306 4.80597,-55.66278 0.60158,-83.20274 -10.42299,-51.99866 -83.96021,-37.25833 -73.53722,14.74033 z"/>
</svg>
