<?xml version="1.0" ?>
<svg xmlns="http://www.w3.org/2000/svg" width="1000" height="1000">
<path d="m 133.95467,327.19709 c 4.12268,-1.03296 4.60065,-1.20286 10.06429,-2.13507 26.72885,-4.56048 53.7848,-7.06192 80.74444,-9.77192 36.39019,-3.12215 72.94647,-5.71614 109.49142,-4.18726 16.72522,0.69971 21.64856,1.55373 37.42257,3.42408 52.68001,6.10872 61.31904,-68.39207 8.63903,-74.50078 v 0 c -19.14704,-2.17912 -24.60033,-3.12492 -44.7974,-3.91264 -39.47601,-1.53964 -78.96153,1.12662 -118.26774,4.55376 -21.52195,2.16961 -30.26346,2.92006 -51.2722,5.52003 -16.4982,2.04175 -33.13812,4.11731 -49.31895,8.0502 -2.45938,0.59778 -4.86352,1.40349 -7.29528,2.10523 -50.101605,17.38763 -25.511787,88.24199 24.58982,70.85437 z"/>
<path d="m 225.0031,146.78999 c -1.29409,33.25945 -1.51266,66.55186 -1.76069,99.83191 -0.29712,83.77138 -0.78201,167.54182 -1.07662,251.31322 -0.27549,86.88405 -0.3398,173.76856 -0.37724,260.65297 -0.1025,29.98097 0.12835,59.96341 -0.0909,89.94414 -0.0543,7.42621 -0.26887,28.14088 -0.72638,36.65321 -0.1884,3.50532 -0.6368,6.99181 -0.9552,10.48772 -0.43752,1.03747 -1.02213,4.20027 -1.31256,3.11241 -0.4194,-1.57093 -0.10228,-3.49177 0.86171,-4.80114 15.83972,-21.51493 5.49026,-5.96802 24.77216,-16.06133 0.81674,-0.42753 -1.00651,-1.5882 -1.73388,-2.15456 -2.82305,-2.19815 -5.8962,-4.05471 -8.84429,-6.08207 -20.0719,-14.49998 -37.77476,-31.94636 -55.89017,-48.74682 -38.88615,-36.06061 -89.883552,18.93271 -50.9974,54.99332 v 0 c 21.3063,19.75661 42.22422,40.1748 66.19454,56.75411 9.78876,6.11331 25.15138,17.05904 37.01751,18.86911 9.81902,1.49781 20.36378,2.59445 29.79313,-0.52706 17.45111,-5.77707 25.78674,-18.19534 31.50769,-33.73756 1.79661,-4.88087 2.23973,-10.15807 3.35959,-15.23711 0.39862,-4.90075 0.93605,-9.79219 1.19587,-14.70226 0.47199,-8.91987 0.69923,-30.62351 0.75733,-38.59029 0.21912,-30.04652 -0.0108,-60.09474 0.0912,-90.1415 0.0374,-86.80727 0.10161,-173.61464 0.37679,-260.42155 0.29422,-83.67376 0.77893,-167.34654 1.07501,-251.02027 0.23897,-32.32766 0.44758,-64.66719 1.68506,-96.97544 2.41347,-52.978056 -72.50883,-56.391216 -74.9223,-3.41316 z"/>
<path d="m 123.91701,746.60325 c 23.38613,-28.0969 49.20578,-54.08612 76.21271,-78.69431 11.58336,-10.55454 23.49665,-20.7412 35.24498,-31.1118 53.05219,-44.38229 26.30267,-22.44129 80.24961,-65.82173 41.32383,-33.23915 -5.68343,-91.67987 -47.00726,-58.44072 v 0 c -55.59685,44.73202 -27.96055,22.04794 -82.90317,68.05922 -12.39158,10.95927 -24.96303,21.71847 -37.17476,32.87781 -28.98067,26.48318 -56.670868,54.455 -81.822582,84.62271 -34.300917,40.44684 22.899556,88.95566 57.200472,48.50882 z"/>
<path d="m 479.55471,276.7779 c 32.19402,-7.22717 64.96466,-11.37205 97.67805,-15.39848 47.17386,-5.3503 94.62499,-8.66712 142.12349,-8.03333 7.05022,0.0941 14.09519,0.42829 21.14278,0.64243 16.40559,0.71163 32.73203,2.43423 48.86758,5.4532 52.17032,9.52666 65.64305,-64.25332 13.47272,-73.77998 v 0 c -19.87486,-3.56649 -39.93095,-5.8886 -60.12731,-6.64056 -7.82845,-0.22499 -15.65425,-0.57909 -23.48534,-0.67497 -50.52461,-0.61862 -101.00107,2.88372 -151.17888,8.59775 -34.80205,4.3047 -69.65653,8.76011 -103.91066,16.43572 -51.90038,10.90187 -36.48281,84.30009 15.41757,73.39822 z"/>
<path d="m 555.18566,421.32817 c 15.64685,-5.19855 31.64641,-9.5118 47.89817,-12.35767 4.74005,-0.83004 9.51843,-1.424 14.27764,-2.136 24.19549,-2.58397 48.67947,-3.18064 72.88496,-0.36371 3.89495,0.45328 7.76154,1.12384 11.64231,1.68577 3.18566,0.62944 6.37131,1.25889 9.55696,1.88833 52.07716,10.02348 66.25249,-63.62474 14.17534,-73.64821 v 0 c -4.43334,-0.83701 -8.86667,-1.67402 -13.30001,-2.51103 -5.163,-0.70839 -10.30904,-1.55386 -15.489,-2.12517 -30.17628,-3.3282 -60.68562,-2.56466 -90.80688,0.93572 -5.98646,0.9311 -11.99677,1.71999 -17.95937,2.7933 -19.43086,3.49768 -38.56492,8.66962 -57.28065,14.91889 -50.14785,17.25378 -25.74732,88.17355 24.40053,70.91978 z"/>
<path d="m 555.90735,543.9822 c 20.01684,-2.85264 39.91375,-6.48151 59.98595,-8.97205 6.37145,-0.79056 12.76072,-1.43022 19.14108,-2.14533 18.27466,-1.65453 36.66877,-2.0324 54.98915,-0.9361 11.26434,0.67406 14.93239,1.37995 25.54806,2.87152 52.54644,7.16745 62.68274,-67.14443 10.13631,-74.31188 v 0 c -4.99116,-0.66536 -9.96611,-1.46633 -14.97348,-1.99609 -27.93933,-2.95591 -56.13686,-2.74777 -84.0971,-0.1559 -6.98682,0.79096 -13.9831,1.50236 -20.96045,2.37287 -19.14553,2.38865 -38.16033,5.65429 -57.21601,8.64354 -52.77096,5.26546 -45.32448,79.89488 7.44649,74.62942 z"/>
<path d="m 376.32966,711.48253 c 19.51735,-7.29941 39.51228,-13.23266 59.80403,-17.96622 8.49601,-1.9819 17.05199,-3.69727 25.57798,-5.54591 57.99718,-11.34958 116.83552,-18.19594 175.76817,-22.3086 13.23559,-0.92365 26.49033,-1.54864 39.73549,-2.32296 57.9709,-2.56259 116.1227,-1.61582 173.95683,3.19643 8.50315,0.70752 16.98589,1.64202 25.47883,2.46303 14.91663,1.83595 24.9692,2.83111 39.4941,5.47177 5.37535,0.97725 10.69455,2.24153 16.04182,3.3623 51.93506,10.73542 67.11725,-62.71184 15.18219,-73.44727 v 0 c -6.5572,-1.33999 -13.08378,-2.83971 -19.6716,-4.01997 -16.24403,-2.91025 -27.24922,-3.99603 -43.86394,-6.02211 -9.11438,-0.87299 -18.21805,-1.86602 -27.34312,-2.61896 -61.0667,-5.03879 -122.46434,-6.00626 -183.67047,-3.25632 -13.81296,0.81415 -27.63599,1.4723 -41.43887,2.44244 -62.24719,4.37506 -124.38654,11.68625 -185.62772,23.77767 -9.38727,2.05222 -18.80925,3.95172 -28.16183,6.15667 -24.14861,5.69325 -47.98652,12.82485 -71.11018,21.83336 -48.65223,21.10593 -18.80394,89.91058 29.84829,68.80465 z"/>
<path d="m 594.43307,249.87274 c 0.4793,33.52585 1.79948,67.03437 2.92857,100.5429 2.97371,79.96859 2.21222,160.00671 1.09721,240.00225 -0.26829,16.01579 -0.50347,32.03217 -0.80488,48.04738 -0.70263,37.33444 -1.21024,60.34331 -2.40847,97.66196 -1.47297,45.87496 -3.46106,91.73404 -5.24079,137.5977 -2.05637,52.99313 72.88723,55.90127 74.9436,2.90815 v 0 c 1.78972,-46.12206 3.78758,-92.23947 5.26685,-138.37296 1.2064,-37.62349 1.72069,-60.92499 2.42829,-98.53888 0.30262,-16.08584 0.53876,-32.17286 0.80813,-48.2593 1.12897,-81.1856 1.88504,-162.41396 -1.13248,-243.57205 -1.10075,-32.66717 -2.37879,-65.3339 -2.88603,-98.01715 0,-53.03301 -75,-53.03301 -75,0 z"/>
</svg>
