<?xml version="1.0" ?>
<svg xmlns="http://www.w3.org/2000/svg" viewBox="0 0 1000 1000">
<path d="m 117.85049,286.97712 c 32.84307,-5.10712 65.70902,-10.01896 98.65834,-14.39328 33.06779,-4.11711 66.27014,-7.25446 99.56799,-8.70354 16.93585,-0.73703 23.49681,-0.69732 39.89569,-0.89308 53.02899,-0.65347 52.10484,-75.64778 -0.92415,-74.99431 v 0 c -17.83608,0.22616 -24.65962,0.18414 -43.10337,1.00129 -35.2193,1.56039 -70.33917,4.8752 -105.31513,9.24311 -34.43843,4.58001 -68.80036,9.67047 -103.11177,15.12199 -52.05565,10.13454 -37.723253,83.75235 14.3324,73.61782 z"/>
<path d="m 210.70956,92.410783 c -0.0739,30.889737 0.033,61.777507 0.34326,92.665717 0.69502,60.32377 2.67669,120.62751 3.07524,180.95534 0.0936,14.16842 0.0442,28.33743 0.0663,42.50615 -0.77415,88.76749 -1.57309,177.54175 -3.43928,266.29414 -1.21135,46.8868 -3.50467,93.75345 -7.4993,140.48932 -1.90999,22.34621 -2.6529,28.00989 -5.0088,49.45764 -1.76342,14.66928 -3.57922,29.35833 -6.43938,43.86368 -0.0938,0.47576 -1.68302,8.78272 -2.78471,10.71822 -0.34889,0.61295 0.27034,-1.38444 0.40551,-2.07666 3.9348,-4.60347 6.52864,-10.83705 11.80441,-13.81043 6.53276,-3.68182 14.566,-3.57944 21.89192,-5.18058 0.82532,-0.18038 3.0749,0.48827 2.52954,-0.15692 -1.57588,-1.86432 -4.0818,-2.6793 -6.09454,-4.06059 -9.93747,-6.8198 -11.75552,-8.26455 -22.06432,-15.7703 -19.06854,-13.40348 -36.78462,-28.51329 -54.1113,-44.05808 -39.51038,-35.37556 -89.538968,20.50056 -50.028586,55.87611 v 0 c 19.246986,17.20219 38.904546,33.94853 60.029536,48.83901 8.26244,6.00194 17.30332,12.72597 25.86531,18.36004 3.89698,2.56435 7.72566,5.27595 11.88114,7.39594 5.18992,2.64772 10.2658,6.40634 16.07395,6.86584 10.49761,0.83048 21.70527,0.91313 31.43807,-3.1071 7.57562,-3.12918 11.74419,-11.43685 17.61628,-17.15528 1.50928,-3.39022 3.23481,-6.69222 4.52785,-10.17068 1.95802,-5.26738 3.80726,-13.94716 4.85528,-19.34258 3.13967,-16.16377 5.21262,-32.51408 7.15728,-48.85565 2.46155,-22.49107 3.23657,-28.41582 5.22928,-51.81003 4.10133,-48.14935 6.46588,-96.43208 7.70904,-144.73599 1.87396,-89.31748 2.68765,-178.65677 3.45572,-267.98948 -0.0238,-14.42618 0.0247,-28.85266 -0.0715,-43.27855 -0.40166,-60.28206 -2.36953,-120.54013 -3.07373,-180.81801 -0.30956,-30.63637 -0.41188,-61.27233 -0.33946,-91.910237 0,-53.033009 -75,-53.033009 -75,0 z"/>
<path d="m 116.30311,739.40321 c -0.31972,0.63246 -1.47465,2.38366 -0.95915,1.89737 1.71114,-1.61416 3.07654,-3.55936 4.61103,-5.34229 2.93985,-3.41579 5.79412,-6.90681 8.81198,-10.25388 4.12225,-4.57195 8.3103,-9.08681 12.60388,-13.49824 13.60077,-13.97408 26.21162,-25.78872 40.41914,-39.41315 38.65191,-36.31187 78.72084,-71.20991 120.47569,-103.92599 10.44043,-8.18037 21.14783,-16.01415 31.72175,-24.02123 42.26346,-32.03591 -3.04216,-91.80547 -45.30562,-59.76956 v 0 c -11.20263,8.49965 -22.54311,16.82061 -33.60789,25.49896 -43.39377,34.03469 -85.03386,70.3338 -125.20706,108.09769 -15.70125,15.07055 -28.43708,26.98017 -43.395534,42.43492 -11.583861,11.96819 -13.737538,14.72006 -23.372283,25.93831 -1.935816,2.25397 -3.95416,4.43981 -5.804318,6.76461 -1.999761,2.51278 -3.82543,5.15932 -5.738146,7.73898 -26.766464,45.78271 37.980063,83.63621 64.746531,37.8535 z"/>
<path d="m 384.10385,362.83018 c 40.1346,-7.1295 80.71336,-11.40395 121.22346,-15.73319 62.70622,-6.0792 125.65268,-10.46082 188.67927,-10.68465 11.06798,-0.0393 22.13503,0.21698 33.20255,0.32548 26.58604,0.61715 53.15916,2.19329 79.53223,5.68867 15.58919,2.06614 23.66449,3.74487 39.00699,6.56707 52.16632,9.54855 65.67,-64.22577 13.50368,-73.77432 v 0 c -17.62224,-3.21128 -26.12012,-4.98255 -44.11283,-7.32111 -28.92928,-3.76 -58.06727,-5.50991 -87.22276,-6.15698 -11.70886,-0.10631 -23.41734,-0.36704 -35.12659,-0.31894 -65.28468,0.26814 -130.48728,4.78144 -195.43933,11.10018 -42.13158,4.51048 -84.3288,8.98934 -126.06921,16.41203 -52.25219,9.06691 -39.42965,82.96266 12.82254,73.89576 z"/>
<path d="m 496.98771,310.26983 c -12.08863,23.74439 -19.51089,49.47133 -28.89713,74.3221 -3.43264,9.08816 -7.0666,18.099 -10.59991,27.14851 -18.23047,45.47503 -40.21892,89.42346 -65.29437,131.5086 -15.65591,26.27594 -27.6134,43.72747 -44.48446,69.26683 -40.56547,57.03968 -6.14185,9.33708 -46.96528,64.02011 -7.54048,10.10048 -14.93542,20.30878 -22.40312,30.46317 -31.4156,42.72658 29.0089,87.15494 60.4245,44.42837 v 0 c 7.26102,-9.87733 14.45177,-19.80671 21.78307,-29.63198 42.05175,-56.35697 7.91255,-8.9978 49.75259,-67.96054 18.28959,-27.72395 30.14395,-44.988 47.14443,-73.61015 26.85196,-45.20814 50.36679,-92.4174 69.91631,-141.23244 3.74383,-9.60896 7.58959,-19.17882 11.23149,-28.82687 2.96168,-7.846 5.74508,-15.75822 8.57789,-23.65166 5.15907,-14.37546 9.74184,-29.06989 16.86594,-42.64292 23.75959,-47.41289 -43.29236,-81.01402 -67.05195,-33.60113 z"/>
<path d="m 405.61798,570.60276 c 7.08408,22.66613 10.78526,46.30968 14.86284,69.65813 4.95403,30.47085 8.47954,61.18649 10.17542,92.01542 0.89069,16.19168 0.77228,19.68798 0.9373,35.14036 -0.0958,4.10709 -0.19157,8.21418 -0.28736,12.32127 -1.14706,53.02061 73.83539,54.6428 74.98246,1.62219 v 0 c 0.0999,-4.93959 0.19986,-9.87919 0.29979,-14.81879 -0.21747,-17.33535 -0.0936,-21.38384 -1.11024,-39.42986 -1.88341,-33.43165 -5.71863,-66.74077 -11.12065,-99.78237 -3.21656,-18.33603 -4.28421,-25.38099 -8.03571,-43.21695 -2.90341,-13.80386 -6.00759,-27.70212 -10.9622,-40.94446 -0.78579,-2.10022 -1.79315,-4.11075 -2.68972,-6.16612 -23.75963,-47.41287 -90.81155,-13.81169 -67.05193,33.60118 z"/>
<path d="m 480.20747,608.38977 c 28.85766,-6.09127 57.7174,-12.20094 86.81594,-17.05909 8.67267,-1.44795 17.37571,-2.70775 26.06356,-4.06162 33.86786,-4.64658 68.07803,-7.09609 102.26865,-5.93737 16.6803,0.5653 20.56164,1.23773 36.36053,2.91546 9.70413,1.31341 19.35094,3.13122 28.75936,5.86894 2.87346,0.83614 5.81982,1.79367 8.53373,3.08041 -7.06085,-1.46234 -13.71553,-12.84288 -16.3095,-17.00448 -0.97603,-1.56589 0.0133,-5.22753 -1.83188,-5.22362 -1.74338,0.004 -0.0758,3.48629 -0.15592,5.22784 -0.16696,3.63059 -0.3901,7.25837 -0.58514,10.88756 -2.95334,45.91352 -11.56334,91.17129 -20.58253,136.20235 -5.07211,25.51424 -11.61416,50.70046 -19.82701,75.38347 -2.28431,6.8653 -4.84873,13.6342 -7.27309,20.45129 -17.70419,49.99062 52.99322,75.02813 70.69741,25.03751 v 0 c 2.73187,-7.74235 5.62608,-15.42933 8.19562,-23.22707 8.95392,-27.17231 16.15566,-54.8721 21.74925,-82.92962 9.72529,-48.6473 18.89386,-97.55756 21.94634,-147.16393 0.25275,-5.33684 1.204,-19.89677 0.59312,-25.88881 -0.50919,-4.99465 -0.64241,-10.21377 -2.60574,-14.8345 -5.75795,-13.5514 -12.34977,-20.27646 -24.83664,-26.01113 -18.75097,-7.69061 -38.66514,-11.89908 -58.73157,-14.45619 -18.84091,-1.91496 -23.59739,-2.7084 -43.31446,-3.3114 -38.32587,-1.17212 -76.6695,1.5571 -114.6245,6.83171 -9.23258,1.44513 -18.48094,2.79287 -27.69775,4.33539 -29.86047,4.99746 -59.48112,11.2517 -89.09646,17.50365 -51.88979,10.95216 -36.40111,84.3354 15.48868,73.38325 z"/>
<path d="m 503.18685,813.36739 c 1.52378,-0.35282 3.03821,-0.74882 4.57135,-1.05845 13.07768,-2.64114 26.37519,-4.26481 39.60826,-5.86409 19.28351,-2.33051 25.61713,-2.88047 45.38386,-4.8999 40.53864,-3.99842 81.28232,-6.70815 122.03048,-4.99791 5.72168,0.24014 11.42904,0.7471 17.14356,1.12065 4.42207,0.47287 8.84414,0.94573 13.26621,1.4186 52.74541,5.51561 60.54566,-69.07766 7.80025,-74.59327 v 0 c -5.4378,-0.55819 -10.8756,-1.11638 -16.3134,-1.67457 -6.74544,-0.41767 -13.4834,-0.98207 -20.23632,-1.25303 -43.849,-1.75945 -87.69824,1.05282 -131.32198,5.36877 -20.07613,2.05564 -27.68814,2.73326 -47.35513,5.12792 -15.85593,1.93062 -31.74805,3.95972 -47.38437,7.28804 -2.50137,0.53244 -4.97099,1.20437 -7.45649,1.80656 -51.06066,14.32861 -30.79694,86.53929 20.26372,72.21068 z"/>
</svg>
