<?xml version="1.0" ?>
<svg xmlns="http://www.w3.org/2000/svg" viewBox="0 0 1000 1000">
<path d="m 80.795086,329.76933 c 19.473964,-5.05787 39.383544,-8.02343 59.249854,-11.03603 27.50696,-3.97425 55.14183,-7.13927 82.89092,-8.80643 17.29917,-1.03933 21.63445,-0.97088 38.55569,-1.32193 15.25358,-0.0977 30.50082,0.35668 45.74535,0.80091 53.01068,1.5388 55.18687,-73.42962 2.17619,-74.96843 v 0 c -16.505,-0.47735 -33.01329,-0.96034 -49.52806,-0.81527 -18.6772,0.41164 -23.38496,0.34089 -42.44516,1.50637 -29.67986,1.81484 -59.24041,5.19355 -88.66207,9.45593 -21.72994,3.30821 -43.500032,6.60638 -64.811373,12.09728 -51.680732,11.89966 -34.852074,84.98726 16.828659,73.0876 z"/>
<path d="m 163.80273,174.10893 c 1.02156,27.02274 1.75779,54.0547 2.66482,81.0817 2.89665,68.45194 3.53325,136.95301 3.24608,205.45577 -0.23722,77.43479 -4.26291,154.76616 -8.26163,232.07406 -2.35113,48.5738 -4.8353,97.14346 -8.84199,145.61252 -1.00014,11.0097 -1.96236,22.02852 -3.36572,32.99643 -0.24856,1.94262 -0.49264,3.88709 -0.8238,5.81735 -0.1303,0.75948 -0.72436,2.99575 -0.55906,2.24311 0.30811,-1.4029 0.65839,-2.79621 0.98759,-4.19431 16.07943,-19.60521 9.4391,-18.47317 38.02252,-21.06711 2.40329,-0.2181 4.59469,2.59952 6.9439,2.04761 1.45567,-0.34198 -2.29808,-1.91379 -3.44875,-2.86873 -11.75975,-9.75936 -3.77077,-3.08446 -17.42707,-14.55787 -23.76623,-20.31434 -48.01871,-40.04617 -71.90331,-60.21906 -40.520678,-34.21366 -88.906093,23.09124 -48.385409,57.3049 v 0 c 23.93938,20.20756 48.232529,39.99029 72.050409,60.34295 3.74856,3.148 15.79981,13.33013 19.93692,16.57577 3.05262,2.39483 5.97105,5.01721 9.32921,6.96052 4.91612,2.84486 9.71895,6.86245 15.37896,7.33763 32.69563,2.74493 29.30515,-1.70921 48.32437,-22.04777 1.19672,-3.40102 2.59278,-6.73834 3.59016,-10.20306 1.02379,-3.55646 2.00827,-11.0703 2.46854,-14.69932 1.50095,-11.83447 2.55598,-23.72029 3.62634,-35.59926 4.05828,-49.23437 6.62161,-98.56731 8.99606,-147.9082 4.05997,-78.49447 8.12407,-157.0136 8.36111,-235.63672 0.28568,-69.44529 -0.35662,-138.88912 -3.28764,-208.28306 -0.87906,-26.18843 -1.54366,-52.38537 -2.62261,-78.56585 0,-53.03301 -75,-53.03301 -75,0 z"/>
<path d="m 101.54419,716.72037 c 15.50037,-24.73692 32.79744,-48.27999 51.6484,-70.57478 7.2843,-8.61504 14.90207,-16.9425 22.35311,-25.41375 24.32622,-27.27347 50.08052,-53.20494 77.45966,-77.41613 9.15179,-8.09287 18.6065,-15.83658 27.90975,-23.75487 40.35985,-34.40323 -8.29366,-91.48068 -48.65351,-57.07745 v 0 c -10.01607,8.54974 -20.19997,16.90668 -30.04821,25.6492 -29.32078,26.02877 -56.94551,53.85396 -83.03133,83.12056 -8.12466,9.2718 -16.43698,18.38248 -24.373999,27.81541 -14.516757,17.25277 -24.468266,30.2476 -37.248652,48.33283 -5.617238,7.94883 -15.247641,22.31077 -20.428751,31.35371 -1.9527,3.40817 -3.581269,6.99209 -5.371904,10.48813 -19.42927,49.34576 50.356164,76.82289 69.785436,27.47714 z"/>
<path d="m 349.57749,388.12667 c -0.0714,0.0929 -0.18281,0.1658 -0.21422,0.27868 -4.56109,16.39388 -8.27259,33.02324 -12.7785,49.42975 -1.97907,7.20602 -4.19393,14.34519 -6.29089,21.51778 -12.37329,40.56991 -25.90404,80.75846 -40.06354,120.73584 -3.86342,10.90783 -7.68588,21.83106 -11.69321,32.68684 -3.86239,10.46314 -7.94314,20.84437 -11.91471,31.26655 -15.6598,37.66502 -7.85003,19.59116 -23.32895,54.26483 -21.59627,48.43657 46.90338,78.9783 68.49965,30.54173 v 0 c 16.54016,-37.13943 8.19786,-17.78284 24.91935,-58.116 4.14753,-10.89878 8.40524,-21.75626 12.4426,-32.69633 4.06079,-11.00358 7.93602,-22.07484 11.85061,-33.13127 14.60357,-41.24654 28.55306,-82.71393 41.29548,-124.57719 2.32267,-8.00003 4.762,-15.96711 6.968,-24.00009 3.01351,-10.97346 5.56377,-22.06929 8.45346,-33.076 1.59107,-6.06038 3.66554,-13.15153 5.03184,-19.39544 0.50371,-2.30192 0.87137,-4.63152 1.30705,-6.94728 6.2101,-52.66815 -68.27392,-61.45055 -74.48402,-8.7824 z"/>
<path d="m 451.00695,463.03989 c 14.09548,-0.92491 28.18652,-1.92026 42.28759,-2.77623 12.43139,-0.75932 24.88928,-0.81096 37.30312,0.19158 -6.38532,-0.25763 5.23681,0.30559 3.92723,0.4517 -0.40998,0.0457 -0.8346,-0.0232 -1.22924,-0.14332 -2.55141,-0.77659 -5.37271,-1.05364 -7.587,-2.54015 -4.96735,-3.3347 -10.09873,-6.85444 -13.61621,-11.69408 -3.17761,-4.37203 -3.91252,-10.07668 -5.86878,-15.11502 -0.0944,-1.48881 -0.0392,-2.9947 -0.28309,-4.46643 -0.0636,-0.38394 -0.1864,0.75581 -0.26877,1.13616 -0.24996,1.15419 -0.4834,2.31189 -0.72817,3.46718 -1.69269,7.98942 -3.56083,15.93259 -5.42357,23.8841 -8.15008,36.35456 -23.77002,70.4604 -38.72755,104.39854 -21.85263,47.09385 -47.14353,92.60774 -75.12385,136.33615 -5.6973,8.90389 -11.67723,17.62374 -17.51585,26.43561 -15.84295,23.62437 -33.25948,46.10387 -51.63258,67.79865 -8.38658,9.9028 -21.62149,25.05995 -30.81271,34.56277 -4.71396,4.87377 -9.69499,9.48195 -14.54248,14.22293 -37.82281,37.17439 14.74971,90.66392 52.57252,53.48953 v 0 c 5.74535,-5.67026 11.63456,-11.19836 17.23604,-17.01078 9.81837,-10.18813 24.38296,-26.85009 33.36509,-37.4939 20.04272,-23.75058 39.04963,-48.35034 56.35928,-74.17955 6.25917,-9.46946 12.66651,-18.84262 18.7775,-28.40837 29.81331,-46.66786 56.71863,-95.25748 79.95654,-145.52692 16.80015,-38.18111 34.02446,-76.61912 43.11203,-117.52207 2.04174,-8.71976 4.13376,-17.42937 5.92841,-26.2045 0.61983,-3.03072 1.94714,-9.48299 2.16405,-12.63886 0.22532,-3.27806 0.13576,-6.57019 0.20364,-9.85529 -2.07938,-6.25111 -2.63705,-13.23679 -6.23814,-18.75334 -9.28726,-14.22726 -22.84362,-18.25608 -38.13909,-19.40104 -15.88033,-1.21999 -31.81255,-1.28216 -47.71306,-0.28346 -13.58335,0.82467 -27.15987,1.74507 -40.73378,2.69807 -52.99082,2.11487 -49.99995,77.05521 2.99088,74.94034 z"/>
<path d="m 384.44499,635.02569 c 22.45371,12.52716 43.80989,26.98093 65.26977,41.11966 36.24082,24.17447 72.12367,48.89545 108.92238,72.22493 7.71641,4.89202 15.51593,9.65169 23.27389,14.47754 28.5114,17.33532 57.69553,33.55808 87.583,48.39885 16.2705,8.0792 20.09966,9.68729 36.18701,17.05414 25.08889,11.21778 50.87849,20.77564 76.74246,30.03117 27.0916,10.38471 55.70986,15.40688 84.14558,20.49903 27.19672,4.6237 13.78684,2.36879 40.22896,6.7688 52.31378,8.70448 64.62378,-65.27838 12.31,-73.98287 v 0 c -25.9748,-4.32164 -12.86176,-2.11747 -39.33868,-6.61514 -24.33529,-4.3437 -48.90575,-8.36345 -72.08521,-17.2878 -23.85461,-8.5293 -47.65041,-17.31472 -70.80644,-27.61706 -14.89183,-6.80305 -18.29171,-8.222 -33.40236,-15.71034 -27.97184,-13.86194 -55.27903,-29.02996 -81.96253,-45.231 -7.39383,-4.59506 -14.82851,-9.12504 -22.18149,-13.78518 -36.61287,-23.20434 -72.29662,-47.82006 -108.35939,-71.85769 -23.21823,-15.2914 -46.34211,-30.88202 -70.67507,-44.36301 -46.58134,-25.3511 -82.43322,40.52486 -35.85188,65.87597 z"/>
<path d="m 611.3716,304.34758 c 0.40779,24.33342 0.96413,48.66202 1.18054,73.00053 -0.0406,8.14601 0.0623,16.294 -0.12175,24.43803 -0.19559,8.65435 -0.41142,17.31441 -1.01701,25.94976 -2.03171,28.97115 -6.84906,57.86741 -13.31797,86.16193 -2.253,9.85446 -5.01914,19.58453 -7.52872,29.3768 -7.92519,27.23406 -18.65247,53.49969 -29.13688,79.80939 -19.61541,49.27206 50.06581,77.01243 69.68121,27.74037 v 0 c 11.66411,-29.3266 23.53624,-58.6285 32.13818,-89.04967 2.79502,-11.04824 5.87187,-22.02898 8.38507,-33.14472 7.28588,-32.22509 12.48418,-65.04378 14.72394,-98.01781 0.64343,-9.47268 0.86171,-18.97117 1.0713,-28.46337 0.18744,-8.48882 0.0797,-16.9816 0.11962,-25.4724 -0.21749,-24.11447 -0.74271,-48.21998 -1.17753,-72.32884 0,-53.03301 -75,-53.03301 -75,0 z"/>
<path d="m 655.83811,361.264 c 18.43005,-2.73162 36.62851,-6.8689 54.86882,-10.63308 23.03049,-4.9623 46.25645,-8.848 69.61912,-11.83947 9.21271,-1.06506 18.44416,-2.08728 27.71552,-2.45951 0.91675,-0.0211 1.04981,-0.0312 1.85007,-0.0297 0.15025,2.8e-4 0.60077,0.0127 0.45071,0.005 -3.69874,-0.17947 -4.59825,-0.0153 -8.75649,-1.17528 -1.86676,-0.52075 -3.63186,-1.35407 -5.4478,-2.0311 -7.43951,-3.69747 -11.83018,-8.67869 -15.96273,-15.99389 -1.03265,-1.82794 -1.46909,-3.93374 -2.17007,-5.91272 -0.17056,-0.48151 -0.35706,-1.9702 -0.44384,-1.4668 -0.21332,1.23727 0.0316,2.51084 0.0474,3.76626 -0.39611,23.51229 -2.49256,46.95374 -4.01568,70.4097 -2.29112,36.04393 -2.35092,72.17599 -1.9638,108.27448 0.30103,29.57026 1.48922,59.11393 4.51727,88.53334 1.9211,16.07892 5.28045,32.0297 11.37136,47.08132 3.7653,9.30465 5.21635,11.27349 10.06544,19.95207 7.74504,12.3245 16.5535,24.08359 27.16204,34.10759 2.12748,2.01026 4.38166,3.88205 6.5725,5.82308 11.61586,9.61594 24.76052,17.03924 38.21866,23.71365 10.19029,5.01233 20.96222,8.63096 31.53676,12.7083 5.78631,2.44136 11.68441,4.56559 17.76474,6.13732 10.21336,1.24873 16.39862,3.02339 27.33707,-3.22118 6.52651,-3.72588 11.89147,-9.49336 16.28844,-15.58796 6.13831,-8.50823 6.88342,-26.10501 7.87196,-36.36317 2.20645,-27.27239 4.80617,-54.50865 7.46444,-81.73989 5.15154,-52.78221 -69.49378,-60.06759 -74.64531,-7.28538 v 0 c -2.66451,27.30545 -5.27766,54.61543 -7.48583,81.96241 -0.28653,3.10297 -0.59899,6.20366 -0.85961,9.30891 -0.077,0.91785 -0.70197,3.49876 -0.15322,2.75898 1.63854,-2.20891 1.77007,-5.37504 3.61007,-7.41919 4.34295,-4.82478 8.86994,-9.86349 14.63411,-12.84913 10.15415,-5.25949 14.76142,-3.77194 23.66208,-2.44 0.18291,0.0595 0.37024,0.10686 0.54872,0.1786 0.0386,0.0155 -0.0846,0.003 -0.12458,-0.008 -0.79183,-0.22853 -1.89712,-0.64209 -2.5877,-0.90384 -2.00629,-0.76044 -4.49779,-1.76887 -6.41457,-2.53414 -8.45569,-3.24274 -17.06407,-6.12556 -25.27655,-9.9683 -7.71004,-3.77038 -15.29983,-7.85527 -22.17075,-13.03849 -7.0816,-5.90477 -12.96137,-12.93667 -17.92825,-20.71278 -2.28114,-3.72042 -2.95464,-4.55379 -4.77037,-8.65724 -4.02644,-9.09958 -5.83585,-18.94493 -7.09363,-28.75813 -2.85074,-27.10658 -3.78972,-54.34406 -4.11969,-81.59092 -0.37432,-34.20821 -0.34516,-68.44944 1.81089,-102.60704 1.66132,-25.63543 4.00353,-51.26118 4.15368,-76.96653 -0.13726,-4.89776 -0.11828,-10.97134 -1.12746,-15.73384 -2.92075,-13.78353 -9.98571,-23.78003 -22.4089,-30.34871 -2.23716,-0.88277 -4.40743,-1.95877 -6.7115,-2.64831 -5.704,-1.70705 -11.59121,-1.94098 -17.47814,-1.66225 -11.40422,0.49968 -22.76848,1.63535 -34.09883,3.00411 -25.23603,3.25469 -50.33456,7.41859 -75.21606,12.77531 -16.06755,3.31592 -32.10196,6.88944 -48.28829,9.57742 -52.68502,6.0654 -44.10724,80.57327 8.57778,74.50786 z"/>
</svg>
