<?xml version="1.0" ?>
<svg xmlns="http://www.w3.org/2000/svg" viewBox="0 0 1000 1000">
<path d="m 159.00515,363.70036 c 25.44427,-6.43885 51.89857,-7.62801 77.98956,-9.22245 40.30476,-2.05062 80.68126,-1.54937 120.99533,-0.12887 15.27562,0.53402 30.49798,1.89613 45.69513,3.46789 52.75347,5.4379 60.44382,-69.16679 7.69035,-74.60469 v 0 c -16.88195,-1.735 -33.79266,-3.22482 -50.76024,-3.81724 -42.72951,-1.48808 -85.5245,-2.00036 -128.24155,0.2254 -30.99827,1.93106 -62.34702,3.66229 -92.52047,11.56648 -51.274772,13.54243 -32.12288,86.05591 19.15189,72.51348 z"/>
<path d="m 244.13565,197.46778 c 2.45149,19.01301 2.99649,38.20909 3.78274,57.34353 1.72831,47.99516 2.87601,96.01019 3.85995,144.02573 0.76895,60.21025 2.61491,120.39227 4.49931,180.57493 0.21769,9.93326 0.51057,19.86516 0.65307,29.79978 0.30825,21.4908 0.32496,36.60422 -0.31505,58.03009 -0.81491,27.28116 -2.79014,54.46759 -4.89451,81.67152 -3.18421,39.72545 -7.56522,79.33777 -13.36647,118.76413 -1.00576,6.37743 -2.16591,14.07787 -3.364,20.53502 -0.37038,1.99614 -0.71542,4.00122 -1.22989,5.96517 -0.0564,0.21541 -0.55543,0.68574 -0.45969,0.4847 1.65498,-3.47511 2.17485,-7.89356 5.1507,-10.33481 6.59993,-5.41426 14.97059,-8.20821 22.45588,-12.31232 4.383,0.36563 8.8205,1.87699 13.149,1.0969 1.42663,-0.25711 -2.14882,-1.94735 -3.2592,-2.87925 -2.83993,-2.38346 -5.75434,-4.67734 -8.59025,-7.06558 -13.99453,-11.7854 -27.56122,-24.03723 -41.12881,-36.30756 -5.91011,-5.40888 -11.82023,-10.81775 -17.73034,-16.22662 -39.12329,-35.80319 -89.75664,19.52549 -50.63335,55.32868 v 0 c 6.02161,5.5103 12.04323,11.0206 18.06484,16.5309 14.54672,13.14827 29.05392,26.35853 44.14225,38.89049 4.53032,3.76276 19.76083,16.35276 25.30232,18.66443 7.84686,3.27337 16.37664,4.57807 24.56496,6.8671 9.88398,-4.22841 20.91743,-6.41781 29.65196,-12.68524 5.0498,-3.62346 7.1533,-10.21512 9.9783,-15.75131 1.48326,-2.90675 2.03265,-6.2071 2.84006,-9.36895 2.55516,-10.00607 3.3697,-20.40913 5.29847,-30.52837 6.03613,-41.13217 10.63287,-82.45323 13.94092,-123.89677 2.20902,-28.68984 4.26756,-57.35918 5.10538,-86.13044 0.65382,-22.45271 0.63387,-38.52249 0.30843,-60.98927 -0.14729,-10.16795 -0.44781,-20.3331 -0.67172,-30.49965 -1.876,-59.91276 -3.71517,-119.82478 -4.47833,-179.76508 -0.99554,-48.53246 -2.15491,-97.06447 -3.90778,-145.57615 -0.90197,-21.83126 -1.5875,-43.73197 -4.55258,-65.40558 -7.88414,-52.44369 -82.05071,-41.29383 -74.16657,11.14985 z"/>
<path d="m 148.09294,744.3192 c 0.0603,0.16677 0.0578,0.62789 0.18096,0.5003 1.33201,-1.37966 2.40454,-2.98854 3.63858,-4.45649 2.57633,-3.06464 5.09738,-6.17942 7.79198,-9.14061 3.85844,-4.24017 7.82551,-8.38249 11.85994,-12.45556 12.51362,-12.63351 23.71971,-23.00211 36.75572,-35.33105 7.94755,-7.28322 15.83968,-14.62738 23.84264,-21.84967 19.55064,-17.64352 37.07144,-33.05273 57.33829,-50.01306 32.58459,-27.26844 66.09863,-53.4 99.51765,-79.62829 10.45438,-8.07949 20.90876,-16.15897 31.36315,-24.23846 41.96122,-32.43079 -3.90283,-91.77292 -45.86406,-59.34214 v 0 c -10.60165,8.1942 -21.20331,16.3884 -31.80497,24.58259 -34.25907,26.89037 -68.60209,53.69393 -101.99684,81.66124 -20.84833,17.45999 -39.1174,33.5287 -59.23291,51.69188 -8.29439,7.48937 -16.47365,15.10527 -24.71048,22.65791 -13.74415,13.01071 -26.47891,24.80298 -39.69279,38.26849 -9.31654,9.49396 -16.3412,17.09426 -24.478482,27.23264 -2.597648,3.23645 -5.183806,6.4938 -7.501014,9.93661 -2.029718,3.01568 -3.678595,6.27089 -5.517893,9.40634 -21.579012,48.44426 46.931519,78.96159 68.510529,30.51733 z"/>
<path d="m 594.56746,149.18346 c -5.45268,13.94693 -8.42743,28.68246 -12.47678,43.05776 -4.14162,14.70286 -7.73392,25.71483 -12.38042,40.51947 -16.2022,51.13934 -35.18807,101.41418 -56.72517,150.54717 -5.12809,11.69882 -10.54735,23.26783 -15.82103,34.90175 -16.41254,35.14848 -34.3656,69.54992 -53.41654,103.33476 -10.07613,17.86897 -23.78735,41.57039 -35.31287,58.79977 -5.45228,8.15055 -11.45365,15.92009 -17.18047,23.88013 -30.86341,43.12714 30.12758,86.77459 60.99099,43.64744 v 0 c 6.60006,-9.26499 13.4922,-18.32872 19.80019,-27.79499 12.12675,-18.19839 26.75835,-43.45736 37.41327,-62.37921 19.98378,-35.48877 38.81258,-71.62559 56.02467,-108.5447 5.52848,-12.21606 11.20853,-24.36465 16.58543,-36.64819 22.47419,-51.34239 42.2788,-103.87549 59.2053,-157.30229 5.44946,-17.39157 8.47825,-26.57393 13.30917,-43.73002 10.20321,-36.23471 -0.58541,0.85575 6.70576,-25.42412 1.36355,-4.91472 1.58959,-5.33532 3.10095,-9.4818 19.36266,-49.37193 -50.45979,-76.754858 -69.82245,-27.38293 z"/>
<path d="m 602.5655,247.09474 c 1.96205,3.79737 2.09815,4.12506 5.17346,9.34032 5.68218,9.63611 9.0239,14.67549 15.01499,24.48855 6.93407,11.35761 13.74235,22.79154 20.61372,34.18719 27.39238,45.29683 54.7864,90.59253 82.18852,135.88355 16.32626,26.53553 31.08338,53.9807 46.49346,81.04566 7.31964,12.8556 12.59603,21.84239 19.98835,34.52991 2.98816,5.08652 5.93091,10.19999 8.96447,15.25957 6.9631,11.61354 10.77197,17.73318 18.40075,28.92404 9.23879,13.55263 19.11926,26.61977 29.07123,39.64957 10.84706,13.85792 22.3147,27.18965 34.91002,39.49514 8.15861,7.97086 18.15788,16.72408 26.71716,24.35428 39.60107,35.27401 89.48605,-20.73035 49.88499,-56.00437 v 0 c -11.20989,-9.97623 -22.67146,-19.77635 -32.88971,-30.79883 -3.3099,-3.57041 -6.45151,-7.29446 -9.58856,-11.01765 -3.2102,-3.81002 -6.30054,-7.71943 -9.45081,-11.57915 -8.93807,-11.67976 -17.81458,-23.39373 -26.13501,-35.52768 -6.8052,-9.92422 -9.97833,-15.02087 -16.25376,-25.48573 -2.98795,-4.98269 -5.88602,-10.01873 -8.82903,-15.0281 -7.05291,-12.10337 -12.48864,-21.36498 -19.45546,-33.60014 -15.79184,-27.73373 -30.92587,-55.85068 -47.6588,-83.04052 -27.38284,-45.25896 -54.75749,-90.52266 -82.13049,-135.78748 -7.02659,-11.65306 -13.99364,-23.34227 -21.08401,-34.95662 -7.16042,-11.72909 -14.57866,-23.29729 -21.16671,-35.36596 -29.01573,-44.39129 -91.7945,-3.35685 -62.77877,41.03445 z"/>
<path d="m 543.51166,573.90138 c 22.1264,-7.52704 45.24885,-11.68406 68.15413,-16.05211 26.30202,-4.49134 52.77377,-8.76603 79.49587,-9.60105 13.95775,-0.43616 16.0184,0.008 29.241,0.91464 13.30677,1.83508 7.10579,0.74963 18.62995,3.09818 52.05836,10.12066 66.37114,-63.50097 14.31279,-73.62163 v 0 c -17.82601,-3.35964 -8.41078,-1.85814 -28.2728,-4.33102 -17.59465,-1.01883 -20.33903,-1.57128 -38.49844,-0.91974 -29.90664,1.07302 -59.55098,5.69167 -88.9883,10.7941 -27.91823,5.34715 -56.14335,10.50963 -82.86546,20.46501 -48.9697,20.3585 -20.17844,89.61212 28.79126,69.25362 z"/>
<path d="m 451.02046,678.61101 c 7.10623,20.66872 12.20406,41.92279 16.80388,63.2637 6.00406,30.40735 9.63541,61.20819 13.80536,91.90221 0.4602,3.21369 0.92041,6.42739 1.38062,9.64109 7.52311,52.49669 81.76464,41.85741 74.24153,-10.63929 v 0 c -0.43496,-3.03286 -0.86993,-6.06573 -1.3049,-9.0986 -4.43372,-32.63302 -8.31686,-65.37791 -14.82284,-97.68447 -1.30182,-5.98286 -2.5187,-11.98484 -3.90544,-17.94859 -4.09755,-17.62176 -9.06385,-35.04765 -14.74346,-52.22243 -16.11241,-50.52614 -87.56715,-27.73976 -71.45475,22.78638 z"/>
<path d="m 523.62653,711.71269 c 1.24319,-1.05286 3.61141,-3.11644 4.91229,-3.95288 1.52935,-0.98335 7.68666,-3.64641 8.25105,-3.87069 8.82678,-3.50758 11.68814,-4.09544 21.56035,-7.06871 32.13446,-8.72602 65.22126,-13.45244 98.34056,-16.45014 6.92266,-0.62659 13.86111,-1.06425 20.79166,-1.59638 21.23728,-1.25993 42.5377,-2.20364 63.80114,-1.01954 7.76984,0.43268 9.88557,0.74039 17.17111,1.51845 3.96656,0.65205 8.07914,0.81674 11.97863,1.88828 0.0917,0.0252 -0.18892,0.0838 -0.27972,0.0556 -1.4524,-0.45057 -3.00733,-0.70478 -4.31498,-1.48101 -3.35429,-1.99113 -6.37126,-4.50228 -9.55689,-6.75341 -12.65612,-1.73002 -5.25493,-12.72215 -9.15675,-18.32666 -0.59855,-0.85975 -0.20791,2.0849 -0.29877,3.12854 -0.23841,2.73822 -0.44967,5.47877 -0.68903,8.2169 -1.22663,14.03187 -1.04756,11.70567 -2.58415,26.87743 -2.55992,23.83295 -6.0454,47.60295 -11.54006,70.95206 -3.29453,13.99985 -5.01691,19.0861 -9.06293,32.67446 -3.64939,12.18923 -8.09775,24.09742 -12.76328,35.92382 -19.37042,49.36888 50.44773,76.76279 69.81815,27.3939 v 0 c 5.40837,-13.84549 10.62026,-27.76575 14.8594,-42.026 4.79142,-16.26253 6.61298,-21.60693 10.51846,-38.41395 6.04084,-25.99636 9.95112,-52.4379 12.78975,-78.95891 1.29286,-12.80498 2.7372,-25.63766 3.53867,-38.48765 0.40488,-6.49159 0.97727,-16.28291 -1.11794,-22.28204 -2.16962,-6.21213 -6.1018,-11.66017 -9.15269,-17.49025 -4.04247,-3.18116 -7.79034,-6.77741 -12.12741,-9.54348 -2.49199,-1.58934 -5.39913,-2.42271 -8.18466,-3.41106 -7.96621,-2.82658 -16.63008,-3.24117 -24.89887,-4.5325 -9.31818,-0.95306 -12.25456,-1.35915 -22.06528,-1.8672 -24.15603,-1.25091 -48.34916,-0.31391 -72.47168,1.18801 -7.59724,0.59274 -15.2033,1.08152 -22.79172,1.77821 -37.96469,3.48551 -75.86249,9.11606 -112.63425,19.36941 -5.84955,1.83182 -11.76245,3.47239 -17.54863,5.49545 -15.95055,5.57687 -31.49309,12.95676 -44.14868,24.34101 -40.11481,34.68864 8.94234,91.41955 49.05715,56.73091 z"/>
<path d="m 537.56846,869.28824 c 18.43852,-3.26404 37.10394,-5.15955 55.72216,-7.0726 35.10314,-3.56338 70.38753,-2.06029 105.58652,-2.16446 7.86572,-0.0233 15.72992,-0.22466 23.59487,-0.33699 53.02726,-0.78101 51.92274,-75.77287 -1.10451,-74.99186 v 0 c -7.27258,0.11062 -14.54435,0.3107 -21.81773,0.33187 -56.20312,0.16355 11.8705,-0.61824 -46.31467,-0.33646 -22.56974,0.10929 -45.15203,0.82447 -67.63534,2.89327 -22.12629,2.28789 -44.36894,4.44371 -66.18302,8.90694 -51.45636,12.8352 -33.30464,85.60549 18.15172,72.77029 z"/>
</svg>
