<?xml version="1.0" ?>
<svg xmlns="http://www.w3.org/2000/svg" width="1000" height="1000">
<path d="m 143.71806,305.17511 c 19.79114,-7.77737 41.02134,-10.89473 61.89352,-14.23246 28.93982,-4.14894 58.07428,-7.00287 87.31042,-7.74522 15.03638,-0.38179 19.23918,-0.11468 33.65259,0.239 15.07013,0.89824 8.06181,0.33746 21.03344,1.57289 52.80659,4.89539 59.72971,-69.78439 6.92313,-74.67978 v 0 c -16.42803,-1.49064 -7.69387,-0.83132 -26.2102,-1.87278 -16.57737,-0.36822 -21.32713,-0.66226 -38.555,-0.19289 -32.18611,0.8769 -64.2643,4.02007 -96.11957,8.63937 -7.44358,1.2138 -14.91289,2.27918 -22.33074,3.6414 -20.81017,3.8216 -41.71664,8.8165 -61.0785,17.51841 -47.455395,23.67458 -13.974484,90.78664 33.48091,67.11206 z"/>
<path d="m 222.7629,152.62655 c 5.16744,24.11919 7.44755,48.70906 9.78059,73.22349 5.92638,69.94558 7.03978,140.17139 7.73302,210.32594 0.43263,79.78805 -0.60162,159.58075 -3.35102,239.32165 -1.72609,49.24512 -5.69505,98.3855 -12.55956,147.17891 -1.69784,10.13304 -2.9676,20.37506 -5.24919,30.40575 -0.24716,1.08658 -1.2975,4.26316 -0.93172,3.21056 5.21099,-14.99556 -2.91496,-1.81293 23.46702,-23.12316 5.89563,0.0545 11.80838,0.61571 17.6869,0.16356 0.52722,-0.0406 -0.19498,-1.1082 -0.57094,-1.48004 -2.48594,-2.45866 -5.30727,-4.5545 -7.90112,-6.89904 -3.7254,-3.36733 -7.35207,-6.84245 -11.05467,-10.23483 -17.98422,-16.47737 -11.30848,-10.49533 -31.5697,-27.33334 -40.84591,-33.82472 -88.68129,23.94012 -47.83538,57.76484 v 0 c 4.94487,4.07779 9.98691,8.04053 14.83462,12.23337 11.37115,9.83505 15.66281,14.65397 26.84413,24.5385 5.06191,4.47483 20.24147,17.71289 26.61444,19.86692 9.00858,3.04484 18.74377,3.22073 28.11566,4.8311 9.45378,-6.30307 19.99208,-11.22429 28.36134,-18.90922 3.28165,-3.01332 3.93719,-8.00964 5.49881,-12.18226 0.95211,-2.54405 1.42084,-5.24547 2.01552,-7.89596 2.5583,-11.40223 4.04823,-23.02632 5.94789,-34.54372 7.18281,-51.39651 11.4539,-103.14216 13.24157,-155.01216 2.77771,-80.84876 3.84226,-161.7493 3.39171,-242.64571 -0.72046,-72.29043 -1.90431,-144.65372 -8.07022,-216.72433 -2.74394,-28.54288 -5.45971,-57.21097 -11.91962,-85.2077 -13.52474,-51.279445 -86.04483,-32.15256 -72.52008,19.12688 z"/>
<path d="m 144.02131,717.16399 c 14.68457,-28.45043 34.18323,-54.22005 54.7921,-78.60509 8.61252,-10.19059 17.6674,-19.99893 26.50109,-29.99839 30.45899,-33.2686 63.66742,-63.85219 98.12347,-92.91036 11.0719,-9.33738 22.43774,-18.32055 33.6566,-27.48083 41.06475,-33.5587 -6.39443,-91.63302 -47.45917,-58.07432 v 0 c -11.8184,9.66611 -23.79558,19.14128 -35.45519,28.99834 -36.93685,31.22647 -72.49847,64.12366 -105.12795,99.87322 -9.6091,10.92311 -19.46998,21.62978 -28.8273,32.76934 -24.2489,28.86744 -46.946335,59.50591 -63.956173,93.26296 -22.74418,47.90827 45.008343,80.0734 67.752523,32.16513 z"/>
<path d="m 509.83565,268.26587 c 17.23677,-3.52019 34.593,-6.54067 52.06889,-8.60829 5.9092,-0.69913 11.83833,-1.21811 17.7575,-1.82716 23.63972,-1.78394 47.50146,-2.2848 71.07447,0.67127 11.01643,1.38146 14.9006,2.46127 25.38814,4.75757 3.16268,0.83546 6.32536,1.67093 9.48805,2.50639 51.32402,13.35457 70.21023,-59.22856 18.88621,-72.58313 v 0 c -4.2343,-1.08924 -8.4686,-2.17847 -12.7029,-3.26771 -14.48279,-3.03815 -19.0941,-4.31982 -34.29548,-6.10749 -28.40904,-3.34087 -57.12788,-2.85445 -85.59403,-0.57483 -6.70693,0.70361 -13.42504,1.30776 -20.12079,2.11083 -19.20056,2.30287 -38.27233,5.62186 -57.21383,9.49219 -51.92311,10.79312 -36.65933,84.22348 15.26377,73.43036 z"/>
<path d="m 560.40657,135.00705 c 1.14198,26.57026 0.61119,53.18522 0.20792,79.76659 -0.57931,39.75936 -4.24238,79.35094 -8.51338,118.85236 -5.6925,52.72661 68.87419,60.77702 74.56669,8.05041 v 0 c 4.50653,-41.80069 8.33264,-83.69941 8.93815,-125.7708 0.44965,-29.93513 1.22175,-59.95929 -0.73603,-89.85448 -6.33278,-52.653543 -80.79614,-43.697628 -74.46335,8.95592 z"/>
<path d="m 417.49089,440.77555 c 21.76467,-8.52806 44.7007,-13.89514 67.65696,-18.08287 8.26937,-1.50851 16.59412,-2.69577 24.89118,-4.04366 52.34475,-7.37528 105.35736,-8.69119 158.12331,-6.52124 10.73455,0.44145 21.45248,1.2218 32.17871,1.8327 43.87924,3.34041 87.70302,8.69159 130.69655,18.212 2.77993,0.68897 5.55986,1.37793 8.33978,2.0669 51.4931,12.68704 69.43528,-60.13519 17.94219,-72.82223 v 0 c -3.38985,-0.83117 -6.7797,-1.66233 -10.16955,-2.49349 -4.61233,-1.00886 -9.20873,-2.09359 -13.83701,-3.02659 -42.45598,-8.55856 -85.59933,-13.48965 -128.74891,-16.8176 -11.4979,-0.64247 -22.9871,-1.46653 -34.49371,-1.92741 -57.45926,-2.30148 -115.1767,-0.68557 -172.15287,7.48298 -9.31913,1.53717 -18.67005,2.89264 -27.95738,4.61152 -27.71218,5.12889 -55.31448,11.88707 -81.51827,22.3831 -48.89353,20.54076 -19.84451,89.68665 29.04902,69.14589 z"/>
<path d="m 453.48226,587.70811 c 20.15639,-7.25115 41.44222,-10.52541 62.50115,-13.92237 43.78256,-6.06084 88.00278,-8.45788 132.16923,-9.2921 9.63562,-0.182 19.27391,-0.1728 28.91086,-0.2592 40.2013,0.23844 80.39754,1.37594 120.55257,3.29122 52.9732,2.51778 56.53387,-72.39765 3.56066,-74.91543 v 0 c -41.57164,-1.96921 -83.18481,-3.16556 -124.80441,-3.3726 -10.12851,0.0958 -20.25845,0.0915 -30.38552,0.28728 -47.47324,0.91784 -94.99926,3.58995 -142.04265,10.23343 -25.90726,4.24343 -52.02074,8.55153 -76.74444,17.70571 -49.67005,18.58457 -23.3875,88.82863 26.28255,70.24406 z"/>
<path d="m 668.14543,449.47606 c 4.23719,21.95958 8.60273,43.89063 12.54245,65.90805 6.63795,37.82132 9.46905,76.25845 8.00339,114.6428 -0.31341,8.20792 -1.03054,16.39544 -1.54582,24.59315 -4.13107,40.5559 -9.45058,81.19141 -19.36972,120.79529 -1.69121,6.75246 -3.69092,13.42388 -5.53638,20.13582 -1.94745,6.16549 -3.81868,12.35558 -5.84237,18.49647 -2.76236,8.38241 -7.88589,22.78053 -11.009,31.30124 -3.76383,10.26877 -7.66733,20.23948 -12.24154,30.16496 -2.26249,-0.53863 -1.85867,5.94684 -4.4131,6.43161 -0.45264,0.0859 0.10079,-0.95714 0.36846,-1.33211 0.65203,-0.91338 1.39469,-1.806 2.32245,-2.43739 4.0559,-2.76028 5.61485,-2.92182 9.93703,-4.22013 -0.76742,-0.64596 -1.44311,-1.42014 -2.30226,-1.93788 -3.03522,-1.82907 -6.24377,-3.3543 -9.34006,-5.07796 -4.98717,-2.7763 -9.97416,-5.55422 -14.90958,-8.42151 -16.42329,-9.54128 -18.90457,-11.27509 -34.91852,-21.29544 -44.97071,-28.10935 -84.72334,35.48883 -39.75264,63.59818 v 0 c 16.86988,10.53431 20.56671,13.03915 37.86719,23.04608 7.07893,4.09459 25.67899,14.64264 33.52902,17.91739 6.06603,2.53053 12.44804,4.22465 18.67207,6.33698 6.63831,0.33213 13.30583,1.70155 19.91494,0.99639 15.63456,-1.66812 28.86793,-10.72009 38.76277,-22.37447 5.88134,-6.92718 8.27575,-12.29836 12.5221,-20.15579 1.6237,-3.59825 3.32807,-7.16118 4.8711,-10.79475 3.09035,-7.27727 7.02132,-17.78553 9.69267,-25.08344 6.69688,-18.29526 13.1058,-36.70736 18.61951,-55.39879 2.11003,-7.77117 4.39295,-15.49744 6.3301,-23.31349 10.79534,-43.55725 16.73043,-88.20668 21.08649,-132.80865 0.55988,-9.41978 1.34633,-18.82882 1.67966,-28.25933 1.52401,-43.11602 -1.73419,-86.28832 -9.17295,-128.76896 -3.89564,-21.72704 -8.14093,-43.38309 -12.3924,-65.04108 -8.73755,-52.30827 -82.71261,-39.95151 -73.97506,12.35676 z"/>
<path d="m 478.12133,690.8475 c 13.35287,10.14117 26.966,19.92356 40.02926,30.43908 2.67291,2.29317 5.34581,4.58635 8.01871,6.87952 40.31041,34.46115 89.04584,-22.54638 48.73543,-57.00753 v 0 c -3.27813,-2.79433 -6.55627,-5.58867 -9.8344,-8.383 -3.49018,-2.79004 -6.93957,-5.6319 -10.47055,-8.37013 -10.37652,-8.04687 -21.18285,-15.53576 -31.54295,-23.60625 -42.46057,-31.7742 -87.39607,28.27411 -44.9355,60.04831 z"/>
</svg>
