<?xml version="1.0" ?>
<svg xmlns="http://www.w3.org/2000/svg" viewBox="0 0 1000 1000">
<path d="m 120.94676,290.5043 c 26.78509,-4.43044 53.80974,-7.41763 80.78637,-10.43095 43.29219,-4.03472 86.60748,-8.51 130.06045,-10.47506 7.44108,-0.33651 14.89096,-0.43703 22.33644,-0.65554 7.07084,0.11333 14.14168,0.22667 21.21252,0.34001 53.02759,0.75774 54.09921,-74.23461 1.07161,-74.99235 v 0 c -8.17967,-0.10459 -16.35933,-0.20917 -24.539,-0.31376 -8.18187,0.25153 -16.36838,0.3815 -24.54561,0.7546 -44.74598,2.04163 -89.3522,6.62786 -133.93157,10.80671 -29.1003,3.25778 -58.26126,6.45844 -87.12837,11.41648 -52.007602,10.37833 -37.330438,83.92818 14.67716,73.54986 z"/>
<path d="m 243.50094,104.8496 c 1.72881,35.14648 3.53892,70.2902 5.03346,105.44799 2.1153,50.99571 1.66679,102.03807 1.55851,153.06125 -0.0994,46.8459 -0.0384,43.72718 0.1524,91.05387 0.309,88.32495 0.49599,176.65108 0.51904,264.97666 -0.31095,41.76345 -0.33789,83.57199 -2.95605,125.27329 -1.10966,17.67434 -1.56789,20.35555 -3.35368,36.85557 -1.00213,7.05618 -1.75084,13.84506 -3.39182,20.75756 -0.32526,1.37013 -0.64063,2.77772 -1.31134,4.01594 -0.29885,0.5517 -0.14772,-1.32506 0.15226,-1.87615 1.53515,-2.82022 2.78522,-6.02486 5.26134,-8.06916 4.28604,-3.5386 9.66323,-5.49449 14.49485,-8.24173 2.61028,-0.33493 5.51504,0.24532 7.83086,-1.00479 0.94901,-0.51229 -1.78568,-1.21295 -2.71785,-1.75529 -20.24808,-11.78035 6.04072,4.12436 -20.2353,-11.84164 -15.92955,-9.67922 -14.87889,-9.10557 -31.18665,-19.34339 -4.99881,-3.29937 -9.99761,-6.59873 -14.99642,-9.8981 -44.27648,-29.19063 -85.55826,33.42577 -41.28178,62.6164 v 0 c 5.46967,3.6023 10.93935,7.20459 16.40902,10.80689 14.37176,9.01747 18.33485,11.59345 32.53438,20.16956 4.91685,2.96964 9.79856,6.00205 14.80394,8.81992 7.04902,3.96838 20.91051,11.51185 29.00448,13.31534 6.94716,1.54795 14.15623,1.49586 21.23434,2.24379 7.91491,-3.22137 16.61667,-4.95095 23.74472,-9.66411 5.05155,-3.34015 8.43066,-8.78507 11.78395,-13.82791 2.38869,-3.59221 3.7993,-7.76459 5.27079,-11.81978 4.34286,-11.96828 5.16513,-24.96865 7.16917,-37.41105 1.96437,-18.48868 2.46825,-21.47665 3.68531,-41.0655 2.66964,-42.9684 2.75065,-86.04347 3.05148,-129.07536 -0.0234,-88.42001 -0.21012,-176.84058 -0.51965,-265.25996 -0.19059,-47.06622 -0.25079,-43.84645 -0.15226,-90.48544 0.11023,-52.17508 0.54763,-104.36954 -1.62588,-156.51604 -1.51388,-35.52406 -3.33619,-71.03433 -5.08831,-106.5469 -3.03226,-52.946247 -77.90957,-48.657982 -74.87731,4.28827 z"/>
<path d="m 126.08417,755.66088 c 18.56822,-25.29046 39.47708,-48.7604 61.48178,-71.09936 9.08681,-9.22485 18.47522,-18.1477 27.71283,-27.22155 44.37248,-41.99557 91.41809,-81.09472 140.32603,-117.68835 11.87155,-8.88247 23.97744,-17.44736 35.96616,-26.17104 42.87296,-31.21554 -1.27249,-91.84705 -44.14544,-60.63151 v 0 c -12.50969,9.11347 -25.14242,18.0604 -37.52908,27.34041 -51.32012,38.44874 -100.67504,79.53861 -147.20824,123.67871 -9.87232,9.72115 -19.90876,19.27838 -29.61695,29.16344 -23.69386,24.12554 -46.205115,49.47608 -66.283773,76.70645 -32.472324,41.92908 26.824356,87.85188 59.296683,45.9228 z"/>
<path d="m 453.71276,207.59924 c 0.97899,23.46015 2.63737,46.89821 4.55264,70.30023 4.84131,47.37487 14.52639,94.07047 23.61951,140.76417 3.1727,16.33633 6.51508,32.63843 9.90612,48.9305 10.80871,51.91986 84.23448,36.63404 73.42577,-15.28582 v 0 c -3.32651,-15.97583 -6.60339,-31.96188 -9.7149,-47.9813 -8.56664,-43.98733 -17.73988,-87.96553 -22.48849,-132.57049 -1.76344,-21.36249 -3.18063,-42.75189 -4.30065,-64.15729 0,-53.03301 -75,-53.03301 -75,0 z"/>
<path d="m 597.60392,260.10261 c 19.47812,-6.29007 39.66379,-9.94019 59.77499,-13.51153 33.50134,-5.13118 67.39893,-7.54472 101.28821,-7.29376 5.56364,0.0412 11.12434,0.26915 16.68651,0.40372 17.82319,1.03745 35.94633,2.23415 53.10323,7.54062 1.57041,-0.0105 8.73245,4.5052 2.88743,0.90859 -7.71123,-5.43889 -9.54506,-10.63453 -13.01021,-19.03975 -0.28006,-0.67934 -0.35506,-2.81952 -0.59115,-2.12367 -0.44271,1.30482 -0.0448,2.75553 -0.0905,4.13265 -0.0982,2.96453 -0.22729,5.92795 -0.34093,8.89192 -2.16383,40.32339 -8.91997,80.2063 -15.45363,119.99781 -2.90944,16.44037 -5.37251,31.75777 -9.1808,47.99471 -1.6728,7.13211 -3.74669,14.16415 -5.62004,21.24622 -13.43952,51.30185 59.11225,70.30819 72.55177,19.00635 v 0 c 2.17438,-8.36907 4.5633,-16.68532 6.52314,-25.10721 4.03718,-17.34876 6.63561,-33.45256 9.73593,-50.99429 7.04018,-42.92127 14.22858,-85.95408 16.39558,-129.45933 0.18334,-5.4154 0.6676,-14.96766 0.31415,-20.68544 -0.1938,-3.13499 -0.24124,-6.33271 -1.0725,-9.36169 -3.0809,-11.22638 -7.0859,-18.35538 -16.30266,-25.3379 -8.00414,-5.33126 -16.38542,-9.28685 -25.64607,-12.03986 -2.56,-0.73071 -5.10059,-1.53319 -7.67999,-2.19215 -21.15743,-5.40509 -43.04535,-7.3052 -64.79159,-8.3576 -6.34622,-0.14038 -12.691,-0.3847 -19.03867,-0.42113 -38.10463,-0.2187 -76.21608,2.57801 -113.86652,8.4618 -25.64673,4.61221 -51.56372,9.24174 -76.0638,18.38113 -48.76194,20.85122 -19.27386,89.81101 29.48808,68.95979 z"/>
<path d="m 553.75255,376.72945 c 0.71445,-0.22944 1.41693,-0.50022 2.14336,-0.68833 2.19251,-0.56774 11.40705,-2.33585 11.4731,-2.34813 15.80557,-2.93887 31.66599,-5.13732 47.60354,-7.2228 27.55758,-3.21723 55.2551,-5.28641 83.00198,-5.68718 13.05974,-0.18863 21.91643,0.0385 34.78453,0.23998 4.37822,0.12019 8.75644,0.24039 13.13466,0.36058 53.01333,1.44459 55.05628,-73.52759 2.04295,-74.97217 v 0 c -4.67595,-0.12653 -9.3519,-0.25306 -14.02786,-0.37959 -14.28601,-0.21472 -23.45434,-0.45205 -38.03201,-0.21945 -30.31305,0.48365 -60.57354,2.74313 -90.67674,6.29723 -17.92974,2.36563 -21.08494,2.61894 -38.36625,5.4971 -11.50069,1.91542 -23.0397,3.97804 -34.27063,7.15622 -1.34647,0.38103 -2.65717,0.87868 -3.98576,1.31802 -49.95604,17.80151 -24.78092,88.45002 25.17513,70.64852 z"/>
<path d="m 547.10842,495.11798 c 19.5645,-1.8094 39.14256,-3.46475 58.72507,-5.06887 40.09806,-2.69855 80.11546,-6.76513 120.25794,-8.80657 7.99203,-0.40643 15.99311,-0.60931 23.98966,-0.91397 20.46795,-0.56917 40.93255,0.081 61.38698,0.74165 53.00582,1.69797 55.40711,-73.26357 2.40129,-74.96155 v 0 c -22.2179,-0.70616 -44.44721,-1.38285 -66.6786,-0.72438 -8.60719,0.33569 -17.21907,0.56707 -25.82156,1.00706 -40.60991,2.0771 -81.09505,6.16659 -121.6599,8.90822 -21.07189,1.7267 -42.15059,3.42572 -63.18479,5.56896 -52.50229,7.48395 -41.91838,81.7334 10.58391,74.24945 z"/>
<path d="m 625.05281,78.760219 c 0.009,32.382151 0.0155,64.764141 -0.0778,97.146171 -0.43131,58.49208 0.17259,117.01717 -1.87288,175.48685 -0.4618,13.20068 -1.18621,26.39086 -1.77931,39.58628 -2.06024,38.57701 -5.17511,77.09571 -9.62321,115.47237 -1.36917,11.81271 -2.99228,23.59461 -4.48841,35.39191 -6.65993,52.61317 67.74632,62.03174 74.40625,9.41857 v 0 c 1.5568,-12.32074 3.24653,-24.62542 4.67039,-36.96223 4.6018,-39.87151 7.83091,-79.8891 9.95997,-119.96719 0.6105,-13.69653 1.3549,-27.38775 1.8315,-41.0896 2.05275,-59.01472 1.47011,-118.0842 1.89539,-177.12142 0.0931,-32.45388 0.0873,-64.90771 0.0781,-97.361711 0,-53.033008 -75,-53.033008 -75,0 z"/>
<path d="m 512.86181,635.36437 c 24.02228,-4.63399 48.12486,-8.78107 72.29818,-12.54179 37.44564,-5.54735 74.9786,-10.64987 112.69177,-14.01492 6.87573,-0.61351 13.7627,-1.09377 20.64405,-1.64066 22.34875,-1.34217 44.94119,-2.18488 67.15465,1.18574 0.77659,0.16985 3.36306,0.68753 4.37646,1.04519 0.1804,0.0637 -0.39438,0.008 -0.56987,-0.0682 -2.5663,-1.1139 -5.63972,-1.52775 -7.63199,-3.49181 -5.54212,-5.46363 -11.45026,-11.1446 -14.48429,-18.31125 -2.45038,-5.78805 -0.82235,-12.54382 -1.23352,-18.81573 0.0834,-0.52942 0.52781,-2.04671 0.25024,-1.58824 -0.8151,1.34632 -1.2504,2.8889 -1.90438,4.32043 -0.96532,2.11304 -1.91603,4.23393 -2.9532,6.31264 -5.17201,10.36577 -11.22709,20.25966 -17.13005,30.21477 -20.09321,31.34877 -42.58679,61.22882 -67.06577,89.2935 -6.0593,6.94688 -12.38499,13.65683 -18.57748,20.48524 -19.98231,21.4082 -41.40903,41.39098 -63.80198,60.24727 -15.29096,12.87595 -28.9848,23.76537 -45.29912,35.26364 -7.20184,5.07583 -14.6632,9.77308 -21.9948,14.65962 -20.47032,12.12314 -22.15462,13.62989 -43.16519,24.10518 -11.38707,5.67729 -25.23838,12.16233 -37.45214,16.22523 -5.4068,1.79857 -11.00091,2.9754 -16.50136,4.4631 -51.03452,14.42143 -30.63954,86.59514 20.39498,72.17371 v 0 c 7.89918,-2.29879 15.91661,-4.2245 23.69752,-6.89637 7.5108,-2.57911 14.8485,-5.65478 22.12384,-8.8381 25.1735,-11.01466 49.30427,-24.39031 72.60898,-38.89851 8.35521,-5.6092 16.85527,-11.00845 25.06564,-16.8276 17.66868,-12.52279 33.27877,-24.92584 49.81928,-38.90784 24.60972,-20.80307 48.15168,-42.8478 70.1133,-66.44394 6.83367,-7.56535 13.81063,-15.00368 20.50101,-22.69603 27.09254,-31.15002 51.95589,-64.33193 74.06567,-99.19067 11.21253,-18.9543 22.76911,-37.99211 29.88166,-58.95395 -0.0535,-7.67542 2.39265,-15.78768 -0.16039,-23.02626 -7.65429,-21.70206 -23.26174,-26.67078 -42.26524,-30.08674 -7.92019,-1.10703 -9.72088,-1.47476 -18.15998,-2.10609 -21.85755,-1.63516 -43.8175,-1.06579 -65.6674,0.38962 -7.34165,0.58789 -14.68921,1.10606 -22.02494,1.76368 -39.11731,3.50673 -78.05117,8.78342 -116.89124,14.54827 -24.21253,3.77722 -48.37391,7.85238 -72.42448,12.56157 -52.3869,8.25305 -40.71532,82.33932 11.67158,74.08627 z"/>
<path d="m 525.28802,741.27146 c 12.51648,6.6502 24.84287,13.64732 36.58653,21.60013 4.15343,2.8127 8.21648,5.75661 12.32472,8.63491 29.31654,21.66737 56.26371,46.29068 83.52659,70.42991 20.3077,17.99719 40.27821,36.36878 61.36727,53.45618 11.55224,8.98152 23.70804,17.48792 37.27456,23.16989 2.93666,1.22994 5.96084,2.2395 8.94127,3.35926 23.26579,7.1483 47.19537,11.90999 70.98103,16.96693 25.11739,5.24993 50.04379,11.33697 74.95953,17.45634 51.50294,12.64703 69.38854,-60.18912 17.8856,-72.83615 v 0 c -25.67676,-6.30408 -51.36604,-12.56831 -77.24951,-17.98079 -20.42576,-4.34195 -40.92111,-8.51909 -61.04594,-14.12713 -2.605,-0.85217 -3.98508,-1.20452 -6.40914,-2.3505 -6.5717,-3.10678 -12.40086,-7.62276 -18.17074,-11.97 -20.2526,-16.34847 -39.28991,-34.10009 -58.81544,-51.29626 -29.41645,-26.04597 -58.53373,-52.57223 -90.30624,-75.76959 -4.84401,-3.37291 -9.63125,-6.82883 -14.53202,-10.11872 -14.39148,-9.66102 -29.46244,-18.24987 -44.84095,-26.22794 -47.80291,-22.96479 -80.28003,44.63874 -32.47712,67.60353 z"/>
</svg>
