<?xml version="1.0" ?>
<svg xmlns="http://www.w3.org/2000/svg" width="1000" height="1000">
<path d="m 116.00067,339.51245 c 21.15466,-2.5478 42.31036,-5.21404 63.53223,-7.15658 8.00582,-0.73281 16.02529,-1.3081 24.03793,-1.96216 34.70685,-2.33145 69.44676,-4.55083 104.22859,-5.39383 19.18628,-0.46502 23.61184,-0.29329 42.07514,-0.14862 5.27804,0.11948 10.55607,0.23896 15.83411,0.35843 53.01974,1.18612 54.69717,-73.79512 1.67743,-74.98124 v 0 c -5.65199,-0.12504 -11.30398,-0.25008 -16.95597,-0.37513 -19.99005,-0.14017 -24.4809,-0.31888 -45.20498,0.19075 -35.96754,0.88449 -71.89238,3.17022 -107.78159,5.60035 -8.53411,0.7023 -17.07529,1.32347 -25.60234,2.10691 -22.60275,2.07666 -45.14544,4.87778 -67.66406,7.69895 -52.36986,8.36048 -40.546355,82.42265 11.82351,74.06217 z"/>
<path d="m 210.70956,156.79141 c 0.31738,28.20766 2.02325,56.36755 3.69805,84.51916 0.55995,9.24559 1.16232,18.48872 1.67985,27.73678 1.87377,33.4838 3.07013,66.97363 3.57646,100.50731 0.49598,32.84881 0.32441,45.67553 0.25654,78.80849 -0.63398,81.16738 -2.97619,162.30846 -5.04807,243.44836 -1.24921,54.55261 -1.88286,109.11659 -2.94412,163.67284 -0.51418,12.52985 -0.35815,25.16569 -2.09832,37.61895 -0.25469,1.82266 -0.55058,3.65275 -1.08857,5.41273 -0.0619,0.20243 -0.67014,0.36372 -0.61472,0.15942 0.51856,-1.91165 1.3875,-3.71053 2.08126,-5.56579 13.34711,-13.86641 1.60369,-3.75668 17.03038,-12.16415 0.31279,-0.17047 0.42749,-0.89783 0.11177,-1.06281 -2.21786,-1.15897 -4.72164,-1.66214 -7.05527,-2.56562 -12.16314,-4.70904 -12.61203,-5.11594 -25.32882,-10.78351 -21.49026,-10.29857 -10.52513,-4.89769 -32.87677,-16.24036 -47.30457,-23.97452 -81.209663,42.92424 -33.90509,66.89877 v 0 c 24.55117,12.42814 12.41455,6.46803 36.39519,17.91017 11.56542,5.10115 20.72849,9.43475 32.63227,13.57434 18.12511,6.30307 37.20054,10.92712 55.87498,2.58751 6.5126,-2.90838 11.33368,-8.66245 17.00052,-12.99367 2.87474,-4.74707 6.26163,-9.21956 8.62422,-14.24121 3.11254,-6.61565 4.80962,-16.30448 5.75475,-23.54668 1.88303,-14.4289 1.94901,-29.0261 2.44804,-43.54001 1.05746,-54.40413 1.69255,-108.81588 2.93386,-163.21644 2.0869,-81.72808 4.44461,-163.45744 5.07236,-245.21334 0.0658,-33.90426 0.24005,-46.95399 -0.27438,-80.60046 -0.52745,-34.49822 -1.76807,-68.95192 -3.69565,-103.39888 -0.51606,-9.22244 -1.11682,-18.43994 -1.67523,-27.65991 -1.5888,-26.66798 -3.22255,-53.34154 -3.56549,-80.06199 0,-53.03301 -75,-53.03301 -75,0 z"/>
<path d="m 119.24862,742.418 c -0.0365,0.58986 -0.49697,2.21581 -0.10951,1.76957 1.76653,-2.03454 2.90045,-4.54339 4.43873,-6.75556 3.23439,-4.65134 6.45793,-9.31418 9.8769,-13.83157 5.12787,-6.7753 10.35068,-13.48256 15.75701,-20.0378 19.84519,-24.06252 26.73524,-30.86095 48.71569,-54.78614 40.98524,-42.90251 84.05974,-84.05747 131.44248,-119.90007 11.0186,-8.335 22.50344,-16.03502 33.75516,-24.05252 43.14784,-30.83446 -0.45866,-91.85472 -43.60651,-61.02027 v 0 c -12.34792,8.84735 -24.94834,17.35252 -37.04377,26.54205 -50.35,38.25353 -96.23403,82.00895 -139.80844,127.72368 -9.59953,10.47365 -19.37613,20.78772 -28.79859,31.42095 -14.755324,16.65135 -28.316936,32.98415 -41.602134,50.74086 -5.37255,7.18083 -15.567982,21.61801 -20.187585,30.37343 -1.983963,3.76016 -3.387771,7.79889 -5.081656,11.69833 -14.223501,51.09004 58.028725,71.2051 72.252225,20.11506 z"/>
<path d="m 469.13107,231.92604 c 6.20577,-1.15149 4.43093,-0.81187 12.98956,-2.48018 12.67768,-2.47121 17.92278,-3.60051 31.43248,-5.88252 20.53436,-3.46858 27.28476,-4.26949 48.55427,-7.28174 48.0314,-6.73074 96.4593,-10.26917 144.92665,-11.65827 8.48802,-0.24327 16.98011,-0.31356 25.47016,-0.47034 28.02441,-0.0388 56.20997,-0.11217 83.99226,4.01246 3.73699,0.72389 3.74736,0.64153 6.84919,1.47727 0.57614,0.15523 2.27001,0.73566 1.69625,0.57185 -0.48129,-0.13741 -0.98045,-0.24551 -1.42298,-0.47935 -2.31235,-1.22191 -4.54744,-2.58472 -6.82116,-3.87708 -15.36884,-17.86284 -5.70718,-3.90683 -13.05689,-20.62063 -0.11037,-0.25099 -0.41626,0.41169 -0.45915,0.68251 -0.40592,2.56319 -0.54819,5.16159 -0.87409,7.73619 -1.7428,13.76804 -1.97207,14.31203 -4.3688,29.24543 -3.9855,22.15246 -9.87697,43.91101 -16.24169,65.48102 -4.78105,16.20297 -9.63564,32.09796 -15.93489,47.79163 -2.99839,7.47006 -6.5405,14.7102 -9.81075,22.0653 -21.36092,48.54082 47.28617,78.74972 68.64708,30.2089 v 0 c 3.91953,-8.98304 8.14292,-17.83953 11.75858,-26.94913 6.79948,-17.13119 12.34089,-35.11477 17.53156,-52.78504 7.15668,-24.36305 13.7012,-48.95419 18.1111,-73.98177 2.20043,-13.83276 3.33336,-19.92606 4.90232,-33.28801 1.53856,-13.10296 3.48623,-27.84747 -2.75129,-40.2484 -2.74407,-5.45551 -7.51824,-9.62528 -11.27735,-14.43793 -3.02588,-1.88003 -5.95691,-3.92209 -9.07763,-5.64009 -1.42662,-0.78538 -2.99471,-1.28439 -4.52289,-1.84718 -7.13594,-2.62798 -14.67791,-4.01031 -22.13656,-5.33253 -31.83204,-4.52079 -64.02639,-5.07229 -96.1379,-4.77224 -8.97695,0.17065 -17.95609,0.2507 -26.93087,0.51195 -51.03279,1.48553 -102.01985,5.26249 -152.59359,12.34684 -9.09707,1.2924 -18.20523,2.50893 -27.2912,3.87718 -23.64186,3.56022 -47.11891,7.99705 -70.56956,12.62573 -51.90034,10.90201 -36.48256,84.30019 15.41778,73.39817 z"/>
<path d="m 507.44258,377.3476 c 27.64392,-3.60357 55.39144,-6.33951 83.13524,-9.03732 38.29118,-3.72125 76.69686,-6.33054 115.17093,-6.92736 19.38888,-0.30077 34.4085,-0.0595 53.69092,0.10785 8.37207,0.099 16.74415,0.19801 25.11622,0.29701 53.02931,0.62668 53.91556,-74.36808 0.88626,-74.99476 v 0 c -8.45364,-0.0998 -16.90728,-0.19967 -25.36091,-0.2995 -20.41798,-0.17223 -35.76132,-0.42043 -56.34228,-0.0837 -40.22767,0.65822 -80.38581,3.35915 -120.42327,7.25285 -29.02636,2.82513 -58.0595,5.68106 -86.97417,9.51101 -52.44886,7.84963 -41.34781,82.02352 11.10106,74.17389 z"/>
<path d="m 468.79899,204.16908 c -1.78038,21.83428 -2.77658,43.73064 -4.21897,65.59222 -2.19067,37.46498 -8.73058,74.46926 -16.20004,111.189 -2.45987,12.09272 -4.95437,24.18066 -7.71246,36.20887 -2.95491,12.88654 -6.28306,25.68464 -9.42459,38.52696 -14.94935,58.2887 -31.80047,116.1101 -51.1052,173.11188 -10.701,31.59722 -20.08102,56.54325 -31.56326,87.82006 -14.29562,38.89986 -31.59695,76.57348 -48.42472,114.41163 -21.54838,48.45789 46.98143,78.93191 68.52981,30.47402 v 0 c 17.50178,-39.36205 35.44474,-78.57451 50.30233,-119.04393 12.01578,-32.74524 21.26555,-57.32155 32.47468,-90.45352 19.88853,-58.7866 37.25004,-118.41687 52.64577,-178.52951 3.30755,-13.56912 6.80781,-27.09272 9.92266,-40.70736 2.86131,-12.5064 5.45582,-25.07324 8.00386,-37.6472 8.0593,-39.77073 14.98677,-79.86189 17.38865,-120.42634 1.35601,-20.57766 2.40506,-41.17657 3.8655,-61.74438 6.21009,-52.66816 -68.27393,-61.45056 -74.48402,-8.7824 z"/>
<path d="m 464.33521,622.64271 c 32.09601,-3.83115 64.15448,-7.97451 96.23831,-11.90901 46.96529,-5.66691 93.99868,-11.10756 141.25306,-13.71451 31.69272,-1.74844 36.6533,-1.41421 67.88028,-1.62455 33.18406,0.0267 66.25433,2.67122 99.24153,5.98927 52.76878,5.2873 60.24614,-69.33903 7.47736,-74.62632 v 0 c -35.65684,-3.55986 -71.40445,-6.3717 -107.27121,-6.36091 -11.82807,0.094 -23.65942,-0.0121 -35.48421,0.28206 -61.00137,1.51733 -121.70245,8.24925 -182.22629,15.61268 -31.95521,3.91914 -63.88537,8.04504 -95.85251,11.86272 -52.67138,6.18272 -43.9277,80.67129 8.74368,74.48857 z"/>
<path d="m 625.17773,432.32946 c 0.94942,27.38821 0.98455,54.80226 1.0183,82.20415 -0.21526,49.45869 -0.51494,98.91681 -1.15135,148.37194 -0.68164,53.02862 74.31217,53.99261 74.9938,0.96398 v 0 c 0.63954,-49.80826 0.9444,-99.6195 1.15749,-149.43135 -0.0376,-28.6214 -0.0728,-57.25658 -1.11223,-85.86238 -2.65424,-52.96654 -77.56025,-49.21288 -74.90601,3.75366 z"/>
<path d="m 467.94722,709.08417 c 6.90341,24.01968 12.54362,48.3798 18.00957,72.75884 6.9008,33.18106 11.95903,66.72219 16.12548,100.34678 1.48698,13.76817 0.87,7.29478 1.90685,19.41477 4.57497,52.83531 79.29538,46.36533 74.72041,-6.46997 v 0 c -1.2351,-14.12152 -0.51656,-6.72357 -2.19922,-22.18958 -4.48569,-36.03296 -9.90912,-71.97826 -17.37378,-107.52531 -5.97314,-26.59109 -12.1131,-53.17548 -19.80213,-79.3327 -16.26146,-50.47836 -87.64864,-27.48119 -71.38718,22.99717 z"/>
<path d="m 554.47786,761.63371 c 19.47949,-11.11592 41.68466,-16.34147 63.22813,-21.82655 32.29269,-7.20926 65.22231,-11.54929 98.27189,-13.11481 5.46952,-0.25908 10.94691,-0.31034 16.42036,-0.46551 16.98948,-0.0392 34.27097,0.50653 50.67482,5.33311 0.77734,0.29535 2.33908,0.85998 3.17106,1.26526 0.36201,0.17635 -0.77981,-0.22867 -1.12971,-0.42798 -0.96934,-0.55216 -1.95847,-1.08428 -2.84853,-1.75681 -1.42275,-1.07504 -2.71371,-2.31419 -4.07057,-3.47128 -9.36322,-13.45466 -4.7137,-4.73637 -9.37721,-18.29677 -0.0552,-0.16042 -0.35873,-0.4972 -0.38745,-0.33 -0.36837,2.14519 -0.41656,4.33354 -0.67123,6.49518 -1.26672,10.75211 -1.74941,13.39693 -3.43556,24.89776 -3.97842,25.21475 -8.51952,50.39353 -15.10777,75.07619 -4.07488,15.26642 -6.99649,23.61523 -11.85402,38.60247 -7.7564,22.45199 -3.94223,11.67354 -11.40765,32.34767 -18.00018,49.8848 52.54758,75.3409 70.54776,25.4561 v 0 c 7.98107,-22.13354 3.89145,-10.55643 12.2275,-34.74592 5.70462,-17.70689 8.56357,-25.79946 13.36775,-43.95973 7.12954,-26.95036 12.12045,-54.41787 16.43919,-81.93863 1.58311,-10.87843 2.72855,-17.96214 3.88763,-28.65327 1.26151,-11.63596 2.49253,-23.67793 -2.28504,-34.84433 -1.85301,-4.33097 -5.11356,-7.91298 -7.67034,-11.86946 -1.85241,-1.67668 -3.60084,-3.47592 -5.55721,-5.03002 -6.91851,-5.49595 -15.51011,-8.35998 -23.77164,-11.08204 -7.06055,-1.90607 -9.01741,-2.57539 -16.58831,-3.95794 -18.5844,-3.39378 -37.52486,-4.31181 -56.3859,-4.07633 -6.35684,0.19713 -12.71833,0.27814 -19.0705,0.59138 -37.69246,1.85868 -75.2389,6.92178 -112.0348,15.31037 -7.07763,1.82897 -14.19651,3.50516 -21.23289,5.48692 -22.49801,6.33644 -44.98037,14.0673 -64.88797,26.53837 -44.15641,29.37195 -2.6182,91.81855 41.53821,62.4466 z"/>
<path d="m 565.80445,929.43877 c 26.43337,-6.52763 53.54569,-9.5272 80.56068,-12.44962 29.05128,-2.52383 58.22092,-4.72783 87.40813,-4.0553 6.89566,0.15889 13.78005,0.64162 20.67007,0.96242 52.98024,2.36524 56.32518,-72.56013 3.34494,-74.92537 v 0 c -8.03858,-0.34566 -16.07144,-0.87128 -24.11574,-1.03698 -31.86122,-0.65632 -63.70318,1.68296 -95.41282,4.4945 -31.76569,3.46876 -63.69792,7.07391 -94.63997,15.36651 -50.65984,15.68696 -28.47513,87.33079 22.18471,71.64384 z"/>
</svg>
