<?xml version="1.0" ?>
<svg xmlns="http://www.w3.org/2000/svg" width="1000" height="1000">
<path d="m 130.03908,293.59036 c 23.0978,-5.50436 46.611,-9.02572 70.07624,-12.53001 37.51534,-4.77673 75.17108,-9.13884 112.98085,-10.72905 6.49737,-0.27327 13.00229,-0.32017 19.50344,-0.48026 17.139,-0.42747 34.23413,0.60678 51.2615,2.43019 52.74215,5.54666 60.58632,-69.042 7.84417,-74.58866 v 0 c -20.27591,-2.10139 -40.62729,-3.3416 -61.02843,-2.81688 -7.31509,0.19424 -14.63437,0.26804 -21.94527,0.58271 -40.06358,1.7244 -79.96782,6.314 -119.71579,11.42783 -25.18551,3.77592 -50.41511,7.59097 -75.21169,13.48237 -51.775598,11.47986 -35.540623,84.70162 16.23498,73.22176 z"/>
<path d="m 222.10946,130.21848 c 4.18066,27.05839 5.78741,54.42176 7.42212,81.72405 3.51422,70.0825 2.0386,140.29529 1.13627,210.42474 -0.76151,82.78014 -3.46175,165.51728 -6.84351,248.22567 -2.24634,55.7161 -5.23502,111.39681 -8.53936,167.05884 -0.3501,5.58203 -0.68706,11.16491 -1.0503,16.7461 -0.37621,5.78063 -1.21814,18.27121 -1.75647,24.53357 -0.12354,1.43716 -0.68452,9.31118 -1.57141,11.89168 -0.15316,0.44565 -0.0694,-0.9399 -0.10415,-1.40985 4.13022,-8.84881 3.48312,-10.29728 12.97993,-16.29553 2.57799,-1.62828 5.80219,-1.9036 8.6026,-3.10985 0.37802,-0.16282 1.13633,-0.70268 0.80028,-0.94033 -1.6385,-1.15872 -3.68899,-1.58168 -5.52194,-2.39875 -3.42149,-1.52519 -6.82733,-3.08524 -10.24099,-4.62786 -23.81826,-10.90701 -46.43208,-24.13064 -68.63889,-37.96411 -45.03516,-28.00596 -84.641575,35.68338 -39.60641,63.68934 v 0 c 25.17479,15.63146 50.81956,30.55714 77.83322,42.83209 13.80858,6.04577 31.73959,14.67117 47.14634,14.3887 15.70263,-0.2879 26.25124,-3.9193 37.59879,-15.17095 4.21641,-4.18078 6.40861,-9.99789 9.61292,-14.99683 1.15175,-3.76541 2.53513,-7.46762 3.45524,-11.29622 1.24209,-5.16835 1.98818,-13.64671 2.43862,-18.90548 1.21247,-14.15505 1.95121,-28.34762 2.89083,-42.52154 3.33118,-56.12207 6.34342,-112.263 8.60856,-168.43954 3.40914,-83.40778 6.12935,-166.84462 6.8999,-250.32463 0.92501,-71.95167 2.40666,-143.98865 -1.26522,-215.88979 -1.82357,-30.2195 -3.65707,-60.51114 -8.46,-90.43637 -9.3429,-52.203547 -83.16986,-38.990701 -73.82697,13.21285 z"/>
<path d="m 138.3864,720.94472 c 18.61409,-29.95633 40.46619,-57.6784 62.32723,-85.28813 7.34966,-9.16164 14.58822,-18.41353 22.04899,-27.48492 17.85898,-21.71434 31.14276,-37.24779 50.6822,-57.68452 29.21744,-30.55914 60.6136,-58.82152 91.86809,-87.24621 10.09565,-9.19692 20.1913,-18.39384 30.28694,-27.59077 39.20438,-35.71438 -11.30339,-91.15774 -50.50776,-55.44335 v 0 c -10.08253,9.18498 -20.16506,18.36996 -30.24758,27.55494 -32.96636,29.99602 -66.01026,59.86604 -96.78521,92.15421 -20.69656,21.71424 -34.89956,38.34034 -53.7995,61.32575 -7.5653,9.20064 -14.90649,18.5833 -22.35974,27.87495 -14.86643,18.79776 -23.18802,28.92411 -37.0084,47.8034 -4.13109,5.64327 -8.069131,11.42551 -12.061507,17.16776 -5.317675,7.64842 -10.908765,15.4994 -15.670795,23.5412 -30.628818,43.29406 30.598232,86.60975 61.227042,43.31569 z"/>
<path d="m 729.89521,46.237964 c -18.68411,10.271279 -37.42384,20.503604 -56.59754,29.846386 -7.63626,3.72093 -15.38306,7.210612 -23.07459,10.815917 -27.67563,12.298009 -55.06782,25.219953 -82.87766,37.217563 -10.50432,4.53174 -40.39559,16.93993 -51.65961,21.62947 -48.95918,20.38377 -20.13217,89.62251 28.82701,69.23874 v 0 c 12.6154,-5.25249 41.38074,-17.18881 53.14235,-22.26559 28.33713,-12.23143 56.25483,-25.39099 84.45222,-37.93505 8.41935,-3.96166 16.89535,-7.80511 25.25806,-11.88498 8.28907,-4.04396 25.71824,-13.16488 34.68125,-17.89414 2.71877,-1.43454 15.27343,-8.10627 19.22008,-10.64472 48.17066,-22.183045 16.79909,-90.306644 -31.37157,-68.123596 z"/>
<path d="m 464.11741,316.88971 c 1.61845,2.69644 3.16541,5.43711 4.85535,8.08932 3.2896,5.16272 6.87721,10.12955 10.27416,15.22228 4.85672,7.28124 8.29236,12.66717 13.45089,19.93576 2.90312,4.09063 5.92652,8.09455 8.88979,12.14182 11.82186,15.25268 6.00548,7.8988 17.4253,22.08048 33.28079,41.2903 91.6741,-5.77585 58.39331,-47.06615 v 0 c -10.15674,-12.58773 -5.03116,-6.12435 -15.36332,-19.40079 -8.01191,-10.87621 -6.85941,-9.07199 -14.28402,-20.0779 -2.11213,-3.13093 -4.17374,-6.29565 -6.26061,-9.44347 -1.86267,-2.77163 -3.71674,-5.54906 -5.58801,-8.31488 -1.2729,-1.88139 -2.48724,-3.80515 -3.84442,-5.62668 -0.0636,-0.0854 -0.21111,0.0279 -0.31666,0.0419 -22.92319,-47.82288 -90.55495,-15.40459 -67.63176,32.41828 z"/>
<path d="m 597.43617,282.8261 c 0.78948,0.94791 1.57679,1.89763 2.36843,2.84374 3.26054,3.89672 3.91428,4.47744 6.85438,8.70844 11.66758,16.79038 -5.50823,-7.10258 9.65391,14.48799 2.41667,3.44128 4.95434,6.79598 7.43151,10.19397 11.47681,13.92359 5.73767,7.27423 17.17116,19.98793 35.55839,39.34591 91.20191,-10.94125 55.64352,-50.28716 v 0 c -8.42914,-9.26667 -4.32187,-4.58395 -12.32723,-14.04339 -1.87032,-2.53239 -3.80167,-5.02081 -5.61095,-7.59715 -7.38881,-10.52135 -13.91343,-21.70758 -22.67071,-31.21035 -33.17461,-41.37566 -91.68863,5.54032 -58.51402,46.91598 z"/>
<path d="m 791.12331,205.51351 c -1.28917,-0.47778 -0.0222,-0.0475 0.0324,3.71181 0.066,4.54636 0.0496,11.05017 -0.54382,15.35165 -1.09504,7.93795 -4.03772,16.71756 -6.20534,24.20421 -2.18535,6.06933 -4.14309,12.22551 -6.55607,18.208 -4.72117,11.70516 -14.87751,33.04699 -20.3259,43.72293 -4.19288,8.21581 -8.40741,16.43139 -13.06197,24.39473 -4.48443,7.67228 -9.55678,14.98545 -14.33517,22.47818 -28.34613,44.82183 35.04152,84.90932 63.38765,40.08748 v 0 c 5.70177,-9.07886 11.72307,-17.96472 17.10533,-27.23657 5.13904,-8.85288 9.80387,-17.97604 14.43851,-27.1031 12.21346,-24.05214 23.52564,-48.71488 31.61541,-74.49257 1.91192,-7.09509 4.16018,-14.108 5.73574,-21.28528 3.85371,-17.55515 4.7459,-35.62218 2.83732,-53.47065 -8.08165,-52.41362 -82.2057,-40.98443 -74.12404,11.42918 z"/>
<path d="m 388.90694,484.69525 c 9.73918,13.59442 16.50125,28.89664 23.64164,43.93106 7.85904,16.5915 17.18721,32.46442 28.07872,47.24709 1.90836,2.59015 3.94315,5.08473 5.91472,7.6271 32.66136,41.782 91.75004,-4.40814 59.08868,-46.19014 v 0 c -9.98479,-12.61811 -18.62364,-26.20527 -25.33753,-40.86587 -8.30906,-17.48717 -16.3481,-35.23315 -27.55108,-51.12021 -27.83948,-45.13827 -91.67463,-5.7673 -63.83515,39.37097 z"/>
<path d="m 473.58504,501.72307 c 21.77278,-8.36889 44.01926,-15.43688 66.23402,-22.52096 39.22814,-11.5665 79.31126,-20.28951 119.66065,-26.92389 8.29266,-1.3635 16.61909,-2.51299 24.92863,-3.76949 28.53154,-3.80707 57.26373,-6.49893 86.06291,-6.86653 14.47178,-0.18472 18.52131,0.15884 32.65215,0.73155 21.74295,1.14187 43.3541,4.00549 64.75873,7.9219 8.35231,1.49211 16.49457,3.87017 24.67802,6.06083 0.24163,0.0756 0.97466,0.26841 0.72489,0.22695 -0.73429,-0.12189 -2.88186,-0.98634 -3.082,-1.1035 -9.24942,-5.41423 -10.91529,-6.34404 -17.08495,-16.98818 -1.3888,-2.396 -1.6721,-5.28038 -2.50815,-7.92056 -0.17881,-0.93497 0.34065,-2.43498 -0.53644,-2.8049 -0.73038,-0.30804 -0.72282,1.4137 -1.01478,2.15065 -1.02009,2.57478 -1.84567,5.22577 -2.9191,7.77877 -1.65526,3.93684 -3.37171,7.85205 -5.26293,11.68113 -6.86874,13.90692 -11.50361,21.21328 -19.63931,35.17546 -11.11428,17.96476 -18.06588,29.80299 -30.35291,47.16249 -5.55011,7.84138 -11.52088,15.37637 -17.28133,23.06455 -31.72158,42.49989 28.38234,87.36099 60.10393,44.86109 v 0 c 6.5269,-8.77413 13.27997,-17.38447 19.5807,-26.32241 13.32362,-18.9003 20.77055,-31.60405 32.81493,-51.11613 4.39769,-7.60246 8.96204,-15.11091 13.19307,-22.80736 6.79349,-12.35774 12.36335,-23.50822 17.4988,-36.54174 3.11305,-7.90076 6.73437,-18.89108 7.88683,-27.42748 0.57485,-4.25798 0.3319,-8.58681 0.49785,-12.88021 -1.03902,-4.52605 -1.14331,-9.3747 -3.11708,-13.57814 -6.60007,-14.05586 -15.98692,-21.25981 -30.13311,-25.0663 -10.14727,-2.70781 -20.26207,-5.5734 -30.62139,-7.39359 -24.87798,-4.50506 -49.98511,-7.82975 -75.25467,-9.07608 -16.51556,-0.62525 -21.01778,-1.00437 -37.89764,-0.75302 -31.7895,0.47336 -63.50512,3.42679 -94.99566,7.67911 -8.9334,1.35922 -17.8849,2.60446 -26.80022,4.07766 -43.62366,7.20856 -86.9473,16.70996 -129.33563,29.31544 -24.65518,7.86896 -49.37858,15.67911 -73.44393,25.23649 -48.60397,21.21683 -18.59885,89.95323 30.00512,68.7364 z"/>
<path d="m 590.58161,625.20302 c 15.82958,-4.48038 32.15436,-6.80394 48.38988,-9.24897 23.32645,-3.80431 46.93073,-4.68492 70.51735,-4.73181 11.00252,0.0463 22.00221,0.31612 33.0002,0.61534 1.23082,-0.12927 2.47348,0.19278 3.70539,0.0978 0.49306,-0.038 -1.00708,0.0845 -1.4827,-0.051 -4.93494,-1.40521 -10.57028,-1.51676 -14.70306,-4.55788 -16.14429,-11.87979 -14.80126,-14.32556 -18.09919,-28.99422 -0.0461,-0.49378 0.20499,-1.83924 -0.13832,-1.48134 -0.52762,0.55004 -0.36753,1.47952 -0.56587,2.21546 -0.4436,1.64597 -0.84103,3.30616 -1.35987,4.92999 -0.70381,2.20273 -1.47786,4.38376 -2.30589,6.54286 -2.97198,7.7494 -5.29614,12.74023 -8.73245,20.55778 -11.49714,25.46149 -24.35483,50.40044 -39.10474,74.14673 -3.302,5.31597 -6.83634,10.48406 -10.2545,15.72609 -19.17297,28.21414 -41.50855,54.30898 -66.34589,77.70096 -5.03952,4.74626 -10.32935,9.2195 -15.49402,13.82925 -15.49433,12.8381 -31.75601,24.73285 -48.84506,35.36374 -10.20861,6.35065 -19.89898,11.89524 -30.82243,16.86919 -4.61671,2.1022 -9.40068,3.81579 -14.10103,5.72368 -4.66918,1.38883 -9.33837,2.77766 -14.00756,4.16648 -50.66201,15.67994 -28.48723,87.32685 22.17478,71.64691 v 0 c 6.85025,-2.17645 13.70049,-4.35289 20.55073,-6.52934 6.45461,-2.71579 13.01746,-5.18746 19.36383,-8.14736 34.69419,-16.18113 66.28442,-39.07716 95.76362,-63.26046 6.1051,-5.49819 12.35179,-10.84313 18.31531,-16.49458 28.61283,-27.11553 54.27738,-57.36859 76.34772,-90.0201 3.98655,-6.16005 8.09897,-12.24044 11.95963,-18.48015 16.28978,-26.32798 30.49317,-53.9606 43.20683,-82.16916 8.86001,-20.31614 18.27361,-41.1021 19.39155,-63.57503 -0.85829,-5.06767 -0.12692,-10.68356 -2.57487,-15.20303 -4.07,-7.51415 -9.59446,-14.51465 -16.3537,-19.74344 -6.88304,-5.32456 -15.41758,-5.56273 -23.44894,-5.78218 -11.74087,-0.31929 -23.48368,-0.60295 -35.22944,-0.64283 -27.27,0.0822 -54.55559,1.21677 -81.52544,5.57225 -19.21347,2.90828 -38.49873,5.80201 -57.22371,11.13296 -51.10639,14.16466 -31.07452,86.44 20.03186,72.27533 z"/>
<path d="m 522.8935,730.0808 c 9.89904,3.9273 18.76369,9.98195 27.65837,15.73757 23.9903,16.0824 47.16323,33.3331 70.45811,50.39469 24.78673,18.5414 49.28336,37.46542 74.02665,56.06439 17.67139,12.99202 35.38197,25.93577 53.27307,38.62433 11.03439,7.67459 22.51119,14.83142 34.78285,20.37612 2.66954,1.20617 5.3997,2.27342 8.09955,3.41013 17.84341,6.7019 36.47959,11.08945 55.28227,14.08259 5.25286,0.83618 10.53315,1.48988 15.79972,2.23482 22.61113,2.49252 11.4971,1.36944 33.33995,3.39046 52.80906,4.86857 59.69426,-69.81472 6.88519,-74.68329 v 0 c -19.83391,-1.82135 -9.88753,-0.82771 -29.83877,-2.98451 -17.85995,-2.46258 -35.7892,-5.21169 -52.82598,-11.35539 -10.02545,-3.9944 -19.38613,-9.34676 -28.14754,-15.65439 -17.32778,-12.28038 -34.46786,-24.82603 -51.58766,-37.39384 -24.99204,-18.78372 -49.72623,-37.90739 -74.7732,-56.61831 -24.49803,-17.94259 -48.87253,-36.07978 -74.14506,-52.92962 -14.19795,-9.12041 -28.55687,-18.33655 -44.6184,-23.86297 -50.32282,-16.73659 -73.99194,54.43062 -23.66912,71.16722 z"/>
</svg>
