<?xml version="1.0" ?>
<svg xmlns="http://www.w3.org/2000/svg" viewBox="0 0 1000 1000">
<path d="m 90.085273,284.69881 c 36.012197,-1.44881 71.951657,-4.36237 107.922227,-6.59232 47.69421,-2.98266 95.48749,-3.01183 143.24634,-2.32214 53.02756,0.75977 54.10204,-74.23254 1.07447,-74.9923 v 0 c -49.66554,-0.70617 -99.36606,-0.6493 -148.96354,2.45827 -34.42701,2.13619 -68.82419,4.81754 -103.279497,6.44849 -53.033009,0 -53.033009,75 0,75 z"/>
<path d="m 190.3703,127.58223 c 2.93939,36.86265 5.0647,73.77879 7.10409,110.70047 3.31194,73.62181 4.57817,147.34635 4.34694,221.04127 -0.053,16.90714 -0.30496,33.81307 -0.45745,50.7196 -1.27492,92.73803 -5.99265,185.38257 -12.7184,277.87175 -2.13825,27.62618 -4.7861,55.21195 -7.88235,82.74677 -1.42048,12.63226 -2.8922,25.1936 -5.24892,37.6832 -3.87307,0.96272 -7.57859,2.06845 4.39245,-9.77579 4.01004,-3.96757 9.26284,-6.48597 14.22931,-9.1611 1.69735,-0.91425 5.45865,0.41333 5.58299,-1.51057 0.12774,-1.97638 -3.55463,-1.74825 -5.31353,-2.65858 -3.43341,-1.77699 -6.84177,-3.60199 -10.26265,-5.40298 -13.84201,-7.47662 -26.98635,-16.1113 -40.09937,-24.7718 -44.283838,-29.17947 -85.549841,33.44734 -41.266,62.62681 v 0 c 15.44012,10.15314 30.92247,20.26971 47.26515,28.9445 9.08838,4.54796 22.86127,12.16484 33.00359,14.38535 7.51056,1.64433 15.36279,3.77605 22.93532,2.44593 9.32224,-1.63746 18.51335,-5.47475 26.14913,-11.06765 11.41449,-8.36064 13.28739,-18.68312 17.15032,-30.50889 0.67837,-3.76718 1.44573,-7.51941 2.03512,-11.30153 1.33592,-8.57262 3.11296,-23.85367 4.01448,-31.88302 3.189,-28.40285 5.91489,-56.8582 8.11772,-85.35496 0.93907,-12.93212 1.94838,-25.85934 2.81722,-38.79636 5.45157,-81.17338 8.76167,-162.49483 10.09541,-243.83856 0.15338,-17.20299 0.40725,-34.40536 0.46015,-51.60895 0.23061,-75.00257 -1.07,-150.03501 -4.46086,-224.96229 -2.03737,-36.8587 -4.12659,-73.71555 -7.09399,-110.51332 -2.79356,-52.959376 -77.68943,-49.008678 -74.89587,3.9507 z"/>
<path d="m 78.112991,730.66082 c 28.376819,-35.00267 62.228239,-65.06987 95.470929,-95.29455 33.41624,-30.07706 68.76857,-57.8821 105.7168,-83.48271 12.04598,-8.34639 24.40813,-16.22697 36.6122,-24.34045 44.1456,-29.38819 2.58443,-91.81951 -41.56117,-62.43132 v 0 c -12.98632,8.65602 -26.14467,17.05935 -38.95897,25.96805 -39.22216,27.26784 -76.77034,56.84598 -112.28019,88.80991 -36.12397,32.8843 -72.77433,65.70416 -103.513449,103.85487 -33.174759,41.37554 25.339091,88.29174 58.51385,46.9162 z"/>
<path d="m 517.2084,164.87336 c 13.42666,-0.549 26.74662,-2.52779 40.0883,-4.01385 17.62839,-1.96354 15.8869,-1.7006 34.07163,-3.29826 36.3968,-2.77796 72.92354,-2.34826 109.37866,-1.32019 17.20011,0.67508 34.37779,1.79618 51.55257,2.92671 0.98742,0.0637 1.97484,0.12733 2.96226,0.19099 0.26289,0.033 1.0511,0.13573 0.78868,0.0991 -12.37169,-1.72644 -16.65035,-5.75554 -24.72139,-15.00765 -1.06757,-1.2238 -1.59793,-2.82775 -2.3969,-4.24163 -0.001,0.57301 -0.0371,1.14696 -0.004,1.71902 0.54103,9.3947 0.70063,4.7721 0.73831,16.584 0.0522,16.35954 -1.11247,32.6248 -2.29053,48.93025 -4.15198,43.82928 -9.91979,87.49507 -15.56183,131.15369 -1.94374,12.41723 -3.48703,25.03922 -6.96022,37.17223 -1.38924,4.85307 -3.45002,9.48824 -5.17503,14.23236 -17.27962,50.13895 53.62756,74.57603 70.90719,24.43708 v 0 c 2.513,-7.55299 5.42686,-14.98423 7.53901,-22.65898 3.9848,-14.47918 5.77407,-28.78251 8.07084,-43.57287 5.82202,-45.07542 11.79076,-90.15737 15.98928,-135.4177 1.33755,-18.90583 2.67752,-37.77928 2.4405,-56.74908 -0.10541,-8.43663 -0.55648,-18.63478 -1.82903,-27.08969 -0.55513,-3.68828 -1.48846,-7.30964 -2.23268,-10.96446 -1.58465,-3.94621 -2.40606,-8.29305 -4.75393,-11.83864 -3.38048,-5.10499 -7.34345,-9.997461 -12.18646,-13.743644 -7.78287,-6.020238 -17.06788,-7.569422 -26.3977,-8.072426 -18.1153,-1.192416 -36.23412,-2.36978 -54.37713,-3.059221 -39.35422,-1.096913 -78.78492,-1.492904 -118.07044,1.580842 -22.56312,1.997696 -45.05953,4.525965 -67.56976,7.022008 -53.03301,0 -53.03301,75.000001 0,75.000001 z"/>
<path d="m 582.44766,291.9888 c 19.2328,-2.75624 38.59203,-4.44134 57.95895,-5.89936 33.14913,-2.14554 66.38213,-2.26793 99.55024,-0.6317 52.97032,2.57778 56.61585,-72.33357 3.64553,-74.91134 v 0 c -36.27195,-1.74363 -72.61358,-1.65044 -108.86091,0.75731 -20.77779,1.58282 -41.54856,3.38724 -62.18455,6.34013 -52.56983,6.99382 -42.67908,81.33878 9.89074,74.34496 z"/>
<path d="m 507.68045,416.17587 c 19.47592,-4.59327 39.47022,-6.51481 59.33218,-8.60045 42.2592,-4.40928 84.76863,-4.32594 127.19509,-3.76249 25.34034,0.48703 13.17018,0.22933 36.51069,0.76228 53.0192,1.20983 54.73016,-73.77065 1.71096,-74.98049 v 0 c -23.76353,-0.5419 -11.35191,-0.2796 -37.2351,-0.7753 -45.38328,-0.59155 -90.85122,-0.57814 -136.05059,4.16995 -22.9812,2.43497 -46.08293,4.79506 -68.60485,10.17167 -51.62928,12.12096 -34.48766,85.13579 17.14162,73.01483 z"/>
<path d="m 345.10854,458.21781 c 3.0979,18.36293 5.53765,36.82254 9.028,55.12165 1.21594,6.37491 2.5697,12.72275 3.85455,19.08413 5.07533,23.67827 9.16181,47.54746 13.18381,71.42146 8.81314,52.29558 82.77027,39.83191 73.95712,-12.46368 v 0 c -4.16108,-24.68287 -8.39717,-49.35915 -13.63277,-73.84236 -2.971,-14.63192 -3.95507,-18.80873 -6.369,-33.1761 -2.22709,-13.25529 -3.85836,-26.60801 -6.28103,-39.83131 -9.67761,-52.14253 -83.41829,-38.45633 -73.74068,13.68621 z"/>
<path d="m 464.87436,525.82808 c 19.34679,-4.76198 38.6494,-9.68209 58.20629,-13.53658 7.02811,-1.38517 14.08442,-2.62325 21.12663,-3.93488 42.90917,-7.71265 86.3722,-12.12591 129.90046,-14.30392 9.01459,-0.45105 18.03885,-0.68193 27.05827,-1.02289 36.84748,-0.8503 73.78835,-0.0772 110.48417,3.56165 5.05146,0.50091 10.08581,1.16144 15.12871,1.74216 16.16568,2.19494 32.28845,5.12846 47.84415,10.11643 1.61024,0.53611 3.22555,1.02994 4.79769,1.66852 0.12114,0.0492 0.46493,0.2375 0.34303,0.19022 -13.42583,-5.20665 -13.69886,-13.79324 -20.21236,-26.92588 0.0296,-3.4179 0.53609,-6.86509 0.0887,-10.25371 -0.0954,-0.72285 -0.8264,1.20263 -1.20114,1.82809 -1.38381,2.30961 -2.66268,4.68171 -4.07327,6.97506 -5.40044,8.78004 -11.30165,17.75 -17.2156,26.14684 -3.96614,5.63128 -8.10475,11.13909 -12.15712,16.70863 -18.77562,25.06537 -9.3081,12.07265 -28.34602,39.01932 -30.57568,43.3316 30.70446,86.57214 61.28014,43.24054 v 0 c 17.99726,-25.54041 8.75048,-12.80437 27.75682,-38.19616 11.92101,-16.45084 23.90956,-32.86243 34.19808,-50.41418 3.12911,-5.33813 10.34977,-18.24165 11.92092,-24.8746 1.40572,-5.93455 1.54935,-12.09873 2.32403,-18.1481 -3.42394,-7.91193 -5.56425,-16.51354 -10.27183,-23.73578 -4.94269,-7.58292 -18.20538,-11.92032 -26.68361,-14.75901 -20.17288,-6.2917 -40.92801,-10.45064 -61.88918,-13.10261 -5.76177,-0.65225 -11.51434,-1.39174 -17.28532,-1.95675 -39.75842,-3.89259 -79.77591,-4.73804 -119.69442,-3.776 -9.62201,0.37128 -19.24925,0.62571 -28.86605,1.11383 -46.58005,2.36425 -93.08124,7.15964 -138.99584,15.43259 -7.60484,1.42338 -15.22527,2.76588 -22.81452,4.27014 -19.28836,3.82316 -38.38853,8.4853 -57.42908,13.3772 -52.00758,10.37842 -37.33028,83.92825 14.6773,73.54983 z"/>
<path d="m 444.0317,623.12922 c 5.1412,18.39187 7.84092,37.33494 10.85381,56.15697 3.09561,20.88871 7.43553,41.54251 12.33666,62.07078 12.36801,51.57065 85.29993,34.07964 72.93192,-17.49101 v 0 c -4.49793,-18.65683 -8.39934,-37.4463 -11.21233,-56.44026 -3.52141,-21.97662 -6.81589,-44.06868 -12.97048,-65.50251 -14.99493,-50.86897 -86.93451,-29.66293 -71.93958,21.20603 z"/>
<path d="m 573.34324,636.80393 c 15.57077,-5.47203 31.8781,-8.6084 48.0339,-11.79795 19.13458,-3.43085 38.49014,-5.61803 57.9342,-5.98624 10.33374,-0.19569 13.20927,0.0501 23.2125,0.43686 11.42718,1.08274 23.31077,0.96577 34.3962,4.35018 0.24775,0.11157 1.00595,0.40405 0.74324,0.33469 -5.72268,-1.51092 -10.45604,-5.90093 -13.96851,-10.45044 -3.85496,-7.10959 -2.05598,-4.85773 -4.26867,-7.51952 -0.50119,20.96604 -3.49827,41.78555 -6.73548,62.47398 -3.71379,18.70731 -6.34423,38.19789 -14.80883,55.50686 -0.42884,0.55696 -0.71954,1.25536 -1.2865,1.67088 -0.19445,0.14251 -0.13183,-0.51721 -0.007,-0.7232 0.60607,-0.99674 1.27116,-1.98837 2.13323,-2.77427 1.41248,-1.28767 3.01489,-2.35971 4.62615,-3.38784 0.97066,-0.61937 2.24455,-0.75949 3.09313,-1.53775 0.2352,-0.21571 -0.42877,-0.4728 -0.64315,-0.70919 -10.34175,-2.75705 -19.18984,-7.48322 -28.45297,-12.66909 -46.58822,-25.33847 -82.42222,40.54722 -35.83401,65.88569 v 0 c 4.54762,2.42903 8.99747,5.05071 13.64286,7.28709 14.03874,6.75851 28.72861,11.95441 44.19342,14.21838 12.32053,0.51278 17.97333,1.8108 30.15841,-2.18448 13.36129,-4.38094 23.58818,-13.19577 31.3101,-24.66627 1.96276,-2.91558 3.49372,-6.09969 5.24058,-9.14954 1.42311,-3.19567 2.96996,-6.33907 4.26933,-9.58703 8.40733,-21.01523 12.38051,-43.51053 16.47419,-65.65628 2.37441,-15.3538 4.57016,-30.69111 6.02181,-46.16564 0.78025,-8.31731 1.5154,-17.67797 1.48285,-26.08207 -0.0145,-3.74027 -0.31841,-7.47381 -0.47761,-11.21072 -1.68247,-9.8939 -1.70377,-15.0078 -7.45759,-24.21325 -6.96717,-11.14668 -17.8167,-17.6354 -30.07358,-21.14496 -16.70022,-4.279 -33.84828,-6.07411 -51.05353,-6.84693 -12.38611,-0.42567 -16.22162,-0.72657 -28.95934,-0.42498 -23.33355,0.55248 -46.56556,3.17691 -69.52038,7.36275 -21.2286,4.2403 -42.68645,8.46727 -62.90768,16.40058 -48.76187,20.85138 -19.27356,89.81108 29.48831,68.9597 z"/>
<path d="m 582.33098,526.22645 c -0.0936,27.83581 -0.65666,55.66691 -1.20446,83.49671 -1.40285,53.82374 -0.67542,107.69229 -2.55128,161.50523 -0.41041,11.77356 -1.06061,23.53754 -1.59092,35.30631 -2.28439,43.83706 -7.31636,87.45122 -12.76523,130.98494 -6.57828,52.62344 67.8425,61.92653 74.42078,9.30309 v 0 c 5.68198,-45.50863 10.91453,-91.10233 13.26916,-136.92826 0.54788,-12.27543 1.21818,-24.54602 1.64364,-36.82631 1.86862,-53.93482 1.17032,-107.92365 2.55933,-161.86924 0.55729,-28.32167 1.12719,-56.64466 1.21898,-84.97247 0,-53.03301 -75,-53.03301 -75,0 z"/>
</svg>
