<?xml version="1.0" ?>
<svg xmlns="http://www.w3.org/2000/svg" width="1000" height="1000">
<path d="m 95.120917,363.54197 c 22.432873,-3.8837 44.561533,-9.29833 66.928643,-13.52831 8.03845,-1.5202 16.10822,-2.86983 24.16233,-4.30475 35.35281,-5.78174 71.14863,-8.70519 106.96695,-8.90714 19.93758,-0.11241 24.88993,0.39003 44.12773,1.36196 21.6089,1.78104 11.4317,0.7786 30.54169,2.90299 52.71489,5.8001 60.91747,-68.75 8.20259,-74.55011 v 0 c -22.02794,-2.40203 -10.34762,-1.27754 -35.05151,-3.26192 -21.60989,-1.04194 -27.34573,-1.60262 -49.65494,-1.43048 -39.6233,0.30573 -79.2144,3.6077 -118.31519,10.05235 -8.60001,1.53865 -17.21614,2.98981 -25.80004,4.61597 -21.7614,4.12256 -43.29555,9.36699 -65.114006,13.18571 -52.229543,9.19646 -39.22379,83.06019 13.005753,73.86373 z"/>
<path d="m 171.7188,169.47281 c 5.60939,28.97458 9.80093,58.18683 13.84088,87.41294 6.2692,46.26805 10.42393,92.80567 12.67544,139.43995 1.68498,34.89999 1.79373,51.76803 2.53426,86.97565 0.85757,60.04722 0.51026,120.11093 -1.14669,180.1416 -0.95973,34.77059 -1.50619,45.03218 -2.93448,79.14244 -2.06485,46.18678 -5.16876,92.3367 -10.22095,138.29705 -0.19863,1.4495 -1.20448,10.27885 -2.10701,12.98274 -0.30578,0.91607 -0.15026,-2.07674 0.40159,-2.8693 4.0658,-5.83924 7.38724,-12.70355 13.24945,-16.73616 5.79407,-3.98574 13.71107,-3.30788 20.27758,-5.82547 -16.2153,-8.4218 -30.7188,-19.51808 -45.2139,-30.5249 -42.3027,-31.98408 -87.535023,27.84097 -45.23232,59.82505 v 0 c 5.84088,4.40006 11.58688,8.92897 17.52264,13.20017 13.89914,10.00141 28.41595,19.16874 43.84655,26.6338 16.7025,5.70781 26.12906,11.69264 45.65516,2.011 20.78829,-10.30748 23.72545,-30.94744 26.15315,-50.51975 5.21443,-47.63866 8.48244,-95.4666 10.60253,-143.33966 1.44982,-34.69344 2.00824,-45.20941 2.98059,-80.57036 1.68088,-61.12802 2.03126,-122.28959 1.14934,-183.43419 -0.77484,-36.43833 -0.88585,-53.68733 -2.65132,-89.86808 -2.37021,-48.57426 -6.71734,-97.0471 -13.24935,-145.24067 -4.10008,-29.60679 -8.2904,-59.21576 -14.00909,-88.56304 -8.08166,-52.41361 -82.2057,-40.98443 -74.12405,11.42919 z"/>
<path d="m 123.02979,750.8831 c 23.94978,-29.87753 48.94168,-58.91892 75.15562,-86.83668 9.5328,-10.15241 19.30118,-20.08101 28.95177,-30.12152 32.65226,-33.38679 66.9789,-65.05705 101.17875,-96.83223 38.84969,-36.09988 -12.20326,-91.04164 -51.05295,-54.94175 v 0 c -35.23504,32.74511 -70.59159,65.39176 -104.21275,99.8163 -10.07555,10.49402 -20.27494,20.87052 -30.22664,31.48207 -27.45187,29.2721 -53.633947,59.71282 -78.71724,91.03308 -32.810271,41.66517 26.113173,88.0659 58.92344,46.40073 z"/>
<path d="m 690.92595,78.096998 c -1.77613,0.648288 -3.57839,1.229063 -5.3284,1.944863 -7.32793,2.997304 -14.50641,6.347732 -21.75722,9.52708 -17.93242,7.863046 -22.46269,9.707337 -41.50795,18.548819 -9.04503,4.19903 -18.0282,8.53002 -27.0423,12.79503 -29.4038,13.83863 -58.18292,28.96996 -87.58989,42.8009 -8.84242,4.15885 -17.79997,8.06837 -26.69995,12.10256 -48.29258,21.91637 -17.29815,90.21238 30.99442,68.29601 v 0 c 9.50146,-4.31685 19.06111,-8.50786 28.50439,-12.95055 29.16755,-13.72217 57.71959,-28.71837 86.87841,-42.45954 8.6563,-4.09909 17.28282,-8.26165 25.96889,-12.29726 19.73267,-9.16795 39.77765,-17.63239 59.59103,-26.61065 50.69762,-15.56443 28.68619,-87.261692 -22.01143,-71.697262 z"/>
<path d="m 447.22941,309.85157 c 3.64255,11.10094 7.51002,22.07063 12.85664,32.50067 4.45094,8.68278 9.93378,17.27187 15.0423,25.58463 9.12483,14.49872 4.62238,7.42822 13.49792,21.21748 28.71044,44.58935 91.76931,3.98666 63.05887,-40.6027 v 0 c -8.33555,-12.94076 -4.09697,-6.28946 -12.70588,-19.96019 -5.07625,-8.21137 -10.68686,-16.35833 -14.51632,-25.26855 -1.93769,-4.50852 -3.76521,-10.5227 -5.36208,-15.16308 -0.60873,-1.76891 -1.26047,-3.52273 -1.89071,-5.28409 -19.07479,-49.48386 -89.05553,-22.50803 -69.98074,26.97583 z"/>
<path d="m 583.50078,258.86923 c 1.50974,24.57571 12.3331,47.08185 22.06142,69.27227 21.30546,48.56519 89.98701,18.43473 68.68155,-30.13046 v 0 c -2.77686,-6.32519 -7.21142,-16.31382 -9.87327,-22.80149 -2.73225,-6.65925 -5.52717,-13.48772 -5.9997,-20.75427 -3.12114,-52.94109 -77.99114,-48.52713 -74.87,4.41395 z"/>
<path d="m 755.34938,237.70573 c -0.53067,5.40438 -0.98189,10.7094 -2.45226,15.97786 -4.59288,16.45669 -13.5523,30.85946 -21.89413,45.59835 -5.17798,8.1118 -10.14692,16.3609 -15.53393,24.33542 -6.32575,9.36415 -12.79468,18.63967 -19.59427,27.66564 -16.93739,22.4832 -31.60955,38.8774 -49.53738,60.7744 -8.83929,10.79629 -17.49599,21.7408 -26.24398,32.6112 -33.24377,41.32012 25.19169,88.33391 58.43546,47.01379 v 0 c 8.47978,-10.54274 16.86906,-21.15892 25.43934,-31.62823 8.99589,-10.98923 18.30727,-21.7185 27.25729,-32.74512 8.77405,-10.80983 17.56365,-21.61631 25.91078,-32.7591 18.3624,-24.51242 23.45702,-33.59008 39.37532,-58.74925 4.81971,-8.74874 10.0265,-17.29513 14.45913,-26.24621 11.32704,-22.87341 18.73281,-46.29637 19.37863,-71.84875 0,-53.03301 -75,-53.03301 -75,0 z"/>
<path d="m 416.6018,617.41303 c 27.50743,-10.63488 55.37993,-20.34944 84.10165,-27.19742 9.71789,-2.31699 19.53879,-4.1784 29.30818,-6.2676 56.74042,-10.54511 114.66051,-13.8748 172.29323,-11.72101 10.62698,0.39714 21.23183,1.25327 31.84775,1.8799 36.23198,2.97105 72.39089,8.24217 107.52478,17.74171 3.51681,0.95088 6.99207,2.0493 10.4881,3.07396 50.9254,14.80216 71.85881,-57.21723 20.93342,-72.01939 v 0 c -12.8842,-3.71994 -15.81738,-4.7351 -29.67157,-7.93435 -34.50528,-7.96807 -69.62628,-13.04732 -104.93159,-15.73607 -11.65588,-0.66526 -23.30022,-1.57954 -34.96765,-1.99578 -63.34789,-2.25996 -126.98849,1.61922 -189.31486,13.39384 -10.98157,2.38221 -22.02184,4.50831 -32.94471,7.14665 -31.15619,7.52557 -61.44785,17.98883 -91.31414,29.5291 -49.57275,18.84257 -22.92534,88.94903 26.64741,70.10646 z"/>
<path d="m 565.07145,422.83643 c -0.68346,13.40072 0.19871,26.82284 0.838,40.20647 0.25653,5.37051 0.51618,10.74086 0.77427,16.11129 0.30176,6.31914 0.60351,12.63829 0.90526,18.95743 2.33829,50.71457 2.31849,101.50113 1.91997,152.25585 -0.36208,55.77571 -2.9851,111.48269 -6.55528,167.13278 -1.86146,25.88745 -3.89883,51.76165 -5.8259,77.64424 -3.93752,52.88664 70.85547,58.45513 74.79299,5.5685 v 0 c 1.94605,-26.13923 4.00639,-52.26977 5.87926,-78.41441 3.6551,-57.05306 6.33477,-114.16488 6.70665,-171.3462 0.40397,-52.14259 0.41081,-104.31727 -2.00305,-156.41811 -1.04884,-21.96415 -2.51706,-43.94197 -2.65407,-65.93281 4.0765,-52.8761 -70.70161,-58.64113 -74.7781,-5.76503 z"/>
<path d="m 544.76504,565.63881 c 0.0903,-0.66023 0.74775,-1.51518 0.27092,-1.98067 -0.38321,-0.3741 -0.80871,0.71357 -1.13004,1.14198 -1.61256,2.1499 -3.05418,4.42431 -4.66087,6.5786 -2.79022,3.7412 -5.60113,7.46921 -8.52758,11.10484 -12.63472,15.69656 -15.21726,18.07551 -29.55615,34.00214 -6.87822,7.41884 -13.70996,14.88105 -20.63466,22.25653 -7.81991,8.32896 -15.62024,16.67845 -23.59838,24.85597 -25.79342,26.438 -52.57976,51.95817 -79.83195,76.88339 -8.51385,7.78688 -17.16795,15.41901 -25.75193,23.12852 -7.49372,6.59633 -14.98745,13.19267 -22.48118,19.78901 -39.80546,35.04319 9.75309,91.33662 49.55855,56.29343 v 0 c 7.68216,-6.76392 15.36432,-13.52785 23.04649,-20.29177 24.7843,-22.27405 30.09901,-26.76915 54.70119,-50.05883 18.05514,-17.09192 37.78386,-36.29551 55.15395,-54.10878 8.18412,-8.39292 16.18835,-16.95977 24.21004,-25.50806 7.19036,-7.66238 14.28354,-15.41539 21.42531,-23.12309 15.51176,-17.30669 19.60831,-21.31844 33.40812,-38.65474 9.15997,-11.50741 18.86757,-24.04613 24.78065,-37.65517 1.28163,-2.94968 2.00118,-6.11294 3.00178,-9.16941 10.94876,-51.89051 -62.4355,-67.3744 -73.38426,-15.48389 z"/>
<path d="m 600.60015,604.39394 c 13.70246,12.77789 24.91326,28.01711 36.54601,42.63299 24.93032,31.08833 50.53608,61.62135 76.58754,91.77341 19.68906,23.07901 40.23178,45.39856 61.56448,66.96206 12.64575,12.86453 26.33415,24.71675 41.45879,34.59334 3.92773,2.56486 7.98258,4.92954 11.97387,7.39432 15.88429,9.23842 32.32608,17.46858 49.1828,24.78011 7.35114,3.18853 14.81623,6.10762 22.22435,9.16143 49.05354,20.15565 77.55793,-49.21653 28.50438,-69.37218 v 0 c -6.53081,-2.67357 -13.10867,-5.235 -19.59245,-8.02071 -14.09562,-6.05608 -27.84443,-12.87509 -41.15236,-20.50933 -6.73478,-4.07568 -9.32089,-5.43862 -15.45827,-9.85031 -8.61104,-6.18982 -16.38743,-13.42169 -23.84065,-20.94087 -20.15584,-20.34614 -39.52411,-41.44514 -58.11565,-63.23375 -25.39566,-29.38774 -50.35374,-59.14925 -74.65867,-89.44805 -15.59673,-19.58922 -30.74012,-40.0758 -50.28867,-55.97078 -42.46057,-31.7742 -87.39607,28.27412 -44.9355,60.04832 z"/>
</svg>
