<?xml version="1.0" ?>
<svg xmlns="http://www.w3.org/2000/svg" viewBox="0 0 1000 1000">
<path d="m 128.31056,297.85292 c 26.26498,-1.93149 52.60776,-2.73652 78.92123,-3.74409 34.69093,-1.19043 69.37378,-2.97512 104.09099,-3.23603 19.7219,-0.14822 22.33819,0.0919 41.11799,0.65243 5.01826,0.26594 10.03653,0.53188 15.0548,0.79782 52.96054,2.77141 56.8799,-72.12611 3.91936,-74.89752 v 0 c -5.59502,-0.28945 -11.19004,-0.57889 -16.78507,-0.86834 -20.55346,-0.58806 -23.22893,-0.83977 -44.65832,-0.67222 -35.22371,0.2754 -70.41311,2.06181 -105.61014,3.27881 -27.27098,1.04472 -54.57023,1.89426 -81.79025,3.90906 -52.877495,4.05838 -47.138084,78.83845 5.73941,74.78008 z"/>
<path d="m 213.36901,169.85423 c 7.52989,30.25717 9.15216,61.87002 11.41466,92.84753 4.3174,80.39619 1.83525,160.95806 -0.3381,241.38066 -2.34085,81.69552 -6.32833,163.32952 -9.81167,244.98088 -1.13131,27.06812 -2.28107,54.14433 -4.31156,81.16358 -0.7319,9.73912 -1.86734,23.17325 -3.30722,33.14258 -0.48788,3.37801 -1.22501,6.71529 -1.83752,10.07293 -0.60732,1.64001 -0.97385,3.39058 -1.82195,4.92001 -0.14094,0.25417 -0.95878,0.20988 -0.86933,-0.0666 0.5839,-1.8052 1.33519,-3.62761 2.53869,-5.09434 1.66848,-2.03339 3.94967,-3.47481 5.92127,-5.21589 0.64828,-0.57248 2.05121,-0.86731 1.93834,-1.72478 -0.12527,-0.95167 -1.58597,-1.08173 -2.37895,-1.6226 -9.4944,-3.61744 -18.01364,-9.10016 -26.52477,-14.53566 -45.01197,-28.04323 -84.671082,35.61331 -39.65911,63.65654 v 0 c 4.88097,2.99229 9.63354,6.20491 14.64292,8.97688 16.42429,9.08848 17.35333,8.62189 35.16691,15.09303 15.49672,2.62852 24.67089,6.02668 40.40013,1.35158 15.79262,-4.69395 24.41957,-11.47633 33.5901,-24.59459 6.33765,-9.06586 7.96508,-17.82724 10.91988,-28.14009 0.82264,-4.79452 1.78657,-9.56694 2.46793,-14.38358 1.56256,-11.04603 2.83385,-25.98571 3.6481,-36.86961 2.0655,-27.60885 3.25449,-55.27434 4.40798,-82.93274 3.49984,-82.04186 7.50527,-164.06632 9.85249,-246.15272 2.23827,-82.93109 4.75336,-166.00798 0.16342,-248.90656 -1.83177,-24.74638 -2.20631,-33.81681 -5.02643,-57.65501 -1.9038,-16.09266 -4.30224,-32.21296 -8.42773,-47.90536 -0.58509,-2.22557 -1.32425,-4.40775 -1.98638,-6.61162 -17.55435,-50.043431 -88.32645,-25.21783 -70.7721,24.8256 z"/>
<path d="m 116.08811,778.88832 c 2.06991,-2.49774 4.17273,-4.96856 6.20972,-7.49321 2.86677,-3.55309 26.87299,-33.8634 26.96663,-33.98014 16.72748,-20.85348 30.06415,-37.21205 47.68413,-57.82157 10.14953,-11.87158 20.51161,-23.55978 30.76742,-35.33966 34.06857,-38.31135 69.45464,-75.43245 106.01977,-111.36652 11.79033,-11.58686 23.83201,-22.91516 35.74801,-34.37274 38.22178,-36.76404 -13.77043,-90.81781 -51.99222,-54.05376 v 0 c -12.29729,11.83226 -24.7249,23.53055 -36.89188,35.49677 -37.74997,37.12706 -74.28504,75.47692 -109.4568,115.05722 -10.56745,12.14497 -21.2442,24.1957 -31.70236,36.43491 -18.11575,21.20091 -31.76217,37.94794 -48.952505,59.37855 -8.712214,10.86122 -17.220257,21.88541 -25.953511,32.72972 -1.830201,2.27261 -3.720662,4.49602 -5.580994,6.74403 -34.355773,40.40026 22.77882,88.98666 57.13459,48.5864 z"/>
<path d="m 376.3751,168.88001 c 1.23758,17.94943 2.81298,35.93608 6.19253,53.63152 1.26883,6.64367 2.91579,13.2095 4.37369,19.81425 4.4291,17.74234 10.07065,35.13876 15.63295,52.5464 16.15111,50.51378 87.58838,27.67266 71.43727,-22.84111 v 0 c -4.89403,-15.29602 -9.87241,-30.57627 -13.89161,-46.13363 -1.16432,-5.07568 -2.48768,-10.11749 -3.49295,-15.22705 -3.08432,-15.67682 -4.37646,-31.64107 -5.47377,-47.55537 -4.07647,-52.87611 -78.85457,-47.11111 -74.77811,5.76499 z"/>
<path d="m 535.53951,196.15002 c 24.00285,-7.43703 48.12761,-14.55546 72.64699,-20.11784 7.60587,-1.72543 15.26778,-3.1938 22.90167,-4.7907 31.15875,-5.80932 62.73318,-9.5074 94.40399,-10.88314 16.96902,-0.73712 21.84204,-0.44921 38.30387,-0.22071 16.99266,0.75857 34.24393,1.74342 50.64571,6.60085 0.32257,0.12431 2.07685,0.77888 2.54309,1.02421 0.10254,0.054 -0.2336,-0.0294 -0.33873,-0.0781 -0.79594,-0.36871 -1.64133,-0.66322 -2.35687,-1.17064 -2.43701,-1.72821 -5.30264,-3.10157 -7.06717,-5.51242 -3.73143,-5.09815 -6.08392,-11.07451 -9.12588,-16.61176 -0.30586,-2.36617 -0.12238,-4.84907 -0.91757,-7.09851 -0.30042,-0.84983 -0.39613,1.76074 -0.66525,2.62099 -0.6835,2.18483 -1.40037,4.36047 -2.19092,6.50888 -3.46207,9.40854 -7.43854,19.25596 -11.63471,28.29729 -2.96781,6.39461 -6.22723,12.64979 -9.34084,18.97468 -15.23214,28.62678 -7.50952,13.9882 -23.15465,43.92274 -24.56325,47.00156 41.907,81.73924 66.47025,34.73768 v 0 c 15.79628,-30.2284 7.78213,-14.99853 24.04727,-45.68705 3.63851,-7.46933 7.44919,-14.85721 10.91551,-22.40798 4.56222,-9.93802 11.04118,-25.7087 14.55553,-36.3577 1.97935,-5.99774 5.4038,-17.6804 5.77049,-24.77463 0.23823,-4.60885 -0.26102,-9.22632 -0.39153,-13.83948 -3.25604,-6.57857 -5.62424,-13.67703 -9.76812,-19.73571 -2.11557,-3.09312 -5.62095,-4.97377 -8.64543,-7.18635 -5.00477,-3.661262 -12.5521,-5.730706 -18.31909,-7.802603 -22.99755,-6.344359 -46.2556,-8.807449 -70.09667,-9.418609 -19.09448,-0.214418 -24.30588,-0.526536 -43.95272,0.363208 -35.27137,1.59733 -70.42816,5.78696 -105.11714,12.338706 -8.48081,1.790346 -16.99166,3.443908 -25.44244,5.371038 -25.54004,5.82419 -50.69394,13.18736 -75.70267,20.94063 -50.90672,14.86624 -29.8827,86.85922 21.02403,71.99299 z"/>
<path d="m 500.58366,243.23657 c -1.47189,1.38647 -0.40575,0.28585 -2.18342,4.50316 -4.2432,10.06645 -5.78807,14.4395 -10.98288,24.77137 -6.30045,12.53084 -12.22863,22.28012 -19.32992,34.51867 -11.88832,19.36068 -25.69859,37.41938 -39.26201,55.60832 -31.68988,42.52354 28.4475,87.33979 60.13737,44.81625 v 0 c 15.28116,-20.51728 30.78056,-40.93109 44.03658,-62.85545 3.98924,-6.90818 8.10344,-13.74569 11.96771,-20.72454 7.962,-14.37932 11.94346,-22.2235 18.31609,-36.85723 3.66971,-8.42689 7.92991,-18.99699 10.30374,-27.96415 0.85114,-3.21517 1.1712,-6.54793 1.7568,-9.82189 4.23875,-52.86334 -70.5213,-58.85785 -74.76006,-5.99451 z"/>
<path d="m 675.88219,313.91994 c 8.91154,6.85808 16.7386,14.98959 24.69153,22.90137 12.62557,12.56025 7.62841,7.48146 19.62818,20.07808 7.36366,7.90617 14.20658,16.28498 19.94661,25.45074 1.31608,2.10153 2.48374,4.29243 3.72561,6.43865 27.02874,45.62836 91.55698,7.40395 64.52825,-38.22441 v 0 c -2.09676,-3.48987 -4.07492,-7.05379 -6.29028,-10.46959 -8.10694,-12.49985 -17.47748,-24.09521 -27.6486,-34.97067 -12.8658,-13.46418 -8.23766,-8.79854 -21.12605,-21.60373 -10.49648,-10.42873 -20.95735,-20.98939 -32.83126,-29.88061 -42.62452,-31.55393 -87.24851,28.72624 -44.62399,60.28017 z"/>
<path d="m 424.66042,572.87607 c 22.45734,-5.77369 45.02598,-11.07444 67.84021,-15.26478 9.61914,-1.76677 19.28166,-3.28858 28.92248,-4.93287 44.55349,-6.71712 89.39262,-12.00213 134.41651,-14.20736 26.83897,-1.31455 35.26771,-1.00165 61.69981,-0.99931 26.93078,0.14686 53.76476,2.33035 80.4826,5.52746 52.66351,6.2494 61.5015,-68.22804 8.838,-74.47745 v 0 c -29.66921,-3.49497 -59.46042,-5.92504 -89.36088,-6.05 -28.74261,0.0321 -37.4228,-0.29637 -66.62285,1.16371 -47.59797,2.38003 -95.00297,7.96233 -142.09927,15.1168 -10.32451,1.77105 -20.67253,3.41015 -30.97354,5.31316 -23.97048,4.42829 -47.69162,9.98427 -71.29479,16.04035 -51.45636,12.8352 -33.30464,85.60549 18.15172,72.77029 z"/>
<path d="m 582.70637,374.88934 c -0.0394,26.99663 0.17227,53.99273 0.29541,80.98895 0.38446,67.79146 0.34998,135.58058 -0.4845,203.36806 -0.9418,56.30787 -3.56168,112.63469 -9.94791,168.60993 -0.99514,8.72242 -2.22215,17.41683 -3.33323,26.12524 -1.0991,7.20777 -2.19819,14.41553 -3.29729,21.6233 -7.96782,52.43104 66.18086,63.69924 74.14869,11.2682 v 0 c 1.18323,-7.81072 2.36645,-15.62145 3.54968,-23.43217 1.18179,-9.32584 2.48535,-18.63705 3.54537,-27.97751 6.60464,-58.19736 9.35755,-116.75465 10.32903,-175.29515 0.8372,-68.20882 0.87784,-136.41925 0.48938,-204.63205 -0.12265,-26.88218 -0.3339,-53.76422 -0.29463,-80.6468 0,-53.03301 -75,-53.03301 -75,0 z"/>
<path d="m 567.10551,533.59046 c -9.76121,20.29201 -23.89615,38.24336 -39.02338,54.79071 -6.33314,6.92769 -12.99227,13.55016 -19.48841,20.32524 -7.9412,7.94135 -15.85035,15.91487 -23.8236,23.82403 -20.12646,19.9647 -32.76573,32.52079 -53.82522,51.70878 -26.5723,24.2109 -54.24944,47.09018 -82.00847,69.90975 -7.20806,5.82346 -14.41612,11.64692 -21.62417,17.47039 -41.25051,33.33009 5.88536,91.66713 47.13587,58.33703 v 0 c 7.37422,-5.9589 14.74843,-11.9178 22.12264,-17.8767 29.02251,-23.86991 57.93281,-47.82318 85.70473,-73.15802 21.49942,-19.61279 35.05389,-33.03399 55.54345,-53.37405 8.37489,-8.31377 16.6792,-16.69834 25.01879,-25.04752 7.43427,-7.81436 15.08198,-15.43105 22.30279,-23.44307 18.57097,-20.60586 35.76497,-43.00499 48.0429,-67.98829 25.08694,-46.72414 -40.99098,-82.20243 -66.07792,-35.47828 z"/>
<path d="m 624.40176,605.66334 c -0.13787,0.24623 -1.6299,-0.39049 -1.40778,0.0229 0.36783,0.68464 1.16231,1.033 1.76778,1.52027 1.86055,1.49732 3.80998,2.88497 5.62901,4.43247 6.18894,5.26509 12.44328,11.41764 18.2693,16.96349 25.84342,25.24606 49.50823,52.6263 73.40158,79.69861 15.2657,17.36534 30.41775,34.94842 47.56451,50.52053 3.05346,2.77305 6.23542,5.40121 9.35313,8.10182 29.9839,23.9141 67.05826,34.79707 103.1428,45.78555 8.09109,2.30129 16.18219,4.60258 24.27329,6.90388 51.01337,14.49606 71.5139,-57.64775 20.50052,-72.14381 v 0 c -7.65878,-2.17422 -15.31757,-4.34845 -22.97636,-6.52268 -23.13575,-7.00751 -48.99265,-13.78226 -69.78617,-26.59117 -2.15764,-1.32911 -4.1764,-2.87149 -6.2646,-4.30724 -2.18929,-1.86123 -4.43327,-3.65998 -6.56787,-5.5837 -15.58135,-14.04201 -29.14776,-30.11279 -43.00973,-45.79423 -25.36179,-28.73125 -50.50617,-57.76469 -78.0157,-84.48125 -13.86682,-13.11495 -27.76331,-27.13689 -44.84699,-36.12653 -6.92942,-3.64634 -8.90114,-3.90551 -15.60873,-5.79708 -51.90032,-10.90217 -67.31831,62.49596 -15.41799,73.39813 z"/>
</svg>
