<?xml version="1.0" ?>
<svg xmlns="http://www.w3.org/2000/svg" width="1000" height="1000">
<path d="m 128.39221,300.39633 c 25.10066,-5.67456 50.81246,-8.14009 76.37317,-10.72555 34.85003,-3.13756 69.74073,-5.89058 104.70093,-7.4511 17.89906,-0.79897 27.11787,-0.95827 44.69213,-1.4097 6.53985,-0.0763 13.07969,-0.15256 19.61953,-0.22884 53.02929,-0.62837 52.14064,-75.6231 -0.88865,-74.99473 v 0 c -6.88835,0.0828 -13.7767,0.16567 -20.66505,0.24851 -18.46921,0.47842 -27.81022,0.6388 -46.65964,1.48631 -36.18832,1.62711 -72.30609,4.4699 -108.37965,7.73362 -21.32885,2.17562 -42.55794,4.39604 -63.70245,7.99265 -8.57055,1.45782 -17.11445,3.02662 -25.53102,5.22663 -1.97898,0.51729 -3.89461,1.25211 -5.84191,1.87816 -49.670032,18.58461 -23.387426,88.82865 26.28261,70.24404 z"/>
<path d="m 205.07393,123.2065 c 3.63823,26.11729 4.11027,52.59167 5.19601,78.9065 2.03051,53.45182 5.53072,106.83827 7.44077,160.29506 0.43486,12.17059 0.7186,24.34612 1.07791,36.51917 1.65659,72.54491 0.51751,145.11004 -1.50276,217.63285 -1.74898,52.83589 -4.06271,105.64982 -5.5451,158.49445 -0.58089,22.12117 -0.9465,44.24769 -1.06646,66.37609 -2.09177,-6.44583 -2.67212,-7.80768 6.87973,-18.4659 5.14736,-5.74357 13.01711,-8.29193 19.75074,-12.05252 1.09805,-0.61324 4.58848,-0.18729 3.6358,-1.00837 -2.02269,-1.74329 -5.10877,-1.56048 -7.6316,-2.43549 -4.10165,-1.42259 -8.15871,-2.97066 -12.23806,-4.456 -16.7304,-6.8328 -32.7409,-15.26714 -48.86899,-23.37791 -47.38343,-23.81829 -81.067579,43.19199 -33.68415,67.01028 v 0 c 18.8378,9.46519 37.5591,19.27157 57.22219,26.96043 7.57294,2.6874 22.57861,8.40797 30.88583,9.91993 6.20474,1.1293 12.679,3.38057 18.81987,1.94399 10.15323,-2.37522 20.68615,-6.04374 28.45174,-13.00258 10.8346,-9.70902 10.71242,-19.13151 11.77581,-30.63139 0.11566,-21.56263 0.47367,-43.1234 1.0381,-64.67899 1.48042,-52.84978 3.80665,-105.66841 5.54553,-158.50974 2.05595,-73.95749 3.20737,-147.95832 1.49895,-221.93787 -0.37048,-12.48487 -0.66455,-24.97223 -1.11144,-37.4546 -1.91312,-53.43699 -5.40088,-106.80413 -7.4383,-160.23594 -0.58325,-14.10707 -1.184,-30.06836 -1.98332,-44.25236 -0.77677,-13.78379 -1.66345,-27.60729 -3.77648,-41.26362 -0.38204,-2.46906 -0.89515,-4.91605 -1.34273,-7.37407 -12.07639,-51.639723 -85.10599,-34.561123 -73.02959,17.0786 z"/>
<path d="m 110.85696,689.47045 c 2.32216,-1.82666 4.72801,-3.55167 6.96648,-5.47998 2.28412,-1.96763 4.42127,-4.10033 6.58807,-6.19646 4.32946,-4.18824 19.7564,-19.59799 22.74795,-22.42781 17.64166,-16.68796 20.90138,-18.92274 40.61068,-35.58286 28.80111,-23.36613 58.67875,-45.37023 88.96874,-66.75687 21.18949,-14.96111 40.98924,-28.69106 63.07313,-42.29321 10.21653,-6.29267 20.72079,-12.10574 31.08119,-18.15862 45.76252,-26.80097 7.86022,-91.51894 -37.9023,-64.71797 v 0 c -11.32006,6.64436 -22.79218,13.03618 -33.96017,19.93307 -22.9872,14.19596 -44.00555,28.74901 -66.05805,44.3309 -31.90867,22.54608 -63.37153,45.75838 -93.67636,70.43256 -8.37013,7.10248 -16.86832,14.05673 -25.11038,21.30744 -15.000575,13.19632 -19.842885,18.24331 -33.034607,31.26056 -2.798131,2.76112 -5.581564,5.53716 -8.387803,8.29004 -1.290488,1.26595 -2.800882,2.33271 -3.902192,3.76627 -0.419431,0.54597 1.196317,-0.68178 1.794476,-1.02268 -44.770904,28.42651 -4.569754,91.74213 40.201146,63.31562 z"/>
<path d="m 572.26696,148.93219 c 15.64254,6.36007 29.99371,15.61247 44.29447,24.49953 13.90525,9.00679 7.00688,4.30546 20.68435,14.11974 43.18081,30.78827 86.722,-30.27862 43.54119,-61.06689 v 0 c -16.87644,-11.97271 -8.63045,-6.40764 -24.68035,-16.78022 -18.96891,-11.755738 -38.10758,-23.769296 -59.11276,-31.578802 -50.06785,-17.484562 -74.79476,53.322082 -24.7269,70.806642 z"/>
<path d="m 418.90049,240.23191 c 5.45301,23.76161 13.51647,46.84231 21.19416,69.95368 4.09154,12.05496 7.85226,24.2167 11.58738,36.38524 15.56866,50.69632 87.26409,28.67891 71.69543,-22.01741 v 0 c -3.90568,-12.71234 -7.83781,-25.41761 -12.10789,-38.01378 -6.60034,-19.86604 -13.45748,-39.69548 -18.6284,-59.99393 -9.67761,-52.14254 -83.41829,-38.45633 -73.74068,13.6862 z"/>
<path d="m 555.00921,271.68526 c 27.42918,-9.88089 56.3399,-14.7204 84.94262,-19.8185 34.14626,-5.45138 68.51743,-9.81982 103.06682,-11.63984 20.43092,-1.07628 25.06252,-0.79883 44.99983,-0.73973 24.04202,0.43765 48.09108,2.43689 71.59552,7.62121 3.22688,0.75224 6.46107,1.53845 9.60505,2.59741 0.14442,0.0486 0.55907,0.24132 0.41472,0.19243 -0.61017,-0.20664 -1.24512,-0.36428 -1.81412,-0.66636 -2.03296,-1.07931 -3.98106,-2.3114 -5.97159,-3.46711 -3.96294,-5.11805 -9.18925,-9.47098 -11.88883,-15.35414 -2.22177,-4.84191 -1.72543,-10.51615 -2.40657,-15.79975 -0.10442,-0.81005 0.84414,-2.65627 0.054,-2.44966 -1.183,0.30931 -1.425,1.98756 -2.12394,2.99088 -2.14936,3.08538 -4.22677,6.22132 -6.42086,9.27506 -3.59215,4.99956 -7.29083,9.92172 -10.93624,14.88257 -21.69842,26.41876 -8.1486,10.34337 -33.08208,38.7469 -6.91168,7.87359 -13.79482,15.7722 -20.69223,23.65829 -34.91387,39.91893 21.54002,89.29461 56.4539,49.37568 v 0 c 6.84841,-7.83024 13.68841,-15.66785 20.54523,-23.49073 26.91377,-30.70563 13.09637,-14.26954 37.29046,-43.98551 7.23916,-9.91925 16.57078,-22.10158 22.85799,-32.8692 8.08608,-13.8484 14.78172,-30.4178 8.6457,-46.77357 -2.57432,-6.86194 -8.55386,-11.90314 -12.83079,-17.8547 -2.59816,-1.61886 -5.11228,-3.38116 -7.7945,-4.85659 -1.47745,-0.81271 -3.08059,-1.37547 -4.65108,-1.98942 -6.25127,-2.44384 -12.87884,-3.83781 -19.36693,-5.46048 -8.25906,-1.76794 -10.60771,-2.37401 -19.39792,-3.76749 -22.47263,-3.56249 -45.21469,-5.13012 -67.95152,-5.5556 -22.45329,-0.0163 -27.50513,-0.31516 -50.4346,0.92721 -37.19535,2.01533 -74.20322,6.70388 -110.96125,12.62225 -33.58462,6.0181 -67.48687,11.94092 -99.54739,23.99131 -49.25507,19.65803 -21.45441,89.31522 27.80065,69.65718 z"/>
<path d="m 541.62767,329.93865 c -0.89418,-0.626 -0.27019,-0.29501 -1.32624,2.11152 -4.08603,9.31126 -3.55395,9.25072 -9.03494,19.63686 -7.50678,14.2249 -9.72253,16.92555 -18.81257,31.00414 -13.88634,19.61425 -28.74349,38.51207 -43.25352,57.66348 -32.02568,42.27122 27.75485,87.56237 59.78053,45.29115 v 0 c 15.69593,-20.71798 31.81041,-41.13378 46.6275,-62.50086 4.33212,-6.8069 8.86374,-13.49087 12.99637,-20.4207 6.64267,-11.1388 12.63641,-22.67159 17.83624,-34.55347 3.96737,-9.06564 6.86737,-16.80075 9.01089,-26.42118 0.60222,-2.70289 0.72698,-5.4904 1.09047,-8.2356 2.52814,-52.97272 -72.38659,-56.54805 -74.91473,-3.57534 z"/>
<path d="m 721.87718,365.23801 c 1.3698,1.24103 2.77425,2.44485 4.10939,3.72309 3.78697,3.62556 8.13784,8.28761 11.60669,12.02153 8.9887,9.67555 17.75787,19.51635 26.38258,29.51632 9.37993,12.25952 20.00912,24.40055 25.57397,39.03966 0.49726,1.30812 0.83464,2.67155 1.25195,4.00733 0.20185,0.97908 0.40369,1.95817 0.60553,2.93725 13.2028,51.36328 85.84144,32.69169 72.63864,-18.67159 v 0 c -0.84172,-3.08068 -1.68343,-6.16136 -2.52514,-9.24204 -3.60355,-9.76506 -3.96468,-11.66815 -8.91519,-21.13623 -8.66296,-16.56831 -20.12122,-31.49896 -31.86925,-45.95728 -15.60208,-18.04223 -31.35965,-36.11276 -48.97027,-52.23891 -39.5986,-35.27678 -89.4875,20.72409 -49.8889,56.00087 z"/>
<path d="m 537.02416,602.47029 c 23.0739,-6.89759 47.07664,-9.77496 70.89146,-12.77578 37.83477,-3.68467 75.94409,-4.65718 113.93166,-3.31556 6.18161,0.21832 12.35537,0.62011 18.53305,0.93016 5.79549,0.5156 11.59099,1.03121 17.38648,1.54681 52.83153,4.6184 59.36293,-70.09666 6.53141,-74.71507 v 0 c -6.73882,-0.58011 -13.47764,-1.16023 -20.21645,-1.74034 -6.86946,-0.33464 -13.73483,-0.76763 -20.60838,-1.00393 -41.68148,-1.43289 -83.49474,-0.28741 -124.99412,3.89393 -28.63753,3.65314 -57.48012,7.34017 -85.12426,16.01257 -50.32282,16.73662 -26.65367,87.90382 23.66915,71.16721 z"/>
<path d="m 598.8718,584.68446 c 3.75933,24.97471 4.66176,50.29722 5.67956,75.49961 0.88173,31.14023 0.79529,62.37969 -2.09707,93.42554 -0.71966,7.7246 -1.78267,15.41336 -2.67401,23.12004 -6.01127,52.69122 68.50537,61.19244 74.51664,8.50122 v 0 c 0.99176,-8.79936 2.17363,-17.57937 2.97527,-26.39809 3.0726,-33.80114 3.20477,-67.80344 2.21699,-101.70227 -1.20431,-29.31154 -2.25771,-58.80568 -7.20075,-87.7757 -10.8397,-51.9134 -84.25633,-36.58375 -73.41663,15.32965 z"/>
<path d="m 455.4086,853.33577 c 24.17892,-7.6228 49.3999,-11.14052 74.40456,-14.81346 37.49424,-4.97561 75.29528,-7.18818 113.09634,-7.82577 25.97851,-0.43817 40.14751,-0.1077 66.15383,0.16909 30.92886,0.47044 61.83233,1.87871 92.71639,3.54228 13.18616,0.71027 35.19607,1.91146 48.74586,3.17739 6.81957,0.63714 13.60919,1.56196 20.41378,2.34294 52.69549,5.97379 61.14369,-68.54888 8.4482,-74.52266 v 0 c -7.77624,-0.87197 -15.53717,-1.89354 -23.32874,-2.61589 -14.00889,-1.29876 -36.74575,-2.54731 -50.4827,-3.28564 -31.88654,-1.71381 -63.79336,-3.15508 -95.72599,-3.63429 -27.19187,-0.2813 -41.89807,-0.6232 -69.12319,-0.14145 -40.73627,0.72083 -81.46838,3.18002 -121.86647,8.59805 -30.21229,4.47993 -60.70631,8.90431 -89.73432,18.76531 -49.67007,18.5845 -23.38763,88.82859 26.28245,70.2441 z"/>
</svg>
