<?xml version="1.0" ?>
<svg xmlns="http://www.w3.org/2000/svg" width="1000" height="1000">
<path d="m 91.537618,325.07629 c 25.864952,-2.19413 51.807932,-3.00891 77.749462,-3.61046 41.82275,-0.48242 83.64132,0.76323 125.45401,1.54241 5.85459,0.24498 11.70917,0.48997 17.56376,0.73496 52.98784,2.18827 56.08253,-72.74785 3.09469,-74.93613 v 0 c -6.42037,-0.26194 -12.84074,-0.52388 -19.2611,-0.78582 -42.86254,-0.7987 -85.73146,-2.07572 -128.60433,-1.53493 -27.27149,0.64252 -54.54434,1.51006 -81.735891,3.8099 -52.877497,4.05836 -47.138098,78.83844 5.739399,74.78007 z"/>
<path d="m 172.49692,137.32495 c 1.68709,33.03657 2.51053,66.10887 3.45322,99.17264 2.3072,77.35608 2.52203,154.75181 2.76807,232.13543 0.1609,87.20915 -0.57282,174.41749 -1.91854,261.61557 -0.99364,54.81299 -1.76467,109.63584 -3.35668,164.43587 -0.22154,4.79876 -0.4848,15.79442 -1.46148,21.35982 -0.11402,0.64966 -1.03213,2.40318 -0.91631,1.75384 1.37978,-7.73561 3.60093,-11.13381 11.08705,-16.5628 3.10063,-2.2486 7.1134,-2.84251 10.67011,-4.26377 0.22235,-0.38938 1.02631,-0.89982 0.66706,-1.16814 -1.90522,-1.42302 -4.30232,-2.02977 -6.41361,-3.12398 -3.56725,-1.84877 -7.13589,-3.70036 -10.61889,-5.70332 -14.53096,-8.35628 -27.99144,-18.12079 -41.53668,-27.95574 -42.955124,-31.10236 -86.940512,29.64536 -43.985386,60.74772 v 0 c 16.508446,11.92421 32.811056,23.65334 50.629736,33.59722 8.18602,4.56828 22.32376,11.83674 31.45695,14.59117 6.17236,1.86149 12.61374,2.67327 18.92061,4.0099 8.21266,-1.36661 17.02612,-0.72715 24.63798,-4.09983 7.38849,-3.27371 13.61147,-9.07504 18.89577,-15.1892 3.95761,-4.57913 6.07524,-10.52987 8.22298,-16.18834 1.59951,-4.21413 2.21933,-8.74995 2.93197,-13.20074 1.1252,-7.02741 1.47206,-19.63209 1.78066,-26.43097 1.59449,-55.13893 2.38685,-110.30004 3.37924,-165.45199 1.35149,-87.66317 2.0905,-175.33661 1.92708,-263.0109 -0.24837,-78.01671 -0.47103,-156.04551 -2.79816,-234.03441 -0.9657,-33.86742 -1.81043,-67.74385 -3.56073,-101.5824 -3.21547,-52.935444 -78.07748,-48.388091 -74.86202,4.54735 z"/>
<path d="m 75.025411,743.11553 c 19.912096,-24.40809 40.309299,-48.46684 61.588979,-71.69955 7.68155,-8.38655 15.57478,-16.57673 23.36218,-24.8651 44.66888,-44.97742 92.81639,-86.45347 143.45838,-124.56165 9.14576,-6.8822 18.48073,-13.5093 27.72109,-20.26395 8.58273,-5.67368 17.16545,-11.34736 25.74818,-17.02104 44.20236,-29.30275 2.76201,-91.81433 -41.44035,-62.51157 v 0 c -9.53046,6.33397 -19.06093,12.66794 -28.59139,19.00191 -9.77241,7.15487 -19.64476,14.17518 -29.31722,21.4646 -53.78219,40.53172 -104.89496,84.66481 -152.25834,132.55812 -8.241667,8.78551 -16.591785,17.47054 -24.725013,26.35654 -21.79545,23.81273 -42.700246,48.46082 -63.110143,73.4644 -33.995783,40.70364 23.567864,88.78094 57.563647,48.07729 z"/>
<path d="m 503.35113,101.4754 c 0.005,-0.12041 0.0953,-0.45176 0.0158,-0.36123 -6.96208,7.92339 -13.15332,16.58727 -19.86132,24.72171 -11.19086,13.57058 -12.80122,15.1509 -24.98444,28.97069 -18.88714,21.72977 -39.41501,41.88968 -60.32654,61.64023 -38.53631,36.43423 12.98948,90.9328 51.52578,54.49856 v 0 c 22.55131,-21.34131 44.6918,-43.12172 65.08532,-66.57016 4.93719,-5.61139 9.93551,-11.16958 14.81158,-16.83417 12.78846,-14.85654 24.96681,-30.24435 36.96773,-45.73602 28.51734,-44.713096 -34.71653,-85.042705 -63.23387,-40.32961 z"/>
<path d="m 363.39585,249.12261 c 1.58608,28.99831 2.94427,58.00842 3.90829,87.03396 1.37051,51.82032 -2.93596,103.58869 -9.906,154.90153 -1.62869,11.9903 -3.55333,23.93852 -5.32999,35.90779 -8.12848,46.76981 -19.74915,92.96283 -33.9203,138.26391 -7.76966,24.83737 -11.80084,35.02156 -20.59264,59.0692 -3.41832,8.93043 -6.83664,17.86087 -10.25497,26.79131 -18.95047,49.5316 51.09779,76.33162 70.04827,26.80002 v 0 c 3.55344,-9.29196 7.10689,-18.58391 10.66034,-27.87587 9.59153,-26.31862 13.60097,-36.40326 22.10161,-63.65689 15.16479,-48.61932 27.53134,-98.20336 36.14845,-148.40395 1.86102,-12.59287 3.87935,-25.1635 5.58305,-37.77862 7.45016,-55.16483 11.92637,-110.82098 10.42043,-166.52074 -1.00159,-29.85824 -2.37985,-59.70218 -4.03339,-89.53167 -3.53555,-52.91503 -78.3687,-47.915 -74.83315,5.00002 z"/>
<path d="m 495.5586,347.7395 c 16.15709,-5.2289 32.64512,-9.23304 49.19421,-12.98641 13.3666,-2.88275 26.85944,-5.41204 40.52103,-6.30803 0.84816,-0.0331 3.23924,-0.14803 4.27272,-0.12276 0.12604,0.003 -0.24834,0.0674 -0.37397,0.0568 -1.62746,-0.13742 -3.35647,0.10349 -4.87417,-0.49989 -5.58938,-2.22212 -11.67863,-3.95549 -16.22846,-7.8897 -4.58216,-3.96216 -6.83348,-10.00417 -10.25023,-15.00625 -0.32969,-0.99085 -0.43197,-3.85578 -0.98908,-2.97254 -0.77798,1.23341 0.0771,2.91556 0.10538,4.37356 0.063,3.24565 0.14006,6.49118 0.16838,9.73732 0.15926,18.25359 0.002,36.51449 0.006,54.76839 0.008,8.86964 0.0403,17.73929 0.0248,26.60893 -0.0567,32.4463 -0.50502,64.86176 -1.87231,97.28327 -1.22527,29.05389 -2.30127,44.0912 -4.10448,73.24732 -4.55781,69.8973 -11.04272,139.64463 -18.48741,209.28723 -4.34736,39.91464 -9.89898,79.68329 -16.37224,119.30512 -0.59244,3.4047 -1.96806,11.64243 -2.82698,15.54617 -0.20345,0.92467 -1.12098,3.61379 -0.77407,2.73285 5.71651,-14.51646 0.63995,-11.52994 24.16264,-23.97403 3.23149,-1.70954 7.28826,-0.58436 10.9324,-0.87654 -17.67404,-11.20048 -35.89869,-21.7077 -52.45857,-34.58182 -4.54938,-3.53683 -8.81801,-7.42071 -13.22701,-11.13106 -40.77181,-33.914 -88.73345,23.74605 -47.96164,57.66005 v 0 c 5.84715,4.82072 11.53784,9.83776 17.54146,14.46217 9.48126,7.30313 22.27998,15.72882 32.42164,22.24718 7.09241,4.55851 20.70486,13.1553 28.37742,17.01889 4.75516,2.39451 9.75086,4.27803 14.62629,6.41704 7.68015,0.86559 15.61542,4.74222 23.04045,2.59677 10.77812,-3.11433 20.32295,-10.10978 28.71794,-17.55231 3.76746,-3.34003 4.62211,-8.96486 6.47385,-13.64681 0.91207,-2.30606 1.25226,-4.80047 1.78049,-7.22343 0.95734,-4.39126 2.49578,-13.58983 3.19343,-17.60879 6.68944,-40.98963 12.43634,-82.12947 16.92784,-123.4216 7.55966,-70.75586 14.14605,-141.61799 18.76937,-212.6327 1.85795,-30.10928 2.94574,-45.28969 4.2043,-75.33591 1.76453,-42.12565 2.11862,-84.28589 1.89038,-126.44331 -0.003,-13.6688 0.0379,-27.33758 0.0322,-41.00638 -0.003,-7.87694 7.7e-4,-18.6277 -0.2774,-26.74315 -0.1075,-3.13636 -0.13066,-6.28452 -0.49379,-9.40164 -0.42073,-3.61158 -1.23579,-7.16624 -1.85369,-10.74936 -3.81295,-6.29279 -6.13869,-13.77483 -11.43885,-18.87837 -10.92587,-10.52057 -24.41069,-11.31468 -38.06608,-10.46592 -17.47424,1.27942 -34.77698,4.16742 -51.8724,7.98623 -19.44359,4.42247 -38.8183,9.18444 -57.75694,15.47495 -49.95603,17.80153 -24.78087,88.45003 25.17517,70.6485 z"/>
<path d="m 458.92459,364.27742 c 0.10558,24.95148 0.023,49.89757 -1.00541,74.83287 -0.39583,9.59739 -0.94355,19.18792 -1.41533,28.78187 -3.50249,54.16729 -7.02626,108.44347 -14.78702,162.20645 -1.40182,9.71117 -3.12839,19.37268 -4.69259,29.05902 -8.42012,52.36031 65.62853,64.26816 74.04866,11.90785 v 0 c 1.67889,-10.48076 3.5281,-20.93566 5.03669,-31.44229 7.99893,-55.70882 11.71063,-111.9364 15.30447,-168.06216 0.48927,-10.02858 1.05952,-20.05353 1.46782,-30.08573 1.04693,-25.72353 1.15409,-51.458 1.04271,-77.19788 0,-53.03301 -75,-53.03301 -75,0 z"/>
<path d="m 314.40084,639.22564 c 0.89136,-0.6619 1.76091,-1.35423 2.67408,-1.9857 4.78566,-3.30934 9.18819,-5.91211 14.23015,-9.11377 15.19008,-9.64573 16.16533,-10.51756 32.62608,-20.5009 7.26278,-4.40483 14.59506,-8.69402 21.89259,-13.04103 36.99864,-21.49923 74.33334,-42.50838 112.80283,-61.28772 21.01648,-10.25945 43.08598,-20.0737 64.38579,-29.72304 40.93384,-17.9369 20.61869,-9.32698 60.92996,-25.8663 49.05747,-20.14606 20.56664,-89.52381 -28.49084,-69.37775 v 0 c -42.21171,17.34967 -21.07717,8.37875 -63.39589,26.93096 -23.08194,10.46284 -44.56319,20.00182 -67.35379,31.14734 -39.98511,19.55431 -78.81397,41.37999 -117.27479,63.75065 -7.6686,4.57255 -15.37353,9.08471 -23.0058,13.71766 -16.30477,9.89734 -18.3219,11.39389 -33.10878,20.8026 -9.63768,6.13234 -10.58014,6.48417 -19.02363,12.40148 -1.20947,0.84762 -2.36775,1.76603 -3.55163,2.64905 -42.07036,32.28909 3.59331,91.78556 45.66367,59.49647 z"/>
<path d="m 666.213,210.65564 c 1.3156,24.96252 0.85454,49.97256 0.69217,74.9561 -0.60615,20.92958 -0.31106,28.31865 -3.03491,49.34853 -3.72243,28.73954 -10.44362,57.19101 -18.96661,84.86055 -3.04643,9.89012 -6.59377,19.61895 -9.89065,29.42842 -13.99418,39.35219 -7.07283,19.61041 -20.76217,59.22601 -17.31851,50.12554 53.5697,74.6176 70.88821,24.49207 v 0 c 13.62396,-39.43828 6.62758,-19.45718 21.00418,-59.93802 3.67285,-11.03817 7.63369,-21.98465 11.01853,-33.11451 15.16639,-49.86936 24.7733,-101.57451 24.74184,-153.8164 0.17028,-26.28405 0.61833,-52.59437 -0.7683,-78.85593 -2.41348,-52.97806 -77.33577,-49.56489 -74.92229,3.41318 z"/>
<path d="m 712.48676,245.3244 c 20.36166,-2.42389 40.77752,-4.32287 61.1387,-6.76142 23.65352,-3.02533 47.27291,-6.28824 70.99477,-8.74226 2.46083,-0.23078 8.01766,-0.77187 10.7777,-0.9664 5.1828,-0.36527 1.45923,0.18714 0.16613,-0.10356 -3.54841,-0.7977 -7.01945,-1.90723 -10.52917,-2.86084 -17.28763,-15.33259 -14.70081,-8.51325 -20.45522,-27.60695 -0.31186,-1.03477 0.78903,-3.17787 -0.2905,-3.22918 -1.07614,-0.0511 -0.34652,2.12669 -0.51408,3.19094 -1.13335,7.19837 -1.26881,8.19205 -2.46479,16.11089 -3.30696,23.88217 -6.33006,47.82982 -7.96616,71.8937 -0.39123,5.75432 -0.62851,11.51807 -0.94277,17.2771 -0.99919,27.90167 -0.0936,56.0393 5.60892,83.45405 1.02429,4.92424 2.37252,9.77551 3.55878,14.66326 6.70633,23.87501 19.28512,44.80112 36.19472,62.82423 2.7532,2.93451 5.72656,5.65441 8.58984,8.48161 11.7558,10.81532 24.7331,20.18107 38.21086,28.71217 11.59222,6.93298 24.45588,11.33531 38.65206,5.83311 8.7258,-3.38197 15.68256,-10.58379 21.86798,-17.60646 5.31716,-6.03689 8.76795,-21.951 10.80493,-29.48545 7.32055,-33.57334 9.64425,-67.94817 12.31966,-102.12472 4.13322,-52.8717 -70.63866,-58.71694 -74.77187,-5.84524 v 0 c -2.33613,29.9265 -4.28079,60.01982 -10.23775,89.49917 -0.47633,2.18208 -1.60916,4.32006 -1.429,6.54625 0.0645,0.79675 1.16601,-1.10589 1.83368,-1.54542 5.70762,-3.75737 10.67909,-9.25524 17.2766,-11.03501 6.62525,-1.78725 13.76324,-0.0466 20.5697,0.82545 0.67999,0.0871 8.07168,4.27966 3.0273,1.44084 -9.10313,-5.65387 -17.80223,-11.97982 -25.88077,-19.02574 -10.99597,-10.34809 -19.79108,-20.85246 -24.24261,-35.5861 -0.83836,-3.25775 -1.79789,-6.4867 -2.51508,-9.77325 -4.74081,-21.72481 -5.25071,-44.08846 -4.54605,-66.22748 0.26798,-5.07378 0.46492,-10.1518 0.80394,-15.22133 1.49482,-22.35244 4.32209,-44.59303 7.37249,-66.77726 0.83404,-5.52517 1.7231,-11.04206 2.53278,-16.57086 1.69444,-11.57014 3.08897,-24.19501 -3.86288,-34.82819 -4.23929,-6.4842 -11.24771,-10.65622 -16.87157,-15.98433 -4.21681,-1.29017 -8.35739,-2.86262 -12.65043,-3.87051 -1.91146,-0.44876 -3.90919,-0.39529 -5.87088,-0.47779 -7.30803,-0.30733 -14.59359,0.87125 -21.85809,1.39888 -24.12284,2.50432 -48.14829,5.7749 -72.19949,8.87697 -21.03775,2.53011 -42.144,4.40767 -63.16941,7.0333 -52.46296,7.75486 -41.49593,81.94869 10.96703,74.19383 z"/>
<path d="m 714.16834,590.92107 c 21.29646,-3.84224 42.62912,-7.45087 64.03799,-10.608 22.71547,-3.06737 45.58611,-4.88148 68.5028,-5.235 4.61228,0.002 5.21949,-0.0228 9.43555,0.0605 0.93309,0.0184 1.8665,0.033 2.79876,0.0762 0.22759,0.0105 0.90602,0.0888 0.67821,0.0849 -2.00142,-0.0345 -2.72565,-0.34315 -5.0617,-0.81285 -9.71189,-4.26943 -13.02824,-4.45063 -20.01542,-15.03608 -2.56911,-3.89215 -3.66159,-8.61258 -4.85983,-13.11961 -0.54182,-2.03798 -0.0626,-4.22438 -0.30806,-6.31882 -0.0168,-0.14317 -0.3578,-0.0299 -0.42077,0.0998 -0.78749,1.62132 -1.37111,3.33396 -2.05667,5.00094 -10.83341,26.03127 -21.91526,51.99218 -35.00892,76.98749 -3.85013,7.34976 -7.96087,14.56005 -11.9413,21.84007 -18.98453,32.73038 -40.08655,64.33467 -64.31092,93.44775 -15.80329,18.99254 -19.90707,22.3814 -37.07969,39.67133 -14.31686,13.06862 -21.09332,19.95921 -36.47945,31.35813 -5.74808,4.2585 -11.85063,8.01646 -17.77594,12.02469 -43.75887,29.961 -1.38762,91.84538 42.37125,61.88438 v 0 c 7.53319,-5.20659 15.27668,-10.12133 22.59957,-15.61977 18.05477,-13.55656 25.91697,-21.56702 42.62728,-36.92594 7.23135,-7.3474 14.68477,-14.48265 21.69404,-22.04219 35.83809,-38.65157 65.84347,-82.35094 92.19727,-127.88675 4.41024,-8.10416 8.96199,-16.13289 13.23073,-24.31247 14.13685,-27.08846 26.16823,-55.19193 37.83986,-83.40692 3.79921,-10.148 9.08341,-22.86221 7.37268,-33.99645 -0.90842,-5.91245 -2.28975,-11.97639 -5.30223,-17.1443 -7.28473,-12.49697 -12.09213,-13.17695 -23.18461,-18.44989 -1.99417,-0.47677 -3.96805,-1.04825 -5.98251,-1.43029 -7.98476,-1.51434 -16.22485,-0.78612 -24.28547,-1.02385 -26.17319,0.44949 -52.29835,2.46342 -78.23688,6.03042 -21.99255,3.25523 -43.9137,6.93189 -65.79112,10.88827 -52.26527,8.99121 -39.54977,82.90546 12.7155,73.91425 z"/>
<path d="m 661.79724,689.91124 c -0.77944,-0.54059 -1.3931,-1.5423 -2.33833,-1.62177 -0.67352,-0.0566 0.86472,1.03984 1.32324,1.53642 1.56428,1.69412 3.15456,3.36409 4.74408,5.03454 7.57016,7.95555 15.06134,15.91599 22.37188,24.11399 22.54268,25.96534 43.78123,53.02735 65.39595,79.76236 17.0428,21.55926 34.23518,42.99711 52.9772,63.11134 8.26338,8.29386 16.4581,16.84974 25.90505,23.83907 7.63004,5.64507 9.79638,6.59209 18.03544,11.37191 25.64862,14.13465 54.29082,20.69043 82.60568,27.06815 51.74186,11.63102 68.19057,-61.54301 16.44875,-73.17403 v 0 c -21.07946,-4.72792 -42.62472,-9.04828 -61.96325,-19.08034 -2.24057,-1.22735 -6.06327,-3.21531 -8.31556,-4.78369 -6.66005,-4.63772 -12.10545,-10.85845 -17.91656,-16.44663 -17.58076,-18.7487 -33.4433,-38.97365 -49.45363,-59.05886 -22.39147,-27.69575 -44.39229,-55.73195 -67.79703,-82.58652 -7.76897,-8.6768 -15.68516,-17.14198 -23.71293,-25.57522 -0.87751,-0.92182 -8.51318,-9.06341 -9.30175,-9.79995 -2.03966,-1.90506 -4.2547,-3.61322 -6.38204,-5.41983 -43.6349,-30.14127 -86.26109,31.5678 -42.62619,61.70906 z"/>
</svg>
