<?xml version="1.0" ?>
<svg xmlns="http://www.w3.org/2000/svg" viewBox="0 0 1000 1000">
<path d="m 141.38794,280.86207 c 28.00968,-3.68065 55.96893,-7.74943 84.05266,-10.85306 8.93803,-0.98777 17.89132,-1.83217 26.83697,-2.74826 34.53131,-2.99994 69.23835,-4.85388 103.90015,-3.35577 7.54588,0.32614 15.07481,0.96789 22.61222,1.45183 52.92871,3.32442 57.63014,-71.52808 4.70143,-74.8525 v 0 c -8.56146,-0.52721 -17.11384,-1.23142 -25.68436,-1.58163 -37.76129,-1.54303 -75.56874,0.41668 -113.18401,3.72971 -9.35535,0.96154 -18.71858,1.84938 -28.06607,2.88461 -28.21595,3.1249 -56.31065,7.18958 -84.45115,10.90168 -52.625287,6.56348 -43.343124,80.98687 9.28216,74.42339 z"/>
<path d="m 219.45263,102.26161 c 0.54142,30.98524 1.40438,61.96388 2.06513,92.94675 1.61698,76.6146 0.91123,153.24658 -0.0672,229.86319 -1.44686,90.75104 -4.48515,181.47468 -8.53789,272.14461 -2.78571,53.11805 -6.27789,106.2654 -13.25085,159.02285 -0.81682,6.18007 -1.78647,12.33898 -2.67971,18.50847 -1.15469,6.73974 -2.61538,16.49187 -4.45083,23.46048 -0.34064,1.29331 -1.98741,4.96443 -1.42928,3.74904 1.29134,-2.812 1.23484,-6.58551 3.63097,-8.54342 18.6886,-15.27072 16.97331,-13.62387 32.94778,-13.14454 -24.36253,-18.86663 -48.61631,-37.88028 -72.62807,-57.19606 -41.32472,-33.23804 -88.330409,25.20394 -47.00569,58.44198 v 0 c 15.29021,12.2964 30.65718,24.48952 46.10908,36.58245 5.02074,3.92933 21.65383,16.98452 27.25933,20.86859 4.6568,3.22671 9.54521,6.10562 14.31782,9.15844 7.86564,2.28077 15.46503,7.81323 23.59691,6.84231 11.83848,-1.41349 23.27548,-6.82175 33.07749,-13.6091 5.23055,-3.62185 7.22948,-10.52605 10.02849,-16.23936 1.727,-3.52512 2.47176,-7.45829 3.44439,-11.26131 2.16963,-8.48331 3.90906,-20.00655 5.33288,-28.39881 0.96577,-6.71456 2.01201,-13.41803 2.89732,-20.14367 7.19523,-54.66119 10.85873,-109.71799 13.72724,-164.75121 4.08384,-91.4663 7.15331,-182.98634 8.60651,-274.53445 0.98842,-77.46903 1.69387,-154.95358 0.0563,-232.42048 -0.65009,-30.44971 -1.4793,-60.89537 -2.04806,-91.34675 0,-53.033011 -75,-53.033011 -75,0 z"/>
<path d="m 116.76078,731.17031 c 19.77236,-29.31599 42.47916,-56.6554 66.37927,-82.68345 9.39871,-10.23552 19.1856,-20.1077 28.7784,-30.16156 32.52787,-32.31873 66.85978,-62.82743 102.78674,-91.3222 11.36042,-9.0103 23.0838,-17.55328 34.6257,-26.32992 42.19284,-32.12887 -3.24425,-91.79855 -45.43709,-59.66968 v 0 c -12.31539,9.39014 -24.82288,18.53354 -36.94618,28.17042 -38.23057,30.38967 -74.75472,62.92898 -109.3308,97.41809 -10.28351,10.80923 -20.77411,21.42515 -30.85052,32.42769 -25.94398,28.3285 -50.515502,58.11826 -72.022338,89.97343 -29.823765,43.85252 32.193055,86.02969 62.016818,42.17718 z"/>
<path d="m 576.80563,114.73688 c 10.62964,7.1616 21.90353,13.38763 32.43275,20.73039 3.12141,2.17678 6.14021,4.49713 9.21032,6.7457 3.2628,2.75948 6.5256,5.51896 9.78839,8.27844 40.71513,33.98203 88.77298,-23.59784 48.05786,-57.57988 v 0 c -4.57857,-3.785155 -9.15714,-7.57031 -13.7357,-11.355464 -4.00338,-2.895368 -7.94912,-5.872153 -12.01013,-8.686104 -6.65028,-4.608102 -12.95372,-8.460054 -19.78703,-12.715631 -5.04863,-3.144128 -10.03746,-6.38663 -15.14954,-9.426492 -2.17766,-1.294927 -4.41375,-2.488953 -6.62063,-3.733429 -47.90116,-22.759147 -80.08745,44.983324 -32.18629,67.74247 z"/>
<path d="m 492.28362,242.86237 c 32.42287,-3.16295 64.80108,-6.76111 97.22741,-9.90719 38.97969,-3.49844 78.08548,-6.08754 117.23851,-6.19597 22.51204,-0.0624 28.36478,0.45266 50.1395,1.44876 25.28412,2.00344 13.25691,0.87691 36.09026,3.28609 52.74465,5.52284 60.55512,-69.06937 7.81047,-74.5922 v 0 c -25.62124,-2.66442 -12.11355,-1.42213 -40.53293,-3.61824 -24.04423,-1.06338 -30.10111,-1.60235 -54.91539,-1.51119 -41.10228,0.15099 -82.1555,2.85069 -123.07596,6.53355 -32.76593,3.18155 -65.48299,6.81697 -98.24587,10.01307 -52.71008,5.84353 -44.44608,80.38685 8.264,74.54332 z"/>
<path d="m 496.59465,293.20188 c 1.63447,21.58457 2.95859,43.1899 4.70291,64.76748 0.49439,5.4335 0.98878,10.867 1.48316,16.30051 4.81169,52.81427 79.50235,46.00952 74.69067,-6.80475 v 0 c -0.47285,-5.18315 -0.9457,-10.36629 -1.41855,-15.54944 -1.83907,-22.66865 -3.09732,-45.37875 -5.03991,-68.03686 -6.5924,-52.62167 -81.01068,-43.29861 -74.41828,9.32306 z"/>
<path d="m 669.73121,217.93103 c -0.0649,0.0506 -0.18942,0.0696 -0.1948,0.15175 -0.13374,2.04093 -0.14465,4.08805 -0.21697,6.13208 -0.20649,3.81029 -0.35728,7.62401 -0.61945,11.43087 -0.86729,12.59358 -1.584,21.9288 -3.81194,34.54067 -1.20496,6.82105 -2.87914,13.55084 -4.31871,20.32626 -6.21676,25.47365 -12.56347,50.96933 -21.78217,75.5639 -3.1286,8.34679 -6.82357,16.47018 -10.23536,24.70527 -20.14442,49.05815 49.23428,77.54667 69.3787,28.48852 v 0 c 3.9952,-9.80328 8.31204,-19.48156 11.98559,-29.40986 10.13689,-27.39641 17.27148,-55.73773 24.08642,-84.09767 1.73973,-8.53365 3.7594,-17.01497 5.21917,-25.60093 2.46724,-14.51158 3.40342,-26.0924 4.37215,-40.52736 0.32984,-4.91489 0.95796,-16.97979 0.93434,-22.66274 -0.0109,-2.60978 -0.20864,-5.21544 -0.31295,-7.82316 -6.2101,-52.66816 -80.69412,-43.88576 -74.48402,8.7824 z"/>
<path d="m 335.13807,436.56951 c 1.26672,30.63805 3.19912,61.24302 5.08911,91.8473 4.51156,67.14154 8.01829,134.34362 11.77494,201.53005 2.65643,45.4149 4.82491,90.85688 5.9775,136.33526 1.35018,53.01582 76.32587,51.10638 74.97569,-1.90944 v 0 c -1.18306,-46.23769 -3.36123,-92.43958 -6.07016,-138.61281 -3.76478,-67.33191 -7.27997,-134.67945 -11.80061,-201.96641 -1.88104,-30.4531 -3.79911,-60.90689 -5.06246,-91.39346 -2.94829,-52.951 -77.8323,-48.78148 -74.88401,4.16951 z"/>
<path d="m 472.2443,486.14811 c 3.19629,-0.14234 6.40419,-0.11976 9.58886,-0.42702 6.86268,-0.66212 17.25163,-2.73795 23.73351,-3.94663 5.5933,-1.04298 11.17773,-2.13366 16.77533,-3.15332 21.83358,-3.9772 21.71492,-3.8415 44.55207,-7.55729 44.58404,-6.89672 89.61179,-11.20645 134.73202,-12.07024 8.26316,-0.15819 16.52928,-0.0515 24.79392,-0.0773 31.87069,0.14762 63.70692,2.60159 95.04566,8.43822 5.10343,0.98401 10.13204,2.29861 15.1266,3.72441 1.67137,0.47713 3.55455,0.92023 5.17976,1.56804 -11.236,-5.25863 -9.86129,-3.38968 -19.72724,-16.51309 -1.37518,-1.82922 -1.34953,-4.44089 -2.61389,-6.34838 -0.3904,-0.58897 -0.1735,1.40456 -0.19492,2.11084 -0.0815,2.68754 -0.0474,5.37756 -0.11365,8.06551 -0.10287,4.17076 -0.26255,8.33992 -0.39382,12.50989 -1.28062,44.33216 -3.85351,88.59338 -7.37274,132.79958 -4.94554,54.44017 -11.66896,108.70641 -18.20294,162.97493 -3.23682,25.82664 -6.57011,51.6803 -11.98638,77.15891 -2.26435,10.6517 -3.00391,12.97945 -5.65447,22.94961 -1.56633,5.04241 -2.37713,8.2384 -4.37756,12.88494 -0.39453,0.9164 -0.43049,2.37007 -1.3875,2.65215 -0.85325,0.25149 0.34892,-1.81652 0.90581,-2.51017 7.58206,-9.44418 6.41574,-7.41975 17.22074,-12.24897 -0.21765,-0.47958 -0.17491,-1.21771 -0.65295,-1.43873 -3.43282,-1.58719 -7.16133,-2.44133 -10.68883,-3.80519 -5.26233,-2.0346 -10.49584,-4.14816 -15.67426,-6.38773 -23.00344,-9.94858 -45.49894,-21.14521 -68.14186,-31.87351 -47.92573,-22.70738 -80.03881,45.06983 -32.11308,67.77721 v 0 c 23.98297,11.36321 47.80506,23.26869 72.2325,33.66456 9.60601,4.08814 27.99819,11.47174 38.50534,13.92417 6.59593,1.53953 13.39246,2.0366 20.08869,3.0549 7.71094,-1.66968 15.94205,-1.76263 23.13283,-5.00904 20.71083,-9.35027 27.59684,-31.85802 33.46863,-51.5517 3.16627,-12.0758 4.04253,-14.8653 6.72887,-27.62275 5.74939,-27.30389 9.41468,-54.98263 12.85581,-82.65425 6.65368,-55.2739 13.50156,-110.54549 18.50487,-165.99745 0.73436,-9.25526 1.53083,-18.50581 2.20309,-27.76579 2.62655,-36.1793 4.07244,-72.42654 5.37005,-108.67341 0.20276,-6.75115 0.69467,-19.01651 0.47383,-26.09361 -0.2363,-7.5725 -0.86981,-18.70176 -4.67552,-25.34809 -9.0931,-15.88031 -11.01401,-15.15504 -23.87739,-21.7948 -10.01286,-3.27351 -20.24491,-5.87929 -30.57311,-7.94416 -11.22731,-2.04677 -13.64734,-2.61469 -25.54297,-4.19661 -27.63264,-3.67469 -55.49919,-5.26314 -83.36619,-5.47989 -9.03929,0.0407 -18.08035,-0.0614 -27.11787,0.12221 -48.28398,0.98124 -96.46688,5.60146 -144.17642,13.00015 -21.05368,3.43236 -42.03813,7.05962 -63.00135,11.00276 -3.54916,0.66759 -7.09311,1.36336 -10.64712,2.00466 -1.88871,0.34081 -3.82746,0.44056 -5.68013,0.94152 -0.37535,0.10149 0.75344,0.19252 1.13016,0.28879 -52.94188,-3.10759 -57.33667,71.76354 -4.39479,74.87112 z"/>
<path d="m 507.12035,605.7537 c 16.84666,-4.36601 33.812,-8.27097 50.97697,-11.17793 6.99594,-1.18479 14.0226,-2.18043 21.0339,-3.27064 38.8032,-5.24272 77.92716,-9.24982 117.12192,-9.52618 6.37931,-0.045 12.75764,0.181 19.13646,0.27149 5.24753,0.28351 10.49507,0.56701 15.7426,0.85051 52.96098,2.76297 56.86841,-72.13517 3.90743,-74.89814 v 0 c -6.23322,-0.31545 -12.46643,-0.6309 -18.69964,-0.94634 -7.36158,-0.0836 -14.72298,-0.31643 -22.08474,-0.2509 -42.4047,0.37743 -84.73145,4.65753 -126.70758,10.39949 -7.75832,1.21861 -15.53453,2.32832 -23.27496,3.65585 -18.61366,3.19237 -37.02727,7.39094 -55.30449,12.1226 -51.45629,12.83549 -33.30417,85.60568 18.15213,72.77019 z"/>
<path d="m 582.33098,493.44764 c 0,30.28901 0,60.57803 0,90.86704 0,14.24503 0,28.49005 0,42.73508 0,53.03301 75,53.03301 75,0 v 0 c 0,-14.24503 0,-28.49005 0,-42.73508 0,-30.28901 0,-60.57803 0,-90.86704 0,-53.03301 -75,-53.03301 -75,0 z"/>
<path d="m 463.90412,678.06643 c 6.77969,23.67976 10.45382,48.12765 14.75304,72.34419 3.91483,22.16714 8.22555,44.26157 12.52581,66.35633 10.13194,52.05616 83.75046,37.72744 73.61852,-14.32872 v 0 c -4.22167,-21.68943 -8.45616,-43.37808 -12.29921,-65.13862 -4.88058,-27.48653 -9.12869,-55.22548 -17.14351,-82.01989 -16.11264,-50.52607 -87.56728,-27.73936 -71.45465,22.78671 z"/>
<path d="m 553.72055,708.65071 c 15.96183,-7.41608 33.29368,-11.29946 50.39468,-15.06541 18.78407,-3.49023 37.83709,-5.65846 56.94543,-6.10652 9.2918,-0.21788 12.17997,0.0488 21.13948,0.44358 8.58894,0.44812 17.08875,1.7535 25.31898,4.23639 0.0438,0.0312 0.18306,0.10905 0.1315,0.0936 -1.69241,-0.50607 -4.04829,-1.57143 -5.20412,-2.41386 -8.291,-6.04292 -9.44969,-7.54032 -14.19421,-17.14123 -0.78289,-1.58424 -0.97425,-3.39731 -1.46138,-5.09596 -0.12676,0.54936 -0.29782,1.09036 -0.38028,1.64809 -0.3431,2.32071 -0.54505,4.66099 -0.89543,6.98062 -2.93797,19.45033 -7.04791,38.72204 -11.19278,57.94099 -7.93895,34.71781 -21.03849,67.91984 -33.18599,101.30873 -18.13163,49.83718 52.34878,75.47917 70.48041,25.642 v 0 c 13.31764,-36.60544 27.52414,-73.05321 36.02627,-111.16855 3.65139,-16.99402 7.20906,-33.99156 10.14616,-51.12715 1.38407,-8.07487 2.99544,-17.79914 3.53931,-26.06931 0.24454,-3.71854 0.14678,-7.4517 0.22016,-11.17755 -0.68007,-4.0939 -0.64051,-8.37488 -2.04023,-12.28172 -5.73891,-16.0182 -15.35937,-24.25002 -30.80026,-29.08331 -14.15863,-4.12088 -28.72399,-6.53367 -43.46847,-7.2302 -11.98316,-0.45449 -15.32572,-0.76529 -27.70217,-0.42241 -23.41317,0.64863 -46.75386,3.38105 -69.7435,7.82113 -5.69058,1.2814 -11.40992,2.44118 -17.07174,3.8442 -18.29826,4.53438 -36.54447,10.20894 -53.36283,18.82748 -46.3836,25.71111 -10.0226,91.30744 36.36101,65.59633 z"/>
<path d="m 546.96523,831.59606 c 19.68336,-3.73938 39.78259,-4.679 59.75273,-5.62425 16.28614,-0.32362 32.7193,-1.09754 48.91554,1.2462 4.79777,0.69428 9.50388,1.91797 14.25582,2.87695 52.1203,9.79663 65.97482,-63.91261 13.85452,-73.70924 v 0 c -7.27185,-1.30103 -14.49101,-2.94209 -21.81555,-3.90308 -19.50117,-2.55857 -39.23246,-1.92198 -58.82472,-1.42368 -24.02187,1.17846 -48.18445,2.44573 -71.81995,7.19484 -51.86081,11.08857 -36.1792,84.43083 15.68161,73.34226 z"/>
</svg>
