<?xml version="1.0" ?>
<svg xmlns="http://www.w3.org/2000/svg" width="1000" height="1000">
<path d="m 56.656553,285.03518 c 2.034688,0.01 4.07105,0.11286 6.104063,0.0297 10.426508,-0.42637 20.861907,-1.92772 31.245174,-2.87591 16.72798,-1.52759 19.03741,-1.64741 36.87248,-3.05098 47.66194,-3.7653 95.46776,-5.07081 143.26436,-4.79919 25.95031,0.70909 13.44125,0.25247 37.52887,1.32254 52.9815,2.33674 56.28615,-72.59042 3.30465,-74.92716 v 0 c -25.91308,-1.13519 -12.43717,-0.65259 -40.4296,-1.3943 -7.82425,-0.04 -15.64849,-0.15431 -23.47277,-0.11986 -42.07193,0.18526 -84.13276,2.02655 -126.08516,5.14958 -18.45027,1.4547 -20.82492,1.57799 -38.145422,3.16217 -4.414601,0.40377 -8.826731,0.83441 -13.238215,1.27092 -4.016757,0.39745 -8.05243,0.65984 -12.042149,1.27176 -0.04775,0.007 0.04766,0.0841 0.07149,0.12608 -52.9160742,-3.51982 -57.8938439,71.31481 -4.97777,74.83463 z"/>
<path d="m 169.01464,92.616059 c 0.26271,39.725161 2.47808,79.402811 4.38181,119.073191 2.72503,53.01647 5.50144,106.03621 6.60052,159.11762 0.829,40.03763 0.62552,52.27202 0.64003,92.57212 -0.57633,89.95483 -3.14259,179.88118 -5.38292,269.80572 -1.24444,54.75308 -3.15664,109.48734 -4.69603,164.23223 -0.11532,4.37736 -0.23395,8.75462 -0.34596,13.13206 -0.0825,3.22382 -0.11552,6.44915 -0.23753,9.67171 -0.0694,1.83224 -0.12099,3.66951 -0.33653,5.49035 -0.0825,0.69683 -0.4093,-1.49307 -0.0643,-2.1041 4.05348,-7.17934 6.37696,-16.20613 13.09818,-20.98093 7.14741,-5.07757 17.00098,-4.29368 25.50147,-6.44051 1.59204,0.26972 4.95885,2.41353 4.77612,0.80917 -0.2457,-2.15721 -3.43881,-2.6517 -5.13967,-4.00113 -16.14238,-12.80705 -32.06566,-25.90887 -47.95565,-39.02624 -14.14207,-12.50999 -29.88078,-23.21805 -43.52604,-36.30674 -3.75131,-3.5983 -7.08923,-7.60415 -10.63384,-11.40622 -36.583749,-38.39439 -90.881624,13.34284 -54.297879,51.73723 v 0 c 5.265583,5.44417 10.309078,11.11228 15.796749,16.33251 14.142601,13.45337 30.26638,24.63562 44.92228,37.48795 13.22678,10.91316 26.49892,21.77665 39.85069,32.53684 4.52945,3.65028 17.57907,14.23055 22.83022,17.21622 5.24366,2.98141 10.92632,5.11415 16.38947,7.67123 11.20246,-1.51851 23.73946,0.96035 33.60739,-4.55553 20.43924,-11.42495 19.90799,-33.20032 20.39288,-52.15699 0.11083,-4.33307 0.22822,-8.66597 0.34233,-12.99896 1.54135,-54.82489 3.45697,-109.63912 4.7024,-164.47223 2.25609,-90.55779 4.83921,-181.1175 5.40618,-271.70596 -0.0206,-41.27956 0.18594,-53.61871 -0.66972,-94.64996 -1.11729,-53.57646 -3.90204,-107.09165 -6.65705,-160.60265 -1.84644,-38.47302 -4.00847,-76.95235 -4.29559,-115.478001 0,-53.033008 -75,-53.033008 -75,0 z"/>
<path d="m 88.480361,676.35971 c 10.466708,-13.5849 22.501879,-25.81749 34.510389,-38.01846 18.7456,-19.04603 21.48185,-21.6115 41.31951,-41.23292 35.23282,-33.30741 72.53453,-64.49071 111.542,-93.29223 9.28723,-6.85731 18.80467,-13.39722 28.20701,-20.09583 43.1742,-30.79755 -0.3801,-91.85508 -43.5543,-61.05754 v 0 c -10.06665,7.18924 -20.2555,14.21038 -30.19996,21.56773 -41.53832,30.73189 -81.25307,64.00075 -118.73927,99.55793 -18.480428,18.28296 -24.714235,24.30556 -42.349662,42.27203 -13.663837,13.92033 -27.288207,27.93795 -39.249706,43.38327 -33.1746373,41.37564 25.339352,88.29166 58.513989,46.91602 z"/>
<path d="m 568.52857,121.58735 c 7.86021,4.80439 16.0762,9.02273 23.79245,14.06677 6.88668,4.50175 11.61609,8.38047 18.18339,13.45592 3.19594,2.56261 6.39189,5.12522 9.58784,7.68782 41.39674,33.1483 88.27551,-25.39553 46.87877,-58.54383 v 0 c -3.60513,-2.883331 -7.21025,-5.766662 -10.81538,-8.649993 -4.12072,-3.143397 -8.16512,-6.389456 -12.36217,-9.430191 -13.69278,-9.920329 -28.3802,-18.330873 -43.21708,-26.39458 -47.94755,-22.661236 -79.99538,45.146852 -32.04782,67.808084 z"/>
<path d="m 354.82062,211.21971 c 2.02552,12.78993 5.1563,25.36981 7.72179,38.05501 2.81076,13.89794 3.18941,16.66155 5.68147,30.95385 2.90133,17.26808 5.91343,34.52184 10.37602,51.4692 1.31377,4.98925 2.8805,9.90845 4.32076,14.86267 14.95026,50.88212 86.90844,29.73925 71.95817,-21.14287 v 0 c -1.12598,-3.77977 -2.35299,-7.53091 -3.37795,-11.33932 -4.13815,-15.37595 -6.72016,-31.08326 -9.39683,-46.7617 -2.78064,-15.87629 -3.07021,-18.16751 -6.19078,-33.58908 -2.3199,-11.46476 -5.15565,-22.83354 -7.03874,-34.38287 -8.39697,-52.36402 -82.45088,-40.48892 -74.05391,11.87511 z"/>
<path d="m 512.25963,249.70217 c 18.6897,-7.63458 37.88939,-14.16166 57.26007,-19.84479 8.36707,-2.4548 16.81213,-4.63552 25.2182,-6.95329 50.43126,-12.66506 102.19951,-19.89549 154.18359,-21.34795 9.3185,-0.26036 18.6441,-0.0811 27.96615,-0.12166 30.06156,0.76513 60.39448,4.42733 88.92579,14.33599 2.66821,0.92665 5.26382,2.05046 7.89573,3.07569 1.24995,0.70796 9.71215,4.17447 10.69577,5.94123 0.0532,0.0955 -0.21716,-0.0578 -0.30278,-0.12577 -0.5545,-0.43993 -1.07087,-0.9259 -1.6063,-1.38885 -4.67975,-5.73588 -4.70738,-4.98248 -7.78196,-12.90145 -0.57514,-1.48135 -0.74334,-3.09005 -1.10187,-4.63816 -0.12636,-0.54564 -0.0818,-1.1526 -0.35273,-1.6428 -0.14495,-0.26228 -0.63744,-0.68424 -0.79116,-0.42699 -1.36078,2.27725 -2.19016,4.83256 -3.28523,7.24884 -11.66624,23.84859 -25.52747,46.54901 -38.95734,69.42579 -26.84686,45.73562 37.83306,83.70281 64.67992,37.9672 v 0 c 15.11169,-25.74608 30.74019,-51.29531 43.42927,-78.35815 5.18467,-12.84275 7.6148,-16.71304 9.73348,-30.50672 1.6289,-10.60489 -0.78994,-21.50003 -5.94722,-30.79579 -1.46555,-2.64159 -3.63458,-4.82629 -5.45187,-7.23944 -1.34293,-1.30634 -2.63256,-2.66981 -4.02879,-3.91902 -9.34864,-8.36432 -20.89349,-13.84404 -32.30057,-18.75275 -11.85403,-4.42843 -14.75047,-5.79285 -27.61697,-9.28075 -31.37439,-8.50508 -63.7808,-12.56659 -96.26317,-13.01688 -10.44612,0.0723 -20.89678,-0.0995 -31.33837,0.21678 -57.45983,1.74042 -114.6676,9.83851 -170.38385,23.96759 -9.25527,2.569 -18.55275,4.99053 -27.76582,7.70701 -21.73071,6.40733 -43.24874,13.79052 -64.20004,22.41529 -48.76194,20.85122 -19.27386,89.81102 29.48807,68.9598 z"/>
<path d="m 486.12446,283.7608 c 0.0288,-0.25328 0.21626,-0.97923 0.0864,-0.75985 -2.18028,3.68391 -3.60769,7.76457 -5.46428,11.62177 -1.67279,3.47534 -3.37067,6.93944 -5.14142,10.36592 -6.69139,12.9481 -9.17866,17.02398 -16.7179,30.36524 -20.48752,34.84543 -44.03248,67.98927 -70.17557,98.83318 -4.92608,5.81184 -10.12985,11.38249 -15.19477,17.07373 -4.67471,4.88296 -9.34942,9.76591 -14.02414,14.64887 -36.6262,38.35389 17.6144,90.15117 54.2406,51.79727 v 0 c 5.29798,-5.56015 10.59596,-11.1203 15.89394,-16.68046 5.79862,-6.55732 11.74717,-12.98505 17.39587,-19.67196 28.73023,-34.01072 54.68952,-70.73324 77.18247,-109.1427 8.46119,-15.01463 11.07761,-19.28858 18.62585,-33.97234 4.76469,-9.26886 5.59511,-11.31763 9.46782,-19.6638 1.06295,-2.29077 2.21487,-4.54182 3.19989,-6.86716 0.93782,-2.21394 1.70989,-4.49449 2.56483,-6.74174 14.99489,-50.86898 -56.94472,-72.07495 -71.93961,-21.20597 z"/>
<path d="m 536.41586,366.46045 c 12.65053,-1.03934 25.33438,-1.60611 38.00792,-2.28494 13.97001,-0.85219 27.94046,-1.69521 41.92739,-2.21397 0.64797,-0.0199 5.19195,-0.16667 6.16434,-0.1742 0.19876,-0.002 0.79332,0.0527 0.59486,0.0416 -1.25621,-0.0704 -2.57382,0.17612 -3.76818,-0.21954 -5.23455,-1.73407 -11.31687,-2.38032 -15.36915,-6.12018 -6.28235,-5.79801 -9.5453,-14.18543 -14.31795,-21.27815 -0.28728,-2.92892 -0.40792,-5.879 -0.86183,-8.78676 -0.0795,-0.50916 -0.1914,1.01287 -0.27225,1.52181 -0.24421,1.53729 -0.42143,3.08558 -0.70287,4.61649 -1.34747,7.32967 -3.54945,12.91477 -6.30662,19.86051 -13.06078,30.09874 -28.41056,59.2142 -45.96282,86.93918 -4.71885,7.45374 -9.69862,14.73905 -14.54793,22.10857 -27.66111,40.12148 -57.64004,78.77228 -90.70866,114.60701 -6.3665,6.89904 -13.00377,13.54321 -19.50565,20.31481 -25.09663,23.98782 -50.37912,48.14175 -78.46182,68.68207 -15.58404,11.39853 -18.83741,12.63358 -35.42526,22.07281 -45.95094,26.47663 -8.50734,91.46106 37.4436,64.98444 v 0 c 7.57026,-4.40444 15.31209,-8.52637 22.71078,-13.21331 15.44335,-9.78309 28.5169,-19.80698 42.6419,-31.40674 13.37283,-10.98207 30.8396,-26.49184 43.43959,-38.25924 7.36905,-6.88211 14.53449,-13.97907 21.80173,-20.9686 7.15315,-7.4779 14.45082,-14.82018 21.45944,-22.4337 35.47339,-38.53499 67.65056,-80.06927 97.29641,-123.21274 5.33952,-8.14682 10.82625,-16.19902 16.01854,-24.44045 19.92013,-31.61814 37.35796,-64.82421 51.94549,-99.22923 1.78722,-4.85866 3.76155,-9.65253 5.36165,-14.57599 2.34837,-7.22588 3.62529,-13.23924 4.94789,-20.55836 0.1527,-0.84508 1.51041,-9.92113 1.52167,-10.65024 0.0692,-4.47685 -0.29475,-8.94993 -0.44212,-13.42489 -4.95326,-7.95049 -8.16109,-17.30374 -14.85977,-23.85147 -8.94129,-8.7398 -23.19296,-8.27274 -34.62697,-7.89348 -14.39337,0.5383 -28.7712,1.38288 -43.14689,2.26933 -14.63661,0.78398 -29.29807,1.36885 -43.88686,2.83258 -52.56986,6.99357 -42.67945,81.33858 9.8904,74.34501 z"/>
<path d="m 485.56552,462.5593 c 13.37235,4.6311 24.65198,13.38397 35.80077,21.83306 42.37756,31.88483 87.46952,-28.04609 45.09196,-59.93092 v 0 c -3.53955,-2.64864 -7.01769,-5.3814 -10.61866,-7.94591 -14.43119,-10.2775 -29.73058,-19.46818 -46.6047,-25.12336 -50.32276,-16.73677 -73.99213,54.43036 -23.66937,71.16713 z"/>
<path d="m 403.82816,529.31554 c 8.88462,7.06449 17.82828,14.23195 25.26243,22.88425 2.45009,2.85156 4.54695,5.98853 6.82043,8.98279 2.31446,3.85994 4.62893,7.71989 6.9434,11.57983 28.05123,45.00697 91.70071,5.33654 63.64948,-39.67044 v 0 c -3.916,-6.13656 -7.83199,-12.27312 -11.74799,-18.40969 -4.0567,-5.0164 -7.88493,-10.22651 -12.1701,-15.04922 -3.6098,-4.06263 -7.54363,-7.83034 -11.48449,-11.5727 -9.40822,-8.93431 -19.57958,-17.23048 -30.56599,-24.14806 -46.24707,-25.95589 -82.95424,39.44735 -36.70717,65.40324 z"/>
<path d="m 717.21426,377.26132 c 13.66412,-3.66496 27.69609,-5.76572 41.65281,-7.9669 16.27686,-2.51919 32.71658,-3.58455 49.17315,-3.63668 -6.56817,-0.58464 6.68055,0.21431 5.01075,0.15098 -18.90408,-0.71704 -25.12769,-14.47191 -32.01845,-30.6971 -1.2401,-2.91998 0.0915,-6.34414 0.13725,-9.51622 -0.18306,0.26191 -0.4233,0.49202 -0.5492,0.78572 -6.29344,14.68099 -11.01653,29.97514 -16.79183,44.85143 -2.11312,5.44307 -4.4499,10.79663 -6.67485,16.19495 -11.94167,26.99394 -26.19687,53.00527 -42.79207,77.4296 -10.5088,15.46653 -17.91925,24.52046 -29.427,39.34882 -13.55566,17.17448 -28.87437,32.77074 -44.29153,48.23923 -37.39253,37.60716 15.79203,90.48818 53.18456,52.88102 v 0 c 17.5584,-17.69645 34.98507,-35.55557 50.40605,-55.20054 13.59456,-17.58997 20.88603,-26.44068 33.34705,-44.91581 19.01395,-28.19074 35.32813,-58.19419 48.96626,-89.32943 2.59674,-6.36123 5.3041,-12.67842 7.79022,-19.0837 0.20741,-0.53438 8.73574,-24.14076 9.6437,-26.55884 2.22476,-5.92506 4.73966,-11.73935 6.92293,-17.67983 1.08208,-2.94423 2.03871,-5.93306 3.05807,-8.89959 0.57085,-5.28818 3.23963,-10.76956 1.71255,-15.86454 -3.04778,-10.16865 -7.81607,-20.24102 -14.90307,-28.14449 -7.5869,-8.46094 -22.4525,-8.88988 -33.06458,-8.99092 -20.26705,0.11022 -40.51489,1.43239 -60.55746,4.55692 -17.12757,2.71627 -34.3331,5.38442 -51.05404,10.08066 -50.88713,14.9332 -29.7684,86.89846 21.11873,71.96526 z"/>
<path d="m 650.06776,461.80424 c 0.75305,0.44512 1.52978,0.85242 2.25914,1.33538 2.03794,1.34946 6.65445,5.05124 7.8058,5.98987 10.30398,8.40022 19.86562,17.47657 29.47964,26.65114 27.27003,26.90433 52.67892,55.64544 77.13329,85.11163 18.54177,22.89408 37.85615,45.17462 58.13803,66.54353 17.265,17.47184 37.23785,31.99246 58.50623,44.20959 5.10146,2.93042 10.34862,5.59954 15.52293,8.39931 6.16127,2.76553 12.32254,5.53106 18.48382,8.29659 48.49859,21.45663 78.84283,-47.13074 30.34424,-68.58736 v 0 c -4.44989,-1.92903 -8.89978,-3.85806 -13.34967,-5.78709 -3.97771,-2.11412 -8.01624,-4.11761 -11.93315,-6.34237 -15.61662,-8.87004 -30.48777,-19.17446 -43.23636,-31.8837 -19.17364,-20.09717 -37.26585,-41.21473 -54.77989,-62.76667 -26.33914,-31.69208 -53.68993,-62.61616 -83.10503,-91.50352 -17.15573,-16.31032 -34.38083,-33.18302 -54.90802,-45.26266 -46.3836,-25.71111 -82.7446,39.88522 -36.361,65.59633 z"/>
<path d="m 545.04821,651.92427 c 22.73709,-3.5181 45.5653,-6.39392 68.39731,-9.2137 30.85844,-3.2964 61.86947,-6.89567 92.96463,-6.16971 4.39328,0.10257 8.77725,0.45323 13.16588,0.67984 3.58633,0.35062 7.17267,0.70125 10.759,1.05187 52.7998,4.96798 59.82559,-69.70221 7.02579,-74.6702 v 0 c -4.72901,-0.43177 -9.45803,-0.86355 -14.18704,-1.29533 -5.64646,-0.25532 -11.28823,-0.65546 -16.93938,-0.76597 -34.112,-0.66705 -68.1335,3.032 -101.98484,6.7354 -23.56099,2.91185 -47.1175,5.88514 -70.5807,9.51609 -52.41903,8.04641 -41.03969,82.17812 11.37935,74.13171 z"/>
<path d="m 468.9721,770.61315 c 19.63432,-6.11731 39.6043,-11.22876 59.70951,-15.55023 7.29236,-1.56744 14.6259,-2.93673 21.93886,-4.4051 33.53251,-6.11313 67.39191,-10.47013 101.41822,-12.57902 21.10025,-1.30776 26.95593,-1.14161 47.77794,-1.42075 19.11095,-0.0525 38.18583,1.28922 57.11874,3.84514 4.82275,0.65106 9.61682,1.49936 14.42522,2.24904 52.41527,8.07091 63.82927,-66.05547 11.414,-74.12639 v 0 c -5.75755,-0.87727 -11.49794,-1.87562 -17.27264,-2.6318 -22.13239,-2.8982 -44.42392,-4.41222 -66.75161,-4.32841 -22.99545,0.34391 -29.32022,0.1686 -52.61097,1.64554 -37.01952,2.34753 -73.85857,7.11715 -110.3345,13.82455 -8.01619,1.62065 -16.05443,3.13577 -24.04856,4.86193 -22.89957,4.94467 -45.65499,10.79233 -67.9595,17.96704 -49.956,17.80162 -24.78071,88.45007 25.17529,70.64846 z"/>
<path d="m 598.25271,739.25835 c 2.0481,17.1404 2.62276,34.47762 2.15937,51.72956 -0.14381,5.35399 -0.50114,10.70012 -0.75171,16.05018 -1.89035,27.8046 -6.78692,55.27336 -11.53061,82.69902 -1.00664,5.55117 -1.56036,8.82168 -2.65238,14.13975 -0.29092,1.41675 -0.58431,2.83363 -0.92711,4.23873 -0.14495,0.5941 -0.14382,1.28486 -0.53515,1.75479 -0.32899,0.39506 0.12358,-1.0355 0.32873,-1.50691 0.83776,-1.92508 1.85693,-3.76602 2.7854,-5.64902 7.55305,-8.09365 7.05783,-9.42432 18.42309,-13.26477 2.5698,-0.86837 5.37158,-0.77346 8.07129,-1.03715 0.7719,-0.0754 1.66257,0.4222 2.32664,0.0215 0.38953,-0.23502 -0.74821,-0.52289 -1.15365,-0.72926 -1.68712,-0.85873 -3.41168,-1.64182 -5.11752,-2.46273 -5.0653,-2.77478 -8.98904,-4.64125 -13.53666,-8.27633 -2.09371,-1.67358 -3.91312,-3.66407 -5.86967,-5.49611 -40.16705,-34.62814 -89.13864,22.17664 -48.9716,56.80478 v 0 c 4.60711,3.82653 9.01064,7.91238 13.82134,11.47958 8.01078,5.94012 14.22068,8.87109 22.83309,13.44851 9.10805,4.17868 19.12269,9.23048 29.32144,9.94102 11.85414,0.82586 19.97282,-0.40535 30.41985,-6.98729 4.19143,-2.64072 7.16875,-6.83924 10.75312,-10.25886 1.80128,-3.12242 3.82596,-6.12621 5.40384,-9.36726 1.06839,-2.19453 1.76451,-4.55474 2.50606,-6.88015 2.80944,-8.81005 3.76615,-18.1236 5.6731,-27.13357 5.27913,-30.5374 10.63317,-61.13764 12.5518,-92.11265 0.27551,-6.36138 0.67421,-12.71862 0.82654,-19.08413 0.51127,-21.36451 -0.31208,-42.83697 -3.11975,-64.02968 -8.46295,-52.35339 -82.50184,-40.38498 -74.03889,11.96842 z"/>
<path d="m 461.71329,801.89302 c -7.13597,9.62229 -15.31734,18.36189 -23.35739,27.21694 -19.48766,21.46304 -4.88288,5.58506 -25.53612,27.87787 -4.2774,4.4259 -8.5548,8.85179 -12.8322,13.27769 -36.83808,38.15043 17.11479,90.24734 53.95287,52.0969 v 0 c 4.63452,-4.80351 9.26903,-9.60702 13.90355,-14.41053 19.61571,-21.18371 7.97781,-8.49903 25.98389,-28.36561 10.81011,-11.9271 21.77279,-23.78619 30.93249,-37.07228 28.72337,-44.58103 -34.32372,-85.20201 -63.04709,-40.62098 z"/>
<path d="m 764.05719,852.80965 c 13.25483,10.09964 24.52493,22.4351 35.78733,34.63572 6.59578,7.10631 12.78351,14.56586 18.90425,22.07866 33.54373,41.07698 91.63535,-6.36102 58.09161,-47.438 v 0 c -7.1071,-8.68639 -14.27869,-17.322 -21.92063,-25.54959 -13.7641,-14.87276 -27.67458,-29.74788 -43.80118,-42.12393 -41.29302,-33.27743 -88.3544,25.11972 -47.06138,58.39714 z"/>
</svg>
