<?xml version="1.0" ?>
<svg xmlns="http://www.w3.org/2000/svg" viewBox="0 0 1000 1000">
<path d="m 140.2321,333.4717 c 18.71283,-3.78917 37.16127,-8.75408 55.78608,-12.94058 6.83221,-1.53574 13.6867,-2.97069 20.53005,-4.45603 35.50081,-7.55439 71.48026,-13.13912 107.68128,-15.94895 5.80051,-0.45022 11.61445,-0.70633 17.42168,-1.0595 12.17264,-0.53822 24.37406,-0.67182 36.53781,0.13598 4.65363,0.30905 9.37144,0.69989 13.91303,1.80682 -2.60584,-0.1862 -3.15406,-0.10602 -6.51488,-2.24184 -7.57029,-4.81096 -10.31386,-8.25528 -14.10864,-16.80545 -1.17883,-2.65606 -1.08744,-5.72668 -2.00394,-8.48428 -7.79341,32.46257 -14.02546,65.26134 -20.06361,98.08592 -1.52405,8.16093 -2.98456,16.33398 -4.57217,24.48279 -3.60323,18.49448 -5.85132,29.55519 -10.57596,47.76149 -5.49155,21.1616 -12.11197,41.99684 -18.79429,62.80294 -16.20213,50.49744 55.21203,73.41071 71.41416,22.91328 v 0 c 7.24837,-22.61227 14.39518,-45.25577 20.32076,-68.26155 5.03387,-19.54379 7.52323,-31.74689 11.36082,-51.44835 1.60058,-8.21708 3.07344,-16.45853 4.61016,-24.68779 3.4085,-18.54633 4.79149,-26.51661 8.44266,-44.71145 3.04793,-15.18874 6.51264,-30.26797 9.8428,-45.39359 0.74542,-3.38568 1.43212,-6.78402 2.14817,-10.17602 1.0018,-9.27597 2.56158,-15.72698 -0.52399,-25.19129 -5.00636,-15.35587 -13.85427,-23.93556 -28.3691,-29.86012 -2.52304,-1.02984 -5.22709,-1.54366 -7.84063,-2.31549 -2.4139,-0.45453 -4.81443,-0.98685 -7.24168,-1.3636 -20.68228,-3.21026 -41.78227,-2.57976 -62.61273,-1.90527 -6.58606,0.41358 -13.17967,0.72066 -19.75817,1.24074 -39.21074,3.09986 -78.18102,9.14688 -116.63812,17.33469 -7.22807,1.57212 -14.46753,3.09276 -21.68421,4.71636 -17.60205,3.9601 -35.04512,8.61511 -52.71035,12.28896 -52.100463,9.90163 -38.097447,83.5828 14.00301,73.68118 z"/>
<path d="m 178.79288,517.08731 c 19.68396,-5.95559 40.21152,-8.57438 60.56042,-11.08495 21.26665,-2.0405 42.65398,-3.69091 64.03738,-3.01219 10.51276,0.33368 12.99153,0.78579 22.93404,1.88465 52.73805,5.58553 60.63717,-68.99734 7.89912,-74.58286 v 0 c -13.43833,-1.37784 -16.36682,-1.91378 -30.40052,-2.30054 -24.63506,-0.67894 -49.27247,1.14485 -73.76591,3.58927 -24.65029,3.11145 -49.45877,6.46767 -73.27577,13.8093 -50.69766,15.56429 -28.68643,87.26161 22.01124,71.69732 z"/>
<path d="m 169.01464,509.93939 c 0.067,18.01835 -0.13447,36.03528 -0.44536,54.05058 -0.69384,38.40674 -2.55984,76.77793 -4.05556,115.15835 -0.93075,27.99771 -1.93754,56.00781 -1.681,84.02494 0.38547,9.27664 0.10999,18.79249 2.16585,27.91817 0.44043,1.955 1.04007,3.8707 1.56011,5.80605 4.80604,6.49654 7.31545,15.63538 14.41812,19.48962 9.65725,5.24049 21.4407,5.65622 32.4248,5.92957 4.39033,0.10926 20.07324,-8.70929 23.79754,-10.77643 11.47552,-6.36938 21.3534,-12.34867 32.76866,-19.1092 45.27566,-27.94308 90.67406,-55.68909 135.8312,-83.82373 45.01068,-28.0453 5.34863,-91.70001 -39.66204,-63.65471 v 0 c -44.68178,27.84229 -89.61117,55.2854 -134.40036,82.95421 -5.82726,3.45438 -11.6331,6.94514 -17.48176,10.36313 -4.26291,2.49127 -8.55916,4.92515 -12.85216,7.3642 -2.17368,1.23498 -4.67343,2.00323 -6.54763,3.65776 -0.68635,0.60591 1.8368,-0.48356 2.73138,-0.28881 9.32562,2.03025 19.67403,1.89419 27.78052,6.93144 6.2738,3.89844 8.43435,12.12828 12.65153,18.19242 0.22414,1.00674 0.47666,2.00757 0.67241,3.02022 0.0265,0.13703 0.0169,0.55605 -0.008,0.41865 -0.88937,-4.97691 -0.59257,-10.10538 -0.85407,-15.12265 -0.27881,-26.79961 0.77775,-53.59348 1.62769,-80.37485 1.5163,-38.92467 3.40629,-77.84005 4.10138,-116.79164 0.31474,-18.4442 0.52534,-36.89 0.4564,-55.33729 0,-53.03301 -75,-53.03301 -75,0 z"/>
<path d="m 488.40975,133.28854 c -0.27427,-0.47628 -0.71113,-1.96696 -0.82281,-1.42883 -0.21538,1.0377 0.34792,2.09188 0.46662,3.14502 0.26117,2.31726 0.56287,4.63404 0.67268,6.96338 0.17118,3.63162 0.26418,7.27121 0.16964,10.90563 -0.38002,14.60796 -1.35083,20.00777 -3.0476,35.25748 -6.35684,42.43025 -13.78023,84.77652 -23.81318,126.50938 -1.87142,7.7843 -3.95279,15.51663 -5.92918,23.27495 -7.81053,28.3521 -16.87015,56.38462 -27.40623,83.84461 -10.78438,26.57164 -5.87995,31.65096 39.26109,57.95948 5.18155,3.01985 23.53494,-11.88315 29.36019,-15.93071 3.6844,-2.56003 7.46461,-4.97933 11.19691,-7.469 33.70806,-21.23962 69.42786,-39.11301 106.50821,-53.66747 9.02971,-3.54426 18.19635,-6.72927 27.29452,-10.09391 34.89921,-11.8671 70.74119,-21.16135 107.20556,-26.71932 18.80502,-2.8663 25.24665,-3.07191 43.74973,-4.55916 18.04635,-1.29944 36.12037,-0.81105 54.15384,0.277 52.94102,3.12221 57.3565,-71.7477 4.41547,-74.86991 v 0 c -21.55327,-1.24683 -43.15397,-1.7627 -64.7147,-0.15489 -21.75599,1.82306 -28.65812,2.03611 -50.78106,5.47354 -40.86155,6.349 -81.0258,16.82335 -120.1165,30.23607 -10.0347,3.73371 -20.14642,7.26663 -30.10411,11.20112 -41.58101,16.42955 -81.63093,36.60327 -119.37573,60.58164 -4.56982,3.07634 -9.18427,6.08741 -13.70947,9.22903 -2.47671,1.71946 -9.9072,3.85049 -7.29229,5.35147 3.37171,1.93539 8.28748,-5.59897 11.24899,-3.0803 15.69187,13.34546 27.27942,30.88958 40.25848,46.88583 0.86666,1.06814 -8.58175,10.44559 1.48845,-3.84871 11.52813,-30.19957 21.55831,-60.97915 30.04724,-92.17023 2.12836,-8.39053 4.3685,-16.7535 6.38509,-25.17159 10.67104,-44.54523 18.61717,-89.73813 25.23605,-135.04484 0.84502,-8.03919 1.9233,-16.05726 2.53506,-24.11756 1.54131,-20.30778 1.91748,-42.32815 -3.65234,-62.16323 -0.80075,-2.85161 -1.96817,-5.5873 -2.95225,-8.38096 -22.46831,-48.038266 -90.40468,-16.263283 -67.93637,31.77499 z"/>
<path d="m 659.61587,427.66366 c -3.12902,18.87911 -9.22917,37.16372 -14.8191,55.42181 -12.03046,36.13778 -27.45169,71.16451 -46.58984,104.11717 -4.51608,7.77592 -9.40659,15.32826 -14.10989,22.99239 -26.82004,41.00625 -58.27898,78.96754 -94.30495,112.23107 -7.48591,6.91191 -15.36935,13.38045 -23.05403,20.07068 -18.23874,14.43511 -28.20993,23.0474 -47.5659,35.62208 -7.49542,4.86942 -15.37641,9.11793 -23.06461,13.6769 -45.50402,27.23754 -6.98431,91.58995 38.51971,64.3524 v 0 c 9.29713,-5.60802 18.81245,-10.86929 27.89139,-16.82406 21.91652,-14.37478 32.98027,-23.96898 53.58269,-40.36258 8.74895,-7.67658 17.71917,-15.10808 26.24684,-23.02974 40.42475,-37.552 75.70018,-80.38238 105.738,-126.61656 5.31966,-8.73047 10.85096,-17.33545 15.95897,-26.19142 21.57068,-37.39803 38.95891,-77.12343 52.4728,-118.10495 6.87041,-22.48965 14.25549,-45.04499 17.56132,-68.39962 6.33255,-52.65357 -68.13085,-61.60915 -74.4634,-8.95557 z"/>
<path d="m 480.00748,590.35738 c 12.04597,6.19768 22.46856,15.05133 32.79516,23.69792 28.60481,25.41244 54.99428,53.19952 81.58141,80.68103 29.9131,31.1231 59.86578,62.21152 89.0863,93.9881 18.2215,20.38696 36.83592,40.41226 55.57998,60.31738 6.90536,7.30429 13.90278,14.54111 21.6546,20.96085 4.72588,3.91379 6.93139,5.40937 11.89633,9.03797 16.72627,12.03665 35.80882,20.07604 54.7903,27.7909 13.33153,5.02714 26.72434,9.99195 40.43568,13.90769 5.76177,1.64546 11.59514,3.029 17.39271,4.54351 51.34682,13.26663 70.10868,-59.34874 18.76185,-72.61538 v 0 c -4.57972,-1.16671 -9.19036,-2.21811 -13.73915,-3.50012 -11.77734,-3.31928 -23.2674,-7.58677 -34.72121,-11.86059 -13.353,-5.37222 -26.94897,-10.74781 -38.86039,-18.95978 -3.4204,-2.45702 -6.89974,-4.885 -10.04666,-7.69656 -4.57043,-4.08336 -8.69038,-8.64227 -12.96252,-13.02514 -18.54263,-19.69121 -36.95416,-39.5037 -54.97939,-59.67203 -29.65402,-32.23608 -60.02886,-63.7944 -90.38655,-95.36647 -28.46215,-29.41735 -56.72909,-59.15418 -87.51099,-86.18254 -14.14506,-11.71298 -28.50766,-23.46309 -44.91584,-31.92285 -46.58144,-25.35092 -82.43306,40.52519 -35.85162,65.87611 z"/>
</svg>
