<?xml version="1.0" ?>
<svg xmlns="http://www.w3.org/2000/svg" width="1000" height="1000">
<path d="m 159.58291,170.93891 c 6.48654,13.88451 14.27669,27.10921 23.17383,39.58384 2.35883,3.3073 4.86693,6.50555 7.3004,9.75832 31.88539,42.37713 91.81571,-2.71563 59.93031,-45.09277 v 0 c -4.1383,-5.45761 -6.7386,-8.69139 -10.48865,-14.40549 -4.57042,-6.96414 -8.50086,-14.32451 -12.08209,-21.83727 -22.62273,-47.965739 -90.45653,-15.97237 -67.8338,31.99337 z"/>
<path d="m 367.99249,114.32652 c -3.42663,3.83497 0.53251,-2.36134 -0.30829,-2.68239 -0.76231,-0.29107 -1.08781,1.23116 -1.4957,1.93788 -1.1077,1.91924 -2.08745,3.91362 -3.26448,5.79113 -1.86541,2.97555 -3.90438,5.83871 -5.85656,8.75806 -25.3639,34.6365 -57.67483,63.27696 -89.94307,91.26608 -17.07734,13.97578 -34.17362,28.09373 -52.58489,40.31859 -5.19318,3.44821 -10.62415,6.52417 -15.93623,9.78626 -45.07489,27.94197 -5.55898,91.6875 39.51592,63.74552 v 0 c 6.66058,-4.15977 13.45313,-8.11535 19.98175,-12.47933 20.35422,-13.60556 39.31212,-29.21485 58.19779,-44.74169 6.70724,-5.83025 13.49482,-11.56935 20.12173,-17.49076 30.48546,-27.24 59.86942,-56.19209 83.59738,-89.63398 3.09869,-4.87925 6.41102,-9.62921 9.29607,-14.63775 8.21657,-14.26424 14.33327,-30.06571 13.3692,-46.74284 -4.81202,-52.814248 -79.50264,-46.009026 -74.69062,6.80522 z"/>
<path d="m 169.48199,358.34043 c 17.9778,-7.09527 36.38651,-13.03157 54.77738,-18.94764 30.22043,-9.2713 60.82726,-17.3064 91.91754,-23.08736 21.48892,-3.99568 26.67305,-4.40678 48.13892,-7.25892 32.87234,-4.00863 65.98733,-5.46285 99.07875,-4.65144 9.11363,0.39293 4.83771,0.20186 12.82796,0.56854 52.97736,2.42882 56.41223,-72.49249 3.43487,-74.9213 v 0 c -8.72762,-0.39976 -3.89523,-0.18688 -14.49771,-0.62647 -37.00578,-0.84032 -74.0371,0.73269 -110.79152,5.29331 -23.66438,3.18698 -29.56164,3.67408 -53.22358,8.11819 -33.77571,6.34364 -67.04303,15.06413 -99.87517,25.17594 -21.09899,6.80152 -42.25755,13.5733 -62.76521,22.03358 -48.297914,21.90458 -17.32015,90.20816 30.97777,68.30357 z"/>
<path d="m 254.5137,92.295567 c 3.35604,19.276843 6.35919,38.607123 9.0575,57.986133 6.36299,44.47535 6.19336,89.45699 5.55583,134.2665 -1.30732,47.36062 -2.3837,94.7221 -2.8345,142.0989 -0.20728,24.74417 -0.0444,49.51119 -1.56436,74.21977 -0.14833,1.60949 -0.29666,3.21898 -0.44499,4.82847 -4.70224,52.82413 70.00237,59.4741 74.7046,6.64997 v 0 c 0.20122,-2.31728 0.40244,-4.63456 0.60366,-6.95184 1.54844,-25.98181 1.55126,-52.01427 1.6977,-78.03389 0.44829,-47.26424 1.53761,-94.51266 2.83054,-141.76098 0.67092,-48.62859 0.67017,-97.42997 -6.26884,-145.68682 -2.85565,-20.40529 -5.99962,-40.764941 -9.55218,-61.061624 -9.50734,-52.173848 -83.29231,-38.728437 -73.78496,13.445411 z"/>
<path d="m 241.0773,325.83218 c 0.0481,-0.44874 0.45331,-1.67505 0.14419,-1.34622 -0.56074,0.5965 -0.6287,1.51309 -0.99114,2.24718 -0.83108,1.6833 -1.65981,3.37025 -2.58797,5.00204 -1.62611,2.85887 -3.30301,5.69077 -5.07141,8.46388 -8.00971,12.56032 -9.36991,13.89649 -18.80568,26.66805 -24.13314,30.61157 -51.09463,59.07845 -80.28707,84.92092 -5.29512,4.68748 -10.80185,9.13034 -16.20278,13.69552 -18.583826,14.24769 -9.58116,7.65978 -26.928422,19.87201 -43.301525,30.61826 -7.64e-4,91.85586 43.300762,61.2376 v 0 c 20.75779,-14.7315 10.01509,-6.80324 32.13613,-23.90884 6.20233,-5.27484 12.52088,-10.416 18.60699,-15.82453 32.71144,-29.06961 62.88186,-61.10454 89.81579,-95.58732 10.43015,-14.26272 14.18012,-18.75157 23.13828,-33.26695 6.43227,-10.42255 12.40342,-21.34127 16.04186,-33.09495 0.68256,-2.20497 1.11032,-4.48088 1.66548,-6.72133 8.73776,-52.30823 -65.23725,-64.66529 -73.97501,-12.35706 z"/>
<path d="m 301.57639,385.31844 c 14.66017,8.77285 28.42787,18.943 42.07983,29.18532 17.88451,14.09823 35.92335,28.06861 52.60573,43.59494 5.42415,5.28789 2.95876,2.79653 7.4333,7.43714 36.94761,38.04437 90.75047,-14.20744 53.80286,-52.25181 v 0 c -6.44022,-6.59956 -3.02593,-3.18894 -10.26844,-10.20615 -18.66209,-17.22519 -38.58078,-32.99992 -58.60745,-48.59961 -16.88604,-12.63272 -33.92807,-25.22098 -52.30635,-35.62914 -47.00089,-24.56452 -81.74037,41.90479 -34.73948,66.46931 z"/>
<path d="m 212.53744,522.01473 c 2.54355,19.34761 4.18506,38.80105 4.76698,58.30905 0.19476,6.52929 0.2123,13.06266 0.31845,19.594 0.24616,37.60883 -2.26146,75.14823 -5.85809,112.56164 -0.72655,8.41151 -2.10197,16.75204 -2.94386,25.15009 -0.20271,2.02214 -0.51395,4.04466 -0.49341,6.07684 0.0375,3.71319 -0.2487,7.52149 0.66722,11.12015 1.47231,5.78469 4.27868,11.14514 6.41801,16.71772 4.02562,4.2686 7.62348,8.98557 12.07684,12.80579 3.78176,3.24412 14.18357,8.38325 18.90993,10.86275 11.45383,6.00878 22.8329,12.11863 34.14774,18.38596 18.39241,10.65558 36.23338,22.30814 52.94668,35.46057 10.01177,7.87871 11.92713,9.84541 21.18401,18.13161 12.89066,11.75606 24.41977,24.8346 35.70654,38.099 3.68805,4.4326 7.48643,8.76555 11.41722,12.98352 36.24083,38.71824 90.99669,-12.53404 54.75586,-51.25228 v 0 c -3.14587,-3.3349 -6.10666,-6.83073 -9.05689,-10.33928 -13.52601,-15.89125 -27.45253,-31.46265 -42.94016,-45.49747 -11.33288,-10.05281 -13.81323,-12.55909 -25.97894,-22.05926 -19.51096,-15.23608 -40.27522,-28.80236 -61.71922,-41.14815 -16.36067,-9.04645 -10.65762,-5.99724 -25.92026,-14.07006 -3.32393,-1.75811 -6.64809,-3.51586 -9.98131,-5.2563 -2.11601,-1.10488 -4.17614,-2.32994 -6.36623,-3.27956 -0.14779,-0.0641 -0.17637,0.26962 -0.26456,0.40442 1.90425,2.57221 3.8085,5.14441 5.71275,7.71662 4.28152,14.83675 3.27145,6.70405 3.07094,15.87363 -0.0213,0.97621 0.0898,-1.95179 0.18766,-2.92331 0.90133,-8.94889 2.363,-17.83759 3.1209,-26.80311 3.84846,-40.21821 6.50581,-80.57325 6.18974,-120.99965 -0.12874,-7.24993 -0.15749,-14.50232 -0.38622,-21.74978 -0.67024,-21.23794 -2.43761,-42.42299 -5.18484,-63.49092 -6.09227,-52.68191 -80.59575,-44.06614 -74.50348,8.61577 z"/>
<path d="m 346.72128,626.54875 c -0.0359,-0.0557 -1.62163,-2.53822 -1.65773,-2.50901 -0.56001,0.45301 -0.14417,1.43364 -0.19175,2.15237 -0.14518,2.19272 -0.15305,4.39613 -0.38648,6.58122 -1.26495,11.8413 -2.09955,13.90187 -4.81095,26.75892 -10.34519,41.81082 -26.00001,82.25586 -46.12453,120.33249 -4.32033,8.1743 -9.08679,16.10489 -13.63019,24.15733 -9.36725,14.55861 -15.50106,25.57321 -27.05391,38.26732 -4.10003,4.50507 -8.93178,8.28534 -13.39766,12.42801 -38.12207,36.86745 14.01637,90.78018 52.13844,53.91274 v 0 c 6.84185,-6.79293 14.1515,-13.14509 20.52555,-20.37878 14.21746,-16.13489 21.63449,-29.37839 33.17971,-47.50232 5.17108,-9.24412 10.59533,-18.3511 15.51324,-27.73235 22.98974,-43.85453 40.78548,-90.43892 52.35548,-138.58984 1.43054,-7.27335 3.1508,-14.49567 4.29161,-21.82005 2.42341,-15.55918 3.51066,-31.9102 0.17678,-47.44478 -0.76885,-3.58254 -1.9795,-7.06516 -3.26716,-10.49556 -0.77832,-2.07349 -1.94261,-3.98081 -2.91392,-5.97121 -26.76647,-45.78271 -91.51299,-7.92921 -64.74653,37.8535 z"/>
<path d="m 105.54398,772.93472 c 3.4392,-1.35678 6.33404,-2.45675 9.79205,-4.08417 10.07231,-4.74025 17.45761,-8.73833 27.502,-14.25054 19.09744,-10.48038 26.96051,-15.1509 46.71932,-26.51384 46.70416,-27.05646 93.33398,-54.2525 140.5629,-80.38878 26.4116,-14.61607 49.96319,-27.21241 76.51357,-41.51911 12.07893,-6.56207 24.15787,-13.12415 36.2368,-19.68623 46.60012,-25.31658 10.79707,-91.21909 -35.80304,-65.90251 v 0 c -12.00406,6.52155 -24.00811,13.04311 -36.01216,19.56467 -27.18746,14.65103 -50.5464,27.14235 -77.60722,42.12024 -47.46984,26.27408 -94.34416,53.60157 -141.28689,80.7999 -20.23046,11.63981 -25.6048,14.87383 -44.86328,25.48092 -6.03373,3.32322 -15.0138,8.22673 -21.73883,11.45968 -1.372662,0.65988 -3.858933,1.69122 -5.595777,2.41704 -49.85296,18.08818 -24.272408,88.59091 25.580557,70.50273 z"/>
<path d="m 486.43777,116.11472 c 0.1948,16.00957 0.58154,32.07395 -0.35083,48.06982 -0.33007,5.66276 -0.94768,11.30509 -1.42152,16.95763 -3.97463,33.69337 -13.14616,66.5431 -25.06284,98.24352 -2.21251,5.88567 -4.64442,11.68652 -6.96663,17.52978 -7.74131,18.39117 -16.62928,36.30569 -27.15527,53.26256 -21.23412,37.07194 5.50223,39.0711 44.30244,58.13184 2.31656,1.13801 4.75945,-1.99887 7.15285,-2.96487 4.8105,-1.94156 8.44507,-3.19947 13.54052,-5.05647 30.31204,-10.44579 61.25264,-19.12474 92.56465,-26.02474 8.91054,-1.96355 17.87878,-3.65548 26.81817,-5.48322 37.2615,-6.95667 74.96272,-11.43926 112.7947,-13.72181 20.67397,-1.24733 27.15059,-1.14742 47.29761,-1.48004 20.98359,-0.11032 42.06804,0.19729 62.78681,3.79402 52.31779,8.68037 64.59368,-65.30816 12.27589,-73.98853 v 0 c -3.35404,-0.54033 -6.69492,-1.16987 -10.06212,-1.621 -21.95815,-2.94192 -44.17049,-3.23452 -66.28786,-3.17344 -22.10677,0.39275 -28.97659,0.28808 -51.65227,1.68151 -40.99962,2.51943 -81.85303,7.44192 -122.22597,15.03958 -9.70544,1.99748 -19.44197,3.84946 -29.11634,5.99243 -34.15971,7.56671 -67.9096,17.08603 -100.96337,28.55157 -3.38994,1.24434 -6.79463,2.44922 -10.16983,3.73301 -28.99126,11.02716 9.42232,-0.67152 38.83324,36.42693 3.82622,4.82634 -8.58441,28.10217 -4.1176,19.63719 12.81757,-20.75253 23.7535,-42.60698 33.11805,-65.12986 6.91509,-17.52671 9.76582,-24.02942 15.74436,-42.26437 10.13511,-30.91279 17.78289,-62.69162 21.30665,-95.06872 0.54454,-6.93751 1.24259,-13.86467 1.63364,-20.81252 0.99772,-17.72659 0.59222,-35.52636 0.32267,-53.2661 -2.12435,-52.990439 -77.06416,-49.986148 -74.9398,3.0043 z"/>
<path d="m 697.56566,348.03097 c 1.53196,12.58685 0.54779,25.31644 -0.2257,37.91773 -2.1199,28.21152 -8.92634,55.84519 -17.8144,82.63897 -2.26948,6.84154 -4.83071,13.58282 -7.24606,20.37422 -11.64404,30.72808 -25.87076,60.47191 -42.92201,88.57569 -12.37157,20.39075 -17.16269,26.44414 -31.01832,46.07641 -5.87391,7.62137 -11.59129,15.36598 -17.62172,22.86411 -23.04766,28.65705 -48.72814,56.89262 -76.33588,81.2322 -5.91061,5.21092 -12.11833,10.07484 -18.1775,15.11226 -10.57966,7.83788 -20.41998,15.801 -32.05384,22.04269 -4.25426,2.28246 -8.8616,3.83474 -13.2924,5.75211 -48.16466,22.19607 -16.77467,90.31119 31.38999,68.11511 v 0 c 7.38327,-3.527 14.99542,-6.61023 22.14983,-10.581 14.71374,-8.16629 26.44299,-17.70313 39.89093,-27.77129 7.08694,-5.94504 14.34289,-11.69424 21.26084,-17.83512 30.59595,-27.15923 59.07259,-58.43829 84.62522,-90.35216 6.67403,-8.33551 12.99965,-16.9441 19.49948,-25.41615 15.61394,-22.24501 20.87548,-28.90326 34.83553,-52.08819 19.25439,-31.97778 35.33857,-65.788 48.47593,-100.71365 2.75911,-7.83562 5.68754,-15.61367 8.27734,-23.50687 10.64553,-32.44541 18.49466,-65.9331 20.94401,-100.05442 1.07377,-18.45004 2.16397,-37.09995 -0.7875,-55.44483 -9.23635,-52.2225 -83.09012,-39.16032 -73.85377,13.06218 z"/>
<path d="m 503.57273,534.0434 c 16.43505,27.47681 34.51785,53.93524 52.47843,80.42607 35.77934,51.75242 71.701,103.41418 108.58045,154.39041 24.64283,33.78014 50.20779,66.89587 77.52967,98.55545 10.72733,12.24098 22.16689,23.92894 35.01174,33.9698 2.85893,2.23484 5.80621,4.35429 8.70931,6.53143 13.93328,9.50333 27.92957,18.97098 42.40881,27.63358 6.64103,3.97318 13.42892,7.69559 20.14338,11.54339 46.04978,26.30433 83.24972,-38.8199 37.19994,-65.12423 v 0 c -5.82451,-3.31465 -11.71839,-6.51026 -17.47353,-9.94395 -12.78965,-7.63071 -25.1328,-15.99462 -37.50304,-24.27647 -11.71655,-8.62084 -22.40685,-18.12269 -31.73759,-29.35817 -25.94331,-30.00765 -50.1236,-61.47705 -73.52643,-93.49613 -36.43921,-50.35378 -71.91101,-101.39998 -107.2682,-152.51733 -16.67485,-24.58711 -33.40985,-49.16268 -48.87108,-74.5401 -25.60168,-46.44409 -91.28355,-10.23785 -65.68186,36.20625 z"/>
</svg>
