<?xml version="1.0" ?>
<svg xmlns="http://www.w3.org/2000/svg" width="1000" height="1000">
<path d="m 174.7422,215.44714 c 29.63421,-5.34749 59.49857,-9.31047 89.31095,-13.51114 46.58533,-6.64015 93.41626,-11.30755 140.40145,-13.80332 10.24184,-0.55936 20.49503,-0.5729 30.74588,-0.43828 53.02924,0.63234 53.9235,-74.36233 0.89427,-74.99467 v 0 c -11.88396,-0.12998 -23.77045,-0.11082 -35.64331,0.53986 -49.14502,2.6421 -98.13537,7.46985 -146.86327,14.4301 -30.21466,4.25783 -60.48305,8.27541 -90.51775,13.69122 -52.38688,8.2532 -40.71509,82.33943 11.67178,74.08623 z"/>
<path d="m 127.31975,287.02999 c 0.16395,22.91785 8.73579,44.46629 17.12815,65.41654 5.5004,13.00202 11.26112,25.89084 17.09379,38.74633 21.91507,48.29316 90.21192,17.30057 68.29685,-30.99259 v 0 c -5.38959,-11.87451 -10.70823,-23.78139 -15.82291,-35.77749 -3.3673,-8.30103 -4.68535,-11.20971 -7.53229,-19.47939 -1.98762,-5.77356 -3.98285,-11.75373 -4.16359,-17.9134 0,-53.033 -75,-53.033 -75,0 z"/>
<path d="m 174.10924,317.87105 c 22.33122,-3.45053 44.52424,-7.73301 66.73899,-11.85155 40.80411,-7.7202 81.85613,-13.97763 123.0468,-19.21418 23.30967,-2.63223 46.75501,-5.26374 70.25111,-4.67715 1.11531,0.088 2.23374,0.14278 3.34592,0.26405 3.09017,0.33695 -0.0102,0.20258 -1.27606,-0.19966 -1.1243,-0.35726 -2.28533,-0.66894 -3.309,-1.25527 -2.6968,-1.54465 -5.19999,-3.40509 -7.79998,-5.10763 -8.12913,-10.16441 -8.6574,-8.51257 -11.44134,-22.23316 -0.44888,-2.21228 0.12999,-4.51732 0.0209,-6.77205 -0.006,-0.1161 -0.29752,-0.0676 -0.34666,0.0377 -0.78763,1.68813 -1.37941,3.46098 -2.08926,5.18326 -1.25768,3.05145 -2.54215,6.0918 -3.81323,9.1377 -8.32736,19.43345 -14.31716,39.76832 -22.80016,59.13979 -4.91229,11.21755 -7.0989,14.83125 -12.7528,25.40046 -1.95857,3.36589 -3.91715,6.73178 -5.87572,10.09766 -26.57163,45.89607 38.33521,83.47402 64.90683,37.57796 v 0 c 2.40715,-4.17485 4.8143,-8.3497 7.22145,-12.52454 7.41198,-14.0608 9.53241,-17.46877 16.01132,-32.38755 8.3314,-19.18447 14.43928,-39.2101 22.53156,-58.48576 4.81078,-11.58565 13.22611,-29.01411 11.79328,-41.77409 -1.79852,-16.01668 -4.03679,-16.01146 -12.84937,-27.8325 -3.20141,-2.2506 -6.24604,-4.74264 -9.60424,-6.75181 -1.85424,-1.10937 -3.92479,-1.82173 -5.95628,-2.55789 -7.80321,-2.82767 -16.15078,-3.56148 -24.374,-3.94081 -27.18192,-0.47941 -54.30083,1.99396 -81.26499,5.26163 -42.59513,5.42884 -85.05099,11.885 -127.24803,19.87049 -22.32594,4.13924 -44.63266,8.41158 -67.07009,11.91371 -52.10046,9.90163 -38.09744,83.5828 14.00302,73.68117 z"/>
<path d="m 217.97732,418.67382 c 21.66903,-6.64149 44.14192,-9.85073 66.48992,-13.22093 37.59027,-5.39616 75.46357,-8.14843 113.38097,-9.76621 52.98435,-2.27121 49.77237,-77.2024 -3.21198,-74.93119 v 0 c -40.59455,1.74776 -81.14164,4.72937 -121.38146,10.54027 -25.0626,3.79857 -50.24038,7.53122 -74.56193,14.89972 -51.24992,13.63619 -31.96544,86.11453 19.28448,72.47834 z"/>
<path d="m 292.13204,78.298058 c -1.08845,18.342267 -0.90047,36.734632 -0.99064,55.100872 -0.4375,46.42619 -1.73612,92.83941 -2.60911,139.25926 -1.00285,54.00867 -2.0033,108.0182 -3.53151,162.01495 -0.76334,25.8693 -2.04517,51.71812 -3.59789,77.55058 -3.17667,52.93778 71.68866,57.43027 74.86532,4.49248 v 0 c 1.59502,-26.62284 2.91966,-53.26202 3.70259,-79.92269 1.53287,-54.23352 2.54301,-108.47967 3.54824,-162.72517 0.87942,-46.76712 2.19027,-93.52753 2.62146,-140.30119 0.0835,-17.01637 -0.11904,-34.059818 0.86154,-51.055129 3.12115,-52.941085 -71.74885,-57.355048 -74.87,-4.413963 z"/>
<path d="m 257.09054,369.93641 c -8.9969,10.8374 -17.42364,22.20606 -26.51524,32.99143 -3.94291,4.67746 -8.01745,9.24236 -12.02618,13.86354 -27.57703,30.79421 -58.7103,58.14362 -91.25499,83.54941 -7.03756,5.49383 -14.23538,10.77923 -21.35307,16.16884 -25.167784,18.22829 -13.041422,9.6234 -36.337805,25.87277 -43.488307,30.35238 -0.563556,91.85414 42.924755,61.50176 v 0 c 24.82513,-17.33673 11.90216,-8.15444 38.72443,-27.60933 7.69395,-5.83993 15.47436,-11.56765 23.08184,-17.51979 36.04649,-28.20301 70.42094,-58.67266 100.91545,-92.87149 4.49744,-5.20328 9.06379,-10.34779 13.49231,-15.60986 5.57937,-6.62952 12.60101,-15.54516 18.106,-22.5246 3.27297,-4.1496 6.62211,-8.24006 9.82505,-12.44395 1.25712,-1.64997 2.43421,-3.35941 3.65132,-5.03912 28.51734,-44.7131 -34.71653,-85.04271 -63.23387,-40.32961 z"/>
<path d="m 356.43124,461.4685 c 1.10195,0.61759 2.23187,1.18772 3.30585,1.85276 4.9393,3.05857 9.50174,6.9908 14.08187,10.51788 12.80226,9.85879 3.77745,2.88496 16.79023,12.9602 9.24388,7.26503 18.21045,14.92711 26.15736,23.60839 36.16886,38.78549 91.01982,-12.36499 54.85097,-51.15048 v 0 c -10.83794,-11.50529 -22.5632,-22.11176 -35.09388,-31.76106 -9.71062,-7.51804 -7.44677,-5.77918 -16.97832,-13.10535 -8.74914,-6.72479 -17.44796,-13.65356 -27.26207,-18.79823 -46.58129,-25.3512 -82.4333,40.52469 -35.85201,65.87589 z"/>
<path d="m 531.18337,136.99716 c 0.0986,0.0616 0.40654,0.22034 0.29584,0.18479 -3.00164,-0.96409 -1.80749,-0.73087 -5.18159,-2.40528 -0.55788,-0.27685 -1.39919,-1.26826 -1.71839,-0.73349 -0.51272,0.85902 0.2601,1.98386 0.37922,2.97714 0.27431,2.28741 0.53405,4.57654 0.80107,6.86481 0.17309,3.83551 0.53579,7.66715 0.51927,11.50652 -0.0491,11.41326 -1.07778,21.6334 -2.62612,33.00014 -2.71782,19.95209 -6.88707,39.60329 -11.24006,59.24528 -3.72168,15.57205 -8.45669,30.88033 -14.02784,45.88549 -2.70696,7.29084 -5.80847,14.42211 -8.67706,21.64825 9.30937,53.69617 -5.24218,45.38341 65.67252,36.55471 2.88201,-0.3588 4.07108,-4.14603 6.20002,-6.12147 2.98119,-2.76623 5.99277,-5.50481 9.1251,-8.09864 11.54157,-9.55738 15.46456,-11.90598 28.22262,-20.87711 26.39923,-17.01628 54.84131,-30.81827 84.38062,-41.47412 20.48394,-7.38927 27.03648,-8.7089 47.8942,-14.34986 30.0799,-6.86605 61.36426,-11.33034 92.20395,-7.3364 3.33407,0.43178 6.61782,1.18925 9.92673,1.78388 1.68246,0.53826 6.40114,1.29429 8.09399,3.42573 0.12539,0.15788 -0.27371,0.2961 -0.41057,0.44414 43.24374,30.69983 86.65985,-30.45604 43.41612,-61.15587 v 0 c -3.72612,-2.40007 -7.2558,-5.13674 -11.17836,-7.20019 -11.12007,-5.84969 -15.53357,-6.29177 -27.59393,-9.4938 -15.36869,-2.43679 -18.74795,-3.41588 -34.96372,-3.99615 -33.43292,-1.19636 -66.79329,3.26981 -99.23203,11.17247 -24.43407,6.71447 -31.79768,8.20564 -55.82692,16.99707 -35.07676,12.83332 -68.7891,29.46508 -100.02614,49.95631 -16.05545,11.41584 -20.26701,13.89003 -34.91271,26.2077 -4.08391,3.43475 -8.00375,7.06235 -11.8988,10.70988 -2.61937,2.45292 -11.09096,6.60607 -7.63881,7.58617 66.9658,19.01228 47.98859,-21.46632 58.27829,42.87758 3.20563,-8.12207 6.66692,-16.12488 9.67903,-24.32675 6.56698,-17.88163 12.14741,-36.11764 16.5324,-54.66065 4.91902,-22.38551 9.68578,-44.79116 12.58919,-67.55158 1.97129,-15.4533 3.2918,-30.39739 2.86222,-45.98841 -0.18821,-6.83065 -1.11538,-13.62089 -1.67307,-20.43133 -1.35748,-6.22305 -2.20181,-12.58065 -4.07245,-18.66915 -6.29745,-20.49668 -18.61533,-37.134106 -38.99875,-44.806345 -49.95606,-17.801466 -75.13114,52.847065 -25.17508,70.648535 z"/>
<path d="m 684.26543,311.53109 c -0.15453,-0.88451 0.0995,-1.95414 -0.46359,-2.65352 -0.32147,-0.39926 -0.36613,0.95922 -0.50283,1.45325 -1.58826,5.73988 -1.36228,6.53278 -3.96733,12.60449 -3.64624,8.49848 -6.59168,12.75016 -11.51587,21.08569 -3.31957,4.8339 -6.42675,9.82074 -9.95872,14.5017 -9.38842,12.44257 -18.53568,22.356 -29.51801,33.55133 -14.52109,14.80271 -24.86128,24.31639 -40.68954,37.91633 -7.46773,6.41641 -15.14647,12.58308 -22.71971,18.87463 -30.08505,23.52212 -14.92387,12.17386 -45.46084,34.07508 -43.06055,30.95624 0.71818,91.85306 43.77874,60.89682 v 0 c 33.58055,-24.19249 17.02927,-11.75393 49.65173,-37.3185 8.22584,-6.85384 16.57343,-13.56416 24.67753,-20.56153 17.03449,-14.70816 30.07016,-26.70808 45.67716,-42.80118 14.02052,-14.4572 24.77897,-26.41227 36.67201,-42.53274 4.57189,-6.19698 8.58965,-12.78425 12.88447,-19.17638 3.41118,-6.0278 7.09505,-11.90924 10.23353,-18.08342 7.65793,-15.0651 14.70802,-34.50997 15.70434,-51.65739 0.19977,-3.43827 -0.11593,-6.88716 -0.17389,-10.33074 -7.18143,-52.54453 -81.49061,-42.38845 -74.30918,10.15608 z"/>
<path d="m 577.72982,411.59996 c 0.37423,0.21706 0.76942,0.40144 1.12269,0.65118 0.54998,0.38879 0.8853,1.01802 1.37401,1.48149 1.49549,1.41826 3.03251,2.79227 4.52924,4.20923 7.36528,6.97273 8.72771,8.39752 16.4783,16.02688 27.43123,27.32609 55.05729,54.45501 82.48557,81.78412 20.84514,20.46069 41.48257,41.12276 61.98214,61.92835 12.38059,12.97306 25.90764,24.7611 39.44614,36.4934 20.31042,17.10488 41.95758,32.60238 64.47977,46.65748 5.84344,3.64664 11.78833,7.12811 17.6825,10.69217 25.82443,14.48827 12.38893,7.43533 40.36767,21.04189 47.75886,23.05626 80.36533,-44.48498 32.60646,-67.54123 v 0 c -23.2307,-11.11333 -11.82779,-5.20741 -34.21362,-17.70831 -5.29111,-3.18821 -10.62507,-6.30636 -15.87332,-9.56463 -19.53385,-12.12714 -38.31367,-25.50744 -55.94711,-40.26917 -12.05133,-10.43193 -24.12527,-20.88095 -35.12451,-32.44074 -20.66164,-20.96933 -41.46028,-41.79614 -62.46954,-62.41847 -27.54124,-27.44106 -55.27985,-54.68231 -82.8246,-82.11979 -6.70359,-6.59122 -11.62902,-11.53089 -18.39163,-17.84405 -6.73995,-6.292 -13.65527,-12.58227 -21.85829,-16.93577 -46.58134,-25.3511 -82.43322,40.52486 -35.85187,65.87597 z"/>
<path d="m 306.00462,661.50753 c 24.87653,-9.03773 51.34926,-12.37418 77.39953,-16.16427 52.8719,-6.39451 105.97533,-11.16551 159.1694,-13.87201 10.33059,-0.52562 20.67032,-0.85263 31.00547,-1.27894 24.52614,-0.73632 49.08254,-1.17754 73.60245,0.0242 12.70176,0.6225 17.33646,1.21918 29.37184,2.42048 52.77799,5.19461 60.12427,-69.44474 7.34628,-74.63935 v 0 c -14.23962,-1.38471 -19.30799,-2.03592 -34.31649,-2.74267 -26.3564,-1.24112 -52.74937,-0.81409 -79.11084,0.002 -10.80039,0.44995 -21.60552,0.79759 -32.40116,1.34984 -55.32753,2.83025 -110.56268,7.80095 -165.54683,14.53008 -21.61965,3.19161 -31.14394,4.22553 -52.02918,8.66158 -16.35567,3.47396 -32.81248,7.7006 -48.02175,14.80503 -2.50526,1.17024 -4.85236,2.65287 -7.27854,3.9793 -44.49471,28.8569 -3.68489,91.78192 40.80982,62.92502 z"/>
<path d="m 458.27311,625.53837 c 0,23.67398 0,47.34796 0,71.02194 -0.0694,38.38669 -1.51284,76.75052 -2.68111,115.11421 -0.40541,17.82116 -0.24117,9.34933 -0.50879,25.41518 -0.88006,53.02571 74.10961,54.27031 74.98967,1.2446 v 0 c 0.2549,-15.41639 0.0985,-7.29063 0.48437,-24.377 1.19132,-39.12437 2.65554,-78.24905 2.71586,-117.39699 0,-23.67398 0,-47.34796 0,-71.02194 0,-53.03301 -75,-53.03301 -75,0 z"/>
<path d="m 514.8543,768.72029 c 16.93775,-2.96531 34.09676,-4.23522 51.24334,-5.21607 21.69816,-0.95365 43.38979,0.20098 65.00533,2.02629 52.8478,4.4283 59.11037,-70.30977 6.26257,-74.73808 v 0 c -25.1561,-2.09356 -50.40329,-3.35533 -75.64889,-2.16015 -19.48611,1.16198 -38.98664,2.61046 -58.24222,5.95638 -52.41898,8.04679 -41.0391,82.17842 11.37987,74.13163 z"/>
<path d="m 279.21353,739.5462 c 2.38494,14.35166 4.44975,28.75474 4.90645,43.31812 0.13835,4.41164 0.0555,8.82745 0.0833,13.24117 -0.21274,13.30987 -2.02155,26.47945 -5.22894,39.38704 -0.91046,3.66401 -2.0545,7.266 -3.08175,10.89899 -14.08357,51.12879 58.22345,71.04597 72.30703,19.91718 v 0 c 1.40243,-5.18767 2.98783,-10.32931 4.20728,-15.56301 4.23674,-18.18345 6.60733,-36.71009 6.79261,-55.39213 -0.0736,-5.69729 -0.008,-11.39808 -0.22086,-17.09188 -0.62925,-16.84416 -2.87781,-33.5366 -5.64105,-50.14467 -8.08166,-52.41361 -82.2057,-40.98442 -74.12404,11.42919 z"/>
<path d="m 171.35912,933.97292 c 21.76598,-3.57359 43.50866,-7.29047 65.25002,-11.01142 44.86569,-7.46513 89.6418,-15.69447 134.77214,-21.4575 10.52118,-1.34353 21.0744,-2.42293 31.61159,-3.6344 42.94589,-4.41324 86.13991,-6.0046 129.29638,-5.23875 25.41043,0.45093 35.71154,1.17988 60.9105,2.46184 50.04524,2.92387 99.85032,8.70182 149.64558,14.31624 22.7525,2.55083 45.5303,4.8889 68.2507,7.71701 52.6281,6.54085 61.87827,-67.88653 9.25017,-74.42738 v 0 c -23.00367,-2.85496 -46.06139,-5.24653 -69.0979,-7.81741 -51.32825,-5.78719 -102.66958,-11.71518 -154.2579,-14.6926 -26.55686,-1.33722 -37.51303,-2.10666 -64.33632,-2.55681 -46.14929,-0.77448 -92.33621,0.97592 -138.25543,5.73189 -11.16197,1.29152 -22.34052,2.44691 -33.48589,3.87456 -45.85899,5.87427 -91.36533,14.19984 -136.95606,21.79824 -20.62211,3.52965 -41.25683,6.99171 -61.87965,10.51309 -52.62529,6.56341 -43.34323,80.98681 9.28207,74.4234 z"/>
</svg>
