<?xml version="1.0" ?>
<svg xmlns="http://www.w3.org/2000/svg" width="1000" height="1000">
<path d="m 151.47582,207.08095 c 17.60025,-4.99291 35.28385,-9.62955 53.24917,-13.14944 7.55844,-1.48089 15.15975,-2.73389 22.73962,-4.10083 8.47207,-1.20384 16.92131,-2.58108 25.41622,-3.61151 18.73109,-2.27207 38.53112,-3.88959 57.35567,-4.88509 19.55861,-1.03433 35.44793,-1.44107 54.93268,-0.78548 7.97361,0.26828 15.9276,0.95576 23.8914,1.43364 27.7151,2.75118 14.41229,1.20734 39.91963,4.53402 52.59436,6.80687 62.22073,-67.57278 9.62638,-74.37966 v 0 c -28.80935,-3.70303 -13.74769,-1.9871 -45.19844,-5.02824 -9.20548,-0.51906 -18.40069,-1.27374 -27.61643,-1.55718 -21.32183,-0.65577 -39.41851,-0.19403 -60.75462,0.96334 -20.7791,1.12715 -42.12101,2.91374 -62.78226,5.46121 -9.41469,1.1608 -18.77813,2.70503 -28.1672,4.05754 -8.39557,1.52887 -16.81556,2.92927 -25.18673,4.58659 -18.28155,3.61938 -36.37604,8.12068 -54.25393,13.37354 -51.680701,11.89979 -34.851858,84.98734 16.82884,73.08755 z"/>
<path d="m 87.438016,300.83731 c 3.594986,28.73386 8.008066,57.35516 12.583634,85.94634 7.33702,43.7965 15.91659,87.36674 22.84317,131.23261 8.27862,52.38286 82.35918,40.67513 74.08056,-11.70774 v 0 c -6.94594,-43.91407 -15.47602,-87.54372 -22.86698,-131.38227 -4.41633,-27.56876 -8.67268,-55.16659 -12.15637,-82.87137 -6.21011,-52.66815 -80.694129,-43.88572 -74.484014,8.78243 z"/>
<path d="m 218.64899,320.68093 c 19.12744,-5.14327 38.19353,-10.53022 57.60187,-14.54365 6.18816,-1.27964 12.41116,-2.38461 18.61673,-3.57691 32.76592,-5.79933 66.055,-7.89337 99.28989,-7.96636 12.65367,0.0881 25.2854,0.95192 37.8692,2.23369 5.31269,0.5863 -1.63523,-0.12571 -2.86942,-0.79164 -5.52689,-2.98214 -11.31056,-5.81971 -15.90046,-10.10602 -6.86625,-11.24269 -3.44357,-8.26112 -7.29123,-11.50123 1.78997,30.88014 -3.22811,61.57617 -8.13508,91.94667 -5.4544,29.43463 -10.01988,59.11602 -17.45507,88.14647 -3.48063,13.59004 -4.62787,16.13548 -8.96502,28.60573 -17.2127,50.16196 53.72703,74.50441 70.93973,24.34244 v 0 c 5.48773,-16.16005 6.7069,-18.78748 11.10645,-36.09158 7.79877,-30.67374 12.71001,-62.00045 18.42306,-93.09834 1.29453,-8.08873 2.71199,-16.15874 3.88357,-24.26619 4.2815,-29.6283 7.15035,-59.72269 4.52513,-89.64132 -1.87949,-10.53312 -2.18981,-18.64167 -10.34191,-27.5475 -8.84752,-9.66553 -18.41016,-13.58389 -30.35093,-14.6146 -15.18436,-1.53494 -30.42733,-2.54165 -45.69491,-2.61614 -37.91721,0.16967 -75.88492,2.57319 -113.24952,9.32564 -6.93812,1.34513 -13.89619,2.59115 -20.81436,4.03539 -19.78265,4.12985 -39.26726,9.47237 -58.74856,14.81031 -51.55878,12.4174 -33.99794,85.33253 17.56084,72.91514 z"/>
<path d="m 241.40864,62.525661 c 2.68745,26.333922 3.54341,52.838629 4.82553,79.269849 2.45141,55.06906 4.88896,110.19435 3.8137,165.33313 -0.2282,11.70181 -0.74805,23.39612 -1.12208,35.09419 -1.34615,32.40752 -3.59717,64.76568 -5.77925,97.12419 -3.56713,52.91291 71.26302,57.95759 74.83014,5.04468 v 0 c 2.24081,-33.24856 4.54868,-66.49709 5.91159,-99.7969 0.38597,-12.32038 0.92408,-24.63692 1.1579,-36.96112 1.07233,-56.51952 -1.37221,-113.02516 -3.90014,-169.47311 -1.3963,-28.76728 -2.2741,-57.630351 -5.49458,-86.265309 -7.51683,-52.49759354 -81.75964,-41.867193 -74.24281,10.6304 z"/>
<path d="m 188.15805,430.64458 c 13.04399,-6.65049 27.00019,-10.97154 41.30261,-13.96818 5.35108,-1.12115 10.75342,-1.98199 16.13013,-2.97299 25.55762,-3.84884 51.38527,-5.82791 77.22942,-5.95857 14.01947,-0.0709 20.75436,0.31865 34.42667,0.83547 52.9967,1.96227 55.77176,-72.98637 2.77507,-74.94864 v 0 c -15.54182,-0.56471 -22.93978,-0.98949 -38.9376,-0.86673 -29.9089,0.2295 -59.79903,2.58796 -89.35022,7.22963 -6.7393,1.28672 -13.51714,2.3859 -20.21792,3.86015 -18.38279,4.04443 -36.4728,9.66528 -53.36317,18.05341 -48.60401,21.21674 -18.59899,89.95319 30.00501,68.73645 z"/>
<path d="m 175.35505,531.99307 c 21.42561,-1.96608 42.69366,-5.32726 64.0864,-7.61738 7.23347,-0.77436 14.48086,-1.41258 21.72129,-2.11886 23.24093,-2.13045 46.55749,-3.27506 69.89373,-3.45716 6.70708,-0.0523 13.41435,0.0768 20.12152,0.11521 53.03232,0.27105 53.41564,-74.72797 0.38332,-74.99902 v 0 c -7.34925,-0.0334 -14.69874,-0.16773 -22.04777,-0.10032 -25.2607,0.23172 -50.50018,1.48387 -75.65721,3.79803 -7.73029,0.75911 -15.46773,1.44853 -23.19086,2.27734 -19.7826,2.12296 -39.46506,5.05956 -59.24351,7.20536 -52.96004,2.78112 -49.02695,77.67792 3.93309,74.8968 z"/>
<path d="m 248.7416,566.60691 c 1.32292,1.26328 2.63158,2.54167 3.96878,3.78983 5.73069,5.3491 6.79963,5.99859 12.26548,11.81056 5.12587,5.45046 7.84231,8.88979 12.63071,14.64018 34.04667,40.66109 91.55013,-7.48817 57.50347,-48.14926 v 0 c -10.42494,-12.39701 -21.14617,-24.53113 -33.39489,-35.18371 -37.542,-37.45796 -90.51555,15.63445 -52.97355,53.0924 z"/>
<path d="m 95.152103,694.28259 c 20.350217,-4.22187 40.510567,-9.30955 60.820947,-13.71479 8.4481,-1.83236 16.92462,-3.53119 25.38693,-5.29679 51.40039,-10.52325 103.69508,-15.6882 156.05458,-18.12702 9.47251,-0.44122 18.95428,-0.65406 28.43142,-0.98109 20.7976,-0.70552 41.59849,-0.36516 62.39219,0.16705 53.01624,1.33358 54.9022,-73.64271 1.88596,-74.97629 v 0 c -22.2933,-0.55175 -44.59407,-0.90962 -66.89075,-0.14524 -10.05107,0.35364 -20.10714,0.58611 -30.15321,1.06092 -56.05606,2.64938 -112.02879,8.30976 -167.05389,19.58589 -8.87804,1.85612 -17.77036,3.64519 -26.63412,5.56837 -20.00988,4.34159 -39.872575,9.35335 -59.921038,13.51659 -51.860905,11.08813 -36.179923,84.43052 15.680981,73.3424 z"/>
<path d="m 292.60581,742.47023 c -0.0201,0.0361 -0.0942,0.0845 -0.0604,0.10827 2.03737,1.42933 4.31542,2.48071 6.45767,3.74747 4.4881,2.65391 8.47589,4.96807 12.5192,8.28652 1.76494,1.44853 3.32645,3.12853 4.98968,4.6928 5.69234,6.814 9.16306,15.0449 9.77595,23.94638 0.44795,6.50603 -0.33485,9.50746 -1.23359,16.09272 -4.41707,20.15222 -11.97148,39.51888 -20.99926,58.03006 -1.82766,3.74755 -3.79994,7.42284 -5.69992,11.13426 -7.74679,14.73093 -16.85198,28.67299 -26.5915,42.14763 -0.63887,0.83074 -1.24434,1.68828 -1.91663,2.49223 -0.0282,0.0337 -0.14943,-0.0305 -0.11711,-0.0602 2.16963,-1.99361 3.94675,-4.59111 6.59185,-5.88926 4.90148,-15.57913 16.00645,-1.40126 23.062,-4.85584 1.22735,-0.60094 -2.36049,-1.37772 -3.54074,-2.06659 -11.47918,-5.57447 -21.89833,-12.8842 -32.34927,-20.12629 -43.71773,-30.02099 -86.17382,31.80523 -42.45608,61.82621 v 0 c 5.38813,3.67401 10.68171,7.49067 16.16439,11.02202 10.32852,6.65249 14.94912,8.89962 25.32707,14.47318 8.98976,4.22318 18.75226,9.85259 29.17918,9.52957 7.72654,-0.23935 15.4506,-2.23502 22.61356,-5.14167 7.85558,-3.18771 13.2639,-10.88361 18.25452,-17.30792 11.97937,-16.61521 23.1282,-33.83788 32.61511,-52.01512 2.32015,-4.57757 4.73218,-9.10971 6.96045,-13.7327 12.67057,-26.28771 22.97434,-53.92979 27.60931,-82.8357 1.1576,-17.08272 2.51665,-22.31157 -0.34127,-39.35091 -3.09517,-18.45384 -10.74678,-35.93175 -22.00541,-50.85058 -3.4237,-4.53676 -7.55324,-8.49495 -11.32986,-12.74242 -3.80691,-3.25388 -7.46682,-6.68806 -11.42073,-9.76164 -5.903,-4.58871 -12.25967,-8.43655 -18.69687,-12.19517 -4.25459,-2.4842 -9.57104,-5.44486 -14.0647,-7.50475 -1.83755,-0.84233 -3.75164,-1.50652 -5.62745,-2.25978 -50.32282,-16.73661 -73.99197,54.43059 -23.66915,71.16721 z"/>
<path d="m 255.52138,648.34606 c -16.29297,33.47385 -37.26601,64.36478 -57.78223,95.3328 -25.48204,39.4809 -54.38367,76.54192 -82.57835,114.07688 -31.851034,42.40297 28.11582,87.44713 59.96685,45.04416 v 0 c 29.0861,-38.72242 58.85035,-76.99215 85.14608,-117.71541 22.48959,-33.9841 45.35311,-67.95029 63.0816,-104.74537 22.62251,-47.96584 -45.21144,-79.9589 -67.83395,-31.99306 z"/>
<path d="m 424.11206,88.973832 c 16.03889,12.753518 30.92004,26.961528 45.43209,41.409888 3.31953,3.46877 6.63906,6.93754 9.9586,10.40632 36.69777,38.28542 90.84153,-13.61307 54.14376,-51.898493 v 0 c -3.757,-3.9139 -7.51399,-7.8278 -11.27098,-11.741699 -16.11694,-15.951874 -32.57821,-31.689936 -50.31318,-45.845509 -40.77849,-33.9059701 -88.72878,23.763523 -47.95029,57.669493 z"/>
<path d="m 564.75769,74.59685 c -7.44205,25.52148 -12.17627,51.71831 -17.44601,77.74469 -9.99003,47.10949 -22.90555,93.54543 -35.53404,140.00124 -5.44815,18.25605 -10.01065,36.91741 -17.13672,54.63092 -10.6222,26.98748 2.48711,29.67509 41.14228,54.53992 1.75219,1.12708 19.84803,-7.5011 23.36502,-8.95636 4.08059,-1.68847 8.22433,-3.22012 12.33649,-4.83019 37.86554,-14.1771 77.18029,-24.1186 117.02558,-30.83663 10.29442,-1.73567 20.65065,-3.08236 30.97598,-4.62355 35.30695,-4.73265 70.96714,-6.77687 106.56686,-5.12319 15.14007,0.70328 19.92825,1.44576 34.23387,3.04436 3.76084,0.56759 7.52167,1.13519 11.28251,1.70278 52.45792,7.78889 63.47308,-66.39781 11.01516,-74.1867 v 0 c -4.70629,-0.6896 -9.41259,-1.3792 -14.11888,-2.06879 -17.04456,-1.84087 -22.62598,-2.69152 -40.58216,-3.46931 -39.93695,-1.72991 -79.93705,0.57476 -119.53582,5.93257 -11.27877,1.70328 -22.59238,3.18992 -33.83629,5.10985 -44.4641,7.59233 -88.3169,18.83482 -130.55021,34.75141 -5.09461,2.02205 -10.22072,3.96648 -15.28384,6.06613 -3.06073,1.26927 -6.48164,1.98637 -9.083,4.03868 -1.27776,1.00807 3.64651,-1.79945 4.83409,-0.68656 55.48603,51.99654 45.12828,23.69225 39.01327,49.59892 -0.20594,0.87246 0.65099,-1.67052 0.97648,-2.50578 7.93145,-20.35787 13.78179,-41.45859 19.73345,-62.45652 13.05621,-48.03951 26.39084,-96.06254 36.66827,-144.78955 3.68076,-18.17893 7.02051,-36.4811 11.36557,-54.51929 1.98432,-8.23774 2.76804,-10.33323 4.75557,-17.804342 0.40259,-1.513369 0.763,-3.037648 1.14451,-4.556471 11.13568,-51.850714 -62.1923,-67.598951 -73.32799,-15.748237 z"/>
<path d="m 717.94877,411.31294 c -0.0869,-0.34421 0.0712,-1.15848 -0.26077,-1.03262 -0.41266,0.15647 -0.30244,0.83522 -0.36919,1.27147 -0.37466,2.44863 -0.60637,4.91725 -0.95301,7.37 -1.53446,10.85738 -2.31722,16.71668 -5.08906,27.73651 -1.54533,6.14369 -3.46867,12.18607 -5.203,18.2791 -12.65928,37.1988 -30.57236,72.36207 -49.9363,106.46389 -6.11966,10.77732 -12.34837,21.49767 -18.87669,32.03245 -6.62716,10.69427 -13.72009,21.09278 -20.58013,31.63917 -21.00837,31.36457 -43.82914,61.47589 -68.41052,90.12495 -7.53966,8.7873 -15.18003,17.49672 -23.12863,25.91592 -7.19638,7.62245 -14.85774,14.79211 -22.28661,22.18816 -37.5084,37.4916 15.51273,90.53649 53.02113,53.04489 v 0 c 8.42036,-8.44608 17.08978,-16.65096 25.26107,-25.33823 8.58381,-9.12582 16.84157,-18.55782 24.984,-28.07955 26.38736,-30.85732 50.90134,-63.26826 73.46844,-97.02144 7.43589,-11.47756 15.11867,-22.7989 22.30768,-34.43269 6.95408,-11.25359 13.59787,-22.69916 20.11159,-34.21323 17.40817,-30.7718 33.66023,-62.34699 46.67106,-95.26032 3.49626,-8.84445 6.41423,-17.90672 9.62134,-26.86007 2.13605,-7.74332 4.5103,-15.42484 6.40816,-23.22996 3.01283,-12.3905 4.43881,-21.54506 6.0925,-33.80932 0.98195,-7.28238 1.8216,-13.95378 1.8052,-21.30595 -0.005,-2.31097 -0.35615,-4.60821 -0.53422,-6.91231 -8.08165,-52.41362 -82.20569,-40.98443 -74.12404,11.42918 z"/>
<path d="m 523.80742,568.29732 c 21.13013,15.67699 39.32846,34.80475 57.37264,53.82658 37.32013,41.16081 71.7735,84.79291 106.1726,128.38841 23.39103,29.51769 46.28655,59.51888 71.81123,87.26107 4.20232,4.56741 8.56458,8.98504 12.84687,13.47756 20.34809,19.98798 41.98982,39.00023 66.19904,54.23468 5.26619,3.31392 10.73882,6.28786 16.10823,9.43178 15.22813,7.6712 19.43479,10.26757 35.62816,16.42846 6.89605,2.62366 13.9567,4.7924 20.93505,7.1886 50.22624,17.02424 74.30215,-54.00639 24.07591,-71.03063 v 0 c -5.37847,-1.79216 -10.81701,-3.41322 -16.13541,-5.37648 -12.26464,-4.52742 -15.34865,-6.41134 -26.9098,-12.10755 -3.92539,-2.24036 -7.93231,-4.34355 -11.77616,-6.72109 -19.7572,-12.22042 -37.27999,-27.74738 -53.90202,-43.86345 -3.68375,-3.84362 -7.44152,-7.61766 -11.05126,-11.53086 -24.5546,-26.61884 -46.44968,-55.52373 -68.95206,-83.85075 -35.82626,-45.40217 -71.73211,-90.82772 -110.69705,-133.60872 -5.89339,-6.18564 -11.67941,-12.47538 -17.68017,-18.55692 -17.01751,-17.24658 -34.9788,-33.90312 -55.00074,-47.62571 -45.2796,-27.60902 -84.32466,36.42599 -39.04506,64.03502 z"/>
</svg>
