<?xml version="1.0" ?>
<svg xmlns="http://www.w3.org/2000/svg" viewBox="0 0 1000 1000">
<path d="m 252.40445,86.871558 c -3.97129,22.314352 -11.97921,43.927522 -20.86044,64.705842 -3.81907,8.935 -8.02329,17.70043 -12.03494,26.55065 -15.9628,34.2456 -34.14027,67.38877 -52.98734,100.11376 -14.50235,25.18108 -28.62006,48.78475 -44.02387,73.42462 -7.26011,11.61324 -14.74652,23.08345 -22.11978,34.62517 -14.574743,21.91499 -26.895723,41.04628 -42.473076,62.17374 -6.537567,8.86687 -13.512408,17.40285 -20.268612,26.10427 -32.4726758,41.92881 26.823619,87.85211 59.296295,45.9233 v 0 c 7.448543,-9.63979 15.125083,-19.10763 22.345623,-28.91937 16.29055,-22.13663 29.06588,-41.97788 44.31028,-64.91572 7.62693,-11.94747 15.37063,-23.8212 22.88081,-35.84241 15.73902,-25.19276 30.57147,-49.98649 45.3819,-75.73546 19.94299,-34.67232 39.14531,-69.80331 56.01482,-106.09233 4.48517,-9.97107 9.19909,-19.84236 13.45549,-29.91321 6.83263,-16.16632 12.47073,-31.44381 17.5004,-48.17287 3.50888,-11.67076 6.09824,-21.96335 7.79003,-33.929233 0.47279,-3.344004 0.52827,-6.733832 0.79241,-10.100749 0,-53.033008 -75,-53.033008 -75,0 z"/>
<path d="m 284.22171,195.73909 c 0.12299,0.20608 0.1701,0.4839 0.36897,0.61826 2.21015,1.49317 4.53119,2.81527 6.79678,4.22291 3.44953,2.29801 6.93501,4.54294 10.34857,6.89404 15.36955,10.58581 30.25147,21.86028 45.20596,33.01698 21.1624,16.23392 42.62464,32.20156 62.57879,49.937 4.33906,3.8566 8.50413,7.90463 12.75619,11.85694 38.91417,36.03036 89.8688,-19.00259 50.95463,-55.03295 v 0 c -5.04602,-4.65673 -9.99831,-9.41712 -15.13807,-13.97018 -21.1732,-18.75632 -43.86707,-35.72718 -66.30748,-52.90745 -16.06294,-11.98071 -32.05144,-24.08445 -48.59507,-35.40224 -5.77876,-3.95335 -16.50198,-11.03905 -23.0121,-14.63384 -3.24537,-1.79204 -6.63983,-3.2997 -9.95974,-4.94955 -49.74501,-18.38297 -75.74245,51.96711 -25.99743,70.35008 z"/>
<path d="m 238.58757,416.30538 c 23.27387,-2.88976 46.61615,-5.12112 69.98442,-7.07911 24.26999,-1.60271 48.59402,-3.48559 72.94004,-3.08294 5.37607,0.0889 10.74461,0.43973 16.11692,0.65959 52.99382,2.03844 55.87661,-72.90613 2.8828,-74.94457 v 0 c -6.52125,-0.23763 -13.03885,-0.61869 -19.56374,-0.7129 -26.25269,-0.37904 -52.48159,1.58007 -78.65158,3.34383 -25.17139,2.11792 -50.32486,4.49493 -75.38065,7.72987 -52.38688,8.2532 -40.71509,82.33943 11.67179,74.08623 z"/>
<path d="m 175.12376,583.94824 c 25.47135,-6.44224 51.63551,-9.63915 77.63748,-13.09359 31.84697,-3.80657 63.77227,-7.19978 95.78694,-9.25489 18.65638,-1.1976 22.51438,-1.15321 40.61316,-1.66348 19.9621,-0.0414 10.55273,-0.15593 28.22902,0.25654 53.01975,1.18611 54.69717,-73.79513 1.67742,-74.98124 v 0 c -20.21587,-0.43536 -9.52871,-0.32489 -32.06227,-0.24431 -19.80339,0.57966 -23.75157,0.52919 -44.09919,1.845 -33.43707,2.16225 -66.78173,5.70276 -100.04253,9.69831 -28.50146,3.80187 -57.15347,7.41143 -85.07504,14.4685 -51.59699,12.25771 -34.26198,85.22686 17.33501,72.96916 z"/>
<path d="m 268.13831,415.8329 c 2.37479,32.37169 1.77211,64.90555 1.75692,97.34208 -0.12119,44.05308 -1.04376,88.10645 -3.0359,132.11605 -1.27316,28.1261 -2.08517,39.34083 -3.82161,67.32835 -3.33597,47.27979 -6.3531,94.62535 -12.49299,141.64214 -1.17094,7.9199 -2.28457,15.86696 -4.03502,23.68636 -0.22129,0.98851 -0.46111,1.97419 -0.75391,2.94392 -0.0211,0.07 -0.19784,0.20185 -0.17494,0.1324 0.3904,-1.18394 0.8593,-2.34052 1.28895,-3.51078 5.91846,-8.43612 6.50152,-11.37704 17.54429,-15.92929 3.8869,-1.60232 8.24109,-1.74143 12.42168,-2.18639 1.57404,-0.16753 3.51126,1.36427 4.73509,0.36033 0.90283,-0.74061 -2.01983,-1.17244 -3.02908,-1.75981 -2.5906,-1.5077 -5.18031,-3.01694 -7.77046,-4.52541 -9.77526,-6.48595 -13.92389,-8.89293 -23.30579,-16.72005 -4.47929,-3.73697 -8.66435,-7.81314 -12.99652,-11.71971 -39.62621,-35.24576 -89.47124,20.79416 -49.84503,56.03992 v 0 c 5.87498,5.17224 11.56288,10.56506 17.62494,15.51672 12.70317,10.37631 18.11353,13.42149 31.39039,22.0461 10.53727,5.92046 24.93182,14.85013 37.35495,15.53407 14.18579,0.78099 22.75576,-1.81949 33.75991,-10.90735 3.53338,-2.91807 5.6561,-7.21166 8.48415,-10.81749 1.1634,-2.56437 2.46366,-5.07096 3.49022,-7.69311 1.27169,-3.24827 2.54237,-8.49439 3.28714,-11.90873 2.08382,-9.55321 3.50876,-19.23711 4.90268,-28.90898 6.30956,-48.69508 9.58587,-97.7066 12.9757,-146.67513 1.78365,-28.80495 2.60124,-40.07856 3.90854,-69.05195 2.02909,-44.96989 2.96951,-89.98425 3.09261,-134.99828 0.007,-16.00586 0.0642,-37.07491 -0.10202,-53.31084 -0.16364,-15.98457 -0.38375,-32.02855 -1.70568,-47.96993 -0.20852,-2.51454 -0.55011,-5.01626 -0.82517,-7.52439 -8.08165,-52.41362 -82.2057,-40.98443 -74.12404,11.42918 z"/>
<path d="m 127.95698,655.58932 c -0.0844,-0.17753 -0.14457,-0.69646 -0.25318,-0.53261 -0.69741,1.05221 -1.12862,2.25899 -1.65236,3.40756 -1.54929,3.39764 -2.94492,6.86588 -4.56613,10.22978 -2.28438,4.73991 -4.64879,9.44356 -7.1471,14.07428 -8.22285,15.24142 -13.26473,23.06382 -22.520553,38.31773 -14.78726,22.78039 -29.37057,45.72609 -44.958586,67.975 -5.045385,7.20131 -10.320706,14.23877 -15.481059,21.35815 -31.09455081,42.96079 29.661171,86.93512 60.755723,43.97434 v 0 c 5.605086,-7.75434 11.327735,-15.42504 16.815255,-23.26301 16.31035,-23.29647 31.57846,-47.3165 47.01901,-71.1892 12.08753,-19.98938 24.16114,-39.85409 34.14974,-61.00511 3.65117,-7.73141 8.30439,-18.66241 10.66447,-27.01103 0.90718,-3.20908 1.26103,-6.54938 1.89155,-9.82407 4.60454,-52.83274 -70.11223,-59.34454 -74.71678,-6.51181 z"/>
<path d="m 393.91678,677.28117 c 1.53559,1.58429 2.70015,2.73018 4.13201,4.63505 2.59839,3.45675 5.85795,8.97509 7.86218,12.44715 5.31363,9.20514 6.61764,11.93937 11.68076,21.58864 7.04361,13.78055 13.01879,28.05355 18.6541,42.45359 19.38086,49.36479 89.19321,21.95612 69.81235,-27.40867 v 0 c -6.67418,-16.9537 -13.74117,-33.76067 -22.09489,-49.97077 -11.88454,-22.5296 -23.73781,-46.03621 -43.63731,-62.66177 -41.66046,-32.81625 -88.06965,26.10053 -46.4092,58.91678 z"/>
<path d="m 574.12926,301.14738 c 11.99303,9.02571 23.20079,19.032 33.87838,29.56646 7.70944,7.88849 13.96196,16.94497 19.8345,26.22832 28.61741,44.64912 91.7608,4.17799 63.1434,-40.47113 v 0 c -9.02709,-13.96282 -18.67515,-27.53664 -30.49077,-39.33052 -3.16128,-3.08087 -6.25964,-6.22765 -9.48384,-9.24262 -11.1541,-10.43029 -23.01277,-20.1989 -35.34361,-29.19721 -44.15648,-29.37184 -85.69454,33.07485 -41.53806,62.4467 z"/>
<path d="m 521.543,451.64252 c 9.82554,6.56222 19.10029,14.02295 27.80321,22.01129 2.89034,2.65303 5.63217,5.46343 8.44826,8.19514 13.43079,14.35421 25.38792,30.00404 36.76646,46.00833 30.78316,43.18445 91.8552,-0.3495 61.07205,-43.53396 v 0 c -14.11179,-19.75373 -28.94168,-39.07787 -45.85888,-56.54024 -3.79391,-3.62323 -7.50178,-7.33875 -11.38174,-10.86968 -11.06508,-10.06974 -22.87394,-19.40333 -35.31119,-27.7175 -44.15642,-29.37192 -85.6946,33.0747 -41.53817,62.44662 z"/>
<path d="m 515.38628,690.84489 c 27.04622,-7.00334 54.31858,-13.02826 81.68195,-18.64567 47.2106,-8.54184 95.03099,-13.72458 142.94288,-16.10428 9.59185,-0.4764 19.19421,-0.71028 28.79131,-1.06543 40.21457,-1.38139 80.42486,0.52854 120.64221,0.29422 53.03202,-0.32365 52.5743,-75.32226 -0.45772,-74.9986 v 0 c -40.99837,0.26254 -81.99279,-1.7668 -122.98821,-0.2432 -10.21854,0.38614 -20.44281,0.64242 -30.65561,1.15843 -51.41656,2.59785 -102.7311,8.21702 -153.37787,17.49527 -27.46167,5.65336 -54.87469,11.57497 -81.99651,18.71104 -51.90038,10.90187 -36.4828,84.30009 15.41757,73.39822 z"/>
<path d="m 761.93113,152.44283 c 4.60723,34.16882 4.95483,68.75267 5.51506,103.16873 0.92485,85.84717 -3.93078,171.59957 -8.55273,257.28263 -4.94002,81.59762 -6.13113,163.37017 -10.85647,244.97675 -0.83948,14.49795 -1.93303,28.98008 -2.89955,43.47011 -4.58813,51.55332 -1.96767,26.43396 -7.75424,75.36917 -6.20511,52.66874 68.27974,61.44409 74.48485,8.77534 v 0 c 6.06126,-51.62795 3.32954,-25.24373 8.10372,-79.16209 0.99096,-14.91064 2.11043,-29.8133 2.97288,-44.73193 4.71158,-81.50094 5.92361,-163.16555 10.83995,-244.6579 4.716,-87.44194 9.63305,-174.95586 8.65129,-262.56505 -0.63526,-37.68528 -1.12006,-75.54439 -6.31807,-112.94092 -7.78889,-52.45792 -81.97559,-41.442754 -74.18669,11.01516 z"/>
</svg>
