<?xml version="1.0" ?>
<svg xmlns="http://www.w3.org/2000/svg" viewBox="0 0 1000 1000">
<path d="m 150.90629,211.92647 c 0.46022,0.69874 0.94987,1.37895 1.38065,2.0962 4.72571,7.86824 9.02922,15.98732 13.74659,23.8651 5.33468,8.90863 10.79586,17.74101 16.14298,26.64217 8.54759,14.94282 17.74557,29.48243 28.12651,43.22645 3.21377,4.25492 6.6507,8.3366 9.97605,12.5049 33.19119,41.36236 91.6864,-5.57707 58.49521,-46.93943 v 0 c -2.57747,-3.1877 -5.236,-6.31153 -7.73241,-9.56311 -9.18336,-11.96133 -17.09071,-24.7791 -24.5768,-37.85498 -5.19945,-8.65239 -10.50865,-17.23854 -15.70029,-25.89562 -5.85058,-9.75586 -11.06056,-19.9441 -17.34581,-29.43516 -1.41237,-2.13275 -3.01204,-4.13537 -4.51806,-6.20306 -33.62755,-41.00838 -91.62217,6.54815 -57.99462,47.55654 z"/>
<path d="m 417.86694,159.61911 c -3.96306,11.42015 -8.62708,22.6706 -13.92858,33.53687 -2.56146,5.25014 -5.37393,10.37405 -8.0609,15.56108 -11.38093,21.29098 -24.29688,41.73429 -37.6152,61.85473 -5.08068,7.67556 -10.10942,15.39277 -15.50238,22.85222 -5.22877,7.23236 -10.89875,14.13525 -16.34812,21.20287 -32.28089,42.07665 27.22448,87.72872 59.50537,45.65207 v 0 c 6.30813,-8.25775 12.84683,-16.34437 18.92441,-24.77326 5.72185,-7.93553 11.06577,-16.138 16.45954,-24.30008 14.64674,-22.16408 28.79378,-44.71329 41.27071,-68.18307 3.25019,-6.35557 6.6418,-12.64077 9.75056,-19.06671 3.36404,-6.95362 9.3588,-20.86524 12.25442,-28.41441 3.21864,-8.39129 5.08405,-13.7582 6.91685,-22.32736 0.49964,-2.33606 0.72674,-4.72221 1.0901,-7.08331 4.60443,-52.83275 -70.11236,-59.34439 -74.71678,-6.51164 z"/>
<path d="m 133.35942,448.43476 c 17.34683,-3.23295 34.43062,-7.68919 51.57631,-11.82217 32.99793,-7.4623 66.53192,-12.51762 100.16737,-16.06689 7.72741,-0.81541 15.47434,-1.43373 23.21151,-2.15059 41.81237,-3.84409 83.80996,-3.45135 125.69946,-1.47292 13.90348,0.61223 27.76124,1.8792 41.61204,3.18397 52.80094,4.95592 59.80966,-69.71589 7.00873,-74.6718 v 0 c -15.01605,-1.40472 -30.03979,-2.7642 -45.11168,-3.43003 -45.38006,-2.10919 -90.87476,-2.47356 -136.16648,1.71423 -8.36798,0.78372 -16.74635,1.46359 -25.10395,2.35116 -36.57366,3.88412 -73.02376,9.46364 -108.89396,17.63162 -16.516,3.98194 -32.96916,8.28386 -49.68062,11.39108 -51.860859,11.08833 -36.179596,84.43067 15.68127,73.34234 z"/>
<path d="m 287.58454,103.75048 c 0.10753,27.15987 -0.32436,54.31925 -0.28474,81.48209 0.46771,47.48763 -0.28605,94.97351 -0.58918,142.45914 -0.19544,30.61722 -0.31789,61.23488 -0.5051,91.85215 -0.62139,99.65964 -0.67972,199.31962 -2.1993,298.97096 -1.453,61.38401 -0.58521,31.20753 -2.57324,90.53031 -1.77406,53.00333 73.18396,55.51224 74.95802,2.50891 v 0 c 2.0148,-60.26905 1.13629,-29.63707 2.60652,-91.89677 1.52019,-99.87934 1.58812,-199.7672 2.20659,-299.65486 0.18689,-30.56853 0.30897,-61.13745 0.50407,-91.70593 0.30461,-47.72528 1.05953,-95.45082 0.59153,-143.17811 -0.0431,-27.12477 0.38655,-54.2461 0.28483,-81.36789 0,-53.033008 -75,-53.033008 -75,0 z"/>
<path d="m 277.74959,400.00161 c -6.10566,11.65391 -9.12965,24.54454 -13.53598,36.85664 -4.46108,12.46509 -7.84797,19.90218 -13.14475,32.4083 -19.0466,42.11677 -40.59585,83.14348 -64.7909,122.53896 -5.49288,8.94375 -11.27111,17.7091 -16.90666,26.56365 -9.53147,14.33418 -25.28641,38.43842 -35.59636,52.3211 -5.60768,7.55092 -11.72245,14.71171 -17.58368,22.06757 -32.941712,41.56132 25.83488,88.14793 58.77659,46.58661 v 0 c 6.78997,-8.60569 13.84301,-17.01018 20.36991,-25.81706 10.8932,-14.69841 27.24471,-39.74415 37.32997,-54.92687 6.0538,-9.53644 12.25891,-18.97849 18.16139,-28.60931 25.91845,-42.29 48.99761,-86.33035 69.3367,-131.55942 7.07036,-16.80122 9.3565,-21.54614 15.31507,-38.20741 5.60093,-15.66126 2.39661,-7.99137 6.38399,-19.66186 1.21188,-3.547 1.45186,-3.84655 2.93675,-6.95995 23.75946,-47.41295 -43.29258,-81.0139 -67.05204,-33.60095 z"/>
<path d="m 316.07602,505.99515 c 16.61879,8.02745 32.3373,17.73051 47.87538,27.64665 13.88966,9.04743 27.59763,18.46847 39.88083,29.64569 5.31957,4.8406 6.37925,6.12397 11.02797,11.03885 1.10147,1.27893 2.20295,2.55785 3.30443,3.83678 34.91175,39.92079 91.36827,-9.45188 56.45652,-49.37267 v 0 c -1.86473,-2.11286 -3.72946,-4.22573 -5.59419,-6.3386 -6.80309,-7.04586 -8.66332,-9.20945 -16.2709,-16.01028 -15.05377,-13.45738 -31.57247,-25.10578 -48.50851,-36.05497 -17.3927,-11.0624 -34.97725,-21.89874 -53.54004,-30.91709 -47.04073,-24.48815 -81.67221,42.03748 -34.63149,66.52564 z"/>
<path d="m 45.67958,304.79784 c 3.021461,19.65903 5.963291,39.31938 8.433209,59.05641 5.629681,50.33153 7.031897,101.0034 8.521537,151.58773 1.520829,60.43573 3.128108,120.86944 4.464946,181.3096 0.690918,43.28154 1.057661,86.56824 2.455631,129.8346 0.966843,15.14634 0.742766,30.51834 3.278122,45.53532 0.35439,2.09905 0.844687,4.17289 1.267031,6.25934 0.812993,2.49107 1.302917,5.11191 2.438979,7.47321 5.030716,10.45632 11.087043,18.88628 23.267399,23.05195 7.351976,2.51436 15.524136,2.10847 23.265516,1.44168 4.33709,-0.37356 10.95566,-4.24679 15.34546,-6.66367 15.45619,-8.27483 32.2918,-13.56911 48.91134,-18.951 36.47151,-11.19607 73.89132,-18.87767 111.04057,-27.42419 33.43342,-7.86667 66.45632,-17.33892 99.78983,-25.60372 22.69596,-5.6273 29.47591,-7.05353 52.4652,-12.28889 51.70784,-11.78132 35.04653,-84.90725 -16.66131,-73.12592 v 0 c -23.98469,5.46741 -30.65545,6.86591 -54.34672,12.74319 -32.75758,8.12644 -65.21562,17.4142 -98.06239,25.18469 -39.29579,9.04059 -78.87077,17.19977 -117.40898,29.18805 -21.15924,6.89964 -42.47604,13.90241 -62.05451,24.66261 -6.446196,3.60135 1.26526,-0.92128 4.81798,-0.9587 18.39533,-0.19378 22.53948,0.43549 35.18392,13.47562 3.57288,3.68468 4.15627,7.17958 5.20646,11.45665 -0.88787,-0.96045 -0.26228,-0.21361 -0.63613,-3.35348 -0.20662,-1.73539 -0.38353,-3.47452 -0.53358,-5.21571 -0.84039,-9.75202 -1.21828,-19.53727 -1.61348,-29.31462 -1.39619,-43.00992 -1.73219,-86.04095 -2.43468,-129.06581 -1.34144,-60.62394 -2.95225,-121.24145 -4.47918,-181.86092 -1.56326,-52.96854 -3.08567,-106.02663 -9.07327,-158.7213 -2.48461,-19.72753 -5.33416,-39.39512 -8.43062,-59.03581 -6.59242,-52.62167 -81.0107,-43.29858 -74.41828,9.32309 z"/>
<path d="m 793.96963,87.436141 c 0.0802,-0.365404 0.51876,-1.346275 0.24052,-1.096213 -1.41348,1.270334 -2.46009,2.900392 -3.77486,4.272635 -2.16769,2.26245 -4.39308,4.470759 -6.66734,6.626051 -6.32978,5.998656 -19.24723,17.617816 -25.34351,22.731186 -5.70176,4.78246 -11.59482,9.3321 -17.39222,13.99815 -36.89568,27.22699 -74.6971,53.67503 -113.98734,77.35519 -7.20554,4.34277 -14.54648,8.4568 -21.81971,12.6852 -6.54891,3.68529 -13.09782,7.37059 -19.64673,11.05589 -46.21307,26.01638 -9.42035,91.37153 36.79272,65.35515 v 0 c 6.86428,-3.86587 13.72856,-7.73174 20.59284,-11.59761 7.91911,-4.61764 15.91025,-9.11391 23.75734,-13.8529 17.66129,-10.66596 32.84697,-20.58313 50.01555,-32.07996 14.22714,-9.52711 34.35968,-23.37037 48.31665,-33.4537 7.76626,-5.61081 15.39559,-11.40875 23.09338,-17.11313 19.08622,-15.45259 18.56033,-14.56687 35.59592,-29.95356 10.72097,-9.68327 21.81568,-19.63014 30.59609,-31.20081 2.16185,-2.84885 4.02396,-5.9132 6.03595,-8.8698 24.65099,-46.955597 -41.75425,-81.817369 -66.40525,-34.861769 z"/>
<path d="m 544.26888,249.92871 c 0.0538,14.58755 -0.16344,29.17407 -0.36923,43.75975 -0.42887,25.58569 -0.51038,51.24003 -4.24901,76.61779 -2.66146,18.0659 -6.18909,32.68185 -10.09585,50.62932 -6.55722,29.34482 -16.00201,57.92824 -26.04765,86.23109 -3.60028,10.14355 -7.23717,20.2767 -11.12086,30.31515 -8.76153,22.6465 -14.37797,34.8277 -24.07546,56.97569 -8.19659,17.52698 -14.79321,32.68422 -24.42615,49.39023 -3.8291,6.64065 -8.24625,12.92439 -12.36938,19.38659 -28.28859,44.85817 35.15045,84.86428 63.43904,40.0061 v 0 c 5.12758,-8.20697 10.58017,-16.21962 15.38275,-24.62091 10.54781,-18.45157 17.69305,-34.83367 26.68902,-54.10855 4.33166,-9.91444 8.79605,-19.77195 12.99498,-29.74334 10.42705,-24.76155 15.49168,-38.00551 24.44943,-63.3275 7.43921,-21.02934 14.67826,-42.55951 20.66965,-64.05812 2.82154,-10.12438 5.1436,-20.38136 7.7154,-30.57203 4.76597,-22.10949 8.18619,-36.01128 11.34843,-58.3308 3.93177,-27.75088 4.28532,-55.76708 4.68822,-83.73432 0.21009,-14.93778 0.43044,-29.87646 0.37667,-44.81614 0,-53.033 -75,-53.033 -75,0 z"/>
<path d="m 593.85295,492.8381 c 21.78015,-5.23165 43.91951,-8.73089 66.06247,-11.9992 28.56816,-3.65729 57.33254,-5.88463 86.13195,-6.43241 18.24577,-0.34705 26.9018,-0.0343 45.0828,0.27987 34.82322,0.76128 69.53875,3.36303 104.13582,7.28363 13.60712,1.56804 7.14459,0.82521 19.38749,2.22957 52.68751,6.04367 61.23455,-68.46773 8.54703,-74.5114 v 0 c -12.25601,-1.40585 -5.75479,-0.65863 -19.50354,-2.24279 -36.97788,-4.17667 -74.0842,-6.94921 -111.30215,-7.74835 -19.81169,-0.32648 -28.95966,-0.65672 -48.91085,-0.24672 -31.61891,0.64979 -63.19877,3.11592 -94.55701,7.19795 -25.60128,3.80381 -51.24122,7.83004 -76.33697,14.26707 -50.85709,15.03518 -29.59413,86.95796 21.26296,71.92278 z"/>
<path d="m 690.09978,473.24835 c 0.93056,22.46459 0.88018,44.95621 0.84132,67.43544 0.23322,55.72417 -1.99181,111.40541 -4.56157,167.05689 -3.08453,63.94877 -7.06627,127.85236 -11.74413,191.70342 -3.87391,52.89133 70.92572,58.36987 74.79964,5.47854 v 0 c 4.72473,-64.52424 8.7508,-129.10121 11.86474,-193.7242 2.61842,-56.762 4.87363,-113.55456 4.64122,-170.39038 0.0274,-17.26241 0.0263,-34.51429 -0.33377,-51.77363 -0.0851,-4.07765 -0.34153,-14.66842 -0.60841,-19.2247 -0.12291,-2.09828 -0.35453,-4.18878 -0.5318,-6.28317 -6.87434,-52.58558 -81.24159,-42.86379 -74.36724,9.72179 z"/>
</svg>
