<?xml version="1.0" ?>
<svg xmlns="http://www.w3.org/2000/svg" viewBox="0 0 1000 1000">
<path d="m 219.27375,148.89385 c 11.04458,8.02922 22.78241,15.14737 33.15244,24.07797 2.58436,2.22563 4.99119,4.64944 7.48678,6.97417 2.20873,2.30264 4.41746,4.60528 6.62619,6.90793 36.97022,38.0224 90.74202,-14.26138 53.7718,-52.28378 v 0 c -3.26499,-3.32686 -6.52997,-6.65372 -9.79496,-9.98058 -3.85937,-3.48454 -7.60354,-7.10107 -11.5781,-10.45362 -12.49414,-10.53886 -26.3395,-19.301256 -39.67873,-28.694161 -44.86739,-28.273962 -84.85281,35.178111 -39.98542,63.452071 z"/>
<path d="m 153.06493,278.77934 c 20.63428,-4.07855 40.84612,-9.99449 61.39521,-14.46301 7.11364,-1.5469 14.26913,-2.89465 21.40369,-4.34198 30.00051,-5.75191 60.54295,-8.70628 91.09895,-8.47013 16.7935,0.12979 22.514,0.9039 38.89312,2.27199 12.93066,1.12275 25.67037,3.50829 38.35888,6.13326 51.96127,10.60783 66.96301,-62.87651 15.00174,-73.48434 v 0 c -15.64948,-3.16152 -31.35584,-6.06052 -47.29161,-7.40296 -19.86372,-1.57373 -26.07842,-2.42324 -46.46533,-2.50288 -35.07748,-0.13703 -70.12535,3.34101 -104.56041,9.96317 -7.84754,1.60337 -15.71694,3.10324 -23.54262,4.81013 -19.55809,4.26589 -38.81016,9.83109 -58.42466,13.8304 -52.082895,9.99357 -37.94986,83.64992 14.13304,73.65635 z"/>
<path d="m 171.75058,273.09375 c 1.97076,22.98173 6.77012,45.61475 11.49279,68.15543 3.53273,17.43824 7.72006,34.70704 12.70224,51.78341 14.96106,50.87895 86.91475,29.72081 71.95369,-21.15813 v 0 c -4.50168,-15.15433 -8.06233,-30.54003 -11.25357,-46.02312 -3.94458,-18.77947 -7.9583,-37.60603 -9.99928,-56.70829 -2.79356,-52.95938 -77.68944,-49.00868 -74.89587,3.9507 z"/>
<path d="m 322.11316,253.90669 c 0.0171,10.42779 0.14583,20.92731 -1.80473,31.22542 -0.7395,3.90429 -1.84376,7.73058 -2.76564,11.59587 -4.68988,17.06152 -10.28664,33.85286 -17.60894,49.98052 -5.67704,12.50388 -12.02343,23.88248 -18.49749,35.9988 -24.93821,46.80369 41.25221,82.07164 66.19042,35.26795 v 0 c 8.24516,-15.51305 14.51569,-26.6645 21.67728,-42.75758 8.9367,-20.082 15.85503,-40.95022 21.44623,-62.19057 1.33604,-6.27617 2.93351,-12.50234 4.00812,-18.82852 2.26147,-13.31312 2.4159,-26.83421 2.35475,-40.29189 0,-53.033 -75,-53.033 -75,0 z"/>
<path d="m 134.81862,490.85116 c -0.0723,0.1334 -0.36491,0.43334 -0.21684,0.4002 0.82426,-0.18445 1.58214,-0.5921 2.37506,-0.88316 2.14319,-0.78669 4.27265,-1.61248 6.43323,-2.35007 3.60184,-1.22961 7.2177,-2.41966 10.85169,-3.55074 13.35848,-4.15782 18.80691,-5.55106 32.79236,-9.4476 31.66166,-8.27611 63.82796,-14.65109 96.3172,-18.63839 22.7738,-2.79495 32.0249,-3.18264 54.88451,-4.84345 29.98529,-1.5719 60.10895,-2.04142 90.07258,0.26426 4.69308,0.36113 9.36753,0.93324 14.05129,1.39986 52.78257,5.14779 60.06265,-69.49804 7.28008,-74.64583 v 0 c -5.66949,-0.54312 -11.32869,-1.20712 -17.00846,-1.62934 -33.23192,-2.47043 -66.6301,-1.99813 -99.87992,-0.18816 -25.16554,1.86071 -34.88881,2.26514 -60.04089,5.40135 -35.70013,4.45145 -71.04798,11.49259 -105.83445,20.63946 -14.3769,4.01746 -22.24482,6.07458 -36.19355,10.48418 -11.81218,3.73417 -23.80909,7.65575 -34.698557,13.68205 -2.31365,1.28039 -4.45314,2.85291 -6.67971,4.27937 -42.161954,32.16939 3.33243,91.7954 45.494377,59.62601 z"/>
<path d="m 166.43167,638.37339 c 20.50604,-10.77863 43.01626,-16.90454 65.17707,-23.21654 33.2567,-8.7992 67.08776,-15.48608 101.24505,-19.63511 20.8587,-2.53368 26.4277,-2.59611 46.83057,-3.86565 15.9796,-0.96737 31.93286,-0.11602 47.8625,1.05766 52.90039,3.74824 58.2012,-71.0642 5.30081,-74.81244 v 0 c -19.27912,-1.32268 -38.58478,-2.30472 -57.91356,-1.09464 -23.04687,1.48797 -29.10307,1.55909 -52.6185,4.45911 -37.57346,4.63372 -74.78709,12.04051 -111.3604,21.79092 -29.79598,8.57765 -60.31626,17.0797 -86.94863,33.46921 -43.732773,29.99907 -1.30768,91.84655 42.42509,61.84748 z"/>
<path d="m 280.41827,445.89783 c -0.99782,25.93784 -1.0487,51.89788 -1.18212,77.85113 -0.21121,59.10785 0.91208,118.20669 2.11647,177.29891 1.4056,54.905 1.26117,109.83107 0.26524,164.74009 -0.16514,6.11098 -0.33028,12.22195 -0.49542,18.33293 -1.42838,53.01377 73.54441,55.0338 74.97279,2.02003 v 0 c 0.17012,-6.33205 0.34024,-12.66411 0.51036,-18.99616 1.00849,-55.87075 1.15879,-111.75869 -0.26855,-167.62536 -1.19168,-58.45463 -2.30756,-116.91574 -2.10187,-175.38585 0.13341,-26.08251 0.23354,-52.16782 1.1831,-78.23572 0,-53.03301 -75,-53.03301 -75,0 z"/>
<path d="m 265.56229,582.85188 c -9.9511,17.54691 -21.37533,34.19861 -33.66267,50.18846 -4.72429,6.14785 -9.64562,12.14174 -14.46842,18.21261 -35.65053,43.64516 -76.26777,82.82032 -117.25974,121.35833 -5.421107,4.94763 -10.842217,9.89527 -16.263323,14.84291 -39.164968,35.75759 11.403906,91.14522 50.568863,55.38763 v 0 c 5.6909,-5.19762 11.3818,-10.39523 17.07269,-15.59285 43.63867,-41.04415 86.79361,-82.84778 124.65331,-129.40336 5.36004,-6.77373 10.83051,-13.46152 16.08012,-20.3212 13.22709,-17.28386 25.66005,-35.24074 36.40837,-54.17927 28.63306,-44.63909 -34.49614,-85.13235 -63.1292,-40.49326 z"/>
<path d="m 319.93551,637.87192 c 1.32871,1.71907 2.57345,3.50646 3.98613,5.15721 5.94089,6.94205 12.76637,13.17436 19.2271,19.61628 9.95267,9.92368 7.22762,7.20492 17.43134,17.70811 14.44081,14.70532 27.70901,30.45847 40.5071,46.59153 32.97799,41.53254 91.71387,-5.10538 58.73588,-46.63792 v 0 c -14.36911,-18.0813 -29.27707,-35.72824 -45.46255,-52.22851 -10.84953,-11.15649 -8.01582,-8.33254 -18.38491,-18.67157 -2.36774,-2.36088 -4.74672,-4.71045 -7.12044,-7.06532 -1.64312,-1.63007 -3.28124,-3.26521 -4.93009,-4.8895 -0.61715,-0.60797 -1.18001,-1.28043 -1.86781,-1.80716 -0.16103,-0.12333 0.15923,0.3731 0.23885,0.55965 -29.46316,-44.0956 -91.82376,-2.4284 -62.3606,41.6672 z"/>
<path d="m 768.7774,156.98542 c -23.85274,16.74905 -50.00568,29.90846 -75.68175,43.57065 -8.80563,4.62419 -17.59129,9.28661 -26.41689,13.87257 -23.70934,12.31988 -32.94863,17.06208 -56.95375,28.62562 -21.80657,10.50448 -33.28884,15.65743 -55.22757,25.73374 -48.19126,22.13825 -16.88305,90.29099 31.30822,68.15274 v 0 c 22.61466,-10.39078 34.46354,-15.70962 56.97054,-26.56175 24.68374,-11.90167 34.51014,-16.94065 58.7737,-29.55001 8.94856,-4.65042 17.85673,-9.37817 26.78509,-14.06725 29.25403,-15.57593 59.0222,-30.66757 85.93679,-50.1503 42.16196,-32.16938 -3.33243,-91.79539 -45.49438,-59.62601 z"/>
<path d="m 494.86447,314.56456 c 4.70841,11.78041 7.02026,24.6015 8.22762,37.18662 0.54577,5.68886 0.72754,11.40679 1.09132,17.11018 0.63507,30.21577 -2.30115,60.47434 -8.86824,89.98288 -4.78767,21.51286 -8.18378,30.91902 -14.75411,52.15715 -9.25175,25.01239 -9.84225,27.87914 -20.70312,52.18909 -3.64488,8.15836 -7.33035,16.30754 -11.41672,24.25395 -3.6703,7.13732 -7.8916,13.97756 -11.83741,20.96635 -25.89111,46.28337 39.56347,82.89892 65.45457,36.61555 v 0 c 4.75839,-8.57096 9.81651,-16.98224 14.27515,-25.71288 4.50931,-8.82985 8.59204,-17.87455 12.61275,-26.93734 12.23054,-27.56797 12.88151,-30.84053 23.30346,-59.33536 7.60188,-24.86432 11.32992,-35.17623 16.81229,-60.54367 7.72024,-35.72224 11.06483,-72.32291 9.94009,-108.84725 -0.5574,-7.52122 -0.8615,-15.06552 -1.67219,-22.56368 -2.11604,-19.57152 -6.33871,-39.21289 -14.09711,-57.35611 -21.8033,-48.34373 -90.17166,-17.5092 -68.36835,30.83452 z"/>
<path d="m 542.91863,524.85192 c 18.90851,-4.14903 37.9147,-7.77143 56.97809,-11.1276 48.69965,-8.08655 98.07108,-9.95742 147.32928,-11.05497 31.59643,-0.22519 63.23256,0.0698 94.76622,2.26377 14.24253,0.99093 19.68804,1.69604 33.4481,3.17445 9.95451,1.08957 19.79952,2.87672 29.60841,4.84705 52.01789,10.32662 66.62193,-63.23779 14.60403,-73.5644 v 0 c -12.01387,-2.36329 -24.06386,-4.54661 -36.24874,-5.85865 -15.50449,-1.64652 -21.11965,-2.37743 -37.19323,-3.47971 -33.50015,-2.29736 -67.10588,-2.63374 -100.67114,-2.36355 -23.19145,0.5262 -34.05524,0.60789 -57.33828,1.80909 -33.92192,1.75007 -67.79012,4.95691 -101.33327,10.36722 -20.77901,3.67199 -41.50818,7.60228 -62.10115,12.217 -51.45637,12.83518 -33.30469,85.60548 18.15168,72.7703 z"/>
<path d="m 653.17714,495.38087 c 0.72296,24.27493 2.33315,48.51438 3.74833,72.75594 3.51707,61.66107 1.60487,123.44119 0.074,185.12996 -1.42762,53.24648 -2.25643,106.50528 -2.96049,159.76525 -0.70069,53.02838 74.29277,54.01931 74.99346,0.99093 v 0 c 0.69961,-52.97031 1.52362,-105.93946 2.94397,-158.89632 1.58108,-63.76617 3.4933,-127.62533 -0.17839,-191.36076 -1.39103,-23.8278 -2.9811,-47.65335 -3.68616,-71.51425 -2.21272,-52.98683 -77.14741,-49.85758 -74.93469,3.12925 z"/>
</svg>
