<?xml version="1.0" ?>
<svg xmlns="http://www.w3.org/2000/svg" width="1000" height="1000">
<path d="m 356.10975,246.84178 c 2.65162,-0.63859 5.30919,-1.25298 7.95487,-1.91578 17.25717,-4.32328 34.47944,-8.72631 51.80543,-12.77799 24.75351,-5.7886 31.29636,-7.13464 56.79685,-12.74376 41.12245,-8.98184 82.36894,-17.42408 123.79568,-24.88927 15.31805,-2.76035 33.75363,-5.81589 49.25584,-8.42022 6.12378,-1.01674 12.24755,-2.03349 18.37133,-3.05023 52.31677,-8.68647 40.03225,-82.67357 -12.28453,-73.9871 v 0 c -6.1714,1.0247 -12.34281,2.0494 -18.51421,3.0741 -16.30291,2.73963 -34.40155,5.73744 -50.56763,8.65263 -42.22129,7.61366 -84.2598,16.21778 -126.17195,25.37194 -38.35313,8.44005 -76.69361,16.989 -114.66259,27.04625 -52.07094,10.05571 -37.85003,83.69514 14.22091,73.63943 z"/>
<path d="m 255.66192,88.227592 c -0.26678,14.520128 -0.32009,29.040448 -0.28651,43.563368 0.0361,30.34279 0.40755,60.68347 0.63905,91.02507 0.2047,28.78535 0.26024,57.57144 0.29221,86.35741 -0.0471,20.53272 0.008,41.06623 1.48614,61.55194 1.16002,13.7581 3.80838,27.41368 9.43839,40.09379 3.79205,8.54059 5.57684,10.64303 10.59065,18.38304 7.6621,10.80894 16.89784,20.33642 27.69683,28.04185 7.74153,5.52383 10.89239,6.88482 19.21235,11.36307 20.67891,9.78064 43.37844,13.81748 66.04397,15.51911 5.00139,0.37549 10.01791,0.5108 15.02687,0.76621 31.69816,0.70643 63.35777,-1.64977 94.98823,-3.38555 31.79761,-1.648 63.54476,-4.09741 95.23737,-7.13895 22.96409,-2.26544 45.89977,-4.91167 68.57665,-9.22475 17.03979,-3.64743 34.15243,-9.55286 46.41203,-22.63997 3.46518,-3.69908 6.15499,-8.05472 9.23249,-12.08208 2.28614,-4.80238 4.98697,-9.42849 6.85843,-14.40714 9.25356,-24.61728 9.38012,-53.07124 10.17285,-78.95209 1.51903,-53.01125 -73.4502,-55.15948 -74.96923,-2.14823 v 0 c -0.36623,13.92047 -0.27933,21.95802 -1.61781,35.33792 -1.61213,16.11537 -0.92757,5.11921 -2.62403,16.45839 -0.0895,0.59841 -0.0182,1.21001 -0.0272,1.81502 0.47273,-0.16819 2.38967,-0.89156 2.91061,-0.91186 0.15169,-0.006 0.42297,0.2242 0.31398,0.32987 -2.30989,2.23952 -8.07332,2.39858 -10.81004,3.54668 -20.35168,3.96014 -40.99406,6.09241 -61.60346,8.22221 -30.67183,2.95204 -61.39827,5.31074 -92.17225,6.90766 -29.06356,1.59497 -58.14819,3.76441 -87.27259,3.3596 -16.76465,-0.74421 -33.98257,-1.60844 -49.79317,-7.7658 -7.70529,-3.84529 -14.51787,-7.68845 -19.58118,-14.90043 -1.26949,-1.65294 -2.23467,-2.78377 -3.26037,-4.58149 -3.04401,-5.33512 -3.51679,-11.59467 -4.1868,-17.56732 -1.44189,-18.65454 -1.21397,-37.37569 -1.27972,-56.07402 -0.0322,-28.94899 -0.0883,-57.89809 -0.29434,-86.84645 -0.23061,-30.20934 -0.60063,-60.41774 -0.63707,-90.62826 -0.0343,-14.46457 0.0319,-28.9258 0.28671,-43.387818 0,-53.033009 -75,-53.033009 -75,0 z"/>
<path d="m 275.98784,579.25623 c 1.00827,20.40926 4.15176,40.62553 6.57436,60.89277 0.87436,7.31481 1.66155,14.63978 2.49233,21.95967 5.18729,51.77914 7.71605,103.77518 10.80461,155.7088 1.12256,17.75672 2.17538,35.51757 3.18811,53.28084 3.0193,52.94699 77.89765,48.67706 74.87836,-4.26993 v 0 c -1.01663,-17.82413 -2.07201,-35.64593 -3.19875,-53.4635 -3.16846,-53.27456 -5.76966,-106.61333 -11.1519,-159.72412 -0.86832,-7.63271 -1.69337,-15.27047 -2.60496,-22.89813 -2.20547,-18.45409 -5.11696,-36.85757 -6.08629,-55.43709 -2.79355,-52.95938 -77.68943,-49.00869 -74.89587,3.95069 z"/>
<path d="m 425.87521,621.34184 c 20.09028,-5.16871 40.27461,-9.89302 60.55832,-14.24096 25.55003,-5.46165 51.34981,-9.94652 77.40147,-12.17023 14.91072,-1.27276 18.76521,-1.12748 33.37459,-1.42871 17.90894,0.0951 35.91766,0.85174 53.53171,4.28768 2.48631,0.50264 4.97618,1.08766 7.3821,1.90604 0.19854,0.0675 -0.40991,-0.0935 -0.60726,-0.1644 -0.70153,-0.25211 -1.39127,-0.53586 -2.08691,-0.80379 -10.72175,-6.81817 -9.42039,-4.57796 -17.4164,-17.21835 -1.00136,-1.58299 -0.90851,-3.70905 -1.93553,-5.27551 -0.40454,-0.61701 -0.0651,1.47445 -0.0729,2.21221 -0.025,2.38143 0.0316,4.76376 -0.0254,7.14463 -0.0888,3.71291 -0.27466,7.42286 -0.412,11.13429 -2.36001,35.42417 -5.30927,70.84419 -9.48902,106.10554 -1.04458,8.81235 -2.25479,17.60428 -3.38219,26.40642 -5.96465,46.28127 -15.63423,91.9406 -25.77882,137.44883 -11.53714,51.76286 61.66661,68.07884 73.20375,16.31598 v 0 c 10.64295,-47.75792 20.72446,-95.68612 26.96977,-144.25539 1.18312,-9.27371 2.45202,-18.53688 3.54938,-27.82112 4.38372,-37.08838 7.49857,-74.34404 9.88235,-111.60894 0.29188,-8.94359 0.71711,-16.17282 0.36872,-24.99344 -0.25405,-6.43207 -0.94475,-16.15577 -3.74893,-21.90214 -7.20123,-14.75685 -8.75445,-13.99063 -20.31046,-21.80241 -7.134,-3.00622 -14.5569,-5.13413 -22.18241,-6.52764 -22.79378,-4.21435 -45.97221,-5.72231 -69.1426,-5.56916 -17.58757,0.43018 -21.78804,0.2656 -39.68016,1.83818 -28.64763,2.5179 -57.03062,7.40966 -85.13614,13.41237 -20.25792,4.35559 -40.45471,8.95385 -60.49613,14.22764 -51.8609,11.08817 -36.17986,84.43055 15.68104,73.34238 z"/>
<path d="m 370.1539,773.31329 c 1.64349,-0.24182 3.29095,-0.45808 4.93049,-0.72546 11.09261,-1.809 22.12368,-3.86102 33.25749,-5.43231 16.85861,-2.3792 18.83429,-2.45802 36.18809,-4.37037 25.62308,-2.78542 51.38365,-3.54814 77.12923,-4.12634 53.01935,-1.20391 51.31676,-76.18459 -1.70258,-74.98068 v 0 c -27.93258,0.64079 -55.87911,1.52373 -83.67649,4.56213 -25.37678,2.81946 -50.68513,6.08765 -75.80523,10.7002 -52.58952,6.84409 -42.91053,81.21691 9.679,74.37283 z"/>
<path d="m 341.26173,897.05635 c 24.56155,-3.27996 49.1596,-6.20138 73.80413,-8.79889 45.45356,-4.33897 91.05826,-7.99571 136.74119,-8.52664 8.59829,-0.0999 17.19741,0.10564 25.79611,0.15845 7.80594,0.53834 15.61187,1.07667 23.41781,1.61501 52.91781,3.49361 57.85853,-71.34347 4.94072,-74.83709 v 0 c -9.31958,-0.59228 -18.63915,-1.18457 -27.95873,-1.77685 -9.43409,-0.0433 -18.8688,-0.24615 -28.30228,-0.12993 -47.60799,0.58652 -95.13505,4.37323 -142.50397,8.91101 -24.27811,2.5639 -48.5281,5.33279 -72.71005,8.69157 -52.81619,4.7907 -46.04112,79.48406 6.77507,74.69336 z"/>
</svg>
