<?xml version="1.0" ?>
<svg xmlns="http://www.w3.org/2000/svg" viewBox="0 0 1000 1000">
<path d="m 187.80302,168.70192 c 4.67395,20.54822 9.73817,41.00214 14.83678,61.44979 7.06389,28.42819 14.70895,56.73538 24.0645,84.5056 3.28631,9.75479 10.50518,29.53929 14.11081,39.50027 9.38433,26.68594 18.79528,53.36433 29.04043,79.73417 3.31104,8.51161 1.78629,4.55833 4.58345,11.85629 18.98427,49.51865 89.01422,22.67084 70.02995,-26.84782 v 0 c -2.92789,-7.63533 -1.36032,-3.57318 -4.70985,-12.1837 -10.04417,-25.81989 -19.21383,-51.96343 -28.42326,-78.08989 -2.88651,-7.97169 -10.54809,-29.00198 -13.24877,-36.98022 -8.85497,-26.15904 -16.01238,-52.85151 -22.67551,-79.64057 -0.53699,-2.15351 -7.42088,-29.7214 -8.30042,-33.38404 -2.69733,-11.23244 -4.88425,-22.60193 -8.17287,-33.68493 -16.80444,-50.300213 -87.93967,-26.53516 -71.13524,23.76505 z"/>
<path d="m 355.34877,194.40721 c 18.92795,-10.3879 38.62826,-19.27756 58.29142,-28.16053 29.50996,-12.92977 60.22684,-22.87109 91.43499,-30.78444 6.06175,-1.53706 12.1651,-2.90517 18.24764,-4.35775 23.64255,-5.04514 47.58191,-9.30702 71.75445,-10.71014 3.08823,-0.17925 6.18326,-0.21116 9.27489,-0.31674 8.30381,0.10531 16.29675,-0.0527 23.54429,4.37541 -0.1867,0.64969 -1.61293,-0.3715 -1.70181,0.19242 -0.10161,0.64474 0.52127,1.20087 0.70091,1.82837 0.25257,0.88228 0.39071,1.7934 0.59222,2.68873 2.13436,9.48315 0.78961,2.97739 3.10828,15.36625 3.63061,26.51456 4.69149,53.41727 3.84132,80.16064 -0.20232,6.36423 -0.66206,12.71766 -0.99308,19.07649 -2.08438,31.73493 -8.78932,62.8638 -17.58082,93.35736 -1.68126,5.83148 -3.53152,11.61291 -5.29728,17.41936 -8.04048,23.879 -16.6074,47.71535 -28.06709,70.19718 -2.68959,0.34864 -2.02469,6.05397 -4.65921,7.05416 -0.62141,0.23592 0.38352,-1.32183 0.83247,-1.81198 1.59967,-1.7465 3.48741,-3.20542 5.23112,-4.80813 -49.29844,19.549 -21.65198,89.26753 27.64646,69.71853 v 0 c 6.04118,-3.30684 12.51626,-5.92183 18.12353,-9.92053 8.48087,-6.04794 14.72601,-17.57894 19.79049,-26.45768 1.62048,-3.23736 3.31023,-6.44097 4.86145,-9.71208 11.10687,-23.42152 19.75578,-47.96612 28.01447,-72.49857 5.08774,-16.82625 7.16484,-23.02353 11.53329,-40.27939 7.34754,-29.02363 12.51928,-58.57535 14.47577,-88.47774 0.36149,-7.36237 0.86648,-14.71909 1.08448,-22.0871 0.94536,-31.95167 -0.47002,-64.10205 -5.30835,-95.71168 -2.48575,-11.8645 -3.59132,-19.65047 -8.08199,-31.001684 -5.33081,-13.474862 -13.41386,-25.472195 -24.66031,-34.714138 -3.20247,-2.631687 -6.91043,-4.579571 -10.36565,-6.869357 -7.59918,-3.55857 -9.46423,-4.771528 -17.58628,-7.19074 -13.58729,-4.047073 -27.79876,-5.012347 -41.90479,-4.840837 -4.13816,0.167041 -8.28085,0.245539 -12.4145,0.501122 -28.04826,1.734227 -55.8372,6.588325 -83.26404,12.536811 -6.74389,1.620617 -13.51105,3.147297 -20.23167,4.861852 -35.12401,8.960778 -69.66701,20.27612 -102.8707,34.874986 -21.51669,9.733425 -43.06018,19.499225 -63.75746,30.905295 -46.38357,25.71117 -10.02248,91.30745 36.36109,65.59627 z"/>
<path d="m 313.19889,322.72444 c 18.43205,-4.81606 36.9543,-9.19903 55.59871,-13.11068 34.52718,-6.70169 69.27115,-12.23693 104.07298,-17.29652 16.77862,-2.37349 33.56702,-4.74659 50.48081,-5.90379 52.90514,-3.68056 47.70005,-78.49972 -5.20508,-74.81917 v 0 c -18.7823,1.32333 -37.44367,3.81518 -56.07407,6.50439 -36.35506,5.29329 -72.65177,11.07347 -108.71239,18.12111 -19.02242,4.01048 -37.95219,8.38424 -56.74721,13.36167 -51.7199,11.72825 -35.13365,84.87124 16.58625,73.14299 z"/>
<path d="m 321.21198,455.36041 c 21.4094,-0.02 42.66058,-3.6219 63.81885,-6.54041 36.73359,-5.43408 73.62507,-9.59076 110.65235,-12.34967 20.29865,-1.23015 40.66232,-2.37083 60.99587,-1.26158 9.13957,0.49859 11.10878,0.88123 19.79723,1.95654 8.61109,0.9943 16.83884,3.55306 24.89767,6.61814 49.66316,18.60296 75.97171,-51.63137 26.30855,-70.23432 v 0 c -13.69292,-5.08193 -27.74253,-9.12705 -42.2974,-10.85283 -11.60879,-1.35369 -14.25999,-1.84619 -26.2946,-2.44875 -23.008,-1.15201 -46.04447,-0.0194 -69.0103,1.43239 -6.61267,0.49787 -13.23064,0.92979 -19.83801,1.49362 -31.93691,2.72527 -63.72849,6.88822 -95.46191,11.35025 -16.35212,2.25661 -32.7081,4.72944 -49.174,5.96547 -52.9419,-3.10724 -57.3362,71.76392 -4.3943,74.87115 z"/>
<path d="m 336.88355,459.66245 c -2.26649,-3.33611 -2.04185,-2.74911 -4.10962,-7.97503 -0.43698,-1.10438 -0.37212,-2.41219 -1.00144,-3.41945 -0.17023,-0.27247 -0.66021,0.25845 -0.78981,0.55243 -0.88107,1.99862 -1.38423,4.1452 -2.17811,6.18003 -1.33686,3.42651 -2.80802,6.7991 -4.21202,10.19865 -18.4253,39.25567 -45.67555,73.38413 -72.64257,107.01317 -26.3861,32.6378 -54.64371,63.71195 -83.55928,94.11216 -8.38487,8.86136 -17.08043,17.39783 -26.16324,25.53537 4.28078,21.13165 0.19063,45.93626 12.84233,63.39496 7.85243,10.83597 37.4346,-5.70626 47.66854,-10.40834 4.14815,-1.90591 8.30308,-3.79781 12.4817,-5.63597 5.10607,-2.24616 10.24753,-4.41101 15.37129,-6.61652 39.39064,-16.69991 80.02799,-30.3849 121.41996,-41.19916 10.12055,-2.64414 20.32426,-4.95908 30.4864,-7.43862 53.00016,-11.36955 106.73523,-19.69126 160.8047,-23.80121 9.94886,-0.75623 19.91863,-1.20614 29.87794,-1.80921 31.87352,-1.48113 63.85123,-1.18151 95.66817,1.3076 14.15468,1.10736 17.48116,1.69123 30.9222,3.42231 8.77229,1.23793 17.47417,2.91359 26.11929,4.83699 1.55643,0.34628 3.11341,0.69213 4.65921,1.08313 0.59812,0.15129 2.32007,0.82124 1.76945,0.54293 -3.79467,-1.91803 -7.68138,-3.64828 -11.52207,-5.47242 2.56619,-21.37892 5.13238,-42.75785 7.69857,-64.13678 -50.08488,17.43575 -25.42701,88.26646 24.65787,70.83071 v 0 c 4.46592,-22.04026 8.93184,-44.08053 13.39776,-66.1208 -4.62577,-2.42859 -9.12415,-5.11704 -13.8773,-7.28576 -1.32179,-0.60309 -9.96858,-2.53374 -11.0986,-2.78257 -10.69993,-2.35616 -21.47277,-4.38727 -32.32785,-5.89435 -15.62092,-1.97076 -19.37401,-2.62361 -35.712,-3.87682 -34.90094,-2.67707 -69.97246,-2.97347 -104.93022,-1.31447 -10.70817,0.66014 -21.42775,1.15576 -32.12451,1.98043 -57.77517,4.45418 -115.19604,13.36359 -171.80836,25.63946 -10.96047,2.68891 -21.96581,5.20108 -32.8814,8.06674 -44.61534,11.7128 -88.40989,26.52795 -130.87614,44.54314 -13.36584,5.76387 -26.63353,11.64319 -39.81032,17.82383 -2.04116,0.95742 -8.35207,2.51636 -6.1252,2.86857 8.25196,1.30515 20.8223,-7.07135 25.0633,0.12673 10.8895,18.4823 8.15782,42.12074 12.23673,63.18112 10.56989,-9.47341 20.69828,-19.40555 30.46407,-29.71094 30.36519,-31.94567 60.03812,-64.59768 87.73901,-98.89869 5.68372,-7.10043 11.45797,-14.12934 17.05116,-21.30129 25.4739,-32.66431 49.69103,-66.79115 66.69131,-104.74151 5.72837,-14.61613 11.99182,-29.29606 12.5465,-45.27613 0.36305,-10.45921 -1.23873,-16.22156 -5.22954,-25.68399 -0.82984,-1.9676 -2.17372,-3.67631 -3.26057,-5.51447 -30.45795,-43.41444 -91.85524,-0.34039 -61.39729,43.07404 z"/>
<path d="m 447.03101,498.81992 c 0.73096,14.57031 1.08773,29.27841 1.5286,43.89403 1.22037,38.48365 1.87529,76.98127 2.31869,115.48069 0.55972,39.26514 0.1698,78.53256 -0.91233,117.78429 -0.74565,21.52244 -2.04166,43.02487 -4.03446,64.46778 -0.67222,5.56163 -0.91397,11.17132 -1.53194,16.73752 -0.04,0.36067 -0.27663,1.42354 -0.23458,1.06309 0.10935,-0.93719 0.29123,-1.8645 0.43685,-2.79674 -15.31863,50.77242 56.48442,72.43624 71.80305,21.66381 v 0 c 0.64397,-2.58399 1.40636,-5.14132 1.9319,-7.75198 1.45569,-7.23135 1.19577,-14.72329 2.27539,-22.00215 2.12716,-23.0578 3.5454,-46.17627 4.32545,-69.31954 1.10365,-40.22708 1.50929,-80.47003 0.93569,-120.71077 -0.44976,-38.9651 -1.11302,-77.92839 -2.34782,-116.87755 -0.20281,-6.72176 -0.55705,-18.72717 -0.79651,-25.72325 -0.27692,-8.09043 -0.45229,-16.25152 -1.26596,-24.31391 -0.1839,-1.82224 -0.48147,-3.63122 -0.72221,-5.44682 -9.79449,-52.12071 -83.5043,-38.26921 -73.70981,13.8515 z"/>
<path d="m 409.29749,804.01585 c 13.22176,-6.66531 27.80912,-9.76402 42.13667,-13.04969 27.17616,-5.95238 54.93578,-8.46571 82.69505,-9.36068 12.72143,-0.1748 25.50863,0.26627 38.02818,2.65808 52.15529,9.60866 65.74398,-64.15005 13.5887,-73.75871 v 0 c -17.86222,-3.22492 -36.01321,-4.29859 -54.15698,-3.85634 -4.9113,0.17317 -9.82618,0.26452 -14.73392,0.51952 -27.66466,1.43737 -55.25555,4.90394 -82.34157,10.73175 -19.53124,4.55899 -39.2252,9.25731 -57.26371,18.30786 -47.94764,22.66107 -15.90006,90.46927 32.04758,67.80821 z"/>
<path d="m 211.44834,968.58997 c 12.95179,-4.9259 26.27415,-8.85838 39.54202,-12.83255 29.12374,-8.60835 58.45281,-16.67936 88.26482,-22.56758 7.31084,-1.44397 14.66611,-2.65306 21.99916,-3.97959 40.78211,-6.45495 81.9913,-9.99201 123.24993,-11.31594 8.36143,-0.26831 16.72794,-0.34372 25.09191,-0.51558 32.08025,-0.26988 64.16696,0.79369 96.15966,3.16926 18.50293,1.3739 23.2579,1.99428 41.36926,3.86979 26.69459,2.64888 53.08276,7.59803 79.03766,14.30732 5.80932,1.42722 11.48388,3.30379 17.1068,5.32664 49.93723,17.8542 75.18688,-52.76772 25.24965,-70.62192 v 0 c -7.78693,-2.77223 -15.64885,-5.33229 -23.67318,-7.34036 -29.57584,-7.57617 -59.61548,-13.26727 -90.02118,-16.27539 -19.35307,-1.99117 -24.49414,-2.65705 -44.24454,-4.11075 -34.1211,-2.51144 -68.34188,-3.62442 -102.55453,-3.30815 -8.93887,0.19052 -17.88053,0.2782 -26.81661,0.57156 -44.65293,1.46589 -89.24947,5.36754 -133.37184,12.45338 -8.13598,1.48615 -16.29614,2.84559 -24.40796,4.45845 -31.73782,6.31039 -62.97844,14.86792 -93.99065,24.04205 -15.06015,4.52465 -30.16723,9.02561 -44.86171,14.64842 -49.51228,19.0009 -22.64095,89.02183 26.87133,70.02094 z"/>
</svg>
