<?xml version="1.0" ?>
<svg xmlns="http://www.w3.org/2000/svg" viewBox="0 0 1000 1000">
<path d="m 132.08155,286.37997 c -0.53412,29.05149 -1.97615,58.07757 -3.09651,87.1103 -2.45457,63.22133 -3.18287,126.49051 -3.71253,189.75167 -0.27272,45.04697 -0.5834,90.10326 -2.98882,135.09508 -2.81736,52.95812 72.07673,56.94246 74.89409,3.98434 v 0 c 2.44179,-46.11105 2.8417,-92.28432 3.09211,-138.452 0.52249,-62.50626 1.23594,-125.0206 3.65939,-187.48758 1.15708,-29.99572 2.66415,-59.98515 3.15227,-90.00181 0,-53.03301 -75,-53.03301 -75,0 z"/>
<path d="m 210.65251,358.01543 c 14.66719,-5.83696 29.72765,-10.54161 44.89758,-14.86772 18.4788,-4.72102 37.35852,-7.80395 56.35954,-9.35841 10.10443,-0.79475 20.21049,-0.28765 30.27347,0.70151 2.69638,0.26644 5.38479,0.61073 8.08254,0.86393 0.3937,0.0369 -0.79079,-0.0525 -1.17996,-0.12261 -1.14792,-0.20682 -2.28464,-0.47163 -3.42696,-0.70744 -9.69969,-2.95435 -17.95522,-9.5823 -21.98451,-19.02661 -0.52888,-1.23966 -0.87762,-2.54865 -1.31643,-3.82297 0.91606,16.24765 1.47756,32.5131 1.9892,48.778 1.03628,34.5869 0.9092,69.19211 0.51913,103.78759 -0.36097,25.44571 -1.2872,50.89377 -3.57627,76.24547 -1.37312,15.20748 -1.95002,18.76561 -3.82218,33.61349 -2.45052,15.12423 -4.191,30.51978 -8.70897,45.22186 -0.54537,1.77471 -1.25162,3.49592 -1.87743,5.24389 -17.08418,50.20588 53.91766,74.36656 71.00184,24.16067 v 0 c 1.12186,-3.38798 2.36011,-6.73961 3.36558,-10.16393 5.28204,-17.98908 7.83983,-36.63869 10.63572,-55.12717 2.04256,-16.35802 2.68601,-20.37827 4.1766,-37.09443 2.40941,-27.02014 3.42141,-54.1391 3.80038,-81.25753 0.39904,-35.66424 0.52253,-71.33842 -0.55165,-106.9936 -0.39197,-12.40282 -0.8071,-24.80351 -1.38223,-37.19951 -0.2042,-4.40117 -0.56452,-11.99911 -1.01779,-16.51455 -0.22847,-2.27606 -0.59338,-4.53634 -0.89007,-6.80452 -1.83915,-7.1317 -1.86,-9.31724 -5.31573,-15.4996 -5.40489,-9.66941 -14.10033,-16.32173 -24.53736,-19.68828 -1.71265,-0.39794 -3.41273,-0.85447 -5.13794,-1.19383 -3.81782,-0.75098 -7.75949,-0.7636 -11.59891,-1.34741 -14.58677,-1.40268 -29.24823,-1.96106 -43.88121,-0.78217 -23.82096,2.08593 -47.50947,5.83081 -70.64103,11.98489 -17.06394,4.90152 -34.02086,10.18137 -50.53768,16.727 -49.67,18.5847 -23.38727,88.82869 26.28273,70.24399 z"/>
<path d="m 200.62904,524.51387 c 12.84436,-1.92209 25.68892,-3.86881 38.65695,-4.75308 4.44096,-0.30281 8.89108,-0.45154 13.33661,-0.67731 21.55872,-1.04027 43.08331,0.70152 64.52689,2.71971 52.80171,4.94766 59.79876,-69.72524 6.99705,-74.6729 v 0 c -25.08263,-2.34093 -50.26373,-4.21111 -75.47354,-2.94275 -5.37314,0.29202 -10.75234,0.48826 -16.11942,0.87604 -15.62876,1.12918 -31.14266,3.40023 -46.6015,5.9004 -52.00763,10.37818 -37.33066,83.92808 14.67696,73.54989 z"/>
<path d="m 181.54982,725.17003 c 1.27194,-0.68165 2.56255,-1.32957 3.81583,-2.04495 5.45504,-3.11377 6.99528,-4.33747 12.64238,-7.28366 11.50125,-6.00043 23.52182,-10.96487 35.43298,-16.0675 25.45742,-10.5136 51.12632,-20.56248 77.26688,-29.26371 12.84427,-4.27539 25.55187,-8.07233 38.48907,-12.02187 50.71958,-15.49272 28.80957,-87.22104 -21.91001,-71.72832 v 0 c -14.4037,4.40209 -26.80929,8.10152 -41.18672,12.90202 -27.81943,9.28866 -55.14967,19.97576 -82.24103,31.19225 -19.00949,8.17348 -38.17151,16.24457 -55.79062,27.20384 -47.45528,23.6748 -13.97404,90.7867 33.48124,67.1119 z"/>
<path d="m 447.69856,253.0975 c 20.36585,-5.78535 40.94315,-10.76913 61.56354,-15.55157 44.92139,-10.09895 90.33288,-17.77567 135.73256,-25.34966 29.04821,-4.64805 58.07155,-9.55797 87.32787,-12.73892 14.475,-1.57382 16.7359,-1.62105 30.5905,-2.62204 8.68595,-0.41814 17.42201,-0.80265 26.1032,-0.032 1.28765,0.11431 2.57012,0.29631 3.84248,0.52483 1.88676,0.33887 2.05801,0.0555 1.53722,0.62717 -5.67403,-1.37625 -10.14604,-5.20179 -13.61049,-9.76229 -1.03434,-1.36157 -0.94021,-2.09178 -0.98202,-1.1567 2.71947,11.10065 2.89501,22.64063 3.33825,33.9995 0.21158,26.50787 -0.0557,53.08433 -2.31846,79.51391 -0.50645,5.91546 -1.21598,11.81177 -1.82398,17.71766 -3.75034,27.88453 -10.9872,55.33882 -21.33069,81.51045 -1.90134,4.81087 -4.05772,9.517 -6.08658,14.27551 -10.628,22.39232 -23.36183,43.80032 -38.07855,63.7412 -5.80814,7.90501 -12.64429,14.85693 -20.71892,20.40289 -0.41513,0.24798 -2.40878,1.46478 -2.94622,1.69392 -0.15494,0.0661 0.23122,-0.25552 0.38181,-0.33098 0.93646,-0.46926 1.86088,-0.99057 2.86311,-1.29503 4.98421,-1.51412 5.26355,-1.30841 9.81845,-1.58115 -0.22818,-0.25582 -0.38824,-0.59507 -0.68454,-0.76745 -19.0014,-11.05393 13.47253,9.12622 -14.42474,-7.91028 -14.10015,-8.61077 -27.19885,-18.35529 -40.35694,-28.31146 -4.2113,-3.83304 -8.42259,-7.66608 -12.63389,-11.49913 -39.49849,-35.38882 -89.54584,20.4705 -50.04734,55.85932 v 0 c 5.84282,5.17498 11.68564,10.34995 17.52846,15.52493 5.58781,4.20042 11.09335,8.51256 16.76342,12.60126 9.6539,6.96145 21.79727,15.12536 32.1139,21.27024 6.92207,4.12298 17.55413,9.85011 25.19865,12.8664 4.00977,1.58212 8.19825,2.66721 12.29737,4.00082 4.41002,0.51517 8.79006,1.55421 13.23006,1.54551 12.75243,-0.025 23.99133,-5.44228 34.23054,-12.45149 4.51548,-3.23925 6.40415,-4.47386 10.82345,-8.2012 10.16289,-8.57161 19.06562,-18.50474 27.06925,-29.09965 2.42179,-3.32516 4.91429,-6.59996 7.26537,-9.97548 15.12817,-21.72001 28.15563,-44.94613 39.39165,-68.88812 2.49835,-5.95424 5.15016,-11.8464 7.49505,-17.86274 12.46418,-31.9795 21.08307,-65.49092 25.45286,-99.52861 0.6796,-6.75255 1.47141,-13.49474 2.0388,-20.25765 2.4441,-29.13193 2.77026,-58.42298 2.42563,-87.63753 -0.80813,-18.95386 -1.62239,-38.20267 -7.71522,-56.34771 -2.64915,-6.93553 -5.44494,-13.69435 -10.35822,-19.42529 -6.38857,-7.45173 -14.18244,-12.6656 -23.42701,-15.87817 -2.42564,-0.68278 -4.82173,-1.48089 -7.27691,-2.04836 -16.96033,-3.92001 -34.62595,-2.92076 -51.85238,-2.22774 -15.36074,1.13295 -18.12009,1.20785 -34.02452,2.95245 -30.40644,3.33535 -60.58213,8.37755 -90.77268,13.23183 -46.94791,7.834 -93.90395,15.79714 -140.35102,26.27013 -22.14482,5.14628 -44.24727,10.50083 -66.10891,16.75822 -50.8058,15.20759 -29.29901,87.05784 21.50678,71.85025 z"/>
<path d="m 542.51128,223.03882 c 0.0241,-0.6399 0.3976,-2.47136 0.0724,-1.91972 -0.52776,0.89527 -0.4946,2.01886 -0.72786,3.03159 -1.13191,4.91443 -2.17418,10.12975 -3.69646,14.92901 -2.56155,8.07578 -5.48344,14.35195 -8.84301,22.29383 -18.77029,41.28171 -45.66678,78.03586 -72.52123,114.31342 -21.9673,28.70159 -10.97565,14.25123 -32.97252,43.35291 -31.97732,42.30781 27.85496,87.53058 59.83228,45.22277 v 0 c 21.97506,-29.07569 10.83071,-14.41575 33.43828,-43.97583 5.62523,-7.61091 11.33989,-15.15652 16.87569,-22.83273 24.41831,-33.85965 47.47855,-68.98627 64.56257,-107.19675 2.33183,-5.64601 4.83184,-11.22546 6.99549,-16.93803 5.5681,-14.70114 9.56707,-30.04164 11.83765,-45.59169 3.31546,-52.92927 -71.53783,-57.61805 -74.85329,-4.68878 z"/>
<path d="m 434.81641,584.9596 c 1.48354,10.52633 3.52226,20.96299 5.02588,31.48747 1.28013,8.96018 3.16884,24.60183 4.22476,33.12455 5.40475,43.15648 13.24452,85.95294 22.35231,128.46655 4.76148,21.72465 10.1395,43.30495 16.14817,64.71639 14.34166,51.05699 86.54715,30.77482 72.20549,-20.28217 v 0 c -5.59667,-19.9036 -10.58334,-39.97023 -15.02195,-60.16508 -8.66978,-40.35831 -16.1053,-80.99219 -21.25379,-121.96291 -2.68318,-21.63063 -5.4553,-43.24208 -9.26266,-64.70841 -6.59278,-52.62162 -81.011,-43.29802 -74.41821,9.32361 z"/>
<path d="m 524.67138,652.57056 c 20.74918,-4.32949 40.94354,-10.91934 61.35753,-16.55424 6.27146,-1.73113 12.56588,-3.37799 18.84881,-5.06698 33.94162,-8.6929 68.4173,-15.23762 103.14241,-19.87819 6.07713,-0.81213 12.17509,-1.45989 18.26263,-2.18983 13.92829,-1.47437 27.92314,-2.45958 41.9334,-2.57566 6.45985,-0.0535 12.82102,0.11219 19.19362,1.14317 0.33455,0.14995 1.36974,0.43029 1.00365,0.44986 -2.66221,0.14225 -8.14243,-3.31213 -8.7953,-3.82441 -6.19381,-4.86006 -8.58173,-9.11211 -11.12415,-16.14154 -2.8158,20.94658 -7.72868,41.52515 -12.3357,62.12884 -5.5878,25.50865 -11.34452,50.99661 -18.85905,76.02068 -4.28426,14.26701 -7.39413,22.99202 -12.18441,37.07134 -5.2856,15.71824 -10.97583,31.28751 -16.88423,46.77971 -18.87204,49.56154 51.21856,76.25063 70.0906,26.68909 v 0 c 6.21556,-16.3465 12.23904,-32.76053 17.80694,-49.34183 5.39877,-15.91116 8.49757,-24.57447 13.33934,-40.78397 7.87645,-26.36915 14.00905,-53.1993 19.88391,-80.07133 3.47875,-15.56232 7.11707,-31.10587 10.00357,-46.79314 1.15326,-6.26762 2.87507,-16.70503 3.48127,-23.20396 0.33962,-3.64108 0.41165,-7.30218 0.61747,-10.95327 -0.98645,-10.81888 -0.4757,-16.58105 -6.2246,-26.71876 -9.07023,-15.99462 -22.76085,-22.48397 -39.88453,-25.6464 -3.04189,-0.37242 -6.07261,-0.85146 -9.12567,-1.11725 -23.60786,-2.05525 -47.41338,0.34463 -70.91426,2.42815 -6.71727,0.814 -13.4457,1.54074 -20.15183,2.44201 -37.63012,5.0573 -74.98279,12.20971 -111.75878,21.66165 -6.61586,1.78103 -13.24329,3.51964 -19.84758,5.34308 -17.95308,4.95684 -35.72496,10.65341 -53.88058,14.83941 -52.22957,9.19629 -39.22405,83.06006 13.00552,73.86377 z"/>
<path d="m 538.13164,855.35145 c 15.28342,-3.87595 30.9477,-5.74716 46.58274,-7.53087 27.15582,-2.48026 54.49965,-3.60527 81.76373,-2.5821 5.45655,0.20477 10.90374,0.60997 16.3556,0.91496 17.77282,1.13781 35.35148,3.93083 52.83441,7.20112 52.14076,9.68716 65.84049,-64.051 13.69973,-73.73817 v 0 c -20.66739,-3.81773 -41.44855,-7.06375 -62.4532,-8.35184 -6.33927,-0.33755 -12.67356,-0.78734 -19.01781,-1.01265 -30.60325,-1.08687 -61.29094,0.18961 -91.76405,3.06126 -18.01181,2.09156 -36.05728,4.29574 -53.68207,8.69588 -51.86091,11.08809 -36.17999,84.43049 15.68092,73.34241 z"/>
</svg>
