<?xml version="1.0" ?>
<svg xmlns="http://www.w3.org/2000/svg" viewBox="0 0 1000 1000">
<path d="m 155.25294,293.77823 c 2.60124,26.82354 3.98732,53.74612 5.24661,80.66111 1.83752,56.02523 4.33555,112.01753 7.87561,167.96081 2.55397,36.73034 5.48848,73.43801 9.28656,110.06187 1.00415,8.98381 0.51516,4.87868 1.43891,12.3187 6.56562,52.62502 80.98864,43.33982 74.42301,-9.2852 v 0 c -0.79039,-6.29769 -0.35795,-2.70737 -1.26253,-10.77507 -3.69957,-35.62461 -6.54173,-71.33241 -9.03588,-107.06029 -3.51953,-55.53542 -5.9737,-111.12069 -7.80816,-166.73726 -0.99342,-21.10052 -2.08868,-42.17312 -3.69893,-63.23693 -0.44233,-5.78626 -1.26656,-16.0115 -2.02631,-22.36712 -0.25106,-2.10023 -0.60114,-4.18744 -0.90171,-6.28116 -10.42314,-51.99864 -83.96032,-37.2581 -73.53718,14.74054 z"/>
<path d="m 246.10054,326.00217 c -1.50657,1.98009 -3.24335,3.80453 -4.5197,5.94029 -0.29762,0.49802 0.99231,-0.6019 1.49866,-0.88511 1.16363,-0.65082 2.31163,-1.33362 3.51067,-1.91662 8.60966,-4.1862 17.67587,-7.13164 26.72544,-10.18709 20.61022,-6.56345 41.78475,-11.07323 63.15374,-14.28177 4.84686,-0.51778 9.69386,-1.40822 14.57886,-1.55159 0.16576,-0.005 -0.32537,0.0789 -0.4912,0.0789 -0.99606,0 -1.99143,-0.0526 -2.98715,-0.0788 -10.54662,-2.27521 -10.34382,-1.32407 -21.41214,-10.46215 -2.20484,-1.82033 -3.34165,-4.64357 -5.13034,-6.87416 -0.0827,-0.10314 -0.41718,-0.14824 -0.39621,-0.0177 0.31789,1.97889 0.92442,3.90096 1.33513,5.86269 0.70473,3.36603 1.34061,6.74612 2.01091,10.11918 6.10937,31.74673 9.61576,63.94257 10.66109,96.25181 0.26148,8.08184 0.24871,16.17023 0.37307,24.25534 -0.22342,46.25808 -4.1207,92.3826 -8.18025,138.42916 -1.16286,15.27101 -3.34421,30.4154 -5.81095,45.51771 -8.46622,52.35288 65.57192,64.32592 74.03814,11.97305 v 0 c 2.70955,-16.89672 5.17306,-33.83039 6.48326,-50.90673 4.28496,-48.64112 8.35068,-97.36982 8.45983,-146.2363 -0.15352,-8.9514 -0.15341,-17.90676 -0.46055,-26.85422 -1.23559,-35.99558 -5.20745,-71.86371 -12.03831,-107.22936 -1.39515,-6.86224 -3.10687,-16.18801 -5.13923,-23.07983 -0.98404,-3.33689 -1.84743,-6.75466 -3.40275,-9.8666 -2.12326,-4.24826 -4.17782,-8.74395 -7.56338,-12.07471 -11.19922,-11.01798 -13.38957,-10.35696 -25.44109,-13.33683 -1.91936,-0.13021 -3.83513,-0.33449 -5.75807,-0.39063 -8.35944,-0.24407 -16.68948,1.49682 -24.96278,2.31801 -25.79144,3.93556 -51.35259,9.41141 -76.19673,17.47351 -13.98728,4.83303 -27.84451,9.61401 -40.87735,16.7426 -3.83507,2.09768 -12.6599,7.6158 -16.1515,10.92603 -3.27984,3.10947 -6.09523,6.67479 -9.14285,10.01218 -28.5175,44.71299 34.71623,85.04283 63.23373,40.32984 z"/>
<path d="m 230.12427,498.12302 c 17.92691,-3.44337 36.0452,-5.74343 54.15576,-7.96236 15.08801,-1.88291 30.2632,-2.57468 45.45013,-2.89346 53.02018,-1.16605 51.37113,-76.14792 -1.64906,-74.98186 v 0 c -17.69027,0.40407 -35.36817,1.24116 -52.94262,3.43452 -21.13499,2.60095 -42.31399,5.24055 -63.16599,9.63288 -51.45635,12.83525 -33.30458,85.60552 18.15178,72.77028 z"/>
<path d="m 241.35802,683.98513 c 25.38907,-12.32573 50.59979,-24.98562 75.64257,-38.00316 25.2062,-13.24529 50.26576,-26.76688 75.36552,-40.21207 46.74838,-25.04173 11.33403,-91.15394 -35.41436,-66.11221 v 0 c -24.82853,13.29991 -49.61734,26.67531 -74.54917,39.78123 -24.66962,12.8297 -49.51231,25.29075 -74.52562,37.43423 -47.45534,23.67468 -13.97428,90.78667 33.48106,67.11198 z"/>
<path d="m 516.20026,285.98504 c 17.42903,-5.93521 35.41797,-10.26601 53.59072,-13.20491 6.65466,-1.0762 13.35347,-1.85893 20.03021,-2.7884 26.70579,-3.19243 53.63156,-4.64904 80.52078,-3.70423 12.44912,0.43743 16.05976,0.92859 27.89543,2.0307 3.28766,0.3955 6.57531,0.791 9.86296,1.1865 52.66233,6.25928 61.51429,-68.21651 8.85195,-74.47579 v 0 c -3.96998,-0.46712 -7.93996,-0.93424 -11.90994,-1.40136 -14.2696,-1.27655 -18.63006,-1.85415 -33.5555,-2.33131 -30.78154,-0.98406 -61.60098,0.69978 -92.16198,4.43361 -7.8481,1.1235 -15.72355,2.07012 -23.54429,3.3705 -21.44358,3.56548 -42.65837,8.7444 -63.2497,15.71756 -50.32276,16.73676 -26.6534,87.9039 23.66936,71.16713 z"/>
<path d="m 572.37997,152.53395 c 4.61489,23.08968 7.43363,46.49487 10.08953,69.87504 3.58988,35.15383 4.69668,70.57675 3.24191,105.88737 -0.27528,6.68163 -0.77663,13.35204 -1.16495,20.02806 -3.02617,52.9466 71.85162,57.22625 74.8778,4.27966 v 0 c 0.42169,-7.4961 0.9658,-14.98631 1.26508,-22.4883 1.54604,-38.75506 0.26812,-77.6271 -3.70279,-116.20436 -3.10907,-27.1675 -6.29141,-54.43761 -12.2606,-81.15268 -13.98318,-51.156331 -86.32916,-31.38112 -72.34598,19.77521 z"/>
<path d="m 437.56004,453.67136 c 1.73652,-0.48602 3.47949,-0.94958 5.20957,-1.45807 11.50875,-3.3826 22.94909,-6.73688 34.63548,-9.49814 17.16542,-4.05584 24.5365,-5.37581 42.45759,-8.9953 50.47169,-9.09753 101.49617,-15.72027 152.71022,-18.77578 10.68932,-0.63774 21.39708,-0.91578 32.09562,-1.37367 48.51714,-1.26375 97.00734,2.0646 145.21272,7.29751 16.25139,1.93153 8.65101,0.99468 22.80406,2.78665 52.61371,6.65564 62.02621,-67.75138 9.4125,-74.40702 v 0 c -14.98281,-1.89372 -6.93402,-0.90365 -24.14952,-2.94452 -51.96647,-5.60457 -104.2367,-9.13862 -156.53455,-7.66197 -11.52319,0.50738 -23.05631,0.82508 -34.56958,1.52213 -54.28497,3.28662 -108.36691,10.32884 -161.85553,20.04639 -29.02537,5.88311 -58.06572,11.87908 -86.32061,20.88018 -51.32295,13.35868 -32.43092,85.9403 18.89203,72.58161 z"/>
<path d="m 468.51597,568.92914 c 1.82365,-0.22269 3.65332,-0.40062 5.47094,-0.66809 9.88251,-1.45423 19.68166,-3.49186 29.54479,-5.07043 14.92066,-2.38802 20.10519,-3.00183 35.67078,-5.13674 42.36547,-5.00483 85.02753,-7.70409 127.68446,-8.26277 8.94297,-0.11713 17.88743,-0.032 26.83115,-0.048 29.3997,0.42864 58.85007,1.5789 88.06055,5.11692 11.16592,1.35244 16.79342,2.41534 27.53328,4.22639 3.19262,0.6044 6.38524,1.2088 9.57786,1.8132 52.11533,9.82305 66.00722,-63.87915 13.89189,-73.7022 v 0 c -3.6936,-0.69356 -7.38721,-1.38713 -11.08082,-2.08069 -12.89957,-2.14784 -18.6983,-3.24971 -32.19728,-4.85781 -31.83181,-3.79204 -63.91235,-5.09277 -95.94602,-5.51564 -9.50379,0.0235 -19.00844,-0.0606 -28.51135,0.0704 -45.4551,0.6266 -90.91347,3.53484 -136.05065,8.93797 -22.00065,3.02672 -44.00512,6.13769 -65.81121,10.36722 -52.89883,3.77003 -47.56721,78.58028 5.33163,74.81025 z"/>
<path d="m 694.36768,439.65163 c -0.58268,-0.77051 -1.16535,-1.54102 -1.74803,-2.31154 -0.12839,-0.0553 -0.41853,-0.30148 -0.38516,-0.16575 0.34872,1.41832 0.94792,2.76382 1.36787,4.1627 0.7144,2.37971 1.41358,4.76508 2.03454,7.17087 2.62467,10.16872 2.65934,11.37516 4.75566,22.3218 4.81518,29.56968 5.38303,59.66163 3.79031,89.53084 -0.38756,7.26805 -1.03286,14.52005 -1.54929,21.78008 -3.77718,38.07798 -9.74282,76.06884 -19.65451,113.0676 -1.78814,6.67484 -3.8703,13.26743 -5.80545,19.90114 -6.93813,21.58673 -15.01298,42.90036 -25.63769,62.97048 -4.88099,9.22022 -6.89177,12.0316 -12.34359,20.61187 -7.50225,10.00788 -14.57695,22.41348 -25.01703,29.73292 2.78979,1.45467 -1.76901,0.58372 -1.3805,0.3156 3.79776,-2.62087 2.18401,-0.53032 7.76588,-2.78521 0.2878,-0.11626 0.56498,-0.66424 0.33242,-0.86982 -1.27025,-1.12291 -2.88787,-1.77711 -4.33181,-2.66567 -12.66703,-8.96074 -5.75801,-3.76859 -20.49227,-15.88407 -41.33312,-33.22759 -88.32403,25.22627 -46.99091,58.45387 v 0 c 23.29604,18.4389 11.47188,10.10536 35.33701,25.19172 12.30351,5.37828 18.98815,9.57409 32.51773,10.68618 17.20752,1.41441 30.20391,-3.93907 43.73749,-13.59355 2.33433,-1.90501 4.75157,-3.71269 7.00297,-5.71501 13.8532,-12.32062 24.54314,-27.74301 34.98827,-42.90881 7.28502,-11.65205 9.61589,-14.90298 16.13562,-27.38989 12.54749,-24.03158 22.23358,-49.45181 30.40951,-75.26444 2.20861,-7.65748 4.58228,-15.26926 6.62584,-22.97243 10.91105,-41.12899 17.55121,-83.32815 21.61804,-125.6467 0.56354,-8.17224 1.27421,-16.33567 1.69062,-24.51672 1.80749,-35.51134 0.82954,-71.26658 -5.13297,-106.37331 -2.66702,-13.50686 -5.33795,-26.70302 -9.58041,-39.82222 -1.8005,-5.56781 -4.08392,-11.68877 -6.87536,-16.85708 -1.18031,-2.18532 -2.68887,-4.17673 -4.0333,-6.2651 -32.60445,-41.82643 -91.75595,4.28323 -59.1515,46.10965 z"/>
<path d="m 487.4177,681.54534 c 11.52683,4.04856 23.04354,8.33126 34.07651,13.60716 3.2087,1.53437 6.32588,3.25322 9.48882,4.87983 8.98579,4.72909 17.01771,10.90588 25.03187,17.06954 42.20603,32.11153 87.61859,-27.57682 45.41256,-59.68835 v 0 c -11.67139,-8.8116 -23.4287,-17.54929 -36.49227,-24.25609 -4.3935,-2.20976 -8.73412,-4.52796 -13.18049,-6.6293 -13.61057,-6.43229 -27.78196,-11.71322 -42.01215,-16.58308 -50.62905,-15.78605 -72.9539,55.81424 -22.32485,71.60029 z"/>
</svg>
