<?xml version="1.0" ?>
<svg xmlns="http://www.w3.org/2000/svg" viewBox="0 0 1000 1000">
<path d="m 255.66094,105.81401 c 3.97784,26.30251 9.65566,52.3049 15.23735,78.30138 9.32439,42.02153 16.15942,84.52551 23.80478,126.86792 2.54417,12.48025 3.44775,18.39547 7.03546,30.43462 1.2455,4.1795 2.8137,8.25597 4.22056,12.38395 17.53482,50.05028 88.3166,25.2523 70.78177,-24.79798 v 0 c -0.84017,-2.28577 -1.79821,-4.5316 -2.5205,-6.8573 -2.94725,-9.48987 -3.60125,-14.21005 -5.71137,-24.49322 -7.79538,-43.15022 -14.77048,-86.46393 -24.28266,-129.28595 -5.25698,-24.47242 -10.63414,-48.9452 -14.39882,-73.703257 -7.88412,-52.443689 -82.0507,-41.293851 -74.16657,11.149837 z"/>
<path d="m 429.53526,139.18502 c 17.50385,-7.93237 36.54079,-11.22877 55.32844,-14.51418 34.54238,-5.37945 69.49401,-7.14794 104.40259,-7.83099 15.86969,-0.0435 31.80224,0.008 47.61105,1.58632 0.40324,0.0733 0.82054,0.0913 1.20971,0.21977 0.20386,0.0673 -0.4327,0.009 -0.64322,-0.0327 -0.78068,-0.15599 -1.56558,-0.31091 -2.32181,-0.55971 -1.17071,-0.38518 -2.38399,-0.714 -3.44669,-1.33817 -8.69799,-5.1087 -7.19394,-4.3186 -12.99487,-10.89599 -0.8835,-1.52009 -1.76701,-3.04019 -2.65051,-4.56029 -0.10663,-0.0518 -0.3351,-0.27284 -0.3199,-0.15529 0.20113,1.55595 0.63959,3.07277 0.89707,4.62039 0.41969,2.52263 0.7999,5.05226 1.134,7.58765 1.50193,11.39771 1.4732,12.74903 2.54436,24.9609 1.83615,31.21375 1.37888,62.66685 -2.95336,93.67361 -0.94995,6.79901 -2.27612,13.54013 -3.41418,20.31019 -4.11707,19.20433 -7.95955,38.61165 -14.64206,57.14267 -1.972,5.46849 -4.44662,10.74244 -6.66993,16.11367 -19.89568,49.15955 49.62643,77.29629 69.52211,28.13673 v 0 c 2.94104,-7.38919 6.17983,-14.66671 8.82312,-22.16756 7.66871,-21.7615 12.28236,-44.46149 16.96265,-66.99408 1.32419,-8.12567 2.866,-16.21885 3.97256,-24.37701 4.87303,-35.92656 5.37721,-72.35263 3.10307,-108.49521 -1.2381,-13.71041 -2.45034,-27.38248 -4.90797,-40.942045 -0.80737,-4.454528 -2.56011,-12.548833 -4.21161,-16.752932 -1.25336,-3.190619 -2.99166,-6.168781 -4.4875,-9.253171 -2.15038,-2.663687 -3.93431,-5.670521 -6.45115,-7.99106 -8.98708,-8.28613 -19.14764,-11.636119 -30.94109,-12.912301 -18.68354,-1.728171 -37.46895,-2.111141 -56.22391,-1.909362 -38.79709,0.791664 -77.63876,2.838942 -116.0077,8.969839 -6.43416,1.15558 -12.89617,2.165557 -19.30246,3.466741 -19.34412,3.92899 -38.49543,9.379608 -56.40186,17.781601 -47.45534,23.674676 -13.97429,90.78667 33.48105,67.11199 z"/>
<path d="m 348.68821,268.09929 c 1.68651,-0.34605 3.38618,-0.63328 5.05955,-1.03817 8.68474,-2.10133 17.22762,-4.80226 25.88511,-7.01485 13.901,-3.55266 13.06212,-3.20738 27.77625,-6.32535 28.42755,-5.46896 57.37046,-8.36412 86.3135,-8.91341 5.07002,-0.0962 10.14187,-0.003 15.2128,-0.004 17.3317,0.73188 8.99842,0.23754 25.00342,1.4215 52.89506,3.82255 58.30097,-70.98237 5.4059,-74.80492 v 0 c -19.4659,-1.37928 -9.28515,-0.81152 -30.54696,-1.61645 -5.96087,0.0189 -11.92305,-0.0701 -17.8826,0.0566 -33.2566,0.70713 -66.49581,4.1344 -99.14427,10.50933 -18.39886,3.94313 -36.74342,8.1528 -54.75449,13.64366 -52.38688,8.2532 -40.71509,82.33943 11.67179,74.08623 z"/>
<path d="m 349.17243,363.03836 c 1.97352,0.01 3.94957,0.12898 5.92058,0.0289 9.90218,-0.50286 19.77815,-2.29667 29.57118,-3.72408 22.82648,-3.32712 6.58063,-1.03324 31.26244,-4.4467 35.14489,-4.39611 70.39254,-8.43084 105.78704,-10.15093 6.59626,-0.32056 13.19986,-0.46595 19.79979,-0.69893 15.78696,-0.49 31.58887,0.0457 47.2805,1.86418 4.92613,0.5709 9.82581,1.35069 14.73872,2.02603 52.55666,7.09212 62.58642,-67.23422 10.02977,-74.32633 v 0 c -6.01382,-0.79914 -12.01124,-1.73321 -18.04146,-2.3974 -18.82494,-2.07347 -37.77295,-2.69402 -56.7001,-2.11813 -7.2409,0.26425 -14.48586,0.43412 -21.7227,0.79273 -37.28857,1.84778 -74.42676,6.05617 -111.45174,10.71667 -25.35655,3.51059 -8.86977,1.17998 -31.70793,4.50971 -3.68279,0.53694 -7.36675,1.06582 -11.05038,1.59702 -3.03387,0.4375 -6.1377,0.55566 -9.09352,1.3674 -0.12118,0.0333 0.23705,0.0835 0.35557,0.12524 -52.91607,-3.51981 -57.89384,71.31482 -4.97776,74.83463 z"/>
<path d="m 436.65419,406.46708 c 11.86038,9.00936 22.23802,19.82926 32.89161,30.1961 10.49956,10.27155 5.43752,5.28089 15.19334,14.96468 37.64232,37.35714 90.47329,-15.87714 52.83097,-53.23428 v 0 c -10.18772,-10.10868 -4.94922,-4.94584 -15.72086,-15.48306 -13.77389,-13.40193 -27.28151,-27.30072 -43.00926,-38.45439 -43.84836,-29.82987 -86.03416,32.18109 -42.1858,62.01095 z"/>
<path d="m 176.9742,566.11557 c 19.62295,-4.82228 38.71673,-11.50992 58.37168,-16.23982 7.31631,-1.76065 14.69122,-3.26817 22.03683,-4.90225 55.90506,-10.79363 112.62279,-17.05667 169.33094,-21.8053 14.39427,-1.20535 28.80866,-2.15703 43.21298,-3.23554 73.50064,-4.47031 147.3371,-5.34626 220.85149,-0.54447 12.45148,0.81331 24.8715,2.05232 37.30725,3.07848 25.17184,3.0474 38.10362,4.09031 62.4733,8.93619 8.67427,1.72487 17.226,4.01707 25.839,6.02561 51.67882,11.90799 68.51926,-61.17688 16.84045,-73.08488 v 0 c -10.10997,-2.30566 -20.15364,-4.92417 -30.3299,-6.917 -26.91549,-5.27089 -41.02812,-6.40283 -68.69476,-9.70915 -13.24816,-1.07946 -26.48011,-2.38069 -39.74446,-3.23837 -76.61366,-4.95388 -153.55795,-4.03213 -230.1529,0.66374 -14.85592,1.11651 -29.72221,2.10265 -44.56775,3.34953 -59.87161,5.02861 -119.74761,11.71826 -178.73999,23.29045 -8.27067,1.85962 -16.57401,3.57947 -24.81201,5.57885 -18.15811,4.40702 -35.90838,10.20282 -53.89911,15.20404 -52.00763,10.37818 -37.33067,83.92807 14.67696,73.54989 z"/>
<path d="m 346.84686,609.02342 c 5.3179,13.60364 10.87268,27.12189 14.90176,41.18452 1.27317,4.44374 2.33512,8.94531 3.50268,13.41796 4.81042,20.27519 8.53795,40.78366 11.59651,61.38934 7.8175,52.45366 81.99818,41.39804 74.18068,-11.05562 v 0 c -3.49047,-23.33739 -7.7121,-46.57123 -13.27111,-69.51362 -1.51044,-5.65106 -2.89081,-11.33851 -4.53134,-16.95319 -4.35341,-14.89949 -9.99636,-29.3518 -15.76642,-43.74462 -17.87228,-49.93076 -88.48505,-24.65554 -70.61276,25.27523 z"/>
<path d="m 404.00031,631.90033 c 16.59186,-6.39928 34.28278,-9.55917 51.67896,-12.93215 30.23903,-5.51084 60.94521,-8.03293 91.64122,-8.95476 13.57438,0.0428 27.31794,-0.33317 40.76177,1.9092 0.3622,0.0968 0.73843,0.15133 1.0866,0.2904 0.10672,0.0426 -0.2341,0.0371 -0.34471,0.006 -0.97665,-0.2754 -1.97936,-0.4977 -2.90146,-0.92129 -5.42968,-2.49429 -9.57572,-5.2236 -13.29839,-10.38942 -2.42313,-3.36251 -3.70031,-7.41753 -5.55046,-11.1263 -0.35922,-1.90955 -0.61136,-3.84239 -1.07767,-5.72866 -0.0263,-0.10644 -0.29128,-0.0141 -0.31556,0.0928 -0.42203,1.85783 -0.62587,3.75896 -0.98447,5.63006 -2.35311,12.27816 -5.19892,24.46941 -7.82487,36.69055 -3.52321,15.9255 -6.2702,32.06049 -10.82816,47.7446 -1.25639,4.3233 -2.54488,8.65352 -4.2486,12.82087 -1.44466,3.53366 -3.44714,6.81266 -5.17071,10.21899 -22.67354,47.94174 45.12632,80.00697 67.79986,32.06523 v 0 c 2.90071,-6.37139 6.1552,-12.5933 8.70211,-19.11418 2.23164,-5.7137 3.91938,-11.62974 5.60892,-17.52651 4.7542,-16.59293 7.79201,-33.6103 11.46331,-50.4549 2.87187,-13.36838 6.04605,-26.70399 8.48542,-40.16119 0.89911,-4.9601 2.39389,-13.98015 2.30555,-19.04606 -0.0668,-3.82919 -0.77115,-7.62063 -1.15673,-11.43095 -2.1402,-4.86835 -3.51129,-10.1534 -6.42061,-14.60504 -7.6548,-11.71284 -20.8616,-16.86304 -33.92844,-19.18339 -18.0363,-2.66752 -36.29359,-3.09233 -54.50488,-2.74421 -34.72576,1.12103 -69.45695,3.96141 -103.65375,10.3047 -21.31253,4.17659 -42.87281,8.29546 -63.20089,16.15102 -49.7765,18.29755 -23.89985,88.69215 25.87664,70.3946 z"/>
<path d="m 429.91338,756.84483 c 16.30235,-5.30984 33.319,-7.7874 50.21198,-10.35909 28.27205,-3.90171 56.82453,-4.74734 85.30175,-5.94952 52.98581,-2.23691 49.82235,-77.17016 -3.16346,-74.93326 v 0 c -31.22193,1.31815 -62.52082,2.33891 -93.50194,6.74866 -22.73216,3.50536 -45.69838,7.0482 -67.35011,15.11995 -49.0543,20.1538 -20.55252,89.52706 28.50178,69.37326 z"/>
<path d="m 458.92459,743.6526 c 0.0652,22.70228 1.01516,45.39184 1.56293,68.08621 0.74619,29.15675 0.90425,58.32084 0.0673,87.47554 -0.52413,10.74978 -0.67186,21.59932 -2.72373,32.19801 -0.049,-0.44322 -0.58465,1.6851 -0.4415,1.26279 1.4287,-4.21481 1.94712,-6.80641 5.6655,-11.00495 3.22498,-3.64142 7.41311,-6.29981 11.11966,-9.44972 2.67495,-1.03239 5.34991,-2.06478 8.02486,-3.09717 0.92977,-0.18792 1.88245,-0.28556 2.78931,-0.56374 0.14654,-0.0449 -0.28731,-0.10691 -0.43125,-0.1596 -0.41762,-0.1529 -0.8305,-0.31957 -1.2534,-0.4572 -7.38003,-2.40169 -1.46906,-0.19982 -10.68056,-3.95221 -13.97905,-6.86803 -6.29344,-2.96696 -22.98342,-11.8468 -46.87465,-24.80457 -81.95362,41.4862 -35.07897,66.29077 v 0 c 21.4537,11.30166 10.86505,6.06905 31.72538,15.77968 4.56329,1.64232 9.0523,3.50786 13.68986,4.92695 9.30944,2.8487 19.39717,4.8052 29.19092,4.30192 2.7363,-0.14062 5.5087,-0.22996 8.17419,-0.86422 3.88946,-0.92552 7.5867,-2.52588 11.38005,-3.78881 4.34721,-3.48239 9.24748,-6.3692 13.04163,-10.44715 5.91313,-6.35543 7.93119,-15.16279 9.8169,-23.29011 2.60969,-14.42719 3.49471,-29.06614 3.94427,-43.70683 0.85862,-30.46913 0.73107,-60.9477 -0.0589,-91.41885 -0.53434,-22.0906 -1.45534,-44.17666 -1.54104,-66.27451 0,-53.03301 -75,-53.03301 -75,0 z"/>
<path d="m 279.54199,763.54089 c -1.00152,1.74167 -2.03706,3.46422 -3.00455,5.22502 -5.2541,9.5622 -3.26185,6.70274 -9.2274,16.54323 -3.70998,6.1198 -12.69898,20.19266 -16.28364,25.5072 -3.57399,5.29872 -7.31478,10.48301 -10.97217,15.72451 -13.01285,17.88288 -25.40495,36.19129 -37.68006,54.58287 -29.42726,44.11956 32.96722,85.736 62.39449,41.61643 v 0 c 11.98719,-17.98482 24.11941,-35.86684 36.83815,-53.34747 4.11906,-5.92863 8.32638,-11.7969 12.35717,-17.78589 10.59096,-15.73613 20.55132,-31.92277 29.41304,-48.69473 27.83962,-45.13818 -35.99541,-84.50935 -63.83503,-39.37117 z"/>
<path d="m 655.68422,816.11066 c 0.80662,0.96121 0.38253,0.49794 2.30901,1.99415 5.64378,4.38327 8.31729,6.214 14.19385,10.93579 6.80682,5.46925 11.56882,9.69778 18.25977,15.47875 18.01556,15.6089 36.0492,31.21432 53.18917,47.78907 1.25755,1.27736 2.5151,2.55472 3.77265,3.83207 37.27815,37.72055 90.62306,-14.99871 53.34491,-52.71926 v 0 c -1.67431,-1.6893 -3.34863,-3.3786 -5.02294,-5.0679 -18.17079,-17.521 -37.18688,-34.12301 -56.28781,-50.61772 -9.80195,-8.44766 -19.63784,-16.74625 -29.89688,-24.63517 -3.94746,-3.03549 -10.28333,-7.90895 -14.45109,-10.63837 -1.91489,-1.25404 -3.95304,-2.30892 -5.92957,-3.46338 -47.45533,-23.6747 -80.93641,43.43728 -33.48107,67.11197 z"/>
</svg>
