<?xml version="1.0" ?>
<svg xmlns="http://www.w3.org/2000/svg" viewBox="0 0 1000 1000">
<path d="m 200.35911,197.12641 c 26.65462,-4.68346 52.97089,-11.07076 79.5982,-15.91227 9.67295,-1.75879 19.38413,-3.30046 29.07619,-4.95069 64.25121,-9.90925 129.11369,-15.46727 194.04335,-18.2853 14.21577,-0.61699 28.44148,-0.97802 42.66223,-1.46702 74.92532,-1.36432 149.85037,-3.31452 224.79099,-3.49194 34.92369,0.36665 17.76346,0.0747 51.48109,0.8533 53.01902,1.21801 54.74155,-73.762206 1.72253,-74.98022 v 0 c -34.98202,-0.799616 -17.18659,-0.501044 -53.38667,-0.872865 -75.74249,0.190268 -151.46953,2.133456 -227.19622,3.536394 -14.67286,0.508716 -29.35094,0.884189 -44.01857,1.52615 -67.83547,2.968968 -135.59745,8.832482 -202.71504,19.250261 -10.28728,1.75923 -20.59426,3.40685 -30.86183,5.27769 -25.56405,4.65799 -50.84954,10.6832 -76.40712,15.35913 -52.43718,7.92728 -41.22632,82.08465 11.21087,74.15738 z"/>
<path d="m 223.73922,246.54478 c 0.2538,16.94677 -0.33061,33.86842 -2.22398,50.71972 -0.79759,7.09862 -1.80993,14.17146 -2.71489,21.25719 -2.50787,17.26346 -5.14728,36.77428 -8.47934,53.813 -6.5971,33.73469 -15.62577,67.1313 -25.78544,99.94903 -3.94605,12.74651 -8.28206,25.369 -12.42309,38.05349 -24.62619,71.42686 -53.47099,141.33511 -83.947224,210.44361 -6.211608,14.08557 -12.605718,28.08996 -18.908579,42.13495 -8.861214,19.51882 -26.430348,58.78294 -36.307652,78.4026 -5.54993,11.02403 -11.705537,21.73256 -17.558305,32.59885 -25.0869161,46.72415 40.991018,82.20241 66.077934,35.47825 v 0 c 6.427692,-12.00597 13.164392,-23.85155 19.283086,-36.01791 10.06332,-20.0098 27.83371,-59.71589 36.93278,-79.7595 6.43299,-14.3401 12.95883,-28.6389 19.29898,-43.02029 31.41407,-71.25674 61.10989,-143.35292 86.43682,-217.01852 4.37543,-13.44446 8.95934,-26.82285 13.12628,-40.33338 10.99023,-35.63375 20.61596,-71.85514 27.73624,-108.47543 1.94782,-10.01786 3.48399,-20.11226 5.0671,-30.1942 1.39176,-8.86339 2.57129,-17.7588 3.85694,-26.6382 1.00227,-7.98494 2.13775,-15.95429 3.00681,-23.95483 2.07316,-19.08542 2.78856,-38.2507 2.52553,-57.43843 0,-53.03301 -75,-53.03301 -75,0 z"/>
<path d="m 334.69092,338.51002 c 20.65462,-6.22842 41.97033,-9.98072 63.14284,-13.96321 23.05584,-4.11642 46.32934,-7.21439 69.72481,-8.52353 11.56164,-0.64695 14.51952,-0.4776 25.62249,-0.42277 3.16318,0.126 6.32637,0.252 9.48956,0.378 52.99591,1.98332 55.80074,-72.96422 2.80483,-74.94753 v 0 c -4.03579,-0.14341 -8.07158,-0.28683 -12.10736,-0.43024 -13.84239,-0.007 -17.14016,-0.19913 -31.45054,0.63499 -26.15939,1.52475 -52.18367,4.98829 -77.96531,9.60692 -23.12435,4.36056 -46.38294,8.53874 -68.95408,15.2989 -51.17223,13.92488 -31.47948,86.29335 19.69276,72.36847 z"/>
<path d="m 394.14,217.09203 c 2.42464,20.41023 2.33837,41.06175 2.65104,61.58989 0.58403,46.12494 -0.23791,92.29378 -3.09422,138.34075 -0.5997,9.66779 -1.41106,19.32129 -2.11658,28.98193 -1.71945,23.13918 -4.81074,46.12133 -8.23194,69.05583 -7.7862,52.45831 66.40107,63.46966 74.18726,11.01134 v 0 c 3.66242,-24.7875 7.0069,-49.62152 8.84708,-74.62662 0.73872,-10.19628 1.587,-20.38521 2.21614,-30.58884 2.94164,-47.70876 3.78931,-95.54207 3.18335,-143.33067 -0.21627,-13.86642 -0.31167,-27.22055 -0.92643,-41.04967 -0.52388,-11.78486 -1.27601,-23.74519 -3.57677,-35.34675 -0.45574,-2.29802 -1.12279,-4.54904 -1.68418,-6.82357 -16.11241,-50.52613 -87.56715,-27.73975 -71.45475,22.78638 z"/>
<path d="m 374.85421,312.81685 c -0.64649,1.67533 -1.23083,3.37597 -1.93945,5.02597 -1.93518,4.50599 -4.5825,9.29716 -6.95844,13.46317 -5.18554,9.09242 -10.27313,17.54678 -16.28604,26.17584 -3.70571,5.31803 -7.70233,10.42732 -11.5535,15.64098 -23.09624,30.28384 -50.89908,56.3884 -78.85844,82.06375 -39.04757,35.88575 11.70255,91.10735 50.75012,55.2216 v 0 c 31.5219,-28.99051 62.69412,-58.62504 88.58019,-92.92148 4.67769,-6.41193 9.52676,-12.70227 14.03307,-19.23579 3.8535,-5.58703 7.47372,-11.33393 11.03606,-17.11097 7.85885,-12.74468 15.27937,-25.95679 20.63126,-39.97163 20.0475,-49.09784 -49.38734,-77.44928 -69.43483,-28.35144 z"/>
<path d="m 433.73292,389.25268 c 14.79028,4.51741 28.47768,11.81459 41.82845,19.48396 11.15147,6.5991 22.17045,13.41624 33.05286,20.44901 44.5565,28.76141 85.23127,-34.25099 40.67478,-63.0124 v 0 c -12.0489,-7.76977 -24.23199,-15.32849 -36.59109,-22.597 -3.94195,-2.23309 -7.83616,-4.55264 -11.82585,-6.69926 -14.14602,-7.61118 -28.92269,-14.15923 -44.23495,-19.04138 -50.4995,-16.19572 -73.4037,55.22135 -22.9042,71.41707 z"/>
<path d="m 573.63313,331.19195 c 22.66154,-1.39472 45.20491,-4.29163 67.80211,-6.46156 33.73688,-3.01551 67.59701,-4.57719 101.46436,-4.80753 3.53788,0.0185 7.07576,0.0369 10.61365,0.0554 53.03235,0.26294 53.40422,-74.73613 0.37186,-74.99908 v 0 c -3.84221,-0.0181 -7.68443,-0.0362 -11.52664,-0.0544 -36.08352,0.27396 -72.15967,1.90462 -108.10288,5.15001 -20.2173,1.94707 -40.40077,4.23635 -60.62246,6.11712 -53.03301,0 -53.03301,75 0,75 z"/>
<path d="m 639.54678,195.95409 c 1.10438,27.62177 2.58253,55.22716 3.86655,82.84135 1.99887,44.1838 3.35644,88.50319 0.64579,132.69156 -0.5082,8.28459 -1.3311,16.54687 -1.99665,24.8203 -2.99779,30.20316 -9.94165,59.7849 -18.07851,88.95901 -14.20064,51.0964 58.06058,71.17913 72.26122,20.08273 v 0 c 9.36719,-33.80946 17.26555,-68.10093 20.5818,-103.10297 0.72122,-9.18504 1.61232,-18.35832 2.16368,-27.55512 2.78277,-46.41782 1.45914,-92.96736 -0.65829,-139.37942 -1.30774,-28.11983 -2.7911,-56.23159 -3.95244,-84.35746 -3.53554,-52.91502 -78.36869,-47.91501 -74.83315,5.00002 z"/>
<path d="m 621.91033,313.14437 c -0.48624,1.2261 -0.86997,2.49799 -1.45872,3.67829 -0.43601,0.87411 -1.07818,1.62935 -1.60051,2.45479 -5.69162,8.99455 -5.20364,8.70502 -12.46707,18.69805 -10.25668,14.11116 -13.00754,17.07546 -24.53057,31.26564 -25.97047,30.45174 -52.92205,60.20679 -82.0799,87.6626 -4.20686,3.9613 -8.55394,7.77099 -12.83091,11.65648 -39.2133,35.70459 11.28061,91.16057 50.4939,55.45598 v 0 c 4.86404,-4.4376 9.80465,-8.79271 14.59212,-13.3128 31.2864,-29.53904 60.26628,-61.48036 88.10348,-94.25428 18.34249,-22.69361 37.30153,-45.51853 50.03908,-71.98275 0.53092,-1.10308 0.90227,-2.27608 1.3534,-3.41411 19.73385,-49.22474 -49.88044,-77.13263 -69.6143,-27.90789 z"/>
<path d="m 666.69115,364.64466 c 1.9638,1.70794 4.01488,3.43208 5.81271,5.3093 2.50401,2.61457 6.49191,7.69375 8.44895,10.16758 7.57357,9.57348 7.92747,10.15594 15.67864,20.37621 16.8361,22.94067 32.01814,47.01818 48.58934,70.14689 8.234,10.90611 16.30253,21.99653 25.30149,32.29892 5.32252,6.09344 6.36463,6.92958 12.05359,12.57562 13.98879,12.85528 29.84481,23.34198 46.03402,33.17115 12.53946,8.04352 6.17819,3.71219 19.03404,13.06677 43.02618,31.004 86.87245,-29.84421 43.84627,-60.8482 v 0 c -16.80456,-12.02074 -8.74969,-6.61313 -24.05395,-16.38643 -4.36572,-2.63034 -9.61078,-5.69662 -13.89977,-8.59507 -6.37279,-4.30667 -12.46,-9.07094 -18.4175,-13.92664 -10.955,-10.55136 -19.83101,-22.96111 -28.95842,-35.07506 -16.99276,-23.65123 -32.3977,-48.39557 -49.78585,-71.76824 -12.83445,-16.90104 -25.30397,-34.51994 -41.73322,-48.18224 -40.77845,-33.90602 -88.72879,23.76343 -47.95034,57.66944 z"/>
<path d="m 307.12907,613.88761 c -0.35604,31.74354 2.43543,63.39666 5.24574,94.98105 4.61622,47.11167 10.23795,94.12411 17.09028,140.96269 0.77326,4.87075 1.54653,9.7415 2.31979,14.61225 8.3251,52.3755 82.39524,40.60203 74.07014,-11.77347 v 0 c -0.72721,-4.56915 -1.45442,-9.1383 -2.18163,-13.70745 -6.66301,-45.43923 -12.09206,-91.05263 -16.59505,-136.75608 -2.62528,-29.36802 -5.28904,-58.80068 -4.94927,-88.31899 0,-53.033 -75,-53.033 -75,0 z"/>
<path d="m 444.39924,666.13598 c 19.78449,-7.24572 40.29874,-12.26625 60.67645,-17.51294 27.22472,-6.67479 54.83844,-11.92314 82.81225,-14.11638 17.04143,-1.3361 20.45596,-1.02123 37.13735,-1.01577 22.45627,1.03754 45.02679,2.91841 66.99191,7.89989 3.7185,1.01267 3.43755,0.8683 6.58821,1.92872 0.66067,0.22236 1.32055,0.44802 1.97198,0.69614 0.1891,0.072 0.74512,0.22238 0.54696,0.26332 -0.23673,0.0489 -0.46833,-0.12987 -0.68623,-0.23454 -0.8827,-0.42403 -1.73991,-0.89922 -2.60987,-1.34883 -6.18143,-4.49983 -7.05111,-4.52765 -12.23677,-13.10807 -1.47049,-2.43315 -2.01804,-5.31606 -2.98397,-7.98992 -0.17052,-0.47206 -0.33652,-1.93891 -0.42425,-1.44473 -0.25012,1.40898 -0.0392,2.86186 -0.0812,4.29224 -0.0793,2.69824 -0.18865,5.3955 -0.28297,8.09326 -0.83275,20.85497 -2.12444,41.70082 -4.70159,62.4215 -2.24657,18.06271 -3.64749,25.17768 -6.70778,43.43121 -7.87871,41.67378 -16.90544,83.1493 -27.18511,124.29791 -1.16029,4.2627 -2.32058,8.52539 -3.48086,12.78809 -13.89767,51.17963 58.48126,70.8339 72.37893,19.65427 v 0 c 1.2905,-4.76258 2.58099,-9.52515 3.87149,-14.28773 10.73184,-43.07069 20.22071,-86.46708 28.39071,-130.09635 3.38546,-20.33808 4.83429,-27.6499 7.31249,-47.86008 2.76172,-22.5223 4.18463,-45.17545 5.07975,-67.8401 0.13575,-4.20832 0.53435,-13.46268 0.34054,-18.03146 -0.12662,-2.9849 -0.11602,-6.01017 -0.73773,-8.93235 -2.79214,-13.12376 -7.60707,-21.25823 -18.7489,-28.95452 -1.61828,-0.91817 -3.20188,-1.90035 -4.85483,-2.75451 -7.68898,-3.97328 -16.27767,-5.96148 -24.56196,-8.21363 -27.39137,-5.95786 -55.37822,-8.80045 -83.38224,-9.66948 -20.06371,0.0994 -24.41927,-0.25544 -44.76708,1.42464 -31.64308,2.6127 -62.90111,8.48913 -93.70312,16.07952 -24.04168,6.19929 -48.27631,12.14827 -71.4503,21.18075 -48.76202,20.85101 -19.27425,89.81093 29.48778,68.95993 z"/>
<path d="m 403.69194,790.13571 c 18.00066,-6.45069 37.26048,-8.84685 56.07986,-11.69655 25.20089,-3.49861 50.54095,-6.2266 75.97454,-7.23358 13.68287,-0.54174 20.33834,-0.41931 33.86449,-0.42747 18.25707,0.25326 9.56564,0.0837 26.0748,0.48188 53.01781,1.26965 54.81336,-73.70885 1.79555,-74.9785 v 0 c -17.65654,-0.41999 -8.33556,-0.24192 -27.9635,-0.50332 -15.37315,0.028 -22.31296,-0.10373 -37.93777,0.54323 -27.81911,1.15186 -55.53874,4.11399 -83.10232,7.97303 -25.18289,3.85624 -50.86923,7.41151 -74.63394,17.03663 -48.65223,21.10593 -18.80395,89.91058 29.84829,68.80465 z"/>
<path d="m 388.95014,904.91874 c 26.21527,-4.27026 52.5762,-7.48755 78.96328,-10.47181 41.79695,-4.14664 83.75696,-7.65031 125.79285,-7.60436 7.96593,0.009 15.9293,0.28663 23.89394,0.42995 27.99788,1.28497 14.54147,0.51432 40.37302,2.24465 52.91603,3.52043 57.89468,-71.31414 4.97865,-74.83457 v 0 c -28.12213,-1.8591 -13.43502,-1.0329 -44.06575,-2.39905 -8.78555,-0.14392 -17.56992,-0.43384 -26.35664,-0.43175 -44.46306,0.0106 -88.84751,3.6452 -133.05657,8.07159 -27.678,3.13912 -55.32901,6.52158 -82.82607,11.01137 -52.31457,8.69974 -40.01128,82.68372 12.30329,73.98398 z"/>
</svg>
