<?xml version="1.0" ?>
<svg xmlns="http://www.w3.org/2000/svg" viewBox="0 0 1000 1000">
<path d="m 309.18172,87.569443 c 2.2329,14.515437 5.96122,28.744887 9.22279,43.047827 3.3968,14.89589 4.26803,19.31913 7.48557,34.52581 6.53982,31.99677 13.64371,63.87184 20.75656,95.74457 0.59243,2.68929 1.18487,5.37859 1.77731,8.06788 11.4102,51.791 84.65373,35.65453 73.24353,-16.13646 v 0 c -0.60716,-2.75566 -1.21431,-5.51132 -1.82146,-8.26698 -7.05332,-31.60566 -14.0993,-63.21329 -20.58216,-94.94245 -3.43922,-16.23699 -4.20792,-20.18595 -7.83586,-36.09707 -2.83272,-12.4235 -6.1178,-24.776167 -8.12224,-37.372313 -8.08166,-52.413613 -82.2057,-40.984427 -74.12404,11.429186 z"/>
<path d="m 445.53791,114.41494 c 21.38308,-5.37586 43.04806,-9.4414 64.74635,-13.29543 24.34543,-3.977129 48.82418,-7.543212 73.49648,-8.63547 13.36132,-0.591513 15.5989,-0.301472 28.36074,0.09188 7.88928,0.473484 15.83356,1.090114 23.5337,2.98288 1.00207,0.246318 1.9842,0.5719 2.95737,0.915046 1.40815,0.496518 1.41254,0.127333 1.32895,0.743363 -5.88014,-2.325562 -9.82578,-8.163358 -12.66625,-13.473259 -1.07063,-2.001408 -1.50289,-4.283552 -2.25434,-6.425328 -1.02055,2.239417 -0.13595,0.131624 -0.0874,6.339261 0.10005,12.778132 -0.0749,25.581137 -0.86435,38.337907 -0.36507,5.89931 -0.92998,11.78455 -1.39498,17.67682 -3.56354,38.62617 -13.44953,76.21525 -24.3018,113.32833 -1.45106,4.58148 -2.90213,9.16297 -4.3532,13.74445 -15.98058,50.56799 55.53335,73.16794 71.51393,22.59996 v 0 c 1.61216,-5.11161 3.22432,-10.22321 4.83648,-15.33482 12.25733,-42.08302 23.22123,-84.73672 27.08,-128.53805 0.51806,-6.78188 1.1468,-13.55621 1.55419,-20.34563 0.63927,-10.65376 0.86149,-21.30127 0.93951,-31.969626 0.0316,-4.313487 0.0147,-15.077756 -0.25773,-19.918656 -0.16167,-2.872965 -0.49628,-5.733583 -0.74443,-8.600374 -1.02697,-3.747932 -1.49975,-7.693923 -3.08091,-11.243796 -5.06445,-11.370247 -13.84764,-18.96099 -24.69357,-24.368002 -5.55056,-2.401097 -6.7711,-3.113737 -12.77497,-4.897447 -14.35004,-4.263305 -29.3357,-5.749563 -44.22778,-6.525212 -16.06832,-0.393068 -18.89514,-0.736238 -35.46221,0.05112 -27.37948,1.301219 -54.55709,5.167586 -81.57534,9.624306 -23.68142,4.220169 -47.32673,8.68343 -70.65561,14.594704 -51.29429,13.46835 -32.24716,86.009423 19.04712,72.541073 z"/>
<path d="m 395.84516,205.57641 c 20.05017,-2.58928 40.16164,-4.63417 60.27933,-6.63307 30.48509,-3.4338 61.04893,-6.1825 91.74104,-6.32281 53.03209,-0.31177 52.59118,-75.31047 -0.44092,-74.9987 v 0 c -11.84314,0.0826 -14.72645,-0.005 -27.17747,0.58567 -23.91548,1.13523 -47.73802,3.59208 -71.53972,6.10349 -19.30185,1.91864 -38.63158,3.70221 -57.84006,6.43079 -52.91607,3.51984 -47.93827,78.35447 4.9778,74.83463 z"/>
<path d="m 386.42177,289.55808 c 9.61774,0.64103 19.2619,-0.32325 28.83353,-1.16546 9.95531,-0.87597 20.5003,-1.90432 30.40677,-2.8501 43.9618,-4.08088 88.08511,-6.17411 132.22086,-6.94517 25.03357,-0.0611 13.06228,-0.0985 35.91395,0.0788 53.03146,0.40489 53.60406,-74.59293 0.57259,-74.99781 v 0 c -24.00068,-0.18046 -11.39496,-0.14483 -37.81724,-0.0692 -46.07134,0.82952 -92.13011,2.99287 -138.01928,7.27297 -15.42545,1.47319 -30.88799,3.30264 -46.37179,3.89589 -52.8775,-4.05836 -58.61688,70.72171 -5.73939,74.78007 z"/>
<path d="m 341.52176,390.95433 c 23.47404,-4.44109 47.14847,-7.58515 70.82836,-10.68289 42.42594,-5.10415 85.01057,-9.44347 127.7128,-11.40695 8.37189,-0.38494 16.75234,-0.55347 25.1285,-0.8302 17.69407,-0.12472 26.20086,-0.49962 43.5895,0.55103 6.7581,0.40834 13.48969,1.17589 20.23453,1.76384 52.84384,4.47533 59.17291,-70.25715 6.32907,-74.73247 v 0 c -8.03372,-0.66365 -16.05326,-1.53013 -24.10117,-1.99094 -19.44006,-1.11309 -28.97118,-0.70821 -48.56368,-0.54939 -9.0031,0.30563 -18.01079,0.49745 -27.00931,0.91687 -44.48805,2.07361 -88.85477,6.5752 -133.05467,11.91262 -24.32498,3.18607 -48.65183,6.39631 -72.76551,10.96222 -52.3869,8.25305 -40.71532,82.33931 11.67158,74.08626 z"/>
<path d="m 135.03283,466.30958 c 0.64045,2.97071 0.51447,2.29613 1.21824,6.18517 1.30794,7.22774 1.93007,11.26249 3.48537,18.89825 2.81393,13.81497 3.60305,16.49121 7.03441,30.71722 8.71605,33.25102 15.09563,67.0395 23.52036,100.359 13.02991,51.4074 85.73096,32.98032 72.70105,-18.42709 v 0 c -8.39849,-33.04455 -14.60709,-66.59679 -23.32426,-99.56725 -2.93108,-12.07557 -3.84726,-15.33051 -6.24186,-27.03997 -1.61972,-7.92036 -2.09167,-11.32617 -3.50148,-18.98304 -0.96831,-5.25899 -0.91673,-4.90261 -1.82076,-9.04253 -11.95028,-51.66905 -85.02135,-34.76881 -73.07107,16.90024 z"/>
<path d="m 301.23304,493.76591 c 31.0326,-7.13127 62.36285,-12.89963 93.69791,-18.5204 40.99723,-7.15837 82.30877,-12.4276 123.81671,-15.47609 27.02578,-1.98487 38.36305,-2.23673 65.20146,-3.33559 35.73718,-1.06158 71.53899,-0.72221 107.2082,1.85683 16.92971,1.2241 20.61041,1.81328 36.69714,3.68202 9.9419,1.36249 19.90158,2.9071 29.58994,5.58305 2.72413,0.75241 5.49765,1.66055 8.01242,2.9747 0.4167,0.31616 0.93761,0.47009 1.35875,0.7785 0.13618,0.0997 -0.31301,-0.13072 -0.4555,-0.22121 -0.89194,-0.56646 -1.88296,-1.01524 -2.64459,-1.74761 -10.11646,-9.72789 -7.36207,-6.89832 -13.00338,-19.90956 -0.2603,-1.64609 -0.52059,-3.29219 -0.78089,-4.93828 -0.12814,-0.25644 -0.20082,-0.98946 -0.38442,-0.7693 -0.71949,0.86278 -1.00216,2.01099 -1.49352,3.02125 -1.25916,2.58894 -2.37182,5.25306 -3.758,7.77628 -5.40334,9.83562 -9.72602,15.69794 -16.21838,25.34988 -15.45962,23.07812 -32.75553,44.80996 -50.17349,66.41538 -33.27492,41.29504 25.12508,88.35288 58.4,47.05784 v 0 c 18.82579,-23.37423 37.48297,-46.91301 54.18456,-71.88165 4.06757,-6.14865 8.33538,-12.16944 12.20271,-18.44596 6.33998,-10.28953 11.90369,-20.38593 16.20967,-31.66093 3.1473,-8.24105 5.63807,-16.63992 6.01865,-25.50894 0.15965,-3.72029 -0.44581,-7.43407 -0.66871,-11.1511 -1.85043,-4.83688 -2.90542,-10.05879 -5.55127,-14.51063 -5.31803,-8.94798 -13.8753,-13.96617 -22.84004,-18.21568 -5.3371,-2.28453 -6.51241,-2.92036 -12.27273,-4.78704 -15.30334,-4.95918 -31.24133,-7.57542 -47.1451,-9.71582 -17.95836,-2.055 -22.0961,-2.70832 -40.88365,-4.046 -38.16205,-2.71715 -76.46243,-3.08147 -114.69428,-1.92251 -28.20729,1.16797 -40.13117,1.43681 -68.58296,3.55145 -43.78051,3.25393 -87.35642,8.81886 -130.60004,16.37655 -33.35932,5.99199 -66.72976,12.10444 -99.73159,19.86222 -51.24993,13.63614 -31.96551,86.11449 19.28442,72.47835 z"/>
<path d="m 453.482,376.4674 c 1.86521,26.0827 1.94518,52.25467 2.05628,78.39061 -0.0635,36.55692 -0.0945,73.171 -2.7014,109.65662 -0.48354,6.76757 -1.16752,13.51934 -1.75128,20.279 -4.52263,52.83982 70.20415,59.23578 74.72678,6.39597 v 0 c 0.63477,-7.47697 1.37569,-14.94568 1.90432,-22.4309 2.68429,-38.00841 2.77,-76.14606 2.82087,-114.22789 -0.12749,-28.52151 -0.22357,-57.0897 -2.42944,-85.54269 -5.28865,-52.76865 -79.91479,-45.28936 -74.62613,7.47928 z"/>
<path d="m 324.81455,558.13676 c 12.16724,2.79809 23.2932,8.7826 34.04029,14.9446 2.26744,1.43183 4.53487,2.86367 6.80231,4.2955 44.97623,28.10051 84.71635,-35.50548 39.74012,-63.60599 v 0 c -3.24288,-2.01094 -6.48577,-4.02187 -9.72866,-6.03281 -3.77444,-2.10179 -7.49054,-4.31195 -11.32333,-6.30537 -13.34619,-6.94129 -27.39691,-12.77759 -42.06458,-16.2338 -51.57487,-12.35044 -69.04102,60.58744 -17.46615,72.93787 z"/>
<path d="m 274.86416,619.37887 c 11.12005,6.62394 23.04918,11.81061 34.19848,18.37094 2.54586,1.498 4.96579,3.20038 7.44868,4.80057 2.16476,1.87702 4.32951,3.75403 6.49427,5.63105 41.13917,33.46743 88.46926,-24.71215 47.33009,-58.17957 v 0 c -4.60057,-3.62669 -9.20114,-7.25339 -13.80171,-10.88008 -3.93619,-2.45017 -7.80608,-5.01024 -11.80859,-7.35052 -10.86721,-6.35409 -22.44253,-11.44629 -33.27815,-17.86512 -46.29621,-25.86814 -82.87929,39.60459 -36.58307,65.47273 z"/>
<path d="m 571.88282,534.82182 c 0.74182,0.24832 1.49666,0.46072 2.22547,0.74497 1.92915,0.7524 4.96329,2.32903 6.5681,3.11395 2.56415,1.25412 5.13526,2.49398 7.69837,3.75024 11.0612,5.42144 6.85469,3.30249 17.44109,8.87709 2.46381,1.38788 4.92761,2.77575 7.39142,4.16363 46.25107,25.94876 82.94817,-39.46013 36.6971,-65.4089 v 0 c -3.07672,-1.72058 -6.15343,-3.44117 -9.23015,-5.16176 -12.02908,-6.2977 -7.75029,-4.16317 -19.46781,-9.90212 -9.188,-4.50006 -18.34626,-9.25519 -28.20486,-12.14236 -50.88712,-14.9332 -72.00585,57.03206 -21.11873,71.96526 z"/>
<path d="m 544.85244,601.69834 c 1.62846,1.56076 3.19622,3.18741 4.88537,4.68229 5.99914,5.30918 12.59205,9.98793 18.93285,14.87026 9.79357,7.54091 6.4587,4.94965 16.56537,13.07934 11.77259,9.9251 5.97368,4.96458 17.40044,14.87722 40.0724,34.73763 89.19883,-21.9333 49.12643,-56.67093 v 0 c -12.69104,-10.99432 -6.17678,-5.43256 -19.55271,-16.67362 -8.11008,-6.50891 -16.29239,-12.89173 -24.54485,-19.21762 -1.65474,-1.26844 -3.31257,-2.53289 -4.96281,-3.80718 -0.87551,-0.67606 -1.68121,-1.44985 -2.61436,-2.04381 -0.2277,-0.14493 0.30357,0.44637 0.45535,0.66956 -35.52115,-39.37954 -91.21223,10.85495 -55.69108,50.23449 z"/>
<path d="m 347.85165,731.32173 c 29.51029,-4.48155 59.21336,-7.65437 88.8584,-11.10883 39.92654,-4.276 80.11253,-8.76212 120.34361,-7.20762 5.53093,0.21371 11.04261,0.78007 16.56391,1.1701 16.54159,2.23108 8.817,0.92946 23.2026,3.72961 52.11646,9.81711 65.99994,-63.88669 13.88349,-73.70379 v 0 c -20.16969,-3.71038 -9.48987,-2.02756 -32.0689,-4.85782 -6.92764,-0.44462 -13.8453,-1.09014 -20.7829,-1.33385 -43.40055,-1.52463 -86.74998,3.01154 -129.82278,7.70746 -12.53205,1.46038 -33.63571,3.90555 -46.37533,5.44337 -14.53456,1.75449 -29.15473,3.36526 -43.60453,5.76153 -2.59763,0.43078 -5.17234,0.98982 -7.75852,1.48474 -51.55876,12.41746 -33.99782,85.33257 17.56095,72.9151 z"/>
<path d="m 262.04815,853.20733 c 17.81734,-5.47718 35.62598,-11.05285 53.77887,-15.34257 7.79008,-1.84088 15.64434,-3.39869 23.46651,-5.09804 56.62175,-10.69719 113.8958,-18.10886 171.39623,-21.95711 12.25799,-0.82038 24.53638,-1.30068 36.80457,-1.95102 47.01554,-1.31231 94.34215,-1.13556 141.08054,4.8177 5.40817,0.68886 10.77905,1.64423 16.16858,2.46634 4.09854,0.80501 8.19709,1.61003 12.29564,2.41504 52.06559,10.08334 66.32559,-63.54853 14.26,-73.63187 v 0 c -5.13488,-0.98319 -10.26976,-1.96638 -15.40463,-2.94957 -6.46058,-0.95956 -12.90078,-2.06808 -19.38172,-2.87869 -50.70583,-6.34207 -102.01925,-6.66047 -153.01738,-5.13226 -12.95364,0.69639 -25.91814,1.21395 -38.86093,2.08917 -60.84742,4.11466 -121.45758,11.99607 -181.35522,23.44194 -8.79798,1.93324 -17.63083,3.71407 -26.39393,5.79971 -18.87721,4.49281 -37.4251,10.22772 -55.95586,15.94596 -50.88712,14.9332 -29.76839,86.89846 21.11873,71.96527 z"/>
<path d="m 426.0166,784.56321 c -0.26247,1.99983 0.83848,-2.69049 0.34536,-2.15543 -1.39891,1.51788 -2.52196,3.26854 -3.78367,4.90225 -2.18049,2.82338 -4.33533,5.66677 -6.54292,8.46901 -7.35102,9.33114 -11.09609,13.795 -18.85024,23.2519 -20.5141,25.61866 -42.62744,49.86055 -65.49421,73.37938 -8.21312,8.61643 -16.89001,16.81356 -24.68624,25.81392 1.20921,16.96318 -4.13402,35.75783 3.62762,50.88954 8.13569,15.86093 39.24633,10.56014 52.97304,8.22683 9.28683,-1.5786 25.41459,-4.85165 34.18712,-6.59079 32.25652,-6.4803 64.41359,-13.45782 96.91111,-18.66434 20.3519,-3.26064 27.70445,-4.05022 47.86407,-6.63808 6.66077,-0.76287 13.32153,-1.52573 19.9823,-2.2886 52.6875,-6.04378 44.1403,-80.55516 -8.5472,-74.51137 v 0 c -7.00253,0.80445 -14.00506,1.6089 -21.00759,2.41336 -21.62422,2.78917 -29.15005,3.59462 -51.01054,7.11103 -33.12136,5.3278 -65.90985,12.38458 -98.78511,19.01139 -5.98788,1.1885 -11.97106,2.4009 -17.96364,3.5655 -4.38472,0.85214 -8.77081,1.69888 -13.16791,2.48463 -2.84157,0.50778 -5.70998,0.8606 -8.54653,1.39569 -0.54242,0.10232 -2.05537,0.24278 -1.57433,0.51351 6.96064,3.9175 18.53752,3.2382 21.45307,10.6744 6.0116,15.3328 1.39084,32.909 2.08627,49.3635 -0.52859,0.54425 -2.13098,2.16033 -1.58578,1.63273 7.4017,-7.16274 14.15519,-14.98663 21.57522,-22.13259 24.32846,-25.04393 47.86215,-50.85187 69.71424,-78.10574 9.2231,-11.25629 18.45783,-22.49364 27.25565,-34.08865 5.26293,-6.93622 8.02803,-10.35115 12.17416,-18.11602 1.02859,-1.92635 1.68801,-4.02814 2.53201,-6.0422 16.80423,-50.30028 -54.33111,-74.06504 -71.13533,-23.76476 z"/>
<path d="m 608.25373,895.15974 c 10.84004,6.3367 21.16926,13.75501 30.64013,22.00818 2.58235,2.25032 5.00489,4.67771 7.50733,7.01657 8.44447,8.9722 4.47653,4.51329 11.94835,13.33693 34.53372,40.24826 91.45335,-8.5898 56.91963,-48.83805 v 0 c -11.2525,-12.99874 -5.25577,-6.41838 -18.06541,-19.67224 -3.71098,-3.38234 -7.32267,-6.87692 -11.13292,-10.14701 -13.65356,-11.71796 -28.54605,-22.19646 -44.33598,-30.81633 -47.45532,-23.67473 -80.93645,43.43722 -33.48113,67.11195 z"/>
</svg>
