<?xml version="1.0" ?>
<svg xmlns="http://www.w3.org/2000/svg" viewBox="0 0 1000 1000">
<path d="m 271.50257,190.26299 c 13.84026,9.71226 26.663,20.84007 39.04351,32.33299 2.6263,2.6247 5.2526,5.2494 7.8789,7.8741 37.59883,37.4009 90.49169,-15.77189 52.89286,-53.17279 v 0 c -3.29858,-3.26898 -6.59716,-6.53796 -9.89574,-9.80694 -3.7588,-3.45526 -7.44923,-6.98641 -11.27641,-10.36577 -6.64897,-5.87099 -14.16835,-11.95755 -21.1658,-17.46384 -6.13764,-4.82972 -10.53993,-8.27256 -16.99951,-12.50506 -1.69898,-1.11323 -3.49671,-2.06791 -5.24507,-3.10186 -46.81695,-24.913313 -82.04969,41.29586 -35.23274,66.20917 z"/>
<path d="m 164.79163,322.98112 c 25.99902,-4.59367 51.84403,-10.00247 77.87425,-14.43489 9.67572,-1.64758 19.37584,-3.14859 29.06376,-4.72288 55.66832,-9.01424 111.91198,-13.53547 168.21546,-15.89447 21.68133,-0.6123 11.5337,-0.39136 30.44183,-0.71021 53.0253,-0.90398 51.74687,-75.89309 -1.27843,-74.9891 v 0 c -20.10466,0.34624 -9.32994,0.10745 -32.32303,0.76589 -59.27746,2.51445 -118.49026,7.29308 -177.09776,16.80092 -10.08407,1.64201 -20.18069,3.20865 -30.25219,4.92602 -26.33098,4.48991 -52.47724,9.95075 -78.77693,14.60237 -52.082896,9.99357 -37.94986,83.64992 14.13304,73.65635 z"/>
<path d="m 252.40445,292.43547 c -0.76584,27.77164 -1.66676,55.53146 -1.99646,83.31465 -0.14671,34.27595 0.37326,68.5524 1.144,102.81886 0.27241,8.17261 0.27494,16.35538 0.68231,24.52383 0.0904,1.81239 0.0874,3.63726 0.35172,5.43254 0.48818,3.31589 0.0938,7.0512 1.90169,9.87344 5.67209,8.85456 13.35562,16.24595 20.03344,24.36893 10.73289,0.8374 21.48958,3.61287 32.19868,2.51219 6.86905,-0.706 27.01452,-13.75982 32.33885,-17.25842 22.51718,-14.79599 43.73721,-31.43941 65.11351,-47.80202 26.53766,-20.04207 53.595,-39.38024 80.50896,-58.90999 42.9231,-31.14655 -1.12478,-91.84897 -44.04788,-60.70242 v 0 c -27.43529,19.90804 -55.01509,39.62315 -82.05823,60.06495 -19.5722,14.99254 -39.01867,30.10726 -59.47995,43.88365 -3.42486,2.30592 -7.11407,4.22425 -10.4157,6.70341 -0.34449,0.25867 -0.62562,1.16232 -0.20989,1.27522 7.50598,2.03831 15.21377,3.24329 22.82065,4.86493 24.82661,34.62931 13.63355,11.22739 16.12393,26.05047 0.17691,1.05304 -0.1789,-2.12847 -0.23349,-3.19488 -0.39849,-7.78475 -0.37453,-15.58475 -0.64759,-23.37342 -0.75244,-33.4102 -1.26152,-66.83005 -1.1302,-100.24953 0.3269,-28.07745 1.30539,-56.12894 2.00165,-84.19639 0,-53.033 -75,-53.033 -75,0 z"/>
<path d="m 588.53753,77.001735 c -3.18714,4.306063 -3.6206,4.809773 -7.60801,11.1223 -10.8569,17.187725 -20.47368,35.106515 -30.36205,52.854415 -4.3813,7.86366 -8.80219,15.70518 -13.20329,23.55777 -4.66329,8.0875 -9.28337,16.20007 -13.98987,24.26251 -10.52628,18.03198 -16.43807,28.24983 -27.90647,45.43098 -11.42427,17.11504 -23.88317,33.48379 -36.38481,49.81298 -32.2242,42.12008 27.34258,87.69198 59.56678,45.5719 v 0 c 13.77998,-18.02365 27.45668,-36.11093 40.02645,-55.0154 12.1122,-18.2163 18.63969,-29.43196 29.67462,-48.34321 4.85772,-8.32498 9.62603,-16.70181 14.43904,-25.05272 4.46719,-7.97127 8.9551,-15.93095 13.40156,-23.9138 11.20545,-20.11746 21.81839,-40.73176 35.27227,-59.47974 28.8556,-44.495558 -34.07062,-85.303539 -62.92622,-40.807985 z"/>
<path d="m 631.79631,157.5021 c 15.04504,2.26878 29.91619,5.58915 44.80887,8.67747 24.14919,5.16331 48.28437,10.449 72.19784,16.62471 3.99588,1.54221 8.64245,1.94007 12.44208,4.07843 0.17421,0.098 -0.41346,0.0102 -0.59527,-0.0729 -0.89184,-0.40769 -1.79723,-0.81547 -2.59512,-1.38554 -1.42788,-1.0202 -2.70048,-2.24186 -4.05072,-3.36279 -4.54105,-6.03785 -5.46933,-6.17888 -7.62189,-13.99028 -0.56644,-2.05555 -0.42426,-4.24729 -0.79644,-6.34672 -0.0221,-0.12476 -0.3062,-0.25737 -0.35347,-0.13981 -0.63392,1.57679 -1.00976,3.24565 -1.54381,4.85901 -0.99035,2.99187 -2.01947,5.97076 -3.0292,8.95614 -9.32377,27.84033 -20.03855,55.24004 -33.7066,81.264 -3.63152,6.91441 -7.58523,13.65475 -11.37784,20.48212 -17.16281,29.38589 -37.04744,57.17175 -59.63107,82.64235 -14.71206,16.59277 -18.78833,19.94351 -34.5402,35.13279 -15.21389,13.73045 -31.01877,26.87803 -48.00816,38.37628 -7.02894,4.75712 -16.34453,10.46757 -24.18528,14.15486 -2.63671,1.23997 -5.43738,2.09617 -8.15607,3.14425 -1.20756,0.0162 -2.61579,0.71554 -3.62268,0.0487 -0.57849,-0.38311 0.80255,-1.27994 1.46828,-1.47548 4.03578,-1.18542 6.16146,-0.03 10.06709,0.98136 -34.28898,-40.45696 -91.50376,8.03498 -57.21478,48.49194 v 0 c 6.29329,5.81786 11.61683,12.9037 18.87986,17.45357 12.72819,7.97348 27.31109,9.54508 41.79826,8.03357 5.88677,-0.6142 11.49967,-2.80761 17.24951,-4.21141 5.08915,-2.17604 10.29466,-4.09788 15.26743,-6.52812 10.49536,-5.12916 22.81974,-12.76594 32.35807,-19.29081 19.89998,-13.61295 38.46765,-29.07369 56.2722,-45.30015 18.14856,-17.63816 22.92025,-21.6021 39.83125,-40.81595 25.67383,-29.16997 48.29439,-60.94304 67.79826,-94.54116 4.35433,-7.90401 8.89343,-15.70901 13.06298,-23.71204 15.11511,-29.01195 27.10815,-59.48468 37.49269,-90.46995 3.12982,-9.38464 7.91216,-21.88052 8.60327,-31.79549 0.70343,-10.09177 -0.0206,-16.78243 -4.34205,-26.06426 -1.63006,-3.50114 -4.26854,-6.43737 -6.40282,-9.65606 -2.35219,-2.22842 -4.53305,-4.6529 -7.05658,-6.68526 -10.05052,-8.09435 -22.91865,-11.38244 -35.04256,-14.88179 -25.07652,-6.45175 -50.36569,-12.047485 -75.68951,-17.436182 -16.85878,-3.495124 -33.69669,-7.252825 -50.75379,-9.662876 -52.6253,-6.56339 -61.90733,67.860018 -9.28203,74.423408 z"/>
<path d="m 608.46551,271.03462 c 13.57899,8.32182 25.92912,18.46304 38.00842,28.7892 14.6178,12.97453 7.33347,6.50184 21.85311,19.41795 39.62427,35.24794 89.47239,-20.78923 49.84812,-56.03718 v 0 c -14.99961,-13.34288 -7.29359,-6.50201 -23.12034,-20.52004 -4.17368,-3.53307 -8.27628,-7.15187 -12.52105,-10.59921 -7.05443,-5.72917 -14.53622,-11.27063 -21.99899,-16.47148 -6.09174,-4.24537 -10.94403,-7.49188 -17.40057,-11.0156 -1.82546,-0.99626 -3.74651,-1.80638 -5.61977,-2.70957 -48.89356,-20.54069 -77.94249,48.60524 -29.04893,69.14593 z"/>
<path d="m 544.14158,357.33004 c 8.77856,8.8294 16.78257,18.35912 24.96966,27.72474 29.70825,33.98473 -9.8581,-11.56483 20.27999,23.18251 11.975,14.71106 6.25098,7.47407 17.20414,21.68555 32.4173,41.97165 91.77417,-3.87333 59.35687,-45.84498 v 0 c -12.66889,-16.37269 -6.04552,-8.0335 -19.90787,-24.98751 -33.07697,-38.12221 10.10131,11.57053 -20.19989,-23.09002 -8.68206,-9.93114 -17.18057,-20.0333 -26.47285,-29.41121 -35.87925,-39.05355 -91.1093,11.68738 -55.23005,50.74092 z"/>
<path d="m 307.66646,640.33418 c 17.94466,-6.49195 36.20111,-12.17322 54.65867,-17.0225 7.31699,-1.92236 14.68555,-3.64277 22.02833,-5.46416 37.04161,-8.3308 74.63662,-14.36067 112.48554,-17.48742 24.7064,-2.04104 32.27162,-1.89084 56.78245,-2.51191 37.49774,-0.40122 74.88924,3.40882 111.68609,10.44173 2.66514,0.57134 5.33027,1.14267 7.99541,1.71401 51.86774,11.05612 67.50345,-62.29593 15.63572,-73.35206 v 0 c -3.21677,-0.68244 -6.43354,-1.36489 -9.65031,-2.04734 -12.27462,-2.31461 -16.28019,-3.1948 -29.32577,-5.056 -32.54888,-4.64372 -65.42338,-7.01709 -98.31027,-6.67449 -27.13816,0.7356 -35.16474,0.57511 -62.53987,2.88511 -41.34768,3.48906 -82.41615,10.12296 -122.87019,19.30798 -8.0707,2.01422 -16.16948,3.91907 -24.21209,6.04265 -20.24141,5.34456 -40.25775,11.60327 -59.94394,18.72155 -49.85304,18.08796 -24.27281,88.59081 25.58023,70.50285 z"/>
<path d="m 456.91251,591.62931 c 1.27244,22.91405 2.47874,45.83488 3.62416,68.75658 1.30092,30.53022 2.46822,61.07838 2.65051,91.63958 0.0967,16.21227 -0.0804,22.13446 -0.33481,37.95848 -0.57109,19.56649 -0.25446,10.247 -0.92577,27.95925 -2.00245,52.99519 72.94406,55.82709 74.94652,2.8319 v 0 c 0.70449,-18.69881 0.37206,-8.83233 0.96979,-29.60035 0.26493,-16.88361 0.44571,-22.85812 0.33727,-40.17379 -0.19707,-31.46822 -1.39016,-62.92316 -2.73703,-94.35936 -1.83406,-36.68001 -0.26387,-5.85755 -2.0162,-38.85175 -0.57116,-10.7543 -0.92928,-21.55596 -1.82518,-32.29205 -0.14769,-1.76976 -0.37681,-3.53178 -0.56522,-5.29767 -8.08165,-52.41362 -82.20569,-40.98443 -74.12404,11.42918 z"/>
<path d="m 413.66012,741.17109 c 24.05706,-3.40045 48.13047,-6.59531 72.29595,-9.14649 28.64481,-2.94549 57.4209,-2.26847 86.09202,-0.33934 52.91707,3.50484 57.87365,-71.3312 4.95659,-74.83604 v 0 c -14.11819,-0.92218 -20.19391,-1.46812 -34.83685,-1.74111 -21.39591,-0.39889 -42.80667,0.32673 -64.11497,2.33406 -23.43806,2.49222 -46.84124,5.30517 -70.13213,8.94885 -52.8775,4.05836 -47.13811,78.83843 5.73939,74.78007 z"/>
<path d="m 217.82865,907.06756 c 24.82149,-6.1793 49.66165,-12.23769 74.60857,-17.89392 52.87084,-11.72213 106.87207,-17.05085 160.88521,-19.7272 12.57527,-0.6231 25.1629,-0.96489 37.74434,-1.44734 58.67869,-1.61199 117.41563,-1.50698 176.07146,0.8995 9.26808,0.38024 18.52975,0.90301 27.79463,1.35451 22.01717,1.72334 44.42488,2.06153 66.01657,7.22008 2.07119,0.49483 4.0962,1.16612 6.1443,1.74919 51.18906,13.86291 70.79419,-58.52935 19.60513,-72.39226 v 0 c -10.94256,-2.87853 -13.31597,-3.7546 -25.25074,-5.67508 -20.79974,-3.34696 -41.88284,-4.45783 -62.87526,-5.81354 -9.62743,-0.46649 -19.25157,-1.00657 -28.88228,-1.39946 -60.47034,-2.46691 -121.02406,-2.57061 -181.51696,-0.88712 -13.1506,0.51092 -26.30789,0.87156 -39.45179,1.53276 -58.05099,2.9202 -116.0669,8.81926 -172.88122,21.44533 -25.4646,5.78272 -50.82592,11.95325 -76.16371,18.26427 -51.45636,12.83523 -33.3046,85.60551 18.15175,72.77028 z"/>
</svg>
