<?xml version="1.0" ?>
<svg xmlns="http://www.w3.org/2000/svg" viewBox="0 0 1000 1000">
<path d="m 253.62973,339.28801 c 1.82704,-0.6233 3.63664,-1.30028 5.48112,-1.86991 10.07441,-3.1113 20.88034,-5.98076 30.98472,-8.55444 20.74091,-5.28289 38.14226,-9.48425 59.40383,-13.62117 13.04314,-2.53784 26.16762,-4.63808 39.25142,-6.95713 72.79531,-11.49545 146.70136,-15.06064 220.29806,-11.70014 12.51987,0.57167 25.01142,1.65066 37.51713,2.47599 26.51596,1.94145 52.7653,6.03738 78.9458,10.49085 52.28916,8.8512 64.80665,-65.09684 12.51749,-73.94804 v 0 c -28.71409,-4.83899 -57.50154,-9.2976 -86.57916,-11.38361 -13.46294,-0.8694 -26.91115,-2.00912 -40.38882,-2.60818 -78.66853,-3.49671 -157.65502,0.45066 -235.44605,12.83238 -13.97827,2.49504 -27.99989,4.75833 -41.93481,7.48512 -22.07905,4.32043 -41.2965,8.93566 -62.8973,14.46304 -12.14557,3.1079 -24.38452,6.37984 -36.34388,10.19939 -2.89926,0.92596 -5.74011,2.02577 -8.61016,3.03865 -49.25508,19.658 -21.45447,89.3152 27.80061,69.6572 z"/>
<path d="m 390.02645,503.50943 c 24.33081,-5.64919 48.93869,-9.90656 73.57329,-13.9822 31.44486,-4.90855 63.09258,-8.59637 94.9122,-9.75624 16.6992,-0.60871 21.8456,-0.38345 38.02632,-0.22281 18.79221,0.55905 9.87922,0.25238 26.73978,0.89575 52.99469,2.01575 55.84539,-72.93005 2.8507,-74.9458 v 0 c -18.02503,-0.68354 -8.38695,-0.35648 -28.91537,-0.94691 -18.09731,-0.14801 -24.02837,-0.39306 -42.67419,0.32506 -34.5949,1.33239 -69.01176,5.29554 -103.19988,10.65986 -24.26898,4.02732 -48.90815,8.03141 -72.6921,13.84156 -52.41905,8.04635 -41.0398,82.17808 11.37925,74.13173 z"/>
<path d="m 451.81075,145.54128 c 2.19759,24.71032 2.80418,49.53857 3.61185,74.32352 2.39869,76.44935 4.23838,152.90902 5.14506,229.39052 0.29463,77.99172 1.94767,155.97838 1.98752,233.97127 0.007,14.67708 -0.13425,29.35386 -0.20138,44.03079 -0.4735,48.52646 -1.93747,97.03388 -3.28745,145.5413 -1.47534,53.01249 73.49563,55.09894 74.97098,2.08646 v 0 c 1.36615,-49.08947 2.84452,-98.17905 3.3157,-147.28789 0.067,-14.92524 0.20907,-29.85032 0.20106,-44.77571 -0.042,-78.15471 -1.69442,-156.30318 -1.99171,-234.45672 -0.91578,-77.00039 -2.76226,-153.97899 -5.17971,-230.947 -0.88548,-27.07989 -1.52605,-54.21904 -4.15364,-81.19961 -6.59241,-52.621671 -81.01069,-43.298596 -74.41828,9.32307 z"/>
<path d="m 447.08347,475.54137 c -13.38352,20.39231 -28.4872,39.6247 -44.63413,57.89466 -6.49783,7.35217 -13.217,14.5057 -19.82551,21.75856 -34.48013,36.85619 -70.65935,72.1471 -108.64585,105.38681 -23.8962,20.91014 -36.89255,31.1669 -61.30232,51.07433 -25.33466,20.58389 -50.85493,40.92533 -76.59255,61.00141 -41.812298,32.62257 4.32298,91.75409 46.13527,59.13152 v 0 c 26.16264,-20.41717 52.11749,-41.08763 77.8704,-62.021 25.71052,-20.98548 38.87588,-31.36955 64.09625,-53.47044 39.82698,-34.90081 77.7685,-71.93949 113.91527,-110.63124 7.17618,-7.8988 14.48105,-15.68258 21.52855,-23.69642 17.66664,-20.08907 34.24575,-41.19117 48.97751,-63.53374 30.33095,-43.50326 -31.19194,-86.3977 -61.52289,-42.89445 z"/>
<path d="m 505.10793,553.2391 c 17.85183,15.15971 35.07857,31.00099 51.83549,47.35867 25.67681,25.23683 49.77022,52.00827 73.53979,79.02801 12.74082,14.73213 25.23099,29.69205 38.65685,43.81464 7.30444,7.6835 8.8051,8.98981 16.20619,16.14177 8.42521,7.81609 16.95263,15.67362 26.76309,21.75594 6.90938,4.2837 9.59254,5.3067 16.86765,8.74955 12.30585,5.41902 24.67946,10.7023 36.71356,16.7136 7.33289,3.66295 20.66826,10.778 27.52247,14.40331 19.60335,10.73583 39.74874,20.40621 59.88676,30.08026 47.81041,22.94918 80.26545,-44.66495 32.45504,-67.61413 v 0 c -19.26829,-9.24098 -38.53946,-18.48697 -57.28414,-28.76817 -9.073,-4.79603 -20.90471,-11.1273 -30.17671,-15.74015 -12.33691,-6.13765 -24.98009,-11.62317 -37.6045,-17.13325 -1.14549,-0.50636 -5.32961,-2.304 -6.7978,-3.10824 -6.18952,-3.39048 -11.01101,-8.81284 -16.3069,-13.34791 -18.08728,-17.36349 -34.39553,-36.37637 -50.59486,-55.49069 -25.03881,-28.45147 -50.43455,-56.62595 -77.49267,-83.18815 -16.98154,-16.53477 -34.28232,-32.7448 -52.46438,-47.96465 -38.40268,-36.57505 -90.12761,17.73454 -51.72493,54.30959 z"/>
</svg>
