<?xml version="1.0" ?>
<svg xmlns="http://www.w3.org/2000/svg" viewBox="0 0 1000 1000">
<path d="m 189.75344,348.50056 c 37.50119,-5.74401 75.06882,-11.03737 112.66791,-16.09668 44.3004,-5.88278 88.75309,-10.89779 133.4148,-12.96296 23.45955,-1.08478 28.96465,-0.84431 51.4332,-0.83799 6.24214,0.16583 12.48428,0.33165 18.72642,0.49747 53.01527,1.37159 54.95498,-73.60333 1.93971,-74.97491 v 0 c -6.90007,-0.17418 -13.80014,-0.34837 -20.70021,-0.52255 -24.51144,0.0276 -30.45759,-0.22565 -55.95326,0.97637 -46.48328,2.19151 -92.75541,7.36432 -138.86505,13.49482 -38.65193,5.20369 -77.27679,10.62411 -115.81927,16.58927 -52.21076,9.30252 -39.055,83.13968 13.15575,73.83716 z"/>
<path d="m 345.66422,134.89838 c 0.43839,35.04964 0.15772,70.10873 0.35627,105.16283 0.66634,70.3731 2.20607,140.73965 2.22015,211.11855 0.003,16.76076 -0.14689,33.5212 -0.22033,50.28179 -1.0162,102.18363 -4.40105,204.32757 -9.30885,306.39306 -3.10118,53.67449 -1.40197,27.61127 -5.03385,78.19378 -3.79284,52.8972 71.0151,58.2611 74.80795,5.36389 v 0 c 3.7138,-51.86435 1.98103,-25.21306 5.13945,-79.95767 4.95423,-103.15621 8.37955,-206.39129 9.39459,-309.66686 0.0734,-16.99424 0.22407,-33.98833 0.2201,-50.98273 -0.0164,-70.39612 -1.54674,-140.77995 -2.22042,-211.17022 -0.18416,-32.26897 -0.20997,-26.15499 -0.16842,-56.21943 0.0218,-15.80118 0.28929,-31.62448 -0.12027,-47.42391 -0.0613,-2.36394 -0.20421,-4.72506 -0.30631,-7.08759 -4.23876,-52.863342 -78.99882,-46.86883 -74.76006,5.99451 z"/>
<path d="m 340.26619,314.39944 c -3.93704,6.91812 -4.04663,6.91582 -8.1545,15.27399 -4.68059,9.52348 -9.07173,19.18708 -13.72295,28.72494 -10.4344,21.39692 -9.47756,19.15295 -21.29382,41.74858 -22.23926,40.73989 -44.58622,81.44806 -68.42239,121.28433 -15.97528,26.69873 -23.98326,38.87663 -40.73001,65.18879 -21.42491,33.10513 -43.11736,66.06907 -65.98998,98.19988 -6.95398,9.76875 -14.15939,19.35606 -21.23909,29.03409 -31.297532,42.81313 29.24938,87.07453 60.54692,44.26139 v 0 c 7.44079,-10.18512 15.01022,-20.2775 22.32238,-30.55536 23.43894,-32.94543 45.67686,-66.73823 67.63707,-100.67856 17.60732,-27.6809 25.4029,-39.51482 42.22683,-67.64396 24.42968,-40.84577 47.34325,-82.57976 70.12182,-124.35925 4.21165,-8.0675 8.50313,-16.09382 12.63495,-24.2025 7.91211,-15.52751 15.18655,-31.34804 22.77349,-47.03117 2.97631,-6.15239 2.71237,-5.53118 5.5631,-10.5945 27.33017,-45.44845 -36.94365,-84.09915 -64.27382,-38.65069 z"/>
<path d="m 388.47481,445.26385 c 12.60573,9.33583 26.27502,17.08681 39.64597,25.24172 12.05693,7.35349 14.44897,8.94589 26.54726,16.61669 15.4517,10.12504 31.25031,19.97921 45.21194,32.1605 4.9709,4.33703 5.96091,5.6325 10.10383,10.14908 36.38507,38.58273 90.94929,-12.87352 54.56422,-51.45625 v 0 c -7.43706,-7.76736 -8.83047,-9.5762 -17.34678,-16.87958 -16.30204,-13.98022 -34.40101,-25.66686 -52.38284,-37.32158 -12.99478,-8.23334 -15.07828,-9.63316 -28.01304,-17.52228 -11.11014,-6.77626 -22.49348,-13.17393 -33.06595,-20.78893 -42.28543,-32.00691 -87.55004,27.79372 -45.26461,59.80063 z"/>
<path d="m 555.71565,140.47623 c 0,32.33336 0,64.66672 0,97.00008 0.26306,74.18306 -0.49913,148.36233 -1.33615,222.53936 -0.94697,91.28468 -3.39828,182.54216 -4.50953,273.82429 -0.63621,52.03057 0.25533,104.05928 1.12668,156.08062 0.88848,53.02556 75.87795,51.76907 74.98948,-1.25649 v 0 c -0.85983,-51.29855 -1.74742,-102.60435 -1.1217,-153.91207 1.10929,-91.30411 3.56892,-182.58345 4.51029,-273.89017 0.84006,-74.45908 1.60387,-148.92042 1.34093,-223.38554 0,-32.33336 0,-64.66672 0,-97.00008 0,-53.033009 -75,-53.033009 -75,0 z"/>
<path d="m 601.58639,471.93551 c 22.28859,2.16523 43.90935,8.61961 65.27385,15.00884 33.95285,11.14868 66.76066,25.63136 98.04788,42.88451 4.96144,2.73596 9.81575,5.66184 14.72363,8.49276 3.99897,2.48918 7.99793,4.97836 11.9969,7.46754 45.06495,27.95802 84.60355,-35.77344 39.53861,-63.73146 v 0 c -4.7176,-2.91852 -9.4352,-5.83704 -14.15279,-8.75556 -5.6879,-3.26108 -11.31552,-6.62962 -17.06368,-9.78324 -35.64909,-19.5582 -73.03814,-35.93045 -111.72803,-48.46782 -7.28624,-2.15307 -14.53154,-4.44986 -21.85871,-6.4592 -20.22544,-5.54647 -40.9531,-10.06999 -61.90164,-11.60121 -52.99401,-2.03365 -55.87002,72.91119 -2.87602,74.94484 z"/>
</svg>
