<?xml version="1.0" ?>
<svg xmlns="http://www.w3.org/2000/svg" viewBox="0 0 1000 1000">
<path d="m 367.66774,76.297803 c -5.13307,14.324177 -12.30099,27.823067 -19.38618,41.247637 -21.8035,38.16552 -47.48875,73.99352 -74.34381,108.73842 -6.4259,8.31379 -13.033,16.48593 -19.5495,24.7289 -21.87804,27.81844 -45.23024,54.40502 -68.88132,80.71213 -35.45034,39.44329 20.3309,89.57765 55.78124,50.13435 v 0 c 24.70383,-27.49425 49.08848,-55.28619 71.94881,-84.35102 6.85295,-8.67859 13.80153,-17.28251 20.55886,-26.03575 29.32453,-37.98613 57.28659,-77.21914 80.88682,-119.05736 10.14556,-19.40124 20.72425,-39.06585 26.31306,-60.36907 11.13569,-51.850714 -62.19229,-67.598951 -73.32798,-15.748237 z"/>
<path d="m 418.43291,160.77743 c 20.82339,-0.5319 41.64174,-1.23777 62.46354,-1.82635 28.23701,-0.655 56.46985,-1.53881 84.71635,-1.16416 2.95829,0.0671 5.9168,0.12547 8.87488,0.20122 4.08479,0.10459 8.6466,0.25371 12.76761,0.39842 1.09403,0.0384 4.67258,0.12429 6.27067,0.30414 0.27991,0.0315 -0.56329,-0.008 -0.84494,-0.0122 -18.63306,-5.59582 -20.16735,-3.56132 -31.06308,-32.56664 -2.77519,-7.38777 7.04213,-25.31103 0.2246,-13.3935 -1.0774,1.88336 -2.13887,3.7758 -3.20831,5.6637 -13.4043,23.16931 -28.66942,45.15847 -44.27549,66.87795 -24.39209,33.47434 -51.76126,64.65044 -80.70569,94.2422 -7.09134,7.24993 -14.37053,14.31371 -21.55579,21.47056 -40.13619,38.27259 -82.1709,74.55658 -126.14457,108.35936 -8.56381,6.58305 -17.29756,12.94203 -25.94635,19.41305 -22.80026,16.93073 -46.88494,31.96161 -71.89759,45.37599 -6.46729,3.46843 -13.06742,6.68329 -19.60112,10.02493 -47.18785,24.20346 -12.95899,90.93715 34.22885,66.73369 v 0 c 7.34839,-3.77872 14.77595,-7.4073 22.04518,-11.33616 27.86728,-15.06168 54.73026,-31.87217 80.17805,-50.76351 9.15438,-6.85975 18.39684,-13.60349 27.46312,-20.57926 46.24892,-35.58483 90.44884,-73.79447 132.62606,-114.11382 7.6558,-7.63877 15.41108,-15.17913 22.96741,-22.91631 31.32018,-32.06974 60.86817,-65.90974 87.26569,-102.16879 17.1586,-23.91516 33.91797,-48.14651 48.62083,-73.67383 5.33911,-9.43972 15.72494,-24.59884 12.47231,-35.24635 -9.38332,-30.716386 -13.35201,-29.042896 -33.22202,-35.668568 -12.13106,-1.438155 -24.38252,-1.187281 -36.57541,-1.620068 -29.27522,-0.366165 -58.53625,0.478731 -87.80135,1.187926 -21.1121,0.597281 -42.22086,1.306429 -63.33433,1.856037 -52.99082,2.114879 -49.99993,77.055223 2.99089,74.940343 z"/>
<path d="m 389.96404,270.21668 c 14.45992,12.61889 28.72276,25.45665 42.81701,38.48261 30.97739,28.76612 61.26851,58.2579 91.78561,87.50857 31.64611,30.63177 64.12645,60.37908 97.45085,89.17218 15.84046,13.39928 32.04665,26.46184 49.48927,37.74286 8.96972,5.80117 11.33257,6.91808 20.40081,11.93809 14.95553,8.34301 31.22415,13.67667 47.30278,19.33864 26.03563,9.7779 52.84997,17.14242 79.72674,24.17643 26.43735,6.70528 12.88571,3.25804 40.65416,10.34471 51.38604,13.11391 69.93191,-59.55693 18.54587,-72.67084 v 0 c -27.7008,-7.06929 -14.29076,-3.65906 -40.22904,-10.23489 -24.87708,-6.49704 -49.70437,-13.27172 -73.78793,-22.35791 -12.21978,-4.30255 -24.68327,-8.12592 -36.11644,-14.33858 -6.34434,-3.4422 -8.23251,-4.33176 -14.55821,-8.37395 -14.99729,-9.58346 -28.80926,-20.88032 -42.40364,-32.3238 -32.35449,-27.93517 -63.85934,-56.83069 -94.57808,-86.55799 -30.8497,-29.5684 -61.47049,-59.38103 -92.79056,-88.45422 -14.19089,-13.10387 -28.51707,-26.05821 -43.09158,-38.73498 -39.13346,-35.79207 -89.75109,19.55101 -50.61762,55.34307 z"/>
<path d="m 304.88604,626.33968 c 22.21901,-6.66928 45.08425,-10.98481 67.86907,-15.20048 34.34749,-5.75899 68.9925,-9.78939 103.76722,-11.77287 22.4472,-1.28034 28.80548,-1.11786 51.00454,-1.39235 33.35791,-0.1905 66.68472,1.55453 99.91962,4.27972 2.55741,0.23249 5.11481,0.46498 7.67222,0.69746 52.81614,4.7911 59.59178,-69.90221 6.77563,-74.69331 v 0 c -2.77926,-0.25161 -5.55853,-0.50323 -8.33779,-0.75485 -35.59244,-2.90082 -71.28199,-4.75725 -107.005,-4.52268 -24.22088,0.32925 -30.98034,0.15839 -55.47079,1.58367 -37.54571,2.18508 -74.95116,6.56779 -112.02975,12.83785 -26.66184,4.97511 -53.46093,10.02926 -79.3401,18.28933 -49.95604,17.8015 -24.78092,88.45002 25.17513,70.64851 z"/>
<path d="m 430.29238,457.57711 c -1.19344,24.84705 0.59057,49.75687 1.7507,74.5762 1.77965,36.50495 3.47586,73.02217 3.984,109.57159 0.39118,28.13685 0.15707,35.56524 -0.10727,63.73522 -0.80781,49.77774 -3.19995,99.53361 -8.04839,149.08465 -5.14505,52.78285 69.50117,60.05903 74.64621,7.27619 v 0 c 5.02583,-51.74228 7.59459,-103.68936 8.39898,-155.66761 0.26685,-29.29803 0.50595,-36.81849 0.092,-66.09133 -0.52548,-37.16296 -2.23554,-74.29382 -4.04742,-111.41174 -1.01671,-21.73684 -2.55683,-43.54233 -1.89074,-65.30815 4.07648,-52.87611 -70.70162,-58.64112 -74.77811,-5.76502 z"/>
<path d="m 432.15115,570.30843 c -1.11449,0.7998 -0.46607,0.29703 -2.3189,2.48251 -8.07214,9.5214 -16.11283,19.01703 -24.70398,28.08784 -4.53118,4.78417 -9.20438,9.4318 -13.80658,14.14769 -32.71661,32.17925 -67.59896,62.04678 -103.56724,90.51598 -7.89306,6.24743 -15.89997,12.34966 -23.84995,18.52448 -21.23517,15.96509 -42.77043,31.52391 -64.22813,47.18678 -42.83526,31.26725 1.38331,91.84545 44.21856,60.57821 v 0 c 22.06431,-16.10566 44.21062,-32.10145 66.02788,-48.5424 8.30698,-6.45748 16.67346,-12.83915 24.92095,-19.37244 38.30452,-30.34314 75.42124,-62.2172 110.20802,-96.56396 5.16725,-5.31557 10.41263,-10.55628 15.50174,-15.9467 6.87974,-7.28708 14.79798,-16.24719 21.3777,-23.99645 4.50143,-5.30155 9.65357,-11.49265 13.58413,-17.26967 1.3576,-1.99536 2.45849,-4.15379 3.68773,-6.23068 23.75962,-47.41287 -43.2923,-81.01406 -67.05193,-33.60119 z"/>
<path d="m 474.24763,631.78551 c 18.54797,17.76562 36.43236,36.23239 54.49137,54.49606 29.55925,30.12934 59.69117,59.69445 90.01028,89.05726 15.61371,15.14717 31.39249,30.12155 47.18591,45.08063 5.82817,5.50572 11.73879,10.99648 18.74445,14.99898 1.88936,1.07944 3.87666,1.97764 5.815,2.96646 17.18196,7.33647 35.15907,12.53341 53.13515,17.5028 24.34938,6.1562 11.5993,3.04843 38.26526,9.26149 51.65321,12.01857 68.65004,-61.03009 16.99683,-73.04867 v 0 c -24.79081,-5.75985 -13.01202,-2.89774 -35.35197,-8.52179 -13.74287,-3.76648 -27.41567,-7.74527 -40.72461,-12.8723 0.4481,0.38641 0.93526,0.72966 1.35513,1.14657 0.0437,0.0434 -0.12954,-0.008 -0.1796,-0.0436 -0.35295,-0.25317 -0.69094,-0.52771 -1.01699,-0.81468 -0.92727,-0.81611 -4.79617,-4.40943 -5.46345,-5.02704 -15.59257,-14.76883 -31.17171,-29.55167 -46.58651,-44.50657 -29.93164,-28.98333 -59.67486,-58.17031 -88.85389,-87.91285 -19.01366,-19.22915 -37.82631,-38.68995 -57.43366,-57.31431 -39.28091,-35.63019 -89.6696,19.92139 -50.3887,55.55159 z"/>
</svg>
