<?xml version="1.0" ?>
<svg xmlns="http://www.w3.org/2000/svg" viewBox="0 0 1000 1000">
<path d="m 136.44647,328.57961 c 28.03216,-8.28889 57.02209,-12.72981 85.8189,-17.3963 51.55118,-7.51136 103.5387,-12.38369 155.61563,-14.11546 8.64576,-0.28751 17.29822,-0.31489 25.94733,-0.47234 53.02366,-0.99579 51.61539,-75.98257 -1.40827,-74.98677 v 0 c -9.35485,0.18067 -18.71331,0.2254 -28.06455,0.54202 -54.92455,1.85966 -109.75171,7.03305 -164.11618,15.003 -32.16969,5.23801 -64.52372,10.33155 -95.80409,19.72853 -50.697661,15.56429 -28.686428,87.26161 22.01123,71.69732 z"/>
<path d="m 254.65642,147.27996 c 3.10476,34.40772 3.70139,68.98407 4.49316,103.50267 0.99633,98.25197 2.18435,196.50265 3.1227,294.75537 0.48728,55.59211 -0.17873,111.18849 -1.74884,166.75909 -0.94295,33.37354 -2.07498,66.47478 -4.28867,99.7866 -0.96573,14.53228 -2.35939,29.03295 -3.53909,43.54942 -4.27791,52.86019 70.47768,58.91008 74.75559,6.04989 v 0 c 1.22631,-15.2134 2.67207,-30.4107 3.67893,-45.6402 2.24638,-33.97806 3.41511,-67.98579 4.37338,-102.0198 1.58757,-56.38459 2.25856,-112.79517 1.76528,-169.20139 -0.94196,-98.58906 -2.12831,-197.17616 -3.13913,-295.76434 -0.83365,-36.11663 -1.49701,-72.28936 -4.75652,-108.28894 -4.60441,-52.832744 -79.3212,-46.321118 -74.71679,6.51163 z"/>
<path d="m 255.59915,300.54752 c -6.75434,13.01254 -12.61549,26.44306 -18.62852,39.80492 -3.2748,7.27711 -16.07617,35.31826 -18.86463,41.43227 -23.36099,51.28624 -47.86188,102.07098 -73.67453,152.17098 -5.98053,11.60768 -12.12963,23.12773 -18.19444,34.6916 -20.83709,40.04718 -45.308496,77.99502 -69.878132,115.80559 -28.891141,44.47248 34.002451,85.33073 62.893592,40.85824 v 0 c 25.82999,-39.77035 51.49426,-79.72118 73.40759,-121.836 6.23135,-11.88717 12.54824,-23.72988 18.69404,-35.6615 26.27065,-51.00254 51.20677,-102.70117 74.98996,-154.90716 3.08977,-6.7747 15.69957,-34.39348 19.16924,-42.10899 5.53243,-12.30246 10.89292,-24.68201 17.13787,-36.649 23.75946,-47.41295 -43.29258,-81.0139 -67.05204,-33.60095 z"/>
<path d="m 302.22256,424.65937 c 16.73766,8.05105 33.46858,16.16282 49.57567,25.43352 4.19516,2.41459 8.31052,4.96523 12.46577,7.44785 18.15975,11.3871 35.85522,23.6672 51.45406,38.42176 38.72131,36.23754 89.96894,-18.52267 51.24762,-54.76021 v 0 c -6.28972,-5.84517 -7.84502,-7.45402 -14.82705,-13.17994 -15.62681,-12.81544 -32.37217,-24.21427 -49.49593,-34.91821 -4.86205,-2.88813 -9.67961,-5.85251 -14.58616,-8.66439 -16.78322,-9.61827 -34.14717,-18.17339 -51.59348,-26.5081 -47.18362,-24.21169 -81.42412,42.51603 -34.2405,66.72772 z"/>
<path d="m 486.42279,124.91927 c -0.52325,21.81003 -5.8093,43.21196 -10.18324,64.48268 -1.53507,7.01117 -2.98384,14.04179 -4.60522,21.0335 -3.53215,15.23141 -6.75836,27.80591 -11.15073,42.80354 -5.42147,18.51147 -11.71695,36.71894 -18.14389,54.89756 -3.93918,10.91902 -8.12706,21.74421 -12.32418,32.5655 -1.10072,2.83795 -4.85942,12.08208 -4.89378,14.7098 -0.10904,8.33784 1.32158,16.62465 1.98237,24.93698 11.31109,8.22692 20.95614,19.46375 33.93326,24.68076 7.85846,3.15923 28.97218,-5.14779 36.73652,-7.95905 20.72458,-7.5038 14.26113,-5.83966 36.63605,-13.25884 7.75837,-2.57256 15.58811,-4.92468 23.38216,-7.38703 49.91918,-14.77521 101.19629,-25.55852 153.10898,-30.14712 10.11643,-0.8942 20.27508,-1.21976 30.41262,-1.82964 24.55556,-0.64968 49.19212,0.0145 73.57726,3.14797 13.28147,1.70665 17.43556,2.88571 29.81821,5.63163 51.82522,11.25374 67.7404,-62.03819 15.91518,-73.29193 v 0 c -16.27398,-3.47687 -21.07871,-4.83788 -38.4119,-6.98148 -28.36018,-3.50731 -56.99504,-4.24363 -85.53623,-3.36267 -11.47851,0.72927 -22.98098,1.14798 -34.43553,2.18781 -56.65678,5.14323 -112.61834,16.94201 -167.09306,33.14559 -8.51668,2.70337 -17.07164,5.28897 -25.55003,8.11012 -13.66911,4.54834 -24.14277,8.48443 -37.32968,13.50584 -2.66637,1.01532 -7.06845,0.40365 -7.97483,3.109 -0.70613,2.10766 4.39239,0.68579 6.58859,1.02868 8.8618,7.90263 17.72361,15.80526 26.58542,23.70789 0.0641,6.69519 0.17602,13.39009 0.19231,20.08557 3.1e-4,0.12957 -0.18631,-0.23834 -0.14434,-0.36092 0.71717,-2.09459 1.58938,-4.13285 2.38974,-6.19708 4.48358,-11.56367 8.95494,-23.13245 13.15479,-34.80348 5.37893,-15.24804 7.73416,-21.58998 12.7959,-37.43149 9.56936,-29.9488 17.61167,-60.36401 23.84998,-91.18541 5.65761,-27.56781 12.25382,-55.41797 11.60131,-83.74379 -2.94829,-52.950996 -77.8323,-48.781484 -74.88401,4.16951 z"/>
<path d="m 667.39918,402.11271 c -0.26008,7.95149 -2.45918,15.55824 -4.84571,23.09177 -5.73987,18.11895 -5.20085,15.71695 -12.73475,34.85861 -21.35886,48.81495 -50.31578,94.01404 -83.28586,135.77577 -7.91936,10.03111 -16.32636,19.66743 -24.48954,29.50114 -24.19183,27.58163 -51.07241,52.6135 -79.71618,75.49592 -17.93617,14.32853 -28.22089,21.20669 -46.49666,34.08732 -43.32188,30.58945 -0.0619,91.85585 43.26002,61.2664 v 0 c 20.38839,-14.4204 31.43748,-21.81458 51.49777,-37.94411 32.08098,-25.79479 62.15347,-54.01984 89.22086,-85.07131 8.93377,-10.81299 18.13656,-21.40923 26.80131,-32.43898 37.0345,-47.14288 69.34792,-98.25268 93.07306,-153.39738 10.60958,-27.36257 22.11899,-55.44288 22.71568,-85.22515 0,-53.03301 -75,-53.03301 -75,0 z"/>
<path d="m 494.38642,572.5425 c 17.73607,12.33816 33.17392,27.52219 48.5139,42.63351 28.65467,29.14077 54.93985,60.46691 82.05482,91.01166 5.81072,6.54571 11.69377,13.02685 17.54066,19.54028 29.52945,33.05702 60.88729,64.38426 92.46819,95.46076 20.85549,20.11144 42.07737,39.97454 65.38948,57.25258 5.02805,3.7266 10.21711,7.2309 15.32567,10.84635 18.12232,12.01674 37.23321,22.39705 57.34024,30.70524 8.10454,3.34878 16.42172,6.1578 24.63257,9.2367 49.71767,18.45681 75.81954,-51.85458 26.10188,-70.3114 v 0 c -6.63983,-2.43415 -13.35768,-4.66519 -19.91948,-7.30247 -15.77071,-6.33847 -30.73259,-14.35822 -44.95947,-23.63979 -4.1795,-2.92824 -8.42882,-5.75928 -12.53851,-8.78472 -21.00624,-15.46418 -40.0004,-33.41439 -58.76977,-51.46244 -30.48045,-29.98959 -60.76479,-60.20263 -89.26349,-92.10614 -34.18247,-38.06537 -67.07333,-77.32654 -102.83699,-113.94275 -19.47915,-19.09813 -39.21469,-38.25484 -62.14748,-53.24106 -45.32815,-27.52923 -84.26037,36.57445 -38.93222,64.10369 z"/>
</svg>
