<?xml version="1.0" ?>
<svg xmlns="http://www.w3.org/2000/svg" viewBox="0 0 1000 1000">
<path d="m 175.04038,276.87684 c 2.72371,-0.69923 5.4773,-1.29096 8.17112,-2.09769 12.95155,-3.87865 25.54974,-8.95884 38.38296,-13.19924 17.61734,-5.82118 19.49204,-6.14668 38.02997,-11.46129 21.83036,-5.96773 43.96152,-10.75068 66.20597,-14.88277 12.83612,-2.38442 26.65313,-4.75954 39.66359,-6.30344 5.24555,-0.62247 10.52021,-0.96856 15.78032,-1.45283 10.22339,-0.64838 20.50864,-0.69201 30.66736,0.76352 3.36767,0.48252 6.78372,1.12379 9.88162,2.56873 -3.54705,-0.18827 -7.81355,-5.10786 -9.56977,-7.74028 -0.9026,-1.3529 -1.59989,-2.83204 -2.39983,-4.24807 -0.34333,-0.84701 -0.45377,-1.8316 -1.02998,-2.54103 -0.30784,-0.37902 0.0877,0.97284 0.14966,1.45718 0.21485,1.68007 0.47939,3.35371 0.68063,5.03547 1.28443,10.73388 1.65645,21.3796 1.95162,32.18458 0.31228,33.46488 -4.67706,66.65993 -11.82114,99.27323 -1.57703,7.19928 -3.37993,14.34721 -5.0699,21.52082 -5.66447,23.00216 -13.36702,45.43875 -23.75387,66.73929 -4.49394,9.21583 -5.89976,11.36521 -10.74248,19.79022 -3.01949,4.55444 -5.68494,9.57267 -9.61798,13.46336 -0.19219,0.19012 -0.86381,0.61212 -0.71193,0.38848 1.69774,-2.49989 4.77454,-3.64436 7.21235,-5.1046 10.19027,-2.31973 7.74384,-2.78426 17.1735,-1.51796 1.14747,0.15409 2.97715,1.90653 3.37528,0.81937 0.44692,-1.22039 -1.74725,-1.92445 -2.61689,-2.89027 -9.13601,-10.14638 -4.62275,-4.8315 -14.2715,-17.26869 -9.33088,-13.45168 -17.0233,-27.93021 -24.96741,-42.21405 -25.79756,-46.33558 -91.32596,-9.85231 -65.5284,36.48326 v 0 c 9.90818,17.77886 19.57458,35.7649 31.64149,52.21918 12.40937,15.51736 27.85846,35.98593 47.11876,43.47347 14.87592,5.78308 17.53452,3.53754 32.88577,1.67305 4.02547,-1.87147 8.24548,-3.37147 12.07641,-5.61441 2.92876,-1.71474 5.5298,-3.95478 8.08419,-6.18929 9.70827,-8.49251 16.52289,-19.78927 23.30179,-30.57564 6.11688,-10.79639 8.18729,-14.06023 13.77998,-25.71489 12.40229,-25.84527 21.7521,-52.98879 28.57709,-80.8239 1.85829,-7.94545 3.8456,-15.86182 5.57487,-23.83635 8.28662,-38.21393 13.79239,-77.13106 13.26716,-116.3135 -0.17727,-5.6302 -0.25054,-11.26464 -0.5318,-16.89061 -0.42576,-8.51614 -1.0653,-15.08016 -2.09355,-23.34495 -0.39119,-3.14433 -1.43885,-10.61098 -2.21137,-13.79437 -0.65277,-2.68988 -1.55861,-5.31196 -2.33791,-7.96795 -1.30731,-2.67253 -2.40885,-5.45594 -3.92194,-8.01759 -6.46782,-10.94995 -17.3291,-18.04144 -28.85867,-22.69565 -7.38789,-2.43769 -8.8048,-3.14395 -16.7056,-4.70459 -18.33052,-3.62082 -37.12762,-3.75166 -55.70796,-2.51056 -6.42486,0.6222 -12.86639,1.09133 -19.27458,1.86662 -14.1407,1.7108 -29.63364,4.36159 -43.58963,6.96881 -24.34122,4.54737 -48.55369,9.82444 -72.43705,16.38902 -7.46337,2.15094 -14.95603,4.20272 -22.39011,6.45281 -18.56695,5.61971 -36.79042,12.24776 -55.09941,18.63438 -52.15026,9.63589 -38.52306,83.38749 13.6272,73.75161 z"/>
<path d="m 277.13494,122.23697 c -3.62934,17.49141 -7.25606,35.05178 -12.26689,52.21432 -2.13906,7.32646 -4.62044,14.5486 -6.93066,21.82291 -14.11641,41.24532 -30.95464,81.56512 -49.11657,121.18413 -10.63784,23.2057 -20.41634,42.74621 -31.66264,65.66053 -52.36847,101.80655 18.411,-35.51887 -31.72538,60.9087 -4.93435,9.49027 -9.747,19.04331 -14.6205,28.56497 -24.15855,47.21085 42.60768,81.3762 66.76623,34.16534 v 0 c 4.72807,-9.24183 9.39524,-18.51509 14.18423,-27.7255 48.5288,-93.33291 -18.48396,36.76937 32.72685,-62.87596 11.97182,-24.40503 21.56765,-43.55999 32.90147,-68.3152 19.30456,-42.16483 37.15872,-85.09011 52.07455,-129.01238 2.65686,-8.47796 5.50206,-16.89918 7.97058,-25.43388 3.8492,-13.30827 6.19788,-24.06785 9.17304,-37.3419 1.86166,-8.30606 3.46211,-14.95158 4.70869,-23.22905 0.33132,-2.20002 0.47525,-4.42422 0.71287,-6.63633 2.79357,-52.959378 -72.10231,-56.910076 -74.89587,-3.9507 z"/>
<path d="m 509.62621,252.18074 c 6.25725,24.83823 12.36329,49.71358 17.83355,74.73793 7.17516,33.27713 10.50061,67.18168 12.64607,101.10209 0.17427,3.47983 0.34854,6.95966 0.52281,10.4395 2.66918,52.96579 77.57413,49.19101 74.90495,-3.77479 v 0 c -0.19308,-3.80973 -0.38616,-7.61946 -0.57925,-11.4292 -2.41457,-37.71325 -6.2188,-75.39582 -14.23171,-112.38606 -5.74785,-26.18928 -12.09719,-52.23832 -18.68619,-78.22811 -13.8159,-51.20176 -86.22613,-31.66313 -72.41023,19.53864 z"/>
<path d="m 657.65837,235.69675 c 16.69022,-6.38296 34.43089,-9.18969 52.02217,-11.76648 25.97577,-3.68059 52.22579,-3.84051 78.3422,-1.95197 5.66221,0.58414 11.34187,1.23674 16.89657,2.52155 0.68412,0.15823 1.35604,0.36578 2.02931,0.56522 1.52899,0.45291 1.79164,0.42685 1.12946,0.43579 -9.7509,-3.47473 -15.58028,-11.88487 -19.01205,-21.32178 0.99226,17.55315 1.10361,35.18367 0.26701,52.74752 -0.27507,5.77485 -0.74872,11.53854 -1.12308,17.30781 -2.54622,27.15167 -8.43155,53.84364 -15.19,80.21829 -1.76594,6.89153 -3.53773,13.78453 -5.54473,20.60976 -1.87765,6.38537 -4.0706,12.67377 -6.1059,19.01065 -5.0736,14.82358 -12.29384,28.6792 -19.70363,42.41886 -25.00307,46.76908 41.1384,82.12876 66.14146,35.35968 v 0 c 2.64,-4.97196 5.42098,-9.87159 7.92,-14.91588 9.18465,-18.53932 9.28216,-20.12505 17.09572,-40.07252 2.36231,-7.45085 4.8924,-14.85057 7.08692,-22.35255 2.16545,-7.40263 4.08458,-14.876 5.98967,-22.34987 7.80519,-30.62061 14.41764,-61.63948 17.15958,-93.17101 0.41479,-6.65175 0.93905,-13.29758 1.24436,-19.95525 0.98773,-21.53894 0.87363,-43.20373 -0.8858,-64.69639 -1.73563,-9.39921 -1.58488,-12.89049 -7.07712,-21.69269 -5.26855,-8.44369 -13.38702,-13.91954 -22.38227,-17.53794 -13.12319,-4.57965 -26.85396,-6.81787 -40.69049,-7.94563 -4.16454,-0.28464 -8.3246,-0.6447 -12.49361,-0.85392 -27.42994,-1.3766 -54.95943,-0.26076 -82.17669,3.44569 -5.75553,0.8735 -11.53152,1.62149 -17.26659,2.62051 -18.41437,3.20768 -36.74245,7.68614 -54.07608,14.76148 -48.48,21.4986 -18.07639,90.05967 30.40361,68.56107 z"/>
<path d="m 588.38343,445.5967 c 21.88113,-0.62052 43.68641,-2.85161 65.49177,-4.66644 23.42765,-2.09165 46.93621,-3.26678 70.45969,-2.73238 13.13149,0.29832 17.62417,0.73632 30.59122,1.59953 5.08383,0.47902 10.16766,0.95805 15.25149,1.43708 52.80373,4.92607 59.77024,-69.74969 6.96651,-74.67575 v 0 c -5.76992,-0.53352 -11.53984,-1.06704 -17.30976,-1.60056 -14.90792,-0.96483 -19.89004,-1.44744 -35.01265,-1.75872 -25.76131,-0.53027 -51.50951,0.71154 -77.16717,2.98923 -19.73987,1.64294 -39.47393,3.61233 -59.2711,4.40801 -53.03301,0 -53.03301,75 0,75 z"/>
<path d="m 229.65978,690.20575 c 17.284,-5.94667 34.58011,-11.9127 52.30009,-16.46132 7.52821,-1.93245 15.12392,-3.59166 22.68588,-5.38749 61.82418,-12.83756 124.37681,-22.29223 187.19291,-28.6991 14.28534,-1.45702 28.60273,-2.58064 42.9041,-3.87096 48.09042,-4.02157 96.37756,-5.10884 144.57744,-2.74207 21.8834,1.07455 26.55918,1.70196 47.22318,3.59723 13.05495,1.20791 25.99701,3.26487 38.90815,5.48617 52.27493,8.93487 64.91074,-64.99304 12.63581,-73.92791 v 0 c -14.85021,-2.52413 -29.73403,-4.86955 -44.74484,-6.24944 -22.29152,-2.01522 -27.86762,-2.73502 -51.32124,-3.85739 -51.35468,-2.45759 -102.80119,-1.29859 -154.03556,2.99841 -14.881,1.34958 -29.77872,2.52598 -44.643,4.04872 -65.82071,6.74286 -131.36804,16.68323 -196.12544,30.26945 -8.55715,2.05536 -17.15283,3.95647 -25.67146,6.16606 -13.39199,3.47366 -21.74875,6.17647 -34.41915,10.30188 -4.267,1.38931 -12.85042,3.90358 -17.49832,6.05231 -51.10646,14.16437 -31.07502,86.43982 20.03145,72.27545 z"/>
<path d="m 458.92459,493.94376 c 0,34.57825 0,69.15649 0,103.73474 -0.089,42.20526 0.21881,84.41182 -0.23286,126.61582 -0.23453,21.91529 -0.62798,43.8286 -0.94144,65.74291 -0.47072,36.57132 -1.34658,73.13575 -2.20503,109.69952 -1.24468,53.0184 73.73466,54.77864 74.97934,1.76024 v 0 c 0.86371,-36.79293 1.74401,-73.58656 2.21802,-110.38709 0.0154,-1.07841 0.94376,-65.95976 0.94726,-66.28888 0.45115,-42.3796 0.14779,-84.76167 0.23471,-127.14252 0,-34.57825 0,-69.15649 0,-103.73474 0,-53.03301 -75,-53.03301 -75,0 z"/>
<path d="m 462.75092,605.95033 c -2.8731,2.84518 -3.08658,3.00123 -6.86159,7.38249 -4.41873,5.12836 -11.48564,14.03941 -15.49352,18.98202 -11.34991,13.997 -12.66893,15.53382 -24.86303,30.33513 -5.5936,6.47354 -11.06563,13.05416 -16.78082,19.42062 -6.36155,7.08648 -12.89942,14.01346 -19.44357,20.93167 -14.64211,15.47905 -30.08172,31.37392 -45.44612,46.11923 -19.03908,18.27192 -31.26952,28.83679 -50.97436,46.38811 -23.33355,20.37377 -48.1188,38.9618 -72.78742,57.65822 -42.26059,32.0397 3.05038,91.80521 45.31097,59.76551 v 0 c 26.24079,-19.90046 52.58062,-39.71728 77.37502,-61.43147 21.32362,-19.01227 33.24,-29.28311 53.90277,-49.14213 15.77679,-15.1631 32.56305,-32.41312 47.61169,-48.35924 7.1453,-7.57143 14.27277,-15.16255 21.21966,-22.91642 6.0947,-6.80267 11.93273,-13.83101 17.89909,-20.74651 12.41077,-15.066 13.80519,-16.69329 25.3652,-30.95133 5.14082,-6.34066 10.09324,-13.10484 15.67823,-19.09867 1.08398,-1.16334 2.22745,-2.26978 3.34118,-3.40467 36.01476,-38.92862 -19.03862,-89.86118 -55.05338,-50.93256 z"/>
<path d="m 489.5822,681.19617 c 0.73674,0.35272 1.49551,0.66271 2.21022,1.05817 0.80172,0.4436 1.86525,1.51359 2.47634,2.02845 1.53207,1.29083 3.09382,2.54614 4.62683,3.83586 8.98354,7.55783 6.51173,5.48258 15.86854,13.92537 25.32009,23.75675 51.58888,46.45233 77.90522,69.08807 24.02602,20.47358 48.19867,40.77644 72.39658,61.04682 12.80776,10.90742 25.99914,21.30745 40.16584,30.39002 17.28183,10.77041 37.02639,16.27982 56.4617,21.70177 24.84729,6.45335 49.933,11.93705 74.92286,17.80321 51.62985,12.11854 68.76805,-60.89709 17.1382,-73.01563 v 0 c -24.02532,-5.63869 -48.13817,-10.92612 -72.04192,-17.06644 -12.27082,-3.36815 -24.9601,-6.44225 -36.16645,-12.66648 -11.48272,-7.255 -21.92305,-15.92386 -32.31975,-24.64052 -23.94829,-20.05976 -47.86959,-40.15403 -71.64959,-60.41275 -25.89368,-22.27212 -51.74065,-44.602 -76.64896,-67.9829 -8.73961,-7.84425 -10.14312,-9.28185 -18.72152,-16.36584 -7.73453,-6.38712 -15.70498,-12.66854 -24.96585,-16.71801 -48.07677,-22.38579 -79.73506,45.60503 -31.65829,67.99083 z"/>
</svg>
