<?xml version="1.0" ?>
<svg xmlns="http://www.w3.org/2000/svg" viewBox="0 0 1000 1000">
<path d="m 159.83063,395.48522 c 15.45107,-7.96044 31.96034,-13.52482 48.74282,-17.93224 6.97723,-1.83235 14.03838,-3.32876 21.05757,-4.99315 39.99331,-8.09544 80.86311,-12.85054 121.71869,-11.97293 6.40302,0.13754 12.79284,0.64287 19.18926,0.9643 12.75491,0.79125 25.33582,2.88872 37.85744,5.31549 52.10056,9.90109 66.10281,-63.78023 14.00225,-73.68132 v 0 c -15.98376,-2.99257 -32.03092,-5.63747 -48.30008,-6.54965 -7.71862,-0.34924 -15.43054,-0.91208 -23.15587,-1.04772 -46.60326,-0.81826 -93.20921,4.59317 -138.7929,14.03757 -8.29741,2.00676 -16.64859,3.80296 -24.89222,6.02029 -23.90512,6.42989 -47.58749,14.74934 -68.96502,27.39267 -44.156477,29.37184 -2.61842,91.81853 41.53806,62.44669 z"/>
<path d="m 238.86715,145.71106 c 1.40878,18.67993 2.53555,37.38255 3.70956,56.07882 4.41945,65.2191 4.08602,130.60894 3.65181,195.9348 -0.40781,56.90445 -2.27787,113.78339 -3.19759,170.67914 -0.59295,36.68075 -0.55112,46.38144 -0.7515,82.76201 0.0384,61.41287 -1.06401,122.81715 -1.97158,184.22092 -0.0823,5.72703 -0.16463,11.45406 -0.24694,17.18109 -0.76216,53.02753 74.2301,54.10538 74.99225,1.07785 v 0 c 0.0822,-5.71685 0.16434,-11.4337 0.2465,-17.15055 0.91099,-61.63609 2.01563,-123.27271 1.97864,-184.91792 0.19552,-35.79596 0.15509,-45.60543 0.73805,-81.69468 0.92434,-57.2231 2.80707,-114.42932 3.21053,-171.66128 0.44232,-67.05951 0.73988,-134.18302 -3.79763,-201.13225 -1.31526,-20.94063 -2.35119,-41.92867 -4.43806,-62.80714 -8.08165,-52.413614 -82.20569,-40.984428 -74.12404,11.42919 z"/>
<path d="m 231.67705,354.62102 c -15.0382,32.60881 -31.57465,64.47945 -48.38815,96.19871 -29.70848,54.92719 -62.20438,108.32181 -96.441751,160.53588 -6.967372,10.62566 -14.129383,21.12241 -21.194075,31.68362 -6.865948,9.60875 -13.731896,19.21749 -20.597844,28.82624 -30.811139,43.16449 30.232675,86.73802 61.04382,43.57353 v 0 c 7.29973,-10.2365 14.59947,-20.473 21.89921,-30.70951 7.30991,-10.93511 14.71929,-21.80438 21.92973,-32.80533 35.38197,-53.98221 68.93981,-109.19828 99.63183,-165.98799 17.21343,-32.49543 34.16532,-65.13562 49.57448,-98.53527 23.17887,-47.69948 -44.27837,-80.47935 -67.45725,-32.77988 z"/>
<path d="m 296.75308,486.37631 c -1.0865,-0.15064 -2.17003,-0.57939 -3.2595,-0.45192 -0.36575,0.0428 0.51372,0.5371 0.823,0.73699 1.4868,0.96092 3.07626,1.75808 4.55154,2.73659 8.92016,5.91648 16.84787,13.08927 24.89123,20.1078 11.97257,10.64688 22.1818,23.03606 33.32575,34.49597 4.68396,4.81675 9.54844,9.4546 14.32266,14.1819 37.74617,37.2522 90.42874,-16.12896 52.68256,-53.38115 v 0 c -4.04091,-3.97247 -8.17346,-7.85381 -12.12272,-11.9174 -12.99453,-13.37067 -24.96326,-27.77374 -39.07277,-40.0424 -16.82715,-14.51947 -35.67695,-31.19174 -57.11453,-38.53047 -2.96968,-1.01661 -6.0908,-1.52056 -9.1362,-2.28083 -52.5698,-6.99401 -62.46082,67.35091 -9.89102,74.34492 z"/>
<path d="m 601.19472,263.76507 c -0.16245,-0.0459 -0.58106,-0.27797 -0.48733,-0.13759 0.64477,0.96568 1.47234,1.79595 2.19921,2.70145 1.62438,2.02359 3.28345,4.02041 4.85444,6.08573 2.10278,2.76443 4.16102,5.56354 6.16468,8.40064 6.9037,9.77536 7.53143,11.08771 14.02833,21.4139 8.42133,15.42623 4.5377,7.49089 11.6236,23.81935 21.60267,48.43372 90.09829,17.88293 68.49562,-30.55079 v 0 c -10.60829,-23.35243 -4.97912,-12.26833 -16.71956,-33.33704 -7.97943,-12.57921 -16.05392,-24.96839 -25.16561,-36.7703 -3.57243,-4.62719 -9.19852,-11.47223 -13.39541,-15.72701 -1.87716,-1.90306 -3.95582,-3.59625 -5.93374,-5.39437 -42.07004,-32.28949 -87.73428,27.20654 -45.66423,59.49603 z"/>
<path d="m 452.94879,445.27301 c 20.16115,-2.84553 39.82191,-8.3865 59.58942,-13.12028 7.4643,-1.7875 14.94672,-3.49847 22.42008,-5.24771 47.82277,-10.86306 96.2544,-19.39907 145.09145,-24.11426 9.78835,-0.94506 19.60574,-1.56022 29.40861,-2.34032 24.55232,-1.63477 49.18655,-1.81481 73.75008,-0.35375 9.59085,0.57047 22.02161,1.69343 31.74695,3.1997 3.19341,0.4946 6.34077,1.25082 9.51116,1.87623 1.95924,0.57314 3.91848,1.14629 5.87773,1.71943 51.17348,13.9203 70.85976,-58.44993 19.68628,-72.37023 v 0 c -3.87832,-1.0148 -7.75663,-2.02959 -11.63494,-3.04439 -4.75503,-0.87257 -9.48385,-1.90258 -14.26509,-2.6177 -11.57854,-1.73179 -26.4806,-3.05492 -37.94496,-3.70393 -27.5575,-1.56006 -55.18962,-1.32573 -82.72832,0.53511 -10.62177,0.85943 -21.25935,1.54182 -31.86531,2.57827 -51.74312,5.05652 -103.0615,14.08469 -153.73392,25.61133 -7.74759,1.81508 -15.50416,3.59224 -23.24277,5.44525 -16.22268,3.88451 -32.34353,8.26503 -48.76147,11.2836 -52.79518,5.01694 -45.70015,79.68059 7.09502,74.66365 z"/>
<path d="m 613.46092,375.26442 c -1.5605,24.09579 -2.11894,48.24117 -2.58828,72.37799 -0.66284,48.06902 -1.64445,96.13249 -2.50768,144.19805 -0.3886,49.56511 -2.53139,99.07489 -5.22636,148.55909 -1.14254,18.8169 -2.01967,37.65516 -1.79532,56.51221 0.0597,5.01741 0.29669,10.03114 0.44504,15.04671 1.63996,53.00764 76.60409,50.68839 74.96413,-2.31926 v 0 c -0.7101,-21.80457 -0.35213,-43.38672 1.27523,-65.1623 2.74291,-50.39379 4.91936,-100.8141 5.32519,-151.28986 0.86241,-48.03136 1.8442,-96.06062 2.50576,-144.09545 0.43963,-22.89512 0.96186,-45.7984 2.42377,-68.65554 3.65691,-52.90678 -71.16458,-58.07842 -74.82148,-5.17164 z"/>
<path d="m 541.6399,653.28062 c 16.69216,-4.88798 33.8634,-7.9788 51.11678,-10.06359 6.37685,-0.77053 12.77729,-1.33141 19.16594,-1.99712 35.02688,-2.82306 70.28576,-3.33045 105.36371,-1.0806 5.84249,0.37473 11.67126,0.9393 17.50689,1.40894 5.75666,0.59356 11.51333,1.18712 17.27,1.78068 52.7564,5.40945 60.40652,-69.19937 7.65012,-74.60882 v 0 c -6.32641,-0.6454 -12.65282,-1.2908 -18.97923,-1.93619 -6.60346,-0.51879 -13.19947,-1.14333 -19.81039,-1.55635 -38.91452,-2.4312 -78.02378,-1.83311 -116.87052,1.40633 -7.29266,0.77778 -14.59992,1.42917 -21.87799,2.33334 -20.95034,2.6027 -41.7764,6.49859 -62.04198,12.4631 -50.80582,15.20751 -29.29915,87.05779 21.50667,71.85028 z"/>
<path d="m 427.89371,867.8913 c 18.68194,-3.30632 37.69275,-4.34563 56.59123,-5.67284 48.7143,-3.43476 97.51466,-5.43798 146.32399,-6.87509 44.87708,-0.98308 89.78626,-2.20949 134.67685,-1.28234 7.59406,0.15685 15.1839,0.47558 22.77586,0.71337 17.66779,0.85093 35.38031,2.04229 52.82601,5.10878 9.25776,1.62728 11.3679,2.42781 19.7716,4.81576 51.13813,14.04962 71.0073,-58.27061 19.86917,-72.32024 v 0 c -4.35071,-1.16894 -8.66408,-2.48694 -13.05213,-3.50682 -25.2741,-5.87426 -51.23703,-7.86176 -77.0919,-9.0615 -8.09703,-0.24834 -16.19192,-0.58045 -24.29109,-0.745 -45.89744,-0.93247 -91.81319,0.29427 -137.69668,1.31063 -49.82872,1.47372 -99.6484,3.51683 -149.38007,7.02772 -21.7578,1.53609 -43.62448,2.84158 -65.1145,6.76654 -52.12864,9.75217 -38.33698,83.4732 13.79166,73.72103 z"/>
</svg>
