<?xml version="1.0" ?>
<svg xmlns="http://www.w3.org/2000/svg" viewBox="0 0 1000 1000">
<path d="m 97.840333,319.48797 c 20.419797,-4.40659 41.233727,-6.74225 61.919817,-9.5172 39.50684,-4.94199 79.00081,-10.18951 118.66197,-13.77431 7.12905,-0.64436 14.27046,-1.1439 21.40568,-1.71585 18.67127,-1.21791 37.49568,-2.38471 56.12677,-0.0912 52.69785,5.95283 61.11642,-68.57319 8.41857,-74.52602 v 0 c -2.97783,-0.31933 -5.9479,-0.72191 -8.93348,-0.958 -20.51597,-1.62229 -41.13422,-0.54848 -61.62838,0.81695 -7.61125,0.61484 -15.22889,1.15507 -22.83374,1.84452 -40.50506,3.67216 -80.8421,9.01342 -121.18961,14.06985 -23.09493,3.09847 -46.32218,5.75924 -69.089224,10.83645 -51.629277,12.12096 -34.487651,85.13578 17.141627,73.01482 z"/>
<path d="m 213.31548,118.90636 c 0.61273,29.79232 0.0829,59.59013 -0.3167,89.38126 -1.31391,76.88209 -1.65234,153.77511 -2.08728,230.66569 -0.12781,15.3429 -0.20327,30.68632 -0.38342,46.02869 -0.40371,34.38044 -0.86712,61.24691 -1.96786,95.66717 -1.52209,47.59579 -4.08179,95.13148 -6.70902,142.67552 -3.56417,61.21234 -7.04323,122.43012 -10.8325,183.62905 -3.27709,52.93166 71.57958,57.56617 74.85667,4.63451 v 0 c 3.79888,-61.36491 7.28891,-122.74859 10.86167,-184.12697 2.66567,-48.27502 5.25714,-96.54142 6.79801,-144.86902 1.11226,-34.88487 1.58181,-62.1565 1.99043,-96.98574 0.18077,-15.40913 0.25655,-30.81932 0.38482,-46.22897 0.43384,-76.69693 0.77045,-153.39629 2.08175,-230.08473 0.40356,-30.12587 0.94391,-60.25941 0.32343,-90.38646 0,-53.033004 -75,-53.033004 -75,0 z"/>
<path d="m 211.39899,294.857 c -8.81017,20.13532 -16.89596,40.59404 -25.29833,60.90718 -24.54628,58.42811 -54.63848,114.29884 -85.18897,169.74907 -21.788765,37.38847 -43.081911,75.12032 -66.49516,111.53286 -4.393494,6.83281 -8.986056,13.53555 -13.479085,20.30333 -29.3079703,44.1989 33.198715,85.64663 62.506686,41.44773 v 0 c 4.855106,-7.33001 9.814359,-14.59208 14.565318,-21.99001 24.139991,-37.58947 46.146201,-76.5066 68.596501,-115.11015 31.87957,-57.89631 63.23249,-116.25208 88.80284,-177.27305 2.7925,-6.75515 5.585,-13.5103 8.3775,-20.26545 2.03266,-5.08222 4.0178,-10.18371 6.09799,-15.24667 4.20856,-10.24319 9.08081,-20.26045 12.68489,-30.74521 0.68953,-2.00593 1.21836,-4.06355 1.82754,-6.09533 12.17235,-51.61718 -60.82537,-68.83148 -72.99772,-17.2143 z"/>
<path d="m 239.72896,409.04136 c 2.78363,1.55679 7.03261,3.58259 9.5384,4.86043 11.54369,5.88674 22.66077,12.30234 33.80107,18.91993 23.80992,14.2255 46.05497,30.80538 67.37273,48.49633 9.34294,8.08513 4.90823,4.17969 13.32101,11.69711 39.56667,35.31258 89.50621,-20.64313 49.93955,-55.95572 v 0 c -9.71104,-8.65776 -4.57901,-4.14991 -15.41715,-13.49958 -24.36557,-20.15079 -49.77377,-39.04922 -76.96958,-55.25326 -12.77368,-7.55922 -25.53013,-14.96383 -38.79667,-21.6311 -6.38106,-3.20688 -11.61251,-5.85461 -18.22663,-8.3477 -2.09997,-0.79155 -4.27385,-1.37111 -6.41077,-2.05667 -51.45632,-12.83537 -69.60828,59.93486 -18.15196,72.77023 z"/>
<path d="m 448.53365,289.67118 c 3.58881,11.61322 7.32239,23.16606 12.04607,34.38158 4.98014,11.82445 7.92069,17.2159 13.64208,28.61164 5.66321,10.85718 11.3646,21.6942 17.02414,32.55329 24.51137,47.02863 91.01991,12.36433 66.50854,-34.66431 v 0 c -5.50506,-10.56188 -11.04478,-21.10546 -16.56567,-31.65908 -4.23324,-8.34958 -7.09846,-13.66542 -10.77932,-22.2058 -4.82404,-11.19281 -8.07959,-22.90425 -12.0535,-34.40055 -19.36287,-49.37185 -89.1852,-21.98862 -69.82234,27.38323 z"/>
<path d="m 572.86586,290.35047 c 0.0743,0.23927 0.10286,0.49784 0.22278,0.7178 8.61906,15.80831 19.67168,30.14331 30.55791,44.41758 32.17924,42.15444 91.79462,-3.35387 59.61539,-45.50831 v 0 c -6.24734,-8.17534 -12.60371,-16.29724 -18.25696,-24.90461 -8.71417,-13.2678 -0.25453,-1.12335 -9.06007,-14.9203 -1.53413,-2.40375 -3.2249,-4.70386 -4.83736,-7.05578 -33.41336,-41.1831 -91.65505,6.07053 -58.24169,47.25362 z"/>
<path d="m 773.58637,202.888 c -3.70757,15.79584 -7.13305,31.68506 -11.84981,47.22575 -2.13449,7.03272 -4.57841,13.96779 -6.86762,20.95168 -8.4389,25.96144 -20.69112,50.37511 -32.37589,74.95617 -4.62343,9.72625 -9.20267,19.47344 -13.80401,29.21016 -22.65886,47.94869 45.15083,79.99314 67.80968,32.04446 v 0 c 4.5587,-9.64696 9.10141,-19.3015 13.67611,-28.94089 13.06922,-27.5383 26.59738,-54.96285 36.00821,-84.04708 2.63139,-8.12662 5.43337,-16.19997 7.89419,-24.37986 3.69451,-12.28073 6.03729,-22.27636 8.93888,-34.4988 1.71474,-7.22305 3.43771,-14.13427 4.64381,-21.43981 0.34969,-2.11812 0.51983,-4.262 0.77974,-6.393 3.31547,-52.92927 -71.53783,-57.61805 -74.85329,-4.68878 z"/>
<path d="m 541.66296,455.41489 c 0.2798,16.70655 -1.27829,33.36007 -4.13723,49.81468 -1.1951,6.87843 -2.6782,13.7037 -4.0173,20.55555 -7.19471,33.76086 -15.22077,67.36081 -25.09224,100.4486 -5.82362,19.51995 -7.89492,24.99272 -14.32938,43.79176 -7.7029,21.2878 -15.57282,42.5645 -24.79379,63.25299 -4.15973,9.081 -8.56361,18.75342 -5.73086,29.34504 2.21765,8.2918 7.03875,15.83732 12.28679,22.62924 2.74554,3.55324 7.39888,5.09025 11.09832,7.63538 2.39532,1.09357 4.76348,2.2487 7.18597,3.28071 3.64396,1.55238 11.96446,4.63431 15.43505,5.9944 12.04658,4.72094 23.93305,9.79745 35.81235,14.92108 27.92659,12.52297 54.59318,27.71281 80.13748,44.54004 4.98904,3.28652 9.88672,6.70965 14.83007,10.06447 21.07802,14.56431 41.70946,29.75599 62.37341,44.8972 42.77836,31.34505 87.10695,-29.15269 44.32859,-60.49773 v 0 c -21.40751,-15.68586 -42.78483,-31.41944 -64.63357,-46.49011 -5.509,-3.72699 -10.96654,-7.5312 -16.527,-11.18096 -28.9477,-19.00065 -59.1868,-36.09625 -90.82646,-50.20923 -17.2756,-7.43932 -34.59492,-14.84912 -52.29883,-21.21477 8.83997,7.40703 11.41878,8.28623 14.96661,24.49516 1.1474,5.2421 -0.8971,10.70082 -1.65325,16.01348 -0.1098,0.77148 -1.45814,2.7183 -0.93112,2.1443 1.468,-1.59887 0.83297,-4.58653 2.69205,-5.92923 10.0687,-22.73883 18.84202,-46.03907 27.22058,-69.4444 7.00669,-20.54404 9.17041,-26.25626 15.5107,-47.57319 10.45266,-35.1433 18.97857,-70.82282 26.57572,-106.68174 1.53917,-8.03998 3.26108,-16.04713 4.61751,-24.11995 3.35802,-19.98524 5.16116,-40.21304 4.89983,-60.48277 0,-53.03301 -75,-53.03301 -75,0 z"/>
<path d="m 707.9622,621.19416 c -6.90617,14.53385 -14.42195,28.75475 -22.71329,42.55031 -3.68021,6.12332 -7.52141,12.14843 -11.28211,18.22265 -26.61119,41.23788 -55.73355,81.12446 -89.65585,116.70515 -6.6392,6.96378 -13.66205,13.55143 -20.49308,20.32715 -14.97875,12.98704 -22.96505,20.87544 -39.38502,31.55701 -5.83882,3.79828 -12.13507,6.84214 -18.2026,10.26321 -45.89756,26.56903 -8.32328,91.47799 37.57429,64.90896 v 0 c 8.41702,-4.96369 17.11815,-9.47444 25.25107,-14.89109 20.01996,-13.33361 29.5093,-22.75545 47.67969,-38.68975 7.7601,-7.75201 15.73498,-15.29481 23.28029,-23.25604 36.91397,-38.94873 68.77106,-82.42615 97.75086,-127.49612 4.15089,-6.72762 8.39461,-13.39884 12.45267,-20.18286 9.0128,-15.06705 17.24794,-30.56922 24.79511,-46.41761 23.75947,-47.41295 -43.29256,-81.01392 -67.05203,-33.60097 z"/>
<path d="m 343.44956,679.60273 c 1.67925,-0.45964 3.36482,-0.89677 5.03775,-1.37891 9.70208,-2.79617 19.28832,-5.90725 29.07586,-8.41704 15.55458,-3.98861 20.23064,-4.78266 36.75039,-8.29329 64.15292,-12.83418 129.43001,-18.51803 194.56317,-23.62853 62.47756,-4.47416 125.26255,-5.69244 187.77971,-1.2285 10.46725,0.7474 20.90383,1.87549 31.35574,2.81323 24.21721,3.12095 48.72934,5.73082 72.34616,12.26573 5.77519,1.59803 11.36893,3.79122 17.05339,5.68682 50.45318,16.33941 73.56059,-55.01217 23.1074,-71.35158 v 0 c -7.88407,-2.4986 -15.66624,-5.34501 -23.65222,-7.4958 -26.87445,-7.23783 -54.67069,-10.38621 -82.20598,-13.80989 -11.31498,-0.99952 -22.61393,-2.20116 -33.94495,-2.99856 -65.82762,-4.63249 -131.93282,-3.37445 -197.71518,1.34909 -13.28149,1.04536 -26.57164,1.98613 -39.84449,3.1361 -55.11217,4.77497 -110.19948,11.10056 -164.48628,21.9115 -7.49145,1.60287 -15.00445,3.10819 -22.47436,4.80863 -16.82254,3.82948 -33.42078,8.4871 -49.88796,13.61623 -51.62924,12.12112 -34.48739,85.13589 17.14185,73.01477 z"/>
</svg>
