<?xml version="1.0" ?>
<svg xmlns="http://www.w3.org/2000/svg" width="1000" height="1000">
<path d="m 122.10928,323.14128 c 29.3863,-2.32121 58.73873,-5.0409 88.13034,-7.30856 42.6962,-3.00561 85.46405,-5.28337 128.27352,-5.63129 7.45594,-0.0606 14.91235,0.0297 22.36853,0.0446 7.31775,0.18965 14.6355,0.3793 21.95326,0.56895 53.01586,1.34843 54.92283,-73.62732 1.90697,-74.97575 v 0 c -7.91144,-0.1977 -15.82287,-0.39539 -23.73431,-0.59309 -7.94055,-0.011 -15.88137,-0.1 -23.82165,-0.033 -44.29374,0.37392 -88.54505,2.72531 -132.72146,5.84223 -29.24344,2.26072 -58.44972,4.94956 -87.6868,7.27563 -52.898836,3.77 -47.567241,78.58026 5.3316,74.81025 z"/>
<path d="m 222.47947,105.37266 c 1.41684,24.45328 1.08331,49.00011 1.10293,73.48655 -0.40415,78.42684 -0.26018,156.85404 -0.25963,235.28153 -0.16208,70.8371 -1.38539,141.66519 -1.75182,212.50093 -0.24452,47.26833 -0.16566,60.89963 -0.13144,108.008 -0.0821,48.51165 0.61318,97.02449 0.24512,145.53616 -0.0982,12.94737 -0.37502,25.89276 -0.56253,38.83915 -0.76375,53.02751 74.22847,54.10762 74.99223,1.08011 v 0 c 0.19007,-13.26923 0.46999,-26.53748 0.57022,-39.80769 0.36682,-48.56716 -0.32467,-97.13545 -0.24506,-145.70259 -0.0345,-46.8266 -0.1131,-60.42948 0.1295,-107.41215 0.3667,-71.01626 1.59631,-142.02485 1.75378,-213.04249 -6.5e-4,-78.44831 -0.14397,-156.89633 0.25961,-235.34399 -0.0176,-20.00104 0.0353,-25.20888 -0.17862,-44.21851 -0.0919,-8.17265 -0.22495,-19.07423 -0.63569,-27.492 -0.30912,-6.33522 -0.54221,-7.644812 -1.21041,-13.435702 -8.2892,-52.381192 -82.36739,-40.658496 -74.07819,11.722692 z"/>
<path d="m 215.37546,315.15562 c -0.37594,1.77095 -0.67476,3.56006 -1.12783,5.31287 -1.9742,7.63766 -3.84896,12.50705 -6.63561,20.35574 -5.73685,16.15801 -8.68213,24.50407 -15.36617,40.85989 -3.47605,8.50587 -7.18274,16.91565 -10.7741,25.37347 -24.69322,55.84078 -52.99324,110.01235 -83.043204,163.13787 -6.673794,11.79865 -13.527464,23.49464 -20.291195,35.24195 -33.197296,55.02011 -6.45133,11.25753 -39.445741,63.77665 -6.240907,9.93402 -12.385696,19.9281 -18.578543,29.89214 -27.9925443,45.04351 35.708594,84.63094 63.701138,39.58744 v 0 c 6.069435,-9.7675 12.092408,-19.56403 18.208305,-29.30251 33.83765,-53.88042 7.23491,-10.33537 41.11528,-66.5379 6.95234,-12.08088 13.99785,-24.10861 20.85704,-36.24262 31.33969,-55.44046 60.81998,-111.98985 86.5283,-170.28005 3.86762,-9.13702 7.86009,-18.22218 11.60285,-27.41105 6.36002,-15.61451 10.93307,-28.05039 16.41746,-43.72863 4.48125,-12.81056 6.05702,-17.01787 9.12007,-29.38917 0.62038,-2.50563 1.04382,-5.05596 1.56573,-7.58394 9.23633,-52.2225 -64.61744,-65.28466 -73.85378,-13.06215 z"/>
<path d="m 279.66133,438.19904 c 19.76961,8.1937 38.19655,19.20009 56.3248,30.47293 18.37313,12.12584 36.23864,24.99442 53.97104,38.0313 42.73578,31.40307 87.14643,-29.03446 44.41064,-60.43753 v 0 c -19.32983,-14.19702 -38.79605,-28.22613 -58.87927,-41.34766 -5.30952,-3.27975 -10.56264,-6.65263 -15.92857,-9.83926 -17.30437,-10.27644 -35.23098,-19.68546 -53.90129,-27.22989 -49.74504,-18.3829 -75.74239,51.96721 -25.99735,70.35011 z"/>
<path d="m 474.2127,306.12531 c 26.47326,-10.9461 54.36304,-17.972 82.0126,-25.22215 40.93652,-9.93669 82.47309,-17.69827 124.46329,-21.44255 6.92926,-0.61788 13.88099,-0.95069 20.82148,-1.42604 14.96578,-0.67774 29.98564,-0.86365 44.92564,0.42924 2.77631,0.24026 5.53419,0.65979 8.30128,0.98969 52.69847,5.94742 61.10939,-68.57946 8.41093,-74.52688 v 0 c -4.08505,-0.44342 -8.15915,-1.00318 -12.25516,-1.33026 -18.16656,-1.45068 -36.41762,-1.27342 -54.60668,-0.37963 -7.89767,0.56069 -15.80796,0.96555 -23.69302,1.68208 -45.68434,4.15143 -90.88491,12.59046 -135.41743,23.46395 -30.77196,8.09224 -61.75634,16.05591 -91.20599,28.28356 -49.12906,19.97086 -20.886,89.44985 28.24306,69.47899 z"/>
<path d="m 553.03263,434.8781 c 19.68258,-5.90636 39.33504,-11.85553 59.21109,-17.08661 22.32925,-5.38629 45.01134,-9.80874 67.98749,-11.1276 3.52011,-0.20206 7.04857,-0.21379 10.57286,-0.32069 11.94213,0.2801 6.19001,0.0205 17.25863,0.72729 52.93861,3.16293 57.41168,-71.70356 4.47307,-74.8665 v 0 c -15.51213,-0.88101 -7.40368,-0.57938 -24.32849,-0.81582 -4.7548,0.17994 -9.51545,0.24294 -14.26438,0.5398 -27.31074,1.70725 -54.2929,6.85839 -80.83243,13.34511 -19.83989,5.24623 -39.50971,11.03543 -59.12496,17.06394 -51.29428,13.46835 -32.24716,86.00943 19.04712,72.54108 z"/>
<path d="m 453.70468,641.72023 c 26.66189,-14.84314 55.66288,-24.99067 84.28886,-35.28834 45.22102,-15.75452 91.98765,-26.62723 139.21846,-34.30081 8.98161,-1.45924 18.00665,-2.63725 27.00997,-3.95587 29.49323,-4.06207 59.24194,-5.9902 89.00872,-5.75853 11.92011,0.0928 18.73503,0.49664 30.31827,1.02011 52.98043,2.36094 56.31929,-72.56471 3.33886,-74.92564 v 0 c -13.25631,-0.58325 -20.50483,-1.01335 -34.22213,-1.09234 -33.23004,-0.19135 -66.43795,2.00479 -99.35932,6.55499 -9.75325,1.44061 -19.52998,2.73032 -29.25974,4.32184 -51.40357,8.40819 -102.27296,20.39026 -151.48039,37.5781 -33.87145,12.22649 -68.19716,24.38486 -99.35431,42.71697 -44.63932,28.6327 -4.14656,91.76223 40.49275,63.12952 z"/>
<path d="m 538.1169,146.99746 c 1.34419,20.08057 4.27294,39.98068 8.31925,59.6917 1.72489,8.40253 3.71197,16.7491 5.56795,25.12365 2.16836,9.3877 4.34338,18.77386 6.50506,28.16309 2.44258,10.60927 4.79384,21.23982 7.30774,31.83242 6.71443,28.29208 11.36196,46.17477 18.60384,74.59478 11.21006,43.9928 9.71634,38.07402 21.22903,82.7887 3.84997,14.53953 7.64482,29.09378 11.54992,43.6186 8.57759,31.90382 15.37446,56.66956 24.76729,88.3578 7.88899,26.61476 18.2679,59.80207 26.93687,86.23063 4.46635,13.61631 9.1434,27.1626 13.71511,40.7439 16.04066,45.4277 32.73993,90.71812 52.6766,134.60907 9.75599,21.47801 12.49725,26.19152 22.93742,46.3741 8.44532,15.52447 17.54126,30.73538 28.19997,44.85739 3.9657,5.25426 10.10958,12.71245 15.03742,17.30271 2.76377,2.57444 5.83019,4.80349 8.74529,7.20524 19.74302,8.42937 24.75978,14.49481 49.52019,1.5563 7.91801,-4.13755 12.98429,-12.4728 17.9646,-19.88972 3.92372,-5.84339 5.90475,-12.79149 8.39957,-19.37303 2.59107,-6.83547 4.56728,-13.88845 6.84203,-20.83558 2.61883,-7.99794 5.2258,-15.99976 7.8387,-23.99964 6.82761,-20.49972 12.7255,-39.00969 20.5959,-59.21526 4.00691,-10.28686 8.51103,-20.37306 12.76654,-30.55959 20.37917,-48.9611 -48.86228,-77.78161 -69.24146,-28.82051 v 0 c -4.68928,11.3034 -9.638,22.50262 -14.06785,33.91019 -8.17047,21.04026 -14.25337,40.09893 -21.34677,61.39961 -2.83462,8.67888 -9.9264,30.22373 -13.11746,40.5042 -0.68804,2.21661 -4.19223,6.20287 -1.9234,6.69189 3.29215,0.70959 5.33589,-4.56872 8.63499,-5.24527 21.6967,-4.44942 18.89008,-3.75485 32.63413,4.25446 -1.45941,1.20852 -0.46104,0.56838 -3.53438,-2.84527 -1.69239,-1.87979 -3.31379,-3.82592 -4.85815,-5.8291 -8.58735,-11.13857 -15.73712,-23.2856 -22.50557,-35.58761 -9.40766,-18.10253 -11.96539,-22.4968 -20.78152,-41.85194 -19.08449,-41.89851 -34.98603,-85.17438 -50.33831,-128.5469 -4.45291,-13.21943 -9.00896,-26.40457 -13.35873,-39.6583 -8.42205,-25.66195 -18.63065,-58.27662 -26.29759,-84.12609 -9.25059,-31.18883 -15.88976,-55.38621 -24.34048,-86.81299 -3.86109,-14.35871 -7.61312,-28.74652 -11.41967,-43.11978 -11.69892,-45.43734 -9.77888,-37.86315 -21.17403,-82.57377 -6.95433,-27.2864 -11.74516,-45.72734 -18.19155,-72.89044 -2.52181,-10.62619 -4.88029,-21.29048 -7.33096,-31.93329 -2.1164,-9.19113 -4.24683,-18.37902 -6.37024,-27.56853 -3.75364,-16.80052 -5.69716,-24.35009 -8.46873,-40.61627 -1.76634,-10.36652 -2.72107,-20.73725 -3.62004,-31.19674 -0.13139,-1.52868 -0.28162,-3.05568 -0.42244,-4.58352 -5.56402,-52.740321 -80.1501,-44.871609 -74.58608,7.86871 z"/>
<path d="m 750.78753,625.05551 c -1.02102,1.88267 -1.95267,3.81664 -3.06307,5.64802 -4.7643,7.85772 -9.85972,14.93759 -15.62733,22.18135 -10.05533,12.62887 -20.45366,24.23891 -31.88427,35.7015 -7.42492,7.44571 -15.21957,14.51332 -22.82936,21.76997 -8.94177,7.65594 -17.72217,15.50449 -26.82532,22.96782 -18.88857,15.48603 -42.43633,33.24257 -62.14472,47.57069 -21.85911,15.8917 -39.15807,28.04736 -62.10474,42.18818 -10.0025,6.16401 -20.29897,11.83774 -30.44846,17.7566 -45.78021,26.77073 -7.92069,91.51373 37.85953,64.743 v 0 c 11.1562,-6.53998 22.47126,-12.81623 33.46862,-19.61995 24.16935,-14.95281 43.05462,-28.196 66.03236,-44.9238 21.08643,-15.35091 46.06457,-34.22149 66.20343,-50.81909 10.12252,-8.34256 19.87815,-17.12056 29.81722,-25.68084 8.58497,-8.24326 17.3864,-16.26686 25.7549,-24.7298 22.09925,-22.34865 43.03236,-46.66243 58.94367,-73.88485 1.7445,-2.98464 3.21634,-6.1205 4.8245,-9.18074 22.40684,-48.06697 -45.57011,-79.75503 -67.97696,-31.68806 z"/>
<path d="m 818.52762,116.43088 c 12.76187,6.36385 24.68436,14.31704 35.98563,22.98861 4.193,3.21733 8.23892,6.62194 12.35838,9.93291 4.08205,3.83258 8.16411,7.66515 12.24616,11.49773 38.88139,36.06574 89.88604,-18.92085 51.00466,-54.98659 v 0 c -5.47545,-5.03281 -10.9509,-10.065613 -16.42635,-15.098418 -5.07865,-4.040401 -10.06572,-8.198674 -15.23596,-12.121203 -17.07687,-12.955803 -35.31926,-24.858764 -55.20574,-33.019722 -50.06788,-17.484475 -74.79466,53.322207 -24.72678,70.806683 z"/>
</svg>
