<?xml version="1.0" ?>
<svg xmlns="http://www.w3.org/2000/svg" viewBox="0 0 1000 1000">
<path d="m 382.56522,141.99413 c 25.3373,-3.75171 50.79513,-6.55464 76.27886,-9.08367 38.93016,-3.7489 78.02356,-5.18951 117.11945,-5.14581 11.57696,0.52439 23.74151,0.004 35.08924,1.73446 -2.04217,-0.5299 -4.26203,-0.60232 -6.12652,-1.58971 -12.79955,-6.77837 -15.26023,-9.51057 -21.03315,-23.68137 -1.07051,-2.62777 -0.7671,-5.62431 -1.03963,-8.448651 -0.078,-0.808102 0.78752,-2.28691 -0.0106,-2.435543 -0.82357,-0.153369 -0.7964,1.474069 -1.19459,2.211103 -10.68278,21.748281 -22.71636,42.872431 -36.45277,62.847691 -4.32619,6.29107 -8.92105,12.3931 -13.38157,18.58965 -13.61733,16.94839 -17.95138,23.24625 -33.56504,38.88303 -20.46075,20.49105 -43.41307,38.78333 -67.83196,54.33747 -8.58489,5.46834 -17.57893,10.26613 -26.36839,15.3992 -25.60171,13.36642 -52.24516,24.86371 -79.91007,33.25483 -7.89822,2.39563 -15.96666,4.18916 -23.94999,6.28374 -51.24419,13.6577 -31.9293,86.12793 19.3149,72.47024 v 0 c 9.69509,-2.6171 19.49099,-4.88585 29.08526,-7.85131 32.40152,-10.01487 63.601,-23.62485 93.51954,-39.53194 10.41427,-6.1765 21.06999,-11.96293 31.24282,-18.52951 28.94255,-18.68246 55.99481,-40.62059 80.18212,-65.15083 18.21654,-18.47483 23.40064,-25.99961 39.22416,-45.85099 5.10015,-7.13237 10.35331,-14.15777 15.30045,-21.39711 16.35766,-23.93682 30.75333,-49.25771 43.06431,-75.49827 2.84696,-7.50479 5.91476,-13.9349 6.497,-22.10609 0.92796,-13.023082 -1.21121,-22.12394 -10.09442,-33.055644 -7.39696,-9.102715 -13.81046,-10.027287 -23.38221,-12.998895 -15.89164,-2.538929 -32.0704,-2.505719 -48.11972,-2.885533 -41.59329,-0.02016 -83.18423,1.50444 -124.59985,5.513858 -26.90396,2.680296 -53.78287,5.640548 -80.5293,9.629353 -52.38689,8.253126 -40.71521,82.339371 11.67168,74.086251 z"/>
<path d="m 446.89772,242.43345 c 15.52191,8.39818 30.08385,18.53467 44.02145,29.33299 5.17957,4.01293 10.19783,8.22985 15.29674,12.34478 23.38282,19.96899 46.41221,40.99837 64.39605,66.13363 2.09909,2.93381 3.92949,6.05086 5.89424,9.07628 1.31863,2.4195 2.63727,4.839 3.9559,7.2585 25.95613,46.24694 91.35918,9.53944 65.40305,-36.7075 v 0 c -2.284,-3.99945 -4.56801,-7.9989 -6.85201,-11.99834 -3.0476,-4.53372 -5.92686,-9.18526 -9.14281,-13.60116 -21.63338,-29.70543 -48.70176,-54.9713 -76.64944,-78.60395 -5.92349,-4.75032 -11.75376,-9.61928 -17.77046,-14.25096 -18.65349,-14.35953 -38.25884,-27.8845 -59.50378,-38.13019 -48.89356,-20.5407 -77.94249,48.60523 -29.04893,69.14592 z"/>
<path d="m 205.3346,453.65078 c 29.1442,-3.34014 58.35108,-6.08219 87.55641,-8.82557 37.83503,-3.75533 75.78243,-5.88276 113.78151,-6.87105 9.14875,0.24186 18.39074,-0.90149 27.53375,-0.0929 0.0418,0.004 -0.0446,0.0985 -0.0861,0.0918 -1.65591,-0.26486 -3.30014,-0.59824 -4.9502,-0.89736 -25.59336,-15.97449 -23.69734,-8.68316 -21.60452,-53.60339 0.17919,-3.84616 4.89243,-5.9491 7.22553,-9.01206 0.23209,-0.3047 -0.6188,0.45389 -0.9026,0.71112 -1.67758,1.52049 -3.42363,2.97476 -4.97916,4.6199 -2.09029,2.2107 -3.9606,4.61948 -5.94091,6.92922 -1.9514,2.88842 -3.99774,5.71494 -5.85422,8.66528 -1.90543,3.02813 -3.61932,6.17265 -5.42572,9.26089 -3.68522,6.30028 -9.55464,16.42522 -13.1891,22.37993 -9.57052,15.68034 -8.9103,14.26618 -19.7219,30.15011 -25.81048,34.9903 -55.93572,66.7892 -89.23369,94.74583 -7.30757,6.13536 -14.92736,11.88895 -22.39104,17.83343 -21.2023,15.59029 -44.11174,28.59657 -68.19314,39.17203 -15.80338,6.94013 -26.49448,10.42323 -42.51549,16.09985 -49.960151,17.78999 -24.80132,88.44431 25.15883,70.65432 v 0 c 19.26475,-6.88941 30.78534,-10.63205 49.92831,-19.19614 29.14609,-13.03923 56.83786,-29.04532 82.44746,-48.14399 8.44346,-6.76959 17.06474,-13.32318 25.33039,-20.30878 37.96277,-32.08367 72.26008,-68.56568 101.52928,-108.74427 4.11311,-6.07781 8.33118,-12.08589 12.33932,-18.23342 9.99712,-15.33322 19.08724,-31.26155 28.11021,-47.1775 -0.18647,-1.70675 -3.38187,3.67603 2.07036,-2.26689 3.17171,-3.45715 8.75037,-5.99897 9.1778,-10.67111 4.1538,-45.40462 4.00458,-38.92738 -21.85017,-55.7119 -2.58221,-0.57827 -5.13911,-1.28423 -7.74664,-1.7348 -2.88442,-0.49842 -8.1565,-0.70105 -11.04234,-0.7624 -9.06138,-0.19267 -18.12479,0.16422 -27.18406,0.26878 -39.68658,1.04224 -79.32095,3.25929 -118.83695,7.17425 -29.195,2.74316 -58.39384,5.46969 -87.52636,8.82276 -52.8025,4.93921 -45.8174,79.61322 6.9851,74.67401 z"/>
<path d="m 246.18056,528.16267 c 14.13071,6.07571 28.22683,12.21757 41.67741,19.72016 4.12305,2.29979 8.14114,4.7829 12.2117,7.17434 22.22065,13.84587 40.70387,32.46302 58.03619,51.86776 4.49722,5.1205 8.82589,10.3837 13.13326,15.66337 33.54085,41.07933 91.6358,-6.3546 58.09495,-47.43393 v 0 c -5.03932,-6.16769 -10.10552,-12.31454 -15.37762,-18.28653 -7.46645,-8.30726 -10.82796,-12.24554 -18.98674,-20.41334 -17.34041,-17.35958 -36.12689,-33.30844 -57.08631,-46.16709 -5.06556,-2.94238 -10.06909,-5.99426 -15.19669,-8.82716 -15.04051,-8.30961 -30.72927,-15.26171 -46.50103,-22.03398 -48.60397,-21.21683 -78.6091,47.51957 -30.00512,68.7364 z"/>
<path d="m 553.68897,435.10494 c 18.50521,-4.6678 37.54302,-6.66964 56.49242,-8.5432 21.64295,-2.08791 43.38785,-2.44339 65.10363,-1.72511 4.60931,0.17982 9.21578,0.42317 13.82021,0.69933 4.04006,0.24232 3.47739,0.37601 -2.43653,-0.67026 -9.05578,-10.48265 -22.54667,-18.38876 -27.16735,-31.44795 -2.99363,-8.46074 4.92021,-17.27456 6.8249,-26.04485 0.17232,-0.79347 -1.08197,1.21327 -1.57262,1.86021 -1.7161,2.26273 -3.485,4.49227 -5.04501,6.86531 -6.28282,9.55724 -7.17427,12.23819 -12.50747,22.96815 -13.38936,29.04706 -26.44294,58.35428 -42.81839,85.88819 -3.99201,6.71221 -8.316,13.22134 -12.47399,19.83201 -12.8077,19.5644 -27.61276,37.66657 -43.85146,54.46736 -9.21194,9.53082 -19.72905,19.68039 -30.3359,27.75377 -4.8415,3.68509 -10.07031,6.83146 -15.10546,10.24719 -43.57751,30.22417 -0.83408,91.85207 42.74343,61.6279 v 0 c 7.0213,-4.94629 14.28562,-9.56445 21.06388,-14.83888 12.61787,-9.81846 26.0165,-22.70271 37.02389,-34.22353 19.25753,-20.15578 36.80978,-41.85065 52.02716,-65.22902 4.79397,-7.68501 9.77283,-15.25772 14.38191,-23.05503 17.01363,-28.78246 30.86787,-59.25837 44.76675,-89.61729 2.40082,-5.09713 3.42604,-7.67646 6.05916,-12.14896 6.57057,-11.16049 19.48266,-14.22718 13.37036,-34.54565 -4.08419,-13.57666 -18.19734,-21.74583 -27.29601,-32.61875 -2.28173,-0.46941 -4.54814,-1.02061 -6.84517,-1.40824 -1.55276,-0.26203 -4.7436,-0.43326 -6.4458,-0.53482 -5.24749,-0.3131 -10.49739,-0.58729 -15.75057,-0.78681 -25.01001,-0.79653 -50.05324,-0.36786 -74.97622,2.05593 -23.69891,2.3813 -47.51503,5.04292 -70.55664,11.32278 -50.80578,15.20767 -29.29889,87.05788 21.50689,71.85022 z"/>
<path d="m 544.28062,530.10605 c 14.99927,7.00573 30.48758,12.87969 45.18823,20.5376 4.61997,2.40666 9.13371,5.01197 13.70056,7.51795 26.13884,14.61521 49.17856,33.74039 70.80235,54.28535 9.92464,9.68603 19.57499,19.66373 28.52568,30.26146 5.29783,6.97924 11.01282,13.40582 18.41614,18.31499 3.39569,2.25169 7.13904,3.92905 10.70855,5.89358 3.91563,1.60415 7.78681,3.32142 11.7469,4.81245 14.91597,5.61606 30.33435,9.9392 45.61257,14.425 30.07996,8.8317 6.47901,1.75763 36.77027,10.9254 5.52294,1.78226 11.04587,3.56452 16.56881,5.34679 50.47587,16.26919 73.48398,-55.11447 23.00811,-71.38366 v 0 c -5.95275,-1.91654 -11.90551,-3.83308 -17.85826,-5.74962 -27.40502,-8.28839 -55.13156,-15.65015 -82.08412,-25.34631 -0.28598,0.0207 -0.95141,-0.20898 -0.85795,0.0621 0.25832,0.7492 1.04167,1.19687 1.51196,1.83471 0.0289,0.0392 -0.0283,0.16857 -0.0613,0.13273 -2.25289,-2.44622 -4.00728,-5.33527 -6.27501,-7.76971 -10.75821,-12.65437 -22.23086,-24.67598 -34.16915,-36.2231 -9.64997,-9.10943 -12.53941,-12.0627 -22.93897,-20.89252 -19.78242,-16.7964 -40.89048,-32.00153 -63.50905,-44.76985 -5.57433,-3.02629 -11.08635,-6.17031 -16.72301,-9.07888 -14.53442,-7.4999 -29.68191,-13.59824 -44.6022,-20.24843 -47.45533,-23.6747 -80.93641,43.43728 -33.48107,67.11198 z"/>
<path d="m 267.73415,769.87025 c 20.07811,-8.49285 41.68558,-12.44613 62.92543,-16.81973 55.56382,-11.02103 112.30393,-13.35276 168.76461,-15.27336 36.79281,-0.76403 73.63935,-0.59048 110.38436,1.62357 16.79365,1.01189 21.93614,1.65735 37.97955,3.23713 10.6629,1.33248 13.61691,1.54588 23.46228,3.27555 4.2397,0.74485 8.59804,1.54079 12.66804,3.00117 50.64835,15.72403 72.88549,-55.90354 22.23714,-71.62758 v 0 c -16.63408,-4.95255 -33.82545,-7.4742 -51.06445,-9.29274 -17.75565,-1.72705 -23.14393,-2.40443 -41.70348,-3.50809 -38.79139,-2.30676 -77.68745,-2.49783 -116.52762,-1.66517 -60.70155,2.08775 -121.67653,4.80019 -181.38794,16.78335 -26.57422,5.51593 -53.48205,10.8529 -78.45812,21.84609 -48.3801,21.72246 -17.65991,90.14227 30.7202,68.41981 z"/>
<path d="m 445.9897,566.48079 c 3.36357,22.32753 4.26955,44.93224 5.14353,67.46365 1.28059,55.34764 -3.47609,110.58845 -7.64756,165.72387 -3.16379,42.49451 -7.08915,84.92501 -11.54947,127.3013 -5.5489,52.74192 69.03943,60.58925 74.58834,7.84734 v 0 c 4.53314,-43.10574 8.53032,-86.26579 11.74747,-129.49148 4.38646,-57.99885 9.30414,-116.11297 7.80305,-174.33434 -1.02644,-25.67908 -2.13124,-51.43922 -6.11028,-76.86703 -8.7375,-52.30828 -82.71257,-39.95159 -73.97508,12.35669 z"/>
<path d="m 431.38259,711.33082 c -21.59009,22.92587 -46.91227,41.77331 -71.8531,60.81795 -35.03755,26.42574 -70.98484,51.65684 -107.70074,75.6972 -8.65468,5.6668 -17.42537,11.15441 -26.13806,16.73162 -44.65882,28.60226 -4.20912,91.75938 40.44971,63.15712 v 0 c 9.12848,-5.84938 18.31652,-11.60683 27.38544,-17.54812 38.0273,-24.91268 75.25213,-51.06641 111.5428,-78.44599 28.11222,-21.49857 56.49299,-42.94853 80.78228,-68.85203 36.45683,-38.51493 -18.0115,-90.07268 -54.46833,-51.55775 z"/>
<path d="m 469.9319,762.90495 c 10.9419,12.631 21.81069,25.30251 33.04317,37.68095 20.13383,22.68463 42.06001,43.64768 64.03219,64.51969 9.09887,8.50205 18.23631,17.01695 28.24268,24.4592 5.3387,3.97066 6.4174,4.5108 11.98079,8.03569 15.13551,8.83238 31.40757,15.37266 47.70974,21.67726 17.54865,6.47645 35.33161,12.28971 53.40788,17.11887 8.05986,2.15323 16.1913,4.02899 24.28695,6.04349 51.47632,12.75493 69.51452,-60.04358 18.0382,-72.79852 v 0 c -7.21631,-1.77954 -14.46325,-3.4392 -21.64894,-5.33862 -15.94684,-4.21529 -31.6249,-9.32599 -47.10615,-15.00516 -11.90947,-4.57397 -23.78952,-9.25041 -35.02196,-15.34974 -10.50716,-6.30129 -19.29713,-14.93522 -28.23649,-23.22076 -20.63605,-19.60063 -41.27026,-39.24646 -60.16487,-60.56489 -11.18664,-12.30564 -21.94707,-24.95806 -32.87212,-37.49195 -35.52114,-39.37954 -91.21222,10.85495 -55.69107,50.23449 z"/>
</svg>
