<?xml version="1.0" ?>
<svg xmlns="http://www.w3.org/2000/svg" viewBox="0 0 1000 1000">
<path d="m 148.55861,354.10649 c 27.43933,-8.19511 55.74487,-13.12082 84.09806,-16.87912 8.59311,-1.13904 17.2194,-2.01189 25.82911,-3.01784 34.82944,-3.10053 70.32127,-5.17893 105.03032,0.46738 3.5211,0.5728 6.9841,1.45853 10.47614,2.18779 2.37977,0.69464 4.75953,1.38928 7.13929,2.08393 51.10684,14.16302 71.13638,-58.11296 20.02955,-72.27598 v 0 c -4.17025,-1.12054 -8.3405,-2.24107 -12.51075,-3.36161 -5.27734,-1.01834 -10.5199,-2.23726 -15.83202,-3.05502 -40.72397,-6.26911 -82.24636,-4.37733 -123.08947,-0.53351 -9.38992,1.11015 -18.79809,2.07566 -28.16978,3.33045 -31.70999,4.24571 -63.32956,9.91843 -94.02448,19.06054 -50.906727,14.86624 -29.882697,86.85922 21.02403,71.99299 z"/>
<path d="m 245.37137,133.09326 c 4.23513,27.99823 5.60786,56.30591 7.0911,84.55 3.87537,82.87378 3.79891,165.85232 3.39277,248.7931 -0.87418,98.39134 -3.06106,196.76249 -3.91269,295.15392 -0.31631,45.77558 -0.40641,91.55213 -0.27735,137.32846 0.15008,53.03279 75.14978,52.82055 74.9997,-0.21224 v 0 c -0.12921,-45.48943 -0.0382,-90.97908 0.27484,-136.46777 0.85064,-98.4856 3.04852,-196.95081 3.91461,-295.43641 0.41029,-84.38082 0.4697,-168.80003 -3.4961,-253.11166 -1.75042,-33.01384 -3.17822,-66.25586 -9.23576,-98.8258 -12.88942,-51.442806 -85.64054,-33.214411 -72.75112,18.2284 z"/>
<path d="m 255.97156,339.90798 c -10.08603,17.38641 -17.79535,36.00641 -26.76713,53.96271 -4.16984,8.34559 -8.41321,16.65679 -12.84405,24.86678 -5.39286,9.99255 -11.08204,19.82231 -16.62305,29.73347 -20.7909,37.08626 -43.31362,73.15106 -66.07535,109.04626 -16.8363,26.55082 -32.52237,51.09519 -49.932772,77.25488 -7.950789,11.94631 -16.095197,23.76263 -24.142796,35.64394 -7.617901,10.99629 -15.235803,21.99257 -22.853704,32.98885 -30.198286,43.59545 31.454995,86.30228 61.653281,42.70683 v 0 c 7.767131,-11.21417 15.534261,-22.42833 23.301381,-33.64249 8.26595,-12.20929 16.63027,-24.35254 24.79783,-36.62786 17.5288,-26.34465 33.70145,-51.63458 50.64583,-78.36568 23.46114,-37.01178 46.66099,-74.20717 68.09212,-112.44509 5.93103,-10.63766 12.02133,-21.18806 17.7931,-31.91296 4.76826,-8.86021 9.32657,-17.83313 13.82273,-26.83448 8.19222,-16.40086 15.21139,-33.4199 24.3488,-49.33673 26.19012,-46.11483 -39.02609,-83.15326 -65.21622,-37.03843 z"/>
<path d="m 287.38149,443.50105 c 0.32928,0.28592 0.62831,0.61095 0.98783,0.85777 2.16681,1.48753 4.41127,2.85954 6.5831,4.33973 6.97287,4.75232 13.31662,9.30439 20.04717,14.47518 12.36645,9.50061 12.62341,10.02059 24.55802,20.31248 15.25061,14.42897 30.64675,28.9059 44.2392,44.95348 2.97666,3.51432 5.73488,7.20798 8.60232,10.81197 33.20341,41.35255 91.68475,-5.60417 58.48134,-46.95672 v 0 c -3.79617,-4.69507 -7.46856,-9.49299 -11.38851,-14.08522 -15.7187,-18.41446 -33.39484,-35.12154 -51.06541,-51.61663 -4.88404,-4.1813 -9.68728,-8.45885 -14.65211,-12.5439 -17.01688,-14.00143 -34.94677,-27.09316 -53.99719,-38.1907 -47.83051,-22.90725 -80.22627,44.7353 -32.39576,67.64256 z"/>
<path d="m 459.79329,95.211097 c 0.69841,17.987773 1.06383,36.084503 0.0937,54.072903 -0.35485,6.57994 -1.05111,13.13702 -1.57666,19.70553 -1.04332,7.05408 -1.87785,14.14222 -3.12996,21.16225 -2.38088,13.34845 -6.71292,31.56881 -10.04127,44.6407 -3.73678,14.67601 -7.70286,29.02534 -12.31331,43.44798 -1.96823,6.15713 -4.1805,12.23357 -6.27075,18.35035 -6.51556,18.60769 -15.111,36.31663 -24.79877,53.44375 -8.9217,21.04353 -14.8304,29.06932 21.42226,56.46965 8.78206,6.63761 21.99859,-2.04458 32.69835,-4.63255 3.10815,-0.75177 5.35662,-3.49432 8.0471,-5.22263 10.46783,-6.72431 6.69833,-4.3504 18.66133,-11.19329 4.76217,-2.36699 9.44754,-4.89522 14.2865,-7.10097 13.45028,-6.13105 28.72033,-12.02714 42.54547,-16.95238 16.73646,-5.96239 35.01508,-11.90932 52.20939,-16.3689 9.25184,-2.3996 18.63033,-4.28129 27.9455,-6.42193 44.73925,-8.83348 90.40115,-13.58916 136.03577,-12.09285 7.23475,0.23722 14.45181,0.85831 21.67772,1.28746 18.57691,1.90416 37.45077,3.6756 55.39439,9.18162 1.80841,0.55492 3.56135,1.2767 5.34203,1.91504 50.20048,17.10004 74.38359,-53.89417 24.1831,-70.99421 v 0 c -3.44101,-1.14034 -6.84249,-2.40777 -10.32305,-3.42103 -22.86797,-6.65735 -46.66902,-9.42658 -70.31285,-11.55899 -8.4801,-0.46936 -16.95092,-1.15782 -25.44031,-1.40808 -51.50928,-1.51843 -103.03868,3.87747 -153.50349,14.03072 -10.6674,2.49441 -21.4054,4.70411 -32.00219,7.48323 -18.7787,4.92492 -39.44622,11.65165 -57.74066,18.21871 -16.66381,5.98173 -33.57322,12.60423 -49.65314,20.0703 -6.1259,2.84432 -12.05425,6.09609 -18.08137,9.14413 -4.45983,2.58338 -8.96641,5.08769 -13.37949,7.75014 -3.16461,1.90924 -6.25606,3.93792 -9.34855,5.96188 -1.12593,0.73689 -4.64894,2.26749 -3.3043,2.31909 8.9954,0.34523 20.35317,-7.51535 26.96919,-1.41087 33.04965,30.49439 30.1471,33.49143 20.96549,51.84751 11.96805,-21.19272 22.46335,-43.17561 30.50711,-66.1859 2.37159,-6.99662 4.87673,-13.94939 7.11477,-20.98986 4.9322,-15.51578 9.39331,-31.63918 13.3839,-47.41461 4.00658,-15.83864 8.60025,-35.43705 11.35811,-51.50138 1.48467,-8.64808 2.44822,-17.37758 3.67233,-26.06637 0.59233,-7.87448 1.36819,-15.73731 1.777,-23.62346 0.54693,-10.55022 0.56211,-26.26471 0.47169,-37.09813 -0.0645,-7.73189 -0.19311,-16.76444 -0.80604,-24.57185 -0.18787,-2.393134 -0.56667,-4.767435 -0.85001,-7.151153 -9.10644,-52.245313 -82.99247,-39.366864 -73.88603,12.87845 z"/>
<path d="m 500.61955,436.27487 c 0.1197,22.52304 -0.29385,45.07849 -2.42008,67.51704 -0.75975,8.01777 -1.83616,16.00237 -2.75423,24.00355 -8.69189,60.64669 -21.45618,120.60869 -35.04311,180.3173 -8.66667,36.88333 -18.52554,73.47526 -28.90475,109.90982 -6.14148,21.40237 -13.05325,38.92688 9.32663,59.07816 7.52334,6.77417 19.57399,5.17876 29.36098,7.76814 3.87979,-0.81711 7.78829,-1.50816 11.63938,-2.45135 3.01381,-0.73813 5.95357,-1.75176 8.94131,-2.58918 7.35772,-2.06227 15.55577,-4.27021 22.97463,-5.84829 14.13072,-3.00577 17.23149,-3.13686 32.04237,-5.16882 26.01523,-2.73038 52.27528,-1.83836 78.16097,1.74846 16.53353,2.29095 24.0557,4.12074 40.35834,7.48423 26.68068,5.78937 52.78464,13.74084 78.58485,22.59086 50.17154,17.18478 74.47449,-53.76849 24.30295,-70.95327 v 0 c -28.83691,-9.86417 -58.02318,-18.69916 -87.84657,-25.11385 -19.14915,-3.89327 -27.75454,-5.97653 -47.30744,-8.57014 -32.03639,-4.24949 -64.50957,-5.06965 -96.65277,-1.46177 -6.96432,0.99124 -13.95414,1.81736 -20.89296,2.97371 -12.32132,2.05335 -21.31949,4.1275 -33.20801,7.17167 -3.84825,0.98538 -7.67139,2.06696 -11.49578,3.14121 -2.30006,0.64607 -4.66063,1.12722 -6.87681,2.01953 -0.37381,0.15051 0.78476,0.18357 1.17713,0.27535 7.79515,2.75188 17.73883,2.21802 23.38544,8.25564 21.42315,22.90663 13.86671,21.0832 11.92658,35.43956 -0.12401,0.91761 0.43352,-1.80068 0.67522,-2.69453 0.58515,-2.16399 3.19805,-11.29855 3.55537,-12.55263 10.74214,-37.72903 20.9472,-75.62029 29.90464,-113.8166 14.19231,-62.40971 27.51238,-125.09268 36.43419,-188.50609 1.01458,-9.04917 2.20341,-18.08049 3.04372,-27.14751 2.24315,-24.2037 2.72912,-48.52828 2.60781,-72.8202 0,-53.03301 -75,-53.03301 -75,0 z"/>
<path d="m 541.23071,486.56348 c 26.68982,1.37982 52.98843,-5.25038 78.86363,-10.88325 26.44894,-5.757 52.88261,-11.65549 79.50322,-16.58305 14.63566,-2.7091 18.01027,-3.10542 32.25386,-5.25621 14.02161,-1.55863 28.10766,-4.1974 42.27462,-3.85643 -3.28298,-0.0509 -7.07125,-0.79159 -9.95326,-2.35819 -3.97128,-2.15871 -8.0231,-4.46782 -11.12047,-7.75983 -6.94087,-7.37705 -7.0918,-10.18497 -9.13952,-17.85294 -0.61921,16.35527 -1.31077,32.8159 -2.11433,49.19525 -1.48021,26.2416 -3.6982,52.45171 -7.06098,78.52292 -2.27331,17.62471 -4.25559,29.60224 -6.99891,47.25501 -5.10832,32.60394 -11.62653,64.98143 -20.03927,96.89732 -5.15431,19.55423 -7.94552,28.38357 -13.71169,47.77355 -11.40913,36.67983 -24.18915,73.06562 -39.94294,108.13517 -2.59512,5.777 -5.4452,11.43606 -8.16779,17.15408 -5.48464,9.82184 -9.406,17.63743 -16.02628,26.63558 -2.13619,2.90346 -4.37635,5.7785 -7.03447,8.2132 -1.78556,1.63548 -4.10074,2.57608 -6.15112,3.86412 -41.41536,33.12502 5.43049,91.6952 46.84586,58.57017 v 0 c 5.77836,-4.97357 12.0012,-9.47318 17.33507,-14.92071 4.49559,-4.59138 8.28876,-9.8391 12.02622,-15.06619 8.72976,-12.20918 13.52228,-21.94008 20.774,-35.16637 3.143,-6.65389 6.42209,-13.24519 9.429,-19.96168 16.86268,-37.66596 30.58217,-76.71772 42.80707,-116.0994 6.12376,-20.63368 9.10984,-30.09415 14.58373,-50.96525 8.94821,-34.11814 15.9256,-68.71625 21.385,-103.55909 2.96039,-19.09135 4.93314,-30.97045 7.38248,-50.07892 3.55535,-27.73698 5.91136,-55.61906 7.47526,-83.5353 0.9879,-20.21046 0.55855,-10.51043 1.30557,-29.01106 0.35195,-8.71664 0.95987,-17.50048 0.73742,-26.23103 -0.0541,-2.12132 -0.23288,-4.23762 -0.34931,-6.35643 -2.19391,-10.76149 -1.93096,-14.78829 -10.5017,-24.56527 -8.50823,-9.70567 -20.61693,-13.27091 -32.88778,-13.72346 -18.23726,-0.11974 -36.36423,2.22635 -54.40293,4.69844 -15.88832,2.41723 -19.13106,2.78636 -35.41458,5.80476 -27.14809,5.03232 -54.10903,11.03635 -81.08302,16.90985 -18.55579,4.05528 -37.3088,9.01746 -56.39855,9.44137 -52.8345,-4.58425 -59.31762,70.13502 -6.48311,74.71927 z"/>
<path d="m 612.98518,473.01236 c -0.34412,25.65894 -4.86719,51.07903 -8.67866,76.38962 -5.95494,35.53796 -9.78396,71.43478 -16.7043,106.81415 -4.3952,22.46992 -6.72347,30.10472 -12.44502,52.21499 -6.6135,23.42622 -12.19682,47.29839 -21.76495,69.77486 -2.65541,6.23781 -5.92734,12.19477 -8.891,18.29215 -22.81257,47.87574 44.89395,80.13759 67.70652,32.26185 v 0 c 3.85438,-8.21135 8.07207,-16.26179 11.56314,-24.63406 10.36975,-24.86869 16.82403,-51.09747 24.01413,-76.98126 6.49176,-25.293 8.70407,-32.37683 13.71651,-58.12657 6.99441,-35.93152 10.95928,-72.36712 16.97054,-108.45956 2.32043,-15.44131 4.56655,-29.6195 6.46151,-45.0788 1.71892,-14.02314 3.08395,-28.12761 3.01809,-42.27181 -0.0109,-2.33538 -0.18393,-4.66719 -0.27589,-7.00078 -4.81202,-52.81424 -79.50264,-46.00902 -74.69062,6.80522 z"/>
<path d="m 368.04754,694.92024 c 8.87242,-2.25729 5.84472,-1.43703 17.0921,-4.6151 15.69793,-4.43564 19.76798,-5.77151 36.6078,-10.1133 24.84654,-6.40614 29.32865,-7.19845 55.48448,-13.11389 49.24256,-10.50949 98.91498,-19.29525 148.99758,-24.6964 34.57141,-3.72835 42.41217,-3.69608 76.70462,-5.53451 40.60408,-1.55359 81.25547,0.006 121.67519,4.01451 17.56965,1.74248 21.87554,2.48345 38.38717,4.77048 9.30889,1.30246 18.5386,3.03599 27.69066,5.1581 51.71238,11.76138 68.34548,-61.37096 16.6331,-73.13234 v 0 c -11.2807,-2.53154 -22.62023,-4.76463 -34.08449,-6.32352 -18.02433,-2.47269 -23.07238,-3.32408 -42.13212,-5.19101 -43.93028,-4.30303 -88.1105,-5.92785 -132.23307,-4.18606 -13.40263,0.73537 -26.82102,1.22465 -40.20788,2.20609 -66.64102,4.88573 -132.70812,15.73921 -197.99476,29.76663 -10.52437,2.38603 -21.07239,4.67005 -31.57311,7.15809 -26.40015,6.25523 -52.46082,13.72102 -78.60801,20.91707 -51.55881,12.41732 -33.99806,85.33248 17.56074,72.91516 z"/>
</svg>
