<?xml version="1.0" ?>
<svg xmlns="http://www.w3.org/2000/svg" viewBox="0 0 1000 1000">
<path d="m 133.08283,321.08096 c 18.98004,-2.94618 37.90641,-6.19259 56.98675,-8.46608 7.14652,-0.85153 14.30827,-1.57004 21.46241,-2.35507 47.1501,-4.98803 94.50257,-7.48187 141.8827,-8.76993 5.5149,-0.0734 11.02981,-0.14677 16.54472,-0.22015 53.02816,-0.7171 52.01403,-75.71024 -1.01413,-74.99315 v 0 c -5.85993,0.0804 -11.71986,0.16087 -17.57979,0.2413 -49.43725,1.35822 -98.84592,3.96903 -148.0417,9.19245 -26.12283,2.88536 -52.20532,6.07851 -78.07489,10.78089 -52.742915,5.53943 -44.908986,80.12917 7.83393,74.58974 z"/>
<path d="m 245.89955,159.96509 c 3.72295,28.0139 3.98559,56.42086 4.8613,84.63121 2.57741,84.66839 3.71972,169.36138 4.06283,254.06505 0.26646,95.31957 -0.92872,190.63476 -1.63773,285.95016 -0.26615,36.91189 -0.42985,73.82434 -0.58186,110.73683 -0.21836,53.03256 74.781,53.34137 74.99937,0.30881 v 0 c 0.15162,-36.82947 0.31492,-73.65891 0.58041,-110.48779 0.71108,-95.60292 1.90947,-191.20563 1.63919,-286.81274 -0.34795,-85.38031 -1.49933,-170.74997 -4.09855,-256.09468 -0.59276,-18.97746 -0.91752,-33.077 -1.90264,-51.73893 -0.74351,-14.08509 -1.62225,-28.26087 -3.83442,-42.20855 -0.29604,-1.86649 -0.72679,-3.70911 -1.09018,-5.56367 -12.17235,-51.617183 -85.17007,-34.40288 -72.99772,17.2143 z"/>
<path d="m 227.62816,307.95743 c -3.03499,25.76714 -11.06066,50.55794 -18.62475,75.25666 -19.19969,58.80662 -42.98664,116.07834 -69.57268,171.91335 -6.18317,12.98566 -12.69335,25.81307 -19.04003,38.71961 -17.92553,35.47076 -38.078714,69.73822 -57.619594,104.32545 -26.086747,46.17339 39.212284,83.06562 65.299034,36.89223 v 0 c 20.24815,-35.83911 41.11068,-71.35874 59.63273,-108.14093 6.61942,-13.47986 13.40994,-26.87705 19.85827,-40.43959 28.00119,-58.89395 53.01105,-119.31564 73.16924,-181.35569 9.2803,-30.44143 18.92917,-61.13776 21.78179,-93.00157 2.9483,-52.951 -71.93571,-57.12051 -74.88401,-4.16952 z"/>
<path d="m 295.71319,401.88701 c -0.0761,0.0657 -0.31205,0.14116 -0.22845,0.19707 0.79052,0.52867 1.68162,0.88873 2.52088,1.33601 2.10026,1.11933 4.2364,2.17421 6.29766,3.36383 2.79158,1.6111 5.552,3.27942 8.25507,5.03499 9.41724,6.11627 11.80469,8.17931 21.07078,15.14896 14.0498,10.87179 26.67332,23.39531 37.91444,37.13162 3.83392,4.68494 9.4617,12.24236 13.15412,17.13889 1.80778,2.41109 3.61556,4.82217 5.42334,7.23326 31.8148,42.43015 91.8201,-2.56277 60.0053,-44.99293 v 0 c -1.85879,-2.47888 -3.71759,-4.95776 -5.57638,-7.43664 -5.22333,-6.90872 -10.69373,-14.28361 -16.2071,-20.92055 -14.81478,-17.8339 -31.4299,-34.08243 -49.81595,-48.23019 -19.40265,-14.42635 -39.48127,-29.35203 -62.73364,-37.00534 -2.69446,-0.88686 -5.50439,-1.3741 -8.25659,-2.06115 -52.36986,-8.36047 -64.19334,65.70171 -11.82348,74.06217 z"/>
<path d="m 547.93009,247.03024 c 17.70739,-3.15134 35.53188,-5.70177 53.45077,-7.2997 7.04671,-0.6284 14.1101,-1.05314 21.16515,-1.5797 44.61263,-2.73005 89.32169,-2.35032 133.9529,-0.46323 13.21958,0.55074 26.41892,1.45725 39.61409,2.40891 52.89615,3.80746 58.28072,-70.999 5.38456,-74.80646 v 0 c -13.94022,-1.00155 -27.88484,-1.95472 -41.85052,-2.53635 -47.563,-1.98617 -95.20999,-2.37122 -142.74859,0.61006 -7.83792,0.59808 -15.68532,1.08282 -23.51376,1.79425 -20.15911,1.83199 -40.21837,4.71329 -60.13191,8.3224 -52.00758,10.37842 -37.33027,83.92825 14.67731,73.54982 z"/>
<path d="m 583.24148,362.91896 c 17.76261,-2.03165 35.59643,-2.78576 53.45971,-3.15854 25.17909,0.17987 50.42012,0.65967 75.51904,2.86049 4.50652,0.39516 9.00001,0.92705 13.50001,1.39058 52.76043,5.37 60.35476,-69.24452 7.59433,-74.61452 v 0 c -5.23763,-0.52758 -10.46831,-1.1295 -15.71289,-1.58274 -27.42675,-2.37025 -55.00445,-2.91589 -82.51725,-3.03638 -18.55797,0.41162 -37.13501,0.98917 -55.57989,3.23427 -52.96713,2.64241 -49.2302,77.54925 3.73694,74.90684 z"/>
<path d="m 491.45356,483.25739 c 27.68974,-7.51628 56.45645,-10.16829 84.90488,-13.10884 57.03173,-5.08239 114.3462,-7.29351 171.59707,-5.86466 11.55377,0.28835 23.09676,0.91157 34.64514,1.36735 35.60354,1.85212 70.9652,6.43386 106.24951,11.33498 52.52993,7.28744 62.83591,-67.0011 10.30599,-74.28853 v 0 c -37.73294,-5.22839 -75.55355,-10.07059 -113.62959,-11.98936 -12.24883,-0.4733 -24.49212,-1.12237 -36.74648,-1.41991 -60.11557,-1.45962 -120.29702,0.8814 -180.17807,6.26229 -34.19089,3.57437 -68.83694,6.88814 -101.87518,16.89998 -50.0679,17.48443 -25.34117,88.29113 24.72673,70.8067 z"/>
<path d="m 630.39784,119.44271 c 1.51586,22.74311 -0.0763,45.64964 -1.28829,68.37971 -0.84023,8.29758 -1.37392,16.63195 -2.52069,24.89275 -5.69047,40.99165 -17.53074,81.18588 -34.44966,118.92985 -5.14996,11.48891 -11.08875,22.6077 -16.63312,33.91155 -19.24394,36.56205 -41.40148,71.4995 -67.14946,103.84346 -27.08681,34.02577 -57.64798,64.96054 -88.04318,95.96845 -39.1488,36.92935 -19.43855,19.14737 -59.06865,53.4147 -40.08476,34.72337 9.02149,91.41178 49.10625,56.68841 v 0 c 42.74276,-37.08787 21.54502,-17.90013 63.54077,-57.62114 10.47105,-10.69711 21.1026,-21.23943 31.41314,-32.09133 21.41408,-22.53841 44.08318,-47.35719 63.35362,-71.76453 28.45859,-36.04476 53.00694,-74.90871 74.27024,-115.58721 6.28034,-12.9651 13.02546,-25.71519 18.84104,-38.89531 19.55946,-44.32851 32.97255,-91.33762 39.44954,-139.36157 1.2699,-9.41577 1.85698,-18.91109 2.78547,-28.36663 1.01559,-19.34673 1.53637,-25.77031 1.86879,-44.41918 0.23337,-13.0914 0.25365,-26.29389 -1.48565,-39.30318 -0.30737,-2.29902 -0.82603,-4.56482 -1.23905,-6.84723 -12.88944,-51.442802 -85.64055,-33.214376 -72.75111,18.22843 z"/>
<path d="m 693.10661,455.80453 c 11.03557,13.77035 22.56499,27.13453 33.98173,40.58801 22.69271,25.69688 44.29012,52.31988 66.07864,78.77827 13.50084,16.06453 26.57577,32.52303 40.94692,47.82748 15.12384,14.23313 31.92759,26.79576 49.66644,37.60029 4.87343,2.96835 9.89233,5.691 14.8385,8.5365 5.8395,2.93589 11.679,5.87178 17.5185,8.80767 47.45267,23.68004 80.94131,-43.42817 33.48864,-67.10821 v 0 c -4.6068,-2.27707 -9.2136,-4.55415 -13.8204,-6.83122 -3.77834,-2.13572 -7.61562,-4.17037 -11.33501,-6.40717 -12.69814,-7.63649 -24.68224,-16.51786 -35.90662,-26.17491 -13.33846,-13.88377 -24.9292,-29.37009 -37.5015,-43.92763 -22.0234,-26.74338 -43.85711,-53.65067 -66.78945,-79.62853 -8.39832,-9.89656 -16.8887,-19.72648 -25.159,-29.73106 -3.35468,-4.05815 -6.14059,-7.71758 -9.57269,-11.66169 -1.11828,-1.28512 -2.30743,-2.5068 -3.46115,-3.7602 -37.542,-37.45796 -90.51555,15.63444 -52.97355,53.0924 z"/>
<path d="m 570.99008,627.80646 c 2.59668,-0.75839 4.67222,-1.42943 7.37599,-1.91807 4.35063,-0.78628 13.06708,-1.71443 16.65481,-2.07224 12.80465,-1.27703 17.30931,-1.51504 30.57512,-2.49148 26.78118,-2.02278 53.62533,-2.81038 80.47323,-3.12846 53.0292,-0.63623 52.12943,-75.63083 -0.89976,-74.9946 v 0 c -28.39314,0.34469 -56.78219,1.1887 -85.10468,3.3273 -19.84146,1.47365 -39.9136,2.53813 -59.46099,6.49315 -3.99814,0.80895 -6.59937,1.61153 -10.175,2.65788 -51.00114,14.53902 -30.43986,86.66554 20.56128,72.12652 z"/>
<path d="m 465.29793,772.79139 c 25.91007,-5.22761 51.68337,-11.13827 77.79059,-15.34512 9.07976,-1.46309 18.1962,-2.68879 27.2943,-4.03319 41.43477,-5.25166 82.99818,-10.12871 124.78164,-11.38573 24.7305,-0.74399 29.66464,-0.24411 53.59588,0.5036 23.24204,0.97489 46.12503,4.96814 68.81959,9.79893 51.88876,10.95705 67.38437,-62.42473 15.49561,-73.38178 v 0 c -5.09114,-1.06783 -10.16298,-2.2322 -15.27341,-3.2035 -22.0595,-4.19266 -44.35124,-7.09254 -66.79311,-8.17994 -26.67122,-0.77035 -32.14078,-1.31175 -59.57123,-0.44466 -44.21836,1.39776 -88.21217,6.48812 -132.05888,12.10472 -9.79711,1.45821 -19.61403,2.78907 -29.39134,4.37464 -26.19801,4.2485 -52.0882,10.06884 -78.07688,15.39649 -52.18133,9.46621 -38.79408,83.26175 13.38724,73.79554 z"/>
<path d="m 616.88097,532.09572 c 0.28177,4.7794 0.36913,5.77511 0.50474,11.53972 0.28984,12.32142 0.20532,18.03705 0.27129,31.15894 0.13518,26.88711 0.12144,21.41592 0.45831,49.95165 0.66474,43.32444 2.03075,86.65407 0.92097,129.98482 -0.7276,28.40842 -1.74261,42.13526 -3.37269,70.51132 -3.27968,43.24663 -1.41449,22.03551 -5.54139,63.6381 -5.218,52.77569 69.41808,60.15505 74.63608,7.37937 v 0 c 4.31514,-43.7811 2.37241,-21.53875 5.78272,-66.73099 1.71534,-30.06461 2.73224,-43.69587 3.48943,-73.86132 1.10293,-43.9389 -0.22357,-87.87613 -0.92036,-131.80834 -0.33994,-28.68384 -0.31433,-22.27331 -0.45361,-49.35019 -0.0839,-16.30702 0.0978,-32.64646 -1.0587,-48.92471 -4.60442,-52.83275 -79.32121,-46.32112 -74.71679,6.51163 z"/>
</svg>
