<?xml version="1.0" ?>
<svg xmlns="http://www.w3.org/2000/svg" width="1000" height="1000">
<path d="m 130.50238,349.89145 c 21.56774,-4.19949 43.37393,-6.73503 65.21076,-9.03401 46.14791,-4.31075 92.5045,-5.34229 138.81965,-6.08916 29.61808,-0.50502 59.23259,-0.0447 88.81096,1.52044 52.95943,2.79263 56.90881,-72.10331 3.94938,-74.89594 v 0 c -31.29775,-1.64503 -62.63363,-2.15192 -93.97294,-1.6147 -48.54358,0.78706 -97.12978,1.91273 -145.49256,6.49505 -23.54882,2.49941 -47.06446,5.2621 -70.33077,9.75455 -52.229574,9.19629 -39.224054,83.06006 13.00552,73.86377 z"/>
<path d="m 238.73102,145.8474 c -0.13649,-0.41115 0.001,-1.37122 -0.40946,-1.23344 -0.42755,0.14342 0.0413,0.90101 0.0569,1.35171 0.0465,1.34155 0.10393,2.68289 0.12944,4.02501 0.2121,11.15801 0.10904,22.32396 0.0878,33.48276 -0.13708,45.75648 0.95463,91.50174 1.98605,137.24285 1.24162,61.67871 2.93181,123.34531 4.64527,185.01221 1.73236,62.35675 2.40697,124.73592 2.57839,187.11447 0.14038,50.13455 0.19826,100.26927 0.22938,150.404 0.01,23.30472 0.006,12.12341 0.0119,33.54393 0.0145,53.03301 75.01453,53.01246 75,-0.0206 v 0 c -0.006,-21.4366 -0.002,-10.24662 -0.0119,-33.56994 -0.0312,-50.18832 -0.0891,-100.37664 -0.22966,-150.5648 -0.17522,-63.00388 -0.85598,-126.00839 -2.60703,-188.99025 -1.70984,-61.53614 -3.39699,-123.07196 -4.6354,-184.61991 -1.01776,-45.13061 -2.1012,-90.26524 -1.96713,-135.41105 0.012,-6.46795 0.06,-20.18912 -0.004,-27.13933 -0.0969,-10.46486 -0.1432,-21.06796 -2.75805,-31.27433 -14.59939,-50.983896 -86.70151,-30.337235 -72.10211,20.64666 z"/>
<path d="m 230.19543,317.3108 c -6.21175,13.97383 -10.27188,28.76328 -15.64159,43.06291 -2.06777,5.50651 -4.26506,10.9635 -6.39758,16.44524 -17.87836,44.71766 -39.63965,87.78732 -63.19635,129.75817 -6.05786,10.79324 -12.352,21.45215 -18.528,32.17822 -25.18583,41.78463 -51.094624,83.27238 -79.727584,122.81166 -6.115463,8.44485 -12.558498,16.64757 -18.837747,24.97135 -31.903413,42.36358 28.007724,87.48182 59.911137,45.11824 v 0 c 6.82225,-9.07329 13.815284,-18.02065 20.466744,-27.21988 29.86767,-41.30814 56.92889,-84.62136 83.19282,-128.27413 6.45271,-11.21977 13.03056,-22.36849 19.35811,-33.65931 25.10968,-44.8055 48.24459,-90.80755 67.27827,-138.54475 6.4392,-16.62174 6.94497,-17.44887 12.40655,-33.18038 2.52851,-7.28313 3.13106,-9.74884 5.48605,-16.28573 1.0014,-2.77965 1.28138,-3.34979 2.29938,-5.69437 22.26484,-48.13291 -45.80537,-79.62015 -68.07021,-31.48724 z"/>
<path d="m 314.78449,464.0773 c 12.78145,4.64916 24.12253,12.14769 35.18187,19.91315 13.9643,10.50109 25.4784,23.68416 35.77141,37.69869 3.11806,4.8202 1.8435,2.59126 3.96159,6.60606 26.16142,46.13112 91.40067,9.13328 65.23925,-36.99784 v 0 c -5.55407,-9.54654 -2.58195,-4.78413 -8.94715,-14.26797 -5.16729,-6.92774 -6.91914,-9.48575 -12.71515,-16.30988 -12.06988,-14.21088 -25.47651,-27.28654 -40.53018,-38.33175 -3.71522,-2.55969 -7.36908,-5.21079 -11.14565,-7.67906 -11.78056,-7.69946 -24.21024,-14.46178 -37.32806,-19.59126 -48.76198,-20.85112 -78.24991,48.10874 -29.48793,68.95986 z"/>
<path d="m 518.96435,292.90085 c 15.25102,-2.07357 30.59349,-3.47485 45.8957,-5.13107 44.15941,-5.09965 88.45275,-8.8437 132.75524,-12.43415 28.98507,-2.27466 57.99636,-4.47779 87.0665,-5.30914 13.21038,-0.37779 17.20909,-0.26745 29.94956,-0.21842 8.88698,0.0383 17.75665,0.55628 26.61953,1.14824 52.91845,3.48379 57.84528,-71.35421 4.92682,-74.838 v 0 c -10.42216,-0.67786 -20.85201,-1.2702 -31.30104,-1.30983 -14.26697,-0.0392 -18.34383,-0.15577 -33.12132,0.27513 -30.11555,0.87815 -60.17182,3.13469 -90.19974,5.49722 -44.97358,3.64634 -89.93753,7.45287 -134.7665,12.62448 -16.40773,1.77611 -32.85939,3.27015 -49.204,5.56381 -52.41904,8.04635 -41.03979,82.17807 11.37925,74.13173 z"/>
<path d="m 622.59066,172.3622 c 0.23471,1.30766 0.50952,2.60876 0.70412,3.92298 1.0552,7.126 1.11154,14.60003 1.18795,21.76022 0.12834,12.02689 -0.15241,20.18373 -0.41057,32.4485 -0.2858,26.02417 -2.58153,51.92447 -5.4498,77.76789 -5.81347,52.71341 68.73455,60.9349 74.54802,8.22149 v 0 c 0.73342,-6.68882 1.55844,-13.36824 2.20028,-20.06647 2.05112,-21.40529 3.20985,-42.87776 3.68551,-64.37448 0.47997,-23.66546 1.55658,-47.65668 -2.34147,-71.10932 -8.08165,-52.41361 -82.20569,-40.98442 -74.12404,11.42919 z"/>
<path d="m 517.87305,375.11612 c 1.0429,22.42297 1.70726,44.86081 2.60717,67.28963 2.16493,46.03987 2.85607,92.12404 3.01704,138.20847 0.24501,38.88346 -1.0072,77.75451 -4.29916,116.49818 -0.84278,10.55006 -2.66845,20.94923 -4.83761,31.2897 -10.62206,51.95836 62.85816,66.98023 73.48023,15.02186 v 0 c 2.65662,-13.23584 5.03684,-26.51987 6.09152,-40.00217 3.43561,-40.93331 4.84609,-81.99328 4.56455,-123.07306 -0.16854,-46.99943 -0.8736,-93.99864 -3.07699,-140.95279 -0.90517,-22.51384 -1.56824,-45.03695 -2.61785,-67.54488 -2.30875,-52.98273 -77.23765,-49.71767 -74.9289,3.26506 z"/>
<path d="m 588.68919,407.07616 c 16.61473,-3.77565 33.42918,-6.32281 50.31807,-8.49086 28.33351,-3.47574 56.81505,-5.27468 85.3294,-6.30255 16.30405,-0.56758 32.61245,-1.01712 48.92479,-1.25245 2.48813,-0.0312 4.9764,-0.0534 7.46473,-0.0594 0.43668,-10e-4 1.746,0.0245 1.31005,-6.8e-4 -0.54775,-0.0317 -1.10262,0.058 -1.64588,-0.0188 -2.42564,-0.3429 -4.82951,-0.82532 -7.24426,-1.23799 -8.90111,-3.64309 -14.24258,-6.49071 -19.45022,-14.42055 -0.43493,-0.66228 -0.75713,-1.39306 -1.17454,-2.06653 -0.0822,-0.13268 -0.32419,-0.49901 -0.31885,-0.343 0.027,0.78724 0.25801,1.55415 0.38701,2.33122 2.44909,22.95252 2.13744,46.12505 2.30899,69.1805 0.0142,38.42163 1.35433,76.82153 2.06607,115.23193 0.84801,32.62503 -0.66184,65.22219 -3.08853,97.74593 -1.80839,20.8261 -4.30857,41.58208 -6.59787,62.35825 -0.22362,2.14569 -0.44724,4.29138 -0.67087,6.43706 -5.4919,52.74789 69.10487,60.51461 74.59677,7.76673 v 0 c 0.20777,-1.99771 0.41554,-3.99541 0.62331,-5.99311 2.38422,-21.65804 4.99518,-43.29462 6.84222,-65.00812 2.58161,-34.83815 4.1772,-69.75474 3.28203,-104.69957 -0.70994,-38.1334 -2.03692,-76.25642 -2.05523,-114.40094 -0.0924,-12.24713 -0.12594,-22.13337 -0.37339,-34.32437 -0.27114,-13.35796 -0.55318,-26.78333 -2.1163,-40.06792 -0.38724,-3.29108 -0.97273,-6.5558 -1.4591,-9.8337 -1.68389,-7.42778 -3.34839,-14.64931 -7.05827,-21.39284 -2.77314,-5.04079 -6.93981,-10.49082 -11.58682,-13.78919 -3.82032,-2.7116 -8.30578,-4.3364 -12.45867,-6.50459 -3.00297,-0.59044 -5.98305,-1.31232 -9.0089,-1.77131 -4.49305,-0.68156 -9.15318,0.18097 -13.65944,-0.1112 -16.85722,0.24498 -33.71046,0.70543 -50.55908,1.29394 -30.81445,1.12545 -61.59454,3.08909 -92.21083,6.87035 -17.78004,2.30637 -35.53772,4.8324 -53.01939,8.88969 -52.31461,8.69954 -40.0116,82.68357 12.303,73.98402 z"/>
<path d="m 579.80397,534.65038 c 16.23652,-0.47112 32.42855,-1.98371 48.62093,-3.21525 20.83379,-1.94796 41.72701,-2.43841 62.6341,-2.11463 53.02693,0.80257 54.16193,-74.18884 1.135,-74.99141 v 0 c -23.18248,-0.34357 -46.35444,0.20036 -69.45697,2.32203 -14.30282,1.08784 -28.60201,2.36092 -42.93306,2.99926 -53.03301,0 -53.03301,75 0,75 z"/>
<path d="m 590.18853,644.9945 c 11.30193,-1.39166 22.65294,-2.13568 34.02721,-2.59223 12.54907,-0.12222 25.14043,0.0215 37.64681,1.17543 5.53342,0.51056 8.6548,1.03055 14.05331,1.81473 52.50273,7.48082 63.08221,-66.76926 10.57947,-74.25008 v 0 c -7.95857,-1.11763 -11.0671,-1.65028 -19.3442,-2.37796 -15.29817,-1.34494 -30.69128,-1.54801 -46.03662,-1.29798 -11.99033,0.50854 -23.99804,1.11099 -35.90375,2.69346 -52.91607,3.51981 -47.9383,78.35444 4.97777,74.83463 z"/>
<path d="m 564.12829,774.61014 c 15.37415,-3.74576 30.92752,-6.62795 46.53363,-9.20532 19.84296,-2.99356 39.84872,-4.94644 59.89717,-5.83958 12.40455,-0.55262 18.12108,-0.47677 30.52046,-0.56363 17.87487,0.0901 35.79151,0.50552 53.40366,3.75238 52.23479,9.16659 65.1983,-64.70457 12.96351,-73.87115 v 0 c -3.37366,-0.57386 -6.73244,-1.24329 -10.12097,-1.72158 -18.8136,-2.65557 -37.85625,-2.95195 -56.82133,-3.15744 -14.24475,0.11771 -20.1013,0.0333 -34.41926,0.69498 -22.66502,1.04742 -45.27876,3.2943 -67.70715,6.71883 -16.9246,2.82292 -33.80544,5.91203 -50.48469,9.97075 -51.7756,11.47986 -35.54063,84.70162 16.23497,73.22176 z"/>
<path d="m 373.76186,648.57144 c -0.4921,17.88511 -0.60963,35.77897 -1.00026,53.66717 -0.74835,31.15583 -5.56095,61.97032 -11.34129,92.52834 -3.36565,16.42761 -7.10014,32.82037 -12.09209,48.8399 -4.17472,11.58367 -7.23573,24.23908 0.61583,36.37973 5.80673,8.9788 16.02089,14.43356 25.35329,19.65306 3.54743,1.98403 8.08226,0.87145 12.12339,1.30718 2.53608,-0.14983 5.07574,-0.24812 7.60825,-0.4495 8.4653,-0.67314 16.89685,-1.90681 25.33417,-2.84583 10.97844,-1.22183 12.99194,-1.38128 24.40452,-2.50534 35.0779,-3.5068 70.29764,-5.15938 105.50155,-6.77972 44.36642,-1.88539 88.74985,-3.38437 133.14913,-4.19517 39.90874,-0.65774 79.82309,-0.43535 119.72044,0.6631 23.83415,0.8243 47.64447,2.67869 71.2169,6.33364 52.41884,8.0477 63.79999,-66.08374 11.38115,-74.13143 v 0 c -26.66921,-4.06177 -53.57751,-6.30719 -80.54035,-7.17398 -41.04119,-1.12304 -82.09966,-1.36133 -123.15242,-0.67874 -45.09159,0.82923 -90.16746,2.34059 -135.2256,4.26201 -36.50903,1.68269 -73.03283,3.42018 -109.4106,7.06227 -16.41922,1.62081 -32.85833,3.31286 -49.21035,5.44271 12.94702,2.47707 18.19533,2.36807 28.58843,20.01869 12.13943,20.61642 3.8048,16.52542 1.80033,26.75902 -0.47212,2.41032 4.00209,-13.4312 2.3954,-6.96812 5.76504,-18.75104 10.29514,-37.8658 14.14004,-57.09735 6.50637,-34.60944 11.82217,-69.51602 12.62214,-104.79357 0.36926,-17.04193 0.54467,-34.08682 0.90201,-51.12854 2.94831,-52.95099 -71.9357,-57.12052 -74.88401,-4.16953 z"/>
</svg>
