<?xml version="1.0" ?>
<svg xmlns="http://www.w3.org/2000/svg" width="1000" height="1000">
<path d="m 392.79968,67.014549 c 0.54779,19.932318 1.29477,39.856511 2.17643,59.776631 1.08038,19.67356 1.5789,39.38757 0.10819,59.0538 -0.66444,8.88472 -1.30525,13.28135 -2.37219,21.90938 -6.42682,52.64215 68.02042,61.73105 74.44724,9.0889 v 0 c 1.30494,-10.80356 2.02422,-15.73625 2.81499,-26.93851 1.56179,-22.12473 1.14752,-44.30238 -0.0717,-66.43337 -0.89,-20.06486 -1.61349,-40.134365 -2.19691,-60.210498 -2.65424,-52.966546 -77.56025,-49.212879 -74.90601,3.753667 z"/>
<path d="m 508.12223,66.665432 c -1.89827,16.58133 -1.80378,33.307763 -2.07484,49.971608 -0.42399,27.50756 -1.35516,55.01274 -3.80718,82.41854 -0.42818,3.71445 -0.85635,7.42891 -1.28453,11.14336 -6.01572,52.69071 68.50019,61.19823 74.51592,8.50752 v 0 c 0.49244,-4.34908 0.98488,-8.69815 1.47732,-13.04722 2.554,-29.20149 3.68183,-58.49418 4.08856,-87.80272 0.2269,-13.9564 0.0939,-27.965904 1.50304,-41.86803 6.59239,-52.621671 -67.82589,-61.94473 -74.41829,-9.323058 z"/>
<path d="m 255.82314,157.10333 c 9.9273,11.65903 20.55991,23.25247 31.88254,33.56657 4.27518,3.89437 8.76075,7.55132 13.14113,11.32698 20.77596,15.30561 9.50845,7.95695 34.03571,21.68426 46.66679,25.19347 82.29574,-40.80333 35.62895,-65.9968 v 0 c -14.41532,-7.26998 -7.43207,-3.07165 -20.90295,-12.6725 -3.31151,-2.80623 -6.70223,-5.52158 -9.93453,-8.4187 -11.15869,-10.00156 -20.89795,-21.44199 -30.87726,-32.58217 -37.54197,-37.457986 -90.51556,15.63438 -52.97359,53.09236 z"/>
<path d="m 659.43939,67.334413 c -1.12156,1.702625 -2.29978,3.369247 -3.36468,5.107876 -6.19779,10.118986 -0.60756,1.927675 -7.35786,12.479474 -7.38458,11.543269 -15.43327,22.618417 -23.51349,33.676787 -14.43287,18.54071 -7.17385,9.39542 -21.7708,27.44084 -33.33617,41.24561 24.99393,88.39007 58.3301,47.14446 v 0 c 15.96824,-19.77193 7.9485,-9.64538 24.03964,-30.39516 10.20572,-14.02017 10.47492,-14.09379 19.60516,-27.67741 4.89966,-7.28955 10.23181,-14.83743 14.16494,-22.75603 0.0277,-0.0558 -0.12103,0.0292 -0.18154,0.0438 31.86551,-42.392093 -28.08597,-87.456721 -59.95147,-45.064627 z"/>
<path d="m 279.14645,309.4631 c 10.92881,-3.79039 22.1908,-6.46451 33.41496,-9.20602 31.77056,-7.15745 63.6983,-13.7386 95.8249,-19.10609 8.42231,-1.40713 16.87147,-2.64853 25.3072,-3.97279 47.03515,-6.48121 94.50876,-10.2531 142.00487,-10.37713 8.7605,-0.0229 17.51941,0.24019 26.27911,0.36029 27.52731,0.75241 55.02435,3.11002 82.15036,7.92103 11.1467,1.97695 14.29821,2.84025 24.74777,5.27283 10.64156,2.72983 5.69952,1.41021 14.83606,3.92138 51.14884,14.01057 70.96278,-58.32481 19.81394,-72.33538 v 0 c -10.95641,-2.99264 -5.03285,-1.42243 -17.78279,-4.6647 -12.59958,-2.88769 -16.50144,-3.93909 -29.84042,-6.26409 -30.7023,-5.35147 -61.80606,-8.0362 -92.95007,-8.84473 -9.54899,-0.1179 -19.09732,-0.38951 -28.64698,-0.3537 -50.93151,0.191 -101.83585,4.25644 -152.26513,11.27505 -8.93248,1.40754 -17.87895,2.72897 -26.79743,4.22261 -33.70093,5.64409 -67.19585,12.5488 -100.51676,20.09695 -14.28414,3.50453 -28.61198,6.99128 -42.45029,12.03331 -49.51245,19.00045 -22.64175,89.02163 26.8707,70.02118 z"/>
<path d="m 361.80376,345.64286 c 7.65517,12.8386 13.88062,26.44314 21.82257,39.13071 2.68476,4.289 5.60482,8.42614 8.40723,12.63922 10.43495,14.12569 5.28707,7.4599 15.37675,20.04886 33.26663,41.30172 91.67607,-5.74439 58.40945,-47.04611 v 0 c -7.57799,-9.34638 -3.7244,-4.42124 -11.51837,-14.80847 -6.1343,-9.01817 -6.37759,-8.97882 -11.83536,-18.65536 -6.17518,-10.94853 -11.32552,-22.48393 -18.30154,-32.97586 -29.46302,-44.09569 -91.82375,-2.42869 -62.36073,41.66701 z"/>
<path d="m 550.45423,256.81092 c 0.0515,8.45356 -3.05201,16.72788 -5.8144,24.57668 -6.20544,17.63163 -6.43746,17.21902 -14.34084,35.45212 -6.93617,14.37208 -13.23366,28.19996 -21.40899,41.94921 -3.8788,6.52336 -8.33849,12.68333 -12.50774,19.025 -28.87685,44.48176 34.02986,85.3198 62.90671,40.83804 v 0 c 5.23543,-8.14524 10.79228,-16.09263 15.70629,-24.43572 9.35588,-15.8846 16.24993,-31.15372 24.19642,-47.73202 8.02266,-18.75946 10.87854,-24.28124 17.10862,-42.96573 5.40671,-16.21509 9.8551,-33.04141 9.06866,-50.28291 -2.52814,-52.97272 -77.44287,-49.39739 -74.91473,3.57533 z"/>
<path d="m 350.76296,471.65697 c 18.08956,-4.56551 36.52901,-7.38409 54.95863,-10.15181 31.68327,-4.45393 63.55134,-7.76263 95.5203,-9.23106 6.96087,-0.31973 13.92855,-0.4684 20.89283,-0.70259 35.4151,-0.95111 70.71955,2.37054 105.78917,6.94082 10.25527,1.27704 20.41948,3.12787 30.5659,5.06109 52.10502,9.87759 66.07404,-63.81004 13.96902,-73.68762 v 0 c -11.57906,-2.18564 -23.17668,-4.28559 -34.87488,-5.74876 -39.12282,-5.06574 -78.50952,-8.64807 -118.01021,-7.5218 -7.57563,0.26258 -15.15503,0.43288 -22.7269,0.78775 -34.23338,1.6044 -68.35994,5.14688 -102.28649,9.93731 -19.76445,2.98017 -39.55296,5.99313 -58.96024,10.86541 -51.93789,10.72177 -36.77501,84.17303 15.16287,73.45126 z"/>
<path d="m 396.76006,576.49007 c 9.07247,-2.31789 17.97246,-5.24342 27.10782,-7.33315 2.93065,-0.67039 5.88585,-1.22856 8.82877,-1.84284 21.34914,-3.59403 43.00656,-5.79046 64.66303,-6.19726 4.61919,-0.0868 9.23996,0.027 13.85994,0.0405 14.53604,0.39205 29.1608,0.97249 43.47825,3.71418 4.19067,0.80249 6.92105,1.56297 10.95389,2.60013 51.42657,12.95408 69.7464,-59.77407 18.31983,-72.72815 v 0 c -6.82232,-1.69521 -10.11111,-2.6138 -17.35285,-3.91853 -18.26054,-3.28998 -36.83513,-4.30541 -55.35724,-4.66761 -5.66474,0.008 -11.33083,-0.10023 -16.99423,0.0233 -25.84186,0.56348 -51.68115,3.2424 -77.12057,7.76319 -12.13602,2.60161 -24.24691,5.38417 -36.06812,9.20399 -51.86083,11.08848 -36.17935,84.43077 15.68148,73.34229 z"/>
<path d="m 218.70725,703.51514 c 1.67799,-0.17197 3.36254,-0.28896 5.03399,-0.5159 8.32265,-1.13001 16.55042,-2.9955 24.79669,-4.5583 7.01171,-1.32883 19.44422,-3.62089 26.12532,-4.8574 40.95361,-7.61938 82.30223,-12.79205 123.72161,-17.06205 43.41116,-4.19328 87.06147,-5.11249 130.63726,-3.7507 8.94002,0.27939 17.8726,0.76047 26.8089,1.14071 51.9838,3.10264 103.78987,8.5657 155.61112,13.61358 27.98751,2.67707 55.89455,6.10337 83.64413,10.6204 52.34794,8.49664 64.364,-65.53453 12.01606,-74.03117 v 0 c -29.32803,-4.74792 -58.81122,-8.42129 -88.38901,-11.23593 -53.18776,-5.18082 -106.36087,-10.78705 -159.7205,-13.90021 -9.49881,-0.39763 -18.99376,-0.90205 -28.49644,-1.19289 -46.64144,-1.4275 -93.3608,-0.36838 -139.82206,4.13361 -8.5891,0.88986 -17.1865,1.70295 -25.7673,2.66959 -34.78476,3.91856 -69.44805,9.02161 -103.89294,15.24752 -15.57718,2.88309 -31.14787,5.80097 -46.70113,8.80798 -52.9419,3.10724 -48.54761,77.9784 4.3943,74.87116 z"/>
<path d="m 464.32498,457.26363 c -0.51157,19.18943 0.59072,38.3959 1.27393,57.57153 1.6247,39.41576 2.36718,78.85258 2.65771,118.29799 0.41762,44.90518 -0.16816,89.80658 -0.81376,134.7059 -0.30014,42.23823 -1.17942,84.46323 -2.15428,126.68961 -0.1072,5.12884 -0.2144,10.25767 -0.32159,15.38651 -1.10788,53.02143 73.87575,54.58821 74.98363,1.56677 v 0 c 0.106,-5.07421 0.21199,-10.14843 0.31799,-15.22265 0.97942,-42.44382 1.86338,-84.8863 2.1665,-127.34198 0.65339,-45.44359 1.24101,-90.88935 0.81946,-136.33884 -0.29816,-40.15082 -1.05244,-80.2931 -2.70322,-120.41384 -0.59927,-16.81933 -1.49045,-33.65524 -1.35637,-50.48706 3.12113,-52.94108 -71.74887,-57.35502 -74.87,-4.41394 z"/>
<path d="m 441.59353,642.97393 c -10.59798,10.5916 -22.51224,19.76003 -34.25644,29.01913 -40.12704,30.21911 -81.9347,58.13596 -123.77633,85.90399 -31.47623,21.17795 -63.96245,40.77219 -96.52813,60.20826 -45.53695,27.18246 -7.09515,91.58143 38.4418,64.39897 v 0 c 33.5886,-20.05353 67.08906,-40.27953 99.56083,-62.11831 43.55722,-28.91207 87.07903,-57.98381 128.78628,-89.53549 16.99953,-13.44675 34.69,-26.72467 48.38033,-43.69931 31.23803,-42.85657 -29.37031,-87.03381 -60.60834,-44.17724 z"/>
<path d="m 508.54431,679.60932 c 1.49351,3.8111 2.5975,7.79885 4.48054,11.4333 3.28204,6.33467 8.66055,12.46011 13.44253,17.67966 8.26259,9.01866 17.35024,17.24549 26.31755,25.54287 23.72173,21.35543 48.25537,41.80598 73.01242,61.94653 20.35793,16.44948 40.94274,32.61958 62.53357,47.42544 11.52384,7.46393 22.90391,15.26585 35.14793,21.53465 2.48247,1.27099 5.02118,2.42899 7.53177,3.64349 23.60513,10.61907 49.20478,15.55824 74.43474,20.62176 7.30319,1.28701 14.60639,2.57402 21.90959,3.86104 52.23237,9.18041 65.21543,-64.68731 12.98307,-73.86772 v 0 c -6.73485,-1.18033 -13.4697,-2.36066 -20.20455,-3.54099 -19.16322,-3.80554 -38.68802,-7.30452 -56.83915,-14.77019 -11.50622,-5.34563 -22.04424,-12.42568 -32.62185,-19.38675 -19.9187,-13.58104 -38.76745,-28.61986 -57.5559,-43.70914 -23.53863,-19.13374 -46.85148,-38.57868 -69.43019,-58.84027 -6.54357,-6.03808 -9.81492,-8.94573 -15.96333,-15.00653 -1.81018,-1.78438 -3.56434,-3.62472 -5.34234,-5.44118 -0.89087,-0.91015 -1.57557,-2.0777 -2.66424,-2.73862 -0.37747,-0.22917 0.18965,0.86258 0.28447,1.29387 0.58323,2.00477 1.16645,4.00954 1.74968,6.01431 -11.529,-51.76468 -84.73531,-35.46021 -73.20631,16.30447 z"/>
</svg>
