<?xml version="1.0" ?>
<svg xmlns="http://www.w3.org/2000/svg" viewBox="0 0 1000 1000">
<path d="m 120.45969,305.26885 c 21.74201,-7.11217 44.11762,-12.11889 66.71149,-15.63459 8.70532,-1.35458 17.46017,-2.369 26.19025,-3.5535 35.30029,-4.2943 70.87513,-5.97953 106.42202,-5.26877 15.62829,0.31248 24.45285,0.95544 39.76213,1.83951 5.14789,0.36767 10.29577,0.73533 15.44366,1.103 52.89914,3.76573 58.22469,-71.04496 5.32554,-74.81069 v 0 c -5.49379,-0.38988 -10.98759,-0.77976 -16.48138,-1.16964 -17.03861,-0.96815 -26.22133,-1.63944 -43.69355,-1.96134 -39.06948,-0.71978 -78.16673,1.19617 -116.95778,5.96193 -9.78215,1.35154 -19.59338,2.50713 -29.34646,4.0546 -25.86075,4.1032 -51.84303,9.67504 -76.636586,18.23597 -3.016312,1.04149 -5.950419,2.30736 -8.925628,3.46104 -47.901161,22.75915 -15.714867,90.50162 32.186294,67.74248 z"/>
<path d="m 225.49487,121.67375 c -0.23668,39.26687 0.32862,78.52543 1.09242,117.78353 1.34037,60.38169 4.00061,120.72711 5.34289,181.10859 1.04279,46.9096 0.88644,57.44017 1.11677,104.68826 -0.11543,98.34862 -3.14251,196.6601 -5.54989,294.9706 -0.73561,31.41749 -1.19682,62.84008 -1.62944,94.26281 -0.72978,53.02799 74.26312,54.06005 74.99289,1.03206 v 0 c 0.42857,-31.15474 0.88536,-62.30934 1.61407,-93.45889 2.42529,-99.04539 5.47191,-198.09191 5.57146,-297.17585 -0.23978,-48.22975 -0.08,-58.54255 -1.14535,-106.42189 -1.33881,-60.16756 -3.98308,-120.29934 -5.32763,-180.46689 -0.7567,-38.77109 -1.31395,-77.54254 -1.07819,-116.32233 0,-53.033008 -75,-53.033008 -75,0 z"/>
<path d="m 228.0013,269.70811 c -9.15868,21.85528 -16.75826,44.31107 -25.36916,66.37974 -3.61079,9.25404 -7.38727,18.44257 -11.08091,27.66386 -26.86124,64.06482 -57.45312,126.5315 -90.11337,187.82598 -7.186126,13.48641 -14.59141,26.8549 -21.887114,40.28235 -19.817376,34.98338 -39.680955,69.93714 -59.299841,105.03219 -25.8763812,46.29161 39.589838,82.88634 65.466219,36.59473 v 0 c 19.764666,-35.36028 39.791326,-70.56944 59.738036,-105.82738 7.48574,-13.78413 15.08429,-27.50759 22.45722,-41.35239 33.82895,-63.52369 65.49035,-128.27389 93.26792,-194.68446 3.87021,-9.67519 7.82475,-19.31707 11.61064,-29.02556 8.29499,-21.2716 15.61834,-42.91332 24.41823,-63.98801 20.43612,-48.93736 -48.77175,-77.8384 -69.20787,-28.90105 z"/>
<path d="m 262.26449,373.89678 c 17.9158,8.93467 34.11925,20.8527 50.1118,32.78492 23.11999,18.25377 45.1205,37.86284 67.17978,57.36854 39.72895,35.12991 89.41015,-21.05531 49.6812,-56.18522 v 0 c -23.64589,-20.90863 -47.23852,-41.92164 -72.11478,-61.37284 -21.06215,-15.61023 -42.50851,-31.19964 -66.51499,-42.03367 -49.10027,-20.04154 -77.44328,49.39674 -28.34301,69.43827 z"/>
<path d="m 477.95354,206.37998 c 34.01096,-6.54431 68.28789,-11.54024 102.5821,-16.32212 40.16523,-5.1783 80.61153,-8.11223 121.11632,-8.14441 21.21624,-0.0169 25.74222,0.46098 46.07786,1.50515 18.61694,1.341 37.28463,2.98956 55.57311,6.84559 51.94189,10.70231 67.07724,-62.75463 15.13534,-73.45693 v 0 c -22.06568,-4.47742 -44.47873,-6.87578 -66.94056,-8.29396 -22.55041,-1.11332 -27.72134,-1.64046 -51.11656,-1.58908 -43.54771,0.0956 -87.03319,3.26337 -130.21351,8.85373 -36.14629,5.0503 -72.28103,10.31095 -108.11235,17.30642 -51.82782,11.24177 -35.92956,84.53737 15.89825,73.29561 z"/>
<path d="m 566.21464,170.16988 c -3.84345,4.00613 -5.92298,6.06793 -9.76246,10.68988 -3.39413,4.08585 -13.72252,17.43321 -16.65443,21.25637 -7.20564,9.396 -14.57365,19.21916 -21.69007,28.66345 -22.73558,28.92748 -45.6782,57.6988 -69.78096,85.50334 -5.47996,6.10441 -8.19911,9.21633 -13.6031,14.95866 -1.64123,1.74399 -6.72798,6.85596 -8.31009,8.82582 -1.84083,2.292 -4.69826,4.21507 -5.22044,7.10803 -2.15395,11.93341 -1.74126,24.1899 -2.61188,36.28485 12.97887,7.5813 24.99698,17.12127 38.93661,22.74391 2.67935,1.08073 21.50344,-4.30299 24.14768,-5.06888 13.64485,-3.95216 27.11317,-8.56516 40.68974,-12.7462 24.05668,-7.31295 48.53338,-13.36955 73.44757,-16.91174 3.90516,-0.55521 7.83171,-0.94778 11.74757,-1.42168 8.81119,-0.90342 17.68137,-1.35141 26.53912,-1.09548 4.00773,0.1158 7.98946,0.37274 11.87883,1.3588 0.0393,0.0881 0.21278,0.2824 0.11798,0.26436 -2.72004,-0.5175 -5.22727,-1.71172 -7.43758,-3.42121 -1.87113,-1.44717 -3.56079,-3.13961 -5.0925,-4.94219 -3.36832,-3.96396 -1.65848,-5.75353 -3.20689,-3.83538 0.75982,26.56347 -3.29574,52.95819 -7.08006,79.16555 -6.34652,37.9658 -11.89701,76.1333 -20.34172,113.71315 -1.6717,7.43927 -3.59393,14.82002 -5.3909,22.23003 -9.22977,34.75349 -19.76829,69.19024 -32.17317,102.94938 -2.12674,5.78778 -4.38726,11.52552 -6.58089,17.28828 -10.64503,27.07285 -22.53913,53.6376 -35.29566,79.77611 -5.21751,10.09449 -10.47966,20.32929 -17.92874,28.98997 -0.20455,0.16513 -0.76766,0.70842 -0.61364,0.49539 0.922,-1.27529 2.89036,-2.93115 4.09201,-3.57982 7.03157,-3.79576 11.60711,-4.4945 19.49234,-4.20534 -13.58571,-6.99942 -27.07061,-14.24092 -39.55194,-23.11893 -5.31535,-3.78083 -10.35111,-7.94008 -15.52666,-11.91012 -42.25446,-32.04779 -87.57687,27.70904 -45.32241,59.75683 v 0 c 6.72037,5.05239 13.27197,10.33746 20.16112,15.15718 17.61297,12.32224 36.66074,22.7484 56.39554,31.22373 4.64705,1.16932 9.17099,3.05194 13.94116,3.50795 18.78875,1.79614 32.63849,-5.91784 44.58595,-19.35733 3.60354,-4.39169 4.73989,-5.62641 8.15722,-10.48205 7.46882,-10.61234 13.66263,-22.05845 19.5324,-33.60946 13.72691,-28.18011 26.55842,-56.80304 37.98817,-85.99778 2.38552,-6.28505 4.84214,-12.54357 7.15656,-18.85515 13.27667,-36.20638 24.56229,-73.13626 34.39364,-110.4177 1.97663,-8.21116 4.08561,-16.39159 5.9299,-24.63349 8.74515,-39.08103 14.57696,-78.75287 21.1346,-118.23521 2.84933,-19.8529 5.71977,-39.66503 7.083,-59.69029 0.5889,-8.65072 1.06217,-21.03149 0.74018,-29.84251 -0.15274,-4.17948 -0.65023,-8.33922 -0.97535,-12.50883 -2.16274,-10.54746 -2.34427,-15.76281 -8.27441,-25.39976 -8.30605,-13.49799 -21.0657,-20.59616 -36.00377,-24.13699 -2.70146,-0.47491 -5.38711,-1.05074 -8.10438,-1.42473 -17.75717,-2.44397 -35.84293,-1.21567 -53.60227,0.38738 -4.86233,0.60908 -9.73745,1.12354 -14.58698,1.82724 -28.31645,4.10893 -56.15909,10.95052 -83.51451,19.26861 -30.16429,9.30334 -1.59401,0.41703 -28.33521,8.92683 -3.44056,1.09488 -6.88659,2.17283 -10.33922,3.22903 -2.04591,0.62587 -4.15865,1.05 -6.15593,1.81703 -0.16934,0.065 0.005,0.36275 0.008,0.54412 10.72656,7.64364 21.45312,15.28727 32.17968,22.93091 -1.19897,11.32118 -1.80393,22.72113 -3.59689,33.96355 -0.17558,1.10094 -3.02683,3.27069 -2.21879,2.5026 0.92805,-0.88219 1.70179,-1.91413 2.58,-2.84595 6.96026,-7.3852 14.02489,-14.6755 20.62614,-22.39246 25.2014,-29.10698 49.24907,-59.17652 72.99417,-89.47837 9.78045,-12.98072 19.582,-25.93657 29.53732,-38.78365 1.7419,-2.24786 3.43441,-4.53497 5.22798,-6.74182 2.5501,-3.13772 3.84244,-4.41772 6.41564,-7.12542 37.542,-37.45796 -15.43155,-90.55036 -52.97355,-53.0924 z"/>
<path d="m 314.5145,516.65111 c 6.91987,19.21319 10.13357,39.4545 13.16497,59.56344 4.11035,30.33019 5.29974,60.95712 4.9593,91.5342 -0.10297,2.77333 -0.20595,5.54667 -0.30892,8.32 -1.89108,52.99929 73.06123,55.67367 74.9523,2.67439 v 0 c 0.11754,-3.40688 0.23509,-6.81375 0.35263,-10.22063 0.33256,-34.61825 -1.04475,-69.28913 -5.81248,-103.61466 -0.96572,-6.27151 -1.81526,-12.56202 -2.89715,-18.81453 -3.42713,-19.80614 -8.05506,-39.52737 -15.20277,-58.34325 -20.43613,-48.93736 -89.644,-20.03631 -69.20788,28.90104 z"/>
<path d="m 400.78038,541.30688 c 19.84772,-4.7493 40.04126,-7.99897 60.14171,-11.49181 20.12557,-3.36207 40.27511,-6.89881 60.65215,-8.30135 2.88226,-0.0739 4.42016,-0.20123 7.10662,-0.0184 0.36552,0.0249 1.45278,0.177 1.08661,0.16512 -3.46983,-0.11257 -7.28415,-0.89549 -10.20785,-2.73666 -4.23809,-2.66888 -7.73418,-6.3655 -11.60127,-9.54826 -14.85172,1.33567 -2.23879,-12.52424 -6.7,-16.38738 -0.79111,-0.68506 -0.43432,2.04768 -0.62402,3.07684 -0.522,2.832 -0.99358,5.67312 -1.51094,8.50597 -2.18262,11.95095 -2.7172,14.50316 -5.15215,27.05102 -6.02885,28.28996 -10.61674,56.94097 -18.11773,84.90416 -1.22358,4.56143 -2.6725,9.05942 -4.00874,13.58914 -1.29461,3.66678 -2.58921,7.33356 -3.88382,11.00034 -17.44693,50.08098 53.37827,74.75467 70.8252,24.67369 v 0 c 1.68298,-4.8803 3.36596,-9.7606 5.04894,-14.64089 1.62363,-5.6011 3.37017,-11.16802 4.8709,-16.80329 7.76125,-29.14376 12.66523,-58.95798 18.89286,-88.44118 2.53902,-13.09443 5.35245,-26.21573 7.3078,-39.41675 1.01218,-6.83344 2.42471,-16.91331 0.78551,-23.63282 -1.4745,-6.04437 -4.59909,-11.56213 -6.89863,-17.3432 -4.63578,-4.24884 -8.72016,-9.19178 -13.90734,-12.74654 -3.32095,-2.27583 -7.37133,-3.28833 -11.21915,-4.47258 -8.46243,-2.60447 -18.76366,-1.74667 -27.48201,-1.58445 -22.86787,1.70014 -45.52363,5.3004 -68.10618,9.21532 -23.24816,4.0417 -46.65312,7.70352 -69.4831,13.74012 -50.65986,15.6869 -28.47523,87.33076 22.18463,71.64385 z"/>
<path d="m 405.14144,688.63716 c 29.70677,-6.34939 59.42968,-12.63048 89.12688,-19.02847 8.05793,-1.66801 16.11587,-3.33602 24.17381,-5.00403 51.93151,-10.75259 36.72505,-84.19484 -15.20646,-73.44225 v 0 c -8.25438,1.70951 -16.50875,3.41902 -24.76313,5.12852 -30.1466,6.49492 -60.32351,12.85181 -90.4725,19.33135 -51.62932,12.1208 -34.48792,85.13568 17.1414,73.01488 z"/>
<path d="m 730.62747,459.95059 c 16.39063,-3.2593 33.06395,-4.58255 49.69559,-5.92236 27.64719,-2.05497 55.35672,-3.14056 83.07502,-3.48807 6.91894,-0.005 13.84079,-0.11691 20.7597,-0.009 1.03378,0.0161 2.06773,0.0439 3.10005,0.1011 0.29268,0.0162 1.1599,0.17032 0.87129,0.11903 -2.37537,-0.42218 -4.7548,-0.82119 -7.1322,-1.23178 -19.48935,-13.5249 -18.2204,-7.82134 -24.7597,-30.99579 -0.59332,-2.10265 0.47511,-4.39365 0.14132,-6.55277 -0.14502,-0.93805 -0.49507,1.83276 -0.72879,2.75272 -1.21126,4.76783 -2.39366,9.54296 -3.60326,14.31122 -6.61146,24.14954 -15.07346,47.83107 -24.70996,70.93735 -2.68094,6.4283 -5.57381,12.76615 -8.36072,19.14923 -16.61621,36.12795 -36.62064,70.84131 -61.07315,102.27159 -5.04512,6.48478 -10.4781,12.65828 -15.71715,18.98741 -21.17852,24.18829 -45.3571,45.6116 -72.08782,63.48487 -13.28399,8.88223 -22.44248,13.8083 -36.11766,21.60841 -46.02446,26.3486 -8.7619,91.43702 37.26256,65.08841 v 0 c 16.58388,-9.52442 26.42588,-14.80545 42.64841,-25.81048 31.9613,-21.6819 60.89172,-47.53303 86.19744,-76.70308 6.1495,-7.50463 12.52062,-14.83301 18.4485,-22.51391 27.66998,-35.85272 50.38214,-75.34648 69.2041,-116.47422 3.11212,-7.16607 6.33844,-14.28363 9.33637,-21.49822 10.83781,-26.08144 20.28998,-52.82229 27.66712,-80.08841 1.74111,-6.86563 2.08027,-8.15477 3.63566,-14.43943 0.48625,-1.96471 1.14369,-3.89573 1.44878,-5.8966 0.61953,-4.06301 2.04137,-8.213 1.31962,-12.25911 -4.5998,-25.78646 -6.64748,-21.69729 -26.49738,-36.53134 -3.50375,-0.78494 -6.9753,-1.7308 -10.51125,-2.35482 -1.6908,-0.29838 -7.92361,-0.4348 -9.57156,-0.46026 -7.37366,-0.1139 -14.75041,0.006 -22.12405,0.0141 -29.42193,0.37912 -58.8349,1.52717 -88.18036,3.72716 -18.13569,1.47807 -36.34053,2.89939 -54.21977,6.42766 -52.50236,7.48349 -41.91911,81.73303 10.58325,74.24955 z"/>
<path d="m 716.25907,569.48749 c -0.0654,0.016 -0.24862,0.006 -0.19613,0.0479 3.39347,2.72289 7.03956,5.11588 10.51066,7.73909 2.77817,2.09954 5.53086,4.23325 8.25592,6.40129 4.74993,3.77901 18.15128,14.80351 22.31653,18.21969 21.61523,18.42267 43.70796,36.50261 63.34056,57.0925 3.08302,3.23335 5.99433,6.62617 8.99149,9.93925 7.60053,9.58335 16.22213,19.59332 18.94639,31.87263 14.73574,50.94465 86.78236,30.10516 72.04662,-20.83949 v 0 c -2.28889,-7.47115 -2.70216,-9.58678 -6.03479,-17.01093 -7.34081,-16.35323 -17.83849,-30.97931 -29.49857,-44.51208 -3.81633,-4.17108 -7.5335,-8.43509 -11.44899,-12.51322 -21.39987,-22.28886 -45.25037,-42.06815 -68.78328,-62.0209 -16.82081,-13.79371 -33.50828,-27.89599 -51.73959,-39.81916 -46.24721,-25.95564 -82.95403,39.44779 -36.70682,65.40343 z"/>
<path d="m 395.0792,941.08981 c 21.83443,-2.71683 43.58886,-6.05167 65.38117,-9.08831 44.70744,-5.84755 89.58178,-10.56315 134.54564,-13.94511 10.4864,-0.78873 20.98461,-1.41161 31.47692,-2.11742 47.94259,-2.54269 96.03463,-4.27213 144.03184,-2.10295 7.02393,0.31744 14.03533,0.86886 21.05299,1.30329 18.16286,1.27471 36.13833,4.05744 53.95244,7.72669 51.96535,10.58785 66.93883,-62.90225 14.97349,-73.4901 v 0 c -21.25827,-4.29384 -42.69064,-7.63906 -64.35476,-9.09715 -7.78518,-0.46947 -15.56384,-1.06382 -23.35556,-1.40841 -50.43608,-2.23055 -100.96861,-0.47019 -151.34554,2.23851 -10.88964,0.73578 -21.78534,1.38671 -32.66892,2.20734 -46.33958,3.49404 -92.58624,8.3635 -138.66051,14.40317 -21.25687,2.96269 -42.47792,6.20941 -63.77289,8.88187 -52.67138,6.18272 -43.92769,80.6713 8.74369,74.48858 z"/>
</svg>
