<?xml version="1.0" ?>
<svg xmlns="http://www.w3.org/2000/svg" viewBox="0 0 1000 1000">
<path d="m 119.14979,336.30083 c 14.03117,-4.94037 28.25117,-9.29223 42.71931,-12.78057 5.69754,-1.3737 11.43957,-2.55584 17.15935,-3.83376 38.92909,-7.89625 78.60209,-11.39243 118.25942,-12.72453 8.62913,-0.28985 17.26453,-0.34606 25.8968,-0.5191 17.73115,0.1459 29.19751,0.029 46.71496,0.96007 6.909,0.3672 13.80019,1.01544 20.70028,1.52317 52.8952,3.8207 58.2985,-70.98441 5.4033,-74.80511 v 0 c -7.86279,-0.55863 -15.71631,-1.26806 -23.58837,-1.67588 -19.17684,-0.99348 -31.35299,-0.84929 -50.77256,-0.98639 -9.30481,0.19593 -18.61314,0.26564 -27.91443,0.58778 -43.9963,1.52375 -87.99242,5.57992 -131.15403,14.46728 -6.59457,1.49126 -13.2144,2.87486 -19.7837,4.47377 -15.26517,3.71542 -30.35297,8.17681 -45.14722,13.46305 -50.805775,15.20767 -29.298883,87.05789 21.50689,71.85022 z"/>
<path d="m 232.96576,119.70075 c 1.09418,34.52977 0.65735,69.09137 0.44807,103.63146 -1.3828,91.90295 -1.31987,183.81566 -1.59637,275.72581 -0.74762,93.04812 -2.56654,186.12234 -7.76257,279.04106 -0.91873,16.42924 -2.07049,32.84462 -3.10573,49.26693 -4.46899,57.9234 -1.99316,29.81859 -7.32539,84.32336 -5.15325,52.78204 69.49183,60.06984 74.64508,7.2878 v 0 c 5.4937,-56.37912 2.95256,-27.41579 7.53206,-86.89796 1.05444,-16.76443 2.22736,-33.52182 3.1633,-50.29329 5.24973,-94.07175 7.10236,-188.29991 7.85291,-282.50235 0.27609,-91.83416 0.21387,-183.67083 1.59534,-275.49779 0.21523,-35.65444 0.65569,-71.33081 -0.50236,-106.97395 -2.04277,-52.99365 -76.98711,-50.104736 -74.94434,2.88892 z"/>
<path d="m 226.06975,285.10836 c -7.39891,19.45753 -13.31143,39.40447 -19.52544,59.25761 -2.58398,8.25557 -5.25503,16.48362 -7.88255,24.72543 -18.91474,58.10454 -40.89805,115.2235 -65.1259,171.31668 -5.44786,12.61309 -11.17151,25.10526 -16.75726,37.65789 -5.80846,12.24627 -11.49802,24.54964 -17.425388,36.7388 -13.00244,26.7385 -20.968497,42.17152 -35.090363,68.11963 -5.038684,9.25829 -27.253296,48.7928 -32.785384,58.6544 -25.9460845,46.25257 39.464934,82.94588 65.411018,36.6933 v 0 c 6.266827,-11.17166 27.981087,-49.80639 33.587597,-60.12259 14.62574,-26.91195 23.21189,-43.55419 36.64984,-71.22216 6.18526,-12.7351 12.12093,-25.58994 18.18139,-38.3849 5.80268,-13.05515 11.74706,-26.04823 17.40804,-39.16544 25.08346,-58.12154 47.82178,-117.31034 67.40525,-177.51206 2.71453,-8.52044 5.47272,-17.02709 8.14358,-25.56132 5.89119,-18.82422 11.45529,-37.749 18.51233,-56.1842 17.6855,-49.99723 -53.02126,-75.00831 -70.70676,-25.01107 z"/>
<path d="m 281.33755,427.88601 c 14.26895,7.43025 28.87126,14.25086 42.56339,22.73817 3.88898,2.41066 7.6685,4.99361 11.50276,7.49041 15.35197,10.42979 30.52831,21.2997 44.15254,33.95551 5.55776,5.16272 6.9386,6.94771 11.69446,12.30758 35.54505,39.35797 91.20561,-10.91032 55.66057,-50.26829 v 0 c -7.68129,-8.4116 -9.2928,-10.5205 -18.05006,-18.55495 -16.33781,-14.98931 -34.36346,-28.029 -52.7159,-40.40906 -4.82189,-3.1038 -9.57551,-6.31633 -14.46568,-9.3114 -14.72541,-9.01883 -30.26458,-16.52823 -45.60259,-24.41728 -47.0009,-24.56452 -81.74038,41.90479 -34.73949,66.46931 z"/>
<path d="m 490.95294,230.16046 c 23.13587,-4.805 46.56761,-8.21651 69.92742,-11.74672 39.96865,-5.51918 80.11934,-9.88427 120.38144,-12.59203 24.73513,-1.66352 34.00534,-1.82104 58.47776,-2.71613 26.94177,-1.04681 53.87782,-0.36316 80.77668,1.20444 52.94537,3.04765 57.2554,-71.82841 4.31003,-74.87606 v 0 c -29.2543,-1.66525 -58.54774,-2.42188 -87.84633,-1.2776 -25.97668,0.9625 -35.30429,1.116 -61.59707,2.89612 -42.04835,2.84682 -83.98032,7.41597 -125.72022,13.20492 -24.06789,3.6442 -21.83688,3.19334 -43.79266,6.8963 -11.44355,1.93001 -22.98803,3.71124 -34.25083,6.56126 -1.46067,0.36962 -2.8904,0.85225 -4.3356,1.27837 -50.32276,16.73678 -26.65338,87.90391 23.66938,71.16713 z"/>
<path d="m 438.84545,321.16011 c 0.74714,24.28078 0.9107,48.56999 1.69745,72.85187 1.68136,44.65391 8.33999,88.88407 15.17494,132.97723 2.08191,13.65923 4.1848,27.31524 6.27424,40.97332 8.01983,52.42311 82.1573,41.08136 74.13748,-11.34174 v 0 c -2.09712,-13.70813 -4.20763,-27.41419 -6.29736,-41.12344 -6.37428,-41.09756 -12.69241,-82.31203 -14.32916,-123.93025 -0.80809,-24.60429 -0.92074,-49.21792 -1.7353,-73.82015 -2.41347,-52.97806 -77.33576,-49.5649 -74.92229,3.41316 z"/>
<path d="m 576.66747,374.20742 c -0.13723,0.1406 -0.59318,0.49702 -0.41169,0.42179 10.30639,-4.27193 -1.41578,-0.2269 12.0262,-5.16451 13.51499,-4.96443 27.35628,-8.40096 41.3191,-11.83443 34.74605,-7.65664 70.10764,-12.46452 105.59959,-14.8803 6.59943,-0.44919 13.21222,-0.67375 19.81834,-1.01062 25.54222,-0.92546 51.11196,0.15285 76.49119,3.09426 3.95959,0.46119 7.87702,1.19795 11.77535,2.01638 0.72908,0.15307 1.4591,0.30262 2.18387,0.47496 0.15407,0.0366 0.60571,0.18194 0.45032,0.15141 -0.39898,-0.0784 -0.789,-0.19696 -1.1835,-0.29544 -11.92952,-5.93889 -10.58197,-3.79428 -20.1077,-17.33352 -1.26219,-1.79398 -1.40699,-4.1651 -2.33849,-6.15099 -0.0862,-0.18376 -0.28546,0.32867 -0.2975,0.53128 -0.12191,2.05283 -0.0425,4.1129 -0.10039,6.16854 -0.0889,3.15804 -0.22673,6.31452 -0.34009,9.47178 -1.74688,35.47707 -3.86292,70.93824 -6.16355,106.38369 -2.25394,26.63488 -4.64851,53.5208 -11.50264,79.45555 -1.53701,5.81575 -3.54515,11.49667 -5.31772,17.245 -15.31177,50.7745 56.49421,72.42862 71.80598,21.65413 v 0 c 2.25899,-7.6205 4.80063,-15.16284 6.77697,-22.86148 7.60693,-29.63199 10.59368,-60.2368 13.08012,-90.63842 2.34656,-36.19686 4.51688,-72.40929 6.2758,-108.63955 0.18543,-5.51163 0.61965,-15.2553 0.43483,-20.99619 -0.10997,-3.41605 -0.0867,-6.86646 -0.69334,-10.23001 -0.77336,-4.28771 -1.31469,-8.80278 -3.42686,-12.61347 -9.03597,-16.30237 -10.43718,-15.09858 -23.90917,-22.44288 -9.39062,-2.95202 -19.10842,-4.63143 -28.8667,-5.86348 -29.5097,-3.34816 -59.22771,-4.65654 -88.92064,-3.4804 -7.41399,0.392 -14.83538,0.66284 -22.24197,1.17601 -39.45347,2.73359 -78.75189,8.18608 -117.35135,16.82294 -6.72034,1.68137 -13.47769,3.22122 -20.16103,5.04411 -18.90606,5.15663 -37.71196,11.48564 -54.9047,21.00839 -44.7708,28.42666 -4.56943,91.74214 40.20137,63.31547 z"/>
<path d="m 559.50457,103.53894 c 1.20346,32.94691 1.19345,65.93594 1.6864,98.90134 1.47072,71.51596 1.75219,143.04543 1.73619,214.57387 -0.17414,43.83309 -0.005,87.66574 0.22494,131.49815 0.27861,53.03228 75.27757,52.63827 74.99897,-0.39401 v 0 c -0.22963,-43.69557 -0.39801,-87.39136 -0.22391,-131.08761 0.0156,-71.90795 -0.26797,-143.81696 -1.74458,-215.71239 -0.51461,-34.37656 -0.43793,-68.7833 -1.86947,-103.135054 -3.78706,-52.89762 -78.59559,-47.541913 -74.80854,5.355704 z"/>
<path d="m 688.24666,70.754584 c 0,25.117245 0,50.234486 0,75.351736 0.0993,63.449 0.45436,126.89541 0.38403,190.34489 0.0332,47.97556 -0.16263,95.96103 -2.06699,143.90585 -0.43162,10.86637 -0.8806,21.7341 -1.5797,32.58655 -0.63816,9.90639 -1.62101,19.78757 -2.43152,29.68136 -4.29423,52.85887 70.4595,58.93183 74.75373,6.07296 v 0 c 0.86347,-10.71165 1.90442,-21.41046 2.59041,-32.13494 0.72096,-11.27132 1.1839,-22.55829 1.62987,-33.84384 1.92466,-48.70434 2.13967,-97.44954 2.10416,-146.18493 0.0702,-63.47715 -0.28341,-126.95124 -0.38399,-190.4279 0,-25.11725 0,-50.234491 0,-75.351736 0,-53.033008 -75,-53.033008 -75,0 z"/>
<path d="m 527.90921,495.39961 c 21.70108,-8.16685 44.59055,-12.25024 67.29036,-16.51114 33.22712,-5.59742 66.66565,-10.06892 100.2653,-12.70713 21.87988,-1.71799 28.10093,-1.73359 49.76507,-2.54285 19.29116,-0.49773 38.58638,-0.27595 57.8778,-0.002 53.02776,0.74584 54.08253,-74.24675 1.05476,-74.99258 v 0 c -20.59012,-0.28661 -41.18446,-0.51379 -61.7737,0.0481 -23.55873,0.90515 -30.07205,0.9203 -53.86666,2.81106 -35.93189,2.8552 -71.69402,7.64658 -107.22206,13.68431 -29.41625,5.5712 -59.28379,11.02253 -86.87192,23.09992 -47.45534,23.67468 -13.97429,90.78667 33.48105,67.112 z"/>
<path d="m 534.14911,610.98781 c 20.89759,-7.2682 43.05371,-10.13459 64.84449,-13.36538 38.27663,-5.32859 76.8296,-8.52682 115.44411,-9.96426 7.39856,-0.27541 14.80209,-0.39568 22.20313,-0.59351 23.0733,-0.33039 46.13035,0.72017 69.16671,1.86879 52.96755,2.63408 56.69271,-72.27335 3.72516,-74.90743 v 0 c -24.95308,-1.23783 -49.9295,-2.34148 -74.92196,-1.93388 -7.90704,0.21667 -15.81674,0.35162 -23.72112,0.65001 -41.12724,1.55253 -82.18674,5.00075 -122.95117,10.69953 -27.66538,4.14206 -55.73516,8.09771 -82.03231,18.0671 -49.12909,19.97078 -20.88613,89.44981 28.24296,69.47903 z"/>
<path d="m 519.51253,684.30199 c -0.58296,19.42556 0.0845,38.86278 0.6171,58.28138 1.33216,39.86459 1.91905,79.74735 2.33386,119.63027 0.17224,21.13331 0.0995,11.05312 0.22327,30.24053 0.34237,53.0319 75.3408,52.54772 74.99843,-0.48419 v 0 c -0.12513,-19.37121 -0.0516,-9.19221 -0.22576,-30.53695 -0.41989,-40.30926 -1.01394,-80.61837 -2.35808,-120.90917 -0.51542,-18.73319 -1.15912,-37.48174 -0.58882,-56.22187 0,-53.03301 -75,-53.03301 -75,0 z"/>
<path d="m 657.62241,696.31675 c 13.75951,-5.44238 28.43257,-7.63563 43.05356,-9.2148 15.2915,-1.34289 30.67156,-1.17774 45.93643,0.33992 2.53604,0.32148 5.08695,0.56571 7.61239,0.97022 0.0769,0.0123 -0.15717,0.0163 -0.23368,0.002 -0.75713,-0.14482 -1.54902,-0.18698 -2.26238,-0.4791 -3.38972,-1.38807 -6.67004,-3.02956 -10.00506,-4.54434 -3.90693,-4.33977 -7.81386,-8.67954 -11.72079,-13.01932 -0.72303,-1.67996 -1.05077,-3.59268 -2.1691,-5.03988 -0.46111,-0.59671 -0.0142,1.50901 0.0226,2.26222 0.12747,2.60918 0.34591,5.21341 0.47007,7.82274 0.55098,11.57904 0.50289,14.15398 0.74402,26.54865 0.42213,44.13562 -2.06043,88.22881 -4.95337,132.2498 -1.44593,19.76701 -3.0464,39.55141 -6.34199,59.11305 -0.79124,4.69652 -1.83354,9.34728 -2.7503,14.02093 -10.05404,52.07126 63.58584,66.28981 73.63988,14.21855 v 0 c 1.11419,-5.84495 2.37428,-11.66397 3.34256,-17.53486 3.54407,-21.48842 5.38493,-43.19964 6.94884,-64.90592 3.02526,-46.15391 5.59538,-92.38462 5.09945,-138.65811 -0.27583,-13.51047 -0.32419,-27.11498 -1.59645,-40.58426 -0.58102,-6.15123 -1.7288,-16.79934 -4.89335,-22.07442 -3.57652,-5.96182 -8.8138,-10.75435 -13.2207,-16.13153 -3.94378,-1.93522 -7.78597,-4.0929 -11.83133,-5.80565 -1.46086,-0.61851 -3.06643,-0.8189 -4.61617,-1.15801 -4.62168,-1.01129 -9.38286,-1.27503 -14.0569,-1.9233 -20.49727,-1.94723 -41.13912,-2.18509 -61.65424,-0.20702 -4.6058,0.54389 -9.22755,0.96644 -13.81739,1.63168 -17.26032,2.50164 -34.33215,6.70231 -50.511,13.26009 -48.67794,21.04658 -18.91359,89.88758 29.76435,68.841 z"/>
<path d="m 585.41444,814.07052 c 16.7474,-4.1096 33.83835,-6.26504 50.97622,-7.91276 14.96603,-1.26703 29.9627,-0.52273 44.91302,0.46239 52.92412,3.39666 57.72772,-71.44935 4.80359,-74.84601 v 0 c -18.98277,-1.19172 -38.0235,-1.97877 -57.01162,-0.26076 -18.78524,1.86068 -37.63182,3.99509 -55.98465,8.57318 -52.31455,8.69985 -40.01112,82.6838 12.30344,73.98396 z"/>
<path d="m 569.81201,939.55281 c 19.70988,-3.25651 39.63254,-4.92779 59.52901,-6.5476 27.49138,-2.21237 55.08064,-1.69706 82.60977,-0.71984 53.00035,1.8609 55.63206,-73.09291 2.63171,-74.95381 v 0 c -30.44368,-1.05809 -60.95085,-1.54948 -91.34889,0.92273 -21.52084,1.76417 -43.06614,3.60173 -64.38862,7.10469 -52.46296,7.75486 -41.49594,81.94869 10.96702,74.19383 z"/>
</svg>
