<?xml version="1.0" ?>
<svg xmlns="http://www.w3.org/2000/svg" width="1000" height="1000">
<path d="m 109.83527,329.61455 c 18.47607,-6.06869 37.45273,-10.4106 56.40527,-14.6806 34.67349,-6.89554 69.99716,-10.95699 105.37161,-11.21745 6.72507,-0.0495 13.44896,0.20411 20.17344,0.30617 23.90545,0.64789 47.53578,4.29716 71.03739,8.43297 52.23371,9.17277 65.20595,-64.69685 12.97224,-73.86962 v 0 c -27.45507,-4.81216 -55.08094,-8.895 -83.00398,-9.55661 -7.81437,-0.0929 -15.62861,-0.36026 -23.44311,-0.27873 -40.17182,0.41912 -80.27668,5.06441 -119.63156,13.02619 -21.36043,4.83577 -42.73646,9.78641 -63.550674,16.67055 -50.32276,16.73678 -26.653378,87.90391 23.669374,71.16713 z"/>
<path d="m 202.07504,105.46737 c 0.86527,14.48285 1.15546,28.99675 1.52752,43.49963 0.72862,44.91961 1.37378,89.83915 2.30064,134.75554 1.65347,65.19031 1.14731,130.39931 0.31179,195.59593 -0.85497,65.88853 -1.34999,131.78037 -2.30332,197.66781 -1.04288,53.49521 -2.45785,106.98153 -3.00542,160.48516 -0.0371,6.39632 -0.0743,12.79264 -0.11143,19.18896 -0.30696,53.03212 74.69178,53.46622 74.99874,0.4341 v 0 c 0.0363,-6.28601 0.0725,-12.57202 0.10879,-18.85803 0.54289,-53.39705 1.97003,-106.77656 3.00147,-160.16534 0.95356,-65.92894 1.45051,-131.86226 2.30502,-197.79231 0.84496,-66.03257 1.3493,-132.07763 -0.32161,-198.10377 -0.92967,-45.04212 -1.57045,-90.08749 -2.30937,-135.1327 -0.44114,-17.17352 -0.63702,-34.3892 -2.16363,-51.50904 -7.02444,-52.565743 -81.36363,-42.631687 -74.33919,9.93406 z"/>
<path d="m 201.77153,299.99484 c -10.00967,19.03439 -16.65222,39.54085 -23.73962,59.76912 -2.53709,7.24116 -5.10946,14.46991 -7.66419,21.70486 -17.80244,49.93437 -36.51949,99.61178 -58.73865,147.77691 -4.96222,10.75675 -10.25334,21.35871 -15.380006,32.03806 -14.880398,29.74623 -31.646035,58.47711 -48.271765,87.26255 -26.519271,45.92634 38.430375,83.43025 64.949641,37.50392 v 0 c 17.57672,-30.44686 35.27837,-60.84932 50.95093,-92.34202 5.44653,-11.37353 11.06573,-22.66598 16.3396,-34.12061 22.98924,-49.93173 42.43019,-101.39585 60.87142,-153.1485 2.60054,-7.36587 5.22026,-14.725 7.80164,-22.09761 5.84703,-16.69956 11.1429,-33.71001 19.28627,-49.48494 24.65097,-46.95561 -41.7543,-81.81735 -66.40527,-34.86174 z"/>
<path d="m 262.52829,441.54694 c 16.7744,7.16044 32.27166,16.85335 47.65963,26.55185 18.38086,11.50067 35.47091,24.81196 51.89445,38.92021 40.26995,34.50842 89.07222,-22.44189 48.80227,-56.95031 v 0 c -19.25135,-16.46316 -39.2703,-32.01116 -60.77538,-45.46231 -17.48498,-10.97097 -35.09962,-21.96947 -54.10006,-30.1715 -47.45539,-23.67457 -80.9363,43.43749 -33.48091,67.11206 z"/>
<path d="m 528.62038,90.648562 c -0.72881,19.463748 1.97291,38.863248 3.9485,58.180178 0.68829,6.72996 1.34181,13.46342 2.01272,20.19513 3.67829,42.37363 6.43246,84.81385 10.43329,127.1608 4.99177,52.79756 79.65879,45.73812 74.66702,-7.05943 v 0 c -4.01866,-42.47327 -6.73589,-85.04455 -10.47026,-127.54143 -0.68517,-6.87089 -1.35257,-13.74357 -2.05552,-20.61266 -1.56054,-15.24945 -3.74932,-30.55036 -3.66575,-45.908625 3.12114,-52.941085 -71.74886,-57.355048 -74.87,-4.413963 z"/>
<path d="m 675.43174,95.08116 c 3.7354,13.86529 5.50402,28.34475 6.37006,42.65863 0.34164,5.64658 0.38218,11.30735 0.57327,16.96102 -0.17137,6.49287 -0.18873,12.99163 -0.51412,19.47861 -0.67092,13.37508 -2.49307,33.8694 -4.01428,46.94394 -1.93248,16.60933 -4.25539,32.80165 -7.68192,49.17221 -1.46638,7.0058 -3.37776,13.91103 -5.06663,20.86654 -1.77677,5.71547 -3.55353,11.43093 -5.3303,17.1464 -15.53884,50.70547 56.16952,72.68071 71.70836,21.97525 v 0 c 2.18558,-7.21424 4.37117,-14.42848 6.55675,-21.64272 1.98788,-8.38661 4.22579,-16.71788 5.96365,-25.15984 3.75483,-18.23977 6.36406,-36.53144 8.49054,-55.02279 1.71525,-14.91542 3.67989,-37.4706 4.35415,-52.56117 0.35701,-7.9903 0.32117,-15.99332 0.48176,-23.98998 -0.28248,-7.05165 -0.38335,-14.11291 -0.84744,-21.15493 -1.2614,-19.1403 -3.79615,-38.638087 -9.19758,-57.095311 -0.64201,-2.193824 -1.48807,-4.322709 -2.23211,-6.484064 -19.73408,-49.224649 -89.34824,-21.316444 -69.61416,27.908205 z"/>
<path d="m 494.23047,221.98294 c 18.88127,-7.67675 38.96003,-11.84931 58.79527,-16.19846 43.67664,-8.58044 88.0023,-13.84086 132.45106,-16.12946 9.09279,-0.46817 18.19815,-0.64793 27.29722,-0.9719 21.903,-0.2035 43.86591,-0.0411 65.70163,1.91182 12.16423,1.08795 16.6271,2.01417 28.22842,3.91157 52.36233,8.4075 64.25232,-65.64403 11.88999,-74.05152 v 0 c -15.00362,-2.37349 -19.527,-3.33685 -35.26544,-4.70288 -24.35566,-2.11396 -48.84569,-2.30543 -73.27198,-2.01974 -9.86755,0.36368 -19.74202,0.57257 -29.60265,1.09103 -48.19233,2.53391 -96.24582,8.31177 -143.58304,17.72159 -25.04644,5.55349 -50.38021,11.04268 -74.01204,21.31436 -48.17066,22.18304 -16.79909,90.30664 31.37156,68.12359 z"/>
<path d="m 431.21485,412.7297 c 21.12381,-6.46235 42.76431,-11.13939 64.28078,-16.08552 42.04455,-9.00295 84.63672,-15.67258 127.47032,-19.52756 9.96541,-0.89688 19.95514,-1.49914 29.93272,-2.24871 49.6844,-2.99112 99.52146,-2.87313 149.21837,-0.24582 8.64738,0.45716 17.28336,1.10917 25.92505,1.66376 25.69016,2.21757 51.49529,4.32236 76.85345,9.19385 8.32928,1.60011 10.62354,2.31652 18.24322,4.31518 51.35104,13.25029 70.08978,-59.37106 18.73874,-72.62135 v 0 c -10.36106,-2.64171 -13.21184,-3.52227 -24.3584,-5.62384 -27.96369,-5.27225 -56.37442,-7.74847 -84.69884,-10.11148 -9.18022,-0.58314 -18.35453,-1.26815 -27.54065,-1.74941 -52.63715,-2.75766 -105.42269,-2.82458 -158.04177,0.39305 -10.72626,0.81757 -21.46569,1.47775 -32.17879,2.45273 -45.827,4.17063 -91.39349,11.33611 -136.37065,21.01708 -14.89947,3.42704 -20.81926,4.73553 -35.32176,8.26568 -11.38703,2.77179 -22.82441,5.54572 -33.98201,9.16058 -2.15749,0.69899 -4.27522,1.5152 -6.41283,2.27279 -49.12907,19.97086 -20.88601,89.44985 28.24305,69.47899 z"/>
<path d="m 427.3882,487.09956 c 2.58218,22.40727 6.00179,44.69598 9.74669,66.93423 1.2054,6.70284 2.41402,13.4051 3.61619,20.10852 3.69207,20.58725 7.24955,41.17543 10.1526,61.89204 1.85624,13.24646 3.15976,24.41513 4.77077,37.63835 2.07133,16.56119 3.93031,33.14662 5.26067,49.78396 4.26797,52.86099 79.02471,46.82516 74.75673,-6.03583 v 0 c -1.43694,-17.65105 -3.35186,-35.25465 -5.56874,-52.82536 -1.73802,-14.24414 -3.02255,-25.27633 -5.03581,-39.59696 -3.01784,-21.46641 -6.69375,-42.80536 -10.52177,-64.13878 -1.1549,-6.43625 -2.31759,-12.87109 -3.47638,-19.30663 -3.52661,-20.84835 -6.72544,-41.74672 -9.1617,-62.75416 -5.86942,-52.70721 -80.40867,-44.40659 -74.53925,8.30062 z"/>
<path d="m 510.46293,540.94006 c 21.30397,-5.99113 42.85329,-11.09379 64.3359,-16.4005 26.25994,-6.56636 52.79766,-12.04311 79.59455,-15.90642 16.26106,-2.34436 23.40283,-2.96611 39.62856,-4.7093 27.66369,-2.74524 55.4726,-3.97861 83.25607,-2.93243 9.86623,0.42782 19.61679,1.97502 29.34184,3.58706 0.76753,0.12496 1.53506,0.24992 2.30259,0.37488 0.11154,0.0304 0.44819,0.11251 0.3346,0.0911 -3.93668,-0.74286 -7.29762,-2.4644 -10.68255,-4.54011 -3.63445,-2.54349 -6.47668,-5.65023 -8.84973,-9.38358 -0.5991,-0.94253 -1.0473,-1.97291 -1.57796,-2.9556 -0.11487,-0.21272 -0.21779,-0.82699 -0.35853,-0.63043 -0.1958,0.27344 0.0603,0.66993 0.0904,1.00489 1.95869,18.44546 0.79464,36.99554 -0.57259,55.43081 -2.9255,33.58782 -12.07985,66.10317 -21.2065,98.41513 -2.05378,6.71874 -4.48296,15.96637 -7.78917,22.45966 -1.23036,2.41638 -2.99383,4.52192 -4.49074,6.78287 -26.73118,45.80332 38.04449,83.60692 64.77567,37.80361 v 0 c 3.19919,-5.78571 6.76707,-11.38237 9.59755,-17.35711 4.26475,-9.00228 7.19318,-19.81089 10.08599,-29.31381 10.49474,-37.1986 20.68647,-74.69592 23.83164,-113.37775 1.80172,-25.43324 3.27846,-51.18422 -0.88007,-76.48042 -0.52765,-2.28153 -0.95984,-4.58727 -1.58294,-6.84461 -2.9325,-10.62362 -8.59942,-19.95826 -17.49481,-26.59414 -1.40236,-0.90744 -2.7517,-1.90259 -4.20707,-2.72231 -5.89491,-3.32024 -12.39159,-5.23059 -19.06622,-6.15429 -12.88941,-2.13478 -25.83362,-4.02538 -38.90842,-4.54746 -31.37003,-1.0833 -62.76443,0.12884 -93.99617,3.31702 -17.86168,1.93556 -25.41301,2.59261 -43.37166,5.20887 -28.87695,4.20687 -57.48341,10.0947 -85.79088,17.1626 -22.58087,5.57829 -45.23226,10.94141 -67.61195,17.28891 -50.85716,15.03493 -29.59456,86.95781 21.2626,71.92288 z"/>
<path d="m 625.46415,371.86352 c -3.03345,21.78423 -1.90268,43.95905 -1.61771,65.88529 0.74802,51.69145 0.92681,103.38854 1.07639,155.08444 0.28574,29.6981 -0.0547,59.39018 -0.55744,89.08288 -0.8922,53.02551 74.09718,54.28728 74.98939,1.26177 v 0 c 0.50481,-30.18567 0.85803,-60.37066 0.56773,-90.56172 -0.15041,-51.94921 -0.33098,-103.8996 -1.08243,-155.84433 -0.22198,-16.99886 -0.891,-34.08524 0.3338,-51.05637 9.79481,-52.12065 -63.91492,-65.9726 -73.70973,-13.85196 z"/>
<path d="m 507.51661,656.08265 c 24.06546,-5.10858 47.82947,-11.53234 71.69318,-17.49124 29.30747,-6.97265 59.23016,-11.2154 89.32168,-12.65373 19.78439,-0.94567 27.49083,-0.53765 47.13471,-0.25826 19.018,0.7258 38.04313,2.07199 56.89587,4.74741 9.49952,1.34809 12.53293,2.12701 21.32526,3.99672 51.91179,10.8474 67.25232,-62.56696 15.34053,-73.41436 v 0 c -11.74953,-2.42276 -15.13081,-3.29544 -27.72138,-5.0471 -21.49831,-2.99095 -43.18518,-4.508 -64.86691,-5.27635 -22.41859,-0.26624 -30.93259,-0.7113 -53.59303,0.45277 -34.3689,1.76554 -68.53716,6.69297 -102.00887,14.68771 -23.41656,5.84868 -46.73383,12.16032 -70.34981,17.16887 -51.68072,11.89973 -34.85194,84.9873 16.82877,73.08756 z"/>
<path d="m 506.82028,761.7491 c 18.9521,-3.98715 37.71351,-8.81951 56.60585,-13.08524 23.57726,-5.08711 47.43987,-8.93156 71.49542,-10.83648 15.24108,-1.20692 23.53219,-1.25863 38.82801,-1.70702 29.88954,-0.59543 59.76917,0.69646 89.61586,2.1435 52.97087,2.56641 56.60033,-72.34571 3.62946,-74.91213 v 0 c -31.80906,-1.54013 -63.65427,-2.87768 -95.50828,-2.19722 -17.84472,0.55262 -26.23511,0.58927 -44.12566,2.05492 -27.07216,2.21785 -53.93179,6.55489 -80.46862,12.29957 -18.09344,4.09305 -36.07646,8.66167 -54.2052,12.58377 -52.08288,9.99366 -37.94972,83.64998 14.13316,73.65633 z"/>
<path d="m 550.70102,763.25687 c -2.17992,1.76974 -1.7341,1.36946 -5.17829,4.87085 -12.00641,12.20581 -23.51601,24.93983 -34.91256,37.70884 -9.91918,11.62917 -19.43979,23.58795 -29.04527,35.47485 -33.33203,41.24895 25.0028,88.38756 58.33482,47.13861 v 0 c 8.84665,-10.94791 17.62101,-21.95659 26.70121,-32.7132 12.6464,-14.21321 25.45238,-28.33956 39.15368,-41.54763 36.01459,-38.92877 -19.039,-89.86109 -55.05359,-50.93232 z"/>
<path d="m 757.00355,837.20778 c -0.0389,0.0512 -0.16765,0.11419 -0.11676,0.15345 0.92656,0.71465 1.92883,1.32536 2.89325,1.98804 1.68468,1.26162 3.41023,2.47043 5.05403,3.78487 7.57832,6.05989 14.41962,12.85706 21.29642,19.6825 13.35265,13.66914 25.99876,28.00745 38.13498,42.76109 0.95184,1.20213 1.90369,2.40425 2.85554,3.60638 32.97422,41.53554 91.71434,-5.09706 58.74011,-46.63259 v 0 c -1.22988,-1.54606 -2.45976,-3.09212 -3.68965,-4.63818 -13.78229,-16.73386 -28.1435,-32.99755 -43.34365,-48.46327 -15.94449,-15.68085 -32.41107,-31.56241 -52.77516,-41.38814 -48.89351,-20.54082 -77.94261,48.60504 -29.04911,69.14585 z"/>
</svg>
