<?xml version="1.0" ?>
<svg xmlns="http://www.w3.org/2000/svg" viewBox="0 0 1000 1000">
<path d="m 133.62224,319.31989 c 28.94653,-9.23434 59.18584,-13.35946 89.18911,-17.46956 28.74859,-3.40345 57.63912,-5.94995 86.60614,-6.16176 11.83894,-0.0866 15.56189,0.22116 26.7203,0.74734 52.97864,2.40079 56.37387,-72.52232 3.39523,-74.92311 v 0 c -13.54146,-0.5932 -17.6803,-0.93387 -31.97587,-0.80115 -31.76704,0.29494 -63.45389,3.05571 -94.97791,6.83993 -34.56001,4.78239 -69.34031,9.76008 -102.62636,20.60117 -50.322762,16.73676 -26.653407,87.9039 23.66936,71.16714 z"/>
<path d="m 215.9214,138.22365 c 0.59059,38.74463 3.10671,77.44882 5.24733,116.13297 4.52472,75.6231 6.83961,151.36781 6.79081,227.12702 -0.0118,18.34232 -0.27284,36.68363 -0.40925,55.02545 -1.6081,108.12864 -7.86986,216.10728 -12.36794,324.13663 -2.20593,52.98711 72.72916,56.10678 74.93509,3.11967 v 0 c 4.53239,-108.88445 10.84649,-217.71789 12.43081,-326.70342 0.13657,-18.68849 0.40005,-37.37648 0.40971,-56.06547 0.0398,-76.97884 -2.31371,-153.94308 -6.90381,-230.78402 -2.06455,-37.30426 -4.49235,-74.6286 -5.13275,-111.98883 0,-53.033004 -75,-53.033004 -75,0 z"/>
<path d="m 210.70956,291.53044 c 0.3226,12.88156 -3.9538,25.3003 -7.59739,37.47538 -2.02453,6.76497 -4.14589,13.50059 -6.21883,20.25088 -15.80439,48.24124 -37.06965,94.5207 -59.95504,139.76696 -5.55792,10.98846 -11.38176,21.84037 -17.07263,32.76056 -21.249671,40.19199 -44.772206,79.11519 -68.004137,118.17538 -27.10955,45.58039 37.350861,83.91909 64.460407,38.33869 v 0 c 23.9528,-40.27342 48.18168,-80.41913 70.06466,-121.87355 5.96718,-11.46703 12.0735,-22.86273 17.90154,-34.40109 24.64198,-48.78625 47.40163,-98.73615 64.30929,-150.77779 7.93946,-25.92302 17.46664,-52.23467 17.11213,-79.71542 0,-53.03301 -75,-53.03301 -75,0 z"/>
<path d="m 268.28458,402.0442 c 17.11672,7.26856 32.72646,17.7136 48.05166,28.12771 16.50824,11.79748 32.38967,24.43475 48.49636,36.76701 42.10892,32.23877 87.70143,-27.31224 45.59251,-59.55101 v 0 c -17.27282,-13.22315 -34.29382,-26.78949 -52.07002,-39.3402 -4.72944,-3.18652 -9.39766,-6.46586 -14.18832,-9.55958 -8.15669,-5.26744 -18.15529,-11.21411 -26.74108,-15.85486 -8.17533,-4.41891 -14.16075,-7.43124 -22.69643,-10.69615 -2.5095,-0.95989 -5.10801,-1.66861 -7.66202,-2.50291 -51.34302,-13.28135 -70.12568,59.32864 -18.78266,72.60999 z"/>
<path d="m 500.61955,79.721259 c 0.71694,22.052281 -6.92981,43.096401 -13.72146,63.733871 -8.01523,24.73887 -17.02047,49.16206 -24.50475,74.07091 -2.24382,10.77346 -5.72266,22.28569 1.34382,33.11456 6.60672,10.12434 16.77559,18.1627 27.62081,23.50425 6.77944,3.33906 15.09041,1.64906 22.63693,1.24902 7.61525,-0.40369 27.76875,-6.0387 35.00118,-7.91842 33.30382,-8.88072 67.1605,-15.87755 101.47796,-19.37946 6.44699,-0.65788 12.91902,-1.04169 19.37852,-1.56254 17.09569,-1.25588 34.22045,-1.14523 51.30625,0.0263 52.91982,3.46308 57.81736,-71.37684 4.89754,-74.83993 v 0 c -20.76873,-1.31037 -41.57815,-1.53637 -62.351,0.066 -7.47134,0.62482 -14.95721,1.09515 -22.41402,1.87446 -37.63271,3.93299 -74.78201,11.54251 -111.32037,21.26834 -4.70495,1.2475 -9.40962,2.49602 -14.11484,3.7425 -2.41514,0.6398 -6.81202,-0.54409 -7.24623,1.91634 -0.40069,2.27043 4.78089,0.85617 6.48239,2.41191 6.79809,6.21573 14.35674,12.2797 18.55364,20.47942 0.8916,1.74197 0.44492,23.78867 0.60308,15.53596 7.22697,-24.31258 16.21276,-48.07175 23.92801,-72.22902 9.21523,-28.28512 18.36418,-56.92846 17.44254,-87.064451 0,-53.033008 -75,-53.033008 -75,0 z"/>
<path d="m 437.06861,433.57802 c 2.25545,-0.76781 4.52872,-1.48516 6.76636,-2.30342 9.21557,-3.36996 18.26801,-7.03412 27.65721,-9.94393 14.71972,-4.56179 19.36742,-5.41402 35.21496,-9.2956 45.39179,-10.0989 91.4251,-17.24137 137.66883,-22.05899 9.87253,-1.02851 19.76769,-1.82676 29.65153,-2.74014 43.81479,-3.51496 87.7972,-3.58361 131.68326,-1.70918 4.00581,0.21609 8.01162,0.43219 12.01743,0.64829 52.95658,2.84615 56.98165,-72.04577 4.02506,-74.89192 v 0 c -4.28901,-0.2297 -8.57802,-0.45941 -12.86703,-0.68912 -47.25482,-1.98796 -94.61236,-1.88765 -141.78482,1.96242 -10.4531,0.97275 -20.91828,1.82349 -31.3593,2.91827 -49.38242,5.17791 -98.53752,12.85772 -146.99195,23.74178 -7.62251,1.89074 -15.28193,3.63843 -22.86752,5.67221 -12.36429,3.315 -20.26101,5.88211 -31.93263,9.98271 -2.33107,0.81898 -12.29533,4.43542 -15.9576,5.99608 -0.0527,0.0225 0.0194,0.11298 0.0291,0.16947 -51.29429,13.46835 -32.24717,86.00942 19.04712,72.54107 z"/>
<path d="m 542.92065,244.59145 c 0.0511,7.38704 -2.49851,14.24986 -4.95583,21.11358 -5.80906,16.22571 -5.04963,13.73492 -12.23146,30.94273 -24.22646,55.46997 -55.18378,107.53701 -85.96641,159.52393 -31.40558,53.382 -64.49299,105.79764 -99.42106,156.9484 -5.98387,8.76313 -12.09992,17.43526 -18.14987,26.15289 -21.99696,31.55715 -11.16762,15.98999 -32.49047,46.69979 -30.24645,43.56205 31.35959,86.33699 61.60604,42.77494 v 0 c 21.27553,-30.64195 10.44132,-15.06744 32.50554,-46.7215 6.25413,-9.01652 12.57659,-17.98603 18.76241,-27.04955 35.72646,-52.34669 69.58529,-105.97593 101.72415,-160.5949 11.81094,-19.95051 25.57473,-42.97331 37.03804,-63.20519 19.49713,-34.41098 37.67043,-69.58238 53.65855,-105.76955 6.41652,-15.52311 9.19943,-21.45346 14.38624,-36.81226 4.47125,-13.23993 8.2507,-26.80193 8.46882,-40.87406 2.21271,-52.98683 -72.72198,-56.11608 -74.93469,-3.12925 z"/>
<path d="m 633.04712,417.5976 c -10.66212,10.63526 -21.67646,20.93209 -33.03728,30.81907 -4.60956,4.01157 -9.34926,7.87176 -13.96674,11.8742 -5.52528,4.78932 -10.97359,9.66673 -16.46038,14.50009 -39.7858,35.06552 9.80432,91.33113 49.59012,56.26562 v 0 c 5.16183,-4.55189 10.28583,-9.14705 15.4855,-13.65566 5.08408,-4.40837 10.29334,-8.67129 15.36466,-13.09432 11.64658,-10.15774 22.99663,-20.68735 33.91834,-31.62018 38.95368,-35.98766 -11.94054,-91.07647 -50.89422,-55.08882 z"/>
<path d="m 425.69894,535.15669 c 0.42943,26.59066 1.54753,53.16398 2.37733,79.74382 1.53416,52.60268 -0.89345,105.2053 -3.45152,157.73433 -1.93303,37.49315 -3.54731,75.01303 -7.27385,112.38029 -5.24182,52.77332 69.39092,60.18638 74.63275,7.41306 v 0 c 3.82231,-38.6236 5.59811,-77.39339 7.55245,-116.14785 2.65152,-54.52333 5.12212,-109.12293 3.5036,-163.72169 -0.80651,-25.7997 -1.87371,-51.59284 -2.34076,-77.40196 0,-53.03301 -75,-53.03301 -75,0 z"/>
<path d="m 499.03258,581.12895 c 24.54561,-5.24394 49.61976,-7.5955 74.57309,-9.95203 30.75699,-2.64172 61.64812,-3.54794 92.50684,-2.74742 18.64594,0.4837 25.34745,1.06845 43.6596,2.22127 22.05263,1.50094 43.97087,4.34039 65.81839,7.61916 52.44721,7.86066 63.56385,-66.3109 11.11664,-74.17156 v 0 c -23.98444,-3.59034 -48.05024,-6.67054 -72.2591,-8.3017 -19.9284,-1.23592 -27.12018,-1.86011 -47.44008,-2.36182 -33.52234,-0.8277 -67.07819,0.18889 -100.48714,3.07745 -19.35297,1.84447 -38.63112,3.80522 -57.85855,6.71247 -8.48826,1.28344 -16.43083,2.57438 -24.77007,4.43239 -2.30879,0.51441 -4.58051,1.18296 -6.87077,1.77444 -50.69768,15.56423 -28.68653,87.26158 22.01115,71.69735 z"/>
<path d="m 583.35785,568.02501 c 0,24.38538 0,48.77076 0,73.15614 0.35554,52.25541 -2.47752,104.4284 -5.51724,156.57058 -1.2977,23.88053 -3.0273,47.72985 -4.94824,71.56668 -4.25227,52.86226 70.50625,58.87589 74.75852,6.01363 v 0 c 1.95828,-24.38675 3.73681,-48.78515 5.06264,-73.21619 3.1234,-53.59536 6.00001,-107.2237 5.64432,-160.9347 0,-24.38538 0,-48.77076 0,-73.15614 0,-53.03301 -75,-53.03301 -75,0 z"/>
<path d="m 504.69405,691.47746 c 23.06984,-3.24818 46.2059,-5.94222 69.38174,-8.30275 24.42009,-2.19606 48.96438,-3.38904 73.48188,-2.49117 13.2987,0.48701 18.12762,1.07636 31.13214,2.22843 10.96141,1.07097 21.85526,2.68228 32.73999,4.33397 52.43651,7.93175 63.65371,-66.22466 11.2172,-74.15642 v 0 c -12.44604,-1.87734 -24.90374,-3.69996 -37.43897,-4.89376 -15.30576,-1.31753 -20.70331,-1.97314 -36.38695,-2.50158 -27.48199,-0.92597 -54.99096,0.37295 -82.3606,2.86815 -23.49521,2.40274 -46.95878,5.08572 -70.34417,8.40727 -52.68502,6.06538 -44.10728,80.57324 8.57774,74.50786 z"/>
<path d="m 507.3105,807.89949 c 18.55751,-4.80411 37.5039,-7.72641 56.46163,-10.40334 28.46245,-3.3126 57.27822,-4.89776 85.90068,-2.7613 4.83482,0.36089 9.64515,0.99691 14.46773,1.49537 11.50493,1.2619 22.79656,3.75602 34.05947,6.32644 51.7291,11.68763 68.2579,-61.46836 16.52881,-73.15599 v 0 c -14.26829,-3.19795 -28.57851,-6.26581 -43.1465,-7.80034 -6.14122,-0.59481 -12.26888,-1.35202 -18.42367,-1.78443 -33.31359,-2.34046 -66.83356,-0.53723 -99.94536,3.42723 -20.66476,2.95665 -41.34383,6.09509 -61.58372,11.31396 -51.86091,11.08808 -36.17999,84.43049 15.68093,73.3424 z"/>
<path d="m 483.63715,922.75894 c 1.42305,-0.62838 3.45796,-1.18126 4.9967,-1.57592 8.16346,-2.0938 16.28506,-3.44142 24.6222,-4.69645 21.08976,-2.58908 42.30698,-4.1469 63.55172,-4.59325 14.84139,-0.31181 21.54649,-0.0615 36.41986,0.18264 32.07806,0.85526 64.09811,3.29033 96.00042,6.68919 17.85705,2.2552 35.72221,4.40236 53.61932,6.31075 1.39851,0.1496 2.79702,0.29921 4.19553,0.44882 52.73214,5.64104 60.70977,-68.93347 7.97763,-74.57451 v 0 c -1.40769,-0.15059 -2.81537,-0.30118 -4.22306,-0.45176 -17.90781,-1.90851 -35.78063,-4.0795 -53.65097,-6.31412 -34.13991,-3.61324 -68.40148,-6.23055 -102.72931,-7.09894 -16.69772,-0.25642 -23.61019,-0.5201 -40.34263,-0.14225 -24.17357,0.5459 -48.31903,2.35653 -72.30232,5.42783 -19.8437,3.13968 -40.23623,6.39881 -57.82076,16.74799 -45.00026,28.062 -5.31459,91.70199 39.68567,63.63998 z"/>
</svg>
