<?xml version="1.0" ?>
<svg xmlns="http://www.w3.org/2000/svg" width="1000" height="1000">
<path d="m 119.66829,320.30855 c 16.38296,-2.85111 32.43889,-7.29616 48.72227,-10.65194 5.91568,-1.21914 11.8598,-2.29595 17.7897,-3.44393 37.06295,-6.4758 74.47841,-11.11438 112.05255,-13.23731 6.82799,-0.38579 13.66567,-0.57492 20.49851,-0.86238 17.90181,-0.66974 35.78658,0.0323 53.62432,1.49726 52.86166,4.25966 58.88573,-70.49802 6.02406,-74.75768 v 0 c -20.91014,-1.65863 -41.87292,-2.48845 -62.85276,-1.67109 -7.52016,0.32634 -15.04571,0.54598 -22.56048,0.97901 -40.60646,2.33989 -81.04294,7.36628 -121.08941,14.4287 -6.54772,1.27612 -13.11024,2.47852 -19.64316,3.82835 -14.20826,2.9357 -28.25979,6.5657 -42.45631,9.54604 -52.569826,6.99379 -42.679114,81.33876 9.89071,74.34497 z"/>
<path d="m 199.83575,103.878 c 0.28133,22.94846 1.60661,45.85577 3.21239,68.74358 2.42336,31.12955 5.64128,62.19234 7.81725,93.34205 1.82284,26.09457 1.78524,29.16968 2.95949,55.70564 1.56874,42.47114 1.97267,84.98153 1.20768,127.47439 -0.39101,21.71975 -1.22698,47.49491 -1.87567,69.18927 -2.32841,67.52397 -1.63978,135.08198 -0.48395,202.61792 0.12355,10.11978 0.29322,20.23909 0.37066,30.35933 0.16374,21.39883 0.16706,35.72257 -0.28896,57.00227 -0.5063,23.62603 -1.59724,47.22708 -2.79253,70.82575 -2.67762,52.96537 72.22672,56.7521 74.90435,3.78673 v 0 c 1.23776,-24.52881 2.3639,-49.05921 2.88157,-73.61646 0.46272,-21.95074 0.45942,-36.89031 0.28997,-58.91501 -0.0788,-10.24264 -0.2507,-20.48435 -0.37605,-30.72652 -1.13665,-66.3612 -1.83199,-132.74415 0.46148,-199.09373 0.66868,-22.38925 1.50665,-48.17901 1.90425,-70.57357 0.77921,-43.88904 0.35551,-87.79607 -1.27684,-131.66207 -1.24309,-27.82671 -1.19827,-30.86934 -3.11069,-58.18214 -2.16851,-30.97011 -5.34308,-61.85605 -7.77743,-92.80441 -1.4954,-21.13383 -2.72227,-42.28322 -3.02697,-63.47302 0,-53.033006 -75,-53.033006 -75,0 z"/>
<path d="m 203.59916,308.58002 c -10.90402,25.78629 -21.62077,51.65258 -32.50949,77.44618 -24.93335,59.38305 -50.79334,118.36645 -77.478349,176.98147 -13.226163,29.22262 -26.698155,58.34958 -41.712188,86.70716 -4.19984,7.9324 -8.63802,15.7363 -12.957031,23.60445 -25.492126,46.50432 40.274909,82.55563 65.767038,36.05131 v 0 c 4.65708,-8.50659 9.44146,-16.94471 13.97123,-25.51977 15.51685,-29.37405 29.50276,-59.51178 43.19119,-89.77002 26.96839,-59.24864 53.114,-118.86467 78.31464,-178.88836 8.02765,-19.01972 15.87397,-38.11468 23.92162,-57.12561 3.12968,-7.39324 7.05319,-16.0888 9.82175,-23.73723 0.96555,-2.66742 1.71114,-5.4094 2.5667,-8.1141 12.47017,-51.54604 -60.42695,-69.18152 -72.89711,-17.63548 z"/>
<path d="m 258.32048,422.55385 c 1.09395,0.88379 2.21542,1.73458 3.28187,2.65137 4.49949,3.86806 8.82763,7.9311 13.23023,11.90909 12.25932,11.07696 24.51018,22.16166 36.80829,33.19563 17.74707,15.92846 35.49543,31.87929 52.50694,48.59936 6.97348,6.85401 11.60708,11.72479 18.30015,18.64558 36.87924,38.11066 90.77584,-14.04445 53.89661,-52.15511 v 0 c -7.66263,-7.91404 -12.12872,-12.61671 -20.1845,-20.52495 -17.64743,-17.3242 -36.03109,-33.8796 -54.43419,-50.39042 -12.23797,-10.97906 -24.42578,-22.01206 -36.62669,-33.03218 -4.70123,-4.24625 -11.58704,-10.53967 -16.5597,-14.74405 -1.59696,-1.35023 -3.26808,-2.61022 -4.90212,-3.91533 -42.25742,-32.04389 -87.57431,27.71713 -45.31689,59.76101 z"/>
<path d="m 650.25275,39.197547 c -0.57828,0.674921 -1.17875,1.331437 -1.73482,2.024764 -3.57043,4.451699 -6.16339,8.002534 -9.80617,12.440263 -8.79006,10.708285 -18.14101,20.89141 -27.5247,31.07624 -33.6907,35.734266 -68.22332,70.666236 -102.82582,105.514756 -22.17559,21.39227 -43.58915,43.5869 -66.46426,64.24708 -9.95082,8.98732 -13.96026,12.19124 -23.88034,20.48086 -6.99865,5.72022 -14.12698,11.27867 -21.32055,16.75071 -2.34191,1.78145 -4.67736,3.64837 -7.17006,5.22584 -29.4241,18.78466 -2.33404,34.75467 23.34011,69.72119 1.89067,2.57499 6.31908,-0.98034 9.43225,-1.69682 5.94984,-1.36932 16.5569,-4.91222 21.88983,-6.61228 5.09849,-1.7116 10.19125,-3.44034 15.29547,-5.13479 16.49613,-5.47624 22.37056,-7.45532 39.76233,-12.4817 26.67216,-7.70849 53.59407,-14.36109 80.56082,-20.93923 46.75591,-10.65043 94.22523,-18.59807 142.1383,-21.43955 8.27074,-0.4905 16.55868,-0.62657 24.83802,-0.93985 26.82601,-0.13731 54.07429,0.3481 80.19167,7.17946 2.2564,0.5902 4.46434,1.3522 6.69651,2.02829 50.91076,14.85245 71.91529,-57.14623 21.00453,-71.99868 v 0 c -10.82838,-3.08672 -13.45542,-4.0784 -25.12499,-6.26817 -28.23323,-5.29792 -57.0359,-6.33778 -85.69751,-5.88366 -9.29626,0.37381 -18.60235,0.5537 -27.88879,1.12144 -51.88947,3.17232 -103.30789,11.7544 -153.94204,23.33977 -28.27862,6.9065 -56.50733,13.89809 -84.47205,22.0067 -18.21061,5.28032 -24.82805,7.49337 -41.95239,13.18032 -4.76674,1.58303 -9.5216,3.20162 -14.28239,4.80242 -3.41871,1.10069 -6.8303,2.22376 -10.25614,3.30206 -1.72038,0.54149 -3.53553,0.82054 -5.18185,1.55711 -0.46667,0.20879 1.29096,-0.37501 1.53186,0.0759 10.68231,19.99598 23.95957,39.00837 30.88075,60.59652 0.6299,1.96477 -14.06519,11.36543 -7.05767,6.81777 12.14073,-8.24548 23.42611,-17.69097 34.91813,-26.79468 11.28953,-9.46047 15.40305,-12.74154 26.74862,-23.00832 23.61826,-21.3725 45.79251,-44.25886 68.68333,-66.39188 35.27152,-35.52486 70.47462,-71.13242 104.79791,-107.57802 10.62332,-11.56114 21.16654,-23.13298 31.11815,-35.2834 1.90272,-2.323127 3.72837,-4.708329 5.59256,-7.062496 0.84726,-1.114001 1.66506,-2.251032 2.54177,-3.342002 0.89664,-1.115776 1.85097,-2.183951 2.77645,-3.275926 33.48718,-41.12309 -24.66965,-88.4811195 -58.15683,-47.358029 z"/>
<path d="m 599.65259,208.24987 c -0.27441,-0.96714 -0.42396,-1.9788 -0.82322,-2.90143 -0.064,-0.148 -0.22391,0.25318 -0.25425,0.41155 -0.21236,1.10838 -0.27444,2.24127 -0.46705,3.35325 -0.35436,2.04578 -0.72222,4.09057 -1.17336,6.1172 -2.10842,9.47161 -2.55127,10.15038 -5.6103,20.16294 -11.49137,31.17256 -29.22059,59.62342 -48.83402,86.28957 -5.22471,7.10344 -10.75078,13.98023 -16.12617,20.97034 -16.27341,19.95646 -33.29325,39.4051 -51.63945,57.49881 -5.12136,5.05087 -10.29977,10.06175 -15.79691,14.70084 -4.83003,4.07611 -10.0954,7.60649 -15.14309,11.40973 -42.05793,32.30528 3.62863,91.78417 45.68656,59.47889 v 0 c 6.89467,-5.36985 14.04089,-10.43146 20.68401,-16.10956 6.47308,-5.53275 12.57119,-11.49632 18.62274,-17.48722 20.29869,-20.09526 39.12452,-41.68529 57.10417,-63.85592 6.03469,-7.89095 12.24648,-15.64955 18.10408,-23.67283 24.22005,-33.17472 45.66851,-68.76508 59.18745,-107.71292 5.58448,-18.93513 12.14997,-40.56024 10.10887,-60.59396 -0.29863,-2.93113 -1.01861,-5.80391 -1.52792,-8.70586 -14.59934,-50.98392 -86.70148,-30.33733 -72.10214,20.64658 z"/>
<path d="m 721.96029,412.31433 c 9.67777,4.60409 19.1296,9.86041 28.1259,15.69367 3.00088,1.9458 5.90274,4.04021 8.85411,6.06031 22.03792,15.35985 42.69789,32.53767 62.90805,50.19719 10.85944,9.47933 21.18407,19.54484 31.32267,29.78401 37.32612,37.67308 90.6039,-15.11402 53.27778,-52.7871 v 0 c -11.41645,-11.51627 -23.05098,-22.82664 -35.27295,-33.49291 -22.51696,-19.64593 -45.55608,-38.73074 -70.13681,-55.77128 -3.98803,-2.68651 -7.9169,-5.463 -11.96409,-8.05953 -12.36787,-7.93479 -25.35738,-15.07101 -38.77165,-21.06263 -49.10028,-20.04153 -77.44328,49.39674 -28.34301,69.43827 z"/>
<path d="m 497.62395,458.56396 c 9.96068,14.41378 17.86088,29.9043 24.64956,46.01693 2.43534,5.92313 4.31544,12.03629 6.06902,18.18582 14.81041,50.92299 86.8264,29.9779 72.01599,-20.94509 v 0 c -2.65195,-9.00549 -5.44449,-17.97151 -9.08724,-26.63984 -1.62825,-3.79028 -3.17193,-7.61802 -4.88475,-11.37083 -7.46282,-16.35116 -16.40604,-31.98555 -26.40185,-46.91401 -29.46303,-44.09569 -91.82376,-2.42867 -62.36073,41.66702 z"/>
<path d="m 559.90486,483.41047 c 9.2545,-4.16154 18.13303,-9.10768 27.50702,-13.02406 2.81139,-1.17457 5.68271,-2.20022 8.52407,-3.30032 20.19733,-7.11983 41.27474,-11.52293 62.4847,-14.29785 4.8566,-0.6354 9.7357,-1.085 14.60354,-1.62749 21.13601,-2.05253 42.38138,-3.18798 63.59867,-2.01567 3.31185,0.6529 7.04014,0.18783 10.29237,1.31717 0.30711,0.10665 -0.65655,-0.003 -0.97181,-0.0823 -0.95007,-0.23925 -1.93027,-0.4335 -2.80766,-0.86947 -2.46637,-1.22552 -4.78507,-2.7281 -7.17761,-4.09215 -10.95559,-13.30635 -10.84081,-9.60947 -13.56076,-26.80133 -0.29228,-1.8474 0.42261,-3.72688 0.39698,-5.59709 -0.004,-0.29665 -0.34605,0.48742 -0.46326,0.75996 -0.70308,1.6348 -1.34068,3.29706 -1.99354,4.95256 -1.07366,2.72254 -2.12396,5.45423 -3.18595,8.18135 -5.6861,14.64987 -9.71889,29.90248 -16.23484,44.23352 -3.17223,6.97694 -7.7563,15.35927 -11.31571,22.07382 -7.95846,14.66439 -4.06677,7.59953 -11.65801,21.20396 -25.83096,46.31696 39.67112,82.84746 65.50208,36.53049 v 0 c 8.14876,-14.61862 3.98403,-7.05031 12.47765,-22.71404 5.53194,-10.51081 9.51067,-17.6665 14.37425,-28.60951 6.58136,-14.80798 11.14678,-30.33492 16.74555,-45.51064 1.95441,-5.02229 4.05715,-9.9883 5.8968,-15.05375 0.93433,-2.57266 1.98,-5.12294 2.59855,-7.7892 0.86848,-3.74366 2.06593,-7.54316 1.8485,-11.38008 -1.12709,-19.88916 -3.17481,-18.07492 -14.65823,-33.11074 -3.19498,-2.00416 -6.24981,-4.2514 -9.58495,-6.01249 -2.05215,-1.08362 -4.29363,-1.77658 -6.50411,-2.48322 -8.42575,-2.69351 -17.35075,-3.2937 -26.09937,-4.04447 -25.34657,-1.27064 -50.71961,-0.20567 -75.96308,2.39057 -5.8206,0.66909 -11.65522,1.22582 -17.46181,2.00727 -26.73233,3.59764 -53.2448,9.40647 -78.62007,18.64121 -12.37434,4.91732 -24.69672,10.05487 -36.39031,16.46668 -49.25515,19.65781 -21.45481,89.31512 27.80035,69.65731 z"/>
<path d="m 575.6115,568.33549 c 1.81162,-0.16091 3.62712,-0.28299 5.43487,-0.48273 7.77578,-0.85915 15.50271,-2.19981 23.24482,-3.30407 9.90106,-1.41219 12.49883,-1.71381 22.78612,-3.04879 15.92569,-1.85283 31.85027,-4.08437 47.90269,-4.45931 8.30869,-0.19407 9.75355,0.0303 17.69298,0.46876 8.41185,0.89557 4.4737,0.36991 11.8238,1.50525 52.47273,7.6885 63.34591,-66.51914 10.87319,-74.20764 v 0 c -12.04402,-1.70755 -5.7087,-0.94423 -19.01575,-2.20721 -11.37215,-0.51193 -13.38039,-0.80388 -25.0315,-0.46994 -18.05877,0.5176 -35.98908,2.84482 -53.90553,4.99481 -15.08779,1.96128 -30.14832,4.09511 -45.20364,6.28788 -52.97855,2.40272 -49.5806,77.3257 3.39795,74.92299 z"/>
<path d="m 311.5327,619.5535 c 3.57892,11.27833 5.69145,22.96656 8.41474,34.467 1.30061,5.49251 2.67675,10.96685 4.01512,16.45028 6.63782,26.1567 14.01216,52.12433 20.04907,78.43208 4.21597,18.37244 4.63873,21.38632 8.17813,39.6803 3.78139,21.40572 7.13651,42.92086 8.92428,64.59662 0.69122,8.38062 0.79488,12.51119 1.14284,20.66272 0.0605,2.4943 0.121,4.98859 0.1815,7.48289 1.33204,53.01628 76.30838,51.13248 74.97633,-1.8838 v 0 c -0.0765,-2.96006 -0.15308,-5.92012 -0.22963,-8.88018 -0.44662,-9.98748 -0.55208,-14.33527 -1.42571,-24.66693 -2.03128,-24.02222 -5.71024,-47.87496 -9.94264,-71.5966 -3.86171,-19.85179 -4.31774,-23.08522 -8.88999,-42.95597 -6.07122,-26.38519 -13.40875,-52.4475 -20.10788,-78.67448 -1.24869,-5.10361 -2.53545,-10.19805 -3.74609,-15.31082 -3.54953,-14.99041 -6.27402,-30.26303 -11.55932,-44.77894 -19.07479,-49.48386 -89.05554,-22.50803 -69.98075,26.97583 z"/>
<path d="m 498.34918,676.56694 c 19.51036,-5.30487 39.39766,-9.02294 59.26697,-12.68061 40.81278,-7.31682 81.79186,-13.66598 122.87454,-19.25697 25.65421,-3.31183 51.38542,-6.14595 77.21979,-7.58593 13.53517,-0.75443 17.18987,-0.7221 30.43553,-1.00103 17.62934,-0.34313 35.2357,0.49362 52.79535,1.97068 3.57565,0.34858 7.15919,0.62059 10.73469,0.97028 0.27271,0.0267 -0.54929,-0.0168 -0.81979,-0.0605 -1.10115,-0.17791 -2.19426,-0.40246 -3.29139,-0.60369 -12.29005,-5.66754 -11.8774,-3.76561 -20.31188,-13.917 -1.2265,-1.47616 -1.95073,-3.30757 -2.84286,-5.00682 -0.3522,-0.67085 -0.34743,-1.55972 -0.88499,-2.09369 -0.30313,-0.30112 0.0342,0.85404 0.066,1.28013 0.098,1.31333 0.21561,2.62513 0.32341,3.93769 1.45512,19.15703 0.81904,38.36799 -0.22938,57.52354 -1.31544,26.48406 -6.41879,52.5254 -12.48609,78.27028 -6.08454,24.08694 -13.30423,47.86716 -20.67407,71.58602 -3.8085,12.41122 -8.37789,24.5652 -12.69731,36.80233 -1.09865,3.26323 -2.31313,6.47869 -3.75169,9.60213 -0.27887,0.63768 -1.17355,2.52206 -0.8366,1.91306 3.55962,-6.43385 1.38113,-6.64573 10.80403,-13.84694 3.65831,-2.79578 8.14143,-4.34152 12.41494,-6.05521 3.77786,-1.51493 6.62834,-0.13169 4.10969,-1.20697 -16.94796,-2.88742 -33.53049,-7.7426 -50.14274,-12.09985 -51.29912,-13.44989 -70.32014,59.09803 -19.02102,72.54793 v 0 c 20.32271,5.32625 40.62234,11.291 61.47927,14.15721 6.24954,0.4779 13.89291,1.57867 20.06564,-0.23376 14.75229,-4.33156 17.1698,-6.86853 26.47959,-18.44414 1.40753,-1.75009 2.05779,-3.48506 2.77911,-5.37782 2.39926,-5.21702 4.49313,-10.55897 6.34454,-15.9955 4.63484,-13.13509 9.52448,-26.18555 13.59609,-39.51235 7.89249,-25.41099 15.61233,-50.89205 22.06956,-76.71245 1.19243,-5.10665 2.45722,-10.19694 3.5773,-15.31994 5.47327,-25.03352 9.312,-50.44801 10.78134,-76.0427 1.21679,-22.93943 1.8912,-45.95064 -0.0206,-68.87828 -0.83662,-7.91096 -1.48084,-16.06937 -4.46853,-23.55052 -3.06502,-7.67481 -7.12471,-14.10666 -14.02776,-19.22248 -4.04875,-3.00051 -9.04302,-4.45034 -13.56453,-6.67551 -1.71416,-0.36218 -3.41753,-0.77987 -5.14249,-1.08655 -4.66198,-0.82887 -9.46504,-0.72772 -14.14601,-1.38572 -20.18494,-1.68706 -40.42635,-2.61227 -60.68903,-2.21516 -14.77306,0.32949 -18.7737,0.29707 -33.84283,1.15259 -27.53467,1.56323 -54.96318,4.56076 -82.30658,8.1029 -42.24386,5.75892 -84.38416,12.27689 -126.34971,19.81367 -21.60876,3.98912 -43.22889,8.07135 -64.45207,13.82769 -51.34303,13.2813 -32.56043,85.89131 18.7826,72.61001 z"/>
<path d="m 450.84039,737.15782 c 5.81969,18.93858 11.66841,37.8687 17.88508,56.68124 5.71604,16.80065 11.90636,33.45946 16.42297,50.63647 1.20988,5.21692 0.69286,2.784 1.58683,7.29109 10.59997,51.96287 84.08657,36.97225 73.4866,-14.99063 v 0 c -1.53856,-7.42247 -0.68254,-3.55559 -2.59752,-11.59407 -4.99041,-18.58452 -11.35064,-36.73673 -17.69308,-54.89565 -6.25137,-18.87966 -12.06715,-37.89786 -17.95553,-56.89319 -16.80421,-50.30028 -87.93955,-26.53554 -71.13535,23.76474 z"/>
<path d="m 521.46737,770.72227 c 14.18235,-4.35137 28.64943,-7.67225 43.05432,-11.18377 20.3588,-4.86746 40.69482,-9.87012 61.2764,-13.72829 11.40824,-2.13855 16.86538,-2.89458 28.15887,-4.64054 15.99636,-2.45168 32.10054,-4.12567 48.26146,-4.93757 0.99828,-0.0366 4.28984,-0.17167 5.53952,-0.17218 0.0453,-2e-5 0.17061,0.055 0.12541,0.0522 -1.33272,-0.0814 -2.72226,0.11429 -3.99522,-0.28864 -4.67464,-1.47969 -9.82009,-2.33884 -13.71503,-5.31728 -5.17471,-3.95709 -8.45498,-9.91252 -12.68247,-14.86878 -0.83217,-2.74429 -1.66433,-5.48858 -2.49649,-8.23286 -0.10679,-0.41152 -0.1029,-1.59988 -0.32036,-1.23455 -0.45009,0.75614 -0.33178,1.72839 -0.48896,2.5942 -0.38792,2.13681 -0.73431,4.28128 -1.14632,6.41357 -1.0262,5.31095 -3.09612,14.94804 -4.13927,19.87455 -0.91625,4.12073 -1.7573,8.2589 -2.74876,12.36218 -2.31998,9.60161 -3.95789,15.54844 -7.34445,24.8553 -4.60638,12.65911 -10.42647,24.75726 -16.28154,36.86739 -6.17637,12.55446 -12.42105,25.07528 -18.66382,37.59686 -23.66188,47.46173 43.45914,80.92468 67.12102,33.46295 v 0 c 6.39306,-12.82374 12.79014,-25.64569 19.10941,-38.50597 5.39575,-11.23233 8.705,-17.74333 13.53556,-29.43188 8.22989,-19.91393 14.53518,-40.52075 18.64782,-61.68029 2.23741,-10.58008 4.69835,-21.16945 6.24955,-31.88074 0.72911,-5.03462 1.77999,-13.37985 1.12612,-18.46861 -0.59383,-4.62158 -2.01136,-9.0995 -3.01704,-13.64925 -4.64573,-5.95147 -8.12002,-13.04157 -13.93719,-17.85441 -9.85554,-8.15401 -22.57246,-7.9007 -34.30926,-7.39583 -18.72565,0.97171 -37.39097,2.86811 -55.92646,5.72604 -12.85317,1.99993 -18.36359,2.75796 -31.4084,5.21811 -21.58953,4.07162 -42.93537,9.27761 -64.29304,14.39815 -17.80471,4.34037 -35.77475,8.32382 -53.09173,14.39262 -49.25515,19.65781 -21.45481,89.31512 27.80035,69.65731 z"/>
<path d="m 539.58911,875.62766 c 12.85572,-3.32699 25.90417,-5.81339 39.12065,-7.15577 4.04844,-0.4112 8.11042,-0.67595 12.16563,-1.01393 19.13845,-1.61626 38.2745,-0.28786 57.31146,1.75163 52.74029,5.56433 60.60945,-69.0217 7.86916,-74.58603 v 0 c -23.78355,-2.47752 -47.69458,-3.94664 -71.58719,-1.89147 -5.03265,0.44117 -10.07476,0.78521 -15.09795,1.3235 -15.97734,1.71217 -31.78031,4.67205 -47.34271,8.65696 -51.55877,12.41746 -33.99782,85.33257 17.56095,72.91511 z"/>
</svg>
