<?xml version="1.0" ?>
<svg xmlns="http://www.w3.org/2000/svg" width="1000" height="1000">
<path d="m 69.027948,283.92139 c 21.033095,-9.42217 43.890452,-13.53128 66.347522,-18.02329 40.59735,-7.19862 81.72793,-11.34375 122.92888,-12.79828 6.91561,-0.24415 13.83718,-0.27076 20.75577,-0.40613 15.3029,-0.23514 30.58391,0.54752 45.85373,1.40578 52.95123,2.94387 57.1145,-71.94049 4.16326,-74.88436 v 0 c -17.16478,-0.94495 -34.34239,-1.7907 -51.54267,-1.5059 -7.65248,0.16109 -15.30832,0.20537 -22.95745,0.48329 -44.91748,1.63197 -89.75262,6.22986 -133.99574,14.1792 -26.47367,5.35452 -53.341711,10.49041 -78.200935,21.44332 -49.5726923,18.84272 -22.925059,88.9491 26.647633,70.10637 z"/>
<path d="m 208.10364,68.776608 c 0,26.466521 0,52.933052 0,79.399572 0.01,62.92821 0.55886,125.85384 0.67911,188.78199 -0.18087,80.30216 -0.16079,160.60444 -0.3217,240.90663 -0.36802,63.76414 -1.42821,127.54341 -4.50461,191.24092 -0.53263,11.02812 -1.20025,22.04931 -1.80037,33.07396 -1.33891,28.39477 -4.44558,56.67715 -6.00369,85.05612 -0.45016,8.19904 -0.62348,16.41093 -0.93522,24.61639 -1.96683,52.99653 72.98157,55.77805 74.94841,2.78152 v 0 c 0.26584,-7.35762 0.39442,-14.72149 0.79753,-22.07288 1.57907,-28.79725 4.73951,-57.4963 6.08242,-86.3105 0.6144,-11.31946 1.29773,-22.63538 1.8432,-33.95837 3.11733,-64.70902 4.20221,-129.5004 4.57218,-194.27688 0.16108,-80.4001 0.14136,-160.80029 0.32171,-241.20035 -0.12036,-62.88033 -0.66751,-125.75816 -0.67897,-188.63855 0,-26.46652 0,-52.933051 0,-79.399572 0,-53.033008 -75,-53.033008 -75,0 z"/>
<path d="m 211.40559,246.99209 c -14.10576,24.12555 -24.27067,50.3169 -35.28126,75.93404 -3.6201,8.10141 -7.14725,16.24499 -10.86028,24.30422 -6.85832,14.88619 -20.00383,42.05416 -27.02026,56.34538 -15.54582,31.66407 -31.44694,63.14857 -47.473427,94.57106 -20.496391,38.1003 -40.427602,76.53918 -62.155361,113.96294 -4.271528,7.35725 -8.723526,14.60823 -13.085288,21.91235 -27.173154,45.5425 37.233674,83.97114 64.406827,38.42864 v 0 c 4.646094,-7.79315 9.385778,-15.53126 13.938281,-23.37945 22.261718,-38.37761 42.720438,-77.77397 63.708568,-116.85074 16.25013,-31.86669 32.37634,-63.79452 48.13793,-95.9067 7.65027,-15.58642 20.64208,-42.46259 28.0217,-58.4954 3.85803,-8.38188 7.52414,-16.85078 11.2862,-25.27616 3.10296,-7.21938 6.20282,-14.4401 9.30889,-21.65814 7.04686,-16.37589 13.76904,-33.00195 23.06963,-48.27299 25.18647,-46.67056 -40.81568,-82.28961 -66.00215,-35.61905 z"/>
<path d="m 259.81278,382.47129 c -0.4525,-0.0174 -0.95108,-0.25207 -1.35748,-0.0523 -0.19635,0.0965 0.20139,0.41745 0.39041,0.52763 1.4753,0.85995 3.04988,1.53814 4.55078,2.3526 9.46872,5.13815 18.46929,10.92098 27.50154,16.78275 13.8064,9.36955 26.91706,19.77576 38.97585,31.31554 5.87968,5.62663 7.74465,7.80151 13.10893,13.59178 6.06033,7.04127 3.25018,3.6557 8.46675,10.12649 33.42134,41.17661 91.65387,-6.08831 58.23252,-47.26492 v 0 c -7.35271,-9.01551 -3.42162,-4.33657 -11.83703,-13.99996 -7.19854,-7.68707 -9.49774,-10.35795 -17.38134,-17.82186 -15.13799,-14.33213 -31.542,-27.2899 -48.83471,-38.92316 -17.16949,-11.07279 -36.44804,-24.15555 -56.2958,-29.76313 -2.37145,-0.67 -4.83747,-0.94315 -7.2562,-1.41472 -52.71007,-5.84369 -60.97429,68.6996 -8.26422,74.54329 z"/>
<path d="m 453.01637,97.823169 c -4.78667,13.208831 -10.11217,26.224641 -16.19223,38.896741 -2.6955,5.61798 -5.59991,11.13332 -8.39986,16.69998 -16.66011,32.41959 -35.53032,63.60649 -54.71661,94.57091 -12.08192,19.21285 -22.7468,38.77909 -13.00094,62.1555 2.36719,5.67793 6.94356,10.15662 10.41533,15.23493 9.37197,9.24918 21.24542,15.07134 31.6676,22.92108 4.4903,3.38199 5.86214,4.82651 9.98406,8.61341 8.12526,7.88553 15.14869,16.77454 22.01372,25.74751 32.24092,42.10728 91.7896,-3.48827 59.54868,-45.59555 v 0 c -9.68305,-12.63767 -19.76027,-25.02181 -31.41565,-35.92206 -2.77775,-2.4662 -5.48215,-5.0176 -8.33327,-7.39862 -6.04496,-5.04826 -10.43546,-8.16849 -16.8761,-12.54447 -2.32781,-1.58159 -4.70037,-3.09636 -7.05878,-4.63197 -1.52848,-0.99523 -2.93067,-2.22958 -4.60176,-2.96045 -0.35888,-0.15696 0.25159,0.74191 0.37739,1.11286 1.43461,2.85426 3.48569,5.47481 4.30385,8.56277 2.14052,8.07884 1.74858,11.27903 -0.76132,18.09003 -0.0496,0.1345 -0.45592,-0.0267 -0.39973,-0.15856 1.67957,-3.94189 6.09491,-10.76844 7.89128,-13.72474 20.37338,-32.88362 40.36634,-66.03103 58.01821,-100.47944 3.23042,-6.4707 6.58347,-12.88163 9.69127,-19.41211 4.93099,-10.36157 9.67573,-21.38259 13.80183,-32.12622 3.34744,-8.71612 5.63484,-14.97161 7.60986,-23.95783 0.57391,-2.61123 0.80752,-5.28579 1.21127,-7.92869 4.07648,-52.876104 -70.70162,-58.641116 -74.7781,-5.765011 z"/>
<path d="m 493.42227,268.01925 c -0.0774,-0.4147 -0.0609,-1.22644 -0.63354,-0.0745 -2.4824,4.99405 -4.41312,10.24421 -6.69107,15.33477 -7.0661,15.7907 -5.84982,12.85354 -14.25865,29.27506 -22.22374,41.71721 -49.77107,80.25032 -78.11057,117.96519 -16.83557,22.58868 -34.58715,44.45788 -53.19842,65.60009 -11.36465,13.19629 -24.83655,29.69897 -10.37219,50.9131 8.75466,12.84001 27.70084,14.51895 42.59539,18.95318 1.25903,0.37482 20.49609,-5.81052 21.83297,-6.2275 20.27806,-6.4938 40.9429,-12.12131 62.0853,-14.95978 3.38043,-0.45384 6.78376,-0.71663 10.17565,-1.07495 12.28665,-0.95142 24.5773,0.21288 36.8118,1.27913 52.83462,4.58293 59.31586,-70.1365 6.48125,-74.71943 v 0 c -17.13183,-1.47987 -34.34802,-2.76496 -51.52896,-1.10613 -4.65764,0.531 -9.33055,0.94187 -13.97292,1.59299 -24.64178,3.45615 -48.78432,9.83402 -72.44961,17.41058 -2.97069,0.93313 -5.96149,1.80453 -8.91208,2.7994 -16.25529,5.48088 30.25715,15.65737 33.18331,20.99497 13.09871,23.8933 -13.82853,50.24998 0.37245,33.69285 19.88685,-22.60356 38.86918,-45.9735 56.86963,-70.11328 4.90894,-6.54132 9.88583,-13.0322 14.72683,-19.62397 25.64468,-34.9192 49.82256,-71.06358 70.23182,-109.31963 9.43032,-18.57675 8.49626,-16.10696 16.27583,-33.56249 4.94881,-11.104 10.011,-22.25624 12.50639,-34.22124 0.48388,-2.32012 0.59027,-4.7032 0.8854,-7.0548 2.65424,-52.96654 -72.25177,-56.7202 -74.90601,-3.75366 z"/>
<path d="m 496.47898,491.23447 c 1.01341,1.40683 2.00408,2.83033 3.04022,4.22051 5.08965,6.82876 10.33758,13.46292 14.9537,20.63698 5.1469,7.99896 5.44433,8.9187 9.94277,17.22516 1.3307,2.76859 2.66141,5.53717 3.99211,8.30576 23.20424,47.68714 90.64404,14.87139 67.4398,-32.81575 v 0 c -1.88965,-3.84958 -3.7793,-7.69917 -5.66895,-11.54875 -2.22149,-4.01593 -4.34192,-8.08944 -6.66446,-12.04779 -7.48406,-12.75521 -16.17991,-24.68443 -25.18131,-36.3919 -29.99249,-43.7373 -91.84636,-1.32152 -61.85388,42.41578 z"/>
<path d="m 723.91301,98.317109 c -0.13589,-1.05339 -0.14158,-2.13192 -0.40769,-3.16017 -0.0332,-0.12814 -0.34296,-0.026 -0.38435,0.0997 -0.56786,1.72485 -0.87703,3.52528 -1.38321,5.269231 -0.84973,2.92753 -1.64838,5.87527 -2.68373,8.74241 -3.23189,8.9499 -6.66528,15.66998 -10.7693,24.4482 -14.2162,29.52219 -30.33166,58.0578 -46.00291,86.81533 -10.59991,19.77563 -19.4021,39.60154 -8.20557,61.98379 2.86481,5.72685 8.01635,9.9877 12.02452,14.98156 3.84455,2.65791 7.5634,5.50751 11.53363,7.97374 4.04381,2.51194 12.74547,6.59937 17.18603,8.791 6.42577,3.17144 12.71473,6.49843 18.9451,10.03529 3.26415,2.00795 5.68573,3.43161 8.79785,5.58111 0.83014,0.57336 1.63938,1.17802 2.42614,1.8096 0.30251,0.24284 1.17142,1.00471 0.83629,0.80933 -1.97962,-1.15408 -3.95379,-4.17539 -5.05,-5.51127 28.11989,44.96412 91.70876,5.19659 63.58887,-39.76753 v 0 c -1.79684,-2.4253 -3.43094,-4.9801 -5.39053,-7.27591 -7.68341,-9.00169 -18.51175,-14.72638 -28.33695,-20.95597 -7.57432,-4.25841 -15.19855,-8.3235 -22.99563,-12.16182 -2.10109,-1.03432 -4.21901,-2.03415 -6.32299,-3.06259 -1.46789,-0.71752 -2.81263,-1.7587 -4.39251,-2.17524 -0.3823,-0.10079 0.26016,0.74669 0.39025,1.12004 5.30928,9.12127 6.30187,8.50105 6.60222,20.40049 0.0505,1.99909 -0.78825,3.92742 -1.36993,5.84068 -0.0381,0.12526 -0.3956,-0.0454 -0.35424,-0.1696 1.22223,-3.67036 4.44127,-9.44081 5.94491,-12.36084 16.45669,-30.20364 33.36893,-60.18163 48.22139,-91.22634 2.72643,-5.94836 5.63036,-11.81853 8.1793,-17.84508 4.66225,-11.0231 7.05005,-17.85553 10.04355,-28.97398 1.73527,-6.44512 3.46536,-14.11659 3.88322,-20.809961 0.1907,-3.05464 -0.14303,-6.1195 -0.21454,-9.17925 -7.02443,-52.565748 -81.36362,-42.63171 -74.33919,9.93403 z"/>
<path d="m 746.81383,259.63808 c -0.0118,-0.21669 0.0871,-0.82912 -0.0355,-0.65006 -0.61967,0.90491 -1.02054,1.9417 -1.51825,2.91901 -1.35718,2.66497 -2.7081,5.33317 -4.04636,8.0077 -2.05621,4.10936 -4.06919,8.24031 -6.13698,12.34385 -8.22502,16.32257 -7.28617,14.3133 -16.34268,31.29793 -3.35218,6.15816 -6.69508,12.32138 -10.05655,18.47448 -7.4147,13.57242 -13.89347,25.45247 -21.56446,38.88191 -9.86519,17.27075 -20.15784,34.29713 -30.20932,51.4595 -6.61767,11.51315 -13.19032,23.05296 -19.47585,34.75164 -1.22947,2.28829 -5.76308,10.77162 -6.96415,13.56194 -1.14684,2.66431 -2.06635,5.42082 -3.09952,8.13123 1.45033,32.0904 -5.36698,32.74461 30.56783,51.46632 5.22289,2.72108 11.77655,0.78665 17.65989,0.52367 3.91553,-0.17502 7.75411,-1.15543 11.61468,-1.83219 2.99986,-0.52588 19.45117,-3.81475 22.25014,-4.37121 19.74138,-3.98212 39.8354,-5.60763 59.71262,-8.69841 52.38871,-8.24151 40.73346,-82.33034 -11.65525,-74.08883 v 0 c -20.85377,3.33207 -41.99027,4.83692 -62.68354,9.22723 -3.69187,0.73415 -7.38374,1.46831 -11.0756,2.20246 -3.06349,0.60064 -6.12825,1.19485 -9.19047,1.80192 -1.64072,0.32526 -5.73436,-0.46499 -4.9183,0.99508 1.04635,1.8721 4.61217,0.0726 6.27328,1.42921 28.44581,23.2312 22.9787,14.97635 22.44632,45.50615 -1.47906,2.01733 -1.13821,1.65728 1.47046,-3.43321 4.52628,-8.83247 9.39941,-17.49519 14.28847,-26.12917 2.48531,-4.38901 4.99861,-8.7621 7.49791,-13.14315 10.28443,-17.56314 20.8088,-34.98953 30.90035,-52.66499 7.79582,-13.65444 14.49927,-25.93656 22.02981,-39.72401 3.46745,-6.34846 6.91513,-12.70769 10.37269,-19.06154 7.98474,-14.99798 15.74733,-30.06205 23.32161,-45.26966 3.30597,-6.63772 6.73956,-13.04764 9.38931,-19.98579 0.94999,-2.48746 1.5891,-5.08277 2.38365,-7.62415 11.52927,-51.76462 -61.67696,-68.06948 -73.20623,-16.30486 z"/>
<path d="m 779.78623,476.52237 c -0.28972,-0.1855 -0.54425,-0.44342 -0.86915,-0.55649 -0.4839,-0.1684 0.25878,1.00019 0.49304,1.45586 0.56742,1.10374 1.18638,2.18068 1.74532,3.28875 2.8913,5.73186 2.22273,4.44051 4.61169,10.4463 1.56389,6.70711 0.98008,3.12814 1.57908,10.76362 7.37346,52.51792 81.64502,42.09028 74.27156,-10.42764 v 0 c -3.3858,-20.73991 -1.04359,-11.04207 -6.6224,-29.18819 -1.44828,-3.39366 -2.78508,-6.83709 -4.34486,-10.18097 -6.25293,-13.40518 -14.25534,-26.32105 -25.9291,-35.6498 -42.46074,-31.77397 -87.39592,28.27459 -44.93518,60.04856 z"/>
<path d="m 326.98184,671.80971 c 2.16186,-0.41186 4.33398,-0.77309 6.48558,-1.23556 14.99871,-3.22383 29.85542,-6.94691 44.91553,-9.91892 24.40892,-4.81694 28.49349,-5.24799 54.19769,-9.44184 49.06674,-7.28611 98.47259,-12.18244 147.97072,-15.33791 33.62317,-2.14345 47.86238,-2.49525 81.5386,-3.81585 48.17664,-1.6516 96.38575,-2.69349 144.58898,-1.74854 23.38552,0.45843 30.57269,0.88394 53.21307,1.84535 16.66553,0.69144 33.28209,2.11761 49.88738,3.6348 52.81445,4.80976 59.61648,-69.88115 6.80203,-74.69091 v 0 c -17.81461,-1.61745 -35.64133,-3.13505 -53.51942,-3.87686 -23.57593,-0.99375 -31.14731,-1.43852 -55.48084,-1.90695 -49.48653,-0.95264 -98.97902,0.0965 -148.43799,1.80102 -34.74392,1.36976 -49.35837,1.732 -84.09121,3.95984 -51.7093,3.31674 -103.32047,8.46409 -154.57405,16.11896 -10.36909,1.69895 -20.7571,3.28623 -31.10727,5.09686 -24.66338,4.31452 -49.11892,9.6348 -73.48992,15.34262 -52.44885,7.84967 -41.34774,82.02356 11.10112,74.17389 z"/>
<path d="m 415.27527,664.38454 c 0.009,3.45612 -0.99589,6.63691 -2.13288,9.87345 -1.12155,3.19262 -2.20808,6.40163 -3.4991,9.52956 -5.45537,13.21749 -7.45232,16.21023 -14.49267,29.69046 -11.24128,20.60554 -24.28821,40.14648 -37.75125,59.34705 -9.36951,13.36251 -18.00057,25.17426 -27.99945,38.02518 -4.24233,5.45239 -8.64186,10.78063 -12.96279,16.17095 -14.89007,17.75462 -7.70309,9.3792 -21.50947,25.17034 -34.88572,39.94355 21.60299,89.2794 56.4887,49.33585 v 0 c 15.17048,-17.38683 7.29528,-8.18981 23.5721,-27.63678 4.74363,-5.93354 9.57235,-11.80004 14.2309,-17.80061 10.56406,-13.60736 20.19321,-26.77684 30.07362,-40.90716 15.20164,-21.74037 29.86447,-43.90633 42.48456,-67.26859 3.5667,-6.95839 7.34944,-13.81022 10.70009,-20.87519 9.304,-19.61783 17.40814,-40.68585 17.79764,-62.65451 0,-53.03301 -75,-53.03301 -75,0 z"/>
<path d="m 427.84439,794.91295 c 12.20062,10.96526 23.37125,22.98936 34.25052,35.2452 6.15036,6.90293 11.78742,14.22945 17.41366,21.55677 32.33799,42.03278 91.78132,-3.70005 59.44333,-45.73282 v 0 c -6.72633,-8.72842 -13.48119,-17.44265 -20.82053,-25.67288 -12.3416,-13.84828 -24.97925,-27.46407 -38.7669,-39.90023 -38.54012,-36.4302 -90.0602,18.07376 -51.52008,54.50396 z"/>
<path d="m 550.89722,63.103327 c -0.23297,13.918487 -1.03841,27.821022 -0.97359,41.747913 0.0283,6.08943 0.22395,12.17693 0.33592,18.2654 1.46802,50.55398 9.99795,100.47914 17.69693,150.35124 1.4465,9.5276 2.89334,19.05516 4.33949,28.58281 3.51404,23.15156 5.5304,37.01585 9.40782,60.23317 5.26808,31.54434 11.22891,62.96789 17.04967,94.41314 9.99098,51.27181 16.50068,103.15024 26.1565,154.47837 1.87116,9.94664 3.99733,19.84362 5.996,29.76543 8.03968,36.5106 17.33666,72.86571 30.84499,107.78553 8.05696,20.82771 10.84841,25.61895 20.43541,45.49986 13.55849,26.00728 30.14952,50.29928 48.6615,73.01377 9.23043,11.32588 14.03603,16.39403 23.67613,27.07657 15.76294,17.08514 31.73748,33.97252 47.93003,50.65065 5.85223,5.90077 11.5554,11.9574 17.58416,17.68026 10.53094,8.54052 14.71177,13.05997 35.80577,9.78746 8.84663,-1.37245 15.78681,-8.72788 22.53647,-14.60908 3.46332,-3.01771 5.15754,-7.60977 7.499,-11.56182 4.62677,-7.80934 12.11204,-23.05874 15.81754,-30.39876 11.72611,-25.48382 23.24896,-51.05003 35.10949,-76.47223 22.41616,-48.06262 -45.55465,-79.76386 -67.97081,-31.70123 v 0 c -11.53359,24.73679 -22.80615,49.58264 -34.1152,74.42223 -2.64508,5.25955 -5.23642,10.54646 -7.93524,15.77864 -1.76687,3.42542 -3.78984,6.71883 -5.46074,10.19207 -0.13643,0.2836 -0.17738,1.07452 0.10624,0.93814 6.29465,-3.02696 11.51096,-9.41732 18.48051,-9.87607 20.57351,-1.3542 22.57866,1.04122 31.39715,8.76156 -5.36409,-4.67279 -9.82121,-10.36915 -15.04602,-15.18737 -15.57441,-16.03865 -30.93609,-32.28124 -46.10569,-48.70362 -8.19878,-9.04843 -12.54537,-13.6315 -20.36589,-23.15341 -15.18369,-18.487 -28.88577,-38.2152 -40.12024,-59.36219 -8.09252,-16.57778 -10.52448,-20.72947 -17.3422,-38.14933 -12.31636,-31.46936 -20.58225,-64.3223 -27.90537,-97.25249 -1.87915,-9.28772 -3.88289,-18.5511 -5.63747,-27.86317 -9.71529,-51.56206 -16.21482,-103.68847 -26.28488,-155.19108 -5.71216,-30.85793 -11.5716,-61.69374 -16.74473,-92.64835 -3.83177,-22.9283 -5.82933,-36.67577 -9.30965,-59.60455 -1.45553,-9.58922 -2.91184,-19.17833 -4.36776,-28.76749 -7.1888,-46.56698 -15.29281,-93.16773 -16.833,-140.36254 -0.10901,-5.30924 -0.2954,-10.61745 -0.32704,-15.92771 -0.0912,-15.310121 1.06025,-30.590895 0.9077,-45.896778 -2.30875,-52.9827302 -77.23764,-49.717675 -74.9289,3.265055 z"/>
<path d="m 746.22867,682.1965 c -2.09206,2.34608 1.74566,-7.81105 0.1846,-6.37028 -1.5722,1.45105 -2.03507,3.76549 -3.13135,5.60276 -1.9878,3.33138 -3.97046,6.66959 -6.11883,9.89976 -8.80801,13.24328 -10.93307,15.28757 -21.44811,28.53738 -29.09028,34.43088 -62.25068,65.06859 -97.35095,93.25412 -7.13484,5.72928 -14.44027,11.24283 -21.66041,16.86425 -25.07445,18.87704 -13.05509,9.961 -36.0245,26.79333 -42.77179,31.35402 1.56949,91.84246 44.34128,60.48844 v 0 c 24.083,-17.65963 11.4731,-8.29881 37.7937,-28.13091 20.4006,-15.92133 27.28774,-20.92315 47.10046,-37.92064 30.38905,-26.07102 58.94443,-54.24715 84.70743,-84.92699 5.018,-6.40422 10.21431,-12.67265 15.05401,-19.21266 7.02245,-9.48962 14.0642,-20.21478 19.89507,-30.56405 4.89487,-8.68796 8.20164,-15.458 10.65819,-25.27463 0.73596,-2.94097 0.66627,-6.02659 0.99941,-9.03988 0,-53.03301 -75,-53.03301 -75,0 z"/>
<path d="m 877.93657,529.72359 c 8.10425,16.54844 15.59435,33.36816 20.90611,51.05006 1.59368,5.30508 2.88207,10.69713 4.3231,16.0457 4.97076,23.22338 2.68746,11.34251 6.7917,35.65375 8.93198,52.27542 82.86059,39.64369 73.92861,-12.63173 v 0 c -4.98911,-28.90561 -2.18526,-14.63577 -8.37941,-42.81581 -1.87079,-6.75527 -3.55229,-13.56584 -5.61238,-20.26581 -6.14047,-19.97046 -14.39676,-39.14058 -23.58963,-57.87125 -21.80371,-48.34355 -90.17181,-17.50846 -68.3681,30.83509 z"/>
</svg>
