<?xml version="1.0" ?>
<svg xmlns="http://www.w3.org/2000/svg" width="1000" height="1000">
<path d="m 91.211933,337.54088 c 26.002927,-5.39433 52.172967,-9.89755 78.375667,-14.20276 41.76936,-6.4552 83.83745,-11.39691 126.10022,-12.94342 6.5996,-0.24149 13.20582,-0.24155 19.80873,-0.36233 21.1566,0.29382 11.09631,0.028 30.18262,0.72723 52.99888,1.90226 55.68908,-73.04948 2.6902,-74.95173 v 0 c -21.62342,-0.76189 -10.18289,-0.47863 -34.32364,-0.76146 -7.43751,0.15087 -14.87876,0.17239 -22.31252,0.45262 -45.01454,1.69693 -89.82594,6.9378 -134.3154,13.83304 -26.47948,4.35791 -52.93749,8.868 -79.21163,14.34509 -52.229544,9.19645 -39.223791,83.06018 13.005753,73.86372 z"/>
<path d="m 205.49762,145.26818 c 0.20796,41.71823 0.87393,83.42935 1.65694,125.14028 1.97163,97.08515 3.3628,194.1799 4.32706,291.27988 1.34,97.98403 -0.79854,195.95732 -3.18159,293.90572 -0.26966,10.7127 -0.53932,21.4254 -0.80898,32.1381 -1.3345,53.01622 73.64175,54.90349 74.97625,1.88727 v 0 c 0.27018,-10.73376 0.54036,-21.46753 0.81054,-32.20129 2.4036,-98.80457 4.54897,-197.63432 3.20008,-296.47474 -0.96693,-97.32103 -2.36045,-194.63685 -4.33658,-291.94303 -0.77467,-41.24162 -1.43561,-82.48337 -1.64372,-123.73219 0,-53.033006 -75,-53.033006 -75,0 z"/>
<path d="m 205.46232,314.98803 c -6.29029,25.02767 -15.91789,49.09379 -25.50722,72.99478 -3.93082,9.0953 -7.76717,18.232 -11.79245,27.28589 -4.615,10.38033 -9.21077,20.77297 -14.12715,31.01399 -12.53038,26.10129 -22.16011,43.83108 -36.50297,69.24905 -6.93293,12.28631 -13.94781,24.52869 -21.183116,36.6394 -7.182753,12.02274 -14.711062,23.83563 -22.066593,35.75344 -29.456214,44.97579 -14.751732,22.77913 -44.100258,66.59872 -29.50929626,44.06474 32.807659,85.79719 62.316955,41.73245 v 0 c 30.159702,-45.04108 14.944502,-22.05868 45.620632,-68.96373 7.72217,-12.53183 15.62302,-24.95529 23.1665,-37.59549 21.82962,-36.57871 42.59244,-73.91482 61.0082,-112.33875 5.12301,-10.68901 9.91979,-21.5322 14.72702,-32.3669 4.29185,-9.67312 8.37924,-19.43566 12.56887,-29.15349 9.30151,-23.31664 9.91659,-23.96444 17.55731,-46.1959 4.96778,-14.45428 9.90696,-29.13737 12.49393,-44.24542 0.38661,-2.25785 0.49005,-4.55514 0.73508,-6.83271 2.52814,-52.97271 -72.38659,-56.54804 -74.91474,-3.57533 z"/>
<path d="m 248.40767,400.65754 c 18.15634,9.57267 34.66731,21.87389 50.98233,34.23676 20.41331,16.1538 38.1225,35.37375 55.64307,54.53943 35.79461,39.13114 91.1344,-11.49008 55.33979,-50.62122 v 0 c -20.61368,-22.52229 -41.58792,-44.94898 -65.7528,-63.74498 -20.31676,-15.32914 -40.9601,-30.4794 -63.73537,-42.01357 -47.80295,-22.96471 -80.27996,44.63886 -32.47702,67.60358 z"/>
<path d="m 387.85272,136.53498 c -1.74152,31.36837 -0.74796,62.81552 -0.27184,94.20594 1.23478,71.29738 0.46214,142.6068 -0.92724,213.89454 -2.26964,85.76515 -7.31585,171.42888 -11.77122,257.10113 -3.35525,62.02633 -6.20032,124.0776 -8.45507,186.15332 -0.27007,7.31437 -0.54013,14.62874 -0.8102,21.94312 -1.95677,52.99689 72.99216,55.76419 74.94893,2.76729 v 0 c 0.27062,-7.32951 0.54124,-14.65902 0.81186,-21.98853 2.2397,-61.68456 5.0691,-123.34468 8.40327,-184.98012 4.49751,-86.48346 9.58869,-172.95849 11.85822,-259.5365 1.40292,-72.15348 2.18266,-144.32876 0.93282,-216.49192 -0.44348,-29.22612 -1.389,-58.50234 0.089,-87.71287 3.78684,-52.897632 -71.02171,-58.253036 -74.80855,-5.3554 z"/>
<path d="m 447.40322,173.79168 c 15.46241,-4.85421 31.23377,-8.79238 47.23043,-11.43716 4.64717,-0.76834 9.32563,-1.33363 13.98844,-2.00045 17.61722,-2.14336 35.38249,-3.28208 53.13093,-2.60749 8.19198,0.31137 10.30757,0.67111 18.03904,1.52516 4.46348,0.60036 8.91935,1.31726 13.26226,2.52755 1.15595,0.32214 4.12427,1.14629 2.85104,0.93711 -8.46946,-3.16264 -13.05169,-9.05468 -18.17806,-16.99117 -1.52617,-2.36277 -1.63851,-5.39112 -2.7159,-7.9894 -0.14913,-0.35963 -0.1128,0.77299 -0.11502,1.16231 -0.0119,2.08946 0.0485,4.17871 0.0728,6.26807 -0.0775,22.29737 -1.39998,44.58628 -4.09886,66.72184 -0.66802,5.47892 -1.48472,10.93868 -2.22709,16.40802 -2.34172,18.2915 -6.82726,36.13571 -12.07414,53.77218 -14.9942,50.86918 56.94569,72.07419 71.93989,21.20501 v 0 c 1.33056,-4.54761 2.75731,-9.06817 3.99168,-13.64282 4.55226,-16.87085 8.00761,-34.01184 10.46986,-51.31166 0.82544,-6.15732 1.73568,-12.30387 2.47632,-18.47197 3.01745,-25.12933 4.48882,-50.43232 4.51486,-75.74037 -0.14618,-9.13606 0.36188,-21.45291 -4.06518,-29.65352 -6.3473,-11.75764 -12.22129,-17.169301 -23.4189,-21.871498 -11.23287,-4.066817 -22.9433,-6.546585 -34.80981,-7.915024 -10.81277,-1.104769 -13.59821,-1.563598 -24.90117,-1.932966 -21.70239,-0.70921 -43.42255,0.678435 -64.95356,3.383623 -5.74991,0.849701 -11.51903,1.578241 -17.24972,2.549102 -19.24771,3.260836 -38.22856,8.038302 -56.82951,13.938383 -50.32276,16.73677 -26.6534,87.90391 23.66937,71.16714 z"/>
<path d="m 456.0065,270.55179 c 16.08089,-1.63993 32.14212,-3.4661 48.1941,-5.37838 15.90186,-1.7896 31.84986,-3.73034 47.88205,-3.63591 7.77461,0.0458 9.8627,0.38104 17.33987,1.05477 2.25815,0.29909 4.5163,0.59817 6.77445,0.89725 52.60901,6.69268 62.07389,-67.7077 9.46488,-74.40037 v 0 c -3.33472,-0.41242 -6.66944,-0.82483 -10.00416,-1.23725 -11.26231,-0.8893 -13.73632,-1.29887 -25.32464,-1.29399 -18.41287,0.008 -36.73984,2.03315 -55.00493,4.14216 -15.01026,1.78836 -30.02896,3.49047 -45.06106,5.07165 -52.87749,4.05839 -47.13805,78.83846 5.73944,74.78007 z"/>
<path d="m 456.30142,355.43699 c 20.50096,-3.90584 41.36425,-5.48218 62.15242,-6.97337 20.58831,-1.31519 41.19878,-0.40936 61.73325,1.21733 52.87089,4.14349 58.73067,-70.62725 5.85977,-74.77073 v 0 c -24.2853,-1.88555 -48.66094,-2.86145 -73.0018,-1.25131 -23.59891,1.71851 -47.26675,3.59149 -70.53542,8.05707 -52.12862,9.75226 -38.33685,83.47327 13.79178,73.72101 z"/>
<path d="m 674.58324,113.99554 c -0.1567,20.03299 0.97317,40.06368 1.50257,60.09073 0.48384,31.8331 0.21474,63.66946 0.52071,95.50486 0.20916,11.89143 0.60665,23.77252 0.3717,35.6653 -0.94997,53.0245 74.038,54.36795 74.98796,1.34345 v 0 c 0.20769,-12.58154 -0.075,-25.15148 -0.36314,-37.73064 -0.31097,-32.25679 -0.0207,-64.51486 -0.54353,-96.7691 -0.46683,-17.58557 -1.11973,-35.16926 -1.66772,-52.74918 3.78685,-52.897639 -71.0217,-58.253053 -74.80855,-5.35542 z"/>
<path d="m 748.69864,154.34463 c 18.68189,-3.22098 37.30146,-6.75632 56.01717,-9.7824 25.06706,-3.72777 50.32216,-6.64788 75.68704,-6.8099 7.13604,0.51618 14.69727,0.16995 21.56932,2.55027 0.27241,0.0944 0.56269,0.14792 0.81724,0.28332 0.1644,0.0874 -0.36917,-0.0665 -0.54165,-0.13673 -1.11182,-0.45237 -2.28285,-0.80007 -3.30548,-1.42856 -7.00678,-4.30616 -9.96133,-7.19573 -14.03861,-14.16962 -0.0482,0.13548 -0.16495,0.26414 -0.14444,0.40646 0.21399,1.48526 0.56015,2.94845 0.84023,4.42268 0.35797,2.35776 0.75046,4.71054 1.07391,7.07328 1.6728,12.21953 2.71967,24.46142 3.68602,36.75354 2.62926,40.46092 2.34918,81.03533 1.97563,121.55672 -0.30622,54.18307 -3.50159,108.26619 -7.31188,162.29558 -4.52539,60.79987 -8.1749,121.66078 -11.33665,182.54546 -2.534,54.56531 -4.80494,109.14417 -6.79584,163.73206 -1.15811,31.59222 -1.99905,63.20149 -3.94201,94.75835 -0.24298,3.12495 -0.54652,8.78337 -1.20505,12.23276 -0.0568,0.29758 -0.498,1.09673 -0.42733,0.80213 1.61916,-6.74996 2.41335,-9.24176 8.43008,-14.95623 2.46173,-2.33805 5.74936,-3.61264 8.62404,-5.41896 -0.0724,-0.32253 0.0993,-0.87234 -0.21724,-0.9676 -2.38543,-0.71789 -4.9173,-0.80977 -7.35727,-1.31193 -4.57697,-0.94197 -9.14676,-1.92486 -13.68959,-3.01967 -14.65132,-3.53093 -23.09289,-5.88514 -37.67293,-10.74334 -7.56088,-2.51935 -15.02756,-5.31306 -22.54134,-7.96959 -50.022,-17.61531 -74.93382,53.12648 -24.91181,70.74179 v 0 c 8.46084,2.96896 16.86567,6.10262 25.38252,8.90686 15.48053,5.09708 28.42671,8.80001 44.17984,12.43165 10.73301,2.47433 25.57326,5.65749 36.82351,5.96393 5.72271,0.15587 11.42956,-0.67794 17.14434,-1.0169 6.61195,-2.68363 13.91318,-4.07071 19.83584,-8.05089 18.63039,-12.5201 21.17012,-32.93686 22.46173,-53.0328 1.96636,-32.17694 2.87359,-64.40365 4.03287,-96.61688 1.97558,-54.20265 4.23294,-108.39619 6.74478,-162.57655 3.13562,-60.42312 6.76051,-120.82237 11.25196,-181.16117 3.9126,-55.5557 7.17629,-111.16754 7.49428,-166.88046 0.3897,-42.73328 0.64572,-85.52283 -2.20836,-128.18788 -1.13939,-14.19339 -2.33238,-28.34604 -4.35839,-42.44668 -0.80032,-5.57005 -2.01826,-13.11824 -3.41382,-18.71106 -0.71556,-2.86768 -1.64141,-5.67875 -2.46211,-8.518121 -1.35995,-2.9591 -2.3684,-6.106604 -4.07984,-8.877289 -6.90273,-11.175008 -16.33196,-17.536411 -28.66243,-20.94324 -13.86148,-3.709249 -28.11666,-5.301685 -42.47017,-5.311176 -3.84555,0.0467 -7.6928,0.01662 -11.53665,0.140088 -25.26997,0.81172 -50.42488,4.019659 -75.42059,7.631924 -18.60564,3.02081 -37.12687,6.481348 -55.69255,9.730527 -52.38689,8.253125 -40.71521,82.339377 11.67168,74.086247 z"/>
<path d="m 749.87157,241.89159 c 19.29208,-3.10569 38.87636,-4.00128 58.36449,-5.06184 23.0373,-0.78004 46.25252,-2.06116 69.22056,0.51337 52.74316,5.53706 60.57375,-69.05304 7.83059,-74.5901 v 0 c -3.35552,-0.33711 -6.70351,-0.7603 -10.06656,-1.01133 -23.64057,-1.7646 -47.42848,-0.63104 -71.07794,0.19985 -22.23867,1.22051 -44.57017,2.34073 -66.57425,5.96604 -52.31459,8.69961 -40.01148,82.68362 12.30311,73.98401 z"/>
<path d="m 718.25712,323.16004 c 2.92327,0.42048 5.82652,1.0179 8.76982,1.26145 3.22061,0.26651 6.4596,0.25422 9.6912,0.26619 5.99654,0.0222 19.14377,-0.42039 24.70192,-0.5799 20.06078,-0.57569 11.08284,-0.35225 32.0658,-0.75527 25.1496,-0.0867 50.33184,-0.20672 75.45547,1.15884 13.57174,0.73768 17.3944,1.27165 30.32526,2.59831 52.76289,5.34572 60.32289,-69.27228 7.56,-74.61801 v 0 c -15.21509,-1.52483 -19.05251,-2.07344 -34.9806,-2.92403 -26.57359,-1.41907 -53.20699,-1.31614 -79.80722,-1.20115 -15.15395,0.29377 -30.29731,0.75289 -45.44839,1.14555 -2.93244,0.076 -5.8656,0.12135 -8.79838,0.18335 -1.17287,0.0248 -2.47022,-0.44951 -3.51854,0.077 -0.66226,0.33263 1.42388,0.41165 2.13582,0.61747 -51.45629,-12.83552 -69.60845,59.93466 -18.15216,72.77018 z"/>
<path d="m 544.88455,467.05227 c 18.22321,-4.26819 36.7461,-7.00629 55.25645,-9.66878 33.29868,-4.42283 66.85948,-6.80732 100.43113,-7.77566 7.33932,-0.2117 14.68257,-0.25346 22.02385,-0.38019 18.10155,-0.22959 36.18392,0.52315 54.25575,1.42067 52.96909,2.60301 56.65029,-72.3066 3.6812,-74.9096 v 0 c -19.74069,-0.96074 -39.49257,-1.77026 -59.26457,-1.49932 -7.91042,0.14329 -15.82295,0.19733 -23.73124,0.42987 -36.13931,1.06269 -72.26208,3.68767 -108.10308,8.48243 -20.17535,2.91743 -40.36144,5.92893 -60.23055,10.5582 -51.8609,11.08819 -36.17983,84.43056 15.68106,73.34238 z"/>
<path d="m 490.45452,518.27669 c 1.23305,20.88225 2.9399,41.73048 4.70605,62.57309 2.14857,22.91203 3.53157,45.88125 4.41341,68.87379 2.03922,52.99379 76.98375,50.10989 74.94453,-2.8839 v 0 c -0.93194,-24.1439 -2.37718,-48.26425 -4.62594,-72.3245 -1.7452,-20.58212 -3.42364,-41.17002 -4.64389,-61.79118 -3.92634,-52.88746 -78.72051,-47.33477 -74.79416,5.5527 z"/>
<path d="m 545.65866,550.43935 c 19.50576,-2.47457 38.94255,-5.44999 58.39724,-8.29075 32.35768,-5.08051 64.9225,-8.50121 97.58834,-10.76178 20.57242,-1.3059 41.19596,-1.39206 61.77003,-0.18926 3.7574,0.35554 7.53594,0.63978 11.26692,1.23389 0.13345,0.0213 -0.27314,0.007 -0.40469,-0.0237 -1.5469,-0.36333 -3.08288,-0.77168 -4.62433,-1.15752 -18.68222,-12.37971 -11.76822,-4.70472 -21.61154,-21.0657 -0.1735,-0.28838 -0.5368,-1.18311 -0.54985,-0.84681 -0.0689,1.77772 0.27329,3.54782 0.37618,5.3239 0.49941,8.62072 0.50797,10.86049 0.81117,20.07074 0.45105,18.6507 0.37846,37.33527 -1.36405,55.92478 -1.14637,12.22986 -1.69417,14.64787 -3.52981,26.55816 -2.4885,11.78883 -3.73314,24.31037 -9.29095,35.18946 -21.85057,48.32239 46.4876,79.22375 68.33817,30.90137 v 0 c 1.18508,-2.72501 2.48456,-5.40307 3.55523,-8.17504 5.79389,-15.00047 8.74893,-30.89277 11.54849,-46.66239 2.16209,-14.42849 2.86023,-17.6676 4.18341,-32.4003 1.90647,-21.22718 2.06116,-42.55429 1.51749,-63.84621 -0.28673,-8.43507 -0.43805,-15.3264 -1.01861,-23.67254 -0.86465,-12.43031 -2.03224,-25.91278 -10.84448,-35.87724 -4.5431,-5.13713 -11.14593,-7.99298 -16.7189,-11.98946 -2.30661,-0.66128 -4.5912,-1.40483 -6.91983,-1.98383 -6.53719,-1.62544 -13.78218,-1.47918 -20.40958,-2.37763 -23.74457,-1.34934 -47.54445,-1.29444 -71.28464,0.24606 -34.54815,2.41432 -68.99534,6.00166 -103.22073,11.36801 -18.59943,2.71589 -37.18249,5.55231 -55.82496,7.96046 -52.71007,5.84373 -44.44578,80.38702 8.26428,74.54329 z"/>
<path d="m 557.33533,633.07049 c 13.2848,-2.06017 26.61511,-3.82255 39.933,-5.66142 24.64135,-3.95949 49.52475,-5.697 74.43977,-6.60371 16.07619,-0.3541 7.85827,-0.24028 24.65401,-0.32309 53.03225,-0.28383 52.63085,-75.28276 -0.4014,-74.99893 v 0 c -18.43451,0.10573 -9.4282,-0.0257 -27.01923,0.37306 -27.41923,1.02496 -54.80683,2.94697 -81.93152,7.25755 -12.65289,1.74707 -25.33121,3.36351 -37.93862,5.41322 -52.71009,5.84353 -44.44609,80.38685 8.26399,74.54332 z"/>
<path d="m 545.15359,714.17693 c 14.65996,-1.90856 29.29901,-3.96841 43.94287,-5.99591 34.59124,-5.20661 69.51361,-7.48995 104.40481,-9.53488 21.06337,-1.17464 42.14412,-1.96671 63.20578,-3.16821 52.94637,-3.03018 48.66105,-77.90765 -4.28532,-74.87748 v 0 c -21.09778,1.2116 -42.21662,1.98008 -63.31567,3.17458 -36.86133,2.16727 -73.74966,4.63243 -110.29594,10.11473 -14.74286,2.04138 -29.48146,4.11044 -44.23978,6.03762 -52.50235,7.48349 -41.91911,81.73303 10.58325,74.24955 z"/>
<path d="m 613.91987,362.1699 c 0.88304,22.37504 0.75019,44.77974 0.87948,67.16909 0.14982,58.45324 0.2789,116.90848 0.10793,175.36188 -0.49032,51.00714 -1.66878,102.03562 -5.08059,152.94123 -0.59651,8.90029 -1.34652,17.78964 -2.01978,26.68445 -2.50299,32.97129 -7.56579,65.65872 -12.95121,98.25781 -8.63717,52.32494 65.36147,64.53974 73.99864,12.2148 v 0 c 5.73616,-34.77714 11.08136,-69.65353 13.73975,-104.82648 0.70114,-9.31019 1.48158,-18.61475 2.10343,-27.93057 3.49097,-52.29808 4.7145,-104.72095 5.20944,-157.12281 0.17016,-58.67059 0.0431,-117.34299 -0.10886,-176.01341 -0.0741,-12.83672 -0.10207,-25.67376 -0.21642,-38.51018 -0.10046,-11.27776 -0.1344,-22.62206 -0.95032,-33.87991 -0.13987,-1.9299 -0.39163,-3.85006 -0.58744,-5.77508 -8.08166,-52.41362 -82.2057,-40.98443 -74.12405,11.42918 z"/>
<path d="m 619.66275,686.32677 c -3.17535,1.76154 -5.17686,2.83036 -8.52193,4.97572 -6.45059,4.13708 -12.71787,8.55393 -19.12774,12.75384 -45.73998,29.96995 25.69444,-17.14987 -29.13402,19.07247 -25.50993,16.85415 -51.11747,33.60476 -77.24807,49.48884 -15.26705,9.28042 -20.59417,12.13968 -35.68788,20.66205 -46.16972,26.09322 -9.26833,91.38708 36.90139,65.29385 v 0 c 16.58942,-9.38378 21.64222,-12.08088 38.45734,-22.30668 26.6948,-16.23392 52.85863,-33.34673 78.92392,-50.56451 51.55644,-34.07341 -17.18181,11.28635 29.34201,-19.21039 3.55129,-2.3279 7.06954,-4.70582 10.60431,-7.05873 1.90391,-1.30417 3.78318,-2.64509 5.71175,-3.91253 2.00173,-1.31552 3.13907,-1.93079 5.01128,-2.98455 46.81709,-24.91304 11.58474,-91.12241 -35.23236,-66.20938 z"/>
<path d="m 663.03602,755.46095 c 11.82833,8.65395 23.17266,17.95445 34.5159,27.23372 15.7596,12.92684 31.36744,26.03788 47.10245,38.99409 6.73358,5.19395 13.14153,10.97345 20.47254,15.35176 2.06548,1.23357 4.20694,2.33522 6.31042,3.50282 12.98727,6.18127 26.8279,10.31711 40.41135,14.96035 50.18225,17.15349 74.44094,-53.81493 24.2587,-70.96841 v 0 c -9.9519,-3.40173 -19.98359,-6.60961 -29.79843,-10.39201 -0.55838,0.22283 -3.37467,-2.03096 -3.56921,-2.17419 -3.55751,-2.61919 -6.97889,-5.41944 -10.4208,-8.18619 -15.7997,-13.00085 -31.45911,-26.17265 -47.28419,-39.1432 -14.69345,-12.01557 -29.28127,-24.33432 -45.29156,-34.58198 -46.24708,-25.95589 -82.95424,39.44735 -36.70717,65.40324 z"/>
</svg>
