<?xml version="1.0" ?>
<svg xmlns="http://www.w3.org/2000/svg" viewBox="0 0 1000 1000">
<path d="m 308.53024,96.669803 c -1.21893,2.887833 -0.11162,0.0555 -0.92582,7.553997 -1.00458,9.25177 -2.46682,20.8345 -4.08747,29.7286 -3.35853,18.43164 -5.95645,27.38527 -10.64305,46.11958 -2.46546,9.25898 -4.89008,18.52893 -7.39639,27.77694 -5.92877,21.8765 -9.91512,36.26567 -16.52102,57.98129 -8.14635,26.77955 -17.16368,53.26928 -26.11169,79.78727 -6.19417,18.19706 -12.20483,36.45549 -18.17885,54.72569 -0.54017,1.65199 -5.52269,16.6929 -6.19725,19.49172 -0.82895,3.43937 -1.30075,6.95513 -1.95113,10.43269 4.95383,11.87066 4.23335,28.3666 14.86149,35.61197 29.48775,20.10225 51.19251,-0.0964 70.82504,-16.21942 11.22543,-9.21878 22.29143,-18.6302 33.48482,-27.88786 44.08021,-34.42333 92.7523,-63.29138 143.38829,-86.97609 10.90097,-5.09887 22.06066,-9.62526 33.09099,-14.43789 36.90783,-14.84294 75.36814,-26.00947 114.88064,-31.1243 18.72567,-2.42402 22.91368,-2.03753 41.0878,-2.38021 14.68653,0.58966 29.97842,1.00185 43.72994,6.85332 3.14204,1.33698 4.38804,2.27014 7.1069,4.01108 0.44092,2.53335 0.76988,3.71382 -5.11876,-3.79222 -1.99932,-2.54846 -3.23545,-5.61266 -4.81668,-8.4396 -0.6517,-1.16511 -0.70348,-4.16351 -1.88152,-3.53548 -2.56188,1.36577 -3.23107,4.8262 -4.94081,7.17254 -3.88596,5.33282 -7.8958,10.57425 -11.8437,15.86138 -21.55622,26.33032 -46.76878,49.28469 -70.15749,73.91504 -9.34187,9.83781 -18.38602,19.95411 -27.57902,29.93117 -35.91888,39.01711 19.25965,89.81406 55.17852,50.79696 v 0 c 8.65815,-9.41388 17.16699,-18.96731 25.97445,-28.24164 26.01761,-27.39674 54.13924,-52.89155 77.53355,-82.69689 11.13367,-15.94536 23.02545,-29.95754 28.70372,-48.98816 5.26595,-17.64874 4.78474,-30.52222 -3.49369,-46.96454 -5.13404,-10.19706 -11.8313,-13.95811 -20.18704,-20.04447 -8.57989,-4.75164 -11.20574,-6.59094 -20.80689,-10.15158 -22.12314,-8.20449 -45.76574,-10.37555 -69.19391,-10.66549 -22.95251,0.6392 -28.12498,0.20201 -51.52279,3.36223 -45.65348,6.16618 -90.10752,19.12447 -132.73825,36.4194 -12.1819,5.35222 -24.50442,10.39518 -36.54571,16.05668 -55.7856,26.22892 -109.16159,58.16394 -157.65112,96.26677 -10.91027,9.02531 -21.72212,18.16915 -32.63299,27.19373 -3.34963,2.77054 -6.94634,5.25024 -10.14654,8.1921 -0.35601,0.32727 -0.77541,1.29663 -0.30727,1.41781 46.60871,12.0653 29.93589,-5.82051 45.95198,40.17577 -1.966,2.86981 -0.84653,1.41332 1.63575,-6.39162 4.58767,-14.42485 9.38888,-28.79342 14.1831,-43.15007 2.43087,-7.27944 4.89222,-14.54866 7.33833,-21.82299 9.26215,-27.45279 18.57835,-54.8805 27.00153,-82.60684 6.7477,-22.2112 10.99943,-37.52234 17.04521,-59.85324 2.60973,-9.6394 5.13278,-19.30205 7.69918,-28.95307 2.31984,-9.36786 4.82699,-18.6913 6.95953,-28.10356 3.94896,-17.4293 5.74268,-27.65132 8.01603,-44.78455 1.1202,-8.44242 2.49109,-20.71031 2.57244,-29.455385 0.0329,-3.537151 -0.36556,-7.065157 -0.54834,-10.597736 -8.08165,-52.413615 -82.20569,-40.98444 -74.12404,11.429174 z"/>
<path d="m 448.5677,434.86011 c -4.9844,19.27798 -11.23381,38.23061 -18.5532,56.74848 -3.16315,8.00271 -6.56758,15.90795 -9.85138,23.86193 -18.12012,41.31344 -38.2997,81.86817 -62.11133,120.23075 -16.81354,27.08806 -26.00454,39.09852 -44.58809,65.18569 -23.45203,32.54484 -50.01051,62.61853 -78.09831,91.19966 -16.68427,16.97731 -35.85473,35.42075 -53.96072,50.97259 -8.47042,7.27552 -17.34464,14.06728 -26.01696,21.10092 -41.135,33.47256 6.20235,91.64623 47.33734,58.17366 v 0 c 9.69062,-7.90873 19.59874,-15.55818 29.07184,-23.72619 19.22466,-16.57611 40.29124,-36.83348 58.00099,-54.92539 30.48631,-31.1442 59.28146,-63.93107 84.78257,-99.32408 20.47573,-28.82797 29.65562,-40.77027 48.22786,-70.82046 25.55298,-41.34514 47.26697,-85.00157 66.704,-129.50685 3.59911,-8.75888 7.34069,-17.46056 10.79734,-26.27663 6.28929,-16.04064 9.20397,-24.59477 14.11193,-40.3917 1.82983,-5.88958 5.37186,-18.02355 6.9162,-24.46723 0.58658,-2.44747 0.98187,-4.93688 1.47281,-7.40531 7.51643,-52.49765 -66.72646,-63.12749 -74.24289,-10.62984 z"/>
<path d="m 420.2949,643.83098 c 1.73345,2.27759 3.39784,4.60942 5.20034,6.83276 7.08886,8.74392 14.9708,16.92451 22.65046,25.13446 17.43664,18.64066 5.843,6.01631 23.97944,26.0106 25.49444,28.47733 49.58359,58.16958 74.5853,87.07182 5.18226,5.99074 10.46293,11.89564 15.69439,17.84346 21.23957,23.11695 42.62563,46.25557 66.20539,67.03951 3.51621,3.0993 7.14857,6.06429 10.72286,9.09643 17.30036,14.45164 36.87498,25.82816 57.33668,35.17362 4.9683,2.26917 10.02848,4.33151 15.04272,6.49726 33.98151,13.48538 69.20934,23.4816 104.43073,33.1219 51.15672,13.98178 70.92995,-58.36474 19.77323,-72.34653 v 0 c -31.88555,-8.70132 -63.77301,-17.71534 -94.61421,-29.6916 -18.88867,-8.04972 -37.74956,-16.64541 -53.55572,-30.03588 -2.87911,-2.42219 -5.8085,-4.78586 -8.63734,-7.26658 -21.55551,-18.90293 -40.97581,-40.10127 -60.39936,-61.13357 -4.95925,-5.63322 -9.96749,-11.22371 -14.87776,-16.89968 -25.52608,-29.50659 -50.11261,-59.82706 -76.17011,-88.87516 -4.44667,-4.89679 -8.85674,-9.82707 -13.34002,-14.69036 -6.17647,-6.70001 -13.79696,-14.58697 -20.0587,-21.41595 -3.48632,-3.80216 -6.75256,-7.80367 -10.27336,-11.57392 -0.1165,-0.12475 -0.30749,-0.14829 -0.46124,-0.22243 -28.5175,-44.713 -91.75122,-4.38316 -63.23372,40.32984 z"/>
</svg>
