<?xml version="1.0" ?>
<svg xmlns="http://www.w3.org/2000/svg" viewBox="0 0 1000 1000">
<path d="m 211.8252,88.03301 c 0.79142,15.13305 -0.0103,30.38386 -2.62765,45.31977 -0.86431,4.93215 -2.04904,9.80275 -3.07356,14.70412 -5.88915,24.44662 -14.52294,48.09879 -23.77192,71.44167 -0.83911,2.44434 -2.0883,4.78452 -2.51731,7.33301 -3.67064,21.80466 -3.36019,32.10162 20.45929,49.78675 7.24448,5.37878 17.73275,3.92108 26.75352,4.1199 5.23174,0.1153 24.89231,-5.77098 30.08598,-7.22651 29.59426,-8.74106 59.76296,-15.62878 90.31084,-20.07069 6.53514,-0.95026 13.10376,-1.65394 19.65563,-2.48092 19.12585,-1.47692 38.5137,-4.11961 57.72106,-2.17786 2.03712,0.20594 4.04134,0.66081 6.06201,0.99121 52.5215,7.34792 62.91303,-66.9287 10.39152,-74.27662 v 0 c -4.18437,-0.5377 -8.34917,-1.25951 -12.55311,-1.6131 -23.69975,-1.99333 -47.52769,0.51471 -71.10975,2.67897 -7.46679,0.9609 -14.95239,1.78551 -22.40037,2.88269 -33.30464,4.9062 -66.20685,12.40379 -98.49291,21.89828 -3.73928,1.07043 -7.50095,2.06556 -11.21786,3.21127 -1.23079,0.37938 -4.72997,0.71466 -3.61608,1.3612 4.42231,2.56685 11.0672,1.18778 14.51426,4.96446 23.50904,25.75702 17.12838,20.2937 14.537,39.81817 -0.16544,1.24649 0.7668,-2.39507 1.1502,-3.59261 10.86125,-27.45473 20.87759,-55.31984 27.53968,-84.13274 1.30707,-6.58764 2.83227,-13.13572 3.92122,-19.76291 3.4398,-20.93406 4.40777,-42.32835 2.81756,-63.478162 -5.86945,-52.707206 -80.40869,-44.406554 -74.53925,8.300652 z"/>
<path d="m 98.248554,477.34386 c 27.642356,-7.61634 55.499816,-14.37494 83.401836,-20.96376 51.20131,-11.69922 102.94759,-21.09812 155.03467,-27.87068 10.21525,-1.32823 20.45977,-2.42079 30.68965,-3.63118 24.94557,-2.34671 49.98109,-5.00218 75.07882,-4.8293 13.92581,0.0959 17.35755,0.83594 30.38445,2.39744 52.69874,5.94497 61.1062,-68.58231 8.40745,-74.52728 v 0 c -6.22534,-0.6708 -12.42985,-1.57638 -18.67604,-2.01239 -34.72495,-2.42396 -69.49927,1.16159 -104.02996,4.49376 -10.78678,1.28281 -21.58889,2.44263 -32.36033,3.84843 -54.35004,7.09332 -108.34412,16.9173 -161.77012,29.13987 -27.93094,6.59953 -55.83716,13.30579 -83.495069,20.98585 -51.597046,12.25745 -34.262402,85.22669 17.334643,72.96924 z"/>
<path d="m 275.04064,277.30695 c -1.05785,3.46199 -1.67782,5.45566 -2.80346,9.44674 -2.65089,9.39897 -4.15429,15.69266 -7.25543,25.23995 -4.8197,14.83814 -9.36773,26.3311 -14.95949,41.21307 -23.88201,60.14802 -51.37579,118.83045 -80.75089,176.47798 -7.09229,13.91834 -14.427,27.71182 -21.64049,41.56773 -26.66367,50.75759 -56.353189,99.81721 -85.854061,148.94901 -27.29954,45.46686 37.000307,84.07424 64.299851,38.60738 v 0 c 30.28289,-50.43694 60.72948,-100.81699 88.08325,-152.93145 7.41428,-14.25017 14.95312,-28.43623 22.24283,-42.75052 30.53305,-59.95559 59.08023,-121.00161 83.84183,-183.57956 6.92539,-18.4917 10.75054,-27.98203 16.63962,-46.22202 3.49033,-10.81045 4.49903,-15.42582 7.32555,-25.47775 0.93845,-3.33743 1.93264,-6.58541 2.93301,-9.8939 14.59939,-50.9839 -57.50273,-71.63056 -72.10212,-20.64666 z"/>
<path d="m 339.36374,469.35148 c -0.27674,0.26332 -0.58436,0.49759 -0.8302,0.78996 -6.2274,7.40582 -1.54916,2.49917 -9.52749,11.4357 -4.64208,5.19959 -12.87573,13.89496 -17.7127,18.49443 -3.65823,3.47862 -7.51821,6.73873 -11.27731,10.1081 -17.9829,14.9551 -8.95508,7.54384 -27.08279,22.23461 -41.19471,33.39903 6.03865,91.65716 47.23337,58.25813 v 0 c 19.71469,-15.99049 9.65949,-7.71245 30.14608,-24.85782 4.81866,-4.38534 9.75238,-8.6475 14.45598,-13.15604 3.95008,-3.78628 7.72638,-7.75128 11.49471,-11.71848 9.94535,-10.4702 19.51287,-21.40511 27.63236,-33.37055 27.02424,-45.63102 -37.50777,-83.84907 -64.53201,-38.21804 z"/>
<path d="m 171.22789,553.37817 c 2.04618,27.31866 3.08875,54.69931 4.26721,82.06523 1.76958,44.59434 3.19937,89.23635 2.43543,133.87192 -0.15299,8.93894 -0.50204,17.87344 -0.75307,26.81016 -1.23842,23.05468 -1.72779,46.24929 -4.69303,69.17957 -0.68646,5.30843 -1.35251,10.65108 -2.72253,15.82541 -0.87021,3.28664 -2.6378,6.26731 -3.9567,9.40096 -17.74713,49.97539 52.92874,75.07363 70.67587,25.09824 v 0 c 2.42187,-7.40022 5.39939,-14.64117 7.2656,-22.20067 1.69919,-6.88297 2.50482,-13.96251 3.39824,-20.9956 3.12607,-24.60882 3.71115,-49.4865 5.00366,-74.2261 0.26015,-9.47184 0.62185,-18.94143 0.78045,-28.41551 0.76786,-45.87045 -0.67947,-91.74731 -2.50338,-137.57536 -1.21206,-28.14182 -2.29459,-56.29808 -4.40359,-84.39094 -3.92634,-52.88746 -78.72051,-47.33477 -74.79416,5.55269 z"/>
<path d="m 249.66912,612.89669 c 27.05645,-2.9327 54.14233,-5.39433 81.29544,-7.23082 31.93483,-1.76281 63.93725,-2.83876 95.91081,-1.66747 2.46453,0.15929 4.92907,0.31859 7.3936,0.47788 52.92882,3.32271 57.62784,-71.52994 4.69903,-74.85265 v 0 c -3.13964,-0.19252 -6.27927,-0.38504 -9.4189,-0.57756 -34.56004,-1.20443 -69.14743,-0.18947 -103.6639,1.792 -27.86239,1.89777 -55.66079,4.38916 -83.42434,7.40582 -52.78751,5.09701 -45.57924,79.74981 7.20826,74.6528 z"/>
<path d="m 293.44793,607.10437 c 0,23.17143 0,46.34286 0,69.51429 0,39.74538 0,79.49075 0,119.23612 0,9.46376 0,18.92753 0,28.39129 0,53.03301 75,53.03301 75,0 v 0 c 0,-9.46376 0,-18.92753 0,-28.39129 0,-39.74537 0,-79.49074 0,-119.23612 0,-23.17143 0,-46.34286 0,-69.51429 0,-53.03301 -75,-53.03301 -75,0 z"/>
<path d="m 258.27825,707.75974 c 15.36988,-3.08122 31.02296,-4.60349 46.59904,-6.23246 27.06997,-2.77078 54.27422,-4.02578 81.47902,-3.63686 3.09346,0.11831 6.18691,0.23663 9.28036,0.35494 52.99659,1.96526 55.77588,-72.98323 2.7793,-74.94848 v 0 c -3.69313,-0.13335 -7.38626,-0.2667 -11.07939,-0.40005 -30.14895,-0.36292 -60.29718,0.92381 -90.29561,4.04096 -19.85591,2.09467 -39.88665,3.96093 -59.324,8.69544 -51.00115,14.53902 -30.43987,86.66553 20.56128,72.12651 z"/>
<path d="m 255.69871,803.37754 c 17.35543,-2.32454 34.58026,-5.52612 51.82924,-8.51816 24.19567,-4.40299 48.70392,-6.33215 73.26295,-6.83563 2.61944,0.0204 5.23887,0.0408 7.85831,0.0611 53.03207,0.31509 53.47768,-74.68359 0.44561,-74.99868 v 0 c -3.31281,-0.0149 -6.62562,-0.0298 -9.93843,-0.0446 -28.30503,0.64766 -56.55732,2.85531 -84.44717,7.9214 -15.7391,2.73035 -31.45659,5.62534 -47.2745,7.87126 -52.71009,5.84353 -44.44609,80.38685 8.26399,74.54332 z"/>
<path d="m 226.67297,922.94032 c 11.98005,-5.01 25.02611,-6.5524 37.75224,-8.51711 38.9925,-5.39917 78.12974,-9.60141 117.38321,-12.51654 19.06238,-1.35746 38.15089,-2.22922 57.24256,-3.03153 52.98594,-2.23402 49.82656,-77.16744 -3.15938,-74.93342 v 0 c -19.89736,0.84155 -39.79175,1.75029 -59.65833,3.17245 -7.26507,0.54344 -14.53518,1.02342 -21.79523,1.63033 -33.97485,2.84012 -67.82341,7.0955 -101.61322,11.58127 -19.06214,3.01821 -38.36656,6.00767 -56.15697,13.87815 -48.60398,21.21683 -18.59885,89.95323 30.00512,68.7364 z"/>
<path d="m 535.29287,80.051319 c -3.75401,15.862468 -8.37604,31.501161 -12.37784,47.300591 -1.65984,6.55317 -3.21007,13.13362 -4.8151,19.70042 -1.61956,6.99779 -3.23325,13.99693 -4.85869,20.99335 -3.84459,16.54842 -5.6963,24.92809 -9.99329,41.24062 -4.51761,17.1501 -9.71784,34.05908 -15.09504,50.95318 -3.11375,9.64169 -6.42633,19.21491 -9.97812,28.70324 -0.46268,1.236 -3.66376,9.44307 -3.7262,10.65502 -0.40052,7.77449 0.20319,15.56827 0.30478,23.3524 14.68228,8.6816 27.90593,20.53024 44.04685,26.04479 3.56505,1.218 19.05735,-7.71653 23.78513,-10.07804 13.53602,-6.7612 27.58565,-12.1963 41.65012,-17.73759 36.60856,-13.41321 74.65378,-22.76524 113.27764,-28.05755 7.91381,-1.08436 15.8715,-1.82003 23.80725,-2.73004 25.3911,-2.31583 50.99782,-3.45727 76.41999,-0.92619 10.83247,1.0785 12.76795,1.66002 22.80443,3.5875 4.84843,1.60907 10.45137,2.17966 14.88842,4.97268 0.0807,0.0508 -0.0864,0.27806 -0.16924,0.2308 -1.52617,-0.87045 -3.30291,-1.50755 -4.43098,-2.85452 -3.46027,-4.13171 -6.08859,-8.89422 -9.13288,-13.34134 -0.39798,-6.15257 -0.79596,-12.30515 -1.19394,-18.45772 0.19204,-1.03992 1.54761,-3.53752 0.57613,-3.11975 -1.68836,0.72605 -2.25901,2.89971 -3.40521,4.33635 -2.3864,2.99107 -4.75491,5.99704 -7.19243,8.94659 -9.83164,11.89687 -13.84842,16.31366 -24.48704,28.50491 -38.9895,43.8347 -80.48881,85.33311 -121.72034,127.0351 -37.28666,37.71214 16.04635,90.44343 53.33301,52.7313 v 0 c 42.33026,-42.81333 84.91827,-85.43473 124.91074,-130.47032 12.10366,-13.88579 24.48573,-27.65063 35.6083,-42.35697 4.12435,-5.45325 12.86551,-17.28321 14.17312,-23.92096 1.65263,-8.38909 0.64882,-17.08834 0.97322,-25.6325 -3.5963,-6.21065 -6.4133,-12.94339 -10.78889,-18.63195 -2.42128,-3.14781 -6.00673,-5.22378 -9.28493,-7.46535 -2.53126,-1.73082 -5.30786,-3.08585 -8.07579,-4.40554 -9.79676,-4.67089 -20.37734,-7.40373 -30.89944,-9.8423 -13.71482,-2.48228 -16.78586,-3.32251 -31.22922,-4.66154 -30.06381,-2.78719 -60.32051,-1.61221 -90.33161,1.24274 -9.01201,1.05881 -18.04957,1.919 -27.03602,3.17643 -43.98374,6.15447 -87.29248,16.9405 -128.9483,32.35502 -16.61039,6.5764 -33.07817,13.16541 -49.0733,21.14819 -2.19709,1.09651 -6.18265,1.01396 -6.51,3.44755 -0.28009,2.08218 4.13285,-0.75843 6.19928,-1.13764 13.12288,8.92362 26.24576,17.84725 39.36864,26.77088 -0.2042,6.75156 -0.52052,13.50067 -0.61261,20.25469 -0.006,0.46783 0.19861,-0.91702 0.35495,-1.358 0.65973,-1.86079 1.40157,-3.69146 2.09117,-5.54139 3.9504,-10.59753 7.66211,-21.27978 11.12838,-32.04637 5.83043,-18.36015 11.4559,-36.7395 16.35335,-55.37668 4.42835,-16.85203 6.39672,-25.69668 10.33067,-42.63808 1.55626,-6.70196 3.09923,-13.40701 4.64885,-20.11052 1.49254,-6.12356 2.93111,-12.26054 4.47761,-18.3707 4.70474,-18.58824 10.45834,-36.94388 14.09731,-55.784952 7.51643,-52.497651 -66.72646,-63.127489 -74.24289,-10.629839 z"/>
<path d="m 583.35785,437.57494 c 0.29311,18.99189 0.0615,37.78625 -3.16446,56.5752 -1.11875,6.51598 -2.62687,12.95908 -3.9403,19.43863 -9.76254,41.20137 -24.14526,81.26412 -41.67247,119.78812 -3.66597,8.05763 -7.67746,15.95354 -11.51618,23.9303 -10.8016,22.00417 -23.45288,42.99614 -37.34122,63.17392 -6.14736,8.93124 -16.76345,23.73802 -24.18069,32.18371 -3.36512,3.83171 -7.17702,7.24672 -10.76552,10.87008 -36.8582,38.131 17.06718,90.25636 53.92538,52.12536 v 0 c 5.22654,-5.4961 10.71204,-10.75707 15.67962,-16.48829 8.43788,-9.73499 20.82806,-26.97437 27.92926,-37.36609 15.74243,-23.03713 30.08733,-46.99151 42.37557,-72.06089 4.27495,-8.93765 8.73742,-17.788 12.82485,-26.81295 19.61988,-43.32016 35.58611,-88.40316 46.30903,-134.75548 1.584,-8.13248 3.43064,-16.21818 4.75199,-24.39744 3.54322,-21.93289 4.1573,-44.04173 3.78514,-66.20418 0,-53.033 -75,-53.033 -75,0 z"/>
<path d="m 638.39537,684.04058 c 12.56542,13.82322 24.21293,28.4717 35.94855,42.99989 17.74174,23.08451 34.87871,46.63968 51.80278,70.32968 12.71176,18.67279 25.38071,37.36084 38.72044,55.59348 7.4532,9.90746 14.78228,19.93415 22.93682,29.28711 6.53183,7.49178 8.04923,8.80813 15.1197,15.98544 15.81121,15.29371 33.06817,29.1997 51.55263,41.15174 4.53495,2.9323 9.21911,5.62715 13.82867,8.44072 5.50523,2.7828 11.01046,5.56559 16.51568,8.34838 47.4973,23.5904 80.85916,-43.58092 33.36187,-67.17132 v 0 c -3.67848,-1.77846 -7.35696,-3.55692 -11.03544,-5.33538 -3.43302,-2.05549 -6.92745,-4.01173 -10.29907,-6.16647 -14.55206,-9.29993 -28.17158,-20.1316 -40.64778,-32.05601 -4.98584,-4.99178 -6.36039,-6.20728 -10.95675,-11.42264 -7.10447,-8.06124 -13.37134,-16.8096 -19.85752,-25.36138 -13.1796,-17.99522 -25.6185,-36.49367 -38.21673,-54.89702 -17.78888,-24.89045 -35.78557,-49.65228 -54.48955,-73.86379 -13.05364,-16.14993 -26.00457,-32.43965 -40.09051,-47.70868 -36.66083,-38.3208 -90.85462,13.52545 -54.19379,51.84625 z"/>
</svg>
