<?xml version="1.0" ?>
<svg xmlns="http://www.w3.org/2000/svg" width="1000" height="1000">
<path d="m 417.88119,90.022163 c -0.1105,19.096417 0.21759,38.189747 0.56466,57.282117 0.65942,40.86794 0.13216,81.74263 -0.14428,122.61172 -0.0405,7.19461 -0.0809,14.38922 -0.12137,21.58382 -0.29815,53.03217 74.70067,53.45382 74.99882,0.42165 v 0 c 0.0403,-7.16606 0.0806,-14.33213 0.12084,-21.49819 0.28065,-41.49316 0.81146,-82.99199 0.13357,-124.48391 -0.33969,-18.63745 -0.66287,-37.27577 -0.55224,-55.917207 0,-53.033009 -75,-53.033009 -75,0 z"/>
<path d="m 505.61523,198.24578 c 17.56924,-2.16269 35.27913,-2.67897 52.95952,-3.01668 11.15407,-0.17643 22.30656,0.0847 33.4567,0.33676 53.01967,1.18927 54.70155,-73.79187 1.68187,-74.98114 v 0 c -12.20203,-0.2717 -24.4067,-0.54394 -36.61278,-0.34113 -19.6743,0.39667 -39.37747,1.00239 -58.93167,3.37276 -52.77098,5.26538 -45.32462,79.89481 7.44636,74.62943 z"/>
<path d="m 256.76012,199.49352 c 1.88749,20.06438 1.64582,40.25056 1.50548,60.37826 -0.21802,16.56558 -0.83406,33.12031 -1.49144,49.67274 -2.09865,52.99147 72.8426,55.95941 74.94126,2.96794 v 0 c 0.68619,-17.37323 1.3311,-34.74887 1.54848,-52.13597 0.1522,-23.40735 0.36277,-46.89325 -2.08551,-70.20606 -6.59242,-52.62167 -81.0107,-43.29858 -74.41827,9.32309 z"/>
<path d="m 216.02332,382.45287 c 19.90554,-4.10538 39.67581,-8.85958 59.61203,-12.82245 7.73175,-1.53689 15.49327,-2.91996 23.23991,-4.37995 54.16115,-9.24633 108.96757,-14.22354 163.77505,-17.64354 12.3412,-0.7701 24.69367,-1.3473 37.0405,-2.02094 52.98521,-2.32988 106.10995,-3.52543 159.10976,-0.84536 7.35617,0.37198 14.69867,0.97736 22.04801,1.46603 17.53983,1.22407 34.85828,4.10801 51.96196,8.07636 51.69908,11.81971 68.41467,-61.29383 16.71559,-73.11354 v 0 c -21.00359,-4.7486 -42.23571,-8.34977 -63.75407,-9.80104 -8.06727,-0.52555 -16.12747,-1.17376 -24.20179,-1.57665 -55.28781,-2.75878 -110.7034,-1.54562 -165.97467,0.90609 -12.73702,0.69804 -25.47993,1.29613 -38.21108,2.09413 -57.70985,3.61731 -115.41128,8.93587 -172.42642,18.76102 -8.27042,1.56471 -16.55604,3.05115 -24.81128,4.69412 -18.87425,3.75636 -37.62148,8.14091 -56.42649,12.22169 -52.31461,8.69953 -40.01161,82.68356 12.30299,73.98403 z"/>
<path d="m 202.89174,448.7591 c -0.61255,20.73882 -3.88998,41.28652 -7.02528,61.75697 -1.32894,7.8388 -2.61942,15.68423 -3.98683,23.51641 -3.58129,20.5126 -6.43388,36.77909 -11.0526,57.23428 -4.71514,20.88223 -11.31321,46.0296 -17.30533,66.46832 -3.46753,11.82748 -7.30403,23.54365 -10.95604,35.31548 -11.03174,33.45862 -22.86113,66.65825 -37.21952,98.85268 -5.44368,12.20583 -20.557941,43.15866 -26.486261,55.39236 -23.123141,47.72652 44.372341,80.42758 67.495491,32.70106 v 0 c 7.25308,-14.97338 21.59373,-44.29133 28.11948,-59.00354 15.28625,-34.46266 27.98102,-69.95613 39.7343,-105.75677 3.87541,-12.53609 7.94653,-25.01335 11.62623,-37.60828 6.51877,-22.31256 13.34194,-48.51058 18.45464,-71.25537 4.76773,-21.21014 7.83648,-38.58421 11.53713,-59.8197 1.43543,-8.23695 2.78829,-16.48809 4.18243,-24.73213 3.67604,-24.20887 7.45535,-48.52718 7.88216,-73.06177 0,-53.03301 -75,-53.03301 -75,0 z"/>
<path d="m 258.13191,509.90919 c 18.71237,-3.49832 37.29351,-7.64671 56.02553,-11.04988 7.44734,-1.35301 14.91346,-2.60053 22.3702,-3.90079 37.86497,-6.01791 75.90606,-11.13979 114.12155,-14.34887 26.77714,-2.24856 36.49997,-2.4744 63.41932,-3.77087 53.28083,-2.11761 106.61966,-1.8376 159.89237,0.23345 21.54275,1.21792 11.40075,0.54023 30.4305,1.96492 52.88683,3.93496 58.45169,-70.85831 5.56487,-74.79326 v 0 c -20.82218,-1.54049 -9.7917,-0.81317 -33.09576,-2.11559 -55.44917,-2.13555 -110.96643,-2.43948 -166.42272,-0.20159 -28.70494,1.39956 -38.48271,1.61866 -67.08514,4.03872 -40.09162,3.39216 -80.00228,8.76681 -119.72392,15.11063 -25.80444,4.51035 -51.52227,9.40988 -77.16837,14.74687 -52.3869,8.25305 -40.71533,82.33931 11.67157,74.08626 z"/>
<path d="m 302.35135,628.44231 c 21.44583,-4.21284 43.12024,-7.10589 64.7975,-9.8172 37.25667,-4.34534 74.74398,-6.04326 112.23393,-5.9547 12.44594,0.13061 24.8904,0.58868 37.26708,1.9297 52.74696,5.50076 60.52622,-69.0947 7.77926,-74.59547 v 0 c -14.9261,-1.51556 -29.90859,-2.26375 -44.91523,-2.33411 -5.99289,-0.007 -11.98614,-0.0869 -17.97868,-0.0214 -34.65402,0.37849 -69.28024,2.72919 -103.71784,6.5588 -23.7163,2.9809 -47.43032,6.16447 -70.88359,10.83621 -51.90038,10.90187 -36.48281,84.30009 15.41757,73.39822 z"/>
<path d="m 376.4254,598.17366 c -0.39812,2.51091 -0.91325,5.00605 -1.19437,7.53274 -1.1887,10.684 -0.83825,21.69042 -0.84888,32.40624 -0.0115,11.64171 0.031,23.28342 0.0276,34.92514 -0.14005,42.81979 0.35316,85.63792 -0.64515,128.44939 -1.21971,21.74204 -1.37532,44.17098 -7.94483,65.17034 -0.51248,1.63811 -1.23168,3.20424 -1.84752,4.80636 -0.46438,0.82093 -0.74407,1.77847 -1.39313,2.46279 -0.26898,0.2836 -0.0793,-0.85204 0.15915,-1.16178 1.96912,-2.55812 3.58775,-5.64815 6.35828,-7.30513 4.21723,-16.6385 16.06688,-2.67419 23.20055,-6.33088 0.95769,-0.49091 -1.50658,-1.53718 -2.25987,-2.30576 -9.59142,-8.16782 -18.4984,-17.09074 -27.48209,-25.90797 -37.87584,-37.12035 -90.37195,16.44417 -52.49612,53.56453 v 0 c 12.37875,12.1162 24.6033,24.47884 38.5373,34.85464 10.99988,6.69175 21.46984,14.88357 35.41291,14.78278 9.06363,-0.0655 18.24155,-2.37287 26.49324,-6.12296 8.45012,-3.84026 15.47193,-13.89999 19.83077,-21.9057 1.69062,-3.10508 2.90974,-6.44456 4.36462,-9.66684 1.25142,-3.68937 2.66121,-7.32876 3.75428,-11.06812 7.78143,-26.62015 9.13395,-54.60605 10.29244,-82.13366 0.99383,-43.38229 0.54694,-86.76997 0.66516,-130.16056 0.003,-11.54675 -0.0326,-23.09349 -0.0282,-34.64024 0.002,-4.13749 0.003,-8.27511 0.0442,-12.4124 0.0271,-2.70232 0.0917,-5.4042 0.16146,-8.10575 0.0302,-1.16749 0.44692,-2.37455 0.13831,-3.50092 -0.18286,-0.66741 -0.36597,1.33476 -0.54895,2.00214 12.88944,-51.44281 -59.86168,-69.67123 -72.75112,-18.22842 z"/>
<path d="m 267.65941,683.92083 c -0.52834,1.42305 -1.08303,2.83658 -1.58501,4.26914 -2.03818,5.81651 -2.57363,8.28259 -5.16319,13.97365 -5.67678,12.47581 -12.90033,23.36843 -20.38141,34.80883 -11.28709,16.95711 -23.60687,33.16721 -36.84471,48.6434 -4.67613,5.46681 -9.51442,10.79281 -14.27163,16.18922 -35.03452,39.81309 21.2697,89.35938 56.30422,49.54629 v 0 c 5.27559,-6.00483 10.65043,-11.9239 15.82677,-18.01449 15.04855,-17.70648 29.08409,-36.22456 41.93434,-55.59157 3.8761,-6.02924 7.92777,-11.94917 11.62832,-18.08773 9.09933,-15.09419 16.82999,-31.01555 22.16656,-47.82876 19.73391,-49.22472 -49.88035,-77.13269 -69.61426,-27.90798 z"/>
<path d="m 460.12284,713.96976 c 2.77844,10.72527 7.0646,20.98332 10.78972,31.39659 4.27781,11.95825 4.26433,12.26575 8.24042,24.61706 4.1861,13.14207 7.70849,26.47662 11.21857,39.80986 13.51949,51.28083 86.04153,32.16137 72.52204,-19.11946 v 0 c -3.86654,-14.64685 -7.75275,-29.29335 -12.36653,-43.72819 -5.42114,-16.75597 -11.30215,-33.33309 -17.33314,-49.87611 -11.95028,-51.66905 -85.02135,-34.76881 -73.07108,16.90025 z"/>
<path d="m 542.31444,360.0165 c 0.33604,19.92375 1.13969,39.85303 3.1301,59.68837 0.8086,8.05811 1.87366,16.08841 2.81049,24.13262 9.32419,63.54029 24.8968,125.92818 41.17711,187.97746 14.24301,53.93265 30.04594,107.54467 50.06346,159.65104 3.50087,9.11291 7.30989,18.10444 10.96484,27.15666 12.41905,28.92154 26.3298,57.35396 43.99452,83.47933 8.62979,12.7631 10.78842,14.84585 20.24894,26.28081 9.45867,10.04958 19.3021,20.24354 31.06441,27.67042 2.44035,1.54087 4.7461,3.53921 7.54318,4.25049 7.71868,1.96283 15.7395,2.44763 23.60925,3.67145 10.41906,-8.07653 22.84338,-14.08094 31.25719,-24.22959 4.10545,-4.95195 3.29756,-12.45138 4.40644,-18.78754 0.86986,-4.97041 1.01161,-10.04107 1.51742,-15.0616 0.91016,-6.42012 1.58445,-12.87813 2.73049,-19.26037 4.74046,-26.39929 6.33464,-29.00176 14.2661,-56.54223 3.96856,-11.47324 7.93712,-22.94649 11.90568,-34.41974 17.26004,-50.14569 -53.65668,-74.55508 -70.91673,-24.40939 v 0 c -4.37538,12.76847 -8.75077,25.53693 -13.12616,38.3054 -9.26372,32.90331 -10.87073,35.12893 -16.40296,66.65626 -1.2958,7.38456 -2.16961,14.8382 -3.09132,22.27872 -0.50658,4.08941 -1.72892,8.21869 -1.19272,12.30432 0.18647,1.42084 1.5558,-2.40701 2.3337,-3.61052 9.38324,-5.92605 18.76647,-11.8521 28.14971,-17.77815 6.28799,1.397 12.62256,2.5988 18.86399,4.19101 0.42037,0.10724 1.36196,1.05303 0.96931,0.86853 -1.42433,-0.66924 -5.28847,-3.78182 -5.98103,-4.35993 -4.99428,-4.16899 -5.4464,-4.88539 -10.3762,-9.85539 -6.8081,-8.01028 -8.28069,-9.36907 -14.6166,-18.60489 -15.22324,-22.19087 -26.95172,-46.5386 -37.63141,-71.16651 -3.35555,-8.27525 -6.85729,-16.49271 -10.06666,-24.82574 -19.21319,-49.8865 -34.30261,-101.24547 -47.94442,-152.89485 -15.4073,-58.66852 -30.1828,-117.63999 -39.23144,-177.68326 -0.84925,-7.16442 -1.81487,-14.316 -2.54775,-21.49326 -1.81812,-17.80512 -2.54016,-35.69377 -2.88093,-53.57993 0,-53.03301 -75,-53.03301 -75,0 z"/>
<path d="m 698.5175,585.72266 c -1.40747,2.32774 -2.91024,4.60045 -4.22242,6.98321 -4.23661,7.69315 -7.91982,15.68219 -12.14489,23.38169 -5.12489,9.33929 -16.98384,29.64981 -21.94794,37.63617 -5.32566,8.56806 -10.93247,16.95815 -16.39871,25.43722 -21.84987,31.21457 -43.63227,62.49013 -66.32625,93.10203 -13.1479,17.73521 -31.93167,42.60961 -46.63396,59.45623 -7.08016,8.11281 -14.76363,15.67866 -22.14544,23.51798 -36.24819,38.71136 18.49794,89.97403 54.74612,51.26267 v 0 c 8.52383,-9.14715 17.36718,-18.00665 25.57148,-27.44145 8.48091,-9.75288 16.48411,-19.91512 24.45553,-30.08866 32.78742,-41.84505 62.86393,-85.73949 93.40153,-129.22185 5.94072,-9.24647 12.02829,-18.40022 17.82216,-27.73941 12.71324,-20.49257 24.59174,-41.56205 35.2198,-63.21139 30.45823,-43.41424 -30.93878,-86.48868 -61.39701,-43.07444 z"/>
<path d="m 766.89533,445.16837 c 0.83861,0.80363 1.73429,1.55165 2.51582,2.41088 2.09298,2.30106 9.98938,12.31913 10.44042,12.90617 6.17046,8.03096 12.7117,16.84472 18.01585,25.44952 2.94821,4.78282 5.51355,9.79132 8.27033,14.68699 2.42311,5.44266 4.84623,10.88531 7.26935,16.32797 21.99525,48.2567 90.24052,17.15072 68.24527,-31.10598 v 0 c -3.4673,-7.4807 -6.93461,-14.9614 -10.40192,-22.4421 -3.76335,-6.51061 -7.3036,-13.15537 -11.29003,-19.53182 -6.14724,-9.83273 -14.4438,-21.09906 -21.62787,-30.34174 -5.9818,-7.6959 -10.98613,-13.80234 -17.71089,-20.74394 -1.6464,-1.69949 -3.47726,-3.21003 -5.21589,-4.81505 -40.44587,-34.30206 -88.95631,22.89704 -48.51044,57.1991 z"/>
</svg>
