<?xml version="1.0" ?>
<svg xmlns="http://www.w3.org/2000/svg" viewBox="0 0 1000 1000">
<path d="m 344.22833,244.25545 c 21.46878,-3.70548 42.13152,-11.01249 63.20889,-16.39998 7.5374,-1.9266 15.13066,-3.62764 22.69599,-5.44147 36.46569,-7.61695 73.65678,-11.53572 110.86439,-12.89249 21.2232,-0.7739 30.89791,-0.42971 51.72792,-0.19315 18.3315,0.34672 36.60897,1.76734 54.87522,3.23385 52.86432,4.22653 58.84153,-70.53492 5.9772,-74.76144 v 0 c -19.98825,-1.59188 -39.98974,-3.11755 -60.04898,-3.46811 -22.94044,-0.23221 -33.26955,-0.59727 -56.71017,0.30536 -41.70984,1.60612 -83.38294,6.1427 -124.22811,14.85644 -8.31712,2.00708 -16.66269,3.89973 -24.95136,6.02124 -8.78202,2.24777 -27.18384,7.50699 -36.65076,10.16746 -4.80379,1.35 -9.56593,2.80099 -14.44293,3.85521 -0.72943,0.15767 -1.4718,0.24805 -2.2077,0.37208 -52.56986,6.99357 -42.67945,81.33857 9.8904,74.345 z"/>
<path d="m 458.92459,90.905463 c 0,26.416727 0,52.833457 0,79.250187 0,55.04271 0,110.08543 0,165.12815 -0.0503,26.26675 -0.2168,52.53307 -0.39159,78.79922 -0.35286,53.03184 74.64548,53.53086 74.99834,0.49903 v 0 c 0.17586,-26.4325 0.34331,-52.86515 0.39325,-79.29825 0,-55.04272 0,-110.08544 0,-165.12815 0,-26.41673 0,-52.83346 0,-79.250187 0,-53.033009 -75,-53.033009 -75,0 z"/>
<path d="m 432.28229,344.90827 c 14.76164,-4.88923 30.24097,-7.66938 45.68043,-9.34024 5.17533,-0.56008 10.37756,-0.83502 15.56634,-1.25252 22.56794,-1.19236 45.35775,-0.20836 67.47348,4.70924 2.92416,0.6502 5.7989,1.50553 8.69834,2.2583 2.34547,0.74075 4.69093,1.48151 7.03639,2.22227 50.68216,15.6147 72.76468,-56.0607 22.08252,-71.6754 v 0 c -3.61359,-1.09517 -7.22718,-2.19034 -10.84078,-3.28552 -4.39534,-1.0803 -8.7589,-2.29927 -13.18602,-3.24091 -28.73927,-6.11281 -58.28198,-7.44462 -87.55841,-5.72338 -6.57438,0.57323 -13.16625,0.97241 -19.72312,1.71968 -22.69203,2.58617 -45.50944,7.00836 -66.75433,15.55582 -48.1205,22.29166 -16.59533,90.34432 31.52516,68.05266 z"/>
<path d="m 145.18359,518.08288 c 31.28072,-14.95878 65.59875,-21.79189 99.19806,-29.34425 11.78864,-2.24646 23.53323,-4.73793 35.36593,-6.73939 27.33426,-4.62349 55.2117,-8.15073 82.76646,-11.05801 31.5255,-3.32623 61.92694,-5.7531 93.59238,-7.59313 16.34262,-0.94964 32.7042,-1.539 49.0563,-2.3085 74.07702,-2.45116 148.25198,-2.37751 222.32515,0.2329 11.29188,0.39793 22.57709,0.96657 33.86564,1.44985 30.60817,1.61329 61.27486,3.759 91.53033,8.86556 10.16109,1.71501 12.91566,2.47777 22.24664,4.63716 51.6999,11.8161 68.41039,-61.2986 16.71049,-73.1147 v 0 c -11.83059,-2.67764 -15.11354,-3.57808 -27.83327,-5.69294 -32.88659,-5.46792 -66.19138,-7.91012 -99.45465,-9.6268 -11.64466,-0.49595 -23.28592,-1.07907 -34.93396,-1.48785 -75.9631,-2.66581 -152.03038,-2.726 -227.99608,-0.1796 -16.90897,0.80204 -33.82785,1.41698 -50.72691,2.40612 -74.76699,4.3763 -149.58824,11.90289 -223.00396,27.04447 -40.7893,9.21557 -82.4257,17.95727 -119.85615,37.35502 -46.070904,26.26732 -8.923303,91.42141 37.1476,65.15409 z"/>
<path d="m 361.96164,484.99567 c 0.46226,20.68921 -3.15332,41.24052 -6.43205,61.58657 -1.30691,8.10997 -2.66214,16.21208 -3.99321,24.31812 -1.47852,8.73464 -2.88156,17.48239 -4.43557,26.20391 -3.33465,18.71499 -6.00422,32.68751 -10.35546,51.13403 -5.11135,21.66898 -11.42169,42.96311 -17.93086,64.24073 -6.88533,21.22047 -13.73726,42.44841 -20.10659,63.82994 -3.74651,12.79255 -7.66418,26.05476 1.49479,39.22825 6.22633,8.95543 16.85067,14.20696 26.66574,18.9642 4.43772,2.15089 9.83516,0.74051 14.75274,1.11077 19.84866,-1.01127 39.73374,-1.53777 59.5886,-0.29394 18.38375,1.15167 24.93297,2.30254 43.62673,4.67409 48.80001,6.91437 96.18374,20.80684 143.15275,35.34842 21.3867,6.82872 42.77038,13.66088 64.27559,20.10778 50.80217,15.21971 72.32609,-56.62541 21.52392,-71.84512 v 0 c -21.29302,-6.3747 -42.45497,-13.16571 -63.63272,-19.91204 -51.16106,-15.81739 -102.81129,-30.75777 -155.9856,-38.11595 -8.69124,-1.07914 -17.36237,-2.33481 -26.0737,-3.23741 -28.58715,-2.96198 -57.3865,-3.53207 -86.06797,-1.72473 9.7336,3.77112 16.31137,5.98908 23.81842,18.64998 4.05159,6.83314 2.3655,15.71334 3.31155,23.6008 0.0463,0.3857 -0.4389,1.48994 -0.34736,1.11242 0.30279,-1.24866 1.55416,-5.49377 1.77538,-6.25656 6.31931,-21.21562 13.14538,-42.26975 19.9564,-63.33204 7.08948,-23.24415 13.93101,-46.50581 19.48205,-70.17892 4.61118,-19.66495 7.48252,-34.70455 11.02389,-54.58869 1.57504,-8.84355 2.99777,-17.71355 4.49666,-26.57033 5.48272,-33.40684 12.19717,-67.04858 11.35568,-101.05856 -2.12434,-52.99044 -77.06415,-49.98616 -74.9398,3.00428 z"/>
<path d="m 427.13734,574.88792 c 12.6031,-1.72012 25.09416,-4.16558 37.67886,-6.00588 14.17201,-2.07242 18.61202,-2.41987 33.23755,-4.02706 32.04171,-3.36609 64.20242,-5.464 96.37129,-7.15071 7.69928,0.18973 15.72827,-1.22404 23.42628,-0.31189 0.25568,0.0303 -0.51146,0.13931 -0.76589,0.0999 -1.61613,-0.25014 -3.2071,-0.64204 -4.81065,-0.96306 -16.11463,-9.73347 -12.30667,-4.68188 -21.74227,-22.12984 -0.59197,-1.09465 0.19302,-4.01321 -0.98155,-3.60204 -1.28237,0.44891 -0.2422,2.70676 -0.33346,4.06237 -0.59568,8.84847 -0.73309,12.71652 -1.19276,22.13057 -1.90805,32.13352 -1.76147,64.39721 -4.71844,96.46932 -0.68055,7.38148 -1.67366,14.7308 -2.51048,22.0962 -4.71823,29.4683 -11.53463,58.73345 -22.10598,86.6922 -6.43215,17.01152 -9.40627,22.25228 -17.29027,38.5774 -3.34915,5.97544 -6.53495,12.04541 -10.04744,17.92632 -6.08826,10.19349 -14.65164,22.90862 -21.63526,32.55854 -6.40795,8.85446 -13.15388,17.59318 -20.52272,25.68368 -2.90483,3.18931 -6.06468,6.13665 -9.09702,9.20498 -10.43927,9.23282 -5.35498,5.03856 -15.1643,12.68938 -41.554,32.95095 5.04568,91.71718 46.59968,58.76623 v 0 c 14.59751,-11.70129 7.12974,-5.36542 22.2974,-19.13173 4.23113,-4.39072 8.62112,-8.63372 12.69338,-13.17217 8.78161,-9.78691 17.20749,-20.7098 24.87068,-31.36795 8.49106,-11.80957 18.15645,-26.31147 25.50479,-38.78045 4.2458,-7.20446 8.0884,-14.63907 12.1326,-21.95861 9.53896,-20.02512 12.89403,-25.93533 20.6664,-46.85282 12.29229,-33.08179 20.33052,-67.6324 25.63096,-102.47763 0.9314,-8.40403 2.0294,-16.79128 2.7942,-25.21211 2.96166,-32.60913 2.92962,-65.39816 4.81337,-98.06931 1.94459,-40.19755 -0.64601,12.33459 1.16113,-21.52963 0.31992,-5.99498 1.15458,-17.04556 -0.70238,-22.48058 -7.47664,-21.88289 -8.64146,-18.91781 -25.97091,-30.75001 -3.10237,-0.8545 -6.15622,-1.91022 -9.30711,-2.5635 -3.82824,-0.79372 -9.00739,-0.99561 -12.98168,-1.06298 -8.21824,-0.13933 -16.43419,0.26741 -24.64372,0.5624 -33.60604,1.76765 -67.20293,3.96826 -100.67485,7.50119 -6.46303,0.71769 -12.93463,1.36199 -19.38908,2.15307 -18.16908,2.22687 -36.16107,5.52952 -54.25767,8.2324 -52.46293,7.75507 -41.4956,81.94885 10.96732,74.19378 z"/>
<path d="m 458.92459,582.74237 c 0.3223,18.96924 -1.38881,37.89778 -4.84065,56.55165 -1.27812,6.90698 -2.91312,13.74312 -4.36967,20.61468 -4.85599,22.58298 -12.3092,44.40405 -21.33795,65.62969 -5.22473,12.28278 -12.88739,28.18309 -18.58745,40.24047 -22.65097,47.95241 45.16398,79.98572 67.81495,32.03331 v 0 c 6.53401,-13.84307 14.6126,-30.58229 20.49397,-44.63473 10.55845,-25.2275 19.27263,-51.15292 25.02934,-77.92105 1.70439,-8.24825 3.63089,-16.4537 5.11316,-24.74475 3.99827,-22.36415 5.98844,-45.0523 5.6843,-67.76927 0,-53.03301 -75,-53.03301 -75,0 z"/>
<path d="m 184.73382,728.05931 c 15.32766,-7.07025 31.08405,-13.08794 47.56873,-16.86935 6.64092,-1.52336 13.35915,-2.68754 20.03873,-4.03131 8.24283,-1.2706 16.46457,-2.68641 24.72847,-3.81179 19.41074,-2.64336 43.19232,-5.11088 62.52004,-6.82158 22.26785,-1.97093 53.27602,-4.18442 75.40707,-5.39751 13.47999,-0.7389 26.97242,-1.23008 40.45863,-1.84512 13.8436,-0.38204 27.68395,-0.91024 41.53081,-1.14613 30.88297,-0.5261 52.17859,-0.40712 83.01762,0.61124 24.18225,0.79854 53.80715,2.45128 78.05313,4.17853 11.68493,0.83242 23.35362,1.87904 35.03043,2.81856 45.31151,4.35535 90.7382,9.09543 135.29768,18.64649 2.7622,0.72114 5.5244,1.44227 8.2866,2.16341 51.36445,13.19824 70.02957,-59.44206 18.66512,-72.6403 v 0 c -3.7845,-0.96105 -7.569,-1.9221 -11.35351,-2.88316 -4.84788,-1.02384 -9.67829,-2.13428 -14.54366,-3.07152 -43.04877,-8.29275 -86.76013,-12.71577 -130.3496,-16.97432 -12.11746,-0.97099 -24.22655,-2.05287 -36.35239,-2.91296 -25.29115,-1.7939 -55.94108,-3.49147 -81.15593,-4.30813 -32.09,-1.03933 -54.58059,-1.15576 -86.67544,-0.59899 -14.29666,0.24801 -28.58651,0.79714 -42.87976,1.19571 -13.95211,0.64072 -27.91063,1.15441 -41.85632,1.92215 -22.96759,1.26443 -54.89218,3.55239 -77.96445,5.60642 -20.50491,1.82547 -46.13847,4.49822 -66.68843,7.35227 -9.44173,1.3113 -18.83279,2.96466 -28.24919,4.44699 -8.25002,1.7192 -16.55599,3.1889 -24.75005,5.15758 -19.60812,4.71098 -38.53129,11.65604 -56.83343,20.06697 -48.89351,20.54082 -19.8444,89.68667 29.0491,69.14585 z"/>
</svg>
