<?xml version="1.0" ?>
<svg xmlns="http://www.w3.org/2000/svg" width="1000" height="1000">
<path d="m 449.3974,161.03136 c -0.84735,-0.51804 -1.85379,-2.35757 -0.55254,0.18092 0.57427,1.12028 0.53277,1.09259 0.93703,2.16667 2.20376,5.50837 2.97437,11.45493 3.83191,17.28636 2.70439,22.36508 4.3796,44.84708 6.14125,67.30271 1.95117,24.88082 4.11718,49.74645 5.52553,74.66651 1.06764,18.89134 1.21452,25.24385 1.93212,44.32336 1.4399,52.19402 1.82794,104.41116 2.34321,156.62071 0.42143,52.42171 0.48318,104.8419 0.13833,157.2638 -0.29484,30.31772 -0.19633,60.65275 -1.43102,90.9532 -0.66007,16.19869 -1.13724,21.30315 -2.26497,37.23064 -1.929,22.85877 -4.50064,45.67723 -8.08737,68.33793 -0.58956,2.94273 -0.90213,5.93697 -1.4882,8.88071 -0.12035,0.6045 -0.0792,-1.31184 0.25166,-1.83187 4.10676,-6.45456 6.26467,-15.24454 12.96385,-18.93885 11.41849,-6.29681 22.30499,-5.81162 33.74643,-5.46732 -22.82354,-20.22157 -45.16417,-41.40863 -65.6524,-64.00879 -5.73127,-6.32205 -11.16626,-12.9065 -16.74939,-19.35975 -5.56348,-7.06133 -11.12696,-14.12266 -16.69045,-21.18398 -32.88201,-41.60857 -91.72542,4.89362 -58.8434,46.50219 v 0 c 6.29745,7.94738 12.5949,15.89476 18.89235,23.84214 6.36281,7.3106 12.56836,14.76109 19.08841,21.93179 10.31989,11.34973 24.32497,25.37141 35.39786,36.18758 8.40774,8.21282 19.56047,18.83166 28.53742,26.7329 3.80642,3.35031 7.75243,6.53861 11.62865,9.80792 5.04531,3.1589 9.22808,8.74792 15.13593,9.4767 12.71377,1.56834 26.60051,2.28516 38.3222,-2.88221 15.26259,-6.72834 17.23338,-24.3967 19.54479,-38.01408 3.89195,-24.78921 6.7583,-49.73757 8.81641,-74.74478 1.2208,-17.42535 1.69941,-22.46869 2.41498,-40.19996 1.24711,-30.90249 1.1733,-61.83902 1.46464,-92.759 0.34718,-52.83301 0.28502,-105.66434 -0.14036,-158.49715 -0.52226,-52.90564 -0.91434,-105.81914 -2.3929,-158.7086 -0.7592,-20.05564 -0.90238,-26.38378 -2.03068,-46.26624 -1.43492,-25.28562 -3.61868,-50.51736 -5.60351,-75.76317 -1.90588,-24.27808 -3.70114,-48.59016 -6.77042,-72.75401 -1.94446,-12.44583 -4.27663,-24.91779 -9.46476,-36.49019 -4.13268,-8.99678 -8.88655,-17.81138 -15.91888,-24.91703 -37.54188,-37.45807 -90.51559,15.63417 -52.97371,53.09224 z"/>
<path d="m 197.135,448.87023 c 26.15498,4.83856 52.93502,1.17266 79.07261,-1.91355 28.30574,-3.52218 56.50858,-7.7917 84.6718,-12.29763 4.37291,-0.69188 7.75239,-1.2358 12.03058,-1.88334 1.16791,-0.17677 2.33315,-0.37447 3.50585,-0.516 0.0419,-0.005 0.13921,0.083 0.0971,0.0812 -3.32508,-0.14363 -6.99801,0.9871 -9.97162,-0.50771 -8.16918,-4.10659 -14.95631,-10.52173 -22.43447,-15.78259 -40.70454,16.8526 1.99949,-19.73138 -5.18657,-22.32958 -1.22299,-0.44219 -1.15894,2.32855 -1.72417,3.49978 -5.21086,10.79749 -10.52887,21.5298 -15.90421,32.24727 -16.02271,32.23971 -34.56928,63.12831 -54.4596,93.11372 -5.05892,7.6265 -10.26409,15.15498 -15.39614,22.73247 -33.32996,48.34625 -70.3142,93.98804 -107.54079,139.34692 -33.64323,40.99552 24.33319,88.57423 57.97642,47.57871 v 0 c 38.68526,-47.14258 77.07774,-94.61122 111.67403,-144.88529 5.40949,-7.99639 10.8979,-15.93995 16.22847,-23.98916 21.3875,-32.29535 41.29556,-65.58097 58.55976,-100.27668 6.01918,-12.00416 12.35005,-23.95263 17.76596,-36.24953 2.62929,-5.96984 7.86323,-18.0683 7.55628,-24.52104 -0.39376,-8.27742 -3.29684,-16.24235 -4.94526,-24.36352 -8.10352,-6.32138 -15.25326,-14.10697 -24.31057,-18.96413 -4.04821,-2.17093 -9.11895,-1.19833 -13.707,-1.42353 -1.7445,-0.0856 -3.48178,0.29043 -5.21639,0.49471 -5.50757,0.64862 -10.95179,1.81026 -16.44712,2.53932 -27.16962,4.34747 -54.37623,8.47415 -81.68233,11.88083 -17.5207,2.10216 -35.19443,4.572 -52.87776,3.41917 -51.59702,-12.25757 -68.93184,60.71162 -17.33483,72.9692 z"/>
<path d="m 717.16908,243.27296 c -0.025,-0.30523 0.10634,-0.66887 -0.075,-0.91569 -0.0952,-0.1296 -0.29263,0.16692 -0.37252,0.30647 -0.52724,0.92088 -0.93553,1.90529 -1.43104,2.84363 -1.1788,2.23227 -2.27773,4.51183 -3.59149,6.66744 -6.05667,9.93775 -8.92358,13.06131 -16.4982,22.99303 -19.55972,23.80917 -41.42102,45.78586 -65.25875,65.32751 -14.26404,11.69335 -21.44179,16.35571 -36.25909,26.77757 -5.0414,3.30245 -10.0828,6.60491 -15.1242,9.90736 -44.32807,29.11223 -3.15716,91.80159 41.17091,62.68936 v 0 c 5.73648,-3.77586 11.47296,-7.55173 17.20944,-11.32759 17.70682,-12.54162 25.14804,-17.34908 42.28392,-31.51012 27.79492,-22.96963 53.2616,-48.78061 75.93427,-76.80615 4.46395,-6.00501 9.16385,-11.84163 13.39187,-18.01503 11.99503,-17.51414 22.67439,-37.30573 23.61984,-58.93779 0,-53.03301 -75,-53.03301 -75,0 z"/>
<path d="m 504.46589,421.91991 c -0.0781,-0.0231 -0.28973,-0.12906 -0.23444,-0.0692 3.57129,3.86661 7.65236,7.37329 11.36188,11.10176 6.9634,6.99896 7.80105,7.9778 14.92194,15.48352 22.44052,24.09503 43.66245,49.29395 65.21422,74.17989 23.93184,27.97377 47.61168,56.15953 70.88516,84.68324 21.6615,26.95731 42.30178,54.71436 63.17309,82.28273 13.49353,17.83224 27.35149,35.39782 42.00114,52.29894 10.01242,11.55119 12.51315,14.07267 22.93444,25.34315 17.67404,18.36003 36.17285,36.09458 56.50929,51.51869 5.80158,4.40019 11.85589,8.45681 17.78383,12.68521 43.27677,30.65325 86.627,-30.54934 43.35024,-61.20259 v 0 c -4.68824,-3.29111 -9.48305,-6.43542 -14.06471,-9.87334 -17.50527,-13.13533 -33.34728,-28.37281 -48.53767,-44.07393 -9.45763,-10.20629 -11.72067,-12.48256 -20.81003,-22.94736 -13.7477,-15.82805 -26.72247,-32.30475 -39.37023,-49.0191 -21.42057,-28.29378 -42.60758,-56.77858 -64.8601,-84.42875 -23.73848,-29.08999 -47.88667,-57.83942 -72.29972,-86.36584 -22.30192,-25.75207 -44.2657,-51.82526 -67.52359,-76.7262 -11.42638,-12.02248 -22.84048,-24.17386 -35.49911,-34.91904 -42.4605,-31.77429 -87.39613,28.27393 -44.93563,60.04822 z"/>
</svg>
