<?xml version="1.0" ?>
<svg xmlns="http://www.w3.org/2000/svg" viewBox="0 0 1000 1000">
<path d="m 152.81234,252.20539 c 21.34781,9.88544 43.27203,18.51125 65.06075,27.37278 24.21366,9.68677 12.29169,4.93753 35.76461,14.25097 49.29472,19.5584 76.95447,-50.15485 27.65976,-69.71325 v 0 c -23.14427,-9.18262 -11.42035,-4.5127 -35.17071,-14.0124 -20.56744,-8.36371 -41.27488,-16.48526 -61.43818,-25.78702 -48.00472,-22.5399 -79.88095,45.34903 -31.87623,67.88892 z"/>
<path d="m 154.66609,482.21913 c 19.79733,4.97932 40.0031,7.92015 60.0889,11.41446 5.58398,0.97144 11.14845,2.05185 16.72268,3.07778 6.07808,1.34096 12.15615,2.68192 18.23422,4.02289 51.80113,11.36412 67.87243,-61.89373 16.0713,-73.25786 v 0 c -6.92024,-1.5106 -13.84049,-3.02121 -20.76073,-4.53182 -6.05368,-1.10914 -12.09775,-2.27203 -18.16103,-3.32744 -18.23355,-3.17383 -36.58828,-5.78049 -54.56256,-10.29578 -51.54651,-12.46826 -69.17929,60.42951 -17.63278,72.89777 z"/>
<path d="m 196.15931,847.59971 c 2.11022,-2.03223 4.35191,-3.93623 6.33067,-6.09667 6.28792,-6.86526 15.27023,-18.73343 20.35977,-25.56313 5.49747,-7.37713 10.90419,-14.82194 16.27352,-22.29286 15.39327,-21.41834 30.54232,-43.01116 45.81322,-64.51693 38.1716,-52.17254 18.78961,-26.15053 58.15635,-78.05829 32.0417,-42.25908 -27.72166,-87.57288 -59.76336,-45.3138 v 0 c -40.34619,53.22382 -20.50259,26.57063 -59.5443,79.94954 -15.08626,21.24575 -30.05832,42.57302 -45.25434,63.7404 -5.03365,7.01166 -10.10942,13.99355 -15.25214,20.92561 -3.31652,4.47045 -6.71805,8.87745 -10.12416,13.28001 -1.48008,1.91308 -3.13348,3.69343 -4.53355,5.66581 -0.15865,0.2235 0.50026,-0.2241 0.75039,-0.33616 -41.4481,33.08407 5.33983,91.70053 46.78793,58.61647 z"/>
<path d="m 375.01326,330.94607 c 0.60416,22.39486 2.0776,44.78492 5.27574,66.97345 1.14826,7.96658 2.6441,15.87918 3.96615,23.81877 1.71508,8.15112 3.32025,16.32614 5.14523,24.45335 2.88133,12.83149 7.80653,32.18563 10.99662,45.11411 4.11936,16.69452 8.16839,33.40603 12.30359,50.09668 12.75416,51.47652 85.55295,33.43941 72.79879,-18.0371 v 0 c -4.14027,-16.70961 -8.19315,-33.44039 -12.31778,-50.15381 -2.88498,-11.69027 -7.75185,-30.85489 -10.40878,-42.55963 -1.61145,-7.09905 -3.03821,-14.23877 -4.55732,-21.35815 -1.15507,-6.78241 -2.46423,-13.54038 -3.46521,-20.34724 -3.01782,-20.52195 -4.28349,-41.23388 -4.84116,-61.95112 -2.79356,-52.95938 -77.68944,-49.00869 -74.89587,3.95069 z"/>
<path d="m 510.52287,361.52227 c 30.73432,-8.41102 62.12032,-13.93404 93.49848,-19.2852 33.54917,-5.22032 67.33977,-9.25209 101.27864,-10.73523 18.6877,-0.81665 22.46808,-0.5093 40.601,-0.23877 19.32835,1.16732 39.14052,1.86369 57.78386,7.62593 0.66532,0.25516 1.34961,0.46546 1.99594,0.76547 0.0673,0.0312 -0.14275,0.0829 -0.21388,0.0617 -0.39683,-0.1179 -0.78196,-0.27904 -1.15074,-0.46714 -0.57467,-0.29312 -1.14611,-0.60072 -1.67288,-0.97312 -3.31737,-2.34524 -3.22381,-2.63436 -6.31799,-5.94707 -4.68907,-7.68028 -3.44277,-4.635 -5.8757,-11.55397 -0.15302,-0.43517 -0.32064,-1.77624 -0.40613,-1.32294 -0.1887,1.00053 0.0575,2.03554 0.0797,3.05347 0.0522,2.38165 0.14046,4.763 0.14372,7.14522 0.005,3.33192 -0.0802,6.66337 -0.1203,9.99506 -0.89449,28.22826 -5.3916,56.19448 -12.25441,83.56196 -1.65616,6.60442 -3.58791,13.13666 -5.38186,19.70499 -5.74314,19.11411 -13.45027,37.55275 -22.14431,55.49414 -2.31172,4.77057 -4.82799,9.43929 -7.24198,14.15894 -24.05946,47.26142 42.77829,81.28664 66.83775,34.02521 v 0 c 2.85221,-5.62508 5.82914,-11.18864 8.55664,-16.87523 10.41293,-21.71001 19.55747,-44.04298 26.37408,-67.16076 2.04848,-7.59112 4.25645,-15.14098 6.14545,-22.77335 8.05608,-32.54997 13.17012,-65.83043 14.10479,-99.3763 0.0834,-9.70563 0.23723,-12.40461 -0.10178,-21.41052 -0.29433,-7.81899 -0.8013,-15.93058 -4.01432,-23.21303 -1.38428,-3.13754 -3.38419,-5.96564 -5.07629,-8.94846 -1.59405,-1.80959 -3.06876,-3.73174 -4.78216,-5.42876 -7.25982,-7.19047 -16.82191,-11.4015 -26.39672,-14.49019 -7.11764,-2.03124 -8.859,-2.66503 -16.53225,-4.20771 -20.1844,-4.05801 -40.79348,-5.6198 -61.33115,-6.43679 -20.76271,-0.252 -24.97239,-0.58784 -46.24116,0.37524 -36.61713,1.65808 -73.0766,5.99425 -109.27193,11.66246 -32.84102,5.6167 -65.70169,11.39041 -97.8782,20.16821 -51.65169,12.02509 -34.64565,85.07161 17.00604,73.04652 z"/>
<path d="m 462.43894,542.60145 c 27.81604,-4.58156 55.6643,-8.93494 83.5804,-12.87989 42.67542,-5.88705 85.7102,-8.70258 128.76267,-9.6506 8.32128,-0.18323 16.64536,-0.20226 24.96804,-0.30339 29.4702,-0.17634 58.87692,1.85329 88.22816,4.25371 52.85707,4.31625 58.96117,-70.43494 6.1041,-74.75119 v 0 c -31.69164,-2.5842 -63.44549,-4.71719 -95.2643,-4.49673 -8.8028,0.11171 -17.60713,0.13675 -26.4084,0.33513 -45.77288,1.03171 -91.52229,4.0879 -136.89279,10.35207 -27.38596,3.87609 -54.72814,8.0275 -81.99401,12.67276 -52.65692,6.30466 -43.74079,80.77279 8.91613,74.46813 z"/>
<path d="m 577.03274,129.07481 c 2.04772,33.58688 2.21915,67.26116 2.87025,100.89579 0.92278,51.50419 2.03275,103.00856 2.18042,154.52289 0.0974,33.96689 -0.1669,58.14047 -0.41475,92.22799 -0.79452,82.26477 0.56363,164.52919 0.44899,246.79378 -0.0214,15.37197 -0.1707,30.7435 -0.25605,46.11525 -1.2549,58.52383 -0.37312,29.67815 -2.6019,86.53837 -2.06976,52.9926 72.8731,55.91969 74.94286,2.92708 v 0 c 2.28014,-58.58243 1.38059,-28.89916 2.65789,-89.05105 0.0856,-15.57533 0.23536,-31.15043 0.25694,-46.72598 0.11362,-82.01772 -1.23908,-164.03522 -0.4507,-246.05312 0.25161,-34.72828 0.51544,-58.72187 0.41456,-93.34083 -0.15097,-51.8087 -1.26286,-103.60745 -2.19231,-155.40595 -0.35049,-18.10555 -0.65172,-36.21212 -1.05387,-54.3166 -0.35468,-15.96719 -0.64272,-31.98588 -1.85481,-47.9192 -0.22384,-2.94246 -0.56704,-5.87462 -0.85056,-8.81194 -8.20493,-52.394453 -82.30188,-40.79094 -74.09696,11.60352 z"/>
</svg>
