<?xml version="1.0" ?>
<svg xmlns="http://www.w3.org/2000/svg" width="1000" height="1000">
<path d="m 143.89337,212.75617 c 1.59358,0.63838 3.18532,1.28137 4.78074,1.91514 5.62622,2.23497 13.06583,5.11143 18.45596,7.44381 14.02235,6.06767 27.57922,13.07827 41.16572,20.04685 21.12489,11.658 10.44736,5.50762 32.00271,18.50293 45.45565,27.31819 84.08941,-36.96582 38.63375,-64.284 v 0 c -24.66198,-14.78081 -12.50205,-7.81448 -36.43959,-20.96902 -22.9383,-11.73911 -46.0364,-23.18978 -70.25628,-32.09398 -49.10027,-20.04154 -77.443281,49.39674 -28.34301,69.43827 z"/>
<path d="m 123.27335,451.37185 c 17.11467,10.54265 35.57077,18.66357 53.72866,27.19875 14.50219,6.96403 29.06507,13.80048 43.62004,20.65314 47.98117,22.58998 79.92823,-45.26564 31.94706,-67.85562 v 0 c -14.56901,-6.85918 -29.14564,-13.70273 -43.66205,-20.6729 -15.89175,-7.46997 -32.11568,-14.47282 -47.10985,-23.67329 -45.50227,-27.24048 -84.026123,37.10944 -38.52386,64.34992 z"/>
<path d="m 188.37694,856.51517 c 8.78898,-18.81316 19.48624,-36.69114 30.25463,-54.4164 17.43754,-28.70298 20.02794,-32.23149 39.11601,-61.77783 33.95486,-49.50873 16.582,-24.76325 52.14259,-74.21958 30.95117,-43.0642 -29.9508,-86.83577 -60.90197,-43.77157 v 0 c -36.91857,51.38828 -18.84256,25.61612 -54.24528,77.3044 -19.3508,29.97714 -22.89553,34.96911 -40.61295,64.19523 -11.48184,18.94008 -22.83331,38.06564 -32.35385,58.09014 -1.32696,2.79097 -2.47423,5.66388 -3.71134,8.49582 -18.455344,49.71821 51.85682,75.818 70.31216,26.09979 z"/>
<path d="m 383.46935,165.15378 c 2.2581,29.74774 8.36082,59.04053 13.91098,88.30115 9.55764,50.98598 16.59945,102.39927 23.75069,153.76506 2.30175,16.51793 4.26837,33.07647 6.05998,49.65602 5.71207,52.72449 80.27576,44.64641 74.5637,-8.07808 v 0 c -1.88244,-17.3347 -3.92848,-34.64975 -6.34021,-51.9204 -7.32151,-52.58289 -14.54921,-105.21122 -24.34863,-157.40266 -4.89275,-25.7821 -10.2901,-51.56483 -12.67421,-77.73426 -2.41348,-52.97806 -77.33578,-49.56489 -74.9223,3.41317 z"/>
<path d="m 539.80843,202.92362 c 24.05268,-3.99719 48.19457,-7.41543 72.38285,-10.47363 32.82646,-4.09434 65.88669,-5.86555 98.9528,-5.34792 12.62136,0.36787 25.25263,1.37054 37.60102,4.07481 0.71831,0.16831 1.43662,0.33662 2.15494,0.50493 0.16403,0.0571 0.66022,0.21492 0.49208,0.17135 -5.45812,-1.41452 -10.5935,-4.78905 -14.39072,-8.87506 -2.88402,-3.10336 -4.60951,-7.10956 -6.91427,-10.66434 -0.45516,-1.32327 -0.46305,-2.90032 -1.36549,-3.96981 -0.51524,-0.61062 0.0252,1.59772 0.038,2.39658 0.0344,2.15051 0.10287,4.30074 0.10343,6.45152 0.002,7.63361 -0.12817,14.70752 -0.67038,22.37034 -0.35731,5.04982 -0.92079,10.08294 -1.38119,15.12441 -4.86631,36.66484 -9.01857,73.46359 -15.25584,109.93228 -1.39081,8.13196 -2.98059,16.22863 -4.47088,24.34295 -6.31486,28.68861 -12.44366,57.68999 -22.5468,85.3551 -2.21823,6.07412 -4.86953,11.98122 -7.3043,17.97183 -19.74664,49.21961 49.86041,77.14558 69.60704,27.92597 v 0 c 3.01568,-7.59493 6.27664,-15.09699 9.04702,-22.78478 11.09048,-30.77592 18.06772,-63.0522 24.96934,-94.95339 1.59298,-8.71623 3.29052,-17.414 4.77894,-26.1487 3.2034,-18.79885 4.84752,-31.10463 7.40755,-49.87014 2.02244,-14.82493 4.06142,-29.648 5.96139,-44.48912 0.88034,-6.87653 1.6749,-13.76377 2.51236,-20.64566 0.5344,-6.15705 1.19147,-12.30469 1.6032,-18.47116 0.57947,-8.67876 0.79357,-18.54148 0.72421,-27.31833 -0.0334,-4.22796 -0.24289,-13.89798 -0.95878,-18.3547 -0.57697,-3.59186 -1.58106,-7.10195 -2.3716,-10.65293 -2.73796,-4.73787 -4.69051,-10.02677 -8.21388,-14.21363 -7.18616,-8.5394 -17.42852,-12.21036 -27.82566,-14.46747 -17.18299,-3.63965 -34.68775,-5.34779 -52.24585,-5.735 -4.95486,-0.0666 -9.90928,-0.2068 -14.86458,-0.19992 -31.62086,0.0439 -63.21028,2.4333 -94.59931,6.1347 -25.32247,3.21409 -50.60022,6.77959 -75.7794,10.98321 -52.25216,9.06707 -39.42939,82.96278 12.82277,73.89571 z"/>
<path d="m 488.02412,469.18577 c 25.14516,-5.54724 50.65837,-9.02676 76.17505,-12.3222 42.77012,-5.11284 85.84605,-6.35751 128.87658,-6.70744 4.70408,10e-4 9.40816,0.002 14.11224,0.003 53.033,0.008 53.04367,-74.99246 0.0107,-75 v 0 c -4.91437,-2.6e-4 -9.82874,-5.1e-4 -14.74311,-7.7e-4 -46.04212,0.38678 -92.13012,1.79512 -137.88608,7.32566 -27.45573,3.56284 -54.90324,7.34694 -81.96312,13.30325 -51.90035,10.90202 -36.48257,84.30019 15.41778,73.39817 z"/>
<path d="m 500.58862,493.57825 c -0.0549,0.008 -0.14564,-0.0281 -0.16473,0.024 -0.30426,0.83029 -0.51593,1.69164 -0.7739,2.53745 -0.68067,1.99758 -1.31365,4.01205 -2.04199,5.99274 -1.21414,3.30179 -2.48414,6.58317 -3.78445,9.85198 -6.1675,15.50432 -5.72326,14.01647 -13.05793,30.43903 -14.67434,32.30917 -31.68642,63.50218 -49.89652,93.94198 -5.42222,9.06372 -10.89728,18.09914 -16.60323,26.98699 -5.72076,8.91093 -11.78039,17.5997 -17.67059,26.39955 -6.19241,8.52546 -12.25954,17.14336 -18.57725,25.5764 -6.20447,8.28189 -12.52244,16.4808 -18.98511,24.56281 -15.7911,19.74783 -20.47333,24.35125 -36.43863,43.24064 -5.62274,6.65257 -11.13962,13.39388 -16.70943,20.09081 -33.90441,40.77979 23.76692,88.72786 57.67133,47.94808 v 0 c 5.31904,-6.40004 10.58545,-12.8442 15.95713,-19.20013 17.33941,-20.51652 21.58386,-24.55952 38.88556,-46.2462 6.92353,-8.67824 13.69655,-17.47801 20.33951,-26.37285 6.87797,-9.20953 13.47904,-18.62264 20.21856,-27.93396 6.40087,-9.59642 12.97975,-19.07647 19.20262,-28.78926 6.03958,-9.42672 11.83798,-19.00732 17.57827,-28.61921 19.55701,-32.74742 37.78069,-66.32587 53.54161,-101.07573 7.36058,-16.57211 8.47227,-18.52455 14.67934,-34.37739 5.20245,-13.28702 10.34113,-26.88333 11.53582,-41.22367 2.65454,-52.96653 -72.25145,-56.72061 -74.90599,-3.75408 z"/>
<path d="m 567.77754,583.25073 c -0.078,-0.20612 -0.22086,-0.83834 -0.23392,-0.61835 -0.0402,0.67698 0.11528,1.35169 0.15016,2.02897 0.0724,1.40605 0.14683,2.81256 0.17168,4.22026 0.0399,2.26323 0.0489,4.52727 0.0227,6.7907 -0.10671,9.21221 -0.29281,11.1653 -0.74852,20.85411 -1.97742,30.56867 -4.94947,61.05761 -6.90573,91.62752 -1.31923,26.3543 -1.0188,53.03075 4.64767,78.92275 1.0424,4.76307 2.44978,9.43887 3.67466,14.1583 1.8265,4.84239 3.30707,9.82979 5.47948,14.52717 7.23041,15.63418 17.66342,29.49814 31.00439,40.44749 12.34699,10.13356 17.42768,11.72358 31.60112,18.89568 34.08122,14.12196 70.80215,18.90681 107.17427,22.97434 29.4025,3.14564 58.92119,4.95821 88.43369,6.68258 8.17025,0.46459 16.34294,0.88936 24.51906,1.23715 2.13131,0.0907 8.63406,0.40234 10.65163,0.19891 3.75814,-0.37894 7.47033,-1.1239 11.20549,-1.68585 6.65547,-4.00937 14.61931,-6.39082 19.9664,-12.0281 13.89552,-14.64963 13.48824,-35.03269 13.83059,-53.45975 0.12594,-6.77861 0.11777,-13.55906 0.17665,-20.33859 0.17475,-8.0848 0.3495,-16.16959 0.52425,-24.25439 0.38993,-9.01637 0.77986,-18.03273 1.16978,-27.0491 2.27452,-52.98421 -72.65646,-56.20087 -74.93099,-3.21666 v 0 c -0.40716,9.55162 -0.81432,19.10324 -1.22149,28.65486 -0.82195,38.48512 -0.35824,11.60298 -0.69667,44.40714 -0.038,3.68318 -0.26828,7.36745 -0.15402,11.04905 0.0184,0.59287 0.14349,2.12498 0.54947,1.69252 17.11643,-18.23281 -3.43464,-5.14214 23.54946,-18.44945 1.80599,-0.10639 3.61401,-0.18253 5.41797,-0.31917 0.65748,-0.0498 -1.31799,0.071 -1.97723,0.0586 -1.56811,-0.0296 -3.13456,-0.11826 -4.70153,-0.18469 -7.8378,-0.33225 -15.67226,-0.7397 -23.50441,-1.18476 -28.20432,-1.64774 -56.41594,-3.36008 -84.51681,-6.35055 -27.96958,-3.09252 -56.23554,-6.37724 -82.86491,-15.97809 -2.56242,-1.10768 -5.1849,-2.08562 -7.68725,-3.32302 -7.23277,-3.57657 -13.87435,-8.83524 -17.77164,-16.04998 -1.10351,-2.04285 -1.85823,-4.25568 -2.78734,-6.38351 -0.78629,-2.77857 -1.70085,-5.524 -2.35885,-8.33571 -4.63777,-19.81788 -4.46975,-40.34243 -3.5547,-60.54554 1.96721,-31.01198 5.06203,-61.9359 6.97837,-92.95198 0.8237,-18.27108 2.06278,-36.88581 -1.53178,-54.94924 -12.88944,-51.44281 -85.64055,-33.21439 -72.75112,18.22842 z"/>
</svg>
