<?xml version="1.0" ?>
<svg xmlns="http://www.w3.org/2000/svg" viewBox="0 0 1000 1000">
<path d="m 131.45039,213.86374 c 12.75093,5.36782 24.82892,12.24069 36.25732,20.01988 4.38311,2.98353 8.61105,6.18888 12.91658,9.28332 14.69366,11.36582 28.322,24.00492 42.05284,36.48897 39.25152,35.66256 89.68599,-19.84748 50.43446,-55.51004 v 0 c -15.92051,-14.45543 -31.75037,-29.06266 -48.93401,-42.03719 -5.44786,-3.86271 -10.79405,-7.87296 -16.34356,-11.58814 -17.5383,-11.74121 -36.28733,-22.21091 -56.35219,-28.93226 -51.10646,-14.16437 -71.137909,58.11108 -20.03144,72.27546 z"/>
<path d="m 91.820001,467.42181 c 19.120749,12.8866 39.307329,24.1285 59.238789,35.69888 20.36551,11.89093 10.04375,5.75007 30.95378,18.44188 45.34316,27.50452 84.24042,-36.62038 38.89727,-64.1249 v 0 c -22.04647,-13.36509 -11.30724,-6.98305 -32.19753,-19.18001 -17.42297,-10.11417 -34.9671,-20.04969 -51.95682,-30.88417 -42.460579,-31.7742 -87.39607,28.27413 -44.935489,60.04832 z"/>
<path d="m 170.93758,891.93679 c 17.27161,-33.27979 35.4157,-66.07651 53.78551,-98.75981 24.4903,-42.01768 11.89273,-20.95681 37.81954,-63.16655 27.74494,-45.19644 -36.17248,-84.43371 -63.91742,-39.23727 v 0 c -27.00937,44.02309 -13.92713,22.12937 -39.2841,65.6588 -19.57396,34.83177 -39.02126,69.74399 -57.09062,105.387 -21.296519,48.5691 47.39057,78.68693 68.68709,30.11783 z"/>
<path d="m 437.3504,332.93849 c 19.67674,-6.03393 39.59964,-11.38095 59.8016,-15.37533 7.13123,-1.41001 14.31609,-2.53367 21.47414,-3.80051 43.78147,-6.69859 88.13677,-9.55555 132.41111,-8.02325 8.06511,0.27913 16.11545,0.88777 24.17317,1.33165 19.09021,1.42722 38.03061,4.35379 56.6881,8.61132 10.06244,2.29619 13.93582,3.55181 23.37797,6.29529 50.95955,14.68415 71.72608,-57.38353 20.76653,-72.06768 v 0 c -11.78443,-3.37308 -16.52104,-4.89381 -29.05588,-7.69415 -22.30473,-4.98299 -44.93807,-8.39298 -67.7403,-10.03608 -9.03603,-0.47742 -18.06424,-1.13811 -27.10808,-1.43226 -49.05921,-1.59567 -98.20478,1.63777 -146.69702,9.18311 -8.1966,1.47509 -16.42231,2.79664 -24.58978,4.42526 -20.80167,4.14793 -41.40885,9.50045 -61.65331,15.81235 -51.45636,12.83522 -33.30461,85.6055 18.15175,72.77028 z"/>
<path d="m 552.0867,140.01824 c 0.48719,28.05456 0.89747,56.1092 1.5423,84.16097 1.80861,59.01069 1.303,118.05357 0.85458,177.07951 -0.33828,43.07041 -0.17733,21.67277 -0.48339,64.19291 -0.38171,53.03164 74.61635,53.57146 74.99805,0.53982 v 0 c 0.30574,-42.47741 0.14487,-21.08969 0.48318,-64.16315 0.45394,-59.79099 0.95447,-119.59893 -0.87227,-179.3745 -0.63296,-27.47681 -1.02426,-54.95634 -1.52245,-82.43556 0,-53.033003 -75,-53.033003 -75,0 z"/>
<path d="m 359.01712,568.20737 c 23.15033,-8.91077 47.44313,-14.4446 71.52247,-20.17093 52.78876,-11.79872 106.72292,-17.5833 160.7247,-19.6676 12.29292,-0.47446 24.59746,-0.57322 36.89619,-0.85983 46.47919,-0.4658 92.9746,1.18195 139.26395,5.44325 25.40875,2.33908 31.00468,3.27967 55.56855,6.45618 17.95232,2.22935 35.63875,5.89362 53.22055,10.05453 51.63457,12.09838 68.74426,-60.92393 17.10969,-73.02231 v 0 c -5.41336,-1.25798 -10.80047,-2.63478 -16.24007,-3.77393 -18.64234,-3.90403 -24.95661,-4.60195 -44.50305,-7.64302 -26.02098,-3.34325 -32.31707,-4.38298 -59.15882,-6.83131 -48.87765,-4.45832 -97.97004,-6.19131 -147.04461,-5.66217 -13.07181,0.31698 -26.1501,0.43185 -39.21545,0.95093 -58.47904,2.32334 -116.86658,8.74939 -174.01466,21.59993 -27.0905,6.47341 -54.37051,12.83074 -80.41183,22.88216 -49.67009,18.58446 -23.3877,88.82857 26.28239,70.24412 z"/>
<path d="m 539.17052,512.92172 c -1.64738,0.87102 -1.82133,3.75568 -2.35653,5.10152 -1.18727,2.98554 -2.33067,5.99266 -3.67677,8.91003 -5.07596,11.00099 -9.02174,17.54749 -15.12093,28.55501 -17.83929,30.5474 -37.95723,59.71861 -59.20166,87.98525 -13.64612,18.15676 -21.9648,28.29396 -36.11012,45.98774 -24.87467,30.93162 -50.99412,60.81788 -77.77666,90.10128 -17.69382,19.0997 -36.98296,34.28703 -13.27345,68.27639 7.04199,10.09521 23.54265,7.19416 35.31397,10.79125 3.52364,-0.79542 7.06267,-1.52552 10.57094,-2.38624 13.9007,-3.4104 27.65679,-7.37635 41.58111,-10.70925 21.92388,-5.24767 21.07935,-4.84303 44.23907,-9.48665 36.35169,-6.72924 73.05441,-11.66323 109.94307,-14.21953 21.72726,-1.50566 29.48352,-1.46285 50.9111,-1.98353 23.21236,-0.58781 46.39904,0.47193 69.54246,2.11934 52.9016,3.73115 58.17824,-71.083 5.27664,-74.81415 v 0 c -25.52249,-1.78524 -51.09144,-2.93639 -76.68715,-2.28192 -23.49264,0.59864 -31.60387,0.55185 -55.45783,2.23509 -39.69983,2.80139 -79.20022,8.13291 -118.31846,15.41749 -8.58655,1.73232 -17.19621,3.35381 -25.75965,5.19696 -13.03551,2.8057 -26.71989,6.20453 -39.68596,9.51317 -0.53683,0.13698 -20.83183,5.42785 -23.64362,6.21968 -0.82223,0.23155 -1.61469,0.55812 -2.42204,0.83718 9.58428,3.88863 23.66273,2.66197 28.75284,11.66589 7.50497,13.2756 2.41633,30.40437 3.6245,45.60655 -0.8902,1.03806 -2.28547,1.80204 -2.67061,3.11418 -0.35618,1.21349 1.70876,-1.86498 2.57453,-2.78686 10.42562,-11.10118 -1.54625,1.80698 10.93405,-11.71007 27.90351,-30.51369 55.10736,-61.66367 81.02133,-93.89541 15.05064,-18.84127 23.50775,-29.14137 38.05903,-48.53648 23.13947,-30.84216 45.00641,-62.69995 64.35506,-96.07037 12.74333,-23.24742 27.15518,-47.7177 30.16549,-74.61456 0.27463,-2.45383 0.1501,-4.93602 0.22515,-7.40403 -2.30874,-52.98273 -77.23764,-49.71768 -74.9289,3.26505 z"/>
<path d="m 779.64885,751.96089 c 9.36676,12.40265 16.76066,26.32984 24.17472,39.96039 6.66074,12.7092 12.50534,25.82584 16.96505,39.47316 1.19523,3.65757 2.15968,7.38656 3.23952,11.07984 15.16767,50.81773 87.0348,29.3674 71.86712,-21.45033 v 0 c -1.54094,-5.08738 -2.9234,-10.22548 -4.62282,-15.26213 -5.79502,-17.17494 -13.15964,-33.7472 -21.616,-49.77148 -6.8382,-12.49263 -8.56792,-16.04158 -15.85713,-27.90818 -5.89363,-9.59466 -12.10277,-19.07319 -19.6481,-27.46934 -1.39386,-1.55103 -2.92811,-2.9699 -4.39216,-4.45486 -39.45863,-35.43326 -89.56883,20.36967 -50.1102,55.80293 z"/>
</svg>
