<?xml version="1.0" ?>
<svg xmlns="http://www.w3.org/2000/svg" width="1000" height="1000">
<path d="m 156.92401,243.71817 c 18.67203,10.46221 35.80672,23.34032 52.97164,36.05399 16.17171,12.89311 8.31117,6.20826 23.58586,20.04954 39.45479,35.43756 89.57105,-20.35993 50.11627,-55.79748 v 0 c -19.39048,-17.29732 -9.67376,-9.14589 -29.08211,-24.53517 -21.82167,-16.14166 -43.68801,-32.64756 -68.1035,-44.73064 -48.76192,-20.85128 -78.25007,48.10849 -29.48816,68.95976 z"/>
<path d="m 147.11038,478.17991 c 18.45119,7.51459 36.89327,15.01569 55.07273,23.17131 10.79718,4.56398 20.52513,10.98926 30.16496,17.54721 44.0626,29.51249 85.79957,-32.80144 41.73697,-62.31393 v 0 c -4.33813,-2.87438 -8.58286,-5.89496 -13.01439,-8.62314 -12.47336,-7.679 -15.38552,-8.7465 -28.22592,-15.05621 -19.30429,-8.63643 -38.86269,-16.63965 -58.45759,-24.58924 -49.40131,-19.28758 -76.678068,50.57642 -27.27676,69.864 z"/>
<path d="m 197.0925,852.2734 c -0.0465,0.38651 -0.39414,1.45405 -0.13955,1.15953 1.99791,-2.31116 3.65041,-4.89971 5.48469,-7.34277 8.8067,-11.72951 15.82284,-21.15772 25.2935,-32.81232 17.15663,-21.11296 25.73979,-30.50183 44.17095,-51.5701 35.81669,-40.97912 17.95179,-20.22731 53.58293,-62.26556 34.28581,-40.45965 -22.93277,-88.94711 -57.21858,-48.48746 v 0 c -34.87794,41.16745 -17.26978,20.7051 -52.82576,61.38594 -8.42282,9.63827 -16.95097,19.18551 -25.26846,28.91482 -15.83845,18.52688 -23.0789,27.51439 -37.28406,45.95366 -0.91504,1.18779 -16.19428,21.41543 -18.39323,24.70276 -2.12825,3.18166 -3.94198,6.56282 -5.91298,9.84422 -21.57898,48.44427 46.93157,78.96156 68.51055,30.51728 z"/>
<path d="m 546.27618,156.22814 c 13.89462,10.55269 26.65083,22.7092 38.38537,35.61328 3.27419,3.60052 6.3378,7.38705 9.5067,11.08058 2.86217,3.65966 5.72434,7.31932 8.58651,10.97898 32.79198,41.67957 91.73579,-4.69529 58.94381,-46.37486 v 0 c -3.60028,-4.55431 -7.20057,-9.10862 -10.80085,-13.66294 -4.10061,-4.71261 -8.08235,-9.53135 -12.30182,-14.13784 -14.2281,-15.53309 -29.73005,-30.06406 -46.47095,-42.851134 -41.96957,-32.41998 -87.81834,26.933954 -45.84877,59.353934 z"/>
<path d="m 386.35517,372.00509 c 21.48835,-6.4997 42.72679,-13.76977 64.51127,-19.28047 9.24238,-2.33799 18.5654,-4.34484 27.84809,-6.51726 46.12565,-9.94668 92.95199,-16.491 140.03004,-19.65065 28.41685,-1.9072 38.79528,-1.74729 66.90317,-2.23172 37.01133,0.30785 74.29793,1.14087 110.89655,7.23135 3.56362,0.59304 7.0956,1.3627 10.64339,2.04404 52.11188,9.84134 66.02963,-63.85599 13.91775,-73.69733 v 0 c -13.65009,-2.54408 -16.42802,-3.25875 -31.05186,-5.05074 -35.06135,-4.29636 -70.44601,-5.49936 -105.74101,-5.51543 -30.30424,0.55569 -41.28994,0.39064 -71.9665,2.49327 -50.7017,3.47519 -101.12968,10.58606 -150.79583,21.36771 -10.23426,2.41595 -20.51245,4.65282 -30.70278,7.24786 -22.55331,5.74336 -44.56568,13.2133 -66.81735,19.95915 -50.629,15.78621 -28.30393,87.38643 22.32507,71.60022 z"/>
<path d="m 428.4938,435.39099 c 2.38394,19.88048 7.09648,39.40407 11.08313,59.00255 1.42552,7.00788 2.79928,14.02619 4.19891,21.03929 5.95197,31.74992 11.85017,63.56263 21.06611,94.56613 4.89657,16.47265 7.94356,24.26186 13.62567,39.99368 18.06836,49.86015 88.58126,24.30764 70.51291,-25.55251 v 0 c -4.76901,-13.11064 -7.72399,-20.69996 -11.81801,-34.30908 -8.80616,-29.27304 -14.14459,-59.39383 -19.8379,-89.38076 -4.73178,-23.69635 -10.01834,-47.29772 -14.05272,-71.12435 -4.0765,-52.8761 -78.8546,-47.11106 -74.7781,5.76505 z"/>
<path d="m 666.09622,347.35495 c 0.0392,15.88651 0.10565,31.78031 -0.98366,47.64096 -0.44112,6.42276 -1.10636,12.82815 -1.65954,19.24223 -4.55977,36.11594 -11.20202,72.14293 -20.24608,107.41602 -6.70134,26.1362 -10.49876,36.74444 -18.74102,62.61254 -14.14011,41.91915 -32.62505,82.16765 -50.51307,122.56971 -21.46876,48.49322 47.111,78.85464 68.57977,30.36142 v 0 c 18.98923,-42.89568 38.53296,-85.66095 53.4104,-130.21494 9.13945,-28.82588 12.8752,-39.15837 20.32225,-68.37348 7.64217,-29.98056 13.90496,-61.40457 18.53995,-92.01005 1.30974,-8.64842 2.25297,-17.34838 3.37946,-26.02257 0.61569,-7.36661 1.35671,-14.72381 1.84705,-22.09982 1.1315,-17.02063 1.11501,-34.07481 1.06449,-51.12202 0,-53.03301 -75,-53.03301 -75,0 z"/>
<path d="m 349.50671,845.42179 c 21.93004,-10.33067 45.47612,-16.59818 68.77958,-22.94778 48.38994,-12.37755 97.70127,-20.97688 147.37072,-26.17315 11.60166,-1.21373 23.23611,-2.09045 34.85416,-3.13567 46.89944,-3.29953 93.99491,-4.68339 140.99211,-2.82809 27.43019,1.08287 33.62994,1.99574 60.41936,4.46604 37.18117,3.942 73.96325,11.04488 109.63856,22.2417 8.04774,2.99627 4.53096,1.50587 10.62742,4.28476 48.6069,21.21013 78.60258,-47.5304 29.99565,-68.74053 v 0 c -11.48418,-4.90397 -5.39409,-2.48816 -18.3094,-7.148 -12.25793,-3.79793 -15.03551,-4.81006 -28.20561,-8.17182 -31.82939,-8.12467 -64.26822,-13.60902 -96.91845,-17.15464 -29.16377,-2.64507 -35.76049,-3.61305 -65.55553,-4.75842 -49.81559,-1.91499 -99.73245,-0.44105 -149.43951,3.11386 -12.35478,1.12287 -24.72733,2.06494 -37.06435,3.36862 -53.32124,5.63454 -106.25335,14.93612 -158.18931,28.29181 -26.92257,7.38687 -54.04207,14.82289 -79.39865,26.73008 -48.48011,21.49835 -18.07686,90.05957 30.40325,68.56123 z"/>
</svg>
