<?xml version="1.0" ?>
<svg xmlns="http://www.w3.org/2000/svg" width="1000" height="1000">
<path d="m 141.22977,227.23508 c 16.93999,11.14619 31.94288,24.98787 47.03283,38.45477 11.9779,10.70745 23.15227,22.25854 33.53853,34.50964 2.84127,3.35141 5.54492,6.81711 8.31738,10.22566 33.55362,41.0689 91.63382,-6.38308 58.0802,-47.45198 v 0 c -3.406,-4.15375 -6.72441,-8.3809 -10.218,-12.46125 -12.37096,-14.44871 -25.62839,-28.10835 -39.80284,-40.79943 -19.72647,-17.57679 -39.44392,-35.73115 -62.40743,-49.05024 -47.0741,-24.42394 -81.61477,42.14889 -34.54067,66.57283 z"/>
<path d="m 123.93526,421.44053 c 17.66596,18.05297 35.73735,35.69851 53.80704,53.34505 17.4184,17.14423 8.61831,8.38713 26.39093,26.28067 37.37726,37.62234 90.58328,-15.2371 53.20601,-52.85943 v 0 c -18.43857,-18.5551 -9.36874,-9.53331 -27.19603,-27.0789 -16.82755,-16.43336 -33.60812,-32.916 -50.20767,-49.57696 -35.27726,-39.59817 -91.277531,10.2914 -56.00028,49.88957 z"/>
<path d="m 185.45436,841.65589 c 17.74671,-22.73634 35.79803,-45.22437 54.83525,-66.90122 7.47317,-8.50937 15.11526,-16.86889 22.67288,-25.30334 34.03569,-37.68783 16.94741,-18.65395 51.25983,-57.10612 35.30877,-39.57008 -20.65177,-89.50422 -55.96054,-49.93414 v 0 c -34.08241,38.19706 -17.02545,19.19596 -51.16924,57.00478 -7.9167,8.8443 -15.92365,17.60863 -23.75011,26.53289 -19.64547,22.40112 -38.31385,45.60686 -56.64066,69.09027 -32.963112,41.54435 25.78948,88.16123 58.75259,46.61688 z"/>
<path d="m 522.46022,180.84517 c 15.37018,5.42934 28.91061,14.98525 42.35769,23.96891 10.77083,7.39744 20.87823,15.67167 29.99432,25.03647 2.31404,2.37717 4.47686,4.89698 6.71529,7.34547 36.05006,38.89593 91.05721,-12.08655 55.00716,-50.98248 v 0 c -3.29479,-3.52152 -6.4747,-7.15414 -9.88435,-10.56458 -12.35197,-12.35481 -25.86823,-23.42749 -40.29344,-33.28096 -20.3506,-13.48877 -41.13213,-27.2709 -64.84955,-34.06391 -51.29428,-13.468344 -70.3414,59.07273 -19.04712,72.54108 z"/>
<path d="m 419.90491,352.95051 c -0.42774,0.41638 -1.87256,1.34407 -1.28323,1.24913 1.29746,-0.20904 2.38237,-1.1118 3.59374,-1.62138 2.63563,-1.1087 5.24986,-2.27921 7.94551,-3.23274 3.90675,-1.38193 7.85748,-2.64755 11.84698,-3.76842 14.59827,-4.10148 22.83774,-5.57452 38.17326,-8.8538 48.54392,-9.36036 97.67558,-15.66899 146.97156,-19.36373 10.47033,-0.78475 20.95946,-1.29455 31.43919,-1.94182 33.98989,-1.63049 68.07631,-1.35951 102.02064,1.07071 13.23053,0.94723 17.64871,1.54391 30.16112,2.92908 52.71571,5.7926 60.90769,-68.75866 8.19198,-74.55127 v 0 c -14.12775,-1.54221 -19.06455,-2.20308 -33.95881,-3.24896 -36.95766,-2.59519 -74.06529,-2.86802 -111.06778,-1.0551 -11.11921,0.69527 -22.24839,1.24612 -33.35762,2.0858 -52.39481,3.96019 -104.61192,10.71943 -156.19305,20.75689 -21.51418,4.66359 -42.43563,9.02714 -63.12669,16.73198 -6.02338,2.24297 -15.85093,6.62073 -21.70148,10.03774 -2.63679,1.54001 -5.07035,3.40422 -7.60552,5.10633 -40.77854,33.90592 7.17167,91.57547 47.9502,57.66956 z"/>
<path d="m 545.15971,294.20698 c -4.39983,23.60805 -4.37855,47.80923 -5.07535,71.73708 -1.05759,34.03241 -0.98282,68.08444 -1.48397,102.12621 -0.44984,30.55614 -0.54443,29.93235 -1.44422,60.78728 -1.94066,57.87614 -5.17317,115.69592 -9.27621,173.45589 -1.47947,20.34704 -3.48448,40.64757 -5.5795,60.93813 -5.44041,52.75322 69.16391,60.44711 74.60431,7.69389 v 0 c 2.17194,-21.08404 4.2537,-42.17811 5.78688,-63.32062 4.17254,-58.80255 7.46549,-117.66564 9.4328,-176.58649 0.91764,-31.622 1.01198,-30.91278 1.47131,-62.13514 0.49423,-33.59408 0.41842,-67.19829 1.45703,-100.78323 0.54681,-18.90492 0.65603,-37.91814 3.10465,-56.6987 12.17235,-51.61718 -60.82538,-68.83149 -72.99773,-17.2143 z"/>
<path d="m 458.87821,557.74297 c 11.63914,-2.59435 23.25566,-5.29284 35.02661,-7.24868 4.73143,-0.78617 9.48491,-1.43336 14.22736,-2.15004 33.31271,-4.54499 67.01228,-5.72302 100.60465,-5.37106 7.43455,0.0779 14.86589,0.34635 22.29883,0.51953 18.68287,0.67775 37.37545,1.83695 55.88663,4.55119 9.92409,1.45514 14.49458,2.55729 23.95502,4.55554 51.91417,10.83602 67.23861,-62.58169 15.32445,-73.41771 v 0 c -12.28689,-2.54027 -17.19235,-3.7313 -30.15786,-5.58107 -20.97538,-2.99254 -42.14017,-4.3487 -63.30178,-5.08854 -8.06624,-0.17956 -16.13086,-0.46156 -24.19873,-0.53869 -37.31147,-0.35673 -74.72983,1.09386 -111.71687,6.22783 -17.66134,2.71375 -35.26217,5.72573 -52.62536,9.99183 -52.00762,10.37823 -37.33057,83.92811 14.67705,73.54987 z"/>
<path d="m 374.24666,846.01759 c 19.15464,-5.32997 38.98286,-7.71991 58.63195,-10.42017 54.18681,-6.60107 108.67993,-10.27933 163.14617,-13.65136 39.42721,-2.26415 78.99199,-2.95922 118.41823,-0.26637 21.48623,1.46753 27.92969,2.57408 48.89476,5.22089 18.11179,2.52234 36.02786,6.2567 53.63948,11.16541 9.0837,2.53182 14.53984,4.41383 23.29024,7.27844 50.41916,16.44409 73.67461,-54.85938 23.25545,-71.30346 v 0 c -10.61816,-3.45204 -16.70032,-5.54869 -27.81286,-8.59784 -20.71537,-5.68406 -41.77564,-10.02666 -63.05904,-12.96205 -23.57558,-2.92711 -30.42296,-4.10528 -54.57705,-5.71345 -42.18201,-2.80846 -84.50735,-2.10586 -126.68753,0.32199 -56.34007,3.49388 -112.70822,7.31302 -168.75185,14.21069 -24.61655,3.40442 -49.51143,6.4922 -73.2996,13.97542 -50.02204,17.6152 -25.11039,88.35706 24.91165,70.74186 z"/>
</svg>
