<?xml version="1.0" ?>
<svg xmlns="http://www.w3.org/2000/svg" viewBox="0 0 1000 1000">
<path d="m 124.0878,213.81568 c 10.88114,5.09278 22.05509,9.52455 33.0229,14.42261 12.51208,5.58769 15.58323,7.19208 28.16364,13.26901 14.45582,6.72729 28.39196,14.44544 42.22628,22.34519 46.08835,26.2367 83.19265,-38.94206 37.1043,-65.17877 v 0 c -15.33159,-8.70477 -30.74954,-17.2575 -46.74063,-24.71563 -5.31275,-2.56036 -10.60072,-5.17276 -15.93824,-7.68108 -15.33969,-7.20874 -31.02598,-13.60883 -46.4669,-20.58503 -48.17073,-22.18289 -79.542078,45.94081 -31.37135,68.1237 z"/>
<path d="m 105.05496,461.16301 c 2.17739,1.16668 4.31665,2.4075 6.53218,3.50003 10.16194,5.01111 20.75885,9.16356 31.07752,13.8345 7.69557,3.48355 21.36975,9.86381 28.86408,13.34704 23.23157,10.25382 11.15141,5.1692 36.27571,15.16991 49.29797,19.5502 76.94613,-50.16765 27.64816,-69.71785 v 0 c -22.06133,-8.71127 -11.29557,-4.20932 -32.31415,-13.46548 -19.4599,-9.04365 -38.94436,-18.02697 -58.67076,-26.47752 -45.120041,-27.86901 -84.532782,35.94036 -39.41274,63.80937 z"/>
<path d="m 153.51321,893.69069 c 2.44492,-2.64105 4.99081,-5.19209 7.33475,-7.92315 21.23473,-24.74194 39.16226,-52.21594 58.28292,-78.55328 7.67172,-10.56726 15.49377,-21.02456 23.24066,-31.53684 8.32822,-10.98226 16.65644,-21.96452 24.98466,-32.94678 32.04113,-42.25952 -27.72285,-87.57251 -59.76397,-45.31299 v 0 c -8.53404,11.25762 -17.06807,22.51523 -25.6021,33.77285 -7.97065,10.82089 -16.01607,21.5871 -23.91195,32.46268 -18.29259,25.19571 -35.54991,51.22506 -55.61005,75.08844 -38.854854,36.09432 12.19022,91.04339 51.04508,54.94907 z"/>
<path d="m 335.14282,248.28967 c 0.0529,33.77583 0.56614,67.54858 0.79785,101.32399 0.32225,85.88136 0.30006,171.76496 0.0552,257.64662 -0.29593,76.51592 -0.57825,153.03189 -0.75058,229.54821 -0.11942,53.03287 74.88039,53.20177 74.99981,0.16889 v 0 c 0.17227,-76.50138 0.45468,-153.00242 0.75046,-229.50342 0.24522,-86.12454 0.26799,-172.25102 -0.0566,-258.37525 -0.23093,-33.60377 -0.74024,-67.20489 -0.79609,-100.80904 0,-53.03301 -75,-53.03301 -75,0 z"/>
<path d="m 483.73816,216.33631 c 23.2839,-6.3475 47.20056,-10.04116 70.96274,-14.07899 33.4396,-5.33584 67.11599,-9.22172 100.92426,-11.2188 20.74233,-1.22526 26.92562,-1.15749 47.33401,-1.56561 26.48615,-0.1324 53.06234,0.8598 79.22089,5.22277 3.62282,0.68593 7.21308,1.52618 10.78538,2.43535 0.65584,0.16692 1.31324,0.32829 1.96512,0.51005 0.0564,0.0157 0.21114,0.10027 0.15574,0.0813 -1.15556,-0.39576 -2.30534,-0.80818 -3.45801,-1.21227 -8.70388,-5.22868 -7.37447,-3.47952 -14.28373,-11.88845 -0.82358,-1.00233 -1.03141,-2.47588 -2.00046,-3.33837 -0.4341,-0.38636 0.10603,1.15823 0.19601,1.73236 0.32287,2.06011 0.7486,4.10387 1.04223,6.16836 0.45442,3.19485 0.80095,6.40412 1.20143,9.60618 4.21732,41.13899 5.98814,82.48154 7.71106,123.78464 1.56619,40.92662 2.07749,81.89886 1.28309,122.84952 -0.5411,27.89344 -1.10426,37.90493 -2.25102,65.83868 -2.7652,62.84872 -8.94203,125.46748 -16.33899,187.91803 -5.80566,45.11514 -11.55584,90.24311 -18.03551,135.26754 -1.89557,12.35016 -3.86892,24.69118 -6.134,36.97983 -0.8022,4.35217 -1.42873,9.19854 -3.0495,13.38052 3.78225,-12.55109 11.28465,-16.49765 23.05292,-20.84784 1.99212,-0.73639 4.40322,0.12758 6.32376,-0.77924 0.73787,-0.34841 -1.39508,-0.85336 -2.13429,-1.1989 -2.76253,-1.29132 -5.57543,-2.47203 -8.36315,-3.70804 -4.52664,-2.17759 -9.09695,-4.26664 -13.57992,-6.53277 -6.95004,-3.51324 -32.4301,-17.17795 -37.81242,-19.99206 -18.64308,-9.74741 -34.15623,-17.5458 -52.99408,-27.10681 -47.29123,-24.00081 -81.23351,42.87909 -33.94227,66.87991 v 0 c 17.74786,9.00666 34.14659,17.25635 51.74448,26.45779 9.71429,5.07934 30.4054,16.29309 40.64519,21.42127 5.44757,2.72818 11.00243,5.23665 16.50365,7.85498 12.86505,5.363 30.21808,13.46195 44.64675,10.88722 7.12556,-1.27152 14.25706,-3.67765 20.34186,-7.59756 10.78974,-6.95089 12.58135,-13.52558 17.21777,-23.57399 0.68715,-2.34594 1.44984,-4.67106 2.06145,-7.03781 1.1088,-4.29072 2.40689,-11.17545 3.18243,-15.39292 2.40855,-13.09797 4.51196,-26.25069 6.52516,-39.41433 6.56373,-45.64522 12.40546,-91.39292 18.27978,-137.13086 7.61322,-64.36073 13.96151,-128.89513 16.79614,-193.66568 1.18066,-28.90956 1.75725,-39.16613 2.30907,-68.06366 0.80727,-42.27512 0.27632,-84.57201 -1.34366,-126.82201 -1.81778,-43.48478 -3.68894,-87.0156 -8.27037,-130.31474 -1.71021,-12.82496 -3.6523,-32.39084 -10.77236,-43.54246 -7.1303,-11.16766 -8.54659,-10.72026 -18.64172,-17.31869 -1.9578,-0.77121 -3.89262,-1.6035 -5.87338,-2.31364 -1.29035,-0.46261 -4.41801,-1.25957 -5.84577,-1.61806 -5.5397,-1.39094 -11.11179,-2.6555 -16.73656,-3.65835 -30.69253,-4.95005 -61.79538,-6.5232 -92.86899,-6.19101 -22.11214,0.46447 -28.77754,0.39662 -51.24908,1.74839 -36.19353,2.17722 -72.24722,6.34708 -108.04525,12.08193 -26.2732,4.47201 -52.69383,8.6459 -78.41933,15.74184 -51.10646,14.16438 -31.07502,86.43983 20.03145,72.27546 z"/>
<path d="m 482.1232,359.00457 c 18.56519,-6.44648 38.16778,-9.31046 57.47444,-12.579 25.21808,-3.80974 50.58986,-6.90955 76.07859,-8.14588 13.82173,-0.67042 18.388,-0.50059 31.8565,-0.4712 15.28405,0.63806 8.13064,0.16222 21.46815,1.30283 52.85604,4.32887 58.97799,-70.42086 6.12195,-74.74973 v 0 c -17.46495,-1.38321 -8.29259,-0.82985 -27.52332,-1.55307 -15.83983,0.004 -20.65429,-0.18209 -36.91847,0.6377 -28.02163,1.41241 -55.91791,4.80357 -83.63925,9.03782 -22.60746,3.84951 -45.4904,7.422 -67.24367,14.92031 -50.629,15.78621 -28.30392,87.38643 22.32508,71.60022 z"/>
<path d="m 420.58837,481.5519 c 5.53746,19.69981 10.91315,39.43955 15.90008,59.28607 5.9892,25.24933 11.71152,50.56316 17.3626,75.89047 11.54968,51.76007 84.74948,35.42635 73.19979,-16.33372 v 0 c -5.79843,-25.98387 -11.66486,-51.95521 -17.82873,-77.8547 -5.27611,-20.94915 -10.92891,-41.79588 -16.81002,-62.58334 -15.27012,-50.78704 -87.09384,-29.19182 -71.82372,21.59522 z"/>
<path d="m 499.31418,504.22814 c 22.02242,-6.57587 44.93961,-9.66236 67.66661,-12.67645 20.80988,-2.48756 41.74169,-3.96083 62.70628,-3.77142 10.54359,0.0953 13.13417,0.36364 23.28009,0.95753 9.96534,0.97911 20.06893,1.84514 29.81305,4.29699 -1.31498,-0.0117 -1.48857,0.0133 -3.54086,-1.11951 -10.18516,-5.62191 -10.83352,-6.45789 -17.61045,-17.57627 -2.65493,-4.35574 -0.91014,-7.43385 -2.32137,-4.47652 -2.16721,15.31719 -6.61675,30.19674 -10.71877,45.07382 -6.17135,22.38201 -3.63293,13.37241 -10.18349,35.81318 -4.65828,15.70154 -10.13919,31.16156 -17.08794,46.00402 -1.63977,3.50252 -3.48627,6.90447 -5.22941,10.35671 -23.68438,47.4505 43.42076,80.94527 67.10515,33.49477 v 0 c 2.30819,-4.66441 4.75127,-9.26447 6.92459,-13.99323 8.1549,-17.74367 14.73733,-36.14723 20.28705,-54.86033 6.54743,-22.46132 4.47134,-15.01639 10.51754,-36.9943 5.62349,-20.44135 11.63681,-40.96718 13.33689,-62.20105 0.0102,-8.41433 0.86086,-17.39449 -2.73847,-25.42259 -2.59075,-5.77852 -6.05735,-11.26462 -10.30897,-15.95792 -5.5885,-6.16906 -13.66518,-9.04047 -21.36632,-11.17351 -14.01662,-3.18825 -28.29578,-5.11124 -42.62992,-6.14384 -12.22898,-0.67582 -15.50159,-0.99788 -28.12772,-1.07555 -24.08433,-0.14815 -48.13391,1.53579 -72.03704,4.42931 -17.95253,2.41325 -35.8052,4.99189 -53.54594,8.70127 -8.94851,1.87103 -16.56434,3.64986 -25.21225,6.32318 -2.56508,0.79295 -5.06661,1.77853 -7.59991,2.6678 -49.01941,20.23852 -20.39782,89.56243 28.62158,69.32391 z"/>
<path d="m 527.69573,627.7451 c -1.82856,2.09266 -3.65711,4.18532 -5.48566,6.27798 -0.26839,0.3143 -1.12756,0.6843 -0.80516,0.9429 0.41711,0.33458 1.04034,-0.25578 1.56996,-0.32942 6.35643,-0.88382 12.76324,-1.44161 19.15308,-2.01742 26.68739,-1.88652 53.44665,-2.66903 80.19713,-2.50872 13.35619,0.52289 6.974,0.14946 19.15006,1.05892 52.89572,3.81354 58.28888,-70.9923 5.39316,-74.80584 v 0 c -15.5696,-1.09136 -7.52369,-0.65663 -24.1405,-1.252 -29.26465,-0.14092 -58.5418,0.67451 -87.73137,2.84747 -16.72182,1.66145 -33.7402,3.20926 -49.00677,10.89529 -3.11158,1.56654 -6.25764,3.16806 -8.99095,5.32792 -3.73483,2.95127 -6.85778,6.60352 -10.28667,9.90527 -30.87062,43.12198 30.11307,86.77963 60.98369,43.65765 z"/>
</svg>
