<?xml version="1.0" ?>
<svg xmlns="http://www.w3.org/2000/svg" width="1000" height="1000">
<path d="m 130.31807,201.43863 c 15.09511,13.61934 29.76777,27.70316 44.22857,41.99138 8.90553,8.97535 17.26614,18.46075 25.63485,27.93022 35.13514,39.72434 91.31383,-9.96424 56.17869,-49.68857 v 0 c -9.49563,-10.728 -18.99462,-21.46265 -29.11847,-31.61046 -14.85768,-14.66069 -29.89782,-29.14981 -45.40365,-43.12661 -38.54018,-36.43014 -90.060169,18.0739 -51.51999,54.50404 z"/>
<path d="m 113.71476,415.0213 c 14.33186,8.1815 27.37226,18.24707 40.39542,28.31929 10.26406,7.80247 19.97287,16.28099 29.65087,24.78571 39.86514,34.97528 89.32766,-21.40254 49.46252,-56.37782 v 0 c -10.86303,-9.517 -21.76061,-19.00381 -33.25934,-27.75776 -16.03258,-12.37527 -32.21774,-24.58131 -49.88847,-34.56575 -46.3836,-25.71111 -82.744606,39.88522 -36.361,65.59633 z"/>
<path d="m 169.45992,868.50634 c 17.61597,-31.88456 34.7604,-64.02856 52.28782,-95.96097 7.28632,-13.27463 14.69477,-26.48186 22.04216,-39.72279 7.97286,-13.93476 15.94572,-27.86952 23.91858,-41.80428 26.33393,-46.03286 -38.76636,-83.27465 -65.10029,-37.24179 v 0 c -8.13329,14.21949 -16.26658,28.43898 -24.39986,42.65847 -24.51843,44.194 -48.66811,88.59327 -72.77446,133.0116 -27.619418,45.27326 36.40664,84.33302 64.02605,39.05976 z"/>
<path d="m 474.15142,135.57905 c 14.09154,6.9938 26.38402,17.08388 38.43791,27.06046 6.86152,5.45049 12.50207,12.03112 17.90581,18.85594 33.54914,41.07256 91.63451,-6.3731 58.08536,-47.44565 v 0 c -2.74639,-3.30478 -5.36535,-6.71975 -8.23917,-9.91433 -8.26748,-9.19024 -10.9605,-11.18478 -20.08481,-19.39966 -17.838,-14.622188 -36.2307,-29.108741 -57.48342,-38.480631 -49.01938,-20.238584 -77.64106,49.085291 -28.62168,69.323871 z"/>
<path d="m 377.98997,264.79793 c 28.77204,-7.61059 58.32249,-11.77965 87.71535,-16.15748 50.67551,-7.17833 101.61662,-12.73866 152.75218,-15.24325 9.86826,-0.48335 19.74734,-0.71242 29.62101,-1.06864 40.80272,-1.27249 81.57186,0.8553 122.23059,4.06554 3.49104,0.29468 6.98207,0.58937 10.4731,0.88405 52.84531,4.45788 59.14971,-70.27668 6.3044,-74.73456 v 0 c -3.62724,-0.3058 -7.25448,-0.6116 -10.88172,-0.91739 -43.52918,-3.42826 -87.17949,-5.63368 -130.85992,-4.2478 -10.49709,0.38674 -20.99993,0.64018 -31.49125,1.16023 -53.29869,2.64197 -106.39725,8.42747 -159.21677,15.92305 -32.91382,4.91957 -66.00764,9.65907 -98.15386,18.48603 -50.80577,15.20767 -29.29888,87.05789 21.50689,71.85022 z"/>
<path d="m 496.81436,254.29014 c -16.18884,18.53204 -31.61732,37.72797 -47.29873,56.69164 -29.42451,35.61055 -59.15189,70.96965 -87.62959,107.34696 -8.32738,10.79012 -16.67817,21.57328 -24.50934,32.7334 -1.56345,2.22806 -3.19187,4.41804 -4.59123,6.75265 -1.67078,2.78745 -4.50789,5.34419 -4.60661,8.59252 -0.38916,12.80429 2.12098,25.53246 3.18147,38.29869 14.55082,5.27038 28.42229,13.0643 43.65247,15.81114 2.71875,0.49034 28.23743,-10.28953 30.54544,-11.22935 7.53142,-3.06676 31.45119,-12.84194 38.24271,-15.48435 7.52495,-2.92777 15.11205,-5.69324 22.66807,-8.53985 33.17193,-11.73125 67.14883,-21.18173 101.60736,-28.2976 19.32058,-3.9898 26.04137,-4.79781 45.16296,-7.76033 21.90427,-3.25869 44.01352,-4.6268 66.13628,-4.94568 53.02676,-0.81437 51.87506,-75.80553 -1.15169,-74.99116 v 0 c -25.60194,0.41354 -51.18616,2.02409 -76.53094,5.83096 -21.37849,3.3479 -28.47014,4.19809 -50.09138,8.69803 -37.85423,7.87845 -75.17289,18.32863 -111.60035,31.2913 -8.07322,3.04827 -16.17774,6.01489 -24.21965,9.14482 -6.13527,2.38786 -31.57312,12.75648 -38.6012,15.62982 -4.14984,1.6966 -8.33487,3.31089 -12.44046,5.11195 -1.12907,0.49531 -4.28056,1.09692 -3.24769,1.7702 10.50239,6.84601 22.11141,11.82191 33.16711,17.73286 0.31446,11.59232 0.87177,23.1806 0.94338,34.77697 0.002,0.31894 -0.89012,0.89747 -0.72476,0.62472 1.06102,-1.75013 2.25951,-3.41367 3.43239,-5.0909 7.21763,-10.32125 14.95724,-20.26417 22.63964,-30.23911 28.05042,-35.85711 57.38487,-70.66922 86.36429,-105.77418 14.70891,-17.78785 29.23421,-35.74193 44.27194,-53.25097 36.22872,-38.72958 -18.54317,-89.96473 -54.77189,-51.23515 z"/>
<path d="m 763.71982,385.43927 c 7.97428,7.21837 13.79911,16.44565 19.59358,25.3923 5.00811,9.10905 10.25048,18.86016 11.14214,29.46722 0.20358,2.4218 -0.41101,4.84329 -0.61652,7.26493 1.76893,53.0035 76.7272,50.50186 74.95827,-2.50164 v 0 c -0.54391,-7.71833 -0.39017,-15.51778 -1.63174,-23.15498 -3.0374,-18.68383 -11.81864,-36.28922 -21.27868,-52.42236 -3.05597,-4.56391 -5.9439,-9.24492 -9.16791,-13.69171 -11.65005,-16.06864 -25.65115,-31.11257 -43.95003,-39.49962 -48.8935,-20.54082 -77.94261,48.60504 -29.04911,69.14586 z"/>
<path d="m 392.77297,579.63963 c 1.32315,21.45364 -3.30704,42.69806 -7.41968,63.60721 -6.96471,30.67127 -17.66353,60.44081 -31.204,88.81504 -8.88028,18.60874 -13.58552,26.23218 -23.636,44.01174 -16.3501,25.3835 -7.81177,13.03331 -25.59118,37.06701 -31.39358,42.74275 29.0538,87.13998 60.44738,44.39722 v 0 c 21.2854,-29.15251 11.12496,-14.26798 30.48676,-44.64986 11.54441,-20.55101 16.70141,-28.90941 26.90562,-50.53893 15.79625,-33.48275 28.19106,-68.59568 36.20617,-104.75412 1.41476,-7.31607 2.98163,-14.60437 4.24427,-21.94822 3.81595,-22.19448 6.27658,-44.95755 3.68471,-67.43628 -8.08166,-52.41361 -82.2057,-40.98442 -74.12405,11.42919 z"/>
<path d="m 499.88082,619.56684 c 0.75896,19.20091 -0.21978,38.42277 -1.07161,57.60365 -1.35224,24.17491 -2.2052,48.38333 -3.98904,72.53244 -3.88032,52.89086 70.91865,58.37846 74.79897,5.4876 v 0 c 1.81402,-24.87509 2.75482,-49.80478 4.11685,-74.70672 1.00841,-22.89642 2.23319,-45.88472 0.73091,-68.78571 -5.56404,-52.74032 -80.15011,-44.87159 -74.58608,7.86874 z"/>
<path d="m 614.77283,530.52685 c 2.11344,16.2929 3.12889,32.69259 4.00265,49.08939 1.33396,35.40738 1.90643,70.83882 2.83352,106.25869 0.85652,27.83884 1.453,55.73412 4.24821,83.46568 0.46237,4.58723 1.06433,9.1593 1.5965,13.73895 2.82792,18.89747 6.34972,38.09932 14.65878,55.48229 1.50609,3.15081 3.31372,6.1484 4.97058,9.2226 8.07885,13.12116 19.29864,23.53174 33.01503,30.58226 9.0095,4.63108 12.98157,5.40343 22.64203,8.41053 26.99999,6.49784 54.95737,6.68456 82.57153,7.21243 24.21835,0.25596 48.44685,0.51106 72.6579,-0.2612 15.44738,-0.80359 31.50821,-2.44846 43.78886,-13.36498 5.5518,-4.9351 10.12009,-11.065 13.70968,-17.56827 3.40072,-6.1611 4.65626,-13.28214 6.98438,-19.92321 5.54286,-25.48176 6.96891,-51.58621 9.02153,-77.50336 4.1634,-52.86934 -70.60513,-58.75726 -74.76852,-5.88793 v 0 c -1.63265,20.86036 -2.90858,41.80982 -6.28072,62.48653 0.12663,0.94424 -0.54244,3.07135 0.37988,2.83272 2.42481,-0.62736 3.80817,-3.32412 6.025,-4.48984 2.45489,-1.2909 5.17878,-2.00372 7.83594,-2.79894 0.19866,-0.0595 0.75146,0.23639 0.55088,0.28899 -1.21605,0.31892 -2.48094,0.42037 -3.7319,0.54525 -1.98478,0.19814 -3.97931,0.28213 -5.96896,0.42319 -22.91982,0.77332 -45.86062,0.4287 -68.78772,0.23443 -20.96467,-0.39079 -42.13489,-0.42072 -62.82832,-4.17911 -5.67946,-1.41647 -2.85493,-0.64038 -7.22626,-1.93435 -0.0969,-0.0287 -2.84658,-0.6012 -3.05962,-0.76012 -0.45722,-0.34108 -0.80933,-0.80406 -1.214,-1.20609 -7.02413,-10.48659 -8.1825,-24.53415 -10.458,-36.59258 -3.56996,-30.01304 -4.67825,-60.21566 -5.35838,-90.41863 -0.94547,-36.10867 -1.51563,-72.22982 -2.91611,-108.32445 -1.02367,-18.8708 -2.21094,-37.75338 -4.77032,-56.49006 -8.08166,-52.41361 -82.2057,-40.98442 -74.12405,11.42919 z"/>
</svg>
