<?xml version="1.0" ?>
<svg xmlns="http://www.w3.org/2000/svg" viewBox="0 0 1000 1000">
<path d="m 114.31552,214.46568 c 19.99545,10.08128 38.33616,23.06604 56.68403,35.80854 23.86246,17.39047 12.13878,8.66051 35.18158,26.17573 42.23198,32.07741 87.59628,-27.64763 45.36431,-59.72503 v 0 c -24.72121,-18.76404 -12.12471,-9.39863 -37.80256,-28.07868 -21.94978,-15.20523 -43.96639,-30.61179 -68.0559,-42.30421 -48.1707,-22.18297 -79.542156,45.94068 -31.37146,68.12365 z"/>
<path d="m 103.48702,436.52575 c 23.09776,11.99892 45.97555,24.41277 68.57999,37.31604 6.22463,3.57663 12.44926,7.15326 18.6739,10.72989 45.98297,26.42094 83.34782,-38.60881 37.36484,-65.02975 v 0 c -6.29429,-3.6165 -12.58858,-7.23301 -18.88287,-10.84951 -24.61896,-14.02897 -49.48888,-27.6457 -74.75809,-40.47025 -48.297921,-21.90458 -79.275686,46.39899 -30.97777,68.30358 z"/>
<path d="m 159.30646,913.37595 c 0.34973,-0.45753 0.73153,-0.89224 1.0492,-1.3726 11.10584,-16.79351 21.79497,-33.86424 32.90118,-50.65852 18.64644,-28.19624 27.42956,-40.80359 47.17458,-69.72018 40.14741,-57.9475 19.8819,-28.92163 60.80199,-87.0738 30.51844,-43.37194 -30.81875,-86.53153 -61.33718,-43.15959 v 0 c -41.33051,58.74005 -20.86431,29.42449 -61.4043,87.94273 -21.70035,31.78506 -43.25284,63.61746 -64.2333,95.88176 -0.94745,1.45701 -16.189895,24.84911 -18.738427,29.08663 -1.679096,2.79188 -3.149485,5.70409 -4.724227,8.55613 -21.57909,48.44423 46.931384,78.96167 68.510484,30.51744 z"/>
<path d="m 458.92459,89.944407 c 0.59567,22.420783 -8.26409,43.681583 -15.98675,64.284773 -10.66545,24.16994 -12.12918,28.51803 -24.8091,52.73264 -4.89866,9.3549 -10.14773,18.52221 -15.27351,27.75462 -5.17496,9.32099 -10.11198,18.7822 -15.6285,27.90521 -5.46135,9.03176 -11.52443,17.68571 -17.28664,26.52856 -28.84336,44.50349 34.09407,85.29416 62.93743,40.79067 v 0 c 6.59571,-10.22463 13.4956,-20.25933 19.78711,-30.6739 5.6221,-9.30646 10.67026,-18.94799 15.93635,-28.46043 5.62505,-10.16083 11.37365,-20.25721 16.73671,-30.55873 14.36426,-27.5913 15.80937,-32.17223 27.96376,-60.05786 3.19743,-8.77644 6.7088,-17.44478 9.59227,-26.32932 6.68725,-20.60473 11.47595,-42.15764 11.03087,-63.916233 0,-53.033008 -75,-53.033008 -75,0 z"/>
<path d="m 493.75484,162.94541 c 1.76314,0.33465 3.51428,0.74028 5.28942,1.00395 6.94989,1.03227 12.82649,1.52348 19.89599,2.0354 14.81822,1.07302 29.64757,1.58353 44.49459,2.04007 26.47746,0.40565 52.95945,0.46361 79.43961,0.58944 5.70657,0.46541 11.53298,-0.45436 17.23463,0.12709 0.30791,0.0314 -0.62335,0.0542 -0.92852,0.003 -2.19981,-0.37232 -4.38088,-0.84797 -6.57131,-1.27196 -5.8086,-3.97484 -12.70666,-6.70255 -17.4258,-11.92451 -3.71853,-4.11475 -4.85631,-9.97925 -6.99368,-15.0969 -0.36723,-0.87927 0.20773,-3.46793 -0.48788,-2.81669 -0.85841,0.80365 -0.15788,2.34666 -0.26123,3.51801 -0.78218,8.86527 -0.50286,5.92124 -2.05315,15.73649 -6.60262,28.34975 -20.57114,54.19228 -36.12242,78.55949 -5.00072,7.83561 -10.35017,15.4431 -15.52526,23.16465 -5.15951,7.36918 -10.31902,14.73837 -15.47853,22.10755 -30.40252,43.45327 31.04969,86.44893 61.45221,42.99565 v 0 c 5.46547,-7.81673 10.93094,-15.63347 16.39641,-23.45021 5.83574,-8.76577 11.88756,-17.39148 17.50721,-26.29732 20.64202,-32.71278 38.311,-67.70095 45.93164,-105.89467 1.70761,-11.69389 1.98956,-11.94026 2.76183,-22.50662 0.9005,-12.32074 0.88233,-25.21161 -7.63681,-35.69108 -4.88957,-6.01473 -12.52638,-9.13396 -18.78957,-13.700934 -2.95417,-0.673309 -5.87995,-1.486283 -8.86252,-2.019927 -1.49033,-0.266652 -3.01497,-0.288012 -4.52643,-0.375639 -6.41039,-0.371643 -12.85123,0.06256 -19.26449,-0.164217 -25.83812,-0.122751 -51.67783,-0.1864 -77.51365,-0.555549 -18.46578,-0.5561 -37.03063,-0.982492 -55.37616,-3.25717 -51.71992,-11.72816 -68.30605,61.414856 -16.58613,73.143016 z"/>
<path d="m 469.21978,398.18867 c 16.579,-4.76101 33.27252,-9.14328 50.18548,-12.56335 7.0395,-1.4235 14.11632,-2.6558 21.17448,-3.9837 49.62262,-9.0086 99.86084,-13.76892 150.14705,-17.01993 25.06638,-0.97684 50.28552,-2.30044 75.32571,-0.0633 0.93795,1.09945 2.98508,-0.0391 4.16823,0.72874 0.21121,0.13707 -0.50778,-0.0101 -0.75199,-0.0714 -0.78375,-0.19688 -1.56943,-0.40329 -2.32092,-0.70044 -3.26913,-1.29266 -3.5486,-1.68544 -6.54983,-3.6152 -7.31098,-7.05207 -5.98675,-4.72032 -11.09058,-14.44318 -0.52808,-1.00599 -0.12351,-2.7457 -1.1632,-3.2039 -0.82072,-0.3617 -0.0182,1.79395 -10e-4,2.69068 0.34835,18.56241 0.12988,-3.96105 0.28314,20.61782 0.0152,25.44042 -1.44746,50.87305 -5.78083,75.96977 -3.40689,19.73104 -5.56881,26.94413 -10.41632,46.57368 -7.34812,28.92486 -19.44877,56.17354 -31.92118,83.15702 -22.20579,48.16018 45.90299,79.56391 68.10878,31.40372 v 0 c 3.05372,-6.63761 6.22395,-13.22284 9.16116,-19.91282 10.94292,-24.92437 20.64516,-50.39871 27.49297,-76.78505 5.54588,-22.75504 7.98417,-30.92729 11.83638,-53.93951 4.81254,-28.74907 6.551,-57.86239 6.51725,-86.98459 -0.0546,-7.28759 -0.0245,-17.34402 -0.43183,-24.84869 -0.33055,-6.09001 -0.87125,-14.28931 -3.08513,-20.04942 -4.46745,-11.62348 -5.81044,-11.53272 -13.70272,-19.63206 -1.67412,-1.15167 -3.27518,-2.41751 -5.02234,-3.45501 -8.80704,-5.2298 -18.91539,-7.21212 -28.97817,-8.23069 -28.78791,-2.36309 -57.72084,-1.44499 -86.53769,-0.0484 -8.09936,0.52823 -16.20425,0.9776 -24.29808,1.58468 -45.19927,3.3902 -90.28111,8.63254 -134.91487,16.58188 -7.80332,1.48049 -15.62812,2.85191 -23.40995,4.44147 -18.57759,3.79477 -36.92656,8.59418 -55.1424,13.83602 -50.88712,14.9332 -29.76839,86.89847 21.11874,71.96527 z"/>
<path d="m 356.23585,540.39646 c 27.01153,-6.98121 54.28256,-12.89283 81.58313,-18.61466 69.18974,-14.05371 139.53239,-20.90337 209.77158,-27.13011 60.83032,-4.91359 121.90392,-7.54225 182.93811,-6.17869 9.1827,0.20515 18.35796,0.66476 27.53694,0.99713 17.59648,1.21881 23.52201,1.23223 40.01133,3.68569 4.19341,0.62394 8.33637,1.54949 12.50456,2.32424 52.19034,9.41637 65.50711,-64.39192 13.31677,-73.80829 v 0 c -5.64655,-0.99607 -11.26401,-2.17402 -16.93964,-2.9882 -19.16135,-2.7487 -26.20211,-2.81291 -46.21285,-4.16553 -9.82292,-0.3471 -19.64204,-0.82702 -29.46875,-1.04131 -63.49644,-1.3846 -127.03274,1.34359 -190.31606,6.46855 -13.82085,1.22772 -27.65058,2.35931 -41.46255,3.68316 -59.33845,5.68746 -118.60397,12.99415 -177.07697,24.75093 -27.94578,5.86702 -55.86821,11.90111 -83.52025,19.04785 -51.59704,12.25744 -34.2624,85.22668 17.33465,72.96924 z"/>
<path d="m 476.53526,646.56548 c 23.33847,-4.01039 46.89369,-6.74086 70.39996,-9.56665 34.44107,-4.14177 69.04543,-6.82626 103.74762,-6.89105 20.87997,-0.039 29.2013,0.51269 49.75325,1.35353 6.80368,0.41479 13.60737,0.82958 20.41105,1.24437 52.93593,3.20743 57.47193,-71.65527 4.536,-74.86271 v 0 c -7.30757,-0.44022 -14.61513,-0.88044 -21.9227,-1.32066 -22.35456,-0.89072 -31.42839,-1.48453 -54.18462,-1.40133 -37.22597,0.13611 -74.35303,2.97112 -111.30059,7.41498 -26.14225,3.14852 -52.3786,6.08533 -78.26859,10.94192 -51.68074,11.89962 -34.85212,84.98723 16.82862,73.0876 z"/>
<path d="m 550.99485,381.71468 c 5.8898,22.24054 10.17697,44.85944 14.49641,67.44371 6.00075,32.85567 10.41087,66.00692 12.76426,99.32959 1.7598,24.91788 1.67388,33.2213 2.30129,58.39626 0.31877,50.23604 -1.61029,100.53932 -7.0159,150.50219 -0.96509,8.92011 -2.18567,17.81071 -3.27851,26.71607 -4.61469,34.49604 -11.54282,68.6186 -19.86506,102.39473 -0.80914,3.07892 -2.0849,8.27802 -3.21531,11.57497 -0.12767,0.37237 -0.6915,1.41311 -0.54472,1.04784 2.75772,-6.86299 4.7154,-10.86538 13.00356,-15.48379 5.25657,-2.92911 11.61279,-3.16041 17.41918,-4.74061 1.62147,0.0698 4.81571,1.8317 4.8644,0.20946 0.0556,-1.85176 -3.18542,-1.89256 -4.78587,-2.82567 -3.65982,-2.13377 -7.3765,-4.17147 -10.99481,-6.37491 -15.7665,-9.60134 -12.99106,-8.11141 -28.33256,-19.5638 -42.67555,-31.48488 -87.20189,28.86746 -44.52635,60.35234 v 0 c 6.34181,4.63675 12.53937,9.47752 19.02542,13.91024 7.04924,4.81763 21.41828,13.42598 29.45951,17.81272 4.07752,2.22442 8.06617,4.68359 12.39663,6.36326 5.34246,2.0722 10.99634,3.22858 16.49452,4.84287 8.2751,-1.3688 17.14403,-0.73756 24.8253,-4.10639 18.30337,-8.02744 23.36386,-27.98572 27.73814,-45.09585 9.01876,-36.68709 16.51906,-73.75115 21.48444,-111.22179 1.16715,-9.59228 2.46979,-19.16905 3.50144,-28.77685 5.68391,-52.9349 7.71961,-106.22681 7.32223,-159.44713 -0.27716,-10.66345 -0.39775,-21.33212 -0.83148,-31.99035 -1.88331,-46.2792 -7.10593,-92.38369 -15.54701,-137.92505 -4.59105,-23.96775 -9.17083,-47.96564 -15.40813,-71.57288 -12.88972,-51.44273 -85.64074,-33.21392 -72.75102,18.22882 z"/>
</svg>
