<?xml version="1.0" ?>
<svg xmlns="http://www.w3.org/2000/svg" width="1000" height="1000">
<path d="m 127.60739,188.93773 c 18.47352,9.63947 35.99336,20.99885 52.47908,33.73707 4.97288,3.84245 9.78547,7.88799 14.67821,11.83199 18.6843,16.58 9.66221,8.2792 27.09842,24.86739 38.4715,36.50265 90.09404,-17.90427 51.62254,-54.40692 v 0 c -20.26553,-19.18373 -9.69677,-9.51749 -31.76078,-28.93903 -5.74953,-4.60209 -11.40284,-9.32702 -17.24859,-13.80626 -20.1601,-15.44748 -41.60465,-29.20644 -64.20766,-40.79901 -47.74016,-23.09497 -80.401378,44.4198 -32.66122,67.51477 z"/>
<path d="m 110.07005,434.34577 c 17.70547,10.58563 34.90088,22.05949 52.15515,33.37055 12.50958,8.31375 24.71431,17.1352 35.7003,27.4176 3.96459,3.71068 7.67611,7.68283 11.51417,11.52424 37.69463,37.30435 90.45095,-16.00391 52.75632,-53.30826 v 0 c -5.1244,-5.02824 -10.08429,-10.2298 -15.37318,-15.08472 -13.47748,-12.37158 -28.26741,-23.16757 -43.4844,-33.27608 -24.08721,-15.7846 -3.41886,-2.29522 -25.80906,-16.76749 -9.77421,-6.31773 -19.42402,-12.87808 -29.55713,-18.61975 -1.83538,-1.03997 -3.73466,-1.96289 -5.60199,-2.94433 -47.862817,-22.83968 -80.162994,44.84857 -32.30018,67.68824 z"/>
<path d="m 158.61282,880.44848 c 2.2133,-2.86617 6.25851,-8.09938 7.75377,-10.08527 9.85503,-13.08869 12.43411,-17.06855 23.48793,-30.85183 13.58315,-16.93719 26.84448,-32.23662 40.97561,-48.83909 26.53305,-31.00158 53.48258,-61.64218 80.40732,-92.30284 34.99336,-39.84927 -21.36202,-89.33736 -56.35538,-49.48808 v 0 c -27.18154,30.95377 -54.38757,61.88776 -81.17186,93.18727 -15.76998,18.53826 -28.13651,32.76791 -43.18741,51.56521 -12.03204,15.027 -13.42108,17.47495 -23.64914,31.06109 -2.9237,3.8836 -5.94631,7.69198 -8.869188,11.5763 -31.238027,42.85657 29.370318,87.03381 60.608348,44.17724 z"/>
<path d="m 390.0108,300.01567 c 20.75742,-8.44334 41.49339,-16.99122 62.64621,-24.41394 7.69961,-2.70186 15.48155,-5.1631 23.22232,-7.74466 35.27921,-10.7979 71.22064,-19.49778 107.49401,-26.24052 20.45167,-3.80169 27.04522,-4.52415 47.16837,-7.3708 15.36009,-2.32546 30.84271,-3.01516 46.34348,-3.26894 53.0227,-1.04574 51.5438,-76.03116 -1.4789,-74.98542 v 0 c -5.12467,0.11438 -10.2538,0.10074 -15.37401,0.34313 -17.54711,0.83068 -21.97427,1.63853 -40.04245,3.65722 -22.13271,3.15823 -28.93469,3.89852 -51.43774,8.10386 -39.30809,7.34584 -78.24882,16.83352 -116.45746,28.6328 -8.50282,2.85014 -17.04866,5.57498 -25.50845,8.55042 -22.42756,7.88812 -44.42323,16.94317 -66.42367,25.9322 -48.65223,21.10593 -18.80395,89.91058 29.84829,68.80465 z"/>
<path d="m 447.20831,445.799 c 17.09854,-5.91235 33.56032,-13.48086 50.72154,-19.25357 5.88751,-1.98045 11.84914,-3.73334 17.77371,-5.60001 34.89242,-9.93265 70.16612,-18.76288 105.80462,-25.61227 6.12399,-1.17697 12.27951,-2.18349 18.41926,-3.27524 5.27659,-0.83589 10.55318,-1.67177 15.82976,-2.50766 52.37629,-8.32013 40.60985,-82.39139 -11.76644,-74.07126 v 0 c -5.74807,0.91542 -11.49615,1.83083 -17.24422,2.74624 -6.78206,1.21511 -13.58094,2.33977 -20.34616,3.64532 -38.18756,7.36938 -75.98946,16.83639 -113.35579,27.57962 -6.89434,2.19602 -13.82997,4.2664 -20.68303,6.58807 -15.48031,5.24441 -30.54411,11.58064 -45.71453,17.63425 -51.00115,14.53902 -30.43987,86.66553 20.56128,72.12651 z"/>
<path d="m 400.0472,639.92126 c 1.22246,-0.7313 2.4482,-1.45716 3.66738,-2.19392 3.20988,-1.93974 10.12849,-6.20787 12.98034,-7.78362 14.86087,-8.21115 30.51644,-14.92475 45.97243,-21.90006 46.70755,-20.23189 94.67311,-37.50475 143.30052,-52.51577 11.01365,-3.39986 22.09689,-6.57011 33.14533,-9.85516 43.54521,-12.30767 87.82439,-23.05095 132.95631,-27.48988 5.12961,-0.50452 10.28428,-0.70967 15.42641,-1.0645 3.80732,-0.08 7.61464,-0.15998 11.42196,-0.23998 53.01687,-1.30815 51.16687,-76.28533 -1.85001,-74.97718 v 0 c -4.98689,0.137 -9.97378,0.274 -14.96067,0.411 -6.3831,0.4754 -12.78112,0.78113 -19.14932,1.42619 -49.28389,4.99218 -97.67581,16.54219 -145.23666,30.04983 -11.54627,3.43887 -23.12929,6.75668 -34.63881,10.3166 -51.34782,15.88199 -101.98984,34.16761 -151.29473,55.59087 -23.61471,10.68012 -47.42921,21.16853 -69.25527,35.28222 -45.92189,26.52695 -8.40711,91.47032 37.51479,64.94336 z"/>
<path d="m 432.55634,129.78072 c 8.94423,19.35435 14.03364,40.25707 19.83925,60.69004 11.54022,40.0009 22.48321,80.1987 35.60032,119.7253 11.12509,33.5239 13.98381,39.94594 26.68893,73.3793 30.45718,76.40678 65.80579,150.72938 101.3423,224.86822 21.53726,44.02141 43.3787,87.9199 67.09046,130.82089 13.39792,24.24046 16.78783,29.6172 30.57267,52.96196 19.60911,31.51742 40.02209,63.16853 66.44946,89.5191 3.67161,3.66094 7.62067,7.03267 11.43101,10.54901 10.77649,9.13372 22.46837,17.33263 35.56839,22.7796 2.1988,0.91426 4.41319,1.82589 6.71298,2.44356 3.3062,0.88796 6.70737,1.37436 10.06105,2.06154 19.9459,-2.28594 23.89715,0.48627 39.36513,-18.37536 6.59636,-8.04359 8.42332,-23.46756 10.435,-33.39288 4.6591,-22.98733 3.23594,-15.96008 9.89646,-41.56198 9.28691,-33.0298 22.02351,-64.91259 34.40805,-96.85625 19.15394,-49.45328 -50.78356,-76.54104 -69.9375,-27.08776 v 0 c -13.41623,34.67197 -27.16039,69.29698 -37.08648,105.18432 -6.70549,26.11617 -6.38668,23.15725 -11.00235,46.53421 -0.60324,3.05527 -3.58702,6.80164 -1.60512,9.20386 1.5648,1.89667 2.27441,-4.52918 4.1895,-6.07138 16.83862,-13.55997 13.36762,-11.06884 31.14133,-11.93322 1.44514,0.43553 2.90493,0.82509 4.3354,1.30661 0.16878,0.0568 -0.36244,0.0224 -0.53356,-0.0268 -0.59824,-0.17232 -1.18917,-0.37808 -1.75716,-0.63295 -5.02641,-2.25543 -9.4412,-5.60627 -13.70795,-9.04082 -2.46185,-2.19241 -5.02645,-4.27464 -7.38557,-6.57725 -22.70916,-22.16516 -39.56024,-49.55089 -56.40551,-76.1746 -13.1532,-22.25105 -16.39026,-27.37986 -29.18983,-50.51801 -23.13194,-41.81626 -44.40669,-84.62312 -65.41441,-127.5343 -34.63802,-72.25725 -69.1145,-144.68253 -98.87608,-219.11978 -11.95195,-31.37273 -14.81754,-37.85518 -25.27883,-69.32822 -12.9048,-38.82442 -23.61857,-78.32586 -34.9677,-117.61843 -7.67883,-26.98642 -14.45288,-54.82766 -28.14449,-79.548451 -27.83948,-45.13827 -91.67463,-5.767301 -63.83515,39.370971 z"/>
<path d="m 723.3547,584.87135 c -0.4279,0.97653 -0.79118,1.98401 -1.2837,2.9296 -6.11305,11.73649 -14.22233,22.75896 -22.20542,33.22074 -15.19153,19.90839 -20.0634,24.89103 -37.23673,44.80179 -36.92748,40.95367 -76.88721,79.1991 -119.77811,113.87857 -10.97186,8.8713 -22.34403,17.23574 -33.51605,25.85361 -41.9627,32.42887 3.89865,91.77309 45.86135,59.34422 v 0 c 12.04364,-9.32324 24.30188,-18.37567 36.13092,-27.96973 45.89174,-37.22093 88.65385,-78.24128 128.14369,-122.17805 18.52606,-21.56169 24.79772,-28.11165 41.29492,-49.95609 11.55951,-15.3063 22.56749,-31.21316 30.73403,-48.62837 1.14683,-2.44562 1.99362,-5.02101 2.99043,-7.53151 16.80424,-50.30028 -54.33109,-74.06506 -71.13533,-23.76478 z"/>
<path d="m 736.33118,119.2592 c 15.43,9.42002 30.42722,19.60008 44.81229,30.55517 4.24278,3.23113 8.3581,6.6263 12.53715,9.93945 13.80759,12.75039 7.48631,6.11002 19.07672,19.81303 34.96409,39.87496 91.35579,-9.57174 56.3917,-49.44669 v 0 c -18.73683,-20.90522 -9.03379,-11.21171 -28.9736,-29.21557 -4.93288,-3.885877 -9.79688,-7.860819 -14.79864,-11.657639 -16.88074,-12.814139 -34.48847,-24.722983 -52.68469,-35.584112 -46.38364,-25.711056 -82.74456,39.88531 -36.36093,65.596361 z"/>
</svg>
