<?xml version="1.0" ?>
<svg xmlns="http://www.w3.org/2000/svg" width="1000" height="1000">
<path d="m 142.70889,278.91785 c 17.10744,9.45452 34.33093,18.76697 51.13374,28.76159 4.80394,2.85747 9.51579,5.86699 14.27368,8.80049 4.64048,3.213 9.28095,6.426 13.92142,9.639 43.68928,30.06238 86.20391,-31.72359 42.51463,-61.78597 v 0 c -5.7139,-3.91179 -11.4278,-7.82359 -17.1417,-11.73538 -5.41658,-3.32487 -10.78623,-6.72744 -16.24975,-9.97463 -6.84492,-4.0682 -21.35986,-12.17951 -28.62087,-16.27468 -6.16819,-3.47882 -15.3736,-8.75439 -21.81891,-12.17482 -2.37489,-1.26032 -4.8004,-2.42285 -7.2006,-3.63428 -48.35102,-21.78712 -79.162656,46.59156 -30.81164,68.37868 z"/>
<path d="m 106.47044,501.12792 c 15.99647,9.90605 32.77735,18.48654 49.44604,27.19037 16.81226,8.89054 8.6106,4.48633 24.6119,13.19975 46.58041,25.35282 82.43471,-40.52184 35.85429,-65.87465 v 0 c -16.91536,-9.20252 -8.32939,-4.59585 -25.7618,-13.81273 -15.12886,-7.8936 -30.38257,-15.64067 -44.90673,-24.61622 -45.19364,-27.74948 -84.437341,36.16399 -39.2437,63.91348 z"/>
<path d="m 184.11975,913.01619 c 15.42889,-24.848 28.72913,-50.92837 42.92654,-76.4763 7.13142,-12.83282 14.29684,-25.64826 21.65716,-38.35118 8.48654,-14.64662 17.25392,-29.12871 25.88089,-43.69306 37.38657,-62.21833 18.92789,-31.10825 55.38284,-93.3262 26.80822,-45.75827 -37.90375,-83.67081 -64.71197,-37.91254 v 0 c -36.11037,61.64205 -17.71483,30.62952 -55.20607,93.02606 -8.88525,15.01102 -17.91405,29.93801 -26.65577,45.03307 -7.54642,13.03104 -14.89115,26.17841 -22.20606,39.34079 -13.8902,24.99389 -26.89116,50.51318 -41.99508,74.81717 -26.546337,45.9107 38.38119,83.45289 64.92752,37.54219 z"/>
<path d="m 447.32525,289.63181 c 24.37519,-5.10995 48.75711,-10.16478 73.44205,-13.60243 9.08817,-1.26563 18.21247,-2.25674 27.3187,-3.38511 61.81609,-6.7252 124.01167,-8.08909 186.13444,-8.51933 29.63911,-0.1053 15.61798,-0.10814 42.06337,-0.0238 53.03275,0.16678 53.26861,-74.83285 0.23586,-74.99963 v 0 c -27.03417,-0.0838 -12.75962,-0.0821 -42.82366,0.0252 -65.0471,0.45909 -130.16986,1.95758 -194.88611,9.09336 -9.90859,1.2416 -19.83688,2.33505 -29.72578,3.72482 -24.29602,3.41452 -48.41265,8.0473 -72.34234,13.43734 -52.50233,7.48365 -41.91887,81.73316 10.58347,74.24952 z"/>
<path d="m 370.32284,417.14106 c 0.0805,31.94581 2.70201,63.81207 5.35379,95.62419 4.25508,46.98643 8.76587,93.95988 11.4678,141.0693 1.8826,32.82387 1.9026,40.62004 2.88758,73.16211 1.00105,29.85794 0.2601,59.7523 1.12046,89.61142 0.23844,8.27506 0.76071,16.53951 1.14106,24.80926 2.48341,52.97483 77.40113,49.46277 74.91773,-3.51207 v 0 c -0.35492,-7.41477 -0.85053,-14.82415 -1.06477,-22.24433 -0.87495,-30.30375 -0.11003,-60.64385 -1.1492,-90.94605 -1.03506,-33.82408 -1.05354,-41.74376 -3.01754,-75.84774 -2.73747,-47.53501 -7.25831,-94.93604 -11.56357,-142.34682 -2.49065,-29.73424 -4.9826,-59.51932 -5.09334,-89.37927 0,-53.03301 -75,-53.03301 -75,0 z"/>
<path d="m 501.4343,452.04132 c 19.38449,-4.37539 38.5352,-9.71563 57.93451,-14.02897 6.75599,-1.50216 13.54422,-2.85543 20.31633,-4.28314 29.15977,-5.84022 58.68281,-9.94387 88.36752,-11.85452 16.80716,-1.08179 23.13739,-0.96141 39.70706,-1.17857 21.87775,0.19909 43.89981,0.73944 65.44633,4.84889 3.15817,0.75746 2.86964,0.61856 5.44414,1.43103 0.52471,0.16559 2.07052,0.74441 1.54554,0.57966 -0.40317,-0.12651 -0.81588,-0.24066 -1.18972,-0.43763 -1.71784,-0.90514 -3.38223,-1.90826 -5.07335,-2.86239 -8.73312,-8.04674 -4.19774,-2.97309 -9.71769,-10.75079 -0.16207,-0.22835 -0.59321,-0.89439 -0.57203,-0.61518 0.10964,1.44587 0.5971,2.83844 0.8489,4.26643 0.48923,2.77453 0.97645,5.55043 1.37391,8.33959 0.58124,4.07889 1.04113,8.17416 1.56169,12.26124 3.86365,36.49098 7.08302,73.0955 8.45613,109.77558 0.35434,9.46541 0.47071,18.93823 0.70606,28.40735 0.50591,40.20208 -1.31704,80.43284 -6.13474,120.35724 -2.93183,24.29615 -4.66194,32.91586 -8.68653,56.84632 -5.6422,30.76543 -12.52267,61.31388 -21.1474,91.38535 -3.39885,11.85064 -5.91908,19.48666 -9.6029,31.03851 -3.16042,9.50005 -6.26619,19.02372 -9.69998,28.43021 -0.57038,1.56249 -1.14741,3.12333 -1.77736,4.66277 -0.25321,0.6188 -1.172,2.40382 -0.8702,1.80721 0.70696,-1.39753 1.39052,-2.80678 2.08578,-4.21017 38.88365,-26.80834 4.10805,-9.06879 38.83101,-14.14401 1.50597,-0.22011 -2.48473,-1.76062 -3.76988,-2.57596 -3.60576,-2.28758 -7.23544,-4.53841 -10.89982,-6.73086 -17.46518,-10.44965 -17.91667,-10.41539 -37.33816,-20.99983 -8.0455,-4.21993 -16.09101,-8.43986 -24.13651,-12.6598 -46.96881,-24.62581 -81.79497,41.79812 -34.82616,66.42393 v 0 c 7.70696,4.03911 15.41392,8.07822 23.12089,12.11733 16.96914,9.21396 18.46267,9.76876 33.79444,18.94456 14.50005,8.67803 31.77346,22.53125 50.27681,18.64608 9.91882,-2.08267 17.39924,-10.39943 26.09886,-15.59914 1.75947,-2.90211 3.67085,-5.71739 5.2784,-8.70633 1.35617,-2.52154 3.88604,-9.34917 4.82946,-11.93872 3.7016,-10.1603 7.05979,-20.4432 10.46482,-30.70488 4.11031,-12.91822 6.67126,-20.66669 10.47958,-34.00044 9.28588,-32.51189 16.71504,-65.53118 22.77687,-98.79011 4.32994,-25.9236 6.18654,-35.20961 9.32506,-61.57496 5.13081,-43.10167 7.08512,-86.52696 6.50369,-129.92051 -0.25985,-10.11111 -0.39564,-20.22617 -0.77955,-30.33333 -1.46732,-38.6307 -4.8545,-77.18433 -8.98304,-115.61077 -1.458,-11.05884 -1.99806,-16.80812 -4.13414,-27.37856 -1.99691,-9.88177 -4.66395,-20.27784 -10.96265,-28.43488 -2.4501,-3.17297 -5.64335,-5.69523 -8.46502,-8.54285 -2.42523,-1.49165 -4.78319,-3.09862 -7.27567,-4.47496 -7.05707,-3.89688 -16.41435,-5.54068 -24.12016,-7.47269 -7.8364,-1.42038 -9.75114,-1.87513 -18.09395,-2.88097 -20.57971,-2.48115 -41.34066,-3.10891 -62.05072,-3.21108 -18.96499,0.2849 -25.61675,0.1526 -44.89994,1.43211 -32.79426,2.17602 -65.40864,6.74007 -97.62329,13.21425 -7.34092,1.55487 -14.69881,3.03161 -22.02274,4.6646 -19.07041,4.25207 -37.90777,9.45963 -56.95557,13.80503 -51.77559,11.47994 -35.5405,84.70167 16.23508,73.22173 z"/>
<path d="m 437.67118,596.94878 c 25.4689,-5.8379 51.3755,-9.3068 77.28098,-12.50346 40.57029,-4.33981 81.38559,-6.75559 122.19563,-6.77788 6.96453,-0.004 13.92774,0.19182 20.89161,0.28773 14.26717,0.57738 28.60475,1.0892 42.70229,3.5531 2.39123,0.41793 4.74217,1.04041 7.11325,1.56062 51.9276,10.77144 67.16072,-62.66529 15.23311,-73.43672 v 0 c -4.0133,-0.80413 -8.00103,-1.74858 -12.03992,-2.41237 -17.19774,-2.82643 -34.63402,-3.66266 -52.02467,-4.25817 -7.63707,-0.0957 -15.27355,-0.29682 -22.91121,-0.28705 -43.54735,0.0557 -87.09808,2.66094 -130.38483,7.34021 -28.62847,3.56238 -57.25573,7.44915 -85.39088,13.96475 -51.59705,12.25744 -34.26241,85.22669 17.33464,72.96924 z"/>
<path d="m 463.54215,716.85682 c 22.14499,-5.2485 44.7487,-8.35322 67.28177,-11.39069 46.11263,-5.91681 92.65091,-6.02359 139.05402,-5.79529 28.16392,0.29212 14.10018,0.13588 42.19122,0.46857 53.02929,0.62793 53.91732,-74.36682 0.88803,-74.99475 v 0 c -28.3411,-0.33553 -14.10209,-0.17768 -42.71705,-0.47294 -49.88723,-0.23656 -99.91192,0.0284 -149.47512,6.47202 -25.88887,3.51668 -51.87375,7.10725 -77.25432,13.43763 -51.10646,14.16437 -31.07501,86.43982 20.03145,72.27545 z"/>
<path d="m 571.26179,138.18201 c -2.8444,29.95487 -3.33298,60.10174 -4.31733,90.16107 -2.26327,84.08862 -5.31984,168.14997 -8.69696,252.20027 -3.77638,106.977 -8.95245,213.89446 -13.72351,320.82936 -2.36374,52.9803 72.56172,56.32314 74.92546,3.34284 v 0 c 4.77578,-107.04555 9.95685,-214.07365 13.73758,-321.16132 3.3842,-84.23596 6.44896,-168.48296 8.71728,-252.75731 0.88581,-27.06928 1.54293,-54.16673 3.48152,-81.18572 8.08166,-52.413615 -66.04238,-63.842801 -74.12404,-11.42919 z"/>
<path d="m 806.17987,137.38616 c 1.07037,0.67237 2.1715,1.29811 3.21112,2.01711 4.21739,2.91676 8.23131,6.11743 12.32556,9.20467 12.39937,9.34967 24.00199,18.90909 35.90291,28.88774 5.30941,4.28419 10.61881,8.56838 15.92822,12.85257 41.2832,33.2896 88.3618,-25.09366 47.07861,-58.38326 v 0 c -4.9465,-3.98588 -9.893,-7.97176 -14.8395,-11.95764 -19.18544,-16.06385 -38.51581,-32.109023 -59.40513,-45.93641 -44.77062,-28.426955 -84.9724,34.88826 -40.20179,63.31522 z"/>
</svg>
