<?xml version="1.0" ?>
<svg xmlns="http://www.w3.org/2000/svg" viewBox="0 0 1000 1000">
<path d="m 125.73039,248.9622 c 15.67771,5.7748 31.68334,10.62215 47.20459,16.82774 4.67181,1.86784 9.27609,3.90033 13.91414,5.8505 13.93295,5.88469 27.43964,12.67237 40.87571,19.59312 47.17177,24.23478 81.44492,-42.47618 34.27315,-66.71095 v 0 c -15.18885,-7.78584 -30.44701,-15.44285 -46.19117,-22.06636 -5.47862,-2.28426 -10.91964,-4.66088 -16.43587,-6.85278 -15.8178,-6.28528 -32.07791,-11.31616 -48.06048,-17.14417 -49.85308,-18.08785 -75.433153,52.41506 -25.58007,70.5029 z"/>
<path d="m 121.33596,512.57561 c 18.16955,1.81133 36.22047,4.64453 54.23325,7.59751 16.01112,3.02481 8.34175,1.44463 23.01971,4.68393 51.80441,11.34913 67.85451,-61.91337 16.0501,-73.26251 v 0 c -17.44875,-3.79928 -8.46453,-1.97303 -26.961,-5.43748 -20.71572,-3.38252 -41.48469,-6.68543 -62.40897,-8.47825 -52.960029,-2.78111 -56.893118,72.11569 -3.93309,74.8968 z"/>
<path d="m 131.08019,894.50101 c 16.00417,-18.06827 32.37255,-35.80966 48.77514,-53.51738 19.11268,-20.90965 38.56618,-41.50481 57.64575,-62.44497 47.97645,-52.65499 -3.998,3.70148 44.00024,-48.15554 36.02031,-38.92348 -19.02581,-89.86389 -55.04612,-50.9404 v 0 c -50.01801,54.05929 4.06616,-4.60327 -44.12872,48.29473 -19.02879,20.88572 -38.43223,41.42582 -57.49425,62.28092 -15.72943,16.98259 -31.57487,33.88863 -46.725587,51.39024 -37.541998,37.45795 15.431551,90.55035 52.973547,53.0924 z"/>
<path d="m 520.98315,187.61978 c 12.51762,8.54239 24.3646,18.02081 35.74991,28.00752 8.72324,8.69471 4.58027,4.36519 12.46081,12.95795 36.03608,38.90888 91.06155,-12.05384 55.02547,-50.96272 v 0 c -11.38537,-12.20807 -5.33069,-6.00085 -18.23202,-18.55509 -3.54117,-3.06687 -7.02017,-6.20702 -10.62351,-9.2006 -4.73328,-3.9323 -14.06187,-11.10666 -19.15524,-14.91072 -5.07085,-3.78725 -10.23775,-7.57353 -15.61135,-10.93257 -1.99815,-1.24904 -4.08867,-2.34384 -6.13301,-3.51576 -47.45534,-23.674683 -80.9364,43.4373 -33.48106,67.11199 z"/>
<path d="m 374.71768,330.19717 c -0.11503,0.13638 -0.51701,0.45685 -0.3451,0.40914 1.4681,-0.40745 2.87596,-1.00708 4.31393,-1.51061 2.75896,-0.8552 5.49206,-1.79876 8.27687,-2.5656 18.58839,-5.11862 37.61084,-8.55407 56.50523,-12.28904 57.21656,-10.75294 114.84683,-19.76463 172.93371,-24.17576 12.00781,-0.91188 24.04231,-1.42962 36.06347,-2.14443 48.28256,-1.92064 96.79743,0.25187 144.59382,7.51761 5.77463,0.87783 11.50895,2.00301 17.26342,3.00451 9.39712,1.64101 18.60279,4.0426 27.66294,6.98133 50.58273,15.93385 73.1166,-55.60093 22.53387,-71.53478 v 0 c -12.30687,-3.80753 -24.72474,-7.20114 -37.45085,-9.35555 -6.69134,-1.14484 -13.36059,-2.42722 -20.07401,-3.43452 -52.57742,-7.88884 -105.9248,-10.23896 -159.02126,-8.04395 -12.82338,0.77591 -25.66111,1.34306 -38.47016,2.32774 -60.65918,4.66306 -120.85137,14.02982 -180.60314,25.28629 -17.41534,3.45401 -30.59254,5.87271 -47.61775,9.9305 -12.27578,2.92581 -24.76413,6.21321 -36.45922,11.0726 -2.46204,1.023 -4.83568,2.24701 -7.25352,3.37051 -46.07084,26.26742 -8.9231,91.42143 37.14775,65.15401 z"/>
<path d="m 543.60042,279.47042 c -0.77381,0.87508 -0.56479,0.60651 -1.63899,2.43862 -6.10162,10.40671 -3.24211,6.27306 -11.12622,18.86178 -9.21339,14.7112 -10.49336,16.13327 -20.86775,31.02472 -31.62677,42.94789 -67.23762,82.76347 -103.0067,122.25861 -25.87782,28.43381 -52.94287,55.74123 -80.28839,82.75422 -6.18222,6.10704 -12.33542,12.24489 -18.61912,18.24747 -5.55044,5.30213 -11.25334,10.44233 -16.88001,15.6635 -19.59743,17.39619 -10.13218,9.11532 -28.3681,24.87419 -40.11917,34.6836 8.93084,91.42067 49.05001,56.73707 v 0 c 19.41859,-16.79403 9.28539,-7.91919 30.36504,-26.66393 6.11034,-5.68271 12.29815,-11.28325 18.33103,-17.04813 6.42074,-6.1355 12.70896,-12.40836 19.02663,-18.64994 28.26834,-27.9279 56.22909,-56.17754 82.97891,-85.57475 37.915,-41.88302 75.63174,-84.13671 108.99909,-129.79795 4.32204,-6.23294 8.74629,-12.39623 12.96612,-18.69882 6.23287,-9.30918 12.99344,-20.15707 18.66085,-29.95174 4.47859,-7.7401 7.85316,-13.80022 11.16705,-22.0719 0.90906,-2.26908 1.46817,-4.66316 2.20226,-6.99474 12.30952,-51.58464 -60.64219,-68.99293 -72.95171,-17.40828 z"/>
<path d="m 400.95254,473.27795 c 4.17339,18.93074 5.59215,38.33225 7.18117,57.60828 1.93445,26.0068 2.18707,52.10523 1.16491,78.15746 -0.68984,17.58196 -1.37773,25.26342 -2.62941,42.87638 -3.7521,41.24907 -6.82735,82.54443 -8.72333,123.92062 -0.66711,18.07582 -1.51759,36.14329 -2.65405,54.19549 -3.32107,52.92892 71.53173,57.62562 74.8528,4.6967 v 0 c 1.15579,-18.4771 2.04606,-36.96836 2.72311,-55.46952 1.85579,-40.75385 4.94078,-81.42261 8.61459,-122.05206 1.33621,-18.97821 2.07014,-27.20569 2.79081,-46.21293 1.09093,-28.77258 0.76007,-57.59489 -1.39626,-86.31355 -1.91792,-22.9811 -3.7713,-46.08783 -8.92661,-68.62117 -12.17235,-51.61719 -85.17008,-34.40289 -72.99773,17.2143 z"/>
<path d="m 668.79023,329.25815 c -2.24246,3.06608 -4.84167,6.60221 -6.94249,9.59589 -5.80806,8.27649 -8.87756,13.13301 -15.09498,21.51578 -8.15172,10.99074 -16.12908,20.74959 -24.71615,31.50133 -22.64422,26.76949 -45.76588,53.18739 -69.73374,78.78678 -8.10628,8.65808 -24.15275,25.1084 -32.61069,33.81784 -4.50422,4.64502 -9.00843,9.29005 -13.51265,13.93507 -36.9185,38.07262 16.92432,90.28326 53.84282,52.21064 v 0 c 4.49206,-4.6325 8.98412,-9.26499 13.47619,-13.89749 9.64073,-9.92905 24.86246,-25.52403 34.10024,-35.39692 25.12393,-26.85122 49.37008,-54.55316 73.05742,-82.67191 10.57511,-13.25934 17.3196,-21.44756 27.23512,-34.84484 7.40931,-10.01103 8.45526,-12.04953 14.84211,-21.16207 1.75913,-2.50987 5.2888,-7.33623 7.28368,-10.07418 30.62898,-43.29395 -30.5979,-86.60987 -61.22688,-43.31592 z"/>
<path d="m 699.75331,421.57226 c 15.13097,1.11048 30.25692,2.27817 45.35768,3.74617 17.94425,1.94951 35.88382,3.94683 53.82126,5.95873 3.43957,0.41493 6.86777,0.91482 10.29563,1.41507 2.98171,0.43514 2.78465,0.49532 -0.7639,-0.29595 -2.85837,-1.27025 -6.09992,-1.89835 -8.57511,-3.81075 -11.52998,-8.90836 -12.57983,-11.68249 -16.39655,-24.62259 -0.41601,-1.41046 -0.15175,-2.94382 -0.39767,-4.39364 -0.0271,-0.16001 -0.22288,0.24639 -0.28001,0.39829 -0.32273,0.85809 -0.56879,1.7431 -0.85318,2.61465 -7.06294,17.92439 -14.59521,35.7232 -23.68925,52.72751 -2.83492,5.30083 -5.87542,10.48913 -8.81313,15.73369 -25.21968,42.59931 -56.28669,81.26775 -87.26309,119.73713 -31.17829,38.08145 -64.03362,74.81295 -99.16297,109.30154 -6.66269,6.54116 -13.50763,12.89405 -20.26144,19.34108 -16.42899,15.6128 -34.96991,28.59372 -53.49098,41.52504 -43.43595,30.42725 -0.40531,91.85497 43.03064,61.42771 v 0 c 6.2654,-4.40156 12.6323,-8.66208 18.79619,-13.20469 22.51041,-16.58951 21.9343,-16.85294 43.47742,-35.52275 7.23792,-6.92233 14.57158,-13.7459 21.71375,-20.76698 36.94629,-36.31989 71.5162,-74.98403 104.31837,-115.06916 33.6169,-41.76619 67.20205,-83.84775 94.34237,-130.23515 3.42701,-6.16655 6.97857,-12.2655 10.28103,-18.49964 6.57042,-12.40314 9.83421,-19.56152 15.33739,-32.08237 2.09433,-4.76503 8.18431,-19.097 10.12627,-24.2456 1.33514,-3.53976 2.46348,-7.15411 3.69522,-10.73116 1.98073,-7.87166 5.09869,-19.23511 3.51146,-27.37772 -1.06023,-5.43905 -2.17759,-11.09802 -5.04367,-15.8407 -7.5873,-12.55519 -11.65506,-12.98118 -22.68407,-18.19013 -1.65806,-0.42699 -3.30453,-0.9018 -4.97418,-1.28097 -5.88222,-1.33581 -11.99229,-1.57359 -17.92406,-2.58522 -18.31256,-2.05047 -36.62575,-4.09975 -54.94636,-6.07623 -15.43922,-1.48922 -30.90025,-2.71674 -46.37052,-3.8373 -52.85064,-4.39434 -59.06517,70.34775 -6.21454,74.74209 z"/>
<path d="m 644.45136,556.08967 c 0.93712,0.5653 1.89584,1.09627 2.81137,1.69591 5.9028,3.86612 11.48799,8.23209 17.33775,12.18169 5.28561,3.5687 12.56521,8.25061 17.94053,11.7336 2.59315,1.69183 5.18629,3.38366 7.77943,5.0755 44.41651,28.97712 85.39636,-33.83731 40.97985,-62.81443 v 0 c -2.66068,-1.73574 -5.32136,-3.47148 -7.98204,-5.20722 -3.89768,-2.52436 -12.11317,-7.8187 -16.06974,-10.48141 -9.12466,-6.14077 -17.74845,-13.06699 -27.4421,-18.32758 -46.77083,-24.99979 -82.12588,41.14415 -35.35505,66.14394 z"/>
<path d="m 559.23572,658.84175 c 17.51476,10.72124 34.21326,22.69862 50.85894,34.70351 29.55878,21.62878 59.50514,42.72409 89.58743,63.61665 19.15941,13.22896 38.62864,26.03227 56.97872,40.38268 8.27108,6.84061 16.49799,13.73244 24.83876,20.48867 13.83767,11.72966 29.78887,20.41586 45.78599,28.77564 15.21363,7.63291 31.04475,13.95524 47.31074,18.97008 6.87651,2.12005 13.86225,3.86808 20.79338,5.80212 51.1202,14.11471 71.08142,-58.18017 19.96122,-72.29488 v 0 c -5.59382,-1.52421 -11.22758,-2.90877 -16.78147,-4.57262 -12.61688,-3.77981 -24.90051,-8.57776 -36.69112,-14.45049 -11.56237,-5.96981 -23.21917,-12.01451 -33.17511,-20.51207 -8.70162,-7.04655 -17.25635,-14.26833 -25.92639,-21.353 -19.47857,-15.15048 -39.95695,-28.90905 -60.3153,-42.83906 -29.72288,-20.63838 -59.30607,-41.48486 -88.5094,-62.85388 -18.00995,-12.97699 -36.08937,-25.90187 -55.03022,-37.50303 -45.00005,-28.06235 -84.68621,35.57732 -39.68617,63.63968 z"/>
</svg>
