<?xml version="1.0" ?>
<svg xmlns="http://www.w3.org/2000/svg" viewBox="0 0 1000 1000">
<path d="m 118.19728,194.96545 c 3.42568,2.14473 5.92935,3.73975 9.74275,5.90223 7.84953,4.45126 15.89182,8.59042 23.85415,12.82951 17.75629,9.45332 12.98929,6.91524 31.31597,17.01297 21.68159,12.58104 11.11451,6.27249 31.71791,18.89774 45.23521,27.68169 84.38304,-36.29055 39.14783,-63.97224 v 0 c -22.61018,-13.81938 -11.05433,-6.93789 -34.68219,-20.61987 -18.90656,-10.40989 -14.31088,-7.97044 -32.41224,-17.60497 -3.80924,-2.02749 -15.83486,-8.32124 -20.54534,-10.96938 -3.27608,-1.84175 -5.80315,-3.45671 -8.89534,-5.38958 -45.19373,-27.74935 -84.437233,36.16425 -39.2435,63.91359 z"/>
<path d="m 108.47269,439.81869 c 21.08887,9.57997 42.16009,19.20035 62.88731,29.5419 4.13251,2.22762 8.26503,4.45523 12.39755,6.68285 46.71504,25.10388 82.21729,-40.96116 35.50225,-66.06504 v 0 c -4.82352,-2.58521 -9.64703,-5.17041 -14.47054,-7.75561 -22.12051,-10.99432 -44.55731,-21.32918 -67.0809,-31.47129 -48.837877,-20.67274 -78.073547,48.39445 -29.23567,69.06719 z"/>
<path d="m 158.81897,886.95342 c 2.53028,-3.54947 5.16651,-7.02575 7.59084,-10.64841 7.89917,-11.80369 15.90197,-25.25225 22.93554,-37.40171 17.87567,-30.87764 34.54693,-62.40356 51.27403,-93.91047 13.45534,-25.19323 26.10436,-50.80611 39.40426,-76.07983 6.46173,-12.27917 13.12975,-24.44865 19.69463,-36.67298 25.08555,-46.72489 -40.99342,-82.20122 -66.07897,-35.47633 v 0 c -6.75577,12.587 -13.61449,25.11928 -20.26731,37.76099 -13.16434,25.01492 -25.68483,50.36533 -38.99784,75.30328 -23.13942,43.59732 -45.91282,87.56786 -72.99112,128.89567 -34.103609,40.61334 23.33233,88.84313 57.43594,48.22979 z"/>
<path d="m 605.72776,63.350458 c -0.58885,1.059311 -3.39641,6.113867 -3.50467,6.282807 -1.74623,2.724965 -8.53736,11.330958 -9.34257,12.318508 -9.71729,11.917713 -13.11092,15.349353 -24.1293,27.607947 -40.97974,44.77421 -84.36648,87.2668 -128.34723,129.06834 -29.3583,27.37427 -58.55009,54.95532 -89.07247,81.03932 -3.8575,3.23334 -25.16284,19.39891 -23.33977,23.77979 25.58718,61.48658 18.72763,58.31726 51.42917,52.11617 29.10433,-8.8837 58.64445,-16.26923 88.60203,-21.65367 8.83979,-1.58883 17.72337,-2.92351 26.58505,-4.38526 51.60079,-7.46532 103.68037,-11.91459 155.80418,-13.29481 9.49461,-0.25141 18.99407,-0.26149 28.49111,-0.39223 27.89901,-0.2161 55.75846,1.20391 83.58586,3.00502 52.92298,3.41431 57.75154,-71.4301 4.82855,-74.8444 v 0 c -29.78868,-1.91593 -59.61251,-3.40645 -89.47671,-3.1531 -10.11192,0.14702 -20.22651,0.16607 -30.33576,0.44107 -55.25546,1.50307 -110.46072,6.25291 -165.15213,14.24644 -9.61621,1.59864 -19.25673,3.05734 -28.84863,4.79593 -31.07274,5.63211 -61.80161,13.1087 -91.98122,22.40182 18.77126,11.4431 15.91116,9.4977 32.88274,55.56166 1.23054,3.33992 -13.29745,13.97779 -6.15104,8.06205 1.58983,-1.31604 3.21445,-2.58955 4.81081,-3.89767 2.34356,-1.9204 4.67254,-3.85853 7.00881,-5.78779 31.50677,-26.95783 61.70836,-55.3826 92.00386,-83.68271 45.41373,-43.18027 90.21326,-87.07459 132.50345,-133.34665 16.95848,-18.94075 34.80693,-37.76425 46.95403,-60.312384 25.43902,-46.533392 -40.36914,-82.50959 -65.80815,-35.976198 z"/>
<path d="m 583.35785,245.30077 c -0.0453,1.12854 -0.0637,2.66956 -0.33813,3.72646 -0.20812,0.80156 -0.59992,1.54382 -0.89481,2.31767 -0.8725,2.28961 -1.69845,4.59729 -2.60735,6.8727 -5.68683,14.23682 -5.43853,13.127 -12.60813,28.83545 -10.67082,23.37422 -23.54507,45.61198 -37.38245,67.2326 -12.96142,20.25195 -22.90081,34.73885 -37.42799,54.07113 -7.05642,9.39043 -14.45311,18.52027 -21.67966,27.78041 -38.10286,47.43977 -79.53292,92.2326 -123.49821,134.29214 -7.82525,7.48605 -15.84506,14.76606 -23.76759,22.14909 -27.7101,24.13154 -14.29614,12.77978 -40.16145,34.15008 -40.86579,33.8007 6.93562,91.59365 47.80141,57.79295 v 0 c 27.99525,-23.17861 13.46091,-10.84968 43.51219,-37.09362 8.37922,-7.81986 16.86125,-15.53096 25.13764,-23.45956 46.33842,-44.3912 89.99415,-91.66418 130.13671,-141.73323 7.78721,-10.0081 15.76097,-19.8738 23.36163,-30.02431 31.46354,-42.01887 59.98783,-86.52436 82.24924,-134.13121 7.33941,-16.21416 15.2828,-32.50621 19.98799,-49.76066 1.10891,-4.0665 1.8565,-8.22875 2.52267,-12.39076 0.54489,-3.40426 0.56862,-7.14343 0.65629,-10.62733 0,-53.033 -75,-53.033 -75,0 z"/>
<path d="m 567.76,402.24103 c 14.31188,16.71024 27.68735,34.21091 41.25265,51.5274 24.45143,30.78666 49.49634,61.19112 76.38168,89.90203 5.0068,5.34677 10.16094,10.55364 15.24141,15.83046 15.65342,15.78418 31.83855,31.12408 49.49781,44.66823 7.83833,6.01178 9.88051,7.1909 17.76771,12.43003 8.36288,5.45652 17.26755,9.99178 26.66333,13.3745 4.16598,1.49986 9.97352,3.26648 14.13268,4.56972 26.72406,7.633 52.84116,17.14281 79.18286,25.95337 7.3963,2.47386 14.82837,4.83948 22.24256,7.25923 50.41901,16.44457 73.67514,-54.85867 23.25614,-71.30324 v 0 c -7.05094,-2.29818 -14.11981,-4.54204 -21.15281,-6.89453 -26.99366,-9.02921 -53.76245,-18.76018 -81.14352,-26.59627 -7.61857,-2.377 -15.29404,-4.34137 -21.92409,-8.99542 -20.11365,-13.08123 -37.72095,-29.47019 -54.52665,-46.5178 -4.61657,-4.78235 -9.30161,-9.49953 -13.84971,-14.34704 -25.62283,-27.30968 -49.43786,-56.28503 -72.72867,-85.58467 -4.67816,-5.9717 -17.83042,-22.78414 -22.96457,-29.25382 -6.70498,-8.44914 -13.42411,-16.966 -20.56743,-25.05689 -1.22459,-1.38703 -2.52517,-2.70507 -3.78775,-4.05761 -37.54194,-37.45802 -90.51557,15.6343 -52.97363,53.09232 z"/>
<path d="m 539.30863,544.90694 c 1.6369,28.50863 1.69956,57.08953 1.97334,85.63662 0.70387,47.6801 -0.0219,95.35227 -2.30896,142.9794 -1.47397,24.82338 -3.11154,49.80997 -9.46917,73.93818 -1.09992,3.46055 -1.43008,4.86467 -2.75742,7.9493 -0.24308,0.56491 -0.51393,1.12012 -0.82959,1.64792 -0.0366,0.0613 -0.23436,0.13771 -0.20069,0.0748 0.57578,-1.07632 1.01794,-2.26749 1.85097,-3.15971 2.57286,-2.75566 5.52422,-5.13188 8.28632,-7.69781 5.29324,-1.70096 10.58649,-3.40191 15.87973,-5.10286 2.09456,0.0525 4.28301,0.77986 6.28367,0.15753 0.79134,-0.24616 -1.31001,-1.01638 -1.98729,-1.49397 -2.00728,-1.41546 -4.06164,-2.76348 -6.06513,-4.1843 -10.06102,-7.13497 -11.14643,-8.06161 -21.3214,-15.69709 -42.43829,-31.80395 -87.41587,28.21286 -44.97757,60.01681 v 0 c 12.2492,9.16879 25.01579,19.36794 38.43448,26.75091 7.85904,4.32405 20.16206,9.79501 29.23903,9.44907 7.59492,-0.28945 14.82042,-3.37965 22.23063,-5.06947 4.14197,-3.36875 8.63085,-6.35101 12.42593,-10.10625 2.14787,-2.12531 3.64123,-4.83181 5.2534,-7.38743 5.29257,-8.38978 8.01093,-18.19311 10.91529,-27.56053 2.46767,-9.83409 3.02236,-11.35595 4.8611,-21.7491 3.92722,-22.19795 5.52326,-44.7181 6.8621,-67.19347 2.33688,-49.06109 3.12189,-98.16729 2.3911,-147.28257 -0.28974,-30.0931 -0.36762,-60.22182 -2.16132,-90.27135 -3.78685,-52.89764 -78.5954,-47.54222 -74.80855,5.35541 z"/>
<path d="m 420.00113,670.58093 c -0.0916,0.0311 -0.22286,0.0116 -0.27468,0.0932 -10.1259,15.94901 7.80561,-10.99949 -8.59161,14.11059 -9.83789,15.06538 -20.9414,29.10918 -32.05834,43.23594 -9.45209,11.58786 -21.15811,26.30416 -31.31092,37.26478 -5.4196,5.85081 -11.24343,11.31376 -16.86514,16.97063 -37.25268,37.74571 16.12781,90.42895 53.38048,52.68325 v 0 c 6.748,-6.87654 13.71111,-13.54839 20.24399,-20.62962 10.93657,-11.85454 23.31247,-27.41921 33.53073,-39.95912 17.29528,-22.05296 35.29798,-44.70375 48.47572,-69.58682 1.24656,-2.35383 2.3004,-4.80479 3.4506,-7.20719 19.07464,-49.48391 -50.90618,-76.45954 -69.98083,-26.97562 z"/>
<path d="m 671.77625,740.99747 c 12.64768,17.91846 24.66068,36.26735 37.13722,54.30404 8.38119,12.13591 17.38208,23.81193 26.66349,35.26595 33.41989,41.1778 91.65409,-6.08506 58.2342,-47.26286 v 0 c -8.09499,-9.95526 -15.92474,-20.11957 -23.22324,-30.67934 -12.13681,-17.53361 -23.78592,-35.39666 -36.11933,-52.79416 -29.10902,-44.33018 -91.80136,-3.16381 -62.69234,41.16637 z"/>
<path d="m 800.92631,743.47873 c 1.3355,1.39023 2.65638,2.79465 4.00651,4.17068 3.96708,4.04318 4.79739,4.58382 8.45146,8.83634 4.92286,5.7291 9.20766,11.95823 13.57507,18.10808 5.19983,7.31885 10.17507,14.79202 15.14572,22.26694 29.37431,44.15485 91.81868,2.6133 62.44437,-41.54154 v 0 c -5.41517,-8.13679 -10.83743,-16.2702 -16.50208,-24.23695 -9.33273,-13.07088 -18.86487,-26.12162 -30.73272,-37.05409 -34.96681,-39.87258 -91.35514,9.57797 -56.38833,49.45054 z"/>
</svg>
