<?xml version="1.0" ?>
<svg xmlns="http://www.w3.org/2000/svg" width="1000" height="1000">
<path d="m 123.89004,225.22656 c 18.8172,5.37043 36.30753,14.40276 53.86127,22.86876 15.50303,7.23548 30.27584,15.82216 44.99407,24.50037 45.72223,26.86964 83.72164,-37.79136 37.99941,-64.661 v 0 c -16.51441,-9.67722 -33.07167,-19.2859 -50.43242,-27.40251 -20.86954,-10.05088 -41.74501,-20.50375 -64.09718,-26.90581 -50.628986,-15.78626 -72.954129,55.81393 -22.32515,71.60019 z"/>
<path d="m 104.60008,456.88436 c 15.69943,8.98308 30.60606,19.26528 45.52531,29.46772 16.84087,11.13018 33.50093,22.2484 49.75158,34.22951 42.72475,31.41809 87.15663,-29.00383 44.43188,-60.42191 v 0 c -4.04844,-2.97047 -8.05318,-6.00145 -12.14534,-8.91141 -13.02234,-9.26028 -26.51516,-17.81594 -39.71566,-26.81396 -16.85181,-11.51366 -33.71332,-23.08068 -51.48708,-33.14645 -46.383731,-25.71089 -82.744421,39.88561 -36.36069,65.5965 z"/>
<path d="m 169.74111,871.46578 c 12.2317,-22.75634 24.94636,-45.25534 38.44056,-67.29346 5.57847,-9.1105 11.32445,-18.11738 16.98668,-27.17607 27.29829,-43.72958 55.21861,-87.0645 82.90659,-130.54695 28.48463,-44.73395 -34.77872,-85.0173 -63.26335,-40.28336 v 0 c -27.80317,43.66411 -55.83986,87.17995 -83.25085,131.09276 -5.92493,9.48879 -11.93845,18.92283 -17.77479,28.46637 -10.00511,16.36026 -16.86329,28.20961 -26.06182,44.59062 -3.00987,5.36006 -10.80272,19.46071 -14.02693,25.90931 -1.50383,3.00777 -2.84548,6.09393 -4.268219,9.14089 -18.455407,49.71818 51.856729,75.81807 70.312129,26.09989 z"/>
<path d="m 458.24176,231.12347 c 15.7664,-6.30098 32.02072,-11.41077 48.5547,-15.29069 6.34411,-1.48874 12.75536,-2.67531 19.13304,-4.01297 40.94746,-6.84906 82.51692,-9.51646 123.99795,-10.07727 7.68747,-0.10393 15.37635,-0.005 23.06452,-0.007 15.84449,0.003 31.65216,0.94381 47.44109,2.14161 52.88534,3.95484 58.47832,-70.83633 5.59298,-74.79117 v 0 c -17.67272,-1.30516 -35.36408,-2.36076 -53.09641,-2.35041 -8.31845,0.0109 -16.63776,-0.0872 -24.95535,0.0327 -46.05555,0.66362 -92.20686,3.76588 -137.62004,11.68691 -7.60647,1.63116 -15.2517,3.09108 -22.81943,4.89348 -18.51884,4.41061 -36.77216,10.11443 -54.46825,17.12661 -49.95602,17.80155 -24.78082,88.45004 25.1752,70.64849 z"/>
<path d="m 551.69242,95.950158 c 0.0814,26.518982 -0.013,53.034322 -0.41503,79.550382 -1.7676,53.57159 -1.47439,107.16916 -1.59946,160.75954 -0.42571,30.46298 -0.10723,15.79174 -0.90733,44.01474 -1.49287,53.01199 73.47741,55.12322 74.97027,2.11123 v 0 c 0.82779,-29.58271 0.50063,-14.2658 0.93686,-45.95168 0.12328,-53.27208 -0.16995,-106.5511 1.59115,-159.80447 0.40234,-26.89255 0.50953,-53.78427 0.42354,-80.679742 0,-53.033008 -75,-53.033008 -75,0 z"/>
<path d="m 511.83776,333.52163 c 17.65834,-4.75278 35.91774,-6.40565 54.05605,-8.16977 24.44221,-1.83003 49.09616,-2.11156 73.53574,0.014 3.53525,0.30746 7.05489,0.77369 10.58233,1.16054 3.0223,0.42353 6.04459,0.84706 9.06688,1.27059 52.53414,7.25706 62.79718,-67.03742 10.26305,-74.29449 v 0 c -3.78938,-0.51743 -7.57877,-1.03487 -11.36815,-1.5523 -4.53346,-0.47374 -9.05817,-1.04043 -13.60038,-1.42122 -28.52764,-2.3916 -57.28694,-2.04316 -85.80672,0.18171 -24.3238,2.40726 -48.91333,4.81949 -72.30892,12.3081 -49.85307,18.08788 -24.27295,88.59077 25.58012,70.50289 z"/>
<path d="m 346.16312,485.71059 c 1.82352,-0.2399 3.65952,-0.39888 5.47055,-0.71972 9.07376,-1.60751 17.97386,-4.23839 26.90362,-6.46049 15.09831,-3.7571 12.75335,-3.10855 29.32451,-6.72026 41.7269,-8.40258 83.91602,-14.5492 126.32405,-18.23402 10.25706,-0.89123 20.53552,-1.51622 30.80329,-2.27433 51.1465,-3.16057 102.41727,-4.1799 153.65114,-3.25855 9.06979,0.1631 18.13642,0.46988 27.20463,0.70482 34.72077,1.41203 69.57306,2.27176 104.13364,6.19944 4.56076,0.51832 9.09723,1.23166 13.64585,1.84749 3.63553,0.65092 7.27105,1.30184 10.90658,1.95276 52.23005,9.19357 65.23173,-64.67088 13.00168,-73.86445 v 0 c -4.66361,-0.8099 -9.32722,-1.61981 -13.99083,-2.42971 -5.48843,-0.72315 -10.96407,-1.55095 -16.46527,-2.16945 -36.28075,-4.07903 -72.85371,-5.06271 -109.30136,-6.51123 -9.45196,-0.24188 -18.90232,-0.55816 -28.3559,-0.72563 -53.34643,-0.945 -106.7311,0.13944 -159.98443,3.46046 -10.92626,0.81577 -21.86401,1.49006 -32.77878,2.44732 -45.25994,3.96946 -90.28602,10.56341 -134.81157,19.58539 -6.02659,1.32103 -12.06681,2.58134 -18.07977,3.96308 -9.12406,2.09667 -15.33371,3.77712 -24.15299,6.00935 -2.40848,0.6096 -6.43873,1.47856 -9.18805,2.41766 -52.8775,4.05838 -47.13809,78.83845 5.73941,74.78007 z"/>
<path d="m 435.46858,544.42733 c 3.10127,19.62034 4.51246,39.43453 5.69615,59.24447 2.09743,45.58189 1.32834,91.22448 -0.46464,136.79826 -2.03174,42.87423 -6.03303,85.61661 -9.54672,128.38524 -0.35178,4.49277 -0.70356,8.98554 -1.05534,13.47831 -4.13869,52.87127 70.63257,58.72426 74.77127,5.85299 v 0 c 0.34409,-4.39698 0.68819,-8.79396 1.03229,-13.19094 3.60066,-43.83634 7.69481,-87.64651 9.74116,-131.5932 1.87075,-48.06051 2.66811,-96.19444 0.38507,-144.26033 -1.42116,-23.22863 -3.08908,-46.49101 -7.02209,-69.45548 -10.42323,-51.99862 -83.96038,-37.25794 -73.53715,14.74068 z"/>
<path d="m 525.89083,581.63503 c 12.89766,-4.61371 26.21778,-7.95487 39.46745,-11.38241 21.34317,-5.52783 42.86429,-10.52269 64.74111,-13.42939 3.46059,-0.4598 6.93806,-0.78218 10.40709,-1.17326 13.16207,-1.37416 26.39473,-1.01452 39.52437,0.41959 3.33744,0.43239 6.68543,0.80413 10.01579,1.29111 0.15993,0.0234 -0.32425,-0.0125 -0.48299,-0.043 -0.86327,-0.16542 -1.72013,-0.36268 -2.58019,-0.54402 -7.71341,-2.11749 -13.20687,-6.56104 -18.24084,-12.63852 -1.08011,-1.30401 -1.72981,-2.91327 -2.67133,-4.3206 -0.0867,-0.12967 -0.40368,-0.4125 -0.39114,-0.257 0.10359,1.28507 0.45159,2.53862 0.67738,3.80793 3.99176,25.80692 4.60262,52.00693 5.42983,78.06391 1.29728,42.00082 0.5636,84.01673 -0.84476,126.00154 -1.14151,36.07348 -4.07815,72.05971 -8.34423,107.89017 -2.0334,15.41065 -4.17442,30.82013 -7.30551,46.05136 -1.25476,4.83175 0.63439,-2.52578 0.97326,-3.03027 3.40146,-5.06403 6.1762,-11.13936 11.36829,-14.34195 6.74735,-4.16189 15.0635,-5.04612 22.80835,-6.73887 1.72364,-0.37672 4.89501,2.33101 5.25835,0.6045 0.372,-1.76769 -3.26479,-1.54715 -4.89718,-2.32072 -12.89581,-6.20183 -25.63965,-12.74182 -38.82836,-18.31857 -6.62433,-2.80105 -13.36512,-5.3183 -20.04768,-7.97744 -49.31484,-19.50762 -76.90277,50.23409 -27.58794,69.7417 v 0 c 5.56979,2.18755 11.19273,4.24434 16.70937,6.56266 13.06722,5.49136 25.63844,12.05661 38.43043,18.13705 5.69316,2.57244 17.57886,8.45068 23.22071,8.17013 9.44562,-0.46969 19.35071,-1.75169 27.67865,-6.23341 11.18797,-6.02085 15.77856,-18.0107 18.39069,-29.21688 3.52577,-17.288 6.04755,-34.75657 8.30599,-52.25109 4.48815,-37.93589 7.62741,-76.02969 8.82488,-114.22095 1.45515,-43.61837 2.20409,-87.26902 0.84845,-130.90342 -0.97288,-30.28125 -1.76804,-60.7428 -6.90626,-90.66631 -1.3294,-6.18112 -2.27905,-11.99105 -4.73903,-17.87144 -5.44534,-13.01665 -14.13494,-21.52959 -27.62245,-25.86805 -6.42189,-1.56156 -12.92844,-2.4615 -19.50478,-3.13752 -18.62635,-1.94983 -37.3932,-2.3696 -56.04693,-0.34965 -4.36591,0.51081 -8.74195,0.94144 -13.09773,1.53244 -24.41494,3.31266 -48.46269,8.79657 -72.29252,14.97756 -18.88654,4.90448 -38.15772,9.42394 -55.88133,17.77387 -46.81695,24.9133 -11.58422,91.12247 35.23274,66.20917 z"/>
<path d="m 512.65322,690.42568 c 15.10708,-1.83807 30.24841,-3.3764 45.39933,-4.81052 15.85208,-1.48981 31.72489,-2.79536 47.65468,-2.72097 53.03295,0.0792 53.14491,-74.92074 0.11196,-74.99991 v 0 c -18.32947,0.0144 -36.60439,1.25116 -54.84343,3.0555 -15.0493,1.42815 -30.09637,2.91158 -45.09757,4.78253 -52.81619,4.79068 -46.04115,79.48404 6.77503,74.69337 z"/>
<path d="m 506.51301,794.17418 c 0.58711,-0.2714 1.14459,-0.61934 1.76135,-0.81421 0.39188,-0.12382 -0.82461,0.27477 -1.07805,0.59831 -0.10334,0.13192 0.30352,0.19289 0.47039,0.17743 1.53082,-0.14183 3.04311,-0.44049 4.56694,-0.64415 7.89936,-1.05575 7.48679,-0.95842 16.07217,-1.91761 13.22634,-1.22461 26.4683,-2.80454 39.77184,-2.81323 7.83688,-0.005 10.32326,0.31328 18.02425,0.87392 2.45926,0.29121 4.91853,0.58241 7.37779,0.87362 52.69612,5.9682 61.13643,-68.55536 8.44031,-74.52356 v 0 c -3.57701,-0.39245 -7.15402,-0.78489 -10.73102,-1.17734 -11.213,-0.72389 -13.91296,-1.09319 -25.33374,-1.01371 -15.3601,0.1069 -30.65446,1.77013 -45.92461,3.24939 -14.92168,1.68523 -30.50345,2.65975 -44.39523,8.82749 -48.29797,21.90448 -17.32036,90.20812 30.97761,68.30365 z"/>
</svg>
