<?xml version="1.0" ?>
<svg xmlns="http://www.w3.org/2000/svg" viewBox="0 0 1000 1000">
<path d="m 107.24981,210.65163 c 17.85691,10.70553 33.96903,23.96158 49.98564,37.17955 11.93201,9.77209 22.81458,20.67653 33.57064,31.69474 37.11939,37.87678 90.68526,-14.61796 53.56587,-52.49475 v 0 c -12.65649,-12.87324 -25.443,-25.63127 -39.43878,-37.07854 -19.56331,-16.10166 -39.34694,-32.14277 -61.32237,-44.89733 -46.383605,-25.71111 -82.744607,39.88522 -36.361,65.59633 z"/>
<path d="m 93.095726,420.86046 c 14.682194,9.48986 29.009484,19.53118 43.301234,29.59734 11.62069,8.60429 22.98855,17.54186 34.43787,26.37109 41.99618,32.3855 87.79619,-27.00608 45.8,-59.39157 v 0 c -12.31161,-9.49409 -24.52924,-19.11385 -37.0678,-28.30933 -15.17689,-10.67692 -30.38552,-21.33491 -45.97873,-31.39717 -44.639391,-28.63258 -85.131968,34.49706 -40.492574,63.12964 z"/>
<path d="m 147.24975,887.28393 c 14.47855,-39.13557 31.17823,-77.39535 47.42214,-115.81642 19.01265,-43.03494 20.17668,-47.12901 42.1624,-90.54691 8.09591,-15.98799 16.66751,-31.73061 25.00126,-47.59592 24.64684,-46.95778 -41.76149,-81.81367 -66.40833,-34.85589 v 0 c -8.676,16.54212 -17.60396,32.95452 -26.02801,49.62636 -22.79333,45.10973 -24.21953,49.80635 -43.80709,94.16646 -2.62952,6.21952 -24.74037,58.45901 -28.509048,67.57712 -5.94811,14.39108 -10.66074,26.26998 -16.05749,40.53992 -1.52422,4.0303 -3.08094,8.05033 -4.47129,12.12874 -0.91164,2.67418 -1.62098,5.41311 -2.431465,8.11966 -11.778191,51.70855 61.348733,68.36543 73.126923,16.65688 z"/>
<path d="m 448.05086,115.39498 c -0.29469,26.92109 0.46759,53.82387 2.47941,80.67425 0.70526,9.41264 1.62002,18.80841 2.43003,28.21262 5.38031,53.113 11.64917,106.1417 19.04062,159.01281 0.85806,5.72305 1.71611,11.44611 2.57417,17.16916 7.86891,52.44597 82.03872,41.31765 74.1698,-11.12833 v 0 c -0.82242,-5.47729 -1.64485,-10.95457 -2.46728,-16.43186 -7.21875,-51.56452 -13.31542,-103.286 -18.59624,-155.08411 -0.76704,-8.83063 -1.62833,-17.65359 -2.30114,-26.4919 -1.92378,-25.27179 -2.61928,-50.59257 -2.32937,-75.93264 0,-53.033013 -75,-53.033013 -75,0 z"/>
<path d="m 624.29385,129.78092 c -0.31647,-0.44736 -0.81311,-1.87284 -0.94941,-1.34208 -0.20715,0.80662 0.47857,1.59613 0.67643,2.40509 0.458,1.87262 0.92876,3.74405 1.29065,5.6376 0.60328,3.15656 1.17957,6.32119 1.60371,9.50677 1.69266,12.71317 1.57582,16.60349 2.28396,30.28786 0.0845,7.17501 0.32751,14.34991 0.25344,21.52503 -0.19409,18.80163 -1.07359,31.84097 -2.45905,50.76546 -1.06229,14.51017 -3.55107,43.93172 -4.99408,58.21542 -0.97276,9.62881 -2.14481,19.23645 -3.21721,28.85467 -4.05575,25.32402 -3.75244,26.8015 -9.6929,51.14878 -1.74915,7.16898 -3.84287,14.24948 -5.7643,21.37421 -13.71655,51.22848 58.73145,70.6266 72.448,19.39813 v 0 c 2.19395,-8.2454 4.59461,-16.43855 6.58186,-24.73619 6.68813,-27.92583 6.45979,-30.22732 10.96766,-58.89392 1.12328,-10.12197 2.34815,-20.23318 3.36982,-30.36591 1.46337,-14.5135 4.08961,-45.49739 5.14605,-60.17421 1.51733,-21.07988 2.45076,-35.58789 2.60751,-56.58438 0.0614,-8.22373 -0.24084,-16.44615 -0.36127,-24.66923 -0.41919,-7.20616 -0.64679,-14.42602 -1.25757,-21.61847 -0.92228,-10.86064 -2.46495,-21.83215 -4.82122,-32.48728 -1.46373,-6.61903 -3.57945,-14.05234 -6.27146,-20.375864 -1.05638,-2.481415 -2.40381,-4.828571 -3.60571,-7.242857 -27.83976,-45.138096 -91.67467,-5.766727 -63.83491,39.371371 z"/>
<path d="m 402.428,303.2676 c 20.97763,-6.72764 42.27927,-12.50481 63.73056,-17.51931 7.95886,-1.86047 15.96326,-3.52043 23.94489,-5.28065 40.01862,-7.94674 80.5289,-13.7613 121.25385,-16.50339 26.53282,-1.78651 33.07366,-1.4156 59.28432,-1.53247 28.3432,0.35779 56.64308,2.94205 84.54306,7.9555 9.74448,1.75103 12.91559,2.62359 21.96929,4.78461 51.61241,12.19256 68.85529,-60.79842 17.24287,-72.99098 v 0 c -11.41761,-2.67513 -15.09194,-3.6811 -27.30038,-5.84165 -31.9768,-5.65898 -64.40385,-8.54652 -96.87339,-8.90631 -10.65234,0.0702 -21.30857,-0.0859 -31.957,0.21071 -55.23024,1.53831 -110.21168,8.80677 -164.35566,19.59294 -8.64123,1.91548 -17.3062,3.72684 -25.92369,5.74642 -22.88828,5.36407 -45.60925,11.55866 -67.99997,18.72069 -50.60331,15.86836 -28.16207,87.43225 22.44125,71.56389 z"/>
<path d="m 333.68414,492.08043 c 26.97457,-6.20974 54.19946,-11.2687 81.39837,-16.37906 55.01674,-9.99516 110.69226,-16.02255 166.52791,-18.80699 12.55534,-0.62612 25.12402,-0.94745 37.68603,-1.42118 46.12141,-1.06811 92.32945,-0.8753 138.36796,2.38975 23.97312,1.70017 29.99497,2.67029 53.17085,5.40802 22.37074,2.72851 44.44165,7.20769 66.29621,12.62186 51.49507,12.67902 69.42592,-60.146 17.93085,-72.82503 v 0 c -24.89206,-6.0971 -50.01098,-11.21697 -75.48048,-14.28507 -25.27419,-2.9514 -31.64828,-3.9767 -57.73556,-5.8031 -48.38,-3.38715 -96.934,-3.60819 -145.3985,-2.45231 -13.17366,0.50448 -26.35449,0.8476 -39.52098,1.51344 -58.91197,2.97924 -117.65132,9.38964 -175.69773,19.95116 -28.94074,5.44095 -57.92006,10.80103 -86.59185,17.54738 -51.29432,13.46821 -32.2474,86.00934 19.04692,72.54113 z"/>
<path d="m 457.17656,435.23359 c 0.0657,-0.31714 0.41021,-1.1952 0.197,-0.95142 -1.1562,1.32196 -2.06696,2.83994 -3.09444,4.26425 -2.17433,3.01411 -4.29441,6.06781 -6.51098,9.051 -2.85026,3.83604 -5.73869,7.64448 -8.6881,11.40482 -10.66745,13.60041 -12.6351,15.62238 -24.32029,29.37276 -32.67762,37.62133 -69.65288,71.09195 -105.96488,105.09561 -5.63416,5.73847 -11.26831,11.47694 -16.90247,17.21541 -37.09896,37.89679 16.49519,90.36265 53.59416,52.46586 v 0 c 4.85802,-4.97935 9.71604,-9.95869 14.57407,-14.93804 12.24188,-11.46481 24.62999,-22.7734 36.82417,-34.28895 26.06711,-24.6164 51.42219,-50.0492 75.05997,-77.02284 4.87545,-5.75276 9.82532,-11.44326 14.62635,-17.25826 7.64651,-9.26145 14.94059,-18.62378 22.09024,-28.26262 1.85861,-2.50571 10.86133,-15.04716 12.84982,-18.22272 1.58129,-2.52528 2.90171,-5.20482 4.35256,-7.80722 21.29639,-48.56917 -47.39079,-78.68681 -68.68718,-30.11764 z"/>
<path d="m 611.89607,466.75843 c 1.00002,1.6058 1.92779,3.25892 3.00007,4.8174 3.67891,5.34705 8.23856,11.13937 12.24102,16.19542 9.83042,12.41816 20.12762,24.38535 30.52727,36.32779 23.69553,26.89624 49.1341,52.19067 75.72102,76.2116 14.48918,12.83091 29.74789,24.76028 45.43435,36.08466 16.41994,10.86589 33.81148,20.21284 51.00993,29.77765 13.36338,7.45167 26.78253,14.80256 40.19549,22.16437 46.49086,25.51666 82.57687,-40.23134 36.08601,-65.74801 v 0 c -13.29121,-7.29487 -26.58871,-14.57864 -39.83065,-21.9628 -14.65285,-8.14801 -29.41988,-16.16508 -43.61926,-25.08284 -13.48444,-9.69037 -26.56646,-19.95145 -39.03752,-30.92062 -24.39529,-21.97099 -47.66773,-45.18758 -69.41481,-69.79584 -12.7413,-14.61171 -25.46835,-29.28902 -36.97999,-44.90095 -26.04427,-46.19735 -91.3772,-9.36519 -65.33293,36.83217 z"/>
<path d="m 466.22712,613.81834 c 19.20452,-1.72962 38.34986,-4.03483 57.48484,-6.39962 32.11327,-4.10438 64.2188,-8.29582 96.40983,-11.75022 16.17723,-1.71583 32.39871,-3.01387 48.65224,-3.70819 0.78397,-0.003 1.56794,-0.006 2.35191,-0.008 0.0946,0.0271 0.38176,0.0885 0.28366,0.0814 -14.76378,-1.07673 -22.16791,-8.44075 -29.84398,-21.63542 -2.03005,-3.48953 -1.68072,-7.89727 -2.52109,-11.84591 -0.0844,-0.32379 -0.13583,-1.28473 -0.25323,-0.97139 -0.59266,1.58183 -0.79753,3.28311 -1.22516,4.91729 -0.69696,2.66341 -1.43835,5.315 -2.14845,7.97493 -3.38666,12.68581 -6.53971,25.40866 -9.57739,38.18247 -3.95936,17.63458 -8.20869,35.25967 -14.56721,52.20985 -3.38717,9.02931 -4.94532,12.06949 -8.86184,20.64871 -1.34837,2.69425 -2.69674,5.3885 -4.04512,8.08275 -23.60408,47.49049 43.55762,80.87172 67.1617,33.38122 v 0 c 1.73868,-3.51677 3.47736,-7.03355 5.21604,-10.55033 5.15934,-11.48389 6.99863,-15.07272 11.45675,-27.18438 7.09772,-19.28286 12.14013,-39.22491 16.6095,-59.25562 2.86874,-12.09293 5.8726,-24.12749 9.06175,-36.13964 1.30779,-4.92592 3.81062,-13.87808 4.74788,-19.06273 0.61044,-3.37676 0.93147,-6.79949 1.3972,-10.19924 -0.79434,-5.64517 0.0901,-11.79909 -2.38301,-16.93552 -3.56418,-7.40256 -8.93708,-14.06108 -15.13689,-19.45216 -8.00442,-6.96029 -20.9071,-7.34246 -30.95758,-7.16814 -17.84967,0.77735 -35.66658,2.17305 -53.43265,4.0679 -32.58607,3.5077 -65.09019,7.71982 -97.59727,11.88743 -17.45875,2.15934 -34.92584,4.22236 -52.43337,5.94786 -52.95172,2.93516 -48.80078,77.82021 4.15094,74.88505 z"/>
<path d="m 497.44079,727.3326 c 15.80378,-4.24142 32.03492,-6.63415 48.20326,-8.99408 23.07425,-3.34436 46.3889,-3.62376 69.63546,-2.65585 9.25286,0.63042 4.86936,0.28843 13.15247,1.0005 52.843,4.48531 59.18618,-70.24597 6.34319,-74.73128 v 0 c -10.30589,-0.8657 -4.81538,-0.45029 -16.47436,-1.20834 -27.89393,-1.09412 -55.86465,-0.66004 -83.54147,3.38902 -18.86159,2.77873 -37.77427,5.6593 -56.21075,10.61845 -51.32292,13.3588 -32.43072,85.94038 18.8922,72.58158 z"/>
<path d="m 448.05086,708.35299 c 0.17338,14.96337 -0.21589,29.91624 -0.72263,44.86926 -1.05978,24.63182 -1.17886,49.28913 -0.17055,73.92139 0.81466,15.96173 3.66135,31.74845 11.00409,46.10283 4.75754,9.30054 7.74543,12.33854 14.03817,20.32863 12.1699,13.66285 27.69567,23.7193 44.87901,29.94809 12.58513,4.56198 17.17081,4.92653 30.25971,7.47573 30.28136,4.6819 60.94651,2.63286 91.34394,0.52915 21.61682,-1.76783 43.23589,-3.45314 64.87844,-4.86972 8.30473,-0.79564 16.87881,-0.53618 25.03214,-2.58642 2.99938,-0.75423 6.10105,-1.34206 8.87184,-2.71605 4.67856,-2.32002 8.86699,-5.51924 13.30048,-8.27886 3.69096,-4.94063 8.13362,-9.4003 11.07287,-14.82191 4.40236,-8.12039 6.13826,-20.56128 7.77982,-29.46954 5.6452,-30.63471 0.75318,-5.69188 7.75188,-40.21396 10.518,-51.97953 -62.99216,-66.85423 -73.51016,-14.87469 v 0 c -4.61411,22.84309 -4.41543,21.01636 -8.06046,41.82996 -0.49111,2.80427 -1.37059,5.58197 -1.37826,8.42891 -0.002,0.60768 0.90588,-0.81025 1.35882,-1.21537 2.35192,-2.44999 4.70384,-4.89998 7.05575,-7.34996 7.69004,-3.91033 6.11117,-4.08577 11.90161,-5.02753 0.2762,-0.0449 -0.52583,0.20275 -0.80192,0.24832 -5.04422,0.83244 -10.19966,0.69968 -15.27292,1.20724 -21.74117,1.42304 -43.45974,3.10491 -65.17434,4.88967 -24.13312,1.68111 -48.47894,3.64108 -72.58432,0.52772 -5.46041,-0.89731 -9.82872,-1.40101 -15.05991,-2.97722 -3.36512,-1.01394 -6.70113,-2.50805 -9.8423,-4.08461 -0.96803,-0.48585 -1.96688,-0.93414 -2.84869,-1.56306 -1.05605,-0.7532 -1.95421,-1.70624 -2.93131,-2.55935 -1.15911,-1.24538 -4.42944,-4.30186 -5.247,-5.92644 -2.47841,-4.92492 -2.20906,-10.82647 -2.88252,-16.11628 -0.97565,-22.74323 -0.76335,-45.51296 0.19338,-68.25587 0.53146,-15.79625 0.93883,-31.59311 0.76534,-47.40006 0,-53.03301 -75,-53.03301 -75,0 z"/>
</svg>
