<?xml version="1.0" ?>
<svg xmlns="http://www.w3.org/2000/svg" viewBox="0 0 1000 1000">
<path d="m 98.711573,245.3757 c 18.620857,3.96616 36.531517,10.61208 54.245027,17.46318 18.68422,7.93288 9.07614,3.82265 28.82013,12.34026 48.69616,21.00438 78.40084,-47.86239 29.70468,-68.86677 v 0 c -20.98499,-9.0502 -10.45556,-4.56006 -31.58868,-13.46953 -23.59457,-9.04104 -47.56261,-17.90961 -72.60324,-21.97499 -52.685001,-6.0655 -61.26292,68.44235 -8.577917,74.50785 z"/>
<path d="m 85.848013,465.33645 c 22.128067,6.59743 44.096127,13.64283 65.850197,21.38901 4.21488,1.59955 8.42976,3.1991 12.64464,4.79866 49.59359,18.78764 76.16334,-51.34828 26.56974,-70.13593 v 0 c -4.69706,-1.77658 -9.39413,-3.55316 -14.09119,-5.32974 -22.24279,-7.89624 -44.66757,-15.20302 -67.30404,-21.88914 -50.322763,-16.73676 -73.992118,54.43037 -23.669347,71.16714 z"/>
<path d="m 131.25043,891.49908 c 21.72939,-28.45325 39.99944,-59.40253 58.5644,-89.95618 20.29056,-33.42539 39.43294,-67.54141 59.8576,-100.88623 6.74121,-11.00555 13.75159,-21.84394 20.62738,-32.76591 28.24138,-44.88792 -35.23972,-84.82725 -63.48109,-39.93934 v 0 c -7.18735,11.43052 -14.51012,22.77701 -21.56205,34.29157 -20.31696,33.17406 -39.3708,67.10763 -59.54526,100.36724 -15.53008,25.58279 -15.28273,25.56194 -30.417287,49.15353 -7.7863,12.1372 -15.67436,24.25412 -24.651881,35.55787 -31.238171,42.85647 29.370018,87.03391 60.608188,44.17745 z"/>
<path d="m 307.1527,240.24382 c -0.31786,-0.6623 -0.29172,-1.66812 -0.95358,-1.9869 -0.50189,-0.24174 0.17114,1.10091 0.25691,1.65134 0.25248,1.62049 0.54571,3.23514 0.75782,4.86141 1.60224,12.28454 2.50214,24.67382 3.57637,37.00949 2.48849,32.55855 4.75199,65.15406 5.67584,97.80134 0.78017,27.57029 0.51763,35.45788 0.40937,63.43951 -0.826,45.13841 -1.39582,90.31451 -4.41107,135.375 -1.793,26.79496 -2.564,31.80269 -5.31058,57.73541 -2.77645,19.95051 -3.16796,25.40592 -7.11875,44.3959 -1.13457,5.45345 -2.56309,10.84159 -3.84463,16.26239 -12.06775,51.64174 60.96471,68.70811 73.03245,17.06636 v 0 c 1.52658,-6.59605 3.22303,-13.15508 4.57973,-19.78815 4.39126,-21.46939 4.87599,-27.81914 7.93772,-50.07195 2.90753,-27.68981 3.71712,-32.96442 5.61126,-61.48814 3.07726,-46.34025 3.69738,-92.79646 4.52338,-139.21625 0.0384,-11.43069 0.19561,-22.8616 0.11517,-34.29207 -0.31421,-44.64893 -2.95018,-89.23744 -6.48352,-133.73584 -0.84902,-9.72051 -1.81226,-21.51293 -2.89861,-31.36413 -1.03148,-9.35366 -2.10401,-18.97605 -4.82913,-28.03231 -0.72572,-2.41173 -1.70411,-4.74008 -2.55616,-7.11013 -22.26518,-48.13275 -90.33517,-16.64503 -68.06999,31.48772 z"/>
<path d="m 452.53706,217.47889 c 17.43824,-3.10978 34.85158,-6.33445 52.33107,-9.21297 22.47444,-3.84886 45.19307,-5.85976 67.93568,-7.22137 5.833,-0.1549 11.67971,-0.73539 17.52138,-0.60889 0.42169,0.009 -0.84354,0.008 -1.26531,0.0113 -9.27695,-1.41056 -11.92263,-1.0416 -21.39303,-8.9357 -3.59403,-2.99583 -5.8115,-7.35251 -8.35073,-11.28244 -0.79295,-1.22725 -0.89307,-2.79926 -1.58077,-4.08843 -0.15575,-0.29197 -0.0813,0.65935 -0.072,0.99014 0.0446,1.59114 0.15571,3.17972 0.23357,4.76959 0.34846,31.0212 0.37967,62.04503 0.74551,93.06741 0.96501,55.88155 0.66939,111.76864 0.26323,167.65318 -0.46752,61.77495 0.15036,123.55037 0.52703,185.32398 -0.0486,25.14277 0.12423,50.306 -0.8472,75.4369 -0.28547,7.3852 -0.78941,14.76033 -1.18411,22.1405 -2.79643,52.95923 72.09923,56.91398 74.89566,3.95475 v 0 c 0.422,-8.08673 0.95701,-16.16835 1.266,-24.26018 0.9888,-25.89497 0.8239,-51.82229 0.86826,-77.72929 -0.37466,-61.43953 -0.99097,-122.88086 -0.52762,-184.32172 0.40944,-56.36131 0.70373,-112.72522 -0.26647,-169.08352 -0.38049,-32.19041 -0.31237,-64.38523 -0.86884,-96.57127 -0.48964,-7.64347 -0.8977,-19.73001 -4.39925,-26.55118 -2.64368,-5.15001 -5.41455,-10.50509 -9.6801,-14.41875 -10.10749,-9.27366 -14.1992,-9.00251 -24.95654,-10.94827 -8.48259,-0.33471 -16.96403,0.15877 -25.43711,0.58749 -25.31751,1.53263 -50.60461,3.81343 -75.62563,8.08439 -16.9407,2.79506 -33.83631,5.82418 -50.71597,8.96478 -52.50235,7.48351 -41.91907,81.73305 10.58328,74.24954 z"/>
<path d="m 393.10328,383.05198 c 16.14159,-1.48598 32.16767,-3.99091 48.27919,-5.77758 16.41627,-1.62411 32.94321,-1.98492 49.36571,-0.38394 52.80272,4.93686 59.78449,-69.73747 6.98176,-74.67432 v 0 c -6.78677,-0.61636 -9.63764,-0.95791 -16.78844,-1.20754 -15.96808,-0.55745 -31.97209,0.22627 -47.86854,1.72754 -14.80914,1.65861 -29.55837,3.78005 -44.36397,5.44468 -52.94191,3.10724 -48.54761,77.9784 4.39429,74.87116 z"/>
<path d="m 405.9619,532.88054 c 0.64326,-0.22152 1.29161,-0.42877 1.92978,-0.66456 3.88105,-1.43393 7.70315,-3.00376 11.6578,-4.23643 7.32726,-2.28392 14.83595,-3.58858 22.38201,-4.88749 15.96776,-2.29338 32.12181,-2.1298 48.18084,-1.17054 52.94356,3.07883 57.29769,-71.79467 4.35413,-74.87351 v 0 c -21.89463,-1.24629 -43.91448,-1.22132 -65.63838,2.19758 -10.08135,1.82637 -13.49319,2.24481 -23.40227,4.83489 -9.88844,2.5847 -19.44236,6.13584 -28.952,9.84027 -48.76193,20.85123 -19.27385,89.81102 29.48809,68.95979 z"/>
<path d="m 357.66844,721.70668 c 14.99544,-2.02309 29.95657,-4.28311 44.96067,-6.25683 27.96502,-3.53605 56.04374,-6.44536 84.221,-7.57433 5.81288,-0.2329 11.63138,-0.29344 17.44707,-0.44016 22.33723,-0.3528 44.59472,1.57167 66.77762,3.93813 52.73558,5.60881 60.66763,-68.97056 7.93206,-74.57937 v 0 c -25.46749,-2.70117 -51.02712,-4.79758 -76.66756,-4.3332 -6.53268,0.17575 -13.06852,0.25886 -19.59806,0.52724 -30.0776,1.23625 -60.05247,4.32226 -89.90478,8.10374 -16.07779,2.11966 -32.11385,4.50613 -48.17353,6.75101 -52.22958,9.19629 -39.22406,83.06006 13.00551,73.86377 z"/>
<path d="m 358.07039,754.10218 c 0.48716,-0.7819 2.2332,-2.84879 1.46146,-2.3457 -1.36908,0.8925 -2.25394,2.36761 -3.35195,3.57811 -2.19632,2.42131 -4.33092,4.89817 -6.5304,7.31661 -2.24411,2.46751 -17.14762,18.51696 -18.2774,19.76556 -3.91711,4.32905 -7.74989,8.73365 -11.62483,13.10048 -16.29384,18.68509 -32.04674,37.82996 -47.74236,57.01688 -33.57719,41.04963 24.47576,88.53495 58.05295,47.48532 v 0 c 15.06565,-18.42011 30.18408,-36.80153 45.81202,-54.7503 11.57459,-13.07087 23.44613,-25.86455 35.17312,-38.79709 1.52811,-1.68521 3.16866,-3.26926 4.64424,-5.00066 1.94721,-2.28479 3.74468,-4.69307 5.61703,-7.0396 28.51734,-44.7131 -34.71654,-85.04271 -63.23388,-40.32961 z"/>
<path d="m 494.40835,838.40346 c 12.16935,8.34485 22.58593,18.82021 32.92612,29.26208 9.94913,10.08253 19.03316,20.94855 27.12578,32.56483 30.52501,43.36731 91.85565,0.19842 61.33063,-43.16889 v 0 c -10.61977,-14.98473 -22.26113,-29.19778 -35.22843,-42.23326 -12.9474,-13.01656 -26.098,-25.94917 -41.21839,-36.47292 -42.46045,-31.77435 -87.39617,28.2738 -44.93571,60.04816 z"/>
<path d="m 690.96605,317.91378 c 0.84609,21.32244 1.68285,42.64255 2.21577,63.97591 0.57405,44.1478 -0.94768,88.2859 -1.68423,132.42307 -0.49423,24.75392 -0.62921,49.51269 -0.7218,74.27068 -0.19783,53.03264 74.80165,53.31242 74.99948,0.27978 v 0 c 0.0909,-24.43464 0.22271,-48.87006 0.71191,-73.30066 0.75203,-45.18118 2.31733,-90.36376 1.67099,-135.55586 -0.55013,-21.7941 -1.3975,-43.57492 -2.26322,-65.35798 -2.30875,-52.98273 -77.23765,-49.71767 -74.9289,3.26506 z"/>
<path d="m 834.64303,173.83652 c 2.49808,21.89893 3.01441,43.95933 3.52666,65.97394 0.69374,53.4812 1.3141,106.96405 1.35148,160.45008 -0.23339,66.76535 -1.82135,133.5112 -3.7713,200.24471 -1.40752,41.45995 -2.41248,82.93944 -4.65725,124.36637 -1.31414,24.25226 -1.66395,27.18327 -3.46522,50.74379 -3.05934,28.64674 -5.2285,57.73735 -12.84122,85.63756 -0.46789,1.17178 -0.68592,2.47763 -1.40367,3.51534 -0.40383,0.58386 -0.0177,-1.52713 0.41682,-2.08856 3.05181,-3.94363 5.66659,-8.57092 9.88718,-11.22653 4.83334,-3.04114 10.912,-3.37912 16.30587,-5.25419 0.57956,-0.20148 2.02779,-0.55106 1.5705,-0.96016 -2.16989,-1.94123 -5.03401,-2.92676 -7.55102,-4.39014 -22.92188,-13.83189 -45.61718,-28.03332 -68.46637,-41.98539 -45.26297,-27.63627 -84.34656,36.37524 -39.08359,64.01151 v 0 c 23.8829,14.58113 47.56726,29.48719 71.61094,43.80235 8.90038,4.70174 23.71473,13.63856 34.01465,14.10408 9.54655,0.43147 19.59763,-0.23449 28.39223,-3.97318 12.15669,-5.16795 18.6501,-15.70592 23.51467,-26.76207 1.36697,-3.10684 2.20195,-6.42151 3.30292,-9.63227 0.92967,-3.59173 1.95832,-7.15929 2.78901,-10.77519 6.66172,-28.99786 9.32172,-58.78836 12.3239,-88.31967 1.87067,-24.5849 2.23335,-27.63498 3.59648,-52.8582 2.26402,-41.89319 3.29311,-83.83865 4.71118,-125.76516 1.97132,-67.4816 3.57292,-134.97585 3.80327,-202.48965 -0.041,-54.057 -0.66001,-108.11094 -1.37229,-162.16294 -0.57731,-24.19757 -1.20363,-48.43867 -3.96658,-72.50708 -5.86945,-52.70721 -80.40869,-44.40656 -74.53925,8.30065 z"/>
</svg>
