<?xml version="1.0" ?>
<svg xmlns="http://www.w3.org/2000/svg" width="1000" height="1000">
<path d="m 144.92693,311.94515 c 14.19752,2.9757 27.85695,8.08334 40.84241,14.51037 3.84496,1.90302 7.57888,4.0226 11.36831,6.03389 14.62008,8.66296 7.52624,4.26755 21.29964,13.15693 44.62722,28.65155 85.14663,-34.46087 40.51941,-63.11242 v 0 c -17.31355,-11.06867 -8.32753,-5.56124 -26.99145,-16.46768 -5.11049,-2.65519 -10.14505,-5.46193 -15.33146,-7.96558 -17.98239,-8.68066 -36.88701,-15.48061 -56.44305,-19.58586 -51.9231,-10.79314 -67.186908,62.63721 -15.26381,73.43035 z"/>
<path d="m 124.96658,460.34808 c 14.36705,5.41611 27.66462,13.25685 40.77159,21.15477 14.96463,9.67612 7.53261,4.78009 22.29663,14.68722 44.05076,29.53018 85.81273,-32.767 41.76197,-62.29717 v 0 c -16.57131,-11.09886 -8.07724,-5.52101 -25.49401,-16.71557 -18.99518,-11.34118 -38.41101,-22.57082 -59.64348,-29.19774 -51.17224,-13.92484 -70.864949,58.44364 -19.6927,72.36849 z"/>
<path d="m 210.33349,816.99708 c 0.0507,0.37151 -0.0353,1.43923 0.15215,1.11452 0.79172,-1.37112 1.14501,-2.95264 1.75328,-4.41442 1.58958,-3.82004 3.1247,-7.66494 4.83993,-11.43023 2.74648,-6.0291 5.56321,-12.02863 8.54218,-17.94631 10.66543,-21.18668 16.66347,-31.29137 28.66188,-52.74077 26.46308,-44.76781 12.86263,-22.23174 40.83219,-67.58958 27.82822,-45.14522 -36.01676,-84.50026 -63.84497,-39.35505 v 0 c -29.01015,47.07937 -14.8656,23.62133 -42.45857,70.35909 -12.81147,22.94903 -19.55742,34.34553 -30.98193,57.24321 -3.49945,7.01379 -6.83674,14.11052 -10.01918,21.27373 -3.90991,8.80065 -8.26565,19.50492 -10.68856,29.01957 -0.79001,3.10236 -1.08103,6.31083 -1.62155,9.46624 -3.53553,52.91503 71.29761,57.91503 74.83315,5 z"/>
<path d="m 326.64396,443.36664 c 22.44678,-9.42217 46.3192,-15.01113 69.91231,-20.71635 36.55683,-8.02445 73.75193,-13.71753 111.18517,-15.26457 6.20089,-0.25627 12.41025,-0.22933 18.61537,-0.34399 18.39321,-0.13118 36.75598,1.03239 54.92297,3.885 52.4144,8.07656 63.83638,-66.0486 11.42198,-74.12516 v 0 c -22.46211,-3.41358 -45.13743,-5.00509 -67.87016,-4.74433 -7.27889,0.15961 -14.56306,0.1587 -21.83665,0.47882 -41.7937,1.83944 -83.32222,8.17884 -124.12716,17.22995 -19.83438,4.82931 -39.32717,9.67976 -58.7352,16.0553 -8.37792,2.75215 -15.47339,5.30274 -23.45816,8.80638 -2.07682,0.91129 -4.07489,1.99245 -6.11233,2.98867 -46.49247,25.51373 -10.4106,91.26401 36.08186,65.75028 z"/>
<path d="m 402.44702,236.25014 c -0.0183,24.27897 0.31922,48.55687 0.65954,72.83295 0.80138,47.89414 1.21956,95.79056 0.98751,143.6909 -0.0841,7.80092 -0.16828,15.60184 -0.25243,23.40275 -0.57049,53.02994 74.42517,53.83675 74.99566,0.80681 v 0 c 0.0853,-7.94954 0.1706,-15.89908 0.2559,-23.84861 0.23129,-48.37132 -0.18317,-96.73876 -0.99402,-145.10381 -0.33583,-23.92545 -0.67013,-47.85269 -0.65216,-71.78099 0,-53.03301 -75,-53.03301 -75,0 z"/>
<path d="m 309.9011,520.39645 c 0.0697,2.57379 0.047,5.15175 0.20923,7.72136 0.70388,11.14742 2.43893,22.25319 3.5028,33.36809 1.42666,14.90527 1.64658,19.32714 2.76002,34.79012 2.75537,40.84651 3.13907,81.78741 2.9222,122.70862 -0.28981,19.35789 -0.11832,10.15036 -0.49574,27.6229 -1.1417,53.02072 73.84092,54.63533 74.98262,1.61461 v 0 c 0.39101,-18.21336 0.2135,-8.59863 0.51209,-28.84454 0.22204,-42.85544 -0.21148,-85.73124 -3.11621,-128.50686 -1.24138,-17.12382 -2.59382,-34.19956 -4.45585,-51.26791 -0.55537,-5.09079 -1.02166,-10.19294 -1.70739,-15.26782 -0.0185,-0.13682 -0.13269,-0.24216 -0.19904,-0.36323 2.52814,-52.97272 -72.38659,-56.54805 -74.91473,-3.57534 z"/>
<path d="m 384.65593,558.81353 c 15.99609,-5.96689 32.48665,-10.43123 48.97213,-14.80208 20.13859,-4.56597 40.56797,-9.15648 61.29894,-9.77646 2.4125,-0.0721 4.82698,0.0414 7.24047,0.0622 3.80816,0.2155 7.61933,0.67809 11.28444,1.77005 0.39915,0.11893 3.03288,0.94866 1.8753,0.82406 -5.21672,-2.14603 -9.51687,-6.37048 -12.60181,-11.01892 -12.04097,-18.14355 -1.11677,-3.75136 -3.6757,-7.10822 1.48183,21.62349 -0.0327,43.31741 -1.74572,64.87802 -2.51029,27.43402 -6.14802,54.75701 -10.48816,81.95793 -8.33831,52.37339 65.72886,64.16554 74.06717,11.79214 v 0 c 4.63473,-29.16932 8.54744,-58.46446 11.19139,-87.88595 2.15509,-27.79623 4.1501,-55.90119 0.84946,-83.68865 -1.6978,-8.13619 -1.83453,-11.47438 -6.37558,-19.33616 -4.87766,-8.44454 -12.6131,-14.3225 -21.27404,-18.35193 -13.75135,-5.69711 -28.33741,-8.58959 -43.2504,-8.83223 -4.00474,0.033 -8.01261,-0.0628 -12.01421,0.0991 -25.57504,1.03465 -50.80918,6.27704 -75.64358,12.13078 -19.37688,5.15981 -38.75707,10.4664 -57.51044,17.62907 -49.25516,19.65781 -21.45482,89.31512 27.80034,69.65731 z"/>
<path d="m 398.7378,742.17657 c 2.41233,-0.78627 4.85408,-1.48742 7.23698,-2.35882 8.75942,-3.20319 18.89586,-7.53191 27.27033,-11.20185 22.37049,-9.80339 44.34006,-20.46108 66.37824,-30.98122 8.94645,-4.23977 17.89289,-8.47954 26.83934,-12.71931 47.92372,-22.71161 15.80466,-90.48598 -32.11906,-67.77437 v 0 c -9.01028,4.27013 -18.02056,8.54026 -27.03084,12.81039 -29.11986,13.90176 -58.10004,28.33073 -88.26791,39.85676 -51.17221,13.925 -31.47928,86.29342 19.69292,72.36842 z"/>
<path d="m 602.70388,292.69655 c 1.83872,24.17586 2.86519,48.40206 3.73334,72.62891 1.19025,34.67177 0.99403,69.38485 -0.51264,104.04366 -1.08138,24.8757 -2.17832,39.00826 -3.85239,64.0252 -3.02908,44.93124 -7.72015,89.76646 -16.30474,134.00289 -5.7603,29.68285 -7.27406,33.80356 -14.74858,62.96075 -11.87175,38.03966 -5.72591,19.72447 -18.30053,54.99132 -17.75456,49.97274 52.91758,75.08149 70.67214,25.10874 v 0 c 13.93655,-39.353 7.11385,-18.85596 20.29755,-61.54763 8.00396,-31.46959 9.82214,-36.67119 15.9568,-68.58521 9.00886,-46.86622 14.06318,-94.34142 17.26056,-141.93153 1.74202,-26.11776 2.86217,-40.53091 3.97852,-66.55485 1.56058,-36.37977 1.75366,-72.81534 0.5049,-109.20775 -0.90558,-25.11444 -1.97205,-50.22798 -3.87638,-75.2899 -3.78684,-52.89763 -78.59539,-47.54223 -74.80855,5.3554 z"/>
<path d="m 686.59548,211.49585 c 17.08394,-2.97967 33.80626,-7.64529 50.58907,-11.94364 21.59855,-5.69088 43.03473,-11.92827 64.79768,-16.97481 5.08848,-1.12586 10.20034,-2.15385 15.34534,-2.98762 0.50558,-0.0819 3.41263,-0.52818 4.27274,-0.59369 0.24738,-0.0189 -0.48832,0.0881 -0.73248,0.13219 -12.2925,0.58396 -22.8869,-5.07008 -29.57951,-15.17989 -0.20865,-0.33424 -0.23577,-0.94791 -0.62596,-1.00274 -0.30665,-0.0431 0.0265,0.62033 0.0777,0.92572 0.20638,1.22967 0.49107,2.4454 0.69448,3.67556 1.41939,8.58412 2.08056,17.19255 2.75632,25.86193 2.15075,42.69798 1.59914,85.47288 1.06866,128.20313 -1.06584,63.86699 -1.40542,127.74153 -0.97605,191.61532 1.17551,63.20755 1.68861,126.41676 0.82916,189.62997 -0.65067,32.1886 -1.53365,64.38874 -3.81012,96.51019 -1.04581,14.75664 -1.53395,18.73384 -2.94062,32.88852 -1.1828,9.88543 -2.2974,19.79623 -4.04766,29.60294 -0.28465,1.59492 -0.60337,3.18477 -0.97861,4.76085 -0.15837,0.66519 -0.74991,2.62669 -0.6204,1.95528 0.20768,-1.07671 0.57063,-2.11758 0.85594,-3.17637 11.98881,-15.9826 5.76693,-12.01944 26.29909,-19.63079 1.19994,-0.44482 4.71796,0.39833 3.8065,-0.49997 -1.64027,-1.61658 -4.36396,-1.47349 -6.54853,-2.20248 -15.36464,-5.12716 -11.41522,-3.8008 -28.84166,-9.43538 -29.63254,-8.9418 -14.27554,-4.4131 -46.08324,-13.54453 -50.97594,-14.62716 -71.66186,57.46371 -20.68592,72.09086 v 0 c 30.37253,8.71074 15.8104,4.42269 43.70006,12.81765 9.72313,3.14234 19.40656,6.40699 29.13597,9.52985 7.20585,2.31287 21.12381,7.08157 28.39242,6.18885 25.96,-3.18834 23.61359,-6.11431 38.62556,-23.24965 1.24186,-3.08142 2.65297,-6.09991 3.72558,-9.24425 1.22581,-3.59342 2.63872,-10.89217 3.27634,-14.51718 1.9852,-11.28639 3.2893,-22.68364 4.62397,-34.05947 1.52139,-15.43256 2.03186,-19.58832 3.16207,-35.64325 2.34602,-33.3258 3.28027,-66.73126 3.94639,-100.12616 0.85946,-63.72041 0.37046,-127.43705 -0.824,-191.15172 -0.42971,-63.39544 -0.0846,-126.7916 0.97201,-190.18028 0.55646,-45.03641 1.12996,-90.12582 -1.30247,-135.1216 -1.34876,-16.47428 -2.4835,-34.59638 -7.90312,-50.37393 -0.79474,-2.31363 -1.83959,-4.53363 -2.75939,-6.80045 -2.79709,-5.01732 -3.9474,-7.7617 -7.98364,-12.0738 -9.07985,-9.70044 -20.68105,-14.34673 -33.87781,-13.91117 -10.60356,0.84277 -21.04146,2.96647 -31.41664,5.263 -22.30641,5.19053 -44.30855,11.4819 -66.43489,17.3746 -14.70186,3.76564 -29.33971,7.89445 -44.28336,10.61438 -52.31461,8.69953 -40.01162,82.68355 12.30299,73.98403 z"/>
<path d="m 672.50527,443.246 c 10.51564,-3.02236 21.34537,-3.75278 32.22337,-3.99358 6.2494,-0.16831 12.44694,0.53006 18.63088,1.30123 52.67248,6.17328 61.40281,-68.31687 8.73032,-74.49014 v 0 c -9.81372,-1.10567 -19.64992,-2.08228 -29.54758,-1.77921 -3.78679,0.1278 -7.57841,0.15328 -11.36035,0.38342 -16.14491,0.98245 -32.23717,3.79468 -47.46776,9.32461 -48.96974,20.3584 -20.17862,89.61207 28.79112,69.25367 z"/>
<path d="m 660.84184,567.67177 c 14.32649,-1.2007 28.7213,-0.27357 43.02756,0.748 3.03085,0.30468 6.0617,0.60936 9.09255,0.91404 52.77598,5.21491 60.15098,-69.42161 7.375,-74.63652 v 0 c -3.74716,-0.36507 -7.49432,-0.73014 -11.24148,-1.09522 -19.97885,-1.36993 -40.137,-2.52638 -60.07695,0.007 -52.36988,8.36035 -40.54657,82.42255 11.82332,74.0622 z"/>
</svg>
