<?xml version="1.0" ?>
<svg xmlns="http://www.w3.org/2000/svg" viewBox="0 0 1000 1000">
<path d="m 115.34351,192.63707 c 22.53818,9.35963 43.38928,22.16126 64.10139,34.93493 22.62337,14.75004 11.71274,7.0569 32.76751,23.02879 42.39061,31.86748 87.45804,-28.08189 45.06743,-59.94937 v 0 c -25.73596,-19.20831 -12.87037,-10.26722 -38.5123,-26.94435 -24.39499,-14.99816 -49.03005,-29.8837 -75.62347,-40.72723 -49.255099,-19.65796 -77.055654,49.99927 -27.80056,69.65723 z"/>
<path d="m 101.90226,444.03809 c 21.93302,12.72578 43.75481,25.63459 65.50238,38.6759 22.45147,13.10947 10.83122,6.53032 34.89029,19.68521 46.55025,25.40815 82.48281,-40.42384 35.93256,-65.832 v 0 c -21.92824,-11.94567 -11.18177,-5.87999 -32.25189,-18.17491 -21.76341,-13.05036 -43.5972,-25.97541 -65.5496,-38.70419 -45.502317,-27.24039 -84.026053,37.1096 -38.52374,64.34999 z"/>
<path d="m 158.30479,915.0997 c 16.39193,-29.88655 34.31334,-58.87473 51.93925,-88.03605 6.98337,-11.5537 13.87874,-23.16036 20.81811,-34.74055 31.05855,-50.99966 15.22256,-25.63774 47.51316,-76.0825 28.58219,-44.67167 -34.59308,-85.093 -63.17528,-40.42134 v 0 c -33.26381,52.01134 -17.04838,26.0211 -48.67248,77.9544 -6.83237,11.40328 -13.62091,22.83293 -20.49712,34.20984 -6.0422,9.99702 -12.22507,19.90864 -18.25778,29.9114 -12.34455,20.46836 -24.26934,41.18147 -35.919392,62.05178 -24.85694,46.8469 41.394592,81.99992 66.251532,35.15302 z"/>
<path d="m 387.18623,244.53484 c 31.97807,-6.14627 64.34379,-9.96003 96.65527,-13.84065 63.73587,-6.72619 127.67597,-12.46137 191.78403,-13.83104 12.5694,-0.26854 25.14377,-0.19662 37.71566,-0.29493 44.51093,0.0226 88.95451,2.41721 133.27204,6.38741 52.82271,4.71815 59.49519,-69.98444 6.67248,-74.7026 v 0 c -46.74113,-4.16332 -93.61378,-6.69236 -140.55735,-6.6823 -13.23648,0.11257 -26.47568,0.0471 -39.70945,0.33773 -66.22922,1.45445 -132.2878,7.33808 -198.13108,14.3221 -35.39682,4.26103 -70.8982,8.37634 -105.85353,15.53405 -51.45633,12.83535 -33.3044,85.60559 18.15193,72.77023 z"/>
<path d="m 434.30152,128.0163 c 0.53863,23.65219 1.36369,47.30312 3.3762,70.88367 0.74791,8.76317 1.73703,17.50407 2.60554,26.2561 4.10261,32.85053 7.70918,65.80123 12.99525,98.49272 1.16646,7.21397 2.53952,14.39301 3.80929,21.58951 9.25267,52.21962 83.10236,39.13436 73.84968,-13.08525 v 0 c -1.15333,-6.4788 -2.40691,-12.94054 -3.45999,-19.43638 -5.11235,-31.53519 -8.57685,-63.32455 -12.56524,-95.01139 -2.24546,-22.34417 -2.69393,-24.4569 -4.0034,-46.32792 -0.91414,-15.26813 -0.86438,-30.56733 -1.74291,-45.83086 -0.18081,-3.14152 -0.54034,-6.27021 -0.81051,-9.40531 -8.39698,-52.364024 -82.45089,-40.488907 -74.05391,11.87511 z"/>
<path d="m 583.35785,104.11127 c -0.1907,6.21528 -0.12507,5.6645 -0.69296,13.44944 -0.76996,10.55514 -1.70599,20.61259 -2.59144,31.19777 -1.9116,22.85247 -1.58858,19.27391 -3.33668,42.85788 -1.93313,29.44434 -2.88544,58.96945 -2.07194,88.47347 0.39001,14.145 0.89984,20.95017 1.72498,34.73355 0.34716,4.453 0.69433,8.90601 1.04149,13.35902 4.14614,52.87069 78.91658,47.00716 74.77044,-5.86352 v 0 c -0.31593,-4.00267 -0.63187,-8.00533 -0.9478,-12.00799 -0.7546,-12.42639 -1.22903,-18.73798 -1.59917,-31.44962 -0.79337,-27.24584 0.11283,-54.51267 1.8771,-81.70474 1.7092,-23.09136 1.38756,-19.51359 3.26787,-41.99634 1.42117,-16.99277 3.21675,-33.98864 3.55811,-51.04892 0,-53.033012 -75,-53.033012 -75,0 z"/>
<path d="m 727.93499,88.991915 c -0.53693,5.155712 -0.4347,4.651522 -1.50946,11.364705 -2.73606,17.08999 -1.88684,9.71487 -4.91942,29.83992 -2.29321,15.2183 -4.35178,30.47109 -6.57158,45.70028 -1.62383,8.04226 -3.05017,16.12694 -4.87149,24.1268 -2.00543,8.80858 -4.28229,17.5545 -6.6056,26.28463 -5.05576,18.99765 -10.09165,36.96401 -17.02425,55.37841 -3.2734,8.69481 -7.18954,17.13389 -10.78431,25.70083 -20.3515,48.97261 48.90623,77.75398 69.25773,28.78137 v 0 c 4.22136,-10.24132 8.79986,-20.34261 12.66409,-30.72395 7.39007,-19.85356 13.2572,-40.50378 18.6534,-60.97038 2.60587,-9.88351 5.15404,-19.78638 7.38624,-29.76094 2.07782,-9.28469 3.69341,-18.66682 5.54011,-28.00022 2.1624,-14.83844 4.15995,-29.70095 6.39143,-44.52915 2.5259,-16.78465 6.16414,-33.44985 7.34149,-50.410237 1.96722,-52.99651 -72.98116,-55.778578 -74.94838,-2.782068 z"/>
<path d="m 511.61956,386.8907 c 15.22762,-4.02096 30.57722,-7.5115 46.12116,-10.07952 5.71846,-0.94474 11.46015,-1.743 17.19023,-2.6145 25.87232,-3.59887 51.9604,-5.4587 78.07185,-5.9226 14.34505,-0.25486 20.66127,-0.0412 34.68694,0.18647 4.50057,0.13559 9.00114,0.27118 13.50172,0.40677 53.0094,1.58236 55.2472,-73.38424 2.2378,-74.96661 v 0 c -4.85315,-0.14363 -9.7063,-0.28725 -14.55945,-0.43088 -15.49965,-0.23693 -22.32684,-0.46554 -38.2193,-0.15885 -29.12077,0.56195 -58.21232,2.6924 -87.06092,6.74817 -6.42832,0.98846 -12.87077,1.88903 -19.28496,2.96537 -17.12227,2.87323 -34.05291,6.67225 -50.837,11.09595 -51.45633,12.83535 -33.3044,85.60559 18.15193,72.77023 z"/>
<path d="m 295.88863,459.73189 c 1.88173,17.74639 3.79108,35.5039 6.92192,53.0842 1.16797,6.55835 2.57833,13.07121 3.86749,19.60681 6.78829,28.81509 13.86202,57.66888 23.31889,85.74956 1.3945,4.14076 2.93191,8.23201 4.39786,12.34802 17.86936,49.93181 88.48361,24.66072 70.61425,-25.2711 v 0 c -10.27141,-28.53275 -17.89074,-57.93282 -24.77005,-87.44796 -1.11616,-5.56561 -2.33949,-11.11081 -3.34848,-16.69685 -3.06815,-16.98615 -4.77356,-34.16301 -6.66269,-51.30673 -7.02444,-52.56575 -81.36363,-42.63169 -74.33919,9.93405 z"/>
<path d="m 428.60433,504.65775 c 21.63335,-6.73299 43.57201,-12.40468 65.72792,-17.14175 8.4182,-1.79986 16.87501,-3.41419 25.31251,-5.12129 50.50616,-10.07182 101.67318,-16.45997 153.05019,-19.84745 10.28998,-0.67846 20.59582,-1.09002 30.89373,-1.63502 35.35245,-1.33652 70.78881,-1.62041 106.11683,0.52698 15.78726,0.95962 22.4145,1.7596 37.71898,3.2881 11.47157,1.3363 22.95415,2.75671 34.28782,5.01794 3.95852,0.78978 7.78598,1.71456 11.54952,3.14838 0.14604,0.0958 0.60668,0.33326 0.43813,0.28745 -7.88726,-2.14367 -14.08215,-12.48814 -17.02835,-18.43877 -2.15504,-9.93506 -0.45616,-6.63456 -2.81005,-10.77588 -9.37241,19.08144 -20.88059,37.06222 -33.24424,54.32899 -4.96441,6.93318 -10.21583,13.65679 -15.24212,20.54524 -5.5934,7.66568 -11.07738,15.41061 -16.61607,23.11591 -30.94817,43.06635 29.95685,86.83367 60.90502,43.76732 v 0 c 5.3303,-7.4196 10.61031,-14.8756 15.99091,-22.25881 5.57366,-7.64812 11.3894,-15.11989 16.87112,-22.83417 10.5072,-14.78653 17.66673,-25.68648 26.61226,-41.18903 3.35326,-5.81118 6.66153,-11.65831 9.61891,-17.68061 2.51452,-5.12048 4.51997,-10.47562 6.77995,-15.71343 3.0079,-12.65276 6.96447,-21.44512 2.39021,-34.70632 -5.5503,-16.09081 -15.66856,-23.8418 -30.29342,-29.37739 -6.13759,-2.03825 -7.18094,-2.51566 -13.7859,-4.11019 -16.09783,-3.88622 -32.60402,-5.78209 -49.0149,-7.7598 -17.05039,-1.68324 -24.02484,-2.52594 -41.65129,-3.57431 -37.81719,-2.24926 -75.74606,-1.97099 -113.58651,-0.50122 -10.93322,0.587 -21.87489,1.03344 -32.79965,1.76099 -54.40073,3.62292 -108.5749,10.44769 -162.05469,21.1108 -9.02442,1.83346 -18.07027,3.56439 -27.07325,5.50036 -23.78214,5.11403 -47.33709,11.20908 -70.57065,18.41681 -50.80574,15.2078 -29.29866,87.05796 21.50708,71.85017 z"/>
<path d="m 418.04254,619.12151 c 1.05182,18.25656 4.68041,36.31584 9.32255,53.97295 1.49164,5.67367 3.2192,11.28269 4.82881,16.92403 8.04878,25.13389 16.33422,50.19263 24.62737,75.24721 16.66489,50.34662 87.86575,26.77891 71.20086,-23.5677 v 0 c -7.98064,-24.11049 -15.92893,-48.23253 -23.74621,-72.39621 -5.22647,-18.02543 -10.44511,-36.32834 -11.40023,-55.18031 -3.53556,-52.91503 -78.36871,-47.91499 -74.83315,5.00003 z"/>
<path d="m 510.51169,668.73396 c 16.80642,-8.90527 34.31564,-16.56606 52.24662,-22.91481 6.95684,-2.46318 14.01898,-4.61816 21.02847,-6.92724 33.35033,-9.92562 67.57554,-17.41937 102.32762,-20.06813 5.04799,-0.38476 10.11304,-0.49717 15.16956,-0.74575 10.72376,-0.16178 21.50804,0.041 32.1355,1.63616 4.28601,0.64333 8.51386,1.6236 12.5094,3.29841 -0.64976,1.01575 -0.31302,0.66099 -2.79676,-0.97336 -3.7677,-2.47921 -4.3319,-3.44461 -7.06075,-6.90359 -0.46084,-0.58415 -0.60582,-2.04613 -1.3104,-1.80701 -0.73384,0.24904 -0.12804,1.5446 -0.19206,2.3169 -1.70346,23.9093 -8.13949,47.21098 -14.55717,70.20623 -5.18361,17.15296 -11.26078,34.09241 -19.3159,50.12563 -3.31848,6.60524 -4.65557,8.62536 -8.26679,14.67966 -2.05679,3.06217 -2.96947,4.68857 -5.21684,7.27469 -0.31121,0.35812 -0.87049,1.41516 -1.03982,0.97195 -0.18516,-0.48466 0.54786,-0.89934 0.93605,-1.24357 1.23443,-1.09465 2.41218,-2.33571 3.90131,-3.04603 3.45803,-1.64949 7.19305,-2.64103 10.78957,-3.96155 -4.98865,-14.42541 10.7706,4.02945 11.8582,0.22852 0.28575,-0.99862 -1.54324,-1.39168 -2.34465,-2.05247 -6.63534,-5.47101 -9.61866,-7.39187 -16.04641,-13.87361 -2.91335,-2.93782 -5.52466,-6.16049 -8.28698,-9.24074 -2.30462,-3.46563 -4.60924,-6.93126 -6.91386,-10.39689 -30.50335,-43.38255 -91.85554,-0.2443 -61.3522,43.13825 v 0 c 4.36851,6.02505 8.73702,12.05009 13.10553,18.07514 4.43699,4.7345 8.68092,9.65763 13.31097,14.20351 5.9248,5.81709 16.63568,14.84572 23.63969,19.8606 7.029,5.03278 15.81067,10.74615 24.36819,12.8217 5.49755,1.33337 11.25113,1.1898 16.8767,1.7847 5.55238,-1.53605 11.31959,-2.44042 16.65713,-4.60815 3.33321,-1.35371 6.20784,-3.66904 9.07483,-5.84233 9.00528,-6.82633 15.1844,-16.72003 21.28677,-25.99779 5.11612,-8.74532 6.88462,-11.4446 11.55496,-20.90666 9.79866,-19.85195 17.37405,-40.71748 23.68566,-61.91504 4.70833,-17.00922 9.25976,-34.00951 12.57896,-51.3585 1.9675,-10.28383 3.69909,-20.9613 4.28865,-31.43991 0.26827,-4.76801 0.0767,-9.55079 0.115,-14.32618 -1.31648,-10.76551 -1.19352,-16.19302 -5.68324,-26.35898 -6.69727,-15.16447 -17.94404,-24.11101 -32.87645,-30.22743 -2.81783,-0.9354 -5.5989,-1.98986 -8.4535,-2.8062 -21.03009,-6.01406 -43.15651,-6.58534 -64.8675,-6.23416 -6.28774,0.34336 -12.58642,0.52469 -18.86321,1.0301 -40.18764,3.23587 -79.78325,11.85044 -118.32628,23.49189 -8.1204,2.70669 -16.30425,5.22995 -24.36118,8.12008 -14.69325,5.27068 -25.5432,9.82212 -39.48308,16.27747 -9.43541,4.3694 -18.29909,8.65864 -27.0887,14.18203 -2.52737,1.5882 -4.8347,3.50224 -7.25205,5.25336 -40.44588,34.30206 8.06457,91.50116 48.51044,57.1991 z"/>
<path d="m 571.63115,503.6164 c -1.6765,33.37141 -1.06214,66.75453 -0.0549,100.13308 2.18236,44.52275 3.57146,89.0853 0.93456,133.62355 -1.81442,30.6463 -3.86662,46.29941 -7.14743,76.85691 -4.51904,35.32765 -8.88566,70.67101 -13.0302,106.04426 -6.1694,52.67294 68.32138,61.39779 74.49079,8.72485 v 0 c 4.17097,-35.62301 8.58688,-71.21322 13.11408,-106.79295 3.49821,-32.82629 5.6172,-48.94126 7.51816,-81.97166 2.66182,-46.25091 1.3754,-92.5305 -0.9146,-138.76409 -0.60888,-19.87097 -0.99831,-27.68893 -1.05326,-46.97738 -0.0416,-14.59923 0.53384,-29.15957 0.97509,-43.74642 0.0719,-2.37629 0.11183,-4.75343 0.16775,-7.13015 0,-53.03301 -75,-53.03301 -75,0 z"/>
</svg>
