<?xml version="1.0" ?>
<svg xmlns="http://www.w3.org/2000/svg" width="1000" height="1000">
<path d="m 112.50326,210.37071 c 22.36321,10.58803 44.32364,21.98166 66.22496,33.48669 46.95082,24.6601 81.82547,-41.73838 34.87465,-66.39848 v 0 c -22.3644,-11.74481 -44.78406,-23.3885 -67.61855,-34.2002 -47.455339,-23.67468 -80.9364,43.4373 -33.48106,67.11199 z"/>
<path d="m 89.359916,450.09289 c 10.741354,5.58884 21.770004,10.57476 32.841654,15.46458 4.01923,1.7751 8.09493,3.42622 12.06521,5.30824 3.52825,1.67248 6.9469,3.567 10.42034,5.35051 3.01305,2.1062 6.0261,4.2124 9.03915,6.3186 44.16337,29.36149 85.68679,-33.09494 41.52343,-62.45643 v 0 c -5.54285,-3.58209 -11.08571,-7.16418 -16.62856,-10.74627 -4.71719,-2.37206 -9.38058,-4.85428 -14.15156,-7.11618 -13.41833,-6.36158 -27.40529,-11.54345 -40.47818,-18.64869 -47.040731,-24.48815 -81.672214,42.03748 -34.631484,66.52564 z"/>
<path d="m 160.04035,871.11831 c 20.00211,-41.80341 41.45752,-82.89295 62.59938,-124.12745 6.06027,-12.09196 12.12054,-24.18391 18.18081,-36.27587 23.76005,-47.41266 -43.29158,-81.01444 -67.05162,-33.60178 v 0 c -5.95606,11.88637 -11.91211,23.77273 -17.86817,35.6591 -22.27979,43.45396 -45.06811,86.68359 -65.682816,130.96298 -19.362719,49.37191 50.459696,76.75493 69.822416,27.38302 z"/>
<path d="m 383.25244,206.67627 c 33.9554,-3.81414 67.58699,-10.01995 101.28716,-15.56951 41.35435,-6.53459 82.84874,-12.31539 124.5792,-15.84373 24.14827,-2.04175 31.71555,-2.23552 55.44057,-3.44105 31.79678,-0.90795 63.78645,-1.39164 95.4212,2.47703 2.97955,0.78684 6.38267,0.66409 9.26447,1.94229 0.44245,0.19624 -0.9585,-0.18222 -1.40335,-0.37297 -0.72193,-0.30955 -1.41333,-0.68596 -2.11999,-1.02893 -7.13632,-5.03908 -7.22337,-4.35937 -13.2741,-14.24367 -1.27616,-2.0847 -1.28304,-4.77778 -2.51868,-6.88674 -0.39968,-0.68215 -0.095,1.57846 -0.12864,2.36836 -0.11489,2.69739 -0.13177,5.39983 -0.31693,8.09331 -0.29727,4.32419 -0.75332,8.636 -1.12998,12.95399 -0.79929,5.38891 -1.41254,10.80872 -2.39788,16.16674 -1.94398,10.57088 -6.72637,30.61138 -9.4565,40.46398 -2.05327,7.40994 -4.13535,14.8242 -6.70029,22.07294 -2.4926,7.04427 -5.6375,13.84045 -8.45624,20.76067 -19.69003,49.24229 49.94908,77.08819 69.63911,27.84591 v 0 c 3.54182,-8.98676 7.4499,-17.83766 10.62546,-26.96027 2.9282,-8.412 5.31256,-17.00737 7.66958,-25.59693 6.16747,-22.47582 11.16264,-45.37608 13.81948,-68.54619 0.94997,-11.89733 1.79948,-18.49233 1.65411,-29.99432 -0.0958,-7.58396 -0.75835,-16.9916 -4.07126,-23.878 -5.72135,-11.89271 -8.11695,-12.6 -16.63222,-19.08833 -1.57124,-0.85695 -3.10413,-1.78832 -4.71373,-2.57085 -9.5342,-4.63519 -20.1218,-6.44249 -30.51055,-7.977978 -35.86414,-4.164458 -72.04785,-4.192475 -108.09361,-2.902156 -25.1908,1.296066 -33.167,1.503559 -58.80832,3.689404 -43.39905,3.69964 -86.55849,9.68535 -129.56769,16.49423 -32.25563,5.31195 -64.44333,11.26605 -96.93453,14.98305 -52.74289,5.53958 -44.90875,80.1293 7.83415,74.58972 z"/>
<path d="m 421.94357,325.99178 c 1.67637,-0.0664 3.3554,-0.0838 5.02912,-0.19915 12.40234,-0.8551 24.75446,-2.7108 37.0405,-4.52907 14.3458,-2.1231 28.67136,-4.38089 43.0108,-6.54658 47.00262,-6.49726 94.28476,-12.10123 141.79308,-12.595 8.89704,-0.0925 17.79392,0.20012 26.69087,0.30017 31.05633,1.64102 16.16984,0.5859 44.66807,3.04152 52.84185,4.49877 59.20407,-70.23089 6.36222,-74.72966 v 0 c -32.03568,-2.69798 -15.27951,-1.54659 -50.27833,-3.30809 -9.93865,-0.0888 -19.87765,-0.38761 -29.81596,-0.26639 -50.46331,0.6155 -100.69435,6.45027 -150.6206,13.39853 -24.58449,3.71327 -49.13046,7.96753 -73.87977,10.43372 -53.03301,0 -53.03301,75 0,75 z"/>
<path d="m 371.59203,178.97498 c -0.65484,7.29047 -0.71271,7.43711 -1.21828,16.14995 -2.79822,48.22406 1.70071,-25.17039 -1.6849,31.57649 -1.38171,23.1591 -1.37503,21.57435 -3.26989,45.9771 -4.0266,41.8073 -9.10559,83.61782 -16.87301,124.91672 -5.72569,30.44322 -9.62164,44.93282 -16.93977,75.41607 -23.23196,91.3972 -56.2681,179.88531 -89.35561,268.06504 -9.78729,25.74648 -24.73879,65.80418 -35.55123,91.46581 -5.50414,13.06322 -11.59575,25.87104 -17.39363,38.80657 -21.65318,48.41115 46.81053,79.03337 68.46371,30.62221 v 0 c 6.20705,-13.90451 12.71304,-27.67938 18.62113,-41.71353 10.98648,-26.09741 26.09598,-66.56919 36.08078,-92.83633 34.16509,-91.07944 68.19975,-182.50131 92.07047,-276.93423 7.97901,-33.36267 11.73002,-47.16302 17.98317,-80.55854 8.13836,-43.46364 13.47104,-87.45831 17.66976,-131.45458 1.96219,-25.36479 1.95255,-23.69046 3.38131,-47.6602 2.07424,-34.79873 0.0314,-2.3413 1.63396,-30.73525 0.41852,-7.41523 0.44134,-7.24792 0.98215,-13.36881 5.46911,-52.75024 -69.13101,-60.48474 -74.60012,-7.73449 z"/>
<path d="m 402.8008,486.41898 c 1.98454,-0.18305 3.97565,-0.30513 5.95362,-0.54916 12.94967,-1.59764 25.77325,-4.17482 38.62357,-6.38727 22.92551,-3.9471 20.91099,-3.5242 45.60039,-7.36771 40.8255,-5.87072 81.68379,-11.76666 122.7529,-15.70207 27.35373,-2.62114 34.12838,-2.76162 61.24383,-4.3292 25.36,-1.22036 50.77432,-1.37089 76.112,0.3877 5.97297,0.41456 11.92327,1.10829 17.8849,1.66244 52.8144,4.8103 59.61719,-69.88055 6.80279,-74.69085 v 0 c -7.0135,-0.62762 -14.01443,-1.41658 -21.0405,-1.88286 -28.00607,-1.85858 -56.09146,-1.71884 -84.11719,-0.34971 -29.00445,1.69895 -35.73878,1.82688 -64.98525,4.6411 -42.22094,4.06268 -84.22847,10.10815 -126.19894,16.15742 -8.67211,1.35211 -17.35202,2.65516 -26.01635,4.05632 -18.86512,3.05079 -37.62328,6.80901 -56.54886,9.45705 -52.96004,2.78111 -49.02695,77.67791 3.93309,74.8968 z"/>
<path d="m 345.69984,596.68552 c 3.54596,19.81171 7.25082,39.59502 10.07658,59.52782 0.93747,6.61289 1.74293,13.24383 2.6144,19.86574 5.09258,46.0818 8.22432,92.35441 11.75864,138.57496 1.63366,20.57387 3.05342,41.16335 4.3186,61.76284 3.25338,52.93312 78.11212,48.33215 74.85874,-4.60097 v 0 c -1.28988,-20.972 -2.73254,-41.93411 -4.39565,-62.88016 -3.63902,-47.5897 -6.85644,-95.23492 -12.18552,-142.67314 -0.94553,-7.14087 -1.82145,-14.29131 -2.83658,-21.42262 -2.86091,-20.09798 -6.53943,-40.05863 -10.1553,-60.02957 -8.39697,-52.36403 -82.45088,-40.48892 -74.05391,11.8751 z"/>
<path d="m 421.10355,633.94957 c 4.93998,-2.01396 8.61087,-3.58691 13.86513,-5.31115 22.38089,-7.34453 45.67551,-11.84186 68.69565,-16.59719 34.99921,-6.83819 70.31693,-12.04386 105.85721,-15.05278 21.934,-1.85699 28.24856,-1.87148 49.99246,-2.73803 34.26549,-0.94165 68.58599,-0.41999 102.73784,2.60235 11.24662,0.96195 22.3742,2.83692 33.499,4.68281 0.38255,0.0795 0.77212,0.13059 1.14766,0.23845 0.20606,0.0592 -0.43085,-0.0314 -0.63659,-0.0917 -1.38065,-0.40456 -2.87358,-0.57436 -4.11543,-1.30076 -4.14489,-2.42451 -8.49997,-4.71638 -11.92507,-8.08196 -6.95109,-10.53836 -3.65875,-7.67634 -7.37995,-10.80799 1.42908,19.7202 1.83377,39.53925 1.12655,59.30137 -0.21526,6.01503 -0.62533,12.0215 -0.93799,18.03225 -2.58987,32.91108 -7.73771,65.65434 -15.20121,97.81491 -1.3801,5.94693 -2.97442,11.84211 -4.46163,17.76316 -6.741,25.55433 -16.26087,50.21831 -27.66394,74.0228 -4.49209,8.0796 -8.12468,16.9325 -14.04901,24.13616 2.74359,-5.30781 11.07127,-8.43041 15.91543,-9.97103 2.21943,-0.70586 6.5683,1.31051 6.91609,-0.99235 0.34954,-2.31447 -4.22304,-2.02263 -6.2968,-3.10822 -4.19989,-2.1986 -8.34769,-4.49532 -12.52153,-6.74299 -23.9255,-14.35941 -11.25767,-6.7295 -37.99435,-22.90493 -45.37605,-27.45021 -84.19651,36.72122 -38.82046,64.17143 v 0 c 28.29022,17.11302 14.31561,8.74321 41.91745,25.12006 9.40982,4.86436 24.80487,13.62998 35.54658,16.2306 6.90972,1.67287 14.08382,3.10349 21.17292,2.56747 12.93542,-0.97806 20.11278,-5.81692 29.14328,-13.65675 1.80065,-1.56323 3.16525,-3.56726 4.74787,-5.35089 8.62398,-11.60064 15.6818,-24.21572 22.01199,-37.20094 4.36956,-9.18738 6.08859,-12.55865 10.17339,-22.23867 9.03514,-21.41116 16.51656,-43.46334 22.56387,-65.89994 1.68186,-6.76142 3.48084,-13.49479 5.04558,-20.28428 8.31012,-36.0581 13.98856,-72.76814 16.75764,-109.66561 0.34109,-6.84183 0.79045,-13.67912 1.02327,-20.52549 0.82884,-24.37271 0.40222,-48.89287 -2.16951,-73.15071 -2.38797,-11.21225 -2.56376,-17.23499 -11.12733,-27.17284 -7.43511,-8.62829 -17.0555,-12.41485 -27.63261,-14.23913 -13.02795,-2.16151 -26.06953,-4.28559 -39.23904,-5.40898 -37.33914,-3.23393 -74.84819,-3.941 -112.30922,-2.82625 -23.78832,0.97772 -30.4474,0.9926 -54.44491,3.05128 -38.13341,3.27137 -76.03041,8.8774 -113.58275,16.23724 -32.63918,6.77857 -65.72716,13.27596 -96.58328,26.28203 -48.83785,20.6728 -19.6021,89.73995 29.23575,69.06715 z"/>
<path d="m 561.75493,454.20111 c 0.55499,4.32212 0.80437,5.88737 1.10614,10.98267 1.50078,25.34077 0.55541,50.8308 0.11753,76.18657 -1.23346,60.85733 -2.68094,121.70891 -4.72353,182.54468 -1.95683,59.42801 -7.93896,118.60858 -12.10532,177.89843 -3.71386,52.90281 71.10201,58.155 74.81587,5.25219 v 0 c 4.22193,-60.20145 10.30747,-120.29093 12.24725,-180.63501 2.05447,-61.24437 3.51547,-122.50451 4.75464,-183.77059 0.27519,-16.06461 0.63248,-32.12863 0.59862,-48.19703 -0.0387,-18.35287 -0.20783,-36.85656 -3.27404,-55.0025 -10.42317,-51.99863 -83.96034,-37.25804 -73.53716,14.74059 z"/>
<path d="m 464.40117,698.92984 c 7.18626,7.08285 15.8318,12.40795 22.98392,19.52667 3.21342,3.19841 4.99905,5.47964 7.90871,8.94278 34.51137,40.26742 91.4581,-8.53902 56.94673,-48.80645 v 0 c -5.97645,-6.89248 -7.7145,-9.19667 -14.45063,-15.6733 -5.20624,-5.00568 -8.99532,-8.0443 -14.51912,-12.43176 -1.37913,-1.09541 -2.73271,-2.22835 -4.18097,-3.23058 -0.087,-0.0602 -0.0204,0.21073 -0.0306,0.31609 -36.31457,-38.64909 -90.97264,12.70746 -54.65807,51.35655 z"/>
<path d="m 440.85974,809.4571 c 10.89639,7.93145 20.2324,17.75093 29.26438,27.68495 2.41745,2.75278 4.8349,5.50556 7.25236,8.25834 35.02336,39.8229 91.34146,-9.70762 56.31809,-49.53052 v 0 c -2.76264,-3.13719 -5.52529,-6.27438 -8.28793,-9.41157 -3.15678,-3.42195 -6.23779,-6.9154 -9.47035,-10.26587 -11.72239,-12.14997 -24.46902,-23.60994 -38.90789,-32.4379 -46.45874,-25.5751 -82.6274,40.12747 -36.16866,65.70257 z"/>
<path d="m 669.88868,689.95711 c 0.3653,0.0713 0.74133,0.10071 1.0959,0.21391 1.3985,0.44645 2.69556,1.16429 4.03154,1.77279 6.88793,3.13723 13.29886,6.78875 19.752,10.7335 2.06563,1.39288 4.13125,2.78577 6.19688,4.17866 44.12907,29.41301 85.72535,-32.99492 41.59628,-62.40793 v 0 c -3.04335,-2.01236 -6.0867,-4.02473 -9.13006,-6.03709 -17.28137,-10.28686 -35.41566,-20.51252 -55.70861,-23.04358 -52.74292,-5.53943 -60.57685,69.05031 -7.83393,74.58974 z"/>
<path d="m 651.50581,791.45747 c 10.1458,4.68057 20.72148,8.51447 30.45321,14.05871 2.41869,1.37795 4.70626,2.97429 7.0594,4.46143 2.12263,1.55583 4.24527,3.11167 6.36791,4.6675 43.14489,30.83858 86.75723,-30.17751 43.61234,-61.0161 v 0 c -3.60071,-2.53502 -7.20141,-5.07005 -10.80212,-7.60508 -4.07413,-2.45021 -8.06463,-5.04518 -12.22239,-7.35063 -11.25422,-6.24037 -23.27465,-10.89108 -34.98051,-16.17573 -48.76201,-20.85105 -78.24985,48.10885 -29.48784,68.9599 z"/>
</svg>
