<?xml version="1.0" ?>
<svg xmlns="http://www.w3.org/2000/svg" viewBox="0 0 1000 1000">
<path d="m 140.10945,185.17637 c 23.3948,13.25607 47.09222,25.96699 70.80889,38.63457 23.95239,13.22723 12.36711,6.59672 34.78452,19.84135 45.68084,26.93994 83.77967,-37.66252 38.09883,-64.60247 v 0 c -24.57464,-14.46896 -12.06202,-7.33027 -37.55016,-21.3945 -24.02921,-12.83308 -48.00823,-25.76051 -71.74621,-39.12671 -47.12709,-24.321548 -81.522955,42.32621 -34.39587,66.64776 z"/>
<path d="m 122.78636,426.75049 c 13.56156,7.2681 27.53826,13.73039 41.08447,21.02955 4.26342,2.29727 8.46433,4.7087 12.6965,7.06305 13.40205,7.46261 26.37637,15.63137 39.26627,23.93326 44.61042,28.6777 85.16682,-34.41096 40.5564,-63.08866 v 0 c -14.26302,-9.15372 -28.60357,-18.18619 -43.42596,-26.42112 -4.83653,-2.67902 -9.64007,-5.41848 -14.50959,-8.03706 -12.49812,-6.72087 -25.31484,-12.82755 -37.94084,-19.29919 -45.83479,-26.67719 -83.562036,38.14298 -37.72725,64.82017 z"/>
<path d="m 181.69936,906.17171 c 1.74577,-2.54728 3.54798,-5.05679 5.23733,-7.64183 3.90488,-5.97524 13.41119,-21.46621 16.49,-26.42003 9.7955,-15.76105 19.79101,-31.39755 29.53844,-47.18838 6.48734,-10.50948 12.83738,-21.10311 19.25607,-31.65467 21.96521,-35.94826 43.1649,-72.34275 64.15283,-108.86609 26.41921,-45.98397 -38.61193,-83.34639 -65.03115,-37.36242 v 0 c -20.67128,35.98664 -41.56349,71.83903 -63.20144,107.25693 -6.22938,10.24526 -12.38977,20.53278 -18.68812,30.73578 -15.49241,25.0969 -31.38323,49.95217 -46.90548,75.03108 -32.604436,41.82644 26.54708,87.93607 59.15152,46.10963 z"/>
<path d="m 485.57016,199.75139 c 30.41767,-1.61177 60.69589,-5.04396 90.98561,-8.15126 34.29912,-3.56961 68.69306,-6.42983 103.16823,-7.54472 19.07783,-0.61696 24.40813,-0.43905 42.83297,-0.36206 20.06439,0.78982 10.61544,0.25233 28.35273,1.50518 52.90658,3.65969 58.08216,-71.16152 5.17558,-74.82121 v 0 c -20.92305,-1.42155 -9.84036,-0.82226 -33.25407,-1.68347 -20.10494,-0.0639 -25.65633,-0.25066 -46.44787,0.43599 -35.91526,1.18612 -71.7479,4.14532 -107.48138,7.86185 -29.12435,2.98777 -58.23594,6.31382 -87.48274,7.87466 -52.95172,2.93516 -48.80078,77.8202 4.15094,74.88504 z"/>
<path d="m 583.50078,82.712001 c 1.12046,26.856729 1.27506,53.748109 1.7091,80.622789 0.22981,25.81155 0.40185,51.62979 -0.0352,77.44062 -0.26732,15.78571 -0.59497,32.66729 -2.12978,48.43361 -0.64687,6.64487 -1.7824,13.23307 -2.6736,19.8496 -1.43748,5.67836 -2.87497,11.35671 -4.31245,17.03507 -12.3965,51.56381 60.52575,69.09511 72.92225,17.5313 v 0 c 1.91977,-8.28628 3.83953,-16.57256 5.7593,-24.85884 1.05081,-8.2611 2.37082,-16.49239 3.15241,-24.78329 1.60891,-17.06692 1.99188,-35.41983 2.27882,-52.53165 0.44336,-26.4398 0.26781,-52.8871 0.0285,-79.32755 -0.45129,-27.9426 -0.59969,-55.90387 -1.82932,-83.825614 -3.12114,-52.941085 -77.99114,-48.52713 -74.87,4.413955 z"/>
<path d="m 550.24567,297.49052 c 13.20713,-2.9957 26.43651,-5.89572 39.84745,-7.84325 4.49377,-0.65258 9.00678,-1.16504 13.51017,-1.74757 21.80518,-2.31759 43.90553,-3.7328 65.81222,-1.8875 2.70749,0.22807 5.39608,0.6421 8.09412,0.96315 1.90254,0.37127 3.80508,0.74254 5.70762,1.11381 52.19338,9.39951 65.4863,-64.41308 13.29291,-73.81259 v 0 c -3.56389,-0.61319 -7.12778,-1.22637 -10.69168,-1.83955 -4.11345,-0.43824 -8.21605,-0.99425 -12.34035,-1.3147 -26.51366,-2.06009 -53.22822,-0.49701 -79.60804,2.41163 -5.3213,0.70336 -10.6543,1.32322 -15.96389,2.11008 -14.76443,2.18805 -29.34926,5.31849 -43.8955,8.62473 -51.7756,11.47986 -35.54063,84.70162 16.23497,73.22176 z"/>
<path d="m 378.48018,416.15777 c 23.13056,-1.97422 46.21977,-4.39735 69.34908,-6.4099 61.64786,-4.80041 123.34694,-8.98625 185.08105,-12.50482 44.95086,-2.19461 89.96833,-3.3229 134.97422,-2.85357 24.98072,0.26051 30.16912,0.60726 54.3944,1.50941 17.39092,0.70358 34.73976,2.04997 52.07152,3.59728 52.82502,4.69218 59.46077,-70.01369 6.63574,-74.70587 v 0 c -18.61806,-1.64611 -37.25289,-3.0968 -55.93375,-3.84011 -25.40764,-0.93457 -30.86078,-1.29591 -57.00668,-1.56053 -46.48409,-0.47047 -92.97968,0.69677 -139.40638,2.97509 -62.48028,3.56639 -124.92608,7.79353 -187.31835,12.66603 -22.8728,1.99436 -45.70825,4.37368 -68.58055,6.34694 -52.87748,4.05859 -47.13778,78.83864 5.7397,74.78005 z"/>
<path d="m 458.92459,466.54307 c 0.0533,23.68217 -0.0614,47.36369 -0.18498,71.04545 -0.0737,51.93759 0.051,103.87527 0.10908,155.81284 0.0381,35.89584 0.0571,71.79169 0.0704,107.68754 0.0197,53.033 75.01971,53.00512 74.99999,-0.0279 v 0 c -0.0134,-35.91452 -0.0324,-71.82904 -0.0705,-107.74354 -0.0579,-51.77911 -0.18162,-103.55831 -0.11006,-155.33744 0.1243,-23.81226 0.23918,-47.62429 0.18601,-71.43696 0,-53.033 -75,-53.033 -75,0 z"/>
<path d="m 509.18885,519.4866 c 10.7597,-2.22537 21.3826,-5.04445 32.12406,-7.3556 11.17477,-2.40438 16.72509,-3.38714 28.24207,-5.58422 27.08474,-5.0734 54.51558,-8.20461 82.05454,-9.21663 4.61943,-0.16975 9.24318,-0.18835 13.86478,-0.28252 17.7686,-0.18401 35.48476,1.16645 53.15134,2.89992 0.97959,0.098 6.38763,0.63984 7.73019,0.77125 0.87217,0.0854 1.74585,0.15593 2.61703,0.25093 0.18166,0.0198 0.71863,0.13284 0.54021,0.0934 -10.56351,-2.33745 -4.31729,-0.20552 -17.09889,-7.30992 -9.12078,14.5722 -4.57508,-13.0377 -8.742,-10.93608 -1.15511,0.58258 0.33629,2.56559 0.48256,3.85101 1.36606,12.00512 1.98187,23.97206 2.52359,36.04175 0.81353,36.93869 1.87652,73.89237 1.79166,110.84424 -0.0198,8.6267 -0.19951,17.2523 -0.29926,25.87845 -0.69603,24.66365 -2.62072,49.32183 -7.13994,73.60384 -2.87316,15.43761 -5.08344,22.44187 -9.10709,37.19169 -13.82323,51.19979 58.58421,70.74879 72.40744,19.549 v 0 c 4.94755,-18.48383 7.32682,-25.97265 10.84266,-45.43519 5.01269,-27.74863 7.2387,-55.89802 7.99213,-84.06075 0.1007,-9.0894 0.28233,-18.17826 0.30211,-27.2682 0.0825,-37.92126 -0.99943,-75.84513 -1.86905,-113.752 -0.71521,-15.20575 -1.24517,-30.4803 -3.57253,-45.55309 -1.13617,-7.35825 -3.04552,-17.22849 -6.68497,-23.75475 -2.56292,-4.59584 -6.3331,-8.40554 -9.49965,-12.60831 -4.41154,-2.73147 -8.54089,-5.98275 -13.23463,-8.19441 -6.98066,-3.28925 -15.22117,-2.78571 -22.66916,-3.84549 -20.6355,-2.01862 -41.3356,-3.50598 -62.08775,-3.23967 -5.3904,0.12267 -10.78341,0.1602 -16.1712,0.368 -30.94264,1.19344 -61.7632,4.74915 -92.1977,10.44585 -19.80347,3.78833 -39.55442,7.80268 -59.1155,12.71185 -52.25214,9.0672 -39.42919,82.96288 12.82295,73.89569 z"/>
<path d="m 526.88219,610.05345 c 19.18356,-0.31268 38.27473,-2.45041 57.40696,-3.7232 14.98116,-0.88988 29.98087,-0.75794 44.97251,-0.3563 53.0149,1.38587 54.97481,-73.58852 1.95991,-74.97438 v 0 c -17.3157,-0.44283 -34.64173,-0.5604 -51.94261,0.49822 -17.46545,1.17611 -34.89475,3.0493 -52.39677,3.55566 -53.03301,0 -53.03301,75 0,75 z"/>
<path d="m 518.75272,704.30726 c 17.17635,-0.29571 34.31504,-1.55604 51.46179,-2.52246 18.07436,-1.05461 36.16848,-1.08745 54.26024,-0.67117 53.01944,1.1998 54.71621,-73.781 1.69677,-74.9808 v 0 c -20.06521,-0.44719 -40.13428,-0.39692 -60.17934,0.77091 -15.74166,0.88802 -31.47395,2.0316 -47.23946,2.40352 -53.03301,0 -53.03301,75 0,75 z"/>
<path d="m 516.13235,809.23594 c 19.29974,-4.76843 39.05921,-7.09149 58.78904,-9.19761 29.48043,-2.55274 59.14562,-3.85972 88.73843,-2.89805 5.1787,0.16829 10.34915,0.53314 15.52373,0.79972 4.48794,0.37106 8.97588,0.74212 13.46383,1.11318 52.85852,4.29845 58.93744,-70.45479 6.07892,-74.75324 v 0 c -5.26612,-0.42214 -10.53223,-0.84428 -15.79835,-1.26641 -6.06286,-0.29516 -12.12144,-0.69787 -18.18858,-0.88548 -32.635,-1.00919 -65.34461,0.44204 -97.84987,3.32159 -23.38613,2.53882 -46.79868,5.41143 -69.64935,11.18473 -51.32292,13.3588 -32.43072,85.94037 18.8922,72.58157 z"/>
<path d="m 544.64876,811.76421 c -12.27871,14.02743 -25.35729,27.30866 -38.34473,40.67574 -12.17075,12.16664 -24.6539,24.01386 -37.04748,35.95171 -38.19566,36.79118 13.83493,90.80801 52.03059,54.01683 v 0 c 12.99024,-12.51258 26.07566,-24.92908 38.80876,-37.70541 15.3276,-15.77624 30.88473,-31.39472 44.88446,-48.38444 31.50475,-42.66088 -28.82685,-87.21532 -60.3316,-44.55443 z"/>
<path d="m 689.98348,894.81978 c 11.15789,8.54932 21.40413,18.20994 31.603,27.8601 8.89566,8.41303 17.37811,17.24948 25.23742,26.63748 34.16765,40.55949 91.52742,-7.76086 57.35977,-48.32035 v 0 c -9.74067,-11.51325 -20.09062,-22.48741 -31.07991,-32.82373 -12.71501,-12.00594 -25.52959,-23.99301 -39.5922,-34.42973 -43.18742,-30.779 -86.7155,30.29723 -43.52808,61.07623 z"/>
</svg>
