<?xml version="1.0" ?>
<svg xmlns="http://www.w3.org/2000/svg" viewBox="0 0 1000 1000">
<path d="m 128.11167,212.51202 c 14.30484,10.31778 28.86322,20.30448 42.87344,31.02793 3.71763,2.84548 7.3398,5.81355 11.00971,8.72032 15.47024,13.0733 7.78203,6.47481 23.06437,19.79582 39.98882,34.83381 89.25126,-21.71893 49.26244,-56.55273 v 0 c -16.80981,-14.63393 -8.20078,-7.26287 -25.83972,-22.09841 -4.30298,-3.39064 -8.55718,-6.84411 -12.90894,-10.17191 -13.40521,-10.25098 -27.25429,-19.92832 -41.0521,-29.6378 -41.66046,-32.81625 -88.069654,26.10053 -46.4092,58.91678 z"/>
<path d="m 104.78117,435.47614 c 17.12981,7.83575 33.3675,17.50235 49.45516,27.25804 4.44346,2.94586 8.88692,5.89172 13.33038,8.83759 44.25477,29.22353 85.58309,-33.36217 41.32831,-62.58571 v 0 c -5.27618,-3.47248 -10.55237,-6.94496 -15.82855,-10.41745 -18.98979,-11.47093 -38.16293,-22.81353 -58.43701,-31.89712 -48.652234,-21.10593 -78.500524,47.69872 -29.84829,68.80465 z"/>
<path d="m 148.77707,868.02003 c 1.17104,-1.45808 2.38888,-2.87979 3.51313,-4.37426 7.25616,-9.64557 9.93054,-13.83365 17.22921,-24.70832 12.50733,-18.63533 20.04404,-29.89635 32.41082,-49.74806 7.18025,-11.52603 14.12418,-23.19761 21.18627,-34.79642 31.36639,-50.53516 15.36289,-25.31659 48.02378,-75.64728 28.86139,-44.4918 -34.05952,-85.30797 -62.92091,-40.81617 v 0 c -33.57976,51.78371 -17.19817,25.95315 -49.17201,77.47442 -6.76523,11.12308 -13.41694,22.316 -20.29569,33.36924 -12.52693,20.12912 -18.81771,29.41624 -31.39646,48.2046 -4.70919,7.03393 -8.690442,13.1582 -13.607146,19.78709 -0.80721,1.08832 -1.68982,2.11863 -2.53472,3.17795 -33.995728,40.7037 23.567996,88.78087 57.563726,48.07721 z"/>
<path d="m 342.60362,253.52056 c 22.15986,-5.80463 44.96203,-8.04216 67.70457,-10.11483 46.69907,-3.55609 93.54287,-4.46534 140.35812,-4.89085 15.57358,-0.10401 31.1409,0.32823 46.70519,0.7869 53.01021,1.55487 55.20912,-73.41289 2.19891,-74.96775 v 0 c -16.526,-0.48257 -33.05529,-0.93192 -49.59094,-0.81601 -48.8851,0.45099 -97.80063,1.42217 -146.55983,5.20473 -7.2752,0.67813 -14.56225,1.2393 -21.82559,2.0344 -19.54428,2.13948 -38.96741,5.41545 -58.03755,10.22233 -51.29428,13.46835 -32.24716,86.00942 19.04712,72.54108 z"/>
<path d="m 416.03049,125.5753 c 1.16342,28.28085 1.06436,56.58792 0.92199,84.88552 -0.18141,30.39753 -0.45747,60.79353 -0.94494,91.18767 -0.84911,53.02621 74.14127,54.22703 74.99038,1.20082 v 0 c 0.49035,-30.66991 0.77199,-61.34165 0.95363,-92.01498 0.1447,-29.3497 0.23235,-58.70889 -0.97267,-88.0411 -1.96723,-52.996513 -76.91561,-50.214443 -74.94839,2.78207 z"/>
<path d="m 291.94022,354.19978 c 0.29816,1.86181 0.56401,3.72908 0.89449,5.58543 0.88208,4.95476 3.01851,15.62036 3.85773,20.03794 3.07459,16.18428 5.91112,32.41402 8.83146,48.62652 7.01557,36.8062 14.77875,73.45648 20.93881,110.42111 2.25972,14.93895 1.24636,7.90015 3.07349,21.11156 7.28235,52.53064 81.57188,42.23184 74.28953,-10.29879 v 0 c -2.01788,-14.52435 -0.90096,-6.80268 -3.38634,-23.15984 -6.23087,-37.27816 -13.975,-74.25825 -21.10341,-111.36976 -4.22316,-23.44512 -8.41103,-46.89647 -12.97748,-70.27726 -6.59242,-52.62167 -81.0107,-43.29858 -74.41828,9.32309 z"/>
<path d="m 384.92717,387.42408 c 20.76887,-8.48272 43.04337,-12.60326 64.97581,-16.85286 20.69612,-3.81488 41.5276,-6.88145 62.51059,-8.56872 9.63152,-0.77448 14.84733,-0.93832 24.30206,-1.37151 9.77579,-0.43803 19.57908,-0.57753 29.32975,0.34215 -1.29482,0.0262 -1.30061,0.0511 -3.46547,-0.56545 -8.84749,-2.51986 -14.74182,-7.21589 -20.12283,-14.84949 -1.57505,-2.23438 -2.33939,-4.94168 -3.50909,-7.41251 -0.22058,-0.64496 -0.51366,-2.60023 -0.66173,-1.93488 -0.27965,1.25665 0.17289,2.56912 0.23442,3.85504 0.28333,5.92152 0.47351,12.03142 0.5737,17.93536 0.23723,13.97932 0.12543,13.98575 -0.048,28.63795 -0.88618,28.59582 -3.63896,57.23854 -9.63324,85.24613 -1.14033,5.32804 -2.52639,10.60051 -3.78958,15.90077 -4.85324,18.16629 -10.34767,36.15134 -15.55864,54.21662 -14.69659,50.95596 57.36602,71.74009 72.06261,20.78412 v 0 c 5.5504,-19.24667 11.43269,-38.4004 16.49336,-57.78476 1.49798,-6.40739 3.14195,-12.78238 4.49395,-19.22215 6.78425,-32.31448 9.98876,-65.32157 10.92678,-98.29597 0.15533,-14.4542 0.2156,-28.87402 -0.28987,-43.32261 -0.1333,-3.81038 -0.51451,-13.18305 -1.05759,-17.35615 -0.39226,-3.01412 -1.03531,-5.99026 -1.55297,-8.98539 -1.52263,-3.72438 -2.43934,-7.75865 -4.56788,-11.17314 -7.83218,-12.56392 -19.5134,-18.86604 -33.76532,-20.36799 -13.16114,-1.16393 -26.38081,-1.2158 -39.57593,-0.56671 -11.06421,0.5211 -16.54959,0.69087 -27.8921,1.62489 -23.41671,1.92829 -46.67254,5.33949 -69.76993,9.6167 -27.30842,5.33945 -54.92033,10.80147 -80.64777,21.73407 -48.60404,21.21668 -18.59911,89.95317 30.00492,68.73649 z"/>
<path d="m 385.83863,487.38453 c 16.64079,-3.73353 33.05717,-8.39888 49.67452,-12.23005 5.03864,-1.16167 10.10675,-2.19159 15.16012,-3.28738 24.64937,-4.76327 49.90957,-8.1315 75.05575,-5.96798 3.37704,0.29056 6.71785,0.90868 10.07678,1.36301 2.64914,0.56589 5.29828,1.13178 7.94741,1.69767 52.00289,10.40191 66.71342,-63.14128 14.71053,-73.54319 v 0 c -4.50385,-0.86489 -9.0077,-1.72979 -13.51155,-2.59468 -5.38484,-0.62 -10.74889,-1.45984 -16.15451,-1.86 -31.53538,-2.3345 -63.17972,1.50257 -94.07823,7.62164 -5.68675,1.24233 -11.38858,2.4176 -17.06027,3.72699 -15.55945,3.59215 -30.94966,7.88476 -46.49784,11.52415 -52.00758,10.37842 -37.33029,83.92824 14.67729,73.54982 z"/>
<path d="m 387.81483,573.71222 c 20.42515,-2.65769 40.81374,-5.57657 61.24014,-8.22834 24.11315,-2.96833 48.34939,-5.3346 72.65743,-5.7602 4.78629,-0.0838 9.57401,0.0266 14.36101,0.0399 53.03298,0.0522 53.10678,-74.94778 0.0738,-74.99996 v 0 c -5.71322,0.003 -11.42757,-0.10499 -17.13966,0.009 -26.63355,0.53093 -53.19104,3.0655 -79.61263,6.33612 -20.99999,2.72878 -41.96367,5.71364 -62.95934,8.47191 -52.41905,8.04635 -41.0398,82.17807 11.37925,74.13172 z"/>
<path d="m 415.92676,575.95278 c 0,25.46609 0,50.93218 0,76.39827 0,42.15287 0,84.30573 0,126.4586 0.0798,14.61216 -0.396,29.21357 -1.0069,43.80938 -2.19307,52.98764 72.74277,56.08912 74.93585,3.10147 v 0 c 0.64031,-15.62953 1.15347,-31.26445 1.07105,-46.91085 0,-42.15287 0,-84.30573 0,-126.4586 0,-25.46609 0,-50.93218 0,-76.39827 0,-53.033 -75,-53.033 -75,0 z"/>
<path d="m 361.44064,802.82449 c 24.37005,-17.16473 48.66671,-34.43121 73.58715,-50.79918 9.318,-6.12014 18.74427,-12.07384 28.11641,-18.11076 42.28242,-26.64426 86.09525,-50.723 129.81842,-74.88615 46.41572,-25.6531 10.13675,-91.29483 -36.27896,-65.64173 v 0 c -45.1993,24.98268 -90.47828,49.90094 -134.16591,77.48431 -9.76711,6.29677 -19.59,12.50783 -29.30132,18.89029 -25.60693,16.82937 -50.57752,34.57411 -75.62322,52.21584 -43.02559,31.00482 0.82184,91.85219 43.84743,60.84738 z"/>
<path d="m 645.56251,315.22892 c 3.81652,24.1018 3.45027,48.60576 3.3319,72.92517 -0.21029,8.97222 -0.31957,17.94738 -0.63087,26.91667 -0.78424,22.59561 -1.62168,40.19489 -4.1658,62.80027 -4.15121,36.88495 -11.36843,73.36185 -18.06893,109.83816 -9.29068,48.15432 -21.85999,95.68611 -36.66005,142.43396 -3.23596,10.22121 -6.77469,20.34409 -10.16203,30.51613 -16.73164,50.32447 54.43791,73.98658 71.16955,23.66211 v 0 c 3.60328,-10.85398 7.36466,-21.65674 10.80986,-32.56193 15.60596,-49.39814 28.81144,-99.6291 38.60958,-150.50611 7.13127,-38.85768 14.68766,-77.69324 19.02949,-116.99437 2.66201,-24.09586 3.59664,-43.41573 4.41818,-67.44991 0.32291,-9.44683 0.4336,-18.89972 0.6504,-28.34958 0.0984,-29.35356 0.33498,-58.95517 -4.79406,-87.97091 -10.42299,-51.99866 -83.96021,-37.25833 -73.53722,14.74034 z"/>
<path d="m 765.84445,172.37485 c 19.16784,-5.11447 38.38938,-9.97738 57.80146,-14.07286 17.93819,-3.44745 35.95046,-6.57587 54.10216,-8.66275 2.45577,-0.2412 3.20955,-0.33607 5.45273,-0.49437 0.42988,-0.0303 1.69619,-0.2186 1.29083,-0.0723 -0.41907,0.15121 -0.88836,0.10188 -1.33365,0.0878 -6.11913,-0.19371 -4.77391,-0.4544 -12.67925,-2.63942 -11.76918,-8.02916 -10.05122,-5.04564 -16.85999,-15.14177 -0.57922,-0.85888 -0.82132,-1.91056 -1.36791,-2.79056 -0.11499,-0.18513 2.1e-4,0.43829 0.0399,0.65257 0.22999,1.24016 0.53633,2.4653 0.7682,3.70511 0.33201,1.77533 0.61548,3.5594 0.92322,5.3391 4.22772,29.90967 5.35589,60.13944 6.4619,90.28993 1.72063,60.42006 0.0341,120.86767 -1.606,181.26902 -2.26482,70.65239 -3.45067,141.33202 -5.38382,211.9929 -1.3583,41.05281 -3.10581,82.12977 -7.1655,123.0188 -2.13601,21.5138 -3.00557,26.45412 -5.86495,47.19906 -3.75241,23.80319 -8.00517,47.73096 -16.37883,70.40702 -0.2869,0.49942 -1.15624,1.99264 -0.8607,1.49828 7.12968,-11.9264 4.98186,-11.53266 24.09353,-18.55855 3.21827,-1.18311 6.89503,0.47364 10.28651,-0.0312 0.58078,-0.0865 -0.67923,-0.9873 -1.15769,-1.32766 -2.50999,-1.78552 -5.17376,-3.34435 -7.76064,-5.01653 -27.22772,-18.01077 -55.36776,-34.56116 -83.53472,-51.04203 -45.77453,-26.78046 -83.64781,37.9545 -37.87328,64.73495 v 0 c 27.38608,16.02053 54.7495,32.10199 81.21237,49.6262 12.40129,7.77846 30.75476,20.33786 46.29642,17.68344 21.17891,-3.61723 26.89841,-9.26883 36.41966,-24.39174 1.48564,-2.35968 2.26601,-5.0957 3.39901,-7.64355 9.94625,-27.81934 15.87431,-56.53039 20.16129,-85.73699 3.06806,-22.42696 3.99169,-27.69311 6.27878,-50.88868 4.17813,-42.37448 6.02556,-84.93797 7.42072,-127.48065 1.93156,-70.66606 3.12126,-141.3507 5.38423,-212.00827 1.68191,-62.0008 3.38904,-124.04941 1.58264,-186.06858 -1.24624,-33.60592 -2.56298,-67.31082 -7.5616,-100.61241 -1.485,-8.24438 -3.31758,-20.59039 -7.39713,-27.88756 -6.92222,-12.381913 -7.37671,-10.501713 -19.69515,-19.414003 -3.44158,-1.04512 -6.81557,-2.34636 -10.32472,-3.13536 -6.97657,-1.56861 -14.31263,-0.11052 -21.30591,0.37731 -20.4703,2.39012 -40.79955,5.83705 -61.02226,9.79524 -21.32122,4.54198 -42.46608,9.807383 -63.50479,15.518303 -50.8571,15.03513 -29.59422,86.95793 21.26288,71.92281 z"/>
<path d="m 730.54605,416.29726 c 10.0872,-1.4369 20.50533,-2.38388 30.7773,-2.98618 7.88882,-0.51417 15.77664,-0.37817 23.63376,0.42518 52.81008,4.85747 59.67958,-69.82726 6.8695,-74.68473 v 0 c -11.65603,-1.00882 -23.34195,-1.40939 -35.03307,-0.60353 -14.87195,0.92196 -29.76349,2.17689 -44.39965,5.07908 -51.45629,12.83552 -33.30413,85.6057 18.15216,72.77018 z"/>
<path d="m 699.22566,551.42157 c 17.24512,-1.89865 34.48258,-3.76878 51.78104,-5.13132 12.72157,-0.93259 25.44597,-1.8218 38.17234,-2.68584 52.91113,-3.59335 47.82936,-78.42099 -5.08177,-74.82764 v 0 c -13.00592,0.88352 -26.00994,1.79125 -39.01076,2.7475 -16.63154,1.32323 -33.24283,2.88032 -49.79394,5.0005 -52.96003,2.78111 -49.02694,77.67791 3.93309,74.8968 z"/>
</svg>
