<?xml version="1.0" ?>
<svg xmlns="http://www.w3.org/2000/svg" width="1000" height="1000">
<path d="m 106.70751,210.74172 c 20.3473,10.50919 40.8844,20.66956 61.39922,30.85302 23.56952,11.47721 11.4418,5.65366 36.39355,17.44901 47.94839,22.65948 79.99373,-45.14978 32.04534,-67.80926 v 0 c -23.99386,-11.33537 -12.29889,-5.72265 -35.0939,-16.81944 -19.67185,-9.76342 -39.35697,-19.52107 -58.89219,-29.54922 -46.581289,-25.35121 -82.433306,40.52468 -35.85202,65.87589 z"/>
<path d="m 84.057405,465.19246 c 22.285415,10.11542 45.328905,18.40035 68.369225,26.5965 22.22914,7.77907 11.31129,3.96941 32.75283,11.43108 50.08685,17.43007 74.73669,-53.40344 24.64984,-70.83351 v 0 c -21.20238,-7.37828 -10.44263,-3.62406 -32.27868,-11.26429 -20.92434,-7.43471 -41.8657,-14.91251 -62.12176,-24.05343 -48.170693,-22.18297 -79.54215,45.94068 -31.371455,68.12365 z"/>
<path d="m 157.47844,892.85014 c 22.45914,-34.4976 44.59852,-69.20026 67.1927,-103.60994 20.56752,-31.06775 41.5109,-61.87974 62.56239,-92.62032 29.96331,-43.75729 -31.91884,-86.13181 -61.88215,-42.37452 v 0 c -21.32444,31.14362 -42.54321,62.35703 -63.37568,93.83318 -22.47906,34.24358 -44.52873,68.76353 -66.857992,103.1046 -29.463019,44.0957 32.897712,85.7627 62.360732,41.667 z"/>
<path d="m 335.14282,139.2407 c 0,27.17016 0,54.34032 0,81.51048 -0.0355,53.95203 0.082,107.90425 -0.0778,161.85611 -0.0536,28.63063 -0.78737,57.24377 -2.14488,85.83962 -2.50005,52.97405 72.41656,56.50967 74.91662,3.53562 v 0 c 1.39395,-29.70034 2.18034,-59.41756 2.22794,-89.15358 0.15933,-54.02575 0.0433,-108.05185 0.0781,-162.07777 0,-27.17016 0,-54.34032 0,-81.51048 0,-53.033008 -75,-53.033008 -75,0 z"/>
<path d="m 387.75445,204.21928 c 24.47857,-7.2955 49.7223,-11.53008 74.88396,-15.65853 24.18182,-3.45025 48.5978,-5.68387 73.0461,-5.3485 11.39185,0.15627 16.67299,0.70627 27.81257,1.53203 10.89773,0.87513 21.72046,2.38784 32.48492,4.26474 52.25809,9.03282 65.03244,-64.87128 12.77434,-73.9041 v 0 c -13.21043,-2.26796 -26.4877,-4.12324 -39.8585,-5.16594 -13.95078,-0.98493 -19.64015,-1.5853 -33.99539,-1.72265 -28.267,-0.27046 -56.49468,2.27595 -84.44613,6.34038 -29.29769,4.83724 -58.70606,9.85495 -87.10231,18.74277 -50.14787,17.25372 -25.74743,88.17352 24.40044,70.9198 z"/>
<path d="m 459.04516,184.00786 c 0.20324,17.11614 0.0365,34.23774 -0.0143,51.35535 -0.0414,16.01468 -0.0229,7.79078 -0.0544,24.6717 -0.0988,53.03291 74.90102,53.17271 74.99987,0.1398 v 0 c 0.0313,-16.81728 0.013,-8.62108 0.0542,-24.58861 0.0546,-18.38321 0.28361,-36.77358 -0.0706,-55.15357 -2.52814,-52.97272 -77.44288,-49.39738 -74.91473,3.57533 z"/>
<path d="m 415.38879,320.24143 c 18.01513,-4.29258 36.42982,-6.43338 54.79289,-8.59157 19.68558,-2.08561 39.51417,-3.07384 59.30544,-2.27657 9.9915,0.4025 16.1202,1.07816 26.02389,1.9736 14.68531,1.50409 29.33644,3.54869 43.71151,6.94354 -0.84717,2.35304 2.92808,-0.18071 3.37245,0.89403 0.10522,0.25448 -0.54123,-0.11033 -0.80139,-0.20058 -0.72008,-0.24979 -1.45418,-0.47578 -2.13517,-0.81809 -6.80749,-3.42185 -5.32662,-3.2151 -12.47098,-9.908 -2.1206,-4.41329 -4.2412,-8.82658 -6.3618,-13.23987 -0.27194,-1.65355 -0.18092,-3.40981 -0.81582,-4.96064 -0.21101,-0.51542 -0.41674,1.03497 -0.5724,1.56973 -0.57155,1.96361 -1.0125,3.96436 -1.60792,5.92087 -2.218,7.28819 -3.81677,11.29515 -6.52721,18.7069 -6.28543,16.12187 -12.08566,32.41434 -17.53456,48.83514 -16.67564,50.34305 54.52019,73.92597 71.19583,23.58291 v 0 c 5.20974,-15.75967 10.82775,-31.36951 16.84298,-46.84167 4.40565,-12.22267 8.97429,-24.43123 11.49897,-37.22316 1.30325,-6.60328 2.83141,-17.11969 1.18381,-23.68483 -1.5345,-6.11447 -4.78433,-11.66515 -7.1765,-17.49773 -3.08556,-3.08759 -5.90574,-6.46544 -9.25669,-9.26277 -5.77395,-4.82002 -14.55417,-7.09321 -21.74929,-8.90049 -17.8192,-4.14093 -35.93403,-6.83591 -54.13788,-8.61919 -12.40373,-1.09184 -18.71366,-1.80008 -31.35043,-2.25788 -23.17113,-0.83944 -46.38012,0.30946 -69.42306,2.78118 -20.8637,2.46937 -41.76861,4.99996 -62.24187,9.85344 -51.77556,11.48001 -35.54037,84.70172 16.2352,73.2217 z"/>
<path d="m 408.22244,415.79536 c 19.64717,-2.30688 39.38717,-3.45259 59.14688,-4.2547 32.60986,-1.45082 65.12547,1.33836 97.41608,5.6269 3.87969,0.62869 7.75938,1.25737 11.63907,1.88606 52.36086,8.41665 64.2638,-65.63279 11.90294,-74.04944 v 0 c -4.5785,-0.73091 -9.15701,-1.46182 -13.73551,-2.19274 -5.43372,-0.71221 -10.85809,-1.49978 -16.30115,-2.13663 -31.19041,-3.64934 -62.60949,-5.24679 -94.00604,-4.07069 -24.15317,1.00668 -48.3885,2.21145 -72.29746,5.96953 -51.77557,11.48002 -35.54037,84.70173 16.23519,73.22171 z"/>
<path d="m 450.08422,419.5958 c -0.08,-0.143 -0.22843,-0.59242 -0.23989,-0.42899 -0.0518,0.73829 0.10251,1.47735 0.11441,2.21735 0.0249,1.55128 0.0273,3.10327 -0.004,4.65443 -0.0519,2.57901 -0.12865,5.15782 -0.2454,7.7347 -0.40913,9.02958 -0.71972,11.84674 -1.46604,21.3145 -4.12271,52.87252 70.65032,58.70291 74.77303,5.83039 v 0 c 1.55421,-20.12417 3.7461,-40.74819 -0.47544,-60.68792 -13.6935,-51.23463 -86.15022,-31.8691 -72.45671,19.36554 z"/>
<path d="m 383.30528,525.50187 c 19.3434,-4.56098 39.18455,-6.46747 58.9083,-8.55007 41.55388,-4.1668 83.33587,-4.04088 125.01664,-2.49165 21.24182,1.39351 11.03918,0.57994 30.61292,2.37715 52.8152,4.80148 59.60551,-69.8905 6.7903,-74.69198 v 0 c -22.21673,-2.00204 -10.66783,-1.10141 -34.65186,-2.63469 -45.2408,-1.64163 -90.58857,-1.71756 -135.68473,2.86017 -23.16845,2.47118 -46.45416,4.84865 -69.14325,10.36077 -51.45637,12.83518 -33.30469,85.60548 18.15168,72.7703 z"/>
<path d="m 694.23053,106.00468 c -0.083,0.087 -0.2255,0.14313 -0.24895,0.26107 -3.70143,18.61569 3.99706,-16.224406 -2.53556,13.70443 -3.2608,14.93916 -7.03121,29.77939 -10.51502,44.66752 -4.821,20.73317 -9.74177,41.47077 -16.06679,61.80754 -2.54653,8.18786 -3.82339,11.57842 -6.5696,19.32554 -7.04904,18.60692 -18.80256,39.16924 2.62349,58.15577 10.0743,8.92726 26.23724,6.02971 39.35586,9.04457 3.53886,-1.33126 7.09018,-2.62989 10.61659,-3.9938 2.94901,-1.14058 5.84626,-2.41403 8.80868,-3.51931 8.08911,-3.01803 16.79508,-5.89231 25.09671,-8.1285 14.21326,-3.8286 19.92183,-4.65059 34.65014,-7.51175 25.57309,-4.34803 51.46785,-6.91344 77.39412,-7.78277 14.31192,-0.47989 19.63877,-0.24134 33.66904,-0.0355 11.49216,0.32914 22.95819,1.15652 34.41872,2.02536 52.88271,3.98982 58.52518,-70.79763 5.64246,-74.78745 v 0 c -12.99917,-0.97646 -26.00513,-1.9006 -39.04112,-2.23097 -16.29177,-0.20633 -21.90255,-0.46308 -38.56171,0.1286 -29.48218,1.0471 -58.91966,4.0422 -87.985,9.09055 -7.22415,1.43363 -14.48335,2.70073 -21.67245,4.30091 -14.0326,3.12343 -24.13004,5.90996 -37.60183,10.3446 -5.88423,1.93698 -16.94255,5.96817 -23.22326,8.69349 -0.46652,0.20243 -0.83779,0.57671 -1.25669,0.86506 10.99233,3.57311 25.0267,2.32937 32.97697,10.71933 8.00842,8.45133 6.08584,22.4767 9.12876,33.71504 -0.45813,1.24491 -1.61208,2.42967 -1.3744,3.73473 0.22459,1.23317 0.94485,-2.32202 1.42048,-3.48172 3.82609,-9.3288 1.66644,-3.83702 5.63315,-14.36896 3.31272,-9.40811 4.6925,-13.06863 7.77207,-23.03443 6.7137,-21.72625 12.04117,-43.84758 17.17353,-65.99021 1.29194,-5.5229 2.58387,-11.0458 3.8758,-16.5687 1.27994,-5.33462 2.58887,-10.66237 3.83981,-16.00386 2.94028,-12.55497 6.03999,-25.23374 7.15555,-38.12047 0.24743,-2.85825 0.21012,-5.73404 0.31518,-8.60106 -2.52814,-52.972717 -77.44287,-49.397378 -74.91473,3.57534 z"/>
<path d="m 713.04199,444.72392 c 17.9129,-3.16301 35.99396,-5.19932 54.08796,-6.97689 25.30757,-2.12038 50.67908,-0.85705 75.88426,1.76156 52.75359,5.43681 60.4424,-69.16803 7.68881,-74.60484 v 0 c -8.91054,-0.91197 -14.39193,-1.54613 -23.58717,-2.14199 -22.43055,-1.45353 -44.96064,-1.43486 -67.37296,0.34995 -20.23739,2.01625 -40.46433,4.29747 -60.49281,7.89123 -52.1286,9.75235 -38.3367,83.47333 13.79191,73.72098 z"/>
<path d="m 350.00524,627.58603 c 5.23318,24.23013 10.08958,48.53545 14.50269,72.92765 4.17907,24.36347 7.76882,48.83962 12.93865,73.02321 2.61059,12.2119 3.40467,14.73923 6.42415,26.2223 3.92697,12.54947 1.90846,6.66452 5.95813,17.68798 18.57096,49.67514 88.82222,23.41184 70.25126,-26.2633 v 0 c -2.43286,-6.30616 -1.16113,-2.78419 -3.70357,-10.60554 -2.48873,-9.33815 -3.22906,-11.71225 -5.38513,-21.7437 -5.10183,-23.73703 -8.53387,-47.78373 -12.68533,-71.69374 -4.54478,-25.04361 -9.50376,-50.00581 -14.88415,-74.88418 -10.83946,-51.91345 -84.25616,-36.58413 -73.4167,15.32932 z"/>
<path d="m 507.80634,653.06578 c 22.14427,-4.92634 44.43675,-9.0858 66.78556,-12.95972 39.63393,-6.63609 79.77782,-8.65774 119.89093,-9.34356 20.36646,-0.42288 40.66749,1.07228 60.88608,3.33674 6.2864,0.74481 2.37832,0.27711 7.72339,0.92553 0.83194,0.10092 1.66545,0.18949 2.49595,0.30167 0.13503,0.0182 0.53359,0.11004 0.3989,0.0894 -0.58888,-0.0904 -1.18455,-0.15293 -1.76221,-0.29874 -1.19096,-0.30062 -2.35706,-0.69232 -3.53558,-1.03848 -9.38069,-5.05249 -9.25176,-3.87292 -16.51872,-12.90474 -1.27762,-1.5879 -1.94196,-3.58456 -2.96825,-5.34536 -0.0989,-0.16959 -0.39921,-0.62894 -0.3995,-0.43265 -0.002,1.24244 0.31761,2.46631 0.39481,3.70635 0.14829,2.38215 0.18755,4.76984 0.28133,7.15476 0.2492,36.10289 -6.93825,71.59954 -14.14624,106.79497 -4.36592,20.00448 -9.0735,40.01457 -16.19079,59.25388 -4.09819,11.07813 -6.18444,14.71153 -11.17655,24.82058 -23.17986,47.699 44.27671,80.48026 67.45657,32.78127 v 0 c 6.92454,-14.41555 9.26204,-18.44141 14.95902,-34.1498 7.98581,-22.0194 13.48345,-44.83051 18.43278,-67.688 8.47981,-41.57048 16.5826,-83.57213 15.53588,-126.21541 -0.73397,-10.62748 -1.02711,-22.09665 -4.8747,-32.23207 -1.2359,-3.25562 -2.49539,-6.57883 -4.49217,-9.43179 -7.46325,-10.66336 -9.0433,-10.18858 -19.40559,-16.12658 -1.82944,-0.59613 -3.63386,-1.27535 -5.48831,-1.78839 -5.99119,-1.65747 -12.28346,-1.78808 -18.39559,-2.71295 -23.41779,-2.60878 -46.93805,-4.25802 -70.52178,-3.78869 -43.9722,0.78472 -87.97186,3.10729 -131.40832,10.43741 -23.68671,4.11816 -47.31729,8.527 -70.78537,13.76677 -51.68076,11.89953 -34.85229,84.98717 16.82847,73.08764 z"/>
<path d="m 500.61955,656.42863 c -0.0382,22.55016 0.39103,45.09862 0.7707,67.64477 0.35728,20.4974 1.33728,40.97612 2.30574,61.45143 2.5065,52.97375 77.42269,49.42902 74.91618,-3.54473 v 0 c -0.93318,-19.71531 -1.88561,-39.43364 -2.23256,-59.17021 -0.37301,-22.12501 -0.79709,-44.25231 -0.76006,-66.38126 0,-53.03301 -75,-53.03301 -75,0 z"/>
<path d="m 625.05281,623.9273 c 0.16053,15.86802 0.0532,31.71629 -1.59519,47.51915 -0.62442,5.98607 -1.49024,11.9445 -2.23536,17.91674 -4.53753,28.85991 -12.12964,57.12363 -18.90397,85.51115 -12.30973,51.5846 60.64191,68.99318 72.95163,17.40858 v 0 c 7.42463,-31.1141 15.71571,-62.10372 20.39458,-93.78999 0.85664,-7.08817 1.86445,-14.15971 2.56991,-21.26452 1.76033,-17.72845 2.00978,-35.5048 1.8184,-53.30111 0,-53.03301 -75,-53.03301 -75,0 z"/>
<path d="m 305.77882,896.01707 c 20.16585,-5.56947 40.48717,-10.48006 60.88934,-15.10219 48.31445,-10.09758 97.47706,-15.83339 146.66934,-19.49584 12.64433,-0.94139 25.30888,-1.58801 37.96332,-2.38202 65.08084,-3.55492 130.34376,-3.16771 195.40857,0.53108 11.36443,0.64605 22.71305,1.54533 34.06958,2.31799 25.6695,2.10272 51.34403,4.41392 76.85219,8.03487 10.48028,1.4877 18.26624,2.75931 28.31335,5.12174 2.74698,0.64592 5.44822,1.47284 8.17234,2.20925 51.28149,13.51697 70.39737,-59.00602 19.11588,-72.52298 v 0 c -4.02197,-1.04174 -8.01557,-2.19993 -12.06592,-3.12523 -11.93965,-2.72762 -21.74906,-4.34672 -34.01618,-6.07619 -26.98656,-3.80469 -54.14362,-6.2645 -81.29935,-8.46974 -11.88862,-0.80304 -23.76908,-1.73757 -35.66585,-2.40911 -67.79472,-3.82685 -135.79419,-4.18707 -203.6025,-0.46314 -13.25254,0.83891 -26.51578,1.52306 -39.75761,2.51674 -52.58503,3.94603 -105.12297,10.18526 -156.75205,21.07155 -20.91863,4.75281 -41.77114,9.74404 -62.44613,15.47292 -51.45637,12.83517 -33.30469,85.60547 18.15168,72.7703 z"/>
</svg>
