<?xml version="1.0" ?>
<svg xmlns="http://www.w3.org/2000/svg" width="1000" height="1000">
<path d="m 51.798464,342.33471 c 14.46912,25.43388 29.154684,50.73535 44.095103,75.89573 3.174154,5.53465 6.348313,11.0693 9.522463,16.60394 26.39382,45.99855 91.44559,8.67206 65.05177,-37.32649 v 0 c -3.36244,-5.85718 -6.72488,-11.71437 -10.08732,-17.57155 -14.36717,-24.19333 -28.48172,-48.52592 -42.4384,-72.95729 -25.00023,-46.77059 -91.143842,-11.41493 -66.143616,35.35566 z"/>
<path d="m 335.00243,266.49051 c 0,6.07248 0.13665,12.45177 -0.57589,18.46921 -1.21784,10.2846 -4.52347,23.93184 -6.96677,33.46944 -6.65861,25.99232 -6.90193,25.22223 -15.49058,51.38876 -3.53155,8.60797 -7.0631,17.21594 -10.59465,25.82391 -19.96542,49.13127 49.5167,77.36663 69.48211,28.23536 v 0 c 4.13719,-10.26341 8.27438,-20.52682 12.41156,-30.79022 3.25818,-10.0341 6.75449,-19.99398 9.77454,-30.1023 2.74323,-9.18178 5.1913,-18.45213 7.50998,-27.7502 4.26931,-17.12021 6.9652,-29.30131 8.78319,-46.58899 0.78442,-7.45927 0.66651,-14.71858 0.66651,-22.15497 0,-53.03301 -75,-53.03301 -75,0 z"/>
<path d="m 211.13822,142.45842 c 2.37975,31.2913 2.02297,62.6876 1.81366,94.04127 -0.47232,65.46533 -9.76746,130.56754 -22.99305,194.58685 -3.35811,16.25514 -7.22224,32.40163 -10.83336,48.60244 -20.96143,87.17769 -48.03703,172.80034 -78.96157,256.9326 -5.890359,16.02511 -12.141571,31.91526 -18.212355,47.87289 -22.538563,56.50615 -11.517877,28.9068 -33.059232,82.79916 -19.683672,49.24483 49.959031,77.08174 69.642707,27.83691 v 0 c 21.71361,-54.3234 10.53875,-26.33044 33.51996,-83.9807 6.26033,-16.47313 12.7052,-32.8773 18.781,-49.41938 31.9595,-87.01336 59.88719,-175.58358 81.49949,-265.75358 3.77435,-16.99503 7.81756,-33.93257 11.32305,-50.98508 14.06934,-68.44053 23.79014,-138.03416 24.29174,-207.99968 0.21168,-32.76893 0.55194,-65.58247 -1.90603,-98.28737 -2.65425,-52.966544 -77.56025,-49.212872 -74.90601,3.75367 z"/>
<path d="m 193.73176,641.41376 c 20.75331,13.3639 40.54804,28.10827 59.99655,43.28478 21.16873,16.97746 40.37848,36.22091 57.92996,56.88008 34.40767,40.35608 91.47977,-8.30371 57.07211,-48.65978 v 0 c -20.91255,-24.45819 -43.69391,-47.31376 -68.90253,-67.37968 -22.58747,-17.57875 -45.54345,-34.79091 -69.92748,-49.828 -46.45876,-25.57506 -82.62736,40.12754 -36.16861,65.7026 z"/>
<path d="m 612.82012,199.10513 c 11.14228,2.86887 21.94516,6.96989 32.59881,11.27764 4.54621,1.83823 9.10164,3.66207 13.5659,5.69123 4.28198,1.94631 8.44067,4.1532 12.66101,6.2298 3.52885,2.35223 7.05771,4.70445 10.58657,7.05667 44.69591,28.54427 85.06361,-34.66529 40.3677,-63.20957 v 0 c -6.04349,-3.76099 -12.08698,-7.52198 -18.13047,-11.28298 -5.51321,-2.66111 -10.95916,-5.46632 -16.53962,-7.98334 -5.10919,-2.30445 -10.31651,-4.38678 -15.51753,-6.47572 -13.29996,-5.34182 -26.80721,-10.30832 -40.70042,-13.88537 -51.32297,-13.35863 -70.21492,59.22301 -18.89195,72.58164 z"/>
<path d="m 507.94727,349.84172 c 17.96021,-5.40674 35.99451,-10.58784 54.30275,-14.70233 7.23691,-1.62639 14.5192,-3.04378 21.7788,-4.56567 43.95753,-8.03689 88.44258,-13.24666 133.06951,-15.58529 8.40482,-0.44045 16.82083,-0.63228 25.23124,-0.94842 31.73787,-0.59997 63.53739,0.87057 94.91087,5.80126 4.26833,0.70465 8.49076,1.65278 12.65564,2.81702 0.63506,0.17752 2.50484,0.82582 1.88266,0.6074 -0.81411,-0.2858 -1.61746,-0.60134 -2.42619,-0.90202 -11.17629,-7.58597 -10.39324,-5.29759 -17.50973,-17.67799 -0.936,-1.62833 -0.88817,-3.69834 -1.80473,-5.33769 -0.33562,-0.60028 -0.0289,1.37531 -0.0261,2.06304 0.009,2.17911 0.0814,4.35807 0.0604,6.53708 -0.0321,3.33174 -0.14642,6.66218 -0.21964,9.99326 -1.51913,38.25499 -11.40486,75.47959 -20.15896,112.55369 -7.002,30.40268 -3.56845,15.12685 -10.29704,45.82829 -11.34867,51.80451 61.91398,67.85396 73.26265,16.04944 v 0 c 6.52226,-29.78621 3.17977,-14.90435 10.02788,-44.64549 9.96968,-42.23815 20.83065,-84.69274 22.15081,-128.30272 0.14836,-8.22847 0.40754,-14.24583 0.0516,-22.29507 -0.26949,-6.09514 -0.88143,-14.64531 -3.34276,-20.12674 -6.62423,-14.75231 -8.43055,-13.83574 -20.48704,-22.60708 -1.63439,-0.68585 -3.24695,-1.42623 -4.90317,-2.05754 -8.7925,-3.35153 -18.26226,-4.73692 -27.42241,-6.61093 -10.38395,-1.59332 -13.46427,-2.17802 -24.50406,-3.33604 -28.14407,-2.95217 -56.47795,-3.83562 -84.7627,-3.29654 -9.1193,0.35329 -18.24471,0.57384 -27.3579,1.05989 -48.1417,2.5676 -96.12954,8.24073 -143.53078,17.02779 -8.02926,1.69665 -16.08355,3.27893 -24.0878,5.08994 -18.80935,4.25573 -37.3859,9.47239 -55.82792,15.09105 -51.24998,13.63596 -31.96581,86.11438 19.28417,72.47841 z"/>
<path d="m 546.17585,503.39889 c 27.51731,-4.73198 55.40419,-7.07624 83.1813,-9.72464 36.76325,-3.24809 73.64379,-5.43926 110.55428,-5.8968 8.47728,-0.10508 16.95826,-0.18986 25.43378,0.0119 7.87134,0.18739 15.7283,0.77015 23.59244,1.15522 52.97404,2.50024 56.50992,-72.41636 3.53588,-74.91661 v 0 c -9.04237,-0.41287 -18.07761,-1.03447 -27.1271,-1.23861 -9.09454,-0.20516 -18.19447,-0.107 -27.29056,0.0111 -38.67013,0.50188 -77.3083,2.80211 -115.824,6.21307 -30.01095,2.86674 -60.13459,5.43992 -89.84827,10.66449 -52.12856,9.75259 -38.33632,83.4735 13.79225,73.72092 z"/>
<path d="m 500.23041,331.50799 c 0.46435,17.64263 0.89626,35.32464 0.30535,52.9706 -0.24607,7.34851 -0.7664,14.68527 -1.1496,22.0279 -5.05586,53.79257 -18.96995,106.38094 -37.1463,157.14445 -4.63007,12.931 -9.7792,25.67022 -14.6688,38.50533 -21.57929,53.01815 -44.33495,105.68141 -70.60887,156.57315 -5.89401,11.4165 -12.22235,22.60348 -18.33353,33.90522 -25.19474,46.66611 40.8011,82.29684 65.99584,35.63074 v 0 c 6.52945,-12.11144 13.28482,-24.10378 19.58835,-36.33433 27.33121,-53.02992 51.04154,-107.88241 73.4661,-163.13114 5.24163,-13.82339 10.77087,-27.54112 15.7249,-41.47017 20.33468,-57.17423 35.62569,-116.4364 40.88552,-177.01407 0.41388,-8.33114 0.97083,-16.65641 1.24165,-24.99343 0.66302,-20.41116 0.27327,-40.90023 -0.67448,-61.29353 -5.28864,-52.76864 -79.91478,-45.28937 -74.62613,7.47928 z"/>
</svg>
