<?xml version="1.0" ?>
<svg xmlns="http://www.w3.org/2000/svg" width="1000" height="1000">
<path d="m 282.19464,232.93013 c 11.40861,15.70784 22.90381,31.38162 35.34995,46.29301 4.10721,4.92073 8.37081,9.70878 12.55622,14.56317 3.87,4.31994 7.74001,8.63987 11.61001,12.95981 35.4007,39.48786 91.24496,-10.57629 55.84426,-50.06414 v 0 c -3.56828,-3.97713 -7.13656,-7.95426 -10.70484,-11.9314 -3.65201,-4.21591 -7.37303,-8.37301 -10.95603,-12.64773 -12.04153,-14.36624 -23.04624,-29.55773 -34.09127,-44.6903 -32.18579,-42.14943 -91.79409,3.36815 -59.6083,45.51758 z"/>
<path d="m 625.05164,167.19485 c -0.0315,-0.33255 0.23366,-0.93493 -0.0944,-0.99765 -0.38634,-0.0739 -0.65559,0.4758 -0.85162,0.8168 -1.23014,2.13985 -2.2058,4.41784 -3.39956,6.57819 -4.46852,8.08674 -8.76073,15.22783 -14.1143,22.86454 -3.41818,4.87595 -7.11859,9.54783 -10.67789,14.32175 -10.87012,13.10479 -16.5037,20.27288 -28.32115,32.90112 -6.09845,6.51688 -12.46994,12.77277 -18.70492,19.15916 -36.99194,38.00126 16.74996,90.31577 53.74191,52.31451 v 0 c 7.01287,-7.22292 14.17718,-14.30182 21.0386,-21.66877 13.88167,-14.9044 19.715,-22.49215 32.56173,-38.13069 4.46047,-6.07786 9.09942,-12.02868 13.38141,-18.23358 6.33555,-9.18066 13.01987,-20.22133 18.27263,-30.17966 4.34275,-8.23313 7.69681,-15.45643 10.27551,-24.42112 0.79847,-2.77583 1.05514,-5.67958 1.58271,-8.51937 4.81202,-52.81425 -69.8786,-59.61947 -74.69062,-6.80523 z"/>
<path d="m 458.92459,115.0062 c -0.0617,11.47007 0.34582,22.97573 -1.12745,34.38968 -1.70742,13.22809 -3.80927,20.36616 -6.97055,33.73942 -2.04644,7.22088 -3.89616,14.50043 -6.13932,21.66264 -4.73544,15.11988 -11.65463,33.86958 -17.5656,48.45623 -6.77763,16.72531 -15.03563,35.37944 -23.28724,51.4119 -4.38297,8.51589 -9.25014,16.77373 -13.87521,25.1606 -15.00652,26.13895 -33.14503,50.18035 -53.05887,72.74701 -14.25834,16.15774 -25.98057,28.18783 -41.93057,42.56634 -6.88491,6.20656 -14.12423,12.00832 -21.18634,18.01247 -7.1096,5.64255 -14.21919,11.28509 -21.32879,16.92764 -41.51218,33.00361 5.16197,91.71071 46.67416,58.70709 v 0 c 7.78644,-6.20031 15.57288,-12.40063 23.35933,-18.60094 8.11733,-6.95852 16.44163,-13.68265 24.35201,-20.87556 42.64393,-38.77615 79.79318,-83.6016 108.86986,-133.40312 5.26928,-9.64374 10.80485,-19.14668 15.80783,-28.93122 9.05923,-17.7175 18.21974,-38.47958 25.66763,-56.96284 6.87225,-17.05471 14.25415,-37.29673 19.69705,-54.89699 2.56269,-8.28676 4.6735,-16.70658 7.01025,-25.05987 1.78879,-7.85207 3.84266,-15.64842 5.36636,-23.55621 1.37906,-7.15707 2.48726,-14.37103 3.33648,-21.61011 1.55437,-13.25007 1.31791,-26.57852 1.32898,-39.88416 0,-53.033005 -75,-53.033005 -75,0 z"/>
<path d="m 434.05347,366.67594 c 16.29612,12.96291 33.09218,25.29315 49.68049,37.88004 29.08755,22.17423 57.53175,45.17033 85.89835,68.25378 18.27072,14.69399 36.80264,29.14252 56.5555,41.80437 18.44685,11.25351 39.59673,16.15344 60.39233,21.02808 21.52154,5.06831 43.3466,8.63014 65.03767,12.84572 6.16755,1.19865 12.30788,2.53334 18.46182,3.8 51.94916,10.667 67.03457,-62.80021 15.08541,-73.4672 v 0 c -6.69015,-1.37068 -13.36687,-2.80858 -20.07044,-4.11204 -20.49748,-3.98556 -41.12606,-7.32871 -61.46717,-12.10339 -12.55973,-2.91677 -25.58863,-5.39027 -37.17338,-11.26542 -17.39271,-10.94678 -33.37725,-23.99009 -49.48357,-36.70311 -29.02568,-23.61941 -58.13585,-47.1431 -87.90203,-69.82846 -15.42623,-11.70467 -30.98604,-23.24013 -46.26867,-35.13059 -40.30382,-34.46885 -89.05014,22.52937 -48.74631,56.99822 z"/>
<path d="m 238.52729,664.6186 c 11.77495,12.94103 24.36958,25.09655 36.65439,37.54617 12.91808,13.1451 6.031,6.27495 20.70954,20.56194 38.02582,36.96669 90.30462,-16.80995 52.27879,-53.77665 v 0 c -13.50699,-13.113 -6.97758,-6.61663 -19.60826,-19.46895 -12.42311,-12.585 -25.11927,-24.90535 -37.06091,-37.95491 -37.542,-37.45796 -90.51555,15.63444 -52.97355,53.0924 z"/>
<path d="m 625.65509,582.66828 c 0.30393,-1.25393 0.60786,-2.50786 0.91179,-3.76179 -0.0112,-0.33763 0.19649,-1.26024 -0.0336,-1.01288 -1.50004,1.61266 -2.5643,3.58478 -3.9506,5.2962 -2.24914,2.77663 -4.56493,5.50087 -6.95036,8.16133 -9.52067,10.61833 -13.23793,14.04963 -23.74004,24.60321 -10.56974,10.01986 -20.74229,20.45206 -31.29826,30.48601 -5.2043,4.94694 -10.53659,9.75746 -15.80488,14.63619 -38.89125,36.05511 12.09838,91.05563 50.98962,55.00052 v 0 c 5.72333,-5.31133 11.5106,-10.55457 17.16999,-15.93399 10.85384,-10.3169 21.30796,-21.04902 32.17373,-31.35365 11.47834,-11.59013 17.46101,-17.25384 28.01214,-29.28763 8.55973,-9.76256 17.39029,-20.38638 22.88835,-32.29604 1.29566,-2.8066 1.9733,-5.8591 2.95995,-8.78865 11.13611,-51.85063 -62.19175,-67.59946 -73.32785,-15.74883 z"/>
<path d="m 430.38935,504.50319 c -0.64457,14.51409 -2.35328,29.11169 -5.23271,43.35769 -1.28259,6.34558 -2.9439,12.6087 -4.41584,18.91304 -12.01507,46.81371 -30.36163,91.76817 -52.08672,134.87295 -4.9735,9.86791 -10.33359,19.53617 -15.50039,29.30426 -20.68878,36.87243 -43.85951,72.52802 -71.44096,104.66053 -15.69822,18.2885 -22.36672,24.20755 -39.34765,40.99317 -16.71016,15.96783 -34.8315,30.28414 -53.08791,44.40412 -41.91613,32.48904 4.03032,91.76745 45.94645,59.27836 v 0 c 20.63801,-16.0271 41.12108,-32.27874 59.96369,-50.43953 19.55086,-19.45833 26.83429,-25.92543 44.93339,-47.18817 30.56695,-35.90992 56.41845,-75.57208 79.36074,-116.69948 5.61028,-10.65006 11.43196,-21.19142 16.83084,-31.95019 24.12541,-48.07669 44.32561,-98.26256 57.53108,-150.47251 1.77949,-7.87455 3.77666,-15.70305 5.33846,-23.62365 1.23401,-6.25828 2.14041,-12.57821 3.04493,-18.89253 1.91605,-13.37562 3.33074,-26.94214 3.05848,-40.46877 -2.79357,-52.95938 -77.68945,-49.00867 -74.89588,3.95071 z"/>
<path d="m 401.46887,727.03411 c 14.07964,10.28651 26.61998,22.48899 39.31349,34.38926 32.14067,30.52244 63.57041,61.77695 95.05686,92.9696 20.42897,19.97196 39.84845,40.96674 61.05963,60.12379 9.32604,8.14181 19.267,15.65144 30.5613,20.86974 8.54802,3.94944 13.49434,5.20715 22.57257,8.11404 33.85575,9.40243 68.21022,17.11677 102.75628,23.52734 9.89169,1.83556 19.81857,3.47621 29.72785,5.21432 41.76319,6.81863 20.78913,3.46131 62.92268,10.06886 52.39284,8.21525 64.01095,-65.87942 11.61811,-74.09466 v 0 c -41.38561,-6.48833 -20.85173,-3.20324 -61.60251,-9.84978 -9.40835,-1.6451 -18.83306,-3.19918 -28.22504,-4.93531 -31.85281,-5.88808 -63.51758,-12.99779 -94.77395,-21.50025 -3.70835,-1.12043 -9.9215,-2.55878 -13.62234,-4.47394 -4.34447,-2.24824 -7.98949,-5.65691 -11.76571,-8.69022 -20.39482,-18.26726 -38.74316,-38.66229 -58.44504,-57.65496 -31.98153,-31.68308 -63.90799,-63.42659 -96.56245,-94.42012 -17.15615,-16.06405 -34.16696,-32.79393 -54.23073,-45.25403 -46.38361,-25.71111 -82.74461,39.88521 -36.361,65.59632 z"/>
</svg>
