<?xml version="1.0" ?>
<svg xmlns="http://www.w3.org/2000/svg" viewBox="0 0 1000 1000">
<path d="m 457.8789,141.5795 c 0,18.83625 0,37.67251 0,56.50877 0,36.49075 0,72.98149 0,109.47224 -0.0528,29.3595 -0.73111,58.71129 -2.87174,87.99535 -0.71373,9.48273 -1.73698,18.93753 -3.39561,28.30208 -9.12775,52.24159 64.75302,65.15018 73.88077,12.90859 v 0 c 2.05039,-11.84513 3.44718,-23.78407 4.31765,-35.7756 2.24697,-31.09437 3.03628,-62.25642 3.06893,-93.43042 0,-36.49075 0,-72.98149 0,-109.47224 0,-18.83626 0,-37.67252 0,-56.50877 0,-53.033009 -75,-53.033009 -75,0 z"/>
<path d="m 514.89545,303.56714 c 16.97049,-1.85958 33.98697,-3.03044 51.04326,-3.67962 21.6161,-0.56652 43.30912,0.12486 64.76486,2.88675 4.39454,0.62409 8.65851,1.76618 12.85157,3.18025 50.64,15.75091 72.91515,-55.86485 22.27516,-71.61577 v 0 c -8.47636,-2.5507 -17.01075,-4.87788 -25.82424,-5.98534 -3.58782,-0.43874 -7.16763,-0.94879 -10.76345,-1.31622 -21.97847,-2.24582 -44.15034,-2.60622 -66.21879,-2.093 -18.4502,0.73103 -36.86426,1.94519 -55.22324,3.95929 -52.79518,5.01683 -45.70032,79.68049 7.09487,74.66366 z"/>
<path d="m 291.95876,459.60278 c 0.17599,1.45074 0.27427,2.91304 0.52797,4.35223 3.50423,19.87886 11.37695,39.34749 18.20203,58.25801 9.79333,28.388 19.72563,56.72633 29.6526,85.0677 3.24728,9.26594 6.48662,18.53481 9.7662,27.78939 17.71691,49.98611 88.40794,24.93061 70.69103,-25.0555 v 0 c -3.24977,-9.16711 -6.45632,-18.3496 -9.67409,-27.52798 -10.00665,-28.5659 -20.01046,-57.13156 -29.89208,-85.74108 -5.17489,-14.32994 -10.68834,-28.62885 -14.53388,-43.385 -4.41393,-52.849 -79.15371,-46.60677 -74.73978,6.24223 z"/>
<path d="m 392.79697,513.88846 c 15.65585,-7.03899 31.87912,-12.93004 48.30327,-17.91393 6.02778,-1.82912 12.12312,-3.42768 18.18468,-5.14152 29.01463,-7.51897 58.43177,-13.49083 88.08224,-17.87827 18.00153,-2.66372 23.95735,-3.15634 41.72571,-5.10814 19.84156,-1.35439 40.05984,-4.18729 59.97829,-2.34819 0.11895,0.0685 0.49137,0.23272 0.35685,0.20547 -7.81886,-1.58412 -10.32684,-2.18159 -17.8095,-9.32988 -2.81626,-2.69042 -4.36022,-6.45924 -6.36858,-9.79632 -1.26421,-2.10059 -0.49506,-3.22505 -1.24297,-1.79044 -3.49912,19.74557 -10.28107,38.72674 -16.63553,57.6849 -12.45728,36.32911 -26.8145,71.95185 -42.14436,107.15142 -7.72443,17.77912 -16.38374,35.11718 -25.33844,52.30013 -24.48978,47.03988 42.03466,81.67366 66.52444,34.63378 v 0 c 9.74309,-18.73146 19.16918,-37.62939 27.58318,-57.004 16.18508,-37.21134 31.35859,-74.86364 44.49554,-113.27179 4.22817,-12.64395 7.04165,-20.69564 10.81427,-33.32009 3.73021,-12.48257 7.24104,-25.2457 8.86073,-38.20972 0.45625,-3.65184 0.55526,-7.33948 0.83289,-11.00922 -0.28699,-6.5121 -0.13301,-14.63827 -2.58626,-20.84527 -2.2168,-5.60876 -4.48993,-11.44467 -8.43502,-16.00633 -9.07273,-10.49071 -20.02959,-14.67737 -33.01632,-16.16093 -24.71151,-1.78822 -49.4847,0.25646 -74.09818,2.56929 -19.39676,2.15074 -25.8334,2.68727 -45.49727,5.62164 -32.52401,4.85345 -64.79207,11.44156 -96.60336,19.77417 -7.02452,2.00887 -14.08711,3.88909 -21.07355,6.02661 -19.46746,5.95611 -38.6694,13.02803 -57.19293,21.47839 -47.86281,22.83968 -15.56263,90.52792 32.30018,67.68824 z"/>
<path d="m 401.25733,694.10581 c 19.0953,-5.0852 38.61825,-8.16494 58.14087,-11.05038 30.3455,-4.16539 60.97547,-5.8798 91.5892,-5.58875 7.71831,0.0855 15.37307,0.93347 22.9988,2.03032 52.54184,7.20107 62.72568,-67.10431 10.18385,-74.30537 v 0 c -10.80813,-1.43552 -21.64454,-2.64165 -32.56789,-2.72243 -4.82339,-0.0342 -9.64682,-0.14202 -14.47016,-0.10253 -29.67647,0.24301 -59.34183,2.6092 -88.75189,6.5025 -22.55754,3.36475 -45.10722,7.00786 -67.15464,12.9613 -51.10638,14.16467 -31.07452,86.44 20.03186,72.27534 z"/>
<path d="m 165.41829,816.61022 c 4.49067,16.69382 13.19087,31.79629 21.95954,46.54275 9.09347,14.9493 19.11119,29.28034 30.01544,42.95662 3.04352,3.81491 6.27947,7.46137 9.57643,11.05577 36.04412,38.90143 91.05905,-12.07265 55.01493,-50.97408 v 0 c -2.10574,-2.21731 -4.07421,-4.55532 -6.01419,-6.9188 -8.82663,-10.99747 -16.84838,-22.58279 -24.22097,-34.60707 -5.07728,-8.42977 -10.31918,-16.94753 -13.58006,-26.2836 -12.88944,-51.44281 -85.64055,-33.21439 -72.75112,18.22841 z"/>
<path d="m 357.84814,797.88035 c 6.29101,12.72934 11.79023,25.82143 17.94629,38.61919 7.9039,16.83719 17.46531,32.75467 28.40492,47.77346 4.0192,5.43264 8.40023,10.57149 12.99833,15.51664 36.41041,38.55882 90.94081,-12.93328 54.5304,-51.49209 v 0 c -2.5804,-2.57577 -4.77171,-5.51756 -7.03828,-8.36309 -8.33027,-11.25646 -15.3728,-23.33982 -21.34148,-36.01517 -6.09031,-12.5883 -11.43636,-25.51358 -17.66632,-38.03217 -22.62263,-47.96579 -90.45649,-15.97256 -67.83386,31.99323 z"/>
<path d="m 547.47459,817.50887 c 5.57001,9.26823 11.35975,18.36647 17.61927,27.18659 6.69005,8.90905 13.36252,17.83264 20.11468,26.69493 3.36411,4.30559 1.65711,2.17971 5.12035,6.37818 33.91365,40.7721 91.57411,-7.18904 57.66046,-47.96114 v 0 c -1.8667,-2.20321 -0.80973,-0.91976 -3.13227,-3.88188 -6.28269,-8.23886 -12.46994,-16.5506 -18.72451,-24.81077 -5.33777,-7.40897 -10.08089,-15.17787 -14.82282,-22.97688 -27.83948,-45.13827 -91.67464,-5.7673 -63.83516,39.37097 z"/>
<path d="m 793.35178,773.09993 c 3.50265,6.82188 3.5286,12.40114 3.3495,19.95153 -0.37519,2.85403 -0.57894,5.73588 -1.12558,8.56209 -2.82108,14.58553 -8.03749,28.88231 -13.89604,42.4802 -2.68167,6.22424 -5.71816,12.28954 -8.57724,18.43431 -22.19855,48.16351 45.91495,79.557 68.1135,31.39349 v 0 c 3.46923,-7.58557 7.17209,-15.06858 10.40769,-22.75671 8.35512,-19.85264 15.39977,-40.70012 18.57885,-62.07817 0.8612,-5.79125 0.98965,-11.66797 1.48447,-17.50195 -0.18544,-4.98654 -0.0956,-9.99096 -0.55634,-14.95963 -1.1994,-12.93363 -5.03477,-25.49444 -10.72678,-37.12613 -23.75947,-47.41295 -90.8115,-13.81198 -67.05203,33.60097 z"/>
</svg>
