<?xml version="1.0" ?>
<svg xmlns="http://www.w3.org/2000/svg" viewBox="0 0 1000 1000">
<path d="m 312.84191,71.534331 c -10.77709,31.374979 -25.86719,61.017779 -40.67286,90.622179 -38.97356,77.36486 -82.19937,152.50092 -126.42527,226.95552 -18.28678,29.7275 -36.8322,59.29424 -55.266079,88.93043 -28.010343,45.03244 35.675149,84.64505 63.685489,39.61261 v 0 c 18.7047,-30.07179 37.52773,-60.06995 56.06539,-90.24539 7.58894,-12.78011 15.26165,-25.51085 22.76681,-38.34034 37.14147,-63.49047 73.10403,-127.72998 106.26775,-193.39591 16.11521,-32.29375 32.44084,-64.65643 44.19155,-98.863918 17.87225,-49.930778 -52.74053,-75.205959 -70.61278,-25.275181 z"/>
<path d="m 335.0245,221.39812 c 1.93978,0.071 3.87885,0.16529 5.81934,0.21311 9.61997,0.23706 19.23182,0.24542 28.84846,0.67325 10.35405,0.46063 16.16135,0.89727 26.62053,1.58071 24.74504,1.71251 49.46547,3.7701 74.1637,6.05663 4.5433,0.53198 9.12515,0.70687 13.66259,1.29536 0.27396,0.0355 1.08813,0.18557 0.81296,0.16112 -3.16314,-0.28104 -5.46182,-1.60579 -8.75319,-2.7628 -14.10897,-12.15271 -13.07259,-7.87736 -18.72379,-24.44408 -0.54187,-1.58851 0.10016,-3.47894 -0.61466,-4.99749 -0.30112,-0.63968 -0.58454,1.28974 -0.81625,1.95771 -0.84844,2.44583 -1.60465,4.92273 -2.42257,7.37895 -1.37925,4.14189 -2.77928,8.27685 -4.16893,12.41527 -1.79172,5.6495 -3.6566,11.27632 -5.37517,16.9485 -6.70645,22.13481 -5.455,19.60351 -12.29199,42.77115 -4.22266,14.30882 -11.46686,37.4591 -16.07723,51.36167 -3.12544,9.42477 -6.43348,18.788 -9.65023,28.18201 -15.83999,43.05849 -34.06029,85.37065 -56.52517,125.42673 -14.30629,25.50888 -25.11024,41.56242 -40.90135,66.20142 -28.59291,42.74146 -59.75434,83.75174 -93.50092,122.55587 -19.52696,22.45344 -24.61283,27.3566 -44.60613,48.38151 -24.24252,23.73031 -12.17901,13.03386 -35.89586,32.41864 -40.856011,33.81251 6.9621,91.59164 47.81812,57.77913 v 0 c 29.02833,-24.25679 14.85386,-11.43463 42.45406,-38.54299 21.21566,-22.35506 26.86647,-27.83389 47.54325,-51.66099 35.86153,-41.32539 68.99252,-84.97925 99.35446,-130.49687 17.47412,-27.32958 28.29016,-43.35105 44.14521,-71.78461 24.23667,-43.46467 43.99094,-89.30649 61.07572,-135.9986 3.37295,-9.86581 6.84005,-19.69994 10.11885,-29.59743 4.98505,-15.04807 12.25011,-38.34051 16.79197,-53.72831 5.50273,-18.64318 6.28794,-22.88716 11.6447,-40.61633 1.59321,-5.27301 3.32406,-10.50344 4.98608,-15.75517 7.0424,-21.02674 18.87357,-47.98194 4.9385,-69.00615 -3.70765,-5.59383 -9.82747,-9.14174 -14.7412,-13.71261 -3.19633,-1.25608 -6.32972,-2.68592 -9.58899,-3.76824 -1.59211,-0.52869 -3.27132,-0.75086 -4.92195,-1.05045 -6.22566,-1.12996 -12.58769,-1.2476 -18.8584,-1.99269 -25.37697,-2.34846 -50.77673,-4.46181 -76.20201,-6.21731 -20.25744,-1.31519 -40.5238,-2.4082 -60.83093,-2.43587 -52.89884,-3.77 -58.23042,71.04025 -5.33158,74.81025 z"/>
<path d="m 317.29479,361.1397 c -1.5e-4,0.0682 -0.0567,0.16605 -4.5e-4,0.20448 3.99198,2.72561 8.18251,5.14964 12.22024,7.807 3.32315,2.18708 6.67456,4.33599 9.90834,6.65318 8.00042,5.73277 11.32183,8.80937 18.90228,15.21844 13.35547,11.60209 6.78539,5.87391 19.712,17.18253 39.91547,34.91784 89.29675,-21.53115 49.38128,-56.44899 v 0 c -13.46158,-11.77561 -6.49942,-5.7095 -20.8913,-18.19282 -4.16247,-3.47096 -8.23762,-7.0494 -12.48741,-10.41288 -9.60461,-7.60154 -14.13673,-10.63175 -24.04657,-17.13805 -3.15609,-2.07213 -12.86687,-8.29198 -16.61299,-10.41649 -2.15408,-1.22163 -4.3981,-2.27741 -6.59715,-3.41611 -48.76188,-20.85136 -78.25015,48.10835 -29.48827,68.95971 z"/>
<path d="m 232.4058,470.7493 c 16.92936,10.93502 32.65533,23.56281 48.24189,36.29963 5.00698,3.97467 10.01395,7.94935 15.02093,11.92403 41.54277,32.96512 88.16248,-25.78522 46.61972,-58.75034 v 0 c -4.73738,-3.75768 -9.47475,-7.51536 -14.21212,-11.27304 -18.93975,-15.44684 -38.09914,-30.7964 -58.96326,-43.60352 -46.24707,-25.95589 -82.95424,39.44735 -36.70716,65.40324 z"/>
<path d="m 515.64209,412.64671 c 1.58344,-0.42093 3.15546,-0.88746 4.75032,-1.2628 15.17257,-3.57073 30.59311,-6.18251 45.94676,-8.8181 22.91,-3.93269 26.52844,-4.37992 50.36947,-8.05493 48.45274,-7.24746 97.20422,-12.27211 146.05724,-15.825 4.72585,-0.29526 9.4517,-0.59053 14.17755,-0.8858 52.92934,-3.31434 48.24216,-78.16773 -4.68718,-74.8534 v 0 c -4.98079,0.31254 -9.96157,0.62509 -14.94236,0.93763 -50.85365,3.71424 -101.60288,8.94015 -152.03868,16.50319 -24.43441,3.77139 -48.8464,7.5932 -73.15994,12.09215 -11.8428,2.19138 -20.09694,3.7519 -31.48732,6.55534 -2.61938,0.64469 -5.19844,1.44339 -7.79766,2.16509 -50.5204,16.13037 -27.7086,87.57701 22.8118,71.44663 z"/>
<path d="m 585.31229,226.68326 c -0.21815,18.27184 0.47117,36.63739 -1.45728,54.84776 -0.75713,7.14956 -2.05326,14.23172 -3.07989,21.34757 -1.78745,8.55803 -3.28844,17.18092 -5.36234,25.67408 -11.38102,46.60819 -29.0782,91.65647 -49.03428,135.19468 -5.80187,12.65795 -12.0726,25.09571 -18.1089,37.64356 -18.54228,35.58105 -38.0255,70.83637 -60.89203,103.86849 -6.61487,9.55559 -13.87004,18.65169 -20.80506,27.97753 -31.55304,42.62518 28.72806,87.24792 60.2811,44.62275 v 0 c 7.84211,-10.63666 16.02937,-21.0273 23.52633,-31.90998 24.57383,-35.67164 45.58332,-73.68108 65.49691,-112.08944 6.43131,-13.41203 13.1164,-26.7053 19.29392,-40.2361 22.04025,-48.27538 41.37378,-98.25016 53.70371,-149.95926 2.40428,-10.08308 4.12565,-20.31686 6.18848,-30.4753 1.22005,-9.07081 2.74324,-18.10599 3.66015,-27.21245 1.98309,-19.69564 1.40036,-39.53672 1.58918,-59.29389 0,-53.03301 -75,-53.03301 -75,0 z"/>
<path d="m 634.6312,483.84714 c 14.24218,18.44931 28.24701,37.08927 42.08997,55.84078 20.79432,28.35661 40.83978,57.24606 60.4756,86.41324 11.98445,18.165 24.63232,35.86917 38.53806,52.61275 7.59029,9.05041 15.82546,17.49465 24.51191,25.48544 16.25571,14.6693 33.79108,27.81827 52.13863,39.75127 5.39946,3.51174 10.90769,6.85336 16.36154,10.28004 24.67885,14.24848 11.84557,7.22578 38.55331,20.97009 47.20239,24.17508 81.39111,-42.57918 34.18872,-66.75426 v 0 c -22.65343,-11.53599 -11.69755,-5.59478 -32.90233,-17.7595 -10.93023,-6.83623 -16.55049,-10.14867 -26.9324,-17.38588 -10.7737,-7.51034 -20.99753,-15.76691 -30.82172,-24.47398 -6.23416,-5.63185 -12.01781,-11.71421 -17.46752,-18.1108 -12.32582,-14.74521 -23.33545,-30.49515 -33.95526,-46.50253 -20.24676,-30.06818 -40.91479,-59.85092 -62.358,-89.08175 -13.97551,-18.91622 -28.10016,-37.73109 -42.4689,-56.34936 -31.86538,-42.39219 -91.81699,2.67226 -59.95161,45.06445 z"/>
<path d="m 733.92556,229.90728 c 14.76036,13.27178 28.48598,27.61234 42.45632,41.69712 37.34736,37.65202 90.59536,-15.16512 53.24801,-52.81714 v 0 c -14.7139,-14.83342 -29.20424,-29.90067 -44.73192,-43.89646 -38.90253,-36.04294 -89.87494,18.97355 -50.97241,55.01648 z"/>
<path d="m 181.53656,874.91621 c 9.64217,8.92903 18.69546,18.44935 27.88929,27.83027 6.5693,6.93965 14.22174,12.5899 21.95407,18.12551 43.4285,30.43789 86.47418,-30.97928 43.04567,-61.41717 v 0 c -4.09442,-2.72999 -8.07788,-5.56822 -11.44309,-9.21248 -9.38943,-9.57458 -18.6197,-19.31111 -28.47239,-28.41853 -37.542,-37.45796 -90.51555,15.63444 -52.97355,53.0924 z"/>
<path d="m 367.1484,806.49345 c -0.22105,-0.12617 -0.80387,-0.5906 -0.66315,-0.37852 0.85562,1.28949 1.87712,2.46126 2.84588,3.66806 1.92299,2.39551 3.84196,4.79525 5.82876,7.1381 7.52565,8.87433 15.41786,17.44681 23.12451,26.1633 9.39033,10.58948 4.79154,5.44869 13.78972,15.42828 35.51861,39.38183 91.21293,-10.84907 55.69432,-50.2309 v 0 c -8.55476,-9.48247 -4.1184,-4.52595 -13.29889,-14.87865 -7.06978,-7.99446 -14.33235,-15.8446 -21.25602,-23.9665 -1.66685,-1.95532 -3.25738,-3.97443 -4.88607,-5.96165 -1.53915,-1.94673 -3.01215,-3.94764 -4.61744,-5.8402 -1.75197,-2.06547 -3.63257,-4.01829 -5.44885,-6.02743 -38.81034,-36.14219 -89.92311,18.74392 -51.11277,54.88611 z"/>
<path d="m 533.12625,773.3105 c 5.21377,9.75734 10.5677,19.47103 16.60541,28.75074 2.11265,3.24705 4.3637,6.40192 6.54555,9.60288 8.51484,11.34813 4.35195,5.99403 12.44231,16.09825 33.22106,41.33838 91.68235,-5.6433 58.46129,-46.98167 v 0 c -6.01529,-7.44896 -2.98677,-3.59814 -9.07124,-11.56371 -4.49223,-6.47856 -5.03728,-7.03765 -9.11269,-13.83309 -4.68503,-7.81192 -8.72964,-15.98605 -13.50979,-23.74025 -29.46292,-44.09577 -91.82375,-2.42892 -62.36084,41.66685 z"/>
<path d="m 760.02329,783.33277 c -2.9117,21.6649 -14.87496,40.62226 -25.4686,59.24416 -3.97217,6.50829 -7.94434,13.01659 -11.91651,19.52488 -27.58473,45.29441 36.47123,84.3051 64.05596,39.01069 v 0 c 4.40429,-7.24594 8.80858,-14.49188 13.21287,-21.73783 4.44121,-7.95318 9.17206,-15.75141 13.32362,-23.85955 11.99235,-23.42143 21.71162,-48.80188 21.72155,-75.4474 -2.30874,-52.98273 -77.23764,-49.71768 -74.92889,3.26505 z"/>
</svg>
