<?xml version="1.0" ?>
<svg xmlns="http://www.w3.org/2000/svg" width="1000" height="1000">
<path d="m 50.398112,320.14024 c 10.91301,19.60793 19.923072,40.17008 29.90463,60.24905 3.182753,6.40245 6.478095,12.74831 9.717143,19.12247 5.481264,10.55271 13.106745,25.62022 19.218825,35.84999 3.74355,6.26557 7.86972,12.29445 11.80459,18.44168 28.76419,44.5547 91.77405,3.87599 63.00986,-40.67871 v 0 c -3.06982,-4.70277 -6.31698,-9.29443 -9.20945,-14.10831 -5.68001,-9.45313 -12.95554,-23.84764 -17.97128,-33.50078 -3.03476,-5.96314 -6.12438,-11.89867 -9.10428,-17.88941 -9.8006,-19.70293 -18.54318,-39.94765 -29.37143,-59.12755 -22.37397,-48.08228 -90.372579,-16.44071 -67.998608,31.64157 z"/>
<path d="m 337.92239,250.65635 c 0.14279,7.90838 -0.11423,15.81658 -1.94861,23.55401 -1.97624,8.3358 -5.67416,18.31443 -8.37807,26.19426 -8.79718,21.30323 -3.81994,11.03626 -14.87168,30.82992 -25.24467,46.63911 40.713,82.34045 65.95766,35.70134 v 0 c 15.1456,-28.5822 8.57864,-14.3594 19.97375,-42.54137 5.03466,-15.10211 8.36734,-23.51933 11.49881,-39.12713 2.63814,-13.14896 3.13053,-26.61033 2.57669,-39.96644 -3.78685,-52.89763 -78.5954,-47.54222 -74.80855,5.35541 z"/>
<path d="m 203.50938,201.07589 c -0.15233,2.36465 -0.36534,4.72616 -0.45697,7.09393 -0.56319,14.55156 -0.15575,29.16925 0.11768,43.71985 1.09184,58.10283 -0.0724,-15.06074 0.88216,48.0686 1.10239,65.19106 -9.20104,129.72329 -19.8016,193.82237 -12.29241,65.25527 -29.0737,129.74604 -51.34717,192.33181 -4.40218,12.36961 -9.29972,24.5573 -13.94958,36.83595 -13.09226,33.39284 -28.799761,65.63817 -46.007974,97.08015 -4.784715,8.74239 -9.839115,17.33446 -14.758672,26.00169 -26.153433,46.13564 39.092225,83.12218 65.245656,36.98653 v 0 c 5.2742,-9.31493 10.69941,-18.54597 15.82259,-27.94481 18.64887,-34.21268 35.65899,-69.30011 49.85703,-105.6138 4.97896,-13.20421 10.2181,-26.31322 14.93687,-39.61264 23.53663,-66.33588 41.2598,-134.68427 54.19868,-203.84279 2.11948,-12.84777 4.36647,-25.67515 6.35843,-38.5433 8.63749,-55.79852 15.31775,-112.07254 14.43713,-168.63768 -0.4556,-29.99439 -1.64296,-60.0188 -0.93415,-90.01135 5.46913,-52.75025 -69.13099,-60.48475 -74.60011,-7.73451 z"/>
<path d="m 196.6376,650.5763 c 19.28848,12.28389 35.89772,28.08911 52.30334,43.87713 23.11712,22.82058 41.84382,49.39011 59.93895,76.2141 5.12195,7.73854 10.2868,15.4483 15.48044,23.13882 29.68299,43.94793 91.83474,1.96984 62.15175,-41.97808 v 0 c -5.19101,-7.68469 -10.34892,-15.39149 -15.46984,-23.12313 -21.08344,-31.21314 -43.14918,-61.93262 -70.17713,-88.37084 -4.96507,-4.75127 -9.84564,-9.59245 -14.89522,-14.2538 -16.21816,-14.97127 -33.34798,-29.08488 -52.18455,-40.65821 -46.07084,-26.26742 -83.21858,38.88659 -37.14774,65.15401 z"/>
<path d="m 501.76018,123.85402 c -0.88413,2.25383 -1.71871,4.52718 -2.62196,6.77344 -4.48748,11.15972 -4.48625,10.49686 -9.44461,23.35261 -2.29805,5.95828 -4.47821,11.96136 -6.71732,17.94204 -2.58122,6.66213 -5.16244,13.32425 -7.74366,19.98638 -17.27849,42.53275 -36.61823,84.24466 -58.11153,124.81592 -4.70402,8.87942 -9.63058,17.63914 -14.44587,26.45872 -7.80094,13.83459 -19.32561,35.04904 -28.47062,48.34178 -4.40234,6.39904 -9.52908,12.26825 -14.29362,18.40238 -32.18959,42.14653 27.41461,87.66949 59.6042,45.52296 v 0 c 6.1885,-8.20693 12.76852,-16.13278 18.56549,-24.62079 9.81773,-14.37525 21.92544,-36.62937 30.43628,-51.73161 5.10848,-9.37348 10.33382,-18.68421 15.32544,-28.12044 22.69314,-42.89941 43.1097,-87.00373 61.32789,-131.98158 2.68608,-6.93767 5.37215,-13.87535 8.05823,-20.81302 2.03267,-5.44712 4.00786,-10.91605 6.09802,-16.34137 4.73191,-12.28239 10.23524,-24.27549 14.37309,-36.78095 14.99524,-50.868879 -56.94421,-72.075351 -71.93945,-21.20647 z"/>
<path d="m 534.38219,202.85372 c 20.59963,4.11528 41.69544,4.53181 62.61327,5.45176 24.92983,1.11352 49.84858,2.61229 74.68655,5.04644 5.14452,0.5884 10.30613,1.05516 15.44184,1.72243 0.49596,0.0644 1.97586,0.31275 1.48093,0.2408 -7.47375,-1.08645 -3.69042,-1.20271 -17.47928,-8.39023 -18.92791,-46.2609 -12.61092,-15.21162 -10.31006,-38.49479 0.0894,-0.90478 -0.79362,1.6364 -1.16356,2.46692 -0.98183,2.20427 -1.96107,4.41013 -2.89137,6.63664 -4.27851,10.23983 -4.11501,10.25857 -8.266,21.68466 -1.63438,4.96677 -3.27306,9.93213 -4.90314,14.90031 -1.7919,5.46141 -3.48615,10.95558 -5.36278,16.38846 -4.13196,11.96206 -9.45121,26.04205 -14.30731,37.63099 -8.28978,19.78336 -10.80394,24.22721 -20.40737,43.9933 -23.13836,45.58187 -51.78483,88.13115 -83.42855,128.2107 -7.2124,9.13515 -14.72177,18.03185 -22.08266,27.04778 -36.07121,42.38003 -73.7348,83.67265 -115.75244,120.28393 -7.00011,6.09942 -14.27524,11.87586 -21.41287,17.81378 -6.88946,4.95938 -13.77892,9.91877 -20.66839,14.87815 -42.93594,31.12884 1.0869,91.84943 44.02284,60.72058 v 0 c 8.22798,-6.00086 16.45595,-12.00172 24.68392,-18.00259 7.95337,-6.6488 16.05592,-13.12312 23.86012,-19.94639 44.74598,-39.12177 84.97643,-83.09812 123.39214,-128.35076 7.88048,-9.67544 15.92234,-19.22166 23.64144,-29.02633 34.6709,-44.03838 65.94125,-90.84908 91.23824,-140.92431 4.09909,-8.47988 8.35184,-16.88718 12.29727,-25.43963 14.15604,-30.68589 25.68854,-62.46209 35.73183,-94.7067 2.72447,-7.60434 5.49987,-15.10498 8.77088,-22.491 2.20348,-4.97552 6.75007,-13.88838 5.92852,-18.39418 -2.04828,-11.23394 -7.92653,-21.41863 -11.8898,-32.12795 -5.65054,-3.13825 -11.11466,-6.63859 -16.95163,-9.41475 -1.60246,-0.76216 -3.45894,-0.79928 -5.2037,-1.12269 -6.83836,-1.26755 -13.85374,-1.45163 -20.72826,-2.4329 -26.16674,-2.5415 -52.41171,-4.17361 -78.6748,-5.32836 -17.27456,-0.75845 -34.74217,-0.89269 -51.7729,-4.18044 -52.08292,-9.99348 -66.21583,63.66288 -14.13292,73.65637 z"/>
<path d="m 500.09543,316.15404 c 13.82423,11.55974 26.03195,24.81122 38.58202,37.69701 8.71582,8.63613 17.21066,17.48352 25.59969,26.43513 36.28708,38.6749 90.98165,-12.64277 54.69457,-51.31768 v 0 c -8.71859,-9.28259 -17.5163,-18.48691 -26.56783,-27.44785 -14.38118,-14.76375 -28.48891,-29.82751 -44.35825,-43.03617 -40.77853,-33.90591 -88.72873,23.76365 -47.9502,57.66956 z"/>
<path d="m 425.07169,424.83398 c 1.45256,1.87343 2.91093,3.74238 4.35768,5.62029 1.61901,2.10151 3.28604,4.16756 4.83956,6.31792 6.40161,8.86105 11.9315,18.32989 18.1033,27.34874 2.63652,3.85273 5.38693,7.62627 8.08039,11.43941 7.41645,9.98799 15.26639,19.64032 23.01711,29.36749 33.04875,41.47625 91.70504,-5.26175 58.65628,-46.738 v 0 c -6.87155,-8.6238 -13.82435,-17.18557 -20.47361,-25.98368 -2.24325,-3.15565 -4.54138,-6.273 -6.72976,-9.46694 -9.58612,-13.99099 -18.06825,-28.78287 -29.03244,-41.79268 -31.03312,-43.00518 -91.85163,0.88227 -60.81851,43.88745 z"/>
<path d="m 675.69301,438.56005 c -0.4009,0.30523 -1.68343,1.06658 -1.20269,0.91569 1.72436,-0.54122 3.31456,-1.44381 4.99606,-2.1063 7.0444,-2.77543 11.65175,-4.37287 19.21328,-6.59912 15.59076,-4.5902 14.66265,-4.01341 31.36673,-7.43394 34.44698,-6.02654 69.46525,-7.4985 104.37286,-6.88284 6.1385,0.10827 12.27308,0.37875 18.40962,0.56812 16.6477,0.5914 33.22655,2.23199 49.79931,3.82741 52.78913,5.08011 59.9735,-69.57499 7.18437,-74.65511 v 0 c -18.20868,-1.7517 -36.42749,-3.50943 -54.71894,-4.1381 -17.86286,-0.52912 -24.70782,-0.90377 -42.99794,-0.69744 -32.63667,0.36818 -65.27353,2.7439 -97.42109,8.57014 -7.18044,1.52967 -14.40697,2.85703 -21.54131,4.589 -5.91624,1.43625 -11.76236,3.1547 -17.59158,4.91109 -13.74596,4.14177 -27.40234,8.99898 -40.07029,15.81608 -44.7707,28.42683 -4.56909,91.74215 40.20161,63.31532 z"/>
<path d="m 748.83459,218.85495 c 0.11214,16.84559 -1.52502,33.70349 -4.40989,50.29465 -1.12166,6.45079 -2.5463,12.84523 -3.81945,19.26784 -8.93698,42.39664 -20.92256,84.21811 -37.20695,124.409 -3.41678,8.43284 -7.2568,16.68794 -10.88521,25.0319 -15.01203,32.63314 -33.01454,63.90147 -54.28805,92.86641 -13.77179,18.75098 -18.27069,23.29144 -33.41195,40.87924 -14.81225,15.93972 -20.14852,22.29089 -35.92253,36.93361 -16.11691,14.96103 -33.66469,28.90172 -50.65613,42.87573 -40.9574,33.68963 6.68692,91.61215 47.64433,57.92253 v 0 c 18.77096,-15.4426 37.81359,-30.70342 55.58445,-47.30885 6.9403,-6.48515 13.68723,-13.1798 20.29492,-20.00356 6.82232,-7.0454 13.323,-14.3953 19.9845,-21.59295 17.29814,-20.2352 22.43478,-25.45274 38.163,-47.03838 24.05929,-33.01931 44.45587,-68.60114 61.43611,-105.74088 4.09146,-9.49074 8.41253,-18.88577 12.27438,-28.47224 17.75279,-44.06857 30.83861,-89.90463 40.59402,-136.36293 1.48697,-7.68698 3.15401,-15.3413 4.46092,-23.06092 3.40316,-20.10164 5.25636,-40.50965 5.16353,-60.9002 0,-53.03301 -75,-53.03301 -75,0 z"/>
<path d="m 738.39856,454.19327 c 7.65195,11.31096 14.95736,22.84539 22.14048,34.45838 19.35958,32.63492 38.78295,65.23058 58.08427,97.90009 14.29393,24.73693 30.28552,48.42128 45.36914,72.66897 5.31326,8.39506 10.22563,17.06 15.80471,25.28679 4.69545,6.92381 5.73757,8.0557 10.93451,14.79374 8.92569,11.52667 17.6382,23.17627 27.89973,33.58101 3.04498,3.08748 6.28876,5.97238 9.43314,8.95857 38.66035,36.30258 89.99996,-18.37142 51.33959,-54.674 v 0 c -4.8549,-4.47883 -7.58322,-6.76798 -11.97587,-11.74353 -6.22499,-7.05107 -11.48234,-14.87916 -17.46334,-22.12664 -2.81113,-3.58237 -4.64459,-5.78345 -7.16501,-9.47888 -5.36579,-7.8673 -10.01853,-16.20504 -15.13486,-24.23037 -14.79109,-23.74891 -30.43592,-46.9673 -44.46938,-71.18549 -19.56708,-33.1191 -39.25071,-66.16768 -58.89535,-99.24074 -8.61593,-13.89496 -6.90869,-11.34391 -15.17718,-23.97971 -5.45336,-8.33374 -10.76848,-16.90902 -17.7507,-24.08026 -37.54176,-37.45819 -90.51564,15.63388 -52.97388,53.09207 z"/>
<path d="m 884.96366,201.38117 c 9.32851,9.34836 18.41755,18.92088 27.74268,28.27554 37.46527,37.53471 90.54736,-15.44918 53.08209,-52.98388 v 0 c -9.01345,-9.01681 -17.76754,-18.27596 -26.77892,-27.29211 -36.76987,-38.21618 -90.81572,13.78426 -54.04585,52.00045 z"/>
<path d="m 386.46148,796.80497 c 4.47873,8.31538 9.37222,16.40012 14.00071,24.63436 1.85505,3.30019 3.62553,6.64897 5.55321,9.90727 2.33217,3.942 4.81563,7.79251 7.22345,11.68876 12.35644,18.42147 27.15951,35.04836 42.78342,50.73756 37.48743,37.51256 90.53821,-15.50268 53.05077,-53.01524 v 0 c -11.63989,-11.59133 -22.66607,-23.89346 -32.14532,-37.32948 -1.82981,-2.91791 -3.73613,-5.78923 -5.48944,-8.75375 -3.84344,-6.49856 -7.34746,-13.19251 -11.11067,-19.73786 -2.06178,-3.58607 -4.27106,-7.08738 -6.27719,-10.70487 -0.6208,-1.11944 -1.187,-2.26829 -1.7805,-3.40243 -25.43865,-46.53359 -91.24709,-10.55791 -65.80844,35.97568 z"/>
<path d="m 550.02188,801.47986 c 9.39399,13.18032 17.5716,27.10227 25.43493,41.22945 5.27827,9.70167 10.77252,19.2761 16.65897,28.62038 28.40372,44.78536 91.73979,4.61644 63.33607,-40.16892 v 0 c -5.19275,-8.10202 -9.82067,-16.54215 -14.47997,-24.95867 -8.98486,-16.10795 -18.36531,-31.96764 -29.02702,-47.03706 -29.9211,-43.78616 -91.84408,-1.47134 -61.92298,42.31482 z"/>
<path d="m 679.32022,794.86249 c 4.9295,5.80916 9.66041,11.84971 13.59854,18.3972 1.20937,2.01069 2.26312,4.11098 3.39468,6.16647 4.68873,8.91901 8.54846,18.23417 12.25046,27.59431 19.58941,49.2824 89.28525,21.57878 69.69583,-27.70361 v 0 c -5.0079,-12.54977 -10.25186,-25.02849 -16.72061,-36.91247 -2.04691,-3.5444 -3.98111,-7.15633 -6.14073,-10.6332 -7.3473,-11.82874 -16.06154,-22.92775 -25.96761,-32.71132 -39.45842,-35.43352 -89.56897,20.3691 -50.11056,55.80262 z"/>
<path d="m 857.10468,793.589 c -2.22971,3.41517 -0.54751,-6.074 -2.12432,-5.11421 -0.82477,0.50202 -0.64819,1.81989 -0.92676,2.74438 -0.82289,2.73089 -1.44835,5.52297 -2.37702,8.21972 -3.74713,10.88122 -5.70491,14.18168 -10.86336,25.16109 -8.83866,18.32774 -20.79329,34.78028 -32.49544,51.31803 -30.53842,43.35786 30.77886,86.54572 61.31729,43.18785 v 0 c 5.02267,-7.15939 10.23133,-14.19183 15.06802,-21.47816 12.99965,-19.5836 13.43777,-21.49821 24.2289,-41.64568 2.92851,-6.44863 6.10938,-12.78851 8.78553,-19.3459 7.75859,-19.01089 14.62999,-41.033 11.43055,-61.81316 -0.518,-3.3644 -1.80998,-6.56309 -2.71497,-9.84463 -20.2308,-49.0226 -89.55922,-20.41193 -69.32842,28.61067 z"/>
</svg>
