<?xml version="1.0" ?>
<svg xmlns="http://www.w3.org/2000/svg" viewBox="0 0 1000 1000">
<path d="m 44.163908,290.07173 c 1.644293,18.77552 7.88655,36.74834 14.908403,54.11307 2.494531,6.16887 5.093488,12.29936 7.899248,18.33304 3.152163,6.77861 6.645393,13.39333 9.968089,20.09 13.921879,25.44678 7.013757,13.13124 20.684256,36.96908 26.398606,45.9958 91.446486,8.66253 65.047886,-37.33326 v 0 c -12.48843,-21.74068 -6.27428,-10.69778 -18.62965,-33.13589 -7.69075,-15.29003 -8.5342,-16.2205 -14.85366,-31.54482 -4.28862,-10.39965 -8.58404,-21.12579 -10.18087,-32.33063 -3.42198,-52.92249 -78.265686,-48.08308 -74.843702,4.83941 z"/>
<path d="m 310.38646,251.87881 c -0.0219,0.70077 0.0137,1.40571 -0.0657,2.10231 -0.41532,3.64264 -1.23496,7.22791 -1.89497,10.83425 -1.77287,9.68714 -3.46851,18.7537 -5.94209,28.35025 -1.6011,6.21165 -3.51882,12.33735 -5.27823,18.50603 -7.66537,23.29706 -15.28008,46.60357 -22.68261,69.98558 -16.0008,50.56159 55.50408,73.19014 71.50489,22.62856 v 0 c 7.63459,-24.13507 15.55942,-48.16888 23.36029,-72.2505 2.09236,-7.48462 4.36302,-14.92168 6.27709,-22.45387 2.53825,-9.98846 4.89396,-22.00877 6.72135,-32.32353 1.60279,-9.04697 2.22019,-12.57308 2.90993,-21.36596 0.10464,-1.33395 0.0601,-2.67541 0.0901,-4.01312 0,-53.03301 -75,-53.03301 -75,0 z"/>
<path d="m 186.97169,159.37741 c 0.268,1.3386 0.59304,2.66704 0.804,4.01581 1.01496,6.48903 1.69638,13.99501 2.08228,20.35392 0.87628,14.4397 1.14444,27.95375 0.90712,42.50033 -0.157,9.6236 -0.63788,19.23918 -0.95682,28.85877 -3.36689,51.87737 -7.26556,103.79583 -13.9321,155.37229 -4.6979,36.34584 -8.65289,58.27616 -14.65119,94.61673 -11.62979,67.8973 -27.20307,135.07861 -46.11179,201.30877 -9.54936,33.44785 -18.223727,60.61074 -28.544208,93.73542 -18.144143,52.81521 -8.52271,27.71807 -28.486916,75.43501 -20.369235,48.96524 48.878064,77.77168 69.247304,28.80645 v 0 c 21.87841,-52.8624 11.52751,-25.57629 30.84607,-81.9364 10.63393,-34.14585 19.45066,-61.75086 29.28482,-96.26926 19.57965,-68.72553 35.71327,-138.43126 47.76545,-208.87787 6.33228,-38.4401 10.2141,-59.86549 15.17391,-98.3775 6.89984,-53.57596 10.96113,-107.50547 14.3697,-161.39692 1.14259,-36.38214 2.65063,-73.34009 -3.56526,-109.40308 -0.40351,-2.34103 -0.98753,-4.64734 -1.48129,-6.97101 -12.88952,-51.442782 -85.64061,-33.21424 -72.75108,18.22854 z"/>
<path d="m 182.06753,674.15785 c 14.46033,10.67401 28.25928,22.27011 41.14052,34.81031 3.91973,3.81595 7.70466,7.76795 11.55699,11.65192 11.43008,11.84816 22.53684,24.02447 32.97152,36.76362 5.96705,7.28486 8.92675,11.39238 14.41013,18.72353 31.81335,42.43125 91.8202,-2.55962 60.00685,-44.99087 v 0 c -6.78223,-9.02738 -9.76593,-13.18264 -17.21004,-22.23386 -11.7247,-14.25593 -24.18014,-27.89873 -37.01155,-41.16118 -4.5164,-4.52718 -8.9514,-9.13705 -13.5492,-13.58153 -15.73537,-15.21067 -32.57024,-29.31438 -50.31612,-42.11949 -43.93789,-29.69785 -85.93699,32.43971 -41.9991,62.13755 z"/>
<path d="m 503.45827,146.37071 c 3.75473,23.41504 7.13004,46.90085 11.49715,70.21368 1.22418,6.535 2.59464,13.04175 3.89195,19.56263 4.35003,20.74481 9.48001,41.31117 14.64145,61.86488 12.91799,51.43565 85.65897,33.16685 72.74098,-18.26879 v 0 c -4.86311,-19.36117 -9.70783,-38.73134 -13.83136,-58.26718 -1.19105,-5.95413 -2.45255,-11.89461 -3.57315,-17.8624 -4.2637,-22.70648 -7.53488,-45.58624 -11.20044,-68.39267 -7.88414,-52.443687 -82.05071,-41.293834 -74.16658,11.14985 z"/>
<path d="m 551.33491,172.22486 c 1.99894,-0.32006 4.00664,-0.58947 5.99681,-0.96018 10.36911,-1.93145 20.60437,-4.52365 30.97048,-6.48362 13.90154,-2.62843 17.64509,-3.0485 32.0544,-5.2234 23.63997,-3.15718 47.46492,-5.14289 71.31638,-5.60528 12.05558,-0.23372 15.34582,0.0126 26.9497,0.39088 10.67332,0.55828 21.40037,1.47983 31.73853,4.31131 -8.48922,-2.25011 -14.20567,-9.25533 -19.05025,-16.48583 -7.60846,-11.35556 -0.38108,-5.23658 -3.11756,-7.5085 -2.58148,20.68052 -6.01519,41.3535 -10.70345,61.67058 -1.40519,6.08952 -3.09412,12.11008 -4.64118,18.16512 -4.75624,17.65274 -11.34629,34.7013 -17.91615,51.73046 -19.04061,49.49702 50.95874,76.42451 69.99936,26.92749 v 0 c 7.60561,-19.82208 15.1848,-39.68358 20.62108,-60.24363 1.80211,-7.16834 3.75578,-14.30026 5.40635,-21.505 2.39545,-10.4562 5.35285,-26.51679 7.21814,-37.28402 1.5193,-8.77003 3.40858,-20.04541 4.29314,-29.04011 0.37359,-3.79882 0.47729,-7.61936 0.71594,-11.42903 -0.43222,-8.27233 -0.049,-16.17135 -4.227,-23.86634 -7.34053,-13.51976 -15.58957,-19.692935 -29.4274,-23.63962 -15.88366,-4.131561 -32.19752,-6.130533 -48.59191,-6.767063 -13.97062,-0.412387 -17.53802,-0.683097 -31.99049,-0.377248 -26.70424,0.565127 -53.37508,2.820022 -79.83757,6.403523 -22.00214,3.350289 -43.96217,7.012178 -65.61128,12.229764 -52.74291,5.539424 -44.90898,80.129164 7.83393,74.589744 z"/>
<path d="m 582.61015,312.21188 c 24.70872,-1.82965 49.30459,-4.93148 73.96213,-7.34288 23.3909,-1.32684 11.80702,-1.15323 34.75072,-0.57933 53.02392,0.98196 54.41261,-74.00519 1.38869,-74.98714 v 0 c -29.68543,-0.40568 -15.2042,-0.7646 -43.44723,0.92335 -23.53496,2.30658 -47.01552,5.20523 -70.5874,7.0892 -52.96003,2.78112 -49.02695,77.67792 3.93309,74.8968 z"/>
<path d="m 353.31207,407.73485 c 1.97743,23.96799 6.34165,47.62403 10.54374,71.27436 4.73435,27.18664 9.09106,54.44723 15.44036,81.31493 12.24943,51.59895 85.22136,34.27564 72.97193,-17.3233 v 0 c -6.07802,-25.46128 -9.98335,-51.35755 -14.56924,-77.11427 -4.02933,-22.66919 -8.18342,-45.33343 -10.07756,-68.30743 -7.18117,-52.54456 -81.4904,-42.38885 -74.30923,10.15571 z"/>
<path d="m 415.80666,447.08296 c 22.15289,-4.70613 44.25392,-9.63882 66.44623,-14.1588 25.76302,-5.20191 51.76745,-9.27928 78.03367,-10.59479 5.59395,-0.15186 11.19626,-0.0723 16.77788,0.33855 2.07485,0.15273 2.2374,0.1369 1.30899,0.15071 -12.03656,-1.70159 -19.22166,-8.66261 -25.8486,-18.69503 -1.8165,-2.74997 -1.97842,-6.29235 -3.16631,-9.36659 -0.0638,-0.16499 -0.25862,0.27596 -0.27842,0.45172 -0.22206,1.97039 -0.29402,3.95481 -0.44103,5.93221 -2.06737,26.30182 -5.63802,52.47023 -10.76697,78.35124 -1.23106,6.21199 -2.64803,12.38569 -3.97205,18.57853 -5.96609,23.29559 -2.72148,11.7121 -9.73608,34.74981 -15.34363,50.76488 56.44875,72.46406 71.79238,21.69918 v 0 c 8.16834,-27.19476 4.40792,-13.58258 11.29963,-40.83147 1.46687,-6.91598 3.03578,-13.81111 4.40059,-20.74795 5.65343,-28.73439 9.57591,-57.78969 11.82792,-86.98652 0.63103,-10.79844 2.08634,-24.42659 -3.37677,-34.35019 -7.56929,-13.74943 -16.5794,-20.37113 -31.41058,-23.07102 -10.72374,-1.31723 -21.55481,-1.44704 -32.34568,-1.09988 -10.38906,0.56551 -12.56169,0.56801 -23.39708,1.68594 -22.05846,2.27588 -43.93273,6.03393 -65.68065,10.31661 -22.09031,4.5059 -44.09771,9.38464 -66.14405,14.09785 -52.00763,10.37819 -37.33065,83.92808 14.67698,73.54989 z"/>
<path d="m 427.7248,577.99155 c 22.40932,-5.53278 45.19474,-9.15134 68.02256,-12.42059 21.44772,-2.91887 42.95482,-5.37151 64.44846,-7.92082 52.66385,-6.24648 43.82999,-80.72442 -8.83386,-74.47794 v 0 c -22.10815,2.62232 -44.22997,5.14714 -66.28923,8.1623 -26.39352,3.80911 -52.77361,8.0154 -78.61088,14.73427 -50.85709,15.03518 -29.59413,86.95796 21.26295,71.92278 z"/>
<path d="m 631.40769,402.79404 c 3.42827,15.99612 5.8275,32.18889 9.0172,48.23375 1.10736,5.57022 2.3114,11.12078 3.4671,16.68117 4.94406,22.65256 10.75962,45.10041 16.15259,67.64771 12.33903,51.57759 85.28077,34.12757 72.94174,-17.45003 v 0 c -5.2232,-21.82897 -10.84118,-43.56474 -15.66917,-65.48645 -3.05167,-14.627 -3.33231,-15.50448 -5.97402,-29.96558 -2.40486,-13.16456 -4.35618,-26.43678 -7.58936,-39.43544 -13.98294,-51.1564 -86.32902,-31.38153 -72.34608,19.77487 z"/>
<path d="m 719.38736,426.42547 c 19.01441,-8.28412 39.74148,-11.70761 60.0291,-15.32143 20.49611,-3.25169 41.14587,-5.7234 61.89612,-6.49906 10.22511,-0.38222 12.27232,-0.20996 22.02201,-0.007 7.53315,0.62024 16.18347,0.49966 23.2342,2.54689 -10.73484,-2.90899 -16.50852,-10.26022 -21.89585,-20.04918 -1.56152,-2.83733 -1.41202,-6.32454 -2.28242,-9.44402 -0.0355,-0.12734 -0.34547,-0.23288 -0.38221,-0.10589 -0.53118,1.83645 -0.80585,3.73757 -1.20877,5.60635 -0.79596,3.34101 -1.56697,6.68806 -2.38788,10.02303 -2.55267,10.37028 -5.21723,20.71269 -7.82597,31.06901 -3.04011,12.06876 -6.85366,27.59233 -10.25258,39.49903 -1.89926,6.65327 -4.03029,13.23818 -6.04544,19.85727 -8.62082,24.87281 -4.07322,12.54694 -13.63798,36.9794 -19.25955,49.41224 50.61992,76.64935 69.87946,27.2371 v 0 c 10.90767,-28.09142 5.73096,-13.94234 15.52972,-42.44739 2.24721,-7.43358 4.61431,-14.83197 6.74162,-22.30075 3.50149,-12.29347 7.36285,-27.99784 10.51277,-40.50255 0.0802,-0.31844 7.69567,-30.53213 8.09237,-32.16093 1.01239,-4.15671 1.95186,-8.33084 2.92779,-12.49626 1.06121,-5.50669 3.33935,-15.54248 3.05079,-21.2308 -0.26617,-5.24675 -0.27124,-10.76298 -2.36209,-15.58247 -6.34707,-14.63022 -14.26821,-21.58268 -28.43256,-26.22936 -13.68085,-3.54175 -27.79454,-4.80937 -41.89697,-5.25619 -12.24334,-0.19586 -14.89637,-0.39982 -27.56642,0.11157 -23.79261,0.96033 -47.4748,3.77385 -70.97128,7.5639 -28.06727,5.07904 -56.67591,10.33054 -82.427,23.15934 -46.65513,25.21505 -10.99566,91.19537 35.65947,65.98032 z"/>
<path d="m 713.1653,556.3883 c 17.68999,-3.57222 35.41071,-7.101 53.33376,-9.31629 5.28095,-0.65273 10.58501,-1.10262 15.87751,-1.65392 14.62769,-1.31465 29.3073,-1.44866 43.9789,-1.48131 53.03271,-0.17732 52.78194,-75.1769 -0.25078,-74.99958 v 0 c -17.22538,0.0742 -34.4601,0.27374 -51.62772,1.89807 -6.24469,0.67068 -12.50236,1.22989 -18.73407,2.01205 -18.87933,2.36958 -37.56882,6.00303 -56.20467,9.78935 -52.15028,9.6358 -38.5232,83.38743 13.62707,73.75163 z"/>
<path d="m 454.08819,697.65565 c 26.86938,-5.39173 53.90776,-9.79969 81.00264,-13.87903 52.53848,-7.31617 105.46823,-12.34699 158.51849,-13.64316 10.5014,-0.25658 21.00819,-0.19267 31.51228,-0.28901 25.64728,0.13945 51.2944,1.21412 76.80761,3.89588 5.61474,0.59018 11.20429,1.39947 16.80643,2.09921 52.63284,6.50268 61.82902,-67.93139 9.19618,-74.43407 v 0 c -6.46584,-0.79124 -12.9177,-1.70662 -19.39753,-2.37372 -27.95265,-2.87775 -56.04554,-4.065 -84.14011,-4.18377 -11.24875,0.11466 -22.50052,0.0595 -33.74626,0.34397 -55.80284,1.41164 -111.47866,6.69733 -166.74144,14.42329 -27.70056,4.1842 -55.35431,8.65103 -82.82428,14.17672 -52.22952,9.19662 -39.22353,83.06031 13.00599,73.86369 z"/>
<path d="m 595.05868,572.70544 c -0.6412,27.95652 -0.64703,55.92524 -0.42686,83.88701 0.12807,9.03318 0.30318,18.06582 0.3842,27.09955 0.20444,22.79733 0.25078,36.09474 -0.44448,59.01606 -0.9616,31.70188 -3.0735,63.35703 -5.09322,95.00344 -3.32193,39.84679 -1.4992,20.58065 -5.38832,57.80591 -5.49479,52.74758 69.10155,60.5184 74.59635,7.77082 v 0 c 4.07865,-39.26151 2.17305,-18.99611 5.63991,-60.80337 2.08887,-32.77813 4.25703,-65.56338 5.23263,-98.39947 0.70832,-23.84023 0.66104,-37.83824 0.44956,-61.45856 -0.0795,-8.87866 -0.25268,-17.75624 -0.37903,-26.63436 -0.21503,-26.4461 -0.16795,-52.89314 0.32514,-79.33632 2.79357,-52.95938 -72.1023,-56.91009 -74.89588,-3.95071 z"/>
<path d="m 591.65932,648.31799 c -1.18576,-1.95504 -0.1386,-0.30895 -4.69702,4.43152 -9.19097,9.55802 -17.74607,19.71642 -26.64949,29.53606 -4.2778,4.71802 -8.62416,9.37342 -12.93625,14.06013 -5.1408,5.31322 -10.24898,10.65819 -15.4224,15.93966 -14.39962,14.70037 -22.02009,22.41411 -37.35063,36.56646 -21.99936,20.30864 -44.84724,39.64654 -67.77098,58.89173 -21.33239,17.21297 -42.73639,34.33406 -64.01346,51.61537 -41.16448,33.43629 6.12156,91.65166 47.28605,58.21537 v 0 c 21.59456,-17.54167 43.33009,-34.90568 64.9632,-52.39984 24.11436,-20.26181 48.14126,-40.62268 71.26735,-62.01992 15.91873,-14.72869 24.65443,-23.5214 39.54601,-38.74605 5.60367,-5.72898 11.13336,-11.52986 16.70004,-17.29479 4.57423,-4.97628 9.18247,-9.92152 13.72269,-14.92884 10.24597,-11.30007 19.93326,-23.15412 31.04628,-33.63271 35.52091,-39.37976 -20.17048,-89.61391 -55.69139,-50.23415 z"/>
<path d="m 605.54178,726.12061 c 13.36551,11.39813 25.84143,23.80401 38.32096,36.15224 22.39537,21.99922 44.56751,44.22566 67.13987,66.04383 14.80392,13.92691 29.19336,28.29288 44.42481,41.75693 17.16457,15.02953 37.74339,24.93805 58.23376,34.51812 21.29489,10.094 43.82258,17.03449 66.29631,23.91577 50.71734,15.50004 72.63771,-56.22511 21.92037,-71.72515 v 0 c -19.14842,-5.83989 -38.3999,-11.58299 -56.54585,-20.17561 -14.0006,-6.49369 -28.36042,-12.8231 -40.31007,-22.79487 -14.41275,-12.65925 -27.87148,-26.35044 -41.90032,-39.42671 -22.36827,-21.61194 -44.32373,-43.64525 -66.51768,-65.43553 -14.12082,-13.96147 -28.25863,-27.96522 -43.44776,-40.77615 -40.9748,-33.66846 -88.5892,24.27866 -47.6144,57.94713 z"/>
</svg>
