<?xml version="1.0" ?>
<svg xmlns="http://www.w3.org/2000/svg" viewBox="0 0 1000 1000">
<path d="m 593.73135,15.539693 c -0.9526,0.772554 -1.85662,1.609191 -2.85779,2.317662 -4.45935,3.155621 -12.02521,7.387246 -16.06035,9.56858 -5.79376,3.132014 -11.61152,6.225121 -17.52157,9.131742 -17.3601,8.537871 -33.99129,15.683438 -51.74595,23.568451 -49.93872,21.812683 -100.68198,41.907122 -152.40378,59.113052 -7.61403,2.5329 -15.293,4.86625 -22.9395,7.29938 -15.25654,4.70353 -30.69106,8.78739 -46.18808,12.60935 -3.43371,0.84685 -13.18272,3.06486 -16.77006,4.33296 -3.39321,1.19949 -6.65222,2.74931 -9.97833,4.12397 -5.42323,4.83625 -12.79556,8.12665 -16.26969,14.50875 -9.77973,17.96572 -8.5867,29.15796 -1.49748,45.8569 1.96882,4.63762 4.977,8.77286 7.79102,12.95198 4.0812,6.06104 13.51894,17.48516 18.02691,23.06648 3.76362,4.4336 7.48859,8.9003 11.29085,13.3008 14.98898,17.34729 9.52408,10.47193 24.05046,27.66162 7.43796,8.80164 13.48095,16.31742 20.71223,25.21385 33.45546,41.1489 91.6488,-6.16426 58.19334,-47.31316 v 0 c -8.00652,-9.84534 -13.7656,-17.01595 -22.05309,-26.81691 -14.80437,-17.50794 -9.23919,-10.55396 -23.75667,-27.31807 -3.41058,-3.93837 -6.75379,-7.93457 -10.13069,-11.90186 -2.73725,-3.37662 -5.49249,-6.73875 -8.21177,-10.12987 -1.7714,-2.20907 -3.44554,-4.49646 -5.25997,-6.67032 -0.54378,-0.6515 -1.63379,-2.62588 -1.80553,-1.79482 -0.48854,2.36403 1.24184,4.86005 0.68661,7.20931 -5.40962,22.88906 -4.00674,18.20401 -19.84249,30.04177 -3.06349,0.39951 -3.49792,0.54027 3.52442,-1.26706 13.15866,-3.38662 26.37266,-6.43377 39.45856,-10.12304 6.9537,-1.96043 13.86862,-4.05585 20.80293,-6.08377 8.21475,-2.62175 16.46338,-5.13963 24.64426,-7.86525 53.7482,-17.90728 106.48652,-38.79177 158.38667,-61.47051 19.9935,-8.89288 36.61745,-16.01106 56.07328,-25.6603 16.03824,-7.954267 31.97073,-16.49772 46.38601,-27.178937 1.6767,-1.242377 3.21626,-2.659886 4.82439,-3.989829 39.80509,-35.043611 -9.75406,-91.336512 -49.55915,-56.292901 z"/>
<path d="m 455.61398,202.56379 c 7.50937,15.66164 18.44152,29.35902 28.81173,43.18295 31.82947,42.41916 91.81922,-2.59451 59.98975,-45.01367 v 0 c -8.22684,-10.96092 -17.13821,-21.6631 -22.99305,-34.14496 -25.43865,-46.53359 -91.24708,-10.55791 -65.80843,35.97568 z"/>
<path d="m 623.87703,149.83229 c -0.0599,-0.0941 -0.13578,-0.38466 -0.17978,-0.28218 -0.42127,0.98135 -0.64869,2.03539 -1.00503,3.04214 -0.94066,2.65766 -1.92333,5.30027 -2.88563,7.95017 -1.76971,4.87332 -3.50741,9.75839 -5.31039,14.6195 -8.41389,22.68524 -5.50163,15.10067 -15.42018,38.01976 -3.40875,6.74623 -6.81751,13.49245 -10.22627,20.23867 -23.78297,47.40117 43.2524,81.03537 67.03537,33.63421 v 0 c 4.02596,-8.07169 8.05191,-16.14338 12.07787,-24.21506 10.90154,-25.43465 8.13943,-18.05489 17.04011,-42.10851 1.9803,-5.35165 3.96752,-10.70179 5.82851,-16.09609 3.8965,-11.29452 7.8223,-22.71791 8.04542,-34.80261 0,-53.033005 -75,-53.033005 -75,0 z"/>
<path d="m 169.46756,330.74656 c 0.19243,31.20875 8.49662,61.49961 16.77864,91.33999 6.65912,22.75211 13.37749,45.48575 20.34625,68.14498 15.59349,50.68869 87.27812,28.63616 71.68463,-22.05252 v 0 c -6.77616,-22.02039 -13.29724,-44.11651 -19.78324,-66.22401 -6.51401,-23.27263 -13.49999,-46.86019 -14.02628,-71.20844 0,-53.033 -75,-53.033 -75,0 z"/>
<path d="m 312.61308,360.61235 c 21.80437,-7.79892 43.80695,-14.98077 66.19465,-20.93419 8.53622,-2.26999 17.13056,-4.31555 25.69584,-6.47332 41.20523,-9.67732 82.74944,-18.09274 124.67849,-23.98383 27.39055,-3.84841 37.06119,-4.49438 64.42084,-7.14787 34.1178,-2.71775 68.39676,-4.254 102.61802,-2.85933 13.81968,0.56321 17.72966,1.08604 30.81392,2.31483 8.0683,0.86944 16.08239,2.16955 24.03005,3.79753 2.50502,0.51312 5.13523,1.00734 7.58245,1.78905 -14.3431,-4.25394 -18.56527,-12.41454 -24.03035,-25.80716 -0.86895,-2.12942 0.13187,-4.75347 -0.80905,-6.85207 -0.397,-0.88545 -0.73814,1.79652 -1.04487,2.71714 -1.01231,3.03833 -1.94068,6.10398 -2.91102,9.15597 -1.43271,4.56564 -2.84323,9.13831 -4.29813,13.69693 -4.49983,14.09924 -6.10996,19.22594 -11.43448,33.39679 -4.15508,11.05847 -11.19787,28.32973 -15.47585,39.19049 -2.84774,7.22975 -5.63897,14.48163 -8.45846,21.72245 -19.24042,49.4197 50.64958,76.62976 69.89001,27.21007 v 0 c 8.15828,-20.95821 16.77616,-41.76202 24.65026,-62.82875 5.717,-15.29557 7.60566,-21.25071 12.38795,-36.23557 1.45683,-4.56484 2.86931,-9.14372 4.30397,-13.71558 1.79639,-5.79 6.05562,-18.53128 6.77185,-24.69579 0.60017,-5.16551 1.5877,-10.55376 0.32134,-15.59747 -4.67792,-18.63147 -8.81559,-22.08416 -23.48444,-31.28777 -1.88229,-1.181 -4.16684,-1.54545 -6.25025,-2.31817 -14.67758,-3.96081 -29.75279,-6.30367 -44.84222,-8.02013 -15.34293,-1.39733 -19.81955,-1.98716 -35.93314,-2.61168 -37.24284,-1.44342 -74.54408,0.18133 -111.67032,3.19167 -29.44428,2.88102 -39.24473,3.52683 -68.76767,7.69999 -44.19638,6.24728 -87.99201,15.12153 -131.42236,25.36112 -9.25403,2.34218 -18.54017,4.56093 -27.76207,7.02656 -23.46874,6.27477 -46.56972,13.74459 -69.43429,21.93095 -50.32277,16.73675 -26.65344,87.90389 23.66933,71.16714 z"/>
<path d="m 355.54309,335.33024 c 4.74934,20.85623 9.38492,41.71861 13.17798,62.77269 0.63771,3.87962 1.27541,7.75925 1.91312,11.63887 8.62204,52.32743 82.6242,40.13404 74.00217,-12.1934 v 0 c -0.70413,-4.26404 -1.40827,-8.52809 -2.1124,-12.79213 -3.87041,-21.33031 -8.41387,-42.50822 -13.33626,-63.62008 -10.03671,-52.07461 -83.68132,-37.88056 -73.64461,14.19405 z"/>
<path d="m 534.32503,295.52969 c -2.15329,15.5839 -6.45037,30.78687 -10.29712,46.01018 -1.56284,6.1849 -3.09571,12.37733 -4.64357,18.56599 -2.45545,9.82363 -7.33957,30.33012 -10.70274,39.95028 -1.90797,5.45763 -4.55188,10.62941 -6.82782,15.94412 -20.20218,49.0344 49.14293,77.60459 69.34511,28.5702 v 0 c 3.20263,-7.98279 6.80296,-15.81731 9.60789,-23.94837 3.5831,-10.38689 8.59233,-31.34034 11.33677,-42.32014 6.23329,-24.92716 13.48603,-49.76056 16.80762,-75.29298 5.28865,-52.76865 -69.33749,-60.24793 -74.62614,-7.47928 z"/>
<path d="m 252.91563,508.63241 c 5.33684,-0.53817 6.50872,-0.60507 12.72093,-1.56611 10.35959,-1.60264 20.1951,-3.4699 30.55008,-5.36789 34.29072,-6.28525 11.40037,-2.193 49.87479,-8.9367 63.23274,-10.56213 127.00874,-18.01525 190.99352,-22.08231 13.70456,-0.8711 27.42837,-1.40691 41.14256,-2.11037 44.33647,-2.06328 88.71063,-1.51756 133.05252,-0.18446 53.00939,1.58285 55.24787,-73.38374 2.23849,-74.96659 v 0 c -46.37558,-1.37572 -92.78475,-1.92835 -139.15314,0.25056 -14.32043,0.74211 -28.65093,1.31052 -42.96131,2.22632 -66.42164,4.25065 -132.6246,12.01208 -198.26457,22.99366 -9.39513,1.64767 -18.79639,3.26067 -28.18538,4.94299 -16.50097,2.95665 -32.9468,6.29251 -49.50385,8.93387 -3.62477,0.57826 -4.88374,0.71076 -7.83623,1.05677 -52.89884,3.77 -47.56725,78.58026 5.33159,74.81026 z"/>
<path d="m 259.24842,609.62257 c 16.18842,-3.62893 32.17952,-8.07654 48.35776,-11.75991 5.68295,-1.29387 11.38912,-2.48359 17.08367,-3.72538 29.14937,-5.73759 58.46796,-10.98817 88.05857,-13.8699 4.45447,-0.43381 8.92169,-0.72491 13.38253,-1.08737 13.65402,-0.90671 27.36381,-1.17769 41.01459,-0.13304 0.41171,0.0383 2.98535,0.26946 3.61927,0.3542 0.25844,0.0345 -0.52302,-0.0155 -0.77987,-0.0604 -1.00451,-0.17541 -2.03151,-0.27983 -2.99979,-0.59959 -2.32843,-0.76894 -4.75809,-1.39354 -6.85996,-2.65648 -3.32997,-2.00087 -6.18983,-4.69623 -9.28475,-7.04435 -11.11143,9.64914 -2.6293,-11.04556 -6.9298,-10.89213 -0.96562,0.0344 0.15917,1.92598 0.22331,2.89007 0.16305,2.45064 0.35885,4.89987 0.45826,7.35392 0.45474,11.22485 0.28467,14.06133 0.22143,26.04702 -0.18724,38.00292 -7.60887,75.32451 -14.39043,112.5503 -1.10347,6.55199 -2.20695,13.10398 -3.31043,19.65597 -8.79874,52.29802 65.16182,64.74131 73.96056,12.4433 v 0 c 1.04518,-6.21927 2.09037,-12.43854 3.13556,-18.65781 3.7856,-20.78126 7.88723,-41.53936 10.72781,-62.47888 2.07263,-15.27851 3.33137,-28.3878 4.18747,-43.74699 0.36153,-6.48613 0.45927,-12.98427 0.6889,-19.47641 0.0388,-14.6595 0.277,-29.36917 -1.38651,-43.96692 -0.67583,-5.93064 -2.10101,-14.81616 -4.66041,-20.25856 -1.94565,-4.13729 -4.80586,-7.77912 -7.20879,-11.66869 -3.61109,-2.92095 -6.91466,-6.26958 -10.83327,-8.76286 -6.85176,-4.35952 -15.2043,-5.10852 -23.0433,-5.82017 -17.54955,-1.26927 -35.16549,-1.07705 -52.71546,0.18236 -5.19819,0.43429 -10.40368,0.78878 -15.59459,1.30288 -32.15218,3.18427 -64.02059,8.83418 -95.68916,15.12887 -21.16877,4.63298 -42.22883,9.67685 -63.22482,15.03592 -52.12865,9.75217 -38.33699,83.4732 13.79165,73.72103 z"/>
<path d="m 314.57702,690.39926 c 15.20871,-2.18322 29.99096,-6.54721 45.02556,-9.62518 4.25638,-0.87139 8.54048,-1.60145 12.81073,-2.40217 16.95143,-2.64913 34.124,-4.41118 51.29947,-3.50829 8.45722,0.44458 12.47415,1.18841 20.72689,2.3548 52.5516,7.12947 62.63419,-67.18971 10.08259,-74.31918 v 0 c -12.43372,-1.63686 -16.9057,-2.48934 -29.77992,-3.02855 -22.1932,-0.92953 -44.37878,1.24021 -66.26217,4.8068 -5.0611,0.96352 -10.13667,1.85391 -15.1833,2.89056 -12.53394,2.57462 -24.88222,6.01212 -37.46354,8.34263 -52.67137,6.18272 -43.92769,80.6713 8.74369,74.48858 z"/>
<path d="m 304.3044,782.46261 c 17.8466,-4.55241 36.1819,-6.67019 54.45615,-8.62947 30.07745,-2.92374 60.29666,-3.28776 90.48685,-3.02654 53.0311,0.44994 53.66742,-74.54736 0.63632,-74.99731 v 0 c -33.09934,-0.27561 -66.23042,0.19517 -99.19971,3.45999 -21.96989,2.40076 -43.99222,5.07878 -65.42693,10.65231 -51.29424,13.46849 -32.24692,86.00951 19.04732,72.54102 z"/>
<path d="m 235.68152,601.51518 c -0.83413,27.55401 -3.14009,55.04674 -5.09063,82.53832 -2.57698,36.31118 -4.45271,72.67609 -5.18985,109.07372 -0.46806,23.11137 -0.31289,28.19224 -0.21861,50.91118 0.28671,29.50866 1.96701,58.97699 3.80446,88.42193 0.69425,4.22181 0.0707,8.68168 0.91181,12.89113 0.7035,3.52065 0.002,7.89844 2.50103,10.47637 9.35579,9.65186 19.20623,20.03315 31.75166,24.86031 7.22402,2.77961 15.26856,-2.55379 22.90284,-3.83069 3.48564,-1.6679 6.98849,-3.30031 10.45693,-5.00372 13.23814,-6.50149 11.0112,-5.79274 25.32928,-12.45389 17.13129,-7.96992 34.63705,-14.9723 52.17331,-21.9867 6.87261,-2.67083 13.74522,-5.34166 20.61783,-8.01249 49.42988,-19.21423 22.25685,-89.11864 -27.17303,-69.9044 v 0 c -7.10538,2.76265 -14.21077,5.52531 -21.31615,8.28796 -29.65862,11.87998 -59.24816,24.06168 -87.41623,39.2293 4.89817,-0.20633 10.39703,-2.97827 14.69452,-0.61899 11.0122,6.04559 20.07185,15.29801 28.69112,24.43726 1.75506,1.86094 0.92388,5.03265 1.46081,7.53365 0.10078,0.46943 -0.11513,-0.95366 -0.15097,-1.43245 -0.22798,-3.04585 -0.33712,-6.0999 -0.58042,-9.1447 -1.74786,-27.99824 -3.36844,-56.01777 -3.65951,-84.07641 -0.0987,-21.59589 -0.24891,-26.50267 0.19032,-48.49899 0.70533,-35.32265 2.52803,-70.61318 5.03079,-105.85152 2.07567,-29.25598 4.56054,-58.51707 5.27869,-87.84618 0,-53.03301 -75,-53.03301 -75,0 z"/>
<path d="m 413.93608,853.56923 c 0.0213,0.0773 -0.006,0.19238 0.0641,0.23173 10.42565,5.87687 -4.50887,-3.27421 10.86374,5.89296 9.22296,5.49994 17.64171,11.90958 26.11468,18.47962 9.76792,7.86824 19.4199,15.87854 29.08859,23.86787 40.88214,33.78091 88.65557,-24.03518 47.77342,-57.81609 v 0 c -10.33228,-8.53745 -20.64228,-17.10302 -31.10725,-25.47822 -4.10655,-3.14448 -8.14123,-6.38511 -12.31964,-9.43346 -15.13567,-11.04217 -31.34831,-21.06442 -48.97053,-27.59457 -50.80573,-15.2078 -72.31281,56.64237 -21.50707,71.85016 z"/>
<path d="m 566.81474,655.47203 c 23.12357,-5.58751 46.44371,-10.55551 69.93423,-14.35312 7.9613,-1.28707 15.95814,-2.34376 23.93721,-3.51564 38.04832,-4.77637 76.53371,-8.6836 114.931,-6.54933 5.20458,0.28929 10.38655,0.89724 15.57982,1.34587 10.32264,0.98373 20.46627,3.02684 30.54828,5.36125 51.72299,11.7146 68.28994,-61.43276 16.56695,-73.14736 v 0 c -13.52036,-3.01465 -27.10543,-5.72813 -40.93207,-6.95858 -6.56782,-0.5243 -13.12335,-1.23617 -19.70344,-1.5729 -42.75161,-2.18776 -85.58456,1.89072 -127.94184,7.3249 -8.72842,1.29414 -17.47601,2.46499 -26.18527,3.88241 -25.15337,4.09367 -50.12366,9.42147 -74.88691,15.41229 -51.45631,12.83544 -33.30427,85.60565 18.15204,72.77021 z"/>
<path d="m 665.22115,524.76041 c 2.93804,33.51361 4.45484,67.13212 6.0855,100.72827 2.08894,42.60422 2.64786,85.27573 1.62525,127.91882 -0.6172,25.73744 -1.25365,35.74129 -2.48602,61.11715 -2.50112,34.55714 -3.96937,69.53521 -11.71109,103.42866 -1.68137,1.70688 -0.80587,5.28327 -2.46345,7.20575 -0.32169,0.37311 0.10924,-1.0018 0.33572,-1.4393 2.41252,-4.66051 5.57381,-8.5379 10.50256,-11.10303 4.22185,-2.19722 9.06621,-2.90017 13.59931,-4.35025 2.90791,0.14391 5.84013,0.83369 8.72371,0.43175 0.67371,-0.0939 -0.87966,-1.0597 -1.43872,-1.44721 -2.69251,-1.86628 -5.54101,-3.49736 -8.28248,-5.29096 -3.86183,-2.52659 -7.73252,-5.04181 -11.52658,-7.66907 -12.6617,-8.76781 -14.24996,-10.30792 -26.83013,-20.11449 -41.88073,-32.53468 -87.8917,26.69361 -46.01098,59.22829 v 0 c 5.48077,4.24511 10.88378,8.59258 16.44232,12.73535 9.2819,6.91779 18.14031,12.93167 27.817,19.19435 5.47094,3.54076 18.38699,11.87005 24.37788,13.91309 6.00262,2.04705 12.40131,2.66366 18.60197,3.99548 6.64352,-1.50283 13.66564,-1.83535 19.93055,-4.5085 4.86214,-2.07461 8.89854,-5.81062 12.74706,-9.4346 2.7356,-2.57599 4.79873,-5.80905 6.81101,-8.98237 5.02223,-7.91991 7.46905,-17.12365 9.87037,-26.06347 0.83537,-3.81945 1.7683,-7.61887 2.5061,-11.45837 6.62514,-34.47709 8.47941,-69.70034 10.91012,-104.64415 1.27776,-26.46949 1.93202,-36.76116 2.56558,-63.63562 1.0426,-44.2255 0.45606,-88.47991 -1.70532,-132.66485 -1.7029,-35.05488 -3.28294,-70.13576 -6.42594,-105.09837 -5.66226,-52.72986 -80.23356,-44.72222 -74.5713,8.00765 z"/>
<path d="m 551.94223,757.01435 c 8.01008,2.65786 16.18078,4.81686 24.08854,7.78898 4.20301,1.5797 8.31162,3.40002 12.46743,5.10003 49.18295,19.83779 77.23782,-49.7174 28.05488,-69.55519 v 0 c -5.54886,-2.21433 -11.04631,-4.5621 -16.64657,-6.64301 -8.27006,-3.07293 -16.77748,-5.39084 -25.15243,-8.13743 -50.52039,-16.13041 -73.33224,55.31621 -22.81185,71.44662 z"/>
</svg>
