<?xml version="1.0" ?>
<svg xmlns="http://www.w3.org/2000/svg" viewBox="0 0 1000 1000">
<path d="m 340.20904,117.4714 c -9.09669,11.78549 -16.97234,24.45662 -25.6996,36.50715 -4.26188,5.88477 -8.62011,11.70167 -13.09684,17.42468 -5.49043,7.01891 -11.20009,13.86355 -16.80014,20.79532 -34.12359,42.63765 -70.68451,83.28064 -108.48396,122.67812 -7.30351,7.61227 -14.72024,15.1151 -22.08036,22.67265 -26.72851,26.34432 -13.75217,13.7863 -38.87903,37.72566 -38.38837,36.59007 13.35779,90.87943 51.74617,54.28936 v 0 c 26.40762,-25.18096 12.76664,-11.9675 40.86968,-39.69529 7.61334,-7.82146 15.28535,-15.58625 22.84002,-23.4644 39.15204,-40.82847 77.00554,-82.958 112.3689,-127.12522 6.14205,-7.6287 12.40864,-15.15879 18.42615,-22.88611 14.63757,-18.79667 27.58467,-38.76214 41.63042,-57.98346 28.94786,-44.43559 -33.89355,-85.374048 -62.84141,-40.93846 z"/>
<path d="m 175.39327,196.37296 c 2.98877,4.55135 5.58025,8.39916 8.38552,13.16242 2.52221,4.28264 13.72026,24.44887 15.01686,26.77869 13.61938,24.47227 7.7805,13.88213 21.83333,39.77548 13.27321,24.82148 26.47573,49.73123 37.2818,75.75681 3.85743,9.29034 7.42795,18.70192 10.80163,28.17864 8.93634,25.10228 11.60296,35.84887 19.03628,61.60861 11.14069,41.51346 20.42274,83.6833 23.9841,126.59786 2.23065,26.87951 1.53243,32.33898 1.18718,59.01528 -1.62651,34.45953 -6.20618,68.75953 -13.36862,102.50019 -3.71435,17.49746 -5.17889,21.96839 -9.76028,38.7501 -6.54611,22.6811 -15.03497,44.76206 -25.29382,66.01353 -1.58751,3.03548 -3.11317,6.13752 -5.11249,8.93373 -0.19509,0.27285 -0.80212,1.07228 -0.6314,0.78355 1.4977,-2.533 2.89997,-3.31737 5.40926,-5.70388 11.2675,-5.87022 5.94152,-4.27796 17.99528,-6.12672 0.88573,-0.13585 3.30277,0.31463 2.66927,-0.31914 -1.67284,-1.67354 -4.22334,-2.13872 -6.2857,-3.29881 -12.48366,-7.02214 -13.4359,-7.96065 -26.66548,-16.49773 -44.63406,-28.6409 -85.13841,34.48119 -40.50435,63.12209 v 0 c 13.0082,8.3082 21.13339,13.9539 34.60087,20.93497 14.69367,7.61669 29.68594,13.73882 46.62993,9.95528 5.02294,-1.12161 9.4649,-4.04565 14.19735,-6.06847 2.74242,-2.26517 5.64915,-4.34494 8.22725,-6.79551 1.7179,-1.63293 3.14714,-3.54847 4.61379,-5.41035 5.0511,-6.41225 8.67499,-13.85431 12.45956,-21.03109 12.16031,-25.40693 22.36626,-51.72644 30.07023,-78.83945 5.19745,-19.23413 6.8279,-24.23772 11.02938,-44.22899 8.01889,-38.15513 13.07218,-76.94323 14.71603,-115.9045 0.24631,-31.0032 1.01945,-37.24481 -1.6745,-68.3542 -4.07575,-47.06641 -14.15703,-93.34917 -26.45081,-138.88309 -8.20488,-28.25969 -11.15617,-40.09234 -21.09815,-67.73062 -3.87187,-10.76363 -7.98296,-21.44616 -12.39689,-31.99909 -11.58892,-27.70705 -25.58876,-54.29071 -39.75171,-80.73909 -14.26882,-26.28162 -8.57633,-15.9677 -22.23876,-40.51248 -3.84827,-6.91348 -12.57282,-22.67955 -16.91402,-29.99146 -3.52087,-5.93024 -4.86856,-7.86791 -8.04076,-12.60502 -27.69911,-45.22455 -91.65627,-6.05209 -63.95716,39.17246 z"/>
<path d="m 285.16138,432.60029 c -2.35991,4.0573 -1.73315,2.92768 -4.95645,8.93518 -4.75243,8.85747 -5.04476,10.04292 -10.72341,18.77559 -7.65891,11.77794 -10.80683,15.50412 -19.65196,27.2775 -32.89268,41.49553 -70.83942,78.59594 -108.68526,115.49984 -6.92813,6.77798 -13.85627,13.55595 -20.7844,20.33393 -37.908514,37.08699 14.54041,90.69772 52.44892,53.61073 v 0 c 6.90097,-6.75144 13.80193,-13.50287 20.7029,-20.25431 40.62139,-39.63022 81.27889,-79.54387 116.37816,-124.27074 4.40354,-5.91025 8.93777,-11.72534 13.21062,-17.73075 7.43047,-10.44338 12.34873,-18.18149 18.58533,-29.09844 2.52835,-4.4258 4.742,-9.02495 7.20778,-13.48591 0.87623,-1.58522 1.78203,-3.15392 2.67304,-4.73089 24.65097,-46.95561 -41.7543,-81.81735 -66.40527,-34.86173 z"/>
<path d="m 433.77255,377.51548 c 18.17183,-8.60451 37.02066,-15.77665 55.79416,-22.94836 48.05003,-16.95229 97.48981,-29.56588 147.02982,-41.29067 27.68932,-6.0977 55.54862,-11.6188 83.69731,-15.14036 12.15199,-1.52028 14.84509,-1.59896 26.43059,-2.4831 6.61609,-0.29233 13.27093,-0.56256 19.88016,0.0461 0.79684,0.0734 1.59039,0.18891 2.37715,0.33506 0.1973,0.0367 0.76259,0.18429 0.56374,0.21125 -0.36201,0.0491 -0.72463,-0.0936 -1.08694,-0.14034 -10.63941,-2.99848 -17.25878,-11.3524 -21.00878,-21.45904 3.2706,27.64705 4.36431,55.48154 5.2,83.28788 0.68249,41.01828 -0.43356,82.22349 -6.69275,122.83367 -1.10243,7.1526 -2.56282,14.24543 -3.84423,21.36815 -5.60747,25.02155 -11.93583,50.27848 -23.09358,73.50572 -1.29431,2.69439 -2.78799,5.28839 -4.18198,7.93258 -3.84056,6.58629 -8.20087,12.92766 -13.7759,18.17233 -2.34008,2.20141 -1.74286,1.74295 -3.66375,2.91221 0.68634,-0.58578 1.25851,-1.34094 2.05902,-1.75734 2.35814,-1.22664 4.80089,-2.32589 7.33475,-3.12903 1.75584,-0.55654 4.47981,0.64411 5.44823,-0.9227 0.7289,-1.17929 -2.42237,-1.35441 -3.67943,-1.93905 -10.47452,-4.87148 -21.06203,-9.49641 -31.57082,-14.29351 -23.41422,-10.18513 -45.92025,-22.20857 -68.39139,-34.2802 -46.73547,-25.06582 -82.18389,41.02812 -35.44842,66.09394 v 0 c 23.91015,12.80463 47.81924,25.5659 72.70545,36.41859 5.71452,2.60652 30.15881,13.89073 36.91851,16.48879 11.71142,4.50123 21.52364,7.82956 34.41193,6.71041 12.80056,-1.11153 16.25439,-4.26981 25.99149,-9.98237 2.11038,-1.69001 4.29042,-3.29653 6.33114,-5.07003 13.1936,-11.46597 23.43405,-25.87681 31.97319,-41.01888 2.08416,-4.09351 4.30272,-8.12134 6.2525,-12.28055 13.44652,-28.6836 21.58881,-59.56846 28.21996,-90.42616 1.46209,-8.3007 3.12665,-16.56827 4.38628,-24.9021 6.73404,-44.55283 8.07922,-89.72773 7.2751,-134.71586 -0.97829,-31.77711 -2.13049,-63.65711 -6.51685,-95.18061 -2.29701,-9.15117 -2.04781,-11.10261 -7.75599,-19.64564 -5.63403,-8.43205 -14.68827,-13.58587 -24.03243,-16.76442 -1.93517,-0.502 -3.8509,-1.08599 -5.8055,-1.50601 -13.96562,-3.00102 -28.4511,-2.22949 -42.60268,-1.67646 -13.68039,1.08314 -16.79174,1.18086 -31.00917,2.98148 -30.46134,3.85791 -60.62053,9.79924 -90.58422,16.43537 -52.76358,12.51011 -105.41733,25.99064 -156.54034,44.22219 -21.86195,8.3751 -43.87391,16.67276 -64.84749,27.12126 -46.58124,25.3513 -10.72908,91.22711 35.85216,65.87581 z"/>
<path d="m 427.7592,416.76297 c 0.1,23.14803 -0.46337,46.29642 -0.52099,69.44818 0.52487,45.14355 0.31379,90.28571 0.0616,135.42973 -0.0295,28.68038 0.50566,57.38909 3.03786,85.97182 1.46729,16.56228 1.98113,18.8106 4.22888,34.8764 3.67296,21.20766 8.52715,42.54871 17.59767,62.18962 1.50405,3.25682 3.2524,6.39515 4.8786,9.59272 8.32392,14.12168 19.78186,26.21032 34.00904,34.51329 10.03081,5.85397 14.09056,6.81212 24.85106,10.75648 28.4474,8.79122 58.18501,11.88868 87.7258,14.39303 33.03833,2.69376 66.18564,2.84361 99.29764,1.97558 28.1895,-1.15022 56.34164,-3.02815 84.51799,-4.45091 17.68323,-0.83875 35.36029,-1.81912 52.98599,-3.49182 8.45379,-1.2774 17.22463,-1.30041 25.46394,-3.82356 2.66564,-0.81631 5.23221,-1.92663 7.84832,-2.88995 9.73586,-6.08052 12.50019,-6.53812 19.50829,-16.59571 10.85677,-15.58096 12.35358,-38.4417 14.34168,-56.60473 2.33268,-36.69276 2.77,-73.47748 3.65726,-110.22546 1.28007,-53.01755 -73.69808,-54.82784 -74.97815,-1.81028 v 0 c -0.83899,34.75 -1.31363,69.52711 -3.27253,104.237 -0.42768,4.37625 -0.75669,8.76327 -1.28304,13.12876 -0.32266,2.67615 -0.88142,5.31896 -1.26294,7.98735 -0.10526,0.73614 -0.88142,2.51248 -0.19681,2.22217 1.22464,-0.51931 1.49895,-2.21475 2.42689,-3.16784 5.40754,-5.5541 4.88936,-4.64891 11.45101,-8.0795 1.02119,-0.27802 2.03053,-0.60403 3.06359,-0.83406 0.2679,-0.0597 1.08586,-0.10948 0.82278,-0.0313 -1.84369,0.54779 -3.8091,0.53886 -5.71913,0.76473 -10.69844,1.26513 2.17111,-0.23489 -9.0025,1.0622 -16.50994,1.58914 -33.07555,2.43764 -49.63933,3.24757 -27.57987,1.39437 -55.13694,3.21278 -82.72767,4.38187 -30.35297,0.82019 -60.73857,0.70569 -91.02669,-1.739 -23.23241,-1.93013 -46.62369,-4.15992 -69.16143,-10.42283 -6.58102,-2.08343 -12.85301,-3.50294 -17.23685,-9.25231 -0.76742,-1.38066 -1.6093,-2.72249 -2.30226,-4.14198 -6.62538,-13.57175 -9.60826,-28.67294 -12.37651,-43.38864 -1.9843,-13.86827 -2.39138,-15.50265 -3.70127,-29.99656 -2.40151,-26.57262 -2.83966,-53.26946 -2.82835,-79.93517 0.25259,-45.22323 0.46829,-90.44474 -0.0606,-135.66747 0.0566,-24.17485 0.7277,-48.34743 0.46556,-72.51833 -2.04278,-52.99365 -76.98712,-50.10473 -74.94435,2.88892 z"/>
</svg>
