<?xml version="1.0" ?>
<svg xmlns="http://www.w3.org/2000/svg" viewBox="0 0 1000 1000">
<path d="m 329.76653,178.44647 c -15.99587,28.94829 -38.15692,53.71427 -59.22795,78.97314 -23.4452,28.36503 -48.45818,55.38203 -73.78208,82.06402 -14.38874,15.16039 -38.81378,40.42415 -53.7203,55.28912 -8.2234,8.20048 -16.62561,16.21965 -24.93842,24.32948 -28.334149,26.02017 -14.65985,13.82658 -40.925868,36.68932 -39.983149,34.84031 9.288501,91.38503 49.271648,56.54471 v 0 c 28.31006,-24.69345 13.59609,-11.54394 44.04033,-39.56192 8.68219,-8.47795 17.45537,-16.8637 26.04655,-25.43386 15.21922,-15.18199 40.27151,-41.09599 54.95367,-56.57441 26.31004,-27.73692 52.27587,-55.83923 76.65108,-85.30866 23.4265,-28.09341 47.78898,-55.82168 65.65739,-87.95119 27.61942,-45.27326 -36.40663,-84.33301 -64.02605,-39.05975 z"/>
<path d="m 164.96839,236.21313 c -0.054,0.0257 -0.20655,0.0372 -0.16193,0.077 7.93258,7.06616 -2.19582,-2.86017 9.74259,8.404 6.0008,5.66189 14.06179,14.06224 19.18609,20.03765 4.20607,4.90467 8.11889,10.0534 12.17834,15.0801 28.50588,38.93296 50.27043,82.25784 66.60301,127.58922 3.99028,11.07509 7.39074,22.35389 11.08611,33.53084 14.20303,47.19418 23.95232,95.74467 28.27559,144.86259 2.82927,32.14414 2.19439,40.2155 2.31693,72.27259 -1.81297,50.68323 -6.07557,101.5645 -16.77856,151.22811 -1.56052,7.24104 -3.47356,14.4016 -5.21034,21.6024 -4.11599,15.47805 -8.95703,30.77719 -15.03453,45.60348 -1.99894,4.8765 -4.71358,10.9857 -7.42974,15.68125 -0.6903,1.19335 -1.56111,2.27274 -2.34167,3.40911 -0.29718,0.16301 -1.04031,0.79359 -0.89153,0.48903 2.39202,-4.89651 7.89879,-6.65352 12.64753,-8.1502 1.05557,-0.33269 3.48569,0.24629 3.21563,-0.82701 -0.39937,-1.5872 -2.73501,-1.79848 -4.10252,-2.69772 -21.57977,-13.62063 -39.88441,-31.67737 -58.58378,-48.86049 -39.06585,-35.86585 -89.78782,19.38161 -50.72197,55.24746 v 0 c 23.94939,21.96917 47.5878,44.87797 76.15315,60.88788 13.66681,6.18128 20.12346,10.65249 35.72051,11.23104 17.13718,0.63569 31.20145,-6.44684 42.89879,-18.35383 2.65885,-2.7065 4.71688,-5.94389 7.07531,-8.91583 1.9202,-3.13969 3.97715,-6.19974 5.76059,-9.41908 3.78485,-6.83216 7.75526,-15.7597 10.6416,-22.90496 7.22537,-17.88673 13.04421,-36.3078 17.9324,-54.9619 1.97596,-8.31088 4.14918,-16.57732 5.92788,-24.93264 11.5929,-54.45678 16.35081,-110.20278 18.12013,-165.76514 -0.24793,-35.85605 0.4335,-44.68694 -2.82754,-80.60985 -4.91892,-54.18576 -15.78867,-107.73436 -31.59233,-159.77245 -4.16133,-12.46059 -7.98929,-25.0375 -12.48399,-37.38175 -19.11866,-52.50744 -44.75964,-102.58086 -78.21401,-147.43303 -5.1061,-6.23164 -10.03824,-12.60998 -15.3183,-18.69492 -13.39794,-15.4403 -28.41863,-30.22451 -45.26587,-41.903 -45.50238,-27.24028 -84.02596,37.10981 -38.52357,64.35009 z"/>
<path d="m 216.74009,541.11131 c -4.04972,7.05395 -4.30148,7.88363 -9.91531,15.39124 -6.55257,8.76303 -22.11565,27.72866 -27.90964,34.75116 -22.27312,26.99578 -21.98523,26.37084 -45.8363,54.15508 -9.17978,10.09472 -18.35955,20.18943 -27.53933,30.28415 -9.435379,10.0928 -18.979496,20.08503 -28.306126,30.27841 -9.164727,10.01643 -18.109803,20.23164 -27.164705,30.34746 -35.361996,39.52251 20.531282,89.53193 55.893281,50.00941 v 0 c 8.68779,-9.71439 17.26534,-19.52851 26.06337,-29.14317 9.56441,-10.45218 19.34711,-20.70249 29.02067,-31.05374 9.64867,-10.62565 19.29734,-21.25129 28.94602,-31.87694 23.97113,-27.93637 24.6827,-28.46927 47.06392,-55.62295 5.98032,-7.25553 11.95956,-14.5132 17.8113,-21.87282 10.26544,-12.91066 20.52475,-25.98376 28.20945,-40.65506 24.74324,-46.90706 -41.59336,-81.89929 -66.3366,-34.99223 z"/>
<path d="m 465.5813,203.40071 c 24.74402,-4.44281 49.24433,-10.13732 74.0291,-14.36924 9.30877,-1.58944 18.65789,-2.93277 27.98684,-4.39916 43.2194,-5.7131 86.61262,-10.51552 130.16799,-12.72857 25.28496,-1.28473 32.03185,-1.11312 56.65111,-1.35444 19.91973,0.16579 39.85613,0.9007 59.69331,2.79114 9.03772,0.86127 17.73601,2.13403 26.51148,4.36907 51.5745,12.35199 69.04285,-60.58536 17.46836,-72.93735 v 0 c -3.41279,-0.78985 -6.80052,-1.69717 -10.23839,-2.36955 -9.56993,-1.8717 -18.12909,-2.921444 -27.89958,-3.834311 -22.03767,-2.059004 -44.18135,-2.864217 -66.30774,-3.015022 -26.43052,0.284536 -33.60816,0.106624 -60.72008,1.506894 -45.84577,2.367831 -91.52537,7.404439 -137.01125,13.487959 -10.02184,1.58568 -20.06465,3.04403 -30.06551,4.75704 -25.08842,4.29729 -49.89636,10.03184 -74.94281,14.54569 -52.0076,10.37832 -37.33043,83.92817 14.67717,73.54985 z"/>
<path d="m 499.52183,94.541001 c 0.5748,24.118529 2.0958,48.160029 6.73845,71.885129 1.39222,7.11464 3.21263,14.13877 4.81895,21.20815 7.65232,27.52873 3.75463,13.85804 11.68774,41.01357 14.87706,50.90357 86.86557,29.86422 71.98851,-21.03934 v 0 c -7.37537,-25.22454 -3.85072,-12.94802 -10.59351,-36.82395 -3.38215,-14.40569 -4.69111,-18.47587 -6.73234,-33.00447 -2.19378,-15.61445 -2.28838,-31.3701 -3.00668,-47.088972 -2.72228,-52.963093 -77.6234,-49.11321 -74.90112,3.849883 z"/>
<path d="m 730.61551,85.394473 c -0.29339,-0.932937 -0.15213,-2.145814 -0.88017,-2.798811 -0.45284,-0.406164 -0.15468,1.206809 -0.22057,1.811534 -0.22129,2.030985 -0.35855,4.072017 -0.64095,6.095408 -2.12586,15.231246 -5.23964,30.314556 -8.24198,45.387776 -4.61395,21.878 -12.28219,42.86606 -19.83489,63.84279 -17.8892,49.92471 52.715,75.22385 70.6042,25.29914 v 0 c 3.0143,-8.44795 6.21586,-16.83141 9.0429,-25.34386 7.67167,-23.09999 7.96574,-26.06753 13.75004,-49.18317 3.01566,-15.21482 4.73369,-23.08626 7.13451,-38.08838 2.59976,-16.245183 5.04965,-32.904356 0.95648,-49.123842 -15.62806,-50.67804 -87.29763,-28.576625 -71.66957,22.101415 z"/>
<path d="m 584.68233,234.32598 c 0.50177,-1.51096 1.98419,-3.01451 1.50531,-4.53287 -0.32238,-1.02216 -1.45694,1.5724 -2.19345,2.35105 -2.1393,2.26172 -4.20209,4.59952 -6.43392,6.76999 -15.58883,15.16027 -32.72596,28.74973 -49.37589,42.69611 -7.82884,6.37542 -15.57837,12.84951 -23.48654,19.12627 -15.61783,12.39597 -33.72637,25.97464 -49.68407,37.91557 -20.61179,15.42351 -41.35348,30.64323 -62.28821,45.62395 -43.12444,30.86719 0.52835,91.85435 43.65279,60.98716 v 0 c 21.41787,-15.33393 42.64696,-30.90072 63.7354,-46.68623 17.24527,-12.90874 35.08323,-26.29379 51.9502,-39.69019 8.1765,-6.4941 16.1901,-13.19068 24.28515,-19.78601 9.73614,-8.15831 31.18964,-25.97345 41.01349,-34.80525 9.14335,-8.22002 17.9162,-16.58647 25.78053,-26.03842 2.64888,-3.18362 5.25767,-6.43428 7.41281,-9.97085 2.23309,-3.66449 3.79877,-7.69611 5.69816,-11.54416 15.85059,-50.60888 -55.72117,-73.025 -71.57176,-22.41612 z"/>
<path d="m 495.66868,376.68758 c 3.19892,20.35089 4.89586,40.89744 6.6288,61.41233 3.60801,48.25548 2.50422,96.69157 0.67724,144.99513 -1.07871,21.56143 -2.56252,43.14104 -5.78773,64.50425 -0.88975,5.8936 -2.05787,11.74179 -3.0868,17.61269 -9.0435,52.25625 64.85799,65.04568 73.90149,12.78943 v 0 c 1.19618,-6.98655 2.55071,-13.94782 3.58854,-20.95964 3.48774,-23.56407 5.16335,-47.35188 6.3315,-71.12757 1.92159,-51.35512 3.026,-102.8484 -0.89202,-154.14631 -1.48312,-17.45441 -1.62522,-20.38077 -3.43419,-37.14218 -1.23533,-11.44618 -2.45195,-23.02892 -4.82627,-34.31312 -0.44311,-2.10595 -1.06424,-4.17049 -1.59636,-6.25574 -16.00235,-50.5611 -87.50654,-27.93037 -71.5042,22.63073 z"/>
<path d="m 669.64942,280.22953 c -0.17065,0.60573 -0.27949,1.23237 -0.51194,1.81717 -1.40283,3.52926 -3.21434,6.88261 -4.89085,10.29038 -1.68209,3.41914 -3.42135,6.80986 -5.13203,10.21478 -2.19329,4.48866 -4.38657,8.97732 -6.57986,13.46597 -23.2772,47.65157 44.1123,80.5705 67.3895,32.91892 v 0 c 2.08724,-4.27418 4.15696,-8.55696 6.26173,-12.82254 6.74851,-13.67666 14.28138,-27.31334 17.24841,-42.43927 9.50734,-52.17384 -64.27762,-65.61925 -73.78496,-13.44541 z"/>
<path d="m 551.62252,411.49943 c 25.50017,-3.0082 50.92762,-6.61781 76.35968,-10.15205 32.38709,-4.5451 64.96829,-7.66995 97.63886,-9.19961 20.63742,-0.96625 27.48324,-0.84468 47.92815,-1.0379 24.24065,0.10041 48.56109,0.25914 72.64233,3.29921 52.64242,6.42461 61.72819,-68.02301 9.08577,-74.44762 v 0 c -3.55425,-0.42314 -7.10013,-0.92384 -10.66276,-1.26941 -23.85475,-2.31388 -47.86708,-2.43232 -71.80848,-2.5785 -22.20998,0.22953 -29.24736,0.10062 -51.68951,1.16962 -34.6166,1.6489 -69.1388,4.97358 -103.45776,9.77809 -24.15707,3.35707 -48.31148,6.74533 -72.51904,9.71887 -52.83452,4.584 -46.35177,79.3033 6.48276,74.7193 z"/>
<path d="m 639.05947,380.79142 c 2.36631,18.78657 4.07526,37.6401 5.63946,56.50786 2.41503,34.07717 3.63099,68.28052 2.61515,102.44111 -0.20778,6.98717 -0.61965,13.96677 -0.92948,20.95015 -1.10957,24.16216 -5.34818,47.98532 -9.51632,71.75706 -9.14231,52.23905 64.73487,65.16821 73.87717,12.92916 v 0 c 4.71123,-26.96751 9.35412,-54.01001 10.56786,-81.41678 0.33077,-7.6978 0.77156,-15.39166 0.99232,-23.0934 1.04926,-36.60754 -0.24745,-73.25917 -2.86406,-109.77509 -1.59517,-19.17266 -3.28962,-38.33846 -5.72144,-57.4265 -5.03915,-52.79306 -79.69981,-45.66662 -74.66066,7.12643 z"/>
<path d="m 593.52691,511.11077 c 17.39614,-4.66046 35.21688,-7.29707 53.02556,-9.77464 29.24878,-3.55084 58.67012,-6.25906 88.15135,-6.64824 5.2655,-0.0695 10.53176,0.0564 15.79764,0.0845 12.57025,0.16856 25.08716,1.26626 37.58785,2.48563 52.78919,5.07952 59.97272,-69.57567 7.18353,-74.65519 v 0 c -14.79343,-1.4071 -29.60542,-2.67659 -44.47864,-2.82987 -6.13885,-0.0163 -12.27835,-0.13936 -18.41656,-0.049 -32.1846,0.47369 -64.30433,3.41363 -96.23169,7.33764 -21.83113,3.07767 -43.70048,6.39493 -64.94434,12.44902 -50.62895,15.78637 -28.30365,87.38651 22.3253,71.60014 z"/>
<path d="m 573.06144,609.44495 c 21.72842,-3.82848 43.49993,-7.39357 65.30195,-10.7777 24.16287,-3.54009 48.4215,-6.67562 72.84811,-7.58435 14.84554,-0.55229 18.72821,-0.22532 33.45419,0.15164 16.79259,0.62292 33.52607,2.08665 50.18805,4.2204 52.61303,6.66102 62.03313,-67.74504 9.4201,-74.40606 v 0 c -19.20433,-2.40842 -38.48218,-4.13888 -57.83501,-4.79338 -17.60582,-0.38747 -21.90774,-0.7515 -39.62757,-0.0434 -26.8053,1.07114 -53.43847,4.4327 -79.95667,8.34344 -21.49275,3.33904 -42.96742,6.79537 -64.37642,10.63988 -52.50236,7.48351 -41.91908,81.73305 10.58327,74.24954 z"/>
<path d="m 549.445,701.71189 c 19.91597,-4.62913 40.28715,-6.56181 60.61856,-8.2611 42.45147,-2.87917 85.01138,-3.27186 127.54119,-3.72922 32.56784,-0.37236 65.15963,-2.2e-4 97.6234,2.76732 8.73512,1.06688 4.7759,0.47781 11.8925,1.6644 52.3652,8.38963 64.22993,-65.66594 11.86473,-74.05557 v 0 c -10.96841,-1.71345 -5.15403,-0.90771 -17.45321,-2.34343 -34.83313,-2.91135 -69.79065,-3.47836 -104.73497,-3.02837 -44.37016,0.4784 -88.77263,0.91091 -133.0566,3.99187 -23.47253,2.00715 -46.97664,4.33661 -69.97658,9.65171 -51.86091,11.08813 -36.17992,84.43052 15.68098,73.34239 z"/>
<path d="m 589.4909,786.31911 c 21.83319,-4.74164 44.129,-6.40744 66.3809,-7.6946 27.19741,-1.06559 54.43124,-0.38865 81.55002,1.84391 5.51609,0.55799 11.03129,1.14501 16.50567,2.03194 0.90193,0.14613 1.80418,0.29246 2.70057,0.46942 0.19344,0.0382 0.75234,0.2366 0.56496,0.17525 -2.36446,-0.77414 -4.73082,-1.54242 -7.09623,-2.31363 -6.68353,-8.60023 -15.89249,-15.73373 -20.05058,-25.80069 -2.43726,-5.90074 1.2482,-12.7144 1.50739,-19.0934 0.0185,-0.45446 -0.55004,0.72748 -0.77717,1.12154 -1.15299,2.00034 -2.222,4.0481 -3.3604,6.05679 -5.37846,9.49023 -4.61877,8.03611 -10.80523,18.07554 -15.67434,25.15792 -35.48897,47.48425 -57.4204,67.35164 -5.48404,4.96791 -11.21449,9.65684 -16.82173,14.48526 -21.4925,17.33567 -44.59883,32.83144 -70.17969,43.46261 -11.8583,4.9282 -18.96526,6.88099 -30.99174,10.65231 -50.54655,16.04825 -27.85089,87.53187 22.69566,71.48362 v 0 c 15.92388,-5.10514 24.27992,-7.40299 40.10785,-14.21678 31.76699,-13.67541 60.72105,-32.82235 87.43749,-54.66159 6.57113,-5.70729 13.29395,-11.24449 19.71339,-17.12188 26.52295,-24.28338 50.34543,-51.60067 69.36365,-82.17684 5.53743,-9.03711 11.03476,-18.06475 16.06096,-27.39923 4.93156,-9.15872 10.93339,-19.82586 7.33407,-31.0232 -3.57288,-11.11511 -13.67148,-18.92973 -20.50723,-28.39459 -3.28687,-1.22792 -6.5233,-2.60039 -9.8606,-3.68376 -1.44368,-0.46865 -6.98447,-1.38284 -8.50359,-1.62073 -7.1446,-1.11883 -14.33146,-1.92653 -21.52962,-2.61215 -30.61224,-2.46955 -61.34993,-3.27102 -92.04603,-1.96167 -6.09137,0.36422 -12.18869,0.63985 -18.27411,1.09267 -19.59316,1.45795 -39.12627,3.95941 -58.37543,7.9224 -52.00759,10.37835 -37.33039,83.92819 14.6772,73.54984 z"/>
<path d="m 551.45007,881.0167 c 16.25992,9.56365 33.07982,18.11049 49.94714,26.53761 28.11271,13.79163 56.06144,27.91366 84.09632,41.86225 14.73999,7.14259 29.11879,14.99817 43.79344,22.26781 22.07795,11.0032 47.02149,11.14961 71.12462,11.80798 26.1696,0.041 52.3328,-0.66423 78.49448,-1.20866 53.02152,-1.10356 51.46084,-76.08732 -1.56068,-74.98376 v 0 c -25.02741,0.52101 -50.05584,1.18239 -75.0903,1.21508 -14.09943,-0.29833 -13.72096,-0.0284 -26.07175,-1.08844 -2.75126,-0.23614 -5.53196,-0.35436 -8.23074,-0.939 -1.91232,-0.41428 -3.64801,-1.2776 -5.43411,-2.0391 -14.62992,-7.20977 -28.91534,-15.10732 -43.61604,-22.17983 -28.00412,-13.93317 -55.92191,-28.04015 -84.00393,-41.8162 -14.57866,-7.27299 -29.09734,-14.66928 -43.24684,-22.75107 -44.77069,-28.42683 -84.9723,34.8885 -40.20161,63.31533 z"/>
</svg>
