<?xml version="1.0" ?>
<svg xmlns="http://www.w3.org/2000/svg" width="1000" height="1000">
<path d="m 434.50852,187.33563 c 16.84578,8.75169 33.98647,16.94768 50.57703,26.18705 4.65047,2.58987 9.21093,5.33815 13.81639,8.00723 4.13998,2.53997 8.27996,5.07995 12.41995,7.61992 45.22666,27.69565 84.39422,-36.26451 39.16756,-63.96016 v 0 c -4.68734,-2.86565 -9.37468,-5.7313 -14.06202,-8.59694 -5.31894,-3.06598 -10.59027,-6.21608 -15.95683,-9.19794 -17.60616,-9.78264 -35.76814,-18.51465 -53.66177,-27.74734 -47.86277,-22.839773 -80.16308,44.84841 -32.30031,67.68818 z"/>
<path d="m 173.76374,389.65112 c 25.77113,-10.51733 52.42562,-18.66656 79.36333,-25.60483 11.26702,-2.90202 22.61247,-5.49054 33.91871,-8.23581 76.45572,-16.78734 154.40516,-26.12181 232.4371,-31.57499 16.17928,-1.13067 32.38426,-1.85741 48.57639,-2.78611 52.57426,-2.31232 105.25172,-2.46146 157.83039,-0.20752 21.92059,0.93969 29.00209,1.59359 49.97972,3.11457 5.96069,0.53246 11.92137,1.06493 17.88206,1.59739 52.82405,4.70321 59.47539,-70.00128 6.65134,-74.70448 v 0 c -6.37701,-0.56603 -12.75402,-1.13206 -19.13103,-1.69809 -22.25251,-1.60107 -29.65327,-2.28258 -52.88368,-3.26776 -54.84859,-2.32609 -109.79887,-2.15283 -164.64067,0.28994 -16.80256,0.97136 -33.61856,1.73306 -50.40768,2.91407 -81.93717,5.7638 -163.77262,15.68982 -244.028,33.44978 -12.05509,2.93983 -24.15374,5.7065 -36.16528,8.81949 -29.59092,7.66896 -58.85438,16.70745 -87.18326,28.23713 -49.255096,19.65796 -21.45454,89.31518 27.80056,69.65722 z"/>
<path d="m 476.19301,310.35259 c -0.0443,-0.0957 -0.0728,-0.37374 -0.13286,-0.28705 -6.848,9.89162 6.90516,-7.93271 -5.46405,8.1916 -10.91464,14.22815 -22.98348,27.39883 -35.02939,40.66271 -39.08385,42.44996 -80.94525,82.21695 -122.80451,121.89268 -19.76437,18.97972 -40.36468,37.03991 -61.10576,54.93232 -11.25343,11.3149 -22.93478,21.09094 -13.15738,44.40279 5.6364,13.43864 22.29579,19.11917 35.12878,26.02426 4.02717,2.16691 9.14385,0.26659 13.71698,0.25835 4.39476,-0.008 8.78632,-0.24982 13.18072,-0.30679 4.997,-0.0648 9.99477,-0.0389 14.99215,-0.0584 26.05368,0.33092 52.0137,2.96117 77.6889,7.33316 15.9996,2.72442 22.38927,4.30833 38.03825,7.73378 21.82549,5.21284 11.24987,2.64175 31.73048,7.69837 51.48792,12.70803 69.45979,-60.10688 17.97187,-72.81492 v 0 c -21.53016,-5.31229 -10.28951,-2.58381 -33.72754,-8.16241 -17.63263,-3.82982 -24.72423,-5.5812 -42.80764,-8.61302 -29.49083,-4.94437 -59.3094,-7.86331 -89.22152,-8.17424 -8.35961,0.04 -19.72904,-0.0113 -28.38509,0.36644 -1.13534,0.0495 -4.15188,-0.4599 -3.38787,0.38138 33.95452,37.38821 30.55935,9.00381 17.44547,60.77637 -0.0181,0.0713 -0.14154,-0.0399 -0.21231,-0.0598 21.62324,-18.65981 43.09354,-37.50134 63.70697,-57.28495 43.23193,-40.98034 86.44173,-82.07911 126.77612,-125.95366 12.95305,-14.31283 19.14641,-20.71859 30.88991,-35.21051 10.62505,-13.1117 20.95766,-26.8606 26.27146,-43.08177 14.59935,-50.9839 -57.50278,-71.63051 -72.10214,-20.64661 z"/>
<path d="m 530.78851,440.83582 c -0.0332,-0.21765 0.052,-0.81265 -0.0996,-0.65297 -0.52916,0.55745 -0.80386,1.31125 -1.16788,1.98819 -1.20228,2.23585 -2.3377,4.50711 -3.52998,6.7483 -1.91127,3.59269 -3.79189,7.20264 -5.78054,10.75308 -6.26664,11.18818 -10.08312,17.20304 -16.94262,28.4743 -21.67447,34.73186 -46.0765,67.7265 -72.02118,99.37733 -5.89548,7.19211 -11.96522,14.23958 -17.94782,21.35937 -23.13868,26.62967 -47.20018,52.4869 -72.60853,76.97126 -12.24732,11.80193 -19.56329,18.268 -32.01254,29.55092 -19.96516,18.01191 -40.34002,35.5624 -61.62987,51.99251 -4.25301,3.56407 -9.06111,6.47099 -13.22335,10.15035 -1.83851,1.62521 -4.04472,2.98322 -5.33978,5.06751 -3.8719,6.23147 -12.08806,12.5787 -9.99329,19.60968 5.05012,16.9505 19.3747,29.59582 29.06205,44.39373 6.3382,0.14075 12.68783,0.82798 19.0146,0.42225 3.94977,-0.25329 24.13054,-5.0804 27.19681,-5.79404 13.4025,-3.11931 25.766,-6.14922 39.31697,-8.91569 8.39088,-1.71303 16.82612,-3.20114 25.23918,-4.80171 40.2455,-7.18886 80.8662,-12.10032 121.62615,-15.17709 24.5466,-1.8529 36.09455,-2.23712 60.4633,-3.3961 9.24924,-0.25781 18.49847,-0.51563 27.74771,-0.77345 53.01203,-1.49141 50.90286,-76.46174 -2.10917,-74.97033 v 0 c -9.73835,0.27637 -19.4767,0.55274 -29.21505,0.82911 -25.56922,1.22514 -37.5764,1.6261 -63.37963,3.59234 -43.29808,3.29938 -86.44636,8.55642 -129.19429,16.22538 -9.11182,1.7443 -18.24659,3.3727 -27.33546,5.2329 -13.49433,2.76186 -26.68152,5.9584 -40.0762,9.08732 -4.21282,0.9841 -8.42773,1.95926 -12.64166,2.93862 -1.98996,0.46249 -7.28145,-0.1796 -5.97001,1.38692 1.84467,2.20349 5.64745,1.06717 8.47118,1.60076 8.405,14.45917 21.01887,27.18788 25.21498,43.37751 1.64677,6.35365 -6.09229,11.63796 -9.50219,17.24628 -0.42018,0.69108 -2.51721,2.0317 -1.90069,1.50821 1.87753,-1.59421 4.8743,-3.78246 6.60969,-5.0987 1.92525,-1.46024 3.84606,-2.92633 5.76909,-4.3895 22.83329,-17.65511 44.74845,-36.43529 66.16059,-55.78679 13.55988,-12.30311 20.95975,-18.83756 34.34778,-31.76166 27.05777,-26.12015 52.70043,-53.68232 77.33109,-82.09291 6.37102,-7.59409 12.83502,-15.11114 19.11305,-22.78228 27.94211,-34.14253 54.18047,-69.75686 77.50529,-107.22329 8.81287,-14.5142 17.57732,-28.9907 25.42127,-44.05922 3.89101,-7.47475 7.09691,-13.59487 9.82188,-21.55834 0.92492,-2.703 1.44246,-5.52866 2.16369,-8.29299 8.73776,-52.30824 -65.23725,-64.6653 -73.97502,-12.35707 z"/>
<path d="m 655.18404,718.10778 c 8.76613,12.13275 17.35302,24.38425 24.4367,37.60247 2.29209,4.27707 4.37256,8.66422 6.55885,12.99634 6.8078,14.62341 12.90555,29.6732 16.72322,45.38805 1.28514,5.29011 2.08175,10.68709 3.12262,16.03063 10.61445,51.95992 84.09687,36.94883 73.48243,-15.01109 v 0 c -1.58392,-7.50539 -2.85347,-15.08408 -4.75177,-22.51618 -5.1169,-20.03332 -12.9247,-39.26663 -21.74069,-57.92044 -2.81321,-5.4873 -5.49316,-11.04498 -8.43962,-16.46189 -7.73699,-14.22402 -16.70501,-27.73389 -26.34483,-40.72916 -28.72358,-44.5809 -91.77048,-3.95963 -63.04691,40.62127 z"/>
</svg>
