<?xml version="1.0" ?>
<svg xmlns="http://www.w3.org/2000/svg" viewBox="0 0 1000 1000">
<path d="m 197.37005,260.5204 c 29.18283,-8.76399 59.7646,-11.34485 89.93147,-14.43235 67.07959,-5.85815 134.31093,-10.13383 201.57942,-13.13005 14.70027,-0.65477 29.40741,-1.14478 44.11112,-1.71717 14.50035,-0.39538 28.9978,-0.9181 43.50106,-1.18615 28.64241,-0.52935 51.3677,-0.52624 79.83641,0.0471 30.25968,0.60937 60.46939,2.13719 90.68472,3.79534 6.96518,0.43262 13.93036,0.86524 20.89554,1.29786 52.93116,3.28516 57.57707,-71.5708 4.64591,-74.85596 v 0 c -7.146,-0.44319 -14.292,-0.88638 -21.438,-1.32956 -31.30276,-1.71271 -62.59921,-3.28393 -93.94795,-3.90297 -29.51014,-0.58274 -53.05177,-0.57649 -82.72527,-0.0238 -14.79424,0.27556 -29.58253,0.81005 -44.37379,1.21508 -14.9823,0.5848 -29.96808,1.08632 -44.9469,1.75441 -68.57998,3.05884 -137.12227,7.42416 -205.50699,13.43063 -36.60597,3.79282 -73.78827,7.17839 -108.89432,18.93121 -49.57271,18.84268 -22.92514,88.94908 26.64757,70.1064 z"/>
<path d="m 353.38438,105.54505 c -0.3885,25.74063 -0.77913,51.47971 -0.97304,77.22379 -0.14903,71.01553 -0.96975,142.02547 -1.86836,213.03454 -0.60953,37.55688 -0.5172,75.12839 -1.70554,112.67534 -0.35109,11.09313 -0.92442,22.17812 -1.38663,33.26719 -2.19749,52.98746 72.7381,56.09517 74.93558,3.10771 v 0 c 0.47755,-11.57109 1.06803,-23.13807 1.43264,-34.71326 1.1902,-37.78459 1.11055,-75.5934 1.71795,-113.38796 0.90022,-71.13754 1.7227,-142.27598 1.87224,-213.42 0.19439,-25.93201 0.60342,-51.85854 0.97516,-77.78735 0,-53.033007 -75,-53.033007 -75,0 z"/>
<path d="m 542.35765,91.072079 c 0.42432,3.394531 0.47314,3.403477 0.68278,7.566473 1.01729,20.200458 0.69028,40.491568 0.73656,60.707528 -0.44756,60.90539 -0.29354,121.80626 0.57368,182.70667 0.21005,11.93698 0.44699,23.87352 0.63017,35.81095 0.35151,22.90744 0.64967,46.27582 0.62778,69.19272 -0.0299,31.33821 -0.67332,62.66711 -1.33286,93.99656 -1.11504,53.02129 73.86838,54.59818 74.98342,1.5769 v 0 c 0.67183,-31.97925 1.3208,-63.95739 1.34852,-95.94556 0.0201,-23.23733 -0.28208,-46.9114 -0.63848,-70.14064 -0.18187,-11.8539 -0.41745,-23.70692 -0.62618,-35.56039 -0.86551,-60.60168 -1.00765,-121.20375 -0.56625,-181.81039 -0.0285,-12.25817 -0.0286,-27.57257 -0.18209,-40.01033 -0.16382,-13.27882 -0.27435,-26.641756 -2.15886,-39.813187 -8.2892,-52.381191 -82.36739,-40.658495 -74.07819,11.722696 z"/>
<path d="m 402.59406,366.93852 c 1.9131,0.037 3.82586,0.11826 5.7393,0.11097 10.36231,-0.0395 20.73039,-0.70082 31.08139,-1.09502 15.31717,-0.58333 16.05716,-0.55976 32.00794,-1.00028 24.68111,-0.64369 49.37175,-0.65441 74.05834,-0.91649 53.03001,-0.56402 52.23235,-75.55978 -0.79766,-74.99576 v 0 c -25.11256,0.26761 -50.22929,0.27798 -75.33615,0.94097 -20.59752,0.57152 -41.18422,1.37852 -61.77536,2.12098 -52.91607,-3.51984 -57.89388,71.31479 -4.9778,74.83463 z"/>
<path d="m 411.11164,478.60944 c 0.0691,0.0436 0.12645,0.14183 0.20745,0.1308 1.69468,-0.23061 3.3736,-0.5651 5.0604,-0.84765 2.67558,-0.37086 5.34626,-0.77899 8.02674,-1.11258 13.60365,-1.69301 27.20025,-2.56002 40.88268,-3.33174 30.99207,-1.71352 61.99552,-0.75279 92.95477,0.97523 52.95173,2.93506 57.10252,-71.95 4.1508,-74.88505 v 0 c -33.78858,-1.86078 -67.57576,-2.85402 -101.39801,-0.96725 -24.17126,1.40541 -48.5824,2.79617 -72.21013,8.4381 -50.62895,15.78637 -28.30365,87.38651 22.3253,71.60014 z"/>
<path d="m 134.26907,644.564 c 32.6722,-6.49889 65.77745,-10.44169 98.81762,-14.50835 63.68956,-7.24361 127.5122,-13.4483 191.47986,-17.65579 14.98433,-0.9856 29.98195,-1.75743 44.97292,-2.63614 70.89567,-3.28586 141.99735,-5.04933 212.91019,-1.13575 11.63978,0.64238 23.25728,1.63918 34.88592,2.45878 28.07021,2.94093 31.70397,2.91934 58.58519,7.20156 7.51607,1.19732 14.98511,2.67327 22.47767,4.0099 52.21753,9.26444 65.31942,-64.5823 13.10189,-73.84674 v 0 c -8.32991,-1.47059 -16.634,-3.09583 -24.98974,-4.41177 -29.31789,-4.61726 -33.5138,-4.6228 -63.936,-7.76975 -12.35489,-0.85984 -24.69825,-1.90559 -37.06468,-2.57952 -73.39802,-3.99999 -146.98734,-2.23257 -220.36566,1.20218 -15.3525,0.90257 -30.71178,1.69649 -46.0575,2.7077 -65.20025,4.29641 -130.2533,10.62272 -195.16931,18.01795 -35.04912,4.3207 -70.16174,8.54727 -104.81108,15.49445 -51.937906,10.72166 -36.775195,84.17295 15.16271,73.45129 z"/>
<path d="m 401.5688,601.36794 c -0.87911,1.79454 -1.77783,3.57961 -2.63733,5.38363 -4.39582,9.22648 -3.62168,8.25572 -8.84487,17.82454 -4.64009,8.50057 -11.11924,19.58438 -16.16011,27.57987 -3.58844,5.69175 -7.37479,11.25627 -11.06219,16.88441 -12.76338,19.02941 -26.78488,37.19652 -41.4984,54.75231 -4.67974,5.58373 -9.35973,11.17566 -14.3189,16.51277 -4.44705,4.78597 -9.25412,9.22432 -13.88118,13.83648 -37.38963,37.61005 15.79902,90.48696 53.18864,52.87691 v 0 c 5.80001,-5.87638 11.79567,-11.56588 17.40002,-17.62915 5.49397,-5.94385 10.6871,-12.16111 15.87671,-18.37248 16.32792,-19.5427 31.85427,-39.78392 46.02001,-60.95483 4.17936,-6.41247 8.46851,-12.75472 12.5381,-19.23741 11.0681,-17.63104 21.22931,-35.85945 29.8891,-54.79477 24.50993,-47.02939 -41.99967,-81.69166 -66.5096,-34.66228 z"/>
<path d="m 548.55528,706.79256 c 14.81711,13.011 29.13753,26.5648 43.32089,40.25952 11.78865,11.3192 22.72716,23.4708 32.7345,36.38352 32.62048,41.81391 91.7543,-4.31842 59.13381,-46.13234 v 0 c -12.24594,-15.62282 -25.42472,-30.48389 -39.78172,-44.21402 -13.8853,-13.39836 -27.80174,-26.8039 -42.43393,-39.38908 -37.542,-37.45796 -90.51554,15.63445 -52.97355,53.0924 z"/>
<path d="m 191.82647,666.98594 c 2.6123,21.47009 2.12501,43.19057 1.95637,64.77226 -0.42436,37.08702 -2.50792,74.11175 -5.83303,111.04307 -1.35007,13.96293 -2.99665,27.90616 -5.81086,41.65586 -4.17631,19.2788 0.36967,29.83156 18.72952,45.57081 7.9497,6.815 19.84741,4.77732 29.07819,3.99792 13.84742,-2.49303 27.53778,-5.76895 41.34716,-8.45623 14.3482,-2.79213 18.54833,-3.3694 33.53141,-5.84844 48.64134,-7.8507 97.97288,-9.09257 147.13307,-9.84135 40.84673,-0.0715 81.70922,-0.25727 122.54511,0.89442 27.60377,0.77852 32.10875,1.20065 59.39877,2.68819 35.34606,2.23481 70.54326,6.23688 105.77302,9.77719 52.76726,5.30238 60.26597,-69.3218 7.4987,-74.62419 v 0 c -36.37155,-3.65463 -72.71067,-7.77548 -109.20536,-10.04269 -28.55632,-1.5448 -33.12556,-1.97578 -61.96061,-2.7834 -41.72285,-1.16859 -83.47262,-0.98767 -125.20638,-0.9006 -52.88312,0.82554 -105.93519,2.31803 -158.2464,10.84293 -24.30916,4.03988 -48.52268,8.53897 -72.56662,13.9582 21.89873,1.64884 25.21299,10.89264 35.51237,32.76914 1.36291,2.8949 -0.25252,6.3944 -0.39016,9.59112 -9.8e-4,0.0228 -0.0133,-0.0437 -0.02,-0.0656 0.18177,-0.86284 0.36354,-1.72568 0.54531,-2.58851 3.33167,-16.47427 5.44448,-33.15255 7.01281,-49.88308 3.49544,-38.97837 5.69822,-78.05502 6.13188,-117.19673 0.18085,-25.48994 0.88404,-51.37247 -2.8604,-76.67696 -0.29127,-1.96836 -0.73081,-3.9119 -1.09621,-5.86785 -12.17248,-51.61716 -85.17016,-34.40268 -72.99769,17.21447 z"/>
</svg>
