<?xml version="1.0" ?>
<svg xmlns="http://www.w3.org/2000/svg" width="1000" height="1000">
<path d="m 32.278109,389.47985 c 6.807174,43.35968 11.660733,87.00438 16.948936,130.56834 8.239742,68.97079 14.619641,138.15024 19.341615,207.44698 1.949563,33.36371 1.08829,17.49842 2.6207,47.59385 2.699483,52.96426 77.60225,49.14662 74.90277,-3.81764 v 0 c -1.57638,-30.89964 -0.69,-14.60519 -2.69742,-48.88126 -4.82317,-70.60984 -11.30865,-141.10211 -19.71421,-211.3798 -5.43482,-44.77166 -10.42337,-89.62692 -17.47686,-134.18021 -8.944727,-52.27325 -82.870253,-39.6235 -73.925531,12.64974 z"/>
<path d="m 163.7619,425.0504 c 21.32593,-5.20379 42.38294,-11.44157 63.67682,-16.77757 6.43551,-1.61266 12.90079,-3.10411 19.35119,-4.65617 23.78799,-5.3139 47.80221,-9.95776 72.12095,-11.99425 11.14302,-0.93314 13.77143,-0.81061 24.38354,-0.97358 6.69909,0.0996 13.40951,0.3347 20.07878,1.01251 0.93305,0.0948 1.86347,0.21934 2.78906,0.37056 0.28553,0.0466 1.12593,0.2594 0.83902,0.22218 -0.73028,-0.0948 -1.44904,-0.26355 -2.17356,-0.39533 -10.7649,-4.82003 -8.43124,-2.6238 -17.5412,-12.36559 -0.98336,-1.05156 -1.12439,-4.2761 -2.39311,-3.59555 -1.33802,0.71773 0.48668,2.99761 0.70722,4.49988 2.09777,14.28888 1.37211,9.25308 3.08814,26.34984 3.40509,45.61528 3.92251,91.48804 1.76881,137.18157 -0.52378,11.11259 -1.3877,22.20654 -2.08155,33.30982 -4.51116,54.0869 -13.23961,107.71777 -22.86266,161.09554 -9.3977,52.19371 64.41535,65.48406 73.81305,13.29035 v 0 c 1.8446,-10.25706 3.78697,-20.49702 5.5338,-30.77118 7.83232,-46.06663 14.50085,-92.39793 18.37228,-138.97699 0.72964,-11.87299 1.63866,-23.73632 2.18892,-35.61897 2.27034,-49.02726 1.65855,-98.24638 -2.12572,-147.17866 -1.34995,-12.88391 -1.956,-21.5767 -4.27553,-33.99708 -1.47199,-7.88206 -3.91305,-18.95593 -8.38477,-25.73727 -8.73054,-13.23984 -11.15572,-12.72561 -23.63135,-19.13213 -2.16213,-0.57675 -4.30251,-1.24228 -6.48638,-1.73025 -3.07964,-0.68812 -7.99343,-1.27784 -11.07677,-1.57489 -9.15207,-0.88171 -18.35551,-1.18421 -27.54555,-1.24531 -13.49756,0.28609 -16.93036,0.15198 -30.93434,1.38305 -27.554,2.42223 -54.786,7.57414 -81.74092,13.65876 -6.90853,1.66705 -13.83223,3.27237 -20.72557,5.00113 -20.8003,5.21644 -41.37608,11.28634 -62.19859,16.40766 -51.574897,12.35033 -34.1089,85.28824 17.46599,72.93792 z"/>
<path d="m 204.61506,418.09186 c 2.04551,38.4393 4.50103,76.85285 6.42941,115.29942 1.3063,30.4695 2.08677,60.96411 1.70782,91.46328 -0.28634,23.0452 -0.77175,30.42502 -1.74846,52.66462 -2.31068,52.98265 72.6181,56.25043 74.92877,3.26778 v 0 c 1.02386,-23.63278 1.53036,-31.36085 1.81964,-55.84554 0.37548,-31.78191 -0.43232,-63.55923 -1.80206,-95.30984 -1.90404,-37.90907 -4.27827,-75.78813 -6.36585,-113.68649 -1.51799,-53.01128 -76.48726,-50.86451 -74.96927,2.14677 z"/>
<path d="m 115.63677,595.66399 c 2.2227,-0.40206 4.44089,-0.82997 6.66812,-1.20617 11.8902,-2.00834 15.05389,-2.31408 28.06654,-4.56487 20.19284,-3.49275 24.15185,-4.5033 45.12242,-8.31435 8.97111,-1.63036 17.95775,-3.17409 26.93663,-4.76114 34.04188,-6.01753 68.46764,-10.39401 103.07789,-10.79159 6.00689,-0.069 12.01267,0.21417 18.019,0.32126 53.02702,0.79712 54.15431,-74.19441 1.12729,-74.99153 v 0 c -7.30235,-0.093 -14.60491,-0.38814 -21.90703,-0.27891 -38.06187,0.56939 -75.93085,5.26716 -113.37649,11.8865 -9.22836,1.63247 -18.46445,3.22185 -27.68509,4.8974 -17.89194,3.25127 -26.06733,5.01379 -43.38933,8.01073 -7.22379,1.24982 -21.57286,3.46433 -29.37224,4.78972 -2.52906,0.42978 -5.04798,0.91719 -7.57197,1.37578 -52.062267,10.10049 -37.778011,83.72766 14.28426,73.62717 z"/>
<path d="m 158.80366,774.95896 c 17.09603,-6.2743 34.64265,-11.28119 52.08198,-16.49257 32.08363,-9.58752 21.65846,-6.49353 55.36594,-16.15633 41.15249,-10.82965 20.4657,-5.68682 62.06203,-15.42183 51.63244,-12.10747 34.50989,-85.12677 -17.12255,-73.0193 v 0 c -44.10543,10.36143 -22.23643,4.90678 -65.61142,16.34626 -33.9623,9.74029 -24.16364,6.82322 -56.27757,16.42398 -19.54098,5.84196 -39.20104,11.46542 -58.29914,18.66263 -49.255047,19.65808 -21.45432,89.31524 27.80073,69.65716 z"/>
<path d="m 469.76466,250.07988 c 1.33536,4.23076 3.53593,9.73429 5.11916,13.52157 5.91799,14.15652 12.77034,27.82644 19.62882,41.5421 2.16475,4.34031 4.3295,8.68061 6.49425,13.02091 23.66992,47.45771 90.78527,13.98339 67.11534,-33.47433 v 0 c -2.17969,-4.37021 -4.35938,-8.74042 -6.53907,-13.11063 -5.88004,-11.74029 -11.87346,-23.41914 -16.94719,-35.53959 -1.00088,-2.39097 -5.66965,-14.51866 -6.80694,-17.11813 -0.90903,-2.07773 -1.98809,-4.07684 -2.98214,-6.11526 -26.35625,-46.02008 -91.43848,-8.74672 -65.08223,37.27336 z"/>
<path d="m 727.74207,184.88593 c 0,2.92727 0.0595,6.36568 -0.27579,9.2062 -0.84871,7.1909 -2.49463,13.23037 -4.5045,20.33211 -4.63293,16.37008 -6.85267,22.20808 -12.54799,39.15345 -13.14176,35.0828 -27.13751,69.88971 -42.78151,103.94064 -3.62671,7.89393 -7.47905,15.68222 -11.21857,23.52334 -22.80389,47.87988 44.90849,80.12944 67.71237,32.24956 v 0 c 4.02065,-8.45242 8.15996,-16.8494 12.06193,-25.35726 16.60338,-36.20205 31.48274,-73.19832 45.33994,-110.52822 9.99687,-29.91827 21.551,-60.51552 21.21412,-92.51982 0,-53.03301 -75,-53.03301 -75,0 z"/>
<path d="m 491.98964,471.26564 c 22.77558,-4.7277 45.93601,-7.46093 68.9805,-10.51485 45.41139,-5.72971 90.91721,-10.85326 136.57574,-14.1725 8.55954,-0.62225 17.1294,-1.09318 25.69409,-1.63977 31.52291,-1.32663 63.39025,-1.52375 94.549,4.04521 1.74518,0.38846 3.49036,0.77693 5.23554,1.16539 51.83575,11.20517 67.68226,-62.10163 15.84651,-73.30681 v 0 c -2.77284,-0.58818 -5.54568,-1.17637 -8.31852,-1.76455 -3.71225,-0.626 -7.40944,-1.34905 -11.13676,-1.878 -33.40702,-4.74082 -67.33826,-4.55488 -100.9682,-3.10797 -8.98833,0.57733 -17.98201,1.07664 -26.96499,1.73199 -46.9272,3.42356 -93.6992,8.68174 -140.37257,14.57798 -18.25779,2.42306 -25.20857,3.2593 -42.71568,5.88182 -12.20567,1.82838 -24.49451,3.6407 -36.45447,6.76309 -1.72892,0.45137 -3.41693,1.04699 -5.12539,1.57048 -49.95603,17.80156 -24.78083,88.45005 25.1752,70.64849 z"/>
<path d="m 445.0299,667.77644 c 24.70816,-5.34169 49.13582,-11.7851 74.04322,-16.21608 9.06213,-1.61213 18.16762,-2.97025 27.25143,-4.45537 54.97846,-7.79052 110.40659,-12.94601 165.91183,-14.90542 11.27299,-0.39795 22.55496,-0.47813 33.83244,-0.7172 38.77928,-0.17646 77.64417,0.40267 116.27125,4.15807 18.2361,1.77295 22.57588,2.67095 40.00344,5.35265 4.9693,0.93212 9.9386,1.86425 14.90789,2.79637 52.13686,9.70816 65.86625,-64.02448 13.72942,-73.73264 v 0 c -5.7764,-1.06879 -11.5528,-2.13757 -17.3292,-3.20635 -19.91929,-3.01445 -24.62762,-3.9878 -45.37274,-5.97453 -41.14306,-3.94019 -82.53019,-4.60677 -123.83189,-4.37603 -11.974,0.26385 -23.95279,0.36229 -35.922,0.79155 -58.33167,2.09197 -116.57981,7.54082 -174.34884,15.80396 -9.83793,1.62081 -19.70007,3.10096 -29.51378,4.86243 -24.63753,4.42221 -48.85806,10.57245 -73.25955,16.06696 -52.15028,9.6358 -38.5232,83.38743 13.62708,73.75163 z"/>
<path d="m 596.20788,135.44459 c 2.73289,36.34774 4.20647,72.76289 5.42843,109.1874 2.20344,71.16437 1.66206,142.38685 -0.79797,213.53622 -0.58576,16.94135 -1.3654,33.87543 -2.0481,50.81315 -4.52605,104.13831 -11.65093,208.13406 -19.42945,312.07184 -4.67043,61.0443 -2.37581,31.05938 -6.88374,89.95459 -4.0474,52.87834 70.73386,58.60222 74.78126,5.72388 v 0 c 4.51131,-58.93922 2.21348,-28.912 6.89336,-90.08166 7.84166,-104.79693 15.02013,-209.65261 19.57787,-314.65189 0.69275,-17.22983 1.48462,-34.45595 2.07825,-51.68948 2.50435,-72.70274 3.04134,-145.47994 0.78615,-218.19741 -1.25762,-37.30869 -2.77086,-74.60771 -5.56458,-111.83827 -3.65689,-52.90678 -78.47838,-47.735151 -74.82148,5.17163 z"/>
</svg>
