<?xml version="1.0" ?>
<svg xmlns="http://www.w3.org/2000/svg" width="1000" height="1000">
<path d="m 322.42127,101.13573 c -0.52032,0.66864 -1.00072,1.37036 -1.56096,2.00593 -4.75585,5.3952 -11.03261,10.7474 -16.40663,15.30964 -10.29519,8.74005 -16.96565,13.68127 -27.93141,22.17164 -31.22501,24.2214 -64.58483,45.42888 -97.9475,66.53017 -3.70507,2.3029 -7.41014,4.60579 -11.1152,6.90869 -45.0391,27.99965 -5.44161,91.69454 39.59748,63.6949 v 0 c 3.87019,-2.40645 7.74038,-4.8129 11.61057,-7.21934 35.38131,-22.38186 70.71361,-44.94296 103.81567,-70.64736 21.11693,-16.39941 43.11144,-32.6277 59.88945,-53.68964 31.86551,-42.3921 -28.08597,-87.456725 -59.95147,-45.06463 z"/>
<path d="m 136.3042,244.33747 c 7.41386,15.01227 11.7706,31.2407 16.04211,47.3502 7.20619,31.13633 11.1944,62.99011 12.74368,94.89885 0.31033,6.39152 0.38844,12.7922 0.58266,19.18831 0.55769,25.45857 -1.31893,50.86415 -5.57308,75.95357 -0.24693,1.21906 -1.8077,8.85504 -2.04362,10.27895 -0.31087,1.87623 -0.8381,3.74867 -0.79367,5.64996 0.12135,5.19385 -2.32724,11.80195 1.2886,15.53242 11.46491,11.82842 25.42242,21.97567 40.79764,27.8882 5.67273,2.18145 11.58571,-3.6777 17.37856,-5.51656 2.63803,-1.45088 5.28857,-2.87924 7.91408,-4.35264 10.13241,-5.68618 20.13946,-11.55237 30.4971,-16.8328 10.32198,-5.26226 16.80813,-8.1736 27.39581,-13.11627 19.57512,-8.9517 39.33913,-17.47611 58.93883,-26.37291 48.28719,-21.92824 17.27598,-90.21663 -31.01121,-68.28839 v 0 c -19.84715,9.01715 -39.87484,17.62633 -59.68851,26.71834 -22.75834,10.65178 -45.27368,21.79189 -66.81107,34.78019 22.93692,-4.25367 17.31065,-5.6825 47.20487,26.33379 3.19097,3.41749 -1.32134,21.20276 1.39889,7.32389 0.49888,-2.54536 1.00199,-5.08989 1.50298,-7.63484 4.97403,-29.97683 7.31858,-60.30707 6.5664,-90.71305 -0.23782,-7.28019 -0.345,-14.56582 -0.71348,-21.84057 -1.86226,-36.76593 -6.60894,-73.45206 -15.12891,-109.28198 -1.58475,-5.86897 -3.04865,-11.77192 -4.75426,-17.60692 -4.55947,-15.59826 -10.17689,-30.96171 -17.48283,-45.49267 -24.85687,-46.84694 -91.10845,-11.69401 -66.25157,35.15293 z"/>
<path d="m 346.70275,379.32151 c 9.84269,9.37916 16.92842,20.93633 23.85804,32.50708 8.47985,14.97667 16.64415,30.25501 22.63374,46.42271 0.19964,0.76983 0.39928,1.53967 0.59892,2.3095 15.27095,50.78679 87.09432,29.19041 71.82337,-21.59638 v 0 c -0.76055,-2.42348 -1.5211,-4.84696 -2.28165,-7.27044 -7.7951,-20.32271 -17.59363,-39.80962 -28.55546,-58.60724 -9.62837,-15.87185 -19.68257,-31.62008 -33.02358,-44.69779 -36.01475,-38.92862 -91.06813,12.00394 -55.05338,50.93256 z"/>
<path d="m 487.4267,240.44205 c 2.61443,-0.38838 5.23926,-0.71227 7.8433,-1.16515 13.16861,-2.29021 26.19395,-5.39692 39.31394,-7.93963 18.36024,-3.55829 19.33837,-3.57085 38.27665,-6.66868 27.46923,-4.00168 55.16971,-6.48526 82.92381,-7.16905 14.98232,-0.36913 18.96967,-0.1444 33.4297,0.13565 9.69627,0.38107 19.41901,1.03056 28.97838,2.78126 2.91199,0.53329 5.61557,1.2086 8.30259,2.39648 0.0327,0.0551 0.16104,0.17781 0.0982,0.16526 -0.6027,-0.12035 -1.8803,-0.85277 -2.22659,-1.08686 -4.31225,-2.91515 -5.73758,-5.25554 -9.06636,-9.65841 -1.12805,-2.5865 -2.2561,-5.173 -3.38414,-7.7595 -0.27822,-1.2105 -0.36047,-2.48352 -0.83466,-3.6315 -0.23118,-0.55966 0.0531,1.20991 0.0842,1.81464 0.0752,1.46566 0.16956,2.93038 0.23466,4.39653 0.24071,5.42167 0.27399,7.92946 0.42052,13.63832 -0.11385,21.49821 -0.46414,43.09541 -2.96748,64.47438 -0.62586,5.34496 -1.52363,10.65456 -2.28544,15.98183 -5.79034,33.75234 -16.67412,66.34403 -28.66832,98.32831 -8.04199,20.90812 -18.65852,40.66163 -30.53965,59.60678 -2.0567,3.16925 -3.74498,5.856 -5.89378,8.8938 -0.52059,0.73596 -1.06273,1.45715 -1.62522,2.16161 -0.22648,0.28363 -0.55944,1.11486 -0.73918,0.79953 -0.18752,-0.32898 0.40205,-0.65079 0.67341,-0.91491 1.13108,-1.10088 2.34687,-2.11123 3.52031,-3.16684 9.73743,-5.03607 7.00468,-4.72012 17.60872,-6.07004 1.03694,-0.13201 2.09197,0.0923 3.13572,0.0352 0.15999,-0.009 0.52568,-0.10739 0.42222,-0.22973 -0.41016,-0.48498 -1.02275,-0.75434 -1.55176,-1.10588 -1.62493,-1.07983 -3.27263,-2.12499 -4.90895,-3.18748 -18.67591,-12.31137 -36.65916,-25.62616 -54.47495,-39.13913 -42.26267,-32.03696 -87.56977,27.73148 -45.3071,59.76844 v 0 c 19.69225,14.91956 39.5675,29.63044 60.27635,43.12254 9.63355,5.83246 18.55354,11.43553 29.68319,14.07491 3.44515,0.81702 6.95605,1.59633 10.49661,1.62796 14.51798,0.12969 14.28434,-1.37716 27.10649,-7.09156 2.3114,-1.83787 4.73133,-3.54695 6.93418,-5.51362 7.59355,-6.77938 12.54975,-16.05198 18.24498,-24.31711 14.48311,-23.23948 27.4159,-47.4583 37.18925,-73.09009 2.11998,-5.68564 4.32355,-11.3408 6.35995,-17.05691 11.26523,-31.621 20.79524,-63.98872 26.33285,-97.13506 0.90436,-6.57143 1.9624,-13.12354 2.71309,-19.71429 2.76132,-24.24345 3.20812,-48.72177 3.2391,-73.09473 -0.18279,-6.93269 -0.3528,-13.862 -0.77733,-20.78512 -0.24356,-3.97198 -0.52787,-9.01619 -1.60537,-12.69654 -1.04501,-3.56941 -2.72002,-6.92333 -4.08004,-10.38499 -1.79302,-2.5167 -3.44431,-5.14066 -5.37907,-7.55011 -1.05193,-1.31001 -2.2988,-2.45718 -3.5537,-3.57429 -5.62583,-5.00815 -12.19979,-8.669 -19.1963,-11.39154 -6.03963,-2.10921 -7.45312,-2.7639 -13.98992,-4.30488 -15.59078,-3.67535 -31.6688,-4.73809 -47.62098,-5.40404 -16.29385,-0.28551 -20.96775,-0.53464 -37.7912,-0.089 -30.82104,0.81646 -61.58117,3.5957 -92.07971,8.09856 -7.18016,1.18054 -14.37267,2.28831 -21.54048,3.54163 -19.66476,3.43846 -39.14126,7.79736 -58.73964,11.56895 -52.80251,4.93912 -45.81754,79.61315 6.98497,74.67403 z"/>
<path d="m 504.70208,309.15873 c -0.046,-0.22903 -0.0991,-0.91742 -0.13787,-0.68707 -0.56132,3.3313 -0.4438,6.74449 -0.82593,10.10107 -0.32984,2.89737 -0.68704,5.7959 -1.22216,8.66247 -1.9701,10.55358 -3.30004,13.8666 -6.51918,24.70683 -8.82329,27.1092 -21.43237,52.87127 -36.03341,77.31577 -3.48929,5.84163 -25.27673,39.8337 -28.47582,44.83965 -28.55597,44.68843 34.64302,85.07268 63.199,40.38424 v 0 c 5.83427,-9.1311 25.36702,-39.53926 30.71051,-48.57104 17.41251,-29.43132 32.27373,-60.4821 42.64109,-93.111 1.79669,-6.32314 3.80952,-12.58882 5.39008,-18.96942 4.04433,-16.3267 6.19972,-33.20613 6.08224,-50.02689 -3.78683,-52.89764 -78.59538,-47.54225 -74.80855,5.35539 z"/>
<path d="m 230.91383,613.68207 c 8.63338,23.69472 11.58185,48.92749 15.06794,73.75293 7.37938,54.35905 11.92647,109.03202 16.00145,163.71936 1.95048,28.57 1.05972,14.97851 2.69288,40.77314 3.35232,52.92694 78.20233,48.18604 74.85,-4.74091 v 0 c -1.66768,-26.31931 -0.75793,-12.44976 -2.75038,-41.60725 -4.20008,-56.32766 -8.90972,-112.6386 -16.52994,-168.62558 -4.22156,-29.77475 -8.1823,-59.90213 -18.62531,-88.2831 -17.68574,-49.99715 -88.39238,-24.98573 -70.70664,25.01141 z"/>
<path d="m 389.16773,643.96681 c 17.54844,-7.26894 35.52378,-13.51129 53.92654,-18.25015 5.81934,-1.49852 11.69524,-2.76814 17.54286,-4.15221 24.52358,-5.1144 49.45088,-8.28409 74.48874,-9.22201 14.05927,-0.52667 17.69816,-0.23521 31.32642,0.10747 15.75134,0.66607 31.4198,2.53928 46.69435,6.45917 0.87373,0.23999 4.05797,1.10674 5.1052,1.4207 0.19198,0.0575 0.75968,0.2525 0.56449,0.20702 -1.55804,-0.36299 -4.58141,-1.85685 -5.14175,-2.22932 -2.6735,-1.77709 -5.07933,-3.92721 -7.61899,-5.89082 -10.14341,-14.15784 -2.76312,-2.59178 -7.64683,-12.56676 -0.063,-0.12872 -0.12817,0.26834 -0.12429,0.41161 0.0343,1.26223 0.17351,2.51956 0.23807,3.7806 0.42248,8.25204 0.32664,7.51469 0.50784,16.74592 -0.0819,32.9677 -3.11551,65.83783 -6.29401,98.62319 -2.4595,25.17145 -5.93297,50.27425 -12.05815,74.84085 -3.50579,14.06088 -5.47109,19.52656 -9.81701,33.23026 -4.68388,14.68821 -10.22956,29.05885 -15.92153,43.37611 -19.54118,49.30155 50.18174,76.93695 69.72292,27.6354 v 0 c 6.32565,-16.00163 12.52268,-32.05064 17.72863,-48.46254 5.18089,-16.51941 7.31478,-22.4331 11.49039,-39.46167 6.76064,-27.57067 10.75154,-55.70419 13.50578,-83.93181 3.45196,-35.70953 6.70155,-71.51773 6.62638,-107.42753 -0.22036,-9.92197 -0.24721,-19.93765 -1.51872,-29.80186 -0.70281,-5.45224 -1.99788,-12.3255 -4.44727,-17.20579 -1.94917,-3.88361 -4.74901,-7.2783 -7.12351,-10.91744 -3.08163,-2.54518 -5.96679,-5.34894 -9.24487,-7.63553 -5.91986,-4.12933 -13.38056,-5.41779 -20.13996,-7.45032 -20.74907,-5.19855 -41.97581,-7.96672 -63.36059,-8.72956 -16.29285,-0.34662 -20.78804,-0.68242 -37.5209,0.006 -29.39516,1.2091 -58.65659,5.00054 -87.42647,11.13647 -6.85346,1.64627 -13.74113,3.15619 -20.5604,4.93881 -20.18738,5.27717 -39.99767,11.99752 -59.27155,19.98152 -49.80462,18.22086 -24.03643,88.65523 25.76819,70.43437 z"/>
<path d="m 416.07803,622.29374 c 0.68077,21.3222 0.6526,42.66071 0.79027,63.99156 0.0349,46.9228 -1.3643,93.83118 -2.52853,140.73524 -0.54912,29.13904 -0.3448,14.63962 -0.61697,43.49822 -0.49601,53.03069 74.50071,53.73215 74.99672,0.70146 v 0 c 0.25963,-27.99917 0.0627,-13.88625 0.59716,-42.33866 1.18361,-47.6856 2.60143,-95.37575 2.55006,-143.0805 -0.14683,-22.73224 -0.0826,-45.47635 -0.93542,-68.19608 -3.31545,-52.92927 -78.16875,-48.24051 -74.85329,4.68876 z"/>
<path d="m 334.26017,795.03113 c 23.90951,-9.43661 49.23861,-14.55622 74.35391,-19.57728 31.2095,-5.77762 62.87721,-8.78802 94.60642,-9.26556 17.60363,-0.26494 26.22751,0.22083 43.56465,0.79693 15.08795,0.58818 30.13673,1.80545 45.1774,3.08664 52.84287,4.4867 59.18803,-70.24441 6.34515,-74.73111 v 0 c -16.3428,-1.38345 -32.69469,-2.69352 -49.08882,-3.31604 -19.52101,-0.62031 -28.74312,-1.14017 -48.65018,-0.78952 -35.80772,0.63073 -71.53947,4.11848 -106.75115,10.69273 -8.08471,1.63643 -16.20078,3.12487 -24.25412,4.9093 -13.6202,3.01791 -26.00242,6.25627 -39.27949,10.28863 -8.74302,2.65533 -16.97228,5.415 -25.36735,8.94542 -2.29325,0.96438 -4.492,2.13962 -6.738,3.20943 -46.49258,25.51353 -10.411,91.26396 36.08158,65.75043 z"/>
<path d="m 329.6675,929.9897 c 0.18023,-0.0133 0.36857,0.0151 0.5407,-0.0399 8.04535,-2.57355 1.86693,-1.08787 12.17126,-3.78652 13.83214,-3.62257 27.81249,-5.94982 41.91127,-8.26315 41.50365,-6.29679 83.5509,-6.5401 125.42701,-6.42707 27.25414,0.51304 54.6344,0.38722 81.71744,3.85736 52.62763,6.54464 61.88315,-67.88207 9.25552,-74.42671 v 0 c -30.11575,-3.66372 -60.4779,-4.09997 -90.78445,-4.43042 -46.04185,-0.1076 -92.25902,0.35491 -137.86794,7.43442 -26.17689,4.36875 -52.87933,8.64831 -77.24066,19.68103 -46.9526,24.6567 -12.08275,91.05771 34.86985,66.401 z"/>
</svg>
