<?xml version="1.0" ?>
<svg xmlns="http://www.w3.org/2000/svg" width="1000" height="1000">
<path d="m 441.84198,128.96188 c 11.66205,6.41541 23.17724,13.24437 33.54371,21.64924 3.50964,2.84552 6.79678,5.95499 10.19517,8.93249 15.08846,15.04194 7.6141,7.36015 22.41426,23.05396 36.43921,38.53159 90.93111,-13.00125 54.49189,-51.53284 v 0 c -17.79479,-18.77132 -8.49429,-9.30512 -27.95629,-28.34464 -4.9213,-4.189392 -9.70136,-8.550622 -14.76391,-12.568182 -13.78652,-10.94075 -28.9687,-19.99435 -44.44383,-28.302036 -47.45535,-23.674646 -80.93636,43.437368 -33.481,67.112008 z"/>
<path d="m 257.09033,285.04011 c 16.75765,-0.40429 33.28688,-3.57629 49.73425,-6.5245 73.54734,-13.18343 -31.94682,5.48602 52.25646,-9.3682 64.41585,-11.08478 129.40257,-18.90659 194.63547,-23.10156 14.85737,-0.95545 29.73606,-1.54408 44.60409,-2.31611 50.90045,-1.95757 101.95806,-2.80954 152.81946,0.65756 22.35133,1.52364 28.9621,2.63358 50.10308,5.30302 52.6225,6.58581 61.93623,-67.83364 9.31373,-74.41945 v 0 c -23.74532,-2.94812 -30.66109,-4.11384 -55.70719,-5.79177 -53.39999,-3.57745 -106.99936,-2.73511 -160.43756,-0.64745 -15.48559,0.81193 -30.98238,1.43292 -46.45679,2.4358 -67.66929,4.38558 -135.08268,12.51509 -201.90556,24.02073 -59.62037,10.52051 -0.60422,0.0462 -52.23433,9.3643 -9.5282,1.71963 -18.2482,3.39198 -27.74456,4.59318 -2.62227,0.33169 -6.11629,0.5794 -8.98055,0.79445 -53.033,0 -53.033,75 0,75 z"/>
<path d="m 261.79298,293.67494 c 2.8031,18.73536 3.79751,37.79335 3.61355,56.72854 -0.077,7.92132 -0.49034,15.83579 -0.73551,23.75369 -1.95064,47.18474 -8.15128,94.07691 -17.93396,140.26704 -7.59568,35.86387 -13.00465,54.24107 -22.53261,90.00626 -22.13072,80.06956 -49.65462,158.51294 -79.9707,235.81909 -5.29017,13.48997 -10.82476,26.8828 -16.23715,40.3242 -5.29722,11.41461 -10.59444,22.82923 -15.89166,34.24384 -22.263325,48.13361 45.80788,79.61871 68.0712,31.4851 v 0 c 5.79857,-12.57461 11.59714,-25.14923 17.3957,-37.72384 5.5704,-13.84398 11.2652,-27.63855 16.71119,-41.53194 31.26628,-79.76402 59.59573,-160.72091 82.40127,-243.3377 10.14827,-38.21002 15.69333,-57.01299 23.76621,-95.45291 10.50681,-50.02936 17.1125,-100.82088 19.18851,-151.90841 0.25189,-9.09203 0.6953,-18.18076 0.75569,-27.27607 0.15267,-22.99634 -1.20632,-46.12144 -4.81676,-68.8423 -9.50734,-52.17384 -83.29231,-38.72843 -73.78497,13.44541 z"/>
<path d="m 106.16891,455.26295 c 14.25529,9.61477 28.60884,19.11695 42.31561,29.51296 3.56156,2.7013 7.02814,5.52561 10.54221,8.28841 3.62122,3.19359 7.24245,6.38719 10.86367,9.58078 39.90816,34.92618 89.30125,-21.51248 49.39309,-56.43867 v 0 c -4.66532,-4.05849 -9.33064,-8.11698 -13.99596,-12.17547 -4.18681,-3.27191 -8.32296,-6.60971 -12.56044,-9.81572 -14.75478,-11.1632 -30.17869,-21.40284 -45.52057,-31.72899 -44.38983,-29.01798 -85.427443,33.75872 -41.03761,62.7767 z"/>
<path d="m 109.00662,698.11087 c 27.96963,-18.43313 54.82084,-38.48033 82.09137,-57.91245 9.39332,-6.69338 18.85316,-13.29291 28.27975,-19.93937 41.50751,-27.79362 20.48655,-14.19389 63.06941,-40.7891 44.96706,-28.11517 5.20621,-91.7082 -39.76086,-63.59303 v 0 c -45.06834,28.20766 -22.89694,13.83634 -66.53046,43.08885 -9.64037,6.7989 -19.31391,13.55103 -28.92113,20.39671 -25.90616,18.45958 -51.424737,37.47915 -77.914245,55.10871 -45.000046,28.06236 -5.313882,91.70203 39.686165,63.63968 z"/>
<path d="m 417.88119,322.93697 c -0.0517,16.26335 0.41679,32.58568 -1.5939,48.77101 -0.70686,5.6899 -1.84472,11.31792 -2.76708,16.97689 -6.30593,31.19916 -15.64377,61.67352 -27.89065,91.05026 -3.25481,7.80737 -6.62153,15.57591 -10.33124,23.17768 -3.41985,7.0078 -7.3623,13.74828 -11.04345,20.62243 -3.98238,5.73865 -7.96477,11.4773 -11.94715,17.21596 -29.77584,43.88507 32.28702,85.99446 62.06286,42.10939 v 0 c 5.38003,-8.06013 10.76006,-16.12026 16.1401,-24.1804 4.44802,-8.45109 9.18987,-16.75394 13.34406,-25.35327 4.20954,-8.71392 8.04229,-17.60979 11.73244,-26.55605 14.17239,-34.35899 24.94767,-70.01364 32.03345,-106.50465 1.14696,-7.58108 2.54993,-15.12783 3.44089,-22.74324 2.12042,-18.12423 1.81531,-36.38077 1.81967,-54.58601 0,-53.03301 -75,-53.03301 -75,0 z"/>
<path d="m 476.22511,362.52174 c 21.35061,-3.03449 42.35932,-8.06413 63.49302,-12.29913 21.1083,-3.82699 42.33492,-7.42068 63.76069,-8.85824 2.45236,-0.0503 4.03074,-0.17839 6.3279,0.0301 0.23919,0.0217 0.82378,-0.0521 0.70348,0.15579 -0.0861,0.14884 -2.18802,-0.15799 -2.91855,-0.40562 -2.0614,-0.69875 -4.05463,-1.58443 -6.08195,-2.37664 -12.52452,-10.30842 -9.05545,-5.3131 -15.87208,-17.97755 -0.31482,-0.5849 -0.4589,-2.45188 -0.7402,-1.85015 -0.45326,0.96959 0.0833,2.13911 0.10487,3.2092 0.13712,6.81641 0.0758,7.14052 0.0224,14.72635 -0.41058,26.72454 -0.98602,53.44667 -1.50343,80.16947 0.0245,23.33738 -2.17226,47.32257 3.81462,70.19872 1.35657,5.18352 3.41758,10.15661 5.12637,15.23492 2.66797,4.92823 4.83431,10.1631 8.00392,14.7847 10.37346,15.12546 24.76619,26.09732 40.86729,34.49982 11.48026,5.99108 18.96483,8.27019 31.00727,12.64198 23.61148,7.86103 47.99378,13.035 72.44548,17.47108 16.92891,2.98209 33.26067,4.75094 48.12044,-7.99511 14.56511,-12.49331 14.5959,-22.99253 18.03216,-39.16798 4.46875,-37.14333 7.52197,-74.44214 10.64673,-111.71731 4.4291,-52.84774 -70.30888,-59.11144 -74.73799,-6.2637 v 0 c -2.95256,35.23859 -5.91138,70.48499 -9.88417,105.62644 0.11672,0.87451 -0.34698,3.16425 0.35017,2.62354 18.94714,-14.69556 -0.49658,-9.46624 26.7056,-16.01335 1.18031,-0.28408 2.5555,-0.14081 3.61358,0.45441 2.78844,1.56864 -16.89711,-3.96853 -9.50266,-1.35033 -20.42833,-3.67876 -40.81128,-7.9232 -60.58864,-14.3071 -8.79094,-3.05543 -17.45177,-6.02841 -25.65275,-10.48654 -1.4855,-0.80753 -2.89582,-1.74627 -4.34427,-2.61852 -0.82256,-0.49535 -1.7404,-0.85858 -2.46875,-1.48426 -0.8476,-0.72811 -1.46779,-1.68518 -2.20169,-2.52778 -0.67415,-1.41751 -1.52521,-2.76372 -2.02245,-4.25253 -1.71829,-5.1448 -2.11186,-10.21751 -2.40943,-15.63215 -0.70042,-12.74455 0.008,-25.51938 0.0651,-38.26714 0.52397,-27.0639 1.11026,-54.12709 1.51625,-81.19291 0.0778,-16.86322 1.39733,-38.29454 -9.35316,-52.546 -3.46142,-4.58866 -8.52017,-7.71722 -12.78025,-11.57583 -2.94138,-1.29924 -5.80787,-2.78336 -8.82414,-3.89773 -1.86563,-0.68926 -3.8292,-1.08925 -5.77598,-1.4963 -8.23415,-1.72167 -16.71401,-1.62473 -25.06966,-1.23942 -24.60362,1.78558 -49.01384,5.58629 -73.24726,10.13741 -19.32503,3.87725 -38.54153,8.43468 -58.02993,11.41197 -52.6253,6.5634 -43.34324,80.98681 9.28205,74.42341 z"/>
<path d="m 471.38879,638.40474 c 14.77541,-4.93696 29.71104,-9.25393 44.85262,-12.9109 19.1958,-4.3144 38.72029,-6.81378 58.28948,-8.63045 10.7484,-1.01441 21.51939,-1.77685 32.30832,-2.17401 0.40684,-0.0115 3.53764,-0.10627 4.19586,-0.10323 0.16143,7.5e-4 -0.32126,0.0497 -0.48249,0.0417 -1.03308,-0.0513 -2.08694,0.0112 -3.09531,-0.21919 -3.06726,-0.70079 -6.37502,-0.9635 -9.08411,-2.56351 -5.16316,-3.04942 -9.41522,-7.42848 -14.12284,-11.14273 -12.77032,-32.50438 -5.6255,-8.08683 -7.21563,-23.62097 -0.0304,-0.29695 -0.29661,0.5225 -0.39053,0.80583 -0.52919,1.59633 -0.96579,3.22206 -1.47596,4.82457 -2.18699,6.86966 -3.50774,10.62795 -5.93328,17.7734 -8.91407,26.44146 -18.1456,52.91423 -31.31282,77.6046 -3.28907,6.16746 -6.95536,12.12622 -10.43304,18.18934 -16.90629,27.5813 -37.0964,52.99786 -59.69843,76.12074 -15.66003,16.02091 -21.63896,20.79004 -38.40277,35.66046 -21.58622,18.49444 -45.84886,33.32485 -70.35848,47.53123 -45.84795,26.65456 -8.15271,91.49335 37.69524,64.83879 v 0 c 5.67015,-3.30506 11.40424,-6.50277 17.01045,-9.91516 22.88212,-13.92787 45.12932,-28.97628 65.50756,-46.42361 19.04832,-16.99436 25.83588,-22.43309 43.66109,-40.82377 26.47503,-27.31489 50.05595,-57.35654 69.7759,-89.90512 4.21472,-7.45965 8.65458,-14.79652 12.64418,-22.37896 14.50741,-27.57214 25.05061,-56.94144 34.93784,-86.41109 3.14718,-9.28817 6.53378,-18.5824 9.03702,-28.07567 1.28779,-4.88381 3.59716,-14.41473 2.64478,-19.11603 -1.48498,-7.3304 -4.89315,-14.13566 -7.33973,-21.20349 -5.07005,-4.20553 -9.5967,-9.16971 -15.21016,-12.61659 -6.98673,-4.29012 -17.30706,-4.0397 -25.35449,-3.81923 -12.18179,0.46058 -24.34537,1.29533 -36.48176,2.44663 -23.19146,2.17698 -46.32365,5.21773 -69.05196,10.43283 -4.24751,1.04027 -8.51064,2.01873 -12.74254,3.12081 -12.44579,3.24115 -24.65516,7.26279 -36.91314,11.12968 -50.58155,15.93757 -28.04243,87.47069 22.53913,71.53312 z"/>
<path d="m 425.57892,730.18031 c 17.55382,11.92702 34.1207,25.23511 50.63022,38.5471 29.39956,24.06442 57.5108,49.64425 85.68396,75.11732 21.02712,18.92794 41.88071,38.07104 63.73483,56.04818 9.86605,7.78755 20.05716,15.28682 31.21836,21.13931 7.50522,3.93543 9.48639,4.48303 17.41866,7.64585 23.28635,8.35683 48.03649,10.9627 72.6161,11.9502 7.05489,0.28343 14.11806,0.29609 21.17709,0.44414 7.60824,-0.0435 15.21649,-0.087 22.82473,-0.13047 53.03197,-0.33236 52.56195,-75.33089 -0.47002,-74.99853 v 0 c -6.96094,0.0478 -13.92188,0.0956 -20.88282,0.14344 -22.79998,-0.412 -46.17131,-0.32239 -68.12437,-7.32574 -3.21639,-1.17701 -4.92107,-1.69668 -7.94136,-3.18209 -7.32973,-3.60484 -13.79727,-8.70697 -20.24435,-13.65162 -20.96829,-17.17712 -40.84267,-35.63549 -61.02697,-53.71469 -29.22674,-26.42522 -58.40285,-52.94574 -88.9237,-77.88345 -18.09243,-14.57182 -36.26424,-29.11245 -55.50445,-42.15983 -43.84831,-29.82994 -86.03422,32.18094 -42.18591,62.01088 z"/>
</svg>
