<?xml version="1.0" ?>
<svg xmlns="http://www.w3.org/2000/svg" width="1000" height="1000">
<path d="m 436.92651,116.08688 c 16.00254,11.68449 31.53627,23.98274 46.86214,36.53617 15.53315,13.72944 7.79056,6.50156 23.17398,21.74111 37.80342,37.19411 90.40383,-16.268 52.60041,-53.46211 v 0 c -19.07521,-18.66505 -9.61812,-9.92974 -28.26936,-26.315815 -17.06953,-13.963014 -34.35439,-27.678226 -52.25844,-40.562669 -43.88538,-29.775371 -85.99412,32.28794 -42.10873,62.063314 z"/>
<path d="m 237.58375,297.33499 c 32.97273,-6.12117 66.32423,-10.01085 99.59206,-14.12692 65.58495,-7.88122 131.35819,-14.33683 197.3108,-18.19473 13.73438,-0.8034 27.48193,-1.36319 41.22289,-2.04478 46.75357,-1.9978 93.6023,-2.06352 140.31475,0.91699 21.22963,1.35457 28.33144,2.26578 48.59453,4.35455 52.7562,5.41136 60.40901,-69.19718 7.65281,-74.60854 v 0 c -21.91464,-2.23753 -29.5299,-3.2094 -52.46446,-4.65054 -49.21417,-3.0925 -98.5688,-3.03744 -147.82368,-0.91985 -14.17692,0.7071 -28.3606,1.28972 -42.53076,2.12129 -67.34908,3.95236 -134.51605,10.54285 -201.49024,18.59367 -35.62157,4.41131 -71.34694,8.55787 -106.61382,15.33714 -51.77558,11.47996 -35.54046,84.70168 16.23512,73.22172 z"/>
<path d="m 242.71152,277.15201 c -4.99715,26.73763 -7.27507,53.9144 -10.21221,80.93277 -1.09986,9.42097 -2.15782,18.84693 -3.29957,28.26292 -2.72693,22.48899 -5.56151,45.56898 -9.30369,67.89887 -7.06819,42.17641 -16.59213,83.92155 -25.77844,125.66845 -14.34169,62.05704 -31.92078,123.2887 -51.07027,184.01533 -4.7663,15.11484 -9.53594,30.23054 -14.58393,45.25365 -4.84335,14.4141 -10.05848,28.70059 -15.08771,43.05089 -19.487439,52.49477 -9.96443,26.72689 -28.577341,77.30056 -18.316735,49.76944 52.067881,75.67325 70.384621,25.90378 v 0 c 18.70321,-50.8201 9.04751,-24.67963 28.97832,-78.41728 5.22938,-14.94574 10.64745,-29.82678 15.68814,-44.83721 5.14511,-15.32136 10.00922,-30.73617 14.86688,-46.15107 19.75856,-62.70023 37.871,-125.92941 52.64996,-190.00553 9.55854,-43.46566 19.39778,-86.92196 26.72708,-130.8381 3.84263,-23.02457 6.78997,-46.95146 9.6008,-70.14856 1.1647,-9.61201 2.24391,-19.23418 3.36587,-28.85127 2.61686,-24.07209 4.76175,-48.23793 8.72243,-72.13736 11.9507,-51.66896 -61.12024,-68.5698 -73.07094,-16.90084 z"/>
<path d="m 113.81185,483.95388 c 20.16916,8.10722 40.06206,16.94689 59.65991,26.34864 4.09278,2.1438 8.18557,4.2876 12.27835,6.4314 47.01876,24.53033 81.70987,-41.96424 34.69111,-66.49456 v 0 c -4.87116,-2.53281 -9.74233,-5.06562 -14.61349,-7.59843 -22.43169,-10.6973 -45.13189,-20.96564 -68.3464,-29.85415 -50.322735,-16.73685 -73.992216,54.43025 -23.66948,71.1671 z"/>
<path d="m 94.851233,708.12836 c 18.685477,-11.94284 37.207737,-24.15288 56.275937,-35.4862 8.3378,-4.95562 16.79168,-9.71329 25.18752,-14.56994 31.38366,-17.83307 63.68692,-33.97347 96.72014,-48.51763 11.64425,-5.12684 23.44894,-9.88128 35.17341,-14.82191 48.86068,-20.61878 19.70134,-89.71822 -29.15935,-69.09944 v 0 c -12.45841,5.26432 -25.0038,10.32735 -37.37523,15.79296 -35.15174,15.5298 -69.53325,32.74233 -102.94108,51.74159 -8.95273,5.18882 -17.966,10.27458 -26.8582,15.56648 -21.280058,12.66413 -42.098771,26.14738 -62.687135,39.89787 -42.070181,32.28932 3.593807,91.78554 45.663988,59.49622 z"/>
<path d="m 379.99486,488.13783 c 30.60029,-3.79 61.1155,-8.25127 91.70787,-12.12864 47.57922,-5.58503 95.47666,-8.63764 143.37821,-9.33395 8.14881,-0.11845 16.29928,-0.0443 24.44893,-0.0665 18.42697,-0.003 36.79789,1.2642 55.14627,2.78938 52.85529,4.33795 58.99008,-70.41072 6.13479,-74.74868 v 0 c -20.46869,-1.66111 -40.96042,-3.06727 -61.51357,-3.04034 -8.70722,0.0301 -17.41537,-0.0409 -26.12165,0.0903 -50.4195,0.75955 -100.83095,4.00366 -150.90888,9.90568 -30.0584,3.81423 -60.04729,8.15794 -90.1059,11.94296 -52.74291,5.53942 -44.90898,80.12917 7.83393,74.58974 z"/>
<path d="m 490.78774,467.26331 c -1.67663,31.98309 -1.95261,64.00246 -1.92314,96.0214 0.40922,50.08608 2.71706,100.14327 2.47772,150.23706 -0.048,10.05167 -0.29653,20.10139 -0.4448,30.15208 -0.88049,28.26686 -2.72458,56.5219 -6.18781,84.59743 -1.06372,8.62331 -2.43876,17.20535 -3.65814,25.80803 -7.3953,52.51485 66.87191,62.97338 74.26721,10.45853 v 0 c 1.32737,-9.48208 2.82368,-18.94205 3.9821,-28.44625 3.69461,-30.31236 5.67042,-60.81413 6.58874,-91.32913 0.15059,-10.53734 0.40392,-21.07371 0.45179,-31.61202 0.22708,-49.99657 -2.02228,-99.95675 -2.47685,-149.94493 -0.0373,-31.21032 0.25034,-62.41925 1.88643,-93.59436 1.66017,-53.00702 -73.30307,-55.35486 -74.96325,-2.34784 z"/>
<path d="m 542.54588,664.00561 c 18.7037,-0.50763 37.38894,-1.53862 56.06983,-2.56585 16.00687,-0.89682 32.01705,-1.7882 48.03947,-2.36556 9.18534,-0.33099 19.37714,-0.69672 28.6008,-0.31962 4.41242,0.18039 8.80801,0.65351 13.21201,0.98026 52.9081,3.63769 58.05257,-71.18567 5.14447,-74.82335 v 0 c -5.94892,-0.38506 -11.88932,-0.93883 -17.84676,-1.15518 -10.4056,-0.37789 -21.89862,0.009 -32.30361,0.38589 -16.33158,0.59111 -32.65087,1.49674 -48.96672,2.41082 -17.30995,0.95299 -34.62197,1.87811 -51.94949,2.45259 -53.03301,0 -53.03301,75 0,75 z"/>
<path d="m 323.41612,731.93124 c 0.65554,26.58843 -0.21857,53.16543 -1.72828,79.70805 -1.90427,23.66935 -0.77467,11.84871 -3.38933,35.46187 -5.78787,52.71622 68.76413,60.90151 74.552,8.18528 v 0 c 2.87774,-26.41077 1.6429,-13.2671 3.71865,-39.42968 1.55986,-27.94743 2.53344,-55.93038 1.84696,-83.92552 0,-53.03301 -75,-53.03301 -75,0 z"/>
<path d="m 258.13191,932.42655 c 18.26966,-3.28134 36.15513,-8.32754 54.36724,-11.9209 6.92927,-1.36719 13.88972,-2.57126 20.83458,-3.85688 48.29254,-8.09872 97.11107,-12.85487 145.97197,-15.8204 11.26535,-0.68373 22.54279,-1.15133 33.81419,-1.727 52.25677,-2.2024 104.61449,-1.29914 156.80124,2.05824 8.79219,0.56564 17.57305,1.29541 26.35958,1.94312 30.12322,2.45309 60.17176,5.76026 90.09057,10.02818 52.50397,7.47217 63.07122,-66.77965 10.56725,-74.25183 v 0 c -31.60485,-4.48821 -63.34035,-8.00952 -95.16117,-10.57466 -25.03307,-1.83412 -32.19723,-2.52554 -57.76107,-3.69061 -44.88054,-2.04544 -89.846,-2.34095 -134.73752,-0.41402 -11.75544,0.6052 -23.5172,1.09798 -35.26631,1.8156 -51.67969,3.15655 -103.30848,8.25321 -154.37551,16.89466 -7.58707,1.41364 -15.19129,2.7381 -22.7612,4.24092 -16.89571,3.35423 -33.52359,7.86172 -50.41541,11.18932 -52.3869,8.25305 -40.71533,82.33931 11.67157,74.08626 z"/>
</svg>
