<?xml version="1.0" ?>
<svg xmlns="http://www.w3.org/2000/svg" width="1000" height="1000">
<path d="m 435.46943,131.91279 c 10.11876,5.81213 20.84936,10.43732 31.1089,15.99043 7.97082,4.31431 15.28648,8.71346 23.11637,13.3142 4.80535,2.79496 9.61069,5.58991 14.41604,8.38487 45.84311,26.66287 83.55011,-38.16908 37.707,-64.83196 v 0 c -4.72028,-2.74525 -9.44056,-5.490508 -14.16084,-8.235764 -10.02395,-5.876771 -16.44451,-9.765121 -26.6408,-15.257467 -9.2328,-4.973356 -11.50291,-5.899134 -20.11252,-10.142095 -3.44344,-1.696988 -3.67183,-1.825512 -6.19043,-3.135673 -45.19364,-27.749503 -84.43736,36.163959 -39.24372,63.913459 z"/>
<path d="m 257.79265,287.22816 c 23.25713,-5.18679 46.0099,-12.36774 69.1947,-17.88535 9.38589,-2.23369 18.82713,-4.22807 28.2407,-6.34211 64.06205,-13.19161 129.41874,-19.21792 194.68375,-22.31292 14.13454,-0.67028 28.28328,-0.99689 42.42491,-1.49533 38.12685,-0.8658 76.28069,-0.76091 114.39899,0.45615 16.32959,0.52138 39.75886,1.60456 56.42508,2.98689 7.48019,0.62042 14.93222,1.54325 22.39833,2.31487 52.75822,5.39167 60.3832,-69.21972 7.62498,-74.61139 v 0 c -8.38878,-0.84868 -16.76297,-1.85671 -25.16635,-2.54605 -17.61973,-1.44536 -42.28054,-2.57827 -59.58907,-3.12521 -39.5695,-1.25037 -79.17553,-1.34653 -118.7531,-0.42803 -14.74445,0.52713 -29.49642,0.87443 -44.23335,1.5814 -69.3038,3.3247 -138.6822,9.88181 -206.68451,24.01045 -10.0895,2.27609 -20.20791,4.42764 -30.26851,6.82828 -22.24374,5.30775 -44.09479,12.12546 -66.37776,17.226 -51.86087,11.08828 -36.17967,84.43063 15.68121,73.34235 z"/>
<path d="m 272.56661,284.27929 c -1.01631,7.41175 -0.6246,4.66739 -2.11401,14.72204 -1.88758,12.74264 -3.17678,20.80622 -4.84447,34.08435 -2.39343,19.05639 -3.86688,34.12378 -5.89629,53.43862 -7.04198,66.37345 -22.83372,131.52856 -43.52542,194.90192 -5.06631,15.51681 -10.68379,30.84822 -16.02569,46.27233 -17.03187,46.20365 -36.14048,91.63082 -56.58714,136.42124 -10.56135,23.13568 -26.24477,56.13405 -38.40502,78.8819 -5.832507,10.91072 -12.232373,21.50851 -18.348559,32.26277 -26.162598,46.13045 39.075709,83.12995 65.238309,36.9995 v 0 c 6.68982,-11.82557 13.67487,-23.48894 20.06947,-35.47672 12.65988,-23.73314 28.99411,-58.11679 40.0188,-82.29075 21.30279,-46.71086 41.19131,-94.0929 58.89672,-142.28956 5.62491,-16.29385 11.54641,-32.48831 16.87473,-48.88153 22.08939,-67.96061 38.83417,-137.82915 46.38383,-208.96989 1.84887,-17.62378 3.42455,-33.61532 5.61348,-51.09948 2.14346,-17.12094 5.03657,-34.13234 7.25138,-51.24224 5.46911,-52.75025 -69.13101,-60.48475 -74.60012,-7.7345 z"/>
<path d="m 130.28544,440.56414 c 12.70596,8.93889 24.84868,18.62508 36.92256,28.38884 41.25104,33.32944 88.38599,-25.00834 47.13495,-58.33778 v 0 c -13.88188,-11.20723 -27.84805,-22.32821 -42.51953,-32.49781 -44.15653,-29.37178 -85.694498,33.07497 -41.53798,62.44675 z"/>
<path d="m 105.08854,701.30875 c 1.66888,-1.21523 3.36521,-2.39363 5.00663,-3.64569 20.30615,-15.48938 -4.76998,3.07583 22.37103,-17.27215 22.80815,-17.09958 46.00904,-33.68376 69.10526,-50.38909 20.54258,-14.68492 37.4197,-27.06826 58.59142,-40.90716 9.87482,-6.45468 20.00491,-12.51012 30.00736,-18.76518 44.94188,-28.15542 5.12411,-91.71283 -39.81777,-63.55741 v 0 c -10.82245,6.79143 -21.77724,13.37641 -32.46736,20.3743 -21.8333,14.29236 -39.11652,26.96404 -60.26858,42.08569 -31.60657,22.86142 -63.433477,45.46434 -94.066095,69.63003 -44.156459,29.37187 -2.618352,91.81854 41.538105,62.44666 z"/>
<path d="m 424.53789,367.20744 c 18.43259,-3.66173 36.63905,-8.34845 55.07917,-11.98306 6.38576,-1.25865 12.79891,-2.37411 19.19836,-3.56116 26.50308,-4.41229 53.23053,-7.67961 80.07233,-9.06832 14.06631,-0.72774 17.62855,-0.58382 31.20726,-0.6218 9.1995,0.14785 18.41502,0.40588 27.57077,1.37999 1.1198,0.11914 5.38328,0.40771 6.84512,1.20605 -3.34332,-0.83128 -5.65774,-1.26708 -8.9244,-3.94165 -10.26585,-8.40513 -13.13159,-13.06472 -15.33281,-26.55302 -0.27572,-1.68956 0.60488,-8.17004 1.05952,-11.627 -15.20542,23.64098 -35.43243,43.5352 -54.8189,63.69757 -4.32104,4.45099 -8.64207,8.90198 -12.9631,13.35298 -36.93945,38.0523 16.87464,90.29256 53.81408,52.24025 v 0 c 4.40692,-4.53991 8.81385,-9.07981 13.22077,-13.61972 24.18248,-25.16681 49.24413,-50.25774 67.02416,-80.56613 4.15512,-8.94363 8.40515,-15.57032 7.61198,-26.25656 -0.49012,-6.60343 -2.07855,-13.31642 -5.13805,-19.18881 -5.70315,-10.9466 -15.94975,-16.81454 -27.05926,-20.22197 -17.42124,-4.12543 -35.37587,-4.68321 -53.21779,-4.90135 -15.70358,0.0821 -19.80652,-0.0742 -36.00179,0.79494 -29.73102,1.59564 -59.33683,5.21571 -88.68771,10.15974 -6.97625,1.3014 -13.96703,2.52723 -20.92875,3.9042 -18.18078,3.59599 -36.14154,8.1732 -54.30812,11.82498 -52.0076,10.37832 -37.33044,83.92817 14.67716,73.54985 z"/>
<path d="m 506.45566,442.06098 c 7.30533,4.60224 14.58672,9.34757 21.15606,14.97876 5.54205,4.75062 8.56892,8.10503 13.77439,13.42849 10.8958,11.80969 5.37969,5.63973 16.51208,18.5422 34.70845,40.09768 91.41512,-8.98749 56.70667,-49.08516 v 0 c -13.35641,-15.38856 -6.71027,-7.99831 -19.9013,-22.20407 -3.45664,-3.46524 -6.81387,-7.03256 -10.3699,-10.39572 -12.09324,-11.43733 -25.54675,-21.28326 -39.78671,-29.87141 -45.68399,-26.93461 -83.77528,37.6723 -38.09129,64.60691 z"/>
<path d="m 322.7255,506.04821 c 4.06518,26.65033 6.10156,53.55436 7.96334,80.43025 2.80462,59.72701 5.13346,119.47346 8.14066,179.19197 1.74492,32.71537 2.9201,65.46036 2.49452,98.22332 -0.65949,53.02891 74.33471,53.96157 74.9942,0.93266 v 0 c 0.40997,-34.33202 -0.72668,-68.64625 -2.58366,-102.92842 -3.03216,-60.19817 -5.35154,-120.42584 -8.22696,-180.6303 -2.0079,-28.68715 -4.20337,-57.40115 -8.53921,-85.84934 -7.51645,-52.49765 -81.75934,-41.86779 -74.24289,10.62986 z"/>
<path d="m 461.95359,552.6797 c 19.33388,-7.9671 39.89033,-12.21206 60.3269,-16.21228 33.57258,-5.99694 67.65098,-8.1091 101.69422,-8.88647 20.38645,-0.18636 40.75244,1.276 60.95184,3.96109 8.02864,1.0389 15.93099,2.80201 23.88108,4.28948 0.80309,0.1386 1.60619,0.2772 2.40928,0.4158 0.10187,0.0267 0.40771,0.1057 0.3056,0.08 -1.2763,-0.32162 -2.63885,-0.40388 -3.82821,-0.96763 -3.7764,-1.79002 -7.7614,-3.38623 -10.98027,-6.0516 -6.22702,-5.15627 -7.213,-7.77251 -10.02012,-13.35354 3.82024,25.71254 5.04464,51.71283 6.30874,77.64717 1.22518,31.1226 1.08366,62.30388 -0.93651,93.39085 -1.25568,19.32281 -2.21525,26.75596 -4.2084,45.87996 -3.50504,32.01514 -8.77844,63.78501 -15.17921,95.33673 -1.64354,7.63885 -3.38817,15.27129 -5.59253,22.77186 -0.92903,3.16112 -1.93144,6.35636 -3.44027,9.29375 2.03729,-6.90242 9.37008,-11.05025 15.10115,-14.12797 1.80804,-0.97097 5.73539,0.16443 5.86146,-1.88395 0.12019,-1.95289 -3.76498,-1.06671 -5.64693,-1.60196 -4.39444,-1.24983 -8.78816,-2.50219 -13.18225,-3.75328 -28.08086,-8.93352 -55.57381,-19.59457 -83.05232,-30.20363 -49.47592,-19.09537 -76.48086,50.87415 -27.00493,69.96952 v 0 c 29.74809,11.47756 59.51318,23.02274 89.97627,32.49581 9.00622,2.45807 25.37613,7.49992 35.06,7.99465 6.51726,0.33295 13.24765,0.54299 19.54163,-1.18075 13.65678,-3.74018 19.83162,-9.41029 27.71735,-19.82438 1.7159,-2.26607 2.78045,-4.95849 4.17068,-7.43774 0.90528,-2.11392 1.87579,-4.20108 2.71584,-6.34177 5.21939,-13.30053 8.13066,-27.39026 11.28086,-41.27499 6.86653,-33.92083 12.52456,-68.0763 16.27302,-102.49446 2.15733,-20.89347 3.16793,-28.71923 4.51541,-49.88006 2.13668,-33.55455 2.28176,-67.20861 0.93981,-100.7985 -1.52646,-31.00313 -2.79692,-62.23286 -8.61694,-92.79067 -1.24775,-3.73145 -1.82303,-7.76021 -3.74325,-11.19436 -2.77933,-4.97059 -6.00992,-9.84394 -10.18564,-13.71625 -6.42781,-5.96077 -14.47674,-8.79082 -22.80922,-10.12737 -9.27765,-1.72274 -18.5009,-3.76502 -27.87646,-4.92362 -24.02338,-3.11834 -48.22663,-4.9002 -72.46722,-4.5775 -38.33665,0.92248 -76.70643,3.39147 -114.48984,10.29194 -6.48895,1.2953 -13.00544,2.45955 -19.46685,3.8859 -20.39402,4.50196 -40.69279,10.23631 -59.78483,18.78826 -47.45534,23.67469 -13.97428,90.78668 33.48106,67.11199 z"/>
<path d="m 400.69478,685.14821 c 18.94634,-4.46362 37.58168,-10.15441 56.52873,-14.63688 6.60095,-1.56164 13.24531,-2.93378 19.86796,-4.40067 48.67822,-9.74984 98.16676,-14.46705 147.6292,-17.96354 27.4092,-1.83301 54.8733,-1.45763 82.28641,-0.1013 52.96947,2.59523 56.63968,-72.31491 3.67021,-74.91014 v 0 c -30.40525,-1.47652 -60.8668,-1.85358 -91.26424,0.19948 -53.14922,3.78362 -106.32108,8.93093 -158.60046,19.56349 -7.34665,1.63922 -14.71562,3.1814 -22.03994,4.91766 -17.68924,4.19333 -35.13333,9.3379 -52.75491,13.78202 -52.00762,10.37824 -37.33057,83.92812 14.67704,73.54988 z"/>
<path d="m 417.49981,783.39542 c 24.69558,-3.87872 49.19442,-8.88033 73.86735,-12.90082 8.10433,-1.32061 16.22822,-2.51819 24.34233,-3.77729 35.85499,-5.14394 71.98425,-8.29765 108.15702,-10.06606 20.41578,-0.99808 28.23893,-1.04294 48.18344,-1.47878 23.45897,0.0532 12.40539,-0.11511 33.16204,0.41161 53.01684,1.30925 54.8684,-73.66789 1.85155,-74.97714 v 0 c -23.07523,-0.55579 -10.85245,-0.38575 -36.66953,-0.41619 -21.11149,0.47088 -29.32099,0.51987 -50.95023,1.59102 -38.54694,1.90897 -77.04388,5.31035 -115.24857,10.82467 -8.50124,1.32236 -17.01254,2.58156 -25.50372,3.96707 -24.41901,3.98448 -48.66887,8.91812 -73.10797,12.77462 -52.35935,8.42609 -40.44306,82.47338 11.91629,74.04729 z"/>
<path d="m 513.10935,528.2343 c -4.57474,33.06958 -5.83977,66.49326 -7.38679,99.80671 -2.67791,72.25768 -2.87205,144.5791 -3.71973,216.87447 -0.47879,42.15203 -0.2531,21.84972 -0.67917,60.90691 -0.57848,53.02985 74.41705,53.84796 74.99554,0.8181 v 0 c 0.42559,-39.0143 0.20013,-18.73239 0.67847,-60.84571 0.8375,-71.43139 1.02952,-142.88831 3.64455,-214.28332 1.43582,-31.07679 2.54712,-62.26691 6.7763,-93.12103 7.18147,-52.54452 -67.1277,-62.70065 -74.30917,-10.15613 z"/>
</svg>
