<?xml version="1.0" ?>
<svg xmlns="http://www.w3.org/2000/svg" viewBox="0 0 1000 1000">
<path d="m 442.34331,128.23384 c 12.79603,4.96838 25.28547,10.72578 37.2083,17.54069 4.2832,2.44821 8.47245,5.05723 12.70868,7.58585 4.33224,2.68637 8.66448,5.37274 12.99672,8.05911 45.08324,27.92851 84.58012,-35.82882 39.49688,-63.757327 v 0 c -4.73431,-2.930244 -9.46862,-5.860487 -14.20292,-8.790731 -5.16837,-3.055416 -10.27346,-6.220506 -15.50511,-9.166248 -15.70136,-8.840826 -32.13032,-16.402802 -49.0332,-22.638487 -50.32277,-16.736757 -73.99212,54.430383 -23.66935,71.167143 z"/>
<path d="m 256.44076,280.53144 c 23.93665,-3.83834 47.76413,-8.31326 71.71462,-12.0762 9.63086,-1.51313 19.27896,-2.91442 28.91845,-4.37163 61.22147,-8.7421 122.82466,-14.93222 184.59541,-18.03733 12.87887,-0.64739 25.7705,-1.00942 38.65575,-1.51413 42.04298,-1.22053 84.20032,-0.9922 126.12422,2.72601 17.58469,1.55958 21.55205,2.35949 37.98263,4.78217 52.47771,7.65446 63.30274,-66.56022 10.82504,-74.21468 v 0 c -18.92113,-2.73409 -23.40191,-3.62739 -43.47689,-5.3778 -44.68163,-3.89594 -89.60325,-4.182 -134.40782,-2.85755 -13.43095,0.53219 -26.86857,0.91646 -40.29283,1.59656 -63.98912,3.24181 -127.80446,9.66725 -191.22358,18.74047 -9.95217,1.50653 -19.91313,2.95602 -29.8565,4.51961 -23.42606,3.68373 -46.73905,8.01927 -70.14197,11.83499 -52.50234,7.48364 -41.91887,81.73315 10.58347,74.24951 z"/>
<path d="m 244.87267,272.67816 c 1.1334,20.29136 0.0543,40.68185 -1.98418,60.8831 -0.84499,8.37369 -1.96219,16.71767 -2.94328,25.07651 -1.42302,10.11116 -2.79957,20.22898 -4.26905,30.3335 -3.53587,24.31335 -7.56269,51.33036 -11.99316,75.39427 -4.83418,26.25671 -12.3379,61.19697 -18.28003,87.07136 -3.50962,15.28231 -7.29139,30.50083 -10.93709,45.75125 -15.30459,61.33006 -32.77917,122.08892 -52.73251,182.06782 -4.57243,13.74455 -9.1781,27.48047 -14.06738,41.11552 -4.53014,12.63347 -9.45841,25.12062 -14.18761,37.68093 -18.02727,44.20169 -9.06073,22.56993 -26.872132,64.90666 -20.562056,48.88457 48.571172,77.96372 69.133232,29.07914 v 0 c 18.39722,-43.7463 9.07009,-21.22281 27.93963,-67.58775 4.98376,-13.26951 10.17113,-26.46431 14.95126,-39.80851 5.02543,-14.02897 9.76288,-28.16031 14.46212,-42.30188 20.55078,-61.84409 38.56114,-124.48848 54.32033,-187.72368 3.74711,-15.69261 7.63499,-31.35229 11.24134,-47.07785 6.3375,-27.63478 13.86122,-62.81757 18.99771,-90.77922 4.48031,-24.38955 8.71584,-52.66816 12.29595,-77.36115 1.54983,-10.68965 2.99643,-21.39401 4.49464,-32.09101 1.06992,-9.26572 2.29558,-18.51478 3.20974,-27.79716 2.38848,-24.25272 3.51373,-48.73144 1.96025,-73.07409 -4.41393,-52.849 -79.15371,-46.60677 -74.73978,6.24224 z"/>
<path d="m 141.17049,480.31997 c 17.63779,8.00095 35.2393,16.0907 52.85096,24.15256 3.30537,1.49519 6.61074,2.99039 9.91612,4.48558 48.32009,21.85563 79.22862,-46.4793 30.90853,-68.33493 v 0 c -3.20277,-1.44851 -6.40554,-2.89701 -9.60831,-4.34551 -19.2288,-8.80193 -38.38654,-17.78625 -57.78457,-26.20169 -49.67,-18.58469 -75.952729,51.6593 -26.28273,70.24399 z"/>
<path d="m 154.61991,705.34964 c 2.88772,-2.94397 6.12452,-6.26921 8.99232,-8.90948 10.47627,-9.64509 20.10671,-17.56206 31.31142,-26.70044 12.09126,-9.86144 36.50396,-29.25631 48.3342,-38.68416 36.58589,-28.24092 18.06014,-14.17832 55.58618,-42.17602 42.50159,-31.71931 -2.35629,-91.82564 -44.85788,-60.10633 v 0 c -38.80992,28.97249 -19.65608,14.42492 -57.47118,43.62996 -11.88701,9.47355 -37.49942,29.82066 -49.53747,39.66362 -17.74019,14.50534 -35.69906,29.09895 -50.87155,46.36679 -33.174666,41.37561 25.33929,88.29168 58.51396,46.91606 z"/>
<path d="m 407.47625,411.99962 c 34.16794,-4.24705 68.46523,-7.19896 102.7808,-9.94092 36.79672,-2.73118 73.67668,-4.69852 110.5853,-4.64847 20.29124,0.0275 24.98943,0.38276 44.63973,1.14496 5.87493,0.34337 11.74986,0.68674 17.62479,1.0301 52.94393,3.0724 57.28896,-71.80163 4.34502,-74.87403 v 0 c -6.36788,-0.36709 -12.73576,-0.73419 -19.10364,-1.10128 -21.27494,-0.80298 -26.39763,-1.18347 -48.30437,-1.1955 -38.63735,-0.0212 -77.2451,2.01302 -115.76528,4.88288 -34.98037,2.79943 -69.94393,5.80234 -104.77474,10.12718 -52.73254,5.63733 -44.76015,80.2124 7.97239,74.57508 z"/>
<path d="m 372.01749,496.97517 c 0.36222,2.8674 0.59111,4.59366 0.90739,7.89635 0.72249,7.54436 1.26314,15.10514 1.94691,22.6531 1.64644,18.17468 1.52077,16.13582 3.62246,35.13312 4.04029,31.1934 8.57464,62.41775 15.80192,93.05984 1.06737,4.52544 2.30888,9.00804 3.46332,13.51205 1.098,3.65958 2.19599,7.31916 3.29398,10.97874 15.38386,50.75271 87.15902,28.99665 71.77517,-21.75606 v 0 c -0.81738,-2.65938 -1.63475,-5.31877 -2.45213,-7.97816 -0.93954,-3.60341 -1.95667,-7.18748 -2.81862,-10.81023 -6.67801,-28.0675 -10.76685,-56.69635 -14.52057,-85.27237 -1.98296,-17.83736 -1.87877,-16.04075 -3.4392,-33.26819 -1.1752,-12.97437 -1.86113,-26.02884 -4.0434,-38.88846 -10.42295,-51.99868 -83.96018,-37.2584 -73.53723,14.74027 z"/>
<path d="m 448.25878,544.40036 c -1.57739,-1.02347 -0.9735,1.72217 -0.44801,1.5748 1.33456,-0.37427 2.56662,-1.04934 3.86956,-1.52207 2.59698,-0.94223 5.18979,-1.90271 7.82812,-2.72205 11.19243,-3.47587 13.40324,-3.69133 25.50925,-6.4102 30.03016,-5.7187 60.54727,-8.87882 91.08216,-10.16422 5.46739,-0.23015 10.9404,-0.29862 16.41059,-0.44793 16.67745,0.24944 33.80008,-0.87052 50.21166,2.84498 0.80755,0.41929 1.81934,0.36542 2.63785,0.77832 0.21506,0.10848 -0.47521,-0.0898 -0.70225,-0.17028 -2.33264,-0.82652 -5.07753,-2.06747 -6.90285,-3.5543 -2.79398,-2.27586 -5.1903,-5.00042 -7.78545,-7.50063 -11.79908,3.94962 -1.67562,-10.72083 -5.92381,-12.55732 -0.90647,-0.39187 -8e-4,1.97555 -0.0373,2.96243 -0.0823,2.22588 -0.12396,4.45574 -0.31914,6.67457 -0.85854,9.75965 -1.63354,12.74272 -3.42356,23.07227 -1.17087,5.29021 -2.25615,10.6001 -3.51261,15.87065 -2.37447,9.96037 -7.27972,28.38319 -9.86031,38.02066 -3.15188,11.77102 -7.19938,26.98138 -10.84738,38.67147 -1.93497,6.20064 -4.11074,12.32356 -6.16611,18.48534 -16.71196,50.33101 54.46683,73.96529 71.17879,23.63428 v 0 c 2.33611,-7.06394 4.79894,-14.08723 7.00834,-21.19182 3.78862,-12.18277 8.0308,-28.07985 11.32784,-40.40199 2.92595,-10.93523 8.04321,-30.15995 10.63077,-41.21097 1.51272,-6.46055 2.80332,-12.97111 4.20498,-19.45666 0.96881,-5.90941 2.10893,-11.79327 2.90641,-17.72823 1.22674,-9.1295 1.87196,-17.60287 1.83624,-26.75484 -0.0212,-5.4311 -0.49285,-14.27175 -2.22932,-19.36807 -1.49964,-4.40126 -3.97195,-8.40855 -5.95792,-12.61283 -3.07032,-3.1586 -5.86382,-6.61217 -9.21094,-9.47579 -6.17151,-5.28002 -16.05076,-7.75467 -23.81129,-9.66258 -22.31503,-4.37671 -44.67252,-4.77637 -67.3668,-4.33886 -6.17292,0.17903 -12.34909,0.26862 -18.51877,0.53708 -34.75701,1.51239 -69.48764,5.21262 -103.63119,11.94451 -24.77998,5.77708 -51.34317,11.52655 -71.50076,28.14654 -2.29525,1.89245 -4.21936,4.19467 -6.32904,6.292 -33.75851,40.90065 24.08374,88.64239 57.84225,47.74174 z"/>
<path d="m 463.3491,686.71644 c 25.23921,-4.17865 50.76919,-6.05858 76.2583,-7.93502 20.19894,-1.27847 40.44218,-2.02505 60.68213,-1.49503 5.03453,0.13184 10.06146,0.47175 15.09219,0.70763 52.97899,2.39299 56.36319,-72.53062 3.3842,-74.92361 v 0 c -5.95962,-0.26055 -11.91524,-0.63961 -17.87886,-0.78164 -22.28211,-0.53067 -44.5673,0.27013 -66.80284,1.6963 -27.54657,2.03999 -55.13,4.13142 -82.4067,8.64511 -52.3869,8.25305 -40.71532,82.33931 11.67158,74.08626 z"/>
<path d="m 403.62319,778.30311 c 5.10051,11.50709 9.28283,23.39901 14.10049,35.02455 1.88137,4.53997 3.88913,9.02654 5.8337,13.53981 8.43635,17.27456 4.15974,8.99109 12.76533,24.88358 25.3661,46.57318 91.23052,10.70009 65.86442,-35.87308 v 0 c -6.60965,-12.04373 -3.3344,-5.79501 -9.78546,-18.76724 -6.51347,-15.01281 -3.6814,-8.15537 -9.91272,-23.9112 -5.11978,-12.94529 -9.8329,-26.23101 -17.46864,-37.97069 -30.45811,-43.41432 -91.85523,-0.34005 -61.39712,43.07427 z"/>
<path d="m 575.82349,724.38996 c -5.97095,14.91221 -11.3008,30.07472 -17.61274,44.85165 -5.00931,11.72735 -11.48332,25.31153 -16.84607,36.78892 -3.18064,6.9733 -6.36127,13.9466 -9.5419,20.91991 -22.00482,48.25234 46.23429,79.37185 68.23911,31.11951 v 0 c 3.08657,-6.76947 6.17314,-13.53894 9.25971,-20.30842 6.55375,-14.04484 12.35132,-26.14931 18.41507,-40.39258 7.08352,-16.63863 13.21302,-33.67355 19.6585,-50.56257 15.8508,-50.60881 -55.72087,-73.02524 -71.57168,-22.41642 z"/>
<path d="m 306.07166,933.01258 c 19.71023,-4.63441 39.81581,-7.34163 59.82761,-10.29181 58.74599,-8.30771 118.04669,-11.45512 177.26386,-14.14944 45.20892,-1.79796 90.48542,-2.0232 135.6906,0.0127 25.54997,1.15069 32.00657,1.90095 56.87701,3.94377 16.94989,1.86083 26.73337,2.67955 43.21031,5.40059 5.95551,0.98352 11.85984,2.25521 17.78976,3.38281 52.12006,9.79792 65.97641,-63.91098 13.85635,-73.7089 v 0 c -7.0387,-1.31034 -14.04966,-2.77966 -21.11612,-3.93102 -18.26147,-2.9754 -28.91981,-3.86157 -47.63092,-5.89424 -26.56071,-2.16063 -33.26041,-2.93965 -60.51375,-4.15223 -47.16754,-2.09864 -94.40891,-1.85631 -141.5791,0.0244 -61.73758,2.82035 -123.55699,6.16141 -184.79664,14.87506 -22.15651,3.27245 -44.40176,6.33696 -66.21362,11.51912 -51.59704,12.25744 -34.2624,85.22668 17.33465,72.96924 z"/>
</svg>
