<?xml version="1.0" ?>
<svg xmlns="http://www.w3.org/2000/svg" viewBox="0 0 1000 1000">
<path d="m 444.97899,114.17808 c 8.10834,5.25682 16.39598,10.24175 24.33178,15.7656 7.70756,5.36497 12.83585,9.46141 20.37546,15.25756 4.30337,3.30119 8.60674,6.60239 12.91011,9.90359 42.07815,32.27893 87.72746,-27.22856 45.64931,-59.507491 v 0 c -4.30504,-3.302475 -8.61008,-6.60495 -12.91512,-9.907425 -18.81414,-14.401364 -38.05591,-28.413869 -58.98008,-39.635488 -48.17069,-22.18297 -79.54215,45.94068 -31.37146,68.123654 z"/>
<path d="m 252.51886,260.82868 c 20.67104,-1.73244 41.13766,-5.30387 61.68939,-8.03256 8.31566,-1.10409 16.64375,-2.11251 24.96563,-3.16877 72.18552,-8.64578 144.72538,-13.75186 217.29005,-17.85934 67.18607,-4.0629 134.48356,-1.97794 201.63732,1.39987 30.88028,1.86063 15.68558,0.92837 45.58432,2.79365 52.93012,3.30192 57.59973,-71.55257 4.66961,-74.85449 v 0 c -30.31126,-1.89077 -14.81376,-0.94095 -46.4928,-2.84479 -31.12646,-1.56025 -62.25633,-3.01546 -93.42305,-3.50323 -27.30166,-0.42728 -49.27516,-0.31537 -76.65327,0.50124 -13.19357,0.39352 -26.37655,1.08524 -39.56483,1.62785 -74.30548,4.21421 -148.58522,9.4566 -222.4998,18.33728 -8.63445,1.09798 -17.27517,2.1478 -25.90337,3.29392 -18.75456,2.49127 -37.43351,5.71597 -56.27697,7.47474 -52.91608,3.51982 -47.93831,78.35445 4.97777,74.83463 z"/>
<path d="m 252.40445,257.15677 c 0.13967,22.59477 -0.0559,45.17764 -0.64087,67.76496 -0.59128,8.6415 -0.94079,17.30295 -1.77383,25.9245 -2.06797,21.40239 -5.58925,43.99839 -9.06148,65.13291 -5.09027,30.98303 -8.6853,50.72154 -15.29661,81.7305 -3.18275,14.92804 -6.70811,29.78098 -10.06216,44.67147 -17.57701,74.53151 -38.54546,148.45216 -65.66575,220.12085 -4.66056,12.31611 -9.78111,24.45322 -14.67166,36.67983 -10.97007,23.84526 -17.23441,38.7619 -29.90098,61.43897 -4.6749,8.36952 -9.488661,16.68935 -14.942741,24.5733 -4.641349,6.70914 -10.187947,12.74458 -15.28192,19.11686 -32.655721,41.78641 26.439181,87.96857 59.094901,46.18217 v 0 c 6.79517,-8.84112 14.1103,-17.3059 20.38551,-26.52335 6.34763,-9.32381 11.94795,-19.14669 17.42099,-29.00932 14.04052,-25.30154 20.71444,-41.35485 32.87693,-67.96671 5.20599,-13.05935 10.65268,-26.02531 15.61796,-39.17807 28.14936,-74.56602 49.9793,-151.4412 68.2374,-228.97072 3.47744,-15.47092 7.13463,-30.90252 10.43231,-46.41274 6.73362,-31.6708 10.71004,-53.38054 15.88044,-85.0276 3.9486,-24.16863 7.481,-47.18003 9.76823,-71.53183 0.90711,-9.65793 1.27871,-19.35869 1.91806,-29.03803 0.58434,-23.22522 0.81795,-46.44536 0.66527,-69.67795 0,-53.03301 -75,-53.03301 -75,0 z"/>
<path d="m 119.24402,443.69314 c 15.88201,8.70995 30.74193,19.0787 45.60775,29.38381 16.52011,11.78266 8.48613,6.00843 24.10806,17.3142 42.96444,31.0895 86.93163,-29.67139 43.96719,-60.76089 v 0 c -16.32691,-11.81273 -7.87334,-5.73981 -25.3691,-18.20706 -18.98837,-13.14352 -38.01878,-26.53255 -58.82583,-36.68985 -48.761936,-20.85122 -78.250012,48.10857 -29.48807,68.95979 z"/>
<path d="m 110.96007,682.60727 c 19.87164,-10.70336 39.38141,-22.05654 58.59749,-33.89476 8.30204,-5.11453 16.50455,-10.38915 24.79124,-15.5285 9.00465,-5.58462 18.05488,-11.0954 27.08232,-16.6431 28.09265,-16.99617 56.7439,-33.03051 85.4123,-49.02479 46.31098,-25.8417 9.76529,-91.33531 -36.54569,-65.4936 v 0 c -29.58541,16.51159 -59.15237,33.06604 -88.13747,50.6216 -9.21138,5.66185 -18.44591,11.28622 -27.63414,16.98555 -25.40269,15.75693 -50.64559,31.79668 -77.047093,45.86561 -47.455344,23.67467 -13.974297,90.78667 33.481043,67.11199 z"/>
<path d="m 463.88359,297.76825 c -15.84457,20.86291 -32.82067,40.83596 -49.73484,60.83514 -21.59862,25.97128 -44.12394,51.1488 -65.86118,77.00218 -11.42414,13.5874 -13.51248,16.26448 -24.15936,29.37822 -1.45137,1.83099 -12.5574,15.77813 -14.77724,18.78611 -1.81486,2.4592 -3.95328,4.75439 -5.22965,7.53149 -2.69071,5.85433 -8.19737,11.93524 -6.58442,18.17316 3.88348,15.01895 10.73529,30.29421 21.90127,41.0632 6.20665,5.98597 16.96984,3.07276 25.45476,4.60914 5.32888,-0.63424 10.67631,-1.12842 15.98666,-1.90273 5.20842,-0.75946 10.3747,-1.7843 15.55847,-2.69696 13.8377,-2.43627 23.2934,-4.27326 37.33626,-6.39684 18.76841,-2.83817 23.06085,-3.12602 42.03941,-5.24006 27.97269,-2.44459 56.29686,-4.60908 84.32974,-1.66271 2.78117,0.29231 5.54081,0.76213 8.31121,1.1432 52.58353,6.89006 62.32755,-67.47427 9.74402,-74.36433 v 0 c -12.04028,-1.52464 -14.63879,-2.07203 -27.43174,-2.67245 -27.79119,-1.30434 -55.64325,0.33448 -83.30178,3.02239 -7.75879,0.87346 -15.52963,1.64578 -23.27636,2.62038 -26.77801,3.36891 -53.32386,8.26633 -79.85607,13.1522 21.09543,8.78157 19.0353,4.80693 27.05989,42.37659 0.85476,4.00182 -3.83806,7.24865 -5.32746,11.06006 -0.54465,1.39377 1.58114,-2.54482 2.47027,-3.74843 2.10682,-2.85199 12.42514,-15.82069 13.82561,-17.58888 28.95903,-35.69043 59.38989,-70.11809 89.05555,-105.21568 19.3092,-22.83537 38.92731,-45.52337 56.30214,-69.89342 27.83948,-45.13827 -35.99568,-84.50924 -63.83516,-39.37097 z"/>
<path d="m 444.69411,446.62903 c -3.09471,30.93147 -5.32372,61.94775 -7.70062,92.94122 -3.53067,48.85821 -7.66813,97.67203 -10.67351,146.56756 -2.21247,35.99546 -2.63174,47.46861 -4.34284,83.49227 -0.92073,20.7735 -2.36745,56.30176 -3.78674,77.43909 -0.75728,11.27804 -1.8421,22.53169 -2.76315,33.79753 -4.29941,52.85844 70.45372,58.93872 74.75313,6.08028 v 0 c 0.96722,-11.94918 2.10043,-23.88609 2.90165,-35.84755 1.43102,-21.36367 2.87456,-56.78642 3.81077,-77.91362 1.676,-35.3391 2.09484,-46.77338 4.26183,-82.07053 2.98635,-48.64332 7.1104,-97.20462 10.61933,-145.81084 2.29827,-29.976 4.46926,-59.97161 7.40417,-89.89298 6.21012,-52.66815 -68.2739,-61.45058 -74.48402,-8.78243 z"/>
<path d="m 417.86175,534.32524 c -0.081,-0.39543 -0.0173,-1.52094 -0.24294,-1.18628 -1.01385,1.50353 -1.48182,3.3113 -2.28599,4.93665 -3.91658,7.91606 -10.31881,20.23871 -14.55195,27.12797 -10.8651,17.68248 -16.28304,23.67567 -29.4739,40.79954 -36.67167,46.52245 -75.91084,90.98935 -117.53301,133.14232 -7.53632,7.63244 -15.28439,15.05286 -22.92658,22.57928 -7.10979,6.27689 -14.21958,12.55377 -21.32937,18.83065 -39.69116,35.17261 10.05042,91.30438 49.74158,56.13177 v 0 c 8.07885,-7.18265 16.15771,-14.36529 24.23656,-21.54794 8.10982,-7.99977 16.32905,-15.89012 24.32944,-23.99932 43.58756,-44.18041 84.65916,-90.80412 123.04936,-139.56642 6.6683,-8.76745 13.63035,-17.31905 20.00491,-26.30234 11.16959,-15.74065 17.36012,-26.30176 26.03109,-42.84606 4.39654,-8.38867 9.82792,-19.28395 12.78176,-28.54114 1.20294,-3.76996 1.82689,-7.70071 2.74034,-11.55107 5.66224,-52.72987 -68.90906,-60.73748 -74.5713,-8.00761 z"/>
<path d="m 460.33074,633.41917 c 15.08502,10.87849 29.25598,22.94699 43.3506,35.05961 13.95809,12.21471 26.90789,25.50999 40.02712,38.60422 37.53588,37.46409 90.5181,-15.61965 52.98223,-53.08374 v 0 c -14.4446,-14.41688 -28.73532,-29.02115 -44.14826,-42.42034 -16.73725,-14.36253 -33.56673,-28.72103 -51.71904,-41.28935 -44.63937,-28.63262 -85.13201,34.49698 -40.49265,63.1296 z"/>
<path d="m 588.69882,475.77071 c 0.93219,4.7916 1.19849,5.76717 1.81267,11.43217 2.41301,22.25668 2.50891,44.77957 3.06245,67.13266 0.61718,31.52185 0.67649,63.0519 0.79822,94.57877 0.20483,53.03261 75.20427,52.74294 74.99944,-0.28967 v 0 c -0.12384,-32.05231 -0.18556,-64.10786 -0.82088,-96.15496 -0.38821,-15.52628 -0.60322,-27.68228 -1.33207,-43.14064 -0.79638,-16.89066 -1.82213,-33.89666 -5.44874,-50.45851 -11.95023,-51.66906 -85.02132,-34.76889 -73.07109,16.90018 z"/>
<path d="m 739.52002,335.00512 c 4.39162,23.4556 5.96275,47.35486 8.09602,71.09196 3.78528,43.01227 6.55999,86.13031 7.40883,129.30833 0.59374,30.20149 0.22207,44.19197 -0.0883,74.47002 -0.91726,46.28925 -2.0306,92.64726 -6.75504,138.7374 -2.6535,25.88663 -3.65967,29.89791 -7.70055,54.82947 -3.58738,19.44648 -8.0252,38.74854 -13.55063,57.73898 -1.7586,6.04419 -4.6235,15.61027 -7.56551,21.64896 -0.7026,1.44212 -1.79948,2.65618 -2.69922,3.98427 -4.45773,-0.24128 3.75039,-5.0405 3.5798,-6.11456 -0.17601,-1.10821 -2.07473,-0.86772 -3.15182,-1.18236 -2.86133,-0.83584 -5.80767,-1.37037 -8.65103,-2.26546 -4.45058,-1.40105 -8.80939,-3.07847 -13.21409,-4.61771 -20.63516,-8.3672 -41.24698,-16.76777 -61.96178,-24.93736 -49.33817,-19.44853 -76.84254,50.32618 -27.50437,69.77471 v 0 c 22.0315,8.68004 43.89757,17.74602 65.94721,26.37964 7.14232,2.27409 14.16195,4.97733 21.42696,6.82228 12.35172,3.13671 28.02819,5.62273 40.83673,3.7592 15.79372,-2.29784 25.80096,-6.9877 37.43968,-17.637 4.11275,-3.76313 7.0049,-8.6738 10.50735,-13.0107 2.43689,-4.56118 5.15606,-8.98242 7.31066,-13.68354 3.76119,-8.2065 7.60893,-20.70957 10.07121,-29.23978 6.21969,-21.54721 11.21204,-43.44296 15.22629,-65.5042 4.40799,-27.57214 5.49632,-31.9404 8.38321,-60.3878 4.8665,-47.95464 6.09172,-96.17895 7.02113,-144.33835 0.31562,-31.82074 0.69393,-45.81597 0.054,-77.61541 -0.89794,-44.62298 -3.76032,-89.18459 -7.67225,-133.63697 -2.55681,-28.41045 -4.25401,-57.1557 -10.69242,-85.02068 -14.5994,-50.9839 -86.70151,-30.33724 -72.10212,20.64666 z"/>
</svg>
