<?xml version="1.0" ?>
<svg xmlns="http://www.w3.org/2000/svg" width="1000" height="1000">
<path d="m 435.43516,95.656301 c 18.33144,13.833369 36.1623,28.299669 53.68634,43.139439 4.25135,3.60561 8.5027,7.21121 12.75405,10.81682 40.44569,34.30227 88.95643,-22.89659 48.51073,-57.198856 v 0 c -4.27178,-3.622911 -8.54355,-7.245821 -12.81533,-10.868732 -18.67655,-15.795712 -37.66927,-31.206344 -57.20021,-45.936929 -42.46053,-31.7742562 -87.39611,28.274002 -44.93558,60.048258 z"/>
<path d="m 220.1248,266.52119 c 29.76031,-8.8617 60.6018,-13.26434 91.23355,-17.87804 63.26294,-8.94482 126.89795,-15.41742 190.73839,-18.2742 14.26055,-0.63814 28.53394,-0.94687 42.8009,-1.4203 52.24223,-0.94438 104.56221,0.0303 156.69452,3.6871 25.11784,1.76189 31.61216,2.68887 55.45449,5.30687 52.71893,5.76319 60.86931,-68.79264 8.15038,-74.55583 v 0 c -25.59516,-2.7865 -32.3834,-3.75439 -59.28217,-5.62637 -54.40561,-3.78626 -109.00427,-4.79133 -163.52233,-3.76993 -14.84672,0.49955 -29.70021,0.82722 -44.54015,1.49865 -66.16931,2.99386 -132.12756,9.70194 -197.69719,18.99547 -33.26802,5.03987 -66.73788,9.92999 -99.07752,19.4955 -51.29428,13.46835 -32.24716,86.00942 19.04713,72.54108 z"/>
<path d="m 235.06602,269.94564 c 2.21021,33.98765 -2.96435,67.95082 -7.24718,101.5707 -9.6765,67.71217 -27.12182,134.03724 -46.40977,199.56691 -4.54429,15.43896 -9.34767,30.80048 -14.02151,46.20073 -19.49529,61.27894 -41.11235,122.05089 -68.30636,180.38894 -15.573458,33.40902 -22.826382,45.75195 -40.093146,77.72296 -6.656208,11.177 -13.312416,22.354 -19.968625,33.53099 -27.097193,45.58774 37.373608,83.90896 64.470801,38.32122 v 0 c 7.17003,-12.08397 14.34006,-24.16795 21.5101,-36.25192 18.53655,-34.4182 26.00541,-47.11483 42.74098,-83.14398 28.37451,-61.08598 51.05294,-124.65451 71.41637,-188.79555 4.79471,-15.81133 9.72368,-31.58256 14.38413,-47.43398 20.33336,-69.15894 38.58174,-139.18383 48.67913,-210.65499 4.88228,-38.53682 10.43237,-77.43787 7.65363,-116.37743 -3.78684,-52.89764 -78.59539,-47.54223 -74.80855,5.3554 z"/>
<path d="m 98.504965,433.48938 c 17.597775,8.76054 33.995995,19.68116 50.288845,30.61556 44.06433,29.50992 85.79764,-32.80646 41.73331,-62.31637 v 0 c -20.37379,-13.61886 -40.92583,-27.24755 -63.23089,-37.5528 -48.969701,-20.3585 -77.760965,48.89511 -28.791265,69.25361 z"/>
<path d="m 106.20352,663.35881 c 25.88981,-14.16399 51.11473,-29.49032 76.86831,-43.89524 8.87166,-4.96225 17.80751,-9.80888 26.71126,-14.71333 37.1843,-20.49615 18.64019,-10.06912 55.63005,-31.28516 45.99863,-26.39366 8.67234,-91.44555 -37.32629,-65.05189 v 0 c -35.8626,20.58625 -17.69975,10.36521 -54.49705,30.64805 -9.20298,5.07199 -18.43897,10.08457 -27.60896,15.21599 -25.66759,14.36328 -50.816231,29.63012 -76.619057,43.75404 -46.193541,26.05104 -9.351805,91.37858 36.841737,65.32754 z"/>
<path d="m 391.72248,230.77222 c -0.5853,1.59699 -1.23466,3.17194 -1.75592,4.79096 -1.07333,3.33372 -3.67217,12.84313 -4.76879,16.03844 -4.52321,13.17972 -10.70014,25.83202 -16.40078,38.51737 -16.38558,34.81989 -35.94564,68.06843 -56.12761,100.80016 -5.16971,8.34574 -10.69005,16.45771 -16.38348,24.4507 -0.32965,0.46279 -5.16782,7.18232 -5.66159,8.14418 -1.84293,3.59 -3.36702,7.33494 -5.05054,11.00241 14.46483,15.97212 26.39211,34.67781 43.39449,47.91634 3.5437,2.75922 8.59701,-2.61697 12.81983,-4.14629 2.61175,-0.94587 5.09447,-2.21685 7.66399,-3.27208 3.04719,-1.25138 6.09872,-2.49495 9.18476,-3.64719 11.22329,-4.19049 13.97833,-4.86554 25.96765,-8.63266 29.45245,-8.43249 59.7064,-13.92884 90.13248,-17.37476 5.83475,-0.66082 11.68949,-1.13125 17.53423,-1.69687 21.12596,-1.77817 42.39463,-1.94551 63.42267,0.88812 52.58519,6.87735 62.31122,-67.48934 9.72603,-74.36668 v 0 c -7.12102,-0.91217 -10.04329,-1.37221 -17.60361,-1.91793 -20.92614,-1.51051 -41.95165,-0.95017 -62.84797,0.75289 -6.62578,0.65445 -13.26291,1.20278 -19.87735,1.96336 -34.81993,4.00385 -69.42112,10.43475 -103.08924,20.23883 -14.72291,4.67653 -17.28316,5.26071 -31.12629,10.47286 -3.66515,1.37998 -7.28711,2.87273 -10.91016,4.3597 -2.20831,0.90633 -4.79654,1.23611 -6.5827,2.81968 -1.0105,0.89588 2.67652,-0.36202 4.01478,-0.54304 13.2621,16.15992 26.5242,32.31983 39.78631,48.47975 -1.41983,2.8205 -2.94969,5.58826 -4.25949,8.46151 -0.32474,0.71237 0.84789,-1.31676 1.29534,-1.95919 1.05729,-1.518 2.14789,-3.01253 3.21832,-4.52128 6.62169,-9.33317 13.06083,-18.79205 19.08296,-28.52779 21.87073,-35.51485 43.03486,-71.60327 60.69665,-109.42598 8.94644,-19.94378 18.42729,-39.85471 23.71268,-61.16392 20.43651,-48.9372 -48.77113,-77.83879 -69.20765,-28.9016 z"/>
<path d="m 243.73422,675.16833 c 23.4508,-8.83292 47.89881,-14.63117 72.13592,-20.82871 33.51522,-8.03126 67.41397,-14.67115 101.65283,-18.74212 21.68739,-2.57862 27.72452,-2.71509 49.21796,-4.15874 23.92414,-0.85848 48.02814,-1.61495 71.88154,1.01987 7.26625,0.80263 9.64683,1.42302 16.31842,2.78832 52.04048,10.21216 66.48265,-63.3842 14.44217,-73.59636 v 0 c -10.51835,-2.00858 -13.42473,-2.76725 -24.70364,-3.94698 -27.56815,-2.88353 -55.38996,-2.21603 -83.0305,-1.0918 -23.72062,1.63317 -30.4151,1.7963 -54.34141,4.68465 -37.05631,4.47337 -73.75323,11.64525 -110.02552,20.38312 -27.36506,7.00375 -54.94003,13.66152 -81.3482,23.83147 -49.25513,19.65787 -21.4547,89.31515 27.80043,69.65728 z"/>
<path d="m 417.88119,451.48677 c -0.38798,20.40815 0.93766,40.91797 -1.00114,61.27993 -0.675,7.08903 -1.92648,14.11129 -2.88972,21.16693 -9.14497,50.84231 -25.64011,100.1903 -47.26445,147.05809 -4.88606,10.58986 -10.27736,20.93922 -15.41604,31.40882 -15.16436,28.71833 -31.45126,56.91306 -50.26336,83.42214 -5.0716,7.14664 -10.43685,14.08383 -15.87106,20.95878 -10.96101,13.86705 -14.75642,17.69457 -26.00488,30.12726 -11.41875,11.39446 -6.00692,6.3307 -16.08868,15.34665 -39.33112,35.57476 10.97919,91.19735 50.3103,55.62259 v 0 c 13.81746,-12.59735 6.61147,-5.72445 21.48745,-20.75471 12.94739,-14.40982 17.66908,-19.23156 30.19225,-35.20403 6.2877,-8.01955 12.47725,-16.12402 18.35035,-24.45199 20.65939,-29.29474 38.61796,-60.38943 55.25714,-92.10688 5.6475,-11.57723 11.57849,-23.02042 16.94249,-34.7317 24.37299,-53.21389 42.80055,-109.26418 52.73858,-166.99502 1.14549,-9.11205 2.61385,-18.18929 3.43647,-27.33614 1.93776,-21.54637 0.75451,-43.22055 1.0843,-64.81072 0,-53.03301 -75,-53.03301 -75,0 z"/>
<path d="m 420.0595,676.59411 c 16.15267,18.94783 31.39229,38.6333 46.11203,58.70828 16.38433,23.38728 29.68438,48.74589 42.34594,74.28719 3.2167,6.99854 1.90313,3.86928 4.07318,9.33106 20.07824,49.08527 89.4953,20.69034 69.41705,-28.39493 v 0 c -3.80679,-9.16731 -1.72127,-4.39822 -6.31152,-14.28312 -14.60791,-29.39338 -30.04285,-58.51425 -49.07269,-85.3312 -14.9073,-20.27398 -30.14905,-40.33404 -46.61249,-59.38187 -31.86548,-42.39212 -91.81698,2.67247 -59.9515,45.06459 z"/>
<path d="m 598.9935,485.62715 c -0.15451,29.06021 1.74816,58.07271 3.64943,87.0539 4.08367,51.48431 8.89272,102.91147 13.99643,154.30414 0.62773,6.03989 1.25546,12.07978 1.8832,18.11967 5.4834,52.74876 80.08142,44.99406 74.59802,-7.75471 v 0 c -0.61615,-5.9259 -1.2323,-11.8518 -1.84845,-17.7777 -5.0228,-50.56266 -9.74965,-101.15955 -13.79069,-151.81058 -1.8009,-27.3432 -3.63099,-54.7161 -3.48794,-82.13472 0,-53.03301 -75,-53.03301 -75,0 z"/>
<path d="m 663.88382,540.62243 c 23.28025,-6.14973 47.1981,-9.35716 71.05897,-12.24941 29.79053,-3.46132 59.80013,-4.22671 89.72332,-2.49311 6.42564,0.47942 12.82658,1.24287 19.15839,2.43886 2.1982,0.41521 4.50068,0.81614 6.64266,1.49163 -5.30549,-1.22574 -11.26205,-5.34673 -14.4967,-9.05711 -3.15474,-3.61872 -5.0022,-8.19728 -7.3791,-12.36835 -0.37004,-0.64938 -0.62674,-2.78735 -0.85114,-2.07442 -0.52565,1.6701 -0.099,3.50035 -0.14852,5.25052 -1.58235,39.03203 -9.50102,77.4167 -17.48753,115.53736 -5.22578,23.33027 -11.42315,46.45087 -19.30695,69.0323 -2.08,5.95773 -4.4432,11.81277 -6.6648,17.71916 -18.57522,49.67354 51.67377,75.94288 70.249,26.26934 v 0 c 2.58428,-6.94541 5.3311,-13.83249 7.75284,-20.83623 8.69563,-25.14802 15.59759,-50.86841 21.38165,-76.8315 8.99349,-43.07448 17.73705,-86.48707 19.07527,-130.61132 -0.0462,-6.13417 0.35565,-17.6159 -1.72835,-23.50106 -2.15896,-6.09682 -4.82848,-12.17556 -8.75184,-17.3175 -5.60534,-7.34631 -13.8792,-11.06488 -22.27529,-13.6671 -13.40789,-3.45896 -27.15455,-5.40263 -40.96344,-6.35654 -12.52077,-0.68521 -15.26581,-0.97353 -28.28109,-1.07052 -24.96629,-0.18606 -49.92761,1.23717 -74.73853,3.9985 -27.3531,3.36153 -54.75307,7.1367 -81.42604,14.26435 -51.21727,13.75833 -31.76004,86.19048 19.45722,72.43215 z"/>
<path d="m 668.60591,742.5295 c 2.02673,-0.17002 4.05723,-0.29991 6.08019,-0.51006 12.274,-1.27506 24.47568,-3.15667 36.74093,-4.51569 16.32307,-1.80862 18.61501,-1.86661 35.41368,-3.23339 18.79532,-1.46202 37.63855,-1.02342 56.45771,-0.58588 53.01981,1.18308 54.69294,-73.79825 1.67313,-74.98134 v 0 c -21.41687,-0.46009 -42.85976,-0.88469 -64.24492,0.81685 -18.35927,1.50897 -20.48378,1.5453 -38.29534,3.52521 -12.94892,1.43938 -14.99279,1.85682 -26.93101,3.37216 -6.8796,0.87323 -5.6702,0.72884 -10.82745,1.21533 -52.96004,2.78112 -49.02695,77.67792 3.93308,74.89681 z"/>
</svg>
