<?xml version="1.0" ?>
<svg xmlns="http://www.w3.org/2000/svg" viewBox="0 0 1000 1000">
<path d="m 278.16727,136.184 c 19.09128,-0.5663 37.88885,-4.72372 56.63945,-8.05077 27.31256,-4.73695 54.71738,-8.93871 82.15605,-12.87476 6.83325,-0.88732 13.65857,-1.88836 20.5194,-2.55162 0.96506,-0.0933 1.93246,-0.16677 2.901,-0.21089 0.25037,-0.0114 1.00024,0.0226 0.75057,0.0446 -0.59581,0.0524 -1.1958,0.0315 -1.7937,0.0472 -10.37794,-2.11634 -13.76762,-1.61667 -22.79273,-10.81421 -3.46181,-3.527952 -5.47416,-8.263667 -7.65679,-12.698384 -1.5706,-3.191166 -1.19256,-6.254884 -1.73158,-9.548959 -4.8161,15.120147 -10.98649,29.764603 -16.85389,44.495413 -14.64325,35.94323 -32.02683,70.73043 -51.08472,104.52575 -5.08005,9.00843 -10.37455,17.89424 -15.56182,26.84136 -17.11213,28.59076 -35.39611,56.46527 -54.43597,83.80526 -13.67025,19.62958 -25.60492,36.21391 -40.41391,54.99453 -6.88131,8.72681 -14.08534,17.19423 -21.12801,25.79135 -26.4923,30.85736 -55.26604,59.9685 -87.44238,84.94313 -16.34363,12.68559 -22.72762,16.33729 -39.606544,27.25791 -5.323988,3.1278 -10.647977,6.2556 -15.971965,9.38341 -45.674069,26.95142 -7.558996,91.54431 38.115069,64.59288 v 0 c 6.25008,-3.70184 12.50017,-7.40368 18.75025,-11.10552 20.1431,-13.16066 27.01847,-17.08043 46.54578,-32.36154 35.88938,-28.08526 68.08862,-60.63502 97.66385,-95.22632 7.61,-9.31728 15.39165,-18.49696 22.82999,-27.95185 15.50438,-19.70766 28.32863,-37.51752 42.63607,-58.08408 20.06994,-28.84999 39.33322,-58.26943 57.35567,-88.44578 5.49246,-9.48942 11.09985,-18.91324 16.47738,-28.46826 20.51404,-36.45024 39.18739,-73.98265 54.94783,-112.74019 1.47358,-3.69978 8.98172,-22.5073 10.67506,-26.91573 3.41491,-8.8903 6.8078,-17.91358 9.14957,-27.162455 0.60715,-2.397959 1.03632,-4.8375 1.55448,-7.25625 0.86023,-7.239232 1.92623,-17.085327 -0.96534,-23.992659 -2.24424,-5.360995 -4.5476,-10.948513 -8.46239,-15.244008 -9.85395,-10.812229 -14.6543,-10.461574 -26.76,-13.387629 -1.89488,-0.08544 -3.78789,-0.241255 -5.68463,-0.256322 -11.13342,-0.08844 -22.15507,2.341533 -33.18093,3.460666 -28.25615,4.057626 -56.47834,8.38172 -84.60399,13.267502 -14.44237,2.562675 -28.90495,5.710945 -43.53618,6.897268 -53.03301,0 -53.03301,74.999997 0,74.999997 z"/>
<path d="m 184.70762,249.21684 c 12.06135,8.96143 23.155,19.21341 34.57332,28.97376 17.43356,13.67612 33.55212,29.06429 51.49823,42.09427 5.34868,3.88346 10.93327,7.43116 16.3999,11.14675 43.99633,29.6112 85.87289,-32.60899 41.87657,-62.2202 v 0 c -4.06087,-2.69679 -8.22554,-5.24345 -12.18261,-8.09036 -8.49304,-6.11032 -16.41302,-13.0576 -24.44302,-19.7381 -4.22022,-3.51098 -8.4577,-7.00118 -12.68733,-10.50082 -3.91071,-3.23576 -7.82246,-6.47025 -11.73369,-9.70537 -6.96409,-5.95109 -13.85907,-11.98278 -20.82861,-17.92748 -9.09894,-7.761 -18.31986,-15.59772 -28.99185,-21.14451 -47.45539,-23.67458 -80.9363,43.43748 -33.48091,67.11206 z"/>
<path d="m 650.99587,58.092302 c -16.01717,17.583282 -34.21246,32.952504 -52.27006,48.361308 -14.57576,12.40142 -29.95555,23.78827 -45.33258,35.15936 -42.62787,31.54941 1.98973,91.83431 44.6176,60.28491 v 0 c 16.76551,-12.41807 33.5227,-24.8674 49.41485,-38.40636 19.52015,-16.67579 39.1784,-33.33398 56.54385,-52.30693 37.54192,-37.458031 -15.43174,-90.550322 -52.97366,-53.092288 z"/>
<path d="m 487.94064,173.53875 c 0.96079,2.34297 1.7389,4.76947 2.88239,7.02892 3.34754,6.61449 6.92145,11.64748 11.36886,17.56597 8.82118,11.739 18.67351,22.5763 28.47867,33.48559 19.80347,21.60942 40.56416,42.31154 60.69553,63.61031 15.93049,16.8543 17.20579,18.49828 32.69057,35.74957 28.04786,31.90159 54.9969,64.75595 81.7843,97.71762 15.16977,18.94508 30.39219,37.85022 46.44868,56.05451 8.62236,9.14284 16.45971,18.93823 24.01396,28.96456 8.93645,11.95783 19.11661,23.00204 30.14606,33.0604 2.99907,2.73502 6.11441,5.33976 9.17162,8.00964 20.22929,16.91255 42.58656,31.11309 65.69807,43.7378 6.13269,3.35 12.37526,6.49481 18.56289,9.74221 46.98664,24.59179 81.76467,-41.85735 34.77804,-66.44914 v 0 c -5.4069,-2.82092 -10.86145,-5.55233 -16.2207,-8.46276 -18.82083,-10.22096 -37.13377,-21.58631 -53.68144,-35.22999 -10.41162,-8.93959 -20.48711,-18.39729 -28.56849,-29.55969 -8.72285,-11.56242 -17.7736,-22.86595 -27.67719,-33.45167 -15.40021,-17.42314 -29.91237,-35.59388 -44.47102,-53.72024 -27.5681,-33.91411 -55.29888,-67.7206 -84.1843,-100.52619 -16.41953,-18.27395 -17.54049,-19.75479 -34.36254,-37.55102 -19.58978,-20.72423 -39.78143,-40.87726 -59.08287,-61.87481 -8.09857,-8.9802 -16.14608,-17.90435 -23.58279,-27.44453 -1.09724,-1.40759 -2.08034,-2.90471 -3.22571,-4.27342 -0.11211,-0.13396 -0.48352,-0.34689 -0.49483,-0.17257 -0.035,0.54012 0.26932,1.04849 0.40398,1.57273 -15.85064,-50.60886 -87.42238,-28.19267 -71.57174,22.4162 z"/>
<path d="m 743.38052,190.61127 c -1.19353,2.38549 0.39351,-0.69166 -2.15801,3.52703 -6.48813,10.72746 -4.36173,8.04536 -12.53717,20.21736 -9.88366,14.71527 -12.12224,17.20629 -23.38208,32.10662 -16.73777,21.60476 -34.96777,41.96129 -53.16137,62.32829 -35.3161,39.56353 20.63518,89.50804 55.95128,49.94451 v 0 c 19.5594,-21.92671 39.15216,-43.84794 57.10682,-67.13544 4.9539,-6.58983 10.02746,-13.09138 14.8617,-19.76949 7.27559,-10.05064 14.55515,-20.95649 21.04113,-31.58438 4.61602,-7.56379 8.74233,-14.8766 12.26663,-23.01078 0.95986,-2.21538 1.57143,-4.5659 2.35715,-6.84885 13.98294,-51.1564 -58.36314,-70.93127 -72.34608,-19.77487 z"/>
<path d="m 409.74867,424.73175 c 21.8624,-2.53549 43.84411,-3.98415 65.79612,-5.51023 29.36824,-2.18776 58.81446,-2.4813 88.19981,-0.6558 7.67934,0.60089 15.41157,1.09103 22.85418,3.18411 51.45916,12.82399 69.59502,-59.95026 18.13586,-72.77425 v 0 c -2.36808,-0.56408 -4.7187,-1.20727 -7.10423,-1.69225 -9.66943,-1.96581 -19.50168,-2.86505 -29.3297,-3.57909 -12.65795,-0.75686 -15.44685,-1.04606 -28.54549,-1.29099 -23.15442,-0.43298 -46.31434,0.48125 -69.41647,1.98917 -23.87742,1.66288 -47.79428,3.21832 -71.55726,6.13553 -52.46295,7.75496 -41.49577,81.94877 10.96718,74.1938 z"/>
<path d="m 321.01161,494.96078 c -0.47432,19.86687 0.51687,39.72639 1.84657,59.5408 2.02858,25.58821 7.4339,50.71898 14.71269,75.29175 3.68063,12.42557 6.5601,20.45461 10.70765,32.57713 5.71334,15.96116 11.43803,31.91287 16.8861,47.96648 17.04356,50.21968 88.06492,26.11645 71.02136,-24.10324 v 0 c -5.47288,-16.12551 -11.20634,-32.15499 -16.95979,-48.18252 -9.9003,-28.8224 -19.2652,-58.0522 -21.54166,-88.6503 -1.25715,-18.11477 -2.11558,-36.27574 -1.67292,-54.4401 0,-53.03301 -75,-53.03301 -75,0 z"/>
<path d="m 401.23008,559.10148 c 16.03977,-4.01439 32.37887,-6.51076 48.71975,-8.91468 33.85248,-4.89859 67.99446,-7.25731 102.15331,-8.5416 25.21288,-0.84886 50.47635,-0.14524 75.52295,2.90982 7.7407,0.96003 15.35167,2.67077 22.97389,4.28063 -10.70807,-2.70515 -17.43831,-9.61306 -23.1578,-19.49654 -1.84533,-3.18879 -2.61815,-8.64631 -3.268,-12.91511 -2.60778,15.35641 -4.16585,30.92147 -7.96232,46.05863 -1.06458,4.24463 -2.39646,8.4177 -3.59469,12.62655 -6.65522,18.79988 -13.00331,37.94767 -22.41025,55.61153 -4.7436,8.90729 -7.63947,12.56937 -13.33686,20.76417 -2.24565,2.939 -4.49129,5.87799 -6.73693,8.81699 -32.02602,42.27096 27.75414,87.56259 59.78016,45.29163 v 0 c 2.96357,-3.93661 5.92714,-7.87322 8.89071,-11.80983 8.90327,-13.19773 11.63381,-16.47005 19.13594,-30.85678 11.24114,-21.557 19.14178,-44.73451 26.92587,-67.68975 1.57241,-5.73626 3.30859,-11.43013 4.71723,-17.2088 4.32829,-17.75583 6.37831,-35.96 9.20316,-53.98548 0.52832,-8.85889 1.76363,-15.9808 -2.65641,-24.8204 -6.8006,-13.60045 -16.08525,-20.66719 -30.04361,-23.77058 -9.79666,-2.06535 -19.59477,-4.17455 -29.54802,-5.36548 -28.95997,-3.41412 -58.13715,-4.45189 -87.28485,-3.38703 -36.87092,1.41655 -73.72269,3.97547 -110.26044,9.29211 -20.24882,3.00061 -40.53797,6.12479 -60.30192,11.57688 -50.58155,15.93757 -28.04243,87.47069 22.53913,71.53312 z"/>
<path d="m 417.14245,714.09332 c 13.40039,-2.8433 27.09743,-4.45729 40.69653,-6.11054 26.66819,-3.07253 53.53208,-3.20401 80.30477,-1.82043 14.20188,1.18344 6.91458,0.49894 21.85948,2.07931 52.74376,5.53137 60.5663,-69.05956 7.82255,-74.59094 v 0 c -17.44099,-1.81582 -8.80543,-1.02258 -25.90544,-2.39322 -31.06927,-1.53334 -62.23868,-1.35575 -93.17702,2.27886 -19.04275,2.33692 -38.32671,4.42673 -56.77582,9.90838 -49.9561,17.80138 -24.78115,88.44996 25.17495,70.64858 z"/>
<path d="m 382.70011,762.991 c 3.33146,20.38681 11.11147,39.62565 18.54899,58.77733 4.75327,11.77618 8.93061,23.75649 12.65519,35.89222 15.64629,50.67242 87.30791,28.54522 71.66162,-22.12719 v 0 c -4.28893,-13.82414 -8.99166,-27.50725 -14.41136,-40.93539 -5.44292,-13.99113 -11.40295,-27.95584 -14.28787,-42.75685 -7.88416,-52.44368 -82.05073,-41.2938 -74.16657,11.14988 z"/>
<path d="m 528.38386,722.7611 c -4.95967,15.48309 -9.07496,31.26471 -14.3425,46.6492 -1.69812,4.95955 -3.6537,9.82718 -5.48054,14.74076 -7.0512,16.87377 -14.66323,33.50475 -22.10129,50.20956 -21.57184,48.44746 46.9432,78.95465 68.51505,30.5072 v 0 c 8.10797,-18.20948 16.43987,-36.32538 23.96204,-54.78904 2.22885,-6.09482 4.58942,-12.14307 6.68655,-18.28446 2.08299,-6.10002 6.52324,-21.1591 8.58966,-27.89422 1.57687,-5.13954 4.47644,-14.133 5.99872,-19.54723 0.58289,-2.07314 1.0593,-4.17475 1.58894,-6.26212 10.8397,-51.9134 -62.57693,-67.24305 -73.41663,-15.32965 z"/>
<path d="m 336.19853,913.3367 c 16.82453,-5.07553 34.26048,-8.20728 51.50745,-11.53564 35.9561,-6.39227 72.49778,-9.25864 108.98869,-10.04002 7.97577,-0.17078 15.95486,-0.10416 23.93229,-0.15623 40.16496,-0.095 80.1663,3.73682 119.98433,8.6321 12.73761,1.71617 25.44606,3.63717 38.16748,5.46719 52.4928,7.5503 63.17053,-66.68572 10.67774,-74.23602 v 0 c -13.23484,-1.90338 -26.45546,-3.90681 -39.70979,-5.67271 -43.0294,-5.27159 -86.26028,-9.32858 -129.66112,-9.18861 -8.71916,0.0684 -17.44028,0.009 -26.1575,0.20533 -40.3443,0.91074 -80.72638,4.21181 -120.46555,11.35389 -14.21313,2.75518 -20.99707,3.93636 -34.72899,7.07421 -10.92123,2.4956 -21.94193,5.18891 -32.34062,9.44179 -2.23181,0.91277 -4.37027,2.03893 -6.55541,3.05839 -46.3836,25.71112 -10.0226,91.30744 36.361,65.59633 z"/>
</svg>
