<?xml version="1.0" ?>
<svg xmlns="http://www.w3.org/2000/svg" width="1000" height="1000">
<path d="m 376.93818,65.635693 c -12.94759,35.805957 -25.87257,71.614577 -39.25442,107.264587 -21.35295,56.59313 -44.40907,112.57546 -70.33926,167.23774 -14.13731,29.80224 -30.53967,61.81212 -45.41003,91.24572 -21.55054,42.39949 -44.43168,84.09811 -67.20658,125.84535 -25.39733,46.55616 40.44302,82.4734 65.84035,35.91725 v 0 c 23.15226,-42.44242 46.40626,-84.83872 68.30986,-127.94618 15.59372,-30.8738 31.84497,-62.57054 46.6534,-93.82862 26.65673,-56.26782 50.39564,-113.87514 72.36958,-172.11737 9.5181,-25.36325 13.50497,-35.69202 22.35673,-60.31541 2.48949,-6.92512 4.8554,-13.89417 7.32975,-20.82471 3.11127,-8.71455 6.51359,-17.32435 9.56015,-26.061732 0.85689,-2.457522 1.56762,-4.963596 2.35143,-7.445394 13.41468,-51.308345 -59.14628,-70.279575 -72.56096,-18.971231 z"/>
<path d="m 542.6886,139.95788 c 15.39011,22.07512 28.82672,45.41049 42.50849,68.56035 16.81185,28.98752 32.63007,58.53556 49.12148,87.7033 9.66291,17.09042 17.03731,29.5747 26.92094,46.48906 4.23432,7.19621 8.46367,14.39533 12.70295,21.58861 7.93073,13.45703 15.28454,26.00593 23.43317,39.31019 10.03532,16.38464 20.49393,32.49477 30.97603,48.59469 12.54639,19.08654 26.31256,37.45899 42.13075,53.9793 10.86693,11.34928 14.16428,13.79462 25.93172,24.12499 19.84507,15.79941 9.51841,7.88034 31.02645,23.69645 42.76485,31.36347 87.1195,-29.11516 44.35465,-60.47864 v 0 c -18.3445,-13.41208 -9.66518,-6.80225 -26.09702,-19.75169 -8.66813,-7.48703 -11.66696,-9.74485 -19.64662,-17.96041 -13.16405,-13.55322 -24.49512,-28.76927 -34.84973,-44.53496 -10.00567,-15.36403 -20.00053,-30.73222 -29.58075,-46.36751 -8.00805,-13.06946 -15.24271,-25.41953 -23.03877,-38.64773 -4.20129,-7.12866 -8.39279,-14.26308 -12.58919,-21.39462 -9.32172,-15.94965 -17.04524,-29.0346 -26.14314,-45.12554 -16.81009,-29.73106 -32.92796,-59.85335 -50.08781,-89.38761 -14.00955,-23.7001 -27.75025,-47.61525 -43.51378,-70.21217 -28.15271,-44.943572 -91.71253,-5.129633 -63.55982,39.81394 z"/>
<path d="m 342.97118,400.94712 c 13.82391,-4.46659 27.25953,-10.04479 41.12824,-14.39868 5.10565,-1.60284 10.26803,-3.01902 15.40204,-4.52853 33.93504,-9.25749 68.79087,-14.86244 103.74138,-18.55523 7.39263,-0.78109 14.8031,-1.38289 22.20465,-2.07433 32.51314,-2.70222 65.19301,-3.85126 97.78665,-2.15458 5.53662,0.42015 11.10514,0.92431 16.51952,2.21925 0.11787,0.0282 2.31348,0.66807 2.71119,0.87779 0.14948,0.0788 -0.33211,-0.0626 -0.49817,-0.0939 -7.3729,-2.7334 -12.69717,-8.95402 -16.19437,-15.84098 -0.84799,-1.66994 -1.27207,-3.52321 -1.90811,-5.28482 0.24027,13.08026 0.54291,26.18914 -0.18202,39.27305 -0.26113,4.71289 -0.71096,9.41344 -1.06644,14.12016 -3.04604,32.52568 -12.10217,63.99636 -22.20303,94.92481 -5.32801,16.07765 -12.21895,31.55467 -20.58282,46.27459 -3.88231,6.83263 -6.45797,10.75975 -10.61212,17.3523 -6.63369,10.07959 -13.41979,20.16663 -21.75938,28.93468 -0.32373,0.27108 -0.84697,1.2168 -0.97119,0.81325 -0.13291,-0.43184 0.54781,-0.73593 0.91317,-1.00176 1.54704,-1.12557 3.03621,-2.40256 4.79635,-3.15231 2.96588,-1.26333 6.06029,-2.34867 9.2479,-2.82994 3.37024,-0.50883 6.8281,0.27506 10.2253,-0.001 -13.73254,-8.90836 -27.11827,-18.32385 -40.44655,-27.82062 -43.20072,-30.76033 -86.7024,30.33471 -43.50168,61.09504 v 0 c 16.37829,11.65438 32.72959,23.43004 50.06805,33.63696 11.62526,5.07077 15.86223,8.35277 29.41804,7.86824 14.07392,-0.50305 25.73963,-7.79262 35.16887,-17.52926 11.3829,-12.37193 21.34223,-25.92877 30.3509,-40.1192 5.23012,-8.34796 8.20891,-12.89124 13.11324,-21.64319 10.47609,-18.69496 19.13828,-38.32813 25.89168,-58.67199 1.86118,-5.73888 3.81111,-11.44973 5.58352,-17.21664 9.56374,-31.11755 17.09543,-62.96223 20.09925,-95.4332 0.40955,-5.73489 0.9273,-11.46307 1.22866,-17.20466 0.47155,-8.98423 0.56154,-18.71124 0.48267,-27.74521 -0.0346,-3.95842 -0.27691,-14.39281 -0.58711,-18.70062 -0.20414,-2.83502 -0.57126,-5.65594 -0.8569,-8.48391 -0.96852,-3.61241 -1.49349,-7.37405 -2.90555,-10.83723 -4.75058,-11.65107 -14.0758,-19.8376 -25.42285,-24.59684 -13.58817,-5.02518 -27.89417,-7.30695 -42.34562,-8.08741 -36.19488,-1.77435 -72.47219,-0.71943 -108.57458,2.38819 -8.0091,0.756 -16.02826,1.412 -24.02729,2.26802 -39.16192,4.19092 -78.19256,10.61053 -116.18602,21.11539 -6.05211,1.80052 -12.1351,3.5003 -18.15631,5.40158 -12.70238,4.01094 -25.10752,8.87125 -37.6547,13.3167 -51.00109,14.5392 -30.43955,86.66564 20.56154,72.12643 z"/>
<path d="m 417.88119,356.61085 c 0.0533,8.45125 -2.7883,16.57078 -5.47494,24.47397 -6.21042,18.26892 -6.39796,17.66164 -14.45656,36.65674 -12.69786,26.35936 -26.75062,52.10032 -42.95717,76.48592 -6.21885,9.35735 -12.99203,18.33422 -19.48804,27.50134 -30.575,43.33208 30.70583,86.57165 61.28082,43.23957 v 0 c 7.32635,-10.42248 14.9609,-20.63498 21.97903,-31.26743 18.2741,-27.6852 34.14409,-56.88953 48.31067,-86.86146 8.30211,-19.85237 10.88514,-24.75434 17.2201,-44.37728 4.79163,-14.8424 8.74517,-30.14347 8.58609,-45.85137 0,-53.033 -75,-53.033 -75,0 z"/>
<path d="m 206.65129,681.02923 c 1.89904,20.03394 2.41554,40.16678 4.33983,60.2009 0.71585,7.45275 1.66335,14.88144 2.49502,22.32216 5.62198,41.77223 17.40804,82.31396 28.57689,122.84684 1.1246,4.07824 2.24919,8.15647 3.37378,12.23471 14.0979,51.12484 86.39934,31.1874 72.30144,-19.93744 v 0 c -1.12334,-4.0737 -2.24668,-8.14741 -3.37003,-12.22111 -10.12934,-36.75999 -20.95552,-73.4923 -26.35417,-111.32486 -0.75137,-6.60146 -1.613,-13.1913 -2.2541,-19.80438 -2.04116,-21.05526 -2.4588,-42.23071 -4.64526,-63.2724 -6.33255,-52.65357 -80.79594,-43.698 -74.4634,8.95558 z"/>
<path d="m 357.77489,728.08007 c 19.19259,-7.83133 39.48325,-12.4998 59.58319,-17.31598 39.15614,-9.01783 79.08951,-14.16547 119.09387,-17.54578 8.21652,-0.69428 16.44679,-1.21499 24.67018,-1.82249 35.57481,-2.36739 71.25734,-3.03223 106.89245,-1.97478 8.52192,0.79405 17.26339,0.4177 25.71846,1.94357 -14.3088,-2.33305 -23.35311,-13.57148 -27.18047,-27.17044 0.12627,18.84936 -1.42214,37.69552 -4.18867,56.33555 -0.88899,5.98974 -2.00659,11.94332 -3.00988,17.91497 -5.1926,23.89793 -10.09251,48.1547 -18.9904,71.03003 -4.59168,11.80464 -7.34596,16.25164 -13.16907,27.21372 -2.12509,3.4962 -4.25018,6.9924 -6.37528,10.48861 -27.30111,45.46591 36.9974,84.07551 64.29852,38.6096 v 0 c 2.85127,-4.79118 5.70254,-9.58236 8.55381,-14.37355 8.36156,-16.20526 11.08969,-20.42452 17.74202,-37.91967 10.15546,-26.70815 16.07859,-54.865 21.92406,-82.74354 1.14717,-6.95776 2.42831,-13.89476 3.44151,-20.8733 3.4144,-23.51699 5.27152,-47.34156 4.57676,-71.10958 -1.38755,-11.00817 -0.90197,-15.27109 -8.70309,-25.92183 -6.66653,-9.1017 -16.6853,-13.52596 -27.21903,-15.56222 -11.65781,-1.77374 -23.4714,-2.2187 -35.23248,-2.83003 -38.21585,-1.09743 -76.47977,-0.43103 -114.62941,2.14854 -8.74331,0.65153 -17.49405,1.20991 -26.22991,1.95461 -43.51533,3.70948 -86.93543,9.43058 -129.51801,19.28643 -23.2655,5.61178 -46.69179,11.17465 -68.92056,20.21667 -49.51225,19.00097 -22.64082,89.02186 26.87143,70.02089 z"/>
<path d="m 374.51776,726.39674 c 1.13873,24.33663 0.50814,48.70169 -0.0781,73.04292 -0.52836,16.99144 -0.81824,33.98748 -1.02827,50.98518 -0.65033,53.02902 74.34403,53.94873 74.99436,0.91971 v 0 c 0.20324,-16.70451 0.49314,-33.40721 1.01232,-50.10551 0.64621,-27.01969 1.33475,-54.07859 -0.16055,-81.08454 -4.41392,-52.849 -79.1537,-46.60677 -74.73977,6.24224 z"/>
<path d="m 500.80843,707.1021 c 0.67408,15.3142 0.77435,30.72096 -0.81245,45.98888 -0.6324,6.08483 -1.62634,12.12663 -2.43951,18.18995 -3.61726,21.4299 -9.44393,42.38459 -14.64302,63.4583 -1.93424,7.84012 -3.79543,15.69809 -5.69315,23.54714 -12.45947,51.54863 60.44131,69.16898 72.90078,17.62034 v 0 c 1.84097,-7.61905 3.64571,-15.24694 5.52291,-22.85715 5.90116,-23.92342 12.46596,-47.7275 16.28795,-72.10999 0.96825,-7.65431 2.15945,-15.2837 2.90474,-22.96293 1.82548,-18.80927 1.72189,-37.78798 0.74985,-56.63956 -4.07648,-52.8761 -78.85458,-47.11108 -74.7781,5.76502 z"/>
<path d="m 139.52774,963.38984 c 22.68394,-7.13712 46.30825,-10.6935 69.72357,-14.45482 70.04618,-10.26354 140.86099,-13.2545 211.50368,-16.31248 58.94849,-2.15909 117.90506,-4.48561 176.89443,-5.18323 37.82664,-0.44735 43.83588,-0.17009 81.05582,0.25039 40.64642,0.87037 81.40485,2.938 121.58214,9.50414 18.12274,2.96178 21.55132,4.10349 38.64223,8.23245 4.76791,1.37535 9.53581,2.75071 14.30372,4.12606 50.9909,14.57493 71.60296,-57.53709 20.61206,-72.11202 v 0 c -5.82937,-1.6537 -11.65873,-3.30741 -17.4881,-4.96111 -20.30603,-4.80616 -24.35365,-6.13204 -45.65864,-9.55924 -43.35479,-6.97421 -87.30445,-9.32203 -131.15525,-10.2256 -38.34301,-0.42403 -44.38074,-0.70565 -83.29539,-0.24198 -59.60442,0.71019 -119.17593,3.05434 -178.73901,5.24042 -73.55637,3.18886 -147.28644,6.3907 -220.20547,17.19998 -28.48059,4.61471 -57.2696,9.0523 -84.6466,18.4759 -49.512418,19.00052 -22.641616,89.02166 26.87081,70.02114 z"/>
</svg>
