<?xml version="1.0" ?>
<svg xmlns="http://www.w3.org/2000/svg" viewBox="0 0 1000 1000">
<path d="m 244.0487,188.55841 c 0.16258,35.53873 -4.95516,70.86631 -9.707,106.00083 -1.9239,12.03757 -3.58366,24.12035 -5.7717,36.11273 -4.81718,26.40236 -11.53622,55.96918 -18.0063,81.91651 -7.91905,31.75822 -14.32221,54.67938 -24.00827,85.88892 -4.14609,13.35914 -8.648,26.60524 -12.97199,39.90786 -17.02486,46.53238 -8.02497,24.23933 -26.74983,66.97947 -21.18227,48.61904 47.57545,78.57529 68.75771,29.95624 v 0 c 20.73178,-47.81992 10.91072,-23.24723 29.32572,-73.77287 4.51751,-13.9262 9.22321,-27.79275 13.55255,-41.7786 10.05226,-32.47369 16.89994,-57.0128 25.10631,-90.02822 7.0454,-28.34468 13.83234,-58.48196 19.05769,-87.25475 2.28587,-12.58686 4.02325,-25.26718 6.03488,-37.90077 5.3193,-39.52886 10.95433,-79.30546 10.30913,-119.2924 -2.30875,-52.98273 -77.23764,-49.71768 -74.9289,3.26505 z"/>
<path d="m 305.51412,315.23621 c 18.31206,-7.43712 37.15469,-13.45015 56.27948,-18.42584 7.53979,-1.96162 15.13847,-3.6895 22.7077,-5.53425 50.51964,-11.32766 102.02735,-18.01247 153.66291,-21.48551 10.1049,-0.67967 20.22824,-1.0496 30.34236,-1.5744 24.6981,-0.90596 49.43018,-1.0005 74.11694,0.26449 13.40922,0.6871 17.27195,1.19173 29.82588,2.41935 52.7875,5.0971 59.99588,-69.55569 7.20839,-74.65279 v 0 c -14.46912,-1.38189 -18.9472,-1.95624 -34.29893,-2.71667 -26.90747,-1.33281 -53.86236,-1.23209 -80.77938,-0.2115 -10.85473,0.57467 -21.71941,0.98505 -32.56419,1.724 -55.57131,3.78656 -110.9901,11.09594 -165.34139,23.38262 -8.39674,2.06232 -16.82706,3.99244 -25.19021,6.18697 -20.21931,5.30564 -40.29465,11.501 -59.63908,19.45644 -50.32273,16.73688 -26.65321,87.90397 23.66952,71.16709 z"/>
<path d="m 312.7595,436.55719 c 11.7646,-6.35177 24.8108,-9.81237 37.70192,-13.03203 19.75131,-4.59309 39.84386,-7.24333 60.12012,-7.17504 5.86941,0.38702 11.93443,0.3887 17.67421,1.86248 0.24703,0.0627 0.98874,0.24851 0.7411,0.18821 -12.30087,-2.99513 -20.19253,-12.127 -24.29016,-23.65647 0.11413,17.18368 -1.13013,34.33518 -2.61086,51.44273 -1.58656,21.83427 -6.54261,43.10047 -12.56955,64.07144 -2.00019,6.31087 -3.96215,12.67786 -6.73671,18.70574 -0.63416,1.37774 -1.79698,4.19788 -3.35712,5.07304 3.19933,-5.0608 8.85638,-7.96843 14.61253,-9.21756 2.75761,-0.59843 5.68122,0.10751 8.45557,-0.40779 0.41604,-0.0773 -0.39341,-0.79768 -0.7515,-1.02314 -2.10719,-1.32672 -4.37151,-2.38572 -6.55726,-3.57857 -2.47195,-1.43363 -4.94389,-2.86726 -7.41584,-4.30088 -45.93368,-26.50654 -83.41959,38.4535 -37.4859,64.96004 v 0 c 3.1603,1.81652 6.32061,3.63305 9.48091,5.44957 6.38616,3.38113 16.97121,9.38895 23.74187,11.04962 6.21556,1.52452 12.66164,2.69217 19.0531,2.36553 11.22726,-0.57377 19.9934,-5.04159 28.5683,-11.69498 2.80424,-2.17584 5.00054,-5.03852 7.5008,-7.55778 1.76686,-2.39924 3.65883,-4.71119 5.30057,-7.19771 8.43265,-12.77178 13.15184,-27.52767 17.69871,-41.99913 2.60093,-9.12866 3.82731,-13.09819 6.09837,-22.52797 4.41634,-18.3373 7.42937,-36.96949 9.0888,-55.76039 1.09871,-12.91417 2.07647,-25.81249 2.55831,-38.76743 0.23238,-6.24808 0.4437,-14.65149 0.1835,-20.976 -0.12723,-3.09258 -0.46018,-6.17326 -0.69027,-9.25988 -0.71711,-3.38862 -0.91272,-6.93123 -2.15132,-10.16587 -1.74481,-4.55661 -3.64026,-9.21976 -6.7207,-13.00366 -6.80898,-8.36391 -15.19275,-13.18699 -25.3182,-15.38961 -11.25598,-2.44835 -22.76845,-3.48835 -34.27887,-3.68337 -10.03442,0.0623 -12.05221,-0.0851 -22.36854,0.67499 -18.94114,1.39548 -37.68251,4.63889 -56.18948,8.84681 -4.99966,1.30409 -10.03753,2.46957 -14.99897,3.91226 -16.61686,4.83187 -33.10817,11.14875 -47.61554,20.69658 -43.18741,30.77902 0.3407,91.85523 43.5281,61.07622 z"/>
<path d="m 212.14159,679.22913 c 4.92892,20.3177 12.2342,39.94466 18.46202,59.87664 1.7572,5.6239 3.40996,11.2799 5.11495,16.91985 6.71985,23.11922 13.23049,46.30976 20.85885,69.15209 3.8563,11.54729 4.9562,14.25289 9.00058,25.13375 1.11897,2.88082 2.23794,5.76164 3.35692,8.64246 19.22193,49.42689 89.1221,22.24297 69.90018,-27.18392 v 0 c -0.99202,-2.54734 -1.98404,-5.09468 -2.97606,-7.64202 -10.99799,-29.44197 -19.78847,-59.60631 -28.35713,-89.8314 -1.84346,-6.08256 -3.63392,-12.18144 -5.53037,-18.24769 -5.59603,-17.90023 -12.14288,-35.52623 -16.75886,-53.72 -11.95028,-51.66906 -85.02135,-34.76881 -73.07108,16.90024 z"/>
<path d="m 353.85576,716.37745 c 0.0386,0.06 0.0496,0.20628 0.11584,0.17985 1.15553,-0.46123 2.25552,-1.051 3.38328,-1.5765 2.5154,-1.06037 4.9985,-2.20089 7.5462,-3.1811 3.95586,-1.522 7.94061,-2.97247 11.9582,-4.32312 14.12415,-4.74833 20.45227,-6.36956 35.12551,-10.57523 35.09793,-9.37452 70.47562,-17.99899 106.42761,-23.43119 5.93084,-0.89613 11.89291,-1.57177 17.83937,-2.35766 21.74363,-2.46149 43.64786,-3.52148 65.50208,-2.28332 3.37381,0.34281 6.77518,0.61073 10.11581,1.22435 0.17665,0.0324 -0.36213,-0.009 -0.53618,-0.0535 -1.55492,-0.3962 -3.09614,-0.84431 -4.64421,-1.26646 -15.22976,-9.58929 -9.79085,-4.0354 -19.01729,-16.83747 -0.31538,-0.43759 -0.86009,-1.89707 -0.87996,-1.35804 -0.0627,1.70113 0.53094,3.36347 0.7438,5.05239 0.38468,3.05214 0.77973,6.10458 1.0486,9.16909 0.35527,4.04932 0.54889,8.11119 0.82334,12.16679 0.70876,22.13763 0.0552,44.45336 -5.14968,66.08329 -3.43598,14.27886 -5.84059,19.48766 -10.93512,33.16613 -6.61802,12.89987 -5.90942,12.98411 -14.27455,24.02193 -2.38681,3.1494 -5.04811,6.08102 -7.57217,9.12153 -33.30336,41.2721 25.0642,88.37017 58.36756,47.09807 v 0 c 3.9089,-4.9317 8.08646,-9.66188 11.72669,-14.79509 12.7785,-18.01939 12.54008,-19.6963 22.20564,-39.7297 6.80707,-18.9358 9.79932,-25.45369 14.25659,-45.38091 6.2315,-27.85931 7.34851,-56.47526 6.18596,-84.90745 -0.92378,-12.51217 -0.96808,-16.53438 -2.71128,-28.39129 -1.81204,-12.3252 -4.41422,-25.33816 -13.58023,-34.70027 -4.05023,-4.13689 -9.56349,-6.52783 -14.34524,-9.79175 -2.30109,-0.71139 -4.57774,-1.50727 -6.90326,-2.13418 -6.6479,-1.79213 -14.07285,-1.75197 -20.8403,-2.64615 -26.53146,-1.405 -53.11904,-0.29249 -79.50673,2.83097 -6.8054,0.91574 -13.62806,1.71118 -20.41619,2.7472 -38.72537,5.91032 -76.85283,15.15143 -114.65574,25.30308 -16.07075,4.63394 -24.59508,6.86212 -40.25237,12.25117 -12.94993,4.45721 -25.99329,9.44117 -37.78297,16.51882 -2.28691,1.3729 -4.39963,3.01703 -6.59944,4.52555 -41.19617,33.39724 6.03466,91.65742 47.23083,58.26018 z"/>
<path d="m 362.60539,697.65852 c 1.07092,24.41907 3.84897,48.72523 6.45121,73.01712 1.44676,12.49043 2.81465,24.98964 4.16024,37.49129 5.67632,52.72835 80.24547,44.70082 74.56915,-8.02753 v 0 c -1.34475,-12.48952 -2.70927,-24.97689 -4.15634,-37.45507 -2.41167,-22.49719 -5.00932,-45.00517 -6.06901,-67.61625 -1.83172,-53.00137 -76.78697,-50.41093 -74.95525,2.59044 z"/>
<path d="m 466.07551,688.60848 c 0.31759,0.57231 0.70058,1.11294 0.95276,1.71694 0.26668,0.63871 0.40014,1.32523 0.59476,1.98946 0.53265,1.81784 1.2033,3.60172 1.58706,5.45672 2.07955,10.05189 1.26046,20.42329 0.92209,30.5784 -0.86691,16.74192 -3.58279,33.26275 -8.39687,49.3268 -3.50142,11.68387 -6.99473,19.83439 -11.45311,31.1062 -19.35975,49.37307 50.46431,76.75189 69.82407,27.37882 v 0 c 5.94228,-15.26224 9.84053,-24.29849 14.41218,-40.38491 6.09261,-21.43825 9.56959,-43.44106 10.59379,-65.69778 0.10644,-6.60017 0.51544,-13.20239 0.31931,-19.8005 -0.63461,-21.34951 -4.61325,-42.99857 -15.79633,-61.48427 -28.15283,-44.9435 -91.71254,-5.12938 -63.55971,39.81412 z"/>
<path d="m 181.03569,926.29824 c 20.33223,-5.83398 41.0281,-10.40349 61.89102,-13.88944 7.96979,-1.33166 15.98106,-2.40195 23.9716,-3.60293 55.72267,-7.29193 111.58588,-13.73324 167.62658,-18.04348 12.59537,-0.96875 25.20613,-1.72588 37.80919,-2.58881 58.46408,-3.42341 117.08698,-4.08573 175.60873,-1.82261 9.32365,0.36056 18.63907,0.90933 27.9586,1.364 24.6717,1.35494 49.24827,3.89277 73.77468,6.81941 52.66082,6.27196 61.53071,-68.2017 8.86988,-74.47365 v 0 c -26.26632,-3.12283 -52.58679,-5.8242 -79.0083,-7.25756 -9.79771,-0.47329 -19.59117,-1.04452 -29.39312,-1.41988 -60.96734,-2.33466 -122.0392,-1.62213 -182.94426,1.9662 -13.02303,0.89531 -26.05399,1.68191 -39.06909,2.68592 -57.65422,4.44756 -115.12848,11.06913 -172.45115,18.6142 -8.85761,1.34779 -17.73817,2.5526 -26.57284,4.04337 -22.61616,3.81627 -45.06074,8.7757 -67.11844,15.06413 -51.29432,13.46821 -32.2474,86.00934 19.04692,72.54113 z"/>
<path d="m 506.92191,132.22732 c 8.8011,29.15831 16.85544,58.53029 25.32036,87.78626 16.02989,52.41073 33.31401,104.47059 53.55045,155.42351 4.4567,11.22144 9.171,22.33886 13.7565,33.50829 22.29767,52.48383 47.74687,103.63274 76.23951,153.03079 4.91025,8.51297 10.03982,16.89753 15.05973,25.3463 15.91149,25.87942 32.35152,51.48503 50.50931,75.86083 7.87908,10.57723 10.68842,13.83578 18.68236,23.66112 18.15797,21.13118 33.99385,42.38539 68.66207,27.70244 9.83728,-4.16637 13.61005,-16.47086 20.41508,-24.70629 10.60831,-34.31191 1.99745,-5.81892 12.45553,-42.40624 16.19479,-56.65705 0.0602,1.3647 17.21315,-60.96526 14.06553,-51.13375 -58.24851,-71.02542 -72.31405,-19.89167 v 0 c -2.90105,10.55129 -5.7295,21.12281 -8.70314,31.65387 -4.65157,16.47335 -10.18651,34.36334 -14.59335,51.05249 -0.75634,2.86434 -1.29551,5.78167 -1.94326,8.6725 4.55995,-3.45543 8.03467,-9.43627 13.67986,-10.36629 29.939,-4.9323 25.33631,-3.46683 36.44299,6.17278 0.93037,0.80748 -1.83394,-1.64811 -2.69279,-2.53128 -3.8404,-3.94922 -6.82787,-7.54867 -10.49146,-11.77724 -6.78393,-8.30193 -9.39977,-11.33819 -16.08476,-20.28322 -16.83968,-22.53281 -32.02107,-46.25369 -46.77553,-70.18454 -4.70436,-7.90261 -9.51298,-15.74407 -14.11308,-23.70781 -27.00488,-46.75111 -51.13512,-95.15923 -72.27538,-144.83619 -4.37127,-10.6303 -8.86572,-21.21078 -13.11381,-31.89091 -19.47836,-48.97063 -36.08106,-99.01793 -51.52276,-149.38939 -8.60759,-29.73039 -16.78415,-59.58311 -25.74779,-89.21008 -15.75096,-50.639971 -87.3667,-28.364745 -71.61574,22.27523 z"/>
<path d="m 671.03266,354.66124 c 0.18886,-0.71741 1.26207,-2.41031 0.56657,-2.15221 -1.13443,0.421 -1.51061,1.89193 -2.31087,2.79953 -2.03886,2.31233 -4.04972,4.65378 -6.20473,6.85826 -3.43945,3.51842 -6.98645,6.93174 -10.5708,10.30243 -15.58881,14.6596 -15.38493,14.03167 -32.78199,28.59287 -7.01434,5.42897 -13.96879,10.9362 -21.04301,16.2869 -20.81736,15.74556 -42.68396,32.19131 -65.46476,45.00788 -6.55819,3.68966 -13.44272,6.76663 -20.16408,10.14995 -47.22714,24.12669 -13.10684,90.91595 34.1203,66.78926 v 0 c 8.56526,-4.42608 17.31747,-8.50773 25.69577,-13.27824 8.2495,-4.69717 16.23054,-9.86013 24.14578,-15.10099 24.52116,-16.23604 47.76433,-34.34779 70.93724,-52.41668 17.64904,-14.85986 21.33854,-17.44978 37.26744,-32.67954 11.51283,-11.00752 23.45972,-22.64071 31.6952,-36.45918 1.84666,-3.09854 3.21247,-6.45945 4.81871,-9.68917 17.68549,-49.99723 -53.02127,-75.00831 -70.70677,-25.01107 z"/>
<path d="m 701.43133,151.88222 c 14.5226,11.53258 29.5003,22.46943 44.09099,33.91579 3.36558,2.81767 6.73116,5.63533 10.09674,8.453 40.7097,33.98853 88.77674,-23.58368 48.06704,-57.57221 v 0 c -3.96498,-3.30262 -7.92995,-6.60523 -11.89492,-9.90784 -14.8912,-11.66396 -30.14534,-22.84845 -44.97112,-34.595219 -42.21886,-32.094677 -87.60758,27.611799 -45.38873,59.706479 z"/>
</svg>
