<?xml version="1.0" ?>
<svg xmlns="http://www.w3.org/2000/svg" viewBox="0 0 1000 1000">
<path d="m 240.66215,244.4861 c 18.87099,6.87196 36.27319,17.0961 53.37961,27.47178 4.23074,3.04224 8.46148,6.08449 12.69223,9.12674 43.25835,30.67922 86.64533,-30.49733 43.38697,-61.17655 v 0 c -5.7747,-4.05371 -11.54941,-8.10741 -17.32411,-12.16112 -5.27196,-3.16896 -10.48189,-6.4435 -15.81589,-9.50689 -16.51674,-9.48579 -33.67477,-18.05066 -51.59191,-24.5606 -50.06785,-17.48456 -74.79476,53.32208 -24.7269,70.80664 z"/>
<path d="m 265.90627,543.77686 c 18.19829,-14.1238 35.99219,-28.73443 54.62281,-42.30048 15.88136,-11.56416 31.68034,-22.31277 47.85309,-33.47545 8.4143,-5.78415 16.8286,-11.5683 25.24289,-17.35245 43.703,-30.04243 1.21659,-91.8478 -42.48641,-61.80537 v 0 c -8.45556,5.81257 -16.91112,11.62515 -25.36668,17.43772 -17.51678,12.09595 -33.08159,22.67422 -50.27205,35.21743 -16.54332,12.07101 -32.39006,24.92454 -48.48444,37.56496 -2.48878,1.95467 -5.01234,3.86463 -7.51851,5.79695 -41.6604,32.81633 4.7489,91.73302 46.4093,58.91669 z"/>
<path d="m 472.36563,94.952396 c -1.40472,5.931624 0.75596,-3.2355 -1.97994,8.750344 -1.86822,8.18455 -3.02325,13.44858 -5.56606,21.72678 -3.67923,11.97783 -6.63337,19.32679 -11.08357,31.27772 -11.88717,31.35779 -24.73026,62.34244 -38.74826,92.80647 -2.38531,6.67706 -7.10589,13.17759 -9.49734,19.85892 -1.2302,3.43698 -4.6667,7.15574 -3.16652,10.48376 7.16656,15.89836 14.00433,33.68875 27.85482,44.28504 7.27713,5.56736 18.27646,-1.33413 27.41469,-2.00119 3.70514,-1.51477 7.42281,-2.99926 11.11543,-4.5443 13.02771,-5.45098 13.33538,-5.94476 27.39529,-11.29012 12.3346,-4.68942 26.71247,-9.73404 39.27781,-13.52339 7.40886,-2.2343 14.91107,-4.14651 22.36661,-6.21977 38.12766,-9.12266 77.04022,-15.42977 116.25864,-16.93041 6.24789,-0.23906 12.50366,-0.17833 18.75548,-0.26749 5.44085,0.17659 10.88711,0.22967 16.32255,0.52979 10.70884,0.59128 21.63962,1.63733 32.07645,4.25854 7.22529,1.81462 5.12101,1.49876 2.53742,1.29477 -16.64619,-13.60723 -12.2845,-6.12646 -18.18451,-29.60899 -0.35884,-1.42824 1.09237,-4.9486 -0.2779,-4.40915 -2.82685,1.11288 -3.97481,4.59569 -5.98408,6.87438 -3.76744,4.27263 -7.43281,8.63968 -11.34587,12.77936 -4.93658,5.22249 -10.12852,10.19755 -15.19278,15.29632 -30.21973,28.30063 -60.21231,56.83109 -89.89456,85.6945 -38.01854,36.97419 14.27086,90.74052 52.2894,53.76634 v 0 c 30.03819,-29.21666 60.43837,-58.04459 90.96191,-86.75356 13.43925,-13.66712 20.08476,-19.73985 31.83318,-34.03867 7.46853,-9.08984 20.27692,-24.76387 21.61193,-37.01038 1.12992,-10.36523 0.29488,-21.45552 -3.7874,-31.04977 -3.22174,-7.57178 -11.35245,-11.91502 -17.02867,-17.87253 -4.02743,-1.8386 -7.93338,-3.97074 -12.08229,-5.51579 -5.97865,-2.22645 -17.06657,-4.4191 -23.13513,-5.39012 -17.17169,-2.74759 -34.56793,-3.71172 -51.94091,-3.8351 -7.3756,0.13277 -14.7563,0.0939 -22.12682,0.3983 -44.49593,1.83778 -88.65259,9.00453 -131.87282,19.56303 -8.50831,2.39293 -17.06834,4.60907 -25.52494,7.1788 -26.63651,8.09409 -52.65663,18.15279 -78.08436,29.45547 5.85953,0.42296 13.55688,-3.01351 17.57857,1.26889 46.68048,49.70661 27.7027,27.26571 22.11458,48.4798 -0.327,1.24139 1.0361,-2.34966 1.594,-3.50582 12.10795,-25.09162 -6.5173,14.12106 7.91044,-16.36853 14.79249,-32.19584 28.39177,-64.92095 40.9274,-98.06261 2.37208,-6.42099 4.86205,-12.79965 7.11625,-19.26297 6.23977,-17.89094 11.14023,-36.15169 14.90169,-54.71519 9.79448,-52.120705 -63.91534,-65.972182 -73.70981,-13.851474 z"/>
<path d="m 499.28566,344.0723 c -3.8124,9.90851 -7.86554,19.7664 -12.76313,29.20255 -2.47452,4.76765 -5.22646,9.38611 -7.8397,14.07916 -14.83851,24.80734 -32.2611,48.03959 -50.89314,70.11525 -8.9838,10.6442 -19.84881,22.37865 -29.24362,32.68996 -17.23271,19.13743 -9.00266,9.87555 -24.71683,27.76192 -34.99597,39.84699 21.35618,89.33876 56.35215,49.49177 v 0 c 15.00391,-17.08981 7.07465,-8.16067 23.81985,-26.7589 11.09219,-12.18896 21.42983,-23.32524 32.06716,-35.97679 21.44311,-25.50345 41.38524,-52.40451 58.30604,-81.13464 3.3243,-6.0851 6.81604,-12.08167 9.97289,-18.25529 3.82204,-7.47448 9.46397,-20.12685 12.54838,-28.25767 3.22003,-8.48832 4.91601,-13.68919 6.4977,-22.35923 0.41223,-2.25965 0.53217,-4.56295 0.79826,-6.84442 2.65424,-52.96655 -72.25177,-56.72021 -74.90601,-3.75367 z"/>
<path d="m 495.45448,466.1257 c 15.08997,10.08223 29.67112,20.90115 44.28392,31.6574 24.94678,18.40922 49.14117,37.82006 74.17251,56.1158 5.2158,3.8123 10.50263,7.52644 15.75394,11.28966 21.98694,15.29202 45.18663,28.84821 69.81992,39.42646 16.44575,7.06227 22.65712,8.79681 39.68723,14.5841 37.25727,11.69125 75.66608,19.0492 113.87279,26.83771 51.96457,10.59169 66.94348,-62.8973 14.97891,-73.48899 v 0 c -35.16128,-7.16581 -70.5218,-13.86663 -104.86974,-24.41113 -13.80406,-4.61947 -19.09102,-6.08873 -32.33791,-11.66383 -20.32141,-8.55249 -39.38247,-19.72432 -57.48535,-32.26214 -4.86704,-3.48247 -9.76852,-6.91729 -14.60111,-10.4474 -25.1578,-18.37726 -49.45056,-37.90821 -74.53499,-56.38427 -17.6352,-12.97742 -35.11977,-26.30941 -53.87027,-37.65438 -46.95261,-24.6567 -81.82245,41.7443 -34.86985,66.40101 z"/>
<path d="m 216.41306,675.80527 c 3.88926,14.49555 8.66513,28.73287 12.81492,43.15236 3.93991,13.69017 6.66533,24.47395 10.30649,38.38277 7.6061,29.03257 15.46226,58.02645 25.43709,86.35146 4.51458,12.81985 6.91093,18.54421 11.74148,30.7059 19.60985,49.27427 89.29419,21.54174 69.68433,-27.73253 v 0 c -4.20389,-10.53984 -6.44172,-15.88588 -10.36135,-26.94922 -9.45107,-26.67613 -16.75734,-54.03012 -23.94975,-81.38186 -4.16833,-15.90119 -6.54586,-25.3804 -11.04186,-40.99599 -3.97456,-13.8045 -8.54369,-27.43545 -12.28531,-41.30788 -13.98303,-51.15637 -86.32907,-31.38138 -72.34604,19.77499 z"/>
<path d="m 386.44019,705.32913 c 16.82165,-6.12567 34.17787,-10.87374 51.64639,-14.76196 7.2588,-1.6157 14.56752,-2.99831 21.85128,-4.49746 34.89469,-6.64847 70.0974,-11.64568 105.4711,-14.8978 21.57312,-1.98334 27.72243,-2.13948 48.95623,-3.31842 26.92826,-1.19817 53.97996,-1.70597 80.8038,1.33451 4.11912,0.58727 8.26299,1.10853 12.33947,1.96252 0.13577,0.0284 -0.27874,-0.0147 -0.41339,-0.0481 -0.84331,-0.20914 -1.67781,-0.45238 -2.51672,-0.67857 -15.51545,-8.79499 -10.21761,-3.65857 -21.2297,-19.52314 -0.44862,-0.6463 -0.66324,-2.86522 -0.9823,-2.14609 -0.51214,1.15435 0.19932,2.51829 0.25747,3.77981 0.11559,2.50765 0.23244,5.01621 0.2637,7.52634 0.0446,3.58503 -0.024,7.17058 -0.036,10.75587 -1.45265,29.10874 -4.2929,58.35409 -10.55043,86.8665 -1.46469,6.67386 -3.31693,13.25673 -4.9754,19.8851 -5.40572,19.052 -12.38967,37.59376 -19.14522,56.19135 -18.09815,49.84935 52.39947,75.444 70.49762,25.59465 v 0 c 7.6537,-21.09185 15.52692,-42.13583 21.45915,-63.80049 1.96217,-8.0292 4.14803,-16.00701 5.8865,-24.0876 3.37812,-15.70182 5.37829,-29.37659 7.36455,-45.23923 1.56816,-12.52361 2.94919,-26.17676 3.74453,-38.80907 0.34799,-5.52691 0.47914,-11.06534 0.7187,-16.59801 -0.0296,-11.86895 0.36069,-24.08689 -1.76073,-35.8388 -0.63767,-3.53247 -0.94943,-7.24606 -2.5366,-10.46566 -2.94899,-5.98208 -6.23618,-12.00961 -10.89552,-16.78164 -3.66136,-3.74992 -8.96419,-5.4326 -13.44629,-8.14891 -8.46493,-2.58546 -17.03497,-3.91438 -25.82868,-4.94559 -30.95885,-3.34047 -62.13083,-3.22939 -93.20917,-1.66858 -22.81505,1.28618 -29.3931,1.45771 -52.56192,3.60758 -37.8578,3.51288 -75.53287,8.88863 -112.87293,16.04752 -8.15375,1.69543 -16.33638,3.25746 -24.46125,5.08628 -20.54954,4.6255 -40.94071,10.30536 -60.70964,17.59619 -49.51225,19.00097 -22.64082,89.02187 26.87143,70.0209 z"/>
<path d="m 406.12882,703.25365 c -2.00717,28.90838 -2.0235,57.89476 -1.7851,86.85507 0.10703,23.52143 1.99242,46.95832 4.3857,70.33789 5.43213,52.75407 80.03765,45.07188 74.60552,-7.68219 v 0 c -2.18033,-21.03523 -3.90219,-42.12271 -3.9939,-63.28928 -0.23139,-26.66704 -0.24261,-53.35493 1.52753,-79.97891 4.41417,-52.84899 -70.32558,-59.09157 -74.73975,-6.24258 z"/>
<path d="m 541.01155,675.30117 c 0.0143,22.13536 -1.87067,44.24442 -5.33261,66.10528 -1.12051,7.07564 -2.54158,14.1004 -3.81238,21.15061 -4.69838,23.62957 -10.35562,47.04975 -15.94443,70.47911 -12.30129,51.58661 60.65319,68.98326 72.95448,17.39666 v 0 c 5.9183,-24.82702 11.90671,-49.64546 16.82297,-74.69678 1.44057,-8.13977 3.05095,-16.25131 4.32172,-24.41931 3.91181,-25.1435 5.98665,-50.56944 5.99025,-76.01557 0,-53.03301 -75,-53.03301 -75,0 z"/>
<path d="m 182.71636,935.82737 c 15.87468,-4.08701 31.75548,-8.15028 47.80789,-11.4963 7.22735,-1.50649 14.48659,-2.85569 21.72989,-4.28353 53.22998,-9.80644 107.07047,-15.98691 160.9853,-20.52065 13.40156,-1.12695 26.82106,-2.02941 40.23159,-3.04411 56.21137,-3.75556 112.55252,-5.67167 168.89166,-5.21385 33.90505,0.27552 48.03842,0.98416 81.71842,2.15003 43.17941,1.61206 86.13144,6.32924 129.01351,11.37972 52.6697,6.19699 61.43357,-68.28921 8.76387,-74.48621 v 0 c -44.9351,-5.28183 -89.94665,-10.17565 -135.19211,-11.84894 -34.89092,-1.19916 -49.28955,-1.92167 -84.4542,-2.19445 -58.18042,-0.45132 -116.36263,1.53429 -174.41006,5.42825 -13.83789,1.05078 -27.68506,1.98583 -41.51367,3.15236 -56.46259,4.76298 -112.8402,11.29895 -168.57681,21.62125 -24.08865,4.77284 -48.12925,9.77062 -71.82375,16.26879 -51.68076,11.89953 -34.85229,84.98717 16.82847,73.08764 z"/>
</svg>
