<?xml version="1.0" ?>
<svg xmlns="http://www.w3.org/2000/svg" width="1000" height="1000">
<path d="m 240.92883,317.9425 c 17.57342,-4.00074 35.21185,-7.70027 52.86388,-11.33928 45.87296,-8.77853 91.8549,-17.35038 138.18865,-23.36593 11.50255,-1.49339 23.04269,-2.68135 34.56404,-4.02202 57.89475,-5.71919 116.0365,-9.83425 174.2436,-9.78316 9.71482,0.009 19.42704,0.31806 29.14056,0.47709 29.52702,0.84813 58.97464,3.74443 87.92802,9.61137 52.0055,10.38881 66.69751,-63.15808 14.692,-73.54689 v 0 c -4.25263,-0.84004 -8.48852,-1.7698 -12.7579,-2.52012 -29.28082,-5.14593 -58.98434,-7.54086 -88.67557,-8.53497 -10.44403,-0.15992 -20.88685,-0.47726 -31.33211,-0.47975 -60.77751,-0.0145 -121.48807,4.26642 -181.93625,10.28247 -12.1858,1.42729 -24.39123,2.6959 -36.55739,4.28187 -47.8256,6.2345 -95.29427,15.05973 -142.64346,24.14526 -19.17626,3.95474 -38.35353,7.93115 -57.4109,12.42561 -51.17222,13.92493 -31.47939,86.29338 19.69283,72.36845 z"/>
<path d="m 480.61444,121.8324 c -0.17484,0.46891 -0.38242,0.92689 -0.52451,1.40674 -2.96328,10.0075 -2.98668,11.2246 -6.4696,22.5287 -7.27319,23.60569 -15.59866,46.9045 -23.57893,70.27495 -11.19767,31.59346 -22.7869,63.03751 -33.96731,94.63734 -17.68537,49.99728 53.02146,75.00816 70.70683,25.01088 v 0 c 3.72382,-10.53001 7.38445,-21.08258 11.17145,-31.59004 36.69409,-101.81187 -12.308,35.64858 23.06524,-63.82231 11.55583,-33.84234 23.56069,-67.57025 32.80305,-102.1414 11.52928,-51.764623 -61.67695,-68.069477 -73.20622,-16.30486 z"/>
<path d="m 348.03923,362.38702 c 4.69257,18.89777 5.58076,38.49915 6.82787,57.84831 2.37419,46.64762 2.01732,93.3827 1.542,140.07162 -0.84226,32.35574 -0.82263,64.81048 -3.86715,97.06436 -0.39126,4.14514 -0.92553,8.27553 -1.3883,12.41329 -0.90266,7.69329 -2.30085,15.30356 -3.93097,22.86942 -10.94819,51.89063 62.43625,67.3737 73.38443,15.48307 v 0 c 2.07472,-9.97551 3.95101,-19.98943 5.09382,-30.12432 1.5837,-14.51061 1.95479,-16.51767 2.93379,-31.67314 1.83355,-28.38449 2.14829,-56.84457 2.77052,-85.27175 0.4912,-48.5734 0.83978,-97.19532 -1.69776,-145.72301 -1.67638,-25.34574 -3.11917,-51.03913 -10.16406,-75.58859 -16.00234,-50.5611 -87.50654,-27.93036 -71.50419,22.63074 z"/>
<path d="m 425.34363,399.22207 c 15.62018,-3.04562 31.3764,-5.35507 47.1005,-7.79401 29.45071,-4.67601 58.86109,-9.61873 88.17941,-15.0657 15.48094,-2.817 30.90971,-5.96399 46.48733,-8.21527 0.78129,-0.0998 3.59377,-0.47766 4.64306,-0.55609 0.16358,-0.0122 -0.31843,0.0961 -0.48245,0.0969 -1.6755,0.008 -3.38018,0.24358 -5.02605,-0.0702 -3.59171,-0.68473 -7.24644,-1.39713 -10.57767,-2.9045 -3.17561,-1.43696 -5.79407,-3.87637 -8.69111,-5.81455 -7.42467,2.14795 -3.48067,-7.9489 -7.1194,-9.51317 -0.73299,-0.3151 0.2183,1.58072 0.33654,2.36976 0.3042,2.03009 0.66655,4.05183 0.93075,6.08752 1.12316,8.65428 1.20285,11.22008 1.94828,20.45283 2.02115,33.93533 2.43964,67.94334 2.83339,101.92895 0.301,37.19229 0.41899,74.38684 0.26582,111.58009 0.2332,29.37639 -1.73007,58.67693 -5.08239,87.84236 -2.49733,19.64244 -5.1824,39.26078 -7.63435,58.90899 -0.97145,8.02736 -1.77995,16.07699 -2.17138,24.15475 1.49387,-11.00767 -0.0396,-4.73363 6.2681,-18.33434 -31.66561,42.54161 28.49731,87.32355 60.16293,44.78194 v 0 c 8.29461,-16.39497 5.99486,-8.56781 8.48762,-22.95517 0.26402,-6.14465 0.97978,-12.26004 1.67638,-18.36713 2.47968,-19.90352 5.21749,-39.774 7.72575,-59.67392 3.62569,-31.89374 5.80538,-63.93008 5.56671,-96.05047 0.15295,-37.58582 0.037,-75.17293 -0.27024,-112.75776 -0.41596,-35.75775 -0.86023,-71.54122 -3.08363,-107.24116 -1.02358,-12.13681 -1.93212,-24.30111 -4.33073,-36.26767 -1.28539,-6.41274 -3.149,-14.16455 -6.34488,-19.89421 -2.12579,-3.8112 -5.11032,-7.07541 -7.66549,-10.61312 -3.65996,-2.68599 -6.92964,-6.00727 -10.97988,-8.05798 -10.33584,-5.23322 -21.21226,-5.08205 -32.19055,-3.35029 -16.54379,2.42224 -32.95109,5.6544 -49.38888,8.69597 -28.583,5.31594 -57.25869,10.12411 -85.97068,14.68917 -16.49066,2.55875 -33.01118,5.00073 -49.39471,8.18647 -52.12861,9.75235 -38.33671,83.47334 13.7919,73.72099 z"/>
<path d="m 413.05766,529.16568 c 18.16954,-2.38505 36.23626,-5.48898 54.38254,-8.0524 18.15584,-2.31518 36.40805,-3.81685 54.65536,-5.20352 2.19418,0.20045 4.66429,-0.60742 6.87883,-0.11468 52.96575,2.67012 56.74186,-72.23476 3.77611,-74.90488 v 0 c -5.45312,-0.19548 -10.90132,-0.27521 -16.34567,0.23577 -19.85781,1.51299 -39.72006,3.16004 -59.47307,5.72714 -16.72011,2.36982 -33.39229,5.04157 -50.08863,7.57048 -52.85064,4.39434 -46.6361,79.13643 6.21453,74.74209 z"/>
<path d="m 431.49942,655.59591 c -0.23077,0.10383 -0.94456,0.33145 -0.6923,0.31151 0.65823,-0.052 1.29307,-0.2682 1.93795,-0.40998 3.73706,-0.8216 5.46079,-1.28489 9.27717,-1.9123 4.14702,-0.68176 8.02524,-1.06428 12.22415,-1.54534 14.95252,-1.59844 30.00774,-1.57659 45.02443,-1.84742 7.56662,-0.14911 15.13373,-0.27004 22.70105,-0.37679 53.02772,-0.74855 51.96911,-75.74108 -1.05861,-74.99253 v 0 c -7.66608,0.10828 -15.33194,0.23058 -22.99731,0.38156 -17.47988,0.31641 -35.00022,0.37696 -52.39614,2.3446 -13.35042,1.58991 -26.74085,3.47647 -39.60019,7.54368 -49.85316,18.08765 -24.27335,88.59066 25.5798,70.50301 z"/>
<path d="m 377.17049,771.26005 c 2.34137,-0.18918 4.68927,-0.31001 7.02411,-0.56754 1.00576,-0.11094 10.89696,-1.63447 11.6631,-1.75082 8.89588,-1.35093 17.78778,-2.66425 26.70678,-3.85523 27.06638,-3.43871 54.313,-5.08774 81.54723,-6.48909 21.83025,-0.90997 43.66528,-1.85253 65.51856,-1.73079 7.18119,-0.0521 14.30247,0.78801 21.41648,1.63676 52.66037,6.27575 61.53562,-68.19727 8.87525,-74.47301 v 0 c -9.93876,-1.18325 -19.90337,-2.18971 -29.92809,-2.16287 -23.26379,-0.0985 -46.5092,0.81981 -69.74791,1.8296 -29.27256,1.51511 -58.55613,3.32058 -87.64419,7.05405 -9.37369,1.2604 -18.72067,2.63088 -28.07108,4.05085 -1.97274,0.29958 -3.94539,0.59974 -5.9174,0.90412 -1.05926,0.16349 -2.17579,0.11532 -3.17638,0.49949 -0.53972,0.20723 1.15569,0.0363 1.73354,0.0545 -53.03301,0 -53.03301,75 0,75 z"/>
<path d="m 164.05997,571.16945 c 0.64757,20.33219 1.59524,40.6532 2.18069,60.98935 0.90823,33.11597 0.42622,66.24825 0.18339,99.36994 -0.55841,29.17632 -0.18939,58.35792 1.00907,87.51245 2.1915,52.98771 77.12744,49.88846 74.93594,-3.09925 v 0 c -1.16313,-27.93845 -1.48198,-55.90396 -0.94702,-83.86335 0.24946,-34.02631 0.73302,-68.06335 -0.2126,-102.08355 -0.56753,-19.61503 -1.40254,-39.21813 -2.14947,-58.82559 0,-53.03301 -75,-53.03301 -75,0 z"/>
<path d="m 187.87433,896.36275 c 9.76948,1.67988 19.67198,0.65286 29.4199,-0.5766 15.54355,-2.4146 31.14719,-4.43709 46.75958,-6.35039 26.1154,-3.3075 52.3231,-5.79133 78.53297,-8.20682 29.19984,-2.71114 58.4584,-4.73403 87.70626,-6.84663 27.24036,-1.9672 54.51011,-3.45604 81.79337,-4.66827 24.80293,-1.22466 49.63294,-1.02519 74.45501,-0.94699 24.99872,0.41354 49.9944,0.98958 74.99564,1.2621 22.48067,-0.0816 44.94675,0.74642 67.41611,1.32177 15.33595,0.31305 30.64842,1.34149 45.92898,2.64273 7.47631,0.54446 14.86708,1.76573 22.25313,2.99051 1.85016,0.32061 1.18948,0.15445 2.01,0.36993 51.98743,10.47887 66.80679,-63.04247 14.81935,-73.52133 v 0 c -3.04449,-0.59403 -1.52433,-0.31483 -4.56036,-0.83827 -9.35163,-1.55066 -18.72137,-3.01397 -28.18214,-3.73239 -16.75227,-1.41644 -33.53789,-2.53977 -50.35002,-2.88663 -22.83837,-0.58425 -45.67362,-1.42001 -68.5234,-1.34193 -25.1933,-0.27061 -50.38059,-0.87063 -75.57166,-1.26612 -26.01131,-0.0815 -52.0307,-0.26107 -78.02169,1.02062 -27.97471,1.24442 -55.93565,2.77163 -83.86641,4.78922 -29.74171,2.14895 -59.4941,4.20882 -89.18682,6.96834 -26.96269,2.48621 -53.92242,5.04909 -80.78828,8.44917 -15.83593,1.94775 -31.668,3.97749 -47.43358,6.43625 -2.52137,0.3631 -3.1646,0.49923 -5.50717,0.69957 -0.59181,0.0506 -2.31965,-0.0354 -1.7714,0.19312 0.18182,0.0758 0.65683,-0.0521 0.57694,0.12793 -0.0819,0.18456 -0.4009,-0.0486 -0.60135,-0.0729 -52.31461,-8.6995 -64.61757,65.28453 -12.30296,73.98403 z"/>
</svg>
