<?xml version="1.0" ?>
<svg xmlns="http://www.w3.org/2000/svg" width="1000" height="1000">
<path d="m 171.08402,387.50779 c 19.82857,-8.80736 41.22836,-13.07914 62.37198,-17.37627 36.49738,-6.20285 73.42693,-10.78438 110.49041,-11.27147 6.4777,-0.0851 12.95588,0.12866 19.43382,0.19298 16.58269,0.34197 33.00419,2.4783 49.28151,5.50189 52.16853,9.53649 65.65517,-64.24095 13.48664,-73.77744 v 0 c -20.54066,-3.70908 -41.25204,-6.37346 -62.16133,-6.72199 -7.56926,-0.0493 -15.13931,-0.26785 -22.70778,-0.148 -41.22761,0.65287 -82.3114,5.69583 -122.88996,12.75299 -7.05015,1.45684 -14.13081,2.77313 -21.15045,4.37053 -18.96951,4.31676 -37.78457,9.72994 -55.64301,17.51703 -48.761913,20.85129 -19.27374,89.81104 29.48817,68.95975 z"/>
<path d="m 282.57412,178.86431 c 0.2102,27.50442 0.87624,54.999 1.58483,82.49436 1.63269,62.18213 3.36562,124.36155 4.59163,186.55329 1.29344,75.10938 -0.75142,150.21068 -3.81925,225.2503 -2.84187,52.02802 -5.42458,104.1816 -11.97609,155.91082 -0.97862,7.72692 -2.20194,15.42087 -3.3029,23.13131 -1.10954,6.52674 -2.21908,13.05349 -3.32863,19.58024 -8.85314,52.28883 65.09444,64.80906 73.94758,12.52023 v 0 c 1.2118,-7.18366 2.4236,-14.36732 3.6354,-21.55098 1.19416,-8.44421 2.5171,-16.8712 3.58249,-25.33262 6.73473,-53.48834 9.47358,-107.40272 12.37969,-161.19865 3.12297,-76.55217 5.19766,-153.16716 3.86712,-229.79003 -1.23091,-62.34275 -2.96339,-124.6733 -4.60194,-187.00642 -0.6922,-26.85133 -1.34881,-53.70174 -1.55993,-80.56185 0,-53.03301 -75,-53.03301 -75,0 z"/>
<path d="m 272.81709,332.24333 c -1.68108,3.19744 -3.32559,6.27884 -4.87219,9.58574 -7.13788,15.26203 -2.28789,5.88991 -9.87444,22.35357 -5.24663,11.3858 -10.63373,21.77112 -16.31266,33.0353 -30.953,60.28007 -69.72413,116.00066 -108.17007,171.63488 -20.86682,30.36394 -43.370747,59.53055 -65.895358,88.66462 -32.431083,41.96099 26.910723,87.82547 59.341808,45.86447 v 0 c 23.33095,-30.1962 46.63428,-60.4304 68.25628,-91.89374 40.40278,-58.47739 81.01887,-117.12191 113.45001,-180.5312 7.3415,-14.58762 11.41041,-22.32025 18.03843,-36.70524 2.87766,-6.24546 5.37217,-12.66298 8.25925,-18.90408 1.2549,-2.71274 3.38591,-6.73419 4.83099,-9.50339 23.75944,-47.41296 -43.29261,-81.01389 -67.05205,-33.60093 z"/>
<path d="m 311.99079,451.59985 c 12.33397,12.39787 23.85038,25.55989 35.13918,38.90483 13.07297,15.81459 26.56523,31.36169 37.92927,48.49151 5.9093,8.90751 6.52834,10.53539 11.35108,19.54233 1.21463,2.6238 2.42927,5.2476 3.6439,7.8714 22.62506,47.96465 90.45731,15.96799 67.83225,-31.99665 v 0 c -1.86758,-3.91045 -3.73517,-7.8209 -5.60276,-11.73135 -6.91827,-12.56701 -7.76598,-14.73512 -15.94184,-26.92274 -12.6836,-18.90726 -27.44737,-36.26264 -41.98859,-53.73638 -13.17866,-15.53337 -26.60251,-30.89467 -41.128,-45.19545 -38.73001,-36.22825 -89.9645,18.54425 -51.23449,54.7725 z"/>
<path d="m 456.20794,361.93576 c -3.459,23.39036 -3.68432,47.12143 -4.42725,70.71123 -1.30899,52.62024 -1.44313,105.25446 -1.42999,157.88748 -0.1245,57.49512 0.90826,114.9834 0.77684,172.47789 -0.18381,31.5673 -0.90192,63.12806 -1.87539,94.6798 -1.63433,53.00782 73.33005,55.31911 74.96438,2.31129 v 0 c 0.99415,-32.26607 1.72696,-64.54136 1.91082,-96.82334 0.12598,-57.55679 -0.89133,-115.10726 -0.77665,-172.66462 -0.0133,-51.84121 0.11393,-103.68341 1.39297,-155.51228 0.62768,-20.00998 0.8055,-40.11828 3.31804,-60.00528 9.23635,-52.2225 -64.61742,-65.28468 -73.85377,-13.06217 z"/>
<path d="m 571.84311,288.49253 c 14.05034,-4.26533 28.19961,-8.20747 42.60153,-11.11806 5.01026,-1.01256 10.05248,-1.85993 15.07871,-2.78989 31.27195,-5.10764 62.95336,-6.49209 94.58244,-6.95304 13.19639,0.21198 26.44973,-0.40498 39.63669,0.36465 -1.67039,0.39203 -1.91446,0.47874 -4.88635,-0.74973 -4.32945,-1.78964 -8.98575,-3.28335 -12.55317,-6.31989 -8.02809,-6.8334 -11.77689,-14.2206 -12.98913,-24.06363 -1.88512,17.8354 -3.14313,35.72144 -4.16743,53.62397 -2.01385,40.54204 -0.50596,81.13306 0.31769,121.68382 1.25636,49.45679 0.58611,98.91963 -0.61883,148.36741 -0.81104,32.95071 -1.82775,65.90028 -3.93932,98.79717 -1.39156,21.67958 -1.77511,24.61598 -3.65992,46.06117 -3.90179,39.38686 -9.29046,78.60443 -14.26037,117.86545 -2.66551,20.38385 -4.92412,40.81663 -7.27758,61.23776 -6.07101,52.68437 68.43594,61.27008 74.50695,8.58571 v 0 c 2.32095,-20.1434 4.54693,-40.29847 7.17689,-60.40497 5.09034,-40.21508 10.61023,-80.38591 14.56756,-120.73415 1.96565,-22.47659 2.37644,-25.67318 3.82448,-48.33507 2.15421,-33.71343 3.21043,-67.4798 4.0391,-101.248 1.22947,-50.5638 1.90445,-101.14313 0.62556,-151.71601 -0.78499,-38.62376 -2.26152,-77.28549 -0.42312,-115.9033 1.03481,-18.33034 2.52114,-36.61701 4.22888,-54.89514 -0.0661,-7.39836 0.51356,-14.15453 -3.0583,-21.22921 -2.8928,-5.72969 -6.52022,-11.29105 -11.25707,-15.62231 -7.51373,-6.87036 -16.88267,-9.10913 -26.46109,-9.90797 -14.81658,-0.68043 -29.66519,-0.42374 -44.49141,-0.44938 -35.86612,0.54693 -71.78721,2.25383 -107.22111,8.21736 -5.89294,1.10762 -11.80528,2.11663 -17.67882,3.32286 -15.80735,3.24632 -31.37143,7.50033 -46.80489,12.18595 -51.00112,14.53913 -30.43969,86.6656 20.56143,72.12647 z"/>
<path d="m 511.45742,531.40725 c 19.88216,-4.8184 39.97083,-8.89186 60.1838,-12.06488 5.8473,-0.9179 11.7209,-1.65966 17.58134,-2.48949 25.47407,-2.62775 51.29127,-4.67463 76.80544,-1.51191 52.67915,6.11611 61.32864,-68.38346 8.64948,-74.49957 v 0 c -9.90236,-1.10124 -12.36398,-1.54714 -22.91722,-1.90069 -24.41678,-0.81802 -48.87298,0.94801 -73.12209,3.66279 -6.59501,0.94571 -13.20414,1.79773 -19.78504,2.83715 -22.35455,3.53079 -44.57041,8.06113 -66.54743,13.45307 -51.27481,13.54231 -32.12309,86.05584 19.15172,72.51353 z"/>
<path d="m 510.36668,680.75762 c 12.19075,-4.98493 25.29973,-7.24302 38.17971,-9.67174 28.33759,-4.59121 57.09043,-5.28908 85.73019,-4.68306 4.0444,0.17835 8.0888,0.3567 12.13319,0.53504 52.98345,2.29232 56.22527,-72.63758 3.24183,-74.9299 v 0 c -4.62401,-0.19669 -9.24801,-0.39338 -13.87202,-0.59007 -5.36259,-0.10231 -10.72426,-0.28494 -16.08779,-0.30692 -28.50111,-0.11681 -57.07598,1.74749 -85.22049,6.30747 -18.92652,3.65418 -38.08459,7.37465 -55.76291,15.34835 -48.07677,22.3858 -16.41848,90.37662 31.65829,67.99083 z"/>
<path d="m 510.94246,878.03071 c 15.90196,-4.82953 32.46453,-7.25745 48.84718,-9.83294 35.74561,-5.0897 71.90592,-6.05139 107.94214,-7.26562 22.02379,-0.81076 44.0621,-0.49615 66.06965,0.5365 52.9761,2.4562 56.44969,-72.46332 3.47359,-74.91952 v 0 c -24.00822,-1.10127 -48.0481,-1.46223 -72.07325,-0.5743 -39.11222,1.32234 -78.35063,2.46912 -117.12913,8.14384 -21.62055,3.43796 -43.52706,6.72075 -64.26062,13.99109 -49.44158,19.18412 -22.31114,89.10507 27.13044,69.92095 z"/>
</svg>
