<?xml version="1.0" ?>
<svg xmlns="http://www.w3.org/2000/svg" viewBox="0 0 1000 1000">
<path d="m 453.35089,95.24877 c 0.73263,4.056236 1.54189,8.63326 2.06382,12.90732 1.53206,11.54834 1.75237,23.21118 2.18799,34.83689 1.22681,35.23573 2.20594,70.4795 3.19736,105.72246 1.26351,39.45504 2.04354,78.92484 1.78273,118.40039 -0.3269,10.02327 -0.19016,20.07968 -0.88283,30.09111 -0.0902,1.30374 -0.63045,5.18876 -0.44226,3.89553 1.96336,-13.49203 -2.50556,-0.87875 15.73026,-24.20627 6.60928,-1.50043 13.21856,-3.00087 19.82785,-4.5013 0.44457,-0.23656 1.69999,-0.36405 1.33373,-0.70967 -1.99094,-1.87871 -4.63152,-2.92433 -6.86381,-4.50869 -3.30199,-2.34358 -6.5329,-4.78748 -9.73177,-7.26997 -11.34327,-8.80302 -15.19679,-12.23245 -26.40377,-21.64407 -4.10025,-3.98185 -8.20051,-7.96369 -12.30076,-11.94554 -38.23089,-36.75458 -90.20971,17.31206 -51.97883,54.06664 v 0 c 5.36249,5.11549 10.72499,10.23097 16.08748,15.34646 14.46763,12.11683 28.85496,24.52951 44.57124,35.04229 6.30462,4.21723 22.77526,14.36889 30.17761,15.08493 9.95345,0.96282 19.93412,-1.61969 29.90118,-2.42954 7.01444,-7.48304 15.18569,-14.02972 21.04332,-22.44912 2.44914,-3.52025 2.41742,-8.24192 3.23782,-12.45112 0.50761,-2.60433 0.55502,-5.27881 0.73386,-7.92612 0.74178,-10.98028 0.61832,-22.00715 0.9581,-33.00019 0.25588,-40.34046 -0.51241,-80.67523 -1.81081,-120.99476 -0.99804,-35.47763 -1.9838,-70.95607 -3.22047,-106.42637 -0.52111,-13.86268 -0.88613,-27.75936 -2.73954,-41.525689 -1.19815,-9.14992 -2.64068,-18.321788 -5.32416,-27.170359 -16.80423,-50.30028 -87.93956,-26.535521 -71.13534,23.764758 z"/>
<path d="m 293.40886,202.69228 c -0.0603,-0.44925 0.16587,-1.63978 -0.18082,-1.34777 -0.78461,0.6609 -1.02137,1.78296 -1.44504,2.71726 -1.57919,3.48246 -2.96015,7.05308 -4.56032,10.52595 -2.35288,5.1065 -4.74421,10.19784 -7.29671,15.20754 -8.97967,17.62411 -12.86021,23.68463 -23.2249,41.53996 -19.7777,33.82189 -42.73281,65.56307 -65.50096,97.3868 -13.91732,19.45265 -13.67713,19.19312 -26.61224,37.62566 -30.46172,43.41179 30.93183,86.49116 61.39355,43.07937 v 0 c 32.53757,-46.37435 66.85288,-91.60509 95.61945,-140.5017 4.82809,-8.35244 9.79934,-16.62375 14.48428,-25.05731 7.59693,-13.67556 13.70741,-25.67163 20.09667,-39.7907 3.72695,-8.23589 8.27543,-19.00237 10.55642,-27.85833 0.85122,-3.30488 1.06194,-6.74237 1.59291,-10.11355 2.41348,-52.97807 -72.50882,-56.39124 -74.92229,-3.41318 z"/>
<path d="m 662.23861,228.28857 c 22.21787,5.16894 42.78555,15.22656 63.15686,25.19683 18.36781,9.35035 36.11132,19.9823 52.43989,32.59098 7.20417,5.56295 8.92096,7.3063 15.35931,13.10268 2.74173,2.95403 6.36927,5.59561 8.16533,9.33917 30.33003,43.5039 91.85383,0.61075 61.52379,-42.89315 v 0 c -1.83023,-2.50092 -3.53983,-5.09476 -5.49068,-7.50277 -5.15401,-6.36179 -8.36379,-9.14249 -14.28137,-14.91901 -8.87707,-7.86236 -11.21959,-10.20546 -21.01767,-17.67581 -19.93078,-15.19581 -41.47098,-28.13826 -63.816,-39.44932 -24.62586,-11.97871 -49.56636,-23.79748 -76.3467,-30.15807 -51.17224,-13.92488 -70.865,58.44359 -19.69276,72.36847 z"/>
<path d="m 635.61616,272.08075 c -1.23281,1.12068 -2.51537,2.18895 -3.69842,3.36205 -9.26027,9.18233 -17.69548,19.18977 -26.18425,29.07243 -33.36154,38.83961 7.65946,-8.59345 -31.13434,36.16962 -43.62851,50.09208 -87.67653,99.84339 -133.36177,148.07885 -11.34295,11.97612 -22.86692,23.77948 -34.30037,35.66923 -57.73929,59.39171 -120.25619,113.9073 -184.34667,166.29985 -11.27537,9.21737 -22.71453,18.23255 -34.07179,27.34883 -28.60376,22.79318 -58.45117,43.91443 -88.43378,64.82695 -43.489631,30.3505 -0.567553,91.85411 42.92207,61.50362 v 0 c 31.34918,-21.8896 62.55984,-43.99334 92.46686,-67.84798 11.69013,-9.38827 23.46378,-18.67346 35.07037,-28.1648 66.23722,-54.16572 130.7924,-110.58323 190.45784,-171.98584 11.69956,-12.17084 23.49112,-24.25391 35.09868,-36.51252 46.30178,-48.89877 90.95605,-99.32295 135.17775,-150.09929 37.22855,-42.96383 0.0451,0.0503 31.16282,-36.20251 3.29359,-3.83709 6.5962,-7.66657 9.92519,-11.47298 3.30296,-3.77665 6.50485,-7.65319 10.03514,-11.21824 0.94564,-0.95495 1.98639,-1.81079 2.97958,-2.71619 39.67653,-35.1891 -10.08838,-91.30019 -49.76491,-56.11108 z"/>
<path d="m 417.88119,573.66379 c 0,31.60787 0,63.21574 0,94.82361 -0.55837,58.03772 -0.90884,116.07204 -0.66566,174.11233 0.1291,24.89256 0.30087,49.78487 0.47184,74.67717 0.36424,53.03176 75.36247,52.51666 74.99823,-0.5151 v 0 c -0.17051,-24.82549 -0.34183,-49.65098 -0.47073,-74.47672 -0.2434,-57.93544 0.11471,-115.86478 0.66632,-173.79768 0,-31.60787 0,-63.21574 0,-94.82361 0,-53.03301 -75,-53.03301 -75,0 z"/>
<path d="m 507.00579,603.59709 c 17.37516,-4.50874 35.28028,-6.78814 53.02966,-9.30226 25.52014,-3.50523 51.0583,-6.88243 76.65835,-9.75217 5.34775,-0.57744 10.69963,-1.12429 16.06167,-1.55268 0.85767,-0.0685 1.71513,-0.14298 2.57438,-0.18733 0.0952,-0.005 0.37862,0.0369 0.2833,0.0398 -0.73404,0.0227 -1.46873,0.0131 -2.2031,0.0196 -9.94428,-0.88981 -17.5157,-5.22268 -24.11381,-12.7503 -1.99628,-2.2775 -3.23846,-5.12456 -4.67299,-7.79182 -1.30165,-2.42019 -1.00673,-4.27985 -1.2002,-2.07071 1.34289,27.2787 1.51609,54.61076 2.05498,81.91594 1.12417,47.88166 0.63296,95.77703 0.25395,143.66392 -0.24173,35.96874 -0.46114,71.94007 -1.92603,107.88317 -2.14959,52.98943 72.78878,56.02941 74.93837,3.03999 v 0 c 1.48466,-36.75876 1.75508,-73.54465 1.98532,-110.32963 0.38441,-48.57807 0.87324,-97.16465 -0.26621,-145.73737 -1.23702,-62.67685 0.35305,18.10354 -0.76672,-39.42704 -0.26394,-13.56068 -0.37053,-27.14815 -1.11345,-40.69459 -0.15569,-2.8388 -0.40604,-5.67161 -0.60906,-8.50742 -0.7394,-5.60268 -1.14645,-11.40609 -3.3694,-16.71001 -3.89283,-9.28818 -7.86194,-15.16097 -16.54351,-20.92092 -3.65702,-2.42632 -7.93558,-3.80302 -12.09695,-5.19723 -2.19285,-0.73469 -4.56154,-0.76544 -6.84231,-1.14816 -1.76359,-0.0721 -3.52576,-0.20216 -5.29076,-0.21624 -8.52957,-0.0681 -17.01571,1.57777 -25.49938,2.14662 -26.32754,2.95605 -52.59343,6.41742 -78.83845,10.02915 -21.32028,3.03323 -42.80533,5.86949 -63.60638,11.59241 -50.88713,14.9332 -29.7684,86.89846 21.11873,71.96526 z"/>
<path d="m 490.11763,720.77509 c 16.29056,-4.16355 32.74504,-7.58621 49.26789,-10.67881 8.20616,-1.6652 16.5266,-2.32085 24.86645,-2.7539 52.94065,-3.12852 48.51625,-77.99791 -4.4244,-74.86938 v 0 c -11.48829,0.73182 -22.96502,1.63848 -34.27772,3.9105 -19.83922,3.73311 -39.6566,7.75858 -59.10176,13.22451 -50.32272,16.7369 -26.65318,87.90397 23.66954,71.16708 z"/>
<path d="m 502.45755,815.3375 c 14.06395,-0.67829 28.15794,-0.38479 42.22557,0.0278 10.45453,0.46184 5.38701,0.21652 15.20293,0.72839 52.96154,2.75222 56.85378,-72.14671 3.89223,-74.89894 v 0 c -10.8042,-0.55966 -5.16161,-0.28951 -16.92834,-0.79815 -16.03597,-0.45736 -32.09854,-0.75855 -48.12933,0.034 -52.96713,2.64241 -49.2302,77.54925 3.73694,74.90684 z"/>
<path d="m 482.3884,936.56909 c 16.25,-3.34343 32.80876,-4.41776 49.3377,-5.26924 34.49943,-0.96473 68.97019,1.41499 103.39052,3.4217 4.84224,0.27639 9.68449,0.55279 14.52674,0.82919 52.94683,3.02214 57.22078,-71.85598 4.27395,-74.87812 v 0 c -4.81188,-0.27465 -9.62376,-0.5493 -14.43564,-0.82394 -37.21116,-2.16938 -74.48271,-4.68306 -111.77756,-3.44091 -5.89005,0.32696 -11.78732,0.54281 -17.67015,0.98089 -16.18655,1.20537 -32.40877,3.27766 -48.20684,7.05392 -51.00114,14.53902 -30.43987,86.66553 20.56128,72.12651 z"/>
</svg>
