<?xml version="1.0" ?>
<svg xmlns="http://www.w3.org/2000/svg" width="1000" height="1000">
<path d="m 77.936445,269.01008 c 0.278325,35.02714 0.383768,70.05556 0.47054,105.08381 0.03851,84.11077 0.438929,168.22078 0.490831,252.33148 -0.0031,37.78357 -0.06513,75.56709 -0.12248,113.3506 -0.08049,53.03295 74.919424,53.14678 74.999914,0.11383 v 0 c 0.0574,-37.83693 0.11949,-75.67387 0.12255,-113.51086 -0.0523,-84.15718 -0.45213,-168.31366 -0.49105,-252.47091 -0.0867,-34.96628 -0.18963,-69.9328 -0.47031,-104.89795 0,-53.03301 -74.999995,-53.03301 -74.999995,0 z"/>
<path d="m 213.8075,296.781 c 14.57459,-3.26439 29.4195,-4.93924 44.26196,-6.4008 16.68962,-1.64119 33.44816,-2.20997 50.20695,-1.82559 1.06534,0.0374 4.87307,0.15904 6.21151,0.24442 0.18982,0.0121 0.75429,0.0937 0.5643,0.0846 -3.95862,-0.188 -9.10384,-1.72205 -11.77518,-3.45473 -5.00052,-3.24342 -8.86657,-7.96768 -13.29985,-11.95153 -1.3379,-2.83278 -2.51575,-5.74683 -4.0137,-8.49834 -0.11863,-0.2179 -0.23206,0.4608 -0.22698,0.70886 0.0501,2.44383 0.26551,4.88149 0.39158,7.32259 0.91556,17.72771 1.56062,35.45737 2.17536,53.19806 1.64318,54.24941 3.24038,108.50517 3.26699,162.78466 0.006,12.84483 -0.13216,25.68933 -0.19824,38.53399 -0.89077,48.7629 -1.58102,97.55592 -3.7606,146.28439 -0.45127,10.08894 -1.10223,20.16796 -1.65335,30.25194 -2.88263,52.95461 72.00649,57.03127 74.88912,4.07666 v 0 c 0.57216,-10.55076 1.24535,-21.09652 1.71646,-31.65227 2.20892,-49.49317 2.91274,-99.05152 3.8074,-148.57964 0.0659,-13.12973 0.20555,-26.25929 0.19771,-39.38918 -0.0328,-54.98836 -1.64199,-109.95298 -3.31058,-164.91083 -0.63676,-18.33453 -1.23726,-36.66924 -2.25884,-54.98751 -0.24385,-4.3725 -0.78778,-16.30982 -2.00664,-20.72117 -1.32701,-4.80278 -3.53028,-9.31922 -5.29542,-13.97883 -4.97225,-4.85204 -9.21581,-10.58564 -14.91676,-14.55613 -8.01872,-5.58474 -19.47639,-5.3875 -28.85015,-5.7918 -19.7893,-0.42252 -39.58079,0.22789 -59.28713,2.17588 -16.97079,1.70366 -33.9506,3.62677 -50.62782,7.31128 -52.12861,9.75235 -38.3367,83.47333 13.7919,73.72098 z"/>
<path d="m 166.84081,438.73918 c 26.6797,-5.41114 53.94361,-6.44183 81.07032,-7.27224 25.44131,0.25552 12.68491,-0.22355 38.26859,1.45351 52.92909,3.31834 57.62194,-71.5347 4.69285,-74.85304 v 0 c -30.63739,-1.84846 -15.53157,-1.35141 -45.31503,-1.56353 -33.24754,1.06736 -66.76611,2.46759 -99.27831,10.10888 -51.001088,14.53923 -30.43951,86.66566 20.56158,72.12642 z"/>
<path d="m 126.51339,579.60911 c 17.98124,-2.16411 35.8695,-5.04267 53.89113,-6.88338 6.41191,-0.65491 12.83962,-1.14459 19.25943,-1.71688 19.92157,-1.60219 39.9076,-1.41268 59.87036,-1.27388 53.03192,0.33861 53.51079,-74.65986 0.47886,-74.99847 v 0 c -22.36244,-0.13119 -44.74967,-0.27807 -67.06139,1.57331 -7.09057,0.64169 -14.18962,1.19562 -21.2717,1.92509 -18.20673,1.87533 -36.2845,4.7426 -54.44927,6.95087 -52.625247,6.56378 -43.342667,80.98712 9.28258,74.42334 z"/>
<path d="m 138.79522,770.75118 c 1.71928,-0.62114 3.42369,-1.2851 5.15784,-1.86343 15.86535,-5.29093 32,-9.79444 48.04264,-14.5 69.07567,-20.261 -19.90045,5.79831 53.94727,-15.82177 40.12369,-10.87566 19.88091,-5.73327 60.73322,-15.40799 51.59828,-12.25224 34.27098,-85.22323 -17.3273,-72.97098 v 0 c -43.64387,10.38912 -22.15483,4.90701 -64.47885,16.40028 -66.61598,19.50296 8.27626,-2.43319 -53.94649,15.82155 -17.62741,5.17148 -35.35878,10.11599 -52.75255,16.04962 -2.56227,0.87408 -5.07919,1.87581 -7.61879,2.81372 -49.129075,19.97082 -20.886068,89.44983 28.24301,69.479 z"/>
<path d="m 447.29563,209.50394 c 28.18615,-6.88279 56.47709,-13.43702 85.03676,-18.60017 9.70211,-1.754 19.44918,-3.24949 29.17377,-4.87423 42.61452,-6.32286 85.61638,-10.01933 128.67157,-11.41362 22.70967,-0.73542 30.97719,-0.46998 53.03226,-0.30461 23.32815,0.88064 46.94635,1.30776 69.89113,6.08255 5.30201,1.46834 -0.73651,0.42391 -3.24322,-1.51328 -4.30963,-3.33048 -8.65498,-6.81337 -11.92942,-11.16573 -6.3247,-8.40673 -2.19975,-14.05034 -4.98682,-9.94297 -2.85186,25.07146 -4.98605,50.32389 -9.71653,75.13913 -1.24639,6.53833 -2.85483,13.00241 -4.28225,19.50362 -4.69593,18.9538 -10.8699,37.47738 -17.04541,55.98335 -16.75993,50.31506 54.3963,74.01719 71.15623,23.70214 v 0 c 7.00919,-21.07716 13.99678,-42.18208 19.1882,-63.80297 1.67802,-7.83065 3.55343,-15.62159 5.03408,-23.49194 2.51514,-13.36912 4.26459,-27.38555 5.94608,-40.89706 0.68627,-5.51447 3.02512,-25.25527 3.64212,-31.47774 0.40792,-4.11392 0.6948,-8.23894 1.0422,-12.35841 -0.0765,-11.55822 1.04853,-19.62383 -5.5416,-30.73635 -8.38228,-14.13451 -19.92778,-19.17019 -34.51183,-22.4767 -27.68991,-5.43392 -55.95453,-6.899368 -84.11576,-7.545786 -23.88561,-0.157494 -32.4343,-0.433991 -57.04968,0.384014 -46.03927,1.529952 -92.01712,5.539662 -137.5771,12.363822 -10.40981,1.74941 -20.84326,3.36354 -31.22944,5.24823 -30.1024,5.46241 -59.92781,12.36549 -89.63247,19.65364 -51.29428,13.46835 -32.24716,86.00942 19.04713,72.54107 z"/>
<path d="m 471.50436,334.47393 c 2.07652,-0.0932 4.15519,-0.14686 6.22955,-0.27964 16.63785,-1.06498 33.23587,-2.8155 49.84922,-4.18589 24.65329,-2.03357 30.66743,-2.41568 56.13231,-4.28898 51.00033,-3.52898 102.14962,-6.09024 153.28464,-4.57791 7.91138,0.23398 15.8131,0.72432 23.71965,1.08648 6.61735,0.47747 13.2347,0.95495 19.85205,1.43242 52.89797,3.78215 58.24673,-71.02688 5.34876,-74.80903 v 0 c -7.27413,-0.51575 -14.54826,-1.03151 -21.8224,-1.54726 -8.65707,-0.38471 -17.30916,-0.90558 -25.97121,-1.15414 -53.34714,-1.53086 -106.70909,1.07512 -159.91566,4.77168 -26.01079,1.91465 -31.86365,2.28415 -57.04994,4.36218 -15.60337,1.28737 -31.19887,2.95494 -46.8234,3.98738 -1.77353,0.11719 -3.55106,0.16277 -5.32659,0.24415 -53.0037,1.76283 -50.51068,76.72139 2.49302,74.95856 z"/>
<path d="m 419.88723,208.26973 c 4.15017,25.77976 4.87925,51.92131 5.63852,77.96805 0.48876,69.64527 -4.68241,139.17705 -8.66943,208.66817 -2.89105,51.4953 -5.02856,103.04713 -5.51041,154.62639 -0.29184,31.239 -0.0109,38.41278 0.43359,69.13811 0.94353,46.47755 3.66052,92.89067 7.53085,139.20906 0.84624,9.17352 1.57292,18.35891 2.45223,27.52948 0.13715,1.43031 0.92196,9.6876 1.42668,10.93126 2.61223,6.43663 6.01631,12.52277 9.02447,18.78415 15.23734,3.39283 30.10578,10.54309 45.71202,10.17849 6.37501,-0.14894 23.77624,-18.6509 28.20841,-23.26274 4.58488,-4.77073 9.03394,-9.67015 13.54713,-14.50875 17.18137,-18.42019 16.83277,-18.06381 34.73577,-37.32876 26.81761,-28.82143 13.23015,-14.31424 40.76798,-43.51629 36.3834,-38.5843 -18.18304,-90.0382 -54.56644,-51.4539 v 0 c -27.88918,29.57784 -14.17808,14.93714 -41.14106,43.91483 -26.52286,28.54072 -9.83939,10.60667 -34.64575,37.23207 -4.07919,4.37831 -8.13288,8.7805 -12.23517,13.13718 -2.39692,2.54554 -6.04775,4.2901 -7.26196,7.56892 -0.60839,1.64289 3.35133,-1.02246 5.027,-1.5337 13.38089,4.12646 26.76178,8.25292 40.14267,12.37937 2.2066,5.27135 4.37844,10.55737 6.61979,15.81403 0.10741,0.25191 -0.17938,-0.52139 -0.21503,-0.79291 -0.18535,-1.41173 -0.31108,-2.83073 -0.44681,-4.24808 -0.86376,-9.01984 -1.5811,-18.05389 -2.41296,-27.07658 -3.73524,-44.60254 -6.35387,-89.29663 -7.27782,-134.05265 -0.43707,-29.62107 -0.71182,-36.64187 -0.43623,-66.77937 0.46241,-50.56772 2.56384,-101.10841 5.39791,-151.5936 4.11168,-71.66451 9.43025,-143.37447 8.75924,-215.20007 -0.97122,-31.90225 -1.71785,-64.152 -8.2591,-95.50698 -13.98291,-51.15641 -86.329,-31.38159 -72.34609,19.77482 z"/>
<path d="m 467.69937,596.62978 c 23.26193,-7.36398 46.58153,-14.64834 70.06258,-21.29254 9.12457,-2.58189 18.30319,-4.96876 27.45479,-7.45313 41.91629,-10.74935 84.62332,-18.01404 127.5839,-23.00307 24.7961,-2.87958 33.89611,-3.40689 58.32898,-5.37666 27.84743,-2.0956 55.75112,-3.4735 83.68018,-3.29276 53.03212,0.30631 53.46531,-74.69244 0.43319,-74.99875 v 0 c -30.09287,-0.15567 -60.16036,1.24014 -90.16468,3.53603 -25.84236,2.0999 -35.66233,2.67773 -61.90432,5.75252 -46.34961,5.43083 -92.41679,13.35867 -137.63053,25.00892 -9.69362,2.6383 -19.41456,5.17821 -29.08086,7.91489 -9.63252,2.72712 -33.24478,9.89897 -43.80906,13.09711 -7.60925,2.30356 -19.34351,5.76984 -27.181,8.46886 -2.75349,0.94823 -5.45107,2.05162 -8.17661,3.07743 -48.48005,21.49848 -18.07661,90.05962 30.40344,68.56115 z"/>
<path d="m 575.47401,368.15334 c 7.34664,24.9931 14.56504,50.01639 21.39156,75.15758 9.99611,37.79844 20.26257,75.5551 32.28173,112.77095 8.9532,27.72251 11.94252,35.15035 21.92111,62.56594 18.57206,48.89121 38.2628,97.51614 62.30174,144.02101 4.27186,8.26419 8.85063,16.36608 13.27595,24.54912 14.70203,26.07026 30.99644,51.22096 48.67822,75.36562 8.29426,11.3259 10.79865,14.28338 19.22707,24.89887 10.24611,12.48276 20.68397,24.92956 33.03928,35.38948 20.65365,10.38652 22.53882,15.34234 52.28333,-1.92492 9.75366,-5.66219 14.89577,-26.74679 17.58837,-36.78805 2.14278,-7.99084 9.66401,-40.06138 11.08638,-46.06667 2.18454,-10.00924 4.36908,-20.01847 6.55362,-30.0277 11.29831,-51.81552 -61.9799,-67.79375 -73.27822,-15.97823 v 0 c -2.08565,9.57439 -4.1713,19.14878 -6.25695,28.72318 -1.99852,8.4409 -3.9727,16.88761 -5.99556,25.32272 -1.45785,6.07909 -2.99585,12.1388 -4.44652,18.2196 -0.58548,2.45414 -4.1842,7.43635 -1.66171,7.38438 3.4956,-0.072 4.00597,-6.42188 7.33155,-7.5012 31.06847,-10.08325 25.94125,-9.96791 44.19809,0.51621 -1.04262,0.0188 -0.23445,0.0419 -2.11236,-1.80645 -1.06258,-1.04586 -2.10855,-2.10902 -3.13264,-3.19261 -5.75458,-6.08894 -11.20875,-12.45848 -16.49736,-18.95371 -22.4586,-28.18453 -43.03274,-57.84998 -60.66591,-89.31692 -4.00248,-7.36742 -8.14763,-14.6591 -12.00744,-22.10226 -22.828,-44.02102 -41.41191,-90.11301 -59.04055,-136.40648 -9.34151,-25.61124 -12.36121,-33.15189 -20.73209,-59.03176 -11.77117,-36.39245 -21.78472,-73.32692 -31.56264,-110.29341 -6.80644,-25.03954 -13.94132,-49.98013 -21.31118,-74.85926 -13.6931,-51.23474 -86.14997,-31.86977 -72.45687,19.36497 z"/>
</svg>
