<?xml version="1.0" ?>
<svg xmlns="http://www.w3.org/2000/svg" viewBox="0 0 1000 1000">
<path d="m 91.742238,316.3794 c -1.030035,37.59353 -2.342279,75.17511 -3.135709,112.77727 -1.369898,88.29848 -1.983309,176.60592 -3.145254,264.907 -0.563675,38.0376 -1.441514,76.06924 -2.3165,114.10058 -1.219673,53.01898 73.760495,54.74386 74.980165,1.72487 v 0 c 0.88046,-38.2774 1.76347,-76.55512 2.32985,-114.83885 1.15882,-88.10372 1.77417,-176.21372 3.13513,-264.31492 0.68152,-32.44438 0.54333,-30.70952 1.55141,-61.41914 0.3083,-9.39192 1.11604,-29.56439 1.37726,-39.95297 0.25165,-10.00793 0.18152,-9.71145 0.0322,-18.33926 -3.78685,-52.89763 -78.595411,-47.54222 -74.808562,5.35542 z"/>
<path d="m 222.64969,357.63742 c 13.61497,-5.65783 28.09481,-8.6891 42.53849,-11.33487 14.37091,-1.96784 28.9527,-4.14049 43.49947,-3.18124 0.47025,0.0509 2.70192,0.26741 3.39043,0.41638 0.17539,0.0379 -0.36138,0.0112 -0.53793,-0.0209 -0.76594,-0.13932 -1.55029,-0.22929 -2.28305,-0.49222 -2.23144,-0.80069 -4.58661,-1.41261 -6.58409,-2.68952 -3.3832,-2.16275 -6.26839,-5.02011 -9.40259,-7.53016 -7.35875,-2.16421 -4.254,-9.83892 -7.41902,-14.10588 -0.56937,-0.76761 0.0628,1.91047 0.10262,2.86537 0.11302,2.70783 0.25305,5.41454 0.356,8.12277 0.21039,5.5345 0.86303,25.83238 0.99052,29.74146 2.30895,58.20678 2.0855,116.46643 1.45397,174.7021 -0.53413,48.01272 -3.19876,96.02023 -9.72618,143.61298 -3.47957,25.37018 -6.06728,38.19968 -10.55087,62.87457 -9.45965,52.18252 64.33757,65.56048 73.79722,13.37796 v 0 c 4.81397,-26.61423 7.50604,-39.95627 11.22984,-67.40397 6.81917,-50.26339 9.68156,-100.95178 10.24561,-151.65081 0.6393,-59.32108 0.8568,-118.66622 -1.48946,-177.9579 -0.12197,-3.73896 -0.81982,-25.48238 -1.0282,-30.70613 -0.3693,-9.25781 -0.24477,-21.06089 -3.7922,-29.75192 -1.76569,-4.32583 -4.62039,-8.12243 -6.93059,-12.18365 -3.62356,-3.08803 -6.9206,-6.60646 -10.87068,-9.26409 -7.65914,-5.15313 -18.22035,-6.07166 -27.16742,-6.86089 -20.45703,-0.89296 -40.89611,1.04204 -61.08252,4.36609 -4.61626,0.878 -9.2524,1.65726 -13.84878,2.63399 -14.00346,2.97576 -27.86293,6.88661 -41.17328,12.1765 -49.67001,18.58467 -23.38732,88.82868 26.28269,70.24401 z"/>
<path d="m 157.45403,502.14046 c 20.7751,-2.58023 41.47247,-5.77329 62.27851,-8.10819 6.34279,-0.71181 12.699,-1.29862 19.0485,-1.94792 15.01181,-1.11955 19.2726,-1.72758 33.83259,-1.76959 4.35475,-0.0126 8.70666,0.22364 13.05999,0.33546 53.02025,1.16321 54.66528,-73.81874 1.64503,-74.98196 v 0 c -5.63031,-0.10721 -11.25977,-0.36489 -16.89094,-0.32163 -16.97082,0.13034 -22.19236,0.82876 -39.30571,2.12981 -6.84654,0.70536 -13.70006,1.3459 -20.5396,2.11609 -21.60832,2.43326 -43.10975,5.71967 -64.6814,8.44309 -52.400042,8.16922 -40.84701,82.27407 11.55303,74.10484 z"/>
<path d="m 148.57675,640.13604 c 18.24943,-2.83823 36.48271,-5.874 54.842,-7.93743 6.35829,-0.71462 12.73537,-1.25086 19.10305,-1.87629 20.13276,-1.88308 40.33035,-2.43626 60.53238,-2.83574 53.0218,-1.09045 51.47967,-76.0746 -1.54212,-74.98415 v 0 c -22.15475,0.47146 -44.30642,1.08482 -66.38301,3.18513 -7.08944,0.70753 -14.18897,1.32034 -21.26832,2.12258 -19.51219,2.21116 -38.89671,5.41656 -58.29001,8.46222 -52.22951,9.19666 -39.223485,83.06033 13.00603,73.86368 z"/>
<path d="m 152.39249,823.90445 c 22.97461,-11.85613 46.29949,-23.15085 69.8881,-33.7433 8.33759,-3.74399 16.76564,-7.28316 25.14847,-10.92474 8.93728,-3.55188 17.87456,-7.10376 26.81184,-10.65564 49.27109,-19.61786 21.52724,-89.29769 -27.74384,-69.67983 v 0 c -9.6605,3.85305 -19.321,7.70609 -28.98149,11.55914 -8.96419,3.90331 -17.97464,7.70205 -26.89257,11.70992 -11.98515,5.38633 -29.8851,13.98189 -42.09558,19.84719 -10.98478,5.27654 -16.77878,7.98567 -27.09086,13.36301 -2.17502,1.13419 -4.30685,2.34936 -6.46028,3.52404 -45.962091,26.45726 -8.54588,91.45747 37.41621,65.00021 z"/>
<path d="m 618.1994,134.39574 c 0.65263,-2.0964 2.36586,-4.1318 1.9579,-6.28921 -0.25135,-1.32922 -1.68288,2.11881 -2.55019,3.15696 -8.49107,10.16356 -7.85393,9.33591 -18.56913,20.70434 -17.6991,18.77808 -16.14591,16.96267 -35.31831,36.35842 -40.84439,40.3647 -82.93436,79.43035 -125.89896,117.52148 -9.99955,8.65824 -15.21077,13.23688 -24.93892,21.43864 -1.74865,1.47428 -11.82453,9.72318 -14.10741,11.93888 -2.1968,2.13217 -7.15416,3.78686 -6.2644,6.71609 6.53398,21.51074 18.04556,41.18224 27.06834,61.77337 7.21287,-1.11382 14.50069,-1.81956 21.63861,-3.34146 4.66479,-0.9946 9.10459,-2.84858 13.68189,-4.18939 5.76289,-1.68809 11.53146,-3.36122 17.33686,-4.89679 16.71074,-4.42014 32.49079,-8.10528 49.5055,-11.52874 10.13642,-2.0395 20.33036,-3.78194 30.49555,-5.6729 52.77367,-8.56519 106.11305,-14.26407 159.58479,-15.68978 9.15806,-0.24418 18.32215,-0.13176 27.48323,-0.19765 31.90882,1.3439 16.52572,0.37317 46.15727,2.7831 52.86428,4.22705 58.84223,-70.53433 5.97795,-74.76138 v 0 c -33.79454,-2.66156 -16.21658,-1.60237 -52.74318,-3.01925 -10.07618,0.0901 -20.15578,-0.008 -30.22853,0.27018 -56.9631,1.57098 -113.78253,7.6813 -169.99093,16.88772 -10.92543,2.04509 -21.88219,3.92939 -32.77629,6.13528 -18.63759,3.77382 -35.59828,7.76698 -53.88828,12.6276 -6.3379,1.68432 -12.63437,3.52225 -18.92772,5.36608 -3.99586,1.1707 -8.73163,1.02058 -11.93803,3.67698 -1.64912,1.36625 4.23611,0.63271 6.35416,0.94907 7.48164,20.43158 15.65024,40.62455 22.44491,61.29474 0.24266,0.7382 -2.39076,1.9847 -1.81553,1.46227 4.20585,-3.81978 9.39011,-7.9517 13.58648,-11.491 10.21451,-8.61509 15.54414,-13.30277 26.06244,-22.41513 44.1935,-39.19231 87.49559,-79.37912 129.49223,-120.92596 17.7751,-17.99922 20.4967,-20.50033 37.03563,-38.15519 9.05503,-9.66599 16.19128,-17.16624 24.11815,-27.45614 2.40715,-3.12473 4.88134,-6.23744 6.80349,-9.68181 2.33824,-4.19 3.94762,-8.74701 5.92142,-13.12051 12.88979,-51.44272 -59.86121,-69.671627 -72.75099,-18.22891 z"/>
<path d="m 455.25744,426.38903 c 2.16483,25.07921 3.35027,50.23488 4.88361,75.35864 1.98788,29.48915 4.07984,59.00443 7.96465,88.31769 0.95491,7.20539 2.12161,14.38112 3.18241,21.57167 7.78034,52.45919 81.96884,41.45613 74.1885,-11.00306 v 0 c -0.96225,-6.44991 -2.02355,-12.88582 -2.88674,-19.34974 -3.72736,-27.91219 -5.68371,-56.02421 -7.58814,-84.10588 -1.54241,-25.26719 -2.73991,-50.567 -4.91114,-75.78933 -3.53554,-52.91503 -78.36869,-47.91501 -74.83315,5.00001 z"/>
<path d="m 684.63425,386.81866 c 3.08183,28.20146 -0.89502,56.59216 -4.37503,84.55636 -4.09171,27.39013 -7.54042,54.91294 -12.78669,82.11957 -1.65479,8.58159 -3.68888,17.08568 -5.53332,25.62852 -11.12653,51.85268 62.20423,67.58797 73.33076,15.73529 v 0 c 2.04347,-9.57586 4.28336,-19.11191 6.1304,-28.72759 5.44669,-28.35535 9.058,-57.03358 13.29549,-85.58042 1.0996,-8.99764 2.36811,-17.97624 3.2988,-26.99292 2.56847,-24.88361 3.988,-50.11263 1.17884,-75.03945 -5.86944,-52.70721 -80.40869,-44.40657 -74.53925,8.30064 z"/>
<path d="m 418.08928,559.49458 c 24.70468,-8.32324 50.08588,-14.61758 75.6292,-19.76685 11.4662,-2.31146 23.00352,-4.2549 34.50528,-6.38235 54.67005,-8.81434 109.90765,-14.34609 165.25694,-16.29462 36.07022,-1.26983 46.8559,-0.64682 82.59657,-0.0709 32.34283,0.88315 64.62806,3.31653 96.69746,7.60948 16.25211,2.17558 24.54422,3.77819 40.07969,6.51419 52.2347,9.16711 65.19895,-64.70392 12.96425,-73.87102 v 0 c -17.2674,-3.02076 -26.13507,-4.73188 -44.24664,-7.12543 -34.60348,-4.57306 -69.43323,-7.18743 -104.32492,-8.1181 -38.1705,-0.57695 -49.22336,-1.2223 -87.76392,0.16837 -58.60115,2.11451 -117.08003,8.02793 -174.95011,17.44817 -12.37022,2.30467 -24.77951,4.40866 -37.11065,6.914 -30.03701,6.10269 -59.99873,13.50396 -88.82137,24.0153 -48.7619,20.85132 -19.27368,89.81106 29.48822,68.95974 z"/>
<path d="m 437.25125,681.22636 c 32.01736,-8.05919 64.53094,-14.05582 96.96938,-20.13906 45.68936,-8.04973 91.8411,-13.555 138.19676,-15.68585 27.94447,-1.28454 39.90469,-0.97613 67.4992,-0.97051 25.31439,0.26546 50.62524,1.33048 75.80284,4.04357 5.60717,0.60422 11.18925,1.4222 16.78388,2.1333 52.61842,6.61831 61.97812,-67.79537 9.35971,-74.41368 v 0 c -6.44704,-0.8035 -12.88004,-1.72896 -19.34111,-2.41049 -27.44779,-2.89526 -55.03291,-4.08666 -82.62483,-4.3527 -29.69794,0.0207 -42.1453,-0.30134 -72.28778,1.12478 -49.38253,2.33643 -98.54903,8.2141 -147.22074,16.81812 -28.05884,5.26826 -28.00922,5.12571 -54.43745,10.55844 -15.36233,3.15797 -30.79962,6.28193 -45.97609,10.27149 -2.14611,0.56417 -4.26218,1.237 -6.39328,1.8555 -50.32273,16.73687 -26.65322,87.90396 23.66951,71.16709 z"/>
<path d="m 575.83946,286.85756 c 0,31.62624 0,63.25248 0,94.87872 -0.0997,46.05669 0.20111,92.11503 -0.155,138.17111 -0.28212,36.4886 -0.50996,42.8407 -1.2135,79.4523 -2.1068,73.47162 -3.63649,146.96283 -6.09987,220.42371 -1.77572,53.00327 73.18222,55.51453 74.95794,2.51125 v 0 c 2.47083,-73.81847 4.01841,-147.6669 6.12813,-221.49621 0.71281,-37.20762 0.94091,-43.51712 1.22669,-80.58703 0.35584,-46.15743 0.0567,-92.3171 0.15561,-138.47513 0,-31.62624 0,-63.25248 0,-94.87872 0,-53.03301 -75,-53.03301 -75,0 z"/>
<path d="m 526.84641,785.34803 c 24.13851,-7.51768 49.39582,-10.39134 74.42168,-13.17503 24.48832,-2.31628 49.16289,-3.09017 73.69501,-0.96702 10.92959,0.94591 13.04316,1.50431 23.12819,3.24754 2.35129,0.55784 4.70258,1.11568 7.05387,1.67352 51.70667,11.78648 68.37527,-61.33778 16.66861,-73.12426 v 0 c -3.78369,-0.84063 -7.56737,-1.68125 -11.35106,-2.52188 -13.59155,-2.21874 -16.62213,-2.97064 -31.01393,-4.14065 -28.82295,-2.34323 -57.80145,-1.48027 -86.5604,1.30235 -7.40551,0.84046 -14.82673,1.55243 -22.21652,2.5214 -24.02578,3.15032 -48.13278,7.44517 -71.1025,15.32014 -49.40122,19.28779 -22.12417,89.15168 27.27705,69.86389 z"/>
<path d="m 385.19677,921.39289 c 24.09044,-1.38723 48.04304,-4.68058 71.9957,-7.51082 38.95383,-4.3923 77.94426,-8.67785 117.06881,-11.26283 29.68254,-1.96115 35.91187,-1.88145 65.63881,-2.77559 10.77109,-0.0559 21.54224,-0.23537 32.31326,-0.16772 20.87698,0.13112 38.56347,0.66884 59.34006,1.8728 24.34074,1.4105 48.58018,3.86201 72.82662,6.35581 16.33371,1.60413 32.59905,3.76181 48.83969,6.10396 52.49347,7.54554 63.16447,-66.69145 10.671,-74.23699 v 0 c -17.24233,-2.47106 -34.50747,-4.77236 -51.84654,-6.47435 -17.79891,-1.82627 -30.48455,-3.22205 -48.52723,-4.66132 -41.87609,-3.34047 -83.89224,-4.63812 -125.89708,-3.75752 -11.55301,0.35511 -23.11118,0.57001 -34.65902,1.06534 -51.69491,2.21738 -103.18285,7.57988 -154.56914,13.45655 -21.04544,2.48673 -42.08159,5.15913 -63.19494,6.99268 -53.03301,0 -53.03301,75 0,75 z"/>
</svg>
