<?xml version="1.0" ?>
<svg xmlns="http://www.w3.org/2000/svg" width="1000" height="1000">
<path d="m 58.242585,274.80612 c -2.835298,31.40348 -4.123724,62.90141 -5.256792,94.4034 -1.495628,47.27252 -1.05691,94.57265 -1.07343,141.85979 -0.01459,41.75487 -0.03315,33.79885 -0.431766,75.1601 -0.588617,43.85345 -1.813893,87.69419 -2.88832,131.53736 -1.299221,53.01709 73.678273,54.85447 74.977493,1.83737 v 0 c 1.08351,-44.21538 2.31841,-88.42835 2.90737,-132.65419 0.40105,-41.87052 0.42041,-33.85822 0.43517,-75.97468 0.0162,-46.36004 -0.42349,-92.73283 1.02534,-139.07893 1.10772,-31.00945 2.42257,-62.00742 5.18895,-92.9207 2.94829,-52.951 -71.93572,-57.12051 -74.884015,-4.16952 z"/>
<path d="m 128.59088,329.45803 c 14.99646,-6.38855 30.84708,-10.33994 46.66818,-14.08229 22.15575,-4.99479 44.62093,-8.37541 67.29186,-9.6627 4.86079,-0.10674 9.74401,-0.44065 14.60858,-0.20459 0.0985,0.005 -0.1949,0.0473 -0.29324,0.0396 -0.87527,-0.068 -1.74683,-0.17731 -2.62025,-0.26597 -11.27172,-3.56849 -11.05589,-2.31684 -21.27052,-12.6357 -1.88967,-1.90896 -2.64608,-4.68774 -4.21552,-6.86761 -0.15542,-0.21587 -0.19429,0.51568 -0.16716,0.78029 0.23144,2.25771 0.65287,4.49214 0.93846,6.74364 0.51211,4.03726 0.9697,8.08125 1.45455,12.12188 4.37231,37.26259 6.53953,74.74989 7.44315,112.24802 0.23268,9.65597 0.28311,19.31547 0.42467,28.9732 0.50744,59.7913 -3.01582,119.5044 -7.64664,179.08578 -1.80645,23.00027 -4.61913,45.89588 -7.54036,68.77408 -6.70448,52.60751 67.69377,62.08907 74.39825,9.48156 v 0 c 3.06613,-24.10204 6.02059,-48.22203 7.9172,-72.45169 4.79716,-61.88429 8.42482,-123.90574 7.86323,-186.0069 -0.15335,-10.13876 -0.21203,-20.2794 -0.46007,-30.41629 -0.97042,-39.66083 -3.31322,-79.30692 -7.94497,-118.71731 -0.85051,-6.95055 -2.09813,-18.49184 -3.54049,-25.6817 -1.51457,-7.54978 -3.905,-16.93164 -8.87162,-22.99663 -10.21128,-12.4695 -12.55136,-11.76397 -25.19229,-16.19312 -1.77041,-0.25392 -3.53298,-0.5703 -5.31123,-0.76178 -8.07832,-0.86983 -16.28022,0.0215 -24.36494,0.0799 -8.37828,0.50364 -11.84976,0.62855 -20.5529,1.54529 -20.10991,2.11826 -40.03676,5.73276 -59.78283,10.04344 -22.8476,5.50708 -45.98026,11.30529 -66.960216,22.20735 -45.834838,26.6771 -8.107722,91.49735 37.727116,64.82025 z"/>
<path d="m 127.95217,458.62399 c 21.56197,-6.19949 43.93371,-8.90176 66.15072,-11.54394 15.56286,-1.71416 31.2128,-2.21989 46.84692,-2.77016 52.99929,-1.89079 50.32531,-76.8431 -2.67398,-74.95231 v 0 c -17.71975,0.63989 -35.45516,1.265 -53.08972,3.25441 -26.79538,3.22788 -53.74244,6.68553 -79.67518,14.44811 -50.603317,15.86835 -28.162073,87.43224 22.44124,71.56389 z"/>
<path d="m 121.76574,569.75186 c 20.86722,0.15225 41.72566,-0.47629 62.57881,-1.15365 16.48419,-0.60059 32.96632,-1.25392 49.44984,-1.87271 52.99567,-1.98958 50.18197,-76.93679 -2.81371,-74.9472 v 0 c -16.35837,0.61418 -32.71539,1.26167 -49.07437,1.85956 -20.04064,0.65279 -40.08625,1.26584 -60.14057,1.114 -53.033016,0 -53.033016,75 0,75 z"/>
<path d="m 103.56029,736.71898 c 18.20391,-6.96068 36.2171,-14.43165 54.52694,-21.11492 6.77578,-2.47323 13.6083,-4.78815 20.41246,-7.18222 22.92214,-8.33737 46.59919,-14.14314 70.23731,-19.98635 51.4717,-12.77358 33.40713,-85.56555 -18.06456,-72.79198 v 0 c -25.94643,6.46195 -51.92982,12.89819 -77.1027,22.04293 -7.37948,2.60479 -14.78811,5.12841 -22.13843,7.81439 -19.68183,7.1922 -39.086909,15.14515 -58.590904,22.7982 -48.380208,21.72224 -17.66033,90.14219 30.719884,68.41995 z"/>
<path d="m 684.44894,61.618009 c -27.43789,15.821803 -55.9341,29.753176 -84.11417,44.190851 -53.78197,27.27139 -107.71435,54.25103 -162.04674,80.41058 -15.02655,7.16281 -30.15565,14.10595 -45.2979,21.01941 -2.07826,0.94886 -13.35236,5.97945 -15.82156,7.51031 -3.54307,2.19663 -6.81224,4.80702 -10.21836,7.21053 -4.53541,8.86751 -12.47272,16.70718 -13.60622,26.60252 -2.53542,22.13405 12.43295,35.02326 25.75782,48.33249 11.15923,11.14615 7.56367,7.51679 18.88236,19.57204 3.70422,4.06664 7.43243,8.11156 11.11265,12.19994 8.61821,9.57404 13.73907,15.32921 21.87952,25.18049 8.48511,10.26836 16.58692,20.85308 24.73806,31.38584 32.45957,41.93897 91.77022,-3.96579 59.31065,-45.90475 v 0 c -8.83739,-11.417 -17.6377,-22.87298 -26.85044,-33.99251 -8.6903,-10.48896 -14.52387,-17.06537 -23.64599,-27.18951 -3.94708,-4.38066 -7.94625,-8.7141 -11.91938,-13.07115 -3.75355,-3.98266 -7.45859,-8.0116 -11.26064,-11.94798 -3.14648,-3.25764 -6.37162,-6.43852 -9.58306,-9.63214 -2.15579,-2.14382 -4.17488,-4.44288 -6.51829,-6.37984 -0.19677,-0.16264 -0.54809,0.30902 -0.5195,0.56269 3.40372,30.20635 7.40674,13.59954 -9.92239,42.03033 -1.35124,0.70067 -5.45252,2.70216 -4.05373,2.10201 1.60619,-0.68914 3.09803,-1.62099 4.67738,-2.36959 2.88602,-1.36794 5.81093,-2.65226 8.71619,-3.97884 15.60527,-7.12558 31.1963,-14.28324 46.68118,-21.66821 54.88698,-26.43184 109.37631,-53.6789 163.70657,-81.23524 29.3736,-15.04919 59.0638,-29.59048 87.64322,-46.12009 45.83479,-26.677177 8.10756,-91.49736 -37.72723,-64.820181 z"/>
<path d="m 548.01035,265.06044 c 0.95424,1.56967 1.86492,3.16666 2.86272,4.70901 4.0306,6.2303 8.49456,12.1859 12.705,18.29329 3.86748,5.60992 5.35299,7.92099 9.09803,13.5928 3.4085,5.26345 6.69069,10.60531 9.91955,15.98003 27.34526,45.43937 91.60624,6.76734 64.26099,-38.67203 v 0 c -3.78091,-6.27371 -7.6099,-12.51795 -11.60824,-18.6566 -6.88793,-10.41602 -13.89759,-20.76471 -21.23591,-30.86555 -25.18647,-46.67057 -91.18862,-11.05152 -66.00214,35.61905 z"/>
<path d="m 750.13755,188.4095 c -0.0234,1.02887 0.0584,2.06554 -0.0702,3.08661 -0.3607,2.86345 -2.84947,10.76599 -3.20629,11.86254 -1.46906,4.51471 -2.91911,9.0416 -4.64661,13.46387 -5.86259,15.00774 -10.8994,24.69606 -18.05132,39.63709 -4.13607,8.77187 -8.27215,17.54374 -12.40822,26.31561 -22.6172,47.96835 45.2203,79.95389 67.83749,31.98554 v 0 c 4.09162,-8.6781 8.18325,-17.3562 12.27487,-26.03429 4.02567,-8.47935 8.24778,-16.86819 12.07702,-25.43804 6.24275,-13.97131 11.22615,-26.36525 15.47205,-40.93684 3.21981,-11.05011 5.83207,-22.36787 5.72125,-33.94209 0,-53.03301 -75,-53.03301 -75,0 z"/>
<path d="m 294.93977,449.04156 c 1.52048,13.47817 7.07061,26.03336 12.43926,38.34127 3.68161,8.4403 7.73842,17.21936 11.56119,25.58605 6.89601,15.1922 15.75454,29.30702 25.67395,42.68457 2.80487,3.78273 5.81991,7.405 8.72987,11.1075 32.90124,41.59337 91.72315,-4.93601 58.82191,-46.52938 v 0 c -9.57258,-11.9972 -18.88792,-24.22165 -25.01186,-38.43749 -4.94038,-10.80734 -10.0065,-21.5851 -14.58142,-32.55536 -0.77999,-1.87035 -1.4514,-3.78434 -2.20722,-5.66458 -0.19744,-0.49116 -0.17095,-1.22702 -0.65194,-1.44806 -0.34846,-0.16013 0.003,0.76698 0.004,1.15047 -4.07648,-52.87611 -78.85459,-47.11109 -74.7781,5.76501 z"/>
<path d="m 432.94614,461.89594 c 29.44441,-13.93513 61.5975,-20.64348 93.17938,-27.76211 53.60235,-11.05141 107.95685,-18.60695 162.55162,-22.5064 10.70111,-0.76433 21.42143,-1.2306 32.13215,-1.84589 34.59165,-1.46423 69.28953,-1.59169 103.83191,1.02695 14.07744,1.06721 19.13313,1.84576 32.58828,3.5227 12.0726,1.72654 24.13447,3.85183 35.81136,7.42471 0.0682,0.0383 0.27779,0.14303 0.20471,0.11501 -9.54156,-3.65871 -13.9411,-8.65798 -19.19686,-17.72829 -0.60199,-1.03891 -2.24987,-6.77196 -2.95874,-9.19357 -0.48476,0.71814 -1.00083,1.41611 -1.45427,2.15442 -1.44035,2.34521 -2.73946,4.77689 -4.22545,7.09344 -16.27274,25.36795 -35.47651,48.72532 -54.50123,72.03475 -6.5726,7.54158 -13.1452,15.08316 -19.71781,22.62474 -34.81754,40.00298 21.75523,89.24242 56.57277,49.23943 v 0 c 7.09194,-8.15806 14.18389,-16.31611 21.27583,-24.47417 16.98094,-20.85216 20.53462,-24.74174 36.19433,-45.73275 13.19655,-17.68927 27.47023,-36.51572 35.61566,-57.25777 2.07025,-5.27181 3.10411,-10.89387 4.65617,-16.3408 0.28964,-4.91981 1.2361,-9.84481 0.86893,-14.75944 -1.48076,-19.81999 -13.13,-33.80359 -31.63673,-39.56794 -15.7834,-4.73534 -31.99461,-7.85617 -48.31697,-10.06639 -15.59929,-1.9108 -21.02819,-2.74741 -37.34475,-3.95682 -37.46332,-2.77685 -75.08902,-2.66036 -112.60142,-1.03287 -11.39504,0.66434 -22.80044,1.17003 -34.18512,1.99302 -58.0131,4.19372 -115.76745,12.26315 -172.71471,24.08281 -38.90124,8.83149 -78.55877,17.47222 -114.22616,36.01749 -45.88822,26.58518 -8.2911,91.48091 37.59712,64.89574 z"/>
<path d="m 452.73504,492.35783 c -14.73733,32.07732 -32.8973,62.44148 -51.06253,92.65825 -13.18761,22.08768 -26.84774,43.90209 -41.43492,65.09686 -4.42966,6.43617 -9.02593,12.75607 -13.5389,19.13411 -30.60976,43.30754 30.63635,86.59627 61.24611,43.28873 v 0 c 4.87401,-6.90291 9.83743,-13.74356 14.62203,-20.70875 15.25897,-22.21333 29.57776,-45.05483 43.39567,-68.18715 19.42197,-32.34799 38.78579,-64.87336 54.56347,-99.19794 22.6869,-47.93542 -45.10403,-80.01953 -67.79093,-32.08411 z"/>
<path d="m 487.9258,589.81473 c 17.25168,-5.16284 35.02677,-7.93379 52.87623,-9.9746 14.14154,-1.24275 28.42412,-0.95985 42.38791,1.67519 0.70739,0.18224 1.41477,0.36448 2.12216,0.54672 0.1143,0.0685 0.47348,0.23249 0.34292,0.20565 -3.27358,-0.67321 -8.6013,-3.96218 -9.71358,-5.16203 -4.53373,-4.89066 -9.38771,-10.06741 -11.44099,-16.41227 -2.12824,-6.57645 -0.38556,-13.81911 -0.57834,-20.72866 0.62422,-1.70704 2.3744,-3.37415 1.87266,-5.12112 -0.41392,-1.44122 -1.50702,2.59337 -2.21974,3.91265 -1.26057,2.3334 -2.50992,4.67361 -3.69939,7.04405 -6.23975,12.43491 -12.08049,25.08812 -18.10995,37.6251 -13.99039,29.10856 -28.47389,58.06196 -45.59735,85.4864 -13.83423,22.15649 -17.71098,26.57095 -33.32046,47.8027 -6.32711,7.73445 -12.43709,15.65172 -18.98133,23.20335 -23.08213,26.63529 -50.0003,52.35254 -78.58981,73.05416 -5.60343,4.05743 -11.51051,7.67809 -17.26576,11.51713 -19.28347,11.06734 -9.99242,6.1366 -27.77309,14.97921 -47.37236,23.84028 -13.65711,90.83492 33.71525,66.99464 v 0 c 23.17713,-11.76873 11.15322,-5.25157 35.95413,-19.76693 7.17518,-4.86959 14.52858,-9.48641 21.52555,-14.60877 33.09002,-24.22466 63.84315,-53.73737 90.56372,-84.77847 7.36171,-8.55205 14.23458,-17.51302 21.35187,-26.26953 6.59432,-9.0287 13.41778,-17.89442 19.78296,-27.08609 25.74206,-37.17296 46.84357,-77.24553 66.22403,-118.02194 5.68026,-11.81116 11.21842,-23.70429 17.02294,-35.45544 1.44134,-2.91799 3.19387,-5.67537 4.63302,-8.59444 1.621,-3.28792 3.08636,-6.65031 4.62953,-9.97546 0.12308,-7.94199 2.49202,-16.17193 0.36923,-23.82595 -1.98515,-7.15775 -7.20789,-13.13645 -12.15674,-18.67568 -5.91903,-6.62513 -18.9796,-9.85661 -27.52038,-11.7284 -21.21022,-3.65697 -42.77248,-4.53906 -64.21574,-2.33124 -4.52751,0.53598 -9.06559,0.98926 -13.58254,1.60796 -17.42237,2.38638 -34.66054,6.00841 -51.56571,10.84952 -50.92059,14.81869 -29.9638,86.83128 20.95679,72.01259 z"/>
<path d="m 442.61025,679.32068 c 12.66752,8.67091 23.22184,20.09061 33.55894,31.33097 6.58367,7.13253 11.76638,15.27262 16.79313,23.51645 28.02189,45.02526 91.69721,5.39631 63.67532,-39.62894 v 0 c -2.36413,-3.74979 -4.60235,-7.58197 -7.09239,-11.24936 -7.64774,-11.26374 -9.58199,-13.06342 -18.32348,-23.57158 -15.35126,-16.51499 -31.2236,-33.03941 -50.52008,-45.00438 -45.68393,-26.93471 -83.77537,37.67212 -38.09144,64.60684 z"/>
<path d="m 630.74711,640.70789 c 26.67782,-4.16364 53.52845,-6.94893 80.42037,-9.26891 27.17152,-2.1005 54.43995,-2.09364 81.63194,-0.54999 52.95144,2.94026 57.1096,-71.94438 4.15816,-74.88464 v 0 c -30.73695,-1.67449 -61.55449,-1.72611 -92.26293,0.71447 -27.96029,2.43144 -55.88649,5.28648 -83.62653,9.61625 -52.58953,6.84408 -42.91054,81.2169 9.67899,74.37282 z"/>
<path d="m 614.36383,622.30521 c 1.69341,17.10714 -0.34989,34.33789 -2.48099,51.30733 -1.76568,12.96496 -4.87891,25.66346 -8.06858,38.33044 -12.84513,51.45389 59.92166,69.61965 72.76679,18.16576 v 0 c 3.87912,-15.64935 7.65286,-31.33946 9.74262,-47.35494 0.65163,-5.40438 1.41661,-10.7963 1.95489,-16.21315 1.73153,-17.42493 2.43298,-35.09111 0.62451,-52.53611 -5.86946,-52.7072 -80.4087,-44.40654 -74.53924,8.30067 z"/>
<path d="m 550.841,777.30932 c 1.19042,-0.32708 2.37048,-0.69453 3.57125,-0.98125 3.77641,-0.90171 11.14509,-2.23682 14.18254,-2.76217 17.1928,-2.97367 34.45327,-5.07543 51.77575,-7.13464 44.47745,-4.86439 89.14262,-8.3393 133.88546,-9.35341 9.03159,-0.2047 18.06692,-0.18014 27.10038,-0.27021 36.3516,0.0243 72.60294,2.89974 108.76739,6.29974 52.80051,4.9605 59.81571,-69.7107 7.01521,-74.67119 v 0 c -38.75502,-3.63847 -77.60712,-6.65272 -116.56211,-6.6245 -9.65152,0.10414 -19.30509,0.0883 -28.95458,0.31242 -46.8313,1.08777 -93.58168,4.72539 -140.13427,9.835 -27.02567,3.23344 -54.27623,6.2276 -80.67858,13.07479 -51.10644,14.16446 -31.07488,86.43988 20.03156,72.27542 z"/>
<path d="m 723.74043,469.28562 c 1.50602,23.36772 1.02768,46.8233 0.886,70.22378 -0.4751,38.77656 -1.32233,77.55411 -3.09924,116.29513 -1.06966,23.32115 -2.33453,43.69546 -3.69742,67.01939 -2.85174,43.01772 -4.31423,86.14073 -8.02379,129.10113 -2.2044,25.52922 -2.83301,28.23033 -6.10192,53.05739 -1.39387,8.00504 -2.78775,16.01009 -4.18163,24.01514 -9.0302,52.25855 64.87454,65.02918 73.90474,12.77064 v 0 c 1.54737,-9.01617 3.09474,-18.03233 4.64211,-27.0485 3.51569,-26.98749 4.16107,-29.69466 6.5326,-57.26536 3.72852,-43.34654 5.23805,-86.85296 8.10029,-130.25724 1.40652,-24.09056 2.66456,-44.32362 3.76617,-68.42204 1.80937,-39.58099 2.67707,-79.19902 3.15674,-118.81617 0.0935,-15.76356 0.22624,-26.97619 0.0828,-42.507 -0.11317,-12.25215 -0.20768,-24.60631 -1.54174,-36.80462 -0.22348,-2.04343 -0.59238,-4.06832 -0.88857,-6.10248 -10.42333,-51.9986 -83.96045,-37.25779 -73.53713,14.74081 z"/>
</svg>
