<?xml version="1.0" ?>
<svg xmlns="http://www.w3.org/2000/svg" width="1000" height="1000">
<path d="m 321.36877,62.429034 c -0.11222,-0.146315 -0.29838,-0.619322 -0.33666,-0.438945 -0.11293,0.532155 0.0442,1.087309 0.0839,1.629862 0.13264,1.811077 0.38802,3.615166 0.4332,5.430532 0.0668,2.681421 0.0432,5.367615 -0.0977,8.046162 -0.54721,10.40119 -1.46932,15.553711 -2.88305,26.368775 -5.67567,35.58049 -16.28809,70.21949 -29.04724,103.85782 -2.6945,7.1038 -5.64392,14.10827 -8.46588,21.1624 -10.73258,26.08042 -23.84093,51.05727 -37.69151,75.58636 -4.38565,9.16755 -12.74734,24.45641 -5.04465,33.53239 11.65487,13.73276 30.03145,20.61749 46.99729,26.66601 4.54215,1.61933 9.09743,-3.21734 13.54442,-5.08218 3.43792,-1.44169 6.72464,-3.22031 10.0881,-4.82807 3.99569,-1.90997 7.99291,-3.81674 11.98936,-5.72511 22.75118,-10.22173 45.48658,-20.59714 68.99393,-28.99889 19.00182,-6.79143 23.42993,-7.70275 43.04617,-13.30376 34.44301,-8.88402 69.70307,-14.93399 105.25274,-16.82857 5.5588,-0.29625 11.12827,-0.3373 16.69241,-0.50594 20.59629,-0.25709 41.23818,1.2363 61.17687,6.56982 0.10247,0.0354 4.48464,1.4008 5.34175,2.06388 0.27876,0.21566 -0.67875,-0.19019 -1.01813,-0.28529 46.51452,25.4735 82.53949,-40.30797 36.02497,-65.78146 v 0 c -2.20781,-1.11834 -4.36532,-2.34209 -6.62344,-3.35502 -5.53315,-2.48203 -9.15078,-3.41931 -15.02682,-5.27387 -9.15318,-2.30237 -10.86964,-2.90972 -20.50195,-4.5599 -20.40413,-3.49558 -41.11974,-4.60129 -61.80156,-4.33884 -6.63929,0.22667 -13.28526,0.30595 -19.91788,0.68002 -40.64238,2.29216 -80.95021,9.24208 -120.30513,19.53012 -8.43771,2.43638 -16.92992,4.69138 -25.31313,7.30915 -33.76682,10.54411 -66.21721,24.69335 -98.33947,39.39914 -4.05146,1.93471 -8.10631,3.86233 -12.15437,5.80415 -2.67095,1.28123 -5.50414,2.27337 -8.00261,3.86497 -0.45408,0.28926 1.15237,-0.0846 1.60107,0.213 13.74989,9.1184 30.98863,14.71813 40.85452,27.94193 3.49114,4.67936 -5.33599,31.72666 -2.24618,22.16817 15.50308,-27.45723 30.07249,-55.46967 42.04624,-84.67617 3.13331,-7.87645 6.4076,-15.69827 9.39992,-23.62936 14.62633,-38.76671 26.57419,-78.72685 32.85446,-119.74272 0.78954,-6.38134 1.7605,-12.74283 2.36861,-19.144004 1.95006,-20.527084 2.17888,-41.914731 -5.28541,-61.44429 -21.29645,-48.569139 -89.98359,-18.451411 -68.68714,30.117728 z"/>
<path d="m 232.64186,620.04181 c 2.18486,-0.62413 4.39634,-1.16164 6.55458,-1.8724 12.51487,-4.12147 24.61352,-9.46576 37.07295,-13.76018 22.01389,-7.58759 23.57745,-7.62927 47.49287,-14.38201 62.86658,-16.23711 127.21384,-26.21669 191.83847,-32.09041 14.13904,-1.2851 28.31474,-2.12866 42.47211,-3.19299 54.75038,-2.82123 109.87477,-4.63924 164.52903,0.91388 6.05114,0.61483 12.06889,1.52296 18.10334,2.28445 4.37459,0.77729 8.74919,1.55458 13.12379,2.33187 52.24597,9.10266 65.11908,-64.78431 12.87311,-73.88697 v 0 c -5.58161,-0.95735 -11.16323,-1.9147 -16.74484,-2.87205 -21.13614,-2.59364 -24.98044,-3.36658 -47.4709,-4.71671 -49.97765,-3.00021 -100.11885,-1.68519 -150.06758,1.15895 -14.92783,1.13459 -29.87509,2.03724 -44.78347,3.40375 -68.85154,6.31096 -137.39141,17.0813 -204.3395,34.51275 -26.92789,7.66938 -28.08846,7.55982 -52.81744,16.10947 -11.19215,3.86951 -22.4978,8.04594 -33.4753,12.54504 -0.0544,0.0223 -0.0281,0.11411 -0.0421,0.17116 -51.86091,11.08808 -36.17999,84.43049 15.68092,73.3424 z"/>
<path d="m 429.73258,410.57154 c 3.07257,14.03294 3.29588,28.42605 3.54108,42.71823 -0.01,25.08748 -2.27412,50.22038 -7.88527,74.70707 -4.5059,19.66347 -6.9545,25.35978 -13.45555,44.83487 -17.24914,46.88747 -43.67056,89.72162 -74.45077,128.89568 -7.06429,8.99075 -14.58327,17.61475 -21.87491,26.42212 -21.81381,24.7727 -44.73503,48.65119 -69.18106,70.85231 -7.19758,6.53661 -14.71747,12.70928 -22.0762,19.06392 -40.08827,34.7193 9.01224,91.41268 49.10052,56.69338 v 0 c 8.23523,-7.15086 16.64343,-14.10726 24.7057,-21.45256 26.62172,-24.25426 51.5781,-50.33317 75.29356,-77.41563 8.09967,-9.84041 16.45873,-19.47293 24.299,-29.52123 35.60755,-45.63561 65.65457,-95.45422 85.401,-150.01859 7.7909,-23.80472 10.59942,-30.34711 15.94961,-54.50861 6.54507,-29.55755 9.23023,-59.84594 9.15874,-90.08407 -0.13609,-5.91535 -0.1349,-11.83546 -0.40827,-17.74607 -0.69992,-15.13333 -2.44339,-30.36057 -6.29349,-45.03615 -15.27021,-50.78702 -87.09389,-29.19169 -71.82369,21.59533 z"/>
<path d="m 549.93525,683.30799 c 9.58774,7.8824 17.93814,17.21092 26.45382,26.21264 23.5429,25.48186 47.31655,50.73933 71.25292,75.8513 14.28243,15.14507 28.88115,29.98567 43.76574,44.53814 3.94426,3.76584 7.77606,7.63862 11.78032,11.33883 8.55806,7.59741 18.26362,13.70186 27.91408,19.78321 7.28319,4.58959 14.5942,9.1349 21.89184,13.70147 15.32042,9.4202 30.41087,19.25037 46.13603,27.99865 6.51518,3.62455 13.17586,6.98113 19.7638,10.47169 46.90286,24.75119 81.90633,-41.57947 35.00346,-66.33066 v 0 c -5.61443,-2.94877 -11.29705,-5.7712 -16.8433,-8.8463 -15.10352,-8.37413 -29.56548,-17.84333 -44.27532,-26.87151 -0.2204,-0.13793 -20.34515,-12.73063 -21.59293,-13.51345 -4.1038,-2.57462 -8.38357,-5.19226 -12.37853,-7.97256 -2.2195,-1.54467 -3.27938,-2.42078 -5.21571,-3.95877 -3.46702,-2.89076 -6.32651,-6.49336 -9.75681,-9.43284 -14.25549,-13.93266 -28.22967,-28.14861 -41.90418,-42.65297 -23.87943,-25.05217 -47.59196,-50.25349 -71.08219,-75.67159 -13.65227,-14.40556 -27.11652,-29.60727 -44.20587,-40.04853 -46.24708,-25.95588 -82.95424,39.44736 -36.70717,65.40325 z"/>
</svg>
