<?xml version="1.0" ?>
<svg xmlns="http://www.w3.org/2000/svg" viewBox="0 0 1000 1000">
<path d="m 120.03539,279.77959 c 33.56917,-4.62636 67.43443,-6.60232 101.22723,-8.80487 34.58535,-1.98674 69.19078,-3.83864 103.83093,-4.52946 14.5366,-0.2899 22.76403,-0.22576 36.92594,-0.22421 8.8698,0.0777 14.62212,0.0624 23.19301,0.34882 2.22282,0.0743 4.44825,0.13405 6.66451,0.32032 0.41495,0.0349 1.58947,0.49306 1.20187,0.34082 -5.29301,-2.07896 -13.30556,-1.07469 -15.9233,-6.12301 -7.23688,-13.9563 -7.35297,-30.57019 -11.02945,-45.85529 2.23068,-3.07225 5.49251,-5.61455 6.69202,-9.21674 0.55053,-1.65325 -3.0311,1.7222 -4.50557,2.65077 -8.50496,5.35616 -16.84027,10.86827 -24.72245,17.14345 -16.54223,13.16962 -20.60128,18.00702 -36.19513,33.31131 -6.79219,7.38756 -13.84561,14.54322 -20.37657,22.1627 -47.17815,55.04132 -83.45561,118.15309 -120.00067,180.42495 -32.64462,57.2609 -64.23986,115.13111 -94.28586,173.79995 -52.363293,102.24634 11.079969,-20.29879 -36.852519,72.05446 -5.471153,9.81334 -10.942305,19.62667 -16.413458,29.44001 -25.802355,46.33291 39.722274,82.82295 65.524629,36.49004 v 0 c 5.819708,-10.4615 11.639417,-20.923 17.459128,-31.38449 48.58996,-93.64822 -14.592797,28.43804 36.86048,-72.06982 29.44292,-57.51323 60.41607,-114.23739 92.39568,-170.37685 22.65927,-38.63094 45.04019,-77.42582 70.37379,-114.39973 12.14708,-17.72844 26.21734,-36.8278 40.22783,-53.30187 5.69727,-6.69907 11.86141,-12.98663 17.79212,-19.47994 11.13567,-11.08625 16.04917,-16.61929 27.76773,-26.13535 7.13889,-5.79714 12.46758,-9.11501 20.01288,-13.96537 3.18211,-2.04556 6.72975,-3.59926 9.5742,-6.09311 5.1961,-4.55565 9.59555,-9.94684 14.39332,-14.92025 -2.97335,-16.56398 -1.60104,-34.5381 -8.92005,-49.69192 -3.06879,-6.35387 -12.63606,-6.36966 -19.29033,-8.71698 -2.62031,-0.92432 -5.50567,-0.77642 -8.27467,-1.0067 -11.07927,-0.92138 -22.25121,-0.41374 -33.3459,-0.75018 -15.1951,0.003 -23.33124,-0.0635 -38.99327,0.25279 -35.57791,0.71842 -71.12067,2.61208 -106.6422,4.6599 -36.51106,2.38296 -73.11555,4.51667 -109.35156,9.78211 -52.229556,9.19639 -39.2239,83.06013 13.00566,73.86374 z"/>
<path d="m 161.79222,504.21433 c 0.4872,2.44221 0.90106,4.45745 1.30291,7.10288 1.28912,8.48654 2.00452,15.24121 2.96477,23.97901 1.13443,10.32281 2.92571,27.58911 3.97579,37.62724 3.11649,28.82318 6.67369,57.61672 11.64718,86.18573 2.76441,15.87951 3.78068,20.14479 6.95753,35.3253 10.89126,51.90261 84.29263,36.50005 73.40137,-15.40256 v 0 c -2.87818,-13.67493 -3.82874,-17.66059 -6.33685,-31.99483 -4.7506,-27.15054 -8.10775,-54.52223 -11.0763,-81.91712 -0.92492,-8.84086 -3.03522,-29.16352 -4.05754,-38.37265 -1.75908,-15.84585 -3.26857,-31.91018 -7.95873,-47.22124 -17.45722,-50.07739 -88.27735,-25.38916 -70.82013,24.68824 z"/>
<path d="m 242.16786,541.35885 c 20.88163,-8.74971 42.82369,-14.57497 64.74696,-20.03067 21.04793,-5.14669 42.51582,-8.20144 64.16637,-8.77433 2.91055,0.10758 5.86823,-0.01 8.7658,0.38874 0.17868,0.0246 -0.36291,0.0399 -0.54097,0.0112 -1.15466,-0.18616 -2.39104,-0.15172 -3.44719,-0.65415 -4.9406,-2.35038 -9.61171,-5.22974 -14.41757,-7.84461 -3.49042,-5.61331 -6.98084,-11.22662 -10.47125,-16.83993 -0.20364,-0.57417 -0.53437,-2.32688 -0.61091,-1.7225 -0.23897,1.8872 0.0732,3.80384 0.10649,5.70582 0.0628,3.58865 0.13272,7.17721 0.18171,10.76608 0.22934,16.80035 0.16337,13.32258 0.13736,31.18728 0.0965,38.10091 -4.39266,75.98014 -9.11371,113.72241 -6.57512,52.62384 67.84622,61.92246 74.42134,9.29862 v 0 c 5.0918,-40.79613 9.81662,-81.74469 9.69231,-122.92503 0.0163,-14.66182 -0.008,-29.31742 -0.34376,-43.97628 -0.0805,-3.51492 -0.24634,-16.30755 -1.49834,-19.37735 -2.9779,-7.30156 -7.5966,-13.82081 -11.3949,-20.73121 -5.35167,-3.12304 -10.48313,-6.65843 -16.05501,-9.36912 -1.88326,-0.91619 -4.06214,-1.03289 -6.1205,-1.41915 -7.06172,-1.32515 -14.35557,-1.02397 -21.49167,-1.18848 -7.89726,0.2485 -11.20403,0.26176 -19.45014,0.95584 -20.46726,1.72272 -40.73701,5.29713 -60.71401,10.0276 -25.76551,6.47297 -51.52476,13.43551 -76.03663,23.82953 -48.7619,20.85132 -19.27368,89.81105 29.48822,68.95973 z"/>
<path d="m 256.33488,708.39097 c 31.2599,-14.92153 64.71858,-24.54887 97.84428,-34.33096 8.25218,-2.1538 16.50435,-4.30761 24.75653,-6.46142 51.30428,-13.4302 32.31111,-85.98542 -18.99318,-72.55522 v 0 c -9.01066,2.36518 -18.02133,4.73036 -27.032,7.09554 -37.86659,11.21288 -76.08141,22.39324 -111.60596,39.93558 -46.89283,24.77019 -11.8625,91.08667 35.03033,66.31648 z"/>
<path d="m 557.61322,81.308529 c -2.68572,18.663218 -4.57234,37.452451 -7.78627,56.039341 -3.87663,22.41939 -7.80586,38.53103 -12.84823,61.04889 -8.16118,37.02555 -19.09697,73.33238 -30.33222,109.51235 -9.8942,31.86148 -20.09125,63.62614 -30.42079,95.3485 -16.41876,50.42741 54.89637,73.64705 71.31514,23.21964 v 0 c 10.4641,-32.14175 20.80745,-64.32301 30.81903,-96.6093 11.7928,-38.03052 23.22773,-76.20545 31.81391,-115.11633 2.59968,-11.65845 5.3625,-23.28172 7.79903,-34.97536 2.18288,-10.47637 4.24253,-20.98113 6.0577,-31.52743 1.42246,-8.26464 2.48452,-16.58751 3.65286,-24.89188 1.43098,-10.17124 2.83233,-20.34814 4.03513,-30.548875 0.3377,-2.863964 0.55936,-5.740419 0.83905,-8.610629 2.04277,-52.993651 -72.90157,-55.882568 -74.94434,-2.888917 z"/>
<path d="m 467.12872,240.2442 c 2.01584,-0.33948 4.04384,-0.6133 6.04751,-1.01845 6.31868,-1.27765 14.95759,-3.50491 20.9475,-4.98566 10.55874,-2.6102 22.83046,-5.71615 33.3762,-7.98319 6.94211,-1.49235 13.92574,-2.78459 20.8886,-4.17688 30.12145,-5.52157 60.48489,-9.88587 91.0264,-12.25916 16.02116,-1.24496 19.74102,-1.1763 35.20185,-1.61964 10.52034,-0.12261 21.06034,0.10775 31.53342,1.17348 2.77969,0.28286 6.40884,0.5399 9.13951,1.56452 -8.80935,-2.13979 -16.01831,-8.4007 -20.26056,-16.57013 -2.44813,-4.71442 -2.96502,-10.22441 -3.87693,-15.45772 -0.28432,-1.6317 0.5674,-3.32099 0.31935,-4.9586 -0.11608,-0.76636 -0.4909,1.47041 -0.73635,2.20561 -7.01583,22.30033 -11.49509,45.25855 -15.65528,68.22692 -3.8456,25.84353 -8.14136,51.98965 -7.15978,78.22641 0.19544,5.22399 0.82604,10.4226 1.23907,15.6339 1.17272,5.55618 1.92799,11.21714 3.51818,16.66854 5.24759,17.98948 14.4517,33.02854 27.41581,46.50257 10.63061,11.04876 16.04563,13.94243 28.53319,22.70038 26.6514,16.45643 56.25505,26.86918 85.67755,37.10323 13.72473,4.28343 27.21622,9.64169 41.2616,12.86095 2.41936,0.55452 4.86979,0.96352 7.30468,1.44528 10.17322,0.55362 16.87529,1.88395 27.13747,-2.8853 14.2515,-6.62324 21.77524,-14.9391 28.50798,-28.78766 6.70173,-13.78478 7.6161,-26.16288 10.13491,-41.08894 0.63705,-8.04594 1.2741,-16.09189 1.91115,-24.13784 3.93454,-52.88685 -70.85876,-58.45114 -74.79331,-5.56429 v 0 c -0.41535,6.1 -0.83069,12.19999 -1.24604,18.29998 -0.52202,4.10369 -1.05699,8.20574 -1.56606,12.31105 -0.19666,1.58593 -1.64203,3.59464 -0.55112,4.76245 0.84539,0.90499 2.02822,-1.43595 3.12963,-2.00215 8.82803,-4.53827 8.73696,-5.21018 18.01736,-5.30989 0.96293,-0.0103 1.87992,0.41863 2.81989,0.62794 -3.98857,-0.48743 -7.9133,-1.81858 -11.73846,-2.98786 -8.61795,-2.63435 -17.16868,-5.49015 -25.70173,-8.38484 -23.2279,-8.07072 -46.6742,-16.03024 -68.11816,-28.27202 -7.76228,-4.97533 -17.5003,-11.06455 -22.54217,-19.1272 -2.72067,-4.35074 -2.93682,-6.40643 -4.40747,-11.38126 -0.31467,-2.96724 -0.79477,-5.92158 -0.944,-8.90172 -1.07935,-21.55511 2.97587,-43.7217 5.96549,-64.98036 3.62854,-20.15017 7.47591,-40.30933 13.64461,-59.86772 1.42755,-4.89883 3.93898,-12.4911 3.60401,-17.29456 -0.45526,-6.52858 -1.07576,-13.30989 -3.79353,-19.26331 -4.87915,-10.68802 -12.03673,-15.87564 -21.71934,-20.62324 -2.2606,-1.10842 -4.75467,-1.65795 -7.13201,-2.48692 -2.02322,-0.47282 -4.03172,-1.01373 -6.06966,-1.41846 -18.07787,-3.59022 -36.70511,-3.45889 -55.04097,-3.52782 -17.62122,0.54418 -21.76817,0.47348 -39.9349,1.91092 -33.15682,2.62352 -66.12342,7.364 -98.82088,13.40233 -7.70501,1.55308 -15.43167,3.00232 -23.11501,4.65925 -17.47354,3.7682 -34.71817,8.4929 -52.12288,12.5485 -52.67138,6.18272 -43.92769,80.6713 8.74368,74.48858 z"/>
<path d="m 470.52264,621.56129 c 27.72936,-4.33812 55.31034,-9.57743 83.05115,-13.84622 9.95132,-1.53132 19.92877,-2.88773 29.89315,-4.33159 42.90301,-5.86815 86.20565,-8.31406 129.49463,-7.68476 23.94699,0.34812 35.3839,1.26588 58.90251,2.64649 30.2926,2.44635 15.89854,1.16951 43.18776,3.76684 52.79543,5.01418 59.88656,-69.64984 7.09112,-74.66402 v 0 c -28.92033,-2.74108 -13.61619,-1.39126 -45.91884,-3.97598 -25.50772,-1.47416 -37.45849,-2.43378 -63.50521,-2.77294 -46.81121,-0.60954 -93.63321,2.10126 -140.02278,8.4618 -10.41683,1.51376 -20.84692,2.939 -31.25051,4.54127 -29.00265,4.46674 -57.85933,9.84835 -86.82099,14.56346 -51.82786,11.24159 -35.92984,84.53725 15.89801,73.29565 z"/>
<path d="m 577.13346,472.14316 c -1.20546,34.13591 -2.13593,68.2841 -3.24285,102.42464 -2.28764,63.35646 -4.13689,126.73753 -7.66756,190.0418 -0.75044,13.45538 -1.65579,26.90166 -2.48369,40.35249 -3.99035,52.42968 -1.79508,26.49034 -6.56024,77.82017 -4.89511,52.80661 69.78472,59.72933 74.67982,6.92272 v 0 c 4.89943,-52.92829 2.64546,-26.21563 6.73904,-80.13991 0.84381,-13.73635 1.76592,-27.46812 2.53144,-41.20905 3.55121,-63.74287 5.42141,-127.56249 7.7218,-191.35785 1.08247,-33.38753 2.03552,-66.78026 3.13553,-100.16622 3.31548,-52.92927 -71.53781,-57.61806 -74.85329,-4.68879 z"/>
</svg>
