<?xml version="1.0" ?>
<svg xmlns="http://www.w3.org/2000/svg" viewBox="0 0 1000 1000">
<path d="m 277.25621,249.4151 c 1.55398,-0.29647 3.09895,-0.64482 4.66193,-0.88942 14.81688,-2.31877 29.8162,-3.67026 44.69779,-5.46561 23.68404,-2.85728 29.32851,-3.65012 53.86621,-6.83496 44.82689,-6.10848 89.78923,-11.37498 134.96663,-14.04694 29.54612,-1.74748 38.58071,-1.68087 67.72793,-2.31479 38.6736,-0.54186 77.31479,1.36596 115.76112,5.45004 52.74042,5.56311 60.60784,-69.02311 7.86742,-74.58622 v 0 c -16.20256,-1.69826 -21.40085,-2.38352 -38.5505,-3.50869 -28.86696,-1.89392 -57.80759,-2.60839 -86.73373,-2.33685 -30.83254,0.69053 -40.24372,0.62278 -71.51067,2.49394 -46.58564,2.78791 -92.95639,8.17451 -139.18356,14.47361 -23.89722,3.1029 -29.86527,3.93698 -52.93581,6.72009 -7.1273,0.8598 -29.74848,3.43581 -37.85219,4.50403 -10.75386,1.41757 -9.83647,1.33057 -18.04625,2.91139 -51.92312,10.79305 -36.65944,84.22343 15.26368,73.43038 z"/>
<path d="m 335.14282,87.994327 c 0.21687,23.087053 0.45171,46.174813 0.65912,69.262263 -0.0726,60.87591 0.74973,121.73875 2.24541,182.59462 1.10831,54.62688 4.13985,109.19667 5.49474,163.81492 0.22777,9.18198 0.31438,18.36691 0.47157,27.55036 0.91546,53.0251 75.90429,51.73045 74.98883,-1.29466 v 0 c -0.16627,-9.55191 -0.26132,-19.10532 -0.49881,-28.65572 -1.35359,-54.43289 -4.36673,-108.81763 -5.479,-163.25897 -1.48823,-60.46586 -2.29641,-120.93863 -2.22577,-181.42442 -0.20546,-22.86281 -0.43511,-45.72607 -0.65609,-68.588393 0,-53.033009 -75,-53.033009 -75,0 z"/>
<path d="m 542.4758,71.149063 c 1.94153,21.201773 3.64486,42.418417 5.10579,63.658837 4.35469,56.9008 1.84739,113.95851 -0.26558,170.88967 -2.7553,62.71186 -3.93242,125.47564 -5.99687,188.20968 -1.74217,53.00439 73.21735,55.46819 74.95952,2.4638 v 0 c 2.05608,-62.62874 3.23967,-125.28664 5.9858,-187.89322 1.22759,-33.10911 2.68746,-66.23049 2.76773,-99.36918 0.0504,-20.80593 -0.35724,-35.61804 -1.31209,-56.17298 -0.36072,-7.76509 -0.87728,-15.52216 -1.31591,-23.28324 -1.46238,-21.18783 -3.11506,-42.357217 -5.09525,-63.503399 -3.53555,-52.915025 -78.3687,-47.914993 -74.83314,5.000032 z"/>
<path d="m 381.7466,338.98737 c 1.89692,0.009 3.79553,0.10823 5.69074,0.0274 8.72765,-0.37231 17.41751,-1.93477 26.05634,-3.10335 14.60919,-1.97619 11.62593,-1.55477 27.15214,-3.39989 23.37381,-2.59981 46.86607,-4.15938 70.38546,-4.4326 15.12234,-0.17568 19.19243,0.10954 34.15959,0.57862 19.29685,1.16616 10.07419,0.46101 27.67345,2.04267 52.82604,4.6808 59.44569,-70.02649 6.61966,-74.70729 v 0 c -20.49252,-1.79373 -9.82407,-1.00303 -32.01055,-2.30064 -6.28523,-0.18639 -12.56842,-0.46312 -18.85568,-0.55918 -32.34468,-0.49419 -64.69837,1.31498 -96.8396,4.9045 -16.43219,1.96017 -13.31338,1.51848 -28.57934,3.58373 -3.2797,0.4437 -6.55588,0.91303 -9.83462,1.36382 -1.93895,0.26658 -3.88047,0.51452 -5.81842,0.7883 -0.52519,0.0742 -1.08902,0.0332 -1.57057,0.25556 -0.22979,0.10611 0.49945,0.0825 0.74917,0.12373 -52.91607,-3.51981 -57.89384,71.31482 -4.97777,74.83463 z"/>
<path d="m 383.06263,444.6469 c 2.35556,0.42021 4.68814,1.00023 7.06667,1.26063 5.48423,0.60041 12.89129,0.58172 18.37758,0.51302 14.14781,-0.17718 28.25985,-1.01233 42.38181,-1.8213 6.00634,-0.3484 12.01082,-0.73046 18.01902,-1.04518 13.34061,-0.6988 24.92296,-1.21582 38.29991,-1.43446 18.72959,-0.30613 37.45561,0.0938 56.18006,0.47334 4.74832,0.12491 9.49664,0.24981 14.24496,0.37472 53.01474,1.392 54.98333,-73.58216 1.96859,-74.97416 v 0 c -4.90024,-0.12843 -9.80048,-0.25687 -14.70073,-0.3853 -19.94283,-0.40059 -39.88372,-0.79865 -59.83178,-0.4581 -14.16208,0.24177 -26.39741,0.7909 -40.50404,1.52981 -5.99607,0.31408 -11.98843,0.69539 -17.98265,1.04308 -11.64549,0.67271 -16.88406,1.04687 -28.17471,1.44784 -3.33959,0.1186 -6.68077,0.19303 -10.02198,0.2498 -2.22655,0.0378 -4.45429,-0.0189 -6.68053,0.034 -0.44531,0.0106 -1.62502,-0.1748 -1.32713,0.15637 0.45624,0.50722 1.31283,0.37167 1.96925,0.5575 -51.24995,-13.63606 -70.53425,58.84232 -19.2843,72.47838 z"/>
<path d="m 172.27347,609.80307 c 26.29023,-2.84182 52.41705,-7.08638 78.57869,-10.91076 36.55341,-5.30402 73.10678,-10.69757 109.83612,-14.66665 30.03366,-3.24552 37.52523,-3.59265 68.06778,-5.97137 60.55581,-3.97786 121.24491,-6.111 181.93259,-6.27762 10.97147,-0.0301 21.94287,0.0813 32.9143,0.12197 43.08687,0.79727 86.27141,1.16186 129.23288,4.92371 6.1677,0.54006 12.31716,1.27126 18.47574,1.90689 19.56773,3.01094 10.34555,1.29073 27.69832,4.98715 51.91937,10.81106 67.20851,-62.61402 15.28914,-73.42508 v 0 c -22.62173,-4.62922 -10.84613,-2.52691 -35.35057,-6.17224 -6.879,-0.69886 -13.74843,-1.49926 -20.63698,-2.09657 -44.69471,-3.87549 -89.61314,-4.32839 -134.43741,-5.12337 -11.28673,-0.0398 -22.57343,-0.15243 -33.86018,-0.11942 -62.41113,0.18251 -124.82358,2.38472 -187.09754,6.50227 -32.09444,2.51327 -39.49985,2.84642 -71.06922,6.26661 -37.39923,4.0518 -74.62249,9.52807 -111.8434,14.93246 -24.33405,3.55723 -48.63843,7.41861 -73.06186,10.31176 -52.89884,3.77001 -47.56724,78.58026 5.3316,74.81026 z"/>
<path d="m 338.58106,535.9868 c -12.24743,12.13435 -20.90294,27.25418 -31.40529,40.82211 -3.47342,4.48728 -7.12711,8.83209 -10.69066,13.24814 -32.34411,38.15346 -69.576,71.74512 -106.71655,105.10511 -39.44867,35.44435 10.67721,91.2332 50.12589,55.78884 v 0 c 40.13854,-36.07513 80.29255,-72.48631 115.05197,-113.91231 4.21518,-5.26338 8.52606,-10.45152 12.64555,-15.79013 7.51967,-9.74503 14.30506,-20.01829 21.60669,-29.91866 39.13348,-35.79205 -11.48413,-91.13515 -50.6176,-55.3431 z"/>
<path d="m 551.00756,584.29021 c 13.8361,17.34917 27.70323,34.66833 41.7469,51.85116 17.95518,22.18748 36.50932,43.87657 54.86203,65.73291 9.00172,10.52849 17.41582,21.6337 27.39145,31.29041 2.14525,2.07666 4.39834,4.03895 6.59751,6.05842 15.19764,13.06772 31.69574,24.72423 49.06701,34.73504 5.29791,3.05311 10.74919,5.83202 16.12378,8.74803 25.17217,11.63597 12.01393,6.10294 39.54656,16.42719 49.74265,18.38937 75.74915,-51.95735 26.0065,-70.34673 v 0 c -20.83972,-7.55822 -10.8556,-3.47752 -30.00223,-12.11938 -4.14929,-2.211 -8.36196,-4.30697 -12.44788,-6.633 -13.38857,-7.62183 -26.14888,-16.48067 -37.93721,-26.3919 -10.11124,-8.92899 -18.23268,-19.72424 -26.91038,-29.99887 -18.14026,-21.60098 -36.47934,-43.03688 -54.22627,-64.96551 -13.40116,-16.39559 -26.62711,-32.92773 -39.86615,-49.4522 -31.86536,-42.3922 -91.81698,2.67223 -59.95162,45.06443 z"/>
<path d="m 346.14273,719.0543 c 22.30527,-4.87996 44.96798,-7.86488 67.57703,-10.92292 28.89016,-3.58301 57.97205,-5.72074 87.08195,-6.22622 18.74253,-0.32546 24.25628,-0.0185 42.73427,0.40506 15.36442,0.5668 30.75607,1.37305 45.90516,4.15504 3.2839,0.60306 6.52207,1.43299 9.7831,2.14948 51.87669,11.01404 67.45289,-62.35068 15.57619,-73.36472 v 0 c -4.77327,-0.98928 -9.51681,-2.13486 -14.31983,-2.96785 -18.26398,-3.16752 -36.76849,-4.34023 -55.27227,-4.95331 -20.25575,-0.44031 -26.25886,-0.76927 -46.81095,-0.38515 -31.67188,0.59195 -63.31091,2.94043 -94.74144,6.86594 -25.32642,3.43309 -50.71848,6.81172 -75.66495,12.47436 -51.45637,12.83522 -33.30462,85.60551 18.15174,72.77029 z"/>
<path d="m 381.55574,675.96176 c -2.46494,3.33955 -4.20762,5.68164 -6.8073,9.34462 -6.11886,8.62152 -8.5442,12.44208 -15.14451,21.29255 -10.34162,13.86727 -13.50681,17.43841 -24.9379,31.51478 -25.56506,29.87149 -52.88435,58.33042 -81.99224,84.77801 -17.25869,15.68134 -34.14462,29.59155 -51.98887,44.6022 -23.74369,19.72354 -48.84821,37.69545 -73.76668,55.87719 -42.838995,31.26212 1.37233,91.84559 44.21132,60.58349 v 0 c 26.31245,-19.20454 52.79425,-38.22332 77.84792,-59.07751 19.71307,-16.59725 36.1685,-30.12706 55.24814,-47.51145 31.50187,-28.70287 61.06986,-59.57325 88.69301,-92.01176 5.06975,-6.25948 10.2211,-12.45374 15.20924,-18.77844 12.36787,-15.68183 23.6524,-32.12762 35.351,-48.29907 29.92095,-43.78627 -32.00218,-86.10088 -61.92313,-42.31461 z"/>
<path d="m 335.14282,788.61729 c 0.39897,23.16252 1.72972,46.29728 2.87525,69.43139 1.31685,27.59179 2.47324,55.21009 1.83021,82.83586 -0.10491,1.96979 -0.20983,3.93958 -0.31474,5.90938 -2.68598,52.96494 72.21776,56.76348 74.90374,3.79855 v 0 c 0.13077,-2.67762 0.26153,-5.35524 0.3923,-8.03286 0.63396,-29.42186 -0.4472,-58.83477 -1.90329,-88.22017 -1.08439,-21.89929 -2.33444,-43.79787 -2.78347,-65.72215 0,-53.03301 -75,-53.03301 -75,0 z"/>
<path d="m 395.74116,837.11504 c 18.29283,-5.40167 36.93767,-9.39756 55.62267,-13.15745 23.78602,-4.5651 47.7948,-8.1167 71.96389,-9.85919 14.24009,-1.02666 17.58458,-0.85878 31.56972,-1.0132 16.15025,0.35761 32.53866,0.6569 48.35019,4.33432 1.43361,0.47031 0.98902,0.30381 2.14905,0.74485 0.23686,0.0901 0.96035,0.3082 0.70937,0.27331 -2.25059,-0.31286 -5.45053,-2.82845 -6.99194,-3.79299 -6.01173,-5.85645 -7.4882,-6.19171 -11.01173,-13.70168 -0.988,-2.1058 -1.42929,-4.42714 -2.1601,-6.63541 -0.0704,-0.21284 -0.22219,-0.85023 -0.24337,-0.62703 -0.1031,1.0866 0.003,2.183 -0.008,3.27442 -0.0214,2.18107 -0.059,4.36195 -0.0885,6.54292 -0.30574,20.55727 -1.68175,41.16149 -5.84823,61.33538 -1.01372,4.90841 -2.33841,9.74743 -3.50761,14.62114 -5.00963,17.97593 -11.53055,35.47697 -18.06093,52.9411 -18.56034,49.67911 51.69653,75.92737 70.25687,26.24828 v 0 c 7.62962,-20.43811 15.2104,-40.93686 20.81815,-62.04464 1.47716,-6.39632 3.1468,-12.75121 4.43147,-19.18894 4.79773,-24.04234 6.54808,-48.55813 6.90513,-73.03324 0.07,-6.78116 0.59352,-16.07792 -0.73151,-22.73031 -2.47804,-12.44107 -6.04302,-18.29016 -15.4587,-26.78104 -1.81869,-1.19833 -3.58174,-2.48571 -5.45608,-3.59499 -6.00777,-3.55552 -12.96542,-5.24515 -19.61009,-7.10413 -21.4907,-4.58975 -43.47058,-6.0491 -65.42145,-6.07495 -6.06306,0.0892 -12.12924,0.0535 -18.18918,0.26748 -33.34158,1.17747 -66.47575,5.81892 -99.21184,12.08243 -20.60216,4.17334 -41.16192,8.59734 -61.33868,14.54705 -51.00115,14.53902 -30.43987,86.66553 20.56128,72.12651 z"/>
<path d="m 398.25848,977.53562 c 18.42492,-5.16368 37.37434,-8.21678 56.24552,-11.22158 17.58073,-2.4859 35.29086,-4.26414 53.05994,-4.47001 17.77656,-0.20596 35.50231,1.19047 53.20732,2.55247 52.87963,4.03047 58.57957,-70.75262 5.69994,-74.78309 v 0 c -15.20897,-1.14954 -24.38083,-2.00305 -39.90999,-2.46654 -28.07527,-0.83795 -56.13476,0.86159 -83.90633,5.1091 -22.86599,3.67427 -45.84994,7.42205 -68.06594,14.11258 -50.32272,16.7369 -26.65318,87.90397 23.66954,71.16707 z"/>
</svg>
