<?xml version="1.0" ?>
<svg xmlns="http://www.w3.org/2000/svg" viewBox="0 0 1000 1000">
<path d="m 379.1823,267.04558 c 24.75283,-3.91146 49.56416,-7.37432 74.42195,-10.54521 35.28412,-4.14585 70.77655,-6.90093 106.32186,-6.86953 5.58951,0.005 11.17742,0.18979 16.76613,0.28469 14.43421,0.28646 28.77004,1.88432 43.00315,4.19191 52.37396,8.33474 64.16106,-65.73323 11.7871,-74.06797 v 0 c -17.74693,-2.78472 -35.60582,-4.7981 -53.59146,-5.11436 -6.33416,-0.0957 -12.66759,-0.28978 -19.00247,-0.28709 -38.37347,0.0163 -76.69127,2.96713 -114.78162,7.4661 -24.78461,3.16629 -49.53554,6.5539 -74.20693,10.51808 -52.62527,6.56357 -43.34298,80.98695 9.28229,74.42338 z"/>
<path d="m 230.91014,471.92763 c 29.05775,-5.04393 58.31225,-8.77989 87.57982,-12.3531 54.51774,-5.86459 109.27976,-9.65798 164.09206,-11.24127 12.2994,-0.35527 24.60444,-0.47748 36.90666,-0.71623 56.79369,-0.37947 113.64429,0.35211 170.35476,3.67933 8.62509,0.50603 17.23815,1.19954 25.85723,1.79931 18.79358,1.55207 37.55538,3.79689 55.98671,7.86042 3.82034,0.84227 7.58744,1.91007 11.38116,2.8651 51.4827,12.72915 69.48444,-60.07838 18.00174,-72.80754 v 0 c -5.04942,-1.23144 -10.06646,-2.60416 -15.14825,-3.69433 -21.42975,-4.5972 -43.20562,-7.27606 -65.03691,-9.04424 -9.12167,-0.62952 -18.23719,-1.3554 -27.365,-1.88855 -58.42407,-3.41254 -116.99139,-4.16742 -175.50044,-3.75511 -12.7776,0.25258 -25.55816,0.38464 -38.33281,0.75774 -56.88555,1.66144 -113.71843,5.61442 -170.29489,11.73923 -30.62436,3.74615 -61.23472,7.66803 -91.63763,12.96208 -52.21075,9.30255 -39.05497,83.1397 13.15579,73.83716 z"/>
<path d="m 451.65362,438.35877 c 2.90934,19.61777 3.55879,39.51607 4.55114,59.29996 1.26856,32.51391 2.11235,65.05493 1.97947,97.59632 -0.0993,24.32734 -0.42684,31.96252 -1.05086,56.38629 -1.70543,48.92901 -4.15693,97.83999 -8.20775,146.63351 -0.54495,5.36953 -1.02974,10.74551 -1.63485,16.10859 -1.14472,10.14565 -2.30446,20.55761 -5.03289,30.43876 -1.4462,5.23751 -1.29465,5.04569 -1.52836,2.74973 6.54126,-10.18014 2.54586,-6.06635 13.05358,-13.3035 0.84383,-0.58119 3.2641,-0.92304 2.57391,-1.68034 -1.37,-1.50322 -3.89416,-1.18138 -5.80838,-1.86864 -11.74474,-4.21674 -12.64705,-4.91977 -25.29013,-10.49104 -5.13825,-2.43654 -10.2765,-4.87308 -15.41475,-7.30961 -47.9439,-22.66897 -80.00266,45.13395 -32.05876,67.80292 v 0 c 5.86561,2.76633 11.73122,5.53267 17.59683,8.29901 30.08121,12.91968 66.67877,30.24459 97.70963,9.02341 5.49355,-3.75689 9.02795,-9.78107 13.54192,-14.67161 1.89091,-3.94727 4.05713,-7.77408 5.67272,-11.8418 2.30786,-5.81067 4.46842,-15.61296 5.60782,-21.64604 2.83434,-15.00762 4.27997,-30.23372 5.75572,-45.41843 4.15123,-50.22084 6.71119,-100.55857 8.43952,-150.91897 0.64324,-25.4281 0.9785,-33.23181 1.07452,-58.58243 0.12765,-33.70183 -0.74401,-67.40339 -2.07373,-101.07622 -1.22086,-24.17791 -1.92387,-48.58143 -6.38539,-72.43071 -11.9507,-51.66895 -85.02163,-34.76811 -73.07093,16.90084 z"/>
<path d="m 253.36431,582.23797 c 0.0398,-0.39165 0.35349,-1.49136 0.11931,-1.17494 -0.90724,1.22586 -1.46901,2.6731 -2.21324,4.00424 -1.6546,2.95947 -3.25023,5.95326 -4.9832,8.86753 -2.38981,4.01885 -4.88182,7.97645 -7.38244,11.9273 -6.2072,9.8071 -17.19853,26.60229 -23.19037,35.80215 -15.4622,23.19154 -30.39166,46.73347 -45.83714,69.9359 -10.7642,16.17015 -19.13377,28.22184 -30.1145,44.19751 -30.03797,43.70607 31.77174,86.18617 61.80971,42.4801 v 0 c 11.57151,-16.8385 19.63824,-28.44676 31.00388,-45.5215 15.49476,-23.27799 30.47316,-46.89566 45.98521,-70.16238 5.82623,-8.94668 18.19465,-27.84734 24.20793,-37.40878 6.01047,-9.55698 9.96312,-15.97777 15.09772,-25.62337 1.66948,-3.13621 3.35332,-6.27212 4.7921,-9.52064 1.21638,-2.74637 2.10792,-5.62539 3.16188,-8.43809 13.69315,-51.23473 -58.7637,-70.59976 -72.45685,-19.36503 z"/>
<path d="m 656.24158,619.13244 c 9.87002,7.94622 17.67063,18.33581 25.44809,28.2323 16.41797,22.80181 32.40965,46.01774 46.45372,70.37821 2.22863,3.86574 4.31621,7.8111 6.47432,11.71665 4.18322,7.69397 7.77176,15.67469 11.21437,23.71759 21.00005,48.69802 89.86946,18.99946 68.86941,-29.69857 v 0 c -4.4669,-10.30182 -9.08818,-20.53853 -14.49478,-30.39324 -2.57119,-4.62219 -5.06306,-9.28939 -7.71357,-13.86656 -15.73384,-27.17079 -33.55041,-53.12604 -52.04933,-78.46901 -14.15265,-17.71088 -28.73262,-36.20878 -48.70629,-47.68581 -46.71744,-25.09942 -82.21338,40.96902 -35.49594,66.06844 z"/>
</svg>
