<?xml version="1.0" ?>
<svg xmlns="http://www.w3.org/2000/svg" viewBox="0 0 1000 1000">
<path d="m 237.51934,155.72793 c 7.25381,7.4007 12.8686,16.06372 18.32791,24.8148 6.16933,9.88921 9.88578,16.25983 15.9484,26.44045 8.03536,13.91521 16.09544,27.93947 21.9248,42.96534 1.80421,4.65056 3.19079,9.45252 4.78619,14.17878 17.40762,50.09466 88.25216,25.47656 70.84454,-24.61809 v 0 c -2.36985,-6.68471 -4.47941,-13.46748 -7.10956,-20.05412 -7.07552,-17.71912 -16.45999,-34.39405 -26.01359,-50.8577 -12.45185,-20.89284 -24.38007,-42.55117 -40.86636,-60.61111 -33.75844,-40.900706 -91.60077,6.84094 -57.84233,47.74165 z"/>
<path d="m 156.38594,409.36298 c 20.04828,-5.71431 40.53642,-9.58311 60.99131,-13.49716 44.72085,-8.26586 89.62256,-15.51245 134.46477,-23.08267 23.01806,-3.54997 45.8906,-8.21764 69.02281,-11.01339 0.44582,7.1e-4 1.78328,0.002 1.33746,0.002 -13.33138,-0.0108 -20.98961,0.97013 -32.21178,-18.09726 -5.25762,-8.93313 -1.8578,-20.6627 -2.10274,-31.0253 -0.0265,-1.12239 2.34732,-3.50248 1.2959,-3.10881 -1.54603,0.57885 -2.11034,2.53921 -3.16551,3.80881 -19.22495,22.57398 -38.05898,45.47564 -57.06879,68.23105 -29.66806,35.69853 -59.17495,71.53849 -89.62775,106.57539 -6.8255,7.85295 -13.75059,15.61879 -20.62589,23.42819 -26.42947,29.56579 -53.75412,58.40225 -82.77147,85.45594 -15.62079,14.56371 -20.14948,18.06958 -36.049843,31.49354 -5.01219,4.04813 -10.02438,8.09625 -15.036569,12.14438 -41.241456,33.3413 5.910264,91.66553 47.151722,58.32423 v 0 c 5.43856,-4.4007 10.87712,-8.80139 16.31567,-13.20208 17.68675,-14.98113 22.27235,-18.51497 39.63576,-34.7299 30.50456,-28.48686 59.25208,-58.82202 87.05226,-89.93222 7.0845,-8.05015 14.21933,-16.05629 21.25351,-24.15045 30.66469,-35.28557 60.38643,-71.37183 90.26107,-107.32351 19.15277,-22.92719 38.13358,-45.99717 57.49621,-68.74738 2.66549,-3.27562 11.45668,-13.63814 11.92177,-16.7105 1.79324,-11.84627 5.49101,-25.20433 0.17823,-35.94323 -9.03895,-18.27073 -22.85202,-21.117 -38.22004,-21.36647 -2.06823,-0.0336 -4.12676,0.29085 -6.19014,0.43627 -24.23037,3.02622 -48.23131,7.64894 -72.33666,11.497 -45.38446,7.6618 -90.82937,14.99514 -136.08848,23.37519 -22.33054,4.2809 -44.68437,8.56781 -66.57549,14.78973 -51.172248,13.92485 -31.47954,86.29333 19.6927,72.36848 z"/>
<path d="m 268.89298,493.58291 c 0.36191,27.01078 1.37998,54.00776 2.18854,81.00774 1.65185,56.20198 0.78453,112.43018 -0.51305,168.62789 -0.74232,24.73426 -1.52905,49.48774 -3.81255,74.13875 -0.92022,9.93411 -2.41331,22.79149 -4.32369,32.80819 -0.64941,3.40504 -1.60931,6.74347 -2.41397,10.1152 -0.73477,2.10484 -1.46955,4.20968 -2.20432,6.31452 -16.37003,50.44326 54.96751,73.59397 71.33753,23.15072 v 0 c 1.32509,-4.24252 2.65018,-8.48504 3.97528,-12.72755 1.14077,-5.12568 2.46629,-10.2137 3.42231,-15.37703 2.17771,-11.76156 3.91904,-26.85433 4.99043,-38.59036 2.37098,-25.97182 3.24091,-52.04606 4.00906,-78.10384 1.32413,-57.52218 2.19695,-115.07538 0.49936,-172.60158 -0.78622,-26.25195 -1.76805,-52.50095 -2.15493,-78.76265 0,-53.033 -75,-53.033 -75,0 z"/>
<path d="m 355.29167,553.13878 c 10.04082,9.35557 20.51629,18.22781 30.65102,27.48426 10.13333,9.39906 20.38073,18.67256 30.73963,27.822 39.75091,35.10506 89.39696,-21.11122 49.64605,-56.21627 v 0 c -10.05311,-8.8769 -19.9919,-17.88086 -29.8252,-27.00102 -10.54864,-9.62209 -21.42653,-18.86889 -31.88592,-28.58664 -39.94988,-34.87845 -89.27547,21.61922 -49.32558,56.49767 z"/>
<path d="m 482.2286,221.46039 c 1.10434,18.44006 1.0706,36.93264 1.31364,55.39869 0.4101,44.23713 1.98283,88.44726 3.58384,132.6533 2.02579,51.02875 2.9807,102.09007 3.31827,153.15534 0.0593,47.32451 -0.96844,94.63931 -0.80124,141.9638 0.47094,32.77314 1.66547,65.82437 8.51544,97.99502 1.16184,5.45655 2.69122,10.82833 4.03682,16.2425 1.95965,5.37833 3.54705,10.90729 5.87893,16.13501 7.28917,16.34119 17.9433,30.79064 32.2745,41.65682 12.62072,9.56926 18.3464,10.96116 32.72454,17.07255 35.09844,11.90383 72.28357,11.69714 108.87682,11.21398 28.39581,-0.73842 56.7992,-0.84031 85.20038,-0.4652 12.44185,-0.16711 25.15657,1.07615 37.50844,-1.07495 3.89906,-0.67903 7.88264,-1.24861 11.5586,-2.71526 5.45187,-2.17521 10.41388,-5.41927 15.62083,-8.1289 4.70064,-5.10737 10.32091,-9.50101 14.10192,-15.32211 12.5811,-19.36934 14.04824,-46.05432 14.89589,-68.26949 0.9087,-23.81504 0.0239,-44.99536 -0.51179,-68.965 -0.53573,-13.41039 -1.07146,-26.82078 -1.60719,-40.23116 -2.12423,-52.99045 -77.06404,-49.98633 -74.93981,3.00412 v 0 c 0.52219,12.97996 1.04437,25.95992 1.56656,38.93988 0.57811,24.73539 1.25415,38.61457 0.64485,62.46997 -0.15825,6.19543 -0.55658,12.38373 -0.99111,18.56593 -0.22168,3.15391 -1.07184,6.27436 -0.977,9.43463 0.0689,2.29579 12.00015,0.33205 6.51893,-2.23199 1.87535,-0.51189 3.71553,-1.17669 5.62606,-1.53567 0.15541,-0.0292 0.29982,0.40827 0.14754,0.45084 -2.43956,0.68192 -8.13385,0.72054 -9.99644,0.753 -6.24738,0.10887 -11.88842,-0.0394 -18.17952,-0.13735 -29.07405,-0.38116 -58.15065,-0.28756 -87.21926,0.46581 -26.73457,0.3845 -53.99235,1.20725 -80.03179,-5.87337 -5.27915,-1.78067 -11.26678,-3.32253 -15.72085,-6.92 -5.31415,-4.29215 -8.03378,-10.49269 -10.27963,-16.76113 -0.98223,-3.74774 -2.11164,-7.45996 -2.94669,-11.24322 -6.13579,-27.79853 -6.78809,-56.46068 -7.29647,-84.79677 -0.17587,-47.40013 0.88634,-94.79073 0.80008,-142.19103 -0.3465,-51.80402 -1.31097,-103.60412 -3.36576,-155.37119 -1.58026,-43.63037 -3.1388,-87.26461 -3.54119,-130.92575 -0.278,-21.12188 -0.13303,-42.30006 -1.84375,-63.36722 -6.33254,-52.65358 -80.79594,-43.698 -74.46339,8.95557 z"/>
</svg>
