<?xml version="1.0" ?>
<svg xmlns="http://www.w3.org/2000/svg" width="1000" height="1000">
<path d="m 186.89569,157.64751 c 14.7073,8.48594 27.52777,19.78709 40.02584,31.16556 3.32728,3.44879 6.65456,6.89759 9.98184,10.34639 37.01937,37.97455 90.7235,-14.37874 53.70413,-52.35329 v 0 c -4.46379,-4.5433 -8.92757,-9.0866 -13.39136,-13.62989 -4.2635,-3.83283 -8.43521,-7.77027 -12.7905,-11.49847 -14.60211,-12.49964 -30.22551,-24.26401 -47.52503,-32.766783 -48.60404,-21.216684 -78.60896,47.519803 -30.00492,68.736483 z"/>
<path d="m 135.57662,332.32044 c 28.79857,-6.94792 57.51112,-14.23815 86.33649,-21.0745 36.71084,-9.04494 74.04736,-14.96405 111.57729,-19.26889 8.2784,-0.82674 16.55933,-1.71814 24.86697,-2.21282 1.09281,-0.0651 2.18735,-0.10838 3.28203,-0.12048 0.1723,-0.002 0.68063,0.10833 0.51092,0.0785 -3.83262,-0.67283 -7.66651,-1.33845 -11.49976,-2.00768 -7.83761,-13.83583 -18.64046,-26.37084 -23.51283,-41.5075 -1.51701,-4.71278 4.24137,-8.97986 5.74275,-13.69765 0.34292,-1.07758 -1.49961,1.69436 -2.20431,2.57878 -1.74408,2.18887 -3.49621,4.37391 -5.14027,6.63887 -3.46113,4.76828 -10.05276,14.73994 -13.18543,19.42576 -27.20591,41.60057 -58.06021,80.59942 -88.53428,119.80901 -43.56342,56.02417 -89.12111,110.44624 -135.532747,164.11989 -18.61432,21.58547 -37.539582,42.89623 -56.548559,64.13341 -35.3677428,39.51738 20.518262,89.53492 55.886005,50.01755 v 0 c 19.292251,-21.55784 38.503171,-43.18714 57.396341,-65.09713 47.2616,-54.66526 93.65442,-110.0918 138.01683,-167.14934 31.57157,-40.62224 63.48227,-81.0648 91.67263,-124.15963 3.45332,-5.16901 6.79805,-10.41268 10.37338,-15.49807 4.75979,-6.77009 17.27698,-18.16464 15.5033,-25.93137 -3.66705,-16.05752 -15.37257,-29.13501 -23.05886,-43.70251 -4.65984,-0.98647 -9.27386,-2.22183 -13.97952,-2.95942 -1.62342,-0.25446 -9.22856,0.14166 -10.64387,0.22772 -9.34941,0.5685 -18.66971,1.56481 -27.98611,2.50594 -40.46616,4.67181 -80.72616,11.06917 -120.31621,20.80297 -19.46568,4.62047 -38.86459,9.46974 -58.28998,14.25354 -0.82512,0.2032 -22.94183,5.55935 -25.47466,6.20899 -2.98623,0.76593 -5.95119,1.61257 -8.92678,2.41885 -50.322795,16.73669 -26.653549,87.90386 23.66924,71.16718 z"/>
<path d="m 207.89888,453.65388 c 1.62368,19.31295 1.7763,38.71548 2.03306,58.08266 0.67367,50.91697 -1.57944,101.79881 -4.7888,152.59861 -2.47647,35.05026 -6.44355,69.99996 -12.15534,104.67278 -2.78684,16.91723 -4.27975,23.83661 -7.52123,40.24519 -1.12525,5.25397 -2.2505,10.50794 -3.37576,15.76191 -11.09082,51.86033 62.25076,67.54513 73.34158,15.6848 v 0 c 1.20587,-5.64624 2.41173,-11.29248 3.61759,-16.93873 3.50412,-17.80487 5.06326,-25.03104 8.07609,-43.4166 6.04154,-36.86806 10.24843,-74.02604 12.86853,-111.29141 3.31475,-52.70684 5.64092,-105.49789 4.93056,-158.32526 -0.30185,-22.14055 -0.46415,-44.33977 -2.60799,-66.39698 -6.59238,-52.62167 -81.01066,-43.29864 -74.41829,9.32303 z"/>
<path d="m 278.09885,513.06846 c 10.33192,4.29733 20.37389,9.40772 29.83826,15.38885 2.74979,1.73777 5.39743,3.63214 8.09614,5.44821 12.01202,8.59758 22.46372,19.10859 33.06758,29.32945 38.19979,36.7869 90.22433,-17.23575 52.02454,-54.02266 v 0 c -13.85814,-13.33474 -27.68346,-26.85079 -43.59243,-37.77899 -3.88115,-2.55488 -7.69663,-5.21242 -11.64345,-7.66462 -12.54772,-7.79604 -25.80954,-14.48038 -39.44761,-20.1385 -49.10026,-20.04155 -77.4433,49.39671 -28.34303,69.43826 z"/>
<path d="m 707.32036,98.518937 c -0.74172,0.662188 -1.4385,1.378455 -2.22517,1.986563 -3.47588,2.6869 -7.29857,4.89368 -11.00128,7.25822 -4.42441,2.82541 -8.83876,5.66788 -13.31476,8.41084 -18.06847,11.07262 -19.3319,11.48848 -39.03619,22.47631 -32.02701,17.37171 -64.56745,33.84182 -98.07682,48.17932 -15.20425,6.50537 -25.4226,10.38018 -40.5747,16.31016 -49.38019,19.34159 -22.02705,89.17572 27.35314,69.83413 v 0 c 16.5595,-6.49118 26.96937,-10.43486 43.66312,-17.60006 35.59329,-15.27716 70.18578,-32.75796 104.20829,-51.2452 7.8717,-4.40336 15.80391,-8.70024 23.6151,-13.21006 10.66433,-6.15708 22.97665,-13.7607 33.45582,-20.54643 3.87196,-2.50727 7.75385,-5.0045 11.51768,-7.67134 6.25004,-4.42842 6.71199,-4.97039 11.03359,-8.83955 39.13334,-35.7922 -11.48448,-91.135102 -50.61782,-55.342903 z"/>
<path d="m 459.06752,240.66847 c 1.25297,15.50345 3.06647,30.95963 3.85679,46.50063 0.2928,5.7578 0.41391,11.52304 0.62087,17.28456 0.65407,31.21895 -0.64912,62.49997 -6.6015,93.22077 -5.05086,26.0679 -7.55455,32.02562 -15.28162,57.85897 -13.91568,41.66658 -32.86797,81.51303 -54.28347,119.81614 -11.54434,20.64786 -18.47753,31.09951 -30.95717,50.90923 -4.60565,7.06701 -9.21129,14.13403 -13.81694,21.20104 -28.9475,44.43583 33.89424,85.37377 62.84174,40.93795 v 0 c 4.8193,-7.40074 9.6386,-14.80148 14.45791,-22.20222 13.88812,-22.10483 20.79926,-32.48912 33.696,-55.63653 23.80244,-42.72121 44.68326,-87.22699 59.97527,-133.73074 8.80268,-29.98715 11.83507,-37.44022 17.50371,-67.79881 6.61045,-35.40239 8.23602,-71.41 7.41474,-107.35025 -0.24899,-6.55522 -0.40603,-13.11459 -0.74695,-19.66568 -0.79577,-15.29129 -2.46682,-30.51224 -3.80938,-45.75902 -3.12114,-52.94108 -77.99114,-48.52713 -74.87,4.41396 z"/>
<path d="m 508.57148,461.40812 c 21.56242,-4.98745 43.43783,-8.59291 65.40822,-11.22808 8.57554,-1.02857 17.17804,-1.81838 25.76706,-2.72757 53.68159,-4.49475 107.49793,-7.68466 161.34845,-9.24877 10.59993,-0.30788 21.20417,-0.44317 31.80626,-0.66476 34.61577,-0.63828 69.20843,0.88031 103.66599,4.08984 52.80711,4.88972 59.72222,-69.79081 6.91511,-74.68053 v 0 c -37.28315,-3.43389 -74.70769,-5.10265 -112.15921,-4.39271 -10.99479,0.23294 -21.99181,0.37769 -32.98438,0.69882 -55.58319,1.6238 -111.13222,4.92073 -166.53652,9.62005 -9.33908,1.00057 -18.69305,1.87067 -28.01722,3.00171 -24.86303,3.01591 -49.61847,7.15748 -73.99642,12.92201 -51.34302,13.28135 -32.56036,85.89134 18.78266,72.60999 z"/>
<path d="m 625.21416,413.06306 c 1.44882,18.3608 2.80475,36.72711 3.98058,55.10769 3.02798,53.33503 2.32721,106.78598 1.62774,160.17345 -1.37615,69.05615 -3.43654,138.09404 -4.62612,207.15433 -0.14016,10.50023 -0.28032,21.00047 -0.42047,31.5007 -0.70736,53.02829 74.28596,54.02865 74.99332,1.00036 v 0 c 0.13868,-10.40336 0.27736,-20.80672 0.41604,-31.21008 1.19004,-69.16399 3.26334,-138.30533 4.63083,-207.46539 0.72087,-55.31411 1.40904,-110.69335 -1.77493,-165.9508 -1.18465,-18.44776 -2.52772,-36.88295 -3.99384,-55.31027 -3.53554,-52.91503 -78.36869,-47.91501 -74.83315,5.00001 z"/>
</svg>
