<?xml version="1.0" ?>
<svg xmlns="http://www.w3.org/2000/svg" viewBox="0 0 1000 1000">
<path d="m 327.19561,159.17811 c 7.88052,-0.77134 6.29676,-0.56437 16.20831,-1.873 14.48902,-1.913 14.54525,-2.12785 29.80815,-3.93686 18.2294,-2.16061 23.04827,-2.49495 42.11485,-4.30276 50.43915,-4.74537 101.06629,-6.8635 151.71046,-7.40959 20.62158,-0.23622 41.22961,0.35404 61.79745,1.79922 52.90665,3.65878 58.08095,-71.162515 5.1743,-74.821298 v 0 c -22.56722,-1.53942 -45.17322,-2.255867 -67.79768,-1.973374 -52.73691,0.592294 -105.4566,2.785084 -157.97953,7.741386 -20.41333,1.943878 -24.987,2.249663 -44.52404,4.571047 -12.71992,1.511375 -25.37471,3.523768 -38.09706,5.001939 -1.87088,0.217372 -3.74901,0.366992 -5.62351,0.550487 -52.7875,5.097043 -45.5792,79.749843 7.2083,74.652803 z"/>
<path d="m 177.52715,273.0795 c 2.9589,18.10628 8.75925,35.56845 13.75362,53.1721 1.43214,5.04789 2.7757,10.12049 4.16356,15.18074 7.1074,27.10417 12.57931,54.59479 18.75029,81.91821 2.54846,10.73973 1.33928,5.72491 3.61419,15.04768 12.5776,51.51994 85.4378,33.73251 72.86019,-17.78742 v 0 c -2.10128,-8.60282 -0.99147,-4.00664 -3.31885,-13.79112 -6.42983,-28.43859 -12.10975,-57.05718 -19.58398,-85.25066 -1.50634,-5.47747 -2.96897,-10.96715 -4.51904,-16.43241 -4.11722,-14.51655 -8.99142,-28.89273 -11.64179,-43.77978 -8.28917,-52.38119 -82.36737,-40.65853 -74.07819,11.72266 z"/>
<path d="m 261.62662,320.51978 c 22.29572,-5.90766 44.86298,-10.69956 67.41354,-15.51256 54.54062,-11.4381 110.02654,-17.18639 165.46387,-22.1219 57.74473,-5.02629 115.66355,-7.29293 173.5862,-8.92067 27.93236,-0.97501 55.87227,-0.51967 83.79419,0.45562 6.14321,0.23611 5.51831,0.20688 11.02272,0.43525 1.55749,0.0646 3.14863,-0.0857 4.66944,0.25652 0.30972,0.0697 -0.63824,0.0103 -0.95146,-0.0414 -1.27957,-0.21107 -2.54566,-0.49697 -3.81849,-0.74546 -8.97804,-3.62434 -11.70831,-3.79969 -19.13521,-13.52646 -2.77476,-3.63402 -4.19296,-8.1635 -5.66454,-12.49245 -0.72268,-2.12595 -0.55118,-4.457 -0.85357,-6.68197 -0.0257,-0.18893 -0.0835,-0.7418 -0.13025,-0.55697 -0.29829,1.1782 -0.42507,2.39329 -0.63761,3.58993 -2.59515,12.82761 -6.2168,25.41491 -9.59118,38.05066 -1.3415,5.02338 -2.57278,10.07718 -4.01018,15.07397 -1.47538,5.12882 -3.15096,10.19792 -4.72644,15.29688 -5.93608,16.79172 -13.47766,32.94847 -20.6837,49.21509 -21.47422,48.4908 47.10213,78.85994 68.57635,30.36914 v 0 c 8.40478,-18.98469 17.15527,-37.86347 23.80206,-57.56452 1.83696,-6.01171 3.7731,-11.99399 5.51086,-18.03511 1.42346,-4.94849 2.6428,-9.95343 3.97126,-14.92827 3.98686,-14.93002 8.24426,-29.81333 11.10803,-45.01376 1.2731,-7.77995 3.15845,-16.582 1.02629,-24.40449 -1.40309,-5.14765 -3.05217,-10.43374 -6.15014,-14.77765 -7.73159,-10.84106 -11.50909,-11.33243 -21.52346,-15.64643 -2.05304,-0.47474 -4.08772,-1.03742 -6.15913,-1.42422 -7.57379,-1.41429 -15.40398,-0.73933 -23.03837,-1.40275 -29.4951,-1.02654 -59.00979,-1.4865 -88.51555,-0.47153 -59.44252,1.67246 -118.88022,4.02193 -178.13931,9.18743 -25.25029,2.25492 -38.48563,3.27331 -63.65001,6.17198 -37.14273,4.27843 -74.18929,9.74445 -110.81278,17.30667 -23.76491,5.07574 -47.54349,10.14515 -71.03785,16.38107 -51.24993,13.63614 -31.96551,86.11449 19.28442,72.47835 z"/>
<path d="m 376.30679,155.40669 c 0.38617,21.50421 0.131,43.0176 0.0654,64.52443 0.20708,38.72752 -0.68465,77.44459 -1.17195,116.16587 -0.16669,21.06897 -0.058,42.13857 0.0523,63.20745 0.27786,53.03228 75.27683,52.63933 74.99897,-0.39295 v 0 c -0.10814,-20.6239 -0.21564,-41.24849 -0.0572,-61.8725 0.48841,-38.95898 1.38521,-77.91376 1.17752,-116.879 0.0695,-22.77441 0.37806,-45.55873 -0.15029,-68.32863 -2.52814,-52.972717 -77.44287,-49.39738 -74.91473,3.57533 z"/>
<path d="m 511.17914,137.26979 c 0.0205,22.05064 -0.34085,44.09542 -0.18951,66.14945 0.41781,28.90524 1.43625,57.81416 0.89082,86.72573 -0.36049,19.10787 -0.86927,25.4884 -1.89337,44.55672 -1.94627,29.20988 -0.90442,14.67045 -3.12195,43.61852 -4.04609,52.87844 70.73531,58.60048 74.7814,5.72204 v 0 c 2.29474,-30.02284 1.21464,-14.9063 3.23432,-45.35006 1.10254,-20.8472 1.61657,-27.1639 1.99818,-48.08689 0.53333,-29.24106 -0.4392,-58.47923 -0.89126,-87.71356 -0.11926,-16.53161 -0.2056,-17.60903 -0.0358,-33.45109 0.12977,-12.11014 0.57884,-24.23179 0.11123,-36.34038 -2.9483,-52.950989 -77.83231,-48.781471 -74.88402,4.16952 z"/>
<path d="m 291.68225,476.75467 c 19.9132,-7.08215 40.68342,-11.25079 61.32965,-15.53064 38.35129,-7.57891 76.83818,-14.66971 115.72048,-18.93949 8.60985,-0.94547 17.2448,-1.64647 25.86721,-2.46971 41.98044,-2.95033 84.13774,-4.26053 126.21927,-3.16032 6.9987,0.18298 13.99144,0.54833 20.98716,0.82249 24.44654,1.15832 48.75756,3.95348 73.0128,7.09963 52.59314,6.81627 62.23281,-67.56166 9.63967,-74.37793 v 0 c -26.49353,-3.43101 -53.05344,-6.43222 -79.75619,-7.66576 -7.61215,-0.29037 -15.22124,-0.67731 -22.83646,-0.87112 -44.82427,-1.14079 -89.72823,0.26725 -134.43873,3.49676 -9.33396,0.9019 -18.68148,1.6731 -28.00188,2.70569 -40.87731,4.52872 -81.35166,11.93837 -121.67228,19.9284 -24.91395,5.18862 -49.96821,10.37415 -73.87143,19.30484 -49.25505,19.65808 -21.45432,89.31524 27.80073,69.65716 z"/>
<path d="m 385.70064,591.32452 c 13.39046,-3.92805 26.84902,-7.61093 40.56172,-10.25516 4.62297,-0.89144 9.27468,-1.62672 13.91202,-2.44008 28.7648,-4.25179 57.85937,-6.38999 86.94121,-6.21012 5.68583,0.0352 11.36853,0.27576 17.0528,0.41364 17.0522,0.78313 34.15792,1.95378 50.86639,5.59741 51.89843,10.91112 67.32909,-62.48435 15.43065,-73.39547 v 0 c -21.26612,-4.37121 -42.88256,-6.45715 -64.57882,-7.18225 -6.55716,-0.14264 -13.11283,-0.40101 -19.67148,-0.42792 -33.16494,-0.1361 -66.34184,2.36934 -99.12558,7.35495 -5.52412,0.98707 -11.06544,1.88232 -16.57237,2.9612 -14.95068,2.92904 -29.66842,6.84779 -44.27397,11.15171 -51.21723,13.75848 -31.75979,86.19058 19.45743,72.43209 z"/>
<path d="m 222.91758,757.98138 c 19.25068,-7.49963 39.60908,-11.71041 59.65956,-16.44558 48.05668,-11.05937 96.69904,-19.47395 145.5439,-26.18713 11.49176,-1.57941 23.01077,-2.95376 34.51615,-4.43064 44.9564,-5.48188 90.18002,-8.43598 135.45032,-9.40943 25.81128,-0.55501 35.06457,-0.31989 60.49914,-0.14874 41.07444,0.35332 82.12893,2.31958 122.9634,6.79792 12.3683,1.79825 6.66246,0.84463 17.134,2.76052 52.19764,9.37582 65.45705,-64.4428 13.25941,-73.81862 v 0 c -13.92839,-2.46778 -6.51203,-1.27086 -22.26357,-3.49996 -43.37694,-4.70539 -86.97352,-6.90174 -130.60386,-7.23827 -26.59643,-0.16837 -36.36321,-0.4119 -63.36921,0.18495 -47.67136,1.05356 -95.29198,4.1997 -142.63153,9.98366 -11.95022,1.53813 -23.91459,2.9701 -35.85067,4.61438 -50.98228,7.02317 -101.74753,15.84545 -151.90548,27.40396 -23.31771,5.51986 -46.91301,10.61152 -69.27236,19.41184 -49.51242,19.00052 -22.64162,89.02166 26.8708,70.02114 z"/>
<path d="m 459.07588,702.24703 c 0.57529,17.81335 1.2488,35.62314 1.78924,53.43769 0.74342,33.12714 0.15804,66.27738 -1.12153,99.38371 -0.85058,19.76162 -2.57762,39.47325 -5.09774,59.08884 -0.27607,2.08268 -0.65546,5.19589 -1.04523,7.40731 -0.0532,0.30186 -0.28215,1.19302 -0.21944,0.89298 1.03777,-4.96505 2.46657,-11.0973 6.75121,-14.13691 8.58992,-6.09387 19.10901,-8.86191 28.66351,-13.29286 4.41815,0.95925 8.83631,1.9185 13.25446,2.87776 0.0962,-0.0522 0.37764,-0.0926 0.28875,-0.15654 -3.85985,-2.77506 -11.72832,-7.5301 -15.31106,-9.77889 -8.77966,-5.51074 -12.483,-7.91688 -21.58419,-13.7479 -4.94839,-3.14771 -9.89679,-6.29542 -14.84518,-9.44313 -44.74742,-28.46347 -85.00083,34.81894 -40.25342,63.2824 v 0 c 4.88059,3.10443 9.76118,6.20885 14.64177,9.31328 9.86253,6.31749 19.81178,12.49212 29.69506,18.77416 1.97837,1.25751 12.03555,8.03783 13.03907,8.43874 5.85064,2.3374 12.07895,3.58789 18.11843,5.38183 10.50902,-4.3933 22.08227,-6.81308 31.52706,-13.1799 4.25499,-2.86833 5.50679,-8.68586 7.75341,-13.29942 0.96092,-1.97329 1.28029,-4.20099 1.80627,-6.33186 1.08965,-4.4145 1.41937,-8.98921 2.11136,-13.46925 2.78975,-21.82485 4.71847,-43.75411 5.65058,-65.74056 1.33109,-34.82491 1.95334,-69.69473 1.14228,-104.54086 -0.56623,-18.61872 -1.23938,-37.23387 -1.90138,-55.84939 -3.31546,-52.92927 -78.16875,-48.24051 -74.85329,4.68877 z"/>
<path d="m 300.44659,766.62269 c -13.76426,14.0242 -24.99182,30.27704 -36.36565,46.2266 -10.83579,15.21865 -20.13061,31.42339 -28.32365,48.19605 -2.3819,4.87618 -4.53301,9.86176 -6.79952,14.79263 -22.04947,48.23195 46.1608,79.41462 68.21027,31.18267 v 0 c 7.99522,-17.60847 16.48606,-35.01306 28.00231,-50.66176 9.6893,-13.62307 19.15236,-27.5935 30.96732,-39.5017 35.52115,-39.37954 -20.16993,-89.61403 -55.69108,-50.23449 z"/>
<path d="m 648.02248,838.94658 c 15.4375,8.07332 29.94584,17.77415 44.26107,27.66198 15.4215,10.9257 30.35885,22.50994 45.45131,33.88028 42.35825,31.91048 87.48648,-27.99312 45.12824,-59.90361 v 0 c -15.93701,-12.00558 -31.70966,-24.23849 -48.0235,-35.73412 -17.23043,-11.84902 -34.70641,-23.45225 -53.33636,-33.01667 -47.45545,-23.67447 -80.93621,43.43767 -33.48076,67.11214 z"/>
</svg>
