<?xml version="1.0" ?>
<svg xmlns="http://www.w3.org/2000/svg" width="1000" height="1000">
<path d="m 207.49016,183.92582 c -0.68827,0.21761 -0.55162,0.0908 0.69089,1.29707 1.87137,1.81684 3.84583,3.52438 5.76875,5.28656 2.89718,2.72288 5.85082,5.38691 8.69155,8.16863 6.71191,6.57246 13.66887,14.0517 20.10018,20.83463 16.46085,17.89509 8.19656,8.61005 24.75063,27.89263 34.58818,40.20147 91.44164,-8.7136 56.85347,-48.91507 v 0 c -18.48121,-21.43911 -9.38853,-11.25824 -27.20464,-30.60797 -10.73742,-11.30311 -21.45627,-22.52842 -32.95755,-33.06469 -6.66181,-6.10286 -11.10829,-10.21359 -18.60409,-15.27962 -2.03584,-1.37592 -4.28734,-2.40203 -6.43101,-3.60305 -48.07681,-22.385717 -79.73499,45.60516 -31.65818,67.99088 z"/>
<path d="m 144.87461,370.36061 c 22.6694,-3.00696 45.33756,-6.02299 67.99021,-9.16376 36.99643,-5.26107 74.12205,-9.5217 111.33746,-12.87273 10.17915,-0.87331 20.36821,-1.6325 30.56656,-2.24273 3.10384,-0.18572 6.82739,-0.63391 10.01198,-0.33783 -30.94366,-1.74291 -30.30784,-24.692 -30.79371,-53.26373 -0.0694,-4.08391 4.79577,-6.61423 7.27743,-9.85838 0.26057,-0.34063 1.2995,-1.11124 0.93774,-0.8809 -0.78438,0.49944 -1.47725,1.12982 -2.21588,1.69473 -9.17441,6.93944 -14.95957,16.82708 -21.1963,26.23361 -4.65177,7.01601 -7.95949,11.61655 -12.95317,18.73968 -24.03289,32.97806 -48.79348,65.44459 -74.24505,97.34222 -6.99698,8.76909 -14.13496,17.42474 -21.20244,26.13711 -37.65926,44.77613 -76.74289,88.35757 -117.570495,130.27147 -6.903974,7.08767 -13.951338,14.03423 -20.927008,21.05135 -14.446931,14.42633 -29.738444,27.9355 -45.251747,41.18698 -40.293336,34.48111 8.47032,91.46449 48.763656,56.98338 v 0 c 17.023764,-14.5915 33.830384,-29.43609 49.690224,-45.30702 7.31018,-7.36029 14.69357,-14.64858 21.93054,-22.08086 42.24365,-43.38375 82.67581,-88.50135 121.61762,-134.86536 7.3256,-9.03611 14.72226,-18.01506 21.9768,-27.10832 26.2872,-32.94988 51.85666,-66.49133 76.64596,-100.5808 6.41237,-9.16067 8.66514,-12.24167 14.55221,-21.11785 1.32774,-2.00187 2.63704,-4.01658 3.90192,-6.05875 0.32972,-0.53233 0.75622,-1.04615 0.87902,-1.66016 0.0721,-0.36073 -0.98098,0.6399 -1.03112,0.39343 4.80292,-3.6784 14.98357,-10.78653 15.15655,-16.2921 0.48019,-15.28307 -0.64605,-31.59306 -7.52064,-45.25113 -4.59758,-9.13423 -17.74293,-9.7617 -26.63189,-10.68723 -16.40439,-0.20694 -32.75715,1.75486 -49.10179,2.86203 -38.40695,3.46536 -76.72316,7.85142 -114.90491,13.28059 -22.5159,3.12201 -45.04625,6.12863 -67.58014,9.10805 -52.569854,6.99358 -42.679451,81.33858 9.89041,74.34501 z"/>
<path d="m 217.18991,519.47584 c 3.29378,20.07558 5.19079,40.35302 7.21199,60.58672 3.26023,33.16898 5.46684,66.44711 6.20404,99.77187 0.52347,23.66326 0.23225,31.91244 -0.0366,55.54828 -0.97263,41.65224 -3.40529,83.24888 -5.46838,124.85607 -0.16328,3.39049 -0.32656,6.78098 -0.48984,10.17148 -2.55084,52.97162 72.36236,56.57904 74.91319,3.60742 v 0 c 0.16154,-3.35492 0.32309,-6.70984 0.48463,-10.06475 2.11053,-42.56789 4.5991,-85.12529 5.55581,-127.74052 0.27203,-25.26035 0.57266,-33.64208 -0.004,-58.96899 -0.79523,-34.9524 -3.11411,-69.85615 -6.53171,-104.64595 -1.6817,-16.78962 -1.95085,-20.25816 -3.82748,-36.25104 -1.26098,-10.74627 -2.49658,-21.57277 -4.67114,-32.18478 -0.40528,-1.97779 -0.93432,-3.92819 -1.40147,-5.89228 -14.99524,-50.86888 -86.9347,-29.66241 -71.93946,21.20647 z"/>
<path d="m 326.84382,554.28171 c 0.63784,0.41211 1.31023,0.77511 1.91352,1.23631 1.3291,1.01606 5.46398,5.0023 5.96766,5.4903 7.58881,7.35263 14.65643,15.07094 21.67701,22.96485 10.54921,12.42806 5.45736,6.32216 15.29087,18.30493 33.66238,40.97981 91.61658,-6.62598 57.9542,-47.60578 v 0 c -11.03512,-13.42215 -5.27897,-6.53542 -17.29141,-20.64099 -14.90253,-16.6471 -30.01222,-33.98541 -49.42999,-45.4999 -46.49246,-25.51373 -82.57433,40.23655 -36.08186,65.75028 z"/>
<path d="m 503.69509,132.69903 c 4.91165,24.86084 5.7666,50.32935 6.97692,75.57349 1.99588,48.95145 1.82389,97.94977 1.81669,146.93077 -0.006,5.98246 -0.0124,11.96493 -0.0186,17.94739 -0.0548,53.03298 74.94514,53.11051 74.99996,0.0775 v 0 c 0.006,-6.00467 0.0124,-12.00934 0.0186,-18.01401 0.007,-50.19206 0.16848,-100.40193 -1.90416,-150.56278 -1.41144,-28.98009 -2.5928,-58.1747 -8.35222,-86.6927 -10.42298,-51.998674 -83.9602,-37.258363 -73.53723,14.74031 z"/>
<path d="m 564.6411,196.87447 c 22.12953,-5.83744 44.42249,-10.90569 66.85953,-15.41231 29.53306,-5.39518 59.48762,-8.52823 89.49526,-9.4585 4.75909,-0.14754 9.52166,-0.14375 14.28249,-0.21563 14.4867,0.0253 29.0266,0.65795 43.28447,3.34674 0.76678,0.15966 1.53355,0.31932 2.30032,0.47898 0.18671,0.0603 0.75461,0.20651 0.56011,0.18079 -7.64497,-1.011 -15.08087,-9.03083 -19.1743,-14.07987 -1.8046,-2.22588 -2.50821,-5.15301 -3.76232,-7.72952 -0.0274,0.47433 -0.10195,0.94828 -0.0821,1.42299 0.10316,2.47137 0.30048,4.9379 0.45072,7.40685 0.19209,4.19787 0.41907,8.39429 0.57627,12.59361 0.71646,19.13981 0.86165,38.28449 1.04054,57.43487 0.2203,29.97524 -0.71515,60.05321 -5.62922,89.6811 -2.58784,15.60257 -4.44996,21.62637 -8.293,36.71987 -1.71252,5.89811 -3.42503,11.79622 -5.13755,17.69433 -14.72417,50.948 57.32718,71.77113 72.05135,20.82312 v 0 c 1.94033,-6.7413 3.88065,-13.48261 5.82097,-20.22392 4.73312,-19.01101 6.72832,-25.38499 9.90074,-45.10431 5.33338,-33.15144 6.54462,-66.77099 6.2834,-100.29473 -0.18965,-20.07785 -0.34388,-40.15088 -1.11833,-60.21705 -0.23092,-5.98333 -0.83806,-19.64022 -1.55772,-26.07401 -0.3805,-3.40174 -1.04617,-6.76549 -1.56925,-10.14824 -1.73415,-4.48603 -2.51793,-9.46746 -5.20244,-13.45809 -9.10471,-13.53448 -19.21477,-18.17654 -33.89334,-20.86988 -19.15343,-3.468096 -38.61044,-4.70136 -58.06831,-4.573722 -5.503,0.09497 -11.00812,0.105134 -16.50901,0.284907 -33.8234,1.105372 -67.57887,4.704715 -100.85661,10.855475 -22.72005,4.58665 -45.34803,9.55898 -67.73356,15.59374 -51.86091,11.08808 -36.17999,84.43049 15.68092,73.34241 z"/>
<path d="m 647.56618,297.4262 c 16.72771,-5.26984 34.21636,-7.54774 51.53672,-9.89705 17.70411,-1.98276 35.60185,-3.86323 53.41922,-2.22315 2.76704,0.25471 5.50582,0.75592 8.25873,1.13388 52.62766,6.54439 61.88283,-67.88236 9.25517,-74.42676 v 0 c -4.62622,-0.53965 -9.23481,-1.26144 -13.87865,-1.61897 -22.43932,-1.7276 -44.94185,0.15976 -67.22497,2.8278 -22.41702,3.09208 -45.02013,6.28296 -66.54142,13.55576 -49.95603,17.80156 -24.78083,88.45005 25.1752,70.64849 z"/>
<path d="m 637.43106,295.16932 c -0.22127,21.98167 -2.02297,43.92555 -3.45389,65.85379 -0.48169,6.20041 -0.96337,12.40082 -1.44506,18.60124 -4.09963,52.87431 70.67594,58.67206 74.77557,5.79775 v 0 c 0.50345,-6.50521 1.00689,-13.01043 1.51034,-19.51564 1.53677,-23.55378 3.44778,-47.12375 3.61304,-70.73714 0,-53.03301 -75,-53.03301 -75,0 z"/>
<path d="m 433.50747,417.99643 c 3.63214,30.45985 6.53912,61.00098 9.42419,91.53877 5.66156,61.61425 8.37948,123.43765 10.30889,185.26423 0.96121,43.65854 2.30312,87.4747 -1.41339,131.05364 -0.50005,5.86343 -1.27691,11.69995 -1.91537,17.54993 -0.71175,4.66371 -1.42351,9.32742 -2.13526,13.99112 -7.87699,52.44476 66.2911,63.58451 74.16809,11.13975 v 0 c 0.84656,-5.71148 1.69311,-11.42296 2.53967,-17.13444 0.72868,-6.89951 1.60909,-13.78468 2.18603,-20.69853 3.83648,-45.97561 2.6039,-92.18678 1.53362,-138.2447 -1.98496,-63.39975 -4.78716,-126.79561 -10.6049,-189.9767 -2.97709,-31.49884 -5.97169,-63.00247 -9.75238,-94.41711 -7.02443,-52.56574 -81.36361,-42.6317 -74.33919,9.93404 z"/>
<path d="m 518.58483,463.64607 c 25.71486,-5.82251 51.72468,-10.15994 77.74441,-14.35327 43.89072,-6.39303 87.9907,-11.80204 132.30518,-14.14775 8.03981,-0.42557 16.09037,-0.61546 24.13555,-0.92319 31.08368,-0.94343 62.22231,0.56897 92.88492,5.82082 4.18361,0.82616 8.3751,1.76059 12.34527,3.35086 0.41418,0.1659 0.82233,0.34954 1.21571,0.56007 0.0408,0.0218 0.10679,0.13746 0.0625,0.124 -0.28863,-0.0877 -0.55421,-0.23843 -0.83131,-0.35764 -6.24477,-3.43854 -9.72889,-9.16965 -12.60804,-15.4725 1.33086,21.05285 1.78572,42.17459 2.2662,63.26879 0.54548,38.56485 0.37093,77.19875 -2.136,115.70224 -0.54562,8.38011 -1.32826,16.74309 -1.99239,25.11464 -4.51609,46.65444 -14.90953,92.45413 -26.55245,137.77052 -6.48844,22.82608 -12.86368,46.02581 -23.69198,67.27152 -1.15609,2.26831 -2.46992,4.4527 -3.70488,6.67905 -1.49337,2.22894 -3.14906,5.138 -5.23676,7.03423 -0.20743,0.18841 -0.78543,0.52384 -0.80438,0.24427 -0.0798,-1.17761 3.12069,-3.19265 4.06653,-3.87089 0.24403,-0.22906 0.94783,-0.4313 0.73209,-0.68719 -0.49151,-0.58297 -1.37941,-0.65405 -2.09191,-0.92567 -1.99736,-0.76144 -4.05553,-1.36202 -6.0337,-2.17199 -3.24299,-1.32786 -6.46665,-2.71122 -9.62094,-4.23788 -10.25158,-4.9617 -16.5631,-8.72803 -26.58515,-14.36697 -46.26904,-25.91671 -82.9208,39.51761 -36.65175,65.43431 v 0 c 16.27794,9.08335 32.4723,18.28683 50.07913,24.62773 8.8165,3.17516 19.0569,5.90997 28.45872,6.60059 4.60135,0.338 9.22587,-0.17305 13.8388,-0.25957 11.79922,-2.60278 14.6125,-2.30101 25.34323,-8.44681 13.38319,-7.66494 22.68861,-20.1786 30.40518,-33.16479 5.51564,-10.28433 6.71443,-12.02561 11.50622,-23.13945 9.47039,-21.96513 16.35367,-44.94639 22.63988,-67.98664 12.67745,-49.5032 23.90649,-99.5435 28.67268,-150.5169 0.70937,-9.07139 1.54373,-18.13387 2.12812,-27.21416 2.59588,-40.33558 2.7984,-80.80398 2.21216,-121.20253 -0.36331,-15.86882 -0.41434,-20.21359 -0.94137,-35.57085 -0.39739,-11.57953 -0.63039,-23.30833 -1.99971,-34.83045 -0.32694,-2.75104 -0.84748,-5.47559 -1.27122,-8.21339 -1.71097,-6.42359 -1.97714,-8.79248 -5.43197,-15.02769 -4.01835,-7.25223 -10.13447,-12.88388 -17.11895,-17.17529 -12.11144,-6.72036 -24.5558,-10.47049 -38.21158,-12.902 -11.30281,-1.87882 -13.83673,-2.44365 -25.80987,-3.76856 -27.36541,-3.02818 -54.931,-3.79455 -82.44357,-3.03726 -8.74602,0.34483 -17.49787,0.56447 -26.23805,1.03448 -46.63604,2.50791 -93.05107,8.17275 -139.23918,14.93787 -26.36609,4.26058 -52.75476,8.56519 -78.80089,14.53152 -52.22957,9.19629 -39.22406,83.06006 13.00552,73.86377 z"/>
<path d="m 530.84886,560.64516 c 5.75873,17.31727 9.16607,35.27787 12.52564,53.17724 4.89624,26.68416 7.45916,53.6973 9.39837,80.73178 0.17958,2.90773 0.35917,5.81545 0.53876,8.72318 3.28052,52.93145 78.13689,48.29209 74.85637,-4.63936 v 0 c -0.19626,-3.15667 -0.39253,-6.31333 -0.58879,-9.47 -2.15928,-29.88592 -5.05808,-59.74241 -10.50214,-89.23555 -3.94345,-20.84916 -8.02997,-41.73987 -14.72404,-61.91808 -16.00238,-50.56109 -87.50656,-27.93029 -71.50417,22.63079 z"/>
<path d="m 611.85756,599.30817 c 15.11841,-7.85509 31.76073,-12.08669 48.2005,-16.14718 22.37962,-5.33009 45.32509,-7.43333 68.28641,-7.32137 3.80835,0.17508 6.2153,0.22773 9.88655,0.58566 0.77396,0.0754 1.54553,0.18052 2.3118,0.31295 0.17159,0.0296 0.66747,0.17332 0.49334,0.17182 -1.10179,-0.01 -3.02464,-0.73518 -3.78869,-0.96809 -7.17831,-2.85753 -12.0995,-7.92668 -16.29284,-14.40746 -1.22557,-1.8941 -1.67161,-4.19832 -2.70171,-6.20545 -0.0971,-0.18918 -0.16811,0.40302 -0.16709,0.61566 0.009,1.77652 0.13037,3.55068 0.19555,5.32602 0.36606,25.24938 -1.10142,50.57148 -4.8708,75.5536 -0.96591,6.40171 -2.23677,12.75367 -3.35516,19.1305 -4.70601,23.03462 -11.03645,45.6832 -17.47104,68.27992 -14.51467,51.00808 57.62166,71.53492 72.13632,20.52684 v 0 c 7.14954,-25.14202 14.15329,-50.35221 19.23534,-76.01229 1.29338,-7.55347 2.76078,-15.07921 3.88013,-22.66042 4.33622,-29.36853 5.98675,-59.13878 5.33912,-88.80593 -0.33834,-5.48577 -0.55588,-13.91212 -1.98409,-19.41838 -1.01092,-3.89746 -2.03839,-7.87133 -3.94921,-11.41547 -5.00654,-9.286 -12.14985,-15.73162 -21.6212,-19.93303 -1.86231,-0.67136 -3.69425,-1.43382 -5.58693,-2.01408 -10.18865,-3.12365 -21.01718,-3.20858 -31.55749,-3.66225 -9.80248,0.005 -12.77264,-0.11677 -23.00448,0.46099 -21.41852,1.20943 -42.72858,4.18007 -63.61565,9.10248 -5.48142,1.38516 -10.99659,2.643 -16.44425,4.15547 -17.45856,4.84713 -34.73372,10.96096 -50.70217,19.59548 -46.07084,26.26742 -8.9231,91.42143 37.14774,65.15401 z"/>
<path d="m 622.70385,732.40927 c 17.25979,-2.82606 34.60091,-5.21529 52.07382,-6.22258 4.98453,-0.28735 9.97779,-0.39494 14.96668,-0.59241 14.63505,-0.54415 29.23815,0.48739 43.82554,1.4703 52.91752,3.49791 57.86431,-71.33878 4.94678,-74.83668 v 0 c -17.26526,-1.12218 -34.54939,-2.25977 -51.86585,-1.5698 -5.90778,0.25237 -11.82105,0.39861 -17.72334,0.7571 -18.4856,1.12279 -36.884,3.4482 -55.13977,6.52594 -52.65692,6.30465 -43.74079,80.77279 8.91614,74.46813 z"/>
</svg>
