<?xml version="1.0" ?>
<svg xmlns="http://www.w3.org/2000/svg" width="1000" height="1000">
<path d="m 195.02591,168.18122 c 14.11693,7.02142 27.3313,15.61624 40.7114,23.9058 5.2754,3.26835 10.59149,6.47056 15.88723,9.70584 45.26124,27.6391 84.34883,-36.36996 39.08759,-64.00906 v 0 c -20.54982,-12.54316 -40.67881,-25.85972 -62.20531,-36.71464 -47.45539,-23.67458 -80.9363,43.43748 -33.48091,67.11206 z"/>
<path d="m 93.70071,354.11004 c 19.15258,-5.32444 38.13992,-11.20731 57.389,-16.19649 7.30629,-1.89371 14.64307,-3.66774 21.9646,-5.50161 31.8889,-7.65398 64.09797,-14.16738 96.61816,-18.50501 17.73858,-2.36602 22.09832,-2.49868 39.30475,-3.86744 12.1924,-0.74788 24.405,-1.32471 36.62294,-1.38005 2.03878,-0.009 4.0791,-0.0132 6.11592,0.0767 0.59145,0.0261 2.33803,0.37527 1.75534,0.27061 -2.33127,-0.41876 -4.66764,-0.80864 -7.00146,-1.21295 -8.24558,-10.77244 -20.45906,-19.44345 -24.73676,-32.31731 -2.48946,-7.49213 4.60083,-15.11538 6.42351,-22.79699 0.12851,-0.5416 -0.87643,0.69047 -1.27121,1.08289 -1.83495,1.82395 -3.62646,3.69133 -5.41376,5.562 -9.92796,10.39103 -7.69367,8.12873 -18.38921,20.28879 -4.21613,5.16578 -8.53159,10.25205 -12.64838,15.49734 -8.94161,11.39269 -22.5941,29.9961 -31.00011,41.35692 -19.58984,26.4759 -38.88014,53.15247 -58.11051,79.89047 -28.17433,39.79509 -56.87361,79.22936 -86.75233,117.7665 -17.017511,21.94894 -24.64756,31.23629 -41.806848,52.55162 -16.534538,20.13589 -34.135964,39.34769 -51.678628,58.59705 -35.71785,39.20121 19.721038,89.71388 55.438889,50.51267 v 0 c 18.569087,-20.38425 37.184797,-40.74266 54.664937,-62.08317 17.69158,-21.98297 25.41011,-31.37691 42.97172,-54.03672 30.3162,-39.1171 59.45535,-79.12968 88.05037,-119.5171 19.02766,-26.45711 38.11622,-52.85138 57.49758,-79.05058 6.92621,-9.36265 21.22737,-28.82464 28.88857,-38.638 3.54058,-4.53517 7.25181,-8.9345 10.87771,-13.40175 8.96246,-10.2608 7.10918,-8.387 15.74074,-17.4222 9.54027,-9.9864 25.2647,-23.01008 21.45278,-39.26204 -3.27802,-13.97565 -16.56987,-23.44561 -24.8548,-35.16841 -3.90535,-0.96857 -7.75558,-2.19541 -11.71606,-2.9057 -3.63883,-0.65261 -12.17636,-0.6512 -15.73825,-0.63035 -13.81966,0.0809 -27.6329,0.73966 -41.42227,1.61337 -19.63646,1.60776 -24.28445,1.74604 -44.45159,4.4628 -34.8925,4.70043 -69.45601,11.68721 -103.67396,19.91842 -26.13611,6.5609 -52.17157,13.45812 -77.939854,21.35813 -51.680763,11.89952 -34.852288,84.98716 16.828474,73.08763 z"/>
<path d="m 173.14016,485.67169 c 7.52616,21.94682 10.4714,44.92358 13.37718,67.82818 4.72667,47.05916 4.53004,94.49844 2.18447,141.6935 -0.52457,10.55473 -1.29218,21.09597 -1.93827,31.64396 -4.00259,51.4922 -9.23653,102.87876 -13.90805,154.3135 -1.05341,11.34443 -2.13494,22.68621 -3.21097,34.02851 -5.0087,52.79596 69.65606,59.87932 74.66476,7.08337 v 0 c 1.0855,-11.44211 2.17657,-22.88371 3.23877,-34.32801 4.73867,-52.17449 10.06114,-104.29922 14.07664,-156.53574 0.67459,-11.12589 1.4788,-22.24467 2.02379,-33.37766 2.51261,-51.32768 2.58413,-102.91765 -2.74239,-154.07723 -0.98889,-7.61631 -1.83077,-15.25317 -2.96669,-22.84895 -3.26497,-21.83253 -7.92917,-43.58309 -15.59143,-64.32461 -20.43622,-48.93732 -89.64403,-20.03613 -69.20781,28.90118 z"/>
<path d="m 246.83315,566.37079 c 21.4558,6.86052 42.05832,16.20071 62.46004,25.6799 14.1697,6.74781 27.77228,14.56958 41.34529,22.42088 45.92658,26.51886 83.42991,-38.43112 37.50333,-64.94998 v 0 c -15.5266,-8.95116 -31.09476,-17.85416 -47.31341,-25.51891 -24.70313,-11.42196 -49.66508,-22.76224 -75.8435,-30.40217 -51.45636,-12.83522 -69.60811,59.93506 -18.15175,72.77028 z"/>
<path d="m 427.64369,165.43324 c 7.82262,8.21126 14.19279,17.65941 20.90587,26.75995 6.38215,8.65193 12.79374,17.28211 19.18636,25.92632 11.8621,17.00641 6.09593,8.28473 17.27528,26.18036 28.2231,44.89941 91.72045,4.98593 63.49736,-39.91348 v 0 c -13.5803,-21.49604 -6.72795,-11.22794 -20.47085,-30.86165 -6.34474,-8.57945 -12.70732,-17.14572 -19.04303,-25.73185 -7.92674,-10.74229 -15.56345,-21.79199 -24.72886,-31.54232 -34.7774,-40.037891 -91.39952,9.14478 -56.62213,49.18267 z"/>
<path d="m 574.91001,145.94946 c -0.64692,-0.20947 -1.28945,-0.82384 -1.94075,-0.62842 -0.3805,0.11417 0.32447,0.7423 0.59659,1.03173 1.57329,1.67344 3.30205,3.19422 4.91439,4.83006 8.22386,8.34374 15.89867,17.07372 23.47213,26.00574 10.38048,12.70236 5.2697,6.43668 15.33333,18.79627 33.48558,41.1244 91.64426,-6.23136 58.15868,-47.35576 v 0 c -10.47884,-12.86908 -5.02337,-6.18705 -16.37073,-20.04256 -9.25193,-10.84227 -18.56637,-21.55835 -28.724,-31.575302 -5.78499,-5.704875 -11.62851,-11.247513 -18.42077,-15.777215 -2.73939,-1.826878 -5.78391,-3.148546 -8.67586,-4.722819 -49.10028,-20.041532 -77.44329,49.396746 -28.34301,69.438276 z"/>
<path d="m 770.03992,77.664248 c -5.29105,19.873751 -12.83767,39.020752 -21.60209,57.617362 -3.95456,8.39091 -8.23743,16.62312 -12.35614,24.93467 -22.84024,40.38805 -7.38313,13.8377 -32.92272,55.62648 -6.28605,10.28546 -12.50072,20.61437 -18.75107,30.92155 -27.49767,45.34731 36.63311,84.23488 64.13077,38.88758 v 0 c 6.16748,-10.17148 12.30593,-20.36061 18.50243,-30.51443 27.12283,-44.4445 11.5661,-17.65136 36.28742,-61.71179 4.59392,-9.33096 9.39074,-18.56473 13.78176,-27.99287 10.60111,-22.76207 20.28743,-46.72599 25.93927,-71.284679 0.58616,-2.547032 0.98288,-5.133983 1.47433,-7.700974 6.21045,-52.668115 -68.27352,-61.451014 -74.48396,-8.782899 z"/>
<path d="m 404.50254,343.01656 c 1.00018,3.6686 1.62862,5.85645 2.50515,10.10748 1.9901,9.65162 3.32503,18.73541 4.81353,28.55766 2.26264,14.93055 4.43253,29.87501 6.67231,44.80901 7.38306,47.26966 13.92092,94.66283 20.74125,142.01484 0.76457,5.21774 1.52914,10.43547 2.29371,15.65321 7.68935,52.4726 81.89682,41.59821 74.20746,-10.87439 v 0 c -0.75579,-5.15734 -1.51159,-10.31467 -2.26738,-15.47201 -6.84224,-47.49559 -13.39936,-95.03274 -20.80462,-142.44594 -2.26722,-15.11614 -4.44644,-30.24552 -6.75629,-45.35521 -2.77655,-18.16246 -5.4073,-36.53225 -11.42437,-53.97048 -19.07479,-49.48386 -89.05554,-22.50803 -69.98075,26.97583 z"/>
<path d="m 538.59168,360.67051 c 25.39948,-7.84514 51.10554,-14.6063 77.1165,-20.11104 8.60772,-1.82167 17.26035,-3.42429 25.89052,-5.13643 40.02349,-7.14869 80.43324,-13.19931 121.14496,-14.23691 5.60447,-0.14284 11.21256,-0.0166 16.81883,-0.0249 15.46259,0.50116 31.11515,1.31387 46.08667,5.50406 0.59299,0.18582 1.19433,0.34681 1.77896,0.55746 0.13862,0.0499 -0.3018,-0.0124 -0.43585,-0.0735 -2.0082,-0.91594 -4.34218,-1.3675 -5.97641,-2.85109 -4.76274,-4.32373 -9.53528,-8.85961 -12.93713,-14.31907 -5.76936,-9.25897 -0.57102,-15.09927 -3.79392,-11.29628 -4.94458,26.22136 -7.82774,52.76355 -11.95891,79.11283 -1.28605,8.20264 -2.71984,16.38143 -4.07977,24.57215 -1.69009,8.81292 -3.27476,17.64671 -5.07027,26.43875 -2.9194,14.29537 -9.11944,41.87893 -12.42717,55.94817 -4.49576,19.12244 -8.32662,34.97355 -13.848,53.77038 -2.30514,7.84755 -4.93163,15.59712 -7.39744,23.39568 -2.33654,6.51374 -4.67308,13.02749 -7.00962,19.54124 -17.84112,49.94191 52.78741,75.17306 70.62853,25.23115 v 0 c 2.63911,-7.41438 5.27821,-14.82875 7.91732,-22.24313 2.738,-8.72487 5.64799,-17.39762 8.21399,-26.17462 5.78817,-19.79843 9.90254,-36.77252 14.62117,-56.85951 3.57776,-15.23037 9.84793,-43.18897 12.96501,-58.51519 1.91191,-9.40058 3.59795,-18.84569 5.39692,-28.26854 1.43269,-8.65698 2.94064,-17.30184 4.29808,-25.97093 2.97065,-18.97163 5.20357,-38.04854 8.19639,-57.01574 0.68045,-4.31234 1.48096,-8.60491 2.20263,-12.91055 0.61154,-3.64852 1.19799,-7.30121 1.79698,-10.95182 0.9062,-10.27807 2.69074,-18.82254 -2.49209,-29.0968 -7.39133,-14.65234 -16.97982,-20.50212 -31.13626,-24.45427 -21.4758,-5.65052 -43.62792,-7.779 -65.80849,-8.07033 -6.69095,0.0358 -13.38443,-0.0802 -20.07285,0.10723 -44.44129,1.24523 -88.56617,7.7133 -132.25364,15.59516 -9.27685,1.84969 -18.57807,3.58111 -27.83055,5.54906 -27.608,5.87205 -54.90258,13.04634 -81.87393,21.35412 -50.84329,15.08176 -29.51446,86.98504 21.32884,71.90327 z"/>
<path d="m 505.87192,485.03072 c 25.67579,-4.82633 51.33764,-9.80651 77.18441,-13.65247 7.69914,-1.14562 15.42364,-2.11384 23.13546,-3.17076 22.13911,-2.53997 44.44804,-4.27803 66.75314,-3.76981 14.37827,0.3276 18.4174,1.14286 32.06289,2.83158 52.66443,6.24161 61.4914,-68.23714 8.82697,-74.47875 v 0 c -6.42117,-0.73565 -12.82115,-1.68881 -19.26353,-2.20696 -32.87274,-2.64387 -65.90866,-0.51587 -98.59548,3.32297 -8.28707,1.14285 -16.58743,2.19323 -24.86123,3.42854 -26.46389,3.95117 -52.74419,9.02765 -79.03429,13.97463 -52.12864,9.75218 -38.33698,83.47321 13.79166,73.72103 z"/>
<path d="m 502.39789,610.18471 c 22.43752,-4.31206 44.91907,-8.44236 67.52997,-11.75216 8.4279,-1.23369 16.88086,-2.2897 25.3213,-3.43455 35.91399,-4.19019 72.05359,-7.2688 108.2431,-7.05079 19.91712,0.11998 25.63001,0.81682 44.95392,2.17891 5.88896,0.61923 11.77792,1.23845 17.66688,1.85768 52.74922,5.47905 60.49776,-69.11961 7.74854,-74.59866 v 0 c -6.75188,-0.69377 -13.50377,-1.38755 -20.25565,-2.08132 -22.30061,-1.50816 -28.36904,-2.25541 -51.32319,-2.34686 -39.16566,-0.15602 -78.27696,3.13646 -117.1408,7.7252 -8.98679,1.22531 -17.98669,2.35803 -26.96037,3.67593 -23.5912,3.46467 -47.04985,7.77065 -70.46064,12.27672 -52.00763,10.37816 -37.33069,83.92806 14.67694,73.5499 z"/>
<path d="m 344.69627,775.27351 c 29.61694,-3.91794 58.72867,-10.89659 88.08047,-16.35694 10.61714,-1.97511 21.26417,-3.78604 31.89625,-5.67906 67.13113,-11.11997 134.91832,-18.19403 202.89723,-21.20003 13.95669,-0.61716 27.92646,-0.89034 41.88969,-1.3355 37.73452,-0.73703 75.4878,-0.0785 113.17567,1.90695 23.17237,1.22078 33.78073,2.22611 56.16431,4.04427 52.85981,4.28256 58.91626,-70.4725 6.05645,-74.75506 v 0 c -23.61895,-1.90881 -34.58903,-2.94761 -59.07178,-4.22307 -39.53975,-2.05987 -79.14739,-2.73107 -118.73445,-1.93437 -14.57187,0.47216 -29.15069,0.76422 -43.71561,1.41648 -70.97035,3.17829 -141.73935,10.59549 -211.82013,22.24368 -11.04025,1.96927 -22.09558,3.85583 -33.12077,5.9078 -26.83912,4.9952 -53.46819,11.20826 -80.47239,15.27148 -52.81618,4.79069 -46.04112,79.48406 6.77506,74.69337 z"/>
<path d="m 585.57252,321.87528 c -1.43514,30.17759 -1.81495,60.39495 -2.25485,90.59958 -0.64143,75.86377 -1.02351,151.72826 -1.8109,227.5911 -1.17595,72.3005 -1.06232,144.62536 -2.76843,216.91755 -0.31883,13.50984 -0.79196,27.0156 -1.18794,40.5234 -1.55095,53.01033 73.41697,55.20371 74.96792,2.19338 v 0 c 0.40257,-13.78608 0.88296,-27.57011 1.20772,-41.35824 1.70725,-72.48567 1.60121,-145.0038 2.7767,-217.49779 0.78613,-75.75882 1.17087,-151.51926 1.807,-227.27905 0.42099,-29.00467 0.79005,-58.01982 2.11604,-87.00061 3.31585,-52.92925 -71.53741,-57.61856 -74.85326,-4.68932 z"/>
</svg>
