<?xml version="1.0" ?>
<svg xmlns="http://www.w3.org/2000/svg" width="1000" height="1000">
<path d="m 292.31903,107.43837 c -0.16457,0.0761 -0.4028,0.0715 -0.49372,0.22836 -10.93065,18.86056 7.22985,-10.241677 -9.42884,16.78823 -11.87644,19.27038 -25.35863,37.33403 -38.77404,55.54439 -32.24925,42.95312 -64.93315,85.62322 -98.96624,127.18699 -5.76764,7.04389 -11.66558,13.98007 -17.49838,20.97011 -19.44482,22.67187 -39.556578,44.76629 -59.989415,66.54926 -15.060236,16.08029 -22.544426,30.28098 -1.426449,59.64133 11.607467,16.13788 32.598744,9.05448 46.817004,5.27416 3.94875,-1.04988 7.89138,-2.12263 11.83707,-3.18394 33.07796,-8.624 66.63203,-15.41504 100.46987,-20.27594 8.21001,-1.17939 16.44902,-2.14722 24.67354,-3.22083 45.09762,-5.5988 90.52517,-7.43841 135.92978,-7.8122 53.03109,-0.45133 52.39282,-75.44861 -0.63827,-74.99728 v 0 c -48.44946,0.425 -96.92122,2.42669 -145.03802,8.44547 -8.87324,1.1673 -17.76225,2.22035 -26.6197,3.50191 -36.46178,5.27552 -72.61738,12.62174 -108.26084,21.93382 -4.06095,1.09261 -8.131032,2.15183 -12.182845,3.27785 -18.161006,5.04701 14.986215,-3.28177 22.979175,11.12557 7.98979,14.40163 3.68612,32.74601 4.70385,49.18401 0.0446,0.72042 -7.1757,6.14517 1.46641,-1.59332 21.41778,-22.84914 42.51304,-46.0114 62.87407,-69.81041 6.11009,-7.32847 12.28642,-14.60223 18.33028,-21.98542 34.7124,-42.40467 68.05403,-85.93305 100.94432,-129.75655 15.0123,-20.41825 30.07434,-40.69927 43.2501,-62.3769 4.01325,-6.60286 9.74267,-16.6257 13.11049,-24.01088 1.48884,-3.26483 2.68857,-6.65393 4.03286,-9.9809 14.59955,-50.983852 -57.5025,-71.630741 -72.10206,-20.64689 z"/>
<path d="m 270.64601,293.53027 c -0.58445,28.20261 -0.60055,56.41345 -0.95156,84.62007 -1.02964,75.52064 -4.69536,150.97133 -8.11816,226.41152 -4.34441,88.14433 -6.62918,176.36284 -8.33342,264.59102 -0.1785,10.26654 -0.35699,20.53308 -0.53549,30.79962 -0.92178,53.025 74.06689,54.32859 74.98867,1.30359 v 0 c 0.17761,-10.21833 0.35522,-20.43667 0.53283,-30.655 1.69112,-87.57761 3.95489,-175.1457 8.27033,-262.63998 3.45996,-76.26228 7.15621,-152.53541 8.18946,-228.87915 0.35365,-28.51726 0.37969,-57.03825 0.95734,-85.55169 0,-53.03301 -75,-53.03301 -75,0 z"/>
<path d="m 252.40445,425.01916 c 0,2.12183 0.0498,5.66445 -0.20427,7.62578 -0.53285,4.11305 -2.30185,9.58773 -3.59931,13.1781 -5.05402,13.98556 -7.35511,18.16235 -13.99923,32.84407 -4.03707,7.79493 -7.96088,15.64957 -12.11119,23.38479 -11.82561,22.04024 -19.49472,35.56889 -33.19639,56.87005 -6.64334,10.32799 -13.62246,20.4368 -20.55646,30.57194 -11.70587,17.10998 -32.19301,46.1265 -44.1301,63.10078 -18.73594,26.84455 -38.712782,52.77697 -58.720089,78.67405 -32.417699,41.97134 26.93873,87.81688 59.356429,45.84555 v 0 c 20.68539,-26.78792 41.33299,-53.61684 60.71296,-81.37724 11.80645,-16.7895 33.57081,-47.61754 45.0575,-64.45065 7.51704,-11.0158 15.07415,-22.00936 22.2663,-33.23998 14.26165,-22.26973 23.5902,-38.57889 35.87962,-61.64131 4.76345,-8.93912 9.24662,-18.02479 13.86993,-27.03718 12.00627,-26.95239 25.13629,-54.10607 24.3743,-84.34875 0,-53.03301 -75,-53.03301 -75,0 z"/>
<path d="m 298.66047,527.0102 c -0.28009,-0.005 -1.06309,-0.18395 -0.84028,-0.0142 0.77073,0.58737 1.72403,0.8855 2.57992,1.33992 2.02234,1.07372 4.06193,2.11662 6.05462,3.24444 2.74822,1.55543 5.47146,3.156 8.16534,4.80375 9.76115,5.97054 11.57043,7.35493 21.35196,13.94635 20.24116,14.08639 38.24115,31.00852 56.71144,47.26479 39.81149,35.03633 89.36035,-21.26562 49.54886,-56.30196 v 0 c -20.91188,-18.40199 -41.37463,-37.45629 -64.43094,-53.21478 -11.98335,-8.03239 -23.95159,-16.03249 -36.61685,-22.97251 -6.14129,-3.36516 -12.92405,-6.7837 -19.52892,-9.22169 -2.47384,-0.91314 -5.05172,-1.51492 -7.57757,-2.27238 -51.90038,-10.90187 -67.31795,62.49635 -15.41758,73.39822 z"/>
<path d="m 458.92459,293.79152 c -0.0115,31.03853 0.62445,62.07405 1.06417,93.10866 1.16086,75.41553 2.49281,150.82775 3.47556,226.24604 1.25788,62.03725 0.48559,124.07428 -1.5867,186.08113 -1.76947,53.00349 73.18877,55.50589 74.95824,2.50241 v 0 c 2.1065,-63.16638 2.89614,-126.36367 1.62209,-189.56089 -0.98338,-75.44668 -2.31476,-150.88732 -3.47672,-226.33123 -0.4347,-30.68045 -1.06569,-61.36181 -1.05664,-92.04612 0,-53.03301 -75,-53.03301 -75,0 z"/>
<path d="m 590.38827,221.9474 c 17.98312,-3.66334 35.86082,-7.81456 53.96571,-10.87241 5.62396,-0.94987 11.26954,-1.76702 16.90431,-2.65054 21.88298,-3.2071 43.90335,-5.5596 66.01972,-6.23023 10.10195,-0.30632 13.33992,-0.14233 22.99263,0.0337 5.79327,0.16217 11.57575,0.60958 17.32102,1.36624 0.88599,0.11668 1.76919,0.25415 2.652,0.39289 2.01788,0.31711 2.31609,0.30502 1.46325,0.29615 -5.76728,-1.33418 -10.90888,-4.06366 -15.24339,-8.35452 -2.90411,-2.87486 -5.018,-6.467 -7.2003,-9.9219 -0.79811,-1.26352 -0.75546,-2.98647 -1.68998,-4.15272 -0.47306,-0.59036 0.11703,1.5085 0.17554,2.26275 3.00957,33.5554 5.75165,67.13666 8.49857,100.71502 3.69721,43.91489 5.74709,87.96167 6.03696,132.03175 0.21469,32.64052 -0.27224,46.36938 -0.91266,79.29687 -1.39386,55.68271 -4.10694,111.31917 -6.21657,166.97636 -1.23162,32.49317 -1.61609,45.84452 -2.65018,78.00417 -1.08265,32.25563 -1.83228,64.52003 -2.51875,96.78591 -1.12722,53.02103 73.85583,54.61517 74.98306,1.59414 v 0 c 0.67968,-31.99394 1.42338,-63.98638 2.49696,-95.97014 1.02254,-31.8125 1.41105,-45.28302 2.62886,-77.41355 2.12913,-56.17414 4.86835,-112.3274 6.26261,-168.52769 0.65475,-34.08973 1.15407,-48.18749 0.9156,-82.03457 -0.32185,-45.68103 -2.45126,-91.33769 -6.27563,-136.85864 -2.85979,-34.95398 -5.63025,-69.92197 -8.95046,-104.83451 -0.89608,-5.82887 -1.61291,-13.13268 -4.30513,-18.46362 -6.99398,-13.84896 -15.11838,-20.48771 -29.6134,-24.31522 -12.03846,-2.51014 -24.33782,-3.48447 -36.61601,-3.86489 -11.75762,-0.17856 -15.50119,-0.36325 -27.76195,0.039 -24.84125,0.81493 -49.58026,3.43308 -74.15929,7.06025 -6.24109,0.98665 -12.49407,1.90076 -18.72325,2.95995 -17.49245,2.97433 -34.8244,6.7659 -52.15143,10.56373 -52.3869,8.25305 -40.71532,82.33931 11.67158,74.08626 z"/>
<path d="m 520.95732,461.46129 c 18.92185,-3.74736 38.10698,-5.95671 57.27693,-7.96365 21.05802,-1.91286 42.24157,-2.90871 63.37031,-1.59976 10.23064,0.6338 12.37811,1.13575 21.90365,2.54725 52.50373,7.47386 63.07336,-66.77763 10.56963,-74.25148 v 0 c -13.20946,-1.82617 -15.93558,-2.45172 -29.84172,-3.24959 -24.63099,-1.41319 -49.32333,-0.29972 -73.86607,1.96702 -21.45227,2.27615 -42.91824,4.77258 -64.08989,9.00036 -52.0076,10.37832 -37.33044,83.92817 14.67716,73.54985 z"/>
<path d="m 523.06932,648.31365 c 17.52639,-5.42477 35.70056,-8.23469 53.83609,-10.68232 18.85829,-2.36507 37.88211,-2.79997 56.81653,-1.19327 10.21455,0.86676 13.85159,1.52926 23.69917,2.95203 3.01789,0.51152 6.03577,1.02304 9.05365,1.53456 52.2989,8.79348 64.73475,-65.16833 12.43585,-73.96181 v 0 c -3.64607,-0.60895 -7.29214,-1.21789 -10.93821,-1.82684 -12.17361,-1.70667 -17.18784,-2.58596 -29.81537,-3.5667 -23.81443,-1.84958 -47.73502,-1.25359 -71.43536,1.75664 -5.61856,0.77976 -11.25245,1.45597 -16.85566,2.33926 -16.2992,2.56942 -32.49184,6.07158 -48.30377,10.79829 -50.80573,15.2078 -29.29866,87.05796 21.50708,71.85016 z"/>
<path d="m 395.11812,902.99271 c 23.28293,-3.56017 46.63862,-6.60857 70.00221,-9.58522 54.62074,-6.54905 109.5005,-11.05922 164.45017,-13.68601 13.12305,-0.62733 26.25603,-1.02586 39.38405,-1.53879 48.85075,-1.35215 97.80738,-1.51205 146.58444,1.91005 22.71048,1.59333 30.73881,2.77169 52.64213,5.33689 6.58521,0.9438 13.17042,1.88759 19.75563,2.83139 52.50127,7.49104 63.09521,-66.75698 10.59393,-74.24802 v 0 c -7.22453,-1.02662 -14.44906,-2.05324 -21.67359,-3.07986 -24.0311,-2.78428 -32.33431,-4.00669 -57.26344,-5.73071 -51.10689,-3.5344 -102.39665,-3.40458 -153.57827,-1.96212 -13.56786,0.53406 -27.14085,0.95058 -40.70356,1.60217 -56.69614,2.72386 -113.31872,7.3949 -169.67434,14.16692 -24.80463,3.16296 -49.60809,6.36909 -74.31101,10.26228 -52.12864,9.75217 -38.33699,83.4732 13.79165,73.72103 z"/>
</svg>
