<?xml version="1.0" ?>
<svg xmlns="http://www.w3.org/2000/svg" width="1000" height="1000">
<path d="m 302.82587,117.09003 c -0.8331,-1.07946 0.77919,-2.86876 0.0322,-3.95512 -0.21474,-0.31228 -0.66753,0.39887 -0.89347,0.70315 -1.38482,1.86507 -2.56041,3.87802 -3.91128,5.76783 -9.24196,12.92914 -8.44473,11.41443 -19.9165,25.35692 -37.96353,43.3275 -78.92989,83.89584 -119.97008,124.27772 -15.36741,15.05828 -31.06009,29.77988 -46.98285,44.24823 -7.69827,6.9951 -15.510837,13.82044 -22.97676,21.06296 -16.385589,44.21461 -23.799526,34.11642 40.644,63.17374 4.02652,1.81554 8.41646,-2.68321 12.62831,-4.01339 13.68251,-4.32118 18.84717,-6.05428 33.29813,-9.87186 7.21335,-1.90558 14.47916,-3.6067 21.71874,-5.41005 33.86377,-7.81206 68.15916,-13.89119 102.68857,-17.88217 19.65853,-2.27217 26.79299,-2.56564 46.12436,-3.92237 15.23778,-0.7972 30.52799,-1.16718 45.76266,-0.0888 2.89813,0.20515 5.78157,0.58183 8.67236,0.87274 52.79376,5.03185 59.90986,-69.6298 7.1161,-74.66164 v 0 c -4.12546,-0.37782 -8.24234,-0.86555 -12.3764,-1.13345 -18.14054,-1.17554 -36.33797,-0.79826 -54.4765,0.19873 -21.44481,1.53314 -28.80985,1.83049 -50.65055,4.38145 -37.34286,4.36159 -74.43042,10.97036 -111.04663,19.47374 -21.35706,5.35431 -24.14494,5.79192 -44.34663,11.79107 -5.21598,1.54895 -10.3908,3.23372 -15.57219,4.8947 -2.76253,0.88557 -10.16817,0.5606 -8.25885,2.74469 45.31237,51.83342 50.96306,13.42472 30.51541,63.07141 6.79661,-6.73972 14.12003,-12.94437 21.19961,-19.38069 16.579,-15.07261 32.91899,-30.40814 48.92344,-46.09085 42.96621,-42.28275 85.85379,-84.77204 125.44212,-130.2793 10.56466,-13.00143 16.57197,-19.64774 25.50767,-33.17214 5.81052,-8.79435 10.08094,-16.11305 13.40131,-26.04004 2.34053,-6.99756 2.21794,-9.54685 2.70373,-16.11726 0,-53.033013 -75,-53.033013 -75,0 z"/>
<path d="m 274.62874,212.55755 c 2.10051,15.12581 1.81875,30.49681 1.73355,45.73027 -1.13221,39.50362 -3.36815,78.96725 -5.23078,118.44128 -2.58019,51.67648 -4.239,103.39125 -5.76396,155.10754 -1.5077,48.49375 -2.58767,96.99724 -3.18494,145.5104 -0.13256,30.91521 -0.92281,61.80948 -3.1625,92.64521 -0.85059,12.20446 -2.36702,24.3457 -3.47883,36.52521 -4.80601,52.81479 69.88539,59.61152 74.6914,6.79673 v 0 c 1.14599,-12.64207 2.73726,-25.24307 3.59213,-37.91289 2.32817,-32.33019 3.22591,-64.71886 3.35213,-97.13201 0.59065,-48.08375 1.66393,-96.15782 3.15803,-144.22233 1.5116,-51.2747 3.1539,-102.54799 5.7132,-153.78317 1.91219,-40.53236 4.23031,-81.05415 5.31327,-121.61957 0.0824,-20.53238 0.32865,-41.28969 -3.34843,-61.57051 -10.94874,-51.89052 -84.333,-36.40667 -73.38427,15.48384 z"/>
<path d="m 244.81296,347.32247 c -0.52497,6.95617 -2.58613,13.76967 -4.70565,20.37524 -4.35441,13.57074 -4.79918,13.78382 -10.62162,27.98921 -2.92803,6.22005 -5.69027,12.52087 -8.78409,18.66014 -7.86844,15.61383 -15.96471,29.61053 -25.02244,44.62834 -9.98704,16.5586 -23.06162,37.13155 -33.67671,53.17505 -6.04486,9.13614 -12.28035,18.14471 -18.42053,27.21707 -21.68126,31.17323 -43.808259,62.10027 -68.185931,91.24386 -3.947539,4.71929 -8.054782,9.30268 -12.082173,13.95401 -34.676875,40.12499 22.068421,89.1655 56.745294,49.04051 v 0 c 4.51459,-5.23267 9.11664,-10.39113 13.54375,-15.69801 25.74215,-30.8577 49.19858,-63.52613 72.10143,-96.51881 6.43049,-9.51143 12.96044,-18.95637 19.29147,-28.53429 11.07346,-16.75251 25.07549,-38.79306 35.45995,-56.0773 10.31806,-17.17372 19.27084,-32.77343 28.18278,-50.65656 3.65028,-7.32483 6.90323,-14.84103 10.35484,-22.26154 2.62522,-6.53496 5.42216,-13.00353 7.87566,-19.60488 6.34647,-17.07573 11.60511,-34.92909 12.84998,-53.17837 2.65425,-52.96655 -72.25176,-56.72022 -74.90601,-3.75367 z"/>
<path d="m 329.80457,437.6365 c 0.46159,0.30047 0.95017,0.56307 1.38477,0.90142 3.55114,2.76469 6.885,6.57221 9.86958,9.82183 6.54505,7.12626 7.4763,8.48207 13.87089,16.24091 12.15475,15.10337 22.6328,31.43099 32.25361,48.23266 0.92284,2.70005 3.2782,5.05699 3.91636,7.90592 0.0525,0.23424 -0.22763,-0.42267 -0.34144,-0.63401 17.19276,50.16881 88.14216,25.85457 70.94941,-24.31423 v 0 c -2.58683,-7.0288 -5.67003,-13.82276 -9.47644,-20.29092 -11.77926,-20.48475 -24.63815,-40.36668 -39.54343,-58.74297 -14.12071,-16.97849 -28.55132,-34.68227 -48.14397,-45.58999 -47.00095,-24.56442 -81.74029,41.90495 -34.73934,66.46938 z"/>
<path d="m 532.62421,289.82736 c 9.98691,5.87258 18.12224,14.31621 26.10499,22.58079 6.39693,6.90816 12.44039,14.1405 18.05064,21.70204 3.23614,4.36171 6.3701,8.76337 8.80863,13.61987 -3.00767,-4.90606 -1.39258,-1.62381 -3.3149,-10.46168 -0.4431,53.03116 74.55428,53.6578 74.99739,0.62664 v 0 c -2.08446,-18.96413 0.13786,-10.27098 -5.93686,-26.25529 -1.43483,-2.53753 -2.78308,-5.12599 -4.30448,-7.61257 -9.75859,-15.94954 -22.11093,-30.20742 -34.6306,-44.00747 -3.06684,-3.11852 -6.05608,-6.31531 -9.20053,-9.35555 -10.37229,-10.02853 -21.63409,-19.29858 -34.2131,-26.43301 -46.38354,-25.71123 -82.74471,39.88499 -36.36118,65.59623 z"/>
<path d="m 496.39502,404.76195 c 7.82324,6.69712 14.33299,14.77474 20.73616,22.79416 7.05375,9.48801 13.35887,19.52259 19.08775,29.85945 -0.0679,0.66959 0.0367,0.51583 -0.49885,-0.24973 15.16675,50.818 87.03426,29.36898 71.86752,-21.44902 v 0 c -3.35256,-10.05574 -1.40293,-5.11302 -5.86175,-14.82308 -7.82707,-13.98097 -16.36627,-27.58995 -26.12814,-40.31277 -8.79543,-10.8968 -17.7837,-21.78031 -28.39325,-30.98603 -39.00898,-35.9277 -89.81842,19.23932 -50.80944,55.16702 z"/>
<path d="m 402.84834,638.56489 c 18.0286,-7.60989 36.19987,-15.02188 54.72922,-21.34075 7.09298,-2.41885 14.27234,-4.5766 21.40851,-6.8649 48.0276,-13.80057 97.31323,-23.35113 147.08149,-28.01178 10.71804,-1.00371 21.47415,-1.54792 32.21123,-2.32188 37.89149,-1.82712 75.89441,-1.36391 113.71678,1.58429 17.55817,1.36863 23.66235,2.25381 40.60902,4.26625 14.68247,1.86613 29.21691,4.62366 43.56476,8.22626 51.47263,12.76979 69.53184,-60.02352 18.05921,-72.79331 v 0 c -17.41431,-4.28161 -35.01577,-7.71721 -52.82692,-9.91524 -18.65787,-2.19278 -25.31268,-3.15217 -44.63878,-4.6323 -41.23159,-3.15781 -82.65679,-3.62244 -123.95581,-1.53608 -11.80204,0.87481 -23.62533,1.49891 -35.4061,2.62443 -54.62999,5.21927 -108.72606,15.79587 -161.4066,31.12042 -8.05859,2.60537 -16.16297,5.07316 -24.17578,7.8161 -20.21084,6.91856 -40.0372,15.00891 -59.69043,23.35868 -48.38011,21.72246 -17.65991,90.14227 30.7202,68.41981 z"/>
<path d="m 675.60418,122.93753 c 1.07095,17.95732 2.77898,35.86985 4.24792,53.79753 3.00564,37.80209 4.22156,75.71493 5.28419,113.61181 1.37995,50.22759 -1.43333,100.42085 -3.84868,150.56902 -2.41114,57.64076 -6.24611,115.20089 -10.08374,172.75932 -4.00985,55.3024 -6.04409,110.714 -8.67991,166.09049 -1.00425,17.84249 -1.6502,33.79267 -3.62284,51.53818 -0.89616,8.06171 -2.22553,16.06935 -3.33829,24.10402 -7.16847,52.54629 67.14321,62.68404 74.31168,10.13775 v 0 c 1.25365,-9.31157 2.73775,-18.59501 3.76095,-27.93471 2.05885,-18.7932 2.74447,-35.42542 3.80374,-54.28058 2.6115,-54.90141 4.62454,-109.83775 8.59852,-164.66571 3.86832,-58.01866 7.72894,-116.03938 10.16306,-174.14081 2.50675,-52.05123 5.36859,-104.14989 3.90595,-156.28268 -1.1039,-39.23855 -2.37935,-78.49271 -5.50524,-117.63216 -1.4102,-17.20334 -3.04508,-34.39239 -4.10143,-51.62217 -2.79357,-52.959376 -77.68944,-49.008679 -74.89588,3.9507 z"/>
</svg>
