<?xml version="1.0" ?>
<svg xmlns="http://www.w3.org/2000/svg" width="1000" height="1000">
<path d="m 333.88802,76.640665 c -16.69093,23.240035 -35.47601,44.917785 -54.10709,66.607545 -46.75146,51.1929 -94.06696,101.86361 -141.62509,152.30652 -26.55156,28.73695 -53.395386,57.21718 -79.580935,86.29047 -1.675287,1.99858 -3.527647,3.8612 -5.025862,5.99575 -13.244007,18.86903 -15.379785,30.85181 8.019118,59.35349 11.425098,13.91667 46.886239,1.9109 61.146359,-1.91074 29.39859,-7.84552 59.16242,-14.32096 89.19684,-19.2126 21.6322,-3.52319 33.32683,-4.83147 55.05758,-7.6127 32.10866,-3.63976 64.3818,-6.19139 96.70811,-6.5291 6.81416,-0.0712 13.62892,0.0652 20.44338,0.0978 53.03259,0.21043 53.33018,-74.78898 0.29758,-74.99941 v 0 c -7.5613,-0.0244 -15.12309,-0.16224 -22.68391,-0.0733 -34.86719,0.41026 -69.67706,3.15539 -104.3075,7.11345 -23.42991,3.01182 -35.30364,4.33408 -58.70562,8.1722 -32.13979,5.27119 -63.9922,12.21656 -95.45824,20.60997 -4.603893,1.23917 -9.219825,2.43443 -13.811668,3.71751 -15.878905,4.43699 8.246395,-2.07154 14.068298,8.45695 7.79515,14.09697 8.12912,31.23548 10.53835,47.16297 0.23004,1.52081 -4.1566,4.44553 -2.85617,3.62414 1.38176,-0.87277 2.07604,-2.52469 3.11406,-3.78704 25.78548,-28.65869 52.26679,-56.69115 78.41087,-85.02045 48.35707,-51.29101 96.48469,-102.79918 143.96372,-154.90584 20.15101,-23.49078 15.63171,-17.89828 33.53315,-39.87692 10.26718,-12.60561 20.62898,-25.23508 29.1919,-39.09538 25.79905,-46.334761 -39.72819,-82.820118 -65.52723,-36.485365 z"/>
<path d="m 277.93285,289.31218 c 0.95715,32.37891 0.53777,64.79095 0.33591,97.17916 -0.4036,78.35761 -2.37151,156.68914 -5.15447,234.99438 -3.33705,84.70959 -8.01867,169.35771 -12.03915,254.03611 -0.4861,10.6601 -0.97219,21.3202 -1.45829,31.9803 -2.41566,52.97796 72.50649,56.39423 74.92215,3.41626 v 0 c 0.48392,-10.61325 0.96784,-21.22651 1.45175,-31.83977 4.03428,-84.97645 8.73453,-169.92243 12.07627,-254.93049 2.80603,-79.03702 4.79353,-158.10048 5.20029,-237.19026 0.20944,-33.73536 0.65137,-67.49687 -0.41973,-101.22104 -2.52815,-52.97271 -77.44288,-49.39737 -74.91473,3.57535 z"/>
<path d="m 259.6219,420.59026 c -0.36011,3.626 -0.65344,7.62591 -1.52853,11.14546 -0.76066,3.05934 -1.76362,6.05547 -2.77929,9.03986 -4.61414,13.55785 -8.35831,23.33708 -14.60594,36.66898 -3.91834,8.3614 -8.29032,16.50261 -12.43548,24.75391 -29.94997,58.04701 -66.48567,112.3714 -106.11391,164.20486 -8.15257,10.6635 -16.62118,21.08162 -24.931779,31.62243 -30.57169,35.72895 -15.145808,18.89504 -46.087718,50.67512 -36.90844,38.08238 16.948166,90.27879 53.856607,52.19642 v 0 c 34.76319,-36.01265 17.68003,-17.22405 51.1459,-56.45981 8.75383,-11.12068 17.67423,-22.11223 26.2615,-33.36203 42.24461,-55.3428 81.07987,-113.4105 112.97366,-175.38047 4.78839,-9.64544 9.85171,-19.15921 14.36515,-28.93633 9.37496,-20.30824 17.6171,-41.56173 22.45446,-63.45913 1.11535,-5.04888 1.51335,-9.80852 2.01145,-14.84055 5.56402,-52.74033 -69.02206,-60.60904 -74.58608,-7.86872 z"/>
<path d="m 298.59769,491.8932 c 1.89063,1.39776 3.76544,2.81716 5.67188,4.19328 8.8874,6.41517 17.79546,12.72534 26.4059,19.52165 11.96565,9.44462 12.70246,10.32267 24.57902,20.58866 12.77299,11.92764 26.31675,23.25159 37.80655,36.48954 3.00538,3.46264 5.59797,7.26302 8.39695,10.89454 32.90882,41.58737 91.72225,-4.95274 58.81343,-46.54011 v 0 c -4.39094,-5.45449 -8.5498,-11.10424 -13.17281,-16.36348 -13.10544,-14.90903 -28.33765,-27.82615 -42.86392,-41.27785 -4.85587,-4.17897 -9.64929,-8.43163 -14.56761,-12.53692 -14.1187,-11.78479 -28.86336,-22.79656 -43.94339,-33.31432 -41.25615,-33.32311 -88.38215,25.0219 -47.126,58.34501 z"/>
<path d="m 557.90475,172.43848 c -2.33203,14.82751 -4.90737,29.62301 -9.11468,44.05607 -1.4833,5.0884 -3.24629,10.09106 -4.86944,15.13659 -10.1483,28.98441 -22.14117,57.27133 -35.71059,84.80961 -1.34412,2.61423 -2.66095,5.24267 -4.03235,7.84269 -9.03139,17.12254 -20.33896,34.42309 -1.47809,55.62868 9.02194,10.14351 25.85331,8.2916 38.77996,12.4374 3.76293,-1.0249 7.54688,-1.97552 11.28879,-3.0747 3.54218,-1.04051 7.03403,-2.2455 10.55896,-3.34303 8.11775,-2.52756 20.10325,-6.20755 28.10328,-8.36536 16.11084,-4.34549 19.80783,-4.89372 36.60793,-8.49159 35.00753,-6.75348 70.55452,-10.7843 106.19576,-11.87566 6.16121,-0.18866 12.32716,-0.1597 18.49074,-0.23955 13.61715,-0.2048 27.18626,0.72206 40.73215,1.94967 52.82815,4.65683 59.41391,-70.05346 6.58576,-74.7103 v 0 c -16.09169,-1.38696 -32.20608,-2.49439 -48.37578,-2.23191 -7.00542,0.10591 -14.01371,0.091 -21.01626,0.31774 -39.74681,1.28677 -79.38232,5.84931 -118.40761,13.47214 -7.35013,1.59175 -14.72843,3.05858 -22.05039,4.77525 -13.89561,3.2579 -22.59341,5.75266 -35.98229,9.7427 -2.24419,0.66879 -19.11417,5.84214 -22.9627,7.15375 -0.73988,0.25215 -1.4296,0.63267 -2.1444,0.94901 10.4487,4.56038 24.66889,4.44062 31.3461,13.68114 7.24016,10.01959 3.57333,24.46594 5.08459,36.73493 0.0337,0.27364 -0.59565,0.92475 -0.4764,0.67616 1.21428,-2.53126 5.06387,-9.45505 5.8419,-10.93484 1.56941,-2.98492 3.07691,-6.00199 4.61536,-9.00299 15.17128,-30.91623 28.66463,-62.63665 39.89071,-95.21004 2.01772,-6.4246 4.20965,-12.79706 6.05315,-19.27381 4.86759,-17.10114 8.37384,-34.79419 10.68324,-52.43164 0.30653,-2.3411 0.46486,-4.69923 0.69729,-7.04885 2.21272,-52.98682 -72.72197,-56.11609 -74.93469,-3.12926 z"/>
<path d="m 465.92194,584.80552 c 20.11622,-2.71098 39.86972,-7.54722 59.68844,-11.8265 7.55848,-1.63204 15.12735,-3.2156 22.69103,-4.82339 48.29529,-9.93429 96.84833,-18.93118 145.84515,-24.6549 10.23392,-1.1955 20.49884,-2.10881 30.74826,-3.16322 34.80233,-2.87767 69.77028,-4.38446 104.68864,-3.16555 14.50588,0.50637 20.42293,1.1485 34.30097,2.30477 52.85444,4.34836 59.00395,-70.39911 6.14951,-74.74747 v 0 c -16.06286,-1.3068 -22.29439,-1.98609 -39.11539,-2.54541 -37.93747,-1.26147 -75.92608,0.36476 -113.73231,3.55086 -10.92479,1.13349 -21.86607,2.11788 -32.77436,3.40047 -50.96207,5.99206 -101.47259,15.31091 -151.7076,25.66018 -7.73575,1.64501 -15.47669,3.26588 -23.20727,4.93504 -17.68936,3.81943 -35.31486,8.18736 -53.25411,10.7023 -52.58952,6.84411 -42.91048,81.21693 9.67904,74.37282 z"/>
<path d="m 690.18685,174.56967 c -2.91499,27.96373 -6.7453,55.82774 -9.97987,83.75861 -5.30146,54.6981 -14.50722,109.01614 -28.55592,162.16801 -3.28932,12.44484 -7.0804,24.75161 -10.62061,37.12741 -20.64245,66.13555 -49.70469,129.43129 -86.11077,188.36987 -7.16632,11.60171 -14.93725,22.81889 -22.40587,34.22833 -22.01663,31.2309 -46.05802,60.97266 -72.50665,88.56183 -14.37498,14.99486 -31.54821,31.01225 -46.6703,45.38513 -38.42872,36.54769 13.25752,90.89411 51.68624,54.34642 v 0 c 17.05171,-16.22667 34.1629,-32.16008 50.41983,-49.21547 29.13971,-30.57089 55.66788,-63.47583 79.87236,-98.07823 8.1481,-12.51156 16.62286,-24.81637 24.44431,-37.5347 39.54883,-64.30967 71.02814,-133.38466 93.3954,-205.49499 3.801,-13.36692 7.86981,-26.66058 11.40301,-40.10077 14.74966,-56.10731 24.49838,-113.42565 30.1517,-171.1406 3.31157,-28.63387 7.27294,-57.19425 10.19393,-85.86922 4.60441,-52.83275 -70.11238,-59.34437 -74.71679,-6.51163 z"/>
<path d="m 699.72954,667.52151 c 7.71132,13.19555 15.46297,26.36973 23.11062,39.6031 14.74909,27.2416 27.5066,55.49009 41.64372,83.04926 8.99872,16.2964 17.54013,33.14507 29.40086,47.62627 2.11788,2.5858 4.42752,5.00839 6.64128,7.51259 16.04821,16.40864 36.7636,26.58455 56.92547,36.92582 19.82508,10.08753 40.08452,19.25486 60.43251,28.22365 48.53547,21.37306 78.76154,-47.26648 30.22606,-68.63953 v 0 c -19.00962,-8.36264 -37.93049,-16.92284 -56.45284,-26.32967 -12.16828,-6.23021 -24.80443,-12.0805 -35.59556,-20.58655 -10.82582,-11.11971 -17.1983,-25.70426 -24.85726,-38.9871 -14.72524,-28.65552 -27.8747,-58.10413 -43.43214,-86.32903 -13.2152,-22.85596 -1.55562,-2.77726 -13.32057,-22.82454 -4.04958,-6.90043 -7.88351,-13.96068 -12.24462,-20.67392 -0.80373,-1.23722 -1.68386,-2.42308 -2.52579,-3.63462 -31.86525,-42.39229 -91.81699,2.67198 -59.95174,45.06427 z"/>
</svg>
