<?xml version="1.0" ?>
<svg xmlns="http://www.w3.org/2000/svg" width="1000" height="1000">
<path d="m 413.62447,195.52712 c 17.2384,12.73 34.05876,26.09373 49.16969,41.3323 4.24028,4.2761 8.26395,8.76169 12.39592,13.14253 3.86663,4.35435 7.73326,8.7087 11.59988,13.06306 35.2562,39.61692 91.28299,-10.24286 56.0268,-49.85979 v 0 c -4.40352,-4.9387 -8.80703,-9.8774 -13.21055,-14.8161 -5.04865,-5.29842 -9.96223,-10.72891 -15.14595,-15.89526 -17.27991,-17.22199 -36.29004,-32.54762 -55.90018,-47.01498 -42.46051,-31.77427 -87.39612,28.27397 -44.93561,60.04824 z"/>
<path d="m 140.6631,335.37985 c 0.31769,1.44129 0.60017,2.8908 0.95306,4.32388 2.14376,8.70566 3.07036,11.50064 5.69457,20.83716 1.39072,4.94796 8.47184,30.41791 9.41631,33.60026 2.28808,7.70958 4.75757,15.36416 7.13636,23.04624 8.66569,24.42954 16.58438,49.17448 26.13896,73.28347 3.33669,8.41945 7.04928,16.68503 10.57392,25.02755 20.71472,48.82009 89.75674,19.52505 69.04202,-29.29503 v 0 c -3.08915,-7.24475 -6.36195,-14.4139 -9.26744,-21.73424 -9.07677,-22.86871 -16.58231,-46.34709 -24.8561,-69.50669 -2.18846,-7.03822 -4.46759,-14.04888 -6.56537,-21.11466 -5.23507,-17.6329 -9.99987,-35.43788 -14.72907,-53.20827 -10.42299,-51.99867 -83.9602,-37.25834 -73.53722,14.74033 z"/>
<path d="m 315.34048,372.26553 c 21.94447,-6.21403 43.8554,-12.56439 66.13423,-17.50277 8.50001,-1.88414 17.05221,-3.5246 25.57832,-5.28691 40.78518,-7.72734 82.04735,-12.94855 123.5003,-15.23842 25.89106,-1.43022 35.53469,-1.23623 61.22586,-1.48217 32.87355,0.0876 65.75107,1.52041 98.46007,4.85497 14.07868,1.43527 19.39204,2.24953 32.95937,4.07169 13.84878,1.84154 27.51111,4.72146 41.14212,7.72477 0.82483,0.17562 1.65193,0.34086 2.47447,0.52686 1.13187,0.25594 -2.36918,-0.34155 -3.34244,-0.97353 -5.31872,-3.45374 -11.80203,-5.94151 -15.4107,-11.15635 -10.07326,-14.55676 -8.54555,-18.11452 -7.1671,-30.36493 -6.58936,15.47816 -13.17081,30.95324 -20.92852,45.89548 -3.18452,6.13374 -6.57145,12.16025 -9.85717,18.24037 -16.83736,28.78998 -8.04773,14.12844 -26.41818,43.95504 -27.79445,45.16601 36.07993,84.4733 63.87438,39.30728 v 0 c 19.71224,-32.05804 10.20065,-16.15526 28.56973,-47.68738 3.70973,-6.90322 7.53695,-13.74459 11.1292,-20.70967 6.25922,-12.13609 9.60959,-19.5606 14.92246,-31.65802 0.34748,-0.79121 7.18376,-16.76668 7.88265,-18.52219 0.9213,-2.3142 1.72292,-4.67427 2.58439,-7.0114 0.78797,-4.19865 2.99177,-8.37038 2.36393,-12.59594 -1.29391,-8.70833 -3.18667,-17.79162 -7.97658,-25.17849 -6.13631,-9.46328 -16.4956,-13.19918 -26.56288,-15.3104 -15.67781,-3.45428 -31.40638,-6.6952 -47.33186,-8.81883 -14.90291,-1.98774 -20.6812,-2.86969 -36.14849,-4.4292 -35.20813,-3.5499 -70.5937,-5.09202 -105.97575,-5.15631 -27.68005,0.29277 -37.97569,0.0913 -65.91983,1.67669 -44.73836,2.53816 -89.27086,8.20474 -133.282,16.60325 -9.28754,1.93267 -18.60344,3.73375 -27.86262,5.79803 -22.92342,5.11062 -45.49593,11.57277 -68.07473,17.99637 -51.21723,13.75844 -31.75986,86.19055 19.45737,72.43211 z"/>
<path d="m 349.67231,486.22079 c -0.60036,2.97745 -2.86098,14.22114 -3.09001,15.13076 -2.42064,9.61377 -6.33657,20.93399 -9.79679,29.92407 -8.1938,21.2885 -12.13555,29.04474 -21.93741,50.64254 -24.70053,52.18639 -55.467,101.1066 -86.37298,149.75707 -28.4332,44.76666 34.87641,84.97727 63.30961,40.21061 v 0 c 32.78371,-51.62608 65.31208,-103.60116 91.38838,-159.03724 4.54754,-10.06856 9.28194,-20.0548 13.64261,-30.2057 11.51255,-26.79924 21.80377,-54.34949 26.68355,-83.20925 9.34291,-52.20355 -64.48406,-65.41641 -73.82696,-13.21286 z"/>
<path d="m 525.05634,480.42249 c -0.0689,-0.003 -0.24253,-0.0668 -0.20676,-0.008 0.89529,1.47574 2.03379,2.79084 2.98811,4.22911 1.44561,2.17869 2.87985,4.36499 4.30007,6.56031 8.25474,12.75989 6.7269,10.46455 15.38786,24.50634 2.87222,5.03217 5.79923,10.03345 8.61665,15.09649 3.72836,6.70003 15.87069,29.3099 19.27237,35.5932 9.78223,18.06897 19.5152,36.13329 28.94155,54.39098 2.71797,5.46165 5.44668,10.91797 8.1539,16.38495 6.07066,12.25913 8.91479,18.35702 15.24792,30.38144 6.64185,12.61059 13.83457,24.85826 21.1892,37.05981 8.22892,13.84905 17.88406,26.73059 28.80492,38.56184 5.83137,6.31749 10.16387,10.43464 16.28997,16.46158 14.78648,14.01693 30.21968,27.37322 46.38615,39.78093 11.93825,9.16257 20.86891,15.32976 33.19685,24.08793 5.53552,4.14038 11.07104,8.28076 16.60656,12.42115 42.48481,31.74178 87.37448,-28.34082 44.88966,-60.0826 v 0 c -6.02693,-4.49831 -12.05387,-8.99662 -18.08081,-13.49492 -10.29567,-7.30318 -19.9159,-13.9763 -29.91795,-21.62263 -14.12223,-10.79611 -27.60628,-22.41917 -40.53844,-34.60935 -6.19742,-6.06883 -12.52524,-12.08776 -18.17872,-18.68218 -5.7449,-6.70105 -10.64847,-14.05523 -15.24578,-21.57437 -6.46454,-10.69674 -12.8067,-21.42516 -18.64149,-32.48446 -6.1069,-11.57508 -8.935,-17.65646 -14.87041,-29.63377 -2.8733,-5.79817 -5.77112,-11.58415 -8.65668,-17.37622 -9.63846,-18.64991 -19.57128,-37.1125 -29.56575,-55.57339 -4.18477,-7.72973 -15.85079,-29.47959 -20.19066,-37.24559 -3.2316,-5.78279 -6.5933,-11.49191 -9.88995,-17.23786 -6.7797,-10.9738 -9.98817,-16.36608 -16.86161,-26.79938 -7.00062,-10.62633 -14.30659,-21.27694 -24.49155,-29.14006 -42.46074,-31.77397 -87.39592,28.27459 -44.93518,60.04856 z"/>
</svg>
