<?xml version="1.0" ?>
<svg xmlns="http://www.w3.org/2000/svg" viewBox="0 0 1000 1000">
<path d="m 422.08072,123.54588 c 11.6619,11.73632 22.04671,24.57748 31.98709,37.77398 5.99763,7.7684 10.748,16.29893 15.23015,24.98618 24.7363,46.91071 91.07807,11.9283 66.34177,-34.98242 v 0 c -1.98668,-3.71647 -3.85472,-7.49884 -5.96003,-11.14941 -6.36671,-11.03972 -8.4905,-13.60876 -15.79556,-24.09821 -13.51929,-17.813568 -27.61934,-35.371916 -44.18897,-50.477193 -40.97477,-33.668504 -88.58922,24.278572 -47.61445,57.947073 z"/>
<path d="m 138.9788,255.33084 c 0.73209,2.20462 1.37156,4.44219 2.19628,6.61386 2.43318,6.40708 5.84419,13.66461 8.60283,19.84241 6.50201,14.56081 13.0791,29.06464 19.85203,43.50236 11.33458,24.06094 23.88114,47.51757 36.42238,70.96269 25.01531,46.76253 91.14752,11.38554 66.13221,-35.37699 v 0 c -11.92446,-22.29002 -23.87453,-44.5806 -34.66095,-67.4519 -8.90775,-18.96838 -17.47582,-38.0888 -26.02475,-57.21951 -13.52489,-51.2794 -86.04492,-32.15232 -72.52003,19.12708 z"/>
<path d="m 352.21823,298.34028 c 0.0215,0.0624 0.002,0.20837 0.0644,0.18712 1.15544,-0.3933 2.25622,-0.93281 3.3975,-1.3655 6.11459,-2.3182 10.14395,-3.70742 16.69041,-5.75347 13.17185,-4.1168 16.75385,-4.94609 30.78143,-8.78241 50.87922,-13.92914 102.9776,-22.4101 155.02134,-30.57948 45.26596,-6.53383 90.8069,-12.58383 136.59828,-13.54736 7.14388,-0.15032 14.29092,0.0109 21.43637,0.0164 26.30879,0.42216 52.50683,3.24764 78.15739,9.09562 -8.95402,-4.77141 9.60523,3.32104 7.255,2.35185 -1.9765,-0.81508 -4.41315,-0.96923 -5.90728,-2.49845 -5.00914,-5.12679 -9.84332,-10.6531 -13.15388,-17.01043 -1.85476,-3.56173 1.03435,-9.15433 -1.89933,-11.89651 -1.80881,-1.69074 -3.02092,3.92372 -4.53138,5.88558 -13.79553,19.79541 -30.72707,37.05907 -47.19972,54.573 -36.28106,38.68055 18.42149,89.98972 54.70256,51.30917 v 0 c 20.12014,-21.50356 40.73653,-42.76386 56.94278,-67.51862 8.66106,-15.87386 19.25399,-29.32938 14.99314,-49.52305 -4.09951,-19.42907 -13.32057,-26.38673 -28.0661,-33.71376 -3.93291,-1.95426 -12.48977,-4.0126 -16.68127,-5.13151 -9.6196,-2.14085 -11.9797,-2.7868 -22.14592,-4.49642 -23.96497,-4.03009 -48.22789,-5.96745 -72.51776,-6.42645 -8.1647,0.016 -16.33155,-0.13971 -24.4941,0.0481 -48.64725,1.11925 -97.0363,7.39526 -145.12655,14.39129 -54.8039,8.61357 -109.64675,17.64019 -163.21603,32.34075 -15.87127,4.36196 -31.72704,8.67835 -47.25497,14.17195 -5.42654,1.91985 -12.52481,4.65147 -17.81573,7.22637 -2.28763,1.1133 -4.47345,2.42464 -6.71017,3.63696 -44.5543,28.76482 -3.87471,91.77411 40.67959,63.00929 z"/>
<path d="m 387.0649,334.25579 c -8.45198,23.45143 -20.33848,45.42445 -32.18491,67.28244 -11.5297,20.8895 -23.64034,41.47811 -36.69954,61.45333 -4.22324,6.45983 -8.4346,12.93662 -12.99729,19.16133 -4.0773,5.56253 -8.60223,10.78267 -12.90334,16.17401 -32.87089,41.61736 25.98496,88.10381 58.85584,46.48645 v 0 c 5.38411,-6.871 11.01024,-13.55905 16.15233,-20.61299 5.02868,-6.89834 9.67761,-14.06774 14.34114,-21.21799 13.94451,-21.38005 26.88801,-43.40589 39.21366,-65.75229 14.44589,-26.73735 28.9401,-53.72942 38.43268,-82.71019 14.32888,-51.06058 -57.88169,-71.32468 -72.21057,-20.2641 z"/>
<path d="m 627.41833,397.20908 c 7.02383,8.28926 14.92551,15.77518 21.97096,24.04874 6.61318,7.76594 8.51781,10.64845 14.71676,19.01565 7.0967,9.92134 13.64788,20.22329 19.67739,30.82536 2.97189,5.22567 6.45035,10.79303 8.06945,16.65226 -0.23189,-0.35622 -0.46378,-0.71243 -0.69568,-1.06865 10.1228,52.05794 83.74384,37.74215 73.62105,-14.31579 v 0 c -0.8417,-3.49227 -1.68341,-6.98453 -2.52511,-10.4768 -1.26541,-3.24257 -2.38984,-6.54375 -3.79621,-9.72772 -2.34301,-5.30449 -7.31962,-14.36181 -10.09092,-19.19583 -7.39936,-12.90686 -15.42987,-25.44834 -24.13005,-37.51908 -3.1906,-4.25891 -6.28895,-8.58854 -9.57181,-12.77675 -9.67375,-12.34156 -20.59632,-23.51041 -31.06323,-35.14554 -35.132,-39.7271 -91.3146,9.95705 -56.1826,49.68415 z"/>
<path d="m 420.21288,650.91037 c 16.0238,-5.52295 32.55231,-9.48489 49.28634,-12.15508 5.41133,-0.86346 10.86081,-1.46799 16.29121,-2.20199 32.07917,-3.81551 64.36836,-1.34942 96.3598,1.98001 8.33997,0.90801 16.6118,2.29374 24.8704,3.74177 52.24563,9.10461 65.12149,-64.78187 12.87586,-73.88648 v 0 c -9.97528,-1.72962 -19.96703,-3.3796 -30.03906,-4.45823 -37.96898,-3.89696 -76.27882,-6.4537 -114.31499,-1.67363 -6.63507,0.93024 -13.29329,1.70817 -19.90521,2.79072 -20.37756,3.33635 -40.48785,8.29123 -60.01406,15.00851 -50.10163,17.38756 -25.51191,88.24196 24.58971,70.8544 z"/>
<path d="m 482.28117,619.1993 c 1.65765,21.57934 2.38628,43.2197 3.18908,64.84403 0.52943,15.84576 1.17956,31.69105 1.48069,47.5437 0.13325,7.01433 0.33677,18.64443 -0.21654,25.86203 -0.27531,3.59118 -0.91957,7.1445 -1.37935,10.71675 -6.07937,52.68341 68.42622,61.28094 74.50559,8.59753 v 0 c 0.61485,-5.74043 1.44464,-11.46189 1.84455,-17.22128 0.58377,-8.40734 0.37989,-21.53877 0.21933,-29.94567 -0.30782,-16.11704 -0.96701,-32.22663 -1.50594,-48.33668 -0.8497,-22.86846 -1.63102,-45.75361 -3.42062,-68.57203 -4.60442,-52.83275 -79.32121,-46.32112 -74.71679,6.51162 z"/>
<path d="m 252.22355,861.44112 c 1.88245,-0.24213 3.77143,-0.43795 5.64734,-0.72639 7.55295,-1.16131 15.03509,-2.84383 22.56304,-4.15472 12.35061,-2.15068 12.47909,-2.09029 25.56248,-4.06875 41.97151,-6.41827 84.3168,-9.7074 126.67122,-12.25859 52.48598,-2.58496 105.04463,-2.3822 157.5554,-0.87431 37.20523,1.6959 74.45257,3.95473 111.45609,8.31682 5.67103,0.66852 11.32144,1.50176 16.98215,2.25264 14.64857,2.0308 29.03314,5.37416 43.15192,9.71467 50.7628,15.3505 72.47169,-56.43894 21.70889,-71.78944 v 0 c -18.04508,-5.39344 -36.36171,-9.77034 -55.05721,-12.28174 -6.32675,-0.82962 -12.64279,-1.74558 -18.98027,-2.48886 -38.88667,-4.56069 -78.02476,-6.94327 -117.12271,-8.69359 -54.73371,-1.55181 -109.51749,-1.7617 -164.22316,0.98067 -44.59987,2.70913 -89.18836,6.19568 -133.38416,12.96905 -15.9498,2.42369 -32.21084,4.90704 -47.8626,8.29228 -52.89884,3.77 -47.56726,78.58026 5.33158,74.81026 z"/>
</svg>
