<?xml version="1.0" ?>
<svg xmlns="http://www.w3.org/2000/svg" width="1000" height="1000">
<path d="m 407.72635,114.37524 c 2.48527,2.22562 0.23325,0.28655 6.63334,4.29647 6.91894,4.33499 10.99049,6.83423 17.64163,11.72793 4.74181,3.48887 17.55303,13.71635 21.64834,16.9612 3.93428,3.09617 7.86856,6.19234 11.80284,9.28851 41.67572,32.79686 88.05749,-26.14151 46.38177,-58.938372 v 0 c -3.87507,-3.049425 -7.75013,-6.098849 -11.6252,-9.148274 -7.48904,-5.926849 -17.8523,-14.252116 -25.57646,-19.868601 -11.68449,-8.49617 -24.02826,-16.173211 -36.7574,-22.992344 -48.55948,-21.318462 -78.70834,47.355014 -30.14886,68.673481 z"/>
<path d="m 127.47103,207.57678 c 0.20269,19.13306 0.43043,38.30126 3.4513,57.25038 1.11497,6.99388 2.75513,13.89386 4.1327,20.84079 5.7795,24.10657 14.07017,47.48687 22.20883,70.86639 17.44031,50.08329 88.26877,25.41896 70.82846,-24.66432 v 0 c -7.04541,-20.22526 -14.25865,-40.43276 -19.55377,-61.20781 -1.05549,-4.96781 -2.30694,-9.89799 -3.16647,-14.90342 -3.00235,-17.48393 -2.54217,-35.21403 -3.04775,-52.87079 -3.31547,-52.92927 -78.16876,-48.24049 -74.8533,4.68878 z"/>
<path d="m 344.06403,252.9419 c 31.0698,-9.78027 63.15715,-15.70876 95.11881,-21.68695 55.90204,-9.33075 112.15481,-17.58221 168.82815,-20.26275 10.30245,-0.48729 20.6201,-0.56842 30.93015,-0.85263 37.39277,-0.33153 74.87518,2.93982 111.30905,11.49323 4.36965,1.2838 6.04119,1.64876 9.92954,3.15984 0.62394,0.24247 1.23345,0.52382 1.82798,0.83142 0.0801,0.0414 0.26171,0.2332 0.17596,0.20539 -1.34275,-0.43554 -3.24517,-1.95396 -4.06164,-2.50528 -10.51083,-11.8926 -7.37586,-6.03999 -12.61922,-23.82184 -0.30932,-1.04899 0.35698,-3.97001 -0.46439,-3.24792 -1.61832,1.42273 -1.63194,3.99229 -2.58215,5.92625 -1.9064,3.8801 -3.87083,7.73489 -5.98319,11.50682 -3.11924,5.56984 -6.47099,11.00625 -9.70648,16.50937 -19.74155,29.51939 -5.90632,9.28039 -28.83744,41.48416 -6.08269,8.54234 -12.1127,17.12207 -18.16905,25.6831 -30.62715,43.29524 30.60157,86.60857 61.22871,43.31333 v 0 c 5.97265,-8.44344 11.92427,-16.90179 17.91795,-25.33031 24.55387,-34.52846 10.59968,-14.02467 32.65533,-47.38068 8.57553,-14.81429 14.13865,-23.35541 20.8527,-38.75239 3.22829,-7.40326 8.58669,-22.22539 8.08382,-30.50464 -0.44544,-7.33373 -2.10225,-14.72143 -5.03009,-21.46011 -1.96522,-4.52311 -6.19669,-7.67357 -9.29504,-11.51035 -1.82826,-1.36837 -3.58943,-2.8313 -5.4848,-4.10511 -10.03513,-6.74425 -22.09532,-9.79945 -33.54654,-13.07404 -4.12181,-0.94165 -8.22329,-1.97714 -12.36541,-2.82497 -38.7686,-7.93532 -78.44006,-10.88486 -117.96754,-10.56496 -11.25649,0.32908 -22.52144,0.44075 -33.76947,0.98726 -59.64028,2.89774 -118.84981,11.49691 -177.67527,21.38179 -36.04483,6.7707 -72.27161,13.51221 -107.17726,25.00844 -49.77645,18.29768 -23.89962,88.69221 25.87683,70.39453 z"/>
<path d="m 341.59755,295.79153 c -0.4234,4.38078 -0.67688,8.12186 -1.75402,12.53808 -2.01349,8.25526 -6.10507,18.86347 -9.27588,26.26953 -8.36132,19.52951 -12.45508,26.48434 -22.63196,46.19248 -20.35395,38.48647 -44.80117,74.52495 -69.38943,110.37062 -29.98643,43.74145 31.87332,86.14866 61.85975,42.40721 v 0 c 6.57092,-9.59052 13.25104,-19.10714 19.71278,-28.77157 19.45346,-29.09532 38.02121,-58.80881 54.51101,-89.70036 4.88092,-9.52178 9.98643,-18.93176 14.64277,-28.56536 10.33327,-21.37872 19.56178,-43.31154 24.66486,-66.57957 1.46313,-6.67129 1.85995,-12.26324 2.46867,-18.80566 3.78685,-52.89764 -71.02171,-58.25304 -74.80855,-5.3554 z"/>
<path d="m 565.11226,358.02563 c 15.22827,12.90428 28.04206,28.44094 40.72841,43.77196 10.90256,13.99642 22.58548,27.58504 31.48841,43.00744 1.28457,2.22523 2.37534,4.55685 3.56301,6.83527 25.07488,46.73062 91.16195,11.2694 66.08708,-35.46122 v 0 c -2.07043,-3.79351 -4.00575,-7.66394 -6.21128,-11.38052 -10.74389,-18.10472 -24.13727,-34.43407 -37.19565,-50.87649 -15.54101,-18.70529 -31.35088,-37.54912 -50.06613,-53.21836 -1.75293,-1.46762 -3.63245,-2.77705 -5.44868,-4.16558 -43.47822,-30.36682 -86.4234,31.12068 -42.94517,61.4875 z"/>
<path d="m 161.6628,651.20712 c 29.46078,-7.28505 59.16094,-13.65813 89.17266,-18.24061 11.64836,-1.77858 23.3487,-3.19824 35.02306,-4.79737 87.69905,-11.50489 176.15343,-14.39764 264.46113,-17.10901 53.21191,-1.38364 106.43572,-2.80582 159.67083,-2.62979 26.09891,0.0863 29.83148,0.30002 54.51301,0.91338 23.92476,1.13484 12.77523,0.45739 33.45519,1.92037 52.90338,3.70577 58.14412,-71.11091 5.24074,-74.81667 v 0 c -22.95841,-1.59392 -10.67885,-0.86404 -36.84499,-2.08086 -25.61912,-0.62842 -29.57018,-0.85063 -56.5581,-0.93597 -53.9383,-0.17056 -107.86521,1.25744 -161.77997,2.66491 -46.95535,1.44369 -93.91779,2.79219 -140.81509,5.64832 -32.49969,1.97929 -57.92465,4.04039 -90.20138,7.39071 -13.80413,1.43286 -27.57653,3.15645 -41.36479,4.73467 -12.51063,1.72865 -25.04915,3.26627 -37.53189,5.18595 -31.42406,4.8326 -62.53676,11.47484 -93.39291,19.093 -51.66049,11.98723 -34.70799,85.0462 16.9525,73.05897 z"/>
<path d="m 422.97595,458.70199 c 1.21993,14.32616 1.127,28.90246 0.004,43.23525 -0.49538,6.3253 -1.36395,12.61582 -2.04593,18.92374 -5.66035,35.67711 -18.27951,69.7816 -34.71131,101.85417 -12.91822,25.21457 -20.97225,36.86209 -36.10463,60.98203 -26.90274,40.3833 -57.92181,77.78212 -90.63075,113.55049 -17.67129,19.32418 -25.57932,27.23119 -43.55334,45.78577 -23.54653,23.66376 -12.30318,12.51713 -33.68549,33.48477 -37.86041,37.13609 14.65794,90.6788 52.51836,53.54271 v 0 c 22.27411,-21.85355 10.57693,-10.25068 35.04621,-34.85426 18.61734,-19.23312 27.28024,-27.91226 45.5836,-47.96753 35.55103,-38.95381 69.18697,-79.74204 98.3131,-123.77894 17.18692,-27.5694 25.95557,-40.24521 40.60399,-69.30288 19.93061,-39.53583 34.80024,-81.61596 41.216,-125.51966 0.79511,-7.86071 1.80123,-15.70293 2.38534,-23.58213 0.46395,-6.25826 0.60857,-12.53738 0.7574,-18.81105 0.30172,-12.71848 0.12669,-25.53491 -1.45413,-38.17232 -7.51643,-52.49765 -81.75932,-41.86781 -74.24289,10.62984 z"/>
<path d="m 502.5467,726.1226 c 15.5234,13.14935 29.92237,27.61012 44.4724,41.82561 22.49359,22.42903 46.08738,43.70613 69.57995,65.07301 12.72958,11.67967 25.39192,23.42851 38.38831,34.81227 7.42786,6.25437 14.92573,12.53376 23.34735,17.43548 2.36304,1.37539 4.81514,2.59171 7.22271,3.88757 20.66392,9.80902 43.11903,14.98836 65.20376,20.51491 17.64858,4.17842 35.33495,8.23313 53.18048,11.4954 7.44821,1.36158 14.93083,2.52763 22.39625,3.79145 52.29481,8.81778 64.76503,-65.13825 12.47022,-73.95603 v 0 c -6.77325,-1.13706 -13.56235,-2.1834 -20.31975,-3.41118 -16.62731,-3.02108 -33.10139,-6.80384 -49.54498,-10.68232 -16.38763,-4.08859 -33.02408,-7.8484 -48.69923,-14.24907 -5.93098,-2.78651 -10.89302,-7.02302 -15.85324,-11.2557 -12.64598,-11.06543 -24.93617,-22.5201 -37.32874,-33.86676 -22.83282,-20.76645 -45.77653,-41.4327 -67.63277,-63.2375 -8.36287,-8.16916 -15.19779,-14.89572 -23.62669,-22.93815 -8.99606,-8.58359 -18.02893,-17.25804 -27.95859,-24.7789 -2.34074,-1.7729 -4.804,-3.37794 -7.206,-5.06692 -45.68393,-26.93471 -83.77537,37.67212 -38.09144,64.60683 z"/>
</svg>
