<?xml version="1.0" ?>
<svg xmlns="http://www.w3.org/2000/svg" viewBox="0 0 1000 1000">
<path d="m 434.56181,131.68031 c 1.1635,0.48168 2.34395,0.92431 3.49051,1.44506 7.23517,3.2861 14.20218,7.39241 21.0868,11.32152 9.65324,5.50919 15.08133,8.78232 24.81406,14.54828 4.77435,2.94566 9.54871,5.89133 14.32307,8.83699 45.14368,27.8307 84.50224,-36.0121 39.35856,-63.8428 v 0 c -5.154,-3.17509 -10.308,-6.350174 -15.46199,-9.52526 -18.97676,-11.236365 -37.85877,-22.939276 -58.12293,-31.743585 -48.76194,-20.851219 -78.25002,48.108575 -29.48808,68.959795 z"/>
<path d="m 160.11106,225.7545 c 0.48502,18.33584 2.63247,36.57214 6.35368,54.53696 3.54596,17.11875 6.62162,27.01899 11.31771,43.81558 7.89501,26.26546 3.96928,13.2764 11.77476,38.96791 15.41678,50.74272 87.17781,28.9401 71.76103,-21.80262 v 0 c -7.61349,-25.05838 -3.83715,-12.57649 -11.32973,-37.44544 -3.82519,-13.54876 -6.73951,-23.01592 -9.68631,-36.68949 -3.24061,-15.03695 -4.98216,-30.29917 -5.31383,-45.67116 -3.03226,-52.94625 -77.90956,-48.65799 -74.87731,4.28826 z"/>
<path d="m 327.58078,280.01145 c 18.23506,-6.77294 36.65692,-13.05883 55.33608,-18.50472 8.53438,-2.48818 17.13463,-4.74459 25.70195,-7.11689 43.25736,-11.30644 87.39345,-19.13522 131.92758,-23.15762 29.21018,-2.63831 39.73163,-2.53028 68.77208,-3.40707 36.25822,-0.27391 72.62835,0.84623 108.57554,5.91171 14.93238,2.10419 20.73739,3.51737 35.04493,6.46729 14.85805,3.5362 29.80836,7.2039 43.98656,12.9817 0.38298,0.1854 1.02142,0.15027 1.14892,0.55621 0.1206,0.38398 -0.77847,-0.24016 -1.11768,-0.45677 -1.93832,-1.23772 -4.06827,-2.26873 -5.69553,-3.89386 -7.23011,-7.22065 -9.20047,-11.25834 -11.10918,-21.56653 -0.47435,-2.56177 0.0749,-5.21009 0.11239,-7.81513 -0.61358,0.89165 -1.26191,1.76035 -1.84073,2.67495 -1.82563,2.88465 -3.51415,5.85541 -5.37093,8.72012 -15.58011,24.03765 -32.88112,46.91139 -50.01218,69.84629 -31.73207,42.49206 28.36078,87.36799 60.09286,44.87593 v 0 c 14.82945,-19.86223 29.69254,-39.68631 43.6533,-60.17639 5.78317,-8.48791 13.9094,-20.58211 18.80595,-29.89942 2.31263,-4.40054 4.14743,-9.03609 6.22114,-13.55413 1.0901,-5.95428 3.4134,-11.81128 3.2703,-17.86283 -0.30922,-13.07711 -4.53289,-21.23258 -13.01374,-30.41013 -2.34744,-2.54027 -5.40078,-4.33582 -8.27102,-6.26589 -2.33763,-1.57193 -6.36143,-3.23439 -9.0086,-4.40378 -18.39873,-7.28919 -37.53717,-12.51516 -56.83403,-16.8314 -17.14161,-3.47711 -23.35867,-4.9961 -41.28045,-7.47026 -39.63468,-5.47171 -79.71468,-6.77562 -119.6816,-6.39167 -31.71661,1.00676 -42.93899,0.89621 -74.89665,3.84841 -48.45553,4.47625 -96.4765,13.058 -143.53866,25.41258 -9.28106,2.5819 -18.59792,5.03839 -27.84318,7.74569 -14.62742,4.28337 -26.7067,8.27401 -40.90989,13.21027 -6.25756,2.17479 -15.99229,5.65238 -22.42514,8.37711 -1.92014,0.81331 -3.76836,1.78694 -5.65254,2.68042 -46.58124,25.3513 -10.72908,91.22711 35.85215,65.87581 z"/>
<path d="m 328.78929,309.84908 c 0.0225,-0.73289 0.62295,-2.67724 0.0674,-2.19867 -1.22638,1.05654 -1.5363,2.85324 -2.40942,4.2163 -1.84704,2.88348 -3.71874,5.75599 -5.74612,8.51565 -3.17313,4.31925 -6.4766,8.54343 -9.84743,12.71022 -15.09925,18.6647 -14.53106,17.35998 -31.86367,35.95734 -13.51361,13.51747 -28.59392,28.89102 -42.6721,41.77015 -7.3672,6.73973 -15.05436,13.12116 -22.58154,19.68175 -39.9318,34.89916 9.42306,91.37125 49.35486,56.47209 v 0 c 8.38432,-7.34558 16.93508,-14.50542 25.15297,-22.03674 15.44941,-14.15869 30.93086,-30.02759 45.71934,-44.86853 17.95534,-19.41811 20.85144,-21.75969 36.50838,-41.47149 10.97247,-13.81414 22.2498,-28.51837 28.79362,-45.10902 1.50387,-3.81277 2.38505,-7.84263 3.57758,-11.76395 8.39697,-52.36402 -65.65695,-64.23913 -74.05391,-11.8751 z"/>
<path d="m 573.57348,344.98892 c 0.98189,0.95161 1.94288,1.92525 2.94565,2.85482 5.4942,5.0931 7.2081,6.34469 12.66176,11.70743 9.55594,9.39661 18.81165,19.13134 28.22609,28.66977 12.27595,12.29565 23.26895,25.73054 33.78557,39.52938 32.22436,42.11995 91.79097,-3.45218 59.56661,-45.57213 v 0 c -12.47686,-16.25766 -25.47488,-32.11781 -39.97341,-46.64223 -14.55066,-14.74224 -28.81459,-29.79983 -44.23872,-43.63944 -37.542,-37.45795 -90.51555,15.63445 -52.97355,53.0924 z"/>
<path d="m 209.03511,673.36042 c 1.12107,-0.49872 2.21586,-1.0613 3.36321,-1.49616 5.23689,-1.98487 11.75282,-3.73867 16.90585,-5.09987 11.26496,-2.97572 24.39982,-6.16241 35.7176,-8.39258 7.36042,-1.45037 14.77657,-2.60198 22.16486,-3.90297 41.95928,-6.64499 84.31847,-10.32889 126.68961,-13.07556 4.07686,-0.22403 8.15373,-0.44806 12.23059,-0.67209 52.95269,-2.91774 48.82638,-77.80415 -4.12631,-74.8864 v 0 c -4.3227,0.23879 -8.6454,0.47758 -12.9681,0.71637 -45.13624,2.94029 -90.25802,6.89971 -134.94256,14.07358 -8.42616,1.5081 -16.88322,2.85274 -25.27848,4.52429 -11.74181,2.33789 -28.48783,6.33982 -40.29317,9.55904 -11.64725,3.17611 -16.21543,4.55073 -26.73422,8.6979 -1.62396,0.64027 -3.18453,1.43093 -4.77679,2.1464 -47.94753,22.66129 -15.89962,90.46934 32.04791,67.80805 z"/>
<path d="m 258.1026,541.63551 c -0.0306,23.46934 -1.90803,46.89413 -3.37777,70.30592 -1.82769,30.40976 -3.36128,60.85407 -3.74734,91.3213 -0.22879,18.05504 -0.053,21.11961 0.24734,38.58346 0.60266,18.87103 1.70612,37.77739 4.64456,56.4447 3.51598,17.45688 10.95087,27.93675 31.86409,34.82617 8.06533,2.65696 17.05607,-1.04395 25.27688,-3.17169 4.15309,-1.07492 19.39108,-11.45967 22.80798,-13.69572 27.01842,-19.02232 55.57614,-35.67236 84.13778,-52.22886 45.8776,-26.60348 8.25459,-91.48422 -37.62301,-64.88073 v 0 c -29.7901,17.28048 -59.57046,34.66864 -87.77687,54.48022 -2.73161,1.81614 -5.52138,3.54769 -8.19482,5.44842 -0.47523,0.33788 -1.80754,1.22302 -1.225,1.24878 6.18228,0.27339 12.92062,-3.03316 18.55872,-0.48224 22.40941,10.139 21.84792,12.45676 26.20777,26.45409 -2.59805,-15.09365 -2.94242,-30.50945 -3.68974,-45.76538 -0.74827,-41.32706 0.63658,-82.64071 3.36431,-123.88346 0.0962,-1.53222 2.34847,-37.31122 2.48692,-39.88414 0.68224,-12.67804 1.34425,-25.4847 0.86719,-38.18895 -0.0861,-2.29303 -0.32659,-4.57766 -0.48988,-6.86649 -7.02483,-52.56569 -81.36394,-42.63109 -74.33911,9.9346 z"/>
<path d="m 473.16121,556.62186 c 2.6382,-0.33134 5.2884,-0.57816 7.9146,-0.99402 12.68559,-2.00877 25.23032,-4.98141 37.87728,-7.21921 17.63133,-3.11977 22.62012,-3.76175 40.68638,-6.50933 27.62204,-3.80057 55.44323,-6.54212 83.34069,-6.96644 13.99914,-0.21294 19.81235,0.17172 33.49956,0.68061 14.74893,0.72143 29.4942,1.9217 44.00269,4.73485 0.30036,0.0828 0.99639,-0.0482 0.90109,0.24843 -0.0959,0.2983 -0.62205,-0.0927 -0.92171,-0.18424 -0.84098,-0.25677 -1.72102,-0.44003 -2.49424,-0.85874 -2.85976,-1.54859 -5.97322,-2.81788 -8.36488,-5.02159 -7.98172,-7.35444 -7.87532,-8.65972 -11.04796,-16.40363 1.05863,20.82883 1.14133,41.69356 1.11027,62.54603 -0.0127,26.94883 -2.48997,53.8386 -7.35244,80.34279 -3.41527,18.61584 -5.24125,24.79783 -9.78849,43.2003 -6.80129,25.93012 -15.53908,51.3194 -26.20277,75.91227 -5.5297,12.75271 -6.95778,15.24779 -12.93329,27.24414 -7.45526,15.11951 -16.53982,27.98615 -28.09176,40.13451 -5.48068,5.46041 -11.21472,10.6495 -16.99947,15.78231 -0.68222,0.61002 -1.34197,1.24614 -2.04666,1.83007 -0.40391,0.3347 0.70388,-0.79486 1.14324,-1.08146 2.02704,-1.32225 3.95973,-2.89025 6.23018,-3.72828 3.44802,-1.27267 7.095,-1.9987 10.73146,-2.5323 1.9224,-0.28209 4.32849,1.33794 5.82805,0.10242 0.98734,-0.81347 -1.93107,-1.67845 -2.89661,-2.51768 -13.85418,-10.3957 -26.15749,-22.67194 -38.692,-34.56701 -38.50487,-36.46746 -90.07764,17.98664 -51.57278,54.4541 v 0 c 16.40077,15.50508 32.52524,31.50918 51.30709,44.20111 5.14004,2.87221 9.9496,6.43879 15.42012,8.61662 5.7396,2.28495 11.77269,4.25535 17.93693,4.66292 13.95215,0.92251 26.45351,-4.02396 36.38936,-13.34138 7.49415,-6.64997 14.90451,-13.39877 21.91523,-20.56329 5.27917,-5.67339 7.20234,-7.55606 12.21507,-13.7524 11.07915,-13.69516 20.39667,-28.67422 28.37007,-44.37102 6.90381,-13.96571 8.72117,-17.20512 15.06044,-31.92943 12.09185,-28.08592 22.00995,-57.06809 29.72168,-86.66017 5.13312,-20.99545 7.20152,-28.04978 11.03196,-49.36643 5.45431,-30.35358 8.23259,-61.13618 8.27533,-91.97693 0.0172,-15.96679 -0.0233,-31.92358 -0.47928,-47.88539 -0.16366,-5.72934 -0.49011,-15.24189 -1.05752,-21.16512 -0.28263,-2.95044 -0.75704,-5.87934 -1.13556,-8.81901 -1.19344,-3.90683 -1.63822,-8.12661 -3.5803,-11.72048 -2.71124,-5.0172 -6.1451,-9.72098 -10.1828,-13.7484 -6.32818,-6.31207 -15.26569,-8.84965 -23.64777,-10.74645 -18.28263,-3.46904 -36.82242,-5.20736 -55.40793,-6.02364 -16.17933,-0.56419 -22.2164,-0.97299 -38.82824,-0.68272 -30.79628,0.53811 -61.50894,3.54439 -91.99963,7.77532 -26.47106,4.03788 -52.9618,8.22038 -79.11821,13.97061 -52.96002,2.78142 -49.02649,77.6782 3.93353,74.89678 z"/>
<path d="m 533.93606,538.42828 c -6.36413,21.3905 -13.37428,42.65668 -21.36181,63.50415 -3.10174,8.09556 -6.42397,16.1049 -9.63596,24.15735 -15.85401,39.00067 -34.80669,76.65149 -56.66424,112.62993 -5.82461,9.58754 -11.72772,19.13779 -18.05247,28.40302 -6.01209,8.80722 -12.62476,17.18909 -18.93714,25.78363 -31.28501,42.82229 29.27485,87.06597 60.55986,44.24369 v 0 c 7.23704,-9.95163 14.79698,-19.67626 21.71112,-29.85488 6.87316,-10.11828 13.29732,-20.53889 19.62939,-31.00429 23.67879,-39.13536 44.21387,-80.081 61.43371,-122.45825 3.47653,-8.74673 7.07344,-17.44656 10.42958,-26.24019 6.54682,-17.15368 8.82304,-24.31637 14.33692,-40.97924 3.08655,-9.32749 6.26228,-18.54266 8.77737,-28.04111 0.71449,-2.69831 1.20837,-5.45026 1.81256,-8.17539 8.46295,-52.3534 -65.57594,-64.32182 -74.03889,-11.96842 z"/>
</svg>
