<?xml version="1.0" ?>
<svg xmlns="http://www.w3.org/2000/svg" width="1000" height="1000">
<path d="m 437.28549,107.28395 c 11.4579,8.29192 22.46566,17.1625 33.04202,26.54673 7.6394,7.73701 4.02593,3.85392 10.87261,11.6192 35.38906,39.49828 91.24807,-10.54941 55.85901,-50.04769 v 0 c -10.81703,-11.94984 -5.12655,-5.99767 -17.11553,-17.81424 -13.17216,-11.56875 -26.76728,-22.665318 -41.12011,-32.750737 -44.15651,-29.371801 -85.69451,33.074937 -41.538,62.446737 z"/>
<path d="m 290.95681,255.55239 c 26.04482,-8.63019 53.13082,-13.77511 80.0092,-19.03089 53.05088,-9.40194 106.67946,-15.57901 160.454,-18.87441 9.97628,-0.61136 19.96692,-0.95997 29.95039,-1.43996 32.23125,-1.33899 64.50356,-0.52562 96.60396,2.57208 52.79437,5.02538 59.90134,-69.63714 7.10697,-74.66252 v 0 c -35.67537,-3.35627 -71.52608,-4.37377 -107.34227,-2.8216 -10.61094,0.51832 -21.22949,0.89928 -31.83283,1.55496 -56.76933,3.51045 -113.38091,10.08142 -169.37645,20.07393 -8.94591,1.75981 -17.91499,3.4057 -26.83773,5.27941 -12.5843,2.64261 -27.28761,6.14379 -39.87195,9.46687 -9.01328,2.38009 -14.94416,4.06153 -23.40937,7.00922 -1.66821,0.58089 -3.29466,1.27541 -4.942,1.91312 -48.76194,20.85122 -19.27386,89.81101 29.48808,68.95979 z"/>
<path d="m 368.56989,230.13867 c 0.24895,18.084 1.72274,36.22201 5.28442,53.97639 1.03551,5.16185 2.39149,10.25421 3.58723,15.38131 3.52891,13.82787 9.0207,26.97247 14.60829,40.05314 20.96638,48.71254 89.85631,19.0616 68.88993,-29.65093 v 0 c -3.95513,-9.09641 -7.90739,-18.21516 -10.54569,-27.80706 -0.86859,-3.52557 -1.85796,-7.02357 -2.60578,-10.57672 -2.86068,-13.59208 -3.978,-27.51031 -4.2184,-41.37613 0,-53.03301 -75,-53.03301 -75,0 z"/>
<path d="m 536.15646,220.94181 c 0.54224,10.65526 0.69511,21.54178 -1.13525,32.09689 -0.69011,3.97965 -1.84399,7.86482 -2.76598,11.79723 -1.56877,4.66784 -2.8964,9.42378 -4.70631,14.00351 -7.00851,17.7341 -16.61372,34.79457 -27.86953,50.16872 -4.32297,5.90468 -9.17946,11.39958 -13.76919,17.09938 -32.95422,41.5514 25.80834,88.15571 58.76256,46.60431 v 0 c 5.95057,-7.59028 12.24615,-14.92231 17.85169,-22.77084 14.92655,-20.8992 27.47616,-44.03016 36.41787,-68.12368 2.58717,-6.97115 4.43565,-14.1946 6.65348,-21.29191 1.35447,-6.70891 3.02777,-13.36126 4.0634,-20.12672 0.82409,-5.38349 1.1684,-10.83325 1.50793,-16.26886 0.75279,-12.05166 0.47574,-24.28495 -1.15698,-36.25064 -9.23666,-52.22245 -83.09035,-39.15984 -73.85369,13.06261 z"/>
<path d="m 163.38953,462.76355 c 19.5262,-2.87948 39.04635,-5.79419 58.58588,-8.58476 48.32581,-6.74256 96.71103,-13.12987 145.22419,-18.38441 12.63069,-1.36806 25.27595,-2.59808 37.91393,-3.89712 66.58438,-6.29185 133.3466,-11.05677 200.20711,-13.06175 12.25475,-0.36749 24.51474,-0.53226 36.77211,-0.79839 44.35612,-0.21166 88.89318,-0.37845 133.06891,4.25754 4.78605,0.50227 9.55071,1.19079 14.32607,1.78619 12.80142,2.19595 6.97428,1.02154 17.51251,3.36526 51.83219,11.2216 67.70193,-62.08018 15.86974,-73.30178 v 0 c -15.06207,-3.20104 -6.99884,-1.65471 -24.21571,-4.5012 -5.62428,-0.68525 -11.23687,-1.47448 -16.87284,-2.05576 -46.92529,-4.83975 -94.21207,-4.8291 -141.32654,-4.53236 -12.65896,0.27813 -25.32065,0.45191 -37.97689,0.83439 -68.47377,2.06931 -136.84742,6.94373 -205.03785,13.40143 -12.91756,1.32939 -25.84255,2.58859 -38.7527,3.98816 -49.21187,5.33496 -98.29479,11.8114 -147.31687,18.65333 -18.76053,2.67992 -37.51454,5.40691 -56.24504,8.28792 -52.71009,5.84352 -44.44609,80.38684 8.26399,74.54331 z"/>
<path d="m 287.88333,517.33839 c 7.61954,21.62242 13.08175,43.8738 18.15824,66.20204 8.13361,36.69519 11.05628,74.20672 13.31309,111.63479 1.05341,17.75447 1.32327,35.56448 2.96625,53.28078 4.99943,52.79684 79.66543,45.72657 74.66599,-7.07026 v 0 c -1.64884,-16.86002 -1.60569,-33.8474 -2.76912,-50.73969 -2.51964,-41.51665 -5.9554,-83.10123 -15.05455,-123.78562 -5.44037,-23.77849 -11.16518,-47.53188 -19.29252,-70.56527 -14.87982,-50.90277 -86.86719,-29.85954 -71.98738,21.04323 z"/>
<path d="m 381.25351,567.04418 c 15.36239,-6.38343 30.95794,-12.18236 46.86549,-17.06738 5.69448,-1.74871 11.43967,-3.32782 17.15951,-4.99173 24.66325,-6.62781 49.76212,-11.69608 75.0974,-14.94179 14.66022,-1.87812 19.29581,-2.0717 33.74538,-3.20655 19.18346,-1.3096 38.42976,-1.39619 57.59253,0.17696 3.89667,0.37584 3.61824,0.3346 7.12959,0.72001 0.76188,0.0836 1.5248,0.15918 2.28471,0.25906 0.0868,0.0114 0.33857,0.0869 0.25193,0.0743 -0.59538,-0.0865 -1.19651,-0.15137 -1.78038,-0.29648 -1.14778,-0.28527 -2.27094,-0.66175 -3.40641,-0.99263 -8.35319,-4.41875 -10.51789,-4.48896 -16.66007,-13.08943 -1.98675,-2.78191 -3.03679,-6.12955 -4.381,-9.27269 -0.35985,-0.84143 0.12386,-3.00902 -0.71789,-2.64992 -0.89995,0.38393 0.0348,1.95655 0.05,2.93486 0.0337,2.16957 0.0644,4.33919 0.0966,6.50878 0.46464,27.16903 -0.77397,54.31655 -2.47442,81.42293 -2.10866,28.8219 -5.56923,57.54314 -10.76236,85.97158 -1.3351,5.54406 -2.1758,10.40801 -4.49268,15.58444 -1.12216,2.50713 -2.68798,4.11516 -4.40445,6.15653 -29.88559,43.8104 32.07168,86.07501 61.95727,42.26461 v 0 c 2.45613,-3.80485 5.18945,-7.44445 7.36838,-11.41456 6.72531,-12.2538 10.70717,-25.53768 13.36536,-39.19466 5.65574,-31.3223 9.57138,-62.93854 11.8226,-94.69233 1.80843,-29.06925 3.1176,-58.18225 2.61039,-87.31743 -0.12168,-7.00069 0.2123,-17.72775 -1.8073,-24.35183 -3.2648,-10.70825 -6.23064,-16.09982 -15.01611,-23.39289 -2.88464,-2.39463 -6.52876,-3.68741 -9.79315,-5.53112 -1.82279,-0.5934 -3.62019,-1.27135 -5.46836,-1.78021 -6.42784,-1.7698 -13.17827,-1.88894 -19.75472,-2.67915 -23.151,-1.835 -46.39687,-1.83365 -69.56808,-0.18172 -16.58625,1.33852 -21.83594,1.56546 -38.66731,3.76288 -28.76184,3.75501 -57.25417,9.55091 -85.24187,17.15557 -6.47364,1.89702 -12.97654,3.6969 -19.42092,5.69105 -17.66648,5.46673 -35.00405,11.90369 -52.08117,18.98757 -49.05436,20.15364 -20.55281,89.52699 28.50155,69.37335 z"/>
<path d="m 378.64637,665.69248 c 19.17659,-3.28927 38.2928,-6.903 57.403,-10.55781 29.6659,-5.69999 59.3814,-11.38987 89.41714,-14.80247 5.4292,-0.61685 10.87643,-1.06309 16.31464,-1.59463 14.62379,-1.36927 29.28123,-1.61976 43.92708,-0.68016 52.94108,3.1211 57.35499,-71.7489 4.4139,-74.87 v 0 c -3.48556,-0.19314 -6.96746,-0.47111 -10.45669,-0.5794 -15.10292,-0.46875 -30.20568,0.24877 -45.25688,1.4928 -6.1826,0.61636 -12.37514,1.14006 -18.54781,1.84907 -31.53493,3.6222 -62.75018,9.51799 -93.90006,15.51995 -18.87659,3.6103 -37.75842,7.18298 -56.70158,10.42711 -52.18133,9.46623 -38.79406,83.26177 13.38726,73.79554 z"/>
<path d="m 381.90074,763.95551 c 9.10404,-3.32544 18.32024,-6.35522 27.79382,-8.45766 9.60206,-2.13095 14.35018,-2.67194 24.32479,-4.19756 32.36845,-4.13428 65.01695,-5.51814 97.6165,-6.1996 19.74186,-0.34722 39.48935,0.17111 59.17724,1.64259 52.88993,3.89291 58.39534,-70.90475 5.50541,-74.79767 v 0 c -22.05257,-1.60244 -44.16463,-2.24953 -66.27611,-1.82799 -35.92645,0.77502 -71.90863,2.33948 -107.5607,7.07543 -5.4487,0.86029 -10.91737,1.60239 -16.34609,2.58087 -16.60503,2.9929 -32.91494,7.37558 -48.71927,13.29073 -50.1274,17.31309 -25.64299,88.20395 24.48441,70.89086 z"/>
<path d="m 205.64487,914.07431 c 1.26357,-0.44812 2.51263,-0.93943 3.79069,-1.34436 4.5565,-1.44365 15.25428,-4.37127 18.6163,-5.30352 10.58111,-2.93401 25.8476,-7.18659 36.19499,-9.752 7.78485,-1.93009 15.61801,-3.65985 23.42701,-5.48977 53.27889,-11.58738 107.50319,-18.54272 161.87415,-22.31914 11.94216,-0.82946 23.90448,-1.33722 35.85672,-2.00583 64.60332,-2.72359 129.2708,-0.54981 193.85462,1.60285 34.62079,0.98286 69.20594,3.16687 103.83562,3.83203 2.70238,-0.0489 5.40476,-0.0979 8.10714,-0.1468 53.0203,-1.16093 51.37848,-76.14296 -1.64182,-74.98202 v 0 c -1.69053,0.0472 -3.38106,0.0945 -5.0716,0.14177 -34.26191,-0.61217 -68.47794,-2.89185 -102.73186,-3.80338 -66.82141,-2.2255 -133.73037,-4.42807 -200.56942,-1.52578 -12.62398,0.71553 -25.25879,1.26041 -37.87194,2.14658 -58.04814,4.07832 -115.92819,11.59863 -172.79598,24.04789 -8.47416,1.99586 -16.9732,3.8889 -25.42249,5.98758 -10.34215,2.56883 -26.56599,7.06859 -37.24699,10.03802 -8.53214,2.37202 -15.4699,4.23049 -23.75788,6.9432 -1.9601,0.64155 -3.87868,1.40364 -5.81803,2.10546 -49.3753,19.35406 -22.00453,89.18128 27.37077,69.82722 z"/>
<path d="m 461.08044,765.65489 c 0.38624,29.69611 1.44675,59.37717 2.10484,89.06763 0.74108,30.78499 0.80966,61.5702 0.39355,92.35869 -0.70653,53.02839 74.28681,54.02759 74.99335,0.99919 v 0 c 0.41628,-31.67663 0.3622,-63.35003 -0.40538,-95.02293 -0.64815,-29.1356 -1.67038,-58.26207 -2.08636,-87.40258 0,-53.03301 -75,-53.03301 -75,0 z"/>
</svg>
