<?xml version="1.0" ?>
<svg xmlns="http://www.w3.org/2000/svg" width="1000" height="1000">
<path d="m 261.42738,115.55742 c -0.23969,-0.0371 -0.92474,-0.23974 -0.71906,-0.1112 0.74163,0.46348 1.57845,0.75361 2.36354,1.13891 1.85464,0.91019 3.7092,1.82066 5.55558,2.74751 2.61735,1.31385 5.24405,2.61012 7.83542,3.97449 7.29805,3.84246 7.75021,4.23585 14.66453,8.36978 2.0009,1.29662 4.0018,2.59323 6.0027,3.88985 44.60305,28.68916 85.17564,-34.38909 40.57259,-63.078242 v 0 c -2.76599,-1.769493 -5.53197,-3.538986 -8.29796,-5.308479 -9.10214,-5.372227 -18.25768,-10.456681 -27.72062,-15.169442 -4.06941,-2.026664 -9.61336,-4.78189 -13.93789,-6.52117 -1.89085,-0.760477 -3.83814,-1.372278 -5.75721,-2.058418 -51.00107,-14.539261 -71.56269,57.587151 -20.56162,72.126411 z"/>
<path d="m 157.86013,261.26384 c 6.97675,-4.08376 14.85953,-6.87281 22.51323,-9.34468 14.20627,-4.58809 20.14723,-5.8208 35.17354,-9.64613 23.27233,-5.74734 46.92745,-9.7185 70.64549,-13.08243 15.65236,-2.21997 29.53849,-3.96348 45.24304,-5.253 6.45372,-0.52993 12.92574,-0.80656 19.38861,-1.20984 13.00962,-0.30327 16.8921,-0.70639 29.14237,0.0438 3.08115,0.1887 6.14371,0.60923 9.21556,0.91384 52.81304,4.82526 59.63699,-69.86365 6.82395,-74.68891 v 0 c -4.61352,-0.39757 -9.2165,-0.94654 -13.84057,-1.19269 -15.28675,-0.81374 -20.32062,-0.34206 -36.10917,0.0756 -7.37584,0.47825 -14.762,0.81769 -22.12753,1.43475 -16.76129,1.40422 -32.40442,3.35349 -49.07169,5.73795 -26.17078,3.74405 -52.26197,8.20162 -77.93761,14.57091 -28.85572,7.4441 -59.05895,14.46984 -83.99471,31.59243 -42.460582,31.7742 2.47491,91.82252 44.93549,60.04833 z"/>
<path d="m 176.36587,292.03009 c 1.09894,15.62162 2.63039,31.19495 5.64251,46.58069 0.94193,4.81128 2.10801,9.57595 3.16201,14.36393 3.21401,13.09414 7.26455,25.96883 12.5757,38.36943 1.38206,3.22686 2.97134,6.36097 4.45701,9.54145 22.7458,47.9075 90.49724,15.74007 67.75143,-32.16743 v 0 c -5.00984,-10.26248 -9.00074,-20.91535 -11.58324,-32.07218 -2.11704,-9.32931 -2.93029,-12.13218 -4.37012,-21.5086 -1.69389,-11.031 -2.12034,-22.18039 -3.32607,-33.26299 -7.18117,-52.54456 -81.4904,-42.38886 -74.30923,10.1557 z"/>
<path d="m 300.98201,236.67024 c 0.0536,16.95517 -1.45185,33.92602 -4.22892,50.65057 -0.96384,5.80454 -2.21412,11.55787 -3.32118,17.33681 -4.49286,18.51714 -8.22,37.35709 -14.52517,55.38678 -1.89621,5.42224 -4.32239,10.64433 -6.48359,15.96649 -19.54103,49.30161 50.18197,76.93679 69.723,27.63519 v 0 c 2.879,-7.39416 6.05321,-14.68005 8.637,-22.18246 7.05836,-20.495 11.36159,-41.85382 16.34807,-62.89876 1.31154,-7.03805 2.79198,-14.04671 3.93462,-21.11415 3.41212,-21.1046 5.16795,-42.53018 4.85086,-63.90973 -2.21271,-52.98682 -77.1474,-49.85757 -74.93469,3.12926 z"/>
<path d="m 108.05692,488.93631 c 19.72232,-6.34642 39.22374,-13.35573 59.01285,-19.50133 7.49729,-2.32832 15.03834,-4.51331 22.55751,-6.76997 45.41999,-12.85372 91.82151,-22.11273 138.66006,-27.934 8.96582,-1.1143 17.96404,-1.95026 26.94607,-2.92539 21.0729,-1.96912 42.23169,-3.12084 63.40044,-3.02712 10.15211,0.0449 14.69124,0.37933 24.34033,0.88204 52.96501,2.68472 56.76178,-72.21912 3.79677,-74.90384 v 0 c -11.74612,-0.58159 -16.66467,-0.94445 -29.05491,-0.97259 -23.5819,-0.0535 -47.15138,1.24198 -70.62419,3.46472 -9.72905,1.06811 -19.47577,1.98604 -29.18716,3.20432 -50.62737,6.35111 -100.77706,16.42807 -149.86051,30.3845 -8.0088,2.40928 -16.04022,4.74465 -24.02642,7.22783 -19.36673,6.02178 -38.47219,12.82714 -57.753429,19.10675 -50.744867,15.40969 -28.952277,87.17376 21.792589,71.76408 z"/>
<path d="m 113.58712,539.49658 c 2.73327,27.06949 7.87191,53.81981 12.62406,80.58683 4.81032,27.38757 9.91777,54.78891 18.5971,81.24952 16.73619,50.32296 87.9036,26.65442 71.16741,-23.66854 v 0 c -7.79104,-22.92007 -11.42761,-46.9803 -15.91938,-70.69192 -4.42119,-24.90037 -9.25358,-49.77887 -11.84305,-74.95516 -5.28865,-52.76865 -79.91479,-45.28937 -74.62614,7.47927 z"/>
<path d="m 193.23018,570.54573 c 17.70283,-8.38356 36.22101,-14.83765 54.7618,-21.07191 20.17391,-6.44141 40.56558,-12.38024 61.36578,-16.45914 10.38671,-2.03682 12.84451,-2.19263 22.9448,-3.48327 6.92836,-0.70283 13.89654,-1.22903 20.86604,-1.02329 1.08074,0.0319 2.16033,0.1106 3.23652,0.2147 1.6163,0.15634 1.31927,-0.17523 1.74325,0.38831 -6.09115,-0.97502 -11.91345,-4.99312 -15.83656,-9.58002 -2.34956,-2.74711 -4.03212,-6.01533 -5.73544,-9.20371 -0.69149,-1.29436 -0.93971,-2.78048 -1.40956,-4.17072 -0.11825,-0.005 -0.33804,-0.13208 -0.35475,-0.0149 -0.24376,1.70859 -0.20921,3.44628 -0.3798,5.16372 -0.29672,2.98711 -0.63159,5.97094 -1.02188,8.94728 -1.9749,15.06087 -4.78773,29.9351 -7.67364,44.84228 -4.74542,22.6922 -9.42894,45.39316 -13.83414,68.15405 -10.0738,52.06745 63.56068,66.31395 73.63448,14.24651 v 0 c 4.40457,-22.77362 9.11021,-45.48245 13.84113,-68.19026 3.25888,-16.9382 6.48052,-33.85184 8.59653,-50.98058 0.85589,-6.92835 1.84368,-16.32129 1.82612,-23.47885 -0.008,-3.42412 -0.35451,-6.83907 -0.53176,-10.25861 -2.39751,-10.44713 -2.15522,-13.72874 -9.4768,-23.23289 -6.85353,-8.89657 -17.01392,-13.44782 -27.56019,-15.90908 -1.9264,-0.33095 -3.84219,-0.73114 -5.77921,-0.99285 -14.56154,-1.96741 -29.35875,-0.69082 -43.89893,0.71519 -13.04324,1.74308 -15.91345,1.92569 -29.19962,4.57429 -23.48922,4.68257 -46.54176,11.34435 -69.32794,18.66391 -21.33209,7.21202 -42.62297,14.70425 -62.98223,24.39724 -47.90126,22.75894 -15.71526,90.50155 32.186,67.74261 z"/>
<path d="m 189.62134,695.2069 c 18.58123,-0.11916 37.0053,-3.19791 55.34607,-5.87318 28.52974,-4.2458 57.1092,-8.27433 85.94218,-9.61285 2.60388,-0.0329 5.20776,-0.0658 7.81164,-0.0988 53.02683,-0.80947 51.88207,-75.80073 -1.14476,-74.99127 v 0 c -3.42979,0.0592 -6.85958,0.11837 -10.28936,0.17756 -4.19089,0.2092 -8.38588,0.34803 -12.57265,0.62759 -27.01455,1.80384 -53.80284,5.88257 -80.58719,9.68526 -14.7497,2.15769 -29.57194,4.77186 -44.50593,5.08565 -53.03301,0 -53.03301,75 0,75 z"/>
<path d="m 316.16507,615.95468 c -3.14862,2.40295 -6.51197,4.54798 -9.44587,7.20884 -2.94613,2.67195 -5.54617,5.7097 -8.13117,8.73241 -6.27149,7.33343 -13.26982,17.17141 -18.96371,24.72409 -12.89992,17.11115 -13.33317,17.47592 -27.42144,35.45194 -30.99784,39.12576 -62.80367,77.75766 -97.18815,113.98318 -6.12258,6.45039 -12.44276,12.7103 -18.66413,19.06545 -5.46689,5.35488 -10.93377,10.70976 -16.40065,16.06463 -37.872445,37.12383 14.62857,90.68355 52.50101,53.55972 v 0 c 5.84181,-5.73027 11.68362,-11.46055 17.52543,-17.19083 6.72633,-6.88697 13.55772,-13.67287 20.17898,-20.66091 35.73253,-37.71186 68.85353,-77.85773 101.08537,-118.56618 5.27523,-6.73508 10.59318,-13.43692 15.82569,-20.20524 18.41131,-23.81522 6.65305,-8.89015 21.80448,-28.94789 1.91115,-2.53002 3.9112,-4.99191 5.83056,-7.5157 0.53283,-0.70063 2.39338,-2.01337 1.52479,-2.15595 -1.26084,-0.20696 -2.23601,1.23712 -3.35402,1.85568 46.24707,-25.95588 9.53991,-91.35912 -36.70717,-65.40324 z"/>
<path d="m 225.29483,738.50994 c -0.32006,18.94035 0.6653,37.88073 1.24262,56.80914 0.65915,25.87041 1.00864,51.74641 2.28216,77.59641 0.46664,9.20201 1.1355,18.39237 1.61343,27.59366 0.15327,4.46726 0.37573,8.95104 1.76269,13.2593 0.90567,2.81328 2.25912,5.4622 3.38868,8.1933 1.99505,2.73562 3.58811,5.81564 5.98516,8.20688 7.1674,7.15001 15.75547,11.20331 25.70985,12.31711 1.95837,0.21912 3.94352,0.42238 5.90652,0.24948 4.10036,-0.36116 8.14006,-1.23013 12.21009,-1.84519 5.08852,-2.31551 10.44001,-4.12364 15.26556,-6.94654 10.17019,-5.94947 25.38609,-19.25017 33.43009,-26.63041 27.3944,-25.13393 52.27257,-52.72565 77.36512,-80.10065 35.82525,-39.10309 -19.47487,-89.76764 -55.30012,-50.66456 v 0 c -19.28644,21.06182 -31.42399,34.75595 -51.29126,54.81881 -6.53119,6.59549 -13.21689,13.03971 -20.00703,19.36828 -4.53004,4.22211 -9.24795,8.23901 -13.94436,12.27524 -2.09668,1.80195 -4.87293,2.95325 -6.43167,5.23654 -0.56119,0.82204 1.987,-0.12078 2.9805,-0.18116 3.33663,-0.18163 5.34925,-0.6079 8.31932,-0.0963 8.09767,1.39483 14.80855,5.05239 20.60541,11.01357 2.09714,2.15658 3.47028,4.91453 5.20542,7.3718 0.93325,2.36719 2.053,4.66909 2.79976,7.10156 1.20713,3.93205 0.81824,4.45225 1.11176,7.77982 0.0387,0.43925 -0.0212,-0.88168 -0.0354,-1.32241 -0.044,-1.36677 -0.0734,-1.89636 -0.13801,-3.31238 -0.47848,-9.13588 -1.12692,-18.26191 -1.60348,-27.39796 -1.26564,-25.37445 -1.54747,-50.77748 -2.22512,-76.17162 -0.50698,-16.60837 -1.21871,-33.21739 -1.35443,-49.83296 3.31545,-52.92927 -71.53784,-57.61803 -74.8533,-4.68876 z"/>
<path d="m 607.94663,98.302772 c 1.41409,0.981791 2.81139,1.988208 4.24226,2.945378 3.44788,2.30643 4.84035,2.95773 8.08612,5.42371 5.16232,3.92208 9.88455,8.509 14.70306,12.8289 1.88318,1.71589 3.76636,3.43179 5.64955,5.14768 39.20671,35.71182 89.71084,-19.73485 50.50413,-55.446663 v 0 c -2.03688,-1.854733 -4.07376,-3.709465 -6.11065,-5.564198 -9.90349,-8.865455 -19.77289,-17.902879 -31.21733,-24.784956 -0.0669,-0.04023 0.0827,0.132449 0.12397,0.198673 -41.89712,-32.5135558 -87.87823,26.73792 -45.98111,59.251476 z"/>
<path d="m 517.65261,231.73437 c 19.38963,-5.11903 38.43116,-11.44458 57.86515,-16.42449 7.482,-1.91725 15.01169,-3.64332 22.51753,-5.46499 43.71577,-9.50992 88.04792,-17.07425 132.78247,-19.48422 7.03081,-0.37876 14.07603,-0.4103 21.11405,-0.61545 14.74008,0.26978 18.3019,0.0809 32.25222,1.20783 7.08121,0.57202 14.23511,1.3099 21.11405,3.14677 51.6537,12.01647 68.64755,-61.03289 16.99385,-73.04936 v 0 c -2.86274,-0.63038 -5.70396,-1.36806 -8.58824,-1.89115 -21.113,-3.82906 -42.70699,-4.24342 -64.09488,-4.3781 -8.17385,0.26623 -16.35622,0.34016 -24.52154,0.79871 -48.77815,2.73928 -97.12848,10.9227 -144.78671,21.39194 -8.1805,1.99584 -16.38652,3.8898 -24.54149,5.98752 -18.55745,4.77358 -36.78949,10.65299 -55.24809,15.76016 -51.62928,12.12096 -34.48765,85.13579 17.14163,73.01483 z"/>
<path d="m 552.5713,267.41041 c 4.45219,21.54068 9.529,42.94864 15.05784,64.23678 5.66832,19.67296 2.82307,10.15244 8.50364,28.57113 15.65214,50.67061 87.3112,28.53513 71.65905,-22.13548 v 0 c -5.09648,-16.47001 -2.56259,-8.02837 -7.5819,-25.33086 -5.11997,-19.61491 -9.75979,-39.35368 -13.92882,-59.19307 -9.79449,-52.12071 -83.5043,-38.26921 -73.70981,13.8515 z"/>
<path d="m 717.16908,205.43766 c 0.0194,20.12282 -2.42782,40.1377 -6.51657,59.82323 -1.44292,6.94705 -3.16242,13.83377 -4.74363,20.75066 -6.98847,32.00793 -20.32006,61.98279 -33.07248,91.98169 -20.73073,48.81329 48.30168,78.13096 69.03241,29.31768 v 0 c 14.47792,-34.1206 29.26827,-68.32525 37.18355,-104.71528 1.80477,-8.01687 3.78612,-15.99602 5.41432,-24.0506 4.86544,-24.06896 7.7115,-48.53587 7.7024,-73.10738 0,-53.03301 -75,-53.03301 -75,0 z"/>
<path d="m 504.82406,468.07016 c 19.42205,-7.86318 40.44164,-10.83129 60.99534,-14.13602 56.26228,-7.77352 112.99446,-11.36877 169.68222,-14.2775 37.58458,-1.24716 75.26923,-3.04494 112.87398,-1.32999 4.39605,0.20048 8.78348,0.5589 13.17523,0.83834 8.7877,0.64574 17.51418,1.85173 26.23111,3.09822 52.50616,7.45676 63.0516,-66.79817 10.54544,-74.25492 v 0 c -10.67374,-1.50715 -21.36115,-2.9481 -32.12187,-3.69872 -5.1875,-0.31621 -10.37042,-0.71958 -15.56249,-0.94863 -39.64578,-1.74905 -79.36872,0.0227 -118.9921,1.39462 -59.42708,3.0609 -118.9026,6.86148 -177.86669,15.15051 -27.38761,4.4947 -55.28344,8.90851 -80.83657,20.27524 -48.00466,22.54002 -16.12827,90.42886 31.8764,67.88885 z"/>
<path d="m 508.81942,527.88339 c 0.61372,18.24604 2.21206,36.44901 5.14475,54.47532 0.93678,5.75815 2.10351,11.47653 3.15526,17.21479 5.51064,26.73966 12.97366,53.05182 21.93421,78.83121 17.46517,50.07462 88.28138,25.37513 70.81621,-24.69949 v 0 c -7.76192,-22.16027 -14.13605,-44.81365 -19.00395,-67.78673 -0.8854,-4.72371 -1.86609,-9.43055 -2.6562,-14.17113 -2.62539,-15.7521 -3.97516,-31.66446 -4.48427,-47.61765 -2.65425,-52.96654 -77.56026,-49.21286 -74.90601,3.75368 z"/>
<path d="m 571.66117,563.41475 c 14.6574,-7.94553 30.52852,-12.04644 46.5886,-16.11592 30.64393,-6.79565 61.96353,-10.73065 93.33169,-11.90885 5.67082,-0.21299 11.34786,-0.20117 17.0218,-0.30176 11.71172,0.0451 23.45026,0.46002 35.05303,2.15619 4.33017,0.63301 8.54873,1.46289 12.64255,2.9952 -1.87697,-0.20407 -2.2687,-0.14095 -4.52566,-1.89395 -7.31974,-5.68527 -8.38775,-7.28283 -12.22439,-15.8327 -0.67305,-1.4999 0.23467,-4.19036 -1.30932,-4.75498 -1.26541,-0.46274 -0.63268,2.61942 -0.94902,3.92913 -0.76468,3.35245 -1.47252,6.71838 -2.29405,10.05735 -4.17032,16.94957 -9.08847,33.71227 -13.70292,50.54306 -3.4378,12.5391 -6.82648,25.09161 -10.24962,37.63472 -1.51505,5.36678 -3.0301,10.73356 -4.54514,16.10034 -14.40391,51.03947 57.7768,71.40966 72.18071,20.37019 v 0 c 1.57279,-5.57484 3.14559,-11.14967 4.71839,-16.72451 5.14021,-18.835 10.2766,-37.67003 15.46515,-56.49175 3.10335,-11.25755 6.65446,-23.82666 9.36418,-35.23769 1.1429,-4.81291 2.09177,-9.66985 3.13765,-14.50478 1.42371,-10.56016 3.44491,-18.75313 0.82991,-29.56435 -3.5762,-14.78507 -12.06669,-24.8696 -25.24883,-31.76754 -2.50723,-1.31198 -5.2132,-2.20283 -7.8198,-3.30424 -2.53195,-0.77089 -5.03665,-1.63775 -7.59586,-2.31268 -20.95018,-5.52511 -42.84341,-6.15238 -64.37442,-6.38304 -6.61851,0.1367 -13.24097,0.14391 -19.85555,0.41008 -36.22296,1.45761 -72.37483,6.09963 -107.7231,14.14819 -5.9247,1.54021 -11.88806,2.93871 -17.77409,4.62064 -14.13126,4.03799 -28.03915,9.09412 -41.11924,15.82989 -48.29805,21.90429 -17.3207,90.20805 30.97735,68.30376 z"/>
<path d="m 601.99854,688.32059 c 24.04556,-3.94229 48.22991,-7.01734 72.38136,-10.2346 27.25881,-3.67718 54.59326,-6.72564 81.9736,-9.32902 52.79442,-5.02483 45.68824,-79.68742 -7.10618,-74.66259 v 0 c -28.31431,2.69745 -56.58228,5.84528 -84.77139,9.6484 -25.74883,3.43044 -51.54383,6.66812 -77.15475,11.028 -52.00757,10.37846 -37.33021,83.92827 14.67736,73.54981 z"/>
<path d="m 595.83935,663.20356 c -0.03,-0.12023 -0.0224,-0.46455 -0.09,-0.36071 -0.54836,0.84194 -0.96191,1.76488 -1.4102,2.6641 -1.49261,2.99396 -2.86042,6.05057 -4.41198,9.01442 -2.26435,4.32547 -4.5834,8.62463 -7.03286,12.84804 -8.12404,14.00765 -14.34318,23.28427 -23.31721,37.25481 -15.94383,24.29867 -32.87852,47.91591 -50.2559,71.20334 -8.45863,11.33541 -23.62308,31.43301 -32.85201,42.64184 -4.88362,5.93131 -10.0551,11.61962 -15.08265,17.42943 -34.63606,40.16023 22.15908,89.14301 56.79514,48.98278 v 0 c 5.74677,-6.68293 11.64368,-13.23963 17.24031,-20.04879 9.56339,-11.63533 25.46247,-32.68963 34.28079,-44.51859 18.3315,-24.58997 36.19175,-49.53125 53.00133,-75.19334 12.15552,-18.97122 24.35202,-37.80376 34.69428,-57.84842 3.28868,-6.37389 7.55092,-15.43411 10.02008,-22.32675 0.81731,-2.28151 1.30541,-4.66788 1.95812,-7.00183 10.42299,-51.99866 -63.11423,-66.73899 -73.53722,-14.74033 z"/>
<path d="m 645.11223,699.00087 c -0.16914,-0.54671 -0.32057,-2.18107 -0.50744,-1.64015 -0.28651,0.82936 0.11896,1.75092 0.1665,2.62708 0.11041,2.03486 0.23745,4.06917 0.30733,6.10583 0.10448,3.04523 0.16347,6.09194 0.2157,9.13851 0.20163,11.7595 0.14756,13.6335 0.15219,25.87774 0.11078,24.33224 -0.73694,48.73296 1.10888,73.02577 0.33244,4.37524 0.86741,8.73272 1.30111,13.09909 2.79682,20.11259 8.12763,40.90493 21.80977,56.6182 3.15888,3.62783 6.92324,6.68037 10.38486,10.02055 13.87722,10.70222 30.08177,17.22057 46.87889,21.7557 9.504,2.56602 15.27523,3.50121 24.87797,5.3531 22.20931,3.88804 44.66893,6.09123 67.13411,7.8369 12.65945,0.52272 25.3845,1.9912 38.07374,1.37209 2.34749,-0.11454 4.68552,-0.37573 7.02828,-0.56359 11.95308,-2.70859 17.03949,-2.69529 27.75567,-13.20624 9.58266,-9.39914 13.43895,-21.58836 16.25374,-34.11523 2.51653,-11.19949 5.07945,-34.25943 6.39432,-44.75664 6.03977,-39.20972 2.51176,-19.27092 10.69885,-59.79597 10.43726,-51.9958 -63.09591,-66.75632 -73.53317,-14.76052 v 0 c -8.90216,44.60729 -5.09499,22.83454 -11.59083,65.28843 -0.92913,7.5098 -1.80706,15.02611 -2.7874,22.5294 -0.56329,4.31132 -1.30086,8.59899 -1.84329,12.91298 -0.14601,1.16123 -1.28402,3.99375 -0.22098,3.50415 2.62282,-1.20798 3.65101,-4.59716 6.05795,-6.19246 8.67145,-5.74737 8.6733,-5.33611 15.47284,-6.04764 -2.80874,0.69281 -6.64634,0.29169 -9.4344,0.2108 -7.52194,-0.21825 -15.03677,-0.67133 -22.54514,-1.1565 -19.69953,-1.51376 -39.39544,-3.41886 -58.88373,-6.73589 -8.38788,-1.57086 -16.75946,-3.09123 -24.92372,-5.63058 -5.76989,-1.79463 -4.78653,-1.72185 -9.67228,-3.65787 -0.62322,-0.24696 -1.26439,-0.44595 -1.89658,-0.66892 -0.0892,0.24352 -0.0269,0.63395 -0.26759,0.73058 -0.93443,0.37518 -1.69116,-1.21232 -2.17693,-2.09434 -2.7653,-5.02102 -3.53176,-10.84973 -4.43648,-16.40402 -0.34053,-3.18109 -0.7693,-6.35398 -1.0216,-9.54328 -1.8146,-22.93821 -0.81458,-45.99449 -0.99687,-68.97083 -0.009,-11.92653 0.0468,-16.13166 -0.17618,-27.73219 -0.17298,-8.99981 -0.22425,-18.21486 -1.50328,-27.15275 -0.33422,-2.33559 -0.87248,-4.63741 -1.30872,-6.95611 -13.98291,-51.15641 -86.32899,-31.38159 -72.34609,19.77482 z"/>
</svg>
