<?xml version="1.0" ?>
<svg xmlns="http://www.w3.org/2000/svg" viewBox="0 0 1000 1000">
<path d="m 210.63185,63.57325 c -0.19048,0.950141 -0.31058,1.91715 -0.57144,2.850425 -1.18941,4.255239 -5.29529,15.897747 -6.10049,18.170969 -6.26995,17.701256 -13.04935,35.152726 -20.07573,52.565266 -6.81733,16.62194 -14.32207,32.9491 -22.29039,49.04755 -4.59877,9.29093 -9.47948,18.40936 -13.92349,27.77531 -7.18151,25.77929 -11.89611,29.29678 28.31719,57.36399 7.39666,5.16255 18.0765,-1.0822 26.89688,-2.96989 5.51237,-1.17973 10.54316,-3.9991 15.75084,-6.15737 8.21853,-3.40609 30.36824,-13.35308 37.86995,-16.69788 29.10837,-13.11381 58.86046,-24.90317 89.4422,-34.13725 17.18345,-5.1885 23.07152,-6.32321 40.23493,-10.3956 16.65531,-3.82737 33.51994,-6.53275 50.53131,-8.06291 52.80268,-4.93733 45.82023,-79.61159 -6.98245,-74.67426 v 0 c -20.51253,1.97173 -40.88205,5.08285 -60.96463,9.78725 -19.94295,4.78664 -26.04246,5.94823 -46.03272,12.02841 -33.06856,10.05803 -65.26973,22.78538 -96.77444,36.95652 -14.87408,6.63395 -21.01319,9.42905 -35.34851,15.62823 -2.96603,1.28263 -9.98461,0.73021 -8.92574,3.78328 1.20034,3.461 8.53557,-1.08185 10.84801,1.75928 29.54416,36.29882 31.32951,28.29179 22.99975,47.7205 4.24212,-9.12974 9.08731,-17.95266 13.54383,-26.98059 8.70841,-17.64131 16.9108,-35.53163 24.37066,-53.73952 7.53179,-18.71041 14.90654,-37.44654 21.53525,-56.501 4.00019,-11.498689 6.77005,-19.268456 9.23138,-31.034403 0.63697,-3.04494 0.84104,-6.164594 1.26156,-9.246891 3.42198,-52.922491 -71.42172,-57.761907 -74.84371,-4.839416 z"/>
<path d="m 319.82172,208.14481 c 5.77347,14.2096 9.36597,29.20739 14.00466,43.80601 1.80315,5.67479 3.74052,11.30605 5.61078,16.95907 8.53479,23.15458 3.96997,11.49355 13.73737,34.96625 20.45669,48.92876 89.65241,19.99862 69.19571,-28.93014 v 0 c -8.3125,-19.77054 -4.40473,-9.88667 -11.74518,-29.64294 -6.55406,-19.7128 -3.6311,-10.47532 -9.64364,-30.34108 -4.7608,-15.72993 -9.0586,-31.83941 -17.32467,-46.18834 -27.83962,-45.13818 -91.67465,-5.76702 -63.83503,39.37117 z"/>
<path d="m 537.88037,51.439083 c -4.52811,20.794803 -11.999,40.814474 -18.63567,60.998417 -6.07596,19.73005 -12.72866,39.26651 -19.70226,58.69374 -11.88574,34.33076 6.46218,38.42647 45.03102,54.14405 4.38165,1.78561 8.95076,-3.07513 13.38092,-4.73675 3.72322,-1.39648 7.38279,-2.95711 11.07419,-4.43566 4.63521,-1.71412 9.27042,-3.42824 13.90562,-5.14237 33.44844,-11.69857 68.2284,-18.92434 103.31581,-23.51288 7.40069,-0.96782 14.83132,-1.69093 22.24698,-2.53639 18.15201,-1.81308 36.40613,-2.54196 54.63951,-1.87908 10.41486,0.37864 14.43352,0.91701 24.34757,1.90321 52.78571,5.1155 60.02013,-69.53477 7.23441,-74.65027 v 0 c -12.61752,-1.1972 -17.35912,-1.82483 -30.60594,-2.24659 -21.41991,-0.68197 -42.85987,0.20319 -64.17845,2.36316 -21.19465,2.4532 -29.18762,3.10259 -50.44084,6.70525 -31.45696,5.33231 -62.51465,12.9518 -92.63238,23.53161 -5.23967,1.94719 -10.50001,3.83963 -15.71901,5.84157 -3.71938,1.42672 -7.46623,2.79796 -11.09405,4.44362 -0.35593,0.16146 -1.03616,0.67871 -0.728,0.91911 13.59293,10.60431 30.4766,17.61625 41.48949,30.8803 3.04491,3.66733 -4.59888,25.19083 -0.67677,13.74664 7.20127,-20.06226 14.08013,-40.23494 20.36032,-60.60786 7.91681,-24.08271 16.84837,-48.003331 21.51152,-72.993341 8.08187,-52.41358 -66.04212,-63.84306672 -74.12399,-11.429486 z"/>
<path d="m 654.36952,170.67522 c -0.10252,-0.20638 -0.22922,-0.83585 -0.30755,-0.61914 -0.63985,1.7704 -0.92742,3.64944 -1.44209,5.46019 -1.02882,3.61961 -1.98637,7.26349 -3.18797,10.82947 -1.65047,4.89807 -3.41815,9.76026 -5.36358,14.54883 -7.92573,19.50873 -8.43329,19.08711 -18.99673,38.66991 -4.74832,7.43354 -9.49663,14.86709 -14.24494,22.30063 -28.37003,44.80671 34.99622,84.928 63.36626,40.12129 v 0 c 5.69167,-9.05504 11.38335,-18.11007 17.07503,-27.16511 4.58017,-8.68724 9.47649,-17.21501 13.74052,-26.06171 5.99515,-12.43831 12.10769,-28.25164 16.45637,-41.52707 2.11111,-6.44469 5.59732,-19.22015 6.80952,-26.33567 0.57548,-3.37804 0.73011,-6.81442 1.09516,-10.22162 0,-53.03301 -75,-53.03301 -75,0 z"/>
<path d="m 210.58673,390.69587 c -2.45393,38.58585 -3.60508,77.23803 -4.28605,115.89057 -0.0159,10.97865 -0.11066,21.95747 -0.0477,32.93595 0.1323,23.05775 0.68499,48.17507 1.13941,71.20184 0.73685,37.33746 1.50514,74.67433 2.26008,112.01144 1.1567,52.34922 2.98927,104.67992 4.60731,157.01609 1.63883,53.00768 76.60301,50.69002 74.96418,-2.31766 v 0 c -1.60983,-52.06903 -3.43334,-104.13262 -4.58682,-156.21459 -0.75452,-37.31639 -1.52143,-74.63256 -2.25884,-111.9493 -0.44046,-22.28954 -0.99092,-47.30769 -1.12538,-69.65042 -0.0636,-10.57457 0.0242,-21.14951 0.0363,-31.72427 0.6426,-37.1664 1.76059,-74.33019 4.07558,-111.43464 4.07648,-52.8761 -70.70163,-58.64111 -74.7781,-5.76501 z"/>
<path d="m 370.4541,414.76096 c 24.86896,-2.96326 49.22385,-9.21468 73.72397,-14.25291 8.16348,-1.67875 16.34872,-3.24994 24.52307,-4.87491 46.15102,-8.38282 92.89346,-13.6824 139.77065,-15.52121 8.02273,-0.3147 16.05328,-0.38076 24.07993,-0.57115 28.66554,-0.22452 57.41067,1.31928 85.59493,6.72906 3.37947,0.78703 5.0366,1.09184 8.12263,2.04797 1.66057,0.51449 1.95803,0.93532 0.0365,0.0321 -0.64224,-0.38152 -1.31839,-0.71102 -1.92673,-1.14457 -3.48979,-2.48712 -4.83378,-3.73085 -7.70027,-7.25582 -0.82939,-1.01993 -1.42175,-2.2131 -2.19045,-3.27952 -0.0938,-0.13019 -0.40475,-0.45031 -0.38342,-0.29123 0.1569,1.17019 0.53786,2.29925 0.80679,3.44888 5.70572,29.03533 7.18414,58.71363 8.60928,88.20464 1.66659,51.95155 0.39008,103.94535 -1.87916,155.85603 -2.50838,46.34341 -6.03417,92.63176 -11.28496,138.74654 -2.47819,20.203 -5.22766,40.46806 -10.74873,60.1052 -2.42063,8.6096 -3.69657,11.68764 -6.67083,19.89588 -2.5332,6.49567 -5.39852,12.87234 -8.98483,18.86061 -0.55216,0.92199 -3.12322,5.71208 -4.70759,6.17173 2.71017,-3.1447 2.45705,-3.30269 6.89234,-5.69655 1.41808,-0.76538 3.33119,-0.67647 4.48702,-1.79934 0.44736,-0.4346 -0.95711,-0.83871 -1.53812,-1.06549 -2.84633,-1.11101 -5.81073,-1.89467 -8.687,-2.92568 -5.16053,-1.84982 -10.28059,-3.81062 -15.42089,-5.71592 -22.08208,-8.95218 -43.83394,-18.69109 -65.69714,-28.15953 -48.66539,-21.07558 -78.47076,47.74767 -29.80537,68.82325 v 0 c 23.17675,10.03706 46.22495,20.38928 69.68615,29.753 16.31908,5.93054 35.89049,14.24992 53.6006,14.25988 12.56132,0.007 20.98739,-2.20217 31.61789,-8.52375 3.5646,-2.11973 6.46915,-5.19119 9.70373,-7.78679 2.0718,-2.35157 4.25949,-4.60591 6.2154,-7.05471 10.38335,-12.99995 17.07163,-28.59488 23.25415,-43.87546 4.02084,-11.3453 5.54486,-15.02323 8.80781,-26.94151 6.25945,-22.86336 9.69877,-46.36154 12.51619,-69.8599 5.4226,-47.84553 9.12728,-95.86414 11.6931,-143.94707 2.35433,-54.21682 3.67823,-108.5211 1.86098,-162.77842 -1.71348,-34.75675 -3.53353,-69.78398 -11.05051,-103.86426 -0.82903,-2.96935 -1.52288,-5.97981 -2.4871,-8.90805 -4.05219,-12.30615 -10.42124,-21.97449 -21.75655,-28.58522 -9.74213,-5.18129 -20.23341,-8.43312 -31.08345,-10.44617 -9.34182,-1.74061 -12.17606,-2.38515 -22.12988,-3.68248 -26.24706,-3.42092 -52.74815,-4.53492 -79.2015,-4.325 -8.76177,0.21914 -17.52793,0.30418 -26.28532,0.65743 -50.43592,2.03445 -100.72314,7.77397 -150.36974,16.85405 -8.51092,1.69433 -17.03267,3.33514 -25.53276,5.083 -17.66869,3.63317 -35.24764,7.7214 -52.9683,11.1041 -6.33757,1.20978 -6.17489,1.12574 -11.32708,1.75721 -52.85063,4.39434 -46.6361,79.13642 6.21454,74.74208 z"/>
<path d="m 412.83569,531.21388 c 22.06886,-3.7392 43.91629,-8.67187 66.04293,-12.09763 7.09745,-1.09886 14.22432,-1.99837 21.33648,-2.99755 21.42943,-2.84213 43.02039,-4.11557 64.63019,-4.09875 15.10055,0.0118 22.70138,0.51479 37.4452,1.19258 52.97894,2.39418 56.36482,-72.52935 3.38589,-74.92354 v 0 c -16.63791,-0.74025 -25.15461,-1.29683 -42.25738,-1.25548 -24.64184,0.0596 -49.25988,1.57054 -73.69333,4.82233 -7.83395,1.11192 -15.6836,2.11834 -23.50186,3.33575 -21.75602,3.3877 -43.2571,8.14003 -64.94105,11.91744 -52.40004,8.16915 -40.84712,82.274 11.55293,74.10485 z"/>
<path d="m 342.989,618.48856 c -0.0905,-0.0803 -0.29487,-0.35952 -0.27154,-0.24081 0.89949,4.57575 2.14588,9.07742 3.10563,13.64092 3.10855,14.78077 5.90874,29.62856 8.8206,44.44871 5.53899,27.63185 11.6058,55.15353 17.45624,82.72011 0.4343,2.09637 0.86859,4.19275 1.30289,6.28912 10.76168,51.92963 84.20127,36.71031 73.43958,-15.21932 v 0 c -0.45893,-2.21382 -0.91786,-4.42764 -1.37679,-6.64145 -5.7728,-27.19628 -11.75599,-54.34887 -17.22897,-81.60799 -2.13803,-10.88166 -4.23509,-21.77144 -6.41201,-32.64539 -2.19001,-10.93931 -4.21958,-22.05778 -7.34558,-32.78551 -0.67419,-2.31368 -1.5216,-4.57332 -2.28241,-6.85998 -20.43651,-48.93719 -89.64415,-20.0356 -69.20764,28.90159 z"/>
<path d="m 405.89221,651.06677 c 23.5069,-6.63408 47.50797,-11.12376 71.56236,-15.21394 22.67732,-3.40852 45.5338,-5.96419 68.48438,-6.29488 10.86145,-0.15651 14.36678,0.15537 24.85213,0.64546 7.34395,0.49001 14.66361,1.30438 21.91297,2.57957 2.55258,0.44901 5.18394,0.9064 7.67499,1.64938 -6.20197,-1.73378 -9.34379,-2.32702 -15.42003,-9.11419 -3.9442,-4.40567 -5.84467,-10.28376 -8.59772,-15.51705 -0.37421,-0.71133 -0.46282,-3.02947 -0.76771,-2.28579 -0.76078,1.85561 -0.47603,3.98282 -0.74297,5.97049 -0.49385,3.67739 -1.02622,7.34951 -1.53933,11.02427 -4.26143,29.29821 -9.26754,58.50909 -15.47313,87.46317 -1.30865,6.10591 -2.77427,12.17711 -4.16141,18.26566 -5.94749,19.49936 -2.24262,10.71267 -10.48921,26.6151 -22.75667,47.90234 44.98746,80.08514 67.74413,32.1828 v 0 c 12.7899,-28.24091 7.61037,-14.13755 15.88147,-42.18259 1.51668,-6.69328 3.11418,-13.36877 4.55003,-20.07986 6.51786,-30.46407 11.76885,-61.19849 16.24563,-92.0232 0.77188,-5.66032 2.80201,-19.19178 2.9589,-25.26562 0.11559,-4.47499 0.78192,-9.12467 -0.47509,-13.42104 -2.18249,-7.45955 -4.91709,-15.06443 -9.66048,-21.22141 -6.64135,-8.62057 -12.78079,-10.08588 -21.21697,-13.00689 -14.76923,-3.69895 -29.91913,-5.6172 -45.10447,-6.5593 -13.20267,-0.55926 -17.23836,-0.91584 -30.88676,-0.6698 -26.26972,0.47356 -52.43631,3.34993 -78.38914,7.31508 -27.78541,4.75952 -55.54531,9.97295 -82.61175,17.97738 -50.3228,16.73664 -26.65362,87.90384 23.66918,71.1672 z"/>
<path d="m 420.37878,781.66046 c 20.45061,-0.37151 40.82672,-2.43395 61.22283,-3.8192 7.3304,-0.49787 14.66521,-0.92862 21.99781,-1.39293 24.62668,-1.50616 49.29265,-1.98969 73.95448,-2.46021 53.0232,-1.01972 51.58111,-76.00585 -1.4421,-74.98614 v 0 c -25.76364,0.49924 -51.53157,1.01352 -77.25807,2.59665 -7.57692,0.481 -15.15604,0.92842 -22.73076,1.443 -18.57409,1.2618 -37.12762,3.1131 -55.74419,3.61883 -53.03301,0 -53.03301,75 0,75 z"/>
</svg>
