<?xml version="1.0" ?>
<svg xmlns="http://www.w3.org/2000/svg" viewBox="0 0 1000 1000">
<path d="m 204.8009,103.53564 c -0.0925,1.21048 -0.18287,2.42113 -0.27767,3.63144 -0.4789,6.11445 -0.90205,12.79111 -1.94743,18.79646 -2.95179,16.957 -8.73856,33.28479 -14.03596,49.59669 -12.75542,36.85862 -28.56738,72.55806 -45.26514,107.77346 -14.81762,30.02934 -23.46526,44.89627 24.85529,72.8549 9.60837,5.55947 31.03828,-10.90583 39.65847,-16.84036 28.60367,-20.50793 59.32212,-38.16752 91.5423,-52.3627 7.84586,-3.45663 15.86329,-6.50996 23.79494,-9.76493 28.70172,-10.91493 58.19654,-19.72831 88.30518,-25.79862 13.69561,-2.76123 18.72765,-3.32702 32.07454,-5.27394 9.67628,-1.34233 19.41123,-2.10641 29.15283,-2.75015 52.91286,-3.56786 47.86714,-78.39794 -5.04571,-74.83008 v 0 c -11.70879,0.80229 -23.41058,1.73589 -35.03857,3.38115 -15.62147,2.32089 -21.39299,2.97963 -37.41403,6.25924 -34.31926,7.02538 -67.94925,17.11949 -100.64312,29.68324 -9.11222,3.77822 -18.32326,7.32638 -27.33664,11.33466 -35.96179,15.99235 -70.28044,35.73983 -102.29746,58.60712 -18.77495,13.36222 1.59149,-2.97146 8.79986,3.56119 13.66619,12.3851 22.24709,29.50783 31.7427,45.31886 0.81769,1.36152 -2.67817,5.75409 -1.90201,4.36848 2.82564,-5.04433 4.24884,-10.80815 7.52533,-15.628 18.07614,-38.15842 35.15041,-76.86005 48.85767,-116.83204 5.31652,-16.52469 9.3024,-27.79461 13.32725,-44.60358 3.72871,-15.57219 5.69718,-31.3863 6.50207,-47.35323 2.21272,-52.986828 -72.72197,-56.116083 -74.93469,-3.12926 z"/>
<path d="m 344.69319,260.29702 c 7.77851,14.64102 12.26131,30.89443 17.44844,46.57123 7.06617,21.98132 15.83053,43.34026 24.7139,64.63107 20.43124,48.9394 89.642,20.04527 69.21076,-28.89413 v 0 c -8.16216,-19.539 -16.2571,-39.12492 -22.72511,-59.30863 -7.59769,-22.93703 -14.32669,-46.8805 -28.07385,-67.07144 -1.2119,-1.77995 -2.63448,-3.40694 -3.95171,-5.11042 -34.77715,-40.0381 -91.39958,9.14422 -56.62243,49.18232 z"/>
<path d="m 571.63115,77.643654 c -0.0428,0.879187 -0.0323,1.762594 -0.12841,2.637562 -0.77691,7.074002 -2.94496,14.122291 -5.09773,20.853874 -2.33183,7.2915 -6.8991,19.90541 -9.37291,26.84981 -7.64846,21.14212 -15.12566,42.34504 -22.32104,63.64571 -7.35081,23.75899 -3.45741,35.42414 24.67509,54.81352 9.85269,6.79063 33.33132,-3.23378 44.14327,-7.07607 22.68167,-7.86222 46.38498,-12.38812 70.24717,-14.70579 5.87571,-0.57069 11.77324,-0.88843 17.65986,-1.33264 28.35949,-1.87028 56.70901,0.0937 84.81104,3.90515 5.83516,0.78953 11.60223,1.96472 17.35381,3.2047 51.86646,11.06212 67.51066,-62.28813 15.6442,-73.35025 v 0 c -7.62751,-1.61421 -15.27472,-3.14478 -23.00678,-4.18597 -10.68004,-1.42465 -15.12192,-2.12022 -26.25743,-3.12991 -24.71359,-2.24084 -49.56757,-2.72202 -74.34397,-1.21919 -6.98923,0.55436 -13.99246,0.95409 -20.9677,1.66308 -29.31928,2.98012 -58.39258,8.78684 -86.25462,18.4807 -3.08463,1.0962 -6.18235,2.15624 -9.25389,3.28861 -11.21948,4.13623 7.78937,-1.89277 13.20997,3.06645 33.24536,30.41564 25.39781,22.86878 22.53672,43.50508 -0.1398,1.00831 0.57365,-1.95342 0.86047,-2.93013 7.06276,-20.91858 14.41486,-41.73673 21.92351,-62.49927 8.67585,-24.40571 18.45568,-49.23868 18.93937,-75.485026 0,-53.033009 -75,-53.033009 -75,0 z"/>
<path d="m 656.62142,224.63313 c 0.17202,6.68527 -1.74359,13.25949 -3.8349,19.53565 -4.90009,14.70545 -5.53016,15.03758 -12.31443,30.34371 -11.10409,22.86965 -24.271,44.62676 -37.26081,66.44675 -27.10721,45.58179 37.35516,83.91718 64.46238,38.33539 v 0 c 14.56458,-24.51488 29.31979,-48.96965 41.53579,-74.77922 3.16216,-7.33118 6.58087,-14.55695 9.48647,-21.99354 7.98929,-20.44785 14.13371,-42.25809 12.64229,-64.40039 -4.60443,-52.83274 -79.32122,-46.3211 -74.71679,6.51165 z"/>
<path d="m 198.98283,433.80847 c -0.14275,21.61354 0.67794,43.21373 1.50537,64.80665 2.4748,58.21691 1.73213,116.50434 1.0451,174.75023 -0.92228,55.7065 -1.74977,111.41394 -2.23984,167.12602 -0.13419,16.09084 -0.20939,32.18205 -0.27744,48.27328 -0.22414,53.03253 74.77519,53.34952 74.99934,0.31698 v 0 c 0.0675,-15.97706 0.14208,-31.95412 0.2752,-47.93081 0.48903,-55.63736 1.31807,-111.27005 2.23753,-166.90186 0.70028,-59.50016 1.43454,-119.04193 -1.09514,-178.51224 -0.79436,-20.63378 -1.59067,-41.27451 -1.45012,-61.92825 0,-53.03301 -75,-53.03301 -75,0 z"/>
<path d="m 372.00809,450.02418 c 18.54032,-4.67266 37.207,-8.84406 56.04702,-12.12839 6.93522,-1.20899 13.89744,-2.2576 20.84616,-3.3864 47.93272,-7.64738 96.44647,-10.26311 144.90422,-11.61279 29.41195,-0.58293 58.87583,-0.30092 88.10414,3.25352 7.72439,0.93354 15.24855,2.87005 22.74958,4.85871 0.10807,0.0405 0.43416,0.15661 0.3242,0.12157 -9.52028,-3.03431 -13.41121,-7.59744 -19.65683,-15.98358 -2.66264,-3.57518 -2.43169,-7.91452 -2.50197,-4.54654 2.04802,24.04211 3.41058,48.14453 5.05687,72.21915 3.36506,44.71329 5.1164,89.51484 6.27733,134.33192 0.89084,43.66428 1.87114,87.35355 1.00259,131.02762 -0.16701,8.39813 -0.48377,16.79263 -0.72565,25.18894 -0.95398,23.12924 -2.91684,46.21745 -6.15172,69.14209 -2.21888,15.72447 -3.68458,22.68616 -6.53027,37.88664 -9.71838,52.13495 64.01157,65.87882 73.72995,13.74387 v 0 c 3.20055,-17.23611 4.7489,-24.57853 7.23927,-42.47393 3.51435,-25.25368 5.65384,-50.68268 6.68216,-76.15603 0.25055,-8.83391 0.57843,-17.66597 0.75167,-26.50173 0.87446,-44.59973 -0.10566,-89.21452 -1.02326,-133.80416 -1.19384,-45.87448 -2.98772,-91.73327 -6.42682,-137.50197 -0.76015,-11.1162 -1.54376,-22.23083 -2.27942,-33.34869 -0.81238,-12.27735 -1.35327,-24.59056 -2.54292,-36.84021 -0.28762,-2.96166 -0.67914,-5.91231 -1.01872,-8.86846 -1.10438,-6.01648 -1.99639,-13.36745 -5.28996,-18.65605 -7.48109,-12.01261 -14.70219,-17.94569 -27.69742,-21.47615 -10.8915,-2.88728 -21.86771,-5.48336 -33.07546,-6.83389 -10.49177,-1.23488 -12.6021,-1.59666 -23.59469,-2.37906 -25.12795,-1.78847 -50.33697,-1.76477 -75.51161,-1.37393 -8.29278,0.23546 -16.58819,0.39172 -24.87835,0.70637 -43.49222,1.65074 -86.96126,5.16383 -129.98446,11.85397 -7.56837,1.23784 -15.15164,2.38776 -22.7051,3.71353 -19.8082,3.47669 -39.4518,7.81973 -58.94923,12.73648 -51.68072,11.89968 -34.85203,84.98727 16.8287,73.08758 z"/>
<path d="m 333.67712,597.04934 c 18.55828,-4.27191 36.73105,-10.0205 55.22152,-14.56152 7.18158,-1.7637 14.40764,-3.34106 21.61146,-5.01159 42.48892,-9.47345 85.65165,-15.82365 129.05208,-19.17565 8.13719,-0.62848 16.2914,-1.0127 24.4371,-1.51905 27.27669,-1.62222 54.58259,-0.92522 81.833,0.67229 52.94337,3.08215 57.30217,-71.79109 4.3588,-74.87323 v 0 c -30.26839,-1.75092 -60.59939,-2.46796 -90.89315,-0.65157 -8.86854,0.56229 -17.74643,0.99272 -26.60563,1.68685 -46.80627,3.66736 -93.35181,10.56776 -139.17307,20.81031 -7.88276,1.83849 -15.78883,3.57979 -23.64829,5.51547 -17.85919,4.39848 -35.4218,9.91338 -53.33532,14.09284 -51.6293,12.12087 -34.4878,85.13573 17.1415,73.01485 z"/>
<path d="m 449.90133,471.52129 c 0.47685,27.58697 0.3815,55.17965 0.29535,82.76932 -0.0763,20.10336 -0.14994,40.20672 -0.2219,60.31009 -0.18983,53.03267 74.80969,53.30113 74.99952,0.26846 v 0 c 0.072,-20.11491 0.14567,-40.22982 0.22202,-60.34472 0.0886,-28.47536 0.19165,-56.95456 -0.33416,-85.42665 -1.71367,-53.00532 -76.67451,-50.58182 -74.96083,2.4235 z"/>
<path d="m 327.7855,660.05259 c 5.11092,18.84467 8.06276,38.18587 10.924,57.47206 3.11769,23.05048 5.75523,46.16014 8.822,69.21738 6.99498,52.56967 81.33972,42.67727 74.34474,-9.8924 v 0 c -3.12065,-23.44275 -5.77901,-46.94231 -8.98506,-70.37385 -3.4815,-23.29185 -7.11481,-46.66888 -13.68871,-69.3277 -16.19593,-50.49942 -87.6129,-27.59492 -71.41697,22.90451 z"/>
<path d="m 395.68601,699.16905 c 12.76043,-6.75028 26.78689,-10.42378 40.66781,-14.05322 19.10893,-4.51271 38.57404,-7.40955 58.15477,-8.8165 12.06829,-0.86715 15.60348,-0.76716 27.4352,-0.95752 12.23921,0.50345 26.26513,0.20738 37.92959,4.68565 -2.69665,-0.32468 1.9638,0.54738 1.4665,0.79675 -0.82038,0.41138 -6.59208,-5.11849 -6.71539,-5.23628 -7.07288,-10.8071 -4.71898,-5.51429 -8.06995,-16.02204 -0.0905,-0.28371 -0.1987,-1.1474 -0.25747,-0.85547 -0.18061,0.89703 -0.0786,1.82838 -0.12242,2.74235 -0.10051,2.09408 -0.17125,4.18994 -0.31071,6.28178 -0.19022,2.85333 -0.45215,5.70142 -0.67822,8.55213 -2.30576,22.43642 -4.39731,44.95566 -8.62938,67.1337 -0.85299,4.47005 -1.88285,8.90453 -2.82427,13.3568 -2.57741,10.91026 -5.53535,21.79509 -9.91948,32.13996 -2.19116,5.1703 -3.18395,6.58183 -5.83495,11.11459 -25.85904,46.30129 39.62088,82.8715 65.47992,36.57021 v 0 c 1.76775,-3.23855 3.66655,-6.40892 5.30325,-9.71563 8.57628,-17.32707 14.06291,-35.955 18.38001,-54.74177 1.11981,-5.39409 2.34123,-10.76807 3.35942,-16.18225 4.5929,-24.42246 6.99409,-49.19373 9.46263,-73.89822 1.01044,-13.35707 3.34277,-32.32985 -2.19908,-44.91906 -1.71594,-3.89804 -4.44011,-7.26926 -6.66017,-10.9039 -1.51854,-1.54023 -2.95175,-3.16951 -4.55561,-4.62068 -6.63697,-6.00514 -14.96591,-9.75817 -23.25519,-12.84274 -2.38599,-0.74925 -4.74653,-1.58497 -7.15796,-2.24776 -18.04993,-4.96104 -36.91147,-6.02931 -55.53695,-6.17604 -14.24807,0.27769 -18.5123,0.17062 -33.0297,1.26726 -23.72163,1.79193 -47.29665,5.40643 -70.42396,10.99646 -5.14759,1.37802 -10.32745,2.6407 -15.44277,4.13406 -13.56517,3.9602 -26.9022,8.86602 -39.49617,15.30522 -47.45547,23.67442 -13.97477,90.78659 33.4807,67.11216 z"/>
<path d="m 412.49358,825.97606 c -0.80002,0.52261 -3.32591,1.33131 -2.40006,1.56785 1.25852,0.32152 2.45395,-0.85444 3.69529,-1.23695 2.27972,-0.70248 4.56408,-1.39246 6.86623,-2.01751 7.17668,-1.94852 14.18925,-3.64775 21.51478,-5.00936 4.30277,-0.79977 8.64087,-1.39611 12.96131,-2.09416 16.57574,-2.12489 33.30799,-3.62256 50.02467,-2.5224 8.01204,0.52729 9.54233,0.95996 17.07027,2.21984 7.90152,1.85051 4.16674,0.86945 11.21867,2.88799 51.11944,14.1175 71.08459,-58.1763 19.96516,-72.29379 v 0 c -12.27696,-3.31943 -5.77218,-1.72325 -19.53952,-4.68475 -11.67799,-1.76189 -14.3169,-2.42945 -26.43869,-3.09475 -21.56776,-1.18374 -43.15204,0.5686 -64.51603,3.48933 -5.52168,0.92666 -11.06587,1.72796 -16.56504,2.77998 -8.8726,1.69737 -18.55321,4.04384 -27.28534,6.49671 -4.53174,1.27297 -13.58364,4.03111 -18.26564,6.03731 -2.90134,1.2432 -5.67147,2.77269 -8.50721,4.15904 -44.7709,28.4265 -4.56975,91.74212 40.20115,63.31562 z"/>
<path d="m 244.4177,939.72006 c 21.56287,-2.74166 43.11332,-5.56972 64.63895,-8.59577 31.93911,-4.64052 63.85157,-9.49524 95.95168,-12.9184 24.20579,-2.58131 32.88585,-3.10062 57.25886,-5.03184 37.00892,-2.55666 74.10722,-4.03758 111.20806,-4.04741 19.87853,-0.005 26.37317,0.31115 45.79208,0.86297 16.39277,0.68304 32.81401,1.38897 49.10733,3.43025 9.65818,1.21001 11.70997,1.7726 20.73487,3.5758 52.04959,10.16567 66.42602,-63.44355 14.37644,-73.60923 v 0 c -4.22112,-0.8106 -8.42355,-1.72539 -12.66334,-2.4318 -22.95407,-3.82448 -46.22523,-5.04991 -69.4464,-5.93536 -20.76323,-0.57846 -27.39999,-0.90392 -48.66298,-0.88876 -38.82844,0.0277 -77.65359,1.58644 -116.38481,4.27904 -25.70553,2.04671 -34.48909,2.56866 -60.05781,5.30706 -32.66908,3.49885 -65.15382,8.40351 -97.65925,13.1386 -21.26999,2.9928 -42.56516,5.78546 -63.87272,8.49203 -52.58952,6.84411 -42.91049,81.21693 9.67904,74.37282 z"/>
</svg>
