<?xml version="1.0" ?>
<svg xmlns="http://www.w3.org/2000/svg" viewBox="0 0 1000 1000">
<path d="m 256.21497,77.421184 c -5.87271,18.582232 -13.56583,36.535996 -20.54159,54.725826 -4.56644,12.11599 -8.84464,24.34126 -12.82466,36.66234 -0.70686,2.18822 -4.10865,12.96848 -4.80239,15.80783 -0.68097,2.78714 -1.14834,5.62217 -1.72251,8.43326 5.11844,31.31596 -1.10842,32.94617 40.14244,46.60146 5.99035,1.98299 12.49626,-1.94854 18.58045,-3.62164 4.13932,-1.13828 8.00749,-3.10205 11.96031,-4.77681 3.70803,-1.57104 24.69321,-11.08698 27.59955,-12.40087 34.077,-15.73391 69.40879,-28.39577 104.87885,-40.55377 11.75641,-3.92013 23.53332,-7.77682 35.2829,-11.71729 50.27975,-16.86557 26.42823,-87.971871 -23.85152,-71.106299 v 0 c -11.90711,3.994846 -23.84469,7.896479 -35.75636,11.877859 -37.69786,12.92897 -75.22606,26.45178 -111.45048,43.15917 -4.59018,2.07531 -19.68165,8.91144 -25.24457,11.38433 -1.99237,0.88567 -6.39891,0.46987 -5.99657,2.61278 0.40133,2.13749 4.66046,-0.93969 6.52188,0.18504 34.33996,20.74928 28.48954,12.02059 31.16219,41.55709 -0.25073,-1.8457 3.56085,-12.83144 3.90451,-13.89807 3.6128,-11.21314 7.4967,-22.33958 11.64826,-33.36465 8.61831,-22.49966 18.56128,-44.64892 24.29424,-68.121977 9.50748,-52.173822 -64.27745,-65.619431 -73.78493,-13.445609 z"/>
<path d="m 342.12969,192.58523 c 8.59163,19.61401 18.53128,38.62914 28.53274,57.55503 5.42831,10.26757 11.3869,20.23363 17.40419,30.16143 27.5207,45.33333 91.63171,6.41319 64.11101,-38.92015 v 0 c -5.26555,-8.65747 -10.47544,-17.3511 -15.21922,-26.31039 -8.7879,-16.59479 -17.46217,-33.28776 -25.21455,-50.39413 -19.73408,-49.22465 -89.34825,-21.31644 -69.61417,27.90821 z"/>
<path d="m 545.82911,74.266064 c -0.023,-0.232629 -0.1582,-1.604855 -0.16266,-1.601995 -0.48318,0.309969 -0.48811,1.039217 -0.72848,1.560532 -0.6353,1.377814 -1.2152,2.782199 -1.89853,4.136832 -1.93741,3.840674 -5.55171,10.122199 -7.50948,13.593216 -7.88881,13.838411 -17.03255,26.912281 -26.73133,39.531801 -19.47952,25.77154 -9.0035,34.39884 27.51134,65.89249 4.80399,4.14339 12.54465,-1.9902 18.71052,-3.48287 4.17518,-1.01075 8.14897,-2.72347 12.24711,-4.01151 4.74024,-1.48985 9.5109,-2.88109 14.26635,-4.32164 30.8725,-8.57863 62.26795,-15.61898 94.05543,-19.83401 5.29566,-0.70221 10.61936,-1.17366 15.92904,-1.7605 9.57693,-0.67022 14.32275,-1.2035 23.54122,-1.1795 2.33639,0.006 4.67963,0.0499 7.00287,0.29752 0.58372,0.0622 2.22357,0.73293 1.64667,0.62438 -14.7137,-2.76854 -8.12838,-2.64313 -24.46506,-20.2839 -0.62674,-4.69769 -0.38446,-9.59599 -1.88023,-14.09307 -0.3387,-1.01832 -1.38329,1.6495 -1.95695,2.55648 -2.06454,3.26416 -3.93591,6.64685 -5.94889,9.94306 -3.05039,4.99492 -6.09289,9.99562 -9.24081,14.92966 -10.93993,17.14718 -13.62907,20.68196 -25.62543,38.06112 -5.23485,7.63587 -10.46969,15.27174 -15.70454,22.90761 -29.98685,43.74116 31.87249,86.14897 61.85934,42.40781 v 0 c 5.19625,-7.57974 10.39251,-15.15948 15.58876,-22.73922 13.06521,-18.96512 26.04123,-37.92108 37.86101,-57.69948 3.62799,-6.07082 14.1066,-23.43065 15.54913,-30.72267 1.72,-8.69469 0.99987,-17.69814 1.49981,-26.5472 -6.52333,-8.87435 -11.51561,-19.11071 -19.56998,-26.623034 -4.04584,-3.773565 -10.13314,-4.541277 -15.45692,-6.046609 -3.79255,-1.072369 -7.78257,-1.307012 -11.71015,-1.635054 -13.76669,-1.149833 -27.65274,0.401148 -41.36694,1.311401 -6.29614,0.717638 -12.60825,1.306844 -18.88843,2.152913 -35.32331,4.758777 -70.21699,12.585093 -104.51144,22.208183 -5.30992,1.61599 -10.63538,3.18179 -15.92976,4.84797 -3.32001,1.04483 -7.18562,1.12041 -9.91158,3.2845 -1.3501,1.07183 4.14864,-0.90731 5.1475,0.49764 46.78302,65.80208 39.42497,31.84146 26.9352,57.81285 -0.5675,1.18006 1.56894,-2.09686 2.35341,-3.14528 11.83136,-15.48266 23.0071,-31.49469 32.61556,-48.46782 9.42429,-16.89186 19.39872,-34.502512 19.87732,-54.362606 0,-53.033009 -75,-53.033009 -75,0 z"/>
<path d="m 272.95899,307.99492 c 2.583,12.33999 5.63549,24.57898 8.1934,36.92511 2.80222,13.52538 4.65749,24.28289 7.15273,38.02808 8.93351,46.55186 17.60464,93.14648 25.85208,139.8249 3.27148,18.29921 6.41795,36.61959 9.35338,54.97561 8.37861,52.36697 82.43668,40.51783 74.05808,-11.84913 v 0 c -3.00241,-18.75619 -6.21076,-37.47757 -9.55543,-56.17588 -8.26872,-46.79847 -16.95642,-93.51411 -25.91661,-140.18497 -5.06728,-27.8578 -10.47836,-55.65246 -17.31397,-83.13913 -15.27026,-50.787 -87.09392,-29.19159 -71.82366,21.59541 z"/>
<path d="m 358.08166,340.59204 c 13.22163,-6.87101 27.84564,-10.56393 42.12848,-14.49011 25.55478,-6.64334 51.43357,-12.08691 77.56167,-15.93092 18.44766,-2.71405 26.9481,-3.43908 45.49835,-5.42561 35.64926,-3.51059 71.44352,-5.53882 107.26744,-5.28874 13.40581,0.32531 26.85627,1.20929 40.02948,3.81924 0.50719,0.14557 1.01437,0.29115 1.52156,0.43673 0.007,0.0427 0.0624,0.13656 0.02,0.12802 -4.73011,-0.95496 -8.20702,-4.68706 -11.36564,-8.01836 -0.55488,-0.72671 -0.80749,-1.86187 -1.66464,-2.18012 -0.47334,-0.17574 -0.17208,1.00335 -0.14662,1.50762 0.10613,2.10235 0.42511,4.19006 0.54038,6.29193 0.7069,12.88935 0.18223,25.71961 -0.3187,38.60499 -1.32632,25.22992 -3.93915,50.39412 -7.76797,75.36693 -2.05567,13.40773 -4.2425,24.94224 -6.66354,38.28751 -4.6649,25.71404 -10.7618,51.22653 -19.72656,75.80652 -1.26725,3.47462 -2.6943,6.88885 -4.04145,10.33328 -3.79335,9.40527 -8.81301,18.20897 -14.0909,26.83784 -27.51097,45.33924 36.6084,84.24562 64.11937,38.90638 v 0 c 7.49225,-12.41718 14.55324,-25.11105 19.89914,-38.63096 1.70333,-4.42304 3.50074,-8.811 5.10999,-13.26913 10.14736,-28.11149 17.18873,-57.23559 22.52869,-86.61179 2.69389,-14.88388 4.86372,-26.29013 7.14505,-41.29084 4.17954,-27.4822 7.01999,-55.17315 8.43589,-82.93556 0.59932,-16.61611 1.31911,-33.24587 -0.1059,-49.84954 -0.71732,-8.35785 -2.08138,-18.10242 -4.84469,-26.0926 -1.37192,-3.96691 -3.47168,-7.6434 -5.20752,-11.4651 -2.34555,-3.11349 -4.37699,-6.49062 -7.03663,-9.34047 -8.55683,-9.16877 -20.21279,-13.93813 -32.21679,-16.48164 -17.70407,-3.33011 -35.68248,-4.89995 -53.6946,-5.15949 -38.65589,-0.20595 -77.2818,1.86352 -115.74709,5.71762 -20.39542,2.20343 -29.2828,2.9585 -49.64396,5.98896 -28.78161,4.28374 -57.29228,10.29978 -85.43807,17.6654 -21.52622,6.01367 -43.51148,12.01818 -62.76392,23.75278 -44.55425,28.76489 -3.87456,91.77412 40.67969,63.00923 z"/>
<path d="m 375.44879,437.1501 c 26.64759,-4.73195 53.27713,-9.52688 79.99658,-13.84375 36.99703,-5.75483 74.27305,-9.48527 111.66099,-11.34745 10.82627,-0.10673 6.0185,-0.24613 14.42805,0.194 52.98641,2.22278 56.1299,-72.71131 3.14349,-74.93409 v 0 c -13.45079,-0.48483 -6.33722,-0.39033 -21.34193,-0.16508 -40.13249,2.03919 -80.15046,5.99856 -119.8616,12.21415 -26.42842,4.27624 -52.7812,8.9527 -79.1267,13.70833 -52.44885,7.84967 -41.34774,82.02356 11.10112,74.17389 z"/>
<path d="m 374.20064,543.13631 c 15.70633,-4.2491 32.01229,-6.05578 48.08992,-8.35196 34.02138,-4.86019 68.09658,-9.27158 102.28363,-12.78514 10.90587,-1.16657 21.84977,-1.8731 32.7954,-2.52232 52.9386,-3.16289 48.46559,-78.02939 -4.47301,-74.86649 v 0 c -12.01462,0.72247 -24.02725,1.50687 -35.99909,2.78272 -35.16829,3.62276 -70.22518,8.14053 -105.22322,13.1464 -21.01363,3.00815 -42.36962,5.40894 -62.64908,11.94839 -49.95597,17.80173 -24.78052,88.45013 25.17545,70.6484 z"/>
<path d="m 370.86593,643.84143 c 17.67193,-1.99121 35.4148,-3.30093 53.13431,-4.78872 40.55849,-3.39165 81.08853,-7.09179 121.67281,-10.16875 15.53365,-1.04101 31.07768,-2.20528 46.64908,-2.52639 6.76229,-0.13946 13.38426,-0.18119 20.02775,1.09096 52.46596,7.73447 63.40417,-66.46361 10.9382,-74.19809 v 0 c -3.28655,-0.43584 -6.55766,-1.01064 -9.85967,-1.30753 -7.96089,-0.71578 -15.86742,-0.70842 -23.85254,-0.53505 -16.54774,0.35928 -33.06719,1.57688 -49.57521,2.69091 -40.78509,3.09482 -81.51662,6.80391 -122.27561,10.21692 -19.73372,1.65692 -39.51598,3.01496 -59.16208,5.5417 -52.31461,8.6995 -40.01165,82.68354 12.30296,73.98404 z"/>
<path d="m 209.16777,798.05061 c 28.90655,-7.70186 58.47067,-12.58174 87.92727,-17.61536 65.79332,-10.69216 132.0184,-18.78543 198.42758,-24.51848 14.94683,-1.29034 29.91565,-2.31197 44.87347,-3.46795 72.0169,-5.02053 144.22353,-6.40195 216.39387,-5.83464 15.73865,0.37171 20.42931,0.33498 35.17828,1.16597 6.27866,0.35375 13.47149,0.41064 19.62568,2.25371 51.81075,11.32017 67.81988,-61.9513 16.00913,-73.27147 v 0 c -3.03709,-0.60637 -6.05098,-1.34344 -9.11126,-1.81911 -7.08145,-1.1007 -16.13365,-1.7 -23.14081,-2.08681 -15.96566,-0.88133 -21.12524,-0.84948 -37.97825,-1.24003 -74.29615,-0.57081 -148.62923,0.85947 -222.76571,6.05613 -15.40577,1.19472 -30.82281,2.25207 -46.21731,3.58416 -68.25651,5.9063 -136.32203,14.24595 -203.94388,25.2529 -33.17306,5.68326 -66.53509,11.13309 -98.94723,20.37378 -50.32281,16.73663 -26.65364,87.90383 23.66917,71.1672 z"/>
<path d="m 379.17568,654.66401 c -2.84683,25.05659 -1.66367,50.38226 -0.86216,75.52549 1.28141,27.95307 4.20102,56.06195 11.69634,83.10841 1.1879,4.28647 2.6627,8.48822 3.99405,12.73233 6.15369,14.87716 2.80132,7.85257 9.91857,21.13934 25.9144,46.27034 91.35053,9.62184 65.43613,-36.6485 v 0 c -2.65151,-4.07535 -1.24987,-1.65979 -3.93772,-7.39529 -0.87124,-2.62364 -1.85127,-5.21363 -2.61372,-7.87093 -6.28629,-21.90918 -8.42188,-44.79508 -9.53223,-67.47063 -0.66357,-20.53805 -1.62322,-41.17766 0.0248,-61.69103 8.08166,-52.41361 -66.04239,-63.8428 -74.12404,-11.42919 z"/>
<path d="m 557.93994,659.23056 c 2.89549,14.65799 3.65321,29.75033 3.5122,44.66651 -0.0562,5.94048 -0.39367,11.87496 -0.5905,17.81243 -2.46485,40.92411 -8.40503,81.6604 -19.34535,121.2145 -2.551,9.22298 -5.58401,18.30581 -8.37602,27.45872 -13.32687,36.01246 -6.16866,18.21234 -21.47255,53.40118 -21.05153,48.67579 47.78644,78.4471 68.83797,29.77135 v 0 c 17.4003,-40.43073 9.25977,-19.95802 24.41146,-61.42214 3.14318,-10.43335 6.55904,-20.78841 9.42953,-31.30006 12.19834,-44.67 18.85399,-90.65779 21.48038,-136.84637 0.20286,-7.22075 0.57664,-14.43871 0.60859,-21.66223 0.0919,-20.77875 -1.30553,-41.76979 -5.93476,-62.06512 -13.41468,-51.30835 -85.97564,-32.33712 -72.56095,18.97123 z"/>
</svg>
