<?xml version="1.0" ?>
<svg xmlns="http://www.w3.org/2000/svg" viewBox="0 0 1000 1000">
<path d="m 179.04409,60.976231 c 0.26457,12.190828 -2.68453,24.035311 -5.95216,35.684116 -4.70848,16.785323 -6.55627,21.780613 -12.11924,38.779243 -2.62622,6.79569 -5.10348,13.65084 -7.87864,20.38708 -4.9831,12.09563 -12.5141,28.30841 -18.06579,40.19876 -6.88426,14.74439 -13.89818,29.43115 -20.90053,44.11985 -1.31498,2.83094 -2.86938,5.56254 -3.94494,8.49283 -9.99267,27.22433 -3.85044,33.54369 41.29686,56.52329 5.41379,2.75557 30.17391,-15.70497 35.9764,-19.59223 5.36232,-3.59238 10.80199,-7.06795 16.20298,-10.60192 35.39318,-22.46415 73.08728,-41.37753 112.34296,-56.12138 7.2985,-2.7412 14.72994,-5.11445 22.09491,-7.67167 24.11231,-6.98833 48.81529,-14.91604 74.20408,-14.62729 0.70555,0.092 1.4111,0.18393 2.11664,0.27589 52.88942,3.8999 58.40472,-70.89704 5.5153,-74.79694 v 0 c -2.70011,-0.15916 -5.40022,-0.31832 -8.10033,-0.47748 -9.62455,0.14274 -11.8727,-0.0344 -22.03067,1.11983 -26.05433,2.96052 -51.48152,9.86123 -76.43506,17.70044 -8.48301,2.97795 -17.04063,5.75132 -25.44903,8.93386 -43.80545,16.58014 -85.85545,37.7906 -125.35936,62.92924 -5.90655,3.87405 -11.85189,7.68959 -17.71963,11.62216 -3.83858,2.57261 -9.34135,3.75347 -11.39715,7.89191 -1.18256,2.38059 6.00674,-2.74091 7.92352,-0.89928 14.35731,13.79433 26.68352,29.63323 38.59123,45.59011 0.008,0.0113 -8.43543,18.19823 1.87247,-4.0183 17.83876,-37.42283 36.3022,-74.68142 50.44133,-113.70519 10.32126,-31.69195 21.86231,-63.982749 21.77385,-97.736929 0,-53.0330083 -75,-53.0330083 -75,0 z"/>
<path d="m 297.71531,194.89026 c 5.68328,23.93207 15.98521,46.44451 25.17187,69.16835 5.17215,13.25526 10.39822,26.48833 15.7089,39.68858 19.79853,49.19876 89.37609,21.19941 69.57756,-27.99935 v 0 c -5.32822,-13.23694 -10.55929,-26.51164 -15.75443,-39.80145 -2.1052,-5.20653 -4.19643,-10.41873 -6.3156,-15.61959 -6.27321,-15.39577 -13.01317,-30.71455 -16.56465,-47.03199 -15.2703,-50.78699 -87.09394,-29.19153 -71.82365,21.59545 z"/>
<path d="m 552.75774,52.394893 c 0.28096,6.067653 0.18366,12.133292 -1.2512,18.075328 -1.7283,7.157266 -4.14403,12.943202 -6.72306,19.925317 -7.96931,20.961042 -18.45634,40.784942 -29.36717,60.325682 -5.77944,10.5785 -15.1982,26.19533 -4.02105,37.66372 13.13686,13.47916 34.436,16.08761 52.89705,19.75557 4.79619,0.95294 8.73671,-4.39555 13.07731,-6.64737 23.16234,-12.01619 2.83431,-2.01089 29.03289,-14.57127 27.19609,-12.15352 55.69275,-21.47582 84.80009,-27.82911 18.00173,-3.92926 23.49814,-4.32087 41.29831,-6.71586 19.8966,-1.56164 40.58903,-2.71984 60.0985,2.53926 1.61657,0.43577 3.18458,1.03496 4.77687,1.55245 50.81836,15.16557 72.26572,-56.702445 21.44736,-71.868014 v 0 c -10.20264,-2.922936 -12.65207,-3.927791 -23.65878,-5.684618 -24.092,-3.845426 -48.66332,-3.35042 -72.85699,-0.843197 -21.41784,2.98518 -27.63328,3.433119 -49.27059,8.253082 -34.05809,7.586838 -67.37199,18.644697 -99.16282,33.016967 -6.16617,2.97811 -12.37976,5.85998 -18.49853,8.93431 -4.51699,2.26952 -8.9755,4.65587 -13.40344,7.09457 -1.46828,0.80866 -5.67787,1.72165 -4.27785,2.64346 13.7671,9.06467 33.58256,10.20454 43.63317,23.26925 8.45785,10.99429 -9.15347,41.99709 -0.42273,25.99117 12.93437,-23.17963 25.20604,-46.77967 34.52148,-71.68967 2.006,-5.75944 4.28029,-11.43234 6.01798,-17.278331 5.41195,-18.207004 7.66911,-35.847334 5.79722,-54.695095 -6.21009,-52.6681571 -80.69411,-43.88575719 -74.48402,8.782399 z"/>
<path d="m 665.83796,187.19813 c -14.32177,-18.89765 1.63667,2.9401 -6.76874,-10.32298 -0.22432,-0.35396 -0.85948,-1.13338 -1.01361,-0.7437 -0.87823,2.22046 -0.87538,4.69823 -1.46563,7.01195 -1.00908,3.95553 -2.00878,7.92271 -3.3297,11.7853 -1.79047,5.23565 -3.99625,10.31993 -5.99438,15.4799 -7.78518,17.15039 -10.11428,23.40067 -19.8422,40.02309 -4.14914,7.08979 -8.8063,13.8698 -13.20945,20.8047 -28.24129,44.88796 35.23988,84.82718 63.48117,39.93921 v 0 c 5.32564,-8.52847 10.95641,-16.87382 15.97691,-25.58542 11.73149,-20.35654 14.43917,-27.82376 23.82332,-48.86084 2.74534,-7.4967 5.83098,-14.87739 8.23602,-22.49008 3.09902,-9.80935 6.69068,-25.18975 7.28762,-35.77385 0.62415,-11.06651 -0.015,-20.42445 -4.58417,-30.57984 -1.81795,-4.04053 -4.77208,-7.46663 -7.15812,-11.19995 -35.71774,-39.201316 -91.15677,11.31119 -55.43904,50.51251 z"/>
<path d="m 444.16165,279.61384 c 2.85283,2.32294 4.40868,3.46766 7.09205,6.27723 7.06421,7.39646 13.51686,15.74045 19.33679,24.12337 2.53136,3.64614 4.84114,7.44123 7.26171,11.16184 2.17289,3.69836 4.34578,7.39673 6.51868,11.09509 27.01441,45.63684 91.55465,7.43268 64.54023,-38.20416 v 0 c -2.80075,-4.70387 -5.6015,-9.40774 -8.40226,-14.11161 -3.28585,-4.95332 -6.43232,-10.00198 -9.85756,-14.85996 -11.83953,-16.7919 -25.26203,-32.89043 -41.55405,-45.53006 -42.46053,-31.77426 -87.39612,28.274 -44.93559,60.04826 z"/>
<path d="m 157.85887,369.18122 c 6.21083,25.21115 11.80039,50.56801 17.71258,75.8513 9.04976,37.37633 20.67097,74.04439 33.14628,110.39693 17.21916,50.15975 88.15576,25.80818 70.9366,-24.35157 v 0 c -11.66377,-33.9653 -22.5656,-68.21371 -31.05478,-103.13036 -5.73543,-24.50316 -11.07338,-49.0979 -17.20346,-73.50663 -10.42299,-51.99867 -83.96021,-37.25833 -73.53722,14.74033 z"/>
<path d="m 321.02227,441.65566 c 18.8732,-7.68505 37.60492,-15.71262 56.78984,-22.61523 7.70278,-2.77141 15.47458,-5.34711 23.21187,-8.02066 54.62257,-17.45784 110.79488,-30.21468 167.62708,-37.92842 12.05084,-1.63564 24.16173,-2.79344 36.24259,-4.19016 38.88125,-3.75188 78.00635,-5.32451 117.04474,-3.56567 16.2552,0.73236 20.08794,1.31015 35.44535,2.85481 12.93035,1.97078 26.53196,3.25155 38.58114,8.78278 -12.06519,-4.32138 -15.68821,-16.39156 -18.86719,-27.92856 -0.82246,-2.98481 1.97264,-6.51828 0.55648,-9.27145 -0.81036,-1.57543 -2.05834,2.8842 -3.1077,4.3116 -2.88157,3.91971 -5.78993,7.81964 -8.6849,11.72947 -25.89389,32.61093 -51.97336,65.06548 -78.40866,97.2388 -33.66464,40.97795 24.28694,88.58693 57.95157,47.60898 v 0 c 27.38001,-33.3329 54.43599,-66.92426 81.15349,-100.79161 5.20761,-7.27481 16.97119,-22.43849 20.49917,-31.66791 2.47775,-6.48194 5.60899,-13.28503 5.0333,-20.20048 -1.69129,-20.31657 -6.66393,-26.42113 -20.29827,-36.61066 -2.03555,-1.52126 -4.49752,-2.36708 -6.74628,-3.55062 -5.4469,-2.22826 -6.74111,-2.87702 -12.61037,-4.73311 -15.48614,-4.89734 -31.55137,-7.6758 -47.65789,-9.55188 -17.65809,-1.72648 -22.1946,-2.39091 -40.73375,-3.1906 -42.63731,-1.83917 -85.36465,-0.1233 -127.8228,4.03922 -13.05228,1.52916 -26.13726,2.80118 -39.15684,4.58749 -61.23396,8.40141 -121.74919,22.22417 -180.57766,41.15545 -8.39898,2.91312 -16.83486,5.72192 -25.19693,8.73937 -18.57227,6.70179 -36.82292,14.25323 -54.99428,21.96241 -50.06786,17.48456 -25.34095,88.2912 24.7269,70.80664 z"/>
<path d="m 391.16176,528.55336 c 2.66572,-0.59453 5.35193,-1.10367 7.99716,-1.78359 14.20619,-3.65154 28.19683,-8.34879 42.19416,-12.70069 29.09389,-9.04555 10.257,-3.28576 40.71481,-12.49032 26.14445,-7.64171 52.5346,-14.62526 79.4685,-18.87909 12.4901,-1.97264 14.93039,-1.99461 26.83246,-3.02571 6.7587,-0.23017 9.41396,-0.51701 15.72387,-0.12099 1.30696,0.082 2.60977,0.24493 3.90167,0.45908 0.53134,0.0881 1.84337,-0.009 1.55326,0.44514 -0.31147,0.4872 -1.17825,0.0105 -1.72589,-0.17512 -1.91438,-0.64892 -3.73783,-1.54029 -5.60674,-2.31043 -10.30834,-8.99132 -10.04458,-6.62579 -15.06893,-20.68284 -0.70839,-1.98192 0.27081,-4.44753 -0.79183,-6.26429 -0.53563,-0.91574 -0.79151,1.96977 -1.13248,2.97437 -1.1165,3.28949 -2.15936,6.6035 -3.23904,9.90525 -1.70657,4.94758 -3.41313,9.89516 -5.1197,14.84273 -2.30328,6.04268 -4.49967,12.12718 -6.90984,18.12803 -4.14398,10.31771 -13.98877,33.0413 -18.25255,42.91844 -10.51879,24.36702 -7.77956,18.03657 -17.91369,41.07636 -21.35096,48.5452 47.30231,78.74003 68.65328,30.19483 v 0 c 10.15684,-23.09526 7.68159,-17.36284 18.14866,-41.61636 5.23517,-12.13055 14.56464,-33.6447 19.47144,-45.92764 2.69121,-6.73678 5.14303,-13.56673 7.71454,-20.3501 2.3873,-6.94068 7.6458,-21.84233 9.81076,-29.46186 2.44187,-8.5941 5.27536,-19.35738 3.60471,-28.3549 -3.46429,-18.65736 -6.8514,-18.72577 -18.92586,-30.79369 -3.44616,-1.76631 -6.75771,-3.82452 -10.3385,-5.29892 -2.80191,-1.1537 -5.77272,-1.86924 -8.72525,-2.55067 -13.58291,-3.13492 -27.765,-2.35913 -41.54867,-1.73505 -14.8908,1.37707 -18.01344,1.43097 -33.40231,3.91062 -29.76903,4.79676 -58.97621,12.41906 -87.88284,20.90097 -27.18096,8.21798 -54.20607,16.98544 -81.50841,24.78245 -52.31458,8.69971 -40.01133,82.68369 12.30325,73.98399 z"/>
<path d="m 438.91074,648.85141 c 24.59807,-5.95254 49.44348,-10.77482 74.40751,-14.89485 15.72915,-1.8782 31.81033,-4.78554 47.68453,-2.64863 1.54154,0.20752 3.05049,0.61006 4.57573,0.91509 52.32887,8.61332 64.50994,-65.39087 12.18107,-74.00419 v 0 c -3.81725,-0.57435 -7.61096,-1.33642 -11.45177,-1.72304 -21.79866,-2.19425 -43.68408,0.37909 -65.25698,3.47083 -6.40375,1.06611 -12.82137,2.05204 -19.21126,3.19833 -20.48318,3.67448 -40.82502,8.16319 -61.08095,12.91628 -51.4563,12.83549 -33.30417,85.60568 18.15212,72.77018 z"/>
<path d="m 372.52997,494.09992 c -0.007,2.01404 -0.10116,4.02969 -0.0206,6.04213 0.47167,11.77869 2.32213,23.51046 3.55685,35.2165 2.23781,21.21593 1.89009,19.1856 3.53985,41.94857 2.81556,52.9914 2.77796,106.13462 0.25491,159.13799 -0.5328,11.19275 -1.30398,22.37287 -1.95597,33.5593 -2.70775,35.9177 -6.05491,71.86481 -12.23754,107.37623 -2.26027,12.98242 -3.3104,16.98152 -6.05654,29.0473 -0.76471,2.86709 -1.52942,5.73418 -2.29414,8.60127 -13.52981,51.27811 58.98838,70.41216 72.5182,19.13406 v 0 c 0.9768,-3.73328 1.95361,-7.46655 2.93042,-11.19983 3.20562,-14.26498 4.35279,-18.63861 6.98802,-33.90933 6.54764,-37.94243 10.17763,-76.3318 13.02559,-114.70427 0.67692,-11.71133 1.47855,-23.41612 2.03076,-35.134 2.6271,-55.74693 2.63194,-111.64115 -0.40286,-167.37066 -0.60943,-8.28913 -1.12438,-16.58575 -1.82829,-24.86739 -1.16901,-13.75366 -2.19151,-21.6564 -3.6694,-34.80045 -0.40226,-3.57762 -0.97148,-9.35723 -1.526,-13.38863 3.31548,-52.92927 -71.53781,-57.61806 -74.85329,-4.68879 z"/>
<path d="m 443.01496,770.51522 c 17.41004,-7.06191 35.12013,-13.39587 53.33111,-18.08448 6.57982,-1.69405 13.22683,-3.11546 19.84025,-4.6732 35.93294,-7.29026 72.44341,-12.31145 109.08209,-14.1861 5.85584,-0.29961 11.7217,-0.35222 17.58256,-0.52833 19.37823,-0.29802 38.69328,1.31941 57.92783,3.47896 0.63698,0.0731 5.87139,0.67454 6.91103,0.79111 0.81111,0.091 3.2365,0.42623 2.43018,0.29965 -0.71899,-0.11288 -1.46238,-0.13495 -2.15248,-0.36614 -2.91146,-0.97537 -5.74775,-2.1622 -8.62162,-3.24331 -21.89952,-21.6111 -9.13808,-5.23235 -17.52545,-22.59404 -0.15106,-0.31268 -0.28677,0.64791 -0.31081,0.99434 -0.18865,2.71834 -0.17471,5.44744 -0.32506,8.16817 -0.782,14.15121 -1.06618,15.6163 -2.44946,30.87493 -3.86052,43.50145 -13.62944,86.09065 -24.56874,128.26729 -2.17392,7.56024 -5.58217,20.9202 -9.19811,28.54155 -1.17073,2.46755 -3.0171,4.55354 -4.52565,6.8303 -26.26531,46.07205 38.8904,83.21681 65.15571,37.14477 v 0 c 3.30125,-6.1601 7.03702,-12.10636 9.90373,-18.48029 4.41829,-9.82377 8.34685,-25.01711 11.26912,-35.23361 11.96492,-46.26704 22.43989,-92.63226 26.66269,-140.35457 1.30931,-14.67465 2.05086,-21.01935 2.71197,-35.18003 0.49971,-10.70345 1.42785,-28.49956 -4.58592,-37.88734 -4.06328,-6.34297 -10.31304,-10.98251 -15.46956,-16.47376 -3.47458,-1.4187 -6.87927,-3.02235 -10.42375,-4.2561 -4.98454,-1.735 -11.35672,-1.39789 -16.53701,-2.37657 -22.79362,-2.54905 -45.69161,-4.34367 -68.65147,-3.90777 -6.82912,0.22557 -13.66407,0.31544 -20.48736,0.67671 -40.69904,2.15493 -81.24919,7.77621 -121.13873,16.03085 -7.71478,1.84601 -15.4705,3.52861 -23.14435,5.53804 -19.5098,5.10871 -38.63556,11.67026 -57.28277,19.33468 -50.10155,17.38778 -25.51153,88.24207 24.59003,70.85429 z"/>
<path d="m 416.52332,938.12913 c 22.02173,-2.23195 44.05856,-4.19773 66.14006,-5.75148 35.21192,-2.216 70.50552,-3.60313 105.79248,-2.96967 6.5235,0.11711 13.04338,0.38637 19.56506,0.57956 22.47895,0.67728 44.76044,3.7351 67.02162,6.6838 52.57382,6.96373 62.42203,-67.38688 9.84821,-74.35061 v 0 c -24.80309,-3.28525 -49.64065,-6.57208 -74.68523,-7.30137 -7.08194,-0.20323 -14.16202,-0.48801 -21.24584,-0.60969 -37.21668,-0.63927 -74.44005,0.80181 -111.57694,3.15411 -22.23321,1.5739 -44.42878,3.49829 -66.59886,5.78528 -52.87749,4.0584 -47.13806,78.83847 5.73944,74.78007 z"/>
</svg>
