<?xml version="1.0" ?>
<svg xmlns="http://www.w3.org/2000/svg" viewBox="0 0 1000 1000">
<path d="m 183.60448,79.932756 c -0.68905,15.574538 -1.54598,31.133704 -4.68292,46.449514 -1.09317,5.33731 -2.54158,10.59566 -3.81237,15.89349 -7.53365,28.15882 -18.69842,55.13559 -27.68297,82.82142 -2.91381,23.4895 -7.73374,33.17801 25.366,52.93587 9.36696,5.59131 21.95145,0.39075 32.69104,-1.52342 6.08369,-1.08433 11.38109,-4.82048 17.02473,-7.33767 12.87971,-5.74465 25.64035,-11.75276 38.48158,-17.58291 36.83566,-16.07791 74.74846,-30.13621 113.99896,-39.08576 6.38175,-1.45511 12.8369,-2.56714 19.25535,-3.85071 16.98631,-2.82209 34.16454,-5.26569 51.41185,-4.19949 52.96637,2.65772 56.72495,-72.24804 3.75858,-74.90576 v 0 c -8.31127,-0.36541 -10.88314,-0.62921 -19.74025,-0.27681 -16.89184,0.67209 -33.66915,3.01468 -50.31237,5.87341 -7.63446,1.56151 -15.31152,2.92757 -22.90338,4.68453 -43.52137,10.07199 -85.61606,25.57311 -126.47563,43.47023 -11.45503,5.20141 -26.53183,12.00323 -38.13784,17.42788 -2.91593,1.36291 -11.10208,2.0437 -8.70103,4.18733 4.33815,3.87303 13.0431,-0.80867 17.12504,3.33351 24.59783,24.96082 23.6633,23.35391 18.54359,39.84995 9.4688,-29.67419 21.80039,-58.44061 29.32635,-88.74306 1.61117,-7.0257 3.45745,-14.0016 4.8335,-21.07711 3.74231,-19.24261 4.96913,-38.794994 5.63219,-58.344434 0,-53.033008 -75,-53.033008 -75,0 z"/>
<path d="m 309.68305,225.45207 c 1.31206,2.08948 2.62853,4.17619 3.93617,6.26843 4.40468,7.0476 5.33338,8.33277 9.35952,15.95142 3.46052,6.54831 8.98608,18.01415 12.14394,24.28904 2.46574,4.89964 4.99177,9.7687 7.48766,14.65305 11.13393,20.33331 5.31058,10.10537 17.50227,30.66547 27.10548,45.58282 91.56932,7.24989 64.46384,-38.33293 v 0 c -10.5435,-17.67309 -5.48814,-8.8449 -15.18695,-26.47262 -11.08085,-21.66366 -21.10335,-43.99085 -34.62414,-64.29508 -26.35614,-46.02014 -91.43845,-8.74692 -65.08231,37.27322 z"/>
<path d="m 553.09014,66.610314 c 0.17551,11.453605 0.68295,22.91605 -1.75059,34.211106 -0.87168,4.04579 -2.13897,7.9961 -3.20846,11.99415 -6.0495,18.81925 -13.33065,37.21604 -20.51363,55.6238 -1.39862,3.58423 -2.89885,7.12991 -4.21423,10.74552 -1.2145,3.33833 -2.24858,6.73956 -3.37287,10.10934 -2.46785,27.27271 -7.31725,31.7957 30.55971,54.11178 9.44986,5.5676 35.91119,-3.24506 46.0158,-6.39022 6.4743,-2.0152 12.85455,-4.32202 19.30717,-6.4056 6.92143,-2.23497 13.87584,-4.36645 20.81376,-6.54967 33.38744,-9.84249 67.7204,-17.55408 102.62673,-18.86728 4.85187,-0.18253 9.71055,0.031 14.56583,0.0465 12.22576,0.63007 24.34433,2.87594 35.1355,8.80553 47.50551,23.57384 80.84396,-43.6091 33.33844,-67.18294 v 0 c -2.98856,-1.43 -5.9123,-3.00422 -8.96568,-4.28999 -18.94857,-7.97918 -39.26098,-11.61941 -59.75414,-12.33219 -6.62647,0.0531 -13.25911,-0.1313 -19.87942,0.15943 -40.66334,1.78568 -80.69222,10.57109 -119.5953,22.12432 -27.74185,8.74259 -14.72925,4.51115 -39.47834,12.75607 -3.32413,1.10741 -8.26135,0.26525 -9.97216,3.32292 -1.16032,2.07381 5.10387,0.87153 6.58604,2.72901 24.67524,30.92346 24.946,21.19594 19.97775,41.28444 3.15909,-9.98476 1.02936,-3.7249 6.21486,-17.01691 8.33607,-21.36788 16.82485,-42.7214 23.39544,-64.71641 1.5823,-6.68562 3.50771,-13.29924 4.7469,-20.05687 3.38593,-18.464208 3.20324,-37.926242 1.39597,-56.572562 -8.73753,-52.308275 -82.7126,-39.951549 -73.97508,12.356726 z"/>
<path d="m 666.68616,186.88009 c -6.06289,17.7025 -12.3822,35.30952 -19.94684,52.43817 -2.9726,6.73087 -6.15757,13.36593 -9.23635,20.0489 -15.54899,29.92844 -7.28789,14.78759 -24.87033,45.37496 -26.37066,46.01183 38.69989,83.30558 65.07055,37.29375 v 0 c 19.68633,-34.44003 10.39524,-17.30705 27.95082,-51.3568 3.42765,-7.47843 6.97987,-14.90101 10.28295,-22.43529 8.76185,-19.98564 16.21138,-40.52152 23.00146,-61.24877 14.2234,-51.09007 -58.02887,-71.20498 -72.25226,-20.11492 z"/>
<path d="m 243.06105,451.58883 c 19.53723,-3.73917 39.39628,-11.11436 58.45653,-17.7606 37.66234,-13.37921 76.57606,-22.54848 115.67657,-30.53621 10.8702,-2.05634 21.78769,-3.98618 32.81417,-4.99219 3.10215,-0.28303 6.77288,-0.69174 9.93505,-0.19698 -2.165,-0.0432 -3.63147,0.0256 -5.96651,-1.01774 -12.60101,-5.63067 -14.63154,-7.66517 -22.04701,-21.6308 -2.33423,-4.3961 -1.59913,-13.10635 -2.00072,-6.55446 -0.50054,26.33056 -0.19677,52.67159 -0.26053,79.00636 -0.59082,31.06914 0.24888,62.29502 -3.1516,93.2419 -0.55275,5.0305 -1.3911,10.0255 -2.08666,15.03825 -3.09024,17.69646 -10.50171,34.07446 -18.31561,50.09668 -23.12682,47.72473 44.36614,80.431 67.49297,32.70626 v 0 c 11.18784,-23.20164 21.17596,-47.09194 25.14473,-72.74171 0.8361,-6.30155 1.8352,-12.58361 2.5083,-18.90464 3.50923,-32.95536 2.87633,-66.17419 3.40765,-99.2566 0.0606,-25.43341 -0.20512,-50.8719 0.20527,-76.30207 0.19124,-6.34059 0.7754,-14.12322 -1.74384,-19.90043 -2.91855,-6.69294 -6.96745,-13.04439 -12.03076,-18.3052 -6.97178,-7.24372 -17.49456,-9.17497 -26.86196,-10.3528 -2.16014,-0.0905 -4.31845,-0.25578 -6.48043,-0.27161 -18.72249,-0.13707 -37.25013,3.63676 -55.59498,6.85972 -15.26406,3.12703 -23.3187,4.67429 -38.83975,8.3125 -29.2305,6.85177 -58.15179,15.05143 -86.52115,24.8916 -13.11744,4.58384 -26.203,9.46243 -39.64216,13.05491 -4.37908,1.17058 -7.24497,1.62656 -11.50418,2.62785 -1.37251,0.32266 -2.73365,0.6919 -4.10047,1.03785 -50.80573,15.2078 -29.29866,87.05796 21.50708,71.85016 z"/>
<path d="m 281.03824,564.58716 c 14.06446,-5.6657 28.10086,-11.36649 42.6014,-15.85593 5.13409,-1.58954 10.32688,-2.98292 15.49033,-4.47437 21.87427,-5.96544 44.23499,-9.93905 66.79821,-12.08902 11.33189,-1.07978 14.68466,-1.0935 25.58267,-1.55925 2.98252,-0.001 5.96504,-0.003 8.94756,-0.004 53.0326,-0.2091 52.73688,-75.20852 -0.29572,-74.99941 v 0 c -3.99591,0.026 -7.99182,0.0521 -11.98773,0.0781 -12.99548,0.59771 -17.33637,0.64015 -30.77499,1.97148 -26.76216,2.65126 -53.28201,7.4463 -79.21854,14.58758 -6.12372,1.79188 -12.28195,3.46981 -18.37117,5.37564 -14.92951,4.67272 -29.50747,10.32705 -43.94697,16.32107 -49.95609,17.80138 -24.78114,88.44996 25.17495,70.64858 z"/>
<path d="m 273.80856,678.86492 c 16.74249,-5.28588 33.72031,-9.83342 51.013,-12.9329 6.04501,-1.08349 12.12865,-1.93905 18.19298,-2.90857 29.46645,-4.39264 59.22579,-5.41954 88.96583,-5.1872 53.03175,0.36619 53.54962,-74.63202 0.51788,-74.99822 v 0 c -14.65095,-0.0895 -20.69023,-0.2739 -35.78386,0.29688 -21.97204,0.8309 -43.89574,2.76908 -65.66784,5.84958 -7.07729,1.15474 -14.17887,2.16931 -21.23186,3.46424 -19.4754,3.57568 -38.63565,8.62104 -57.51321,14.56602 -50.80573,15.2078 -29.29866,87.05796 21.50708,71.85017 z"/>
<path d="m 220.06179,442.59316 c -2.77635,28.31525 -5.32939,56.65199 -7.87792,84.98851 -3.79118,40.97001 -7.04013,81.99742 -9.13418,123.09229 -1.42854,28.0346 -1.50949,35.64619 -2.33083,63.38597 -1.06531,40.74501 -0.059,81.49815 1.39403,122.21805 0.37997,6.73983 0.34819,13.5059 0.88853,20.23801 0.12784,1.59274 0.10792,3.21759 0.49428,4.76805 1.08741,4.36378 0.83219,9.63456 3.91146,12.91223 8.01926,8.53596 18.71428,14.08757 28.07142,21.13136 7.05105,-0.67792 14.15838,-0.91562 21.15314,-2.03375 1.9784,-0.31626 3.71606,-1.49915 5.57787,-2.23927 1.54415,-0.61384 3.08459,-1.2377 4.63994,-1.82257 9.42722,-3.54504 19.03157,-6.56392 28.6129,-9.65787 22.16058,-7.32465 44.82508,-12.91121 67.4832,-18.43254 51.52151,-12.57112 33.74326,-85.43355 -17.77826,-72.86243 v 0 c -24.43512,5.96939 -48.86892,12.03452 -72.77153,19.93018 -11.07985,3.58438 -22.16318,7.12054 -33.05549,11.24985 -1.9833,0.75187 -3.95478,1.53525 -5.9173,2.3398 -0.41021,0.16817 -1.64157,0.5811 -1.19824,0.57727 5.78009,-0.0499 11.55073,-0.47776 17.32609,-0.71664 8.5863,6.89653 18.31187,12.57612 25.75889,20.68961 2.39991,2.61468 1.78113,6.87112 2.68748,10.30254 0.0539,0.20421 -0.11243,-0.40969 -0.13003,-0.62017 -0.10054,-1.20245 -0.16614,-2.40774 -0.22392,-3.613 -0.0673,-1.40452 -0.57265,-14.67272 -0.57819,-14.817 -1.39685,-39.09152 -2.38991,-78.21472 -1.37886,-117.3309 0.78495,-26.72804 0.86593,-34.23343 2.23697,-61.24343 2.04594,-40.30589 5.23886,-80.54479 8.95914,-120.72755 2.56269,-28.49516 5.13728,-56.98963 7.91919,-85.46437 4.41392,-52.84901 -70.32585,-59.09124 -74.73978,-6.24223 z"/>
<path d="m 402.2112,789.71187 c 1.13092,0.73949 2.31594,1.40222 3.39278,2.21847 7.11759,5.39524 13.24233,14.08234 17.69454,21.63282 2.03238,3.44668 3.75346,7.0677 5.63019,10.60155 25.57877,46.45671 91.27849,10.28286 65.69971,-36.17385 v 0 c -3.16686,-5.62642 -6.07543,-11.40625 -9.50058,-16.87927 -11.20229,-17.90007 -25.66672,-34.09425 -43.67314,-45.31332 -45.19374,-27.74935 -84.43724,36.16425 -39.2435,63.9136 z"/>
<path d="m 568.96929,453.63926 c 16.72059,-9.14833 34.46799,-16.16558 52.28041,-22.84532 31.55823,-11.37359 64.46137,-18.16964 97.53121,-23.31537 10.5688,-1.46452 21.20282,-2.50292 31.87071,-2.82867 4.57856,-0.13981 9.17403,-0.24333 13.69122,0.57828 -3.01907,0.50693 -6.72898,-1.68046 -9.12041,-3.22651 -0.9371,-0.60584 -1.72003,-1.42275 -2.60358,-2.10432 -0.30276,-0.23356 -0.82594,-0.99978 -0.95266,-0.63901 -0.23472,0.66828 0.29834,1.38483 0.44751,2.07725 3.73596,18.26332 4.99029,37.0117 5.26322,55.62468 0.093,6.34243 -0.0733,12.68602 -0.10995,19.02902 -0.80637,27.44801 -5.11326,54.65294 -11.56653,81.31004 -3.41189,14.0938 -5.73533,21.30926 -9.8091,35.03457 -3.85055,11.94149 -7.8616,23.87933 -13.13152,35.28622 -2.11815,4.58479 -4.45701,9.07305 -7.5958,13.03618 0.26002,-2.35079 4.99076,-5.18587 6.58123,-5.98711 1.59224,-0.80214 3.33103,-1.27395 5.01522,-1.85889 0.68557,-0.23811 2.2462,0.0998 2.09031,-0.60896 -0.17982,-0.81759 -1.59488,-0.50945 -2.39232,-0.76418 -10.56137,-2.40449 -21.03577,-5.14983 -31.50104,-7.9359 -51.25471,-13.61818 -70.51372,58.86692 -19.25901,72.4851 v 0 c 12.16403,3.22619 24.33451,6.43325 36.63515,9.1087 9.3988,1.55914 14.88209,3.11007 24.5938,2.02294 12.83243,-1.43647 23.79479,-6.97392 33.06452,-15.81752 2.39683,-2.28665 4.34676,-4.99999 6.52015,-7.49999 1.74297,-2.56483 3.5944,-5.05922 5.22891,-7.6945 11.95504,-19.27496 19.01132,-41.11801 26.07163,-62.50387 4.6859,-15.89781 7.23917,-23.83363 11.15051,-40.25331 7.58225,-31.83003 12.48791,-64.31594 13.30329,-97.06141 0.018,-7.41235 0.18515,-14.82584 0.0541,-22.23705 -0.20557,-11.62384 -1.02008,-25.93157 -2.17973,-37.60456 -0.8783,-8.8409 -2.35622,-19.75901 -4.28802,-28.5304 -0.88616,-4.02363 -2.10672,-7.96627 -3.16008,-11.94941 -3.33155,-8.58889 -4.54817,-13.22513 -9.96452,-20.92261 -7.65123,-10.8736 -17.22038,-17.80954 -29.7586,-22.08813 -3.06082,-1.04449 -6.30523,-1.44301 -9.45785,-2.16451 -2.79237,-0.30093 -5.57548,-0.70579 -8.3771,-0.90278 -19.35068,-1.36058 -38.80473,1.1934 -57.96597,3.49505 -5.54737,0.8748 -11.10866,1.66543 -16.6421,2.62438 -32.49577,5.63159 -64.6518,13.49384 -95.72686,24.60542 -5.63159,2.13143 -11.30014,4.16765 -16.89477,6.3943 -16.23493,6.46145 -32.18677,13.78447 -47.4591,22.28206 -45.5024,27.24027 -6.97884,91.59037 38.52355,64.3501 z"/>
<path d="m 551.69242,495.53305 c 0.0477,26.34028 1.34698,52.65799 2.65189,78.95926 3.97592,64.66237 5.17866,129.43578 5.97223,194.20018 0.34055,33.22957 0.53086,66.47168 -0.25938,99.69741 -0.23272,9.78477 -0.65542,19.5641 -0.98313,29.34615 -1.7639,53.00367 73.1946,55.49821 74.9585,2.49454 v 0 c 0.33887,-10.24794 0.77513,-20.49312 1.01661,-30.74381 0.79852,-33.8981 0.60977,-67.81261 0.26175,-101.71455 -0.80734,-65.69865 -2.03627,-131.40628 -6.05899,-197.00186 -1.24712,-25.06147 -2.50125,-50.13858 -2.55948,-75.23732 0,-53.03301 -75,-53.03301 -75,0 z"/>
</svg>
