<?xml version="1.0" ?>
<svg xmlns="http://www.w3.org/2000/svg" width="1000" height="1000">
<path d="m 215.27987,54.010983 c 0.2741,1.319563 0.63014,2.813789 0.7101,4.159431 0.165,2.776603 -0.0371,5.563721 -0.13947,8.343337 -0.38683,10.502914 -0.43298,9.126313 -1.50997,20.350869 -0.72996,3.707994 -1.26368,7.460077 -2.1899,11.123983 -2.04036,8.071277 -5.62183,17.809887 -8.62386,25.470817 -4.50882,11.50611 -9.66662,22.72883 -14.88247,33.92494 -2.94331,6.13388 -13.11552,25.1345 -9.94794,30.52085 9.09439,15.46462 20.83418,30.75578 36.43585,39.61299 7.80281,4.42972 30.75254,-7.82401 38.80007,-11.63128 29.74304,-15.60766 60.24808,-29.85556 92.05083,-40.77518 6.44401,-2.21258 12.98573,-4.12962 19.4786,-6.19443 20.62269,-5.79917 41.47216,-11.26403 62.79454,-13.77971 7.69203,-0.90754 10.24665,-0.86105 17.59673,-1.11442 7.43044,0.13064 3.95686,-0.008 10.42281,0.36026 52.96649,2.65533 56.7217,-72.2506 3.75521,-74.905932 v 0 c -10.7589,-0.495354 -5.01617,-0.334808 -17.23045,-0.392185 -10.92311,0.490855 -14.13005,0.437709 -25.45993,1.850863 -25.3639,3.163593 -50.21483,9.491077 -74.73548,16.5488 -7.53467,2.423656 -15.12486,4.681074 -22.60402,7.270964 -34.04916,11.79061 -66.83338,26.88419 -98.71556,43.60918 -2.78861,1.39736 -9.74252,1.3932 -8.36583,4.19207 1.56706,3.1859 8.08994,-2.03167 10.64238,0.43626 11.77397,11.38413 22.12126,24.54614 30.02876,38.88824 1.69136,3.06767 -2.38757,6.6179 -3.04156,10.05935 -0.88962,4.6814 9.19227,-26.06282 6.09994,-12.92875 14.1473,-30.46383 27.95423,-61.66102 32.37462,-95.262914 1.6872,-18.887416 3.64054,-38.27045 -0.74638,-56.953189 -12.1727,-51.617105 -85.17031,-34.40232 -72.99762,17.214786 z"/>
<path d="m 311.23083,170.99173 c 5.62124,9.75363 9.64507,20.29989 14.69928,30.33317 6.38257,12.67024 9.31786,17.24719 16.54304,29.62453 2.79331,4.96306 5.58662,9.92613 8.37992,14.88919 26.02577,46.20779 91.37345,9.4018 65.34768,-36.80599 v 0 c -3.00405,-5.32995 -6.00811,-10.65989 -9.01217,-15.98984 -4.65983,-7.92312 -9.18233,-15.28281 -13.31181,-23.47087 -5.36622,-10.64033 -9.64943,-21.82607 -15.59386,-32.18107 -23.75941,-47.412976 -90.81149,-13.81209 -67.05208,33.60088 z"/>
<path d="m 541.66296,41.630952 c -0.29462,12.063623 0.71298,24.236784 -0.82462,36.249088 -0.38243,2.987646 -1.06342,5.929441 -1.59512,8.894161 -4.99194,19.852079 -14.17771,38.293409 -22.72004,56.795259 -10.23811,21.81343 -19.1413,36.51115 11.52722,62.88797 14.03628,12.07207 32.26279,1.55555 44.99957,-4.65424 22.24246,-11.05901 45.65057,-19.86194 69.85901,-25.53124 5.84478,-1.36878 11.76751,-2.38026 17.65127,-3.57038 21.8607,-3.77578 44.05026,-5.37466 66.22275,-4.78529 10.41863,0.27694 13.67236,0.70298 23.66438,1.58024 6.97892,0.6186 13.85814,1.87632 20.6974,3.34345 51.92361,10.79067 67.18392,-62.64041 15.26031,-73.43108 v 0 c -9.79027,-1.994108 -19.61838,-3.796729 -29.59047,-4.6416 -12.47003,-1.03698 -16.79427,-1.574844 -29.73587,-1.850424 -27.35903,-0.582585 -54.72936,1.498887 -81.6717,6.331448 -7.36506,1.543066 -14.77908,2.868616 -22.09519,4.629206 -28.92503,6.96067 -56.9194,17.5158 -83.55244,30.71898 -17.44028,8.87989 11.67896,-7.11936 23.33845,5.5535 27.36934,29.74812 8.61794,62.44574 18.53942,41.24187 0.99563,-2.12782 1.98662,-4.25781 2.97992,-6.38672 11.38788,-24.6703 23.26639,-49.41834 28.66225,-76.246175 0.79171,-5.210705 1.7828,-10.394998 2.37512,-15.632116 1.55817,-13.776737 0.82752,-27.670854 1.00838,-41.495907 0,-53.033009 -75,-53.033009 -75,0 z"/>
<path d="m 625.05281,161.80812 c 0.12815,9.43749 0.0479,18.85493 -2.23186,28.07716 -1.96962,7.96749 -5.53945,17.94039 -8.07892,25.49191 -8.15214,21.60047 -3.67551,10.87629 -13.46264,32.15885 -21.92805,48.28726 46.36045,79.29822 68.28851,31.01095 v 0 c 12.06049,-26.82161 6.66386,-13.62634 16.34802,-39.52075 4.46618,-13.5705 7.95242,-22.9015 10.9031,-36.92273 2.79634,-13.28782 3.44555,-26.76977 3.23379,-40.29539 0,-53.03301 -75,-53.03301 -75,0 z"/>
<path d="m 215.05384,364.00257 c 24.07704,-2.17561 48.01394,-5.61423 72.00348,-8.5605 27.39408,-3.07291 54.92582,-5.02941 82.49594,-5.31453 15.18443,-0.15704 18.72562,0.0847 33.28576,0.52206 15.2083,0.92004 8.11629,0.36401 21.28318,1.57407 52.81971,4.75173 59.53966,-69.94662 6.71995,-74.69834 v 0 c -16.20581,-1.43276 -7.60289,-0.78834 -25.81529,-1.84382 -16.2259,-0.46122 -20.42979,-0.73238 -37.2667,-0.53254 -30.02806,0.35641 -60.01463,2.48057 -89.8495,5.85294 -23.42324,2.8794 -46.79491,6.24192 -70.30322,8.37124 -52.77097,5.2654 -45.32457,79.89482 7.4464,74.62942 z"/>
<path d="m 293.44793,339.29338 c -0.22412,20.50526 -0.67936,41.0101 -1.19412,61.5104 -0.80445,27.08768 -2.9837,54.1144 -6.46965,80.98708 -1.96143,15.12033 -2.98174,20.71627 -5.35495,35.3209 -8.48263,52.35022 65.55175,64.34647 74.03438,11.99626 v 0 c 2.58026,-15.96562 3.68069,-22.0189 5.80754,-38.55984 3.74901,-29.15677 6.09129,-58.47923 6.95912,-87.8649 0.52875,-21.12666 1.00173,-42.25791 1.21768,-63.3899 0,-53.03301 -75,-53.03301 -75,0 z"/>
<path d="m 222.41432,604.062 c 38.98685,-13.54378 78.23759,-26.32137 117.44731,-39.20239 28.19346,-9.33275 56.82189,-17.23031 85.43923,-25.12755 51.12021,-14.11467 31.15905,-86.40957 -19.96116,-72.2949 v 0 c -29.77225,8.22456 -59.5529,16.45942 -88.88625,26.16898 -40.03716,13.15316 -80.1211,26.18854 -119.91592,40.06132 -49.77645,18.29765 -23.89966,88.69219 25.87679,70.39454 z"/>
<path d="m 475.33223,288.66235 c 0.86018,14.83725 1.17075,29.70339 0.52723,44.55732 -0.24311,5.61148 -0.65832,11.21417 -0.98748,16.82126 -2.4243,30.53828 -6.21797,60.9874 -13.10849,90.86645 -4.80748,20.84649 -7.86203,30.1338 -13.88675,50.66024 -4.61918,13.70902 -9.5589,30.08228 -16.04743,43.23352 -2.42696,4.91906 -5.69087,9.37886 -8.5363,14.06828 -26.54087,45.91386 38.39112,83.44832 64.93199,37.53447 v 0 c 4.34842,-7.75543 9.18951,-15.2545 13.04525,-23.26628 7.53145,-15.64946 13.11802,-34.15483 18.59084,-50.51639 6.72827,-23.07858 10.04787,-33.18106 15.39339,-56.7447 7.57748,-33.40238 11.8702,-67.41281 14.49412,-101.53529 0.36332,-6.45035 0.82838,-12.89576 1.08996,-19.35103 0.67409,-16.63575 0.35797,-33.28654 -0.59162,-49.90358 -2.52843,-52.9727 -77.44314,-49.39697 -74.91471,3.57573 z"/>
<path d="m 548.79359,347.44738 c 20.18322,-4.89328 40.3903,-9.59359 60.78518,-13.52431 27.48182,-5.00311 55.31352,-7.54983 83.21106,-8.4068 10.58607,-0.004 21.31949,-0.18803 31.69591,2.20269 0.45204,0.11589 0.91425,0.19759 1.35611,0.34767 0.27049,0.0919 -0.56869,-0.0813 -0.83949,-0.17221 -1.14731,-0.38524 -2.36675,-0.63597 -3.40743,-1.2538 -3.30771,-1.96375 -6.93905,-3.64318 -9.56919,-6.45025 -8.70513,-9.29075 -8.18611,-11.09423 -10.60618,-20.98276 -0.0713,-0.48803 -0.1121,-1.94667 -0.21387,-1.46408 -0.27622,1.3098 -0.2193,2.66823 -0.32153,4.00293 -0.18114,2.36486 -0.36238,4.72975 -0.52859,7.0957 -0.80874,11.51261 -1.21517,22.99732 -1.50099,34.5345 -0.14782,27.38796 1.3607,54.81776 4.63312,82.01483 0.68135,5.66269 1.53906,11.30276 2.30859,16.95413 3.22301,21.66513 8.53382,42.98891 16.21517,63.50917 3.78995,10.1246 6.53765,15.89701 10.87357,25.5974 7.87277,17.14138 17.14706,33.58761 27.66062,49.23736 3.09306,3.75945 6.1751,9.46424 9.81144,12.72533 12.44966,11.16494 19.96906,16.42771 41.07549,12.50672 8.44975,-1.56972 14.55047,-9.15059 21.8257,-13.72588 11.30508,-14.18576 19.44917,-30.46327 28.25672,-46.22149 25.86936,-46.29553 -39.60241,-82.88033 -65.47177,-36.5848 v 0 c -3.16417,5.66394 -6.31313,11.33641 -9.49252,16.99183 -6.67632,11.87568 -6.41975,6.96272 -6.41884,12.87502 4.85675,-2.14827 9.26231,-6.27489 14.57024,-6.44481 8.64687,-0.27681 17.27358,2.29411 25.43494,5.16414 2.8736,1.01053 4.50714,4.09887 6.75416,6.15547 0.12933,0.11838 -0.28906,-0.20548 -0.40084,-0.34056 -1.15061,-1.39045 -2.78705,-3.69678 -3.78986,-5.07446 -8.18699,-12.03076 -15.23736,-24.79328 -21.39298,-37.97806 -3.12587,-6.92714 -5.76855,-12.52264 -8.49793,-19.63445 -6.06032,-15.79107 -10.20247,-32.23705 -12.71014,-48.95788 -0.67472,-4.86946 -1.42857,-9.72861 -2.02415,-14.60839 -2.92788,-23.98914 -4.2991,-48.18838 -4.24257,-72.35051 0.23124,-9.87168 0.20941,-12.51969 0.73053,-22.01204 0.39308,-7.16021 1.24303,-14.3185 1.53836,-21.48181 0.10813,-2.62267 0.0827,-5.24915 0.12412,-7.87372 -0.7453,-3.96403 -0.64047,-8.18756 -2.2359,-11.8921 -2.37474,-5.51408 -5.50448,-10.81575 -9.48085,-15.31385 -6.28279,-7.10714 -15.4985,-10.15529 -24.32351,-12.23267 -16.37595,-3.40235 -33.07693,-4.25867 -49.78336,-3.82629 -12.35449,0.40547 -15.90123,0.40231 -28.53674,1.3338 -22.29988,1.64395 -44.5167,4.51508 -66.53342,8.40055 -20.86726,4.05132 -41.57917,8.73598 -62.2195,13.81638 -51.86088,11.08823 -36.17976,84.43059 15.68112,73.34236 z"/>
<path d="m 579.90438,430.60893 c 7.0461,8.80703 13.62089,17.97875 20.00237,27.28573 30.0785,43.67818 91.84878,1.14076 61.77028,-42.53743 v 0 c -9.01094,-13.03922 -18.15033,-26.06203 -28.799,-37.84061 -37.54193,-37.45802 -90.51557,15.63428 -52.97365,53.09231 z"/>
<path d="m 198.29095,767.71119 c 29.15684,-8.37946 58.69224,-15.38758 88.50373,-21.01834 11.1549,-2.10693 22.3597,-3.94048 33.53956,-5.91071 70.29332,-11.14239 141.24351,-18.00772 212.34203,-21.0762 13.71107,-0.59174 27.4339,-0.86923 41.15084,-1.30385 41.34528,-0.85183 82.72388,-1.05256 124.05067,0.6704 15.65489,0.65267 20.40879,1.07268 35.2332,2.10032 3.95976,0.32727 7.91952,0.65455 11.87929,0.98182 52.85401,4.35346 59.01074,-70.39341 6.15672,-74.74687 v 0 c -4.29208,-0.35242 -8.58417,-0.70483 -12.87625,-1.05725 -16.01942,-1.09936 -21.03267,-1.54101 -37.91255,-2.23699 -42.95055,-1.77091 -85.95418,-1.57684 -128.9232,-0.67327 -14.27379,0.4586 -28.55377,0.75382 -42.82138,1.37581 -74.10985,3.23079 -148.06356,10.43007 -221.32538,22.10945 -11.83871,2.09575 -23.70409,4.04607 -35.51614,6.28726 -31.37827,5.95362 -62.47335,13.33099 -93.1739,22.12996 -51.17223,13.92488 -31.47948,86.29335 19.69276,72.36846 z"/>
<path d="m 458.92459,617.34927 c -0.17658,25.1925 0.24196,50.37802 0.83224,75.56243 1.71336,48.63274 1.30007,97.28478 0.61607,145.93001 -0.45954,21.57297 -0.41493,43.16436 -1.23229,64.72973 -0.23405,6.17519 -0.63042,12.34317 -0.94562,18.51475 -2.67182,52.96566 72.23293,56.74419 74.90476,3.77853 v 0 c 0.33883,-6.79409 0.76045,-13.58455 1.01651,-20.38225 0.82309,-21.85117 0.78805,-43.72813 1.24924,-65.58697 0.69629,-49.58393 1.10413,-99.17504 -0.62938,-148.74627 -0.57991,-24.597 -0.98663,-49.19498 -0.81153,-73.79996 0,-53.03301 -75,-53.03301 -75,0 z"/>
<path d="m 422.83186,713.03042 c -0.0871,-0.12948 -0.16822,-0.51362 -0.26139,-0.38842 -1.05487,1.41755 -1.80791,3.03887 -2.79936,4.50149 -4.13587,6.10139 -8.97672,12.4611 -13.70502,18.00714 -10.92219,12.8111 -15.65416,17.07096 -28.08064,29.63515 -38.50567,37.48131 -80.67484,70.92287 -124.21729,102.32774 -8.98831,6.48279 -18.14634,12.72695 -27.21951,19.09043 -8.81636,5.62866 -17.63273,11.25733 -26.44909,16.88599 -44.66882,28.58666 -4.24118,91.75791 40.42763,63.17125 v 0 c 9.7032,-6.22328 19.4064,-12.44656 29.1096,-18.66985 9.59345,-6.73872 19.27508,-13.35361 28.78035,-20.21616 46.67535,-33.69833 91.79592,-69.68515 133.0021,-109.96022 6.20629,-6.32367 12.56384,-12.50236 18.61888,-18.971 9.57903,-10.23334 17.80379,-19.8923 26.05792,-31.10619 4.82973,-6.56157 10.40691,-14.92744 14.1402,-22.34855 1.60894,-3.19828 2.84345,-6.57156 4.26518,-9.85734 15.62809,-50.67803 -56.04147,-72.77949 -71.66956,-22.10146 z"/>
<path d="m 488.53238,760.87226 c 16.68236,8.90003 32.2963,19.64963 47.95608,30.20074 30.21596,20.96204 59.49371,43.24303 88.4304,65.92668 18.32519,14.31115 36.06436,29.35848 54.52324,43.49781 10.18183,7.64069 21.07253,14.47385 33.22501,18.5157 3.327,1.10654 6.74509,1.91763 10.11763,2.87644 29.86144,6.2809 60.27788,10.01365 90.6883,12.37921 10.46275,0.81387 20.94638,1.33221 31.41957,1.99832 11.20799,0.41331 22.41598,0.82661 33.62397,1.23992 52.99775,1.9336 55.73227,-73.01654 2.73452,-74.95013 v 0 c -10.5466,-0.3804 -21.09321,-0.7608 -31.63982,-1.1412 -9.70996,-0.60625 -19.42943,-1.07567 -29.12988,-1.81875 -26.24632,-2.01054 -52.44737,-5.24095 -78.31097,-10.1587 -1.24564,-0.27205 -3.93338,-0.78791 -5.37275,-1.29482 -4.38116,-1.54294 -8.01391,-4.66008 -11.79856,-7.22416 -18.24753,-13.92377 -35.6812,-28.88075 -53.8161,-42.95038 -30.36011,-23.789 -61.07759,-47.15661 -92.80296,-69.10602 -19.39989,-13.05675 -38.77737,-26.45306 -59.84278,-36.72716 -48.60405,-21.21667 -78.60894,47.51983 -30.0049,68.7365 z"/>
</svg>
