<?xml version="1.0" ?>
<svg xmlns="http://www.w3.org/2000/svg" viewBox="0 0 1000 1000">
<path d="m 107.63903,226.92422 c 1.86579,3.45169 1.86889,3.3416 3.86466,7.83843 3.2999,7.43524 6.32834,14.98858 9.59651,22.43781 6.28634,14.32861 8.84469,19.61101 15.54081,34.00103 9.9312,21.88644 5.16548,11.19684 14.31867,32.05921 21.3157,48.56069 89.99089,18.41573 68.67518,-30.14496 v 0 c -9.63253,-21.93463 -4.63837,-10.74219 -15.00133,-33.56891 -5.97595,-12.82934 -8.95984,-19.03628 -14.55805,-31.79821 -5.89511,-13.43876 -11.00564,-27.31487 -18.47928,-39.99686 -27.69911,-45.22454 -91.656276,-6.05208 -63.95717,39.17246 z"/>
<path d="m 331.37687,140.5644 c -0.09,-0.0736 -0.24667,-0.33458 -0.26992,-0.22071 -3.74669,18.35296 3.41882,-10.88603 -3.20053,16.63411 -5.15226,21.42069 -11.23836,42.62624 -17.21339,63.82507 -8.82138,29.11577 -18.23679,58.06565 -29.30266,86.41664 -3.85656,9.88059 -8.05683,19.62356 -12.08525,29.43534 -20.10663,49.07365 49.29399,77.50873 69.40063,28.43507 v 0 c 4.34638,-10.62835 8.87704,-21.1832 13.03916,-31.88505 11.74945,-30.21076 21.78155,-61.0455 31.13923,-92.06869 7.25647,-25.78056 7.35603,-25.5707 13.64264,-49.85996 4.66976,-18.04231 9.74304,-36.33746 9.72009,-55.12579 -3.12115,-52.941085 -77.99115,-48.527115 -74.87,4.41397 z"/>
<path d="m 104.28677,472.61787 c 28.16938,-14.04253 59.31809,-20.81228 89.66985,-28.35196 41.06286,-9.62906 82.55547,-17.43347 124.41188,-22.6794 23.53164,-2.94925 32.5237,-3.52915 55.69683,-5.55762 21.43869,-1.95148 42.93394,-2.69439 64.44408,-3.12465 53.02148,-1.10546 51.45813,-76.08916 -1.56335,-74.9837 v 0 c -23.17993,0.50089 -46.34651,1.28276 -69.44942,3.39655 -24.77471,2.18715 -34.30632,2.80586 -59.49066,5.98875 -44.46777,5.62001 -88.55507,13.91692 -132.17778,24.18397 -36.59168,9.13821 -73.9797,17.74355 -107.623153,35.37771 -46.492523,25.51363 -10.4108,91.26398 36.081723,65.75035 z"/>
<path d="m 219.25339,120.63427 c -3.18149,29.59507 -1.10265,59.3986 0.71863,89.00205 0.75955,10.0384 1.52336,20.07647 2.27864,30.11519 2.84668,37.83607 5.47656,75.65602 7.06595,113.57095 1.60887,38.37964 1.68575,51.32651 2.52691,90.2174 1.48727,101.78519 -0.70614,203.57849 -3.4043,305.32405 -1.51267,56.13754 -4.9944,112.18611 -8.86999,168.20011 -3.65838,52.90668 71.16296,58.08041 74.82134,5.17373 v 0 c 3.94427,-57.07517 7.48395,-114.18566 9.02231,-171.38641 2.72797,-102.95006 4.93807,-205.94858 3.41299,-308.9385 -0.86657,-39.81131 -0.94518,-52.9864 -2.60136,-92.30615 -1.62441,-38.5655 -4.28881,-77.03706 -7.18828,-115.5225 -0.73062,-9.69771 -1.47209,-19.39459 -2.20813,-29.09189 -1.58295,-25.287 -3.57627,-50.7579 -1.03547,-76.05739 5.86944,-52.707205 -68.6698,-61.007848 -74.53924,-8.30064 z"/>
<path d="m 221.64995,440.18989 c -0.1012,0.40577 -3.65271,14.67824 -3.80708,15.1674 -1.83082,5.8016 -7.26226,18.86546 -9.20631,23.23075 -6.76269,15.18526 -11.9488,24.92059 -19.6446,40.1578 -27.42061,52.51136 -56.59585,104.14451 -88.34353,154.17186 -6.420913,10.11794 -13.066642,20.09144 -19.599961,30.13717 -9.842812,14.81848 -24.84459,37.79876 -35.539567,52.43812 -5.226434,7.15397 -10.852124,14.00754 -16.278186,21.01132 -32.4009862,41.98423 26.97369,87.80615 59.374676,45.82191 v 0 c 6.18649,-8.04342 12.579918,-15.93184 18.559468,-24.13027 11.09572,-15.21311 26.49366,-38.79684 36.76674,-54.26674 6.82568,-10.50643 13.76804,-20.93798 20.47704,-31.5193 32.89938,-51.88831 63.14934,-105.43089 91.55237,-159.89802 8.7684,-17.41786 14.36978,-27.91044 22.04812,-45.42042 6.19606,-14.12971 12.11995,-28.78872 15.0577,-43.99679 16.19613,-50.49936 -55.22075,-73.40415 -71.41688,-22.90479 z"/>
<path d="m 276.38429,539.82653 c 17.73087,9.47876 35.03443,19.6652 52.14162,30.22162 18.50169,10.85301 34.10587,25.48039 49.35565,40.3637 37.99111,37.00238 90.32037,-16.72515 52.32927,-53.72753 v 0 c -7.17231,-6.97343 -12.89095,-12.68699 -20.50629,-19.37871 -13.07475,-11.48898 -26.95191,-22.0131 -41.81509,-31.09719 -18.1011,-11.15319 -36.39956,-21.93817 -55.14447,-31.97839 -46.38373,-25.71089 -82.74442,39.88561 -36.36069,65.5965 z"/>
<path d="m 458.90466,260.50547 c -1.43119,25.17592 -1.05932,50.40221 -0.89697,75.6038 0.53004,65.19983 0.68628,130.40174 0.80529,195.60335 0.20247,74.55807 -0.49849,149.10966 -2.56705,223.63899 -1.01744,32.33431 -2.48074,64.65198 -3.94164,96.96852 -2.39484,52.97891 72.52865,56.36574 74.92349,3.38683 v 0 c 1.48047,-32.75252 2.96183,-65.50625 3.98934,-98.2769 2.08433,-75.2677 2.80311,-150.55767 2.59573,-225.85435 -0.11925,-65.31757 -0.27592,-130.63544 -0.80672,-195.95123 -0.1534,-23.64931 -0.54231,-47.32308 0.78254,-70.94949 2.9483,-52.95099 -71.93572,-57.12051 -74.88401,-4.16952 z"/>
<path d="m 619.11114,237.1553 c 14.31345,-4.07877 28.48001,-8.67583 43.00157,-11.99597 4.46432,-1.0207 8.96564,-1.87222 13.44846,-2.80833 21.04703,-4.15455 42.42613,-5.92808 63.84843,-5.15272 3.93819,0.32375 7.92233,0.35292 11.83122,0.9964 0.18041,0.0297 0.70726,0.16279 0.52444,0.16069 -1.45283,-0.0167 -4.96171,-1.40779 -5.2567,-1.50348 -8.16036,-4.95329 -9.2931,-4.52718 -15.03599,-12.77874 -1.38981,-1.99693 -2.11933,-4.3803 -3.14914,-6.58457 -0.18642,-0.39904 -0.43899,-1.65994 -0.49873,-1.22357 -0.14244,1.04035 0.1623,2.09385 0.23616,3.14131 0.14354,2.03548 0.27737,4.07164 0.41606,6.10746 2.04101,29.26598 3.72799,58.54305 4.70381,87.8641 1.47844,56.31264 -2.13163,112.58209 -5.1916,168.78119 -3.47667,69.93458 -7.46125,139.84013 -11.47033,209.74567 -3.58079,60.37562 -5.66639,120.826 -9.866,181.16392 -0.60206,7.2229 -1.20411,14.44579 -1.80616,21.66869 -4.39674,52.85044 70.34507,59.06836 74.7418,6.21792 v 0 c 0.62799,-7.56268 1.25598,-15.12537 1.88397,-22.68805 0.61073,-8.80453 1.27951,-17.60521 1.83218,-26.41357 3.2535,-51.85345 4.77981,-103.80342 8.09118,-155.65475 4.01317,-69.97781 8.00185,-139.95564 11.48244,-209.96251 3.17901,-58.39365 6.86764,-116.86157 5.26038,-175.37225 -1.02087,-30.2251 -2.73016,-60.40727 -4.84392,-90.57567 -0.50862,-7.14626 -0.73587,-16.55572 -2.84825,-23.37353 -2.83756,-9.15839 -5.72215,-14.96597 -12.98786,-21.7031 -3.02003,-2.80032 -6.87112,-4.54282 -10.30668,-6.81422 -2.32902,-0.87341 -4.61747,-1.8638 -6.98707,-2.62023 -9.10747,-2.90732 -18.92352,-2.7531 -28.33503,-3.54006 -8.99118,-0.26546 -11.70959,-0.46516 -21.09169,-0.19412 -20.3768,0.58867 -40.64403,3.09086 -60.65809,6.92296 -5.42616,1.15428 -10.87409,2.21058 -16.27848,3.46283 -16.32284,3.78218 -32.28698,8.86977 -48.35972,13.55916 -50.32277,16.73675 -26.65342,87.90389 23.66934,71.16714 z"/>
<path d="m 525.31061,491.61334 c 22.21146,-1.35615 44.44156,-1.92758 66.6902,-2.14372 17.6316,-0.26807 35.24887,-0.009 52.84935,1.03802 52.94403,3.07077 57.28676,-71.80339 4.34273,-74.87416 v 0 c -19.29656,-1.09533 -38.60752,-1.48242 -57.9367,-1.16017 -23.38452,0.23688 -46.75062,0.84035 -70.09652,2.25499 -52.95172,2.93516 -48.80078,77.8202 4.15094,74.88504 z"/>
<path d="m 506.68167,698.04585 c 13.17798,-1.48221 26.38576,-2.56447 39.61555,-3.45795 21.70718,-1.44632 43.47038,-1.06238 65.16058,0.38072 7.6686,0.57324 15.29283,1.57065 22.91186,2.58554 52.5738,6.96388 62.42221,-67.3867 9.84841,-74.35058 v 0 c -9.26684,-1.22166 -18.54166,-2.40765 -27.86938,-3.07531 -25.0093,-1.60946 -50.09722,-2.06725 -75.12215,-0.36877 -14.45631,0.98267 -28.88839,2.18075 -43.28861,3.79778 -52.67137,6.18276 -43.92763,80.67133 8.74374,74.48857 z"/>
<path d="m 425.59556,958.75865 c 31.00267,-6.28595 62.47709,-9.97242 93.86395,-13.73169 54.58665,-6.04342 109.42162,-10.0696 164.34812,-10.89424 11.34082,-0.17026 22.68407,-0.0768 34.02611,-0.11526 52.74742,0.0776 105.35579,3.98089 157.80788,9.20888 20.9997,2.21482 11.00923,1.14806 29.97219,3.19313 52.72731,5.686 60.76852,-68.88168 8.04121,-74.56768 v 0 c -19.28455,-2.07945 -9.09078,-0.99134 -30.58218,-3.25638 -55.01359,-5.47263 -110.19358,-9.51966 -165.51524,-9.57744 -11.92002,0.0472 -23.84138,-0.0438 -35.76004,0.14169 -57.24013,0.89103 -114.38591,5.08369 -171.27077,11.40115 -34.48228,4.14247 -69.08722,8.17388 -103.08293,15.42754 -51.45637,12.83519 -33.30467,85.60549 18.1517,72.7703 z"/>
</svg>
