<?xml version="1.0" ?>
<svg xmlns="http://www.w3.org/2000/svg" viewBox="0 0 1000 1000">
<path d="m 129.09081,215.15767 c 0.71827,2.5378 1.30686,5.11594 2.15482,7.6134 2.59677,7.64817 6.35288,16.26764 9.4727,23.63435 3.65978,8.64172 9.49297,22.43179 13.41632,30.66445 2.93046,6.14918 6.11966,12.17168 9.17949,18.25753 13.05296,23.49594 6.58269,12.15147 19.36888,34.0573 26.75287,45.79065 91.51064,7.95638 64.75776,-37.83428 v 0 c -11.52806,-19.71124 -5.7949,-9.69742 -17.1875,-30.04832 -2.55521,-5.02613 -5.23313,-9.99174 -7.66563,-15.07839 -7.3185,-15.30392 -13.49481,-31.13978 -20.11257,-46.74989 -10.94874,-51.89051 -84.333,-36.40666 -73.38427,15.48385 z"/>
<path d="m 351.50906,137.3966 c -3.09673,12.95921 -4.99428,26.17741 -8.09304,39.13522 -3.83764,16.04754 -6.70704,24.42448 -11.66928,40.64071 -2.84627,8.02755 -5.49053,16.12962 -8.53882,24.08267 -3.36497,8.7793 -7.07099,17.42442 -10.69539,26.09985 -7.19266,17.2165 -17.90347,42.3036 -25.73418,59.20895 -9.88402,21.33812 -16.17949,33.12736 -26.8581,53.97438 -24.16188,47.20915 42.60194,81.37921 66.76382,34.17006 v 0 c 11.73064,-22.9384 17.73428,-34.13493 28.63608,-57.69742 7.78069,-16.81673 19.5023,-44.1631 26.635,-61.32361 4.06947,-9.79069 8.20876,-19.55668 11.97595,-29.46761 3.41373,-8.981 6.37376,-18.12796 9.56064,-27.19195 2.51562,-8.29134 5.18914,-16.53641 7.54686,-24.87403 2.09313,-7.40197 4.02312,-14.85167 5.80297,-22.33515 2.9558,-12.42777 4.8135,-25.08768 7.73858,-37.52189 11.95023,-51.66907 -61.12086,-68.56924 -73.07109,-16.90018 z"/>
<path d="m 111.55261,485.23427 c 3.10796,-0.61593 6.22364,-1.19414 9.32389,-1.84779 17.9605,-3.78673 35.80799,-8.01306 53.84377,-11.45494 20.73748,-3.95746 35.26956,-6.25323 56.36665,-9.78148 40.90848,-6.46766 81.95833,-12.18256 123.23795,-15.68946 22.62131,-1.92178 27.02015,-1.92766 48.84308,-2.93394 15.431,-0.69011 30.86589,-0.29655 46.29029,0.23813 53.00272,1.79221 55.53729,-73.16495 2.53458,-74.95716 v 0 c -17.43463,-0.57659 -34.88076,-0.99061 -52.32082,-0.19945 -23.50678,1.10887 -28.30668,1.12368 -52.56959,3.20099 -43.00496,3.68194 -85.77576,9.61529 -128.39462,16.36956 -22.61377,3.78687 -36.68629,6.00015 -58.92102,10.25458 -17.92805,3.43038 -35.67194,7.60605 -53.52193,11.39028 -2.73694,0.58024 -5.48778,1.09283 -8.231673,1.63924 -52.164282,9.55969 -38.644837,83.33113 13.519443,73.77144 z"/>
<path d="m 252.35954,97.173087 c -2.34677,35.219043 -1.79025,70.566773 -1.85531,105.842663 -0.52798,86.60523 0.38176,173.20898 0.95325,259.81142 0.22467,83.70523 1.48907,167.43321 -0.38527,251.12985 -0.35804,15.98789 -0.96373,31.96928 -1.4456,47.95392 -1.76654,42.39334 -3.91049,84.78624 -7.22985,127.09053 -0.9052,11.53646 -2.03303,23.05436 -3.04955,34.58154 -4.64909,52.82884 70.06217,59.40364 74.71126,6.5748 v 0 c 1.05238,-11.98233 2.21826,-23.95524 3.15715,-35.94699 3.38929,-43.28849 5.58053,-86.66719 7.37714,-130.04674 0.49039,-16.36425 1.10626,-32.72522 1.47117,-49.09275 1.87798,-84.23315 0.62546,-168.49735 0.39192,-252.73909 -0.57012,-86.39141 -1.47905,-172.78411 -0.95175,-259.1783 0.0615,-33.39871 -0.48996,-66.8665 1.63354,-100.21584 4.07649,-52.876099 -70.70161,-58.641116 -74.7781,-5.765013 z"/>
<path d="m 244.94175,434.91945 c -2.57899,5.05828 -3.73542,7.21157 -6.3522,13.14418 -14.67101,33.26127 4.93725,-9.76784 -11.33459,26.43658 -6.00956,13.37112 -12.47755,26.89354 -18.72089,40.12688 -23.64411,48.95696 -51.82006,95.71414 -82.6064,140.49998 -6.77462,9.85525 -13.86989,19.4862 -20.80483,29.2293 -19.419843,26.59443 -39.868953,52.4051 -61.286859,77.4145 -5.689913,6.64403 -11.530445,13.15758 -17.295667,19.73638 -34.9396344,39.89639 21.482381,89.30849 56.422016,49.4121 v 0 c 6.112377,-6.98383 12.306679,-13.89681 18.33713,-20.95151 22.69246,-26.54667 44.37537,-53.92887 64.94939,-82.15332 7.3918,-10.40816 14.95275,-20.69822 22.17538,-31.22447 32.79996,-47.80257 62.75471,-97.72774 87.94227,-149.96669 6.90696,-14.64563 13.06498,-27.49888 19.64645,-42.16753 14.80692,-33.00136 0.0482,-0.51011 10.52196,-24.63644 2.14343,-4.93739 3.15099,-6.76866 5.45876,-11.29876 23.75962,-47.41287 -43.2923,-81.01405 -67.05192,-33.60118 z"/>
<path d="m 289.7675,566.36881 c -0.64984,0.31418 -0.5135,0.16919 1.06184,0.94825 16.97564,8.39499 -4.99711,-3.11732 17.00759,8.21116 12.16083,6.26065 12.80859,6.84387 25.00516,13.9014 15.31755,9.36771 29.85527,20.02471 43.16385,32.08777 6.03011,5.46576 8.73746,8.38682 14.28491,14.05456 37.19597,37.80158 90.65549,-14.80146 53.45952,-52.60305 v 0 c -7.48794,-7.57872 -10.6007,-10.9395 -18.81376,-18.29155 -16.88123,-15.11148 -35.25326,-28.501 -54.63489,-40.22293 -13.70049,-7.87395 -27.3986,-15.61 -41.73306,-22.29209 -8.69491,-4.05318 -13.93035,-6.39793 -23.04645,-8.96301 -2.11535,-0.59521 -4.31477,-0.83591 -6.47216,-1.25386 -52.62525,-6.56375 -61.9078,67.85959 -9.28255,74.42335 z"/>
<path d="m 616.17916,217.11939 c 12.61682,10.77203 24.76864,22.04302 36.51152,33.75647 3.20458,3.44621 6.40915,6.89242 9.61372,10.33863 36.18507,38.77035 91.01463,-12.40307 54.82956,-51.17343 v 0 c -3.85188,-4.11439 -7.70375,-8.22878 -11.55563,-12.34318 -15.01029,-14.89124 -30.39718,-29.54188 -47.11232,-42.52058 -43.79967,-29.90132 -86.08652,32.04077 -42.28685,61.94209 z"/>
<path d="m 510.85679,387.09876 c 3.60806,-1.32696 6.65129,-2.52232 10.4358,-3.52637 8.41502,-2.23253 18.828,-4.19907 27.09678,-5.63626 19.36071,-3.36507 27.91141,-4.35925 48.01759,-7.14948 48.80268,-6.34378 97.96903,-10.31334 147.20443,-10.40628 8.48935,-0.016 16.97687,0.25106 25.46531,0.37659 22.06117,0.57843 44.04735,2.48202 65.925,5.2961 52.60795,6.70098 62.08457,-67.6979 9.47662,-74.39888 v 0 c -24.67752,-3.11724 -49.46653,-5.3007 -74.34793,-5.88982 -9.27972,-0.12413 -18.55865,-0.39934 -27.83916,-0.37237 -52.25102,0.15186 -104.42878,4.35874 -156.21948,11.11018 -29.3878,4.09856 -59.11054,7.69502 -87.76864,15.68056 -4.91039,1.36828 -8.01971,2.56877 -12.35818,4.17425 -50.02199,17.61535 -25.11013,88.35713 24.91186,70.74178 z"/>
<path d="m 518.20021,499.2498 c 3.77591,26.21111 8.51487,52.26988 12.57364,78.43901 4.41852,28.37202 7.16211,56.9536 9.27744,85.57636 3.922,52.88778 78.71663,47.34123 74.79462,-5.54656 v 0 c -2.27757,-30.6154 -5.22887,-61.18624 -9.95956,-91.5336 -3.9838,-25.64587 -8.59385,-51.18968 -12.34696,-76.86927 -7.02444,-52.56574 -81.36362,-42.63169 -74.33918,9.93406 z"/>
<path d="m 726.6258,361.19336 c -0.15095,1.51523 -0.26498,3.03459 -0.45285,4.54568 -1.8522,14.89833 -4.34053,29.71647 -6.30218,44.60148 -9.02839,68.50746 3.2618,-21.51504 -7.10449,53.72656 -7.38464,46.56904 -17.74308,92.62256 -30.20204,138.08519 -8.3779,30.57087 -12.71664,44.02217 -21.93372,74.22831 -15.97433,45.92792 -7.5157,23.4253 -25.30319,67.53517 -19.7734,49.20886 49.81845,77.17267 69.59185,27.96381 v 0 c 19.37745,-48.37935 10.21515,-23.84375 27.44937,-73.6208 9.51171,-31.20509 14.11516,-45.50446 22.75727,-77.13763 13.20599,-48.33862 24.17265,-97.3064 31.93953,-146.8243 10.77886,-78.33689 -1.81823,14.06221 7.09207,-53.63672 2.12442,-16.14099 4.95722,-32.21731 6.73177,-48.40305 0.3149,-2.87223 0.46496,-5.76014 0.69745,-8.6402 1.71367,-53.00532 -73.24717,-55.42881 -74.96084,-2.4235 z"/>
<path d="m 406.59634,855.68845 c 37.3502,-5.69651 74.79409,-10.63897 112.3061,-15.13854 45.39028,-5.27599 90.94805,-9.24531 136.61747,-11.01938 30.36694,-1.17963 37.31264,-0.92999 67.53426,-1.01531 45.84531,0.49665 91.7327,1.95058 137.42218,5.93949 6.24656,0.54536 12.47944,1.23746 18.71916,1.85619 12.0119,1.13487 23.89116,3.16625 35.71607,5.49672 52.05887,10.11802 66.3679,-63.50434 14.30903,-73.62236 v 0 c -14.13257,-2.71717 -28.3154,-5.16265 -42.65891,-6.51175 -6.77601,-0.66583 -13.5449,-1.40852 -20.32801,-1.99749 -47.68353,-4.14033 -95.57065,-5.66897 -143.41577,-6.16043 -11.74444,0.0406 -23.49025,-0.0616 -35.23333,0.12192 -59.38157,0.92825 -118.64849,5.54982 -177.61968,12.44684 -37.87278,4.54824 -75.6815,9.51528 -113.39027,15.27668 -52.55742,7.08641 -42.53572,81.41383 10.0217,74.32742 z"/>
</svg>
