<?xml version="1.0" ?>
<svg xmlns="http://www.w3.org/2000/svg" viewBox="0 0 1000 1000">
<path d="m 128.66592,201.57661 c 0.65,2.67355 1.14169,5.39063 1.94999,8.02066 2.512,8.17353 5.66182,15.22595 8.93435,23.15495 3.93936,9.54464 7.72334,19.1533 11.70895,28.67872 2.42608,5.79823 4.97411,11.54467 7.46117,17.31701 12.19069,25.50725 5.74679,12.64133 19.38449,38.57128 24.74349,46.90693 91.0799,11.91436 66.33642,-34.99257 v 0 c -11.90119,-22.48518 -6.3007,-11.37819 -16.85803,-33.2924 -2.26384,-5.23809 -4.58949,-10.4499 -6.79152,-15.71428 -4.07408,-9.73987 -7.92492,-19.57192 -11.97278,-29.32272 -1.9427,-4.67973 -3.72833,-9.42752 -5.82084,-14.0422 -0.0376,-0.083 -0.16934,-0.0674 -0.25401,-0.10114 -8.2892,-52.38119 -82.36739,-40.6585 -74.07819,11.72269 z"/>
<path d="m 362.67064,149.25949 c -1.29302,3.32128 -2.61857,6.68991 -3.8102,10.03229 -4.31706,12.10882 -4.01681,12.41425 -9.00523,25.06677 -6.87686,17.44231 -8.86261,21.12983 -17.11901,39.31275 -17.71225,38.16906 -39.43534,74.36062 -63.0179,109.16568 -11.47092,16.92971 -26.02076,36.76044 -38.09138,53.42316 -31.10631,42.95227 29.63737,86.94324 60.74368,43.99097 v 0 c 13.23644,-18.28208 27.57504,-37.80507 40.17268,-56.45046 25.67255,-37.99718 49.22755,-77.54354 68.51311,-119.18826 9.38091,-20.76285 11.28817,-24.2109 19.12615,-44.19495 6.03855,-15.39612 4.3529,-11.96721 8.8988,-24.78131 1.0778,-3.03812 2.37979,-6.34243 3.57004,-9.40081 19.0748,-49.48386 -50.90595,-76.459686 -69.98074,-26.97583 z"/>
<path d="m 97.650741,483.20691 c 25.633169,-7.97378 51.976179,-13.37122 78.261699,-18.67163 56.00816,-10.75621 112.86274,-15.97827 169.64816,-20.54692 33.85584,-2.47735 67.76475,-4.89959 101.73051,-4.44769 53.02907,0.64588 53.94249,-74.34855 0.91341,-74.99444 v 0 c -36.28101,-0.40765 -72.50353,1.94523 -108.66613,4.6843 -59.75004,4.81912 -119.56285,10.39594 -178.4817,21.79076 -28.52276,5.7754 -57.09164,11.68937 -84.912656,20.33534 -50.805815,15.20754 -29.299108,87.05781 21.506707,71.85028 z"/>
<path d="m 252.59333,107.77754 c 1.059,25.94934 1.70554,51.91719 2.53072,77.87568 0.33457,9.62612 0.68359,19.25175 1.00371,28.87836 0.79355,23.86377 1.53811,46.47235 1.95833,70.39021 0.75937,43.22126 0.49336,86.43882 0.26016,129.66286 -0.44881,97.85792 -2.69703,195.69325 -4.17491,293.53808 -0.69774,64.11842 -1.39056,128.23306 -3.25234,192.32959 -1.53795,53.0107 73.43051,55.18569 74.96845,2.17499 v 0 c 1.86747,-64.44407 2.58064,-128.90593 3.27534,-193.37202 1.48118,-98.08789 3.73507,-196.16624 4.18238,-294.26728 0.18002,-33.57681 0.4083,-57.36242 0.20035,-90.76427 -0.23317,-37.45145 -1.21838,-74.86878 -2.46303,-112.29775 -0.31766,-9.55242 -0.66421,-19.10386 -0.99631,-28.65579 -0.86109,-27.08604 -1.47105,-54.1871 -2.71475,-81.25768 -4.07648,-52.876101 -78.85459,-47.111084 -74.7781,5.76502 z"/>
<path d="m 252.71283,434.68194 c -0.1896,0.55355 -0.34645,1.11942 -0.5688,1.66064 -1.64449,4.00293 -3.55316,7.89223 -5.35369,11.82744 -5.80963,12.69739 -7.63121,17.06346 -14.49662,30.01647 -3.53062,6.66125 -7.29034,13.19851 -10.93552,19.79776 -15.515,27.98971 -32.90872,54.87391 -50.57509,81.53593 -16.2308,24.49547 -27.72815,41.41051 -44.77754,65.45057 -7.65188,10.78934 -15.48235,21.45091 -23.22353,32.17636 -11.550055,15.81423 -32.456113,44.67349 -44.62564,60.43879 -6.707449,8.68932 -13.717094,17.14112 -20.575641,25.71168 -33.1102833,41.42715 25.476561,88.25216 58.586844,46.82501 v 0 c 7.359827,-9.21928 14.873167,-18.31807 22.079467,-27.65784 12.38817,-16.05577 33.55817,-45.2791 45.35498,-61.43226 7.97984,-11.06203 16.05201,-22.05804 23.93951,-33.18609 17.31332,-24.4264 29.56696,-42.43761 46.03744,-67.31796 18.69113,-28.2349 37.05751,-56.72549 53.47428,-86.36192 4.09291,-7.45055 8.31633,-14.83089 12.27874,-22.35166 7.04992,-13.38098 9.87477,-19.71509 15.78239,-32.7123 3.67685,-8.08936 5.58949,-12.01336 8.51666,-20.07511 0.59302,-1.63324 1.02574,-3.32031 1.53861,-4.98047 13.69315,-51.23473 -58.7637,-70.59977 -72.45685,-19.36504 z"/>
<path d="m 305.4675,559.2937 c 12.29365,8.92824 24.61726,17.8773 36.2531,27.66171 3.34171,2.80999 6.57671,5.74447 9.86506,8.61671 18.43098,16.88709 35.74396,34.96626 52.44054,53.5578 35.45436,39.43968 91.23049,-10.70036 55.77614,-50.14004 v 0 c -18.76244,-20.85331 -38.20602,-41.14269 -58.9895,-60.00119 -3.999,-3.46771 -7.93691,-7.00716 -11.99701,-10.40314 -12.91346,-10.80115 -26.53388,-20.74099 -40.16171,-30.61 -43.35848,-30.53755 -86.5451,30.7806 -43.18662,61.31815 z"/>
<path d="m 589.81437,163.58526 c 0.49694,34.38638 2.16558,68.74809 3.17539,103.12357 0.98915,38.78327 1.24118,77.58647 0.1994,116.37128 -0.64777,24.11643 -1.15733,32.33953 -2.28849,56.20338 -1.46522,28.16411 -3.19023,56.31371 -4.8329,84.4678 -3.08899,52.94297 71.78368,57.31146 74.87266,4.36848 v 0 c 1.65872,-28.42939 3.40108,-56.85422 4.87654,-85.29395 1.1666,-24.73127 1.69441,-33.28106 2.35803,-58.28844 1.06164,-40.00572 0.80715,-80.03026 -0.21768,-120.03407 -0.96741,-32.83503 -2.41483,-65.65466 -3.18212,-98.49455 1.71367,-53.00532 -73.24716,-55.42881 -74.96083,-2.4235 z"/>
<path d="m 678.12222,366.85213 c 15.21234,-2.76998 30.62612,-4.58206 46.06839,-5.41238 5.10987,-0.27476 10.22905,-0.33393 15.34357,-0.5009 14.71469,-0.17211 29.46407,-0.0422 44.12295,1.40115 9.85556,0.97041 12.71379,1.65825 22.16307,3.34306 52.25056,9.07628 65.08635,-64.81718 12.83579,-73.89345 v 0 c -4.67517,-0.79631 -9.33109,-1.7153 -14.02551,-2.38891 -22.41712,-3.21668 -45.09382,-3.83003 -67.70902,-3.41633 -6.17621,0.2266 -12.35825,0.32875 -18.52864,0.67981 -20.728,1.17929 -41.55892,3.55228 -61.77749,8.33774 -50.80577,15.20767 -29.29888,87.05788 21.50689,71.85021 z"/>
<path d="m 437.97901,560.87826 c 8.21971,25.41303 11.97468,51.91023 15.92473,78.23323 6.20966,42.45779 12.22838,84.94346 18.52478,127.38853 0.70408,4.60234 1.40816,9.20469 2.11224,13.80703 8.0213,52.42289 82.15845,41.07906 74.13715,-11.34382 v 0 c -0.68711,-4.48977 -1.37423,-8.97953 -2.06134,-13.4693 -6.3048,-42.49499 -12.32693,-85.0313 -18.54722,-127.53867 -4.57336,-30.33505 -9.1583,-60.81421 -18.70324,-90.07444 -16.26165,-50.4783 -87.64874,-27.48087 -71.3871,22.99744 z"/>
<path d="m 538.34343,608.1225 c 28.06224,-8.16239 57.18242,-11.74034 86.10303,-15.32005 34.80051,-3.8396 69.80805,-6.55374 104.84612,-6.04836 5.09104,0.0734 10.17779,0.33031 15.26668,0.49546 15.21671,0.74738 30.44465,2.13518 45.33296,5.45 0.50908,0.14435 1.0252,0.26582 1.52722,0.43305 0.72168,0.24039 -1.50957,-0.31612 -2.17938,-0.67663 -2.5417,-1.368 -5.31939,-2.46839 -7.44685,-4.41917 -9.78273,-8.97031 -8.67025,-9.91164 -12.60845,-21.30568 -0.12519,-0.29996 -0.30934,-1.21812 -0.37555,-0.8999 -0.36416,1.75001 -0.33361,3.55981 -0.54723,5.33449 -0.35977,2.98877 -0.75299,5.97363 -1.1728,8.95456 -2.18149,15.49006 -4.74843,30.92241 -7.28001,46.35776 -7.61803,46.16824 -20.16909,91.29799 -32.70815,136.31529 -4.46784,14.87939 -7.99887,27.60972 -13.46283,42.11503 -2.362,6.27047 -5.14632,12.37364 -7.71948,18.56045 -20.18322,49.04221 49.17293,77.58559 69.35615,28.54338 v 0 c 3.12794,-7.666 6.48799,-15.24135 9.38382,-22.99801 5.9711,-15.99401 9.79576,-29.75385 14.69359,-46.1023 13.26329,-47.64644 26.45011,-95.43014 34.46876,-144.29941 2.4528,-14.96574 3.40052,-20.4523 5.61306,-35.02182 1.75132,-11.53244 3.86046,-23.30739 4.32412,-34.99415 0.13429,-3.38483 -0.0225,-6.77495 -0.0338,-10.16242 -1.41288,-5.15775 -1.82586,-10.70071 -4.23864,-15.47324 -7.04078,-13.92679 -19.32103,-20.26033 -33.53648,-23.52226 -19.41972,-4.21283 -39.21078,-6.31428 -59.05788,-7.15275 -5.9155,-0.1772 -11.82881,-0.45692 -17.7465,-0.53159 -38.08196,-0.48048 -76.13125,2.40514 -113.95292,6.62138 -33.56789,4.19143 -67.34412,8.54087 -99.82714,18.35373 -50.48259,16.24831 -27.504,87.64148 22.97859,71.39316 z"/>
<path d="m 523.51503,820.64495 c 1.93298,0.041 3.86554,0.12896 5.79894,0.12308 10.29484,-0.0313 20.61981,-0.76708 30.8891,-1.38454 6.63208,-0.39877 27.69542,-1.78028 33.71334,-2.17237 37.46008,-2.80724 75.00335,-3.74428 112.55465,-3.21904 20.41006,0.56863 10.50612,0.28037 29.71194,0.86052 53.00884,1.60075 55.27265,-73.36507 2.2638,-74.96583 v 0 c -19.74846,-0.59619 -9.43022,-0.2978 -30.95494,-0.88775 -39.51802,-0.5242 -79.02919,0.41908 -118.45185,3.3708 -20.05369,1.30667 -40.10765,2.76333 -60.19339,3.46488 -52.89884,-3.77 -58.23042,71.04025 -5.33159,74.81025 z"/>
</svg>
