<?xml version="1.0" ?>
<svg xmlns="http://www.w3.org/2000/svg" width="1000" height="1000">
<path d="m 114.6113,195.25838 c 0.49833,1.48291 1.05333,2.94797 1.49499,4.44874 2.05606,6.98651 3.65065,14.10326 5.70334,21.09076 1.75868,5.98665 3.5755,11.95848 5.56137,17.87365 4.59981,13.70115 9.09546,25.01864 14.25668,38.48799 2.33117,6.16155 4.66235,12.3231 6.99352,18.48464 18.76741,49.60126 88.91417,23.06014 70.14677,-26.54111 v 0 c -2.3722,-6.26922 -4.7444,-12.53844 -7.1166,-18.80766 -4.19412,-10.91814 -8.93134,-22.91452 -12.70067,-34.01462 -4.54206,-13.37569 -7.71469,-27.07612 -11.79113,-40.58264 -0.59947,-1.98622 -1.33325,-3.92939 -1.99987,-5.89409 -17.99894,-49.88525 -88.547335,-24.43091 -70.5484,25.45434 z"/>
<path d="m 335.84797,146.25044 c -8.54416,24.36321 -18.19367,48.38016 -28.81254,71.9166 -3.93297,8.71734 -8.10774,17.32357 -12.16161,25.98535 -19.62583,40.22842 -41.69785,79.16578 -64.09923,117.88978 -26.54809,45.90968 38.378,83.45435 64.92609,37.54467 v 0 c 5.93882,-10.27379 11.9681,-20.49582 17.81645,-30.82137 17.27375,-30.49766 33.80352,-61.42093 49.3032,-92.85977 4.35551,-9.33281 8.83887,-18.60702 13.06653,-27.99845 10.7951,-23.98044 20.85231,-48.47198 29.56524,-73.29799 0.92911,-2.64734 1.7219,-5.34057 2.58286,-8.01086 14.38818,-51.0439 -57.7988,-71.391867 -72.18699,-20.34796 z"/>
<path d="m 126.4508,464.08386 c 13.5414,-6.28758 28.05104,-10.0805 42.36653,-14.1131 41.2963,-10.82026 83.19931,-19.45362 125.45283,-25.58392 8.61916,-1.2505 17.27082,-2.26576 25.90623,-3.39864 20.45382,-2.47954 41.03304,-3.74568 61.63408,-3.74221 10.54223,0.002 15.52891,0.32563 25.62865,0.78211 52.9817,2.33243 56.28024,-72.595 3.29855,-74.92742 v 0 c -11.96652,-0.51486 -17.69945,-0.88051 -30.2111,-0.8437 -23.44634,0.069 -46.86688,1.53526 -70.14366,4.37338 -9.29397,1.22855 -18.60538,2.33161 -27.8819,3.68566 -45.19734,6.59723 -90.02023,15.86004 -134.18047,27.50987 -23.49541,6.72263 -48.620336,12.97044 -68.658072,27.64182 -41.447871,33.08435 5.34046,91.70049 46.788332,58.61615 z"/>
<path d="m 221.87899,116.73316 c 1.63091,35.9884 2.99476,71.98068 3.90998,107.99466 1.7709,87.60813 -0.62309,175.21592 -3.57102,262.7683 -3.92062,94.52994 -7.63797,189.06548 -10.28609,283.64043 -1.27339,43.93775 -1.96775,87.88838 -2.7252,131.83701 -0.91388,53.02513 74.07498,54.31756 74.98887,1.29243 v 0 c 0.75281,-43.67992 1.4412,-87.36186 2.70696,-131.03096 2.64236,-94.43369 6.36364,-188.8276 10.27303,-283.21649 2.99428,-89.02967 5.41013,-178.11603 3.58909,-267.2019 -0.92328,-36.11326 -2.26336,-72.20629 -3.91818,-108.29333 -1.5626,-53.009982 -76.53004,-50.80013 -74.96744,2.20985 z"/>
<path d="m 216.419,410.34319 c -0.26703,1.63543 -1.65651,10.26316 -1.93119,11.39328 -1.32815,5.46436 -5.93902,18.66427 -7.24628,22.29399 -7.45814,20.70809 -7.66638,20.3197 -16.82246,42.00263 -30.87534,68.22261 -68.6114,133.01646 -106.471729,197.52324 -16.589726,27.59703 -22.786648,38.40417 -39.922494,65.03441 -6.056497,9.4122 -12.340153,18.67627 -18.510229,28.01441 -29.2223951,44.25552 33.364371,85.58223 62.586766,41.3267 v 0 c 6.483062,-9.82426 13.083866,-19.57183 19.449186,-29.4728 17.64088,-27.43959 24.06191,-38.62497 41.0815,-66.94371 39.52571,-67.36453 78.87132,-135.06231 110.9165,-206.39423 9.47009,-22.5776 11.06109,-25.38788 18.77329,-47.16188 4.9349,-13.93279 9.7537,-28.14521 11.63436,-42.87571 10.42299,-51.99867 -63.11423,-66.739 -73.53722,-14.74033 z"/>
<path d="m 248.37566,519.57175 c 19.71516,14.61505 38.68009,30.21121 57.39046,46.08097 13.80777,12.67792 28.567,24.52957 41.17218,38.47435 3.20118,3.54139 5.98087,7.44213 8.9713,11.16319 33.71935,40.93293 91.60727,-6.75343 57.88792,-47.68636 v 0 c -4.60626,-5.5008 -8.97871,-11.20617 -13.81879,-16.5024 -14.04914,-15.37322 -30.36673,-28.67683 -45.72676,-42.66873 -20.73598,-17.5552 -41.7176,-34.87346 -63.69061,-50.87205 -43.84842,-29.82979 -86.03411,32.18124 -42.1857,62.01103 z"/>
<path d="m 589.65499,130.38836 c 14.72164,9.58219 29.61859,18.98887 43.76305,29.42134 3.30683,2.439 6.47363,5.06235 9.71044,7.59352 2.42645,2.54021 4.85291,5.08043 7.27936,7.62065 37.63234,37.36719 90.47753,-15.85297 52.84519,-53.22017 v 0 c -4.71563,-4.55154 -9.43126,-9.10309 -14.14688,-13.65463 -4.23863,-3.26932 -8.40455,-6.63513 -12.71587,-9.807952 -3.96691,-2.919363 -8.05716,-5.667559 -12.11197,-8.463559 -10.22693,-7.052005 -20.51017,-14.059598 -31.09504,-20.565282 -43.18731,-30.779148 -86.7156,30.296938 -43.52828,61.076083 z"/>
<path d="m 471.46856,284.56077 c 29.62077,-4.56341 59.02058,-10.43608 88.5865,-15.32904 10.58456,-1.75168 21.19345,-3.35298 31.79017,-5.02948 46.39452,-6.81102 93.08654,-11.87718 139.94467,-14.00048 27.15455,-1.23045 36.71008,-0.99483 63.44279,-1.08658 34.80903,0.73491 18.13339,0.2382 50.02894,1.42079 52.99701,1.95362 55.75984,-72.99547 2.76283,-74.94909 v 0 c -33.72003,-1.23615 -16.02698,-0.71866 -53.08146,-1.47114 -28.66937,0.12232 -38.53908,-0.1233 -67.69207,1.2235 -49.26562,2.27595 -98.35783,7.60104 -147.13536,14.78592 -10.96825,1.73819 -21.94878,3.40059 -32.90475,5.21457 -28.14885,4.6606 -56.15565,10.14393 -84.3202,14.71318 -52.685,6.06552 -44.10707,80.57336 8.57794,74.50785 z"/>
<path d="m 458.92459,339.78792 c 0.11176,16.36405 0.007,32.73584 -2.15023,48.99212 -0.92533,6.97244 -2.22792,13.88959 -3.34188,20.83439 -10.18444,58.48347 -27.06238,115.52958 -46.44862,171.56038 -4.70188,13.58953 -9.72605,27.0654 -14.58907,40.5981 -5.12887,13.14491 -10.08271,26.35947 -15.3866,39.43475 -5.16236,12.72636 -10.56897,25.35303 -16.0093,37.96307 -9.85536,22.84359 -20.38516,46.77138 -31.78173,68.94186 -5.06531,9.85388 -10.67325,19.41926 -16.00988,29.12889 -25.47287,46.51487 40.30909,82.53895 65.78196,36.02408 v 0 c 5.93244,-10.86831 12.15181,-21.58485 17.79733,-32.60492 11.84054,-23.11281 23.07189,-48.56168 33.3285,-72.37025 5.70116,-13.23407 11.36359,-26.48701 16.77175,-39.84349 5.54857,-13.70324 10.73031,-27.55217 16.09546,-41.32826 5.05988,-14.10245 10.28984,-28.14504 15.17965,-42.30736 20.69639,-59.94285 38.58112,-121.00423 49.3644,-183.57354 1.30716,-8.48881 2.85187,-16.94442 3.92146,-25.46642 2.3325,-18.58428 2.61996,-37.28585 2.4768,-55.9834 0,-53.03301 -75,-53.03301 -75,0 z"/>
<path d="m 553.96583,553.94756 c 29.05912,-4.8366 58.39322,-7.86422 87.68189,-10.92314 28.73994,-2.76565 57.58276,-4.97344 86.47294,-5.07736 12.52661,-0.0451 15.68354,0.27974 27.52307,0.92354 3.19596,0.2621 6.39192,0.5242 9.58787,0.7863 52.86216,4.25357 58.87761,-70.5048 6.01546,-74.75837 v 0 c -3.89585,-0.30855 -7.79169,-0.61709 -11.68754,-0.92564 -14.4711,-0.73185 -17.82263,-1.08496 -33.00944,-1.00939 -30.97085,0.15413 -61.89203,2.49101 -92.70231,5.46762 -32.75879,3.42944 -65.64561,6.63676 -98.03368,12.74616 -51.45636,12.83522 -33.30462,85.6055 18.15174,72.77028 z"/>
<path d="m 634.17352,377.98397 c -0.60548,27.87373 -1.92011,55.73449 -2.85644,83.60089 -2.52093,71.04434 -4.08383,142.11278 -5.28331,213.18984 -0.9847,49.13584 -0.42076,24.75647 -1.68498,73.13827 -1.38426,53.01494 73.59018,54.97258 74.97445,1.95764 v 0 c 1.27631,-48.91611 0.70787,-24.30595 1.69985,-73.83061 1.19204,-70.65961 2.74458,-141.31063 5.25173,-211.93768 0.96361,-28.70518 2.34919,-57.40346 2.8987,-86.11835 0,-53.03301 -75,-53.03301 -75,0 z"/>
<path d="m 454.06232,842.27917 c 21.71568,-6.571 44.26882,-9.794 66.63192,-13.27876 55.99768,-7.73812 112.62672,-8.37713 169.05408,-8.74737 53.63087,-0.455 107.19129,2.15737 160.66498,5.96654 22.56389,1.8426 11.8209,0.90591 32.23172,2.77808 52.81193,4.83732 59.65293,-69.85004 6.841,-74.68735 v 0 c -21.41299,-1.9587 -10.16438,-0.98082 -33.74859,-2.90152 -55.41221,-3.94 -110.91537,-6.6228 -166.48932,-6.15408 -60.138,0.4074 -120.484,1.22297 -180.14218,9.64637 -27.64066,4.33694 -55.60127,8.37986 -82.17457,17.45734 -49.44144,19.18449 -22.31047,89.10524 27.13096,69.92075 z"/>
</svg>
