<?xml version="1.0" ?>
<svg xmlns="http://www.w3.org/2000/svg" viewBox="0 0 1000 1000">
<path d="m 240.87923,81.15506 c -0.0825,6.364134 -2.59537,12.555329 -4.87239,18.385959 -5.33729,13.666911 -6.01221,14.280251 -12.88752,28.492521 -17.21303,33.47072 -37.46656,65.33495 -59.86158,95.57137 -4.30688,5.8149 -8.81611,11.47717 -13.22417,17.21575 -18.44739,23.02303 -38.00489,45.1322 -58.146977,66.67926 -5.616375,6.51533 -12.478776,12.26406 -16.932482,19.73482 -1.705515,2.86087 -3.700268,5.66747 -4.582809,8.87909 -1.586599,5.77374 -1.823858,11.83583 -2.735788,17.75374 3.343314,7.96089 5.075889,16.81084 10.029942,23.88268 4.95334,7.07081 14.993078,11.19219 22.828744,14.35824 2.59172,1.0472 5.23851,1.95265 7.85359,2.94005 10.90368,4.11702 7.60458,2.86491 19.12404,7.49771 19.63127,8.34199 38.97519,17.52652 57.19325,28.6663 3.12005,1.90781 6.15194,3.95618 9.22792,5.93428 7.01246,4.65364 13.31587,10.22351 19.6402,15.74135 40.05876,34.75336 89.20743,-21.89828 49.14867,-56.65164 v 0 c -9.11469,-7.87405 -18.28276,-15.71717 -28.41187,-22.29333 -3.97095,-2.52377 -7.88976,-5.1315 -11.91285,-7.57129 -21.35245,-12.94913 -43.95321,-23.73032 -66.9408,-33.42527 -11.99052,-4.80714 -9.77095,-3.99725 -20.8883,-8.18035 -1.98462,-0.74675 -3.96062,-1.51866 -5.96599,-2.20776 -0.43039,-0.1479 -1.64351,-0.63168 -1.3319,-0.3 14.37501,15.30103 4.39603,-2.42097 15.32202,28.07447 -0.96337,4.82752 -1.47009,9.76913 -2.89012,14.48258 -0.56263,1.86752 -1.93891,3.38663 -2.98863,5.03049 -0.098,0.15342 -0.54051,0.47866 -0.43475,0.3305 3.00669,-4.21229 7.22493,-7.44986 10.44687,-11.47046 21.79756,-23.33522 42.96301,-47.2796 62.87113,-72.25653 4.9109,-6.41804 9.93177,-12.75341 14.73271,-19.25411 24.93008,-33.75646 47.40973,-69.36565 66.47135,-106.76383 11.87313,-24.98694 24.84501,-50.9749 25.11849,-79.27659 0,-53.033008 -75,-53.033008 -75,0 z"/>
<path d="m 282.7254,307.03087 c 0.0291,3.85145 0.4222,7.74315 -0.0534,11.58656 -0.49034,3.96235 -2.14373,8.39312 -3.46977,12.00271 -1.46914,3.9991 -3.05559,7.95414 -4.58338,11.93121 -17.93631,42.71777 -43.25626,81.72132 -68.7943,120.18033 -26.33249,38.16946 -53.66744,75.62841 -81.30155,112.861 -6.90114,9.3832 -14.00476,18.61781 -20.90862,27.99892 -1.50613,2.04655 -7.852538,10.59218 -8.268074,12.7485 -1.86544,9.68023 -1.88242,19.62659 -2.823629,29.43989 14.348583,8.98063 27.242403,20.8766 43.045753,26.94189 3.5778,1.37315 21.04122,-7.37546 25.22642,-9.40251 10.48838,-5.07989 9.88297,-5.15563 20.76206,-9.86381 3.96934,-1.71782 7.99756,-3.29623 11.99634,-4.94434 16.76639,-6.40531 33.95466,-11.92645 51.69515,-14.88495 9.72988,-1.62261 14.69637,-1.88712 24.45149,-2.76409 3.59212,-0.21729 7.18423,-0.43458 10.77635,-0.65187 52.93082,-3.29061 48.27719,-78.14609 -4.65363,-74.85549 v 0 c -4.36514,0.2774 -8.73029,0.5548 -13.09543,0.83219 -13.35883,1.28332 -19.00907,1.57222 -32.47627,3.95405 -22.42529,3.96617 -44.21458,10.84873 -65.40972,19.08367 -4.8331,2.01179 -9.70126,3.94136 -14.49932,6.03536 -9.54185,4.16434 -13.3495,6.13782 -22.14662,10.51474 -1.82247,0.90675 -4.63234,0.87263 -5.46176,2.73157 -0.59631,1.33647 2.91979,-0.20426 4.37969,-0.30639 12.5618,9.18336 25.12359,18.36672 37.68538,27.55008 -1.20937,8.84566 -2.22325,17.72025 -3.62812,26.53696 -0.0527,0.33079 -0.89824,0.98713 -0.71314,0.70796 1.64834,-2.48618 7.36042,-10.0192 8.49616,-11.53988 5.26741,-7.0527 10.51909,-14.11714 15.79445,-21.1639 28.41883,-38.29075 56.52804,-76.81683 83.5727,-116.09581 5.32673,-8.03516 10.74983,-16.00726 15.98018,-24.1055 22.9096,-35.47135 44.42705,-72.09223 60.54431,-111.2085 2.11352,-5.73485 4.47272,-11.38505 6.34056,-17.20456 1.77951,-5.5443 3.39692,-11.15542 4.59112,-16.85452 2.2452,-10.71481 2.3617,-21.61325 1.80192,-32.48026 -3.31547,-52.92927 -78.16877,-48.24048 -74.85329,4.68879 z"/>
<path d="m 337.39534,573.77912 c 6.57614,6.21551 13.2554,12.30085 18.72385,19.53833 1.95646,2.66696 3.12585,5.7072 4.28772,8.76461 20.92742,48.72928 89.84103,19.13344 68.91361,-29.59584 v 0 c -4.01715,-9.01107 -8.22694,-17.92047 -14.39798,-25.7216 -2.0391,-2.52325 -3.9994,-5.11226 -6.11728,-7.56975 -6.40326,-7.43003 -13.75437,-13.95405 -20.79229,-20.75883 -39.13347,-35.79206 -89.75109,19.55101 -50.61763,55.34308 z"/>
<path d="m 42.196109,803.62476 c 7.810058,10.28632 14.866209,21.10675 22.426758,31.57204 6.913368,9.56947 12.029538,16.21709 19.174605,25.65665 11.938351,15.78442 23.934848,31.59406 37.584658,45.96333 7.39269,7.78236 9.15937,9.1194 16.85054,16.0454 6.11677,5.14723 12.46484,10.09174 19.46832,13.99326 1.92142,1.07038 3.93615,1.96393 5.90422,2.9459 48.09541,22.34573 79.69704,-45.67145 31.60163,-68.01718 v 0 c 0.22264,0.17102 0.94714,0.48387 0.66792,0.51306 -1.14508,0.11969 -7.25492,-5.18261 -7.72658,-5.41219 -5.06394,-4.44595 -6.36431,-5.41915 -11.31938,-10.57236 -12.16578,-12.65227 -22.62245,-26.79785 -33.23834,-40.73393 -6.09063,-8.04077 -11.78082,-15.45477 -17.68086,-23.61314 -9.22445,-12.75525 -5.43316,-7.92742 -14.23955,-20.37335 -2.21792,-3.13454 -5.08703,-6.96659 -7.49841,-10.20531 -29.866645,-43.82332 -91.842178,-1.5855 -61.975531,42.23782 z"/>
<path d="m 176.57704,793.56273 c 7.31494,6.16526 12.74401,14.08456 18.15689,21.87591 3.6172,5.40821 7.12514,10.88811 10.66684,16.34574 28.86939,44.48661 91.78295,3.65911 62.91355,-40.82749 v 0 c -4.01253,-6.18314 -7.98218,-12.39478 -12.11685,-18.4977 -8.74527,-12.44703 -17.88616,-24.74506 -29.51053,-34.69967 -39.45883,-35.43305 -89.56873,20.37016 -50.1099,55.80321 z"/>
<path d="m 281.65052,733.38511 c 4.20504,6.55812 8.90678,12.77294 13.55008,19.02183 31.63132,42.56712 91.83031,-2.16633 60.19899,-44.73345 v 0 c -3.69323,-4.96983 -7.47244,-9.88445 -10.82308,-15.0967 -28.85584,-44.4954 -91.78183,-3.68708 -62.92599,40.80832 z"/>
<path d="m 444.89712,343.98432 c 0.75957,24.47949 0.80699,48.96325 0.45309,73.44924 -0.9927,44.53544 -5.15686,89.06059 -13.9248,132.77072 -2.0093,10.01679 -4.48769,19.93375 -6.73153,29.90063 -7.743,30.69742 -17.94201,60.68279 -30.14117,89.88459 -11.17601,26.75264 -23.96231,52.84797 -36.47995,78.98675 -3.76452,7.67066 -7.52904,15.34132 -11.29357,23.01199 -23.36161,47.61024 43.96944,80.64855 67.33105,33.03831 v 0 c 3.86949,-7.88721 7.73897,-15.77441 11.60846,-23.66162 13.30554,-27.79484 26.86972,-55.55189 38.67203,-84.03223 13.5809,-32.77226 24.92538,-66.41805 33.49435,-100.85563 2.47477,-11.12755 5.20454,-22.20144 7.42432,-33.38265 9.45308,-47.61595 13.96234,-96.10413 15.03333,-144.60148 0.35612,-25.76662 0.31954,-51.53144 -0.49722,-77.29069 -1.96722,-52.99651 -76.91561,-50.21444 -74.94839,2.78207 z"/>
<path d="m 486.91979,253.21535 c 2.57198,0.0367 5.14493,0.18963 7.71594,0.11003 13.03309,-0.40351 26.05872,-2.39833 38.90517,-4.46917 13.18286,-2.12507 24.23772,-4.24658 37.43136,-6.68055 38.56179,-7.6587 77.25843,-14.535 116.20022,-19.94561 9.69276,-1.1561 19.38895,-2.41498 29.14108,-2.96985 1.48015,-0.0842 2.96295,-0.12914 4.44546,-0.13908 0.70518,-0.005 2.73081,-0.24572 2.11344,0.0951 -0.66702,0.36821 -1.52381,1e-5 -2.28571,1e-5 -13.8506,-3.98437 -17.36256,-3.26027 -27.08339,-21.70174 -2.86152,-5.42861 -1.48553,-12.18771 -1.93567,-18.30779 -0.0636,-0.86432 1.13854,-3.02278 0.40018,-2.56899 -1.13357,0.69668 -1.29604,2.32443 -1.91698,3.5012 -1.33256,2.52543 -2.62881,5.06986 -3.94321,7.60479 -8.78253,17.29927 -15.34674,35.5888 -22.14665,53.72156 -4.3774,11.67286 -9.19746,24.45243 -13.58171,36.08951 -13.22691,35.0703 -25.07938,70.63747 -36.20582,106.4233 -4.31325,14.34335 -8.75556,28.67632 -11.8146,43.35136 -2.13606,11.36626 -1.78686,23.32924 5.55071,33.37423 4.19243,5.73935 10.05655,10.37194 16.33298,13.70707 4.84977,2.57704 10.72967,2.34937 16.09451,3.52406 3.13498,-0.22381 6.28637,-0.28075 9.40496,-0.67143 4.98568,-0.62459 12.41513,-2.51203 17.16004,-3.76327 10.67811,-2.81586 21.25259,-6.05144 31.85443,-9.13695 17.65218,-5.10445 35.42476,-9.93498 53.71386,-12.03439 1.21715,-0.0478 2.43337,-0.14983 3.65144,-0.14355 3.10038,0.016 0.89835,0.60321 -1.70989,-0.0379 -1.26971,-0.31212 -2.5461,-0.66743 -3.7209,-1.24138 -1.90561,-0.93098 -3.64699,-2.16605 -5.47049,-3.24907 -7.71373,-6.63245 -10.16403,-12.07894 -11.16826,-21.95583 -3.89371,12.25661 -9.5907,23.87869 -14.86256,35.58346 -11.90961,25.45922 -25.0823,50.37611 -39.88008,74.28296 -3.99475,6.45381 -8.17698,12.78968 -12.26546,19.18451 -26.33507,39.56662 -55.17345,77.49539 -85.95065,113.71286 -6.66303,7.84081 -13.53046,15.5056 -20.29569,23.2584 -26.19649,29.40535 -54.08851,57.29704 -83.89533,83.04581 -17.59952,15.20344 -23.78118,19.77575 -41.87274,34.07666 -25.61193,18.87996 -13.13617,9.92598 -37.38142,26.92572 -43.40724,30.46821 -0.31868,91.85531 43.08855,61.38711 v 0 c 26.3881,-18.54067 12.75736,-8.73339 40.83509,-29.50108 19.4713,-15.42541 26.31896,-20.5084 45.27087,-36.93342 32.1281,-27.8444 62.23042,-57.95315 90.48539,-89.71274 7.18848,-8.25126 14.48475,-16.40985 21.56546,-24.75379 32.73921,-38.58005 63.39778,-78.99045 91.37143,-121.15568 4.4939,-7.05222 9.09265,-14.03871 13.48169,-21.15666 16.25336,-26.35893 30.75305,-53.80396 43.82893,-81.86538 7.787,-17.29554 16.29907,-34.55931 20.31222,-53.21481 0.91269,-6.36835 1.77679,-9.8167 1.21126,-16.31004 -0.81541,-9.36249 -3.829,-18.3219 -9.63231,-25.80849 -2.01929,-2.605 -4.53494,-4.7842 -6.80242,-7.17631 -2.8922,-1.95592 -5.62123,-4.17806 -8.67662,-5.86776 -12.35095,-6.83032 -26.89413,-7.00546 -40.5443,-5.82837 -8.6889,1.08903 -10.25713,1.15465 -19.17357,2.84964 -15.6999,2.9845 -31.10492,7.28723 -46.47158,11.62734 -9.76584,2.8422 -19.51206,5.76646 -29.32377,8.44819 -1.77913,0.48627 -3.56519,0.94697 -5.3518,1.40494 -0.85082,0.21809 -2.65225,-0.25033 -2.56023,0.62316 0.0925,0.8778 1.762,0.1083 2.64299,0.16245 4.2034,1.13023 8.8756,1.15491 12.6102,3.3907 5.58059,3.34092 10.91551,7.57367 14.62671,12.91518 4.8157,6.93122 6.60129,15.74823 5.27856,23.87299 -0.0425,0.26111 0.0744,-0.52384 0.11158,-0.78576 2.42404,-12.26916 6.55564,-24.1356 9.96144,-36.14521 10.68102,-34.38048 22.0663,-68.54916 34.76947,-102.24104 3.88157,-10.30285 9.73962,-25.83744 13.6503,-36.27227 5.73782,-15.31018 11.18258,-30.79423 18.47583,-45.45766 0.62869,-1.21256 7.47541,-14.37727 7.90888,-15.38287 1.53315,-3.55674 3.68549,-7.03056 4.0651,-10.88501 0.78404,-7.96079 2.48165,-16.62051 -0.6304,-23.98964 -9.04775,-21.42452 -15.68202,-21.28011 -31.83567,-26.88865 -2.65968,-0.29737 -5.3087,-0.71441 -7.97904,-0.89213 -3.49485,-0.2326 -10.19809,0.0412 -13.52023,0.24241 -11.33047,0.6863 -22.60273,2.09654 -33.86386,3.47526 -40.03553,5.5802 -79.83283,12.58916 -119.47843,20.47606 -21.30196,3.93575 -42.61607,8.15971 -64.22176,10.05124 -52.85063,-4.39434 -59.06517,70.34775 -6.21453,74.74209 z"/>
<path d="m 470.32721,556.11336 c 0.54977,0.43107 1.125,0.83151 1.64932,1.2932 1.58832,1.3986 6.7411,6.58598 7.2349,7.07895 2.68487,2.6803 5.38291,5.34764 8.04162,8.05388 6.11415,6.22345 15.67499,16.23032 21.48714,22.28769 31.38176,33.12707 64.27282,64.74428 97.49217,96.00835 31.50925,29.28485 63.01366,58.57511 94.54018,87.84151 21.00292,19.81071 42.39905,39.18364 64.55026,57.70274 10.55862,8.80895 21.80779,16.7558 33.69951,23.66073 6.03845,3.50623 9.79973,5.37944 15.94663,8.58213 2.34452,1.2732 4.70634,2.51505 7.03356,3.8196 9.96191,5.58427 19.70427,11.55449 29.63659,17.1925 12.73849,7.23092 16.86063,9.41485 30.0588,16.63564 6.08056,3.20581 12.16113,6.41162 18.24169,9.61743 46.91776,24.72295 81.88128,-41.62878 34.96352,-66.35173 v 0 c -5.73826,-3.02203 -11.47652,-6.04405 -17.21479,-9.06608 -12.4818,-6.82525 -16.60571,-9.01262 -28.6305,-15.83402 -10.49058,-5.95108 -20.78133,-12.24874 -31.31192,-18.12864 -2.71609,-1.51656 -5.47148,-2.96163 -8.20722,-4.44245 -12.76359,-6.60307 -25.25611,-13.71888 -36.12884,-23.24063 -21.16146,-17.66757 -41.54979,-36.20882 -61.61117,-55.11389 -31.40161,-29.15041 -62.78049,-58.32534 -94.16658,-87.49231 -32.29327,-30.38896 -64.27752,-61.11059 -94.77648,-93.31893 -6.65735,-6.93732 -15.69135,-16.39895 -22.54124,-23.36433 -7.56813,-7.69573 -15.1303,-15.51212 -23.55429,-22.28987 -1.57467,-1.26695 -3.26321,-2.38545 -4.89481,-3.57817 -44.15649,-29.37184 -85.69454,33.07487 -41.53805,62.4467 z"/>
</svg>
