<?xml version="1.0" ?>
<svg xmlns="http://www.w3.org/2000/svg" width="1000" height="1000">
<path d="m 253.62061,83.375513 c -0.19678,1.035846 -0.33306,2.085041 -0.59036,3.107539 -1.46762,5.832408 -3.68598,12.560343 -5.7459,17.983138 -4.87498,12.83351 -9.54265,23.16037 -15.70674,35.64407 -3.77375,7.64273 -7.81941,15.14815 -11.72912,22.72223 -24.86859,45.58753 -52.42556,89.74471 -82.46668,132.10782 -5.32869,7.51437 -10.87464,14.87228 -16.31196,22.30842 -19.59191,26.23088 -40.497669,51.44033 -60.299569,77.5079 -5.780109,7.91953 -14.393994,19.29354 -13.382202,29.45337 1.067987,10.7241 4.515034,21.56299 10.329848,30.63685 6.261369,9.77069 20.125712,13.03584 30.163321,16.41218 17.209562,4.45004 34.653192,7.90612 51.836462,12.46732 14.67379,3.89506 16.03569,4.49731 30.65564,9.06625 16.26908,5.75903 32.6055,11.24873 49.0552,16.46624 50.56515,15.98953 73.17776,-55.5204 22.61261,-71.50993 v 0 c -5.35097,-1.68622 -10.72878,-3.28948 -16.05289,-5.05867 -11.15149,-3.70563 -22.11372,-7.96675 -33.32199,-11.50788 -5.90253,-1.83129 -11.77846,-3.75063 -17.70759,-5.49387 -21.67817,-6.37365 -43.75285,-11.15079 -65.7324,-16.32793 -6.26202,-0.0243 2.78004,-0.39604 6.22483,7.61272 3.5193,8.18198 6.06516,17.03562 6.43087,25.93487 0.18146,4.41594 -3.24294,8.22298 -4.85815,12.33693 -0.1096,0.27915 0.22751,-0.55497 0.34127,-0.83245 1.04651,-1.43465 2.09301,-2.8693 3.13952,-4.30396 20.06749,-26.44711 41.33248,-51.9657 61.12981,-78.62274 5.83555,-7.9974 11.78516,-15.91279 17.50663,-23.99219 31.86212,-44.99313 61.07698,-91.89588 87.39262,-140.33802 4.35028,-8.47391 8.86638,-16.86472 13.05083,-25.42173 7.17769,-14.67803 13.28647,-28.32771 18.87075,-43.60983 3.79787,-10.39338 6.68067,-19.98181 8.78469,-30.782062 0.60557,-3.10847 0.82844,-6.279401 1.24266,-9.419102 3.21556,-52.935434 -71.64645,-57.482917 -74.86201,-4.547483 z"/>
<path d="m 269.9746,315.10773 c -2.40995,10.94629 -4.86082,21.9272 -8.69813,32.49975 -1.70927,4.7094 -3.6834,9.31842 -5.5251,13.97762 -7.64763,19.13125 -17.34203,37.32215 -27.39557,55.2699 -8.856,15.80989 -15.15298,26.61107 -24.82545,41.97637 -4.3557,6.91929 -8.89927,13.71853 -13.3489,20.5778 -20.52613,30.62105 -42.83157,60.15795 -67.17122,87.86578 -3.84117,4.37273 -7.82366,8.61927 -11.73549,12.92891 -12.336403,12.82184 -25.019261,25.47945 -39.23828,36.23716 -28.490551,21.67736 -10.480188,35.6678 20.429067,70.12418 3.464746,3.86236 10.302493,-1.33342 15.378503,-2.40876 3.43389,-0.72746 6.7336,-1.98541 10.09739,-2.98824 4.09573,-1.22104 8.18741,-2.45558 12.28112,-3.68336 31.99585,-9.3362 64.52015,-16.76082 97.30709,-22.72233 7.79713,-1.41772 15.62366,-2.66871 23.43548,-4.00306 21.20038,-3.48695 42.58194,-5.58969 63.95044,-7.69543 52.77583,-5.21651 45.39857,-79.8528 -7.37725,-74.63629 v 0 c -23.134,2.2931 -46.27951,4.60395 -69.2282,8.40709 -8.34121,1.43085 -16.69815,2.77286 -25.02364,4.29256 -35.24985,6.43436 -70.2119,14.46273 -104.60984,24.51893 -4.08325,1.22466 -8.16838,2.44309 -12.249762,3.67397 -2.343061,0.70663 -5.562942,0.1749 -7.023528,2.13856 -1.060367,1.42559 4.393864,-1.37055 5.328268,0.1406 11.141962,18.01917 23.314782,36.0221 29.551942,56.26887 0.82115,2.66558 -15.19002,14.62417 -6.64279,8.1147 17.70577,-13.65767 33.91858,-29.13968 49.21898,-45.4273 4.41782,-4.88572 8.91342,-9.70222 13.25345,-14.65717 26.44937,-30.19686 50.71216,-62.34816 73.01197,-95.70836 4.81247,-7.43638 9.72718,-14.80758 14.4374,-22.30914 10.01253,-15.94609 17.49091,-28.7115 26.63366,-45.10891 11.57915,-20.76705 22.65072,-41.85727 31.44744,-63.98282 2.3804,-6.1881 4.94411,-12.30876 7.1412,-18.56429 3.6021,-10.25588 5.36305,-17.0989 7.78026,-27.29775 1.10542,-4.66407 2.73083,-12.07774 3.49476,-16.9897 0.34362,-2.20945 0.53249,-4.44022 0.79874,-6.66032 2.9483,-52.951 -71.93572,-57.12051 -74.88401,-4.16952 z"/>
<path d="m 357.79601,540.85872 c 10.78061,9.31198 21.77503,18.50953 31.80276,28.64845 2.73328,2.76358 5.28953,5.69681 7.9343,8.54522 2.80267,3.4751 5.60535,6.95019 8.40802,10.42529 33.56351,41.06082 91.63228,-6.40516 58.06876,-47.46598 v 0 c -3.93167,-4.76354 -7.86334,-9.52708 -11.79501,-14.29062 -3.67243,-3.88113 -7.24756,-7.85668 -11.01729,-11.64337 -5.32001,-5.34395 -13.03952,-12.22234 -18.74054,-17.34096 -5.11823,-4.59536 -9.31511,-8.39808 -14.52877,-12.76065 -1.58066,-1.32264 -3.21028,-2.58564 -4.81542,-3.87846 -42.25746,-32.04383 -87.57427,27.71725 -45.31681,59.76108 z"/>
<path d="m 76.922028,784.52814 c 6.311009,21.92327 16.91357,42.22931 27.105702,62.52448 11.89955,23.24405 24.13853,46.39178 38.51144,68.22598 2.30749,3.50536 4.74986,6.92005 7.12479,10.38007 1.99403,2.72744 3.98805,5.45488 5.98207,8.18231 31.36722,42.76211 91.84197,-1.59783 60.47475,-44.35994 v 0 c -1.57024,-2.13164 -3.14049,-4.26328 -4.71074,-6.39492 -15.32919,-22.10523 -28.30567,-45.68078 -40.36685,-69.70734 -5.87643,-11.68783 -12.02893,-23.30523 -17.02076,-35.41261 -3.11462,-7.55433 -3.01884,-8.29094 -5.54722,-15.73226 -0.75183,-2.21272 -1.56358,-4.40463 -2.34537,-6.60695 -20.43622,-48.93731 -89.644033,-20.03613 -69.207812,28.90118 z"/>
<path d="m 201.55835,774.22798 c 3.36724,9.11204 7.53487,18.06711 12.18709,26.59794 2.06524,3.78705 4.35066,7.4498 6.52599,11.1747 7.2358,11.66046 15.60732,22.54107 24.13109,33.27224 33.02563,41.49467 91.70796,-5.21062 58.68233,-46.70529 v 0 c -6.39841,-8.0192 -12.71135,-16.12767 -18.26872,-24.76357 -4.05183,-6.7063 -4.63185,-7.31189 -8.05298,-14.40594 -4.65099,-9.64428 -7.99187,-20.00919 -14.22088,-28.8274 -30.87039,-43.12214 -91.85431,0.53518 -60.98392,43.65732 z"/>
<path d="m 320.7833,722.02782 c 5.22288,7.51237 9.44694,15.6549 14.19358,23.46447 2.0148,3.31492 4.10775,6.58172 6.16163,9.87258 9.02154,13.14623 4.47073,6.82523 13.61432,18.99037 31.99583,42.29382 91.80832,-2.95512 59.81249,-45.24893 v 0 c -6.58609,-8.62688 -3.29324,-4.12667 -9.84709,-13.52358 -1.70817,-2.72164 -3.45475,-5.41955 -5.12453,-8.16492 -7.17291,-11.7934 -13.45408,-24.24534 -22.42207,-34.84053 -34.96681,-39.87257 -91.35514,9.57797 -56.38833,49.45054 z"/>
<path d="m 570.25776,147.18926 c 17.38844,9.08033 34.00509,19.61562 50.60375,30.0516 11.17082,7.01118 21.51395,15.17813 31.79904,23.39592 41.49304,33.02767 88.20124,-25.65235 46.7082,-58.68002 v 0 c -12.49217,-9.91272 -25.06953,-19.74211 -38.60708,-28.22162 -14.25066,-8.94788 -13.17349,-8.37574 -27.07795,-16.720133 -10.12781,-6.07794 -20.26655,-12.226902 -30.90827,-17.38071 -1.76512,-0.854854 -3.59137,-1.577273 -5.38706,-2.365909 -49.44153,-19.184252 -76.57216,50.736622 -27.13063,69.920872 z"/>
<path d="m 388.39705,337.18989 c 26.17764,-8.44023 52.59983,-16.23008 79.42932,-22.34217 10.81523,-2.46384 21.71082,-4.56063 32.56623,-6.84094 67.27411,-12.82557 135.37861,-21.19113 203.68957,-25.94518 13.25783,-0.92267 26.53649,-1.51644 39.80474,-2.27466 47.50351,-1.82055 95.24582,-3.1951 142.66454,1.05306 2.29104,0.30893 4.58207,0.61785 6.87311,0.92678 52.59031,6.8381 62.26085,-67.53582 9.67055,-74.37393 v 0 c -3.33077,-0.42205 -6.66154,-0.84411 -9.99231,-1.26617 -4.47005,-0.38503 -8.93381,-0.85183 -13.41015,-1.15511 -46.6266,-3.15901 -93.45868,-1.89777 -140.10511,-0.0613 -13.86916,0.8 -27.74922,1.42926 -41.60747,2.39998 -71.45991,5.0055 -142.69933,13.81558 -213.06207,27.31031 -11.7553,2.4875 -23.55407,4.77778 -35.2659,7.4625 -29.47651,6.75695 -58.53878,15.30332 -87.2524,24.75672 -49.74504,18.3829 -23.74769,88.73301 25.99735,70.35011 z"/>
<path d="m 656.96181,445.0261 c 17.15371,4.03448 33.34966,10.91599 49.45781,17.90112 16.66774,7.92791 33.73744,16.81375 46.295,30.72854 1.94525,2.15548 3.58368,4.5692 5.37552,6.85381 1.26704,2.38234 2.722,4.67389 3.80113,7.14704 6.7455,15.45937 7.66022,33.33258 7.41647,49.93488 -0.0951,6.47688 -0.61539,12.94054 -0.92309,19.4108 -3.51066,41.34183 -9.83275,82.46021 -19.09094,122.90901 -1.88642,8.24176 -4.0172,16.42567 -6.0258,24.6385 -8.61102,32.49413 -17.70666,64.96879 -29.7506,96.38975 -1.59774,4.16828 -3.35017,8.2756 -5.02525,12.4134 -3.51061,7.90929 -7.21733,15.80383 -12.06328,23.00414 -1.16834,1.73597 -2.84269,4.40245 -4.99248,5.26905 1.48376,-2.26757 4.14461,-3.3839 6.53363,-4.4323 0.66439,-0.29156 1.93636,-0.0952 2.01782,-0.81618 0.0856,-0.75753 -1.12291,-1.04202 -1.76068,-1.45966 -2.12795,-1.39349 -4.34721,-2.6423 -6.52081,-3.96344 -20.87573,-13.52032 -39.07631,-30.71391 -55.71744,-49.1061 -5.40231,-5.97075 -10.47179,-12.23442 -15.70768,-18.35163 -34.58703,-40.20245 -91.44188,8.71099 -56.85485,48.91345 v 0 c 6.19729,7.17222 12.19594,14.52099 18.59187,21.51666 22.0626,24.13141 46.4662,46.332 74.54418,63.28398 13.39207,6.70882 19.25209,10.89982 34.0009,13.57224 14.48427,2.62448 28.65155,0.21457 41.53924,-6.72663 3.19896,-1.72293 5.9765,-4.13384 8.96475,-6.20076 6.7249,-6.27509 7.93422,-6.90369 13.63402,-14.26537 9.88691,-12.7696 16.85293,-27.52395 23.3546,-42.20393 1.97563,-4.92126 4.03714,-9.80891 5.92689,-14.76379 12.97394,-34.0174 22.88739,-69.12737 32.14943,-104.30214 2.17262,-8.93116 4.47855,-17.83093 6.51785,-26.79346 10.13619,-44.54762 17.04872,-89.83943 20.66868,-135.38011 0.75168,-19.96738 1.75372,-29.03178 -0.0322,-48.78183 -1.96297,-21.70795 -6.93431,-43.08597 -17.18583,-62.46613 -3.04426,-5.75508 -6.97791,-10.99376 -10.46686,-16.49064 -3.85589,-4.4718 -7.46586,-9.16806 -11.56768,-13.41541 -19.04113,-19.71668 -43.20747,-33.52734 -67.87442,-44.90339 -19.87917,-8.57792 -39.94469,-16.82889 -61.078,-21.83372 -51.45633,-12.83533 -69.60824,59.93491 -18.15191,72.77025 z"/>
<path d="m 629.7153,264.62156 c -0.83923,6.62641 -1.11593,13.29389 -2.66315,19.82396 -0.94041,3.969 -2.13491,7.87484 -3.32409,11.77653 -6.23159,20.4459 -6.29364,19.51585 -14.38693,41.29313 -3.85338,9.17914 -7.57384,18.41522 -11.56014,27.53742 -10.65491,24.38255 -20.04898,44.05877 -31.69429,68.2063 -19.96513,41.39938 -40.73639,82.40092 -61.25622,123.52639 -7.32168,14.76325 -14.66432,29.51614 -21.96505,44.28977 -7.32108,14.81481 -14.69096,29.60597 -21.90032,44.47547 -21.79856,44.96017 -19.50609,41.39757 -40.6917,85.78991 -6.21194,13.0165 -12.55756,25.96878 -18.83634,38.95318 -23.08519,47.74488 44.43628,80.39227 67.52146,32.64738 v 0 c 6.38538,-13.20767 12.8375,-26.38329 19.15614,-39.62302 20.45671,-42.86381 19.18799,-41.42901 40.13553,-84.63563 7.1782,-14.80584 14.51651,-29.53354 21.80612,-44.28485 7.27384,-14.71942 14.58947,-29.41816 21.8842,-44.12725 20.72682,-41.5404 41.7108,-82.95452 61.8659,-124.7772 11.97761,-24.85406 22.20715,-46.30423 33.16067,-71.48731 4.39156,-10.0966 8.48033,-20.32222 12.7205,-30.48333 3.22939,-8.77527 6.64598,-17.48391 9.68819,-26.32582 4.10243,-11.92331 8.97804,-28.09419 11.69042,-40.63001 1.65997,-7.67189 2.24262,-15.40333 3.13312,-23.16262 6.21009,-52.66816 -68.27393,-61.45056 -74.48402,-8.7824 z"/>
</svg>
