<?xml version="1.0" ?>
<svg xmlns="http://www.w3.org/2000/svg" viewBox="0 0 1000 1000">
<path d="m 237.48051,128.06717 c -7.05663,16.46579 -15.14639,32.44712 -24.3204,47.84015 -3.72368,6.24796 -7.67,12.36052 -11.505,18.54078 -26.52697,41.16461 -55.32071,80.80532 -83.81109,120.61813 -8.17483,11.78162 -16.87383,23.21963 -24.618996,35.29843 -2.374852,3.70364 -8.04018,12.90688 -9.473771,17.20878 -1.700173,5.10186 -2.54741,10.44936 -3.821116,15.67403 2.581931,9.39546 2.802303,19.78977 7.745793,28.18637 6.955397,11.81385 20.98759,17.50288 32.99055,21.76873 4.51564,1.60486 9.17635,2.77196 13.79991,4.03266 2.80271,0.76421 26.06278,6.56612 28.63744,7.21013 16.19485,3.60645 31.45103,9.28192 46.61091,15.86895 48.7204,20.9481 78.34549,-47.95295 29.62509,-68.90105 v 0 c -4.11044,-1.75345 -8.17843,-3.60993 -12.33131,-5.26035 -14.87534,-5.91169 -30.1587,-10.66364 -45.70572,-14.46604 -8.77232,-2.19416 -17.56271,-4.31751 -26.31517,-6.58955 -2.84744,-0.73917 -5.64674,-1.66743 -8.51625,-2.31568 -0.72927,-0.16475 -2.59501,-0.77226 -2.24003,-0.11426 12.68771,23.51852 3.99174,-11.33746 10.13487,29.75991 -0.92138,2.3678 -1.82528,4.74247 -2.76414,7.10339 -0.2653,0.66714 0.40748,-1.38695 0.74327,-2.02154 0.97136,-1.83571 2.04848,-3.61568 3.16596,-5.36628 7.31288,-11.45605 15.60701,-22.25409 23.32458,-33.43042 29.4665,-41.17703 59.23854,-82.18329 86.60103,-124.80701 4.34289,-7.03911 8.81718,-13.99882 13.02868,-21.11731 10.93553,-18.48378 20.57296,-37.69054 28.89473,-57.48474 19.2589,-49.4125 -50.62091,-76.6487 -69.87982,-27.23621 z"/>
<path d="m 253.67655,341.47201 c -0.22293,3.49361 -1.64515,6.7289 -2.93436,9.94372 -1.33208,3.3217 -2.68518,6.63586 -4.11586,9.9163 -6.95177,15.93984 -6.51515,14.42182 -14.97751,31.03081 -25.2115,46.75104 -53.54215,91.70744 -82.47948,136.21377 -20.78461,32.25164 -42.09559,64.16515 -64.735875,95.14703 -13.023265,17.55433 -33.885908,40.58264 -13.295222,65.05853 9.124153,10.84576 26.631334,9.71057 39.946997,14.56586 4.20606,-1.24997 8.45675,-2.35855 12.61817,-3.74991 3.9592,-1.32375 7.82766,-2.90507 11.72907,-4.39052 10.93527,-4.16359 20.07111,-7.90048 31.20704,-11.7312 16.35887,-5.62739 20.29879,-6.45461 37.15208,-11.16334 25.08523,-6.38348 50.72141,-10.55389 76.51391,-12.69082 5.96634,-0.49432 11.94896,-0.76716 17.92344,-1.15074 52.91905,-3.47476 48.005,-78.3136 -4.91405,-74.83884 v 0 c -6.90375,0.46203 -13.81735,0.79507 -20.71127,1.38608 -30.04754,2.57598 -59.89799,7.54874 -89.10174,15.09094 -7.32589,2.06891 -14.69335,3.99592 -21.97768,6.20672 -15.26779,4.63379 -23.8039,7.76492 -38.42609,13.26058 -4.70461,1.7682 -9.37224,3.63339 -14.06581,5.43068 -3.15284,1.20731 -6.3714,2.25035 -9.473316,3.58308 -0.292038,0.12548 -0.397966,0.49573 -0.596949,0.74359 11.029205,5.2298 26.115865,5.66997 33.087605,15.68941 28.65299,41.17863 6.68151,25.59515 0.75595,39.58889 -0.47161,1.11375 1.33485,-2.01818 2.04392,-2.998 1.41175,-1.9508 2.8808,-3.85948 4.31729,-5.79213 1.94702,-2.61951 3.88881,-5.2429 5.83322,-7.86436 23.4256,-32.09148 45.54218,-65.10043 67.05035,-98.50397 30.39322,-46.76068 60.13289,-94.01026 86.49937,-143.19052 8.68105,-17.21064 10.46707,-19.9768 17.59507,-36.78595 5.99062,-14.12699 11.62191,-28.76042 12.43772,-44.25161 2.65453,-52.96653 -72.25145,-56.72061 -74.90599,-3.75408 z"/>
<path d="m 335.16825,577.84776 c 8.22698,9.20925 16.45668,18.42136 23.76519,28.39161 5.80806,7.92333 8.47739,12.18201 13.966,20.47476 2.33983,3.90761 4.67967,7.81522 7.0195,11.72282 27.36463,45.42772 91.60912,6.72829 64.24449,-38.69942 v 0 c -2.92571,-4.83368 -5.85143,-9.66736 -8.77715,-14.50103 -6.77812,-10.18621 -9.79231,-15.00076 -17.07271,-24.81199 -7.99897,-10.77958 -16.77007,-20.93261 -25.77066,-30.87942 -34.15515,-40.57002 -91.52981,7.73266 -57.37466,48.30267 z"/>
<path d="m 72.218445,826.93365 c 12.201736,21.85285 26.148329,42.69489 40.069295,63.47744 15.09281,22.28039 31.6208,43.55625 49.31932,63.81941 34.92887,39.90582 91.36422,-9.49105 56.43536,-49.39687 v 0 c -15.62676,-17.80663 -30.12597,-36.59009 -43.45386,-56.17906 -13.32405,-19.86671 -26.65136,-39.7977 -38.29978,-60.70799 -27.56802,-45.30457 -91.638358,-6.3175 -64.070335,38.98707 z"/>
<path d="m 201.42144,778.66992 c 4.82813,13.39915 12.42314,25.52997 20.07468,37.45407 7.27411,11.33591 8.36245,12.69681 16.05684,23.80549 8.37684,10.98751 9.57015,13.09381 19.02343,23.29746 3.11145,3.35843 6.44065,6.50837 9.66098,9.76255 37.50098,37.49902 90.5326,-15.53538 53.03162,-53.0344 v 0 c -7.23357,-7.11915 -14.36806,-14.33654 -20.09681,-22.78156 -7.57596,-10.89616 -6.96182,-9.82438 -14.24865,-21.0741 -5.00283,-7.72356 -10.32495,-15.44903 -13.43535,-24.1812 -18.91631,-49.54466 -88.98304,-22.79297 -70.06674,26.75169 z"/>
<path d="m 331.05302,763.47736 c -0.45178,-0.30453 -1.64772,-1.37331 -1.35534,-0.91358 0.74483,1.17115 1.82279,2.09387 2.75813,3.1193 1.86881,2.04878 3.7442,4.09197 5.65381,6.10276 6.76864,7.12729 13.76644,14.02972 20.5637,21.13004 6.54149,7.49855 3.50334,3.81592 9.16137,11.00904 33.06648,41.46213 91.70278,-5.30094 58.6363,-46.76306 v 0 c -8.68116,-10.78938 -4.13943,-5.40083 -13.65229,-16.14277 -6.52167,-6.79707 -13.22421,-13.41715 -19.72128,-20.2366 -3.29641,-3.45998 -6.33956,-7.15846 -9.68996,-10.56619 -1.95801,-1.99152 -4.0545,-3.84199 -6.08175,-5.76299 -41.73631,-32.71973 -88.009,26.30431 -46.27269,59.02405 z"/>
<path d="m 551.79492,170.80306 c 17.9183,11.72375 35.76295,23.55859 53.75514,35.17152 14.52609,8.94185 7.4349,4.67924 21.25789,12.81387 45.72297,26.86839 83.72061,-37.79364 37.99765,-64.66204 v 0 c -12.07656,-7.08482 -5.87699,-3.37022 -18.58487,-11.16688 -17.70219,-11.42464 -35.26238,-23.06333 -52.88777,-34.60318 -44.15649,-29.371831 -85.69453,33.07488 -41.53804,62.44671 z"/>
<path d="m 426.31771,327.35908 c 27.73104,-5.98963 55.48381,-12.02897 83.44647,-16.86294 10.24148,-1.77047 20.52577,-3.28376 30.78865,-4.92564 46.12089,-6.70106 92.67241,-10.02333 139.25847,-10.71294 28.9,-0.42781 37.4729,0.0301 65.86639,0.68778 28.54936,1.35001 57.29603,2.50174 85.44117,7.88079 3.41198,0.65209 6.77989,1.51672 10.16983,2.27508 51.80951,11.32586 67.82669,-61.94385 16.01718,-73.26971 v 0 c -4.66672,-1.00287 -9.30678,-2.13898 -14.00015,-3.00862 -31.62723,-5.86024 -63.84671,-7.48422 -95.91805,-8.85804 -29.86505,-0.67102 -39.31885,-1.15859 -69.7083,-0.67698 -49.85046,0.79004 -99.6603,4.40532 -149.00573,11.62938 -10.91451,1.75527 -21.85118,3.37793 -32.74353,5.26582 -29.7925,5.1637 -59.38554,11.54662 -88.89669,18.09764 -51.24996,13.63605 -31.96566,86.11443 19.28429,72.47838 z"/>
<path d="m 504.01986,348.62963 c -1.31054,2.26269 -2.66265,4.50181 -3.93163,6.78807 -8.33251,15.01228 -16.42121,30.08394 -25.39425,44.7383 -11.50116,18.78316 -12.37737,19.58175 -24.95677,38.06324 -18.45528,26.39218 -9.26838,12.88654 -27.52996,40.53783 -29.20194,44.26903 33.40392,85.56681 62.60586,41.29778 v 0 c 17.30294,-26.26419 8.32645,-13.02378 26.9665,-39.69606 13.77625,-20.32164 14.91464,-21.46637 27.4469,-41.98561 7.71524,-12.63226 13.02006,-22.00724 20.04952,-34.76287 1.93828,-3.51718 3.76566,-7.09488 5.71424,-10.60638 1.32715,-2.39162 2.74122,-4.73396 4.11182,-7.10095 26.35624,-46.02009 -38.726,-83.29344 -65.08223,-37.27335 z"/>
<path d="m 737.03736,438.40114 c 1.07511,1.16366 0.20455,0.26732 2.95488,2.3014 5.97642,4.42004 9.46224,6.86597 15.36605,11.89319 7.34933,6.25812 10.6148,9.73858 17.55231,16.58159 5.28673,5.73511 10.50898,10.83777 14.72644,17.43784 1.62243,2.539 2.73817,5.3682 4.10725,8.0523 26.19224,46.11363 91.40676,9.07222 65.21453,-37.04141 v 0 c -3.41516,-5.73894 -6.48264,-11.69959 -10.24546,-17.21683 -6.52157,-9.56225 -13.48342,-16.41259 -21.30836,-24.7981 -3.80243,-3.70747 -7.51747,-7.50674 -11.40729,-11.12243 -8.19332,-7.61592 -14.31467,-12.75848 -23.13613,-19.44471 -6.35038,-4.81328 -12.76565,-9.36448 -19.73108,-13.25091 -2.24437,-1.25227 -4.64155,-2.20849 -6.96232,-3.31273 -49.44148,-19.18439 -76.57229,50.73642 -27.13082,69.9208 z"/>
<path d="m 671.39064,522.67899 c -1.75469,18.96341 -7.50738,37.27378 -14.52549,54.90052 -2.90498,7.29617 -6.18761,14.43626 -9.28142,21.65439 -18.77782,39.85175 -41.97772,77.45093 -67.65816,113.19776 -18.15303,25.26878 -29.11245,38.59861 -48.41058,63.07109 -23.78511,28.06131 -47.92972,56.20532 -75.85043,80.32368 -7.50976,6.48705 -15.64839,12.20824 -23.47259,18.31236 -41.64355,32.83771 4.79599,91.73058 46.43953,58.89287 v 0 c 9.54067,-7.58881 19.43291,-14.7555 28.622,-22.76644 30.53958,-26.62406 57.12441,-57.4503 83.16925,-88.34182 20.42052,-25.93061 32.06789,-40.10818 51.29981,-66.99313 28.52117,-39.87072 54.2105,-81.84261 74.87883,-126.34397 3.63473,-8.603 7.50865,-17.1088 10.90419,-25.80898 8.82673,-22.61615 15.77641,-46.16086 18.25231,-70.37658 6.87431,-52.58559 -67.49294,-62.30733 -74.36725,-9.72175 z"/>
<path d="m 502.84874,597.47421 c 17.44169,24.56872 36.3007,48.09862 54.59918,72.02949 27.5564,36.4387 53.54243,74.03399 78.43199,112.33444 13.85256,21.48378 26.90031,43.57242 42.44183,63.91447 2.22566,2.91313 4.57517,5.72952 6.86276,8.59427 7.35148,8.68426 15.34788,16.88978 24.30531,23.93527 5.65461,4.44765 7.3674,5.3782 13.46675,9.37982 18.92224,11.42001 39.16051,20.55148 59.75094,28.51773 6.18523,2.393 12.44624,4.58532 18.66935,6.87797 29.21336,10.26335 59.01827,18.6808 88.79644,27.11063 51.02905,14.44078 71.45141,-57.72519 20.42236,-72.16597 v 0 c -27.95024,-7.90691 -55.93035,-15.7832 -83.3713,-25.34996 -21.74254,-7.95009 -43.53872,-16.19217 -63.55528,-27.97843 -2.49277,-1.56416 -4.15762,-2.52589 -6.45593,-4.24924 -5.03173,-3.77294 -9.43623,-8.33329 -13.56302,-13.0541 -16.85856,-20.80067 -30.47993,-43.90739 -44.89095,-66.41275 -25.94548,-39.89072 -53.00653,-79.06412 -81.73363,-117.01189 -16.69207,-21.82774 -33.64408,-43.45831 -50.10646,-65.45883 -27.56802,-45.30457 -91.63836,-6.3175 -64.07034,38.98708 z"/>
</svg>
