<?xml version="1.0" ?>
<svg xmlns="http://www.w3.org/2000/svg" width="1000" height="1000">
<path d="m 205.10345,83.755125 c -0.0408,0.702848 0.015,1.418072 -0.12247,2.108545 -0.15744,0.790548 -0.48862,1.536548 -0.75498,2.297342 -2.66856,7.622339 -3.61718,10.392194 -7.61344,18.568678 -7.16825,14.66647 -12.09752,22.52582 -20.56138,37.18252 -19.44317,31.69328 -39.93281,62.77144 -61.81161,92.8414 -10.60295,14.57258 -16.001133,21.37055 -26.727223,35.25248 -2.18985,2.80258 -15.844956,20.17896 -18.653348,24.11341 -2.401499,3.36442 -4.911087,6.68778 -6.840186,10.3436 -2.389382,4.52811 -5.382947,9.03739 -6.064337,14.1117 -1.199325,8.93136 -2.81953,18.66723 0.539843,27.02918 3.948717,9.82891 13.4537,16.36452 20.18055,24.54677 6.028616,2.5465 11.898508,5.50744 18.085848,7.63948 5.0016,1.72347 24.192463,5.77745 29.531953,6.97226 9.61576,2.15172 19.07067,4.2414 28.58079,6.8328 4.46467,1.21658 8.87675,2.61854 13.31512,3.9278 13.65194,4.47706 27.34518,9.44645 39.16271,17.77301 44.13175,29.40899 85.72234,-33.00273 41.59059,-62.41172 v 0 c -2.82799,-1.83956 -5.58465,-3.79375 -8.48398,-5.51869 -16.00517,-9.52213 -33.52793,-16.13758 -51.19822,-21.82182 -5.38304,-1.56584 -10.7377,-3.23277 -16.14912,-4.69752 -10.15275,-2.74812 -20.43227,-5.0373 -30.69394,-7.33014 -4.35729,-0.97358 -8.72247,-1.91147 -13.08249,-2.87274 -2.83667,-0.62541 -5.60392,-1.80575 -8.50757,-1.88728 -0.57232,-0.0161 0.29239,1.10714 0.43858,1.66071 3.17116,5.72918 8.14168,10.78458 9.51347,17.18754 1.24663,5.81879 -0.89251,11.8957 -2.03123,17.73656 -0.16853,0.86447 -2.17388,2.73025 -1.80316,1.93133 0.93179,-2.008 2.23362,-3.82984 3.52009,-5.63132 2.47764,-3.46951 5.15241,-6.79409 7.76116,-10.16612 3.52751,-4.55962 7.09822,-9.08564 10.64733,-13.62846 11.52508,-14.93207 17.0758,-21.92032 28.4931,-37.63511 23.26845,-32.02673 45.07764,-65.1146 65.69671,-98.90241 14.56526,-25.40695 30.31345,-51.07219 36.99428,-79.95698 1.91125,-8.263376 1.79642,-10.627525 2.04656,-17.596805 0,-53.033009 -75,-53.033009 -75,0 z"/>
<path d="m 274.60233,248.25835 c -6.42049,14.59695 -13.85747,28.69447 -21.37721,42.75357 -28.20404,50.26655 -59.18242,98.9328 -90.62221,147.2213 -23.00561,34.91289 -46.46479,69.52217 -69.836623,104.18971 -1.10881,1.69428 -7.81614,11.68814 -8.79093,14.08373 -2.018762,4.96119 -6.889727,10.25134 -5.01104,15.26725 5.87619,15.68887 13.71,31.99055 26.682053,42.59225 8.64812,7.06788 28.87535,-0.74096 38.61589,-3.8 25.10101,-9.6591 50.45731,-18.7084 76.55319,-25.32439 5.64951,-1.4323 11.35225,-2.64579 17.02837,-3.96869 21.91695,-4.31676 11.15837,-2.32431 32.27033,-6.00652 52.23882,-9.14366 39.30773,-83.0205 -12.93109,-73.87684 v 0 c -23.62537,4.14857 -11.46376,1.87675 -36.47514,6.86719 -6.59389,1.55671 -13.21831,2.98937 -19.78168,4.67013 -27.38202,7.01204 -54.10773,16.27606 -80.43684,26.50649 -12.76816,4.98959 4.47274,-2.65238 10.39447,4.30637 10.03068,11.78727 16.7726,26.32776 21.96734,40.90751 1.17579,3.3 -7.68297,15.08262 -2.22649,6.3284 1.39586,-2.23949 2.88617,-4.41871 4.32926,-6.62807 23.59713,-35.00223 47.28266,-69.94552 70.5051,-105.19874 32.61127,-50.10894 64.7508,-100.60722 93.92651,-152.81297 7.09416,-13.30832 14.04996,-26.55623 20.30728,-40.27641 2.55871,-5.61037 3.92873,-8.4147 6.03327,-14.12967 0.47043,-1.27746 0.81486,-2.59785 1.22228,-3.89678 13.98291,-51.15641 -58.36318,-70.93123 -72.34609,-19.77482 z"/>
<path d="m 336.26439,507.28739 c 8.58306,13.00774 16.02934,26.82137 20.4843,41.82678 1.33769,4.50566 2.28844,9.11728 3.43266,13.67592 13.48669,51.28946 86.02095,32.21641 72.53426,-19.07306 v 0 c -1.82929,-6.74954 -3.37172,-13.58345 -5.48788,-20.24861 -6.42198,-20.22701 -16.32018,-39.10334 -27.91624,-56.80201 -28.72337,-44.58103 -91.77047,-3.96005 -63.0471,40.62098 z"/>
<path d="m 73.870855,745.70132 c 6.255947,27.50287 17.847072,53.40084 29.209195,79.08909 7.56479,16.57359 16.29122,32.61704 26.36082,47.80648 4.92321,7.42638 10.87472,15.58474 16.87438,22.26253 2.56367,2.85343 5.41154,5.43811 8.1173,8.15716 38.09739,36.89294 90.27189,-16.9849 52.1745,-53.87784 v 0 c -0.89315,-0.76608 -1.86988,-1.4443 -2.67944,-2.29823 -4.04149,-4.26303 -7.78899,-9.41247 -11.0294,-14.2207 -8.15813,-12.10531 -15.18117,-24.93923 -21.24749,-38.21135 -9.65476,-21.74839 -19.73902,-43.62897 -25.02873,-66.93551 -12.88941,-51.44281 -85.640539,-33.21444 -72.751135,18.22837 z"/>
<path d="m 177.60485,721.45695 c 8.38154,14.13778 14.9134,29.2389 21.83443,44.11578 6.52966,13.41828 13.22045,26.87131 21.92887,39.04459 1.90101,2.65738 4.00183,5.16597 6.00275,7.74896 32.93932,41.56322 91.71859,-5.02002 58.77927,-46.58324 v 0 c -7.95572,-9.5109 -13.30239,-20.76333 -18.70989,-31.84675 -7.47264,-16.0616 -14.57083,-32.34973 -23.58381,-47.63218 -24.85681,-46.84698 -91.10843,-11.69414 -66.25162,35.15284 z"/>
<path d="m 295.232,673.99396 c 7.97912,11.1059 16.23271,22.01072 23.64634,33.50808 28.86955,44.4865 91.78297,3.65878 62.91341,-40.82772 v 0 c -8.41302,-12.90367 -17.54371,-25.29478 -26.60825,-37.74496 -31.86548,-42.39211 -91.81698,2.67248 -59.9515,45.0646 z"/>
<path d="m 416.87229,285.30625 c 2.112,-0.35447 4.24062,-0.62113 6.33599,-1.0634 7.40581,-1.56315 15.22209,-3.82571 22.44173,-5.85967 15.77064,-4.44301 20.68821,-6.12015 37.44023,-10.17836 8.60845,-2.08541 17.27445,-3.92563 25.91168,-5.88845 57.6156,-11.89836 116.11713,-19.72063 174.85806,-23.12709 11.63831,-0.67492 23.29575,-0.96531 34.94362,-1.44797 47.39226,-1.63608 94.74079,1.12392 141.86243,5.97264 3.51014,0.39849 7.02027,0.79699 10.5304,1.19548 52.6957,5.97187 61.1412,-68.5511 8.4455,-74.52297 v 0 c -3.77211,-0.42679 -7.54421,-0.85357 -11.31632,-1.28036 -13.09195,-1.34122 -20.90325,-2.20949 -34.47788,-3.27068 -39.31306,-3.07329 -78.76747,-4.20378 -118.19126,-3.02805 -12.45491,0.52963 -24.9202,0.85498 -37.36475,1.5889 -62.47673,3.68457 -124.69465,12.05472 -185.96111,24.79646 -9.40253,2.15003 -18.8359,4.16936 -28.20759,6.45009 -18.6477,4.53817 -36.96603,10.22475 -55.51473,15.12011 -52.71008,5.84353 -44.44608,80.38685 8.264,74.54332 z"/>
<path d="m 594.13707,122.02082 c 2.50057,29.80752 3.14119,59.75395 3.99009,89.64524 0.28846,33.00087 2.37521,66.19251 -0.88649,99.1248 -0.71189,7.1878 -1.97198,14.31071 -2.95797,21.46607 -7.0029,52.56861 67.34035,62.47222 74.34325,9.9036 v 0 c 1.15947,-8.94991 2.62956,-17.86504 3.4784,-26.84973 3.32146,-35.1567 1.41846,-70.55284 0.99248,-105.77771 -0.64446,-22.61168 -0.64459,-24.96632 -1.51272,-46.80001 -0.59838,-15.04941 -1.13254,-30.14535 -2.5214,-45.14948 -0.21622,-2.33593 -0.5344,-4.66131 -0.8016,-6.99196 -8.08165,-52.413623 -82.20569,-40.984436 -74.12404,11.42918 z"/>
<path d="m 527.41747,400.46668 c 19.95417,-6.87367 40.83483,-10.23876 61.6175,-13.45491 33.87876,-4.46446 68.11508,-6.66142 102.29019,-5.66677 5.81316,0.16919 11.61788,0.55758 17.42682,0.83636 12.22761,0.55175 24.34999,2.14161 36.43657,3.96969 52.45562,7.80438 63.49267,-66.37907 11.03706,-74.18345 v 0 c -14.59488,-2.14329 -29.2264,-4.04941 -43.9818,-4.70491 -6.70486,-0.30446 -13.40524,-0.73333 -20.1146,-0.91338 -38.32402,-1.02844 -76.71138,1.45188 -114.68945,6.56421 -7.04731,1.11327 -14.11692,2.09349 -21.14192,3.33981 -18.88587,3.35059 -37.64667,7.81759 -55.75133,14.19227 -49.51238,19.00064 -22.64142,89.02172 26.87096,70.02108 z"/>
<path d="m 402.61959,457.66576 c 1.77581,16.93342 3.37317,33.92173 5.68222,50.79513 0.8554,6.25083 1.89404,12.47522 2.84106,18.71282 3.25663,19.62136 7.74492,39.02188 13.69986,58.00259 3.83665,12.22894 5.94221,17.20912 10.36973,28.69994 19.16311,49.44972 89.09558,22.34899 69.93247,-27.10073 v 0 c -3.48069,-8.91742 -5.28688,-13.17915 -8.30869,-22.62142 -5.05527,-15.79628 -8.81291,-31.96603 -11.55552,-48.31967 -0.83485,-5.4125 -1.75998,-10.81184 -2.50455,-16.23749 -2.06841,-15.07244 -3.35764,-30.24811 -5.23429,-45.34435 -2.41348,-52.97807 -77.33577,-49.56488 -74.92229,3.41318 z"/>
<path d="m 502.70841,530.37448 c 1.71044,-0.51028 3.43226,-0.98387 5.13133,-1.53084 9.49932,-3.05805 18.81615,-6.62607 28.33675,-9.62986 13.85406,-4.371 17.78671,-5.3251 32.3048,-9.37262 6.66321,-1.5459 13.29169,-3.25002 19.98964,-4.63769 15.05062,-3.11814 33.51377,-6.08991 48.61267,-8.29702 27.88327,-4.0759 55.85553,-7.05943 83.88869,-9.86109 32.85087,-2.99173 65.81285,-5.09716 98.81498,-4.70043 15.76014,0.18946 18.33027,0.53188 33.19964,1.48985 8.49801,0.86972 17.04937,1.80641 25.33171,3.99328 1.08933,0.28762 2.16317,0.63852 3.2168,1.03755 0.32333,0.12246 1.23484,0.59485 0.89719,0.5205 -0.77867,-0.17145 -1.49853,-0.54525 -2.24779,-0.81788 -1.56149,-1.03851 -3.32432,-1.82451 -4.68448,-3.11553 -7.78458,-7.3889 -9.81132,-12.74496 -11.17287,-24.82734 -0.4147,-3.68004 1.79282,-7.25614 1.82334,-10.95935 0.007,-0.82464 -1.21448,1.12202 -1.74744,1.75132 -2.33606,2.75833 -4.56872,5.60257 -6.85309,8.40386 -3.79609,4.22499 -7.57849,8.46232 -11.38827,12.67498 -5.46464,6.04254 -10.99159,12.02871 -16.43489,18.09049 -14.93646,16.63355 -26.72474,30.54369 -42.42232,46.60816 -7.59506,7.77258 -15.57005,15.16461 -23.35507,22.74691 -37.94139,37.05335 14.45995,90.71059 52.40135,53.65724 v 0 c 8.63076,-8.44926 17.4586,-16.70179 25.89229,-25.34777 16.38387,-16.79629 27.52023,-29.99866 42.99886,-47.23565 5.58545,-6.21996 11.27215,-12.34846 16.86187,-18.56457 4.67869,-5.20299 9.29527,-10.46149 13.94291,-15.69224 3.92326,-4.94373 14.65211,-17.6661 17.42151,-24.02723 2.6493,-6.08528 5.64558,-12.41321 5.79659,-19.04846 0.33598,-14.76243 -3.72049,-23.76442 -13.04807,-33.48264 -2.43815,-2.54027 -5.56347,-4.31717 -8.34521,-6.47576 -2.62716,-1.36406 -5.18047,-2.88088 -7.88146,-4.09217 -4.47009,-2.00467 -10.88484,-3.90875 -15.57653,-5.05702 -12.0465,-2.94833 -24.38635,-4.47997 -36.71929,-5.59279 -17.09512,-1.05285 -20.25608,-1.44977 -38.15794,-1.63732 -35.41397,-0.37101 -70.78702,1.84166 -106.03802,5.07332 -55.41649,5.56081 -111.05753,11.66774 -165.19782,25.18852 -16.25291,4.54939 -20.14859,5.4816 -35.7166,10.41388 -10.13369,3.21057 -12.63039,4.20456 -21.72009,7.38824 -4.82601,1.69032 -3.59014,1.27609 -7.04787,2.3836 -51.32292,13.3588 -32.43072,85.94038 18.8922,72.58157 z"/>
<path d="m 523.86159,600.38487 c -5.58433,18.65888 -10.94467,37.38786 -17.07078,55.88013 -2.63194,7.94478 -5.42667,15.83472 -8.14001,23.75208 -9.29764,27.47502 -20.32827,54.30376 -31.90672,80.88164 -5.90139,13.54642 -16.44142,37.22444 -23.11263,50.76983 -3.36849,6.83947 -7.06153,13.51425 -10.5923,20.27137 -3.45666,5.18663 -6.91332,10.37325 -10.36998,15.55988 -28.98318,44.41256 33.82566,85.40096 62.80884,40.9884 v 0 c 4.69543,-7.30528 9.39085,-14.61057 14.08628,-21.91585 4.0072,-7.72249 8.1834,-15.35961 12.0216,-23.16747 6.89624,-14.02868 18.02455,-39.00328 24.14178,-53.07378 12.29106,-28.27118 23.98173,-56.81518 33.88136,-86.02554 2.88791,-8.44654 5.86148,-16.86428 8.66372,-25.33963 5.14998,-15.57602 7.20648,-22.7924 11.68232,-37.75768 1.64708,-5.50712 5.09208,-16.73029 6.61339,-22.77929 0.57293,-2.2781 0.97314,-4.59618 1.45971,-6.89427 7.88412,-52.44369 -66.28246,-63.59351 -74.16658,-11.14982 z"/>
<path d="m 637.29449,589.79637 c -0.0732,-0.15616 -0.23425,-0.64031 -0.21954,-0.46848 1.04686,12.23175 -0.16396,-9.39761 0.9733,9.0261 0.71429,11.57177 0.44005,23.14072 0.24112,34.72269 -1.199,37.15383 -3.4881,74.25886 -4.79004,111.40891 -0.39111,19.87792 -1.12552,39.86884 1.03897,59.68282 1.24659,11.41147 1.86494,12.7857 4.31923,23.74441 4.18874,14.99058 11.06406,29.02236 22.36694,39.97634 7.48861,7.25745 11.5798,9.20727 20.23092,14.62061 23.47518,12.52655 49.12341,20.22235 74.53847,27.72572 20.57977,5.77178 41.47131,10.46788 62.63081,13.54004 13.23408,1.92146 16.93477,2.09037 30.02494,3.28586 15.20577,0.75353 30.8166,2.25148 45.92057,-0.6542 3.90884,-0.75198 7.87978,-1.47028 11.56521,-2.97431 5.07799,-2.07234 9.69979,-5.12215 14.54969,-7.68322 4.51487,-4.86185 9.95463,-9.0058 13.5446,-14.58556 10.91485,-16.96455 11.75938,-39.23844 13.34911,-58.61354 4.05033,-49.36421 -0.93963,3.51243 4.32557,-49.89729 1.33448,-9.42767 2.66895,-18.85534 4.00342,-28.28302 7.37287,-52.518 -66.89881,-62.94481 -74.27167,-10.4268 v 0 c -1.45772,10.46146 -2.91543,20.92291 -4.37314,31.38437 -4.35975,44.60961 -1.38451,11.77328 -4.39243,50.61383 -0.40818,5.2707 -0.88508,10.53585 -1.32439,15.80404 -0.20205,2.42305 -1.35812,4.95953 -0.59971,7.26969 1.07804,3.28374 10.07165,-17.09889 8.51297,-5.91909 1.72563,-0.50532 3.4133,-1.16545 5.17691,-1.51597 0.15986,-0.0318 0.14695,0.44221 -0.009,0.48889 -1.23605,0.36947 -2.53111,0.52379 -3.8146,0.65409 -8.46712,0.85961 -16.9962,0.0876 -25.45681,-0.3615 -10.79653,-0.94886 -13.81815,-1.07581 -24.74861,-2.6229 -18.0524,-2.55511 -35.8661,-6.56141 -53.42332,-11.44775 -19.37373,-5.69086 -38.8836,-11.46997 -57.18276,-20.11827 -1.10157,-0.56916 -2.17209,-1.20296 -3.30473,-1.70748 -1.95611,-0.87132 -1.09399,1.14446 -2.18858,-0.21254 -1.26222,-1.56481 -1.92236,-3.73057 -2.64437,-5.52006 -0.46217,-1.78077 -1.01999,-3.53941 -1.38649,-5.3423 -3.88926,-19.13203 -1.98629,-38.94152 -2.02323,-58.28664 1.30966,-37.62039 3.67639,-75.19336 4.82604,-112.81982 0.32485,-21.42173 1.01622,-43.20573 -3.63908,-64.26249 -13.9829,-51.15641 -86.32899,-31.38159 -72.34608,19.77482 z"/>
</svg>
