<?xml version="1.0" ?>
<svg xmlns="http://www.w3.org/2000/svg" viewBox="0 0 1000 1000">
<path d="m 212.12055,87.829424 c 4.2e-4,2.752746 0.0519,5.738022 -0.2764,8.433037 -0.65981,5.416589 -1.91459,9.567949 -3.88743,14.779059 -4.82415,12.74268 -6.31283,14.60371 -13.008,27.57022 -22.38566,39.37251 -49.57904,75.75865 -77.25458,111.5198 -8.49806,11.38172 -18.026016,21.99978 -26.227056,33.60956 -2.070719,2.93141 -4.269262,5.80887 -5.904219,9.00386 -2.287363,4.4699 -5.379336,8.89385 -5.814292,13.89613 -0.84036,9.66473 1.387929,19.35267 2.081894,29.02901 6.120692,7.0378 11.193862,15.14597 18.362073,21.1134 6.05402,5.03988 22.93394,10.02668 30.69379,12.39794 9.84139,3.00733 19.79397,5.64073 29.64751,8.60796 5.0037,1.50678 9.97752,3.11105 14.96628,4.66657 12.85934,4.20813 25.58034,8.95028 37.6424,15.12386 3.83088,1.96071 7.53538,4.15912 11.30308,6.23869 46.57756,25.35804 82.43925,-40.51259 35.86168,-65.87063 v 0 c -5.17628,-2.78977 -10.27005,-5.73839 -15.52886,-8.36931 -15.10451,-7.55663 -30.94283,-13.5093 -46.98372,-18.73233 -20.51003,-6.37663 -11.70267,-3.74911 -31.68401,-9.53998 -4.30083,-1.24644 -8.6071,-2.47417 -12.90603,-3.72715 -2.81855,-0.82151 -5.55569,-1.98316 -8.44633,-2.49631 -0.36538,-0.0649 -0.85702,0.54388 -0.68877,0.87464 2.40889,4.73559 5.40851,9.1467 8.11277,13.72005 -0.38346,6.76017 -0.15731,13.5827 -1.15037,20.28052 -0.19733,1.33093 -2.72909,4.5754 -2.34379,3.28627 0.48638,-1.6273 1.68388,-2.95598 2.66041,-4.34561 1.8955,-2.69736 3.92703,-5.29715 5.94681,-7.90276 6.49974,-8.38497 13.27976,-16.55039 19.72426,-24.97884 30.56046,-39.53308 60.53831,-79.8079 84.8595,-123.56279 3.53533,-7.09959 7.37824,-14.05415 10.60599,-21.29875 9.36919,-21.02885 15.54163,-43.18009 14.57521,-66.330407 -2.12435,-52.990444 -77.06416,-49.986153 -74.9398,3.004291 z"/>
<path d="m 287.89808,242.181 c -8.93302,24.32032 -21.12605,47.20252 -33.15686,70.08429 -18.80809,34.68246 -39.26678,68.52013 -62.05846,100.74416 -13.721,19.39943 -21.19867,28.50218 -35.72693,47.06494 -18.13903,22.57336 -37.46678,44.1884 -58.153244,64.45658 -6.159806,6.03525 -11.192056,10.62208 -17.416508,16.38149 -2.092311,2.03903 -4.315575,3.9518 -6.276933,6.11709 -12.245981,13.51925 -21.694934,29.78151 -6.905992,52.14129 8.04373,12.16152 26.278355,13.32161 40.505137,16.5158 3.28417,0.73736 27.72926,-7.71479 30.84768,-8.73699 24.83365,-8.81478 49.78956,-17.32951 75.31344,-23.95078 17.28328,-4.48354 24.62759,-5.82686 42.12108,-9.52442 6.37275,-1.23691 12.74549,-2.47382 19.11824,-3.71073 52.05861,-10.11934 37.74771,-83.74133 -14.3109,-73.622 v 0 c -6.78973,1.32166 -13.57945,2.64331 -20.36917,3.96496 -19.69438,4.19059 -27.19375,5.55147 -46.7251,10.65412 -26.65758,6.96441 -52.77273,15.75315 -78.71536,24.98801 -3.79596,1.27244 -7.62193,2.45861 -11.38787,3.81732 -1.14108,0.41169 -4.30794,0.78462 -3.32053,1.4893 9.43458,6.7332 25.06981,7.07616 30.01276,17.56018 5.84006,12.3868 -1.17863,27.3733 -2.39675,41.01352 -0.14971,1.67646 -13.60289,4.24273 3.44923,-3.68773 7.19774,-6.67027 12.4027,-11.41208 19.59117,-18.47823 22.79227,-22.40442 44.11544,-46.26364 64.10682,-71.19676 16.03476,-20.53294 23.51631,-29.61552 38.71219,-51.16173 24.36645,-34.54914 46.26618,-70.80141 66.3854,-107.96648 10.14293,-19.33246 20.27594,-38.58193 28.93609,-58.63813 2.48974,-5.76603 6.79692,-16.47983 8.8903,-22.81162 0.90108,-2.72547 1.57924,-5.51965 2.36886,-8.27948 10.7678,-51.92836 -62.66999,-67.15633 -73.43779,-15.22797 z"/>
<path d="m 338.82641,506.48861 c 8.52375,10.2713 16.59214,20.85877 23.78753,32.103 3.25991,5.05169 5.56332,10.56874 7.7749,16.12548 20.25695,49.0118 89.57009,20.36415 69.31314,-28.64765 v 0 c -4.0917,-9.70688 -8.33698,-19.35429 -14.11599,-28.21505 -1.9992,-3.06726 -3.93496,-6.17682 -5.9976,-9.20177 -6.75893,-9.91227 -14.33329,-19.21855 -21.83842,-28.5646 -32.81017,-41.66524 -91.73372,4.73534 -58.92356,46.40059 z"/>
<path d="m 68.016376,803.3099 c 0.572165,0.6739 1.172491,1.32487 1.716495,2.02171 4.191138,5.36857 7.876904,11.20201 11.744407,16.79404 7.931906,11.46878 6.147458,8.8727 14.555611,20.62642 10.907101,14.85289 22.066581,29.52142 33.328691,44.10675 0.86198,1.07316 1.72396,2.14631 2.58594,3.21947 33.29331,41.28021 91.67234,-5.80364 58.37903,-47.08385 v 0 c -0.53667,-0.66103 -1.07335,-1.32206 -1.61003,-1.9831 -10.7099,-13.85972 -21.30841,-27.80916 -31.6963,-41.91182 -7.93084,-11.07349 -6.11823,-8.44574 -13.74158,-19.46611 -6.61329,-9.56025 -12.93852,-19.41639 -20.87342,-27.9651 -36.516121,-38.45872 -90.904963,13.18287 -54.388844,51.64159 z"/>
<path d="m 174.68695,735.41925 c 7.31849,11.87499 15.49124,23.18904 23.32398,34.72374 6.97096,10.01506 13.04331,20.81647 21.27932,29.90046 1.75069,1.93093 3.66399,3.70793 5.49598,5.5619 2.17799,1.7105 4.35599,3.421 6.53398,5.1315 43.1908,30.77424 86.71216,-30.30679 43.52135,-61.08103 v 0 c 0.59182,0.58032 1.18365,1.16064 1.77547,1.74097 0.2435,1.10481 0.24584,0.81288 -1.49205,-1.37554 -3.74155,-4.71149 -6.97795,-9.83688 -10.30181,-14.84001 -1.59073,-2.39439 -3.18206,-4.78839 -4.7731,-7.18258 -6.88708,-10.13464 -14.01939,-20.10501 -20.61674,-30.43317 -26.76665,-45.7826 -91.51303,-7.92884 -64.74638,37.85376 z"/>
<path d="m 287.3934,674.9665 c -0.12576,-0.16511 -0.44978,-0.68981 -0.37729,-0.49532 0.64762,1.73754 3.93179,8.31339 4.05747,8.54309 5.21695,9.53531 11.69571,17.91068 18.41615,26.40995 6.19312,7.75638 12.53384,15.39215 18.88894,23.01562 33.96262,40.73132 91.5654,-7.29907 57.60279,-48.0304 v 0 c -5.99528,-7.18832 -11.97609,-14.38898 -17.81891,-21.70246 -3.29601,-4.09853 -7.18361,-8.28589 -9.83766,-12.89303 -1.3798,-2.39517 -2.49499,-5.30643 -3.67812,-7.76335 -0.80081,-1.66298 -1.67114,-3.29158 -2.50671,-4.93737 -26.76631,-45.7828 -91.51297,-7.92953 -64.74666,37.85327 z"/>
<path d="m 508.28198,69.01846 c -0.60391,3.691671 -1.44287,9.394105 -2.42219,12.971748 -6.34557,23.181402 -17.73354,44.563962 -28.61259,65.823552 -20.25816,38.18326 -43.89307,74.40467 -68.22941,110.076 -6.09625,8.93565 -12.19791,17.86873 -18.43924,26.70366 -5.71361,8.08791 -11.61556,16.04112 -17.42334,24.06169 -5.11635,6.69665 -10.2327,13.3933 -15.34905,20.08995 -32.17621,42.15674 27.44243,87.66078 59.61864,45.50404 v 0 c 5.49682,-7.20855 10.99364,-14.4171 16.49046,-21.62564 6.12754,-8.4729 12.35117,-16.87714 18.38261,-25.41871 6.40203,-9.06638 12.66424,-18.23104 18.91557,-27.40198 26.04007,-38.20176 51.25987,-77.03637 72.86905,-117.95897 4.41927,-8.71738 9.056,-17.3279 13.25781,-26.15216 10.73956,-22.5543 20.49726,-46.36399 24.32595,-71.189356 10.94871,-51.890516 -62.43556,-67.374339 -73.38427,-15.483824 z"/>
<path d="m 657.25193,110.54747 c -0.0805,0.0119 -0.2859,-0.0323 -0.24135,0.0357 1.77652,2.71261 4.07302,5.04731 6.04893,7.61831 2.16538,2.81755 4.30412,5.65614 6.39517,8.52928 6.97305,9.58106 9.55476,13.56515 16.43094,23.67508 20.39569,30.05115 39.70831,60.81933 60.16299,90.82772 13.36205,18.5427 27.0498,37.16566 43.71452,52.93747 3.02804,2.86579 6.23478,5.53665 9.35217,8.30498 21.29774,17.27436 44.2699,32.35399 66.97295,47.69088 9.69227,6.42304 18.78787,12.72433 29.01933,18.32933 6.07036,3.32546 12.37567,6.20281 18.5635,9.30422 47.55805,23.46767 80.74635,-43.78958 33.18829,-67.25724 v 0 c -4.36692,-2.10687 -8.83291,-4.01965 -13.10076,-6.3206 -8.9298,-4.81438 -17.24916,-10.61446 -25.68954,-16.20562 -20.11307,-13.58454 -40.43243,-26.96156 -59.53444,-41.95666 -1.8913,-1.61921 -3.84449,-3.1688 -5.67389,-4.85763 -13.44915,-12.41567 -24.07566,-27.56891 -34.85627,-42.23581 -20.4665,-29.97295 -39.70336,-60.76673 -60.1257,-90.77299 -8.54641,-12.538464 -17.07341,-25.061627 -26.40748,-37.035622 -3.68769,-4.730663 -8.44526,-10.560253 -12.72145,-14.871034 -1.7464,-1.760531 -3.67774,-3.327424 -5.51662,-4.991136 -41.89702,-32.513681 -87.87831,26.737656 -45.98129,59.251342 z"/>
<path d="m 569.00826,261.26965 c -6.49419,19.93437 -16.54837,38.31749 -26.56772,56.63485 -18.89748,32.74262 -39.95068,64.20034 -62.25021,94.71093 -4.98459,6.628 -10.09248,13.16005 -15.40936,19.52435 -0.6166,0.73807 -5.54387,6.47014 -5.71429,7.12587 -2.7204,10.46769 -4.19406,21.22032 -6.2911,31.83049 15.74554,9.20075 30.47836,20.40944 47.23662,27.60226 0.49578,0.21279 19.46493,-6.11955 19.91089,-6.26015 15.06845,-4.75052 30.2906,-8.64677 45.62318,-12.44122 38.11074,-9.14701 76.76625,-15.72499 115.37337,-22.36167 52.26617,-8.986 39.55805,-82.90152 -12.70811,-73.91552 v 0 c -40.40652,6.94796 -80.85696,13.8685 -120.73408,23.48627 -17.1277,4.26324 -34.11928,8.6697 -50.95708,13.97688 -3.16187,0.9966 -6.31483,2.02302 -9.44884,3.10402 -0.85193,0.29386 -3.21802,0.46881 -2.50421,1.01891 13.29634,10.24687 27.51455,19.23833 41.27182,28.8575 -2.23691,10.00661 -4.53323,20.00012 -6.71073,30.01982 -0.0411,0.18911 0.17335,-0.34961 0.29536,-0.49982 1.02795,-1.26559 2.10749,-2.48844 3.15001,-3.74205 6.26814,-7.53736 12.32151,-15.24728 18.18989,-23.10073 24.2053,-33.18454 47.09728,-67.36996 67.52167,-103.02706 3.3225,-6.10823 6.74988,-12.16058 9.96751,-18.32471 9.5015,-18.2024 17.97566,-37.05832 23.70712,-56.81093 12.30951,-51.58465 -60.64219,-68.99293 -72.95171,-17.40829 z"/>
<path d="m 754.77304,395.66407 c 7.17975,6.64934 14.48469,13.24507 20.67736,20.85736 1.3475,1.6564 2.56944,3.41111 3.85417,5.11666 3.94692,5.40792 6.59565,11.48748 8.90235,17.72031 19.26723,49.40925 89.14246,22.16127 69.87523,-27.24798 v 0 c -1.08791,-2.72373 -2.08243,-5.48663 -3.26371,-8.17118 -4.37792,-9.94913 -9.74404,-19.41322 -16.18348,-28.18039 -2.33242,-2.97209 -4.57603,-6.01609 -6.99728,-8.91628 -7.88243,-9.44165 -16.85137,-17.88815 -25.89223,-26.19498 -38.90253,-36.04294 -89.87494,18.97355 -50.97241,55.01648 z"/>
<path d="m 410.39612,662.04954 c -0.48225,2.1913 -1.03022,4.36917 -1.44675,6.5739 -0.92288,4.88492 -2.52914,15.76798 -3.20286,20.24626 -2.43708,16.19953 -4.6915,32.41509 -6.8592,48.65286 -3.02769,24.71198 -5.87587,49.61476 -4.71499,74.55919 0.24109,5.18031 0.88489,10.33401 1.32733,15.50101 4.88486,52.80756 79.56603,45.89932 74.68117,-6.90824 v 0 c -0.33978,-3.28914 -0.82634,-6.56642 -1.01933,-9.86742 -1.23903,-21.19278 1.63592,-42.36746 4.06705,-63.36584 2.90586,-21.79251 5.96111,-43.56407 9.41983,-65.27674 14.22343,-51.09006 -58.02882,-71.20503 -72.25225,-20.11498 z"/>
<path d="m 477.17606,605.23339 c 4.12487,15.25033 8.16875,30.56275 12.96963,45.61917 1.77274,5.55963 3.72835,11.05929 5.59253,16.58893 12.63345,33.71554 28.8155,66.23451 49.71527,95.63118 4.5607,6.41488 9.53804,12.52312 14.30706,18.78467 20.06363,24.48459 43.37208,46.20662 70.00241,63.41418 16.7986,10.85465 22.57732,13.02225 40.35287,21.68386 24.10385,10.66094 49.52839,17.82222 75.45487,22.34637 12.83255,2.23927 16.6399,2.44968 29.21681,3.79601 9.97636,0.88803 19.99399,1.23186 30.00448,0.90028 2.93469,-0.0972 8.99906,-0.44349 12.02966,-0.90959 2.45456,-0.37752 4.87475,-0.952 7.31213,-1.42799 13.18326,-5.48219 16.0906,-5.01391 26.10361,-18.85067 5.32114,-7.35316 7.93337,-19.62188 9.40063,-28.43064 1.92364,-11.54862 2.76531,-24.43219 3.76109,-35.99902 0.51318,-7.6752 1.02636,-15.3504 1.53954,-23.0256 3.52382,-52.91581 -71.31043,-57.89924 -74.83425,-4.98343 v 0 c -0.47889,7.22238 -0.95779,14.44477 -1.43668,21.66715 -1.40973,16.89442 -0.99538,13.92204 -2.67024,28.12575 -0.18062,1.53176 -2.14054,4.60807 -0.5983,4.58828 1.86699,-0.024 1.82023,-3.32641 3.16547,-4.62121 9.97718,-9.60303 8.1458,-8.00556 18.41253,-11.48192 0.58769,-0.0413 2.19421,-0.52551 1.76305,-0.12404 -0.46807,0.43584 -1.26481,0.19709 -1.9019,0.25333 -1.21407,0.10719 -2.43109,0.18312 -3.6487,0.23672 -6.87142,0.3025 -13.75007,0.0561 -20.60305,-0.51079 -3.52742,-0.35738 -7.06401,-0.6336 -10.58226,-1.07213 -23.80236,-2.96681 -47.25884,-8.65322 -69.36935,-18.06018 -12.95376,-6.12715 -17.67925,-7.8958 -29.89435,-15.56533 -20.36651,-12.78759 -38.1272,-29.15376 -53.47837,-47.60623 -3.79139,-4.89469 -7.75179,-9.66302 -11.37417,-14.68408 -17.29164,-23.96828 -30.58446,-50.59498 -41.11673,-78.14348 -1.57741,-4.62745 -3.24374,-9.22554 -4.73223,-13.88236 -4.37633,-13.69157 -8.03221,-27.62242 -11.86535,-41.47155 -12.17239,-51.61717 -85.1701,-34.40282 -72.99771,17.21436 z"/>
<path d="m 632.80315,585.45282 c 9.12527,13.15111 18.70185,25.96241 28.80886,38.37294 10.37582,12.45726 22.05772,23.74966 34.98989,33.51513 9.7065,5.7142 12.91257,8.68334 27.01851,8.72504 5.98434,0.0177 11.65497,-2.72251 17.48246,-4.08377 48.69239,-21.01312 18.97534,-89.87456 -29.71705,-68.86143 v 0 c 4.25877,-0.68428 8.47568,-2.38433 12.77632,-2.05284 10.57151,0.81485 11.54794,1.98774 17.19244,6.0883 -8.1773,-5.83287 -15.0844,-13.27865 -21.67505,-20.79792 -8.63283,-10.50931 -16.69283,-21.44833 -24.51554,-32.5723 -29.46292,-44.09577 -91.82375,-2.42891 -62.36084,41.66685 z"/>
<path d="m 862.92862,562.43677 c 10.8932,3.39132 21.65681,7.17967 32.25564,11.39912 6.84489,2.71341 13.4681,5.91242 19.61282,9.97057 44.63953,28.63237 85.13182,-34.49745 40.4923,-63.12982 v 0 c -10.30363,-6.52235 -21.10741,-12.15407 -32.49274,-16.57279 -12.9212,-5.09527 -26.01059,-9.7642 -39.30647,-13.79352 -51.00109,-14.53921 -71.56264,57.58723 -20.56155,72.12644 z"/>
</svg>
