<?xml version="1.0" ?>
<svg xmlns="http://www.w3.org/2000/svg" viewBox="0 0 1000 1000">
<path d="m 238.3839,122.91558 c -0.59687,-0.95208 -0.33224,-0.79541 -1.2195,1.44152 -4.57121,11.52487 -1.84793,6.75028 -8.31404,20.57279 -6.01956,12.86796 -10.90444,21.25047 -17.8585,33.94758 -3.94051,6.77258 -7.78789,13.60021 -11.82154,20.31773 -7.7863,12.9671 -18.22915,29.35886 -26.47273,42.03578 -8.25145,12.68903 -16.63873,25.34679 -25.40472,37.69048 -3.65791,5.15083 -7.4756,10.18632 -11.2134,15.27949 -9.40607,12.34823 -19.14211,24.48406 -29.82083,35.76494 -2.20899,2.33355 -4.50166,4.58654 -6.733235,6.8985 -10.17683,14.66188 -16.33957,19.55728 -8.272982,44.28723 2.839371,8.70473 11.627987,14.31862 18.747747,20.07564 3.55677,2.876 8.36023,3.73057 12.65156,5.31375 2.84224,1.04857 19.91323,6.0389 22.52755,6.81149 23.42223,6.83748 46.74437,13.99472 69.92448,21.61133 50.3867,16.54331 73.78246,-54.71424 23.39577,-71.25754 v 0 c -23.89617,-7.84 -47.92837,-15.23947 -72.07255,-22.28108 -3.67418,-1.08492 -7.34889,-2.16801 -11.02253,-3.25474 -2.36855,-0.70066 -4.67914,-1.63744 -7.10402,-2.10743 -0.25018,-0.0485 -0.0274,0.54905 0.12345,0.75445 4.03524,5.49564 10.98676,9.60579 12.38369,16.27915 4.82783,23.06337 1.80441,24.61196 -7.30866,35.84328 2.6607,-2.75895 5.3811,-5.46066 8.00744,-8.25234 12.53522,-13.32434 24.03036,-27.59075 35.07386,-42.16215 4.15449,-5.67943 8.39383,-11.29776 12.46348,-17.0383 9.17687,-12.94464 18.15762,-26.48829 26.79723,-39.78492 14.24747,-21.92732 28.19726,-44.07013 40.98196,-66.8904 10.29036,-18.90717 20.50666,-37.46001 28.16048,-57.63987 3.74664,-9.87827 6.3269,-17.98428 7.87632,-28.39604 0.44164,-2.96774 0.30594,-5.99305 0.45891,-8.98957 -2.21272,-52.986829 -77.14741,-49.857574 -74.93469,3.12925 z"/>
<path d="m 282.70912,300.67497 c -0.002,-0.36466 0.2836,-1.31411 -0.007,-1.09397 -0.55684,0.42164 -0.67649,1.22268 -0.98828,1.84769 -1.02539,2.05551 -1.99049,4.14082 -3.02276,6.19289 -1.71838,3.41598 -3.42006,6.84154 -5.22881,10.21054 -6.36812,11.86133 -9.00905,15.95329 -16.20497,28.03029 -16.44253,27.12322 -34.07638,53.53713 -52.50504,79.35025 -7.79957,10.9249 -22.03733,30.07959 -30.05541,40.91952 -19.19983,26.39171 -39.45846,51.96886 -60.81583,76.63974 -1.51439,1.71775 -6.63882,7.4869 -8.31133,9.53392 -1.22528,1.49964 -2.58253,2.91861 -3.56404,4.58801 -9.119008,15.50996 -14.320494,28.2926 0.48506,48.67301 6.66773,9.17837 20.53095,9.65837 30.79643,14.48755 4.54962,-0.50593 9.13628,-0.74867 13.64888,-1.51779 3.85812,-0.65757 7.63367,-1.73967 11.41375,-2.75383 9.93979,-2.66675 20.02336,-5.98652 29.77056,-9.19431 35.26176,-11.60459 1.79496,-0.92535 38.33225,-12.44707 26.70328,-8.20379 53.98954,-14.24035 81.23706,-20.29678 51.76822,-11.51308 35.48626,-84.72441 -16.28196,-73.21132 v 0 c -29.3668,6.53452 -58.76185,13.10017 -87.53014,21.98631 -6.97325,2.20298 -13.96417,4.35082 -20.91977,6.60894 -17.48628,5.67687 -16.20077,5.62863 -32.46065,10.72226 -3.42841,1.074 -6.87696,2.08369 -10.33167,3.06982 -2.04728,0.58439 -4.30984,0.61039 -6.17267,1.64127 -0.70752,0.39154 1.58843,0.30407 2.38265,0.45611 8.40088,4.75234 20.15532,6.02999 25.20264,14.25702 6.1273,9.98737 4.84144,23.09133 4.89918,34.80832 0.0356,7.22834 -7.05256,10.71183 -4.01332,6.99011 0.99849,-1.22271 2.04593,-2.40471 3.08342,-3.59451 1.67237,-1.9179 3.36399,-3.81893 5.04599,-5.7284 22.60113,-26.1248 44.06906,-53.18637 64.40248,-81.11978 8.90704,-12.04353 22.63115,-30.49723 31.24429,-42.57346 19.48029,-27.31273 38.10705,-55.26694 55.48336,-83.9659 8.71497,-14.68583 17.40236,-29.31763 24.85831,-44.6974 3.69205,-7.61578 6.50393,-13.63209 8.87575,-21.70175 0.74926,-2.54922 1.11334,-5.19616 1.67,-7.79424 6.5924,-52.62167 -67.82588,-61.94473 -74.41828,-9.32306 z"/>
<path d="m 369.10255,485.63267 c 5.99404,10.32381 12.48028,20.37211 17.36306,31.30251 1.30292,2.91666 2.42355,5.91138 3.63533,8.86707 4.52706,12.71749 2.41884,6.39766 6.34379,18.95312 15.98247,50.56739 87.49556,27.96476 71.51308,-22.60263 v 0 c -5.29282,-16.60746 -2.41789,-8.16587 -8.67276,-25.30838 -1.84528,-4.34799 -3.57044,-8.74895 -5.53583,-13.04399 -5.02282,-10.9766 -10.99097,-21.72105 -17.53276,-31.87324 -0.0219,-0.034 -0.0412,0.0697 -0.0619,0.10461 -23.75944,-47.41296 -90.81149,-13.81203 -67.05205,33.60093 z"/>
<path d="m 75.253139,777.8832 c 0.515874,2.62269 0.836642,5.29143 1.547622,7.86808 3.413256,12.36998 9.140936,23.86007 14.757518,35.33471 6.574202,13.43104 6.789452,13.58996 13.986251,27.27651 12.77316,24.24008 28.48489,46.72154 44.96237,68.54932 3.51064,4.75095 7.39747,9.1816 11.4041,13.51126 36.41588,38.55365 90.93897,-12.94618 54.52309,-51.49983 v 0 c -2.27451,-2.18899 -4.10122,-4.79228 -6.09051,-7.22836 -14.05001,-18.57046 -27.53841,-37.64439 -38.43657,-58.27549 -7.73329,-14.66442 -15.19095,-29.46414 -22.19047,-44.49178 -6.33255,-52.65357 -80.795949,-43.698 -74.463401,8.95558 z"/>
<path d="m 192.57252,724.82937 c 6.71644,19.09954 17.4337,36.40808 27.6448,53.77245 9.58179,16.20652 19.80175,32.08012 31.66464,46.72775 6.44728,7.96074 8.46363,9.87135 15.2301,17.09595 2.07498,2.03593 4.14996,4.07186 6.22494,6.10779 37.99636,36.99698 90.318,-16.73798 52.32164,-53.73497 v 0 c -1.33505,-1.2844 -2.67009,-2.56881 -4.00514,-3.85322 -4.68805,-4.90971 -6.05823,-6.18072 -10.57781,-11.67098 -9.92331,-12.05455 -18.25466,-25.30038 -26.21483,-38.70144 -8.30953,-14.11875 -17.30412,-28.07301 -22.67408,-43.6513 -19.73391,-49.22472 -89.34817,-21.31675 -69.61426,27.90797 z"/>
<path d="m 314.54358,724.8363 c -0.1781,-0.0303 -0.61117,-0.2542 -0.53429,-0.0907 0.20332,0.43235 0.65207,0.69852 0.98243,1.04367 0.7771,0.8119 1.56885,1.60978 2.33991,2.42741 1.25649,1.33239 2.49023,2.68607 3.74252,4.0224 6.6917,7.14076 4.15856,4.47869 11.66021,11.99041 6.5553,6.31787 13.60815,12.07601 20.63193,17.85498 40.97251,33.67124 88.59085,-24.27265 47.61833,-57.94389 v 0 c -5.17322,-4.24546 -10.38273,-8.45628 -15.28797,-13.01472 -11.55822,-11.4655 -21.85619,-24.61027 -36.28322,-32.69054 -46.9526,-24.65671 -81.82245,41.7443 -34.86985,66.40101 z"/>
<path d="m 517.76543,187.52384 c 14.35777,-5.03045 28.62405,-10.27949 43.31757,-14.28183 5.37446,-1.46393 10.79432,-2.75581 16.19148,-4.13372 35.49637,-8.43878 71.50906,-14.40005 107.71894,-18.7261 8.24412,-0.79744 13.63491,-1.43246 21.67734,-1.83338 2.19658,-0.10951 7.25214,-0.34935 9.97742,0.11603 0.11473,0.0196 -0.0885,0.29586 -0.20421,0.28322 -1.33193,-0.14551 -2.63426,-0.49147 -3.9514,-0.7372 -8.78667,-4.57965 -7.26208,-2.76205 -13.93808,-10.4723 -0.75013,-0.86634 -1.08406,-2.04368 -1.84359,-2.90179 -0.13456,-0.15202 -0.23144,0.36378 -0.22331,0.56663 0.0533,1.32963 0.29643,2.64524 0.40521,3.97148 0.1666,2.03131 0.28055,4.06659 0.42083,6.09989 0.81747,18.64359 0.90769,37.37844 -0.70314,55.98627 -0.41505,4.79462 -1.02705,9.57016 -1.54057,14.35524 -3.77986,29.01964 -9.69382,57.69922 -15.78821,86.30366 -2.24783,11.04513 -5.02344,21.96607 -8.65565,32.63508 -16.7816,50.30783 54.36442,74.0406 71.14602,23.73277 v 0 c 4.40074,-13.36583 8.11298,-26.93171 10.86401,-40.74303 6.63933,-31.17737 13.04073,-62.44771 17.02375,-94.09626 0.60119,-5.83087 1.32003,-11.65081 1.80356,-17.49261 1.82648,-22.06637 1.73552,-44.27814 0.63366,-66.37661 -1.03461,-12.82551 -2.18727,-29.07589 -9.02685,-40.286267 -8.23196,-13.492551 -9.97058,-12.67433 -22.62865,-20.879955 -3.61082,-1.166829 -7.14249,-2.615267 -10.83246,-3.500488 -5.59624,-1.342532 -12.69212,-1.678496 -18.43635,-1.682587 -11.74354,-0.0084 -23.44404,1.358837 -35.11205,2.486065 -14.72654,1.773064 -20.01447,2.300399 -35.10586,4.601248 -27.6396,4.213963 -55.11605,9.569658 -82.33544,15.948117 -6.25168,1.613578 -12.53135,3.122375 -18.75506,4.840737 -14.93849,4.12451 -29.56093,9.20942 -44.11005,14.52034 -50.69768,15.56423 -28.68654,87.26158 22.01114,71.69735 z"/>
<path d="m 559.46493,297.59289 c 13.47538,-4.74978 27.56236,-7.31482 41.59257,-9.78447 24.17878,-3.59225 48.67515,-4.44687 73.08425,-3.96106 8.73189,0.19451 17.41371,1.08742 26.08061,2.08888 52.697,5.96038 61.12624,-68.56443 8.42924,-74.52481 v 0 c -11.02082,-1.22611 -22.05848,-2.3333 -33.15699,-2.55186 -29.25168,-0.48322 -58.59928,0.55131 -87.545,5.10318 -16.48809,2.94712 -33.20884,5.90187 -49.04611,11.50367 -51.00111,14.53913 -30.43968,86.6656 20.56143,72.12647 z"/>
<path d="m 443.88711,424.00723 c 19.52571,-5.56093 39.54195,-9.19457 59.49316,-12.83461 42.40236,-7.10465 85.16546,-12.07277 128.06603,-14.90961 9.89321,-0.6542 19.80043,-1.07561 29.70064,-1.61342 37.67332,-1.67376 75.42321,-1.8751 113.10136,-0.21202 20.50326,0.905 25.57503,1.50316 45.47791,3.1425 21.94419,1.93447 43.76977,4.93741 65.55271,8.17554 52.45718,7.79389 63.4794,-66.39176 11.02223,-74.18565 v 0 c -23.41198,-3.47673 -46.87268,-6.67791 -70.4588,-8.7401 -21.65262,-1.76077 -26.94377,-2.38623 -49.2081,-3.35433 -39.83802,-1.73222 -79.75063,-1.50053 -119.58171,0.2859 -10.48788,0.57689 -20.98322,1.03132 -31.46365,1.73066 -45.46324,3.03365 -90.77963,8.3311 -135.70917,15.90563 -22.92609,4.20692 -45.92775,8.42731 -68.31768,15.00929 -50.629,15.78621 -28.30393,87.38643 22.32507,71.60022 z"/>
<path d="m 613.52752,385.28978 c 0.46531,19.95673 3.34728,39.77415 5.83895,59.55221 3.79054,29.8414 6.73359,59.8055 7.82004,89.87802 0.88936,24.61715 0.58008,34.10465 0.4641,59.11435 -1.41429,63.52758 -5.09986,126.9749 -7.75654,190.4577 -1.46614,35.87214 -2.1811,71.7692 -3.85537,107.63288 -0.13905,2.21057 -0.16294,4.43141 -0.41717,6.63172 -0.0221,0.1909 -0.36669,-0.32046 -0.29159,-0.49736 2.24726,-5.29322 2.91783,-11.8166 7.16531,-15.6931 6.29098,-5.74152 14.81852,-8.53342 22.75798,-11.61667 2.28636,-0.88789 6.07686,2.01313 7.35769,-0.0786 1.08696,-1.77509 -3.41728,-2.37739 -5.12592,-3.56608 -18.7399,-13.03051 -36.73457,-27.13647 -53.76436,-42.338 -5.58118,-4.982 -11.00106,-10.14179 -16.50159,-15.21269 -39.0268,-35.90833 -89.80885,19.28391 -50.78205,55.19224 v 0 c 6.1382,5.63783 12.18416,11.37777 18.41461,16.91349 20.11915,17.87577 41.37447,34.49707 63.69138,49.54269 9.76769,5.63406 24.54022,15.78202 36.50093,14.54663 11.19068,-1.15585 22.65554,-4.8978 31.69761,-11.59171 12.17769,-9.01525 13.38413,-25.40727 14.21577,-38.73916 1.67599,-35.98321 2.41623,-71.9987 3.8712,-107.99081 2.69526,-64.42177 6.45438,-128.80744 7.82145,-193.2768 0.10315,-26.96724 0.42735,-36.77443 -0.56848,-63.39889 -1.19243,-31.88064 -4.28774,-63.65023 -8.30371,-95.28857 -2.10247,-16.67336 -4.54497,-33.3672 -5.25024,-50.17352 0,-53.03301 -75,-53.03301 -75,0 z"/>
<path d="m 478.04441,545.32922 c 2.18292,1.61735 5.4913,3.82657 7.4572,5.26061 8.40672,6.13231 16.33687,12.68685 24.17786,19.52036 11.24234,10.47711 21.02928,22.36156 30.8965,34.10325 34.13576,40.58633 91.53349,-7.68893 57.39773,-48.27525 v 0 c -12.41457,-14.74928 -24.84325,-29.57547 -39.19203,-42.51993 -15.43713,-13.30625 -31.25731,-26.65096 -49.36567,-36.21264 -48.17066,-22.18306 -79.54224,45.94053 -31.37159,68.1236 z"/>
<path d="m 498.45404,781.38825 c 25.25204,-34.97884 54.76957,-66.51947 83.72759,-98.39365 25.88227,-28.38678 28.16832,-31.30823 54.96317,-59.02497 9.35187,-9.67361 18.96697,-19.09082 28.29745,-28.78507 9.20571,-9.56462 18.20531,-19.32551 27.30797,-28.98827 36.35622,-38.60992 -18.24645,-90.02537 -54.60267,-51.41546 v 0 c -8.73208,9.27755 -17.36084,18.65346 -26.19626,27.83266 -9.62144,9.99581 -19.53151,19.71079 -29.17113,29.68908 -27.39664,28.35917 -29.90756,31.52103 -56.11276,60.26218 -30.51605,33.59621 -61.53022,66.91315 -88.16499,103.75907 -31.86536,42.3922 28.08626,87.45663 59.95163,45.06443 z"/>
<path d="m 830.70605,444.82275 c -22.30249,21.76381 -46.36254,41.55395 -70.63486,61.05267 -11.97435,9.36282 -25.29443,20.0825 -37.85258,28.73101 -5.94962,4.09736 -12.1639,7.79648 -18.24585,11.69473 -44.55494,28.76381 -3.87676,91.77402 40.67818,63.0102 v 0 c 7.34759,-4.77161 14.8374,-9.33107 22.04278,-14.31483 13.46205,-9.31132 27.48685,-20.58949 40.36564,-30.66504 25.15443,-20.23121 50.16331,-40.70096 73.27751,-63.27902 39.76042,-35.09428 -9.87039,-91.32401 -49.63082,-56.22972 z"/>
<path d="m 656.30009,572.14129 c 8.0095,9.96531 16.58319,19.45951 24.77014,29.2809 14.77931,18.34539 29.93277,36.38079 44.73259,54.70953 16.08561,19.9423 32.9368,39.2569 50.48667,57.9199 15.18173,15.38343 30.80597,30.33616 46.57644,45.11495 11.58301,11.04552 24.39344,20.66833 36.38473,31.24326 9.98562,9.59152 20.48179,18.57074 31.31806,27.18 9.44637,7.25619 4.16912,3.37442 15.93917,11.49781 43.79426,29.90924 86.09232,-32.0252 42.29806,-61.93444 v 0 c -8.09255,-5.43678 -4.23272,-2.65727 -11.60466,-8.30351 -1.71506,-1.36037 -7.54004,-5.95681 -9.42141,-7.53417 -6.56313,-5.5026 -12.62893,-11.5612 -19.027,-17.24866 -11.4285,-10.01222 -23.49863,-19.26736 -34.61495,-29.63768 -14.63407,-13.70078 -29.10973,-27.58537 -43.24872,-41.79613 -16.27409,-17.2517 -31.82705,-35.17654 -46.73646,-53.62123 -15.05371,-18.63977 -30.45734,-36.98914 -45.49679,-55.64048 -7.74206,-9.27009 -15.79997,-18.27477 -23.43231,-27.63063 -32.81017,-41.66525 -91.73373,4.73533 -58.92356,46.40058 z"/>
</svg>
