<?xml version="1.0" ?>
<svg xmlns="http://www.w3.org/2000/svg" width="1000" height="1000">
<path d="m 221.92955,115.80279 c -0.55686,2.43668 -1.02782,4.62719 -1.85775,7.09089 -2.27155,6.74325 -5.73455,14.60548 -8.6833,20.80701 -7.43282,15.63196 -11.63272,22.89871 -20.15002,38.71969 -18.31689,32.40947 -38.30549,63.88967 -59.61491,94.41351 -12.06171,17.27733 -15.87726,22.07451 -28.15832,38.41291 -9.033257,11.83486 -18.31136,23.48695 -27.875351,34.89786 -4.255352,5.07712 -8.609138,9.96991 -12.672207,15.20253 -10.653613,28.2757 -15.250357,25.09006 14.003224,58.58913 3.733215,4.275 10.806511,3.54198 16.355638,4.73351 3.34942,0.71921 6.818406,0.67426 10.230916,0.97528 19.787,1.74541 0.10621,-0.23215 21.38163,2.00386 23.54593,2.56961 46.76081,7.33728 69.91219,12.21793 51.89426,10.93094 67.35294,-62.45863 15.45868,-73.38957 v 0 c -25.69151,-5.40735 -51.46559,-10.61475 -77.59708,-13.42439 -12.14633,-1.25645 -11.76912,-1.31515 -22.82325,-2.14005 -1.5257,-0.11385 -5.59011,-1.43 -4.58129,-0.27978 1.73343,1.97638 5.80083,1.0152 7.18597,3.24953 22.39979,36.13251 21.72119,26.54854 10.35033,52.62814 1.75429,-2.73781 0.25228,-0.49667 4.66442,-5.63037 1.99983,-2.32688 4.00783,-4.64701 5.97755,-6.99942 10.29342,-12.29326 20.27559,-24.84843 29.99988,-37.59589 13.20168,-17.59342 17.23521,-22.66834 30.19081,-41.25481 22.78136,-32.68278 44.14153,-66.39187 63.67922,-101.11325 13.20506,-24.62279 27.00445,-49.22684 35.32479,-76.04661 1.90037,-6.12566 2.42657,-9.56646 3.54112,-15.43783 7.51641,-52.497653 -66.72648,-63.127463 -74.24289,-10.62981 z"/>
<path d="m 252.40445,304.60872 c -0.036,0.39886 -0.0173,0.80655 -0.10816,1.19658 -0.79875,3.42732 -5.31878,13.69937 -6.07865,15.41434 -6.0177,13.58154 -8.45048,17.74826 -15.65708,31.77051 -25.78641,47.84751 -54.89635,93.8219 -84.45161,139.40622 -16.54773,25.1831 -33.11246,50.35774 -49.269277,75.79437 -3.801597,6.07738 -13.758475,21.63067 -10.458646,27.29927 9.243374,15.87871 22.791033,29.70452 38.157603,39.77634 3.94395,2.58501 24.20371,-5.41141 29.28836,-7.23354 28.1161,-10.69502 56.71062,-20.13662 85.77052,-27.92774 6.58333,-1.76503 13.21232,-3.35506 19.81848,-5.03259 21.85386,-5.3439 44.00413,-9.29813 66.16496,-13.10625 52.26516,-8.99185 39.54875,-82.90594 -12.7164,-73.91409 v 0 c -24.10381,4.15149 -48.19096,8.48816 -71.95331,14.33902 -7.23724,1.84701 -14.4993,3.59935 -21.71172,5.54105 -30.87619,8.31237 -61.27359,18.32824 -91.16358,29.6746 -2.23712,0.84939 -6.51776,0.16308 -6.71136,2.54818 -0.17509,2.15699 4.95611,-1.34398 6.48967,0.18293 12.23715,12.18402 25.26189,24.35899 33.43655,39.56995 2.3566,4.38505 -3.1086,9.46017 -4.52149,14.23363 -0.63242,2.13663 7.22093,-17.05864 3.42161,-5.74272 16.02855,-25.24237 32.47853,-50.21406 48.89218,-75.20666 30.93248,-47.72808 61.38569,-95.87414 88.27715,-146.02385 10.93374,-21.42861 23.12012,-43.63489 28.40459,-67.33814 1.50241,-6.73901 1.43646,-9.2749 1.67961,-15.22141 0,-53.03301 -75,-53.03301 -75,0 z"/>
<path d="m 339.57889,480.48374 c 5.42053,10.31894 11.54326,20.25581 16.06702,31.03266 4.49214,10.70154 4.91592,13.43233 8.27651,24.92398 4.59257,20.76394 2.52396,10.04899 6.11053,32.1631 8.68755,52.3166 82.67439,40.03055 73.98684,-12.28605 v 0 c -4.75984,-28.1408 -1.98053,-14.31104 -8.28213,-41.50043 -1.93512,-6.29814 -3.64302,-12.67062 -5.80535,-18.8944 -5.80447,-16.70689 -13.80636,-32.47979 -22.66698,-47.74283 -22.84236,-47.86153 -90.5288,-15.55756 -67.68644,32.30397 z"/>
<path d="m 90.177026,747.05639 c 0.98477,2.56796 1.897367,5.16478 2.95431,7.70388 2.761479,6.63394 7.095614,15.81728 10.057884,22.16377 4.75611,10.18968 9.10716,19.58335 14.22331,29.64879 2.84327,5.5938 5.84464,11.10582 8.76696,16.65873 14.12268,24.76636 27.57676,49.94397 42.51268,74.23673 1.6401,2.43303 3.28021,4.86606 4.92032,7.29908 29.82909,43.84889 91.84079,1.66419 62.0117,-42.1847 v 0 c -1.03423,-1.49826 -2.06845,-2.99651 -3.10268,-4.49477 -14.13205,-22.8052 -26.59612,-46.6142 -40.00302,-69.84399 -2.58331,-4.88615 -5.24111,-9.73365 -7.74994,-14.65845 -8.28515,-16.26365 -15.84746,-32.91391 -23.22847,-49.60102 -16.31434,-50.4613 -87.677387,-27.38935 -71.363054,23.07195 z"/>
<path d="m 217.68483,715.26838 c 9.6391,15.00343 18.58933,30.42539 27.94064,45.6073 10.12263,15.64032 21.11532,30.69093 31.95075,45.83869 30.85441,43.13358 91.8545,-0.50114 61.00009,-43.63472 v 0 c -9.84134,-13.75778 -19.82321,-27.42701 -29.11173,-41.56852 -9.058,-14.67197 -17.64905,-29.62676 -27.03336,-44.09647 -26.76662,-45.78262 -91.51301,-7.9289 -64.74639,37.85372 z"/>
<path d="m 325.53822,678.99241 c 10.12575,15.87357 21.16918,31.12828 31.98098,46.53443 2.08359,2.99016 4.16719,5.98032 6.25078,8.97048 30.32022,43.51074 91.85369,0.63146 61.53347,-42.87927 v 0 c -2.13149,-3.05865 -4.26298,-6.11731 -6.39447,-9.17596 -10.76871,-15.34309 -21.73974,-30.55062 -31.84787,-46.34413 -30.33095,-43.50325 -91.85384,-0.60881 -61.52289,42.89445 z"/>
<path d="m 739.68769,38.710422 c -32.76895,12.292175 -64.58818,27.016472 -96.42249,41.519582 -30.18549,13.717447 -60.06205,28.098866 -90.21468,41.887426 -23.07023,10.54985 -27.37329,12.32994 -49.59613,22.04781 -48.58828,21.25273 -18.53239,89.96694 30.0559,68.71421 v 0 c 22.98266,-10.05522 27.24078,-11.81365 51.06494,-22.70915 30.01004,-13.72448 59.74714,-28.03487 89.78847,-41.69161 29.41585,-13.40627 58.82318,-26.96222 88.99322,-38.60109 50.32279,-16.736673 26.65356,-87.903852 -23.66923,-71.167178 z"/>
<path d="m 463.52209,281.83548 c 8.15809,14.02869 17.87724,27.07334 26.87535,40.56707 4.12965,6.25859 8.11275,12.61103 12.16973,18.91654 28.69966,44.59628 91.76834,4.00882 63.06867,-40.58747 v 0 c -4.2826,-6.65316 -8.48152,-13.3597 -12.85129,-19.95657 -7.28925,-10.91829 -14.77974,-21.74207 -22.21058,-32.54084 -23.75969,-47.41284 -90.81157,-13.81156 -67.05188,33.60127 z"/>
<path d="m 587.19058,222.59934 c 0.99092,2.04695 1.90807,4.13129 2.97278,6.14086 3.58289,6.76241 5.814,10.0924 9.97341,16.68779 5.4047,8.56998 10.84245,17.11729 16.34177,25.62679 8.59011,12.13279 4.14009,6.22478 13.3407,17.73107 33.38476,41.20629 91.65925,-6.00689 58.27449,-47.21318 v 0 c -5.73801,-6.92485 -2.83632,-3.19791 -8.63177,-11.23752 -7.90677,-12.22463 -15.90695,-24.43089 -23.2224,-37.01443 -20.70311,-48.82501 -89.7521,-19.54639 -69.04898,29.27862 z"/>
<path d="m 769.41098,177.52506 c -1.37665,2.79488 -2.89445,5.52455 -4.12996,8.38463 -1.339,3.09965 -2.38979,6.31602 -3.58468,9.47403 -1.35587,3.329 -2.62321,6.69544 -4.0676,9.987 -4.1998,9.57075 -9.43761,20.17836 -14.40302,29.23166 -3.47341,6.33297 -7.22088,12.51172 -10.83131,18.76757 -14.15805,23.03633 -30.26237,44.77345 -46.153,66.61859 -31.18661,42.894 29.47466,86.99853 60.66128,44.10453 v 0 c 17.45478,-24.01857 35.11473,-47.94125 50.52222,-73.35959 4.17485,-7.29427 8.50997,-14.49913 12.52454,-21.88283 6.20125,-11.4055 12.00686,-23.37705 17.18508,-35.3029 1.73639,-3.99904 3.31584,-8.06496 4.89749,-12.12768 0.66002,-1.69536 1.41843,-3.37031 1.82627,-5.14332 0.10344,-0.44968 -0.59169,0.70822 -0.88754,1.06232 28.15276,-44.94354 -35.40701,-84.75756 -63.55977,-39.81401 z"/>
<path d="m 477.85443,449.76303 c 19.50762,-1.93188 38.47696,-7.28808 57.48137,-11.83854 7.19092,-1.72181 14.39525,-3.38711 21.59288,-5.08067 45.37855,-9.72085 91.47629,-16.01284 137.74918,-19.44173 8.9559,-0.66364 17.92744,-1.09572 26.89117,-1.64358 28.11966,-1.36756 56.29316,-2.22826 84.44427,-1.38127 9.62853,0.2897 15.24345,0.70858 24.57225,1.29425 5.54373,0.20776 11.04439,0.97602 16.55744,1.50217 0.71321,0.0681 -1.41973,-0.19381 -2.12959,-0.29072 51.74655,11.61011 68.16572,-61.57056 16.41917,-73.18067 v 0 c -8.65284,-1.62781 -17.40358,-2.34714 -26.19151,-2.88615 -10.88813,-0.6715 -16.56124,-1.09865 -27.89059,-1.42696 -30.13404,-0.87323 -60.29103,0.0221 -90.39023,1.51109 -9.59436,0.5947 -19.19728,1.06463 -28.78309,1.7841 -49.86821,3.74292 -99.54202,10.58779 -148.43098,21.15426 -7.40697,1.74378 -14.82076,3.45885 -22.22091,5.23134 -15.85408,3.79736 -31.67176,8.45206 -47.93483,10.14976 -52.71008,5.84353 -44.44608,80.38685 8.264,74.54332 z"/>
<path d="m 511.34438,572.84771 c 17.95398,-5.2315 36.16778,-9.61956 54.54056,-13.11309 7.23749,-1.37618 14.51054,-2.55823 21.76581,-3.83735 35.39852,-5.69159 71.11914,-9.42102 106.96651,-10.46728 21.83408,-0.63726 30.49155,-0.24492 52.05882,0.1285 32.13714,1.0087 64.17346,3.85988 96.10401,7.52814 52.68711,6.04718 61.23911,-68.46364 8.552,-74.51082 v 0 c -34.35488,-3.93963 -68.82655,-6.97356 -103.40463,-8.00688 -23.60327,-0.38026 -32.91639,-0.79766 -56.86568,-0.0546 -39.03921,1.21122 -77.94243,5.28287 -116.48816,11.53184 -7.98472,1.41949 -15.98943,2.73076 -23.95415,4.25847 -21.49216,4.1224 -42.82736,9.26313 -63.75941,15.6522 -50.12742,17.31302 -25.64311,88.20391 24.48432,70.89089 z"/>
<path d="m 608.09158,399.5587 c -6.53734,19.40562 -11.29025,39.32677 -16.6146,59.08303 -12.48973,43.91212 -30.1795,86.16292 -50.87186,126.81046 -5.17134,10.15844 -10.70139,20.13026 -16.05208,30.19538 -22.87285,40.856 -48.35212,80.30667 -76.71786,117.57452 -15.40534,20.24005 -24.77974,31.06078 -40.97195,50.48894 -25.91037,29.24554 -12.87875,15.23344 -39.01415,42.11121 -36.91748,38.07361 16.92672,90.28282 53.84421,52.20921 v 0 c 28.95944,-29.94155 14.6786,-14.51186 42.80265,-46.32593 17.51812,-21.05218 27.15326,-32.16549 43.85948,-54.18557 30.48306,-40.179 57.89312,-82.67532 82.44712,-126.71553 5.76303,-10.87755 11.72176,-21.65366 17.2891,-32.63267 22.75891,-44.88149 42.10026,-91.56471 55.80557,-140.02848 5.03428,-18.70949 9.49762,-37.58196 15.69856,-55.95383 16.00235,-50.5611 -55.50184,-73.19184 -71.50419,-22.63074 z"/>
<path d="m 589.32331,664.56443 c 13.93678,-2.48361 27.8785,-4.83862 41.91543,-6.6921 14.4562,-1.63712 29.02374,-2.39429 43.56526,-1.72807 7.20854,0.33026 10.87291,0.75781 17.93528,1.42537 5.49666,0.58867 10.94445,1.53438 16.36752,2.58983 1.98726,0.38677 4.43292,0.7113 6.37609,1.3725 -11.94401,-4.48045 -15.57987,-4.47238 -23.86184,-20.70755 -2.78113,-5.45187 -1.60007,-12.13573 -2.33297,-18.21194 -0.0558,-0.46238 0.22734,-1.78352 -0.0322,-1.39682 -1.00415,1.49602 -1.50294,3.27595 -2.31026,4.88674 -1.36118,2.71583 -2.79614,5.39406 -4.1942,8.09109 -14.8,26.60121 -32.76492,51.38187 -52.37139,74.63711 -5.51798,6.54488 -11.30887,12.85471 -16.9633,19.28207 -19.03709,20.9154 -39.65664,40.31997 -61.18072,58.64618 -15.54601,13.23632 -26.97397,22.50116 -43.85929,33.76981 -6.87958,4.59118 -14.08677,8.6714 -21.13015,13.0071 -6.46508,3.55644 -12.93017,7.11289 -19.39525,10.66934 -46.41128,25.66111 -10.12098,91.29658 36.2903,65.63546 v 0 c 7.5521,-4.19375 15.10421,-8.38751 22.65631,-12.58126 8.49468,-5.30832 17.18232,-10.31968 25.48404,-15.92498 18.7398,-12.65304 32.46518,-23.7129 49.63774,-38.39246 23.89332,-20.42464 46.75475,-42.06983 67.87585,-65.36781 6.35265,-7.25898 12.85731,-14.38768 19.05794,-21.77694 22.81032,-27.18293 43.58145,-56.22259 60.63105,-87.37368 3.01669,-5.92667 7.34173,-13.96561 9.7987,-20.35322 1.35073,-3.5116 3.29177,-6.96302 3.542,-10.71712 0.52365,-7.85616 1.76774,-16.31734 -1.25546,-23.58741 -7.65097,-18.39872 -13.90167,-19.15762 -27.49644,-24.89316 -11.31525,-2.77985 -22.8477,-4.66855 -34.42036,-5.98354 -9.17125,-0.83488 -13.70093,-1.35704 -23.14005,-1.72523 -18.42031,-0.71853 -36.86771,0.2123 -55.16976,2.36427 -14.83739,1.98835 -29.59075,4.409 -44.3233,7.05246 -52.31455,8.69985 -40.01111,82.6838 12.30344,73.98396 z"/>
<path d="m 545.4979,721.98295 c 13.05472,18.23632 29.65982,33.54196 46.23621,48.49595 22.47989,19.60288 46.41545,37.43559 70.13606,55.48773 10.96944,8.22508 21.69939,16.75805 32.32106,25.4249 4.25413,3.58513 8.75047,6.69493 13.74312,9.20207 3.14484,1.57922 6.70017,2.69517 10.01103,3.84587 28.79102,8.74112 58.26459,15.07768 87.65432,21.43269 32.91489,6.50865 16.13423,3.31022 50.3469,9.56945 52.16851,9.53661 65.6553,-64.24081 13.4868,-73.77741 v 0 c -32.73168,-5.97848 -16.73436,-2.93505 -47.9975,-9.10108 -26.61347,-5.74306 -53.28069,-11.50266 -79.42275,-19.15704 -2.42034,-0.75781 -1.99999,-0.75966 -0.90163,-0.0752 1.08693,0.67732 2.1735,1.35576 3.24209,2.06165 0.11425,0.0755 0.41154,0.36038 0.30137,0.27909 -0.46802,-0.34534 -0.91878,-0.71348 -1.37648,-1.07237 -0.56003,-0.43914 -1.1178,-0.88114 -1.6767,-1.32171 -11.27766,-9.19909 -22.6702,-18.2563 -34.31147,-26.99346 -22.09088,-16.81174 -44.39659,-33.39837 -65.403,-51.56943 -11.8039,-10.57718 -23.53334,-21.331 -33.54796,-33.67005 -28.9478,-44.43563 -91.78927,-3.49726 -62.84147,40.93837 z"/>
</svg>
