<?xml version="1.0" ?>
<svg xmlns="http://www.w3.org/2000/svg" viewBox="0 0 1000 1000">
<path d="m 212.664,119.37289 c 0.33978,24.47565 -8.21644,47.83261 -15.55247,70.82915 -11.07861,30.94852 -24.33715,61.14979 -39.65509,90.23753 -8.67232,16.46817 -14.73456,26.56145 -23.99312,42.52618 -16.01062,27.388 -35.148455,52.7543 -56.395599,76.26232 -9.857406,10.71114 -25.73461,23.73067 -23.772602,40.29532 1.342108,11.33102 9.340281,20.82144 14.010422,31.23216 4.753465,2.78699 9.270461,6.0236 14.260397,8.36096 4.049949,1.89706 16.177641,4.74304 20.741942,5.87577 8.3246,2.06593 14.19891,3.41972 22.55993,5.7678 4.20645,1.18132 8.37694,2.48716 12.56542,3.73074 24.53962,7.88769 48.6162,17.12966 72.59189,26.57103 49.34608,19.42847 76.82207,-50.35741 27.476,-69.78588 v 0 c -26.01676,-10.24151 -52.15152,-20.25021 -78.81176,-28.70995 -4.90371,-1.44345 -9.78825,-2.95373 -14.71113,-4.33037 -8.15971,-2.28178 -15.46896,-4.03589 -23.62858,-6.041 -2.47421,-0.608 -4.93498,-1.27426 -7.42417,-1.81763 -0.5995,-0.13086 -2.26139,-0.63846 -1.82967,-0.20242 1.97848,1.99827 4.468,3.41566 6.702,5.12348 3.46827,9.31645 9.78415,18.02766 10.4048,27.94934 0.42506,6.79514 -4.80367,12.74559 -7.46718,19.01139 -0.18505,0.4353 -1.3438,1.33007 -1.02948,0.97661 2.29035,-2.57553 4.78785,-4.95923 7.15843,-7.46111 1.99272,-2.10308 3.95441,-4.23535 5.93162,-6.35303 24.64988,-27.44554 46.97013,-56.93683 65.56285,-88.85806 10.21675,-17.65129 16.51421,-28.12762 26.10566,-46.43509 17.09202,-32.62401 31.89494,-66.48236 44.12768,-101.22113 9.61374,-30.38171 19.725,-61.26386 19.07181,-93.53411 0,-53.033008 -75,-53.033008 -75,0 z"/>
<path d="m 257.6832,323.70557 c -0.21869,1.90731 -0.43446,3.81496 -0.65605,5.72193 -0.62867,5.41014 -1.01091,9.74462 -2.25916,15.11368 -3.26209,14.03109 -8.75904,27.58125 -13.71365,41.05465 -12.58987,31.50952 -26.61621,62.44368 -42.16883,92.60222 -11.26937,21.85275 -14.792,27.74752 -26.7233,49.11089 -4.56164,7.62807 -9.03545,15.30936 -13.68492,22.88422 -6.17897,10.0667 -19.6748,31.08149 -26.24929,41.19049 -7.59242,11.67418 -14.7402,22.567 -22.71916,33.93434 -3.09934,4.41551 -6.32519,8.74084 -9.48779,13.11126 -6.627267,9.05419 -13.654387,17.80097 -20.704383,26.52552 -1.41859,1.75554 -6.978416,8.45659 -8.111548,10.51353 -2.238317,4.06314 -3.973767,8.38367 -5.96065,12.57551 7.09191,15.37203 9.274839,34.17569 21.275732,46.11608 8.052899,8.0123 28.523999,2.08942 38.739099,-0.92592 13.42015,-3.96141 26.6137,-8.83947 39.88338,-13.26774 16.24553,-5.29467 32.64182,-10.13841 49.26154,-14.12272 11.63137,-2.78844 20.14816,-4.407 31.7759,-6.75668 51.97718,-10.52961 37.08606,-84.03644 -14.89112,-73.50683 v 0 c -13.51081,2.74328 -21.98806,4.34486 -35.61279,7.63939 -18.30705,4.42675 -36.37748,9.7627 -54.27882,15.60501 -5.04359,1.68372 -10.08718,3.36743 -15.13077,5.05115 -4.10274,1.40176 -8.1975,2.82712 -12.30822,4.20528 -3.08433,1.03405 -6.18678,2.01326 -9.27646,3.03122 -1.34851,0.44429 -5.366786,0.8552 -4.03803,1.35549 36.13209,13.60429 8.60603,-18.73955 36.01132,48.50013 -1.53475,2.78339 -3.15789,5.51984 -4.60425,8.35016 -0.35845,0.70143 0.85126,-1.32812 1.33394,-1.95061 1.39683,-1.80142 2.86904,-3.54312 4.30113,-5.31665 7.88384,-9.76346 15.72576,-19.56467 23.13002,-29.70133 3.53878,-4.90576 7.14477,-9.76373 10.61634,-14.71729 8.33376,-11.89141 15.92388,-23.44754 23.85043,-35.63934 7.23411,-11.12678 20.85714,-32.35646 27.58623,-43.34559 5.02428,-8.20504 9.85661,-16.52608 14.78492,-24.78912 12.50458,-22.42292 16.5022,-29.15235 28.30648,-52.10468 16.80741,-32.68045 31.98987,-66.19077 45.51746,-100.35974 9.12773,-25.00155 18.6457,-50.24009 20.44816,-77.05807 7.51643,-52.49765 -66.72646,-63.12749 -74.24289,-10.62984 z"/>
<path d="m 293.82722,615.08015 c 7.22673,10.70566 16.29264,20.02166 23.67729,30.60977 1.45379,2.08444 2.73631,4.28325 4.10446,6.42487 0.92458,2.13478 1.84915,4.26955 2.77373,6.40432 23.17401,47.70184 90.63459,14.92884 67.46059,-32.773 v 0 c -2.49396,-4.902 -4.98792,-9.80401 -7.48188,-14.70602 -2.33373,-3.51397 -4.56816,-7.09595 -7.00118,-10.54192 -6.41788,-9.08986 -13.86324,-17.38814 -20.60689,-26.22615 -28.8557,-44.49549 -91.78182,-3.68735 -62.92612,40.80813 z"/>
<path d="m 77.704528,876.60738 c 1.798122,3.46926 4.557907,7.60918 6.672503,10.65721 6.280294,9.05256 13.267694,17.51112 20.270819,26.0032 10.574,12.7788 21.00761,25.67494 31.92749,38.16192 4.65547,5.08568 2.34657,2.65096 6.9134,7.31675 37.29552,37.70337 90.61614,-15.04047 53.32062,-52.74384 v 0 c -2.26143,-2.22984 -0.97848,-0.92154 -3.80042,-3.97179 -10.45797,-11.93362 -20.39225,-24.30921 -30.5275,-36.51528 -5.28002,-6.38567 -10.69853,-12.7004 -15.46135,-19.4923 -5.04686,-7.19692 -2.20215,-3.74781 -7.4182,-11.50691 -1.29336,-1.92394 -2.70324,-3.76693 -4.05486,-5.6504 -33.7583,-40.90082 -91.600798,6.84062 -57.842502,47.74144 z"/>
<path d="m 174.09023,817.01103 c 1.34857,2.12904 2.61677,4.31118 4.0457,6.38714 2.01432,2.92642 7.88123,10.48445 10.00005,13.28053 1.23949,1.63568 9.66621,12.89636 10.76955,14.28402 2.29552,2.88702 4.70671,5.68015 7.06006,8.52022 12.94511,13.16839 5.78623,6.63011 21.70683,19.35979 42.02289,32.35083 87.77388,-27.07852 45.75098,-59.42935 v 0 c -7.10209,-4.981 -3.8179,-2.29238 -9.89708,-8.01122 -1.60224,-1.89544 -3.26139,-3.74422 -4.80674,-5.68632 -0.94151,-1.18324 -10.16904,-13.4904 -11.00732,-14.59663 -2.41349,-3.18492 -4.69676,-6.47738 -7.29791,-9.51098 -0.0564,-0.0658 -0.0484,0.16652 -0.0726,0.24977 -24.85694,-46.8469 -91.10847,-11.69388 -66.25153,35.15303 z"/>
<path d="m 286.16349,771.30071 c 9.75015,11.57419 20.81274,21.96679 31.38865,32.77422 2.22638,2.31872 4.45277,4.63745 6.67915,6.95618 36.73722,38.24756 90.82745,-13.70671 54.09023,-51.95428 v 0 c -2.39148,-2.48899 -4.78297,-4.97799 -7.17445,-7.46698 -10.79165,-11.02046 -21.95238,-21.69022 -32.01003,-33.40154 -37.542,-37.45796 -90.51554,15.63444 -52.97355,53.0924 z"/>
<path d="m 459.77382,178.89942 c -0.0285,-0.41889 0.17734,-1.5841 -0.0854,-1.25666 -1.609,2.00476 -2.711,4.36925 -4.13194,6.51142 -2.73663,4.12565 -5.46808,8.257 -8.33945,12.29003 -13.66297,19.19053 -28.48902,37.48525 -43.27307,55.80976 -17.08258,20.23915 -34.57564,40.1255 -51.93731,60.12429 -34.76649,40.04736 21.86904,89.2146 56.63552,49.16724 v 0 c 17.95757,-20.68529 36.05965,-41.2472 53.68759,-62.21608 16.10908,-19.99135 32.26196,-39.9523 47.06627,-60.94749 4.55326,-6.45736 13.65097,-19.98778 17.58315,-27.61889 1.92889,-3.74336 3.33683,-7.73299 5.00525,-11.59948 14.32891,-51.06058 -57.88165,-71.32472 -72.21056,-20.26414 z"/>
<path d="m 541.7651,295.17281 c 0.43382,-2.2799 1.12007,-4.52598 1.30146,-6.83968 0.0238,-0.3041 -0.6043,0.21025 -0.80007,0.44418 -1.47681,1.76468 -2.72922,3.70747 -4.17351,5.49887 -2.48713,3.08487 -4.98452,6.1652 -7.61781,9.12628 -8.79247,9.88698 -17.92073,18.91251 -27.20695,28.38344 -27.66611,28.11489 -56.69248,54.88852 -86.56033,80.64574 -14.98312,12.92104 -29.32427,24.69248 -44.52115,37.28856 -5.82825,4.72659 -11.65651,9.45317 -17.48476,14.17975 -41.18717,33.40834 6.05935,91.6558 47.24652,58.24746 v 0 c 6.03444,-4.89566 12.06888,-9.79132 18.10332,-14.68697 16.06604,-13.32007 30.3129,-25.00948 46.19526,-38.71833 31.26531,-26.98664 61.64051,-55.04378 90.61112,-84.48609 14.45436,-14.782 29.14137,-29.33843 41.79763,-45.74025 4.22672,-5.47761 10.95476,-14.89979 13.67954,-21.42796 1.75943,-4.21534 2.60916,-8.75505 3.91375,-13.13257 6.21011,-52.66816 -68.27391,-61.45059 -74.48402,-8.78243 z"/>
<path d="m 461.38112,441.81947 c 3.08801,28.66438 4.22246,57.50364 5.3672,86.29712 1.93288,54.55853 0.84364,109.18152 -1.94223,163.6906 -0.59686,11.67824 -1.38187,23.34609 -2.0728,35.01914 -2.16232,30.93411 -5.082,61.8264 -9.63139,92.50823 -2.80256,18.90087 -4.74865,28.4132 -8.17969,46.7285 -9.74266,52.13042 63.98089,65.90862 73.72354,13.7782 v 0 c 3.74281,-20.07089 5.74297,-29.82979 8.80143,-50.61841 4.78121,-32.49831 7.88247,-65.21332 10.15567,-97.97514 0.71124,-12.07082 1.51915,-24.13634 2.13374,-36.21246 2.87954,-56.58055 3.96778,-113.2789 1.95208,-169.90923 -1.23297,-30.78625 -2.47192,-61.62027 -5.84415,-92.26212 -6.33255,-52.65358 -80.79595,-43.698 -74.4634,8.95557 z"/>
<path d="m 653.15502,224.92139 c 4.39275,12.44924 9.2225,24.84938 14.82468,36.82167 2.1967,4.69452 4.60407,9.28753 6.90611,13.9313 2.29496,4.21627 4.58992,8.43255 6.88488,12.64882 25.43838,46.53374 91.24702,10.55844 65.80864,-35.9753 v 0 c -1.86253,-3.38891 -3.72507,-6.77782 -5.5876,-10.16674 -5.00879,-9.94775 -5.83638,-11.16035 -10.11605,-21.34561 -5.28913,-12.58768 -9.0607,-25.92661 -16.35997,-37.58121 -29.46307,-44.09567 -91.82376,-2.4286 -62.36069,41.66707 z"/>
<path d="m 803.69505,175.62134 c -0.079,-0.35468 -0.13382,-1.41245 -0.23707,-1.06405 -0.42258,1.42586 -0.48122,2.93534 -0.75095,4.39784 -0.57112,3.09671 -1.06154,6.21137 -1.77152,9.27923 -0.92345,3.9903 -1.91915,7.96906 -3.12592,11.883 -3.33008,10.80055 -8.40814,23.46639 -12.36242,33.81782 -9.41153,22.92643 -20.84806,44.94232 -31.83582,67.13234 -23.53078,47.52686 43.68235,80.80441 67.21313,33.27756 v 0 c 12.05197,-24.34523 24.55441,-48.52031 34.72102,-73.74109 5.79165,-15.27783 10.31952,-26.30605 14.91831,-41.87575 2.861,-9.68626 4.81271,-18.9083 6.43561,-28.79631 0.53515,-3.26059 1.05349,-6.52928 1.35258,-9.81993 0.26148,-2.87692 0.21804,-5.77345 0.32706,-8.66017 -2.94829,-52.951 -77.8323,-48.78148 -74.88401,4.16951 z"/>
<path d="m 628.27838,437.36242 c -0.0938,0.12747 -0.43219,0.43027 -0.28135,0.3824 1.80437,-0.57268 3.53658,-1.35309 5.32205,-1.98226 8.31864,-2.93134 13.53842,-4.63005 22.45952,-7.00294 16.20332,-4.30985 21.76277,-5.22076 38.79168,-8.79692 41.81267,-8.16402 84.2563,-12.62338 126.75855,-15.10977 7.76207,-0.45408 15.53278,-0.74583 23.29918,-1.11875 21.58498,-0.95576 43.18781,-0.91712 64.78239,-0.47198 53.02209,1.07615 54.544,-73.9084 1.52191,-74.98456 v 0 c -23.30936,-0.46632 -46.62761,-0.49993 -69.92579,0.54403 -8.26848,0.40225 -16.54163,0.71776 -24.80543,1.20676 -45.98651,2.7212 -91.89909,7.6482 -137.12632,16.55246 -7.904,1.67718 -15.8377,3.21998 -23.71199,5.03152 -13.41188,3.08552 -24.23655,5.97099 -37.18074,10.07338 -4.90921,1.55587 -15.21681,5.19899 -20.40372,7.41626 -2.45326,1.04871 -4.81804,2.29341 -7.22706,3.44012 -45.83484,26.6771 -8.10772,91.49735 37.72712,64.82025 z"/>
<path d="m 731.82355,397.52888 c -1.17367,29.65551 -1.10041,59.35157 -1.74132,89.02526 -1.38497,58.244 -4.72666,116.41466 -9.24054,174.49284 -3.0965,34.01314 -1.52016,17.62479 -4.69425,49.1684 -5.30569,52.76693 69.31802,60.27032 74.62372,7.50339 v 0 c 3.27402,-32.58494 1.64624,-15.63021 4.84561,-50.86779 4.61042,-59.47305 8.04069,-119.0393 9.44807,-178.68175 0.6132,-28.54512 0.61457,-57.10865 1.59186,-85.64033 3.53555,-52.91503 -71.2976,-57.91505 -74.83315,-5.00002 z"/>
<path d="m 794.02017,595.22211 c 14.29783,-1.29908 28.65695,-1.29855 42.99608,-1.02852 21.36146,0.38389 42.58639,2.80694 63.63006,6.36162 52.30146,8.7782 64.71571,-65.18725 12.41424,-73.96544 v 0 c -24.72361,-4.1273 -49.65619,-6.95241 -74.74508,-7.38492 -18.3005,-0.29407 -36.66479,-0.29463 -54.87855,1.76771 -52.50235,7.48349 -41.91911,81.73303 10.58325,74.24955 z"/>
<path d="m 602.09633,570.67493 c -4.45175,20.61595 -6.47866,41.70939 -11.3078,62.24765 -1.47228,6.26156 -3.35802,12.41864 -5.03703,18.62796 -2.20475,6.83714 -4.25355,13.72655 -6.61424,20.51143 -5.70322,16.39165 -9.4651,25.6575 -16.90799,41.31806 -8.8818,18.68815 -19.13009,36.66583 -29.3008,54.66658 -2.73058,4.68194 -5.46116,9.36387 -8.19174,14.04581 -26.7078,45.81696 38.08717,83.58748 64.79496,37.77052 v 0 c 2.90174,-4.98026 5.80348,-9.96051 8.70522,-14.94077 11.35318,-20.1197 22.75002,-40.22999 32.56529,-61.1653 8.45428,-18.03239 13.32338,-30.0867 19.76527,-48.83171 2.73995,-7.9729 5.11035,-16.06804 7.66553,-24.10207 2.04906,-7.81143 4.32271,-15.56738 6.14717,-23.4343 4.57961,-19.74703 6.7679,-39.95787 10.78717,-59.81331 11.95049,-51.66901 -61.12052,-68.56955 -73.07101,-16.90055 z"/>
<path d="m 618.94296,745.38435 c 17.47803,8.31418 35.32064,15.82672 53.01427,23.66343 33.27285,14.83951 65.89787,31.06074 98.67526,46.94786 19.21469,8.93372 38.70628,17.50713 59.03857,23.60835 11.63143,3.4903 14.86991,3.9381 26.59221,6.43885 25.29496,5.08718 51.07588,6.52774 76.77404,7.94914 52.95308,2.9105 57.06915,-71.97647 4.11607,-74.88697 v 0 c -21.92185,-1.19668 -43.93002,-2.26673 -65.53264,-6.47298 -7.83029,-1.59207 -10.8874,-2.04634 -18.63134,-4.31097 -17.13168,-5.00997 -33.47173,-12.3649 -49.64581,-19.81605 -33.55322,-16.26172 -66.95349,-32.85927 -101.02014,-48.03487 -18.92129,-8.37635 -37.91244,-16.59396 -56.73319,-25.19229 -49.57278,-18.84249 -76.22008,51.264 -26.6473,70.1065 z"/>
</svg>
