<?xml version="1.0" ?>
<svg xmlns="http://www.w3.org/2000/svg" width="1000" height="1000">
<path d="m 194.97581,288.35062 c 18.78592,-2.6815 37.1981,-7.37056 55.76023,-11.21488 6.25644,-1.29575 12.53432,-2.48574 18.80148,-3.72861 37.76378,-7.42727 76.07056,-11.29747 114.44258,-13.69821 17.46996,-0.9419 34.96293,-1.44905 52.45803,-1.4777 0.9576,0.005 1.9152,0.01 2.8728,0.0145 0.22094,0.0209 0.88168,0.0994 0.66281,0.0628 -12.15458,-2.03647 -10.88607,-0.45608 -23.46893,-10.64726 -5.2332,-4.2385 -4.65182,-9.82195 -4.83653,-4.65893 2.86474,24.67522 2.3674,49.72216 0.0636,74.42854 -0.65954,7.07312 -1.64865,14.11162 -2.47298,21.16743 -3.89623,26.97655 -10.46471,53.45211 -16.9041,79.90342 -12.53728,51.52977 60.33682,69.26015 72.87409,17.73038 v 0 c 7.16668,-29.47238 14.4002,-58.99065 18.54051,-89.07894 0.93179,-8.23949 2.05316,-16.45975 2.79538,-24.71848 2.39737,-26.67593 3.11105,-54.49366 0.35743,-81.18374 -0.49284,-4.777 -1.32338,-9.5131 -1.98507,-14.26966 -2.51837,-9.8928 -3.96858,-20.01809 -11.3886,-28.01306 -11.58556,-12.48328 -21.72664,-15.91528 -37.24982,-15.73681 -19.021,0.0391 -38.03981,0.58299 -57.03275,1.62587 -41.69286,2.6417 -83.31122,6.89239 -124.34001,14.987 -6.69613,1.33199 -13.40298,2.61121 -20.0884,3.99596 -17.06202,3.53405 -33.9784,7.88604 -51.241,10.37872 -52.41904,8.04635 -41.03979,82.17807 11.37925,74.13172 z"/>
<path d="m 134.07755,413.26387 c 38.9745,-7.88598 78.19823,-14.40698 117.47367,-20.58354 56.80761,-8.44956 113.93401,-14.49192 171.02849,-20.61058 52.73105,-5.65119 44.73905,-80.22417 -7.992,-74.57297 v 0 c -58.31978,6.25032 -116.67078,12.43564 -174.69356,21.09501 -39.79626,6.26452 -79.54641,12.84953 -119.0377,20.84659 -52.2025,9.34873 -38.981405,83.17422 13.2211,73.82549 z"/>
<path d="m 222.14673,486.02678 c 24.05122,-3.29927 48.22944,-5.56101 72.38863,-7.8953 40.44488,-3.99412 80.89869,-7.89165 121.38802,-11.4092 52.83393,-4.59092 46.34139,-79.30937 -6.49253,-74.71845 v 0 c -40.73031,3.53988 -81.42543,7.4563 -122.11102,11.47555 -24.84883,2.4026 -49.71638,4.73734 -74.45514,8.12399 -52.6253,6.56339 -43.34326,80.9868 9.28204,74.42341 z"/>
<path d="m 252.9006,278.97705 c -3.25299,19.18518 -5.04106,38.58386 -7.96575,57.82234 -1.07079,7.04359 -2.28043,14.06537 -3.42064,21.09806 -8.58138,50.52725 -20.21632,100.48678 -35.64678,149.37291 -3.96872,12.57352 -8.33899,25.01676 -12.50848,37.52514 -25.88964,72.49621 -57.36021,142.88154 -91.38568,211.89119 -6.830918,13.85431 -13.898732,27.59055 -20.848098,41.38582 -25.114782,49.39681 -12.962412,25.13148 -36.49266,72.77816 -23.479657,47.55214 43.76922,80.75739 67.248878,33.20525 v 0 c 23.17744,-46.94806 11.11719,-22.8569 36.22895,-72.24934 7.1361,-14.174 14.39469,-28.287 21.40831,-42.52201 35.42443,-71.89832 68.13877,-145.25126 95.00393,-220.80916 4.41891,-13.30176 9.05179,-26.53434 13.25674,-39.90529 16.33592,-51.94525 28.67088,-105.0257 37.77296,-158.6992 1.21977,-7.56028 2.5119,-15.10924 3.6593,-22.68084 2.65763,-17.53751 4.49761,-35.18305 7.07329,-52.72918 10.94873,-51.89052 -62.43553,-67.37436 -73.38427,-15.48385 z"/>
<path d="m 189.83508,644.67448 c 9.39063,13.0782 13.6104,29.23445 18.09436,44.4556 5.51118,20.63028 8.40313,41.8401 9.6091,63.13401 0.61766,10.90608 0.48967,15.07918 0.50198,25.62689 -0.0982,3.03343 -0.19648,6.06685 -0.29471,9.10027 -1.59653,53.00897 73.36947,55.26681 74.96601,2.25784 v 0 c 0.10945,-3.86229 0.2189,-7.72458 0.32835,-11.58687 -0.0592,-12.88037 0.0828,-17.94261 -0.73121,-31.26191 -1.62566,-26.6015 -5.47519,-53.07062 -12.5359,-78.79914 -1.8313,-6.03305 -3.48777,-12.12196 -5.49389,-18.09916 -6.49256,-19.34443 -14.86718,-38.5084 -28.05549,-54.27777 -34.9666,-39.87276 -91.3552,9.57747 -56.3886,49.45024 z"/>
<path d="m 267.04952,653.76389 c 18.74835,-10.05192 38.47533,-18.04839 58.33288,-25.5946 21.53816,-7.88755 43.78795,-13.60645 66.30274,-17.87625 4.08712,-0.6741 5.12167,-0.88753 8.89376,-1.37661 0.7923,-0.10273 1.58544,-0.20313 2.38163,-0.26927 0.0431,-0.004 0.1573,0.0588 0.11413,0.0619 -0.77756,0.0563 -1.55845,0.14497 -2.33667,0.0989 -1.57504,-0.0933 -3.1368,-0.34403 -4.70521,-0.51604 -12.74264,-4.7551 -12.21683,-3.00576 -22.66716,-15.62297 -1.72319,-2.0805 -2.00673,-5.05705 -3.49254,-7.3132 -0.42177,-0.64044 0.11743,1.52923 0.18642,2.29297 0.21485,2.37847 0.47535,4.75292 0.66508,7.13353 0.30004,3.76472 0.5361,7.53427 0.80415,11.30141 1.75308,28.62351 0.95022,57.38761 -2.67343,85.84162 -0.73291,5.75503 -1.72534,11.47402 -2.58801,17.21103 -2.02977,12.67911 -5.78809,24.91572 -9.80644,37.06675 -16.41,50.43027 54.90917,73.63751 71.31917,23.20724 v 0 c 1.45335,-4.51989 3.03526,-9.00043 4.36004,-13.55965 4.71839,-16.23831 4.81597,-18.58536 8.31588,-35.71235 0.99844,-6.81283 2.14746,-13.60528 2.99532,-20.43847 4.07407,-32.83455 4.93939,-66.01722 2.88167,-99.03201 -0.57788,-7.86724 -1.06535,-16.37132 -2.11712,-24.23699 -0.92702,-6.93281 -2.57852,-16.5373 -6.47249,-22.23931 -9.99562,-14.63674 -12.24312,-13.63192 -26.03749,-19.24369 -2.39184,-0.34798 -4.76751,-0.83554 -7.17554,-1.04394 -9.03405,-0.78182 -18.05375,1.45329 -26.9198,2.72163 -26.81238,5.15324 -53.31453,11.97853 -78.9472,21.4646 -22.68411,8.67357 -45.21579,17.85671 -66.64411,29.35729 -46.89283,24.77019 -11.8625,91.08667 35.03034,66.31648 z"/>
<path d="m 274.73132,808.54952 c 33.87475,-8.14962 66.5709,-20.5163 99.31521,-32.26335 9.26458,-3.39638 18.52917,-6.79276 27.79376,-10.18913 49.79199,-18.25535 23.97503,-88.67186 -25.81696,-70.41651 v 0 c -9.10215,3.33745 -18.20429,6.67491 -27.30643,10.01237 -29.59852,10.62208 -59.1303,21.83634 -89.66706,29.51433 -51.86083,11.08848 -36.17935,84.43077 15.68148,73.34229 z"/>
<path d="m 539.82645,167.08675 c 0.97478,2.67 1.8303,5.3866 2.92433,8.00999 2.94331,7.05779 6.70487,14.32875 10.33466,21.02395 3.27991,6.04986 9.95112,17.70715 13.58012,23.48471 2.62573,4.18029 5.44133,8.23826 8.16199,12.3574 12.60215,16.26212 6.07772,8.54172 19.5093,23.21514 36.15228,38.80093 91.02508,-12.32612 54.8728,-51.12705 v 0 c -8.08208,-8.41143 -4.07808,-3.89524 -11.93117,-13.61979 -2.05613,-3.0637 -4.19778,-6.0717 -6.16839,-9.1911 -7.07223,-11.19503 -13.42712,-22.87982 -19.18152,-34.79991 -14.59939,-50.983896 -86.70151,-30.33724 -72.10212,20.64666 z"/>
<path d="m 735.82744,91.244997 c -0.33947,-1.188468 -0.55398,-2.419977 -1.01841,-3.565403 -0.0499,-0.122976 -0.32402,0.05741 -0.3513,0.187272 -0.32401,1.542382 -0.39051,3.129411 -0.67124,4.680255 -0.5067,2.799107 -1.07227,5.588068 -1.69016,8.364749 -3.02612,13.59892 -3.38889,14.12665 -7.37515,28.52949 -6.40762,20.87949 -15.28759,40.85536 -24.88262,60.43537 -8.42325,17.18883 -16.78361,33.00485 -26.38572,49.58479 -4.8956,8.45324 -10.09592,16.7263 -15.14387,25.08944 -5.29564,8.44178 -10.59127,16.88355 -15.8869,25.32532 -28.17313,44.93078 35.36859,84.7736 63.54172,39.84282 v 0 c 5.52944,-8.82215 11.05887,-17.64431 16.58831,-26.46646 5.50606,-9.15608 11.17848,-18.21414 16.51818,-27.46823 10.19503,-17.66875 19.81033,-35.8413 28.73048,-54.18798 11.3757,-23.39719 21.77195,-47.31196 29.2382,-72.27698 3.92114,-14.34925 5.84978,-20.43343 8.76913,-34.56644 2.44938,-11.85788 4.62912,-24.283382 3.41189,-36.45483 -0.30901,-3.089891 -1.14876,-6.103442 -1.72314,-9.155163 -15.62846,-50.677917 -87.29786,-28.575937 -71.6694,22.10198 z"/>
<path d="m 530.38725,398.93445 c 18.11558,-8.1832 36.79441,-15.11072 55.74835,-21.08961 7.73794,-2.44088 15.5537,-4.62781 23.33055,-6.94172 36.51331,-10.21846 73.99669,-16.50075 111.76961,-19.55677 23.78096,-1.92399 31.31959,-1.71136 54.79121,-2.14607 25.30351,0.0471 50.63136,1.66098 75.6068,5.81425 9.56184,1.59008 11.62271,2.17353 20.47038,4.17454 2.24257,0.57269 4.48513,1.14539 6.72769,1.71808 51.41213,13.01125 69.81282,-59.69648 18.40069,-72.70773 v 0 c -2.93,-0.73637 -5.86001,-1.47274 -8.79001,-2.20911 -11.08468,-2.44906 -14.1209,-3.2682 -25.89045,-5.17679 -29.08219,-4.71608 -58.54933,-6.62788 -87.99902,-6.59875 -26.1557,0.54079 -34.57092,0.31988 -61.08332,2.53474 -42.40947,3.54292 -84.47985,10.74574 -125.46175,22.28883 -8.62109,2.58237 -17.28593,5.02296 -25.86328,7.74711 -22.20424,7.05201 -44.09569,15.23645 -65.23836,25.03694 -47.4554,23.67458 -13.97448,90.78664 33.48091,67.11206 z"/>
<path d="m 625.53147,519.12926 c 15.59251,-6.3912 32.06154,-10.64651 48.57501,-13.88485 5.7319,-1.12405 11.51332,-1.97893 17.26999,-2.9684 20.79866,-2.99022 41.8768,-4.60257 62.872,-2.99582 9.36802,0.71693 12.16093,1.39994 21.08509,2.9417 2.57899,0.5917 5.15799,1.1834 7.73699,1.7751 51.77141,11.49873 68.03308,-61.71711 16.26166,-73.21584 v 0 c -3.91213,-0.85002 -7.82427,-1.70004 -11.73641,-2.55006 -13.00579,-2.0927 -16.68477,-2.97367 -30.23478,-3.88629 -26.35216,-1.77486 -52.79239,0.15543 -78.87403,4.0471 -6.94145,1.22579 -13.91342,2.28978 -20.82434,3.67737 -22.85297,4.58848 -45.68434,10.74354 -66.87066,20.59068 -47.00089,24.56452 -12.26141,91.03383 34.73948,66.46931 z"/>
<path d="m 513.34716,672.62224 c 23.54481,-8.17195 48.13632,-12.99149 72.49993,-17.99862 48.04855,-9.1323 96.84791,-14.26805 145.74409,-15.42021 10.76815,-0.25374 21.54189,-0.12741 32.31284,-0.19112 55.27006,0.67585 110.30551,6.2561 165.35362,10.73774 52.85815,4.30299 58.94349,-70.44973 6.08534,-74.75271 v 0 c -57.23693,-4.65905 -114.46451,-10.43104 -171.93751,-10.98337 -11.65909,0.0854 -23.32149,-0.0345 -34.97728,0.25618 -52.91961,1.31996 -105.72681,6.95297 -157.71912,16.89711 -28.43814,5.87541 -57.12904,11.608 -84.49273,21.5342 -49.44148,19.18439 -22.31066,89.10519 27.13082,69.9208 z"/>
<path d="m 666.09622,342.43778 c -0.0747,28.96631 0.0345,57.93051 0.3435,86.89519 0.77385,69.16663 3.45895,138.29208 5.6063,207.42477 2.96046,78.08582 0.3905,156.20935 -2.08243,234.2655 -0.34283,11.08492 -0.68565,22.16984 -1.02848,33.25476 -1.63938,53.00767 73.32478,55.3261 74.96415,2.31843 v 0 c 0.34225,-11.06625 0.68449,-22.1325 1.02674,-33.19875 2.52158,-79.62348 5.09975,-159.31525 2.08387,-238.96853 -2.13177,-68.62416 -4.80005,-137.24109 -5.57444,-205.89882 -0.30819,-28.69712 -0.41223,-57.3938 -0.33921,-86.09255 0,-53.03301 -75,-53.03301 -75,0 z"/>
</svg>
