<?xml version="1.0" ?>
<svg xmlns="http://www.w3.org/2000/svg" viewBox="0 0 1000 1000">
<path d="m 176.72415,291.52688 c 26.30785,-5.62311 52.46141,-11.95006 78.57868,-18.39372 28.16074,-6.9974 56.18096,-14.567 84.48653,-20.97156 13.16444,-2.97866 18.13072,-3.92898 30.89074,-6.53426 8.60039,-1.58387 17.1776,-3.39772 25.86791,-4.44554 1.17944,-0.14221 2.36429,-0.24401 3.55043,-0.31013 0.46694,-0.026 1.86977,0.0128 1.40258,0.034 -1.16373,0.0528 -2.32952,0.0406 -3.49428,0.061 -11.91751,-3.49823 -11.49532,-1.85726 -20.82294,-10.95294 -1.51315,-1.47553 -2.29293,-3.55605 -3.57207,-5.2385 -0.0975,-0.12827 -0.48124,-0.24664 -0.47576,-0.0856 0.0542,1.59188 0.43422,3.15594 0.63422,4.73614 0.35057,2.76981 0.67832,5.54245 1.01748,8.31368 4.06104,33.26836 6.62989,66.66891 8.65514,100.11383 2.94695,50.68608 4.59332,101.42603 5.45387,152.18607 0.25412,35.58578 0.20408,71.22326 -2.01798,106.75679 -1.37188,21.93815 -2.25818,27.99654 -4.5792,49.705 -4.48781,39.54088 -11.30315,78.75576 -19.97791,117.57985 -2.64114,11.17683 -5.39849,22.32735 -8.32881,33.43212 -0.60628,2.29753 -1.22219,4.59262 -1.86119,6.88127 -1.50813,5.40159 -1.49307,6.35702 -1.32436,3.72342 8.82754,-13.84927 3.18737,-8.12449 17.53548,-17.38466 0.81914,-0.52867 3.19877,-0.90498 2.4751,-1.55827 -1.72581,-1.55801 -4.43491,-1.40191 -6.62349,-2.18674 -14.19933,-5.09197 -11.018,-4.04879 -25.78796,-10.93538 -5.14272,-2.88212 -10.28545,-5.76424 -15.42818,-8.64635 -46.42355,-25.63891 -82.68244,40.01391 -36.25889,65.65282 v 0 c 6.85302,3.74292 13.70603,7.48584 20.55905,11.22875 15.21826,6.8338 22.37249,10.71391 38.19705,15.32661 5.99461,1.74737 12.04513,3.52349 18.24979,4.22416 6.83218,0.77154 13.91116,1.64342 20.62616,0.16598 7.89928,-1.73801 15.72033,-4.87759 22.28197,-9.60668 5.4,-3.89187 8.38198,-10.34258 12.57297,-15.51387 1.1864,-2.93612 2.4945,-5.82595 3.55918,-8.80836 0.66224,-1.85504 3.50921,-12.53536 3.83588,-13.77449 3.14334,-11.92351 6.10016,-23.89636 8.92293,-35.89957 9.25667,-41.601 16.58807,-83.60764 21.35525,-125.97469 2.52127,-23.85708 3.42769,-29.97546 4.91543,-54.08748 2.29151,-37.13875 2.37213,-74.38258 2.0909,-111.57482 -0.88352,-51.85003 -2.56522,-103.6799 -5.58074,-155.45415 -2.129,-35.01588 -4.83145,-69.98615 -9.08949,-104.81671 -1.20016,-9.54895 -2.27972,-22.32551 -5.83431,-31.23604 -4.35013,-10.90478 -9.18087,-18.30805 -19.62179,-24.85832 -4.66375,-2.92588 -10.32787,-3.81843 -15.49181,-5.72764 -3.06592,-0.24225 -6.12356,-0.6386 -9.19777,-0.72677 -3.29122,-0.0944 -9.99172,0.59619 -13.1367,0.99166 -10.16351,1.27802 -20.21388,3.31343 -30.27291,5.20992 -13.66911,2.79696 -18.85103,3.78897 -32.95825,6.98736 -28.59803,6.48374 -56.91945,14.09437 -85.36935,21.18377 -24.24691,5.98563 -48.54017,11.76927 -72.91192,17.2251 -52.31457,8.69978 -40.01123,82.68375 12.30334,73.98397 z"/>
<path d="m 210.43873,445.36908 c 11.53133,5.11583 23.8019,8.23513 35.72268,12.26831 3.06594,1.03731 6.09603,2.17771 9.14405,3.26656 6.43715,2.11157 12.27245,5.30788 17.90681,8.97928 45.235,27.68203 84.38331,-36.28991 39.14831,-63.97195 v 0 c -3.20873,-1.91031 -6.33804,-3.9608 -9.62618,-5.73094 -9.34098,-5.02863 -12.55262,-6.01167 -22.32652,-9.95078 -3.77471,-1.33447 -7.53121,-2.72163 -11.32413,-4.00342 -8.23581,-2.78322 -16.67219,-5.00927 -24.8252,-8.03681 -1.78216,-0.66179 -3.52079,-1.43568 -5.29024,-2.13076 -1.61417,-0.6341 -3.24014,-1.23775 -4.86021,-1.85663 -50.32277,-16.73676 -73.99213,54.43037 -23.66937,71.16714 z"/>
<path d="m 186.81583,723.23322 c 35.12975,-27.51747 69.38776,-56.11774 103.67703,-84.66795 47.5521,-39.91925 96.17161,-78.54186 144.04787,-118.06617 12.21795,-10.08654 24.32431,-20.30751 36.48646,-30.46126 40.70881,-33.9896 -7.35974,-91.56055 -48.06855,-57.57095 v 0 c -11.95192,9.98016 -23.84811,20.02744 -35.85577,29.94048 -48.06014,39.67656 -96.86643,78.44795 -144.60046,118.52183 -33.12977,27.58596 -66.24582,55.19442 -100.11194,81.87731 -42.728136,31.41347 1.69723,91.84018 44.42536,60.42671 z"/>
<path d="m 561.72924,238.11235 c 17.61137,-4.69872 35.68862,-7.35718 53.67085,-10.17701 35.43941,-5.24781 71.03733,-9.30844 106.62787,-13.36624 17.92101,-1.9313 35.9795,-4.55137 54.02698,-2.88643 0.70469,0.11805 1.40938,0.2361 2.11407,0.35416 0.17451,0.069 0.70784,0.17166 0.52354,0.20708 -2.32046,0.44607 -8.25741,-3.70712 -9.74128,-4.68453 -3.14543,-2.16343 -4.9391,-5.0571 -7.01209,-8.11113 -0.0768,-0.11312 0.0944,0.25661 0.14162,0.38492 4.01015,11.94711 6.84848,24.22762 9.49468,36.53323 4.56783,23.97045 7.53866,48.2484 9.12744,72.59666 0.38451,5.89257 0.61519,11.79418 0.92278,17.69127 1.74508,40.30636 -1.32548,80.58578 -4.75155,120.71674 -0.72621,7.22641 -1.40545,14.45769 -2.17864,21.67923 -1.41132,13.18154 -3.52451,30.49566 -5.0456,43.64919 -2.45956,21.26897 -4.76067,42.55183 -7.31113,63.81029 -4.34611,35.12038 -11.36915,69.8142 -19.42586,104.24717 -6.53939,25.405 -12.80505,50.91532 -20.7606,75.92321 -5.17855,15.29086 -11.00868,30.39559 -18.66464,44.62752 -2.54963,3.91517 -4.51435,8.41723 -7.6858,11.91742 -0.0758,0.0837 0.0238,-0.24338 0.10472,-0.32209 1.93235,-1.87904 3.93736,-3.68189 5.90604,-5.52284 -17.57044,-5.16463 14.1348,-2.60345 11.06813,-5.31341 -1.69569,-1.49845 -4.32516,-1.3357 -6.46256,-2.07879 -4.19157,-1.45723 -8.41084,-2.84986 -12.52171,-4.52124 -16.00243,-6.50619 -17.78222,-8.04687 -33.63682,-16.56917 -6.33099,-4.00371 -12.66197,-8.00742 -18.99295,-12.01114 -44.94405,-28.15195 -84.75692,35.40853 -39.81287,63.56049 v 0 c 7.88769,4.90254 15.77538,9.80509 23.66308,14.70764 7.6528,4.01689 15.16438,8.31519 22.95841,12.05068 11.72517,5.6196 27.35336,11.89961 40.04002,15.51517 11.28771,3.21687 24.19216,6.10176 36.07581,4.2508 5.88708,-0.91695 11.28948,-3.81334 16.93423,-5.72001 3.63636,-2.86741 7.45327,-5.51961 10.90908,-8.60223 1.50631,-1.34364 2.66033,-3.03857 3.91425,-4.62034 5.31253,-6.70155 9.55746,-14.19744 13.80212,-21.58989 9.61865,-18.31299 17.46741,-37.46308 23.90484,-57.12527 8.4686,-26.86611 15.36736,-54.19534 22.29033,-81.49299 8.66121,-37.12093 16.20282,-74.52279 20.85947,-112.3828 2.55399,-21.3169 4.86553,-42.65723 7.33178,-63.98423 1.63128,-14.10652 3.67874,-30.81435 5.1838,-44.91821 0.81034,-7.59373 1.52152,-15.19771 2.28227,-22.79657 3.70548,-43.56677 6.91107,-87.29639 4.91753,-131.04819 -0.35208,-6.56698 -0.61854,-13.13911 -1.05622,-19.70094 -1.84668,-27.68588 -5.28871,-55.28804 -10.59456,-82.52595 -3.83209,-17.53434 -7.81016,-35.20434 -14.60603,-51.87208 -3.47839,-7.41327 -7.78988,-14.13814 -14.196,-19.38456 -1.90478,-1.34111 -3.73009,-2.80287 -5.71434,-4.02332 -8.52031,-5.2406 -18.53878,-7.17912 -28.32976,-8.26305 -7.25407,-0.53399 -8.82168,-0.76901 -16.45503,-0.7813 -17.42412,-0.0281 -34.75261,1.91534 -52.03727,3.91263 -36.64011,4.17779 -73.28704,8.3667 -109.76839,13.79171 -20.17215,3.1729 -40.42496,6.24752 -60.186,11.49851 -51.45632,12.83537 -33.30436,85.6056 18.15196,72.77023 z"/>
<path d="m 590.84787,378.93467 c 9.35145,4.5927 18.19933,10.06371 26.90415,15.7637 5.46361,3.27353 9.50568,7.7212 13.01764,12.90919 31.87456,42.38528 91.81641,-2.69215 59.94185,-45.07744 v 0 c -2.13601,-2.74758 -4.13406,-5.6082 -6.40803,-8.24273 -7.46188,-8.64503 -16.07766,-16.13951 -25.6065,-22.4262 -11.90383,-7.72726 -24.02501,-15.15129 -36.87148,-21.23016 -48.29796,-21.90449 -79.27559,46.39914 -30.97763,68.30364 z"/>
<path d="m 563.18861,618.25938 c 4.71917,-1.7864 8.81753,-3.30294 13.61492,-5.36676 12.26654,-5.27704 22.8354,-10.3945 35.10243,-16.03623 20.72456,-9.53143 28.48579,-12.95848 49.86213,-22.56341 28.77492,-13.19981 58.19758,-24.86176 87.64785,-36.43943 49.35126,-19.41529 21.89389,-89.20851 -27.45737,-69.79322 v 0 c -30.54958,12.02681 -61.07388,24.1326 -90.93089,37.82192 -21.823,9.80671 -29.54348,13.21467 -50.71633,22.9537 -7.58466,3.48878 -22.86156,10.72891 -31.53658,14.49095 -4.17449,1.81032 -7.73955,3.12479 -11.86871,4.68842 -49.67005,18.58457 -23.38749,88.82863 26.28255,70.24406 z"/>
</svg>
