<?xml version="1.0" ?>
<svg xmlns="http://www.w3.org/2000/svg" viewBox="0 0 1000 1000">
<path d="m 227.95234,187.92292 c 1.62767,-0.33492 3.26076,-0.64443 4.88299,-1.00476 10.15268,-2.25515 20.26229,-4.56064 30.48415,-6.5083 15.75266,-3.00147 15.95879,-2.90078 32.28895,-5.49593 29.85025,-4.78369 60.07691,-5.99887 90.24027,-6.96088 11.72752,-0.33395 23.45847,-0.56801 35.19085,-0.61119 0.12604,0.0164 0.50515,0.0533 0.37811,0.0493 -9.70495,-0.30591 -16.52015,-4.85596 -23.61626,-11.40897 -10.49639,-9.69304 -1.81494,-5.20821 -4.95902,-6.80198 3.16265,23.12477 4.18338,46.46983 4.94706,69.7741 0.67345,27.22901 -0.56688,54.45573 -3.34394,81.54353 -1.586,15.47005 -3.35016,28.06942 -5.37319,43.49069 -3.64788,26.60371 -7.32222,53.27677 -13.82678,79.36722 -3.30558,13.25903 -5.05874,17.97736 -9.20334,30.84082 -1.83718,5.1644 -3.67436,10.3288 -5.51154,15.4932 -17.71943,49.98521 52.97034,75.04428 70.68977,25.05906 v 0 c 2.08589,-5.90228 4.17178,-11.80456 6.25767,-17.70685 5.07327,-15.96299 6.89853,-20.81404 10.95583,-37.3015 6.96279,-28.2943 11.08585,-57.17234 15.00324,-86.01191 2.19449,-16.78016 4.01749,-29.77627 5.71972,-46.65735 3.03571,-30.10522 4.36018,-60.36447 3.59078,-90.62002 -0.59218,-17.43809 -1.35779,-34.80724 -2.84423,-52.19528 -0.64396,-7.53301 -1.50097,-16.71429 -2.69499,-24.27398 -0.54275,-3.43626 -1.28875,-6.83733 -1.93312,-10.25599 -2.44894,-7.98134 -3.88802,-15.09754 -9.83668,-21.7328 -10.10176,-11.26773 -20.31388,-15.53731 -34.68318,-15.65077 -12.43629,0.0483 -24.87113,0.29096 -37.30223,0.64892 -33.31772,1.0667 -66.69257,2.55269 -99.65814,7.85882 -23.20966,3.71433 -46.36723,7.77273 -69.22998,13.27723 -52.18133,9.46621 -38.79409,83.26175 13.38723,73.79555 z"/>
<path d="m 261.32375,303.78216 c 21.26646,-5.2439 43.14014,-6.8599 64.93476,-8.07703 29.40828,-1.00088 58.85523,0.51131 88.10263,3.579 2.79338,0.36855 5.58676,0.7371 8.38014,1.10565 52.58789,6.85669 62.28471,-67.51381 9.69683,-74.3705 v 0 c -3.44448,-0.44478 -6.88896,-0.88955 -10.33344,-1.33433 -33.25242,-3.42084 -66.72051,-5.15557 -100.14876,-3.8563 -6.21703,0.36581 -12.4416,0.62045 -18.6511,1.09743 -21.0505,1.617 -42.05999,4.54158 -62.54247,9.7296 -51.00112,14.53912 -30.43971,86.66559 20.56141,72.12648 z"/>
<path d="m 253.963,427.73713 c 22.20617,-2.3689 44.51765,-3.13978 66.82252,-3.9116 29.30001,-0.85039 58.60351,-1.53246 87.91628,-1.61719 53.03276,-0.16065 52.80558,-75.1603 -0.22718,-74.99966 v 0 c -30.10379,0.0951 -60.1984,0.77812 -90.28895,1.66193 -23.69832,0.82387 -47.4025,1.68312 -70.99774,4.17315 -52.81618,4.7907 -46.04111,79.48407 6.77507,74.69337 z"/>
<path d="m 561.61645,166.72261 c 2.66512,0.0497 5.33002,0.1857 7.99536,0.14921 5.59627,-0.0766 14.62597,-0.75548 19.90206,-1.21023 13.7705,-1.18688 27.50731,-2.8006 41.25026,-4.26195 22.46963,-2.47562 44.99272,-4.4795 67.61181,-4.11203 6.82202,0.23155 13.77407,0.52157 20.51278,1.18227 -6.35116,-0.78729 -12.092,-3.5178 -17.04419,-7.6389 -2.40359,-2.0002 -4.32241,-4.53573 -6.23053,-7.01306 -3.91902,-5.08809 -0.85557,-3.12849 -2.48082,-4.14087 3.49207,18.0585 4.88891,36.45597 6.51287,54.75337 1.98853,24.64951 3.32626,49.39406 2.61856,74.13177 -0.54404,19.01682 -1.20895,23.20752 -2.90434,42.23023 -2.32092,21.14432 -6.5011,42.01676 -11.06401,62.77159 -2.21052,10.05478 -6.5072,28.97117 -9.52856,39.03315 -1.6012,5.33244 -3.65721,10.51761 -5.48581,15.77642 -2.25405,4.43037 -4.5081,8.86074 -6.76214,13.29112 -23.14341,47.71669 44.33819,80.44641 67.48159,32.72971 v 0 c 3.42398,-7.27648 6.84796,-14.55297 10.27194,-21.82946 2.36288,-7.04142 4.97167,-14.00504 7.08864,-21.12426 3.2258,-10.84808 7.93102,-31.47387 10.33071,-42.45028 5.17787,-23.68416 9.83549,-47.51564 12.38117,-71.649 0.70004,-8.10529 1.56375,-16.1981 2.10014,-24.31586 2.31733,-35.07055 1.15804,-70.24926 -1.82296,-105.24152 -2.05668,-23.06469 -3.74548,-46.34888 -9.16444,-68.92315 -1.69063,-5.3403 -2.83747,-10.08056 -6.03106,-14.88615 -7.80058,-11.73803 -17.16642,-17.76835 -30.91268,-19.91924 -9.5687,-1.09036 -19.20872,-1.43725 -28.8283,-1.76069 -9.35397,-0.11239 -11.78721,-0.24491 -21.48354,0.10034 -18.42203,0.65592 -36.76629,2.5846 -55.09731,4.42496 -12.99169,1.3815 -25.97732,2.90159 -38.99201,4.05629 -3.01062,0.26712 -6.0268,0.46728 -9.0402,0.70091 -1.8384,0.0984 -3.6799,0.15008 -5.5152,0.29523 -0.20083,0.0159 -0.38328,0.12428 -0.57492,0.18642 -52.79518,-5.01683 -59.89005,69.64683 -7.09487,74.66366 z"/>
<path d="m 584.77522,294.63005 c 16.65996,-1.06934 33.349,-1.50594 50.03946,-1.6575 23.18122,-0.007 46.37647,0.54096 69.43307,3.04591 2.39964,0.33524 4.79928,0.67047 7.19892,1.00571 52.54046,7.21112 62.73851,-67.09231 10.19806,-74.30343 v 0 c -3.15789,-0.42753 -6.31577,-0.85505 -9.47366,-1.28258 -25.93876,-2.70709 -52.00411,-3.57441 -78.08013,-3.46212 -18.1093,0.18399 -36.21777,0.6432 -54.29349,1.81938 -52.91608,3.51982 -47.93831,78.35445 4.97777,74.83463 z"/>
<path d="m 546.77467,436.7857 c 20.64038,-3.22753 41.51408,-3.99878 62.3614,-4.57613 16.54662,-0.30864 33.11297,-0.0295 49.62439,1.14456 11.97894,0.85179 17.1514,1.58138 28.84137,2.94557 52.68198,6.09168 61.29692,-68.4119 8.61494,-74.50358 v 0 c -13.85747,-1.58953 -19.22141,-2.35381 -33.4933,-3.33721 -18.53827,-1.27738 -37.13499,-1.57632 -55.70998,-1.2193 -22.74782,0.65674 -45.54458,1.47696 -68.07297,4.95637 -52.7429,5.53958 -44.90875,80.1293 7.83415,74.58972 z"/>
<path d="m 467.7068,507.88334 c 9.10785,8.20724 16.94543,17.5802 24.54978,27.15341 33.05585,41.4706 91.70414,-5.27743 58.64829,-46.74803 v 0 c -9.03397,-11.30251 -18.27864,-22.48495 -29.00428,-32.25162 -36.66083,-38.3208 -90.85462,13.52545 -54.19379,51.84624 z"/>
<path d="m 302.38231,656.85978 c 29.20035,-9.11148 59.21291,-15.19553 89.18106,-21.13318 49.13407,-8.76762 99.00994,-13.67475 148.9276,-14.31182 9.28282,-0.11847 18.56673,0.12391 27.8501,0.18586 34.20981,1.45146 68.73527,4.07068 102.07196,12.31921 1.70198,0.52415 3.40396,1.04831 5.10594,1.57246 50.83051,15.12477 72.22017,-56.76043 21.38966,-71.8852 v 0 c -2.96044,-0.86317 -5.92088,-1.72634 -8.88132,-2.5895 -3.83527,-0.9113 -7.64842,-1.9213 -11.50581,-2.7339 -35.39677,-7.45665 -71.6712,-10.34829 -107.75018,-11.68183 -10.21589,-0.0499 -20.43269,-0.29497 -30.64767,-0.14973 -54.02835,0.76818 -108.00239,6.13814 -161.16994,15.71116 -33.45034,6.65783 -66.97142,13.48952 -99.48347,23.95477 -50.02194,17.61549 -25.10987,88.3572 24.91207,70.7417 z"/>
<path d="m 335.75516,712.75662 c 3.60037,22.49139 9.42647,44.5157 15.6416,66.39982 4.12245,13.9054 8.69647,27.66878 13.27234,41.42923 16.7397,50.32179 87.90546,26.64828 71.16576,-23.67351 v 0 c -4.23388,-12.72296 -8.46872,-25.4476 -12.30609,-38.29768 -5.32121,-18.62735 -10.33075,-37.35818 -13.53072,-56.48767 -7.51641,-52.49765 -81.75931,-41.86784 -74.24289,10.62981 z"/>
<path d="m 531.35978,644.87674 c 0.56399,20.46436 -5.11927,40.51135 -9.57495,60.30156 -9.44413,43.56263 -25.31749,85.38241 -41.68258,126.73265 -19.49664,49.31917 50.2512,76.89159 69.74785,27.57242 v 0 c 17.76108,-44.97664 34.86034,-90.48515 45.10892,-137.85702 5.91943,-26.37431 12.66578,-53.06612 11.3155,-80.32494 -2.52815,-52.97272 -77.44288,-49.39738 -74.91474,3.57533 z"/>
<path d="m 171.62214,938.06652 c 21.45498,-2.75305 42.45921,-8.18108 63.72038,-12.0769 7.19268,-1.31797 14.41424,-2.47315 21.62136,-3.70972 61.24369,-9.52141 123.23285,-12.71061 185.08188,-15.37191 61.48281,-2.10373 123.05238,-1.83618 184.51068,0.93701 11.40811,0.51477 22.80551,1.24439 34.20827,1.86659 37.45602,2.36137 74.78645,6.59461 111.74613,13.13044 16.01493,2.83203 22.01151,4.22217 37.31701,7.46221 4.36957,1.01195 8.73913,2.02389 13.1087,3.03584 51.67156,11.93942 68.55644,-61.13521 16.88488,-73.07462 v 0 c -4.83165,-1.11412 -9.6633,-2.22824 -14.49495,-3.34236 -16.65149,-3.50953 -23.22802,-5.02811 -40.64323,-8.08669 -39.64342,-6.96247 -79.67665,-11.4996 -119.84581,-14.01416 -11.85795,-0.64279 -23.71043,-1.39595 -35.57384,-1.92838 -63.43744,-2.84707 -126.98921,-3.10429 -190.45065,-0.91617 -65.02724,2.81283 -130.19601,6.24646 -194.56883,16.38868 -7.80077,1.34613 -15.61637,2.60893 -23.4023,4.03839 -18.23771,3.34836 -36.2943,7.6112 -54.55158,10.85152 -52.89882,3.77022 -47.56693,78.58045 5.3319,74.81023 z"/>
</svg>
