<?xml version="1.0" ?>
<svg xmlns="http://www.w3.org/2000/svg" viewBox="0 0 1000 1000">
<path d="m 375.23905,221.22976 c 25.07268,-4.65926 50.44678,-7.21803 75.81169,-9.63714 29.35744,-2.575 58.83702,-4.29893 88.31766,-3.4394 14.4707,0.42191 20.88679,1.11594 34.95899,2.26305 17.35657,1.82997 9.14231,0.88818 24.64789,2.7806 52.64543,6.39987 61.69622,-68.05202 9.05079,-74.45189 v 0 c -17.34915,-2.10155 -8.1208,-1.05374 -27.69131,-3.08773 -16.52238,-1.31095 -23.21939,-2.04281 -40.28332,-2.50092 -32.09376,-0.8616 -64.18595,0.95351 -96.14468,3.77731 -27.45526,2.63528 -54.91604,5.45436 -82.05504,10.5006 -52.18131,9.46627 -38.79398,83.2618 13.38733,73.79552 z"/>
<path d="m 455.92341,86.96325 c 2.37654,24.94298 4.24956,49.93538 6.16732,74.91774 2.02276,29.75153 3.64827,59.62285 2.32369,89.44795 -0.70739,15.92815 -1.45605,20.31628 -3.19912,35.5563 -5.90694,52.70301 68.62638,61.0567 74.53333,8.35368 v 0 c 2.02786,-18.40598 2.84956,-23.18825 3.64963,-42.35304 1.34679,-32.26082 -0.30995,-64.56596 -2.52759,-96.74594 -2.05683,-26.78841 -3.95411,-53.60805 -6.78069,-80.326543 -7.88413,-52.443688 -82.05071,-41.293835 -74.16657,11.149853 z"/>
<path d="m 179.65629,402.26349 c 28.34969,-3.56181 56.69843,-7.07772 85.11029,-10.11345 41.57472,-3.93897 82.98317,-9.38446 124.47399,-14.07623 35.10535,-3.9697 37.92494,-4.08324 73.5187,-7.49189 62.4943,-5.08373 125.14098,-9.42738 187.86644,-10.0056 10.62412,-0.0979 21.24891,0.0971 31.87337,0.14562 42.95321,0.20604 85.58455,5.52374 128.11037,10.9854 3.50481,0.43531 7.00961,0.87062 10.51442,1.30593 52.62882,6.53507 61.87081,-67.89332 9.24199,-74.42839 v 0 c -3.40135,-0.42225 -6.8027,-0.84449 -10.20404,-1.26674 -45.58993,-5.8533 -91.30492,-11.40624 -137.35031,-11.59555 -11.27867,-0.0427 -22.55778,-0.2366 -33.83601,-0.12811 -64.5637,0.62106 -129.04695,5.0706 -193.37162,10.32955 -36.55634,3.50639 -39.15831,3.59635 -75.158,7.66721 -41.21896,4.66105 -82.35565,10.07458 -123.65832,13.98444 -28.31785,3.03384 -56.58042,6.48651 -84.83157,10.08416 -52.75275,5.44493 -45.05245,80.04858 7.7003,74.60365 z"/>
<path d="m 642.73219,201.09966 c -20.37814,20.8381 -41.19954,41.24827 -61.85643,61.81178 -56.88111,55.9321 -113.07532,112.55577 -169.81078,168.63402 -44.34782,43.19131 -89.82485,85.23115 -136.44429,125.96174 -27.34423,23.89017 -37.49038,32.18865 -65.05028,55.33722 -39.41565,32.5209 -19.97751,16.61724 -58.30125,47.72709 -41.17339,33.42533 6.09717,91.65329 47.27055,58.22796 v 0 c 38.9571,-31.6282 19.19531,-15.45748 59.27187,-48.52867 28.25651,-23.74014 38.50143,-32.11831 66.55187,-56.63288 47.63836,-41.63337 94.10945,-84.604 139.42552,-128.75223 56.79675,-56.14233 113.05718,-112.82505 169.99954,-168.82125 21.60793,-21.51028 43.44686,-42.80808 64.63506,-64.73064 35.52091,-39.37976 -20.17048,-89.6139 -55.69138,-50.23414 z"/>
<path d="m 511.75223,569.5049 c 22.01444,-6.76375 44.93351,-9.53602 67.73547,-12.07691 28.0248,-2.60947 56.26391,-3.03854 84.31617,-0.6939 1.83652,0.23032 3.67303,0.46064 5.50954,0.69097 52.65341,6.33387 61.61085,-68.12931 8.95744,-74.46318 v 0 c -2.79777,-0.32715 -5.59554,-0.6543 -8.39331,-0.98145 -32.88631,-2.61256 -65.96494,-2.30332 -98.80838,0.92153 -6.9967,0.7996 -14.00958,1.46838 -20.99009,2.39878 -21.70113,2.89245 -43.36233,7.01366 -64.20348,13.80956 -49.7765,18.29755 -23.89986,88.69215 25.87664,70.3946 z"/>
<path d="m 460.46481,457.46358 c -1.46813,16.81236 -3.38433,33.57698 -5.59796,50.30585 -4.56737,30.96114 -12.41695,61.29068 -18.72796,91.91382 -3.37977,17.21672 -6.11593,34.55545 -8.41804,51.94734 -2.45513,18.95157 -1.30997,31.7674 19.29776,46.35308 7.04031,4.98297 17.03522,2.71759 25.55282,4.07639 11.28833,-2.24076 22.37694,-5.35433 33.67051,-7.57599 10.19636,-2.00581 12.92193,-2.25823 23.39555,-3.77043 14.84284,-1.69455 29.98924,-2.66499 44.81838,-0.24611 6.24867,1.01926 8.56393,1.91578 14.40866,3.68979 3.72317,1.42826 5.90835,2.12731 9.34185,3.91444 1.67009,0.86928 5.00417,2.91476 3.46393,3.09476 -0.45596,0.12871 -3.01041,-3.12562 -3.18748,-2.63498 -0.41445,1.14841 -0.15124,2.43719 -0.24274,3.65466 -0.17555,2.3357 -0.26682,4.68058 -0.5584,7.00464 -0.36717,2.92653 -0.94417,5.82289 -1.41626,8.73433 -4.63577,23.02734 -12.85773,45.22635 -22.68084,66.51738 -2.25244,4.88204 -4.68402,9.67942 -7.02603,14.51913 -11.01448,22.01588 -24.67463,42.52274 -40.11904,61.64746 -5.16626,5.71439 -9.96532,12.02854 -15.97253,16.93379 -0.40044,0.35047 -0.79553,0.70717 -1.20134,1.05142 -0.10371,0.088 0.18526,-0.20141 0.29464,-0.28223 1.09813,-0.8114 2.04171,-1.92585 3.32495,-2.39227 5.84398,-2.1241 11.72502,-4.43761 17.88079,-5.31536 6.4328,-0.91725 14.04688,3.25013 8.8488,0.54939 -16.78246,-7.33181 -34.02827,-13.54752 -51.18661,-19.92666 -49.71047,-18.47619 -75.83973,51.82503 -26.12926,70.30121 v 0 c 15.84818,5.88866 31.78829,11.60316 47.29629,18.35553 6.89203,2.88885 13.67659,6.27334 21.6013,5.7193 12.19304,-0.85247 20.58625,-4.24772 28.8227,-11.76136 9.00344,-8.05171 17.22509,-16.94081 24.8942,-26.26681 6.60693,-8.26014 8.30668,-10.17882 14.69286,-19.07872 12.96279,-18.0652 24.51707,-37.11602 34.51764,-56.97831 2.73771,-5.70242 5.58663,-11.35276 8.21312,-17.10724 12.49788,-27.38205 22.70696,-55.98169 28.14079,-85.64518 0.69119,-5.05224 1.59144,-10.08027 2.07359,-15.15673 1.7861,-18.80543 0.79733,-36.61796 -8.63564,-53.45307 -1.75971,-3.14057 -4.13876,-5.89149 -6.20814,-8.83724 -6.08792,-6.39517 -6.68168,-7.60115 -13.7316,-12.76664 -10.41296,-7.62961 -22.47102,-12.55284 -34.65363,-16.55054 -11.53003,-3.14851 -14.83425,-4.42093 -27.0817,-6.12877 -21.05281,-2.93568 -42.42809,-1.96517 -63.45311,0.62993 -4.90072,0.72389 -9.81413,1.36651 -14.70215,2.17166 -9.74804,1.60569 -15.65819,2.85591 -25.07075,4.97567 -2.63766,0.59402 -13.04293,2.73294 -15.98274,4.0193 6.7951,1.57968 15.01064,0.29136 20.38529,4.73904 8.34514,6.90584 12.97147,17.45844 18.01966,27.04216 1.13472,2.15421 0.0175,4.86984 0.0721,7.30403 0.007,0.30586 0.0426,-0.61046 0.0712,-0.91506 0.1611,-1.71628 0.27393,-2.53559 0.49546,-4.39258 2.05545,-15.61778 4.51745,-31.18594 7.52457,-46.64976 6.65103,-32.38745 15.00775,-64.45277 19.62423,-97.23266 2.43978,-18.59702 4.61387,-37.23275 6.12433,-55.93127 2.94831,-52.95099 -71.9357,-57.12052 -74.88401,-4.16953 z"/>
</svg>
