<?xml version="1.0" ?>
<svg xmlns="http://www.w3.org/2000/svg" viewBox="0 0 1000 1000">
<path d="m 128.11416,193.86657 c 1.89561,21.47382 5.40017,42.76815 6.828,64.2936 0.54856,8.26988 0.76657,16.55837 1.14986,24.83755 0.18306,35.60927 -0.33972,71.30141 -3.07198,106.82423 -1.13455,14.75053 -2.63927,29.47413 -4.37069,44.16655 -4.32845,36.73027 -8.74496,62.3747 -14.5274,99.10463 -12.27074,71.06484 -26.844295,141.77421 -44.51873,211.70044 -8.27365,32.73345 -17.363113,65.02778 -26.337951,97.56881 -4.205402,14.77083 -8.410803,29.54165 -12.616204,44.31248 -14.520498,51.00642 57.613476,71.54151 72.133975,20.53509 v 0 c 4.26123,-14.97007 8.52246,-29.94014 12.78369,-44.91022 9.30722,-33.7577 18.36316,-65.91569 26.94114,-99.90184 18.14593,-71.89463 33.12421,-144.58869 45.70367,-217.65429 6.0392,-38.44884 10.59636,-64.8986 15.0796,-103.4337 6.24991,-53.72027 8.51106,-107.82242 7.71569,-161.88568 -0.45787,-9.35482 -0.7381,-18.72002 -1.37361,-28.06446 -1.40956,-20.72585 -4.53606,-41.25748 -6.64906,-61.90714 -3.12114,-52.94109 -77.99114,-48.52713 -74.87,4.41395 z"/>
<path d="m 243.51704,161.0043 c 18.4692,-3.8835 37.21867,-5.99897 55.99487,-7.69968 19.24541,-1.62633 38.54279,-2.34893 57.85161,-2.09592 3.09912,0.11212 6.20744,0.0969 9.30421,0.28556 0.0413,0.003 -0.0776,0.04 -0.11877,0.036 -0.82282,-0.0784 -1.68296,-0.0101 -2.46354,-0.28193 -4.34437,-1.51265 -8.56277,-3.36535 -12.84415,-5.04802 -14.2316,1.76246 -8.52259,-11.1108 -13.41914,-16.09076 -0.5029,-0.51147 0.085,1.43251 0.1585,2.14603 0.25146,2.44243 0.58823,4.87594 0.81613,7.32068 1.01273,10.86359 1.19997,15.795 1.89765,27.32787 2.19841,43.02428 3.20292,86.10782 2.87373,129.1878 -0.0853,11.16444 -0.31303,22.32733 -0.46955,33.491 -1.75259,77.03987 -5.24767,154.0273 -8.24911,231.02559 -2.52754,71.23344 -4.76268,142.4744 -7.81709,213.688 -1.5545,30.35135 -2.85389,60.74232 -5.82025,90.99922 -1.08273,11.04392 -1.72515,15.29859 -3.11645,25.81654 -0.39497,2.39383 -1.38976,9.79607 -2.51501,12.90113 -0.12212,0.33699 -0.30109,-0.7455 -0.1407,-1.06604 1.64323,-3.28396 2.85329,-6.98235 5.46144,-9.56733 5.90209,-5.84966 9.99822,-7.26573 16.27388,-9.85559 -22.49871,-8.14859 -44.54759,-17.96552 -64.91348,-30.61105 -6.10501,-3.7907 -11.93725,-8.00402 -17.90587,-12.00603 -44.18043,-29.3358 -85.66752,33.14477 -41.48709,62.48057 v 0 c 7.50215,4.94257 14.84133,10.14186 22.50644,14.82772 13.30584,8.13419 26.38699,14.77687 40.50514,21.273 10.09356,4.6443 24.61249,10.83916 35.36439,14.17429 5.61071,1.74039 11.38744,2.89174 17.08116,4.3376 6.79992,0.15885 13.77172,2.00402 20.39977,0.47654 8.45779,-1.94915 16.7805,-5.49301 23.75938,-10.65332 14.33681,-10.60089 17.45352,-30.74751 19.96958,-46.92711 1.58314,-12.08785 2.23854,-16.40037 3.47603,-29.11021 3.05227,-31.34857 4.43815,-62.83079 6.03278,-94.27667 3.05746,-71.31095 5.30196,-142.64903 7.82903,-213.97995 3.0258,-77.62375 6.55127,-155.23661 8.29876,-232.90284 0.15894,-11.49463 0.39179,-22.98848 0.47681,-34.4839 0.33001,-44.62225 -0.71712,-89.24856 -3.01328,-133.81213 -0.87514,-14.20059 -1.4558,-28.53442 -3.63072,-42.61968 -0.82773,-5.36052 -2.71896,-15.85129 -5.68307,-20.389818 -3.68692,-5.645278 -8.77136,-10.242731 -13.15704,-15.364096 -4.92632,-2.116237 -9.73405,-4.533268 -14.77898,-6.348711 -1.59226,-0.572984 -3.33742,-0.56982 -5.01715,-0.775025 -4.96409,-0.606437 -10.00267,-0.35969 -14.98428,-0.619069 -21.90445,-0.264001 -43.79879,0.531729 -65.62949,2.402384 -20.01149,1.849042 -40.06092,3.933549 -59.74047,8.137804 -52.50234,7.483589 -41.91895,81.733111 10.58339,74.249521 z"/>
<path d="m 211.17479,366.29343 c 20.42484,-0.20928 40.84386,-0.73935 61.26954,-0.97437 20.48033,-0.062 40.95946,0.0126 61.43918,-0.17979 53.03062,-0.50278 52.31959,-75.49941 -0.71103,-74.99663 v 0 c -20.53108,0.19648 -41.06168,0.10608 -61.59337,0.18141 -20.13725,0.23293 -40.26828,0.74049 -60.40432,0.96938 -53.03301,0 -53.03301,75 0,75 z"/>
<path d="m 178.52543,578.40835 c 28.92077,-4.14354 57.06116,-12.0929 85.08987,-20.11408 25.82286,-7.51749 51.61671,-15.13411 77.41654,-22.73015 50.87384,-14.97838 29.69121,-86.92486 -21.18263,-71.94648 v 0 c -25.62769,7.54536 -51.24954,15.11083 -76.89959,22.57996 -24.30195,6.97797 -48.6571,13.98442 -73.70626,17.78735 -52.6253,6.56341 -43.34323,80.98681 9.28207,74.4234 z"/>
<path d="m 477.10851,252.96547 c 3.6222,25.53159 3.25611,51.42784 3.12317,77.14485 -0.34165,9.62978 -0.53333,19.26606 -1.02495,28.88936 -1.12268,21.97615 -3.20789,46.75089 -5.00687,68.57725 -1.80815,21.93751 -4.71742,57.19738 -7.14582,78.90591 -1.53109,13.68707 -3.46868,27.32561 -5.20302,40.98842 -8.37197,55.78379 -18.80939,111.33018 -34.13248,165.66037 -9.23139,32.7312 -12.29434,40.05059 -23.29784,71.67303 -17.38776,50.10155 53.46653,74.69157 70.8543,24.59001 v 0 c 11.80056,-34.08539 15.136,-42.11417 25.01533,-77.33332 16.11901,-57.46315 27.19465,-116.18332 35.96743,-175.17533 1.81668,-14.40162 3.8397,-28.77872 5.45004,-43.20487 2.44831,-21.93307 5.42332,-57.87963 7.25224,-80.11127 2.8234,-34.32018 5.72614,-68.67141 6.27088,-103.12363 0.11409,-29.65372 0.36239,-59.49495 -3.99836,-88.90997 -8.08166,-52.41361 -82.2057,-40.98443 -74.12405,11.42919 z"/>
<path d="m 539.40125,273.58907 c 15.72123,-6.91601 31.91678,-12.70652 48.42823,-17.43386 5.37724,-1.53954 10.80558,-2.89466 16.20837,-4.34199 29.67045,-7.34328 59.8654,-12.25808 90.22001,-15.66563 7.23998,-0.77565 14.48753,-1.4878 21.74801,-2.04337 1.60867,-0.1231 5.00373,-0.60118 6.78305,-0.37431 -7.96732,0.0889 -15.43645,-2.9726 -21.58881,-8.05037 -2.84006,-2.34401 -4.88202,-5.52284 -7.11492,-8.45106 -0.71412,-0.9365 -0.62031,-2.61625 -1.69378,-3.10067 -0.73259,-0.3306 0.10327,1.60414 0.1549,2.40621 0.20943,2.35884 0.47467,4.71338 0.62829,7.07651 0.97863,15.05474 0.9413,30.17954 0.83985,45.25702 -0.12316,18.30266 -0.44757,29.81581 -0.85006,48.45268 -1.43446,52.84879 -3.7955,105.68615 -3.90482,158.56374 -0.0231,11.1798 0.15885,22.35909 0.23827,33.53863 1.20468,51.86297 3.81521,103.89445 11.79659,155.21893 1.43228,9.21026 3.25122,18.35622 4.87683,27.53433 6.56095,31.62342 15.75305,62.80398 28.95139,92.32985 7.56837,16.93112 9.73798,19.83697 18.7842,35.64143 11.80651,19.42869 26.67927,36.6277 43.34684,52.01091 7.87662,7.26966 11.40054,9.93357 19.52946,16.53831 11.86518,9.31573 24.41394,17.76016 37.68187,24.94078 1.64575,0.76427 3.17184,1.87335 4.93724,2.29281 22.19412,5.27336 27.35894,5.99463 49.09497,-14.38604 5.03581,-4.7218 5.88369,-12.53553 7.95752,-19.1199 0.86477,-2.74566 6.3203,-34.19498 6.50151,-35.21922 4.80828,-29.90283 10.6497,-59.60866 16.62068,-89.29503 10.44678,-51.99389 -63.08368,-66.76787 -73.53047,-14.77398 v 0 c -6.07337,30.25792 -12.04168,60.53093 -16.94397,91.00675 -1.10368,6.24193 -2.2267,12.48047 -3.31105,18.72579 -0.54058,3.11345 -3.33264,6.73172 -1.56371,9.35024 1.28863,1.90753 2.15543,-4.37313 4.15245,-5.51818 12.24799,-7.02276 27.02653,-18.5707 41.37344,-9.24264 -9.18675,-4.71533 -17.55952,-10.91867 -25.80687,-17.07599 -17.18389,-13.81459 -33.52821,-28.76971 -45.11663,-47.78414 -6.89022,-11.7474 -8.60552,-14.00958 -14.41517,-26.78991 -11.14679,-24.52121 -18.82578,-50.49196 -24.40839,-76.79798 -1.46422,-8.14952 -3.10608,-16.26912 -4.39265,-24.44856 -7.57539,-48.16114 -9.93335,-97.01265 -11.11808,-145.68571 -0.0803,-10.71707 -0.26121,-21.43386 -0.24097,-32.15121 0.0994,-52.61935 2.48349,-105.19792 3.89213,-157.7889 0.50442,-23.47768 1.08399,-46.95629 0.84312,-70.44188 -0.11247,-10.96564 -0.32593,-21.4687 -1.19089,-32.37723 -0.31777,-4.00758 -0.85778,-7.99442 -1.28667,-11.99163 -1.38624,-7.2629 -2.30607,-15.1484 -6.02404,-21.76156 -2.55402,-4.54282 -5.483,-9.01393 -9.28305,-12.58041 -8.0985,-7.60072 -18.29543,-10.80207 -29.06889,-11.04989 -12.14098,0.24326 -24.2211,1.704 -36.29543,2.88862 -34.09385,3.87082 -68.01257,9.40692 -101.31588,17.7746 -6.26964,1.69776 -12.56978,3.28669 -18.80893,5.0933 -18.76906,5.43475 -37.20069,12.02112 -55.10624,19.84615 -48.96973,20.35842 -20.17858,89.61208 28.79115,69.25366 z"/>
</svg>
