<?xml version="1.0" ?>
<svg xmlns="http://www.w3.org/2000/svg" width="1000" height="1000">
<path d="m 147.55893,211.327 c 3.8323,30.8068 1.73261,62.01192 0.0494,92.88609 -4.31497,55.2785 -8.92675,110.56 -16.62175,165.49015 -5.26084,37.55405 -9.47602,60.60476 -15.86457,98.12007 -11.49342,62.06674 -24.94005,123.93032 -44.039849,184.15213 -6.532157,20.59594 -18.418098,53.47758 -25.73082,74.03793 -17.766356,49.96856 52.899853,75.09398 70.666209,25.12543 v 0 c 8.17101,-22.98882 19.73297,-54.91862 26.98914,-77.90631 19.91152,-63.08013 34.06555,-127.82903 46.05231,-192.82662 6.63535,-39.01541 10.87535,-62.17044 16.3345,-101.28934 7.91536,-56.71954 12.70535,-113.79712 17.10668,-170.87708 1.9173,-36.1294 4.12134,-72.63979 -0.86305,-108.63515 -8.2892,-52.38119 -82.36739,-40.65849 -74.07819,11.7227 z"/>
<path d="m 257.95573,167.84759 c 1.48592,-0.16826 2.97574,-0.30499 4.45775,-0.5048 8.27795,-1.11602 16.50159,-2.60542 24.78158,-3.71459 9.92439,-1.32944 13.94833,-1.6762 24.12262,-2.74765 21.71639,-2.283 43.54099,-3.48941 65.37613,-3.21593 3.2618,0.14096 6.46911,0.20256 9.70915,0.57973 0.5123,0.0596 2.03001,0.25808 1.51656,0.30688 -0.71036,0.0675 -1.44272,-0.0438 -2.12614,-0.24895 -8.58395,-2.57702 -7.01519,-3.12904 -16.06184,-10.42891 -10.71936,-20.628 -4.03981,-4.74854 -7.3529,-18.14179 -0.0769,-0.31078 -0.17645,0.61753 -0.22213,0.9344 -0.22098,1.53271 -0.40181,3.07109 -0.57719,4.60969 -1.1786,10.34008 -0.87059,8.01732 -1.72256,19.98242 -1.81749,34.79685 0.0802,69.63216 0.94017,104.42504 0.23874,9.65897 0.39314,19.31985 0.58971,28.97977 0.92547,71.39677 -3.2136,142.72148 -6.94109,213.98762 -3.89086,72.2063 -6.45409,144.47167 -9.14024,216.72964 -2.10665,47.92082 -3.78422,95.89636 -8.17596,143.67528 -1.69623,10.45919 -1.90327,21.76798 -6.51925,31.56537 -0.4492,0.95341 -0.85866,2.64651 -1.90536,2.52321 -0.90669,-0.10681 0.0122,-1.94681 0.55272,-2.68255 1.68334,-2.29126 3.95032,-4.09009 5.92549,-6.13514 1.19752,-0.8475 3.62553,-1.07579 3.59257,-2.5425 -0.0313,-1.39381 -2.43934,-1.35362 -3.69379,-1.96195 -3.07348,-1.49044 -6.24247,-2.78277 -9.2864,-4.33264 -8.8651,-4.51381 -21.21277,-11.38713 -29.21017,-16.91809 -4.90057,-3.38921 -9.41291,-7.30796 -14.11937,-10.96194 -42.24305,-32.06283 -87.58674,27.67786 -45.34369,59.74069 v 0 c 6.81503,5.09093 13.40109,10.5037 20.4451,15.27278 9.8421,6.6635 28.7256,17.28638 39.65701,22.21129 12.44782,5.6081 28.02145,11.53498 41.95948,11.94875 7.85443,0.23318 15.61613,-1.76695 23.42419,-2.65042 7.03465,-4.03279 14.797,-7.00208 21.10396,-12.09836 4.75408,-3.84149 8.21225,-9.12582 11.5217,-14.26449 2.82197,-4.38176 4.85663,-9.24782 6.74849,-14.10417 5.94336,-15.25644 7.87776,-31.67382 9.83639,-47.78763 0.57889,-6.37424 1.23343,-12.74207 1.73666,-19.12273 3.37478,-42.79 4.67618,-85.72455 6.69846,-128.58861 2.67212,-71.88082 5.21903,-143.76912 9.08964,-215.59855 3.82199,-73.07986 8.02736,-146.22097 7.02785,-219.43467 -0.20221,-9.88629 -0.36237,-19.77353 -0.60663,-29.65886 -0.79909,-32.33907 -2.59057,-64.71329 -1.08506,-97.06047 0.62485,-9.48534 0.36734,-7.40703 1.34238,-16.00963 0.91013,-8.02986 2.67945,-17.92939 0.4128,-25.76839 -1.6854,-5.82878 -4.91551,-11.09499 -7.37326,-16.64248 -4.23644,-3.809403 -8.04556,-8.15586 -12.70932,-11.428204 -2.90145,-2.035811 -6.37885,-3.128701 -9.72068,-4.309867 -9.28848,-3.283006 -19.43376,-3.046531 -29.11062,-3.586016 -24.74648,-0.242988 -49.48204,0.999243 -74.09396,3.627655 -17.12884,1.81985 -34.22441,3.8763 -51.21038,6.770696 -52.8775,4.058394 -47.13806,78.838466 5.73943,74.780066 z"/>
<path d="m 208.56883,381.24406 c 18.96715,-0.10759 37.86612,-2.14724 56.74665,-3.77075 12.32944,-1.02486 24.66548,-1.96256 37.00459,-2.86165 52.89262,-3.85638 47.43887,-78.65783 -5.45374,-74.80145 v 0 c -12.6631,0.92381 -25.32321,1.885 -37.97629,2.93885 -16.74355,1.43975 -33.50478,3.29592 -50.32121,3.495 -53.03301,0 -53.03301,75 0,75 z"/>
<path d="m 195.44918,557.89992 c 17.81055,-2.86434 35.63673,-5.56713 53.53615,-7.81738 12.77563,-1.74041 25.64924,-2.17122 38.51773,-2.47894 53.01499,-1.38251 51.05982,-76.35702 -1.95517,-74.97451 v 0 c -15.35221,0.4272 -30.71068,0.98404 -45.95348,3.0437 -19.10596,2.41974 -38.14155,5.27844 -57.15075,8.36336 -52.22957,9.19629 -39.22405,83.06006 13.00552,73.86377 z"/>
<path d="m 591.77645,286.32294 c 26.29746,-4.90063 52.75065,-8.90632 79.21118,-12.80822 34.16792,-4.76337 68.55751,-8.15624 103.03868,-9.49793 5.80915,-0.22604 11.62326,-0.29872 17.43489,-0.44808 12.82239,-0.43239 25.57464,0.64848 38.29822,2.02647 52.74714,5.49903 60.52395,-69.09668 7.77681,-74.59572 v 0 c -15.97069,-1.61691 -31.97283,-2.94125 -48.05257,-2.40467 -6.43803,0.17374 -12.8788,0.26543 -19.3141,0.52122 -36.85419,1.46488 -73.61008,5.09724 -110.12928,10.20197 -28.34968,4.18514 -56.70605,8.43645 -84.85012,13.86199 -51.71989,11.72828 -35.1336,84.87125 16.58629,73.14297 z"/>
<path d="m 487.5903,527.28013 c 23.39339,-1.67235 46.55276,-5.57504 69.79171,-8.59446 8.02566,-1.04276 16.06434,-1.98271 24.09652,-2.97406 51.15635,-6.01895 102.55723,-10.12364 154.07251,-11.03124 10.93818,-0.19271 21.87944,-0.11573 32.81917,-0.17359 38.53968,0.42258 77.11017,1.89694 115.44667,6.03383 16.84486,1.81772 25.03611,3.13109 41.39141,5.48359 5.2021,0.81656 10.40419,1.63312 15.60629,2.44968 52.39317,8.21316 64.00832,-65.88196 11.61517,-74.09512 v 0 c -5.52508,-0.86504 -11.05016,-1.73007 -16.57524,-2.5951 -17.92053,-2.56263 -26.50751,-3.93959 -45.01888,-5.91391 -40.81136,-4.35271 -81.86391,-5.95694 -122.88832,-6.36178 -11.55791,0.069 -23.11755,-0.004 -34.67374,0.20698 -53.8285,0.98284 -107.53938,5.26389 -160.99295,11.5628 -8.37324,1.03589 -16.75297,2.02056 -25.11972,3.10766 -21.30456,2.76813 -42.53365,6.34401 -63.96514,8.02358 -52.94189,3.10741 -48.54735,77.97856 4.39454,74.87114 z"/>
<path d="m 666.09622,357.49414 c 0.42601,21.65637 0.80145,43.31367 1.19546,64.97068 1.32405,61.16981 0.41887,122.36201 -0.35446,183.53316 -0.93479,75.96888 -6.64005,151.75777 -12.28791,227.48784 -0.92928,11.9634 -1.85855,23.92679 -2.78783,35.89018 -4.10681,52.87376 70.66798,58.68165 74.77478,5.8079 v 0 c 0.93513,-12.04028 1.87026,-24.08056 2.80539,-36.12083 5.76138,-77.27093 11.54875,-154.60302 12.48959,-232.11759 0.78213,-61.94175 1.68944,-123.90458 0.34803,-185.84493 -0.38574,-21.20228 -0.73823,-42.40535 -1.18305,-63.60641 0,-53.03301 -75,-53.03301 -75,0 z"/>
</svg>
