<?xml version="1.0" ?>
<svg xmlns="http://www.w3.org/2000/svg" width="1000" height="1000">
<path d="m 121.34233,243.73047 c 4.65126,21.76406 10.18404,43.36158 14.18216,65.2637 1.55774,8.53346 2.79019,17.12311 4.18528,25.68466 1.0618,9.83622 2.42739,19.64438 3.1854,29.50866 3.65661,47.58437 1.35168,96.54123 -5.53002,143.73084 -1.92331,13.18866 -4.58303,26.25939 -6.87455,39.38909 -10.40493,52.70037 -25.60499,104.39844 -44.236437,154.76168 -11.260161,30.43769 -15.722334,39.71767 -28.396309,69.03648 -4.754664,9.80753 -9.509329,19.61506 -14.263994,29.4226 -23.084428,47.74525 44.437557,80.39156 67.52198,32.64631 v 0 c 5.20116,-10.78398 10.40232,-21.56795 15.60347,-32.35192 13.63291,-31.64093 18.24776,-41.22645 30.36529,-74.09481 19.99108,-54.22507 36.21492,-109.89977 47.30854,-166.63696 2.49343,-14.5328 5.39416,-29.00157 7.4803,-43.59841 7.57474,-53.00062 9.86843,-107.093 5.57394,-160.48836 -0.90006,-11.19079 -2.48539,-22.31588 -3.72808,-33.47382 -1.57823,-9.55196 -2.98801,-19.13328 -4.73468,-28.65587 -4.28924,-23.38424 -10.12647,-46.47269 -15.23209,-69.68265 -13.81601,-51.20174 -86.2262,-31.66296 -72.4102,19.53878 z"/>
<path d="m 259.51902,192.57509 c 11.80386,-3.24178 23.51685,-6.88218 35.51766,-9.36327 9.39697,-1.94276 12.0078,-2.04319 21.6096,-3.18882 16.0855,-1.77641 32.26116,-1.66325 48.39148,-0.78774 2.7398,0.47603 5.64722,0.0276 8.37603,0.63238 0.21294,0.0472 -0.43848,0.008 -0.65375,-0.0271 -0.79645,-0.1298 -1.61399,-0.19956 -2.37548,-0.46662 -2.51601,-0.88239 -4.95102,-1.9807 -7.42653,-2.97106 -12.8387,-10.9678 -9.02995,-5.47017 -16.14759,-19.62702 -0.28127,-0.55945 -0.56533,-2.39511 -0.62443,-1.77172 -0.14749,1.55581 0.23047,3.11707 0.34917,4.67534 0.22347,2.93362 0.45156,5.86688 0.67733,8.80033 0.31182,4.11619 0.62363,8.23238 0.93544,12.34857 3.35072,47.49091 5.67738,95.04445 7.64433,142.61011 2.80292,68.77693 1.16725,137.61234 -0.10972,206.40138 -1.04544,63.65103 -1.91114,127.30458 -3.55073,190.9439 -1.00405,36.41978 -2.57307,72.83673 -6.18485,109.09885 -0.89976,7.82383 -1.91995,15.63884 -3.27776,23.39798 -0.29758,1.70049 -0.69179,5.39591 -1.70508,7.18825 3.12333,-10.16944 10.76193,-15.84632 20.64413,-20.08258 3.45759,-1.48219 7.46914,-0.91952 11.18312,-1.51796 0.3726,-0.06 1.34956,-0.23777 1.03838,-0.4513 -1.90572,-1.30772 -4.13673,-2.06275 -6.2051,-3.09412 -22.81396,-11.15591 -44.32114,-24.65252 -65.74761,-38.21413 -44.83073,-28.33206 -84.8983,35.06817 -40.06757,63.40023 v 0 c 7.34513,4.63552 14.62578,9.37481 22.03538,13.90656 16.88583,10.32746 34.17768,19.99133 51.90606,28.79743 7.41691,3.37637 18.16643,8.96046 26.45328,9.90432 6.34749,0.72296 13.02869,1.40806 19.16181,-0.38028 14.7355,-4.29667 20.62221,-10.20961 27.76315,-21.84271 1.41901,-2.31167 2.15638,-4.97792 3.23458,-7.46688 0.59453,-1.96467 1.25364,-3.91095 1.78361,-5.89402 3.51213,-13.14194 4.58694,-26.83086 6.43417,-40.25595 3.75542,-38.08235 5.5079,-76.31575 6.52545,-114.56344 1.64186,-63.8188 2.51791,-127.65165 3.56267,-191.48222 1.3046,-70.28673 2.94075,-140.62051 0.0585,-210.89411 -2.00492,-48.42115 -4.37461,-96.83013 -7.79449,-145.1747 -0.20231,-2.67052 -1.32661,-17.57978 -1.63834,-21.47685 -0.8922,-11.15369 -1.78795,-21.59805 -8.79999,-31.18378 -3.22876,-4.41383 -8.06337,-7.38979 -12.09505,-11.08468 -3.18663,-1.40008 -6.29627,-2.99042 -9.55988,-4.20022 -6.56261,-2.43272 -14.88297,-2.22222 -21.80116,-2.87538 -20.56167,-1.08434 -41.1838,-1.08783 -61.67395,1.25738 -5.06995,0.65209 -10.15963,1.1658 -15.20985,1.95629 -16.661,2.60786 -32.99377,6.99817 -49.12081,11.85333 -51.73618,11.65622 -35.2518,84.82223 16.48438,73.16601 z"/>
<path d="m 217.40074,374.98176 c 13.37272,-2.56998 27.10123,-2.49675 40.66436,-2.49476 13.5287,0.022 27.00075,1.03413 40.41659,2.68691 52.65237,6.34247 61.62198,-68.11924 8.9696,-74.46171 v 0 c -16.45129,-1.94779 -32.96296,-3.23871 -49.54513,-3.22503 -18.77702,0.0739 -37.72959,0.2789 -56.18668,4.15225 -51.86086,11.08833 -36.1796,84.43066 15.68126,73.34234 z"/>
<path d="m 200.25006,532.05494 c 23.40713,-5.3488 46.792,-10.79634 70.1931,-16.17234 24.16756,-5.55397 11.81085,-2.74092 37.07169,-8.4323 51.73595,-11.65728 35.25006,-84.82295 -16.48588,-73.16567 v 0 c -25.57108,5.7622 -13.11225,2.92545 -37.37835,8.50207 -23.03122,5.29105 -46.04864,10.6427 -69.08151,15.92584 -51.86091,11.08811 -36.17996,84.43051 15.68095,73.3424 z"/>
<path d="m 531.95142,353.93108 c 2.26808,-0.92121 6.54185,-2.6716 8.27484,-3.26523 7.01502,-2.40296 15.57198,-4.64763 22.54403,-6.32917 17.01527,-4.1038 23.03283,-5.06777 40.88652,-8.57292 44.39476,-7.93448 89.13832,-14.39254 134.14773,-17.5826 7.73237,-0.54804 15.48122,-0.83161 23.22184,-1.24742 28.61433,-1.37265 57.16005,1.02384 85.55355,4.29651 6.03466,0.69856 12.05709,1.50215 18.09455,2.17694 2.20613,0.24658 2.98525,0.22349 2.03542,0.24173 -0.90936,-0.1644 -1.86145,-0.17241 -2.72809,-0.49319 -9.74023,-3.60531 -11.79548,-4.13137 -18.92263,-11.97997 -1.58456,-1.74496 -2.54637,-3.96746 -3.78876,-5.97051 -0.26004,-0.41924 -0.32138,-1.58877 -0.71738,-1.29454 -0.47163,0.35042 0.0603,1.17359 0.0904,1.76038 1.02422,18.23111 -0.1345,36.64471 -2.35953,54.75513 -0.72031,5.86289 -1.71997,11.68807 -2.57995,17.53211 -3.33576,18.86201 -8.60363,37.31186 -14.59458,55.48295 -3.1241,9.47566 -8.01964,23.47753 -12.3069,32.71304 -2.05768,4.43259 -4.58362,8.63239 -6.87543,12.94859 -24.3522,47.11126 42.27317,81.55047 66.62537,34.43921 v 0 c 3.26139,-6.4269 6.7978,-12.72148 9.78415,-19.28069 4.92453,-10.81619 10.75646,-27.4256 14.41378,-38.6262 7.15571,-21.9145 13.32686,-44.18772 17.18139,-66.94205 1.00422,-7.04633 2.16695,-14.07189 3.01268,-21.139 1.29249,-10.80037 2.33742,-25.00716 2.79175,-35.99871 0.37213,-9.0031 0.48687,-18.38157 -0.0507,-27.4013 -0.2087,-3.50181 -0.6714,-6.98385 -1.00711,-10.47578 -1.11619,-6.09312 -1.80712,-11.94834 -4.33234,-17.68883 -6.61313,-15.0334 -16.36881,-23.42083 -32.6504,-26.5317 -7.49917,-1.02591 -15.04162,-1.73216 -22.54434,-2.73621 -32.59357,-3.74286 -65.37231,-6.29594 -98.20962,-4.67659 -8.53764,0.47206 -17.08419,0.80396 -25.61294,1.41619 -47.70151,3.42426 -95.12461,10.26114 -142.17071,18.71729 -29.0329,5.73922 -58.54514,11.05338 -85.998,22.49897 -48.96966,20.35858 -20.17828,89.61215 28.79138,69.25357 z"/>
<path d="m 629.11297,331.08186 c 1.32907,21.2246 1.00857,42.53324 0.76237,63.78727 -0.34298,24.96914 -1.39998,49.91814 -2.53978,74.86081 -2.42039,52.97775 72.50146,56.40069 74.92185,3.42295 v 0 c 1.17841,-25.79877 2.26278,-51.60442 2.61307,-77.43057 0.25834,-23.10317 0.56047,-46.25888 -0.90422,-69.32926 -3.31548,-52.92927 -78.16877,-48.24047 -74.85329,4.6888 z"/>
<path d="m 550.13677,531.08005 c 20.87501,-3.75432 41.56167,-8.487 62.45186,-12.16957 6.91851,-1.2196 13.8645,-2.27781 20.79675,-3.41672 37.33854,-5.57537 75.12253,-7.82027 112.85674,-7.87687 6.34724,-0.01 12.69373,0.13999 19.0406,0.20999 16.65654,0.29868 33.27454,1.42553 49.86068,2.91522 52.82282,4.71697 59.49363,-69.98578 6.67081,-74.70275 v 0 c -18.54445,-1.64753 -37.12403,-2.89764 -55.74612,-3.20836 -6.94105,-0.0692 -13.88178,-0.22524 -20.82315,-0.20747 -41.48584,0.10621 -83.01681,2.672 -124.05682,8.8687 -7.52672,1.24428 -15.06756,2.40598 -22.58016,3.73285 -20.61372,3.64078 -41.03308,8.28158 -61.62683,12.0178 -52.21077,9.30244 -39.05513,83.13962 13.15564,73.83718 z"/>
<path d="m 480.25834,340.12696 c 0.63633,16.88654 -0.73871,33.76339 -2.09157,50.58141 -2.67491,27.25255 -6.26329,54.40398 -9.11122,81.63818 -2.35681,22.53783 -2.42868,24.80263 -4.33773,47.54326 -2.85024,38.20034 -4.86702,76.54212 -3.94798,114.86309 0.16812,7.00985 0.55852,14.0126 0.83778,21.0189 1.50112,24.87892 4.51376,49.78156 11.34125,73.81481 3.78878,13.33679 5.33141,16.21714 10.4139,28.78143 7.96072,17.58141 19.23815,33.28132 34.24002,45.534 9.7233,7.94143 13.23392,9.25248 24.22176,15.37601 28.06353,13.42266 59.00229,17.89366 89.52824,21.90103 36.47758,4.44076 73.25617,4.38226 109.92634,3.53899 31.09426,-0.92695 62.07141,-3.85408 92.99816,-7.05706 14.86186,-1.6452 29.78451,-3.02445 44.43737,-6.08074 14.59228,-3.96424 23.88667,-10.48221 31.82481,-23.9812 7.54139,-12.8243 8.5114,-32.80693 9.98029,-47.2136 1.76476,-23.8853 2.9939,-47.80613 5.80475,-71.60393 1.09268,-9.25105 2.52568,-18.45871 3.78852,-27.68807 7.14033,-52.55012 -67.17677,-62.64807 -74.3171,-10.09795 v 0 c -1.3712,10.15619 -2.92359,20.28955 -4.1136,30.46855 -2.78129,23.79054 -4.12581,47.69286 -5.80187,71.57468 -0.40336,4.30248 -0.78972,8.60659 -1.21006,12.90745 -0.1907,1.95127 -1.34714,4.02665 -0.62304,5.8486 0.38681,0.97328 1.24269,-1.69523 1.97689,-2.44211 4.84637,-4.93012 9.34278,-10.20931 16.72333,-11.05306 -3.58001,0.88651 -7.25782,1.33845 -10.90945,1.82519 -8.41317,1.12142 -16.85365,2.0233 -25.29132,2.93565 -28.93877,3.00053 -57.92186,5.77732 -87.01669,6.67799 -32.84894,0.77796 -65.79992,0.94984 -98.48861,-2.93094 -21.55626,-2.7833 -43.51956,-5.44944 -63.81967,-13.65081 -1.80187,-0.8713 -3.6502,-1.65243 -5.4056,-2.6139 -8.84272,-4.84334 -14.78001,-11.68601 -19.11621,-20.76398 -3.41431,-8.03779 -4.46887,-9.934 -7.05211,-18.62718 -5.63828,-18.97405 -7.81217,-38.75024 -9.10251,-58.43396 -0.25954,-6.21417 -0.62208,-12.4249 -0.77863,-18.64252 -0.90657,-36.00507 1.03079,-72.03143 3.6892,-107.92377 1.81102,-21.66202 1.89575,-24.03607 4.14479,-45.55803 2.92622,-28.00218 6.64491,-55.91627 9.33033,-83.94405 1.7346,-22.06826 3.63173,-44.33683 1.66643,-66.45638 -7.02442,-52.56574 -81.36361,-42.63172 -74.33919,9.93402 z"/>
</svg>
