<?xml version="1.0" ?>
<svg xmlns="http://www.w3.org/2000/svg" viewBox="0 0 1000 1000">
<path d="m 129.93556,213.26727 c 8.89346,30.62165 7.26659,62.72935 6.58984,94.21733 -1.36229,62.1396 -9.25684,123.86985 -18.43106,185.26655 -2.79113,18.67906 -5.63097,37.35438 -8.88732,55.95799 -3.28102,18.74456 -7.14823,37.38178 -10.72235,56.07267 -4.214964,18.4185 -8.100686,36.91547 -12.644893,55.25552 -4.467786,18.03163 -9.33281,35.96549 -14.386675,53.84171 -9.068959,32.07816 -19.536516,65.8432 -30.903137,97.24284 -5.049871,13.94998 -10.751611,27.6553 -16.127417,41.48295 -19.1755811,49.44489 50.750052,76.56325 69.925633,27.11836 v 0 c 5.753949,-14.8708 11.849809,-29.61379 17.261849,-44.61241 11.82086,-32.75965 22.87818,-68.4424 32.3095,-101.90256 5.28477,-18.74914 10.36834,-37.55943 15.03744,-56.4713 4.74407,-19.21553 8.79832,-38.59484 13.19748,-57.89226 3.70853,-19.46005 7.71604,-38.86549 11.12558,-58.38015 3.33193,-19.07041 6.24066,-38.2136 9.09641,-57.36111 9.59508,-64.33407 17.72258,-129.02622 19.13424,-194.13298 0.2175,-11.86881 0.7323,-23.7359 0.65249,-35.60643 -0.17493,-26.01657 -2.30655,-52.14937 -9.22989,-77.31102 -12.17234,-51.61719 -85.17007,-34.40288 -72.99772,17.2143 z"/>
<path d="m 264.39444,186.85319 c 20.20228,-7.61877 41.19686,-12.74807 62.23934,-17.41143 18.62002,-3.8741 37.57535,-6.49954 56.61189,-5.37414 0.65629,0.0784 4.08291,0.38676 5.21903,0.78238 0.21356,0.0744 -0.46052,0.0717 -0.67833,0.0109 -1.50697,-0.42069 -3.10538,-0.673 -4.46525,-1.44676 -3.30018,-1.87775 -6.75096,-3.71564 -9.39579,-6.43997 -2.96864,-3.05787 -4.76521,-7.06727 -7.14781,-10.6009 -0.66973,-2.32653 -1.07727,-4.74514 -2.0092,-6.9796 -0.19314,-0.46308 -0.23667,0.97857 -0.28537,1.47795 -0.23826,2.44285 -0.39338,4.89314 -0.57475,7.34087 -1.18917,16.04925 -2.04158,32.10349 -2.84314,48.17649 -2.55034,58.30788 -3.09564,116.67995 -4.2881,175.02597 -1.6388,75.50073 -3.54283,150.99505 -6.02647,226.47285 -1.85065,63.50729 -6.18664,126.89384 -10.32856,190.28039 -2.44354,29.07505 -2.93027,58.49735 -8.26142,87.25631 -0.27406,0.59578 -0.99112,2.42098 -0.82217,1.78733 1.93584,-7.26073 3.09338,-9.1517 10.19866,-14.9956 2.27027,-1.86723 5.63011,-2.08102 7.86252,-3.99336 0.55375,-0.47435 -1.17026,-0.91952 -1.86348,-1.14557 -2.95528,-0.96368 -6.00737,-1.60032 -9.01105,-2.40049 -23.4077,-6.7763 -46.6057,-14.56887 -69.02557,-24.16257 -6.54741,-2.80171 -12.94289,-5.94596 -19.41433,-8.91894 -48.24202,-22.02744 -79.39352,46.19707 -31.15151,68.22451 v 0 c 7.65201,3.47582 15.22221,7.13769 22.95602,10.42748 25.6578,10.91424 52.20321,19.77669 79.02328,27.33229 10.53854,2.40694 24.19326,6.37953 35.20261,5.34199 7.53124,-0.70976 15.30298,-1.8965 22.07322,-5.271 13.62473,-6.791 19.37731,-15.59974 24.88397,-28.54848 1.41515,-3.32767 1.94144,-6.9667 2.91216,-10.45006 0.57881,-3.30545 1.2346,-6.59834 1.73644,-9.91635 4.29001,-28.36369 5.30256,-57.11805 7.54104,-85.67713 4.19468,-64.194 8.57241,-128.38868 10.44762,-192.70481 2.49259,-75.78898 4.40711,-151.59443 6.05136,-227.40644 1.17727,-57.61402 1.71571,-115.25367 4.21107,-172.83079 0.77309,-15.57111 0.89964,-19.46864 1.86448,-34.25736 0.4815,-7.38027 1.26675,-14.7419 1.59167,-22.13072 0.14298,-3.25151 0.46783,-6.52449 0.14311,-9.7629 -0.46445,-4.63197 -1.66652,-9.16004 -2.49978,-13.74006 -2.9119,-4.95658 -4.98067,-10.51698 -8.73571,-14.86974 -10.51082,-12.18393 -26.3657,-14.992366 -41.37641,-16.196072 -8.50547,-0.375278 -10.83977,-0.628947 -19.75637,-0.326129 -19.14315,0.650125 -38.13395,3.534353 -56.8696,7.40095 -24.51541,5.480761 -48.95768,11.550811 -72.48625,20.474161 -49.5997,18.77151 -23.05277,88.91608 26.54693,70.14457 z"/>
<path d="m 218.39146,403.30484 c 23.60901,-1.99147 47.32118,-2.55922 70.9915,-3.44156 24.06571,-0.83338 48.14539,-0.82086 72.21954,-0.53205 53.02931,0.62648 53.91529,-74.36828 0.88598,-74.99477 v 0 c -25.30111,-0.29454 -50.60794,-0.30582 -75.89984,0.57889 -26.6315,0.99312 -53.35629,1.45785 -79.86875,4.30322 -52.3869,8.25305 -40.71533,82.33932 11.67157,74.08627 z"/>
<path d="m 182.99515,590.4613 c 30.9179,-8.16418 61.811,-16.43189 92.71314,-24.65921 39.77958,-10.88777 80.09983,-19.48766 120.52326,-27.56901 52.00331,-10.39978 37.29581,-83.94357 -14.70751,-73.54379 v 0 c -41.96242,8.39443 -83.81354,17.34851 -125.11145,28.63746 -31.64217,8.42436 -63.2858,16.85196 -94.92446,25.28437 -50.80575,15.20776 -29.29873,87.05794 21.50702,71.85018 z"/>
<path d="m 471.75468,367.34658 c 29.06137,-9.74854 59.27314,-15.40026 89.32057,-21.11027 55.37604,-9.27444 111.31997,-15.94545 167.47137,-17.82068 10.5215,-0.35138 21.05205,-0.33629 31.57807,-0.50444 30.82036,0.0831 61.695,2.14299 92.06765,7.52238 4.37688,0.7752 8.71307,1.76477 13.0696,2.64716 52.00454,10.39365 66.70338,-63.15188 14.69884,-73.54552 v 0 c -5.41063,-1.06969 -10.79749,-2.26753 -16.23188,-3.20905 -34.60695,-5.99574 -69.75299,-8.38103 -104.85304,-8.40457 -11.37094,0.19651 -22.74698,0.19632 -34.11281,0.58954 -59.59408,2.06172 -118.96998,9.12251 -177.73199,19.05184 -34.05916,6.51141 -68.29944,13.03825 -101.1532,24.38908 -49.77646,18.29768 -23.89963,88.69221 25.87682,70.39453 z"/>
<path d="m 606.64384,157.80599 c 5.0376,18.10821 6.70853,36.97272 8.64973,55.59929 3.8018,45.44447 5.7825,91.0721 4.85945,136.67929 -0.19132,9.45278 -0.6464,18.89838 -0.9696,28.34757 -1.01705,26.15968 -4.84644,52.04375 -8.75718,77.88312 -7.89022,52.44277 66.27507,63.60122 74.16528,11.15844 v 0 c 4.29543,-28.70429 8.46682,-57.46107 9.54932,-86.51481 0.33689,-10.13277 0.81318,-20.26187 1.01067,-30.39832 0.94298,-48.39976 -1.17019,-96.82323 -5.27402,-145.04448 -2.0754,-19.3727 -4.03437,-38.4622 -8.43879,-57.47852 -1.844,-7.96156 -3.39914,-13.35874 -6.36608,-20.69022 -0.71306,-1.76201 -1.61776,-3.44027 -2.42664,-5.16041 -25.18647,-46.670568 -91.18861,-11.05152 -66.00214,35.61905 z"/>
<path d="m 512.49716,545.99761 c 11.84328,-4.22887 24.2355,-6.72857 36.55407,-9.10922 18.24493,-3.52596 21.86588,-3.92289 40.9045,-6.93692 37.9164,-5.40432 75.92708,-10.53151 114.14166,-13.32207 5.85712,-0.42771 11.72354,-0.71673 17.58531,-1.07509 17.61116,-0.88171 35.24548,-1.4328 52.8801,-1.29828 0.78823,0.0131 1.57686,0.0108 2.36469,0.0392 0.0734,0.003 -0.14392,0.0455 -0.217,0.0382 -1.27406,-0.12841 -2.59806,-0.0484 -3.81572,-0.44464 -4.07834,-1.32717 -8.89376,-1.7164 -11.97924,-4.69533 -6.67189,-6.4415 -12.98913,-13.89648 -16.26427,-22.5729 -2.23349,-5.9169 0.39001,-12.6428 0.58501,-18.9642 0.24355,-0.75262 1.34104,-2.76106 0.73066,-2.25788 -0.90018,0.74209 -1.13051,2.0411 -1.70165,3.05835 -4.12365,7.3446 -3.55769,6.15222 -8.19006,14.98753 -4.33239,8.26314 -8.58273,16.56912 -12.91117,24.83433 -17.32663,33.48988 -35.39138,66.61663 -55.25839,98.67854 -5.01544,8.09404 -10.21364,16.0734 -15.32046,24.11009 -21.66333,33.11566 -45.83917,64.56812 -72.42507,93.88273 -16.42218,18.1077 -22.16237,23.34324 -39.33398,40.34012 -17.04417,15.12489 -17.3756,16.20743 -34.99175,29.00807 -4.82289,3.50452 -9.84697,6.72345 -14.77045,10.08518 -43.70118,30.04507 -1.21103,91.84788 42.49016,61.8028 v 0 c 6.04134,-4.17671 12.21347,-8.17032 18.12402,-12.53015 21.00562,-15.49447 22.07324,-17.32084 41.95308,-35.10591 18.78329,-18.65092 25.11481,-24.445 43.0827,-44.33887 29.05398,-32.16828 55.49423,-66.64731 79.18697,-102.9429 5.41528,-8.53535 10.92751,-17.00997 16.24585,-25.60606 20.63247,-33.34852 39.44266,-67.77459 57.45983,-102.59294 5.57945,-10.65693 10.95791,-21.44114 16.72904,-31.99692 1.06172,-1.94196 5.46491,-9.57966 6.63158,-11.96989 1.17817,-2.41379 2.19609,-4.90256 3.29414,-7.35383 0.50897,-7.24698 3.79781,-14.84016 1.52691,-21.74094 -7.53218,-22.88876 -21.85344,-30.65967 -42.68401,-30.74982 -19.35468,-0.13305 -38.70908,0.44196 -58.03724,1.43849 -6.41398,0.39856 -12.833,0.72279 -19.24193,1.19567 -40.05124,2.95518 -79.89465,8.28842 -119.63173,13.98744 -30.5574,4.86618 -61.50409,9.37995 -90.87136,19.46954 -49.95603,17.80155 -24.78083,88.45004 25.1752,70.64849 z"/>
<path d="m 517.34853,635.2285 c 15.09623,12.23462 27.62162,27.38897 40.30817,42.01182 23.72423,27.65152 46.752,55.8969 70.85922,83.22023 5.00675,5.67469 10.09834,11.27396 15.14751,16.91094 18.17338,19.91236 36.56358,39.64876 55.9542,58.38926 11.31969,10.94016 13.63792,12.84926 25.13666,23.2027 15.15158,13.14833 30.95437,25.59275 47.57169,36.84655 10.50316,7.11309 14.00923,9.04098 24.86103,15.60001 20.16184,11.7376 41.85276,20.39099 64.07253,27.34392 6.25558,1.95747 12.58235,3.67971 18.87353,5.51957 50.91985,14.82122 71.88022,-57.19032 20.96037,-72.01154 v 0 c -22.41804,-6.48927 -44.92899,-13.18817 -65.20047,-25.0925 -8.57594,-5.14754 -12.17073,-7.15113 -20.42548,-12.70936 -14.16929,-9.54071 -27.64,-20.10923 -40.56535,-31.26574 -10.37338,-9.31392 -12.35978,-10.93673 -22.62109,-20.83365 -18.29949,-17.64966 -35.61474,-36.27926 -52.76125,-55.03986 -29.12223,-32.48744 -57.06586,-65.97478 -85.25002,-99.27361 -16.05123,-18.4466 -32.05582,-37.34523 -51.42668,-52.44461 -42.16186,-32.16952 -87.65643,27.45635 -45.49457,59.62587 z"/>
</svg>
