<?xml version="1.0" ?>
<svg xmlns="http://www.w3.org/2000/svg" viewBox="0 0 1000 1000">
<path d="m 158.59094,181.54218 c 0.49121,38.23656 0.67456,76.47355 0.51702,114.71265 -1.50295,80.83888 -9.17573,161.58347 -22.60087,241.31294 -3.12036,18.53125 -6.81764,36.96072 -10.22646,55.44108 -14.66448,69.76371 -31.212954,139.3616 -53.958978,206.99697 -4.590058,13.64855 -9.845158,27.06435 -14.767737,40.59653 -18.084365,49.85434 52.420325,75.4295 70.504695,25.57515 v 0 c 5.28726,-14.61395 10.92226,-29.10674 15.86178,-43.84186 23.63547,-70.50721 40.90921,-143.02669 56.12051,-215.74656 3.53955,-19.25935 7.38186,-38.46552 10.61866,-57.77806 13.96952,-83.34979 21.9378,-167.75153 23.44778,-252.2519 0.15322,-38.34048 -0.0128,-76.67909 -0.5164,-115.01694 0,-53.03301 -75,-53.03301 -75,0 z"/>
<path d="m 294.4387,171.74775 c 14.80486,-1.45564 28.76802,-6.99976 42.8516,-11.44583 10.79422,-3.25079 21.5517,-6.73452 32.59794,-9.04856 0.50598,-0.0887 1.0074,-0.20943 1.51796,-0.26622 0.24628,-0.0274 -0.47558,0.15034 -0.72187,0.17765 -1.03363,0.11463 -2.07051,0.27584 -3.11009,0.24731 -1.92606,-0.0529 -3.88916,-0.0277 -5.7595,-0.49069 -11.59709,-2.87062 -10.26388,-3.74836 -20.32598,-11.79145 -1.71031,-2.72289 -3.61579,-5.33253 -5.13094,-8.16866 -0.72122,-1.35002 -0.92009,-2.9267 -1.54335,-4.32465 -0.0951,-0.21326 -0.0809,0.46313 -0.0742,0.69653 0.0411,1.43475 0.15922,2.86638 0.21738,4.30054 0.20766,5.12087 0.40008,12.36896 0.54223,17.25488 0.55357,34.817 1.21631,69.63095 1.95626,104.44468 1.6158,54.46942 1.15191,108.96193 1.02413,163.44564 0.0276,62.61609 -0.5729,125.22971 -1.14177,187.84247 -0.55885,53.45523 -1.10416,106.91701 -3.11427,160.34049 -1.3791,28.44021 -2.94373,56.98914 -8.64621,84.94095 -0.59909,1.30897 -2.15404,10.36341 -3.95468,11.42635 -0.2727,0.16098 -0.0273,-0.65667 0.10555,-0.94412 0.39055,-0.84499 0.78544,-1.72988 1.43744,-2.39429 1.9489,-1.98604 4.1957,-3.65601 6.29356,-5.48401 2.80627,-1.16238 5.61253,-2.32475 8.4188,-3.48713 0.16222,-0.29935 0.79163,-0.74667 0.48665,-0.89805 -2.0147,-1.00008 -4.31256,-1.28825 -6.4284,-2.05139 -3.56258,-1.28494 -7.11054,-2.61797 -10.59985,-4.09031 -14.53758,-6.13425 -14.2002,-6.41621 -28.5015,-14.15727 -4.22911,-3.13207 -8.45821,-6.26414 -12.68732,-9.39621 -43.22188,-30.73059 -86.6815,30.39437 -43.45962,61.12496 v 0 c 6.94532,4.81291 13.89064,9.62582 20.83596,14.43872 6.51314,3.43857 12.91333,7.10016 19.53941,10.31571 9.95563,4.83135 24.37442,10.78005 35.09049,14.10841 8.80152,2.73371 22.58062,6.12475 31.91454,5.34953 6.59669,-0.54789 12.91069,-2.92919 19.36603,-4.39379 4.53418,-3.06597 9.41819,-5.66943 13.60254,-9.19792 2.80925,-2.36892 5.03751,-5.37681 7.2025,-8.34607 8.00148,-10.97396 11.82852,-24.18689 14.88134,-37.21387 2.14997,-10.90846 2.70441,-12.91626 4.25537,-24.38129 3.24988,-24.02367 4.58297,-48.26487 5.79471,-72.45805 2.02393,-54.13354 2.61134,-108.30428 3.16386,-162.46995 0.57041,-62.78129 1.17185,-125.56343 1.14466,-188.34805 0.12906,-55.07363 0.58806,-110.15605 -1.04086,-165.21524 -0.74421,-35.01186 -1.40343,-70.02405 -1.97124,-105.039 -0.26939,-9.20168 -0.28816,-18.49229 -1.18794,-27.66351 -0.50263,-5.12318 -1.4211,-11.71022 -3.47279,-16.3914 -1.70239,-3.884207 -4.20383,-7.366717 -6.30574,-11.050077 -3.9595,-3.35057 -7.4576,-7.33881 -11.87848,-10.05169 -10.0899,-6.191693 -22.40233,-5.864707 -33.48796,-3.61738 -13.33496,2.90471 -26.41909,6.79845 -39.44204,10.86071 -8.65567,2.73731 -17.23682,5.80151 -25.9937,8.18053 -52.8775,4.058357 -47.13811,78.838427 5.73939,74.780067 z"/>
<path d="m 230.35594,359.0519 c 13.85276,-3.15913 27.7401,-6.11319 41.73948,-8.56116 13.82476,-2.01794 6.9758,-1.07741 20.54592,-2.8287 52.593,-6.81737 42.95178,-81.1951 -9.64122,-74.37773 v 0 c -15.56089,2.02495 -7.58644,0.9175 -23.92029,3.34444 -13.74844,2.43821 -27.47357,5.05775 -41.02688,8.43912 -52.31461,8.69953 -40.01162,82.68356 12.30299,73.98403 z"/>
<path d="m 223.43724,524.41619 c 18.34618,-7.44931 36.68521,-14.90384 54.65843,-23.22917 6.38981,-2.9598 12.71372,-6.05986 19.07057,-9.08979 47.86189,-22.84162 15.55897,-90.52855 -32.30292,-67.68693 v 0 c -5.82432,2.78341 -11.61798,5.63191 -17.47295,8.35024 -16.79466,7.79738 -33.93967,14.75794 -51.08395,21.73485 -49.44148,19.18439 -22.31066,89.10519 27.13082,69.9208 z"/>
<path d="m 497.32295,103.68167 c 1.64729,17.63168 1.32758,35.51595 -0.29882,53.14041 -0.66593,7.21634 -1.69932,14.39405 -2.54898,21.59108 -4.57114,28.59918 -10.15571,57.07263 -17.33874,85.13934 -8.00367,31.27329 -18.08694,61.99117 -27.82355,92.75081 -8.2917,24.68192 -9.97038,30.64622 -19.10022,54.26123 -2.73086,7.06357 -5.70381,14.03114 -8.55572,21.0467 -19.93146,49.14506 49.57016,77.3324 69.50161,28.18734 v 0 c 3.13537,-7.74726 6.40175,-15.44278 9.4061,-23.24178 9.67295,-25.11006 11.53488,-31.64177 20.253,-57.62458 6.19802,-19.58933 14.29291,-44.77819 19.99507,-64.43405 3.26849,-11.26678 6.4729,-22.55577 9.36672,-33.92456 7.84964,-30.83841 13.95042,-62.12458 18.80162,-93.56553 0.97044,-8.58066 2.15914,-17.13944 2.91131,-25.74199 1.97979,-22.64263 2.19133,-45.61073 -0.32651,-68.214237 -7.51643,-52.497651 -81.75932,-41.867827 -74.24289,10.629817 z"/>
<path d="m 551.88468,333.67373 c 14.82471,-6.06106 30.17718,-10.70491 45.76424,-14.35282 5.66099,-1.32487 11.3662,-2.45321 17.04929,-3.67981 43.58337,-8.81237 87.98786,-11.87076 132.30028,-14.21021 25.70322,-0.99683 51.46579,-1.6795 77.18126,-0.63952 11.91589,0.4819 13.8609,0.79348 25.20458,1.83014 11.38303,1.5246 23.03303,2.75629 33.84046,6.87331 0.22247,0.12792 0.90508,0.28702 0.66739,0.38376 -0.23509,0.0957 -1.91283,-0.81752 -1.94144,-0.83675 -3.44661,-2.3175 -4.81379,-3.60443 -7.70822,-7.32483 -1.00648,-1.29369 -1.69495,-2.80601 -2.54242,-4.20902 -0.31465,-0.6648 -0.24495,-1.76559 -0.94396,-1.99439 -0.54939,-0.17983 0.0794,1.15353 0.13337,1.72907 0.15235,1.62394 0.34637,3.24393 0.48563,4.86904 0.8679,10.12823 1.19157,20.2482 1.48334,30.407 0.62818,31.33621 0.67819,62.70319 -1.26172,93.99886 -0.49197,7.93671 -1.1811,15.85997 -1.77165,23.78996 -4.39284,52.9636 -13.74114,105.31843 -22.45189,157.69185 -5.41273,32.95682 -10.76341,65.95414 -18.24321,98.52124 -4.00466,17.43628 -6.06361,24.39256 -10.69131,41.462 -6.28266,21.64824 -12.46936,43.39894 -20.97437,64.30802 -4.05992,9.98108 -5.40305,12.34451 -9.99918,21.74634 -4.0113,7.73318 -8.41967,15.26209 -13.25447,22.5097 -2.33071,3.49385 -4.68591,6.87309 -7.66317,9.83449 -0.19,0.0744 -0.68772,0.38984 -0.57,0.22318 1.18957,-1.6842 3.28826,-2.89143 4.9937,-3.81344 3.89787,-2.10729 5.38019,-1.18153 -0.13388,-3.13778 -20.72717,-6.71866 -40.61045,-15.9683 -59.33154,-27.10396 -6.94134,-4.12884 -13.63537,-8.65996 -20.45305,-12.98993 -44.85516,-28.29338 -84.86803,35.14139 -40.01288,63.43476 v 0 c 8.18133,5.13099 16.20953,10.51463 24.54398,15.39295 24.50819,14.34513 50.57907,26.18328 77.83739,34.21602 11.56231,2.42698 16.6019,4.34324 28.41745,3.55056 16.25149,-1.09028 29.04599,-8.00498 40.26534,-19.38908 1.79716,-2.03933 3.66779,-4.0162 5.39149,-6.118 10.96471,-13.36987 19.31114,-28.73007 27.45685,-43.89133 5.86807,-12.18232 7.44909,-14.96972 12.61232,-27.80101 9.35267,-23.24256 16.35945,-47.33385 23.27134,-71.38506 5.12008,-18.96204 7.1839,-25.89931 11.62648,-45.32122 7.70983,-33.70551 13.30723,-67.83803 18.89442,-101.94349 9.08396,-54.61742 18.76665,-109.22494 23.26398,-164.46603 0.62979,-8.57331 1.36626,-17.13946 1.88937,-25.71995 2.0261,-33.23354 2.00154,-66.54136 1.31544,-99.81645 -0.36773,-12.13092 -0.72917,-24.24033 -1.89332,-36.32758 -0.4601,-4.77716 -1.27044,-11.90412 -2.40741,-16.61826 -0.7199,-2.98489 -1.76519,-5.8818 -2.64778,-8.8227 -1.47679,-2.9055 -2.62818,-6.00081 -4.43036,-8.7165 -6.75139,-10.17365 -16.73337,-16.65288 -27.93197,-20.92949 -5.36682,-1.87627 -6.75039,-2.46297 -12.51176,-4.00083 -13.0732,-3.48957 -26.51001,-5.42644 -39.93138,-6.96629 -13.58193,-1.19511 -15.87909,-1.55499 -29.95927,-2.10397 -27.68464,-1.07942 -55.41654,-0.38271 -83.08671,0.7199 -48.33346,2.57524 -96.75314,6.0642 -144.26423,15.81766 -6.60645,1.44583 -13.24055,2.77062 -19.81934,4.33747 -19.49919,4.64406 -38.69925,10.5868 -57.20625,18.30889 -48.55951,21.31838 -18.41077,89.99191 30.14875,68.67353 z"/>
<path d="m 685.80447,367.52797 c -0.73702,1.89842 -1.53317,3.77493 -2.21107,5.69525 -2.25464,6.38683 -4.00656,12.94579 -6.32269,19.31059 -2.48298,6.82332 -9.01102,22.13676 -11.63121,27.73636 -2.84718,6.08471 -5.98547,12.02891 -8.9782,18.04337 -16.44363,31.41872 -36.50537,60.76004 -58.38134,88.62023 -12.8303,16.34007 -21.4422,26.02475 -34.91135,41.70539 -21.58622,23.13198 -10.63565,12.40695 -32.68139,32.34808 -39.13054,35.79526 11.4916,91.1342 50.62215,55.33894 v 0 c 27.00768,-24.92375 14.01833,-11.97365 38.97447,-38.84384 14.82543,-17.29045 23.72502,-27.28969 37.88664,-45.40297 24.69137,-31.58122 47.22387,-64.90165 65.71714,-100.51494 3.5256,-7.16425 7.21491,-14.25024 10.5768,-21.49275 4.50626,-9.70781 10.41068,-24.10407 14.14834,-34.40106 3.34265,-9.20876 2.51626,-8.23609 4.99431,-15.55713 0.37771,-1.11589 0.831,-2.20476 1.2465,-3.30715 20.70293,-48.82508 -48.34616,-78.10345 -69.0491,-29.27837 z"/>
<path d="m 589.93196,496.45702 c 0.32015,0.2905 -2.57298,-0.64177 -2.07566,-0.15788 0.97837,0.95196 2.27718,1.50606 3.41294,2.26333 2.35833,1.57242 4.75884,3.08382 7.06931,4.72575 7.89511,5.61062 9.70531,7.37992 17.48228,13.83298 13.09038,11.35192 25.74463,23.31042 36.11502,37.2562 5.71183,7.6811 6.08818,8.77417 10.64627,16.56841 1.03273,2.09675 2.06546,4.1935 3.09819,6.29026 24.04858,47.26696 90.89416,13.25712 66.84558,-34.00984 v 0 c -1.87644,-3.62116 -3.75289,-7.24232 -5.62933,-10.86348 -7.01924,-11.51867 -8.19366,-14.10001 -16.60499,-25.09809 -13.64145,-17.83661 -29.79067,-33.48758 -46.81767,-48.05879 -4.12876,-3.37553 -8.17645,-6.85273 -12.38629,-10.12659 -6.46467,-5.02736 -14.1415,-10.4416 -21.16411,-14.78848 -7.66745,-4.74603 -11.22389,-6.78703 -19.58257,-9.84568 -1.85779,-0.67982 -3.82136,-1.02533 -5.73204,-1.538 -52.00763,-10.37816 -66.68457,63.17173 -14.67693,73.5499 z"/>
<path d="m 459.74877,536.39606 c 1.87628,17.06949 1.96274,34.26862 2.12288,51.41966 0.22974,22.60112 -0.4375,45.19547 -1.07699,67.78443 -0.18256,12.45289 -0.89619,27.49049 7.50966,37.9033 5.35213,6.62999 12.33666,12.11101 19.88689,16.06019 5.24114,2.7414 11.60434,2.29753 17.40651,3.4463 4.19516,-0.1554 8.39664,-0.18833 12.58547,-0.46619 7.86584,-0.52175 15.68274,-1.62567 23.5346,-2.32702 15.57177,-1.39092 31.15437,-2.1714 46.76881,-2.88576 35.48324,-1.64979 70.97746,-0.27252 106.40506,1.79803 17.9257,1.19641 35.85736,2.28318 53.80476,3.0908 52.97992,2.37232 56.33489,-72.5526 3.35497,-74.92493 v 0 c -17.6109,-0.78435 -35.2047,-1.87426 -52.79443,-3.03873 -38.03001,-2.21213 -76.1327,-3.62511 -114.21997,-1.84579 -21.10674,0.97761 -42.12418,2.27769 -63.14872,4.39936 -2.85578,0.28819 -5.71748,0.52745 -8.56457,0.89164 -0.78969,0.10102 -1.5566,0.33506 -2.33489,0.5026 10.60012,3.88358 12.50583,3.4379 21.26458,16.11382 2.34847,3.39879 2.55921,7.86045 3.62176,11.8527 0.10405,0.39094 -0.11577,1.60816 -0.14647,1.20478 -0.14237,-1.87063 0.0176,-8.47214 0.0359,-9.65292 0.66622,-23.53779 1.34675,-47.08135 1.10352,-70.63172 -0.20981,-21.03664 -0.34259,-42.16442 -3.14431,-63.05127 -8.73752,-52.30828 -82.71259,-39.95155 -73.97507,12.35672 z"/>
<path d="m 749.35923,544.62962 c 1.56589,23.46232 0.83849,47.03628 0.0317,70.51485 -2.8347,36.88977 -12.90088,72.68242 -23.31895,108.01907 -14.95836,50.87974 56.99645,72.03405 71.95481,21.15431 v 0 c 2.15617,-7.35281 4.4261,-14.67321 6.46851,-22.05843 9.46466,-34.22353 17.55893,-69.05447 19.85303,-104.58766 0.90841,-27.42166 1.80601,-54.99308 -0.57079,-82.36521 -6.59241,-52.62167 -81.01069,-43.2986 -74.41828,9.32307 z"/>
</svg>
