<?xml version="1.0" ?>
<svg xmlns="http://www.w3.org/2000/svg" width="1000" height="1000">
<path d="m 154.12129,228.02148 c 5.13589,37.57927 5.94958,75.60762 6.90086,113.47245 1.13163,51.98925 -3.46771,103.86339 -10.13211,155.37109 -1.97804,15.28781 -4.07531,30.56342 -6.50715,45.78563 -2.47904,15.51769 -5.48223,30.94709 -8.22334,46.42063 -14.42313,75.06341 -32.96071,149.3975 -57.206837,221.91816 -4.148396,12.40794 -8.727817,24.66758 -13.091726,37.00137 -4.043236,10.47758 -8.086473,20.95516 -12.129709,31.43275 -19.070794,49.4854 50.912132,76.45557 69.982922,26.97017 v 0 c 4.28825,-11.14118 8.5765,-22.28236 12.86475,-33.42354 4.62722,-13.12058 9.47863,-26.16423 13.88166,-39.36173 25.24013,-75.65389 44.55104,-153.19059 59.55512,-231.48862 2.87461,-16.31204 6.02093,-32.57852 8.62384,-48.93611 2.52383,-15.86064 4.70511,-31.77586 6.75417,-47.70479 7.0746,-54.99663 11.82424,-110.38708 10.60427,-165.88765 -1.04928,-40.95865 -2.01262,-82.08625 -7.71015,-122.71966 -7.88413,-52.44369 -82.05071,-41.29384 -74.16657,11.14985 z"/>
<path d="m 297.58649,233.71703 c 10.42799,-1.25627 20.74312,-3.27084 31.12219,-4.85384 10.29675,-1.57043 11.85553,-1.67298 22.43055,-2.95255 15.55393,-1.75891 31.19324,-2.60862 46.84021,-2.18396 0.94308,0.0416 1.88615,0.0832 2.82922,0.12483 0.26974,0.0365 1.08086,0.0921 0.80922,0.10957 -7.96745,0.51336 -18.54026,-8.30829 -22.42468,-12.45311 -2.90146,-3.09597 -4.00761,-7.48017 -6.01141,-11.22026 -0.11743,0.16091 -0.34628,0.28363 -0.35228,0.48274 -0.0726,2.40655 0.0963,4.81442 0.11991,7.22195 0.10004,10.20962 0.1203,18.57143 -0.0828,28.95619 -0.26629,13.61173 -0.93307,30.56181 -1.41081,43.96098 -2.15404,66.62781 -4.49879,133.24527 -7.32874,199.8481 -3.61243,75.67578 -7.47826,151.3362 -10.6579,227.03193 -1.55766,38.65504 -3.16111,77.32279 -6.37016,115.88337 -1.53781,18.47862 -1.94292,21.10109 -3.89448,38.64444 -1.09168,7.66498 -2.15771,16.66468 -3.95175,24.33369 -0.46613,1.99259 -0.96659,4.00557 -1.83535,5.85839 -0.12095,0.25794 -0.77384,-0.29339 -0.65302,-0.5514 1.21769,-2.60034 2.35207,-5.38605 4.38362,-7.41518 2.70353,-2.70029 6.32349,-4.29139 9.48524,-6.43708 0.41006,-0.5548 1.79086,-1.26239 1.23019,-1.6644 -2.1504,-1.54185 -4.98358,-1.78528 -7.434,-2.78377 -4.05928,-1.65406 -8.11193,-3.33164 -12.09026,-5.17189 -10.24514,-4.7391 -20.74549,-10.22532 -30.45137,-15.95242 -5.20143,-3.06919 -10.23153,-6.41989 -15.34729,-9.62984 -4.60912,-3.48693 -9.21823,-6.97385 -13.82735,-10.46078 -42.53004,-31.68115 -87.33395,28.46541 -44.80391,60.14656 v 0 c 6.32072,4.65485 12.64145,9.3097 18.96217,13.96454 6.28446,3.89507 12.46687,7.95982 18.85338,11.6852 11.45279,6.68065 25.77402,14.15274 37.94307,19.5501 10.0573,4.46073 26.38936,11.05994 37.40405,12.87186 7.30311,1.20137 14.77394,0.91929 22.16092,1.37893 8.31354,-3.02364 17.44198,-4.37757 24.94063,-9.07094 6.12379,-3.83285 10.62139,-9.93535 14.81954,-15.81474 3.01878,-4.22773 4.74991,-9.26692 6.56536,-14.13425 1.5294,-4.1004 2.47058,-8.40302 3.43311,-12.6722 2.15145,-9.54249 3.40793,-20.14634 4.75636,-29.76654 2.06982,-18.73053 2.51441,-21.66172 4.13863,-41.26639 3.26356,-39.39181 4.93296,-78.88998 6.5166,-118.37781 3.17873,-75.68371 7.04872,-151.33187 10.65637,-226.99581 2.8367,-66.7745 5.18986,-133.5636 7.34885,-200.36314 0.75321,-21.18528 1.57127,-42.35707 1.61302,-63.55871 0.009,-4.59821 -0.0625,-20.21567 -0.45016,-25.46908 -0.2763,-3.74394 -0.88216,-7.45623 -1.32324,-11.18434 -2.47762,-5.78595 -3.56018,-12.39617 -7.43285,-17.35785 -10.61174,-13.59581 -23.3942,-16.89765 -38.93416,-17.25733 -19.30984,-0.46457 -38.61462,0.4854 -57.80643,2.70967 -17.65105,2.16086 -35.19213,4.93283 -52.75197,7.71325 -52.71009,5.84354 -44.44607,80.38686 8.26401,74.54332 z"/>
<path d="m 225.60932,403.39804 c 18.95134,-1.78031 37.89894,-3.69915 56.92091,-4.57264 6.2379,-0.28644 12.48255,-0.39959 18.72383,-0.59938 26.57804,-0.54181 53.14186,0.59991 79.68711,1.74059 52.98434,2.27152 56.19675,-72.65965 3.21241,-74.93117 v 0 c -28.43516,-1.21632 -56.89127,-2.40496 -85.36067,-1.76903 -6.9561,0.23351 -13.91593,0.37454 -20.86832,0.70054 -20.34834,0.95415 -40.62195,2.98533 -60.89303,4.92322 -52.68502,6.06539 -44.10726,80.57326 8.57776,74.50787 z"/>
<path d="m 206.63131,598.03901 c 34.69409,-13.88695 70.01593,-26.14796 105.35129,-38.28463 23.20454,-7.12088 30.37911,-9.7496 54.05197,-15.30077 8.87015,-2.08 17.83664,-3.72535 26.75496,-5.58803 51.89574,-10.92393 36.44698,-84.31559 -15.44876,-73.39166 v 0 c -10.08201,2.13685 -20.2181,4.0328 -30.24604,6.41054 -26.04784,6.17623 -34.09149,9.11026 -59.48189,16.93957 -36.82362,12.65524 -73.63476,25.43808 -109.77266,39.96131 -48.96974,20.35841 -20.1786,89.61208 28.79113,69.25367 z"/>
<path d="m 551.12026,328.41368 c 18.4251,-5.3387 36.47273,-11.87255 54.84433,-17.3836 19.58309,-5.87446 23.9036,-6.75994 43.91627,-11.8861 28.87588,-6.84622 58.22741,-11.53941 87.74839,-14.4859 14.30459,-1.42774 21.2669,-1.77882 35.27525,-2.70387 17.0164,-0.85999 9.01256,-0.51208 24.00985,-1.08182 52.99421,-2.02822 50.12587,-76.97335 -2.86834,-74.94513 v 0 c -16.32836,0.62917 -7.62191,0.24551 -26.1175,1.1922 -15.41287,1.03132 -22.98543,1.4166 -38.76338,3.01776 -32.95517,3.34431 -65.71549,8.65112 -97.9394,16.36389 -22.22478,5.72093 -26.11531,6.48141 -47.86274,13.01556 -18.00397,5.40941 -35.69712,11.79463 -53.74959,17.04679 -50.80578,15.20765 -29.29892,87.05788 21.50686,71.85022 z"/>
<path d="m 498.72544,172.30582 c 0.51047,18.84861 0.67583,37.7038 0.83285,56.55799 0.71731,41.92746 -0.72249,83.83683 -1.89132,125.74049 -0.42908,18.16029 -0.80461,36.32762 -0.53496,54.49384 0.13092,8.82009 0.41748,19.66243 1.23068,28.51121 0.397,4.32003 1.06185,8.61125 1.59277,12.91688 0.93247,4.24165 1.55713,8.56289 2.79741,12.72496 4.12773,13.85157 11.17317,27.01061 22.20676,36.63995 11.2139,9.7867 15.46186,10.22091 28.99109,15.74916 5.26236,1.15597 10.46352,2.63824 15.78708,3.46792 10.48301,1.63379 22.52383,1.89749 33.09331,1.8133 18.21601,-0.14509 36.43248,-1.57961 54.60031,-2.75681 37.5961,-2.93162 75.25001,-4.83419 112.93996,-5.95842 15.57169,-0.50147 31.15536,-0.86972 46.70023,-1.97499 7.10594,-0.50524 18.75711,-1.43838 25.77696,-3.01863 4.83667,-1.0888 9.51709,-2.78215 14.27563,-4.17322 5.59048,-3.29368 11.93101,-5.55993 16.77143,-9.88106 5.92097,-5.28575 11.0655,-11.59776 15.00625,-18.48742 11.60402,-20.28745 12.05068,-48.46348 9.12296,-70.8653 -1.194,-9.13598 -3.61696,-18.06888 -5.42544,-27.10333 -11.03364,-51.87252 -84.39247,-36.2686 -73.35883,15.60393 v 0 c 3.56621,15.34336 4.51394,16.37696 5.54281,31.01564 0.20222,2.87717 -0.18097,5.77675 0.0377,8.65272 0.0648,0.85155 -0.0486,2.41153 0.80519,2.43221 2.8278,0.0685 4.83418,-3.98443 8.07281,-2.6153 -0.8121,0.44047 -1.54195,1.0898 -2.43632,1.3214 -4.92629,1.27565 -14.01898,1.9176 -18.55475,2.24541 -14.83776,1.07236 -29.71535,1.39288 -44.57918,1.88147 -38.56175,1.1567 -77.08833,3.08558 -115.55455,6.08234 -24.42687,1.58785 -49.07909,3.98903 -73.52748,1.64151 -0.52971,0.0861 -1.25434,-0.16109 -1.58912,0.25834 -0.0805,0.1008 1.18226,4.0672 -0.46175,2.57684 -0.53329,-0.48346 -0.98681,-1.09224 -1.2458,-1.76385 -0.63904,-1.65719 -0.94352,-3.42468 -1.41528,-5.13702 -0.37518,-2.69417 -0.86121,-5.37521 -1.12555,-8.0825 -0.7352,-7.52974 -0.96261,-16.67073 -1.07837,-24.11634 -0.26953,-17.33602 0.10195,-34.67324 0.50686,-52.00367 1.19406,-42.80909 2.64412,-85.62423 1.91787,-128.45745 -0.16751,-20.03527 -0.31795,-40.07461 -0.94623,-60.10172 -2.94829,-52.95099 -77.8323,-48.78148 -74.88401,4.16952 z"/>
<path d="m 492.80651,599.87874 c 3.53299,22.61856 4.07377,45.62727 5.01665,68.46382 1.64239,49.4769 2.21401,98.98001 3.44005,148.46816 0.49665,16.43332 1.17832,32.8598 1.76356,49.28999 1.88852,52.99937 76.84095,50.3286 74.95244,-2.67077 v 0 c -0.57601,-16.15935 -1.24401,-32.31515 -1.73903,-48.47737 -1.23726,-49.90672 -1.80454,-99.82886 -3.48169,-149.72371 -1.16591,-27.8924 -1.71955,-56.12161 -7.20086,-83.57853 -12.88944,-51.44281 -85.64055,-33.2144 -72.75112,18.22841 z"/>
<path d="m 638.47344,641.56759 c 16.83862,-7.66622 35.05773,-11.87204 52.95251,-16.26904 21.18013,-4.8092 42.61421,-8.55442 64.23151,-10.72184 11.02993,-1.10589 14.27713,-1.15662 24.95133,-1.71199 9.37543,-0.21692 18.87021,-0.6353 28.14105,1.07791 0.31899,0.0662 1.28263,0.20744 0.95697,0.19853 -1.36758,-0.0374 -2.75961,-0.41999 -3.9613,-1.07392 -3.86352,-2.10245 -8.12068,-3.78226 -11.28759,-6.83476 -6.9401,-6.68936 -7.66843,-9.37367 -10.16703,-15.87775 1.61321,28.38874 1.35994,56.81718 0.84128,85.23128 -1.32588,49.47498 -5.67672,98.80508 -10.41391,148.05024 -2.54231,23.80416 -4.8069,47.70831 -9.68656,71.17875 -0.66419,3.19468 -1.48122,6.35568 -2.22182,9.53351 -11.87358,51.68673 61.22249,68.47851 73.09607,16.79178 v 0 c 0.9479,-4.17239 1.98779,-8.32495 2.8437,-12.51718 5.24212,-25.67571 7.9115,-51.77512 10.62445,-77.81018 4.91688,-51.18221 9.41132,-102.4538 10.7459,-153.87581 0.58125,-32.66391 1.07546,-65.43359 -1.70601,-98.01773 -0.82008,-3.71217 -0.86114,-7.6875 -2.46025,-11.13651 -2.7065,-5.83748 -5.87389,-11.64857 -10.27856,-16.33901 -6.52429,-6.94758 -15.47563,-9.79559 -24.3769,-11.44404 -14.77605,-2.42734 -29.75546,-2.74184 -44.70066,-2.02777 -12.72535,0.69779 -16.58021,0.76762 -29.6849,2.1162 -24.72967,2.54488 -49.25525,6.83847 -73.47925,12.40047 -22.48247,5.583 -45.23746,11.14873 -66.33113,20.95505 -48.17081,22.18271 -16.79971,90.30653 31.3711,68.12381 z"/>
<path d="m 568.81152,772.31949 c 18.31493,-0.91547 36.50385,-3.40085 54.77419,-4.89086 5.41826,-0.44188 10.84471,-0.77696 16.26707,-1.16545 16.74161,-0.89673 33.52729,-1.1128 50.28291,-0.46916 5.65182,0.2171 11.29514,0.61712 16.94272,0.92568 52.95744,2.83006 56.95975,-72.06308 4.0023,-74.89313 v 0 c -6.46828,-0.33891 -12.93197,-0.78147 -19.40486,-1.01674 -19.06812,-0.69308 -38.16833,-0.41322 -57.21699,0.64757 -5.92019,0.42938 -11.84463,0.8036 -17.76056,1.28814 -16.86722,1.38149 -33.66158,3.6145 -50.55765,4.62153 -52.99937,1.88859 -50.3285,76.84101 2.67087,74.95242 z"/>
<path d="m 549.87577,912.31798 c 22.17914,-6.0218 44.94264,-9.47963 67.66088,-12.71078 6.92897,-0.78405 13.84694,-1.67234 20.78691,-2.35213 15.87643,-1.55513 28.08586,-2.38568 44.02628,-2.89118 20.43238,-0.64795 40.8768,-0.25907 61.3088,0.0979 53.02509,0.91648 54.3212,-74.07232 1.29611,-74.9888 v 0 c -22.08403,-0.37783 -44.17511,-0.76326 -66.25844,-0.02 -17.53157,0.59005 -31.42441,1.55098 -48.86073,3.28399 -7.65433,0.76078 -15.28407,1.75134 -22.9261,2.62701 -24.8985,3.58427 -49.85134,7.38195 -74.17557,13.93928 -51.62924,12.12112 -34.48738,85.13589 17.14186,73.01477 z"/>
</svg>
