<?xml version="1.0" ?>
<svg xmlns="http://www.w3.org/2000/svg" viewBox="0 0 1000 1000">
<path d="m 387.95191,160.66225 c 1.86488,-0.43904 3.738,-0.84447 5.59464,-1.31712 11.09521,-2.82454 22.08118,-6.06359 33.19573,-8.81855 15.6057,-3.86818 19.99432,-4.65521 36.23238,-8.11834 26.51777,-5.14399 53.26994,-9.29204 80.19257,-11.62023 14.058,-1.21569 17.13575,-1.15583 30.68811,-1.61598 8.80174,-0.0992 17.63597,-0.0343 26.3799,1.09438 1.24584,0.16081 5.03076,0.52328 6.4639,1.41846 -7.66289,-1.89243 -12.94643,-8.71999 -16.78686,-15.1364 -0.906,-1.5137 -1.32473,-3.27009 -1.9871,-4.90514 1.30218,16.68899 2.23729,33.4107 2.64978,50.15609 -0.0197,19.28731 0.26352,38.70562 -2.58707,57.84082 -1.59073,10.67812 -2.32519,12.24365 -5.07767,22.26132 -2.53428,7.63339 -5.87259,14.96156 -9.97574,21.87598 -1.54393,2.60177 -3.55511,6.49389 -6.35952,8.14057 0.6404,-1.73567 2.31042,-2.75044 3.76351,-3.7562 0.35449,-0.24537 0.84243,-0.3518 1.08008,-0.71151 0.13592,-0.20571 0.073,-0.58665 -0.12875,-0.7284 -0.9386,-0.65947 -2.05555,-1.01896 -3.08333,-1.52844 -8.72855,-5.08519 -17.47425,-10.3399 -25.31606,-16.75371 -3.69977,-3.02604 -7.05446,-6.451 -10.58168,-9.6765 -39.65648,-35.2117 -89.45334,20.87103 -49.79686,56.08273 v 0 c 5.59583,4.87502 10.97306,10.01295 16.78749,14.62507 13.85062,10.98661 29.28052,20.04399 45.51612,26.98153 12.60759,3.70093 16.33195,5.74787 29.47056,5.94289 12.88665,0.19128 25.60251,-3.63304 36.43493,-10.54361 3.35923,-2.14303 6.25672,-4.93576 9.38507,-7.40363 2.44872,-2.64378 5.04918,-5.1547 7.34614,-7.93134 4.13733,-5.00134 8.35859,-11.60451 11.54356,-17.23015 6.86929,-12.13329 12.40497,-24.95362 16.447,-38.30565 3.87843,-15.17717 4.8978,-17.44482 7.1003,-33.18436 3.14707,-22.48974 3.10844,-45.25801 3.00746,-67.9127 -0.35135,-13.33735 -0.91626,-26.5968 -1.88043,-39.90325 -0.26402,-3.64371 -0.94346,-13.21417 -1.41562,-17.10733 -0.31555,-2.60182 -0.78446,-5.18274 -1.17669,-7.774111 -1.06599,-3.419757 -1.62799,-7.039607 -3.19796,-10.259272 -6.56607,-13.465494 -16.0871,-20.327037 -29.68504,-25.008879 -1.98071,-0.553949 -3.94237,-1.181196 -5.94213,-1.661847 -16.67631,-4.008221 -34.01924,-4.053293 -51.05928,-3.950151 -15.88137,0.58503 -19.36086,0.522248 -35.7212,1.964532 -29.60328,2.609745 -59.02154,7.173592 -88.17523,12.881341 -24.5506,5.258944 -49.00992,10.890562 -73.13678,17.876084 -52.12863,9.75226 -38.33685,83.473263 13.79177,73.721003 z"/>
<path d="m 450.91306,58.743761 c 3.44873,11.987879 0.1914,24.399342 -2.23213,36.236023 -1.39698,4.936688 -2.54193,9.951746 -4.19095,14.810056 -1.9613,5.77836 -4.22612,11.45487 -6.62796,17.06444 -9.73652,22.73995 -21.74734,44.31328 -35.07617,65.13037 -5.09241,7.95336 -10.5297,15.68055 -15.79456,23.52082 -5.62461,7.43239 -11.24923,14.86478 -16.87385,22.29717 -31.91457,42.35517 27.98468,87.48919 59.89925,45.13403 v 0 c 6.43194,-8.56838 12.86388,-17.13675 19.29582,-25.70512 5.87529,-8.7984 11.95318,-17.46483 17.62586,-26.39521 20.12883,-31.6884 38.26739,-65.3239 49.86776,-101.16247 2.18119,-6.73866 3.68195,-13.67888 5.52293,-20.51831 1.15235,-6.24549 2.59059,-12.444948 3.45704,-18.736477 2.40288,-17.447762 2.11808,-35.321678 -2.77092,-52.321982 -14.59939,-50.983897 -86.70151,-30.3372367 -72.10212,20.64666 z"/>
<path d="m 266.56821,407.34823 c 10.85259,-1.56864 21.43946,-4.52869 32.10507,-7.00114 11.08625,-2.56995 15.14159,-3.37836 26.59559,-5.82161 21.2968,-4.16129 42.67296,-8.10664 64.21053,-10.82617 12.06787,-1.5238 16.03752,-1.72483 27.81997,-2.68539 8.18196,-0.47474 16.41612,-0.70691 24.56802,0.31892 2.5413,0.31979 5.29745,0.71702 7.63618,1.85249 0.0209,0.0592 0.12555,0.17944 0.0628,0.17755 -1.34622,-0.0405 -2.52129,-1.03185 -3.59402,-1.84621 -4.23978,-3.21862 -6.53455,-5.45584 -9.23064,-10.10107 -1.03443,-1.78228 -1.65338,-3.77526 -2.48008,-5.66289 -4.43166,-1.48229 0.46484,-6.54853 -1.47481,-8.80579 -0.54171,-0.63041 -0.21053,1.64901 -0.30772,2.47449 -0.23052,1.95802 -0.45556,3.91668 -0.67538,5.87593 -0.92566,8.25042 -1.0549,9.62584 -1.97383,18.33564 -2.11949,20.06667 -2.99155,40.31168 -6.81766,60.16553 -0.67271,3.49075 -1.54453,6.94017 -2.31679,10.41025 -3.85839,16.32399 -10.37629,31.7546 -18.1678,46.544 -2.9009,4.71061 -5.2763,9.78616 -8.4235,14.34767 -0.0809,0.11729 0.035,-0.30095 0.12979,-0.40732 1.93362,-2.16881 3.95314,-4.25948 5.92972,-6.38922 2.77042,-12.72654 12.90937,-3.84766 18.75847,-7.08151 0.64534,-0.3568 -1.29583,-0.70788 -1.97059,-1.0053 -2.17735,-0.95973 -4.41099,-1.78918 -6.58149,-2.7643 -8.13374,-3.65417 -9.51289,-4.52164 -17.44782,-8.65899 -47.11224,-24.3503 -81.54876,42.27647 -34.43653,66.62677 v 0 c 12.20438,6.26632 24.46174,12.64544 37.58605,16.83147 7.68676,2.45171 19.84901,5.48596 27.9383,3.96634 7.072,-1.32852 13.54455,-4.86394 20.31682,-7.29591 3.33392,-3.11863 6.86549,-6.03857 10.00177,-9.3559 1.38903,-1.46921 2.38919,-3.26385 3.51624,-4.94247 4.11155,-6.12367 7.39209,-12.7911 11.14823,-19.12448 3.4741,-6.68248 5.08074,-9.56777 8.27706,-16.63968 7.08335,-15.67205 12.69051,-31.99134 16.7127,-48.71524 1.01791,-4.76272 2.15644,-9.50125 3.05372,-14.28816 3.98489,-21.25896 5.25397,-42.86974 7.37965,-64.35733 0.87025,-8.25486 1.02031,-9.8233 1.89779,-17.64527 0.74671,-6.65632 1.98044,-13.56279 1.41873,-20.28355 -0.25473,-3.04785 -1.02532,-6.03039 -1.53798,-9.04559 -2.97907,-7.62326 -3.28146,-10.15986 -8.75699,-16.66579 -6.58762,-7.8273 -15.4132,-12.64813 -24.87607,-16.04118 -6.8903,-2.08255 -8.13256,-2.67504 -15.41499,-3.94696 -15.191,-2.6532 -30.68504,-2.57807 -46.02572,-1.60203 -13.93088,1.16513 -17.9067,1.35484 -32.1863,3.17545 -23.25195,2.96457 -46.33444,7.21025 -69.32463,11.73407 -12.70391,2.71429 -16.0974,3.37851 -28.39542,6.22907 -5.98738,1.38781 -11.94395,2.90662 -17.93321,4.28628 -3.69589,0.85137 -3.40825,0.76953 -6.39228,1.28172 -52.58952,6.84411 -42.91048,81.21693 9.67904,74.37281 z"/>
<path d="m 295.55365,283.62986 c 1.28617,14.12703 0.0968,28.15725 -2.67062,42.05086 -1.15292,5.78811 -2.62078,11.509 -3.93117,17.2635 -7.82091,33.77653 -19.83019,66.43955 -34.23704,97.93572 -8.75518,19.14051 -17.80077,36.22384 -27.41531,54.94313 -24.2126,47.18315 42.51445,81.42494 66.72705,34.24179 v 0 c 10.81001,-21.08311 19.8123,-38.03974 29.63803,-59.67341 16.23699,-35.74958 29.64646,-72.84148 38.49092,-111.13081 1.61543,-7.37224 3.47023,-14.69607 4.84631,-22.11672 3.56352,-19.21668 4.98156,-38.71014 3.40513,-58.20284 -3.31547,-52.92927 -78.16876,-48.24049 -74.8533,4.68878 z"/>
<path d="m 555.06789,406.44369 c 1.31252,-0.25478 2.62961,-0.4871 3.93758,-0.76433 8.25608,-1.74992 16.44627,-3.76828 24.72804,-5.40557 10.87421,-2.14981 15.4198,-2.83939 26.64545,-4.74797 20.75562,-3.18377 41.54902,-6.33749 62.48234,-8.121 12.48909,-1.06406 14.80646,-1.01529 26.98091,-1.47649 15.43494,-0.8252 30.74332,0.80303 45.90691,3.49158 9.6033,2.00802 19.23146,3.88624 28.95074,5.23767 7.10852,0.85309 -0.97109,-0.0965 5.38404,0.59471 0.74588,0.0811 -1.53613,-0.0317 -2.22756,-0.32294 -4.90189,-2.065 -10.26528,-3.45801 -14.48316,-6.69873 -4.10295,-3.15242 -6.56655,-7.99802 -9.84983,-11.99703 -0.42346,-0.90386 -0.51034,-2.06455 -1.27037,-2.71157 -0.42083,-0.35825 -10e-4,1.10605 0.0324,1.65768 0.11208,1.83097 0.30549,3.65656 0.405,5.48825 0.32601,6.00054 0.49979,11.18305 0.24075,17.23311 -0.14566,3.40196 -0.49673,6.79202 -0.7451,10.18804 -3.20419,26.12888 -11.92707,51.1104 -20.51909,75.85514 -5.60182,14.6623 -9.96489,30.2798 -18.95798,43.34751 -0.44167,0.49288 -0.75271,1.14625 -1.325,1.47864 -0.30414,0.17665 0.2058,-0.6944 0.43464,-0.9615 0.75487,-0.88107 1.54793,-1.75165 2.48087,-2.44141 5.00749,-3.70227 9.88343,-4.43732 15.89137,-4.84468 -0.53569,-0.34835 -1.05342,-0.72603 -1.60708,-1.04507 -1.58794,-0.91504 -3.2381,-1.72046 -4.81447,-2.6553 -9.8052,-5.8148 -19.1177,-12.38824 -28.47183,-18.88808 -43.57376,-30.22959 -86.32485,31.393 -42.7511,61.62259 v 0 c 15.46058,10.71077 31.74338,22.67612 49.17587,29.94549 3.94059,1.64323 8.06415,2.80769 12.09623,4.21153 4.95843,0.68347 9.87014,2.09126 14.87528,2.05042 17.18973,-0.14023 31.04375,-8.30664 41.9294,-20.99703 1.83383,-2.13787 3.3808,-4.50599 5.07119,-6.75898 1.59681,-2.53198 3.28508,-5.00854 4.79042,-7.59594 9.48059,-16.29532 15.66546,-34.23787 22.0411,-51.89147 10.7672,-31.07544 21.27375,-62.56009 24.49665,-95.48187 0.30263,-4.93414 0.7439,-9.86172 0.90788,-14.80241 0.25418,-7.65858 0.0141,-16.23962 -0.51014,-23.92862 -0.374,-5.48546 -1.13602,-13.68249 -2.4337,-19.08434 -0.78704,-3.27619 -2.01028,-6.43197 -3.01542,-9.64796 -3.84071,-5.24355 -6.5916,-11.49557 -11.52212,-15.73064 -7.86355,-6.75439 -16.18524,-8.58542 -25.54954,-9.49075 -8.80939,-1.18376 -17.49155,-3.09982 -26.20876,-4.80946 -20.49177,-3.55694 -40.95236,-5.57582 -61.79734,-4.55859 -14.30026,0.58039 -16.97488,0.53002 -31.5428,1.79552 -22.63603,1.96639 -45.12831,5.3336 -67.57143,8.80992 -18.66915,3.18845 -37.27943,6.63995 -55.71677,10.98816 -52.22957,9.19629 -39.22406,83.06006 13.00552,73.86377 z"/>
<path d="m 652.72862,284.43268 c -4.15217,16.91311 -7.74,34.00153 -13.57607,50.44596 -1.93788,5.46041 -4.16666,10.81317 -6.24999,16.21976 -12.09998,28.9201 -28.59562,55.71165 -45.87114,81.77438 -5.07759,7.66031 -10.1949,15.29774 -15.52554,22.78417 -5.21119,7.31867 -10.72872,14.41432 -16.09308,21.62148 -5.56701,6.38247 -11.13403,12.76494 -16.70104,19.14742 -34.69598,40.10846 22.02596,89.17599 56.72194,49.06752 v 0 c 6.73179,-7.83492 13.46358,-15.66984 20.19537,-23.50476 5.95847,-8.04256 12.07927,-15.96736 17.8754,-24.1277 5.70383,-8.0304 11.18882,-16.21565 16.61745,-24.4346 20.08725,-30.41216 39.02692,-61.78952 52.86064,-95.61099 2.55692,-6.76506 5.29808,-13.46334 7.67078,-20.2952 6.56234,-18.89535 10.87252,-38.43682 15.51307,-57.85948 10.7678,-51.92835 -62.66999,-67.15632 -73.43779,-15.22796 z"/>
<path d="m 380.20584,623.43613 c 0.96696,24.63348 1.0894,49.28858 1.20837,73.9375 0.034,47.61612 -1.20899,95.22245 -2.21021,142.82514 -0.8334,34.79746 -1.48011,69.59887 -2.16037,104.39954 -1.03646,53.02284 73.94922,54.48864 74.98567,1.46577 v 0 c 0.67954,-34.76356 1.3255,-69.52788 2.15812,-104.28824 1.01476,-48.24953 2.27148,-96.50279 2.22591,-144.76602 -0.12464,-25.57102 -0.26232,-51.14821 -1.2728,-76.70294 -2.21272,-52.98683 -77.14741,-49.85758 -74.93469,3.12925 z"/>
<path d="m 439.71945,670.80088 c 11.55431,-4.47687 23.76723,-6.95095 35.84047,-9.59589 23.97972,-5.29822 48.30531,-8.69142 72.66408,-11.66071 14.95066,-1.97522 29.98139,-2.53151 45.03559,-2.07241 3.78243,0.20172 7.57763,0.28376 11.354,0.59758 0.16136,0.0134 -0.32508,0.0157 -0.48574,-0.004 -0.90424,-0.11363 -1.80344,-0.26433 -2.70516,-0.3965 -3.90341,-0.6493 -7.24072,-2.68287 -10.59414,-4.62377 -0.27488,-0.1591 0.51744,0.36842 0.77615,0.55263 0.48769,0.34301 0.96518,0.701 1.46307,1.02903 2.93437,1.93324 2.86395,1.82895 6.16695,3.57862 0.23101,0.12237 0.9385,0.4611 0.70246,0.34872 -1.48761,-0.70826 -1.60086,-0.89426 -3.6564,-2.1477 -0.64004,-0.48147 -1.34897,-0.88294 -1.92012,-1.44441 -5.06224,-4.97654 -6.69843,-6.45043 -9.62429,-12.76059 -8.53913,-18.41628 2.12965,3.16337 -2.35471,-8.48795 -0.16352,-0.42485 -0.066,0.90805 -0.0991,1.36208 -1.02859,21.83464 -1.43221,43.68788 -1.74057,65.54237 -0.36246,35.10929 -0.38419,70.22052 -0.63242,105.33066 -0.26776,20.36189 -0.72685,40.73966 -2.25949,61.0522 -0.76429,10.12952 -1.25806,13.91391 -2.34004,23.80286 -1.75452,14.92995 -4.12754,29.78525 -7.32561,44.47392 -0.86502,1.37707 -0.77038,5.69464 -1.91644,7.01328 -0.11725,0.13491 0.0181,-0.3649 0.0897,-0.52866 0.57124,-1.3062 1.00307,-2.70476 1.83174,-3.86485 1.89013,-2.64609 4.17897,-4.98335 6.26846,-7.47503 9.95059,-6.0881 6.91449,-5.49446 18.13505,-7.57031 1.11653,-0.20656 3.2393,0.95419 3.40218,-0.16954 0.16206,-1.11801 -2.1528,-0.68581 -3.2279,-1.03277 -7.57436,-2.4444 -6.60526,-2.14292 -15.19062,-4.9801 -10.05666,-3.16347 -19.81672,-7.13061 -29.54441,-11.16574 -49.02256,-20.23091 -77.63337,49.09745 -28.61082,69.32835 v 0 c 11.41468,4.69106 22.8575,9.32664 34.63452,13.0538 3.88992,1.28402 14.4202,4.8021 18.50771,5.9912 6.38008,1.8561 14.74491,4.1491 21.34083,3.9633 14.81089,-0.417 15.19271,-2.444 27.76617,-9.14332 3.17409,-3.3704 6.68053,-6.45619 9.52226,-10.11118 1.7734,-2.28092 2.94638,-4.97737 4.22383,-7.56883 3.07158,-6.23102 4.36651,-13.19872 6.06929,-19.86866 3.72076,-17.26071 6.56587,-34.69858 8.58511,-52.24208 1.24097,-11.48796 1.75252,-15.37385 2.62921,-27.16752 1.61412,-21.71404 2.13094,-43.49437 2.40742,-65.26017 0.24691,-34.93519 0.27056,-69.87144 0.62688,-104.80581 0.30719,-21.90206 0.75771,-43.79921 1.74241,-65.6827 -0.004,-5.18813 0.21325,-8.88162 -0.82985,-14.12468 -2.13922,-10.75264 -7.88272,-20.22089 -16.82599,-26.66867 -4.26855,-2.72804 -3.01929,-2.08483 -6.33611,-3.82101 -0.24765,-0.12963 -0.9897,-0.51857 -0.75115,-0.37286 1.09499,0.66883 2.35935,1.2259 3.35597,2.06524 -5.48386,-3.96463 -11.4597,-7.20414 -18.14726,-8.60221 -1.6546,-0.30002 -3.30046,-0.65306 -4.9638,-0.90004 -5.72407,-0.84995 -11.57853,-0.60662 -17.33092,-1.06176 -18.82086,-0.53017 -37.62677,0.16165 -56.31754,2.59381 -26.72165,3.27026 -53.40063,7.04223 -79.70522,12.86348 -14.60824,3.23302 -29.34697,6.36906 -43.37482,11.67258 -50.32282,16.73659 -26.6537,87.90381 23.66912,71.16721 z"/>
<path d="m 454.56764,755.00939 c 14.57436,-0.30513 29.13206,-1.10143 43.70284,-1.53086 2.76412,-0.0339 5.52825,-0.0678 8.29237,-0.10162 53.0286,-0.68398 52.06131,-75.67774 -0.96728,-74.99376 v 0 c -3.18584,0.0429 -6.37167,0.0857 -9.55751,0.12861 -13.82696,0.4156 -27.64265,1.11309 -41.47042,1.49763 -53.03301,0 -53.03301,75 0,75 z"/>
<path d="m 437.00294,841.33016 c 15.37043,1.13491 30.79099,0.39862 46.17598,0.0485 10.27316,-0.15459 20.54778,-0.11964 30.82166,-0.11108 53.03299,0.043 53.09385,-74.95694 0.0609,-74.99997 v 0 c -10.86483,-0.009 -21.73048,-0.0443 -32.59444,0.13059 -10.13107,0.23204 -20.2501,0.63289 -30.38437,0.47636 -4.69968,-0.0726 -3.27182,-0.86178 -4.79766,0.0322 -52.62529,-6.56339 -61.90733,67.86002 -9.28203,74.42341 z"/>
</svg>
