<?xml version="1.0" ?>
<svg xmlns="http://www.w3.org/2000/svg" width="1000" height="1000">
<path d="m 108.49157,305.70093 c 2.34639,20.1425 4.29229,40.38562 5.01657,60.66039 0.30665,8.58409 0.30266,17.17646 0.45399,25.76469 0.39058,63.69893 -5.68697,127.36538 -18.941935,189.69704 -3.04296,14.30952 -6.80646,28.45628 -10.20968,42.68442 -10.591454,42.69849 -25.276947,84.16145 -40.162624,125.49564 -35.5598308,98.74167 5.992282,-17.4514 -27.651931,76.79688 -17.82879579,49.94631 52.805955,75.16004 70.634755,25.21373 v 0 c 4.38056,-12.2724 8.72718,-24.55697 13.141675,-36.8172 20.60457,-57.22447 42.40801,-114.15952 56.99987,-173.32287 3.6665,-15.47437 7.72185,-30.86174 10.99949,-46.42312 14.17199,-67.28489 20.63862,-135.99915 20.17719,-204.73103 -0.18936,-9.57523 -0.2128,-19.15517 -0.56807,-28.72568 -0.84395,-22.73455 -3.01411,-45.44682 -5.81111,-68.01558 -8.28919,-52.38119 -82.36739,-40.6585 -74.07819,11.72269 z"/>
<path d="m 236.05555,268.0669 c 16.73498,-3.67792 33.6775,-6.26832 50.67303,-8.37772 15.82015,-1.75805 31.71074,-2.80256 47.61395,-3.40582 7.0579,0.12502 -4.0572,-0.003 -6.98622,-1.60416 -5.81729,-3.17997 -11.13552,-7.30956 -16.00111,-11.81279 -1.85603,-1.71781 -1.80322,-5.04059 -3.83516,-6.54622 -1.04463,-0.77405 0.16894,2.59481 0.25341,3.89221 3.47022,40.41312 3.35616,81.03176 3.79072,121.56032 0.92441,67.72925 0.91948,135.4646 0.40225,203.1967 -0.46788,44.51865 -0.87349,89.05862 -3.4776,133.51604 -1.53758,26.2496 -2.198,31.10276 -4.57226,56.72312 -3.74575,36.38575 -9.04589,72.58388 -15.58089,108.56683 -1.31389,7.03312 -2.74366,14.04367 -4.09724,21.06909 -0.25879,1.34322 -0.4851,2.69283 -0.76438,4.03194 -0.057,0.27326 -0.34563,1.06105 -0.24362,0.80121 1.22436,-3.11864 2.40769,-6.25323 3.61154,-9.37985 8.5014,-5.74297 17.0028,-11.48593 25.50419,-17.2289 3.10736,-0.0567 6.58717,1.30596 9.32208,-0.17023 1.6066,-0.86718 -3.36746,-1.41196 -5.04164,-2.14018 -9.00163,-3.91552 -15.94847,-6.94202 -24.91092,-11.49896 -5.52548,-2.80942 -10.93185,-5.8472 -16.39777,-8.77079 -24.38819,-14.71269 -11.97604,-6.93452 -37.18951,-23.40922 -44.42833,-28.959 -85.38254,33.87214 -40.95422,62.83114 v 0 c 28.66134,18.64111 14.35099,9.72861 42.90278,26.78288 6.4613,3.42528 12.85553,6.98018 19.38389,10.27586 7.86327,3.96957 21.44757,10.22501 29.99296,13.69359 7.54798,3.06372 23.28195,9.3046 30.83382,6.98428 11.16922,-3.43175 20.15825,-11.82194 30.23737,-17.73292 1.86476,-4.18901 3.93298,-8.29324 5.59426,-12.56703 0.4825,-1.24126 1.42882,-6.57099 1.73282,-8.14905 1.41533,-7.34684 2.91259,-14.67771 4.27884,-22.03406 6.91255,-38.13581 12.53058,-76.49793 16.46815,-115.06195 2.49712,-27.15334 3.18943,-32.26288 4.80316,-60.0139 2.64397,-45.46764 3.09355,-91.01756 3.56202,-136.54733 0.51874,-68.19089 0.52607,-136.38504 -0.4044,-204.57307 -0.46796,-43.5758 -0.32107,-87.26851 -4.44755,-130.69216 -1.4186,-9.16501 -2.36321,-21.2839 -8.29735,-28.92783 -5.16421,-6.65214 -11.97139,-12.06365 -19.12338,-16.5099 -6.0956,-3.7895 -16.05869,-3.52049 -23.21761,-3.49983 -18.05542,0.69645 -36.09661,1.89106 -54.05377,3.93082 -19.96567,2.51385 -39.88437,5.55331 -59.51654,10.02759 -51.45634,12.83533 -33.30444,85.60558 18.1519,72.77025 z"/>
<path d="m 195.29784,445.44585 c 21.47847,-5.94852 43.43619,-10.08758 65.55534,-12.77195 6.5521,-0.79515 13.13011,-1.35986 19.69516,-2.03979 26.65823,-1.79755 13.28505,-1.22312 40.1199,-1.71444 53.02191,-1.08472 51.48789,-76.06903 -1.53403,-74.98431 v 0 c -31.33376,0.69816 -15.86624,-0.0215 -46.40493,2.10744 -7.46414,0.79069 -14.94368,1.44751 -22.39243,2.37205 -26.11575,3.24151 -52.04671,8.22146 -77.36412,15.4308 -50.62899,15.78623 -28.30388,87.38644 22.32511,71.6002 z"/>
<path d="m 150.8218,614.23055 c 6.15532,-0.51386 7.00871,-0.5108 14.43543,-1.65071 9.57641,-1.46986 23.45282,-4.09994 32.58868,-5.79622 15.47933,-2.87411 30.95264,-5.7806 46.42886,-8.67144 21.36427,-3.81174 33.54993,-6.25793 55.25817,-8.99799 9.67632,-1.22137 19.39993,-2.03331 29.0999,-3.04996 52.7378,-5.58787 44.83536,-80.17038 -7.90244,-74.58252 v 0 c -10.74281,1.14938 -21.51114,2.08114 -32.22843,3.44813 -22.85486,2.91513 -35.66451,5.47071 -57.99841,9.45749 -15.42362,2.88101 -30.84484,5.77492 -46.27104,8.64213 -8.2101,1.52598 -20.24256,3.80096 -28.97032,5.21937 -5.05897,0.82217 -5.00532,0.76285 -9.10883,1.12716 -52.930175,3.30108 -48.261745,78.15564 4.66843,74.85456 z"/>
<path d="m 564.70503,182.03349 c 14.15418,7.75553 28.32038,15.62001 42.44272,23.47732 12.3703,7.76188 6.81201,3.58609 16.85506,12.28389 41.15732,33.44511 88.45584,-24.76012 47.29853,-58.20523 v 0 c -18.79873,-14.79167 -9.48714,-8.36932 -27.68961,-19.6178 -16.69514,-9.28859 -33.26572,-18.86057 -50.40496,-27.31145 -49.05431,-20.153777 -77.55605,49.21949 -28.50174,69.37327 z"/>
<path d="m 380.82907,249.50518 c 2.67268,25.40116 5.63022,50.77071 8.39124,76.16217 2.27792,20.07114 4.15866,40.2837 8.46892,60.05835 1.50025,6.88288 3.49552,13.64846 5.24328,20.47269 13.43117,51.30403 85.98603,32.30948 72.55486,-18.99455 v 0 c -1.33012,-4.93256 -2.87449,-9.81228 -3.99035,-14.79768 -4.03751,-18.03857 -5.59139,-36.52942 -7.71642,-54.84825 -2.76921,-25.45507 -5.73103,-50.88865 -8.41228,-76.35337 -5.86944,-52.70721 -80.40869,-44.40656 -74.53925,8.30064 z"/>
<path d="m 528.39591,305.60998 c 30.12727,-6.47277 60.41353,-12.10535 90.75639,-17.46186 46.83582,-8.01769 94.20389,-13.82517 141.75525,-14.90025 8.4711,-0.19153 16.94652,-0.004 25.41978,-0.006 23.10705,0.6009 46.30202,2.24016 68.87635,7.46347 7.44188,1.72192 8.95523,2.36361 15.61542,4.56155 2.22239,1.26585 5.34141,1.68047 7.34161,3.46289 0.0617,0.055 -0.1728,0.009 -0.24614,-0.0289 -0.34036,-0.17643 -0.67377,-0.37199 -0.9778,-0.60553 -0.76762,-0.58962 -1.48715,-1.23934 -2.23072,-1.85901 -8.66857,-11.84912 -7.36134,-7.5469 -10.3732,-23.68709 -0.2602,-1.39435 1.13629,-3.36815 0.0294,-4.25518 -0.86915,-0.69653 -1.36859,1.76019 -1.98585,2.68733 -2.21479,3.32666 -4.26644,6.76074 -6.50746,10.06978 -3.50654,5.1777 -7.15509,10.25778 -10.73264,15.38666 -19.57952,26.63745 -9.37288,12.91254 -30.65298,41.15014 -31.91308,42.35629 27.98776,87.4882 59.90084,45.13191 v 0 c 22.23239,-29.51394 11.45282,-15.00306 32.36325,-43.5144 7.39126,-10.69138 16.52249,-23.18114 22.75448,-34.7701 4.10259,-7.62915 9.86935,-20.0124 9.7835,-29.2197 -0.062,-6.6454 -1.0443,-13.41003 -3.29553,-19.6628 -1.67196,-4.6439 -5.4789,-8.21137 -8.21836,-12.31705 -1.47629,-1.35329 -2.892,-2.7758 -4.42888,-4.05987 -8.61402,-7.19701 -19.25185,-11.48119 -29.64895,-15.3356 -10.18103,-3.19957 -12.75114,-4.22147 -23.72694,-6.66765 -27.48812,-6.12631 -55.64902,-8.33679 -83.75604,-8.93073 -9.53619,0.0261 -19.07514,-0.15279 -28.60857,0.0784 -50.8169,1.23228 -101.43851,7.39298 -151.49492,15.97058 -31.13513,5.50211 -62.21293,11.28405 -93.12891,17.92044 -51.90037,10.90187 -36.4828,84.30009 15.41758,73.39822 z"/>
<path d="m 521.24111,341.14274 c -8.57109,21.90758 -16.18777,44.17308 -24.56691,66.1538 -3.3946,8.90491 -6.93073,17.75522 -10.39609,26.63283 -21.98065,55.35114 -47.42916,109.2456 -74.92909,162.05322 -5.45935,10.4835 -11.15742,20.84095 -16.73612,31.26142 -20.35999,35.76153 -10.40325,18.66248 -29.79644,51.34002 -27.05564,45.61241 37.45005,83.87486 64.50569,38.26245 v 0 c 20.4052,-34.4176 9.90359,-16.36021 31.4206,-54.22108 5.83358,-10.90976 11.78874,-21.75538 17.50076,-32.72928 28.61211,-54.96948 55.03599,-111.09521 77.90571,-168.7082 3.61779,-9.27846 7.30784,-18.52906 10.85337,-27.83536 12.54996,-32.9411 4.64242,-12.99531 14.98199,-40.95564 16.85741,-45.58591 -4.36571,12.57211 8.65449,-22.59888 0.71962,-1.9439 1.37111,-3.91236 2.05666,-5.86853 16.11268,-50.52605 -55.34195,-73.31282 -71.45462,-22.78677 z"/>
<path d="m 567.10725,461.93507 c 12.78504,-3.32665 26.15169,-3.61284 39.28866,-3.58306 10.32418,0.34058 20.62893,1.55368 30.57835,4.37669 0.74015,0.2267 1.4803,0.4534 2.22045,0.6801 0.15014,0.0724 0.61038,0.26422 0.45042,0.2173 -14.13466,-4.14606 -17.49744,-17.34344 -22.16337,-30.17261 -0.73287,-2.01505 0.0559,-4.288 0.0839,-6.432 -5.80939,24.27234 -11.7076,48.51098 -18.63805,72.49561 -2.5248,8.73772 -5.20496,17.42981 -7.80744,26.14472 -17.55489,54.44148 -39.23871,107.52708 -63.8104,159.16836 -5.16508,10.85521 -10.62471,21.56781 -15.93706,32.35172 -15.17954,29.37746 -31.8494,58.06442 -50.60272,85.32111 -5.41539,7.87091 -10.94462,15.67915 -16.90807,23.14339 -5.25525,6.57781 -11.14166,12.62554 -16.7125,18.9383 -34.86055,39.96551 21.65922,89.26577 56.51977,49.30026 v 0 c 6.94462,-8.03545 14.24206,-15.77902 20.83387,-24.10634 6.75243,-8.53023 13.01356,-17.44545 19.16252,-26.42044 20.37708,-29.74229 38.49125,-61.02777 54.99914,-93.05853 5.60155,-11.39208 11.35738,-22.70958 16.80466,-34.17622 26.0463,-54.82803 48.98473,-111.20443 67.52038,-169.01956 2.73562,-9.17737 5.5534,-18.33065 8.20686,-27.53211 7.23599,-25.09229 13.40626,-50.44713 19.48303,-75.83667 0.57589,-4.5409 2.7519,-9.1615 1.72766,-13.62271 -2.1408,-9.32454 -5.74562,-18.502 -10.94665,-26.53191 -4.61521,-7.12545 -16.86736,-10.8074 -24.86085,-13.2385 -16.46333,-4.36677 -33.35342,-6.76794 -50.40685,-6.98968 -20.12598,0.12436 -40.47387,1.01061 -59.95346,6.54434 -50.93887,14.75573 -30.07111,86.79417 20.86776,72.03844 z"/>
<path d="m 500.64601,624.05675 c 19.9736,10.79117 39.90469,21.65887 59.90248,32.40604 15.76625,8.82456 8.1957,4.4691 22.73139,13.03197 45.71336,26.88473 83.7341,-37.76373 38.02074,-64.64846 v 0 c -16.31468,-9.58085 -7.9037,-4.75615 -25.2481,-14.4476 -20.97171,-11.27057 -41.83289,-22.74611 -62.85956,-33.91188 -47.77915,-23.01417 -80.32611,44.55576 -32.54695,67.56993 z"/>
<path d="m 706.14089,539.48761 c 14.91616,-7.18636 30.55086,-12.92297 46.44128,-17.55509 5.06689,-1.47701 10.1997,-2.71768 15.29954,-4.07652 21.0317,-4.79171 42.44898,-9.46691 64.14929,-9.13905 2.26527,0.0342 4.52363,0.25935 6.78545,0.38903 3.22299,0.43534 4.82335,0.48865 7.71321,1.33788 0.38857,0.11419 1.37667,0.18056 1.11279,0.48779 -0.29324,0.34141 -0.91121,-0.0694 -1.32946,-0.23553 -1.26545,-0.50279 -2.57792,-0.9685 -3.68749,-1.75783 -2.28222,-1.62354 -4.27582,-3.6187 -6.41373,-5.42805 -1.94611,-3.26646 -3.89221,-6.53292 -5.83831,-9.79937 -0.46254,-1.64929 -0.52789,-3.46632 -1.38762,-4.94786 -0.33378,-0.57517 -0.27476,1.30381 -0.34315,1.96529 -0.26952,2.60641 -0.43654,5.22244 -0.66997,7.83233 -1.07908,12.06505 -1.1846,12.75625 -2.46878,25.61781 -3.24052,33.05896 -7.71163,65.97014 -13.81348,98.62046 -2.03849,9.52128 -4.00422,19.15604 -7.62217,28.2385 -0.56887,1.4281 -1.19616,2.84183 -1.97308,4.16828 -0.20732,0.35397 -0.91041,1.20819 -0.93618,0.79879 -0.0469,-0.74473 0.57084,-1.37893 0.85626,-2.06839 1.4934,-1.5102 2.9868,-3.02041 4.4802,-4.53062 1.48314,-0.88578 3.17887,-1.48685 4.4494,-2.65733 0.2621,-0.24146 -0.28228,-0.75274 -0.61795,-0.87239 -1.87187,-0.66723 -3.87919,-0.87355 -5.79195,-1.41244 -10.01954,-2.82283 -9.26509,-2.83811 -19.40549,-6.84455 -3.58121,-1.8473 -7.16241,-3.69461 -10.74362,-5.54192 -47.48718,-23.61076 -80.87784,43.54625 -33.39066,67.15701 v 0 c 5.82043,2.82722 11.64085,5.65443 17.46128,8.48164 5.44944,2.02396 10.81515,4.28952 16.34833,6.07189 21.24008,6.84194 45.68544,11.6034 66.93429,1.82147 5.31465,-2.44661 9.67544,-6.58114 14.51316,-9.8717 2.89247,-3.41911 6.08172,-6.60778 8.6774,-10.25731 4.1837,-5.88231 7.62453,-13.57992 10.15269,-20.31772 4.69259,-12.50623 7.66147,-25.5734 10.33969,-38.6282 2.76072,-14.86314 3.47346,-18.07362 5.81571,-33.36082 3.6402,-23.75865 6.3728,-47.65028 8.89568,-71.54911 1.2165,-12.20273 2.69033,-24.4569 3.39213,-36.70616 0.42876,-7.48353 0.90389,-16.10238 -1.49244,-23.34044 -1.78135,-5.38049 -5.01436,-10.16601 -7.52154,-15.24902 -3.18041,-3.09751 -6.06778,-6.52761 -9.54123,-9.29251 -2.52613,-2.01082 -5.44323,-3.49819 -8.334,-4.93632 -10.67865,-5.31251 -22.79742,-6.80444 -34.49495,-7.91981 -11.49446,-0.4253 -13.59278,-0.76588 -25.51135,-0.0445 -23.07093,1.39644 -45.82461,5.88108 -68.24863,11.30018 -6.22966,1.6918 -12.49832,3.24604 -18.68899,5.07538 -19.02361,5.62148 -37.70725,12.5964 -55.59947,21.16875 -47.94753,22.6613 -15.89962,90.46935 32.04791,67.80805 z"/>
<path d="m 650.59093,597.94531 c -0.13589,23.38371 -1.68638,46.74072 -2.94457,70.0846 -1.51855,30.24327 -3.50686,60.48627 -3.7392,90.77796 -0.0423,5.51013 0.0517,11.02047 0.0776,16.5307 0.72294,26.3307 3.74286,53.55302 16.60621,77.07936 2.73061,4.99412 6.18794,9.55506 9.28192,14.3326 4.13471,4.42902 7.88137,9.2551 12.40413,13.28707 14.37136,12.81187 31.87923,20.92167 50.0851,26.62228 14.20354,4.4474 22.97002,5.73568 37.52098,8.56717 33.13418,5.54022 66.6746,7.87174 100.10502,10.82978 10.04683,0.86632 20.0758,1.94281 30.12496,2.78331 2.29785,0.19219 4.59319,0.45859 6.89836,0.51606 3.03353,0.0756 6.13232,0.50339 9.10267,-0.11715 6.471,-1.35188 12.65357,-3.83318 18.98035,-5.74977 6.30018,-6.73018 14.06051,-12.34441 18.90055,-20.19054 5.85045,-9.4841 7.85964,-30.3301 8.8023,-41.06208 0.69459,-7.90788 1.06654,-15.84199 1.43073,-23.77195 0.81359,-17.71488 1.19523,-39.55814 1.59167,-57.17898 1.189,-53.01968 -73.79215,-54.70117 -74.98114,-1.68149 v 0 c -0.39729,17.77529 -0.72037,36.69293 -1.48381,54.50249 -0.28637,6.68068 -0.6627,13.35798 -1.1187,20.02923 -0.27482,4.02075 -1.30611,8.01923 -1.07349,12.04264 0.034,0.58839 1.17327,-0.11343 1.75991,-0.17015 4.30416,-3.24708 8.60833,-6.49416 12.91249,-9.74123 3.78074,-0.65689 7.55262,-1.36701 11.34223,-1.97065 0.22473,-0.0358 -0.402,0.26958 -0.6295,0.26424 -1.87963,-0.0441 -3.75184,-0.25419 -5.62544,-0.41093 -10.11572,-0.84627 -20.211,-1.9314 -30.3246,-2.80125 -30.93211,-2.73623 -61.9636,-4.87329 -92.65055,-9.79113 -12.41141,-2.30967 -24.71276,-4.51659 -36.61814,-8.84825 -3.72693,-1.35601 -8.54379,-3.46687 -11.9996,-5.68531 -1.30468,-0.83753 -2.46363,-1.88284 -3.69545,-2.82426 -1.08104,-1.28234 -2.31457,-2.45029 -3.24311,-3.84702 -8.37851,-12.60314 -8.68178,-30.94715 -9.40714,-45.41811 -0.21175,-34.32886 1.58451,-68.60433 3.55404,-102.86885 1.37493,-25.51858 3.11175,-51.05907 3.0114,-76.62486 -1.77093,-53.00343 -76.7291,-50.49896 -74.95817,2.50447 z"/>
</svg>
