<?xml version="1.0" ?>
<svg xmlns="http://www.w3.org/2000/svg" viewBox="0 0 1000 1000">
<path d="m 117.83656,136.96556 c 5.63839,19.06236 9.87168,38.51427 12.44075,58.2348 0.93987,7.21459 1.57,14.46615 2.355,21.69922 3.51557,42.69434 1.97543,85.6358 -1.71083,128.26326 -1.20662,13.95321 -2.58757,27.89514 -4.30474,41.79476 -1.81322,14.67706 -4.18958,29.27905 -6.28436,43.91857 -10.04353,62.94872 -24.267496,125.14052 -41.152068,186.58683 -4.092145,14.89213 -8.288644,29.75861 -12.796712,44.53016 -4.228697,13.85613 -8.939892,27.56039 -13.409838,41.34059 -8.992848,25.23743 -16.369934,47.55832 -27.213168,71.97852 -4.356688,9.81175 -9.491303,19.25929 -14.236954,28.88894 -23.295828,47.64246 44.080792,80.58774 67.376619,32.94527 v 0 c 5.486483,-11.29616 11.387715,-22.40014 16.459445,-33.88849 11.567356,-26.20205 19.353236,-49.77692 28.965946,-76.81781 4.715,-14.5826 9.67887,-29.08707 14.14499,-43.7478 4.66743,-15.32154 9.01473,-30.74048 13.25186,-46.18654 17.61994,-64.23173 32.42091,-129.2516 42.8606,-195.05466 2.21434,-15.61633 4.72648,-31.19331 6.64302,-46.84897 1.80646,-14.75646 3.26173,-29.55688 4.52383,-44.36983 4.00945,-47.05775 5.49828,-94.45758 1.42903,-141.56653 -0.94146,-8.39792 -1.70115,-16.81821 -2.82436,-25.19376 -2.93558,-21.88996 -7.53575,-43.54981 -13.76698,-64.73511 -12.88955,-51.442777 -85.64063,-33.214197 -72.75108,18.22858 z"/>
<path d="m 174.44868,164.17068 c 14.5868,0.0915 29.07972,-2.04164 43.49772,-4.00187 14.17897,-1.92774 19.83148,-2.79521 34.143,-4.89259 26.59829,-4.15015 53.35772,-7.09972 80.23828,-8.52118 4.91743,-0.22117 9.83862,-0.37236 14.76117,-0.39633 0.79078,-0.004 3.15825,0.14126 2.37163,0.0601 -1.60193,-0.16527 -3.20049,-0.36173 -4.80074,-0.5426 -19.76091,-10.14672 -15.32986,-4.37754 -26.20631,-22.73859 -0.61588,-1.03971 0.0426,-3.89284 -1.08528,-3.45904 -1.19857,0.46098 0.0449,2.56795 0.0636,3.85198 0.1646,11.26288 0.10991,7.34247 0.18319,20.50306 0.14552,45.04718 0.6128,90.09004 0.57791,135.138 -0.44509,69.82959 -1.31475,139.65848 -2.53177,209.47902 -0.90287,47.3374 -3.26376,94.64351 -7.4708,141.80439 -2.45578,27.52935 -3.51946,35.3466 -6.61953,62.37089 -5.23914,43.49917 -12.47283,86.71319 -19.50503,129.94663 -2.74349,17.29514 -5.65797,34.56251 -8.4563,51.84863 -0.0919,0.29113 -0.38139,1.15976 -0.27558,0.8734 4.78679,-12.95449 3.10686,-13.46821 18.90889,-23.42363 3.27634,-2.06413 7.73829,-1.25015 11.25864,-2.86328 0.80321,-0.36806 -1.53083,-0.89784 -2.35479,-1.21674 -3.32026,-1.28505 -6.70669,-2.39214 -10.06004,-3.58821 -17.36118,-6.55714 -33.55114,-15.67933 -49.82931,-24.47683 -46.68889,-25.15249 -82.25988,40.87557 -35.57099,66.02806 v 0 c 19.8467,10.66188 39.63612,21.60383 60.87874,29.32679 7.03575,2.38474 22.8761,8.34581 30.60898,8.65954 7.41379,0.30079 15.32978,0.92404 22.17505,-1.93901 17.96643,-7.5145 21.35309,-14.70454 27.11645,-29.87038 0.66942,-1.76153 0.7872,-3.68576 1.1808,-5.52864 2.79312,-17.26658 5.70782,-34.51356 8.44664,-51.78907 7.22115,-44.39793 14.63308,-88.77853 19.99061,-133.45216 3.21208,-28.08168 4.32422,-36.28499 6.86473,-64.88538 4.32856,-48.7297 6.76819,-97.60788 7.70146,-146.51841 1.22332,-70.23707 2.09975,-140.48252 2.54313,-210.72872 0.0336,-45.20947 -0.43118,-90.41382 -0.57911,-135.62248 -0.0316,-5.4263 -0.0565,-17.07249 -0.23683,-22.94355 -0.42555,-13.85137 -1.82743,-27.038567 -12.77434,-37.652477 -5.10306,-4.94782 -12.43183,-6.89479 -18.64774,-10.34218 -2.49833,-0.38077 -4.98407,-0.85608 -7.49499,-1.1423 -1.63319,-0.18617 -5.44945,-0.1736 -7.21245,-0.16209 -5.97845,0.039 -11.95525,0.22222 -17.92726,0.49875 -29.17762,1.57729 -58.23481,4.69877 -87.10931,9.20719 -21.01231,3.08135 -42.0286,6.44077 -63.20258,8.18583 -52.97324,-2.51701 -56.53283,72.398467 -3.55959,74.915477 z"/>
<path d="m 178.4073,367.00183 c 19.91522,0.33251 39.83418,-0.54872 59.7359,-1.20569 16.27702,-0.28654 8.30902,-0.1812 23.90388,-0.32466 53.03071,-0.49429 52.33167,-75.49103 -0.69904,-74.99674 v 0 c -16.61785,0.15681 -8.05802,0.0405 -25.67931,0.36223 -18.27387,0.60324 -36.56265,1.41685 -54.84861,1.20368 -53.00556,-1.70611 -55.41837,73.25507 -2.41282,74.96118 z"/>
<path d="m 203.27405,535.17776 c 21.26867,-4.08326 42.6163,-7.75715 63.94248,-11.52856 52.22269,-9.23532 39.16198,-83.08935 -13.0607,-73.85404 v 0 c -22.58748,3.9945 -45.21024,7.83449 -67.71059,12.29504 -51.68071,11.89976 -34.8519,84.98732 16.82881,73.08756 z"/>
<path d="m 506.79117,191.43997 c 29.13445,-3.20607 58.24334,-6.64206 87.36379,-9.97334 43.0209,-4.53742 86.22383,-7.97799 129.5055,-8.2777 6.87948,-0.0476 13.75891,0.10367 20.63836,0.1555 14.18686,0.0866 28.305,1.32999 42.39464,2.83821 52.74249,5.54349 60.58216,-69.04565 7.83968,-74.58914 v 0 c -16.52746,-1.711081 -33.08424,-3.157672 -49.71911,-3.247297 -7.55591,-0.04733 -15.11191,-0.201538 -22.66774,-0.14199 -45.624,0.359567 -91.16664,3.943407 -136.51556,8.748407 -29.98107,3.4298 -59.95715,6.91125 -89.94077,10.31348 -52.44885,7.84975 -41.34764,82.02362 11.10121,74.17387 z"/>
<path d="m 403.2808,310.61152 c 5.26707,11.26172 7.68865,23.65471 10.8429,35.6104 1.42768,5.4114 2.90251,10.81026 4.35376,16.21539 8.74383,32.00533 19.96348,63.24385 31.26204,94.41342 4.28019,11.60197 2.27912,6.18813 6.0007,16.24244 18.40953,49.73519 88.74572,23.70018 70.33619,-26.03501 v 0 c -3.64557,-9.8488 -1.7025,-4.59266 -5.82731,-15.7691 -10.57321,-29.16189 -21.12208,-58.37226 -29.33893,-88.30695 -1.39261,-5.18273 -2.8072,-10.35961 -4.17784,-15.5482 -4.95253,-18.74798 -9.21631,-38.02874 -18.91954,-55.04052 -27.0243,-45.63099 -91.55627,-7.41287 -64.53197,38.21813 z"/>
<path d="m 475.48553,343.87573 c 27.59705,-12.35275 57.81526,-16.84573 87.38286,-21.86635 38.55497,-5.94559 77.4017,-9.84218 116.34072,-12.11414 22.04876,-1.28646 33.13872,-1.49642 54.99958,-2.18802 34.61287,-0.99351 69.24256,-0.8264 103.85631,-0.0459 6.62548,0.47886 13.33345,-0.009 19.95127,0.63662 0.0639,0.006 -0.12243,0.0562 -0.18623,0.0491 -0.82107,-0.0921 -1.63633,-0.23023 -2.45449,-0.34534 -10.46296,-2.68573 -16.3479,-7.57041 -22.28164,-16.60378 -1.12866,-1.71824 -1.65201,-3.76507 -2.4747,-5.64905 -0.1621,-0.3712 -0.39788,-1.51317 -0.47968,-1.11647 -0.21815,1.05797 0.0278,2.16027 0.0417,3.2404 -0.24396,13.57996 -3.31931,26.91124 -6.76828,39.98242 -3.34853,12.69048 -6.84154,23.95921 -10.61801,36.58679 -5.53804,16.46178 -7.11551,22.32223 -13.98893,38.17268 -2.70522,6.23839 -5.77956,12.31014 -8.66934,18.46521 -22.38226,48.07842 45.61089,79.73172 67.99315,31.6533 v 0 c 3.47679,-7.5207 7.17277,-14.9439 10.43037,-22.56211 7.87318,-18.41219 9.80355,-25.43701 16.09701,-44.26249 9.87226,-33.08461 20.82088,-66.65699 20.44054,-101.57357 -0.55875,-9.37559 -0.86932,-19.35641 -5.61418,-27.8285 -5.16966,-9.2306 -9.6183,-13.54825 -18.76048,-18.52077 -2.66807,-1.45119 -5.7158,-2.05617 -8.57369,-3.08425 -1.80297,-0.34109 -3.59445,-0.74984 -5.40891,-1.02328 -8.91216,-1.34308 -18.03207,-0.5619 -26.98823,-1.1979 -35.97104,-0.80782 -71.95867,-0.97337 -107.9285,0.0648 -23.0764,0.73811 -34.46137,0.95289 -57.78572,2.32857 -41.43981,2.44414 -82.78007,6.63061 -123.80503,13.00767 -38.12856,6.55489 -77.05968,12.88509 -111.89515,30.64028 -46.07088,26.26736 -8.92322,91.42142 37.14765,65.15406 z"/>
<path d="m 542.94599,194.85279 c -1.37178,23.61925 -1.13553,47.29081 -1.00473,70.93722 0.43267,48.45609 0.707,96.91321 0.88207,145.37084 0.0196,7.50949 0.0392,15.01898 0.0588,22.52847 0.13836,53.03282 75.13811,52.83715 74.99974,-0.19568 v 0 c -0.0197,-7.5346 -0.0393,-15.0692 -0.059,-22.6038 -0.17532,-48.50742 -0.44936,-97.01433 -0.88276,-145.52019 -0.12565,-22.11559 -0.38083,-44.25626 0.88992,-66.34734 2.94829,-52.95099 -71.93572,-57.12051 -74.88401,-4.16952 z"/>
<path d="m 667.65076,182.19207 c 0.83676,26.68593 0.81336,53.39439 0.82686,80.09107 -0.0665,51.67308 -0.93991,103.33784 -1.93192,154.99976 -0.22803,8.32974 -0.45607,16.65949 -0.6841,24.98924 -1.44867,53.01322 73.52334,55.06194 74.97201,2.04872 v 0 c 0.23276,-8.53278 0.46552,-17.06556 0.69828,-25.59834 1.00113,-52.15515 1.88039,-104.31322 1.94572,-156.47963 -0.0161,-28.46748 0.0641,-56.95577 -1.0183,-85.40623 -3.78685,-52.89764 -78.5954,-47.54222 -74.80855,5.35541 z"/>
<path d="m 508.09848,510.84405 c 19.98128,-6.73298 40.64827,-11.30429 61.42699,-14.78216 7.40014,-1.23861 14.8421,-2.21299 22.26314,-3.31948 35.2379,-4.37044 70.67533,-6.93239 106.1613,-8.02635 19.79098,-0.61012 33.17808,-0.62853 52.88827,-0.80878 29.89709,-0.071 59.79242,0.32773 89.68427,0.84202 53.02517,0.91185 54.31472,-74.07706 1.28955,-74.98891 v 0 c -30.55292,-0.52515 -61.10945,-0.9308 -91.66773,-0.8499 -20.64327,0.19315 -34.47788,0.2123 -55.24835,0.86777 -38.19512,1.20536 -76.33999,3.99572 -114.25743,8.79762 -8.3603,1.26605 -16.74442,2.38372 -25.08089,3.79817 -24.54122,4.1639 -48.91289,9.73336 -72.49012,17.77029 -49.99224,17.69959 -24.96125,88.3993 25.031,70.69971 z"/>
<path d="m 605.3912,477.5531 c -0.0607,-0.25671 0.049,-0.64279 -0.18199,-0.77014 -0.17252,-0.0951 -0.18538,0.35449 -0.22036,0.54835 -0.2319,1.28512 -0.34096,2.59056 -0.5778,3.87478 -0.39795,2.15779 -0.83442,4.30919 -1.32592,6.44761 -1.77026,7.70216 -3.76627,14.88775 -5.8079,22.56773 -8.60708,30.76719 -21.2806,60.33418 -35.7522,88.7762 -3.16919,6.22861 -6.56752,12.33796 -9.85127,18.50694 -14.81783,26.74783 -30.69735,52.9305 -48.63722,77.70643 -3.36653,5.12252 -7.57797,9.59542 -11.33801,14.40556 -1.04176,1.3327 -2.48826,2.46254 -3.04436,4.06007 -2.74746,7.89274 -4.51469,16.09325 -6.77204,24.13988 10.06899,11.71275 18.65311,24.88731 30.20697,35.13824 1.09315,0.96988 15.15997,1.47326 18.00562,1.77505 11.44507,1.21379 22.49549,4.35756 33.59054,7.26069 35.42324,10.82001 69.47042,25.76981 102.44245,42.55573 7.22763,3.67956 14.35083,7.56074 21.52625,11.34111 27.06436,14.86878 53.25046,31.25184 79.76261,47.06767 45.54506,27.16887 83.96764,-37.24157 38.42258,-64.41044 v 0 c -27.66238,-16.50072 -54.98054,-33.60227 -83.26626,-49.03244 -7.79722,-4.09649 -15.53682,-8.30456 -23.39165,-12.28947 -37.54309,-19.0464 -76.36239,-35.89072 -116.77472,-47.85801 -14.88699,-3.79205 -19.93034,-5.44635 -34.61562,-7.86521 -1.10113,-0.18137 -16.34646,-2.29094 -19.95959,-2.07966 -0.82474,0.0482 1.57425,0.5018 2.36138,0.7527 8.87078,11.41471 17.74156,22.82941 26.61234,34.24412 -2.28264,7.48941 -4.37217,15.04042 -6.84791,22.46823 -0.17085,0.5126 -1.39964,1.64687 -1.05194,1.23328 5.18812,-6.17123 10.24843,-12.44436 14.94074,-19.007 19.88219,-27.60814 37.69256,-56.63054 54.07465,-86.44463 3.69706,-6.98322 7.52309,-13.89967 11.09117,-20.94967 16.58283,-32.76523 30.94615,-66.85031 40.76132,-102.27678 5.37673,-20.33234 11.87601,-41.24192 9.86095,-62.51734 -7.51684,-52.49759 -81.75965,-41.86717 -74.24281,10.63042 z"/>
<path d="m 716.91189,569.09172 c -1.35654,10.94049 -3.32192,21.79031 -6.41583,32.39251 -1.64886,5.65033 -3.5927,11.21036 -5.38905,16.81555 -2.64402,6.8891 -5.08528,13.85948 -7.93206,20.6673 -7.33685,17.54539 -14.77205,32.80677 -23.95463,49.55017 -10.02358,18.27687 -20.99431,36.4775 -33.21345,53.38599 -6.23505,8.62789 -13.12525,16.76286 -19.68787,25.14429 -20.59371,23.76655 -43.11022,45.88407 -68.85026,64.08236 -8.15627,5.76652 -16.85479,10.72502 -25.28218,16.08753 -44.57951,28.72573 -3.95519,91.77067 40.62432,63.04494 v 0 c 10.37096,-6.7506 21.07601,-13.0138 31.11287,-20.25181 30.47632,-21.97776 57.2697,-48.39879 81.60354,-76.92632 7.67126,-9.92493 15.71361,-19.5738 23.01378,-29.77478 13.58862,-18.9882 26.24739,-40.03412 37.40279,-60.54357 10.42659,-19.1695 19.03403,-37.00754 27.32684,-57.12326 3.3626,-8.1566 6.2369,-16.50605 9.35535,-24.75908 2.22578,-7.13225 4.65769,-14.20341 6.67734,-21.39675 4.60397,-16.39779 7.72554,-33.37447 8.6085,-50.39507 0,-53.03301 -75,-53.03301 -75,0 z"/>
<path d="m 443.48773,656.44416 c 27.19259,-4.31952 54.38181,-8.64605 81.63051,-12.61302 62.94612,-8.5402 126.28912,-13.71743 189.6604,-17.80365 49.05855,-2.44181 98.22927,-4.18994 147.35582,-2.99567 7.21883,0.17549 14.43143,0.55064 21.64714,0.82596 6.95798,0.47749 13.91595,0.95497 20.87393,1.43245 52.91151,3.58772 57.98532,-71.24046 5.07381,-74.82818 v 0 c -7.71036,-0.51712 -15.42072,-1.03424 -23.13108,-1.55136 -7.85888,-0.29121 -15.7146,-0.68618 -23.57664,-0.87363 -51.03471,-1.21677 -102.11417,0.58402 -153.07709,3.14638 -65.36954,4.22905 -130.71005,9.57853 -195.63665,18.43088 -26.56009,3.87066 -53.08039,7.98059 -79.56383,12.34126 -52.67138,6.18272 -43.92769,80.6713 8.74368,74.48858 z"/>
</svg>
