<?xml version="1.0" ?>
<svg xmlns="http://www.w3.org/2000/svg" width="1000" height="1000">
<path d="m 132.04146,207.65464 c 1.80264,23.54277 4.90473,46.95945 6.56405,70.51973 0.71765,10.18967 1.18791,20.39525 1.78186,30.59288 0.29238,12.30783 0.78405,24.61254 0.87713,36.92349 0.21502,28.44009 -0.50982,61.62039 -1.71671,89.85792 -1.6247,38.01279 -3.50067,66.82738 -7.47723,104.8181 -1.91381,18.2839 -4.4243,36.50042 -6.63645,54.75063 -7.03158,52.00735 -16.57563,103.69492 -29.049997,154.67842 -6.603638,26.98948 -13.976233,54.08038 -23.765941,80.1324 -4.004899,10.65769 -8.949054,20.93841 -13.423582,31.40762 -20.664869,48.8412 48.40702,78.06574 69.07189,29.22453 v 0 c 5.1906,-12.37421 10.89842,-24.54397 15.5718,-37.12265 10.48486,-28.22062 18.60174,-57.98487 25.71668,-87.17899 13.02619,-53.44922 22.99284,-107.63024 30.33754,-162.14419 2.29779,-19.07304 4.90782,-38.11105 6.89336,-57.21912 4.08858,-39.34671 6.06385,-69.74264 7.72782,-109.08519 1.25239,-29.61105 1.9859,-64.15514 1.72859,-93.94534 -0.11373,-13.1675 -0.65582,-26.32782 -0.98373,-39.49173 -0.6424,-10.86867 -1.1563,-21.74569 -1.92721,-32.606 -1.63905,-23.09036 -4.61115,-46.0461 -6.45672,-69.11252 -3.53555,-52.91503 -78.36869,-47.91501 -74.83315,5.00001 z"/>
<path d="m 273.20464,232.9899 c 10.37673,-2.98283 20.47104,-6.88356 30.91444,-9.65837 2.74451,-0.72921 5.52552,-1.31337 8.28828,-1.97006 14.05802,-2.76048 28.37719,-4.98828 42.74461,-4.69155 0.58863,0.0618 1.17726,0.12354 1.7659,0.18531 0.0303,0.0414 0.14197,0.12606 0.0908,0.12407 -1.76886,-0.0686 -4.44636,-0.87854 -5.68977,-1.44756 -7.72151,-3.53356 -7.04345,-4.00212 -13.38877,-10.19703 -5.90723,-10.26532 -3.01074,-4.00677 -5.73678,-11.93746 -0.0155,-0.0451 -0.067,0.0803 -0.0639,0.12786 0.0522,0.80075 0.15383,1.59751 0.22839,2.39649 0.34843,3.734 0.3752,4.09887 0.7284,8.0969 1.60601,24.07528 3.27377,48.1457 5.037,72.21066 4.11998,53.6367 5.20313,107.43692 6.37595,161.19919 0.88222,41.66914 1.54489,83.35067 1.204,125.0306 -0.20578,25.15987 -0.55777,35.73854 -1.15922,60.79545 -1.43586,51.2931 -3.13043,102.5787 -5.655,153.83044 -1.75054,26.53113 -2.21998,53.39674 -8.00815,79.45295 -0.39701,0.95979 -0.47738,2.12471 -1.19104,2.87937 -0.40097,0.42401 -0.14098,-1.22461 0.11987,-1.74665 1.04214,-2.08567 2.0457,-4.29852 3.71437,-5.9269 2.60768,-2.54471 5.85186,-4.34795 8.88439,-6.36766 1.00893,-0.67196 3.66255,-0.56508 3.21851,-1.69304 -0.60791,-1.54425 -3.0785,-1.24092 -4.61776,-1.86138 -19.51058,-6.90022 -37.72554,-16.88016 -55.96501,-26.53253 -46.88947,-24.77656 -81.92881,41.53516 -35.03934,66.31172 v 0 c 23.56634,12.43548 47.19089,25.19409 72.80549,32.97932 13.7965,2.9324 24.6777,6.85044 39.09013,3.21871 7.48176,-1.8853 14.69323,-5.25847 21.04388,-9.64029 8.49387,-5.86059 14.13452,-15.90455 17.94405,-25.16667 1.43588,-3.49107 2.22982,-7.21285 3.34473,-10.81928 0.74511,-3.58928 1.58998,-7.15928 2.23531,-10.76783 4.75776,-26.60434 5.624,-53.72499 7.32989,-80.63272 2.55181,-51.88222 4.27612,-103.7982 5.72419,-155.72232 0.61811,-25.87878 0.9708,-36.41517 1.18053,-62.42685 0.3409,-42.28009 -0.32617,-84.56175 -1.22168,-126.8309 -1.20186,-55.04499 -2.33743,-110.12726 -6.5586,-165.04331 -1.79073,-24.43986 -3.4631,-48.88666 -5.12785,-73.33459 -0.71862,-8.12383 -0.96692,-18.46854 -3.98057,-25.97119 -1.47436,-3.6705 -3.63967,-7.0241 -5.4595,-10.53615 -2.75072,-2.89988 -5.16102,-6.16573 -8.25215,-8.69963 -9.70889,-7.95868 -22.18381,-10.09351 -34.30249,-10.5343 -20.55567,-0.0553 -41.03643,2.3998 -61.11366,6.81234 -3.933,0.97147 -7.88703,1.86146 -11.79901,2.91442 -9.39901,2.52987 -18.61232,5.72523 -27.83455,8.82012 -51.45637,12.83518 -33.30469,85.60548 18.15168,72.7703 z"/>
<path d="m 216.91345,393.0672 c 13.79974,-3.72976 27.80274,-7.87401 42.16163,-8.6728 3.7442,-0.20829 7.49954,-0.0815 11.24931,-0.12219 53.01596,-1.34455 51.11448,-76.32044 -1.90148,-74.97589 v 0 c -6.07505,0.20843 -12.16415,0.16285 -18.22515,0.62531 -18.91795,1.44345 -37.42545,6.41614 -55.6093,11.54533 -50.62902,15.78616 -28.30402,87.3864 22.32499,71.60024 z"/>
<path d="m 222.39182,541.21247 c 19.73846,-8.82235 39.81596,-16.88183 59.74222,-25.27232 48.87619,-20.58199 19.76886,-89.70336 -29.10733,-69.12137 v 0 c -21.40282,9.01343 -43.0103,17.58913 -64.11613,27.28179 -47.45528,23.67481 -13.97404,90.78671 33.48124,67.1119 z"/>
<path d="m 500.74955,87.18608 c 0.75011,27.52029 3.0397,54.97544 4.94446,82.43299 2.08408,29.40868 3.11083,58.89952 2.37995,88.37917 -0.34713,14.00101 -0.82119,20.69453 -1.58704,34.34773 -0.32002,4.31534 -0.64004,8.63068 -0.96007,12.94602 -3.89755,52.88959 70.89964,58.40156 74.79718,5.51197 v 0 c 0.34896,-4.76271 0.69792,-9.52542 1.04688,-14.28814 0.82866,-14.98256 1.33619,-22.17997 1.69721,-37.58225 0.73889,-31.52313 -0.32742,-63.05753 -2.55393,-94.50489 -1.87616,-27.04499 -4.1361,-54.08586 -4.86877,-81.193298 -2.79357,-52.95938 -77.68944,-49.008683 -74.89587,3.950698 z"/>
<path d="m 585.98261,131.1881 c 21.7609,-2.83337 43.54477,-5.4547 65.35754,-7.85721 28.93014,-3.28601 57.98165,-5.14462 87.03599,-6.87921 8.13876,-0.42438 16.27374,-0.97087 24.4184,-1.28129 1.51798,-0.0579 5.19499,-0.41437 7.00019,0.0576 -7.67032,-0.51343 -15.34287,-4.47778 -20.5749,-10.09095 -3.67628,-3.94409 -5.83401,-9.092618 -8.254,-13.910761 -0.73242,-1.458224 -0.0815,-3.510403 -1.12585,-4.764257 -0.69594,-0.835536 -0.0849,2.173157 -0.12731,3.259736 -0.82163,31.890952 -2.30881,63.752652 -4.03867,95.605412 -1.65721,26.76885 -3.6362,53.53878 -6.97638,80.15798 -1.61609,12.87922 -2.33896,16.76983 -4.31619,29.09642 -8.36496,52.36914 65.6962,64.19898 74.06116,11.82984 v 0 c 2.20705,-13.86945 2.9697,-17.9673 4.77313,-32.43791 3.50083,-28.09041 5.61124,-56.33454 7.34804,-84.58126 1.78244,-32.85372 3.31298,-65.71742 4.14143,-98.610988 0.0231,-5.482603 0.42427,-14.487082 -1.42744,-19.454356 -2.28379,-6.12636 -4.9595,-12.344655 -9.19394,-17.326375 -7.49917,-8.822613 -17.82145,-12.227003 -28.62031,-13.557987 -13.86328,-0.848403 -27.71016,0.444971 -41.55727,1.14247 -30.3052,1.809475 -60.60567,3.77415 -90.78138,7.19719 -21.73122,2.396019 -43.43884,4.974144 -65.11458,7.830827 -52.73254,5.637297 -44.7602,80.212369 7.97234,74.575079 z"/>
<path d="m 582.17388,240.09231 c 12.91083,-0.48625 25.74023,-2.10533 38.59043,-3.34619 10.35618,-1.00003 16.09309,-1.45653 26.51217,-2.3416 11.81818,-1.05425 23.66565,-1.40341 35.51431,-0.88271 52.99305,2.05832 55.90396,-72.88517 2.91091,-74.94349 v 0 c -14.94003,-0.53001 -29.87905,-0.28074 -44.77832,1.09576 -20.37129,1.73313 -40.69661,4.00596 -61.08685,5.45466 -53.00725,1.65275 -50.6699,76.61632 2.33735,74.96357 z"/>
<path d="m 538.40079,338.99449 c 1.86042,0.0878 3.71889,0.24148 5.58125,0.26335 10.18663,0.11961 20.39771,-0.73009 30.53739,-1.57211 10.76106,-0.89363 21.51367,-1.88697 32.27433,-2.78537 26.46309,-1.94105 53.00004,-3.28248 79.54263,-3.15795 15.33217,0.0719 21.19853,0.46553 36.19998,1.11909 17.86996,1.32514 9.47738,0.53914 25.18767,2.24928 52.7325,5.63768 60.70538,-68.93734 7.97288,-74.57502 v 0 c -18.97112,-1.9982 -8.99259,-1.09795 -29.94408,-2.60525 -16.90491,-0.71586 -22.83362,-1.12147 -40.15724,-1.18444 -28.37913,-0.10317 -56.75148,1.32301 -85.04491,3.41458 -18.43714,1.54081 -36.87493,3.5993 -55.37464,4.14049 -52.81617,-4.79083 -59.59143,69.90252 -6.77526,74.69335 z"/>
<path d="m 474.94941,463.8591 c 25.95609,-8.11399 52.94069,-12.55614 79.64882,-17.40355 42.5126,-7.13895 85.20971,-13.30029 128.08529,-17.82175 30.82271,-3.25042 40.47221,-3.76168 71.25293,-6.10461 37.1511,-2.35821 74.52357,-3.4814 111.64186,0.0712 15.38812,1.47279 18.77966,2.35732 33.07298,4.94011 3.53291,0.84115 7.06582,1.6823 10.59873,2.52346 51.65111,12.02757 68.66066,-61.01814 17.00955,-73.04571 v 0 c -4.84701,-1.11021 -9.69402,-2.22042 -14.54102,-3.33063 -17.82347,-3.10098 -21.98515,-4.16016 -40.90522,-5.9043 -40.76479,-3.75791 -81.78944,-2.67775 -122.58326,-0.0367 -32.18189,2.46154 -41.95771,2.97629 -74.20774,6.389 -44.46654,4.70545 -88.74919,11.10043 -132.83704,18.52908 -30.18026,5.49367 -60.63399,10.64095 -89.90511,20.02725 -50.3228,16.73667 -26.65357,87.90385 23.66923,71.16718 z"/>
<path d="m 503.78894,450.33878 c -0.69374,5.55888 -0.80153,7.58762 -2.38118,13.58131 -6.59206,25.0123 -17.906,48.4259 -28.9097,71.7014 -16.66222,34.47982 -37.34382,66.7429 -58.86054,98.33841 -29.83154,43.84723 32.1778,86.0354 62.00934,42.18817 v 0 c 23.69939,-34.86481 46.39919,-70.50876 64.70162,-108.56846 3.9588,-8.4326 8.10022,-16.78186 11.87641,-25.29781 12.05145,-27.17808 23.0921,-55.5694 26.2725,-85.33636 4.67162,-52.82684 -70.03683,-59.43351 -74.70845,-6.60666 z"/>
<path d="m 545.09651,571.28982 c 23.14978,-6.29489 46.52183,-11.6105 70.00599,-16.49472 29.83762,-5.77597 60.02309,-9.56904 90.30995,-11.97777 19.1866,-1.52593 26.93459,-1.76456 46.04824,-2.70476 32.34663,-1.45253 64.72356,-2.65633 97.10305,-1.85312 6.06131,0.13463 12.11406,0.49587 18.15597,0.98503 0.30324,0.0246 3.80643,0.27564 4.82726,0.49486 0.23473,0.0504 -0.47938,-0.0276 -0.71907,-0.0413 -1.48799,-0.37782 -3.08128,-0.46637 -4.46397,-1.13347 -10.53304,-5.08183 -13.08324,-6.79358 -19.3683,-17.14653 -1.3572,-2.23563 -1.75921,-4.92604 -2.61923,-7.39594 -0.11155,-0.32038 -0.22029,-1.30486 -0.29516,-0.97398 -0.18621,0.82287 -0.038,1.68692 -0.057,2.53038 -0.99987,21.41088 -3.57466,42.72024 -5.66716,64.04445 -2.85373,30.47579 -5.32768,61.04573 -10.4806,91.24586 -1.08637,6.36696 -2.40199,12.69268 -3.60299,19.03902 -5.50347,25.31706 -11.75852,50.55994 -20.44492,74.99928 -5.15789,14.51183 -7.19285,18.50625 -13.2991,32.46883 -9.57547,20.25659 -20.56021,40.21913 -35.94235,56.71589 -1.85287,1.98713 -3.90164,3.78213 -5.85245,5.6732 -1.09637,0.76491 -4.17413,3.75016 -6.43692,3.42717 -0.11504,-0.0164 -0.73124,-1.43754 -1.06129,-1.70885 -1.70299,-1.39989 -6.56331,-3.15298 -7.56375,-3.57942 -13.59491,-6.21713 -26.52492,-13.84782 -39.22258,-21.70472 -6.11506,-3.78379 -12.29297,-7.48436 -18.1805,-11.61328 -5.59609,-3.92454 -10.8244,-8.34896 -16.2366,-12.52344 -42.19654,-32.12402 -87.62676,27.55089 -45.43022,59.67491 v 0 c 7.11529,5.36265 14.03555,10.99437 21.34589,16.08793 6.53844,4.55575 13.38181,8.65996 20.16814,12.8375 17.15156,10.55821 34.67099,20.72286 53.40469,28.24617 14.09671,4.3929 19.71422,7.2403 34.71507,7.51433 17.03711,0.31121 32.43839,-5.04891 46.38551,-14.56551 3.95644,-2.69962 7.43317,-6.04264 11.14975,-9.06397 9.60571,-9.77961 11.35533,-11.02266 19.98951,-22.0976 15.16895,-19.45702 27.27205,-41.05042 37.55374,-63.42824 7.37958,-17.07153 9.55127,-21.29524 15.79019,-39.02363 9.69388,-27.54596 16.7715,-55.95462 22.87736,-84.48161 1.35004,-7.22532 2.82512,-14.4284 4.05012,-21.67597 5.32382,-31.49785 8.02444,-63.35754 10.96591,-95.14059 2.33645,-23.8179 5.28542,-47.62646 6.02529,-71.56299 -0.10125,-8.56033 -3.4e-4,-17.90012 -4.10138,-25.76032 -6.29757,-12.07014 -10.70517,-15.43819 -22.43391,-21.36124 -2.24692,-1.13469 -4.82337,-1.44214 -7.23505,-2.16321 -11.5111,-2.0085 -23.2193,-2.40923 -34.87955,-2.81713 -34.21971,-0.80641 -68.43561,0.33908 -102.62024,1.92293 -20.341,1.01224 -28.71986,1.27586 -49.17848,2.92539 -33.12777,2.671 -66.14069,6.87651 -98.77037,13.24214 -23.60302,4.92569 -47.15532,10.09333 -70.38938,16.57565 -51.86092,11.08809 -36.18,84.4305 15.68092,73.34241 z"/>
<path d="m 583.35785,562.87454 c -0.53295,1.31563 -1.23043,2.56105 -1.74259,3.8846 -5.8674,15.16301 -3.25446,10.46878 -11.1514,27.70008 -7.43806,16.23002 -12.67173,25.68099 -21.09449,41.7852 -19.39884,34.62632 -41.29166,67.76511 -62.2954,101.42261 -28.07556,44.99181 35.55247,84.69665 63.62803,39.70484 v 0 c 22.01773,-35.2856 44.99135,-70.01676 65.15334,-106.41987 11.49276,-22.05359 22.98837,-43.98736 32.04729,-67.18872 4.17419,-10.69078 7.55334,-20.56917 9.67855,-31.84127 0.5608,-2.97451 0.51778,-6.03165 0.77667,-9.04747 0,-53.03301 -75,-53.03301 -75,0 z"/>
<path d="m 714.25303,578.37675 c -0.30371,2.97007 -0.69103,7.17053 -1.22939,9.86686 -3.88279,19.44682 -13.56325,37.33057 -22.22435,54.92019 -4.3124,7.51477 -8.40809,15.15812 -12.93719,22.54431 -16.80706,27.40948 -35.93166,53.38035 -55.79211,78.63171 -7.24384,9.21011 -14.57982,18.35084 -22.10816,27.3299 -7.55616,9.01225 -15.42557,17.75716 -23.13836,26.63574 -30.61091,33.13505 -15.59945,17.16 -44.98993,47.96689 -36.60127,38.37769 17.67298,90.1397 54.27425,51.76201 v 0 c 30.75891,-32.26187 14.95004,-15.42042 47.36719,-50.58008 8.27217,-9.54652 16.70947,-18.95242 24.81651,-28.63956 14.19705,-16.96412 32.99364,-40.91564 46.08053,-58.7343 13.12218,-17.8667 27.12835,-38.23233 38.64903,-57.23321 5.31674,-8.76884 10.11204,-17.84343 15.16806,-26.76514 3.85862,-7.95205 7.95341,-15.79379 11.57588,-23.85617 9.73198,-21.66005 17.60627,-44.46099 19.28221,-68.29646 3.92634,-52.88746 -70.86782,-58.44016 -74.79417,-5.55269 z"/>
</svg>
