<?xml version="1.0" ?>
<svg xmlns="http://www.w3.org/2000/svg" width="1000" height="1000">
<path d="m 468.0453,45.87019 c 0.21715,17.643616 0.3261,35.285975 0.28671,52.931332 -0.0627,16.036758 -0.0289,8.190288 -0.10054,23.539428 -0.24737,53.03244 74.75181,53.38227 74.99919,0.34984 v 0 c 0.072,-15.44847 0.038,-7.54063 0.10117,-23.723508 0.0387,-17.700553 -0.0613,-35.398395 -0.28653,-53.097092 0,-53.0330092 -75,-53.0330092 -75,0 z"/>
<path d="m 515.46584,108.60134 c 18.83636,-3.86519 37.92313,-6.36659 56.98948,-8.777788 22.16902,-2.25957 44.48793,-4.45574 66.80534,-3.75756 3.01423,0.0943 6.02161,0.3435 9.03242,0.51524 2.53966,0.23839 5.07932,0.47677 7.61897,0.71515 52.81765,4.774578 59.56992,-69.920849 6.75228,-74.695428 v 0 c -3.47363,-0.305203 -6.94725,-0.610406 -10.42088,-0.91561 -4.14718,-0.205799 -8.2907,-0.507846 -12.44155,-0.617399 -25.65298,-0.677053 -51.30136,1.652074 -76.77929,4.351144 -20.16125,2.561793 -40.34871,5.202824 -60.27206,9.267968 -52.26529,8.991065 -39.55,82.905353 12.71529,73.914283 z"/>
<path d="m 268.71329,224.33018 c 13.3769,-1.39528 26.43826,-4.80773 39.56289,-7.60123 17.23807,-3.66902 18.07386,-3.67464 36.54124,-7.05885 46.32643,-7.83491 93.08438,-12.98226 139.94668,-16.24348 10.8067,-0.75206 21.62599,-1.31087 32.43899,-1.96631 56.26,-3.31591 112.62358,-3.07981 168.95261,-2.91329 28.81328,0.17965 57.66766,0.34653 86.40969,2.578 3.768,0.36559 7.57258,0.62043 11.30368,1.30679 2.68173,0.49332 -5.62479,-0.80957 -7.80597,-2.44588 -5.87867,-4.41017 -10.61264,-10.16885 -15.91897,-15.25327 -1.13118,-8.08629 -2.26236,-16.17258 -3.39354,-24.25887 0.29672,-1.36201 2.27726,-4.22436 0.89018,-4.08604 -1.9684,0.19628 -2.62971,2.95663 -3.98779,4.39494 -2.9202,3.0927 -5.82758,6.19979 -8.84586,9.19684 -12.47086,12.38313 -16.21293,15.40042 -29.95709,27.74477 -11.37688,9.95363 -27.77758,24.52738 -39.52921,33.87711 -6.82899,5.43322 -13.9487,10.49065 -20.92305,15.73597 -42.32141,31.95931 2.87589,91.81083 45.1973,59.85151 v 0 c 7.99645,-6.05997 16.14416,-11.92536 23.98934,-18.17993 12.38701,-9.87555 29.41945,-25.01666 41.43829,-35.53788 16.11064,-14.52659 32.63297,-28.88438 46.82269,-45.37408 4.56081,-5.30007 16.06626,-19.5189 17.00167,-26.95686 1.25515,-9.98033 -1.14072,-20.08552 -1.71108,-30.12829 -5.76546,-5.99656 -10.75813,-12.84668 -17.29638,-17.9897 -2.94998,-2.32047 -6.98029,-2.77751 -10.55578,-3.91893 -1.42857,-0.45605 -2.93755,-0.60801 -4.41574,-0.86051 -5.48333,-0.93664 -11.04224,-1.39729 -16.57625,-1.89876 -30.57827,-2.31464 -61.26005,-2.67392 -91.91446,-2.7966 -57.92117,-0.17115 -115.8772,-0.37565 -173.7262,3.05122 -11.26312,0.68689 -22.53291,1.27203 -33.78937,2.06066 -49.42607,3.4628 -98.73947,8.93116 -147.59352,17.24488 -7.22759,1.33039 -14.46805,2.59262 -21.68276,3.99116 -15.5122,3.00698 -30.84652,6.85682 -46.4004,9.63893 -52.88875,3.90901 -47.36058,78.70499 5.52817,74.79598 z"/>
<path d="m 261.46814,198.56864 c -2.05351,24.25757 -9.94375,47.57174 -16.81567,70.77632 -19.40193,61.82618 -51.29583,118.51463 -82.75384,174.80421 -18.39917,31.62557 -36.60299,63.51624 -57.79809,93.39843 -5.966127,8.41143 -12.48181,16.41924 -18.722716,24.62887 -31.998492,42.2918 27.811146,87.5445 59.809636,45.2527 v 0 c 7.12703,-9.45853 14.54631,-18.70376 21.38109,-28.37558 22.25396,-31.49129 41.4639,-65.02364 60.80658,-98.3281 34.14291,-61.14596 68.4249,-122.85976 89.19605,-190.1038 8.65963,-29.29892 18.17301,-58.82501 19.85514,-89.54886 1.77073,-53.00344 -73.18745,-55.50762 -74.95818,-2.50419 z"/>
<path d="m 360.73932,333.09884 c 23.9874,-7.74116 49.02061,-11.73636 73.7976,-16.02917 46.12877,-7.77607 92.62727,-12.87442 139.18671,-17.18899 12.46753,-1.15049 24.94844,-2.118 37.44341,-2.90599 52.92636,-3.36159 48.17235,-78.21077 -4.75401,-74.84918 v 0 c -13.21837,0.84485 -26.42406,1.84993 -39.61352,3.07547 -48.54024,4.50286 -97.01427,9.85114 -145.10254,17.97596 -29.86513,5.2035 -60.09408,10.08849 -88.7582,20.26467 -49.2551,19.65796 -21.45454,89.31519 27.80055,69.65723 z"/>
<path d="m 393.13466,224.96785 c 2.02885,15.89521 1.89332,31.97767 1.98102,47.97122 -0.14834,25.499 -0.82857,50.99102 -0.68928,76.49144 0.15504,20.49498 2.8367,38.60056 21.22744,51.77245 4.79788,3.43635 10.73348,4.90969 16.10021,7.36453 4.88249,0.71164 9.72991,1.73138 14.64746,2.13491 5.84463,0.47959 18.71847,-0.13953 24.55571,-0.40878 14.74239,-0.68001 29.47644,-1.57073 44.20698,-2.46331 33.66539,-2.48358 67.3942,-3.77451 101.13566,-4.58592 4.30945,-0.0835 8.61889,-0.16707 12.92833,-0.2506 53.02301,-1.0295 51.56708,-76.01537 -1.45593,-74.98587 v 0 c -4.42656,0.0861 -8.85312,0.17217 -13.27967,0.25825 -34.65299,0.83716 -69.29353,2.15988 -103.86902,4.70171 -14.25093,0.86523 -28.5038,1.69599 -42.76436,2.38975 -3.22897,0.15708 -6.45914,0.28867 -9.68915,0.42263 -1.7731,0.0735 -3.61282,-0.28426 -5.32014,0.19986 -0.49142,0.13935 0.7892,0.64868 1.18381,0.97302 7.32894,4.74896 8.92379,4.68167 13.7167,13.2521 1.27531,2.28044 1.68007,4.95306 2.33733,7.48185 0.0784,0.30149 -0.0894,1.22683 -0.15311,0.9219 -0.4732,-2.2646 -0.47062,-8.16214 -0.50949,-9.6092 -0.15438,-25.50482 0.58967,-51.00126 0.6892,-76.50504 -0.13661,-21.59458 0.0941,-43.447 -3.98199,-64.74126 -12.17239,-51.61717 -85.1701,-34.40282 -72.99771,17.21436 z"/>
<path d="m 302.56864,446.88686 c -0.21797,22.44372 0.77541,44.86686 1.89811,67.2753 2.42921,41.40352 8.46432,82.46282 14.82606,123.40895 0.71311,4.50537 1.42623,9.01074 2.13934,13.51611 8.29147,52.38083 82.36915,40.65493 74.07769,-11.7259 v 0 c -0.70233,-4.4366 -1.40466,-8.87321 -2.10699,-13.30981 -5.96834,-38.37863 -11.69108,-76.8562 -14.03096,-115.66031 -1.0703,-21.15204 -2.01618,-42.31835 -1.80325,-63.50434 0,-53.03301 -75,-53.03301 -75,0 z"/>
<path d="m 368.46992,510.97764 c 1.37903,-0.43292 2.76999,-0.82952 4.13709,-1.29877 5.48523,-1.88275 10.84088,-4.12762 16.34206,-5.97125 8.14589,-2.72997 11.20085,-3.44312 19.9388,-5.87855 34.00303,-8.64648 68.97849,-12.11623 103.8552,-14.95251 33.58875,-2.40469 67.28044,-3.17045 100.94158,-2.39355 13.3038,0.45102 26.61648,1.49572 39.72069,3.88876 1.84056,0.37322 3.68858,0.71098 5.52891,1.08527 0.26214,0.0533 -0.53068,-0.0766 -0.78933,-0.14491 -4.25901,-1.12408 -3.09573,-0.91826 -8.36181,-3.3016 -10.29227,-8.6839 -9.53532,-6.18649 -15.17889,-17.07087 -0.6468,-1.24744 -0.70163,-2.7524 -1.37891,-3.98356 -0.22745,-0.41345 -0.0477,0.94358 -0.034,1.41527 0.0567,1.94158 0.19221,3.88038 0.24548,5.82206 0.0804,2.92976 0.10364,5.8608 0.15546,8.79121 0.16297,22.69878 -1.68838,45.38969 -5.11429,67.82306 -0.72294,4.73392 -1.61615,9.44026 -2.42422,14.16038 -2.88881,16.68002 -7.69502,32.87325 -14.27554,48.44398 -20.35272,48.9721 48.9043,77.75519 69.25701,28.78309 v 0 c 3.63618,-8.84754 4.89885,-11.50439 8.01265,-20.98554 4.69178,-14.28586 8.208,-28.92396 10.95017,-43.70192 0.93821,-5.57745 1.97354,-11.13942 2.81462,-16.73234 3.94242,-26.21587 6.00009,-52.72969 5.76551,-79.24448 -0.22207,-10.69698 0.17737,-27.48687 -3.94246,-37.43492 -5.20872,-12.5774 -6.77261,-11.7336 -17.21373,-20.95692 -2.24333,-1.06906 -4.43106,-2.26361 -6.73,-3.20717 -4.46858,-1.83403 -9.33547,-2.36373 -14.01613,-3.3767 -16.94056,-3.01417 -34.10809,-4.54991 -51.30491,-5.05319 -36.26307,-0.7964 -72.55747,-0.0199 -108.74016,2.62407 -39.66112,3.25937 -79.41266,7.40658 -118.02,17.4961 -11.04305,3.12006 -21.9239,6.34065 -32.70642,10.26588 -2.29322,0.83481 -4.62886,1.57344 -6.84982,2.58493 -0.0404,0.0184 0.0871,0.0176 0.13067,0.0264 -51.24989,13.63632 -31.96522,86.11461 19.28467,72.47828 z"/>
<path d="m 468.0453,476.05406 c 0,27.32132 0,54.64264 0,81.96396 0.0937,15.9974 -0.29119,31.98919 -0.73001,47.97852 -1.44579,53.0133 73.52634,55.05796 74.97213,2.04466 v 0 c 0.45195,-16.67084 0.85161,-33.34413 0.75788,-50.02318 0,-27.32132 0,-54.64264 0,-81.96396 0,-53.03301 -75,-53.03301 -75,0 z"/>
<path d="m 369.28457,593.02693 c 17.14075,-5.973 34.93508,-9.5571 52.69615,-13.11214 42.29451,-8.02817 85.14663,-12.24163 128.02077,-15.61577 27.04038,-1.60786 54.20013,-2.70313 81.29222,-1.72826 5.3991,0.19428 10.78699,0.62683 16.18049,0.94024 52.94962,2.97284 57.15384,-71.90923 4.20422,-74.88207 v 0 c -6.42151,-0.34994 -12.83733,-0.82773 -19.26453,-1.04981 -29.43437,-1.01703 -58.93698,0.17117 -88.31283,1.95236 -45.8517,3.62798 -91.67594,8.19759 -136.89606,16.85319 -18.98588,3.82854 -38.25289,7.44583 -56.57237,13.91036 -0.15754,0.0556 0.33316,-0.0255 0.49974,-0.0383 -51.45628,12.83555 -33.30408,85.60572 18.1522,72.77017 z"/>
<path d="m 393.37031,675.60209 c 19.48967,-5.3479 39.3256,-9.03502 59.24339,-12.35538 26.64811,-4.19665 53.47312,-7.30466 80.39263,-9.09308 13.43383,-0.89249 26.45695,-1.36347 39.89772,-1.92991 15.75024,-0.76861 31.51319,-0.52535 47.26854,-0.20217 53.02252,1.05434 54.51359,-73.93084 1.49106,-74.98518 v 0 c -17.30907,-0.33446 -34.62603,-0.58058 -51.92882,0.25434 -14.82901,0.6293 -27.76397,1.09167 -42.63844,2.09613 -29.08893,1.96434 -58.07619,5.33443 -86.871,9.89008 -21.56934,3.62735 -43.07129,7.59131 -64.18973,13.35593 -51.59704,12.25744 -34.2624,85.22669 17.33465,72.96924 z"/>
<path d="m 385.30694,695.06333 c 0,26.70309 0,53.40619 0,80.10928 0.004,38.14212 0.0699,76.28386 -0.18467,114.42529 -0.12791,16.40687 -0.24549,32.81381 -0.34801,49.22086 -0.33136,53.03197 74.66718,53.50058 74.99853,0.46861 v 0 c 0.10244,-16.39655 0.22005,-32.79298 0.34781,-49.18935 0.25522,-38.30814 0.19111,-76.61657 0.18634,-114.92541 0,-26.70309 0,-53.40619 0,-80.10928 0,-53.03301 -75,-53.03301 -75,0 z"/>
<path d="m 464.8878,741.79571 c 12.44631,-2.72845 25.10134,-4.13168 37.74563,-5.56182 13.95467,-1.5927 27.99109,-2.19089 42.02282,-2.55763 1.52467,-0.029 3.04927,-0.0622 4.57402,-0.087 3.42972,-0.0559 6.87564,-0.14504 10.30633,-0.074 0.30313,0.006 -0.60632,0.009 -0.90948,0.0129 -11.03091,-0.83473 -16.28474,-5.0773 -24.69414,-12.95562 -1.50267,-1.40776 -2.07941,-3.57566 -3.3892,-5.16445 -0.24288,-0.29461 0.0157,0.76574 0.074,1.14308 0.24689,1.59702 0.56055,3.18301 0.84083,4.77452 3.95385,25.43789 3.86956,51.25826 3.28336,76.92174 -1.35707,32.74294 -4.68446,65.37225 -8.92459,97.85621 -2.04605,14.79283 -4.48683,29.54051 -7.86311,44.09123 -0.11218,0.41006 -0.7582,2.80908 -0.94418,3.36206 -0.0903,0.26845 0.0986,-0.56269 0.20873,-0.82364 0.77984,-1.84831 1.10433,-4.01235 2.4568,-5.49398 4.86776,-5.33261 9.29397,-11.84857 15.94308,-14.66302 7.46739,-3.16082 16.14273,-1.55655 24.2141,-2.33482 1.98253,0.695 3.84947,2.19168 5.94758,2.085 1.30223,-0.0662 -2.15183,-1.47333 -3.21813,-2.22378 -2.00802,-1.41323 -4.00838,-2.83736 -6.00465,-4.26714 -14.66511,-10.5035 -2.02248,-1.60534 -20.00017,-14.12881 -43.52565,-30.29881 -86.37463,31.25576 -42.84898,61.55456 v 0 c 19.03826,13.24245 2.73713,1.8179 19.5095,13.78434 1.9406,1.38454 11.81027,8.4463 14.33063,9.8047 3.8122,2.05466 7.83829,3.68498 11.75743,5.52747 9.07941,-0.49143 18.72931,1.73125 27.23823,-1.47429 15.50433,-5.8409 21.04153,-19.8734 24.48492,-33.82489 3.89972,-16.93514 6.81605,-34.07747 9.1609,-51.29494 4.56372,-35.15618 8.16226,-70.46728 9.53419,-105.9061 0.13084,-6.29782 0.3564,-12.59439 0.39252,-18.89347 0.14242,-24.83352 -1.05486,-49.77833 -5.10216,-74.3048 -1.97004,-9.39096 -4.44655,-23.33744 -10.86673,-30.81881 -9.53914,-11.11587 -17.21995,-15.75494 -30.91305,-17.19068 -6.84991,-0.29163 -13.70545,-0.0969 -20.55855,0.0326 -16.19064,0.4315 -32.38378,1.16562 -48.48448,3.00808 -14.10682,1.60017 -28.23179,3.19414 -42.1266,6.18948 -52.25218,9.06695 -39.42958,82.96269 12.8226,73.89575 z"/>
<path d="m 466.34665,822.13373 c -0.47733,0.28494 -1.90473,0.56235 -1.43198,0.85483 0.57579,0.35623 1.30579,-0.35894 1.96165,-0.52713 1.31581,-0.33745 2.62468,-0.70628 3.95317,-0.98973 7.09089,-1.51293 14.32061,-2.16944 21.51705,-2.93916 18.95892,-1.83993 38.01454,-2.07778 57.04621,-2.09013 53.03299,-0.0432 52.9719,-75.04318 -0.0611,-74.99998 v 0 c -21.73947,0.0211 -43.50483,0.36495 -65.15439,2.53636 -18.26723,2.03863 -36.92054,4.20441 -53.68275,12.27912 -46.58124,25.35128 -10.7291,91.22711 35.85214,65.87582 z"/>
<path d="m 436.81102,902.83159 c 12.23532,-2.05657 24.62557,-2.84023 36.9934,-3.61467 23.80605,-1.30657 47.65297,-1.53874 71.4885,-1.76188 53.03067,-0.49753 52.32706,-75.49423 -0.70361,-74.9967 v 0 c -25.17697,0.2367 -50.36577,0.49838 -75.51021,1.90758 -13.54073,0.86099 -27.13539,1.67335 -40.53207,3.92235 -52.71009,5.84353 -44.44609,80.38685 8.26399,74.54332 z"/>
</svg>
