<?xml version="1.0" ?>
<svg xmlns="http://www.w3.org/2000/svg" width="1000" height="1000">
<path d="m 401.00581,53.46107 c -0.60045,0.887627 -1.14486,1.815858 -1.80134,2.662881 -1.85676,2.395669 -9.71396,11.049925 -10.04731,11.414258 -13.77352,15.053855 -28.31257,29.247664 -42.92026,43.486701 -18.81374,18.27947 -38.21731,35.93075 -57.63262,53.56372 -39.25564,35.65802 11.17242,91.17388 50.42806,55.51586 v 0 c 20.06873,-18.23252 40.12389,-36.48546 59.56977,-55.38708 15.89018,-15.50514 31.75402,-30.95455 46.66647,-47.41467 7.04305,-7.77401 10.16353,-11.28485 16.15575,-19.30173 0.94175,-1.259941 1.75244,-2.612723 2.62865,-3.919084 28.72328,-44.581084 -34.32389,-85.2019397 -63.04717,-40.620856 z"/>
<path d="m 252.50329,205.62298 c 1.52532,34.81519 7.35199,69.27607 12.71941,103.654 1.55758,9.55652 3.14611,19.10805 4.67276,28.66956 3.53847,22.16174 5.8718,36.95804 8.77493,59.2338 3.62683,27.82865 6.3439,55.73496 8.90915,83.67623 2.22271,25.09236 3.59089,50.24455 4.64636,75.40869 2.23005,52.9861 77.16372,49.83232 74.93366,-3.15378 v 0 c -1.11486,-26.40318 -2.55481,-52.79393 -4.89501,-79.12143 -2.68134,-29.12416 -5.5291,-58.20904 -9.31949,-87.21521 -2.98953,-22.87754 -5.40158,-38.19092 -9.0267,-60.89521 -1.50063,-9.39848 -3.06313,-18.78697 -4.59469,-28.18046 -4.9057,-31.37399 -10.3119,-62.81704 -11.8622,-94.58039 -1.77073,-53.00343 -76.72892,-50.49924 -74.95818,2.5042 z"/>
<path d="m 470.45181,248.39168 c 18.06129,-5.53891 36.86353,-8.20515 55.49284,-11.03033 33.69126,-4.91067 67.58236,-8.24302 101.58754,-9.84596 14.59827,-0.64316 29.21103,-0.32243 43.77703,0.75716 0.82884,0.0691 1.65768,0.13818 2.48652,0.20727 0.14042,0.0297 0.56401,0.10395 0.42127,0.089 -5.40109,-0.56581 -11.39476,-3.20415 -15.35146,-6.58229 -3.75784,-3.20836 -6.34592,-7.57556 -9.51888,-11.36335 -0.72166,-1.68385 -1.04992,-3.59801 -2.16498,-5.05156 -0.51388,-0.66986 0.15925,1.68109 0.22508,2.52279 0.17119,2.18894 0.36902,4.37641 0.48597,6.56892 0.76274,14.29974 0.58577,28.59332 0.48161,42.90638 -0.44004,50.40868 -5.37765,100.59511 -10.39441,150.70602 -3.91177,36.70603 -6.43781,73.56537 -11.78873,110.10827 -1.05332,7.19338 -2.34803,14.34933 -3.52205,21.524 -8.52123,52.34394 65.50429,64.39478 74.02552,12.05083 v 0 c 1.2862,-7.93789 2.70175,-15.85589 3.85861,-23.81366 5.42392,-37.30986 8.10631,-74.92392 12.05381,-112.40038 5.24525,-52.42263 10.33549,-104.92889 10.7655,-157.66227 0.10645,-16.54768 0.32883,-33.09621 -0.73685,-49.62259 -0.27302,-4.23404 -1.15275,-14.75907 -2.2791,-19.33291 -0.94718,-3.84629 -2.38435,-7.55508 -3.57653,-11.33263 -3.64464,-4.75665 -6.5337,-10.20213 -10.93392,-14.26997 -7.93192,-7.33276 -18.81821,-9.26089 -29.05444,-10.05121 -17.58233,-1.27734 -35.22033,-1.66099 -52.83919,-0.87235 -36.58667,1.76931 -73.05867,5.29021 -109.30593,10.61634 -23.57984,3.60845 -47.38903,7.13723 -70.07183,14.78002 -49.77641,18.29781 -23.8994,88.69227 25.877,70.39446 z"/>
<path d="m 345.90116,394.30367 c 14.8257,-3.78539 29.28542,-8.83601 44.15659,-12.48023 5.03682,-1.23428 10.11399,-2.29772 15.17098,-3.44657 38.08388,-7.80829 76.83032,-11.6443 115.55514,-14.4998 20.45725,-1.07475 10.62426,-0.64111 29.49729,-1.33823 52.99619,-1.97573 50.20209,-76.92366 -2.7941,-74.94794 v 0 c -20.57653,0.7736 -9.82674,0.29126 -32.24734,1.49137 -42.48517,3.16442 -84.9889,7.44646 -126.74089,16.18433 -5.93211,1.36579 -11.88704,2.63597 -17.79631,4.09737 -13.7102,3.39062 -27.13707,7.74333 -40.69944,11.64406 -51.82785,11.24165 -35.92976,84.53729 15.89808,73.29564 z"/>
<path d="m 351.68547,490.78973 c 20.09057,-1.92348 40.22607,-3.36105 60.33856,-5.04557 24.99758,-1.9394 49.96167,-4.38766 75.00625,-5.6779 14.76261,-0.76054 20.1556,-0.77878 34.61715,-1.09758 17.20919,0.0292 9.10213,-0.095 24.32219,0.3002 53.01651,1.32283 54.88727,-73.65384 1.87077,-74.97667 v 0 c -17.60435,-0.424 -8.31295,-0.29921 -27.87504,-0.30467 -15.95246,0.36359 -21.28172,0.37501 -37.60026,1.22396 -25.57646,1.33057 -51.07318,3.80229 -76.60162,5.79442 -20.28397,1.69936 -40.59085,3.15381 -60.85307,5.09044 -52.81619,4.7907 -46.04112,79.48406 6.77507,74.69337 z"/>
<path d="m 341.82012,601.24013 c 21.13786,-3.48875 42.39891,-6.24682 63.63159,-9.09801 36.79672,-4.63138 73.43017,-10.60958 110.31862,-14.50901 7.56999,-0.80021 15.1577,-1.4228 22.73655,-2.1342 23.9963,-1.98645 48.12697,-3.19801 72.19337,-1.77941 8.6969,0.51265 11.33802,0.97879 19.42485,2.02874 52.6196,6.60888 61.96596,-67.80648 9.34636,-74.41535 v 0 c -11.07924,-1.35769 -14.2778,-1.91642 -26.05669,-2.56425 -27.32181,-1.50266 -54.71006,-0.2293 -81.9492,2.06154 -8.14791,0.77164 -16.30513,1.45058 -24.44372,2.31492 -37.29962,3.96131 -74.348,9.96066 -111.5543,14.66454 -22.45103,3.01632 -44.93397,5.92474 -67.2748,9.67892 -52.15024,9.63601 -38.52286,83.38758 13.62737,73.75157 z"/>
<path d="m 208.10954,756.05597 c 1.1816,-0.4639 2.34325,-0.98223 3.54481,-1.39169 6.51517,-2.22016 13.18666,-4.00035 19.87056,-5.61845 13.89351,-3.36346 25.80692,-5.78692 40.05192,-8.26672 8.97992,-1.56325 17.99947,-2.88954 26.99921,-4.33431 63.03446,-8.93691 126.47856,-15.06718 190.05086,-18.50571 14.20703,-0.76843 28.4277,-1.25972 42.64155,-1.88958 52.54224,-1.76003 105.16045,-1.71804 157.68269,0.67555 27.55862,1.25592 34.36002,1.98496 60.94297,4.05258 31.99319,2.97631 16.38832,1.4437 46.81681,4.57529 52.75481,5.42496 60.42686,-69.1816 7.67205,-74.60657 v 0 c -31.54594,-3.24145 -15.31528,-1.65093 -48.69462,-4.74457 -27.99027,-2.16117 -35.11947,-2.92203 -64.09039,-4.23001 -54.5149,-2.46125 -109.12818,-2.49574 -163.66231,-0.64818 -14.70186,0.65635 -29.4108,1.16975 -44.10558,1.96905 -65.96142,3.58786 -131.78992,9.97348 -197.18598,19.30737 -9.72486,1.57261 -19.47229,3.01153 -29.17458,4.71781 -15.38828,2.70626 -30.27595,5.73434 -45.41509,9.49942 -10.59119,2.63401 -18.91402,4.98606 -28.96599,8.70016 -2.55321,0.94339 -5.01726,2.11244 -7.5259,3.16865 -47.77914,23.01421 -15.23213,90.58412 32.54701,67.56991 z"/>
<path d="m 458.93841,582.97355 c -1.11669,8.89062 -4.31575,17.40381 -7.27039,25.80356 -6.23949,17.73824 -5.52627,15.36063 -12.99257,34.19137 -14.11706,33.33916 -31.03733,65.56583 -51.13683,95.70837 -15.49538,23.23792 -22.06566,30.60106 -39.49635,52.62115 -20.95731,25.82017 -45.09877,48.64349 -70.71702,69.74813 -16.71038,13.76621 -32.53657,25.9666 -50.8307,37.53244 -8.23905,5.20886 -16.89139,9.73336 -25.33708,14.60004 -45.84513,26.65941 -8.14303,91.49419 37.7021,64.8348 v 0 c 10.10263,-5.91936 20.44291,-11.4506 30.30789,-17.75808 20.07142,-12.83328 38.90819,-27.27494 57.21845,-42.48134 29.35114,-24.37568 56.45667,-50.33604 80.53476,-80.01812 19.86887,-25.25316 26.62432,-32.76941 44.32963,-59.50855 22.47549,-33.94321 41.39801,-70.19812 57.17033,-107.69968 7.2945,-18.49177 8.26609,-20.31968 14.36354,-37.94841 4.77996,-13.8197 9.37606,-27.86728 10.8149,-42.49926 5.03914,-52.79306 -69.62152,-59.91948 -74.66066,-7.12642 z"/>
<path d="m 539.38896,812.58609 c 12.57321,9.64805 25.88552,18.28899 38.91334,27.30417 22.19341,15.26411 43.11772,32.25382 64.03873,49.18955 11.46079,9.24009 23.06595,18.34414 35.4109,26.38869 6.88659,4.48763 8.29577,5.14638 15.3174,9.12397 12.32966,6.81841 25.41433,12.10895 39.07085,15.59765 3.64644,0.93151 7.33944,1.67017 11.00916,2.50525 20.5714,4.07197 41.50673,5.7381 62.39076,7.2306 15.53399,1.11015 31.07701,2.09003 46.61551,3.13525 52.91343,3.55932 57.94707,-71.27157 5.03363,-74.83089 v 0 c -15.32669,-1.03098 -30.65723,-2.00604 -45.98028,-3.08981 -17.31959,-1.22499 -34.6874,-2.50588 -51.78593,-5.65831 -10.32958,-2.21029 -20.45896,-4.88228 -29.65012,-10.295 -14.42129,-7.97133 -27.52993,-17.95745 -40.24443,-28.40272 -22.38388,-18.1176 -44.8029,-36.24944 -68.55288,-52.57072 -12.26499,-8.48476 -24.81091,-16.60138 -36.65146,-25.67624 -42.46075,-31.77397 -87.39593,28.27459 -44.93518,60.04856 z"/>
</svg>
