<?xml version="1.0" ?>
<svg xmlns="http://www.w3.org/2000/svg" width="1000" height="1000">
<path d="m 115.45216,238.57366 c 25.81308,-6.24549 51.70599,-12.1663 77.83756,-16.94145 9.32252,-1.70355 18.67896,-3.21594 28.01844,-4.82391 49.99272,-8.08987 100.39405,-13.69711 150.95043,-16.68589 8.28245,-0.48963 16.57433,-0.80404 24.86149,-1.20607 7.72909,-0.21331 15.45817,-0.42662 23.18726,-0.63993 53.01231,-1.48168 50.9169,-76.4524 -2.09541,-74.97073 v 0 c -8.24954,0.23329 -16.49908,0.46658 -24.74862,0.69986 -8.78729,0.43146 -17.5796,0.77062 -26.36187,1.29439 -53.10026,3.16691 -106.0366,9.07646 -158.5424,17.59991 -9.88125,1.70759 -19.78058,3.31367 -29.64374,5.12275 -27.05615,4.96259 -53.87464,11.06871 -80.604678,17.53623 -51.629292,12.1209 -34.487753,85.13574 17.141538,73.01484 z"/>
<path d="m 240.65249,186.65097 c -0.7453,1.42611 -1.51408,2.84019 -2.23591,4.27832 -1.44393,2.87682 -7.56881,15.51898 -8.66716,17.63238 -7.99958,15.39245 -16.91091,30.33425 -25.5664,45.35883 -23.38535,39.27741 -46.05453,78.97365 -69.33514,118.3122 -10.28641,17.35945 -21.0932,34.40644 -32.2849,51.19506 -7.532206,10.98892 -18.742363,22.67383 -8.656893,39.26508 8.315293,13.6792 25.979193,19.1375 40.606823,25.64111 3.6277,1.61292 7.77732,-1.60001 11.66598,-2.40002 3.26482,-0.96825 6.53991,-1.90252 9.79446,-2.90475 15.96289,-4.91576 31.85413,-10.04872 47.85958,-14.83047 20.6922,-6.18195 24.39667,-7.13037 45.70547,-13.13124 23.84884,-6.80286 47.94272,-12.65582 72.06121,-18.40266 51.58602,-12.30375 34.18588,-85.25741 -17.40014,-72.95365 v 0 c -25.09984,5.99214 -50.17643,12.08538 -74.99802,19.16622 -34.07982,9.60402 -68.0196,19.66356 -101.75066,30.43246 50.58397,8.17317 37.40033,28.05689 32.75063,58.48842 -0.0134,0.0877 0.0799,-0.15929 0.13186,-0.23119 3.99921,-5.53256 0.72591,-0.8308 4.64533,-6.55459 11.92328,-17.90475 23.45259,-36.07371 34.4147,-54.5844 23.42781,-39.5928 46.25065,-79.53944 69.7795,-119.07328 9.47132,-16.44556 19.11896,-32.81878 27.8653,-49.66864 3.76697,-7.25706 4.58248,-9.50544 7.84862,-16.019 0.73401,-1.46382 1.5169,-2.90261 2.27536,-4.35391 24.50993,-47.02939 -41.99967,-81.69166 -66.5096,-34.66228 z"/>
<path d="m 396.04063,359.19256 c 9.68299,8.73193 17.23878,19.52985 24.67445,30.15198 7.24794,12.51407 4.12583,6.05341 9.39471,19.36822 20.95432,48.71773 89.85159,19.08385 68.89727,-29.63387 v 0 c -10.62985,-23.70045 -4.82956,-12.77135 -17.02008,-32.98657 -11.4375,-16.10115 -23.2653,-32.24193 -38.51693,-44.99839 -41.08193,-33.53766 -88.51135,24.56097 -47.42942,58.09863 z"/>
<path d="m 141.02535,662.49346 c 25.55372,-6.30569 51.06239,-12.88044 76.71674,-18.7748 8.77693,-2.01659 17.59318,-3.85803 26.38977,-5.78705 33.81812,-7.31122 68.11855,-12.22832 102.60838,-14.90673 14.18714,-1.10175 20.76668,-1.24393 34.46883,-1.78166 52.9909,-2.11275 50.00302,-77.05321 -2.98789,-74.94046 v 0 c -15.35416,0.62083 -22.41434,0.77525 -38.34484,2.03687 -37.58889,2.97684 -74.96974,8.37341 -111.8313,16.33753 -9.29955,2.04492 -18.6189,4.0018 -27.89865,6.13477 -9.9231,2.28086 -33.70181,8.19744 -44.3851,10.7944 -9.80843,2.38429 -19.46778,4.61126 -29.22725,7.12652 -2.44327,0.6297 -4.86752,1.33102 -7.30128,1.99653 -50.744868,15.40968 -28.952278,87.17376 21.79259,71.76408 z"/>
<path d="m 236.32193,491.61348 c 0.26425,1.28709 0.57627,2.56529 0.79275,3.86127 0.87897,5.26209 1.91994,14.17104 2.40129,18.74985 2.12389,20.20349 3.18313,40.42267 4.19328,60.7069 1.21678,40.03019 1.39741,80.1922 -1.65184,120.15528 -2.00064,26.22022 -3.52942,34.23879 -7.14494,60.09977 -1.60954,9.3826 -3.21907,18.7652 -4.8286,28.1478 -8.93275,52.27529 64.99567,64.90811 73.92842,12.63282 v 0 c 1.72952,-10.15782 3.45903,-20.31564 5.18855,-30.47345 3.99379,-28.98601 5.54368,-36.9576 7.74804,-66.37355 3.18912,-42.55709 3.00935,-85.32007 1.66627,-127.94444 -1.1108,-22.01368 -2.27323,-43.96376 -4.63329,-65.88599 -0.95213,-8.84416 -1.92191,-16.54159 -3.46238,-25.20118 -0.35899,-2.01804 -0.85159,-4.01002 -1.27739,-6.01503 -12.40262,-51.56234 -85.32278,-34.0224 -72.92016,17.53995 z"/>
<path d="m 125.61233,910.72949 c 8.51037,-3.53481 10.84715,-4.47135 20.75296,-8.81832 13.738,-6.02865 34.12126,-15.26103 47.14209,-21.09287 39.49916,-17.69108 29.2146,-13.07847 71.35862,-31.58715 44.81285,-19.1804 89.8319,-37.90972 135.19926,-55.74511 14.86354,-5.84334 29.81673,-11.45599 44.72509,-17.18398 49.5031,-19.02481 22.59796,-89.03276 -26.90514,-70.00795 v 0 c -15.25903,5.8658 -30.56336,11.61507 -45.77708,17.5974 -46.10706,18.13019 -91.85983,37.16929 -137.40138,56.67072 -42.51496,18.67337 -32.19913,14.04598 -71.93995,31.84543 -11.92079,5.33918 -33.13191,14.93796 -46.03393,20.60562 -9.50419,4.17504 -12.09314,5.21466 -20.608799,8.75649 -48.761884,20.85135 -19.273628,89.81107 29.488259,68.95972 z"/>
<path d="m 512.44061,86.474041 c 3.239,12.054535 3.12035,24.871079 2.77336,37.238199 -0.50178,17.88378 -1.71758,29.12182 -3.23465,47.23214 -3.24763,32.95888 -8.38195,65.71981 -15.44771,98.07472 -2.87719,13.17498 -4.61639,19.69026 -7.80375,32.32137 -5.98887,22.16418 -16.12138,47.62776 10.72139,65.91798 21.55904,14.68998 37.53623,4.01316 54.50717,-4.19413 32.99132,-17.06908 68.15988,-29.63347 104.06527,-39.00373 9.81042,-2.56024 19.72692,-4.69525 29.59038,-7.04287 37.69133,-8.41598 76.09997,-13.08813 114.66006,-14.77659 18.49824,-0.80999 26.80808,-0.61752 44.78749,-0.59824 20.36631,0.70583 10.84729,0.20231 28.56344,1.38481 52.92061,3.45094 57.80098,-71.39011 4.88037,-74.84105 v 0 c -20.91645,-1.33701 -9.78078,-0.78014 -33.41311,-1.54375 -19.84794,0.004 -28.96441,-0.19988 -49.4194,0.73951 -42.89015,1.9697 -85.6024,7.27899 -127.51594,16.69526 -10.95276,2.63443 -21.96642,5.02742 -32.85828,7.90327 -40.43758,10.67703 -80.00315,24.98839 -117.21003,44.16671 -17.8161,10.00619 6.658,-5.47989 22.98482,10.10178 8.69744,8.30051 9.01996,22.29015 13.38026,33.49425 0.0414,0.10628 -0.36602,0.11997 -0.34202,0.008 0.55871,-2.59622 5.29501,-19.90267 5.34674,-20.09368 3.50665,-13.94652 5.37594,-20.95834 8.53911,-35.53825 7.65789,-35.2972 13.23372,-71.03079 16.7275,-106.98151 1.61631,-19.69566 3.16921,-34.51688 3.48671,-54.21842 0.31311,-19.42898 -0.59521,-38.81518 -5.96141,-57.591643 -0.98239,-3.4374 -2.41575,-6.72959 -3.62363,-10.094385 -22.08985,-48.2134673 -90.27399,-16.973697 -68.18414,31.239769 z"/>
<path d="m 720.81978,376.2251 c 1.56468,15.91586 -1.85504,31.90663 -4.84304,47.44385 -8.36625,34.33917 -20.96881,67.49075 -35.61277,99.61082 -4.83427,10.60351 -9.78528,21.16081 -15.11203,31.52567 -5.62056,10.93658 -11.81196,21.57024 -17.71794,32.35536 -27.64264,45.91461 -58.71126,90.00684 -95.1717,129.40186 -22.55051,24.36553 -33.91975,33.81228 -58.34431,56.11438 -25.74123,21.75924 -31.01608,27.19003 -58.11601,46.38525 -9.41234,6.66688 -19.1972,12.7916 -28.7958,19.1874 -44.08323,29.48167 -2.38984,91.82477 41.69339,62.34309 v 0 c 10.73791,-7.20472 21.68546,-14.10642 32.21375,-21.61415 29.63164,-21.13034 35.75696,-27.33755 63.6468,-50.98093 27.41544,-25.15517 39.07238,-34.79871 64.45602,-62.40442 39.9355,-43.43143 74.06563,-91.90996 104.25269,-142.50512 6.51434,-11.9744 13.33617,-23.78658 19.54302,-35.92322 5.76876,-11.28002 11.14251,-22.76192 16.37126,-34.30219 16.84031,-37.16794 31.19037,-75.58361 40.41213,-115.3886 1.23292,-6.72218 2.65485,-13.41244 3.69875,-20.16656 2.66108,-17.21741 3.87976,-34.90728 1.59236,-52.23234 -7.88413,-52.44369 -82.05071,-41.29384 -74.16657,11.14985 z"/>
<path d="m 511.07262,553.75348 c 17.37712,21.35393 32.94557,44.11886 48.76348,66.63116 24.99737,35.44264 49.8965,70.99363 76.62848,105.16472 5.31362,6.79233 10.77257,13.4697 16.15886,20.20455 18.79438,23.04405 38.50988,45.3493 59.57125,66.35171 11.1982,11.16686 13.74312,13.27092 25.15587,23.69382 21.04561,18.54648 43.53149,35.33747 66.5239,51.36813 20.89597,14.08509 43.10515,26.19336 66.42464,35.77654 7.45164,3.06227 15.06889,5.70491 22.60333,8.55737 49.64684,18.64647 76.01694,-51.56477 26.37009,-70.21124 v 0 c -6.18669,-2.30096 -12.4381,-4.43493 -18.56009,-6.90289 -18.95873,-7.64283 -37.00199,-17.38821 -53.97358,-28.76361 -20.32706,-14.141 -40.20627,-28.95023 -58.86673,-45.25509 -10.02921,-9.11976 -12.17129,-10.87434 -22.07183,-20.71719 -19.32731,-19.21469 -37.38593,-39.65769 -54.62029,-60.76043 -5.05848,-6.31619 -10.18641,-12.5774 -15.17544,-18.94859 -26.11403,-33.3486 -50.38897,-68.08221 -74.80301,-102.67719 -16.72952,-23.80761 -33.23521,-47.84649 -51.61496,-70.42782 -33.17465,-41.37562 -91.68862,5.54042 -58.51397,46.91605 z"/>
</svg>
