<?xml version="1.0" ?>
<svg xmlns="http://www.w3.org/2000/svg" width="1000" height="1000">
<path d="m 442.35144,53.242893 c -1.11358,1.774058 -2.3135,3.496761 -3.34073,5.322172 -1.97108,3.502647 -6.546,12.914727 -8.29285,16.262892 -2.00905,3.850732 -4.05179,7.684432 -6.15297,11.485676 -8.36783,15.138237 -9.60471,16.823387 -19.13959,32.649997 -22.76272,35.95249 -47.0322,70.97197 -73.10102,104.61199 -13.41814,17.31519 -37.38366,46.64671 -51.00466,63.43271 -27.22678,34.04873 -56.13467,66.68894 -85.25579,99.11216 -27.36561,30.46864 -55.00521,60.67315 -82.85524,90.69842 -8.29613,8.78315 -16.592259,17.56631 -24.888388,26.34946 -36.414229,38.55521 18.111068,90.0527 54.525298,51.4975 v 0 c 8.45084,-8.94846 16.90168,-17.89691 25.35252,-26.84537 28.17245,-30.37762 56.13983,-60.92984 83.81962,-91.75833 29.90157,-33.30302 59.56954,-66.8409 87.54236,-101.79858 14.77242,-18.20796 38.31076,-47.00042 52.71246,-65.61896 27.61503,-35.70074 53.3453,-72.84846 77.4202,-111.01956 10.33104,-17.19652 11.91767,-19.43425 21.01477,-35.95377 4.12335,-7.48765 9.35621,-16.68782 12.62792,-24.771082 30.87039,-43.122141 -30.11352,-86.779465 -60.98391,-43.657325 z"/>
<path d="m 448.6982,165.88679 c 1.81088,1.06747 2.30198,1.29005 4.01619,2.58445 11.24781,8.49322 21.61662,18.18168 32.08154,27.59093 37.02786,34.40553 70.69005,72.18738 104.19824,109.96203 37.98005,42.54073 73.83317,86.8959 110.67999,130.40324 17.28811,20.46306 35.42706,40.21548 55.28708,58.21733 9.57306,8.67738 11.68555,10.18113 21.37061,18.02854 13.65422,11.07375 28.90994,19.7236 44.61233,27.48206 17.30751,8.53737 34.04372,18.1883 50.87498,27.61647 21.23483,11.28421 10.0879,5.60144 33.48993,16.95155 47.74721,23.08037 80.38779,-44.44439 32.64057,-67.52476 v 0 c -20.38099,-9.81363 -10.56541,-4.83907 -29.47845,-14.86094 -17.9884,-10.07558 -35.88653,-20.36523 -54.39497,-29.46729 -10.75635,-5.27267 -21.29911,-10.9825 -30.64824,-18.5662 -8.02151,-6.43767 -9.24791,-7.25288 -17.3355,-14.52831 -17.73753,-15.95632 -33.79155,-33.62238 -49.18834,-51.82244 -37.22219,-43.94081 -73.43048,-88.74694 -111.80689,-131.70317 -35.39163,-39.88622 -70.99109,-79.73928 -110.18062,-115.98161 -15.71762,-14.10805 -31.25433,-28.96024 -49.51128,-39.78512 -46.24708,-25.95589 -82.95424,39.44735 -36.70717,65.40324 z"/>
<path d="m 387.06187,452.50007 c 20.62701,-5.41098 41.73551,-8.62818 62.80676,-11.71865 31.57046,-4.35173 63.51425,-4.97332 95.29884,-3.2813 2.93198,0.24745 5.86396,0.49491 8.79594,0.74236 52.85393,4.35455 59.01219,-70.3922 6.15826,-74.74675 v 0 c -3.69654,-0.29866 -7.39308,-0.59732 -11.08962,-0.89598 -4.56858,-0.22952 -9.13395,-0.53569 -13.70573,-0.68858 -32.18337,-1.07628 -64.47557,0.3672 -96.39276,4.6717 -26.12007,3.86616 -52.45074,7.74533 -77.74851,15.52267 -49.77645,18.29767 -23.89963,88.6922 25.87682,70.39453 z"/>
<path d="m 417.88119,329.02049 c 0,29.82969 0,59.65938 0,89.48907 0,42.30061 0,84.60123 0,126.90185 0,53.03301 75,53.03301 75,0 v 0 c 0,-42.30062 0,-84.60124 0,-126.90185 0,-29.82969 0,-59.65938 0,-89.48907 0,-53.03301 -75,-53.03301 -75,0 z"/>
<path d="m 247.42584,614.07286 c 25.58396,-4.92729 51.26075,-9.31478 76.98474,-13.44499 46.53545,-7.03125 93.40856,-12.27836 140.42469,-14.70927 9.73329,-0.50324 19.48003,-0.69962 29.22004,-1.04943 42.33181,-0.96458 84.72957,1.28555 126.70734,6.84783 6.47661,0.85819 12.92446,1.92104 19.38669,2.88155 24.24499,3.92504 48.07308,9.98348 71.26118,18.03682 50.12073,17.33241 74.63246,-53.54901 24.51173,-70.88142 v 0 c -27.60964,-9.51461 -55.94763,-16.76384 -84.8094,-21.34975 -7.20063,-1.05841 -14.38576,-2.22825 -21.60189,-3.17523 -45.78768,-6.00878 -92.02807,-8.40328 -138.19307,-7.30983 -10.50857,0.38974 -21.02428,0.61983 -31.52572,1.16921 -49.31196,2.57971 -98.47191,8.09907 -147.27926,15.48922 -25.28324,4.06497 -50.55111,8.24903 -75.67031,13.24574 -52.50236,7.48349 -41.91911,81.73303 10.58324,74.24955 z"/>
<path d="m 303.75292,678.04082 c 7.89253,17.55883 12.37769,36.42408 16.81154,55.07906 6.63328,30.32488 10.34098,61.16201 12.83322,92.07026 0.73199,11.00162 0.42772,5.8709 0.94092,15.39047 2.87859,52.95482 77.76802,48.88389 74.88943,-4.07094 v 0 c -0.59187,-10.80998 -0.2431,-5.01548 -1.07575,-17.38171 -2.83226,-34.74765 -7.07308,-69.41171 -14.65141,-103.48036 -5.8373,-24.20655 -11.9188,-48.63338 -22.69615,-71.20821 -23.7598,-47.41278 -90.8116,-13.81135 -67.0518,33.60143 z"/>
<path d="m 390.55012,714.76645 c 14.55741,-5.22708 29.82804,-8.66469 45.05888,-11.27953 5.34746,-0.91806 10.73389,-1.59261 16.10084,-2.38891 31.21896,-4.07953 62.73062,-4.48565 94.13014,-2.94692 12.69943,0.67451 25.34121,2.03196 37.8557,4.27967 0.36659,0.0882 0.74466,0.13791 1.09978,0.26467 0.19487,0.0696 -0.41652,-0.0295 -0.61401,-0.0913 -1.28933,-0.40315 -2.65884,-0.64207 -3.8382,-1.30086 -3.27562,-1.82978 -6.81546,-3.44561 -9.44685,-6.12023 -8.41823,-8.55652 -8.05043,-10.39273 -10.66651,-19.63851 -0.0812,0.38591 -0.20087,0.76569 -0.24364,1.15773 -2.29442,21.0302 2.10213,-15.54936 -1.5318,15.22975 -1.65344,14.00446 -3.76456,27.94838 -5.80049,41.9006 -3.18043,21.56622 -5.48338,43.39574 -11.40477,64.44717 -2.96522,10.54184 -4.69737,14.16112 -8.67729,24.15742 -1.52295,3.36173 -3.0459,6.72346 -4.56885,10.08519 -21.68754,48.39577 46.75441,79.06659 68.44196,30.67082 v 0 c 1.99657,-4.49207 3.99314,-8.98415 5.98971,-13.47623 5.66458,-14.71202 7.51636,-18.45388 11.75115,-33.96605 6.35319,-23.27193 9.29985,-47.26614 12.68251,-71.0915 2.17508,-14.91308 4.42804,-29.81814 6.16495,-44.79075 0.62052,-5.34905 1.69381,-15.46033 1.92399,-21.08366 0.12432,-3.0371 0.0279,-6.07922 0.0419,-9.11883 -0.85854,-4.45699 -0.78418,-9.20053 -2.57564,-13.37096 -2.40121,-5.58993 -5.70309,-10.89591 -9.78594,-15.40629 -6.69531,-7.3964 -16.42996,-10.39682 -25.76369,-12.29136 -15.69055,-2.78735 -31.53416,-4.53629 -47.45297,-5.36098 -4.86677,-0.22762 -9.73068,-0.52795 -14.6003,-0.68287 -31.48533,-1.00165 -63.05136,0.39295 -94.30274,4.38401 -6.51148,0.99634 -13.04629,1.85057 -19.53443,2.98902 -20.65209,3.62371 -41.33081,8.50134 -60.8366,16.27843 -48.48011,21.49834 -18.07685,90.05957 30.40326,68.56123 z"/>
<path d="m 379.36437,856.30817 c 2.30601,-0.16594 4.61359,-0.31128 6.91802,-0.49783 13.22192,-1.07035 26.40958,-2.40473 39.6496,-3.26902 16.16013,-1.05492 21.57292,-1.20293 38.03888,-1.92919 24.57926,-0.83058 49.21694,-0.5437 73.74586,1.32109 10.50016,0.79827 17.2756,1.65221 27.5922,2.81769 52.7015,5.92047 61.07431,-68.61071 8.37282,-74.53118 v 0 c -12.19316,-1.3629 -18.91645,-2.21869 -31.4405,-3.14991 -27.14028,-2.018 -54.39619,-2.3217 -81.58871,-1.38425 -28.10005,1.24932 -56.16929,2.88841 -84.16419,5.67776 -52.994,2.03365 -50.11798,76.97849 2.87602,74.94484 z"/>
</svg>
