<?xml version="1.0" ?>
<svg xmlns="http://www.w3.org/2000/svg" width="1000" height="1000">
<path d="m 543.20565,77.567517 c 0.27486,-0.95314 1.65697,-3.398969 0.82456,-2.859419 -1.47847,0.958313 -1.99199,2.908591 -3.06106,4.30907 -2.18901,2.867604 -4.38561,5.732771 -6.71034,8.491491 -3.54438,4.206058 -7.23273,8.288907 -10.89126,12.396057 -16.24281,18.234534 -16.74602,18.569934 -34.45444,37.667864 -7.52564,7.50598 -14.94173,15.12343 -22.57694,22.51794 -15.17144,14.69319 -39.19662,36.8074 -54.63807,50.87309 -21.36919,19.46531 -35.7429,32.34439 -57.58487,51.2134 -9.23319,7.97643 -18.58186,15.8182 -27.8728,23.7273 -38.36992,32.66611 -78.58633,63.07031 -119.54712,92.39109 -8.57736,6.04958 -17.23544,11.99021 -26.05055,17.68933 -1.86841,1.20796 -7.04091,4.38493 -8.969,5.76885 -1.75872,1.26234 -3.43396,2.63711 -5.15093,3.95566 -19.15172,27.91403 -23.20151,22.92141 13.27974,66.20627 3.75812,4.459 11.58749,1.52143 17.41787,1.63496 3.44017,0.067 6.85144,-0.65671 10.26412,-1.0959 5.25828,-0.67672 23.02185,-3.50404 27.07161,-4.13841 59.66936,-9.83558 119.76835,-16.69351 179.88235,-23.12311 78.58499,-8.03665 157.52484,-11.64302 236.44403,-14.35404 44.32074,-1.32519 88.72775,-1.67318 132.94873,1.94135 3.18562,0.32864 6.37124,0.65728 9.55685,0.98591 52.75788,5.39503 60.3876,-69.21588 7.62972,-74.6109 v 0 c -3.71828,-0.37736 -7.43656,-0.75471 -11.15484,-1.13207 -4.88716,-0.38987 -9.7692,-0.8504 -14.66149,-1.16961 -42.23818,-2.75594 -84.61479,-2.05884 -126.89665,-0.97037 -80.7237,2.77902 -161.46703,6.49286 -241.84687,14.73553 -61.32716,6.56636 -122.63798,13.57307 -183.51306,23.60157 -10.69717,1.67699 -14.49355,2.29866 -24.24143,3.74997 -1.48233,0.22069 -5.72899,-0.14302 -4.45041,0.63881 2.54602,1.55683 7.15934,-0.55774 8.7314,1.97891 29.37884,47.40506 30.96209,35.92904 11.07248,63.1341 -1.81356,1.0735 -2.68505,1.615 1.93634,-1.35738 7.64245,-4.91546 15.25452,-9.84473 22.74555,-14.99341 3.8902,-2.67379 7.74558,-5.39789 11.61837,-8.09684 42.65812,-30.55417 84.5414,-62.23343 124.50487,-96.26569 9.56006,-8.14158 19.17958,-16.21385 28.68018,-24.42472 22.22776,-19.21028 37.19922,-32.62056 58.92054,-52.41238 16.3184,-14.86884 40.96638,-37.56651 56.88277,-53.02469 8.31204,-8.07275 16.38083,-16.39223 24.57124,-24.58834 15.51199,-16.73921 21.43079,-22.9096 35.97008,-39.35333 9.49835,-10.7425 15.09526,-16.9491 23.20318,-28.16461 2.20762,-3.05374 4.36535,-6.15801 6.23348,-9.43047 1.8901,-3.31094 3.34494,-6.85205 5.01741,-10.27807 16.80422,-50.300285 -54.33112,-74.065043 -71.13534,-23.764763 z"/>
<path d="m 458.92459,322.10346 c 0,33.54153 0,67.08306 0,100.62459 -0.20697,37.26017 0.0556,74.6178 -3.2015,111.77533 -0.7836,8.93955 -1.97436,17.83873 -2.96154,26.7581 -5.76154,52.71911 68.79455,60.86714 74.55608,8.14803 v 0 c 1.08329,-10.02583 2.38584,-20.0304 3.24986,-30.0775 3.33391,-38.76752 3.17303,-77.73149 3.3571,-116.60396 0,-33.54153 0,-67.08306 0,-100.62459 0,-53.03301 -75,-53.03301 -75,0 z"/>
<path d="m 281.52745,585.26538 c 4.11991,16.84598 5.6201,34.2228 7.97647,51.36917 1.03659,7.54286 2.14783,15.07526 3.22174,22.61289 7.31377,49.3184 16.45893,98.33905 25.99182,147.26896 4.53765,22.58855 2.35192,11.8716 6.53896,32.15456 10.72352,51.93752 84.17427,36.77218 73.45075,-15.16534 v 0 c -4.07822,-19.74844 -1.94744,-9.30505 -6.37427,-31.33384 -9.29281,-47.68215 -18.21459,-95.45151 -25.35811,-143.51033 -1.03673,-7.2662 -2.11106,-14.52713 -3.11019,-21.79859 -2.85974,-20.81276 -4.75568,-41.89931 -10.23505,-62.24414 -14.5994,-50.9839 -86.70152,-30.33724 -72.10212,20.64666 z"/>
<path d="m 433.46023,638.95056 c 19.18437,-8.33689 39.96016,-11.93361 60.41623,-15.60151 34.20936,-5.27444 68.82357,-7.52367 103.41783,-7.83984 6.39677,-0.0585 12.794,0.0402 19.19101,0.0603 23.25825,0.45799 46.61741,1.21018 69.57996,5.19094 3.65872,0.7935 3.62198,0.75411 6.97028,1.58558 0.76696,0.19046 1.53433,0.38016 2.2956,0.59222 0.21261,0.0592 0.83711,0.27889 0.62411,0.22109 -0.54418,-0.14769 -1.10653,-0.2553 -1.61876,-0.49102 -2.03251,-0.93535 -3.99832,-2.00929 -5.99749,-3.01394 -12.8215,-12.98007 -10.24931,-7.36375 -15.73648,-24.75403 -0.3236,-1.02558 0.35247,-4.01886 -0.35273,-3.20693 -0.98445,1.13345 -0.46783,2.966 -0.72298,4.44544 -1.5603,9.04741 -2.02924,11.27044 -3.89056,21.10938 -7.64764,39.6491 -16.77495,78.99015 -26.05982,118.28132 -5.83173,24.44474 -12.1965,48.80391 -21.21956,72.29162 -3.85912,10.04557 -6.97006,16.93053 -11.21656,26.69812 -21.10435,48.65292 47.70126,78.49898 68.80561,29.84606 v 0 c 5.0405,-11.6433 8.38681,-19.04032 12.97322,-31.12831 9.93376,-26.18158 17.19275,-53.23984 23.64746,-80.46118 9.54323,-40.39356 18.91569,-80.84032 26.76582,-121.60371 1.37797,-7.30201 3.16663,-16.45465 4.36725,-23.92529 0.74967,-4.6647 2.35053,-14.9457 1.5792,-19.30664 -1.08498,-6.13426 -2.36596,-12.45734 -5.42621,-17.88331 -2.8552,-5.06239 -7.91046,-8.51732 -11.86569,-12.77598 -2.64017,-1.43266 -5.20991,-3.00352 -7.92051,-4.29798 -1.45697,-0.69578 -3.0187,-1.14957 -4.55116,-1.65791 -6.15935,-2.04312 -12.61207,-3.12653 -18.93136,-4.51243 -27.06292,-4.50567 -54.49303,-5.91824 -81.90446,-6.24286 -6.99286,-0.0146 -13.98607,-0.11521 -20.97857,-0.0437 -38.54224,0.39436 -77.10224,3.0079 -115.1943,9.02422 -6.71163,1.22655 -13.44937,2.31799 -20.13491,3.67964 -21.372,4.35285 -42.73497,10.06399 -62.40718,19.65201 -46.71753,25.09926 -11.22181,91.16782 35.49571,66.06856 z"/>
<path d="m 388.51726,855.06537 c 23.90244,-5.1271 48.0555,-8.84811 72.24143,-12.32804 41.78371,-5.64106 83.96866,-7.92389 126.11741,-7.65061 7.52581,0.0488 15.04902,0.29642 22.57353,0.44463 16.73144,0.36796 33.41513,1.61291 50.08269,3.02782 52.84573,4.45299 59.1432,-70.28216 6.29747,-74.73514 v 0 c -18.28594,-1.5306 -36.58848,-2.88917 -54.94301,-3.27891 -8.15688,-0.15233 -16.31247,-0.41203 -24.47065,-0.45699 -45.57735,-0.25118 -91.18815,2.28902 -136.36558,8.41757 -26.68257,3.85829 -53.34864,7.95805 -79.68513,13.78941 -51.45634,12.83529 -33.3045,85.60555 18.15184,72.77026 z"/>
</svg>
