<?xml version="1.0" ?>
<svg xmlns="http://www.w3.org/2000/svg" width="1000" height="1000">
<path d="m 527.40448,58.545163 c -0.92224,1.284936 -1.77957,2.619042 -2.76672,3.854806 -2.81096,3.518877 -6.086,6.643079 -9.24437,9.853794 -3.48534,3.543115 -6.94519,7.11502 -10.55793,10.528133 -11.09876,10.48546 -22.07692,19.705194 -33.6828,29.733624 -22.99473,19.89777 -46.8607,38.76267 -71.07749,57.14362 -8.35941,6.34493 -16.68821,12.73611 -25.23211,18.83035 -7.99511,5.7028 -16.24842,11.03467 -24.37262,16.55201 -43.83639,29.84747 -1.62569,91.84148 42.21069,61.99401 v 0 c 9.0094,-6.14865 18.15161,-12.10708 27.02821,-18.44596 8.86866,-6.33322 17.5176,-12.96953 26.1955,-19.56172 25.31824,-19.23307 50.26064,-38.98184 74.31149,-59.78704 23.53085,-20.37133 48.19383,-40.71799 67.13988,-65.63134 31.86526,-42.392275 -28.08647,-87.456562 -59.95173,-45.064287 z"/>
<path d="m 293.56849,234.70996 c 2.00864,20.6408 6.07013,41.00703 8.47091,61.60763 0.93112,7.98972 1.66206,16.0015 2.49308,24.00226 4.17866,46.32379 3.15195,92.93592 -0.0199,139.28666 -1.03759,15.16245 -2.23393,30.31856 -3.82262,45.43321 -1.65912,15.78483 -3.94586,31.49738 -5.91879,47.24607 -2.50954,16.18517 -4.84316,32.3986 -7.52864,48.55551 -5.9128,35.57374 -10.41989,59.68034 -18.37563,94.69547 -5.37843,23.67177 -14.4602,59.02706 -21.04904,82.71759 -3.27114,11.76153 -6.8431,23.43731 -10.26465,35.15597 -12.77564,37.05498 -5.66441,19.94719 -20.68928,51.5865 -22.35276,48.09214 45.6598,79.70371 68.01256,31.61157 v 0 c 18.30022,-40.02875 10.01443,-19.31965 24.67704,-62.19916 3.5836,-12.30032 7.32295,-24.55634 10.75079,-36.90097 6.96159,-25.07068 16.28032,-61.4543 21.94552,-86.48138 8.19371,-36.19715 13.0331,-62.02364 19.1109,-98.71861 2.79687,-16.88625 5.22316,-33.83179 7.83474,-50.74768 2.07772,-16.75515 4.48438,-33.47279 6.23316,-50.26545 1.65854,-15.92617 2.90936,-31.89515 3.98672,-47.87116 3.38675,-50.22159 4.31526,-100.71863 -0.28884,-150.89704 -0.91248,-8.68824 -1.71797,-17.38838 -2.73746,-26.06472 -2.17544,-18.51413 -5.45023,-36.85633 -7.90584,-55.32762 -2.52815,-52.97271 -77.44288,-49.39737 -74.91473,3.57535 z"/>
<path d="m 472.99929,315.0632 c 13.45666,-3.81462 27.03743,-7.23061 40.81512,-9.67933 4.44832,-0.7906 8.91919,-1.44856 13.37878,-2.17284 29.61121,-4.36603 59.52162,-5.80048 89.40885,-6.50565 14.28184,-0.31369 28.5657,-0.54733 42.85083,-0.63082 1.37723,0.0212 2.75506,-0.0294 4.13236,-0.009 0.31296,0.005 -0.62692,0.038 -0.9389,0.0128 -1.21396,-0.0981 -2.47583,-0.005 -3.6337,-0.38226 -4.40441,-1.43675 -9.05995,-2.52361 -12.9565,-5.0296 -3.9468,-2.5383 -6.73653,-6.53451 -10.1048,-9.80177 -0.97594,-1.77012 -1.95188,-3.54024 -2.92782,-5.31037 -0.23434,-0.45677 -0.62014,-1.87698 -0.70303,-1.37033 -0.20134,1.23052 0.23152,2.48324 0.31741,3.72716 0.19164,2.7755 0.39135,5.55105 0.51512,8.33041 0.38458,8.63624 0.60622,21.06114 0.79244,29.31833 0.68635,55.96997 2.98722,111.89819 4.80312,167.8377 1.81492,60.63715 1.42485,121.32735 -1.03788,181.94011 -0.49078,12.07916 -1.15353,24.15072 -1.73029,36.22608 -2.35006,42.43185 -5.18172,84.86805 -10.14663,127.08618 -2.54551,21.64524 -3.27533,25.10887 -6.50352,45.72039 -2.41627,13.16181 -3.16961,18.12439 -5.97775,30.5439 -0.76112,3.3662 -2.6804,11.59883 -4.23072,15.51868 -0.053,0.1339 -0.4596,-0.0839 -0.38063,-0.20428 2.44001,-3.72014 5.11737,-7.27908 7.67605,-10.91862 4.3651,-42.46236 24.36251,-0.14855 34.01499,-6.47694 1.61622,-1.05963 -2.65411,-2.81047 -4.01652,-4.18117 -3.10842,-3.12734 -6.27671,-6.19469 -9.3951,-9.3121 -24.52279,-24.51507 0.96357,0.6871 -26.92656,-26.77717 -21.86179,-20.66137 -11.09415,-10.55803 -32.29512,-30.31835 -38.79632,-36.15723 -89.93037,18.70905 -51.13405,54.86629 v 0 c 20.45933,19.06609 10.18803,9.43462 30.81139,28.89707 4.73317,4.65888 9.49034,9.29349 14.1995,13.97663 4.40453,4.3802 19.11451,19.36505 24.07285,23.96542 7.72782,7.16991 21.5528,20.12544 32.47057,20.84732 11.68185,0.77239 23.01047,-4.33216 34.51571,-6.49823 4.53268,-5.18951 9.65501,-9.91799 13.59805,-15.56854 2.92524,-4.19201 6.14583,-15.31887 7.48216,-20.30324 4.10049,-15.2944 6.82498,-30.92686 9.61872,-46.49531 3.46914,-22.31497 4.25076,-26.04664 6.97877,-49.34423 5.1136,-43.67082 8.06326,-87.56268 10.4828,-131.45317 0.59105,-12.42707 1.2704,-24.85025 1.77314,-37.28119 2.51803,-62.26192 2.90609,-124.60309 1.04057,-186.88942 -1.80878,-55.69588 -4.10089,-111.38049 -4.78295,-167.10676 -0.21086,-9.22281 -0.45308,-23.19738 -0.94335,-32.66587 -0.51717,-9.98787 -1.03855,-21.65655 -4.44934,-31.19749 -1.2076,-3.37801 -3.02667,-6.50509 -4.54001,-9.75763 -3.87692,-4.05653 -7.02755,-8.96079 -11.63077,-12.16958 -8.74141,-6.09341 -18.32307,-7.2109 -28.35094,-6.99055 -14.73462,0.0872 -29.46795,0.32579 -44.19917,0.65088 -33.35003,0.80437 -66.72286,2.49667 -99.75005,7.47182 -5.25683,0.86825 -10.52777,1.65502 -15.77049,2.60475 -15.43062,2.79528 -30.66642,6.55843 -45.75,10.82776 -51.21725,13.75838 -31.75996,86.19052 19.45729,72.43213 z"/>
<path d="m 460.3027,397.61414 c 16.54874,13.72166 31.73125,28.96772 47.20269,43.86718 3.15048,3.11343 6.30096,6.22686 9.45144,9.34028 37.72963,37.26896 90.43589,-16.08879 52.70627,-53.35775 v 0 c -3.37757,-3.33491 -6.75514,-6.66983 -10.13271,-10.00474 -15.81603,-15.23131 -31.3282,-30.84633 -48.25529,-44.86146 -38.90253,-36.04294 -89.87494,18.97355 -50.9724,55.01649 z"/>
<path d="m 135.99749,576.46521 c 31.30207,-7.08654 62.52256,-14.58624 94.0214,-20.7723 12.34373,-2.42418 24.73575,-4.59564 37.10362,-6.89346 83.07121,-14.64126 166.81525,-25.76421 250.96777,-31.82955 17.78767,-1.28206 35.60611,-2.09396 53.40917,-3.14094 60.68258,-2.98932 121.47628,-1.85283 182.10889,1.57861 22.03862,1.24726 43.63495,2.92326 65.62714,4.54448 30.88827,2.42183 16.39157,1.25944 43.49152,3.46947 52.85757,4.31008 58.95295,-70.44182 6.09537,-74.7519 v 0 c -27.45091,-2.23812 -12.75932,-1.06045 -44.07624,-3.51485 -22.8149,-1.6799 -44.60198,-3.37194 -67.50276,-4.65905 -63.31639,-3.55863 -126.79987,-4.68428 -190.16489,-1.53634 -18.45467,1.094 -36.92531,1.94549 -55.364,3.28201 -86.61418,6.27818 -172.80951,17.73191 -258.31004,32.82331 -12.91625,2.4062 -25.85734,4.68266 -38.74874,7.21859 -32.43226,6.3799 -64.58508,14.08528 -96.81019,21.4117 -51.456323,12.83539 -33.304334,85.60561 18.15198,72.77022 z"/>
<path d="m 459.57607,580.94781 c 0.0495,24.92653 -0.1648,49.85241 -0.29451,74.77843 -0.12391,24.15499 -0.18083,48.31023 -0.23879,72.46544 -0.12721,53.03285 74.87258,53.21275 74.99978,0.17989 v 0 c 0.0578,-24.08509 0.11447,-48.1702 0.23799,-72.25507 0.13037,-25.0561 0.34513,-50.11207 0.29553,-75.16869 0,-53.033 -75,-53.033 -75,0 z"/>
</svg>
