<?xml version="1.0" ?>
<svg xmlns="http://www.w3.org/2000/svg" viewBox="0 0 1000 1000">
<path d="m 333.12019,44.485884 c -0.2361,1.480044 -0.39957,2.973518 -0.7083,4.440133 -1.14921,5.459359 -3.01607,11.433703 -4.59373,16.657296 -2.21226,7.324734 -6.99217,22.776799 -9.31401,29.676309 -1.7987,5.344968 -3.75766,10.634668 -5.63649,15.952008 -9.43575,25.19514 -21.64296,49.18667 -34.30277,72.87739 -5.25091,12.95795 -12.65638,26.93328 -1.14515,41.85399 8.87856,11.50828 24.29717,16.71506 38.14796,21.12242 6.04567,1.92374 12.58334,-1.71073 18.79468,-3.00312 5.30472,-1.10375 10.4747,-2.77744 15.70939,-4.1761 5.94553,-1.5886 11.8875,-3.19045 17.83125,-4.78567 40.26554,-10.52041 81.53796,-16.33456 122.91866,-20.20728 8.98872,-0.84124 17.99473,-1.4861 26.9921,-2.22916 38.07254,-2.77491 76.31901,-3.03986 114.40581,-0.50378 52.91929,3.47123 57.82834,-71.36794 4.90906,-74.83916 v 0 c -41.7896,-2.70546 -83.74208,-2.5226 -125.51221,0.59943 -9.53837,0.79383 -19.08615,1.48165 -28.61511,2.3815 -45.30436,4.27824 -90.46584,10.81026 -134.5393,22.36194 -5.95242,1.59755 -11.90737,3.18571 -17.85726,4.79265 -4.05475,1.09511 -8.1915,1.92853 -12.15662,3.31349 -0.53959,0.18848 -1.53577,0.94813 -1.09869,1.31642 8.78445,7.40211 21.65002,10.93784 27.4256,20.86762 27.76095,47.72855 6.94179,31.79335 -0.0596,26.47745 14.44641,-27.04417 28.24334,-54.49819 38.89178,-83.30194 2.11408,-6.01807 4.31101,-12.00767 6.34224,-18.05421 2.16722,-6.45136 7.88328,-24.787358 9.9243,-31.683838 3.1745,-10.726444 4.61944,-15.502334 6.67181,-26.099254 0.46601,-2.406159 0.72493,-4.847841 1.0874,-7.271761 6.035,-52.68850811 -68.4778,-61.2232811 -74.5128,-8.534773 z"/>
<path d="m 159.04091,438.33769 c 28.39112,-9.62636 56.99205,-18.62469 85.97432,-26.3212 10.82902,-2.87575 21.7251,-5.49276 32.58765,-8.23914 68.73774,-16.35978 138.64788,-27.43045 208.84355,-35.24379 14.73526,-1.64015 29.50254,-2.97853 44.25381,-4.4678 61.30605,-5.27804 122.96732,-9.21399 184.51639,-6.27378 8.54317,0.40811 17.06473,1.18489 25.5971,1.77733 26.52504,3.06175 14.0216,1.33557 37.53371,5.00612 52.41287,8.0865 63.8489,-66.03649 11.43603,-74.12299 v 0 c -27.59578,-4.21481 -12.9839,-2.24934 -43.86043,-5.70889 -9.52148,-0.64033 -19.03168,-1.47901 -28.56442,-1.92097 -64.78355,-3.0035 -129.67979,1.01267 -194.20505,6.62383 -15.25771,1.5457 -30.53214,2.93441 -45.77313,4.63712 -73.34359,8.19386 -146.37936,19.83422 -218.18807,36.98857 -11.48255,2.91187 -23.00029,5.68834 -34.44765,8.73562 -29.06718,7.73767 -57.82713,16.61255 -86.26526,26.40351 -51.001107,14.53914 -30.43966,86.6656 20.56145,72.12646 z"/>
<path d="m 285.07097,555.74532 c 26.67441,-5.67443 52.91925,-13.15378 79.45436,-19.4134 9.04528,-2.13377 18.13419,-4.07814 27.20129,-6.11721 54.65495,-11.23085 110.2565,-17.34007 165.90024,-20.91991 11.31681,-0.72806 22.64882,-1.19654 33.97323,-1.79481 44.72255,-2.05146 89.49335,-1.87641 134.24014,-1.03993 53.02382,0.98702 54.41967,-73.99999 1.39585,-74.98701 v 0 c -46.5383,-0.86273 -93.10167,-1.02449 -139.61357,1.13249 -11.88501,0.63437 -23.77807,1.13252 -35.65503,1.90309 -59.28413,3.84633 -118.50877,10.47128 -176.71993,22.53888 -9.5992,2.16504 -19.2204,4.23474 -28.79759,6.49512 -26.1187,6.16447 -51.95252,13.52453 -78.20771,19.11511 -51.68072,11.8997 -34.852,84.98728 16.82872,73.08758 z"/>
<path d="m 258.81795,313.99197 c 4.06855,26.13011 11.42068,51.57769 18.66476,76.96065 5.73785,19.71257 10.76781,39.65857 17.2692,59.14476 2.22449,6.66733 4.44925,13.34785 7.15452,19.83499 2.91445,6.98875 6.45729,13.69855 9.68593,20.54782 23.01058,47.78089 90.58296,15.23902 67.57239,-32.54187 v 0 c -2.25485,-4.53707 -4.77958,-8.94974 -6.76455,-13.6112 -2.26309,-5.31455 -4.12609,-10.79435 -5.96041,-16.27169 -6.36348,-19.0016 -11.22325,-38.47384 -16.83995,-57.69697 -6.23672,-21.82593 -12.63689,-43.66799 -16.41469,-66.08859 -6.87456,-52.58556 -81.24176,-42.86346 -74.3672,9.7221 z"/>
<path d="m 384.15337,295.09392 c 6.16277,20.89821 9.79761,42.46036 13.76982,63.85327 6.20167,33.03959 11.23704,66.2679 15.64233,99.58865 6.9578,52.57461 81.30952,42.73479 74.35172,-9.83981 v 0 c -4.585,-34.61201 -9.81396,-69.12994 -16.25633,-103.45097 -4.52547,-24.33575 -8.75401,-48.84023 -15.93591,-72.56772 -15.85092,-50.60878 -87.42254,-28.1922 -71.57163,22.41658 z"/>
<path d="m 511.17969,283.46571 c 3.37869,10.38655 4.7561,21.32193 5.8952,32.14063 1.76386,16.75248 1.63964,19.49299 2.48618,36.85985 1.43829,32.84024 -1.25937,65.61625 -4.45664,98.26611 -5.15001,52.78236 69.49551,60.06558 74.64553,7.28323 v 0 c 3.53202,-36.32215 6.38352,-72.78829 4.71652,-109.31479 -1.65624,-32.10227 -3.00196,-65.15392 -14.66306,-95.49695 -21.39841,-48.5243 -90.02214,-18.26239 -68.62373,30.26192 z"/>
<path d="m 695.72646,232.43062 c -2.22242,7.93624 0.0281,-0.15915 -3.63661,13.44882 -3.23626,12.01693 -4.64652,17.55964 -8.65745,29.91591 -3.77559,11.63125 -12.36615,35.79497 -16.11379,46.44979 -11.14117,29.9631 -23.64471,59.43516 -37.93026,88.04239 -9.2612,18.54582 -24.27678,45.70595 -34.15171,63.82736 -25.36992,46.5711 40.49156,82.44958 65.86148,35.87848 v 0 c 11.25904,-20.67445 25.65233,-46.65706 36.11557,-67.69455 15.3842,-30.9316 28.85999,-62.78716 40.85788,-95.17362 4.71529,-13.41229 12.65872,-35.69273 17.13962,-49.58576 5.30255,-16.44056 9.62644,-33.16539 13.95306,-49.88086 10.7678,-51.92835 -62.66999,-67.15632 -73.43779,-15.22796 z"/>
<path d="m 336.26339,527.55942 c 0.0144,-0.32312 0.21888,-1.24088 0.0431,-0.96935 -1.1375,1.75757 -1.98913,3.68445 -2.99031,5.52309 -2.06699,3.79596 -4.07789,7.62328 -6.21418,11.38067 -2.84376,5.00173 -5.70703,9.99476 -8.7243,14.89377 -9.60095,15.58863 -15.24805,23.44646 -25.84472,38.99261 -16.76693,23.49483 -34.72901,46.1456 -53.63943,67.95109 -18.24383,21.03685 -37.51713,41.21503 -56.33693,61.73297 -35.84751,39.08269 19.42376,89.77872 55.27126,50.69603 v 0 c 19.5791,-21.34642 39.5984,-42.35615 58.55511,-64.26299 20.51795,-23.71105 39.98766,-48.35142 58.149,-73.91374 5.17348,-7.60955 10.45356,-15.14772 15.52045,-22.82866 9.57237,-14.51082 14.57989,-22.69883 22.88383,-37.33268 1.24018,-2.18555 9.81132,-17.88197 11.47893,-21.42829 1.35769,-2.88725 2.44791,-5.89287 3.67186,-8.8393 15.27012,-50.78704 -56.5536,-72.38226 -71.82372,-21.59522 z"/>
<path d="m 377.35281,623.70395 c 17.40872,-0.0413 34.76081,-1.76842 52.10626,-3.07631 7.93805,-0.52682 15.89134,-0.91321 23.84916,-0.88226 1.02171,0.004 7.8,-0.23174 9.18052,0.56058 -9.63062,-2.06074 -13.87531,-2.09991 -21.9848,-13.56513 -3.91923,-5.54101 -4.4517,-12.83265 -6.2697,-19.37162 -0.29448,-1.05916 0.84835,-3.95491 -0.033,-3.29783 -1.32787,0.98998 -1.14655,3.10848 -1.77079,4.64263 -1.11135,2.73128 -2.29018,5.43463 -3.43528,8.15194 -12.64585,28.00371 -25.73338,55.81468 -39.84468,83.11439 -3.77287,7.29899 -7.68018,14.5277 -11.52028,21.79154 -17.64453,31.69787 -36.68536,62.69564 -58.0678,92.02904 -14.50764,19.90224 -18.68336,24.29331 -34.35554,43.08537 -17.09316,18.46955 -16.12561,18.10435 -33.94086,34.80619 -4.99035,4.67846 -9.89764,9.4691 -15.22781,13.7564 -5.25352,4.22565 -10.98027,7.82662 -16.4704,11.73993 -42.86162,31.23111 1.30583,91.84659 44.16745,60.61548 v 0 c 7.54824,-5.58709 15.35573,-10.83995 22.64472,-16.76129 6.00724,-4.88008 11.56822,-10.28866 17.19486,-15.60308 20.47574,-19.33951 19.80572,-19.38456 39.2925,-40.59249 6.49146,-7.82264 13.15551,-15.5052 19.47437,-23.46791 30.90595,-38.94615 57.51132,-81.13804 81.60266,-124.57288 4.05547,-7.68096 8.18041,-15.32564 12.16642,-23.04288 14.94249,-28.92985 28.8133,-58.39987 42.13737,-88.10502 2.12915,-5.17092 6.52943,-15.28189 8.08601,-21.04855 1.17372,-4.34828 3.15251,-8.73059 2.79221,-13.22006 -0.70603,-8.7977 -1.46226,-18.19165 -5.9242,-25.80671 -8.64823,-14.75965 -16.77919,-15.57967 -29.63879,-19.4553 -2.40828,-0.3063 -4.80733,-0.69692 -7.22484,-0.91891 -14.13009,-1.29755 -28.4027,-0.006 -42.52137,0.63093 -15.46782,1.16742 -30.94341,2.74842 -46.46437,2.86381 -53.03301,0 -53.03301,75 0,75 z"/>
<path d="m 298.57761,751.73802 c 14.17728,6.26055 25.90359,16.40167 37.6861,26.23698 13.56654,11.25662 25.12328,24.55777 36.1122,38.26399 33.24993,41.31515 91.67839,-5.70734 58.42846,-47.0225 v 0 c -14.16558,-17.549 -29.16263,-34.47359 -46.58365,-48.90539 -15.65801,-12.98259 -31.5227,-26.07499 -50.14761,-34.64175 -46.71761,-25.09911 -82.21311,40.96957 -35.4955,66.06867 z"/>
<path d="m 549.45232,655.35778 c 20.81305,-3.81488 41.92641,-5.63302 63.01353,-7.09683 23.69003,-1.01921 47.40835,-1.50617 71.11368,-0.83772 53.01264,1.46972 55.09114,-73.50147 2.0785,-74.97119 v 0 c -26.15239,-0.71417 -52.32112,-0.22351 -78.45327,0.99366 -25.18338,1.79098 -50.43867,3.95833 -75.21859,8.97421 -51.57487,12.35043 -34.10872,85.28831 17.46615,72.93787 z"/>
<path d="m 504.56145,636.98444 c -1.24257,13.76532 -1.45867,27.60283 -2.84247,41.35829 -0.4421,4.39472 -1.05482,8.77059 -1.58224,13.15589 -1.60571,12.61886 -4.72633,24.91275 -9.07077,36.85153 -1.29131,3.5486 -2.77346,7.02481 -4.16019,10.53722 -19.20689,49.43274 50.70155,76.59538 69.90844,27.16265 v 0 c 1.86691,-4.86146 3.889,-9.66614 5.60071,-14.58439 5.78358,-16.61788 9.98401,-33.70056 12.2041,-51.16994 0.62246,-5.35029 1.33801,-10.69057 1.86736,-16.05087 1.36325,-13.80438 1.64646,-27.68094 2.85316,-41.49536 4.07649,-52.8761 -70.70162,-58.64112 -74.7781,-5.76502 z"/>
<path d="m 432.95892,815.44471 c 1.78949,0.0409 3.57861,0.14151 5.36847,0.1227 10.61621,-0.11154 21.26598,-1.24647 31.80436,-2.40837 8.47995,-0.93495 30.44676,-3.69434 37.91233,-4.62051 36.13636,-4.45207 72.25095,-9.16378 108.51168,-12.51717 23.43731,-2.16748 35.60324,-2.90136 58.97526,-4.55209 40.85478,-2.87901 81.82714,-3.35309 122.75926,-2.48843 53.02137,1.11123 54.59288,-73.8723 1.57152,-74.98353 v 0 c -43.22129,-0.89909 -86.48384,-0.38457 -129.62283,2.6589 -24.55054,1.7392 -36.59948,2.46147 -61.27007,4.74987 -36.81027,3.41447 -73.4753,8.17728 -110.15969,12.70318 -20.12903,2.49788 -40.25705,5.34541 -60.51871,6.5252 -52.89884,-3.77 -58.23042,71.04025 -5.33158,74.81025 z"/>
<path d="m 625.05281,566.54148 c -0.80895,30.82182 -0.94711,61.65365 -1.10246,92.48411 -0.24951,60.41319 -0.058,120.82707 0.07,181.24035 0.10241,35.77817 0.37025,71.55357 0.2235,107.3318 -0.21515,53.03256 74.78423,53.33686 74.99938,0.30426 v 0 c 0.1442,-35.93267 -0.11573,-71.8625 -0.22305,-107.79508 -0.1278,-60.23448 -0.31876,-120.46954 -0.0708,-180.70392 0.15558,-30.95661 0.32087,-61.9132 1.10341,-92.86152 0,-53.03301 -75,-53.03301 -75,0 z"/>
</svg>
