<?xml version="1.0" ?>
<svg xmlns="http://www.w3.org/2000/svg" viewBox="0 0 1000 1000">
<path d="m 256.29199,101.04412 c -1.03538,1.54583 -1.98638,3.15165 -3.10614,4.6375 -4.81098,6.38383 -11.09926,13.2914 -16.31091,19.01083 -16.38936,17.98621 -33.58471,35.1173 -50.84251,52.26307 -27.77054,27.74463 -56.5546,54.43193 -85.61457,80.81158 -39.265745,35.64689 11.14657,91.17705 50.41232,55.53015 v 0 c 29.89426,-27.14118 59.49934,-54.60461 88.07133,-83.1453 18.40433,-18.29704 36.80342,-36.55452 54.20026,-55.8254 9.44246,-10.45963 14.64832,-16.30269 22.65172,-27.28927 1.72303,-2.36528 3.20821,-4.89498 4.81232,-7.34247 27.33016,-45.448462 -36.94366,-84.099147 -64.27382,-38.65069 z"/>
<path d="m 83.357423,294.25009 c 5.29211,17.37657 8.708073,35.35566 10.726374,53.39959 0.871918,7.79508 1.376699,15.62686 2.065048,23.44029 0.427709,9.57277 1.043637,19.13897 1.283128,28.71829 0.579017,23.15986 0.217239,48.13081 -0.301382,71.21575 -0.930456,41.4166 -2.782905,82.80005 -4.636613,124.18259 -0.76007,13.82311 -1.363284,27.65574 -2.280208,41.46933 -1.844855,27.793 -3.666856,49.18063 -7.411464,76.66227 -4.492255,32.96861 -11.107504,65.5658 -17.724518,98.15326 -10.542977,51.97447 62.960022,66.88449 73.503002,14.91002 v 0 c 7.02813,-34.68062 13.99413,-69.36496 18.72593,-104.45558 3.91659,-29.04512 5.85347,-51.85424 7.79412,-81.15576 0.93165,-14.06672 1.54539,-28.15268 2.31808,-42.22902 1.88509,-42.12535 3.77451,-84.2524 4.70324,-126.4129 0.54492,-24.73647 0.90445,-51.00214 0.23074,-75.7831 -0.29045,-10.68325 -1.00567,-21.35072 -1.50851,-32.02607 -0.84359,-9.13668 -1.46899,-18.29613 -2.53076,-27.41003 -2.54284,-21.82687 -6.82481,-43.532 -13.21931,-64.56085 -15.47285,-50.72564 -87.209747,-28.84373 -71.736897,21.88192 z"/>
<path d="m 257.5281,333.70835 c 18.02739,-2.855 35.96796,-6.21582 53.94181,-9.38312 16.81188,-2.91466 33.60436,-5.94409 50.42027,-8.83515 1.13552,-0.18531 2.27104,-0.37061 3.40656,-0.55592 0.0768,0.0214 0.31016,0.0634 0.23044,0.0641 -11.4838,0.0958 -13.28065,0.80778 -26.1628,-8.63985 -11.62543,-8.52595 -4.03671,-13.31607 -8.43168,-10.39686 2.63015,36.57386 2.825,73.29511 3.21954,109.94811 0.25492,68.76875 -0.95919,137.5315 -1.39303,206.29807 -0.45628,52.16072 -0.50474,104.3567 -2.79164,156.48049 -0.3413,7.77899 -0.82797,15.55092 -1.24196,23.32638 -1.09408,16.72831 -2.55124,33.4579 -5.16688,50.02596 -0.8011,5.07433 -1.89775,11.49327 -3.55547,16.56412 -0.30194,0.92361 -0.83643,1.75422 -1.25464,2.63133 2.54394,-7.48475 1.21774,-5.66854 9.9562,-13.36187 1.43616,-1.2644 4.31873,-1.11758 4.93725,-2.9283 0.40302,-1.17983 -2.24571,-1.09475 -3.4186,-1.51752 -32.96178,-11.88103 19.83176,8.12595 -24.14759,-8.74939 -21.9761,-9.59128 -10.87885,-4.44103 -33.26159,-15.51561 -47.58637,-23.41019 -80.69338,43.88711 -33.10701,67.29729 v 0 c 26.7594,13.10075 13.44706,6.99053 39.90733,18.39525 12.45961,4.63643 25.09952,9.91386 38.22018,12.54219 6.62195,1.32652 13.36575,2.66337 20.11502,2.42397 7.56155,-0.26821 15.40075,-0.9517 22.35605,-3.93043 18.67514,-7.99794 19.57775,-13.52778 28.61659,-28.1861 1.27265,-3.60559 2.731,-7.15093 3.81796,-10.81678 2.2342,-7.53497 3.92324,-16.90903 5.11405,-24.59415 2.89066,-18.6554 4.55255,-37.48059 5.76604,-56.31067 0.43325,-8.21068 0.94113,-16.41776 1.29975,-24.63203 2.30755,-52.85403 2.38296,-105.77984 2.83747,-158.67121 0.43611,-69.19457 1.66373,-138.38534 1.39014,-207.58216 -0.27434,-25.24497 -0.60228,-50.47992 -1.40854,-75.71468 -0.29268,-9.16031 -0.79565,-23.49592 -1.52378,-32.95084 -0.3232,-4.19691 -0.84282,-8.37638 -1.26422,-12.56457 -2.46733,-11.87462 -3.10894,-21.81229 -13.21504,-31.19596 -13.47653,-12.51317 -26.45334,-13.9953 -42.56299,-11.09637 -16.9152,2.91221 -33.80865,5.95253 -50.71999,8.88734 -17.60754,3.10318 -35.18211,6.39768 -52.84162,9.19766 -52.35933,8.42618 -40.44291,82.47346 11.91642,74.04728 z"/>
<path d="m 213.05405,372.75243 c 1.5404,35.03922 2.53143,70.09756 3.44728,105.15761 1.23736,50.95172 -0.54143,101.90414 -2.0717,152.82758 -1.59259,53.00909 73.37358,55.26135 74.96617,2.25226 v 0 c 1.57174,-52.32686 3.36991,-104.68354 2.07994,-157.03905 -0.91813,-35.12246 -1.90153,-70.24382 -3.45242,-105.34516 -1.51799,-53.01128 -76.48726,-50.86452 -74.96927,2.14676 z"/>
<path d="m 64.632324,606.55241 c 27.625347,-17.7088 55.416396,-35.18057 84.122676,-51.10703 10.80533,-5.99488 21.78163,-11.67626 32.67244,-17.5144 49.59031,-25.77095 101.40728,-46.87304 154.32846,-64.71682 25.78257,-8.69328 45.35945,-14.41799 71.23754,-22.26051 50.75123,-15.38871 28.98831,-87.16179 -21.76292,-71.77309 v 0 c -27.12775,8.22987 -47.36598,14.14825 -74.43636,23.30941 -56.53046,19.13103 -111.8664,41.77186 -164.83294,69.35662 -11.56504,6.21349 -23.21934,12.26363 -34.69512,18.64048 -29.182304,16.216 -57.49009,33.92136 -85.566131,51.96174 -45.328091,27.52933 -6.395736,91.63293 38.932355,64.1036 z"/>
<path d="m 768.07218,151.66761 c -0.003,-0.18194 0.067,-0.71141 -0.009,-0.54583 -5.67415,12.44949 4.42343,-7.50092 -5.07345,12.01871 -7.65939,15.74289 -17.27644,30.43934 -26.5495,45.2464 -5.02356,7.31016 -9.92611,14.70497 -15.07069,21.93049 -18.82925,26.44551 -38.85011,52.03252 -58.93564,77.5254 -20.48318,25.99758 -18.80695,23.78249 -39.0001,48.85138 -21.85611,27.00735 -44.32887,53.51258 -66.02133,80.65252 -1.43402,1.93436 -3.13992,3.69414 -4.30207,5.80307 -9.97462,18.10068 -14.21524,31.00539 4.67155,53.62835 14.90798,17.85707 41.38207,9.27641 58.99713,4.67867 34.01074,-9.06664 68.6519,-15.55787 103.55304,-20.04638 8.97789,-1.15462 17.98336,-2.08363 26.97504,-3.12544 36.64309,-3.73408 73.50274,-5.05342 110.3225,-4.43347 19.68056,0.33137 28.86513,0.91703 48.22647,1.84797 24.99131,1.4795 13.16741,0.72662 35.47372,2.22654 52.9138,3.55391 57.93974,-71.27749 5.026,-74.83141 v 0 c -23.1898,-1.5558 -10.8841,-0.77446 -36.91929,-2.30961 -20.68375,-0.98292 -30.41317,-1.60065 -51.4827,-1.93279 -39.82333,-0.62776 -79.68666,0.85082 -119.31334,4.93519 -9.63447,1.12505 -19.28419,2.12636 -28.90341,3.37515 -37.77945,4.90463 -75.27478,11.9761 -112.09867,21.7778 -3.25732,0.87249 -6.58142,1.52576 -9.77194,2.61749 -0.25742,0.0881 -0.436,0.66788 -0.19428,0.79275 7.36117,3.80277 17.97667,3.71481 22.43644,10.69752 20.66579,32.35665 11.43014,27.7496 3.44022,44.51102 -0.60112,1.26104 1.63785,-2.26356 2.45678,-3.39534 21.62245,-27.07085 44.06366,-53.47638 65.83813,-80.42417 20.25612,-25.15151 19.15329,-23.64619 39.61385,-49.62372 21.07124,-26.75289 42.07616,-53.60907 61.77704,-81.39915 5.74069,-8.09783 11.20468,-16.38832 16.80702,-24.58247 15.76879,-25.28013 32.52496,-50.74482 41.10093,-79.56576 11.95072,-51.66895 -61.12021,-68.569823 -73.07093,-16.90088 z"/>
<path d="m 746.56758,337.56135 c -0.44421,28.31109 -1.06659,56.6232 -1.588,84.93437 -0.35617,60.11346 -3.31187,120.15694 -6.61994,180.16635 -0.62289,9.90797 -1.24578,19.81593 -1.86867,29.7239 -3.3255,52.92864 71.5269,57.63161 74.8524,4.70297 v 0 c 0.63423,-10.10015 1.26845,-20.20031 1.90267,-30.30046 3.35562,-60.92391 6.34839,-121.88263 6.72082,-182.91172 0.52988,-28.77148 1.17193,-57.54354 1.60072,-86.31541 0,-53.03301 -75,-53.03301 -75,0 z"/>
<path d="m 664.14255,691.69922 c 31.38007,-2.86624 62.82654,-4.77724 94.30039,-6.22129 31.15352,-0.99333 62.37106,-1.78015 93.53132,-0.4923 7.06059,0.29182 14.10937,0.82097 21.16405,1.23146 52.94635,3.03051 57.23214,-71.84694 4.28579,-74.87745 v 0 c -7.87154,-0.44385 -15.73698,-1.01411 -23.61463,-1.33155 -32.9225,-1.32668 -65.90288,-0.52343 -98.81719,0.54926 -32.72767,1.51286 -65.42846,3.49469 -98.05799,6.48907 -52.7875,5.09701 -45.57924,79.74981 7.20826,74.6528 z"/>
<path d="m 456.74243,375.61456 c 17.07389,-2.4161 34.27615,-3.66491 51.47447,-4.7826 10.34975,-0.60528 20.72048,-0.88875 31.08572,-0.58631 4.9327,0.14394 9.95683,0.28383 14.81231,1.23201 -16.50291,-1.68602 -21.82456,-16.12947 -26.29305,-30.25201 -0.94425,-2.98428 1.14019,-6.26368 0.70698,-9.36366 -0.14074,-1.00715 -1.12499,1.69492 -1.65759,2.56123 -1.44055,2.3432 -2.84086,4.7109 -4.26129,7.06635 -19.6648,30.31801 -39.40212,60.58914 -59.05645,90.91417 -19.44871,30.00509 -39.48126,59.6243 -58.96946,89.60337 -4.56312,7.12453 -9.14838,14.23813 -13.53225,21.47542 -0.80354,1.32656 -4.0961,6.81774 -4.81192,8.41483 -1.22478,2.73262 -2.22563,5.56019 -3.33844,8.34029 4.96575,14.17142 5.22964,31.02404 14.89725,42.51425 10.47044,12.44438 35.48791,6.04954 48.76747,2.83006 8.07517,-1.95772 16.12373,-4.02371 24.19136,-6.01228 25.38789,-6.30988 51.1655,-10.83049 77.19388,-13.38284 6.10408,-0.41564 12.23714,-0.92263 18.35716,-0.49757 0.83782,0.0582 1.67269,0.16132 2.50324,0.28587 1.36268,0.20434 1.5138,0.0685 1.04184,0.35293 -11.67693,-2.59557 -17.73793,-11.70749 -22.75728,-22.40367 -1.7897,-3.81385 -1.5942,-8.54443 -1.56796,-12.73059 -0.28782,0.37995 -0.63646,0.72071 -0.86345,1.13985 -6.12382,11.30731 -0.46793,2.58155 -9.30838,17.19537 -10.57772,17.48563 -22.72094,33.88868 -34.75413,50.3785 -20.80905,27.72875 -43.23363,54.28066 -67.61914,78.93887 -10.80395,10.92477 -22.23719,21.50146 -33.42909,32.02964 -4.64593,4.25056 -9.29185,8.50111 -13.93778,12.75167 -39.12101,35.80569 11.51588,91.13114 50.63688,55.32546 v 0 c 4.90163,-4.4879 9.80327,-8.97579 14.7049,-13.46368 12.68342,-11.94446 24.04159,-22.43622 36.3327,-34.91608 26.63751,-27.04657 51.17803,-56.11295 73.92292,-86.4928 13.8056,-18.96567 27.68345,-37.84899 39.66267,-58.0531 4.44809,-7.50213 10.51329,-18.75444 13.90767,-27.08005 1.55311,-3.80942 2.66701,-7.78347 4.00051,-11.67521 1.31269,-8.24156 3.50908,-16.19714 0.2403,-24.59107 -6.82188,-17.51791 -15.39783,-24.48366 -31.90502,-29.33855 -5.32679,-1.14758 -6.2591,-1.49044 -11.7893,-2.08365 -11.58028,-1.24219 -23.2505,-0.64214 -34.82707,0.29858 -29.55749,2.99166 -58.86167,7.98235 -87.69736,15.19213 -4.38771,1.08176 -8.77542,2.16352 -13.16313,3.24528 -3.46337,0.87089 -6.92406,1.75251 -10.39011,2.61266 -2.31313,0.57403 -4.66365,1.00796 -6.9473,1.68987 -0.21326,0.0637 -0.63491,0.43032 -0.42805,0.51245 6.58758,2.61544 16.01497,1.38379 19.98799,7.25336 7.97593,11.78331 8.36043,27.20205 12.54064,40.80308 -0.72653,1.55947 -1.48359,3.10507 -2.17958,4.67841 -0.22081,0.49917 0.48375,-0.97928 0.7532,-1.45396 0.62937,-1.10871 1.28261,-2.20384 1.94241,-3.29471 4.06045,-6.71323 8.31663,-13.30632 12.54459,-19.91422 19.50451,-30.00837 39.56484,-59.64945 59.02414,-89.68762 20.16621,-31.11584 40.4587,-62.15004 60.54881,-93.31474 2.4753,-4.18927 9.82547,-16.11186 11.37947,-20.80868 2.02557,-6.12211 5.2699,-12.45042 4.39596,-18.83942 -1.40646,-10.28207 -5.0804,-20.58867 -10.95911,-29.14085 -6.43762,-9.36529 -16.83943,-11.12376 -26.43934,-13.75649 -2.58005,-0.35998 -5.15002,-0.80167 -7.74015,-1.07993 -18.03639,-1.93762 -36.28307,-1.05188 -54.34955,-0.26265 -18.48428,1.21356 -36.97479,2.55758 -55.3287,5.13449 -52.67135,6.18293 -43.92737,80.67147 8.74399,74.48854 z"/>
<path d="m 439.86544,702.32607 c 24.66142,12.82719 50.27216,23.71628 75.72769,34.84347 46.29978,19.98575 93.20751,38.52382 140.32681,56.47764 26.37313,9.63656 52.89658,18.93864 79.76511,27.11462 14.01749,4.26546 17.09811,4.96857 30.87554,8.65027 22.40022,5.90345 45.12733,10.37207 68.02652,13.79959 30.35929,3.9677 61.04437,3.9729 91.6039,3.87608 7.61429,-0.0969 15.22858,-0.19377 22.84286,-0.29066 53.02863,-0.67853 52.06903,-75.67239 -0.95959,-74.99386 v 0 c -7.38098,0.095 -14.76196,0.18998 -22.14294,0.28497 -26.78273,0.10116 -53.67826,0.19937 -80.30848,-3.06017 -20.11647,-2.97073 -40.06811,-6.93272 -59.74694,-12.08607 -34.98291,-9.29639 -69.31108,-20.83091 -103.25607,-33.38125 -45.99791,-17.51979 -91.78716,-35.61583 -136.98793,-55.11285 -23.60275,-10.31658 -47.35925,-20.38767 -70.27065,-32.19027 -46.71748,-25.09935 -82.21331,40.96914 -35.49583,66.06849 z"/>
</svg>
