<?xml version="1.0" ?>
<svg xmlns="http://www.w3.org/2000/svg" viewBox="0 0 1000 1000">
<path d="m 413.19873,137.51351 c 9.77234,5.44068 19.14176,11.54978 27.72005,18.75205 8.48359,7.12275 14.49494,13.30753 22.49228,21.11162 4.21153,4.35969 8.42305,8.71937 12.63458,13.07906 36.88392,38.10612 90.77411,-14.05563 53.89018,-52.16175 v 0 c -4.75825,-4.90731 -9.51651,-9.81462 -14.27476,-14.72194 -11.13647,-10.77137 -17.25428,-17.1428 -29.27331,-26.952387 -13.0238,-10.629653 -27.22984,-19.803338 -42.21133,-27.410258 -48.29794,-21.904537 -79.27563,46.399065 -30.97769,68.303605 z"/>
<path d="m 268.81107,324.41012 c 20.37393,-4.27523 39.9062,-11.6636 59.72441,-17.87979 23.78835,-7.46148 25.86078,-7.78377 51.00004,-14.72224 42.99351,-10.92377 86.22643,-21.12206 129.8715,-29.12493 25.47472,-4.6711 30.3862,-5.10786 55.17798,-8.57901 27.84002,-3.56191 55.9109,-5.36241 83.96679,-4.29701 1.45474,0.0874 2.90949,0.17477 4.36423,0.26216 0.347,0.0708 1.38776,0.28454 1.041,0.21253 -11.86153,-2.46326 -9.76714,-0.99424 -23.17895,-13.81605 -1.93262,-1.8476 -1.30831,-6.36937 -3.90503,-7.00633 -1.99869,-0.49027 0.29702,4.10516 0.44552,6.15773 1.91908,25.43274 1.42921,51.01667 -1.09657,76.39187 -2.16846,21.78537 -4.33894,33.44037 -7.783,55.29342 -6.39477,37.63613 -14.23718,75.07403 -25.44812,111.5951 -5.08709,16.57182 -8.35591,25.16326 -14.06251,41.08295 -17.86086,49.93485 52.75768,75.19393 70.61855,25.25908 v 0 c 6.38112,-17.87542 9.8518,-26.99693 15.54381,-45.68748 12.02889,-39.49859 20.5744,-79.94461 27.44311,-120.63266 3.84238,-24.62457 6.12844,-36.83568 8.49492,-61.53 2.84788,-29.71778 3.28957,-59.67485 0.89706,-89.43774 -1.13789,-9.76212 -1.74461,-23.29152 -7.73324,-31.53092 -5.11183,-7.03307 -12.26337,-12.50617 -19.50532,-17.31752 -5.39501,-3.58429 -16.73768,-3.78517 -23.40882,-4.24656 -32.45786,-1.14013 -64.93193,0.76274 -97.13565,4.97792 -26.70732,3.76952 -31.86208,4.22831 -59.2077,9.25801 -45.49765,8.36842 -90.57195,18.99261 -135.38385,30.42693 -27.20344,7.53193 -28.57461,7.64763 -54.23616,15.69586 -1.46543,0.4596 -30.28348,9.89291 -34.40927,11.16227 -6.81293,2.09608 -9.03509,2.62798 -14.81011,4.11814 -52.26528,8.99113 -39.5499,82.9054 12.71538,73.91427 z"/>
<path d="m 365.42926,423.11345 c 0.63915,-0.24563 1.26396,-0.53242 1.91745,-0.73688 4.00467,-1.25301 8.11249,-2.15189 12.193,-3.1301 11.34533,-2.71978 21.27052,-4.92385 32.84868,-7.11403 7.28261,-1.37761 14.59917,-2.56931 21.89876,-3.85396 46.27133,-7.94837 93.03079,-10.20353 139.89322,-10.3256 18.2441,0.3691 9.76289,0.0722 25.44689,0.7927 52.97979,2.37529 56.33895,-72.54945 3.35916,-74.92473 v 0 c -18.14416,-0.7964 -8.46373,-0.47707 -29.04412,-0.86759 -6.76748,0.025 -13.53582,-0.0365 -20.30243,0.075 -44.33253,0.73031 -88.64811,4.03651 -132.40073,11.39394 -24.36113,4.31891 -48.79685,8.64024 -72.63855,15.37448 -6.22671,1.75878 -6.55323,1.95082 -10.97206,3.65961 -49.25505,19.65808 -21.45432,89.31524 27.80073,69.65716 z"/>
<path d="m 351.19891,565.14597 c 24.63529,-5.66839 49.17749,-11.68978 74.13383,-15.83446 8.94847,-1.48613 17.94056,-2.69653 26.91085,-4.04479 52.55047,-7.48956 105.62363,-9.68049 158.62363,-11.03444 5.52125,-0.0983 11.0425,-0.19651 16.56375,-0.29477 53.02455,-0.94726 51.68492,-75.9353 -1.33963,-74.98804 v 0 c -5.71544,0.10249 -11.43089,0.20497 -17.14633,0.30745 -56.10652,1.44341 -112.28377,3.86006 -167.90519,11.85135 -9.78803,1.48572 -19.60037,2.81935 -29.36411,4.45716 -25.81406,4.33014 -51.23001,10.45705 -76.71178,16.35879 -51.7756,11.47986 -35.54062,84.70161 16.23498,73.22175 z"/>
<path d="m 304.1062,314.40522 c -0.49754,1.84304 -1.06754,3.66803 -1.49263,5.52912 -2.85382,12.49417 -4.31637,25.26794 -5.6514,37.99611 -1.55893,14.86279 -2.39865,25.92335 -3.66211,41.00141 -4.86917,55.72739 -8.34473,111.55148 -10.97946,167.42458 -2.62915,60.33906 -3.56109,120.73556 -4.52299,181.11928 -0.37219,37.52672 -0.766,75.14841 2.12993,112.59899 0.39326,5.08579 0.95153,10.15747 1.4273,15.23621 1.81839,17.3416 4.66913,34.59484 9.92481,51.24069 5.45394,14.37458 13.7279,28.78638 33.72683,29.67331 12.84954,0.56986 24.31986,-8.81218 35.41707,-15.31507 0.93874,-0.5501 11.49399,-17.89374 11.8541,-18.4769 10.32721,-15.63268 21.62072,-30.60656 33.47229,-45.11151 5.22486,-6.39463 10.71255,-12.57096 15.96063,-18.94653 5.88644,-7.15109 11.62734,-14.42075 17.44101,-21.63113 33.27529,-41.29473 -25.12428,-88.3531 -58.39957,-47.05837 v 0 c -5.47949,6.80446 -10.88778,13.66688 -16.43846,20.41339 -5.75259,6.99192 -11.75434,13.7772 -17.46956,20.7997 -13.62716,16.74419 -26.59254,34.04474 -38.38451,52.13596 -1.8541,3.00413 -3.77791,5.96633 -5.5623,9.01239 -0.24639,0.42062 -0.9825,1.51615 -0.51825,1.3675 10.9032,-3.49119 20.95974,-12.783 32.34247,-11.55757 20.25505,2.1806 23.14222,10.35413 27.89667,21.54683 -3.95837,-11.28771 -4.93917,-23.41861 -6.59829,-35.17412 -0.41505,-4.31391 -0.9043,-8.62131 -1.24516,-12.94171 -2.79743,-35.45712 -2.30051,-71.08769 -1.98652,-106.6178 0.94899,-59.60504 1.86345,-119.22284 4.44941,-178.78415 2.58689,-54.96413 6.0103,-109.87935 10.80134,-164.69981 1.90086,-22.74807 3.28325,-45.69837 7.57155,-68.15007 16.00234,-50.5611 -55.50185,-73.19183 -71.5042,-22.63073 z"/>
<path d="m 613.91053,575.13778 c -28.82725,18.7946 -58.72541,35.89852 -88.5271,53.09028 -30.32288,17.06669 -15.42921,8.72723 -44.67694,25.02568 -46.32537,25.81589 -9.81618,91.32985 36.50919,65.51396 v 0 c 29.76081,-16.58546 14.54285,-8.06299 45.64869,-25.57674 24.5467,-14.16453 20.81202,-11.91161 44.43953,-25.91414 6.32842,-3.75046 12.65979,-7.49629 18.95854,-11.29637 4.24778,-2.56271 17.60764,-10.54741 23.07112,-14.58351 0.56852,-0.41999 -1.29434,0.5684 -1.94152,0.8526 47.45518,-23.67501 13.97367,-90.78677 -33.48151,-67.11176 z"/>
<path d="m 395.74775,695.49511 c 12.18179,7.62874 24.57124,14.90373 36.67694,22.66151 15.51668,10.51332 30.80782,21.42002 45.24942,33.3845 9.64309,7.98904 12.66524,11.00734 21.86304,19.49835 19.29825,18.15815 37.5399,37.38661 56.49807,55.8896 12.58714,12.24463 26.26099,23.27889 40.95051,32.88401 11.58434,7.51647 24.77874,11.58687 37.88049,15.52759 19.35688,5.95704 38.87917,11.37255 58.72515,15.46107 6.27611,1.29295 12.58999,2.39531 18.88499,3.59296 22.10818,3.83263 44.45493,6.32014 66.88837,7.0617 8.19697,0.27096 16.40241,0.12597 24.60361,0.18895 53.03217,0.29852 53.45433,-74.7003 0.42216,-74.99881 v 0 c -6.90489,-0.022 -13.81258,0.13148 -20.71469,-0.0661 -19.20142,-0.54975 -38.33092,-2.63167 -57.25683,-5.87832 -5.50356,-1.03463 -11.02352,-1.98557 -16.51068,-3.10388 -18.08486,-3.68578 -35.85219,-8.65939 -53.48051,-14.09136 -6.3153,-1.89095 -12.89175,-3.46451 -18.70085,-6.66323 -10.62832,-6.74119 -20.23096,-14.94387 -29.33119,-23.61161 -19.49232,-18.98792 -38.17798,-38.79596 -58.06976,-57.37852 -11.14867,-10.23356 -14.25295,-13.35479 -25.9683,-23.01196 -16.45042,-13.56037 -33.82652,-25.96948 -51.50923,-37.85861 -11.26204,-7.19692 -22.63835,-14.19341 -34.15526,-20.9751 -43.47809,-30.36702 -86.42354,31.12029 -42.94545,61.4873 z"/>
</svg>
