<?xml version="1.0" ?>
<svg xmlns="http://www.w3.org/2000/svg" viewBox="0 0 1000 1000">
<path d="m 276.30659,215.47039 c 35.43511,-10.16777 71.7319,-17.40193 108.05868,-23.56383 14.14041,-2.39855 28.3395,-4.43737 42.50924,-6.65605 76.23466,-10.77416 153.27324,-15.51993 230.248,-15.45216 12.26673,0.0108 24.53074,0.36527 36.79612,0.5479 25.6822,0.71821 51.33499,2.52342 76.81427,5.84739 5.01593,0.65437 10.0056,1.49634 15.0084,2.24452 52.45995,7.7752 63.45575,-66.41437 10.9958,-74.18957 v 0 c -5.80965,-0.85437 -11.60464,-1.81518 -17.42894,-2.5631 -27.96643,-3.591267 -56.11594,-5.568145 -84.29911,-6.331309 -12.92041,-0.183577 -25.83951,-0.546338 -38.76121,-0.550732 -80.5743,-0.0274 -161.20856,5.016201 -240.99926,16.353621 -14.83984,2.33318 -29.71049,4.4782 -44.51951,6.99955 -23.2447,3.95759 -48.32727,8.91321 -71.44821,14.06415 -12.87609,2.86856 -27.71303,6.48363 -40.63266,10.24434 -3.09933,0.90217 -6.14175,1.98948 -9.21263,2.98422 -49.51236,19.00068 -22.64135,89.02174 26.87102,70.02106 z"/>
<path d="m 372.70205,93.121192 c 4.46207,22.329138 6.42365,45.054548 9.86607,67.541528 1.19463,7.80368 2.62589,15.56928 3.93884,23.35392 7.02455,31.70198 3.24845,16.32678 11.22731,46.15027 13.78432,51.21027 86.20659,31.71629 72.42226,-19.49398 v 0 c -6.89607,-25.4393 -3.63788,-12.38045 -9.70493,-39.19385 -1.18796,-6.96532 -2.49372,-13.91157 -3.56389,-20.89596 -3.77722,-24.65195 -5.88868,-49.58169 -11.03558,-74.016863 -11.70611,-51.724918 -84.85619,-35.169983 -73.15008,16.554935 z"/>
<path d="m 592.18065,60.74435 c 0.28454,15.196385 -2.53989,30.291514 -5.74573,45.0798 -3.52,16.23744 -6.56281,27.10565 -10.81888,43.36581 -9.71001,29.80054 -4.18288,15.24753 -16.53533,43.67648 -20.80872,48.78009 48.17675,78.20806 68.98547,29.42797 v 0 c 15.20204,-36.1529 8.55221,-18.08231 20.11532,-54.15046 9.35254,-35.87608 19.59378,-72.344167 18.96239,-109.747434 -1.66017,-53.0070172 -76.62341,-50.6591825 -74.96324,2.347834 z"/>
<path d="m 594.43816,244.45097 c -26.49849,8.53056 -53.21149,16.38276 -79.73511,24.83144 -10.58116,3.37047 -21.1156,6.8859 -31.6734,10.32885 -30.88603,10.73402 -61.99209,20.80889 -93.09858,30.87859 -8.84061,2.86185 -17.72759,5.58491 -26.5176,8.59856 -9.43292,3.23406 -18.76271,6.76142 -28.14407,10.14214 -49.88,18.01348 -24.40508,88.55446 25.47492,70.54097 v 0 c 8.60093,-3.11335 17.15023,-6.37321 25.80279,-9.34004 8.76891,-3.00671 17.63482,-5.72273 26.4542,-8.57803 31.16986,-10.09131 62.34123,-20.18237 93.28972,-30.94066 10.20736,-3.33147 20.39135,-6.73542 30.62209,-9.9944 27.65238,-8.80861 55.52277,-16.93311 83.10507,-25.9645 49.8531,-18.08781 24.27306,-88.59073 -25.58003,-70.50292 z"/>
<path d="m 303.98198,458.92558 c 1.43732,2.48987 2.79778,5.02572 4.31196,7.46962 2.26357,3.65344 9.89068,14.99157 12.23169,18.42639 5.70473,8.37019 9.92408,14.63597 16.4463,22.60138 3.40661,4.1604 7.08799,8.08803 10.63199,12.13204 3.34627,3.40932 6.69254,6.81863 10.03881,10.22795 37.29408,37.70479 90.61671,-15.03702 53.32262,-52.74181 v 0 c -2.41837,-2.4188 -4.83673,-4.8376 -7.2551,-7.2564 -2.39852,-2.65502 -4.90442,-5.21685 -7.19556,-7.96507 -9.50933,-11.40643 -17.22385,-24.19322 -25.48068,-36.49507 -23.75947,-47.41294 -90.81151,-13.81197 -67.05203,33.60097 z"/>
<path d="m 440.27662,432.09246 c 7.45752,7.28262 13.60571,15.72035 20.20143,23.74936 2.17351,2.64584 4.41332,5.2365 6.61998,7.85476 12.1627,12.65991 5.31032,6.22766 20.86672,18.96151 41.71279,32.74971 88.02786,-26.24108 46.31508,-58.99079 v 0 c -6.91715,-4.862 -3.58889,-2.09492 -9.90791,-8.39284 -10.30883,-12.14485 -19.74432,-25.06694 -31.12159,-36.27424 -37.54188,-37.45807 -90.5156,15.63417 -52.97371,53.09224 z"/>
<path d="m 657.5581,375.80989 c 3.38573,0.23765 -0.84662,-2.81812 -1.09936,-2.07675 -0.72683,2.13199 -1.11445,4.36493 -1.67168,6.54739 -1.12048,3.59786 -2.06448,7.2555 -3.36145,10.79356 -4.71426,12.8603 -7.20602,16.7645 -13.6803,29.60069 -17.76236,34.14827 -43.06808,63.18992 -68.54998,91.69286 -16.97847,18.99137 -34.20918,37.75574 -51.28204,56.6623 -35.5426,39.36018 20.1211,89.625 55.6637,50.26482 v 0 c 17.3099,-19.16922 34.80427,-38.17257 51.98784,-57.45511 8.52512,-9.56648 17.12167,-19.07686 25.32367,-28.92178 20.46673,-24.56637 39.25828,-50.4819 54.04318,-78.91154 3.54275,-7.23123 7.36194,-14.33346 10.62826,-21.69368 5.32298,-11.99466 8.97415,-22.49397 12.27226,-35.02013 2.2774,-8.64953 3.95415,-16.99685 4.16032,-25.97446 0.0735,-3.20007 -0.50991,-6.38148 -0.76487,-9.57223 -9.9448,-52.09223 -83.61434,-38.02817 -73.66955,14.06406 z"/>
<path d="m 262.04567,701.02427 c 20.18021,-6.88882 40.53614,-13.35914 61.2308,-18.53902 7.75328,-1.94065 15.56626,-3.63445 23.34938,-5.45168 65.39897,-14.39651 131.65422,-24.27598 197.92725,-33.6071 42.27404,-5.72092 84.70163,-10.51473 127.27098,-13.40573 21.28226,-1.44533 27.53564,-1.5327 48.20804,-2.30674 14.49843,-0.21557 19.48765,-0.49292 33.22126,-0.0204 7.12799,0.24525 13.97471,0.6746 20.89067,2.33985 51.9578,10.62482 66.98357,-62.8546 15.02577,-73.47943 v 0 c -3.1872,-0.60921 -6.352,-1.35031 -9.56161,-1.82763 -20.63319,-3.06848 -41.63608,-2.19703 -62.40602,-1.95899 -22.0448,0.83895 -28.53258,0.92964 -51.21188,2.48056 -44.11576,3.01685 -88.0862,7.97589 -131.89684,13.91144 -68.5095,9.65145 -136.99635,19.90419 -204.58857,34.85449 -8.62191,2.02927 -17.27679,3.92319 -25.86572,6.08781 -23.03191,5.80458 -45.70846,12.99768 -68.14036,20.77796 -49.59972,18.77146 -23.05287,88.91606 26.54685,70.1446 z"/>
<path d="m 468.95405,553.5689 c 0,25.33426 0,50.66851 0,76.00277 -0.20685,46.31506 0.43631,92.63981 -0.41682,138.951 -0.177,9.60807 -0.48958,19.21316 -0.73436,28.81975 -1.09865,33.51378 -3.89169,66.97148 -8.53947,100.18107 -2.16238,15.45075 -3.08964,19.86633 -5.72451,34.50265 -9.35775,52.20088 64.46544,65.43475 73.8232,13.23387 v 0 c 2.91328,-16.31296 3.91962,-21.12286 6.30409,-38.29057 4.96038,-35.71363 7.94137,-71.6901 9.11259,-107.72595 0.25118,-9.95371 0.57139,-19.90592 0.75353,-29.86113 0.85257,-46.59785 0.21969,-93.20898 0.42175,-139.81069 0,-25.33426 0,-50.66851 0,-76.00277 0,-53.03301 -75,-53.03301 -75,0 z"/>
<path d="m 461.84532,633.22347 c -8.99807,13.37653 -18.4845,26.387 -29.0089,38.61796 -4.62058,5.36981 -9.42498,10.57867 -14.13747,15.86801 -18.61466,20.96269 -38.95605,40.24177 -59.65084,59.11246 -17.78908,16.22108 -31.00941,28.01302 -49.54164,43.46952 -8.5435,7.12556 -17.27242,14.02582 -25.90863,21.03873 -23.3432,18.90013 -47.26026,37.06811 -71.185,55.21942 -42.24795,32.05637 3.08661,91.80399 45.33456,59.74762 v 0 c 24.58663,-18.65756 49.1628,-37.33553 73.15099,-56.76345 9.13843,-7.43208 18.37443,-14.74575 27.41528,-22.29623 18.84635,-15.73955 33.64552,-28.89187 51.71676,-45.40832 22.46305,-20.53039 44.51333,-41.5329 64.73859,-64.30864 5.36654,-6.05616 10.84648,-12.01369 16.09961,-18.16848 11.38131,-13.33479 21.83784,-27.38969 31.58503,-41.95136 31.23803,-42.85657 -29.37032,-87.03381 -60.60834,-44.17724 z"/>
<path d="m 521.2364,723.11654 c -0.86734,-0.26969 -1.70039,-0.91901 -2.60201,-0.80906 -0.54618,0.0666 0.88693,0.65174 1.34076,0.96285 1.60448,1.09995 3.24978,2.14075 4.83375,3.27004 9.78114,6.97344 19.0611,14.5672 28.35301,22.16926 25.88819,22.06277 50.51242,45.54089 76.12151,67.9194 17.44762,14.92152 35.74982,28.83703 54.96241,41.40351 13.14888,8.33465 27.81872,13.70949 42.11025,19.69357 3.43136,1.46814 6.85991,2.94289 10.2941,4.40442 11.57144,4.92463 18.07287,7.76022 30.31792,12.35073 17.3689,6.51137 27.11114,9.58668 44.96236,15.5645 50.29378,16.82366 74.08603,-54.30249 23.79225,-71.12615 v 0 c -15.7763,-5.27122 -25.93413,-8.49895 -41.25565,-14.21519 -11.45546,-4.27387 -17.3675,-6.86931 -28.32127,-11.53046 -3.6115,-1.5368 -7.21754,-3.08643 -10.82631,-4.62965 -10.11917,-4.23589 -20.54105,-7.97066 -30.12555,-13.3469 -16.31976,-10.5829 -31.7465,-22.4932 -46.58105,-35.06266 -26.2497,-22.90134 -51.39705,-47.03897 -78.01766,-69.52057 -10.8629,-8.85346 -13.55789,-11.24946 -24.40538,-19.36942 -8.41948,-6.30245 -17.12607,-12.73016 -26.66727,-17.28141 -2.19517,-1.04713 -4.51972,-1.79808 -6.77958,-2.69712 -50.80584,-15.20746 -72.31243,56.64284 -21.50659,71.85031 z"/>
</svg>
