<?xml version="1.0" ?>
<svg xmlns="http://www.w3.org/2000/svg" width="1000" height="1000">
<path d="m 239.00644,238.72293 c 33.99892,-8.613 68.91085,-12.59819 103.66963,-16.70948 63.27933,-6.20357 126.76739,-11.0048 190.34125,-12.76915 13.57143,-0.37665 27.14962,-0.44743 40.72442,-0.67114 55.42665,-0.1531 110.95278,2.09808 165.95695,9.22331 6.573,0.85146 13.11373,1.93583 19.67059,2.90375 4.88661,0.89184 9.77321,1.78368 14.65982,2.67552 52.18461,9.44808 65.54621,-64.3521 13.3616,-73.80018 v 0 c -5.71235,-1.02711 -11.4247,-2.05423 -17.13705,-3.08134 -7.33174,-1.06923 -14.64638,-2.26309 -21.99522,-3.20769 -58.26134,-7.48878 -117.06618,-9.90228 -175.76975,-9.7029 -14.13312,0.23928 -28.26978,0.32117 -42.39936,0.71785 -65.54712,1.8402 -131.00694,6.78724 -196.24645,13.23396 -37.09867,4.41122 -74.35009,8.74217 -110.6525,17.87411 -51.84039,11.18365 -36.02432,84.49703 15.81607,73.31338 z"/>
<path d="m 325.68262,114.46524 c 1.01313,15.58936 2.88782,31.14917 5.99092,46.46898 3.12794,15.44246 5.88148,24.83195 9.95152,40.11374 5.64416,20.49451 11.38993,40.9606 17.1522,61.42211 14.37605,51.04733 86.56787,30.71653 72.19182,-20.33079 v 0 c -5.67271,-20.14255 -11.32787,-40.28995 -16.88911,-60.46364 -3.13448,-11.67198 -6.06485,-21.85705 -8.52214,-33.62983 -2.52557,-12.09992 -4.03767,-24.39079 -4.94052,-36.70982 -2.21272,-52.986832 -77.14741,-49.857577 -74.93469,3.12925 z"/>
<path d="m 627.8407,87.106905 c -3.93531,23.287075 -10.14139,46.100215 -17.74325,68.449985 -2.91507,8.57045 -6.17516,17.01966 -9.26275,25.52949 -15.39973,37.40035 -7.46077,18.54297 -23.83808,56.5632 -20.97193,48.71014 47.91461,78.36894 68.88655,29.65879 v 0 c 17.2932,-40.18434 8.79457,-19.94088 25.48771,-60.7338 3.43469,-9.53996 7.06106,-19.01307 10.30408,-28.61988 9.11399,-26.9985 16.47042,-54.64612 20.73704,-82.840149 5.66225,-52.729867 -68.90904,-60.737503 -74.5713,-8.007636 z"/>
<path d="m 160.9445,415.08407 c -0.63211,-0.21243 -2.29463,-1.17215 -1.89634,-0.6373 0.64149,0.86143 1.80679,1.16184 2.7145,1.73598 2.08929,1.3215 4.19306,2.62012 6.27645,3.95091 9.53372,6.08981 18.90192,12.43403 28.3175,18.70368 10.7624,6.94333 21.07332,14.53529 31.34912,22.16748 42.59762,31.59022 87.27294,-28.65192 44.67532,-60.24214 v 0 c -11.30363,-8.3714 -22.64101,-16.70478 -34.45589,-24.35174 -9.95708,-6.63023 -19.86866,-13.33048 -29.9551,-19.76365 -2.20811,-1.40834 -11.01196,-6.96821 -13.53403,-8.3269 -2.34916,-1.26555 -4.80595,-2.32024 -7.20892,-3.48035 -49.67004,-18.58461 -75.95264,51.65942 -26.28261,70.24403 z"/>
<path d="m 130.7678,561.11079 c 13.65516,10.75262 27.83421,20.80969 41.48565,31.56266 10.47403,9.21454 5.3816,4.58298 15.28907,13.88173 38.75018,36.20668 89.95415,-18.59436 51.20397,-54.80103 v 0 c -12.7858,-11.90405 -6.07106,-5.86143 -20.18787,-18.07926 -12.98341,-10.15995 -26.30484,-19.86831 -39.40839,-29.87153 -40.52247,-34.21154 -88.904896,23.09589 -48.38243,57.30743 z"/>
<path d="m 196.5775,883.86534 c 30.65038,-32.87481 60.75415,-66.25961 90.91078,-99.58731 7.9676,-8.81419 15.9352,-17.62837 23.9028,-26.44255 35.56302,-39.34173 -20.07459,-89.63544 -55.63761,-50.29371 v 0 c -7.95935,8.80507 -15.91871,17.61014 -23.87806,26.41521 -29.62944,32.74554 -59.21591,65.5381 -89.30226,97.86481 -36.80034,38.18684 17.204,90.23039 54.00435,52.04355 z"/>
<path d="m 492.60067,301.22554 c -0.0503,-0.0527 -0.10881,-0.21758 -0.15083,-0.1581 -3.60645,5.10526 -6.97526,10.37559 -10.57861,15.48304 -13.32182,18.88254 -26.98198,37.49991 -40.73456,56.0702 -59.34634,78.05307 23.56782,-30.93978 -38.80632,50.85706 -6.64452,8.71356 -13.16584,17.52147 -19.88293,26.1792 -6.36434,8.20308 -12.90611,16.26694 -19.35917,24.40041 -32.95095,41.554 25.81528,88.15368 58.76623,46.59968 v 0 c 6.77335,-8.54618 13.63515,-17.02299 20.32006,-25.63853 6.65818,-8.58108 13.12116,-17.31189 19.70706,-25.94856 58.56517,-76.80165 -17.2023,22.82637 39.53164,-51.8204 17.85113,-24.11536 15.19319,-20.31747 31.44023,-42.98756 7.70343,-10.74887 15.61463,-21.47599 22.69795,-32.65825 1.413,-2.23067 2.7342,-4.51817 4.1013,-6.77726 23.75945,-47.41296 -43.2926,-81.01389 -67.05205,-33.60093 z"/>
<path d="m 556.58428,396.8447 c 14.60574,-0.31176 29.19737,-0.19515 43.79877,0.25391 18.21507,0.80274 36.34268,2.83432 54.39304,5.33867 1.91635,0.29874 3.83658,0.57358 5.74905,0.8962 10.53137,1.77656 -3.57717,0.74637 -7.71239,-4.58054 -16.83865,-21.69118 -14.60438,-20.26165 -11.78813,-38.82509 -0.37936,0.32289 -0.81044,0.59342 -1.13808,0.96869 -4.03817,4.62507 -7.79941,9.48634 -11.81145,14.13409 -11.63529,13.47893 -23.6999,26.54066 -35.83309,39.56987 -25.19846,26.84388 -52.19009,51.92422 -79.85147,76.19706 -8.14923,7.15095 -16.31176,14.28976 -24.63258,21.24029 -8.51439,7.11223 -17.24467,13.96195 -25.86701,20.94293 -32.34987,25.14905 -66.2585,48.31435 -102.05083,68.29609 -16.61966,9.27824 -23.66519,12.51942 -40.11305,20.63197 -47.54158,23.50103 -14.3061,90.73497 33.23548,67.23394 v 0 c 18.38599,-9.10681 26.09378,-12.66027 44.68272,-23.09114 39.07998,-21.92908 76.15032,-47.25176 111.47042,-74.80574 9.21003,-7.47243 18.53157,-14.80949 27.63011,-22.41728 8.65831,-7.23969 17.15462,-14.67195 25.63433,-22.12005 29.3726,-25.79924 58.00227,-52.48713 84.76202,-81.01037 12.95744,-13.92861 25.85735,-27.88229 38.26145,-42.31012 4.15689,-4.83508 12.70594,-14.94253 16.48937,-20.29909 2.36877,-3.35368 4.39903,-6.93408 6.59855,-10.40113 1.8899,-6.70582 6.72752,-13.23119 5.66971,-20.11747 -1.74511,-11.36062 -6.9669,-22.30671 -13.62563,-31.6753 -3.32865,-4.68328 -9.76558,-6.10887 -14.96597,-8.55203 -2.36961,-1.11325 -5.03294,-1.45409 -7.58414,-2.04209 -2.93161,-0.67569 -10.18674,-1.73259 -12.93707,-2.15688 -20.70213,-2.8538 -41.49417,-5.15429 -62.38606,-6.01084 -15.36049,-0.46215 -30.71336,-0.61966 -46.07807,-0.28855 -53.03301,0 -53.03301,75 0,75 z"/>
<path d="m 467.8568,474.7525 c 1.98848,1.50159 2.11752,1.55494 4.37664,3.54934 8.28877,7.31751 16.25619,15.00397 24.42029,22.45779 4.60612,4.20539 9.2522,8.3668 13.87831,12.5502 39.52609,34.98389 84.00637,63.63392 127.74918,92.94056 34.60396,22.55274 68.32389,46.42071 102.78819,69.17878 4.27047,2.71803 8.50649,5.49094 12.8114,8.15409 9.66808,5.98097 15.60934,9.44132 25.74351,14.68561 13.15861,6.8094 26.69791,12.66438 40.34261,18.40841 20.29111,8.37293 41.58222,13.79389 62.83268,19.06558 51.48217,12.73132 69.48697,-60.07546 18.00481,-72.80678 v 0 c -17.49943,-4.31206 -35.0762,-8.61951 -51.81795,-15.41707 -19.24454,-8.04438 -37.06492,-16.23744 -54.85757,-27.22154 -3.94707,-2.43668 -7.83015,-4.97552 -11.74522,-7.46327 -34.3304,-22.64751 -67.88528,-46.45316 -102.35748,-68.89237 -40.73595,-27.29176 -82.25426,-53.84692 -119.19618,-86.26575 -18.069,-16.33202 -8.02166,-7.16284 -24.4309,-22.30539 -4.68758,-4.32573 -11.58435,-10.76836 -16.58968,-15.0475 -4.36741,-3.73378 -5.2854,-4.31843 -9.32656,-7.27983 -43.63496,-30.14119 -86.26103,31.56795 -42.62608,61.70914 z"/>
<path d="m 419.78746,672.67882 c 11.65529,20.89602 16.07098,44.87814 20.46789,68.11712 3.95498,23.5915 5.96238,47.43997 7.415,71.29655 3.24215,52.93382 78.10186,48.34872 74.85971,-4.58509 v 0 c -1.66633,-27.06207 -4.00819,-54.11168 -8.62026,-80.85435 -1.36086,-7.00269 -2.54488,-14.04206 -4.08258,-21.00805 -5.64841,-25.58819 -13.39222,-51.15221 -27.05898,-73.68989 -28.79601,-44.53414 -91.77679,-3.81043 -62.98078,40.72371 z"/>
<path d="m 506.93661,704.64131 c 18.11893,-8.02869 37.48408,-12.62377 56.66867,-17.28293 19.0315,-4.28446 38.257,-7.81571 57.68437,-9.71007 9.14041,-0.89127 11.58726,-0.88753 20.39107,-1.26716 5.57321,-0.12304 11.16619,0.0211 16.69219,0.80312 0.62014,0.0878 3.67341,0.52618 3.89364,0.93294 -6.67062,-1.77105 -12.2066,-6.58591 -15.9171,-12.30464 -0.85503,-1.31779 -2.45193,-4.94198 -3.4109,-7.09044 -0.27034,24.6546 -4.32839,49.05653 -8.36161,73.31388 -5.82531,32.60125 -12.56337,65.02957 -19.67359,97.37197 -11.38395,51.79678 61.86775,67.89611 73.2517,16.09934 v 0 c 7.38688,-33.61918 14.38869,-67.32763 20.41457,-101.22043 3.15502,-19.12882 6.20577,-38.20706 7.94177,-57.52916 0.75794,-8.43609 1.41285,-18.56102 1.32534,-27.14388 -0.0355,-3.47884 -0.33767,-6.94985 -0.50651,-10.42477 -1.55958,-8.95096 -1.48202,-12.50015 -6.03248,-20.88278 -5.94992,-10.96063 -16.06788,-18.2789 -27.70947,-22.09447 -14.97986,-4.15827 -29.76949,-5.29347 -45.31952,-4.75303 -11.11969,0.52744 -14.17719,0.53461 -25.63756,1.69098 -22.49234,2.26953 -44.76356,6.33009 -66.79573,11.34412 -26.00027,6.36406 -52.38022,12.80555 -76.31512,25.14724 -45.96206,26.4573 -8.54579,91.45747 37.41627,65.00017 z"/>
<path d="m 518.24114,843.43936 c -0.5981,0.47334 -1.90929,0.666 -1.79431,1.42003 0.0999,0.65506 1.31499,-0.17351 1.96404,-0.30694 2.19328,-0.4509 4.35666,-1.04701 6.56007,-1.44548 11.76635,-2.12786 23.57881,-2.84152 35.49676,-3.4957 14.64554,-0.48494 29.29265,0.18232 43.83996,1.92039 5.60236,0.66936 11.17534,1.56523 16.76301,2.34785 52.53656,7.2395 62.77475,-67.05841 10.2382,-74.29791 v 0 c -6.6993,-0.91052 -13.38008,-1.96956 -20.09788,-2.73156 -18.29351,-2.07503 -36.70862,-2.81156 -55.10889,-2.1116 -5.79118,0.35321 -11.59279,0.56416 -17.37354,1.05962 -10.1662,0.87135 -21.27622,2.30773 -31.29898,4.38909 -7.56112,1.57016 -16.52392,4.00421 -23.65032,7.16054 -3.03108,1.34248 -5.81649,3.18235 -8.72474,4.77352 -43.35848,30.53755 -0.17186,91.8557 43.18662,61.31815 z"/>
</svg>
