<?xml version="1.0" ?>
<svg xmlns="http://www.w3.org/2000/svg" width="1000" height="1000">
<path d="m 214.8966,201.12973 c 17.3003,-3.98877 34.36058,-8.934 51.68297,-12.83865 20.51341,-4.62393 30.94659,-6.37786 52.25237,-10.39904 60.38286,-10.90281 121.27278,-19.41287 182.54164,-23.26429 12.74033,-0.80087 25.50315,-1.19106 38.25472,-1.78659 53.93071,-1.28932 108.01995,1.01618 161.59413,7.45807 7.80654,0.93868 15.58235,2.11727 23.37353,3.17591 25.89136,4.33801 13.49743,2.09952 37.19496,6.64214 52.09074,9.95264 66.16589,-63.71479 14.07516,-73.667424 v 0 c -26.19991,-4.990918 -12.46476,-2.52898 -41.22104,-7.29844 -8.50488,-1.144705 -16.99339,-2.418504 -25.51466,-3.434115 -57.37395,-6.838139 -115.28993,-9.271482 -173.03796,-7.792743 -13.54414,0.645564 -27.10029,1.075157 -40.63241,1.936692 -63.95829,4.071966 -127.52626,12.936114 -190.56106,24.33634 -23.68765,4.48584 -33.20326,6.05347 -56.02491,11.21336 -12.8984,2.91628 -22.18791,5.44895 -34.63099,8.64365 -9.56551,2.4559 -7.397,1.91153 -14.87596,3.70052 -51.88369,10.98102 -36.35418,84.35564 15.52951,73.37461 z"/>
<path d="m 293.58385,86.567697 c 2.32252,27.677403 11.36929,54.227963 19.6836,80.547663 5.53791,16.31783 8.39494,25.64871 15.163,41.72496 3.21803,7.64384 6.85963,15.10236 10.28945,22.65354 22.05896,48.22761 90.26309,17.03153 68.20413,-31.19608 v 0 c -2.85485,-6.18903 -5.89606,-12.29546 -8.56457,-18.56709 -6.07405,-14.27549 -8.59569,-22.57523 -13.5837,-37.23305 -6.44733,-20.35626 -13.67525,-40.81058 -16.3079,-62.099461 -2.94829,-52.950992 -77.8323,-48.781474 -74.88401,4.169518 z"/>
<path d="m 622.28442,39.350789 c -7.17525,22.225473 -14.23759,44.476698 -21.0629,66.813561 -7.74083,22.5486 -16.34307,44.83572 -26.20559,66.54863 -7.13488,15.70783 -17.04558,35.02631 -24.75391,50.35904 -23.80912,47.38803 43.20767,81.05922 67.0168,33.67119 v 0 c 9.09539,-18.11341 18.34921,-36.08516 26.70486,-54.56076 10.93179,-24.17185 20.46226,-48.98123 28.96449,-74.10263 1.71217,-5.60415 8.34685,-27.41208 10.45516,-33.993626 3.5824,-11.183196 7.47069,-22.270989 10.82069,-33.529435 14.99489,-50.8689825 -56.94472,-72.074953 -71.9396,-21.20597 z"/>
<path d="m 455.07594,191.11958 c -1.63871,4.21008 -3.9395,8.1461 -6.04104,12.13069 -1.66347,3.154 -3.24385,6.35317 -4.98833,9.46308 -5.05084,9.00422 -8.83201,14.62373 -14.52538,23.56276 -9.92576,15.94131 -21.21489,30.92412 -32.54152,45.874 -31.97673,42.30826 27.85619,87.53018 59.83292,45.22192 v 0 c 12.5212,-16.60238 25.02122,-33.22707 36.02701,-50.89917 3.21571,-5.07959 6.51715,-10.10591 9.64711,-15.23877 6.66889,-10.93638 7.58929,-12.89598 12.97161,-23.15669 3.38646,-6.45586 6.90128,-12.89085 9.49729,-19.72123 19.25917,-49.4124 -50.6205,-76.64898 -69.87967,-27.23659 z"/>
<path d="m 336.8136,324.73538 c 3.0117,16.07931 5.85978,32.19739 7.82348,48.44396 0.69996,5.79106 1.25476,11.59875 1.88214,17.39812 2.67571,32.68639 3.75941,65.54294 2.76474,98.3317 -0.16858,5.55714 -0.49194,11.10852 -0.73791,16.66278 -0.64687,13.40167 -2.296,26.71688 -4.77841,39.89282 -9.61034,52.15497 64.14793,65.74605 73.75827,13.59108 v 0 c 3.01194,-16.60472 5.19346,-33.34716 5.94925,-50.22378 0.26588,-6.21001 0.61638,-12.41697 0.79765,-18.63002 1.04837,-35.93241 -0.15781,-71.93824 -3.19502,-107.74978 -0.70995,-6.47222 -1.33893,-12.95383 -2.12984,-19.41666 -2.13314,-17.43071 -5.15971,-34.73176 -8.39367,-51.98643 -9.67761,-52.14253 -83.41829,-38.45633 -73.74068,13.68621 z"/>
<path d="m 423.04229,366.92626 c 19.76856,-4.23032 39.6519,-7.93827 59.52914,-11.62404 24.36093,-4.42256 48.91198,-7.90498 73.59332,-9.9156 4.42464,-0.21005 7.1004,-0.39133 11.40824,-0.41097 1.92873,-0.009 4.03229,-0.0953 5.90659,0.48812 -8.6267,-1.42811 -14.79854,-7.077 -19.80573,-13.93574 -0.798,-1.09308 -1.31599,-2.36531 -1.97398,-3.54797 -0.032,0.26416 -0.12899,0.52846 -0.0959,0.79249 0.23723,1.89445 0.63241,3.76613 0.90345,5.65604 0.90179,6.2879 1.83201,13.98197 2.45155,20.17842 1.35495,13.55205 1.31133,15.09218 2.18877,29.17702 1.08573,23.35169 1.05196,46.76492 -0.56723,70.092 -0.92363,13.30638 -1.83532,20.26961 -3.30211,33.42155 -2.79341,21.72271 -5.92159,43.40346 -9.53411,65.0053 -8.74256,52.30743 65.23132,64.67128 73.97388,12.36385 v 0 c 3.8363,-22.96494 7.1683,-46.01264 10.10408,-69.1099 1.67254,-15.18509 2.61816,-22.35127 3.65805,-37.805 1.76254,-26.19317 1.78407,-52.48042 0.51825,-78.69602 -0.98154,-15.35093 -2.09589,-30.62748 -4.00046,-45.89604 -0.69508,-5.57231 -1.97328,-14.98185 -3.1855,-20.68131 -0.6706,-3.15293 -1.57306,-6.25204 -2.35959,-9.37807 -1.35113,-3.15379 -2.31585,-6.50284 -4.05338,-9.46138 -7.15666,-12.18579 -17.90689,-19.23479 -31.48486,-21.96207 -12.22524,-2.08398 -24.59097,-2.00124 -36.93835,-1.03458 -27.1876,2.28063 -54.24693,5.99423 -81.08252,10.91758 -20.85018,3.86829 -41.70652,7.75952 -62.43779,12.22332 -51.71991,11.72822 -35.1337,84.87122 16.58621,73.143 z"/>
<path d="m 425.284,479.11673 c 14.91539,-4.10263 29.81125,-6.4694 45.17878,-8.06757 12.02427,-1.07882 24.08339,-0.83078 36.11526,-0.14756 52.95683,2.8415 56.97532,-72.05077 4.01849,-74.89227 v 0 c -16.04747,-0.8241 -32.12988,-1.09203 -48.15288,0.46977 -4.31625,0.47569 -8.64292,0.86473 -12.94873,1.42707 -14.2982,1.86733 -28.40058,4.87918 -42.36292,8.44034 -51.45632,12.8354 -33.30432,85.60562 18.152,72.77022 z"/>
<path d="m 407.31981,583.77076 c 21.52469,-3.76923 43.28358,-5.78392 65.06706,-7.26969 27.42933,-1.81592 54.9232,-2.04948 82.38518,-3.05267 52.99729,-1.9461 50.24509,-76.89559 -2.7522,-74.94949 v 0 c -28.26732,1.04384 -56.56927,1.26485 -84.80137,3.18046 -24.30938,1.69792 -48.59309,3.95668 -72.61416,8.17715 -52.26527,8.99121 -39.54977,82.90546 12.71549,73.91424 z"/>
<path d="m 176.40165,380.39049 c 16.16916,9.22657 32.50112,18.15084 48.57312,27.55148 45.78266,26.76654 83.63627,-37.97991 37.85361,-64.74646 v 0 c -15.28354,-8.93167 -30.72485,-17.5723 -46.22528,-26.12045 -44.77077,-28.42671 -84.97222,34.88871 -40.20145,63.31543 z"/>
<path d="m 163.0285,582.37666 c 2.45932,-0.76484 4.94296,-1.45546 7.37797,-2.29452 17.72787,-6.10868 34.97177,-13.64889 52.17748,-21.05934 9.19091,-3.9585 18.35107,-7.98801 27.52661,-11.98202 10.40055,-4.45933 20.8011,-8.91867 31.20165,-13.378 10.9181,-4.47794 21.8362,-8.95588 32.7543,-13.43382 49.06386,-20.13051 20.59502,-89.51729 -28.46884,-69.38678 v 0 c -11.28051,4.62997 -22.56101,9.25994 -33.84152,13.88991 -10.52743,4.51416 -21.06646,9.00136 -31.58229,13.54246 -25.1751,10.8715 -50.13446,22.45049 -76.03752,31.52052 -51.32293,13.35877 -32.43078,85.94036 18.89216,72.58159 z"/>
<path d="m 733.65945,295.41972 c -1.06484,1.15387 -2.06868,2.36719 -3.19454,3.46161 -3.36305,3.26913 -16.71857,15.12698 -18.36724,16.54997 -16.00038,13.81009 -32.72272,26.75618 -49.26895,39.89712 -41.52866,32.98288 5.11618,91.71328 46.64484,58.7304 v 0 c 17.6717,-14.03563 35.50057,-27.8887 52.56233,-42.67063 7.08631,-6.13942 17.62284,-15.63494 24.33275,-22.50913 2.18966,-2.24328 4.14287,-4.70578 6.2143,-7.05867 32.81023,-41.6652 -26.11325,-88.06587 -58.92349,-46.40067 z"/>
<path d="m 626.82299,424.39981 c 1.05898,0.87674 -0.0384,0.0151 3.05336,1.31519 10.38374,4.36635 19.53428,10.07352 29.053,16.06344 20.47052,13.5914 40.38803,28.11424 58.99968,44.17996 3.23711,2.7943 6.37192,5.70496 9.55788,8.55744 7.5048,7.61906 16.47463,14.54771 21.61933,24.14124 27.84141,45.13708 91.67488,5.76338 63.83346,-39.3737 v 0 c -1.55732,-2.43765 -3.01114,-4.94462 -4.67198,-7.31296 -8.73905,-12.46181 -19.77451,-23.06681 -30.84593,-33.41446 -3.82479,-3.40345 -7.59092,-6.87399 -11.47437,-10.21035 -21.23268,-18.24149 -43.90373,-34.78376 -67.27158,-50.16918 -4.2599,-2.64772 -8.46266,-5.38968 -12.77972,-7.94315 -13.74462,-8.12973 -28.28342,-15.28543 -43.80945,-19.26385 -51.92312,-10.79305 -67.18679,62.63733 -15.26368,73.43038 z"/>
<path d="m 221.66468,731.79464 c 30.93384,-7.00019 62.26801,-11.96465 93.58631,-16.8671 60.5061,-8.73688 121.21239,-16.33531 182.14273,-21.44157 13.40466,-1.12337 26.82944,-1.99217 40.24416,-2.98826 55.83707,-3.45299 112.01984,-3.99587 167.75689,1.44539 7.72796,0.75443 15.4209,1.83248 23.13134,2.74872 24.66761,4.14457 12.94085,1.90485 35.20588,6.5836 51.92045,10.80589 67.20228,-62.62071 15.28184,-73.4266 v 0 c -26.43875,-5.45775 -12.53951,-2.85782 -41.72666,-7.64353 -8.66905,-1.01031 -17.31941,-2.19651 -26.00715,-3.03092 -59.54882,-5.71938 -119.55891,-5.19839 -179.20824,-1.46983 -13.885,1.03555 -27.78035,1.94066 -41.65501,3.10666 -62.47973,5.25067 -124.73129,13.04061 -186.77449,22.0202 -32.34261,5.07135 -64.70498,10.19665 -96.65455,17.41335 -52.00763,10.37817 -37.33068,83.92806 14.67695,73.54989 z"/>
<path d="m 458.92459,602.26493 c -0.64602,25.155 -0.799,50.31381 -0.74199,75.47597 0.50345,48.00519 0.9191,96.01068 1.15889,144.01795 0.40244,36.63092 0.45241,73.26093 0.22653,109.89277 -0.32653,53.032 74.67205,53.49377 74.99857,0.46177 v 0 c 0.22693,-36.91066 0.1792,-73.81954 -0.22604,-110.72926 -0.23961,-47.94062 -0.65122,-95.87951 -1.15815,-143.81802 -0.0602,-25.10432 0.12823,-50.20371 0.74219,-75.30118 0,-53.03301 -75,-53.03301 -75,0 z"/>
<path d="m 462.437,663.84492 c -2.18827,1.55252 -4.43216,3.02947 -6.5648,4.65757 -8.66401,6.61426 -16.72023,14.24095 -24.82309,21.4991 -38.2009,34.21853 13.81248,-12.17267 -30.40728,27.22184 -44.61009,39.53221 -90.8588,77.13235 -137.20611,114.59001 -19.70935,16.28936 -40.28299,31.46451 -60.92038,46.53992 -42.81503,31.29493 1.44268,91.84453 44.25772,60.5496 v 0 c 21.60823,-15.80318 43.15076,-31.7089 63.80581,-48.75837 47.28155,-38.21305 94.45056,-76.5861 139.95386,-116.92208 41.97875,-37.40164 -4.88541,4.40746 30.37708,-27.19493 5.59062,-5.01034 11.10364,-9.92778 16.78156,-14.8153 1.18504,-1.02008 2.47969,-1.91826 3.59019,-3.01901 0.22309,-0.22112 -0.58748,0.22256 -0.88122,0.33383 45.73721,-26.84414 7.77387,-91.52632 -37.96334,-64.68218 z"/>
<path d="m 509.60411,733.63726 c 16.8925,16.64707 34.98717,32.02982 53.16184,47.2462 25.35633,20.11162 50.55872,40.42391 76.10131,60.2998 16.10041,12.77509 33.04105,24.38562 50.70462,34.8734 15.78338,9.00516 32.41074,16.39023 48.93386,23.90436 15.91298,7.2219 32.05538,13.91854 48.1726,20.66593 48.92048,20.47649 77.87861,-48.70752 28.95813,-69.18401 v 0 c -15.41831,-6.45235 -30.8628,-12.85147 -46.08685,-19.75547 -14.07395,-6.39844 -28.25386,-12.64548 -41.7745,-20.17159 -14.96807,-8.82473 -29.23621,-18.72884 -42.85554,-29.52877 -24.84682,-19.32501 -49.3405,-39.10215 -74.02909,-58.6278 -15.96288,-13.34353 -31.80454,-26.86433 -46.81789,-41.27962 -36.45672,-38.51504 -90.92521,13.04254 -54.46849,51.55757 z"/>
</svg>
