<?xml version="1.0" ?>
<svg xmlns="http://www.w3.org/2000/svg" width="1000" height="1000">
<path d="m 216.87835,182.22841 c 3.99414,-1.56411 5.09334,-2.08618 9.81943,-3.37169 27.84287,-7.57331 56.62284,-11.4651 85.08089,-15.84616 63.01345,-8.86318 126.49494,-14.66186 190.08475,-17.16862 13.4122,-0.52871 26.83515,-0.73548 40.25273,-1.10323 63.44025,-1.38761 126.77097,2.85903 189.98353,7.62405 7.47188,0.51052 14.94376,1.02104 22.41564,1.53155 52.9098,3.61286 58.01916,-71.212898 5.10936,-74.825758 v 0 c -7.29628,-0.497903 -14.59255,-0.995807 -21.88882,-1.49371 -65.77762,-4.955926 -131.68156,-9.292349 -197.69434,-7.807431 -14.01292,0.391321 -28.0315,0.615787 -42.03878,1.173965 -66.12611,2.63507 -132.13744,8.691653 -197.66023,17.94622 -32.47043,5.020144 -65.29752,9.544282 -96.94303,18.679644 -6.89621,1.99079 -9.2998,3.03312 -15.02272,5.28783 -49.05435,20.15366 -20.55277,89.527 28.50159,69.37334 z"/>
<path d="m 293.44793,69.193329 c -0.14956,21.663219 2.78304,43.118351 7.65867,64.200261 1.62909,7.04409 3.6087,14.0025 5.41305,21.00375 7.72127,26.75971 3.88976,13.76095 11.47118,39.00319 15.26036,50.78997 87.08823,29.20856 71.82787,-21.58142 v 0 c -7.16789,-23.847 -3.59449,-11.75136 -10.71113,-36.28958 -3.37086,-12.83663 -5.48447,-19.80329 -7.82312,-32.58452 -2.03963,-11.147028 -2.74987,-22.438097 -2.83652,-33.751681 0,-53.033008 -75,-53.033008 -75,0 z"/>
<path d="m 594.37934,67.503791 c 0.41016,9.154347 -0.27602,18.407932 -1.15943,27.512942 -0.50382,5.192687 -0.98087,10.394557 -1.78936,15.548597 -0.88168,5.62059 -2.18483,11.16691 -3.27725,16.75036 -6.74214,24.35545 -3.08152,12.24019 -10.98831,36.34383 -16.40446,50.43207 54.91726,73.63148 71.32172,23.19941 v 0 c 9.54728,-29.55976 5.06346,-14.3719 13.35744,-45.59124 1.37045,-7.42473 2.98173,-14.80903 4.11133,-22.2742 0.93198,-6.15911 1.4989,-12.36971 2.06949,-18.57275 1.4907,-16.205956 2.51315,-32.771081 -0.3648,-48.883171 -11.28983,-51.81737003 -84.57066,-35.851149 -73.28083,15.966222 z"/>
<path d="m 445.48861,240.84814 c 12.74296,7.20692 25.45176,14.52653 37.76987,22.4461 2.1207,1.51308 4.24139,3.02616 6.36208,4.53924 43.32708,30.58209 86.57669,-30.69165 43.24962,-61.27374 v 0 c -3.07567,-2.15473 -6.15133,-4.30946 -9.22699,-6.46419 -3.34258,-2.12595 -6.6506,-4.30725 -10.02775,-6.37784 -2.53666,-1.55526 -14.73092,-8.62856 -17.64261,-10.33554 -5.29848,-3.10625 -9.30003,-5.58255 -14.68294,-8.44435 -1.66799,-0.88677 -3.38749,-1.67304 -5.08124,-2.50956 -48.38016,-21.72234 -79.10019,46.69753 -30.72004,68.41988 z"/>
<path d="m 180.84334,355.15176 c 23.32525,-4.37242 46.42845,-9.8154 69.80507,-13.93885 9.30447,-1.64123 18.64349,-3.08015 27.96523,-4.62023 81.40144,-12.10672 163.74534,-15.78683 245.87045,-19.36712 15.00374,-0.44744 30.00427,-1.02042 45.01124,-1.34233 29.09174,-0.62405 54.22256,-0.71428 83.22262,-0.32999 33.33503,0.44174 66.65752,1.66251 99.97108,2.87162 21.42744,0.82774 42.83976,1.98013 64.25077,3.14463 52.9548,2.87916 57.02656,-72.01023 4.07176,-74.88939 v 0 c -21.86199,-1.18827 -43.72538,-2.363 -65.60419,-3.20596 -34.08722,-1.2354 -68.18313,-2.47766 -102.29243,-2.91985 -29.93101,-0.38802 -55.84079,-0.28672 -85.86116,0.36244 -15.35003,0.33193 -30.69345,0.92011 -46.04017,1.38017 -85.13337,3.72027 -170.48797,7.61365 -254.8531,20.30348 -9.90868,1.64448 -19.83555,3.18291 -29.72605,4.93344 -22.80389,4.03607 -45.36219,9.24622 -68.09433,13.63395 -52.31459,8.69968 -40.01137,82.68367 12.30321,73.98399 z"/>
<path d="m 215.93587,320.65694 c -1.36556,13.86801 -2.22856,27.78101 -4.52237,41.54573 -2.71013,16.26292 -5.0127,24.72533 -8.8983,41.31774 -10.13355,42.13015 -21.524,83.96777 -34.81346,125.21867 -9.21673,28.60903 -15.20583,44.78045 -25.31577,73.23399 -18.50935,51.42995 -38.34501,102.42256 -60.896698,152.22886 -11.589218,25.59525 -21.113277,44.70887 -33.377046,69.88462 -23.219242,47.67983 44.21023,80.5168 67.429474,32.83696 v 0 c 12.93648,-26.5722 22.41871,-45.58666 34.66173,-72.66556 23.25627,-51.43782 43.75224,-104.08063 62.85773,-157.18473 10.66346,-30.039 16.58947,-46.01192 26.32333,-76.27551 13.80468,-42.9202 25.64494,-86.44744 36.17876,-130.27782 1.99195,-8.60726 4.15499,-17.17671 5.97585,-25.82178 4.54868,-21.59621 7.28366,-43.43243 8.90025,-65.4254 6.09227,-52.68192 -68.41121,-61.29769 -74.50348,-8.61577 z"/>
<path d="m 388.38251,336.15754 c 3.6476,25.18961 4.90712,50.65801 6.21118,76.05303 0.97742,19.95609 1.29873,39.93398 1.64321,59.90801 0.91798,53.02506 75.90674,51.72684 74.98876,-1.29822 v 0 c -0.36194,-20.82963 -0.706,-41.66309 -1.73157,-62.47375 -1.50435,-29.03509 -2.92746,-58.19233 -7.57442,-86.92969 -10.42319,-51.99863 -83.96035,-37.258 -73.53716,14.74062 z"/>
<path d="m 541.66296,299.9528 c 0.0837,23.84401 0.0488,47.67997 -0.56319,71.51685 -0.57575,27.99306 -7.18624,55.17821 -13.88409,82.18748 -12.69422,51.49133 60.12551,69.44367 72.81973,17.95234 v 0 c 1.89087,-7.70969 3.94806,-15.38048 5.6726,-23.12907 5.50181,-24.72039 9.6592,-49.74791 10.36786,-75.11754 0.60829,-24.46832 0.68838,-48.93471 0.58709,-73.41006 0,-53.03301 -75,-53.03301 -75,0 z"/>
<path d="m 311.72851,444.72391 c 22.4222,-4.48633 44.95196,-8.33815 67.53469,-11.91625 36.09258,-5.3813 72.31201,-10.0245 108.6682,-13.2256 23.88109,-2.10269 37.13762,-2.80412 61.00366,-4.32518 46.45379,-2.88243 93.01077,-3.31322 139.52818,-2.24534 13.78907,0.93584 27.90787,0.32318 41.54242,3.0195 0.31082,0.0751 1.21697,0.0792 0.93246,0.22519 -0.30213,0.155 -0.67449,-0.0962 -1.00082,-0.19013 -0.91327,-0.26281 -1.83263,-0.5188 -2.7123,-0.87839 -4.02043,-1.64351 -7.1636,-3.65168 -10.4685,-6.79333 -2.00434,-1.90535 -3.49861,-4.28376 -5.24791,-6.42564 -1.12434,-2.35853 -2.40814,-4.64746 -3.37302,-7.07559 -0.53918,-1.35688 -0.65536,-2.85054 -1.12123,-4.23429 -0.0756,-0.22457 -0.0668,0.47081 -0.0661,0.70776 0.004,1.32035 0.0715,2.63993 0.0806,3.96025 0.0436,6.38156 -0.0456,7.37933 -0.22097,14.3515 -0.65653,16.73871 -3.27581,33.3305 -7.46457,49.54071 -3.34005,12.92571 -5.45639,18.81609 -9.5818,31.59039 -3.79102,10.34801 -6.51481,18.75165 -11.43248,28.57079 -2.02005,4.03347 -4.48043,7.83094 -6.72064,11.7464 -25.7247,46.37607 39.86097,82.75629 65.58567,36.38022 v 0 c 3.31991,-6.10824 6.91336,-12.07555 9.95973,-18.32471 6.04526,-12.40097 9.32333,-22.50332 14.01485,-35.43755 4.85302,-15.18058 7.44794,-22.46379 11.32945,-37.99143 5.26326,-21.05519 8.50947,-42.58605 9.28841,-64.28415 0.185,-8.10221 0.31722,-10.33625 0.21969,-17.98582 -0.0882,-6.92135 -0.14425,-14.32768 -2.29212,-20.98475 -1.06271,-3.29377 -2.75904,-6.3483 -4.13856,-9.52245 -2.08461,-2.69281 -3.8481,-5.6682 -6.25385,-8.07843 -7.19175,-7.20517 -16.50397,-10.95649 -26.31888,-12.73181 -17.45111,-2.94223 -35.17113,-3.5804 -52.83213,-4.1348 -48.68074,-1.09999 -97.40197,-0.65036 -146.01533,2.37836 -25.09973,1.60594 -38.4159,2.30689 -63.58742,4.53507 -37.8245,3.34823 -75.50846,8.17666 -113.05836,13.78997 -23.2619,3.69622 -46.47487,7.64597 -69.57301,12.26857 -52.12859,9.75241 -38.3366,83.47338 13.792,73.72096 z"/>
<path d="m 284.33783,551.75329 c 23.11183,-4.47213 46.51528,-7.28292 69.86543,-10.1817 51.63394,-5.9106 103.52196,-9.45294 155.46302,-11.09134 11.88517,-0.37489 23.77576,-0.552 35.66364,-0.828 46.62327,-0.92857 93.2342,0.46853 139.75729,3.45057 52.92526,3.37887 57.70371,-71.46875 4.77845,-74.84762 v 0 c -48.69792,-3.09726 -97.48614,-4.57276 -146.28758,-3.58249 -12.3058,0.28927 -24.61445,0.476 -36.91742,0.86779 -54.0303,1.72062 -108.00454,5.43151 -161.71299,11.60439 -27.14626,3.38139 -54.45754,6.44918 -81.17166,12.48203 -51.00103,14.5394 -30.43922,86.66576 20.56182,72.12637 z"/>
<path d="m 428.34378,653.38248 c 3.52021,-0.26051 2.9198,-0.19352 8.64503,-0.94815 5.29237,-0.69758 24.67766,-3.49561 28.69368,-4.062 23.94245,-3.37665 18.48533,-2.59353 44.30133,-5.98295 54.64662,-7.0562 109.7923,-9.51688 164.86451,-8.73956 12.15888,0.17161 24.31126,0.65846 36.46689,0.9877 32.40511,1.32675 64.78466,3.55834 97.02007,7.16386 19.86983,2.22243 26.03331,3.33725 44.84452,6.21342 52.42855,7.98422 63.71994,-66.16094 11.2914,-74.14516 v 0 c -20.59995,-3.12566 -27.0479,-4.29224 -48.77268,-6.70594 -34.01708,-3.77941 -68.18421,-6.12288 -102.37874,-7.49939 -12.80559,-0.33816 -25.60787,-0.8433 -38.41678,-1.01448 -58.3558,-0.77986 -116.78352,1.90235 -174.68601,9.3782 -28.57328,3.75432 -57.08716,7.9298 -85.66488,11.63342 -52.12864,9.75217 -38.33698,83.4732 13.79166,73.72103 z"/>
<path d="m 385.93585,519.81364 c -0.51773,1.99989 -1.08976,3.9865 -1.5532,5.99966 -2.11637,9.19341 -3.76035,18.21642 -6.47159,27.2974 -3.17921,10.6484 -6.39775,19.60574 -10.04345,30.20768 -11.43519,33.48394 -23.21481,66.84181 -35.44406,100.04341 -2.65268,7.44979 -5.62594,14.78088 -8.35116,22.2034 -0.66845,1.82061 -2.62306,7.26023 -3.05112,9.24369 -0.63512,2.94288 -1.01215,5.9356 -1.51823,8.90339 3.30506,20.66248 0.35087,24.47549 22.62543,38.70921 5.17626,3.30768 11.95352,2.99441 18.05875,3.6731 2.83281,0.31491 5.69099,-0.37558 8.52056,-0.71843 5.28077,-0.63985 12.99039,-2.24916 18.01272,-3.22381 34.73523,-7.40443 69.77077,-13.14632 104.91178,-18.21699 31.17847,-4.39238 62.55677,-7.36975 94.01494,-8.74425 17.88729,-0.78155 25.83821,-0.72461 43.59726,-0.91586 26.82783,0.09 53.78324,0.64449 80.37332,4.55924 3.16863,0.46651 6.31304,1.08484 9.46956,1.62726 9.23475,1.83226 18.38235,4.20619 27.00957,8.01401 0.3363,0.17402 0.67259,0.34804 1.00888,0.52206 0.0519,0.0472 0.21592,0.17747 0.15569,0.14154 -1.23133,-0.73444 -2.58503,-1.30467 -3.6724,-2.23913 -6.47402,-5.56357 -8.48027,-8.06499 -11.66249,-16.30735 -0.80867,-2.09458 -0.88593,-4.40227 -1.32889,-6.6034 -0.0866,-0.5517 0.0603,-2.11274 -0.25981,-1.6551 -0.66265,0.94743 -0.61257,2.22972 -0.92135,3.3439 -0.65051,2.3472 -1.29363,4.69648 -1.95652,7.04021 -3.28064,11.59918 -6.49267,23.20552 -9.60138,34.85267 -5.66262,21.94782 -12.53404,43.58254 -21.29129,64.50087 -1.4731,3.51878 -3.0725,6.98335 -4.60875,10.47503 -6.1173,13.80332 -13.27784,27.0784 -21.70753,39.59649 -3.02266,3.98659 -5.58531,8.55675 -9.49698,11.78123 -0.54238,0.39751 -1.05074,0.84663 -1.65405,1.13751 -0.16855,0.0813 -0.63856,0.38558 -0.4937,0.26714 0.8756,-0.71587 2.08668,-1.21663 3.04547,-1.70035 2.99007,-1.41279 6.04214,-1.46803 9.30112,-1.73105 0.54177,-0.0437 1.99224,0.26524 1.62497,-0.13543 -0.83872,-0.915 -2.21752,-1.11655 -3.31098,-1.70392 -2.65794,-1.42773 -5.295,-2.89399 -7.9425,-4.34099 -19.34992,-11.11137 -8.87442,-5.12616 -31.44029,-17.93146 -46.12445,-26.17318 -83.13892,39.05663 -37.01447,65.22982 v 0 c 23.07404,13.09292 11.92142,6.74527 33.46101,19.03744 9.34287,4.82524 15.65852,8.64783 25.55936,11.79941 11.8886,3.78432 24.25581,4.20331 36.05349,0.0168 1.96768,-0.82705 3.97592,-1.56357 5.90304,-2.48116 6.70058,-3.19047 12.61503,-7.84138 18.15893,-12.70708 7.80392,-7.46799 14.63641,-15.7953 20.57733,-24.82755 10.82195,-16.24472 20.21858,-33.34841 28.08086,-51.23009 1.86034,-4.26724 3.79385,-8.50332 5.58102,-12.80171 9.84097,-23.66879 17.64832,-48.11536 24.07917,-72.91729 2.78551,-10.44495 3.63589,-13.7789 6.48411,-23.92447 2.67788,-9.53883 6.11613,-19.59452 7.67962,-29.38453 0.56176,-3.51751 0.73542,-7.08611 1.10312,-10.62916 -0.46967,-4.1595 -0.25917,-8.45359 -1.40902,-12.47849 -4.47357,-15.65912 -14.2764,-24.72372 -28.50323,-30.93215 -14.1798,-6.00788 -28.97971,-10.3054 -44.14193,-13.05384 -4.19153,-0.69444 -8.36912,-1.47901 -12.57459,-2.08332 -29.96969,-4.30652 -60.32057,-5.09681 -90.55206,-5.13896 -19.31927,0.22147 -27.48434,0.15986 -46.99713,1.03084 -33.62946,1.50109 -67.173,4.69953 -100.5048,9.39532 -36.37002,5.26082 -72.63649,11.18854 -108.59049,18.84226 -2.61055,0.51622 -5.21713,1.05291 -7.83164,1.54865 -11.60869,2.20116 2.28911,-0.98207 9.97431,4.65132 20.16595,14.78199 17.21978,16.20815 19.74292,35.66508 -0.40439,1.83424 -0.80936,3.66835 -1.21317,5.50271 -0.0559,0.25394 0.0897,-0.51395 0.16945,-0.76145 0.32667,-1.01383 0.68102,-2.01881 1.04853,-3.01856 2.80783,-7.6382 5.8596,-15.18644 8.59361,-22.85239 12.42176,-33.72592 24.38886,-67.61002 36.0056,-101.62214 7.32589,-21.38911 14.85942,-42.8473 18.63297,-65.21722 16.0023,-50.56111 -55.50191,-73.19179 -71.50422,-22.63067 z"/>
<path d="m 162.13282,836.71499 c 5.6783,16.50972 14.5837,31.77188 24.5631,46.03166 2.64991,3.78652 5.50685,7.42385 8.26027,11.13578 7.72633,9.14089 10.53725,12.99952 19.35763,21.25018 3.97232,3.71575 8.23129,7.11268 12.34693,10.66902 40.41016,34.34413 88.98009,-22.80446 48.56994,-57.14859 v 0 c -7.42904,-6.14448 -14.3443,-11.96935 -20.23355,-19.71595 -8.86051,-11.68199 -17.72729,-23.8489 -22.39827,-37.90352 -18.15951,-49.82703 -88.62556,-24.1456 -70.46605,25.68142 z"/>
<path d="m 287.61726,822.69285 c 8.075,20.27144 21.16745,37.99811 33.46539,55.85249 2.27784,3.18942 4.55567,6.37884 6.83351,9.56827 30.84254,43.14207 91.85463,-0.47587 61.0121,-43.61793 v 0 c -2.02928,-2.83531 -4.05856,-5.67062 -6.08785,-8.50593 -6.48204,-9.40279 -6.76433,-9.73517 -13.06778,-19.18336 -4.58408,-6.87103 -9.39549,-13.71298 -12.33289,-21.49642 -19.36261,-49.37194 -89.18509,-21.98907 -69.82248,27.38288 z"/>
<path d="m 413.30855,839.00903 c -0.93865,-1.00383 -1.70642,-2.20051 -2.81593,-3.0115 -0.45232,-0.33062 0.47412,1.0167 0.75225,1.50306 2.26882,3.96743 5.89405,9.92278 8.26288,13.51492 5.31285,8.05653 7.20954,10.37936 13.00789,18.18833 5.70541,7.28924 11.17238,14.75708 16.59286,22.25854 31.08096,42.97061 91.85059,-0.98451 60.76962,-43.95513 v 0 c -5.64003,-7.79073 -11.30988,-15.56051 -17.2378,-23.13669 -4.71931,-6.29427 -9.31911,-12.55535 -13.42794,-19.27077 -1.27737,-2.08772 -6.0166,-10.3325 -7.24261,-12.06224 -1.75659,-2.47832 -3.79156,-4.74706 -5.68734,-7.12059 -37.54177,-37.45819 -90.51565,15.63388 -52.97388,53.09207 z"/>
<path d="m 553.51965,784.01467 c -0.0723,0.2519 -0.17808,0.49651 -0.2168,0.7557 -1.14476,7.66306 -0.61756,7.41738 -2.63406,17.04521 -1.09617,5.23368 -2.32961,10.44248 -3.76001,15.59485 -4.51629,16.26793 -7.85709,24.65715 -13.65287,40.95243 -12.97897,30.91278 -5.91598,15.70465 -21.19567,45.62127 -23.93483,47.32467 42.99235,81.17363 66.92718,33.84897 v 0 c 18.1348,-36.14835 9.84139,-17.98254 24.97366,-54.45467 2.95844,-8.4006 6.10745,-16.7365 8.87533,-25.2018 7.40319,-22.64201 13.69414,-46.1033 15.38763,-69.96903 0.1922,-2.70848 0.12766,-5.42909 0.19149,-8.14364 -2.79358,-52.95938 -77.68945,-49.00867 -74.89588,3.95071 z"/>
</svg>
