<?xml version="1.0" ?>
<svg xmlns="http://www.w3.org/2000/svg" viewBox="0 0 1000 1000">
<path d="m 189.73077,227.97317 c 31.11033,-9.65455 62.93705,-16.76716 94.99791,-22.44663 12.5342,-2.22039 25.12537,-4.10616 37.68805,-6.15923 14.31759,-1.91089 28.60709,-4.04549 42.95276,-5.73267 31.70847,-3.7292 67.69845,-6.87732 99.4532,-9.18035 34.79645,-2.52363 71.9228,-4.56499 106.77658,-5.82858 17.64703,-0.63978 35.30479,-0.93799 52.95719,-1.40698 45.69751,-0.76007 91.40287,0.4491 136.98674,3.72666 26.00484,1.86979 41.52006,3.63682 66.81387,6.23515 52.75637,5.40974 60.4069,-69.19903 7.65053,-74.60877 v 0 c -26.6047,-2.7234 -42.61476,-4.54607 -70.02478,-6.49487 -47.7289,-3.39343 -95.58312,-4.64454 -143.42803,-3.83146 -18.13134,0.48638 -36.26822,0.79793 -54.39402,1.45913 -35.68173,1.30162 -73.84432,3.40594 -109.46674,6.00055 -33.21541,2.41928 -70.14031,5.67108 -103.27413,9.59241 -15.07332,1.7839 -30.08728,4.03788 -45.13092,6.05682 -13.284,2.18216 -26.59892,4.18375 -39.852,6.54647 -33.33682,5.94319 -66.50576,13.23692 -98.85808,23.3021 -51.45634,12.83531 -33.30447,85.60556 18.15187,72.77025 z"/>
<path d="m 293.44793,96.282941 c 0.2654,37.359059 8.78637,73.911419 17.16207,110.105019 7.90777,32.86573 3.89825,16.41883 12.02952,49.34046 12.7178,51.48551 85.5293,33.49984 72.81151,-17.98567 v 0 c -7.97518,-32.28221 -4.04942,-16.18371 -11.77921,-48.29502 -7.1179,-30.63525 -14.71797,-61.53944 -15.22389,-93.164789 0,-53.033008 -75,-53.033008 -75,0 z"/>
<path d="m 625.05281,76.915879 c 0.0648,12.57994 -0.29657,25.209401 -2.22231,37.668311 -2.35586,15.24158 -5.63184,27.06614 -9.3308,42.28881 -8.15375,30.15661 -19.15983,59.43183 -29.59412,88.84335 -17.72802,49.98217 52.95744,75.05337 70.68546,25.07121 v 0 c 11.3037,-31.87668 23.17812,-63.62304 31.82557,-96.36109 2.18708,-9.15899 4.61433,-18.26394 6.56126,-27.47696 1.72659,-8.17036 3.25318,-16.38923 4.45505,-24.65309 2.18448,-15.02012 2.67142,-30.228416 2.61989,-45.380541 0,-53.033008 -75,-53.033008 -75,0 z"/>
<path d="m 265.81859,339.17272 c 7.6677,6.71911 14.7654,14.06803 22.05549,21.1906 37.93474,37.06016 90.34572,-16.58767 52.41098,-53.64783 v 0 c -8.34748,-8.15436 -16.49606,-16.54234 -25.31593,-24.19278 -40.05761,-34.75468 -89.20816,21.89533 -49.15054,56.65001 z"/>
<path d="m 207.58637,453.60779 c 30.53484,-6.92762 61.40718,-12.25696 92.26968,-17.48141 30.96397,-4.67755 62.15216,-9.16804 93.52751,-9.66039 13.17773,-0.20679 16.49235,0.36734 28.85798,1.45112 52.85815,4.30299 58.94349,-70.44973 6.08534,-74.75271 v 0 c -17.00095,-1.30729 -20.58205,-1.95927 -38.43732,-1.61698 -34.40324,0.65951 -68.60755,5.44894 -102.56167,10.63273 -32.96143,5.58887 -65.9443,11.26641 -98.52426,18.81766 -51.343,13.2814 -32.56026,85.89138 18.78274,72.60998 z"/>
<path d="m 213.10947,489.63148 c 3.84396,10.95312 9.47077,21.11936 14.98778,31.28632 6.24153,11.50212 3.82931,6.9786 9.79809,18.51398 6.46619,12.486 3.25732,6.36843 9.62003,18.35615 24.87249,46.83866 91.11235,11.66366 66.23986,-35.175 v 0 c -6.00744,-11.30702 -2.91318,-5.41413 -9.26855,-17.68613 -1.80002,-3.46954 -3.5711,-6.95425 -5.40005,-10.40862 -5.03141,-9.50291 -10.68231,-18.71318 -14.84184,-28.65152 -16.80427,-50.30026 -87.93959,-26.53544 -71.13532,23.76482 z"/>
<path d="m 335.14282,433.15849 c -0.004,14.44709 0.23079,28.96036 -2.03538,43.28363 -0.8297,5.24406 -2.08834,10.4112 -3.1325,15.6168 -5.1468,20.05783 -10.94788,39.93841 -16.48617,59.89019 -14.18374,51.10109 58.08411,71.15994 72.26786,20.05885 v 0 c 6.08163,-21.91255 12.54212,-43.72618 17.87883,-65.83781 1.35719,-7.32943 2.99387,-14.61258 4.07155,-21.98829 2.46979,-16.9033 2.48512,-33.98938 2.43581,-51.02337 0,-53.03301 -75,-53.03301 -75,0 z"/>
<path d="m 143.72027,649.80498 c 18.65474,-5.13064 37.10682,-10.96625 55.84303,-15.8123 6.88869,-1.78173 13.81647,-3.40875 20.7247,-5.11313 43.32603,-9.76946 87.16606,-17.40788 131.36254,-21.93435 8.97216,-0.9189 17.97074,-1.55848 26.95611,-2.33772 28.56424,-2.11962 57.23803,-2.65471 85.85125,-1.32227 10.42859,0.48563 17.31895,1.09425 27.51436,1.88963 52.87423,4.10071 58.67351,-70.67474 5.79928,-74.77545 v 0 c -11.66303,-0.89971 -18.79139,-1.53175 -30.80944,-2.07236 -31.62555,-1.42263 -63.31604,-0.80825 -94.88312,1.56506 -9.74055,0.85679 -19.49535,1.56456 -29.22164,2.57037 -47.2967,4.89098 -94.21603,13.08535 -140.57133,23.60962 -7.48955,1.85554 -14.99959,3.63024 -22.46865,5.56663 -17.56251,4.55317 -34.93802,9.79982 -52.33211,14.94452 -51.775596,11.4799 -35.540574,84.70164 16.23502,73.22175 z"/>
<path d="m 216.38285,742.36398 c 22.69581,-6.99579 46.27735,-10.46203 69.69744,-13.99143 37.05767,-4.71024 74.49216,-7.50182 111.87044,-6.524 5.83454,0.15263 11.66044,0.54324 17.49066,0.81486 4.96933,0.37217 9.93866,0.74433 14.908,1.1165 52.88897,3.906 58.41289,-70.89029 5.52392,-74.7963 v 0 c -5.68596,-0.41475 -11.37193,-0.82951 -17.0579,-1.24427 -6.78184,-0.29633 -13.55914,-0.72753 -20.34554,-0.889 -41.31503,-0.98301 -82.68454,2.06163 -123.63481,7.37003 -8.03206,1.22493 -16.08429,2.3242 -24.09617,3.6748 -13.24612,2.23296 -25.11881,4.60856 -38.07508,7.788 -8.89963,2.18394 -16.67593,4.29742 -25.16684,7.59338 -2.38365,0.92528 -4.64409,2.14103 -6.96614,3.21154 -46.58128,25.3512 -10.72927,91.22709 35.85202,65.87589 z"/>
<path d="m 293.44793,620.36618 c 0,25.42319 0,50.84638 0,76.26957 0,49.47302 0,98.94604 0,148.41906 0,35.2261 0,70.45221 0,105.67831 0,53.03298 75,53.03298 75,0 v 0 c 0,-35.2261 0,-70.45221 0,-105.67831 0,-49.47302 0,-98.94604 0,-148.41906 0,-25.42319 0,-50.84638 0,-76.26957 0,-53.033 -75,-53.033 -75,0 z"/>
<path d="m 298.07164,683.98671 c -2.20541,2.48978 -1.20715,1.31406 -4.95485,6.47265 -7.76777,10.69207 -5.94762,8.68722 -14.69599,20.12805 -9.25442,12.10262 -14.86949,18.8678 -24.71977,31.06312 -23.96273,29.39598 -49.95292,57.06989 -77.25653,83.37597 -7.22466,6.96071 -14.49047,13.88426 -21.96812,20.57245 -7.09055,6.34196 -14.48294,12.33813 -21.72441,18.50719 -40.321867,34.44774 8.3946,91.47147 48.71647,57.02373 v 0 c 8.1001,-6.93754 16.35996,-13.69279 24.30032,-20.81262 7.99163,-7.16582 15.76066,-14.57848 23.48339,-22.03333 29.26495,-28.24985 57.10147,-57.98256 82.80495,-89.52109 10.88162,-13.48472 16.34212,-20.0456 26.57811,-33.46273 10.69889,-14.02389 6.31652,-8.59005 14.57384,-19.96403 2.61015,-3.59531 5.38579,-7.06906 7.90949,-10.72809 28.72358,-44.58089 -34.32333,-85.20216 -63.0469,-40.62127 z"/>
<path d="m 325.43123,791.85311 c 15.83631,6.29185 29.86006,16.16744 43.76682,25.82979 17.36909,12.10437 33.86334,25.43796 48.2825,40.96425 1.01796,1.19745 2.03593,2.3949 3.05389,3.59235 34.63368,40.16228 91.43171,-8.81715 56.79803,-48.97942 v 0 c -1.72252,-1.9805 -3.44505,-3.961 -5.16757,-5.9415 -6.37869,-6.74754 -7.75582,-8.40202 -14.84466,-15.00538 -14.1993,-13.22684 -29.58447,-25.09786 -45.42125,-36.28765 -19.30003,-13.3299 -38.98585,-26.53318 -61.11427,-34.75714 -49.91092,-17.92763 -75.26441,52.65708 -25.35349,70.5847 z"/>
<path d="m 727.27452,297.69161 c -23.71717,15.54779 -48.46883,29.42544 -73.24791,43.19949 -33.47088,18.86225 -67.10284,37.43583 -100.64482,56.17081 -46.30001,25.86133 -9.72657,91.33944 36.57345,65.47811 v 0 c 33.50198,-18.71309 67.0945,-37.2638 100.52535,-56.10423 18.72544,-10.41979 27.98747,-15.37541 45.96827,-26.09598 5.17537,-3.08567 10.26448,-6.3139 15.37975,-9.49821 5.92342,-3.68739 13.90632,-8.61489 19.74347,-12.80534 1.99746,-1.43396 3.87512,-3.02783 5.81268,-4.54175 39.45861,-35.43329 -10.65163,-91.23619 -50.11024,-55.8029 z"/>
<path d="m 501.58473,425.08352 c 2.40381,20.72357 1.0028,41.73284 -0.0256,62.49907 -0.76641,7.85833 -1.27019,15.74672 -2.29923,23.57499 -2.27434,17.30188 -6.09766,36.35385 -10.01968,53.28564 -5.06783,21.87841 -9.525,38.20419 -16.44774,59.63592 -3.19081,9.87827 -6.79136,19.61946 -10.18705,29.42919 -15.18541,38.66613 -7.22014,19.48289 -23.8968,57.54932 -21.23687,48.59523 47.48716,78.62869 68.72402,30.03347 v 0 c 18.18289,-41.70099 9.49047,-20.66055 26.07227,-63.12339 3.71448,-10.8002 7.65757,-21.52445 11.14343,-32.40059 7.43392,-23.1944 12.57672,-42.06044 17.99453,-65.72752 4.66762,-20.38995 8.62917,-40.77568 11.27552,-61.53302 1.14739,-8.99981 1.70202,-18.06531 2.55303,-27.09796 1.27429,-26.8767 2.99098,-54.16672 -1.34949,-80.86545 -10.42299,-51.99867 -83.96021,-37.25834 -73.53722,14.74033 z"/>
<path d="m 553.39613,617.54636 c 30.267,-5.23734 60.88713,-8.31901 91.40611,-11.696 38.72736,-4.22463 77.61583,-7.2028 116.59366,-7.1766 22.81674,0.0153 28.9761,0.6071 51.31369,1.76086 21.95512,1.4749 43.83514,3.82589 65.68597,6.38099 52.67488,6.1528 61.37626,-68.34073 8.70138,-74.49353 v 0 c -23.47812,-2.7396 -46.98871,-5.25215 -70.58168,-6.79085 -24.55619,-1.22884 -31.31352,-1.86791 -56.36518,-1.84712 -41.31838,0.0343 -82.54606,3.1372 -123.60037,7.62166 -22.81887,2.52739 -30.04653,3.24531 -52.18631,5.99837 -15.92314,1.98002 -32.14088,3.67921 -47.8149,7.26373 -2.87139,0.65667 -5.67076,1.59593 -8.50614,2.39389 -49.91085,17.92782 -24.55708,88.51243 25.35377,70.5846 z"/>
<path d="m 643.2943,603.35969 c -1.21775,25.97429 -1.9778,51.96492 -2.68295,77.95734 -1.50229,55.47087 -2.21041,110.95835 -3.40282,166.43592 -0.5371,17.82688 -0.92656,34.94856 -1.94509,52.74283 -0.46588,8.13915 -1.1551,16.26397 -1.73265,24.39595 -3.72864,52.90177 71.08576,58.17487 74.8144,5.2731 v 0 c 0.61533,-8.79247 1.34579,-17.57765 1.84599,-26.37742 1.04633,-18.40791 1.44635,-35.98399 2.00005,-54.42345 1.18845,-55.33689 1.89717,-110.68358 3.39256,-166.01384 0.72294,-26.6707 1.59427,-53.33339 2.71051,-79.99043 0,-53.03301 -75,-53.03301 -75,0 z"/>
</svg>
