<?xml version="1.0" ?>
<svg xmlns="http://www.w3.org/2000/svg" width="1000" height="1000">
<path d="m 197.24178,160.06236 c 29.68491,-2.23677 59.37839,-4.38688 89.05889,-6.70366 67.22015,-5.5595 134.50053,-10.62197 201.91616,-13.0866 15.38144,-0.56233 30.77059,-0.8892 46.15588,-1.33379 56.84352,-1.22558 113.73859,-0.48917 170.4931,3.03466 28.43146,1.76528 38.3812,2.90439 65.95666,5.49387 8.43309,0.90116 16.86618,1.80232 25.29927,2.70347 52.73348,5.6285 60.69338,-68.947908 7.9599,-74.576403 v 0 c -8.75496,-0.933405 -17.50991,-1.86681 -26.26486,-2.800215 -28.9909,-2.708823 -39.22056,-3.879913 -69.12037,-5.72283 -58.75425,-3.621403 -117.6526,-4.380561 -176.49737,-3.101051 -15.77118,0.458769 -31.54633,0.797158 -47.31354,1.376306 -68.25134,2.50695 -136.36778,7.608932 -204.42174,13.240054 -29.51198,2.303916 -59.03648,4.452353 -88.55357,6.665938 -52.89884,3.77 -47.56725,78.580251 5.33159,74.810251 z"/>
<path d="m 256.31333,49.042522 c 0.26794,27.27362 6.06289,54.094848 11.86298,80.616668 7.15408,27.7825 13.52966,55.74339 19.61989,83.77449 11.26356,51.82309 84.55247,35.894 73.28891,-15.92908 v 0 c -6.10771,-28.09132 -12.45629,-56.12485 -19.66035,-83.95953 -4.70027,-21.220817 -9.58443,-42.679546 -10.11143,-64.502548 0,-53.0330093 -75,-53.0330093 -75,0 z"/>
<path d="m 637.43649,44.698151 c -0.56019,16.680729 -2.42653,33.271089 -5.96959,49.592325 -1.32858,6.120154 -2.93624,12.176364 -4.40435,18.264544 -5.41528,22.77402 -12.39969,45.10179 -19.4621,67.40134 -15.98087,50.56789 55.53293,73.16825 71.5138,22.60036 v 0 c 7.57844,-24.02779 15.08826,-48.08176 20.90522,-72.61527 1.73557,-7.35513 3.65427,-14.66944 5.20671,-22.06539 4.02152,-19.158809 6.33406,-38.62069 7.04345,-58.177886 3.53555,-52.9150245 -71.29759,-57.9150475 -74.83314,-5.000023 z"/>
<path d="m 466.95399,133.02934 c -1.43396,1.31944 -2.90568,2.59899 -4.30188,3.95831 -6.13222,5.97026 -11.83991,12.37218 -17.89968,18.41812 -10.35658,10.33293 -10.69211,10.50182 -22.05914,21.28103 -27.68215,25.196 -55.92316,49.96108 -86.20994,72.01914 -5.69024,4.14424 -11.55221,8.0474 -17.32831,12.0711 -23.86118,15.25266 -48.45513,29.38697 -73.48599,42.63166 -37.30256,18.93827 -20.79914,0.82906 5.13168,79.38065 2.8379,-0.42011 5.68023,-0.81128 8.51369,-1.26032 13.86233,-2.19682 6.64632,-1.34484 22.56698,-3.52954 20.30259,-2.786 40.66409,-4.96161 61.04487,-7.07706 53.24734,-4.74698 106.62445,-8.25761 160.06589,-9.80518 11.5341,-0.33401 23.07274,-0.4867 34.60911,-0.73005 47.35982,-0.64996 94.71872,0.29964 142.0663,1.281 53.02163,1.09865 54.57535,-73.88526 1.55372,-74.98391 v 0 c -48.39579,-1.0025 -96.80336,-1.96317 -145.21149,-1.2802 -11.9242,0.25459 -23.85077,0.41548 -35.7726,0.76377 -55.11154,1.6101 -110.15778,5.22982 -165.06699,10.15669 -30.43301,3.16928 -60.92271,6.31794 -91.05126,11.76303 18.47398,73.9449 -4.20722,81.31197 20.56721,69.5731 5.41362,-2.56514 10.7789,-5.2286 16.0999,-7.98136 27.72146,-14.70828 54.99705,-30.33625 81.32507,-47.42241 6.58003,-4.60954 13.25365,-9.08828 19.74007,-13.82863 32.46303,-23.72435 62.80313,-50.25554 92.47121,-77.34081 13.84014,-13.14481 27.64185,-26.34388 40.58178,-40.38857 40.77854,-33.90591 -7.17166,-91.575472 -47.9502,-57.66956 z"/>
<path d="m 294.64957,429.04649 c 2.77488,23.38985 6.82167,46.60478 10.70934,69.82836 5.42676,32.5741 11.8361,64.96824 18.96386,97.20929 0.84982,3.81562 1.69964,7.63124 2.54947,11.44686 11.52929,51.76462 84.73551,35.45973 73.20622,-16.30489 v 0 c -0.84178,-3.77938 -1.68356,-7.55876 -2.52534,-11.33815 -6.85375,-30.97569 -13.00873,-62.10008 -18.22365,-93.39681 -3.74005,-22.33854 -7.65167,-44.66664 -10.31265,-67.16641 -6.87431,-52.58558 -81.24156,-42.86384 -74.36725,9.72175 z"/>
<path d="m 364.07262,466.92172 c 22.65828,-5.73049 45.77014,-9.44141 68.81498,-13.22015 40.803,-6.52932 82.06848,-9.1384 123.3231,-10.50171 23.0209,-0.62827 46.07214,0.0235 68.92456,2.93329 3.53668,0.42272 7.04342,1.0465 10.52569,1.78658 0.11341,0.0241 2.86787,0.63305 3.11617,0.69371 0.23213,0.0567 -0.46829,-0.0954 -0.70244,-0.14307 -14.23395,-4.48725 -17.67488,-10.85391 -24.33905,-24.07647 -0.81922,-1.62544 -0.55374,-3.61742 -1.14252,-5.33977 -0.14484,-0.42369 -0.17829,0.87866 -0.23047,1.32338 -0.21464,1.82966 -0.37978,3.66479 -0.56968,5.49719 -3.31124,26.66494 -9.03467,52.9518 -14.43006,79.25123 -3.97646,18.59967 -6.94534,37.52001 -12.87687,55.64377 -0.90406,2.76235 -2.00905,5.45486 -3.01358,8.18229 -17.92503,49.91186 52.661,75.26167 70.58602,25.34982 v 0 c 1.47858,-4.18671 3.08884,-8.32921 4.43572,-12.56012 6.39984,-20.10356 10.08605,-40.92155 14.3387,-61.54389 5.93081,-28.91189 12.18415,-57.8228 15.61774,-87.16535 0.67295,-7.38166 2.37396,-21.44377 -0.33545,-28.29054 -2.52085,-6.37027 -5.57863,-12.72208 -9.99775,-17.95719 -5.58389,-6.61496 -10.9037,-8.02408 -17.84135,-10.54249 -7.8275,-2.05472 -15.8044,-3.50206 -23.83108,-4.52903 -26.77924,-3.30472 -53.76331,-4.29014 -80.73607,-3.4716 -44.48761,1.49845 -88.98184,4.37137 -132.97682,11.45157 -25.05764,4.12197 -50.17648,8.20892 -74.81133,14.45829 -51.45635,12.83529 -33.30451,85.60555 18.15184,72.77026 z"/>
<path d="m 386.99917,551.61272 c 18.30177,-6.18842 37.4267,-9.56349 56.38518,-13.04175 24.98415,-3.83292 50.19819,-6.90513 75.50267,-7.31029 4.03408,-0.0646 8.06906,0.0464 12.10358,0.0696 3.34468,0.13126 6.68936,0.26253 10.03404,0.39379 52.99653,1.96658 55.77769,-72.98183 2.78116,-74.94841 v 0 c -4.18989,-0.14833 -8.37978,-0.29665 -12.56966,-0.44498 -5.03367,-0.006 -10.06829,-0.11709 -15.10101,-0.0195 -28.93639,0.56122 -57.77309,3.99627 -86.33175,8.49965 -22.37391,4.13275 -44.88637,8.28237 -66.47339,15.63469 -50.32281,16.73664 -26.65362,87.90384 23.66918,71.1672 z"/>
<path d="m 385.82263,631.46417 c 21.78197,-3.66407 43.58955,-7.14318 65.46283,-10.21618 23.88541,-2.96351 47.87065,-5.38115 71.92593,-6.4173 14.05622,-0.60545 18.95102,-0.44758 32.88077,-0.42828 11.33798,-0.17657 22.58486,0.89456 33.79373,2.41765 52.59546,6.79833 62.20975,-67.58288 9.61429,-74.38121 v 0 c -14.39959,-1.79684 -28.83087,-3.24662 -43.37433,-3.03643 -16.19022,0.006 -20.96161,-0.16472 -37.33318,0.55855 -26.07414,1.15191 -52.07289,3.77622 -77.96085,7.01912 -22.27811,3.1413 -44.49604,6.65269 -66.68076,10.39782 -52.3869,8.25305 -40.71532,82.33931 11.67157,74.08626 z"/>
<path d="m 458.49647,245.96864 c -1.17473,2.68022 -2.53336,5.28715 -3.52417,8.04067 -4.061,11.28571 -5.63031,23.56597 -6.88664,35.41692 -1.52347,14.37077 -1.75663,22.30713 -2.57368,37.09099 -1.48571,34.60026 -2.93536,69.21076 -3.47899,103.84163 -0.4331,27.58938 -0.25893,37.2801 -0.15319,65.02955 0.32165,54.89633 2.03264,109.7796 2.17065,164.67732 0.0255,10.14543 -0.0749,20.29078 -0.11236,30.43617 -0.66564,37.14133 -0.23315,19.2413 -1.25096,53.7012 -1.56028,53.01005 73.40725,55.21663 74.96754,2.20658 v 0 c 1.04688,-35.68697 0.60291,-17.14145 1.28293,-55.6377 0.0367,-10.44857 0.13713,-20.89712 0.11012,-31.34572 -0.14159,-54.78206 -1.83495,-109.54972 -2.16849,-164.33027 -0.10644,-26.67908 -0.27824,-36.50666 0.13373,-63.00413 0.52627,-33.84886 1.94655,-67.67748 3.38808,-101.49675 0.70034,-13.08149 0.86382,-19.26493 2.09213,-31.76026 0.33106,-3.36779 0.77108,-6.72439 1.22099,-10.07837 0.25848,-1.92687 0.59829,-3.84196 0.90387,-5.76193 0.10624,-0.66752 0.98801,-1.83939 0.33157,-2.00047 -0.68827,-0.16889 -0.74688,1.20462 -1.12031,1.80693 26.04441,-46.19728 -39.28841,-83.02964 -65.33282,-36.83236 z"/>
<path d="m 387.62343,724.58659 c 21.71084,-3.29927 43.34299,-7.08912 65.04038,-10.48489 22.70527,-3.54811 45.66667,-5.76207 68.66413,-5.78424 12.79642,-0.0123 18.9708,0.54408 31.66231,1.2998 11.31269,0.73915 22.52215,2.36564 33.69998,4.18178 52.36494,8.39119 64.23189,-65.66403 11.86694,-74.05522 v 0 c -13.68012,-2.16817 -27.3938,-4.13988 -41.2334,-5.00126 -15.7096,-0.88699 -22.00366,-1.47449 -37.95882,-1.39941 -26.22495,0.12341 -52.40503,2.63126 -78.30211,6.6612 -20.92606,3.27745 -41.79861,6.87065 -62.72146,10.15883 -52.6253,6.56341 -43.34324,80.98681 9.28205,74.42341 z"/>
<path d="m 182.33865,837.24459 c 26.38437,-6.67871 53.12182,-11.74816 79.92477,-16.39949 64.66274,-9.9815 130.14218,-12.65449 195.42831,-15.2358 49.54262,-1.66495 99.10776,-2.9038 148.68058,-3.05825 30.44668,-0.0949 38.71706,0.11528 68.80675,0.47629 35.88095,0.86191 71.85588,1.52869 107.57564,5.36124 14.87548,1.59606 19.8688,2.58775 33.97385,4.88914 52.35292,8.46591 64.32553,-65.5723 11.97261,-74.03821 v 0 c -16.59679,-2.66318 -21.83249,-3.70966 -39.31899,-5.55753 -37.62881,-3.97639 -75.51121,-4.78011 -113.30746,-5.64929 -30.78309,-0.36599 -39.17379,-0.57916 -70.32126,-0.47909 -50.35605,0.16178 -100.70431,1.41817 -151.02957,3.11445 -68.6006,2.72102 -137.39867,5.62929 -205.32096,16.2879 -7.88229,1.37566 -15.7801,2.66522 -23.64687,4.12699 -20.9543,3.89364 -41.77047,8.53175 -62.46432,13.62052 -51.29432,13.46821 -32.2474,86.00934 19.04692,72.54113 z"/>
<path d="m 208.75334,922.34512 c -1.60445,-1.11867 -3.08671,-2.43712 -4.81336,-3.35602 -0.40121,-0.21351 0.42206,0.81096 0.70273,1.16842 1.64818,2.09911 3.36438,4.14415 5.07624,6.19166 7.55275,9.03371 15.20384,17.98252 22.7317,27.03778 7.2371,8.1074 11.69537,13.57932 20.00316,20.83281 4.41819,3.8575 9.19088,7.28909 13.78631,10.93363 41.95521,32.4386 87.83027,-26.89506 45.87506,-59.33362 v 0 c -2.55879,-1.88691 -5.23509,-3.62407 -7.67638,-5.66072 -5.91705,-4.93632 -9.10302,-8.92863 -14.31848,-14.72217 -7.4194,-8.92193 -14.95871,-17.74017 -22.40336,-26.6401 -1.63425,-1.95371 -9.2063,-11.3469 -10.70699,-12.80368 -2.81383,-2.7315 -6.00862,-5.04097 -9.01293,-7.56146 -45.19365,-27.74948 -84.43735,36.16399 -39.2437,63.91347 z"/>
<path d="m 350.059,894.21031 c 5.9547,5.82867 11.14293,12.33269 16.54033,18.6605 7.629,8.94408 9.08544,10.45627 17.15336,19.46678 10.63238,11.50697 20.26453,23.86546 29.87058,36.22345 32.55648,41.86376 91.7608,-4.17804 59.20432,-46.04181 v 0 c -10.68095,-13.72852 -21.43112,-27.42324 -33.21924,-40.23308 -7.05939,-7.8713 -8.84736,-9.76156 -15.51883,-17.58046 -5.98743,-7.0172 -11.75139,-14.2502 -18.33944,-20.72987 -35.52115,-39.37954 -91.21223,10.85495 -55.69108,50.23449 z"/>
<path d="m 530.72095,882.5684 c 0.82169,1.0217 1.75097,1.95389 2.56077,2.98476 1.30718,1.66401 6.33698,8.90366 6.68159,9.38657 6.6305,9.29133 7.54582,10.44527 14.5934,19.99052 10.25987,13.5208 19.78899,27.56962 29.39827,41.55323 30.03589,43.70752 91.84763,1.23034 61.81174,-42.47716 v 0 c -10.09252,-14.68598 -20.11908,-29.42721 -30.88244,-43.63597 -7.56475,-10.23713 -6.63114,-8.89245 -13.72041,-18.78371 -6.16229,-8.59792 -12.20397,-17.38104 -20.05436,-24.56996 -39.281,-35.63009 -89.66955,19.92163 -50.38856,55.55172 z"/>
<path d="m 749.12266,851.40153 c -0.0889,-0.12272 -0.18815,-0.49776 -0.26663,-0.36814 -0.86112,1.42216 -1.46473,2.9852 -2.21601,4.46832 -1.44589,2.85437 -2.83263,5.74069 -4.3754,8.54388 -2.02956,3.68769 -4.12331,7.34257 -6.33798,10.92215 -7.20556,11.6464 -10.74818,16.25687 -18.83565,27.69148 -16.1033,20.38361 -7.60526,10.23925 -25.56285,30.37538 -35.1717,39.69195 20.96121,89.4322 56.13291,49.74029 v 0 c 21.63201,-24.54125 11.41707,-12.21158 30.73661,-36.91275 3.98055,-5.66623 8.07599,-11.25347 11.94166,-16.99869 7.33059,-10.89486 12.63468,-19.4739 18.8051,-30.87537 3.08765,-5.70523 8.31423,-16.37182 10.63171,-22.55511 1.20281,-3.20925 1.99405,-6.55804 2.99108,-9.83706 10.03695,-52.07456 -63.6076,-66.26894 -73.64455,-14.19438 z"/>
</svg>
