<?xml version="1.0" ?>
<svg xmlns="http://www.w3.org/2000/svg" viewBox="0 0 1000 1000">
<path d="m 15.039384,382.98364 c 8.955703,18.72651 15.947384,38.36183 23.291875,57.75882 11.122649,30.2707 21.24096,61.07247 27.850705,92.68349 0.954292,4.56389 1.690802,9.17062 2.536204,13.75593 0.584923,3.92865 1.169846,7.85731 1.75477,11.78596 7.911332,52.4396 82.072112,41.25128 74.160772,-11.18831 v 0 c -0.73091,-4.79326 -1.46182,-9.58653 -2.19274,-14.37979 -1.06608,-5.63952 -2.00804,-11.30392 -3.19825,-16.91855 -7.39261,-34.87367 -18.46251,-68.89364 -30.77343,-102.3029 -4.70691,-12.42459 -9.148995,-24.34303 -14.085795,-36.65895 -5.66366,-14.12922 -11.318147,-28.59583 -20.420667,-40.93643 -32.810271,-41.66517 -91.733715,4.73556 -58.923444,46.40073 z"/>
<path d="m 92.896825,417.36821 c 27.835275,-9.68473 55.880685,-18.75626 83.939875,-27.76673 35.10132,-11.08971 70.86113,-20.06982 107.1311,-26.39704 19.78262,-3.45104 27.67563,-4.2322 47.15768,-6.69805 21.75452,-1.70536 43.97239,-5.04385 65.75651,-1.78324 0.2272,0.0548 2.60823,0.57999 3.16023,0.84425 0.15416,0.0738 -0.34579,-0.008 -0.50952,-0.0573 -0.63509,-0.19021 -1.29973,-0.33157 -1.87708,-0.65743 -2.68577,-1.51583 -5.73451,-2.63321 -7.87946,-4.84913 -3.88038,-4.00876 -6.59143,-9.00351 -9.88714,-13.50527 -0.73142,-2.76124 -1.28199,-5.57684 -2.19426,-8.28372 -0.0772,-0.229 -0.34924,0.37202 -0.39196,0.60987 -0.43298,2.41093 -0.67649,4.85207 -1.0244,7.27673 -2.26579,15.79118 -4.65679,31.54697 -7.21283,47.29429 -6.80024,36.40236 -16.77235,72.22769 -28.59316,107.31075 -1.90167,5.64398 -3.96561,11.23198 -5.94842,16.84797 -17.61893,50.02073 53.12106,74.93766 70.74,24.91694 v 0 c 2.19497,-6.24486 4.47819,-12.45939 6.58491,-18.73456 12.98732,-38.6847 23.88408,-78.19129 31.25045,-118.34113 2.6547,-16.39997 5.22451,-32.80451 7.50496,-49.26136 0.68193,-4.92109 2.38814,-16.40392 2.00659,-21.46519 -0.36812,-4.88314 -1.65831,-9.65258 -2.48746,-14.47887 -3.7017,-5.58561 -6.62183,-11.77669 -11.10511,-16.75684 -7.14589,-7.93783 -22.1302,-11.24083 -32.27885,-13.05933 -8.13746,-1.01389 -9.86564,-1.38866 -18.52884,-1.72033 -22.23284,-0.85118 -44.4662,1.19111 -66.55492,3.45318 -21.56285,2.75857 -29.94541,3.58885 -51.88104,7.45302 -39.22279,6.90945 -77.90244,16.63607 -115.87216,28.63439 -28.30377,9.0918 -56.596865,18.23646 -84.675173,28.00707 -50.322736,16.73685 -26.653255,87.90395 23.669478,71.1671 z"/>
<path d="m 118.66419,569.75179 c 2.41151,-0.12962 4.82867,-0.17894 7.23452,-0.38885 14.92859,-1.30252 29.82077,-3.70098 44.62779,-5.91937 16.31068,-2.44367 32.60673,-4.98407 48.91283,-7.45814 27.028,-4.2984 54.22029,-7.37652 81.39006,-10.59222 8.55237,-1.01223 17.12342,-1.88476 25.65082,-3.08933 8.63409,-1.21965 17.21535,-2.78788 25.82302,-4.18182 52.34027,-8.54376 40.25757,-82.56408 -12.0827,-74.02032 v 0 c -7.56973,1.24678 -15.11298,2.66652 -22.70917,3.74034 -8.4308,1.1918 -16.905,2.05346 -25.36051,3.05493 -28.02864,3.31973 -56.07873,6.51098 -83.96237,10.9371 -29.80492,4.52231 -59.56863,9.48988 -89.52429,12.91768 -53.033005,0 -53.033005,75 0,75 z"/>
<path d="m 199.34988,162.62766 c 1.03772,4.49682 1.82707,7.70166 2.63194,12.50103 1.73267,10.3317 2.7145,19.27389 3.68542,29.89506 1.59033,17.39717 2.68508,35.35368 3.86189,52.74352 3.46529,53.05498 6.73452,106.14896 7.35478,159.32944 0.50036,42.89959 -0.17517,52.85145 -1.30366,96.14189 -2.54963,67.01912 -7.43176,133.91581 -11.09945,200.87634 -2.32508,42.44852 -2.45731,48.02968 -4.27029,89.56589 -2.31121,52.98263 72.61753,56.25117 74.92874,3.26855 v 0 c 1.78606,-40.96888 1.92111,-46.59272 4.21585,-88.49404 3.71098,-67.76151 8.66017,-135.45823 11.20016,-203.28095 1.15439,-45.12869 1.84431,-55.20023 1.30592,-99.92401 -0.65314,-54.25642 -3.96256,-108.42608 -7.50373,-162.55483 -2.45733,-36.20058 -3.88073,-72.85403 -12.25652,-108.29657 -12.88962,-51.442759 -85.64067,-33.21408 -72.75105,18.22868 z"/>
<path d="m 110.15937,909.34145 c 36.93648,-18.51865 75.36283,-33.80404 113.81036,-48.83903 31.20322,-11.78249 62.67817,-22.87026 94.70194,-32.22914 10.23458,-2.99103 20.56136,-5.65703 30.84204,-8.48555 51.12488,-14.09776 31.18764,-86.39925 -19.93724,-72.3015 v 0 c -11.03402,3.04904 -22.11759,5.92413 -33.10206,9.14711 -33.75319,9.90359 -66.94234,21.5845 -99.8346,34.02586 -41.59053,16.28456 -83.19396,32.82843 -123.004595,53.17664 -46.319464,25.82648 -9.795298,91.3321 36.524155,65.50561 z"/>
<path d="m 359.27329,732.53705 c -0.45823,-0.17723 -1.71748,-0.88368 -1.37471,-0.53169 0.81647,0.83844 1.90573,1.35898 2.85152,2.04824 2.03454,1.48268 4.08779,2.94063 6.08937,4.46751 2.52944,1.92955 5.04204,3.88271 7.50179,5.90033 5.78996,4.74923 12.76622,10.98039 18.30577,15.85131 6.54141,5.99432 14.46961,12.97548 20.44154,19.57389 2.94168,3.25027 5.53256,6.80159 8.29884,10.20239 33.96157,40.7322 91.5656,-7.29671 57.60403,-48.02891 v 0 c -4.32303,-5.10184 -8.44613,-10.38005 -12.96908,-15.30552 -7.1328,-7.76761 -16.08121,-15.65943 -23.87817,-22.78927 -10.14996,-8.90802 -20.26271,-17.7837 -31.03354,-25.94398 -2.82051,-2.1369 -10.60949,-7.79503 -13.95682,-9.88237 -2.11582,-1.31939 -4.33962,-2.45717 -6.50943,-3.68575 -48.17081,-22.18272 -79.54192,45.9411 -31.37111,68.12382 z"/>
<path d="m 613.4711,218.04712 c 15.80144,6.72993 30.7252,15.29205 45.67845,23.68892 16.55939,10.3586 8.73731,4.8108 23.52882,16.55483 41.98175,32.4042 87.80822,-26.96696 45.82646,-59.37116 v 0 c -21.97496,-16.65225 -11.03159,-9.20393 -32.65966,-22.59339 -19.57651,-10.97313 -39.17921,-22.34641 -60.36247,-29.97641 -50.69758,-15.56455 -72.70918,56.13266 -22.0116,71.69721 z"/>
<path d="m 441.80268,336.71272 c 5.38792,22.48416 8.73899,45.37182 12.4225,68.17629 3.27808,20.43488 7.99702,40.59683 13.97412,60.40659 1.82015,6.03248 3.90357,11.98237 5.85536,17.97355 16.51133,50.39718 87.78371,27.04664 71.27238,-23.35054 v 0 c -1.65251,-5.01014 -3.41084,-9.9866 -4.95754,-15.03041 -5.2206,-17.02455 -9.30575,-34.3679 -12.10398,-51.95863 -3.87403,-23.98395 -7.43841,-48.04847 -13.07857,-71.7007 -10.94873,-51.89051 -84.333,-36.40667 -73.38427,15.48385 z"/>
<path d="m 598.31732,383.23559 c 21.28534,-11.22544 44.9063,-17.27643 67.99128,-23.52395 41.98362,-10.51633 84.86462,-17.60272 128.03237,-20.86826 8.09167,-0.61212 16.20491,-0.89457 24.30736,-1.34185 28.46482,-0.92386 57.12865,0.0279 85.25102,4.81713 3.11856,0.53109 6.2087,1.21737 9.31306,1.82605 7.56595,1.88353 15.44581,3.49842 22.43588,7.11676 0.37567,0.19219 0.75134,0.38437 1.12702,0.57656 0.0313,0.0291 0.13124,0.10812 0.0939,0.0873 -7.81642,-4.36057 -12.37822,-11.01035 -15.74944,-19.7255 -1.4961,-3.86766 -1.02502,-8.23029 -1.53753,-12.34543 0.14565,-1.34508 0.82038,-2.73777 0.43695,-4.03523 -0.19822,-0.67075 -0.76742,1.17139 -1.10172,1.78574 -1.35876,2.49704 -2.58525,5.06544 -3.9756,7.54503 -4.44238,7.92265 -12.90755,22.01203 -17.3727,28.9001 -4.29195,6.6209 -8.84327,13.07001 -13.2649,19.60501 -22.35185,30.82289 -10.98521,14.83885 -34.04429,47.99163 -30.27233,43.54407 31.30827,86.35562 61.58061,42.81155 v 0 c 22.69822,-32.66551 11.15345,-16.37595 34.64144,-48.86363 14.09906,-20.95997 14.30396,-20.59092 26.34886,-40.80409 4.77248,-8.00896 10.63779,-18.14615 14.6624,-26.81527 1.58595,-3.41618 3.166,-6.85598 4.3141,-10.44309 1.1138,-3.47993 1.63208,-7.12308 2.44811,-10.68463 -0.40196,-5.29557 0.45264,-10.84153 -1.20588,-15.88673 -4.61993,-14.05372 -13.00341,-21.65244 -25.32255,-27.49276 -12.87512,-5.95671 -26.44879,-10.16327 -40.3563,-12.9748 -4.17093,-0.78987 -8.32482,-1.67576 -12.51279,-2.36963 -33.15057,-5.49244 -66.89556,-6.69951 -100.43209,-5.50312 -9.07861,0.52153 -18.16937,0.86301 -27.23585,1.56458 -47.41102,3.6687 -94.49809,11.52506 -140.59373,23.16342 -8.22159,2.25235 -16.49274,4.33106 -24.66478,6.75703 -13.76436,4.08612 -25.15738,8.00326 -38.29174,13.38997 -9.41617,3.86178 -15.91788,6.84916 -24.50649,11.86441 -1.98872,1.16129 -3.83448,2.5517 -5.75172,3.82755 -42.46046,31.77435 2.47526,91.8225 44.93572,60.04815 z"/>
<path d="m 622.84339,602.76465 c 25.05945,-7.49799 50.54245,-13.33593 76.11221,-18.77694 40.38932,-8.47179 81.46859,-12.47467 122.59257,-15.07573 4.14304,-0.21144 8.28609,-0.42289 12.42913,-0.63434 52.96346,-2.71507 49.12377,-77.61672 -3.83969,-74.90165 v 0 c -4.4485,0.22898 -8.89701,0.45797 -13.34551,0.68695 -44.78166,2.85774 -89.50525,7.31834 -133.47964,16.57429 -7.50049,1.60289 -15.01859,3.12547 -22.50146,4.80868 -20.26749,4.55902 -40.34649,9.92298 -60.29245,15.71845 -50.62905,15.78605 -28.30421,87.38634 22.32484,71.60029 z"/>
<path d="m 546.88469,462.87758 c 0.15033,0.69509 0.33234,1.38409 0.45101,2.08528 0.71325,4.21441 0.83587,8.79941 1.09085,13.01942 0.40236,6.65907 0.66046,13.97889 0.92909,20.58814 1.23199,31.75458 2.05939,63.52282 2.66335,95.29498 0.76535,33.44401 0.29337,66.89115 -0.86854,100.31791 -0.56766,22.25304 -2.25977,44.60984 -0.34801,66.84876 0.34218,3.98053 0.92552,7.93663 1.38828,11.90495 3.14729,19.49636 9.53613,39.03451 22.73286,54.19379 3.15235,3.62115 6.8543,6.72451 10.28145,10.08677 3.96122,2.77594 7.74742,5.82012 11.88366,8.32784 16.76043,10.16151 36.12993,14.95645 55.32628,17.81542 5.09134,0.75827 10.22127,1.22986 15.33191,1.8448 31.66748,3.01674 63.48039,1.05133 95.14395,-0.85753 27.96528,-2.02695 55.93726,-3.86304 83.94572,-5.1657 17.04617,-1.08777 34.26175,-1.53281 51.14607,-4.36834 2.73786,-0.45979 5.44618,-1.08091 8.16926,-1.62136 2.91539,-0.87884 5.93972,-1.45513 8.74616,-2.63653 16.91523,-7.12066 26.27954,-16.68391 32.34144,-34.37907 4.0439,-11.80446 3.33384,-22.28462 3.62655,-34.50581 -0.6572,-25.21571 -5.7709,-49.94758 -10.41632,-74.6356 -9.87354,-52.10579 -83.56225,-38.1425 -73.68872,13.96329 v 0 c 3.80714,19.93385 8.06763,39.89081 9.10639,60.22324 0.0899,2.64204 -0.0311,5.29972 0.26971,7.92612 0.0482,0.42118 0.42723,1.29167 0.75531,1.0232 1.60703,-1.315 2.37836,-3.449 3.9154,-4.84517 4.01618,-3.64811 5.95767,-4.84977 10.59761,-5.99588 0.24986,-0.0617 -0.41626,0.3028 -0.6244,0.4542 -5.37721,1.27928 -10.82971,1.82954 -16.32907,2.36823 -10.34449,1.01329 -20.72055,1.63751 -31.10256,2.11059 -28.35247,1.32069 -56.66959,3.16022 -84.97786,5.22087 -27.26344,1.64814 -54.65028,3.51452 -81.93712,1.2261 -13.85972,-1.54637 -28.11117,-2.91357 -40.8433,-9.04688 -0.47959,-0.18106 -1.00077,-0.27681 -1.43876,-0.54317 -4.68725,-2.85059 -6.5601,-12.61005 -7.52171,-17.33218 -0.32006,-2.40119 -0.73035,-4.79208 -0.96017,-7.20358 -1.89432,-19.87721 0.12682,-39.9103 0.435,-59.80401 1.2012,-34.76794 1.69341,-69.55695 0.89995,-104.34257 -0.61591,-32.31672 -1.4567,-64.62951 -2.71224,-96.92831 -0.68271,-16.64023 -0.89226,-33.50477 -4.41076,-49.84652 -12.17235,-51.61718 -85.17007,-34.40288 -72.99772,17.21431 z"/>
</svg>
