<?xml version="1.0" ?>
<svg xmlns="http://www.w3.org/2000/svg" width="1000" height="1000">
<path d="m 252.579,81.232737 c 0.37201,-1.922787 0.74402,-3.845574 1.11603,-5.76836 -0.008,-0.393765 0.23756,-1.474573 -0.0253,-1.181294 -1.65534,1.846726 -2.84729,4.062469 -4.33552,6.046337 -2.63327,3.510255 -5.31015,6.988172 -8.02734,10.433874 -8.84559,11.217196 -17.87543,22.287866 -26.81115,33.433396 -41.03636,51.87214 -84.48154,101.74341 -127.989573,151.53539 -6.816539,8.30023 -13.633079,16.60047 -20.449618,24.90071 -33.634547,41.00265 24.351956,88.56908 57.986501,47.56643 v 0 c 6.31342,-7.70601 12.62683,-15.41203 18.94025,-23.11804 44.20427,-50.58957 88.32958,-101.27239 130.02814,-153.9706 9.28484,-11.58098 18.68735,-23.06878 27.84392,-34.75145 7.52398,-9.59969 18.02045,-22.47018 22.80214,-33.87144 1.51884,-3.621443 2.17383,-7.547276 3.26074,-11.320915 7.02442,-52.565744 -67.31477,-62.499782 -74.33919,-9.934038 z"/>
<path d="m 294.29829,272.60515 c 0.11738,-0.65649 0.97212,-2.2152 0.35213,-1.96948 -0.94616,0.37498 -1.17603,1.66206 -1.73027,2.51567 -6.46231,9.95296 -4.47892,7.60231 -12.62912,18.55863 -8.64846,11.62611 -15.19117,19.52978 -24.46473,31.08693 -5.44172,6.43457 -10.83128,12.91363 -16.32517,19.30372 -13.38911,15.57324 -24.57689,28.26412 -38.72852,43.27122 -21.74097,23.0552 -44.51669,45.07416 -67.28902,67.09703 -19.80433,19.20996 -40.690406,37.23458 -61.592961,55.22182 -40.191163,34.60015 8.740838,91.43903 48.932001,56.83888 v 0 c 21.99397,-18.94194 43.96091,-37.93367 64.80568,-58.15404 23.8575,-23.08293 47.69395,-46.17689 70.45762,-70.35356 14.64862,-15.55789 26.84399,-29.37147 40.70572,-45.51891 5.90792,-6.8821 11.70076,-13.86217 17.55114,-20.79325 12.72428,-15.88452 25.56405,-31.65112 36.92682,-48.5613 3.12204,-4.64625 9.47165,-14.90163 11.93882,-20.10233 1.4271,-3.00827 2.40656,-6.20917 3.60984,-9.31375 13.52503,-51.27936 -58.99495,-70.40665 -72.51998,-19.12728 z"/>
<path d="m 198.75125,472.38371 c -0.0381,0.0752 -0.13433,0.14374 -0.11422,0.2256 2.54958,10.38076 -2.01434,-11.62379 2.39178,8.60077 0.71773,3.29446 1.36174,6.60702 1.88838,9.93737 2.12824,13.45871 2.34715,18.48495 3.68903,32.72766 2.97566,45.17768 3.99684,90.53119 3.11592,135.80209 -0.20288,10.42616 -0.65958,20.84584 -0.98938,31.26876 -1.99161,40.11172 -5.88426,80.1231 -11.24704,119.92073 -2.54275,18.86999 -4.28119,29.27471 -7.19644,47.77543 -2.44357,15.28491 -5.234,30.50819 -8.17633,45.70332 -10.06703,52.06875 63.5693,66.30569 73.63633,14.23694 v 0 c 3.0991,-16.05175 6.05345,-32.13033 8.62748,-48.27643 3.07234,-19.53202 4.84307,-30.12303 7.52433,-50.09299 5.65531,-42.12066 9.74292,-84.46814 11.79499,-126.92148 0.3414,-11.02857 0.81411,-22.05385 1.0242,-33.08571 0.91115,-47.84404 -0.19186,-95.77696 -3.45892,-143.51465 -2.63099,-26.86437 -4.58397,-55.09768 -16.65423,-79.76018 -1.17684,-2.40457 -2.66806,-4.64209 -4.00209,-6.96314 -29.99257,-43.73723 -91.84636,-1.32133 -61.85379,42.41591 z"/>
<path d="m 358.93223,454.60916 c 23.26465,-5.66165 46.96574,-9.26962 70.65416,-12.60424 34.36777,-4.33649 69.02888,-6.58595 103.67294,-6.67052 5.84285,-0.0143 11.68488,0.14087 17.52732,0.21131 19.22532,0.73965 10.09937,0.26706 27.38134,1.34851 52.93238,3.26548 57.55047,-71.59221 4.61809,-74.85769 v 0 c -19.73881,-1.20248 -9.35488,-0.68267 -31.15538,-1.48607 -6.52656,-0.0688 -13.05279,-0.2294 -19.57967,-0.20633 -37.75485,0.13349 -75.52274,2.62564 -112.97085,7.40031 -27.2059,3.86647 -54.46085,8.0006 -81.10483,14.85215 -50.92057,14.81876 -29.96369,86.83132 20.95688,72.01257 z"/>
<path d="m 435.36649,254.40092 c 4.85096,22.76051 6.4901,45.9982 8.07546,69.16006 3.24737,66.77104 1.79594,133.65905 0.95727,200.47147 -0.62721,44.79869 -1.05582,89.6183 -3.60904,134.36016 -1.42176,24.91439 -1.87878,27.69133 -4.08926,51.53637 -2.10437,16.1301 -3.6287,32.46218 -7.43168,48.32279 -0.60513,2.52374 -1.2397,5.06617 -2.27478,7.4461 -0.13263,0.30495 -1.11488,0.38226 -0.99502,0.0721 0.85733,-2.21852 2.2619,-4.18464 3.39285,-6.27696 1.80763,-8.53842 11.29639,-4.19878 15.45357,-8.31366 0.83418,-0.82569 -1.65073,-1.67291 -2.54239,-2.43617 -1.97886,-1.69389 -4.15532,-3.15647 -6.06306,-4.93008 -6.49362,-6.03705 -10.78371,-11.60674 -16.63777,-18.50824 -34.78876,-40.02803 -91.39693,9.1707 -56.60818,49.19872 v 0 c 4.78633,5.41877 9.28934,11.10164 14.359,16.25631 20.06536,20.40179 48.57739,40.64631 79.13864,35.29646 7.75069,-1.35678 14.39925,-6.34962 21.59888,-9.52443 4.67461,-5.11783 10.06354,-9.66487 14.02382,-15.35348 5.39851,-7.7545 8.61326,-19.31667 10.73956,-28.42728 4.28968,-18.38013 6.18,-37.25027 8.52961,-55.9344 2.3345,-25.43452 2.82535,-28.47626 4.32269,-54.88555 2.58581,-45.60753 3.05743,-91.29236 3.68666,-136.9575 0.8641,-68.85883 2.34118,-137.79783 -1.13165,-206.6098 -0.57839,-8.21924 -1.02896,-16.44847 -1.73516,-24.65772 -1.62264,-18.86244 -4.21262,-37.67123 -8.08895,-56.20549 -11.95028,-51.66905 -85.02135,-34.7688 -73.07107,16.90025 z"/>
<path d="m 330.15368,533.22565 c -0.41581,1.94814 -0.18203,1.08762 -1.05825,3.60847 -4.17195,12.00255 -0.35004,0.87163 -6.13982,16.91273 -4.91327,13.61267 -6.16135,17.50046 -11.03477,31.79422 -8.54482,25.15071 -19.2754,49.47362 -29.84181,73.8184 -21.10994,48.65049 47.69225,78.50445 68.80219,29.85395 v 0 c 11.36692,-26.2036 22.85057,-52.40592 32.03059,-79.47976 4.56824,-13.41182 5.81814,-17.29544 10.4118,-30.03793 4.23393,-11.74459 9.14887,-23.42326 11.07297,-35.84032 7.51637,-52.49766 -66.72653,-63.12742 -74.2429,-10.62976 z"/>
<path d="m 545.86941,561.92062 c 6.88248,12.52806 14.25059,24.80757 19.80635,38.0168 1.47183,3.49938 2.72386,7.0872 4.08578,10.6308 7.17588,20.29545 10.20096,41.68098 12.26947,63.01143 5.19713,52.77774 79.83613,45.42789 74.639,-7.34985 v 0 c -2.8077,-28.16617 -7.21997,-56.31303 -17.06461,-82.98987 -1.95587,-4.93582 -3.77455,-9.92824 -5.86762,-14.80746 -5.70168,-13.29136 -12.61072,-26.11005 -20.03442,-38.50491 -22.62251,-47.96584 -90.45645,-15.97278 -67.83395,31.99306 z"/>
<path d="m 532.18147,244.62996 c 7.33195,10.05877 14.62074,20.15411 21.92113,30.23781 8.86699,13.24215 4.79409,6.48599 12.25267,20.24797 25.79681,46.336 91.3258,9.85379 65.52899,-36.4822 v 0 c -11.24045,-19.84476 -5.49119,-10.64002 -17.03169,-27.74805 -22.45462,-31.01475 6.3507,8.75663 -13.71214,-18.90037 -6.68756,-9.21892 -13.25689,-18.71116 -22.17082,-25.97146 -41.44798,-33.08421 -88.23612,25.53208 -46.78814,58.6163 z"/>
<path d="m 711.15043,205.64562 c 23.0757,-4.0624 46.27951,-7.23815 69.55661,-9.876 21.80308,-2.31663 43.80078,-3.21125 65.69612,-1.72665 9.87065,0.66927 13.17814,1.3142 22.52449,2.67483 52.51133,7.42025 63.00515,-66.84199 10.49381,-74.26224 v 0 c -12.77212,-1.76447 -16.53239,-2.504 -29.96974,-3.35061 -25.74552,-1.62207 -51.59968,-0.58089 -77.23158,2.1464 -24.55028,2.80872 -49.03203,6.12105 -73.3727,10.41024 -52.31461,8.69953 -40.01162,82.68356 12.30299,73.98403 z"/>
<path d="m 675.87902,435.39855 c 17.91771,-5.78611 36.35303,-9.45008 54.854,-12.7764 38.50154,-6.53361 77.59621,-7.92547 116.56704,-8.3033 16.64567,0.0795 33.31146,0.79896 49.86001,2.66263 7.18117,0.80873 12.62497,1.53577 19.4099,3.40276 1.65498,0.4554 3.24102,1.13186 4.86153,1.69778 50.59256,15.90262 73.08226,-55.64606 22.4897,-71.54868 v 0 c -3.86638,-1.15875 -7.68287,-2.49928 -11.59913,-3.47625 -9.76427,-2.43585 -18.38153,-3.67395 -28.41002,-4.77107 -19.04722,-2.08375 -38.2215,-2.89451 -57.37467,-2.9633 -43.19727,0.45817 -86.51768,2.13961 -129.17534,9.50094 -5.94826,1.08485 -11.91403,2.07768 -17.84476,3.25455 -14.92452,2.96156 -29.64567,6.77656 -44.1998,11.19391 -51.0011,14.5392 -30.43955,86.66564 20.56154,72.12643 z"/>
<path d="m 752.41319,418.86749 c 7.16135,22.21013 8.6616,45.75116 10.37442,68.8632 2.90652,53.70354 2.06039,107.52027 0.42199,161.24819 -1.96829,51.86176 -6.07945,103.63712 -12.03348,155.18859 -3.79094,24.252 -6.605,49.83083 -16.36988,72.60628 -0.41618,0.62438 -0.54127,2.12379 -1.24854,1.87315 -0.68652,-0.24329 0.33552,-1.48468 0.82641,-2.02275 8.79599,-9.64135 8.29084,-8.57879 22.118,-12.3441 1.29879,-0.35368 4.34793,0.98569 4.02547,-0.3212 -0.4304,-1.74431 -3.159,-1.71236 -4.7385,-2.56855 -19.87065,-10.82743 -40.28087,-20.64055 -61.09879,-29.5089 -7.37385,-3.14124 -14.82471,-6.09855 -22.23706,-9.14782 -49.0559,-20.14992 -77.55218,49.2256 -28.49628,69.37551 v 0 c 6.81105,2.79305 13.65632,5.50403 20.43314,8.37914 20.20148,8.5706 39.91621,18.20951 59.2166,28.6464 9.17469,4.14025 20.26684,10.16958 30.69544,10.11314 8.02362,-0.0434 16.25177,-1.28323 23.6818,-4.31224 9.52364,-3.8825 16.46493,-12.36892 21.63597,-20.78109 1.78481,-2.90351 3.10137,-6.07001 4.65206,-9.10501 1.33275,-3.36222 2.78811,-6.67839 3.99824,-10.08666 9.40046,-26.47602 13.42658,-54.53873 17.41337,-82.214 6.16272,-53.64929 10.48297,-107.52232 12.49148,-161.49381 1.70442,-56.37451 2.56779,-112.84451 -0.6016,-169.18802 -0.60161,-7.79894 -1.04631,-15.61158 -1.80483,-23.39682 -2.14892,-22.05621 -5.70601,-44.20869 -12.80698,-65.25682 -17.99883,-49.88529 -88.54728,-24.43109 -70.54845,25.45419 z"/>
</svg>
