<?xml version="1.0" ?>
<svg xmlns="http://www.w3.org/2000/svg" width="1000" height="1000">
<path d="m 338.50921,269.00717 c 34.78578,-10.5736 70.38803,-18.10895 105.95625,-25.48695 43.46511,-8.29427 87.37391,-14.78403 131.58992,-17.24392 24.39625,-1.35724 30.50138,-0.93117 54.05428,-0.68225 16.74421,1.02326 21.2139,0.93736 36.94946,3.11422 4.02947,0.55744 8.01801,1.37877 12.02702,2.06815 52.3078,8.74034 64.66851,-65.23406 12.36071,-73.9744 v 0 c -5.38275,-0.87993 -10.74145,-1.92223 -16.14823,-2.63978 -19.04827,-2.52796 -24.45984,-2.4233 -44.5004,-3.56502 -26.49219,-0.21067 -33.19375,-0.66923 -60.53764,0.90328 -47.39167,2.72544 -94.46055,9.64722 -141.04629,18.58674 -37.73919,7.8472 -75.50531,15.88768 -112.41112,27.12962 -50.76341,15.34849 -29.05737,87.13879 21.70604,71.79031 z"/>
<path d="m 470.31036,90.146651 c 0.96162,22.076799 0.98567,44.176769 0.89717,66.269469 -0.69027,54.67146 -4.39339,109.2444 -7.35626,163.82431 -1.82745,34.05573 -3.30558,68.12857 -4.91034,102.19513 -2.49534,52.97427 72.42159,56.50321 74.91693,3.52894 v 0 c 1.5962,-33.88778 3.06647,-67.7818 4.88315,-101.65886 3.03089,-55.83766 6.80882,-111.66893 7.46596,-167.60158 0.09,-24.45482 0.12111,-48.936 -1.20599,-73.362639 -4.81202,-52.814245 -79.50265,-46.009015 -74.69062,6.80523 z"/>
<path d="m 428.96276,361.4359 c 22.47194,-6.27092 45.84802,-8.23929 68.99909,-10.23836 24.96089,-1.62267 50.02885,-2.48347 75.01833,-0.94085 10.03972,0.61976 13.34515,1.14812 22.78769,2.30124 52.65818,6.29414 61.55944,-68.17577 8.90127,-74.46991 v 0 c -12.02006,-1.41234 -15.87666,-2.02373 -28.58999,-2.76728 -28.20453,-1.64956 -56.49199,-0.74352 -84.65799,1.16255 -29.5279,2.61602 -59.41162,5.34988 -87.81207,14.36797 -49.91088,17.92775 -24.5572,88.51239 25.35367,70.58464 z"/>
<path d="m 186.72976,518.36316 c 10.24463,-4.71897 21.25902,-7.70349 32.14983,-10.48788 19.08268,-4.87875 26.48972,-6.22537 46.63826,-10.52851 60.76058,-12.39127 122.39076,-20.11894 184.19859,-24.83447 14.23482,-1.08602 28.49156,-1.86263 42.73734,-2.79394 54.84881,-3.01426 109.81075,-3.62526 164.72272,-2.40002 29.8687,0.66646 39.68225,1.25698 68.8967,2.55663 35.08652,1.91393 70.1214,4.63817 105.10578,7.90491 52.80358,4.9276 59.77226,-69.74795 6.96867,-74.67555 v 0 c -36.19706,-3.37587 -72.44626,-6.19376 -108.74974,-8.15564 -30.11601,-1.33303 -40.33598,-1.94461 -71.12529,-2.62234 -56.91451,-1.25279 -113.8801,-0.59587 -170.72739,2.55281 -14.79468,0.97339 -29.60092,1.78462 -44.38403,2.92017 -64.88136,4.98376 -129.56859,13.16496 -193.34484,26.20943 -20.65822,4.43299 -31.28821,6.44975 -51.18266,11.65085 -17.44662,4.56114 -35.02274,9.7334 -50.83629,18.59995 -45.32809,27.52933 -6.39574,91.63294 38.93235,64.1036 z"/>
<path d="m 466.06838,442.46025 c 0.23301,-0.84515 1.05774,-1.7355 0.69904,-2.53543 -0.24197,-0.53962 -0.89785,0.77539 -1.28961,1.21841 -1.79281,2.02739 -3.47443,4.15104 -5.25832,6.18628 -12.71384,14.50529 -26.44143,27.91339 -40.13765,41.48634 -7.08942,7.01622 -14.13086,14.08123 -21.26824,21.04865 -17.90047,17.47419 -31.34766,30.27214 -50.00489,47.24585 -29.10688,26.48044 -59.01692,52.06439 -88.78879,77.7881 -49.8172,42.75987 -100.7073,84.23652 -152.16803,124.99515 -4.54631,3.55259 -9.092619,7.10518 -13.638927,10.65776 -41.786303,32.65586 4.396049,91.75061 46.182357,59.09476 v 0 c 4.67454,-3.65348 9.34907,-7.30695 14.02361,-10.96042 52.2962,-41.42341 104.01165,-83.57777 154.63572,-127.03696 30.44305,-26.30462 61.01795,-52.47483 90.77155,-79.56371 19.3364,-17.60464 33.2041,-30.81366 51.74454,-48.91308 7.15488,-6.98469 14.21376,-14.06704 21.32064,-21.10056 15.42019,-15.30016 31.02207,-30.40574 45.13067,-46.95208 5.49076,-6.43948 11.20952,-13.3301 15.37847,-20.77023 1.65455,-2.9528 2.78127,-6.17177 4.17191,-9.25765 16.00266,-50.561 -55.50139,-73.19218 -71.50405,-22.63118 z"/>
<path d="m 293.74539,582.79778 c 0.84173,20.22963 1.83738,40.45145 2.89119,60.67109 2.34142,38.16979 3.73746,76.38148 4.59957,114.61025 0.52982,27.43011 1.11416,54.86258 2.74407,82.25249 0.62367,10.04728 2.09657,20.0064 3.78932,29.91959 7.83084,36.90702 31.533,31.52869 62.49632,23.78528 4.38253,-1.09599 6.38733,-6.39717 9.38937,-9.7729 2.51854,-2.83204 4.77352,-5.88792 7.15774,-8.83394 3.23958,-4.00294 6.47577,-8.00863 9.71366,-12.01294 14.97667,-18.57744 30.90142,-36.3496 46.7444,-54.182 35.21602,-39.65263 -20.86128,-89.45561 -56.0773,-49.80297 v 0 c -16.60419,18.70259 -33.28905,37.34609 -48.9868,56.82766 -3.2345,4.00012 -6.47009,7.99937 -9.7035,12.00037 -2.03968,2.52387 -4.40559,4.81645 -6.11578,7.57425 -0.45337,0.73109 1.36813,-1.25928 2.22723,-1.30373 13.51854,-0.69949 27.98786,-5.82991 40.59963,-0.91225 13.70557,5.34415 14.97914,14.36556 16.48451,24.00654 -1.23296,-7.21747 -2.39127,-14.45702 -2.85277,-21.77378 -1.59383,-26.46077 -2.09347,-52.96672 -2.62924,-79.4662 -0.88243,-38.96553 -2.29914,-77.91421 -4.68212,-116.81991 -1.09951,-21.08968 -2.05323,-42.18572 -3.07271,-63.27853 -4.60441,-52.83275 -79.3212,-46.32112 -74.71679,6.51163 z"/>
<path d="m 678.72432,525.54574 c -1.35254,1.07479 -2.71975,2.13138 -4.05763,3.22437 -1.93925,1.58428 -16.01361,13.31306 -16.78182,13.92651 -14.41625,11.51201 -29.49093,22.08745 -44.60426,32.65076 -17.26378,11.84399 -35.07361,22.83438 -52.94732,33.72036 -45.28209,27.60492 -6.24283,91.64347 39.03926,64.03855 v 0 c 19.21112,-11.7217 38.36171,-23.5437 56.90705,-36.30904 16.15405,-11.31555 20.01609,-13.79513 35.45702,-25.46523 12.02232,-9.08635 13.19654,-10.20587 23.62849,-18.87722 7.48169,-6.21901 3.74807,-3.20521 9.51829,-7.79612 41.79916,-32.63941 -4.35992,-91.75234 -46.15908,-59.11294 z"/>
<path d="m 481.58238,641.18286 c 13.34248,6.67351 24.86753,16.322 36.32537,25.7317 30.61445,26.48164 59.29652,55.09613 88.33251,83.27324 26.36113,26.38342 54.41778,50.93845 82.97942,74.88639 15.32378,12.87397 31.12779,25.16313 47.87138,36.13567 11.8275,7.35158 23.95669,14.20028 36.18082,20.86518 12.8853,6.75226 26.3541,12.26888 40.21955,16.66507 6.31403,2.00193 12.73131,3.66231 19.09697,5.49346 51.00946,14.50982 71.52944,-57.62845 20.51998,-72.13827 v 0 c -15.0393,-4.21691 -30.15194,-8.38879 -43.97161,-15.88914 -10.5014,-5.70898 -20.90292,-11.603 -31.10412,-17.83566 -14.29015,-9.23078 -27.54749,-19.92038 -40.62929,-30.77094 -27.17232,-22.7765 -53.87817,-46.11366 -78.93212,-71.23485 -30.56541,-29.66125 -60.76196,-59.78489 -93.10828,-87.52771 -15.89218,-12.93236 -31.80042,-25.68926 -50.29948,-34.76611 -47.45533,-23.67471 -80.93642,43.43726 -33.4811,67.11197 z"/>
</svg>
