<?xml version="1.0" ?>
<svg xmlns="http://www.w3.org/2000/svg" viewBox="0 0 1000 1000">
<path d="m 379.0115,107.55249 c -15.02999,23.63289 -31.11996,46.56055 -47.18487,69.49648 -6.27868,8.64254 -12.38012,17.41668 -18.83606,25.92763 -18.1017,23.86371 -27.16254,34.12087 -46.75399,57.28509 -25.5391,30.19652 -51.31754,60.1627 -77.34248,89.9408 -12.26632,13.89364 -30.84535,35.34201 -44.12792,48.92912 -6.10333,6.24326 -12.60903,12.08007 -18.91355,18.1201 -38.204283,36.78223 13.81365,90.81125 52.01793,54.02902 v 0 c 7.33001,-7.08698 14.86991,-13.96311 21.99002,-21.26094 13.74777,-14.09092 32.69305,-35.94932 45.50778,-50.46491 26.32531,-30.12663 52.4233,-60.42688 78.24214,-90.98963 24.22964,-28.68155 48.43432,-57.45163 69.64895,-88.49293 17.64376,-25.19672 35.43121,-50.33684 51.56045,-76.54408 25.4387,-46.533561 -40.3697,-82.509313 -65.8084,-35.97575 z"/>
<path d="m 291.26273,260.76269 c 1.75708,30.48679 4.03051,60.9378 6.23241,91.39506 2.54778,36.59976 4.52945,73.26035 4.71453,109.95772 0.11414,22.63301 -0.23225,26.83585 -0.97646,48.89278 -0.70226,17.96786 -1.97702,35.90189 -3.36978,53.82625 -4.09594,52.8746 70.68003,58.66714 74.77598,5.79254 v 0 c 1.46957,-19.025 2.82103,-38.05983 3.55253,-57.13098 0.77888,-23.83327 1.144,-28.28165 1.00692,-52.65373 -0.21417,-38.07698 -2.25207,-76.11657 -4.89896,-114.09267 -2.25196,-31.14864 -4.50597,-62.29498 -6.41103,-93.46626 -5.28866,-52.76865 -79.91479,-45.28936 -74.62614,7.47929 z"/>
<path d="m 437.10189,351.56693 c 24.60997,-9.78415 49.9325,-17.71129 75.15175,-25.75264 33.23759,-10.23452 66.87144,-19.15252 100.93985,-26.16086 15.96997,-3.28524 25.95188,-4.95237 41.72906,-7.74897 20.56091,-3.37643 10.81144,-1.81216 29.245,-4.71413 52.38727,-8.2507 40.71901,-82.33749 -11.66826,-74.08678 v 0 c -19.24624,3.0324 -9.01698,1.38907 -30.68375,4.95508 -16.94436,3.01125 -27.3876,4.75589 -44.58836,8.31399 -36.3698,7.52334 -72.28714,17.03835 -107.77135,27.99057 -27.6591,8.83072 -55.44844,17.51612 -82.35886,28.46726 -48.60404,21.21668 -18.59912,89.95317 30.00492,68.73648 z"/>
<path d="m 477.69889,202.22128 c 6.02561,13.36173 9.9638,27.54272 14.87337,41.32595 2.4028,6.74564 4.94729,13.43997 7.42093,20.15996 16.48591,43.45129 35.0863,86.11297 56.31156,127.46671 4.61353,8.98867 9.46984,17.85064 14.20477,26.77596 17.59571,32.19652 36.85287,63.56985 59.06961,92.80919 12.40026,16.31992 15.19862,18.96633 28.40603,33.94076 16.34647,17.79551 34.42138,33.8795 54.05141,47.94567 4.47597,2.70789 8.79687,6.1351 13.76128,7.97603 3.23282,1.19881 6.47268,3.72291 9.86553,3.10901 12.11655,-2.19239 25.07834,-4.2219 35.18195,-11.25997 6.42867,-4.47813 7.25761,-13.88715 10.88642,-20.83073 5.73357,-25.8251 12.61947,-51.45104 20.60981,-76.67221 3.18936,-10.06706 6.72892,-20.0198 10.09338,-30.0297 16.85736,-50.2825 -54.25282,-74.12241 -71.11019,-23.83992 v 0 c -3.63609,10.87149 -7.45577,21.68328 -10.90827,32.61445 -7.31761,23.16872 -13.80803,46.74057 -19.41184,70.38868 -0.57383,2.42156 -0.99647,4.87647 -1.4947,7.3147 2.81607,-4.04124 4.06171,-9.88309 8.44822,-12.12371 10.1292,-5.17397 21.68766,-7.17046 32.91311,-9.00355 2.42028,-0.39522 4.62934,1.62223 6.9196,2.49899 0.17606,0.0674 0.64975,0.3398 0.46168,0.3267 -1.02973,-0.0718 -1.62948,-1.86238 -2.68495,-1.5429 -15.09281,-10.67094 -28.82698,-23.10623 -41.44538,-36.60714 -11.11585,-12.47826 -13.39071,-14.59027 -23.91857,-28.3602 -20.15901,-26.36702 -37.52558,-54.75211 -53.45606,-83.83251 -4.42457,-8.32129 -8.96307,-16.583 -13.27372,-24.96388 -20.02798,-38.93891 -37.5608,-79.12142 -53.11118,-120.04526 -2.26936,-6.14435 -4.60961,-12.263 -6.80809,-18.43307 -6.04747,-16.97228 -10.90611,-34.45376 -18.80391,-50.70944 -23.7598,-47.41278 -90.8116,-13.81135 -67.0518,33.60143 z"/>
<path d="m 631.08952,135.57953 c 18.45473,4.10293 35.62478,12.00818 52.70113,19.87888 6.18581,2.8311 12.37161,5.66219 18.55742,8.49329 48.22244,22.07024 79.43448,-46.1266 31.21203,-68.19684 v 0 c -6.16846,-2.823149 -12.33692,-5.646299 -18.50538,-8.469449 -5.89164,-2.690441 -11.72954,-5.501842 -17.67493,-8.071323 -19.36343,-8.368485 -39.55912,-15.602738 -60.55088,-18.414635 -52.8775,-4.058359 -58.61688,70.721717 -5.73939,74.780077 z"/>
<path d="m 439.57742,494.80029 c 13.64365,7.76477 25.28887,18.65149 36.5603,29.45446 7.91428,9.43304 4.58115,4.50269 10.17042,14.67401 28.07478,44.99229 91.70349,5.28855 63.62871,-39.70374 v 0 c -14.14663,-21.54673 -6.62726,-11.87142 -22.14214,-29.34448 -3.61645,-3.41327 -7.15252,-6.91377 -10.84935,-10.23982 -12.54901,-11.29038 -25.90353,-21.97592 -40.66077,-30.24368 -46.24708,-25.95588 -82.95425,39.44736 -36.70717,65.40325 z"/>
<path d="m 178.5003,658.74451 c 37.7429,-10.84488 76.53728,-17.38761 115.21561,-23.83628 65.42786,-9.98305 131.53649,-14.9263 197.63091,-17.69785 12.27542,-0.51475 24.55899,-0.81225 36.83848,-1.21837 37.93507,-0.77404 75.94546,-0.50869 113.79368,2.42892 14.95756,1.16094 18.2721,1.7446 32.20286,3.53846 52.60822,6.69883 62.08181,-67.70044 9.47358,-74.39927 v 0 c -16.13726,-2.03509 -19.81341,-2.67866 -36.9776,-3.99185 -40.24183,-3.07882 -80.65119,-3.3828 -120.98282,-2.53491 -12.70648,0.42397 -25.41718,0.73616 -38.11944,1.2719 -68.97201,2.90899 -137.95123,8.14718 -206.21829,18.62822 -40.14091,6.71911 -80.70632,13.48727 -119.91141,24.67704 -3.09959,0.88468 -6.15211,1.92664 -9.22817,2.88995 -49.67003,18.58461 -23.38743,88.82865 26.28261,70.24404 z"/>
<path d="m 472.16422,562.67502 c -4.71499,2.4208 -5.64669,2.87283 -11.46494,6.07396 -11.93181,6.56473 -18.06312,9.95504 -30.09783,18.14231 -13.46274,9.15877 -32.52183,23.78004 -45.22758,33.34671 -42.18963,31.49306 -81.19029,66.89891 -120.19456,102.17214 -30.61317,27.6848 -30.49228,27.66417 -60.45906,55.12983 -34.88635,32.02892 -17.81019,16.33208 -51.2308,47.08797 -39.02342,35.91201 11.76384,91.09946 50.78726,55.18744 v 0 c 33.34017,-30.68196 16.30108,-15.01915 51.11963,-46.98587 29.99347,-27.49142 29.31348,-26.95772 59.99718,-54.71001 37.37091,-33.80062 74.68181,-67.79768 115.10704,-97.97673 8.82216,-6.6492 30.18399,-22.94796 40.41412,-30.00716 10.36869,-7.15482 14.82123,-9.54691 25.29347,-15.32515 5.17456,-2.85515 6.80864,-3.668 11.61554,-6.15513 46.65513,-25.21505 10.99566,-91.19537 -35.65947,-65.98031 z"/>
<path d="m 327.1313,708.12066 c 3.0395,20.18162 2.21688,40.68779 1.70223,61.00808 -1.95792,41.9041 -7.55798,83.5149 -12.84287,125.09605 -1.45742,12.41004 -3.04936,24.8121 -4.04827,37.27096 -0.28555,3.56145 -0.8172,11.16357 -0.60857,14.89583 0.17443,3.12034 0.67279,6.21411 1.00919,9.32116 17.3172,28.98547 11.23811,33.08935 56.34337,28.10271 6.24954,-0.69092 21.57048,-17.4674 25.83922,-21.96056 8.74332,-9.20298 17.34394,-18.54078 26.08051,-27.75017 17.12708,-17.42666 34.2014,-34.94362 52.09504,-51.59381 6.41306,-5.9674 13.02223,-11.72051 19.53335,-17.58077 39.39097,-35.50847 -10.8256,-91.21571 -50.21657,-55.70724 v 0 c -7.11274,6.4208 -14.32694,12.73097 -21.33824,19.26239 -18.71347,17.43266 -36.58143,35.7595 -54.48991,54.0068 -4.88476,5.15106 -9.79286,10.28011 -14.6543,15.4532 -3.77527,4.01729 -7.5087,8.07371 -11.25549,12.11758 -1.9893,2.14704 -4.98407,3.6931 -5.95277,6.45512 -0.48313,1.37757 2.71842,-1.55686 4.16435,-1.35582 12.28331,1.70781 25.85689,0.71167 36.53712,7.01477 6.89937,4.07177 7.53017,14.14282 11.29525,21.21423 0.003,1.10572 0.0789,2.21364 0.009,3.31716 -0.0547,0.86528 -0.0852,-1.73398 -0.0545,-2.60044 0.0685,-1.92923 0.20045,-3.85614 0.35195,-5.78064 0.9118,-11.58299 2.4204,-23.10909 3.76156,-34.64652 5.6061,-44.11171 11.49712,-88.26283 13.41915,-132.72693 0.65241,-27.80325 1.75032,-56.18508 -4.57806,-83.48033 -14.59977,-50.98379 -86.70174,-30.33659 -72.10196,20.64719 z"/>
<path d="m 594.43307,658.8227 c -23.36151,17.37634 -45.92722,35.79872 -68.77463,53.84105 -15.71585,12.3087 -31.55701,24.45592 -47.37062,36.63838 -42.01191,32.36508 3.75923,91.77891 45.77115,59.41382 v 0 c 16.05142,-12.36567 32.13059,-24.69589 48.08077,-37.1923 21.07806,-16.64533 42.02094,-33.46444 63.27286,-49.88632 44.41665,-28.9769 3.43712,-91.79154 -40.97953,-62.81463 z"/>
<path d="m 420.36901,770.65069 c 18.78038,16.66059 39.26093,31.31124 59.33735,46.35034 26.83574,19.69997 53.4402,39.76176 81.00856,58.43964 4.93323,3.34232 9.94128,6.57285 14.91192,9.85927 16.44167,10.25855 33.1503,20.2668 50.87416,28.18761 10.46521,4.67691 12.40198,5.08112 23.15864,8.78768 27.06533,8.0401 54.85706,13.31084 82.57592,18.51948 28.4989,5.23935 57.26069,8.77614 86.20881,10.15343 7.42922,0.35347 14.86894,0.43303 22.30341,0.64955 53.01209,1.48936 55.11837,-73.48106 2.10628,-74.97042 v 0 c -16.65934,-0.44863 -23.72823,-0.41311 -40.53741,-1.8107 -18.87604,-1.56944 -37.59293,-4.51074 -56.24495,-7.73456 -24.27768,-4.5517 -48.60033,-9.16353 -72.39695,-15.85798 -6.68475,-2.1888 -8.32167,-2.55335 -14.92006,-5.44689 -14.59416,-6.39988 -28.25931,-14.71953 -41.79643,-23.06085 -31.54039,-20.80384 -61.96809,-43.20708 -92.28712,-65.74166 -17.2636,-12.93171 -34.69358,-25.67427 -51.32858,-39.41635 -37.542,-37.45795 -90.51555,15.63445 -52.97355,53.09241 z"/>
</svg>
