<?xml version="1.0" ?>
<svg xmlns="http://www.w3.org/2000/svg" viewBox="0 0 1000 1000">
<path d="m 250.3422,157.49147 c 12.18467,8.78264 24.84263,16.96539 36.47619,26.49352 3.0702,2.51456 5.97386,5.22587 8.96079,7.8388 8.66096,9.74693 5.1628,4.64063 10.82064,15.09028 28.53016,44.70493 91.75247,4.35719 63.22231,-40.34773 v 0 c -15.73825,-23.21438 -7.26302,-12.84823 -24.97347,-31.46279 -4.13309,-3.54669 -8.17317,-7.20474 -12.39927,-10.64009 -12.96898,-10.54232 -26.9785,-19.72065 -40.56913,-29.41868 -44.15648,-29.371845 -85.69454,33.07485 -41.53806,62.44669 z"/>
<path d="m 193.50636,345.43314 c 0.28146,-0.0797 0.57528,-0.12434 0.84438,-0.23902 7.13831,-3.04193 6.33386,-3.16684 15.1247,-6.44684 16.10019,-6.00725 32.75722,-10.04612 49.38813,-14.25228 40.54492,-9.33184 81.43248,-17.12436 122.33319,-24.7207 11.50323,-2.02997 13.59843,-2.44879 24.40062,-4.19051 2.7894,-0.44975 9.39918,-1.55097 12.83279,-1.81307 0.15865,-0.0121 -0.26651,0.2767 -0.41849,0.2296 -7.69059,-2.3837 -15.31189,-4.98546 -22.96783,-7.4782 -3.23563,-15.45283 -6.47127,-30.90567 -9.70691,-46.3585 1.01907,-1.63916 4.79672,-4.08116 3.0572,-4.91747 -1.92513,-0.92555 -3.35877,2.64007 -5.03181,3.96813 -6.25925,4.96856 -15.323,12.18011 -21.17679,17.07554 -4.92727,4.12061 -9.76428,8.34798 -14.64642,12.52196 -35.23492,31.99652 -67.93389,66.73991 -99.14983,102.64073 -7.36453,8.4698 -14.57467,17.0726 -21.86201,25.6089 -40.46741,47.97376 -77.77919,98.46797 -115.45919,148.62444 -16.952472,22.62642 -35.234136,44.20903 -52.361868,66.69833 -7.00349,9.19582 -8.845303,11.87445 -15.213148,20.73884 -30.918261,43.08784 30.017132,86.81286 60.935396,43.72503 v 0 c 21.15263,-29.51562 44.6473,-57.20595 66.60364,-86.11428 36.74684,-48.91431 73.11176,-98.17565 112.54555,-144.98711 6.99055,-8.19482 13.90904,-16.45165 20.97164,-24.58445 28.92848,-33.31207 59.21072,-65.56555 91.76128,-95.37372 4.40553,-3.77617 8.7674,-7.6039 13.21661,-11.3285 8.89076,-7.44279 12.2907,-9.90363 20.94513,-16.88778 3.71544,-2.99837 18.99239,-14.86645 19.20587,-18.87025 0.9032,-16.93939 -4.8723,-33.57522 -7.30845,-50.36283 -8.41626,-3.11117 -16.59279,-6.96993 -25.24879,-9.33352 -2.05404,-0.56087 -12.81633,0.90953 -14.99332,1.21823 -11.58854,1.64326 -23.0989,3.81665 -34.62872,5.81194 -42.5015,7.89667 -84.99153,15.9926 -127.10622,25.76928 -30.26602,7.72273 -61.13877,15.4384 -88.42439,31.18139 -44.15648,29.37184 -2.61842,91.81854 41.53806,62.44669 z"/>
<path d="m 229.92802,445.36249 c 4.13499,19.91777 8.50947,39.77868 11.88347,59.84754 1.28816,7.66213 2.42261,15.34931 3.63391,23.02397 5.57551,37.41491 9.08146,75.14572 9.76256,112.97874 0.4736,26.3072 -0.15318,35.28764 -1.01105,61.59972 -2.29582,52.77586 -9.65736,105.12163 -16.54783,157.43943 -2.33792,17.31722 -4.48775,34.65841 -6.44464,52.02253 -5.93415,52.69996 68.59485,61.09212 74.529,8.39216 v 0 c 1.90095,-16.89696 3.99945,-33.77044 6.27351,-50.62148 7.21358,-54.7714 14.84498,-109.58045 17.1517,-164.83708 0.89755,-28.62272 1.55981,-38.12801 0.99664,-66.80537 -0.80157,-40.81719 -4.59836,-81.52464 -10.63149,-121.89006 -1.30311,-8.21621 -2.52354,-16.44595 -3.90931,-24.64862 -3.43044,-20.30542 -7.79128,-40.41796 -12.01684,-60.56512 -9.9445,-52.09229 -83.61413,-38.02865 -73.66963,14.06364 z"/>
<path d="m 405.5841,393.85823 c -0.38944,1.2815 -0.67722,2.59842 -1.16832,3.8445 -0.99366,2.52126 -5.39164,10.45346 -5.99512,11.4484 -6.8281,11.25741 -15.49486,20.76867 -24.21341,30.56685 -14.67581,14.69336 -7.03358,7.82985 -22.88519,20.63661 -40.8492,33.82076 6.98057,91.59024 47.82976,57.76949 v 0 c 22.34177,-18.80359 11.95828,-9.14841 31.3053,-28.79811 4.38123,-5.0022 8.92731,-9.86467 13.14368,-15.00658 14.73271,-17.9667 27.78852,-37.95949 34.2713,-60.47505 14.13231,-51.11534 -58.15569,-71.10144 -72.288,-19.98611 z"/>
<path d="m 293.6436,499.97155 c 0.55643,0.30881 1.1306,0.58763 1.66931,0.92643 5.2315,3.29009 10.21428,7.65419 14.88098,11.59135 8.70113,7.34088 12.93448,11.34534 21.6238,19.23544 23.36603,20.94941 44.70546,43.95288 65.15418,67.7139 7.96757,9.44084 4.33084,5.02213 10.9549,13.2192 33.3774,41.21224 91.66032,-5.99052 58.28292,-47.20277 v 0 c -7.75972,-9.56374 -3.63295,-4.56874 -12.40956,-14.96077 -22.47721,-26.07937 -45.94877,-51.31121 -71.60071,-74.32747 -17.26,-15.63347 -34.4564,-32.13307 -55.07466,-43.30725 -47.45531,-23.67475 -80.93647,43.43718 -33.48116,67.11194 z"/>
<path d="m 528.43373,303.64396 c 26.14834,-10.41093 54.2099,-14.49606 81.86842,-18.67671 44.39038,-5.62183 89.11537,-8.58879 133.84508,-9.52322 7.51184,-0.15692 15.02611,-0.16027 22.53916,-0.24041 20.48004,-0.22249 40.9376,0.68926 61.38802,1.62057 52.97813,2.412 56.38922,-72.51039 3.41109,-74.92239 v 0 c -21.86086,-0.99502 -43.73048,-1.93356 -65.62243,-1.69366 -7.99709,0.0901 -15.99551,0.0993 -23.99129,0.27042 -47.75438,1.02187 -95.50272,4.23703 -142.88226,10.34677 -8.76868,1.34898 -17.56589,2.52408 -26.30605,4.04696 -23.80865,4.14837 -47.56766,9.57902 -70.12656,18.37714 -49.77645,18.29768 -23.89963,88.69221 25.87682,70.39453 z"/>
<path d="m 477.16615,428.68602 c -0.0784,26.34817 0.048,52.69411 0.34374,79.04058 1.28247,63.245 3.68842,126.45704 4.97621,189.70222 0.8881,50.74944 0.62023,101.52189 -1.15725,152.24861 -0.17977,4.11002 -0.35954,8.22003 -0.5393,12.33004 -2.31131,52.98262 72.61743,56.2513 74.92873,3.26868 v 0 c 0.18831,-4.32749 0.37662,-8.65499 0.56493,-12.98248 1.81206,-52.10826 2.11223,-104.26226 1.18731,-156.39369 -1.28651,-63.01716 -3.66425,-126.00176 -4.96539,-189.01824 -0.29474,-26.06484 -0.41571,-52.12918 -0.33898,-78.19572 0,-53.03301 -75,-53.03301 -75,0 z"/>
<path d="m 608.16897,475.63809 c 18.55727,-7.41208 37.69275,-13.37084 57.14205,-17.95157 6.27488,-1.47787 12.5997,-2.73505 18.89954,-4.10258 36.51652,-7.35471 73.64583,-10.73248 110.76941,-13.08343 14.2881,-0.83198 28.60826,-1.37272 42.92197,-1.07504 -1.96269,-0.16277 3.73181,0.18044 2.80064,0.10519 -8.67167,-0.70078 -14.34832,-3.17117 -22.03396,-9.59263 -3.36031,-2.80758 -5.13105,-7.09712 -7.69658,-10.64568 -0.37038,-0.85745 -0.29243,-2.12275 -1.11113,-2.57235 -0.62709,-0.34438 0.20053,1.41676 0.29757,2.12558 0.24031,1.75512 0.50033,3.50773 0.71449,5.26624 1.31123,10.76675 1.90607,21.50333 2.43411,32.33483 0.95602,42.09208 -0.87126,84.20461 -2.58294,126.25714 -1.47712,31.11041 -3.55648,62.20484 -6.93236,93.17193 -2.02015,18.53086 -3.05831,25.19869 -5.56395,43.49867 -4.56741,30.96143 -10.33403,61.74044 -17.12122,92.28942 -0.72436,3.04283 -1.4366,6.08857 -2.17309,9.1285 -1.45231,5.99454 -2.91589,12.0017 -4.65543,17.92154 -1.08818,3.7032 -0.98915,3.38541 -0.66272,1.75249 8.92967,-13.86881 5.29168,-11.95797 22.94417,-19.98223 1.81942,-0.82705 4.36512,0.33408 5.92557,-0.91466 0.94145,-0.7534 -2.30569,-0.70681 -3.45878,-1.05938 -12.5314,-3.83168 -5.47681,-1.57366 -20.54524,-6.70198 -23.3132,-8.51249 -47.07817,-15.66528 -70.83309,-22.81577 -50.78317,-15.28297 -72.39656,56.53528 -21.61338,71.81825 v 0 c 22.94859,6.90473 45.9098,13.80077 68.42361,22.04611 9.27462,3.11903 17.9887,6.27129 27.45671,8.6753 3.91702,0.99457 7.83595,2.12653 11.85712,2.52963 5.29152,0.53045 10.80307,1.58843 15.95203,0.25809 22.67839,-5.85945 21.0472,-8.48727 32.88393,-24.44223 0.81973,-2.09038 1.70757,-4.15531 2.45919,-6.27113 0.78421,-2.20754 2.44846,-8.25058 3.00111,-10.31231 2.25699,-8.41995 4.26548,-16.90416 6.25876,-25.38942 7.21252,-32.56624 13.38104,-65.36789 18.21015,-98.37579 2.67228,-19.59199 3.73625,-26.41162 5.89116,-46.27909 3.51494,-32.40658 5.69672,-64.94396 7.23384,-97.49928 1.79971,-44.3178 3.71967,-88.70209 2.55073,-133.05998 -0.67151,-13.08164 -1.40375,-26.07462 -3.07771,-39.07217 -0.4923,-3.82245 -1.57673,-11.43164 -2.57527,-15.33319 -0.72411,-2.82931 -1.72126,-5.58163 -2.58189,-8.37244 -3.00348,-4.5772 -4.98171,-10.02472 -9.01044,-13.73161 -9.9666,-9.17041 -19.37052,-11.5735 -31.58727,-11.74102 -16.39512,-0.31014 -32.79615,0.2275 -49.16202,1.21178 -40.90403,2.61316 -81.80484,6.44042 -122.01829,14.66095 -7.21465,1.58553 -14.45956,3.03911 -21.64395,4.75658 -22.52156,5.3839 -44.68045,12.32685 -66.18781,20.91156 -49.25507,19.65803 -21.45441,89.31522 27.80066,69.65718 z"/>
<path d="m 565.22998,602.35297 c 21.3135,-6.04052 42.81449,-11.29861 64.43506,-16.11675 21.60049,-4.57779 43.37603,-8.5894 65.40648,-10.39357 11.78006,-0.96472 13.98015,-0.80042 25.22938,-0.90841 2.98449,0.12006 5.96897,0.24013 8.95345,0.36019 53.00002,1.87047 55.64525,-73.08287 2.64524,-74.95334 v 0 c -4.19796,-0.13341 -8.39592,-0.26683 -12.59387,-0.40025 -14.37871,0.23112 -17.25879,0.0429 -32.09318,1.31471 -24.87884,2.13304 -49.48918,6.57733 -73.88782,11.78235 -21.57613,4.82417 -43.1038,9.87915 -64.33015,16.09341 -51.77553,11.48017 -35.54012,84.70183 16.23541,73.22166 z"/>
<path d="m 568.27846,714.75446 c 22.09819,-7.22365 45.03454,-11.32326 67.89896,-15.23513 25.20639,-3.69026 50.58156,-6.50506 76.03141,-7.82018 5.94779,-0.30735 11.90383,-0.42606 17.85575,-0.6391 52.99712,-1.9506 50.23855,-76.89985 -2.75858,-74.94925 v 0 c -6.72736,0.25364 -13.45936,0.40506 -20.18209,0.76092 -28.00475,1.48243 -55.92661,4.59985 -83.65542,8.73223 -25.50256,4.40426 -51.07791,9.03563 -75.75172,17.02412 -51.00106,14.5393 -30.43938,86.6657 20.56169,72.12639 z"/>
<path d="m 632.01581,154.26694 c 2.39895,33.74424 4.48178,67.50701 6.28117,101.28818 3.93327,83.09635 4.14953,166.30001 3.95397,249.46926 -0.32723,98.38554 -3.34373,196.72995 -4.94106,295.09644 -0.49177,60.64613 -0.412,30.76566 -0.2674,89.64134 0.13282,53.03284 75.13258,52.84501 74.99977,-0.18783 v 0 c -0.1478,-57.87816 -0.22367,-28.46589 0.25775,-88.23674 1.60041,-98.71365 4.63325,-197.40509 4.95074,-296.13796 0.19635,-84.55939 -0.0401,-169.15373 -4.06017,-253.63805 -1.87468,-35.12039 -3.99488,-70.22791 -6.60348,-105.30228 -5.66225,-52.729862 -80.23354,-44.72223 -74.57129,8.00764 z"/>
<path d="m 845.35397,153.23755 c 19.67889,17.25618 38.05708,35.92523 56.29296,54.679 36.98067,38.01223 90.73809,-14.28634 53.75742,-52.29857 v 0 c -19.06521,-19.58798 -38.26596,-39.10495 -58.81576,-57.152798 -38.72991,-36.228353 -89.96454,18.544018 -51.23462,54.772368 z"/>
</svg>
