<?xml version="1.0" ?>
<svg xmlns="http://www.w3.org/2000/svg" width="1000" height="1000">
<path d="m 210.70956,53.437175 c 0.0839,10.147041 -1.62363,20.284406 -4.15992,30.087344 -0.98393,3.802969 -2.19283,7.544154 -3.28925,11.316231 -1.53064,4.679919 -3.04199,9.36619 -4.59193,14.03976 -4.63465,13.97498 -6.2157,18.13976 -10.62974,32.29472 -4.59908,14.74837 -8.65173,29.64243 -12.70899,44.54554 -3.10091,12.70206 -7.02521,25.20327 -9.92956,37.95375 1.45917,9.12086 -3.96776,23.40333 4.37751,27.36257 45.16202,21.42618 46.00458,10.13394 69.60381,0.63879 2.44357,-0.85772 4.8546,-1.81451 7.33071,-2.57318 7.72274,-2.3662 14.83116,-3.95577 22.81774,-5.48848 16.46475,-3.15978 33.05102,-5.20897 49.6931,-7.14144 21.08751,-2.20916 42.28528,-3.38073 63.48741,-2.73868 9.74574,0.29512 14.69931,0.73466 24.24673,1.40823 12.53405,1.04855 6.59755,0.5213 17.81108,1.5636 52.8064,4.89736 59.73231,-69.78216 6.92591,-74.67952 v 0 c -12.25267,-1.13399 -5.74332,-0.55906 -19.52995,-1.7031 -11.28788,-0.77627 -16.90128,-1.27128 -28.48683,-1.58298 -24.43727,-0.65746 -48.87077,0.65976 -73.17215,3.24083 -30.00063,3.53532 -61.25129,7.19159 -90.00902,16.85261 -4.5832,1.53971 -9.02404,3.47454 -13.53606,5.21181 -4.00586,2.02362 -8.12277,3.84097 -12.01758,6.07085 -5.83004,3.33783 -11.14699,7.45863 -16.09065,11.98368 -1.55617,1.42439 -6.44337,4.16576 -4.3737,4.57447 70.01058,13.82515 56.4916,-16.3849 64.11794,33.35064 0.56708,-2.71459 1.33536,-5.40538 2.05312,-8.07885 2.37254,-8.83702 4.72443,-17.67923 7.04796,-26.52938 3.75042,-13.7836 7.47001,-27.56934 11.71785,-41.21108 4.66942,-14.99561 5.57632,-16.94871 10.5803,-32.14204 1.8381,-5.58095 3.61533,-11.18177 5.423,-16.77265 1.48796,-5.34669 3.13755,-10.651 4.46386,-16.040058 3.68343,-14.966462 5.88767,-30.386624 5.8273,-45.813987 0,-53.03300821 -75,-53.03300821 -75,0 z"/>
<path d="m 175.94302,399.36938 c 17.52584,-7.93405 35.77644,-14.31277 54.43362,-19.01253 6.15228,-1.54976 12.36681,-2.84101 18.55021,-4.26152 38.25382,-7.76237 77.08419,-12.50427 116.01307,-15.16919 7.87631,-0.53919 15.76436,-0.89049 23.64655,-1.33573 35.46619,-1.84476 71.00411,-1.35609 106.38253,1.66216 3.15776,0.32978 6.31552,0.65955 9.47328,0.98933 52.75017,5.4699 60.48577,-69.13011 7.73561,-74.6 v 0 c -3.6374,-0.37485 -7.27479,-0.74969 -10.91218,-1.12454 -38.89499,-3.24157 -77.95391,-3.89081 -116.9419,-1.80571 -8.46959,0.48562 -16.94557,0.87017 -25.40875,1.45687 -42.6034,2.95341 -85.09376,8.22912 -126.93252,16.86595 -7.29641,1.70574 -14.63292,3.24825 -21.88923,5.11721 -22.36237,5.75974 -44.24217,13.45097 -65.27451,22.98074 -48.25082,22.00815 -17.12659,90.24511 31.12422,68.23696 z"/>
<path d="m 160.15288,449.83487 c 0.91326,1.98916 1.81313,3.98452 2.73978,5.96748 2.64832,5.66719 5.06588,11.29523 6.93429,17.2898 2.38183,7.64181 3.05668,11.41032 4.87223,19.41065 4.6385,23.83851 8.86638,47.74702 14.22685,71.43839 0.55965,2.36887 1.11931,4.73774 1.67896,7.10662 12.20492,51.60949 85.19177,34.34913 72.98685,-17.26037 v 0 c -0.50741,-2.14328 -1.01482,-4.28657 -1.52223,-6.42985 -5.41055,-23.80848 -9.48775,-47.87414 -14.31056,-71.80342 -1.12191,-4.76018 -2.11804,-9.55176 -3.36572,-14.28052 -3.47795,-13.18156 -7.89032,-26.52633 -14.23725,-38.64708 -0.13093,-0.25004 0.13471,0.54819 0.20206,0.82229 -18.65773,-49.64262 -88.86299,-23.25661 -70.20526,26.38601 z"/>
<path d="m 259.09546,485.48628 c 10.82957,-2.58488 21.11136,-6.99442 31.63715,-10.54583 11.48288,-3.87435 14.16833,-4.48984 26.21906,-7.95743 20.29852,-5.22504 40.95419,-9.20995 61.76315,-11.7643 10.90549,-1.33869 16.90923,-1.69069 27.72759,-2.53263 12.94244,-0.30163 26.12237,-2.03198 39.03398,-0.21064 0.24079,0.0675 0.56858,0.005 0.72237,0.20258 0.12178,0.15615 -0.4011,0.0125 -0.59293,-0.0366 -1.04124,-0.26668 -2.15335,-0.3879 -3.09414,-0.90772 -3.73084,-2.06142 -7.72513,-3.87554 -10.83619,-6.78929 -5.88064,-5.50768 -6.57846,-8.15994 -8.84353,-13.92775 -0.0883,0.17074 -0.25207,0.32042 -0.26491,0.51221 -0.2574,3.8431 -0.18927,7.70193 -0.38177,11.54882 -0.50032,9.99864 -1.16209,19.9794 -1.921,29.96129 -1.39037,14.38278 -3.17361,29.03927 -8.53055,42.58265 -0.59575,1.50618 -1.37198,2.93455 -2.05798,4.40183 -0.46361,0.58904 -0.82047,1.28072 -1.39083,1.76712 -0.11332,0.0966 -0.42577,-0.1757 -0.33598,-0.29452 1.23032,-1.62807 2.32451,-3.4923 4.03669,-4.60258 3.65461,-2.36987 7.79422,-3.89879 11.78054,-5.65426 0.9585,-0.4221 3.23997,0.16028 3.02088,-0.86388 -0.25715,-1.2021 -2.31452,-0.82928 -3.47178,-1.24392 -50.9543,-14.70237 -71.74659,57.35789 -20.79229,72.06026 v 0 c 8.96864,2.40082 19.38232,5.89503 28.78911,4.66697 7.77864,-1.0155 15.4849,-3.32809 22.54724,-6.74304 7.20279,-3.48287 14.59296,-12.43137 18.98129,-19.14702 2.12666,-3.25451 3.78596,-6.7915 5.67893,-10.18725 1.46279,-3.50386 3.07233,-6.95 4.38838,-10.51157 7.17418,-19.41532 10.32385,-40.05254 12.14298,-60.5774 0.81683,-10.86184 1.57259,-21.72444 2.07402,-32.60648 0.24684,-5.35702 0.5792,-13.08785 0.33776,-18.5121 -0.1458,-3.27542 -0.53975,-6.53508 -0.80962,-9.80261 -2.83012,-11.31109 -2.85221,-16.08466 -12.04188,-25.95691 -8.25129,-8.86416 -19.07191,-12.15494 -30.41307,-13.82997 -17.83269,-1.93905 -35.77797,-1.21946 -53.64863,-0.0663 -13.01618,1.03711 -19.16325,1.38808 -32.38728,3.04685 -24.28052,3.04565 -48.37626,7.74925 -72.03924,13.96847 -5.42291,1.57396 -10.8693,3.06915 -16.26872,4.72188 -12.28805,3.76131 -24.31655,8.2566 -36.43972,12.48871 -51.86091,11.08808 -36.17999,84.43049 15.68092,73.34241 z"/>
<path d="m 317.55281,122.41775 c -0.0227,0.85536 -0.006,1.71269 -0.0682,2.56608 -0.55987,7.65605 -1.87906,15.39577 -2.82181,22.9907 -2.33936,18.84624 -2.06773,16.86362 -4.42787,37.0891 -6.02002,52.67868 -10.01071,105.57515 -12.42264,158.5382 -0.58235,12.78787 -0.99721,25.58282 -1.49581,38.37423 -2.17017,65.04278 -2.53303,130.12551 -2.83939,195.19777 -0.2494,53.03243 74.74977,53.38514 74.99917,0.35271 v 0 c 0.30168,-64.21802 0.65385,-128.44639 2.78355,-192.63565 0.48353,-12.46027 0.88604,-24.92395 1.45058,-37.38081 2.32788,-51.3652 6.18414,-102.66655 12.01934,-153.75594 2.31136,-19.81849 2.04609,-17.88405 4.34366,-36.39535 0.40798,-3.28705 2.34344,-18.2946 2.76585,-22.53078 0.67885,-6.80797 0.59968,-6.85664 0.71357,-12.41026 0,-53.033006 -75,-53.033006 -75,0 z"/>
<path d="m 546.31808,211.56626 c 2.73318,18.97434 3.64042,38.15888 4.47383,57.29171 1.45955,38.4695 -0.15521,76.94226 -2.45785,115.33977 -0.40049,5.74557 -0.80098,11.49114 -1.20146,17.23672 -3.6822,52.90502 71.1368,58.11243 74.819,5.20741 v 0 c 0.41621,-5.98856 0.83242,-11.97712 1.24863,-17.96568 2.44615,-40.98964 4.11489,-82.06097 2.51875,-123.12488 -0.98951,-22.16151 -2.09082,-44.3847 -5.42582,-66.34178 -8.73753,-52.30828 -82.7126,-39.95155 -73.97508,12.35673 z"/>
<path d="m 707.13962,98.939033 c -0.12104,21.261917 0.65168,42.515837 1.34377,63.762857 1.00952,31.15425 3.01681,62.26438 4.34595,93.40404 1.01109,23.68842 1.00105,28.2053 1.55698,51.99642 1.13283,48.43005 -1.10116,96.82373 -3.57562,145.17346 -0.9291,17.27026 -1.59881,34.55552 -2.74326,51.814 -0.62625,9.44398 -1.39646,18.07507 -3.07332,27.35214 -0.34276,0.97354 -0.31255,2.17697 -1.02827,2.92062 -0.46835,0.48662 -0.11162,-1.40193 0.16123,-2.01975 0.89851,-2.03449 1.8,-4.15466 3.29347,-5.8027 2.22068,-2.45053 4.91687,-4.46036 7.66886,-6.29424 1.63048,-1.08652 4.385,-0.69908 5.36856,-2.39366 0.5877,-1.01257 -2.21905,-0.74737 -3.32858,-1.12106 -20.37625,-5.11967 -40.09905,-12.5042 -59.86131,-19.55663 -49.95142,-17.81445 -75.14487,52.82754 -25.19344,70.64199 v 0 c 24.28137,8.65436 48.54179,17.80893 73.84402,23.07204 13.96382,1.59872 22.60015,4.02492 36.78976,-0.91327 17.58487,-6.11979 27.44158,-18.62489 33.4794,-35.38931 1.22869,-3.41153 1.82506,-7.01868 2.73759,-10.52802 0.58301,-3.54128 1.26688,-7.06743 1.74902,-10.62386 1.12077,-8.26698 1.712,-16.59055 2.26179,-24.90963 1.15385,-17.4595 1.84128,-34.94524 2.77653,-52.41667 2.56797,-50.21253 4.83966,-100.47188 3.65288,-150.76687 -0.58757,-24.88344 -0.56835,-29.13542 -1.62543,-53.89056 -1.31247,-30.73591 -3.29269,-61.44265 -4.29665,-92.19265 -0.66692,-20.43252 -1.42213,-40.87173 -1.30393,-61.318687 0,-53.033009 -75,-53.033009 -75,0 z"/>
<path d="m 474.67578,603.82701 c 4.71867,4.76313 9.25976,9.78141 12.809,15.49906 2.59243,4.17627 3.10703,5.70822 5.13582,10.19304 0.65481,1.7363 1.30962,3.4726 1.96442,5.20889 19.55074,49.29776 89.26829,21.64884 69.71756,-27.64892 v 0 c -1.36607,-3.35939 -2.73214,-6.71878 -4.0982,-10.07817 -1.79775,-3.63153 -3.44257,-7.34286 -5.39325,-10.89459 -7.19931,-13.10823 -16.57791,-24.85113 -27.16164,-35.37156 -37.54189,-37.45806 -90.5156,15.63418 -52.97371,53.09225 z"/>
<path d="m 179.16238,737.30727 c 19.03083,-3.44453 37.61487,-8.90792 56.50733,-12.98386 7.14712,-1.54195 14.338,-2.8736 21.507,-4.31041 52.74727,-9.57214 106.3135,-13.71581 159.80751,-16.24618 13.03064,-0.61637 26.07054,-1.0184 39.10581,-1.5276 65.50817,-1.68401 131.10541,-2.17744 196.58922,0.73633 11.15475,0.49635 22.29761,1.23128 33.44641,1.84692 26.15994,1.80012 52.32281,3.9114 78.30095,7.55486 13.244,1.85749 17.68162,2.83891 30.07302,5.20111 52.1076,9.86398 66.05738,-63.8273 13.94978,-73.69128 v 0 c -14.5298,-2.73397 -19.27796,-3.78518 -34.76425,-5.93616 -27.68724,-3.84564 -55.56356,-6.11975 -83.44189,-8.01542 -11.66043,-0.63851 -23.31478,-1.40022 -34.98131,-1.91554 -67.32341,-2.97376 -134.76232,-2.48075 -202.10973,-0.72326 -13.4576,0.52933 -26.92008,0.94634 -40.3728,1.588 -57.05278,2.7213 -114.16947,7.2692 -170.40397,17.60324 -7.94177,1.60513 -15.90613,3.10225 -23.82531,4.81539 -17.52383,3.7909 -34.76931,8.80892 -52.3938,12.14018 -52.22951,9.19666 -39.22348,83.06034 13.00603,73.86368 z"/>
<path d="m 444.11532,661.11184 c -2.59933,0.9697 -5.25343,1.80366 -7.79801,2.9091 -3.43407,1.49185 -6.77301,3.19551 -10.11946,4.87472 -10.75837,5.3984 -17.3504,9.05039 -28.14654,15.41829 -10.32154,6.08798 -34.26734,20.91402 -43.65293,26.69511 -59.1092,37.25179 -116.31109,77.46995 -172.64865,118.76623 -21.0679,15.99746 -42.29891,31.77176 -63.68131,47.34494 -42.864837,31.22669 1.29637,91.84672 44.1612,60.62003 v 0 c 21.44169,-15.62369 42.74703,-31.42834 63.86952,-47.48249 54.69935,-40.12283 110.25832,-79.17257 167.63473,-115.3917 18.21222,-11.21933 36.2721,-22.86333 55.02363,-33.18308 3.51288,-1.93329 7.11468,-3.70042 10.67166,-5.55133 4.9624,-2.58224 3.43027,-1.31285 5.24785,-2.89342 51.00106,-14.53931 30.43938,-86.66571 -20.56169,-72.1264 z"/>
<path d="m 281.82316,791.23083 c 1.03973,23.63357 1.44774,47.2827 1.6907,70.93562 0.26818,25.99634 -0.43749,51.9856 -1.18141,77.96804 0.0964,6.11524 -0.85779,12.37368 0.0605,18.47313 2.19323,14.56722 7.09365,28.95919 25.32452,34.5073 12.09262,3.68009 24.99879,-3.76279 37.49818,-5.64418 14.61799,-11.8723 27.89142,-25.2578 42.64071,-36.98635 5.34936,-4.25379 10.89382,-8.25627 16.34074,-12.3844 42.19562,-32.12521 -3.23628,-91.79884 -45.43191,-59.67363 v 0 c -6.40207,4.89297 -12.91274,9.64702 -19.20621,14.67891 -10.31136,8.24434 -17.34461,14.69715 -26.9084,23.31965 -2.63515,2.37579 -5.31444,4.70444 -7.88536,7.1496 -0.50112,0.47661 -0.87819,1.0686 -1.31729,1.6029 10.60105,-0.60856 21.96419,-5.81907 31.80316,-1.82567 9.65445,3.91851 14.74802,14.83074 20.92056,23.22495 1.32299,1.79917 0.72804,4.40739 1.02591,6.62066 0.007,0.0526 -0.14292,-0.0149 -0.14403,-0.068 -0.0443,-2.12845 0.21012,-9.55264 0.24817,-10.84866 0.77156,-26.95556 1.48932,-53.91837 1.20813,-80.88823 -0.25183,-24.28927 -0.6711,-48.5749 -1.73471,-72.84445 -1.89705,-52.99907 -76.84906,-50.31623 -74.952,2.68284 z"/>
<path d="m 607.14481,740.81402 c -12.83399,4.27961 -24.32382,11.63624 -36.15776,18.02742 -5.15633,2.7848 -23.58932,12.46732 -28.10335,14.84329 -20.48678,10.89188 -41.14493,21.4545 -61.89768,31.82872 -47.43401,23.7174 -13.89255,90.79922 33.54146,67.08182 v 0 c 21.21746,-10.61118 42.34262,-21.40623 63.28995,-32.54312 6.33547,-3.3349 22.80881,-11.98221 29.38864,-15.53588 3.71386,-2.0058 7.39689,-4.06821 11.08827,-6.11509 3.19579,-1.77208 6.29324,-3.73308 9.58229,-5.32541 0.63332,-0.30661 1.30829,-0.51846 1.96244,-0.77769 50.54686,-16.04726 27.85261,-87.53132 -22.69426,-71.48406 z"/>
<path d="m 427.13526,842.26675 c 1.9558,1.50932 3.86409,3.08232 5.86742,4.52798 2.9472,2.1268 10.9806,7.26416 13.65155,8.94887 12.16442,7.67279 24.52164,14.9784 36.95365,22.20715 32.31848,18.50398 65.71325,35.00531 99.47589,50.68092 17.14116,7.70194 34.21833,15.60029 51.75768,22.37194 9.20715,3.55472 10.90439,4.00924 20.03725,7.05887 19.72269,6.55929 40.36253,8.89067 60.94547,10.80958 43.79284,3.46677 87.60337,6.69298 131.44883,9.41747 52.93106,3.28675 57.57923,-71.56907 4.64817,-74.85583 v 0 c -43.09644,-2.67415 -86.15729,-5.8547 -129.20316,-9.24413 -14.89439,-1.35881 -29.89898,-2.69908 -44.21898,-7.31051 -21.89645,-7.20579 -42.9059,-16.69105 -63.84657,-26.27986 -31.68726,-14.69471 -63.02932,-30.16443 -93.37045,-47.49951 -13.53515,-7.85519 -12.20248,-6.96824 -24.93545,-14.77126 -6.05744,-3.71212 -9.9877,-6.18251 -15.73707,-9.89929 -1.21475,-0.78529 -2.36082,-1.6825 -3.62528,-2.38492 -0.25086,-0.13935 0.35972,0.44719 0.53958,0.67078 -39.28102,-35.63007 -89.66955,19.92168 -50.38853,55.55175 z"/>
</svg>
