<?xml version="1.0" ?>
<svg xmlns="http://www.w3.org/2000/svg" viewBox="0 0 1000 1000">
<path d="m 270.00013,115.33801 c 18.91423,-4.28812 -15.12525,3.44762 13.98532,-3.2661 13.06195,-3.01246 19.77419,-4.55432 33.73132,-6.97154 24.03718,-4.16296 34.22403,-5.223725 59.47852,-8.567875 54.44089,-6.33095 109.09298,-11.25833 163.89987,-12.80038 35.05929,-0.98643 44.0411,-0.45214 78.36546,0.15287 42.30675,2.0809 21.89144,0.5861 61.25946,4.29568 52.80542,4.90787 59.74621,-69.77027 6.94079,-74.678149 v 0 c -43.4508,-3.9883757 -21.15,-2.405576 -66.91232,-4.6064717 -36.43309,-0.610222 -45.73483,-1.164111 -82.9207,-0.09273 -57.01594,1.6427217 -113.87347,6.7590527 -170.50634,13.3819587 -11.67575,1.554897 -23.37091,2.970369 -35.02723,4.664691 -25.88434,3.762455 -51.60092,8.555802 -76.97135,14.938192 -52.0076,10.37835 -37.33039,83.928204 14.6772,73.549854 z"/>
<path d="m 179.08973,202.42988 c 0.3916,2.06534 0.73484,4.14044 1.17482,6.19603 2.85004,13.31528 6.40727,26.48682 9.90473,39.64095 11.67099,43.8952 -1.56502,-6.38386 10.41711,39.26638 7.92526,30.81798 15.14132,61.81153 22.58601,92.74757 12.40817,51.56101 85.32644,34.01321 72.91828,-17.5478 v 0 c -7.56505,-31.43555 -14.8979,-62.92956 -22.96206,-94.24247 -6.70363,-25.53448 -13.88318,-50.9574 -19.79605,-76.69079 -7.51663,-52.49762 -81.75948,-41.86749 -74.24284,10.63013 z"/>
<path d="m 343.05026,240.68068 c 1.24198,-0.53883 2.46045,-1.13546 3.72593,-1.6165 6.15251,-2.33874 13.99799,-4.74334 20.02433,-6.37592 21.93151,-5.94144 44.18938,-9.71139 66.56286,-13.5367 49.7063,-7.67894 99.84711,-13.30745 150.15257,-14.80139 8.69348,-0.25817 17.39322,-0.2213 26.08983,-0.33195 30.69813,0.0579 61.45035,1.6965 91.72447,6.9428 4.1278,0.90957 8.31096,1.66593 12.37961,2.83306 4.3452,1.24646 -8.63324,-3.31249 -11.98524,-6.3454 -3.92891,-3.55491 -6.22032,-8.57918 -9.33048,-12.86876 -0.30901,-0.22518 -0.86167,-1.05227 -0.92703,-0.67555 -0.43715,2.51958 -0.11786,5.11465 -0.28589,7.66634 -0.27401,4.16133 -0.5942,8.32127 -1.0399,12.46772 -1.07015,9.95579 -3.08869,24.51714 -5.04398,34.14121 -1.24155,6.11095 -2.90213,12.12922 -4.3532,18.19383 -7.59926,24.02523 -3.54733,12.25372 -12.11501,35.32853 -18.32467,49.76651 52.05581,75.68152 70.38049,25.91501 v 0 c 10.3858,-28.40218 5.42891,-13.7098 14.75282,-44.11673 1.77759,-7.70042 3.79206,-15.34998 5.33278,-23.10127 2.24084,-11.27352 4.6707,-28.9463 5.82131,-40.5582 0.83273,-8.40386 1.90663,-23.11224 1.31471,-31.87992 -0.34453,-5.10325 -1.38792,-10.13514 -2.08188,-15.20271 -3.8851,-6.83778 -6.39327,-14.66868 -11.65531,-20.51335 -9.69117,-10.76422 -25.42992,-12.29623 -38.52993,-15.21205 -34.8487,-5.89095 -70.03101,-8.09089 -105.36902,-8.00775 -9.50574,0.13466 -19.01505,0.11056 -28.51721,0.40398 -53.40775,1.64923 -106.64178,7.59752 -159.40942,15.80476 -37.17625,6.41095 -75.13011,12.50005 -109.91852,27.75873 -47.86277,22.83977 -15.56246,90.52795 32.30031,67.68818 z"/>
<path d="m 368.75865,109.67462 c 1.45922,26.85084 3.87766,53.64929 6.19995,80.4385 3.47781,37.70553 5.99134,75.48571 7.82962,113.30381 2.57759,52.97033 77.48895,49.32507 74.91136,-3.64526 v 0 c -1.88821,-38.76315 -4.46011,-77.48808 -8.02125,-116.13637 -2.13646,-24.64125 -4.21655,-49.2852 -5.91968,-73.96068 0,-53.033014 -75,-53.033014 -75,0 z"/>
<path d="m 508.3273,71.769936 c 0,27.357239 0,54.714484 0,82.071734 -0.17989,34.29111 0.75613,68.76415 -3.87445,102.84299 -1.1478,8.44721 -2.88368,16.80404 -4.32553,25.20605 -8.78712,52.29997 65.1762,64.72684 73.96332,12.42687 v 0 c 1.66884,-10.11237 3.67899,-20.1743 5.00651,-30.33711 4.77011,-36.51778 4.15556,-73.40304 4.23015,-110.1388 0,-27.35725 0,-54.714495 0,-82.071734 0,-53.033013 -75,-53.033013 -75,0 z"/>
<path d="m 295.38697,374.74015 c 7.54161,-1.06251 7.66924,-1.04014 16.65492,-2.55807 17.41089,-2.94117 16.98817,-3.12963 36.13531,-6.13646 25.89055,-4.0658 28.49756,-4.20645 55.73352,-7.74172 60.95267,-7.21252 122.20965,-12.31491 183.5835,-13.91716 11.53228,-0.30107 23.07072,-0.28122 34.60608,-0.42183 19.93896,0.42636 37.42118,0.21461 57.12488,2.71267 7.33271,0.92965 14.53622,2.68884 21.80433,4.03326 52.22598,9.21667 65.26032,-64.64202 13.03434,-73.85869 v 0 c -9.71506,-1.65272 -19.36218,-3.7722 -29.1452,-4.95816 -22.18893,-2.68987 -41.36565,-2.47321 -63.76139,-2.92315 -12.20194,0.15789 -24.40715,0.15006 -36.60582,0.47365 -63.62383,1.68776 -127.12644,6.98607 -190.31206,14.48559 -10.50465,1.36835 -21.02189,2.64325 -31.51394,4.10506 -25.83258,3.59913 -51.46012,8.3865 -77.22891,12.36 -52.56986,6.9936 -42.67942,81.3386 9.89044,74.34501 z"/>
<path d="m 345.26107,343.907 c -9.9327,19.36394 -21.1706,38.04962 -33.43368,56.02549 -4.74454,6.95481 -9.69824,13.76461 -14.54735,20.64691 -16.46998,22.84053 -33.80345,45.0717 -51.81394,66.71794 -5.59779,6.72781 -11.21016,13.44889 -17.06383,19.95529 -5.41235,6.01586 -11.14841,11.73241 -16.72261,17.59861 -36.45397,38.51764 18.01819,90.07134 54.47216,51.5537 v 0 c 6.42505,-6.81233 13.02134,-13.46712 19.27515,-20.43698 6.27475,-6.99321 12.29339,-14.21366 18.29896,-21.43935 19.08999,-22.96838 37.44776,-46.56599 54.90013,-70.80219 5.31819,-7.57348 10.75935,-15.06209 15.95457,-22.72045 10.3548,-15.26417 15.48275,-23.59169 24.47618,-39.14977 4.35491,-7.53373 10.29409,-18.15806 14.06686,-26.30659 1.3211,-2.85335 2.36952,-5.82521 3.55427,-8.73782 16.19614,-50.49936 -55.22074,-73.40415 -71.41687,-22.90479 z"/>
<path d="m 368.0206,488.87382 c 0.0838,-0.29834 0.43819,-1.14233 0.25149,-0.895 -0.89378,1.18396 -1.58697,2.50698 -2.40339,3.74556 -1.75504,2.66254 -3.48847,5.34036 -5.31071,7.95736 -2.70882,3.89027 -5.43501,7.77059 -8.28069,11.5619 -10.57564,14.08996 -15.35667,19.50361 -27.05536,33.6682 -34.93655,41.18204 -73.74323,78.98036 -114.28683,114.60552 -8.16392,7.17354 -16.5139,14.13251 -24.77084,21.19877 -29.51389,23.62859 -14.82828,12.66242 -43.92749,33.07099 -43.335321,30.57042 -0.10222,91.85581 43.2331,61.28539 v 0 c 33.41216,-23.68674 16.90383,-11.24206 49.48085,-37.39252 8.7368,-7.48798 17.57194,-14.86271 26.21041,-22.46392 43.28593,-38.08839 84.65583,-78.54737 121.92332,-122.58705 5.54952,-6.73871 11.19651,-13.39832 16.64857,-20.21612 9.15187,-11.44444 15.18003,-19.49231 23.27863,-31.20358 2.68235,-3.87892 8.43006,-12.59102 11.02986,-17.18357 1.15218,-2.03532 2.12463,-4.16726 3.18695,-6.25089 20.43612,-48.93736 -48.77175,-77.8384 -69.20787,-28.90104 z"/>
<path d="m 285.19085,621.44856 c 1.01386,24.27943 0.79048,48.59698 0.44251,72.88856 -1.27096,51.58222 -6.64855,102.94206 -11.47557,154.28011 -2.51457,25.64113 -4.50864,51.37786 -8.80205,76.8047 -0.67183,3.97878 -1.49997,7.92958 -2.24995,11.89438 -9.76017,52.12714 63.95874,65.93009 73.71891,13.80297 v 0 c 0.89454,-4.81827 1.87814,-9.62085 2.68362,-14.45481 4.47147,-26.83479 6.71622,-53.96742 9.32014,-81.02648 5.01335,-53.32122 10.55636,-106.6683 11.79749,-160.24638 0.36503,-26.42701 0.6293,-52.88984 -0.62655,-79.29847 -3.78685,-52.89763 -78.5954,-47.54222 -74.80855,5.35542 z"/>
<path d="m 462.80432,352.26191 c -1.72762,9.50608 -5.93614,18.45627 -9.71971,27.27378 -2.74637,6.40037 -8.03561,18.31464 -10.86753,24.71874 -3.74556,8.97126 -8.257,17.60955 -12.12452,26.52453 -1.03927,2.39562 -2.52923,4.68361 -2.93586,7.2631 -1.16473,7.38867 -5.9481,16.19142 -1.73583,22.3725 9.45365,13.87225 25.88947,21.37704 38.83421,32.06557 6.53449,-0.88998 13.12,-1.46319 19.60347,-2.66994 4.87915,-0.90815 9.61341,-2.4715 14.43076,-3.66478 5.54116,-1.37258 11.08122,-2.75189 16.64431,-4.03266 14.34742,-3.30317 24.69234,-5.47032 39.35428,-7.90541 7.42379,-1.23297 14.88584,-2.22327 22.32877,-3.33491 41.44646,-5.89244 83.27227,-8.25697 125.10639,-8.18848 15.70125,0.49622 8.30698,0.17007 22.18539,0.91807 52.95892,2.80226 56.92191,-72.09296 3.96299,-74.89522 v 0 c -16.30404,-0.84906 -7.61127,-0.48356 -26.08129,-1.02282 -5.83949,-0.001 -11.67948,-0.0803 -17.51847,-0.004 -39.74133,0.51885 -79.43305,3.61018 -118.80437,9.02585 -8.27798,1.25166 -16.5776,2.36768 -24.83393,3.75499 -16.08758,2.70319 -27.66405,5.13968 -43.37241,8.76385 -5.8645,1.35303 -11.70593,2.80483 -17.54658,4.25736 -3.95945,0.98469 -8.10543,1.44091 -11.85302,3.05412 -0.72528,0.31221 1.37739,0.77255 2.06608,1.15883 9.87643,10.45579 22.56476,18.83902 29.62929,31.36738 2.7367,4.85332 -2.03358,10.96707 -2.6341,16.50634 -0.12257,1.13059 0.73621,-2.1547 1.19122,-3.19693 4.07323,-9.33 8.75466,-18.39702 12.6969,-27.78734 2.6154,-5.91542 9.14801,-20.63312 11.55359,-26.32035 6.96443,-16.46518 13.79746,-33.31058 15.29327,-51.31335 3.31546,-52.92927 -71.53783,-57.61805 -74.8533,-4.68878 z"/>
<path d="m 461.58797,520.18637 c 0.2966,29.09988 2.10376,58.15019 4.37984,87.15276 2.38201,27.94089 5.76093,55.77923 9.10807,83.61631 6.33122,52.65373 80.79485,43.70003 74.46363,-8.9537 v 0 c -3.22482,-26.81882 -6.49154,-53.63743 -8.80351,-80.55473 -2.14052,-27.04181 -3.82431,-54.12774 -4.14803,-81.26064 0,-53.033 -75,-53.033 -75,0 z"/>
<path d="m 558.79261,572.22461 c 17.65647,-7.43582 36.61133,-10.95631 55.37944,-14.2721 19.96802,-3.20902 40.22479,-4.94876 60.41887,-3.34681 2.99774,0.78716 6.76011,0.32117 9.61417,1.84835 0.15566,0.0833 -0.35559,-0.0338 -0.52091,-0.0957 -1.06764,-0.40003 -2.1127,-0.85791 -3.16905,-1.28686 -15.5277,-12.31992 -7.58778,-3.77176 -16.85799,-18.9598 -0.10717,-0.17559 -0.54998,-0.44142 -0.56996,-0.23668 -0.21135,2.16552 0.0123,4.3522 -0.044,6.52728 -0.30679,11.85808 -0.56309,13.54493 -1.40757,26.37155 -1.90732,24.63391 -5.47454,49.11973 -10.41582,73.32385 -2.40335,11.77241 -5.12204,23.03403 -7.85672,34.72327 -1.18333,4.8744 -2.36666,9.7488 -3.54999,14.6232 -12.50649,51.53724 60.37818,69.2241 72.88468,17.68685 v 0 c 1.2325,-5.08084 2.465,-10.16169 3.6975,-15.24253 3.08069,-13.19557 5.82314,-24.52983 8.52301,-37.87916 5.50175,-27.20301 9.45799,-54.7194 11.56117,-82.39797 0.76509,-12.03128 1.47421,-20.21055 1.55883,-32.06736 0.10227,-14.33014 -0.41526,-29.14367 -9.41139,-41.32448 -3.47302,-4.70249 -8.80806,-7.6889 -13.21208,-11.53335 -2.00163,-0.9259 -3.96603,-1.93693 -6.00488,-2.77769 -9.31416,-3.84089 -19.58779,-4.92076 -29.48081,-6.11253 -3.27567,-0.2177 -6.54674,-0.5214 -9.82699,-0.65311 -23.13256,-0.92884 -46.27897,1.36419 -69.1035,4.97569 -25.13255,4.52089 -50.41262,9.65673 -73.86421,20.11523 -48.07681,22.38571 -16.41863,90.37659 31.65818,67.99088 z"/>
<path d="m 541.77168,663.84051 c 19.20067,-4.7502 38.64335,-8.34686 58.14851,-11.57562 18.19414,-2.64225 9.37948,-1.42706 26.44071,-3.66925 52.5789,-6.92524 42.78515,-81.28304 -9.79376,-74.3578 v 0 c -18.579,2.45205 -8.93015,1.11509 -28.94224,4.04174 -20.63246,3.44091 -41.21988,7.18647 -61.53414,12.21853 -51.86092,11.08808 -36.17999,84.43049 15.68092,73.3424 z"/>
<path d="m 528.37097,751.55008 c 13.84718,-3.96728 27.99662,-6.91472 42.24526,-9.01483 5.66734,-0.83531 11.3626,-1.46871 17.0439,-2.20306 17.98802,-1.93379 36.07156,-3.07498 54.16834,-3.04394 4.93198,0.008 9.86087,0.24784 14.7913,0.37176 53.0192,1.21033 54.73085,-73.77014 1.71166,-74.98046 v 0 c -5.99656,-0.12552 -11.99181,-0.38455 -17.98967,-0.37657 -20.85579,0.0278 -41.69505,1.37249 -62.41947,3.66406 -6.64554,0.8798 -13.30835,1.63773 -19.93662,2.6394 -17.52734,2.64875 -34.92839,6.35009 -51.93969,11.34339 -50.62902,15.78615 -28.30403,87.3864 22.32499,71.60025 z"/>
<path d="m 544.72322,713.45296 c -3.84886,4.84185 -2.47992,3.03049 -7.67613,10.3133 -9.33165,13.07891 -5.48855,8.06672 -16.23413,22.66684 -12.57883,17.09098 -13.03879,17.46353 -26.65004,35.09188 -18.8114,24.55244 -39.08462,47.90229 -59.71213,70.92725 -35.37579,39.51017 20.50004,89.53908 55.87582,50.02891 v 0 c 21.83111,-24.39573 43.28783,-49.13457 63.2108,-75.134 14.2379,-18.45738 14.87354,-19.04788 28.01631,-36.91903 3.30345,-4.49194 6.56316,-9.01603 9.81,-13.54906 3.28799,-4.59048 6.39358,-9.31194 9.75748,-13.84708 0.80624,-1.08695 1.68384,-2.1191 2.52576,-3.17865 32.81001,-41.66538 -26.11373,-88.06573 -58.92374,-46.40036 z"/>
<path d="m 579.40257,824.18134 c 14.4949,1.82661 29.03816,3.23496 43.56881,4.73974 6.20497,0.68064 12.4141,1.40487 18.5327,2.66654 2.07316,0.42748 4.22064,0.87582 6.18833,1.68935 -6.41574,-1.75529 -13.85851,-8.77396 -16.36363,-13.54718 -3.25494,-6.20191 -4.01539,-13.45566 -5.19965,-20.35898 -0.33904,-1.97639 2.45784,-5.04616 0.68173,-5.97702 -1.66667,-0.87351 -2.10505,3.11961 -3.15758,4.67942 -16.98596,23.21898 -38.08034,43.17037 -60.22023,61.41289 -5.83213,4.80547 -11.84901,9.38225 -17.77351,14.07337 -20.51044,15.09779 -41.76383,29.49136 -64.7036,40.68502 -3.67392,1.79272 -7.46568,3.33314 -11.19851,4.99971 -48.30845,21.88136 -17.36353,90.1998 30.94491,68.31848 v 0 c 5.0672,-2.3194 10.20949,-4.4814 15.2016,-6.95828 27.03891,-13.41576 52.23223,-30.3041 76.39275,-48.30843 6.70097,-5.33358 13.51237,-10.53127 20.10289,-16.00073 28.01006,-23.24551 54.4673,-48.90677 75.17466,-78.99053 4.68494,-7.93586 12.76014,-19.74134 13.05064,-29.25153 0.26996,-8.83786 -0.98632,-18.03448 -4.52623,-26.13694 -4.6177,-10.5694 -14.93763,-15.97171 -24.77575,-19.81932 -13.19244,-4.20761 -26.85155,-6.46647 -40.62618,-7.7769 -14.01115,-1.45088 -28.03504,-2.80414 -42.0121,-4.56208 -52.62529,-6.56341 -61.90735,67.86 -9.28205,74.4234 z"/>
<path d="m 513.88985,873.02672 c 16.01088,14.2138 32.29395,28.10158 48.8515,41.67372 18.75808,14.66987 37.97137,29.04752 58.76207,40.76102 3.42734,1.93098 6.95609,3.67617 10.43413,5.51425 13.84144,6.84779 28.56951,11.43287 43.77652,14.01165 9.45983,1.60418 15.30673,1.98976 24.91317,2.91812 36.64872,3.16031 73.30872,-0.72035 109.68263,-5.02549 52.6627,-6.2562 43.8151,-80.7325 -8.8476,-74.4763 v 0 c -31.0957,3.70897 -62.43554,7.32664 -93.78727,4.83366 -14.02168,-1.2826 -28.17614,-2.42129 -41.01673,-8.74075 -2.27065,-1.16435 -4.58102,-2.25429 -6.81195,-3.49304 -17.58908,-9.76658 -33.71272,-22.03042 -49.57515,-34.31964 -15.74467,-12.89114 -31.21219,-26.1007 -46.43395,-39.60593 -39.56173,-35.31812 -89.5091,20.63061 -49.94737,55.94873 z"/>
</svg>
