<?xml version="1.0" ?>
<svg xmlns="http://www.w3.org/2000/svg" viewBox="0 0 1000 1000">
<path d="m 238.31825,192.5456 c 10.32184,8.18022 20.21546,16.8699 29.92311,25.7648 6.91933,6.89138 3.55926,3.42862 10.08842,10.3803 36.42555,38.54451 90.93571,-12.96901 54.51016,-51.51351 v 0 c -8.98849,-9.46841 -4.33679,-4.72902 -13.97195,-14.20163 -10.45397,-9.55226 -21.06097,-18.94353 -32.1672,-27.73728 -40.5224,-34.21163 -88.90494,23.0957 -48.38254,57.30732 z"/>
<path d="m 148.16219,326.70346 c 16.94941,-5.38321 33.89451,-10.83046 51.09486,-15.37256 5.59185,-1.47664 11.22255,-2.80196 16.83383,-4.20295 36.16251,-8.61301 72.9176,-14.35007 109.77895,-18.95325 19.14013,-2.08524 38.40007,-4.06851 57.6785,-3.40447 1.24527,0.0767 2.49053,0.15349 3.73579,0.23024 52.94518,3.05084 57.25972,-71.82495 4.31454,-74.87579 v 0 c -1.95067,-0.10741 -3.90133,-0.21482 -5.852,-0.32223 -23.13198,-0.60263 -46.23193,1.23567 -69.19528,3.95339 -39.85795,5.00336 -79.59873,11.24063 -118.68916,20.62106 -6.2838,1.57947 -12.58864,3.07751 -18.85141,4.73842 -18.34894,4.86622 -36.43615,10.66105 -54.51795,16.42099 -50.322773,16.73675 -26.653441,87.9039 23.66933,71.16715 z"/>
<path d="m 179.04409,299.71954 c 0.11588,13.33542 0.26442,26.69485 1.24351,40.00109 0.32757,4.45188 0.80424,8.89154 1.20635,13.33731 2.68172,21.31474 6.63876,42.68213 13.99738,62.93491 1.28177,3.52774 2.79977,6.96512 4.19965,10.44767 1.40176,2.94323 2.80352,5.88645 4.20528,8.82968 23.15283,47.71212 90.62796,14.96908 67.47513,-32.74304 v 0 c -0.77119,-1.53468 -1.54238,-3.06935 -2.31357,-4.60403 -0.80233,-1.8742 -1.68361,-3.71655 -2.407,-5.62262 -5.6101,-14.78204 -8.30929,-30.54429 -10.47416,-46.13416 -1.46051,-15.44368 -2.21565,-30.92937 -2.13257,-46.44681 0,-53.03301 -75,-53.03301 -75,0 z"/>
<path d="m 310.25333,284.75793 c 3.67805,13.1775 2.34113,26.96514 1.29856,40.3973 -0.66452,4.60152 -1.14513,9.23338 -1.99355,13.80457 -1.95082,10.51067 -4.66933,20.62931 -8.08967,30.7604 -3.5073,10.38863 -7.94686,21.67324 -13.32018,31.27281 -2.7018,4.82685 -6.0068,9.29039 -9.0102,13.93559 -28.08405,44.98651 35.53649,84.70335 63.62054,39.71684 v 0 c 4.42087,-7.24741 9.244,-14.26428 13.26262,-21.74222 6.83437,-12.71754 12.92612,-28.31729 17.4078,-42.04834 4.54884,-13.93683 7.90824,-27.18671 10.42147,-41.61687 1.08284,-6.21733 1.67495,-12.51022 2.51243,-18.76534 0.37734,-5.68191 0.9389,-11.35459 1.132,-17.04574 0.62554,-18.43599 -0.90684,-37.1041 -6.88496,-54.64808 -18.36999,-49.74981 -88.72684,-23.77073 -70.35686,25.97908 z"/>
<path d="m 138.55238,503.99153 c 22.43651,-1.71553 44.50761,-6.62758 66.48211,-11.26677 22.53193,-4.82986 45.0628,-9.70213 67.81526,-13.40043 15.15484,-2.46335 17.50805,-2.60379 32.69467,-4.47063 25.9765,-3.19286 52.14017,-3.57426 78.27088,-3.36413 8.0761,0.12118 8.00138,0.10601 15.50652,0.26653 2.46274,0.0527 6.07766,-0.16065 8.67159,0.47676 52.6133,6.65885 62.03033,-67.7476 9.41703,-74.40644 v 0 c -10.964,-1.23394 -21.98459,-1.18786 -33.00793,-1.33455 -29.405,-0.22445 -58.84351,0.32212 -88.06976,3.92968 -6.09162,0.75841 -12.19384,1.43608 -18.27487,2.27524 -29.76667,4.10768 -59.1797,10.30217 -88.53308,16.64916 -17.8672,3.78124 -35.78343,7.76472 -53.96331,9.70524 -52.990818,2.11487 -49.999935,77.05521 2.99089,74.94034 z"/>
<path d="m 190.51588,627.46559 c 18.50823,-6.18878 37.21675,-11.70057 56.02538,-16.89355 27.83677,-7.33812 56.147,-12.96641 84.71441,-16.56662 4.92532,-0.62072 9.86943,-1.08191 14.80415,-1.62287 16.50744,-1.55005 33.12969,-2.28959 49.67797,-1.0139 1.02219,0.1037 2.04438,0.20741 3.06657,0.31112 52.7824,5.14957 60.06499,-69.49602 7.28259,-74.64559 v 0 c -1.64925,-0.15693 -3.29851,-0.31385 -4.94776,-0.47078 -21.10856,-1.4598 -42.28745,-0.87008 -63.33851,1.2753 -5.68743,0.63593 -11.38547,1.18326 -17.06229,1.9078 -31.76191,4.05382 -63.23574,10.34423 -94.18328,18.53755 -19.58757,5.42251 -39.08699,11.12949 -58.36407,17.58125 -50.62905,15.78605 -28.30421,87.38634 22.32484,71.60029 z"/>
<path d="m 269.23839,478.76467 c 2.44935,9.39209 3.30584,19.11513 4.25315,28.74498 2.04723,26.62285 2.55979,53.33796 2.82949,80.02872 0.16968,32.53426 -0.31177,65.06805 -0.75845,97.59845 -0.28238,30.95195 -0.007,61.90458 -0.79497,92.84988 -0.52142,19.92882 -1.8648,39.82183 -3.86665,59.65359 -0.58205,4.86224 -0.93573,9.75278 -1.61802,14.60344 -0.35333,2.51196 -0.31988,2.20894 -0.28642,1.26499 -12.07504,51.64003 60.95501,68.71672 73.03004,17.07668 v 0 c 1.7877,-8.39559 2.69994,-16.90343 3.49862,-25.44672 2.17143,-21.69738 3.65874,-43.45863 4.21859,-65.26117 0.7801,-31.23276 0.5584,-62.4715 0.81174,-93.71098 0.4549,-33.13037 0.94271,-66.26425 0.76157,-99.39853 -0.30178,-28.93156 -0.86886,-57.89193 -3.19989,-86.74252 -1.54216,-15.1456 -3.14586,-30.44004 -7.74356,-45.02586 -16.80443,-50.30021 -87.93967,-26.53516 -71.13524,23.76505 z"/>
<path d="m 270.78352,585.20411 c -7.53468,8.69166 -14.06668,18.18856 -20.92736,27.40464 -9.35214,12.56291 -8.88197,11.79562 -19.05011,24.81082 -21.99494,27.49124 -45.58034,53.69402 -70.36812,78.69158 -5.48862,5.53507 -11.10274,10.94425 -16.65412,16.41638 -21.71804,20.34871 -10.77642,10.44551 -32.80834,29.7278 -39.873762,34.96546 9.57486,91.35548 49.44862,56.39002 v 0 c 24.35685,-21.39592 12.34521,-10.48779 36.03253,-32.72703 5.95373,-5.87827 11.97405,-11.68986 17.86121,-17.6348 26.64363,-26.90514 51.976,-55.12135 75.60665,-84.7119 12.31952,-15.79153 24.23262,-31.8748 36.29835,-47.85529 35.71753,-39.20151 -19.72178,-89.71372 -55.43931,-50.51222 z"/>
<path d="m 336.61287,641.32329 c 7.45219,9.17923 14.41669,18.78235 21.5251,28.23607 10.47224,13.76374 19.71489,28.38815 28.59778,43.20834 3.3577,5.55779 1.86683,3.02641 4.50212,7.57667 26.64987,45.85068 91.49252,8.16207 64.84265,-37.68861 v 0 c -3.2482,-5.57386 -1.57441,-2.7517 -5.02592,-8.46377 -10.23492,-17.05543 -20.9293,-33.85417 -32.97189,-49.70622 -9.22926,-12.27425 -18.07396,-24.95202 -28.49611,-36.2547 -37.54186,-37.45809 -90.5156,15.63413 -52.97373,53.09222 z"/>
<path d="m 463.74221,293.24724 c 0.89286,15.92608 2.15105,31.82714 2.98163,47.76215 1.73158,38.51856 2.37512,77.07542 3.58012,115.61276 0.94864,37.90342 3.0874,75.75575 6.26113,113.53429 1.56031,17.84686 3.66094,35.64181 4.94717,53.51224 3.83057,52.89449 78.63467,47.47725 74.8041,-5.41724 v 0 c -1.32212,-18.16087 -3.38302,-36.25208 -5.01558,-54.38595 -3.07591,-36.46466 -5.1177,-73.00269 -6.0335,-109.58862 -1.22274,-39.06123 -1.86651,-78.14269 -3.64578,-117.18408 -0.76736,-14.62964 -1.65119,-29.2468 -2.87929,-43.84555 0,-53.03301 -75,-53.03301 -75,0 z"/>
<path d="m 560.17589,234.75748 c 15.69401,-3.7844 30.22107,-11.1218 44.68997,-18.07849 18.2197,-8.65921 36.40351,-17.51624 55.36132,-24.47975 3.31007,-1.21584 6.66754,-2.29853 10.00131,-3.4478 13.14755,-4.32066 26.68439,-7.29945 40.36492,-9.30384 1.4644,-0.20089 2.92717,-0.4141 4.3932,-0.60267 2.87463,-0.36977 5.75886,-0.67179 8.64932,-0.88577 1.95119,-0.14445 2.29978,-0.24101 1.47156,-0.0491 -8.01042,0.19785 -14.39311,-2.98034 -20.42648,-7.93145 -2.08563,-0.48579 -2.22547,-2.8958 -3.63552,-4.02887 -0.12667,-0.10179 0.0257,0.32801 0.0815,0.48066 0.32645,0.89399 0.71814,1.76289 1.06189,2.65037 2.08179,5.37469 1.57972,4.1257 3.58546,10.13311 6.11677,19.21372 8.29859,39.31485 10.24914,59.29003 2.44998,31.80295 2.14556,63.73303 2.12223,95.6058 -0.1966,34.77846 -0.34395,69.55295 -1.855,104.30258 -1.65702,32.17057 -5.21246,64.19773 -8.37058,96.24392 -2.3905,23.322 -4.02177,46.70819 -5.79789,70.0815 -0.24959,3.35728 -0.60012,8.85188 -1.04634,12.42677 -0.12365,0.99066 -0.19597,2.00284 -0.50493,2.95219 -0.12721,0.39089 -0.13372,-0.82854 -0.0549,-1.23198 0.20791,-1.06396 0.604,-2.08233 0.906,-3.1235 -24.89973,46.82418 41.31965,82.03771 66.21938,35.21354 v 0 c 1.50897,-3.31089 3.29064,-6.51059 4.52691,-9.93266 3.54864,-9.82284 3.91824,-20.33928 4.73843,-30.6237 1.73239,-22.81473 3.31865,-45.64242 5.6518,-68.40704 3.29276,-33.41637 6.98233,-66.81468 8.6623,-100.36388 1.53586,-35.81043 1.74757,-71.6441 1.92479,-107.48404 0.0241,-34.35365 0.30697,-68.77041 -2.4862,-103.03959 -2.56418,-25.65805 -5.73469,-51.40644 -13.86082,-76.00444 -4.71507,-13.75249 -9.42864,-27.89196 -19.60663,-38.69071 -1.52858,-1.35491 -2.97285,-2.81136 -4.58572,-4.06474 -8.11522,-6.30645 -18.0654,-9.3356 -28.27178,-9.44989 -8.32245,0.21306 -16.60117,1.1284 -24.8335,2.35836 -18.26906,2.77051 -36.35622,6.73875 -53.89289,12.63528 -4.21416,1.47387 -8.45656,2.86938 -12.64249,4.42162 -20.73168,7.68778 -40.69425,17.25298 -60.62823,26.77084 -5.59219,2.69513 -10.59599,5.15949 -16.21467,7.68903 -1.76281,0.79361 -3.53696,1.56301 -5.32623,2.29501 -1.92598,0.78794 -3.96301,1.30028 -5.85357,2.1698 -0.16881,0.0776 0.37035,-0.0309 0.55552,-0.0463 -52.00756,10.37852 -37.33012,83.92832 14.67745,73.5498 z"/>
<path d="m 544.70236,415.28341 c 14.92746,-3.62847 29.87139,-7.18033 44.86803,-10.52242 19.66173,-4.34288 39.56125,-7.43358 59.44506,-10.54308 2.76235,-0.41945 7.57704,-1.20465 10.61359,-1.50243 0.53882,-0.0528 1.10845,-0.20441 1.62377,-0.0384 0.38579,0.12432 -0.80235,0.11585 -1.20352,0.17378 52.98428,2.27296 56.19873,-72.65812 3.21446,-74.93109 v 0 c -2.33845,-0.0252 -4.67788,-0.14786 -7.01535,-0.0755 -6.32702,0.19574 -12.57333,1.38325 -18.82102,2.27426 -21.47159,3.3579 -42.95321,6.73476 -64.1812,11.44054 -14.78089,3.29821 -29.52337,6.75615 -44.22502,10.38199 -51.86087,11.08828 -36.17967,84.43063 15.6812,73.34234 z"/>
<path d="m 530.94679,541.70938 c 12.30431,-2.74723 24.36739,-6.44803 36.64937,-9.31621 14.68008,-3.0653 29.51759,-5.36408 44.43724,-6.86495 11.51706,-1.17568 23.09016,-1.57455 34.65064,-2.06499 5.65691,-0.2135 2.94401,-0.1167 8.13859,-0.29305 53.00234,-1.80319 50.45224,-76.75982 -2.5501,-74.95663 v 0 c -5.59519,0.19073 -2.67188,0.086 -8.76981,0.31718 -13.05217,0.55453 -26.116,1.04207 -39.11726,2.38845 -18.12357,1.88457 -36.16403,4.61101 -53.97857,8.47036 -10.65367,2.52468 -21.25544,5.25341 -31.76309,8.33581 -52.31461,8.69953 -40.01162,82.68356 12.30299,73.98403 z"/>
<path d="m 529.69549,657.5054 c 10.80505,-0.49986 21.44957,-2.75718 32.0652,-4.70589 14.53753,-2.66434 29.2413,-4.30156 43.96189,-5.53209 14.76328,-0.76648 29.55419,-1.26487 44.33856,-1.05924 7.6408,0.0413 15.20942,1.01922 22.73365,2.25207 4.25752,0.77566 8.53338,1.39452 12.84587,1.75033 0.72596,0.0348 1.45191,0.0696 2.17787,0.10445 52.99043,2.12452 55.99495,-72.81528 3.00452,-74.93979 v 0 c 0.0284,0.007 0.0568,0.0137 0.0852,0.0206 0.16285,0.0216 0.32663,0.0372 0.48856,0.0649 0.0434,0.007 -0.0882,8.8e-4 -0.13195,-0.004 -0.56093,-0.0608 -1.29394,-0.17659 -1.80712,-0.25822 -1.12034,-0.1782 -3.66499,-0.60578 -4.60822,-0.76322 -11.20114,-1.8156 -22.48713,-3.12356 -33.85038,-3.22131 -17.20687,-0.19614 -34.42369,0.30053 -51.60064,1.32048 -17.13904,1.4651 -34.2582,3.37423 -51.18374,6.49841 -5.27486,0.96898 -10.54673,1.94142 -15.83843,2.81454 -0.93823,0.1548 -1.87862,0.29652 -2.81621,0.45521 -0.28022,0.0474 -0.99473,-0.0733 -0.83687,0.16308 0.18018,0.26972 0.64819,0.0264 0.97228,0.0396 -53.03301,0 -53.03301,75 0,75 z"/>
<path d="m 540.51781,641.58907 c -3.93108,10.93279 -8.64719,21.54586 -13.45588,32.11463 -10.48055,22.37832 -23.83536,43.23202 -37.57563,63.71166 -11.29195,16.40235 -23.51981,32.1867 -37.35518,46.53461 -8.04837,8.34653 -10.42038,10.22077 -18.84184,17.79325 -2.71356,2.20338 -5.42711,4.40676 -8.14066,6.61014 -41.0243,33.60813 6.50478,91.62525 47.52908,58.01712 v 0 c 3.64727,-3.00756 7.29454,-6.01513 10.94181,-9.02269 10.67806,-9.71509 13.68594,-12.11982 23.85087,-22.77602 16.36064,-17.15134 30.93625,-35.89726 44.33572,-55.42821 15.97803,-23.9048 31.44205,-48.27325 43.54108,-74.42172 5.11212,-11.2703 10.22005,-22.56497 14.37827,-34.23118 20.43652,-48.93719 -48.77113,-77.83879 -69.20764,-28.90159 z"/>
<path d="m 612.28035,656.42863 c -0.0906,11.57042 -0.47599,23.13868 -0.82778,34.70389 -0.71138,19.66741 -0.94513,39.33949 -0.46033,59.01344 0.35366,13.42801 1.47838,26.81536 3.56865,40.08241 1.14748,7.33503 3.07565,14.51489 6.1965,21.26984 2.01781,4.36745 3.22667,6.0357 5.72971,10.04426 4.4154,6.50723 8.83304,13.06003 14.3289,18.72654 1.5957,1.64525 3.3143,3.16669 4.97144,4.75004 9.73186,8.34862 21.38121,13.9369 33.57438,17.69708 2.57831,0.79511 5.2012,1.43773 7.80179,2.15659 18.70874,4.71103 38.0267,5.24054 57.20078,5.83074 19.51145,0.31191 39.01993,-0.0934 58.5329,0.13728 12.6523,0.3507 25.30885,0.18731 37.91886,-0.92474 3.13222,-0.39091 6.28934,-0.64324 9.41197,-1.1145 1.07459,-0.16217 2.17999,-0.20035 3.2184,-0.52089 3.7973,-1.17218 7.50036,-2.63031 11.25054,-3.94546 3.8929,-3.05439 8.21122,-5.63322 11.6787,-9.16318 4.51777,-4.59916 8.48406,-12.72982 10.6548,-18.74462 3.15691,-8.74732 5.47521,-19.36061 6.71253,-28.43399 0.97229,-7.12996 1.38044,-14.32555 2.07066,-21.48833 0.2806,-8.23625 0.5612,-16.47251 0.8418,-24.70877 1.67188,-53.00665 -73.29084,-55.37104 -74.96272,-2.36439 v 0 c -0.19354,6.79627 -0.38708,13.59254 -0.58062,20.38881 -0.39514,4.96681 -0.6321,9.94874 -1.18543,14.90043 -0.35256,3.15504 -1.02004,6.26689 -1.53006,9.40034 -0.31108,1.42684 -0.75057,2.83163 -0.93323,4.28052 -0.31019,2.46037 15.05682,-21.2103 13.36312,-10.98313 3.0875,-0.97973 6.15824,-2.01394 9.2625,-2.93918 0.32106,-0.0957 1.33019,-0.16217 0.99797,-0.11902 -2.38457,0.30977 -4.77238,0.59749 -7.16116,0.87253 -10.01561,1.00648 -20.09915,0.77528 -30.14836,0.61273 -19.04198,-0.22201 -38.07883,0.12411 -57.11944,-0.10736 -13.42718,-0.40817 -26.98421,-0.46206 -40.173,-3.33429 -3.417,-0.83166 -3.0302,-0.6616 -6.26874,-1.7354 -1.17979,-0.39119 -2.29047,-1.00442 -3.50283,-1.2785 -0.14275,-0.0323 -0.17031,0.39 -0.17338,0.40949 -3.11095,-1.74403 -4.77222,-6.40128 -7.09862,-9.02179 -0.0845,-0.0744 -0.19064,-0.31659 -0.25347,-0.22318 -0.0872,0.1297 0.06,0.30687 0.0947,0.45929 0.0793,0.34896 0.19524,0.69068 0.24731,1.04474 0.0144,0.0979 -0.0163,0.38519 -0.0507,0.29243 -0.33146,-0.89463 -0.74192,-3.35364 -0.86325,-3.98972 -1.63953,-9.95393 -2.32336,-20.02724 -2.64769,-30.10464 -0.47234,-18.28509 -0.19888,-36.56815 0.44954,-54.84729 0.37386,-12.32408 0.78211,-24.65111 0.86236,-36.98105 0,-53.03301 -75,-53.03301 -75,0 z"/>
</svg>
