<?xml version="1.0" ?>
<svg xmlns="http://www.w3.org/2000/svg" viewBox="0 0 1000 1000">
<path d="m 202.53163,147.42614 c 14.19645,4.78444 27.63355,11.88936 40.40209,19.66873 4.28084,2.60815 8.40483,5.46543 12.60725,8.19814 16.12572,11.8067 8.26947,5.84971 23.58443,17.85031 41.79581,32.64369 87.96095,-26.46451 46.16514,-59.1082 v 0 c -18.515,-14.42072 -8.8232,-7.13498 -29.12713,-21.78826 -5.44263,-3.48187 -10.79321,-7.11202 -16.3279,-10.44562 -17.60187,-10.601776 -36.19572,-19.952042 -55.79698,-26.225315 -50.80578,-15.207668 -72.31267,56.642545 -21.5069,71.850215 z"/>
<path d="m 89.49861,331.35901 c 30.29065,-5.55212 60.28035,-12.66495 90.33413,-19.35924 46.0926,-9.82908 93.02838,-15.62321 140.13023,-17.2511 8.17188,-0.28243 16.35143,-0.2607 24.52714,-0.39105 27.53686,1.06531 14.26669,-0.12941 39.83239,3.33221 52.60978,6.68662 62.06609,-67.71485 9.4563,-74.40146 v 0 c -33.6378,-4.07057 -16.78574,-2.76793 -50.55523,-3.92006 -9.05466,0.16067 -18.11381,0.15459 -27.16397,0.482 -51.27416,1.85493 -102.36033,8.21789 -152.53324,18.94358 -27.93903,6.22341 -55.82974,12.6957 -83.918425,18.22015 -52.569832,6.99377 -42.679157,81.33874 9.890675,74.34497 z"/>
<path d="m 215.41179,457.56113 c 21.88888,-4.35142 44.09155,-6.82867 66.27417,-9.09766 21.54792,-1.87893 43.17426,-3.46191 64.81942,-2.80355 3.94711,0.12006 7.88653,0.42309 11.8298,0.63464 52.96462,2.69241 56.77226,-72.21087 3.80764,-74.90328 v 0 c -4.99541,-0.24285 -9.98668,-0.59618 -14.98624,-0.72853 -24.42535,-0.6466 -48.83032,1.01888 -73.1436,3.19425 -24.52966,2.53527 -49.07692,5.31038 -73.27835,10.15428 -52.0076,10.37832 -37.33044,83.92817 14.67716,73.54985 z"/>
<path d="m 213.71934,607.14501 c 20.11057,-4.44914 40.49367,-7.42453 60.90314,-10.09326 24.23757,-2.92238 48.58311,-4.75581 72.99486,-4.92371 53.03101,-0.46037 52.37994,-75.45755 -0.65107,-74.99718 v 0 c -4.45715,0.0453 -8.91571,0.0147 -13.37145,0.13581 -22.98848,0.62463 -45.90537,2.84492 -68.74447,5.42443 -22.04888,2.91059 -44.07528,6.11335 -65.80847,10.90412 -52.00756,10.37853 -37.33009,83.92833 14.67746,73.54979 z"/>
<path d="m 83.163644,702.12681 c -0.169827,2.49427 -0.445746,4.98359 -0.509482,7.48283 -0.136828,5.3654 0.270253,14.76811 0.614059,19.84211 0.724394,10.69082 1.692852,20.45932 3.366718,31.11388 1.032084,6.56945 2.380774,13.08525 3.571161,19.62788 5.780252,27.52764 14.36221,54.34077 21.79205,81.44093 4.63844,16.91858 4.39179,16.38788 8.33845,32.61786 2.42001,10.09617 4.36877,20.29118 6.21303,30.5042 9.46629,52.18131 83.26181,38.79394 73.79551,-13.38737 v 0 c -2.1266,-11.67695 -4.36178,-23.33533 -7.14214,-34.87879 -4.30432,-17.61935 -4.04225,-17.06097 -9.00455,-35.15657 -5.24888,-19.14062 -11.15823,-38.1152 -16.10004,-57.33918 -1.48564,-5.7792 -2.759,-11.61091 -4.1385,-17.41636 -0.98661,-5.25011 -2.10187,-10.47767 -2.95981,-15.75033 -1.42245,-8.74191 -2.19558,-16.34724 -2.82444,-25.10115 -0.30688,-4.27185 -0.27924,-8.56355 -0.59335,-12.83487 -0.005,-0.0737 -0.11718,-0.0902 -0.17577,-0.13526 7.51641,-52.49765 -66.726485,-63.12746 -74.242896,-10.62981 z"/>
<path d="m 151.13083,761.40832 c -0.0285,0.099 -0.17603,0.34604 -0.0854,0.29706 10.53304,-5.69196 -6.46634,2.46834 10.73497,-6.14553 13.38593,-6.70324 27.55124,-11.60309 41.57835,-16.74198 30.61376,-10.28217 61.84619,-19.37928 93.84186,-24.2136 4.47201,-0.67569 8.97945,-1.09149 13.46918,-1.63724 10.8765,-0.50421 22.4047,-1.94499 33.04708,1.25904 -1.73564,0.0575 -6.43822,-2.72208 -7.05284,-3.22514 -10.85803,-8.88712 -7.52977,-7.34319 -14.18644,-19.34133 0.66593,20.8937 0.0857,41.88943 -2.05902,62.6917 -0.63882,6.19614 -1.54205,12.36216 -2.31307,18.54325 -4.15392,25.22462 -8.64601,50.44394 -14.37464,75.36789 -1.27343,5.5404 -2.73758,11.03523 -4.10638,16.55285 -12.70925,51.48761 60.10524,69.46122 72.81449,17.9736 v 0 c 1.5509,-6.31061 3.20052,-12.59778 4.6527,-18.93183 6.20215,-27.05235 11.06993,-54.42524 15.45457,-81.82057 0.88016,-7.26409 1.91118,-14.51149 2.64046,-21.79228 2.53498,-25.3077 3.23652,-50.88897 1.89458,-76.28453 -1.45066,-10.13082 -1.2168,-14.51221 -7.61907,-24.29507 -6.45179,-9.85852 -16.60467,-15.05709 -27.44151,-18.17072 -5.37491,-1.28956 -7.1298,-1.82709 -12.93817,-2.65215 -15.81905,-2.24704 -31.87029,-1.8017 -47.73427,-0.29318 -5.75981,0.7381 -11.54106,1.32468 -17.27942,2.21428 -36.33411,5.63276 -71.83938,15.86025 -106.59477,27.66339 -26.65389,9.83332 -54.28724,19.43849 -76.73195,37.43051 -39.280905,35.63019 11.10779,91.18177 50.3887,55.55158 z"/>
<path d="m 187.71519,924.19652 c 20.39408,-8.38285 41.21401,-15.78945 62.26354,-22.35511 6.93512,-2.16316 13.9312,-4.12581 20.89681,-6.18872 22.57811,-6.20218 45.34042,-11.6959 68.08138,-17.25881 51.51368,-12.6032 33.69007,-85.45454 -17.82362,-72.85135 v 0 c -23.92375,5.85399 -47.87096,11.63326 -71.60907,18.21356 -7.67008,2.28349 -15.3724,4.46136 -23.01024,6.85046 -23.09324,7.2235 -45.92416,15.39062 -68.28702,24.63024 -48.7619,20.85132 -19.27368,89.81105 29.48822,68.95973 z"/>
<path d="m 452.43144,362.78578 c 26.07061,-2.82368 52.03117,-6.54495 78.09918,-9.41102 9.99643,-1.09907 20.00451,-2.08953 30.00677,-3.1343 46.1556,-4.36327 92.415,-8.0275 138.75861,-9.64611 27.55845,-0.96252 35.30319,-0.74035 62.41261,-0.75168 37.81801,0.3472 75.74732,2.32106 113.00276,9.10719 2.33762,0.52509 4.67525,1.05018 7.01287,1.57527 51.79002,11.41463 67.93274,-61.82752 16.14271,-73.24215 v 0 c -3.30058,-0.71758 -6.60116,-1.43516 -9.90174,-2.15274 -4.26886,-0.7577 -8.52328,-1.60177 -12.80657,-2.2731 -37.5196,-5.88059 -75.58169,-7.5482 -113.50494,-8.01445 -28.79675,0.0296 -36.57156,-0.20039 -65.84278,0.83267 -47.78401,1.68643 -95.48169,5.45982 -143.07154,9.9716 -10.29498,1.07711 -20.59594,2.09849 -30.88493,3.23133 -25.02001,2.75474 -49.94882,6.21916 -74.95101,9.1115 -52.88875,3.90888 -47.36076,78.70488 5.528,74.79599 z"/>
<path d="m 652.52311,335.48958 c 0.16941,2.24429 0.30631,4.49127 0.50824,6.73286 1.21531,13.49107 2.69509,26.94301 3.74669,40.45148 1.29204,16.59703 2.05925,29.19416 3.16183,46.02961 3.28091,52.57327 2.82552,105.34055 -0.60919,157.89403 -0.72567,11.10324 -1.73663,22.186 -2.60495,33.279 -5.05835,54.93808 -13.68852,109.46334 -22.73103,163.86171 -4.54059,25.89489 -9.22861,51.88588 -17.39351,76.92529 -0.57284,1.57023 -1.10684,3.15519 -1.71853,4.7107 -2.61598,6.65247 -0.28093,-2.42739 3.94831,-5.22724 17.97079,-11.89708 15.95628,-10.31261 31.47794,-9.65539 -18.82367,-13.04377 -37.23203,-26.68758 -56.29602,-39.38628 -8.26679,-5.50658 -16.6838,-10.78424 -25.0257,-16.17636 -44.55443,-28.76461 -85.23374,34.24486 -40.67931,63.00948 v 0 c 24.15445,15.57382 21.23818,13.36474 44.06797,29.32038 7.11612,4.97342 25.07991,18.05293 33.04598,23.16621 4.79158,3.07564 9.79251,5.81221 14.68877,8.71832 7.60538,1.94417 14.99813,6.53985 22.81614,5.83252 9.75424,-0.88251 19.01843,-5.46231 27.48631,-10.3836 4.02728,-2.34054 6.21262,-6.96782 8.90725,-10.76731 4.0009,-5.64138 6.15353,-13.80021 8.66883,-20.1666 9.12853,-28.59134 15.0141,-58.05465 19.991,-87.62553 9.39315,-56.54258 18.33055,-113.22098 23.51901,-170.33075 0.9097,-11.72863 1.96986,-23.44657 2.7291,-35.18591 3.589,-55.4925 4.01735,-111.20693 0.55112,-166.71682 -1.998,-30.4733 -4.044,-60.94565 -7.31645,-91.31409 -2.12435,-52.99045 -77.06416,-49.98616 -74.9398,3.00429 z"/>
</svg>
