<?xml version="1.0" ?>
<svg xmlns="http://www.w3.org/2000/svg" width="1000" height="1000">
<path d="m 203.41681,153.5748 c 18.24314,10.19588 35.85631,21.39494 53.12302,33.15306 10.87527,7.36006 21.2129,15.44879 31.48073,23.61859 41.53413,32.97599 88.16922,-25.76214 46.63509,-58.73813 v 0 c -11.73588,-9.30043 -23.54565,-18.51528 -35.95849,-26.91077 -4.67198,-3.16967 -9.30331,-6.4001 -14.01595,-9.509 -15.1252,-9.97804 -30.77064,-19.14316 -46.52492,-28.083053 -47.0009,-24.564522 -81.74038,41.904783 -34.73948,66.469303 z"/>
<path d="m 99.452541,320.86091 c 39.754019,-9.02283 80.061369,-15.09247 120.393819,-20.82341 36.74228,-4.76746 73.6134,-8.83254 110.62075,-10.85679 17.58034,-0.96161 21.39362,-0.83961 38.13735,-1.0275 17.05839,0.26911 9.08551,0.0439 23.9206,0.603 52.99712,1.95069 55.75581,-72.99855 2.75869,-74.94924 v 0 c -17.1571,-0.61846 -7.96215,-0.37519 -27.58688,-0.64827 -18.72185,0.24123 -22.74707,0.11055 -42.29512,1.19326 -38.84556,2.15154 -77.55019,6.40878 -116.11701,11.43291 -41.57515,5.91948 -83.13217,12.16532 -124.116587,21.4489 -52.062252,10.10059 -37.777865,83.72773 14.284388,73.62714 z"/>
<path d="m 191.73066,441.70022 c 17.14827,-3.19127 34.21811,-6.77728 51.45628,-9.47694 5.92735,-0.92828 11.87341,-1.73282 17.81012,-2.59923 18.21345,-2.51285 36.53922,-4.124 54.89077,-5.18395 7.49696,-0.43301 20.01983,-1.00024 27.8844,-0.93659 2.84538,0.023 5.68493,0.26182 8.52739,0.39273 1.87311,0.22546 3.74622,0.45093 5.61933,0.6764 52.74003,5.5668 60.61268,-69.01886 7.87265,-74.58566 v 0 c -3.53031,-0.34487 -7.06061,-0.68974 -10.59092,-1.03462 -4.28673,-0.14506 -8.57107,-0.41262 -12.8602,-0.43518 -8.85063,-0.0466 -23.04994,0.59582 -31.5805,1.09842 -20.27199,1.19439 -40.51305,3.01032 -60.63156,5.80014 -23.27641,3.42017 -46.46823,7.28237 -69.49908,12.11062 -52.44883,7.84982 -41.34752,82.02367 11.10132,74.17386 z"/>
<path d="m 192.80081,576.25207 c 1.996,-0.13227 3.99975,-0.17698 5.98801,-0.39682 8.88571,-0.98252 17.72926,-2.90797 26.53107,-4.41411 15.90363,-2.72137 11.94308,-2.03608 28.83464,-4.63927 26.59094,-3.94442 53.44422,-6.56059 80.34822,-6.55807 3.7725,3.5e-4 7.5435,0.15026 11.31525,0.22539 2.94678,0.1595 5.89356,0.319 8.84034,0.4785 52.96228,2.73794 56.83432,-72.16204 3.87203,-74.89998 v 0 c -3.79208,-0.18887 -7.58416,-0.37774 -11.37624,-0.56661 -4.66197,-0.0751 -9.32336,-0.23869 -13.98592,-0.22543 -30.28748,0.0862 -60.51792,2.96251 -90.45469,7.42398 -17.82839,2.75591 -13.72201,2.04333 -30.25922,4.87322 -3.58837,0.61405 -7.17336,1.24773 -10.7597,1.87351 -2.39149,0.41728 -4.78346,0.83182 -7.17379,1.25567 -0.91067,0.16148 -1.85123,0.20936 -2.72915,0.50031 -0.32006,0.10607 0.67277,0.0465 1.00915,0.0697 -53.03301,0 -53.03301,75 0,75 z"/>
<path d="m 72.817756,717.73365 c 9.695383,24.65245 18.183866,49.75383 27.307684,74.62321 13.25107,34.94412 25.42904,70.28088 37.48988,105.64926 17.11719,50.19464 88.10313,25.98726 70.98593,-24.20737 v 0 c -12.24771,-35.91424 -24.61798,-71.79502 -38.0674,-107.28094 -8.49507,-23.14029 -5.50564,-14.77551 -13.28438,-36.77596 -3.88384,-10.98456 -7.55501,-22.10514 -12.1603,-32.82072 -0.0677,-0.1576 -0.22119,-0.26225 -0.33179,-0.39338 -14.99484,-50.869 -86.934464,-29.66309 -71.939624,21.2059 z"/>
<path d="m 165.31694,754.77695 c -0.12712,0.29973 -0.70194,0.95596 -0.38135,0.8992 0.77808,-0.13778 1.3861,-0.76227 2.04773,-1.19426 2.36327,-1.54303 4.62068,-3.24844 7.02376,-4.72869 3.71083,-2.28581 7.46992,-4.49897 11.30826,-6.56351 13.02986,-7.00839 19.24075,-9.54104 33.0188,-15.81527 24.26772,-10.32607 49.34186,-18.71995 74.94153,-25.05995 12.56219,-3.11115 17.61895,-3.92653 30.00799,-6.31058 9.45742,-1.63303 18.96678,-3.09901 28.55241,-3.72517 2.37405,-0.15508 5.64794,-0.47118 8.10174,0.10602 -13.24927,-1.1821 -19.12587,-8.0868 -26.26639,-18.72657 -1.23789,-1.84453 -0.67066,-4.70705 -2.24431,-6.27495 -0.90016,-0.89688 -0.15904,2.53644 -0.23481,3.80488 -0.19213,3.21612 -0.37926,6.43254 -0.56889,9.6488 -2.62678,37.01391 -6.67446,73.90431 -11.7653,110.65494 -3.26525,20.6709 -1.61971,10.84734 -4.88633,29.47903 -9.13754,52.23988 64.74081,65.16232 73.87835,12.92243 v 0 c 3.55156,-20.34819 1.76679,-9.64062 5.3015,-32.13146 5.35242,-38.79543 9.64424,-77.73514 12.35884,-116.8105 0.58838,-11.32102 2.4626,-29.42763 -2.50391,-39.88755 -3.1012,-6.53139 -7.25474,-12.77599 -12.57069,-17.67672 -8.04935,-7.42064 -14.57818,-7.87727 -23.80843,-9.70339 -2.10428,-0.15346 -4.20447,-0.38121 -6.31286,-0.46038 -17.22814,-0.64692 -34.37795,2.43915 -51.30554,5.15156 -14.69764,2.86756 -20.2616,3.76524 -35.19737,7.50928 -29.62166,7.42543 -58.63016,17.22634 -86.68491,29.29131 -6.89569,3.16852 -13.86307,6.18545 -20.68708,9.50555 -12.61126,6.13578 -23.52612,11.92895 -35.24833,19.49449 -7.66138,4.94468 -15.24361,10.61025 -21.74756,17.04612 -2.10945,2.08737 -3.83099,4.53332 -5.74649,6.79998 -30.232602,43.57166 31.38703,86.32702 61.61964,42.75536 z"/>
<path d="m 192.07143,915.04497 c 16.65816,-6.53428 33.1526,-13.49108 49.9685,-19.62041 18.94122,-6.90401 25.74202,-8.88586 45.25093,-15.17627 23.49399,-7.30182 47.50944,-12.6575 71.47994,-18.09546 51.71508,-11.74952 35.09875,-84.88568 -16.61632,-73.13616 v 0 c -26.13539,5.94615 -52.30972,11.84195 -77.91199,19.86095 -8.44565,2.73137 -16.92457,5.36194 -25.33695,8.19411 -25.5166,8.59055 -50.50039,18.57258 -75.45574,28.64935 -49.0194,20.23855 -20.39776,89.56245 28.62163,69.32389 z"/>
<path d="m 454.89392,315.87554 c 5.8542,15.73903 7.26245,33.08304 9.22108,49.69452 3.49276,38.70722 4.54147,77.69185 0.94564,116.43847 -2.62559,28.29193 -5.33023,40.83932 -10.12865,68.92453 -6.95992,31.8062 -7.20789,35.50481 -16.10579,66.30954 -2.66559,9.22835 -5.72997,18.33682 -8.59496,27.50523 -15.76328,50.63615 55.84704,72.92879 71.61032,22.29265 v 0 c 3.14725,-10.14459 6.51683,-20.22287 9.44175,-30.43379 9.71641,-33.92013 10.025,-38.18274 17.59279,-73.13298 5.34573,-31.73346 8.1938,-44.86353 11.05065,-76.9857 3.84593,-43.24322 2.68483,-86.74653 -1.35439,-129.92355 -3.46159,-28.03975 -6.26683,-57.69009 -21.31799,-82.35635 -29.46332,-44.09549 -91.82377,-2.42806 -62.36045,41.66743 z"/>
<path d="m 634.43078,357.98865 c 0.39026,18.56387 0.9649,37.12324 1.49986,55.68333 1.17908,38.23806 1.21681,76.49497 0.85097,114.74529 -0.12018,5.8046 -0.24035,11.6092 -0.36053,17.41379 -1.09079,53.02179 73.89335,54.5644 74.98413,1.54261 v 0 c 0.12434,-6.08094 0.24867,-12.16188 0.37301,-18.24282 0.37117,-39.20854 0.32967,-78.42377 -0.87872,-117.6197 -0.5142,-17.8401 -1.04827,-35.68003 -1.46872,-53.5225 0,-53.033 -75,-53.033 -75,0 z"/>
<path d="m 839.95844,132.39838 c 0.945,22.47556 1.90661,44.9503 2.77749,67.42889 2.56301,65.16363 1.49681,130.38358 0.6434,195.56866 -1.60594,87.41412 -4.94361,174.78324 -7.47018,262.17339 -1.67185,50.87046 -2.13431,101.778 -4.01093,152.6422 -1.03105,27.94604 -1.32683,30.31294 -2.95356,56.74458 -3.2463,52.93356 71.61305,57.52452 74.85935,4.59096 v 0 c 1.68824,-27.62126 1.98933,-29.99803 3.05977,-59.063 1.8746,-50.89941 2.34612,-101.84172 4.01405,-152.74745 2.53764,-87.78536 5.89348,-175.54957 7.49508,-263.3593 0.86958,-66.48065 1.93058,-132.99652 -0.69325,-199.45479 -0.92206,-23.77939 -1.85231,-47.56168 -3.0306,-71.32936 -4.81201,-52.814245 -79.50264,-46.009023 -74.69062,6.80522 z"/>
</svg>
