<?xml version="1.0" ?>
<svg xmlns="http://www.w3.org/2000/svg" width="1000" height="1000">
<path d="m 232.22349,156.23707 c 13.24238,11.12087 25.2756,23.58852 37.03865,36.23427 8.52568,9.34544 15.54999,19.85222 22.57568,30.32203 29.67535,43.95309 91.8344,1.98581 62.15905,-41.96728 v 0 c -9.28362,-13.68433 -18.65166,-27.35041 -29.90984,-39.53318 -3.69656,-3.94828 -7.32712,-7.95942 -11.08969,-11.84485 -5.67115,-5.85635 -14.6835,-14.60338 -20.76545,-20.23739 -5.37165,-4.97602 -9.43043,-8.61796 -15.09998,-12.956696 -1.52667,-1.168312 -3.13803,-2.221587 -4.70704,-3.33238 -44.7708,-28.426668 -84.97218,34.888806 -40.20138,63.315476 z"/>
<path d="m 142.1754,350.08669 c 26.92416,-7.68153 54.56559,-12.35135 82.14961,-16.9106 42.56635,-6.11784 85.34779,-11.80898 128.37187,-13.35031 6.91295,-0.24766 13.83301,-0.22113 20.74951,-0.33169 53.02512,-0.91482 51.73136,-75.90366 -1.29376,-74.98884 v 0 c -7.85215,0.14424 -15.70844,0.13996 -23.55645,0.43271 -45.7586,1.70694 -91.26666,7.67737 -136.53539,14.24766 -30.56803,5.08006 -61.18572,10.34292 -91.00434,18.93587 -50.887083,14.93336 -29.768133,86.89856 21.11895,71.9652 z"/>
<path d="m 213.54874,484.71756 c 20.23755,-3.94609 40.45292,-7.93829 60.80891,-11.23609 19.47338,-2.55819 39.09064,-5.16733 58.77782,-4.98977 3.11005,0.0281 6.21387,0.28388 9.32081,0.42582 52.99448,2.02109 55.85273,-72.92442 2.85825,-74.94551 v 0 c -4.63765,-0.15342 -9.27277,-0.45226 -13.91295,-0.46026 -23.14127,-0.0399 -46.20002,2.80845 -69.08413,5.94247 -19.86395,3.2422 -39.64772,6.90784 -59.35195,11.01379 -52.50236,7.48349 -41.91911,81.73303 10.58324,74.24955 z"/>
<path d="m 211.22515,617.16364 c 21.98208,-3.76549 44.01158,-7.17872 66.12201,-10.09671 16.5611,-1.99435 33.2026,-3.28426 49.89015,-3.28453 11.80358,-1.9e-4 17.79461,0.49306 29.63167,1.1411 52.95779,2.82363 56.95101,-72.06999 3.99322,-74.89362 v 0 c -14.35382,-0.74779 -20.94929,-1.29389 -35.36324,-1.22733 -19.39733,0.0896 -38.74492,1.56901 -57.99394,3.91297 -22.71881,3.01575 -45.36443,6.47683 -67.95144,10.36186 -52.3869,8.25305 -40.71533,82.33931 11.67157,74.08626 z"/>
<path d="m 112.85982,728.28851 c 0.53138,1.48514 1.13804,2.94547 1.59413,4.45544 3.21877,10.6564 4.94734,21.86814 6.48488,32.85574 1.96903,14.07121 2.79621,23.55673 4.25759,37.84716 3.38104,34.5159 6.05461,69.11124 7.03199,103.78354 0.0144,2.86945 0.0289,5.7389 0.0433,8.60835 0.32557,53.03201 75.32416,52.57158 74.99859,-0.46043 v 0 c -0.0242,-3.43297 -0.0485,-6.86593 -0.0728,-10.2989 -1.06408,-36.51277 -3.79947,-72.94926 -7.39379,-109.29697 -3.32428,-32.22408 -6.03363,-65.20066 -17.481,-95.7764 -19.99872,-49.11773 -89.461675,-20.83526 -69.46295,28.28247 z"/>
<path d="m 204.60233,761.50956 c 23.36677,-8.68562 47.868,-13.40394 72.3519,-17.63085 22.92012,-3.82808 46.14005,-5.6211 69.36093,-4.71444 1.31996,0.10949 5.35443,0.29827 7.16886,0.8129 0.17627,0.05 -0.36139,0.14534 -0.5398,0.10364 -1.37226,-0.3207 -2.80285,-0.54204 -4.06009,-1.17866 -2.69942,-1.36688 -5.50333,-2.71821 -7.71455,-4.78357 -2.8599,-2.67125 -4.84892,-6.1438 -7.27338,-9.2157 -9.10291,8.92052 0.31002,-13.1501 -3.34328,-11.5228 -1.31871,0.5874 -0.5023,2.84333 -0.73028,4.26883 -2.11306,13.21205 -3.93532,26.46746 -5.7971,39.71647 -4.52334,34.14575 -11.76843,67.83478 -19.58576,101.35275 -12.03873,51.64852 61.0033,68.67384 73.04203,17.02533 v 0 c 8.31598,-35.69737 15.98242,-71.5832 20.81435,-107.94376 1.46602,-10.43748 2.58574,-18.60976 4.12359,-28.87503 1.50151,-10.02272 4.3503,-21.70187 3.03824,-31.83185 -0.61345,-4.73621 -2.38811,-9.24818 -3.58217,-13.87227 -3.1412,-4.60981 -5.595,-9.77243 -9.42362,-13.82941 -11.27424,-11.94668 -28.05972,-14.27304 -43.47373,-15.17957 -28.47506,-0.93991 -56.74141,0.97598 -84.85061,5.77205 -28.49352,4.9693 -56.9653,10.64193 -84.17914,20.69374 -50.08593,17.43274 -25.43231,88.26493 24.65361,70.8322 z"/>
<path d="m 185.10069,926.07862 c 28.76762,-12.62036 58.81548,-21.98882 88.59804,-31.85774 35.26036,-10.89245 17.39777,-5.64466 53.59575,-15.7162 51.08487,-14.24206 30.94355,-86.48698 -20.14131,-72.24491 v 0 c -38.6949,10.80792 -19.68317,5.20418 -57.04769,16.76871 -31.19803,10.34015 -62.65631,20.20737 -92.80514,33.39283 -49.25515,19.65781 -21.45481,89.31512 27.80035,69.65731 z"/>
<path d="m 566.68712,155.52488 c 17.38035,9.88977 33.9312,21.12382 50.23953,32.67097 15.36455,11.31651 7.87493,5.70426 22.47923,16.82286 42.20736,32.1098 87.61746,-27.58042 45.4101,-59.69022 v 0 c -15.94273,-12.12043 -7.75036,-5.99112 -24.58973,-18.37107 -19.05145,-13.45382 -38.3976,-26.55822 -58.79965,-37.901842 -47.0009,-24.564523 -81.74038,41.904782 -34.73948,66.469302 z"/>
<path d="m 513.15311,314.43073 c 21.87959,-7.95227 44.52611,-13.39936 67.43213,-17.43825 9.18488,-1.61951 18.42162,-2.9297 27.63244,-4.39455 55.51726,-7.61212 111.5407,-11.54801 167.57537,-11.92609 9.95212,-0.0671 19.90425,0.13474 29.85637,0.20211 22.32416,0.48661 44.69165,1.17278 66.83224,4.29675 4.85396,0.68488 9.66016,1.67373 14.49024,2.51059 52.28947,8.84935 64.80434,-65.09913 12.51487,-73.94848 v 0 c -6.20071,-1.02996 -12.37375,-2.24308 -18.60211,-3.08989 -24.7792,-3.36898 -49.78435,-4.28147 -74.75928,-4.76746 -10.60099,-0.0631 -21.20208,-0.26845 -31.80296,-0.1892 -59.51042,0.44486 -119.0072,4.676 -177.95608,12.85395 -10.14583,1.63276 -20.32255,3.08388 -30.43747,4.89827 -25.94968,4.65481 -51.617,10.89958 -76.44498,19.82507 -50.3228,16.73667 -26.65358,87.90385 23.66922,71.16718 z"/>
<path d="m 692.72867,422.79101 c 13.50519,4.80936 26.7559,10.30371 39.44704,16.99332 4.0861,2.15382 8.08502,4.46915 12.12753,6.70373 18.07395,10.84413 35.68496,23.55398 48.66598,40.41682 2.05461,2.66901 3.79039,5.56893 5.68558,8.35339 3.47363,6.96043 4.80038,8.47609 6.41878,15.97193 1.37709,6.37812 1.51967,12.72178 1.29217,19.22599 -0.45144,12.9064 -1.44448,17.63286 -3.21514,30.95856 -1.25017,6.37311 -2.31727,12.78487 -3.75049,19.11933 -3.29742,14.57371 -7.58302,29.30408 -11.99338,43.55991 -4.87305,15.75138 -10.39975,32.27012 -16.08719,47.74276 -2.881,7.83773 -5.99177,15.58909 -8.98765,23.38363 -11.54985,27.72622 -22.72781,55.69914 -36.52347,82.4161 -6.39713,12.38881 -9.89509,17.93647 -16.88023,29.74894 -6.14005,9.86967 -12.30478,19.76602 -19.44357,28.9588 -2.91748,3.75691 -5.91507,7.27247 -9.6744,10.1785 -0.24661,0.0534 -0.88229,0.36848 -0.73982,0.16023 1.27846,-1.86869 6.06742,-3.43451 7.09638,-3.63983 2.96312,-0.59127 6.04261,-0.27304 9.04225,-0.63603 0.75564,-0.0915 2.50612,-0.0391 2.16685,-0.72041 -1.24061,-2.49154 -3.73774,-4.12515 -5.60662,-6.18772 -19.15471,-21.96951 -35.57954,-46.27585 -47.09665,-73.13154 -3.43119,-8.00089 -6.13352,-16.29506 -9.20029,-24.44259 -18.99607,-49.51413 -89.01963,-22.64962 -70.02355,26.86451 v 0 c 4.00969,10.29756 7.54288,20.7936 12.02907,30.89267 15.37509,34.61163 36.86976,66.06895 62.39037,93.95825 11.66761,10.59044 19.33235,19.79047 34.90183,24.92809 16.91766,5.58248 31.90766,2.92879 46.60489,-5.95539 2.83395,-1.71306 5.35937,-3.8911 8.03906,-5.83665 2.39984,-2.19154 4.89705,-4.281 7.19953,-6.57463 14.88319,-14.82597 25.74236,-33.13535 36.92513,-50.73099 8.42169,-14.3264 11.87807,-19.76584 19.64038,-34.87665 14.75184,-28.71725 26.8423,-58.70986 39.17686,-88.5103 3.24629,-8.47677 6.61569,-16.90742 9.73888,-25.43031 5.99628,-16.36334 12.14698,-34.74008 17.26704,-51.40606 5.14885,-16.75966 9.93114,-33.42693 13.69084,-50.56043 1.73118,-7.88927 2.99908,-15.87311 4.49862,-23.80966 2.07077,-16.85557 3.87816,-26.90296 3.7358,-43.85535 -0.17555,-20.90445 -3.70775,-40.22111 -12.56786,-59.24536 -2.57391,-5.52664 -5.95232,-10.64166 -8.92848,-15.96249 -3.51524,-4.82926 -6.79095,-9.84231 -10.54572,-14.48777 -18.82624,-23.29214 -43.15503,-41.50148 -68.82264,-56.56806 -4.99529,-2.73178 -9.93484,-5.56802 -14.98585,-8.19533 -15.54071,-8.08358 -31.72247,-14.81372 -48.22345,-20.66276 -50.1274,-17.3131 -74.61181,53.57776 -24.48441,70.89085 z"/>
<path d="m 662.31362,285.44867 c -6.11473,22.41956 -13.06419,44.67841 -21.68118,66.2761 -3.68279,9.23058 -7.77258,18.29352 -11.65888,27.44028 -15.94847,35.51027 -34.58728,69.69662 -53.8418,103.49477 -16.38176,28.75551 -29.11124,50.22188 -46.41065,78.52829 -8.17077,13.36953 -16.51342,26.63326 -24.77013,39.94989 -23.05961,36.89434 -45.97341,73.87819 -68.75979,110.94168 -27.77461,45.17821 36.11703,84.45744 63.89164,39.27923 v 0 c 22.73672,-36.98444 45.60328,-73.88774 68.61268,-110.70338 8.42652,-13.59457 16.94165,-27.1346 25.27955,-40.7837 17.47374,-28.60444 31.09006,-51.55362 47.62982,-80.62961 20.58294,-36.1837 40.46587,-72.8053 57.43983,-110.85086 4.33195,-10.27559 8.88905,-20.45913 12.99585,-30.82675 6.43302,-16.24017 10.85814,-29.69087 15.9991,-46.08383 2.2822,-7.27727 5.76467,-18.88856 7.70536,-26.7008 0.64942,-2.61423 1.1284,-5.26788 1.6926,-7.90182 8.08187,-52.41357 -66.04212,-63.84307 -74.124,-11.42949 z"/>
</svg>
