<?xml version="1.0" ?>
<svg xmlns="http://www.w3.org/2000/svg" viewBox="0 0 1000 1000">
<path d="m 199.33177,151.16779 c 0.58702,0.24326 1.19256,0.44594 1.76107,0.72979 3.74012,1.86737 7.33568,4.01395 10.93991,6.13176 12.7716,7.50444 24.97545,15.72483 37.17336,24.11956 4.37047,3.14784 8.74093,6.29568 13.11139,9.44352 43.05016,30.97069 86.84934,-29.91142 43.79918,-60.88212 v 0 c -4.81803,-3.46245 -9.63607,-6.9249 -14.45411,-10.38736 -14.10332,-9.66626 -28.20572,-19.20136 -43.024,-27.753623 -7.73569,-4.464596 -12.96064,-7.340427 -21.01238,-10.821448 -1.87592,-0.81102 -3.83699,-1.408844 -5.75549,-2.113266 -50.5816,-15.937434 -73.12053,55.595747 -22.53893,71.533187 z"/>
<path d="m 100.48605,345.76694 c 21.73162,-5.80862 43.66412,-10.83645 65.88043,-14.42529 8.17736,-1.32097 16.39608,-2.37185 24.59412,-3.55777 46.93148,-5.69873 94.19539,-8.55455 141.46206,-9.11811 8.13643,-0.097 16.274,-0.025 24.41101,-0.0376 17.78726,9e-4 35.54998,0.89217 53.30419,1.85202 52.95651,2.84733 56.98326,-72.04449 4.02674,-74.89183 v 0 c -19.14157,-1.02394 -38.29247,-1.96597 -57.46889,-1.96006 -8.63134,0.0183 -17.26332,-0.0527 -25.89401,0.055 -50.34014,0.628 -100.67708,3.71504 -150.64902,9.88342 -9.07175,1.329 -18.16673,2.50812 -27.21525,3.987 -24.04944,3.9306 -47.80712,9.35458 -71.343373,15.6316 -51.322962,13.35865 -32.430973,85.94028 18.891993,72.58163 z"/>
<path d="m 221.70966,477.89442 c 16.6903,-4.07166 33.50387,-7.7169 50.47195,-10.43946 5.19165,-0.83301 10.4084,-1.50122 15.61259,-2.25183 17.76104,-1.90666 35.71489,-3.96331 53.59463,-2.41426 6.41528,0.5558 8.94796,1.21719 14.98322,2.42627 52.12603,9.76614 65.93744,-63.95119 13.81141,-73.71734 v 0 c -10.84517,-1.95152 -14.1271,-2.81197 -25.60226,-3.64096 -22.56456,-1.63012 -45.18571,0.49891 -67.58343,3.12744 -5.9917,0.87803 -11.99728,1.66598 -17.97508,2.63409 -18.64434,3.01946 -37.12249,7.02618 -55.46515,11.50586 -51.4563,12.83549 -33.30417,85.60568 18.15212,72.77019 z"/>
<path d="m 230.00617,609.09513 c 19.26978,-3.31423 38.68598,-5.69415 58.11286,-7.86328 25.33477,-3.19185 50.64411,-1.64149 75.95471,0.61056 52.82874,4.6501 59.40497,-70.06103 6.57623,-74.71113 v 0 c -12.16474,-1.06064 -20.49024,-1.92113 -32.9381,-2.3879 -19.3405,-0.72524 -38.70183,-0.17252 -57.94621,1.95512 -21.54346,2.42281 -43.08535,5.04787 -64.43643,8.84674 -52.00763,10.37816 -37.33069,83.92806 14.67694,73.54989 z"/>
<path d="m 86.276307,733.20957 c 0.596698,19.12172 2.8706,38.19285 6.355816,56.99881 1.21275,6.5439 2.680084,13.03806 4.020126,19.55709 8.656551,36.932 18.812641,73.48507 27.495371,110.41193 0.83196,3.71065 1.66392,7.4213 2.49587,11.13195 11.61155,51.74623 84.79176,35.32503 73.18022,-16.4212 v 0 c -0.89014,-3.9638 -1.78029,-7.9276 -2.67043,-11.8914 -8.54292,-36.27238 -18.41584,-72.20566 -27.06163,-108.45147 -1.15044,-5.49788 -2.40835,-10.97437 -3.45133,-16.49365 -2.79727,-14.8027 -4.65583,-29.79269 -5.36401,-44.84206 0,-53.03301 -75.000003,-53.03301 -75.000003,0 z"/>
<path d="m 146.27017,776.00923 c 18.78897,-5.17103 37.4503,-10.83548 56.41583,-15.3471 6.35423,-1.51157 12.75185,-2.83459 19.12778,-4.25189 31.68226,-6.4879 63.85066,-10.79266 96.1821,-12.03064 4.62261,-0.177 9.25026,-0.1792 13.87539,-0.2688 3.73603,0.0463 7.47311,0.0391 11.2081,0.139 5.40911,0.14467 9.19345,0.38214 14.40108,0.89217 2.10732,0.20639 4.29163,0.17458 6.29288,0.86627 0.4377,0.15128 -0.92057,-0.10207 -1.38085,-0.1531 -11.97225,-4.67232 -11.28178,-3.13467 -21.92856,-18.20704 -1.82967,-2.5902 -1.44286,-6.24154 -2.88576,-9.06553 -0.43479,-0.85096 -0.21177,1.89975 -0.28888,2.85225 -1.38469,17.10595 0.3184,-1.1708 -1.75524,19.92097 -3.15518,33.00512 -13.9286,64.48259 -23.73693,95.94457 -1.41842,4.49909 -2.83684,8.99818 -4.25525,13.49727 -15.94519,50.57916 55.58454,73.12906 71.52973,22.5499 v 0 c 1.4424,-4.57561 2.88481,-9.15122 4.32721,-13.72683 11.33553,-36.36598 23.30867,-72.84416 26.78311,-111.00572 0.77816,-8.07819 1.68578,-16.24633 2.05453,-24.36537 0.37262,-8.2042 0.77969,-19.6071 -3.14392,-26.85236 -9.77285,-18.04637 -12.61662,-17.43416 -26.83105,-23.86239 -2.17496,-0.52211 -4.33151,-1.12791 -6.52486,-1.56634 -3.29112,-0.65787 -9.00569,-1.29027 -12.2244,-1.58361 -11.04092,-1.00623 -22.1282,-1.34673 -33.21309,-1.25763 -15.62206,0.34854 -19.34169,0.24458 -35.54201,1.44488 -30.00068,2.22278 -59.83439,6.50871 -89.28345,12.63972 -7.12047,1.59551 -14.2643,3.09015 -21.36141,4.78654 -19.44998,4.64903 -38.60431,10.41427 -57.87394,15.73547 -51.106382,14.16467 -31.074518,86.44 20.03186,72.27534 z"/>
<path d="m 175.0542,936.60477 c 25.87183,-6.98353 51.66461,-14.24166 77.61588,-20.93832 24.64304,-6.34767 49.5874,-11.38714 74.50824,-16.48796 51.95408,-10.64299 36.90261,-84.11716 -15.05147,-73.47417 v 0 c -26.15952,5.36322 -52.34137,10.67167 -78.20862,17.34417 -24.93023,6.44187 -49.76476,13.2174 -74.54501,20.21388 -51.86091,11.08813 -36.17993,84.43052 15.68098,73.3424 z"/>
<path d="m 508.49451,241.03732 c 21.81314,-5.99182 43.87174,-11.1302 66.2117,-14.75608 8.48676,-1.37745 17.02444,-2.4204 25.53666,-3.6306 46.60646,-5.09234 93.69885,-6.0739 140.49768,-3.23497 7.23538,0.43892 14.45107,1.15774 21.67661,1.7366 21.61365,2.61676 11.5501,1.15292 30.21602,4.21329 52.35504,8.45282 64.30913,-65.58839 11.95409,-74.04121 v 0 c -22.72243,-3.62259 -10.64299,-1.91997 -36.26172,-4.93899 -8.10981,-0.633 -16.20918,-1.41829 -24.32944,-1.89899 -51.4416,-3.04526 -103.19716,-1.8676 -154.40329,3.92428 -9.53791,1.37917 -19.10423,2.57444 -28.61374,4.13751 -24.46178,4.02077 -48.62058,9.65819 -72.51601,16.2137 -51.10647,14.16437 -31.07502,86.43983 20.03144,72.27546 z"/>
<path d="m 489.33833,323.87489 c 4.40311,14.82067 8.57135,29.70679 14.28117,44.10055 2.02217,5.09766 4.30805,10.08671 6.46208,15.13007 8.68007,18.26109 4.39123,9.48907 12.82822,26.33475 23.7734,47.40597 90.81556,13.78531 67.04216,-33.62066 v 0 c -7.37329,-14.68175 -3.70341,-7.21372 -10.99943,-22.40909 -1.64548,-3.76877 -3.39614,-7.49334 -4.93645,-11.3063 -5.52314,-13.67232 -9.17777,-27.9401 -13.54257,-41.99454 -16.80455,-50.30017 -87.93973,-26.53495 -71.13518,23.76522 z"/>
<path d="m 748.47044,276.12098 c -5.65842,13.64204 -10.72879,27.52827 -16.38612,41.16946 -6.35139,15.31473 -9.70321,22.18692 -16.82754,37.68708 -14.9721,31.35533 -31.63702,61.96474 -51.03322,90.82182 -5.10531,7.59554 -10.52458,14.97528 -15.78687,22.46292 -30.44049,43.42668 30.97411,86.47604 61.4146,43.04935 v 0 c 5.85247,-8.36878 11.88412,-16.61508 17.55742,-25.10636 21.24102,-31.79163 39.59163,-65.43315 56.00966,-99.93877 3.34418,-7.29379 6.77172,-14.54994 10.03255,-21.88138 9.01809,-20.27569 16.81187,-41.04641 25.1245,-61.61285 18.8453,-49.57171 -51.25969,-76.22299 -70.10498,-26.65127 z"/>
<path d="m 440.72195,563.67881 c 23.94187,-4.50057 47.77221,-9.56444 71.70877,-14.10601 50.51957,-8.88212 101.53658,-14.80949 152.7253,-18.04751 11.42422,-0.72266 22.86397,-1.17445 34.29596,-1.76167 41.29608,-1.71922 82.65493,-1.63986 123.94922,0.063 19.35915,0.79831 25.56997,1.34587 44.21789,2.63276 15.95015,1.1183 31.81845,3.08739 47.65498,5.24418 52.54979,7.14279 62.65122,-67.17384 10.10143,-74.31663 v 0 c -17.4844,-2.37232 -35.00549,-4.51926 -52.61395,-5.75105 -19.87798,-1.3609 -26.32894,-1.9292 -46.95388,-2.77064 -43.38619,-1.77004 -86.83973,-1.82654 -130.22605,-0.002 -12.02289,0.62478 -24.05399,1.10749 -36.06865,1.87433 -53.98956,3.44593 -107.7964,9.74075 -161.07442,19.15169 -23.86838,4.53623 -47.63498,9.57224 -71.50825,14.06821 -52.12864,9.75217 -38.33699,83.4732 13.79165,73.72103 z"/>
<path d="m 625.05281,286.663 c -0.0142,30.74194 -0.26708,61.48329 -0.39211,92.22502 0.26589,66.71177 -0.95096,133.40598 -2.79408,200.08849 -2.36936,81.96442 -7.75649,163.79425 -11.70334,245.68827 -0.50031,12.28698 -1.00063,24.57397 -1.50094,36.86095 -2.15615,52.98916 72.78183,56.03842 74.93799,3.04926 v 0 c 0.49202,-12.10032 0.98404,-24.20065 1.47606,-36.30097 3.96896,-82.40668 9.39506,-164.74851 11.76164,-247.22667 1.85692,-67.27103 3.08728,-134.5539 2.82205,-201.85436 0.12538,-30.84339 0.37913,-61.68639 0.39273,-92.52999 0,-53.033 -75,-53.033 -75,0 z"/>
</svg>
