<?xml version="1.0" ?>
<svg xmlns="http://www.w3.org/2000/svg" width="1000" height="1000">
<path d="m 172.83911,125.48467 c 17.80648,10.47233 33.13822,24.35959 48.16362,38.39064 13.36787,13.56792 6.94721,6.8198 19.29208,20.21568 36.00204,38.94038 91.07206,-11.97419 55.07002,-50.91457 v 0 c -14.8195,-15.98533 -7.07389,-7.89859 -23.28159,-24.21724 -4.30349,-3.98981 -8.53257,-8.0614 -12.91047,-11.969417 -13.98973,-12.488211 -28.75932,-24.188587 -44.79558,-33.951775 -44.15647,-29.371858 -85.69455,33.074823 -41.53808,62.446682 z"/>
<path d="m 83.800338,322.62163 c 2.489005,-0.28027 4.991836,-0.45716 7.467014,-0.84081 14.380828,-2.22901 28.565748,-5.84866 42.736448,-9.08343 26.58914,-6.06955 15.66637,-3.65392 44.48207,-9.57854 45.8392,-8.71072 91.88491,-16.80964 138.33276,-21.53808 7.64471,-0.77824 15.31143,-1.32261 22.96715,-1.98391 15.70646,-1.40473 31.45099,-1.50194 47.19585,-1.16756 53.02373,0.99222 54.42694,-73.99465 1.40321,-74.98687 v 0 c -18.3835,-0.30695 -36.76771,-0.22176 -55.10342,1.43701 -8.36828,0.73363 -16.7484,1.34279 -25.10483,2.20089 -48.62212,4.99288 -96.83351,13.42286 -144.81743,22.57981 -8.52194,1.75739 -17.0597,3.43969 -25.5658,5.27219 -19.20998,4.13848 -38.247424,9.0748 -57.552421,12.77381 -52.973251,2.51688 -49.413852,77.43237 3.559399,74.91549 z"/>
<path d="m 232.20713,451.6193 c 18.11139,-5.63413 36.8168,-8.89105 55.5112,-11.8614 22.20246,-3.04888 44.68439,-3.84097 66.98869,-1.61465 52.79581,5.01019 59.88129,-69.65437 7.08547,-74.66455 v 0 c -9.29719,-0.85119 -11.84725,-1.21837 -21.66924,-1.49029 -21.48072,-0.5947 -42.98838,0.75425 -64.26707,3.7135 -23.58761,3.80435 -47.23619,8.01152 -69.93159,15.67333 -49.67005,18.58456 -23.38752,88.82862 26.28254,70.24406 z"/>
<path d="m 224.91151,574.85687 c 18.8739,-2.52181 37.58119,-6.09632 56.37293,-9.14493 16.42473,-2.65353 32.97775,-4.72211 49.63269,-4.96789 8.009,-0.11819 9.43313,0.082 16.95077,0.50631 2.01007,0.1793 4.02014,0.35859 6.03021,0.53789 52.84005,4.51977 59.23198,-70.20735 6.39192,-74.72713 v 0 c -2.86441,-0.23765 -5.72882,-0.4753 -8.59323,-0.71296 -10.44887,-0.49607 -12.81349,-0.77453 -23.67884,-0.54805 -19.71031,0.41083 -39.31386,2.72544 -58.7579,5.88201 -18.57608,3.02064 -37.07097,6.54303 -55.72814,9.04307 -52.41901,8.04659 -41.03942,82.17826 11.37959,74.13168 z"/>
<path d="m 97.81984,681.37674 c 0.625469,2.08076 1.183808,4.1829 1.876408,6.24229 2.225042,6.61599 5.165322,13.95079 7.592042,20.42216 3.82237,10.19318 6.8716,18.29588 10.1322,28.76581 1.68715,5.41752 3.14523,10.90374 4.71785,16.35561 8.00157,29.46002 11.85946,59.78877 14.3557,90.14573 4.38257,52.85161 79.12604,46.65372 74.74347,-6.19789 v 0 c -2.95189,-35.33907 -7.61691,-70.61957 -17.07878,-104.8778 -1.89081,-6.46582 -3.65421,-12.97028 -5.67242,-19.39748 -5.28,-16.81476 -11.91337,-33.13308 -17.91535,-49.68681 -12.88941,-51.44282 -85.640534,-33.21443 -72.75112,18.22838 z"/>
<path d="m 185.29414,720.45817 c 18.70307,-11.83258 40.07332,-18.52701 60.98838,-25.23955 20.67548,-6.00709 41.61357,-11.28615 62.91949,-14.51994 8.64889,-1.31273 10.56652,-1.35991 18.72779,-2.06007 3.57696,-0.1349 6.45954,-0.36035 9.95049,-0.14452 0.4107,0.0254 1.62284,0.23397 1.21137,0.23765 -3.62487,0.0324 -8.84745,-1.54244 -11.20549,-3.39729 -5.13622,-4.04018 -9.04476,-9.43436 -13.56714,-14.15154 -1.07147,-3.26021 -1.80467,-6.65178 -3.2144,-9.78061 -0.24895,-0.55253 -0.32542,1.17288 -0.39256,1.77517 -0.31597,2.83469 -0.50729,5.6819 -0.7554,8.52334 -0.36858,4.22124 -0.76544,8.44019 -1.09464,12.66469 -1.21659,15.61187 -1.25267,18.05561 -2.14474,34.27041 -1.51495,29.95878 -2.48703,59.93953 -3.23803,89.92584 -1.32641,53.01641 73.65013,54.89223 74.97654,1.87582 v 0 c 0.73088,-29.24458 1.67717,-58.48368 3.14933,-87.70161 0.80964,-14.86579 1.78617,-29.6775 3.06709,-44.50932 0.31472,-3.64406 1.70191,-17.77384 1.30064,-21.26818 -0.67801,-5.90435 -2.44632,-11.63183 -3.66948,-17.44774 -5.16421,-6.09486 -9.42552,-13.08779 -15.49262,-18.28458 -3.39399,-2.90713 -8.01293,-4.0197 -12.23996,-5.46981 -2.80076,-0.96082 -5.78281,-1.3074 -8.71506,-1.71895 -8.1507,-1.14395 -16.46175,-0.45362 -24.62934,-0.0986 -10.87799,1.00736 -13.46294,1.09168 -24.77698,2.85204 -24.79378,3.85767 -49.18368,9.96132 -73.23077,17.06214 -6.61227,2.14942 -13.27228,4.1572 -19.83681,6.44828 -22.95343,8.01093 -45.85784,17.52667 -65.51697,32.05819 -41.08202,33.53756 6.34725,91.6363 47.42927,58.09874 z"/>
<path d="m 186.32385,876.66427 c 2.6001,-0.75357 5.2282,-1.41651 7.8003,-2.26072 15.4743,-5.07893 30.52205,-11.51888 45.75832,-17.24202 23.29517,-8.75028 26.57243,-9.76439 50.92053,-18.36465 9.72318,-3.33123 19.44636,-6.66246 29.16954,-9.99369 50.16926,-17.19144 25.8569,-88.14148 -24.31236,-70.95004 v 0 c -9.94847,3.40963 -19.89693,6.81926 -29.84539,10.22889 -25.50629,9.01662 -28.40598,9.8932 -52.79161,19.05394 -35.55991,13.35848 -4.97794,2.08875 -32.99519,12.68822 -2.22452,0.84158 -6.91985,2.53027 -9.93912,3.61832 -51.7756,11.47986 -35.54062,84.70161 16.23498,73.22175 z"/>
<path d="m 467.25808,364.30324 c 21.08842,-3.56926 42.1189,-7.49349 63.26695,-10.71116 7.70313,-1.17203 15.42615,-2.20944 23.13922,-3.31417 28.6978,-3.78713 57.55454,-6.22534 86.43026,-8.15088 21.45904,-1.43096 40.44851,-2.47818 61.91995,-2.93164 9.45035,-0.19958 18.90458,-0.11385 28.35687,-0.17078 22.17789,0.17714 44.35955,1.34517 66.37465,4.09217 11.78095,1.47 16.38286,2.46737 27.51491,4.52426 52.16867,9.53573 65.65423,-64.24191 13.48557,-73.77764 v 0 c -13.66818,-2.47607 -18.78936,-3.5844 -33.25528,-5.34563 -24.75341,-3.01373 -49.68464,-4.31965 -74.61318,-4.49154 -10.17648,0.0722 -20.35514,-0.006 -30.52944,0.21656 -22.32137,0.48783 -42.54835,1.5969 -64.83582,3.09224 -30.57197,2.05118 -61.12152,4.66455 -91.50202,8.70339 -8.16604,1.17397 -16.34224,2.27926 -24.4981,3.5219 -21.03354,3.20469 -41.95548,7.08263 -62.92633,10.65669 -52.38688,8.2532 -40.71509,82.33943 11.67179,74.08623 z"/>
<path d="m 464.00942,527.38005 c 22.78937,-2.25702 45.29815,-6.74589 67.90106,-10.34621 24.87404,-3.6497 49.95943,-6.07269 75.11534,-6.24165 13.17047,-0.0885 19.4248,0.37214 32.38598,0.98206 17.1501,1.22017 9.02499,0.53712 24.38043,1.98785 52.80244,4.9398 59.78837,-69.73414 6.98593,-74.67393 v 0 c -17.69052,-1.64089 -8.37965,-0.87462 -27.93776,-2.23551 -15.51507,-0.69266 -22.09656,-1.18582 -37.9554,-1.02991 -28.39438,0.27914 -56.71104,2.99486 -84.78571,7.14696 -19.88146,3.17406 -39.68604,6.86378 -59.64967,9.49487 -52.97324,2.51716 -49.41344,77.43263 3.5598,74.91547 z"/>
<path d="m 522.88074,519.83781 c 3.19011,21.65655 2.55055,43.68463 2.40354,65.50861 -0.28494,31.31942 -2.17966,62.58048 -5.14981,93.74997 -5.00414,52.79639 69.66123,59.87332 74.66537,7.07693 v 0 c 3.14705,-33.36624 5.20067,-66.82619 5.48293,-100.35101 0.16635,-27.80243 0.89972,-55.97177 -4.45031,-83.39274 -12.30948,-51.58465 -85.2612,-34.17641 -72.95172,17.40824 z"/>
<path d="m 470.18864,768.61662 c 28.45957,-12.30849 58.44352,-20.58117 88.10647,-29.40118 37.1189,-11.28085 74.73028,-20.78351 112.39164,-30.04324 51.49817,-12.66645 33.5851,-85.49586 -17.91306,-72.8294 v 0 c -38.82323,9.55236 -77.59281,19.3624 -115.86015,30.98503 -31.83389,9.47114 -63.96676,18.46419 -94.52562,31.63163 -49.25505,19.65808 -21.45433,89.31524 27.80072,69.65716 z"/>
<path d="m 668.64049,154.17493 c -0.4372,24.04782 -0.32897,48.13033 1.06849,72.14885 0.50706,8.71504 1.25949,17.41407 1.88924,26.1211 2.79235,31.58169 7.51659,62.9467 12.5964,94.22698 3.19899,19.69864 8.48893,50.69724 12.2708,70.15985 2.38622,12.28018 5.06691,24.5013 7.60037,36.75195 10.96793,48.52955 23.38869,96.72921 37.22372,144.52011 7.26526,25.09669 12.10896,40.48841 19.73639,65.28402 14.87233,48.71072 32.24183,96.59227 50.29754,144.19633 8.24168,21.51978 16.15233,43.19008 25.63555,64.20457 0.83195,1.73643 3.75019,8.01485 4.89254,9.67235 13.85769,20.10677 21.27172,23.74569 59.94861,10.85204 10.86919,-3.62345 14.19132,-28.31049 16.19157,-38.33508 1.12751,-6.45427 2.2581,-12.90801 3.38254,-19.36282 2.3871,-13.70319 7.9464,-46.14122 10.41735,-58.47242 5.96768,-29.78159 10.7469,-48.0211 17.66239,-78.08654 3.29971,-14.34564 6.48101,-28.71826 9.72151,-43.07739 11.67313,-51.73237 -61.48749,-68.24067 -73.16062,-16.5083 v 0 c -3.19395,14.15673 -6.32964,28.32673 -9.58185,42.4702 -7.65175,33.27661 -11.83514,48.82945 -18.43386,81.79763 -2.482,12.40046 -8.08852,45.08006 -10.5082,58.98256 -1.06709,6.13107 -2.13771,12.26152 -3.20656,18.39228 -0.44413,2.66228 -3.69797,9.28644 -1.33238,7.98684 4.78433,-2.6284 4.7679,-12.02319 10.1653,-12.83944 47.65765,-7.20721 41.46352,-8.3652 54.54916,10.23669 1.00826,1.4333 -6.84623,-10.77219 -2.3999,-4.67749 -8.91508,-19.539 -16.02811,-39.83954 -23.81902,-59.83656 -17.49157,-46.10424 -34.33485,-92.47178 -48.73772,-139.6502 -7.39562,-24.03344 -12.20005,-39.30383 -19.2381,-63.59403 -13.3542,-46.089 -25.34277,-92.572 -35.96467,-139.36639 -2.41588,-11.64554 -4.976,-23.26208 -7.24765,-34.93661 -3.71547,-19.09462 -8.82542,-49.06225 -11.96874,-68.37333 -4.75978,-29.24175 -9.21907,-58.55842 -11.89148,-88.0778 -0.58588,-7.9468 -1.28448,-15.88608 -1.75764,-23.84038 -1.32198,-22.22343 -1.41516,-44.50764 -1.03365,-66.75972 1.5626,-53.00999 -73.40483,-55.21984 -74.96743,-2.20985 z"/>
<path d="m 802.05357,183.01242 c 1.20755,1.34882 2.46158,2.65744 3.62265,4.04647 6.85412,8.19982 12.84973,17.20464 19.06568,25.87624 11.89131,16.58904 7.78854,10.82865 19.61213,27.72682 3.09301,4.46519 6.18602,8.93038 9.27903,13.39557 30.19945,43.59465 91.85159,0.88617 61.65214,-42.70847 v 0 c -3.16164,-4.56377 -6.32329,-9.12753 -9.48493,-13.69129 -12.12894,-17.32632 -8.13879,-11.73197 -20.15795,-28.49635 -9.41664,-13.13439 -18.53931,-26.60409 -29.72299,-38.33597 -36.90177,-38.088837 -90.76752,14.09814 -53.86576,52.18698 z"/>
</svg>
