<?xml version="1.0" ?>
<svg xmlns="http://www.w3.org/2000/svg" viewBox="0 0 1000 1000">
<path d="m 143.86769,169.56392 c 15.3805,9.68149 31.31659,18.63952 45.85269,29.59927 3.72894,2.81151 7.269,5.86515 10.9035,8.79772 3.81476,3.54685 7.62951,7.0937 11.44427,10.64055 39.0485,35.88474 89.79718,-19.33818 50.74868,-55.22292 v 0 c -5.13698,-4.67961 -10.27397,-9.35922 -15.41095,-14.03882 -4.90323,-3.88087 -9.69717,-7.90397 -14.70969,-11.64261 -15.52739,-11.58129 -32.35658,-21.29128 -48.76368,-31.53516 -44.83196,-28.330101 -84.89678,35.07187 -40.06482,63.40197 z"/>
<path d="m 67.02606,352.97478 c 25.07163,-5.77239 50.56296,-9.50784 76.02217,-13.08007 43.43454,-5.17237 87.06671,-9.16673 130.7954,-10.70064 7.48241,-0.26246 14.9704,-0.32939 22.45561,-0.49408 15.30274,-0.4371 30.55806,0.48021 45.78551,1.81901 52.84184,4.49881 59.20413,-70.23084 6.36228,-74.72966 v 0 c -17.90947,-1.4855 -35.8456,-2.58916 -53.83546,-2.07036 -8.09972,0.18609 -16.20245,0.2693 -24.29915,0.55827 -46.04528,1.64335 -91.99046,5.84535 -137.7208,11.34998 -28.34499,4.0036 -56.74085,8.16865 -84.612478,14.80642 -51.2943208,13.46821 -32.247398,86.00933 19.046918,72.54113 z"/>
<path d="m 158.56,481.42257 c 14.70671,-2.15543 29.37593,-4.66667 44.20707,-5.84475 4.2226,-0.33542 8.45753,-0.49164 12.68629,-0.73746 20.27244,-0.73518 40.57577,-0.33688 60.78435,1.41557 52.83965,4.52447 59.23821,-70.20209 6.39856,-74.72655 v 0 c -23.85066,-2.02121 -47.8098,-2.53938 -71.73086,-1.551 -5.27701,0.33166 -10.56147,0.5607 -15.83102,0.995 -15.6356,1.2886 -31.12259,3.80968 -46.62556,6.13389 -52.54886,7.14968 -42.43769,81.46498 10.11117,74.3153 z"/>
<path d="m 155.56483,607.45336 c 14.68852,-0.42012 29.22506,-2.79672 43.85101,-4.0332 3.95445,-0.33431 7.91765,-0.55561 11.87648,-0.83341 17.21803,-0.88948 34.43245,0.13758 51.40206,3.08836 52.30895,8.73349 64.65997,-65.24254 12.35102,-73.97602 v 0 c -3.65259,-0.5933 -7.2903,-1.28675 -10.95775,-1.77989 -19.25267,-2.58878 -38.74752,-3.05116 -58.13617,-2.14204 -4.65015,0.33681 -9.30501,0.61402 -13.95046,1.01043 -12.1652,1.0381 -24.2557,2.81202 -36.43619,3.66577 -53.03301,0 -53.03301,75 0,75 z"/>
<path d="m 52.572749,697.22466 c 1.98848,21.3117 5.386339,42.46158 8.856344,63.57215 5.742387,32.87813 12.082187,65.65323 16.174037,98.78937 1.13406,11.72792 0.71622,6.30629 1.34398,16.25766 3.48745,52.91822 78.32511,47.98621 74.83766,-4.93201 v 0 c -0.88266,-12.98225 -0.32123,-6.12188 -1.75419,-20.57525 -4.26292,-34.11112 -10.59681,-67.88559 -16.59783,-101.72413 -3.10891,-18.84899 -6.14176,-37.72745 -8.05145,-56.7432 -3.78685,-52.89763 -78.595401,-47.54222 -74.808551,5.35541 z"/>
<path d="m 123.43517,733.9964 c 21.2233,-6.67933 42.91218,-11.64611 64.70169,-16.05858 26.3923,-5.10462 53.17944,-7.84589 80.05076,-8.019 7.65113,0.0166 15.28206,0.67204 22.84195,1.81613 -10.27341,-1.18249 -18.16752,-9.13353 -23.78139,-17.21903 -4.32954,-6.23571 -3.37609,-14.16997 -3.89406,-8.7539 -0.13573,20.12357 -0.39195,40.34777 -2.79181,60.35623 -0.57719,4.81221 -1.43626,9.58641 -2.15439,14.37961 -2.74909,15.91936 -8.72227,30.86935 -15.25045,45.53843 -21.33037,48.55425 47.33572,78.71995 68.66608,30.1657 v 0 c 1.84019,-4.22862 3.80106,-8.40675 5.52057,-12.68587 6.77724,-16.86569 12.18955,-34.2542 15.27905,-52.1971 0.87945,-6.16357 1.9202,-12.30628 2.63837,-18.49073 2.70707,-23.3118 3.07618,-46.87186 3.02234,-70.31133 -0.53782,-8.35196 -0.35943,-15.75321 -5.01645,-23.58839 -7.62129,-12.8224 -17.33597,-19.02038 -31.15842,-21.37075 -11.44664,-1.69575 -22.99838,-2.64602 -34.5772,-2.63613 -11.00303,0.1161 -14.04158,0.0179 -25.47804,0.72965 -23.11743,1.43868 -46.12458,4.47194 -68.8755,8.79334 -5.85342,1.19671 -11.72366,2.31387 -17.56026,3.59012 -18.17832,3.97493 -36.1759,8.78269 -53.97538,14.19751 -50.744877,15.40965 -28.95234,87.17374 21.79254,71.76409 z"/>
<path d="m 144.93265,881.48335 c 21.98853,-11.02406 45.24783,-19.14805 68.4178,-27.26541 15.71036,-4.98653 24.66521,-8.13651 40.69286,-11.99844 6.66492,-1.60594 13.42128,-2.80539 20.13192,-4.20808 51.87723,-11.01149 36.30464,-84.37697 -15.57259,-73.36549 v 0 c -8.12671,1.74669 -16.30568,3.26585 -24.38014,5.24007 -18.07583,4.41957 -28.07462,7.93837 -45.70892,13.5638 -19.22042,6.75658 -38.37614,13.55444 -57.09337,21.63161 -6.73689,2.90722 -15.85149,7.13722 -22.51607,10.7482 -2.18149,1.18198 -4.26439,2.5375 -6.39659,3.80625 -43.732775,29.99907 -1.30768,91.84656 42.4251,61.84749 z"/>
<path d="m 528.94251,146.15957 c 11.82097,8.66366 22.62756,18.81992 32.57243,29.57161 3.2684,3.53356 6.33953,7.24461 9.50929,10.86691 12.88991,16.11689 6.53393,8.00573 19.06917,24.33252 32.32045,42.04626 91.78285,-3.66176 59.4624,-45.70803 v 0 c -14.24522,-18.51187 -6.82822,-9.09068 -22.28528,-28.23653 -4.10884,-4.62962 -8.09821,-9.3681 -12.32653,-13.88886 -12.79577,-13.68076 -27.47782,-27.496055 -42.88241,-38.249001 -2.11789,-1.478361 -4.35744,-2.774291 -6.53616,-4.161436 -46.29628,-25.868021 -82.87919,39.604797 -36.58291,65.472817 z"/>
<path d="m 489.4213,345.11695 c 15.93414,-4.83466 31.88394,-9.59384 48.17283,-13.11834 5.02162,-1.08655 10.07879,-2.00173 15.11818,-3.00259 27.2747,-5.26765 54.9506,-7.6592 82.65518,-9.07046 7.45208,-0.31941 14.90937,-0.56588 22.36891,-0.59153 2.41729,-0.008 2.93519,-0.0918 1.92651,0.0447 -11.89783,-0.88304 -18.59233,-5.9547 -26.50194,-15.13992 -1.97601,-2.29469 -2.80165,-5.37171 -4.08288,-8.11556 -0.33704,-0.72181 -0.49677,-3.01491 -0.76403,-2.26445 -0.42592,1.19596 0.1442,2.53498 0.2163,3.80247 1.23589,30.9323 1.04272,61.9107 1.35971,92.86382 0.60415,53.96602 2.10198,107.91467 2.5656,161.88229 0.54504,54.7854 -1.95123,109.51871 -5.7162,164.15625 -2.11196,28.5553 -4.99646,57.06251 -9.29379,85.37657 -1.94336,12.80434 -3.16473,19.22112 -5.39764,31.75322 -3.2409,16.74282 -6.56602,33.52482 -11.24466,49.9384 0.65062,-6.56165 0.73787,-8.91921 10.92721,-15.68589 6.4583,-4.28892 14.74999,-4.78201 22.15322,-7.0835 0.82105,-0.25525 3.13895,0.004 2.51234,-0.58446 -2.41987,-2.27367 -5.73202,-3.35453 -8.55875,-5.09664 -4.73847,-2.92032 -9.42352,-5.92645 -14.13528,-8.88967 -12.36359,-7.99287 -25.66688,-16.4734 -37.76012,-24.81032 -6.82432,-4.70461 -13.50712,-9.61126 -20.26069,-14.41689 -43.23094,-30.71785 -86.67253,30.41993 -43.44159,61.13778 v 0 c 7.36994,5.22986 14.66696,10.56402 22.10983,15.68958 12.74884,8.77954 26.51987,17.54951 39.5425,25.96209 6.77182,4.22655 24.05108,15.39511 31.87959,18.88675 5.90921,2.63561 11.82857,6.40608 18.2985,6.47695 10.46372,0.11463 21.53646,-1.1218 30.82618,-5.93881 11.88248,-6.16144 14.30272,-15.15961 18.09325,-25.29618 5.26442,-18.81468 9.29436,-37.96038 12.89936,-57.1544 2.4286,-13.67417 3.70249,-20.36453 5.81689,-34.37932 4.54044,-30.09522 7.62022,-60.38999 9.85686,-90.73867 3.88404,-56.56679 6.45886,-113.23213 5.89019,-169.95094 -0.46942,-54.00772 -1.95092,-107.99663 -2.56673,-162.00262 -0.33296,-32.47898 -0.0857,-64.98866 -1.54651,-97.44075 -0.40444,-5.15168 -0.71881,-12.40278 -2.28351,-17.26784 -1.33597,-4.1539 -2.58716,-8.52534 -5.22139,-12.00392 -8.99981,-11.8845 -17.71395,-17.13984 -31.9711,-18.54768 -10.77891,-0.4466 -21.57222,0.15797 -32.34483,0.52794 -31.35402,1.62357 -62.66925,4.42403 -93.52761,10.43058 -5.89915,1.18876 -11.81867,2.28061 -17.69746,3.56629 -16.8073,3.67573 -33.3466,8.40032 -49.76438,13.51407 -51.32297,13.35863 -32.43102,85.94027 18.89195,72.58164 z"/>
<path d="m 392.31049,524.89646 c 11.62044,-3.06014 22.99594,-6.96404 34.51118,-10.38575 11.54576,-3.43079 16.97247,-4.86286 28.70245,-8.09755 22.20365,-6.03148 44.84086,-10.26473 67.7757,-12.07437 4.37367,-0.11867 8.7865,-0.62555 13.16909,-0.35746 0.23249,0.0142 -0.46627,0.0446 -0.69833,0.0246 -1.02982,-0.0888 -2.05404,-0.23372 -3.08105,-0.35057 -1.97882,-0.56182 -4.05647,-0.85059 -5.93646,-1.68545 -9.58608,-4.25698 -15.80624,-10.36998 -19.63483,-20.06155 -0.63106,-1.59745 -0.91115,-3.31211 -1.36672,-4.96817 -0.1259,-0.69704 0.25193,-1.76664 -0.37769,-2.09111 -0.52067,-0.26833 -0.23204,1.14844 -0.33137,1.7257 -0.34718,2.01779 -0.61422,4.04983 -1.00808,6.05903 -2.81657,14.36822 -7.05789,28.31592 -11.16958,42.35349 -14.53944,46.22261 -33.87441,90.89827 -56.44019,133.75604 -5.28164,10.03109 -10.94124,19.85857 -16.41186,29.78785 -15.6853,27.19897 -33.17368,53.3217 -52.10226,78.36396 -4.97843,6.58638 -10.22501,12.96572 -15.33751,19.44857 -32.79431,41.67774 26.14691,88.05589 58.94122,46.37815 v 0 c 5.68453,-7.23892 11.51775,-14.36352 17.05361,-21.71676 20.77426,-27.59426 39.95868,-56.37598 57.16337,-86.33408 5.91282,-10.7709 12.03005,-21.43208 17.73844,-32.3127 24.60255,-46.89438 45.60831,-95.78919 61.39203,-146.36023 5.00348,-17.20163 10.13732,-34.31367 13.30277,-51.97405 1.04386,-5.82382 2.13901,-13.75809 2.20667,-19.81647 0.0308,-2.75911 -0.28701,-5.5111 -0.43051,-8.26664 -1.83872,-8.20848 -1.42698,-9.03566 -5.6455,-16.63536 -4.26316,-7.68011 -11.44262,-13.18305 -19.29732,-16.814 -2.43651,-1.12631 -5.12506,-1.59822 -7.6876,-2.39733 -1.87092,-0.28459 -3.73226,-0.64158 -5.61277,-0.85377 -8.1176,-0.91599 -16.37033,0.1197 -24.48419,0.34573 -8.50228,0.70841 -11.6828,0.87911 -20.54096,2.06312 -20.62381,2.75666 -40.99343,7.14606 -61.09944,12.46625 -20.23656,5.5883 -40.36065,11.52272 -60.40371,17.76603 -51.62931,12.1208 -34.48791,85.13568 17.1414,73.01488 z"/>
<path d="m 859.59158,279.2272 c -0.8597,1.76197 -1.36527,2.89738 -2.54882,4.66914 -2.80713,4.20224 -8.18167,10.87479 -10.85107,14.15104 -11.57679,14.2086 -12.62235,15.07868 -25.68851,29.91736 -24.18992,26.56361 -49.28068,52.35668 -75.48597,76.94418 -14.6529,13.74831 -20.68968,18.72899 -35.62909,31.66968 -5.03336,4.2133 -10.06672,8.42659 -15.10008,12.63989 -40.65668,34.05193 7.50002,91.54916 48.1567,57.49723 v 0 c 5.35896,-4.49077 10.71792,-8.98155 16.07688,-13.47232 16.51019,-14.32925 22.34754,-19.12414 38.58773,-34.377 27.6821,-25.99916 54.17968,-53.27701 79.71664,-81.37649 12.42608,-14.14977 17.22237,-19.2565 28.497,-33.30699 8.70379,-10.84668 17.32577,-22.01985 22.95572,-34.83799 21.29645,-48.56914 -47.39068,-78.68687 -68.68713,-30.11773 z"/>
<path d="m 647.7364,519.0903 c 13.17602,13.68422 26.02134,27.68867 38.85993,41.68945 15.45669,17.07872 30.82249,34.26201 45.05995,52.38274 8.39201,10.68094 11.29616,14.86676 19.2126,25.72931 13.62858,18.76367 25.2546,38.8315 37.06598,58.75207 6.32217,10.91785 13.57176,21.26561 22.80697,29.94063 6.40206,6.01372 10.86911,9.0009 17.91148,14.21389 18.53755,12.93711 37.91492,24.5889 57.77365,35.37087 6.84915,3.71864 13.80559,7.23713 20.66052,10.94512 6.90612,3.73569 13.74738,7.59005 20.62108,11.38508 46.43313,25.62156 82.66754,-40.0448 36.23436,-65.66636 v 0 c -7.25596,-4.00165 -14.47938,-8.06286 -21.76788,-12.00494 -6.40725,-3.46544 -12.90871,-6.75469 -19.31778,-10.21676 -17.14318,-9.26047 -33.86008,-19.27583 -49.90929,-30.33559 -3.70521,-2.66253 -8.11521,-5.32841 -11.38412,-8.62192 -3.80346,-3.83207 -6.20743,-8.79242 -9.11766,-13.26299 -13.02633,-21.96652 -25.92809,-44.04509 -40.99331,-64.70971 -8.88957,-12.16743 -12.01997,-16.67787 -21.46987,-28.66731 -15.23062,-19.32367 -31.59563,-37.70442 -48.11287,-55.92739 -13.58926,-14.815 -27.17334,-29.64692 -41.16001,-44.08841 -37.54187,-37.45808 -90.5156,15.63413 -52.97373,53.09222 z"/>
</svg>
