<?xml version="1.0" ?>
<svg xmlns="http://www.w3.org/2000/svg" viewBox="0 0 1000 1000">
<path d="m 260.50351,197.36124 c 9.93499,6.09091 19.91829,12.16933 29.17636,19.27287 2.11867,1.62562 4.15273,3.35864 6.2291,5.03796 5.4558,5.63703 2.96618,2.77267 7.5245,8.54438 34.2261,40.51018 91.51614,-7.89283 57.29004,-48.40301 v 0 c -11.18422,-12.86812 -5.21469,-6.6151 -17.96298,-18.70698 -3.02641,-2.40281 -5.99943,-4.87445 -9.07922,-7.20845 -11.55896,-8.75989 -23.92258,-16.39468 -36.33606,-23.86431 -46.19354,-26.05104 -83.03528,39.27649 -36.84174,65.32754 z"/>
<path d="m 129.6173,336.79237 c 24.77568,-8.57828 50.31801,-14.53616 75.84738,-20.35592 39.31824,-8.49242 79.11398,-14.68502 119.12666,-18.78152 6.84289,-0.70058 13.70164,-1.23643 20.55246,-1.85464 20.157,-0.99219 40.70965,-3.18753 60.81197,-0.15092 52.55401,7.11165 62.6114,-67.21095 10.05739,-74.3226 v 0 c -25.76451,-3.30121 -51.80797,-2.20394 -77.64481,-0.21981 -7.41473,0.67582 -14.83793,1.2645 -22.2442,2.02746 -42.77994,4.40697 -85.32462,11.07351 -127.35771,20.18453 -27.49083,6.28878 -54.99212,12.74172 -81.68807,21.94024 -50.581601,15.93743 -28.042666,87.47062 22.53893,71.53318 z"/>
<path d="m 269.594,430.39711 c 13.36131,-3.05175 26.83827,-5.53089 40.3241,-7.96799 20.96144,-3.68364 42.17702,-5.64728 63.44319,-6.13071 6.20866,-0.0743 12.39108,0.4968 18.55553,1.15505 52.74462,5.52312 60.55549,-69.06904 7.81086,-74.59216 v 0 c -9.37248,-0.96786 -18.77658,-1.71214 -28.21028,-1.54022 -25.12014,0.65485 -50.18569,2.89434 -74.94313,7.30464 -15.61942,2.82532 -31.23174,5.70359 -46.67285,9.40288 -51.17227,13.92476 -31.47969,86.29327 19.69258,72.36851 z"/>
<path d="m 269.12492,549.83891 c 13.23414,-2.98748 26.6134,-5.11809 40.03951,-7.01788 20.00403,-2.79099 40.18424,-4.12362 60.37207,-4.35484 8.40583,-0.28589 16.6759,0.62048 24.81188,2.63504 0.92332,0.23286 1.84664,0.46572 2.76996,0.69858 51.43374,12.92555 69.71323,-59.81275 18.27949,-72.7383 v 0 c -1.19804,-0.30024 -2.39608,-0.60049 -3.59411,-0.90074 -14.18612,-3.33451 -28.62945,-5.07173 -43.23256,-4.68837 -23.39352,0.32815 -46.77742,1.82134 -69.95671,5.09435 -15.14372,2.15938 -30.23631,4.58669 -45.17045,7.92976 -51.86092,11.08808 -36.18,84.43049 15.68092,73.3424 z"/>
<path d="m 176.62705,670.05055 c 1.13564,14.52704 1.92091,29.0795 3.58482,43.56289 0.62065,5.40244 1.39897,10.7856 2.09846,16.1784 4.1335,29.33652 10.40111,58.30497 18.49696,86.78983 2.53525,7.62356 4.60276,15.54297 8.33194,22.7172 1.35436,2.60552 2.9942,5.05242 4.4913,7.57863 29.41367,44.12863 91.82098,2.53142 62.40731,-41.59721 v 0 c 0.42376,0.91591 0.9118,1.80472 1.27127,2.74771 0.15264,0.4004 -0.48369,-0.71461 -0.64722,-1.11069 -1.40215,-3.39607 -2.63032,-7.50372 -3.73344,-10.91568 -7.14339,-24.91378 -12.56327,-50.28102 -16.25229,-75.94234 -0.60939,-4.60827 -1.29083,-9.20759 -1.82817,-13.82481 -1.62282,-13.94435 -2.33345,-27.96171 -3.44283,-41.94894 -4.07649,-52.87611 -78.85459,-47.11109 -74.77811,5.76501 z"/>
<path d="m 235.10852,703.10009 c 21.43856,-8.01326 43.81368,-13.13749 66.06644,-18.298 32.25644,-7.20192 64.87685,-12.53729 97.54863,-17.43334 6.62963,-0.54763 13.18277,-2.39443 19.85633,-2.57721 0.32339,-0.009 -0.62063,0.32982 -0.93587,0.25711 -5.6114,-1.29432 -11.90752,-1.17495 -16.72464,-4.33066 -5.91327,-3.87379 -9.39081,-10.56906 -14.08621,-15.85359 -0.60554,-1.60259 -0.24484,-4.12623 -1.81662,-4.80776 -1.14429,-0.49617 -0.6301,2.41447 -0.88925,3.63448 -0.67293,3.16788 -1.24664,6.35617 -1.90649,9.52679 -2.99802,14.4056 -6.25252,28.75723 -9.48398,43.1116 -4.88983,22.31898 -10.85093,44.37274 -16.9125,66.39443 -14.07328,51.13162 58.23775,71.03426 72.31103,19.90264 v 0 c 6.37387,-23.15929 12.6195,-46.3582 17.7708,-69.82745 3.39804,-15.09851 6.90842,-30.18999 9.95497,-45.3649 1.47958,-7.36983 4.26128,-21.05315 4.14592,-28.57108 -0.0912,-5.94232 -1.34802,-11.80935 -2.02203,-17.71402 -5.55909,-7.87583 -9.19297,-17.55154 -16.67728,-23.6275 -14.97117,-12.15398 -36.76866,-6.57487 -53.70214,-4.32424 -34.63867,5.19354 -69.21785,10.88594 -103.4096,18.55187 -26.40512,6.14955 -52.95556,12.33773 -78.25514,22.25488 -48.85821,20.62463 -19.69058,89.72058 29.16763,69.09595 z"/>
<path d="m 277.00565,844.30841 c 33.41469,-17.19247 68.02535,-31.92286 102.39221,-47.07526 48.52566,-21.39533 18.26809,-90.02098 -30.25757,-68.62565 v 0 c -35.45318,15.63179 -71.14176,30.859 -105.61561,48.58888 -47.45538,23.67462 -13.97441,90.78665 33.48097,67.11203 z"/>
<path d="m 668.75951,124.01789 c 0.0175,-0.2218 0.19629,-0.49558 0.0525,-0.66541 -0.10315,-0.12186 -0.34431,0.0917 -0.4184,0.23317 -1.05408,2.0122 -1.93843,4.10893 -2.92744,6.1539 -1.68518,3.48444 -3.30935,7.0001 -5.09503,10.43411 -5.53008,10.63482 -10.29255,18.4891 -16.4364,29.05597 -25.84097,43.32449 -55.74429,83.99984 -86.48926,123.92381 -17.87995,22.848 -36.42043,45.19901 -56.10694,66.51904 -8.29251,8.98059 -13.34688,14.03602 -21.7385,22.61725 -6.91955,7.05835 -14.04533,13.90903 -21.17438,20.75398 -1.56727,1.50482 -7.00727,6.58397 -8.29637,8.28396 -2.55044,3.36341 -4.72489,6.99602 -7.08734,10.49403 0.95297,13.15972 -3.99171,28.20284 2.8589,39.47916 13.33069,21.94276 39.56848,17.58336 59.05232,14.51635 10.13713,-1.59572 29.79777,-5.34374 39.2959,-7.114 49.2236,-9.12919 98.5459,-17.89586 148.1927,-24.42939 10.5949,-1.39429 21.21723,-2.57162 31.82584,-3.85744 49.042,-5.55641 98.33635,-8.29498 147.6536,-9.70824 15.89567,-0.20401 8.5376,-0.20173 22.07405,-0.0832 53.03137,0.41672 53.6207,-74.58097 0.58933,-74.99769 v 0 c -15.50542,-0.10996 -7.23087,-0.12579 -24.82345,0.11203 -51.6169,1.4949 -103.20946,4.37554 -154.53537,10.22416 -11.10604,1.35129 -22.22627,2.59075 -33.31814,4.05388 -50.72128,6.69068 -101.1163,15.62606 -151.40699,24.95682 -9.37257,1.74863 -25.90728,4.89662 -35.98659,6.57315 -3.12784,0.52027 -6.29909,0.77963 -9.40959,1.39515 -0.31309,0.062 -0.9945,0.42535 -0.73596,0.6125 34.22017,24.77278 23.62951,4.44723 25.1043,53.07975 -1.61645,2.07449 -3.29294,4.10356 -4.84935,6.22346 -0.4344,0.59167 0.95777,-1.11454 1.47836,-1.63201 1.42237,-1.41383 2.90105,-2.76986 4.34758,-4.15896 7.67619,-7.37144 15.34064,-14.75742 22.79096,-22.35875 9.37491,-9.59955 14.47005,-14.69023 23.78282,-24.79429 20.98934,-22.77276 40.78163,-46.62192 59.85484,-71.01381 5.53189,-7.19002 11.12838,-14.3308 16.59568,-21.57006 26.86552,-35.57267 52.3672,-72.23092 75.32915,-110.45582 8.65482,-14.93898 17.19223,-29.78895 24.61208,-45.38637 3.43215,-7.21479 5.41492,-11.28742 7.86739,-18.82095 0.55252,-1.69722 0.84141,-3.4692 1.26211,-5.2038 9.50735,-52.173852 -64.27762,-65.619263 -73.78496,-13.44541 z"/>
<path d="m 636.87149,286.17478 c 2.04351,19.50651 1.58984,39.18648 1.46579,58.76743 -0.9304,46.62917 -2.25954,93.24701 -3.03475,139.87974 -0.52857,28.84251 -0.63901,57.72525 -2.75674,86.51103 -0.45565,6.19347 -1.109,12.3708 -1.6635,18.5562 -4.68466,52.82569 70.02215,59.4508 74.70681,6.62511 v 0 c 0.61077,-6.95452 1.32705,-13.90058 1.8323,-20.86356 2.16306,-29.80981 2.34396,-59.71503 2.87078,-89.58304 0.77848,-46.89456 2.13124,-93.7738 3.04369,-140.66525 0.13714,-23.0524 0.56742,-46.22209 -2.1252,-69.16172 -7.02444,-52.56574 -81.36362,-42.63168 -74.33918,9.93406 z"/>
<path d="m 484.80443,628.75306 c 9.45954,22.0668 15.43327,45.40454 22.19369,68.38653 6.04561,20.18662 12.10975,40.39388 19.55153,60.1212 3.65248,9.68232 4.62913,11.66263 8.55194,20.71277 4.76179,9.88897 2.34215,5.206 7.1992,14.07958 25.84559,46.30881 91.33613,9.75764 65.49055,-36.55117 v 0 c -2.44239,-4.17998 -1.0815,-1.71036 -3.9339,-7.48893 -10.22795,-23.31008 -17.75686,-47.63546 -24.90779,-72.0389 -7.4323,-25.26589 -14.13951,-50.8672 -24.53105,-75.12929 -19.73408,-49.22464 -89.34825,-21.31644 -69.61417,27.90821 z"/>
<path d="m 551.46517,649.86831 c 14.74314,-6.41665 29.79589,-12.14176 45.10668,-17.06076 5.71431,-1.83587 11.49025,-3.47407 17.23538,-5.2111 41.17749,-11.09643 83.37977,-17.72326 125.67347,-22.7637 13.15953,-1.37563 26.36265,-2.44589 39.59515,-2.73743 5.00329,-0.11023 10.05312,-0.16901 15.01935,0.5168 -10.73276,-0.39057 -17.50842,-8.35953 -23.35814,-16.52302 -1.54277,-2.15298 -1.29071,-5.26559 -2.81813,-7.42949 -0.55597,-0.78764 -0.28313,1.90742 -0.40462,2.86382 -0.32074,2.52488 -0.61468,5.05309 -0.92202,7.57963 -4.79686,32.30612 -12.21776,64.16069 -19.43339,95.99324 -6.55944,26.77154 -12.56327,53.82688 -21.92799,79.8055 -1.22005,3.38453 -2.61779,6.70234 -3.92668,10.05351 -1.15728,2.57772 -2.31456,5.15544 -3.47184,7.73316 -21.47225,48.49168 47.10533,78.85802 68.57758,30.36635 v 0 c 1.61814,-3.69012 3.23628,-7.38024 4.85442,-11.07036 1.69843,-4.43274 3.5013,-8.82685 5.09527,-13.29821 10.11109,-28.36336 16.87209,-57.79332 23.94441,-87.01335 7.83498,-34.57955 15.8895,-69.19253 20.83413,-104.32928 1.32324,-12.74167 3.81608,-30.24467 -2.07536,-42.18326 -7.5222,-15.2432 -13.97853,-19.72238 -28.35113,-25.2782 -2.85179,-1.10238 -5.98505,-1.25333 -8.97758,-1.88 -2.45544,-0.22329 -4.90514,-0.52283 -7.36632,-0.66987 -21.28444,-1.27162 -42.64161,1.17428 -63.8027,3.03226 -6.85145,0.82371 -13.71349,1.5637 -20.55436,2.47112 -39.74088,5.27152 -79.29563,12.51448 -118.00658,22.99988 -6.60333,2.01479 -13.24062,3.92146 -19.81,6.04437 -17.55546,5.67308 -34.80886,12.28589 -51.70635,19.68463 -48.29805,21.90429 -17.3207,90.20806 30.97735,68.30376 z"/>
<path d="m 579.34043,814.14832 c 18.24139,-3.85938 36.44837,-7.88057 54.87691,-10.78487 6.10191,-0.96165 12.23119,-1.74075 18.34678,-2.61112 24.66519,-3.12073 49.55206,-4.66498 74.40365,-3.39173 4.9059,0.25135 9.7949,0.76438 14.69235,1.14657 52.88481,3.96196 58.48788,-70.82845 5.60307,-74.79042 v 0 c -6.13057,-0.44399 -12.25162,-1.04876 -18.39172,-1.33199 -29.04516,-1.33977 -58.12781,0.41817 -86.94569,4.1259 -6.87357,0.99089 -13.76194,1.88407 -20.62071,2.97266 -18.21527,2.89105 -36.27027,6.67699 -54.26759,10.68097 -52.31461,8.6995 -40.01166,82.68353 12.30295,73.98403 z"/>
</svg>
