<?xml version="1.0" ?>
<svg xmlns="http://www.w3.org/2000/svg" viewBox="0 0 1000 1000">
<path d="m 200.4815,182.75852 c 14.29707,8.18758 27.44072,18.15459 40.60752,28.00428 9.3646,7.36862 15.53848,11.9223 24.28378,20.00601 3.91716,3.62082 7.58853,7.4988 11.3828,11.2482 37.90575,37.08981 90.35866,-16.51703 52.4529,-53.60683 v 0 c -4.9898,-4.84558 -9.83685,-9.84264 -14.9694,-14.53675 -10.27418,-9.39653 -17.40293,-14.67321 -28.25693,-23.19062 -16.74891,-12.50233 -33.55755,-25.12531 -52.01951,-35.03623 -47.45531,-23.674753 -80.93647,43.43718 -33.48116,67.11194 z"/>
<path d="m 116.56296,380.05282 c 23.17248,-7.0706 46.52807,-13.58769 70.12011,-19.11678 8.44508,-1.97921 16.93615,-3.75684 25.40422,-5.63527 36.25348,-7.40245 72.96297,-12.54453 109.85659,-15.37118 19.15297,-1.46743 24.34004,-1.41036 42.80389,-1.93433 12.9824,-0.24707 25.95931,0.11836 38.93033,0.59508 52.99833,1.91764 55.71028,-73.03331 2.71195,-74.95095 v 0 c -14.6066,-0.52117 -29.21978,-0.92063 -43.8383,-0.61198 -20.58027,0.6197 -26.22179,0.56241 -47.50752,2.22022 -40.0458,3.11892 -79.88868,8.75148 -119.23263,16.84043 -9.08302,2.02331 -18.19039,3.94026 -27.24906,6.06992 -25.20185,5.92487 -50.15449,12.8948 -74.903695,20.47775 -50.499513,16.19565 -27.595402,87.61275 22.904115,71.41709 z"/>
<path d="m 233.82088,472.24777 c 16.19563,-0.42614 32.25326,-2.80328 48.36488,-4.30919 4.83775,-0.45216 9.68285,-0.82186 14.52428,-1.2328 19.27074,-1.56279 38.59487,-2.07764 57.92051,-1.86299 53.03009,0.55602 53.81643,-74.43985 0.78633,-74.99588 v 0 c -21.71435,-0.21597 -43.42792,0.35563 -65.07916,2.13007 -5.2755,0.45177 -10.55476,0.86146 -15.82648,1.35529 -13.56589,1.27081 -27.07851,3.17471 -40.69036,3.9155 -53.03301,0 -53.03301,75 0,75 z"/>
<path d="m 233.09147,592.50267 c 17.73174,-1.13719 35.46841,-1.93885 53.23472,-2.3297 23.80478,-0.3008 47.58431,1.16721 71.35172,2.28538 52.97441,2.49224 56.49897,-72.4249 3.52456,-74.91714 v 0 c -25.49935,-1.19964 -51.01254,-2.74058 -76.55236,-2.34951 -17.20074,0.39007 -34.40536,0.90249 -51.55864,2.31097 -53.03301,0 -53.03301,75 0,75 z"/>
<path d="m 131.56374,722.18928 c 6.89247,24.49411 10.62107,49.73182 14.25774,74.86956 3.95509,29.66563 7.52995,59.38396 10.14932,89.19884 4.65058,52.8287 79.36165,46.25179 74.71107,-6.57691 v 0 c -2.75324,-31.21731 -6.47257,-62.33734 -10.63835,-93.3964 -4.19271,-28.79192 -8.5844,-57.6793 -16.6561,-85.69043 -15.27021,-50.78701 -87.09389,-29.19167 -71.82368,21.59534 z"/>
<path d="m 188.14095,753.17854 c 15.05001,-2.78093 29.95184,-6.32328 44.94772,-9.39258 17.79451,-3.47391 35.78873,-6.07726 53.85626,-7.63571 9.87482,-0.85177 13.35143,-0.85713 23.0576,-1.19967 12.34716,-0.30726 24.66456,0.60833 36.92311,1.9806 7.49229,1.08575 -2.11258,-0.42483 -3.78668,-1.49259 -4.91348,-3.13387 -10.0895,-6.18118 -13.93175,-10.56303 -3.10327,-3.5391 -4.25174,-8.39909 -6.37762,-12.59863 -0.17598,-0.22729 -0.48524,-0.96613 -0.52793,-0.68187 -0.31135,2.07302 -0.18325,4.18877 -0.31301,6.28102 -0.23388,3.77096 -0.45916,7.54315 -0.77787,11.30789 -1.33741,15.79795 -3.51591,31.44465 -5.83367,47.12218 -2.91605,18.63083 -6.98397,37.03546 -11.6147,55.30429 -12.97568,51.42112 59.74476,69.77151 72.72045,18.35039 v 0 c 5.21064,-20.72893 9.83462,-41.60065 13.09551,-62.73805 2.58376,-17.63946 5.01139,-35.24364 6.4643,-53.02008 0.4545,-5.56079 1.36945,-19.28847 1.20972,-25.32555 -0.10184,-3.84926 -0.61385,-7.67671 -0.92077,-11.51506 -2.48647,-5.97659 -3.57055,-12.75493 -7.45941,-17.92977 -8.62322,-11.47477 -20.44843,-15.75454 -33.65125,-17.04098 -15.93409,-1.76486 -31.95135,-2.84376 -47.99474,-2.38936 -12.17468,0.4685 -15.64621,0.45814 -28.05204,1.55192 -20.51313,1.80858 -40.9368,4.80004 -61.14071,8.75866 -13.51422,2.77206 -26.97735,5.77887 -40.47577,8.61644 -52.50236,7.48348 -41.91911,81.73303 10.58325,74.24954 z"/>
<path d="m 221.16234,893.07089 c 16.88863,-7.95687 34.76574,-13.79082 52.83369,-18.41247 5.89913,-1.50896 11.85914,-2.7691 17.78871,-4.15364 6.27165,-1.16822 12.54331,-2.33644 18.81497,-3.50466 52.11669,-9.81582 38.23502,-83.51995 -13.88167,-73.70413 v 0 c -7.37764,1.40253 -14.75528,2.80507 -22.13291,4.2076 -6.9975,1.66116 -14.03234,3.17223 -20.9925,4.98349 -23.25071,6.0506 -46.22097,13.7826 -67.78528,24.43984 -46.77085,24.99976 -11.41586,91.14373 35.35499,66.14397 z"/>
<path d="m 589.0601,171.19003 c 9.07943,6.88863 16.80775,15.28772 24.47247,23.66528 11.60411,12.68334 8.65037,9.45576 19.76236,22.8293 2.91241,4.15786 5.82483,8.31572 8.73724,12.47359 30.74103,43.21445 91.85549,-0.25994 61.11446,-43.47439 v 0 c -4.08581,-5.67994 -8.17162,-11.35988 -12.25743,-17.03982 -17.03187,-20.35273 -34.42841,-40.78942 -55.34036,-57.30799 -41.61609,-32.872504 -88.10483,25.98153 -46.48874,58.85403 z"/>
<path d="m 514.76574,333.14653 c 16.73463,-5.9419 34.03408,-10.35992 51.43021,-13.88306 7.33815,-1.48616 14.72706,-2.70967 22.09059,-4.0645 48.10214,-7.28342 96.82178,-10.39926 145.4616,-10.02723 9.06704,0.0693 18.12944,0.43264 27.19417,0.64897 30.94557,1.59454 62.33566,3.05085 92.39305,11.20199 1.36692,0.47518 2.73385,0.95035 4.10077,1.42553 50.37255,16.58632 73.82915,-54.65123 23.4566,-71.23755 v 0 c -2.84725,-0.91244 -5.69449,-1.82487 -8.54174,-2.73731 -3.6232,-0.92921 -7.221,-1.96382 -10.86961,-2.78762 -32.39399,-7.31411 -65.73134,-9.29075 -98.80012,-10.84488 -9.84504,-0.22224 -19.68778,-0.6027 -29.53511,-0.66672 -53.01929,-0.34465 -106.12267,3.15131 -158.52757,11.28076 -8.33228,1.55428 -16.69369,2.95982 -24.99685,4.66284 -20.22396,4.14804 -40.30111,9.39061 -59.76785,16.287 -50.02199,17.61535 -25.11013,88.35713 24.91186,70.74178 z"/>
<path d="m 625.98297,285.66306 c 0.21836,-1.23503 0.65744,-2.45091 0.65509,-3.7051 -5e-4,-0.26567 -0.50722,0.22853 -0.66121,0.44503 -1.23943,1.74247 -2.29862,3.60676 -3.48587,5.38521 -8.20836,12.2958 -17.04419,24.06978 -25.95235,35.86415 -17.00463,21.62278 -34.45654,42.94462 -53.15192,63.13907 -10.7499,11.61187 -12.93174,13.50799 -23.81366,24.17286 -11.26508,11.07136 -23.59572,20.92594 -35.77504,30.94063 -13.77091,16.44413 -18.2155,17.23997 -9.92618,49.08082 1.8693,7.18036 9.62968,11.3582 15.19172,16.26897 2.71851,2.40018 6.22235,3.73127 9.41307,5.45478 3.61686,1.9537 17.47687,8.67418 20.79565,10.29551 26.56333,12.51531 51.83015,27.48062 76.70685,43.02032 12.96609,8.40743 6.81392,4.34203 18.47495,12.16825 44.04877,29.53314 85.81493,-32.76122 41.76617,-62.29436 v 0 c -13.00286,-8.71006 -6.16541,-4.2008 -20.53139,-13.49887 -27.08689,-16.89195 -54.60706,-33.14049 -83.50259,-46.78724 -5.84888,-2.85574 -11.6598,-5.7896 -17.53043,-8.60037 -0.74035,-0.35447 -2.68443,-1.67792 -2.26152,-0.97441 2.49813,4.15561 8.07278,6.85653 8.6887,11.66593 3.93201,30.70333 3.25788,28.40774 -9.51274,42.01772 5.42204,-4.51693 -3.36067,2.77173 6.52879,-5.2437 11.7543,-9.5269 23.06424,-19.6019 34.03726,-30.01536 12.40356,-12.21322 14.86851,-14.36531 27.04254,-27.54927 20.12121,-21.79042 38.94355,-44.7581 57.23303,-68.09278 10.15687,-13.47792 20.35113,-26.91019 29.54822,-41.0743 3.80861,-5.8655 8.37032,-13.13029 10.983,-19.66962 1.29847,-3.24999 2.00995,-6.70476 3.01493,-10.05714 8.73753,-52.30828 -65.23755,-64.665 -73.97507,-12.35673 z"/>
<path d="m 710.70686,412.71083 c -3.20048,5.29221 -4.4755,7.32487 -7.94064,13.59398 -11.27554,20.39959 -2.72217,5.89128 -15.35103,28.01362 -9.41244,16.48804 -13.80687,23.52446 -23.99047,40.41749 -25.16501,40.28583 -51.24776,80.04627 -79.78417,118.04369 -17.67617,23.53656 -34.62028,44.28823 -53.04735,67.27168 -34.93082,43.38432 -72.39745,84.61865 -109.40325,126.21668 -35.24904,39.62329 20.78675,89.47296 56.03579,49.84968 v 0 c 37.85909,-42.55723 76.16764,-84.76121 111.88819,-129.15875 19.63032,-24.49619 36.40266,-45.01827 55.22799,-70.12995 29.78443,-39.73038 57.05671,-81.26651 83.32108,-123.38329 10.87204,-18.04864 15.21855,-24.99447 25.28504,-42.65195 13.98145,-24.52465 4.00235,-7.40348 14.88942,-27.19636 3.01764,-5.48613 4.96806,-8.64658 8.08551,-13.8479 26.19025,-46.11476 -39.02586,-83.15337 -65.21611,-37.03862 z"/>
<path d="m 789.78955,530.06036 c -7.2836,9.54929 -12.77881,20.26448 -18.65847,30.68599 -7.69903,13.6463 -8.63076,14.98536 -17.22517,29.38021 -18.936,30.88285 -39.81607,60.64135 -62.85274,88.61665 -17.68108,21.47157 -25.30235,29.0451 -44.3013,49.47723 -22.93965,23.54663 -46.86733,46.17974 -72.09071,67.27716 -7.63979,6.3901 -15.54469,12.45636 -23.31704,18.68454 -41.35079,33.20561 5.60903,91.68445 46.95982,58.47885 v 0 c 8.54998,-6.87902 17.24227,-13.58481 25.64994,-20.63704 27.21272,-22.82563 53.03105,-47.29961 77.76419,-72.77689 21.05076,-22.71042 28.72492,-30.30088 48.36923,-54.24403 24.99628,-30.46629 47.65855,-62.85162 68.22651,-96.44964 9.26935,-15.54701 10.14575,-16.78062 18.45046,-31.51263 2.72447,-4.83303 5.96224,-11.02482 8.94681,-15.94328 1.74633,-2.87789 2.66274,-4.05977 4.51134,-6.62013 31.40755,-42.73249 -29.02532,-87.14948 -60.43287,-44.41699 z"/>
<path d="m 724.48068,762.99523 c 10.59884,10.58843 20.84095,21.58641 30.38091,33.14519 2.72007,3.29568 5.30711,6.69895 7.96066,10.04843 9.86759,12.78177 18.00885,26.73582 25.15764,41.17916 23.69199,47.44671 90.79176,13.94117 67.09977,-33.50553 v 0 c -9.58236,-19.07005 -20.39749,-37.52281 -33.57122,-54.37407 -3.26738,-4.09108 -6.46066,-8.24244 -9.80213,-12.27322 -11.93213,-14.39361 -24.70483,-28.17022 -38.2669,-41.03582 -40.17489,-34.61905 -89.13362,22.19681 -48.95873,56.81586 z"/>
</svg>
