<?xml version="1.0" ?>
<svg xmlns="http://www.w3.org/2000/svg" viewBox="0 0 1000 1000">
<path d="m 202.91931,147.93186 c -0.0832,0.0924 -0.34145,0.19342 -0.24958,0.2772 1.66419,1.51783 3.52877,2.80206 5.23631,4.27095 5.60249,4.81948 11.02179,9.71797 15.96918,15.23252 7.10584,7.92043 8.97102,11.31542 15.06855,20.24423 2.67692,4.43733 5.35384,8.87467 8.03076,13.312 27.60692,45.28088 91.64375,6.2388 64.03683,-39.04208 v 0 c -3.52917,-5.7419 -7.05834,-11.48381 -10.58751,-17.22571 -3.79776,-5.35343 -7.37089,-10.87353 -11.39328,-16.06031 -10.06385,-12.97707 -21.67443,-24.4562 -34.23039,-34.992183 -2.80017,-2.34968 -5.63707,-4.66287 -8.59509,-6.81046 -2.82747,-2.05281 -5.83019,-3.85272 -8.74529,-5.77908 -47.07417,-24.42382 -81.61466,42.149113 -34.54049,66.572923 z"/>
<path d="m 91.83216,329.6277 c 37.08829,-7.51054 74.49645,-13.35288 111.87415,-19.20835 41.88937,-6.23769 84.03185,-11.2822 126.36778,-13.13726 23.20393,-1.01673 27.37343,-0.64232 49.65147,-0.28958 6.21022,0.31972 12.42045,0.63945 18.63068,0.95917 52.9663,2.65915 56.7269,-72.24651 3.7606,-74.90566 v 0 c -7.1005,-0.34853 -14.20101,-0.69706 -21.30151,-1.0456 -24.95687,-0.33393 -29.55587,-0.73817 -55.37213,0.42478 -44.67276,2.01238 -89.14507,7.30199 -133.34877,13.89851 -32.36587,5.07405 -26.55072,4.06374 -57.34134,9.2515 -17.99889,3.03254 -36.042172,6.00597 -53.912341,9.74818 -3.202102,0.67056 -6.380002,1.45189 -9.570004,2.17784 -51.001118,14.53912 -30.439704,86.66559 20.561415,72.12647 z"/>
<path d="m 215.82138,440.68585 c 22.74831,-1.66913 45.44557,-3.93316 68.18047,-5.76782 16.34787,-1.06673 32.71434,-2.70814 49.12137,-2.42015 4.47623,0.0786 8.94168,0.46642 13.41252,0.69964 52.97554,2.46828 56.46622,-72.45044 3.49068,-74.91873 v 0 c -6.04786,-0.25688 -12.09077,-0.69275 -18.14358,-0.77065 -18.01043,-0.23179 -35.97797,1.43356 -53.92353,2.6537 -23.33232,1.88889 -46.62915,4.17582 -69.9723,5.93431 -52.74288,5.53973 -44.90851,80.12943 7.83437,74.5897 z"/>
<path d="m 216.77166,568.04046 c 18.52228,-2.04311 37.12453,-3.24182 55.68929,-4.82948 16.79932,-1.42275 33.59862,-2.98213 50.44958,-3.67394 13.37014,-0.5489 18.36927,-0.3805 31.88091,-0.3387 53.03288,0.11526 53.19587,-74.88457 0.16299,-74.99982 v 0 c -6.14941,-0.008 -12.2993,-0.10282 -18.44822,-0.0251 -23.53957,0.29765 -47.00629,2.21613 -70.44197,4.3108 -19.34785,1.65784 -38.73629,2.8968 -58.03626,5.06763 -52.67138,6.18272 -43.9277,80.67129 8.74368,74.48857 z"/>
<path d="m 87.579265,665.21799 c 0.06555,1.69586 0.0819,3.39433 0.196638,5.08757 0.803983,11.86447 2.534749,23.68299 4.270771,35.43701 1.852931,12.54558 4.084803,26.12114 6.093248,38.59448 6.894358,41.46283 12.790988,83.07691 17.778148,124.80968 0.50478,4.54606 1.00956,9.09211 1.51434,13.63817 5.85765,52.70852 80.39875,44.42456 74.54111,-8.28396 v 0 c -0.52866,-4.75304 -1.05732,-9.50608 -1.58597,-14.25912 -5.11408,-42.74161 -11.14168,-85.36419 -18.20182,-127.83034 -3.59702,-22.32852 -7.52608,-44.66006 -9.60646,-67.19349 0,-53.03301 -75.000005,-53.03301 -75.000005,0 z"/>
<path d="m 171.55445,718.48179 c 21.63462,-11.64745 45.82095,-17.47542 69.4797,-23.42637 6.44536,-1.42852 12.87378,-2.93583 19.3361,-4.28556 13.03069,-2.72161 23.35664,-4.62928 36.47467,-6.52182 13.95515,-2.0133 27.97422,-3.27988 42.02096,-4.41132 6.93373,-0.43482 13.87319,-0.93852 20.82251,-1.06154 1.31582,-0.0233 2.64977,-0.12169 3.9468,0.10113 0.31391,0.0539 -0.63702,1.7e-4 -0.95552,2.5e-4 -11.50666,-1.58084 -18.69778,-6.93955 -25.64252,-16.6453 -7.53494,-10.53059 -2.59239,-7.05426 -4.84101,-14.21648 -0.14895,-0.47443 -0.0659,0.99235 -0.0988,1.48853 -0.38763,19.01299 -2.04945,37.97534 -5.2536,56.72615 -0.97994,5.73464 -2.17602,11.43025 -3.26402,17.14537 -6.24547,28.11607 -13.13972,56.08277 -19.77477,84.10866 -12.21768,51.60648 60.7649,68.88488 72.98257,17.27841 v 0 c 6.90021,-29.14595 14.10306,-58.22359 20.49289,-87.48714 1.25338,-6.69946 2.63721,-13.37581 3.76013,-20.09836 3.66862,-21.96291 5.59543,-44.16795 6.04641,-66.42444 0.0429,-9.10296 -0.12041,-18.60784 -5.45247,-26.62833 -8.02222,-12.06703 -16.86559,-17.53534 -30.54134,-19.77367 -12.75792,-1.14716 -25.54692,-0.12581 -38.29871,0.73291 -11.77983,0.96375 -17.04795,1.30379 -29.23215,2.72419 -27.24667,3.17636 -54.24456,8.11513 -80.91352,14.53676 -6.94477,1.76407 -13.92222,3.40411 -20.8343,5.2922 -24.26902,6.62926 -48.51592,14.69641 -70.32486,27.44385 -44.831931,28.33017 -4.76702,91.73208 40.0649,63.40192 z"/>
<path d="m 182.60041,868.81078 c 32.69242,-8.84981 64.96421,-19.16473 97.27208,-29.30554 34.22666,-9.99521 16.89423,-5.15658 52.00388,-14.4923 51.24668,-13.64836 31.94499,-86.12211 -19.30169,-72.47375 v 0 c -37.3271,9.95608 -18.9422,4.80963 -55.16336,15.40841 -31.67714,9.94339 -63.31616,20.06689 -95.3726,28.73678 -51.00106,14.53931 -30.43938,86.6657 20.56169,72.1264 z"/>
<path d="m 503.12918,201.70733 c 33.87089,-1.82101 67.53288,-6.35579 101.18693,-10.42662 47.33078,-5.8529 94.80318,-10.99507 142.47811,-12.94199 7.0529,-0.28802 14.11251,-0.37695 21.16877,-0.56543 20.97581,0.12508 11.19049,-0.11102 29.35886,0.57508 52.99812,1.92317 55.71789,-73.0275 2.71976,-74.95067 v 0 c -21.32969,-0.74748 -9.95553,-0.50453 -34.12506,-0.59649 -7.6982,0.21426 -15.40004,0.32347 -23.09459,0.64278 -49.35709,2.04826 -98.51075,7.31454 -147.51376,13.37964 -31.96773,3.86815 -63.94119,8.21592 -96.11211,9.9869 -52.96004,2.78111 -49.02695,77.67792 3.93309,74.8968 z"/>
<path d="m 585.96282,77.863066 c 0.7164,18.059111 -1.11362,35.998554 -5.43528,53.561664 -1.94005,7.8843 -4.45375,15.61627 -6.68063,23.42441 -3.27604,9.19993 -6.22941,18.52121 -9.82811,27.59977 -9.14737,23.07634 -18.09682,41.31125 -29.83008,63.3496 -13.39252,25.15488 -25.83215,46.40498 -41.36455,70.37351 -7.65859,11.81819 -15.82,23.30284 -23.72999,34.95427 -19.22759,26.47109 -28.06984,39.33023 -48.38635,64.65211 -8.41077,10.48294 -17.20219,20.65473 -25.80328,30.98209 -33.91354,40.7722 23.74706,88.73318 57.6606,47.96098 v 0 c 9.17586,-11.04481 18.55171,-21.92649 27.5276,-33.13442 21.51834,-26.86933 30.7141,-40.28323 51.08782,-68.38607 8.49589,-12.55749 17.26411,-24.93497 25.48767,-37.67247 16.38665,-25.38132 30.4023,-49.31769 44.50254,-75.98978 13.25177,-25.06711 23.30949,-45.83291 33.57409,-72.13341 4.15924,-10.65704 7.56038,-21.59463 11.34056,-32.39195 2.7127,-9.8879 5.8282,-19.67402 8.13808,-29.66371 5.93978,-25.68816 8.37385,-52.354991 5.90583,-78.636838 -7.88442,-52.443647 -82.05093,-41.293402 -74.16652,11.150244 z"/>
<path d="m 677.02662,281.86392 c 15.83942,17.55875 30.91263,35.79942 45.98959,54.01246 23.4788,27.60658 44.91079,56.82761 66.92119,85.58877 7.8007,10.09685 15.9734,19.90918 24.5454,29.36079 4.12746,4.55099 9.19947,9.95135 13.75381,14.0825 2.75113,2.49549 5.66605,4.80423 8.49907,7.20635 19.37696,14.67517 39.94076,27.68215 60.3796,40.80534 4.99714,3.07261 9.99427,6.14522 14.9914,9.21783 45.18794,27.75879 84.44479,-36.14661 39.25686,-63.9054 v 0 c -4.57709,-2.8088 -9.15417,-5.6176 -13.73126,-8.42639 -17.86457,-11.46648 -35.78815,-22.87449 -52.95877,-35.37122 -1.40964,-1.12397 -2.87478,-2.18164 -4.22891,-3.3719 -3.33627,-2.93253 -6.88935,-6.75138 -9.83524,-9.98456 -7.38289,-8.10291 -14.41736,-16.52264 -21.11597,-25.19935 -22.59699,-29.51592 -44.6097,-59.49651 -68.70743,-87.8322 -15.30309,-18.4809 -30.59656,-36.99868 -46.66761,-54.81978 -34.39139,-40.36995 -91.48311,8.26681 -57.09173,48.63676 z"/>
<path d="m 598.43862,424.92305 c 6.76694,5.94618 12.89151,12.56434 19.36881,18.81465 5.77932,5.5768 11.64206,11.06664 17.42979,16.6347 2.66528,2.90958 5.33055,5.81916 7.99583,8.72873 36.02966,38.91483 91.06354,-12.0388 55.03388,-50.95363 v 0 c -3.6795,-3.94328 -7.359,-7.88655 -11.0385,-11.82983 -5.55725,-5.34394 -11.18845,-10.61068 -16.73895,-15.96163 -7.16332,-6.90579 -13.94688,-14.20896 -21.43323,-20.77606 -39.13347,-35.79207 -89.75109,19.551 -50.61763,55.34307 z"/>
<path d="m 468.40728,609.53189 c 29.38119,-4.44267 58.57532,-10.05543 87.87303,-15.0185 46.00461,-7.20495 92.53551,-11.73179 139.13246,-11.84908 8.02311,-0.0202 16.04388,0.27693 24.06582,0.41539 26.33881,1.76013 53.42478,2.64832 78.72903,10.92866 50.61532,15.83002 73.00235,-55.75085 22.38704,-71.58087 v 0 c -9.34604,-2.85061 -11.56405,-3.73453 -21.73496,-5.84207 -25.70156,-5.3257 -52.00562,-7.25355 -78.16834,-8.49591 -8.95614,-0.13612 -17.91133,-0.44627 -26.86842,-0.40835 -50.26373,0.21283 -100.45302,5.0725 -150.07479,12.88667 -28.21804,4.78444 -56.34605,10.12308 -84.62289,14.54065 -52.6253,6.56337 -43.34328,80.98679 9.28202,74.42341 z"/>
<path d="m 583.3436,574.98611 c -0.0518,-0.27355 -8.4e-4,-1.05213 -0.15553,-0.82065 -0.56948,0.85222 -0.77767,1.89698 -1.1906,2.8351 -0.94382,2.14418 -1.89307,4.28626 -2.87941,6.41122 -1.51046,3.2541 -3.04857,6.49546 -4.61061,9.72512 -5.85513,12.10598 -5.56827,11.33353 -11.88826,23.48251 -9.71207,18.62366 -21.05322,36.30547 -32.2999,54.01828 -1.14254,2.01538 -2.5032,3.92184 -3.42762,6.04612 -6.21989,14.29303 -9.95313,28.16479 2.33894,44.08389 7.19502,9.31806 20.08936,12.70508 31.24602,16.4632 3.88481,1.30859 22.99768,-1.92393 27.69574,-2.61931 32.78935,-5.61257 65.9373,-8.40301 99.11426,-10.38134 22.89128,-0.60871 46.19665,-2.61985 68.87446,1.58241 0.89606,0.30438 1.84057,0.49225 2.68817,0.91313 0.114,0.0566 -0.0929,0.33492 -0.21834,0.31326 -0.7419,-0.12817 -1.4846,-0.35123 -2.14056,-0.72077 -3.85368,-2.17098 -6.17093,-4.49233 -8.64215,-8.42378 -1.1878,-1.88967 -1.80264,-4.0838 -2.70397,-6.12569 -0.23538,-0.64954 -0.0424,-1.75679 -0.70613,-1.94862 -0.54386,-0.15719 -0.54006,1.00021 -0.72951,1.53368 -0.63746,1.79507 -1.12782,3.63965 -1.74733,5.44098 -3.66845,10.66662 -8.04402,20.98849 -12.50061,31.34436 -12.61595,27.49325 -27.27111,54.0175 -43.06724,79.79864 -5.09777,8.0485 -10.55278,15.8796 -16.70181,23.16453 -2.61961,3.10354 -5.34964,6.1547 -8.50798,8.71702 -0.0474,-0.0426 -0.1866,-0.082 -0.14225,-0.1278 1.15945,-1.19685 3.53994,-2.4127 4.7982,-2.84624 12.79795,-4.40955 0.81519,0.28536 13.18768,-1.8735 0.41754,-0.0729 -0.65423,-0.53902 -0.98135,-0.80854 -10.53361,-4.56845 -20.37011,-10.50035 -30.23661,-16.31847 -45.75978,-26.80565 -83.66869,37.90845 -37.90891,64.7141 v 0 c 13.62321,7.93812 27.23188,16.00145 41.9219,21.87045 10.60392,3.55617 14.33091,5.73399 26.17922,5.48813 12.62085,-0.26189 23.68263,-6.45358 33.16157,-14.17805 1.84812,-1.69612 3.75364,-3.33176 5.54437,-5.08837 13.14968,-12.89907 23.73351,-28.17 33.67093,-43.58622 17.62599,-28.8736 34.04246,-58.53909 48.01321,-89.3702 5.62765,-13.16626 11.33673,-26.32371 15.60346,-40.01602 2.45222,-7.86938 4.84185,-16.77161 5.39027,-25.04509 0.29338,-4.42601 -0.18658,-8.86948 -0.27987,-13.30423 -1.4004,-5.00927 -2.07229,-10.28213 -4.20121,-15.02783 -6.88563,-15.34917 -20.93165,-25.00824 -36.4647,-29.97201 -3.22582,-1.03085 -6.56811,-1.65351 -9.85216,-2.48027 -3.5568,-0.56619 -7.09628,-1.25464 -10.67039,-1.69859 -24.90784,-3.09387 -50.13427,-1.68092 -75.12206,-0.78578 -35.42467,2.13743 -70.81906,5.13051 -105.83601,11.08974 -2.99813,0.46657 -6.052,0.65892 -8.99439,1.39972 -0.2738,0.0689 0.0902,0.62062 0.32034,0.78413 7.4801,5.31356 17.9642,7.71 22.70003,15.56861 11.73794,19.47787 6.82485,22.75858 1.50154,34.84055 -0.33496,0.76024 0.76663,-1.47407 1.14995,-2.21111 12.4064,-19.54343 24.85316,-39.09088 35.54239,-59.65092 6.53063,-12.59417 13.08623,-25.20216 18.85102,-38.17361 3.4239,-7.70417 6.26175,-14.35823 8.35313,-22.49069 0.76197,-2.96298 1.1183,-6.0157 1.67746,-9.02355 4.60441,-52.83275 -70.11238,-59.34438 -74.71679,-6.51163 z"/>
</svg>
