<?xml version="1.0" ?>
<svg xmlns="http://www.w3.org/2000/svg" width="1000" height="1000">
<path d="m 200.84167,189.00501 c 17.13546,10.3282 32.01271,23.75725 46.88643,37.00884 4.25355,3.8098 8.50709,7.61961 12.76064,11.42941 39.50434,35.3823 89.54247,-20.48528 50.03813,-55.86758 v 0 c -4.3133,-3.86314 -8.6266,-7.72628 -12.93989,-11.58943 -18.55828,-16.49755 -37.33329,-32.95281 -58.78195,-45.66342 -45.73721,-26.844142 -83.70056,37.83803 -37.96336,64.68218 z"/>
<path d="m 105.43258,344.83028 c 23.2292,-7.54472 47.14046,-12.48487 71.04835,-17.29426 44.72813,-8.27086 89.99184,-13.69367 135.42164,-16.03143 8.15197,-0.41949 16.31415,-0.60865 24.47123,-0.91298 17.25807,-0.58438 34.50576,0.004 51.73997,0.82988 52.97473,2.4856 56.48989,-72.43198 3.51516,-74.91758 v 0 c -19.35161,-0.89083 -38.71747,-1.53803 -58.09337,-0.85858 -8.83309,0.3391 -17.67184,0.5537 -26.49928,1.0173 -48.77856,2.56172 -97.37743,8.41495 -145.39489,17.35613 -8.15242,1.65071 -16.32684,3.19624 -24.45726,4.95212 -18.12541,3.91442 -36.05773,8.65682 -53.762974,14.16214 -50.697618,15.56443 -28.68619,87.26169 22.011424,71.69726 z"/>
<path d="m 219.12391,440.8588 c 16.69742,-2.11986 33.25243,-5.19005 49.98499,-7.07751 5.20813,-0.58749 10.43225,-1.02337 15.64837,-1.53505 22.06087,-1.76893 44.20056,-1.08798 66.20598,0.96189 52.81437,4.81059 59.61758,-69.88021 6.8032,-74.6908 v 0 c -26.73462,-2.39116 -53.62074,-3.19908 -80.4071,-0.90533 -5.94126,0.59426 -11.89133,1.10616 -17.82376,1.78279 -15.44854,1.76198 -30.79509,4.28499 -46.15109,6.68394 -52.8775,4.05837 -47.13809,78.83844 5.73941,74.78007 z"/>
<path d="m 234.60881,559.30811 c 14.37648,-4.52016 29.1292,-8.01292 43.96259,-10.6762 4.67068,-0.8386 9.37658,-1.46754 14.06487,-2.20131 13.24587,-1.50292 26.62424,-2.14786 39.93101,-1.051 7.38392,0.60865 10.57903,1.41792 17.56152,2.79275 52.14078,9.68702 65.8403,-64.05118 13.69952,-73.73821 v 0 c -11.93449,-2.13639 -15.78933,-3.12785 -28.42878,-4.00104 -18.1958,-1.25705 -36.46707,-0.32282 -54.54534,1.92873 -5.75903,0.92807 -11.53807,1.73955 -17.2771,2.78423 -19.20062,3.49511 -38.33507,8.07259 -56.76868,14.50476 -49.25514,19.65784 -21.45475,89.31513 27.80039,69.65729 z"/>
<path d="m 101.47236,654.10825 c 0.26494,18.79571 5.34613,37.08878 9.83756,55.20531 3.43086,13.83864 7.57962,30.14065 11.05689,43.87044 10.76436,43.9095 25.42166,86.69673 42.06178,128.68886 19.55679,49.29536 89.27094,21.63788 69.71415,-27.65748 v 0 c -15.47876,-38.96667 -29.09515,-78.68144 -39.07152,-119.4452 -4.64667,-18.34637 -6.46279,-25.4392 -10.93351,-43.37625 -2.48848,-9.98408 -4.48558,-17.50969 -6.42102,-27.30995 -0.40866,-2.06929 -0.62115,-4.17374 -1.01744,-6.24543 -0.0419,-0.2188 -0.1948,-0.4007 -0.2922,-0.60104 2.21272,-52.98683 -72.72197,-56.11609 -74.93469,-3.12926 z"/>
<path d="m 191.00676,703.98247 c 17.72731,-8.77742 35.96256,-16.60644 54.66535,-23.07021 5.93928,-2.05264 11.95674,-3.87166 17.93512,-5.80749 21.36029,-6.77414 43.28577,-11.55933 65.51688,-14.32714 9.95417,-1.2393 12.49583,-1.283 21.93303,-1.90005 3.81509,-0.0905 8.00556,-0.31143 11.86668,-0.0382 0.50904,0.036 2.00881,0.29217 1.49887,0.31169 -9.00941,0.34477 -14.05519,-6.06455 -19.84605,-11.57487 -0.9075,-1.46347 -1.28927,-3.43587 -2.72251,-4.39041 -0.67602,-0.45022 -0.19974,1.61432 -0.22694,2.42609 -0.37429,11.17019 0.35163,5.59066 -0.83274,18.93824 -1.10155,12.41421 -1.92683,16.76274 -3.76704,29.40466 -4.50806,27.62506 -11.38092,54.81476 -19.95452,81.44371 -16.19359,50.50017 55.22445,73.40136 71.41803,22.90119 v 0 c 9.79016,-30.63489 17.71536,-61.88322 22.77258,-93.66769 2.44449,-17.17155 4.89652,-34.29773 5.24953,-51.67486 0.16126,-7.93839 -0.058,-20.59794 -2.01676,-28.42931 -1.33029,-5.31856 -3.71312,-10.31696 -5.56968,-15.47544 -3.998,-4.78873 -7.21758,-10.35349 -11.99399,-14.36618 -14.32018,-12.03045 -33.60776,-11.26283 -50.9705,-10.63538 -11.79207,0.8277 -15.30916,0.91957 -27.5925,2.50186 -26.45598,3.40796 -52.55435,9.16477 -77.98389,17.23754 -6.93775,2.26994 -13.92136,4.40424 -20.81327,6.80981 -13.09922,4.57218 -22.85372,8.50961 -35.44451,13.93034 -7.07985,3.0481 -17.64223,7.8123 -24.74733,11.44132 -2.90225,1.48235 -5.71693,3.13026 -8.57539,4.6954 -44.77072,28.42679 -4.56917,91.74215 40.20155,63.31536 z"/>
<path d="m 236.08083,862.81251 c 2.5226,0.33204 -0.0707,0.0574 6.06395,-3.22206 12.67478,-6.77566 18.20058,-9.37767 32.26558,-15.84009 8.51355,-3.9117 43.47913,-19.48073 51.11746,-22.88851 36.90137,-15.67263 18.33146,-8.18312 55.70819,-22.47242 49.52112,-18.97783 22.68242,-89.01128 -26.83871,-70.03345 v 0 c -40.28095,15.47086 -20.47729,7.45287 -59.42736,24.01342 -8.49067,3.78817 -43.72714,19.47274 -52.66535,23.60028 -16.95234,7.82838 -34.32375,15.70779 -49.89594,26.14707 -2.3424,1.5703 -4.47768,3.42945 -6.71652,5.14417 -39.28091,35.6302 11.10779,91.18178 50.3887,55.55159 z"/>
<path d="m 465.83713,173.51056 c 11.51523,12.3909 21.66034,25.96577 32.38405,39.03316 3.90287,4.75585 7.86065,9.46637 11.79097,14.19956 13.86881,17.06388 7.23962,8.74956 19.91721,24.91928 32.73725,41.72257 91.74187,-4.5749 59.00462,-46.29746 v 0 c -13.65281,-17.38765 -6.58402,-8.53397 -21.22846,-26.54338 -11.67711,-14.05379 -10.48927,-12.51307 -21.74721,-26.49101 -10.57491,-13.12987 -20.92388,-26.62988 -33.71199,-37.73693 -41.66045,-32.816258 -88.06965,26.10052 -46.40919,58.91678 z"/>
<path d="m 693.09872,107.85058 c -3.86864,14.10619 -10.23359,27.3932 -16.77611,40.41496 -11.7657,23.4176 -13.34554,25.28403 -26.89893,48.60553 -22.51337,35.57411 -11.08326,17.56213 -34.29396,54.03362 -28.47321,44.74122 34.80043,85.00841 63.27363,40.2672 v 0 c 23.85913,-37.49146 11.88733,-18.59314 35.91219,-56.69701 14.17768,-24.52945 17.58572,-29.47543 29.86287,-54.26267 9.99164,-20.17283 19.5792,-41.05023 23.38371,-63.40606 6.33254,-52.653576 -68.13086,-61.609142 -74.4634,-8.95557 z"/>
<path d="m 428.57896,320.30424 c 3.99418,24.1648 8.80166,48.18609 13.57342,72.20637 8.49512,39.99815 14.91032,80.37296 20.45268,120.87126 0.54412,4.21931 1.08825,8.43861 1.63237,12.65791 6.7876,52.59685 81.17077,42.99773 74.38317,-9.59912 v 0 c -0.56967,-4.4114 -1.13933,-8.8228 -1.709,-13.2342 -5.75264,-41.9842 -12.40906,-83.84119 -21.19707,-125.31125 -4.62377,-23.26927 -9.28955,-46.53845 -13.1605,-69.94769 -8.73752,-52.30828 -82.71259,-39.95155 -73.97507,12.35672 z"/>
<path d="m 519.64127,363.73728 c 18.75874,-5.91945 37.36138,-12.34009 56.40732,-17.31366 6.63569,-1.73282 13.32629,-3.24812 19.98943,-4.87218 34.2029,-7.90883 68.99576,-13.21372 103.99607,-15.91489 5.51651,-0.42574 11.04466,-0.68444 16.56698,-1.02665 17.6545,-0.66749 35.49944,-0.94713 52.98172,1.99406 1.93849,0.41574 3.90598,0.75237 5.81771,1.28929 0.17299,0.0486 -0.35755,-0.0487 -0.52966,-0.10031 -3.35546,-1.00721 -2.74029,-0.97198 -6.93017,-3.00985 -10.17681,-8.87407 -11.48788,-7.85833 -16.26461,-21.88276 -0.98143,-2.8815 -0.5874,-6.06154 -1.00954,-9.07618 -0.0137,-0.0977 -0.21313,0.0821 -0.23646,0.178 -0.48009,1.97252 -0.81136,3.9786 -1.25723,5.95914 -0.72349,3.21373 -1.50043,6.41518 -2.25065,9.62278 -6.16364,24.04341 -11.14313,48.39794 -17.99229,72.26568 -5.17764,18.04282 -7.64426,24.29141 -13.83458,42.00013 -6.76265,18.36774 -13.86484,36.66137 -23.05516,53.97869 -5.81359,10.95454 -8.98962,15.42638 -15.55484,25.58814 -28.61435,44.65107 34.53181,85.11788 63.14616,40.4668 v 0 c 8.67303,-13.62015 12.10246,-18.41063 19.81887,-33.1784 10.45175,-20.00273 18.73463,-41.01688 26.47179,-62.1862 7.18196,-20.68667 9.48363,-26.39088 15.52197,-47.52004 7.02552,-24.58346 12.20363,-49.64642 18.52486,-74.40987 2.60847,-11.24985 7.89554,-29.17346 4.79118,-40.5326 -4.23369,-15.49145 -7.04497,-15.52921 -17.76608,-25.30325 -2.06277,-1.06552 -4.07392,-2.23756 -6.18832,-3.19656 -6.11982,-2.7757 -12.95001,-3.6287 -19.44919,-5.02272 -22.97439,-3.5368 -46.26613,-3.99437 -69.46267,-2.77611 -6.23107,0.39691 -12.46874,0.70103 -18.6932,1.19074 -38.7083,3.04536 -77.18237,8.96611 -115.00343,17.7558 -7.50442,1.84567 -15.03952,3.5708 -22.51325,5.53703 -19.28853,5.0745 -38.18119,11.4449 -57.16168,17.53075 -50.88708,14.93335 -29.76813,86.89855 21.11895,71.9652 z"/>
<path d="m 528.12171,545.3804 c 25.05178,-4.96504 50.41889,-8.09131 75.76804,-11.06851 25.92706,-2.72709 51.89007,-5.31283 77.92887,-6.71813 12.91492,-0.69701 16.54446,-0.67342 28.93472,-0.9201 3.51888,-0.0128 7.03775,-0.0257 10.55663,-0.0385 53.03255,-0.21886 52.72304,-75.21822 -0.30952,-74.99936 v 0 c -3.93015,0.0179 -7.8603,0.0358 -11.79045,0.0537 -13.98018,0.29612 -17.71123,0.26803 -32.25213,1.0619 -27.34463,1.49289 -54.6115,4.1943 -81.83829,7.07499 -27.10053,3.1984 -54.21638,6.56609 -81.00088,11.8728 -52.10046,9.90162 -38.09745,83.5828 14.00301,73.68117 z"/>
<path d="m 541.25575,528.76655 c -0.62393,10.92751 -2.94976,21.68609 -5.4272,32.31659 -4.39526,18.85968 -4.17135,17.00406 -9.93176,36.52912 -10.81651,32.75845 -26.70094,63.60411 -45.29354,92.59746 -12.69667,19.79923 -19.52791,28.29416 -33.54095,47.11894 -22.52577,27.60759 -11.36411,14.427 -33.39967,39.61388 -34.88252,39.94634 21.61013,89.27767 56.49265,49.33133 v 0 c 24.43332,-28.02795 12.02352,-13.31306 37.12278,-44.23434 15.83804,-21.37901 23.27784,-30.63537 37.64837,-53.2613 21.88854,-34.46281 40.37392,-71.17331 52.94485,-110.0787 2.20133,-7.55866 4.55596,-15.07434 6.60398,-22.67596 1.72128,-6.38884 3.22851,-12.83453 4.70119,-19.28521 3.27278,-14.33562 6.13291,-28.84522 6.9493,-43.55784 3.12115,-52.94109 -71.74885,-57.35506 -74.87,-4.41397 z"/>
<path d="m 593.4992,627.58341 c 2.5694,15.80485 3.41401,31.82026 4.31138,47.78573 1.59677,29.74428 1.92285,59.54794 3.75523,89.2807 0.35232,5.71693 0.82821,11.42558 1.24232,17.13838 2.12622,21.91881 4.57786,44.07844 10.9469,65.25307 0.96813,3.21866 2.15633,6.36698 3.2345,9.55047 4.49178,11.37879 10.15081,22.51421 18.8983,31.27254 7.48325,7.49251 9.63298,8.0157 18.75376,13.5253 3.50371,1.47284 6.93475,3.13214 10.51112,4.41853 19.4394,6.99219 41.48265,8.78106 61.91929,10.574 29.85969,2.25712 59.81192,1.31964 89.69401,0.17866 20.99828,-0.9738 42.02255,-1.35421 63.00045,-2.73217 9.76067,-1.0815 21.02868,-1.83582 29.15213,-8.22027 6.4282,-5.05209 12.31245,-11.14409 16.44308,-18.19982 6.86744,-11.73061 6.65541,-27.2693 7.65397,-40.15134 0.13009,-32.24825 0.26118,-15.60596 -0.47252,-49.92618 -1.15339,-53.02047 -76.13565,-51.38933 -74.98226,1.63114 v 0 c 0.68975,31.13204 0.53222,16.52542 0.5885,43.81847 -0.0752,3.21438 -1.27555,6.60418 -0.22548,9.64313 0.4117,1.19149 1.65919,-1.90964 2.61278,-2.73414 11.74131,-10.15196 7.42664,-8.30583 18.92721,-11.46764 0.26423,-0.0726 -0.50262,0.21855 -0.75392,0.32782 -1.30384,0.14785 -2.60768,0.2957 -3.91151,0.44355 -20.27658,1.36314 -40.60671,1.63245 -60.90247,2.62238 -26.7751,1.02851 -53.61235,1.96355 -80.3744,0.0442 -14.40539,-1.2187 -28.85481,-2.53725 -42.90926,-6.08151 0.49793,2.05599 -0.33342,-1.17707 0.64697,1.69927 0.0747,0.21921 0.32991,0.71379 0.0998,0.68759 -1.05545,-0.12021 -3.24015,-5.5964 -3.5702,-6.1213 -6.61214,-17.71215 -8.19398,-36.86512 -10.17976,-55.51586 -2.57628,-35.02552 -3.25889,-70.1351 -4.91911,-105.21007 -1.09096,-19.04549 -2.18432,-38.14912 -5.40585,-56.98009 -9.50734,-52.17384 -83.2923,-38.72843 -73.78496,13.44542 z"/>
</svg>
