<?xml version="1.0" ?>
<svg xmlns="http://www.w3.org/2000/svg" width="1000" height="1000">
<path d="m 165.58946,184.75619 c 13.84876,2.49056 26.54368,8.71689 39.09193,14.79727 9.26058,4.48178 18.02442,9.84822 26.71431,15.32452 44.94902,28.144 84.75065,-35.42352 39.80162,-63.56752 v 0 c -11.08407,-6.90597 -22.2497,-13.69236 -34.03776,-19.36002 -4.44528,-2.12149 -8.84177,-4.34839 -13.33584,-6.36447 -15.07633,-6.76341 -30.79266,-12.28511 -47.13294,-15.00363 -52.44884,-7.84982 -63.55015,66.32404 -11.10132,74.17385 z"/>
<path d="m 87.081062,338.4543 c 21.523188,-7.22094 43.437958,-13.21339 65.576588,-18.2283 7.93539,-1.79755 15.91138,-3.41089 23.86707,-5.11633 26.50542,-5.33819 53.25985,-9.45903 80.15092,-12.28193 16.37364,-1.71883 30.92388,-2.85813 47.31744,-3.02005 6.31145,-0.0623 12.62035,0.28228 18.93053,0.42342 19.60371,1.73014 10.38863,0.59453 27.66947,3.20392 52.48281,7.61942 63.25829,-66.60247 10.77548,-74.22189 v 0 c -23.42486,-3.30164 -11.09252,-1.9078 -37.02047,-3.9685 -7.76838,-0.12631 -15.53649,-0.48671 -23.30515,-0.37891 -18.3644,0.25482 -35.1772,1.57144 -53.46756,3.51615 -29.12504,3.09672 -58.10012,7.5951 -86.80663,13.40147 -8.56798,1.84508 -17.15861,3.58795 -25.70394,5.53523 -24.9068,5.67568 -49.568292,12.46089 -73.751981,20.70137 -49.804609,18.22089 -24.036376,88.65525 25.768233,70.43435 z"/>
<path d="m 186.04443,474.00286 c 9.97866,-6.22193 21.47268,-9.30765 32.6765,-12.49654 28.28438,-6.97441 57.45779,-8.89964 86.47824,-9.69503 11.72777,-0.20517 23.44887,0.0959 35.15341,0.80827 52.9391,3.1546 57.40038,-71.7126 4.46128,-74.8672 v 0 c -13.90743,-0.81469 -27.83341,-1.19364 -41.76671,-0.91018 -5.43753,0.16213 -10.87838,0.23659 -16.31259,0.4864 -29.92564,1.37566 -59.8901,4.72215 -88.9573,12.16133 -4.8918,1.44439 -9.82506,2.75512 -14.67539,4.33318 -13.90213,4.52307 -27.4927,10.33651 -39.68375,18.4708 -43.634838,30.14135 -1.00853,91.85033 42.62631,61.70897 z"/>
<path d="m 196.83625,605.03594 c 10.37269,-4.91779 20.97853,-9.38538 31.88382,-12.99328 3.84104,-1.27077 7.73883,-2.36309 11.60824,-3.54463 26.84138,-7.39379 54.57829,-10.25615 82.29291,-11.69862 12.99622,-0.28953 6.79633,-0.22374 18.59922,-0.23557 53.0329,-0.10948 52.87807,-75.10932 -0.15482,-74.99984 v 0 c -14.17688,0.0419 -6.69393,-0.0547 -22.4481,0.34235 -4.78534,0.26152 -9.57549,0.4462 -14.35601,0.78454 -29.05076,2.05605 -57.99924,6.32281 -86.08511,14.15316 -4.99266,1.55818 -10.02035,3.00824 -14.97797,4.67453 -14.24182,4.78676 -28.12537,10.66649 -41.59513,17.3083 -46.81687,24.91345 -11.58393,91.12251 35.23295,66.20906 z"/>
<path d="m 75.952693,700.75765 c 3.439063,25.67035 6.021883,51.43553 8.338968,77.22754 3.103812,38.19298 4.380057,76.50001 6.122328,114.77065 0.742899,16.08107 0.392823,8.51793 1.049772,22.68944 2.455818,52.97612 77.375359,49.50307 74.919539,-3.47305 v 0 c -0.65563,-14.14302 -0.3065,-6.60043 -1.04694,-22.62779 -1.79313,-39.37476 -3.11311,-78.78689 -6.34635,-118.07906 -2.41351,-26.79412 -5.09872,-53.56105 -8.67007,-80.22948 -6.87431,-52.58558 -81.241559,-42.86384 -74.367247,9.72175 z"/>
<path d="m 133.50473,738.01389 c 21.83145,-7.80279 44.05656,-14.45603 66.27458,-21.05517 23.76265,-6.83304 47.8619,-12.53012 72.19793,-16.91555 13.04962,-2.35159 16.38445,-2.66862 29.12244,-4.39024 9.44944,-1.09759 18.94178,-1.94349 28.45943,-2.06948 1.73058,-0.0229 6.55863,-0.35094 8.61201,0.57906 -7.56675,-0.44675 -14.74481,-7.71375 -18.38713,-13.68477 -1.2681,-2.07886 -1.94598,-4.46454 -2.91897,-6.69681 -0.27513,-1.04796 0.15068,-2.67355 -0.82538,-3.14388 -0.78418,-0.37786 -0.22459,1.72651 -0.32061,2.59167 -0.29511,2.65895 -0.53687,5.32384 -0.85275,7.98041 -1.84865,15.54716 -4.19561,31.0258 -6.49316,46.51096 -3.60588,23.73528 -7.86515,47.36035 -12.42289,70.92859 -10.05978,52.07015 63.57854,66.29683 73.63832,14.22667 v 0 c 4.7561,-24.64057 9.21302,-49.33823 12.97323,-74.15332 2.46709,-16.64431 5.05741,-33.289 6.92875,-50.01478 0.66525,-5.94588 1.71685,-15.91297 1.43992,-22.11579 -0.1604,-3.5925 -0.823,-7.14492 -1.2345,-10.71738 -1.34656,-3.75168 -2.19598,-7.72104 -4.03969,-11.25502 -7.46253,-14.30391 -20.3283,-21.33245 -35.4893,-24.491 -2.4354,-0.34237 -4.85893,-0.78369 -7.3062,-1.02711 -17.27243,-1.71798 -34.7233,0.59539 -51.88919,2.23898 -5.2708,0.72353 -10.55307,1.36795 -15.81241,2.17058 -32.68501,4.98812 -64.9688,12.46781 -96.7451,21.55575 -23.29879,6.92768 -46.60145,13.91756 -69.49936,22.09334 -50.101545,17.38778 -25.51152,88.24207 24.59003,70.85429 z"/>
<path d="m 168.92745,910.40133 c 26.26129,-10.35398 52.38005,-21.06656 78.59879,-31.52891 22.09442,-8.80122 44.45087,-16.95256 67.16862,-24.00424 7.49413,-2.3262 15.05465,-4.43284 22.58197,-6.64926 50.86323,-15.01441 29.62966,-86.94587 -21.23357,-71.93147 v 0 c -8.22598,2.43383 -16.48847,4.74753 -24.67795,7.30148 -24.221,7.55347 -48.0688,16.24177 -71.63687,25.62517 -25.35087,10.11695 -50.6287,20.41327 -75.97603,30.53868 -49.956063,17.80144 -24.78102,88.44999 25.17504,70.64855 z"/>
<path d="m 435.15431,250.92801 c 12.17147,17.8992 25.71136,34.84979 39.11095,51.83859 8.96253,11.68793 19.3841,22.04907 29.93314,32.2675 38.22884,36.75671 90.21068,-17.30703 51.98184,-54.06374 v 0 c -8.15947,-7.76415 -16.18409,-15.67012 -23.03411,-24.65851 -13.70341,-17.36354 -27.33726,-34.79473 -39.99714,-52.9403 -33.6275,-41.00843 -91.62217,6.54803 -57.99468,47.55646 z"/>
<path d="m 792.11771,185.93847 c -0.45601,1.3916 -0.78683,2.83066 -1.36804,4.1748 -0.40145,0.92842 -1.0269,1.74322 -1.56207,2.60155 -4.7173,7.56567 -5.50569,9.0201 -11.92075,16.7095 -9.28045,11.12402 -15.66437,17.36925 -25.92952,28.07762 -5.4892,5.06721 -10.9784,10.13443 -16.4676,15.20164 -38.85968,36.08913 12.17806,91.04502 51.03774,54.95589 v 0 c 6.55586,-6.11908 13.11173,-12.23817 19.66759,-18.35725 22.47344,-23.60611 47.07014,-47.94016 57.678,-79.59902 16.8042,-50.30028 -54.33115,-74.06501 -71.13535,-23.76473 z"/>
<path d="m 614.00956,105.66352 c 0.75458,13.74237 0.98435,27.55031 0.41074,41.3059 -0.19909,4.77409 -0.58768,9.53839 -0.88152,14.30759 -0.67322,5.04051 -1.155,10.11032 -2.01968,15.12154 -1.88062,10.89915 -5.35402,24.88766 -8.28862,35.38091 -4.52172,16.16836 -7.69067,25.98641 -13.96748,41.69385 -3.10484,7.76974 -6.58474,15.3843 -9.8771,23.07645 -21.13261,45.71034 -47.78052,88.70345 -77.15835,129.5413 -6.28437,8.73585 -12.83702,17.27554 -19.25553,25.91332 -17.50158,23.10941 -36.49408,45.01476 -55.3638,66.99844 -34.5367,40.2457 22.37932,89.08796 56.91602,48.84226 v 0 c 20.01554,-23.32955 40.1359,-46.59714 58.67235,-71.14171 6.87167,-9.26856 13.88944,-18.43055 20.61499,-27.80568 32.3122,-45.04181 61.50173,-92.51455 84.58386,-142.97646 3.77153,-8.90479 7.77178,-17.71613 11.31459,-26.71436 7.01981,-17.82936 11.16475,-30.6297 16.19887,-48.91124 3.89671,-14.15104 7.65217,-29.87063 10.00484,-44.38717 1.08422,-6.68994 1.66181,-13.45221 2.49272,-20.17831 0.33338,-5.77578 0.77136,-11.54647 1.00014,-17.32733 0.6768,-17.10215 0.39213,-34.29062 -0.89356,-51.35506 -6.09226,-52.681917 -80.59574,-44.066157 -74.50348,8.61576 z"/>
<path d="m 677.03074,410.07041 c 8.68419,5.09026 17.45797,10.0579 25.9341,15.49438 7.54018,4.83616 14.5393,9.79975 21.91804,14.91497 23.78233,16.32205 45.04364,35.86167 65.44349,56.15698 6.97292,7.20367 14.20455,14.23321 19.87721,22.53995 30.9929,43.03417 91.85241,-0.79641 60.85951,-43.83058 v 0 c -1.7959,-2.43985 -3.50953,-4.94244 -5.3877,-7.31954 -6.89926,-8.73202 -14.7649,-16.63114 -22.50007,-24.60625 -23.56432,-23.36507 -48.16509,-45.79201 -75.59611,-64.60111 -9.71905,-6.7229 -15.50889,-10.86622 -25.3566,-17.15925 -9.35562,-5.97857 -19.02568,-11.46389 -28.60914,-17.06248 -46.29635,-25.86789 -82.87908,39.60504 -36.58273,65.47293 z"/>
<path d="m 444.24935,617.23718 c 7.54554,19.821 18.77321,37.98511 29.43988,56.23466 1.80365,3.0128 3.6073,6.02561 5.41095,9.03841 27.24951,45.49686 91.59178,6.96022 64.34227,-38.53664 v 0 c -1.66893,-2.78514 -3.33786,-5.57028 -5.00678,-8.35543 -8.2341,-14.07998 -16.94128,-28.04738 -23.36619,-43.06924 -17.45722,-50.0774 -88.27735,-25.38916 -70.82013,24.68824 z"/>
<path d="m 746.37134,538.78793 c -1.73656,1.80208 -3.49078,3.58731 -5.20967,5.40625 -8.59651,9.09688 -17.0267,18.31239 -25.93736,27.11211 -10.64048,10.50801 -17.31981,16.56728 -28.45458,26.94141 -21.31938,18.5567 -10.39361,9.73979 -32.75426,26.47925 -42.3135,31.9698 2.89863,91.81012 45.21212,59.84031 v 0 c 27.06882,-20.60252 14.20681,-10.07633 38.68304,-31.45966 20.76401,-19.36657 41.33378,-38.94536 60.2931,-60.11262 38.33017,-36.65104 -13.50222,-90.85808 -51.83239,-54.20705 z"/>
<path d="m 585.84798,505.6725 c 2.8331,16.35503 -0.10168,33.70752 -2.1392,49.97119 -5.22094,34.59333 -17.36235,67.65817 -33.83558,98.4372 -4.27931,7.99559 -9.03301,15.72808 -13.54951,23.59212 -25.98543,42.24548 -57.43344,80.76944 -90.99268,117.17725 -5.96439,6.47065 -12.1003,12.78107 -18.15046,19.1716 -5.59608,5.21788 -11.19217,10.43576 -16.78826,15.65364 -38.68184,36.27968 12.62536,90.98407 51.30721,54.7044 v 0 c 6.65616,-6.2735 13.31232,-12.54699 19.96848,-18.82048 17.14271,-18.13954 23.71144,-24.73853 40.46919,-43.99526 29.12989,-33.47384 56.23075,-68.78055 79.32772,-106.72096 5.26145,-9.27194 10.81316,-18.38507 15.78434,-27.81581 20.16471,-38.25416 34.65774,-79.38878 40.90125,-122.24952 3.24085,-26.8752 6.77366,-54.67087 -0.63294,-81.20682 -15.6281,-50.67803 -87.29765,-28.57658 -71.66956,22.10145 z"/>
<path d="m 577.06578,731.93084 c 12.43708,19.20388 28.58465,35.65776 44.27382,52.18441 20.63836,21.89843 41.85171,43.22932 63.74715,63.86888 11.6911,11.01551 23.58845,21.81205 36.10328,31.88712 7.09652,5.92118 15.32821,10.0414 23.67892,13.84742 17.53577,7.61399 35.82167,13.33472 54.45623,17.56199 6.28157,1.42498 12.61581,2.6069 18.92371,3.91036 22.88706,4.6247 46.00622,7.91046 69.10075,11.27781 52.4797,7.64075 63.28535,-66.57676 10.80565,-74.21751 v 0 c -21.66962,-3.15013 -43.36446,-6.21209 -64.84192,-10.5318 -5.33813,-1.08444 -10.69514,-2.07975 -16.01438,-3.2533 -14.26111,-3.14632 -28.26209,-7.40973 -41.69584,-13.16106 -2.58909,-1.12711 -5.26285,-2.12158 -7.46113,-3.91904 -11.00267,-8.79846 -21.34275,-18.373 -31.6267,-27.9923 -20.8965,-19.67349 -41.10328,-40.04549 -60.79351,-60.92714 -11.53247,-12.13729 -23.16489,-24.22448 -33.39915,-37.50256 -26.13942,-46.14359 -91.39631,-9.17686 -65.25688,36.96672 z"/>
</svg>
