<?xml version="1.0" ?>
<svg xmlns="http://www.w3.org/2000/svg" viewBox="0 0 1000 1000">
<path d="m 195.39514,145.13373 c 13.4591,8.16877 27.06151,16.07702 40.85121,23.67724 3.36662,1.75955 6.73324,3.5191 10.09985,5.27866 47.02094,24.52613 81.70613,-41.97152 34.6852,-66.49764 v 0 c -2.87386,-1.49548 -5.74771,-2.99096 -8.62156,-4.48643 -9.41147,-5.171822 -9.96879,-5.395202 -19.32706,-10.877162 -8.42909,-4.937655 -16.61955,-10.330726 -25.37271,-14.695966 -1.77708,-0.886236 -3.62924,-1.613154 -5.44387,-2.419731 -49.51235,-19.000712 -76.38341,51.020319 -26.87106,70.021029 z"/>
<path d="m 89.115668,308.63124 c -0.14509,0.15693 -0.64101,0.52868 -0.43527,0.47079 2.07737,-0.58446 4.08288,-1.39977 6.13293,-2.07381 3.51525,-1.15577 7.016922,-2.35689 10.562652,-3.4155 4.81443,-1.4374 9.65385,-2.79338 14.51311,-4.07112 19.43371,-5.11006 24.39374,-5.98623 45.07254,-10.59085 50.36655,-10.1585 101.50054,-16.68675 152.82487,-19.26284 9.01089,-0.45228 18.03526,-0.5762 27.05289,-0.86431 19.79049,-0.41126 39.54477,0.72786 59.27955,1.99299 52.92666,3.3569 57.67403,-71.4927 4.74738,-74.8496 v 0 c -22.13356,-1.39028 -44.28958,-2.62007 -66.48289,-2.10316 -9.87365,0.33084 -19.75472,0.48673 -29.62096,0.99254 -55.13051,2.82638 -110.05092,9.90135 -164.13944,20.89568 -22.27483,4.98302 -44.48603,9.93827 -66.35892,16.51054 -3.03336,0.91145 -16.863292,5.43899 -20.736434,6.92714 -2.675058,1.02782 -5.271892,2.24868 -7.907838,3.37301 -46.717479,25.09935 -11.221646,91.16784 35.49583,66.0685 z"/>
<path d="m 211.67946,422.9546 c 20.20712,-5.96109 41.24305,-8.22267 62.14747,-10.11312 21.61033,-1.5844 43.25625,-0.19852 64.76445,1.98203 52.76972,5.27792 60.23383,-69.34973 7.46411,-74.62766 v 0 c -26.28306,-2.59896 -52.72985,-4.13405 -79.12016,-2.03708 -5.92635,0.55606 -11.86425,1.00039 -17.77906,1.66817 -20.37609,2.30046 -40.71725,5.82351 -60.38105,11.7106 -50.49948,16.19575 -27.59524,87.6128 22.90424,71.41706 z"/>
<path d="m 213.92,558.6532 c 16.7511,-3.92562 33.73153,-6.71986 50.71879,-9.3874 16.85199,-2.48507 33.86588,-3.9688 50.9099,-3.46371 8.00952,0.23736 11.88329,0.70007 19.66563,1.4084 52.82813,4.65707 59.41422,-70.05319 6.58609,-74.71026 v 0 c -10.53665,-0.90575 -15.13134,-1.45302 -26.06276,-1.6979 -21.01206,-0.47069 -41.99057,1.28125 -62.7633,4.37608 -19.1649,3.02453 -38.32148,6.20667 -57.20667,10.70465 -51.45626,12.83563 -33.30394,85.60577 18.15232,72.77014 z"/>
<path d="m 90.321108,694.34257 c 0.0399,26.82528 3.36045,53.44761 6.8743,79.99133 5.468902,40.44331 14.589542,80.24031 24.545732,119.77638 0.99241,3.82026 1.98481,7.64051 2.97722,11.46076 13.33851,51.3282 85.92755,32.46469 72.58904,-18.8635 v 0 c -0.94671,-3.6417 -1.89342,-7.28339 -2.84013,-10.92508 -9.26927,-36.75231 -17.81585,-73.73723 -22.92614,-111.33364 -3.29336,-24.65115 -6.32906,-49.36001 -6.33601,-74.27575 -2.94828,-52.95099 -77.832302,-48.78149 -74.884012,4.1695 z"/>
<path d="m 163.18271,734.26719 c 19.3178,-7.47738 39.23013,-13.21991 59.19541,-18.6638 27.42336,-7.25441 55.53115,-11.61158 83.85284,-12.95128 5.73576,-0.19311 11.47596,-0.0186 17.19164,0.47514 1.52996,0.13215 2.90288,0.23304 4.35144,0.62722 0.10837,0.0312 0.43489,0.11949 0.32509,0.0937 -7.35138,-1.72301 -13.05291,-5.6594 -18.26914,-11.42457 -6.72037,-7.4276 -3.73098,-12.55544 -5.86105,-8.57088 0.98141,23.99397 -0.18693,48.13502 -2.60318,72.02157 -0.66657,6.58956 -1.59017,13.15058 -2.38526,19.72587 -2.25756,18.29436 -6.82362,36.12411 -11.55055,53.89187 -13.52362,51.27974 58.99688,70.40503 72.52051,19.12529 v 0 c 1.66224,-6.34948 3.47361,-12.66179 4.98673,-19.04846 4.96381,-20.95152 5.00491,-23.61593 8.51364,-45.07091 0.89139,-7.53974 1.92244,-15.06428 2.67418,-22.61922 1.24082,-12.47002 2.25091,-28.72994 2.7558,-41.33495 0.43335,-10.81886 0.71028,-23.20981 0.28097,-34.10563 -0.17391,-4.41372 -0.6335,-8.81154 -0.95024,-13.21731 -1.99955,-11.03446 -2.0502,-17.42417 -9.51619,-27.27164 -6.74144,-8.8918 -16.06571,-13.70111 -26.5524,-15.80548 -13.078,-2.42467 -26.4249,-2.81071 -39.69844,-2.39601 -4.24963,0.2253 -8.50504,0.35986 -12.74888,0.67592 -29.41926,2.19098 -58.56756,7.43503 -87.10551,14.83723 -23.57258,6.46603 -47.12769,13.25616 -69.81102,22.44521 -48.480002,21.4986 -18.07639,90.05967 30.40361,68.56107 z"/>
<path d="m 179.8639,891.62979 c 34.79301,-10.09452 69.48183,-20.542 104.23257,-30.7808 8.12484,-2.38004 16.24968,-4.76008 24.37452,-7.14012 50.89429,-14.90875 29.81013,-86.88415 -21.08417,-71.9754 v 0 c -8.16253,2.39112 -16.32507,4.78223 -24.4876,7.17334 -34.97569,10.3056 -69.89085,20.81513 -104.9069,30.98293 -50.72787,15.46555 -28.85629,87.20559 21.87158,71.74005 z"/>
<path d="m 534.27933,220.8756 c 29.78036,-5.41823 60.03635,-7.27466 90.18751,-9.32876 48.07782,-3.34824 96.26128,-4.37394 144.43968,-4.73204 13.94816,-0.0785 27.89646,-0.0454 41.84462,-0.001 53.03275,0.16662 53.26839,-74.83301 0.23564,-74.99963 v 0 c -14.21356,-0.0445 -28.42725,-0.0778 -42.64079,0.003 -49.69676,0.37342 -99.39829,1.45087 -148.99105,4.90435 -33.60894,2.30219 -67.33768,4.47355 -100.49318,10.75613 -51.90038,10.90187 -36.48281,84.30009 15.41757,73.39822 z"/>
<path d="m 641.99134,89.449896 c 1.35419,30.045824 3.07321,60.070674 4.28974,90.124154 1.61557,49.74452 1.39611,99.65416 -3.72733,149.20862 -0.96731,9.35596 -2.31349,18.66887 -3.47023,28.00331 -1.29248,7.93516 -2.58495,15.87033 -3.87743,23.80549 -8.46673,52.35279 65.57129,64.32655 74.03802,11.97376 v 0 c 1.42646,-8.87696 2.85291,-17.75392 4.27937,-26.63089 1.25679,-10.30447 2.71892,-20.58596 3.77038,-30.9134 5.35953,-52.64107 5.66757,-105.64809 3.92563,-158.48587 -1.17979,-29.04093 -2.70183,-58.061 -4.22815,-87.085174 0,-53.033009 -75,-53.033009 -75,0 z"/>
<path d="m 587.8028,330.43184 c 23.8068,-1.85687 47.63058,-3.34532 71.48548,-4.41533 34.11826,-1.45438 68.26039,-1.15482 102.37148,0.21244 3.71795,0.18209 7.4359,0.36418 11.15385,0.54627 52.96988,2.58703 56.62849,-72.32368 3.65862,-74.91071 v 0 c -3.94232,-0.19204 -7.88463,-0.38407 -11.82695,-0.57611 -36.23026,-1.43512 -72.49388,-1.75301 -108.73068,-0.19598 -23.76717,1.07408 -47.51303,2.46704 -71.22709,4.40415 -52.98724,2.20285 -49.87194,77.13812 3.11529,74.93527 z"/>
<path d="m 448.92803,483.62363 c 22.77343,-6.64897 45.95133,-11.81229 69.28557,-16.0642 8.88122,-1.61832 17.80139,-3.01508 26.70209,-4.52261 53.25563,-8.12224 106.88499,-14.0716 160.72946,-16.29865 11.05572,-0.45727 22.12204,-0.60603 33.18305,-0.90904 52.14643,-0.9895 104.18953,2.79595 156.20095,5.91709 21.99683,1.20603 11.47127,0.65992 31.57589,1.65365 52.96844,2.61608 56.66813,-72.29261 3.6997,-74.9087 v 0 c -19.57102,-0.96583 -9.30969,-0.43423 -30.7832,-1.61029 -54.20109,-3.25225 -108.43786,-7.13395 -162.77943,-6.02273 -11.75035,0.33172 -23.50644,0.50031 -35.25105,0.99515 -56.66127,2.38735 -113.09978,8.6461 -169.13672,17.24292 -9.55951,1.62856 -19.1402,3.1374 -28.67855,4.88568 -25.68476,4.70776 -51.18839,10.45426 -76.25463,17.79151 -50.80578,15.20765 -29.29892,87.05788 21.50687,71.85022 z"/>
<path d="m 524.72443,526.21183 c 0.014,30.34301 0.0375,60.68535 -0.15511,91.02781 -0.58991,58.63664 -2.92836,117.23355 -6.41032,175.76412 -1.41357,21.73896 -2.94585,43.48817 -5.8971,65.08289 -0.60565,4.43164 -1.38414,8.83794 -2.07621,13.25691 -8.12186,52.40739 65.9934,63.89343 74.11525,11.48603 v 0 c 0.80746,-5.25693 1.71255,-10.49979 2.42237,-15.77079 3.11089,-23.10116 4.8106,-46.35539 6.3037,-69.60744 3.55083,-59.85424 5.9494,-119.77548 6.54082,-179.73793 0.19176,-30.50041 0.17233,-61.00066 0.1566,-91.5016 0,-53.03301 -75,-53.03301 -75,0 z"/>
<path d="m 600.61493,574.41082 c 21.4758,-6.52196 43.7015,-10.05296 65.82141,-13.56568 26.67409,-4.14183 53.54964,-6.82331 80.51358,-7.98837 4.79184,-0.18932 9.5896,-0.12558 14.37512,0.16667 0.98329,0.0601 5.46396,0.34031 3.56533,0.33466 -7.61303,-1.12325 -13.42699,-4.84503 -19.13922,-10.21342 -2.10408,-1.97743 -3.31434,-4.73151 -5.07597,-7.0193 -0.0693,-0.09 -0.36226,-0.12627 -0.3404,-0.0148 0.37248,1.89882 0.96041,3.74895 1.44061,5.62343 5.4039,24.22657 8.11045,49.02357 9.35864,73.79388 0.35612,7.06738 0.47594,14.14469 0.71391,21.21703 1.08809,41.68912 -2.48239,83.25454 -6.95072,124.65178 -3.58639,29.15678 -7.29361,58.29329 -9.95216,87.55237 -0.80189,9.14992 -1.43262,18.31943 -2.53021,27.44129 -0.45626,3.79187 -0.78566,7.71083 -2.27696,11.26276 -0.20419,-2.68698 2.41155,-6.02052 4.09838,-7.71692 1.30138,-1.30877 3.00077,-2.17177 4.32422,-3.4582 0.27782,-0.27005 0.73278,-0.97263 0.36779,-1.10259 -1.7643,-0.62819 -3.71216,-0.49939 -5.56823,-0.74908 -19.41663,-2.97997 -37.81399,-10.28558 -56.14637,-17.04558 -49.77967,-18.28891 -75.6441,52.11017 -25.86443,70.39909 v 0 c 25.44052,9.3168 51.09123,18.98282 78.29058,21.55416 13.20639,0.29851 21.57681,1.60561 34.43144,-2.52799 15.37998,-4.94567 26.08458,-14.16433 33.78416,-28.10256 1.69153,-3.0621 2.73798,-6.43851 4.10697,-9.65777 0.80721,-2.89215 1.73497,-5.75334 2.42162,-8.67646 3.44886,-14.68193 3.65256,-29.92697 5.25523,-44.85412 2.60341,-28.83733 6.33461,-57.54343 9.82629,-86.2831 4.83382,-44.92959 8.58758,-90.04795 7.33725,-135.28928 -0.28323,-7.9403 -0.43198,-15.88654 -0.84967,-23.82091 -1.55191,-29.47969 -4.94697,-58.97739 -11.66679,-87.74932 -1.25462,-4.65979 -3.49007,-13.89121 -5.67478,-18.22207 -2.01514,-3.99472 -4.07845,-8.09602 -7.11604,-11.38108 -7.18585,-7.77127 -15.35924,-11.96574 -25.42167,-13.77274 -10.73626,-1.44015 -21.59442,-1.65327 -32.4136,-1.26763 -29.81212,1.32688 -59.53241,4.24183 -89.02338,8.85019 -25.87691,4.13443 -51.84844,8.41697 -76.92622,16.21464 -50.49947,16.19577 -27.59519,87.61281 22.90429,71.41704 z"/>
<path d="m 589.61129,681.7626 c 17.72258,-2.6651 35.6027,-4.06947 53.45414,-5.54302 15.94977,-1.34012 31.94658,-1.8068 47.94494,-1.95124 53.03048,-0.51761 52.29846,-75.51403 -0.73202,-74.99642 v 0 c -17.81489,0.18525 -35.62831,0.70349 -53.38891,2.20237 -18.88844,1.56218 -37.8054,3.06732 -56.56025,5.86491 -52.62529,6.56343 -43.34319,80.98683 9.2821,74.4234 z"/>
<path d="m 567.64302,783.50518 c 19.4355,-0.74153 38.87924,-1.19186 58.31477,-1.94958 20.4331,-0.75969 40.84799,-1.91168 61.26101,-3.07613 52.9469,-3.02083 48.6748,-77.89906 -4.2721,-74.87823 v 0 c -19.9652,1.13929 -39.93207,2.26945 -59.91697,3.01154 -19.41806,0.76039 -38.84474,1.20078 -58.26273,1.94757 -52.99401,2.03366 -50.11798,76.97849 2.87602,74.94483 z"/>
</svg>
