<?xml version="1.0" ?>
<svg xmlns="http://www.w3.org/2000/svg" viewBox="0 0 1000 1000">
<path d="m 184.35846,172.75309 c 2.22661,1.31116 4.41494,2.68961 6.67983,3.93347 4.0319,2.2143 16.61854,8.55353 20.26158,10.4429 13.93613,7.22762 27.7231,14.68181 41.41109,22.36738 4.20516,2.54465 8.41032,5.0893 12.61547,7.63395 45.40785,27.39758 84.15388,-36.81881 38.74603,-64.21639 v 0 c -4.89314,-2.94496 -9.78629,-5.88993 -14.67944,-8.83489 -20.92192,-11.71762 -42.11404,-22.92038 -63.49642,-33.77306 -44.15645,-29.371902 -85.69459,33.07474 -41.53814,62.44664 z"/>
<path d="m 102.51824,342.20161 c 27.36271,-8.06912 55.57143,-12.59327 83.67638,-17.15844 41.63369,-5.84834 83.40248,-12.49095 125.521,-13.48908 6.43782,-0.15257 12.8791,0.0636 19.31865,0.0954 6.0352,0.40011 12.07041,0.80021 18.10561,1.20031 52.9296,3.31016 57.61087,-71.5436 4.68127,-74.85376 v 0 c -7.53856,-0.44878 -15.07711,-0.89757 -22.61567,-1.34635 -7.7473,-5.7e-4 -15.49729,-0.20553 -23.24191,-0.002 -44.89876,1.18157 -89.43935,8.04395 -133.82033,14.36974 -32.39571,5.2852 -64.94461,10.58808 -96.351909,20.37723 -50.067855,17.48456 -25.34095,88.2912 24.726909,70.80664 z"/>
<path d="m 206.92077,460.45255 c 19.2796,-5.15985 39.13254,-7.31776 58.93643,-9.2785 19.53936,-1.97329 39.16613,-1.8304 58.76385,-1.26004 53.01229,1.48231 55.1086,-73.48839 2.09631,-74.9707 v 0 c -22.79302,-0.61498 -45.6179,-0.70462 -68.33814,1.60447 -25.59523,2.59143 -51.34196,5.5359 -76.04827,13.05041 -50.1016,17.38762 -25.51178,88.24199 24.58982,70.85436 z"/>
<path d="m 217.2348,579.05446 c 17.08876,-4.44113 34.78105,-5.60587 52.32473,-6.7923 20.43901,-1.06954 40.87774,-0.0758 61.27423,1.22585 52.92791,3.33711 57.64731,-71.51425 4.7194,-74.85137 v 0 c -23.69229,-1.47775 -47.43586,-2.54431 -71.17026,-1.19562 -22.73988,1.60343 -45.6372,3.41278 -67.70938,9.48693 -51.00114,14.53902 -30.43987,86.66553 20.56128,72.12651 z"/>
<path d="m 86.619094,677.95225 c 3.594958,26.21523 7.282931,52.41279 10.465784,78.68452 3.219892,28.50563 5.507492,57.1267 6.222662,85.81073 0.37737,15.13543 0.19632,18.13423 -0.0293,32.58416 -0.77979,53.02727 74.2121,54.13006 74.99189,1.10278 v 0 c 0.22532,-16.20374 0.42312,-19.63896 -0.0151,-36.49375 -0.79992,-30.76393 -3.24851,-61.4618 -6.71575,-92.03418 -3.12691,-25.75392 -6.63951,-51.45106 -10.29403,-77.13354 -5.28864,-52.76865 -79.914781,-45.28937 -74.626136,7.47928 z"/>
<path d="m 158.65739,727.74724 c 16.72401,-7.71864 34.17376,-13.78145 51.88007,-18.81887 5.79841,-1.64964 11.65758,-3.07772 17.48637,-4.61659 31.87674,-7.77295 64.22091,-12.52103 96.92671,-14.76355 6.99348,-0.30626 14.01685,-0.62377 21.01219,-0.14319 0.86563,0.0595 1.72944,0.15686 2.58676,0.29052 0.14715,0.0229 0.55863,0.19038 0.41033,0.17673 -0.66796,-0.0615 -1.3243,-0.21454 -1.98645,-0.32181 -14.00073,-4.48118 -19.40546,-12.63138 -24.20971,-26.53147 -0.99742,-2.88582 -0.18173,-6.11282 -0.55644,-9.14307 -0.0572,-0.46225 -0.29877,0.88355 -0.40895,1.3361 -0.52016,2.13633 -0.9876,4.28515 -1.4814,6.42773 -7.35652,31.23639 -13.26712,62.77766 -18.89687,94.36214 -3.01993,16.75849 -6.10551,33.52689 -10.45511,50.00279 -1.0445,3.95647 -2.27412,7.86174 -3.41118,11.7926 -14.60105,50.98343 57.5004,71.63243 72.10145,20.649 v 0 c 1.40314,-4.93893 2.91368,-9.84861 4.20943,-14.8168 4.68452,-17.9614 8.11739,-36.21173 11.39255,-54.47171 5.40672,-30.35739 11.07367,-60.67523 18.14896,-90.69645 1.93049,-8.39829 5.39146,-20.04786 3.22733,-28.41371 -1.79201,-6.92735 -4.64808,-13.76843 -8.86158,-19.55169 -5.93739,-8.1494 -12.06582,-9.80016 -20.12403,-13.03961 -2.08621,-0.51565 -4.15121,-1.12625 -6.25862,-1.54694 -13.68206,-2.73129 -27.85825,-1.55506 -41.67347,-1.17825 -13.25532,0.9431 -16.76742,1.05355 -30.49303,2.65907 -27.08211,3.16785 -53.95738,8.03548 -80.46035,14.43712 -6.77546,1.8105 -13.58585,3.49499 -20.32638,5.43149 -21.20412,6.09181 -42.06286,13.4997 -62.07889,22.80023 -47.862776,22.83977 -15.56247,90.52795 32.30031,67.68819 z"/>
<path d="m 175.4783,868.58951 c 23.61417,-8.66299 48.0514,-14.86077 72.36318,-21.19888 24.95918,-6.7996 50.27503,-12.03246 75.62269,-17.11645 51.99177,-10.45736 37.20282,-83.98482 -14.78895,-73.52745 v 0 c -26.73457,5.39127 -53.44256,10.90918 -79.77453,18.07499 -20.4768,5.35039 -40.93361,10.6792 -61.0952,17.143 -9.09802,2.91682 -16.14264,5.2483 -24.73036,9.09274 -2.09874,0.93954 -4.08039,2.12137 -6.12058,3.18206 -45.502315,27.2404 -6.97856,91.59039 38.52375,64.34999 z"/>
<path d="m 583.62167,77.395818 c -0.28105,0.925204 -0.53469,1.859179 -0.84314,2.775614 -2.22438,6.608952 -3.97235,10.935279 -6.5207,17.964297 -4.29084,11.835241 -8.97892,25.410011 -13.41709,37.078671 -2.94233,7.7359 -6.0605,15.40376 -9.09076,23.10564 -16.69456,40.96214 -35.33085,81.18827 -56.68792,119.94464 -15.42594,27.99323 -21.37455,36.5387 -38.4288,63.57864 -18.92051,29.28712 -39.43638,57.48922 -59.63827,85.89198 -30.73783,43.21673 30.37985,86.68659 61.11768,43.46986 v 0 c 21.01665,-29.54962 42.34174,-58.90346 61.98671,-89.39871 7.11243,-11.31254 14.44348,-22.49054 21.3373,-33.93761 31.13925,-51.7062 57.41903,-106.22781 80.11784,-162.12023 3.24447,-8.26704 6.57804,-16.49967 9.73343,-24.80113 4.54255,-11.95088 8.97349,-24.80578 13.34576,-36.88425 3.20567,-8.85571 5.84431,-15.36832 8.51889,-24.219644 0.7679,-2.541286 1.33753,-5.138309 2.00629,-7.707463 10.42297,-51.99867 -63.11425,-66.738975 -73.53722,-14.740305 z"/>
<path d="m 585.33478,145.84699 c 1.07968,2.55669 1.96627,5.20381 3.23903,7.67008 2.87303,5.56718 6.56334,10.43925 10.11434,15.56379 2.00375,2.89167 3.99363,5.79293 5.98697,8.69178 10.42062,15.1544 7.4281,10.80344 18.79151,27.49316 28.95237,41.72924 58.56053,82.99123 86.94835,125.11041 23.53853,35.68312 46.11,72.00613 70.48761,107.12827 13.82086,19.61957 30.09059,37.26116 48.54915,52.59133 12.22979,10.15706 19.06596,14.65929 32.07147,23.92808 25.16097,16.00282 11.99237,8.22433 39.58909,23.19393 46.71471,25.10449 82.21782,-40.96009 35.50311,-66.06458 v 0 c -21.85599,-11.6048 -11.31314,-5.48952 -31.66726,-18.27895 -10.59035,-7.48882 -16.21284,-11.18062 -26.10355,-19.21735 -13.88136,-11.27933 -26.07035,-24.30117 -36.35327,-38.95231 -24.21776,-34.80204 -46.46776,-70.91736 -69.88859,-106.25315 -5.0041,-7.42082 -9.96042,-14.87409 -15.01231,-22.26246 -23.6799,-34.63173 -48.40276,-68.5356 -72.12989,-103.13406 -8.43136,-12.38249 -16.83722,-24.78592 -25.39754,-37.0801 -1.18765,-1.70568 -2.3393,-3.43902 -3.60685,-5.0862 -0.0925,-0.12027 -0.45615,-0.30555 -0.42755,-0.15651 0.19897,1.03689 0.6505,2.00892 0.97574,3.01338 -15.62809,-50.67803 -87.29765,-28.576572 -71.66956,22.10146 z"/>
<path d="m 540.49421,458.15797 c 25.21004,-5.42524 51.07487,-7.13816 76.73199,-9.12387 31.68732,-1.72156 63.47849,-3.32308 95.22567,-2.46812 4.77881,0.12869 9.55148,0.42854 14.32723,0.64281 4.05417,0.28756 8.10834,0.57513 12.16251,0.86269 52.90407,3.69589 58.13085,-71.12176 5.22678,-74.81765 v 0 c -4.71087,-0.32477 -9.42174,-0.64953 -14.13262,-0.9743 -5.59366,-0.23642 -11.18417,-0.56591 -16.78099,-0.70925 -33.95371,-0.86958 -67.95116,0.79182 -101.83834,2.68918 -30.0245,2.34133 -60.29245,4.47225 -89.70497,11.28853 -51.34301,13.28141 -32.56027,85.89138 18.78274,72.60998 z"/>
<path d="m 401.5562,576.05947 c 6.06649,23.19292 8.66687,47.10243 11.58196,70.84046 5.23445,44.02628 10.29767,88.07417 14.24572,132.23644 1.60435,21.18194 0.89726,10.99392 2.14981,30.56206 3.39733,52.92408 78.24328,48.11954 74.84595,-4.80454 v 0 c -1.33747,-20.77971 -0.58271,-9.96389 -2.29453,-32.44533 -4.03312,-44.98701 -9.16396,-89.86122 -14.50853,-134.7095 -3.40541,-27.61555 -6.59868,-55.40855 -13.91838,-82.32666 -14.59968,-50.98381 -86.70168,-30.33674 -72.102,20.64707 z"/>
<path d="m 491.88813,607.51496 c 25.69911,-8.30977 52.07314,-14.17355 78.42509,-19.96343 39.64962,-7.87254 79.58986,-14.45528 119.74658,-19.15151 7.28633,-0.85212 14.58929,-1.55543 21.88394,-2.33315 26.68169,-2.53816 53.58165,-3.80389 80.29044,-1.08611 3.74936,0.65619 7.67456,0.89023 11.31935,2.10091 0.0633,0.021 -0.11436,0.10773 -0.17871,0.0901 -0.77026,-0.21085 -1.54604,-0.42762 -2.27177,-0.7609 -1.2421,-0.57042 -2.40793,-1.29407 -3.6119,-1.94111 -4.47306,-3.6315 -5.45389,-3.89731 -8.80443,-9.00578 -1.05802,-1.61313 -1.67359,-3.47891 -2.61099,-5.16499 -0.0554,-0.0997 -0.32153,-0.22664 -0.32317,-0.11258 -0.0187,1.30454 0.20508,2.60167 0.26889,3.90478 0.11734,2.3959 0.183,4.79406 0.2745,7.19109 0.31239,17.84244 -0.51442,35.71252 -2.91483,53.40467 -2.06858,15.2464 -3.51194,21.19849 -6.5625,36.49314 -5.54508,25.01665 -11.54348,49.96033 -18.86864,74.52359 -4.11957,13.81404 -5.35689,16.97461 -9.93883,30.2765 -6.66734,18.63944 -15.15704,36.55436 -24.72277,53.86484 -2.22916,3.59678 -4.02507,7.50031 -6.50169,10.94751 -0.0547,0.0762 -0.32122,0.17153 -0.26415,0.0971 4.04622,-5.27779 2.78324,-3.53816 9.39377,-8.24997 1.98873,-0.74412 3.97746,-1.48824 5.96619,-2.23236 0.3319,-0.29065 1.38489,-0.66423 0.99568,-0.87194 -1.98509,-1.0594 -4.31129,-1.29478 -6.43717,-2.03206 -3.73607,-1.29572 -7.47471,-2.59316 -11.14474,-4.06558 -4.91829,-1.97322 -9.74037,-4.17829 -14.61055,-6.26743 -48.82646,-20.69967 -78.10022,48.35137 -29.27376,69.05105 v 0 c 13.88656,5.83293 21.1996,9.36709 35.30926,13.64307 9.71767,2.94497 21.32325,5.80585 31.59926,5.26606 5.44467,-0.286 10.70646,-2.06799 16.05969,-3.10199 4.47004,-2.47389 9.25713,-4.44608 13.41012,-7.42166 9.86568,-7.06866 15.21863,-18.48684 21.20295,-28.59728 11.58708,-21.11713 21.91827,-42.93422 29.95197,-65.67038 5.19701,-15.17484 6.4921,-18.4678 11.15947,-34.17332 7.87877,-26.5118 14.35529,-53.4262 20.28819,-80.43138 1.42657,-7.26334 2.99911,-14.49952 4.2797,-21.79001 4.98559,-28.38316 7.3642,-57.1819 6.54902,-86.00127 -0.45837,-9.39545 -0.5442,-20.24494 -3.3481,-29.32553 -3.43417,-11.12174 -8.24677,-18.46475 -17.38966,-25.60216 -2.24631,-1.37625 -4.40503,-2.9069 -6.73892,-4.12874 -10.54556,-5.52082 -22.6629,-6.93365 -34.25937,-8.55462 -3.55789,-0.33411 -7.10915,-0.74852 -10.67367,-1.00234 -28.26902,-2.01293 -56.6698,-0.4113 -84.84361,2.16234 -7.78185,0.83466 -15.57253,1.59076 -23.34555,2.50398 -42.39764,4.98112 -84.56911,11.93604 -126.4229,20.30681 -28.90085,6.36502 -57.81311,12.87014 -85.98116,22.04494 -50.32274,16.73685 -26.65326,87.90395 23.66948,71.1671 z"/>
<path d="m 528.63331,579.72553 c 0.31317,18.54608 1.93776,37.03623 2.74996,55.56191 0.29481,6.72437 0.49161,13.45267 0.73741,20.17901 1.23594,44.91628 -0.56768,89.83803 -1.4748,134.74341 -0.096,5.60263 -0.19206,11.20526 -0.28809,16.80788 -0.90832,53.02523 74.08068,54.30979 74.989,1.28456 v 0 c 0.0946,-5.5263 0.18921,-11.0526 0.28382,-16.5789 0.93437,-46.32825 2.78399,-92.6739 1.43942,-139.01288 -0.26321,-7.11669 -0.47597,-14.23542 -0.78964,-21.35006 -0.75911,-17.2184 -2.21505,-34.40277 -2.64708,-51.63493 0,-53.03301 -75,-53.03301 -75,0 z"/>
<path d="m 625.05281,571.74164 c -0.15913,26.23691 0.28447,52.46952 0.59065,78.70348 -0.22415,32.72351 1.02798,65.53048 -0.89405,98.22648 -1.10061,18.72259 -2.24494,24.8814 -4.66265,42.90094 -6.9436,52.57648 67.41078,62.3962 74.35437,9.81972 v 0 c 2.84236,-21.81793 3.96659,-27.56907 5.26811,-50.2663 1.93861,-33.80746 0.73354,-67.72188 0.92911,-101.55666 -0.30316,-25.94204 -0.74478,-51.88268 -0.58554,-77.82766 0,-53.03301 -75,-53.03301 -75,0 z"/>
<path d="m 469.07204,732.10709 c 27.85325,-5.87315 55.80874,-11.1036 83.881,-15.81661 8.43663,-1.05977 16.84951,-2.32975 25.3099,-3.1793 18.62502,-1.87025 40.19681,-3.02664 58.84324,-3.5175 20.19915,-0.53172 37.36743,-0.48868 57.4827,0.72864 8.68224,0.52542 17.33155,1.49901 25.99733,2.24852 8.16802,1.12903 16.33603,2.25807 24.50405,3.38711 52.54767,7.15842 62.67121,-67.1552 10.12355,-74.31362 v 0 c -9.43236,-1.26862 -18.86473,-2.53723 -28.29709,-3.80585 -9.90372,-0.8235 -19.78983,-1.89708 -29.71117,-2.4705 -21.94386,-1.26829 -41.37024,-1.31451 -63.35834,-0.70346 -21.09133,0.58613 -44.00902,1.88026 -65.02157,4.04278 -9.4648,0.97407 -18.87574,2.41482 -28.31361,3.62224 -28.25059,4.76059 -56.42444,9.93322 -84.4455,15.91378 -52.22958,9.19629 -39.22406,83.06006 13.00551,73.86377 z"/>
</svg>
