<?xml version="1.0" ?>
<svg xmlns="http://www.w3.org/2000/svg" width="1000" height="1000">
<path d="m 122.88278,137.25645 c 19.26001,6.29967 37.13861,15.93073 54.92472,25.48478 18.20928,10.94171 9.05159,5.09721 27.42809,17.60381 43.94419,29.68852 85.9301,-32.45795 41.98591,-62.14647 v 0 c -22.88219,-15.36797 -11.53304,-8.21463 -33.98362,-21.560957 -21.5717,-11.539591 -43.33942,-22.964156 -66.68574,-30.548304 -50.322762,-16.736766 -73.992124,54.430371 -23.66936,71.167141 z"/>
<path d="m 72.496196,327.58393 c 28.110364,-4.85068 56.019284,-10.81453 84.166844,-15.45733 8.4274,-1.39006 16.88563,-2.58631 25.32845,-3.87946 31.99841,-4.11333 64.3324,-6.55542 96.60061,-4.88317 14.24383,0.73816 19.06942,1.62411 32.61982,3.41708 3.78561,0.66705 7.57121,1.3341 11.35682,2.00115 52.25579,9.04613 65.04895,-64.85471 12.79316,-73.90085 v 0 c -4.8479,-0.82752 -9.69581,-1.65504 -14.54372,-2.48256 -17.04927,-2.15867 -22.57839,-3.16897 -40.45766,-4.01397 -36.669,-1.73303 -73.40299,0.95549 -109.75308,5.73133 -9.01339,1.38754 -18.04262,2.67577 -27.04015,4.16262 -27.70009,4.57749 -55.175141,10.39803 -82.829012,15.23255 -52.3772436,8.3141 -40.619326,82.38671 11.757918,74.07261 z"/>
<path d="m 162.62711,443.68813 c 20.23342,-3.35358 40.72311,-4.40809 61.18464,-5.2146 16.4271,-0.53238 32.822,0.58323 49.18071,1.91124 52.86219,4.25308 58.87695,-70.50535 6.01476,-74.75843 v 0 c -19.35956,-1.54535 -38.76443,-2.76918 -58.19999,-2.0926 -22.99567,0.93587 -46.01829,2.17959 -68.7634,5.90485 -52.502352,7.4835 -41.91908,81.73304 10.58328,74.24954 z"/>
<path d="m 142.17801,572.88891 c 15.72017,-1.19792 31.37642,-3.14457 47.12016,-4.07142 4.45264,-0.26213 8.91236,-0.38536 13.36854,-0.57804 12.90563,0.0732 26.00885,-0.38123 38.82227,1.60148 3.35102,0.51852 6.61396,1.49941 9.92094,2.24912 51.97191,10.5556 66.89979,-62.94377 14.92788,-73.49938 v 0 c -6.04364,-1.14942 -12.03994,-2.58422 -18.13093,-3.44827 -16.15797,-2.29214 -32.61936,-1.87298 -48.87769,-1.82865 -5.21731,0.23822 -10.4385,0.40282 -15.65193,0.71467 -14.95091,0.89432 -29.83752,2.58229 -44.74973,3.93096 -52.983181,2.29844 -49.732692,77.22797 3.25049,74.92953 z"/>
<path d="m 38.359906,711.85725 c 3.035462,20.3925 6.486435,40.76067 10.105408,61.06801 6.857878,36.80325 16.452245,73.02983 26.983667,108.93236 14.942175,50.8845 86.903709,29.75307 71.961539,-21.13142 v 0 c -9.78423,-33.28063 -18.70541,-66.86326 -25.11131,-100.97502 -3.54577,-19.84638 -2.80293,-15.17116 -5.87756,-34.30891 -1.8593,-11.57297 -3.27985,-23.3244 -6.21182,-34.69724 -0.51212,-1.98649 -1.24612,-3.90907 -1.86918,-5.86361 -19.074789,-49.48386 -89.055535,-22.50803 -69.980744,26.97583 z"/>
<path d="m 109.92091,747.90604 c -0.28438,0.33736 -1.28881,0.94216 -0.85315,1.01208 0.66391,0.10654 1.22139,-0.56298 1.82666,-0.85586 6.90688,-3.3421 7.32065,-3.73126 15.56697,-7.11832 11.57223,-4.75314 14.9933,-5.73847 27.18419,-9.97128 23.81153,-7.37349 48.26896,-13.25199 73.15008,-15.4727 3.22438,-0.28778 6.46255,-0.39146 9.69382,-0.58719 5.40807,-0.15174 10.85738,-0.10662 16.20687,0.79885 0.61738,0.1045 1.22902,0.2491 1.82909,0.42798 0.1026,0.0306 0.35963,0.22134 0.25622,0.19365 -1.22872,-0.32894 -2.43539,-0.73534 -3.65309,-1.10301 -10.5269,-6.56331 -10.5718,-5.05415 -17.68181,-18.46642 -1.27963,-2.41389 -0.70346,-5.5402 -1.98789,-7.95154 -0.51818,-0.97283 -0.36449,2.17461 -0.50707,3.26758 -1.00446,7.69969 -1.92548,15.4101 -2.92466,23.11048 -4.87,34.85925 -9.46365,69.75944 -14.60431,104.58008 -7.73943,52.46524 66.45762,63.41045 74.19705,10.94522 v 0 c 5.19674,-35.25514 9.865,-70.58703 14.78467,-105.88163 0.57499,-4.43792 2.64503,-20.07956 3.18129,-25.35418 0.86865,-8.54394 1.98933,-18.56008 -1.11313,-26.80572 -6.32784,-16.81803 -9.68457,-16.9055 -22.11181,-25.63142 -2.69261,-1.04323 -5.3338,-2.23037 -8.07783,-3.1297 -3.42476,-1.12245 -9.56934,-2.24048 -13.03204,-2.71189 -9.82594,-1.33769 -19.76544,-1.5494 -29.66331,-1.12798 -4.48601,0.30973 -8.98177,0.50097 -13.45802,0.92918 -30.34608,2.90298 -60.19629,9.96909 -89.20954,19.1632 -15.70124,5.50906 -31.324707,11.01965 -46.3336,18.26809 -7.033518,3.39679 -13.428144,6.83484 -19.732455,11.41425 -2.081088,1.51168 -3.937717,3.31042 -5.906576,4.96563 -37.542115,37.45784 15.431268,90.5504 52.973381,53.09257 z"/>
<path d="m 143.37837,890.69356 c 20.37054,-10.22916 41.84157,-17.9792 63.06486,-26.19884 7.45248,-2.88629 14.89347,-5.80217 22.34021,-8.70325 49.41524,-19.25185 22.18902,-89.13556 -27.22623,-69.88371 v 0 c -30.7707,11.98853 -61.9993,23.06304 -91.6599,37.67382 -47.455343,23.67468 -13.974282,90.78667 33.48106,67.11198 z"/>
<path d="m 507.38951,60.727317 c -19.47644,22.109907 -41.79316,41.432453 -63.77358,60.965593 -10.67352,9.00288 -16.54846,14.26799 -27.63018,22.46187 -4.35036,3.21668 -8.87183,6.19527 -13.30775,9.29291 -43.38762,30.49614 -0.25956,91.8555 43.12806,61.35935 v 0 c 5.46996,-3.86497 11.03803,-7.59469 16.40987,-11.59491 12.57058,-9.36085 19.19374,-15.28816 31.22368,-25.46031 24.7476,-21.99773 49.785,-43.86806 71.51354,-68.9472 33.99579,-40.703635 -23.56785,-88.780943 -57.56364,-48.077303 z"/>
<path d="m 366.2538,194.88139 c 4.71985,15.70623 6.77084,32.17155 9.3125,48.33116 5.11266,34.13952 7.87397,68.60372 8.80905,103.10473 0.67766,25.00303 0.29541,37.29126 0.0108,62.3485 -1.21224,52.44844 -4.2013,104.83017 -6.94026,157.21423 -0.70334,13.78902 -1.17407,27.5876 -1.60414,41.38718 -1.64834,53.00739 73.31543,55.33849 74.96377,2.3311 v 0 c 0.41173,-13.2711 0.86331,-26.54123 1.53806,-39.80221 2.79269,-53.41281 5.83661,-106.82377 7.03801,-160.30329 0.28867,-26.93835 0.68476,-39.47803 -0.0774,-66.44084 -1.05504,-37.32367 -4.10615,-74.60227 -9.65507,-111.53244 -2.15008,-13.5787 -3.37955,-22.32182 -6.01509,-35.53099 -2.48937,-12.47658 -5.39267,-25.06634 -11.23675,-36.46293 -25.00032,-46.77055 -91.14386,-11.41475 -66.14353,35.3558 z"/>
<path d="m 435.18265,270.12508 c 15.50383,-5.98136 31.72616,-9.59512 47.91719,-13.13364 27.21261,-5.61673 54.75599,-9.61875 82.40749,-12.30165 6.32697,-0.51174 12.66874,-0.83574 19.01539,-0.94324 0.58621,-0.01 5.02476,-0.22846 5.95533,0.0682 -9.236,-1.28318 -12.1564,-0.94966 -21.65433,-9.41584 -3.85426,-3.43558 -5.9098,-8.47931 -8.54469,-12.91957 -0.60816,-1.02485 -0.21607,-4.15065 -1.1339,-3.39055 -1.07845,0.89313 0.1179,2.79811 0.15919,4.19776 0.0812,2.75344 0.13888,5.50752 0.20831,8.26128 0.49852,40.95958 -1.35797,81.89661 -2.86851,122.8169 -2.89047,69.08024 -5.07252,138.18063 -6.74614,207.30017 -1.24016,63.8541 -3.01462,127.69491 -5.45842,191.51407 -0.85356,20.2714 -1.97588,40.53609 -3.83025,60.74308 -0.6844,7.45779 -1.69407,17.57249 -2.99202,25.1754 -0.42981,2.51762 -1.07864,4.99291 -1.61795,7.48937 1.45054,8.78295 -2.12703,3.1925 -1.68152,2.3412 1.27109,-2.42886 2.49635,-4.99802 4.46317,-6.90764 2.50447,-2.43164 5.87887,-3.77542 8.6822,-5.85546 0.57251,-0.4248 1.94754,-1.17146 1.3946,-1.62145 -1.80488,-1.46883 -4.33596,-1.69106 -6.50394,-2.5366 -28.88495,-12.09194 -54.93162,-30.09212 -79.06405,-49.86545 -5.36491,-4.39583 -10.52563,-9.03511 -15.78844,-13.55267 -40.30399,-34.46865 -89.05003,22.5298 -48.74604,56.99846 v 0 c 6.13551,5.23047 12.14757,10.60931 18.40651,15.69143 25.88167,21.01532 53.72838,40.40709 84.04178,54.52505 6.39064,2.97633 13.04365,5.35336 19.56547,8.03004 13.80552,3.72938 26.03058,8.57122 40.83645,5.98575 8.16419,-1.42567 16.25474,-4.30673 23.30511,-8.6632 10.21667,-6.31293 16.43389,-16.79378 20.82754,-27.43262 1.60746,-3.89232 2.48808,-8.04647 3.73211,-12.06971 0.8155,-4.10992 1.76154,-8.19609 2.44649,-12.32978 1.45242,-8.76548 2.64847,-20.55361 3.43998,-29.25249 1.93806,-21.29958 3.13197,-42.65771 4.02792,-64.02407 2.4552,-64.17033 4.24535,-128.3622 5.49134,-192.56763 1.6652,-68.80233 3.83908,-137.58545 6.71705,-206.34861 1.5692,-42.51077 3.48188,-85.04073 2.89266,-127.59218 -0.0975,-3.47365 -0.30678,-14.88916 -0.80671,-18.79904 -0.48399,-3.78521 -0.54076,-7.74992 -2.01638,-11.26908 -2.56418,-6.11521 -5.27161,-12.52063 -9.93544,-17.23438 -10.28565,-10.39575 -15.33285,-10.21362 -26.6747,-12.28231 -12.28979,-0.59842 -24.60309,0.14429 -36.85769,1.09271 -30.59861,3.02238 -61.08537,7.39981 -91.19141,13.69198 -19.2593,4.25188 -38.52848,8.68121 -56.99595,15.73749 -49.95603,17.80155 -24.78082,88.45004 25.1752,70.64849 z"/>
<path d="m 466.87357,368.02255 c 20.23079,-3.62053 40.7599,-4.7372 61.25969,-5.49763 16.47801,-0.35101 8.46827,-0.2249 24.029,-0.39284 53.02981,-0.5824 52.20617,-75.57788 -0.82364,-74.99548 v 0 c -16.7686,0.18713 -8.08624,0.0462 -26.04678,0.44217 -25.25374,0.97564 -50.58182,2.4587 -75.42437,7.39727 -51.65169,12.02513 -34.64558,85.07164 17.0061,73.04651 z"/>
<path d="m 459.31189,517.74962 c 17.96362,-0.73564 35.88367,-2.32923 53.83488,-3.3797 13.59028,-0.62159 27.17958,-1.79978 40.79437,-1.80473 4.42104,-0.002 8.83899,0.23356 13.25848,0.35034 53.01922,1.2093 54.72943,-73.7712 1.71022,-74.9805 v 0 c -5.68329,-0.11366 -11.36545,-0.35507 -17.04985,-0.34096 -14.38469,0.0357 -28.74312,1.22681 -43.10207,1.90437 -16.49136,0.96828 -32.95965,2.26218 -49.44603,3.25118 -53.03301,0 -53.03301,75 0,75 z"/>
<path d="m 340.892,686.48612 c 21.75845,-7.26927 44.75461,-9.59241 67.45416,-11.86416 41.6626,-3.32371 83.46651,-1.16781 125.07018,1.82819 6.4026,0.55233 12.8052,1.10467 19.20779,1.65701 52.83767,4.54767 59.26904,-70.17607 6.43137,-74.72374 v 0 c -6.75805,-0.58038 -13.5161,-1.16076 -20.27415,-1.74114 -45.91981,-3.28052 -92.06236,-5.50489 -138.03126,-1.63466 -7.19722,0.74336 -14.41081,1.34243 -21.59167,2.23009 -21.60281,2.67043 -43.21562,6.68694 -63.84654,13.74552 -49.85307,18.08787 -24.27295,88.59076 25.58012,70.50289 z"/>
<path d="m 603.93518,554.4746 c -8.94203,11.7993 -19.58317,22.15858 -30.16751,32.45199 -17.44053,16.96111 -21.29714,20.38302 -39.80402,37.68514 -8.26669,7.40889 -16.42427,14.94135 -24.80007,22.22666 -20.96761,18.23775 -35.9808,30.52538 -58.22688,47.41875 -29.64725,22.51373 -60.39633,43.48664 -91.10761,64.50131 -9.05411,6.09946 -18.10822,12.19892 -27.16233,18.29838 -43.9826,29.63159 -2.0772,91.83237 41.9054,62.20078 v 0 c 9.20531,-6.20213 18.41061,-12.40425 27.61592,-18.60638 32.06883,-21.95166 64.15932,-43.87793 95.09329,-67.42654 23.5964,-17.96286 39.7274,-31.19362 61.95199,-50.54709 8.76581,-7.63338 17.30441,-15.52382 25.95662,-23.28573 17.14034,-16.0321 25.05668,-23.24446 41.42063,-39.24289 14.29886,-13.97948 28.59431,-28.19779 40.10334,-44.63994 29.01574,-44.39129 -33.76304,-85.42574 -62.77877,-41.03444 z"/>
<path d="m 678.92498,417.75777 c 15.25502,-4.83794 30.89147,-8.61248 46.62853,-11.51734 6.38701,-1.17896 12.81486,-2.12483 19.22228,-3.18724 29.17919,-4.21635 58.68095,-5.90335 88.14611,-6.15892 16.80295,-0.14574 23.77409,0.20725 40.33897,0.68877 21.802,1.10881 11.37848,0.49927 31.27284,1.7891 52.92281,3.41711 57.75533,-71.42704 4.83252,-74.84415 v 0 c -21.49938,-1.38285 -10.17848,-0.72836 -33.9655,-1.91441 -18.29345,-0.51333 -25.60785,-0.88502 -44.21238,-0.69927 -33.03175,0.32979 -66.09509,2.33701 -98.79099,7.16743 -7.37414,1.24381 -14.77232,2.35268 -22.12244,3.73141 -19.99811,3.75126 -39.93243,8.57339 -59.1505,15.2874 -49.2551,19.65797 -21.45453,89.31519 27.80056,69.65722 z"/>
<path d="m 821.09898,222.937 c 0.81062,2.7536 1.4241,4.70638 2.06046,7.6706 3.64496,16.97869 4.63614,34.57633 6.25398,51.81482 4.0378,47.46231 8.00221,94.95663 9.98981,142.55852 0.48515,11.61901 0.76684,23.24562 1.15025,34.86844 1.82856,70.55199 -1.51465,141.08978 -4.86627,211.54308 -2.39225,42.91928 -4.83789,85.93328 -10.79668,128.53865 -0.80593,5.76244 -1.78795,11.49887 -2.68193,17.2483 -2.03144,11.99322 -4.31894,23.95522 -7.43331,35.71992 -1.298,4.90326 -2.71113,9.75343 -4.75289,14.39767 -1.57367,-0.23702 -1.20753,-0.1068 1.81484,-3.72479 5.09497,-6.09905 5.72718,-5.882 12.3403,-9.32551 0.79407,-0.41348 2.6811,-0.3054 2.42136,-1.16216 -0.34096,-1.12463 -2.14226,-0.9669 -3.21339,-1.45034 -16.78513,-6.36153 -31.64757,-16.58743 -46.45226,-26.52276 -44.12354,-29.4213 -85.73155,32.9788 -41.60801,62.40011 v 0 c 5.57345,3.697 11.04734,7.54868 16.72036,11.091 16.91189,10.56004 34.48319,20.17478 53.67898,25.9226 13.23569,2.68583 20.54501,5.48629 34.20262,3.04923 16.56645,-2.95612 27.17194,-10.91803 35.92049,-24.80187 1.46882,-2.331 2.47664,-4.92242 3.71496,-7.38364 0.94146,-2.40468 1.95756,-4.78146 2.82438,-7.21404 6.85468,-19.23643 10.30788,-39.5174 13.94078,-59.53495 0.99152,-6.44474 2.07809,-12.87558 2.97454,-19.33424 6.18184,-44.53817 8.83003,-89.48604 11.30018,-134.35027 3.44556,-72.46783 6.83802,-145.02327 4.90975,-217.59168 -0.40225,-12.06987 -0.69959,-24.14369 -1.20674,-36.2096 -2.04569,-48.66975 -6.0822,-97.23112 -10.22197,-145.75803 -2.41147,-25.56354 -4.04717,-51.59484 -11.84925,-76.22382 -16.80422,-50.30027 -87.93956,-26.53552 -71.13534,23.76476 z"/>
<path d="m 705.02494,550.44585 c 7.20345,12.75984 17.47334,23.51265 24.37888,36.46702 1.63142,3.06044 2.91853,6.29234 4.37779,9.43851 23.19054,47.69381 90.63977,14.89743 67.44922,-32.79638 v 0 c -2.67321,-5.3527 -5.12416,-10.82229 -8.01963,-16.0581 -6.33902,-11.46269 -14.47854,-21.76347 -22.04258,-32.40657 -25.00012,-46.77065 -91.14381,-11.41513 -66.14368,35.35552 z"/>
</svg>
