<?xml version="1.0" ?>
<svg xmlns="http://www.w3.org/2000/svg" width="1000" height="1000">
<path d="m 180.56255,209.2363 c 14.49201,8.44905 28.89452,17.00285 43.00957,26.07169 11.35763,7.34643 22.49465,15.02408 33.64968,22.67186 43.74175,29.98599 86.14834,-31.87419 42.40659,-61.86017 v 0 c -11.78772,-8.07999 -23.5601,-16.18606 -35.56528,-23.94235 -15.22508,-9.75025 -30.72775,-19.00426 -46.35291,-28.09509 -46.07087,-26.26736 -83.21853,38.8867 -37.14765,65.15406 z"/>
<path d="m 85.308039,361.15237 c 25.567351,-5.83205 51.244751,-11.12656 77.008651,-16.01003 40.15968,-7.0817 80.76088,-11.56378 121.46489,-13.93519 7.50293,-0.43712 15.01467,-0.70683 22.522,-1.06024 20.20175,-0.87413 40.41868,-0.85207 60.62725,-0.36002 53.01785,1.26807 54.81117,-73.71049 1.79332,-74.97856 v 0 c -21.99185,-0.51748 -43.99274,-0.54213 -65.97629,0.42291 -8.0454,0.38477 -16.09558,0.67995 -24.13619,1.1543 -43.66158,2.57584 -87.20866,7.43172 -130.2803,15.07227 -26.40072,5.01715 -52.721074,10.41588 -78.921588,16.39896 -51.827818,11.24177 -35.92956,84.53737 15.898257,73.2956 z"/>
<path d="m 205.89072,473.0702 c 16.5833,-5.22284 33.97382,-6.9573 51.17661,-8.82011 17.22205,-1.91383 34.53561,-2.57733 51.84387,-3.07072 53.01087,-1.53194 50.84438,-76.50064 -2.16649,-74.9687 v 0 c -19.30756,0.56484 -38.61896,1.34759 -57.82976,3.48381 -23.37784,2.57781 -46.97968,5.33505 -69.30696,13.13173 -49.67,18.5847 -23.38727,88.82869 26.28273,70.24399 z"/>
<path d="m 202.99304,596.78119 c 15.93985,-3.98859 32.25233,-6.09027 48.54404,-8.00726 14.92749,-1.39856 30.01164,-2.83387 44.98999,-1.25521 2.33778,0.2464 4.64901,0.70031 6.97351,1.05047 52.55273,7.12113 62.62353,-67.19966 10.0708,-74.32079 v 0 c -4.18262,-0.53159 -8.34794,-1.22401 -12.54787,-1.59477 -19.44383,-1.71645 -38.97688,-0.34137 -58.34027,1.64473 -19.8032,2.37488 -39.62567,5.02448 -58.97436,10.00442 -51.24998,13.63596 -31.96582,86.11438 19.28416,72.47841 z"/>
<path d="m 70.119209,704.71148 c 2.267054,26.18957 7.11241,52.08201 11.87354,77.90788 6.535729,33.88771 15.239747,67.29661 22.959471,100.92184 0.65912,2.9749 1.31824,5.94981 1.97736,8.92471 11.47796,51.77603 84.70031,35.54375 73.22236,-16.23227 v 0 c -0.70095,-3.16024 -1.40189,-6.32049 -2.10284,-9.48073 -7.48339,-32.57068 -15.89703,-64.93624 -22.30208,-97.74633 -4.18396,-22.64098 -8.41272,-45.32095 -10.73193,-68.24581 -2.79358,-52.95938 -77.689454,-49.00867 -74.895881,3.95071 z"/>
<path d="m 122.20918,748.88743 c 16.96861,-5.00639 33.71323,-10.72234 50.70407,-15.66105 5.78538,-1.68163 11.59864,-3.26582 17.39795,-4.89872 22.00261,-5.89219 44.1717,-11.35462 66.70588,-14.8138 10.07384,-1.54642 12.99334,-1.67996 22.66118,-2.56437 5.72683,-0.23082 7.55669,-0.44014 12.86538,-0.23159 1.21458,0.0477 4.12564,0.0149 5.46401,0.82114 -10.56057,-2.5057 -15.88727,-9.80551 -21.64136,-18.93988 -1.16723,-1.85294 -1.01118,-4.32659 -2.10647,-6.22294 -0.36267,-0.62792 -0.15928,1.44147 -0.23891,2.16221 -1.13953,25.16915 -4.12376,50.24599 -8.29983,75.08558 -1.09821,6.53223 -2.3728,13.03358 -3.5592,19.55037 -3.52707,18.13561 -7.89572,36.0906 -12.09591,54.07739 -12.05879,51.64384 60.97662,68.69754 73.03541,17.05371 v 0 c 4.48386,-19.20418 9.13369,-38.37775 12.85705,-57.74942 1.29858,-7.18723 2.69429,-14.35759 3.89574,-21.56169 4.79834,-28.77162 8.20482,-57.84227 9.16471,-87.00741 -0.23394,-7.60545 0.17643,-16.82882 -3.28944,-23.91416 -7.12392,-14.5636 -15.06734,-21.11755 -29.57475,-25.30522 -14.27355,-3.37177 -28.9191,-3.71099 -43.51234,-2.48733 -12.36346,1.19149 -15.68937,1.34322 -28.48705,3.34467 -25.05429,3.91829 -49.72648,9.92816 -74.19452,16.51645 -22.47522,6.34337 -44.79252,13.15865 -67.03584,20.26766 -51.249969,13.63601 -31.965735,86.11441 19.28424,72.4784 z"/>
<path d="m 165.40972,894.39948 c 32.32112,-12.35437 65.24938,-23.03832 98.12387,-33.80367 35.07008,-10.94512 17.44398,-5.71176 52.87922,-15.697 51.03775,-14.41003 30.65888,-86.5883 -20.37886,-72.17826 v 0 c -37.74047,10.67508 -19.12904,5.13179 -55.84307,16.60031 -34.52638,11.30863 -69.11184,22.53421 -103.02416,35.59961 -49.129087,19.97082 -20.88608,89.44983 28.243,69.47901 z"/>
<path d="m 501.48389,140.6725 c 9.8892,14.66545 17.52411,30.66896 26.08364,46.10954 2.80619,5.0621 5.70554,10.07198 8.55832,15.10798 2.78308,4.70488 5.56616,9.40977 8.34924,14.11466 27.0188,45.63424 91.55537,7.42389 64.53657,-38.21036 v 0 c -2.54805,-4.2993 -5.0961,-8.5986 -7.64415,-12.8979 -2.61544,-4.60771 -5.27698,-9.18956 -7.84633,-13.82314 -9.48396,-17.10346 -18.01492,-34.78755 -28.99025,-51.02184 -28.72343,-44.580993 -91.77047,-3.95993 -63.04704,40.62106 z"/>
<path d="m 698.01892,110.84483 c -0.067,1.33766 -0.0355,2.6839 -0.20094,4.01298 -0.63709,5.1187 -2.0274,9.76621 -3.56354,14.73583 -1.41755,4.58598 -2.87746,9.1614 -4.49625,13.68027 -6.21483,17.34866 -7.17131,18.5209 -15.00989,35.99544 -12.94146,26.12618 -6.29875,12.9276 -19.94203,39.58876 -24.15109,47.21467 42.62053,81.36947 66.77163,34.1548 v 0 c 14.57434,-28.50368 7.34131,-14.09038 21.68922,-43.24485 3.36906,-7.618 6.93969,-15.14999 10.10716,-22.85398 7.27985,-17.70617 14.04827,-37.00219 17.69409,-55.85584 1.75138,-9.05695 1.64942,-12.13689 1.95055,-20.21341 0,-53.03301 -75,-53.03301 -75,0 z"/>
<path d="m 495.6411,323.511 c 25.45658,-4.40871 50.88491,-8.9344 76.40394,-12.97446 45.32879,-6.81315 91.09807,-10.71371 136.94237,-11.15689 8.62878,-0.0834 17.25795,0.11996 25.88692,0.17994 29.55487,0.59507 59.04004,3.02759 88.15937,8.1162 52.26024,9.02038 65.01698,-64.88677 12.75674,-73.90714 v 0 c -4.33377,-0.74055 -8.65418,-1.56406 -13.00132,-2.22166 -28.94156,-4.37802 -58.20718,-6.23545 -87.44895,-6.98596 -9.42772,-0.0522 -18.85585,-0.25805 -28.28318,-0.15653 -49.13023,0.52904 -98.17858,4.73981 -146.7546,12.05701 -25.13127,3.98889 -50.18987,8.3606 -75.24483,12.79999 -52.50233,7.48369 -41.91879,81.73319 10.58354,74.2495 z"/>
<path d="m 560.10905,312.20618 c 3.70652,23.62188 3.58501,47.66785 4.03228,71.51448 0.50596,29.05335 0.22268,58.14344 1.6558,87.17555 0.34078,6.90353 0.89038,13.79517 1.33556,20.69275 3.46195,52.91989 78.30198,48.02395 74.84003,-4.89594 v 0 c -0.40654,-6.12211 -0.91342,-12.23838 -1.21962,-18.36633 -1.4315,-28.64837 -1.10286,-57.35661 -1.62522,-86.02592 -0.55871,-29.24341 -0.44923,-58.82069 -6.09866,-87.63454 -12.40262,-51.56234 -85.32278,-34.02239 -72.92017,17.53995 z"/>
<path d="m 678.78494,285.15469 c 1.93227,23.81836 1.70096,47.72654 1.50284,71.59902 -0.62029,50.62998 -6.49515,100.95196 -12.5412,151.15706 -6.3382,52.6529 68.12424,61.61646 74.46243,8.96357 v 0 c 6.37485,-52.97892 12.47264,-106.08846 13.07633,-159.51491 0.20723,-26.34532 0.3944,-52.73022 -1.80978,-79.00996 -4.81202,-52.81425 -79.50264,-46.00903 -74.69062,6.80522 z"/>
<path d="m 448.33359,408.80499 c 0.81744,1.90903 1.55369,3.85492 2.45232,5.72711 3.8853,8.09457 6.13301,11.74653 10.75094,19.72334 5.19714,8.97731 8.86912,15.3123 14.58661,24.2424 3.30517,5.16231 6.75928,10.22773 10.13892,15.3416 3.83678,5.52093 7.67356,11.04185 11.51035,16.56278 30.28578,43.53471 91.85316,0.70415 61.56738,-42.83056 v 0 c -3.51663,-5.04935 -7.03327,-10.09869 -10.5499,-15.14804 -2.95144,-4.44453 -5.9693,-8.84565 -8.85432,-13.33358 -5.73909,-8.92771 -8.21608,-13.36354 -13.45465,-22.34762 -1.64527,-2.82161 -5.16318,-8.71478 -6.94192,-12.17645 -0.42034,-0.81803 -0.75942,-1.67533 -1.13912,-2.513 -18.91654,-49.54457 -88.98314,-22.79256 -70.06661,26.75202 z"/>
<path d="m 824.42193,358.89426 c -11.27308,17.74791 -22.75484,35.37239 -35.47753,52.13931 -5.11955,6.74693 -10.44432,13.33564 -15.66649,20.00346 -23.39074,28.28358 -11.33151,14.4061 -36.18639,41.62485 -35.69981,39.21764 19.7623,89.70481 55.46212,50.48717 v 0 c 27.64531,-30.45369 14.39677,-15.12902 39.81007,-45.9182 5.73503,-7.34735 11.58889,-14.60346 17.20508,-22.04205 15.15093,-20.06728 29.0735,-41.07488 41.90498,-62.69319 23.75975,-47.41281 -43.2921,-81.01416 -67.05184,-33.60135 z"/>
<path d="m 414.66264,604.63056 c 17.89207,-3.21303 35.59889,-7.36915 53.46723,-10.70193 7.55291,-1.40876 15.13504,-2.65609 22.70257,-3.98413 53.61434,-8.53704 107.68472,-14.14548 161.84943,-17.71633 11.96902,-0.78907 23.95177,-1.35401 35.92766,-2.03102 44.42203,-2.04631 88.92491,-1.77047 133.33997,0.26923 19.82653,0.9105 33.09951,1.89544 52.63431,3.20502 18.56919,1.13951 37.07209,3.05551 55.56287,5.05696 52.72647,5.69379 60.7787,-68.8727 8.05223,-74.56649 v 0 c -19.50423,-2.10159 -39.02092,-4.11474 -58.60619,-5.32302 -20.4926,-1.36963 -34.02672,-2.37468 -54.87362,-3.32132 -46.75333,-2.12301 -93.59804,-2.38025 -140.35624,-0.20006 -12.44205,0.70782 -24.89124,1.2997 -37.32615,2.12345 -56.62858,3.75137 -113.15567,9.6561 -169.20105,18.63827 -8.14282,1.43623 -16.30055,2.79038 -24.42848,4.30869 -17.55694,3.27965 -34.95686,7.35569 -52.53619,10.52165 -52.12864,9.75217 -38.33699,83.4732 13.79165,73.72103 z"/>
<path d="m 500.80924,656.24649 c 3.83945,27.13561 4.841,54.59802 6.48778,81.93061 2.58331,39.50596 5.64936,78.98599 9.54201,118.38546 0.44759,3.99346 0.89518,7.98692 1.34277,11.98037 5.92139,52.7014 80.45242,44.32728 74.53102,-8.37412 v 0 c -0.41273,-3.66356 -0.82547,-7.32713 -1.23821,-10.9907 -3.80916,-38.44203 -6.77963,-76.96589 -9.31336,-115.51177 -1.79,-29.70685 -2.93079,-59.5481 -7.25506,-89.02339 -8.20494,-52.39445 -82.30189,-40.79091 -74.09695,11.60354 z"/>
<path d="m 573.4571,686.15053 c 15.90842,-4.96847 31.78625,-10.0672 47.98649,-14.02748 5.06054,-1.23709 10.16375,-2.29256 15.24562,-3.43884 19.3747,-3.94453 39.07417,-6.26243 58.84602,-6.66646 9.20928,-0.18819 11.18608,0.0418 19.89017,0.4621 6.76375,0.46489 13.60153,1.20458 20.12906,3.00002 -7.61942,-2.08847 -12.00934,-6.34007 -17.15668,-12.26395 -0.9469,-1.08974 -1.13683,-2.82753 -2.3169,-3.65914 -0.62336,-0.43929 0.20481,1.51176 0.33579,2.26302 0.43408,2.48959 0.90616,4.97241 1.35924,7.45861 4.69121,30.14789 3.94595,60.79301 1.601,91.11678 -0.65217,8.43341 -1.5699,16.84418 -2.35486,25.26628 -4.45433,37.08507 -8.30379,74.3308 -15.02004,111.10026 -0.8276,4.53088 -1.81171,9.03177 -2.71756,13.54765 -10.36513,52.01024 63.18845,66.66874 73.55357,14.65851 v 0 c 1.04298,-5.26298 2.17061,-10.50988 3.12893,-15.78893 7.00753,-38.60201 11.12388,-77.68313 15.73704,-116.61765 0.84729,-9.24473 1.84811,-18.47667 2.54185,-27.73419 2.7375,-36.52972 3.20446,-73.43045 -2.81275,-109.67741 -2.09784,-10.60569 -4.03216,-23.74595 -10.23475,-32.93489 -6.47134,-9.58706 -13.86172,-15.16212 -24.58624,-18.71812 -12.35176,-3.44081 -25.0811,-5.23037 -37.87884,-5.94387 -11.56581,-0.47572 -14.41015,-0.77108 -26.44273,-0.46486 -24.27112,0.61766 -48.44807,3.52996 -72.21778,8.46011 -5.9563,1.36158 -11.93639,2.62298 -17.86889,4.08474 -16.82269,4.1451 -33.34915,9.34989 -49.86549,14.55245 -50.88712,14.9332 -29.76839,86.89846 21.11873,71.96526 z"/>
<path d="m 580.50414,798.25292 c 17.35286,-2.84391 34.91488,-4.16074 52.43802,-5.43979 12.88497,-0.85136 25.82283,-1.13812 38.71464,-0.23627 8.47036,0.59254 11.99792,1.25238 20.16002,2.44525 52.50799,7.44389 63.03525,-66.81361 10.52727,-74.25751 v 0 c -11.63066,-1.61169 -15.59979,-2.36586 -27.73163,-3.12948 -15.70908,-0.98879 -31.46647,-0.66157 -47.16212,0.37935 -20.60078,1.52061 -41.25915,3.0976 -61.62325,6.68857 -52.00762,10.37824 -37.33057,83.92812 14.67705,73.54988 z"/>
<path d="m 562.0007,913.87989 c 17.41242,-2.39192 34.9182,-4.17537 52.4823,-4.95288 6.02422,-0.26667 12.05575,-0.32889 18.08362,-0.49333 30.03273,-0.25634 59.92493,2.94699 89.7252,6.27938 52.70543,5.88536 61.0286,-68.65137 8.32316,-74.53674 v 0 c -33.27253,-3.71037 -66.65699,-7.15601 -100.18813,-6.71211 -6.89872,0.2045 -13.80171,0.29612 -20.69615,0.61351 -20.88727,0.96158 -41.74505,3.06168 -62.40696,6.25228 -52.00763,10.37818 -37.33066,83.92807 14.67696,73.54989 z"/>
</svg>
