<?xml version="1.0" ?>
<svg xmlns="http://www.w3.org/2000/svg" viewBox="0 0 1000 1000">
<path d="m 198.99376,159.23261 c 0.76948,0.52871 1.56039,1.0275 2.30843,1.58613 2.08158,1.55449 9.69423,7.7103 10.5194,8.37035 2.92971,2.34351 16.90864,13.46203 19.44514,15.60128 2.99463,2.52563 5.86371,5.19647 8.79556,7.79471 2.13874,2.50089 4.27747,5.00177 6.41621,7.50266 35.48156,39.41521 91.22308,-10.7633 55.74152,-50.17851 v 0 c -4.19497,-4.53501 -8.38995,-9.07001 -12.58492,-13.60502 -3.76524,-3.30063 -7.46697,-6.67515 -11.29572,-9.9019 -2.48327,-2.09283 -16.62328,-13.34926 -19.64733,-15.7637 -5.90652,-4.71584 -9.41838,-7.65813 -15.44967,-11.997201 -1.48483,-1.068227 -3.0418,-2.032421 -4.56271,-3.048631 -45.00015,-28.062177 -84.68606,35.577652 -39.68591,63.639832 z"/>
<path d="m 70.364444,336.89088 c 1.866945,-0.44144 3.747951,-0.82717 5.600834,-1.32434 6.932281,-1.86009 13.717561,-4.23185 20.654925,-6.09124 10.677057,-2.86174 13.275367,-3.34535 24.659377,-5.97357 33.21294,-7.12864 66.86881,-12.13421 100.65059,-15.63172 8.19202,-0.84814 16.39987,-1.53569 24.59981,-2.30353 41.84468,-3.78404 83.87053,-3.81082 125.82044,-2.38437 4.30214,0.19298 8.60428,0.38596 12.90643,0.57894 52.98014,2.3673 56.32801,-72.55794 3.34786,-74.92524 v 0 c -4.57556,-0.2037 -9.15112,-0.40739 -13.72669,-0.61109 -45.13342,-1.51001 -90.34705,-1.42722 -135.36326,2.67057 -8.69856,0.81974 -17.40575,1.5525 -26.09568,2.45921 -36.61213,3.82014 -73.08376,9.29268 -109.06884,17.08289 -12.786489,2.97214 -25.496073,6.00815 -38.094888,9.70413 -3.004383,0.88136 -6.037504,1.69013 -8.969549,2.78841 -0.03796,0.0142 0.04875,0.0648 0.07312,0.0972 -52.2295731,9.19629 -39.224056,83.06006 13.005517,73.86377 z"/>
<path d="m 231.65846,456.37534 c 15.13286,-4.28574 30.61943,-7.17149 46.07442,-10.01225 16.35304,-2.86198 32.8346,-5.05619 49.43323,-5.74672 8.49145,-0.35325 11.92732,-0.21915 20.19493,-0.13476 8.63982,0.54207 4.69983,0.14249 11.83349,1.05694 52.68595,6.05731 61.25228,-68.45187 8.56633,-74.50918 v 0 c -12.67413,-1.36907 -6.08007,-0.82701 -19.78867,-1.54527 -10.58316,-0.0689 -14.59581,-0.22318 -25.50408,0.27956 -19.58548,0.90265 -39.04455,3.44197 -58.34264,6.84417 -17.35914,3.21322 -34.74582,6.4917 -51.75149,11.28918 -51.24992,13.63619 -31.96544,86.11452 19.28448,72.47833 z"/>
<path d="m 234.50442,602.43445 c 14.8976,-4.55391 30.39795,-6.77293 45.75206,-9.17366 23.66643,-3.89037 47.54351,-5.91278 71.49593,-6.70508 9.59275,-0.18456 5.07566,-0.12681 13.55099,-0.1925 53.03123,-0.43335 52.41839,-75.43084 -0.61285,-74.9975 v 0 c -9.69222,0.0828 -4.53576,0.0124 -15.46905,0.23272 -26.9999,0.92779 -53.92148,3.1991 -80.60158,7.57058 -20.45765,3.22569 -41.13231,6.3236 -60.76274,13.15892 -49.5728,18.84245 -22.92555,88.94897 26.64724,70.10652 z"/>
<path d="m 102.06125,699.4104 c 4.59098,16.05726 8.99426,32.18985 12.41259,48.54483 1.29015,6.17271 2.36946,12.38763 3.5542,18.58144 6.28837,35.28975 7.78292,71.23812 6.22888,107.00528 -0.27107,6.23878 -0.78479,12.46465 -1.17719,18.69698 -0.71108,12.60266 -2.89295,24.99317 -5.4965,37.31059 -10.69247,51.94392 62.76733,67.06536 73.4598,15.12144 v 0 c 0.87505,-4.33322 1.87169,-8.64365 2.62513,-12.99966 2.63524,-15.23563 2.68574,-18.8774 4.26963,-34.82035 0.43199,-7.14831 1.00194,-14.28962 1.29596,-21.44493 1.69076,-41.14641 -0.2564,-82.48023 -7.55934,-123.05425 -1.37081,-7.07427 -2.62689,-14.17174 -4.11243,-21.22281 -3.84245,-18.23815 -8.74794,-36.23902 -13.92905,-54.13499 -15.85081,-50.60881 -87.422481,-28.19239 -71.57168,22.41643 z"/>
<path d="m 174.06094,742.96404 c 15.388,-7.52575 32.32177,-11.37316 48.86692,-15.41598 33.74226,-7.50965 68.17695,-11.36421 102.6374,-13.52555 14.3269,-0.63423 28.72124,-0.79554 42.96646,1.04246 0.27564,0.0415 2.70476,0.39851 3.20421,0.50085 0.29632,0.0607 -0.60366,-0.0606 -0.89803,-0.13011 -1.0076,-0.23792 -2.02575,-0.45066 -3.00347,-0.79115 -6.4615,-2.25024 -6.20266,-3.20304 -13.54021,-8.54331 -2.66345,-4.24888 -5.32689,-8.49775 -7.99034,-12.74663 -0.34085,-1.02443 0.01,-3.38877 -1.02256,-3.07327 -1.07586,0.32875 0.0259,2.24979 0.0361,3.37471 0.0744,8.21582 0.178,10.64535 -0.23598,19.51266 -0.22471,4.81332 -0.5984,9.61854 -0.8976,14.42781 -3.06171,37.75679 -12.98522,74.46087 -22.33027,111.03141 -1.33498,5.06903 -2.66996,10.13807 -4.00494,15.2071 -13.50295,51.28519 59.02526,70.38124 72.5282,19.09605 v 0 c 1.38102,-5.24653 2.76204,-10.49306 4.14306,-15.73959 10.51357,-41.16612 21.39485,-82.52896 24.52683,-125.06193 0.82874,-14.01096 1.68235,-27.96884 1.18721,-42.01126 -0.17124,-4.85656 -0.65061,-15.22051 -2.51663,-19.67934 -2.36039,-5.64015 -6.01622,-10.64594 -9.02433,-15.96891 -3.57648,-2.7458 -6.95519,-5.77048 -10.72943,-8.23742 -1.73335,-1.13296 -3.74853,-1.77287 -5.68953,-2.49442 -4.65662,-1.73104 -9.58846,-2.41875 -14.47735,-3.09879 -18.91285,-2.30371 -37.98494,-2.47384 -57.00321,-1.46496 -5.70278,0.36873 -11.4116,0.65353 -17.10833,1.1062 -33.15741,2.63471 -66.22306,7.22552 -98.69871,14.44498 -23.23122,5.763 -46.87279,11.60453 -68.07329,23.08444 -46.070805,26.2675 -8.92295,91.42145 37.14785,65.15395 z"/>
<path d="m 194.75015,932.69078 c 25.01841,-8.52086 50.50888,-15.60442 75.91244,-22.87088 24.16804,-7.40134 48.68616,-13.48803 73.2374,-19.44635 51.53168,-12.52942 33.8124,-85.40622 -17.71928,-72.8768 v 0 c -25.52064,6.21586 -51.0154,12.53364 -76.14636,20.21575 -16.5737,4.74193 -25.71771,7.3069 -41.9261,12.13047 -12.66129,3.76795 -25.3994,7.49108 -37.83611,11.96651 -1.85939,0.66912 -3.68453,1.42984 -5.5268,2.14476 -48.60407,21.2166 -18.59926,89.95314 30.00481,68.73654 z"/>
<path d="m 505.32174,178.04966 c 16.32226,-3.20352 32.65819,-6.34016 49.16482,-8.46008 6.11413,-0.78523 12.2494,-1.39593 18.3741,-2.09389 52.35014,-5.43231 104.98451,-6.75988 157.56666,-7.79935 46.04521,-0.96665 92.09993,-0.23148 138.13894,0.66576 6.01376,0.13151 12.02751,0.26301 18.04126,0.39452 53.02034,1.15913 54.6596,-73.822949 1.63926,-74.982079 v 0 c -6.07317,-0.13274 -12.14633,-0.26547 -18.2195,-0.39821 -47.02127,-0.91594 -94.05853,-1.65346 -141.086,-0.66526 -54.94635,1.09156 -109.94603,2.53319 -164.64354,8.27505 -6.88461,0.79712 -13.78124,1.49639 -20.65381,2.39135 -17.78903,2.31653 -35.40558,5.661959 -52.99935,9.122339 -52.0076,10.37832 -37.33044,83.92817 14.67716,73.54985 z"/>
<path d="m 537.73458,78.006541 c -2.10718,24.374149 1.63259,48.742429 4.84689,72.847849 3.01097,20.61962 1.40758,10.11035 4.82695,31.52526 8.37254,52.36794 82.43198,40.52738 74.05945,-11.84056 v 0 c -3.22094,-20.11836 -1.71074,-10.24652 -4.54646,-29.61311 -2.43091,-18.171 -5.53093,-36.52016 -4.61554,-54.911799 5.66226,-52.729871 -68.90903,-60.737507 -74.57129,-8.00764 z"/>
<path d="m 766.42467,69.143537 c -0.0605,7.718304 -0.0378,15.510494 -1.356,23.146244 -1.43422,8.307959 -3.84781,15.393889 -6.26012,23.546139 -2.66331,8.50886 -8.58342,27.73233 -11.52006,35.78625 -2.19387,6.01686 -4.76515,11.88933 -7.14772,17.83399 -19.56121,49.2936 50.15047,76.95733 69.71168,27.66373 v 0 c 2.88738,-7.33546 5.9704,-14.59688 8.66214,-22.00637 3.25492,-8.95975 9.46992,-29.24188 12.37421,-38.55472 1.77707,-6.31185 3.80032,-12.55952 5.33121,-18.93556 3.81997,-15.90991 5.48128,-32.138969 5.20466,-48.479703 0,-53.033005 -75,-53.033005 -75,0 z"/>
<path d="m 620.2565,209.18444 c 0.0453,-0.19957 0.30566,-0.71322 0.13602,-0.59872 -0.57964,0.39125 -1.00801,0.97202 -1.46863,1.49822 -1.70261,1.94499 -3.29922,3.98171 -5.01828,5.91218 -2.22673,2.50058 -4.49771,4.96266 -6.81653,7.37808 -8.41724,8.76789 -12.93413,12.94041 -22.033,21.72835 -34.3837,32.5201 -70.97112,62.57326 -107.45423,92.67835 -18.41435,15.0056 -37.62335,28.98849 -56.87914,42.88241 -43.00292,31.03625 0.88896,91.85156 43.89189,60.81531 v 0 c 20.56542,-14.84607 41.06758,-29.8044 60.72335,-45.85081 38.00004,-31.35949 76.08543,-62.69285 111.85686,-96.61281 11.60313,-11.23474 23.17487,-22.41286 33.90267,-34.4999 2.38081,-2.68248 9.32689,-11.00923 11.31199,-13.75238 1.48927,-2.05799 2.73231,-4.28339 4.09847,-6.42509 24.85706,-46.84684 -41.39438,-82.00003 -66.25144,-35.15319 z"/>
<path d="m 524.07295,335.15995 c -0.31873,15.79535 0.1589,31.60109 0.42452,47.3954 0.81608,38.52737 1.59243,77.05373 1.66062,115.59058 -0.12515,27.35936 -0.82775,54.72203 -2.48235,82.03413 -0.34553,5.70357 -0.66958,11.41052 -1.19271,17.10056 -0.48245,5.24746 -1.21549,10.46886 -1.82323,15.7033 -5.99543,52.69302 68.52376,61.17184 74.51919,8.47881 v 0 c 0.70799,-6.32937 1.54788,-12.64538 2.12397,-18.98812 0.55588,-6.12023 0.90213,-12.25806 1.2712,-18.39239 1.72423,-28.65823 2.4588,-57.36895 2.5838,-86.07616 -0.0761,-38.91065 -0.83898,-77.81095 -1.67109,-116.71198 -0.2586,-15.37391 -0.73834,-30.75848 -0.41392,-46.13413 0,-53.03301 -75,-53.03301 -75,0 z"/>
<path d="m 716.47613,254.08805 c 0,0.78598 0.0885,1.57696 0,2.35793 -0.0992,0.87556 -0.24515,-2.08864 -0.61986,-1.70149 -1.02096,1.05485 -1.47211,2.54032 -2.21107,3.80879 -5.72673,9.83035 -2.65697,5.04182 -9.65281,14.8279 -10.28107,12.451 -4.88507,6.11092 -16.22463,18.98898 -34.96243,39.87641 21.43133,89.32076 56.39376,49.44434 v 0 c 14.44428,-16.53244 7.26387,-7.96081 21.50001,-25.74939 2.97351,-4.3794 6.11809,-8.64741 8.92054,-13.13821 2.35744,-3.7777 4.53291,-7.67316 6.54543,-11.64535 5.86789,-11.58168 10.80438,-23.97097 10.34863,-37.1935 0,-53.03301 -75,-53.03301 -75,0 z"/>
<path d="m 607.82204,387.09427 c 23.37843,-0.69272 46.65484,-3.43949 69.93663,-5.55349 34.24894,-3.08865 68.58603,-5.58498 102.99041,-5.75157 5.85123,-0.0283 11.70209,0.10854 17.55314,0.16281 16.75557,0.27685 33.46672,1.56494 50.15797,2.96256 52.849,4.41399 59.09132,-70.32578 6.24232,-74.73977 v 0 c -18.5553,-1.54611 -37.13427,-2.94093 -55.76089,-3.22006 -6.51344,-0.0512 -13.02679,-0.19103 -19.54032,-0.15343 -36.21866,0.20909 -72.36944,2.78966 -108.42551,6.0468 -21.0307,1.91001 -42.05241,4.32368 -63.15375,5.24615 -53.03301,0 -53.03301,75 0,75 z"/>
<path d="m 662.83882,381.77835 c 0.005,20.59529 0.0223,41.19035 -0.0775,61.78542 -0.0626,24.7531 -0.67177,49.51877 -3.19793,74.15801 -1.52778,14.9014 -2.65211,21.31897 -4.85013,36.11169 -3.78609,22.61697 -1.87628,11.65923 -5.7039,32.87767 -9.40451,52.19248 64.4068,65.49247 73.81131,13.29999 v 0 c 4.07273,-22.62646 2.03301,-10.88969 6.08719,-35.21584 2.4843,-16.90135 3.67481,-23.6714 5.39013,-40.76962 2.6703,-26.6173 3.4004,-53.36374 3.46245,-80.10037 0.0993,-20.71559 0.0844,-41.43115 0.0784,-62.14695 0,-53.033 -75,-53.033 -75,0 z"/>
<path d="m 605.0702,477.92539 c 16.10211,-1.1861 32.1686,-2.79204 48.2506,-4.21687 30.69637,-2.89753 61.52777,-3.27959 92.3317,-3.68075 12.63847,-0.17979 25.27565,-0.40035 37.91209,-0.68698 53.01929,-1.20625 51.31338,-76.18685 -1.7059,-74.9806 v 0 c -12.39353,0.28286 -24.78788,0.49573 -37.1834,0.67395 -32.68798,0.42619 -65.40233,0.89581 -97.97526,3.96719 -15.65256,1.38756 -31.29005,2.95005 -46.96146,4.11381 -52.89883,3.77003 -47.56721,78.58028 5.33163,74.81025 z"/>
<path d="m 602.86318,559.56995 c 15.90535,-2.09712 31.92391,-2.86247 47.9357,-3.65024 29.30759,-1.21 58.65114,-0.81751 87.96352,-0.0357 17.49417,0.47569 34.9589,1.56948 52.4194,2.70533 52.92134,3.43975 57.78588,-71.40233 4.86454,-74.84208 v 0 c -18.41933,-1.19623 -36.84376,-2.33786 -55.29845,-2.83696 -31.20636,-0.8208 -62.44543,-1.22388 -93.64528,0.1005 -17.34811,0.85838 -34.7025,1.73446 -51.94002,3.95548 -52.75273,5.44514 -45.05213,80.04877 7.70059,74.60362 z"/>
<path d="m 583.74813,652.51133 c 16.14742,-1.77813 32.34447,-2.95 48.55319,-3.99419 37.26599,-2.30704 74.62387,-2.30301 111.94011,-1.70738 27.72205,0.95975 55.66014,1.00955 83.1817,4.9414 3.10096,0.44301 6.17016,1.08537 9.25524,1.62806 6.67105,1.90851 3.92812,0.78316 8.40314,2.91515 49.51239,19.00063 76.38334,-51.02045 26.87095,-70.02108 v 0 c -14.53111,-5.23636 -6.97753,-2.92259 -22.69409,-6.8315 -4.39568,-0.73012 -8.77349,-1.57742 -13.18704,-2.19036 -30.00872,-4.16752 -60.42224,-4.48158 -90.64596,-5.43232 -39.32386,-0.61433 -78.69027,-0.59808 -117.95982,1.85409 -17.69399,1.1464 -35.37593,2.44038 -52.99996,4.41479 -52.62526,6.56375 -43.34271,80.9871 9.28254,74.42334 z"/>
<path d="m 583.70188,740.07896 c 14.78517,0.42387 29.56056,-1.17765 44.30728,-2.09231 29.35797,-1.87324 58.77734,-2.26651 88.17741,-2.99536 18.35946,-0.53179 36.71148,-1.28336 55.06916,-1.86889 2.55834,-0.0535 5.11606,-0.17585 7.6751,-0.20293 0.3634,-0.004 -0.7295,0.0777 -1.08985,0.0306 -2.72571,-0.35666 -5.67911,-0.0416 -8.15308,-1.24001 -6.26868,-3.03663 -11.74301,-7.49478 -17.61452,-11.24217 -7.23241,-13.95031 -7.60572,-10.56646 -8.56009,-22.29883 -0.0872,-1.07227 0.17653,-2.15349 0.0935,-3.2261 -0.0178,-0.22935 -0.24693,-0.75314 -0.38749,-0.57105 -1.13853,1.47496 -1.89405,3.20958 -2.87297,4.79497 -1.61283,2.61203 -3.26789,5.19774 -4.90183,7.79661 -13.93882,20.77157 -31.23075,39.0173 -49.98663,55.49152 -5.20977,4.576 -10.62597,8.91146 -15.93896,13.36719 -29.67451,22.82511 -62.10456,42.04523 -95.8812,58.15053 -6.4904,3.09474 -13.10657,5.91852 -19.65986,8.87778 -12.97587,5.28844 -21.58574,9.171 -34.84552,13.20595 -5.13707,1.5632 -10.39763,2.68731 -15.59645,4.03096 -51.25226,13.62739 -31.98022,86.10903 19.27204,72.48165 v 0 c 7.04602,-1.91211 14.16714,-3.56632 21.13806,-5.73632 15.73169,-4.89719 25.68698,-9.38893 40.99531,-15.67217 7.4646,-3.39474 15.00106,-6.63573 22.39381,-10.18422 39.00903,-18.72418 76.39512,-41.1187 110.4986,-67.78969 6.21817,-5.25631 12.56202,-10.36744 18.65452,-15.76891 23.63232,-20.9519 45.19179,-44.32279 62.5847,-70.75006 8.32381,-13.4152 18.25597,-27.72246 19.30829,-44.04917 0.27908,-4.32995 0.55014,-8.83434 -0.66434,-12.99984 -1.79026,-6.14038 -5.45709,-11.56967 -8.18564,-17.35451 -6.22448,-4.16812 -11.97117,-9.15815 -18.67343,-12.50435 -5.59638,-2.79408 -15.53336,-1.62769 -21.99444,-1.59924 -18.18044,0.58056 -36.35542,1.3209 -54.53745,1.8538 -30.33073,0.75352 -60.68082,1.17313 -90.96758,3.11663 -11.8214,0.73567 -23.66655,1.89803 -35.50503,2.06294 -52.9517,-2.93549 -57.10311,71.94953 -4.1514,74.88502 z"/>
<path d="m 567.73678,816.6858 c 1.01316,0.82263 3.5003,2.31944 4.3749,2.886 8.41504,5.45131 16.60964,11.16514 24.78334,16.97191 27.74313,20.67462 55.99433,40.62227 84.87236,59.67715 21.65292,14.06749 43.98838,27.03577 66.14549,40.28252 7.07378,4.17023 14.03397,8.53931 21.18799,12.57181 17.87311,8.73009 37.8346,11.68896 57.25988,14.93069 19.63041,2.08887 22.32027,2.9026 43.37211,2.65062 8.82152,-0.10559 17.62608,-0.80155 26.43912,-1.20233 52.97003,-2.58374 49.31608,-77.49468 -3.65396,-74.91094 v 0 c -17.97151,0.95018 -36.02152,2.28137 -53.92306,-0.53278 -9.57842,-1.56582 -13.04614,-1.98995 -21.98872,-3.9164 -2.14894,-0.46293 -4.28169,-0.99972 -6.41057,-1.5476 -1.30162,-0.33498 -2.58908,-0.72301 -3.87903,-1.10047 -0.56487,-0.16529 -1.10129,-0.60316 -1.68498,-0.52765 -0.37391,0.0484 0.6291,0.4157 0.94365,0.62355 -6.55724,-3.49992 -12.68171,-7.80157 -19.17684,-11.41132 -21.21013,-12.68056 -42.59471,-25.08803 -63.3426,-38.52168 -28.18052,-18.57092 -55.69227,-38.09165 -82.76893,-58.23822 -8.92542,-6.32249 -12.49558,-8.97605 -21.40152,-14.83298 -10.3201,-6.78693 -20.95537,-13.37634 -32.99689,-16.62217 -51.45636,-12.83522 -69.6081,59.93507 -18.15174,72.77029 z"/>
</svg>
