<?xml version="1.0" ?>
<svg xmlns="http://www.w3.org/2000/svg" viewBox="0 0 1000 1000">
<path d="m 185.77963,155.45301 c 11.53208,5.50175 23.22687,10.76114 34.51957,16.74965 3.45182,1.83049 6.93701,3.62838 10.19052,5.79181 2.88475,1.91822 5.44894,4.27954 8.17341,6.4193 42.61362,31.56864 87.25842,-28.69613 44.64479,-60.26476 v 0 c -5.34594,-3.83888 -10.50653,-7.94998 -16.03781,-11.51663 -4.36886,-2.8171 -9.02127,-5.17197 -13.6155,-7.60425 -12.07227,-6.391279 -24.57366,-12.000249 -36.89731,-17.878732 -48.29795,-21.904523 -79.27562,46.399092 -30.97767,68.303612 z"/>
<path d="m 95.491514,314.06756 c 20.513306,-7.56564 41.717856,-13.16059 63.073266,-17.77707 7.60676,-1.64438 15.25884,-3.07167 22.88826,-4.6075 35.14948,-6.42915 70.69099,-10.72905 106.34732,-13.04675 20.44895,-1.3292 26.91555,-1.2593 46.95487,-1.68629 24.35613,0.12233 12.77976,-0.0548 34.73009,0.46443 53.01871,1.23146 54.76025,-73.74832 1.74154,-74.97978 v 0 c -24.02337,-0.54853 -11.31765,-0.36655 -38.11822,-0.46657 -22.04111,0.49717 -28.81203,0.42212 -51.30644,1.90845 -38.63099,2.55258 -77.13287,7.26656 -115.20638,14.29282 -8.38369,1.70043 -16.79311,3.27856 -25.15106,5.1013 -24.62416,5.37016 -49.046402,11.94039 -72.686266,20.7231 -49.549701,18.9031 -22.81668,88.97696 26.73302,70.07386 z"/>
<path d="m 190.1421,429.60044 c 11.69197,-5.4432 23.98741,-9.4518 36.53931,-12.37811 4.41207,-1.02861 8.86959,-1.85148 13.30438,-2.77722 19.90943,-3.37659 40.0545,-5.50603 60.24045,-6.2095 10.97302,-0.38241 14.564,-0.16828 25.25341,0.0537 53.02364,0.99661 54.43306,-73.99015 1.40942,-74.98676 v 0 c -13.3072,-0.22872 -17.10879,-0.46557 -30.77203,0.0458 -24.04349,0.8998 -48.03525,3.51533 -71.71905,7.7346 -5.67228,1.22178 -11.37654,2.30354 -17.01685,3.66534 -16.93177,4.08802 -33.49795,9.67381 -49.28694,17.04419 -47.94754,22.6613 -15.89963,90.46935 32.0479,67.80805 z"/>
<path d="m 193.00332,567.67738 c 16.45236,-1.12082 32.62469,-4.5587 48.88585,-7.11099 4.65011,-0.72987 9.31425,-1.36734 13.97138,-2.05102 13.63259,-1.5843 27.24819,-3.79591 40.9853,-4.33306 7.66102,-0.29957 11.47412,0.13978 18.97399,0.63748 52.94401,3.07123 57.28738,-71.8029 4.34337,-74.87413 v 0 c -12.77991,-0.67149 -15.86008,-1.12587 -29.02698,-0.5457 -15.48419,0.68227 -30.84159,3.0745 -46.20797,4.91646 -5.14826,0.76103 -10.30354,1.47603 -15.44479,2.28309 -13.39365,2.10251 -26.7055,4.90539 -40.2175,6.17104 -52.96712,2.64271 -49.22977,77.54954 3.73735,74.90683 z"/>
<path d="m 84.321833,689.94077 c 1.140942,28.92989 2.890233,57.8409 4.522512,86.74828 1.87495,29.01081 4.211093,58.09426 9.399845,86.73394 2.69914,14.8981 3.73268,17.86882 7.38781,31.92343 13.51215,51.28277 86.03693,32.17371 72.52479,-19.10905 v 0 c -2.83873,-10.58993 -3.74617,-13.22057 -5.84498,-24.60372 -4.81777,-26.1298 -6.84752,-52.69683 -8.58677,-79.17338 -1.55329,-27.50087 -3.13684,-55.0047 -4.4032,-82.5195 0,-53.03301 -75.000007,-53.03301 -75.000007,0 z"/>
<path d="m 159.55972,729.64153 c 18.75501,-7.93888 37.68429,-15.44601 57.18673,-21.36693 5.47756,-1.66297 11.01095,-3.13616 16.51642,-4.70425 24.90843,-6.52989 50.46103,-10.67751 76.22962,-10.99913 3.91925,0.003 7.82439,0.33237 11.69173,0.94855 0.17686,0.0282 2.50076,0.44125 2.91842,0.56323 0.2259,0.066 -0.46532,-0.0707 -0.69798,-0.10603 -8.59479,-2.29919 -14.05264,-7.31474 -19.78679,-14.76682 -2.07084,-2.69125 -2.44449,-6.36263 -4.1139,-9.3197 -0.29649,-0.52519 -0.12375,1.20164 -0.12867,1.80472 -0.0215,2.62707 0.033,5.25421 0.0495,7.88132 -0.1774,21.83583 -2.62756,43.60734 -6.68683,65.05194 -3.02528,15.98221 -5.49447,25.21995 -9.35022,41.05284 -4.66717,18.42639 -9.47121,36.81746 -14.29658,55.20288 -13.46234,51.29586 59.08096,70.33449 72.54331,19.03863 v 0 c 4.94322,-18.83606 9.86622,-37.67752 14.63869,-56.55777 4.41979,-18.27799 7.04431,-28.06549 10.48428,-46.64871 4.77019,-25.76926 7.55954,-51.92534 7.66063,-78.14389 -0.0811,-4.48786 -0.0224,-17.58207 -1.17757,-22.39022 -1.27223,-5.29565 -2.34335,-10.86883 -5.2573,-15.47006 -6.62844,-10.46654 -14.4679,-15.94148 -25.4926,-19.26602 -11.24096,-2.73577 -22.78795,-3.91101 -34.35967,-3.86253 -3.75759,0.0827 -7.51845,0.0711 -11.27277,0.24817 -28.48147,1.34355 -56.68767,6.44623 -84.23898,13.63562 -6.35332,1.82718 -12.73971,3.54308 -19.05997,5.48154 -21.44347,6.57684 -42.30869,14.76342 -62.94883,23.50491 -48.923104,20.47024 -19.97381,89.65795 28.94929,69.18771 z"/>
<path d="m 180.6752,886.18867 c 28.06636,-13.24538 57.88283,-22.38566 87.37178,-31.8617 31.10029,-9.4288 15.84973,-4.85007 45.74879,-13.74588 50.8305,-15.12479 29.44081,-87.00999 -21.38969,-71.88519 v 0 c -30.68192,9.13028 -14.90632,4.39091 -47.32234,14.23296 -21.03241,6.77008 -25.74299,8.12634 -46.12475,15.28682 -19.90141,6.99172 -39.92455,14.16148 -58.34869,24.57107 -44.831936,28.33017 -4.76703,91.73209 40.0649,63.40192 z"/>
<path d="m 620.28968,132.51981 c 10.20507,2.86548 19.37588,8.74711 28.14255,14.53116 8.91105,6.90492 4.54595,3.36187 13.09754,10.62641 40.62072,34.09482 88.83808,-23.35155 48.21736,-57.44638 v 0 c -13.03317,-10.849473 -6.14167,-5.404631 -20.73714,-16.254943 -3.95404,-2.504421 -7.82741,-5.14098 -11.86212,-7.513264 -13.13059,-7.720393 -27.25764,-14.213693 -42.18103,-17.492838 -52.0076,-10.378322 -66.68476,63.171535 -14.67716,73.549855 z"/>
<path d="m 472.67702,255.57836 c 29.15601,-7.85166 58.9847,-12.76784 88.71775,-17.82998 49.7172,-8.37606 100.05618,-12.62907 150.43664,-13.9929 9.46154,-0.25613 18.92844,-0.24301 28.39266,-0.36451 27.23373,-0.20322 54.34896,2.16965 81.34913,5.44579 52.65309,6.3366 61.61439,-68.12611 8.9613,-74.46271 v 0 c -30.3096,-3.62126 -60.74529,-6.24446 -91.30978,-5.97643 -10.14329,0.13979 -20.28953,0.13751 -30.42986,0.41935 -53.58552,1.48936 -107.11861,6.09306 -159.99852,14.99712 -32.65316,5.56872 -65.40872,11.03274 -97.38214,19.84144 -50.85711,15.03509 -29.59429,86.95791 21.26282,71.92283 z"/>
<path d="m 526.62847,222.39463 c -0.8156,1.46019 -1.55117,2.96804 -2.4468,4.38055 -5.43239,8.56742 -13.02888,17.31096 -19.61932,24.86035 -12.26226,14.04648 -14.22638,15.74773 -27.47786,29.54001 -22.20584,22.13418 -10.95114,10.59131 -33.70611,34.68508 -36.38721,38.5807 18.17414,90.03999 54.56136,51.45928 v 0 c 21.53539,-22.86786 10.45123,-11.44624 33.28055,-34.23756 20.9648,-21.90506 42.2356,-43.95149 58.44461,-69.74288 0.80802,-1.2857 1.48022,-2.65191 2.22033,-3.97786 26.13959,-46.14349 -39.11716,-83.11046 -65.25676,-36.96697 z"/>
<path d="m 743.01666,276.76568 c 1.84047,1.84624 1.56247,1.59794 4.87816,4.41533 5.16893,4.39211 10.53144,8.55405 15.67354,12.97755 6.37677,5.48561 10.64022,9.63882 16.84237,15.47472 14.78886,13.69487 28.47614,28.4548 41.09012,44.15901 33.3151,41.26263 91.66926,-5.85203 58.35416,-47.11466 v 0 c -2.58631,-3.19039 -5.11217,-6.43074 -7.75894,-9.57116 -12.54717,-14.88735 -26.23147,-28.75878 -40.34923,-42.15045 -8.62222,-8.08016 -11.52519,-10.97878 -20.3828,-18.59516 -7.49359,-6.44349 -15.35706,-12.45022 -22.68331,-19.09133 -42.07013,-32.28938 -87.7342,27.20678 -45.66407,59.49615 z"/>
<path d="m 541.6584,339.39334 c -0.034,1.92874 -0.10999,3.8572 -0.10184,5.78623 0.0273,6.45429 0.24043,12.90662 0.30529,19.36065 0.19724,19.6279 0.44231,39.25144 0.76204,58.87803 0.49414,52.39081 1.527,104.77386 2.21893,157.16203 0.70059,53.02838 75.69405,52.03759 74.99346,-0.99079 v 0 c -0.69336,-52.46533 -1.72637,-104.92555 -2.22235,-157.39352 -0.42461,-26.03748 -0.63235,-52.07748 -1.10227,-78.11333 3.31584,-52.92925 -71.53742,-57.61855 -74.85326,-4.6893 z"/>
<path d="m 670.0051,327.72042 c 0,30.06231 0,60.12463 0,90.18694 -0.26864,36.68904 0.82965,73.42736 -1.48873,110.07534 -1.32118,20.88474 -2.64687,29.86926 -5.0491,50.1512 -6.19119,52.67038 68.29598,61.42604 74.48717,8.75565 v 0 c 2.69178,-23.05872 4.02253,-31.93219 5.49681,-55.78217 2.32989,-37.69146 1.32624,-75.46749 1.55385,-113.20002 0,-30.06231 0,-60.12463 0,-90.18694 0,-53.03301 -75,-53.03301 -75,0 z"/>
<path d="m 517.20592,450.05552 c 26.46759,-6.80424 53.37346,-11.73015 80.27411,-16.45456 41.51941,-6.18962 83.42671,-10.60909 125.43923,-11.11126 6.79644,-0.0812 13.59311,0.14122 20.38967,0.21183 14.25651,0.26138 28.32726,2.28407 42.33956,4.70107 52.30022,8.78559 64.72493,-65.17809 12.42471,-73.96369 v 0 c -4.87683,-0.8029 -9.7332,-1.74183 -14.63048,-2.40872 -17.64296,-2.40252 -20.92693,-2.21931 -39.47127,-3.32573 -7.82457,-0.0585 -15.64964,-0.2809 -23.47372,-0.17566 -45.55898,0.61279 -91.00486,5.40389 -136.01869,12.20759 -29.76212,5.24922 -59.5577,10.67813 -88.78001,18.46891 -50.80578,15.20767 -29.29889,87.05789 21.50689,71.85022 z"/>
<path d="m 544.84525,536.3968 c 22.26808,-4.62723 44.86215,-7.3228 67.44186,-9.87174 40.14325,-3.98958 80.51995,-3.05262 120.7723,-1.85557 18.72629,0.65653 9.89348,0.32774 26.49887,0.97411 52.99293,2.06149 55.90831,-72.88183 2.91539,-74.94332 v 0 c -17.02966,-0.66207 -7.96608,-0.32519 -27.19121,-0.99784 -43.81325,-1.29563 -87.75931,-2.17012 -131.4414,2.29971 -25.83956,2.9392 -51.71863,6.04443 -77.14794,11.62446 -51.45629,12.83549 -33.30417,85.60568 18.15213,72.77019 z"/>
<path d="m 428.97699,660.21606 c 20.35615,-3.75998 40.96266,-5.96375 61.51074,-8.3654 37.40987,-4.38972 74.80476,-8.92389 112.30443,-12.49616 32.25521,-3.07267 38.49825,-3.40824 70.9263,-5.91353 41.57793,-2.8471 83.38589,-4.55589 125.02594,-1.83132 19.00487,1.24351 25.03776,2.39028 43.22929,4.91614 19.97767,3.72792 10.66146,1.7423 27.98382,5.78939 51.67819,11.91068 68.52243,-61.17333 16.84424,-73.084 v 0 c -21.7176,-4.95149 -10.1761,-2.55744 -34.65921,-7.01282 -21.53947,-2.91088 -27.8454,-4.12461 -50.31735,-5.54541 -44.59646,-2.81965 -89.36216,-1.08177 -133.88964,1.9913 -33.23344,2.57269 -39.66133,2.91994 -72.7098,6.0729 -37.88182,3.61408 -75.65952,8.18339 -113.4508,12.62132 -23.2696,2.72353 -46.62919,5.196 -69.62657,9.76999 -51.68074,11.89962 -34.85213,84.98723 16.82861,73.0876 z"/>
<path d="m 610.72836,576.21565 c -2.74202,1.07464 -5.55626,1.98068 -8.22606,3.22392 -12.61604,5.87491 -24.41508,13.79787 -35.94047,21.50231 -16.48773,11.02164 -19.44258,13.34668 -36.19797,25.32609 -22.97497,16.36164 -45.32166,33.57389 -67.53879,50.94202 -7.65472,5.98404 -15.34724,11.92131 -22.91177,18.01897 -17.6661,14.2404 -25.11677,20.85754 -42.07103,35.41718 -14.25866,12.55674 -29.10192,24.40425 -44.09317,36.06336 -41.84262,32.58366 4.23764,91.75806 46.08026,59.1744 v 0 c 15.92728,-12.41714 31.71976,-25.00643 46.88947,-38.35119 15.49453,-13.31988 23.47229,-20.3818 39.55913,-33.35192 7.45344,-6.00938 15.03459,-11.85871 22.57643,-17.75677 21.43226,-16.76097 42.9838,-33.37942 65.15288,-49.16217 17.71419,-12.6862 35.4224,-25.31313 54.09181,-36.56578 3.79032,-2.28455 2.8863,-1.00171 3.89196,-2.55755 50.85715,-15.03499 29.59447,-86.95786 -21.26268,-71.92287 z"/>
<path d="m 500.28155,688.7493 c -0.3895,2.65767 -0.86291,5.3044 -1.1685,7.97302 -1.48281,12.94912 -1.87539,26.04232 -2.41137,39.05321 -0.66923,16.24562 -0.68717,18.26192 -1.19894,34.85116 -1.08735,31.90772 -1.03324,63.83194 0.39308,95.7241 0.73573,11.2832 1.0969,22.60696 2.23397,33.86091 7.98232,27.30043 3.22648,23.96606 56.48451,29.31106 3.48734,0.34999 14.38091,-12.62001 17.73569,-16.3997 10.1817,-11.4713 5.5649,-6.34587 17.40193,-19.09268 17.64393,-18.30198 8.36184,-8.78026 27.87701,-28.53516 37.26534,-37.7332 -16.09746,-90.43435 -53.3628,-52.70116 v 0 c -20.49679,20.75943 -10.67234,10.67327 -29.50083,30.23169 -11.86735,12.80687 -8.67512,9.19941 -18.67982,20.50594 -1.32952,1.50251 -5.97241,4.58313 -3.96693,4.52657 2.79765,-0.0789 4.2877,-5.23732 7.01584,-4.61255 52.35854,11.99072 46.56454,1.95469 53.54352,28.54544 -0.42494,-2.29206 -0.40994,-5.22384 -0.56196,-7.50133 -0.47859,-7.17036 -0.93287,-14.34252 -1.29637,-21.51979 -1.3668,-29.99619 -1.36342,-60.02377 -0.35237,-90.03493 0.70673,-22.99453 1.228,-46.03413 3.25212,-68.95781 10.76782,-51.92835 -62.66996,-67.15635 -73.43778,-15.22799 z"/>
<path d="m 729.43569,658.68454 c -23.18797,15.35106 -47.89201,28.19517 -72.24009,41.56802 -14.63813,8.15203 -29.63973,15.61157 -44.65191,23.03978 -47.52642,23.53167 -14.24761,90.74417 33.27881,67.21251 v 0 c 15.96088,-7.90738 31.90809,-15.85234 47.47844,-24.5149 25.69141,-14.11065 51.72352,-27.7204 76.1996,-43.90345 44.83195,-28.33013 4.7671,-91.73209 -40.06485,-63.40196 z"/>
<path d="m 572.2266,764.27279 c -0.1572,-0.0161 -0.58896,-0.15412 -0.47159,-0.0483 0.46385,0.41816 1.05357,0.67176 1.56335,1.03252 1.08632,0.76877 2.15924,1.55659 3.22379,2.35525 2.06438,1.54877 4.12182,3.10702 6.1626,4.68677 9.31525,7.21086 8.36159,6.54896 17.82743,14.33636 15.63627,13.11627 31.13468,26.42308 47.49768,38.63964 11.59082,8.65367 15.04353,10.77743 26.88904,18.75955 14.89605,9.67828 30.23379,18.68895 46.1586,26.57277 7.75304,3.83827 11.24306,5.30811 18.9996,8.76996 13.83841,5.82918 27.73068,11.67225 42.06051,16.21242 3.7452,1.18661 7.53326,2.23342 11.2999,3.35013 22.77661,6.18894 46.36317,9.25536 69.96745,9.33218 7.61947,0.0248 15.2312,-0.48786 22.8468,-0.73179 52.99769,-1.93514 50.26098,-76.8852 -2.73671,-74.95005 v 0 c -5.7683,0.24477 -11.53157,0.69179 -17.3049,0.73431 -17.39924,0.12816 -34.83274,-1.89207 -51.65509,-6.35026 -15.08383,-4.36391 -29.60276,-9.81018 -43.98285,-16.11736 -18.67352,-8.28205 -36.79531,-17.71121 -53.81402,-29.06759 -9.7935,-6.56357 -13.32875,-8.76228 -22.88112,-15.86942 -15.78444,-11.74391 -30.65917,-24.63441 -45.74514,-37.24365 -9.2174,-7.55849 -11.15771,-9.28763 -20.33832,-16.31046 -9.46558,-7.24083 -19.16391,-14.45277 -30.39156,-18.74137 -49.95596,-17.80173 -75.13142,52.84667 -25.17545,70.6484 z"/>
</svg>
