<?xml version="1.0" ?>
<svg xmlns="http://www.w3.org/2000/svg" width="1000" height="1000">
<path d="m 294.77248,187.52381 c -10.0575,20.59591 -19.72483,41.37581 -29.78202,61.97379 -3.6869,7.64397 -7.34329,15.30273 -11.0607,22.93191 -13.63516,27.98323 -10.49096,21.32391 -24.68236,49.36513 -8.00503,15.81741 -17.11052,33.41983 -24.2081,49.69506 -3.67948,8.4373 -6.88693,17.07269 -10.33039,25.60904 -19.72881,49.22676 49.88835,77.12751 69.61716,27.90075 v 0 c 2.86977,-7.21627 5.5171,-14.52501 8.60931,-21.64879 6.73933,-15.52596 15.58049,-32.57098 23.18326,-47.59671 14.5408,-28.73767 11.46305,-22.21413 25.36441,-50.74299 3.6663,-7.52411 7.27179,-15.07769 10.90768,-22.61654 3.26268,-6.68703 6.56358,-13.35556 9.78804,-20.06111 18.63475,-38.75268 -1.36585,2.41429 13.49058,-28.65228 3.26955,-6.83704 5.59767,-11.058 8.47133,-17.87759 0.81073,-1.92396 1.46893,-3.90868 2.2034,-5.86302 15.85097,-50.60876 -55.72063,-73.02541 -71.5716,-22.41665 z"/>
<path d="m 616.84482,277.14425 c -0.3116,-0.13966 -1.16528,-0.67095 -0.93481,-0.41898 1.41961,1.55208 3.04537,2.90235 4.55032,4.37184 2.39768,2.34119 4.80613,4.67209 7.15733,7.05996 10.64625,10.81225 20.80287,22.07008 30.94932,33.34714 17.89011,20.77858 35.18727,42.27515 49.73401,65.5721 1.70122,2.72456 3.23371,5.55091 4.85057,8.32636 0.96735,1.9454 1.9347,3.8908 2.90205,5.8362 24.1099,47.23572 90.91129,13.13916 66.80138,-34.09655 v 0 c -1.69436,-3.26939 -3.38873,-6.53878 -5.0831,-9.80817 -2.27912,-3.83787 -4.46045,-7.73553 -6.83736,-11.51361 -16.63036,-26.43384 -36.22758,-50.9189 -56.63173,-74.50117 -11.15446,-12.3798 -22.33114,-24.71662 -34.03951,-36.57988 -1.84413,-1.86853 -11.42532,-11.2988 -14.09909,-13.68752 -2.17194,-1.94038 -4.46196,-3.74441 -6.69294,-5.61661 -43.63478,-30.14144 -86.26121,31.56745 -42.62644,61.70889 z"/>
<path d="m 444.92051,301.3259 c -6.79343,10.72655 -10.62804,22.92392 -15.57747,34.52823 -4.67029,10.94989 -9.67063,21.47665 -14.68419,32.29643 -22.2876,46.94659 -47.53045,92.43769 -74.59204,136.78978 -6.84858,11.22434 -13.9396,22.29895 -20.9094,33.44843 -35.80512,55.56124 -74.20368,109.51997 -116.74486,160.15141 -7.43979,8.85465 -15.15848,17.47118 -22.73772,26.20676 -7.2657,8.3716 -14.53141,16.7432 -21.79712,25.1148 -34.76111,40.05203 21.88101,89.21167 56.64213,49.15964 v 0 c 7.27649,-8.38404 14.55299,-16.76808 21.82948,-25.15212 8.07044,-9.3201 16.28797,-18.51483 24.21131,-27.96031 44.51103,-53.06195 84.73578,-109.56763 122.20247,-167.77957 7.25902,-11.62404 14.64325,-23.17082 21.77706,-34.87212 28.38067,-46.55166 54.81494,-94.31876 78.1771,-143.59395 7.25462,-15.67885 14.45401,-31.30764 20.88568,-47.34351 1.01962,-2.54219 2.57448,-6.54178 3.67826,-9.32684 29.46307,-44.09566 -32.89762,-85.76273 -62.36069,-41.66706 z"/>
<path d="m 453.08964,340.92714 c 4.68415,13.05138 11.87373,24.89232 19.08669,36.65731 19.95868,31.40997 43.22342,60.53241 66.22587,89.72747 28.30637,35.44803 55.91053,71.44096 83.62817,107.34778 19.79998,25.99158 40.41135,51.33157 61.93411,75.91138 8.87065,10.26004 18.50353,19.87009 26.95122,30.49248 5.52061,7.98979 11.6072,15.4892 18.16679,22.6437 15.48894,16.4006 33.533,29.22893 52.06878,41.90329 27.67888,19.07248 57.3304,34.90839 87.0687,50.45876 47.00162,24.56313 81.73913,-41.90721 34.73751,-66.47034 v 0 c -27.1551,-14.18251 -54.27831,-28.54665 -79.55271,-45.95326 -13.80453,-9.38249 -27.64898,-18.87787 -39.31838,-30.92443 -5.46176,-5.76857 -9.96455,-12.24713 -14.69282,-18.61874 -9.20224,-11.39116 -19.28093,-22.01536 -29.01249,-32.94974 -20.51116,-23.4065 -40.12128,-47.56336 -58.98187,-72.32259 -27.87002,-36.10302 -55.62685,-72.29198 -84.08653,-107.93547 -21.21921,-26.92905 -42.74034,-53.74525 -61.27363,-82.63653 -5.21782,-8.42564 -10.52753,-16.78999 -13.74177,-26.23266 -20.43651,-48.93719 -89.64415,-20.0356 -69.20764,28.90159 z"/>
<path d="m 310.31855,640.04993 c -0.30378,-0.2933 -1.01134,-1.29014 -0.91134,-0.87989 0.20202,0.82882 0.8479,1.48107 1.24226,2.23753 0.9153,1.75575 1.87538,3.49156 2.68615,5.29796 1.16723,2.60061 2.28064,5.22966 3.24323,7.91276 3.71671,10.35989 4.23562,13.79867 7.03103,25.03728 7.64689,37.01922 11.62147,74.68919 15.64007,112.2415 1.61119,14.84892 2.77076,29.7382 3.18112,44.66797 1.56175,53.01001 76.52923,50.80136 74.96748,-2.20865 v 0 c -0.52253,-16.8578 -1.71946,-33.67838 -3.57501,-50.44557 -4.40676,-41.11992 -8.78953,-82.37796 -17.55316,-122.84159 -1.67132,-6.40436 -3.12172,-12.87049 -5.01397,-19.21309 -5.51834,-18.49689 -13.13923,-36.84693 -25.24679,-52.0407 -35.52114,-39.37954 -91.21222,10.85495 -55.69107,50.23449 z"/>
<path d="m 391.44044,679.54467 c 12.80687,-5.5098 26.20018,-9.62677 39.8348,-12.52407 4.96691,-1.05545 9.98455,-1.85619 14.97683,-2.78428 39.10291,-6.04529 78.65887,-8.52861 118.1443,-10.49243 24.06004,-1.06623 48.14872,-1.02693 72.21506,-0.27235 1.04118,0.0395 7.31135,0.2682 8.88222,0.35661 0.53941,0.0303 2.14741,0.22995 1.61477,0.13955 -10.72385,-1.82011 -10.69097,0.0462 -23.0762,-11.60092 -3.20445,-3.01347 -4.34796,-7.64809 -6.52193,-11.47214 -0.18323,0.0428 -0.52412,-0.0581 -0.54969,0.12836 -0.29637,2.16032 -0.1901,4.35792 -0.36396,6.53154 -0.29809,3.72681 -0.62663,7.45226 -1.05166,11.16674 -2.00206,17.49669 -5.24449,34.70621 -8.59022,51.98509 -5.62557,27.87639 -11.97158,55.64218 -21.47805,82.48351 -4.18744,11.82314 -9.63683,25.14438 -14.29502,36.8093 -2.12784,5.15447 -4.25567,10.30894 -6.38351,15.46341 -20.22862,49.0235 49.10108,77.63108 69.32969,28.60759 v 0 c 2.23876,-5.42787 4.47753,-10.85573 6.71629,-16.28359 5.46008,-13.70256 11.02835,-27.2808 15.89495,-41.21573 10.43155,-29.86953 17.66274,-60.67388 23.85947,-91.66632 3.79783,-19.77604 7.50043,-39.48931 9.65058,-59.52851 0.83878,-7.81738 1.90027,-20.23836 1.60455,-28.35573 -0.15746,-4.32217 -0.8312,-8.61005 -1.2468,-12.91507 -2.73865,-6.28248 -3.77561,-13.62699 -8.21595,-18.84744 -13.41945,-15.77706 -25.96194,-16.25698 -43.44282,-16.74984 -26.09239,-0.80895 -52.20896,-0.84168 -78.29357,0.32934 -42.91887,2.15273 -85.91793,4.89423 -128.38755,11.71444 -6.34174,1.22306 -12.71696,2.28369 -19.0252,3.66918 -18.58602,4.08207 -36.8255,9.90523 -54.19725,17.68126 -47.83047,22.90734 -15.43459,90.54984 32.39587,67.6425 z"/>
<path d="m 388.49426,856.41856 c 18.03031,0.92687 36.00007,-1.7259 53.88099,-3.65871 21.10841,-2.30455 42.32475,-3.57097 63.56239,-3.4158 12.38093,0.0905 17.94807,0.48696 30.2015,1.08636 12.9816,0.73508 25.94422,1.75409 38.90761,2.74954 52.87745,4.05906 58.61782,-70.72094 5.74038,-74.78 v 0 c -13.67559,-1.04944 -27.35062,-2.12109 -41.04621,-2.88301 -14.17474,-0.67101 -20.128,-1.09722 -34.51681,-1.16949 -23.69138,-0.11899 -47.36043,1.28627 -70.90897,3.84676 -13.65891,1.47645 -27.38411,3.62637 -41.15298,3.36975 -52.93019,-3.30071 -57.5981,71.55389 -4.6679,74.8546 z"/>
</svg>
