<?xml version="1.0" ?>
<svg xmlns="http://www.w3.org/2000/svg" viewBox="0 0 1000 1000">
<path d="m 126.31719,212.62703 c 3.92784,32.40824 5.46659,65.05518 7.06873,97.64213 3.06274,77.41618 3.5787,154.90748 3.46748,232.3751 -0.59013,55.48035 -1.18786,110.95903 -1.44043,166.4422 -0.24128,53.03246 74.75795,53.37367 74.99922,0.34121 v 0 c 0.25264,-55.56164 0.8564,-111.11871 1.44114,-166.6776 0.10916,-78.73462 -0.41934,-157.49352 -3.55844,-236.175 -1.74438,-35.26978 -3.39709,-70.62142 -7.8995,-105.67071 -8.28917,-52.38119 -82.36737,-40.65853 -74.0782,11.72267 z"/>
<path d="m 256.56452,198.33757 c 16.1463,-3.74449 32.14315,-8.09564 48.26502,-11.95209 22.81795,-5.0602 45.85044,-9.14454 69.04145,-12.04469 5.45563,-0.54259 10.9074,-1.2815 16.39486,-1.43808 0.66955,-0.0191 1.34058,-0.0101 2.00925,0.0291 0.12148,0.007 0.46978,0.11786 0.34841,0.10902 -1.27696,-0.0931 -2.54927,-0.24152 -3.82391,-0.36228 -9.15757,-2.21301 -15.00939,-6.37869 -20.34907,-14.07526 -0.79074,-1.13977 -1.17866,-2.5196 -1.91859,-3.69299 -0.10966,-0.17389 -0.0553,0.41358 -0.0215,0.61636 0.25259,1.51573 0.58559,3.01695 0.87838,4.52542 2.68067,15.1186 5.67099,30.19482 7.78492,45.40867 2.15875,15.53645 2.53402,21.72765 4.03288,37.84738 4.10473,53.79602 5.05991,107.77868 6.03306,161.70442 0.7364,56.48224 1.38037,112.97364 0.33132,169.45445 -0.88467,30.56878 -2.97371,61.12021 -6.73031,91.47591 -1.91882,15.5053 -2.83838,20.2095 -5.3202,35.32221 -3.59986,18.80656 -1.75521,9.86521 -5.46589,26.83801 -11.27392,51.82083 62.0118,67.76456 73.28572,15.94373 v 0 c 4.22909,-19.52197 2.14064,-9.2997 6.19748,-30.68061 2.76044,-16.95252 3.71639,-21.8186 5.85153,-39.20754 4.00607,-32.62593 6.23522,-65.45894 7.16895,-98.31075 0.16782,-9.18811 0.40385,-18.37523 0.50346,-27.56434 0.52255,-48.2067 -0.39303,-96.42332 -0.8343,-144.6261 -1.00981,-55.81099 -2.01561,-111.68147 -6.34853,-167.35283 -0.71339,-7.5478 -1.321,-15.10635 -2.14018,-22.64341 -2.49077,-22.91696 -6.56627,-45.59854 -10.79208,-68.24634 -1.60137,-7.92207 -2.97588,-16.21408 -7.01091,-23.37243 -4.61286,-8.18348 -9.36216,-13.31947 -17.61948,-18.18217 -3.39032,-1.99655 -7.31897,-2.89044 -10.97846,-4.335664 -2.72582,-0.448834 -5.43349,-1.026883 -8.17746,-1.346504 -10.71387,-1.247963 -22.00276,0.941431 -32.65515,1.749722 -25.9126,3.279386 -51.66145,7.792746 -77.14808,13.521236 -16.86276,4.04505 -33.60437,8.55737 -50.48549,12.52004 -51.1722,13.925 -31.47928,86.29342 19.69293,72.36842 z"/>
<path d="m 214.82495,409.82799 c 14.69104,-3.29482 29.67678,-4.89599 44.61443,-6.59274 12.78895,-1.60591 25.65893,-2.04792 38.53284,-1.95655 53.03214,0.30317 53.46088,-74.69561 0.42873,-74.99877 v 0 c -15.84862,-0.0733 -31.6942,0.49183 -47.43971,2.43605 -17.66242,2.01248 -35.3629,4.02552 -52.72254,7.96902 -51.7199,11.72825 -35.13365,84.87124 16.58625,73.14299 z"/>
<path d="m 207.46171,575.2937 c 14.00535,-2.9436 28.18536,-4.67877 42.41243,-6.09601 15.41879,-1.522 30.88827,-1.58076 46.34019,-0.7465 52.96244,2.73501 56.83032,-72.16519 3.86789,-74.90019 v 0 c -19.24851,-0.95922 -38.52152,-0.90631 -57.72194,1.02402 -16.62637,1.68936 -33.20254,3.75228 -49.57604,7.16889 -52.00755,10.37853 -37.33009,83.92833 14.67747,73.54979 z"/>
<path d="m 188.98776,762.95165 c 11.70997,-4.06966 23.29744,-8.44036 35.26286,-11.74644 4.31303,-1.1917 8.66654,-2.23176 12.99981,-3.34764 27.28218,-6.41223 55.09525,-10.62196 83.0332,-12.82472 5.22525,-0.41199 10.46336,-0.64057 15.69504,-0.96085 16.38575,-0.8074 32.76655,-0.0754 49.10397,1.16557 52.88716,3.93044 58.44563,-70.8633 5.55847,-74.79374 v 0 c -19.74771,-1.44118 -39.54627,-2.2827 -59.34491,-1.22552 -6.06398,0.38632 -12.13536,0.67007 -18.19193,1.15895 -31.87538,2.57293 -63.59641,7.4653 -94.70353,14.88768 -5.24756,1.37192 -10.51978,2.65273 -15.74267,4.11575 -11.91399,3.33731 -23.58935,7.40775 -35.17702,11.72069 -50.80581,15.20754 -29.2991,87.05781 21.50671,71.85027 z"/>
<path d="m 199.45946,777.72985 c -0.4972,0.94349 -1.03867,1.86495 -1.49161,2.83047 -2.2861,4.87336 -4.20641,9.91557 -6.56844,14.75259 -6.38374,13.0728 -14.00222,25.59794 -21.27924,38.17442 -10.34088,17.58911 -21.75366,34.51049 -32.49128,51.85254 -3.65652,5.90554 -7.19596,11.88278 -10.79393,17.82416 -27.453918,45.37381 36.71434,84.19951 64.16825,38.8257 v 0 c 3.32795,-5.50527 6.59745,-11.04631 9.98386,-16.51582 11.26954,-18.20184 23.25177,-35.96059 34.06258,-54.44776 8.62332,-14.92679 17.38553,-29.78765 24.91211,-45.31251 1.30088,-2.68328 2.41607,-5.45268 3.6241,-8.17902 0.26388,-0.70697 0.48815,-1.43002 0.79164,-2.12091 0.2582,-0.5878 0.59351,-1.13862 0.89026,-1.70792 25.43883,-46.5335 -40.36947,-82.50944 -65.8083,-35.97594 z"/>
<path d="m 330.8796,858.05858 c 8.74967,3.99714 16.57268,9.71982 24.30027,15.3811 9.04646,6.63933 16.78467,14.73474 24.00695,23.26455 34.50811,40.27021 91.45879,-8.53162 56.95068,-48.80184 v 0 c -11.12394,-12.8825 -23.03751,-25.08617 -36.85863,-35.12801 -11.12284,-8.04039 -22.4253,-16.02392 -34.91851,-21.82794 -47.45544,-23.67447 -80.9362,43.43767 -33.48076,67.11214 z"/>
<path d="m 622.9907,150.33387 c 14.91252,5.29072 28.60781,13.33129 41.96205,21.69377 10.2893,7.04374 20.79909,14.07282 29.48816,23.10839 1.19184,1.23937 2.25866,2.59316 3.38799,3.88973 35.69229,39.22449 91.16409,-11.25204 55.4718,-50.47652 v 0 c -2.48419,-2.67454 -4.86384,-5.45014 -7.45257,-8.02363 -12.41655,-12.34347 -26.72791,-22.5563 -41.2877,-32.18652 -3.90673,-2.41663 -7.76295,-4.91688 -11.72018,-7.24989 -14.40907,-8.494991 -29.50919,-15.946957 -45.25978,-21.60971 -50.10162,-17.387589 -74.69138,53.46679 -24.58977,70.85438 z"/>
<path d="m 480.81054,263.92351 c 7.70529,9.25303 13.0656,20.14208 19.06631,30.50194 2.34529,4.04899 4.76569,8.05399 7.14854,12.08099 7.30843,12.14289 15.82435,23.46663 24.34974,34.76057 32.00072,42.29012 91.80798,-2.96573 59.80726,-45.25585 v 0 c -6.84814,-9.02382 -13.72743,-18.04474 -19.63131,-27.73344 -2.1292,-3.58881 -4.29621,-7.15546 -6.38759,-10.76644 -8.97136,-15.48992 -17.37435,-31.53787 -29.58097,-44.82282 -36.22865,-38.72964 -91.00063,12.50541 -54.77198,51.23505 z"/>
<path d="m 563.52108,283.64882 c 12.1028,-2.3709 23.97289,-5.79121 35.90326,-8.88224 15.01197,-3.88944 18.46942,-4.69804 34.09945,-8.56914 36.15064,-8.59911 72.90855,-14.56816 109.85443,-18.47003 6.95263,-0.73427 13.92177,-1.30283 20.88265,-1.95425 28.46106,-2.37775 57.01325,-3.54803 85.57051,-3.56576 6.14988,0.0299 12.29963,0.1278 18.44641,0.32728 2.22765,0.0723 2.46541,0.0625 1.2907,0.0701 -8.79564,-1.01903 -16.45701,-4.49895 -22.66179,-11.79287 -4.00285,-4.70547 -6.10782,-10.81101 -8.17593,-16.63229 -2.5852,-7.27679 1.98074,-9.44634 -1.3383,-7.65726 -17.33164,39.2967 -39.34343,76.352 -61.03723,113.34929 -26.81764,45.75275 37.88652,83.67862 64.70416,37.92586 v 0 c 15.15221,-25.86003 30.19371,-51.75039 44.21267,-78.24967 5.93127,-11.21155 12.40674,-23.92358 17.62309,-35.61011 1.95135,-4.37173 3.66873,-8.84418 5.50309,-13.26628 2.65679,-9.03757 6.65964,-18.61034 4.37857,-28.41589 -1.64871,-7.08722 -4.25746,-14.26475 -8.72019,-20.012 -7.29323,-9.3925 -17.01341,-12.7808 -27.73048,-14.33372 -8.83691,-0.65613 -17.71021,-0.58014 -26.56583,-0.70245 -30.87825,0.0384 -61.75141,1.28829 -92.52353,3.89536 -7.53764,0.71243 -15.0843,1.33503 -22.61291,2.13729 -40.07085,4.26997 -79.92966,10.80194 -119.13458,20.15792 -21.45219,5.31551 -42.82,10.95783 -64.27143,16.26682 -52.31458,8.69968 -40.01137,82.68367 12.30321,73.98399 z"/>
<path d="m 525.56034,497.34975 c 15.66488,-5.48502 31.76539,-10.0165 47.98868,-13.5375 7.17729,-1.55772 14.4184,-2.80528 21.6276,-4.20792 46.24239,-7.88205 93.04057,-12.61157 139.95436,-13.45042 9.35074,-0.1672 18.70446,-0.0132 28.05669,-0.0198 39.3282,0.41443 78.42076,4.99725 117.11649,11.75262 12.50661,2.49015 6.6535,1.24803 17.57012,3.67515 51.78237,11.4493 67.97412,-61.78203 16.19175,-73.23132 v 0 c -13.10744,-2.88483 -6.14134,-1.42252 -20.90926,-4.33436 -42.98189,-7.45193 -86.40124,-12.48412 -130.07856,-12.86201 -10.19125,0.0219 -20.38437,-0.13059 -30.57375,0.0658 -50.88635,0.98051 -101.64903,6.15051 -151.79069,14.81211 -8.3602,1.65717 -16.75647,3.14175 -25.0806,4.9715 -11.26985,2.47726 -24.21103,5.99471 -35.41312,9.28866 -8.19306,2.40915 -14.52696,4.34498 -22.3124,7.40106 -1.97568,0.77553 -3.88539,1.70958 -5.82808,2.56437 -47.45544,23.67448 -13.97467,90.78661 33.48077,67.11213 z"/>
<path d="m 689.93587,459.52004 c 5.59677,23.5246 9.94524,47.30156 14.00444,71.13093 4.36105,27.52304 7.57979,55.23271 9.57294,83.02919 1.31784,18.37855 1.54431,27.41852 2.3027,45.91607 0.99331,37.22435 2.08672,74.59479 -1.1201,111.75302 -0.54988,6.37159 -1.40537,12.71311 -2.10805,19.06967 -3.64987,24.90556 -9.19925,49.77253 -18.50641,73.23183 -1.20438,3.03571 -2.61509,5.98545 -3.92263,8.97818 -2.54927,4.72456 -3.49824,7.13134 -6.7007,11.07242 -0.66692,0.82074 -1.42182,1.5826 -2.26287,2.22371 -0.25367,0.19337 -0.89491,0.52912 -0.93303,0.21244 -0.15292,-1.27012 3.99548,-3.10743 4.98235,-3.68695 -1.79809,-8.97208 9.93408,1.83441 11.22977,-1.72417 0.39612,-1.08795 -1.83766,-1.41004 -2.78416,-2.07689 -9.73562,-6.85911 -6.85687,-4.43911 -18.26906,-12.82839 -4.27683,-3.14397 -8.46969,-6.40062 -12.70453,-9.60093 -42.34162,-31.93253 -87.50105,27.94756 -45.15943,59.8801 v 0 c 11.45842,8.62598 15.53837,11.91516 26.9722,19.75086 12.54291,8.59576 26.11176,17.86047 41.69794,19.72872 6.03684,0.7236 12.1528,-0.42113 18.2292,-0.6317 4.69422,-1.69216 9.59287,-2.89911 14.08265,-5.07647 3.83255,-1.85863 7.35771,-4.3394 10.72144,-6.9525 13.55639,-10.53124 22.52034,-25.4996 29.82537,-40.72594 1.85112,-4.37149 3.83336,-8.68975 5.55338,-13.11447 11.29922,-29.06709 18.20189,-59.74725 22.51075,-90.56829 0.79924,-7.48339 1.76665,-14.95072 2.39771,-22.45016 3.34563,-39.75858 2.3196,-79.73113 1.20439,-119.55763 -0.83571,-20.11382 -1.05283,-29.09719 -2.50568,-49.14307 -2.16737,-29.90457 -5.65841,-59.71403 -10.37442,-89.3222 -4.31663,-25.26402 -8.93872,-50.473 -14.86507,-75.41755 -11.95022,-51.66907 -85.02131,-34.76889 -73.07109,16.90017 z"/>
</svg>
