<?xml version="1.0" ?>
<svg xmlns="http://www.w3.org/2000/svg" width="1000" height="1000">
<path d="m 337.11852,198.01724 c 26.24549,-2.40409 52.42014,-5.53877 78.65325,-8.10222 52.75238,-5.01183 105.7735,-5.5645 158.71915,-5.55023 29.59687,-0.0127 59.13505,1.87516 88.63565,4.04756 52.89008,3.89104 58.39284,-70.90682 5.50277,-74.79786 v 0 c -31.32731,-2.30258 -62.69607,-4.26468 -94.12458,-4.2497 -55.38802,-0.006 -110.85186,0.63303 -166.03444,5.90649 -24.76258,2.42458 -49.48601,5.18127 -74.22783,7.80112 -52.994,2.03366 -50.11798,76.9785 2.87603,74.94484 z"/>
<path d="m 458.46738,75.056949 c 0.24017,22.841697 0.83643,45.678771 1.17385,68.520101 0.75216,52.81217 1.59405,105.62339 2.00064,158.43958 0.24536,32.61977 -0.14847,65.23656 -0.82838,97.8482 -1.10178,53.02156 73.88203,54.57972 74.98382,1.55815 v 0 c 0.69024,-33.32381 1.09557,-66.65278 0.84233,-99.98482 -0.40954,-52.99313 -1.25035,-105.98133 -2.00661,-158.97043 -0.33286,-22.47157 -0.9074,-44.939219 -1.16565,-67.410781 0,-53.033008 -75,-53.033008 -75,0 z"/>
<path d="m 409.69307,318.90317 c 19.84896,-3.30147 39.89773,-4.97625 59.95978,-6.28397 23.53851,-1.0967 47.14406,-0.84212 70.63615,1.04665 13.33873,1.07244 16.90569,1.68894 29.73669,3.36445 14.36739,2.46815 7.57654,1.15504 20.38831,3.85687 51.92242,10.79641 67.19084,-62.63298 15.26843,-73.42939 v 0 c -16.52974,-3.39966 -7.85228,-1.76773 -26.04848,-4.80947 -14.955,-1.91384 -19.13954,-2.62539 -34.63248,-3.83426 -26.70729,-2.08389 -53.53971,-2.34357 -80.29256,-1.03173 -21.94504,1.46686 -43.88126,3.28026 -65.59917,6.87132 -52.50235,7.48355 -41.91902,81.73308 10.58333,74.24953 z"/>
<path d="m 217.51939,473.75099 c 17.46503,-5.5601 35.43136,-9.20251 53.40236,-12.67298 50.36022,-8.90377 101.33336,-13.60413 152.26842,-17.71879 44.58664,-3.12345 89.29427,-4.40745 133.98682,-4.27958 28.58965,0.0818 39.27863,0.53511 67.66837,1.29556 46.66941,2.1127 93.83371,3.72808 140.07018,10.91886 6.85336,1.06585 13.65404,2.4465 20.48105,3.66976 5.86216,1.2605 11.72431,2.52101 17.58646,3.78152 51.86205,11.08275 67.53543,-62.26127 15.67338,-73.34402 v 0 c -6.71846,-1.42793 -13.43691,-2.85586 -20.15537,-4.28378 -7.89018,-1.38841 -15.75184,-2.95004 -23.67055,-4.16522 -48.94997,-7.51169 -98.58813,-9.38629 -147.98649,-11.55048 -29.53113,-0.78359 -40.35629,-1.24446 -70.1267,-1.3208 -46.55849,-0.11938 -93.13179,1.24539 -139.57818,4.52268 -53.69927,4.355 -107.43691,9.35322 -160.51364,18.84945 -20.07127,3.9161 -40.14212,8.00174 -59.66799,14.17148 -51.00103,14.53945 -30.43914,86.66579 20.56188,72.12634 z"/>
<path d="m 313.41354,535.01899 c 2.90693,23.39059 5.43487,46.8227 7.779,70.27612 4.25896,48.12313 7.21665,96.34592 11.36951,144.47834 1.77267,20.62383 4.43382,41.1502 7.15714,61.66407 6.98976,52.57037 81.33548,42.68536 74.34573,-9.885 v 0 c -2.57988,-19.37168 -5.10449,-38.75486 -6.78094,-58.23137 -4.1889,-48.46932 -7.13115,-97.03346 -11.46382,-145.49049 -2.2907,-22.88536 -4.64209,-45.76973 -7.62852,-68.57669 -4.07648,-52.8761 -78.85458,-47.11108 -74.7781,5.76502 z"/>
<path d="m 474.87971,555.38656 c 16.20675,-4.19155 32.57127,-7.66631 49.05666,-10.55647 19.87868,-3.50601 39.94164,-5.54843 60.10864,-6.12799 9.37692,-0.34028 18.74297,0.15464 28.08096,0.96017 0.22422,0.0387 0.90014,0.12026 0.67264,0.11621 -3.33415,-0.0594 -8.01992,-1.9872 -10.69756,-3.83326 -2.02136,-1.39358 -3.86949,-3.02306 -5.80424,-4.5346 -4.59386,-5.58339 -4.03695,-4.20879 -6.86852,-9.80408 -1.14107,-2.2548 -0.98615,-2.9366 -0.75084,0.96978 0.13678,2.27055 0.27742,4.54086 0.41613,6.81129 1.34622,31.40495 1.22667,62.85196 0.94227,94.27708 -0.6453,41.15233 -3.31449,82.24132 -6.57079,123.25899 -1.90773,19.40778 -3.67287,38.96523 -8.30851,57.96109 -1.7038,6.98178 -3.02974,10.55246 -5.24723,17.22525 -16.45681,50.41501 54.84078,73.68846 71.29759,23.27345 v 0 c 3.35652,-10.41316 4.74585,-14.06923 7.34958,-25.08934 5.23091,-22.13942 7.54714,-44.84104 9.67404,-67.4439 3.38516,-42.76663 6.15726,-85.607 6.80232,-128.51401 0.29466,-33.25051 0.41988,-66.52646 -1.09327,-99.7525 -0.86355,-12.99678 -1.35712,-26.94386 -8.52201,-38.357 -1.69266,-2.69629 -3.8772,-5.05051 -5.8158,-7.57576 -2.41181,-1.99352 -4.69595,-4.15244 -7.23541,-5.98057 -6.88992,-4.95998 -15.58419,-6.81241 -23.84295,-7.73477 -12.22815,-1.04062 -24.4965,-1.61854 -36.77203,-1.19844 -23.769,0.7622 -47.43298,3.06705 -70.86228,7.2365 -17.74348,3.15455 -35.3901,6.79146 -52.83823,11.32533 -51.6807,11.89979 -34.85186,84.98734 16.82884,73.08755 z"/>
<path d="m 419.69873,657.48388 c 14.18733,-4.07151 29.11002,-4.51785 43.7683,-4.80967 10.66245,-0.0549 21.31018,0.51077 31.95311,1.06591 52.96225,2.7386 56.83521,-72.16133 3.87296,-74.89993 v 0 c -12.52907,-0.6428 -25.06488,-1.27979 -37.61675,-1.1446 -4.74285,0.12741 -9.48972,0.14919 -14.22856,0.38221 -16.60028,0.8163 -33.27552,2.87273 -49.25598,7.55587 -50.80577,15.20768 -29.29885,87.05789 21.50692,71.85021 z"/>
<path d="m 418.65469,745.29956 c 12.34789,-2.8906 24.96966,-4.90546 37.65217,-5.50022 3.48708,-0.16353 6.98109,-0.10082 10.47164,-0.15123 10.45998,6.8e-4 20.87299,0.93493 31.27223,1.93277 52.79985,4.96752 59.82498,-69.70274 7.02514,-74.67026 v 0 c -13.2718,-1.22871 -26.56232,-2.36233 -39.90891,-2.24519 -5.05691,0.13329 -10.11962,0.12362 -15.17074,0.39988 -16.49881,0.90236 -32.90304,3.57035 -48.97429,7.33647 -51.54651,12.46824 -33.91375,85.36602 17.63276,72.89778 z"/>
<path d="m 396.99523,831.97275 c 20.34709,-1.79277 40.76675,-2.38353 61.17988,-2.78524 32.01863,-0.63474 63.97649,1.23589 95.80172,4.59008 3.73031,0.46789 7.46062,0.93579 11.19093,1.40368 52.62496,6.56613 61.91086,-67.8568 9.28591,-74.42292 v 0 c -4.22084,-0.52419 -8.44168,-1.04838 -12.66253,-1.57256 -34.99989,-3.6468 -69.89997,-5.69111 -105.113,-4.98334 -21.69207,0.43878 -43.39138,1.06864 -65.01451,2.96004 -52.89884,3.77002 -47.56724,78.58027 5.3316,74.81026 z"/>
<path d="m 385.21541,867.58534 c -15.26348,16.0706 -31.79852,30.87319 -48.11417,45.85461 -3.38639,3.02798 -6.77279,6.05595 -10.15918,9.08392 -39.52551,35.35865 10.47917,91.25623 50.00468,55.89752 v 0 c 3.62738,-3.2464 7.25476,-6.49279 10.88214,-9.73918 18.15819,-16.67516 36.56061,-33.16276 53.38672,-51.2072 35.27732,-39.59811 -20.72287,-89.48778 -56.00019,-49.88967 z"/>
<path d="m 547.2291,940.52669 c 11.17504,7.12401 22.52967,13.96496 33.77233,20.98266 11.29959,7.02812 22.63186,14.00243 33.65462,21.46013 43.95565,29.67162 85.91755,-32.49114 41.9619,-62.16268 v 0 c -11.78027,-7.9373 -23.83149,-15.44912 -35.90937,-22.92404 -8.17998,-5.10378 -16.40183,-10.13666 -24.60501,-15.20284 -5.24901,-3.24173 -9.6925,-6.15653 -15.16475,-9.01362 -2.09774,-1.09523 -4.28845,-2.00233 -6.43267,-3.0035 -49.40123,-19.28779 -76.67828,50.5761 -27.27705,69.86389 z"/>
</svg>
