<?xml version="1.0" ?>
<svg xmlns="http://www.w3.org/2000/svg" viewBox="0 0 1000 1000">
<path d="m 145.56124,178.49728 c -0.0681,39.90352 0.0131,79.80547 0.34264,119.70768 0.95665,81.05711 2.5227,162.10377 3.2166,243.16418 0.64262,66.78844 -0.27928,133.57179 -1.83279,200.34027 -0.16161,6.42812 -0.32321,12.85625 -0.48482,19.28437 -1.33266,53.01626 73.64365,54.90093 74.97632,1.88467 v 0 c 0.16274,-6.47501 0.32548,-12.95001 0.48822,-19.42501 1.57105,-67.56391 2.4995,-135.14292 1.85032,-202.72695 -0.69524,-81.0531 -2.25471,-162.09253 -3.21642,-243.14226 -0.32924,-39.6953 -0.40698,-79.39035 -0.34007,-119.08695 0,-53.033 -75,-53.033 -75,0 z"/>
<path d="m 277.54299,203.01404 c 19.92491,-4.40171 39.71516,-9.37503 59.61673,-13.87872 21.6181,-5.00048 43.54919,-8.40409 65.67747,-9.95129 3.0399,-0.0998 5.05567,-0.25862 7.93653,-0.0955 0.2946,0.0167 1.16647,0.17547 0.8726,0.14892 -4.7817,-0.43197 -9.3821,-0.90809 -13.50741,-4.24129 -5.22713,-4.22346 -9.03232,-9.95285 -13.54848,-14.92927 -1.09284,-4.32288 -2.18568,-8.64576 -3.27852,-12.96864 -0.0417,-0.60779 0.0708,-2.40022 -0.12515,-1.82338 -0.46402,1.36572 -0.5006,2.84152 -0.70586,4.26924 -0.43095,2.9975 -0.87063,5.99494 -1.20257,9.00501 -1.36396,12.36827 -1.32919,15.30851 -2.06771,28.50141 -0.18426,6.35539 -0.44118,12.70909 -0.55279,19.06617 -0.43506,24.78123 -0.12169,49.58465 0.009,74.36678 0.22651,43.08518 0.16446,17.56126 0.17186,62.29559 -0.10245,11.45162 -0.13713,22.90404 -0.30734,34.35485 -0.53897,36.25878 -1.83547,72.47228 -3.96866,108.67292 -1.62828,27.63205 -2.95064,43.91716 -5.00422,71.4255 -4.54884,54.45074 -9.09662,108.89924 -12.62179,163.42731 -3.41995,52.92263 71.42394,57.75916 74.84389,4.83654 v 0 c 3.50618,-54.28032 8.05181,-108.47976 12.57002,-162.68366 2.10231,-28.19381 3.44603,-44.74193 5.11008,-73.0952 2.18801,-37.28086 3.51647,-74.57562 4.06771,-111.91586 0.1724,-11.67787 0.20687,-23.35737 0.31031,-35.03606 -0.009,-45.10684 0.0543,-19.5237 -0.17278,-62.65333 -0.1261,-23.95077 -0.42838,-47.92146 -0.0377,-71.87173 0.0931,-5.70662 0.31474,-11.41041 0.47212,-17.11562 0.52101,-9.92386 1.00383,-19.7665 2.41925,-29.60815 0.51232,-3.56217 2.10343,-11.80838 1.7906,-14.98947 -0.57159,-5.81235 -2.20719,-11.47035 -3.31078,-17.20552 -4.93679,-5.91233 -8.95744,-12.72992 -14.81038,-17.73698 -3.45832,-2.95852 -8.15017,-4.11796 -12.45684,-5.58952 -2.69945,-0.92238 -5.59016,-1.16584 -8.41778,-1.54319 -6.55841,-0.87523 -13.26153,-0.22777 -19.83186,-0.0765 -25.89601,1.88785 -51.58725,5.74119 -76.89262,11.61324 -19.98582,4.53191 -39.8664,9.50625 -59.8751,13.93774 -51.68074,11.89964 -34.85212,84.98724 16.82862,73.0876 z"/>
<path d="m 213.04619,370.07087 c 20.27646,-4.71971 40.9711,-7.10974 61.66612,-9.04658 16.58109,-1.55448 33.21726,-2.01319 49.85939,-2.10035 53.03207,-0.31452 52.58728,-75.3132 -0.4448,-74.99868 v 0 c -18.85365,0.12324 -37.70164,0.6642 -56.48494,2.43304 -23.97322,2.29309 -47.93878,5.12908 -71.4244,10.62497 -51.68074,11.89964 -34.85211,84.98724 16.82863,73.0876 z"/>
<path d="m 215.79198,528.39319 c 17.14461,-2.01362 34.2262,-4.57514 51.45857,-5.77205 4.65497,-0.32332 9.31896,-0.49996 13.97843,-0.74993 11.97218,-0.60489 23.95081,-0.3088 35.92144,0.0692 53.00859,1.60913 55.28425,-73.35633 2.27566,-74.96547 v 0 c -14.10289,-0.41366 -28.21489,-0.72947 -42.3171,0.01 -5.45511,0.30649 -10.91555,0.52943 -16.36532,0.91947 -17.46262,1.2498 -34.79507,3.68737 -52.15994,5.83646 -52.78751,5.09701 -45.57924,79.74981 7.20826,74.6528 z"/>
<path d="m 203.23343,748.69036 c 18.36162,-6.15707 37.36986,-10.41719 56.45291,-13.63999 6.77849,-1.14477 13.59778,-2.03328 20.39667,-3.04991 28.21574,-3.59083 56.67503,-5.73427 85.1322,-5.72559 6.26774,0.002 12.53242,0.27765 18.79863,0.41647 53.02194,1.08357 54.55433,-73.90078 1.53239,-74.98434 v 0 c -7.30369,-0.13849 -14.60608,-0.4261 -21.91108,-0.41548 -31.6772,0.0461 -63.35075,2.48381 -94.75097,6.54974 -7.78216,1.18525 -15.58815,2.22347 -23.3465,3.55576 -23.34274,4.00852 -46.57609,9.36772 -68.95189,17.18697 -49.57269,18.84272 -22.92506,88.94909 26.64764,70.10637 z"/>
<path d="m 228.95105,753.5158 c -0.0691,0.0799 -0.17338,0.13972 -0.20714,0.2398 -1.82823,5.41966 0.61439,-0.0694 -2.85441,7.68321 -1.44736,3.23475 -2.84622,6.49636 -4.4748,9.64376 -5.9207,11.44239 -9.64566,16.7601 -16.76551,28.0717 -11.48894,17.1366 -24.14232,33.51768 -37.5849,49.16665 -4.21083,4.90197 -8.42762,9.81278 -12.97109,14.40812 -4.06403,4.11042 -8.54657,7.78483 -12.81986,11.67724 -38.87972,36.06754 12.12749,91.05174 51.00721,54.98424 v 0 c 5.88177,-5.5281 12.00082,-10.8142 17.64531,-16.5844 5.28391,-5.40158 10.1967,-11.15778 15.10902,-16.89937 15.50751,-18.12542 30.04492,-37.13136 43.22313,-57.01687 3.95757,-6.37426 8.10045,-12.63715 11.87272,-19.12279 8.80121,-15.13191 16.7069,-30.98078 21.24269,-47.96973 2.07299,-7.76443 2.02085,-10.85622 2.57763,-18.28156 0,-53.03301 -75,-53.03301 -75,0 z"/>
<path d="m 342.56076,848.78463 c 11.05935,4.86416 21.19419,11.76973 31.16777,18.53125 9.8463,6.92547 19.16144,14.57787 27.76647,22.99234 38.11344,36.8764 90.26448,-17.02419 52.15105,-53.90055 v 0 c -11.84821,-11.38799 -24.4644,-21.94993 -38.00604,-31.28847 -16.35261,-10.96774 -33.11035,-22.11576 -51.96052,-28.29984 -50.88713,-14.9332 -72.00586,57.03207 -21.11873,71.96527 z"/>
<path d="m 530.07957,408.57012 c 25.03697,-8.12636 50.26679,-15.71101 75.95715,-21.51666 9.23531,-2.08704 18.54436,-3.83324 27.81653,-5.74986 40.37294,-7.30825 81.23583,-12.06508 122.24272,-13.679 22.06981,-0.86861 27.48625,-0.49126 48.84127,-0.11984 18.106,0.4933 36.12144,2.3581 54.04708,4.84683 52.53763,7.23168 62.76477,-67.06775 10.22714,-74.29943 v 0 c -20.91605,-2.8584 -41.93242,-5.01168 -63.05474,-5.53749 -23.82661,-0.36345 -29.85786,-0.77086 -54.39486,0.23527 -44.67558,1.83189 -89.19262,7.05671 -133.16334,15.12142 -10.21594,2.13182 -20.47234,4.07823 -30.64783,6.39546 -26.61105,6.06004 -53.03662,13.59036 -78.90118,22.32085 -2.9603,0.99924 -5.87874,2.1185 -8.8181,3.17774 -48.65228,21.10584 -18.80411,89.91054 29.84816,68.80471 z"/>
<path d="m 677.75683,128.52313 c 2.16574,33.47872 1.74246,67.07363 1.85838,100.60458 0.6975,82.27592 0.11827,164.5517 -0.19833,246.82744 -0.67491,78.6597 0.84568,157.30127 2.66163,235.93398 1.05712,41.69413 1.13676,83.42866 -1.98032,125.03543 -0.34579,3.21606 -0.93782,10.48579 -1.87952,14.21654 -0.038,0.15075 -0.41414,-0.16004 -0.35418,-0.30348 1.39668,-3.34103 1.98673,-7.33261 4.59603,-9.84354 13.53198,-13.02178 14.27195,-11.45961 28.19086,-12.75123 -1.07538,-0.73271 -2.11241,-1.52513 -3.22614,-2.19811 -24.65682,-14.89912 6.59608,4.78789 -24.74323,-14.83392 -6.71941,-4.20708 -30.57017,-19.53017 -36.4593,-23.30674 -44.64253,-28.62768 -85.12819,34.5064 -40.48566,63.13408 v 0 c 6.85949,4.39866 30.43079,19.54725 37.79448,24.14328 7.03847,4.39304 22.91814,14.16632 30.76963,18.15219 4.94608,2.51092 10.10901,4.56967 15.16351,6.8545 7.84117,0.97942 15.78482,4.53698 23.5235,2.93825 9.62545,-1.9885 18.69798,-7.06734 26.34603,-13.24073 4.8866,-3.9444 7.17842,-10.36817 9.90866,-16.02352 1.61682,-3.34903 2.20742,-7.11151 3.013,-10.7421 1.28587,-5.79516 2.04304,-14.92798 2.63658,-20.64398 0.96856,-13.15812 1.34613,-16.96585 1.90837,-30.85091 1.36892,-33.80651 0.95198,-67.65099 0.2577,-101.46766 -1.80051,-77.95944 -3.31568,-155.92751 -2.64218,-233.91379 0.31717,-82.45842 0.89654,-164.9169 0.19843,-247.3755 -0.12627,-36.4574 0.42688,-73.01523 -2.4053,-109.38977 -6.39558,-52.645961 -80.84821,-43.601241 -74.45263,9.04471 z"/>
<path d="m 770.74886,411.34293 c -0.22525,0.18094 -0.48884,0.32251 -0.67577,0.54282 -1.66982,1.96806 -3.21634,4.03845 -4.88321,6.00901 -7.19609,8.50719 -16.96376,19.50867 -24.1603,27.34022 -15.99533,17.4067 -27.41473,29.08171 -44.15681,46.51859 -9.37583,9.59007 -18.7262,19.2051 -28.12748,28.77022 -9.94695,10.12029 -19.96047,20.17498 -29.91702,30.28584 -17.25163,17.519 -44.25347,45.25507 -61.73158,62.50115 -10.06045,9.9269 -20.32386,19.64597 -30.48579,29.46895 -38.124,36.86544 14.0116,90.78092 52.13561,53.91548 v 0 c 10.51783,-10.1741 21.13786,-20.2436 31.55351,-30.52229 17.63008,-17.39826 44.43513,-44.93554 61.88578,-62.65681 10.04765,-10.20346 20.15276,-20.35026 30.19017,-30.5638 9.55983,-9.72758 19.06755,-19.50623 28.60133,-29.25935 17.64343,-18.38211 29.04134,-30.026 45.89714,-48.39451 5.27229,-5.74545 10.46069,-11.56799 15.60983,-17.42407 5.85191,-6.65533 13.94973,-15.98903 19.35936,-23.45159 1.85016,-2.55227 3.43797,-5.2848 5.15695,-7.9272 24.85669,-46.84703 -41.39503,-81.9997 -66.25172,-35.15266 z"/>
</svg>
