<?xml version="1.0" ?>
<svg xmlns="http://www.w3.org/2000/svg" viewBox="0 0 1000 1000">
<path d="m 294.88409,106.44218 c 4.43946,20.79449 3.32216,42.32281 2.91979,63.42791 -0.8386,31.49161 -4.13313,62.86822 -8.93675,93.98862 -2.75885,17.8733 -4.17483,24.41801 -7.51033,41.7431 -3.87979,19.16471 -8.3861,38.19151 -13.91036,56.94735 -5.24412,20.27188 -0.98586,32.06174 17.36069,47.94174 9.31803,8.0653 28.7343,5.67145 40.27543,4.85586 30.59179,-2.24434 61.24942,-3.67093 91.92449,-3.98047 8.68361,-0.0876 17.36809,-0.0218 26.05214,-0.0326 34.44542,0.27498 68.92603,1.49376 103.19224,5.18284 18.60737,2.00326 23.84196,3.03023 41.83313,5.84467 5.46817,1.00444 10.93635,2.00887 16.40453,3.0133 52.16794,9.53972 65.65913,-64.23689 13.49119,-73.7766 v 0 c -6.12363,-1.11531 -12.24726,-2.23062 -18.37089,-3.34593 -20.12599,-3.11318 -25.76606,-4.21771 -46.55391,-6.42617 -36.56675,-3.88477 -73.35417,-5.21922 -110.10844,-5.49202 -9.1425,0.0158 -18.28548,-0.049 -27.42749,0.0473 -31.97966,0.337 -63.94116,1.82376 -95.83452,4.16018 -2.6101,0.19325 -5.22715,0.3085 -7.83031,0.57974 -5.18595,0.54034 10.31043,3.39426 12.32507,5.53582 19.31002,20.52656 16.28632,19.41382 15.00963,38.09719 -0.0236,0.3458 0.13521,-0.67991 0.20282,-1.01986 6.2042,-21.07519 11.27794,-42.45346 15.61919,-63.99035 3.62408,-18.92229 5.13478,-25.91708 8.12733,-45.45792 5.22595,-34.12456 8.75614,-68.53031 9.65277,-103.05477 0.48013,-27.70317 1.34948,-55.85935 -5.15633,-83.017321 -12.88944,-51.442806 -85.64056,-33.21438 -72.75111,18.228421 z"/>
<path d="m 350.87388,138.91056 c 7.25117,-1.77983 3.43483,-0.84898 11.26705,-2.74501 8.36326,-2.02458 11.34518,-2.86068 20.13406,-4.46797 12.16778,-2.22523 17.02782,-2.70697 29.65433,-4.39297 37.80202,-4.76034 75.90928,-4.20595 113.89278,-2.86366 23.23338,0.91454 46.39249,3.14581 69.3545,6.77617 5.24362,0.88624 3.36378,0.55848 7.88853,1.35515 0.82166,0.14467 1.64523,0.279 2.46472,0.43549 0.14605,0.0279 0.57592,0.14761 0.43034,0.11738 -0.56126,-0.11653 -1.13718,-0.18637 -1.67799,-0.37643 -1.91912,-0.67449 -3.79168,-1.47481 -5.68753,-2.21221 -9.14589,-6.42042 -7.29391,-4.01094 -13.81521,-12.83922 -0.57925,-0.78416 -0.7364,-1.86156 -1.41947,-2.55717 -0.27371,-0.27874 0.008,0.78309 0.0578,1.17054 0.21897,1.69693 0.54879,3.37884 0.7485,5.07815 0.33129,2.81884 0.56272,5.64853 0.84408,8.47279 0.21022,3.95096 0.50602,7.89829 0.63067,11.85287 0.29476,9.35153 0.29385,24.41202 0.0622,33.43282 -0.33538,13.05893 -0.97506,26.14146 -2.6018,39.11453 -0.83833,6.68555 -2.12343,13.30745 -3.18515,19.96117 -3.89248,20.64585 -9.96954,40.73917 -18.01646,60.13687 -5.63532,13.58434 -12.41703,27.01427 -18.7228,40.28391 -3.413,7.18219 -6.77307,14.38942 -10.1596,21.58413 -22.58375,47.98411 45.27602,79.92235 67.85977,31.93825 v 0 c 3.31165,-7.03703 6.60008,-14.08503 9.93494,-21.11109 7.63812,-16.09244 14.6072,-29.82308 21.32899,-46.40528 9.80475,-24.18766 17.19982,-49.22003 21.8849,-74.90518 1.26053,-8.28351 2.77915,-16.53183 3.78158,-24.85051 1.7934,-14.88252 2.52958,-30.14059 2.89302,-45.12156 0.25924,-10.68556 0.22559,-27.47169 -0.18138,-38.33078 -0.19435,-5.18561 -0.62162,-10.35987 -0.93243,-15.53981 -1.17482,-10.53805 -2.03942,-21.36005 -5.42422,-31.500207 -0.98109,-2.939141 -1.97146,-5.921374 -3.53052,-8.59914 -6.49646,-11.158021 -7.32285,-10.284567 -17.21793,-17.693506 -2.51609,-1.062517 -4.98502,-2.24447 -7.54826,-3.187551 -6.07431,-2.234887 -12.77689,-2.344322 -19.02627,-3.792015 -25.95698,-4.071214 -52.1277,-6.631379 -78.38875,-7.642476 -15.35158,-0.53457 -24.93756,-0.974655 -40.45148,-1.064116 -28.75487,-0.165815 -57.52138,1.13009 -86.08389,4.553205 -6.09968,0.828121 -12.21284,1.562361 -18.29903,2.484364 -16.18093,2.451263 -32.19074,5.824773 -48.00646,10.019733 -51.92309,10.793165 -36.65925,84.223509 15.26385,73.430339 z"/>
<path d="m 458.92459,124.00083 c -0.69643,28.21367 -8.40313,55.72168 -14.97491,82.99071 -6.09732,26.29633 -13.88776,52.13839 -22.51867,77.70126 -5.2454,15.53576 -11.87727,34.49609 -18.24201,49.67716 -3.23231,7.70965 -6.9073,15.22615 -10.36094,22.83923 -21.79852,48.34589 46.57289,79.17364 68.37141,30.82776 v 0 c 3.98739,-8.89007 8.2131,-17.67704 11.96219,-26.6702 6.71556,-16.10899 14.02674,-36.92311 19.5815,-53.44514 9.22496,-27.43861 17.55488,-55.1739 24.12416,-83.37963 7.93823,-33.02136 16.76068,-66.35377 17.05727,-100.54115 0,-53.033012 -75,-53.033012 -75,0 z"/>
<path d="m 138.93005,281.01562 c 26.67047,-2.42467 53.19175,-6.39579 79.73047,-9.95374 59.10862,-7.74883 118.45343,-13.67829 177.9348,-17.67434 14.69834,-0.98745 29.41074,-1.753 44.11611,-2.6295 69.14481,-3.15425 138.48847,-5.40605 207.68462,-2.30322 11.02757,0.49449 22.03646,1.34209 33.05469,2.01314 29.3959,2.25922 58.81448,5.73488 87.45499,12.92963 9.06402,2.27696 12.17588,3.42002 20.53053,6.13234 50.49784,16.20089 73.40935,-55.21384 22.91152,-71.41472 v 0 c -11.06654,-3.51881 -14.94014,-4.92669 -26.8552,-7.86047 -32.62311,-8.03263 -66.05969,-12.15054 -99.52123,-14.65042 -11.77277,-0.70518 -23.53595,-1.59475 -35.31832,-2.11554 -71.43923,-3.15765 -143.02676,-0.88883 -214.41146,2.40258 -15.08799,0.90229 -30.1832,1.69094 -45.26395,2.70687 -60.93479,4.10494 -121.72962,10.18794 -182.28294,18.12872 -24.47629,3.28146 -48.93625,6.83834 -73.50157,9.38182 -52.967139,2.64241 -49.230202,77.54926 3.73694,74.90685 z"/>
<path d="m 269.50441,493.01631 c 1.8112,24.47 2.51597,49.00583 3.23744,73.52663 1.36109,56.17565 0.007,112.35607 -1.97181,168.49695 -1.14067,31.38359 -3.07999,62.74061 -7.07005,93.897 -6.68372,52.61015 67.71827,62.06237 74.40199,9.45222 v 0 c 4.21703,-33.425 6.44962,-67.04308 7.62162,-100.71024 2.03103,-57.7571 3.40491,-115.55529 1.98564,-173.3475 -0.75274,-25.45105 -1.49661,-50.91637 -3.37168,-76.31506 -3.53553,-52.91503 -78.36868,-47.91503 -74.83315,5 z"/>
<path d="m 339.3152,529.35501 c 25.18356,-3.95446 50.4972,-6.87047 75.84415,-9.53495 31.062,-3.00281 62.20745,-5.3078 93.3935,-6.53299 18.11691,-0.71175 24.89753,-0.68823 42.67156,-0.91786 21.60203,-0.2664 43.19075,0.71471 64.62813,3.37527 0.98115,0.13532 4.72427,0.63998 6.00807,0.85289 0.13325,0.0221 0.52181,0.13952 0.39015,0.10939 -6.05647,-1.38609 -8.5138,-1.78154 -14.92295,-6.98034 -3.24948,-2.63582 -5.38704,-6.40362 -8.08056,-9.60544 -0.52728,-0.97795 -0.993,-3.87603 -1.58184,-2.93386 -0.77391,1.23828 0.50303,2.8772 0.71423,4.32207 0.41223,2.82023 0.81397,5.6425 1.15589,8.47211 1.86404,15.42617 2.98345,30.9125 4.1512,46.4026 1.97306,31.5197 3.27698,63.10884 2.85129,94.69755 -0.2958,21.94958 -0.89073,28.73082 -2.08579,50.56326 -2.0906,33.85927 -6.8861,67.46053 -12.02183,100.96647 -8.02779,52.42189 66.10796,63.7749 74.13575,11.35301 v 0 c 5.4966,-35.92437 10.57835,-71.95594 12.77615,-108.26035 1.28112,-23.85522 1.8927,-30.7203 2.19564,-54.73003 0.42192,-33.43961 -0.95322,-66.87957 -3.06471,-100.24485 -1.2971,-17.10556 -2.5108,-34.22309 -4.67632,-51.24759 -0.64439,-5.06589 -2.23102,-16.40461 -3.69309,-21.72813 -1.04861,-3.8181 -2.54192,-7.49991 -3.81287,-11.24986 -3.37906,-4.56899 -5.95178,-9.86299 -10.13718,-13.70697 -8.91407,-8.18689 -19.85576,-10.14271 -31.1431,-11.49069 -24.80672,-3.03055 -49.77966,-4.25851 -74.7739,-3.93001 -19.07432,0.2557 -25.87545,0.22815 -45.34806,1.00092 -32.5849,1.29313 -65.12708,3.70675 -97.58189,6.85564 -26.52501,2.79654 -53.01553,5.85747 -79.37092,9.99102 -52.41904,8.04638 -41.03974,82.1781 11.3793,74.13172 z"/>
<path d="m 345.87078,634.49123 c 18.12909,-3.88412 36.38739,-6.97022 54.74128,-9.56595 27.4054,-3.48207 55.12118,-4.83295 82.71264,-3.06487 4.60584,0.29514 9.19407,0.8201 13.7911,1.23015 14.73396,2.20069 7.74149,0.9418 20.99688,3.66687 52.00642,10.38427 66.69199,-63.16391 14.68558,-73.54818 v 0 c -18.65232,-3.6469 -8.91462,-1.99314 -29.23328,-4.84089 -5.74536,-0.48259 -11.48095,-1.1006 -17.23608,-1.44776 -32.12299,-1.93772 -64.38265,-0.35281 -96.27833,3.75204 -19.29247,2.75797 -38.51125,5.90911 -57.56705,10.02305 -52.18133,9.46623 -38.79406,83.26176 13.38726,73.79554 z"/>
<path d="m 339.80307,732.04532 c 13.72099,-2.37144 27.43569,-4.81287 41.28055,-6.3643 4.67605,-0.52398 9.36562,-0.91935 14.04843,-1.37903 25.44336,-2.06086 51.05797,-1.88694 76.43497,0.94668 4.18904,0.46775 8.35567,1.11812 12.5335,1.67717 13.44221,2.27872 7.07259,1.09386 19.11949,3.4969 52.02746,10.27827 66.56313,-63.29968 14.53566,-73.57795 v 0 c -15.07197,-2.95446 -7.11362,-1.50382 -23.888,-4.28025 -5.18275,-0.67043 -10.35257,-1.44984 -15.54825,-2.01129 -30.0881,-3.25132 -60.45015,-3.39895 -90.60007,-0.88404 -5.41315,0.54308 -10.83426,1.01188 -16.23945,1.62923 -14.91969,1.70404 -29.71093,4.28214 -44.49944,6.85114 -52.25218,9.06695 -39.42957,82.96269 12.82261,73.89574 z"/>
<path d="m 337.93418,841.23245 c 23.09898,-6.20361 46.93517,-8.73025 70.63308,-11.41836 44.98669,-4.71194 90.23334,-5.65249 135.42614,-5.15781 16.75938,0.33745 33.51176,1.3641 50.13542,3.56261 9.42328,1.24624 14.03094,2.20895 23.10293,3.88965 52.16169,9.57382 65.70111,-64.19395 13.53942,-73.76777 v 0 c -11.40484,-2.07712 -16.42552,-3.12945 -28.35273,-4.66236 -19.11362,-2.45652 -38.36524,-3.64205 -57.62694,-4.01789 -7.57284,-0.0784 -15.14527,-0.22955 -22.71851,-0.23528 -40.72174,-0.0308 -81.46476,1.81262 -121.98699,5.86994 -27.88222,3.18324 -55.90031,6.37171 -83.01951,13.89881 -50.93888,14.75568 -30.0712,86.79414 20.86769,72.03846 z"/>
<path d="m 371.09536,841.95994 c -8.80555,11.08643 -18.02672,21.85427 -27.76886,32.13257 -3.72664,3.93173 -7.58047,7.74091 -11.37071,11.61137 -16.68083,16.36054 -8.39784,8.29331 -24.84554,24.20524 -38.11351,36.87629 14.03744,90.77688 52.15095,53.90064 v 0 c 17.21601,-16.65905 8.42921,-8.09434 26.35104,-25.70373 4.3782,-4.4935 8.82584,-8.92038 13.1346,-13.4805 10.47048,-11.08131 20.42268,-22.66013 29.91237,-34.58853 33.99561,-40.70379 -23.56824,-88.78085 -57.56385,-48.07706 z"/>
<path d="m 539.16016,909.03045 c -0.0451,0.0114 -0.16849,0.002 -0.13524,0.0341 4.22887,4.13223 8.76521,7.95334 12.99203,12.09841 6.48511,6.35969 8.09453,8.1844 14.44503,14.88433 10.6105,11.38619 21.00767,22.96732 31.20533,34.72387 34.75473,40.05754 91.40468,-9.09306 56.64994,-49.15062 v 0 c -10.93863,-12.60468 -22.08664,-25.0257 -33.47637,-37.2253 -12.93622,-13.59457 -25.97678,-27.40311 -41.18807,-38.49436 -44.63937,-28.63262 -85.13201,34.49697 -40.49265,63.12959 z"/>
</svg>
