<?xml version="1.0" ?>
<svg xmlns="http://www.w3.org/2000/svg" viewBox="0 0 1000 1000">
<path d="m 278.91334,227.71937 c 16.55145,-6.67494 34.12352,-10.59649 51.69238,-13.48792 5.78477,-0.95204 11.60723,-1.65899 17.41085,-2.48849 24.19694,-2.90602 48.58498,-4.35882 72.95843,-4.18592 11.91154,0.0845 16.91464,0.45907 28.42604,1.05323 52.96536,2.67772 56.75222,-72.22662 3.78686,-74.90433 v 0 c -13.52953,-0.67161 -18.90867,-1.07578 -32.95033,-1.14527 -27.72952,-0.13724 -55.47137,1.56067 -82.98952,4.95939 -6.90103,1.01374 -13.82553,1.87886 -20.70309,3.04121 -23.10707,3.90523 -46.1104,9.43735 -67.78048,18.48462 -48.55948,21.31847 -18.41062,89.99194 30.14886,68.67348 z"/>
<path d="m 224.78727,357.70453 c 16.30133,-5.21077 32.71211,-10.04586 49.43254,-13.73922 6.33365,-1.39904 12.70643,-2.61465 19.05964,-3.92197 38.68323,-7.30408 78.08181,-10.53456 117.42616,-10.85018 7.00084,-0.0562 14.0016,0.12253 21.00239,0.18379 15.79684,0.24649 31.51248,1.79322 47.20816,3.43808 52.74951,5.47617 60.49399,-69.12291 7.74447,-74.59908 v 0 c -18.07561,-1.86104 -36.17503,-3.59351 -54.36414,-3.83669 -7.79634,-0.0548 -15.59286,-0.24063 -23.38903,-0.16454 -43.84349,0.42791 -87.72885,4.15157 -130.81814,12.38299 -7.14116,1.4836 -14.30576,2.85856 -21.42348,4.45081 -18.32009,4.09825 -36.33015,9.34372 -54.20342,15.05572 -50.62904,15.78605 -28.3042,87.38634 22.32485,71.60029 z"/>
<path d="m 335.14282,84.066181 c 0.18581,18.891259 -1.95391,37.722259 -5.36054,56.283829 -1.46227,7.96748 -3.21217,15.87947 -4.81826,23.81921 -8.65247,41.42718 -21.23503,81.95192 -36.607,121.36307 -4.30921,11.04807 -8.76541,22.04468 -13.57252,32.88539 -4.80002,10.82474 -10.15944,21.39268 -15.23916,32.08902 -15.60457,30.62582 -33.36685,60.1353 -53.29004,88.148 -5.94845,8.36373 -12.02864,16.64546 -18.48315,24.62515 -5.93865,7.34194 -12.44651,14.20461 -18.66976,21.30692 -34.80723,40.01196 21.77823,89.23681 56.58545,49.22485 v 0 c 7.37825,-8.53302 15.07101,-16.80392 22.13473,-25.59908 7.20155,-8.96677 13.99225,-18.26293 20.63342,-27.65229 22.02835,-31.14391 41.66302,-63.9377 58.88247,-97.97407 5.59903,-11.87091 11.49856,-23.60467 16.79708,-35.61272 5.18641,-11.75397 9.9998,-23.67307 14.64753,-35.65027 16.6864,-43.00084 30.29567,-87.21639 39.7129,-132.38738 1.79399,-8.99131 3.77225,-17.9478 5.38196,-26.97393 3.99551,-22.40397 6.44406,-45.1193 6.26489,-67.895699 0,-53.033009 -75,-53.033009 -75,0 z"/>
<path d="m 342.99851,388.68416 c 7.32513,3.02307 13.56263,8.01354 19.65382,12.97691 9.74001,7.93659 10.22064,8.63283 19.82065,17.39214 16.85904,15.93976 31.88274,33.64624 46.78347,51.38629 34.11854,40.6008 91.53675,-7.65011 57.41821,-48.25091 v 0 c -17.07369,-20.30872 -34.36704,-40.50835 -53.7781,-58.65531 -17.84768,-16.14802 -36.04353,-32.85391 -58.23976,-42.83995 -48.07677,-22.38579 -79.73507,45.60504 -31.65829,67.99083 z"/>
<path d="m 599.09332,200.32352 c 15.46414,-2.76015 30.77158,-6.32224 46.25711,-8.97217 4.38825,-0.75092 8.79512,-1.38865 13.19268,-2.08297 20.10241,-2.47489 40.53701,-4.04704 60.70376,-1.46408 1.13638,0.2234 2.27277,0.44681 3.40916,0.67022 52.22097,9.24501 65.29539,-64.60659 13.07442,-73.8516 v 0 c -2.60009,-0.43809 -5.20019,-0.87618 -7.80029,-1.31426 -3.18128,-0.35048 -6.35364,-0.7946 -9.54386,-1.05144 -23.87263,-1.92192 -47.91385,-0.10298 -71.60724,2.93952 -5.02429,0.80205 -10.05863,1.54352 -15.07287,2.40616 -15.20927,2.61655 -30.25564,6.05789 -45.43547,8.82488 -52.25219,9.06695 -39.42958,82.96269 12.8226,73.89574 z"/>
<path d="m 547.96046,346.33074 c 26.13436,-5.71138 52.40288,-10.789 78.69057,-15.73714 39.39866,-7.04629 79.16958,-12.39182 119.16715,-14.39288 6.46182,-0.32329 12.93288,-0.42299 19.39932,-0.63449 15.74237,-0.4026 31.45213,0.53957 47.10102,2.13475 52.7693,5.28218 60.23944,-69.34487 7.47015,-74.62706 v 0 c -18.97389,-1.87178 -38.01726,-2.99691 -57.09753,-2.46512 -7.26839,0.25142 -14.54204,0.38042 -21.80515,0.75427 -42.99864,2.21323 -85.75872,7.92593 -128.11459,15.52601 -26.80057,5.04912 -53.58306,10.22225 -80.22851,16.04345 -51.90038,10.90187 -36.4828,84.30008 15.41757,73.39821 z"/>
<path d="m 625.21416,93.24997 c 0.79491,18.90462 0.72314,37.82152 0.39695,56.73474 -0.98384,36.21267 -8.87098,71.81751 -20.6943,105.97115 -2.79217,8.06566 -6.02677,15.9713 -9.04015,23.95695 -13.37033,32.69283 -29.78982,64.19901 -49.08168,93.79862 -10.38432,15.93274 -16.59692,23.8274 -27.73796,38.797 -31.61446,42.57964 28.60224,87.28924 60.2167,44.7096 v 0 c 12.931,-17.45289 19.31429,-25.53783 31.42677,-44.24992 21.81262,-33.69747 40.35361,-69.53846 55.40762,-106.73907 3.46942,-9.31533 7.19883,-18.53793 10.40826,-27.946 13.97675,-40.97128 22.95713,-83.6923 24.08429,-127.04632 0.34003,-20.99652 0.4354,-42.0035 -0.55335,-62.986783 -3.53556,-52.915024 -78.3687,-47.914992 -74.83315,5.000033 z"/>
<path d="m 624.53715,369.85539 c 12.87554,12.97379 26.05908,25.65014 39.06564,38.49744 23.61105,23.46316 46.33184,47.79616 68.50651,72.61453 12.0195,13.46936 23.7282,27.23052 36.24422,40.24898 7.12952,7.41573 7.87579,7.96003 15.25613,14.94552 17.94838,16.38526 39.10276,28.47599 60.4089,39.87407 13.65104,7.05152 27.71436,13.24609 41.74187,19.49594 48.44728,21.57223 78.95502,-46.94257 30.50774,-68.5148 v 0 c -12.41248,-5.52333 -24.86324,-10.98252 -36.96814,-17.16436 -15.46265,-8.2077 -30.99548,-16.6973 -44.25189,-28.27182 -16.8257,-15.76618 -31.77849,-33.32215 -47.01938,-50.59369 -23.2193,-25.96999 -46.9982,-51.4428 -71.7211,-75.99351 -12.07121,-11.92298 -24.21948,-23.77187 -36.33106,-35.65036 -35.71742,-39.20161 -91.15686,11.31045 -55.43944,50.51206 z"/>
<path d="m 325.54421,516.51722 c 3.63314,27.51244 6.01327,55.15388 8.18099,82.81425 4.0238,52.74475 5.64328,105.62877 6.31213,158.51002 0.0283,22.85821 0.10119,12.11399 -0.16029,32.233 -0.67513,53.02871 74.3188,53.98349 74.99392,0.95478 v 0 c 0.26793,-21.46058 0.19633,-10.07983 0.16029,-34.14253 -0.69849,-54.52174 -2.37692,-109.04596 -6.5362,-163.42634 -2.16193,-27.48161 -4.35674,-54.98201 -8.14229,-82.2986 -3.78685,-52.89763 -78.5954,-47.54222 -74.80855,5.35542 z"/>
<path d="m 407.26499,564.73183 c 15.59305,-6.30664 31.75281,-11.18115 48.09846,-15.11328 5.81656,-1.39924 11.67813,-2.60421 17.5172,-3.90632 35.7191,-7.35355 72.00879,-11.34726 108.37443,-13.58918 15.26978,-0.79438 30.57315,-0.74825 45.84243,-0.008 0.80066,0.0461 1.60238,0.0764 2.40197,0.13839 2.49948,0.19363 -5.23689,-0.17103 -7.3733,-1.48276 -6.66332,-4.09118 -13.46403,-8.42392 -18.53759,-14.37342 -6.11367,-7.16919 -4.7788,-19.7208 -5.44779,-10.71537 -1.46715,36.32224 -0.78988,72.68094 -0.36234,109.0164 0.32359,32.70566 0.6352,65.44238 -1.17152,98.11572 -0.9359,16.92511 -1.65192,22.71787 -3.23424,39.15162 -1.28478,12.86254 -3.01362,25.66957 -4.90556,38.45389 -7.73041,52.46657 66.46853,63.39902 74.19893,10.93245 v 0 c 2.0617,-14.04714 3.96941,-28.11589 5.36617,-42.24818 1.74269,-18.34447 2.48479,-24.3071 3.51164,-43.21494 1.84608,-33.99247 1.58034,-68.04787 1.22939,-102.07327 -0.42018,-35.68684 -1.09127,-71.39546 0.35998,-107.06926 -0.0287,-10.3047 0.84818,-20.39324 -5.78794,-29.84692 -10.3723,-14.77615 -21.07083,-18.99453 -36.66705,-19.69882 -18.01855,-0.85154 -36.07532,-0.90457 -54.09243,0.0681 -40.31588,2.54103 -80.54856,6.98784 -120.12889,15.26404 -6.71633,1.5157 -13.46021,2.9141 -20.14899,4.5471 -19.9058,4.85979 -39.56856,10.90366 -58.53118,18.69241 -48.76189,20.85132 -19.27367,89.81106 29.48822,68.95974 z"/>
<path d="m 398.52403,650.70926 c 22.88166,-2.97471 45.62916,-6.8723 68.49369,-9.9874 16.53434,-1.97833 33.22655,-3.24223 49.88767,-2.51462 6.88671,0.30076 8.52356,0.62892 14.95144,1.44814 52.65743,6.30041 61.56756,-68.16844 8.91013,-74.46885 v 0 c -9.93688,-1.14028 -12.25585,-1.58671 -22.66375,-1.96972 -20.4553,-0.75276 -40.93791,0.71155 -61.23308,3.19472 -21.64563,2.96219 -43.20513,6.47097 -64.82885,9.57843 -52.83453,4.584 -46.35177,79.3033 6.48275,74.7193 z"/>
<path d="m 415.49581,734.94182 c 15.85865,-1.61199 31.71183,-3.40665 47.64161,-4.16738 4.3159,-0.2061 8.63672,-0.29123 12.95508,-0.43685 13.30848,-0.4523 26.59354,0.27574 39.85274,1.31643 52.87519,4.08824 58.65684,-70.68858 5.78164,-74.77682 v 0 c -16.0536,-1.22576 -32.14006,-2.05 -48.24855,-1.49404 -5.02389,0.18021 -10.05072,0.2917 -15.07168,0.54063 -17.26979,0.85624 -34.46226,2.75508 -51.65453,4.52945 -52.67137,6.18272 -43.92769,80.6713 8.74369,74.48858 z"/>
<path d="m 394.52905,828.19063 c 14.72921,-3.15141 29.79896,-4.38123 44.77031,-5.77362 40.05787,-3.2499 80.23558,-4.55211 120.40645,-5.32287 10.95108,-0.0918 22.34454,-0.34664 33.31324,0.13515 4.73214,0.20785 9.44911,0.67817 14.17366,1.01725 52.90951,3.61721 58.02501,-71.20813 5.1155,-74.82534 v 0 c -5.99022,-0.39344 -11.97274,-0.93055 -17.97067,-1.18032 -11.98015,-0.49888 -24.09607,-0.2361 -36.07566,-0.13284 -42.02658,0.81208 -84.06081,2.19178 -125.96589,5.63667 -19.10352,1.80499 -38.35291,3.44906 -57.05111,7.9675 -51.24998,13.63597 -31.96581,86.11438 19.28417,72.47842 z"/>
<path d="m 399.79021,845.37727 c -8.17535,14.67152 -18.54947,28.09622 -29.79296,40.53691 -3.67623,4.06767 -7.51713,7.98344 -11.2757,11.97516 -3.72294,3.78209 -7.44588,7.56419 -11.16882,11.34629 -37.17787,37.81938 16.30682,90.39683 53.48469,52.57744 v 0 c 4.13631,-4.21276 8.27262,-8.42553 12.40893,-12.63829 4.51706,-4.8389 9.14844,-9.57355 13.55118,-14.5167 14.69034,-16.49349 28.12466,-34.2868 38.79471,-53.66154 25.18662,-46.67048 -40.8154,-82.28975 -66.00203,-35.61927 z"/>
<path d="m 565.45664,915.36545 c 12.54023,5.85941 24.86315,12.28506 36.54895,19.72286 3.06966,1.95379 6.03639,4.0648 9.05458,6.0972 11.68549,8.51911 22.53183,18.34761 31.00413,30.12084 31.66204,42.54425 91.82873,-2.23263 60.16668,-44.7769 v 0 c -4.35739,-5.76617 -5.38098,-7.33856 -10.44669,-13.02213 -11.62987,-13.04838 -24.79949,-24.63995 -39.08781,-34.70304 -4.04948,-2.68492 -8.03835,-5.46358 -12.14845,-8.05476 -13.71529,-8.64669 -28.1229,-16.18879 -42.79108,-23.07225 -47.86277,-22.83977 -80.16308,44.84841 -32.30031,67.68818 z"/>
</svg>
