<?xml version="1.0" ?>
<svg xmlns="http://www.w3.org/2000/svg" width="1000" height="1000">
<path d="m 442.60804,82.298337 c 9.69943,5.42984 19.75813,10.198881 29.41928,15.699211 8.12641,4.626562 9.51953,5.746652 17.14461,10.838722 44.22842,29.2634 85.61311,-33.285039 41.38469,-62.548437 v 0 c -3.71388,-2.440531 -7.37134,-4.969146 -11.14163,-7.321593 -12.73181,-7.943932 -26.16901,-14.604253 -39.39063,-21.668048 -45.96204,-26.4573354 -83.37837,38.542809 -37.41632,65.000145 z"/>
<path d="m 132.53158,160.79731 c -0.39129,25.35026 6.87152,49.25275 14.1897,73.22445 5.13976,16.60069 11.13721,32.90356 17.26344,49.15754 18.73595,49.61314 88.89953,23.11651 70.16358,-26.49664 v 0 c -5.59218,-14.77595 -11.04645,-29.60364 -15.73743,-44.69732 -5.15066,-16.61793 -11.02884,-33.56957 -10.87929,-51.18803 0,-53.03301 -75,-53.03301 -75,0 z"/>
<path d="m 320.58571,202.81216 c 26.06204,-8.33942 51.83834,-17.56506 78.17128,-25.04831 9.15823,-2.60256 18.3921,-4.93119 27.58815,-7.39679 42.0792,-10.67131 84.91372,-18.30889 128.19255,-21.89926 26.51024,-2.19926 33.89472,-1.90841 59.98308,-2.34401 32.65856,0.47261 65.62459,2.09918 97.62745,9.1356 3.2379,0.71191 6.43121,1.61327 9.64682,2.4199 5.39566,1.48563 10.74065,3.21448 15.84891,5.51608 0.87962,0.39632 3.61589,1.74854 2.22846,1.28399 -10.8939,-7.05369 -10.87129,-13.39543 -15.13691,-26.46335 -0.28142,-0.86213 0.25978,-3.38903 -0.33048,-2.70053 -1.26299,1.4732 -1.28909,3.66261 -2.03139,5.45549 -1.45702,3.51918 -3.04293,6.9836 -4.56439,10.4754 -12.22486,25.80507 -28.19878,49.52822 -44.14086,73.12145 -29.65002,43.97018 32.5332,85.90164 62.18322,41.93146 v 0 c 5.14373,-7.64217 10.4217,-15.19569 15.4312,-22.92652 13.10678,-20.22682 25.42453,-41.04106 35.60302,-62.91293 4.04138,-9.74725 8.49042,-19.10984 10.85809,-29.44701 1.01849,-4.44669 2.54739,-9.01251 1.98962,-13.54013 -2.24135,-18.1937 -5.69721,-26.39288 -19.34955,-36.11078 -12.56036,-7.735002 -26.43599,-12.798658 -40.68629,-16.514581 -4.44127,-1.075485 -8.85557,-2.269218 -13.32382,-3.226455 -37.14484,-7.957568 -75.30787,-10.11458 -113.19555,-10.48507 -28.95181,0.549679 -37.17273,0.245112 -66.56187,2.751472 -47.17525,4.023192 -93.87395,12.37278 -139.74095,24.050962 -9.95182,2.681562 -19.94372,5.218582 -29.85547,8.044662 -26.24869,7.48417 -51.98355,16.57699 -77.94111,24.97902 -50.80579,15.2076 -29.299,87.05784 21.50679,71.85024 z"/>
<path d="m 373.33645,272.55969 c 22.01266,-4.38643 43.57249,-10.75656 65.39051,-15.99175 6.65092,-1.59588 13.32937,-3.07476 19.99405,-4.61214 28.74621,-5.92241 57.91508,-11.25234 87.35575,-11.71564 3.20663,-0.0505 6.41304,0.11362 9.61956,0.17043 1.26357,2.88347 7.9413,-1.22225 9.72361,1.75549 50.50674,16.17309 73.37895,-55.25423 22.8722,-71.42732 v 0 c -3.11375,-0.89403 -6.1796,-1.97591 -9.34125,-2.68209 -9.09295,-2.03098 -12.96322,-1.95064 -22.37987,-2.64098 -4.59958,-0.0342 -9.20011,-0.20265 -13.79873,-0.1027 -34.0109,0.73928 -67.72334,6.59025 -100.93064,13.56691 -7.09993,1.64203 -14.21388,3.22452 -21.29978,4.92608 -19.7164,4.73458 -39.22706,10.32328 -59.02894,14.69155 -52.36986,8.3605 -40.54633,82.42266 11.82353,74.06216 z"/>
<path d="m 460.10071,243.01729 c 1.88559,23.83361 2.23741,47.75572 2.69445,71.64901 0.70594,30.81583 -0.0866,61.62779 -2.58616,92.3458 -0.45368,4.36942 -0.80786,8.89225 -1.60329,13.2367 -0.13937,0.76119 -0.78574,2.99393 -0.59798,2.2432 1.84721,-7.38572 2.03957,-10.19309 9.81341,-16.59818 3.74414,-3.08489 8.70861,-4.27792 13.06291,-6.41688 2.57503,-0.26701 5.39111,0.31905 7.72511,-0.80103 0.95379,-0.45772 -1.80373,-1.11101 -2.74841,-1.58727 -2.53721,-1.27915 -5.12415,-2.45725 -7.69101,-3.67582 -12.52444,-5.94571 -25.12843,-11.70031 -37.76497,-17.40308 -48.33995,-21.81167 -79.18632,46.55135 -30.84636,68.36302 v 0 c 12.29166,5.54518 24.51681,11.20605 36.72775,16.92554 6.27262,2.93803 18.68764,9.02041 25.23946,10.40605 6.50723,1.37621 13.23296,1.35681 19.84943,2.03522 7.01361,-2.51464 14.80862,-3.46057 21.04082,-7.54392 18.64327,-12.21511 20.71001,-33.40071 22.54978,-53.14666 2.66345,-33.20669 3.59091,-66.51059 2.8157,-99.82161 -0.51053,-26.52366 -0.86599,-53.09719 -3.26236,-79.53316 -6.5924,-52.62167 -81.01068,-43.2986 -74.41828,9.32307 z"/>
<path d="m 344.236,296.3742 c -17.76878,24.61333 -38.55799,46.86898 -59.08728,69.16379 -16.36632,17.39662 -33.44007,34.10037 -50.48893,50.82034 -37.86011,37.13641 14.6587,90.67868 52.51881,53.54227 v 0 c 17.95854,-17.61832 35.93732,-35.22575 53.15746,-53.57523 23.25422,-25.28279 46.78676,-50.56606 66.56128,-78.73762 29.14238,-44.30825 -33.51896,-85.52181 -62.66134,-41.21355 z"/>
<path d="m 626.89083,350.64317 c 9.66806,1.47819 18.94677,5.33367 27.94797,8.99278 14.9223,6.06612 13.12856,5.51013 27.38445,12.63202 12.12505,6.55215 23.09452,14.86909 34.03315,23.175 42.33527,31.94096 87.50661,-27.93016 45.17133,-59.87111 v 0 c -14.73031,-11.05771 -29.5632,-22.03283 -45.97852,-30.54254 -5.77282,-2.82856 -11.46989,-5.81724 -17.31844,-8.48568 -5.49452,-2.5069 -11.08698,-4.7976 -16.69701,-7.03406 -15.04605,-5.99819 -30.52248,-11.60187 -46.709,-13.45615 -52.74292,-5.53943 -60.57685,69.05032 -7.83393,74.58974 z"/>
<path d="m 592.13297,355.83244 c 0.21501,-0.26643 0.94208,-0.96959 0.64505,-0.79931 -1.0056,0.57651 -1.87506,1.36329 -2.81412,2.04283 -2.19061,1.58522 -4.37149,3.18403 -6.57488,4.75145 -3.30098,2.3482 -6.63464,4.6502 -9.93791,6.99517 -31.09504,22.07424 5.36145,-3.60376 -31.47608,22.27301 -49.59425,33.38352 -100.30181,65.19555 -152.30999,94.6954 -12.91665,7.32652 -25.9902,14.37292 -38.9853,21.55939 -53.06505,28.6673 -106.98899,55.74441 -161.97686,80.53683 -12.86005,5.79821 -25.83572,11.33648 -38.75358,17.00472 -48.55985,21.31759 -18.41223,89.99161 30.14763,68.67402 v 0 c 13.36684,-5.87064 26.79339,-11.6072 40.10053,-17.61193 56.62059,-25.54953 112.15085,-53.44124 166.7913,-82.97854 13.47359,-7.45812 27.02809,-14.77189 40.42076,-22.37436 53.8471,-30.56675 106.35389,-63.51785 157.67959,-98.13635 37.97719,-26.68329 0.74033,-0.44944 31.54624,-22.32236 7.68718,-5.45807 15.69281,-10.69345 23.06238,-16.59825 1.85029,-1.48252 3.60586,-3.07954 5.40878,-4.61931 37.542,-37.45796 -15.43155,-90.55036 -52.97354,-53.09241 z"/>
<path d="m 357.29325,567.34701 c 0.0279,25.57817 0.27028,51.15575 0.39286,76.73374 0.0623,47.22417 0.98384,94.42888 3.37157,141.59283 1.14984,18.86413 2.36821,37.72341 3.47979,56.58982 3.12057,52.94112 77.99062,48.52797 74.87005,-4.41315 v 0 c -1.10059,-18.66368 -2.29947,-37.32078 -3.44642,-55.98167 -2.34589,-46.01566 -3.20473,-92.0727 -3.27585,-138.14739 -0.1221,-25.45814 -0.36323,-50.91587 -0.392,-76.37418 0,-53.03301 -75,-53.03301 -75,0 z"/>
<path d="m 513.7504,579.88044 c 14.00745,-3.50346 28.25239,-5.89621 42.51343,-8.0835 19.48422,-2.69599 39.10243,-4.46518 58.77685,-3.78695 7.37954,0.33535 14.63173,1.70463 21.84364,3.20545 0.62511,0.12825 1.25215,0.24739 1.87533,0.38474 0.0484,0.0107 -0.1006,0.008 -0.14868,-0.004 -1.74572,-0.43988 -3.41562,-0.89112 -5.04796,-1.71585 -7.99969,-4.04175 -6.46318,-4.24198 -14.54612,-12.6672 -1.036,-2.03998 -2.07201,-4.07997 -3.10801,-6.11995 -0.11388,-0.0666 -0.34775,-0.33155 -0.34165,-0.19977 0.0822,1.77628 0.41592,3.53236 0.57794,5.30314 0.29307,3.20312 0.58369,6.40727 0.78722,9.61732 0.8016,12.64258 0.73892,16.52338 1.04123,29.843 0.42346,38.59682 -1.26277,77.232 -5.58774,115.59619 -0.91866,8.1489 -2.07589,16.26914 -3.11383,24.40371 -5.00755,33.14253 -10.40587,66.22798 -15.87505,99.29775 -8.6517,52.32254 65.34354,64.55789 73.99524,12.23535 v 0 c 5.62058,-33.99736 11.18563,-68.00845 16.28271,-102.08807 1.11886,-8.85557 2.36694,-17.69577 3.35657,-26.56672 4.6153,-41.37088 6.41483,-83.02987 5.92125,-124.64638 -0.38022,-15.60349 -0.72733,-31.16704 -2.35088,-46.7031 -0.5045,-4.82764 -1.6092,-13.91757 -3.16177,-18.63751 -1.1992,-3.64569 -3.01135,-7.06033 -4.51703,-10.5905 -3.51513,-3.92328 -6.66236,-8.21031 -10.54541,-11.76984 -4.84693,-4.44311 -13.76596,-7.08066 -20.24554,-8.4058 -11.49808,-2.38321 -23.10477,-4.29509 -34.86398,-4.73869 -9.67968,-0.25588 -11.26305,-0.43736 -21.16572,-0.10558 -17.16879,0.57523 -34.2668,2.46727 -51.28306,4.73776 -16.89522,2.62353 -33.77508,5.48554 -50.35315,9.72676 -51.24998,13.63596 -31.96581,86.11438 19.28417,72.47842 z"/>
<path d="m 428.40032,688.18309 c 20.0254,-3.58309 40.17692,-6.44643 60.30048,-9.41907 17.94685,-2.45206 36.04706,-4.04389 54.17271,-3.40295 7.73702,0.27359 11.04125,0.69119 18.50755,1.40357 52.80803,4.87973 59.70901,-69.8021 6.90098,-74.68184 v 0 c -10.01957,-0.90311 -14.26004,-1.42656 -24.67641,-1.71816 -22.03842,-0.61694 -44.04846,1.17371 -65.86661,4.20478 -21.56347,3.18637 -43.16414,6.22892 -64.60264,10.18335 -51.92308,10.79324 -36.65914,84.22356 15.26394,73.43032 z"/>
<path d="m 437.85052,779.56171 c 11.93184,-4.17721 24.50495,-6.02436 36.9486,-7.97416 25.15457,-3.82436 50.6184,-4.38835 76.01077,-4.61437 53.03079,-0.48487 52.34509,-75.48173 -0.6857,-74.99687 v 0 c -29.10251,0.27259 -58.27505,1.08346 -87.09191,5.54005 -19.27034,3.09512 -38.79939,6.2637 -56.83983,14.05442 -48.07685,22.38564 -16.41877,90.37657 31.65807,67.99093 z"/>
<path d="m 429.61374,862.25149 c 17.44693,-3.92377 35.21255,-6.05087 52.95692,-8.07848 35.10511,-3.50991 70.41638,-3.60031 105.65767,-3.96132 4.27172,-0.0646 8.54343,-0.12921 12.81514,-0.19381 53.02691,-0.80384 51.89012,-75.79522 -1.13679,-74.99139 v 0 c -4.14894,0.063 -8.29787,0.12609 -12.44681,0.18914 -37.8512,0.38794 -75.77573,0.56258 -113.47069,4.44994 -22.26455,2.58226 -44.65528,5.20935 -66.38658,10.88857 -50.69768,15.56423 -28.68654,87.26158 22.01114,71.69735 z"/>
<path d="m 430.73103,868.63733 c -10.84604,11.85312 -21.55487,23.90706 -33.27833,34.91591 -3.34268,3.13893 -6.88118,6.06259 -10.32177,9.09388 -3.92255,2.79357 -7.84511,5.58714 -11.76766,8.38071 -42.82616,31.27971 1.41003,91.84507 44.23619,60.56533 v 0 c 5.79157,-4.30151 11.58314,-8.60302 17.37471,-12.90453 4.50698,-4.03726 9.1174,-7.96193 13.52092,-12.11177 12.19779,-11.49509 23.42174,-24.00619 34.70442,-36.38196 36.45672,-38.51503 -18.01177,-90.07261 -54.46848,-51.55757 z"/>
<path d="m 570.60034,938.34634 c 10.95982,5.67274 20.00746,14.28364 29.14811,22.41977 10.02131,9.32076 5.15264,4.72967 14.61415,13.76459 38.36808,36.6114 90.14433,-17.64932 51.77625,-54.26066 v 0 c -10.61914,-10.12621 -5.08577,-4.91881 -16.61534,-15.60601 -14.78851,-13.08574 -29.85472,-26.25336 -47.94541,-34.62126 -48.29792,-21.90459 -79.27568,46.39898 -30.97776,68.30357 z"/>
</svg>
