<?xml version="1.0" ?>
<svg xmlns="http://www.w3.org/2000/svg" width="1000" height="1000">
<path d="m 458.92459,50.526057 c 0,20.285593 0,40.571186 0,60.856783 0,28.27915 0,56.55831 0,84.83747 0,53.03301 75,53.03301 75,0 v 0 c 0,-28.27916 0,-56.55832 0,-84.83747 0,-20.285597 0,-40.57119 0,-60.856783 0,-53.0330084 -75,-53.0330084 -75,0 z"/>
<path d="m 305.70799,147.92514 c 13.02798,13.02698 26.33661,25.89761 40.89506,37.23157 5.36382,4.1758 10.96506,8.03734 16.44759,12.05602 42.89908,31.17963 86.99374,-29.48882 44.09467,-60.66845 v 0 c -4.17607,-3.00133 -8.45464,-5.86493 -12.52819,-9.00398 -12.84245,-9.89627 -24.49405,-21.25927 -35.93553,-32.707519 -37.54197,-37.457988 -90.51556,15.634369 -52.9736,53.092359 z"/>
<path d="m 622.58727,86.067283 c -0.33433,0.579738 -0.69993,1.14253 -1.00298,1.739213 -1.28921,2.538363 -2.37777,5.180688 -3.77221,7.662803 -4.75987,8.472651 -10.41578,16.465291 -16.24588,24.215121 -4.23825,5.6338 -8.5603,11.20907 -13.06585,16.63147 -4.99003,6.00547 -10.27417,11.76036 -15.41125,17.64053 -34.80415,40.01464 21.78509,89.23514 56.58924,49.2205 v 0 c 5.96786,-6.88726 12.1093,-13.62787 17.90357,-20.6618 5.28529,-6.41606 10.38385,-12.98883 15.32379,-19.67442 12.75199,-17.25823 24.52267,-35.47159 31.69501,-55.81957 14.81661,-50.921194 -57.19684,-71.875042 -72.01344,-20.953847 z"/>
<path d="m 86.276307,248.60068 c -0.201643,20.54552 1.729708,41.07335 5.452131,61.27516 1.209383,6.56339 2.73551,13.06445 4.103265,19.59667 5.202247,22.78657 12.197567,45.09292 19.245167,67.35754 16.01124,50.55828 87.51145,27.91498 71.50022,-22.64331 v 0 c -6.31355,-19.92614 -12.62438,-39.87565 -17.37177,-60.24847 -1.14429,-5.33299 -2.40683,-10.64198 -3.43285,-15.99898 -3.11291,-16.25295 -4.70819,-32.78704 -4.49616,-49.33861 0,-53.03301 -75.000003,-53.03301 -75.000003,0 z"/>
<path d="m 265.37985,307.5995 c 13.81864,-6.04181 27.725,-11.85398 42.1339,-16.36532 4.93434,-1.54491 9.92137,-2.9162 14.88205,-4.3743 35.36443,-9.55067 71.25555,-17.44335 107.4657,-23.05738 8.4801,-1.31476 16.99736,-2.37746 25.49604,-3.56618 42.70993,-5.47476 85.78294,-8.14852 128.84119,-8.17347 7.87925,-0.005 15.75739,0.18669 23.63609,0.28004 27.27042,0.69713 54.54137,2.2752 81.66701,5.22062 12.34884,1.34088 18.5106,2.31397 30.64041,4.03798 17.01763,2.4371 33.85951,5.95564 50.2372,11.19176 5.32733,1.97041 10.49819,4.31795 15.844,6.2419 -1.34446,-0.39554 -2.24597,-0.64723 -3.76522,-1.64939 -12.75107,-8.4111 -13.14581,-10.17899 -19.02629,-29.26084 -2.49246,-8.08791 3.49805,-10.40671 0.21429,-9.07378 -5.04145,8.94592 -10.29978,17.71348 -16.39535,26.00127 -3.70798,5.04152 -7.72339,9.84953 -11.58509,14.77429 -32.52398,41.88903 26.71606,87.88489 59.24004,45.99586 v 0 c 4.8755,-6.32825 9.95151,-12.50697 14.62651,-18.98475 9.21029,-12.76197 17.3541,-26.32482 24.00864,-40.58882 2.25864,-6.32828 6.27306,-15.67333 4.77188,-22.34885 -4.46615,-19.8603 -9.9794,-29.17035 -27.28873,-35.64582 -0.76492,-0.12054 -3.07966,-1.20438 -3.44331,-1.35506 -4.81598,-1.9955 -9.62619,-4.01628 -14.59339,-5.6174 -20.35422,-6.38453 -41.19349,-10.98173 -62.32818,-13.93933 -13.80496,-1.94882 -19.87472,-2.9153 -33.99783,-4.43651 -29.22174,-3.1475 -58.59742,-4.83443 -87.97339,-5.55828 -8.48782,-0.0928 -16.97513,-0.29123 -25.46345,-0.27856 -46.22446,0.069 -92.45988,2.98066 -138.30561,8.89712 -9.24463,1.30508 -18.50944,2.47444 -27.7339,3.91524 -39.11543,6.10957 -77.88702,14.65449 -116.07275,25.06163 -5.89383,1.75426 -11.82038,3.40216 -17.68151,5.26277 -15.49417,4.9186 -30.57265,10.97566 -45.4216,17.56629 -49.37533,19.35397 -22.00468,89.18124 27.37065,69.82727 z"/>
<path d="m 322.26248,357.49623 c 4.32334,12.7678 6.7973,26.06019 10.27241,39.06615 1.25181,4.68501 2.62977,9.33539 3.94466,14.00308 7.05841,23.54488 17.02247,46.08761 28.96712,67.53447 25.95679,46.24657 91.35931,9.53813 65.40252,-36.70844 v 0 c -9.2107,-16.21907 -16.65871,-33.42808 -22.20169,-51.24138 -1.12635,-3.96201 -2.31352,-7.90724 -3.37904,-11.88604 -3.85133,-14.38145 -6.61672,-29.07202 -11.43421,-43.18396 -15.8506,-50.60888 -87.42236,-28.19276 -71.57177,22.41612 z"/>
<path d="m 395.26682,385.40482 c 14.36795,-8.72586 31.12175,-12.0649 47.32082,-15.59474 25.16252,-4.7841 50.64273,-7.93913 76.19068,-9.74018 14.83158,-1.04558 21.15191,-1.08372 35.80571,-1.50947 17.54153,-0.38702 35.09803,0.29127 52.48966,2.63328 1.70023,0.32033 1.51362,0.26346 2.91971,0.58988 0.26217,0.0609 1.04726,0.24942 0.78463,0.19058 -2.79228,-0.62562 -6.43231,-1.59528 -8.32936,-3.22695 -5.53228,-4.75836 -9.98465,-10.64422 -14.97698,-15.96633 -0.91579,-2.78747 -1.56526,-5.67703 -2.74738,-8.36241 -0.24749,-0.56223 -0.10278,1.22475 -0.12439,1.83866 -0.24239,6.88422 -0.0364,8.148 -0.78643,15.62055 -1.06026,10.56398 -1.54784,11.57339 -3.69751,22.31298 -5.69264,21.35345 -14.27689,41.81269 -22.78289,62.16737 -20.42915,48.94027 48.78283,77.83146 69.21199,28.89119 v 0 c 10.46291,-25.09011 20.93477,-50.36085 27.2195,-76.88521 1.04693,-5.59649 2.27135,-11.16268 3.14079,-16.78947 1.4138,-9.14967 2.11369,-17.88394 2.50409,-27.09394 0.1284,-3.02918 0.38918,-15.09057 -0.15085,-18.40714 -0.77425,-4.75497 -2.25619,-9.36731 -3.38428,-14.05096 -5.33913,-6.09336 -9.99351,-12.86267 -16.01739,-18.28006 -4.42484,-3.97936 -16.76959,-5.80944 -22.91509,-6.89671 -21.40781,-2.81155 -43.00046,-3.78426 -64.58894,-3.25212 -16.67506,0.50691 -23.10252,0.5375 -40.04321,1.75575 -28.8559,2.07511 -57.62986,5.71202 -86.02744,11.2546 -6.35565,1.4392 -12.7559,2.69391 -19.06694,4.31759 -19.01334,4.8917 -37.71976,11.78074 -54.23522,22.54109 -43.79973,29.90123 -1.51301,91.8434 42.28672,61.94217 z"/>
<path d="m 427.95453,484.44408 c 19.94486,-6.75602 41.06622,-9.13468 61.87487,-11.60598 27.65202,-3.01877 55.47436,-3.20175 83.24423,-2.47658 53.01591,1.34672 54.92045,-73.6291 1.90455,-74.97582 v 0 c -31.39457,-0.77764 -62.84618,-0.50054 -94.0983,2.98827 -26.09445,3.16823 -52.45821,6.50635 -77.40966,15.17922 -50.12743,17.31302 -25.64312,88.20391 24.48431,70.89089 z"/>
<path d="m 257.63415,530.01263 c -0.46106,20.78703 1.61858,41.54681 3.37803,62.23472 4.07067,42.06135 7.62801,84.17172 12.24637,126.17759 4.01313,34.02056 9.92751,67.7697 15.66476,101.52946 1.66837,9.56796 3.19185,19.15974 4.53665,28.77826 7.3657,52.51901 81.63879,42.10234 74.27309,-10.41667 v 0 c -1.45336,-10.33527 -3.07432,-20.64547 -4.86987,-30.92724 -5.49159,-32.314 -11.1748,-64.61413 -15.05522,-97.17269 -4.56493,-41.39068 -8.03602,-82.88956 -12.06643,-124.33455 -1.43434,-16.80919 -2.98985,-33.63982 -3.29883,-50.51347 3.78685,-52.89764 -71.0217,-58.25305 -74.80855,-5.35541 z"/>
<path d="m 343.93046,596.51173 c 15.45662,-5.15991 31.08682,-9.81947 46.95795,-13.53571 5.11992,-1.19883 10.27279,-2.25239 15.40918,-3.37858 31.04914,-6.30474 62.41888,-11.0548 93.98524,-13.82629 6.43054,-0.5646 12.87485,-0.95961 19.31228,-1.43941 31.9639,-2.19955 64.01313,-1.46896 95.95609,0.58168 13.92196,0.94336 27.786,2.50983 41.56887,4.66711 3.59593,0.61457 7.2132,1.08263 10.82519,1.58587 0.11873,0.0165 -0.24076,-0.005 -0.35864,-0.0269 -0.86188,-0.15967 -1.71885,-0.34479 -2.57828,-0.51718 -7.90955,-2.16447 -14.37747,-7.0327 -18.89721,-13.91095 -0.90605,-1.37885 -1.53564,-2.92069 -2.30346,-4.38104 -0.26728,-0.67311 -0.17641,-1.65413 -0.80183,-2.01932 -0.4853,-0.28337 0.13885,1.11533 0.20865,1.67296 0.19622,1.56755 0.43106,3.13074 0.58941,4.70257 0.98913,9.81791 1.13315,19.63671 1.30702,29.4954 -0.0126,37.77659 -4.77672,75.31546 -9.48901,112.72911 -2.57953,20.49247 -6.21379,40.84849 -11.82593,60.74179 -4.52768,16.04925 -10.4003,31.59386 -16.51229,47.0855 -19.38961,49.36135 50.41788,76.7824 69.80749,27.42104 v 0 c 5.43802,-13.89565 7.90319,-19.68102 12.73279,-34.39447 9.7706,-29.76627 16.56131,-60.36198 20.21112,-91.49016 5.15395,-40.99518 10.24014,-82.13919 10.06199,-123.53352 -0.26,-12.66245 -0.53802,-25.25488 -1.93611,-37.85402 -0.39137,-3.52688 -1.37077,-10.47861 -2.23561,-14.11882 -0.57299,-2.41179 -1.35781,-4.76827 -2.03672,-7.15241 -1.17679,-2.53321 -2.11414,-5.19208 -3.53037,-7.59963 -5.7947,-9.85084 -14.92862,-16.48703 -25.72089,-19.77981 -5.27272,-1.21712 -10.58972,-1.98642 -15.94518,-2.75789 -16.04258,-2.50039 -32.17917,-4.32528 -48.38237,-5.41413 -35.40193,-2.23115 -70.91799,-3.00913 -106.33794,-0.5217 -7.08307,0.53677 -14.17373,0.98144 -21.24922,1.61032 -34.45002,3.06197 -68.68743,8.27189 -102.56659,15.20186 -5.86803,1.29901 -11.75507,2.51496 -17.6041,3.89704 -17.40412,4.11246 -34.56304,9.19296 -51.52554,14.84254 -50.49954,16.19559 -27.59551,87.61272 22.90402,71.41713 z"/>
<path d="m 340.69216,696.09641 c 20.00389,-4.19269 39.99248,-8.42539 60.09927,-12.09924 23.54689,-3.84514 47.3081,-6.49506 71.1374,-7.75021 15.70385,-0.82717 21.2091,-0.71956 36.81805,-0.877 22.60555,-0.18484 45.04184,2.59251 67.32331,6.09755 52.39666,8.19087 63.9803,-65.90919 11.58365,-74.10006 v 0 c -26.3869,-4.10267 -52.9616,-7.24769 -79.72087,-6.99307 -17.59902,0.20312 -23.4308,0.0865 -41.18067,1.05143 -26.62669,1.44754 -53.17505,4.442 -79.4791,8.79971 -20.30822,3.7311 -40.51509,7.93544 -60.71426,12.21458 -52.08288,9.9937 -37.94966,83.65001 14.13322,73.65631 z"/>
<path d="m 346.71108,784.04304 c 19.99176,-5.21802 40.48884,-8.23858 60.89025,-11.34392 24.38491,-3.50721 48.94113,-5.93548 73.57099,-6.74168 14.64913,-0.4795 20.4028,-0.25724 34.8862,-0.0892 18.78665,0.45136 37.50817,2.09901 56.21418,3.78574 52.81934,4.75575 59.54499,-69.94207 6.72565,-74.69783 v 0 c -20.67457,-1.8589 -41.36924,-3.63943 -62.13411,-4.08358 -16.60186,-0.16572 -22.58506,-0.40328 -39.43273,0.17827 -27.16451,0.93767 -54.2481,3.6242 -81.14268,7.50639 -24.82526,3.79624 -49.84629,7.43242 -73.97828,14.56609 -50.14785,17.25378 -25.74733,88.17355 24.40053,70.91977 z"/>
<path d="m 344.34942,875.66451 c 14.56676,-4.97158 29.64939,-7.86167 44.7949,-10.38228 36.24805,-4.85826 72.84039,-6.11371 109.36028,-7.01605 25.54307,-0.31078 51.12802,0.0348 76.59071,2.24354 13.02559,1.1299 16.95558,1.77159 29.58356,3.41602 14.73888,2.31556 7.80677,1.12307 20.80744,3.51227 52.17225,9.51612 65.63008,-64.26658 13.45783,-73.7827 v 0 c -15.54696,-2.81801 -7.332,-1.42577 -24.65584,-4.11142 -14.47741,-1.85734 -18.9448,-2.57996 -33.86323,-3.84455 -27.85795,-2.36145 -55.84239,-2.78254 -83.78513,-2.40998 -40.0736,1.0028 -80.23373,2.44951 -119.97827,8.03894 -4.98336,0.85067 -9.98299,1.61095 -14.95007,2.552 -13.50931,2.55944 -26.80849,6.06861 -39.90092,10.25096 -50.58164,15.9373 -28.0429,87.47055 22.53874,71.53325 z"/>
<path d="m 398.44447,869.07082 c -2.81299,1.23435 -5.71669,2.27977 -8.43898,3.70303 -5.77229,3.01788 -13.3161,8.1259 -18.66576,11.84188 -12.19833,8.47319 -23.355,17.63441 -34.77492,27.10832 -15.01545,12.04863 -7.61095,6.23923 -22.1969,17.44935 -42.02969,32.34201 3.70881,91.781 45.7385,59.43896 v 0 c 16.13096,-12.42657 8.00022,-6.03351 24.37987,-19.19487 4.99547,-4.1551 14.41152,-12.10348 19.87663,-16.24392 2.94944,-2.23453 5.999,-4.33419 9.02995,-6.45684 2.95644,-2.07047 6.27764,-3.70403 8.85749,-6.22826 0.068,-0.0665 -0.091,-0.16703 -0.13642,-0.25054 50.32274,-16.73684 26.65328,-87.90394 -23.66946,-71.16711 z"/>
<path d="m 578.61504,939.83552 c 0.33078,0.16973 0.69186,0.29024 0.99234,0.50919 0.0719,0.0524 -0.003,0.19907 0.0627,0.25955 0.5143,0.47635 1.08786,0.88454 1.63953,1.31706 1.36925,1.07353 2.73416,2.15299 4.12305,3.20098 5.88872,4.44335 8.7254,6.43937 14.79207,10.81783 8.57692,6.61156 18.68198,12.32669 24.87595,21.50203 0.27719,0.47184 0.55438,0.94368 0.83156,1.41552 29.41989,44.12452 91.82134,2.51848 62.40145,-41.606 v 0 c -1.30708,-1.90428 -2.61417,-3.80856 -3.92125,-5.71284 -1.74763,-2.18521 -3.40972,-4.44167 -5.2429,-6.55563 -10.11776,-11.66743 -22.54129,-20.98328 -35.07237,-29.87242 -5.20672,-3.75248 -7.93918,-5.67841 -12.95894,-9.45278 -7.58364,-5.70214 -15.09622,-11.67785 -24.02139,-15.19575 -49.0543,-20.1538 -77.55608,49.21945 -28.50178,69.37326 z"/>
</svg>
