<?xml version="1.0" ?>
<svg xmlns="http://www.w3.org/2000/svg" width="1000" height="1000">
<path d="m 83.006091,195.95286 c -0.72764,28.28706 -0.79854,56.58979 -0.95709,84.88484 -0.29588,73.99481 -0.30183,147.99041 -0.32862,221.9857 -0.0165,64.97412 -0.0128,129.94825 -0.009,194.92238 0.003,53.03301 75.002879,53.02894 74.999999,-0.004 v 0 c -0.004,-64.96372 -0.007,-129.92744 0.009,-194.89116 0.0267,-73.86438 0.0327,-147.72909 0.32745,-221.59299 0.15081,-26.96439 0.27305,-53.93095 0.82827,-80.89074 3.12114,-52.94109 -71.748859,-57.35504 -74.869999,-4.41396 z"/>
<path d="m 219.58447,177.5808 c 17.51076,-8.1093 36.34825,-12.78468 55.06799,-17.13979 18.92983,-4.30918 38.12548,-7.14937 57.48352,-8.48317 3.56725,-0.11124 3.95374,-0.1641 7.22408,-0.13441 0.75037,0.007 2.99637,0.17597 2.24793,0.12166 -0.83962,-0.0609 -1.72032,0.0358 -2.51341,-0.24649 -4.65181,-1.65555 -9.15924,-3.69173 -13.73886,-5.53759 -4.41159,-5.57875 -8.82318,-11.15751 -13.23476,-16.73626 -0.55443,-1.96231 -0.43731,-4.25749 -1.66327,-5.88693 -0.7048,-0.93675 -0.0883,2.34293 -0.12153,3.51475 -0.0836,2.95141 -0.14496,5.90343 -0.22889,8.85484 -0.28267,9.94094 -0.59918,19.88089 -0.89763,29.82137 -0.99694,33.00682 -1.7423,66.02825 -1.70427,99.05239 0.0318,27.61175 0.37201,37.66142 0.93638,65.61 1.24686,47.0457 3.11849,94.10695 1.78764,141.17524 -0.84124,29.75225 -1.84458,39.32132 -3.96218,68.96562 -3.53551,41.25335 -7.8415,82.43487 -11.91329,123.63736 -5.21546,52.77593 69.42098,60.1517 74.63644,7.37577 v 0 c 4.13957,-41.88938 8.52282,-83.75708 12.08847,-125.70078 2.24386,-31.77825 3.26274,-41.38218 4.14428,-73.30782 1.3226,-47.89871 -0.49876,-95.79036 -1.79677,-143.66573 -0.54655,-26.84488 -0.8885,-37.12402 -0.92244,-63.61916 -0.0416,-32.43063 0.69186,-64.85862 1.67196,-97.27219 0.4063,-13.53295 1.03542,-27.09091 1.15972,-40.6314 0.0535,-5.83056 0.20695,-17.27318 -2.24568,-22.18048 -3.70516,-7.413382 -9.62259,-13.496348 -14.43388,-20.244519 -5.23857,-2.311791 -10.33569,-4.975149 -15.7157,-6.935373 -1.76418,-0.642787 -3.70632,-0.616155 -5.57274,-0.821145 -6.79964,-0.74681 -13.69358,-0.195202 -20.5013,-0.02336 -23.34206,1.67226 -46.50814,5.034498 -69.3306,10.277156 -24.70504,5.827579 -49.37885,12.281479 -72.28866,23.482571 -47.14838,24.28025 -12.81092,90.95812 34.33745,66.67787 z"/>
<path d="m 146.19136,373.95158 c 17.8263,-1.6983 35.45586,-4.96456 53.22857,-7.11677 5.55398,-0.67256 11.12259,-1.21821 16.68389,-1.82731 22.68747,-2.07084 45.51046,-3.37076 68.29388,-2.34372 12.02234,0.54195 15.83309,1.13918 27.43956,2.41845 52.72797,5.67991 60.76057,-68.8887 8.0326,-74.56861 v 0 c -14.52485,-1.53536 -18.86768,-2.21543 -33.90089,-2.83338 -26.05061,-1.07083 -52.14097,0.35093 -78.07656,2.77813 -6.14334,0.68013 -12.29439,1.29396 -18.43003,2.0404 -15.92471,1.93734 -31.73841,4.67008 -47.66532,6.58166 -52.941899,3.10723 -48.547609,77.97839 4.3943,74.87115 z"/>
<path d="m 166.80618,552.49893 c 17.99524,-4.66935 36.72403,-5.70959 55.20923,-6.71401 33.17233,-0.92707 66.36272,-0.46838 99.53469,0.20719 53.02205,1.07823 54.5469,-73.90627 1.52486,-74.9845 v 0 c -35.08747,-0.7125 -70.19721,-1.1973 -105.28269,-0.1037 -24.73547,1.43743 -49.7741,3.11799 -73.6803,10.11094 -50.546869,16.04723 -27.85267,87.5313 22.69421,71.48408 z"/>
<path d="m 149.62126,715.00454 c 16.93214,-5.71407 34.05828,-10.90746 51.51568,-14.77728 5.76793,-1.27859 11.58005,-2.34901 17.37007,-3.52351 32.28541,-6.21806 65.13432,-8.22045 97.89081,-10.1228 52.94322,-3.0846 48.58094,-77.95763 -4.36228,-74.87303 v 0 c -36.33704,2.12352 -72.75956,4.5049 -108.55271,11.51608 -6.72476,1.38436 -13.47556,2.64779 -20.17429,4.15308 -19.94046,4.48088 -39.52296,10.40344 -58.86253,16.97898 -49.956009,17.80159 -24.780769,88.45006 25.17525,70.64848 z"/>
<path d="m 164.86569,724.17823 c -6.47636,13.83747 -12.72497,27.7696 -20.02386,41.20991 -3.30367,6.08345 -6.84411,12.03531 -10.26616,18.05296 -17.62048,29.27729 -36.930729,57.52738 -57.484779,84.81927 -11.38235,15.11361 -16.03794,20.70862 -27.497532,34.98713 -33.180729,41.37075 25.326352,88.29539 58.507081,46.92463 v 0 c 12.24153,-15.27276 17.26355,-21.3161 29.41987,-37.49009 22.30548,-29.67743 43.25609,-60.39844 62.30917,-92.26879 3.9174,-6.93608 7.96899,-13.79807 11.75219,-20.80824 6.30309,-11.67943 10.66291,-20.83153 16.08754,-32.63822 3.77764,-8.22199 6.51319,-14.06473 9.30983,-22.58588 0.68071,-2.0741 1.06432,-4.23418 1.59648,-6.35127 9.79443,-52.12072 -63.9154,-65.97213 -73.70983,-13.85141 z"/>
<path d="m 267.60927,844.50939 c 9.7018,7.53395 17.63778,17.10178 25.69697,26.29949 7.25628,8.37976 14.51919,16.75338 21.78587,25.12413 34.76632,40.04751 91.40206,-9.11948 56.63574,-49.16699 v 0 c -7.35566,-8.47281 -14.70591,-16.94987 -22.05298,-25.43013 -12.76368,-14.52201 -25.65434,-29.33077 -41.86385,-40.14173 -44.77063,-28.42694 -84.97238,34.8883 -40.20175,63.31523 z"/>
<path d="m 476.09847,210.74164 c 5.58189,2.78392 10.43146,6.71416 15.31846,10.53661 9.1074,7.1235 8.07994,6.37055 17.24021,13.87631 4.72546,4.30644 9.19539,7.83643 12.90401,13.05994 1.32687,1.86886 2.21,4.01606 3.315,6.0241 28.81952,44.51892 91.77879,3.76196 62.95927,-40.75697 v 0 c -3.57065,-5.21466 -6.80103,-10.6794 -10.71193,-15.64397 -6.64355,-8.43346 -13.09683,-13.66086 -20.96263,-20.72098 -14.10356,-11.5325 -28.10806,-23.55539 -44.21023,-32.25085 -46.58123,-25.3513 -82.43339,40.52451 -35.85216,65.87581 z"/>
<path d="m 431.79582,377.5341 c 0.87012,-0.46357 1.71803,-0.97148 2.61035,-1.39071 6.93696,-3.25919 14.71916,-5.47485 22.02357,-7.55751 16.98144,-4.84182 21.16873,-5.5456 39.59508,-9.83415 53.70046,-11.58028 108.09232,-20.00884 162.83441,-24.70123 11.78151,-1.00989 23.5897,-1.67984 35.38455,-2.51976 54.05135,-3.3056 108.26148,-1.86928 162.20803,2.38454 4.25044,0.43379 8.50089,0.86758 12.75133,1.30137 52.76302,5.34452 60.32131,-69.27366 7.5583,-74.61818 v 0 c -4.81663,-0.48464 -9.63326,-0.96929 -14.44989,-1.45393 -57.68254,-4.49502 -115.63848,-6.02974 -173.42747,-2.42205 -12.5077,0.90126 -25.02972,1.62192 -37.52309,2.70377 -57.96303,5.01925 -115.5573,13.97048 -172.40912,26.29455 -27.99789,6.57135 -56.8702,12.50075 -82.65176,25.74473 -46.71753,25.09926 -11.22181,91.16782 35.49571,66.06856 z"/>
<path d="m 537.35426,387.60046 c 0.8575,32.37596 0.35895,64.77699 0.2177,97.16033 -0.263,59.86155 -0.36415,119.72363 -0.43044,179.58566 -0.007,8.7783 -0.0132,17.5566 -0.0198,26.3349 -0.0399,53.033 74.96012,53.08936 74.99998,0.0564 v 0 c 0.007,-8.7694 0.0132,-17.5388 0.0198,-26.30821 0.0662,-59.78067 0.16715,-119.56139 0.42977,-179.34157 0.14951,-34.27575 0.76151,-68.58086 -0.40843,-102.84287 -3.78684,-52.89764 -78.59539,-47.54224 -74.80855,5.3554 z"/>
<path d="m 586.00287,561.72874 c 20.18622,-3.5153 40.68205,-5.017 61.08823,-6.65451 23.50402,-1.64785 47.09743,-3.07187 70.62858,-1.27742 52.89172,3.8686 58.36274,-70.93159 5.47102,-74.80019 v 0 c -7.88726,-0.55926 -10.8337,-0.85669 -19.20025,-1.01493 -20.99617,-0.39709 -41.98246,0.92746 -62.91824,2.33445 -23.01227,1.85847 -46.11237,3.61916 -68.86108,7.69159 -52.12863,9.75223 -38.33689,83.47325 13.79174,73.72101 z"/>
<path d="m 426.89733,543.66279 c 3.80331,21.14592 4.46195,42.78311 5.42185,64.20346 0.88796,29.94144 0.96435,59.94962 -0.88119,89.85995 -0.37261,6.03892 -0.95543,12.06304 -1.43314,18.09455 -4.13171,52.87182 70.64033,58.71494 74.77204,5.84312 v 0 c 0.52715,-6.82737 1.16906,-13.64685 1.58146,-20.48212 1.94238,-32.19434 1.87692,-64.4899 0.88374,-96.7151 -1.191,-25.95353 -2.09497,-52.1707 -7.27369,-77.70411 -11.95027,-51.66905 -85.02135,-34.76881 -73.07107,16.90025 z"/>
<path d="m 430.6248,813.81409 c 25.41894,-13.57678 51.08297,-26.76558 77.28634,-38.77534 8.78918,-4.02834 17.66989,-7.85391 26.50483,-11.78087 51.66532,-22.52701 104.31446,-42.67674 157.27653,-61.91828 49.84443,-18.11168 24.23064,-88.60234 -25.61379,-70.49066 v 0 c -54.60729,19.84534 -108.88841,40.63664 -162.15133,63.88562 -9.38703,4.18068 -18.82272,8.25377 -28.16109,12.54204 -27.75,12.7431 -54.94367,26.70677 -81.84866,41.13425 -46.24708,25.95588 -9.53991,91.35912 36.70717,65.40324 z"/>
<path d="m 661.53593,135.18503 c -0.0382,23.75923 -0.0725,47.51949 0.77244,71.26826 0.35439,9.96084 0.88535,19.91461 1.32803,29.87191 4.1177,68.56969 10.36834,137.0144 18.63279,205.20856 1.85327,15.29226 3.90795,30.55944 5.86193,45.83915 8.60299,60.90054 20.23879,121.42295 36.04431,180.88133 8.87324,33.37997 13.60702,47.27875 23.7965,79.78426 15.96172,48.45724 34.99668,96.07764 59.17389,141.06661 3.18161,5.92034 6.61955,11.69932 9.92932,17.54898 10.30375,16.53275 20.90924,33.46138 35.35853,46.77958 1.68336,1.55159 3.49674,2.95592 5.24512,4.43389 19.79744,10.82312 23.00103,16.11556 53.96,-3.55724 7.28666,-4.63029 8.26628,-15.24996 11.06821,-23.416 1.58194,-4.61047 1.33111,-9.65757 1.93936,-14.49379 8.67876,-69.00515 -6.53321,48.98894 5.09385,-40.70477 1.51369,-9.83936 2.80852,-19.7149 4.54107,-29.5181 4.28534,-24.24759 10.02285,-49.67593 15.31709,-73.65407 7.73016,-35.01058 9.92926,-44.42302 17.83426,-79.16797 11.7646,-51.71163 -61.36665,-68.34936 -73.1313,-16.63773 v 0 c -7.67946,33.75643 -10.48235,45.82122 -17.97891,79.81713 -5.9253,26.87042 -11.42015,51.21906 -16.17303,78.26444 -1.82463,10.38273 -3.19179,20.84069 -4.78768,31.26103 -1.04947,8.10657 -2.13343,16.20874 -3.14842,24.3197 -0.71125,5.68377 -1.3972,11.37094 -2.03023,17.06396 -0.25759,2.31653 -2.53457,8.32261 -0.64143,6.96294 4.16603,-2.99208 3.92535,-10.74328 8.65808,-12.72057 32.47461,-13.56758 29.88423,-12.70467 46.68359,-2.10047 -1.3837,-0.31622 -4.95746,-4.77725 -5.14205,-4.99562 -6.56802,-7.77019 -12.18774,-16.28055 -17.44879,-24.97282 -2.8195,-4.94335 -5.75437,-9.82267 -8.45852,-14.83006 -22.2354,-41.17428 -39.64086,-84.82769 -54.30327,-129.20671 -9.59431,-30.53369 -14.22507,-44.14485 -22.57371,-75.43321 -15.10997,-56.62795 -26.20385,-114.28335 -34.43235,-172.2936 -1.91405,-14.95027 -3.92672,-29.88823 -5.74213,-44.85079 -8.06518,-66.47302 -14.16907,-133.18935 -18.22089,-200.0271 -0.4256,-9.46769 -0.93526,-18.93198 -1.27679,-28.40307 -0.83379,-23.12203 -0.78257,-46.25563 -0.74887,-69.38804 0,-53.033006 -75,-53.033006 -75,0 z"/>
<path d="m 792.15707,503.95829 c -0.41631,1.41237 -0.76085,2.84791 -1.24891,4.23713 -1.41521,4.02823 -8.76213,22.48668 -9.02609,23.1315 -6.60162,16.12649 -12.91235,30.85355 -20.48317,46.66772 -4.6694,9.7536 -9.67209,19.34411 -14.50814,29.01617 -5.95677,10.30381 -11.60373,20.79305 -17.87032,30.91142 -13.54954,21.87781 -29.57553,44.47312 -44.93316,65.05883 -17.44276,23.38067 -34.35204,44.74033 -53.51629,66.7611 -9.22594,10.60111 -18.91436,20.79071 -28.37154,31.18606 -35.65535,39.25807 19.86394,89.68235 55.51929,50.42429 v 0 c 10.16697,-11.21167 20.57989,-22.20513 30.5009,-33.63501 20.08681,-23.14179 38.44922,-46.33253 56.72719,-70.90591 17.06841,-22.94721 34.08796,-47.08723 49.07357,-71.47271 7.00902,-11.4055 13.31896,-23.22611 19.97844,-34.83917 5.23059,-10.50038 10.63947,-20.91382 15.69176,-31.50114 8.00767,-16.78047 14.96879,-33.01584 21.96599,-50.16681 3.34908,-8.20899 8.61396,-21.60896 11.47726,-30.4262 0.89478,-2.7554 1.52216,-5.59057 2.28324,-8.38586 11.35714,-51.80266 -61.90289,-67.86407 -73.26002,-16.06141 z"/>
<path d="m 793.91038,148.9569 c 14.57082,5.40951 28.37961,12.85986 41.18738,21.6445 4.36673,2.99507 8.57663,6.21261 12.86495,9.31891 5.09919,3.84278 10.19837,7.68555 15.29756,11.52833 42.36873,31.89657 87.47729,-28.02185 45.10857,-59.91842 v 0 c -5.55104,-4.17507 -11.10209,-8.35014 -16.65313,-12.52521 -5.497,-3.92209 -10.88182,-8.00635 -16.49099,-11.76627 -17.95288,-12.034122 -37.27006,-22.188356 -57.64482,-29.448921 -50.32272,-16.736879 -73.99225,54.430211 -23.66952,71.167081 z"/>
</svg>
