<?xml version="1.0" ?>
<svg xmlns="http://www.w3.org/2000/svg" width="1000" height="1000">
<path d="m 86.276307,245.4283 c -0.06322,29.06133 0.04122,58.12151 0.264538,87.18196 0.480194,55.99435 2.750613,111.95221 3.67449,167.93822 0.215168,13.03894 0.315301,26.07953 0.472951,39.11929 0.698502,69.5531 -0.67115,139.09926 -1.109447,208.64875 -0.333954,53.03196 74.664561,53.50424 74.998511,0.47228 v 0 c 0.44054,-70.01006 1.8205,-140.01685 1.10542,-210.03057 -0.16134,-13.26251 -0.26471,-26.52585 -0.48403,-39.78753 -0.92038,-55.65251 -3.1696,-111.27707 -3.66012,-166.93764 -0.22251,-28.86805 -0.32504,-57.73583 -0.26231,-86.60476 0,-53.03301 -75.000003,-53.03301 -75.000003,0 z"/>
<path d="m 220.9632,225.60956 c 13.46377,-5.5487 27.53408,-9.34241 41.67879,-12.68159 17.23289,-3.49442 34.70335,-6.21233 52.31516,-6.39798 1.82783,0.32154 4.16787,0.0906 5.93831,0.90451 0.22728,0.10448 -0.49603,-0.0652 -0.74404,-0.0978 -10.8338,-3.55602 -17.99941,-11.96527 -21.528,-22.58192 -0.13183,19.78134 -0.74311,39.57111 -1.28072,59.34947 -1.42821,51.1237 -1.75911,102.27217 -2.13554,153.41235 -0.19426,61.45054 -0.69937,122.89891 -1.14506,184.34794 -0.42865,37.34073 -0.76991,74.69868 -2.53925,112.00634 -0.37796,7.9697 -0.89043,15.93244 -1.33565,23.89866 -2.94821,52.951 71.93581,57.12039 74.88402,4.1694 v 0 c 0.46461,-8.37469 0.99911,-16.74578 1.39383,-25.12405 1.79532,-38.10761 2.16435,-76.26525 2.59508,-114.40641 0.44563,-61.44641 0.95097,-122.89216 1.145,-184.34008 0.37247,-50.64481 0.6967,-101.29795 2.10989,-151.92647 0.22588,-8.31174 0.6674,-24.22633 0.8716,-32.92291 0.24805,-10.56451 0.71741,-21.23992 0.20864,-31.80735 -0.13134,-2.72796 -0.44018,-5.44449 -0.66028,-8.16673 -1.23884,-6.31247 -1.63702,-10.61788 -4.87805,-16.51203 -5.70319,-10.37184 -13.59082,-16.99907 -24.633,-20.75908 -9.5712,-2.98553 -19.51962,-4.43918 -29.55681,-4.43274 -23.05126,0.49022 -45.94993,3.54621 -68.47873,8.44601 -17.32187,4.1879 -34.57323,8.82977 -51.09616,15.60139 -49.51238,19.00064 -22.64141,89.02172 26.87097,70.02108 z"/>
<path d="m 161.3335,409.95588 c 18.94174,-1.9546 37.9743,-2.67962 56.99824,-3.26027 4.85274,-0.0665 9.70548,-0.13305 14.55822,-0.19957 53.02777,-0.74592 51.97288,-75.7385 -1.05488,-74.99258 v 0 c -5.26966,0.0759 -10.53932,0.15173 -15.80898,0.22759 -21.01423,0.65091 -42.03656,1.48727 -62.95671,3.68152 -52.71008,5.84361 -44.44597,80.38692 8.26411,74.54331 z"/>
<path d="m 152.62753,592.14207 c 15.55178,-0.99186 31.10996,-1.89743 46.68075,-2.54282 12.26742,-0.58291 24.53311,-0.21942 36.79632,0.18356 53.00676,1.66823 55.36598,-73.29466 2.35922,-74.96288 v 0 c -14.09274,-0.42689 -28.18847,-0.82872 -42.28421,-0.15539 -17.14041,0.7204 -34.27533,1.66255 -51.38644,2.88783 -52.742884,5.53974 -44.908521,80.12943 7.83436,74.5897 z"/>
<path d="m 140.9011,750.35159 c 2.37696,-0.22634 4.76036,-0.39299 7.13088,-0.67902 6.77781,-0.8178 13.51634,-1.93375 20.27823,-2.87415 16.5931,-2.30768 33.2014,-4.50834 49.80897,-6.70857 19.24862,-2.2791 38.44443,-5.23219 57.78341,-6.70411 5.78935,-0.44064 11.59677,-0.59817 17.39516,-0.89726 52.9563,-2.85126 48.92401,-77.74279 -4.0323,-74.89152 v 0 c -6.9392,0.38673 -13.88837,0.62373 -20.81761,1.16019 -20.13877,1.55913 -40.13432,4.59131 -60.17969,6.98246 -23.46786,3.10962 -46.93975,6.20363 -70.35793,9.67164 -52.990825,2.11487 -49.999942,77.05521 2.99088,74.94034 z"/>
<path d="m 164.27186,777.16966 c -0.0668,0.006 -0.16623,-0.0401 -0.20049,0.0176 -2.09385,3.52493 -3.7534,7.29125 -5.71721,10.89024 -1.649,3.02204 -3.28815,6.05338 -5.09503,8.98376 -5.12653,8.31419 -9.46279,13.94377 -15.29531,21.9984 -14.58766,18.79607 -30.75531,36.28918 -46.8593,53.77726 -35.91547,39.02024 19.26748,89.81238 55.18295,50.79215 v 0 c 18.12567,-19.7011 36.3029,-39.43112 52.54228,-60.74774 3.54383,-4.94518 7.20411,-9.80895 10.63149,-14.83554 7.44652,-10.92106 13.99644,-22.23423 19.93122,-34.02946 1.38827,-2.75916 2.81141,-5.50455 4.05419,-8.33223 0.99369,-2.26093 1.76595,-4.61284 2.64893,-6.91926 15.27013,-50.78703 -56.55359,-72.38225 -71.82372,-21.59521 z"/>
<path d="m 275.3766,860.44426 c 11.62824,6.86317 22.94973,14.25847 34.44957,21.34547 8.2224,4.87328 16.14056,10.19923 23.70036,16.0404 42.13613,32.2032 87.67833,-27.3863 45.5422,-59.5895 v 0 c -9.60622,-7.29043 -19.50666,-14.16033 -29.89694,-20.30169 -12.572,-7.74627 -24.92107,-15.87189 -37.71333,-23.24495 -46.49246,-25.51373 -82.57433,40.23654 -36.08186,65.75027 z"/>
<path d="m 541.66296,79.02147 c 0,28.51127 0,57.02254 0,85.53381 0,61.79432 0,123.58864 0,185.38296 0,24.91973 0,49.83946 0,74.75919 0,53.03301 75,53.03301 75,0 v 0 c 0,-24.91973 0,-49.83946 0,-74.75919 0,-61.79432 0,-123.58864 0,-185.38296 0,-28.51127 0,-57.02254 0,-85.53381 0,-53.033009 -75,-53.033009 -75,0 z"/>
<path d="m 671.95859,96.063812 c 3.29042,19.076838 5.36276,38.323218 7.2653,57.578218 4.79899,46.07795 5.46929,92.4003 5.28506,138.68031 -0.64886,42.15109 -3.03158,84.25133 -5.45012,126.33037 -3.04188,52.9457 71.83465,57.24756 74.87653,4.30187 v 0 c 2.49341,-43.4167 4.94133,-86.85586 5.57305,-130.3477 0.0835,-23.09134 0.26364,-31.69443 -0.24522,-54.73873 -0.67564,-30.59678 -2.48912,-61.16245 -5.40537,-91.62729 -2.04036,-20.50656 -4.24468,-41.00648 -7.73272,-61.327293 -7.88441,-52.443646 -82.05093,-41.293401 -74.16651,11.150245 z"/>
<path d="m 480.08033,221.34119 c 26.62545,-5.07911 53.49821,-8.61145 80.37057,-12.07892 36.72447,-4.23727 73.594,-7.2797 110.51524,-9.15138 24.36168,-1.23499 32.67714,-1.29796 56.90581,-1.91762 23.37273,-0.47878 46.76241,-0.31073 70.10798,0.97916 5.55186,0.30675 11.09301,0.7837 16.63951,1.17555 52.90436,3.69179 58.12535,-71.12626 5.221,-74.81806 v 0 c -6.2374,-0.43046 -12.46901,-0.95493 -18.71218,-1.29138 -25.03797,-1.34932 -50.12116,-1.53918 -75.18673,-1.02042 -25.42893,0.65892 -33.86624,0.72069 -59.45903,2.02691 -38.63363,1.9718 -77.21263,5.17144 -115.6377,9.63496 -27.36816,3.53737 -54.75203,7.08729 -81.86559,12.28732 -52.44886,7.84967 -41.34774,82.02355 11.10112,74.17388 z"/>
<path d="m 506.48742,336.07205 c 14.64691,-2.91713 29.34305,-5.55506 44.18502,-7.28238 5.4516,-0.63446 10.91945,-1.12063 16.37917,-1.68094 43.28631,-3.75214 86.7199,-5.30443 130.14403,-6.29885 28.58501,-0.71764 57.17812,-0.45024 85.765,-0.0633 53.02817,0.71665 54.04167,-74.2765 1.0135,-74.99315 v 0 c -29.49896,-0.39807 -59.0043,-0.66268 -88.50124,0.0762 -45.43081,1.04713 -90.87266,2.68696 -136.15423,6.67878 -6.20292,0.64862 -12.41524,1.2129 -18.60876,1.94585 -15.9062,1.88236 -31.67774,4.64303 -47.37822,7.78059 -52.21076,9.30251 -39.05502,83.13967 13.15573,73.83716 z"/>
<path d="m 412.00568,488.25449 c 21.30774,-1.27636 42.36157,-4.995 63.46132,-8.02917 7.51041,-1.08001 15.02965,-2.09767 22.54448,-3.1465 37.11435,-5.0014 74.39588,-8.78739 111.78247,-11.0154 26.9627,-1.60681 37.82488,-1.75768 64.89859,-2.61082 49.26088,-1.00575 98.62323,-0.48992 147.7745,3.21713 7.46435,0.56297 14.91273,1.32066 22.36909,1.98099 25.03957,2.94432 12.86561,1.22806 36.53313,5.06842 52.36478,8.3923 64.23328,-65.66267 11.86851,-74.05497 v 0 c -27.54119,-4.36744 -13.60191,-2.4485 -41.82232,-5.72431 -8.0612,-0.70621 -16.114,-1.51589 -24.1836,-2.11862 -51.52867,-3.84875 -103.27336,-4.41272 -154.91489,-3.33101 -28.40888,0.90516 -39.48563,1.05694 -67.82858,2.76109 -39.08074,2.34977 -78.05215,6.31517 -116.84897,11.54816 -7.737,1.08087 -15.47838,2.13076 -23.21099,3.24262 -19.14371,2.75264 -38.2417,6.19733 -57.57138,7.38933 -52.9079,3.64063 -47.75926,78.4637 5.14864,74.82306 z"/>
<path d="m 458.92459,535.75695 c -0.0656,27.04113 0.48783,54.0792 1.03654,81.11326 0.80184,39.20117 1.74904,78.41131 4.16826,117.55247 1.5464,25.01962 2.57169,35.35438 4.6846,60.08451 2.64376,31.31703 6.64938,62.47404 11.34756,93.53952 7.94673,52.43424 82.09994,41.19586 74.15321,-11.23838 v 0 c -4.47426,-29.45491 -8.2616,-58.9999 -10.77387,-88.6957 -2.01999,-23.56741 -3.0376,-33.85546 -4.5166,-57.65905 -2.38133,-38.3262 -3.28968,-76.72149 -4.07863,-115.10687 -0.5395,-26.52627 -1.08551,-53.05653 -1.02107,-79.58976 0,-53.03301 -75,-53.03301 -75,0 z"/>
<path d="m 592.77318,590.23445 c 17.2387,-5.02922 34.87622,-8.19282 52.59046,-10.97063 27.7254,-3.80723 55.73449,-5.11774 83.69878,-5.13193 12.94697,0.0348 25.84422,1.17326 38.59601,3.36029 0.76654,0.13966 1.53307,0.27931 2.2996,0.41896 0.14916,0.0445 0.60061,0.16126 0.44748,0.13337 -10.67185,-1.94333 -15.71453,-9.03422 -22.16605,-17.24145 -0.95121,-1.21007 -1.3081,-2.78661 -1.96215,-4.17992 1.88707,30.141 2.30096,60.36422 2.8945,90.55349 0.44118,31.47331 0.25263,62.98797 -2.13295,94.39015 -1.40476,18.49138 -2.13482,22.55956 -4.40425,40.5735 -2.77662,19.96587 -6.91353,39.73926 -12.85476,59.00868 -2.65528,8.61198 -3.6206,10.87238 -6.64536,18.98486 -2.3194,4.15832 -3.5017,10.43739 -6.90673,14.03637 -0.1037,0.10961 -0.27078,-0.28639 -0.18732,-0.41209 0.79427,-1.19619 1.62688,-2.40028 2.69322,-3.36187 1.45322,-1.31045 3.19554,-2.25944 4.79332,-3.38917 1.76037,-0.66879 3.66369,-1.04195 5.28112,-2.00637 0.28868,-0.17212 -0.007,-0.80461 -0.30379,-0.96143 -1.98585,-1.04756 -4.19743,-1.60019 -6.25511,-2.49849 -10.13725,-4.42555 -14.30483,-6.44355 -24.19713,-12.58034 -5.48976,-3.40563 -10.77476,-7.13075 -16.16213,-10.69612 -44.37009,-29.04816 -85.45039,33.70062 -41.0803,62.74877 v 0 c 6.92064,4.49243 13.68647,9.23286 20.76192,13.47728 11.85449,7.11127 23.81032,13.29474 36.7559,18.13311 9.94966,3.71864 22.27838,7.41466 33.08986,7.33182 5.94507,-0.0455 11.77891,-1.62505 17.66837,-2.43757 4.74291,-2.26978 9.80951,-3.96019 14.22873,-6.80933 15.74147,-10.14878 23.40445,-27.98227 30.16687,-44.56828 3.83101,-10.43143 5.0604,-13.35092 8.39898,-24.33856 6.98645,-22.99325 11.90083,-46.56346 15.17583,-70.36387 2.50794,-20.22624 3.30536,-24.69897 4.8489,-45.39185 2.49036,-33.38601 2.73385,-66.88696 2.25226,-100.3465 -0.57975,-29.36782 -0.27819,-16.87499 -1.03866,-44.99066 -0.43598,-16.11925 -0.50474,-32.37246 -2.03738,-48.44148 -0.35704,-3.74338 -0.95515,-7.45984 -1.43272,-11.18976 -1.25224,-4.21657 -1.56092,-8.83839 -3.7567,-12.64969 -3.44263,-5.97548 -7.74225,-11.58555 -12.86544,-16.20193 -6.20898,-5.59476 -14.95727,-7.20186 -22.82699,-8.6777 -16.93857,-2.85009 -34.0635,-4.38922 -51.25253,-4.41613 -31.83997,0.0774 -63.72725,1.5712 -95.28009,6.04957 -20.18006,3.20513 -40.28362,6.8357 -59.94089,12.51188 -51.29425,13.46849 -32.24692,86.00951 19.04732,72.54102 z"/>
<path d="m 593.02879,463.49788 c 1.62299,22.71058 0.78291,45.51797 0.29498,68.25485 -0.49013,30.49066 -0.66389,60.98702 -1.65751,91.46769 -0.64414,19.75962 -1.06756,27.00331 -2.00988,46.5588 -1.50686,28.48443 -0.7338,14.35686 -2.31677,42.38284 -2.99004,52.94865 71.89066,57.17722 74.8807,4.22857 v 0 c 1.60417,-28.41284 0.82011,-14.07705 2.34943,-43.00752 0.97618,-20.3241 1.40272,-27.59853 2.06964,-48.15487 0.99326,-30.61546 1.18497,-61.24622 1.66724,-91.87179 0.5651,-26.50774 1.5612,-53.13737 -0.91058,-79.58032 -6.87431,-52.58558 -81.24156,-42.86384 -74.36725,9.72175 z"/>
<path d="m 543.13269,686.80448 c 22.96814,0.30581 45.90747,-1.33381 68.82378,-2.65016 20.06941,-1.28228 40.182,-1.33729 60.28244,-1.33563 53.03301,-0.003 53.02817,-75.00342 -0.005,-75 v 0 c -21.53345,0.004 -43.0788,0.0946 -64.579,1.45908 -20.49197,1.1773 -40.99509,2.63193 -61.5315,2.58637 -52.99083,-2.11487 -55.9817,72.82547 -2.99088,74.94034 z"/>
<path d="m 426.83941,808.95803 c 19.25048,-4.50895 38.62275,-8.50929 58.13929,-11.69419 7.88455,-1.28668 15.79662,-2.39859 23.69494,-3.59788 56.3396,-7.99322 113.21859,-11.11525 170.06415,-12.44102 12.88106,-0.30042 25.76583,-0.41172 38.64874,-0.61758 46.9222,0.17703 94.13704,-0.63717 140.82359,5.02643 9.35813,1.13524 18.63111,2.88705 27.94667,4.33058 52.42803,7.9876 63.7242,-66.15683 11.29618,-74.14443 v 0 c -10.85325,-1.62927 -21.66121,-3.59569 -32.55974,-4.8878 -49.31669,-5.84689 -99.15336,-5.2136 -148.71299,-5.31508 -13.25357,0.21458 -26.5091,0.33042 -39.76071,0.64372 -59.85035,1.41498 -119.72976,4.79499 -179.03957,13.26036 -8.50055,1.29857 -17.01607,2.50267 -25.50165,3.8957 -20.8709,3.42625 -41.59037,7.70667 -62.18076,12.52642 -51.62924,12.12112 -34.48738,85.13589 17.14186,73.01477 z"/>
</svg>
