<?xml version="1.0" ?>
<svg xmlns="http://www.w3.org/2000/svg" viewBox="0 0 1000 1000">
<path d="m 127.97123,189.42026 c -0.0881,34.79975 -0.21941,69.59857 -0.20692,104.39873 0.0297,49.55807 0.30453,99.11812 -0.54901,148.67176 -0.63249,36.7209 -1.10366,47.23873 -2.27724,84.03582 -1.77392,51.984 -4.01704,103.97519 -3.7511,156.00233 0.13571,26.55074 0.60495,34.4932 1.52551,60.44296 1.89327,52.9992 76.84546,50.32171 74.95219,-2.6775 v 0 c -0.88213,-24.51415 -1.34178,-32.34495 -1.47846,-57.42787 -0.27978,-51.34362 1.97859,-102.65111 3.71385,-153.95223 1.19281,-37.49622 1.66806,-48.09221 2.30981,-85.52014 0.85499,-49.86381 0.58734,-99.73394 0.55444,-149.60218 -0.0126,-34.79113 0.11938,-69.58094 0.20693,-104.37168 0,-53.03301 -75,-53.03301 -75,0 z"/>
<path d="m 262.28221,187.25878 c 15.46385,-5.06183 31.25872,-9.02067 47.1122,-12.63975 19.12398,-4.10901 38.44442,-7.22556 57.9009,-9.21641 3.24927,-0.23511 6.49894,-0.61942 9.75941,-0.69473 1.58273,-0.0366 -3.28053,0.37705 -4.74403,-0.22671 -6.71601,-2.7707 -13.01171,-6.46697 -19.51756,-9.70045 -3.03837,-4.98924 -6.07673,-9.97849 -9.1151,-14.96774 -0.22058,-0.54891 -0.58001,-2.23264 -0.66173,-1.64674 -0.26629,1.9091 0.0675,3.85461 0.0849,5.78211 0.0316,3.498 0.0411,6.99618 0.0622,10.49426 0.12457,20.71812 0.0277,10.02411 0.33541,33.34005 0.87106,47.98285 3.5153,95.90823 5.10412,143.86793 0.40403,12.19602 0.70526,24.39524 1.05788,36.59286 2.21921,79.49395 -0.0299,158.99698 -3.38362,238.41967 -1.98678,42.84627 -4.36789,85.6729 -6.66838,128.50311 -2.84439,52.95668 72.04765,56.97926 74.89205,4.02259 v 0 c 2.31591,-43.11728 4.71298,-86.23097 6.70968,-129.36458 1.39154,-33.0175 2.12335,-47.48913 3.02333,-80.79117 1.46758,-54.30537 1.69722,-108.64846 0.39554,-162.95982 -0.35983,-12.41405 -0.66804,-24.82969 -1.0795,-37.24214 -1.56965,-47.3512 -4.17445,-94.66853 -5.05768,-142.04193 -0.19746,-14.84579 -0.17114,-29.69758 -0.41029,-44.54212 -0.0669,-4.15203 -0.22103,-16.81182 -1.59697,-20.43837 -2.6254,-6.91973 -6.85355,-13.11985 -10.28033,-19.67978 -7.12928,-3.865904 -13.93107,-8.408937 -21.38785,-11.597715 -2.31663,-0.990671 -5.00521,-0.608498 -7.51996,-0.764265 -5.89988,-0.365446 -11.83624,0.786851 -17.70843,1.032708 -22.5076,2.343269 -44.86983,5.904971 -66.9855,10.723252 -18.16461,4.19484 -36.27483,8.71985 -53.98974,14.56865 -50.32283,16.73657 -26.65375,87.9038 23.66908,71.16723 z"/>
<path d="m 184.88168,386.44426 c 22.63695,-0.67088 45.21102,-2.7219 67.77027,-4.6182 26.0995,-1.63639 52.27103,-5.56142 78.48883,-4.34506 5.44441,0.25259 10.85198,1.0277 16.27797,1.54155 52.83839,4.53922 59.25782,-70.18554 6.41943,-74.72477 v 0 c -7.60446,-0.60556 -15.19067,-1.51875 -22.81338,-1.81669 -28.2863,-1.10557 -56.50448,2.67028 -84.6588,4.60886 -20.47224,1.72294 -40.95018,3.54852 -61.48432,4.35431 -53.033,0 -53.033,75 0,75 z"/>
<path d="m 186.71906,568.29131 c 18.51252,-1.43896 37.01353,-3.02544 55.52522,-4.48029 24.31229,-1.65541 48.63472,-3.99718 73.02893,-3.93517 13.71515,0.0349 19.94695,0.66417 33.75313,1.56382 52.92644,3.36042 57.67879,-71.48886 4.75236,-74.84928 v 0 c -17.13002,-1.06316 -22.99483,-1.69625 -40.0903,-1.69779 -25.82734,-0.002 -51.58123,2.35377 -77.3217,4.14908 -18.21185,1.43195 -36.414,2.98294 -54.62541,4.415 -52.91608,3.51982 -47.93831,78.35445 4.97777,74.83463 z"/>
<path d="m 171.67003,755.39394 c 1.99308,-0.22864 3.99098,-0.41851 5.97922,-0.68591 10.95826,-1.47379 21.83099,-3.54278 32.75806,-5.22193 15.73658,-2.41821 17.33402,-2.53445 33.63798,-4.68018 27.23617,-3.01053 54.56563,-5.43806 81.93706,-6.83255 6.79946,-0.34641 13.60676,-0.51682 20.41013,-0.77524 52.99362,-2.04377 50.10329,-76.98805 -2.89032,-74.94428 v 0 c -7.43236,0.29061 -14.86882,0.49064 -22.29709,0.87182 -29.05275,1.49087 -58.06004,4.0841 -86.96489,7.32394 -22.83027,3.01609 -45.57643,6.50775 -68.30955,10.16426 -52.87749,4.05836 -47.13809,78.83844 5.7394,74.78007 z"/>
<path d="m 202.95188,765.74335 c -1.95646,3.25069 -0.78286,1.22802 -4.06113,7.94807 -1.70746,3.50007 -3.31431,7.04977 -5.08224,10.51969 -4.46107,8.75578 -10.79792,20.18588 -15.75253,28.35735 -3.6066,5.94822 -7.45517,11.74632 -11.18276,17.61947 -13.47779,20.19035 -27.79762,39.79433 -42.95503,58.75517 -4.6706,5.84258 -9.50718,11.55051 -14.26077,17.32577 -33.677125,40.96768 24.25993,88.59433 57.93706,47.62664 v 0 c 5.18184,-6.31103 10.45616,-12.54726 15.54552,-18.93311 16.63649,-20.87452 32.36853,-42.44605 47.12405,-64.69202 4.28782,-6.80329 8.71155,-13.52279 12.86345,-20.40987 11.05668,-18.34059 20.67044,-37.48232 29.70423,-56.88103 19.25885,-49.41251 -50.621,-76.64864 -69.87985,-27.23613 z"/>
<path d="m 306.51811,882.1994 c 11.97394,7.7312 23.05601,16.68033 34.03799,25.73434 7.81101,6.64604 15.69666,13.1909 23.80472,19.47117 41.97417,32.41402 87.81452,-26.94642 45.84035,-59.36044 v 0 c -7.50741,-5.77387 -14.7214,-11.89951 -21.96275,-18.00198 -12.23272,-10.06697 -24.56859,-20.05124 -37.87313,-28.69065 -43.02572,-31.00464 -86.8729,29.84292 -43.84718,60.84756 z"/>
<path d="m 534.28423,112.72664 c 6.56582,23.37186 17.3456,45.20843 28.16132,66.83746 1.78235,3.50658 3.5647,7.01315 5.34705,10.51973 24.03284,47.27497 90.88975,13.2874 66.85691,-33.98757 v 0 c -1.71372,-3.37053 -3.42743,-6.74106 -5.14114,-10.11159 -9.01632,-17.98028 -18.2187,-36.06232 -23.60848,-55.533507 -15.75114,-50.63992 -87.3668,-28.364441 -71.61566,22.275477 z"/>
<path d="m 748.94014,65.545273 c -4.66843,13.022484 -9.47635,26.068163 -15.0103,38.754587 -6.00087,13.75683 -12.33607,26.0772 -19.02554,39.57908 -12.46717,24.03766 -26.15087,47.41291 -39.42743,71.0061 -26.00769,46.21797 39.35438,82.99839 65.36207,36.78043 v 0 c 13.92762,-24.75108 28.28521,-49.27306 41.28917,-74.53057 8.49526,-17.19608 13.76391,-27.30057 21.31721,-44.68193 2.48353,-5.71498 4.72228,-11.53359 7.01157,-17.3291 2.70498,-6.84789 7.69865,-19.812048 9.95312,-27.127315 0.95098,-3.085721 1.58924,-6.259269 2.38387,-9.388903 9.23649,-52.222477 -64.61724,-65.284856 -73.85374,-13.062379 z"/>
<path d="m 441.21024,277.67547 c 7.95012,21.34244 10.47141,44.29614 13.91926,66.67355 4.49432,30.24034 9.11663,60.48791 15.55299,90.38868 3.74217,17.38462 4.63771,20.00695 9.05585,36.66012 1.40281,4.75289 2.80562,9.50579 4.20843,14.25868 15.06084,50.84949 86.97289,29.55024 71.91204,-21.29925 v 0 c -1.21673,-4.09138 -2.43346,-8.18276 -3.65018,-12.27413 -3.88704,-14.50766 -4.69615,-16.86836 -8.0045,-32.16328 -6.22474,-28.77772 -10.61504,-57.90577 -14.95269,-87.01362 -4.57205,-29.56188 -8.29467,-59.87506 -20.35479,-87.53479 -22.84241,-47.86151 -90.52881,-15.55747 -67.68641,32.30404 z"/>
<path d="m 518.61313,321.13331 c 2.12389,-0.56912 4.2598,-1.09513 6.37167,-1.70736 10.41952,-3.02059 20.70517,-6.47946 31.14259,-9.45128 18.03981,-5.13645 18.27554,-4.98774 37.55583,-9.69998 41.68008,-9.42516 84.07431,-15.92898 126.75257,-18.45004 7.65207,-0.45201 15.31926,-0.59525 22.97888,-0.89287 27.56993,-0.61064 55.24048,0.65028 82.34957,5.89359 4.40944,1.30937 9.16325,1.81512 13.44779,3.5699 0.0896,0.0367 -0.20124,0.005 -0.28789,-0.0377 -2.3443,-1.16655 -4.66019,-2.38932 -6.99029,-3.58398 -15.69299,-17.08237 -6.36495,-4.2815 -13.62147,-19.55117 -0.0822,-0.1729 -0.43402,0.15074 -0.46285,0.33998 -0.33804,2.21894 -0.36064,4.4753 -0.61055,6.70589 -1.23131,10.99018 -1.79425,13.6656 -3.62571,25.46708 -4.58373,28.08263 -10.03331,56.03789 -17.94428,83.39329 -4.43257,15.32741 -9.85947,31.20179 -14.87724,46.33699 -5.63314,15.86786 -9.34709,27.29928 -16.1078,42.63657 -2.85052,6.46666 -6.13726,12.73211 -9.20589,19.09817 -22.8529,47.8565 44.82641,80.17539 67.67932,32.31888 v 0 c 3.71445,-7.83846 7.67154,-15.56649 11.14336,-23.5154 7.42788,-17.00651 11.5,-29.49035 17.6879,-46.95849 5.73568,-17.33511 11.13105,-33.06709 16.16375,-50.65128 8.57191,-29.95017 14.60154,-60.52122 19.5882,-91.25081 2.16541,-14.17313 4.8226,-28.57425 5.10639,-42.96192 0.18077,-9.16463 -0.1811,-19.08471 -4.76335,-27.42561 -3.05559,-5.56196 -8.07314,-9.7935 -12.10971,-14.69026 -3.227,-1.84531 -6.37417,-3.83781 -9.68099,-5.53593 -1.27424,-0.65434 -2.6717,-1.03602 -4.02592,-1.50282 -7.35576,-2.53554 -15.00549,-4.15343 -22.5717,-5.89617 -10.00348,-1.86012 -12.09051,-2.38896 -22.70482,-3.7127 -25.39109,-3.1666 -51.00884,-4.01963 -76.57752,-3.42599 -8.61571,0.35428 -17.24009,0.5385 -25.84712,1.06285 -46.71761,2.84603 -93.12441,9.98973 -138.74085,20.3771 -7.5037,1.84475 -15.03143,3.59438 -22.5111,5.53426 -11.52051,2.98788 -21.90923,6.06123 -33.22715,9.47598 -5.35251,1.61492 -10.72315,3.17782 -16.02209,4.96065 -0.07,0.0236 -0.0856,0.12047 -0.12847,0.1807 -52.00763,10.37816 -37.33069,83.92806 14.67694,73.5499 z"/>
<path d="m 618.78952,266.04548 c 1.25576,26.39229 0.87864,52.84156 0.597,79.25323 -0.66383,31.54746 -2.28161,63.06347 -3.47967,94.59316 -2.01324,52.99478 72.9327,55.84193 74.94594,2.84715 v 0 c 1.22352,-32.2141 2.88337,-64.41418 3.52953,-96.6474 0.29842,-28.46112 0.70247,-56.96617 -0.78424,-85.40154 -3.78684,-52.89764 -78.5954,-47.54224 -74.80856,5.3554 z"/>
<path d="m 546.48788,411.01944 c 24.59091,-5.49587 49.71545,-8.10636 74.75276,-10.5786 40.35304,-3.86992 80.90833,-3.38657 121.33788,-1.32273 52.96514,2.68215 56.75826,-72.22187 3.79312,-74.90402 v 0 c -44.16861,-2.22013 -88.47195,-2.66824 -132.55053,1.59465 -28.64651,2.86542 -57.39158,5.93098 -85.48519,12.44047 -51.45632,12.83537 -33.30436,85.6056 18.15196,72.77023 z"/>
<path d="m 546.63093,509.8194 c 26.39838,-4.4119 53.01369,-7.24642 79.65599,-9.67134 45.20415,-4.15709 90.60888,-3.59396 135.9008,-1.64343 52.98448,2.26833 56.19239,-72.66303 3.20791,-74.93137 v 0 c -17.47951,-0.74414 -25.27698,-1.1837 -43.25675,-1.46777 -34.25738,-0.54125 -68.54105,0.42245 -102.68382,3.35438 -28.3103,2.60152 -56.59388,5.60954 -84.6475,10.29734 -52.36988,8.36039 -40.54651,82.42257 11.82337,74.06219 z"/>
<path d="m 507.09905,609.4501 c -1.65839,31.77408 -2.25782,63.59681 -2.94601,95.40361 -0.54492,38.42593 -0.65251,76.8825 0.95594,115.28745 0.97917,23.37971 1.49655,27.5976 3.2493,50.26472 0.63714,6.57595 1.27428,13.1519 1.91142,19.72785 5.133,52.78401 79.78087,45.52486 74.64787,-7.25916 v 0 c -0.59505,-6.09498 -1.1901,-12.18997 -1.78515,-18.28495 -1.64512,-21.01571 -2.13885,-25.04335 -3.06025,-46.7979 -1.57059,-37.0818 -1.4535,-74.21454 -0.93665,-111.3171 0.67287,-31.15501 1.25155,-62.32633 2.87826,-93.44919 2.52815,-52.97271 -72.38658,-56.54805 -74.91473,-3.57533 z"/>
<path d="m 635.5784,643.76359 c 18.63771,-3.74442 37.19207,-7.88716 55.83937,-11.58939 13.8881,-2.20178 27.926,-5.33045 42.07622,-4.77876 0.31954,0.0561 0.88984,-0.14887 0.95862,0.16817 0.0652,0.30072 -0.61871,0.0402 -0.92314,-0.005 -0.87017,-0.12818 -1.77366,-0.18125 -2.5884,-0.51265 -3.22104,-1.31017 -6.72548,-2.24586 -9.46345,-4.38949 -9.26901,-7.25695 -9.28199,-8.73726 -13.03916,-16.70533 2.45939,29.99326 2.38962,60.1174 2.28752,90.18704 -0.18409,33.37327 -1.5469,66.75008 -4.98748,99.95559 -2.08788,20.15039 -2.99646,24.75477 -5.94829,44.53472 -2.53901,17.42254 -6.50925,34.5539 -10.81392,51.60377 -12.89146,51.4423 59.85894,69.67358 72.7504,18.23128 v 0 c 4.84227,-19.44451 9.36966,-38.96696 12.25051,-58.82186 3.20955,-21.72384 4.20524,-26.82048 6.4665,-48.90461 3.61807,-35.33522 5.08759,-70.84771 5.28189,-106.35788 0.0669,-22.01462 0.0511,-43.99647 -0.76419,-65.99972 -0.31058,-8.38238 -0.83553,-20.16799 -1.69057,-28.7871 -0.35762,-3.60488 -0.91746,-7.18683 -1.37619,-10.78025 -1.4509,-4.67373 -1.90469,-9.78373 -4.35269,-14.02121 -3.28612,-5.68825 -7.58284,-10.89063 -12.53349,-15.2087 -8.04015,-7.01281 -19.98242,-8.49669 -30.13493,-9.17445 -19.54149,-0.20089 -38.91274,2.52435 -58.07858,6.20539 -17.87474,3.55733 -35.68228,7.42827 -53.51954,11.16604 -52.3146,8.69953 -40.01161,82.68356 12.30299,73.98403 z"/>
<path d="m 577.77271,771.20311 c 19.47812,-3.68711 39.02193,-7.15869 58.66816,-9.83958 5.81056,-0.79289 11.64127,-1.43048 17.4619,-2.14572 15.26989,-1.71201 30.63145,-2.17766 45.95247,-0.9637 3.90022,0.30903 7.77783,0.85681 11.66675,1.28521 52.74521,5.51746 60.54808,-69.07553 7.80287,-74.593 v 0 c -5.35053,-0.53809 -10.68664,-1.24695 -16.0516,-1.61429 -19.53626,-1.33765 -39.11817,-0.7505 -58.5733,1.45253 -6.47613,0.80511 -12.96282,1.5294 -19.42839,2.41533 -21.10779,2.89225 -42.10791,6.62289 -63.02846,10.62862 -51.88368,10.9811 -36.35407,84.35569 15.5296,73.3746 z"/>
<path d="m 552.838,891.95189 c 22.6155,-3.96589 45.42086,-6.68049 68.23967,-9.15049 23.16447,-2.5173 46.44892,-2.51761 69.7037,-1.94811 53.01859,1.23654 54.76733,-73.74307 1.74874,-74.97961 v 0 c -5.9785,-0.13337 -11.95561,-0.36659 -17.93551,-0.40011 -20.56945,-0.11532 -41.13921,0.72615 -61.61175,2.76595 -24.3997,2.65626 -48.78474,5.56848 -72.96745,9.81663 -52.25218,9.06694 -39.42958,82.96269 12.8226,73.89574 z"/>
</svg>
