<?xml version="1.0" ?>
<svg xmlns="http://www.w3.org/2000/svg" viewBox="0 0 1000 1000">
<path d="m 384.49247,248.24236 c 16.49694,-1.80449 32.91,-4.28233 49.38705,-6.24842 18.56805,-2.2156 25.05808,-2.75371 44.07158,-4.63124 39.57795,-3.54478 79.30279,-6.29758 119.06434,-5.9134 5.65248,0.0546 11.30167,0.29433 16.9525,0.44149 16.92945,0.98092 8.99054,0.41076 23.82208,1.63454 52.85818,4.30271 58.94313,-70.45004 6.08495,-74.75275 v 0 c -17.46488,-1.4052 -8.12458,-0.75578 -28.02701,-1.85822 -6.39025,-0.15477 -12.77885,-0.40995 -19.17073,-0.4643 -42.11329,-0.35805 -84.18841,2.49678 -126.1069,6.27669 -31.0887,3.07865 -62.09453,6.7327 -93.06298,10.8416 -52.8025,4.93922 -45.81738,79.61324 6.98512,74.67401 z"/>
<path d="m 464.78798,93.011053 c -0.0108,22.506707 1.60649,44.977287 2.9182,67.434357 2.4906,39.95572 5.21354,79.9463 4.75986,120.00585 -0.0966,8.52752 -0.45869,17.04996 -0.68803,25.57494 -1.23358,30.44635 -3.9352,60.80425 -6.59908,91.15025 -4.63569,52.83002 70.07723,59.38587 74.71292,6.55585 v 0 c 2.79565,-31.8732 5.61558,-63.76041 6.86042,-95.74138 0.23765,-9.29573 0.61751,-18.58892 0.71296,-27.8872 0.42503,-41.40247 -2.28556,-82.73674 -4.88669,-124.03205 -1.22689,-21.00054 -2.7716,-42.01405 -2.79056,-63.060617 0,-53.033008 -75,-53.033008 -75,0 z"/>
<path d="m 205.69644,499.53238 c 26.50761,-7.07384 53.46974,-12.18261 80.44525,-17.08239 61.31852,-10.8389 123.38733,-16.53542 185.4168,-21.39963 59.33121,-3.88326 118.79742,-6.17677 178.26269,-6.06688 11.04826,0.0204 22.09548,0.21747 33.14322,0.3262 42.62096,0.77992 85.33678,2.65004 127.60488,8.47485 4.68171,0.64517 9.33982,1.45134 14.00973,2.17701 52.41373,8.08095 63.84191,-66.04324 11.42819,-74.12419 v 0 c -16.15846,-2.47428 -19.37096,-3.13033 -36.6328,-4.99344 -38.41872,-4.14662 -77.05697,-5.94349 -115.68238,-6.5307 -11.44119,-0.10945 -22.88188,-0.3102 -34.32359,-0.32836 -61.27413,-0.0973 -122.54906,2.26692 -183.68353,6.29586 -12.16056,0.95691 -24.329,1.81842 -36.48168,2.87073 -52.37371,4.53509 -104.68767,10.46157 -156.48744,19.51003 -29.15122,5.3127 -58.28616,10.86763 -86.9224,18.56 -51.13154,14.07359 -31.22847,86.38451 19.90306,72.31091 z"/>
<path d="m 376.18623,451.40902 c 0.17277,18.77107 1.47217,37.50521 2.20974,56.256 0.28523,7.25134 0.46704,14.50638 0.70056,21.75957 0.64325,37.59702 0.3051,75.30874 -4.49829,112.66392 -3.25022,25.27638 -6.1183,37.13199 -11.18357,62.21247 -6.79329,29.08326 -15.42264,57.9124 -27.37069,85.33742 -3.43901,7.89375 -7.57617,15.4646 -11.36426,23.1969 -23.09818,47.7386 44.4144,80.40437 67.51258,32.66577 v 0 c 4.60571,-9.61573 9.60491,-19.05269 13.81712,-28.84717 13.50114,-31.39364 23.26208,-64.34309 30.93788,-97.58971 5.72118,-28.64982 8.65712,-40.65087 12.2941,-69.6683 5.08786,-40.59318 5.56604,-81.55484 4.81579,-122.39997 -0.24891,-7.63722 -0.44643,-15.27629 -0.74675,-22.91166 -0.69061,-17.55819 -1.90539,-35.09946 -2.12421,-52.67524 0,-53.03301 -75,-53.03301 -75,0 z"/>
<path d="m 567.67445,451.44018 c -1.45656,24.68696 -2.12964,49.40395 -2.686,74.12477 -0.72502,54.99136 -0.13569,109.98552 -0.66917,164.97879 -0.45841,51.08652 -3.73186,102.07637 -6.78045,153.05515 -1.49064,24.22912 -2.59903,48.47912 -3.9643,72.71498 -0.86417,8.54818 -0.276,-0.6037 0.85835,-1.96878 6.19848,-7.45927 11.91399,-16.10577 20.46516,-20.6817 13.61654,-7.28654 27.24202,3.10717 19.59563,-2.47432 -18.21419,-9.34902 -36.50124,-18.56167 -55.29897,-26.69629 -7.33953,-3.17615 -14.76975,-6.13845 -22.15462,-9.20768 -48.98714,-20.31651 -77.71903,48.96176 -28.73189,69.27827 v 0 c 6.67471,2.76173 13.3897,5.42808 20.02414,8.2852 18.32041,7.88967 36.07402,16.96711 53.83765,26.01752 12.24153,5.43935 22.72544,11.66112 38.15114,5.35697 22.31576,-9.11998 26.60398,-24.38842 28.13477,-43.69221 1.35957,-24.14923 2.46591,-48.31237 3.9492,-72.45495 3.1232,-52.22817 6.45031,-104.4687 6.91069,-156.80724 0.52661,-54.67421 -0.0363,-109.34895 0.6538,-164.02141 0.54302,-24.28042 1.21646,-48.55568 2.64467,-72.80278 2.12435,-52.99044 -72.81545,-55.99473 -74.9398,-3.00429 z"/>
<path d="m 222.67544,574.7727 c -3.38629,17.59115 -11.45115,33.58115 -19.13258,49.60462 -11.01115,22.26441 -23.9546,43.46733 -37.2847,64.39572 -7.94304,12.47066 -23.86307,36.83445 -32.1626,49.02282 -5.45887,8.01669 -11.10226,15.90617 -16.65338,23.85925 -30.339101,43.49758 31.17576,86.40354 61.51486,42.90597 v 0 c 5.87083,-8.42274 11.83602,-16.7805 17.61251,-25.26822 8.46144,-12.4329 25.25775,-38.12734 33.3098,-50.80403 14.82585,-23.34096 29.16739,-47.0184 41.37494,-71.85997 3.04012,-6.41697 6.22718,-12.76636 9.12036,-19.2509 6.38706,-14.31543 11.7381,-29.04254 15.05191,-44.37685 12.88943,-51.44281 -59.86168,-69.67122 -72.75112,-18.22841 z"/>
<path d="m 760.35175,647.57903 c 14.75033,11.10598 27.23247,24.86365 39.647,38.43466 20.2006,22.75335 38.06738,47.40527 55.0258,72.62529 4.5719,6.96421 9.03727,13.99721 13.51263,21.02351 28.49115,44.7298 91.74863,4.43723 63.25748,-40.29257 v 0 c -4.81517,-7.5594 -9.62001,-15.1258 -14.5517,-22.61015 -19.07426,-28.31203 -39.20569,-55.95917 -61.97708,-81.44662 -15.44276,-16.79308 -31.08168,-33.64564 -49.41974,-47.36013 -42.16196,-32.16938 -87.65634,27.45663 -45.49439,59.62601 z"/>
</svg>
