<?xml version="1.0" ?>
<svg xmlns="http://www.w3.org/2000/svg" width="1000" height="1000">
<path d="m 152.37541,299.24936 c 23.25892,-6.61191 46.99765,-11.35441 70.74501,-15.81531 25.78627,-4.6302 51.86167,-7.72523 78.05608,-8.59413 12.86838,-0.42686 16.22557,-0.17394 28.46637,0.15004 11.88358,0.83932 6.42107,0.30527 16.39959,1.47376 52.70543,5.88533 61.02854,-68.65141 8.32311,-74.53674 v 0 c -14.34538,-1.54941 -6.71587,-0.87261 -22.8985,-1.91483 -14.79079,-0.33403 -18.83349,-0.62348 -34.26577,-0.0668 -29.52014,1.06485 -58.90829,4.55012 -87.96996,9.78597 -26.31019,4.97248 -52.61244,10.25121 -78.36282,17.66783 -50.805773,15.20767 -29.29888,87.05788 21.50689,71.85022 z"/>
<path d="m 215.39484,131.36713 c 1.72366,23.1705 4.20712,46.27688 6.44385,69.40155 4.95184,49.67485 3.90949,99.67923 2.26152,149.49259 -0.94843,24.22151 -2.98984,48.37518 -5.03488,72.52156 -4.4684,52.84443 70.2649,59.1637 74.7333,6.31928 v 0 c 2.14699,-25.43009 4.28135,-50.86849 5.26113,-76.37797 1.73139,-53.04512 2.73312,-106.28369 -2.56952,-159.17669 -2.12556,-21.97177 -4.4516,-43.92685 -6.18939,-65.93398 -2.65424,-52.966549 -77.56025,-49.212882 -74.90601,3.75366 z"/>
<path d="m 104.75117,512.73965 c 14.75389,-6.91836 30.75114,-10.85821 46.45794,-14.93282 37.06301,-8.4182 74.99055,-12.67168 112.92147,-14.52091 8.1439,-0.39703 16.29846,-0.53214 24.44768,-0.79821 26.69914,-0.26629 53.48037,0.68158 79.98892,4.04535 10.34249,1.31241 13.66572,2.07483 23.4168,3.91567 2.52602,0.59433 5.05204,1.18866 7.57807,1.78299 51.67599,11.92021 68.53372,-61.16068 16.85772,-73.0809 v 0 c -3.56888,-0.81159 -7.13775,-1.62319 -10.70663,-2.43478 -12.37654,-2.27932 -16.12693,-3.13966 -29.19369,-4.76019 -29.98245,-3.71841 -60.25714,-4.80412 -90.4469,-4.42627 -8.94436,0.30533 -17.89475,0.46751 -26.83307,0.916 -42.69455,2.14225 -85.36502,7.10872 -127.0344,16.80888 -21.40092,5.6503 -43.145418,11.26208 -62.949521,21.41658 -46.717564,25.09919 -11.221951,91.1678 35.495611,66.06861 z"/>
<path d="m 212.01252,486.89921 c -0.19875,27.89604 0.57702,55.78139 1.33576,83.66361 1.59469,51.35149 1.62694,102.7279 0.74029,154.0909 -0.66949,26.52944 -0.31572,13.82341 -1.04528,38.11854 -1.59049,53.00915 73.37578,55.25843 74.96626,2.24928 v 0 c 0.74516,-24.85581 0.38339,-11.83006 1.06793,-39.07773 0.89976,-52.47334 0.87053,-104.96033 -0.75697,-157.42191 -0.74078,-27.20207 -1.50687,-54.40703 -1.30799,-81.62269 0,-53.03301 -75,-53.03301 -75,0 z"/>
<path d="m 298.62396,652.30988 c 15.53528,-3.34494 31.23845,-5.97115 47.06814,-7.43911 4.37455,-0.40567 8.76226,-0.65403 13.14338,-0.98105 13.79249,-0.96006 27.58571,-0.22244 41.33826,0.86299 52.87608,4.07669 58.6414,-70.70138 5.76532,-74.77808 v 0 c -17.57776,-1.32973 -35.20851,-2.14177 -52.82612,-0.86627 -5.28376,0.41257 -10.57579,0.73011 -15.85127,1.23773 -18.26256,1.75726 -36.3875,4.76564 -54.31863,8.62139 -51.86092,11.08808 -36.18,84.43049 15.68092,73.3424 z"/>
<path d="m 86.276307,630.16633 c -0.06892,3.7071 -0.05897,6.52697 -0.505223,10.38032 -0.895078,7.72879 -2.522996,15.29116 -4.314683,22.86148 -2.445926,10.33464 -7.862423,30.44107 -10.42308,40.09635 -8.102948,30.15965 -16.051375,60.4444 -27.104673,89.69509 -2.441619,6.46133 -5.183561,12.80515 -7.775341,19.20773 -19.808787,49.19463 49.762931,77.20849 69.571713,28.01385 v 0 c 2.98929,-7.45786 6.14596,-14.85079 8.96786,-22.37358 11.67207,-31.1161 20.25938,-63.25832 28.83678,-95.32642 8.02964,-30.30745 17.593,-60.91946 17.74665,-92.55482 0,-53.03301 -75.000003,-53.03301 -75.000003,0 z"/>
<path d="m 117.02658,778.98747 c 14.79697,3.97205 29.30872,8.93591 43.83293,13.78997 33.26162,11.48527 66.63338,22.68407 100.42217,32.53335 8.12388,2.36807 16.28631,4.60187 24.42946,6.9028 50.33855,13.99449 101.34621,25.33652 152.51992,35.78634 42.62586,8.52996 85.5547,15.42351 128.4402,22.49378 26.14223,4.44356 52.38545,8.2398 78.60215,12.20513 15.01902,2.2501 29.89292,5.30796 44.91758,7.51427 22.89004,2.60837 45.99572,3.49576 69.02754,3.10069 6.86369,-0.11774 13.72182,-0.45652 20.58273,-0.68478 25.24692,-1.38012 50.41151,-3.90752 75.58443,-6.21723 52.81109,-4.84653 45.95707,-79.53269 -6.85402,-74.68616 v 0 c -23.74982,2.17996 -47.49118,4.56288 -71.30523,5.9476 -5.99983,0.21352 -11.99693,0.52696 -17.99948,0.64057 -19.43303,0.36781 -38.92514,-0.31726 -58.25906,-2.32237 -14.88526,-2.12917 -29.59031,-5.32971 -44.47993,-7.44941 -25.88812,-3.91438 -51.8025,-7.66116 -77.61683,-12.04941 -41.949,-6.91562 -83.94202,-13.64931 -125.63999,-21.97736 -49.36734,-10.07319 -98.57689,-20.99635 -147.14166,-34.48007 -7.73761,-2.18273 -15.49365,-4.30118 -23.21284,-6.54819 -33.06513,-9.62505 -65.70829,-20.61329 -98.25544,-31.84591 -16.8007,-5.60918 -33.59138,-11.3633 -50.76608,-15.74123 -51.680753,-11.89958 -68.509297,61.18804 -16.82855,73.08762 z"/>
<path d="m 507.51653,282.31734 c 26.32127,-5.86421 53.043,-9.68342 79.721,-13.49359 29.13723,-3.79907 58.47414,-6.35473 87.86711,-6.79699 15.53086,-0.23368 19.71827,0.1253 34.75371,0.72243 15.53604,1.28571 31.45423,1.99586 46.42419,6.75087 0.34664,0.15041 0.71205,0.26338 1.03992,0.45123 0.0809,0.0464 -0.19463,0.0235 -0.27938,-0.0155 -1.09257,-0.50231 -2.24695,-0.91203 -3.23352,-1.59957 -6.13832,-4.27781 -9.48431,-7.42885 -12.84974,-14.71314 -1.48092,-3.20537 -1.80322,-6.82778 -2.70483,-10.24167 -0.10226,-0.53731 -0.0872,-2.11291 -0.30677,-1.61195 -0.63068,1.43897 -0.65412,3.07352 -1.005,4.60495 -0.72234,3.15258 -1.46907,6.29954 -2.2146,9.44672 -1.11269,4.69718 -2.25132,9.3882 -3.36005,14.08632 -3.05181,12.93165 -6.06352,25.87272 -9.10514,38.80677 -8.80412,38.20443 -20.89076,75.51506 -33.07222,112.74178 -16.4902,50.4041 54.79196,73.72476 71.28216,23.32066 v 0 c 12.83963,-39.25316 25.51536,-78.61231 34.79849,-118.89359 3.0236,-12.85755 6.0172,-25.72216 9.05081,-38.57736 1.03851,-4.40082 5.11848,-21.26184 6.21597,-26.48437 0.69668,-3.31527 1.42831,-6.63131 1.86028,-9.99134 0.4525,-3.51978 0.52608,-7.07797 0.78912,-10.61696 -0.97206,-5.0801 -1.0731,-10.40757 -2.91619,-15.24031 -5.66945,-14.8658 -18.2514,-22.73186 -32.49368,-27.32627 -21.29902,-6.20679 -42.92459,-8.64146 -65.0518,-9.84243 -17.53136,-0.6491 -22.04638,-1.03886 -40.09967,-0.73633 -32.11664,0.53821 -64.17113,3.33389 -96.00688,7.51142 -28.76162,4.11836 -57.56466,8.27565 -85.93191,14.65061 -51.68074,11.89963 -34.85211,84.98723 16.82862,73.0876 z"/>
<path d="m 542.2859,466.85003 c 14.7422,-2.92015 29.74249,-4.5393 44.75265,-5.19452 5.17646,-0.22596 10.35993,-0.2429 15.53989,-0.36435 30.2011,-0.23613 60.26878,2.88238 89.99246,8.01076 3.27154,0.64444 6.54308,1.28889 9.81462,1.93333 52.04409,10.19374 66.46022,-63.40772 14.41612,-73.60146 v 0 c -3.86085,-0.75256 -7.72169,-1.50511 -11.58254,-2.25767 -13.05033,-2.21697 -16.46296,-2.94063 -30.00583,-4.60975 -24.72511,-3.04728 -49.64,-4.58364 -74.55398,-4.45065 -6.23412,0.17071 -12.47292,0.2163 -18.70235,0.51214 -19.1784,0.9108 -38.34728,3.10292 -57.13704,7.08426 -51.57489,12.35033 -34.10889,85.28824 17.466,72.93791 z"/>
<path d="m 501.43233,439.87796 c -4.68962,17.59734 -7.25211,35.65521 -9.83034,53.65291 -2.92191,22.00335 -4.86593,44.1505 -5.35432,66.34811 -0.33961,15.4355 -0.0368,19.87369 0.36954,35.27452 1.32005,25.4441 3.23661,50.98129 7.83008,76.07835 0.78768,4.30361 1.77461,8.56835 2.66191,12.85253 4.77469,19.04693 12.83355,37.57409 27.91519,50.83035 11.62237,10.21568 16.68658,11.2715 30.4813,17.46919 5.39882,1.58249 10.7337,3.40223 16.19647,4.74748 10.8542,2.67292 22.68993,4.38042 33.77037,5.63943 18.77791,2.13364 37.63641,2.86323 56.50524,3.61804 36.35382,1.02229 72.71074,1.96633 109.07014,2.7724 12.26426,0.10856 24.54782,0.52035 36.80923,-0.035 3.14972,-0.14267 6.31489,-0.20906 9.43615,-0.65498 4.04229,-0.57749 8.24364,-0.83353 12.01081,-2.409 6.57183,-2.74841 12.43937,-6.94499 18.65905,-10.41748 4.68221,-7.10026 10.61028,-13.52079 14.04663,-21.30078 4.34367,-9.83418 5.00217,-29.4503 5.32078,-39.89683 0.38931,-12.76446 0.11109,-37.58058 0.0368,-49.83696 -0.32802,-53.032 -75.32659,-52.5681 -74.99856,0.46389 v 0 c 0.10246,16.22024 0.29073,29.8303 0.0438,45.86556 -0.0635,4.12098 -0.55838,8.2404 -0.38748,12.35832 0.0269,0.64781 0.43631,2.05344 0.97033,1.68576 3.23258,-2.22566 5.64394,-5.45513 8.4659,-8.1827 3.33997,-1.19677 6.62536,-2.5585 10.01992,-3.59032 0.16984,-0.0516 0.43174,0.43659 0.25677,0.46656 -1.89083,0.32388 -3.81963,0.37853 -5.73572,0.4719 -11.08869,0.54035 -22.20103,0.0999 -33.29269,0.0305 -35.9246,-0.79589 -71.84658,-1.73268 -107.76596,-2.73214 -27.08497,-1.05936 -54.53333,-1.79375 -80.95107,-8.44298 -1.4192,-0.37838 -2.81197,-0.87537 -4.25759,-1.13515 -0.54235,-0.0975 -2.3339,0.32293 -2.93448,-0.10686 -3.97265,-2.84289 -4.81388,-9.05949 -6.29951,-13.1261 -0.6701,-3.11492 -1.42605,-6.21261 -2.0103,-9.34477 -4.0714,-21.8266 -5.67755,-44.06203 -6.90177,-66.19597 -0.37684,-13.14142 -0.65342,-17.23828 -0.39491,-30.38155 0.38545,-19.59729 2.09404,-39.14997 4.65414,-58.57673 2.19816,-15.43433 4.29805,-30.94318 8.33514,-46.03065 12.88972,-51.44274 -59.8613,-69.67156 -72.75101,-18.22882 z"/>
</svg>
