<?xml version="1.0" ?>
<svg xmlns="http://www.w3.org/2000/svg" viewBox="0 0 1000 1000">
<path d="m 395.72453,274.76279 c 24.31787,-8.95948 49.82089,-14.21946 75.1259,-19.51051 36.71713,-6.78814 73.88694,-11.50426 111.20009,-13.27476 5.1569,-0.2447 10.3206,-0.31509 15.4809,-0.47263 4.0442,-0.005 8.0884,-0.0103 12.1326,-0.0154 53.03283,-0.13665 52.83958,-75.1364 -0.19325,-74.99975 v 0 c -4.77078,0.0176 -9.54155,0.0351 -14.31233,0.0527 -5.92146,0.19325 -11.84684,0.29008 -17.76436,0.57977 -40.92458,2.00344 -81.69083,7.18793 -121.94909,14.7293 -7.99143,1.68299 -16.00741,3.2534 -23.97431,5.04897 -12.75154,2.87393 -25.93084,6.23442 -38.5109,9.89542 -8.77869,2.55474 -16.94824,5.1299 -25.39549,8.51537 -2.28051,0.91397 -4.47307,2.03368 -6.70961,3.05052 -46.9526,24.6567 -12.08275,91.05771 34.86985,66.401 z"/>
<path d="m 467.61195,139.4331 c 1.59147,26.43659 1.65088,52.93977 1.86377,79.41455 -0.13125,33.67164 0.91027,67.42828 -1.35611,101.05837 -0.52186,7.74367 -1.45432,15.4542 -2.18148,23.1813 -4.86251,52.80962 69.82157,59.68626 74.68408,6.87664 v 0 c 0.81059,-8.97368 1.83937,-17.93032 2.43177,-26.92104 2.29815,-34.87869 1.31942,-69.88035 1.4193,-104.80105 -0.16371,-20.1789 -0.29729,-40.3522 -0.95149,-60.52264 -0.18174,-5.60331 -0.60434,-16.61648 -1.04556,-22.68438 -0.15139,-2.082 -0.41426,-4.15439 -0.62139,-6.23159 -7.51643,-52.497654 -81.75932,-41.867814 -74.24289,10.62984 z"/>
<path d="m 233.69558,462.29851 c 29.14755,-9.8138 59.3677,-15.93491 89.44479,-22.0911 61.41815,-11.17832 123.24572,-20.63318 185.44627,-26.22811 13.4527,-1.21007 26.93681,-2.04121 40.40521,-3.06182 46.26588,-2.76379 92.71677,-3.01268 138.9706,0.14146 22.32051,1.52209 27.77731,2.43852 49.12605,5.01119 15.3916,2.39609 18.64908,2.64455 32.94178,5.7357 5.75364,1.24437 13.2188,2.43678 18.43581,5.73877 48.13723,22.25549 79.61126,-45.82083 31.47403,-68.07633 v 0 c -3.35309,-1.45217 -6.63096,-3.09212 -10.05928,-4.35651 -8.18225,-3.01767 -16.94574,-5.10421 -25.44498,-6.90946 -16.73062,-3.5536 -20.71415,-3.88178 -38.4441,-6.60184 -23.59933,-2.80123 -29.57365,-3.79569 -54.15328,-5.44129 -49.44285,-3.3102 -99.0907,-3.02473 -148.54063,-0.0252 -14.16272,1.08322 -28.34189,1.96946 -42.48817,3.24966 -64.64874,5.85051 -128.91487,15.67057 -192.7427,27.35414 -34.39715,7.07265 -69.01321,14.10921 -102.17203,25.90357 -49.25507,19.65801 -21.45444,89.31521 27.80063,69.6572 z"/>
<path d="m 457.97404,418.30115 c -0.13293,29.06058 -2.06506,58.0861 -3.46253,87.10574 -2.46553,48.77862 -3.41316,97.61304 -3.42449,146.44873 0.15586,22.96732 0.23351,45.93847 0.75917,68.90109 1.22579,53.01884 76.20575,51.28531 74.97996,-1.73353 v 0 c -0.52303,-22.38081 -0.57381,-44.77084 -0.73913,-67.15625 0.003,-47.63664 0.93372,-95.27197 3.33769,-142.85288 1.49143,-30.97683 3.59875,-61.96556 3.51477,-92.98966 -1.60991,-53.00857 -76.57535,-50.73181 -74.96544,2.27676 z"/>
<path d="m 519.24414,606.14859 c 16.49124,-5.90642 33.70972,-9.58475 50.77922,-13.3872 17.28985,-3.75771 34.82812,-6.11668 52.41666,-7.90097 52.75821,-5.39175 45.13313,-80.00313 -7.62508,-74.61139 v 0 c -20.5197,2.11018 -40.97772,4.90321 -61.14512,9.31699 -22.20124,4.9734 -44.69796,9.75625 -65.79749,18.45908 -48.17058,22.18322 -16.79877,90.30671 31.37181,68.12349 z"/>
<path d="m 278.72099,548.21315 c -1.25683,14.90682 -3.71881,29.88404 -7.11458,44.45439 -1.6353,7.01668 -3.64804,13.94001 -5.47206,20.91001 -2.6336,8.3507 -5.06925,16.76644 -7.90081,25.05211 -13.54825,39.64465 -30.52208,78.90977 -49.13743,116.42266 -4.46089,8.98939 -9.1937,17.84126 -13.79055,26.76189 -4.15278,7.69428 -8.30556,15.38856 -12.45834,23.08284 -25.17604,46.6762 40.83406,82.28049 66.0101,35.6043 v 0 c 4.37858,-8.12279 8.75716,-16.24558 13.13573,-24.36837 4.92435,-9.58075 9.99627,-19.08707 14.77304,-28.74225 11.15835,-22.5541 19.19867,-40.16483 28.9348,-63.37273 8.49947,-20.26009 17.05595,-42.12694 24.1011,-62.96165 3.21064,-9.49487 5.96355,-19.13842 8.94533,-28.70762 2.14921,-8.39972 4.51078,-16.74794 6.44762,-25.19915 1.51454,-6.60857 2.70488,-13.28853 3.90233,-19.96185 2.30652,-12.85416 4.32108,-25.89851 4.62372,-38.97458 0,-53.033 -75,-53.033 -75,0 z"/>
<path d="m 294.18125,697.39391 c 13.29714,7.26893 27.15063,13.41514 40.97682,19.5893 21.49568,9.58444 43.22018,18.65223 64.64783,28.39023 11.9884,5.44823 21.86106,10.19702 33.75292,15.84371 27.96136,13.26988 56.24006,25.8547 84.19904,39.12875 19.113,9.58236 37.68245,20.18646 56.65344,30.0418 19.04841,9.48699 38.07972,19.02345 57.2903,28.17944 15.10357,7.38345 30.91332,12.99934 47.09632,17.45319 19.34306,4.75575 38.96744,8.46116 58.69944,11.19002 7.53341,1.04184 15.09425,1.87461 22.64138,2.81192 29.03601,3.21021 58.16976,5.39258 87.28877,7.67267 52.87134,4.1378 58.72306,-70.63357 5.85172,-74.77136 v 0 c -28.00649,-2.19066 -56.02702,-4.28558 -83.95715,-7.33696 -6.77035,-0.82908 -13.55305,-1.56292 -20.31106,-2.48724 -16.97241,-2.3214 -33.85195,-5.47063 -50.51358,-9.44567 -11.902,-3.18679 -23.47161,-7.37794 -34.55436,-12.80279 -18.43977,-8.76962 -36.68424,-17.95342 -54.97506,-27.02773 -19.76879,-10.25533 -39.07609,-21.37755 -59.05294,-31.23357 -27.96009,-13.26546 -56.22494,-25.87303 -84.1916,-39.12522 -12.94716,-6.14523 -22.33908,-10.66826 -35.4225,-16.6114 -21.40491,-9.72317 -43.0991,-18.79284 -64.57422,-28.35742 -11.85756,-5.28975 -23.76089,-10.50305 -35.18402,-16.69772 -46.38342,-25.71146 -82.7449,39.8846 -36.36149,65.59605 z"/>
</svg>
