<?xml version="1.0" ?>
<svg xmlns="http://www.w3.org/2000/svg" width="1000" height="1000">
<path d="m 68.686223,223.76595 c 0.292614,27.93454 3.947916,55.71022 9.332071,83.08945 1.668559,8.48487 3.627289,16.9101 5.440932,25.36515 7.25628,30.08848 13.25159,60.58844 23.181004,89.96189 1.89528,5.60667 4.12973,11.09291 6.1946,16.63936 18.67873,49.63472 88.87282,23.21902 70.19409,-26.4157 v 0 c -1.59439,-4.17725 -3.33031,-8.30318 -4.78318,-12.53174 -9.34447,-27.19704 -14.60754,-55.57933 -21.46787,-83.44552 -1.6483,-7.61824 -3.41584,-15.21165 -4.94489,-22.85472 -4.60097,-22.99833 -7.81982,-46.32597 -8.14675,-69.80817 0,-53.03301 -75.000007,-53.03301 -75.000007,0 z"/>
<path d="m 205.10951,240.15537 c 17.1793,-5.80305 34.8587,-10.23874 52.69767,-13.4863 5.43131,-0.98876 10.90122,-1.75232 16.35184,-2.62848 27.11734,-4.10022 54.53293,-5.58346 81.90933,-4.14237 5.25552,0.38702 10.48698,1.04145 15.64056,2.14471 1.42217,0.30445 4.96312,1.08579 3.34025,0.91639 -7.20164,-3.09201 -9.41718,-3.42273 -15.76163,-11.51043 -2.5832,-3.29297 -3.76018,-7.48044 -5.50564,-11.28438 -0.3197,-0.69674 -0.47649,-2.93583 -0.68029,-2.19684 -0.4802,1.7413 -0.12197,3.61064 -0.20717,5.41492 -0.16626,3.52093 -0.3648,7.04027 -0.5472,10.5604 -1.35588,25.88947 -3.56777,51.73142 -7.2724,77.39719 -2.53333,17.55093 -5.18851,31.92002 -8.25231,49.40859 -2.85388,14.97673 -5.63964,31.13282 -9.54681,45.92773 -1.73446,6.5677 -3.96697,12.99367 -5.95045,19.4905 -15.25982,50.79014 56.56827,72.37079 71.8281,21.58065 v 0 c 2.42528,-8.17709 5.12119,-16.27874 7.27583,-24.53127 4.20077,-16.08943 7.16885,-33.23226 10.27085,-49.54043 3.33876,-19.10228 6.01951,-33.56947 8.76476,-52.78949 3.93881,-27.57633 6.33163,-55.33568 7.7863,-83.14721 0.21812,-4.38706 0.9965,-17.42482 0.80297,-22.44136 -0.14363,-3.72306 -0.002,-7.54271 -0.99858,-11.13278 -1.54408,-5.56239 -3.29289,-11.26371 -6.54287,-16.03467 -7.04639,-10.34407 -11.28334,-11.39843 -20.57825,-15.92228 -12.97275,-4.29287 -26.51845,-6.33306 -40.13977,-7.21731 -11.75078,-0.55844 -14.28675,-0.83286 -26.52496,-0.72476 -23.82393,0.21043 -47.59541,2.29673 -71.16215,5.74909 -6.48523,1.06703 -12.99322,2.00396 -19.4557,3.20109 -21.71753,4.02301 -43.23228,9.51928 -64.08937,16.79459 -49.59966,18.77163 -23.05256,88.91613 26.54709,70.14451 z"/>
<path d="m 165.19162,440.79664 c 19.40993,-5.91544 39.26919,-10.31981 59.24854,-13.82089 6.84046,-1.19868 13.71456,-2.19676 20.57184,-3.29515 26.60436,-3.82011 53.37091,-6.58738 80.22722,-7.77935 11.21472,-0.49774 17.54871,-0.47892 28.47519,-0.58981 53.02997,-0.56799 52.22671,-75.56369 -0.80326,-74.9957 v 0 c -12.57024,0.14097 -19.01688,0.11758 -32.00671,0.71089 -29.39798,1.34275 -58.69911,4.38381 -87.81746,8.60808 -7.6135,1.23212 -15.24601,2.35206 -22.8405,3.69636 -22.80036,4.03589 -45.44913,9.14212 -67.5938,15.93238 -50.581604,15.93744 -28.04266,87.47062 22.53894,71.53319 z"/>
<path d="m 218.57842,423.84043 c -0.12559,2.15438 -0.29923,4.3065 -0.37678,6.46314 -0.45332,12.60695 -0.20431,25.26427 -0.0587,37.87234 0.21904,18.96821 0.33175,22.17412 0.73675,42.05203 1.03375,46.55307 1.71424,93.14274 -0.41183,139.67758 -0.42867,9.38256 -1.08573,18.7533 -1.62859,28.12995 -1.54311,24.94116 -5.12536,49.65702 -8.81871,74.34455 -7.81168,52.45453 66.37022,63.50191 74.18191,11.04738 v 0 c 3.99323,-26.92689 7.86463,-53.88461 9.51304,-81.08504 0.56987,-9.9684 1.25925,-19.93068 1.70961,-29.9052 2.16221,-47.88848 1.51022,-95.83247 0.43896,-143.73938 -0.52439,-25.656 -1.16216,-51.32709 -0.69956,-76.98863 5.56402,-52.74033 -69.02206,-60.60904 -74.58608,-7.86872 z"/>
<path d="m 287.58591,610.45308 c 2.47355,-0.29555 4.9546,-0.53391 7.42065,-0.88665 11.36471,-1.62564 22.64449,-3.86393 33.97466,-5.7072 15.1201,-2.45984 11.99828,-1.93118 27.23947,-3.94766 12.84004,-1.54781 25.7658,-1.97577 38.67685,-2.42979 52.99873,-1.90648 50.30255,-76.858 -2.69618,-74.95152 v 0 c -15.31777,0.56183 -30.65011,1.13596 -45.87692,3.03708 -5.16788,0.69162 -10.34395,1.32461 -15.50365,2.07485 -16.23961,2.36128 -32.34788,5.51926 -48.56647,8.00064 -52.89884,3.77 -47.56725,78.58025 5.33159,74.81025 z"/>
<path d="m 96.980336,629.55431 c 3.391414,21.1222 2.88871,42.61178 2.48391,63.91809 -1.1406,26.87464 -4.27841,53.6383 -8.97666,80.11651 -2.32561,13.10658 -3.9073,19.999 -6.6364,32.76546 -11.060056,51.8669 62.290814,67.50818 73.350874,15.64129 v 0 c 3.04724,-14.32273 4.72203,-21.61737 7.31668,-36.39055 5.27121,-30.01281 8.74706,-60.35019 9.9338,-90.80743 0.46593,-28.21198 1.02699,-56.8755 -5.01541,-84.60866 -13.69333,-51.23468 -86.150114,-31.86939 -72.456794,19.36529 z"/>
<path d="m 134.24701,875.02024 c -0.0591,0.23106 -0.38484,0.81076 -0.17733,0.6932 1.45012,-0.82156 2.69462,-1.96322 4.07295,-2.90025 3.09445,-2.10369 6.19631,-4.19776 9.34398,-6.22094 4.89109,-3.14376 9.81513,-6.23684 14.7703,-9.27859 20.74129,-12.73212 20.60878,-12.39584 42.87102,-25.06001 35.49416,-19.36342 71.81074,-37.28675 109.35286,-52.35027 21.07635,-8.45675 31.51636,-11.83075 52.83491,-19.27005 50.06271,-17.49929 25.31497,-88.29865 -24.74774,-70.79936 v 0 c -23.34334,8.1724 -34.12232,11.6505 -57.27056,20.98011 -40.25421,16.22397 -79.22618,35.44122 -117.28307,56.2661 -22.88878,13.04695 -24.38643,13.62427 -45.72582,26.77068 -13.45974,8.29205 -28.442864,17.22323 -40.263074,27.8589 -2.476354,2.22819 -4.619928,4.80051 -6.929892,7.20077 -32.604487,41.8264 26.546976,87.9361 59.151466,46.10971 z"/>
<path d="m 525.32211,263.81184 c 5.15336,20.80067 8.2681,42.02562 9.84673,63.39117 0.60865,8.23761 0.88645,16.49632 1.32968,24.74447 0.0166,9.28996 0.22661,18.58159 0.0497,27.86988 -0.20007,10.5032 -0.65303,21.00135 -1.18045,31.49322 -1.2018,23.90679 -2.78254,46.92242 -5.69191,70.70684 -3.69168,30.17984 -6.81914,44.74937 -12.30881,74.80558 -7.05195,38.2907 -17.49385,75.81342 -28.66275,113.0692 -7.32033,24.41823 -13.65228,44.91347 -22.37502,68.77769 -3.64619,9.97546 -7.72003,19.78937 -11.58004,29.68406 -3.58275,8.43929 -7.1655,16.87859 -10.74825,25.31789 -20.69428,48.82875 48.36,78.09488 69.05428,29.26613 v 0 c 3.86401,-9.13154 7.72801,-18.26308 11.59202,-27.39462 4.20952,-10.85032 8.64562,-21.61544 12.62856,-32.55097 9.01065,-24.73959 15.89508,-46.90625 23.44613,-72.16086 11.87894,-39.72938 22.9158,-79.75828 30.43309,-120.57993 6.02754,-33.23263 9.12078,-47.46941 13.16642,-80.95198 3.00878,-24.90133 4.77376,-50.2021 5.9963,-75.25142 0.56092,-11.49322 1.04467,-22.99338 1.22996,-34.49879 0.17034,-10.57776 -0.10886,-21.15797 -0.16329,-31.73695 -0.52847,-9.34936 -0.86349,-18.71167 -1.5854,-28.04809 -1.8731,-24.2247 -5.43433,-48.30877 -11.1961,-71.91872 -11.28981,-51.81738 -84.57064,-35.85117 -73.28083,15.9662 z"/>
<path d="m 436.2182,486.63388 c 17.48863,4.43543 34.39678,10.82088 51.21163,17.29002 14.19184,5.97901 7.37186,2.95693 20.47999,9.02085 48.1781,22.16689 79.52681,-45.96723 31.34871,-68.13412 v 0 c -16.14146,-7.39427 -7.83307,-3.74835 -24.94109,-10.90142 -19.89406,-7.62747 -39.92083,-15.08455 -60.63332,-20.21326 -51.5749,-12.35027 -69.04083,60.58766 -17.46592,72.93793 z"/>
<path d="m 437.09986,697.11158 c 37.36382,-25.72939 75.64558,-50.0825 113.55612,-74.99073 28.2188,-18.57179 56.91406,-36.39907 85.40747,-54.54321 44.73302,-28.48608 4.44761,-91.74812 -40.28541,-63.26204 v 0 c -28.79391,18.33656 -57.79239,36.35223 -86.30639,55.12471 -38.14774,25.06598 -76.6691,49.57332 -114.26773,75.46412 -43.9871,29.6249 -2.09116,91.83206 41.89594,62.20715 z"/>
<path d="m 805.72578,333.12471 c -17.85573,12.98547 -36.23418,25.19453 -54.71551,37.26375 -19.1811,12.23707 -37.98183,25.04819 -56.67324,38.01546 -43.57121,30.23325 -0.81493,91.85225 42.75628,61.61899 v 0 c 18.11474,-12.57186 36.33748,-24.98934 54.9333,-36.84385 14.46086,-9.44862 28.85321,-18.93655 42.97404,-28.88831 2.78926,-1.96575 13.63357,-9.64966 16.88847,-12.16549 1.74127,-1.34589 3.3807,-2.81863 5.07105,-4.22795 38.73007,-36.22818 -12.50431,-91.00078 -51.23439,-54.7726 z"/>
<path d="m 678.01345,560.33122 c 13.99717,4.86909 27.10531,11.74724 40.08365,18.8146 20.81843,11.53851 40.96962,24.21938 61.00277,37.05715 2.1564,1.38682 4.3128,2.77364 6.46921,4.16045 44.60515,28.68589 85.17312,-34.39532 40.56797,-63.08121 v 0 c -2.19189,-1.4096 -4.38378,-2.8192 -6.57567,-4.22879 -21.57452,-13.82126 -43.28951,-27.452 -65.72571,-39.84511 -17.80306,-9.61234 -35.89805,-18.90304 -55.26089,-25.00359 -51.00114,-14.53906 -71.56246,57.58744 -20.56133,72.1265 z"/>
<path d="m 636.77944,176.78672 c -1.22736,17.58028 -2.97289,35.11864 -4.39957,52.68381 -3.01149,37.00648 -4.20041,74.11314 -4.5651,111.22878 -0.24667,40.20266 1.26174,80.38039 2.52424,120.55462 1.33812,40.23065 1.04774,80.47151 -0.23854,120.69529 -1.27955,38.08449 -3.49771,76.12793 -4.95542,114.20458 -0.83556,27.60996 -1.04365,55.33753 1.76808,82.85438 0.49066,4.80187 1.18774,9.58039 1.78161,14.37059 3.51158,20.62667 7.54363,41.98493 18.24326,60.31728 2.33336,3.99789 5.18797,7.66784 7.78196,11.50177 3.19657,3.42516 6.12777,7.11878 9.58971,10.27548 11.13898,10.15686 24.49342,16.8353 38.86134,21.10721 11.96294,3.55685 17.92546,3.9045 30.32012,5.63704 32.1617,3.0751 64.50446,1.76275 96.73191,0.76432 23.2912,-0.88577 46.60084,-1.09343 69.89447,-1.87395 7.97407,-0.43544 16.00865,-0.45363 23.95125,-1.38567 1.83144,-0.21491 3.68704,-0.3375 5.47624,-0.78374 3.53466,-0.88157 6.96875,-2.1261 10.45313,-3.18916 5.45151,-4.18974 11.89135,-7.33923 16.35455,-12.56923 10.76995,-12.62028 11.86493,-30.73502 12.22781,-46.35024 0.33226,-14.29775 -0.40593,-24.08525 -1.08337,-38.60586 -2.25125,-31.63742 -1.01,-15.51208 -3.74642,-48.37429 -4.40617,-52.84965 -79.14687,-46.61837 -74.74069,6.23128 v 0 c 2.62133,31.40139 1.44065,16.15447 3.57334,45.73831 0.77906,15.72375 1.0641,17.11544 1.07454,31.60406 0.002,2.59348 -0.29385,5.18815 -0.1688,7.77861 0.0148,0.30649 0.37792,0.94768 0.57884,0.71577 12.48054,-14.40512 -3.82563,-1.65941 17.93716,-15.74851 1.91836,-0.43302 3.83223,-0.88648 5.75509,-1.29907 0.14637,-0.0314 -0.2732,0.13531 -0.42164,0.15466 -0.92648,0.12074 -1.85888,0.19296 -2.79049,0.26395 -5.64347,0.43001 -11.30258,0.65708 -16.95751,0.86171 -23.22552,0.78815 -46.46842,0.97049 -69.69146,1.86738 -28.21048,0.87514 -56.50567,2.09309 -84.68468,-0.16738 -7.32637,-0.84594 -13.78527,-1.66208 -20.88549,-3.57483 -2.06636,-0.55666 -3.1144,-0.81215 -4.95112,-1.80024 -0.64356,-0.34622 -1.23254,-0.78548 -1.84881,-1.17821 -0.63099,-0.63316 -1.36969,-1.17476 -1.89296,-1.89948 -2.02078,-2.79873 -3.42096,-6.3413 -4.52108,-9.53838 -2.88837,-8.39397 -4.56614,-17.15104 -6.01232,-25.88625 -0.48203,-3.72127 -1.05135,-7.43228 -1.44611,-11.16382 -2.59187,-24.50061 -2.27324,-49.20612 -1.5661,-73.79315 1.45669,-38.23546 3.70404,-76.4367 4.97208,-114.6805 1.32513,-41.8043 1.63175,-83.62664 0.23951,-125.43767 -1.23048,-39.14823 -2.71382,-78.29948 -2.49072,-117.47541 0.33395,-35.33345 1.46294,-70.65799 4.32303,-105.88792 1.58608,-19.57783 3.73987,-39.12368 4.64513,-58.74792 0,-53.03301 -75,-53.03301 -75,0 z"/>
</svg>
