<?xml version="1.0" ?>
<svg xmlns="http://www.w3.org/2000/svg" width="1000" height="1000">
<path d="m 86.927786,215.37155 c 0.694881,23.74966 3.944909,47.39284 8.488855,70.69431 1.553691,7.96737 3.385469,15.87798 5.078199,23.81697 5.18425,22.84756 10.81903,45.59422 15.57928,68.53712 3.18185,15.3355 4.01774,20.68207 6.64155,35.57512 9.22243,52.22496 83.07968,39.18247 73.85725,-13.0425 v 0 c -2.89803,-16.37566 -3.71387,-21.63792 -7.22284,-38.52117 -4.749,-22.8496 -10.32602,-45.51338 -15.51995,-68.26278 -1.51871,-7.04823 -3.15573,-14.072 -4.55614,-21.14469 -3.76415,-19.01066 -6.51873,-38.27672 -7.3462,-57.65238 0,-53.03301 -75.000004,-53.03301 -75.000004,0 z"/>
<path d="m 223.38705,239.4469 c 20.39121,-6.54324 41.29546,-11.18056 62.2611,-15.43347 19.46105,-3.50404 39.07186,-6.40523 58.83494,-7.46254 9.47902,-0.50713 11.32376,-0.35372 20.33012,-0.25121 5.11239,0.30238 10.32045,0.43343 15.31813,1.69477 0.45008,0.1136 1.23007,0.0192 1.30845,0.47671 0.0716,0.41821 -0.86089,-0.041 -1.25896,-0.18784 -1.29551,-0.47792 -2.52605,-1.11627 -3.78907,-1.6744 -7.8406,-6.29301 -7.60252,-4.89489 -12.74452,-14.75764 -0.83006,-1.5921 -0.71946,-3.58145 -1.61111,-5.13989 -0.30926,-0.54051 -0.21544,1.22811 -0.27219,1.84825 -0.20869,2.28059 -0.32862,4.56857 -0.5238,6.85035 -0.31819,3.71991 -0.6775,7.43619 -1.01626,11.15429 -3.63171,39.02535 -9.56183,77.80917 -16.52332,116.36611 -6.00006,25.00474 -2.35027,13.1355 -10.66694,35.69335 -17.71944,49.98522 52.97032,75.04429 70.68976,25.05908 v 0 c 10.91814,-31.65802 6.3695,-15.82266 13.79063,-47.46428 1.38831,-7.73272 2.86754,-15.44967 4.16492,-23.19816 5.53613,-33.0639 10.05506,-66.32759 13.24001,-99.69974 1.18572,-13.19334 4.10375,-33.60015 -0.45918,-46.1794 -5.16475,-14.23837 -7.5675,-14.41165 -17.72754,-23.75926 -2.79793,-1.53744 -5.49376,-3.27741 -8.39379,-4.61233 -13.34122,-6.1411 -28.57438,-6.64179 -42.94508,-7.46772 -11.76811,-0.0591 -14.28457,-0.2431 -26.46335,0.45482 -22.92491,1.31373 -45.68433,4.62729 -68.254,8.76631 -23.15905,4.73623 -46.25619,9.87011 -68.79584,17.07362 -50.80578,15.20767 -29.29889,87.05789 21.50689,71.85022 z"/>
<path d="m 178.24894,426.84579 c 24.67386,-5.87486 49.52028,-10.96125 74.4498,-15.61563 25.23854,-4.67435 50.76823,-7.25023 76.32195,-9.38236 52.84712,-4.43638 46.57314,-79.1735 -6.27399,-74.73712 v 0 c -28.07227,2.36967 -56.11557,5.24617 -83.83989,10.39851 -25.74299,4.82521 -51.41156,10.04171 -76.89306,16.11489 -51.77557,11.48001 -35.54038,84.70172 16.23519,73.22171 z"/>
<path d="m 226.7906,426.57886 c -0.0936,-0.0153 -0.28758,-0.14033 -0.28069,-0.0458 0.14268,1.95626 0.50274,3.89101 0.70344,5.84217 0.92886,9.03017 1.64472,18.07136 2.22193,27.13184 1.21735,19.10894 1.35685,25.56879 2.16848,45.4523 1.80871,53.55423 0.19294,107.13934 -1.05574,160.68625 -0.58764,25.47354 -0.3123,13.35857 -0.82834,36.34487 -1.19025,53.01965 73.79086,54.70292 74.98111,1.68327 v 0 c 0.51483,-22.93365 0.24,-10.84038 0.82685,-36.27974 1.28602,-55.15349 2.9201,-110.34653 1.01318,-165.50661 -0.85415,-20.75123 -1.01646,-27.89842 -2.31192,-47.94046 -0.90167,-13.94971 -1.71092,-28.76928 -4.26384,-42.55793 -0.53488,-2.88892 -1.35942,-5.71663 -2.03912,-8.57494 -16.80422,-50.30028 -87.93956,-26.53552 -71.13534,23.76476 z"/>
<path d="m 306.02577,592.67048 c 16.79745,-3.91354 34.09143,-5.32303 51.23513,-6.84843 18.64249,-1.54716 37.29899,-0.36612 55.84339,1.64837 52.73195,5.64278 60.71206,-68.93146 7.9801,-74.57425 v 0 c -23.42449,-2.47597 -46.99208,-3.78686 -70.52234,-1.77435 -21.5261,1.94378 -43.2184,3.87195 -64.22921,9.18024 -51.1722,13.925 -31.47927,86.29342 19.69293,72.36842 z"/>
<path d="m 90.232483,606.98465 c 7.950927,20.9117 14.359907,42.48175 18.838397,64.41222 1.45341,7.11711 2.503,14.31076 3.75451,21.46614 3.41145,22.69094 4.64251,45.61673 4.63643,68.54155 -0.002,6.58393 -0.25707,13.16535 -0.38561,19.74802 -0.96632,53.0242 74.02123,54.39078 74.98755,1.36658 v 0 c 0.12826,-7.50853 0.40793,-15.01599 0.38479,-22.52558 -0.0828,-26.85358 -1.66238,-53.70089 -5.78148,-80.26093 -1.54267,-8.55831 -2.85964,-17.16038 -4.62801,-25.67491 -5.21247,-25.09748 -12.61806,-49.76858 -21.70154,-73.72425 -18.84522,-49.57175 -88.950251,-22.92059 -70.105037,26.65116 z"/>
<path d="m 139.99491,868.47671 c 26.91961,-22.73611 58.70254,-39.43892 89.53228,-56.11874 42.63464,-22.0749 86.35449,-42.15048 131.53561,-58.46531 11.0636,-3.99505 22.28026,-7.55276 33.42039,-11.32915 50.21197,-17.06629 26.07658,-88.07674 -24.13539,-71.01044 v 0 c -12.05435,4.10708 -24.19201,7.97735 -36.16307,12.32124 -48.21834,17.49677 -94.90924,38.92425 -140.40881,62.55303 -10.06216,5.46754 -20.22775,10.74889 -30.18648,16.40262 -15.54254,8.82373 -31.50022,18.67576 -46.29903,28.7943 -10.04447,6.86781 -17.867893,12.64901 -26.794901,20.55251 -2.163208,1.91519 -4.127794,4.04365 -6.19169,6.06547 -35.521136,39.37955 20.169961,89.61402 55.691091,50.23447 z"/>
<path d="m 489.70771,312.93563 c 24.40994,-5.84094 48.32309,-13.56261 72.65017,-19.72021 7.79113,-1.97208 15.64001,-3.70851 23.46002,-5.56276 32.201,-7.05687 64.73907,-12.66495 97.47122,-16.60483 15.09572,-1.81704 20.80474,-2.17351 35.43597,-3.3985 16.80323,-1.0805 8.87431,-0.64318 23.78416,-1.35852 52.97086,-2.56673 49.34095,-77.47884 -3.62991,-74.91211 v 0 c -16.61544,0.81222 -7.79626,0.31717 -26.45465,1.53574 -16.27282,1.3804 -22.22607,1.75053 -39.02981,3.78889 -35.24123,4.27491 -70.27247,10.33784 -104.93535,17.98573 -8.57044,2.04511 -17.17047,3.96994 -25.7113,6.13532 -23.20262,5.88264 -46.03015,13.17074 -69.27567,18.88953 -51.77558,11.47999 -35.54043,84.70171 16.23515,73.22172 z"/>
<path d="m 553.54068,435.49308 c 25.08717,-8.04949 50.75236,-14.14303 76.39326,-20.12718 17.52528,-3.96738 35.15541,-7.50536 52.95492,-10.00774 11.47485,-1.61322 15.24864,-1.82885 26.27317,-2.82104 52.81215,-4.835 45.97442,-79.52265 -6.83772,-74.68765 v 0 c -13.21536,1.22702 -17.4418,1.47089 -31.16463,3.43152 -19.5874,2.79853 -38.99814,6.67519 -58.28865,11.05165 -28.38051,6.63726 -56.79789,13.39773 -84.50564,22.51198 -49.95601,17.80162 -24.78072,88.45008 25.17529,70.64846 z"/>
<path d="m 475.02678,631.34545 c 23.62026,-12.40973 47.71609,-23.88515 72.35409,-34.13876 9.07428,-3.77645 18.24542,-7.31583 27.36813,-10.97374 40.48608,-15.40622 81.44209,-29.69534 123.27916,-41.00749 25.69044,-6.94633 31.17513,-7.81733 56.56508,-13.32948 25.44451,-4.87184 51.20114,-8.83894 77.14804,-9.41848 3.23926,-0.0723 6.48004,0.0362 9.72006,0.0543 53.03296,0.0694 53.1311,-74.93055 0.0981,-74.99994 v 0 c -4.41657,0.008 -8.83486,-0.0992 -13.24971,0.0242 -30.16153,0.84296 -60.11185,5.27667 -89.68434,11.05947 -27.50479,6.01349 -33.59941,6.99954 -61.34772,14.53763 -44.27217,12.02696 -87.63583,27.1257 -130.47585,43.48127 -9.76937,3.92816 -19.59105,7.72864 -29.30809,11.78448 -25.49862,10.643 -50.49844,22.44871 -74.94411,35.32304 -47.80291,22.96479 -15.32579,90.56832 32.47713,67.60352 z"/>
<path d="m 544.23429,150.26044 c 6.38326,27.2475 12.53853,54.5505 18.52005,81.88932 14.56706,70.62048 31.41915,140.74049 48.86449,210.69653 3.6146,13.62673 7.10096,27.28813 10.84378,40.88021 8.34653,30.31044 14.74043,51.73824 24.32602,81.68523 12.36947,38.64428 25.77865,76.94447 39.21121,115.22748 15.74565,43.53768 31.88728,86.96539 50.12357,129.53366 9.46316,22.08951 12.46497,28.10326 22.34327,49.26084 10.64937,22.05009 22.0138,43.85923 35.85912,64.1022 5.75303,8.41139 7.33603,10.10519 13.41002,17.64954 3.22094,3.54146 7.41553,8.468 11.23463,11.5073 11.05335,8.79643 22.84452,15.01989 39.34649,9.8653 24.55025,-7.66856 26.67259,-22.44665 34.11516,-41.28822 10.44091,-37.95644 20.97004,-75.88823 31.37287,-113.85512 14.01406,-51.14788 -58.31997,-70.96676 -72.33403,-19.81888 v 0 c -10.00963,36.53351 -20.24624,73.0049 -30.06669,109.58987 -0.60118,12.92928 -0.84651,-4.70889 19.74542,-7.63644 8.48481,-1.20629 16.95539,2.73032 25.21959,4.9997 1.37751,0.37827 2.18595,1.84134 3.2327,2.81341 1.24402,1.15527 -9.48955,-7.67702 -3.68969,-3.51085 -16.46457,-19.88912 -28.23676,-43.06894 -39.49779,-66.16835 -9.26749,-19.81543 -12.17384,-25.63973 -21.05531,-46.34448 -17.69339,-41.24731 -33.31614,-83.34435 -48.59031,-125.53384 -26.73789,-76.18325 -52.98114,-152.65629 -72.37937,-231.10881 -17.27557,-69.25212 -33.95273,-138.66923 -48.36935,-208.5813 -6.3649,-29.07305 -12.79197,-58.14763 -19.84626,-87.0603 -14.99491,-50.868978 -86.9345,-29.662975 -71.93959,21.206 z"/>
<path d="m 752.3191,575.31968 c 0.0277,-0.72168 0.53427,-2.72897 0.0831,-2.16506 -1.26887,1.58578 -1.7693,3.65714 -2.71506,5.45442 -4.58513,8.71338 -8.55774,15.93924 -14.17797,24.26614 -11.33557,16.79472 -15.68059,21.13883 -29.24398,37.52635 -31.48189,35.72427 -64.72742,70.14219 -101.89924,100.03242 -25.57458,20.56478 -34.04225,25.2191 -61.28343,43.14912 -10.22618,6.15434 -20.45235,12.30867 -30.67853,18.46301 -45.4143,27.38688 -6.6834,91.6124 38.7309,64.22551 v 0 c 11.10148,-6.70721 22.20296,-13.41442 33.30444,-20.12163 31.03228,-20.58994 39.73182,-25.32061 68.89397,-48.90757 40.4127,-32.68664 76.65971,-70.17971 110.86269,-109.20661 6.62083,-8.09643 13.49869,-15.9893 19.86248,-24.28928 10.42758,-13.60018 17.79904,-24.81954 26.1632,-39.41772 3.56851,-6.22822 10.10809,-18.74696 12.79761,-25.911 1.39023,-3.70311 2.25204,-7.58363 3.37806,-11.37544 8.28917,-52.38119 -65.78903,-64.10385 -74.0782,-11.72266 z"/>
<path d="m 775.76371,145.13881 c 18.33572,7.81317 36.81373,15.35853 54.64201,24.29794 5.02836,2.5213 9.96617,5.2193 14.94925,7.82896 5.56949,3.02538 11.13897,6.05077 16.70846,9.07615 46.60805,25.30197 82.39044,-40.61177 35.78239,-65.91374 v 0 c -5.92975,-3.21716 -11.85949,-6.43433 -17.78923,-9.65149 -5.77815,-3.00679 -11.50568,-6.11292 -17.33444,-9.02037 -18.99861,-9.476726 -38.63756,-17.575456 -58.16724,-25.871091 -48.96972,-20.35845 -77.76092,48.895191 -28.7912,69.253641 z"/>
</svg>
