<?xml version="1.0" ?>
<svg xmlns="http://www.w3.org/2000/svg" viewBox="0 0 1000 1000">
<path d="m 99.573352,222.23372 c 5.242368,24.36809 8.164938,49.15015 12.498828,73.68128 1.48677,8.41554 3.16699,16.79576 4.75048,25.19364 9.16275,43.55476 21.92404,86.22242 32.97031,129.31321 13.17373,51.37074 85.82293,32.74027 72.6492,-18.63047 v 0 c -10.65518,-41.53489 -22.90134,-82.67433 -31.92444,-124.61242 -1.47661,-7.79165 -3.04853,-15.56585 -4.42985,-23.37497 -4.61313,-26.07975 -7.69332,-52.43669 -13.40829,-78.31774 -11.84225,-51.69392 -84.948489,-34.94645 -73.106238,16.74747 z"/>
<path d="m 250.93145,236.65999 c 18.55373,-8.02855 38.1351,-13.22951 57.69566,-18.12483 23.18369,-4.90687 46.81939,-8.18691 70.54933,-7.94818 4.10277,0.18755 8.25618,0.23638 12.30852,1.00043 0.28523,0.0538 1.09784,0.11896 0.83589,0.24398 -0.31615,0.15087 -0.70515,-0.0456 -1.04069,-0.14625 -1.29068,-0.38706 -2.54895,-0.87498 -3.82343,-1.31247 -13.02384,-9.12576 -9.73073,-4.77638 -18.01335,-19.43166 -0.53782,-0.95163 -0.48864,-4.03771 -1.05727,-3.10416 -0.8203,1.34677 0.05,3.15347 0.0668,4.7303 0.13689,12.83894 0.0922,9.01583 0.0421,23.85774 -0.66072,35.68302 -0.48977,71.5299 -4.41846,107.05633 -0.85915,7.76906 -2.15468,15.48364 -3.23202,23.22546 -4.92274,28.85607 -12.98302,57.03031 -20.48382,85.28555 -13.6069,51.2577 58.88244,70.50077 72.48934,19.24307 v 0 c 8.29258,-31.23902 17.12626,-62.41078 22.30277,-94.36609 1.22457,-9.08967 2.68412,-18.15076 3.6737,-27.26901 4.06826,-37.48626 4.01619,-75.29115 4.66812,-112.93933 0.0239,-8.14221 0.12096,-18.16502 -0.0791,-26.46125 -0.133,-5.51547 -0.36732,-16.2961 -2.27985,-21.28615 -6.79894,-17.73938 -7.85331,-15.79288 -21.57508,-26.32236 -2.34563,-0.94483 -4.64459,-2.01501 -7.0369,-2.83449 -10.56102,-3.61763 -22.05601,-3.59878 -33.05108,-4.16906 -3.61371,4.1e-4 -7.22856,-0.0899 -10.84112,0.001 -26.35709,0.66468 -52.57705,4.68489 -78.31174,10.21508 -22.44795,5.67831 -44.92368,11.69284 -66.25928,20.83504 -49.51238,19.00064 -22.64141,89.02172 26.87096,70.02108 z"/>
<path d="m 207.88632,455.53518 c 26.88061,-5.84054 53.80522,-11.43499 80.8722,-16.34487 18.52608,-3.07062 37.20292,-5.19499 55.96068,-6.12482 4.69818,-0.2329 9.40412,-0.26691 14.10618,-0.40037 53.00859,-1.60929 50.7327,-76.57475 -2.27588,-74.96546 v 0 c -5.66487,0.18128 -11.33474,0.24458 -16.9946,0.54384 -21.52221,1.13796 -42.95371,3.59511 -64.20821,7.15573 -27.73403,5.05 -55.33379,10.74044 -82.87795,16.73773 -51.90038,10.90188 -36.4828,84.30009 15.41758,73.39822 z"/>
<path d="m 241.90307,450.98908 c -1.31178,30.022 -1.00231,60.0984 -0.95441,90.14246 0.24133,54.95897 -0.25481,109.91732 -0.53807,164.87519 -0.13199,25.81088 -0.20698,51.62198 -0.27643,77.43309 -0.14269,53.03281 74.85704,53.2346 74.99972,0.20178 v 0 c 0.0693,-25.74952 0.14406,-51.49904 0.27572,-77.24834 0.2841,-55.12675 0.78095,-110.25397 0.53896,-165.38183 -0.0457,-28.39083 -0.32793,-56.80963 0.79822,-85.18294 3.42197,-52.92249 -71.42173,-57.7619 -74.84371,-4.83941 z"/>
<path d="m 290.09247,664.06598 c 18.49087,-3.3669 37.20661,-5.12439 55.89506,-6.95785 17.18897,-1.78497 34.46276,-2.00152 51.72331,-1.88559 53.03215,0.30283 53.46042,-74.69594 0.42828,-74.99878 v 0 c -19.84993,-0.0962 -39.71341,0.19644 -59.47999,2.24326 -20.04219,1.96923 -40.11096,3.88909 -59.94601,7.46725 -52.41903,8.04641 -41.03969,82.17812 11.37935,74.13171 z"/>
<path d="m 115.8382,654.74727 c 1.34043,28.51945 0.78005,57.09574 0.57271,85.63492 -0.31776,37.93801 -0.51402,75.87684 -0.67626,113.81578 -0.22675,53.03253 74.77256,53.35321 74.99931,0.32069 v 0 c 0.16189,-37.86437 0.35776,-75.72862 0.67497,-113.59206 0.22082,-30.44462 0.81302,-60.93188 -0.74925,-91.35097 -3.6569,-52.90678 -78.47838,-47.73514 -74.82148,5.17164 z"/>
<path d="m 137.71271,936.1518 c 1.61019,-1.07106 3.23892,-2.11475 4.83056,-3.21318 7.4885,-5.16797 14.83742,-10.53607 22.31784,-15.71572 20.27118,-14.03633 40.85885,-27.59866 61.45112,-41.15606 27.74316,-18.32596 56.65226,-34.77369 85.70841,-50.89808 19.98025,-11.08781 39.00566,-21.598 59.5361,-31.62341 9.56836,-4.67242 19.33037,-8.93738 28.99555,-13.40608 48.11497,-22.30357 16.57296,-90.34842 -31.54201,-68.04484 v 0 c -10.5861,4.91874 -21.27408,9.62391 -31.75831,14.75622 -21.19367,10.37486 -41.35873,21.48381 -61.97865,32.93742 -30.58503,16.98887 -60.99542,34.34928 -90.20697,53.6387 -21.25481,13.99718 -42.496,28.00855 -63.42048,42.49815 -6.92325,4.79415 -13.71214,9.78058 -20.64071,14.56704 -1.591172,1.09923 -3.220482,2.14219 -4.830722,3.21329 -44.156378,29.372 -2.618098,91.81855 41.538272,62.44655 z"/>
<path d="m 637.06912,116.69964 c 5.81449,24.14731 7.25385,49.16728 9.14928,73.85005 3.71722,53.95412 2.98937,108.12518 -1.0744,162.03494 -0.80989,10.74391 -1.90785,21.46416 -2.86177,32.19625 -4.38971,41.97771 -11.67716,83.63002 -21.59699,124.64572 7.78921,-14.33706 -4.87581,13.9497 -3.70671,10.44512 2.39646,-7.18377 5.14262,-10.50755 13.22837,-14.59201 13.33116,-2.92823 9.02766,-0.41802 14.41826,-3.93768 -1.7896,-1.74547 -3.68931,-3.38474 -5.3688,-5.23639 -6.43533,-7.09505 -12.64159,-15.50462 -18.17625,-23.1695 -9.02023,-12.49201 -14.66919,-20.86509 -22.85124,-33.92587 -3.31774,-5.29602 -6.4662,-10.69623 -9.69929,-16.04435 -27.47928,-45.35845 -91.62582,-6.49689 -64.14655,38.86157 v 0 c 3.64189,6.00002 7.18649,12.06018 10.92566,18.00006 8.43193,13.39461 16.65198,25.7073 26.03445,38.45717 9.12802,12.40411 18.71246,25.09253 30.09124,35.59685 5.13416,4.7396 11.02035,8.59334 16.53053,12.89001 17.96209,8.17635 25.50731,15.05301 47.07055,9.27919 15.70952,-4.20642 23.71323,-14.04868 31.01559,-26.95599 3.27458,-5.788 5.73654,-15.77353 7.54579,-22.09266 10.72775,-44.63438 18.71645,-89.92924 23.3935,-135.61076 1.00309,-11.38505 2.1593,-22.75765 3.00927,-34.15517 4.27977,-57.3885 4.97834,-115.05275 0.99456,-172.48173 -2.40244,-30.74122 -4.26009,-62.02807 -12.78973,-91.819625 -16.80426,-50.300268 -87.93958,-26.53546 -71.13532,23.764805 z"/>
<path d="m 498.41092,315.8892 c 13.87212,-4.18993 27.94239,-7.63492 42.02887,-11.01296 11.36866,-2.23585 22.54937,-6.08444 34.13535,-7.12517 0.27569,0.0164 1.1022,0.0249 0.82709,0.0492 -10.58608,0.93529 -19.75491,-5.25109 -26.52941,-12.9906 -4.28124,-4.89108 -5.04459,-9.44517 -6.30412,-14.91864 -3.81126,18.53474 -10.5285,36.31858 -18.40027,53.4883 -3.08035,6.71878 -6.49236,13.2805 -9.73854,19.92076 -17.1815,33.06761 -37.25179,64.57359 -58.62207,95.07483 -9.12807,13.02825 -22.70594,31.26282 -32.23854,44.17564 -4.58106,6.18237 -9.16212,12.36473 -13.74317,18.5471 -31.57338,42.61011 28.68642,87.26161 60.2598,44.6515 v 0 c 4.60882,-6.21991 9.21764,-12.43982 13.82646,-18.65973 10.57653,-14.33204 23.79978,-32.07515 33.9207,-46.54973 23.41542,-33.48794 45.33462,-68.11774 64.05719,-104.46617 3.80263,-7.86891 7.8044,-15.64466 11.4079,-23.60674 11.40231,-25.19391 21.02576,-51.66117 24.19744,-79.26513 -0.35128,-12.08178 0.89547,-20.16532 -7.06209,-31.23217 -11.56822,-16.08833 -26.13501,-20.18611 -44.27121,-18.74511 -14.61841,1.773 -28.91099,5.30692 -43.21885,8.7212 -15.83462,3.80023 -31.64454,7.70892 -47.22662,12.45949 -50.5469,16.04715 -27.85281,87.53126 22.69409,71.48411 z"/>
<path d="m 819.24627,158.3944 c -15.56623,23.91466 -36.38815,43.64217 -56.9139,63.20345 -16.48419,14.98556 -33.36218,29.52689 -50.2169,44.09111 -40.12625,34.67541 8.91219,91.4225 49.03844,56.74709 v 0 c 17.79808,-15.3813 35.6247,-30.73465 52.98804,-46.60935 6.11863,-5.85857 12.34985,-11.60177 18.35588,-17.57571 18.85226,-18.75154 36.72124,-38.71041 51.02226,-61.2059 27.33017,-45.44845 -36.94365,-84.09915 -64.27382,-38.65069 z"/>
<path d="m 654.747,327.17687 c 1.16102,1.09863 2.2958,2.22568 3.48304,3.29591 4.68472,4.22302 7.6613,6.60422 12.56275,10.7845 9.76723,8.33015 19.43082,16.75852 29.00266,25.31248 25.48759,23.3158 48.84005,48.76578 71.81719,74.51247 17.13686,19.05641 33.90819,38.4523 51.69594,56.90963 9.77666,9.50083 19.8189,18.84699 30.92617,26.79947 8.01577,5.73905 12.18993,8.06889 20.59085,13.18659 7.16409,4.2515 14.54567,8.79099 22.00379,12.48324 5.26253,2.6053 10.68402,4.87634 16.02603,7.31451 48.37942,21.724 79.10178,-46.69483 30.72236,-68.41883 v 0 c -3.6426,-1.59622 -7.35129,-3.04941 -10.9278,-4.78866 -6.32727,-3.07695 -12.92562,-7.15644 -18.97083,-10.74165 -4.47371,-2.6885 -9.70332,-5.71153 -14.03696,-8.72745 -8.0824,-5.6248 -15.25427,-12.45007 -22.38105,-19.20444 -17.14538,-17.71422 -33.16231,-36.47682 -49.69561,-54.75513 -24.86604,-27.85382 -50.1941,-55.33716 -77.81755,-80.51387 -13.85442,-12.36101 -27.98274,-24.4033 -42.02721,-36.54097 -37.54185,-37.4581 -90.51561,15.63409 -52.97377,53.0922 z"/>
<path d="m 457.91917,593.19818 c 1.26557,28.76165 2.30118,57.53004 3.76363,86.28426 0.56718,8.64956 1.07331,17.30334 1.70153,25.94868 1.41344,19.4515 2.71603,34.64693 4.819,54.04955 2.60247,24.01116 5.99337,47.90812 9.43798,71.8086 2.21537,15.03315 4.65902,30.03087 7.09813,45.02881 8.51359,52.34519 82.54087,40.30515 74.02727,-12.04004 v 0 c -2.36721,-14.55331 -4.74056,-29.10611 -6.89323,-43.6932 -3.28931,-22.79755 -6.54062,-45.59125 -9.03506,-68.49352 -2.02866,-18.62592 -3.25129,-32.88454 -4.61559,-51.57936 -0.60405,-8.27721 -1.09139,-16.56253 -1.63708,-24.8438 -1.51198,-29.6539 -2.47111,-59.32871 -3.94979,-88.9816 -4.60442,-52.83275 -79.32121,-46.32112 -74.71679,6.51162 z"/>
<path d="m 580.82336,629.34363 c 23.39683,-5.97245 47.40442,-8.86961 71.37298,-11.3668 28.33621,-2.78409 56.82419,-1.88233 85.14484,0.46449 11.52704,1.02234 22.94406,2.8621 34.28174,5.13531 0.80984,0.16237 1.61968,0.32474 2.42952,0.48712 0.19848,0.0537 0.79761,0.19875 0.59545,0.16113 -3.94068,-0.73345 -9.24918,-3.59494 -11.33907,-5.1731 -7.15807,-5.40534 -7.95503,-7.54864 -11.28033,-13.47631 2.99487,25.60335 1.23415,51.45644 -0.24658,77.09524 -3.1875,39.04519 -6.09476,78.37791 -14.38354,116.75761 -1.43279,6.63426 -3.2578,13.17772 -4.88669,19.76658 -4.32223,16.03449 -10.03504,31.6231 -15.77452,47.18589 -18.3101,49.77188 52.07797,75.66628 70.38807,25.8944 v 0 c 6.68898,-18.22253 13.31176,-36.48759 18.24531,-55.28743 1.92062,-7.94581 4.06155,-15.84158 5.76185,-23.83743 8.82712,-41.51042 12.18052,-83.98321 15.52747,-126.20276 1.18672,-20.99021 2.37762,-41.92456 1.78726,-62.9601 -0.25311,-9.01871 -0.91521,-19.7953 -2.29514,-28.8275 -0.55228,-3.61484 -1.44857,-7.16868 -2.17286,-10.75302 -1.50745,-3.97603 -2.27541,-8.31803 -4.52234,-11.92808 -3.1183,-5.01005 -6.85538,-9.76452 -11.3554,-13.58211 -6.29665,-5.34176 -14.01124,-7.34416 -21.75836,-8.8614 -14.18153,-2.83451 -28.47287,-5.08076 -42.88867,-6.34448 -32.96899,-2.66575 -66.12367,-3.61709 -99.09822,-0.30313 -28.49835,3.01892 -57.05807,6.5767 -84.79573,14.0331 -50.85708,15.03518 -29.59413,86.95796 21.26296,71.92278 z"/>
<path d="m 536.71557,755.53351 c 14.77451,-2.82141 29.70921,-4.57918 44.65605,-6.1776 24.27989,-2.07343 48.70945,-3.18958 73.08622,-2.88245 4.6026,0.058 9.20164,0.28114 13.80246,0.42171 53.01081,1.53424 55.18055,-73.43436 2.16974,-74.9686 v 0 c -5.46162,-0.15066 -10.92152,-0.38854 -16.38485,-0.45197 -26.9205,-0.31256 -53.89349,0.95983 -80.70149,3.3122 -18.34553,1.98668 -36.71374,4.12638 -54.77985,7.97642 -51.45636,12.83521 -33.30464,85.6055 18.15172,72.77029 z"/>
<path d="m 541.80477,899.57921 c 16.41124,-4.1836 32.86535,-8.19057 49.53575,-11.22331 5.71566,-1.03981 11.45821,-1.92601 17.18731,-2.88901 42.96069,-6.1948 86.43872,-7.33566 129.76515,-8.50815 53.01346,-1.43998 50.97702,-76.41233 -2.03644,-74.97235 v 0 c -46.82978,1.27656 -93.81847,2.61238 -140.22576,9.529 -23.14831,3.93039 -46.26447,8.19755 -68.90297,14.51393 -52.00763,10.37818 -37.33067,83.92808 14.67696,73.54989 z"/>
</svg>
