<?xml version="1.0" ?>
<svg xmlns="http://www.w3.org/2000/svg" width="1000" height="1000">
<path d="m 57.148437,213.08183 c 0.895489,17.33076 2.002351,34.66405 4.366133,51.86824 0.918583,6.68567 2.096368,13.33316 3.144553,19.99974 7.24881,38.73359 14.675759,77.43295 21.837612,116.18311 3.291945,17.94288 1.750655,9.45154 4.633717,25.47224 9.393838,52.19441 83.207868,38.90952 73.814038,-13.28489 v 0 c -2.93437,-16.30233 -1.37184,-7.6957 -4.69682,-25.81819 -7.04755,-38.1311 -14.32607,-76.21785 -21.51777,-114.32171 -0.90557,-5.62936 -1.92344,-11.2418 -2.71672,-16.88808 -2.28178,-16.24098 -3.19357,-32.61417 -4.08664,-48.97546 -4.07646,-52.8761 -78.854569,-47.11111 -74.778103,5.765 z"/>
<path d="m 144.96628,259.72495 c 22.17378,-11.22267 46.63018,-16.95175 70.58687,-22.98527 26.56039,-5.92288 53.56991,-11.15883 80.85386,-12.02167 2.88169,-0.0911 5.76622,0.0187 8.64933,0.028 4.11456,0.28835 8.33177,0.41734 12.33519,1.5415 0.22612,0.0635 0.79735,0.11777 0.64084,0.29288 -0.17731,0.19838 -0.53616,-0.042 -0.78777,-0.12848 -0.87427,-0.30047 -1.71733,-0.68505 -2.576,-1.02757 -7.49576,-5.00509 -9.55686,-5.3608 -14.65357,-14.71982 -1.72567,-3.16885 -2.10058,-6.90501 -3.24647,-10.32649 -0.0322,-0.096 -0.25405,-0.25302 -0.26294,-0.15215 -0.19761,2.2429 -0.20631,4.49846 -0.31815,6.74728 -0.18212,3.6622 -0.3758,7.32381 -0.5637,10.98572 -1.50021,24.63229 -4.64043,49.16275 -9.11141,73.42976 -3.18532,17.28889 -5.47406,26.65118 -9.33565,43.77412 -4.23989,18.72143 -8.86042,37.3511 -13.5715,55.95807 -13.01093,51.41222 59.69692,69.81245 72.70785,18.40024 v 0 c 4.86969,-19.25098 9.65094,-38.52417 14.03402,-57.89327 4.28138,-19.06543 6.62451,-28.61654 10.15358,-47.96189 4.93629,-27.05932 8.37888,-54.4081 10.02474,-81.867 0.032,-0.62463 0.90729,-17.2728 0.95302,-19.55323 0.0588,-2.93003 0.42217,-5.89631 -0.0302,-8.79181 -0.7891,-5.05103 -1.51909,-10.25346 -3.66973,-14.89138 -5.40338,-11.65253 -9.08248,-12.89279 -18.15648,-19.49519 -1.98385,-0.93522 -3.92256,-1.97292 -5.95157,-2.80566 -12.27133,-5.03634 -25.81691,-5.92183 -38.89552,-6.5151 -4.30224,0.0363 -8.6074,-0.054 -12.90671,0.1089 -31.95439,1.21049 -63.59922,7.08785 -94.70125,14.17281 -30.86683,7.83306 -62.27691,15.6539 -90.37251,31.13728 -45.650376,26.99154 -7.478579,91.55092 38.1718,64.55939 z"/>
<path d="m 147.55308,422.04527 c 22.71843,-1.12395 45.3295,-3.74058 67.94115,-6.11802 26.80424,-2.85688 53.66913,-5.03775 80.6119,-5.91536 53.00362,-1.76508 50.50742,-76.72353 -2.4962,-74.95845 v 0 c -28.72728,0.97504 -57.3789,3.21216 -85.95886,6.28504 -21.55513,2.26679 -43.10824,4.78876 -64.76589,5.8522 -52.930196,3.30071 -48.262289,78.1553 4.6679,74.85459 z"/>
<path d="m 172.92355,413.83498 c 0.59909,29.63655 2.03732,59.25357 3.22396,88.87167 1.59128,43.73654 2.51243,87.52412 1.54652,131.28761 -0.18869,8.54911 -0.53919,17.09388 -0.80879,25.64082 -0.77902,21.24609 -2.07558,42.46561 -3.4531,63.67918 -3.43131,52.92188 71.41154,57.7745 74.84285,4.85261 v 0 c 1.42749,-22.04861 2.77329,-44.10331 3.57356,-66.18585 0.27976,-9.00754 0.64345,-18.01287 0.83928,-27.02262 0.97997,-45.08596 0.0433,-90.19618 -1.60044,-135.2542 -1.14659,-28.61824 -2.51289,-57.23505 -3.16384,-85.86922 0,-53.03301 -75,-53.03301 -75,0 z"/>
<path d="m 245.96523,610.05345 c 19.08273,-1.17698 38.16164,-1.87558 57.28183,-1.87246 14.12632,0.0823 28.24075,0.69242 42.34824,1.3736 52.97159,2.55165 56.58016,-72.36149 3.60857,-74.91313 v 0 c -15.32455,-0.73653 -30.65697,-1.38597 -46.00194,-1.46045 -19.09655,0.0244 -38.18739,0.42655 -57.2367,1.87244 -53.03301,0 -53.03301,75 0,75 z"/>
<path d="m 70.405095,620.02376 c 4.007262,26.90712 3.789081,54.2343 3.629214,81.36602 -0.29969,29.45055 -2.374492,58.82697 -4.84882,88.15968 -4.44191,52.84666 70.294551,59.12847 74.736461,6.28181 v 0 c 2.62141,-31.29271 4.81573,-62.63192 5.11133,-94.04914 0.14817,-32.01225 0.25584,-64.27208 -4.98361,-95.9526 -10.03683,-52.07458 -83.681412,-37.88035 -73.644575,14.19423 z"/>
<path d="m 66.827302,865.64036 c 3.095926,-0.93731 6.244204,-1.7165 9.287777,-2.81193 15.663824,-5.63766 30.502081,-13.6781 45.199281,-21.38211 8.45516,-4.43204 41.74541,-22.23291 48.86387,-26.03429 31.30633,-16.61039 62.88368,-32.70186 94.36883,-48.96893 11.12188,-5.7462 22.19421,-11.58931 33.36488,-17.24008 10.61954,-5.37199 21.33547,-10.55127 32.00321,-15.82691 47.53373,-23.5169 14.27581,-90.73974 -33.25792,-67.22284 v 0 c -11.05809,5.47303 -22.1644,10.84969 -33.17427,16.41908 -11.16874,5.64976 -22.23914,11.49188 -33.35908,17.2371 -31.78832,16.42372 -63.66944,32.67077 -95.27518,49.44501 -27.53841,14.70617 -54.851833,30.05052 -83.285369,42.95559 -51.92307398,10.79326 -36.659103,84.22357 15.263971,73.43031 z"/>
<path d="m 425.81247,143.4342 c 14.23137,-3.45026 28.41477,-7.07835 42.81722,-9.77612 5.14387,-0.96351 10.31496,-1.77549 15.47244,-2.66324 22.53775,-3.61383 45.27172,-6.00856 68.08401,-6.88101 11.45669,-0.43816 15.52715,-0.3062 26.57055,-0.2455 7.40464,0.10082 14.80025,0.53818 22.16998,1.24932 2.28157,0.22017 4.85373,0.3676 7.11278,0.89344 -6.48657,-1.02487 -12.55174,-4.60601 -17.18746,-9.21527 -2.94638,-2.92956 -4.79528,-6.79008 -7.03807,-10.28771 -0.47182,-0.73581 -0.64515,-3.13898 -1.08849,-2.38567 -0.6516,1.10719 0.15219,2.56489 0.22828,3.84733 1.32044,32.15971 0.91704,64.37221 0.30531,96.54438 -0.815,26.86693 -2.19503,53.83635 -6.96221,80.34071 -0.99723,5.54432 -2.07243,11.08466 -3.51181,16.53094 -1.29221,4.88942 -3.11466,9.62309 -4.67199,14.43463 -15.75506,50.6387 55.85888,72.91972 71.61394,22.28101 v 0 c 2.15953,-7.13492 4.63844,-14.18089 6.4786,-21.40478 1.74855,-6.86425 3.0542,-13.83842 4.27632,-20.81566 5.20117,-29.69417 6.89494,-59.86642 7.76382,-89.95261 0.65677,-35.09847 1.17674,-70.26178 -0.65537,-105.3327 -0.69327,-6.121849 -1.29288,-15.53284 -3.87289,-21.262923 -2.28495,-5.074766 -4.88832,-10.16464 -8.60178,-14.310055 -6.66639,-7.441841 -15.17766,-11.0333 -24.52319,-12.953644 -13.71788,-2.194079 -27.6349,-2.909131 -41.50954,-3.200032 -12.94654,-0.04361 -17.53295,-0.188226 -30.95904,0.354885 -25.74326,1.041364 -51.3987,3.761623 -76.82975,7.872644 -5.92193,1.032528 -11.85899,1.981691 -17.76578,3.097584 -14.7759,2.791422 -29.35838,6.421612 -43.95096,10.018314 -51.77558,11.479937 -35.5405,84.701667 16.23508,73.221737 z"/>
<path d="m 458.11033,244.73492 c 18.62572,-3.84119 37.54243,-5.87144 56.45659,-7.63032 24.13064,-2.13886 48.35746,-1.50086 72.50405,-0.1314 2.34169,0.1547 4.68339,0.3094 7.02508,0.4641 52.91849,3.48333 57.84466,-71.35472 4.92617,-74.83804 v 0 c -2.57733,-0.1691 -5.15466,-0.33819 -7.73199,-0.50728 -27.88745,-1.5621 -55.86665,-2.16956 -83.72809,0.34044 -22.31776,2.10967 -44.65073,4.56173 -66.59321,9.28762 -51.62932,12.1208 -34.48792,85.13568 17.1414,73.01488 z"/>
<path d="m 424.11988,359.64181 c 16.63315,-3.46548 33.28155,-6.84004 49.98615,-9.94823 32.05489,-6.19013 64.59847,-8.94669 97.08926,-11.63622 52.85204,-4.3774 46.66145,-79.12148 -6.19059,-74.74407 v 0 c -35.02061,2.90209 -70.08433,5.97798 -104.63328,12.64861 -16.46,3.06938 -32.88202,6.32249 -49.25729,9.81618 -52.22955,9.19646 -39.22379,83.06019 13.00575,73.86373 z"/>
<path d="m 716.04315,128.57181 c 17.31669,-4.12703 35.02696,-5.94843 52.71823,-7.55157 18.72296,-1.18376 37.51701,-1.76539 56.27378,-1.09709 9.77448,0.34826 13.6937,0.76295 23.28725,1.52902 11.17103,1.4506 22.69345,2.02184 33.56348,5.23746 0.37472,0.12191 0.75801,0.2201 1.12417,0.36572 0.13068,0.052 -0.28081,-0.0369 -0.41364,-0.0831 -0.57381,-0.1996 -1.16696,-0.3644 -1.70174,-0.65271 -1.98445,-1.06988 -4.13476,-1.93725 -5.83925,-3.41287 -8.28577,-7.17321 -7.58935,-7.33165 -11.64326,-15.39783 -0.64845,2.18789 -0.096,0.0904 0.45147,5.70293 1.11473,11.42741 1.6798,22.89479 1.65751,34.37897 -0.0104,5.34021 -0.21349,10.6783 -0.32023,16.01745 -1.2487,39.39372 -9.18692,78.05207 -17.10224,116.5227 -3.48778,16.60634 -6.63222,33.28129 -9.79994,49.95062 -9.89995,52.10078 63.78168,66.10142 73.68162,14.00064 v 0 c 3.09698,-16.3001 6.16776,-32.60638 9.58108,-48.84423 8.83672,-42.99306 17.42243,-86.23404 18.627,-130.26151 0.10571,-6.30485 0.32541,-12.60882 0.31713,-18.91455 -0.0136,-10.32565 -0.42919,-20.5345 -1.17804,-30.82564 -0.37794,-5.19389 -1.30424,-14.857 -2.20669,-20.30362 -0.47446,-2.863573 -1.16025,-5.688101 -1.74037,-8.532152 -1.58705,-3.863427 -2.51421,-8.069485 -4.76116,-11.590281 -7.42589,-11.63576 -16.66895,-17.07115 -29.24379,-20.543938 -15.44419,-4.026332 -31.30143,-6.124443 -47.17766,-7.583529 -11.67311,-0.904748 -15.80814,-1.348262 -27.74819,-1.746179 -21.51227,-0.716923 -43.06546,-0.05186 -64.53274,1.396718 -20.56645,1.903051 -41.14728,4.101469 -61.29156,8.840435 -51.90035,10.902018 -36.48257,84.300196 15.41778,73.398176 z"/>
<path d="m 730.82446,238.23818 c 2.02198,-0.10229 4.04617,-0.16754 6.06594,-0.30686 9.49384,-0.65486 18.96509,-1.68145 28.45408,-2.40526 13.00604,-0.99209 14.38362,-0.99202 27.7999,-1.72618 13.29027,-0.54542 26.63961,-1.00565 39.90487,0.31972 8.09028,0.80833 12.46014,1.85102 20.31609,3.39685 52.09864,9.91119 66.11518,-63.76741 14.01654,-73.6786 v 0 c -12.51552,-2.3242 -16.87341,-3.41674 -29.94829,-4.58999 -16.10158,-1.44484 -32.28607,-1.04132 -48.40994,-0.33469 -19.42599,1.07441 -38.83803,2.38864 -58.19919,4.32501 -53.03301,0 -53.03301,75 0,75 z"/>
<path d="m 708.67402,348.74273 c 18.54895,-0.87793 37.10018,-1.50182 55.66988,-1.79288 20.69247,-0.0136 41.45884,-0.27188 62.09809,1.53379 4.67378,0.4089 9.32369,1.0556 13.98554,1.5834 52.71473,5.80154 60.91935,-68.74834 8.20462,-74.54988 v 0 c -5.86771,-0.63104 -11.72266,-1.39488 -17.60313,-1.89311 -22.56442,-1.91182 -45.25684,-1.71202 -67.87719,-1.66473 -18.1698,0.29262 -36.33331,0.75352 -54.47781,1.78341 -53.03301,0 -53.03301,75 0,75 z"/>
<path d="m 528.73707,356.75872 c -0.88787,1.56019 -1.79266,3.11087 -2.66362,4.68056 -4.34116,7.82392 -4.42067,8.48919 -9.65438,16.85016 -10.98069,17.54186 -23.18166,34.31561 -35.10357,51.21614 -24.72732,34.54183 -49.81306,68.86668 -76.06174,102.27565 -13.18155,16.77729 -26.69423,33.29177 -40.02369,49.95179 -5.63469,7.13736 -11.26939,14.27473 -16.90409,21.41209 -32.86014,41.62585 26.00769,88.09711 58.86784,46.47126 v 0 c 5.533,-7.00939 11.06599,-14.01879 16.59899,-21.02819 13.62544,-17.03002 27.43124,-33.91687 40.9012,-51.07013 26.8827,-34.23365 52.58492,-69.3965 77.91273,-104.78767 17.60342,-24.96716 35.79059,-49.72281 50.08753,-76.79926 27.69907,-45.22457 -36.25813,-84.39697 -63.9572,-39.1724 z"/>
<path d="m 450.90205,514.10668 c 1.73439,22.40891 1.72323,44.89936 1.53361,67.35756 -1.52861,57.97838 -7.30135,115.73153 -12.69091,173.44623 -3.93425,41.58776 -9.12323,83.04303 -14.43118,124.47353 -6.73841,52.60317 67.65371,62.13273 74.39212,9.52955 v 0 c 5.41543,-42.28114 10.7035,-84.58814 14.71419,-127.02999 5.58731,-59.83731 11.54122,-119.71873 13.0135,-179.83395 0.18606,-25.75873 0.23672,-51.58886 -2.11312,-77.26654 -6.59278,-52.62162 -81.01099,-43.29802 -74.41821,9.32361 z"/>
<path d="m 649.35657,389.60995 c -4.87434,14.78639 -8.65714,29.89987 -14.58193,44.32919 -1.96607,4.78819 -4.17452,9.47323 -6.26178,14.20984 -9.65831,20.04955 -4.63992,9.91727 -15.0771,30.38594 -24.06292,47.25967 42.77234,81.28977 66.83526,34.03011 v 0 c 11.62211,-22.85631 5.96141,-11.38021 16.98516,-34.42678 2.60548,-6.02038 5.37145,-11.97381 7.81644,-18.06113 6.72568,-16.745 11.3713,-34.16249 16.80393,-51.33989 13.52503,-51.27937 -58.99495,-70.40665 -72.51998,-19.12728 z"/>
<path d="m 521.15484,568.26403 c 25.79966,-2.83922 51.47334,-6.72392 77.21745,-10.02834 33.27071,-4.01259 66.71597,-6.57862 100.21847,-7.46507 20.11642,-0.53226 27.57255,-0.30472 47.36847,-0.13912 16.01316,0.17214 31.97976,1.30604 47.92831,2.63625 52.85331,4.36211 59.02226,-70.38376 6.16895,-74.74586 v 0 c -17.80362,-1.45578 -35.62591,-2.71217 -53.49941,-2.88801 -21.40559,-0.16277 -29.13791,-0.40024 -50.92346,0.19506 -35.70797,0.97574 -71.35457,3.72855 -106.81487,8.01771 -24.47728,3.14521 -48.89638,6.73996 -73.40329,9.63731 -52.8775,4.05836 -47.13812,78.83843 5.73938,74.78007 z"/>
<path d="m 613.65154,540.91649 c 3.57893,21.36019 4.27089,43.06588 5.17025,64.66229 1.34435,37.43252 1.52145,74.91179 -0.0477,112.34086 -0.33178,7.9138 -0.82361,15.82008 -1.23541,23.73012 -1.14893,22.01898 -3.76485,43.92394 -7.86491,65.58569 -2.69568,14.24204 -4.5554,21.22424 -7.8844,34.9684 -12.4313,51.55544 60.4791,69.13594 72.91039,17.58051 v 0 c 3.81036,-15.86536 5.88283,-23.66838 8.9473,-40.1815 4.54232,-24.4767 7.47598,-49.21583 8.79143,-74.07781 0.43276,-8.4133 0.94935,-16.82271 1.29829,-25.23991 1.62776,-39.26568 1.43629,-78.58394 0.019,-117.85233 -1.06834,-25.2567 -2.0145,-50.63533 -6.43463,-75.58004 -9.94455,-52.09228 -83.61416,-38.02857 -73.66961,14.06372 z"/>
<path d="m 509.9717,691.95679 c 22.19779,0.17011 44.26589,-2.73019 66.26075,-5.36343 36.70347,-4.58898 73.36815,-9.95416 110.32218,-12.15315 6.44265,-0.38338 12.89737,-0.52604 19.34605,-0.78906 13.88834,-0.29782 27.82483,-0.21252 41.62855,1.52202 2.49595,0.31364 4.96556,0.80984 7.44833,1.21475 52.41463,8.07506 63.83449,-66.05042 11.41986,-74.12548 v 0 c -3.96001,-0.58766 -7.90329,-1.30207 -11.88005,-1.763 -17.17755,-1.99097 -34.49227,-2.22163 -51.76183,-1.78231 -7.32122,0.31493 -14.64909,0.5014 -21.96365,0.9448 -38.01238,2.30428 -75.74187,7.70254 -113.49607,12.46576 -19.0268,2.28932 -38.11893,4.93563 -57.32412,4.8291 -53.03301,0 -53.03301,75 0,75 z"/>
<path d="m 522.9687,788.39954 c 17.73892,-2.51956 35.55833,-4.31681 53.40416,-5.86803 24.90606,-1.90594 49.87476,-3.23855 74.85977,-3.33388 16.68987,-0.0637 23.08398,0.30138 39.79861,0.85166 16.62016,0.59253 33.1638,2.24949 49.69135,3.99809 52.74199,5.54821 60.58836,-69.04022 7.84637,-74.58844 v 0 c -18.32974,-1.91827 -36.6775,-3.72972 -55.10813,-4.37029 -18.60738,-0.59437 -24.92776,-0.96662 -43.55644,-0.87926 -26.71966,0.1253 -53.4218,1.55221 -80.05623,3.60647 -18.58448,1.62981 -37.1495,3.46127 -55.62314,6.09511 -52.67138,6.18272 -43.92769,80.67129 8.74368,74.48857 z"/>
<path d="m 476.51511,904.02557 c 2.45813,0.33253 4.90521,0.76079 7.37441,0.9976 5.8878,0.56467 14.01837,0.74718 19.73266,0.71468 17.45989,-0.0993 34.81955,-1.5017 52.21553,-2.85225 43.57507,-3.96959 87.22385,-7.26084 130.96064,-8.77362 9.24779,-0.31987 18.50082,-0.46432 27.75122,-0.69649 36.02519,-0.38268 72.21508,0.55848 107.92092,5.74503 4.51434,0.65575 8.99811,1.50708 13.49716,2.26062 3.65769,0.76287 7.31538,1.52575 10.97306,2.28863 51.94351,10.69448 67.06779,-62.76474 15.12428,-73.45922 v 0 c -4.62133,-0.94166 -9.24266,-1.88333 -13.86399,-2.82499 -5.46868,-0.89438 -10.92019,-1.90092 -16.40603,-2.68314 -39.43107,-5.62242 -79.36866,-6.78034 -119.14454,-6.30288 -9.71391,0.24821 -19.43053,0.40617 -29.14171,0.74462 -44.58768,1.55397 -89.08876,4.88242 -133.5124,8.92926 -15.12062,1.18929 -30.21109,2.44693 -45.3858,2.63094 -19.22208,0.23309 0.0775,-0.13685 -12.37942,-0.25586 -0.10959,-0.001 -0.19867,0.0926 -0.298,0.13894 -51.90032,-10.90217 -67.31831,62.49596 -15.41799,73.39813 z"/>
</svg>
