<?xml version="1.0" ?>
<svg xmlns="http://www.w3.org/2000/svg" width="1000" height="1000">
<path d="m 349.04597,221.5045 c 26.61007,-4.26208 53.35484,-7.56393 80.12254,-10.64848 44.09789,-4.56588 88.36821,-7.92396 132.70487,-8.85773 7.18914,-0.15141 14.38096,-0.12038 21.57144,-0.18056 18.14338,-0.0581 36.24341,1.12042 54.29199,2.84419 52.79728,4.99476 59.86094,-69.67186 7.06366,-74.66663 v 0 c -20.61926,-1.93473 -41.29537,-3.2656 -62.01964,-3.17463 -7.77965,0.0724 -15.56078,0.0489 -23.33894,0.21706 -46.39688,1.00301 -92.72457,4.51084 -138.87029,9.31264 -27.19759,3.14218 -54.37979,6.46214 -81.41607,10.80914 -52.56986,6.9936 -42.67942,81.3386 9.89044,74.345 z"/>
<path d="m 270.39466,370.67383 c 2.09922,25.20214 7.47721,50.00719 12.70362,74.7052 8.974,43.81793 19.37533,87.3179 29.49489,130.87934 5.60013,24.36103 11.16269,48.73256 17.30474,72.96374 13.04003,51.40484 85.73745,32.96346 72.69743,-18.44138 v 0 c -6.02724,-23.74005 -11.44875,-47.62706 -16.94759,-71.49375 -10.01017,-43.08847 -20.30529,-86.11474 -29.17913,-129.45766 -4.46501,-21.03357 -9.10968,-42.13914 -11.20396,-63.56946 -3.12115,-52.94108 -77.99115,-48.52712 -74.87,4.41397 z"/>
<path d="m 357.97496,415.2086 c 24.41874,-8.804 49.75364,-14.78092 75.0126,-20.59107 46.34978,-9.75929 92.92572,-18.70401 139.92728,-24.72574 8.3032,-1.06378 16.63246,-1.91313 24.94869,-2.8697 18.4809,-1.72533 37.05866,-2.90578 55.63013,-2.38778 7.05076,0.19666 13.51156,0.67607 20.41598,1.82346 1.93675,0.32185 3.83617,0.83794 5.75426,1.25692 1.03294,0.36247 2.06587,0.72494 3.0988,1.08741 0.11935,0.16048 0.54901,0.54077 0.35803,0.48143 -7.75858,-2.41106 -12.11984,-9.57192 -14.94219,-16.68848 -3.09973,24.80775 -8.01465,49.32762 -12.92205,73.82889 -7.74802,38.11517 -16.18833,76.17872 -27.7297,113.35414 -2.0128,6.48334 -4.27633,12.88618 -6.41449,19.32927 -3.77485,9.77502 -7.48692,20.76477 -12.86278,29.91939 -1.86369,3.17371 -4.37493,5.91971 -6.5624,8.87956 -29.80691,43.86397 32.22612,86.0173 62.03303,42.15333 v 0 c 4.08555,-6.27156 8.59566,-12.28619 12.25667,-18.81468 6.85783,-12.2292 11.3784,-25.57137 16.34658,-38.60083 2.40596,-7.30528 4.94618,-14.5677 7.21789,-21.91584 12.12877,-39.23205 21.09074,-79.37058 29.25635,-119.58362 3.75028,-18.74648 7.54145,-37.47271 10.51547,-56.36233 1.008,-6.40238 2.85161,-18.93729 3.3157,-25.66291 0.27925,-4.04693 0.22488,-8.10998 0.33732,-12.16497 -1.98171,-13.24422 -1.21749,-17.34129 -9.2525,-29.31235 -9.0878,-13.53958 -24.30258,-19.70985 -39.39019,-23.48078 -11.15009,-2.11437 -13.04254,-2.75816 -24.89338,-3.71548 -26.7014,-2.15697 -53.55975,-0.31572 -80.17031,2.07139 -8.92453,1.03438 -17.86287,1.95581 -26.77358,3.10315 -49.1661,6.33061 -97.89597,15.66461 -146.37538,25.92066 -30.05523,6.96625 -60.35252,14.0074 -89.11359,25.36399 -48.29792,21.90459 -17.32016,90.20816 30.97776,68.30357 z"/>
<path d="m 399.28223,542.5435 c 19.6012,-7.06512 39.95388,-11.55348 60.33279,-15.68118 28.12875,-5.6958 56.72744,-7.8382 85.32697,-9.34022 9.64167,-0.53444 19.29213,-0.57125 28.93726,-0.19665 52.99742,1.94256 55.7446,-73.00711 2.74718,-74.94967 v 0 c -11.87704,-0.41653 -23.76049,-0.41529 -35.63197,0.25028 -9.42687,0.49852 -18.73592,0.94018 -28.15546,1.66417 -22.88275,1.75877 -45.65433,4.76438 -68.19765,9.08203 -25.21572,5.16408 -50.43749,10.82623 -74.52675,20.0753 -48.85821,20.62462 -19.69058,89.72057 29.16763,69.09594 z"/>
<path d="m 374.08307,669.10174 c 21.61026,-5.24021 43.34587,-9.81616 65.22921,-13.75411 35.19171,-5.94937 70.79225,-8.9657 106.37728,-11.33864 21.65016,-0.83769 43.36974,-2.85304 65.04576,-1.65755 1.02362,0.11742 2.04724,0.23483 3.07086,0.35225 52.77368,5.23827 60.18171,-69.39497 7.40804,-74.63324 v 0 c -2.27459,-0.20997 -4.54919,-0.41993 -6.82378,-0.62989 -24.58073,-1.10251 -49.16718,0.46212 -73.71411,1.73617 -38.37091,2.58162 -76.75435,5.87403 -114.69115,12.36447 -5.88389,1.06573 -11.77946,2.06884 -17.65166,3.19718 -17.29943,3.32408 -34.41656,7.47187 -51.58505,11.39411 -51.59705,12.25742 -34.26245,85.22667 17.3346,72.96925 z"/>
<path d="m 155.98727,835.47413 c 13.7182,-3.7035 27.66317,-6.47475 41.57466,-9.33542 24.65849,-4.95528 49.38623,-9.61677 74.2677,-13.32099 16.46902,-2.45182 32.23424,-4.38758 48.76379,-6.50987 55.91037,-6.38661 111.96881,-11.35973 167.91693,-17.39887 35.84152,-3.96221 71.64833,-8.37839 107.60319,-11.2249 21.98062,-1.74019 24.42351,-1.66629 46.03822,-2.62534 25.7156,-0.52303 51.49316,-0.0988 77.1399,1.97588 11.67565,0.94448 18.91051,1.88393 30.43002,3.22437 21.64324,2.67772 43.0789,6.72417 64.57202,10.36525 9.40812,1.51224 18.76052,3.39145 28.21446,4.60569 52.65199,6.34573 61.6262,-68.11543 8.97421,-74.46115 v 0 c -2.21655,-0.15696 -4.58891,-0.67273 -6.76673,-1.03513 -5.96974,-0.99338 -11.9232,-2.08234 -17.89629,-3.05607 -22.78659,-3.85932 -45.51472,-8.13549 -68.46802,-10.92046 -13.25556,-1.52903 -20.61136,-2.49014 -34.13601,-3.56071 -28.40467,-2.24844 -56.94833,-2.71955 -85.42514,-2.0623 -23.24227,1.05345 -25.81678,0.97589 -49.32598,2.84531 -36.42216,2.89623 -72.69851,7.3363 -109.00576,11.36304 -56.4499,6.09799 -113.01476,11.08848 -169.42232,17.57683 -17.89629,2.30075 -33.23193,4.17708 -51.05152,6.8397 -25.97515,3.88124 -51.79312,8.7407 -77.5369,13.91844 -16.34015,3.36362 -32.72904,6.62321 -48.78528,11.19641 -50.629047,15.78605 -28.3042,87.38634 22.32485,71.60029 z"/>
<path d="m 469.54788,61.20759 c 0.62874,7.200375 0.93337,14.43747 1.25853,21.660524 0.57623,15.698632 0.64751,31.410156 0.7193,47.117446 0.18137,18.06207 0.002,36.11837 -0.4256,54.17506 -0.32333,18.52347 -0.26234,37.0509 -0.24482,55.5764 0.026,20.01296 0.0395,40.02593 0.047,60.03891 -0.11071,22.3403 -0.53246,44.67788 -0.9893,67.01337 -0.52838,22.28514 -0.7479,44.57527 -0.87895,66.86572 -0.19546,21.45957 -0.008,42.91761 0.20708,64.37594 0.23386,22.05781 0.29935,44.11685 0.34109,66.17569 -0.14911,23.36024 -0.37903,46.71973 -0.5053,70.08016 -0.23841,22.95615 0.0387,45.91138 0.0923,68.86712 -0.0588,20.82202 0.14296,41.64353 0.49767,62.46224 0.31049,18.89497 0.44467,37.79165 0.73662,56.68688 0.19959,18.41618 0.60701,36.82888 0.86557,55.2442 0.18661,19.2344 0.32085,38.46979 0.39587,57.70492 -0.0229,3.15109 -0.0458,6.30217 -0.0687,9.45325 -0.3727,53.0317 74.62545,53.55878 74.99815,0.52708 v 0 c 0.0233,-3.4257 0.0466,-6.8514 0.07,-10.2771 -0.0782,-19.48755 -0.21009,-38.97537 -0.40269,-58.46216 -0.25958,-18.45025 -0.6666,-36.89789 -0.86711,-55.349 -0.29262,-18.93515 -0.4253,-37.87179 -0.73857,-56.80667 -0.34899,-20.45254 -0.54616,-40.90784 -0.48698,-61.36365 -0.0561,-22.7607 -0.32796,-45.52082 -0.0931,-68.28192 0.12713,-23.54284 0.36266,-47.08471 0.50626,-70.62739 -0.0422,-22.26251 -0.10874,-44.5252 -0.34473,-66.78665 -0.21146,-21.06061 -0.39855,-42.12086 -0.20459,-63.18271 0.1285,-21.9265 0.34366,-43.85269 0.86459,-65.77395 0.46645,-22.8555 0.89844,-45.71313 1.00495,-68.57358 -0.008,-20.02723 -0.021,-40.05446 -0.047,-60.08167 -0.017,-17.91068 -0.0772,-35.82316 0.22389,-53.73202 0.4432,-18.76241 0.63021,-37.52477 0.44578,-56.29267 -0.0771,-16.72371 -0.15985,-33.452026 -0.79528,-50.165837 -0.4511,-9.910624 -0.81425,-19.846761 -2.05771,-29.69712 -8.08166,-52.4136128 -82.2057,-40.9844265 -74.12405,11.429187 z"/>
</svg>
