<?xml version="1.0" ?>
<svg xmlns="http://www.w3.org/2000/svg" width="1000" height="1000">
<path d="m 126.45148,278.65911 c 17.90535,-3.07466 35.50933,-7.66475 53.24288,-11.56919 6.87151,-1.51291 13.75802,-2.9569 20.63703,-4.43536 40.76319,-8.54509 81.74367,-16.39997 123.19542,-20.77123 7.03825,-0.74221 14.10047,-1.23615 21.1507,-1.85422 14.60807,-1.24343 29.25416,-1.30734 43.8964,-1.09095 53.02859,0.6844 53.99648,-74.30935 0.96789,-74.99376 v 0 c -17.17466,-0.1954 -34.35402,-0.10941 -51.48539,1.37754 -7.86687,0.70399 -15.74689,1.27399 -23.60063,2.11197 -43.69734,4.66245 -86.91559,12.86848 -129.89146,21.89672 -22.92097,4.93121 -45.73273,10.36316 -68.69613,15.07894 -52.502348,7.48352 -41.919059,81.73306 10.58329,74.24954 z"/>
<path d="m 60.865118,375.00069 c 2.680841,17.43258 5.455205,34.84286 7.327219,52.38926 0.731714,6.85836 1.314247,13.73182 1.97137,20.59774 3.578901,45.85363 5.968812,91.7841 9.580465,137.63604 1.38833,16.48188 3.176045,32.92563 4.431899,49.41838 4.053629,52.87786 78.834219,47.14517 74.780589,-5.73269 v 0 c -1.27582,-16.54526 -3.01267,-33.04717 -4.44441,-49.57933 -3.65095,-46.28171 -6.01567,-92.64684 -9.69336,-138.92599 -0.72098,-7.45599 -1.36045,-14.92031 -2.16294,-22.36796 -1.90346,-17.66546 -4.59115,-35.21674 -7.37255,-52.75851 -6.5924,-52.62167 -81.01068,-43.29861 -74.418282,9.32306 z"/>
<path d="m 143.7637,437.85828 c 16.25417,-8.93736 34.07631,-14.27144 51.7565,-19.55021 24.2999,-6.69714 49.03477,-11.83546 73.99315,-15.36437 15.42681,-2.18123 20.24176,-2.46803 35.43287,-3.90503 20.80323,-1.81085 41.73176,-1.82662 62.53167,-0.0523 2.17284,0.61325 5.04595,0.16431 7.18496,1.24408 0.08,0.0404 -0.18282,0.0532 -0.26783,0.0247 -1.22102,-0.40906 -2.52141,-0.66959 -3.62712,-1.32959 -2.98946,-1.78441 -5.71969,-3.97103 -8.57953,-5.95655 -15.28966,9.66971 -3.25299,-12.23148 -8.38252,-13.29028 -0.96203,-0.19857 -0.15654,1.95887 -0.19661,2.94036 -0.12159,2.97858 -0.15511,5.96045 -0.28832,8.93853 -0.40024,8.94822 -1.16805,20.77022 -1.70154,29.48031 -1.63342,26.64507 -3.53272,53.29424 -6.96911,79.77724 -2.11928,16.33254 -3.40841,23.39467 -6.04049,39.47018 -3.84065,22.35939 -1.96255,11.63876 -5.61767,32.16477 -9.295,52.2121 64.54405,65.35721 73.83905,13.14512 v 0 c 3.7696,-21.18034 1.83106,-10.10759 5.79799,-33.22134 2.87052,-17.61815 4.21203,-24.95535 6.52107,-42.91253 3.57946,-27.83711 5.62059,-55.84015 7.32927,-83.84495 0.91388,-14.96326 2.29739,-30.07154 2.10083,-45.07997 -0.0924,-7.05666 -0.50865,-17.69037 -3.3362,-24.32481 -2.31374,-5.42886 -6.00531,-10.16071 -9.00797,-15.24106 -3.78277,-2.94482 -7.32102,-6.23405 -11.34832,-8.83447 -2.23083,-1.44044 -4.81429,-2.2533 -7.29416,-3.20292 -7.61153,-2.91472 -15.90543,-3.7328 -23.9214,-4.69061 -25.24243,-2.04646 -50.62132,-2.14409 -75.86155,0.13625 -17.19006,1.6578 -22.61304,1.98879 -40.07141,4.49477 -28.27661,4.05884 -56.29755,9.93225 -83.81277,17.61023 -6.01538,1.81901 -12.06716,3.52178 -18.04616,5.45703 -15.65147,5.06598 -31.04224,11.10657 -45.5977,18.80536 -47.455356,23.67466 -13.974338,90.78666 33.48102,67.11201 z"/>
<path d="m 156.63738,536.09011 c 0.05,0.0349 0.0909,0.11966 0.15014,0.10481 1.30228,-0.32664 2.58061,-0.74225 3.87092,-1.11337 2.71005,-0.69078 5.40778,-1.43184 8.13015,-2.07232 14.8988,-3.50518 29.91337,-6.12944 45.00076,-8.66812 31.85775,-4.53306 63.9909,-7.86234 96.18037,-8.68535 5.15041,-0.13168 10.3039,-0.0769 15.45585,-0.11533 11.39285,-0.0127 22.766,0.62419 34.13225,1.31034 52.93858,3.16348 57.41241,-71.70297 4.47384,-74.86644 v 0 c -13.07651,-0.77443 -26.16133,-1.48135 -39.26753,-1.44098 -5.98793,0.0598 -11.97779,0.0163 -17.9638,0.17941 -35.31758,0.96245 -70.57159,4.59931 -105.51554,9.66812 -17.23095,2.92646 -34.40043,5.91527 -51.39521,10.03855 -6.61201,1.6042 -13.94175,3.57009 -20.40498,5.91171 -2.14848,0.77839 -4.21867,1.7579 -6.328,2.63684 -47.455441,23.67449 -13.97466,90.78662 33.48078,67.11213 z"/>
<path d="m 162.57078,637.03413 c 15.68394,-6.76615 32.44838,-10.24332 49.11182,-13.60171 21.84227,-3.97328 43.88569,-6.9274 66.02271,-8.65201 12.52633,-0.97588 20.2313,-1.18666 32.70021,-1.70502 13.64878,-0.64254 27.29796,-0.2244 40.93795,0.31029 52.99498,2.00823 55.83505,-72.93798 2.84008,-74.94621 v 0 c -15.63823,-0.57531 -31.28628,-1.03306 -46.93237,-0.29772 -14.39025,0.61261 -22.0038,0.81078 -36.55713,1.9671 -24.81189,1.97139 -49.51749,5.31627 -73.99063,9.83463 -5.49723,1.13083 -11.01754,2.1547 -16.49167,3.39247 -18.27336,4.13182 -36.41794,9.49639 -53.30044,17.71786 -46.655132,25.21506 -10.99566,91.19537 35.65947,65.98032 z"/>
<path d="m 206.5019,95.772204 c 1.85186,22.903046 3.77598,45.800146 5.68347,68.698616 3.08829,37.05869 5.79845,74.15541 7.07418,111.32675 1.01771,29.65302 0.93024,40.51646 1.21828,70.55772 -0.19088,82.13286 -1.4925,164.26122 -3.11136,246.37714 -1.44898,76.67732 -4.66493,153.29763 -9.2289,229.84805 -1.81999,28.38566 -3.50709,56.77787 -5.05051,85.1797 -2.87595,52.95497 72.01369,57.02217 74.88963,4.06719 v 0 c 1.5344,-28.27057 3.21845,-56.53119 5.02808,-84.78569 4.61826,-77.5442 7.88087,-155.15878 9.34714,-232.83132 1.63256,-82.85134 2.94855,-165.71539 3.12238,-248.58391 -0.30711,-31.19728 -0.21706,-42.29129 -1.2874,-73.12948 -1.32402,-38.14739 -4.08893,-76.21987 -7.2604,-114.25225 -1.86484,-22.38644 -3.73294,-44.77275 -5.5713,-67.161302 -3.31547,-52.929271 -78.16876,-48.240484 -74.85329,4.688786 z"/>
<path d="m 112.34584,882.32989 c 26.18159,-17.38699 54.27174,-31.5855 82.21065,-45.86877 43.7735,-22.0661 88.26086,-42.66559 132.62331,-63.50761 52.04963,-24.45355 22.11142,-10.53013 73.36667,-34.18918 48.1503,-22.22721 16.71628,-90.32201 -31.43402,-68.0948 v 0 c -51.7812,23.90479 -21.61906,9.87558 -73.79818,34.39004 -45.13207,21.20366 -90.3881,42.16724 -134.91388,64.63059 -30.24818,15.48208 -60.611719,30.94607 -88.960292,49.77703 -44.450646,28.92473 -3.5449,91.78744 40.905742,62.8627 z"/>
<path d="m 592.44523,280.45937 c 20.6656,11.64122 39.27877,26.30316 57.95803,40.80881 4.04669,3.21967 8.09339,6.43934 12.14008,9.65901 41.50568,33.0118 88.19141,-25.68608 46.68574,-58.69789 v 0 c -4.27793,-3.40137 -8.55585,-6.80274 -12.83378,-10.20411 -21.89377,-16.99185 -43.67498,-33.82119 -67.94975,-47.36078 -46.52407,-25.45607 -82.52438,40.33889 -36.00032,65.79496 z"/>
<path d="m 498.24078,545.07356 c 32.16608,-7.70359 65.04023,-12.05779 97.75892,-16.6608 44.79807,-6.0201 89.68997,-11.58824 134.79721,-14.67197 3.11232,-0.0204 6.22464,-0.0408 9.33696,-0.0612 -0.31801,0.2121 -0.66357,0.88482 -0.95403,0.63632 -9.88661,-8.45835 -22.73226,-14.76368 -28.93045,-26.20358 -3.7044,-6.83714 4.06763,-15.69416 2.14736,-23.22952 -0.70133,-2.75208 -4.48757,3.48211 -6.73831,5.21415 -4.85514,3.73623 -9.71953,7.46043 -14.57929,11.19065 -41.36753,30.31266 -82.83577,60.53956 -122.71279,92.81277 -8.84182,7.15586 -17.51963,14.51203 -26.27945,21.76804 -30.15808,26.12621 -60.11818,52.91223 -85.39549,83.93651 -13.97447,17.15166 -14.93672,19.85614 -26.38629,38.04247 -3.00312,5.96543 -6.32149,11.78235 -9.00937,17.8963 -10.02429,22.80163 -15.68763,49.1062 -7.72603,73.52207 2.15586,6.61136 5.93022,12.58028 8.89533,18.87042 4.83361,5.48365 8.97105,11.67019 14.50085,16.45093 22.86277,19.76581 54.39752,25.30298 83.47815,27.57979 7.422,0.58109 14.87539,0.64633 22.31309,0.96949 21.18428,0.27091 42.36778,-0.57431 63.49511,-2.0799 10.66757,-0.76021 24.97932,-2.00311 35.69988,-3.44213 5.10241,-0.6849 10.16772,-1.62235 15.25158,-2.43352 4.33407,-0.9566 8.66815,-1.91321 13.00222,-2.86981 51.72528,-11.70451 35.1726,-84.8551 -16.55268,-73.15059 v 0 c -2.82841,0.66414 -5.65683,1.32828 -8.48524,1.99242 -3.86332,0.64349 -7.70953,1.39981 -11.58996,1.93047 -9.63918,1.31817 -22.34336,2.42104 -31.89801,3.11265 -18.61154,1.3472 -37.27103,2.13031 -55.93435,1.99998 -13.81236,-0.48772 -19.32537,-0.34144 -32.70764,-2.05386 -11.7119,-1.49868 -9.79519,-1.66769 -19.61601,-4.09611 -3.96922,-0.98147 -2.63295,-1.0621 -5.39964,-0.34102 -0.49893,0.0566 -1.06083,0.41909 -1.49681,0.16995 -1.83545,-1.04888 -2.29561,-4.4621 -2.24942,-6.01825 0.30239,-10.18871 5.49694,-19.55097 9.75753,-28.46604 2.68843,-4.42391 5.15711,-8.98908 8.0653,-13.27173 23.71675,-34.92574 56.51952,-62.74263 87.84751,-90.50572 8.31592,-6.89659 16.55214,-13.89044 24.94778,-20.68976 39.65972,-32.11894 80.96378,-62.11766 122.08177,-92.31911 3.93299,-3.06274 30.55388,-22.98188 33.59629,-28.38654 6.47378,-11.50034 16.54929,-24.365 13.52318,-37.21063 -6.86823,-29.15517 -23.84258,-34.95293 -44.92469,-36.32138 -4.50089,-0.29216 -9.0194,0.15494 -13.5291,0.23241 -46.87803,3.25252 -93.54506,8.92097 -140.1011,15.22745 -35.99185,5.07378 -72.16749,9.8924 -107.48034,18.69395 -51.07714,14.26975 -30.89667,86.50373 20.18047,72.23399 z"/>
<path d="m 789.03424,761.83961 c 8.54393,11.26262 15.72743,23.4825 20.80998,36.70169 1.40987,3.66693 2.53756,7.4362 3.80634,11.15431 3.29356,11.32227 5.16594,22.98194 5.94637,34.73646 0.22607,3.40506 0.22247,6.82149 0.33371,10.23223 2.13181,52.99015 77.07119,49.97531 74.93938,-3.01483 v 0 c -0.22784,-5.01764 -0.28342,-10.04607 -0.68352,-15.05293 -1.40443,-17.57528 -4.52685,-34.96671 -9.79331,-51.81037 -1.98866,-5.53301 -3.76967,-11.14511 -5.96598,-16.59902 -7.2975,-18.12121 -17.18552,-35.05098 -28.88575,-50.66318 -31.33589,-42.78507 -91.84311,1.53058 -60.50722,44.31564 z"/>
</svg>
