<?xml version="1.0" ?>
<svg xmlns="http://www.w3.org/2000/svg" viewBox="0 0 1000 1000">
<path d="m 247.54958,130.38727 c 18.77178,0.44743 37.36845,-3.05929 55.86184,-5.77521 28.46773,-4.18075 21.60731,-3.16305 51.94595,-7.33716 56.34634,-7.18799 112.85168,-13.62297 169.56452,-17.12606 11.28029,-0.696778 22.57555,-1.12525 33.86333,-1.687873 43.72549,-1.467702 87.65802,-1.123155 131.19149,3.665213 4.81046,0.52912 9.59714,1.25575 14.39571,1.88363 3.57108,0.57244 7.14216,1.14488 10.71323,1.71733 52.37666,8.31781 64.13982,-65.753964 11.76317,-74.071779 v 0 c -4.28903,-0.675804 -8.57806,-1.351608 -12.86709,-2.027412 -5.68136,-0.726012 -11.34978,-1.561675 -17.04407,-2.178038 -47.09724,-5.09791 -94.60941,-5.538425 -141.90862,-3.894825 -11.86995,0.598628 -23.74767,1.059086 -35.60984,1.795886 -58.2918,3.6207 -116.37231,10.221546 -174.28728,17.624267 -29.89355,4.115271 -24.74786,3.332166 -52.76286,7.454166 -10.39,1.528737 -20.06076,3.112806 -30.40074,4.333191 -2.95588,0.34887 -5.92968,0.527589 -8.89064,0.82868 -52.88875,-3.908954 -58.41685,70.887034 -5.5281,74.795994 z"/>
<path d="m 268.23699,109.20516 c -0.95202,4.29092 -1.78802,7.9825 -2.65108,12.48509 -1.86121,9.70991 -3.49418,20.34677 -5.66556,29.9461 -3.41423,15.09377 -7.14762,27.25117 -11.45028,42.3227 -16.80495,56.48325 -38.82855,111.30195 -63.03951,164.98235 -5.86997,13.01486 -11.98501,25.91779 -17.97751,38.87668 -23.27085,50.60321 -48.55218,100.23045 -74.01315,149.75371 -24.247137,47.16542 42.45483,81.45605 66.70197,34.29063 v 0 c 25.93701,-50.45585 51.68097,-101.02254 75.39041,-152.57658 6.19236,-13.40257 12.51448,-26.74595 18.57708,-40.20771 25.58023,-56.79992 48.78313,-114.82137 66.49649,-174.59033 5.56249,-19.60211 8.54938,-29.01025 12.91739,-48.44265 3.25079,-14.46207 5.12694,-29.19788 8.54066,-43.62685 9.3431,-52.203513 -64.48381,-65.416646 -73.82691,-13.21314 z"/>
<path d="m 400.31175,219.49801 c 15.91054,-3.73562 32.23611,-5.49452 48.44934,-7.35103 22.00559,-2.39417 44.12652,-3.53968 66.2603,-3.4632 9.62015,0.0332 18.68516,0.38477 28.2863,0.68885 15.90943,0.61158 8.26331,0.30326 22.93863,0.91853 52.98651,2.22029 56.12648,-72.71395 3.13997,-74.93424 v 0 c -15.11438,-0.63301 -7.20552,-0.3147 -23.72689,-0.94741 -11.16075,-0.34704 -20.14301,-0.70165 -31.39954,-0.72186 -24.74831,-0.0444 -49.48239,1.26727 -74.08591,3.95254 -18.98416,2.2006 -38.06444,4.36499 -56.69081,8.77022 -51.68074,11.89962 -34.85213,84.98723 16.82861,73.0876 z"/>
<path d="m 272.8649,361.61742 c 16.84859,-4.8029 33.42478,-10.52981 50.402,-14.89028 6.60817,-1.69725 13.27364,-3.16307 19.91046,-4.74461 45.59788,-9.94287 92.10651,-15.20089 138.62089,-18.47167 10.54096,-0.74122 21.09852,-1.22351 31.64778,-1.83527 49.85506,-2.66883 99.77503,-1.41283 149.62941,0.39458 4.57678,0.15808 9.15355,0.31616 13.73032,0.47424 53.00141,1.83044 55.59004,-73.12488 2.58863,-74.95531 v 0 c -4.53477,-0.1566 -9.06954,-0.31319 -13.60431,-0.46978 -52.21517,-1.8894 -104.49941,-3.13989 -156.71298,-0.31637 -11.16447,0.65528 -22.33775,1.17477 -33.49342,1.96582 -50.31084,3.56756 -100.59484,9.40264 -149.88868,20.27977 -7.55802,1.82098 -15.14723,3.51706 -22.67406,5.46295 -16.26848,4.20583 -32.22308,9.50255 -48.30776,14.33564 -51.45637,12.83521 -33.30465,85.6055 18.15172,72.77029 z"/>
<path d="m 335.14282,318.30904 c 0.14211,25.08799 -0.6218,50.16824 -1.15936,75.24769 -0.77043,39.6997 -1.10109,79.40865 -0.8996,119.11536 0.11963,18.92587 0.84772,37.83955 1.69529,56.74436 0.60811,13.87633 2.75732,32.76801 20.82847,37.35782 16.19018,4.11207 33.1464,-5.63429 48.7559,-11.58194 3.60862,-1.37498 4.43154,-6.32575 6.61031,-9.51413 2.32061,-3.39594 4.59164,-6.8255 6.88747,-10.23825 7.82009,-11.05539 12.16033,-17.65098 21.14032,-28.25202 4.58724,-5.41533 9.53746,-10.51242 14.3062,-15.76863 35.46572,-39.42946 -20.29595,-89.58557 -55.76168,-50.15611 v 0 c -5.88922,6.59291 -11.98883,13.00374 -17.66765,19.77871 -10.28581,12.27121 -15.33235,19.90203 -24.24718,32.53603 -2.33824,3.47601 -4.72397,6.92054 -7.01471,10.42803 -0.6688,1.02404 -3.08064,3.25527 -1.86109,3.16225 14.92484,-1.13842 30.30113,-11.31005 44.44469,-6.41037 18.98138,6.57563 19.24305,41.36722 18.50366,25.29872 -0.8035,-17.91364 -1.50505,-35.83538 -1.62098,-53.76904 -0.20234,-39.04277 0.1299,-78.08779 0.88336,-117.12369 0.54896,-25.61508 1.32128,-51.231 1.17658,-76.85479 0,-53.03301 -75,-53.03301 -75,0 z"/>
<path d="m 587.53268,330.29056 c -2.31879,1.00616 -4.67159,1.9373 -6.95637,3.01847 -3.90914,1.84981 -14.79645,7.60606 -18.16223,9.3562 -13.78245,7.1666 -27.51078,14.43155 -41.30208,21.58152 -13.29241,6.89547 -26.96111,13.00316 -40.65821,19.03493 -48.52288,21.40166 -18.25636,90.02336 30.26651,68.6217 v 0 c 15.13098,-6.68314 30.23023,-13.4503 44.91831,-21.0765 18.97462,-9.8421 37.94043,-19.77828 56.80593,-29.79454 50.022,-17.61535 25.11013,-88.35712 -24.91186,-70.74178 z"/>
<path d="m 417.70026,408.56277 c 12.41797,11.69956 24.53544,23.72778 36.83303,35.55871 21.53149,20.41759 43.92125,39.96825 67.49849,58.00024 4.66155,3.56517 9.42168,6.99957 14.13252,10.49936 19.9921,14.1907 40.42492,27.75915 61.03216,41.03811 9.46306,5.78276 18.58585,12.30878 28.6757,17.00432 2.46255,1.14601 4.99996,2.12377 7.49994,3.18566 26.98981,9.3801 56.00682,9.12521 84.22287,8.95653 22.77277,-0.60365 45.44608,-2.91101 68.11255,-5.02005 52.80404,-4.92274 45.84223,-79.59893 -6.96181,-74.67619 v 0 c -20.54758,1.91947 -41.09905,4.03646 -61.73833,4.69854 -18.45643,0.18588 -37.27636,0.58873 -55.40503,-3.44303 -2.88191,-0.95529 -5.38811,-2.34608 -8.00801,-3.89775 -5.33685,-3.16081 -10.54955,-6.53059 -15.78216,-9.85852 -19.22725,-12.38151 -38.28245,-25.04594 -56.97067,-38.22836 -4.15817,-3.07786 -8.36105,-6.09622 -12.47451,-9.23359 -21.61303,-16.4845 -42.1156,-34.39085 -61.84146,-53.079 -14.11655,-13.57538 -27.83022,-27.60407 -42.55259,-40.52903 -41.7363,-32.71973 -88.00899,26.30432 -46.27269,59.02405 z"/>
<path d="m 209.30338,735.79951 c 5.39968,-1.21015 5.21813,-1.21694 11.8245,-2.39684 5.75272,-1.02745 24.12337,-4.0803 28.5993,-4.84528 6.79308,-1.161 13.5812,-2.35084 20.3718,-3.52626 8.06522,-1.37324 16.13044,-2.74647 24.19567,-4.1197 42.43601,-7.06488 84.91315,-13.99885 127.63501,-19.13387 32.72359,-3.93326 39.00396,-4.19914 71.89611,-7.04368 45.01029,-3.31104 90.14903,-4.96346 135.28237,-4.68122 22.58534,0.14124 31.3763,0.58517 53.46071,1.33708 18.50388,0.54412 36.92842,2.26344 55.33039,4.15781 52.75786,5.39524 60.38788,-69.21564 7.63002,-74.61088 v 0 c -20.0978,-2.04305 -40.21906,-3.90477 -60.42474,-4.50405 -23.33718,-0.78459 -32.37871,-1.24146 -56.26771,-1.37947 -47.20624,-0.2727 -94.41762,1.46954 -141.49312,4.96137 -12.60546,1.09682 -25.22416,2.05079 -37.81637,3.29047 -56.2488,5.53758 -112.10596,14.28751 -167.82189,23.67057 -8.1333,1.38493 -16.2666,2.76985 -24.3999,4.15477 -6.67299,1.15535 -13.34349,2.32518 -20.01897,3.46605 -15.40509,2.63281 -30.90681,4.87307 -46.13519,8.43291 -51.45632,12.83541 -33.30431,85.60563 18.15201,72.77022 z"/>
<path d="m 549.74189,596.77077 c 6.80941,19.03391 10.37526,38.98994 13.84723,58.83795 4.91599,32.08779 6.52099,64.64698 5.50563,97.08124 -0.20465,6.53702 -0.6407,13.06474 -0.96105,19.5971 -1.95019,32.27449 -7.02351,64.23142 -13.99652,95.77147 -3.22866,12.95532 -6.17525,26.21289 -12.13854,38.25061 -0.99724,2.09017 -2.40286,3.62429 -4.2238,4.94397 0.0255,-0.0939 -0.57838,0.0745 -0.5716,0.0695 1.46526,-1.07146 3.1686,-1.59142 4.55383,-2.7611 -0.38053,-0.40292 -0.66035,-0.93388 -1.14159,-1.20876 -2.03199,-1.16065 -4.33524,-1.81627 -6.32128,-3.05392 -7.24526,-4.51508 -8.04395,-6.47384 -13.94998,-13.12372 -38.04723,-36.94467 -90.29488,16.86223 -52.24765,53.8069 v 0 c 6.36198,5.81349 12.19771,12.26132 19.08596,17.44048 10.89497,8.19174 24.67265,14.8424 37.91665,18.30767 5.84822,1.53018 11.94303,1.88055 17.91455,2.82083 4.51214,-0.3084 9.06922,-0.21898 13.53641,-0.92518 11.51764,-1.82077 21.70064,-7.60814 30.57006,-14.89232 3.34426,-2.99691 4.67018,-4.04561 7.78149,-7.44139 6.0472,-6.60011 10.98347,-14.10048 14.982,-22.09851 1.05699,-2.30205 2.17754,-4.57597 3.17098,-6.90615 6.4529,-15.13572 10.52121,-31.15762 14.33128,-47.11629 7.81296,-35.67338 13.55405,-71.80063 15.66199,-108.29853 0.3469,-7.40861 0.82461,-14.81225 1.0407,-22.22583 1.08192,-37.11697 -0.89472,-74.36214 -6.63879,-111.06089 -4.3047,-24.24945 -8.86945,-48.58731 -17.35114,-71.79435 -18.37007,-49.74978 -88.72688,-23.77058 -70.35682,25.9792 z"/>
<path d="m 375.6902,810.2319 c 12.4977,1.96487 25.00956,4.2767 37.15805,7.86626 3.71086,1.09646 7.35194,2.41656 11.02791,3.62484 3.56136,1.36802 7.12271,2.73604 10.68407,4.10406 49.58551,18.80896 76.1854,-51.31554 26.59989,-70.12451 v 0 c -4.75503,-1.78658 -9.51006,-3.57316 -14.26508,-5.35974 -5.092,-1.61924 -10.14231,-3.37593 -15.27599,-4.85772 -15.84967,-4.57485 -32.15928,-7.61711 -48.48266,-9.88264 -52.77098,-5.26526 -60.21718,69.36419 -7.44619,74.62945 z"/>
</svg>
