<?xml version="1.0" ?>
<svg xmlns="http://www.w3.org/2000/svg" width="1000" height="1000">
<path d="m 560.85334,156.37479 c -1.23006,1.2325 -2.39122,2.53784 -3.69017,3.6975 -4.09286,3.65396 -13.2199,10.44376 -16.55655,12.93901 -12.26027,9.1686 -20.00699,14.89543 -33.06038,23.52366 -7.01068,4.63402 -14.17632,9.02922 -21.26448,13.54384 -30.80239,19.00348 -61.82701,37.64363 -92.77482,56.40873 -45.34796,27.4966 -6.46189,91.62829 38.88606,64.13169 v 0 c 31.44008,-19.06361 62.9621,-37.99408 94.24135,-57.32122 7.84277,-5.01574 15.77125,-9.89993 23.52831,-15.04724 13.15484,-8.72906 23.60945,-16.31832 36.05937,-25.706 10.31647,-7.77897 14.97839,-11.2492 24.10077,-19.5664 1.65147,-1.50569 3.14951,-3.1715 4.72426,-4.75726 36.66088,-38.32075 -17.53284,-90.16706 -54.19372,-51.84631 z"/>
<path d="m 347.74159,275.91542 c 5.41253,16.47256 10.77743,32.98003 15.36116,49.70712 1.44375,5.26859 2.73734,10.57718 4.106,15.86576 5.72308,24.24297 9.29628,48.9529 11.50155,73.75153 1.37104,15.41761 1.59081,22.96599 2.3514,38.40381 1.29774,30.42552 0.0605,60.85897 -2.50878,91.1783 -0.91666,10.48503 -2.13112,20.94397 -4.31676,31.24421 -2.71305,14.19401 -1.68565,28.22826 12.51486,39.70914 8.91279,7.20585 22.05342,6.70603 33.44246,7.99132 2.5386,0.28648 18.27544,-6.17737 20.37889,-6.99833 39.68511,-16.29894 77.82762,-36.02427 115.80861,-55.89359 22.21327,-11.76861 44.31226,-23.74935 66.39287,-35.76417 46.58285,-25.34835 10.73487,-91.22644 -35.84797,-65.87809 v 0 c -21.72327,11.82134 -43.46523,23.60799 -65.31737,35.1902 -35.63939,18.65398 -71.40946,37.21177 -108.61295,52.59954 -2.18025,0.8792 -4.4156,1.63253 -6.54077,2.6376 -0.12861,0.0608 0.14112,0.28214 0.27682,0.32487 9.5829,3.01732 21.41523,2.04095 28.81597,8.83544 7.77405,7.13723 8.96233,19.14592 12.49431,29.09082 0.14384,0.40501 -0.97133,6.88967 -0.40945,3.58205 2.78191,-13.31947 4.51149,-26.81545 5.65554,-40.37257 2.82239,-33.65665 4.16127,-67.4399 2.68074,-101.21007 -0.8711,-17.29689 -1.09756,-25.19785 -2.67332,-42.5484 -2.58862,-28.50325 -6.81658,-56.88919 -13.49669,-84.73359 -1.56032,-5.98473 -3.0422,-11.99047 -4.68094,-17.95421 -4.63185,-16.85632 -9.97664,-33.5211 -15.47938,-50.10936 -15.09721,-50.83871 -86.994,-29.48804 -71.8968,21.35067 z"/>
<path d="m 626.09731,328.76421 c 18.2353,-6.24641 36.83604,-11.30167 55.72275,-15.1556 6.33797,-1.29329 12.71465,-2.38902 19.07198,-3.58353 23.6516,-4.13542 47.50521,-7.25705 71.52701,-7.92611 11.12812,-0.30994 13.6338,-0.0746 24.18067,0.2912 5.15744,0.90417 11.20948,0.0856 16.19207,2.25186 0.13391,0.0582 -0.24602,0.23314 -0.38867,0.20199 -0.84655,-0.18485 -1.69065,-0.43639 -2.46506,-0.82511 -1.25002,-0.62744 -2.3802,-1.46955 -3.57029,-2.20432 -3.01788,-2.91205 -3.18538,-2.71165 -5.14603,-5.56239 -0.32877,-0.47802 -0.40363,-1.18322 -0.89391,-1.49343 -0.30524,-0.19314 0.12251,0.71281 0.21289,1.06253 0.35501,1.37375 0.75448,2.73564 1.12276,4.10589 0.55944,2.08154 1.10691,4.16628 1.66036,6.24942 5.95044,21.37052 11.86635,42.84227 14.37397,64.94817 0.66708,5.88062 0.94908,11.79856 1.42362,17.69783 0.0426,6.14932 0.29414,12.30074 0.12765,18.44794 -0.34849,12.86633 -1.66199,26.00162 -3.31917,38.75326 -1.64633,12.66813 -3.76567,25.52064 -6.44761,38.01639 -1.23387,5.74886 -2.74434,11.43485 -4.1165,17.15228 -3.72032,14.1823 -8.77971,27.94557 -14.76534,41.31655 -2.85106,6.36884 -6.54916,14.05022 -10.08289,20.16407 -1.37149,2.37288 -2.94478,4.62324 -4.41717,6.93486 -1.17879,1.50102 -6.1533,7.98678 -8.88317,8.06395 -0.34834,0.01 -0.0581,-0.76697 0.1684,-1.03177 2.42798,-2.83817 2.56296,-0.58193 2.03659,-2.98681 -17.62388,-7.31866 -34.73584,-16.54915 -49.7772,-28.37959 -4.46899,-3.51498 -8.59082,-7.45022 -12.88623,-11.17533 -40.41272,-34.34112 -88.97839,22.8111 -48.56567,57.15221 v 0 c 6.18967,5.1847 12.1585,10.64508 18.56902,15.55408 10.23545,7.83802 22.60293,15.52753 33.93952,21.76559 10.00459,5.50512 22.09414,11.5097 32.97503,15.1321 5.58865,1.86055 11.40058,2.96738 17.10086,4.45107 6.16881,0.34302 12.34694,1.51136 18.50642,1.02906 21.66038,-1.69606 38.69833,-13.09459 52.41136,-29.18976 2.91985,-3.42707 5.40596,-7.20118 8.10894,-10.80177 2.34327,-3.8292 4.81681,-7.58168 7.02982,-11.48762 14.03994,-24.78039 23.99019,-51.77869 31.50006,-79.17253 1.61245,-6.84331 3.38431,-13.65101 4.83735,-20.52993 2.98873,-14.14908 5.52064,-29.5682 7.32259,-43.90353 2.00798,-15.97434 3.46031,-31.63474 3.74933,-47.74777 0.14283,-7.96255 -0.2615,-15.92552 -0.39225,-23.88828 -0.67006,-7.54694 -1.10452,-15.11852 -2.01016,-22.64082 -2.98323,-24.77873 -9.30382,-48.94302 -16.03586,-72.9172 -2.30661,-8.66786 -4.2382,-17.73358 -8.32409,-25.78945 -3.97254,-7.83237 -5.27178,-8.37853 -11.3577,-15.41862 -7.71376,-5.94815 -8.33346,-7.2205 -17.26292,-11.02964 -12.56066,-5.35813 -26.43503,-6.34057 -39.87298,-7.23741 -13.12781,-0.38911 -16.53857,-0.67573 -30.21615,-0.24046 -27.46974,0.87418 -54.76141,4.36523 -81.80751,9.142 -7.17006,1.36214 -14.36339,2.60704 -21.51018,4.0864 -22.25054,4.60579 -44.18489,10.61789 -65.63904,18.10409 -49.67,18.5847 -23.38727,88.82869 26.28273,70.24399 z"/>
<path d="m 590.23553,383.60714 c 1.21031,21.83912 1.6611,43.70385 2.05669,65.5699 0.21896,57.53408 -0.35993,115.07034 -0.78773,172.60296 -0.7791,55.20457 -1.10471,110.41384 -1.8227,165.61896 -0.68915,53.02853 74.30452,54.00314 74.99367,0.97461 v 0 c 0.7187,-55.34414 1.04792,-110.69238 1.82696,-166.03598 0.43244,-58.17232 1.0251,-116.34851 0.77744,-174.52227 -0.43804,-24.03533 -0.8748,-48.08379 -2.45825,-72.07689 -5.56402,-52.74032 -80.1501,-44.87161 -74.58608,7.86871 z"/>
<path d="m 129.20589,246.79867 c 14.83621,18.23802 27.70583,37.8995 40.61523,57.51017 3.19027,4.73346 6.38053,9.46693 9.5708,14.20039 29.6455,43.97322 91.83302,2.04815 62.18752,-41.92507 v 0 c -3.03856,-4.50576 -6.07711,-9.01152 -9.11567,-13.51728 -14.27797,-21.68419 -28.60375,-43.36266 -45.01617,-63.52182 -33.41335,-41.18311 -91.655053,6.0705 -58.24171,47.25361 z"/>
<path d="m 102.76227,471.83653 c 18.8515,-2.30862 37.62272,-5.26353 56.36641,-8.31555 27.35882,-4.49222 54.61482,-9.71269 82.189,-12.72819 5.63836,-0.39173 11.31943,-1.04585 16.98461,-0.73587 0.3428,0.0188 1.35118,0.2387 1.00976,0.20282 -10.80228,-1.13537 -5.28756,-0.96556 -21.69365,-10.97702 -17.3412,-41.1133 -6.30116,-6.57419 -8.24987,-28.69688 -0.0424,-0.48154 -0.77297,0.6018 -1.05692,0.99302 -1.29366,1.78238 -2.44091,3.66657 -3.65749,5.50242 -8.24892,12.44788 -4.34392,6.39659 -13.13825,20.62279 -2.46922,4.59804 -5.12628,9.10005 -7.40766,13.79412 -9.87908,20.32677 -17.19705,42.71626 -18.77981,65.37914 -0.43645,6.24941 -0.0643,12.52909 -0.0965,18.79363 0.97806,6.45712 1.50078,12.99983 2.93417,19.37135 4.04674,17.98794 12.07002,34.77641 22.35954,49.98408 6.9211,10.22922 12.59287,16.35354 20.50929,25.59028 7.79582,8.89537 16.21442,17.24521 23.7861,26.34018 2.23135,2.68027 5.8949,7.09932 7.41032,10.62979 0.24431,0.56915 0.088,1.23561 0.13203,1.85342 -2.14179,-0.31497 -1.41608,-3.28991 -2.88644,-4.06347 -0.62648,-0.32959 -1.28738,0.63894 -1.79965,1.12749 -1.49116,1.42208 -2.7418,3.07795 -4.16875,4.56444 -8.54845,8.9051 -6.97264,7.12004 -16.9251,15.81289 -3.55837,2.56623 -7.05081,5.22644 -10.67511,7.69868 -8.09955,5.52494 -16.39496,10.40831 -24.64004,15.70861 -13.05353,8.39138 -25.79396,17.24908 -38.59393,26.01806 -3.43368,2.31396 -6.86736,4.62792 -10.30104,6.94188 -43.97617,29.64113 -2.05729,91.83283 41.91888,62.1917 v 0 c 3.59011,-2.42026 7.18023,-4.84053 10.77034,-7.26079 11.98203,-8.20882 23.89237,-16.53467 36.11238,-24.3892 10.07355,-6.47486 19.50491,-11.97334 29.33957,-18.91689 5.46814,-3.86066 10.69848,-8.04758 16.04772,-12.07137 4.72862,-4.29039 9.66609,-8.36131 14.18586,-12.87119 8.96339,-8.94376 18.52341,-19.83937 24.58608,-31.06097 7.05171,-13.05225 10.45022,-24.90518 9.97926,-39.91514 -0.19136,-6.09886 -2.36838,-11.9717 -3.55257,-17.95755 -2.0643,-4.52622 -3.81449,-9.20932 -6.19288,-13.57867 -2.04058,-3.74876 -4.52858,-7.24341 -7.02554,-10.70496 -9.11825,-12.64061 -20.50211,-23.44245 -30.74822,-35.12127 -4.81799,-5.51917 -9.40214,-10.51687 -13.73302,-16.41861 -6.71708,-9.15347 -11.73822,-19.34918 -13.83674,-30.56262 -0.1602,-2.79604 -0.55587,-5.58851 -0.48061,-8.38813 0.36149,-13.44684 4.94761,-27.48529 10.61518,-39.57043 1.53232,-3.26742 3.3372,-6.39994 5.0058,-9.5999 12.64695,-20.5984 -1.10488,1.56258 12.47893,-19.57248 3.79642,-5.90685 10.26952,-15.73603 12.43335,-22.46128 1.82292,-5.66573 4.34312,-11.5659 3.65328,-17.47755 -1.0733,-9.1978 -5.84587,-17.57361 -8.76881,-26.36041 -6.55672,-4.51764 -12.63263,-9.8283 -19.67016,-13.55291 -2.98706,-1.58091 -6.57658,-1.59727 -9.91762,-2.10643 -2.29497,-0.34975 -4.62868,-0.389 -6.94893,-0.46398 -8.53504,-0.27583 -17.07452,0.46857 -25.56655,1.19134 -28.84093,3.22986 -57.38874,8.44103 -85.99831,13.24942 -17.63769,2.87963 -35.3034,5.66275 -53.041673,7.84961 -52.671357,6.18289 -43.927429,80.67144 8.743933,74.48855 z"/>
<path d="m 110.46242,828.21003 c 10.36634,-4.60971 21.24036,-7.96565 32.35664,-10.21496 3.86363,-0.78178 7.76009,-1.39152 11.64014,-2.08728 28.42879,-3.86286 57.26484,-3.65999 85.81197,-1.25725 6.83268,0.57509 13.64101,1.40986 20.46152,2.11479 44.46408,5.39317 87.75037,17.14119 130.86552,28.86256 30.86292,8.36046 61.58197,17.28414 92.68124,24.74865 22.1475,5.31589 24.50087,5.57249 46.82703,10.05903 37.98884,7.19797 76.41653,12.13919 115.02511,14.34547 7.52421,0.42997 15.0591,0.64643 22.58866,0.96964 41.56903,1.23074 83.16429,-0.27458 124.6841,-2.2837 20.89319,-0.89399 41.58503,-3.90235 62.25954,-6.83555 52.50172,-7.48792 41.91221,-81.73657 -10.58952,-74.24865 v 0 c -18.36422,2.63441 -36.74071,5.37707 -55.30499,6.17234 -39.25445,1.91025 -78.58039,3.35664 -117.88288,2.26243 -6.81976,-0.28311 -13.64431,-0.46811 -20.45929,-0.84932 -35.43911,-1.98234 -70.71334,-6.48915 -105.58577,-13.07096 -20.53454,-4.10146 -22.8143,-4.35557 -43.28772,-9.26034 -30.63482,-7.33912 -60.88306,-16.16325 -91.28551,-24.38369 -47.06734,-12.78825 -94.36227,-25.42263 -142.92774,-31.10105 -7.789,-0.7847 -15.56436,-1.71921 -23.367,-2.3541 -34.64194,-2.81876 -69.62892,-2.74769 -104.06172,2.3434 -5.13886,0.9606 -10.30304,1.79443 -15.41657,2.88179 -15.59913,3.31705 -30.852519,8.16904 -45.43625,14.62562 -48.480036,21.49852 -18.076545,90.05964 30.40349,68.56113 z"/>
</svg>
