<?xml version="1.0" ?>
<svg xmlns="http://www.w3.org/2000/svg" viewBox="0 0 1000 1000">
<path d="m 669.12488,138.85905 c 0.57238,-1.35739 1.46205,-2.62129 1.71713,-4.07217 0.0871,-0.49524 -0.81086,0.60047 -1.16885,0.95357 -1.8389,1.81377 -3.57221,3.73275 -5.41612,5.54142 -6.7526,6.62361 -15.39996,14.70006 -22.40823,20.69981 -5.33658,4.56862 -10.8571,8.9179 -16.28565,13.37685 -6.49687,4.89717 -12.95681,9.84374 -19.49062,14.69152 -12.83743,9.52479 -31.98875,23.34301 -44.89922,32.56529 -12.85025,9.17928 -32.26295,22.97174 -45.49246,31.82222 -7.2153,4.82701 -14.56977,9.44265 -21.85465,14.16398 -44.48737,28.86821 -3.66156,91.78286 40.82581,62.91465 v 0 c 7.86921,-5.11228 15.80995,-10.11611 23.60763,-15.33685 13.56365,-9.08121 33.50149,-23.24316 46.71845,-32.68591 12.62715,-9.02137 33.80325,-24.29291 46.32056,-33.61364 7.36986,-5.48779 14.64668,-11.09942 21.97002,-16.64913 6.26866,-5.18337 12.64041,-10.24452 18.80597,-15.5501 7.55819,-6.50397 19.16247,-17.28399 26.44585,-24.62536 4.8208,-4.85918 11.72364,-12.11374 15.61027,-18.02491 1.91461,-2.91191 3.31657,-6.13027 4.97485,-9.19541 19.07479,-49.48386 -50.90595,-76.459687 -69.98074,-26.97583 z"/>
<path d="m 448.38696,320.14168 c 3.30928,14.26867 3.24252,29.10217 3.29911,43.66185 -0.35835,5.08306 -0.54488,10.18116 -1.07505,15.24918 -2.95105,28.20961 -9.17384,57.00421 -17.48185,84.09152 -2.46829,8.04758 -5.3237,15.97129 -7.98554,23.95694 -8.1184,23.44067 -18.242,46.1161 -29.71144,68.09606 -3.55881,6.82008 -7.38509,13.49721 -11.07763,20.24582 -25.39723,46.55621 40.44319,82.47331 65.84042,35.9171 v 0 c 4.14733,-7.62284 8.4512,-15.16257 12.44199,-22.86852 13.01165,-25.12459 24.46696,-51.04572 33.70161,-77.80489 3.02403,-9.17763 6.27476,-18.28365 9.07209,-27.5329 5.51246,-18.22672 9.26902,-33.57854 12.94302,-52.17034 2.92708,-14.81207 5.68012,-32.0443 7.10317,-47.12451 0.64634,-6.84942 0.81814,-13.73536 1.22722,-20.60304 -0.0574,-5.75123 0.0168,-11.50529 -0.17218,-17.2537 -0.49882,-15.17557 -1.96533,-30.47296 -5.6682,-45.22604 -13.69346,-51.23465 -86.15019,-31.86918 -72.45674,19.36547 z"/>
<path d="m 488.82613,513.42361 c 3.23361,-1.41154 4.59056,-2.00479 8.20738,-3.57784 7.49542,-3.25998 10.47086,-4.65381 18.521,-7.63412 12.96642,-4.80042 17.1294,-5.91186 30.86572,-10.24604 35.65752,-10.47776 72.36753,-16.90571 109.30974,-20.67052 7.65866,-0.7805 15.3407,-1.31139 23.01105,-1.96708 33.76726,-2.26498 67.69402,-2.98607 101.44104,-0.15603 6.22156,0.77225 8.26828,0.91777 14.04132,1.9835 1.29408,0.23889 2.58516,0.50237 3.85927,0.83154 0.27504,0.0711 1.04841,0.42256 0.77033,0.36452 -0.82446,-0.17208 -1.61661,-0.47323 -2.42492,-0.70985 48.35431,21.77983 79.15564,-46.60349 30.80133,-68.38331 v 0 c -2.38825,-0.94826 -4.72986,-2.02363 -7.16474,-2.84477 -10.8619,-3.66306 -22.4847,-4.51415 -33.76114,-5.99139 -12.63146,-1.0143 -15.37529,-1.37949 -28.60833,-1.7843 -28.4731,-0.87102 -56.99326,0.0692 -85.40501,1.96803 -8.47083,0.7378 -16.95483,1.33735 -25.41248,2.21339 -41.62373,4.31137 -82.96267,11.72732 -123.10907,23.64869 -6.41924,2.04098 -12.8714,3.9812 -19.25774,6.12294 -15.55301,5.2159 -30.74731,11.34209 -45.68947,18.09607 -48.6041,21.21654 -18.59938,89.95311 30.00472,68.73657 z"/>
<path d="m 592.73582,458.09273 c 0,22.05878 0,44.11757 0,66.17635 0.32821,49.08326 0.14403,98.1674 0.21896,147.25118 0.51149,42.21559 0.34461,84.42639 -0.25981,126.63911 -0.75829,53.02758 74.23404,54.09997 74.99233,1.07239 v 0 c 0.60853,-42.60839 0.78285,-85.2151 0.2674,-127.82636 -0.0754,-49.0455 0.11002,-98.09135 -0.21888,-147.13632 0,-22.05878 0,-44.11757 0,-66.17635 0,-53.03301 -75,-53.03301 -75,0 z"/>
<path d="m 201.82883,226.57413 c 11.36403,7.78688 20.19115,18.70099 28.78141,29.31479 8.5475,11.55803 4.38208,5.76839 12.50314,17.36397 30.483,43.39685 91.85541,0.28738 61.37241,-43.10948 v 0 c -10.00069,-14.20248 -4.74651,-6.95561 -15.80062,-21.71292 -3.03417,-3.68687 -5.97639,-7.45139 -9.10252,-11.06061 -11.21189,-12.94448 -23.62182,-25.13056 -38.06787,-34.43556 -45.00014,-28.06221 -84.68609,35.5776 -39.68595,63.63981 z"/>
<path d="m 148.27186,431.08938 c 16.9008,-2.3999 33.82794,-4.61624 50.73918,-6.94794 25.40222,-3.92429 50.9002,-7.00362 76.54054,-8.79278 6.84223,-0.42817 13.69189,-0.73307 20.54489,-0.91881 0.18078,-0.005 5.81804,-0.31383 6.53263,0.0337 -17.49699,-1.79314 -23.96807,-11.10159 -31.12728,-27.11307 -1.45329,-3.25027 -0.49219,-7.10403 -0.79516,-10.65149 -0.0156,-0.1828 -0.0685,-0.68608 -0.15952,-0.52678 -0.49307,0.8632 -0.7458,1.84301 -1.11869,2.76451 -6.70093,15.57408 -13.26532,31.23099 -18.11867,47.50047 -1.32545,4.44318 -2.43952,8.94669 -3.65928,13.42003 -4.35148,18.65663 -7.19006,37.81298 -6.37653,57.02457 0.57133,13.4921 1.59235,16.33373 4.07195,29.49225 4.35027,18.18425 11.7883,35.40214 20.88899,51.68379 4.51706,8.08129 7.93727,13.21566 12.8685,20.95648 9.42461,14.60769 19.30035,28.91497 28.85762,43.43458 2.16557,3.65756 4.90103,7.10998 6.46422,11.10941 0.12263,0.31374 0.45481,0.84309 0.15593,0.99846 -0.28912,0.1503 -0.47421,-0.46594 -0.61516,-0.75973 -0.298,-0.62117 -0.45658,-1.30005 -0.68488,-1.95008 3.18713,1.95504 -0.2669,-3.57917 -0.95799,-2.85231 -0.77466,0.81474 -1.26813,1.85693 -1.92191,2.77152 -1.21273,1.69653 -2.38244,3.4267 -3.67731,5.06141 -4.98116,6.28848 -5.9718,6.90612 -11.94105,12.87849 -9.14505,8.58343 -18.77755,16.70562 -29.36523,23.47509 -3.94327,2.52121 -8.07728,4.73087 -12.11592,7.09631 -45.53299,27.18909 -7.08181,91.58246 38.45118,64.39337 v 0 c 5.70579,-3.45325 11.54436,-6.69605 17.11735,-10.35974 14.3008,-9.40134 27.38449,-20.51268 39.70951,-32.34707 3.68311,-3.857 7.52682,-7.56678 11.04932,-11.571 11.51208,-13.08642 23.03592,-29.93759 26.94513,-47.18013 0.9986,-4.4046 1.11874,-8.96321 1.67811,-13.44481 -0.31847,-3.90187 -0.3205,-7.84259 -0.95539,-11.7056 -2.22947,-13.56525 -9.29465,-25.54078 -16.69237,-36.8542 -9.37236,-14.23422 -19.04281,-28.26933 -28.30234,-42.57849 -9.48174,-14.78214 -18.81337,-29.90317 -23.42595,-47.03026 -1.42657,-6.3179 -2.15443,-8.43365 -2.60276,-14.97663 -0.85909,-12.53752 1.14802,-25.06197 3.7989,-37.27038 2.41027,-9.11371 2.63804,-10.64237 5.69184,-19.54027 4.12574,-12.02125 9.46686,-23.55793 14.18535,-35.34583 3.20295,-9.2108 8.30407,-23.0639 4.91946,-32.68024 -2.94298,-8.36158 -7.41358,-16.48441 -13.54802,-22.88329 -6.96914,-7.26957 -14.8315,-7.83546 -23.38597,-9.25141 -12.54841,-0.70507 -25.11109,0.22502 -37.64472,0.882 -27.30388,1.93325 -54.47163,5.12261 -81.52396,9.31099 -15.47272,2.13364 -31.5465,4.11484 -46.70904,6.50288 -52.85064,4.39431 -46.636134,79.1364 6.2145,74.74208 z"/>
<path d="m 135.31445,781.01044 c 10.42765,0.69683 20.87721,0.93934 31.31659,1.40431 24.7218,1.10424 49.4689,1.37022 74.20281,2.1034 27.74539,0.81371 55.46202,2.29638 83.11765,4.66045 27.44366,2.59243 54.66634,6.98519 81.70498,12.27936 31.73433,7.18722 63.14875,15.68827 94.79853,23.23246 32.41215,7.51336 65.14291,13.52515 97.95109,19.00859 27.61809,4.204 55.37071,7.45855 83.10999,10.74385 25.15139,3.29398 50.44717,5.12708 75.78482,6.09005 25.25256,0.61681 50.49523,2.17623 75.76282,2.05849 6.68678,-0.0312 13.37162,-0.23583 20.05743,-0.35375 7.30219,-0.29926 14.60439,-0.59852 21.90658,-0.89778 52.98754,-2.1957 49.88235,-77.13139 -3.10519,-74.93569 v 0 c -6.72564,0.28203 -13.45128,0.56405 -20.17692,0.84608 -5.99864,0.11476 -11.99628,0.30884 -17.9959,0.34428 -24.5619,0.14506 -49.10042,-1.43852 -73.64823,-2.00933 -23.32749,-0.85477 -46.61179,-2.58488 -69.76508,-5.62189 -26.55844,-3.14499 -53.12924,-6.25958 -79.57797,-10.24012 -31.12352,-5.19175 -62.17328,-10.88776 -92.92463,-17.99151 -32.65097,-7.77183 -65.03864,-16.62297 -97.81032,-23.88479 -29.6897,-5.778 -59.57421,-10.60535 -89.70825,-13.39783 -29.03591,-2.46391 -58.13225,-4.05525 -87.26178,-4.89807 -24.36753,-0.72065 -48.74773,-0.98911 -73.10368,-2.06278 -11.54536,-0.50878 -23.09415,-0.90505 -34.63534,-1.47778 -53.033004,0 -53.033004,75 0,75 z"/>
</svg>
