<?xml version="1.0" ?>
<svg xmlns="http://www.w3.org/2000/svg" viewBox="0 0 1000 1000">
<path d="m 429.60789,137.9126 c -4.54033,17.81093 -9.63219,35.52218 -15.90933,52.81226 -2.41369,6.64839 -5.09961,13.19477 -7.64941,19.79215 -15.02433,37.06533 -30.7233,73.84925 -47.7166,110.05578 -11.33086,23.50979 -23.32777,42.71562 4.37169,68.91642 14.9873,14.17643 34.76208,6.01511 50.06737,1.59441 34.2217,-11.804 69.22974,-21.27483 104.84187,-27.82291 9.27605,-1.70561 18.60854,-3.08851 27.91282,-4.63277 34.06514,-5.14761 68.42901,-8.30898 102.87514,-9.10368 16.36056,-0.37746 20.3652,-0.12091 35.96851,0.24087 16.05894,0.90599 8.54151,0.37167 22.5577,1.52509 52.85994,4.28097 58.91415,-70.47427 6.05421,-74.75525 v 0 c -16.77692,-1.34047 -7.79536,-0.72586 -26.95084,-1.75144 -17.5188,-0.37218 -22.206,-0.6561 -40.46725,-0.20557 -37.63074,0.9284 -75.17102,4.40323 -112.38086,10.07268 -10.1884,1.70817 -20.40858,3.23651 -30.56519,5.12451 -38.17555,7.0964 -75.74264,17.18382 -112.45855,29.79848 -15.03141,6.09223 7.29818,-4.18709 17.59809,9.95538 7.85144,10.78057 7.99621,25.4556 11.4269,38.34343 0.13336,0.50096 -1.07497,1.76313 -0.87838,1.28344 1.01528,-2.47731 7.59044,-16.03081 7.92648,-16.72984 17.73898,-37.82995 34.16505,-76.24697 49.81787,-114.98574 2.91376,-7.60798 5.9802,-15.15922 8.74129,-22.82393 4.51789,-12.54152 8.37558,-25.03048 12.02536,-37.83129 2.72687,-9.56388 5.29923,-18.72287 6.826,-28.55049 0.53049,-3.41471 0.6434,-6.88133 0.96511,-10.32199 0,-53.033005 -75,-53.033005 -75,0 z"/>
<path d="m 329.96787,563.34431 c 26.21566,-11.30722 54.19729,-17.6981 81.86107,-24.31657 55.79227,-12.29439 112.42583,-20.51114 169.18456,-26.81299 12.36132,-1.37247 24.74789,-2.50705 37.12183,-3.76057 47.29098,-3.89574 94.87941,-7.34546 142.35607,-4.98692 5.08257,0.25249 10.15105,0.73585 15.22657,1.10377 3.63658,0.43318 7.27316,0.86636 10.90974,1.29953 52.6818,6.09324 61.29895,-68.41008 8.61714,-74.50332 v 0 c -4.74902,-0.53671 -9.49805,-1.07342 -14.24708,-1.61014 -6.05949,-0.4179 -12.11143,-0.96552 -18.17847,-1.2537 -50.7833,-2.41221 -101.67473,1.07983 -152.25672,5.33407 -12.84876,1.3063 -25.71057,2.49006 -38.54628,3.9189 -59.61968,6.63669 -119.09821,15.34194 -177.68582,28.34124 -31.64494,7.61271 -63.56087,15.15842 -93.53023,28.15075 -48.85821,20.62463 -19.69059,89.72057 29.16762,69.09595 z"/>
<path d="m 563.09852,201.84368 c -2.40569,34.74375 -7.67458,69.21859 -12.92853,103.62064 -9.56962,62.12082 -22.75262,123.73487 -41.60557,183.73514 -4.22363,13.44191 -8.94595,26.72201 -13.41892,40.08301 -19.38538,52.84822 -41.59383,104.86755 -69.40613,153.8867 -16.58935,29.23872 -20.22134,33.29317 -38.87203,60.3663 -24.83047,31.34248 -12.45496,16.62207 -36.93921,44.31801 -35.04221,39.80633 21.25244,89.3635 56.29465,49.55717 v 0 c 28.15647,-32.10163 13.91754,-15.01626 42.48876,-51.44531 20.7104,-30.29688 24.88286,-35.04181 43.21507,-67.52225 29.75676,-52.72207 53.6461,-108.57915 74.35427,-165.39599 4.75496,-14.26125 9.77672,-28.4363 14.26488,-42.78375 19.77163,-63.20466 33.6889,-128.07586 43.76682,-193.49079 5.70465,-37.45007 11.45625,-74.9958 13.75689,-112.8417 1.47586,-53.01247 -73.49509,-55.09965 -74.97095,-2.08718 z"/>
<path d="m 622.92622,651.89425 c 15.97857,11.09151 29.30657,25.35879 42.47173,39.53334 21.99214,24.00837 40.68756,50.71624 57.52773,78.51076 5.58132,9.75537 11.57986,19.50837 14.67145,30.40065 16.06129,50.54241 87.53905,27.82831 71.47775,-22.71409 v 0 c -0.88384,-2.67555 -1.67332,-5.38414 -2.65153,-8.02665 -5.01458,-13.54617 -12.11978,-26.18934 -19.40657,-38.61284 -2.55168,-4.18736 -5.03692,-8.41594 -7.65505,-12.56208 -17.46486,-27.65778 -37.1306,-53.9372 -59.12706,-78.16149 -4.58754,-4.89797 -9.06864,-9.89786 -13.76262,-14.69392 -13.1296,-13.41517 -27.52307,-26.65034 -43.35153,-36.87247 -2.17592,-1.40523 -4.4756,-2.60885 -6.71339,-3.91327 -47.4554,-23.67458 -80.93631,43.43748 -33.48091,67.11206 z"/>
<path d="m 103.96636,194.18934 c 14.12107,12.82527 28.80816,25.04071 42.67122,38.15135 3.84606,3.63731 7.5358,7.43643 11.30369,11.15464 13.25978,14.58348 6.9033,7.31151 19.10258,21.78692 34.25908,40.48229 91.50968,-7.96737 57.2506,-48.44965 v 0 c -14.997,-17.66044 -7.09428,-8.70111 -23.77375,-26.82001 -4.49304,-4.4032 -8.90649,-8.8891 -13.47912,-13.2096 -13.59493,-12.84533 -27.95201,-24.86615 -41.84083,-37.38626 -38.73008,-36.22817 -89.964463,18.54442 -51.23439,54.77261 z"/>
<path d="m 85.408718,456.30632 c 25.262322,-3.97231 50.279102,-9.42963 75.329572,-14.54885 27.33014,-5.6117 54.66488,-11.30781 82.25902,-15.48485 -8.87807,0.15687 11.41608,-1.0636 8.56287,-0.78916 -28.76481,2.76674 -30.82584,-21.94491 -34.82553,-42.9449 -0.43736,-2.29632 1.45347,-4.44353 2.1802,-6.6653 -10.92879,12.74471 -22.13325,25.30822 -31.658,39.17405 -3.30871,4.81671 -6.31028,9.83735 -9.46542,14.75603 -12.62054,21.58139 -22.58189,44.7502 -27.31683,69.3973 -3.17581,16.53125 -2.67775,20.75538 -3.24613,37.4181 0.7432,24.81012 7.28099,48.77768 18.57632,70.83835 6.61004,12.90993 9.89436,16.82001 18.07215,28.60596 12.47602,17.21972 28.37539,31.62798 41.03848,48.68748 1.59075,2.14303 3.00514,4.41151 4.50771,6.61726 4.5243,7.86769 7.83751,16.90346 6.25366,26.13779 -0.23374,1.36279 -0.80439,2.6458 -1.20659,3.96869 -2.01901,3.97837 -2.58691,5.54414 -5.58612,9.24974 -9.60109,11.86241 -22.64153,20.30118 -35.21266,28.60078 -4.01553,2.38085 -8.03107,4.76169 -12.0466,7.14254 -45.51671,27.21633 -7.02701,91.58669 38.4897,64.37036 v 0 c 5.12761,-3.08622 10.25522,-6.17244 15.38283,-9.25865 13.58151,-9.23792 20.04741,-12.97493 32.32607,-23.97115 14.7035,-13.16779 27.44352,-28.41118 35.16671,-46.7572 2.3209,-5.51316 3.64481,-11.3948 5.46722,-17.0922 0.73944,-5.55316 1.90276,-11.06621 2.21834,-16.6595 1.10181,-19.52849 -3.96666,-39.27388 -12.77542,-56.59183 -2.09429,-4.11736 -4.62065,-8.00027 -6.93097,-12.0004 -2.49515,-3.53476 -4.88458,-7.14658 -7.48546,-10.60429 -11.86919,-15.77934 -26.11975,-29.56094 -38.31728,-45.06652 -2.04171,-2.82101 -4.19273,-5.56606 -6.12514,-8.46305 -9.21692,-13.8176 -15.53572,-29.36422 -16.83314,-46.01403 0.0435,-9.73033 -0.32211,-12.24692 1.27329,-21.98318 2.70573,-16.51221 9.44698,-31.91547 17.63892,-46.39238 6.27701,-10.04866 6.5064,-10.97136 13.68276,-20.28551 8.85032,-11.48677 19.151,-21.79417 27.47324,-33.69596 9.47015,-19.35408 15.87589,-24.97941 -1.50393,-52.14655 -7.27014,-11.36427 -22.12402,-13.18993 -33.86775,-13.22721 -4.07361,-0.0129 -11.2942,1.01769 -15.19485,1.49876 -28.83602,4.41085 -57.42879,10.23516 -85.98806,16.14929 -22.55725,4.60972 -45.09578,9.33618 -67.759584,13.40076 -52.770973,5.26541 -45.32457,79.89483 7.446402,74.62943 z"/>
<path d="m 111.65349,846.73749 c 15.61067,-2.40459 31.30658,-4.3833 47.08567,-5.26352 5.60305,-0.31256 11.21593,-0.41299 16.82389,-0.61949 49.04006,-0.84428 97.89851,4.38798 146.52833,10.08508 47.97403,6.02888 95.58761,14.51219 143.30628,22.23092 30.75357,4.91427 61.62974,8.98502 92.5302,12.84298 25.13399,2.98656 50.26583,5.97465 75.38203,9.10915 37.44871,5.28373 75.16494,7.99192 112.90222,10.10798 55.30006,3.1277 110.58837,-1.22692 165.80728,-3.81345 52.97483,-2.48359 49.46249,-77.4013 -3.51233,-74.91771 v 0 c -9.74208,0.45713 -19.48601,0.87627 -29.22623,1.37138 -42.91727,2.18157 -85.90035,5.05909 -128.88139,2.47676 -36.03338,-2.00907 -72.04684,-4.57924 -107.8016,-9.64763 -25.11495,-3.13434 -50.24531,-6.12451 -75.37831,-9.10869 -30.00399,-3.74601 -59.98553,-7.68989 -89.84743,-12.45868 -48.80296,-7.89205 -97.49881,-16.56588 -146.56918,-22.68535 -52.47954,-6.12686 -105.21323,-11.6509 -158.13253,-10.53693 -6.60373,0.26484 -13.21327,0.41121 -19.81118,0.79453 -17.19121,0.99877 -34.30409,3.10654 -51.31723,5.71742 -52.548825,7.14992 -42.437312,81.46517 10.11151,74.31525 z"/>
</svg>
