<?xml version="1.0" ?>
<svg xmlns="http://www.w3.org/2000/svg" viewBox="0 0 1000 1000">
<path d="m 589.25699,128.53281 c -17.84406,21.23931 -39.7708,38.52914 -61.41018,55.6781 -24.53094,17.92423 -12.03914,9.49274 -37.44831,25.33455 -44.88498,28.24604 -4.93904,91.72298 39.94593,63.47694 v 0 c 30.57593,-19.38615 15.88324,-9.32773 44.14408,-30.07861 6.62177,-5.26834 13.33402,-10.42491 19.86531,-15.80502 18.4681,-15.21299 36.27887,-31.47607 51.7934,-49.73365 34.55794,-40.22747 -22.33229,-89.099772 -56.89023,-48.87231 z"/>
<path d="m 423.8271,261.37343 c -0.10055,-0.13813 -0.32783,-0.58322 -0.30164,-0.41439 0.10866,0.70039 0.37574,1.36686 0.55575,2.05238 0.50848,1.93635 1.06039,3.86224 1.50969,5.81318 0.70308,3.05286 1.38888,6.11178 1.94658,9.19451 2.18431,12.07394 2.60937,17.57129 4.14492,30.44442 6.26423,56.95514 6.57941,114.31238 6.34954,171.53803 -0.80059,46.95768 -2.42255,93.98882 -7.31231,140.72494 -0.6725,6.42765 -1.54004,12.83339 -2.31005,19.25008 -1.88699,11.89387 -2.19322,15.86669 -4.97277,26.8101 -0.65546,2.58061 -1.53536,5.09895 -2.30304,7.64843 -14.73438,50.94505 57.31279,71.78262 72.04718,20.83757 v 0 c 1.18558,-4.20404 2.52294,-8.3682 3.55674,-12.61212 3.39952,-13.95551 3.8684,-19.172 6.14418,-33.80266 0.84218,-7.10198 1.78744,-14.1925 2.52653,-21.30596 5.08161,-48.90867 6.81292,-98.11904 7.62297,-147.2578 0.22861,-60.33552 -0.19472,-120.80653 -6.89291,-180.84696 -2.96486,-24.1752 -5.52948,-49.08149 -15.25931,-71.67468 -23.75945,-47.41296 -90.8115,-13.81203 -67.05205,33.60093 z"/>
<path d="m 487.90564,316.08093 c 19.76687,-2.37992 39.44681,-5.52749 59.15132,-8.39155 41.30857,-6.21587 82.64347,-12.21219 124.18544,-16.64185 15.93224,-1.54396 31.9183,-2.56296 47.92654,-2.74486 7.87527,-0.0895 15.69877,0.0302 23.5266,0.87375 0.59241,0.16593 1.2931,0.11817 1.77721,0.49779 0.30869,0.24206 -0.80277,0.0923 -1.17655,-0.0268 -1.70936,-0.54454 -3.48273,-1.01786 -5.01768,-1.94649 -6.17133,-3.7336 -8.41766,-6.34214 -12.02451,-12.59786 -0.87477,-1.5172 -1.27336,-3.26298 -1.91004,-4.89447 -0.18197,0.14472 -0.48479,0.20984 -0.54591,0.43417 -0.45632,1.67491 -0.61244,3.41794 -0.96658,5.1174 -0.63402,3.04257 -1.26408,6.08714 -1.9976,9.10726 -3.45542,14.22709 -7.77258,28.24489 -11.89038,42.28804 -6.37474,20.44992 -10.5209,41.69531 -18.84854,61.50976 -3.37175,8.02262 -5.31717,10.95913 -9.49572,18.28108 -25.79094,46.33927 39.74269,82.81316 65.53362,36.47389 v 0 c 6.7517,-12.32701 8.82963,-15.34456 14.32612,-28.79529 8.77781,-21.48059 13.82333,-44.20224 20.45601,-66.37193 4.65146,-15.87246 9.54383,-31.72234 13.2906,-47.84227 1.74863,-7.52326 3.96444,-18.45034 4.51036,-26.2593 0.30164,-4.31473 0.0547,-8.65036 0.0821,-12.97553 -1.01597,-4.75789 -1.29963,-9.73347 -3.04791,-14.27365 -5.47801,-14.22613 -14.86448,-22.76419 -28.67788,-28.38637 -5.93991,-2.41759 -11.10394,-2.95039 -17.34263,-4.00886 -3.06705,-0.26723 -6.12775,-0.62162 -9.20115,-0.80169 -25.75613,-1.50903 -51.61463,0.60546 -77.25897,2.76721 -7.03224,0.75367 -14.07129,1.44628 -21.09672,2.26103 -35.40861,4.10636 -70.62791,9.6559 -105.90376,14.73575 -17.78156,2.58456 -35.55619,5.21913 -53.34116,7.777 -52.91607,3.51981 -47.9383,78.35444 4.97777,74.83463 z"/>
<path d="m 508.29271,466.94006 c 13.21348,-5.12912 26.86311,-9.20663 40.70282,-12.26813 5.13302,-1.13549 10.31115,-2.05648 15.46672,-3.08471 24.27291,-4.19962 48.86649,-6.53647 73.49062,-7.14668 14.20033,-0.35191 19.61093,-0.0622 33.53756,0.26969 12.46861,0.41075 24.92471,1.10219 37.37963,1.79945 52.95028,2.96098 57.13774,-71.92203 4.18746,-74.88301 v 0 c -13.2818,-0.74193 -26.56503,-1.47587 -39.862,-1.89705 -16.08495,-0.35047 -22.07596,-0.66805 -38.5158,-0.21763 -28.51135,0.78117 -56.98049,3.56805 -85.06555,8.55969 -6.25863,1.27711 -12.54588,2.42119 -18.77588,3.83133 -17.36645,3.93086 -34.48195,9.13431 -51.04717,15.66371 -49.05435,20.15367 -20.55277,89.527 28.50159,69.37334 z"/>
<path d="m 511.69663,600.70612 c 22.20706,-6.44048 44.90595,-11.05583 67.56752,-15.56546 34.18074,-6.40032 68.73656,-10.99135 103.45267,-13.16606 5.91384,-0.37046 11.83732,-0.56643 17.75598,-0.84964 12.77121,-0.3974 25.571,-0.4614 38.32532,0.41928 5.06766,0.34991 10.12646,0.74597 14.98815,2.2607 -2.16001,0.24629 -2.06153,0.34891 -5.37328,-1.96592 -7.36785,-5.14991 -9.3938,-8.11231 -12.97142,-16.709 -2.18973,-5.26171 0.14109,-7.8965 -1.67778,-5.62715 -4.459,19.51119 -11.49748,38.28877 -17.92081,57.20392 -2.12803,6.26652 -4.21425,12.54715 -6.32138,18.82073 -2.15957,6.39853 -4.25663,12.81849 -6.47871,19.19557 -4.83686,13.88123 -8.3332,23.40616 -13.96243,36.94036 -6.11651,14.70574 -12.97785,29.07121 -19.89269,43.41138 -23.01736,47.77762 44.5504,80.32908 67.56776,32.55146 v 0 c 7.68575,-15.96688 15.27978,-31.96767 22.05661,-48.34957 6.14999,-14.8666 10.00971,-25.40712 15.2925,-40.56971 2.23432,-6.41293 4.34331,-12.86884 6.51496,-19.30326 18.06244,-53.79434 -5.47711,16.17046 12.1758,-35.85473 5.90775,-17.41081 11.74427,-34.92603 15.15543,-53.03327 1.00041,-8.61045 2.50377,-15.48312 0.0645,-24.30795 -4.45096,-16.10268 -13.0162,-25.38608 -27.7941,-32.25516 -2.75415,-1.28018 -5.7362,-1.99822 -8.60431,-2.99733 -2.91634,-0.66363 -5.80777,-1.44824 -8.74903,-1.99089 -21.52494,-3.97132 -44.28943,-3.02756 -66.04119,-2.75078 -6.61434,0.3268 -13.23411,0.55782 -19.84303,0.9804 -37.71748,2.4117 -75.26035,7.40847 -112.394,14.39624 -26.44851,5.28947 -53.02218,10.58306 -78.77004,18.72137 -49.7764,18.29781 -23.8994,88.69227 25.87701,70.39447 z"/>
<path d="m 458.90983,741.66805 c 23.32322,-3.23948 46.76244,-5.40231 70.2225,-7.35403 25.42633,-2.05682 50.89632,-3.74749 76.40886,-4.16866 13.2337,-0.21847 18.50946,-0.0487 31.46598,0.13688 14.78069,0.20049 29.4974,1.45229 44.17511,3.10214 52.70794,5.86286 60.99928,-68.67742 8.29134,-74.54028 v 0 c -17.08891,-1.88412 -34.22192,-3.3306 -51.42635,-3.55465 -14.39243,-0.1936 -19.85529,-0.37147 -34.58653,-0.11523 -26.89682,0.46785 -53.75034,2.22525 -80.55687,4.39887 -23.86368,1.99186 -47.71934,4.12953 -71.44024,7.46551 -52.77099,5.26526 -45.32479,79.8947 7.4462,74.62945 z"/>
<path d="m 148.22455,218.66554 c 14.01081,10.50897 26.2809,23.11771 38.61833,35.4923 11.53898,11.79871 21.47708,24.9828 31.54465,38.01362 32.46524,41.93457 91.76968,-3.97821 59.30444,-45.91278 v 0 c -12.02017,-15.49796 -23.96452,-31.10991 -37.77724,-45.09498 -16.46092,-16.46236 -32.93877,-33.63552 -52.60146,-46.36633 -1.81268,-1.17363 -3.73848,-2.16257 -5.60771,-3.24385 -47.45536,-23.67465 -80.93637,43.43737 -33.48101,67.11202 z"/>
<path d="m 116.74039,460.22909 c 22.16505,-6.59639 44.33292,-13.18539 66.43642,-19.98642 29.76156,-9.40725 59.46357,-18.99936 89.77639,-26.49126 5.8171,-1.29071 9.4883,-2.17517 15.16855,-3.20564 2.10682,-0.38221 4.232,-1.00068 6.36764,-0.84631 0.464,0.0335 -0.91478,0.27545 -1.37731,0.22554 -3.55862,-0.38401 -7.08637,-1.01413 -10.62955,-1.5212 -7.77725,-7.84571 -18.29213,-13.70643 -23.33177,-23.53715 -3.3157,-6.46788 -0.25959,-14.54462 0.0877,-21.80456 0.0517,-1.0814 2.10502,-3.46178 1.10155,-3.05539 -1.33487,0.5406 -1.62168,2.38068 -2.41063,3.58555 -1.19051,1.81811 -8.34247,12.95457 -9.17176,14.24476 -13.74282,21.17282 -27.74429,42.57118 -36.41505,66.45084 -2.26716,6.24385 -3.88137,12.70581 -5.82206,19.05872 -1.09343,6.9265 -2.72271,13.78944 -3.2803,20.77952 -1.57894,19.79357 0.97339,40.47864 8.1781,59.03983 6.20217,15.9784 9.70248,19.32082 19.28599,33.14959 9.02901,11.45576 19.62609,21.45425 30.4472,31.16679 3.41488,3.06504 10.5415,9.11134 14.06242,12.67222 1.19834,1.21195 2.2263,2.58127 3.33946,3.8719 0.22017,0.62037 0.68969,1.20348 0.66052,1.86111 -0.008,0.17558 -2.46144,0.80708 -2.61808,0.96392 -1.46234,1.46416 -4.67874,7.55636 -4.91127,7.96174 -1.9077,2.84639 -3.68901,5.78168 -5.72309,8.53917 -5.07105,6.87455 -13.20952,16.35229 -18.71284,22.51769 -12.03533,13.48325 -24.80106,26.13121 -37.80412,38.66738 -38.14946,36.8391 13.94889,90.79058 52.09835,53.95148 v 0 c 14.66968,-14.18625 29.09916,-28.49351 42.63158,-43.78801 8.18191,-9.24728 18.07254,-20.94152 25.08382,-31.11774 3.57739,-5.19225 6.62351,-10.73116 9.93526,-16.09675 6.33666,-13.98233 10.08491,-19.59645 12.20135,-35.14836 2.26288,-16.62792 -1.26023,-33.03979 -9.457,-47.56869 -2.25008,-3.98831 -5.27905,-7.48396 -7.91858,-11.22594 -2.61505,-2.80556 -5.13379,-5.70409 -7.84516,-8.41668 -11.28505,-11.29017 -24.52955,-20.58708 -34.80643,-32.91285 -3.43457,-4.20659 -6.13981,-6.99153 -8.51682,-11.90381 -3.80652,-7.86644 -5.46653,-17.22792 -5.31602,-25.92216 0.0579,-3.34303 0.64588,-6.65581 0.96882,-9.98371 1.00164,-3.7051 1.76597,-7.48266 3.00492,-11.11529 6.79535,-19.92417 19.16387,-37.29521 30.34012,-54.89929 2.82521,-4.39544 5.62025,-8.81045 8.47781,-13.18492 7.67727,-11.75271 17.33994,-26.0456 10.75327,-41.57985 -4.62207,-10.90088 -16.05985,-17.40263 -24.08978,-26.10394 -4.5792,-0.86526 -9.10812,-2.06135 -13.73761,-2.59579 -2.90589,-0.33547 -9.82367,0.48255 -12.85365,0.91715 -8.58645,1.2316 -17.04808,3.19489 -25.49888,5.11436 -12.00139,2.98528 -14.21299,3.4414 -26.62673,6.9522 -22.53949,6.37453 -44.77405,13.76517 -67.15809,20.65204 -21.10437,6.49719 -42.28272,12.74442 -63.421789,19.12714 -51.294284,13.46835 -32.247161,86.00942 19.047119,72.54107 z"/>
<path d="m 160.05957,800.93072 c 12.53798,-5.08911 25.95935,-7.15249 39.28171,-8.96221 22.1868,-2.47828 44.60054,-2.31267 66.83903,-0.60892 4.93752,0.37827 9.86133,0.91822 14.792,1.37734 30.84601,3.52116 61.06241,10.86155 91.08558,18.54436 32.19883,8.475 64.39418,16.95097 96.68809,25.05783 35.38806,9.02087 71.04278,16.88644 106.91738,23.69788 36.63123,6.85981 73.57583,11.80426 110.60245,15.93147 27.25894,2.53881 54.57293,5.23179 81.96569,5.75698 5.24574,0.10058 10.49336,0.0317 15.74005,0.0475 16.59437,-0.20676 33.13674,-1.88937 49.43252,-5.03136 13.60691,-2.62354 22.68667,-5.25573 36.1886,-8.79757 51.28109,-13.51851 32.16304,-86.04092 -19.11805,-72.52241 v 0 c -10.21703,2.70871 -19.11368,5.25279 -29.3957,7.33964 -12.17797,2.47166 -24.55066,3.83138 -36.97758,4.01181 -4.42529,-9.1e-4 -8.85124,0.0742 -13.27586,-0.003 -25.4887,-0.44297 -50.90165,-3.02265 -76.267,-5.34199 -35.12512,-3.89968 -70.17136,-8.58716 -104.92242,-15.07827 -34.44016,-6.52161 -68.65949,-14.10051 -102.63037,-22.75421 -32.18946,-8.07948 -64.27825,-16.53597 -96.37403,-24.97828 -33.87273,-8.64933 -67.98822,-16.79167 -102.80948,-20.56719 -5.75715,-0.52112 -11.50651,-1.13715 -17.27147,-1.56336 -27.18088,-2.0095 -54.56545,-1.99963 -81.65458,1.21238 -4.76037,0.68624 -9.53871,1.25765 -14.28111,2.05872 -14.63664,2.47236 -29.09979,6.23598 -42.8983,11.73425 -49.100322,20.04143 -20.75747,89.47977 28.34285,69.43834 z"/>
</svg>
