<?xml version="1.0" ?>
<svg xmlns="http://www.w3.org/2000/svg" width="1000" height="1000">
<path d="m 628.67556,61.693267 c -19.46433,24.813104 -41.89622,47.078943 -63.91498,69.583613 -47.8331,47.6515 -96.90325,94.04936 -146.09162,140.29527 -14.53332,13.58456 -29.07099,27.16464 -43.72859,40.61525 -6.26726,5.75118 -12.63227,11.35743 -18.71598,17.30056 -18.94859,32.57286 -21.11389,23.77303 35.72111,64.67433 4.12402,2.96784 9.77362,-2.78886 14.60989,-4.34647 4.59718,-1.48062 9.09738,-3.2497 13.68298,-4.7658 17.29042,-5.71662 19.60319,-6.10814 38.24688,-11.32647 46.42871,-12.02164 93.95026,-19.57288 141.76851,-23.10845 10.55685,-0.78055 21.13842,-1.17997 31.70763,-1.76995 35.59338,-1.32372 71.23727,0.3419 106.63969,4.09377 15.00443,1.59014 20.92032,2.55009 35.25257,4.59275 52.50667,7.45314 63.04701,-66.8025 10.54034,-74.25565 v 0 c -15.81757,-2.237 -22.30187,-3.28412 -38.85978,-5.01596 -39.1149,-4.09114 -78.49373,-5.83302 -117.81026,-4.2951 -11.46744,0.65706 -22.94874,1.10542 -34.40232,1.97119 -52.33195,3.95574 -104.32968,12.32217 -155.12032,25.5824 -21.68966,6.11305 -22.61818,6.0916 -42.65319,12.71204 -4.22498,1.39611 -8.44069,2.82685 -12.60352,4.39863 -1.05505,0.39837 -3.67234,0.57715 -3.0304,1.50437 39.14051,56.53393 49.70214,30.71439 29.09799,62.63146 5.27779,-5.39961 11.16882,-10.29984 16.72683,-15.40068 14.84986,-13.6284 29.57991,-27.38615 44.30376,-41.15038 49.95051,-46.96367 99.78108,-94.08202 148.33445,-142.49423 24.67898,-25.23879 49.81047,-50.26417 71.28229,-78.36923 30.87035,-43.122166 -30.11361,-86.779433 -60.98396,-43.657263 z"/>
<path d="m 582.70637,232.29401 c 0.40923,36.04849 0.45439,72.09988 0.5335,108.15021 0.0849,47.2145 0.10331,94.42908 0.11682,141.64365 0.0152,53.033 75.01516,53.01155 74.99999,-0.0215 v 0 c -0.0135,-47.26228 -0.032,-94.52459 -0.11699,-141.78681 -0.079,-35.99544 -0.12025,-71.99204 -0.53332,-107.98559 0,-53.033 -75,-53.033 -75,0 z"/>
<path d="m 548.13529,331.25733 c -13.78158,17.21299 -25.42531,35.97939 -38.75178,53.54075 -10.08811,13.29392 -27.18831,34.24789 -37.32948,46.8073 -19.50281,23.86359 -27.47016,34.10243 -48.22136,57.43385 -8.8115,9.90712 -17.87603,19.58671 -26.89728,29.30323 -19.3143,20.80282 -35.31623,37.73461 -55.2991,57.85857 -8.79361,8.85571 -17.77554,17.52241 -26.66331,26.28362 -8.46896,8.5265 -16.93791,17.05299 -25.40687,25.57949 -37.37072,37.62883 15.84449,90.47901 53.21521,52.85017 v 0 c 8.28483,-8.34301 16.56965,-16.68602 24.85448,-25.02903 9.25262,-9.12854 18.60238,-18.15966 27.75786,-27.38563 20.17243,-20.32774 37.34287,-38.46412 56.81838,-59.46704 9.55263,-10.30182 19.14281,-20.57221 28.47245,-31.07641 21.42488,-24.12214 29.71244,-34.74862 49.72716,-59.24043 12.1964,-15.11157 27.82821,-34.22128 39.6464,-49.8314 11.76898,-15.54512 14.38759,-19.97074 24.68893,-34.69566 5.76582,-8.24177 5.16436,-7.36376 9.77669,-13.48088 34.96677,-39.87261 -21.4216,-89.3231 -56.38838,-49.4505 z"/>
<path d="m 637.25836,397.39219 c 18.01131,17.17883 34.19173,36.09123 50.2396,55.07565 24.40955,29.30495 47.6356,59.56455 71.49179,89.31803 16.44445,20.86833 34.05282,40.90994 53.94726,58.57972 4.18459,3.71666 8.54587,7.2295 12.8188,10.84425 17.81976,14.50183 36.60736,27.74202 55.39335,40.94468 43.3944,30.4865 86.50882,-30.88244 43.11442,-61.36894 v 0 c -17.0144,-11.9489 -34.04183,-23.91408 -50.23322,-36.97407 -3.32324,-2.77397 -6.71964,-5.46256 -9.96971,-8.3219 -17.25994,-15.18494 -32.37438,-32.58174 -46.55763,-50.62066 -24.26613,-30.2631 -47.88136,-61.0494 -72.73934,-90.8329 -17.75089,-20.97884 -35.70871,-41.82373 -55.62591,-60.8059 -38.29835,-36.68428 -90.17776,17.47776 -51.87941,54.16204 z"/>
<path d="m 500.61955,536.03998 c 0.54368,22.23646 -0.70732,44.39019 -4.48235,66.33335 -1.2609,7.32921 -2.90454,14.58741 -4.35681,21.88111 -1.89073,8.00766 -3.65886,16.04527 -5.67219,24.02299 -4.71785,18.69423 -7.76379,29.77673 -14.26915,47.81179 -7.10525,19.69815 -15.82576,38.65185 -24.83251,57.52669 -22.78536,47.8887 44.93948,80.11206 67.72484,32.22336 v 0 c 2.90553,-6.12228 5.92163,-12.19329 8.71657,-18.36683 6.9905,-15.44077 13.98622,-32.07297 19.65482,-48.00626 7.10927,-19.98272 10.88068,-33.52588 16.01615,-54.02964 2.22326,-8.87654 4.17057,-17.81993 6.25585,-26.72989 1.6834,-8.67395 3.6042,-17.30518 5.0502,-26.02185 4.20627,-25.35591 5.75242,-50.96887 5.19458,-76.64482 0,-53.03301 -75,-53.03301 -75,0 z"/>
<path d="m 512.76709,578.60778 c 19.66447,-7.23457 39.7771,-13.2306 59.85904,-19.18706 26.01876,-7.11665 52.29593,-13.56848 79.09842,-16.865 4.56784,-0.44334 9.16021,-0.797 13.74898,-0.50885 0.64132,0.0403 1.28312,0.0878 1.91987,0.17419 0.0881,0.012 0.32752,0.12147 0.23868,0.11882 -0.45476,-0.0136 -0.90425,-0.10144 -1.35637,-0.15215 -10.28771,-2.53476 -16.78715,-8.28861 -22.18029,-17.50896 -1.58792,-2.71478 -2.09212,-5.93497 -2.98444,-8.9508 -0.24536,-0.82927 0.22832,-3.13074 -0.42136,-2.55996 -0.83875,0.73691 -0.29578,2.2133 -0.44367,3.31995 -2.86989,18.56688 -6.32135,37.03559 -9.25489,55.59354 -1.14918,7.87047 -2.32508,15.74381 -3.17588,23.65405 -0.20582,1.91367 -0.49132,3.82492 -0.53726,5.74908 -0.0754,3.15727 -0.6038,6.41199 0.17387,9.47292 1.74862,6.88262 4.87747,13.33878 7.3162,20.00816 6.77109,5.27192 12.71872,11.8203 20.31326,15.81576 4.79962,2.52507 10.55081,2.65475 15.94055,3.25726 3.85455,0.43089 7.76213,0.0467 11.63436,-0.1747 9.44011,-0.53963 18.91403,-2.22516 28.26998,-3.5329 2.53164,-0.31736 5.05942,-0.66708 7.59491,-0.95206 3.53705,-0.39755 7.55152,-0.80566 11.1584,-0.8227 0.21926,-10e-4 3.82351,0.0757 4.21046,0.49819 0.20449,0.22328 -0.60046,0.0783 -0.90069,0.11744 -6.28425,-1.1511 -10.93893,-4.88798 -14.88965,-9.77953 -1.0142,-1.25573 -1.52621,-2.8577 -2.48519,-4.15609 -0.13616,-0.18436 -0.63421,-0.34959 -0.67625,-0.12428 -0.32529,1.74332 -0.19451,3.54147 -0.29177,5.31221 -1.34414,21.53769 -4.90121,42.9267 -10.08222,63.86716 -1.28242,5.18322 -2.76561,10.31468 -4.14842,15.47202 -7.89689,26.34616 -17.25292,52.25427 -28.02357,77.55912 -3.08965,6.93444 -6.38888,13.80992 -10.26328,20.34777 -0.97482,1.64497 -0.73845,2.06231 -1.04761,1.40489 3.21465,-4.83403 8.04818,-7.86995 13.34529,-10.02127 1.50772,-0.61233 3.2721,-0.51622 4.7134,-1.27176 0.42616,-0.22339 -0.89206,-0.37049 -1.35899,-0.48665 -1.96108,-0.48786 -3.94426,-0.88216 -5.91639,-1.32325 -13.95093,-3.42186 -27.7364,-7.48436 -41.55641,-11.39041 -51.03416,-14.42272 -71.43096,57.75047 -20.39681,72.17319 v 0 c 15.79046,4.46209 31.53575,9.13894 47.53398,12.81807 8.13661,1.48965 16.00803,3.41598 24.3575,3.16177 14.27429,-0.43461 23.89474,-3.98578 34.55886,-13.44216 1.91852,-1.70125 3.40879,-3.83146 5.11318,-5.74719 8.09966,-11.46342 14.32643,-24.08554 19.95632,-36.92093 12.0988,-28.57534 22.71667,-57.78702 31.46082,-87.56904 1.6169,-6.11189 3.35323,-12.19343 4.85071,-18.33568 6.28937,-25.79735 10.51451,-52.15589 11.88633,-78.68466 0.0694,-9.38109 0.67608,-17.10477 -1.62233,-26.40376 -3.88655,-15.72435 -11.7219,-26.73442 -25.81062,-34.81322 -3.25798,-1.8682 -6.95413,-2.83875 -10.4312,-4.25812 -3.00435,-0.66008 -5.97619,-1.49114 -9.01307,-1.98024 -14.01627,-2.25735 -28.27601,-0.25495 -42.21509,1.47425 -8.37324,1.17206 -8.00171,1.13705 -16.18131,2.21749 -1.73779,0.22954 -3.48825,0.37422 -5.21517,0.67479 -0.38353,0.0667 -1.43214,0.23887 -1.08882,0.4224 16.91195,9.0412 -8.73418,-11.87352 20.02698,15.3875 1.39993,5.03377 3.06609,10.00097 4.19978,15.1013 0.17567,0.79029 -0.31194,3.21877 -0.30757,2.40919 0.007,-1.21366 0.18594,-2.42056 0.31415,-3.62745 0.7411,-6.97615 1.78209,-13.91852 2.78831,-20.8595 3.10725,-19.6989 6.88532,-39.28577 9.71606,-59.02691 0.56146,-5.5322 1.58593,-12.76611 0.75501,-18.22835 -0.71295,-4.68677 -1.48765,-9.51005 -3.57959,-13.76422 -5.61443,-11.4175 -10.83993,-15.604 -21.47484,-21.17835 -2.26433,-1.18686 -4.84415,-1.63629 -7.26623,-2.45443 -1.80695,-0.365 -3.60107,-0.8005 -5.42084,-1.09499 -11.721,-1.89679 -23.72178,-0.9766 -35.462,0.1124 -3.76214,0.48328 -7.53456,0.8923 -11.28641,1.44984 -26.97939,4.00924 -53.47128,10.83874 -79.77288,17.92726 -21.74403,6.46063 -43.51096,12.97915 -64.79667,20.84148 -49.6701,18.58446 -23.38771,88.82857 26.28239,70.24412 z"/>
<path d="m 118.87748,241.49286 c 17.6884,10.70064 33.39897,24.23258 49.0655,37.62105 17.64574,16.22903 8.6875,7.83899 26.85233,25.19401 38.35924,36.6206 90.14859,-17.62757 51.78934,-54.24817 v 0 c -19.91514,-18.99874 -9.92178,-9.66468 -29.97269,-28.0101 -19.098,-16.25949 -38.35861,-32.55034 -60.00723,-45.37696 -45.83478,-26.67719 -83.562032,38.14298 -37.72725,64.82017 z"/>
<path d="m 90.166158,478.12479 c 29.236122,-9.4631 59.241732,-16.17731 89.237182,-22.70818 30.83307,-6.11688 61.86694,-11.61417 93.2467,-13.89557 3.59351,-0.16387 7.46387,-0.43615 11.10259,-0.32316 0.41477,0.0129 1.64305,0.23442 1.23085,0.18655 -9.75943,-1.13342 -15.25698,-1.34553 -23.61283,-12.40054 -4.71986,-6.2445 -5.08959,-14.80472 -7.63438,-22.20707 0.34012,-2.53319 1.05039,-5.04382 1.02037,-7.59956 -0.005,-0.46673 -0.80637,0.5039 -1.09943,0.8672 -1.45731,1.80656 -2.76604,3.72825 -4.12531,5.60968 -7.75043,10.72774 -15.16563,21.65822 -22.52287,32.65807 -13.91708,21.11187 -26.65075,43.09611 -35.7991,66.73823 -6.43567,16.63175 -7.40688,22.08947 -11.97132,39.17038 -5.64354,25.52762 -8.86395,51.94859 -3.47001,77.84838 3.44585,16.54572 6.289,20.65879 13.12889,35.72672 8.39122,15.51407 19.96106,28.58958 32.84927,40.47188 9.59998,8.85071 20.04067,16.83886 30.05241,25.21367 4.3853,3.98771 8.45302,7.28155 12.09782,11.92235 1.0166,1.29441 3.1693,3.7549 2.45107,5.90529 -0.16805,0.50314 -1.75212,1.27467 -2.08532,1.46032 -0.56693,0.34845 -1.24855,0.55719 -1.70079,1.04536 -10.66907,11.51673 6.16069,-4.16747 -8.8035,10.35737 -5.05653,4.90806 -11.18755,9.80411 -17.0472,13.65244 -3.57588,2.34847 -7.36523,4.35455 -11.04785,6.53182 -17.02546,8.69839 -8.49904,4.5361 -25.57269,12.50037 -48.01295,22.52236 -16.16152,90.42292 31.85143,67.90056 v 0 c 21.35256,-10.06247 10.3816,-4.62218 32.86152,-16.42406 5.78018,-3.61195 11.74958,-6.93742 17.34054,-10.83586 21.03894,-14.6699 41.96637,-35.3698 51.47313,-59.67987 2.5467,-6.51228 3.66101,-13.49737 5.49152,-20.24605 0.0288,-6.36075 0.81354,-12.76313 0.0864,-19.08225 -3.07886,-26.75696 -19.8101,-45.77465 -39.28854,-62.54616 -32.52008,-27.1777 12.53547,10.40892 -18.31992,-15.12227 -7.16453,-5.92827 -14.4408,-11.94903 -20.41352,-19.13207 -1.65973,-1.99606 -3.08201,-4.17815 -4.62301,-6.26722 -3.07361,-5.71694 -4.85724,-8.28527 -6.63095,-14.60715 -4.38214,-15.61892 -1.09574,-32.02204 1.86163,-47.55126 3.12661,-12.2054 3.99968,-16.97386 8.41826,-28.79365 7.24935,-19.39217 17.8389,-37.23681 29.16536,-54.48249 6.85518,-10.26551 13.82398,-20.40812 20.9933,-30.45573 3.89337,-5.45646 10.67975,-14.41556 13.20136,-20.50096 2.22411,-5.36746 3.3144,-11.13732 4.97159,-16.70597 -2.39257,-9.45461 -1.93218,-20.14201 -7.17773,-28.36384 -12.36499,-19.3808 -35.09164,-18.29465 -54.29018,-17.23105 -34.86316,2.65985 -69.38379,8.45464 -103.63169,15.40763 -32.17319,7.0196 -64.343065,14.28176 -95.706306,24.42383 -50.603313,15.86836 -28.162069,87.43225 22.441244,71.56389 z"/>
<path d="m 115.90238,862.26376 c 17.51977,-0.14854 34.99494,1.01715 52.43764,2.52251 40.47747,3.89048 80.54889,10.91884 120.41363,18.78958 40.94081,8.21313 81.4192,18.49814 122.01018,28.2467 31.77913,7.47329 63.64177,14.58666 95.48841,21.76554 27.71838,6.34529 55.53866,12.21686 83.45601,17.61529 34.52251,6.87242 69.25799,12.50983 104.14071,17.18395 42.41299,5.21233 85.23322,7.16441 127.94722,5.82491 9.13948,-0.28661 18.26604,-0.895 27.39906,-1.3425 9.18407,-0.91948 18.36815,-1.83896 27.55222,-2.75844 52.75952,-5.37889 45.15262,-79.99213 -7.60691,-74.61323 v 0 c -7.89307,0.82156 -15.78615,1.64311 -23.67922,2.46467 -8.25343,0.41917 -16.50068,0.98611 -24.76028,1.2575 -39.02554,1.28226 -78.15526,-0.44161 -116.91199,-5.17129 -33.44838,-4.4625 -66.74777,-9.89781 -99.84859,-16.48282 -27.16258,-5.24708 -54.22745,-10.97007 -81.19567,-17.14221 -31.50563,-7.10191 -63.02695,-14.13956 -94.46694,-21.52776 -41.58768,-9.98749 -83.06263,-20.51337 -125.01397,-28.90328 -42.5561,-8.38218 -85.33635,-15.84562 -128.54921,-19.93521 -19.56505,-1.65191 -39.16392,-2.95866 -58.8123,-2.79391 -53.033004,0 -53.033004,75 0,75 z"/>
</svg>
