<?xml version="1.0" ?>
<svg xmlns="http://www.w3.org/2000/svg" viewBox="0 0 1000 1000">
<path d="m 532.02022,78.853798 c -6.54256,19.26756 -12.80131,38.649862 -20.68058,57.432812 -3.886,9.26362 -8.15366,18.36246 -12.23048,27.54369 -5.69179,11.03397 -11.12823,22.20344 -17.07537,33.1019 -14.50724,26.58529 -33.36698,57.95214 -49.30934,83.33168 -31.05331,49.43555 -64.17831,97.49742 -97.16814,145.64488 -30.83911,45.66557 -63.83957,89.79538 -96.2797,134.31615 -9.36039,12.84618 -18.61749,25.7673 -27.92623,38.65096 -31.05784,42.98733 29.73542,86.90974 60.79326,43.92241 v 0 c 9.19519,-12.72774 18.3388,-25.4929 27.58555,-38.18322 32.92131,-45.18149 66.39652,-89.97679 97.69849,-136.31604 33.73943,-49.24832 67.60314,-98.41621 99.33663,-148.99802 16.80597,-26.78798 36.77808,-60.05463 51.98202,-88.09873 6.60855,-12.18969 12.63408,-24.68655 18.95112,-37.02982 4.52865,-10.27141 9.26532,-20.45359 13.58594,-30.81423 8.29109,-19.88161 14.9584,-40.35977 21.87217,-60.73966 16.80422,-50.300283 -54.33112,-74.065041 -71.13534,-23.764762 z"/>
<path d="m 545.66343,160.66748 c 16.69021,25.88592 35.09655,50.63305 53.08272,75.62432 34.13241,47.21828 67.8788,94.71308 101.66774,142.17717 24.2207,33.19492 47.5539,67.39001 75.66001,97.51431 5.2506,5.62762 10.82486,10.94431 16.2373,16.41647 16.20926,14.25454 19.19705,17.80992 37.40373,29.98294 6.75292,4.51501 13.78203,8.60927 20.82265,12.66102 6.09617,3.50824 12.383,6.67425 18.5745,10.01137 46.73634,25.0642 82.18247,-41.03097 35.44613,-66.09517 v 0 c -10.76627,-5.73887 -20.65079,-10.72063 -30.91965,-17.36961 -13.8306,-8.95516 -15.62604,-11.26755 -28.15895,-22.08781 -4.38562,-4.37611 -8.91254,-8.61506 -13.15686,-13.12835 -9.18269,-9.76463 -18.05293,-20.62213 -26.31648,-31.1427 -15.42475,-19.6377 -29.99331,-39.9358 -44.49306,-60.25814 -33.86389,-47.56933 -67.68548,-95.16921 -101.89336,-142.49237 -16.18988,-22.4952 -32.49775,-44.91504 -48.14799,-67.78913 -25.43865,-46.533591 -91.24708,-10.55791 -65.80843,35.97568 z"/>
<path d="m 506.49908,407.71088 c 21.3148,-2.98955 42.85693,-3.519 64.34527,-3.92301 11.73798,0.0879 23.45043,-0.11614 35.15287,1.07381 5.25707,0.53456 10.44914,1.58292 15.67371,2.37438 52.50546,7.46164 63.05781,-66.7923 10.55235,-74.25394 v 0 c -7.41651,-1.00498 -14.79891,-2.30578 -22.24953,-3.01495 -13.69184,-1.30322 -26.87501,-1.0808 -40.60038,-1.16487 -27.05559,0.55052 -54.36137,1.07484 -81.02628,6.13836 -51.45632,12.8354 -33.30432,85.60562 18.15199,72.77022 z"/>
<path d="m 380.61022,573.13038 c 26.80032,-3.70737 53.26484,-9.4372 79.98842,-13.63311 9.19257,-1.44334 18.4137,-2.69857 27.62055,-4.04786 41.38245,-5.29351 83.04267,-8.49579 124.7648,-9.03994 22.23239,-0.28996 31.39624,0.12625 53.13468,0.65922 18.70957,0.49046 37.34832,2.10084 55.96668,3.89408 52.7921,5.04914 59.93268,-69.61016 7.14058,-74.65931 v 0 c -20.39335,-1.93814 -40.80775,-3.69054 -61.29884,-4.21297 -23.33347,-0.5541 -33.10086,-0.99323 -56.99708,-0.65289 -44.68181,0.63638 -89.29768,4.07759 -133.60965,9.80793 -9.7437,1.43411 -19.50219,2.77108 -29.2311,4.30233 -25.21571,3.96874 -50.20465,9.23758 -75.45128,13.00743 -52.73255,5.63723 -44.76031,80.21231 7.97224,74.57509 z"/>
<path d="m 531.04764,415.75089 c -0.0418,33.9313 -0.60951,67.85784 -1.28201,101.78156 -1.18102,62.02794 -4.54998,123.98079 -9.25611,185.83286 -1.6046,18.12575 -3.166,36.27657 -5.7684,54.29419 -0.45806,3.17138 -0.90123,6.34998 -1.56812,9.4841 -0.2319,1.08987 -1.59889,4.1557 -1.1201,3.14954 1.82838,-3.84223 3.44962,-7.77965 5.17442,-11.66947 -0.42448,-33.66849 22.23522,-4.86104 30.55058,-11.96496 1.4819,-1.26601 -3.03928,-2.44093 -4.56664,-3.6517 -3.12854,-2.48007 -6.33512,-4.86363 -9.40097,-7.42079 -5.84021,-4.87119 -17.39537,-15.37299 -22.75326,-20.19309 -5.05724,-4.19269 -10.11449,-8.38537 -15.17173,-12.57806 -40.88296,-33.77993 -88.655,24.03731 -47.77204,57.81724 v 0 c 4.26784,3.51225 8.53568,7.02451 12.80352,10.53676 13.05033,11.72364 25.92759,23.91722 40.33625,34.0031 9.87505,6.91241 25.96783,17.61102 38.58978,16.4459 11.51237,-1.0627 21.66383,-8.08296 32.49574,-12.12444 3.9812,-6.33434 8.6477,-12.28655 11.94359,-19.00302 2.07702,-4.23264 4.20976,-18.80872 4.8395,-23.21143 2.76441,-19.32679 4.46798,-38.78887 6.1722,-58.23009 4.80198,-63.25006 8.25363,-126.60195 9.45708,-190.03133 0.68121,-34.41879 1.25561,-68.84042 1.29672,-103.26687 0,-53.03301 -75,-53.03301 -75,0 z"/>
<path d="m 397.13796,596.73524 c -0.92576,1.64029 -1.78934,3.31726 -2.77728,4.92086 -3.46599,5.62589 -9.10057,13.56322 -12.61821,18.42431 -13.64908,18.86185 -28.1994,36.96706 -42.79705,55.09633 -5.44819,6.59759 -10.89638,13.19519 -16.34457,19.79278 -33.76373,40.89634 24.07242,88.64547 57.83615,47.74913 v 0 c 5.64516,-6.83922 11.29031,-13.67844 16.93547,-20.51767 15.63083,-19.42941 31.22891,-38.8323 45.79357,-59.08402 6.7932,-9.44573 10.68052,-15.07877 16.51074,-24.59885 1.01448,-1.65654 1.90939,-3.3834 2.86408,-5.07511 25.95631,-46.24683 -39.44659,-82.9546 -65.4029,-36.70776 z"/>
<path d="m 664.55385,662.45778 c 16.24231,13.71699 30.16065,29.81281 43.76311,46.06845 7.70094,9.20091 15.03305,18.69557 22.30301,28.23674 32.16181,42.16773 91.79599,-3.31594 59.63418,-45.48368 v 0 c -7.97729,-10.44985 -16.01569,-20.85419 -24.4606,-30.9344 -16.1779,-19.26879 -32.82956,-38.24214 -52.08895,-54.53694 -40.05748,-34.75483 -89.20823,21.895 -49.15075,56.64983 z"/>
<path d="m 98.683003,196.42416 c 17.573407,13.49406 35.017097,27.22893 50.894927,42.72424 4.62839,4.51689 9.0578,9.23329 13.5867,13.84993 37.21624,37.78163 90.64753,-14.85009 53.43128,-52.63171 v 0 c -5.3567,-5.41914 -10.59738,-10.95548 -16.0701,-16.25742 -17.31069,-16.77046 -36.15506,-31.82484 -55.26565,-46.46913 -41.56663,-32.93502 -88.143783,25.84907 -46.577157,58.78409 z"/>
<path d="m 53.430585,424.92972 c 19.039978,-3.74042 38.002681,-7.88084 57.177475,-10.90231 5.75938,-0.90753 11.54069,-1.66997 17.31104,-2.50495 25.22777,-2.99838 50.634,-6.94409 76.1124,-5.7895 0.15947,0.19014 0.71757,0.63666 0.47842,0.57041 -12.13249,-3.36067 -14.95134,-3.80351 -22.74773,-17.34432 -2.11534,-3.67394 -1.49238,-8.3648 -2.70319,-12.42761 -0.91575,-3.07273 -4.56031,4.99099 -5.51784,6.5211 -15.57334,24.8381 -30.62168,50.10667 -42.44965,76.9865 -2.86974,6.52168 -5.40026,13.18741 -8.10038,19.78112 -10.06507,27.57724 -18.02885,56.29244 -19.02992,85.81478 -0.6732,19.85349 0.80902,24.51895 3.5069,43.88465 1.90621,6.93871 3.30332,14.03779 5.71861,20.81611 6.85102,19.22679 17.71534,36.48295 30.58427,52.19496 7.55351,9.22227 14.27554,15.77552 22.52371,24.23523 3.96638,4.02647 13.07341,13.04612 16.9672,17.77769 1.48592,1.80563 5.15402,5.41397 4.36682,8.70978 -0.21103,0.88354 -2.30393,1.83979 -2.85185,2.1466 -0.91087,1.26484 -1.82536,2.52709 -2.73263,3.79452 -1.64819,2.30246 -3.11079,4.74841 -4.93374,6.91514 -7.48091,8.89166 -17.03653,15.60827 -26.25259,22.52449 -42.16574,32.16443 3.32164,91.79579 45.48737,59.63136 v 0 c 11.58391,-8.93738 19.95348,-14.76906 30.29086,-25.59387 9.95004,-10.41921 18.95659,-22.26343 24.97544,-35.4524 3.14637,-6.89456 4.9662,-14.32045 7.4493,-21.48068 0.52289,-7.51624 2.06713,-15.03083 1.56865,-22.54874 -1.97213,-29.74301 -20.99016,-49.25508 -40.74239,-68.89151 -10.89763,-11.07434 -21.93431,-22.09205 -29.87086,-35.59326 -1.77846,-3.02541 -3.49035,-6.11172 -4.82598,-9.35705 -1.47001,-3.57184 -2.37523,-7.35079 -3.56284,-11.02619 -1.91769,-11.2472 -3.04019,-14.87853 -2.92217,-26.49625 0.22291,-21.94354 6.5368,-43.24569 13.7632,-63.75831 2.16272,-5.36711 4.18091,-10.79476 6.48816,-16.10134 10.78418,-24.80314 24.90196,-47.92117 39.18799,-70.81621 5.16774,-9.03631 13.34883,-21.60915 14.86118,-32.09354 1.19687,-8.29734 2.13363,-17.20138 -0.54943,-25.14363 -6.36168,-18.83153 -16.69331,-25.35395 -33.47993,-31.20069 -3.90116,-1.35876 -8.16121,-1.28674 -12.24181,-1.93011 -3.63753,-0.11076 -7.27339,-0.32646 -10.91261,-0.33227 -26.3605,-0.0421 -52.59488,3.65269 -78.69672,6.8538 -6.40719,0.93601 -12.82639,1.79328 -19.221584,2.80802 -19.321667,3.06583 -38.451533,7.14841 -57.62891,10.98132 -52.210756,9.30253 -39.054997,83.13969 13.155759,73.83716 z"/>
<path d="m 56.570855,850.204 c 16.651717,-1.88711 33.46038,-1.91119 50.196615,-2.03366 35.29396,0.29686 70.57936,2.13329 105.71337,5.5082 8.40726,0.80758 16.79898,1.76954 25.19846,2.65431 51.17545,5.88666 102.13061,13.50387 153.02762,21.40271 29.44596,4.51548 58.63877,10.47347 87.95324,15.73742 19.46994,3.49618 21.33631,3.74092 40.76174,6.96619 33.11571,4.97405 66.17873,10.48392 99.42216,14.57135 7.16855,0.88141 14.35574,1.60392 21.53361,2.40589 40.35224,4.1392 80.97612,4.1043 121.44737,2.02719 8.7934,-0.4513 17.57619,-1.08992 26.36428,-1.63489 27.04439,-1.84985 53.90143,-5.54101 80.75101,-9.14114 52.56112,-7.05892 42.57829,-81.39158 -9.98283,-74.33265 v 0 c -25.08305,3.37429 -50.17071,6.85611 -75.43459,8.6191 -8.25234,0.51733 -16.49972,1.12094 -24.75702,1.552 -36.684,1.91504 -73.51005,2.08053 -110.09524,-1.62971 -6.60222,-0.73115 -13.2135,-1.38462 -19.80664,-2.19344 -32.48894,-3.98564 -64.79908,-9.38242 -97.16378,-14.23182 -18.78815,-3.11627 -20.64119,-3.3603 -39.51705,-6.74885 -29.98788,-5.38336 -59.85188,-11.47463 -89.97642,-16.07976 -52.11408,-8.08498 -104.2884,-15.87804 -156.69037,-21.879 -8.86932,-0.92965 -17.73039,-1.94168 -26.60795,-2.78897 -37.46712,-3.57592 -75.09549,-5.515 -112.73166,-5.7818 -20.340607,0.17047 -40.782004,0.25424 -60.985224,2.89961 -52.4190403,8.04638 -41.0397411,82.1781 11.379299,74.13172 z"/>
</svg>
