<?xml version="1.0" ?>
<svg xmlns="http://www.w3.org/2000/svg" width="1000" height="1000">
<path d="m 470.01471,195.3409 c 14.57428,-3.7058 29.52136,-5.59224 44.39628,-7.6154 38.88563,-5.56257 78.11952,-7.4365 117.34793,-8.26134 29.76739,-0.42039 59.54732,0.58819 89.15255,3.74319 8.88637,1.36924 18.45671,2.07443 27.03771,3.85002 -11.34481,-3.46778 -16.87655,-4.2634 -24.54745,-20.89687 -3.49643,-7.58162 -0.99118,-16.67378 -1.12633,-25.0217 -0.0143,-0.88423 1.46365,-2.97376 0.67971,-2.56448 -1.55797,0.81338 -2.26621,2.68744 -3.4329,4.00186 -2.34635,2.64344 -4.73697,5.24724 -7.10546,7.87087 -21.90505,23.0826 -45.07741,44.96647 -69.21668,65.70015 -4.76222,4.09035 -9.64474,8.03851 -14.46711,12.05776 -4.20763,3.27052 -8.41527,6.54104 -12.6229,9.81156 -41.82885,32.60133 4.27641,91.75626 46.10526,59.15493 v 0 c 4.85987,-3.79668 9.71974,-7.59336 14.57961,-11.39004 5.34673,-4.46941 10.75647,-8.86449 16.04018,-13.40822 26.3618,-22.66979 51.64511,-46.6258 75.48884,-71.93229 4.96128,-5.58684 12.88118,-14.05842 17.18077,-20.48366 2.47925,-3.70495 5.86697,-7.21189 6.65713,-11.59925 1.77944,-9.88043 4.37718,-20.70521 0.85391,-30.10606 -6.80513,-18.1575 -15.24195,-19.75175 -28.06554,-24.24224 -11.92203,-2.58391 -24.10643,-3.71685 -36.17663,-5.38911 -32.7538,-3.42051 -65.6844,-4.66831 -98.61512,-4.13934 -18.81462,0.40718 -25.3655,0.41199 -44.23556,1.37558 -27.31033,1.3946 -54.55537,3.92173 -81.65845,7.55819 -19.86801,2.72236 -39.93983,5.24522 -59.16161,11.18411 -50.02199,17.61535 -25.11013,88.35713 24.91186,70.74178 z"/>
<path d="m 550.99727,276.98498 c 0.47772,0.21141 0.97536,0.38258 1.43316,0.63424 1.02032,0.56089 1.88586,1.36608 2.83174,2.04503 4.79008,3.43831 9.16319,7.09025 13.51459,11.07112 9.11278,8.69477 16.63598,18.80626 23.31585,29.43642 0.60123,1.03718 1.20245,2.07435 1.80367,3.11153 26.88,45.71614 91.53239,7.70207 64.65238,-38.01407 v 0 c -1.05069,-1.77231 -2.10138,-3.54463 -3.15207,-5.31694 -10.46654,-16.35864 -22.26813,-31.86907 -36.58747,-45.08968 -2.75388,-2.43513 -5.44053,-4.94849 -8.26164,-7.3054 -9.62737,-8.04323 -20.14025,-15.36803 -31.74947,-20.2294 -49.25504,-19.65809 -77.05578,49.99906 -27.80074,69.65715 z"/>
<path d="m 397.88652,344.38787 c -0.0629,20.94737 0.15527,41.8938 0.29586,62.84044 0.16741,41.4377 0.50674,82.87434 0.72705,124.31177 0.27283,39.5983 0.14172,79.19702 0.1661,118.79571 -0.11378,20.39139 -0.23552,40.78211 -0.0419,61.17332 -0.0117,0.66698 -0.0233,1.33397 -0.0349,2.00095 -0.67816,53.02867 74.31571,53.98773 74.99387,0.95906 v 0 c 0.0125,-1.22518 0.0251,-2.45037 0.0377,-3.67556 -0.19335,-20.16812 -0.0615,-40.33571 0.0452,-60.50402 -0.0246,-39.71621 0.10659,-79.43246 -0.16714,-119.14827 -0.22058,-41.47231 -0.56,-82.94383 -0.72768,-124.41641 -0.1395,-20.77883 -0.35703,-41.55743 -0.29417,-62.33699 0,-53.03301 -75,-53.03301 -75,0 z"/>
<path d="m 480.21905,398.04064 c 16.39491,-2.65004 32.78398,-5.34309 49.17102,-8.04391 33.77237,-5.41895 67.50038,-11.09642 101.20442,-16.92283 22.33858,-3.74397 44.64293,-7.73651 67.09777,-10.74181 10.39414,-1.39112 15.92622,-1.9311 26.19439,-3.04637 15.0403,-1.67188 30.12672,-2.82585 45.25946,-3.00439 2.73363,0.0331 5.47312,-0.0396 8.20601,0.0696 0.68424,0.0273 -1.37474,-0.0123 -2.05075,-0.12157 -1.22368,-0.19784 -2.42779,-0.50193 -3.64168,-0.7529 -6.78958,-2.71726 -7.90326,-2.55714 -13.88696,-7.89556 -1.74562,-1.55737 -3.10318,-3.50485 -4.55259,-5.34111 -0.52754,-0.66835 -0.85717,-1.47583 -1.36669,-2.15803 -0.0485,-0.0649 -0.25184,-0.0779 -0.24307,0.003 0.1035,0.94983 0.3666,1.87541 0.5499,2.81312 3.63032,21.56296 4.31687,43.49357 5.34252,65.29619 1.15173,23.30538 2.07305,46.62671 2.07237,69.96439 -4.7e-4,16.02636 -0.22799,21.39401 -0.61672,37.44126 -1.05725,35.52165 -3.33278,70.99097 -6.8117,106.35448 -2.4177,23.95627 -5.91186,47.81535 -11.64791,71.21085 -0.65636,2.38712 -1.28039,4.78336 -1.96907,7.16135 -1.45657,5.02945 -3.00522,10.14531 -5.13178,14.94436 -1.01301,2.28608 -0.93034,2.35817 -0.97118,1.30249 2.30325,-3.64869 2.19045,-4.0329 6.00277,-7.10523 1.19949,-0.96667 2.73234,-1.47497 3.89966,-2.48026 0.1941,-0.16716 0.10802,-0.70319 -0.14283,-0.75509 -1.94367,-0.40217 -3.95941,-0.29411 -5.93333,-0.50212 -3.52174,-0.37113 -7.03447,-0.8234 -10.5517,-1.2351 -17.47359,-2.48223 -34.88619,-5.45831 -52.12598,-9.25516 -7.35743,-1.62038 -14.66174,-3.4732 -21.9926,-5.2098 -51.61601,-12.17735 -68.83739,60.8187 -17.22138,72.99606 v 0 c 8.14225,1.91385 16.25562,3.95502 24.42675,5.74155 19.43681,4.24963 39.06877,7.58382 58.77676,10.2847 14.88675,1.54447 30.37958,3.78742 45.20183,0.0966 10.45364,-2.60298 17.73386,-6.48349 25.61222,-13.68122 2.84548,-2.59965 4.97001,-5.89226 7.45501,-8.83838 1.44759,-2.45848 3.0128,-4.85139 4.34277,-7.37543 6.32975,-12.01275 9.49931,-25.45849 13.20874,-38.4107 6.45327,-26.82928 10.72325,-54.10715 13.40342,-81.57198 3.63519,-37.2006 6.06222,-74.50772 7.14798,-111.874 0.40732,-17.1496 0.64513,-22.76742 0.63516,-39.92266 -0.0141,-24.28781 -0.95217,-48.55935 -2.15251,-72.81379 -1.24569,-26.35539 -2.14433,-52.89662 -7.23313,-78.85673 -1.97146,-7.97385 -3.8297,-16.2744 -8.35739,-23.29995 -6.15864,-9.55627 -13.09256,-15.17702 -23.81615,-18.92387 -1.94605,-0.46842 -3.8714,-1.03318 -5.83814,-1.40525 -6.25433,-1.18321 -12.66892,-0.7838 -18.98982,-0.88769 -17.52435,0.23873 -35.00294,1.48587 -52.42068,3.43936 -11.56953,1.26383 -16.95894,1.78469 -28.73248,3.36675 -23.16073,3.11221 -46.17185,7.20521 -69.21302,11.07644 -33.5111,5.79305 -67.04608,11.43759 -100.62521,16.82504 -18.10833,2.98452 -36.25716,5.78163 -54.30931,9.07637 -51.59702,12.25757 -34.26219,85.22677 17.33483,72.96919 z"/>
<path d="m 465.7542,532.80015 c 19.72438,-4.29008 39.74056,-6.93542 59.7368,-9.56824 45.69378,-5.50161 91.61807,-8.762 137.54076,-11.61738 31.53196,-1.75668 63.07686,-3.33136 94.63108,-4.63435 52.98771,-2.19153 49.88841,-77.12746 -3.0993,-74.93593 v 0 c -32.07391,1.32858 -64.1388,2.92195 -96.18988,4.71507 -47.64513,2.96721 -95.29138,6.36683 -142.69452,12.11718 -22.15066,2.92905 -44.31645,5.91628 -66.15992,10.70189 -51.7756,11.47986 -35.54062,84.70162 16.23498,73.22176 z"/>
<path d="m 447.66391,646.32907 c 15.43869,-4.05336 31.01766,-7.46291 46.66691,-10.59241 39.02721,-7.11851 78.72493,-9.40147 118.22753,-12.35316 35.51397,-2.41638 71.01752,-5.82511 106.64285,-6.05342 5.72723,-0.0367 11.45378,0.14557 17.18067,0.21836 12.86073,0.34105 25.63356,1.80119 38.38328,3.3964 52.63369,6.49582 61.82016,-67.93944 9.18648,-74.43526 v 0 c -15.51948,-1.89368 -31.06689,-3.62228 -46.71849,-3.95631 -6.60889,-0.0672 -13.21763,-0.25153 -19.82668,-0.20171 -36.89189,0.27812 -73.66207,3.69931 -110.43831,6.24056 -42.57833,3.18342 -85.35548,5.74286 -127.39119,13.61003 -16.7835,3.37734 -33.50097,7.01837 -50.06525,11.35675 -51.45628,12.83554 -33.30408,85.60572 18.1522,72.77017 z"/>
<path d="m 565.64433,383.386 c 3.62049,11.66551 4.87815,23.79456 5.99891,35.89966 1.83771,25.00596 1.95997,50.09671 2.13086,75.15703 0.40717,29.56273 0.4944,59.12268 0.0277,88.68447 -0.89996,33.21181 -2.73819,66.38675 -3.85313,99.59173 -1.0676,38.02136 -1.25464,76.06023 -1.72806,114.09197 -0.25483,18.08917 -0.81441,36.17061 -1.43533,54.25003 -1.81636,53.00189 73.13964,55.5706 74.956,2.56871 v 0 c 0.63691,-18.6245 1.21381,-37.25099 1.47352,-55.8855 0.46658,-37.50523 0.65196,-75.01741 1.69177,-112.51268 1.12589,-33.64985 3.01537,-67.26841 3.88599,-100.92655 0.4707,-30.12575 0.39819,-60.24974 -0.0202,-90.37641 -0.18793,-27.26261 -0.35008,-54.55978 -2.46718,-81.75599 -1.57211,-16.14826 -3.455,-32.31562 -8.14075,-47.91336 -13.52474,-51.27944 -86.04483,-32.15256 -72.52008,19.12689 z"/>
<path d="m 168.01622,253.80362 c 7.11318,5.94254 14.11677,12.05386 20.28301,19.00267 2.49937,2.81657 4.80312,5.80083 7.20469,8.70125 10.00315,14.1269 5.2875,6.70753 14.06942,22.30721 26.62891,45.86286 91.48878,8.2039 64.85988,-37.65895 v 0 c -13.84153,-23.37166 -6.58197,-12.42701 -21.57122,-32.97062 -3.60385,-4.22794 -7.07519,-8.57251 -10.81154,-12.68382 -10.05856,-11.06796 -21.40395,-21.10494 -33.54148,-29.82727 -44.63932,-28.6327 -85.13207,34.49683 -40.49276,63.12953 z"/>
<path d="m 135.20306,481.30806 c 19.48437,-3.48335 38.7239,-8.15944 57.93637,-12.88315 27.68405,-6.84318 55.38375,-13.60284 83.4929,-18.46587 6.27964,-0.93623 12.57726,-1.83824 18.91133,-2.32686 0.77209,-0.0596 3.09328,-0.044 2.32097,-0.1006 -2.60085,-0.19048 -5.5519,0.98927 -7.81761,-0.30195 -8.88819,-5.06535 -16.46198,-12.15048 -24.69297,-18.22572 -1.2389,-7.31856 -2.47781,-14.63711 -3.71671,-21.95566 0.11797,-0.92484 1.09263,-3.34332 0.35392,-2.77451 -1.3432,1.03427 -1.66704,2.95238 -2.50141,4.42809 -1.45287,2.56962 -2.93709,5.12173 -4.36031,7.70789 -6.53389,11.87284 -5.89341,10.93666 -12.32092,23.82565 -12.33308,25.70294 -22.28277,53.23972 -23.40191,82.02212 -0.23529,6.05118 0.30566,12.10765 0.45849,18.16147 1.72793,17.3536 6.82232,33.89317 14.61133,49.45742 6.39213,12.77296 14.7536,24.24672 23.11886,35.75073 7.33653,10.26097 15.78253,19.7806 22.15967,30.70945 2.70243,4.63131 3.12623,5.93441 5.21873,10.68262 2.24842,6.08885 2.30099,8.25282 -0.20556,13.83609 -0.43946,0.76983 -0.82783,1.57116 -1.31837,2.30949 -1.21058,1.82205 -6.18018,8.06739 -6.65195,8.62711 -5.2302,6.20529 -10.77403,12.13915 -16.59732,17.79286 -3.60607,3.50107 -7.3834,6.8213 -11.0751,10.23195 -4.24516,3.48475 -8.49032,6.9695 -12.73549,10.45425 -40.86141,33.80598 6.94747,91.59275 47.80889,57.78677 v 0 c 5.33756,-4.44336 10.67512,-8.88671 16.01269,-13.33007 4.63604,-4.33702 9.3851,-8.5563 13.90813,-13.01105 14.51094,-14.29189 29.18948,-30.39382 38.20355,-48.86253 1.76299,-3.61215 2.99979,-7.45819 4.49968,-11.18728 2.5283,-9.68904 3.71973,-12.31931 4.35939,-22.27339 0.97149,-15.11764 -2.2122,-29.89026 -8.09518,-43.76798 -4.30781,-9.13848 -4.89973,-10.98542 -10.18491,-19.75406 -7.31582,-12.13766 -16.2945,-23.11418 -24.72938,-34.4638 -9.93711,-13.54712 -20.39582,-27.24379 -23.37716,-44.21646 -0.64482,-7.85937 -1.18872,-9.6427 -0.10148,-17.78819 2.14515,-16.07136 8.32994,-31.2787 15.27809,-45.79031 1.78755,-3.61212 3.51799,-7.25307 5.36265,-10.83636 4.82078,-9.36443 5.01675,-9.12243 9.961,-18.09446 2.49467,-4.52693 9.17027,-16.41907 9.45794,-20.93117 0.60054,-9.41912 -1.52345,-18.81491 -2.28518,-28.22236 -8.78491,-7.1858 -16.57712,-15.79473 -26.35475,-21.55741 -3.59904,-2.12118 -8.29194,-1.08798 -12.46306,-1.32078 -1.77069,-0.0988 -3.54258,0.18477 -5.31017,0.32882 -8.22373,0.6702 -16.40238,1.83612 -24.55363,3.08837 -11.19132,1.95358 -14.27527,2.40448 -25.81773,4.8122 -21.03289,4.38739 -41.84729,9.74922 -62.74604,14.71682 -17.15121,4.22172 -34.3179,8.40513 -51.69186,11.62555 -52.386895,8.25305 -40.71532,82.33931 11.67158,74.08626 z"/>
<path d="m 158.71416,823.47932 c -0.15674,0.1029 -0.65661,0.32931 -0.47024,0.30871 3.61086,-0.3993 7.15791,-1.27044 10.76557,-1.69768 9.9441,-1.17765 19.96473,-1.43524 29.9607,-1.77486 4.66839,-0.058 9.33643,-0.16587 14.00517,-0.17402 11.80475,-0.0206 19.86136,0.0915 31.69566,0.82039 17.35336,1.0688 34.54046,3.24034 51.75802,5.57272 34.97053,5.46095 69.60888,12.9008 104.14466,20.60299 35.83966,8.3696 71.31634,18.17145 107.09486,26.79011 36.95585,8.71423 74.37133,15.22663 111.85536,21.17464 32.43741,5.24237 65.05155,9.14555 97.7924,11.85016 21.04353,1.46778 42.15854,1.98396 63.24225,1.19045 11.71132,-0.44077 19.43661,-1.07361 31.10936,-1.88869 16.11864,-1.01052 32.14573,-2.90173 48.16586,-4.88281 52.62685,-6.55091 43.36246,-80.97652 -9.26439,-74.42561 v 0 c -14.68347,1.84137 -29.37646,3.56603 -44.15348,4.49254 -10.08466,0.71203 -17.63778,1.32495 -27.70545,1.72734 -18.41753,0.73613 -36.86378,0.29017 -55.24935,-0.96107 -30.86848,-2.52412 -61.60987,-6.2443 -92.19088,-11.17676 -35.53592,-5.63114 -71.01039,-11.77927 -106.04979,-20.01748 -36.19306,-8.70517 -72.06533,-18.67372 -108.33271,-27.077 -36.62262,-8.15589 -73.35331,-16.03958 -110.45174,-21.72821 -6.50033,-0.87029 -12.98918,-1.83106 -19.50099,-2.61085 -30.06434,-3.60024 -60.34019,-5.21177 -90.61558,-4.23198 -20.53916,0.75046 -41.32621,1.53883 -61.27481,6.9499 -50.322724,16.73689 -26.65318,87.90397 23.66954,71.16707 z"/>
</svg>
