<?xml version="1.0" ?>
<svg xmlns="http://www.w3.org/2000/svg" viewBox="0 0 1000 1000">
<path d="m 368.31944,193.79045 c 0.22949,21.50581 -2.67317,42.93286 -5.00708,64.2699 -5.36308,47.52329 -9.17746,95.21344 -11.35195,142.98941 -0.5129,11.26897 -0.85664,22.54501 -1.28496,33.81752 -1.40873,43.1734 -1.63006,86.39061 0.30148,129.55121 1.0231,22.8612 1.88517,32.56363 3.52719,54.99532 2.42497,31.64439 5.97698,63.18248 9.5257,94.71516 5.93097,52.70032 80.46047,44.31267 74.52951,-8.38765 v 0 c -3.44029,-30.56905 -6.89627,-61.14201 -9.2565,-91.81864 -1.56047,-21.1922 -2.39202,-30.5444 -3.37111,-52.10796 -1.87735,-41.34698 -1.65115,-82.74894 -0.31,-124.10919 0.4112,-10.89546 0.74076,-21.79431 1.23358,-32.68638 2.09852,-46.38065 5.79971,-92.67743 11.01321,-138.81145 2.76717,-25.34561 6.11251,-50.81725 5.34681,-76.36795 -2.79357,-52.95938 -77.68944,-49.00868 -74.89588,3.9507 z"/>
<path d="m 522.9268,210.19916 c 14.76941,-4.94118 29.52513,-9.89703 44.57843,-13.92726 5.20123,-1.39253 10.43662,-2.65418 15.65492,-3.98127 24.48661,-5.76947 49.18358,-10.74607 74.14507,-13.96376 15.99612,-2.062 18.67372,-2.08059 34.35025,-3.30304 19.4626,-1.29407 38.98014,-0.64786 58.17938,2.80826 5.53947,1.09573 10.92557,2.87907 16.07427,5.18765 0.019,0.0418 0.0989,0.14424 0.0569,0.12553 -2.72732,-1.21572 -4.74597,-3.01706 -6.93248,-4.99166 -0.19094,-0.17244 -0.46579,-0.68116 -0.61242,-0.46975 -0.20547,0.29625 0.13409,0.70849 0.20113,1.06274 5.35199,22.11167 8.48194,44.64731 11.35871,67.18709 4.2647,41.06521 6.03772,82.3902 6.37691,123.66717 0.0735,8.94856 -0.0224,17.89771 -0.0337,26.84656 -0.67724,49.83671 -4.71943,99.55105 -9.88081,149.09931 -3.97676,36.29437 -10.57723,72.19996 -18.29146,107.86166 -3.44087,14.63142 -6.69745,29.34956 -11.25745,43.68559 -0.19732,0.53084 -0.39464,1.06169 -0.59196,1.59253 -0.0549,0.0861 -0.20538,0.35174 -0.16459,0.25818 3.45127,-7.9175 7.78578,-11.61413 15.22444,-16.28639 1.46679,-0.9213 3.20565,-1.31336 4.80847,-1.97004 -0.28828,-0.0541 -0.57153,-0.16088 -0.86484,-0.16221 -1.96859,-0.009 -3.93592,0.15592 -5.90438,0.13153 -8.76495,-0.10858 -16.25599,-0.61318 -25.14299,-1.65188 -18.80776,-2.19822 -22.02962,-3.21516 -41.29741,-6.93479 -52.09465,-9.93212 -66.14079,63.74084 -14.04614,73.67296 v 0 c 8.60311,1.62273 17.16851,3.45993 25.80932,4.86819 14.1299,2.30286 28.36203,3.90618 42.65665,4.69092 7.55084,0.41453 17.48461,0.49108 25.26412,-0.13688 3.13169,-0.25279 6.23541,-0.77794 9.35311,-1.16691 3.6225,-1.09272 7.47903,-1.59449 10.86751,-3.27816 14.66676,-7.28766 20.76827,-16.49036 25.56697,-31.1043 5.17797,-16.55851 9.16943,-33.45952 13.02688,-50.36601 8.27669,-38.33389 15.33221,-76.93508 19.58162,-115.94786 5.40735,-52.1011 9.63718,-104.37584 10.28291,-156.78011 0.007,-9.42057 0.10302,-18.84149 0.0217,-28.26172 -0.37998,-44.0211 -2.31911,-88.09191 -6.97536,-131.8767 -2.29481,-17.78418 -4.71161,-35.47642 -8.09473,-53.09187 -1.15159,-5.99617 -3.34668,-16.53432 -5.02036,-22.62162 -0.94638,-3.44204 -2.11895,-6.81786 -3.17843,-10.2268 -2.86914,-6.59025 -4.04018,-10.17627 -8.17899,-16.11411 -6.19877,-8.89321 -14.38723,-15.85888 -24.32765,-20.19568 -10.58575,-4.48899 -21.51581,-8.15777 -32.86298,-10.18921 -8.22525,-1.40205 -10.47281,-1.91063 -19.0607,-2.81667 -19.23962,-2.029841 -38.62421,-2.057183 -57.92153,-0.86971 -17.77735,1.43069 -21.21187,1.49087 -39.22835,3.85111 -27.56396,3.611 -54.84808,9.08483 -81.88407,15.51041 -21.11278,5.40563 -42.11998,11.1834 -62.64259,18.56635 -50.92062,14.81858 -29.96398,86.83121 20.95664,72.01263 z"/>
<path d="m 513.27758,350.22304 c 17.46759,-6.13398 35.28424,-11.32377 53.38244,-15.25021 6.00784,-1.30342 12.06813,-2.35218 18.10219,-3.52827 28.92103,-4.96139 58.3038,-7.2693 87.61941,-5.72609 8.30151,0.7203 4.5227,0.31634 11.344,1.13889 52.67834,6.12307 61.33767,-68.37536 8.65932,-74.49843 v 0 c -10.10419,-1.14573 -4.65547,-0.60354 -16.35343,-1.5516 -4.05478,-0.1859 -8.10635,-0.46511 -12.16434,-0.5577 -31.35033,-0.71532 -62.71247,2.35567 -93.59154,7.6073 -7.08453,1.40646 -14.19941,2.6679 -21.2536,4.21939 -22.14047,4.86952 -44.003,11.23829 -65.23251,19.18692 -48.76194,20.85121 -19.27388,89.81101 29.48806,68.9598 z"/>
<path d="m 557.90427,230.72051 c 2.39866,25.89315 2.13359,51.95984 2.11607,77.93763 -0.0863,29.55204 -0.92746,59.09158 -2.1599,88.61541 -2.2073,52.98706 72.72771,56.10865 74.93501,3.1216 v 0 c 1.27011,-30.55024 2.14124,-61.11655 2.22488,-91.69582 0.0129,-29.95029 0.37663,-60.05609 -3.06215,-89.85392 -8.39696,-52.36403 -82.45088,-40.48892 -74.05391,11.8751 z"/>
<path d="m 404.36255,491.27987 c 27.71815,-9.89633 56.76329,-15.51561 85.55745,-21.25368 49.79874,-9.17769 100.29894,-14.62602 150.92105,-16.10127 9.90766,-0.28873 19.82255,-0.2174 29.73382,-0.3261 35.01643,0.69034 70.35511,2.65369 104.60869,10.49411 3.68914,0.84443 7.31975,1.92683 10.97962,2.89024 9.8856,3.25549 5.41365,1.60145 13.4702,4.81258 49.47218,19.10506 76.49082,-50.85917 27.01863,-69.96423 v 0 c -13.52964,-5.12918 -6.29243,-2.59151 -21.76044,-7.47237 -5.00278,-1.27052 -9.97092,-2.68621 -15.00834,-3.81157 -39.39551,-8.80099 -79.9372,-11.32036 -120.18927,-11.94359 -10.78946,0.13446 -21.58302,0.0766 -32.36837,0.40337 -54.37879,1.64771 -108.62063,7.56245 -162.10711,17.47384 -32.8529,6.58601 -65.95423,13.14855 -97.50323,24.69218 -49.57278,18.84249 -22.92548,88.94899 26.6473,70.10649 z"/>
<path d="m 467.41563,514.93897 c -0.22721,3.29606 -0.60135,6.58527 -0.68161,9.88817 -0.15925,6.55333 0.48317,17.28849 0.82151,23.58003 0.81032,15.06821 1.75026,30.13005 2.63561,45.19397 0.90168,16.70952 1.44032,33.43485 1.9046,50.16114 1.47403,53.01252 76.44505,50.92793 74.97102,-2.08459 v 0 c -0.48736,-17.49863 -1.05465,-34.99619 -2.00482,-52.47697 -0.87464,-14.88155 -1.78399,-29.7614 -2.60542,-44.64602 -0.19615,-3.55437 -0.39964,-7.10844 -0.56354,-10.66444 -0.0952,-2.06538 -0.0566,-4.13744 -0.21367,-6.19905 -0.0124,-0.16273 -0.19241,-0.26367 -0.28861,-0.39551 8.73752,-52.30827 -65.23755,-64.665 -73.97507,-12.35673 z"/>
<path d="m 525.23529,560.85278 c 17.65358,-5.2916 35.80288,-8.4616 53.99778,-11.18036 16.72858,-2.50104 33.59234,-3.2529 50.44726,-2.03284 1.88308,0.17859 4.76182,0.42875 6.73157,0.68915 0.33696,0.0446 0.70231,0.0284 1.0021,0.18859 0.23711,0.12669 -0.54179,-0.0157 -0.80235,-0.0819 -1.39258,-0.35371 -2.90065,-0.46056 -4.14706,-1.17528 -4.51114,-2.58677 -8.65607,-5.76538 -12.98411,-8.64808 -2.17333,-3.32601 -4.34666,-6.65202 -6.52,-9.97803 -0.26842,-0.47579 -0.74518,-1.97034 -0.80525,-1.42737 -0.18273,1.65156 0.29084,3.31062 0.41356,4.96771 0.21619,2.91907 0.43469,5.83824 0.60314,8.76045 0.66508,11.53714 0.55448,11.67071 0.81638,23.7074 0.77648,23.66511 -1.92909,47.15504 -6.55115,70.31586 -0.44775,1.89952 -0.8955,3.79903 -1.34325,5.69854 -11.98561,51.66086 61.07389,68.61108 73.0595,16.95021 v 0 c 0.62164,-2.70978 1.24327,-5.41957 1.86491,-8.12936 1.82791,-9.34605 2.61898,-12.84318 4.04278,-22.68605 3.05879,-21.1458 4.37212,-42.49475 3.90769,-63.86025 -0.3027,-12.75294 -0.6369,-25.48739 -1.77032,-38.20063 -0.47647,-5.34447 -1.50499,-16.1456 -3.48886,-20.98748 -2.1844,-5.33131 -5.55765,-10.09408 -8.33648,-15.14112 -5.02543,-3.66212 -9.75207,-7.77408 -15.07629,-10.98636 -2.07781,-1.25362 -4.57737,-1.62431 -6.91356,-2.28086 -6.01572,-1.69063 -12.37305,-1.80814 -18.53535,-2.51694 -6.50569,-0.43435 -9.72156,-0.72458 -16.51499,-0.81542 -16.82755,-0.22503 -33.62056,1.23561 -50.28213,3.50833 -22.12498,3.36155 -44.19528,7.31647 -65.62737,13.89543 -50.52039,16.13042 -27.70854,87.57704 22.81185,71.44662 z"/>
<path d="m 520.50061,667.21567 c 17.49879,-3.33532 34.98656,-6.86736 52.74971,-8.50952 5.12239,-0.47355 10.26502,-0.69427 15.39753,-1.04141 5.67143,-0.10715 11.34286,-0.21431 17.01428,-0.32146 53.02072,-1.14193 51.40579,-76.12454 -1.61492,-74.98262 v 0 c -6.89441,0.16348 -13.78882,0.32696 -20.68323,0.49044 -6.36461,0.46488 -12.74178,0.78165 -19.09384,1.39462 -18.65058,1.79976 -37.07775,5.2548 -55.44111,8.88369 -52.3869,8.25305 -40.71532,82.33931 11.67158,74.08626 z"/>
<path d="m 170.41425,228.49501 c 12.71329,9.53731 24.16033,20.5676 35.52333,31.63678 38.00095,36.99227 90.31592,-16.74918 52.31498,-53.74146 v 0 c -13.69138,-13.31948 -27.5754,-26.49045 -42.90278,-37.94362 -42.46057,-31.77422 -87.39609,28.27408 -44.93553,60.0483 z"/>
<path d="m 99.682963,431.99291 c 22.595717,-6.66732 45.157827,-13.40002 67.898037,-19.56802 30.03822,-7.85618 60.312,-14.90284 90.96364,-19.90822 5.30881,-0.74642 8.11239,-1.23755 13.15601,-1.65271 1.01073,-0.0832 2.02527,-0.12689 3.03938,-0.13672 0.25638,-0.002 1.01842,0.11797 0.76267,0.0999 -1.96435,-0.13884 -4.22468,0.58934 -5.88963,-0.46225 -8.73464,-5.51685 -16.4196,-12.5425 -24.6294,-18.81375 -1.11297,-7.25479 -2.22593,-14.50957 -3.3389,-21.76436 0.10257,-0.81799 0.97218,-2.94194 0.3077,-2.45398 -1.22342,0.89842 -1.53911,2.61665 -2.30987,3.92427 -1.45247,2.46418 -2.91051,4.92509 -4.35982,7.39114 -7.85246,13.36116 -4.36067,7.28495 -12.68462,22.40254 -10.4972,19.99389 -20.19036,40.73168 -24.9702,62.94368 -3.55968,16.5419 -2.91361,19.71661 -3.45821,36.49046 0.84377,22.78921 6.43374,44.87686 16.42896,65.3602 5.45859,11.18637 8.85012,15.80234 15.48643,26.09185 2.61609,3.61765 5.16156,7.28744 7.84829,10.85296 6.75839,8.96895 7.38736,9.18235 14.08841,17.49855 3.1322,3.88714 5.6652,6.97547 8.1245,11.22757 0.74519,1.28843 1.30726,2.67442 1.96089,4.01162 0.11945,0.73204 0.57163,1.48572 0.35833,2.19611 -0.22245,0.74088 -1.56309,-1.31806 -2.16589,-0.83329 -0.97203,0.7817 -1.34957,2.09917 -1.97587,3.17789 -7.33281,12.62965 -0.61777,2.09566 -10.39118,16.65035 -7.82737,9.81125 -10.59015,13.78368 -19.75886,22.98365 -4.12521,4.13929 -8.56904,7.94833 -12.85356,11.9225 -38.63085,36.33397 12.75315,90.96624 51.384,54.63227 v 0 c 5.69389,-5.41095 11.59952,-10.60748 17.08167,-16.23286 12.88912,-13.22589 16.00779,-18.12469 27.10379,-32.54514 3.36431,-5.31289 7.01501,-10.4549 10.09293,-15.93867 5.7683,-10.27712 11.42576,-22.72725 13.61262,-34.39464 2.43704,-13.00217 1.86033,-22.44469 -1.60146,-34.93235 -1.18021,-4.25736 -3.261,-8.21206 -4.89151,-12.31809 -1.92328,-3.43553 -3.69537,-6.9602 -5.76985,-10.30661 -8.57445,-13.83167 -20.27809,-25.29006 -29.4626,-38.67727 -4.15439,-6.23232 -6.34824,-9.17581 -9.83808,-15.75718 -5.51824,-10.40666 -8.8827,-21.68649 -9.87212,-33.43467 -0.12856,-7.89807 -0.55401,-10.44433 0.93144,-18.38346 3.06906,-16.4029 10.68773,-31.47872 18.24289,-46.17712 1.96015,-3.57854 3.87071,-7.1847 5.88047,-10.73563 1.85356,-3.27495 3.8055,-6.49324 5.70825,-9.73986 1.72949,-2.9453 3.50506,-5.86403 5.18848,-8.83589 2.41659,-4.26617 9.16409,-16.13336 9.47841,-20.62351 0.65055,-9.29334 -1.25047,-18.59015 -1.8757,-27.88522 -8.72067,-7.34541 -16.5835,-15.85097 -26.162,-22.03622 -2.89737,-1.87096 -6.80631,-1.16586 -10.24172,-1.47124 -1.9939,-0.17725 -4.00481,-0.0463 -6.00523,0.027 -8.02838,0.29424 -15.99461,1.47539 -23.92873,2.6519 -33.16017,5.48404 -65.9497,12.96281 -98.44417,21.53414 -23.04217,6.26027 -45.91658,13.05059 -68.810523,19.82192 -51.0011,14.53918 -30.439594,86.66563 20.561506,72.12645 z"/>
<path d="m 93.528314,777.63444 c 13.446826,-3.66438 27.279666,-5.4007 41.063106,-7.23684 25.97835,-3.25799 52.14357,-5.8251 78.36062,-5.12883 5.84289,0.15517 11.67457,0.59875 17.51186,0.89812 37.81425,3.29981 74.67008,12.91166 111.28354,22.47366 30.89585,8.29368 61.40362,17.96247 92.3289,26.15052 6.05525,1.60325 12.13833,3.09954 18.20749,4.6493 24.18189,5.95701 48.70452,10.46477 73.39349,13.71342 15.50279,2.03989 23.20052,2.67099 38.78152,4.20833 41.42659,3.63258 82.7358,8.39304 124.03434,13.2329 31.6495,3.15415 63.39671,6.79554 95.2627,6.41969 25.98507,-0.30648 31.60443,-1.58704 57.93445,-4.45411 42.88009,-7.35959 21.3912,-2.97034 64.45196,-13.23949 51.55776,-12.42165 33.99089,-85.33534 -17.56687,-72.91368 v 0 c -36.84727,8.98293 -18.44177,5.12971 -55.20467,11.61603 -21.1934,2.43466 -27.21356,3.68253 -48.11548,4.00624 -29.44834,0.45608 -58.78375,-3.07006 -88.03246,-5.9249 -41.76197,-4.89414 -83.53522,-9.70445 -125.42615,-13.38286 -13.98347,-1.36928 -21.54804,-1.99505 -35.40159,-3.7984 -22.05815,-2.87136 -43.97269,-6.85009 -65.57809,-12.15725 -36.94313,-9.40787 -73.38877,-20.55337 -110.13175,-30.69543 -41.6137,-10.85158 -83.54897,-21.53378 -126.57548,-24.8153 -7.0723,-0.32892 -14.13871,-0.82925 -21.2169,-0.98677 -29.52161,-0.65696 -58.98791,2.08272 -88.24094,5.79035 -16.54621,2.21966 -33.122297,4.46462 -49.275794,8.80513 -51.456281,12.83554 -33.304083,85.60571 18.152198,72.77017 z"/>
</svg>
