<?xml version="1.0" ?>
<svg xmlns="http://www.w3.org/2000/svg" viewBox="0 0 1000 1000">
<path d="m 534.39126,134.63661 c 15.01382,6.761 30.30826,12.89715 45.18106,19.97374 4.46235,2.12323 8.85146,4.39707 13.2772,6.59561 4.09878,2.19347 8.19757,4.38695 12.29635,6.58042 46.78963,24.96459 82.09489,-41.20594 35.30526,-66.17053 v 0 c -4.7758,-2.541555 -9.55161,-5.083114 -14.32741,-7.624673 -5.17164,-2.552578 -10.30506,-5.184104 -15.51493,-7.657736 -16.51547,-7.841505 -33.46114,-14.755145 -50.22025,-22.046962 -49.74506,-18.382852 -75.74234,51.967281 -25.99728,70.350131 z"/>
<path d="m 392.39814,291.33677 c 29.51081,-6.40734 58.91632,-13.31792 88.58417,-18.98348 11.2547,-2.14927 22.55128,-4.0731 33.82692,-6.10964 63.19083,-10.81664 127.26292,-16.23348 191.37174,-16.29261 10.98989,-0.0101 21.97631,0.39119 32.96447,0.58678 29.62474,1.56144 59.55697,3.27293 88.51236,10.22419 3.45886,0.83037 6.84747,1.93006 10.2712,2.89509 51.14686,14.0178 70.97101,-58.31479 19.82415,-72.33258 v 0 c -4.98387,-1.33924 -9.92418,-2.85263 -14.95161,-4.01771 -33.54676,-7.77425 -68.07501,-10.16593 -102.37465,-11.75804 -11.87247,-0.19507 -23.74336,-0.60803 -35.6174,-0.58519 -68.12505,0.13105 -136.20441,5.96183 -203.34918,17.47759 -11.8019,2.13756 -23.62545,4.15881 -35.40569,6.4127 -30.74717,5.88281 -61.23404,13.01543 -91.80842,19.71267 -51.45633,12.83535 -33.30439,85.60559 18.15194,72.77023 z"/>
<path d="m 424.39598,262.48449 c -1.06169,25.20312 -6.1797,50.02022 -11.10877,74.68422 -11.2231,56.33365 -26.50582,111.80255 -44.87272,166.2147 -4.46601,13.23059 -9.261,26.34784 -13.89149,39.52177 -24.46515,66.848 -51.79794,132.61035 -80.72378,197.64179 -5.27391,11.85686 -10.74502,23.62502 -16.11752,35.43753 -5.35867,9.97636 -10.71734,19.95271 -16.07601,29.92906 -24.98955,46.77631 41.16213,82.11686 66.15168,35.34056 v 0 c 6.06623,-11.40917 12.13246,-22.81835 18.19869,-34.22752 5.53463,-12.17678 11.16839,-24.30899 16.6039,-36.53034 29.6658,-66.70139 57.66366,-134.16732 82.7267,-202.74147 4.83382,-13.77739 9.84183,-27.4949 14.50146,-41.33217 19.25099,-57.1679 35.26278,-115.44136 47.05597,-174.61201 5.84658,-29.47826 11.80389,-59.18136 12.55189,-89.32612 0,-53.03301 -75,-53.03301 -75,0 z"/>
<path d="m 473.34313,438.19652 c 28.59584,-8.60607 58.42341,-12.25348 87.94816,-16.06751 60.17478,-6.9787 120.82519,-7.48717 181.32413,-7.41235 31.53516,-0.0857 63.05927,0.51955 94.56427,1.858 52.98546,2.24528 56.16077,-72.68747 3.17531,-74.93276 v 0 c -32.53439,-1.37532 -65.08827,-2.01351 -97.65359,-1.92519 -63.757,-0.0675 -127.66942,0.56906 -191.0726,8.03732 -33.88416,4.4249 -68.06216,8.81336 -100.82462,18.90931 -50.5816,15.93743 -28.04266,87.47061 22.53894,71.53318 z"/>
<path d="m 538.40556,301.56385 c -0.44457,30.45955 0.0121,60.9228 -0.002,91.38431 -0.49825,55.86202 -3.62688,111.65748 -6.79203,167.4188 -0.49563,8.39891 -0.99126,16.79782 -1.48689,25.19673 -3.12392,52.94092 71.74585,57.35881 74.86976,4.41789 v 0 c 0.49888,-8.45504 0.99776,-16.91007 1.49664,-25.3651 3.24362,-57.16579 6.43424,-114.36734 6.91251,-171.63685 0.0117,-30.47206 -0.43976,-60.94563 0.002,-91.41578 0,-53.033 -75,-53.033 -75,0 z"/>
<path d="m 691.50405,255.93447 c -0.92597,23.11593 -2.25733,46.219 -3.50055,69.32078 -3.02075,53.53648 -6.70141,107.03248 -9.89925,160.55833 -1.54151,25.90851 -2.50955,51.84448 -3.46984,77.77912 -1.96052,52.99676 72.98821,55.76935 74.94873,2.7726 v 0 c 0.93756,-25.36793 1.88116,-50.73724 3.38766,-76.07963 3.2056,-53.67332 6.90037,-107.31644 9.92436,-161.00067 1.31502,-24.44231 2.79222,-48.88708 3.60889,-73.35053 0,-53.033 -75,-53.033 -75,0 z"/>
<path d="m 591.51505,574.11422 c 21.72107,-1.40861 43.46458,-2.35147 65.21813,-3.06886 12.04964,-0.2391 23.91682,-0.60247 35.96822,-0.34805 5.75296,0.12145 11.49854,0.4782 17.24781,0.71731 52.99084,2.11457 55.98129,-72.82579 2.99045,-74.94036 v 0 c -6.73264,-0.25898 -13.46163,-0.64334 -20.19792,-0.77694 -12.9713,-0.25727 -25.52456,0.12744 -38.49286,0.38919 -22.83924,0.76051 -45.66931,1.74453 -68.47327,3.24764 -52.87749,4.05839 -47.13806,78.83846 5.73944,74.78007 z"/>
<path d="m 382.66195,712.75662 c 2.2946,13.84701 8.27172,26.68666 13.94459,39.39919 21.80928,48.8731 -10.97019,-24.89773 11.1983,25.03625 5.71085,13.06136 11.86016,25.93655 19.20946,38.16706 2.15365,3.58406 4.52371,7.03355 6.78556,10.55032 28.91252,44.45859 91.78646,3.57011 62.87394,-40.88848 v 0 c -1.50537,-2.27607 -3.08509,-4.50469 -4.51613,-6.82823 -6.16473,-10.00949 -11.08562,-20.68929 -15.80584,-31.43601 -6.58239,-14.82333 -13.64533,-29.4836 -19.44699,-44.62991 -7.51641,-52.49766 -81.7593,-41.86785 -74.24289,10.62981 z"/>
<path d="m 512.04353,699.77456 c 1.20322,2.11004 2.3495,4.25359 3.60968,6.33013 2.33483,3.8474 7.81553,12.07707 10.08642,15.90463 5.61319,9.46098 10.10208,19.52905 14.79758,29.45878 1.81689,3.83796 3.63378,7.67593 5.45067,11.5139 22.69156,47.93322 90.47937,15.8425 67.78781,-32.09071 v 0 c -1.81797,-3.84025 -3.63595,-7.68049 -5.45392,-11.52074 -3.90261,-8.23149 -8.32108,-17.78991 -12.59476,-25.81915 -5.02878,-9.44786 -10.8166,-18.40904 -16.63156,-27.37803 -23.75962,-47.41287 -90.81155,-13.81168 -67.05192,33.60119 z"/>
<path d="m 658.05511,693.12393 c 0.79655,1.30692 2.01506,3.27894 2.6086,4.45459 1.61013,3.18923 2.83032,6.56081 4.2339,9.84617 4.64171,10.86484 3.5048,8.18652 8.6424,19.65657 6.71487,14.99316 14.20984,29.60512 21.99397,44.06414 25.17553,46.67646 91.18602,11.07288 66.01049,-35.60359 v 0 c -6.93912,-12.83746 -13.59127,-25.82602 -19.56862,-39.145 -6.06591,-13.51365 -2.44794,-5.3208 -8.15019,-18.53432 -3.91467,-9.07125 -7.8102,-18.20909 -13.40968,-26.40536 -29.46288,-44.09579 -91.82374,-2.429 -62.36087,41.6668 z"/>
<path d="m 828.84989,679.061 c -1.03435,11.32878 -3.88069,22.51995 -7.2873,33.35382 -1.84836,5.87827 -4.05686,11.63718 -6.08529,17.45577 -11.76535,30.7472 -29.6888,58.41084 -47.40358,85.94816 -28.65087,44.62766 34.46217,85.14611 63.11304,40.51845 v 0 c 5.11803,-7.98671 10.39197,-15.87564 15.3541,-23.96014 15.32276,-24.96439 29.55779,-50.65158 39.87107,-78.14916 2.52487,-7.44178 5.27913,-14.80962 7.5746,-22.32533 1.90814,-6.24749 3.54205,-12.58 5.02908,-18.94089 3.39978,-14.54275 5.82666,-29.58374 4.07717,-44.53052 -7.51643,-52.49765 -81.75932,-41.86781 -74.24289,10.62984 z"/>
<path d="m 61.746997,247.7674 c 20.96652,17.73479 38.737723,38.80235 56.480043,59.65004 16.22522,19.97233 8.40607,10.17223 23.48324,29.37971 32.75816,41.70615 91.73957,-4.62089 58.98141,-46.32704 v 0 c -16.22578,-20.64592 -7.77935,-10.07472 -25.37155,-31.68782 -20.54503,-24.09674 -41.26522,-48.29427 -65.62274,-68.68429 -40.778417,-33.90605 -88.728821,23.76334 -47.950403,57.6694 z"/>
<path d="m 55.147061,486.16231 c 21.313094,-4.11517 42.123132,-10.37906 63.165959,-15.62852 6.497,-1.62078 13.02183,-3.12786 19.53275,-4.69179 23.51088,-5.27471 47.26349,-9.75496 71.27881,-11.96925 10.0833,-0.92972 13.23826,-0.89549 22.89371,-1.19437 5.34915,0.0856 10.81041,-0.0131 16.0885,1.06672 0.28224,0.0577 1.08735,0.33495 0.79934,0.32859 -2.12209,-0.0468 -4.95156,-1.6594 -6.4832,-2.31671 -2.05993,-1.53862 -4.35661,-2.80294 -6.17979,-4.61586 -7.19901,-7.15849 -10.32712,-16.5855 -9.3962,-26.57712 0.12922,-1.38691 0.55204,-2.73059 0.82806,-4.09588 -0.40983,1.83967 0.36517,-1.24018 0.19028,-0.96346 -1.06827,1.69029 -1.87901,3.5306 -2.85808,5.27406 -2.21463,3.94367 -3.15168,5.31796 -5.71316,9.41686 -1.58551,2.41913 -3.17258,4.83723 -4.75651,7.25739 -7.55593,11.54503 -14.78367,23.17714 -21.24376,35.38595 -5.88516,11.12225 -10.35495,20.73914 -15.80761,32.10826 -11.69643,24.63422 -22.58774,49.72802 -30.58531,75.83763 -5.43177,17.73306 -5.66654,20.75405 -9.4551,38.64546 -4.2966,24.3681 -4.0877,49.10559 1.95086,73.15652 3.01077,11.99154 5.53858,17.38595 9.97574,28.60506 6.96306,16.79793 16.63838,32.29173 23.65663,49.05294 2.62745,6.88821 2.22066,13.30817 0.45602,20.34876 -1.42272,3.28359 -1.75761,4.41744 -3.88604,7.57872 -6.37543,9.46923 -17.56492,17.54998 -26.29455,24.65042 -10.35319,8.11122 -21.58519,14.94599 -32.79159,21.78005 -45.226857,27.69533 -6.05974,91.65577 39.16712,63.96043 v 0 c 14.11107,-8.67071 28.22196,-17.39011 41.18834,-27.75188 9.28661,-7.66596 17.40455,-13.9372 25.80277,-22.67451 15.29777,-15.91544 25.22755,-32.49854 30.57142,-53.94776 0.6544,-3.98331 1.51768,-7.93788 1.96321,-11.94992 1.94133,-17.4816 -0.72759,-35.14167 -7.1998,-51.44236 -1.19979,-2.77694 -2.34133,-5.57978 -3.59937,-8.33083 -6.08859,-13.31439 -13.64422,-25.91226 -19.48578,-39.34579 -3.38716,-8.12412 -6.73827,-16.18424 -8.30567,-24.90726 -2.00015,-11.13135 -1.49027,-22.38968 0.26105,-33.51886 2.82979,-13.95593 2.96006,-16.17534 7.17995,-30.20399 6.96459,-23.15314 16.7362,-45.32257 27.06795,-67.13726 6.36935,-13.30939 12.61407,-26.67156 19.98293,-39.46959 4.66534,-8.10265 7.10767,-11.58385 12.20729,-19.39258 1.90176,-2.91203 3.80037,-5.8261 5.70056,-8.73915 6.03064,-9.7621 12.1783,-19.63171 16.10586,-30.46842 1.73087,-6.82441 2.79416,-9.15055 2.45783,-16.64523 -0.47063,-10.48707 -4.64418,-20.35208 -11.81791,-28.04078 -2.5181,-2.69886 -5.7021,-4.68879 -8.55315,-7.03319 -2.78373,-1.41491 -5.47148,-3.03709 -8.35118,-4.24475 -13.47328,-5.65026 -29.07087,-5.33321 -43.35787,-5.59834 -12.3132,0.4396 -16.00002,0.40399 -28.79018,1.62576 -27.08298,2.58708 -53.88427,7.57877 -80.40047,13.5749 -6.93884,1.67085 -13.89178,3.28421 -20.816524,5.01255 -19.667202,4.90873 -39.112734,10.78271 -59.021497,14.67857 -52.007571,10.37846 -37.3302095,83.92827 14.677362,73.54981 z"/>
<path d="m 51.261875,924.83703 c 15.246668,-1.86163 30.510908,-3.7389 45.841156,-4.77993 5.354869,-0.36364 10.719119,-0.57248 16.078679,-0.85872 45.54371,-1.3601 91.00092,3.0147 136.36085,6.48444 50.73139,3.4068 101.42787,7.24935 152.07263,11.76414 42.55198,3.62622 84.97877,8.48 127.33706,13.88239 35.43634,4.69745 70.93044,8.84877 106.5745,11.57627 31.71877,2.22201 63.52724,2.30269 95.30526,2.70699 29.60852,0.39415 59.19854,1.54451 88.79881,2.28857 26.74243,0.23328 53.69994,1.01514 80.28121,-2.61683 5.35197,-0.73128 10.64797,-1.82597 15.97195,-2.73895 19.75887,-4.95634 10.27679,-2.24498 28.47836,-8.02093 50.47235,-16.28012 27.44877,-87.65879 -23.02357,-71.37867 v 0 c -12.09101,3.99328 -5.90734,2.13232 -18.55988,5.55344 -3.57079,0.66552 -7.11767,1.47549 -10.71239,1.99658 -23.33429,3.38254 -47.06902,2.29783 -70.55296,2.22899 -29.90982,-0.75026 -59.8092,-1.91692 -89.72754,-2.30614 -30.19612,-0.38407 -60.4218,-0.43302 -90.56421,-2.49651 -34.37952,-2.60441 -68.60448,-6.68225 -102.78345,-11.19049 -43.2995,-5.51942 -86.66898,-10.47876 -130.16576,-14.18865 -50.95722,-4.53969 -101.96539,-8.41819 -153.00985,-11.84174 -48.61831,-3.71881 -97.34786,-8.31437 -146.16215,-6.59178 -6.12091,0.33939 -12.246999,0.59568 -18.362734,1.01819 -16.068299,1.11009 -32.071365,3.04944 -48.053731,5.00148 -52.685017,6.06539 -44.1072567,80.57326 8.57776,74.50786 z"/>
</svg>
