<?xml version="1.0" ?>
<svg xmlns="http://www.w3.org/2000/svg" width="1000" height="1000">
<path d="m 504.66681,236.2713 c 1.39186,-0.47164 2.76733,-0.99476 4.17558,-1.41492 7.68087,-2.29165 14.70569,-3.97286 22.64295,-5.79418 11.59798,-2.66132 26.30364,-5.78288 37.88107,-7.92389 6.98779,-1.29225 14.00953,-2.39362 21.0143,-3.59043 23.82956,-3.77779 47.97998,-5.73723 72.10628,-4.60243 9.16305,0.43099 12.80044,1.01562 21.48959,2.07177 52.67043,6.19074 61.42546,-68.2965 8.75502,-74.48724 v 0 c -11.86159,-1.35903 -16.28866,-2.0618 -28.78408,-2.57031 -28.8622,-1.17455 -57.74661,1.11128 -86.24722,5.66793 -7.68098,1.32241 -15.38008,2.54359 -23.04294,3.96723 -12.06125,2.24078 -28.83255,5.78763 -40.93825,8.60201 -10.74578,2.49821 -19.53149,4.64849 -29.89699,7.95603 -2.73682,0.87329 -5.40312,1.95384 -8.10468,2.93076 -48.92308,20.4703 -19.9737,89.65797 28.94937,69.18767 z"/>
<path d="m 540.23451,136.05286 c 4.15276,20.13597 5.19828,40.77689 6.39823,61.25016 0.99704,24.52714 0.80692,49.12034 -1.15179,73.59735 -0.38066,4.75689 -0.9366,9.49812 -1.40491,14.24719 -5.12537,52.78475 69.52355,60.03313 74.64892,7.24837 v 0 c 0.53573,-5.59111 1.17172,-11.17351 1.60718,-16.77332 2.14082,-27.53023 2.34732,-55.1865 1.16861,-82.7672 -1.07786,-17.92863 -2.2065,-35.79828 -4.65982,-53.60415 -1.04332,-7.57227 -2.23809,-14.61609 -4.06057,-22.00006 -0.50159,-2.03224 -1.1825,-4.01596 -1.77375,-6.02394 -17.55435,-50.043433 -88.32645,-25.217832 -70.7721,24.8256 z"/>
<path d="m 401.12847,373.38284 c 31.43752,-10.58474 64.51172,-15.12745 97.11813,-20.53314 43.04017,-7.0139 86.21156,-13.53926 129.66276,-17.44951 27.04327,-2.43367 32.07452,-2.3235 58.50468,-3.38776 30.08094,-0.36371 60.49719,0.94473 89.80985,8.18639 51.56601,12.38738 69.08441,-60.53796 17.51841,-72.92534 v 0 c -9.72164,-2.29245 -12.13232,-3.02199 -22.63427,-4.71835 -28.99341,-4.68323 -58.4296,-6.08611 -87.76777,-5.47969 -28.74806,1.19901 -33.97884,1.07974 -63.28846,3.7375 -44.92839,4.07404 -89.57366,10.78973 -134.07986,18.04802 -37.3768,6.20485 -75.23819,11.65887 -111.12607,24.27784 -49.67004,18.58461 -23.38743,88.82865 26.2826,70.24404 z"/>
<path d="m 457.99712,424.517 c 5.49254,14.83104 9.30124,30.21499 13.12332,45.53917 5.06681,20.22289 9.12626,40.6768 13.00402,61.15465 9.87334,52.10583 83.56211,38.14281 73.68876,-13.96301 v 0 c -4.15088,-21.89258 -8.51043,-43.756 -13.93064,-65.37601 -4.66306,-18.62486 -9.38577,-37.3076 -16.27117,-55.26268 -19.73385,-49.22475 -89.34814,-21.31686 -69.61429,27.90788 z"/>
<path d="m 537.69882,453.56741 c -0.006,0.11508 -0.13059,0.36899 -0.0178,0.34525 0.75307,-0.15853 1.44962,-0.51794 2.16659,-0.79759 2.20463,-0.85989 4.37243,-1.81583 6.5977,-2.62081 3.52052,-1.27353 7.06454,-2.48509 10.63444,-3.61282 12.06329,-3.81078 16.16726,-4.71465 28.67296,-7.9972 24.48546,-5.70892 49.40841,-9.68254 74.53261,-10.89977 2.57218,1.10855 5.84614,-0.8088 8.51698,0.15514 0.87905,0.31726 -1.93054,0.29949 -2.80346,-0.0343 -5.07254,-1.93952 -10.81231,-3.07577 -14.84453,-6.71358 -9.42659,-8.50451 -9.87372,-12.49996 -12.12453,-21.36799 -8.01977,26.62567 -16.7997,53.00997 -24.9802,79.58663 -4.04888,13.52378 -8.60244,26.8836 -13.24036,40.21327 -17.40889,50.09421 53.43503,74.7141 70.84392,24.61989 v 0 c 4.9232,-14.18202 9.76701,-28.39257 14.07954,-42.77567 5.08231,-16.52218 5.00241,-16.44188 10.35879,-33.11592 4.81936,-15.00232 10.22231,-30.23519 14.19236,-45.48265 1.2201,-4.68598 2.14561,-9.44377 3.21842,-14.16566 0.12523,-6.12327 2.03204,-12.47349 0.37571,-18.36983 -2.50922,-8.93254 -6.33214,-17.94642 -12.51944,-24.86045 -11.69758,-13.0715 -29.3763,-12.87614 -44.93629,-12.58934 -30.27302,1.63141 -60.33148,6.16148 -89.80796,13.28318 -13.72316,3.63872 -20.79304,5.29881 -34.20941,9.68945 -13.66229,4.47111 -27.24033,9.53746 -39.29018,17.53319 -2.42202,1.60714 -4.56778,3.59606 -6.85168,5.39409 -38.59633,36.37063 12.8395,90.9541 51.43584,54.58347 z"/>
<path d="m 556.83002,578.3306 c 15.06711,-2.21134 30.15767,-4.24172 45.26611,-6.14906 6.97966,-0.87052 13.95077,-1.81956 20.94154,-2.59994 1.21208,-0.13531 4.85604,-0.26898 3.64038,-0.36711 -2.56743,-0.20724 -6.40881,2.24998 -7.72724,0.0372 -10.67366,-17.91391 -17.41339,-37.89611 -26.12008,-56.84416 1.86152,-2.28145 5.65389,-3.90064 5.58455,-6.84435 -0.0522,-2.21732 -3.78357,2.31565 -5.66351,3.49253 -3.44821,2.15865 -6.90232,4.30842 -10.32074,6.51394 -10.7699,6.9486 -17.83973,11.66594 -28.44282,19.30669 -5.65971,4.07847 -11.21029,8.30629 -16.81544,12.45944 -39.04329,30.18164 -77.39309,61.254 -115.86937,92.15363 -23.98481,18.92477 -12.01744,9.85332 -35.86724,27.26035 -42.8011,31.31398 1.48355,91.84388 44.28466,60.5299 v 0 c 26.18825,-19.20065 13.34398,-9.42435 38.54471,-29.31326 37.73101,-30.30148 75.3465,-60.76065 113.59979,-90.40126 13.38567,-9.94888 26.58194,-19.52683 40.59689,-28.57227 3.34649,-2.15987 6.73734,-4.25026 10.10441,-6.37791 2.93028,-1.85165 6.08785,-3.38601 8.78766,-5.55998 4.70971,-3.79241 8.90569,-8.1819 13.35854,-12.27284 -8.06961,-19.87842 -13.27159,-41.17865 -24.20884,-59.63527 -1.94839,-3.28791 -7.63084,-0.53372 -11.45268,-0.5436 -1.6274,-0.004 -3.23908,0.32049 -4.85639,0.50144 -7.17506,0.80274 -14.33068,1.77224 -21.49433,2.66766 -15.0703,1.90328 -30.12681,3.90444 -45.15261,6.13481 -52.6253,6.56341 -43.34324,80.98681 9.28205,74.42341 z"/>
<path d="m 463.23768,638.76478 c -0.69095,-0.74916 -1.4342,-3.04169 -2.07284,-2.24747 -0.76921,0.9566 0.73033,2.34484 1.03927,3.53283 0.64692,2.48773 1.32197,4.97145 1.8276,7.49169 1.53565,7.6542 2.75826,16.57378 3.41249,24.27302 0.41093,4.83593 0.54895,9.69118 0.82342,14.53678 0.53757,24.41526 -2.25413,48.7391 -6.49595,72.74177 -1.46398,8.3309 -0.81647,4.30193 -1.96643,12.08305 -7.59493,52.48635 66.63198,63.2272 74.22691,10.74085 v 0 c 0.77583,-5.55869 0.27454,-2.25697 1.61544,-9.88756 5.17764,-29.78885 8.50306,-59.97168 7.4801,-90.2575 -0.40853,-6.31951 -0.63463,-12.65347 -1.22558,-18.95854 -1.03363,-11.02817 -2.91067,-23.78451 -5.40691,-34.61208 -1.76348,-7.64916 -4.94045,-18.48404 -8.50628,-25.73637 -1.8741,-3.81162 -4.3397,-7.30273 -6.50955,-10.9541 -33.41336,-41.1831 -91.65505,6.07053 -58.24169,47.25363 z"/>
<path d="m 641.61086,610.09569 c -10.26899,10.93995 -22.45549,18.75442 -35.18117,26.51527 -7.65904,4.45549 -15.49019,8.61764 -23.56541,12.26952 -4.22756,1.91185 -8.57158,3.53184 -12.82552,5.38369 -25.87714,25.29764 -27.85743,17.0046 -9.80915,64.58012 1.73687,4.57843 7.78598,5.9507 11.84932,8.68347 3.04016,2.04463 6.29776,3.74577 9.43798,5.63312 13.00052,7.81366 9.11222,5.46999 22.89005,14.19108 23.66247,15.42423 46.66233,31.99675 67.8345,50.73249 3.32212,2.93982 6.51546,6.02203 9.77319,9.03305 2.5785,2.54261 5.157,5.08522 7.73549,7.62782 37.83034,37.16673 90.39203,-16.33344 52.5617,-53.50017 v 0 c -3.17013,-3.10517 -6.34025,-6.21034 -9.51038,-9.31551 -3.99248,-3.66102 -7.91086,-7.40453 -11.97744,-10.98305 -23.8673,-21.00283 -49.69904,-39.67778 -76.3367,-56.98679 -13.80137,-8.71707 -11.79653,-7.57533 -24.68189,-15.28914 -2.35197,-1.408 -4.55528,-3.11867 -7.08425,-4.17629 -0.52368,-0.219 0.68651,0.96414 0.75171,1.52802 1.59394,13.78404 7.31177,27.88816 4.21395,41.41383 -1.71818,7.50192 -11.48086,10.25249 -17.22129,15.37874 4.76473,-2.2355 9.74745,-3.96945 14.53859,-6.16996 10.55176,-4.84631 20.81006,-10.30473 30.80869,-16.20639 4.2847,-2.66619 8.64825,-5.20966 12.85411,-7.99856 18.54072,-12.29435 36.26581,-26.7084 48.34695,-45.63681 25.95616,-46.24693 -39.44687,-82.95447 -65.40303,-36.70755 z"/>
<path d="m 152.35637,210.61376 c 14.79925,14.27979 28.2469,29.89737 41.40728,45.67607 2.72927,3.45149 5.45854,6.90299 8.18781,10.35448 32.93442,41.5671 91.71918,-5.00921 58.78476,-46.57631 v 0 c -3.14052,-3.95686 -6.28103,-7.91372 -9.42155,-11.87058 -15.7756,-18.84682 -31.86505,-37.57121 -49.90136,-54.31475 -40.11494,-34.6885 -89.17188,22.0426 -49.05694,56.73109 z"/>
<path d="m 145.40353,455.31086 c 22.04796,-2.42285 44.0292,-5.39112 66.07893,-7.79699 12.86755,-1.24054 25.7929,-2.2553 38.73267,-1.92881 4.09309,0.10327 11.11568,0.48065 15.42952,1.49738 0.64057,0.15098 1.15465,0.63189 1.73197,0.94783 -10.04941,-3.10018 -8.95526,-1.58115 -17.7032,-13.70792 -1.63232,-2.26279 -0.48664,-6.55515 -2.97083,-7.82537 -1.66656,-0.85215 -1.70137,3.33547 -2.49261,5.03179 -11.77597,25.24636 0.94806,-0.85863 -13.92131,29.10425 -13.35557,27.3654 -26.25205,55.35175 -33.30078,85.12891 -1.73919,7.34716 -3.24418,14.77634 -4.07982,22.28016 -0.82848,7.43951 -0.60008,14.95896 -0.90012,22.43844 1.07197,7.48618 1.38103,15.12198 3.2159,22.45856 3.67472,14.69313 10.01464,27.54104 19.0592,39.63276 8.29573,11.0906 18.05029,19.65298 29.0271,27.91161 4.64943,3.4981 9.64185,6.51538 14.46278,9.77307 4.52906,2.66944 9.04154,5.3672 13.58718,8.00831 6.91408,4.01721 13.68683,7.58975 20.32755,12.01671 0.7706,0.51371 8.12762,5.47888 9.12643,7.70072 0.24833,0.55239 -1.17747,-0.28414 -1.76621,-0.42621 -4.897,2.18508 -2.36249,-7.97102 -5.61623,-7.98376 -1.40526,-0.006 -1.91697,2.05919 -2.79204,3.15876 -2.07939,2.61287 -3.93802,5.39915 -6.06636,7.9723 -8.69867,10.51663 -10.61419,11.91575 -20.6019,21.85813 -4.23327,3.53921 -8.46653,7.07842 -12.6998,10.61763 -40.40576,34.34929 8.17148,91.49167 48.57724,57.14238 v 0 c 5.79561,-4.98642 11.59122,-9.97285 17.38682,-14.95927 5.03572,-5.13005 10.28001,-10.06337 15.10714,-15.39016 19.60965,-21.63943 39.93026,-49.03622 36.89029,-80.171 -0.75318,-7.7139 -4.49758,-14.83434 -6.74637,-22.25151 -3.56211,-4.85699 -6.69739,-10.05794 -10.68633,-14.57095 -3.0145,-3.41055 -6.64764,-6.23428 -10.20875,-9.06933 -13.02501,-10.3694 -28.15452,-17.59132 -42.3416,-26.13997 -10.48196,-6.7592 -25.31833,-15.44786 -30.15141,-27.7733 -0.99794,-2.54498 -1.40499,-5.28367 -2.10748,-7.9255 -0.0622,-3.73654 -0.493,-7.48513 -0.18663,-11.2096 0.86952,-10.57059 3.80815,-21.47763 7.03952,-31.48396 6.19707,-19.18996 14.80165,-37.47429 23.68925,-55.52995 5.48062,-11.14069 13.45248,-26.55117 17.73638,-38.32807 2.33869,-6.4293 5.07944,-12.87542 5.84807,-19.67354 0.98481,-8.71023 2.01541,-17.93888 -0.65132,-26.28911 -7.34237,-22.99084 -14.88063,-23.79812 -32.17488,-33.55079 -4.27049,-1.09178 -8.48147,-2.45058 -12.81145,-3.27535 -7.39046,-1.40773 -18.29472,-2.00956 -25.70095,-2.14381 -15.51947,-0.28132 -31.02117,0.8552 -46.45348,2.37242 -22.85853,2.50715 -45.65322,5.53668 -68.50533,8.10256 -52.502355,7.48349 -41.919107,81.73304 10.58325,74.24955 z"/>
<path d="m 153.65071,840.27505 c 12.29255,-4.3678 25.18099,-6.56075 37.9994,-8.71696 28.2888,-3.86858 56.88687,-6.0096 85.4517,-5.78715 7.15804,0.0557 14.31161,0.37438 21.46742,0.56157 48.59416,2.20702 96.57181,10.80423 144.44053,18.92447 35.7402,6.13298 71.41765,12.71872 107.41085,17.23984 22.46394,2.8217 32.41201,3.56939 54.89873,5.66642 42.82365,3.52233 85.7691,6.01839 128.74083,6.65962 8.32764,0.12427 16.65691,0.0859 24.98537,0.12878 37.22336,0.0417 74.16784,-5.324 109.90398,-15.70115 9.41197,-2.73306 18.63066,-6.09242 27.94598,-9.13864 50.35981,-16.62496 26.84856,-87.84449 -23.51125,-71.21953 v 0 c -7.72321,2.57862 -15.36775,5.40609 -23.16965,7.73584 -29.49557,8.80778 -60.004,13.40638 -90.80434,13.32436 -7.83617,-0.0357 -15.67308,0.007 -23.5085,-0.10705 -41.26787,-0.60076 -82.51109,-2.99497 -123.63772,-6.36002 -20.85368,-1.93355 -30.81787,-2.68991 -51.59368,-5.28495 -35.22948,-4.4004 -70.13743,-10.90706 -105.11919,-16.8875 -51.39587,-8.71564 -102.92599,-17.80931 -155.11507,-19.95725 -8.10523,-0.1928 -16.20828,-0.53453 -24.31568,-0.57839 -32.46214,-0.17564 -64.95969,2.29092 -97.08742,6.84963 -17.99115,3.10576 -36.06367,6.43987 -53.18308,12.99093 -49.255035,19.65813 -21.45424,89.31526 27.80079,69.65713 z"/>
</svg>
