<?xml version="1.0" ?>
<svg xmlns="http://www.w3.org/2000/svg" width="1000" height="1000">
<path d="m 375.78335,100.47189 c -6.5798,4.76331 -7.92621,5.7835 -15.64103,11.08892 -27.34629,18.80584 -1.49891,0.64678 -34.00965,23.33181 -7.68934,5.36539 -15.28748,10.86144 -23.00864,16.18095 -8.57966,5.91097 -17.26119,11.67272 -25.89179,17.50908 -35.61272,23.1376 -71.36041,46.17959 -108.4532,66.90427 -7.91564,4.42267 -15.96792,8.59621 -23.95188,12.89431 -46.680742,25.16759 -11.08839,91.18414 35.59236,66.01654 v 0 c 8.63885,-4.66397 17.34946,-9.19739 25.91655,-13.99191 38.61229,-21.6091 75.85357,-45.57983 112.92186,-69.70363 9.00413,-6.09404 18.05878,-12.11409 27.01239,-18.28212 7.55534,-5.20479 15.00831,-10.55665 22.51247,-15.83498 6.29258,-4.35077 12.56968,-8.72403 18.87774,-13.05231 5.16046,-3.54085 10.37313,-7.00531 15.52758,-10.55491 8.16216,-5.62085 9.7018,-6.77851 16.51885,-11.71362 42.98672,-31.05868 -0.93689,-91.851079 -43.92361,-60.7924 z"/>
<path d="m 106.74806,263.53156 c 0.13007,22.96179 -0.56908,45.92079 -0.91574,68.8789 -0.6417,47.75901 0.35411,95.51279 1.87706,143.24471 1.6971,43.12329 3.31671,86.25432 5.85046,129.33812 1.3558,20.52988 2.64672,41.08677 5.42061,61.48341 3.49421,23.79702 7.60967,36.40742 41.7842,42.99395 8.68485,1.67385 16.38551,-6.66551 24.57827,-9.99827 2.77044,-2.5318 5.60185,-4.99846 8.31134,-7.5954 2.93473,-2.81282 5.73346,-5.76426 8.61692,-8.62962 7.89787,-7.84828 14.4295,-14.2812 22.62473,-21.98929 12.39118,-11.65461 17.51023,-16.10535 30.40043,-27.67269 5.16355,-4.58313 10.3271,-9.16625 15.49065,-13.74937 39.6619,-35.2056 -10.12633,-91.29599 -49.78823,-56.0904 v 0 c -5.26823,4.67658 -10.53647,9.35315 -15.8047,14.02972 -22.39949,20.11621 -44.6974,40.39688 -65.49711,62.18701 6.21739,-1.8176 12.46721,-7.37783 18.65218,-5.45278 12.87437,4.00709 23.47038,13.4807 34.03978,21.85292 1.85196,1.46698 2.75626,11.75277 1.4358,3.41336 -0.18657,-1.17828 -0.3642,-2.35796 -0.5463,-3.53695 -2.58902,-18.45015 -3.51625,-37.08703 -4.84834,-55.65564 -2.50227,-42.41206 -4.07653,-84.87218 -5.75894,-127.32301 -1.48945,-46.55731 -2.46743,-93.13588 -1.84732,-139.71985 0.38078,-25.32731 1.37512,-50.67751 0.68432,-76.00317 -4.23864,-52.86335 -78.99871,-46.86901 -74.76007,5.99434 z"/>
<path d="m 177.06587,470.48787 c 24.3968,-10.61271 49.77253,-18.67082 75.12849,-26.61265 42.23746,-12.54032 85.34707,-22.13729 128.80476,-29.35872 7.12754,-1.18439 14.28543,-2.17827 21.42814,-3.26741 15.57919,-2.46286 31.30382,-3.17206 47.03707,-3.57926 53.01125,-1.51898 50.86309,-76.48821 -2.14816,-74.96923 v 0 c -18.80834,0.58057 -37.61036,1.46214 -56.23399,4.41153 -7.75547,1.19071 -15.52712,2.28042 -23.26641,3.57213 -46.59324,7.7766 -92.80237,18.12996 -138.07628,31.63134 -29.82004,9.37327 -59.8226,18.78678 -88.16945,32.10378 -46.71748,25.09934 -11.22165,91.16783 35.49583,66.06849 z"/>
<path d="m 268.9505,270.42745 c 7.38691,19.90349 12.98955,40.36432 18.62193,60.81362 15.56181,56.50425 31.72595,112.84347 48.21446,169.08401 12.41517,41.44 24.32812,83.04036 37.64619,124.20456 7.75183,23.95977 9.39268,28.16405 17.52985,51.25946 10.24895,28.31349 21.06149,56.44387 34.35117,83.48303 12.46993,23.79773 21.52354,33.37438 59.83824,24.67804 11.6167,-2.63666 19.53547,-24.70845 23.88006,-34.66199 8.57516,-20.61859 18.06639,-40.84172 27.23274,-61.20121 21.7715,-48.35806 -46.61713,-79.14761 -68.38862,-30.78955 v 0 c -9.41279,20.90784 -19.1498,41.67995 -27.95343,62.8548 -0.98208,2.4995 -5.58508,7.99699 -2.94623,7.49851 4.80053,-0.90684 6.59699,-8.97535 11.48056,-9.11068 14.68862,-0.40702 29.24261,3.74313 43.4246,7.58923 1.84512,0.50039 5.44395,8.48143 2.67058,3.61864 -0.68219,-1.19614 -1.31067,-2.42212 -1.96601,-3.63318 -12.03867,-24.33932 -21.56587,-49.78732 -30.89143,-75.26459 -7.7296,-21.90612 -9.35481,-26.08017 -16.72916,-48.8603 -13.17052,-40.68507 -24.93151,-81.8078 -37.20866,-122.76582 -16.37538,-55.85005 -32.4269,-111.79866 -47.88086,-167.91093 -6.24115,-22.63038 -12.53711,-45.24801 -20.72067,-67.27152 -18.65764,-49.64265 -88.86295,-23.25678 -70.20531,26.38587 z"/>
<path d="m 94.143536,787.89527 c 25.726274,-2.87262 51.520184,-5.00739 77.317534,-7.12457 40.50333,-2.96519 81.00602,-6.65878 121.62152,-7.75628 7.73707,-0.20907 15.4789,-0.16593 23.21835,-0.2489 53.02951,-0.60997 52.16687,-75.60501 -0.86263,-74.99503 v 0 c -8.5175,0.10403 -17.03759,0.0779 -25.55251,0.31209 -41.59602,1.14425 -83.07851,4.889 -124.55987,7.93948 -25.66458,2.10666 -51.3327,4.18391 -76.921805,7.09313 -52.877496,4.05838 -47.138085,78.83845 5.739411,74.78008 z"/>
<path d="m 517.99062,175.29055 c 31.83697,-5.92584 63.95581,-10.02518 96.13095,-13.57418 42.38137,-3.84018 84.93618,-6.34848 127.50668,-6.20713 6.82108,0.0226 13.64006,0.24407 20.4601,0.3661 14.2941,0.53011 28.62078,1.2592 42.78805,3.34361 5.14766,0.75736 10.25849,1.64877 15.06948,3.65538 -2.03005,0.57048 -6.81413,-4.01783 -7.34542,-4.60254 -4.16156,-4.57994 -6.58887,-9.57569 -7.42044,-15.89232 -0.45548,-3.4598 0.32751,-6.97161 0.49127,-10.45741 0.30539,-1.22293 1.77822,-2.74917 0.91617,-3.66878 -0.72538,-0.77382 -1.65137,1.3337 -2.43323,2.05042 -2.3132,2.12052 -4.54614,4.32727 -6.84921,6.45879 -12.91867,11.95639 -26.00273,23.72961 -38.91252,35.69683 -15.90258,15.51253 -31.4065,31.48818 -46.07696,48.17953 -4.81292,5.47593 -9.6258,10.96152 -14.13064,16.69357 -4.76255,6.05997 -9.10276,12.44026 -13.65414,18.66039 -31.12692,42.93734 29.59564,86.95745 60.72256,44.02011 v 0 c 3.4123,-4.76519 6.63358,-9.67314 10.2369,-14.29558 3.89627,-4.99823 8.06562,-9.77999 12.24464,-14.54435 13.27135,-15.13019 27.29126,-29.62093 41.64951,-43.71522 4.80834,-4.45886 9.59555,-8.94062 14.42501,-13.37659 4.02551,-3.69752 21.01676,-19.04019 25.52839,-23.30394 6.30109,-5.9549 15.17488,-14.34089 20.10102,-21.60074 2.91166,-4.29101 4.9517,-9.11278 7.42755,-13.66917 1.04238,-6.13805 3.21799,-12.18887 3.12715,-18.41413 -0.0815,-5.581 -1.67214,-11.12031 -3.6344,-16.3456 -1.52185,-4.05251 -4.03457,-7.71118 -6.68498,-11.13378 -6.52076,-8.42055 -15.66622,-13.707244 -25.32321,-17.657717 -2.93338,-0.954708 -5.82797,-2.038037 -8.80013,-2.864124 -23.41952,-6.509259 -48.08434,-6.925152 -72.17065,-8.205511 -7.49468,-0.124552 -14.98834,-0.353888 -22.48402,-0.373657 -45.08059,-0.118895 -90.14505,2.539639 -135.02125,6.658327 -8.40296,0.932158 -16.81531,1.783255 -25.20888,2.796475 -25.6388,3.094958 -51.16826,7.077926 -76.58716,11.624477 -52.11267,9.83713 -38.20087,83.53559 13.91181,73.69846 z"/>
<path d="m 705.82045,323.70857 c 15.49783,7.73823 30.20703,16.91523 44.65131,26.44297 14.40767,9.81313 28.61622,20.18964 40.08759,33.44887 7.31026,8.4496 8.1617,10.56541 14.09559,19.94548 7.7751,13.88446 12.37992,29.0454 13.55033,44.91442 0.77291,10.4795 0.20536,14.92436 -0.33526,25.49323 -1.45771,16.81723 -5.45394,33.25091 -11.45231,49.00747 -3.23072,8.4865 -4.79466,11.44515 -8.57587,19.5025 -5.38298,10.77637 -11.30466,21.32965 -18.94422,30.67849 -1.71253,1.91087 -3.3774,3.89636 -5.28016,5.62751 -0.0739,0.0672 0.11203,-0.16845 0.18761,-0.23381 0.79145,-0.6845 1.60626,-1.3415 2.4094,-2.01225 10.74021,-5.31468 8.99222,-5.82499 20.7629,-6.48322 1.64301,-0.0919 3.2633,0.48895 4.90841,0.52789 0.20196,0.005 -0.25706,-0.32633 -0.43499,-0.42201 -1.53943,-0.82777 -3.12826,-1.56019 -4.69445,-2.33615 -3.27328,-1.62172 -6.54928,-3.23791 -9.82392,-4.85686 -11.1463,-5.6565 -18.77041,-9.67429 -30.58035,-14.91376 -7.18415,-3.18724 -14.49503,-6.0808 -21.74254,-9.1212 -48.93812,-20.43429 -77.83657,48.77466 -28.89845,69.20895 v 0 c 6.20248,2.5757 12.46246,5.01705 18.60743,7.72708 11.04541,4.8712 18.7621,8.94893 29.38816,14.33768 10.82203,5.34519 26.07868,14.18212 38.36183,14.68756 14.36322,0.59103 14.52373,-1.22449 27.18657,-6.93523 1.52608,-1.17735 3.09186,-2.30496 4.57824,-3.53205 5.13072,-4.23573 9.30054,-9.56905 13.7,-14.5063 11.16889,-14.1717 20.56,-29.57483 28.33854,-45.86831 5.04055,-10.95025 7.23648,-15.1859 11.49743,-26.76858 8.31668,-22.60756 13.67802,-46.18003 15.4372,-70.22879 0.56299,-16.34298 1.34139,-22.83674 -0.36669,-39.26805 -2.77802,-26.72382 -11.35664,-52.17317 -25.02237,-75.28558 -9.83705,-14.73036 -11.27199,-18.0361 -23.09647,-31.18038 -15.36034,-17.0748 -33.67103,-31.03407 -52.64337,-43.82104 -16.95521,-11.11919 -34.19801,-21.85521 -52.3761,-30.88853 -47.45535,-23.67466 -80.93637,43.43734 -33.48102,67.112 z"/>
<path d="m 539.15735,262.1406 c 1.35376,30.60228 1.45466,61.22845 1.34918,91.85389 -0.55112,74.74243 -3.94656,149.42269 -7.02727,224.09212 -4.00392,86.40264 -7.81609,172.81043 -11.14798,259.24162 -1.38167,36.13969 -2.52391,72.28752 -3.80282,108.43087 -1.87521,52.99984 73.07789,55.6518 74.9531,2.65195 v 0 c 1.27591,-36.06432 2.41625,-72.13308 3.79406,-108.19377 3.32922,-86.36367 7.14052,-172.70385 11.1399,-259.03905 3.11956,-75.61594 6.54801,-151.24317 7.09059,-226.93325 0.10227,-31.5725 -0.005,-63.14604 -1.39351,-94.69482 -1.83172,-53.00137 -76.78697,-50.41093 -74.95525,2.59044 z"/>
</svg>
