<?xml version="1.0" ?>
<svg xmlns="http://www.w3.org/2000/svg" viewBox="0 0 1000 1000">
<path d="m 257.69768,275.47591 c 23.62315,-4.81069 47.22209,-9.73699 70.87466,-14.40224 32.13382,-5.81251 64.62302,-9.95021 97.28046,-11.07035 5.17598,-0.17753 10.35686,-0.15668 15.53528,-0.23503 15.91963,0.33501 8.45668,0.0315 22.3928,0.80851 52.95731,2.83247 56.96303,-72.06048 4.00572,-74.89295 v 0 c -17.39957,-0.89937 -8.18576,-0.56293 -27.64505,-0.9052 -6.05746,0.10843 -12.11795,0.10498 -18.17237,0.32529 -36.22758,1.31824 -72.27329,5.88806 -107.91589,12.38851 -23.70453,4.67919 -47.35791,9.607 -71.03259,14.43357 -52.00763,10.37819 -37.33065,83.92808 14.67698,73.54989 z"/>
<path d="m 330.1324,137.52387 c 1.08699,28.24643 2.27468,56.48956 3.28071,84.7397 1.73346,49.20933 1.60498,98.4566 1.55405,147.6886 -0.015,7.77383 -0.03,15.54766 -0.0449,23.32149 -0.10216,53.03291 74.8977,53.17739 74.99986,0.14448 v 0 c 0.015,-7.7962 0.03,-15.59241 0.045,-23.38861 0.0516,-50.14798 0.17038,-100.31127 -1.60155,-150.43594 -0.97494,-27.36065 -2.04863,-54.71734 -3.23317,-82.06972 0,-53.033011 -75,-53.033011 -75,0 z"/>
<path d="m 182.20067,483.90738 c 19.22038,-7.19834 39.29003,-11.50723 59.29428,-15.85984 44.28102,-8.96313 89.06004,-15.57464 134.03191,-19.91106 9.70454,-0.93576 19.43102,-1.62809 29.14653,-2.44213 38.65223,-2.76203 77.50323,-4.02326 116.20944,-1.52518 4.76185,0.30733 9.50872,0.81439 14.26308,1.22158 3.63099,0.45665 7.26198,0.9133 10.89298,1.36996 52.63539,6.48192 61.80221,-67.95577 9.16682,-74.43769 v 0 c -4.59711,-0.55662 -9.19422,-1.11324 -13.79132,-1.66985 -5.66886,-0.46704 -11.32975,-1.04367 -17.00656,-1.40111 -41.97831,-2.6432 -84.10951,-1.31915 -126.02598,1.70664 -10.33161,0.8736 -20.67482,1.61941 -30.99483,2.6208 -47.61194,4.61998 -95.0165,11.6559 -141.89011,21.19415 -22.95339,5.02696 -45.94941,10.11898 -68.02332,18.32715 -50.06781,17.48469 -25.34073,88.29126 24.72708,70.80658 z"/>
<path d="m 503.26796,259.72884 c -2.01102,1.70627 -4.10636,3.31788 -6.03306,5.11882 -3.80884,3.56022 -11.51896,11.88656 -14.78067,15.39897 -3.49802,3.76688 -6.98704,7.54221 -10.4561,11.33577 -4.42937,4.84369 -8.82601,9.71719 -13.23901,14.57579 -5.36484,5.84674 -10.72967,11.69347 -16.09451,17.54021 -6.31368,6.72903 -12.61301,13.47157 -18.94106,20.18709 -16.95203,17.99003 -28.06372,29.83508 -45.68781,47.52396 -26.97506,27.07422 -54.68127,53.4433 -82.10156,80.06361 -9.6746,9.16831 -19.30612,18.38231 -29.0238,27.50493 -9.88023,9.27522 -19.86447,18.43907 -29.76931,27.688 -37.08757,34.6316 -73.99752,69.45547 -110.98044,104.19881 -30.86503,28.98481 -15.97159,15.11091 -44.655464,41.64837 -38.92688,36.01663 12.008332,91.06756 50.935214,55.05092 v 0 c 29.09325,-26.92012 14.06184,-12.91561 45.07235,-42.03703 36.89264,-34.65857 73.71278,-69.39715 110.70902,-103.9451 10.07587,-9.40908 20.23181,-18.73237 30.28174,-28.16914 9.93517,-9.32901 19.78194,-18.75172 29.67291,-28.12759 27.90802,-27.09381 56.0979,-53.93915 83.54458,-81.50313 17.92664,-18.00325 29.4916,-30.31596 46.70093,-48.58297 6.51693,-6.91745 13.00348,-13.86344 19.50522,-20.79517 5.45084,-5.94094 10.90167,-11.88189 16.35251,-17.82284 4.28357,-4.71717 8.55136,-9.44873 12.85072,-14.15152 3.34467,-3.65853 6.71052,-7.29769 10.08121,-10.93228 3.33554,-3.5967 6.87726,-7.00969 10.03792,-10.76101 0.0449,-0.0532 -0.0896,-0.10662 -0.13435,-0.15992 43.02572,-31.00464 -0.82146,-91.85219 -43.84718,-60.84755 z"/>
<path d="m 269.12069,548.97377 c 5.67765,22.79745 6.95232,46.30098 8.06213,69.66785 1.002,36.43351 -1.38165,72.89392 -5.6439,109.0683 -0.79649,6.75991 -1.75533,13.49969 -2.633,20.24954 -2.07131,14.98439 -4.65823,29.88595 -7.36408,44.7656 -9.47007,52.18063 64.32448,65.57333 73.79455,13.39271 v 0 c 2.92189,-16.12929 5.72452,-32.28079 7.94826,-48.52478 0.94578,-7.32867 1.97998,-14.64647 2.83735,-21.98601 4.67352,-40.00776 7.19404,-80.33233 5.97181,-120.61824 -0.35251,-7.06819 -0.58256,-14.14354 -1.05753,-21.20455 -1.40006,-20.81331 -4.05045,-41.57895 -8.88592,-61.88872 -12.07618,-51.63977 -85.10585,-34.56147 -73.02967,17.0783 z"/>
<path d="m 336.98687,592.96501 c 15.40896,-1.15573 30.83389,-2.07947 46.24803,-3.16842 22.06904,-1.61665 44.10636,-3.63175 66.17849,-5.20496 7.58841,-0.4511 15.18998,-0.72456 22.7924,-0.66647 0.37781,0.006 1.51079,0.038 1.13345,0.0181 -7.5906,-0.39952 -14.35591,-2.76462 -20.37635,-7.76489 -2.71874,-2.25805 -4.68886,-5.28923 -7.03329,-7.93384 -0.8647,-1.62585 -1.7294,-3.2517 -2.5941,-4.87754 -0.116,-0.11644 -0.35702,-0.51343 -0.348,-0.34932 0.0714,1.29924 0.38008,2.57471 0.54127,3.86589 0.31835,2.55015 0.64104,5.10031 0.89727,7.65745 1.06271,10.60553 1.14645,13.72091 1.86215,24.95955 1.06087,28.47889 0.64177,57.09199 -2.26433,85.46167 -0.52588,5.13361 -1.26107,10.24362 -1.8916,15.36543 -2.23174,16.27989 -6.00086,32.27269 -10.16848,48.14586 -13.39624,51.31316 59.17154,70.2583 72.56777,18.94514 v 0 c 4.97364,-19.14165 9.45976,-38.42711 12.05502,-58.06019 0.72784,-6.07721 1.57349,-12.14147 2.18351,-18.23164 3.20785,-32.02577 3.6695,-64.31733 2.36237,-96.45722 -0.86634,-13.26547 -1.65106,-26.53416 -3.55649,-39.70301 -0.69565,-4.80778 -1.93373,-12.1868 -3.60872,-16.82177 -1.13305,-3.13534 -2.73902,-6.07901 -4.10853,-9.11852 -2.75632,-3.31604 -5.03994,-7.09035 -8.26896,-9.94811 -8.02717,-7.10422 -18.41194,-10.1634 -28.89238,-10.15146 -9.54767,-0.0555 -19.0945,0.25692 -28.62352,0.85518 -22.05449,1.5762 -44.07568,3.57294 -66.12639,5.20126 -15.56496,1.10051 -31.14091,2.03298 -46.70062,3.20178 -52.87746,4.05881 -47.13744,78.83883 5.74003,74.78002 z"/>
<path d="m 339.21791,710.97456 c 16.49547,-1.6118 33.00085,-3.05019 49.53647,-4.18195 15.86386,-0.84442 31.79806,-1.14378 47.66624,-0.17122 3.85383,0.2362 7.69597,0.63502 11.54396,0.95253 52.8652,4.21547 58.82677,-70.54722 5.96157,-74.76269 v 0 c -4.87764,-0.37827 -9.74896,-0.84958 -14.63293,-1.13481 -18.54067,-1.08281 -37.15246,-0.71945 -55.68458,0.29293 -18.11955,1.25159 -36.21432,2.79027 -54.28113,4.6602 -52.56986,6.99357 -42.67946,81.33858 9.8904,74.34501 z"/>
<path d="m 307.2323,849.32358 c 23.86521,-4.249 46.73238,-12.68039 69.50972,-20.73158 30.30873,-11.25904 61.0482,-21.25184 91.91875,-30.83505 50.64511,-15.73445 28.39324,-87.35745 -22.25187,-71.623 v 0 c -31.79843,9.88665 -63.47173,20.16593 -94.69818,31.75844 -18.35188,6.50912 -36.72347,13.41253 -55.85767,17.29947 -52.41905,8.04634 -41.03979,82.17807 11.37925,74.13172 z"/>
<path d="m 594.34594,227.22331 c 18.6525,-6.13498 37.60993,-11.35677 56.49503,-16.7277 32.56643,-8.8986 65.40409,-17.22154 98.83062,-22.22078 5.5777,-0.8342 11.18694,-1.44189 16.78041,-2.16283 4.83084,-0.45972 9.65541,-0.99107 14.49253,-1.37918 6.4618,-0.51846 14.25654,-0.96633 20.86006,-0.90642 0.71258,0.006 7.07733,0.13661 8.82856,0.82836 0.42797,0.16905 -0.91821,0.0619 -1.37732,0.0928 -12.2278,-5.3021 -14.76993,-4.52625 -21.91241,-20.86229 -1.93683,-4.42985 -0.67439,-9.64894 -1.21786,-14.45306 -0.0446,-0.3941 -0.24532,-1.33011 -0.53726,-1.06164 -1.58366,1.4563 -2.55947,3.46009 -3.90048,5.14249 -2.28762,2.86999 -4.6557,5.6749 -6.98355,8.51235 -15.14831,17.98048 -31.36721,35.01107 -47.04128,52.52456 -12.00955,13.41893 -13.60651,15.42428 -25.23827,28.98743 -10.53382,12.61051 -21.09124,25.20026 -31.72109,37.72986 -34.30662,40.44201 22.88702,88.95889 57.19364,48.51688 v 0 c 10.54496,-12.43207 21.02625,-24.91695 31.46942,-37.43474 10.89057,-12.7104 12.59101,-14.83102 23.86996,-27.43507 16.6101,-18.56152 33.81191,-36.60083 49.78407,-55.72758 5.83327,-7.28556 13.36074,-16.06191 18.06083,-24.26986 2.72543,-4.75952 5.94078,-9.47157 7.14184,-14.82306 1.81916,-8.10545 3.82647,-16.81171 1.76417,-24.85873 -5.73852,-22.39158 -13.38143,-23.37362 -29.44604,-32.4036 -3.45453,-0.85565 -6.86291,-1.92579 -10.36361,-2.56694 -5.84817,-1.07108 -14.21015,-1.40852 -20.05601,-1.4193 -14.50302,-0.0267 -28.97096,1.38496 -43.37591,2.89742 -6.53127,0.86147 -13.08055,1.59589 -19.5938,2.58441 -36.12044,5.48199 -71.6346,14.37389 -106.83169,24.03036 -20.45112,5.81874 -40.98475,11.4624 -61.14977,18.21735 -49.95602,17.80155 -24.78082,88.45004 25.17521,70.64849 z"/>
<path d="m 690.15288,355.14365 c 10.48865,3.56864 20.84872,7.51804 30.77111,12.47879 3.00539,1.50256 5.93404,3.15394 8.90106,4.73091 13.9023,8.02921 27.43987,16.99686 39.03288,28.18781 7.86573,7.59295 8.89438,9.52113 15.6022,18.09534 12.04092,16.96167 19.54752,36.53698 22.67639,57.07323 0.63543,4.17065 0.90101,8.38931 1.35152,12.58397 1.83168,24.79339 -2.37628,49.31673 -7.59315,73.44404 -3.1506,13.46648 -7.30179,26.80262 -14.04195,38.93238 -0.83919,1.39547 -1.60995,2.84876 -2.63956,4.12117 -0.0636,0.0786 -0.30909,0.24995 -0.25484,0.16461 1.26457,-1.98947 3.71516,-4.19785 5.353,-5.27231 2.44533,-1.60418 5.18819,-2.7009 7.78229,-4.05135 2.70367,-0.55305 5.40735,-1.1061 8.11103,-1.65915 0.0317,-0.16733 0.25264,-0.43717 0.0951,-0.502 -1.89937,-0.78185 -3.91923,-1.23144 -5.86979,-1.87503 -3.67802,-1.21358 -7.34651,-2.4559 -11.01556,-3.69636 -50.28165,-16.99961 23.81779,7.96946 -34.99509,-11.83246 -27.53932,-9.77842 -13.65905,-4.58902 -41.62582,-15.60828 -49.35895,-19.39572 -76.78864,50.40838 -27.42968,69.8041 v 0 c 30.69869,12.03381 15.64757,6.43206 45.12408,16.88363 11.74697,3.95494 23.47565,7.96415 35.22578,11.90971 7.07709,2.3764 18.64848,6.38304 26.1311,8.00853 4.02359,0.87407 8.09188,1.81339 12.20882,1.87731 5.1899,0.0806 10.33614,-0.96468 15.5042,-1.44702 4.12736,-1.80841 8.47858,-3.17396 12.38206,-5.42523 9.98049,-5.75607 16.44362,-16.40471 22.05835,-26.04777 1.2351,-2.35383 2.53673,-4.67392 3.70528,-7.06148 7.99825,-16.34181 13.42091,-33.81376 17.52436,-51.49907 2.45171,-11.51411 3.64554,-16.39766 5.50706,-28.22235 3.6335,-23.08069 5.23908,-46.49084 3.22609,-69.81929 -2.14702,-16.92143 -2.16084,-21.55421 -6.57119,-38.11717 -6.69991,-25.16129 -17.95124,-48.77342 -33.49077,-69.67557 -3.98899,-4.87286 -7.76177,-9.93103 -11.96697,-14.61857 -18.75681,-20.90826 -41.85424,-37.32773 -66.21664,-51.04546 -4.08875,-2.13111 -8.13004,-4.35588 -12.26626,-6.39335 -11.14656,-5.49073 -22.70891,-10.16364 -34.49581,-14.08341 -49.25505,-19.65808 -77.05577,49.99907 -27.80072,69.65715 z"/>
<path d="m 541.52344,336.50673 c 0.81569,18.97477 1.20832,37.96462 1.45867,56.9543 0.24382,45.69886 -0.77309,91.39296 -1.71149,137.07928 -1.27446,46.50705 -2.24808,93.06407 -5.662,139.47779 -0.71629,9.73822 -1.62695,19.46117 -2.44042,29.19175 -4.06241,39.67228 -7.72994,79.41269 -12.82064,118.97249 -1.16918,9.08569 -2.55682,18.14193 -3.83523,27.21289 -7.38206,52.51672 66.88779,62.95653 74.26985,10.43982 v 0 c 1.35191,-9.64135 2.8144,-19.26783 4.05571,-28.92404 5.19232,-40.3911 8.94056,-80.96555 13.07122,-121.47252 0.85033,-10.23429 1.80197,-20.46067 2.55099,-30.70288 3.47171,-47.47259 4.50489,-95.08781 5.79471,-142.65533 0.95553,-46.53264 1.98775,-93.07339 1.72064,-139.6188 -0.28177,-20.92423 -0.64137,-41.86186 -1.76139,-62.75997 -4.81202,-52.81425 -79.50264,-46.00903 -74.69062,6.80522 z"/>
</svg>
