<?xml version="1.0" ?>
<svg xmlns="http://www.w3.org/2000/svg" width="1000" height="1000">
<path d="m 110.40661,200.16511 c 19.72103,9.2805 39.42415,18.57117 58.86559,28.4276 19.36756,10.40345 38.77414,20.91826 56.72013,33.6817 3.32534,2.36502 6.51402,4.91656 9.77102,7.37484 42.45577,31.78061 87.40035,-28.26091 44.94458,-60.04153 v 0 c -4.29464,-3.19456 -8.50574,-6.50461 -12.88391,-9.5837 -20.52747,-14.43656 -42.54742,-26.56826 -64.67095,-38.34234 -20.27977,-10.25726 -40.80575,-19.97999 -61.37501,-29.64022 -48.170691,-22.18297 -79.542148,45.94068 -31.37145,68.12365 z"/>
<path d="m 99.320888,411.6975 c 20.788552,10.9134 42.935502,19.02029 64.858342,27.31835 22.45021,8.19819 44.6527,17.03741 66.79598,26.02367 49.1419,19.93925 77.34026,-49.55789 28.19836,-69.49714 v 0 c -22.69549,-9.20702 -45.45053,-18.26665 -68.45715,-26.67479 -10.19587,-3.85484 -18.58476,-6.95171 -28.59281,-11.00026 -5.26979,-2.13179 -13.00896,-5.45078 -18.43894,-7.86374 -1.6247,-0.72197 -3.19381,-1.57305 -4.85043,-2.21842 -0.28296,-0.11023 0.45878,0.39796 0.68817,0.59695 -44.770731,-28.42677 -84.972256,34.88861 -40.201522,63.31538 z"/>
<path d="m 159.01212,877.35193 c 4.42365,-7.35752 3.83229,-6.59056 10.0392,-15.45399 8.25638,-11.79008 21.95169,-30.48346 29.79525,-41.21848 11.65723,-15.95456 37.5909,-51.30745 48.54575,-66.24779 38.56934,-51.62454 19.12895,-25.87283 58.32335,-77.2535 32.16318,-42.16669 -27.46953,-87.65229 -59.63271,-45.4856 v 0 c -39.78069,52.15754 -20.05705,26.02666 -59.17372,78.39052 -10.60706,14.46603 -37.33645,50.904 -48.6822,66.43447 -7.78326,10.65402 -23.30427,31.83444 -31.48312,43.63367 -7.645239,11.0294 -7.439627,10.94113 -12.947939,20.16215 -26.190215,46.11477 39.025929,83.15333 65.216139,37.03855 z"/>
<path d="m 384.60474,285.67291 c 18.8901,-4.15169 37.72145,-8.58875 56.73775,-12.14476 7.64306,-1.42924 15.31778,-2.68364 22.97667,-4.02546 41.54169,-6.62098 83.54845,-9.54085 125.4711,-12.51806 34.29966,-2.43584 36.61563,-2.51424 70.5095,-4.64699 47.20014,-3.12423 94.48418,-4.46566 141.74341,-6.29594 3.37619,-0.14261 6.75237,-0.28522 10.12856,-0.42783 52.98571,-2.23933 49.81882,-77.17244 -3.16689,-74.93311 v 0 c -3.28868,0.13907 -6.57735,0.27813 -9.86603,0.4172 -47.86179,1.85607 -95.74862,3.21943 -143.55043,6.38781 -33.88812,2.13362 -37.03553,2.26378 -71.28635,4.69994 -44.43285,3.16037 -88.94764,6.3301 -132.96203,13.44857 -8.26763,1.45658 -16.5519,2.82172 -24.8029,4.36972 -19.6108,3.67926 -39.03692,8.23722 -58.51847,12.52589 -51.71993,11.72816 -35.13381,84.87117 16.58611,73.14302 z"/>
<path d="m 332.5369,445.71427 c -0.1611,23.84728 0.49734,47.68525 1.31441,71.51544 1.85832,43.02552 4.95451,86.01958 9.96029,128.79947 1.08253,9.25132 2.33634,18.48179 3.5045,27.72268 6.52319,46.89334 14.19485,93.61431 20.99973,140.46703 2.73534,20.08355 1.48068,10.55619 3.78892,28.57878 6.74205,52.60271 81.13351,43.06801 74.39146,-9.53469 v 0 c -2.41563,-18.83393 -1.10433,-8.8911 -3.9593,-29.82515 -6.74069,-46.40048 -14.31847,-92.67344 -20.81512,-139.10901 -1.1145,-8.78335 -2.31015,-17.55679 -3.3435,-26.35005 -4.81361,-40.96123 -7.77396,-82.1306 -9.57134,-123.32826 -0.79335,-22.97063 -1.4284,-45.94894 -1.27005,-68.93624 0,-53.03301 -75,-53.03301 -75,0 z"/>
<path d="m 475.02677,481.18927 c 20.21923,-10.22815 42.3386,-15.53224 64.20409,-20.91135 39.89793,-9.0708 80.26078,-16.12821 120.84636,-21.31601 8.44703,-1.07973 16.91761,-1.96653 25.37642,-2.9498 39.6023,-4.05156 79.34159,-6.9493 119.15785,-7.26824 3.78031,0.054 7.56179,0.0541 11.34095,0.16209 6.51934,0.1863 13.28738,0.38917 19.73478,1.54064 0.56168,0.10031 1.33922,-0.003 1.64295,0.48023 0.25349,0.40311 -0.94843,-0.0866 -1.42265,-0.1299 -5.31622,-2.24285 -6.69341,-2.27141 -11.10357,-6.80139 -1.63552,-1.67994 -2.78568,-3.77211 -4.16682,-5.66673 -0.33536,-0.46003 -0.76754,-1.92413 -0.9825,-1.39698 -0.42732,1.04792 0.13348,2.25972 0.16945,3.39084 0.0688,2.16403 0.0966,4.32917 0.14484,6.49375 -0.4887,31.73937 -0.67309,63.48294 -0.97946,95.22544 -0.34932,30.61544 -1.7993,61.23197 -5.19273,91.67072 -2.17884,19.54401 -3.69103,28.18782 -6.64434,47.60787 -5.24004,34.23461 -13.6654,67.9873 -27.0064,100.00198 -2.19072,5.2571 -4.68189,10.38389 -7.02283,15.57584 -7.20877,13.5725 -15.22121,27.82008 -26.644,38.39172 -1.37722,1.2746 -2.95015,2.31991 -4.42522,3.47986 -40.21523,34.57218 8.67721,91.4451 48.89244,56.87293 v 0 c 3.53605,-3.14801 7.25659,-6.10029 10.60817,-9.44403 16.88295,-16.84349 29.40336,-37.52432 40.03943,-58.69416 7.99031,-18.00142 9.84671,-21.25244 16.49325,-40.09161 10.85859,-30.778 18.24792,-62.61614 23.21804,-94.85195 3.22688,-21.35127 4.7797,-30.18785 7.1548,-51.75014 3.58639,-32.559 5.15055,-65.30291 5.52592,-98.04686 0.18195,-18.9393 0.20035,-37.88084 0.44492,-56.81937 0.12581,-9.74211 0.42893,-19.48171 0.51219,-29.22427 0.036,-4.2147 -0.0162,-8.42969 -0.0243,-12.64454 -0.50751,-11.41838 -0.65153,-24.05972 -5.14291,-34.81297 -4.23765,-10.14577 -8.71984,-16.48778 -17.49255,-23.05305 -3.29304,-2.46443 -7.21551,-3.95052 -10.82327,-5.92578 -2.86866,-0.911 -5.69235,-1.97809 -8.60599,-2.73301 -4.72966,-1.22546 -10.89403,-2.00658 -15.73957,-2.47376 -11.01421,-1.06195 -22.09549,-1.29114 -33.15266,-1.3306 -42.50141,0.39288 -84.92563,3.37182 -127.19541,7.77025 -9.01347,1.05424 -18.03934,2.00742 -27.04041,3.16273 -43.16139,5.53987 -86.08326,13.083 -128.50223,22.79203 -6.83007,1.69716 -13.69056,3.27629 -20.49022,5.09148 -19.94971,5.32563 -39.63969,11.86109 -58.18396,21.02257 -47.80291,22.9648 -15.32579,90.56832 32.47712,67.60353 z"/>
<path d="m 500.61955,281.22954 c 0.56622,27.03817 0.90506,54.07991 1.11423,81.12319 0.0796,55.60391 0.35127,111.20559 -0.005,166.80896 -0.26693,31.74534 -0.55593,63.49044 -0.78086,95.23612 -0.37567,53.03168 74.62244,53.56296 74.99812,0.53128 v 0 c 0.22495,-31.76288 0.51459,-63.52517 0.78121,-95.28772 0.35714,-55.95737 0.088,-111.91305 0.004,-167.87096 -0.20926,-26.84901 -0.52228,-53.69729 -1.11197,-80.54087 0,-53.03301 -75,-53.03301 -75,0 z"/>
<path d="m 647.01985,253.50943 c 2.58854,18.43752 4.42746,36.98139 6.34458,55.49927 3.86702,38.7445 6.53796,77.62174 8.0433,116.53111 0.35473,9.16889 0.53651,18.34366 0.80477,27.51548 0.59312,38.97163 -0.37873,78.00435 -3.72186,116.84815 -2.09734,24.36901 -3.6739,34.6327 -6.79406,58.95993 -6.72421,52.60499 67.67048,62.11445 74.39469,9.50946 v 0 c 3.37086,-26.45519 4.95662,-36.69231 7.21843,-63.26283 3.51666,-41.31186 4.5319,-82.82125 3.8702,-124.26569 -0.28671,-9.64525 -0.48528,-19.29352 -0.86013,-28.93575 -1.56586,-40.27808 -4.34916,-80.52134 -8.35463,-120.62867 -2.18887,-21.11295 -4.13224,-42.3013 -7.56111,-63.25472 -10.94903,-51.89045 -84.33321,-36.40619 -73.38418,15.48426 z"/>
<path d="m 424.10941,731.54749 c 24.44214,-8.09439 49.96395,-12.22929 75.30183,-16.37342 52.45242,-8.20689 105.60215,-9.82849 158.59227,-10.56148 39.11254,-0.18697 78.36154,1.25704 117.0929,7.04361 5.1692,0.77229 10.30343,1.76276 15.45515,2.64414 4.15375,0.85876 8.3075,1.71753 12.46125,2.5763 51.95336,10.6465 67.00978,-62.82665 15.05642,-73.47315 v 0 c -4.9999,-1.01704 -9.9998,-2.03408 -14.99971,-3.05111 -6.09839,-1.02305 -12.1774,-2.16923 -18.29518,-3.06915 -42.29269,-6.22121 -85.12513,-7.90002 -127.82601,-7.66322 -9.85672,0.14092 -19.71522,0.1886 -29.57017,0.42276 -46.85788,1.11338 -93.76877,3.96215 -140.1263,11.12354 -30.13847,4.97208 -60.48306,10.06665 -89.42505,20.13715 -49.67004,18.5846 -23.38743,88.82864 26.2826,70.24403 z"/>
<path d="m 445.1149,854.50737 c 16.18155,-4.09601 32.75737,-6.2887 49.2751,-8.50418 43.49614,-5.3077 87.37342,-5.54652 131.12463,-5.6534 32.8242,0.29865 65.67646,0.66633 98.44843,2.71019 17.36403,1.08292 21.45972,1.61514 38.20054,3.23712 4.94969,0.54838 9.89938,1.09676 14.84907,1.64514 52.71193,5.82682 60.9523,-68.71911 8.24036,-74.54593 v 0 c -5.2988,-0.5845 -10.59761,-1.16899 -15.89641,-1.75349 -18.26909,-1.75129 -22.65408,-2.31888 -41.54979,-3.48428 -34.11664,-2.10416 -68.31392,-2.51723 -102.48426,-2.8085 -47.03639,0.12579 -94.20284,0.49803 -140.95122,6.32532 -20.26036,2.74294 -40.60166,5.52017 -60.37518,10.86674 -50.88713,14.9332 -29.7684,86.89847 21.11873,71.96527 z"/>
</svg>
