<?xml version="1.0" ?>
<svg xmlns="http://www.w3.org/2000/svg" viewBox="0 0 1000 1000">
<path d="m 89.272218,281.99619 c 29.596512,-3.83415 59.130852,-8.14935 88.680452,-12.32895 48.61899,-6.67077 97.62134,-10.9907 146.69252,-12.24079 8.43862,-0.21497 16.88178,-0.17825 25.32267,-0.26738 53.02971,-0.59134 52.19343,-75.58667 -0.83628,-74.99534 v 0 c -9.14757,0.107 -18.29764,0.0817 -27.4427,0.32101 -51.59665,1.35041 -103.11765,5.90561 -154.23992,12.92166 -29.14278,4.12206 -58.27058,8.37905 -87.458777,12.16638 -52.625297,6.56339 -43.343262,80.9868 9.282035,74.42341 z"/>
<path d="m 45.155154,398.98701 c -0.88149,31.57873 -0.320852,63.19425 -0.213908,94.78372 0.205857,69.43937 0.241082,138.8791 0.273163,208.31872 0.0013,53.14509 0.247928,106.28928 0.229058,159.4344 -0.01875,53.033 74.981243,53.05952 74.999993,0.0265 v 0 c 0.0187,-53.16551 -0.22725,-106.3301 -0.22906,-159.49557 -0.0321,-69.51272 -0.0674,-139.02553 -0.27358,-208.53799 -0.10122,-29.89311 -0.54693,-59.80334 0.058,-89.69038 3.42198,-52.92249 -71.421722,-57.76191 -74.843706,-4.83942 z"/>
<path d="m 180.17578,441.44666 c 18.57854,-5.8675 37.86505,-9.06 57.04875,-12.2052 27.80849,-4.30024 55.88005,-6.2463 84.00122,-5.92252 10.78337,0.4652 21.68558,0.80609 32.33501,2.74439 -6.24689,-1.11522 -12.1068,-5.26843 -16.38039,-9.83661 -2.83112,-3.02628 -5.02752,-7.51083 -7.01192,-11.42485 2.57618,35.04587 1.50661,70.22931 0.83434,105.32336 -1.22221,69.7635 -6.57742,139.35758 -12.60272,208.84239 -3.66184,40.8516 -8.91618,81.53006 -14.25185,122.18831 -6.89924,52.58232 67.46339,62.33932 74.36263,9.757 v 0 c 5.47689,-41.74953 10.8572,-83.52134 14.60915,-125.46982 6.16373,-71.16308 11.62354,-142.43825 12.86912,-213.88609 0.74972,-39.38955 2.06891,-78.95515 -1.70468,-118.23642 -2.34837,-11.07636 -2.27373,-16.23851 -10.19947,-25.94946 -7.29294,-8.93559 -17.29047,-13.20731 -28.12649,-15.27602 -14.54726,-2.35699 -29.27433,-3.45036 -44.00277,-3.77263 -12.55115,-0.10388 -14.94344,-0.26269 -27.85154,0.23267 -23.13453,0.8878 -46.18522,3.30917 -69.08287,6.68575 -22.67647,3.7586 -45.43805,7.67011 -67.38446,14.67257 -50.5816,15.93743 -28.04266,87.47062 22.53894,71.53318 z"/>
<path d="m 130.38335,281.05285 c 3.41753,22.18435 2.01611,44.80105 1.48624,67.13828 -0.83887,34.56106 -1.76299,69.2749 -8.58647,103.2878 -4.9093,24.4713 -7.3048,29.52042 -15.00006,53.2799 -13.536969,34.14002 -6.49391,17.07026 -21.145381,51.2026 -20.888933,48.74579 48.048031,78.2872 68.936961,29.54141 v 0 c 16.14737,-37.74019 8.24318,-18.43993 23.65283,-57.92523 9.12315,-28.89922 11.87224,-34.71895 17.63937,-64.41094 7.24769,-37.31466 8.63899,-75.32376 9.48212,-113.21654 0.69198,-29.80959 2.48904,-60.26337 -4.36347,-89.54386 -14.59934,-50.98391 -86.70148,-30.33733 -72.10214,20.64658 z"/>
<path d="m 212.68024,285.7131 c 4.11433,25.88795 4.78073,52.18462 5.60616,78.33637 1.18131,40.13024 1.73583,80.27776 0.4119,120.40858 -0.60915,16.18474 -1.95518,32.32683 -3.351,48.45851 -0.22517,9.24892 -0.99839,16.80651 5.53563,25.9978 5.30436,7.46154 13.12475,13.073 21.07745,17.60789 4.4949,2.56313 10.07477,2.47718 15.21314,3.08617 4.85511,0.57542 16.04656,-0.31718 21.00541,-0.62048 23.34348,-1.81014 46.7525,-2.60884 70.16194,-2.63335 3.89819,0.3211 7.79638,0.64219 11.69457,0.96329 52.89106,3.87756 58.37476,-70.9217 5.4837,-74.79926 v 0 c -5.7736,-0.38796 -11.54719,-0.77593 -17.32079,-1.16389 -24.97099,0.0661 -49.94247,0.84906 -74.84409,2.78856 -2.33364,0.16161 -4.66975,0.29077 -7.00091,0.48485 -0.78338,0.0652 -3.01248,-0.11428 -2.34002,0.29282 1.99885,1.21008 4.78703,0.85274 6.62192,2.2994 6.91707,5.45351 24.49482,19.04902 19.4329,32.16106 1.51137,-17.46982 2.94546,-34.95255 3.59035,-52.48033 1.34511,-41.74265 0.84766,-83.50116 -0.41023,-125.24287 -0.98023,-30.42899 -1.84185,-61.04751 -7.11543,-91.10152 -10.7172,-51.93882 -84.16979,-36.78243 -73.4526,15.1564 z"/>
<path d="m 103.7038,729.00474 c 21.36237,-5.12488 43.2572,-7.53324 65.03736,-10.09275 45.69354,-5.30825 91.7207,-5.3665 137.64547,-4.94767 53.03084,0.48006 53.70975,-74.51687 0.67892,-74.99693 v 0 c -15.0307,-0.13509 -32.24036,-0.35472 -47.15733,-0.19636 -33.37677,0.35434 -66.76274,2.00129 -99.94874,5.65685 -24.59138,2.90811 -49.28419,5.74539 -73.397538,11.56209 -51.62924,12.12112 -34.487386,85.1359 17.141858,73.01477 z"/>
<path d="m 101.22517,855.9305 c 30.21646,-4.38548 60.01361,-11.25611 89.8679,-17.56989 39.6532,-8.29265 79.77055,-13.94615 119.89265,-19.37047 52.55374,-7.11368 42.49347,-81.43589 -10.06027,-74.32221 v 0 c -41.95042,5.68508 -83.89283,11.6259 -125.35073,20.3157 -27.99212,5.92004 -55.92633,12.38181 -84.23995,16.60186 -52.569858,6.99357 -42.679456,81.33858 9.8904,74.34501 z"/>
<path d="m 418.04419,411.9451 c 0.97456,1.40984 1.91802,2.84169 2.92367,4.22953 3.26537,4.5063 7.2858,9.58441 10.4495,14.11404 7.39547,10.58845 13.89512,21.81274 20.64945,32.80992 11.31942,17.79135 22.02057,35.93699 32.13315,54.43629 25.47612,46.51309 91.25556,10.48442 65.77945,-36.02867 v 0 c -10.73883,-19.5726 -22.00953,-38.82582 -34.00491,-57.66074 -11.00602,-17.91799 -21.82372,-35.98898 -34.88333,-52.52153 -28.72349,-44.58095 -91.77047,-3.95979 -63.04698,40.62116 z"/>
<path d="m 524.035,256.2463 c 4.83117,16.00363 7.70862,32.52855 9.20533,49.16766 0.65113,7.23868 0.9794,14.50278 1.4691,21.75417 2.02186,43.41659 -2.65123,86.7197 -8.49639,129.67168 -1.91525,14.07377 -3.87301,28.14579 -6.21932,42.15414 -2.45021,14.62874 -5.44508,29.16103 -8.16763,43.74155 -8.94128,43.26748 -19.21534,86.24742 -31.90797,128.57696 -6.24829,20.83788 -17.06992,53.09703 -23.97227,73.96945 -16.64717,50.35247 54.56198,73.89513 71.20915,23.54265 v 0 c 7.51586,-22.73846 18.16721,-54.45434 24.93802,-77.1213 13.30158,-44.53042 24.11309,-89.73176 33.46708,-135.24565 2.87772,-15.5118 6.03702,-30.974 8.63317,-46.5354 2.43536,-14.59759 4.47661,-29.25973 6.45871,-43.92575 6.44929,-47.71998 11.32945,-95.84067 8.87498,-144.05684 -0.61453,-8.54967 -1.02417,-17.11654 -1.8436,-25.64902 -1.97196,-20.53341 -5.65659,-40.91377 -11.54633,-60.69127 -14.59961,-50.98383 -86.70164,-30.33687 -72.10203,20.64697 z"/>
<path d="m 599.29303,460.35465 c 8.91614,7.71342 13.68225,18.43594 18.47238,28.93273 4.08492,9.03574 7.72166,18.26041 11.34717,27.48626 19.41967,49.34953 89.21045,21.88598 69.79078,-27.46356 v 0 c -4.19357,-10.64377 -8.4069,-21.28357 -13.15455,-31.69692 -1.96402,-4.15848 -3.78723,-8.38642 -5.89206,-12.47544 -7.18365,-13.95554 -16.07737,-27.11312 -27.59006,-37.87536 -37.54191,-37.45803 -90.51558,15.63425 -52.97366,53.09229 z"/>
<path d="m 668.05066,325.6926 c 0.20915,26.66687 0.37579,53.33424 0.47235,80.00206 -0.35219,45.61741 -0.25528,91.28916 -2.67317,136.86008 -0.50427,9.5042 -1.26951,18.99275 -1.90427,28.48912 -1.92269,26.52414 -5.7681,52.83225 -9.64091,79.12096 -7.70905,52.46972 66.49433,63.37196 74.20338,10.90225 v 0 c 4.1417,-28.26055 8.2405,-56.54346 10.27289,-85.05653 0.67018,-10.16572 1.47465,-20.32348 2.01053,-30.49717 2.4571,-46.6474 2.38432,-93.39585 2.73106,-140.09044 -0.0964,-26.57724 -0.25969,-53.15409 -0.47186,-79.73033 0,-53.03301 -75,-53.03301 -75,0 z"/>
<path d="m 752.98819,446.15446 c 6.00569,12.40143 13.49401,24.01165 19.62629,36.34633 1.44789,2.91233 2.76789,5.88652 4.15183,8.82977 5.76445,12.56487 9.71736,25.80274 12.93473,39.21091 12.55466,51.52553 85.42277,33.77057 72.86811,-17.75497 v 0 c -4.5173,-18.33873 -10.03221,-36.43795 -18.03938,-53.59802 -1.85217,-3.87928 -3.6296,-7.79514 -5.55652,-11.63784 -5.53367,-11.03533 -11.98995,-21.56657 -17.7337,-32.48882 -21.98582,-48.26099 -90.23718,-17.16836 -68.25136,31.09264 z"/>
<path d="m 871.65612,144.93041 c 1.22696,23.05611 1.24861,46.17167 1.61514,69.25476 1.43956,66.64014 2.99183,133.27252 3.6323,199.92624 0.41523,90.95107 2.4004,181.88344 3.2508,272.82975 0.68077,78.64179 -1.86436,157.25001 -4.16343,235.84461 -1.55066,53.01033 73.41727,55.2033 74.96793,2.19296 v 0 c 2.32725,-79.55933 4.88886,-159.13269 4.19221,-238.73971 -0.8526,-90.95299 -2.83273,-181.89208 -3.25098,-272.8498 -0.64472,-66.80989 -2.18885,-133.59865 -3.63828,-200.39483 -0.39983,-25.17916 -0.33639,-50.40794 -1.97956,-75.54327 -5.28865,-52.768651 -79.91479,-45.289357 -74.62613,7.47929 z"/>
</svg>
