<?xml version="1.0" ?>
<svg xmlns="http://www.w3.org/2000/svg" width="1000" height="1000">
<path d="m 100.29212,279.89898 c 19.36642,-4.81027 38.92152,-8.82296 58.62674,-11.97968 7.48818,-1.19959 15.00295,-2.22691 22.50442,-3.34037 47.82268,-6.20562 95.97345,-10.08914 144.1716,-11.72079 8.96759,-0.30358 17.94102,-0.39924 26.91152,-0.59887 8.42643,0.0389 16.85285,0.0779 25.27928,0.11681 53.03256,0.21703 53.33949,-74.78234 0.30692,-74.99937 v 0 c -9.09356,-0.0328 -18.18711,-0.0655 -27.28067,-0.0983 -9.52688,0.21839 -19.05685,0.32844 -28.58062,0.65518 -50.77082,1.74185 -101.49001,5.86501 -151.85833,12.46386 -8.1214,1.21378 -16.25746,2.3332 -24.3642,3.64133 -20.70037,3.34028 -41.26649,7.50466 -61.614881,12.56458 -51.827823,11.24174 -35.929603,84.53735 15.898221,73.29561 z"/>
<path d="m 44.159115,401.22875 c 0.972067,31.28732 2.166405,62.56707 3.326815,93.84784 2.309777,68.98152 3.99376,137.9803 6.60203,206.95188 1.509505,44.14914 4.798159,88.21211 6.687007,132.34264 0.39022,9.11698 0.642419,18.23935 0.963629,27.35903 1.874389,52.99987 76.827534,50.34908 74.953144,-2.65079 v 0 c -0.33666,-9.48203 -0.60359,-18.96679 -1.00997,-28.44608 -1.879,-43.82975 -5.13729,-87.59265 -6.64744,-131.44047 -2.61026,-68.95303 -4.28343,-137.93371 -6.59995,-206.89654 -1.18403,-31.91726 -2.36384,-63.83479 -3.42197,-95.7563 -3.31548,-52.92927 -78.168768,-48.24048 -74.853295,4.68879 z"/>
<path d="m 179.47682,429.5474 c 1.96403,-0.71826 3.93205,-1.4257 5.89209,-2.15478 8.56728,-3.18683 17.05559,-6.25906 25.90396,-8.62319 12.143,-3.24438 17.20154,-4.11834 29.9671,-6.81574 36.72152,-7.54827 73.82333,-11.00309 111.20803,-12.78512 16.56722,-0.62626 33.1503,-0.88566 49.72784,-0.62649 0.43157,0.0304 0.87441,-0.0115 1.2947,0.0912 0.32256,0.0788 -0.67235,0.0561 -0.99598,-0.0182 -2.99618,-0.68796 -6.30241,-0.68489 -8.94042,-2.26329 -5.61194,-3.35778 -10.81422,-7.5157 -15.32204,-12.25364 -4.51734,-4.74794 -4.40365,-12.46294 -4.24858,-6.25747 2.25788,34.83732 2.28666,69.78088 2.47559,104.67687 0.11468,66.57448 -2.46582,133.11431 -6.22021,199.57068 -2.63837,42.94533 -6.47211,85.83541 -12.62679,128.42876 -2.65412,18.36781 -5.07484,31.99176 -8.16322,50.20552 -8.85877,52.28788 65.08746,64.81607 73.94622,12.52819 v 0 c 3.28048,-19.37803 5.73972,-33.20551 8.55609,-52.79895 6.39515,-44.49097 10.42333,-89.28426 13.16866,-134.13954 0.67889,-12.05269 1.43329,-24.10137 2.03667,-36.15808 2.8008,-55.96576 4.2182,-112.01193 4.30146,-168.04606 -0.20937,-38.03393 -0.12252,-76.15534 -3.121,-114.09399 -1.30544,-8.45417 -2.02462,-18.0827 -7.51646,-25.24011 -11.06448,-14.42015 -21.06268,-18.72528 -37.47356,-19.22301 -18.16766,-0.27441 -36.34123,-0.004 -54.49699,0.70497 -16.22911,0.79303 -21.11425,0.89218 -37.68791,2.30389 -28.6967,2.44433 -57.26055,6.40619 -85.50884,12.03568 -6.34436,1.35766 -12.71261,2.60809 -19.03307,4.07299 -16.99299,3.93847 -33.76233,8.86474 -49.93514,15.43231 -50.5204,16.13038 -27.7086,87.57702 22.8118,71.44664 z"/>
<path d="m 169.01464,293.11351 c 0.0738,21.70198 0.0158,43.42712 -1.85481,65.06863 -0.68266,7.89804 -1.70775,15.76275 -2.56163,23.64412 -6.84539,48.01129 -19.1323,95.13711 -35.40493,140.79788 -3.24831,9.11473 -6.9109,18.07648 -10.36635,27.11471 -3.84817,7.78341 -7.69634,15.56682 -11.54451,23.35023 -23.229925,47.67463 44.19219,80.52671 67.42211,32.85208 v 0 c 4.73682,-9.83551 9.47364,-19.67101 14.21046,-29.50652 3.8234,-10.07194 7.86841,-20.06252 11.47022,-30.21581 17.99247,-50.7197 31.41678,-103.10434 38.78979,-156.43636 0.94891,-9.01682 2.08589,-18.01583 2.84671,-27.05046 1.95006,-23.15679 2.07732,-46.39916 1.99294,-69.6185 0,-53.033 -75,-53.033 -75,0 z"/>
<path d="m 254.46472,289.35773 c 0.25669,23.35579 -0.35748,46.71921 -0.75954,70.07177 -0.61241,36.70141 -1.03048,73.40593 -1.65668,110.10709 -0.35383,16.54219 -1.07274,33.07329 -1.1167,49.62074 0.74876,19.11839 7.39615,29.51012 24.40087,40.13458 4.75097,2.96838 10.65638,3.56704 16.15841,4.62097 5.36587,1.02784 18.61986,0.92469 24.19434,0.97891 17.06183,0.0616 34.10734,0.9075 51.14886,1.657 52.98185,2.32904 56.27561,-72.5986 3.29377,-74.92764 v 0 c -17.95759,-0.78904 -35.91964,-1.6622 -53.8985,-1.72739 -2.92248,-0.0115 -5.84503,-0.0575 -8.76744,-0.0346 -1.10629,0.009 -4.05586,-0.69388 -3.31646,0.12906 1.48852,1.65669 4.37003,1.39701 6.02587,2.88646 14.32787,12.88812 12.15472,10.78525 15.88687,26.41786 0.0103,0.0433 -0.0845,0.0281 -0.1268,0.0421 0.0327,-16.18027 0.79866,-32.34379 1.10601,-48.51964 0.62504,-36.69704 1.04561,-73.39737 1.65647,-110.09467 0.42582,-24.74489 1.10633,-49.50368 0.71499,-74.25145 -2.04277,-52.99365 -76.98711,-50.10474 -74.94434,2.88891 z"/>
<path d="m 137.01667,732.70488 c 31.13395,-6.29679 62.38026,-12.05751 93.59976,-17.91892 27.26629,-5.08875 54.77254,-8.78731 82.34743,-11.72146 15.30844,-1.62892 34.0808,-3.34097 49.56079,-4.09644 7.42148,-0.3622 14.8549,-0.41284 22.28235,-0.61926 53.01052,-1.54418 50.82673,-76.51238 -2.18379,-74.9682 v 0 c -8.42296,0.25529 -16.85263,0.34392 -25.26888,0.76589 -16.50577,0.82754 -36.75619,2.67473 -53.10126,4.42558 -29.29273,3.13777 -58.5089,7.10179 -87.47645,12.50189 -32.66363,6.13299 -65.37825,12.07394 -97.9117,18.86064 -51.456357,12.83522 -33.304615,85.6055 18.15175,72.77028 z"/>
<path d="m 137.1584,877.90343 c 4.72936,-1.84325 5.35765,-2.13674 11.47214,-4.13026 29.18614,-9.51561 58.85501,-17.47308 88.48791,-25.44434 54.48798,-14.09916 109.44241,-26.30826 164.36373,-38.58 51.75664,-11.56505 35.40118,-84.75999 -16.35546,-73.19494 v 0 c -55.97209,12.50748 -111.97679,24.95656 -167.50074,39.35227 -27.05725,7.28629 -30.87852,8.1515 -56.61467,15.66679 -16.36528,4.77887 -32.89395,9.50977 -48.84284,15.58634 -2.46805,0.94033 -4.87355,2.03729 -7.31032,3.05593 -47.862791,22.83972 -15.562544,90.52794 32.30025,67.68821 z"/>
<path d="m 585.29583,60.030192 c -7.65666,13.509797 -14.09531,27.637332 -20.80868,41.623738 -5.51921,11.49854 -13.62139,27.9326 -19.12554,39.14501 -19.5181,40.64664 -41.6735,79.93208 -62.54854,119.87964 -4.7043,9.7018 -10.01878,19.13395 -14.46979,28.96177 -1.07105,2.36486 -2.66763,4.61066 -3.00663,7.18452 -1.08932,8.27065 -5.89587,18.07946 -1.23183,24.99588 8.96894,13.30024 25.33379,19.68633 38.00069,29.52949 6.52383,-0.85323 13.10993,-1.32009 19.57149,-2.5597 5.25417,-1.00798 10.32816,-2.79629 15.4992,-4.16839 6.03536,-1.60144 12.06041,-3.24437 18.11984,-4.75218 23.34695,-5.80961 46.87667,-10.61097 70.46789,-15.29961 33.57045,-6.03879 67.23514,-12.37618 101.34095,-14.47893 14.95991,-0.92233 23.36935,-0.68459 38.05174,-0.64717 53.03298,0.056 53.11217,-74.94397 0.0792,-74.99996 v 0 c -17.86538,0.004 -26.36734,-0.25648 -44.73404,0.93837 -36.80048,2.39408 -73.15319,9.0319 -109.37754,15.63037 -25.06608,4.99541 -50.05477,10.13027 -74.86144,16.31221 -6.29543,1.56886 -12.56,3.2596 -18.82625,4.94121 -3.82592,1.02673 -7.86462,1.49825 -11.4495,3.1836 -0.75741,0.35608 1.48805,0.76652 2.23208,1.14977 9.68856,9.59958 22.49231,16.84838 29.0657,28.79873 3.17357,5.76951 -1.85945,13.04377 -2.44211,19.60268 -0.0789,0.88837 0.55488,-1.69909 0.92379,-2.5111 1.01787,-2.24043 2.14498,-4.42965 3.23244,-6.63714 4.60228,-9.34244 5.18639,-10.40508 10.28764,-20.443 21.16121,-40.50718 43.63087,-80.33802 63.40084,-121.56208 5.92764,-12.0759 13.71699,-27.86971 19.60374,-40.13754 4.26818,-8.89476 7.8154,-16.85194 12.27306,-25.53478 1.53434,-2.98868 3.20672,-5.90453 4.78638,-8.869503 1.15867,-2.174801 2.28563,-4.366351 3.42845,-6.549526 23.14104,-47.717838 -44.34217,-80.444217 -67.48322,-32.726379 z"/>
<path d="m 804.63609,227.45889 c 8.38221,7.90704 15.35889,17.16926 22.60256,26.08948 12.38009,15.24545 6.11413,7.16927 17.55037,22.50395 9.46552,14.58021 4.95527,7.29617 13.55672,21.83602 27.13519,45.56513 91.57402,7.19018 64.43883,-38.37495 v 0 c -11.16747,-18.65424 -5.20393,-9.16177 -17.97021,-28.42726 -13.20094,-17.55724 -6.48536,-8.9827 -19.33601,-24.79385 -9.76099,-12.0097 -19.32876,-24.30783 -30.83859,-34.7318 -39.52614,-35.35794 -89.52982,20.54047 -50.00367,55.89841 z"/>
<path d="m 541.66296,332.76515 c -0.0622,0.92547 -0.0259,1.86288 -0.18661,2.77643 -1.20584,6.85619 -5.76356,16.3329 -8.65572,22.1076 -7.95575,15.88501 -10.60685,19.26144 -20.5025,35.21769 -24.20675,36.37551 -52.77206,69.54267 -81.20708,102.62016 -34.56702,40.21966 22.31217,89.10481 56.87919,48.88515 v 0 c 31.00675,-36.08499 62.07248,-72.34107 88.20602,-112.20412 4.79018,-7.837 9.82894,-15.52736 14.37052,-23.51099 13.22385,-23.24618 25.3578,-48.68079 26.09618,-75.89192 0,-53.03301 -75,-53.03301 -75,0 z"/>
<path d="m 766.82774,408.18309 c 12.79703,11.94431 24.38622,25.16889 35.87267,38.36113 12.47138,15.35127 24.66164,31.18212 33.52705,48.94069 24.15622,47.21204 90.92413,13.04997 66.7679,-34.16207 v 0 c -1.39738,-2.69355 -2.72081,-5.42679 -4.19215,-8.08067 -11.10657,-20.03309 -25.08726,-38.3359 -39.58456,-55.99996 -13.73988,-15.72539 -27.59476,-31.49627 -43.06575,-45.55716 -39.95014,-34.87816 -89.27531,21.61988 -49.32516,56.49804 z"/>
<path d="m 595.74103,473.58518 c -0.49065,1.09064 -0.90322,2.2199 -1.47196,3.27193 -0.8032,1.48574 -1.7663,2.87935 -2.63614,4.32708 -2.18508,3.63675 -4.28623,7.32451 -6.52854,10.92625 -11.48461,18.44727 -24.00704,36.15465 -36.55861,53.88157 -23.15294,31.17402 -47.16764,61.79074 -72.88429,90.90629 -12.46805,14.11593 -21.15085,22.95477 -33.97013,36.36321 -36.6333,38.34712 17.59771,90.15443 54.23101,51.80731 v 0 c 14.33676,-15.0185 22.72152,-23.53232 36.76536,-39.45698 27.20246,-30.84556 52.61965,-63.26458 77.08492,-96.30389 18.59919,-26.31021 37.96408,-53.06858 52.90708,-81.71027 0.65826,-1.26171 1.16565,-2.59657 1.74847,-3.89486 21.29639,-48.56917 -47.39079,-78.68681 -68.68717,-30.11764 z"/>
<path d="m 649.12721,568.45175 c 15.02842,0.62053 29.96964,2.38088 44.86185,4.41531 11.75701,1.74047 23.38076,4.36732 34.62675,8.22079 -3.21149,-1.77028 3.3219,1.44862 2.50019,1.06679 -7.68349,-3.57041 -12.27344,-8.32684 -16.12771,-16.16416 -1.31488,-2.67369 -1.63134,-5.73138 -2.44701,-8.59707 -0.1132,-1.12587 0.11619,-2.34192 -0.33959,-3.37761 -0.17945,-0.40775 -0.44791,0.7723 -0.62756,1.17995 -0.66837,1.51657 -1.23565,3.07667 -1.91465,4.5885 -1.27878,2.84728 -2.59211,5.67961 -3.95756,8.48635 -6.80692,13.9919 -6.96706,13.84807 -14.97815,28.56197 -21.65219,38.45528 -44.68142,76.22998 -70.6631,111.9399 -5.97319,8.20972 -12.25003,16.19416 -18.37505,24.29123 -23.32023,29.4228 -48.70785,57.37962 -77.19472,81.90992 -15.41313,13.27239 -18.61522,14.97943 -34.70571,26.32639 -5.42794,3.29255 -10.79969,6.6796 -16.28383,9.87767 -8.10096,4.72404 -22.44328,12.43281 -30.79501,17.03719 -12.60618,6.94989 -25.1671,13.97035 -37.82929,20.81836 -46.64506,25.23369 -10.95924,91.19976 35.68582,65.96608 v 0 c 12.76486,-6.90724 25.4319,-13.98051 38.14145,-20.9882 9.76163,-5.3823 24.68369,-13.38057 33.98768,-18.88742 6.92916,-4.10124 13.69991,-8.46442 20.54986,-12.69663 19.47465,-13.93569 23.36757,-16.05662 41.85049,-32.09559 31.85789,-27.64538 60.34665,-58.99753 86.44591,-92.07197 6.66994,-8.84724 13.50217,-17.57443 20.00981,-26.54172 27.58841,-38.01589 52.09825,-78.18454 75.09263,-119.10872 7.66996,-14.1704 10.75329,-19.35149 17.37341,-33.37972 5.47865,-11.60942 11.00171,-23.87563 12.70834,-36.74865 0.4958,-3.73981 0.37383,-7.53581 0.56074,-11.30372 -0.95247,-4.51046 -1.12647,-9.25877 -2.85741,-13.53139 -6.11427,-15.09237 -17.36459,-22.62679 -31.86109,-27.63129 -15.78807,-5.26692 -32.0039,-9.1372 -48.49452,-11.46661 -18.2307,-2.45787 -36.53642,-4.60805 -54.94297,-5.09593 -53.033,0 -53.033,75 0,75 z"/>
<path d="m 570.8091,708.50965 c 18.46586,14.35456 35.72804,30.12839 52.73089,46.16108 28.31243,26.8997 54.16036,56.18022 80.12543,85.3007 16.02161,17.78287 32.41731,35.22945 49.6755,51.81885 11.85569,11.7601 25.60282,21.13314 39.81557,29.75915 17.97349,10.40853 36.54138,19.88884 56.03153,27.14458 5.35431,1.9933 10.80519,3.71692 16.20778,5.57538 25.02891,7.25385 12.05241,3.78204 38.95713,10.31166 51.55747,12.42288 69.12607,-60.49038 17.56861,-72.91326 v 0 c -22.59082,-5.39694 -11.81834,-2.5602 -32.34773,-8.39434 -4.15898,-1.39778 -8.35494,-2.69 -12.47694,-4.19334 -15.75038,-5.74433 -30.69458,-13.42559 -45.21174,-21.75756 -9.50225,-5.67639 -18.74244,-11.75588 -26.60456,-19.63654 -15.88068,-15.22186 -30.88739,-31.31296 -45.63609,-47.62795 -27.41561,-30.74723 -54.76137,-61.61364 -84.68414,-89.98538 -19.2304,-18.09118 -38.76032,-35.90259 -59.72588,-51.98974 -42.72813,-31.41347 -87.15349,29.01324 -44.42536,60.42671 z"/>
</svg>
