<?xml version="1.0" ?>
<svg xmlns="http://www.w3.org/2000/svg" width="1000" height="1000">
<path d="m 293.39581,74.041291 c -0.85854,12.356665 -4.00618,24.514089 -7.25427,36.418519 -5.58742,20.47824 -6.94907,23.5418 -14.02781,44.92812 -21.61263,61.8297 -48.44692,121.75807 -77.77321,180.28537 -7.05338,14.07662 -14.39203,28.00849 -21.58804,42.01273 -27.638,53.28948 -59.07458,104.45334 -91.318486,155.0425 -6.898573,10.82354 -13.788622,21.65352 -20.834919,32.38146 -6.156941,9.37391 -12.515192,18.61404 -18.772787,27.92106 -5.762872,7.7275 -11.525745,15.45501 -17.288617,23.18251 -31.6418577,42.55929 28.546062,87.30763 60.18792,44.74835 v 0 c 6.449996,-8.69919 12.899992,-17.39837 19.349989,-26.09755 6.53235,-9.72483 13.16661,-19.38198 19.59705,-29.17449 7.15905,-10.90205 14.16112,-21.90661 21.16944,-32.90617 33.43039,-52.46902 65.97515,-105.56184 94.6248,-160.83123 7.42844,-14.46855 15.00669,-28.86115 22.28531,-43.40565 30.80843,-61.56295 58.94983,-124.61482 81.58735,-189.66664 10.88104,-33.09542 22.66124,-67.02917 25.00466,-102.056821 1.96722,-52.996509 -72.98116,-55.778578 -74.94838,-2.782068 z"/>
<path d="m 323.56135,233.64776 c 0.91438,0.28461 1.84752,0.51476 2.74313,0.85383 3.22684,1.22165 6.30631,2.80606 9.40209,4.32957 12.81614,6.30714 24.70985,13.44337 36.89948,20.87843 21.30919,13.40175 41.68095,28.22086 60.92337,44.44857 10.24313,8.63834 13.68365,11.97717 23.29932,20.81403 11.44868,11.03102 6.08083,5.72823 16.14184,15.86951 37.38591,37.61374 90.57978,-15.25791 53.19388,-52.87166 v 0 c -11.68431,-11.73668 -5.48518,-5.63449 -18.63678,-18.26643 -10.91539,-9.99672 -14.94185,-13.88763 -26.57882,-23.65222 -21.93366,-18.40455 -45.13168,-35.23543 -69.39734,-50.43744 -21.07555,-12.76396 -42.44425,-25.8971 -65.97902,-33.66354 -50.69768,-15.56423 -72.70883,56.13312 -22.01115,71.69735 z"/>
<path d="m 279.22883,444.39653 c 18.53496,-4.53418 37.25033,-8.42081 56.14225,-11.15429 6.37187,-0.92195 12.77659,-1.60049 19.16488,-2.40074 18.80874,-1.60972 37.74444,-3.39184 56.65035,-2.42836 5.33468,0.27187 10.63217,1.04311 15.94825,1.56467 52.82105,4.73674 59.51981,-69.96351 6.69876,-74.70025 v 0 c -7.4269,-0.62117 -14.83502,-1.53715 -22.2807,-1.86352 -22.18184,-0.97234 -44.38949,1.0188 -66.44807,3.02283 -7.34994,0.94119 -14.71793,1.75076 -22.04982,2.82357 -20.20158,2.95591 -40.23212,7.07754 -60.06109,11.91438 -51.77557,11.48002 -35.54037,84.70173 16.23519,73.22171 z"/>
<path d="m 181.4684,615.90371 c 1.98687,-0.12904 3.98184,-0.16631 5.96062,-0.38711 11.07873,-1.23626 22.12986,-3.74103 33.04049,-5.90989 40.30847,-8.0127 -6.42484,1.10924 39.61405,-7.82263 43.74556,-7.97147 87.45111,-16.69959 131.80154,-20.63229 7.84241,-0.69541 15.71138,-1.04909 23.56707,-1.57364 25.40715,-0.31403 13.34452,-0.55923 36.19178,0.51058 52.98419,2.27502 56.20156,-72.65594 3.21737,-74.93096 v 0 c -28.51459,-1.13697 -13.6802,-0.93617 -44.50537,-0.40627 -8.87433,0.61488 -17.76345,1.04442 -26.62298,1.84466 -46.4045,4.19147 -92.16423,13.16302 -137.93699,21.56139 -44.79293,8.69437 -1.69321,0.27205 -39.71134,7.84158 -4.47988,0.89196 -8.96146,1.77574 -13.4484,2.63144 -2.95327,0.56321 -5.91442,1.0843 -8.87186,1.62522 -1.04048,0.19031 -2.10391,0.28122 -3.1219,0.56848 -0.26618,0.0751 0.55061,0.053 0.82592,0.0794 -53.03301,0 -53.03301,75 0,75 z"/>
<path d="m 313.64386,425.17467 c 0.54715,25.62096 -0.32428,51.2504 -1.20709,76.85357 -2.55089,61.42841 -8.03797,122.6842 -12.51408,183.99117 -0.93931,13.0904 -3.34835,47.63998 -4.58882,61.22978 -0.8227,9.01296 -1.89671,18.00121 -2.84506,27.00181 -5.53188,52.74371 69.05898,60.56697 74.59086,7.82326 v 0 c 1.00835,-9.65556 2.14376,-19.29871 3.02504,-28.9667 1.25089,-13.72265 3.65997,-48.2629 4.6189,-61.62723 4.54561,-62.26819 10.11792,-124.48463 12.66899,-186.87838 0.90491,-26.46054 1.80427,-52.94855 1.25126,-79.42728 0,-53.033 -75,-53.033 -75,0 z"/>
<path d="m 195.15723,688.84071 c 8.08946,14.4079 15.90776,28.97733 23.97857,43.40116 2.44404,4.29399 4.88808,8.58798 7.33212,12.88196 26.23657,46.08843 91.41544,8.98432 65.17887,-37.1041 v 0 c -2.35472,-4.13576 -4.70944,-8.27151 -7.06417,-12.40726 -7.03638,-12.56891 -6.84288,-12.13088 -13.48088,-24.32984 -5.56334,-10.22398 -10.71838,-20.80814 -17.94984,-29.99839 -33.62749,-41.00843 -91.62217,6.54804 -57.99467,47.55647 z"/>
<path d="m 413.70898,626.33919 c -2.35962,5.02166 -2.55184,5.38972 -5.50166,12.01479 -6.60029,14.82376 -5.08217,11.95455 -12.63771,28.09945 -6.42408,13.72713 -12.56067,26.22137 -19.20006,39.88538 -3.61578,7.19027 -7.23156,14.38054 -10.84734,21.57081 -23.8191,47.38302 43.1906,81.06832 67.00971,33.6853 v 0 c 3.76579,-7.49379 7.53158,-14.98758 11.29738,-22.48138 7.06032,-14.53394 13.1231,-26.87022 19.94552,-41.46639 7.96748,-17.04593 6.15212,-13.51111 12.75235,-28.35132 2.2814,-5.12959 3.83575,-8.46349 6.09379,-13.35699 20.93011,-48.72813 -47.98187,-78.32778 -68.91198,-29.59965 z"/>
<path d="m 201.91196,895.00303 c 26.78806,-8.25658 52.9988,-18.2604 79.20269,-28.17824 24.7191,-9.35586 43.70913,-16.65002 68.57596,-26.16534 34.56712,-13.55525 69.35872,-26.49537 104.27569,-39.11426 49.87364,-18.0311 24.37382,-88.56307 -25.49981,-70.53198 v 0 c -35.34998,12.78501 -70.58193,25.87155 -105.57956,39.59938 -25.65595,9.81739 -42.78146,16.39794 -68.19778,26.0218 -24.08261,9.11884 -48.16798,18.30147 -72.7296,26.07133 -51.12192,14.10848 -31.1695,86.40579 19.95241,72.29731 z"/>
<path d="m 540.0479,506.34407 c 27.78898,-7.93026 56.5599,-12.10156 85.05753,-16.59972 53.37661,-7.57659 107.4131,-10.60204 161.30934,-9.29643 10.53876,0.2553 21.06462,0.89653 31.59694,1.34479 28.00166,1.62202 55.89923,4.65076 83.64016,8.75856 7.21419,1.06826 14.39844,2.32971 21.59766,3.49456 52.35661,8.44306 64.29691,-65.60036 11.9403,-74.04343 v 0 c -7.81318,-1.25605 -15.6101,-2.61781 -23.43954,-3.76817 -30.05249,-4.41553 -60.27392,-7.66034 -90.6062,-9.37608 -11.42579,-0.46962 -22.84495,-1.1459 -34.27736,-1.40886 -57.97057,-1.33343 -116.0812,2.00303 -173.48186,10.21653 -32.53934,5.15976 -65.39457,9.98591 -97.00625,19.51109 -50.32279,16.73671 -26.65351,87.90387 23.66928,71.16716 z"/>
<path d="m 690.18817,173.20194 c -1.62989,37.95211 -2.47766,75.92234 -2.96388,113.90428 -0.31482,59.31679 0.52619,118.63113 0.23171,177.94827 -0.25513,51.39083 -0.55073,58.16209 -1.48895,110.25105 -2.64197,113.15902 -8.58178,226.20673 -13.5768,339.27851 -2.34048,52.98133 72.58645,56.29127 74.92692,3.30993 v 0 c 5.02387,-113.72523 10.99671,-227.42637 13.63775,-341.23988 0.94714,-52.74834 1.24408,-59.51126 1.50105,-111.53143 0.29155,-59.0219 -0.53447,-118.04093 -0.23774,-177.06245 0.46544,-36.82836 1.29391,-73.64374 2.83994,-110.44431 3.12114,-52.94108 -71.74886,-57.35505 -74.87,-4.41397 z"/>
</svg>
