<?xml version="1.0" ?>
<svg xmlns="http://www.w3.org/2000/svg" width="1000" height="1000">
<path d="m 240.98613,77.167275 c -1.00711,3.285327 -0.46181,1.609541 -2.12138,6.240785 -3.4149,9.529739 -4.22969,11.39461 -7.51776,22.28384 -1.72876,5.72522 -3.28241,11.50186 -4.92362,17.25279 -1.88417,6.1713 -3.76835,12.34259 -5.65253,18.51389 -13.60738,41.55563 -30.89876,81.8138 -50.40518,120.92602 -4.22356,8.46863 -8.72499,16.79582 -13.08749,25.19373 -17.33397,32.58664 -35.84583,64.60777 -56.38484,95.29544 -11.858149,17.71745 -16.307095,23.08435 -29.074944,39.93272 -18.124217,23.34671 -9.344952,12.14285 -26.316163,33.62851 -32.86931,41.61861 25.988289,88.10283 58.857597,46.48423 v 0 c 17.55783,-22.23448 8.45533,-10.614 27.28348,-34.88024 14.61163,-19.36505 18.79016,-24.33643 32.39866,-44.70226 5.2321,-7.83012 10.23673,-15.81071 15.23632,-23.7913 15.8199,-25.2525 30.74542,-51.04172 44.5794,-77.43931 4.72357,-9.12263 9.59229,-18.17155 14.17069,-27.36789 21.15062,-42.48386 39.79465,-86.25617 54.4815,-131.40475 2.01971,-6.63154 4.03941,-13.26308 6.05911,-19.89462 1.39428,-4.93488 2.71694,-9.89056 4.18284,-14.80464 2.82859,-9.48215 6.4468,-18.65227 9.4998,-28.05424 0.43437,-1.337695 0.79424,-2.698447 1.19137,-4.04767 13.69314,-51.234732 -58.76371,-70.599766 -72.45686,-19.365035 z"/>
<path d="m 275.37161,197.15555 c 18.06137,6.43289 33.91526,17.6866 49.53106,28.53765 20.80478,14.61543 40.47213,30.73995 59.50058,47.57851 -5.20945,-3.88929 9.68003,7.9085 6.19325,6.14985 33.16873,41.38038 91.68941,-5.52729 58.52068,-46.90767 v 0 c -4.65639,-5.50099 -9.4571,-10.81935 -15.03482,-15.42925 -21.26659,-18.7893 -43.25237,-36.77366 -66.50762,-53.06879 -4.96764,-3.42447 -9.86652,-6.95087 -14.90291,-10.2734 -17.61554,-11.62104 -36.24178,-22.20218 -56.43254,-28.62537 -50.93889,-14.75567 -71.80657,57.28279 -20.86768,72.03847 z"/>
<path d="m 232.32861,394.79987 c 13.38114,-5.04328 27.38597,-8.39052 41.44759,-10.90127 4.92751,-0.87982 9.893,-1.53179 14.8395,-2.29769 28.15033,-4.06932 56.58569,-2.94181 84.68328,0.74671 9.75622,1.64426 5.21492,0.80434 13.63377,2.46578 52.05552,10.13525 66.38893,-63.48237 14.33341,-73.61762 v 0 c -11.40572,-2.19851 -5.27249,-1.09537 -18.41256,-3.23706 -12.27451,-1.54951 -15.86307,-2.17449 -28.73577,-3.01378 -25.74844,-1.67878 -51.61808,-1.06878 -77.18664,2.57174 -6.11408,0.97857 -12.25085,1.82468 -18.34225,2.93571 -17.25208,3.14665 -34.39045,7.40821 -50.85015,13.49312 -50.1016,17.38762 -25.51178,88.24199 24.58982,70.85436 z"/>
<path d="m 140.99279,602.06862 c 26.51619,-14.90341 55.97306,-23.492 84.99802,-31.9963 39.02526,-10.24092 79.25629,-15.40736 119.60304,-15.23929 6.42942,0.0268 12.8529,0.39471 19.27935,0.59206 21.9367,1.04596 43.71205,3.94783 65.1537,8.63653 51.82269,11.26536 67.75432,-62.023 15.93162,-73.28836 v 0 c -25.99059,-5.62335 -52.37734,-9.15502 -78.96268,-10.31813 -21.25672,-0.55915 -26.63642,-1.07923 -48.43604,-0.0183 -38.42882,1.87016 -76.57812,7.72649 -113.7509,17.68884 -8.50087,2.51339 -17.05206,4.86247 -25.50262,7.54018 -27.18089,8.61274 -54.2129,18.68174 -78.80619,33.27325 -44.639341,28.63266 -4.146642,91.76222 40.4927,63.12956 z"/>
<path d="m 260.3242,372.61363 c 1.30033,32.20551 3.35952,64.373 4.81821,96.57305 2.4023,60.72627 0.57043,121.51313 -1.46558,182.22028 -1.22356,34.15316 -3.42266,68.25746 -5.92835,102.33657 -3.88482,52.89053 70.91369,58.38449 74.7985,5.49396 v 0 c 2.57351,-35.07235 4.83417,-70.17038 6.08778,-105.31878 2.0984,-62.67679 3.94858,-125.4355 1.43061,-188.13065 -1.45171,-31.96136 -3.48113,-63.89127 -4.78917,-95.85727 -1.89705,-52.99907 -76.84905,-50.31623 -74.952,2.68284 z"/>
<path d="m 140.46145,673.52348 c 8.30645,12.44775 13.53791,26.54912 20.56442,39.69134 2.6328,4.92435 5.50472,9.71707 8.25707,14.5756 11.49957,18.24332 5.80986,9.47903 17.02702,26.32018 29.4299,44.11781 91.82191,2.49766 62.39201,-41.62015 v 0 c -9.62789,-14.40797 -4.8607,-7.10869 -14.29577,-21.90166 -2.08532,-3.61006 -4.28077,-7.15871 -6.25596,-10.83019 -7.89045,-14.66669 -13.76216,-30.42861 -23.081,-44.32493 -26.93357,-45.68461 -91.54135,-7.5948 -64.60779,38.08981 z"/>
<path d="m 376.1138,614.63777 c -4.96765,18.86798 -11.4035,37.38108 -19.61099,55.09648 -2.79721,6.03761 -5.9331,11.91246 -8.89965,17.86869 -3.04199,5.61438 -6.08397,11.22877 -9.12595,16.84315 -25.20385,46.66118 40.78504,82.3048 65.98888,35.64361 v 0 c 3.45954,-6.42222 6.91908,-12.84445 10.37862,-19.26668 3.57657,-7.28786 7.36095,-14.47736 10.72971,-21.86357 6.27712,-13.76298 10.56071,-25.06275 15.32436,-39.24065 3.16959,-9.43353 6.34293,-19.74297 8.39133,-29.54741 0.7269,-3.47924 1.10455,-7.02239 1.65683,-10.53359 3.53556,-52.91502 -71.29759,-57.91505 -74.83314,-5.00003 z"/>
<path d="m 185.90965,892.85763 c 3.9603,-2.52864 6.4241,-4.15959 10.77755,-6.60404 8.80312,-4.94293 19.33456,-10.26145 28.10666,-14.7319 16.32992,-8.32206 32.69724,-16.57051 49.04305,-24.8613 30.96296,-15.75546 62.12295,-31.11834 93.42693,-46.18394 20.70929,-9.96671 41.68331,-20.04014 62.70914,-29.34271 9.76521,-4.32048 19.64505,-8.37708 29.46758,-12.56562 48.77465,-20.82147 19.32864,-89.79924 -29.44601,-68.97777 v 0 c -10.4181,4.45201 -20.89525,8.76831 -31.2543,13.35603 -21.4832,9.51426 -43.04426,19.86234 -64.20732,30.04905 -31.70386,15.26046 -63.26248,30.82079 -94.6224,46.77699 -16.47064,8.35411 -32.96715,16.65733 -49.417,25.05229 -11.66009,5.95058 -21.17207,10.74927 -32.37601,17.10641 -5.08594,2.88577 -7.56896,4.51887 -11.89396,7.28679 -45.00008,28.0623 -5.31399,91.70202 39.68609,63.63972 z"/>
<path d="m 551.30677,279.23377 c 23.94731,-7.55049 48.58136,-12.35885 73.24035,-16.87426 28.24619,-4.74638 56.69758,-8.38654 85.25915,-10.58839 14.14481,-1.09045 18.42048,-1.1404 31.97133,-1.66735 7.28048,-0.35526 14.50453,-0.24061 21.65544,1.13727 52.44127,7.90019 63.61383,-66.26297 11.17255,-74.16316 v 0 c -3.45954,-0.46989 -6.90174,-1.09278 -10.37864,-1.40967 -10.0996,-0.9205 -15.10041,-0.59959 -25.42008,-0.50558 -15.24647,0.6146 -19.82781,0.66878 -35.70829,1.90904 -30.85694,2.40993 -61.5946,6.35774 -92.10738,11.5231 -7.31328,1.34837 -14.64404,2.60511 -21.93983,4.0451 -19.84683,3.91721 -39.49634,8.78469 -58.86355,14.6287 -50.88708,14.93336 -29.76813,86.89856 21.11895,71.9652 z"/>
<path d="m 567.74666,416.13335 c 23.64914,-5.88708 47.52339,-10.8524 71.38235,-15.80685 28.07375,-5.58351 56.49729,-9.85247 85.154,-10.2961 1.20562,2.67977 6.44227,-1.42582 8.25476,0.69928 52.11436,9.8282 66.01354,-63.87263 13.89918,-73.70084 v 0 c -7.80674,-1.29342 -15.62356,-2.28395 -23.57039,-1.98506 -10.76971,0.23056 -13.44527,0.14698 -24.77868,1.05276 -24.93511,1.99283 -49.68835,5.95085 -74.21332,10.79766 -26.05659,5.41486 -52.16288,10.759 -77.92033,17.47502 -50.7449,15.40958 -28.95247,87.17371 21.79243,71.76413 z"/>
<path d="m 529.84993,588.36599 c 22.2527,-7.98484 44.13013,-16.98939 66.43826,-24.82314 8.42142,-2.95727 16.91795,-5.69617 25.37692,-8.54426 36.09798,-11.57757 72.92008,-20.7765 110.25935,-27.32921 21.81029,-3.82751 27.79367,-4.31126 49.3213,-6.99127 27.63228,-3.05881 55.16784,-4.68831 82.89917,-2.38506 52.8656,4.21055 58.8202,-70.5527 5.95461,-74.76324 v 0 c -9.78743,-0.75512 -12.63528,-1.10165 -22.94018,-1.30401 -25.13606,-0.49361 -50.26707,1.33336 -75.24083,4.03455 -23.6496,2.98227 -30.28329,3.53124 -54.21148,7.76893 -40.6412,7.19755 -80.72353,17.25598 -120.01099,29.90255 -9.10246,3.07494 -18.24366,6.03752 -27.30739,9.22484 -23.5161,8.26959 -46.62531,17.67212 -70.02725,26.24971 -48.76181,20.85153 -19.2733,89.81114 29.48851,68.95961 z"/>
<path d="m 553.65647,109.43837 c 3.41637,33.83142 9.31759,67.36023 14.65222,100.92643 8.23634,51.88806 18.69824,103.38951 29.32527,154.83026 3.09606,14.98666 6.1701,29.97844 9.41343,44.93391 3.35988,15.49287 6.93047,30.93929 10.3957,46.40893 17.52304,76.28744 38.86831,151.68263 63.33757,226.02783 4.32053,13.12713 8.87915,26.1747 13.31872,39.26205 14.1207,40.1957 28.68382,80.26619 45.24555,119.5322 7.39797,17.53977 9.00305,20.65398 16.63828,37.11773 7.66508,14.8463 14.48261,30.37482 24.0896,44.13564 1.16338,1.6664 2.43601,3.25382 3.65402,4.88072 21.53953,17.40138 18.71435,20.70933 59.54383,2.56523 4.62567,-2.05559 15.6153,-27.29714 18.03452,-32.17849 10.08437,-20.34752 12.24272,-23.67254 23.86146,-44.77231 25.55168,-46.47162 -40.16912,-82.60716 -65.7208,-36.13554 v 0 c -13.14286,23.93641 -14.51449,25.78547 -25.93166,48.8239 -2.13512,4.30841 -4.90931,8.40212 -6.15451,13.04653 -0.33697,1.25684 1.95233,-1.99175 3.24031,-2.17697 44.8286,-6.44654 32.19788,-13.23607 52.29191,4.73541 -1.11721,-0.37491 -0.31231,-0.0596 -1.84598,-2.4973 -0.91773,-1.45869 -1.80925,-2.93432 -2.66931,-4.42774 -5.17715,-8.98968 -9.80179,-18.2843 -14.37211,-27.59188 -6.9907,-15.02657 -8.46808,-17.88438 -15.27861,-34.00797 -15.97549,-37.82122 -29.9852,-76.43361 -43.6052,-115.15259 -4.30157,-12.66861 -8.7189,-25.29849 -12.9047,-38.00582 -23.79037,-72.22329 -44.55434,-145.46596 -61.5878,-219.5801 -3.39151,-15.12958 -6.8877,-30.23606 -10.17453,-45.38872 -3.21383,-14.8161 -6.25937,-29.6683 -9.32699,-44.51536 -10.40972,-50.38244 -20.67755,-100.82101 -28.74759,-151.64148 -5.01847,-31.5767 -10.55258,-63.11461 -13.9445,-94.91952 -4.07649,-52.876104 -78.85459,-47.111086 -74.7781,5.76502 z"/>
<path d="m 762.24465,558.48226 c -0.38481,0.76776 -0.71809,1.56359 -1.15443,2.30326 -1.42128,2.40929 -8.03507,12.02555 -8.07817,12.08509 -11.84164,16.35793 -25.27073,30.88123 -38.8716,45.77532 -38.52697,41.85002 -80.86947,80.10067 -126.62803,113.90632 -9.42758,6.96494 -19.1477,13.52495 -28.72155,20.28743 -37.63877,23.44144 -18.6719,12.49807 -56.84892,32.91949 -46.7009,25.13018 -11.16147,91.17523 35.53944,66.04505 v 0 c 43.63211,-23.60013 22.07591,-11.03605 64.63721,-37.74602 10.41673,-7.38596 20.99173,-14.55364 31.2502,-22.15789 49.20045,-36.47064 94.74272,-77.69576 136.21546,-122.7471 22.24832,-24.47571 45.43389,-49.17239 60.59673,-78.89591 22.46834,-48.03826 -45.468,-79.81329 -67.93634,-31.77504 z"/>
<path d="m 776.5064,106.57027 c 17.9169,6.83094 34.40644,16.86304 50.79218,26.69234 10.95647,6.50215 20.96844,14.3357 30.85131,22.3214 41.37676,33.17324 88.2908,-25.34233 46.91404,-58.515572 v 0 c -12.60282,-10.044467 -25.34676,-19.926227 -39.24778,-28.159517 -20.71128,-12.372057 -41.64301,-24.789966 -64.39789,-33.080429 -50.02199,-17.615346 -74.93385,53.126432 -24.91186,70.741778 z"/>
</svg>
