<?xml version="1.0" ?>
<svg xmlns="http://www.w3.org/2000/svg" viewBox="0 0 1000 1000">
<path d="m 211.06304,117.98603 c -9.18616,21.29484 -16.90992,43.32577 -25.13396,65.03672 -10.0881,26.46744 -21.63414,52.32951 -33.60019,77.99006 -9.46986,20.30761 -20.71898,43.97422 -30.91525,63.88282 -5.33742,10.42152 -10.97438,20.68691 -16.46157,31.03036 -15.893166,28.35027 -32.717301,56.2014 -51.083848,83.02626 -11.766619,17.18548 -20.071396,27.94791 -32.475356,44.54424 -31.732307,42.49189 28.360299,87.36815 60.092607,44.87626 v 0 c 13.703036,-18.36335 21.954337,-29.03542 35.000597,-48.1409 19.67938,-28.81932 37.72581,-58.72471 54.7352,-89.18616 5.80847,-10.97091 11.77111,-21.86158 17.4254,-32.91273 10.36662,-20.26125 22.22516,-45.17456 31.8603,-65.86716 12.66716,-27.20423 24.87373,-54.62859 35.56131,-82.68196 2.69367,-7.11501 5.42194,-14.21701 8.08099,-21.34503 2.00745,-5.38129 3.87232,-10.81554 5.9183,-16.18229 5.05561,-13.26122 11.45204,-26.11354 14.66509,-40.00684 9.9445,-52.092295 -63.72513,-66.155939 -73.66962,-14.06365 z"/>
<path d="m 235.4914,228.76631 c 0.79838,0.38571 1.62106,0.72472 2.39515,1.15713 2.91564,1.6287 5.64144,3.57888 8.39453,5.46942 10.0858,6.92593 19.39335,14.56411 28.76045,22.42629 23.96632,19.72568 44.46709,43.03792 64.25796,66.81947 9.07948,11.64408 4.829,5.99707 12.79854,16.9055 31.36491,42.76379 91.84205,-1.5929 60.47713,-44.35669 v 0 c -9.83798,-13.37122 -4.63705,-6.5097 -15.64844,-20.54988 -22.69262,-27.2207 -46.34255,-53.76036 -73.7791,-76.35798 -17.605,-14.67067 -35.5469,-29.54899 -56.28487,-39.63696 -48.17073,-22.18289 -79.54208,45.94081 -31.37135,68.1237 z"/>
<path d="m 188.77252,449.32423 c 14.99589,-1.23794 29.8251,-3.90793 44.73159,-5.87628 4.75609,-0.62802 9.52449,-1.15906 14.28673,-1.73859 13.83925,-1.45292 27.72721,-2.56923 41.65245,-2.53516 8.45953,0.0207 12.81458,0.39503 21.07937,0.89465 52.9436,3.07806 57.29663,-71.79551 4.35302,-74.87356 v 0 c -11.00513,-0.6197 -15.70478,-1.03266 -27.07818,-1.00303 -16.41695,0.0428 -32.7936,1.31814 -49.10728,3.07129 -5.2687,0.6467 -10.54357,1.24502 -15.8061,1.9401 -13.14998,1.73686 -26.23096,4.07094 -39.44321,5.31033 -52.89884,3.77001 -47.56723,78.58026 5.33161,74.81025 z"/>
<path d="m 99.232873,638.45581 c 25.088537,-8.81186 50.971727,-15.1102 76.774387,-21.4157 32.7944,-7.69863 65.91229,-14.17886 99.39128,-18.0734 20.72267,-2.41063 25.40883,-2.36325 45.9467,-3.49335 17.19809,-1.01516 34.39678,-0.47583 51.57996,0.36 52.97485,2.48305 56.4864,-72.4347 3.51156,-74.91775 v 0 c -19.76198,-0.89701 -39.54055,-1.49944 -59.31515,-0.32323 -23.36581,1.34632 -28.34907,1.28975 -51.85786,4.06224 -36.06564,4.25338 -71.75151,11.22547 -107.0841,19.53512 -29.18359,7.15102 -58.481869,14.29983 -86.747406,24.60887 -49.255076,19.65801 -21.454447,89.31521 27.800629,69.6572 z"/>
<path d="m 210.70956,441.76431 c 0,23.50534 0,47.01068 0,70.51602 0.25046,60.75839 -0.40874,121.51265 -0.98081,182.26712 -0.5817,40.73427 -0.66005,81.47217 -0.77457,122.20954 -0.14909,53.0328 74.85061,53.24363 74.9997,0.21084 v 0 c 0.11405,-40.57226 0.19103,-81.14505 0.77155,-121.71421 0.57428,-60.98985 1.23432,-121.97951 0.98413,-182.97329 0,-23.50534 0,-47.01068 0,-70.51602 0,-53.03301 -75,-53.03301 -75,0 z"/>
<path d="m 94.412267,709.04586 c 12.763283,16.14701 24.544583,33.02402 36.967283,49.43165 2.89949,3.7326 5.79899,7.4652 8.69848,11.1978 32.54184,41.87516 91.76225,-4.14595 59.22041,-46.02111 v 0 c -2.71422,-3.49117 -5.42844,-6.98234 -8.14266,-10.47352 -12.10538,-15.96005 -23.52223,-32.42811 -35.98929,-48.11123 -31.09602,-42.95972 -91.850241,1.01669 -60.754223,43.97641 z"/>
<path d="m 332.57484,643.2713 c -2.9053,12.0853 -7.20031,23.7793 -10.89561,35.63038 -0.56285,1.80509 -10.90734,36.17275 -11.26993,37.3768 -2.23331,6.32601 -4.46662,12.65202 -6.69992,18.97803 -17.56035,50.04132 53.20877,74.8754 70.76912,24.83408 v 0 c 2.58172,-7.39529 5.16345,-14.79058 7.74518,-22.18586 3.6018,-11.96053 7.08334,-23.95792 10.80283,-35.88237 4.30526,-13.8024 9.25194,-27.43735 12.54607,-41.53681 12.17231,-51.6172 -60.82543,-68.83145 -72.99774,-17.21425 z"/>
<path d="m 126.04701,931.38598 c 21.29838,-10.99665 42.92031,-21.46404 64.74821,-31.37559 8.45321,-3.83841 16.99043,-7.48907 25.48564,-11.23361 39.66805,-16.55931 79.68822,-32.36806 120.46464,-46.01138 10.07238,-3.3701 20.22701,-6.48924 30.34051,-9.73386 50.49203,-16.21896 27.55496,-87.62548 -22.93707,-71.40652 v 0 c -10.70019,3.44112 -21.44379,6.75008 -32.10058,10.32335 -42.66289,14.30508 -84.54822,30.83853 -126.04314,48.21074 -9.02774,3.98698 -18.09825,7.8785 -27.08322,11.96094 -10.32178,4.68983 -30.33236,14.29031 -41.17119,19.52936 -8.59712,4.1555 -17.00311,8.16949 -25.394304,12.68488 -2.203523,1.18573 -4.340679,2.49087 -6.511019,3.73631 -44.770735,28.42677 -4.56921,91.74215 40.201523,63.31538 z"/>
<path d="m 604.76819,137.44443 c -1.57732,1.66786 -3.56789,3.78999 -5.05766,5.1823 -15.04332,14.05919 -31.88114,26.15233 -48.31823,38.48325 -27.91013,20.94069 -56.46191,40.98461 -84.04941,62.3544 -41.91297,32.49313 4.03925,91.76702 45.95221,59.27389 v 0 c 27.26285,-21.15444 55.55893,-40.89375 83.12348,-61.64801 12.35439,-9.28 21.99211,-16.33493 33.91766,-25.97515 10.68443,-8.63694 21.22519,-17.61777 30.4129,-27.86845 1.55459,-1.73444 2.96809,-3.59036 4.45213,-5.38554 31.40735,-42.73264 -29.02573,-87.149334 -60.43308,-44.41669 z"/>
<path d="m 440.1429,308.49864 c 5.82182,8.25094 8.25141,18.17807 10.92096,27.75083 7.91276,31.79942 12.09212,64.4303 14.62625,97.06469 0.72296,9.31023 1.18409,18.63895 1.77614,27.95843 3.18786,69.04993 -0.41962,138.17227 -3.57469,207.15379 -2.23149,44.21836 -4.57568,88.47609 -9.86476,132.45679 -3.04293,25.30309 -3.9027,28.60244 -8.06563,52.95269 -6.02604,28.9117 -2.85413,14.68425 -9.48589,42.68899 -12.18645,51.61386 60.80657,68.8481 72.99302,17.23424 v 0 c 7.27406,-30.89174 3.781,-15.11245 10.43119,-47.34846 4.49639,-26.56438 5.43589,-30.22372 8.71193,-57.6449 5.43167,-45.4643 7.91113,-91.20612 10.20188,-136.91402 3.27764,-71.72088 6.96133,-143.59027 3.49926,-215.37808 -0.65039,-10.05789 -1.15704,-20.12611 -1.95116,-30.17367 -2.94736,-37.29136 -7.91046,-74.55961 -17.23395,-110.83125 -1.44032,-4.8877 -2.71606,-9.82694 -4.32096,-14.6631 -4.50216,-13.56661 -10.68788,-26.62443 -19.26618,-38.0994 -32.38014,-42.00032 -91.77756,3.79212 -59.39741,45.79243 z"/>
<path d="m 541.38679,449.34548 c 15.99204,-2.19243 32.12859,-3.04224 48.24443,-3.68436 16.13683,-0.44019 32.28061,-0.41097 48.42165,-0.36781 53.03282,0.13988 53.23064,-74.85986 0.19782,-74.99974 v 0 c -17.2246,-0.0448 -34.45235,-0.0708 -51.6718,0.42969 -19.44521,0.80708 -38.93448,1.84456 -58.19785,4.75849 -52.22955,9.19645 -39.22379,83.06018 13.00575,73.86373 z"/>
<path d="m 520.39734,598.47221 c 12.08307,-1.46609 24.2799,-1.95621 36.42801,-2.63338 22.49613,-1.45599 45.03256,-1.37007 67.47052,0.785 52.80383,4.92496 59.76877,-69.75094 6.96494,-74.6759 v 0 c -11.11414,-1.01294 -13.37243,-1.35816 -24.94722,-1.79366 -17.89087,-0.67314 -35.7997,-0.15713 -53.66937,0.8012 -14.28952,0.79912 -28.63079,1.40661 -42.83021,3.2672 -52.50235,7.48355 -41.91902,81.73308 10.58333,74.24954 z"/>
<path d="m 425.26807,775.89349 c 38.14457,-6.37698 74.59501,-20.10427 110.8276,-33.19123 36.73755,-13.87546 73.41986,-27.89527 110.00876,-42.15783 49.41122,-19.2622 22.17036,-89.14021 -27.24086,-69.87801 v 0 c -36.01015,14.03906 -72.11518,27.83122 -108.26631,41.50335 -30.84885,11.16271 -61.79244,22.87272 -94.07288,29.23515 -52.67137,6.18272 -43.92769,80.67129 8.74369,74.48857 z"/>
<path d="m 661.17014,243.82995 c 1.98482,18.65859 2.4421,37.60219 0.82083,56.31255 -0.59291,6.84242 -1.61236,13.64116 -2.41854,20.46174 -5.40295,30.87881 -11.17307,61.91876 -21.41592,91.63142 -5.26061,15.26008 -9.59069,24.51904 -15.93239,39.14751 -21.00247,48.69699 47.86546,78.39897 68.86793,29.70198 v 0 c 7.86595,-18.31921 12.25114,-27.61006 18.79651,-46.95172 11.53723,-34.09267 18.32397,-69.6004 24.20052,-105.02809 0.93994,-8.48508 2.14063,-16.94532 2.81982,-25.45524 1.92604,-24.13213 1.24721,-48.59199 -1.83407,-72.59109 -9.03042,-52.2585 -82.93511,-39.48756 -73.90469,12.77094 z"/>
<path d="m 718.70785,269.22194 c 19.6459,-6.53078 39.60257,-11.98176 59.77944,-16.58854 13.96932,-2.60533 28.36795,-6.59343 42.66908,-6.88671 0.20991,0.0373 0.84282,0.10488 0.62974,0.11188 -2.85545,0.0939 -6.15415,-0.45719 -8.65163,-1.57474 -9.34387,-4.18113 -12.10826,-6.94161 -17.81664,-15.74747 -1.17781,-1.81692 -1.58531,-4.02996 -2.37797,-6.04494 -0.12459,-0.36025 -0.30376,-1.45545 -0.37377,-1.08075 -0.17783,0.95179 0.024,1.93636 0.033,2.90457 0.0189,2.02651 0.0526,4.05298 0.0506,6.07957 -0.01,10.2457 -0.20627,20.49434 -0.32126,30.73911 -0.43088,25.82387 -0.0326,51.68987 2.49962,77.41005 0.54403,5.52588 1.275,11.03175 1.9125,16.54762 3.48901,24.64423 9.29505,49.19665 19.52647,71.9836 1.78095,3.96646 3.85613,7.79413 5.78419,11.6912 10.56625,18.89952 26.29655,33.91489 44.09675,45.97331 2.83831,1.92276 5.79331,3.66738 8.68996,5.50107 11.74518,6.86881 23.94144,13.03829 36.59691,18.04842 10.06522,2.62552 17.94333,5.71474 29.31183,0.69686 8.35966,-3.68984 15.55822,-10.03974 21.56196,-16.92842 3.78232,-4.33982 5.06592,-10.36895 6.96505,-15.80339 2.2303,-6.38212 5.11188,-23.35525 6.24146,-29.39836 4.04476,-22.47816 6.16748,-45.21427 8.35812,-67.92458 5.06012,-52.79105 -69.59771,-59.94714 -74.65782,-7.15609 v 0 c -1.9557,20.54558 -3.83963,41.11568 -7.45249,61.4566 -0.77589,4.26323 -1.52263,8.53186 -2.32768,12.78968 -0.41597,2.2 -2.52281,4.68483 -1.33521,6.58289 0.87176,1.39329 1.69093,-2.92545 3.01117,-3.90431 5.63196,-4.17567 11.03713,-9.12563 17.66123,-11.4227 9.16652,-3.17871 12.89185,-1.38154 19.55596,0.99943 -3.11603,-1.0573 -6.07626,-2.59377 -9.03678,-4.01191 -4.99864,-2.39445 -9.9894,-4.82054 -14.75727,-7.65739 -5.22771,-3.17647 -10.18414,-6.47388 -14.91321,-10.37318 -1.86149,-1.53487 -5.8088,-4.95465 -7.47286,-6.93351 -1.16338,-1.38346 -2.11733,-2.93029 -3.17599,-4.39543 -1.10605,-2.0994 -2.31614,-4.14719 -3.31815,-6.29818 -7.6646,-16.45344 -11.78169,-34.35268 -14.42066,-52.222 -1.52544,-12.88286 -1.99355,-15.47614 -2.88017,-28.52617 -1.26364,-18.59915 -1.30129,-37.25247 -1.02961,-55.88341 0.0856,-7.62242 0.18911,-15.24466 0.25944,-22.86723 0.0741,-8.03668 0.36733,-16.23829 -0.305,-24.26287 -0.22282,-2.65955 -0.6514,-5.29784 -0.9771,-7.94676 -3.53291,-11.29455 -3.40937,-14.9257 -13.11729,-24.37889 -9.50106,-9.25176 -22.54302,-11.86723 -35.19245,-11.70637 -19.01053,0.95944 -37.7287,4.60117 -56.28209,8.72067 -4.82831,1.11321 -9.67275,2.15869 -14.48494,3.33963 -17.84805,4.38003 -35.42901,9.80329 -52.91692,15.42834 -50.14787,17.25372 -25.74743,88.17352 24.40044,70.9198 z"/>
<path d="m 707.47917,584.34723 c 18.49375,-5.44748 37.65558,-8.11621 56.70147,-10.78755 23.4194,-3.13474 47.03695,-4.74013 70.65034,-3.66147 4.88031,0.41576 5.22138,0.39375 9.70404,0.94432 1.02209,0.12554 2.04406,0.25524 3.06109,0.41671 0.32041,0.0509 1.26683,0.28044 0.94812,0.21984 -0.93573,-0.17791 -1.95451,-0.13262 -2.79966,-0.57188 -4.83202,-2.51144 -9.41197,-5.48068 -14.11795,-8.22102 -14.39095,-30.12648 -10.44166,-12.41643 -10.12962,-32.49784 0.003,-0.1791 -0.40362,0.0583 -0.49318,0.21343 -1.16145,2.0117 -2.15519,4.11586 -3.2032,6.18892 -3.78936,7.49565 -7.51133,15.02521 -11.28815,22.52719 -11.6473,22.96848 -24.13726,45.51929 -38.54843,66.8862 -11.74483,17.41364 -16.03509,22.47284 -28.96766,39.35845 -22.05724,27.35638 -45.97099,53.26657 -72.08276,76.80968 -15.68394,14.14108 -21.50299,18.3646 -37.84186,31.35398 -5.59949,4.23057 -11.19898,8.46115 -16.79848,12.69172 -42.2956,31.99347 2.94999,91.80849 45.2456,59.81502 v 0 c 6.09937,-4.61874 12.19874,-9.23748 18.2981,-13.85622 18.52209,-14.79559 24.79706,-19.34968 42.60117,-35.48584 29.04028,-26.3197 55.66839,-55.23035 80.17441,-85.79488 14.61406,-19.16918 19.22975,-24.60673 32.5316,-44.4469 15.78806,-23.54842 29.56766,-48.33768 42.37873,-73.60757 3.68655,-7.32361 7.32769,-14.67003 11.01633,-21.99259 4.59012,-9.11213 13.23826,-24.40675 11.22678,-34.71533 -1.82356,-9.34548 -7.3185,-17.58105 -10.97775,-26.37158 -5.3932,-3.43038 -10.5342,-7.2939 -16.17961,-10.29115 -1.99005,-1.05655 -4.32963,-1.25793 -6.52536,-1.76329 -7.86083,-1.80925 -16.05927,-1.91629 -24.04009,-2.74141 -9.58256,-0.38639 -12.26168,-0.61206 -22.29409,-0.47435 -20.74958,0.28483 -41.45418,2.15466 -62.02485,4.80316 -23.51403,3.334 -47.15937,6.79566 -69.89468,13.88519 -50.32271,16.73694 -26.65311,87.904 23.6696,71.16706 z"/>
<path d="m 676.18686,686.6105 c 12.91771,12.3938 25.8549,24.77148 38.6921,37.25303 18.60824,18.65548 37.52961,36.99666 55.98896,55.80002 10.02294,10.23703 19.78964,20.73339 30.25754,30.52523 6.66445,6.23404 7.99964,7.23263 14.84631,13.05271 14.40126,12.27541 30.67762,21.94661 46.82462,31.68577 22.14192,13.64624 45.7755,24.49356 69.22301,35.63711 47.89909,22.7635 80.0915,-44.97605 32.19244,-67.73955 v 0 c -21.21108,-10.07997 -42.6469,-19.78188 -62.68239,-32.12178 -12.72639,-7.67432 -25.68774,-15.10772 -37.10249,-24.70746 -14.26601,-12.00614 -27.20369,-25.38686 -40.04913,-38.88381 -18.87114,-19.20808 -38.1876,-37.97037 -57.2166,-57.02151 -11.82602,-11.49785 -23.59844,-23.05867 -35.74419,-34.22055 -35.87915,-39.05363 -91.10933,11.68715 -55.23018,50.74079 z"/>
</svg>
