<?xml version="1.0" ?>
<svg xmlns="http://www.w3.org/2000/svg" viewBox="0 0 1000 1000">
<path d="m 325.72754,204.32669 c 3.13574,-0.41338 6.28737,-0.72024 9.40722,-1.24012 3.59573,-0.59918 7.15297,-1.41002 10.72938,-2.11537 13.96629,-2.75448 17.5087,-3.54008 32.57222,-6.08713 22.10694,-3.73801 28.50923,-4.51813 51.59593,-7.86975 42.30337,-5.89173 84.83988,-10.15174 127.48787,-12.52647 24.29808,-1.35297 30.27325,-1.29681 53.84289,-1.81173 20.89156,-0.43658 41.75931,0.38957 62.58096,2.00307 52.87839,4.04674 58.60134,-70.7346 5.72296,-74.781334 v 0 c -23.28176,-1.762535 -46.61244,-2.705594 -69.96934,-2.203239 -25.04304,0.564794 -31.39194,0.509729 -57.16104,1.958989 -44.58946,2.507724 -89.06225,6.972104 -133.29173,13.140554 -24.71024,3.59547 -49.37185,7.24745 -73.92047,11.83805 -7.34006,1.37259 -14.69099,2.71232 -21.96852,4.38508 -0.27043,0.0622 -0.49575,0.24942 -0.74363,0.37412 -52.98724,2.20285 -49.87194,77.13812 3.1153,74.93528 z"/>
<path d="m 382.2918,481.05027 c -0.0226,0.0691 -0.13946,0.22015 -0.0679,0.20729 3.12717,-0.56198 6.12269,-1.70465 9.2086,-2.46106 3.35414,-0.82215 6.71869,-1.60531 10.09927,-2.3109 11.85378,-2.4741 16.94681,-3.17465 29.35418,-5.23621 25.14648,-3.90233 50.51367,-6.33798 75.96046,-6.88322 14.1832,-0.30389 18.89678,-0.013 32.65764,0.37353 11.19783,0.52167 22.42322,1.28794 33.25896,4.28563 51.44598,12.87675 69.65645,-59.87887 18.21046,-72.75561 v 0 c -3.18628,-0.76165 -6.34574,-1.64587 -9.55885,-2.28494 -13.14366,-2.61419 -26.53338,-3.58037 -39.89523,-4.218 -15.92506,-0.41141 -21.23677,-0.73294 -37.64679,-0.34163 -28.58992,0.68176 -57.09235,3.4357 -85.34261,7.84904 -15.81434,2.65373 -31.59385,5.2673 -47.14233,9.25057 -6.54057,1.67559 -13.35805,3.66964 -19.64291,6.20528 -2.10681,0.85 -4.10651,1.94453 -6.15976,2.91679 -46.24722,25.95564 -9.5404,91.35908 36.70681,65.40344 z"/>
<path d="m 105.15277,672.74307 c 2.09788,-0.47068 4.20816,-0.88914 6.29364,-1.41205 12.53533,-3.1431 24.87987,-7.02536 37.37955,-10.30911 18.14332,-4.76636 26.62614,-6.70307 45.55715,-11.27494 63.36966,-14.96194 127.10725,-28.47681 191.39913,-38.87038 16.01877,-2.58964 32.09188,-4.83114 48.13782,-7.24671 16.29762,-1.89408 32.56411,-4.07849 48.89285,-5.68225 30.70187,-3.01543 66.71184,-5.23986 97.55259,-6.57254 30.27231,-1.3081 61.2123,-1.96347 91.52447,-1.93181 13.66216,0.0143 27.32207,0.35085 40.98311,0.52627 32.10583,0.841 64.22163,2.15391 96.19984,5.2499 7.25595,0.70249 14.48499,1.65966 21.72748,2.48949 52.69336,5.99249 61.16802,-68.52717 8.47466,-74.51966 v 0 c -8.02269,-0.90619 -16.03113,-1.94902 -24.06808,-2.71856 -33.70518,-3.22729 -67.55077,-4.63178 -101.38845,-5.49521 -14.22673,-0.17615 -28.45236,-0.51935 -42.68018,-0.52846 -82.98115,-0.0532 -166.09286,4.24414 -248.39711,15.02062 -16.5935,2.50432 -33.21496,4.82987 -49.78049,7.51298 -65.89976,10.67376 -131.23611,24.52143 -196.19266,39.86425 -20.15284,4.87187 -28.35492,6.73634 -47.69282,11.82433 -14.19875,3.73583 -15.34392,4.21859 -27.94577,7.77579 -6.402243,1.8072 -4.8505,1.39666 -9.604105,2.54648 -52.150238,9.63601 -38.522865,83.38758 13.627375,73.75157 z"/>
<path d="m 299.88744,200.32842 c 0.5427,20.48498 1.28644,40.96344 1.83291,61.44842 1.57711,44.97524 0.39824,89.96914 -1.29781,134.91888 -2.63189,58.01129 -5.65594,116.00038 -7.91759,174.02842 -2.36683,56.54176 -3.71815,113.11576 -4.75438,169.69513 -0.66765,37.17576 -1.03627,74.35402 -0.51624,111.53296 0.23611,12.30107 0.74476,24.59412 1.31734,36.88331 1.113,25.34431 15.85986,30.82738 48.65268,37.03112 7.00314,1.32485 12.52046,-6.87852 18.33696,-10.99769 2.65271,-1.87861 4.61017,-4.58372 6.90942,-6.88144 2.72645,-2.72464 5.44511,-5.45708 8.16766,-8.18562 19.42268,-19.21347 39.26956,-37.98958 58.87695,-57.01369 38.06031,-36.93119 -14.16828,-90.7566 -52.22859,-53.82541 v 0 c -19.89569,19.30709 -40.04281,38.35403 -59.73994,57.86472 -2.75861,2.76476 -5.52706,5.51973 -8.27584,8.29426 -11.01217,11.11537 2.86853,-3.5464 8.64221,-1.72636 48.69103,15.34886 40.45419,9.46203 45.66184,33.81265 0.13004,0.60806 -0.0564,-1.24235 -0.0846,-1.86352 -0.53486,-11.47709 -1.01578,-22.95751 -1.24345,-34.44555 -0.51295,-36.37026 -0.13727,-72.73979 0.51108,-109.10698 1.02587,-56.06353 2.3634,-112.12175 4.71008,-168.14796 2.2614,-58.0609 5.29848,-116.08224 7.92135,-174.12681 1.74893,-46.55743 2.94771,-93.1601 1.32416,-139.74351 -0.55506,-20.74463 -1.30316,-41.48284 -1.85778,-62.2274 -1.96722,-52.99651 -76.9156,-50.21444 -74.94838,2.78207 z"/>
<path d="m 600.42873,622.24839 c -21.35025,15.85502 -45.5268,27.29415 -69.39089,38.76688 -19.96086,9.34218 -40.1603,18.15356 -60.38292,26.90853 -48.66585,21.07452 -18.86198,89.89842 29.80387,68.8239 v 0 c 21.14687,-9.15992 42.27085,-18.37619 63.13601,-28.16732 30.21503,-14.58956 60.93806,-29.31525 87.09072,-50.66104 39.36531,-35.53691 -10.89148,-91.20787 -50.25679,-55.67095 z"/>
<path d="m 394.49207,728.26617 c 15.27037,3.58292 29.12871,11.12173 42.80081,18.53496 35.29962,19.54593 69.78416,40.49218 104.02516,61.82281 20.87318,13.2616 41.89463,26.31539 63.49299,38.37198 10.50402,5.86353 15.56507,8.43411 26.03651,13.92393 18.3808,9.34294 36.70189,18.81557 55.29661,27.72848 14.37826,6.49794 29.15309,12.32048 44.50315,16.10254 4.07032,1.00288 8.19091,1.78943 12.28637,2.68414 41.03227,7.52286 82.82466,3.33533 124.00876,-0.41278 52.813,-4.82562 45.98854,-79.51448 -6.82447,-74.68886 v 0 c -33.67733,3.09025 -67.88432,7.04892 -101.54906,1.74948 -2.67833,-0.54914 -5.37301,-1.02379 -8.03497,-1.64741 -11.05487,-2.58986 -21.64403,-6.84716 -31.99849,-11.4318 -17.79081,-8.5094 -35.29496,-17.60611 -52.88488,-26.51985 -9.34488,-4.89123 -14.3408,-7.43221 -23.67374,-12.63159 -20.76571,-11.56858 -40.94514,-24.1501 -61.00653,-36.88908 -35.60906,-22.17666 -71.47539,-43.94868 -108.20105,-64.24094 -5.37105,-2.86157 -10.66777,-5.86724 -16.11314,-8.58473 -16.2122,-8.0906 -33.3366,-14.75127 -51.19675,-18.06508 -52.46293,-7.75504 -63.43022,66.43876 -10.96728,74.1938 z"/>
<path d="m 367.1375,331.43517 c 20.4357,-2.00738 40.77243,-4.85678 61.0788,-7.87668 29.78167,-4.85769 59.81288,-7.54964 89.9389,-8.8872 14.65529,-0.81549 29.24893,0.43994 43.76901,2.27075 52.6269,6.55057 61.8908,-67.8751 9.2639,-74.42567 v 0 c -18.71392,-2.30536 -37.53152,-3.77036 -56.40543,-2.76922 -13.84334,0.63073 -17.53944,0.69267 -31.65385,1.79045 -22.08313,1.71758 -44.05985,4.5422 -65.95822,7.83874 -19.03058,2.83734 -38.08963,5.51494 -57.24148,7.40604 -52.78749,5.09709 -45.57912,79.74988 7.20837,74.65279 z"/>
</svg>
