<?xml version="1.0" ?>
<svg xmlns="http://www.w3.org/2000/svg" width="1000" height="1000">
<path d="m 112.24121,173.88847 c 4.84184,20.48189 5.80888,41.64232 7.07145,62.57033 0.28713,7.99148 0.63832,15.98091 0.8614,23.97444 0.45648,16.357 0.848,44.40179 1.13442,60.24234 0.69752,38.57576 1.46765,77.14696 2.03319,115.72511 0.90156,87.64892 -0.0565,175.30246 -0.93983,262.94734 -0.71462,50.00327 -0.49326,100.03229 -2.27309,150.01623 -0.8942,25.11225 -1.46276,31.99435 -2.94845,56.06676 -3.256,52.93296 71.60251,57.53764 74.85851,4.60468 v 0 c 1.55234,-25.31726 2.12788,-32.24737 3.06245,-58.64127 1.78493,-50.40895 1.58644,-100.86224 2.29678,-151.29063 0.88938,-88.26346 1.8513,-176.53568 0.93556,-264.80316 -0.56706,-38.63322 -1.3371,-77.2595 -2.03579,-115.89032 -0.29779,-16.46452 -0.69079,-44.84998 -1.17342,-61.70617 -0.24662,-8.61345 -0.6348,-17.22227 -0.9522,-25.8334 -1.54564,-24.87141 -2.93748,-49.95565 -8.72465,-74.2867 -11.52897,-51.76468 -84.73529,-35.46026 -73.20633,16.30442 z"/>
<path d="m 167.52543,201.83668 c 19.79051,-0.60336 39.53431,-2.31261 59.25259,-4.0413 36.12589,-3.38754 72.22004,-7.12699 108.42485,-9.57894 19.94101,-0.94212 39.96389,-2.23597 59.92502,-1.08185 1.12976,0.7388 3.51737,-0.0879 4.77498,0.7577 0.19655,0.13216 -0.47391,-0.0416 -0.70352,-0.0997 -2.33106,-0.58974 -2.37308,-0.7354 -4.85471,-1.78303 -7.75812,-4.04526 -11.93626,-9.78333 -15.14146,-17.89324 1.33371,15.06159 1.5283,30.20993 1.71368,45.326 0.0783,33.48416 -0.42179,66.96237 -1.33585,100.43285 -0.9419,22.99183 -0.74217,46.1083 -3.81115,68.96255 -1.69727,12.63923 -2.57187,14.88494 -5.52955,27.03937 -4.96659,15.51359 -2.33319,8.01375 -7.84211,22.51982 -18.57586,49.67331 51.67281,75.94354 70.24867,26.27023 v 0 c 7.43382,-20.1063 3.86399,-9.60195 10.5862,-31.55469 3.9119,-16.93825 4.91347,-19.38815 7.15545,-36.72124 3.19413,-24.69426 3.24511,-49.63292 4.16462,-74.47146 0.93869,-34.46763 1.45467,-68.9436 1.35773,-103.42524 -0.26728,-20.58896 -0.1915,-41.38411 -3.74191,-61.7274 -0.85282,-2.83114 -1.42826,-5.76115 -2.55845,-8.49342 -4.12059,-9.96162 -11.37249,-17.68729 -20.73081,-22.83987 -1.64965,-0.76505 -3.26329,-1.61312 -4.94897,-2.29514 -7.86464,-3.18202 -16.41149,-4.19526 -24.79308,-4.89685 -23.00292,-1.16701 -46.04721,-0.1421 -69.02507,1.14752 -36.69425,2.50657 -73.28304,6.22887 -109.89625,9.69359 -17.54002,1.54337 -35.09465,3.02819 -52.6909,3.75371 -53.03301,0 -53.03301,75 0,75 z"/>
<path d="m 206.15972,339.84462 c 17.25041,-3.33753 34.72649,-5.34298 52.1885,-7.23608 35.25399,-3.57083 70.69331,-4.14428 106.09589,-4.13716 12.10376,0.0419 24.20662,0.19412 36.30933,0.34685 53.02879,0.66868 53.97445,-74.32536 0.94565,-74.99404 v 0 c -12.41595,-0.15645 -24.83207,-0.31199 -37.2491,-0.35281 -38.11635,10e-4 -76.2706,0.68823 -114.22178,4.57802 -21.6488,2.36747 -43.37624,4.77422 -64.63004,9.66879 -51.00109,14.53921 -30.43955,86.66564 20.56155,72.12643 z"/>
<path d="m 191.3985,460.66658 c 10.18469,-0.98306 20.36193,-2.03543 30.55147,-2.97329 33.38532,-2.92169 66.8602,-4.64614 100.31514,-6.54154 20.50302,-1.18925 41.01978,-2.09655 61.53774,-2.97692 52.98418,-2.2752 49.76657,-77.20614 -3.21761,-74.93095 v 0 c -20.8596,0.89643 -41.71805,1.81883 -62.56251,3.02795 -34.3371,1.94541 -68.69414,3.72354 -102.95851,6.73821 -11.42393,1.05497 -22.84426,2.17138 -34.2493,3.40704 -52.50232,7.48372 -41.91874,81.73322 10.58358,74.2495 z"/>
<path d="m 504.20359,166.92712 c 4.03801,19.17509 6.95846,38.58685 10.02964,57.93739 4.8413,31.95432 9.64871,63.94988 12.59808,96.14735 0.56175,6.13242 0.95516,12.2791 1.43273,18.41865 1.25054,20.09677 1.25698,40.33576 -1.45538,60.31969 -0.44927,3.31008 -1.10021,6.58964 -1.65031,9.88446 -8.44404,52.35646 65.59917,64.29813 74.04321,11.94168 v 0 c 0.72996,-4.64208 1.59524,-9.26489 2.18988,-13.92623 3.13358,-24.56409 3.24588,-49.40444 1.64263,-74.08838 -0.53753,-6.79325 -0.98676,-13.59407 -1.61259,-20.37976 -3.09073,-33.51177 -8.06663,-66.81854 -13.1161,-100.07827 -3.46649,-21.82441 -6.69479,-43.74391 -11.58171,-65.30347 -13.52474,-51.279439 -86.04483,-32.15256 -72.52008,19.12689 z"/>
<path d="m 582.22067,199.40728 c 22.28753,-3.35283 44.34643,-8.07997 66.4787,-12.31227 33.15946,-6.25906 66.55832,-11.19614 100.16636,-14.24005 13.40986,-1.02108 26.90581,-1.61162 40.29599,-0.1076 0.74733,0.10111 3.08782,0.40582 3.97255,0.56441 0.0723,0.013 -0.14865,0.0255 -0.22007,0.009 -1.32733,-0.31566 -2.74803,-0.39341 -3.96789,-1.00448 -4.11343,-2.06058 -8.40281,-3.99119 -11.92153,-6.95514 -2.96872,-2.50066 -4.80015,-6.10122 -7.20023,-9.15184 -0.38031,-0.70023 -0.76409,-2.80283 -1.14093,-2.10071 -0.51633,0.96201 0.3635,2.15321 0.53393,3.23165 0.37639,2.38168 0.76683,4.76139 1.10649,7.14858 1.90115,13.3616 3.28956,26.78675 4.7546,40.20086 5.49519,46.8608 8.45932,93.9469 11.07569,141.03856 3.20958,61.17098 3.53092,122.43666 3.79345,183.67519 0.011,57.85684 -0.0264,115.71323 -0.43718,173.56878 -0.13135,45.35918 -0.29781,90.71606 -1.25075,136.06641 -0.963,20.9066 -0.741,42.08568 -4.47472,62.76131 -0.37907,2.09911 -0.9109,4.16774 -1.36635,6.25161 -0.54488,1.5885 -0.98405,3.95133 -2.30561,5.32326 -0.1283,0.13319 -0.59513,0.29716 -0.54162,0.12014 1.15132,-3.80912 4.79993,-6.1867 7.6004,-8.75919 -1.2055,-0.28317 -2.40227,-0.60644 -3.6165,-0.8495 -10.55209,-2.1123 -12.36602,-1.88462 -23.77017,-5.48626 -19.70926,-6.22456 -38.13006,-15.41069 -56.63161,-24.47359 -47.66775,-23.24405 -80.5398,44.16833 -32.87205,67.41237 v 0 c 7.52686,3.65589 14.96576,7.49871 22.58059,10.96766 22.31347,10.16495 45.15145,19.19011 69.32145,23.84418 6.41134,1.23454 12.88338,2.29059 19.39903,2.70969 6.19316,0.39835 12.41066,-0.17634 18.61598,-0.26451 6.01541,-1.56455 12.34267,-2.22333 18.04621,-4.69364 17.83016,-7.72256 28.40794,-22.55684 34.62892,-40.24787 1.18874,-3.38051 1.98243,-6.88721 2.97365,-10.33082 0.71218,-3.53019 1.52785,-7.04108 2.13654,-10.59058 4.08126,-23.79916 4.35162,-48.06159 5.25936,-72.12145 0.95685,-45.6973 1.13831,-91.401 1.26536,-137.10721 0.41206,-58.14027 0.45133,-116.28138 0.43838,-174.42296 -0.26908,-62.51972 -0.61673,-125.06672 -3.90843,-187.51673 -2.6944,-48.42236 -5.76315,-96.83764 -11.40401,-145.02354 -1.59968,-14.62589 -3.09254,-29.27459 -5.24174,-43.83364 -0.70333,-4.76446 -2.1813,-14.13791 -3.52934,-18.97166 -0.91479,-3.28022 -2.18598,-6.45044 -3.27897,-9.67565 -3.06301,-4.44787 -5.29232,-9.60446 -9.18904,-13.3436 -9.29784,-8.92184 -19.45689,-11.239773 -31.2973,-12.547493 -18.30881,-1.886885 -36.72497,-1.576624 -55.05709,-0.0024 -36.03944,3.318563 -71.87155,8.511603 -107.43075,15.264123 -20.30932,3.88491 -40.55929,8.13157 -60.96768,11.46921 -52.685,6.06552 -44.10707,80.57337 8.57793,74.50785 z"/>
<path d="m 584.87419,321.26897 c 1.88247,-0.24213 3.7701,-0.44706 5.6474,-0.72639 7.98658,-1.18838 15.90649,-2.77416 23.90125,-3.92855 11.38317,-1.64366 15.38621,-2.01162 27.23453,-3.37773 34.62298,-3.47385 69.43283,-4.66452 104.21444,-4.77751 12.25227,-0.12557 24.44582,0.91171 36.61825,2.13719 52.77939,5.18028 60.10542,-69.46106 7.32602,-74.64134 v 0 c -14.70359,-1.41395 -29.42942,-2.64224 -44.22132,-2.49534 -37.56981,0.15412 -75.16986,1.43932 -112.56188,5.27453 -17.84089,2.07279 -35.99539,4.20282 -53.49027,7.72489 -52.89884,3.77 -47.56725,78.58025 5.33158,74.81025 z"/>
<path d="m 587.4021,440.3324 c 17.94161,-3.12106 35.92967,-5.90784 53.96707,-8.41372 27.26778,-3.52258 54.70102,-6.20664 82.21185,-6.62912 5.40676,-0.083 10.81474,0.0319 16.22212,0.0478 13.81976,0.35094 27.66013,1.10062 41.33155,3.25351 6.9347,1.09203 9.71132,1.88676 16.20582,3.46141 51.61628,12.17617 68.83599,-60.82027 17.21971,-72.99645 v 0 c -10.00787,-2.31735 -13.31574,-3.26771 -23.98622,-4.86858 -16.76861,-2.51578 -33.72063,-3.48698 -50.65835,-3.84981 -6.29156,-0.002 -12.58404,-0.11255 -18.87468,-0.005 -30.11855,0.51562 -60.15401,3.42507 -90.00666,7.30157 -18.24668,2.54198 -36.4541,5.31201 -54.59939,8.50444 -52.46294,7.75497 -41.49577,81.94877 10.96718,74.19381 z"/>
<path d="m 367.82259,579.87483 c 16.48828,-5.11053 33.73619,-7.54074 50.75655,-10.1578 33.87203,-4.5268 68.03783,-6.66356 102.19975,-7.07741 6.69867,-0.0811 13.39832,-0.0123 20.09749,-0.0184 15.59767,0.0729 31.164,1.04783 46.72282,2.03322 52.92804,3.33497 57.6444,-71.51659 4.71635,-74.85156 v 0 c -17.16336,-1.07634 -34.33579,-2.12237 -51.54139,-2.18159 -7.24549,0.0129 -14.49159,-0.0557 -21.73649,0.0386 -37.42015,0.48687 -74.84211,2.89135 -111.93314,7.94017 -21.15511,3.29481 -42.52194,6.49961 -62.95123,13.10766 -50.32278,16.73671 -26.6535,87.90388 23.66929,71.16717 z"/>
<path d="m 292.77676,733.97031 c 30.86697,-2.83936 61.68933,-6.11308 92.56725,-8.85938 39.09426,-3.15309 78.25132,-5.76564 117.4642,-6.84697 26.66585,-0.73534 33.72813,-0.524 60.25364,-0.46443 32.88704,0.10845 65.64983,2.85019 98.3471,6.07833 52.77823,5.19208 60.12096,-69.44761 7.34272,-74.6397 v 0 c -35.0893,-3.44036 -70.24973,-6.33772 -105.53968,-6.43848 -27.96603,-0.0495 -35.12336,-0.26742 -63.23884,0.51788 -40.4857,1.13081 -80.91435,3.82329 -121.27738,7.08861 -30.32133,2.69996 -60.59358,5.85803 -90.89678,8.72951 -52.91608,3.51982 -47.93831,78.35445 4.97777,74.83463 z"/>
<path d="m 376.18623,563.31929 c -0.14388,16.66173 0.4321,33.36711 -0.88095,49.99984 -0.47245,5.98463 -1.31202,11.93459 -1.96803,17.90189 -6.13979,37.51549 -15.90537,74.64926 -31.86318,109.26526 -3.11,6.74629 -6.745,13.23794 -10.1175,19.85691 -14.35697,22.7602 -7.01055,11.88293 -21.94333,32.69638 -30.74476,43.21179 30.36595,86.69146 61.11071,43.47966 v 0 c 18.78547,-26.58026 9.4421,-12.47933 27.81808,-42.44254 4.15117,-8.32097 8.60955,-16.49564 12.45351,-24.96291 18.71209,-41.21797 30.23895,-85.36584 37.12472,-129.99496 0.77131,-7.51159 1.74602,-15.00507 2.31392,-22.53477 1.33669,-17.72288 0.83413,-35.51302 0.95205,-53.26476 0,-53.03301 -75,-53.03301 -75,0 z"/>
<path d="m 495.40765,552.1911 c 1.25371,22.75367 1.54016,45.53245 1.66855,68.31544 0.29721,52.68404 -1.28071,105.35339 -2.89736,158.00598 -1.16227,43.27251 -2.95026,86.51791 -5.87438,129.70696 -3.57262,52.91254 71.257,57.96499 74.82962,5.05245 v 0 c 2.97021,-44.1063 4.83307,-88.26729 6.00946,-132.45846 1.64352,-53.56357 3.23867,-107.1442 2.93141,-160.7397 -0.13352,-22.63341 -0.2755,-45.28412 -1.6673,-67.88267 0,-53.03301 -75,-53.03301 -75,0 z"/>
</svg>
