<?xml version="1.0" ?>
<svg xmlns="http://www.w3.org/2000/svg" width="1000" height="1000">
<path d="m 89.044987,224.44994 c 20.923593,-3.427 41.312913,-9.39884 61.954983,-14.13193 6.80129,-1.55949 13.63196,-2.98791 20.44794,-4.48187 31.17365,-6.61555 62.64219,-11.8636 94.35034,-15.11818 19.16232,-1.96685 25.54994,-2.16554 44.45125,-3.31405 25.29489,-1.13385 50.73409,-1.62407 75.94486,1.12331 1.24459,0.19416 2.49451,0.3568 3.73377,0.58249 0.56594,0.10306 2.21422,0.62028 1.65163,0.50029 -1.30928,-0.27926 -3.49456,-1.02647 -4.46633,-1.667 -2.88838,-1.90384 -5.57384,-4.099 -8.36075,-6.14849 -8.30923,-12.93955 -8.12926,-9.34202 -9.93378,-23.51386 -0.17678,-1.38834 0.65671,-2.87977 0.17791,-4.19487 -0.24752,-0.67983 -0.68973,1.2726 -1.00472,1.92391 -6.81952,14.10061 1.85573,-3.25286 -7.38481,15.01356 -9.88667,18.1093 -21.31474,35.37109 -33.80168,51.78897 -5.52415,7.26317 -18.5843,23.37515 -24.18755,30.33267 -13.70173,17.882 -29.44393,33.97141 -45.42239,49.78491 -37.66536,37.3339 15.13276,90.60077 52.79812,53.26686 v 0 c 17.94116,-17.80758 35.57425,-35.96422 51.04213,-56.01611 7.1975,-8.9413 19.54984,-24.15155 26.39186,-33.21006 14.89743,-19.72352 28.50875,-40.46403 40.18716,-62.25785 8.88737,-17.76287 21.3174,-39.20119 14.15446,-59.8045 -1.88837,-5.43165 -5.82698,-9.91571 -8.74047,-14.87356 -3.3766,-2.66784 -6.57752,-5.5745 -10.12979,-8.00352 -1.65961,-1.13484 -3.57388,-1.85188 -5.4262,-2.63359 -7.43362,-3.1371 -15.47189,-4.42266 -23.41652,-5.45703 -29.36511,-3.02169 -58.94063,-2.91039 -88.40192,-1.39564 -20.72237,1.28372 -27.62674,1.50294 -48.65069,3.69056 -34.15528,3.55398 -68.05802,9.20601 -101.64039,16.34583 -7.30889,1.60742 -14.63277,3.14816 -21.92668,4.82227 -18.21941,4.18173 -36.222235,9.35831 -54.617116,12.7468 -52.537804,7.23043 -42.312431,81.53011 10.225373,74.29968 z"/>
<path d="m 270.35174,371.92414 c 9.79899,5.1226 17.18184,13.46157 24.54585,21.49622 12.47634,14.63405 21.17065,31.88388 26.479,50.32215 1.2095,4.20114 2.09012,8.49008 3.13517,12.73512 4.04554,20.102 6.15769,40.73809 3.72662,61.1888 -0.35902,3.02012 -0.96559,6.00563 -1.44838,9.00844 -1.71446,8.17442 -4.22104,16.25996 -8.49326,23.48806 -1.1472,1.94092 -2.438,3.51436 -3.80336,5.28801 0.18143,0.86073 -6.2517,5.33 -3.0518,2.91567 3.33735,-2.16286 7.0812,-3.11211 10.97773,-3.7438 1.08483,-0.17587 2.21785,0.013 3.28864,-0.23441 0.17051,-0.0394 -0.0696,-0.40003 -0.22895,-0.47244 -1.81313,-0.82403 -3.71304,-1.44193 -5.56956,-2.1629 -30.16645,-11.30114 -58.94345,-25.82518 -87.73135,-40.17943 -47.46295,-23.65941 -80.92243,43.46334 -33.45947,67.12276 v 0 c 31.34514,15.62078 62.72094,31.33609 95.59565,43.5541 8.28861,2.90851 13.83331,5.32376 22.50979,6.60989 11.36109,1.68408 22.64048,-0.20554 32.63152,-5.84135 1.50128,-0.93815 3.03668,-1.82381 4.50386,-2.81446 8.31018,-5.61116 15.25523,-13.01807 21.37391,-20.89594 4.48496,-6.374 6.13782,-8.35726 9.99186,-15.49777 7.75675,-14.37114 12.67799,-30.04919 15.64345,-46.06687 1.91016,-13.44637 2.67015,-16.26708 3.129,-30.08335 0.77924,-23.46326 -1.965,-46.87688 -6.92984,-69.7867 -4.22974,-16.09273 -5.01431,-21.12137 -11.23432,-36.60673 -8.64355,-21.51902 -20.80541,-41.41462 -36.06702,-58.87058 -3.02884,-3.23475 -5.97048,-6.55343 -9.08653,-9.70425 -10.04386,-10.15593 -21.13942,-19.32603 -33.72085,-26.17137 -46.247,-25.95603 -82.95436,39.4471 -36.70736,65.40313 z"/>
<path d="m 124.67583,304.94377 c 0.0723,26.00737 -0.25025,52.01305 -0.40054,78.01959 -0.20809,73.81388 -0.91919,147.62438 -1.22849,221.4378 -0.0952,15.51961 -0.18869,31.03924 -0.28567,46.55884 -0.25841,41.35228 -0.43428,53.90191 -0.34398,95.31908 0.10048,46.08213 0.60077,92.16442 0.99532,138.24465 0.11358,13.89801 0.22717,27.79603 0.34076,41.69404 0.43343,53.03124 75.43093,52.41828 74.9975,-0.61296 v 0 c -0.11367,-13.90774 -0.22734,-27.81549 -0.34101,-41.72323 -0.39255,-45.84458 -0.89148,-91.69124 -0.99259,-137.53772 -0.0909,-41.21237 0.085,-53.68975 0.34259,-94.92381 0.0973,-15.56824 0.19095,-31.13649 0.28642,-46.70474 0.30891,-73.77393 1.02036,-147.54496 1.2279,-221.31935 0.15055,-26.15075 0.47505,-52.30062 0.40179,-78.45219 0,-53.033 -75,-53.033 -75,0 z"/>
<path d="m 457.23242,278.93988 c 2.49293,20.40482 3.30561,40.94806 4.15518,61.47164 1.72114,61.63335 0.8705,123.30634 0.0497,184.94744 -1.58404,79.15797 -3.88513,158.2982 -5.41341,237.45759 -0.71917,44.50001 -0.40635,22.66179 -0.94722,65.51456 -0.66891,53.02879 74.32513,53.97477 74.99404,0.94598 v 0 c 0.53589,-42.50863 0.22577,-20.83752 0.93922,-65.01322 1.53035,-79.30926 3.84252,-158.59917 5.42073,-237.90718 0.83757,-63.01356 1.70061,-126.06041 -0.10794,-189.06507 -0.89587,-21.40154 -1.70161,-42.83833 -4.31215,-64.11676 -4.07649,-52.8761 -78.85459,-47.11109 -74.77811,5.76502 z"/>
<path d="m 585.00189,226.2352 c 20.20313,-3.7573 40.11024,-8.93369 60.16833,-13.38082 20.02816,-4.04404 40.23533,-7.38399 60.61584,-9.02352 10.92514,-0.87889 13.66106,-0.78339 24.30065,-0.99806 11.11834,-0.12896 22.20171,0.80052 33.07998,3.07713 0.14921,0.0333 3.05888,0.68154 3.34703,0.75248 0.16472,0.0406 -0.33728,-0.0462 -0.50039,-0.0928 -0.78641,-0.22474 -1.63842,-0.30943 -2.34548,-0.72052 -4.30551,-2.50328 -8.96444,-4.61169 -12.62811,-7.98531 -3.07906,-2.8353 -4.80599,-6.85424 -7.20899,-10.28135 -0.38203,-0.85732 -0.43693,-3.18679 -1.14608,-2.57195 -0.83812,0.72666 0.19865,2.20965 0.28877,3.31525 0.21449,2.63167 0.45948,5.2613 0.62502,7.89651 0.97863,15.5785 1.09541,31.16707 1.27554,46.77006 -0.10415,60.25292 -0.78794,120.50369 -1.11653,180.75611 -0.35961,76.67116 -0.39657,153.34333 -0.43234,230.01518 -0.11122,50.15275 -0.57457,100.32266 -2.62967,150.43962 -0.45048,10.98576 -1.09728,21.96258 -1.64592,32.94386 -2.63754,52.96738 72.26965,56.69743 74.90718,3.73005 v 0 c 0.56623,-11.40754 1.23234,-22.81055 1.69867,-34.2226 2.08083,-50.92215 2.55706,-101.89761 2.66973,-152.85593 0.0357,-76.54721 0.0725,-153.09474 0.43124,-229.64126 0.33081,-60.68436 1.02898,-121.36709 1.11239,-182.05201 -0.21024,-17.38597 -0.33924,-34.76535 -1.53004,-52.11974 -0.34163,-4.97875 -1.20803,-15.3513 -2.2816,-20.51488 -0.71217,-3.42534 -1.83122,-6.75332 -2.74682,-10.12998 -2.90404,-4.65975 -4.88484,-10.04241 -8.71211,-13.97926 -7.68399,-7.90399 -16.36431,-10.93844 -26.39102,-12.92797 -16.39866,-3.31357 -33.07858,-4.84708 -49.82133,-4.58142 -13.34717,0.32942 -16.50153,0.2205 -30.12954,1.35771 -23.3119,1.94529 -46.4336,5.74798 -69.33968,10.42696 -18.74714,4.16655 -37.36884,8.93386 -56.2179,12.61444 -52.31458,8.69966 -40.0114,82.68366 12.30318,73.984 z"/>
<path d="m 532.79605,446.27118 c 18.35762,-3.51709 36.69605,-7.13948 55.22841,-9.64257 5.78339,-0.78114 11.58566,-1.41548 17.37849,-2.12322 26.38123,-2.80409 52.87902,-4.63329 79.40873,-5.09825 15.0054,-0.26298 22.01581,-0.0647 36.77,0.12806 19.61613,0.47341 10.2134,0.24026 28.20825,0.6965 53.01598,1.344 54.91669,-73.63191 1.90071,-74.97591 v 0 c -18.37959,-0.4659 -8.66067,-0.22611 -29.15686,-0.71454 -16.12446,-0.19924 -23.52464,-0.40833 -39.97342,-0.10031 -28.83622,0.53999 -57.63807,2.53301 -86.30946,5.62495 -6.4525,0.79777 -12.91552,1.51465 -19.3575,2.39332 -19.03398,2.5962 -37.892,6.22433 -56.74211,9.88559 -52.27385,8.9412 -39.62909,82.86758 12.64476,73.92638 z"/>
<path d="m 512.91927,634.74727 c 17.09927,-2.18628 34.1727,-4.55272 51.28094,-6.67282 28.60989,-3.37335 57.3719,-5.67808 86.1868,-6.10123 5.8978,-0.0866 11.79688,-0.007 17.69532,-0.0103 28.66712,0.3252 57.23926,2.65814 85.65578,6.32836 3.34591,0.4537 6.69181,0.90739 10.03772,1.36108 52.55269,7.12144 62.62392,-67.19929 10.07123,-74.32072 v 0 c -3.51375,-0.47586 -7.02749,-0.95172 -10.54124,-1.42758 -31.62613,-4.05255 -63.42517,-6.64182 -95.3276,-6.94107 -6.58778,0.0139 -13.17638,-0.0634 -19.76333,0.0417 -31.17407,0.49722 -62.2916,2.97942 -93.24411,6.63982 -16.64326,2.06505 -33.25862,4.32329 -49.88544,6.51303 -52.74291,5.53942 -44.90898,80.12916 7.83393,74.58974 z"/>
<path d="m 376.17896,920.78531 c 19.6402,-3.76775 39.46231,-6.28388 59.33869,-8.40077 47.90575,-4.50185 95.99323,-6.56342 144.06622,-8.24338 57.49284,-1.78828 115.01508,-1.3355 172.4943,0.57213 31.1622,1.15683 62.2756,3.62976 93.21608,7.52353 13.47259,1.69549 22.30139,3.11937 35.55907,5.13551 18.17743,2.8679 9.52268,1.52358 25.96249,4.04434 52.4206,8.03621 63.78551,-66.09771 11.36491,-74.13392 v 0 c -16.26174,-2.49246 -7.57146,-1.1438 -26.06859,-4.06053 -14.57434,-2.20971 -23.37303,-3.63299 -38.26051,-5.49561 -32.95983,-4.12369 -66.10183,-6.74016 -99.29468,-7.97235 -59.1799,-1.95013 -118.40375,-2.42404 -177.59705,-0.56719 -49.86781,1.74876 -99.75099,3.90284 -149.44103,8.62522 -20.73109,2.23774 -41.44246,4.73379 -61.92317,8.72348 -52.50236,7.4835 -41.91908,81.73304 10.58327,74.24954 z"/>
</svg>
