<?xml version="1.0" ?>
<svg xmlns="http://www.w3.org/2000/svg" viewBox="0 0 1000 1000">
<path d="m 115.06882,240.87983 c 25.09605,-4.49598 50.28482,-8.31303 75.56161,-11.63994 32.99584,-4.4046 66.23461,-6.49624 99.50523,-6.89991 7.10181,0.052 14.22748,0.0543 21.30283,0.76705 0.91538,0.0922 1.82761,0.21974 2.73454,0.3744 0.29848,0.0509 1.17445,0.19174 0.87574,0.24126 -0.41252,0.0684 -0.82759,-0.12043 -1.24139,-0.18065 -8.82133,-2.66442 -15.77391,-8.41803 -20.24879,-16.72685 -2.1286,-3.9523 -2.99185,-8.49993 -3.83965,-12.90821 0.0733,-6.89613 0.60653,-4.5234 -0.0794,-7.29532 -10.22095,23.2063 -24.71024,44.19614 -38.39794,65.43523 -13.87583,21.73409 -28.74041,42.80836 -43.24324,64.12248 -29.83185,43.84701 32.17719,86.03562 62.00904,42.18861 v 0 c 14.85262,-21.83279 30.07401,-43.42109 44.27949,-65.68732 17.22498,-26.73597 35.48739,-53.31737 46.79818,-83.24374 1.93332,-6.87638 4.30873,-13.10654 3.46695,-20.52087 -0.61633,-5.42858 -1.64445,-10.97407 -4.03858,-15.88503 -4.69277,-9.62603 -10.63192,-14.28372 -19.42086,-19.02192 -2.0625,-1.11191 -4.37078,-1.69035 -6.55617,-2.53553 -1.8992,-0.48741 -3.78078,-1.04953 -5.6976,-1.46221 -12.99377,-2.79749 -26.46623,-2.37037 -39.66116,-2.65526 -36.22744,0.48343 -72.4217,2.72664 -108.35026,7.53721 -25.53381,3.37161 -50.99888,7.14093 -76.34182,11.74697 -52.502359,7.48349 -41.919112,81.73303 10.58324,74.24955 z"/>
<path d="m 214.76589,377.78519 c 1.38584,1.03168 2.73946,2.10811 4.15753,3.09502 5.36358,3.73281 10.986,6.9718 15.93994,11.27386 4.89647,4.25215 6.80237,6.56012 11.4306,11.4796 10.11354,11.75461 19.08545,24.79032 24.03754,39.62785 3.66156,10.97081 3.50331,14.79866 4.91648,26.43693 0.008,5.1404 0.26758,10.28662 0.0229,15.4212 -1.12623,23.63392 -6.33263,47.23594 -13.22083,69.80321 -1.65441,5.42019 -3.57761,10.75466 -5.36641,16.13198 -6.89571,19.65638 -15.91863,38.44126 -26.38741,56.41953 -1.02702,1.6637 -2.15284,3.56923 -3.3027,5.19894 -0.079,0.11192 -0.3631,0.408 -0.28686,0.29421 1.206,-1.79991 3.42275,-4.29546 4.90272,-5.19221 4.33184,-2.62477 9.06593,-4.51951 13.5989,-6.77926 4.15656,-0.24951 8.31312,-0.49901 12.46967,-0.74851 0.50163,0.0281 1.84776,0.45151 1.50488,0.0843 -0.66093,-0.70785 -1.73719,-0.85677 -2.61269,-1.27076 -2.42783,-1.14801 -4.8634,-2.27962 -7.29709,-3.41516 -21.35782,-9.96536 -1.23082,-0.5346 -25.71593,-12.02926 -17.19898,-8.70634 -35.19345,-16.88955 -51.64135,-26.97106 -5.2027,-3.18892 -10.09547,-6.8579 -15.1432,-10.28686 -44.07815,-29.48927 -85.782271,32.84665 -41.70412,62.33592 v 0 c 6.82054,4.51119 13.47662,9.28148 20.46163,13.53357 6.38526,3.88699 13.02687,7.33872 19.61826,10.86486 13.8406,7.40417 22.63077,11.58268 36.53776,18.41494 13.12693,6.16215 13.73529,6.46582 25.95644,12.14165 5.05805,2.34909 12.84399,6.11221 18.22795,7.96705 2.93336,1.01057 5.87176,2.21855 8.95942,2.52215 5.60046,0.55067 11.25494,0.0125 16.8824,0.0188 5.39049,-2.45319 11.04364,-4.3963 16.17145,-7.35959 2.31089,-1.33543 4.03808,-3.49965 5.91076,-5.40139 4.6592,-4.73149 7.83008,-10.74047 11.37009,-16.27798 13.01814,-22.49263 24.24409,-45.98533 32.74751,-70.57972 2.14469,-6.55316 4.4573,-13.05373 6.43407,-19.65948 8.70945,-29.10432 15.29174,-60.84082 15.90921,-91.2832 0.1672,-8.24329 -0.52844,-16.48151 -0.79266,-24.72226 -1.27244,-7.94334 -2.02538,-15.98752 -3.81731,-23.83002 -7.19548,-31.49144 -23.86076,-59.48038 -45.24486,-83.34752 -3.31376,-3.40846 -6.5131,-6.93204 -9.94128,-10.2254 -8.67847,-8.33716 -18.244,-15.61574 -28.46278,-21.94621 -41.19628,-33.3971 -88.42692,24.86324 -47.23063,58.26034 z"/>
<path d="m 86.276307,307.44207 c 0.256671,25.18294 0.7273,50.36542 1.132825,75.5469 1.424324,69.83349 2.608223,139.67183 3.212889,209.51735 0.132085,82.52216 -1.441766,165.03751 -3.063518,247.54059 -0.553352,30.7915 -1.651967,61.5665 -2.852757,92.33783 -2.065478,52.99277 72.877614,55.91379 74.943094,2.92102 v 0 c 1.21675,-31.25372 2.33334,-62.51107 2.89518,-93.78517 1.635,-83.21103 3.2211,-166.43448 3.07518,-249.66478 -0.6086,-70.03123 -1.78934,-140.05536 -3.21979,-210.07451 -0.39906,-24.77896 -0.85809,-49.55901 -1.1231,-74.33923 0,-53.03301 -75.000003,-53.03301 -75.000003,0 z"/>
<path d="m 542.78354,76.440929 c -0.0139,-0.190016 0.0656,-0.727529 -0.0417,-0.570047 -0.83472,1.225877 -1.48965,2.565318 -2.20249,3.865858 -1.7909,3.267424 -3.48861,6.585814 -5.3083,9.837291 -2.43369,4.348602 -4.90935,8.674355 -7.45071,12.960929 -8.15155,13.74942 -15.75283,25.75043 -24.28481,39.44445 -34.73838,54.67868 -73.13608,106.8835 -110.73379,159.59618 -5.09928,7.16263 -10.19855,14.32526 -15.29783,21.48789 -30.7573,43.20288 30.3408,86.70027 61.0981,43.49739 v 0 c 5.08671,-7.14501 10.17343,-14.29001 15.26015,-21.43502 38.50267,-53.98527 77.80871,-107.46217 113.33365,-163.49333 11.62188,-18.66268 23.34588,-37.24907 34.07976,-56.44383 1.26491,-2.26197 8.97982,-16.59611 10.25221,-19.33455 1.18229,-2.54451 2.07964,-5.21196 3.11945,-7.817938 15.27017,-50.787027 -56.55353,-72.3823 -71.8237,-21.595273 z"/>
<path d="m 629.53236,191.86269 c 13.63594,1.67404 27.41473,1.64904 41.12767,2.18832 11.06816,0.57618 22.08377,1.98919 32.92527,4.2831 1.15051,0.28868 3.23648,0.80021 4.41259,1.13889 0.22856,0.0658 0.90478,0.28969 0.67246,0.23869 -6.22225,-1.36592 -11.04745,-7.26593 -15.41973,-10.91305 -2.58333,-6.88169 -6.26428,-13.44619 -7.75,-20.64507 -0.73396,-3.55633 0.8675,-7.21076 1.25594,-10.82121 0.0219,-0.2038 0.0875,-0.78534 -0.0256,-0.61441 -0.88734,1.34054 -1.55249,2.81577 -2.35396,4.20935 -3.62044,6.29513 -6.83684,11.61021 -10.62953,17.96571 -19.78411,33.09209 -41.76499,64.86596 -65.30921,95.39006 -6.86028,8.89407 -13.93383,17.62157 -20.90074,26.43236 -23.20291,29.60965 -47.85892,58.01455 -72.93192,86.04077 -19.23795,21.50389 -33.14945,36.86747 -53.01961,57.71667 -8.5327,8.95312 -17.24346,17.73485 -25.86518,26.60227 -26.92312,27.86609 -55.16907,54.38605 -83.94684,80.31238 -39.39228,35.50703 10.82223,91.21611 50.21451,55.70909 v 0 c 29.99161,-27.04645 59.44437,-54.6943 87.51511,-83.74899 8.95808,-9.22031 18.00803,-18.35225 26.87424,-27.66094 20.13775,-21.14277 34.90091,-37.42277 54.36748,-59.19786 26.00037,-29.08374 51.56145,-58.56573 75.63959,-89.27624 7.35785,-9.31881 14.83098,-18.54774 22.07354,-27.95643 25.11856,-32.6311 48.56632,-66.59057 69.69931,-101.94028 5.34082,-8.95624 11.08758,-17.8702 15.73836,-27.22365 3.39279,-6.82343 7.55226,-15.94874 6.58558,-23.62433 -1.02889,-8.16965 -5.20847,-15.62302 -7.81271,-23.43453 -4.05779,-3.58373 -7.86477,-7.47328 -12.17338,-10.7512 -1.61687,-1.23009 -3.61262,-1.86634 -5.47589,-2.67605 -5.18015,-2.25112 -10.77379,-3.36236 -16.22501,-4.71365 -14.89907,-3.04407 -29.99315,-5.09384 -45.19555,-5.78384 -10.79824,-0.42239 -21.61464,-0.57452 -32.39519,-1.33219 -52.3869,-8.25305 -64.05848,65.83321 -11.67158,74.08626 z"/>
<path d="m 515.73094,312.90379 c 14.88511,11.43163 30.96688,21.19054 46.50317,31.6929 5.58169,3.77317 11.11586,7.61616 16.67379,11.42424 38.76484,26.86169 74.72466,57.42516 109.87955,88.78103 21.21772,18.41443 40.52007,38.93536 61.67866,57.40783 3.36458,2.93743 6.84563,5.73873 10.26845,8.60809 18.4308,15.11351 39.68186,26.0243 61.67174,34.95169 5.45511,2.21465 10.99262,4.22066 16.48892,6.33098 26.40292,9.72397 53.52805,17.27207 80.50532,25.19384 50.88458,14.94187 72.01557,-57.0198 21.13099,-71.96167 v 0 c -25.07498,-7.36298 -50.29798,-14.3426 -74.86936,-23.29307 -19.91451,-7.56296 -40.15712,-15.22323 -56.88171,-28.81162 -2.64648,-2.19412 -5.34582,-4.326 -7.93945,-6.58235 -6.50163,-5.65613 -13.53827,-12.4102 -19.74079,-18.29526 -14.01792,-13.30043 -28.00502,-26.63591 -42.40188,-39.52974 -14.63379,-13.0418 -21.57196,-19.39294 -36.70445,-32.17718 -25.99756,-21.96325 -52.79879,-43.00781 -80.70496,-62.50026 -5.83582,-3.99569 -11.64748,-8.02688 -17.50745,-11.98705 -13.33867,-9.01428 -27.02369,-17.52474 -40.10008,-26.92174 -40.77838,-33.9061 -88.72884,23.76324 -47.95046,57.66934 z"/>
<path d="m 507.44278,608.75707 c 25.22968,-3.79235 50.61308,-6.49612 75.96669,-9.3059 28.70799,-3.05722 57.57443,-5.1796 86.46413,-4.98563 14.35659,0.0964 18.24506,0.58827 31.92072,1.59072 52.89998,3.75403 58.20897,-71.05783 5.309,-74.81186 v 0 c -16.76227,-1.15741 -20.80157,-1.68489 -38.30554,-1.77115 -31.29115,-0.15419 -62.55611,2.124 -93.65186,5.43455 -26.30174,2.91652 -52.63215,5.73483 -78.8046,9.67544 -52.44882,7.84991 -41.34736,82.02375 11.10146,74.17383 z"/>
<path d="m 497.97449,608.95892 c -1.41303,22.19134 -5.47898,44.0616 -9.63903,65.86557 -4.7284,23.26825 -2.346,11.871 -7.13281,34.19476 -11.11223,51.85575 62.22286,67.57082 73.3351,15.71507 v 0 c 5.01476,-23.41575 2.51756,-11.45313 7.4759,-35.89111 4.80278,-25.30561 9.39476,-50.71111 10.88313,-76.47113 2.41348,-52.97806 -72.50882,-56.39123 -74.92229,-3.41316 z"/>
<path d="m 345.49144,808.10796 c 31.25196,-8.55324 63.29998,-13.39253 95.28521,-18.22826 60.50157,-8.37172 121.29479,-14.86893 182.25739,-18.74427 12.53,-0.79653 25.07448,-1.34577 37.61172,-2.01865 51.39426,-2.22727 102.90974,-1.81262 154.25663,1.3443 7.30239,0.44897 14.59434,1.05411 21.89152,1.58116 5.95644,0.50833 11.91288,1.01667 17.86932,1.525 52.84175,4.49993 59.20561,-70.22959 6.36386,-74.72952 v 0 c -6.28508,-0.53414 -12.57017,-1.06828 -18.85525,-1.60242 -7.79085,-0.55763 -15.57626,-1.1974 -23.37255,-1.67291 -53.98822,-3.29281 -108.1516,-3.70331 -162.18701,-1.33707 -13.02031,0.70359 -26.04813,1.27979 -39.06093,2.11077 -62.88747,4.01593 -125.60071,10.72537 -188.01006,19.38994 -34.30757,5.20875 -68.66865,10.48216 -102.20198,19.61174 -51.45629,12.83549 -33.30416,85.60568 18.15213,72.77019 z"/>
<path d="m 625.05281,485.13263 c -0.0416,30.67731 0.51151,61.35176 0.87559,92.026 0.48687,72.92697 0.1998,145.86255 -0.70028,218.78523 -0.98697,31.7183 -0.91729,43.61369 -3.62438,75.08858 -1.0256,11.92448 -2.54462,23.80138 -3.81693,35.70206 -5.59256,52.73731 68.98925,60.64639 74.58181,7.90908 v 0 c 1.35862,-12.90863 2.9797,-25.79233 4.07584,-38.72589 2.81096,-33.16691 2.75583,-45.843 3.77797,-79.05021 0.90359,-73.52732 1.19895,-147.0675 0.70068,-220.59909 -0.36065,-30.3775 -0.91001,-60.75523 -0.8703,-91.13576 0,-53.033 -75,-53.033 -75,0 z"/>
</svg>
