<?xml version="1.0" ?>
<svg xmlns="http://www.w3.org/2000/svg" viewBox="0 0 1000 1000">
<path d="m 96.387953,196.93139 c 15.475477,-6.05314 31.350767,-11.06221 47.476947,-15.07742 5.8059,-1.44559 11.66252,-2.67924 17.49378,-4.01886 42.95243,-8.93009 86.70722,-12.91205 130.39874,-16.06928 26.65341,-1.62897 53.33585,-2.76803 80.03118,-3.40089 2.10527,-0.0387 5.31427,-0.15033 7.62338,-0.0556 0.0802,0.003 0.30612,0.0918 0.22639,0.0823 -1.67751,-0.19985 -3.4836,0.0357 -5.02572,-0.65408 -5.74028,-2.56764 -13.11244,-3.75925 -16.57545,-9.00818 -6.27273,-9.50763 -7.17643,-21.62099 -10.76465,-32.43148 1.68098,-4.37067 3.36197,-8.74133 5.04295,-13.11199 0.0151,-0.12117 0.13054,-0.45097 0.0454,-0.36349 -8.30941,8.53382 -14.83904,18.79441 -21.53064,28.57281 -2.54524,3.74002 -5.10547,7.46987 -7.63573,11.22004 -8.33809,12.35815 -10.11739,15.36061 -18.92876,27.74475 -11.88981,16.71081 -24.24084,33.07947 -36.70345,49.36373 -13.2824,16.80157 -26.17375,33.90398 -39.02393,51.03612 -31.81833,42.42751 28.18323,87.42543 60.00156,44.99793 v 0 c 12.70567,-16.94485 25.4584,-33.85536 38.59542,-50.47034 13.16106,-17.21778 26.20675,-34.51851 38.76089,-52.18773 9.3145,-13.10961 10.7333,-15.58738 19.30225,-28.2884 2.50707,-3.71602 5.04398,-7.41182 7.56598,-11.11774 3.95162,-5.79977 7.75426,-11.86504 12.2793,-17.25813 1.62267,-1.93395 7.54347,-8.22572 8.43937,-9.84998 2.93823,-5.32699 5.02276,-11.08206 7.53414,-16.62309 -3.45018,-11.55548 -3.93509,-24.45493 -10.35053,-34.666438 -3.66826,-5.83881 -11.63829,-7.49108 -17.92079,-10.33328 -2.46927,-1.11709 -5.32197,-1.04842 -8.00958,-1.39756 -4.87133,-0.63283 -9.84686,-0.11024 -14.7312,-0.17891 -27.9098,0.66595 -55.80654,1.85317 -83.67154,3.57605 -47.55387,3.45902 -95.16759,7.90167 -141.88312,17.803668 -6.77529,1.57753 -13.5795,3.03562 -20.32586,4.73258 -17.42856,4.38391 -34.673047,9.70135 -51.406049,16.26581 -50.322764,16.73676 -26.653402,87.9039 23.669362,71.16713 z"/>
<path d="m 240.05976,325.05418 c 8.62281,6.80532 17.20765,13.66041 25.0444,21.37874 2.48346,2.44593 4.87032,4.98804 7.30548,7.48206 11.07739,11.53456 19.82689,24.85645 25.59219,39.79574 4.51959,11.71137 5.16318,16.22346 8.17026,28.62979 5.44227,29.39373 6.99239,59.44091 6.0967,89.29193 -0.17131,5.70916 -0.55579,11.40993 -0.83368,17.11489 -1.81315,21.61085 -4.35817,43.47051 -11.2559,64.14387 -0.85402,2.5596 -1.89679,5.05231 -2.84519,7.57846 -2.26866,5.1646 -4.61772,10.3502 -8.02225,14.88639 -1.38156,1.84079 -2.85475,3.85564 -5.14328,4.50047 -0.75404,-0.0868 -1.50778,0.22742 -2.25833,0.15079 -0.34487,-0.0352 -0.64375,-0.26783 -0.98278,-0.34023 -5.00232,-1.0684 0.31512,0.59693 -7.07197,-1.31669 -2.5421,-0.65853 -5.03691,-1.48771 -7.55537,-2.23156 -15.0553,-5.28335 -29.17758,-12.83779 -43.53122,-19.71275 -7.33646,-3.51394 -14.70314,-6.96444 -22.0547,-10.44666 -47.9296,-22.69919 -80.03111,45.0835 -32.10151,67.78269 v 0 c 7.14916,3.38525 14.31235,6.74102 21.44748,10.15574 19.00127,9.09361 37.74968,18.99893 58.05447,24.98284 14.18959,3.2664 18.77869,5.1776 33.04782,5.34955 17.82348,0.21479 33.7573,-4.89748 48.48107,-14.73289 3.11283,-2.54423 6.39749,-4.89163 9.33849,-7.63267 13.38048,-12.47076 21.92162,-29.05027 28.81921,-45.71655 1.45281,-4.06326 3.03874,-8.08135 4.35843,-12.18977 8.48208,-26.40603 12.107,-54.11293 14.19197,-81.67176 0.30434,-6.6192 0.73284,-13.23385 0.91301,-19.85759 0.98717,-36.29331 -1.16563,-72.80998 -8.37203,-108.43892 -4.72549,-18.21971 -5.69667,-24.63058 -12.92629,-41.99433 -9.41949,-22.62325 -23.13357,-42.98966 -40.06552,-60.65172 -3.19911,-3.23887 -6.33452,-6.54193 -9.59735,-9.71661 -9.01969,-8.77601 -18.73608,-16.76049 -28.62921,-24.52037 -40.9748,-33.66847 -88.5892,24.27866 -47.6144,57.94712 z"/>
<path d="m 96.699053,311.22254 c 2.83362,21.88857 3.26144,43.9953 3.814147,66.02966 0.76993,40.21998 -0.798867,80.42974 -2.065037,120.62125 -1.41181,44.81489 -1.00531,31.65588 -2.21744,77.17721 -1.34808,53.28643 -2.10722,106.59298 -4.42413,159.85075 -1.54367,35.48336 -2.04387,40.06479 -4.37012,75.21155 -2.32119,27.70703 -3.1795,40.54054 -6.27464,67.76031 -1.13059,9.94282 -2.50627,19.85623 -3.75941,29.78435 -6.622969,52.61783 67.789877,61.98413 74.412847,9.36629 v 0 c 1.31975,-10.51281 2.76665,-21.01044 3.95925,-31.53843 3.21026,-28.33937 4.0933,-41.60537 6.49883,-70.42881 2.38902,-36.23209 2.89708,-40.87017 4.48213,-77.38705 2.32289,-53.51538 3.10068,-107.07907 4.44869,-160.62325 1.20874,-45.42439 0.79398,-31.93713 2.20536,-76.76599 1.31064,-41.62892 2.90869,-83.27714 2.07942,-124.93515 -0.64726,-25.12539 -1.21637,-50.33394 -4.62336,-75.27275 -7.88428,-52.44366 -82.050827,-41.29361 -74.166537,11.15006 z"/>
<path d="m 472.459,198.43875 c 27.01838,-13.71192 56.50767,-21.371 85.67631,-28.9707 41.69187,-10.09583 84.14923,-16.88552 126.91458,-20.24073 7.3006,-0.57277 14.61838,-0.9001 21.92757,-1.35014 23.5285,-0.79177 47.33034,-1.67861 70.64218,2.26685 1.06094,0.24227 2.12857,0.45693 3.18282,0.7268 0.57115,0.14621 1.13605,0.31975 1.69033,0.52066 0.0877,0.0318 0.31258,0.18766 0.22064,0.17202 -1.08669,-0.18479 -3.36504,-1.36757 -3.80196,-1.65378 -1.97534,-1.29396 -3.79943,-2.80527 -5.69915,-4.2079 -7.37343,-9.35217 -6.15934,-6.17784 -9.93495,-17.11626 -0.30138,-0.87313 0.0815,-3.40432 -0.53717,-2.71847 -0.7182,0.79613 0.0583,2.14362 0.0889,3.2154 0.14952,5.24398 0.30282,10.48785 0.45358,15.7318 0.78994,29.85883 1.68528,59.72708 1.08031,89.59872 -0.15935,7.86786 -0.47087,15.7319 -0.7063,23.59785 -1.39262,32.76595 -3.56041,65.59212 -9.38723,97.91374 -3.45394,19.15913 -5.36942,25.12729 -10.20701,43.77574 -5.25266,18.7965 -11.20347,37.38578 -17.0324,56.00813 -15.84104,50.61187 55.73495,73.01449 71.57599,22.40262 v 0 c 6.21313,-19.85181 12.55322,-39.66975 18.09136,-59.72481 5.65838,-22.15375 7.68231,-28.39088 11.71755,-51.17248 6.25772,-35.32897 8.72606,-71.18044 10.20888,-106.98288 0.24522,-8.3649 0.57151,-16.72782 0.73567,-25.0947 0.60493,-30.83146 -0.28228,-61.65924 -1.1078,-92.4773 -0.15287,-5.31719 -0.29387,-10.63474 -0.46022,-15.95153 -0.11231,-3.58948 -0.2301,-9.89912 -1.01249,-13.03869 -3.19931,-12.83822 -3.85339,-11.58625 -11.6029,-22.047998 -2.47935,-1.95957 -4.83203,-4.09105 -7.43805,-5.87871 -8.09391,-5.55224 -18.7764,-7.6422 -28.17553,-9.64098 -8.25963,-1.29308 -10.22835,-1.73096 -19.03584,-2.49712 -22.68241,-1.97314 -45.50473,-1.53483 -68.22369,-0.58091 -8.10557,0.51257 -16.2207,0.89144 -24.31671,1.53771 -46.78741,3.7348 -93.23517,11.23451 -138.83598,22.35 -8.40976,2.20885 -16.85869,4.273658 -25.2293,6.626538 -25.05286,7.04209 -49.90247,15.34003 -73.23626,26.96482 -48.0385,22.46781 -16.26422,90.4045 31.77428,67.93669 z"/>
<path d="m 515.50029,332.78293 c 19.56264,-4.99443 39.40638,-8.83959 59.40588,-11.61148 7.00263,-0.97055 14.03237,-1.73422 21.04856,-2.60133 37.88687,-3.84735 76.06591,-5.36111 114.13398,-3.99418 6.07566,0.21816 12.14303,0.62596 18.21455,0.93894 18.67586,1.59378 9.89319,0.6938 26.35786,2.60203 52.68928,6.02824 61.21449,-68.48566 8.52521,-74.51389 v 0 c -19.54012,-2.21128 -9.18102,-1.17921 -31.08748,-2.99203 -6.79996,-0.33926 -13.5955,-0.78345 -20.39989,-1.01776 -41.70075,-1.436 -83.51732,0.24276 -125.00973,4.55142 -7.80286,0.97776 -15.62096,1.8408 -23.40858,2.9333 -22.19354,3.11344 -44.21299,7.41522 -65.93226,12.93474 -51.45634,12.83533 -33.30443,85.60558 18.1519,72.77024 z"/>
<path d="m 509.65821,479.87907 c 15.42699,-2.51253 30.733,-5.72692 46.16447,-8.21356 5.4574,-0.8794 10.9347,-1.63045 16.40206,-2.44567 26.61411,-3.80749 53.45379,-5.66751 80.32799,-6.00219 15.51717,-0.19324 24.75416,0.10092 40.18741,0.39427 22.77728,0.71887 45.58651,1.64433 68.21177,4.48088 52.63742,6.46541 61.78088,-67.97515 9.14346,-74.44056 v 0 c -25.20781,-3.04719 -50.57811,-4.34695 -75.95405,-5.02723 -16.78553,-0.3086 -26.64622,-0.62133 -43.58721,-0.38073 -29.92419,0.42501 -59.80865,2.55031 -89.44091,6.80323 -6.07412,0.91377 -12.15848,1.76188 -18.22236,2.7413 -15.22077,2.45841 -30.32127,5.61171 -45.53564,8.10623 -52.3146,8.69954 -40.01159,82.68357 12.30301,73.98403 z"/>
<path d="m 463.48494,188.40942 c -0.41149,17.81739 -1.66768,35.61612 -2.53793,53.41847 -1.94303,46.17294 -3.12395,92.37536 -4.35919,138.57172 -1.47452,56.40722 -2.63218,112.82219 -4.12319,169.22892 -1.47421,52.36379 -3.76067,104.69996 -5.97665,157.03627 -1.68744,40.03331 -3.95925,80.04312 -4.98588,120.10102 -0.14186,19.59945 -0.52841,39.38543 2.31027,58.84429 0.4113,2.81938 0.9995,5.61011 1.49924,8.41517 0.71687,2.68615 1.25012,5.42816 2.15061,8.05845 6.58237,19.22679 17.94656,30.30325 41.19689,32.6299 15.62938,1.56403 25.9293,-8.8955 36.56093,-17.18409 3.72876,-3.82515 7.55561,-7.55707 11.18628,-11.47545 7.45864,-8.04969 17.95218,-20.54923 24.89052,-28.7237 16.17586,-19.0577 32.34949,-38.11728 48.52729,-57.17337 18.19744,-21.93972 37.37685,-43.01252 56.65304,-63.99733 35.86565,-39.06603 -19.38207,-89.78772 -55.24772,-50.72168 v 0 c -19.92123,21.7101 -39.75704,43.49823 -58.5802,66.18002 -25.27631,29.77341 -50.23522,59.84141 -76.24747,88.9749 -1.92356,6.59892 0.85695,-4.42292 14.29319,-0.85166 17.88758,4.75439 22.23285,7.3233 28.35171,19.44875 0.32306,0.6402 0.49898,1.38153 0.47487,2.09822 -0.0141,0.4186 -0.33785,-0.76651 -0.50677,-1.14977 -3.565,-16.69147 -2.35683,-34.53261 -2.53696,-51.46451 1.00123,-39.63651 3.29542,-79.22385 4.94303,-118.83642 2.23278,-52.73334 4.53479,-105.46662 6.0176,-158.22774 1.49003,-56.39896 2.64964,-112.8061 4.12258,-169.20559 1.22037,-45.64458 2.38699,-91.2951 4.29665,-136.91692 0.92853,-19.02113 2.30124,-38.03619 2.62726,-57.07787 0,-53.03301 -75,-53.03301 -75,0 z"/>
<path d="m 808.3647,545.79858 c -1.53668,0.96673 -3.09165,1.90499 -4.61004,2.90019 -5.35504,3.50987 -8.58118,5.95856 -14.18915,9.46546 -14.81568,9.26487 -30.30476,17.39917 -45.67493,25.68523 -29.06827,14.64918 -59.30083,26.78507 -89.48576,38.89253 -49.21695,19.75325 -21.28163,89.35654 27.93533,69.60328 v 0 c 32.80196,-13.17263 65.64586,-26.40526 97.16122,-42.4892 22.47116,-12.13177 45.14835,-24.08925 66.01085,-38.90335 46.07093,-26.26726 8.92341,-91.4214 -37.14752,-65.15414 z"/>
<path d="m 545.25208,615.62785 c 4.28114,3.08499 4.15527,3.0738 9.84031,6.5992 16.71181,10.36332 -0.89588,-0.97052 16.37734,9.89375 10.44306,6.56833 10.6916,6.92324 21.3269,14.28131 31.71514,22.93837 60.24093,49.8876 88.95883,76.38348 27.26087,25.50466 54.69538,50.81215 82.86011,75.31723 17.38914,15.60942 35.22105,30.68207 53.91972,44.69791 16.28171,12.41776 34.56675,21.69171 52.82607,30.77768 18.22512,9.09027 37.39431,15.97347 56.54156,22.80382 49.96088,17.78791 75.11678,-52.86745 25.15591,-70.65536 v 0 c -16.34882,-5.80821 -32.7497,-11.58426 -48.3207,-19.31237 -14.20809,-7.05 -28.57357,-14.04345 -41.26986,-23.66398 -17.25193,-12.88206 -33.58768,-26.87965 -49.62958,-41.23466 -27.61927,-24.01943 -54.49338,-48.85782 -81.22831,-73.85537 -31.31616,-28.88756 -62.5007,-58.17796 -97.22921,-82.99619 -4.44746,-3.05981 -8.85084,-6.1847 -13.34238,-9.17943 -8.70775,-5.80588 -17.68147,-11.13 -26.64874,-16.51205 -3.37852,-2.02775 -2.57457,-1.51975 -5.20243,-3.39326 -42.46055,-31.77423 -87.39609,28.27406 -44.93554,60.04829 z"/>
</svg>
