<?xml version="1.0" ?>
<svg xmlns="http://www.w3.org/2000/svg" width="1000" height="1000">
<path d="m 114.43855,274.38314 c 14.89294,-6.73497 30.44229,-12.10544 46.14609,-16.6111 6.5358,-1.87521 13.14415,-3.4877 19.71622,-5.23155 29.32078,-7.05747 59.11819,-12.22446 89.12608,-15.28003 15.76953,-1.60575 20.30148,-1.59798 35.60344,-2.2661 10.9092,-0.22726 21.84415,-0.3543 32.73056,0.53083 3.30672,0.26886 6.7158,0.60055 9.92228,1.51654 -1.58309,-0.18957 -2.04859,-0.18213 -4.00888,-1.23685 -9.55689,-5.14204 -14.41035,-9.71336 -18.64753,-22.22462 -2.64582,-7.81244 -1.25503,-13.52505 0.16156,-20.26263 -0.94869,1.56942 -1.84375,3.17254 -2.84607,4.70826 -4.28142,6.55982 -8.69207,12.49532 -13.4012,18.82809 -11.43904,15.38306 -23.49765,30.20655 -35.61388,45.05768 -11.78266,14.33868 -23.2262,29.03814 -36.30229,42.25312 -3.66176,3.70066 -7.56769,7.15146 -11.35154,10.72719 -38.37226,36.60696 13.3978,90.87354 51.77006,54.26658 v 0 c 4.88484,-4.69416 9.91215,-9.24445 14.65454,-14.08249 14.09708,-14.3814 26.61935,-30.19093 39.34788,-45.75952 12.96911,-15.90374 25.89339,-31.78352 38.10262,-48.28401 6.49392,-8.77638 11.66558,-15.80094 17.40876,-24.92897 1.7393,-2.76441 3.28092,-5.64836 4.92139,-8.47254 5.10758,-11.48044 9.65342,-18.22536 5.71619,-32.99497 -4.00812,-15.03555 -14.2169,-24.20047 -27.70966,-29.0681 -1.92382,-0.69404 -3.92438,-1.1534 -5.88657,-1.7301 -2.03511,-0.42636 -4.05771,-0.91759 -6.10534,-1.27908 -18.53943,-3.27294 -37.51856,-2.75025 -56.25108,-2.48784 -17.96262,0.8363 -22.7753,0.82141 -41.24157,2.73467 -33.49451,3.47031 -66.74787,9.3072 -99.45983,17.27671 -7.61196,2.04598 -15.26597,3.94147 -22.83588,6.13793 -19.48833,5.65467 -38.757086,12.44786 -57.147263,21.05084 -47.455392,23.67458 -13.974482,90.78664 33.480913,67.11206 z"/>
<path d="m 223.45246,368.43701 c 1.44869,1.27466 2.85268,2.60199 4.34608,3.82397 5.00502,4.09538 10.45737,7.63668 15.66293,11.46417 6.635,4.87852 7.55201,5.6808 14.38012,11.01271 14.51809,12.18931 26.99599,27.08638 35.25681,44.24902 1.90706,3.9621 3.35104,8.13087 5.02656,12.1963 1.18004,4.39444 2.65756,8.71962 3.54012,13.18333 3.01826,15.26557 2.78722,31.26836 0.47715,46.60632 -2.24971,14.93713 -4.52082,20.53318 -8.90436,35.0539 -7.22813,21.39379 -17.30266,41.68702 -29.37997,60.73909 -5.32064,8.39336 -7.5767,11.25879 -13.19276,18.97429 -3.72009,4.83453 -7.55225,9.59454 -11.79602,13.98316 -0.64908,0.67124 -1.3129,1.32872 -1.99446,1.96694 -0.25737,0.241 -1.01282,0.96347 -0.81983,0.66839 0.25797,-0.39445 0.68123,-0.65153 1.02185,-0.97729 11.71618,-6.6271 7.22909,-5.47135 24.2777,-6.6945 1.33703,-0.0959 4.72052,1.69802 3.97918,0.5812 -1.09927,-1.65604 -3.55842,-1.77247 -5.34638,-2.64086 -9.61279,-4.66881 -14.91011,-7.14953 -25.0317,-11.95304 -22.9478,-10.56039 -11.54737,-5.34439 -34.20027,-15.65021 -48.2726,-21.96034 -79.3292,46.30743 -31.0566,68.26776 v 0 c 22.09436,10.05076 11.0599,5.0039 33.10338,15.1405 33.86238,16.06723 -2.90067,-1.40916 24.62983,11.76087 5.53735,2.64896 15.8901,7.98363 21.73907,8.49758 19.07677,1.67628 18.53912,0.0182 32.54387,-7.03956 1.53963,-1.21379 3.12389,-2.37302 4.61888,-3.64139 9.637,-8.1761 17.27843,-18.48281 25.09433,-28.30504 7.12684,-9.89602 10.03987,-13.63299 16.7583,-24.37897 15.35075,-24.5532 28.03173,-50.72262 37.04396,-78.27272 6.00799,-21.08136 8.87474,-28.15202 11.67042,-50.06522 3.12197,-24.47075 2.4024,-49.55428 -3.23523,-73.62002 -1.74864,-7.46454 -4.47998,-14.66418 -6.71997,-21.99626 -2.93153,-6.56995 -5.52,-13.30398 -8.79459,-19.70985 -13.09083,-25.6087 -32.09339,-47.84567 -54.19724,-66.07337 -8.20118,-6.38432 -8.73431,-6.898 -16.66963,-12.72838 -1.9434,-1.42788 -3.91059,-2.82314 -5.87147,-4.22692 -1.25706,-0.89991 -2.52147,-1.7895 -3.7823,-2.6841 -0.56601,-0.40161 -1.07792,-0.8933 -1.69824,-1.20454 -0.23164,-0.11622 0.32935,0.40023 0.49403,0.60034 -37.542,-37.45796 -90.51555,15.63445 -52.97355,53.0924 z"/>
<path d="m 87.116899,350.77816 c 1.733473,37.43329 3.825843,74.84519 5.414939,112.28635 3.129909,84.71752 0.600947,169.51994 -1.015572,254.24472 -1.497652,71.17827 -2.49349,142.36584 -4.227214,213.53886 -1.290669,53.0173 73.687118,54.84259 74.977788,1.82528 v 0 c 1.7348,-71.30462 2.73805,-142.62362 4.23578,-213.9335 1.64569,-86.26269 4.19315,-172.60401 0.96164,-258.85841 -1.57626,-37.07585 -3.61548,-74.12435 -5.37641,-111.19049 -1.47586,-53.01246 -76.446812,-50.92528 -74.970951,2.08719 z"/>
<path d="m 469.63758,237.8089 c 29.31024,-9.79293 59.87125,-14.9646 90.23182,-20.26895 46.19318,-7.42212 92.9891,-11.30121 139.77967,-11.4967 7.89223,-0.033 15.7833,0.20236 23.67496,0.30354 16.97213,0.64393 33.99093,1.28663 50.83932,3.58619 3.05786,0.41735 6.08512,1.03443 9.12768,1.55165 52.33177,8.5957 64.48792,-65.4126 12.15615,-74.0083 v 0 c -4.34315,-0.69591 -8.66865,-1.51276 -13.02946,-2.08774 -19.29409,-2.54393 -38.76343,-3.36686 -58.19383,-4.0364 -8.69703,-0.0979 -17.39364,-0.34159 -26.09109,-0.29361 -50.62167,0.27927 -101.24001,4.52451 -151.20809,12.60692 -33.60162,5.90392 -67.38023,11.78678 -99.82606,22.61021 -50.5816,15.93744 -28.04267,87.47062 22.53893,71.53319 z"/>
<path d="m 400.70275,323.44463 c -0.14938,2.15786 -0.38306,4.31153 -0.44814,6.47357 -0.42102,13.98736 0.66916,28.01487 1.91574,41.93025 1.2558,14.01831 3.16173,30.72237 4.68342,44.61161 3.58613,33.52026 7.37579,67.02723 12.46291,100.35827 3.01261,19.73881 3.86367,23.81954 7.28086,42.89493 4.33596,22.06629 2.19648,11.58248 6.37615,31.46005 10.92434,51.89565 84.31588,36.4463 73.39154,-15.44935 v 0 c -3.89897,-18.49973 -1.90401,-8.75033 -5.94654,-29.25602 -3.23353,-17.99134 -4.0171,-21.72141 -6.87567,-40.3944 -4.97141,-32.47457 -8.63647,-65.12633 -12.13591,-97.78658 -2.7529,-25.09521 -6.05647,-50.2389 -6.28608,-75.51924 6.59242,-52.62167 -67.82586,-61.94476 -74.41828,-9.32309 z"/>
<path d="m 555.21771,372.62182 c 22.32865,-7.73177 45.08025,-14.34622 68.16471,-19.42668 7.03261,-1.54774 14.1245,-2.8126 21.18675,-4.21891 31.66534,-5.22652 63.90036,-8.25334 96.01265,-6.47423 4.08387,0.22626 8.15072,0.69453 12.22608,1.04179 7.22247,0.94764 14.4697,2.07588 21.43221,4.28459 0.59656,0.18924 3.72172,1.14044 4.41751,2.0005 -8.11625,-3.49046 -12.00261,-13.28863 -14.85526,-20.66336 -0.73594,-1.90257 0.66016,-4.71323 -0.87464,-6.05702 -1.19857,-1.0494 -0.42199,3.15803 -0.63298,4.73704 -4.60035,29.0172 -7.15629,58.28933 -10.53776,87.45732 -0.9442,8.14449 -2.01177,16.27421 -3.01766,24.41132 -5.23211,41.31412 -15.30414,81.76117 -24.7369,122.25428 -12.03167,51.65016 61.01269,68.6655 73.04435,17.01534 v 0 c 10.03416,-43.07553 20.63145,-86.12372 26.12766,-130.08183 1.0501,-8.51952 2.16173,-17.03169 3.1503,-25.55857 1.67605,-14.45673 3.03344,-28.94914 4.69767,-43.40724 1.85727,-16.13507 2.02994,-16.56424 4.15419,-31.74362 0.52726,-3.76767 1.04737,-7.53634 1.57105,-11.30451 0.7624,-6.63263 2.26019,-15.93723 0.62784,-22.2826 -4.10052,-15.93984 -10.76121,-23.67133 -23.99953,-31.25691 -5.13209,-2.55972 -6.32737,-3.32182 -11.9143,-5.37111 -13.69718,-5.02413 -28.15388,-7.51696 -42.59853,-9.18878 -5.38108,-0.41871 -10.75269,-0.98519 -16.14323,-1.25614 -37.77682,-1.89883 -75.67792,1.57085 -112.90199,7.90872 -8.04801,1.62484 -16.12879,3.09507 -24.14403,4.87453 -27.01579,5.99776 -53.70066,13.74802 -79.69202,23.23898 -48.83781,20.67287 -19.60196,89.73997 29.23586,69.0671 z"/>
<path d="m 467.34371,486.473 c 27.59227,-4.82364 55.28618,-9.04565 82.98973,-13.1726 31.15135,-4.13373 62.46348,-8.47405 93.9633,-8.3514 14.60847,0.0569 19.94192,0.87298 33.98704,2.23143 52.80638,4.89754 59.73255,-69.78196 6.92617,-74.67951 v 0 c -18.40395,-1.6495 -23.92519,-2.52977 -43.08354,-2.52051 -34.47453,0.0167 -68.75331,4.5389 -102.84768,9.13917 -28.91478,4.31056 -57.82586,8.69656 -86.61249,13.80362 -52.00756,10.37854 -37.33009,83.92833 14.67747,73.5498 z"/>
<path d="m 473.67458,604.38081 c 21.1303,-5.55243 42.50738,-10.07531 64.09247,-13.46977 7.72263,-1.21446 15.47803,-2.21052 23.21705,-3.31578 43.97574,-5.33089 88.28485,-8.68996 132.60968,-7.81185 7.40019,0.14661 14.79168,0.58614 22.18752,0.87922 22.70248,2.42185 12.10564,0.46455 31.87838,5.37441 51.70806,11.78035 68.36799,-61.34589 16.65993,-73.12623 v 0 c -30.38644,-6.54476 -15.16446,-4.17206 -45.65426,-7.19271 -8.31515,-0.31153 -16.62583,-0.78385 -24.94544,-0.93458 -47.93134,-0.86839 -95.84704,2.72568 -143.39284,8.57275 -8.47943,1.22291 -16.97713,2.32519 -25.43829,3.66871 -23.35368,3.70826 -46.49231,8.60096 -69.36588,14.58553 -51.45637,12.83518 -33.30469,85.60548 18.15168,72.7703 z"/>
<path d="m 343.57808,770.27718 c 30.6692,-8.24622 61.4022,-16.29984 92.52987,-22.65881 11.08867,-2.26526 22.23529,-4.23705 33.35293,-6.35557 70.82932,-12.1231 142.63793,-17.96471 214.42259,-20.2465 15.15156,-0.48162 30.31246,-0.60107 45.46869,-0.9016 49.98649,-0.67562 99.92599,1.52672 149.81345,4.34726 52.94884,2.98677 57.17277,-71.8942 4.22393,-74.88096 v 0 c -51.79521,-2.91522 -103.64468,-5.17831 -155.54166,-4.45121 -15.7491,0.31946 -31.50316,0.45044 -47.24731,0.95839 -75.40527,2.43277 -150.82563,8.67175 -225.21099,21.50645 -11.80726,2.26034 -23.64521,4.36588 -35.42178,6.78103 -31.56448,6.47327 -62.76359,14.54695 -93.85556,22.96357 -51.57492,12.35021 -34.10908,85.28816 17.46584,72.93795 z"/>
<path d="m 582.33098,94.95402 c -0.0965,37.32787 1.16728,74.63697 2.44366,111.93714 2.08258,54.99076 4.16242,109.98906 4.79887,165.02022 0.49445,42.75286 0.20643,59.90463 -0.0362,103.16632 -1.0192,108.28636 -3.59542,216.54922 -5.5556,324.82071 -0.70348,41.50796 -1.06029,83.02016 -1.38688,124.53233 -0.41698,53.03137 74.5807,53.62107 74.99768,0.5897 v 0 c 0.32422,-41.25622 0.67847,-82.51247 1.37691,-123.76451 1.96562,-108.58478 4.55033,-217.1609 5.56673,-325.76068 0.24416,-44.18154 0.53416,-61.27127 0.0247,-104.96189 -0.64629,-55.42734 -2.73004,-110.82199 -4.83013,-166.20869 -1.24865,-36.44494 -2.49404,-72.89852 -2.39974,-109.37065 0,-53.033009 -75,-53.033009 -75,0 z"/>
</svg>
