<?xml version="1.0" ?>
<svg xmlns="http://www.w3.org/2000/svg" viewBox="0 0 1000 1000">
<path d="m 102.3018,244.29469 c 19.68259,-2.76765 38.67381,-8.88449 57.8424,-13.91367 7.19287,-1.88716 14.41795,-3.64934 21.62692,-5.47402 41.4343,-10.24901 83.47761,-17.9668 125.87883,-22.88295 7.08393,-0.82133 14.18963,-1.4427 21.28444,-2.16405 6.10972,-0.43112 12.21362,-0.95465 18.32916,-1.29336 11.70318,-0.64818 23.64885,-1.1239 35.35348,-0.0681 5.96322,0.53789 6.41973,0.23762 4.0812,1.02038 -15.98491,-8.067 -15.10308,-4.67885 -23.23645,-25.4815 -1.08728,-2.78094 0.66561,-6.12999 -0.30875,-8.95247 -0.31438,-0.91071 -1.49209,1.23999 -2.09399,1.99227 -2.22754,2.78406 -4.20289,5.76171 -6.37332,8.59051 -3.26366,4.25367 -6.61836,8.43672 -9.92755,12.65508 -18.72667,23.6298 -38.64785,46.26327 -58.14456,69.24938 -9.59272,11.30955 -19.09668,22.6941 -28.66577,34.02364 -3.78457,4.36161 -7.56914,8.72321 -11.35371,13.08482 -34.74911,40.06244 21.90774,89.2051 56.65685,49.14266 v 0 c 3.99818,-4.61117 7.99636,-9.22235 11.99454,-13.83352 9.46719,-11.20911 18.86852,-22.47383 28.35924,-33.66302 20.21127,-23.82832 40.85345,-47.29936 60.24252,-71.81438 5.93504,-7.61545 16.39765,-20.57543 21.61544,-29.00126 3.15733,-5.09855 6.62659,-10.15062 8.5435,-15.83298 6.58734,-19.52697 6.32194,-31.68925 -7.22775,-49.92038 -4.3556,-5.86046 -12.21209,-8.00812 -18.31814,-12.01218 -3.84924,-0.97962 -7.64447,-2.20339 -11.54773,-2.93887 -6.09008,-1.14755 -16.82595,-1.66891 -22.75839,-1.78651 -17.64173,-0.34973 -35.28215,0.7778 -52.85211,2.22917 -7.75295,0.7975 -15.51769,1.48777 -23.25887,2.3925 -45.37007,5.30247 -90.35812,13.58852 -134.69632,24.56337 -7.65956,1.94334 -15.33503,3.82499 -22.97868,5.83001 -15.72383,4.12456 -31.27751,9.17727 -47.348459,11.83604 -52.625301,6.56339 -43.343266,80.9868 9.282029,74.42341 z"/>
<path d="m 240.59525,362.37191 c 10.30448,5.78217 19.48978,13.36194 28.65589,20.75699 16.10239,14.01948 29.46445,31.05266 39.95405,49.63129 2.40117,4.25283 4.4635,8.68825 6.69525,13.03238 7.18566,16.25096 11.56759,33.62319 10.86528,51.48632 -0.39818,10.12764 -1.52785,13.38642 -3.62333,23.18628 -3.65733,13.1523 -9.91451,25.29964 -18.34928,36.01608 -4.30656,5.47151 -6.02238,6.88389 -10.84028,11.63728 -4.12193,3.86046 -8.61409,7.28928 -13.41269,10.26109 -1.97936,1.22584 -4.00427,2.45413 -6.25006,3.11464 -0.52216,-0.93038 -0.3084,-0.45732 2.63995,-0.99437 13.93552,-2.53843 -2.50016,0.78366 9.83291,-0.22292 0.32036,-0.0261 -0.40462,-0.5228 -0.68662,-0.67703 -2.17065,-1.18713 -4.42316,-2.21803 -6.63473,-3.32704 -13.13571,-6.28064 -26.17574,-12.74827 -39.16784,-19.31937 -47.33042,-23.92344 -81.16329,43.01188 -33.83287,66.93533 v 0 c 13.18361,6.6598 26.40435,13.23819 39.73394,19.60251 5.77926,2.83437 13.76888,7.04687 19.97045,8.89601 13.00624,3.87812 24.64481,3.18042 37.13622,-1.72305 2.06205,-0.90429 4.15901,-1.73282 6.18615,-2.71287 14.12595,-6.82937 26.64914,-16.596 38.01916,-27.30566 8.43111,-8.74873 11.43179,-11.33437 18.87131,-21.33057 14.40145,-19.35065 24.71518,-41.22274 30.43128,-64.66842 3.14398,-17.4357 4.84429,-22.60316 4.90609,-40.61296 0.0991,-28.88767 -7.19983,-56.93979 -19.34427,-83.0162 -3.1867,-6.0099 -6.15171,-12.14269 -9.5601,-18.0297 -14.89265,-25.72267 -33.91357,-49.04818 -56.55464,-68.3174 -12.78194,-10.24188 -25.68036,-20.55705 -40.14505,-28.36695 -46.71735,-25.09958 -82.21352,40.96873 -35.49617,66.06831 z"/>
<path d="m 112.27609,330.40826 c 0.88198,4.60418 1.00789,4.84157 1.55813,10.54866 2.65631,27.5511 2.74416,55.35257 3.31407,82.99704 1.22104,76.90947 1.05755,153.82884 0.35367,230.74164 -0.56756,69.09286 -1.5909,138.18204 -3.77071,207.24379 -0.37939,8.64853 -0.75878,17.29705 -1.13817,25.94558 -2.31849,52.98231 72.6098,56.26115 74.92829,3.27884 v 0 c 0.39088,-8.9536 0.78175,-17.9072 1.17263,-26.8608 2.19298,-69.62102 3.23627,-139.26931 3.80482,-208.92169 0.70945,-77.65917 0.87276,-155.32506 -0.36662,-232.98078 -0.42964,-20.64147 -0.59302,-34.47074 -1.4569,-54.74212 -0.69643,-16.34206 -1.49611,-32.79837 -4.28584,-48.94636 -0.44522,-2.57709 -1.10436,-5.11261 -1.65654,-7.66892 -13.69322,-51.23472 -86.150039,-31.86959 -72.45683,19.36512 z"/>
<path d="m 570.525,78.654113 c -5.58837,18.953186 -13.49776,37.053117 -22.59503,54.575237 -3.87375,7.46115 -8.02368,14.77562 -12.03552,22.16344 -16.47685,28.49889 -34.25866,56.26678 -53.01075,83.32189 -20.95321,30.23083 -43.35038,59.44777 -65.4988,88.80143 -28.26443,36.31325 -14.13075,18.43772 -42.38557,53.63882 -33.19154,41.36208 25.30328,88.302 58.49481,46.93992 v 0 c 29.18156,-36.37401 14.58926,-17.90911 43.76148,-55.40688 14.10723,-18.69886 31.61373,-41.74377 45.36082,-60.62262 28.38461,-38.98053 55.2888,-79.09466 79.23642,-120.97258 4.5039,-8.34566 9.17967,-16.60081 13.51169,-25.03696 12.14101,-23.6433 22.73535,-48.28885 28.98741,-74.18885 9.34289,-52.203548 -64.48407,-65.416394 -73.82696,-13.212847 z"/>
<path d="m 571.87465,196.04673 c 0.0609,0.12417 0.0857,0.27401 0.18282,0.37251 9.56661,9.70435 -7.6889,-8.58738 8.0583,8.00815 10.83976,11.42372 21.39427,23.12903 32.15263,34.62996 32.68427,34.26346 64.14747,69.63768 94.99313,105.5553 23.86915,28.85487 47.39544,57.98653 71.29053,86.82126 13.07642,15.70126 27.5465,30.29674 44.33123,42.05412 12.22632,8.56431 16.6355,10.39809 29.91203,17.49999 22.40435,10.2432 10.99011,5.31739 34.25487,14.74923 49.18175,19.84075 77.24082,-49.71274 28.05907,-69.5535 v 0 c -19.00982,-7.62353 -9.90444,-3.75026 -27.34745,-11.5459 -8.59813,-4.43142 -11.88719,-5.79713 -19.73731,-11.04365 -12.20103,-8.1544 -22.36904,-18.79999 -31.72422,-30.01573 -24.17674,-29.1746 -47.96461,-58.66263 -72.14449,-87.83344 -31.54269,-36.71823 -63.70664,-72.89045 -97.11901,-107.92657 -29.53039,-31.56028 2.48434,2.73156 -24.06787,-25.9213 -9.49276,-10.24377 -18.93169,-20.77234 -30.41481,-28.85982 -44.55437,-28.76471 -85.23381,34.24467 -40.67945,63.00939 z"/>
<path d="m 498.53776,453.27705 c 1.65261,-0.0939 3.30751,-0.15371 4.95782,-0.28173 13.35342,-1.03585 26.66588,-2.53335 40.02002,-3.57444 19.68072,-1.53431 20.60349,-1.44587 40.98544,-2.51111 26.62463,-1.18638 53.27643,-1.19217 79.91974,-1.02384 53.03199,0.32994 53.49859,-74.66861 0.46661,-74.99855 v 0 c -28.11186,-0.17229 -56.23268,-0.14895 -84.32385,1.12582 -21.70654,1.14746 -22.57681,1.04947 -43.47025,2.68316 -12.6412,0.98844 -25.24161,2.41086 -37.87903,3.42126 -1.40981,0.11271 -2.82393,0.16263 -4.2359,0.24394 -52.97325,2.51688 -49.41385,77.43237 3.5594,74.91549 z"/>
<path d="m 407.99477,644.23438 c 16.13603,-6.30029 32.92227,-10.90206 49.82509,-14.63056 6.68009,-1.47352 13.40915,-2.7155 20.11372,-4.07325 45.90081,-8.2832 92.46265,-12.6159 139.03253,-14.75422 9.85609,-0.45255 19.72125,-0.679 29.58187,-1.01851 33.05621,-0.66423 66.16575,0.28682 99.07503,3.5598 14.02576,1.39492 20.23387,2.37922 33.7251,4.25623 52.53195,7.27284 62.81729,-67.01856 10.28534,-74.29139 v 0 c -15.21295,-2.09686 -21.83802,-3.14678 -37.69407,-4.69839 -35.87674,-3.51078 -71.96521,-4.54383 -107.9969,-3.78098 -10.43101,0.36586 -20.86691,0.61178 -31.29302,1.09757 -50.15325,2.3368 -100.28826,7.1009 -149.70084,16.14212 -7.64027,1.56732 -15.309,3.00185 -22.92082,4.70196 -19.53956,4.36419 -38.92385,9.77569 -57.61327,16.98678 -49.85304,18.08795 -24.2728,88.5908 25.58024,70.50284 z"/>
<path d="m 548.82916,463.5263 c 0.612,28.47528 3.64271,56.84662 6.10973,85.20469 4.23937,48.17194 5.63526,96.55503 4.87417,144.89853 -0.15905,10.10204 -0.51484,20.20003 -0.77225,30.30005 -1.66531,42.83167 -3.83384,85.71123 -9.04791,128.27781 6.47283,-15.4102 -3.4066,14.55372 -2.3897,10.95663 2.62895,-9.29935 3.97175,-13.033 15.70852,-19.11368 0.40897,-0.21189 13.81771,-2.42883 19.43334,-3.36005 -9.64872,-6.86445 -17.88703,-15.46405 -26.4475,-23.5754 -4.92465,-4.66628 -9.88742,-9.29216 -14.83114,-13.93825 -38.64681,-36.31699 -90.00679,18.33785 -51.35998,54.65485 v 0 c 4.81932,4.52838 9.64957,9.04515 14.45795,13.58515 13.10174,12.37046 25.91479,25.23912 41.43693,34.65634 16.4318,7.58125 24.73935,14.54134 45.20491,7.59701 16.30729,-5.53335 23.04478,-16.35189 28.65946,-30.42779 2.29952,-5.76487 3.60619,-15.98116 4.57834,-21.97785 5.43537,-44.95294 7.9014,-90.20817 9.57287,-135.44122 0.26495,-10.58331 0.63301,-21.16455 0.79484,-31.74994 0.77453,-50.66092 -0.72184,-101.36151 -5.15506,-151.84238 -2.27926,-26.19901 -5.0688,-52.40587 -5.82752,-78.7045 0,-53.03301 -75,-53.03301 -75,0 z"/>
<path d="m 423.00778,683.30007 c -1.06779,1.20105 -2.17937,2.36456 -3.20337,3.60316 -3.22171,3.89684 -10.1144,12.83599 -12.90744,16.45372 -12.21754,15.82498 -24.09601,31.8897 -35.98226,47.96447 -18.86595,26.85772 -38.03727,53.48392 -57.72405,79.74518 -31.80384,42.43838 28.21309,87.41579 60.01693,44.97741 v 0 c 19.77526,-26.39573 39.08103,-53.12409 58.01247,-80.13262 11.54577,-15.61569 23.07965,-31.22343 34.94664,-46.59685 3.27184,-4.2386 6.4562,-8.54608 9.81239,-12.7182 0.61184,-0.76059 1.28755,-1.46751 1.93133,-2.20127 36.12963,-38.82203 -18.77302,-89.91704 -54.90264,-51.095 z"/>
<path d="m 717.88181,739.91285 c 2.38851,2.11136 4.72103,4.28781 7.16554,6.33409 2.0585,1.72316 4.24163,3.29205 6.33766,4.96935 5.1964,4.15829 12.41408,10.12569 17.26924,14.31291 11.29486,9.741 10.07917,8.85726 20.90738,19.27488 9.38506,9.70767 18.97838,19.35452 26.84308,30.38691 4.65672,6.53234 5.40638,8.61648 8.80924,15.40881 24.74033,46.9086 91.0791,11.92049 66.33877,-34.9881 v 0 c -2.38319,-4.39979 -4.55574,-8.92038 -7.14957,-13.19937 -11.69663,-19.29569 -27.1198,-35.85737 -42.96479,-51.77286 -4.21635,-4.02334 -8.35633,-8.12827 -12.64905,-12.07002 -6.65901,-6.11458 -15.48343,-13.56662 -22.53144,-19.39498 -2.85942,-2.36461 -5.74541,-4.69711 -8.64251,-7.0154 -1.73403,-1.38759 -3.39957,-2.87417 -5.25031,-4.10178 -0.37264,-0.24718 0.49779,0.743 0.74668,1.1145 -35.87935,-39.05345 -91.10927,11.68761 -55.22992,50.74106 z"/>
</svg>
