<?xml version="1.0" ?>
<svg xmlns="http://www.w3.org/2000/svg" width="1000" height="1000">
<path d="m 95.296887,198.22593 c 21.013193,-2.70285 41.778583,-6.96325 62.537813,-11.12831 25.18193,-5.11437 50.47433,-9.89427 76.03401,-12.7073 15.05556,-1.65697 19.4422,-1.70338 34.26705,-2.51844 16.42179,-0.49019 33.1046,-0.48195 49.11148,3.65159 1.74293,0.57402 3.55492,0.99888 5.26322,1.68141 0.3462,0.13832 -0.74375,-0.15483 -1.06324,-0.34695 -3.60329,-2.16687 -8.1944,-3.32177 -10.67859,-6.71409 -5.19646,-7.09609 -7.72997,-15.80122 -11.59495,-23.70183 0.44436,-4.30101 1.02497,-8.59012 1.33309,-12.90304 0.01,-0.13767 -0.3246,-0.19714 -0.40522,-0.0851 -1.33296,1.85248 -2.4636,3.8425 -3.68542,5.7701 -8.11229,12.79828 -16.26673,25.5506 -24.5725,38.22528 -14.83301,22.53929 -28.86467,45.59764 -44.27594,67.75494 -7.49366,10.77387 -11.34303,15.81456 -18.96851,26.09675 -2.46015,3.21231 -4.92029,6.42463 -7.38043,9.63694 -32.22965,42.11591 27.33125,87.69551 59.56089,45.5796 v 0 c 2.69309,-3.52165 5.38618,-7.04329 8.07926,-10.56494 8.48768,-11.46358 12.39891,-16.57935 20.77206,-28.63956 15.62352,-22.50326 29.92397,-45.86849 44.94997,-68.76591 8.58185,-13.10479 17.10064,-26.23986 25.40394,-39.52343 2.45992,-3.93535 9.45557,-14.71206 10.80602,-19.30943 1.71857,-5.8506 2.15553,-12.00357 3.23329,-18.00536 -3.91507,-8.69272 -6.28623,-18.26212 -11.74522,-26.07817 -5.09137,-7.2897 -18.9856,-10.53498 -27.38383,-13.00131 -6.66209,-1.56371 -8.52812,-2.12579 -15.62935,-3.214733 -18.30733,-2.807346 -36.87454,-3.152282 -55.35419,-2.423696 -17.42826,1.004661 -21.98081,1.040804 -39.67176,3.020059 -27.27673,3.05172 -54.28365,8.08909 -81.16382,13.5531 -18.47144,3.70869 -36.93824,7.51027 -55.61327,10.07212 -52.742896,5.53958 -44.908749,80.1293 7.834147,74.58972 z"/>
<path d="m 211.93012,347.42128 c 6.44424,4.44253 12.40422,9.5895 18.24938,14.78884 13.91168,14.08755 26.26798,29.93607 35.25549,47.64483 2.05828,4.05557 3.76676,8.27938 5.65013,12.41907 6.98216,17.17809 9.81769,35.43384 9.02186,53.9268 -0.54034,12.55613 -1.88667,18.73873 -3.8523,31.27612 -4.25731,22.0926 -9.77818,43.9411 -16.61586,65.37695 -3.76527,11.80399 -5.09908,15.08967 -9.26006,26.44423 -5.141,13.16927 -10.69367,26.22379 -17.8127,38.45959 -0.24286,0.35233 -0.8778,1.45807 -0.72859,1.057 0.5145,-1.38294 3.65051,-4.61347 3.87271,-4.79527 8.59987,-7.03631 11.68912,-7.6879 24.59621,-9.01056 2.52366,-0.25861 5.01586,0.76427 7.52379,1.14641 -16.38509,-8.79402 -33.60728,-15.86805 -50.54912,-23.48236 -5.47493,-2.46065 -10.89823,-5.03461 -16.34735,-7.55192 -48.15414,-22.21886 -79.57637,45.88138 -31.42222,68.10025 v 0 c 5.92695,2.73174 11.82847,5.51935 17.78086,8.19523 18.84861,8.47333 10.07988,4.09449 27.31151,12.11738 18.12361,8.43818 3.07449,1.65496 18.82134,9.15474 2.64319,1.25888 5.32303,2.43933 7.98454,3.65899 4.57742,1.16109 9.00987,3.47282 13.73224,3.48327 6.89488,0.0152 13.84588,-1.27327 20.40206,-3.4078 9.08373,-2.95743 17.20942,-13.30137 22.03839,-21.27725 9.14907,-16.02029 16.70583,-32.8696 23.2442,-50.11645 4.76489,-13.08287 6.29639,-16.87667 10.59791,-30.45428 7.88579,-24.89122 14.24647,-50.26401 18.99547,-75.93999 2.59542,-17.81086 4.31637,-25.76499 4.6729,-43.88702 0.57001,-28.97342 -4.74874,-57.49626 -16.04698,-84.19675 -2.85372,-6.00878 -5.46302,-12.13986 -8.56116,-18.02635 -13.07059,-24.83419 -30.64083,-47.1523 -50.76433,-66.62379 -10.17225,-8.88218 -20.49533,-17.8574 -32.29427,-24.54828 -46.71739,-25.0995 -82.21345,40.96887 -35.49605,66.06837 z"/>
<path d="m 86.276307,283.39108 c -0.0115,22.01182 -0.01039,44.02338 0.07823,66.03503 0.734246,59.14236 1.134536,118.28251 0.947208,177.42932 -0.414865,73.44848 -0.715302,146.89735 -0.882512,220.34679 -0.105731,52.68582 -0.13101,105.37174 -0.146336,158.05765 -0.01543,53.03301 74.984563,53.05482 74.999993,0.0218 v 0 c 0.0153,-52.63627 0.0405,-105.27256 0.14614,-157.90874 0.16713,-73.42748 0.46788,-146.85438 0.88234,-220.28089 0.18644,-59.32671 -0.20695,-118.64688 -0.94745,-177.96909 -0.0889,-21.9106 -0.0885,-43.82112 -0.0776,-65.73188 0,-53.03301 -75.000008,-53.03301 -75.000008,0 z"/>
<path d="m 563.55227,72.104034 c -1.86198,5.367389 -1.09549,3.092039 -3.58906,10.79609 -1.10721,3.420808 -2.11618,6.874481 -3.30486,10.267837 -5.70792,16.294439 -12.86117,32.031699 -19.79308,47.824989 -16.70942,35.59767 -35.14259,70.39147 -54.73793,104.48205 -13.15791,22.89118 -20.75861,34.97429 -34.55614,57.53775 -21.86805,34.75947 -44.19896,69.27155 -67.45989,103.12162 -5.21221,7.585 -10.5788,15.06275 -15.8682,22.59413 -30.46828,43.40719 30.91876,86.49584 61.38704,43.08865 v 0 c 5.56992,-7.93957 11.21815,-15.82477 16.70977,-23.8187 23.87224,-34.74988 46.78819,-70.17969 69.22208,-105.86821 14.54906,-23.80777 22.1125,-35.81956 36.01175,-60.02511 20.78893,-36.20392 40.32845,-73.16368 57.98125,-111.00036 6.71142,-15.32731 10.89498,-24.42828 16.8754,-39.70961 5.00875,-12.79849 5.14564,-13.81535 8.84784,-25.27507 2.34599,-7.26174 1.67973,-5.22088 3.94351,-11.914337 15.62827,-50.677973 -56.0412,-72.779692 -71.66948,-22.101719 z"/>
<path d="m 582.03781,156.52646 c 0.13883,0.0878 0.27765,0.17557 0.41648,0.26335 0.0574,0.10481 0.0784,0.24053 0.17228,0.31443 2.65041,2.08529 5.52089,3.87882 8.18686,5.94418 7.30949,5.66274 8.48617,6.99689 15.82811,13.60705 28.40989,27.48906 54.4302,57.33205 80.46604,87.04355 26.30985,30.08488 51.05128,61.48586 75.71226,92.92128 12.85247,16.04644 24.12513,33.31277 37.23081,49.16006 2.19181,2.65031 4.48904,5.21165 6.73355,7.81747 7.56002,8.20642 15.29458,16.31203 23.75566,23.60665 6.05973,5.22432 8.74808,7.13801 15.15561,12.05476 22.59728,17.00412 47.2792,31.00225 72.04337,44.5556 4.62653,2.41239 9.25306,4.82478 13.87959,7.23716 47.03586,24.4975 81.68057,-42.02126 34.64469,-66.51875 v 0 c -4.18902,-2.17898 -8.37805,-4.35796 -12.56707,-6.53694 -21.44067,-11.68928 -42.84763,-23.72845 -62.46806,-38.33396 -3.60756,-2.74022 -7.03966,-5.25732 -10.48214,-8.17465 -6.17096,-5.22956 -11.74128,-11.13131 -17.28243,-17.00673 -15.00358,-17.16575 -27.44958,-36.32961 -41.63576,-54.15404 -25.50104,-32.50356 -51.10166,-64.95773 -78.31445,-96.05872 -28.05595,-32.01266 -56.11311,-64.16614 -86.93727,-93.57304 -14.84911,-13.16177 -30.08895,-26.89414 -48.66131,-34.563246 -49.77645,-18.297677 -75.65327,52.096856 -25.87682,70.394536 z"/>
<path d="m 544.30575,419.21176 c 22.9465,-3.11511 45.87474,-6.35911 68.82896,-9.41777 32.70322,-4.23078 65.60019,-7.1164 98.55863,-8.25472 3.04831,-0.0226 6.09661,-0.0452 9.14492,-0.0678 53.03093,-0.46973 52.36663,-75.46679 -0.6643,-74.99705 v 0 c -3.71267,0.0373 -7.42534,0.0746 -11.13801,0.1119 -35.38173,1.28256 -70.70222,4.27597 -105.80999,8.86507 -22.40645,2.9872 -44.79249,6.1239 -67.18421,9.21701 -52.71009,5.84353 -44.44609,80.38685 8.264,74.54332 z"/>
<path d="m 417.99467,500.57119 c 1.62948,21.89613 6.35489,43.42059 10.85333,64.86558 5.33238,24.37187 10.36785,48.80694 15.54805,73.21136 11.01169,51.87719 84.37712,36.3043 73.36542,-15.57289 v 0 c -5.16893,-24.35132 -10.19295,-48.73334 -15.51441,-73.05202 -3.66986,-17.4553 -7.54527,-34.94378 -9.3235,-52.71709 -2.30874,-52.98273 -77.23764,-49.71767 -74.92889,3.26506 z"/>
<path d="m 479.02242,542.51101 c 23.10897,-4.34207 46.31662,-8.06973 69.58458,-11.44684 31.94329,-4.25216 64.03093,-7.4602 96.21554,-9.15749 20.89313,-1.10182 26.4848,-1.02278 47.16848,-1.38659 28.20193,-0.25326 56.4859,0.58053 84.37584,4.9998 4.95674,0.90721 4.97207,0.87398 9.40029,1.79845 0.92856,0.19385 1.85746,0.38697 2.78093,0.60377 0.29909,0.0702 1.18008,0.34301 0.88516,0.25689 -7.82605,-2.28529 -2.16582,-0.28636 -15.40618,-8.90979 -2.90041,-4.93219 -5.80081,-9.86437 -8.70122,-14.79656 -0.24118,-0.69264 -0.41892,-2.7451 -0.72355,-2.07793 -0.60059,1.31539 -0.1731,2.88729 -0.30354,4.3274 -0.25095,2.77042 -0.51971,5.53965 -0.84051,8.30286 -1.29554,11.15897 -1.78304,13.67955 -3.52807,25.28046 -2.61512,14.99832 -5.82708,30.0484 -11.44669,44.25763 -1.76113,4.45304 -4.01514,8.69501 -6.02272,13.04252 -21.57452,48.44626 46.93884,78.95724 68.51336,30.51098 v 0 c 2.92659,-6.7323 6.17371,-13.33415 8.77975,-20.19689 6.91617,-18.21302 11.06359,-37.37031 14.35058,-56.51579 2.06608,-13.87348 4.29778,-27.78019 5.13892,-41.80013 0.29066,-4.84477 0.7279,-17.64258 -0.891,-22.22282 -2.44082,-6.90562 -6.5578,-13.09869 -9.8367,-19.64804 -4.73938,-3.34883 -9.23591,-7.07095 -14.21814,-10.04649 -1.87783,-1.1215 -4.11094,-1.50064 -6.2002,-2.14797 -6.56166,-2.03306 -13.52032,-2.66129 -20.20222,-4.12725 -9.43795,-1.44777 -11.88792,-1.93247 -21.93281,-2.956 -25.01766,-2.54918 -50.19139,-3.11092 -75.32272,-2.92292 -22.27927,0.41049 -28.16867,0.3283 -50.66624,1.53134 -34.17361,1.8274 -68.24551,5.24272 -102.16131,9.7815 -23.45942,3.41888 -46.87745,7.09553 -70.16886,11.53417 -52.41905,8.04635 -41.0398,82.17807 11.37925,74.13173 z"/>
<path d="m 506.79132,649.05872 c 18.7835,-3.3111 37.60848,-6.38331 56.59281,-8.31622 6.88951,-0.70147 13.79702,-1.21323 20.69554,-1.81985 31.78805,-2.178 63.68703,-3.42869 95.55292,-2.60985 18.89901,0.48564 25.00362,1.14817 43.48451,2.51083 6.64238,0.71136 13.28475,1.42272 19.92713,2.13407 52.73717,5.59376 60.64795,-68.98787 7.91077,-74.58163 v 0 c -7.46195,-0.78467 -14.92391,-1.56934 -22.38586,-2.35401 -20.75649,-1.49703 -27.04349,-2.18746 -48.28567,-2.70643 -34.29552,-0.83789 -68.62527,0.50468 -102.83336,2.9006 -7.63932,0.6835 -15.28878,1.26185 -22.91796,2.05048 -19.73097,2.0396 -39.32158,5.13622 -58.84235,8.61818 -52.44881,7.84996 -41.34729,82.02379 11.10152,74.17383 z"/>
<path d="m 585.96377,411.41835 c -0.10949,27.58657 -0.75951,55.16887 -1.71254,82.73797 -1.61896,32.94145 -6.98814,65.76014 -16.46828,97.37784 -6.40291,21.35466 -9.97246,28.43758 -18.5507,49.08974 -19.1321,40.78272 -43.51691,79.00329 -71.44652,114.31785 -5.19271,6.56574 -10.7031,12.87387 -16.05465,19.3108 -15.15401,16.96785 -29.65881,34.66747 -46.367,50.18098 -4.48938,4.16839 -9.3384,7.93185 -14.00761,11.89777 -40.20287,34.58654 8.70989,91.44199 48.91276,56.85545 v 0 c 6.10813,-5.30582 12.41889,-10.387 18.32439,-15.91747 18.27864,-17.11786 34.30264,-36.46806 50.88829,-55.16443 6.07935,-7.35852 12.33337,-14.57617 18.23807,-22.07556 31.7875,-40.3724 59.37228,-84.14706 80.86361,-130.85032 10.39327,-25.4301 14.06888,-32.57182 21.83064,-58.94465 10.85588,-36.88598 16.9308,-75.12829 18.79268,-113.50002 0.97299,-28.42838 1.65449,-56.86969 1.75686,-85.31595 0,-53.03301 -75,-53.03301 -75,0 z"/>
<path d="m 630.35307,718.29156 c 13.1151,17.23814 29.02276,32.14115 44.2956,47.42768 19.60535,20.0512 39.62733,39.70799 58.57453,60.38927 10.46308,11.71209 20.1092,24.1113 30.67248,35.73436 8.28716,9.06418 18.13035,16.4046 28.19241,23.34922 13.60266,8.34241 27.08576,17.02046 41.41104,24.10329 4.46938,2.20979 9.05286,4.18086 13.57929,6.27129 22.0761,8.24439 10.54015,4.42047 34.66457,11.2992 51.08743,14.23287 71.21576,-58.01566 20.12833,-72.24854 v 0 c -16.63183,-4.4776 -8.76564,-1.9982 -23.64835,-7.27834 -3.19536,-1.43442 -6.43693,-2.77004 -9.58609,-4.30324 -11.80721,-5.74848 -22.81028,-12.98185 -34.08833,-19.66687 -5.36374,-3.65654 -10.75446,-7.37279 -15.25958,-12.08868 -10.66844,-11.61351 -20.11559,-24.28447 -30.80775,-35.88216 -19.69813,-21.43306 -40.38869,-41.91609 -60.77615,-62.68841 -11.83998,-11.85027 -23.87086,-23.55004 -34.99125,-36.08505 -29.463,-44.09571 -91.82375,-2.42873 -62.36075,41.66698 z"/>
</svg>
