<?xml version="1.0" ?>
<svg xmlns="http://www.w3.org/2000/svg" viewBox="0 0 1000 1000">
<path d="m 93.381574,251.95283 c 19.107976,-6.11013 38.539176,-11.26205 58.114926,-15.64456 7.08671,-1.58653 14.21522,-2.98023 21.32283,-4.47035 34.47594,-6.42768 69.36853,-11.34418 104.44781,-12.73045 4.72855,-0.18686 9.46307,-0.16276 14.19461,-0.24414 8.6285,0.27787 11.02164,0.12416 18.97202,1.11269 1.78324,0.22173 5.99016,0.8027 8.11104,1.70737 0.11619,0.0496 -0.20003,0.23612 -0.32135,0.20091 -1.07953,-0.31322 -2.09899,-0.80512 -3.14849,-1.20767 -8.54415,-6.73339 -10.66952,-6.77211 -14.77525,-18.96781 -1.19102,-3.53781 -0.83792,-7.42284 -1.04159,-11.15019 -0.0639,-1.16857 1.35116,-3.87286 0.24092,-3.50268 -1.71067,0.57038 -2.05266,2.9654 -3.07814,4.44868 -2.21701,3.20674 -4.43289,6.41426 -6.64933,9.62139 -22.95044,30.47233 -46.35128,60.60637 -69.8725,90.64015 -3.39681,4.33415 -6.79362,8.66829 -10.19043,13.00243 -32.71375,41.74099 26.31692,88.00523 59.03067,46.26424 v 0 c 3.40239,-4.34126 6.80478,-8.68252 10.20717,-13.02379 24.48557,-31.26598 48.88899,-62.60755 72.65141,-94.4271 7.58113,-11.0955 19.01951,-26.11455 21.44535,-39.57881 2.67523,-14.84843 0.71096,-24.59334 -7.88818,-37.19993 -2.84298,-4.16789 -7.43482,-6.82194 -11.15223,-10.23291 -2.97207,-1.57002 -5.83754,-3.361 -8.91621,-4.71007 -16.71527,-7.32457 -37.21344,-7.4561 -55.06938,-7.98299 -5.71882,0.11993 -11.44137,0.1209 -17.15645,0.35978 -38.78695,1.62124 -77.36983,7.01321 -115.48176,14.20746 -7.80081,1.64627 -15.62418,3.18909 -23.40244,4.93881 -21.65186,4.87059 -43.135974,10.60954 -64.264467,17.40243 -50.322746,16.73682 -26.653305,87.90393 23.669441,71.16711 z"/>
<path d="m 213.82486,376.4393 c 5.34706,2.22488 10.67702,4.46404 15.62986,7.50757 5.78889,3.55729 8.63769,5.99822 14.22711,10.27585 12.81918,10.34204 24.42357,22.13945 32.80648,36.41865 6.25428,10.65334 6.64342,13.05013 11.13211,24.61185 6.92971,23.05568 9.63074,47.54157 6.02007,71.46049 -0.64867,4.29713 -1.76254,8.51105 -2.6438,12.76657 -4.6728,16.10143 -10.74821,32.30719 -20.91586,45.83634 -1.05651,1.4058 -2.26051,2.69444 -3.39077,4.04166 -1.60155,1.55401 -2.61302,2.80164 -4.46869,3.88065 -0.20874,0.12137 -0.68784,0.42139 -0.70156,0.18033 -0.0634,-1.11395 5.42359,-2.74058 5.62564,-2.80667 0.78387,-0.17947 2.64724,0.20943 2.35161,-0.53841 -0.37782,-0.95573 -1.95571,-0.63246 -2.9362,-0.94038 -2.55188,-0.80142 -5.13157,-1.5175 -7.66084,-2.38764 -14.04545,-4.83204 -27.49531,-10.98242 -41.0187,-17.0864 -5.17838,-2.5209 -10.35677,-5.0418 -15.53515,-7.56269 -47.70448,-23.16857 -80.46979,44.29575 -32.76531,67.46432 v 0 c 5.83924,2.83002 11.67848,5.66003 17.51772,8.49005 16.53444,7.42355 32.99959,14.87849 50.24924,20.53136 6.54381,2.14447 17.29184,5.23397 24.28796,6.07825 4.29459,0.51826 8.64284,0.38676 12.96426,0.58014 3.74166,-0.61484 7.54792,-0.91864 11.22498,-1.84452 16.05251,-4.04203 28.88424,-15.22588 39.54529,-27.33049 2.38374,-3.0675 4.90316,-6.03423 7.15123,-9.20251 15.56796,-21.94047 25.5655,-47.33515 32.13692,-73.27867 1.23283,-6.78533 2.81136,-13.51687 3.6985,-20.35599 3.64975,-28.13682 1.80734,-57.36875 -4.93907,-84.90963 -1.76673,-7.21231 -4.22504,-14.23741 -6.33756,-21.35611 -7.494,-17.87142 -8.54644,-22.44511 -18.78546,-38.80659 -13.09089,-20.91864 -30.31935,-38.65078 -49.59325,-53.91911 -4.0479,-2.99945 -7.99299,-6.14288 -12.14371,-8.99836 -12.11035,-8.33128 -25.24642,-14.98485 -39.06368,-19.96705 -50.32277,-16.73677 -73.99213,54.43037 -23.66937,71.16714 z"/>
<path d="m 85.72642,315.7223 c 0.199726,25.13894 0.791609,50.27417 1.478104,75.40417 1.286604,43.03958 3.508177,86.04543 4.596484,129.09167 0.951188,37.62273 0.803166,43.28884 1.048696,81.4874 -0.254443,85.32749 -3.011947,170.61949 -5.986861,255.88702 -1.382937,47.07665 -0.778983,23.97731 -1.828316,69.29759 -1.226426,53.01883 73.753513,54.75326 74.979943,1.73443 v 0 c 1.03337,-44.71567 0.43805,-21.90982 1.80277,-68.41713 3.01053,-86.30128 5.7953,-172.62772 6.03088,-258.98985 -0.25775,-39.15547 -0.10653,-44.80563 -1.08393,-83.34935 -1.08906,-42.94677 -3.29288,-85.85364 -4.58773,-128.79345 -0.67021,-24.44626 -1.24434,-48.89765 -1.45004,-73.3525 0,-53.03301 -75,-53.03301 -75,0 z"/>
<path d="m 427.06463,248.27446 c 21.62859,-3.41593 43.13095,-7.56246 64.76385,-10.95791 8.20694,-1.28814 16.43056,-2.46765 24.64584,-3.70147 47.8871,-6.96284 96.23849,-10.96314 144.63273,-11.61105 8.61706,-0.11537 17.23564,0.035 25.85346,0.0525 23.99893,0.5056 48.14537,1.03039 71.80219,5.43675 52.19681,9.38048 65.4628,-64.43695 13.26599,-73.81743 v 0 c -3.39777,-0.59611 -6.78111,-1.28137 -10.19332,-1.78833 -24.73528,-3.67501 -49.81298,-4.29758 -74.76971,-4.83092 -9.35332,-0.008 -18.70761,-0.15764 -28.05997,-0.0231 -51.42341,0.73969 -102.79695,5.00834 -153.68159,12.41509 -8.56492,1.28892 -17.13846,2.52174 -25.69475,3.86676 -21.90158,3.44287 -43.67393,7.62782 -65.57047,11.09541 -52.22955,9.19646 -39.22379,83.06018 13.00575,73.86373 z"/>
<path d="m 381.48538,338.37704 c 5.002,27.52691 9.02163,55.22159 13.69879,82.80734 5.55868,31.18985 11.25133,62.36396 15.68508,93.73955 2.44918,17.33178 2.83324,21.69829 4.74191,38.5521 1.87354,19.37758 1.09263,10.20801 2.40774,27.50309 4.05408,52.87783 78.83462,47.14448 74.78053,-5.73335 v 0 c -1.48372,-19.21199 -0.61376,-9.13215 -2.66748,-30.2345 -2.06648,-18.14205 -2.45723,-22.6101 -5.0963,-41.23835 -4.51069,-31.83922 -10.25414,-63.48142 -15.90782,-95.13185 -4.80629,-28.31903 -8.8905,-56.75845 -14.10523,-85.00435 -10.42298,-51.99867 -83.9602,-37.25835 -73.53722,14.74032 z"/>
<path d="m 517.96019,370.07021 c 27.05673,-5.85646 54.22592,-11.14885 81.4702,-16.05109 27.5762,-4.73763 55.40009,-8.53148 83.39682,-9.46067 13.30558,-0.4416 16.15117,-0.0642 28.87077,0.55326 12.68959,0.7773 25.1669,3.07149 37.28535,6.84799 0.36776,0.14081 0.74636,0.25604 1.10328,0.42244 0.1019,0.0475 -0.22784,-0.0189 -0.33143,-0.0626 -0.8112,-0.34206 -1.63217,-0.66985 -2.4051,-1.09132 -4.09012,-2.23036 -7.87584,-5.41567 -10.56448,-9.21877 -2.39662,-3.39003 -3.70375,-7.43145 -5.55562,-11.14718 -0.19059,-0.48812 -0.47982,-1.98025 -0.57176,-1.46437 -0.28865,1.61969 -0.0172,3.29047 -0.0468,4.93542 -0.0611,3.39458 -0.12633,6.78922 -0.22511,10.18292 -0.14134,4.85595 -0.30388,9.71138 -0.49526,14.56562 -0.71882,18.23302 -0.93843,20.87257 -1.97321,39.9157 -1.56216,25.25354 -3.84837,50.46254 -6.62486,75.61048 -1.95086,17.66976 -4.03864,35.51975 -7.16908,53.03097 -1.48059,8.2822 -3.40726,16.47844 -5.11088,24.71766 -1.85894,7.21021 -3.71787,14.42043 -5.5768,21.63064 -13.13888,51.37966 59.52293,69.96085 72.66182,18.58119 v 0 c 2.13036,-8.38994 4.26072,-16.77987 6.39108,-25.16981 1.92914,-9.50583 4.09829,-18.9661 5.78742,-28.5175 3.29385,-18.6256 5.55754,-37.84664 7.62712,-56.64129 2.89992,-26.33525 5.2784,-52.73468 6.90409,-79.18025 1.02858,-18.99632 2.04567,-37.98702 2.5628,-57.00584 0.13836,-5.08857 0.44689,-17.02856 0.0553,-22.55538 -0.23912,-3.37507 -0.83402,-6.71547 -1.25103,-10.07321 -2.17946,-5.08614 -3.59091,-10.57533 -6.53839,-15.25842 -5.99421,-9.52388 -16.42535,-14.49014 -26.60385,-17.89275 -18.21378,-5.55695 -36.9563,-9.0151 -55.99725,-10.08806 -16.38904,-0.67962 -19.61597,-1.11423 -36.54213,-0.50222 -31.00117,1.12094 -61.81805,5.26215 -92.35842,10.52324 -28.42539,5.12539 -56.77795,10.63512 -85.00327,16.7756 -51.68073,11.89969 -34.85203,84.98727 16.82869,73.08759 z"/>
<path d="m 469.46909,490.46219 c 20.02009,-3.9014 40.22767,-6.82609 60.41537,-9.71365 17.46333,-2.34005 34.96475,-4.43431 52.51991,-5.96084 10.09297,-0.87764 21.09727,-1.71514 31.27147,-1.82466 4.2121,-0.0453 8.42279,0.17917 12.63419,0.26875 14.58337,1.21705 7.51554,0.45381 21.20954,2.23318 52.61955,6.60934 61.96657,-67.80593 9.34702,-74.41527 v 0 c -18.76717,-2.29741 -8.99825,-1.32578 -29.31722,-2.80767 -5.62488,-0.073 -11.24989,-0.30138 -16.87464,-0.21893 -30.62756,0.44895 -61.07618,4.78258 -91.4244,8.48317 -22.7093,3.25706 -45.47294,6.47205 -67.93298,11.18564 -51.45636,12.83522 -33.30462,85.6055 18.15174,72.77028 z"/>
<path d="m 466.31645,617.72604 c 20.29728,-3.86066 40.85546,-6.12993 61.35075,-8.63844 40.48082,-4.90175 81.09833,-9.31915 121.89244,-10.3848 7.69518,-0.20102 15.39505,-0.13277 23.09257,-0.19915 19.05501,0.15288 38.04958,1.65141 57.03016,3.17178 52.86547,4.21208 58.82225,-70.55099 5.95678,-74.76307 v 0 c -21.20035,-1.68086 -42.41815,-3.31268 -63.7018,-3.4053 -8.53319,0.0883 -17.06911,0.0321 -25.59959,0.26497 -42.76376,1.1673 -85.34896,5.71925 -127.78656,10.87165 -23.08225,2.82788 -46.25187,5.37733 -69.06322,9.99472 -51.68077,11.89953 -34.85229,84.98717 16.82847,73.08764 z"/>
<path d="m 555.07986,102.96926 c 3.34604,24.53394 4.06584,49.38671 5.2003,74.09835 1.8462,44.82265 3.45557,89.6635 3.50195,134.53058 0.0394,38.10075 -0.44574,47.96114 -1.37126,86.6575 -0.64673,15.90652 -1.18549,31.81779 -1.94019,47.71955 -1.74648,36.79883 -3.55501,63.99402 -5.8938,100.84368 -3.26211,51.39729 -6.57002,102.79181 -9.89666,154.18496 -2.81845,44.9628 -6.03861,89.91254 -7.65639,134.94145 -0.45952,12.79033 -0.64851,25.58896 -0.97276,38.38344 -1.33273,53.01626 73.64358,54.90103 74.97631,1.88477 v 0 c 0.30614,-12.28254 0.47973,-24.5691 0.91841,-36.84762 1.59182,-44.55419 4.79482,-89.02887 7.57781,-133.51753 3.32975,-51.44196 6.64245,-102.88522 9.90599,-154.33144 2.37472,-37.43503 4.21145,-65.09637 5.97951,-102.5031 0.77136,-16.31968 1.32036,-32.64911 1.98053,-48.97366 0.94459,-39.8796 1.43874,-49.90588 1.38875,-89.19179 -0.0582,-45.76724 -1.68939,-91.50814 -3.57756,-137.23004 -0.86515,-18.7407 -1.15656,-27.38547 -2.37336,-45.53588 -0.83565,-12.46514 -1.72637,-25.00699 -3.76014,-37.348522 -0.27514,-1.669629 -0.65981,-3.319353 -0.98972,-4.97903 -12.17237,-51.617182 -85.17009,-34.402853 -72.99772,17.214332 z"/>
<path d="m 542.13166,588.53164 c -16.51197,30.48856 -40.56352,55.74572 -63.51904,81.37827 -25.62381,28.01143 -52.51094,54.84769 -80.41894,80.58085 -21.64228,19.95572 -39.29658,34.92558 -61.3121,54.38676 -9.74816,8.61713 -19.42569,17.31383 -29.13854,25.97074 -39.58914,35.28739 10.31476,91.27489 49.9039,55.9875 v 0 c 9.56305,-8.52446 19.09097,-17.0885 28.68915,-25.57339 23.32031,-20.61538 40.50721,-35.14981 63.48805,-56.3722 29.38749,-27.13883 57.69756,-55.44004 84.68258,-84.97177 29.05307,-32.50164 59.67861,-65.061 77.91271,-105.22132 18.50175,-49.70096 -51.78601,-75.86639 -70.28777,-26.16544 z"/>
<path d="m 584.5332,632.73803 c 1.31949,1.83426 2.56847,3.72137 3.95847,5.50279 3.40856,4.36841 8.367,9.94693 12.0273,14.02446 8.68945,9.67997 17.65378,19.08481 26.66339,28.46549 24.30675,24.88272 48.73835,49.65015 73.42924,74.15253 16.4964,16.037 32.79712,32.34149 50.57877,46.96951 14.81248,11.56606 32.03163,19.31644 48.97259,27.16898 28.66416,12.95021 57.8447,24.69115 87.18248,36.01257 49.48148,19.08096 76.46602,-50.89643 26.98454,-69.97738 v 0 c -27.8119,-10.71649 -55.46653,-21.84902 -82.64866,-34.091 -11.2547,-5.2074 -22.82416,-10.13348 -33.0636,-17.21349 -16.03457,-12.92909 -30.2603,-27.95431 -45.1805,-42.10878 -24.27158,-24.07932 -48.27828,-48.42926 -72.17589,-72.87895 -11.36341,-11.81902 -22.65783,-23.71045 -33.3571,-36.14047 -28.3647,-44.81009 -91.73573,-4.69634 -63.37103,40.11374 z"/>
</svg>
