<?xml version="1.0" ?>
<svg xmlns="http://www.w3.org/2000/svg" viewBox="0 0 1000 1000">
<path d="m 96.8026,168.94254 c 18.51885,-3.59111 37.22374,-6.04148 55.92788,-8.42197 41.24852,-4.6748 82.63958,-8.06761 124.08867,-10.31918 21.15908,-0.67055 42.51683,-1.25165 63.49826,2.073 0.76651,0.17968 1.53303,0.35936 2.29954,0.53904 0.0236,0.0484 0.12242,0.16036 0.0707,0.14524 -14.63616,-4.28176 -20.60715,-16.12721 -23.91996,-31.21846 -1.04612,-4.7655 1.49769,-9.64232 2.24653,-14.46348 -0.0594,-0.0738 -0.12498,-0.2998 -0.17829,-0.22145 -1.18496,1.7415 -2.21781,3.58177 -3.32671,5.37266 -1.61518,2.43532 -3.20105,4.89034 -4.84553,7.30597 -4.53882,6.66723 -11.34996,16.35381 -16.01573,22.57163 -3.50309,4.66836 -7.15326,9.22451 -10.72989,13.83677 -12.80345,16.29032 -25.73382,32.46226 -39.06909,48.32086 -4.63028,5.50643 -9.40111,10.89548 -13.95149,16.46812 -4.91643,6.02093 -9.62977,12.20489 -14.44466,18.30734 -32.80669,41.66799 26.12074,88.06366 58.92743,46.39567 v 0 c 4.24827,-5.40871 8.39381,-10.89971 12.74479,-16.22615 4.67546,-5.72364 9.57677,-11.25915 14.32993,-16.91844 13.91348,-16.56591 27.42768,-33.4404 40.78508,-50.45729 15.80186,-20.47062 31.5659,-41.18911 44.11772,-63.86624 1.45358,-6.3804 5.25887,-12.65924 4.36074,-19.1412 -1.29589,-9.35264 -5.53679,-18.30992 -10.64975,-26.247731 -2.68257,-4.164646 -7.72317,-6.251487 -11.94903,-8.836551 -5.5071,-3.368836 -13.39595,-4.456206 -19.6072,-5.82606 -26.07992,-3.821776 -52.48172,-3.985948 -78.78179,-2.801733 -43.25184,2.37226 -86.44673,5.883327 -129.48593,10.809925 -20.4424,2.610759 -40.88366,5.31768 -61.119321,9.269841 -52.007614,10.378249 -37.330553,83.928119 14.677061,73.549869 z"/>
<path d="m 221.75277,300.05495 c 9.75996,9.80998 16.44087,21.92929 23.13769,33.89709 11.93614,22.30305 22.46455,45.5475 29.1211,70.02019 1.34652,4.95047 2.34928,9.9881 3.52393,14.98215 4.19349,22.19243 5.91009,45.04988 2.6027,67.48983 -0.48634,3.29972 -1.25389,6.55183 -1.88083,9.82774 -3.00468,12.72493 -7.35854,25.24412 -15.13038,35.86388 -2.87189,3.35811 -6.80678,5.30714 -10.7249,7.16867 -2.71684,1.36188 -4.71112,1.04815 1.24235,-0.21067 3.38941,-0.71667 4.16186,0.1967 1.34606,-1.42362 -12.13894,-5.41982 -24.16257,-11.09821 -36.23279,-16.66955 -48.15118,-22.22531 -79.58251,45.87073 -31.43134,68.09604 v 0 c 15.05095,6.94707 29.94227,14.31823 45.45246,20.20899 4.28259,1.17619 8.47443,2.75527 12.84776,3.52856 15.03199,2.65793 27.24081,-0.024 40.5403,-6.56007 4.751,-2.44566 6.98279,-3.46688 11.62576,-6.43307 10.58695,-6.76355 19.87012,-15.25522 27.28304,-25.42812 1.85863,-2.79914 3.82996,-5.52664 5.57589,-8.39743 10.53952,-17.32988 17.04984,-36.75293 21.42075,-56.46384 2.49192,-14.4333 3.40246,-17.3768 4.28606,-32.27745 1.50835,-25.43625 -0.79669,-50.95176 -5.90874,-75.88483 -1.61742,-6.59612 -3.02245,-13.24797 -4.85225,-19.78836 -8.25109,-29.49253 -20.871,-57.58994 -35.37739,-84.48722 -2.47849,-4.36941 -4.85857,-8.79612 -7.43546,-13.10823 -7.41292,-12.4046 -15.82002,-24.21395 -25.80185,-34.69174 -35.87935,-39.05345 -91.10927,11.68761 -55.22992,50.74106 z"/>
<path d="m 85.86907,255.90453 c 0.721909,23.41624 0.769887,46.8472 0.904516,70.27222 0.119075,66.37238 2.014711,132.71825 4.198391,199.04872 3.573595,87.12635 4.430267,174.32728 4.111799,261.51634 -0.06651,50.44795 -1.586395,100.86871 -3.422659,151.27693 -1.929151,52.99791 73.021213,55.72614 74.950363,2.72823 v 0 c 1.86331,-51.22695 3.40217,-102.46676 3.47181,-153.73389 0.31557,-88.10242 -0.54474,-176.21683 -4.15195,-264.25605 -2.16255,-65.65175 -4.0434,-131.31869 -4.159,-197.012 -0.14271,-24.75232 -0.16799,-49.51402 -1.03327,-74.25446 -3.12114,-52.94108 -77.991138,-48.52713 -74.87,4.41396 z"/>
<path d="m 629.07025,141.33465 c 0.14234,19.28326 0.2241,38.56356 0.12898,57.84779 -0.23901,44.00863 -8.2261,87.61659 -20.31735,129.8377 -3.1002,10.82553 -6.72924,21.49258 -10.09386,32.23887 -16.65566,47.93895 -36.33234,94.82927 -57.69472,140.85198 -4.21219,9.07468 -25.98465,54.20142 -30.65273,63.89361 -23.01214,47.78014 44.55918,80.32422 67.57132,32.54408 v 0 c 5.52219,-11.46589 26.57368,-55.08387 31.44849,-65.60032 22.61793,-48.79383 43.43002,-98.51584 60.93367,-149.38294 3.71226,-11.97127 7.72256,-23.85416 11.13677,-35.91382 13.64126,-48.18358 22.37703,-97.93945 22.66752,-148.10321 0.0937,-19.40619 0.0179,-38.80858 -0.12809,-58.21374 0,-53.033009 -75,-53.033009 -75,0 z"/>
<path d="m 551.29896,331.56192 c -0.26009,0.23045 -1.1037,0.81841 -0.78026,0.69136 1.747,-0.68626 3.3996,-1.59201 5.0994,-2.38801 2.67006,-1.08971 5.30658,-2.26547 8.01016,-3.26912 7.96845,-2.95811 19.23199,-6.55775 27.13265,-8.75639 6.12707,-1.70508 12.3222,-3.15538 18.48329,-4.73307 7.30531,-1.49412 14.58136,-3.13924 21.91593,-4.48235 15.88495,-2.90885 36.63725,-5.89439 52.5042,-7.99841 19.88341,-2.63663 38.02471,-4.79449 58.028,-6.48346 9.74067,-0.82244 19.50387,-1.35187 29.2558,-2.0278 32.43589,-1.75478 64.99433,-2.10726 97.39167,0.55196 14.38443,1.18069 18.25863,1.89142 31.94131,3.78162 14.07863,2.54527 7.51849,1.21501 19.70057,3.89013 51.83232,11.22101 67.70122,-62.08096 15.86891,-73.30197 v 0 c -15.9009,-3.40495 -7.43269,-1.73556 -25.42588,-4.89904 -16.01247,-2.16348 -20.5903,-2.98772 -37.33326,-4.32007 -35.72211,-2.84266 -71.61344,-2.50351 -107.37174,-0.52017 -10.49343,0.73886 -20.99889,1.32302 -31.48028,2.21657 -20.85145,1.7776 -40.37086,4.09258 -61.09488,6.85366 -17.59952,2.34481 -39.64772,5.5412 -57.16012,8.80837 -8.53232,1.59182 -16.99391,3.54179 -25.49087,5.31269 -7.24731,1.88447 -14.53513,3.61953 -21.74193,5.65342 -20.29436,5.72743 -40.56925,12.57409 -58.99058,22.97328 -44.15655,29.37173 -2.61864,91.81853 41.53791,62.4468 z"/>
<path d="m 607.54718,435.42273 c 2.65937,15.68372 3.57313,31.54064 4.2907,47.40819 0.8349,36.9784 -0.3298,74.01426 -2.7704,110.9177 -0.58215,8.80252 -1.33505,17.5929 -2.00258,26.38936 -0.86197,8.93796 -1.65609,17.88272 -2.58592,26.81388 -0.84317,8.09882 -5.01612,44.46816 -5.95422,52.66353 -2.60078,22.7208 -5.27025,45.41192 -8.31291,68.07771 -2.15204,15.89754 -5.63321,31.54876 -9.2222,47.16606 -11.82033,51.69893 61.293,68.41541 73.11333,16.71647 v 0 c 4.06429,-17.85527 8.00324,-35.74916 10.44398,-53.91804 3.09902,-23.15013 5.83691,-46.32328 8.493,-69.52843 1.08253,-9.45756 5.15586,-44.93755 6.09475,-53.99933 0.97793,-9.43858 1.81116,-18.89159 2.71674,-28.33739 0.69987,-9.28889 1.48883,-18.5715 2.09961,-27.86668 2.59297,-39.46118 3.79843,-79.06486 2.80471,-118.60328 -0.28608,-5.93588 -0.47487,-11.87726 -0.85825,-17.80765 -0.9314,-14.40754 -2.64893,-28.79571 -5.27927,-42.99234 -11.95028,-51.66905 -85.02135,-34.76881 -73.07107,16.90024 z"/>
<path d="m 683.59199,479.00717 c 17.66923,-6.12936 36.04702,-9.96223 54.28925,-13.94202 21.85101,-3.98909 43.86208,-8.11731 66.12404,-8.82817 2.5564,-0.0816 5.11537,-0.0184 7.67305,-0.0276 5.74284,0.16485 11.65921,0.82683 17.17999,2.12206 -8.45755,-2.72158 -9.46305,-2.43881 -18.31528,-11.78895 -2.51528,-2.65676 -3.36838,-6.50827 -5.35278,-9.58189 -0.18745,-0.29035 -0.18476,0.67675 -0.17357,1.02217 0.0718,2.21632 0.33254,4.42337 0.4219,6.63905 0.14533,3.60357 0.18803,7.21054 0.28205,10.81581 0.65305,44.50068 -1.45329,88.96362 -3.8032,133.38588 -2.5742,45.73661 -5.4477,91.47396 -10.24362,137.04037 -0.79798,7.58166 -1.72727,15.14892 -2.59091,22.72338 -3.315,26.2863 -6.97377,52.60627 -13.57066,78.29925 0.79865,-7.167 -1.35254,6.43401 -1.84798,4.79447 -0.16012,-0.52989 0.21926,-1.11198 0.51861,-1.57762 1.44962,-2.25493 2.57233,-4.89136 4.69369,-6.53025 12.24199,-9.45776 11.82028,-8.31569 23.35808,-9.80118 -0.83092,-0.42045 -1.64083,-0.88526 -2.49274,-1.26136 -2.73866,-1.20904 -5.54408,-2.26407 -8.27432,-3.49201 -15.01415,-6.75269 -29.63547,-14.40625 -44.35506,-21.76523 -47.43539,-23.71462 -80.97294,43.36915 -33.53755,67.08378 v 0 c 4.33986,2.1696 29.46799,14.75737 34.29958,17.07546 8.06197,3.86794 19.5722,9.23595 28.21286,12.27008 4.35282,1.52848 8.83835,2.6489 13.25752,3.97334 6.32243,0.26464 12.79641,2.19514 18.96728,0.7939 7.77814,-1.7662 15.09331,-5.59923 21.72318,-10.0336 3.7964,-2.53921 6.21941,-6.72262 8.87978,-10.43511 4.62683,-6.45666 6.91652,-15.18942 9.29086,-22.63895 7.30223,-29.00527 11.81289,-58.59851 15.39594,-88.27503 0.90667,-7.98244 1.88105,-15.95748 2.72001,-23.94732 4.89992,-46.6639 7.85942,-93.50054 10.49093,-140.33808 2.45415,-46.47725 4.62659,-93.00015 3.87502,-139.55863 -0.27956,-8.68685 -0.31234,-16.80526 -1.36339,-25.40613 -0.42962,-3.51567 -0.62428,-7.12173 -1.74724,-10.48081 -1.82793,-5.46784 -3.48754,-11.25694 -7.03827,-15.79907 -9.11565,-11.66087 -12.63909,-11.97414 -23.25449,-15.90698 -11.88759,-2.84788 -24.07931,-4.27534 -36.30635,-4.41753 -3.76785,0.0498 -7.53814,0.005 -11.30355,0.14951 -26.19113,1.00454 -52.11304,5.5693 -77.81083,10.43338 -21.25287,4.65475 -42.62459,9.23791 -63.18369,16.46989 -50.02199,17.61535 -25.11013,88.35712 24.91186,70.74178 z"/>
<path d="m 678.04523,589.05491 c 17.3906,-2.80111 34.5745,-6.73358 51.95519,-9.60179 5.20214,-0.85847 10.42674,-1.57473 15.64011,-2.3621 14.83871,-1.82807 29.74434,-3.57309 44.71866,-3.66139 8.73868,-0.0515 13.64137,0.50225 22.21094,1.17322 52.8892,3.90294 58.40879,-70.89368 5.5196,-74.79662 v 0 c -12.81964,-0.9035 -17.46666,-1.4769 -30.72475,-1.3168 -17.74352,0.21425 -35.4104,2.2161 -52.99008,4.45251 -5.88662,0.89908 -11.78498,1.72438 -17.65985,2.69724 -16.60681,2.75 -33.03932,6.433 -49.63685,9.2219 -52.46296,7.75486 -41.49593,81.94869 10.96703,74.19383 z"/>
<path d="m 678.54199,703.8265 c 20.84477,-4.84096 42.23418,-6.95048 63.49105,-9.09503 14.03867,-1.20868 28.1202,-2.1528 42.21342,-1.42723 3.50351,0.18037 6.9914,0.59043 10.4871,0.88565 52.87233,4.12515 58.70617,-70.64761 5.83385,-74.77276 v 0 c -4.99105,-0.36693 -9.97306,-0.88993 -14.97313,-1.10078 -17.07096,-0.71988 -34.12789,0.27626 -51.12765,1.79777 -25.20574,2.56775 -50.55531,5.18094 -75.20912,11.23405 -51.24992,13.63619 -31.96544,86.11453 19.28448,72.47833 z"/>
<path d="m 375.59765,328.56021 c 1.534,1.64444 3.00855,3.34642 4.60201,4.93331 4.95935,4.93885 9.78344,9.12002 15.03217,13.77356 9.78825,8.6783 19.60053,17.32526 29.33999,26.05857 9.10624,7.98033 16.38201,17.57667 23.59097,27.21 32.06363,42.24244 91.80346,-3.10238 59.73983,-45.34482 v 0 c -3.23197,-4.21598 -6.32135,-8.54521 -9.69591,-12.64795 -10.4,-12.64418 -12.11738,-13.7656 -23.56871,-25.05967 -13.8895,-12.45102 -28.03253,-24.63414 -41.72536,-37.29646 -34.2052,-40.52782 -91.52019,7.84564 -57.31499,48.37346 z"/>
<path d="m 375.29922,510.16681 c 23.62867,-4.25537 47.30307,-8.24028 71.0419,-11.83074 20.22115,-2.7994 40.62864,-4.73309 61.05833,-4.13756 1.9301,0.11006 4.35399,0.16501 6.35932,0.49157 2.21764,0.36114 -4.64112,-0.41544 -6.54633,-1.60646 -5.54718,-3.46778 -12.31833,-6.33533 -15.48201,-12.06139 -4.55127,-8.23749 -4.25197,-18.33581 -6.37796,-27.50371 1.01384,-3.07452 2.12745,-6.11792 3.04152,-9.22356 0.0526,-0.17861 -0.31848,0.20683 -0.43126,0.35497 -1.00074,1.31441 -1.92926,2.68228 -2.89929,4.01951 -5.35439,7.38133 -10.47915,14.84747 -15.49788,22.46428 -10.1129,15.77403 -19.2098,32.2517 -26.19973,49.66392 -5.1931,12.93626 -5.86715,16.36377 -9.79691,29.66235 -4.61794,18.75252 -8.40499,38.0347 -7.93943,57.45505 0.33386,13.92669 1.35531,16.01756 4.05613,29.57198 5.28119,21.30491 18.05523,39.1601 28.78056,57.89445 0.87073,2.04585 4.0394,7.43559 3.50672,10.03071 -0.0527,0.25676 -1.19337,-0.41245 -1.72873,0.0643 -0.62727,0.55862 -0.99471,1.35374 -1.49207,2.03061 -13.14694,18.13208 -31.739,31.31068 -49.72058,44.22717 -16.49833,11.4008 -34.06326,21.0978 -51.7318,30.52834 -46.76575,25.0093 -11.39725,91.14605 35.36849,66.13675 v 0 c 20.60808,-11.03945 41.07061,-22.43015 60.25464,-35.84938 5.07705,-3.67846 10.23777,-7.24411 15.23113,-11.03539 19.50873,-14.81227 38.87722,-31.42831 52.40635,-52.12342 3.12094,-4.77402 5.47481,-10.00763 8.21221,-15.01145 4.65549,-13.76512 7.04826,-17.38599 7.34596,-32.18236 0.31748,-15.77966 -5.30856,-30.57122 -12.64401,-44.21805 -6.0225,-10.42822 -2.47962,-4.44259 -8.50107,-14.3063 -3.47162,-5.68684 -7.15077,-11.35996 -10.00066,-17.39891 -0.74595,-1.58067 -1.34971,-3.2246 -2.02457,-4.83691 -1.36746,-5.03246 -2.03181,-6.50709 -2.33581,-11.91995 -0.72283,-12.8699 2.18567,-25.69029 4.98212,-38.14518 2.58157,-9.12327 3.11486,-11.8335 6.56679,-20.70497 5.24899,-13.48988 12.31811,-26.17738 20.09036,-38.3575 4.40324,-6.72944 8.94265,-13.28282 13.6597,-19.79347 1.2728,-1.75678 6.67632,-9.18323 7.40685,-10.67324 2.15766,-4.40079 3.71721,-9.0704 5.57581,-13.6056 -1.93616,-10.11639 -1.12495,-21.17557 -5.80846,-30.34915 -3.30952,-6.48232 -10.67354,-10.01918 -16.80416,-13.94204 -6.08661,-3.89471 -19.68043,-4.28191 -27.01831,-4.72443 -24.812,-0.5449 -49.59427,1.39343 -74.14992,4.95961 -24.75972,3.75277 -49.45641,7.89572 -74.0982,12.35836 -52.06227,10.1005 -37.77801,83.72767 14.28426,73.62717 z"/>
<path d="m 307.26967,859.40971 c -0.1235,0.0647 -0.50989,0.19167 -0.37049,0.19409 0.56326,0.01 1.11949,-0.13008 1.68132,-0.17136 2.73985,-0.20133 5.14049,-0.27265 7.95029,-0.21279 6.42155,0.13682 9.90166,0.51491 16.61168,1.03006 32.4245,2.83555 64.466,8.69916 96.29287,15.34918 39.13194,8.6932 77.85755,19.08092 116.50498,29.69 22.89409,6.23809 45.61827,13.10523 68.61174,18.97879 14.91179,3.80915 17.4496,4.24747 32.36745,7.55259 27.87224,5.90686 56.04491,10.23658 84.15981,14.7964 22.92967,3.76969 45.80813,7.83266 68.82353,11.05181 25.82359,3.60239 51.83412,5.45158 77.87239,6.49124 15.86129,0.57017 31.75769,0.35166 47.56509,-1.17479 6.10934,-0.58995 12.18495,-1.48827 18.27743,-2.2324 52.62348,-6.57791 43.32091,-80.99876 -9.30257,-74.42085 v 0 c -4.78403,0.61542 -9.55422,1.3502 -14.3521,1.84627 -13.03684,1.34791 -26.15504,1.52139 -39.24355,1.03959 -23.56239,-0.90866 -47.09815,-2.59206 -70.46701,-5.83152 -22.46545,-3.11635 -44.78248,-7.15891 -67.16621,-10.80199 -26.71631,-4.33299 -53.49008,-8.43153 -79.98504,-13.99729 -13.34655,-2.94026 -15.90368,-3.39096 -29.29146,-6.80449 -22.79727,-5.8127 -45.31744,-12.64981 -68.0178,-18.81839 -40.15354,-11.02012 -80.39187,-21.79906 -121.058,-30.78806 -6.92889,-1.44005 -13.84153,-2.96065 -20.78667,-4.32014 -28.20099,-5.52027 -56.67375,-9.79247 -85.29357,-12.40318 -17.29789,-1.23379 -34.94558,-2.497 -51.94539,1.83072 -51.00114,14.53902 -30.43987,86.66553 20.56128,72.12651 z"/>
</svg>
