<?xml version="1.0" ?>
<svg xmlns="http://www.w3.org/2000/svg" viewBox="0 0 1000 1000">
<path d="m 329.63442,64.404352 c -10.01758,18.755926 -20.80875,37.087598 -32.52719,54.835358 -4.85154,7.34773 -9.89826,14.56471 -14.84739,21.84706 -26.40397,38.70035 -56.19341,74.90061 -85.93464,111.04154 -22.95838,27.89855 -27.14605,32.72992 -50.22558,60.17001 -22.25075,26.66314 -45.13004,52.78667 -68.060006,78.86377 -35.017847,39.82776 21.307111,89.35048 56.324956,49.52272 v 0 c 23.28991,-26.49134 46.5296,-53.02874 69.13343,-80.112 23.31582,-27.72398 27.72231,-32.81412 50.90459,-60.98908 31.14938,-37.85791 62.28109,-75.82869 89.91473,-116.37963 5.35868,-7.90562 10.82487,-15.73942 16.07605,-23.71685 13.093,-19.89048 25.15573,-40.43794 36.29311,-61.481976 23.75944,-47.412962 -43.29262,-81.013884 -67.05206,-33.600922 z"/>
<path d="m 252.56581,218.05509 c 0.96523,20.8487 3.03622,41.63408 4.74182,62.43186 3.01158,40.4585 5.78222,80.96759 6.63002,121.53987 0.17576,8.41145 0.17752,16.82564 0.26628,25.23847 0.12088,40.11325 -3.3325,80.11318 -7.08155,120.01488 -4.95692,52.80084 69.71475,59.81098 74.67166,7.01014 v 0 c 3.98693,-42.50243 7.59174,-85.11198 7.40547,-127.83928 -0.0994,-8.92065 -0.10815,-17.84278 -0.29831,-26.76196 -0.89198,-41.83817 -3.72789,-83.61223 -6.84458,-125.33306 -1.67519,-20.4212 -3.7189,-40.82867 -4.65767,-61.30095 -3.53556,-52.91503 -78.3687,-47.915 -74.83314,5.00003 z"/>
<path d="m 500.60531,77.065529 c -0.0823,-0.05552 -0.20478,-0.256457 -0.24702,-0.166574 -0.60025,1.277488 -1.00399,2.638561 -1.52994,3.94839 -1.25002,3.113049 -2.48902,6.231032 -3.79781,9.319832 -1.91529,4.520124 -3.81723,9.047824 -5.87379,13.505443 -6.54838,14.19373 -9.64945,19.64064 -17.09514,33.84307 -8.1771,14.86683 -12.10007,22.74061 -21.53054,36.90229 -4.12136,6.18902 -8.64572,12.09999 -12.96859,18.14998 -30.67532,43.26112 30.50514,86.64258 61.18047,43.38146 v 0 c 5.22705,-7.41816 10.68583,-14.67835 15.68117,-22.25449 10.54613,-15.99471 15.0271,-24.90271 24.09785,-41.42265 3.49384,-6.69547 7.09529,-13.33587 10.48152,-20.0864 6.14621,-12.25262 10.5217,-21.75156 15.68559,-34.22146 3.5329,-8.53133 6.78088,-16.60711 9.04699,-25.550895 0.73497,-2.90074 1.05733,-5.890667 1.586,-8.836 4.60467,-52.832726 -70.11208,-59.344722 -74.71676,-6.511996 z"/>
<path d="m 335.83128,275.55588 c 18.62632,-2.53009 37.0824,-6.14891 55.66147,-8.9887 7.64617,-1.16871 15.31038,-2.21629 22.96557,-3.32443 38.86443,-5.44204 77.97532,-9.04005 117.17901,-10.79714 24.55675,-1.10062 36.64383,-1.10902 61.09556,-1.48407 39.71523,0.13576 79.65508,-0.18657 119.09596,5.1074 52.58164,6.90444 62.346,-67.45722 9.76436,-74.36167 v 0 c -4.30499,-0.55557 -8.59913,-1.20302 -12.91499,-1.66672 -38.8661,-4.17583 -78.08092,-3.91155 -117.11034,-4.06996 -25.81161,0.40586 -38.22125,0.41327 -64.20229,1.59677 -41.3755,1.88475 -82.65256,5.70204 -123.6704,11.45171 -8.0873,1.17466 -16.18378,2.2877 -24.26189,3.52399 -17.31732,2.65028 -34.52931,5.94669 -51.86625,8.46953 -52.71006,5.84369 -44.44584,80.38698 8.26423,74.54329 z"/>
<path d="m 458.92459,244.77828 c 0,28.32177 0,56.64355 0,84.96532 -0.33053,45.32711 -0.14113,90.68028 -1.49309,135.99419 -0.25308,8.48249 -0.6729,16.95919 -1.00935,25.43878 -2.08853,52.99187 72.85329,55.9455 74.94182,2.95363 v 0 c 0.35063,-8.9536 0.78565,-17.9043 1.05189,-26.8608 1.36217,-45.82442 1.17804,-91.68809 1.50873,-137.5258 0,-28.32177 0,-56.64355 0,-84.96532 0,-53.03301 -75,-53.03301 -75,0 z"/>
<path d="m 345.46328,377.6348 c 25.50322,-5.63783 51.46593,-8.90096 77.36603,-12.07983 49.39413,-5.48737 99.09752,-6.98922 148.75723,-7.22728 21.29283,-0.0376 42.56518,0.93156 63.81815,2.12077 52.9507,2.95359 57.12771,-71.93 4.17702,-74.8836 v 0 c -22.7696,-1.26636 -45.56006,-2.28552 -68.37181,-2.23622 -52.59684,0.27553 -105.23894,1.90518 -157.5474,7.78864 -28.91927,3.5724 -57.91389,7.24942 -86.35113,13.74728 -51.45633,12.83533 -33.30443,85.60558 18.15191,72.77024 z"/>
<path d="m 337.48729,486.10453 c 18.83487,-3.14313 37.75762,-5.7445 56.65363,-8.49433 34.57482,-5.14487 69.29329,-9.39706 104.15279,-12.06431 7.58193,-0.58012 15.17498,-1.00445 22.76247,-1.50668 20.7968,-1.1111 41.63166,-1.59918 62.45599,-1.15029 11.60441,0.25014 19.4972,0.54467 30.76417,1.87741 3.55555,0.42058 7.07876,1.07998 10.61814,1.61996 52.47227,7.69157 63.34979,-66.51543 10.87752,-74.207 v 0 c -4.97689,-0.70836 -9.93452,-1.56859 -14.93068,-2.12508 -13.25311,-1.47618 -23.3351,-1.89132 -36.76189,-2.16315 -22.67428,-0.45903 -45.35932,0.0822 -68.0021,1.31359 -8.09322,0.54103 -16.19231,1.00039 -24.27965,1.62309 -36.29863,2.7949 -72.45304,7.21279 -108.45773,12.56428 -18.38844,2.67617 -36.81713,5.17141 -55.1347,8.2891 -52.6253,6.56339 -43.34326,80.9868 9.28204,74.42341 z"/>
<path d="m 303.94718,584.0524 c 16.11928,-0.88133 32.17134,-2.9329 48.23963,-4.49727 37.57307,-3.90426 75.16609,-7.74556 112.91165,-9.54613 9.45863,-0.4512 18.92582,-0.70065 28.38872,-1.05097 59.10247,-1.35751 118.21801,0.78238 177.24793,3.57247 25.89945,1.25224 51.72215,3.5106 77.48307,6.40843 52.70283,5.90868 61.05896,-68.62437 8.35613,-74.53305 v 0 c -27.3649,-3.0585 -54.79264,-5.4713 -82.30319,-6.79198 -61.13966,-2.88179 -122.36861,-5.07565 -183.58223,-3.60365 -10.0087,0.37668 -20.02196,0.64725 -30.02611,1.13003 -38.69118,1.86718 -77.23183,5.75494 -115.74691,9.76812 -13.66145,1.33131 -27.31354,2.75695 -40.96869,4.144 -53.03301,0 -53.03301,75 0,75 z"/>
<path d="m 298.31661,700.41084 c 20.83616,-3.52387 41.68771,-6.92795 62.59039,-10.05183 45.6108,-6.46513 91.52729,-10.33785 137.49376,-13.10034 34.33789,-1.87145 68.7389,-1.64499 103.0613,0.29298 11.48348,0.67487 22.90522,2.05637 34.33783,3.28224 -2.00823,-0.32366 5.79713,0.69472 4.36217,0.42108 -1.37634,-0.26246 -2.96553,0.13515 -4.16101,-0.59563 -7.88255,-4.8185 -18.3573,-7.71368 -22.73827,-15.84754 -10.01101,-18.58676 -7.08247,-24.2896 -2.24411,-36.03947 -16.55329,19.94246 -35.48935,37.74412 -54.14828,55.67106 -37.96181,35.1814 -77.56002,68.74844 -119.18499,99.54096 -9.51043,7.03543 -19.23327,13.77908 -28.84991,20.66863 -43.97228,30.525 -89.49546,59.49634 -139.145,79.98301 -7.40631,3.05603 -15.0179,5.58873 -22.52684,8.3831 -6.89636,1.89227 -13.79271,3.78454 -20.68907,5.67681 -51.05242,14.35791 -30.74727,86.55695 20.30516,72.19904 v 0 c 8.92295,-2.55673 17.8459,-5.11346 26.76884,-7.67019 8.9965,-3.40877 18.10964,-6.52431 26.9895,-10.2263 54.14808,-22.57419 104.00499,-53.98036 152.00684,-87.39889 10.23461,-7.3473 20.58164,-14.54047 30.70382,-22.04189 43.86151,-32.50516 85.60693,-67.90182 125.59411,-105.04152 14.73572,-14.16879 29.48517,-28.27916 43.4438,-43.22397 4.60346,-4.9287 11.8572,-12.97093 16.22972,-18.4021 1.81277,-2.25168 3.46098,-4.63104 5.19147,-6.94655 1.73804,-3.03425 4.98296,-5.61362 5.21413,-9.10275 0.7957,-12.00982 3.02704,-25.20926 -2.22322,-36.03994 -6.91412,-14.26304 -20.16855,-17.29672 -32.9063,-18.53986 -12.69618,-1.3601 -25.38261,-2.86902 -38.13706,-3.59201 -37.22344,-2.06886 -74.53023,-2.33548 -111.76821,-0.27436 -48.1668,2.91282 -96.28198,6.97909 -144.0726,13.78922 -20.90469,3.12807 -41.76356,6.51082 -62.59908,10.05312 -52.44886,7.84967 -41.34775,82.02356 11.10111,74.17389 z"/>
<path d="m 347.15125,784.45116 c 12.60408,7.09128 25.914,12.81292 39.01106,18.90742 17.68154,8.22781 14.7589,6.9111 33.10194,15.86461 39.50142,19.89081 77.47519,42.61714 115.80359,64.63929 27.34508,15.77154 54.99421,31.03008 83.32107,44.97017 13.33806,6.44565 27.25948,11.68726 41.7706,14.78511 10.14253,2.16524 13.78735,2.33701 24.21058,3.55895 28.95995,2.85353 58.03967,0.91261 86.95729,-1.33028 52.87067,-4.14644 47.00671,-78.91685 -5.86396,-74.77041 v 0 c -24.18074,1.91996 -48.49901,3.72636 -72.73626,1.56775 -6.28539,-0.65576 -8.94572,-0.78547 -14.93999,-1.92502 -9.19133,-1.74733 -17.92131,-5.13249 -26.32099,-9.19802 -26.89039,-13.19222 -53.07757,-27.75466 -79.03443,-42.68854 -39.79417,-22.86409 -79.23008,-46.44297 -120.28366,-67.01563 -6.16209,-3.00455 -12.30352,-6.05185 -18.48627,-9.01365 -15.81653,-7.57679 -31.93931,-14.51255 -47.57835,-22.45543 -45.32815,-27.52924 -84.26037,36.57445 -38.93222,64.10368 z"/>
</svg>
