<?xml version="1.0" ?>
<svg xmlns="http://www.w3.org/2000/svg" width="1000" height="1000">
<path d="m 399.20884,117.12967 c 18.83773,11.84193 36.98283,24.73195 55.28878,37.36797 15.87048,11.17323 8.24464,5.68133 22.89912,16.44567 42.7587,31.37186 87.12521,-29.09808 44.36651,-60.46993 v 0 c -16.03991,-11.756207 -7.82378,-5.85101 -24.66022,-17.69915 -19.09705,-13.181902 -38.03738,-26.611902 -57.69267,-38.959941 -44.77073,-28.426771 -84.97226,34.888609 -40.20152,63.315381 z"/>
<path d="m 278.20595,300.76259 c 21.50092,-5.55174 42.90017,-11.50355 64.49926,-16.67166 8.44185,-2.01992 16.91782,-3.89446 25.37672,-5.84169 40.37267,-8.9704 81.10662,-16.41711 122.15914,-21.50551 27.17877,-3.36878 35.3278,-3.7694 62.34499,-6.00035 36.143,-2.0911 72.66559,-3.65466 108.71357,0.79115 3.77342,0.46537 7.5147,1.16203 11.27206,1.74305 6.2679,1.30634 8.55836,1.60243 14.23546,3.34212 1.46991,0.45044 3.58348,1.21451 5.05219,2.02565 0.10346,0.0571 0.35528,0.29794 0.24447,0.25681 -0.50907,-0.18895 -0.97737,-0.47349 -1.46605,-0.71023 -5.54278,-4.11714 -7.95093,-5.31314 -11.72459,-13.29796 -1.92666,-4.07668 -2.14793,-8.75996 -3.35469,-13.1045 -0.042,-0.1513 -0.32313,-0.44576 -0.36725,-0.29506 -0.60899,2.07994 -0.90873,4.23849 -1.40505,6.34815 -0.7998,3.39966 -1.65539,6.78594 -2.48308,10.17891 -5.5543,20.97028 -12.63361,41.50853 -19.75196,61.98908 -2.042,5.87515 -3.99228,11.78607 -6.24663,17.58306 -2.05739,5.29051 -4.45494,10.44237 -6.68241,15.66356 -2.69968,4.91538 -5.39935,9.83077 -8.09903,14.74615 -25.08023,46.72775 41.00277,82.19655 66.08301,35.46881 v 0 c 3.7034,-7.0144 7.40681,-14.0288 11.11022,-21.0432 2.75512,-6.58022 5.68612,-13.08953 8.26535,-19.74066 2.37011,-6.11185 4.42538,-12.34139 6.57695,-18.53355 7.85391,-22.60328 15.61098,-45.28652 21.63233,-68.45943 1.36364,-5.65218 4.07163,-16.31458 5.06233,-22.37653 0.5819,-3.56055 1.54625,-7.14542 1.30111,-10.74487 -0.42715,-6.27202 -1.02518,-12.70763 -3.29753,-18.56912 -3.87848,-10.00448 -8.43069,-12.72804 -15.51354,-18.54508 -1.79486,-1.09262 -3.54198,-2.26783 -5.38458,-3.27785 -13.14363,-7.20469 -28.0913,-10.30209 -42.65836,-13.07402 -5.05365,-0.74101 -10.08878,-1.62165 -15.16094,-2.22304 -40.52637,-4.80511 -81.53349,-3.37695 -122.15784,-0.88432 -28.87148,2.40847 -37.40213,2.82908 -66.46052,6.45668 -43.24262,5.39832 -86.15358,13.24456 -128.6823,22.70785 -8.91246,2.05622 -17.84253,4.03751 -26.73737,6.16866 -22.01732,5.27523 -43.83551,11.33101 -65.75281,16.99683 -51.21724,13.75844 -31.75987,86.19055 19.45737,72.43211 z"/>
<path d="m 344.14723,403.87063 c 13.06723,-1.14675 25.93567,-3.86217 38.83828,-6.11994 18.35203,-3.21136 18.11299,-3.06078 37.89958,-6.10311 34.9411,-5.24747 70.00143,-9.68286 105.24212,-12.33519 24.37201,-1.83432 29.40999,-1.83433 53.48323,-2.80796 21.56253,-0.85271 43.12316,-0.1299 64.66808,0.70959 52.99394,2.03505 55.87194,-72.90971 2.87799,-74.94476 v 0 c -23.5241,-0.89128 -47.06507,-1.64598 -70.60641,-0.70237 -25.503,1.05092 -31.13416,1.06642 -56.90832,3.02643 -36.88865,2.80522 -73.59414,7.42795 -110.17084,12.9279 -7.38653,1.13898 -14.78119,2.22638 -22.15957,3.41692 -15.66049,2.5269 -31.215,5.65932 -46.90108,8.02565 -52.96713,2.64241 -49.2302,77.54926 3.73694,74.90684 z"/>
<path d="m 293.44793,251.85082 c 0.0231,21.55244 0.0187,43.10384 -0.15466,64.65564 -0.92396,48.93688 -10.12204,97.35773 -21.75395,144.77204 -3.10796,12.66873 -6.62046,25.23478 -9.93069,37.85217 -20.32441,73.13785 -44.63825,145.20117 -72.57187,215.78601 -5.84867,14.77887 -12.04792,29.41659 -18.07188,44.12489 -15.30327,35.14297 -20.97235,49.17427 -37.55758,83.34837 -6.45634,13.30337 -29.22173,57.47077 -36.346392,71.34743 -24.221542,47.17857 42.499022,81.433 66.720562,34.25443 v 0 c 8.33913,-16.24372 30.12621,-58.48417 37.59841,-73.90442 17.23,-35.55723 23.11672,-50.13229 38.99584,-86.63568 6.24194,-15.25939 12.6646,-30.44609 18.7258,-45.77817 28.90771,-73.12335 54.05608,-147.77901 75.06224,-223.54934 3.5086,-13.4305 7.23641,-26.80563 10.52581,-40.2915 12.84153,-52.64764 22.69051,-106.41348 23.60131,-160.72749 0.17234,-21.7514 0.18243,-43.50235 0.15705,-65.25438 0,-53.03301 -75,-53.03301 -75,0 z"/>
<path d="m 423.37293,430.03948 c -17.83464,20.43268 -37.54013,39.13706 -57.15769,57.82644 -22.38667,20.3109 -44.65716,40.76803 -67.55983,60.5013 -20.72129,17.85376 -41.92917,35.15729 -62.81758,52.81588 -40.49918,34.2391 7.92221,91.5136 48.4214,57.2745 v 0 c 21.26977,-17.98309 42.8566,-35.61188 63.9541,-53.7964 23.65101,-20.38546 46.65526,-41.51223 69.75582,-62.51331 19.2283,-18.34612 16.96705,-15.91468 34.14768,-33.23512 11.41859,-11.51152 22.88775,-23.09541 32.7789,-35.97871 30.33105,-43.50319 -31.19175,-86.39777 -61.5228,-42.89458 z"/>
<path d="m 334.05706,572.86876 c 0.85393,30.13871 0.82544,60.29727 0.93944,90.44583 0.2382,35.91304 -0.45939,71.83626 -2.76912,107.68081 -1.50171,23.30502 -2.18756,28.64631 -4.37729,51.49264 -3.6159,28.83677 -6.50797,58.26095 -16.4039,85.78015 -17.4524,50.07907 53.3701,74.7605 70.8225,24.68142 v 0 c 3.51479,-10.28042 4.38339,-12.18072 7.17263,-23.34244 6.55825,-26.24422 9.99691,-53.15665 13.06895,-79.98768 2.30122,-24.16958 3.03673,-29.95917 4.60814,-54.58259 2.37947,-37.28532 3.12136,-74.65067 2.87755,-112.00616 -0.11926,-31.48314 -0.0593,-62.98013 -1.06159,-94.45024 -3.03226,-52.94625 -77.90957,-48.65799 -74.87731,4.28826 z"/>
<path d="m 541.90823,446.3476 c -0.0721,-0.195 -0.11324,-0.76561 -0.2162,-0.585 -0.91694,1.60854 -1.54576,3.36502 -2.32577,5.04423 -3.53156,7.60275 -7.16783,15.51272 -11.00647,22.93806 -6.58846,12.74448 -8.97221,16.37968 -16.37979,28.95704 -13.16005,21.93465 -6.5188,10.66219 -19.89833,33.83235 -26.50782,45.93294 38.45117,83.42067 64.95899,37.48773 v 0 c 12.85265,-22.28547 6.31395,-11.16722 19.61926,-33.35289 3.37068,-5.75878 6.845,-11.45814 10.11205,-17.27633 6.55498,-11.67355 10.26269,-19.06434 15.9006,-30.88008 2.72947,-5.72034 8.10824,-17.24549 10.29533,-23.41021 1.14493,-3.22722 1.88424,-6.5843 2.82637,-9.87646 9.10643,-52.24531 -64.7796,-65.12376 -73.88604,-12.87844 z"/>
<path d="m 399.89541,616.24487 c 23.86772,-1.66431 47.56187,-5.07886 71.29362,-8.01873 28.27301,-3.36525 56.65727,-5.91072 85.09206,-7.42504 17.84504,-0.95035 24.38705,-0.97887 42.05741,-1.39817 27.53939,-0.23408 55.11662,-0.39936 82.61124,1.4092 1.68143,0.16542 3.36286,0.33084 5.0443,0.49626 52.79538,5.0147 59.88724,-69.64925 7.09186,-74.66396 v 0 c -2.43303,-0.22538 -4.86607,-0.45077 -7.2991,-0.67616 -29.70872,-1.8919 -59.49459,-1.88162 -89.25127,-1.54367 -19.16685,0.46659 -25.6625,0.48825 -45.05356,1.5302 -29.91308,1.60734 -59.772,4.29687 -89.51526,7.84051 -22.91761,2.84016 -45.79677,6.15903 -68.84675,7.75624 -52.81616,4.79096 -46.04071,79.48429 6.77545,74.69332 z"/>
<path d="m 497.78176,577.78882 c -0.28678,1.8655 -0.65054,3.72079 -0.86034,5.59651 -1.24342,11.11699 -1.25309,22.36198 -1.2801,33.53077 -0.0315,13.00297 0.14232,23.10194 0.30034,36.25209 0.49818,49.13626 1.89946,98.25735 1.994,147.39684 0.12444,27.70863 -1.88475,55.33548 -4.41495,82.90446 -4.82242,52.8133 69.86686,59.63323 74.68928,6.81993 v 0 c 2.71641,-29.88913 4.861,-59.8408 4.72551,-89.878 -0.10706,-49.39027 -1.48162,-98.7621 -1.99931,-148.14896 -0.24153,-19.89583 -0.83432,-39.86188 0.3828,-59.73336 10.42295,-51.99867 -63.11428,-66.73895 -73.53723,-14.74028 z"/>
<path d="m 404.59662,730.81984 c 18.62332,-4.31213 37.43674,-7.6533 56.29142,-10.7622 25.17013,-3.89899 50.4952,-6.83234 75.92796,-8.30679 14.99369,-0.86926 20.81251,-0.84851 35.64995,-1.14396 14.36059,-0.21634 28.7083,0.41843 43.04918,1.04999 52.98246,2.31493 56.25625,-72.61359 3.27379,-74.92851 v 0 c -15.94439,-0.69157 -31.89679,-1.36662 -47.86224,-1.10569 -16.58816,0.34977 -22.719,0.32621 -39.52237,1.32367 -27.71761,1.64533 -55.32044,4.84634 -82.75143,9.11601 -22.24958,3.68842 -44.52783,7.51832 -66.3811,13.15719 -50.62905,15.78605 -28.30421,87.38634 22.32484,71.60029 z"/>
<path d="m 380.80222,823.94335 c 14.9197,0.71191 29.85736,-0.2975 44.74521,-1.20568 33.11901,-2.34213 66.17099,-5.50466 99.27966,-8.001 21.74115,-1.55984 43.49112,-3.2862 65.29695,-3.57681 11.49612,-0.15321 13.8183,0.0257 24.92652,0.35056 3.29982,0.1558 6.59964,0.3116 9.89946,0.46739 52.97562,2.46653 56.46381,-72.45231 3.48819,-74.91884 v 0 c -3.76382,-0.17308 -7.52765,-0.34616 -11.29147,-0.51925 -13.01047,-0.34964 -15.67064,-0.55005 -29.04207,-0.35267 -23.01442,0.33972 -45.97312,2.09524 -68.91953,3.76213 -32.76036,2.47276 -65.4664,5.5814 -98.23473,7.92951 -12.11261,0.74931 -24.27002,1.6549 -36.41125,1.15782 -52.96714,-2.64242 -56.70407,72.26443 -3.73694,74.90684 z"/>
<path d="m 377.82854,938.12913 c 20.89169,-1.83614 41.77029,-3.81704 62.65055,-5.77845 46.32221,-4.3422 92.76575,-7.09467 139.23807,-9.16776 36.78216,-1.63747 73.61946,-1.5813 110.35603,0.88147 13.17229,1.23805 6.9602,0.56392 18.6423,1.96614 52.66431,6.24261 61.49269,-68.23598 8.82838,-74.47858 v 0 c -14.23891,-1.67054 -6.73704,-0.8771 -22.51155,-2.32343 -39.50464,-2.59097 -79.11057,-2.76806 -118.66306,-0.97084 -47.69596,2.13463 -95.36267,4.96091 -142.90453,9.42173 -20.45558,1.92153 -40.90992,3.8591 -61.37557,5.66965 -52.8775,4.05836 -47.13811,78.83843 5.73938,74.78007 z"/>
</svg>
