<?xml version="1.0" ?>
<svg xmlns="http://www.w3.org/2000/svg" viewBox="0 0 1000 1000">
<path d="m 381.04376,128.9976 c 20.43238,-6.95518 41.8627,-10.31821 63.11091,-13.6689 30.30604,-4.31906 60.87407,-6.6162 91.47853,-7.09317 19.71455,-0.30724 27.03281,0.0575 46.65353,0.52356 20.37599,0.79299 40.7443,1.76035 61.11683,2.6345 52.98427,2.27314 56.19898,-72.657927 3.21471,-74.931067 v 0 c -20.86289,-0.89493 -41.72116,-1.892651 -62.58846,-2.68317 -21.30766,-0.485362 -29.25844,-0.875542 -50.71588,-0.507947 -33.77249,0.578567 -67.50274,3.167765 -100.93887,7.988139 -7.14171,1.144169 -14.30429,2.164972 -21.42514,3.432508 -18.99858,3.381811 -37.95292,7.691723 -56.18876,14.061511 -49.67004,18.584609 -23.38743,88.828646 26.2826,70.244036 z"/>
<path d="m 160.37939,207.06283 c 0.20024,23.99721 1.08113,47.98641 1.80669,71.97231 1.27496,53.90702 7.95813,107.4404 14.85333,160.85307 6.7921,52.59627 81.17445,42.9908 74.38236,-9.60547 v 0 c -6.5853,-50.97732 -13.05234,-102.06414 -14.26999,-153.5155 -0.70284,-23.2302 -1.55483,-46.46366 -1.77239,-69.70441 0,-53.03301 -75,-53.03301 -75,0 z"/>
<path d="m 319.72407,269.41436 c 18.42975,-4.32673 36.60224,-9.67529 55.0163,-14.0779 6.88773,-1.64679 13.80998,-3.14571 20.71497,-4.71856 47.66137,-10.09267 95.87432,-17.41092 144.36817,-22.05138 10.58799,-1.01318 21.19801,-1.7812 31.79701,-2.67181 38.98864,-2.71346 78.09877,-3.62395 117.17414,-2.98242 19.23443,0.31579 26.76969,0.7733 45.58883,1.60663 23.71017,1.22755 47.41979,2.74001 70.98975,5.64581 3.10983,0.44568 6.23643,0.78805 9.34186,1.26637 0.76257,0.11746 -1.56965,-0.11862 -2.27353,-0.43463 -4.22344,-1.89611 -8.30262,-4.09843 -12.45393,-6.14764 -3.75878,-4.98887 -7.51756,-9.97774 -11.27633,-14.96662 -0.49935,-1.5531 -0.69201,-3.24093 -1.49803,-4.65931 -0.27025,-0.47557 -0.18235,1.08011 -0.22607,1.62536 -0.16956,2.1146 -0.17528,4.24273 -0.41348,6.3507 -1.11741,9.88849 -1.61383,10.14 -4.30485,20.67184 -1.77201,5.15873 -3.31239,10.40293 -5.31601,15.4762 -12.6703,32.08177 -31.17539,62.43801 -51.44023,90.22114 -6.46853,8.86836 -13.35724,17.42249 -20.03586,26.13373 -32.20497,42.13479 27.38262,87.67949 59.58758,45.5447 v 0 c 7.42463,-9.74049 15.10092,-19.29419 22.27389,-29.22147 24.25752,-33.572 46.05861,-70.08639 60.75901,-108.94044 2.70598,-7.15208 4.74904,-14.53771 7.12356,-21.80656 1.45686,-6.38131 3.18904,-12.70595 4.37057,-19.14392 1.39584,-7.60567 2.3098,-17.79106 2.39429,-25.76406 0.0586,-5.52523 -0.20917,-16.77235 -2.63237,-21.6813 -3.28105,-6.6468 -8.33219,-12.26196 -12.49828,-18.39294 -4.71984,-2.50427 -9.30649,-5.27756 -14.15951,-7.51283 -1.41893,-0.65355 -3.02638,-0.78023 -4.55412,-1.10656 -4.48781,-0.95861 -9.10913,-1.1986 -13.62795,-1.95272 -25.51274,-3.12161 -51.16621,-4.83856 -76.83141,-6.13228 -20.10637,-0.88026 -27.81979,-1.35011 -48.39531,-1.67759 -41.34286,-0.65801 -82.72131,0.33809 -123.96947,3.24616 -11.173,0.94568 -22.35774,1.76161 -33.519,2.83706 -51.40713,4.95338 -102.51723,12.75033 -153.03407,23.50166 -7.46259,1.70689 -14.94287,3.33816 -22.38776,5.12065 -17.18732,4.11507 -34.18402,8.97104 -51.32933,13.24504 -52.00763,10.37818 -37.33066,83.92807 14.67697,73.54989 z"/>
<path d="m 451.8506,95.580074 c 0.11669,23.782046 0.21785,47.563046 0.20619,71.345806 0.14054,60.34933 -0.33151,120.69407 -1.5618,181.03066 -1.65251,43.4431 -0.62483,21.77301 -3.07835,65.01048 -2.99389,52.94843 71.8865,57.18244 74.88039,4.234 v 0 c 2.53974,-45.07055 1.47791,-22.49795 3.18243,-67.71794 1.23651,-60.8333 1.7207,-121.67468 1.57732,-182.5208 0.0114,-23.79488 -0.0886,-47.58805 -0.20618,-71.382206 0,-53.033013 -75,-53.033013 -75,0 z"/>
<path d="m 324.64856,335.64312 c 8.93826,2.93711 18.10268,5.59407 26.45952,10.05604 2.22062,1.18566 4.28525,2.64282 6.42787,3.96422 9.05192,6.44622 4.59491,3.13739 13.37163,9.92569 42.11893,32.22569 87.69295,-27.33948 45.57401,-59.56517 v 0 c -13.27835,-10.08283 -6.21067,-4.97892 -21.27398,-15.21301 -4.43459,-2.49919 -8.7593,-5.20425 -13.30378,-7.49756 -14.18367,-7.15758 -30.09662,-12.23941 -45.58369,-15.75647 -52.3869,-8.25305 -64.05848,65.83321 -11.67158,74.08626 z"/>
<path d="m 303.3377,426.95927 c 11.37022,3.42744 21.47986,9.80202 31.69198,15.68592 11.75835,7.50124 6.10785,3.69859 16.97667,11.37046 43.45079,30.40607 86.45146,-31.04263 43.00067,-61.44869 v 0 c -14.63648,-10.17696 -7.10557,-5.18386 -22.61151,-14.95095 -16.23031,-9.30441 -32.62867,-18.74369 -50.90613,-23.42704 -51.45638,-12.83518 -69.60805,59.93512 -18.15168,72.7703 z"/>
<path d="m 572.65589,308.27452 c -0.29679,-0.1425 -1.13511,-0.64768 -0.89036,-0.42749 1.18036,1.0619 2.46989,1.99601 3.72078,2.97383 1.49745,1.17056 13.57537,10.45864 14.63273,11.32918 6.26872,5.16119 8.53825,7.63338 14.49199,13.43609 11.48195,11.56232 5.77289,5.78238 17.12771,17.33927 37.1699,37.82722 90.66567,-14.73896 53.49577,-52.56618 v 0 c -12.03368,-12.24519 -5.85065,-5.99219 -18.55487,-18.75326 -3.50202,-3.35282 -6.91852,-6.7973 -10.50606,-10.05845 -7.64277,-6.94745 -10.32144,-8.85992 -17.98567,-14.78863 -3.59652,-2.7821 -7.12045,-5.65821 -10.74782,-8.39995 -1.81693,-1.37333 -3.69388,-2.66539 -5.54082,-3.99809 -45.19379,-27.74925 -84.43717,36.16442 -39.24338,63.91368 z"/>
<path d="m 553.07137,417.96087 c 1.27974,0.82343 2.59782,1.59012 3.83923,2.47029 2.03671,1.44404 4.78461,4.14193 6.43723,5.64511 2.40306,2.18574 4.80335,4.37467 7.22679,6.5378 15.17751,13.54725 3.09504,2.45612 17.66218,15.99037 9.71011,10.12121 5.06391,5.04103 13.96439,15.21691 35.07993,39.77308 91.32757,-9.83743 56.24764,-49.61052 v 0 c -12.19316,-13.73941 -5.80231,-6.85893 -19.216,-20.60099 -17.13835,-15.86559 -2.84193,-2.7782 -18.35878,-16.6282 -8.42871,-7.52328 -16.54792,-15.57091 -26.26475,-21.46755 -44.15655,-29.37175 -85.69447,33.07503 -41.53793,62.44678 z"/>
<path d="m 376.90448,557.14774 c 20.7113,-5.03997 41.8255,-8.65848 62.97054,-11.33663 7.6278,-0.9661 15.28182,-1.71252 22.92274,-2.56878 32.20694,-3.24387 64.70201,-4.9417 97.04814,-2.7935 18.44148,1.22476 22.16302,2.2592 40.10783,5.18667 52.37359,8.33711 64.16403,-65.73033 11.79045,-74.06744 v 0 c -22.26538,-3.47356 -26.47139,-4.64821 -49.16898,-6.06955 -36.06577,-2.25846 -72.28316,-0.42946 -108.1884,3.21694 -8.41161,0.9554 -16.83791,1.78939 -25.23485,2.86618 -24.56962,3.15072 -49.10824,7.40203 -73.11523,13.52767 -50.93887,14.75572 -30.07111,86.79417 20.86776,72.03844 z"/>
<path d="m 275.1015,683.58856 c 16.76487,-5.24309 33.66738,-10.1813 50.81244,-14.03856 7.12393,-1.60273 14.29913,-2.96834 21.44869,-4.45251 53.87554,-9.81422 108.70383,-13.58935 163.40404,-14.5474 12.98467,-0.22742 25.97316,-0.0908 38.95975,-0.13614 50.10081,0.77701 100.19008,3.25014 150.09809,7.74266 23.432,2.10926 33.89463,3.42475 56.52766,6.00511 52.69254,5.99962 61.1773,-68.51889 8.48475,-74.51852 v 0 c -23.66558,-2.69124 -34.42895,-4.04398 -58.95595,-6.24165 -52.01915,-4.66102 -104.22625,-7.22941 -156.44567,-7.98703 -13.69556,0.0582 -27.39328,-0.0755 -41.08668,0.17456 -59.03909,1.07815 -118.19994,5.32574 -176.31717,16.0921 -8.05654,1.69125 -16.14164,3.2517 -24.16961,5.07375 -18.30093,4.15363 -36.36001,9.39674 -54.2673,14.98344 -50.80576,15.20772 -29.2988,87.05791 21.50696,71.85019 z"/>
<path d="m 387.43624,650.65677 c 2.3146,25.43571 2.321,51.02555 2.49901,76.54492 -0.0586,47.56625 -0.18578,95.12734 0.39499,142.69086 0.0644,6.21962 0.12883,12.43923 0.19324,18.65884 0.5494,53.03017 75.54537,52.25321 74.99598,-0.77695 v 0 c -0.0649,-6.2662 -0.12988,-12.53241 -0.19482,-18.79861 -0.5805,-47.43564 -0.44107,-94.86885 -0.39129,-142.30722 -0.20497,-28.33068 -0.24503,-56.7463 -3.03371,-84.96742 -6.33255,-52.65357 -80.79595,-43.698 -74.4634,8.95558 z"/>
<path d="m 510.86797,637.36209 c 2.84361,18.39692 4.90171,36.89713 6.77327,55.41377 0.45455,5.80341 1.00245,11.60026 1.36366,17.41023 0.83798,13.47832 1.18167,24.18409 0.91627,37.74292 -0.42804,21.86859 -2.35241,43.71102 -3.94842,65.51389 -1.53971,21.09994 -3.49243,42.16406 -5.53505,63.21982 -5.11577,52.78568 69.53446,60.02048 74.65024,7.2348 v 0 c 2.09563,-21.64342 4.10417,-43.29495 5.68499,-64.98354 1.73557,-23.74738 3.76082,-47.52226 4.14739,-71.34316 0.25089,-15.46026 -0.1749,-27.94329 -1.14758,-43.28143 -0.40382,-6.36779 -1.00956,-12.72117 -1.51434,-19.08176 -2.01535,-19.8062 -4.21731,-39.59629 -7.26639,-59.27472 -8.08165,-52.41362 -82.2057,-40.98443 -74.12404,11.42918 z"/>
<path d="m 275.18857,766.03693 c 0.81729,1.00765 1.68198,1.97863 2.45187,3.02294 3.47095,4.70817 5.49089,8.30029 8.93196,13.38147 2.82079,4.16526 5.68141,8.30427 8.60649,12.39697 9.27681,12.97992 11.18272,15.16844 21.11346,27.96522 4.39264,5.14781 8.78529,10.29563 13.17793,15.44344 34.50902,40.26944 91.45861,-8.53367 56.94959,-48.80312 v 0 c -3.6373,-4.22254 -7.27461,-8.44508 -10.91192,-12.66762 -8.91591,-11.44981 -10.42688,-13.15268 -18.759,-24.76463 -7.30997,-10.18745 -13.75719,-20.95718 -21.42586,-30.88618 -1.55222,-2.00974 -3.26964,-3.88628 -4.90447,-5.82942 -35.87925,-39.05354 -91.1093,11.68738 -55.23005,50.74093 z"/>
<path d="m 651.38299,706.2045 c -1.06617,4.55911 -2.058,9.13543 -3.13273,13.69252 -1.0125,4.29317 -1.90686,8.61828 -3.10469,12.86347 -2.94906,10.45163 -7.83267,24.07295 -11.74749,33.87336 -2.75361,6.89341 -5.81852,13.65835 -8.72778,20.48753 -14.20793,28.8228 -6.6857,14.35242 -22.62436,43.38113 -25.45417,46.52511 40.34227,82.52273 65.79643,35.99763 v 0 c 18.12828,-33.23968 9.50982,-16.52791 25.88529,-50.11989 3.35297,-7.95106 6.89215,-15.82614 10.05892,-23.85318 5.55565,-14.08231 10.1968,-27.64305 14.26919,-42.18528 2.80887,-10.03027 4.66735,-20.32136 7.0679,-30.45108 9.67761,-52.14253 -64.06307,-65.82874 -73.74068,-13.68621 z"/>
<path d="m 185.03036,972.66337 c 18.90111,-3.29981 37.98758,-5.29246 57.05925,-7.2973 54.66623,-5.62244 109.48184,-9.45549 164.34619,-12.46863 50.91146,-2.53766 101.8955,-3.92935 152.87324,-3.36611 33.54832,0.37067 45.17738,1.04696 78.61229,2.33483 65.21484,2.95465 130.27856,8.4157 195.1395,15.72964 52.69962,5.93712 61.09597,-68.59141 8.39635,-74.52852 v 0 c -24.8382,-2.79577 -31.96025,-3.71164 -57.16447,-6.07303 -47.7429,-4.47306 -95.60198,-7.74909 -143.49569,-10.07294 -34.77541,-1.32938 -46.48905,-2.0142 -81.41237,-2.38994 -52.37641,-0.56351 -104.75904,0.86722 -157.06708,3.47922 -56.1111,3.08969 -112.17309,7.00925 -168.08123,12.76778 -19.67738,2.07494 -39.38578,4.08581 -58.88536,7.51222 -52.58949,6.84435 -42.91012,81.21713 9.67938,74.37278 z"/>
</svg>
