<?xml version="1.0" ?>
<svg xmlns="http://www.w3.org/2000/svg" viewBox="0 0 1000 1000">
<path d="m 299.96743,135.03731 c 8.99683,-1.31425 0.22925,-0.002 14.48468,-2.32903 4.6075,-0.75204 9.20346,-1.58421 13.82894,-2.21634 23.39393,-3.19705 46.98182,-4.56737 70.51822,-6.21572 57.97515,-3.50988 116.13327,-5.29681 174.20449,-3.30526 10.03072,0.344 20.04927,0.98055 30.0739,1.47082 31.52922,2.64744 16.68567,1.07192 44.5523,4.51794 52.64133,6.43351 61.73968,-68.012575 9.09835,-74.446083 v 0 c -31.61432,-3.823844 -14.94675,-2.098709 -50.02215,-4.984032 -10.71033,-0.51406 -21.4144,-1.181413 -32.131,-1.542181 -60.3479,-2.03158 -120.7838,-0.195973 -181.03048,3.473097 -20.16028,1.41978 -36.26061,2.37139 -56.17622,4.428787 -7.00144,0.723288 -13.98854,1.590533 -20.96173,2.548596 -8.32762,1.144151 -14.85725,2.45516 -22.88147,3.744491 -1.73959,0.279516 -3.48634,0.512448 -5.22951,0.768672 -52.38689,8.253125 -40.71521,82.339373 11.67168,74.086243 z"/>
<path d="m 167.1044,216.39651 c 1.38758,22.62274 1.24754,45.30526 2.5636,67.93421 0.44588,7.66679 1.09976,15.32007 1.64964,22.98011 1.97564,22.73758 5.13586,45.3709 9.82215,67.71262 1.47339,7.02433 3.2394,13.98409 4.8591,20.97613 12.04474,51.64712 85.08478,34.61329 73.04005,-17.03383 v 0 c -1.40615,-5.98259 -2.93649,-11.93734 -4.21844,-17.94777 -4.15957,-19.5023 -6.94378,-39.26936 -8.69905,-59.12838 -0.50799,-6.93668 -1.11581,-13.86678 -1.52395,-20.81006 -1.36121,-23.15679 -1.15974,-46.37367 -2.6494,-69.52244 -3.42198,-52.92249 -78.26568,-48.08308 -74.8437,4.83941 z"/>
<path d="m 307.71915,262.42258 c 29.51739,-10.26069 60.2747,-16.19039 90.8459,-22.3015 40.51741,-7.60681 81.35891,-13.57635 122.47726,-16.72246 27.01923,-2.06733 32.24819,-1.89929 58.93384,-2.64671 42.61569,-0.47804 85.20221,2.00824 127.52797,6.84699 16.51118,2.09706 33.01364,4.51047 49.28282,8.06241 8.65073,1.94959 -6.45036,-0.0204 -13.30105,-8.72399 -5.03988,-6.40299 -6.58055,-14.91163 -9.66618,-22.45335 -0.31782,-0.7768 -0.081,-3.17251 -0.52773,-2.462 -1.52666,2.4279 -1.99719,5.37705 -2.99578,8.06557 -1.74383,4.45608 -3.40006,8.94743 -5.23149,13.36822 -4.6873,11.3144 -10.26917,23.52295 -15.5251,34.52295 -6.59603,13.80468 -13.21443,27.19127 -20.76417,40.51278 -3.8706,6.82966 -8.07217,13.46637 -12.10826,20.19955 -27.18182,45.53733 37.2177,83.97823 64.39952,38.4409 v 0 c 4.62944,-7.78407 9.4403,-15.46306 13.88834,-23.3522 8.10628,-14.37747 15.53234,-29.36309 22.6306,-44.26158 6.09604,-12.79491 11.94976,-25.69007 17.34733,-38.79657 2.07845,-5.04692 3.96012,-10.17265 5.94017,-15.25898 2.13277,-6.05603 8.75397,-23.00023 7.9242,-29.14684 -1.38085,-10.22882 -3.82148,-20.85056 -9.49467,-29.47323 -6.14243,-9.33587 -16.88297,-12.23914 -26.68974,-14.49247 -18.71207,-4.00758 -37.64093,-6.94466 -56.63183,-9.27057 -45.85717,-5.19298 -91.98936,-7.91378 -138.15725,-7.2967 -28.67732,0.84183 -34.72158,0.68017 -63.67922,2.93369 -43.74569,3.40433 -87.2039,9.73929 -130.30985,17.86535 -34.35276,6.89417 -68.88624,13.71548 -101.99245,25.44621 -49.77645,18.29768 -23.89963,88.69221 25.87682,70.39453 z"/>
<path d="m 417.6656,123.79438 c 0.99303,34.65759 0.78984,69.35059 0.89614,104.02186 -0.003,56.33667 -0.53403,112.67165 -0.81994,169.00735 -0.2691,53.03233 74.72993,53.4129 74.99904,0.38058 v 0 c 0.28686,-56.53923 0.82083,-113.07774 0.82055,-169.61794 -0.11064,-36.0657 0.13913,-72.15736 -1.02579,-108.20581 -3.12114,-52.941085 -77.99114,-48.527122 -74.87,4.41396 z"/>
<path d="m 303.29024,322.00227 c 15.87378,7.29807 31.36651,15.45047 46.60818,23.98395 11.03245,7.28251 5.80408,3.55167 15.72881,11.13104 42.44829,31.79061 87.407,-28.24033 44.95871,-60.03094 v 0 c -15.44063,-11.41914 -7.40504,-5.86857 -24.14536,-16.59567 -18.08058,-10.05832 -36.39932,-19.81652 -55.34959,-28.14553 -49.25504,-19.6581 -77.05579,49.99905 -27.80075,69.65715 z"/>
<path d="m 272.23801,399.74879 c 11.41195,8.89607 23.71568,16.57715 35.1901,25.38404 2.92682,2.24641 5.74454,4.63152 8.61681,6.94728 9.17841,7.78401 18.2925,15.64329 27.43357,23.47102 40.28202,34.49434 89.06438,-22.47303 48.78236,-56.96737 v 0 c -9.76764,-8.36419 -19.49515,-16.77555 -29.33968,-25.04951 -3.76011,-2.99462 -7.4596,-6.06697 -11.28032,-8.98386 -8.62708,-6.58628 -10.94181,-7.85999 -19.32598,-13.77048 -11.06156,-7.79793 -3.06886,-2.30081 -13.64845,-10.0034 -1.79681,-1.30818 -3.6328,-2.56171 -5.44919,-3.84256 -44.4168,-28.97668 -85.39602,33.83816 -40.97922,62.81484 z"/>
<path d="m 547.78509,299.2603 c -0.99159,-0.17287 -2.08772,-0.99432 -2.97475,-0.51861 -0.66658,0.35749 1.34072,0.70127 2.0222,1.02946 2.0166,0.97115 4.06537,1.87538 6.07137,2.86825 7.30659,3.61638 14.06444,7.74855 20.86171,12.23426 7.89565,5.49751 15.49963,11.39411 23.1251,17.25514 42.05662,32.30698 87.74558,-27.17006 45.68896,-59.47704 v 0 c -9.17746,-7.04628 -18.33556,-14.12892 -27.9073,-20.64014 -3.48571,-2.24678 -6.9144,-4.58461 -10.45715,-6.74034 -6.80994,-4.14378 -12.2845,-7.01185 -19.37217,-10.49123 -3.07623,-1.51014 -11.99238,-5.67407 -15.25891,-6.8286 -2.87785,-1.01715 -5.86221,-1.70325 -8.79331,-2.55488 -52.22954,-9.19645 -65.2353,64.66728 -13.00575,73.86373 z"/>
<path d="m 524.01565,391.53058 c 11.87006,6.86093 23.93173,13.92287 35.20206,21.72339 2.61774,1.81182 5.10551,3.80458 7.65826,5.70686 6.85932,6.77595 4.0305,3.16532 8.70774,10.65485 32.04338,42.25781 91.80493,-3.05837 59.76156,-45.31618 v 0 c -15.48961,-19.22057 -7.3418,-10.75012 -24.05849,-25.77607 -3.75425,-2.73225 -7.43997,-5.56124 -11.26275,-8.19675 -3.40565,-2.34793 -6.92612,-4.52509 -10.41458,-6.74811 -10.79792,-6.88096 -21.6653,-13.73505 -33.04674,-19.61787 -47.77912,-23.01424 -80.32618,44.55564 -32.54706,67.56988 z"/>
<path d="m 261.64201,546.49669 c 0.87935,-0.40492 1.73647,-0.86208 2.63804,-1.21474 5.28091,-2.06571 12.57023,-4.22064 17.50722,-5.61505 6.37924,-1.80177 12.7773,-3.54029 19.20322,-5.16775 24.18994,-6.12647 29.61049,-7.02053 55.11482,-12.48496 51.22653,-10.55814 103.14922,-17.59878 155.3447,-20.98156 35.41522,-2.29526 45.37296,-1.93888 80.46714,-2.31506 39.96104,0.1044 79.9254,2.61977 119.44727,8.61704 14.16769,2.14988 17.95758,3.0759 31.02477,5.7539 51.96872,10.57129 66.91878,-62.92358 14.95006,-73.49487 v 0 c -15.11974,-3.0561 -19.67179,-4.14968 -35.90612,-6.5801 -43.14238,-6.45879 -86.75344,-9.21715 -130.36446,-9.29117 -14.00275,0.16623 -28.01079,0.0794 -42.00825,0.49868 -70.11859,2.10025 -140.00144,10.23433 -208.69726,24.46385 -26.61804,5.72488 -33.55627,6.93038 -58.95256,13.41516 -11.98483,3.06026 -26.26181,6.97398 -38.16793,11.06523 -7.81168,2.6843 -9.06801,3.3969 -15.08207,6.21959 -47.45522,23.67493 -13.9738,90.78674 33.48141,67.11181 z"/>
<path d="m 233.54614,537.76771 c -0.15315,-0.39974 -0.41163,-1.62459 -0.45946,-1.1992 -0.12787,1.1373 0.18232,2.28288 0.20898,3.42704 0.058,2.48788 0.14426,4.97896 0.0448,7.46552 -0.1551,3.87787 -0.41711,7.75361 -0.80798,11.61485 -1.73482,17.13738 -2.88268,21.72539 -5.98681,39.93088 -12.04367,57.48024 -33.5367,112.45555 -57.28422,165.99398 -5.48228,12.35973 -11.28352,24.5755 -16.92528,36.86326 -15.67025,31.53557 -17.97906,36.99396 -34.68995,67.48653 -5.5552,10.13664 -11.09727,20.2881 -17.06188,30.18938 -5.34361,8.87043 -11.232114,17.40099 -16.848173,26.10149 -28.672969,44.61346 34.419993,85.16316 63.092963,40.5497 v 0 c 6.35394,-9.92412 12.99181,-19.67209 19.06182,-29.77237 6.28078,-10.45099 12.12412,-21.16052 17.97615,-31.85748 17.64975,-32.26206 20.08359,-38.03577 36.63797,-71.42426 5.90548,-12.88294 11.98152,-25.68906 17.71645,-38.64882 26.0999,-58.98036 49.43599,-119.63034 62.28124,-183.01752 3.36967,-20.19912 5.17535,-28.31798 6.89641,-47.92501 1.12926,-12.86499 1.58346,-26.13611 -0.27866,-38.97688 -0.36318,-2.50443 -0.9815,-4.96517 -1.47225,-7.44775 -14.59939,-50.9839 -86.70151,-30.33724 -72.10212,20.64666 z"/>
<path d="m 385.47759,624.98014 c 28.76019,-7.5307 58.30737,-11.45344 87.7284,-15.36412 35.38485,-4.42574 70.98433,-6.92201 106.64586,-6.51838 3.11734,0.10417 6.23467,0.20834 9.352,0.3125 53.00518,1.71793 55.43469,-73.24271 2.42952,-74.96064 v 0 c -3.67666,-0.11603 -7.35331,-0.23206 -11.02996,-0.34809 -4.72074,-0.0421 -9.44139,-0.15678 -14.16222,-0.12635 -34.4967,0.2223 -68.90983,3.20052 -103.14264,7.29822 -31.50121,4.20828 -63.20109,8.40343 -94.01652,16.41535 -2.97046,0.77231 -5.89024,1.72784 -8.83536,2.59177 -49.99226,17.69953 -24.96134,88.39927 25.03092,70.69974 z"/>
<path d="m 287.02714,754.76977 c 39.86918,-11.17815 80.90429,-17.65751 121.65321,-24.7038 56.34471,-9.22947 113.11116,-17.18348 170.2417,-19.19035 9.25588,-0.32514 18.52145,-0.25328 27.78218,-0.37992 22.31018,-0.084 44.58189,1.12329 66.71685,3.85179 52.65038,6.35898 61.64334,-68.09991 8.99296,-74.4589 v 0 c -4.24875,-0.50482 -8.48813,-1.09591 -12.74624,-1.51448 -21.28875,-2.0927 -42.68697,-2.80229 -64.07069,-2.87023 -10.26393,0.1616 -20.53345,0.10932 -30.79178,0.48481 -60.0353,2.19751 -119.69764,10.43836 -178.91004,20.17503 -44.0709,7.62769 -88.45301,14.6863 -131.49038,27.09917 -50.56301,15.99633 -27.94078,87.50322 22.62223,71.50688 z"/>
<path d="m 339.9927,723.98186 c 1.98533,24.50406 3.30726,49.0584 4.9514,73.58759 2.72344,37.48641 5.71021,74.95266 7.87843,112.47663 0.54496,10.09634 1.00347,20.19745 1.35074,30.30255 0.0382,1.11169 0.25297,10.08694 0.50064,11.37116 0.88066,4.56643 2.23333,9.02904 3.34999,13.54357 13.61016,7.86002 25.45025,20.34505 40.83046,23.58008 9.84969,2.07175 25.77095,-12.27086 33.07485,-18.96093 5.31878,-4.87178 18.04629,-17.67266 22.86062,-22.3447 4.49565,-4.36279 9.05881,-8.65546 13.58822,-12.98318 38.33442,-36.64658 -13.49167,-90.85965 -51.82609,-54.21307 v 0 c -21.73994,20.79291 -6.98077,6.52926 -26.15272,25.37686 -2.76863,2.72179 -5.54601,5.4347 -8.33173,8.139 -1.33895,1.29982 -5.90714,3.80908 -4.04215,3.87323 40.66928,1.3988 -30.32323,-32.63714 49.94698,20.47322 0.52016,2.97256 0.8686,5.98033 1.56048,8.91768 0.24522,1.04108 -0.1681,-2.13299 -0.21408,-3.20157 -0.54793,-12.73394 -0.77539,-25.48407 -1.6214,-38.20554 -2.18655,-37.75224 -5.16859,-75.44824 -7.92124,-113.16216 -1.7414,-25.96638 -3.0462,-51.97195 -5.36519,-77.89403 -6.59278,-52.62162 -81.011,-43.29802 -74.41821,9.32361 z"/>
<path d="m 588.29623,722.42599 c -16.6093,15.62891 -35.17124,28.92784 -53.40975,42.54439 -20.23203,15.37822 -10.03543,7.62946 -30.58989,23.24617 -42.22751,32.08329 3.14511,91.802 45.37262,59.71871 v 0 c 20.39819,-15.49797 10.3695,-7.87555 30.08633,-22.86689 20.49567,-15.30236 41.25597,-30.36769 59.88194,-47.96994 38.65925,-36.30374 -12.68199,-90.97619 -51.34125,-54.67244 z"/>
<path d="m 437.02106,816.4126 c 13.42602,9.32515 26.91811,18.55292 40.44353,27.73357 29.96359,20.73228 61.41459,39.15303 92.84558,57.53632 23.16035,13.42635 46.0831,27.38594 70.19425,39.08007 3.98994,1.93515 8.04671,3.72935 12.07007,5.59402 20.79943,9.1158 42.67496,15.63659 65.10975,19.20783 5.30522,0.8445 10.65168,1.40566 15.97752,2.10848 17.00834,1.22744 20.48179,1.96065 38.32349,1.0574 7.7044,-0.39003 15.37027,-1.33943 23.05541,-2.00914 52.81133,-4.8439 45.96103,-79.5304 -6.8503,-74.68651 v 0 c -14.97118,1.4637 -29.95697,3.19279 -44.99482,1.24668 -3.9245,-0.48267 -7.86392,-0.8565 -11.7735,-1.448 -16.32765,-2.47026 -32.26979,-7.0215 -47.42621,-13.5774 -3.24076,-1.48695 -6.51009,-2.91314 -9.72227,-4.46086 -22.74128,-10.95741 -44.25577,-24.26227 -66.10086,-36.85381 -29.98332,-17.53359 -60.00964,-35.06612 -88.58754,-54.85036 -12.87576,-8.73937 -25.71917,-17.52719 -38.51578,-26.38039 -42.92287,-31.14687 -86.97119,29.55523 -44.04832,60.7021 z"/>
</svg>
