<?xml version="1.0" ?>
<svg xmlns="http://www.w3.org/2000/svg" viewBox="0 0 1000 1000">
<path d="m 336.00752,149.0935 c 32.26468,-9.01874 65.86524,-11.52876 99.09436,-14.44517 55.65074,-3.80803 111.51908,-5.92412 167.29428,-3.88519 9.64731,0.35267 19.28087,1.01394 28.9213,1.5209 32.49377,2.70011 17.01578,1.18524 46.44554,4.42493 52.71826,5.76932 60.87732,-68.785553 8.15906,-74.554878 v 0 c -32.18218,-3.502968 -15.28261,-1.870983 -50.71081,-4.768902 -10.40021,-0.53489 -20.79333,-1.232272 -31.20063,-1.60467 -58.51528,-2.093818 -117.12704,0.107534 -175.50779,4.158695 -38.05594,3.381405 -76.4703,6.564532 -113.36293,17.115803 -50.9389,14.755637 -30.07128,86.794112 20.86762,72.038482 z"/>
<path d="m 141.15627,225.25932 c 3.92741,30.79795 9.80329,61.28448 15.60157,91.77092 4.68856,23.93269 10.78328,47.5637 18.36978,70.7415 2.19478,6.70533 4.6812,13.31167 7.0218,19.9675 17.66725,50.00368 88.38314,25.01841 70.71588,-24.98527 v 0 c -2.0205,-5.6874 -4.16438,-11.33247 -6.0615,-17.0622 -6.79469,-20.52152 -12.20827,-41.46367 -16.3671,-62.67671 -5.69531,-29.93627 -11.43993,-59.87168 -15.30536,-90.11246 -8.73752,-52.30828 -82.7126,-39.95155 -73.97507,12.35672 z"/>
<path d="m 298.05705,270.50789 c 2.09823,-0.4631 4.21094,-0.86491 6.2947,-1.38929 11.43487,-2.87763 22.66644,-6.4328 34.15564,-9.13308 17.42848,-4.09616 22.90639,-4.8843 41.31961,-8.33709 52.05885,-9.04161 104.67102,-14.7487 157.38794,-18.15729 10.98147,-0.71005 21.97648,-1.19222 32.96472,-1.78833 37.23336,-1.57299 74.55467,-2.15113 111.77865,-0.006 17.10806,0.98594 22.03315,1.66298 38.44379,3.34977 15.51414,1.86406 31.05255,4.12473 46.14812,8.24993 0.64081,0.18443 1.28161,0.36886 1.92241,0.5533 0.0367,0.0254 0.15193,0.0917 0.1101,0.0762 -12.37821,-4.60748 -16.25437,-10.51352 -21.75348,-22.34506 -0.91683,-1.97261 -0.9395,-4.24788 -1.40925,-6.37181 -0.41707,0.46892 -0.95703,0.85242 -1.25121,1.40676 -12.55435,23.65719 7.90585,-11.43541 -11.47151,22.14059 -3.30249,5.72239 -6.78594,11.3385 -10.21018,16.98888 -7.7877,12.85053 -16.66867,27.25342 -24.51687,40.02284 -17.02457,27.2654 -8.45631,13.69172 -25.7038,40.72166 -28.52368,44.70906 34.70448,85.04762 63.22816,40.33857 v 0 c 17.73157,-27.79754 8.94098,-13.86761 26.37242,-41.78936 6.0908,-9.91037 18.89124,-30.68889 24.98447,-40.79402 10.78196,-17.88101 22.95899,-37.11669 29.45747,-57.11579 1.78221,-5.48478 2.62617,-11.23119 3.93926,-16.84678 -0.22932,-5.67004 0.81294,-11.53753 -0.68797,-17.01012 -1.79444,-6.54284 -4.87101,-12.8682 -8.98586,-18.26235 -6.09999,-7.99649 -15.351,-11.59129 -24.50341,-14.12854 -19.02652,-5.08515 -38.50674,-8.23984 -58.06506,-10.44842 -18.35282,-1.85596 -23.75749,-2.59339 -42.84248,-3.6677 -39.65237,-2.23206 -79.40448,-1.65719 -119.06443,0.0485 -11.50033,0.62928 -23.00777,1.13971 -34.50098,1.88785 -55.48861,3.61203 -110.86202,9.67378 -165.65038,19.2421 -8.33741,1.57605 -16.69806,3.03379 -25.01224,4.72815 -14.4904,2.95302 -23.40956,5.14187 -37.27759,8.81528 -5.71107,1.51277 -11.42703,3.02032 -17.07135,4.76572 -0.0488,0.0151 0.0608,0.0821 0.0912,0.12317 -52.41903,8.04641 -41.03968,82.17812 11.37935,74.13171 z"/>
<path d="m 456.98855,118.60938 c -0.85662,31.80201 -1.02529,63.60856 -0.93482,95.42014 -0.0569,35.4794 0.69656,70.97968 -0.68163,106.44546 -0.32348,8.3242 -0.65894,16.6527 -1.33254,24.95591 -0.62478,7.70144 -1.70732,15.35889 -2.56097,23.03834 -5.728,52.72277 68.83325,60.82338 74.56125,8.10062 v 0 c 0.96512,-9.06136 2.17365,-18.10008 2.89537,-27.18406 0.71524,-9.0023 1.06856,-18.03102 1.41393,-27.05508 1.3838,-36.15703 0.66502,-72.3474 0.70428,-108.51808 -0.0908,-30.87574 0.0688,-61.7461 0.89038,-92.61281 1.83171,-53.001363 -73.12354,-55.591804 -74.95525,-2.59044 z"/>
<path d="m 315.12397,325.98137 c 12.21794,7.46123 24.71371,14.56473 36.27011,23.04685 2.56833,1.8851 5.03456,3.9055 7.55183,5.85825 42.05925,32.30355 87.74338,-27.1772 45.68413,-59.48076 v 0 c -3.51828,-2.68286 -6.97125,-5.4536 -10.55485,-8.04857 -13.67755,-9.90424 -28.30697,-18.41884 -42.78256,-27.07834 -46.45873,-25.5751 -82.62739,40.12747 -36.16866,65.70257 z"/>
<path d="m 283.43769,401.55369 c 6.85688,5.68761 14.23201,10.73488 21.23943,16.2341 2.62314,2.05857 5.16311,4.22097 7.74466,6.33146 9.89803,9.0267 4.98746,4.41137 14.72649,13.85156 38.15493,36.83342 90.24526,-17.1258 52.09033,-53.95922 v 0 c -12.50576,-12.03306 -6.01735,-5.99808 -19.49197,-18.07617 -8.35011,-6.76455 -16.81766,-13.28922 -25.4211,-19.72554 -6.21331,-4.64824 -8.62629,-6.6822 -15.24871,-10.49362 -1.99285,-1.14694 -4.1006,-2.08153 -6.1509,-3.1223 -48.7619,-20.85132 -78.25012,48.10841 -29.48823,68.95973 z"/>
<path d="m 572.82981,313.24914 c 11.98726,2.83661 23.38587,7.59542 34.4533,12.91526 8.75348,4.97359 4.54162,2.44228 12.65265,7.56546 45.02874,28.0163 84.64977,-35.66394 39.62104,-63.68024 v 0 c -12.78245,-7.87515 -6.03188,-3.93742 -20.30079,-11.72867 -3.88915,-1.80897 -7.73071,-3.72398 -11.66745,-5.42691 -12.60306,-5.45173 -25.71168,-9.8459 -39.07755,-12.98725 -51.86087,-11.08828 -67.54207,62.25407 -15.6812,73.34235 z"/>
<path d="m 555.77127,398.05198 c -0.28444,0.011 -1.09926,-0.11043 -0.85334,0.0329 0.57193,0.33345 1.26859,0.37946 1.90033,0.57747 1.58731,0.49751 3.18954,0.95138 4.75673,1.50904 1.94315,0.69144 3.88055,1.40763 5.76919,2.23647 4.9645,2.17869 8.76039,4.44708 13.56704,7.10603 9.13347,5.01777 17.99,10.50654 26.82627,16.02257 45.00583,28.05308 84.67887,-35.59478 39.67304,-63.64785 v 0 c -10.12071,-6.30024 -20.26451,-12.56942 -30.7274,-18.29414 -3.85503,-2.06569 -7.64638,-4.25487 -11.56507,-6.19707 -14.02479,-6.95107 -29.06617,-12.40973 -44.67888,-14.20007 -52.93019,-3.30071 -57.5981,71.55389 -4.66791,74.8546 z"/>
<path d="m 144.02974,505.54073 c 8.83206,24.90488 14.28296,50.7984 20.23166,76.49148 6.01829,25.15704 12.40748,50.27931 20.62709,74.8229 1.54289,4.60705 3.25605,9.15533 4.88407,13.733 17.84777,49.93954 88.47294,24.69899 70.62517,-25.24055 v 0 c -1.35056,-3.75667 -2.77519,-7.48752 -4.05168,-11.27 -7.62846,-22.60452 -13.44659,-45.78386 -19.0176,-68.96298 -6.48438,-28.00514 -12.55557,-56.18903 -22.16337,-83.33858 -16.8042,-50.30029 -87.93955,-26.53556 -71.13534,23.76473 z"/>
<path d="m 223.22113,543.5643 c 21.49252,-10.72161 45.11964,-16.52503 68.28095,-22.38715 31.18526,-7.16045 62.89241,-12.2957 94.85547,-14.18242 4.49621,-0.2654 9.00111,-0.35419 13.50166,-0.53128 8.65909,-0.17439 17.32325,0.0366 25.95001,0.81193 2.65952,0.23902 5.66613,0.41157 8.27579,1.18781 -1.45474,-0.20991 -2.44922,-0.29813 -3.97298,-1.16515 -11.21933,-6.3838 -11.99343,-7.15503 -18.88098,-20.17775 -1.09345,-2.06746 -0.38791,-4.86956 -1.69597,-6.80836 -0.67878,-1.00607 -0.30719,2.40777 -0.46078,3.61165 -2.40158,19.07179 -6.63414,37.85355 -10.69568,56.62188 -2.56861,11.86949 -6.0968,28.012 -8.68147,39.85594 -6.14206,25.57842 -2.72379,13.03259 -10.20538,37.65091 -15.2607,50.78987 56.56702,72.37177 71.82772,21.5819 v 0 c 8.69683,-29.21718 4.84483,-14.79443 11.65317,-43.24218 2.27534,-10.42654 6.46919,-29.61915 8.72946,-40.07748 4.75821,-22.01642 9.68117,-44.06781 12.13959,-66.48901 0.50271,-8.01046 1.79229,-17.76728 -1.15477,-25.48803 -2.42564,-6.35475 -6.00913,-12.37242 -10.44095,-17.53242 -5.77868,-6.72817 -14.5668,-9.53988 -22.71101,-11.7333 -17.35403,-3.42011 -35.11241,-3.8891 -52.75819,-3.54498 -15.39469,0.65616 -18.6474,0.60315 -34.51473,2.12371 -30.05822,2.88048 -59.88248,7.96374 -89.27814,14.84873 -7.59971,1.94759 -15.2403,3.74215 -22.79915,5.84277 -13.03152,3.62148 -25.27854,7.53746 -37.88927,12.32953 -9.98187,3.7931 -17.34107,6.89049 -26.51486,12.0062 -2.44496,1.36342 -4.71631,3.01721 -7.07447,4.52582 -42.68148,31.47682 1.83347,91.83756 44.51496,60.36073 z"/>
<path d="m 252.3997,670.61388 c 25.52238,-9.496 52.53735,-13.87665 79.30441,-18.1863 26.22506,-3.84739 52.70386,-5.01017 79.16122,-5.75193 53.01135,-1.51549 50.86813,-76.48486 -2.14322,-74.96937 v 0 c -29.75777,0.86564 -59.53536,2.26701 -89.01916,6.68771 -8.01248,1.30671 -16.04871,2.47529 -24.03744,3.92013 -24.34423,4.4029 -48.6175,10.09423 -71.76759,18.92651 -49.05429,20.1538 -20.55252,89.52705 28.50178,69.37325 z"/>
<path d="m 285.26842,646.49824 c 1.06776,28.42771 1.88544,56.86517 3.04556,85.29123 2.13241,47.78851 3.47621,95.60597 4.4309,143.43092 1.05908,53.02244 76.04413,51.52467 74.98504,-1.49777 v 0 c -0.96626,-48.34613 -2.32429,-96.68472 -4.47843,-144.9941 -1.1934,-29.19123 -1.96672,-58.39731 -3.17452,-87.58567 -3.78683,-52.89764 -78.59539,-47.54225 -74.80855,5.35539 z"/>
<path d="m 342.57302,812.44911 c 17.53533,-4.20892 35.33394,-6.89804 53.21222,-9.11841 12.80852,-1.71773 25.65906,-1.69071 38.49678,-0.59436 52.8745,4.09725 58.66889,-70.67858 5.79439,-74.77583 v 0 c -3.58201,-0.25977 -7.15789,-0.6258 -10.74603,-0.77929 -14.31856,-0.61251 -28.64124,0.0751 -42.87331,1.73184 -5.18102,0.6546 -10.37183,1.23578 -15.54304,1.9638 -15.62991,2.20041 -31.10904,5.29191 -46.49273,8.80196 -51.45636,12.83521 -33.30465,85.6055 18.15172,72.77029 z"/>
<path d="m 182.51514,771.0731 c 4.98741,24.66853 6.52634,49.85271 7.69535,74.93705 0.77973,16.40347 0.10265,32.78449 -0.92488,49.15107 -3.19871,52.93646 71.66474,57.46012 74.86346,4.52367 v 0 c 0.33183,-5.6722 0.78741,-11.33852 0.9955,-17.01661 0.61952,-16.90396 0.27425,-23.05217 -0.0192,-40.23136 -0.33653,-6.91556 -0.56533,-13.83721 -1.00958,-20.7467 -1.44261,-22.43673 -3.91184,-44.87732 -8.39431,-66.9217 -11.52908,-51.76466 -84.73537,-35.46008 -73.20629,16.30458 z"/>
<path d="m 207.13305,974.09448 c 41.86576,-12.75204 83.44229,-26.38369 124.93325,-40.30023 32.79195,-11.21955 65.90904,-21.41957 99.06696,-31.48731 50.74371,-15.41349 28.94573,-87.17594 -21.79798,-71.76244 v 0 c -33.84317,10.28393 -67.64768,20.69335 -101.12026,32.14338 -41.43033,13.89783 -82.95479,27.4799 -124.75148,40.23951 -50.32273,16.73687 -26.65322,87.90396 23.66951,71.16709 z"/>
<path d="m 541.51651,447.66921 c 0.0322,-0.35262 0.28192,-1.35958 0.0967,-1.05784 -0.81584,1.32878 -1.37973,2.79703 -2.03358,4.21255 -1.78318,3.86043 -3.50962,7.74684 -5.27713,11.61447 -2.37737,5.20211 -4.67174,10.44349 -7.15749,15.59469 -6.78791,14.06655 -11.69585,22.91593 -19.13281,36.87056 -10.26004,19.22226 -21.08692,38.13996 -32.95104,56.42159 -3.1955,4.92399 -6.55939,9.73663 -9.83908,14.60495 -29.58265,44.01553 32.66471,85.85171 62.24736,41.83618 v 0 c 3.71552,-5.53976 7.52642,-11.01673 11.14658,-16.61927 12.7853,-19.78652 24.51075,-40.22291 35.60071,-61.002 8.89829,-16.73455 12.94967,-23.94265 21.0922,-40.82815 2.52563,-5.23749 4.85912,-10.56549 7.27594,-15.85407 0.88253,-1.9312 8.41337,-18.40164 9.55467,-21.33607 0.95985,-2.46791 1.63206,-5.03824 2.44809,-7.55735 11.95027,-51.66905 -61.1208,-68.5693 -73.07108,-16.90024 z"/>
<path d="m 592.89878,512.69103 c 17.20026,-0.54196 34.38742,-1.09637 51.5985,-1.05054 16.90535,-0.0361 33.70783,1.71813 50.37158,4.41411 9.19232,1.5541 0.18802,0.0276 7.97025,1.35739 0.92283,0.15769 1.84829,0.30035 2.76906,0.46962 0.18009,0.0331 0.71085,0.17607 0.53191,0.13721 -0.71529,-0.15534 -1.46642,-0.20324 -2.14127,-0.4867 -3.13635,-1.31741 -6.1701,-2.86686 -9.25515,-4.30029 -30.79815,-52.08193 -13.01661,-10.28927 -15.71788,-37.28723 -0.12644,-1.26373 -0.78296,2.41647 -1.18921,3.61979 -0.86692,2.56779 -1.70601,5.14562 -2.63024,7.69335 -4.01392,11.06474 -5.29663,13.78182 -10.11107,25.49008 -16.87929,40.28496 -38.39833,78.45636 -63.86586,113.93384 -6.02797,8.39726 -12.46514,16.49309 -18.69772,24.73963 -18.79146,23.37537 -39.05367,45.60219 -60.85717,66.20864 -11.6902,11.04838 -24.54478,22.42732 -37.98232,31.43303 -5.66349,3.79562 -11.78373,6.86085 -17.67559,10.29127 -45.51511,27.21902 -7.0216,91.5871 38.4935,64.36808 v 0 c 8.23123,-5.01549 16.74745,-9.59069 24.69368,-15.04647 15.84984,-10.88229 31.50002,-24.70597 45.38842,-37.89783 24.32322,-23.10335 46.91541,-48.0149 67.84034,-74.22483 6.95437,-9.2557 14.13829,-18.34329 20.8631,-27.76709 28.37297,-39.76046 52.32967,-82.52895 71.19426,-127.58859 5.24181,-12.81952 10.41763,-25.57339 14.76321,-38.72729 1.85234,-5.60694 5.51962,-16.77353 4.0568,-21.34331 -3.47177,-10.84566 -10.96061,-19.96475 -16.44092,-29.94712 -3.58005,-1.76947 -7.06674,-3.74191 -10.74014,-5.30841 -1.49599,-0.63794 -3.12766,-0.89642 -4.70824,-1.27942 -4.81542,-1.16686 -9.79422,-1.58301 -14.64047,-2.58545 -20.55565,-3.29094 -41.28801,-5.39009 -62.13174,-5.36586 -17.26025,-0.0249 -34.50231,0.3975 -51.74962,1.05039 -53.03301,0 -53.03301,75 0,75 z"/>
<path d="m 557.74509,600.50858 c 23.08901,16.94069 44.76091,35.74185 66.52224,54.33143 31.68097,27.17676 62.08143,55.80207 92.29768,84.58511 17.43026,16.93124 34.51305,34.20074 52.84894,50.16086 18.37315,15.68125 39.07009,28.41004 60.7766,38.93055 5.93629,2.87714 12.00933,5.46315 18.014,8.19473 19.21472,8.54355 38.96069,15.75583 58.70289,22.95471 49.83302,18.14305 75.49116,-52.33149 25.65814,-70.47453 v 0 c -17.97886,-6.53457 -35.96098,-13.08074 -53.46829,-20.82225 -4.87454,-2.18617 -9.8015,-4.259 -14.62362,-6.55849 -16.34538,-7.7945 -32.05195,-17.117 -45.88747,-28.8559 -17.50825,-15.15608 -33.60178,-31.80463 -50.29458,-47.83768 -31.20018,-29.71412 -62.59695,-59.25758 -95.31479,-87.30679 -23.89966,-20.40964 -47.70246,-41.06932 -73.23253,-59.43924 -43.93784,-29.69792 -85.93704,32.43957 -41.99921,62.13749 z"/>
<path d="m 516.46567,794.55969 c 6.73353,16.74201 11.50049,34.23241 15.09283,51.90017 0.95891,4.71607 1.73192,9.46804 2.59787,14.20206 2.57645,15.21946 4.05072,30.58543 5.28406,45.96082 4.27261,52.86062 79.02881,46.81823 74.7562,-6.04238 v 0 c -1.45821,-17.92223 -3.22168,-35.83087 -6.29171,-53.56218 -1.06403,-5.69817 -2.01579,-11.41845 -3.1921,-17.09451 -4.62679,-22.32564 -10.84416,-44.39243 -19.56001,-65.4817 -21.29645,-48.56914 -89.98358,-18.45142 -68.68714,30.11772 z"/>
<path d="m 592.05492,817.63083 c 14.81248,-6.01662 30.155,-10.76424 45.6637,-14.62863 4.72094,-1.17634 9.48538,-2.17066 14.22807,-3.25599 22.61326,-4.69399 45.65963,-7.26429 68.75413,-7.35503 2.99764,0.0272 5.99602,0.20774 8.94898,0.73604 0.29281,0.0524 1.16862,0.15369 0.87287,0.18555 -1.32549,0.14281 -2.59814,-0.60455 -3.87894,-0.97453 -10.41146,-4.24124 -15.02303,-9.89568 -20.11846,-19.9576 -0.92331,-1.82326 -0.96969,-3.98237 -1.70404,-5.8896 -0.1121,-0.29115 -0.1883,0.60043 -0.21271,0.91146 -0.16437,2.09488 -0.2351,4.19604 -0.35266,6.29407 -2.35522,33.75475 -9.97551,66.7731 -17.73894,99.60537 -6.34045,25.37559 -3.0314,12.842 -9.90996,37.6053 -14.16083,51.10744 58.11601,71.13389 72.27684,20.02644 v 0 c 7.44477,-26.92985 3.90539,-13.4651 10.62495,-40.39245 8.81082,-37.34648 17.24831,-74.95031 19.66613,-113.36035 0.38841,-9.51598 1.55904,-21.41534 -2.18579,-30.4878 -5.17903,-12.54703 -11.69022,-19.11299 -23.73099,-24.47384 -1.74975,-0.57931 -3.47667,-1.23274 -5.24925,-1.73791 -9.01598,-2.56949 -18.57435,-2.76794 -27.86156,-3.08811 -28.58198,0.28195 -57.10401,3.26037 -85.06995,9.27478 -5.67437,1.31933 -11.37435,2.53298 -17.02309,3.95801 -19.09288,4.81665 -37.95915,10.77185 -56.14819,18.33134 -48.55948,21.31847 -18.41062,89.99194 30.14886,68.67348 z"/>
<path d="m 583.70563,938.74604 c 27.16101,-1.73338 54.27994,-4.07956 81.41547,-6.16802 28.46733,-1.80657 14.05293,-1.02615 43.24429,-2.32142 52.98017,-2.36683 49.63297,-77.2921 -3.3472,-74.92527 v 0 c -30.93754,1.39089 -15.72042,0.55913 -45.65286,2.46787 -26.60102,2.04768 -53.18612,4.34149 -79.81064,6.0618 -52.95172,2.93515 -48.80078,77.8202 4.15094,74.88504 z"/>
</svg>
