<?xml version="1.0" ?>
<svg xmlns="http://www.w3.org/2000/svg" viewBox="0 0 1000 1000">
<path d="m 231.37686,154.06583 c 12.82574,9.27051 25.32138,19.22562 36.46095,30.50227 3.10259,3.14076 5.98225,6.4942 8.97337,9.74131 2.91998,3.79033 5.83996,7.58066 8.75994,11.37099 32.7592,41.70533 91.73945,-4.62317 58.98025,-46.32851 v 0 c -4.30081,-5.40238 -8.60163,-10.80476 -12.90245,-16.20714 -4.17602,-4.43456 -8.21681,-9.00048 -12.52805,-13.30369 -14.71859,-14.69116 -31.13677,-27.77615 -48.25578,-39.537912 -45.08702,-27.922401 -84.57526,35.840272 -39.48823,63.762682 z"/>
<path d="m 143.50612,309.83102 c 21.5866,-8.20198 44.20386,-13.51439 66.91856,-17.48574 8.64633,-1.51168 17.34944,-2.67844 26.02416,-4.01766 37.08643,-4.94877 74.41425,-8.01554 111.82305,-8.8257 18.85486,-0.40833 26.72914,-0.16387 44.99696,0.0707 5.44315,0.17898 10.88631,0.35796 16.32947,0.53694 53.00516,1.7186 55.43563,-73.24201 2.43047,-74.96061 v 0 c -5.9423,-0.19018 -11.88461,-0.38035 -17.82692,-0.57053 -19.68493,-0.23761 -28.20371,-0.49656 -48.53576,-0.0312 -40.40025,0.92466 -80.71541,4.25259 -120.75936,9.67386 -9.74066,1.52897 -19.51471,2.85863 -29.22199,4.58691 -29.17648,5.19459 -58.35036,12.22281 -85.6596,23.91101 -47.455372,23.67461 -13.974411,90.78665 33.48096,67.11203 z"/>
<path d="m 162.21115,346.55563 c 1.96693,14.70071 3.1286,29.50488 5.55534,44.14499 0.85337,5.14821 1.91512,10.2597 2.87267,15.38955 3.21153,16.00094 8.29286,31.50226 13.38263,46.97297 16.6438,50.35359 87.85453,26.81569 71.21072,-23.53789 v 0 c -4.0939,-12.31648 -8.23031,-24.64365 -10.89946,-37.37105 -0.77563,-4.03526 -1.64377,-8.05383 -2.32687,-12.10578 -2.31157,-13.71143 -3.31997,-27.5937 -5.20895,-41.36151 -5.56402,-52.74032 -80.1501,-44.87161 -74.58608,7.86872 z"/>
<path d="m 324.60201,289.69506 c 0.57614,16.93136 -2.22712,33.78523 -4.96122,50.42568 -3.98202,20.40337 -7.78719,40.88692 -13.77247,60.82783 -5.27935,17.58895 -8.46032,24.44781 -15.31308,41.64667 -19.50286,49.31671 50.2415,76.89793 69.74437,27.58122 v 0 c 3.28196,-8.35213 6.79921,-16.61559 9.84589,-25.05639 10.89858,-30.19441 17.88795,-61.50159 23.53719,-93.04957 1.02321,-6.43409 2.18743,-12.84732 3.06961,-19.30226 2.42177,-17.72006 3.90602,-35.8611 2.0926,-53.70302 -7.51643,-52.49765 -81.75932,-41.86781 -74.24289,10.62984 z"/>
<path d="m 98.395825,562.77387 c 17.383255,-6.88411 34.912765,-13.34219 52.988775,-18.19953 7.12003,-1.91328 14.30971,-3.5573 21.46457,-5.33595 47.32582,-10.48407 95.41023,-17.75382 143.76263,-21.309 9.86414,-0.72527 19.74939,-1.12738 29.62408,-1.69107 31.85669,-1.30037 63.78141,-0.76708 95.56784,1.70761 10.94184,0.85186 19.44685,1.81318 30.21787,2.94785 52.74276,5.54086 60.57872,-69.04867 7.83595,-74.58953 v 0 c -12.04951,-1.26262 -20.80474,-2.25421 -33.12731,-3.19634 -34.866,-2.66571 -69.88017,-3.22242 -104.81791,-1.74486 -10.67869,0.62313 -21.369,1.07156 -32.03606,1.8694 -52.21782,3.90562 -104.14614,11.79863 -155.23349,23.24931 -8.18515,2.05999 -16.41204,3.96072 -24.55546,6.17996 -19.74635,5.38126 -38.964186,12.33469 -57.973875,19.86803 -49.670092,18.58446 -23.387701,88.82858 26.28239,70.24412 z"/>
<path d="m 150.86832,608.10902 c 1.10313,31.90257 3.5228,63.74499 5.5805,95.59605 0.49813,8.63899 1.02604,17.27632 1.49438,25.91697 0.99595,18.37463 1.84851,35.49658 2.43192,53.88908 0.78613,24.78378 1.01805,49.5878 1.38224,74.38017 0.11787,16.91015 0.65836,33.80949 1.35018,50.70384 2.18438,52.98801 77.12073,49.89883 74.93635,-3.08918 v 0 c -0.67396,-16.23184 -1.18264,-32.46913 -1.29462,-48.71652 -0.37346,-25.41129 -0.6214,-50.8333 -1.43248,-76.23564 -0.60062,-18.81092 -1.47849,-36.46386 -2.4981,-55.25166 -0.47825,-8.81251 -1.01727,-17.62162 -1.5259,-26.43243 -2.00278,-30.99893 -4.36337,-61.98946 -5.45903,-93.03744 -1.60992,-53.00856 -76.57535,-50.7318 -74.96544,2.27676 z"/>
<path d="m 293.61137,649.64943 c 15.55615,-3.91802 31.16813,-7.55437 46.87745,-10.81119 13.63838,-2.80627 27.45249,-4.63992 41.32554,-5.75578 1.31705,0.59033 2.87855,-0.51175 4.26552,-0.19231 0.26999,0.0622 -0.5523,0.0887 -0.82849,0.0667 -1.52331,-0.12132 -3.09404,-0.0559 -4.55754,-0.49565 -3.58072,-1.07592 -7.29552,-2.04718 -10.47143,-4.0202 -3.59797,-2.23521 -6.35331,-5.6037 -9.52997,-8.40555 -1.3837,-2.35507 -2.76741,-4.71014 -4.15111,-7.0652 -0.18375,-0.27811 -0.54885,-1.16765 -0.55124,-0.83433 -0.0103,1.4379 0.36648,2.85257 0.52651,4.28158 0.2954,2.63783 0.60548,5.27459 0.83975,7.91855 0.90832,10.25145 0.89384,12.70958 1.39469,23.57673 0.96667,39.39291 0.54647,78.81285 -0.40277,118.20174 -1.03427,36.92528 -3.94341,73.75331 -7.46181,110.51273 -5.04582,52.79242 69.61394,59.92828 74.65975,7.13586 v 0 c 3.67812,-38.53508 6.71228,-77.14232 7.78051,-115.85076 0.98237,-41.17007 1.43285,-82.37436 0.34038,-123.54703 -0.62036,-12.80869 -1.24793,-25.57181 -2.86865,-38.3019 -0.61882,-4.86051 -1.84259,-13.64543 -3.57519,-18.17432 -1.59351,-4.16533 -3.93621,-8.00397 -5.90431,-12.00596 -3.84529,-3.71997 -7.11814,-8.14194 -11.53587,-11.1599 -10.19367,-6.96376 -22.3729,-7.34916 -34.07819,-6.39152 -16.9406,1.40142 -33.81241,3.62777 -50.46706,7.07352 -16.03442,3.33546 -31.99051,6.9837 -47.86176,11.02252 -51.77555,11.48008 -35.54026,84.70177 16.23529,73.22168 z"/>
<path d="m 213.87873,777.34177 c 19.40252,-1.61318 38.87141,-2.16442 58.32399,-2.80507 17.58327,-0.51299 8.71786,-0.31083 26.59636,-0.60083 53.02584,-0.87204 51.79259,-75.8619 -1.23325,-74.98986 v 0 c -18.92755,0.31526 -9.65009,0.10016 -27.83269,0.63136 -21.11392,0.69584 -42.24672,1.31192 -63.30089,3.13499 -52.77096,5.26545 -45.32449,79.89486 7.44648,74.62941 z"/>
<path d="m 215.29127,903.82923 c 25.68796,-4.58698 51.07103,-10.7329 76.4357,-16.81919 21.84401,-5.2938 43.68489,-10.64748 65.74009,-15.00888 7.56363,-1.4957 15.16556,-2.79072 22.74834,-4.18609 52.15179,-9.62761 38.53629,-83.38137 -13.6155,-73.75376 v 0 c -8.23351,1.52444 -16.48729,2.94327 -24.70055,4.57333 -22.70155,4.5055 -45.19109,9.99232 -67.67757,15.44689 -23.08338,5.54268 -46.18046,11.09086 -69.51379,15.49816 -52.50236,7.48352 -41.91907,81.73306 10.58328,74.24954 z"/>
<path d="m 502.05571,134.39333 c 5.9533,18.86168 14.69325,36.70068 22.29155,54.93126 5.25038,14.3312 11.37227,28.47979 15.29321,43.26776 0.81002,3.055 1.3608,6.17292 2.04119,9.25937 11.96715,51.66515 85.03271,34.74104 73.06556,-16.9241 v 0 c -1.15943,-4.85652 -2.16686,-9.75186 -3.47829,-14.56956 -4.63847,-17.04 -11.54416,-33.41219 -17.70871,-49.92232 -6.17983,-14.78669 -12.8006,-29.39581 -18.7534,-44.27083 -12.88944,-51.442808 -85.64055,-33.214383 -72.75111,18.22842 z"/>
<path d="m 584.35098,163.0164 c 24.78192,-8.39967 50.18716,-14.61689 75.66623,-20.46249 34.97919,-7.28741 70.461,-12.42888 106.14913,-14.48816 5.83543,-0.33672 11.6816,-0.45 17.52239,-0.675 19.78338,0.26954 40.04451,-0.12272 59.41334,4.57701 0.83426,0.67716 2.31077,0.46415 3.21306,1.15846 0.10663,0.0821 -0.27405,-0.005 -0.40027,-0.052 -0.46089,-0.17021 -0.91459,-0.3644 -1.34898,-0.59396 -2.20765,-1.16663 -2.63791,-1.71621 -4.9008,-3.4895 -6.69116,-7.92639 -5.32866,-5.10715 -9.40477,-14.8978 -0.37998,-0.91271 0.1445,-2.70118 -0.83341,-2.84644 -0.88854,-0.13198 -0.31839,1.76822 -0.49211,2.64954 -1.93391,9.8111 -0.99443,5.46966 -4.26396,17.19633 -6.17581,20.50609 -13.67228,40.61453 -23.70687,59.56901 -2.83688,5.35863 -5.97895,10.55004 -8.96843,15.82505 -25.97869,46.23427 39.40644,82.97369 65.38513,36.73942 v 0 c 3.68058,-6.59569 7.55522,-13.08677 11.04175,-19.78707 12.12305,-23.29768 21.3179,-47.94016 28.73706,-73.1007 3.54307,-13.77753 7.51775,-27.67059 7.20834,-42.06801 -0.0843,-3.92208 -0.24353,-7.90087 -1.18541,-11.709101 -3.08244,-12.462944 -4.75935,-12.762547 -12.0431,-22.117498 -1.64284,-1.387085 -3.21569,-2.861587 -4.92853,-4.161254 -7.80019,-5.918642 -17.31049,-9.022621 -26.65103,-11.486458 -2.75819,-0.597479 -5.49961,-1.278521 -8.27459,-1.792437 -23.23353,-4.302764 -47.0399,-4.631421 -70.58576,-4.552951 -6.73273,0.276555 -13.47163,0.430391 -20.1982,0.829663 -39.43785,2.340929 -78.64654,8.056001 -117.29099,16.181323 -28.80913,6.638066 -57.55927,13.708781 -85.50678,23.448657 -49.57271,18.842666 -22.92516,88.949066 26.64756,70.106406 z"/>
<path d="m 590.88618,280.61838 c 12.45946,-1.87605 24.7121,-4.90605 37.03108,-7.50782 16.47867,-3.48031 15.37936,-3.17019 32.52505,-6.39055 31.73642,-5.33396 63.76604,-9.38125 95.96236,-10.33041 5.32801,-0.15707 10.66031,-0.087 15.99046,-0.13055 14.79097,0.99275 8.01883,0.16726 20.35309,2.15449 52.48418,7.60988 63.24618,-66.61397 10.76199,-74.22385 v 0 c -20.37058,-2.76612 -9.75631,-1.72701 -31.86088,-2.92694 -6.30374,0.0722 -12.61023,0.0166 -18.91121,0.21653 -35.61884,1.13011 -71.05962,5.56648 -106.16447,11.53415 -6.12517,1.15444 -12.25987,2.25944 -18.37551,3.46331 -15.5686,3.06467 -31.00046,6.79102 -46.59414,9.71825 -52.62529,6.56349 -43.3431,80.98688 9.28218,74.42339 z"/>
<path d="m 499.92273,390.19741 c -0.14666,28.10579 1.48048,56.19539 2.70507,84.26618 2.57947,55.75189 4.63119,111.52663 7.46935,167.26619 1.42433,19.43711 1.85715,30.85772 4.82048,50.0167 1.24684,8.06125 3.03048,16.03027 4.54573,24.0454 10.0385,52.07426 83.68263,37.87766 73.64412,-14.1966 v 0 c -1.2489,-6.32373 -2.73163,-12.60575 -3.74671,-18.97121 -2.71145,-17.00325 -3.06642,-27.23212 -4.36077,-44.71051 -2.83231,-55.55698 -4.86806,-111.14968 -7.44347,-166.71892 -1.13192,-25.94369 -2.56028,-51.89483 -2.69911,-77.86797 2.21272,-52.98683 -72.72197,-56.11609 -74.93469,-3.12926 z"/>
<path d="m 634.51288,403.80725 c 18.63727,-2.13277 36.85627,-7.00175 55.08752,-11.26884 22.69895,-5.38528 45.5086,-10.32858 68.53933,-14.08218 14.38806,-2.34499 17.98328,-2.69565 32.21832,-4.53924 19.02504,-2.00262 38.27418,-3.80581 57.39337,-2.06616 2.71348,0.26926 5.28574,1.07988 7.78129,2.10393 0.43265,0.16905 0.8676,0.33232 1.29794,0.50714 0.12187,0.0495 -0.25407,-0.0732 -0.37221,-0.13108 -1.28809,-0.63075 -2.62567,-1.17638 -3.84383,-1.93341 -4.10059,-2.5483 -7.26189,-5.71158 -10.17302,-9.52 3.68921,12.33152 6.53073,24.90524 8.47828,37.6332 0.77167,5.04313 1.33491,10.11595 2.00236,15.17392 2.93216,26.00107 3.15316,52.23832 1.17295,78.31785 -1.33687,17.60671 -3.05696,29.70525 -5.2403,47.31194 -4.48855,32.04444 -9.08211,64.15282 -16.504,95.67947 -4.26914,18.13439 -6.09909,23.18708 -11.44013,40.78878 -1.2482,3.88962 -10.37548,32.25059 -11.69709,36.67886 -1.82868,6.1273 -3.45748,12.31249 -5.18621,18.46873 -14.27949,51.07442 57.95065,71.26866 72.23013,20.19424 v 0 c 1.48492,-5.33828 2.87075,-10.70511 4.45477,-16.01483 1.17128,-3.92621 11.16772,-35.06012 12.00066,-37.66055 6.17162,-20.55249 8.05427,-25.68727 12.99513,-46.84396 7.8597,-33.65513 12.83041,-67.90347 17.5821,-102.10504 2.44813,-19.92757 4.26106,-32.61599 5.70622,-52.65082 2.2144,-30.69909 1.80996,-61.57347 -1.74302,-92.15823 -0.84087,-6.16076 -1.55327,-12.34043 -2.5226,-18.48229 -1.56862,-9.93902 -3.59459,-19.86776 -6.0013,-29.63999 -1.57078,-6.37802 -3.85199,-14.55148 -6.16227,-20.80774 -1.02241,-2.76868 -2.28005,-5.44473 -3.42008,-8.1671 -1.4848,-2.57739 -2.72463,-5.31237 -4.45439,-7.73218 -5.47547,-7.65974 -12.83892,-13.52461 -21.70493,-16.701 -9.37671,-3.64234 -19.14908,-6.13132 -29.18893,-7.06562 -24.38778,-1.8371 -48.85378,-0.49248 -73.11521,2.44851 -15.56663,2.03288 -19.73146,2.45023 -35.44055,5.0298 -24.43523,4.01248 -48.64816,9.22192 -72.73635,14.93896 -14.51787,3.39858 -29.00289,7.14191 -43.73334,9.51486 -52.8775,4.05835 -47.13811,78.83843 5.73939,74.78007 z"/>
<path d="m 593.42446,525.23178 c 17.79673,-4.58703 35.90046,-7.76742 54.03821,-10.64225 18.59441,-2.44229 37.38572,-4.11012 56.15935,-3.42218 9.16302,0.33576 12.25336,0.89676 21.1663,1.9864 12.0565,1.99871 6.21706,0.93749 17.52378,3.15345 52.06469,10.08799 66.33125,-63.54261 14.26656,-73.6306 v 0 c -14.67889,-2.81857 -6.9867,-1.45834 -23.08788,-4.01626 -12.81796,-1.44766 -16.29554,-2.09733 -29.45899,-2.49187 -22.86366,-0.68528 -45.74016,1.27822 -68.37455,4.35601 -20.56917,3.29475 -41.1017,6.92398 -61.2797,12.16617 -51.29432,13.46821 -32.2474,86.00934 19.04692,72.54113 z"/>
<path d="m 590.38827,630.81415 c 16.97359,-3.03989 34.09833,-4.93383 51.26612,-6.43981 25.49304,-1.76092 51.12866,-3.06918 76.65898,-1.20219 4.20967,0.30785 8.40074,0.83189 12.60111,1.24784 12.25368,2.15412 6.58142,0.88547 17.05843,3.61471 51.50591,12.63496 69.37443,-60.20538 17.86853,-72.84034 v 0 c -17.74038,-4.19918 -8.4893,-2.34099 -27.78127,-5.43319 -5.37454,-0.50048 -10.73865,-1.12957 -16.12361,-1.50145 -28.94869,-1.99918 -58.00664,-0.6652 -86.90753,1.40783 -18.8524,1.68778 -37.66726,3.7358 -56.31234,7.06033 -52.3869,8.25305 -40.71532,82.33932 11.67158,74.08627 z"/>
<path d="m 590.89938,741.20745 c 20.6676,-2.71644 41.41845,-4.70349 62.18737,-6.44675 34.95169,-2.55835 70.05525,-3.22314 105.07602,-1.83361 6.52498,0.25889 13.04222,0.68557 19.56332,1.02835 22.99272,1.92012 11.91865,0.83761 33.22841,3.18332 52.7195,5.75799 60.86252,-68.79864 8.14302,-74.55663 v 0 c -24.04073,-2.60744 -11.55008,-1.40801 -37.47886,-3.52561 -7.14278,-0.36734 -14.28149,-0.8251 -21.42835,-1.10202 -37.79783,-1.46455 -75.6822,-0.71889 -113.40214,2.07114 -23.01045,1.94663 -46.0228,4.08888 -68.8943,7.31804 -52.22958,9.19629 -39.22406,83.06006 13.00551,73.86377 z"/>
<path d="m 568.98363,762.51246 c -10.4563,20.31167 -24.71765,38.28173 -38.86721,56.09656 -18.17073,22.64114 -8.90065,10.85848 -27.76363,35.38459 -32.31676,42.0491 27.14965,87.7519 59.46642,45.7028 v 0 c 17.98437,-23.41837 8.94932,-11.91419 27.09157,-34.52321 16.35589,-20.70331 32.75798,-41.63097 45.00045,-65.11867 26.54625,-45.91075 -38.38135,-83.45282 -64.9276,-37.54207 z"/>
<path d="m 757.34165,846.30286 c 11.50594,6.87503 21.4083,15.96432 31.20154,25.01849 13.0586,12.20972 24.93107,25.56629 36.08962,39.50929 33.17063,41.37884 91.68916,-5.53153 58.51852,-46.91037 v 0 c -13.55044,-16.8802 -27.98613,-33.03594 -43.84089,-47.80477 -15.47896,-14.1747 -31.42917,-28.28044 -50.3103,-37.80338 -48.07671,-22.38593 -79.7352,45.6048 -31.65849,67.99074 z"/>
</svg>
