<?xml version="1.0" ?>
<svg xmlns="http://www.w3.org/2000/svg" viewBox="0 0 1000 1000">
<path d="m 177.42719,266.51575 c 27.04378,-3.52435 54.03919,-7.40246 81.07721,-10.97246 31.39292,-4.0143 62.79028,-8.56855 94.44745,-9.80626 2.0237,0.004 4.04741,0.008 6.07111,0.0118 53.03282,-0.14141 52.83284,-75.14114 -0.19998,-74.99974 v 0 c -2.98968,0.0173 -5.97935,0.0346 -8.96902,0.0519 -33.90095,1.4611 -67.55494,5.92631 -101.16941,10.38789 -26.13168,3.45198 -52.23187,7.12822 -78.35223,10.66315 -52.79518,5.01683 -45.70032,79.6805 7.09487,74.66367 z"/>
<path d="m 99.040748,375.66674 c 4.977482,22.98336 11.364352,45.6024 17.772332,68.21797 9.10505,32.20743 20.20621,63.80213 32.18024,95.04156 5.03815,12.55562 2.61099,6.64154 7.2525,17.7541 20.46099,48.92696 89.65417,19.99075 69.19317,-28.93622 v 0 c -4.09256,-9.77254 -1.94313,-4.54985 -6.42094,-15.67933 -11.18325,-29.12866 -21.547,-58.59261 -30.04618,-88.62783 -6.07618,-21.44037 -12.17253,-42.87291 -16.86004,-64.6705 -11.95028,-51.66905 -85.021355,-34.76881 -73.071082,16.90025 z"/>
<path d="m 166.12013,420.61836 c 2.06404,-0.85617 4.14568,-1.67109 6.19213,-2.5685 1.98031,-0.8684 3.90694,-1.85577 5.88564,-2.72785 6.63214,-2.92304 12.32717,-5.22049 19.31031,-7.59277 13.82158,-4.69543 16.68875,-5.13362 31.38024,-8.95352 28.94885,-6.85582 58.62055,-9.93935 88.33308,-10.36478 4.48098,-0.0642 8.9628,0.0374 13.4442,0.0561 7.93845,0.45984 16.06481,0.30383 23.902,1.92968 0.48544,0.1007 1.8538,0.67759 1.36622,0.58783 -6.84421,-1.25998 -5.80457,-2.05115 -13.19064,-7.25958 -13.16134,7.56074 -2.24993,-13.0748 -7.3895,-13.63753 -1.32632,-0.14522 -0.80413,2.54455 -1.18828,3.8223 -3.62916,12.07102 -7.57262,24.02369 -11.48308,36.00777 -6.53188,20.33739 -12.74063,40.81227 -20.62969,60.68058 -1.50292,3.78503 -3.15865,7.50759 -4.73797,11.26139 -20.46683,48.92452 48.72289,77.86899 69.18972,28.94446 v 0 c 1.91526,-4.59975 3.91727,-9.16432 5.74576,-13.79925 8.25217,-20.91789 14.89841,-42.4144 21.73241,-63.82183 1.62397,-4.97697 3.2565,-9.95115 4.87191,-14.9309 2.90652,-8.95982 6.76512,-20.29618 8.83401,-29.53149 2.25571,-10.06925 4.35891,-22.49785 1.8448,-32.73951 -1.67763,-6.83411 -5.61664,-12.90471 -8.42496,-19.35707 -4.67214,-4.25406 -8.80819,-9.18446 -14.01643,-12.76219 -3.79737,-2.60854 -8.30419,-4.04066 -12.65393,-5.55863 -3.08804,-1.07766 -6.34537,-1.61038 -9.56341,-2.19476 -11.2037,-2.03454 -22.6827,-2.19234 -34.01742,-2.64103 -14.80444,-0.0177 -19.09656,-0.20374 -34.38978,0.58327 -29.18403,1.50183 -58.22797,5.32823 -86.65561,12.19186 -6.88599,1.82799 -13.81804,3.49056 -20.65797,5.48398 -11.56488,3.37047 -21.2647,6.78365 -32.34268,11.19991 -1.4398,0.57398 -12.00372,5.04385 -15.16555,6.67974 -0.24268,0.12556 0.53666,-0.10317 0.80499,-0.15476 -50.322739,16.73685 -26.65326,87.90395 23.66948,71.1671 z"/>
<path d="m 208.7154,572.46144 c -0.19617,0.14246 -0.81794,0.5057 -0.5885,0.42738 1.41966,-0.4846 2.78077,-1.12707 4.18489,-1.65501 6.3789,-2.39842 10.84397,-3.98187 17.58166,-5.96253 11.13177,-3.27236 15.23555,-4.05467 26.8513,-6.78256 22.03451,-4.9028 44.39794,-7.86936 66.8628,-9.82957 52.82758,-4.66333 46.23264,-79.37282 -6.59494,-74.70948 v 0 c -26.05477,2.32266 -51.997,5.79166 -77.54055,11.55512 -22.83252,5.43869 -45.87249,11.1213 -67.11815,21.3606 -46.38341,25.71145 -10.02193,91.30751 36.36149,65.59605 z"/>
<path d="m 175.12226,543.06715 c -0.4112,17.35746 -0.34575,34.75965 0.74897,52.09432 0.40315,6.3838 1.01966,12.75234 1.5295,19.12851 2.7268,26.59813 7.10084,53.0436 13.6864,78.96775 3.43359,13.51639 5.18128,18.5216 9.23176,31.45439 1.32934,3.93901 2.65868,7.87802 3.98803,11.81703 16.99216,50.2371 88.03815,26.20655 71.04599,-24.03055 v 0 c -1.16433,-3.43348 -2.32865,-6.86696 -3.49297,-10.30044 -3.35614,-10.60384 -4.92288,-15.0893 -7.77006,-26.13343 -5.73962,-22.26379 -9.50967,-44.99333 -11.93528,-67.8459 -0.45343,-5.48447 -0.99987,-10.96204 -1.3603,-16.4534 -0.96741,-14.73917 -0.98794,-29.52224 -0.80205,-44.28431 3.12115,-52.94108 -71.74885,-57.35505 -74.86999,-4.41397 z"/>
<path d="m 278.4682,559.98401 c -0.23542,-0.57241 -0.3657,-1.20042 -0.70624,-1.71724 -0.0849,-0.1289 -0.13683,0.28929 -0.13298,0.44362 0.0349,1.39808 0.24918,2.78965 0.24867,4.18817 -8.7e-4,2.38018 -0.0706,4.76287 -0.25281,7.13606 -0.80405,10.47369 -1.81239,15.75783 -3.42052,26.66412 -3.1884,18.76884 -7.62222,37.3378 -13.19168,55.54343 -1.93099,6.31206 -4.15647,12.53025 -6.2347,18.79538 -16.59506,50.36967 54.63841,73.83863 71.23347,23.46896 v 0 c 2.41473,-7.37201 4.99758,-14.69106 7.24419,-22.11604 6.44654,-21.30557 11.53641,-43.03471 15.18164,-64.99251 3.23082,-22.83583 7.18824,-46.61633 1.52365,-69.43669 -0.49612,-1.99868 -1.25235,-3.92365 -1.87853,-5.88548 -19.73409,-49.22464 -89.34825,-21.31642 -69.61416,27.90822 z"/>
<path d="m 223.86341,828.91817 c 0.71443,-0.92801 1.3926,-1.88511 2.14331,-2.78404 2.88599,-3.45579 9.9782,-11.08418 11.94816,-13.20556 9.86778,-10.6263 18.49788,-19.85932 28.93056,-30.16857 6.79382,-6.71344 13.77744,-13.23205 20.66617,-19.84807 26.04102,-23.78104 51.75969,-47.926 78.17545,-71.29477 9.18587,-8.1263 18.53,-16.07192 27.79501,-24.10788 40.05641,-34.75606 -9.09609,-91.40438 -49.1525,-56.64832 v 0 c -9.62613,8.35545 -19.33221,16.61967 -28.87838,25.06636 -27.01054,23.89963 -53.31449,48.58666 -79.92585,72.92512 -7.44464,7.16764 -14.9897,14.23242 -22.33392,21.50292 -16.84232,16.67328 -33.41719,34.16943 -48.51947,52.45311 -32.60449,41.82639 26.54697,87.9361 59.15146,46.1097 z"/>
<path d="m 476.08468,204.4415 c 30.03531,-7.37752 60.65144,-11.81146 91.25557,-16.023 54.32734,-6.95591 109.12342,-8.80144 163.82842,-9.89732 28.55716,-0.6679 57.11646,-0.0742 85.67346,0.12857 53.03172,0.36952 53.5543,-74.62866 0.52258,-74.99818 v 0 c -29.23418,-0.19947 -58.47074,-0.81071 -87.70498,-0.11521 -57.6284,1.16474 -115.34752,3.18786 -172.56952,10.58586 -32.42095,4.48345 -64.85764,9.19669 -96.68665,16.97692 -51.86089,11.08822 -36.17977,84.43059 15.68112,73.34236 z"/>
<path d="m 600.56226,137.47382 c -0.0343,-0.15369 -0.001,-0.58128 -0.10297,-0.46107 -1.20635,1.42562 -2.21568,3.00692 -3.32352,4.51038 -1.94394,2.35047 -3.83155,4.74869 -5.83182,7.05141 -10.84547,12.48531 -22.38532,24.39938 -33.6318,36.51865 -14.65599,15.37586 -28.2515,31.72432 -42.71368,47.27515 -4.77575,5.13525 -9.72911,10.10241 -14.59366,15.15362 -36.74898,38.23627 17.32528,90.20717 54.07426,51.9709 v 0 c 5.43755,-5.66785 10.96412,-11.25163 16.31267,-17.00355 14.18607,-15.25594 27.52208,-31.29348 41.8961,-46.37971 8.56649,-9.23135 17.23421,-18.36961 25.70919,-27.68504 9.14423,-10.05106 18.4201,-20.29968 25.77884,-31.78488 1.72852,-2.69782 3.1964,-5.55401 4.7946,-8.33101 21.80353,-48.34363 -46.56468,-79.178473 -68.36821,-30.83485 z"/>
<path d="m 427.853,293.91714 c 2.0613,12.77132 4.59626,25.45724 6.36492,38.27771 0.68475,4.96351 1.26018,9.9415 1.89027,14.91225 4.84753,42.82871 6.00975,85.95115 6.42763,129.01433 0.42128,45.13653 -2.31901,90.19004 -6.09829,135.14122 -2.13295,22.92202 -4.14801,45.85874 -6.83111,68.72451 -6.16322,52.67366 68.32859,61.38977 74.49181,8.71611 v 0 c 2.76362,-23.68012 4.88795,-47.42775 7.07641,-71.16655 3.96383,-47.28594 6.80933,-94.68085 6.35748,-142.16 -0.46648,-45.98441 -1.75701,-92.03098 -7.02625,-137.75571 -0.71405,-5.57114 -1.36632,-11.15055 -2.14216,-16.71343 -1.79433,-12.86552 -4.27262,-25.60882 -6.38667,-38.41963 -8.08166,-52.41361 -82.2057,-40.98442 -74.12404,11.42919 z"/>
<path d="m 491.05985,341.00434 c -0.19006,0.12879 -0.79959,0.39521 -0.57017,0.38637 0.58873,-0.0227 1.13937,-0.30163 1.71429,-0.43042 1.37174,-0.30729 2.74739,-0.59726 4.12489,-0.87762 2.59613,-0.52839 5.19529,-1.04189 7.79574,-1.54858 9.09265,-1.77168 15.24348,-2.91328 24.55339,-4.66704 25.1856,-4.78907 50.25904,-10.16836 75.50804,-14.6253 18.81116,-3.32052 21.61507,-3.58697 40.36006,-6.31741 28.07065,-3.84703 56.32004,-6.11387 84.61278,-7.42908 4.88775,-0.13632 9.77747,-0.4203 14.66905,-0.42067 0.36213,-2e-5 1.44319,0.1082 1.08499,0.055 -2.91232,-0.43209 -6.11651,0.12045 -8.75172,-1.19254 -6.37532,-3.1765 -11.79487,-7.98877 -17.6923,-11.98315 -1.47266,-2.53402 -2.79235,-5.16334 -4.41797,-7.60206 -0.17979,-0.26973 -0.0296,0.64958 -10e-4,0.97249 0.11728,1.33191 0.32075,2.65529 0.43792,3.9872 0.81185,9.22842 1.08431,18.49327 1.44698,27.74643 1.04266,34.55477 1.08886,69.13012 1.19566,103.69752 0.13518,40.06627 -0.33237,80.12356 -2.03118,120.1548 -1.79249,33.44893 -3.97712,66.88023 -6.55299,100.27819 -0.96507,11.453 -1.75593,22.9233 -3.00052,34.35124 -0.62598,5.74776 -1.40977,11.16317 -2.94701,16.7162 -12.90796,51.43816 59.83659,69.69277 72.74454,18.2546 v 0 c 0.6942,-2.8897 1.48728,-5.75743 2.08259,-8.66911 3.69168,-18.05637 4.0553,-36.60864 5.89866,-54.88999 2.63858,-34.2632 4.8866,-68.55992 6.70792,-102.87613 1.73088,-41.16349 2.2486,-82.35253 2.09763,-123.55181 -0.10988,-35.47692 -0.16074,-70.96218 -1.25373,-106.42557 -0.45784,-11.50998 -0.75063,-23.06694 -2.02364,-34.52604 -0.40907,-3.68226 -1.77169,-13.61692 -3.10973,-17.24892 -1.80579,-4.90165 -4.31205,-9.51601 -6.46807,-14.27402 -6.75519,-5.18231 -12.80012,-11.4535 -20.26555,-15.54694 -3.68291,-2.01941 -8.22331,-1.74317 -12.37907,-2.35273 -1.35054,-0.19809 -2.7295,-0.0649 -4.09449,-0.0636 -5.62853,0.005 -11.25485,0.32855 -16.87892,0.49134 -30.74765,1.44467 -61.44834,3.9222 -91.95124,8.13486 -20.25326,2.96626 -22.97371,3.2132 -43.2352,6.79463 -25.30462,4.47287 -50.43802,9.84426 -75.67769,14.65706 -6.96688,1.31267 -18.27482,3.42487 -25.4648,4.8446 -10.78277,2.12915 -21.72907,4.17511 -31.74885,8.88406 -47.45539,23.67458 -13.97448,90.78664 33.48091,67.11206 z"/>
<path d="m 515.61697,453.26711 c 18.47988,-3.10851 37.00915,-5.84912 55.58594,-8.30861 19.76323,-2.66426 39.63833,-4.59586 59.59309,-4.48709 53.03285,0.12917 53.21553,-74.87061 0.18268,-74.99978 v 0 c -23.30986,-0.006 -46.54196,1.9389 -69.62977,5.13703 -19.23374,2.55169 -38.42092,5.38041 -57.55542,8.59627 -52.36987,8.36047 -40.54639,82.42264 11.82348,74.06218 z"/>
<path d="m 489.77085,575.67643 c 10.84901,-1.74983 21.47754,-4.59412 32.22167,-6.86412 11.88894,-2.51187 11.64033,-2.36383 23.79425,-4.52124 21.03989,-3.37315 42.30161,-5.23558 63.60657,-5.3665 5.57726,0.0539 11.16174,0.29052 16.67286,1.17866 52.50363,7.47453 63.07422,-66.77682 10.57058,-74.25135 v 0 c -9.24223,-1.24861 -18.53448,-2.00241 -27.87218,-1.92467 -25.50859,0.25778 -50.97183,2.3613 -76.15197,6.52998 -17.75109,3.18158 -35.36977,6.91337 -52.95332,10.90399 -52.54882,7.14994 -42.43728,81.46519 10.11154,74.31525 z"/>
<path d="m 472.51997,728.36198 c 15.92526,-2.8896 31.59058,-7.00918 47.47596,-10.10624 5.31235,-1.03571 10.64539,-1.96231 15.96809,-2.94347 32.09633,-5.54834 64.42859,-9.84271 96.90294,-12.43406 6.09375,-0.48626 12.19784,-0.83273 18.29676,-1.24909 21.17627,-0.95916 42.59145,-2.24011 63.65055,0.89921 52.52256,7.34037 62.90341,-66.93774 10.38086,-74.27811 v 0 c -8.0555,-1.08336 -9.74455,-1.4391 -18.31813,-1.98912 -20.26611,-1.30013 -40.60464,-0.54841 -60.85883,0.54474 -6.64912,0.46031 -13.30386,0.84552 -19.94734,1.38092 -34.76744,2.80192 -69.38356,7.40765 -103.7441,13.37577 -5.86266,1.08716 -11.73663,2.11501 -17.58798,3.26148 -14.50299,2.84161 -28.83914,6.42671 -43.3203,9.36415 -52.44881,7.84996 -41.34729,82.02378 11.10152,74.17382 z"/>
<path d="m 476.83208,741.69217 c 0.2433,-0.73326 1.48629,-2.35706 0.7299,-2.19978 -1.0344,0.2151 -1.31895,1.65105 -1.99511,2.46287 -1.57476,1.89069 -3.12418,3.80389 -4.75737,5.64433 -8.60445,9.69633 -17.90925,18.71342 -27.13813,27.8047 -10.15456,10.21632 -21.11827,19.54282 -32.16079,28.76683 -40.65215,34.05735 7.51222,91.54817 48.16436,57.49082 v 0 c 12.5678,-10.55516 25.06125,-21.2088 36.65348,-32.85133 11.03483,-10.88889 22.15867,-21.70202 32.30331,-33.44504 4.16202,-4.81777 10.08967,-12.14423 13.50628,-17.72954 1.7108,-2.79674 3.04918,-5.8049 4.57377,-8.70735 19.25912,-49.41241 -50.62058,-76.64892 -69.8797,-27.23651 z"/>
<path d="m 681.4162,820.12898 c 10.97882,9.40628 21.15581,19.61916 31.04919,30.14572 8.82802,9.76205 17.89682,19.36829 25.86598,29.86263 -3.24012,-4.0273 -1.03539,-0.98792 -4.95015,-10.11851 11.99476,51.65874 85.05126,34.69558 73.05649,-16.96316 v 0 c -5.36164,-14.46458 -2.17272,-8.43323 -8.60222,-18.57202 -9.59435,-12.43009 -20.12811,-24.09074 -30.76942,-35.6265 -11.13013,-11.79938 -22.5387,-23.30506 -34.84042,-33.89519 -39.00898,-35.9277 -89.81842,19.23933 -50.80945,55.16703 z"/>
</svg>
