<?xml version="1.0" ?>
<svg xmlns="http://www.w3.org/2000/svg" width="1000" height="1000">
<path d="m 228.41546,131.50422 c 9.16747,27.61399 12.52153,56.71203 15.97598,85.46456 3.43652,36.08188 4.95842,72.41475 3.33631,108.64517 -0.96757,21.61093 -1.85101,26.77034 -4.13235,47.595 -0.93046,6.16339 -1.86091,12.32678 -2.79136,18.49017 -7.8299,52.45182 66.34816,63.52497 74.17806,11.07315 v 0 c 1.05979,-7.16905 2.11958,-14.3381 3.17936,-21.50716 2.52684,-23.67759 3.50413,-29.4547 4.54675,-53.93945 1.6955,-39.81674 0.012,-79.74042 -3.86192,-119.38324 -1.09427,-8.9541 -2.03013,-17.92899 -3.28282,-26.86231 -3.58833,-25.58948 -8.39268,-51.20095 -16.83591,-75.67586 -18.45546,-49.718162 -88.76757,-23.618193 -70.3121,26.09997 z"/>
<path d="m 317.71036,276.46557 c 23.6071,-3.14938 47.28026,-5.64999 71.01232,-7.62788 13.87638,-1.26239 27.76426,-0.60321 41.63191,0.20698 52.95297,2.91239 57.07173,-71.97443 4.11875,-74.88683 v 0 c -17.32602,-0.90686 -34.67724,-1.63132 -52.00333,-0.0591 -24.40146,2.04863 -48.75128,4.56639 -73.02378,7.82349 -52.71008,5.84362 -44.44595,80.38692 8.26413,74.5433 z"/>
<path d="m 95.200267,278.6519 c 2.540052,18.03342 4.150684,36.19668 4.345458,54.41564 0.06769,6.33162 -0.11873,12.6634 -0.178095,18.9951 -0.49169,20.95406 -2.497415,41.82351 -4.357991,62.68603 -4.699071,52.82442 70.005931,59.46991 74.705001,6.64549 v 0 c 2.03068,-22.88291 4.1899,-45.77577 4.65082,-68.76102 0.045,-7.38993 0.24133,-14.78049 0.13504,-22.1698 -0.28937,-20.11653 -1.96883,-40.19376 -4.76099,-60.11208 -5.86944,-52.70721 -80.408684,-44.40656 -74.539243,8.30064 z"/>
<path d="m 90.240321,482.13541 c 27.540989,-7.22285 55.665909,-11.89533 83.768309,-16.2912 54.28719,-7.94242 109.13491,-9.85722 163.90994,-10.70184 38.78678,-0.47387 77.62821,0.35832 116.19045,4.74526 52.70124,5.92282 61.07736,-68.60799 8.37612,-74.5308 v 0 c -4.8011,-0.53398 -9.5942,-1.14552 -14.4033,-1.60193 -36.99042,-3.51065 -74.20639,-3.86567 -111.332,-3.60342 -23.90226,0.3763 -33.31176,0.37946 -57.39719,1.35655 -39.12649,1.58728 -78.19045,4.76895 -116.97505,10.24354 -31.10787,4.89928 -62.24571,10.10467 -92.698594,18.25734 -51.001139,14.53904 -30.439823,86.66555 20.561315,72.1265 z"/>
<path d="m 249.77712,456.17273 c 1.95753,27.6411 2.00037,55.39377 2.33072,83.09206 0.52779,40.17083 -0.0922,80.33982 -2.71937,120.43005 -0.97982,10.93807 -1.92851,21.90108 -3.7378,32.7418 -0.31426,1.88301 -0.64149,3.76729 -1.09888,5.62074 -0.13629,0.55227 -0.83651,2.11276 -0.67496,1.56735 0.53542,-1.80767 1.19931,-3.57477 1.79896,-5.36216 14.41624,-15.09836 7.06423,-11.48569 28.15773,-16.48407 1.2058,-0.28573 4.16464,0.88998 3.70832,-0.26214 -0.79988,-2.01957 -3.54738,-2.5081 -5.30892,-3.77911 -13.52589,-9.75938 -8.7801,-6.29341 -23.31165,-17.55898 -16.93744,-14.49805 -8.4942,-6.92785 -25.29238,-22.75219 -38.69037,-36.27058 -89.98472,18.44587 -51.29435,54.71645 v 0 c 20.34894,18.99931 10.09662,9.8887 30.71872,27.37481 9.32561,7.19036 19.27047,15.15618 29.14698,21.64219 18.51383,12.15822 36.68789,21.30787 59.61172,11.66242 7.17656,-3.01961 11.81228,-10.14663 17.71842,-15.21994 2.07136,-4.17621 4.46988,-8.20555 6.21407,-12.52863 1.78389,-4.42149 3.35789,-13.12326 4.1265,-17.85014 2.08235,-12.80627 3.25095,-25.74155 4.35935,-38.66008 2.71418,-42.01119 3.4515,-84.09991 2.87218,-126.19481 -0.36139,-30.16781 -0.37534,-60.40736 -2.78612,-90.49627 -5.86944,-52.70721 -80.40869,-44.40656 -74.53924,8.30065 z"/>
<path d="m 129.84346,532.98119 c 0.0185,5.51011 -1.77737,10.42101 -3.69218,15.54615 -1.69703,4.54223 -3.36112,9.10197 -5.28976,13.5508 -6.2917,14.51312 -10.96408,22.7708 -18.46271,37.15291 -11.232337,22.03637 -24.524296,42.89014 -37.795444,63.72312 -20.20502,31.71775 -5.212856,8.10169 -23.65322,37.19253 -28.392874,44.79223 34.952917,84.94582 63.345794,40.15358 v 0 c 22.23493,-35.07809 45.47003,-69.62168 64.6663,-106.51045 13.49682,-26.09204 27.29274,-51.9689 33.83195,-80.87976 1.48729,-6.57551 1.57973,-10.09294 1.94514,-15.9782 2.79356,-52.95938 -72.10232,-56.91006 -74.89587,-3.95068 z"/>
<path d="m 375.41454,564.45116 c 15.80052,10.52353 30.85671,22.09451 45.80372,33.78148 13.02965,10.61383 6.79668,5.40515 18.72411,15.59582 40.35094,34.41368 89.01924,-22.65116 48.6683,-57.06485 v 0 c -13.64109,-11.61586 -6.57638,-5.73102 -21.21492,-17.62953 -16.78495,-13.10697 -33.70491,-26.07336 -51.48857,-37.81252 -44.63936,-28.63262 -85.132,34.49698 -40.49264,63.1296 z"/>
<path d="m 357.66,621.29178 c -3.23524,10.92828 -6.30573,21.95613 -10.74761,32.47586 -1.79921,4.26107 -3.84538,8.41359 -5.76807,12.62039 -2.79358,5.09977 -5.40673,10.30261 -8.38073,15.29932 -12.89167,21.65964 -28.14684,41.71829 -43.87821,61.363 -19.03284,23.76747 -20.73615,25.24404 -40.9405,48.48169 -19.48976,21.20002 -23.82196,26.50853 -44.36493,46.50444 -7.30539,7.11086 -14.90059,13.9179 -22.31623,20.9137 -7.35076,6.9346 -14.65516,13.91818 -21.98273,20.87728 -38.45366,36.52145 13.19547,90.90313 51.64913,54.38168 v 0 c 7.22173,-6.85915 14.42514,-13.73764 21.66519,-20.57745 8.08475,-7.6378 16.35123,-15.0853 24.30908,-22.85523 22.04482,-21.52426 26.84934,-27.38285 47.6631,-50.0623 20.72169,-23.87896 24.02056,-27.16961 43.48194,-51.57025 18.28901,-22.93073 35.90587,-46.4103 50.69368,-71.79562 3.83722,-6.58713 7.19174,-13.44386 10.78762,-20.16579 2.53548,-5.69363 5.23234,-11.31811 7.60646,-17.08089 5.67306,-13.77046 9.8299,-28.15403 13.72912,-42.50537 11.529,-51.76468 -61.67731,-68.06915 -73.20631,-16.30446 z"/>
<path d="m 500.65011,158.29505 c 2.00184,-0.13976 4.00686,-0.23978 6.00553,-0.41929 12.31855,-1.10634 24.578,-2.87123 36.83661,-4.47828 24.73624,-3.24279 14.54859,-1.92772 41.55116,-5.28896 39.32478,-4.58719 78.80835,-8.05227 118.38154,-9.52254 26.94613,-1.00112 34.4531,-0.7226 61.29165,-0.66252 31.82042,0.5754 63.70152,1.48549 95.31162,5.44398 11.29119,1.41398 20.69002,3.06071 31.90813,4.89767 52.34025,8.54389 64.42312,-65.47641 12.08287,-74.020291 v 0 c -13.1404,-2.138857 -22.63178,-3.810457 -35.92982,-5.442905 -34.24635,-4.20403 -68.76627,-5.31618 -103.23593,-5.878331 -28.75344,-0.0413 -36.36865,-0.331187 -65.24753,0.759697 -41.39413,1.563641 -82.69478,5.191713 -123.82918,9.999911 -25.9296,3.229256 -51.81114,6.934356 -77.79758,9.65943 -52.99937,1.888635 -50.32844,76.841059 2.67093,74.952429 z"/>
<path d="m 625.17533,122.62869 c -0.22784,1.79573 -1.19904,3.3744 -1.92327,4.99513 -1.21927,2.72857 -2.33177,5.5059 -3.62256,8.20137 -6.10111,12.74063 -6.70382,13.0918 -14.34644,26.15119 -11.01808,18.14563 -23.88163,35.06512 -36.90025,51.79709 -4.75642,6.11311 -9.48344,12.25219 -14.41259,18.2269 -4.72939,5.73259 -9.70436,11.25808 -14.55654,16.88712 -34.56835,40.21852 22.30924,89.10554 56.87758,48.88702 v 0 c 5.50642,-6.42268 11.14033,-12.73822 16.51927,-19.26803 5.1856,-6.2951 10.16717,-12.75609 15.16799,-19.19895 14.95302,-19.26485 29.63356,-38.80826 42.20564,-59.74329 3.53389,-6.15164 7.24914,-12.2026 10.60169,-18.45492 7.55789,-14.0951 14.3298,-28.93407 17.91868,-44.59092 1.24866,-5.44742 1.24348,-8.76229 1.4708,-13.88971 0,-53.033012 -75,-53.033012 -75,0 z"/>
<path d="m 493.29238,283.06472 c 2.85311,10.75447 3.71087,21.92116 4.86647,32.94897 2.94089,36.5843 4.95668,73.26315 5.55284,109.96506 0.15372,9.46312 0.13486,18.92825 0.20229,28.39238 -0.0293,60.73801 -2.01104,121.44138 -5.20418,182.08779 -2.41509,39.08408 -4.02237,78.21553 -6.73243,117.28026 -3.65737,52.90675 71.16407,58.07905 74.82144,5.17231 v 0 c 2.71989,-39.47712 4.38877,-79.01703 6.80749,-118.51374 3.26434,-62.14202 5.29506,-124.34263 5.30565,-186.57826 -0.0752,-9.93117 -0.0603,-19.86342 -0.22568,-29.7935 -0.64444,-38.70367 -2.77088,-77.38604 -5.94972,-115.96008 -2.14125,-19.81648 -3.83089,-40.30086 -12.39212,-58.60212 -23.75944,-47.41296 -90.81149,-13.81202 -67.05205,33.60093 z"/>
<path d="m 561.75529,321.39378 c 20.03676,-4.04177 40.0868,-7.92528 60.24537,-11.32152 27.40431,-4.47265 54.99903,-7.75736 82.71505,-9.49623 17.99878,-1.12923 22.86472,-1.05802 40.63656,-1.44351 25.36948,-0.40515 50.75093,0.5084 75.94367,3.56119 4.49773,0.58234 8.98261,1.25617 13.46621,1.93686 0.84854,0.12882 1.69886,0.24642 2.54554,0.38696 0.18753,0.0311 0.74328,0.15899 0.55576,0.12785 -0.48874,-0.0812 -0.97338,-0.18537 -1.46007,-0.27805 -11.17562,-4.6425 -10.75069,-3.18183 -20.071,-14.15431 -1.57717,-1.85675 -2.13247,-4.38852 -3.39342,-6.47299 -0.0933,-0.15423 -0.22987,0.31168 -0.22471,0.49186 0.0497,1.73831 0.28426,3.46669 0.3876,5.20263 0.18181,3.05399 0.31185,6.11084 0.46777,9.16626 1.24728,40.16801 1.15925,80.36647 0.82485,120.54786 -0.20113,9.08723 -0.31358,18.17686 -0.60338,27.2617 -0.64289,20.15365 -1.5407,38.17039 -3.10732,58.30155 -2.42118,31.11231 -6.20261,62.08844 -9.84358,93.07382 -5.72247,47.19841 -11.1732,94.42758 -16.52526,141.66907 -5.97,52.69591 68.55327,61.13877 74.52327,8.44286 v 0 c 5.34048,-47.13927 10.77959,-94.26621 16.48989,-141.36247 3.79121,-32.28826 7.6995,-64.56519 10.1996,-96.98727 1.63689,-21.2277 2.57409,-40.24397 3.24525,-61.48771 0.29786,-9.42801 0.41264,-18.86091 0.61897,-28.29136 0.34297,-41.73452 0.44347,-83.48898 -0.93116,-125.20759 -0.72927,-12.98502 -1.02369,-33.3818 -8.72117,-44.40478 -9.25293,-13.2504 -11.33257,-12.53095 -23.86123,-18.21651 -8.44251,-2.03743 -17.07389,-3.03295 -25.67057,-4.21488 -28.71319,-3.40154 -57.62169,-4.60073 -86.53333,-4.07378 -19.58393,0.45041 -24.90154,0.37786 -44.7233,1.6466 -29.96634,1.91807 -59.80381,5.47818 -89.43466,10.3207 -20.59257,3.48265 -41.08564,7.40928 -61.55285,11.55416 -52.12864,9.75218 -38.33699,83.47321 13.79165,73.72103 z"/>
<path d="m 576.09924,462.56258 c 22.62234,-4.85311 45.58442,-7.79229 68.5448,-10.47619 19.36569,-2.07374 38.81988,-3.67419 58.31301,-3.61865 13.31971,0.038 17.74656,0.62332 30.50824,1.65571 52.87372,4.10737 58.68241,-70.66735 5.8087,-74.77472 v 0 c -5.85021,-0.43956 -11.69087,-1.03327 -17.55062,-1.31868 -28.66256,-1.39608 -57.34501,0.37685 -85.83393,3.56904 -27.59583,3.25941 -55.34182,6.62728 -82.32913,13.4303 -50.5816,15.93744 -28.04267,87.47062 22.53893,71.53319 z"/>
<path d="m 577.41342,608.91518 c 17.74916,-1.6101 35.38715,-4.25288 53.12809,-5.93835 5.68703,-0.5403 11.3876,-0.92705 17.08139,-1.39057 23.62721,-1.90502 47.30339,-0.64826 70.91011,0.75419 52.94178,3.10948 57.33925,-71.76149 4.39748,-74.87098 v 0 c -27.12047,-1.5764 -54.31843,-2.85949 -81.45386,-0.63094 -6.37222,0.52863 -12.75148,0.97852 -19.11668,1.58589 -17.08488,1.63024 -34.07408,4.13806 -51.16104,5.74867 -52.85063,4.39432 -46.63613,79.13641 6.21451,74.74209 z"/>
<path d="m 547.8389,785.7128 c 21.64042,-4.50652 43.59085,-7.20341 65.52278,-9.80883 40.31512,-4.67727 80.91683,-6.53614 121.49193,-6.21066 8.15089,0.0654 16.29895,0.33108 24.44842,0.49662 29.42845,1.42196 15.21954,0.58394 42.63017,2.45492 52.91128,3.59129 57.99012,-71.23655 5.07885,-74.82783 v 0 c -29.61049,-1.99921 -14.20548,-1.10437 -46.21917,-2.61229 -8.75113,-0.17025 -17.50084,-0.44692 -26.2534,-0.51076 -43.43663,-0.3168 -86.89811,1.73026 -130.05494,6.73733 -23.87385,2.8553 -47.76304,5.82817 -71.32168,10.73162 -52.00762,10.37824 -37.33057,83.92811 14.67704,73.54988 z"/>
<path d="m 553.33091,809.6439 c -0.78408,2.90716 -1.36182,5.4568 -2.58974,8.24086 -6.61006,14.98694 -17.66064,27.71719 -27.82654,40.31899 -17.98574,20.05035 -8.51397,9.97794 -28.49392,30.14313 -37.24492,37.75336 16.14639,90.42563 53.39131,52.67227 v 0 c 23.48178,-23.89042 12.27912,-11.87628 33.67843,-35.97658 4.61674,-5.81385 9.42163,-11.48313 13.85024,-17.44153 13.07266,-17.58839 24.91455,-36.73936 30.33622,-58.18198 13.98315,-51.15634 -58.36285,-70.93151 -72.346,-19.77516 z"/>
<path d="m 754.87784,881.22448 c 11.80166,8.98967 22.48973,19.25861 32.78657,29.90414 9.27937,9.87932 17.5753,20.64281 24.89703,32.04048 28.83888,44.50639 91.78043,3.72206 62.94155,-40.78433 v 0 c -10.06971,-15.45401 -21.30016,-30.14581 -34.04012,-43.51249 -12.69296,-13.02383 -25.83637,-25.6169 -40.31286,-36.67226 -41.73659,-32.71936 -88.00876,26.30509 -46.27217,59.02446 z"/>
</svg>
