<?xml version="1.0" ?>
<svg xmlns="http://www.w3.org/2000/svg" viewBox="0 0 1000 1000">
<path d="m 88.441893,195.80691 c 4.993789,22.01741 8.648391,44.30265 12.272757,66.57653 6.25763,38.88511 11.9494,77.85053 16.61295,116.9591 1.24997,11.15122 2.3688,22.31609 3.44934,33.48471 5.11061,52.78618 79.76155,45.55869 74.65094,-7.2275 v 0 c -1.13573,-11.72269 -2.30951,-23.44169 -3.62881,-35.14547 -4.798,-40.16679 -10.62564,-80.19043 -17.05989,-120.12774 -3.96895,-24.34515 -7.98051,-48.70546 -13.54621,-72.74821 -12.88955,-51.44277 -85.640626,-33.2142 -72.751077,18.22858 z"/>
<path d="m 173.53043,231.79986 c 18.62415,-7.89243 37.87858,-14.06479 57.20409,-19.97378 22.93985,-6.54086 46.10872,-12.32335 69.52669,-16.88698 11.60711,-2.26196 17.31753,-3.11298 28.75229,-4.98323 8.93101,-1.37642 17.88461,-2.6141 26.86775,-3.59862 0.14737,-0.0161 6.42454,-0.91888 7.59701,-0.54346 -11.44534,-0.10378 -18.21554,-4.89842 -26.14671,-13.22589 -1.87751,-1.97132 -2.72655,-4.71282 -4.0976,-7.06471 -0.1724,-0.29573 -0.50471,-1.21914 -0.53266,-0.87798 -0.0951,1.16123 0.21296,2.32048 0.31943,3.48072 1.98932,29.25248 1.85851,58.60685 1.39826,87.90693 -0.61763,26.24849 -2.47768,52.4918 -6.56112,78.44268 -2.31068,14.68473 -3.07287,17.12672 -6.19898,31.1824 -3.92821,16.45604 -9.45925,32.46163 -15.55564,48.22268 -19.0697,49.48582 50.91382,76.45445 69.98352,26.96863 v 0 c 7.41614,-19.3032 14.11884,-38.90746 18.81928,-59.07135 1.29024,-5.91444 2.70906,-11.80229 3.87073,-17.74332 6.88143,-35.19314 9.78947,-71.0344 10.63332,-106.84654 0.4957,-32.78542 0.68989,-65.66092 -1.96884,-98.36723 -1.36159,-9.90104 -2.67912,-21.9442 -9.24761,-30.05991 -9.16851,-11.32817 -14.25079,-13.95039 -27.24267,-17.25236 -2.40372,-0.61092 -4.93861,-0.46315 -7.40791,-0.69472 -15.67486,0.23251 -31.18024,2.94531 -46.66886,5.13099 -12.81264,2.10692 -18.78997,2.99636 -31.84624,5.5576 -25.69314,5.0402 -51.11911,11.38929 -76.27983,18.61872 -23.25203,7.14753 -46.47246,14.5907 -68.69861,24.56667 -47.455396,23.67458 -13.97448,90.78664 33.48091,67.11206 z"/>
<path d="m 185.64327,339.82366 c 15.23525,-6.0937 31.43468,-8.84735 47.52213,-11.60723 23.90728,-3.65564 48.06093,-5.53146 72.23095,-6.07315 1.98801,-0.008 3.97602,-0.0151 5.96403,-0.0227 53.03237,-0.25993 52.66476,-75.25903 -0.36761,-74.9991 v 0 c -2.4558,0.0142 -4.9116,0.0285 -7.3674,0.0427 -27.86676,0.68592 -55.71557,2.81648 -83.26675,7.15376 -20.8005,3.63522 -41.66013,7.5415 -61.36276,15.39925 -49.57275,18.84257 -22.92534,88.94903 26.64741,70.10646 z"/>
<path d="m 169.5699,445.46734 c 10.28264,-0.79577 20.4064,-2.88794 30.59041,-4.42035 10.89814,-1.63986 12.09411,-1.64452 23.39202,-2.8659 24.01973,-2.26851 48.21283,-2.3099 72.24933,-0.36558 8.81992,1.09033 4.66239,0.50851 12.47838,1.70363 52.44786,7.85629 63.55834,-66.31619 11.11048,-74.17249 v 0 c -11.05206,-1.63104 -5.14444,-0.84066 -17.73196,-2.3021 -28.71145,-2.19205 -57.58633,-2.26843 -86.26594,0.58173 -4.84168,0.5354 -9.69117,1.00443 -14.52505,1.60621 -11.79312,1.46815 -23.47022,3.65673 -35.23076,5.33805 -52.96004,2.78112 -49.02695,77.67792 3.93309,74.8968 z"/>
<path d="m 111.64918,567.9687 c 18.06408,-3.04908 35.57616,-8.63696 53.38373,-12.84199 6.12212,-1.44566 12.28169,-2.72786 18.42253,-4.09179 36.53298,-7.75883 73.84249,-11.2904 111.14609,-12.1893 7.32749,-0.17657 14.65872,-0.12125 21.98808,-0.18188 29.9403,0.0539 59.79959,2.6822 89.2153,8.21219 5.75259,1.10474 11.43144,2.53606 17.10045,3.99823 51.36871,13.18163 70.01036,-59.46469 18.64165,-72.64633 v 0 c -7.30183,-1.86627 -14.61883,-3.68167 -22.02711,-5.08723 -10.8826,-2.00685 -13.77722,-2.66187 -25.23524,-4.21929 -25.96948,-3.52987 -52.17683,-5.08488 -78.37726,-5.25446 -8.10661,0.0798 -16.21551,0.0311 -24.31984,0.23936 -41.78019,1.07371 -83.54465,5.19332 -124.45033,13.92546 -6.81811,1.52484 -13.6554,2.96634 -20.45434,4.5745 -15.0207,3.55288 -29.81914,8.03173 -44.92465,11.2176 -52.56981,6.99396 -42.678862,81.33889 9.89094,74.34493 z"/>
<path d="m 226.16176,540.82105 c 3.18249,17.38376 3.42604,35.16456 3.79795,52.78078 0.12471,34.10165 -1.68608,68.17433 -4.8164,102.12198 -1.21788,12.86401 -3.30727,25.61648 -5.77627,38.29136 -10.06128,52.06986 63.57663,66.29865 73.63791,14.22879 v 0 c 2.90315,-15.12225 5.39448,-30.32792 6.82492,-45.67047 3.35642,-36.77865 5.33701,-73.69017 5.11141,-110.63407 -0.51402,-22.25669 -1.03579,-44.69475 -5.39526,-66.60226 -10.94876,-51.89051 -84.33302,-36.40662 -73.38426,15.48389 z"/>
<path d="m 305.51424,670.80077 c 13.45376,-4.33643 27.39305,-6.81872 41.29142,-9.22523 18.92745,-3.01945 38.03974,-4.58666 57.06593,-6.8216 52.66884,-6.20428 43.89466,-80.68927 -8.77418,-74.48499 v 0 c -20.39887,2.41062 -40.8977,4.05745 -61.17551,7.42148 -17.54783,3.07809 -35.11959,6.35984 -52.07742,11.94333 -50.32267,16.73705 -26.65291,87.90406 23.66976,71.16701 z"/>
<path d="m 83.772489,648.78732 c -5.605202,20.4562 -12.347642,40.60366 -18.788356,60.81093 -11.233108,35.04025 -25.514519,68.99045 -40.608308,102.51422 -21.7608998,48.36283 46.634469,79.13739 68.395369,30.77456 v 0 c 16.249846,-36.13639 31.585756,-72.7442 43.671206,-110.51345 5.77177,-18.10968 5.79444,-18.11222 11.23099,-35.41749 4.06877,-12.95142 8.56306,-25.91361 10.58312,-39.38635 6.21011,-52.66815 -68.273907,-61.45058 -74.484021,-8.78242 z"/>
<path d="m 121.1531,768.65496 c 15.95051,1.55523 31.73145,4.56068 47.51687,7.26498 36.73616,6.56209 73.49292,13.00758 110.21611,19.64209 45.14719,8.58946 90.34693,16.86328 135.6546,24.5624 46.05359,7.77422 92.2548,14.62009 138.46349,21.39482 38.98806,5.78766 78.0541,11.02214 117.19243,15.68088 26.3056,3.28292 52.72095,5.51574 79.16705,7.26866 12.97473,0.66083 25.94789,1.65042 38.94815,1.61354 11.16323,-0.0317 13.47178,-0.3313 24.92371,-0.99424 17.55025,-1.44349 34.94582,-4.23514 52.34491,-6.8618 52.43696,-7.92874 41.22402,-82.08581 -11.21294,-74.15706 v 0 c -15.16915,2.29753 -30.33214,4.7476 -45.61869,6.15318 -8.60349,0.538 -10.95273,0.81371 -19.31151,0.86837 -11.72197,0.0766 -23.41848,-0.89921 -35.11809,-1.4581 -25.14139,-1.66314 -50.25399,-3.77799 -75.26083,-6.90717 -38.46495,-4.57529 -76.85765,-9.72596 -115.17465,-15.41297 -45.64647,-6.69227 -91.28618,-13.45074 -136.77978,-21.12838 -45.05108,-7.65379 -89.99252,-15.89101 -134.88453,-24.42744 -36.9469,-6.67438 -73.92713,-13.1611 -110.88751,-19.76022 -18.32641,-3.13846 -36.6555,-6.60843 -55.20044,-8.17613 -52.91605,-3.52023 -57.894394,71.31437 -4.97835,74.83459 z"/>
<path d="m 483.78075,188.62304 c 20.86737,-4.40157 41.81236,-8.29654 62.99271,-10.87803 8.34619,-1.01724 16.71665,-1.8244 25.07497,-2.7366 40.88324,-3.87307 81.89586,-6.41766 122.94148,-7.71596 23.86659,-0.75491 33.26572,-0.72023 56.66605,-0.94004 24.12324,-0.1012 48.23793,0.52055 72.32705,1.75175 52.965,2.68493 56.76207,-72.21889 3.79707,-74.903824 v 0 c -25.59245,-1.287641 -51.21031,-1.971624 -76.83846,-1.844521 -24.43843,0.235872 -33.98818,0.199609 -58.9396,0.996178 -42.78055,1.365761 -85.5265,4.033141 -128.13509,8.103997 -9.0619,0.99953 -18.1378,1.87941 -27.18571,2.99858 -22.0173,2.72339 -43.83609,6.62999 -65.52301,11.27272 -52.25219,9.0669 -39.42965,82.96266 12.82254,73.89575 z"/>
<path d="m 617.25042,145.27729 c 0.0277,-0.20639 0.21418,-0.78092 0.083,-0.61918 -0.81526,1.00541 -1.40408,2.17781 -2.18434,3.21061 -2.78592,3.68763 -7.33026,8.82703 -10.24436,11.86622 -8.17758,8.5286 -14.65295,14.3096 -23.49728,22.57444 -16.00966,14.77558 -32.75353,28.72383 -49.34319,42.83529 -40.39496,34.362 8.20025,91.4891 48.59521,57.1271 v 0 c 17.50179,-14.8885 35.15401,-29.61886 52.02458,-45.22931 19.66239,-18.46154 40.47505,-36.96674 53.07678,-61.24763 21.57916,-48.44419 -46.93127,-78.961733 -68.51043,-30.51754 z"/>
<path d="m 474.98009,289.0762 c 5.82551,14.06693 7.63057,29.45544 9.81033,44.39443 4.04964,34.36168 4.72959,69.11346 2.45036,103.63296 -0.50794,7.69286 -1.31224,15.36329 -1.96836,23.04493 -4.33269,40.64925 -12.04794,80.82353 -18.43057,121.17725 -2.38361,14.78533 -4.29853,29.63671 -5.93757,44.52066 -5.78496,52.71655 68.7675,60.89771 74.55246,8.18117 v 0 c 1.49793,-13.70468 3.27048,-27.37681 5.46492,-40.98941 6.66169,-42.1515 14.74369,-84.11422 19.08638,-126.59785 0.71867,-8.6485 1.6042,-17.28474 2.15603,-25.94548 2.50684,-39.34429 1.60432,-78.94428 -3.19324,-118.08167 -3.9413,-25.99981 -7.83366,-53.07836 -22.13698,-75.75293 -29.9926,-43.73722 -91.84636,-1.32128 -61.85376,42.41594 z"/>
<path d="m 535.17373,303.9137 c 20.50634,-5.13753 41.60311,-7.29133 62.57307,-9.55574 37.00896,-3.68661 74.18568,-5.12425 111.34135,-6.35807 18.68375,-0.64139 37.38091,-0.75385 56.07325,-0.57097 1.59635,0.2319 3.26433,-0.0946 4.87359,0.13195 0.24715,0.0348 -0.50462,0.0577 -0.74876,0.006 -2.80199,-0.59547 -5.86065,-0.56404 -8.37096,-1.94393 -15.0729,-8.28542 -13.31111,-8.16424 -20.05325,-20.09977 -0.14192,-0.1474 -0.42851,-0.6468 -0.42576,-0.4422 0.0228,1.69765 0.33758,3.37885 0.48803,5.06998 0.24798,2.78742 0.47392,5.57675 0.70725,8.36543 1.15101,13.75687 2.18444,27.51832 3.17197,41.28792 1.65338,25.66013 3.16588,51.33974 3.75385,77.05036 0.39914,17.45391 0.25981,21.58241 0.17591,38.96804 -0.26382,34.58365 -4.64669,68.91846 -9.26936,103.13279 -1.8294,12.64998 -3.45736,25.32887 -5.34431,37.97066 -1.01267,6.78445 -2.10743,13.39058 -3.91195,20.00131 -13.22092,51.35862 59.41113,70.05582 72.63205,18.69721 v 0 c 0.71211,-2.85231 1.50517,-5.68563 2.13634,-8.55694 4.2059,-19.13324 5.65048,-38.7714 8.81346,-58.07698 5.05034,-37.42929 9.70553,-74.99992 9.94301,-112.83105 0.0784,-18.73156 0.22359,-22.91781 -0.21376,-41.71115 -0.62132,-26.69881 -2.18361,-53.36603 -3.9076,-80.01236 -1.01266,-14.10406 -2.06237,-28.20122 -3.25077,-42.29162 -0.30137,-3.5732 -1.14781,-14.12663 -1.72868,-18.01975 -0.48331,-3.23921 -1.19141,-6.44088 -1.78711,-9.66132 -2.29138,-4.94347 -3.37671,-10.65234 -6.87414,-14.83042 -4.61848,-5.51731 -10.65146,-9.83417 -16.84204,-13.50128 -6.36005,-3.7675 -15.94242,-3.47637 -23.23919,-3.69919 -19.76601,-0.19037 -39.53691,-0.0681 -59.29382,0.60888 -39.02517,1.29961 -78.07101,2.84165 -116.93841,6.75421 -25.04884,2.72947 -50.2336,5.46098 -74.6635,11.88411 -51.07719,14.26958 -30.89695,86.50363 20.18024,72.23405 z"/>
<path d="m 544.95776,431.14564 c 13.40594,-0.91322 26.76791,-2.35697 40.15639,-3.49354 23.86709,-1.77733 47.79807,-2.43018 71.72564,-2.40243 12.13247,0.22437 6.39879,0.0496 17.20227,0.48163 52.99292,2.06159 55.90844,-72.88172 2.91552,-74.94331 v 0 c -12.80415,-0.48661 -6.11755,-0.29553 -20.06077,-0.5383 -26.06661,-0.0104 -52.13761,0.69456 -78.13593,2.67199 -12.82702,1.09201 -25.63017,2.45806 -38.47102,3.36936 -52.9302,3.30071 -48.26229,78.15531 4.6679,74.8546 z"/>
<path d="m 544.30598,551.16718 c 13.78606,-1.95394 27.59059,-3.56057 41.4719,-4.66018 21.99757,-1.53032 44.03292,-1.13073 65.99352,0.63784 6.57841,0.5042 13.04643,1.70574 19.47426,3.12801 51.8817,10.99041 67.4245,-62.38139 15.5428,-73.3718 v 0 c -9.62544,-1.98676 -19.28482,-3.7978 -29.10736,-4.52301 -25.92754,-2.01756 -51.94346,-2.51485 -77.90623,-0.63041 -14.63162,1.18833 -29.20549,2.76248 -43.73335,4.87629 -52.71005,5.84385 -44.44559,80.38712 8.26446,74.54326 z"/>
<path d="m 511.50845,651.00512 c 16.58215,0.0712 33.15916,-0.49028 49.72941,-1.04784 28.5713,-0.80134 57.15386,-2.05166 85.74405,-1.77188 5.58835,0.0547 11.17436,0.25371 16.76154,0.38057 23.75149,0.87717 47.47927,2.83376 70.93595,6.70901 7.3526,1.24632 14.62637,2.8692 21.80508,4.8794 51.13719,14.05301 71.01116,-58.2659 19.87396,-72.31892 v 0 c -9.76278,-2.65142 -19.61519,-4.94039 -29.6044,-6.58212 -26.91834,-4.34709 -54.10599,-6.77606 -81.35997,-7.66921 -6.2086,-0.13281 -12.41604,-0.34103 -18.62579,-0.39843 -29.36235,-0.27137 -58.71672,0.98004 -88.05965,1.81424 -15.72737,0.53223 -31.46139,1.07333 -47.20018,1.00518 -53.03301,0 -53.03301,75 0,75 z"/>
<path d="m 544.91019,667.52346 c -1.84972,1.75989 -3.7948,3.42472 -5.54918,5.27968 -5.6867,6.01271 -9.43317,11.08558 -14.36309,17.93018 -9.50642,13.19849 -18.15505,26.89466 -26.68613,40.73277 -11.16873,19.68432 -5.90294,10.02073 -15.85035,28.96183 -24.59894,46.9829 41.84491,81.77105 66.44385,34.78816 v 0 c 8.35062,-16.00728 3.93327,-7.84406 13.29533,-24.46618 9.49247,-15.48522 19.27579,-30.85518 30.32397,-45.27931 40.97481,-33.66847 -6.63959,-91.61559 -47.6144,-57.94713 z"/>
<path d="m 693.68016,723.53774 c 0.52809,0.54981 1.07806,1.0794 1.58426,1.64943 3.61563,4.07163 6.84687,8.61323 10.15728,12.91496 4.45733,5.79212 8.89783,11.59717 13.34721,17.39538 6.44812,7.97983 12.05661,16.54907 17.52569,25.20826 28.47791,44.73822 91.74732,4.46438 63.26941,-40.27385 v 0 c -6.70341,-10.46995 -13.50655,-20.87918 -21.29488,-30.59319 -10.24119,-13.3458 -20.0646,-27.13624 -31.61542,-39.39339 -37.542,-37.45796 -90.51554,15.63444 -52.97355,53.0924 z"/>
</svg>
