<?xml version="1.0" ?>
<svg xmlns="http://www.w3.org/2000/svg" width="1000" height="1000">
<path d="m 227.19037,130.23368 c 12.39821,8.77397 23.97212,18.61826 35.24608,28.77454 7.46656,7.11543 4.05556,3.70291 10.29286,10.17739 36.97439,38.01834 90.74045,-14.27135 53.76605,-52.28969 v 0 c -8.85332,-9.04508 -4.21992,-4.47786 -13.92872,-13.67269 -14.33863,-12.858561 -29.06774,-25.352467 -45.01134,-36.20088 -44.69716,-28.542316 -85.06209,34.66901 -40.36493,63.21133 z"/>
<path d="m 128.97234,266.4637 c 24.97393,-6.02219 49.99068,-11.80606 75.131,-17.09414 39.15296,-7.60852 78.87689,-12.75948 118.72913,-14.74793 7.07183,-0.35286 14.15451,-0.43688 21.23177,-0.65532 18.78363,-0.54955 37.46334,0.95108 56.01214,3.73113 52.47593,7.66658 63.31812,-66.54559 10.84219,-74.21218 v 0 c -4.27523,-0.61253 -8.53679,-1.32943 -12.82567,-1.83761 -18.72405,-2.21857 -37.57825,-2.96266 -56.42717,-2.64298 -7.97085,0.26305 -15.94788,0.37966 -23.91256,0.78915 -43.33877,2.2282 -86.53037,7.85684 -129.10311,16.18503 -26.28997,5.54111 -52.45891,11.57368 -78.56975,17.90324 -51.322951,13.35868 -32.430919,85.9403 18.89203,72.58161 z"/>
<path d="m 149.41504,260.56719 c -0.0266,0.11477 -0.10146,0.22851 -0.0798,0.34431 0.30745,1.64284 0.70754,3.26699 1.06131,4.90048 0.62824,3.22486 1.29143,6.44311 1.8847,9.67458 2.75648,15.01417 5.26075,30.06384 8.09766,45.06472 3.49143,18.44284 8.30372,36.57697 13.61907,54.56371 15.07822,50.84434 86.98298,29.52051 71.90475,-21.32383 v 0 c -4.63173,-15.55313 -8.80255,-31.2409 -11.83384,-47.19651 -4.31045,-22.72266 -1.62063,-8.09758 -5.62113,-30.97937 -2.12868,-12.17549 -4.01106,-24.53744 -7.33928,-36.46618 -0.67827,-2.43099 -1.57672,-4.79511 -2.36507,-7.19266 -20.23086,-49.02257 -89.55924,-20.41182 -69.32839,28.61075 z"/>
<path d="m 323.83646,231.99777 c -1.59748,15.96122 -5.8611,31.64921 -11.02446,46.79845 -1.86187,5.4627 -3.99031,10.83088 -5.98546,16.24632 -8.39889,22.90851 -22.16381,42.97826 -35.88261,62.91568 -29.98999,43.73901 31.8663,86.15126 61.85629,42.41225 v 0 c 3.89796,-5.70231 7.92671,-11.31738 11.69389,-17.10692 12.86904,-19.77763 24.50758,-40.32717 32.78422,-62.50048 2.41006,-6.65098 4.98915,-13.24312 7.23017,-19.95294 7.13368,-21.35893 12.71908,-43.5097 14.27634,-66.03028 1.96722,-52.99651 -72.98116,-55.77859 -74.94838,-2.78208 z"/>
<path d="m 111.84279,445.27301 c 2.40348,-0.37556 4.8163,-0.6956 7.21046,-1.12666 12.81691,-2.30765 25.5564,-5.09225 38.36194,-7.46828 21.98054,-4.07841 20.37642,-3.68015 43.60467,-7.47152 36.92942,-5.47455 74.07544,-9.78562 111.36648,-11.81392 21.91869,-1.19219 30.57635,-1.07286 52.18917,-1.32629 22.53421,-0.17325 44.99696,1.45729 67.3906,3.76838 52.75718,5.40188 60.3966,-69.20803 7.63942,-74.60992 v 0 c -25.23925,-2.56637 -50.55588,-4.37039 -75.9488,-4.15283 -23.6669,0.30147 -32.48,0.17265 -56.53461,1.50563 -39.57959,2.19329 -79.00698,6.76648 -118.20077,12.61121 -28.15187,4.60774 -56.26827,9.47798 -84.17363,15.42055 -52.795171,5.01697 -45.700105,79.68062 7.09507,74.66365 z"/>
<path d="m 123.8833,420.78 c 0.6253,25.83814 -3.74967,51.34608 -8.11888,76.70336 -6.348,32.82754 -16.288667,64.95888 -30.213509,95.38212 -9.672397,21.13242 -14.863893,29.29553 -26.328343,49.57519 -11.591358,18.78101 -17.131292,28.29358 -29.525954,46.31839 -4.723661,6.86933 -9.731083,13.53916 -14.596624,20.30874 -30.900532,43.10055 30.052846,86.8005 60.953378,43.69995 v 0 c 5.428447,-7.58863 11.009615,-15.07031 16.28534,-22.7659 13.659852,-19.92535 19.438792,-29.93847 32.244652,-50.77848 13.34308,-23.80421 18.99844,-32.68145 30.25334,-57.64413 16.04701,-35.59131 27.53766,-73.11101 34.85164,-111.43676 1.32958,-7.80725 2.78812,-15.59364 3.98872,-23.42177 3.34687,-21.82227 5.48513,-43.84436 5.20624,-65.94071 0,-53.03301 -75,-53.03301 -75,0 z"/>
<path d="m 317.84567,425.08351 c -18.67815,14.06118 -37.18082,28.38444 -55.12419,43.37798 -5.69428,4.75816 -11.28617,9.63755 -16.92925,14.45633 -21.94015,19.06269 -10.93447,9.6094 -33.01599,28.36109 -40.42007,34.33246 8.13336,91.49507 48.55344,57.16261 v 0 c 22.56415,-19.16989 11.50421,-9.6632 33.18944,-28.50887 5.21988,-4.4651 10.39132,-8.98745 15.65963,-13.39529 17.96412,-15.03002 36.55636,-29.28852 55.2087,-43.44714 41.01694,-33.61712 -6.52484,-91.62383 -47.54178,-58.00671 z"/>
<path d="m 362.57535,525.92674 c -18.82467,15.52323 -38.74786,29.62981 -58.47402,43.9701 -30.36204,22.56268 -60.59443,45.29081 -91.27774,67.41689 -43.01324,31.02194 0.85841,91.85186 43.87165,60.82992 v 0 c 30.75676,-22.18552 61.08049,-44.94893 91.5071,-67.58298 19.41375,-14.11339 39.16127,-27.87992 57.55964,-43.31578 43.35848,-30.53756 0.17185,-91.85571 -43.18663,-61.31815 z"/>
<path d="m 344.81714,673.36973 c -0.0143,-0.35478 0.26879,-1.23438 -0.0429,-1.06434 -0.87655,0.47816 -1.37937,1.445 -2.03515,2.19795 -2.0903,2.40002 -4.05375,4.9112 -6.20191,7.25958 -3.46776,3.79094 -7.01069,7.5151 -10.63986,11.15182 -12.4566,12.48249 -20.75405,19.87724 -34.01054,32.1345 -30.09519,27.08122 -61.5812,52.61853 -94.13647,76.68336 -7.90861,5.84604 -15.95891,11.49796 -23.93836,17.24694 -43.01712,31.01656 0.84692,91.85196 43.86404,60.8354 v 0 c 8.46157,-6.10546 16.99811,-12.10833 25.38469,-18.31638 34.50878,-25.54463 67.8775,-52.65529 99.76827,-81.40484 13.76559,-12.75057 24.58288,-22.44557 37.62579,-35.71552 12.09771,-12.3083 24.3647,-25.35955 32.4785,-40.77824 1.71701,-3.26284 2.78129,-6.82946 4.17193,-10.2442 14.13226,-51.11535 -58.15576,-71.10138 -72.28802,-19.98603 z"/>
<path d="m 507.73414,200.57817 c 33.39279,-6.75294 67.03923,-12.07945 100.71647,-17.18591 40.05021,-5.90948 80.27768,-10.82353 120.69754,-13.3311 22.24891,-1.38028 28.92582,-1.31132 50.57054,-1.7629 16.11655,-0.32505 32.17977,0.71295 48.21431,2.14417 52.83358,4.59486 59.33169,-70.12311 6.49811,-74.717966 v 0 c -18.73366,-1.594526 -37.49551,-2.817352 -56.31791,-2.40902 -23.49451,0.514942 -30.51358,0.443122 -54.6471,1.96126 -42.28234,2.659805 -84.36807,7.775076 -126.26591,13.964166 -33.44937,5.07804 -66.90981,10.2211 -100.04933,17.08776 -52.50235,7.48351 -41.91908,81.73305 10.58328,74.24954 z"/>
<path d="m 596.20856,174.18661 c 0.0248,3.05116 -1.06585,5.61262 -2.29331,8.36793 -1.33887,3.00541 -2.59662,6.05274 -4.11192,8.97318 -6.31681,12.17446 -9.46739,16.28142 -17.34599,28.40271 -11.94591,17.94604 -25.5218,34.6908 -39.0632,51.43055 -33.32606,41.25377 25.01559,88.38393 58.34165,47.13016 v 0 c 15.21787,-18.86145 30.44596,-37.75033 43.81095,-58.00546 4.31999,-6.77882 8.88332,-13.40857 12.95997,-20.33646 9.56831,-16.26045 17.43039,-32.81364 21.35864,-51.34511 1.13025,-5.33191 1.14648,-9.44987 1.34321,-14.6175 0,-53.03301 -75,-53.03301 -75,0 z"/>
<path d="m 447.06446,337.21826 c 2.06691,1.74962 -2.34514,-2.03201 -2.1661,-1.22249 0.22343,1.01024 0.86088,1.88194 1.26883,2.83277 0.92549,2.15712 1.91657,4.28921 2.73126,6.49057 3.99974,10.80753 4.38388,13.57878 7.62411,25.71223 11.51034,47.89046 13.88038,97.23249 15.90131,146.24675 0.81603,32.61272 1.21821,65.29393 -0.78364,97.87607 -0.98795,16.07986 -1.61581,19.96885 -3.36614,35.42211 -1.21972,8.18475 -1.86002,14.76283 -4.0545,22.55978 -0.39707,1.4108 -1.10165,2.71632 -1.65248,4.07448 -17.10537,50.19866 53.88626,74.38932 70.99164,24.19065 v 0 c 1.32258,-4.13969 2.86799,-8.2147 3.96775,-12.41908 2.79588,-10.68857 3.67397,-19.04036 5.28175,-30.05972 1.96992,-17.7697 2.65035,-21.98238 3.75584,-40.38957 2.08666,-34.74447 1.70314,-69.58996 0.79526,-104.36495 -2.28228,-54.64571 -5.24498,-109.62417 -18.49443,-162.92498 -1.87991,-6.75264 -3.53526,-13.57186 -5.63973,-20.25792 -5.39059,-17.12624 -12.56691,-34.59575 -24.81204,-48.04641 -1.73137,-1.90182 -3.78991,-3.47776 -5.68486,-5.21664 -42.07027,-32.2892 -87.7341,27.20715 -45.66383,59.49635 z"/>
<path d="m 526.14767,354.50163 c 24.3998,-6.21049 49.07511,-11.37151 73.71036,-16.56428 45.54046,-9.42229 91.56816,-16.15449 137.74091,-21.54893 13.53805,-1.52435 27.12751,-2.58393 40.74683,-2.9595 2.62822,-0.0725 5.25792,-0.13671 7.88695,-0.10504 1.40638,0.017 2.97656,-0.42144 4.21199,0.2508 1.14946,0.62547 -2.61648,-0.063 -3.92471,-0.0945 -18.17615,-8.49035 -7.56543,-1.36063 -20.79561,-16.26473 -0.20407,-0.22989 -0.89171,-0.42531 -0.91452,-0.11876 -0.21003,2.82328 0.20761,5.6584 0.29189,8.48823 0.13773,4.62464 0.24943,9.25003 0.37415,13.87504 0.17676,5.88128 0.35352,11.76256 0.53028,17.64384 1.15525,32.21022 3.1475,64.38684 3.85188,96.61368 0.55372,25.33352 0.35384,31.69709 0.2391,57.25763 -0.84823,47.50398 -2.02636,95.06934 -6.02952,142.43217 -0.68497,8.10412 -1.57007,16.19009 -2.3551,24.28513 -2.21752,19.42286 -4.69037,38.85419 -8.40688,58.05793 -1.59138,8.22291 -3.0628,14.76692 -5.63637,22.56699 -0.68888,2.0879 -1.5842,4.10193 -2.37631,6.15289 -18.30791,49.77269 52.08129,75.66399 70.38921,25.89131 v 0 c 1.37456,-3.83942 2.90028,-7.62803 4.12368,-11.51826 7.11922,-22.63806 10.60542,-46.72038 13.70818,-70.17962 1.04609,-7.90921 1.90092,-15.84254 2.85138,-23.76381 0.83474,-8.68227 1.77455,-17.35508 2.50424,-26.04681 4.11942,-49.06871 5.37453,-98.34229 6.2268,-147.55628 0.11022,-26.90384 0.31542,-33.23702 -0.2746,-59.90893 -0.71234,-32.20134 -2.67014,-64.35368 -3.84956,-96.53764 -0.32792,-10.90565 -0.51451,-21.81606 -0.95008,-32.71794 -0.74516,-18.65053 -1.38229,-35.34734 -15.50788,-50.05922 -4.84306,-5.04407 -11.96409,-7.24242 -17.94613,-10.86364 -4.27314,-0.85396 -8.50048,-1.98247 -12.81942,-2.5619 -3.86132,-0.51804 -14.8279,-0.2668 -18.39692,-0.1588 -15.53191,0.46998 -31.03154,1.66656 -46.47204,3.40826 -48.43824,5.67955 -96.72577,12.7476 -144.49884,22.65468 -26.66089,5.62569 -53.3882,11.15547 -79.74023,18.09977 -50.80577,15.20767 -29.29888,87.05789 21.50689,71.85022 z"/>
<path d="m 527.87598,482.48816 c 25.4187,-2.99131 50.9612,-4.83133 76.47692,-6.77252 34.01328,-2.44353 68.05803,-4.57788 102.16435,-4.92008 3.0036,0.0111 6.0072,0.0221 9.01081,0.0332 53.03272,0.17421 53.27909,-74.82539 0.24636,-74.9996 v 0 c -3.34914,-0.01 -6.69828,-0.0196 -10.04742,-0.0294 -35.74147,0.39277 -71.42201,2.53454 -107.06555,5.13218 -27.36027,2.08299 -54.7579,4.02933 -81.9962,7.39886 -52.4372,7.92719 -41.22646,82.08459 11.21073,74.1574 z"/>
<path d="m 527.13269,616.3255 c 2.5826,-0.30433 5.17406,-0.54113 7.7478,-0.91301 11.82848,-1.70909 23.5476,-4.10758 35.37815,-5.82661 16.1345,-2.34441 17.37564,-2.31325 34.06803,-4.10496 23.65689,-2.08284 47.4392,-3.06918 71.17953,-2.07989 11.29624,0.47072 14.80225,0.94208 25.61631,1.98108 11.40425,1.54024 6.05814,0.73212 16.04692,2.36686 52.35529,8.45125 64.30716,-65.59031 11.95187,-74.04156 v 0 c -13.04242,-2.08297 -6.05776,-1.05834 -20.96543,-2.99478 -13.15169,-1.21846 -17.2483,-1.76164 -30.94022,-2.29212 -27.00234,-1.04619 -54.04921,0.0613 -80.95014,2.49489 -6.62963,0.72132 -13.26895,1.3585 -19.88888,2.16395 -18.06454,2.19792 -35.98079,5.3347 -53.91211,8.39157 -52.93018,3.30089 -48.26201,78.15547 4.66817,74.85458 z"/>
<path d="m 507.94155,736.2177 c 18.45372,-4.10469 37.47085,-5.08042 56.26391,-6.63012 41.81106,-3.10034 83.68554,-5.16641 125.57389,-6.85852 28.42797,-0.88981 56.87242,-2.21648 85.31938,-1.5656 5.58836,0.46848 3.16741,0.14135 7.28354,0.81385 52.55306,7.11868 62.62039,-67.20257 10.06733,-74.32126 v 0 c -9.97831,-1.25186 -4.74408,-0.73363 -15.71038,-1.47465 -30.00505,-0.6313 -60.00412,0.59615 -89.98854,1.60883 -42.93857,1.7362 -85.8631,3.85857 -128.72141,7.05209 -22.065,1.82675 -44.33677,3.17339 -65.98607,8.07979 -51.82781,11.24184 -35.92945,84.53742 15.89835,73.29559 z"/>
<path d="m 523.55389,752.25365 c -18.46488,18.64586 -34.6793,39.38281 -51.22844,59.70825 -9.13049,11.65435 -18.93763,22.71894 -29.00644,33.55801 -36.01712,38.92644 19.03317,89.86233 55.05029,50.9359 v 0 c 11.1014,-12.03726 22.00623,-24.24325 32.11639,-37.14007 14.14457,-17.37269 28.09411,-34.94425 43.32484,-51.39101 39.3654,-35.53681 -10.89124,-91.2079 -50.25664,-55.67108 z"/>
<path d="m 678.46306,837.64644 c 11.01014,7.42422 19.89743,17.28562 28.85913,26.97301 10.41685,11.22327 19.77886,23.31749 28.28079,36.03476 29.5985,44.00487 91.83078,2.14626 62.23228,-41.8586 v 0 c -10.75164,-15.91363 -22.45578,-31.14324 -35.55803,-45.21481 -15.25175,-16.36965 -30.48007,-32.2103 -50.33326,-43.04642 -47.45539,-23.67458 -80.9363,43.43748 -33.48091,67.11206 z"/>
</svg>
