<?xml version="1.0" ?>
<svg xmlns="http://www.w3.org/2000/svg" viewBox="0 0 1000 1000">
<path d="m 252.71283,73.267133 c -9.33814,25.245165 -20.73401,49.631607 -32.15989,73.977897 -25.2215,53.30005 -53.71319,104.98681 -85.14511,154.8724 -6.8213,10.82607 -13.92542,21.47134 -20.88813,32.20701 -19.415789,28.59795 -39.347833,56.87058 -60.729526,84.04334 -13.184466,16.75538 -19.560721,23.91029 -32.964482,39.56802 -34.468297,40.3043 22.530588,89.04983 56.998886,48.74553 v 0 c 14.66244,-17.16073 21.142984,-24.42416 35.606462,-42.83864 22.53727,-28.6938 43.57401,-58.52647 64.02692,-88.72884 7.3103,-11.28765 14.7677,-22.48137 21.93089,-33.86294 32.87648,-52.23737 62.66341,-106.3676 89.06737,-162.16025 9.3494,-19.94835 18.47474,-39.65056 26.79468,-60.04659 2.5525,-6.25737 5.89963,-14.43965 8.21672,-21.009883 0.62791,-1.780473 1.13471,-3.601369 1.70207,-5.402053 13.69312,-51.234738 -58.76374,-70.599739 -72.45686,-19.365001 z"/>
<path d="m 276.89641,168.13034 c 19.13642,9.99444 36.38762,23.25676 53.5475,36.24817 19.62855,15.71162 38.57901,32.3836 55.68089,50.84737 8.91098,9.6206 10.96758,12.52736 18.8331,22.36184 7.53867,10.65218 4.16643,5.5674 10.22857,15.17956 28.58179,44.67193 91.75744,4.25117 63.17564,-40.42076 v 0 c -9.0565,-14.02016 -4.10508,-6.7326 -14.97489,-21.78022 -9.91259,-12.25719 -12.38543,-15.73005 -23.52241,-27.65687 -19.76714,-21.16903 -41.55076,-40.37942 -64.2143,-58.37541 -21.47718,-16.19215 -43.14701,-32.62078 -67.38276,-44.52739 -48.17073,-22.182887 -79.54208,45.94082 -31.37134,68.12371 z"/>
<path d="m 254.00608,358.66193 c 7.74186,5.83877 16.28254,10.7784 23.38239,17.44095 1.4818,1.39053 2.74509,2.99696 4.11763,4.49544 1.1463,1.83942 2.29259,3.67885 3.43888,5.51828 31.01758,43.01639 91.85194,-0.8491 60.83436,-43.86549 v 0 c -3.61183,-4.75931 -7.22366,-9.51863 -10.83549,-14.27795 -3.37668,-3.32408 -6.61276,-6.79729 -10.13003,-9.97223 -4.71961,-4.26025 -10.99984,-8.77083 -16.21287,-12.54518 -2.61581,-1.8939 -9.12846,-6.54365 -12.02498,-8.49628 -1.51638,-1.02223 -3.07104,-1.98648 -4.60655,-2.97972 -45.73721,-26.84414 -83.70055,37.83804 -37.96334,64.68218 z"/>
<path d="m 199.21642,477.63811 c 12.54202,-6.43667 26.38324,-10.10045 39.8666,-13.98835 35.67477,-10.18644 72.53982,-14.72158 109.36903,-18.19135 21.27735,-1.60769 42.68959,-2.92627 64.00949,-1.36858 1.82057,0.18289 4.57291,0.43038 6.48179,0.71315 0.17933,0.0266 0.70376,0.1707 0.52444,0.14406 -2.9712,-0.44134 -6.991,-1.50716 -9.05291,-3.10264 -5.15873,-3.99176 -9.3772,-9.06943 -14.0658,-13.60415 -1.55553,-5.07618 -3.11107,-10.15236 -4.6666,-15.22854 -0.0586,-0.46774 -0.0662,-1.8617 -0.17583,-1.40323 -0.3689,1.54221 -0.40697,3.14521 -0.61683,4.71698 -0.36903,2.76384 -0.75003,5.52608 -1.11985,8.28982 -1.93397,14.45317 -1.40479,10.51822 -3.43592,26.53505 -3.08516,26.51776 -7.3419,52.88994 -13.63005,78.84696 -3.35012,13.82907 -7.92309,29.89924 -11.72028,43.60486 -4.92101,19.25344 -11.13508,38.10564 -17.69796,56.84499 -17.46285,50.07543 53.3545,74.77163 70.81735,24.6962 v 0 c 7.05353,-20.3014 13.81934,-40.69654 19.16231,-61.5323 4.32076,-15.62124 8.87802,-31.59214 12.65427,-47.35144 6.76199,-28.21953 11.45122,-56.86519 14.81892,-85.67729 1.46917,-11.59402 3.03218,-23.17285 4.54758,-34.7605 0.36069,-2.75809 1.72816,-12.7489 1.36164,-15.08976 -1.00997,-6.45038 -3.18742,-12.66294 -4.78112,-18.99441 -5.04253,-5.16998 -9.48715,-10.99981 -15.12759,-15.50992 -2.58498,-2.06697 -6.01957,-2.774 -9.13524,-3.89074 -6.36784,-2.28241 -13.40566,-2.18843 -20.01672,-3.0718 -25.39668,-1.66338 -50.86745,-0.60648 -76.21066,1.52773 -17.11149,1.63017 -24.30152,2.15742 -41.58855,4.47125 -27.52634,3.68433 -54.87638,8.86646 -81.63199,16.36437 -18.52096,5.41557 -37.34282,10.7751 -54.43557,19.94121 -46.7174,25.0995 -11.22134,91.16787 35.49605,66.06837 z"/>
<path d="m 249.44161,566.83348 c 19.16184,-5.20063 38.65645,-8.89073 58.2268,-12.14581 16.96585,-2.64348 34.15242,-3.89669 51.30714,-2.75616 7.71289,0.51279 10.18793,1.04516 17.47058,2.17994 52.45782,7.78952 63.47387,-66.39705 11.01604,-74.18657 v 0 c -11.06427,-1.58975 -14.42155,-2.29416 -26.04468,-2.95361 -22.10911,-1.25438 -44.25753,0.31299 -66.11335,3.74259 -21.81255,3.66163 -43.54595,7.78774 -64.90986,13.5786 -51.29424,13.4685 -32.24692,86.00952 19.04733,72.54102 z"/>
<path d="m 220.52028,666.80711 c 16.58456,-5.09916 33.81366,-7.35556 50.96905,-9.52711 30.56766,-3.65813 61.31378,-5.29406 92.06527,-6.32917 3.81748,-0.10054 7.63495,-0.20109 11.45242,-0.30163 53.0145,-1.40102 51.03316,-76.37484 -1.98134,-74.97382 v 0 c -4.00189,0.1061 -8.00379,0.21219 -12.00568,0.31829 -33.08563,1.12356 -66.16431,2.92083 -99.04805,6.89265 -21.65698,2.79567 -43.37093,5.88283 -64.26356,12.47419 -50.52038,16.13044 -27.70848,87.57705 22.81189,71.4466 z"/>
<path d="m 169.01464,472.5986 c 0.007,29.06626 0.0189,58.13233 -0.0777,87.19844 -0.0723,55.87856 -2.13399,111.72929 -4.78033,167.53721 -1.68013,35.51274 -4.38875,70.96133 -7.13133,106.40365 -0.45648,5.98788 -0.9144,11.97595 -1.30069,17.96888 -0.0999,1.55028 -0.35965,5.40814 -0.28056,6.83446 0.14871,2.68178 0.49375,5.34907 0.74063,8.02361 13.08356,25.32495 6.92345,24.59476 41.77644,31.62892 4.05467,0.81833 8.14388,-1.51976 12.1234,-2.64825 3.21183,-0.91079 6.30253,-2.21112 9.40047,-3.45535 8.40252,-3.37472 16.86987,-7.40615 25.07464,-11.1783 29.6198,-13.84416 58.86749,-28.4654 88.31517,-42.67042 47.76571,-23.04206 15.17932,-90.59298 -32.58639,-67.55093 v 0 c -29.04468,14.01153 -57.89521,28.42689 -87.10194,42.09849 -8.70254,4.01559 -12.09056,5.6709 -20.27933,9.1683 -1.39127,0.59421 -4.21322,0.18875 -4.2075,1.70159 0.005,1.4077 2.88519,-0.76303 4.21282,-0.29501 33.17402,11.6948 24.45581,4.39988 37.20129,30.57194 0.10797,1.86139 0.22657,3.72218 0.32391,5.58415 0.003,0.0531 -0.0423,-0.10124 -0.04,-0.15433 0.0374,-0.88067 0.10232,-1.75996 0.15882,-2.6396 0.36853,-5.73721 0.809,-11.46953 1.2453,-17.20187 2.80022,-36.18733 5.55676,-72.3817 7.27086,-108.64095 2.69331,-56.9075 4.7914,-113.85827 4.86392,-170.83756 0.0964,-29.14899 0.0856,-58.29794 0.0781,-87.44707 0,-53.033 -75,-53.033 -75,0 z"/>
<path d="m 348.36699,772.11168 c 11.86057,9.13681 23.86737,18.07767 35.55996,27.43512 7.00196,5.66169 13.624,11.76036 20.21917,17.88263 38.9079,36.03714 89.87211,-18.98694 50.96422,-55.02408 v 0 c -7.94516,-7.34521 -15.92417,-14.66011 -24.36029,-21.44692 -7.53563,-6.01514 -15.13266,-11.9291 -22.81678,-17.75333 -0.46648,-0.35357 -7.96298,-6.0212 -9.44453,-7.04827 -0.0417,-0.0289 -0.008,0.1013 -0.0115,0.15195 -39.45861,-35.43329 -89.56885,20.36961 -50.11024,55.8029 z"/>
<path d="m 540.35884,80.741319 c -2.09295,9.577716 -5.413,18.812924 -8.49839,28.096931 -1.86053,5.59834 -3.69957,11.2038 -5.54935,16.8057 -2.09469,6.29799 -4.18938,12.59597 -6.28407,18.89396 -2.44328,6.58815 -4.78532,13.21473 -7.32982,19.76445 -4.82979,12.43217 -12.0706,29.48198 -17.18752,41.78056 -7.54758,18.14068 -15.05201,36.29484 -22.73471,54.37884 -4.21443,9.80554 -8.58362,19.5413 -13.15504,29.18505 -0.22603,0.47683 -4.50313,9.28823 -4.56464,10.03351 -0.76644,9.28653 -0.39138,18.63209 -0.58707,27.94813 16.27617,7.7997 31.52921,18.25296 48.82853,23.3991 1.21216,0.36059 21.98083,-9.6085 23.54829,-10.31066 17.25867,-7.7313 34.91673,-14.18934 52.69309,-20.61375 43.06337,-14.80936 87.65313,-24.92192 132.68222,-31.54395 9.24743,-1.35993 18.54073,-2.38717 27.81109,-3.58076 31.3104,-3.46073 62.82062,-5.04347 94.31709,-4.34627 12.30883,0.27247 19.04556,0.77253 30.95546,1.4831 52.94084,3.12514 57.36047,-71.74452 4.41962,-74.86967 v 0 c -13.56445,-0.79305 -20.74461,-1.32593 -34.82968,-1.61145 -34.90076,-0.70746 -69.81537,1.07017 -104.50269,4.96643 -10.14906,1.32339 -20.32333,2.46605 -30.44719,3.97016 -49.54697,7.36126 -98.58013,18.64106 -145.9459,35.01497 -7.62679,2.76768 -15.29197,5.43177 -22.88036,8.30304 -13.86997,5.24806 -22.83444,8.97469 -36.02407,14.88071 -3.43918,1.53999 -6.88357,3.07642 -10.24055,4.7882 -0.53085,0.27068 -1.87981,0.81342 -1.37944,1.137 13.74984,8.89206 28.09997,16.81959 42.14996,25.22938 -0.5136,8.36176 -1.27451,16.712 -1.54079,25.08528 -0.0227,0.71388 0.50904,-1.33578 0.80616,-1.98529 0.82966,-1.81362 1.72045,-3.59866 2.57305,-5.40161 4.97681,-10.52424 9.75423,-21.13918 14.3435,-31.8388 7.74179,-18.22885 15.31063,-36.52556 22.9168,-54.81129 5.83166,-14.0197 12.86233,-30.53769 18.3201,-44.65963 2.83107,-7.32539 5.43437,-14.73679 8.15156,-22.10518 9.26217,-27.84884 3.29095,-9.84926 11.83033,-35.69037 4.8648,-14.72141 10.12276,-29.49714 12.02505,-44.97059 4.81202,-52.814245 -69.8786,-59.619475 -74.69062,-6.805231 z"/>
<path d="m 496.06903,455.07721 c 1.6341,14.76746 3.19153,29.55036 5.66605,44.20923 1.02584,6.07702 2.25566,12.11784 3.38349,18.17676 6.80839,33.45386 16.73377,66.14167 26.95801,98.67667 3.86955,12.13886 2.06819,6.45615 5.41076,17.04603 15.96395,50.57323 87.48531,27.9968 71.52135,-22.57644 v 0 c -3.37714,-10.69794 -1.58419,-5.04353 -5.38415,-16.96154 -9.33691,-29.6904 -18.46522,-59.50094 -24.79074,-90.00737 -2.70625,-14.3096 -3.14131,-15.57478 -5.06114,-29.55932 -1.65567,-12.06036 -2.3832,-24.25602 -4.70592,-36.21838 -12.17239,-51.61718 -85.1701,-34.40282 -72.99771,17.21436 z"/>
<path d="m 639.38085,487.00824 c 19.45208,-9.257 39.74787,-16.5198 60.52051,-22.20383 6.56132,-1.79538 13.19466,-3.31636 19.792,-4.97454 31.68859,-7.19819 63.93325,-12.66183 96.47004,-13.73614 4.48161,-0.14798 8.96802,-0.04 13.45203,-0.06 7.79112,0.34505 15.72561,0.63563 23.25986,2.87729 0.90761,0.27004 1.80826,0.5958 2.64089,1.0468 0.10273,0.0556 0.0339,0.37868 -0.077,0.34193 -1.055,-0.34958 -2.02528,-0.91606 -3.03792,-1.37409 -5.21783,-4.42562 -4.99353,-3.498 -8.50689,-9.35833 -0.57419,-0.95776 -0.86262,-2.06215 -1.36628,-3.05881 -0.0978,-0.19357 -0.38505,-0.70329 -0.42738,-0.49059 -0.22234,1.11715 -0.0829,2.27687 -0.15438,3.41368 -0.12507,1.98845 -0.29017,3.97418 -0.43525,5.96127 -2.19538,26.00909 -5.56624,51.87981 -9.77898,77.63267 -3.2528,18.75142 -8.21921,37.14494 -14.64206,55.05081 -3.18289,8.87338 -4.75316,12.44863 -8.24719,20.96893 -2.68661,5.89963 -3.85122,8.70623 -6.76905,14.25154 -0.79771,1.51603 -1.61765,3.02322 -2.52613,4.47557 -0.38844,0.62099 -0.6708,1.46901 -1.35533,1.72963 -0.51135,0.19468 0.33113,-1.08304 0.70538,-1.48218 1.63902,-1.74799 3.51291,-3.25988 5.26936,-4.88982 0.72538,-8.00028 9.69419,-1.2029 12.61023,-4.59587 0.59744,-0.69517 -1.53638,-1.00536 -2.34816,-1.43106 -2.36479,-1.24012 -4.82929,-2.28659 -7.17478,-3.56285 -9.77415,-5.31845 -12.61121,-7.4501 -22.38727,-13.78277 -4.06677,-2.80445 -8.13354,-5.60891 -12.20032,-8.41336 -43.69691,-30.05128 -86.19584,31.74549 -42.49893,61.79677 v 0 c 4.7279,3.24383 9.4558,6.48766 14.1837,9.73149 14.55758,9.2795 29.10984,18.89629 45.36682,25.04299 10.35191,3.91401 21.43139,7.06722 32.71218,5.87081 6.17686,-0.6551 11.97084,-3.32115 17.95626,-4.98172 4.26992,-3.01613 8.8574,-5.62667 12.80975,-9.04839 2.72186,-2.35642 4.88469,-5.30374 7.07152,-8.16364 7.84798,-10.26344 12.52809,-22.62882 18.00537,-34.18531 4.16417,-10.2273 6.0902,-14.64241 9.87121,-25.32573 7.7161,-21.80205 13.68022,-44.18836 17.61014,-66.98772 4.57253,-28.13294 8.27511,-56.39251 10.59652,-84.80813 0.58056,-9.57128 1.41757,-19.36265 -0.36044,-28.88392 -1.56794,-8.39635 -4.22572,-15.6889 -9.32516,-22.7068 -2.64654,-3.6422 -6.19961,-6.53024 -9.29941,-9.79536 -3.18205,-2.08311 -6.21028,-4.42264 -9.54615,-6.24934 -5.58853,-3.06024 -13.06886,-5.5468 -19.21556,-7.07115 -12.94964,-3.21146 -26.28987,-4.26221 -39.59061,-4.54283 -5.74683,0.0621 -11.49725,-0.0263 -17.24048,0.18617 -37.2643,1.37869 -74.20568,7.54959 -110.48918,15.90193 -7.64821,1.94879 -15.33901,3.73747 -22.94463,5.84637 -23.55017,6.53006 -46.60785,14.78017 -68.72317,25.19662 -48.67794,21.04658 -18.91358,89.88758 29.76436,68.841 z"/>
<path d="m 655.67248,333.78215 c -0.002,23.06437 -0.53396,46.12452 -0.79267,69.18694 -0.168,39.09933 -0.15632,78.20091 -0.95907,117.29438 -0.65183,31.7434 -1.08095,40.79544 -2.19218,72.9128 -3.49617,78.63854 -5.2853,157.33211 -7.41879,236.01447 -1.02108,26.7292 -1.50246,44.20234 -3.21095,70.63881 -0.66758,10.32975 -1.58771,20.64162 -2.38156,30.96242 -4.04989,52.87815 70.7311,58.60556 74.781,5.72741 v 0 c 0.83149,-10.90083 1.79279,-21.79255 2.49449,-32.70251 1.74996,-27.20816 2.24317,-45.11631 3.28946,-72.59339 2.12813,-78.49657 3.91214,-157.00429 7.40162,-235.45709 1.13312,-32.83178 1.56382,-41.88438 2.22799,-74.34623 0.80201,-39.19941 0.8017,-78.40687 0.96329,-117.61218 0.26035,-23.34205 0.80156,-46.68174 0.79737,-70.02583 0,-53.033 -75,-53.033 -75,0 z"/>
</svg>
