<?xml version="1.0" ?>
<svg xmlns="http://www.w3.org/2000/svg" width="1000" height="1000">
<path d="m 384.79229,177.16183 c 13.01785,0.47529 25.76766,-2.6627 38.35259,-5.55517 11.17915,-2.56937 22.34062,-5.21516 33.51689,-7.79703 38.52899,-8.67168 77.65869,-14.50177 116.95342,-18.32817 7.97534,-0.77662 15.96696,-1.37603 23.95044,-2.06405 25.04955,-1.6299 50.1723,-3.15089 75.28934,-2.57996 8.95104,0.20346 11.55587,0.49548 19.96625,1.12751 4.16155,0.56351 8.44157,0.91132 12.51066,2.04592 0.27398,0.0764 -0.57943,0.0159 -0.85036,-0.0707 -1.37883,-0.44078 -2.7161,-1.00236 -4.07415,-1.50353 47.21715,24.14623 81.36508,-42.628912 34.14792,-66.775142 v 0 c -2.47963,-1.074738 -4.90012,-2.2978 -7.4389,-3.224216 -9.20688,-3.35965 -19.23064,-4.007847 -28.8457,-5.274072 -10.66558,-0.757881 -13.68803,-1.093529 -24.94008,-1.324243 -27.43485,-0.562528 -54.87361,1.01876 -82.23246,2.857832 -8.52747,0.741097 -17.06374,1.386985 -25.58239,2.223291 -42.24862,4.147689 -84.31192,10.475428 -125.73621,19.814314 -16.99149,3.925667 -33.93204,8.227291 -51.05417,11.530636 -52.96004,-2.781115 -56.89313,72.11569 -3.93309,74.8968 z"/>
<path d="m 407.59757,168.7901 c 1.52511,18.42859 1.07175,36.95345 0.80924,55.4202 -1.0666,48.03816 -2.34571,96.07213 -3.75082,144.10157 -1.01813,33.97556 -2.32711,67.95046 -4.89217,101.84922 -1.46125,19.31128 -2.18729,25.71603 -4.03619,44.63053 -3.08019,27.49183 -5.78425,55.04413 -9.81066,82.41916 -0.30978,1.78044 -0.61955,3.56088 -0.92933,5.34132 -8.98072,52.26707 64.93609,64.96772 73.9168,12.70065 v 0 c 0.40665,-2.38909 0.8133,-4.77818 1.21995,-7.16728 4.17367,-28.57255 7.0769,-57.31409 10.24871,-86.01002 1.93683,-19.88206 2.68989,-26.53236 4.21887,-46.84006 2.62452,-34.85864 3.98844,-69.7937 5.03195,-104.73069 1.41582,-48.4122 2.70755,-96.82892 3.77562,-145.25006 0.30528,-22.35486 0.86285,-44.82761 -1.55908,-67.09438 -7.51643,-52.49765 -81.75932,-41.86781 -74.24289,10.62984 z"/>
<path d="m 537.15504,163.09203 c 1.936,16.84791 1.80782,33.85081 1.79966,50.78229 -0.74835,38.77144 -1.04877,77.5441 -1.09098,116.32242 0.27452,39.6544 -1.07438,79.27958 -3.38932,118.85867 -2.02631,31.12098 -5.11799,62.15623 -7.97319,93.20795 -1.86671,16.25892 -2.17318,32.7394 -4.98338,48.88411 -8.69513,52.31534 65.28993,64.61211 73.98506,12.29677 v 0 c 2.91125,-17.98566 3.92906,-36.19288 5.68329,-54.31396 2.93132,-31.88287 6.10089,-63.74935 8.16079,-95.70482 2.38866,-41.00757 3.79391,-82.0625 3.5167,-123.14752 0.0418,-38.80342 0.35751,-77.60064 1.09103,-116.39736 -0.006,-20.04919 0.0259,-40.17385 -2.38138,-60.11164 -6.59242,-52.62167 -81.0107,-43.29858 -74.41828,9.32309 z"/>
<path d="m 469.04768,336.3751 c 2.72934,-0.0723 5.46573,-0.008 8.18801,-0.21706 9.15555,-0.70274 18.33399,-2.96562 27.32598,-4.67975 18.7629,-3.57674 8.17305,-1.5872 28.39667,-5.33257 28.5477,-5.17753 57.31051,-9.53152 86.28645,-11.39543 5.01482,-0.32258 10.03939,-0.46944 15.05908,-0.70415 17.60538,-0.47068 35.32705,-0.19504 52.69211,2.97854 0.88002,0.20868 1.76004,0.41736 2.64007,0.62604 51.76989,11.50559 68.04125,-61.70809 16.27136,-73.21368 v 0 c -1.98914,-0.42898 -3.97828,-0.85796 -5.96742,-1.28693 -22.86395,-3.90613 -46.06968,-4.90715 -69.24176,-4.01725 -5.84724,0.28832 -11.70023,0.47741 -17.54173,0.86495 -31.5137,2.09074 -62.80573,6.75616 -93.85834,12.4024 -20.32815,3.76618 -10.15069,1.85192 -28.77286,5.40325 -3.5835,0.68339 -12.19687,2.33282 -16.52452,3.13428 -0.81879,0.15164 -2.88995,-0.27613 -2.45966,0.4368 0.48995,0.81177 1.8921,0.12687 2.83815,0.19031 -52.89884,-3.77 -58.23042,71.04025 -5.33159,74.81025 z"/>
<path d="m 485.99808,470.02037 c 11.5069,-3.85918 23.26121,-6.7317 35.11118,-9.30448 30.90309,-5.80445 62.18887,-9.22832 93.49482,-11.93668 23.20815,-1.89091 46.52518,-2.53692 69.70876,-0.1435 5.08761,0.83138 2.93171,0.33047 6.51334,1.29073 51.74558,11.61445 68.1709,-61.56484 16.42532,-73.1793 v 0 c -10.02526,-2.12107 -4.85731,-1.19042 -15.5126,-2.74288 -9.07276,-0.87865 -11.55031,-1.23438 -21.11656,-1.62097 -20.85036,-0.8426 -41.71802,0.10351 -62.51108,1.67749 -34.5208,3.01202 -69.02583,6.80939 -103.07206,13.39698 -14.40479,3.18589 -28.7101,6.70667 -42.7102,11.39538 -50.32283,16.73657 -26.65375,87.9038 23.66908,71.16723 z"/>
<path d="m 425.30231,658.15542 c 15.60697,-0.82867 30.87396,-4.78511 46.14745,-7.86403 36.67634,-7.50131 73.61605,-13.56238 110.57886,-19.44555 36.32446,-5.69092 72.80323,-10.56915 109.4757,-13.36863 6.24671,-0.47686 12.50365,-0.80862 18.75547,-1.21292 25.12976,-1.43631 50.31506,-1.43048 75.43748,0.0424 8.82329,0.64704 17.71798,1.18554 26.29089,3.50537 0.31369,-0.21225 9.68128,3.09417 5.13472,1.39077 -0.76484,-0.28656 -1.5102,-0.62263 -2.2653,-0.93395 -4.97432,-2.47688 -9.12118,-5.98229 -12.37931,-10.58871 -1.70928,-2.41663 -2.76322,-5.23568 -4.12275,-7.86502 -0.18641,-0.36052 -0.49067,-1.50871 -0.51454,-1.10354 -0.066,1.11975 0.25506,2.22884 0.38259,3.34326 1.70566,14.72333 1.89629,29.58009 2.02854,44.38579 -0.024,3.46014 -0.0247,6.92053 -0.0721,10.38043 -0.10993,8.0212 -0.15949,12.72295 -0.824,20.63529 -0.85674,10.20125 -2.53844,20.25155 -4.29777,30.32563 -3.34689,20.63178 -9.45659,40.57286 -16.08869,60.33637 -4.27583,12.53465 -9.47669,24.74649 -15.77647,36.40047 -3.95728,7.32058 -5.71329,9.9616 -10.06,17.03911 -10.26443,15.92557 -21.49616,31.21764 -33.13289,46.1627 -5.44598,6.50678 -10.83526,13.23215 -17.23674,18.85155 3.6874,-4.00252 11.24566,-5.46269 16.20736,-6.60637 1.04397,-0.24064 3.94326,0.41025 3.19428,-0.35579 -1.28132,-1.31051 -3.4819,-1.146 -5.22285,-1.719 -20.01848,-6.56732 -40.181,-12.67968 -60.32822,-18.83577 -50.71884,-15.49514 -72.63227,56.23213 -21.91343,71.72727 v 0 c 20.60406,6.2938 41.20944,12.58381 61.70016,19.24065 8.51137,2.27442 17.25091,5.36154 26.27677,4.85098 12.71902,-0.71945 21.58711,-4.86679 30.70011,-12.95575 9.35445,-8.66981 17.91778,-18.1656 25.83307,-28.16391 13.34069,-17.18157 26.2423,-34.7415 37.92631,-53.10056 5.62152,-9.2424 7.76284,-12.47153 12.89479,-22.11181 7.95843,-14.94974 14.58516,-30.57194 20.05223,-46.59669 2.78154,-8.31339 5.03359,-14.82128 7.54594,-23.22624 4.72816,-15.81785 8.37936,-31.92883 11.33313,-48.16728 2.20406,-12.86791 4.24101,-25.68938 5.26506,-38.71815 0.7258,-9.23435 0.83202,-15.35837 0.95027,-24.52675 0.0498,-3.86043 0.0468,-7.72135 0.0702,-11.58202 -0.17823,-17.68558 -0.4815,-35.42338 -2.60793,-53.00184 -0.54709,-4.17813 -1.30772,-11.2843 -2.63271,-15.06459 -1.44904,-4.13423 -3.07622,-8.26747 -5.39628,-11.98351 -4.09408,-6.55751 -10.03071,-11.17553 -16.69227,-14.72565 -5.65946,-2.53259 -11.49139,-4.40726 -17.52429,-5.8435 -13.24289,-3.26305 -26.75155,-4.9692 -40.37203,-5.67438 -28.18914,-1.60818 -56.44536,-1.66647 -84.64016,-0.009 -6.80384,0.44642 -13.61316,0.81591 -20.41151,1.33925 -38.43142,2.95847 -76.66438,8.04871 -114.73319,14.01611 -37.9775,6.04606 -75.92913,12.28736 -113.61273,19.99265 -27.79314,5.6053 2.11599,-0.44882 -20.71201,4.22769 -2.01043,0.41185 -4.01993,0.82893 -6.03558,1.21441 -1.70606,0.32628 -3.48621,0.33915 -5.1353,0.88467 -0.17804,0.0589 0.37306,0.0384 0.5596,0.0576 -53.03301,0 -53.03301,75 0,75 z"/>
<path d="m 138.95603,791.75402 c 8.77269,15.40046 18.92179,29.97069 28.67997,44.75448 9.05214,13.4399 17.55143,27.26127 27.14048,40.33489 4.92972,6.72113 6.89339,8.99968 11.93601,15.21036 4.12621,4.87262 8.37968,9.66557 13.09853,13.97945 1.26035,1.15219 2.48262,2.36499 3.88505,3.33927 2.8785,1.99971 5.50834,4.77688 8.92473,5.55977 8.67283,1.98746 17.71236,1.71588 26.56854,2.57383 6.70465,-4.11521 13.40929,-8.23042 20.11394,-12.34562 35.86079,-39.0705 -19.39324,-89.78532 -55.25403,-50.71482 v 0 c 5.96576,-3.31019 11.93152,-6.62037 17.89728,-9.93056 7.97844,1.06529 16.11236,1.3007 23.93532,3.19588 4.72069,1.14362 7.86016,6.29191 4.36802,2.85675 -0.76099,-0.74857 -1.50743,-1.5127 -2.22838,-2.2999 -1.0803,-1.17956 -2.11598,-2.39922 -3.17397,-3.59884 -3.52254,-4.29927 -5.49805,-6.61127 -8.89413,-11.21204 -9.1317,-12.37098 -17.09531,-25.54867 -25.72342,-38.26422 -8.72078,-13.2121 -17.80399,-26.22465 -25.74684,-39.92428 -25.79921,-46.33466 -91.32632,-9.84906 -65.5271,36.4856 z"/>
<path d="m 296.80227,786.4055 c 7.13545,12.50808 15.859,24.01424 24.69069,35.35361 9.58573,12.22704 19.51636,24.17746 29.72996,35.88366 10.35692,11.80896 21.18659,23.14586 39.44475,22.26141 8.93312,-0.43273 16.66438,-6.49999 24.99657,-9.74998 2.18838,-2.18541 4.37675,-4.37082 6.56513,-6.55623 35.54348,-39.35939 -20.1191,-89.62546 -55.66258,-50.26608 v 0 c 0.71597,-0.55493 1.43194,-1.10985 2.14791,-1.66478 7.09053,-2.25328 13.83248,-6.8711 21.27161,-6.75983 14.62521,0.21875 16.81456,3.35047 23.51931,9.59477 0.35887,0.33423 -0.72296,-0.66348 -1.06618,-1.01376 -1.78096,-1.81752 -2.95606,-3.19465 -4.71814,-5.17029 -9.31927,-10.66715 -18.36541,-21.56982 -27.11137,-32.71281 -6.21843,-7.94146 -12.34121,-15.97369 -17.66397,-24.55521 -25.00013,-46.77065 -91.14382,-11.41513 -66.14369,35.35552 z"/>
<path d="m 454.18778,763.18495 c 7.64077,9.98305 14.98306,20.19605 22.57916,30.21667 9.75948,12.80472 20.62609,24.72665 32.53763,35.55046 4.98271,4.13922 2.4559,2.16236 7.57421,5.93852 43.20478,30.75463 86.69839,-30.34616 43.49361,-61.10078 v 0 c 0.31458,0.529 0.15462,0.21115 -0.89395,-0.58344 -8.52202,-7.52205 -15.97682,-16.183 -22.95645,-25.12952 -8.52044,-11.22556 -16.62136,-22.77481 -25.44409,-33.76434 -34.55803,-40.22738 -91.44815,8.64505 -56.89012,48.87243 z"/>
<path d="m 605.90923,738.41061 c 6.97658,6.78977 13.34486,14.14561 19.33392,21.80984 4.22837,5.61219 7.85285,11.62975 11.3301,17.72366 26.44606,45.96853 91.45538,8.56815 65.00932,-37.40038 v 0 c -5.33276,-9.21859 -10.90966,-18.30725 -17.43403,-26.74693 -7.89085,-9.95415 -16.15204,-19.61085 -25.26576,-28.47859 -37.542,-37.45796 -90.51555,15.63444 -52.97355,53.0924 z"/>
</svg>
