<?xml version="1.0" ?>
<svg xmlns="http://www.w3.org/2000/svg" viewBox="0 0 1000 1000">
<path d="m 93.649715,169.20195 c 1.073106,3.79798 1.789298,6.204 2.705996,10.53333 5.861819,27.68385 8.132999,55.97172 10.600359,84.10344 4.37716,61.9702 4.02447,124.18258 1.55581,186.22695 -0.53705,13.49762 -1.29956,26.98534 -1.94934,40.47801 -3.17132,56.60332 -8.278525,113.07412 -13.481369,169.51957 -4.867025,52.80921 69.816469,59.69222 74.683489,6.88301 v 0 c 5.30221,-57.53868 10.49957,-115.10384 13.71153,-172.80465 0.66637,-13.91124 1.44944,-27.81738 1.99911,-41.73372 2.56842,-65.02622 2.86096,-130.22784 -1.81022,-195.16949 -2.33071,-26.20576 -2.56219,-32.5004 -5.95604,-57.54261 -2.2774,-16.8043 -4.9783,-33.66876 -9.66732,-49.99604 -0.77198,-2.68805 -1.73771,-5.31663 -2.60657,-7.97494 -19.42927,-49.345754 -89.214705,-21.86862 -69.785435,27.47714 z"/>
<path d="m 182.50332,224.76787 c 22.96332,-9.59113 47.59827,-14.39012 71.88324,-19.28967 35.50017,-6.4261 71.46743,-10.59505 107.5301,-11.96234 5.34135,-0.20252 10.68793,-0.2286 16.0319,-0.34291 13.32637,-0.14002 26.63223,0.62386 39.91146,1.64368 52.88029,4.02173 58.56788,-70.7623 5.68758,-74.78403 v 0 c -15.73287,-1.18662 -31.49745,-2.05259 -47.2842,-1.84071 -6.10501,0.14301 -12.21311,0.18813 -18.31504,0.42902 -39.7394,1.56884 -79.3688,6.19028 -118.47738,13.35542 -7.76251,1.58333 -15.55262,3.03695 -23.28755,4.75 -21.46181,4.75314 -42.87547,10.54558 -63.16833,19.0818 -48.7619,20.85132 -19.27368,89.81106 29.48822,68.95974 z"/>
<path d="m 252.85261,193.26872 c 3.02132,20.22888 6.01677,40.44736 7.47421,60.86558 0.54706,7.66409 0.86503,15.34281 1.29754,23.01421 2.34762,59.38287 0.63472,118.82887 -1.56279,178.18663 -1.80269,44.14453 -3.7428,88.28327 -5.58068,132.42633 -2.20605,52.9871 72.72903,56.10693 74.93508,3.11982 v 0 c 1.84266,-44.25962 3.78874,-88.51487 5.59442,-132.77603 2.27711,-61.70971 4.02652,-123.51292 1.49123,-185.24579 -0.49379,-8.49983 -0.85783,-17.00819 -1.48137,-25.49949 -1.52886,-20.81978 -4.36168,-41.48668 -7.59638,-62.0992 -5.66246,-52.72984 -80.23373,-44.7219 -74.57126,8.00794 z"/>
<path d="m 189.69311,367.04662 c 23.51411,-2.68291 47.00337,-5.57381 70.50865,-8.33226 33.36691,-3.43017 66.81344,-7.21132 100.38939,-7.74957 5.09034,-0.0816 10.18173,0.0733 15.2726,0.11001 16.07635,0.91596 8.45486,0.3124 22.87193,1.71394 52.7993,4.9734 59.83275,-69.69607 7.03345,-74.66947 v 0 c -18.64923,-1.71322 -8.8107,-0.99106 -29.52436,-2.0435 -6.13032,-0.0203 -12.26156,-0.16963 -18.39095,-0.061 -35.58322,0.63054 -71.03335,4.53525 -106.39517,8.21096 -23.81736,2.79604 -47.61977,5.71564 -71.44456,8.44808 -52.58952,6.8441 -42.91051,81.21692 9.67902,74.37282 z"/>
<path d="m 175.93307,521.34153 c 13.7189,-3.28662 27.26595,-7.23592 41.07725,-10.15577 4.8727,-1.03014 9.77556,-1.91207 14.66333,-2.8681 24.44038,-4.30174 49.16839,-7.2181 73.96736,-8.35012 16.43628,-0.75028 21.29522,-0.43174 37.50742,-0.17481 13.10678,0.74446 16.93552,0.64099 29.39723,2.47195 3.57234,0.52488 7.10172,1.30915 10.65258,1.96373 52.21989,9.25113 65.30296,-64.59894 13.08307,-73.85007 v 0 c -5.11961,-0.88146 -10.21294,-1.93223 -15.35883,-2.64438 -15.64285,-2.16485 -20.67238,-2.07968 -36.70861,-2.93366 -7.06256,-0.0904 -14.12475,-0.32605 -21.18767,-0.27118 -35.48891,0.27574 -70.92166,3.99405 -105.84487,10.20205 -5.67354,1.12394 -11.3638,2.16652 -17.02061,3.37182 -13.07778,2.7865 -25.97712,6.29668 -38.90459,9.68864 -52.00763,10.37816 -37.33069,83.92806 14.67694,73.5499 z"/>
<path d="m 169.69056,662.49346 c 19.72913,-5.61389 40.0416,-8.6592 60.28592,-11.7062 34.29033,-4.74225 68.68488,-8.92127 103.21561,-11.47252 6.54198,-0.48335 13.09306,-0.83449 19.63959,-1.25173 25.32231,-1.09221 50.83935,-1.8306 76.03303,1.46922 2.50682,0.50164 3.84749,0.61118 6.00852,1.43335 0.18551,0.0706 0.65276,0.17307 0.50865,0.30955 -0.14549,0.13779 -1.73344,-0.55122 -2.22311,-0.82958 -0.99942,-0.56812 -1.94198,-1.23091 -2.91297,-1.84637 -6.28486,-4.70098 -8.94242,-10.1404 -11.61384,-17.30158 -0.35763,-0.95869 -0.22912,-2.07528 -0.68154,-2.99306 -0.23005,-0.4667 -0.0193,1.04047 -0.0245,1.56076 -0.0155,1.56472 -0.025,3.12949 -0.0375,4.69423 -0.87768,24.14159 -6.32775,47.84136 -11.56439,71.33158 -8.34662,34.99725 -17.16593,69.88925 -27.37788,104.39171 -6.1687,20.24168 -13.19748,40.21632 -22.15366,59.39798 -3.67105,7.4997 -7.55103,14.92449 -11.87782,22.071 -0.0771,0.0788 -0.27931,0.33546 -0.23132,0.23625 0.32278,-0.66728 1.28486,-1.89709 1.68699,-2.29578 3.59099,-3.56034 6.16877,-5.18969 10.68816,-7.24322 0.84275,-0.28632 1.96641,-0.16864 2.52825,-0.85896 0.30897,-0.37963 -0.86414,-0.48492 -1.33949,-0.60166 -2.43046,-0.59687 -4.9167,-0.94714 -7.35,-1.53231 -15.93309,-3.83159 -31.26444,-9.40816 -46.71652,-14.80409 -50.08326,-17.44038 -74.74768,53.38805 -24.66442,70.82843 v 0 c 19.00964,6.60301 37.94193,13.48808 57.66608,17.71102 8.74398,1.87209 18.55736,3.49285 27.5748,3.22017 3.89277,-0.11772 7.72592,-0.99006 11.58887,-1.48509 3.11536,-1.03895 6.3332,-1.81016 9.34608,-3.11685 10.12781,-4.39246 17.88562,-12.30238 23.5883,-21.56056 5.60294,-9.42864 10.82192,-19.0941 15.54242,-28.99513 10.42102,-22.55763 18.89484,-45.91664 26.04762,-69.71353 10.67219,-36.15634 19.96939,-72.6976 28.66693,-109.37675 6.37452,-28.758 12.74495,-57.79763 13.35064,-87.37148 -1.9e-4,-6.71689 0.43439,-14.80774 -1.40732,-21.32862 -2.87716,-10.18711 -7.00465,-17.42959 -15.23308,-24.09981 -1.77077,-1.23656 -3.47798,-2.56952 -5.3123,-3.70968 -9.86131,-6.12952 -21.4398,-8.71502 -32.74881,-10.54035 -3.2719,-0.39745 -6.53548,-0.87081 -9.81571,-1.19236 -26.68706,-2.61604 -53.59702,-1.87017 -80.33666,-0.70483 -7.03198,0.4531 -14.0688,0.83645 -21.09593,1.35932 -36.18604,2.69248 -72.232,7.06061 -108.16482,12.05277 -23.82006,3.61054 -47.70424,7.32977 -70.87544,14.10067 -50.744879,15.40965 -28.95234,87.17375 21.79254,71.76409 z"/>
<path d="m 16.832262,804.88414 c 1.578545,1.91048 4.211755,5.07293 5.385071,6.68438 2.98418,4.09849 6.573985,10.07194 9.111798,14.19341 12.899621,20.94928 0.07503,0.32686 14.546879,23.50663 11.912606,18.19421 23.327963,36.70077 34.809316,55.16726 28.002314,45.03744 91.694864,5.43618 63.692544,-39.60125 v 0 c -11.50745,-18.50747 -22.94429,-37.05834 -34.88653,-55.29119 -2.5256,-4.04359 -5.06794,-8.07676 -7.57679,-12.13076 -9.36714,-15.13617 -18.242402,-30.75965 -30.424133,-43.88494 -36.314502,-38.64915 -90.972657,12.70731 -54.658155,51.35646 z"/>
<path d="m 115.58226,767.81921 c 8.14634,9.40877 14.9945,19.91936 22.20815,30.04725 6.26445,8.84222 12.58972,17.66494 17.92522,27.11389 3.14751,5.57409 4.16001,7.98781 6.79033,13.60107 22.7834,47.88963 90.50956,15.66904 67.72617,-32.22059 v 0 c -4.18934,-8.71799 -5.35982,-11.5356 -10.36026,-20.22604 -6.33974,-11.01806 -13.62153,-21.43781 -20.99288,-31.77908 -10.81911,-15.18989 -20.97156,-31.26486 -34.9143,-43.84392 -40.52247,-34.21154 -88.904896,23.09588 -48.38243,57.30742 z"/>
<path d="m 205.48238,721.32363 c -0.37431,1.97551 -0.0982,0.28459 3.19064,4.64256 5.67575,7.52079 5.07626,6.41065 11.34042,14.16736 6.58362,8.1523 5.81959,7.30171 12.11455,15.76172 5.10075,6.54287 8.88526,13.86142 12.5432,21.25476 24.01722,47.28291 90.88534,13.31743 66.86812,-33.96547 v 0 c -5.74455,-11.13361 -11.63517,-22.199 -19.31788,-32.16444 -2.45797,-3.28192 -4.87033,-6.5985 -7.37389,-9.84577 -7.32786,-9.50466 -15.33977,-18.46821 -22.16457,-28.3594 -34.30081,-40.44693 -91.50141,8.06175 -57.20059,48.50868 z"/>
<path d="m 303.80359,703.75238 c 6.86037,6.84458 13.07586,14.42522 17.68954,22.98558 1.20995,2.24497 2.22159,4.5913 3.33239,6.88695 4.32348,10.51121 2.28705,5.23461 6.11551,15.82739 18.28739,49.78023 88.68727,23.91796 70.39988,-25.86227 v 0 c -5.78658,-15.57531 -2.6055,-7.60411 -9.62252,-23.88183 -2.17924,-4.19319 -4.18654,-8.48033 -6.53774,-12.57959 -7.01831,-12.23624 -15.77537,-23.58672 -25.68567,-33.61038 -35.52091,-39.37976 -91.21229,10.85439 -55.69139,50.23415 z"/>
<path d="m 503.89866,408.28767 c 33.08655,-2.87879 66.10846,-6.43607 99.17629,-9.53054 43.09467,-3.95526 86.23419,-7.54387 129.48925,-9.17052 26.80601,-1.00807 40.20146,-1.01667 66.92517,-1.3597 37.48504,-0.19174 74.99948,0.18003 112.37146,3.27061 52.85731,4.31342 58.9574,-70.43809 6.1001,-74.75151 v 0 c -5.24714,-0.42323 -10.48837,-0.92758 -15.74142,-1.26968 -34.51347,-2.24766 -69.13323,-2.24973 -103.70219,-2.24312 -27.94994,0.36567 -41.45482,0.37136 -69.54409,1.43941 -44.38922,1.68784 -88.66255,5.34693 -132.88785,9.41091 -32.58104,3.05034 -65.11859,6.53613 -97.71487,9.40815 -52.88875,3.90899 -47.3606,78.70498 5.52815,74.79599 z"/>
<path d="m 655.65955,179.7022 c -1.54473,22.14683 -4.7058,44.12754 -7.89121,66.0838 -5.78816,36.78511 -10.82576,73.68997 -18.30437,110.18705 -5.2261,25.50443 -9.2663,41.53856 -15.33535,67.01503 -12.37921,49.72089 -27.09154,98.9332 -45.44792,146.79743 -12.9483,33.76267 -18.07223,43.88512 -32.95451,76.9511 -17.60301,37.15907 -37.37534,73.26789 -58.89114,108.30058 -14.04929,22.87549 -23.30576,36.2782 -37.95571,58.15931 -29.49192,44.07638 32.84149,85.78425 62.3334,41.70787 v 0 c 15.69241,-23.46653 25.09244,-37.06757 40.18395,-61.6992 22.93573,-37.43459 43.99569,-76.02281 62.74032,-115.72835 15.98756,-35.63386 21.19107,-45.87515 35.11612,-82.30367 19.30062,-50.49124 34.80044,-102.3852 47.83705,-154.8181 6.45302,-27.13136 10.50709,-43.18737 16.06152,-70.4135 7.6644,-37.56856 12.91128,-75.53956 18.84183,-113.40282 3.48052,-24.05926 6.90373,-48.15156 8.53602,-72.42258 3.12114,-52.94108 -71.74886,-57.35504 -74.87,-4.41395 z"/>
<path d="m 653.43061,436.10936 c -0.0255,0.0761 -0.11445,0.15753 -0.0765,0.22822 1.6716,3.11379 3.79025,5.96603 5.68523,8.94914 5.18272,8.15872 10.69283,16.80478 15.54971,25.11666 3.14821,5.38771 6.1298,10.87108 9.1947,16.30662 23.8112,42.97302 43.95152,87.81193 65.16447,132.08666 17.32154,35.9246 33.96448,72.16919 52.4234,107.53078 9.85566,17.89214 19.23748,36.09637 29.90593,53.52999 2.26201,3.69641 4.6409,7.32002 6.96135,10.98003 13.67666,21.01448 29.24595,40.75401 46.23012,59.19244 4.06412,4.41211 8.28826,8.67409 12.43239,13.01113 17.25348,16.88905 8.77082,8.73604 25.42588,24.48203 38.54821,36.42164 90.05621,-18.09376 51.50798,-54.5154 v 0 c -15.16233,-14.31631 -7.56298,-7.02979 -22.79142,-21.86649 -3.48064,-3.61719 -7.03291,-7.1668 -10.44192,-10.85156 -14.33599,-15.49561 -27.55034,-32.03343 -39.08942,-49.71939 -12.2011,-19.08221 -22.92313,-39.04503 -33.66703,-58.97355 -18.08462,-34.57974 -34.27066,-70.08565 -51.26047,-105.20781 -21.94533,-45.79877 -42.80175,-92.17182 -67.5099,-136.58466 -3.47461,-6.13375 -6.8611,-12.31827 -10.42385,-18.40125 -4.29283,-7.32952 -11.94458,-19.5714 -16.7661,-27.04792 -4.556,-7.06478 -7.89202,-12.39013 -13.29115,-18.74765 -1.73882,-2.04748 -3.73613,-3.86058 -5.6042,-5.79087 -39.80506,-35.04365 -89.36426,21.24921 -49.5592,56.29285 z"/>
<path d="m 641.97095,753.80099 c 20.35693,11.50043 38.90768,25.79131 57.12286,40.35916 4.28618,3.52711 8.57236,7.05421 12.85854,10.58132 40.95866,33.6881 88.60083,-24.2362 47.64217,-57.9243 v 0 c -4.57309,-3.75955 -9.14618,-7.5191 -13.71926,-11.27866 -5.00867,-3.98938 -9.95754,-8.05501 -15.02601,-11.96814 -16.25322,-12.54837 -33.24407,-24.20918 -51.01261,-34.50878 -45.77767,-26.77508 -83.64336,37.96432 -37.86569,64.7394 z"/>
</svg>
