<?xml version="1.0" ?>
<svg xmlns="http://www.w3.org/2000/svg" width="1000" height="1000">
<path d="m 158.25524,158.77449 c 17.93502,-2.1099 35.67535,-5.60552 53.50522,-8.42931 6.28146,-0.99483 12.57488,-1.91253 18.86233,-2.86879 35.03289,-4.91015 70.43855,-7.17942 105.80932,-6.08895 5.70037,0.17574 11.39162,0.57544 17.08743,0.86316 14.78403,0.84457 29.39462,3.14262 43.88731,6.07057 52.00607,10.386 66.6941,-63.161682 14.68803,-73.547686 v 0 c -18.13577,-3.589434 -36.41362,-6.424477 -54.90145,-7.432848 -6.60986,-0.315802 -13.2149,-0.757547 -19.82957,-0.947407 -39.4588,-1.132575 -78.95448,1.426606 -118.03004,6.93763 -22.04795,3.360319 -44.03911,7.070113 -66.05635,10.609003 -52.91608,3.519815 -47.93831,78.354448 4.97777,74.834628 z"/>
<path d="m 116.85981,136.89848 c 1.61898,15.56911 2.00287,31.23521 2.4512,46.87091 1.16133,46.86295 0.77623,93.73907 0.1735,140.60607 -0.81379,44.81812 -1.0926,89.73003 -5.41653,134.38776 -0.74958,7.74164 -1.76427,15.45532 -2.64641,23.18297 -4.34258,35.59219 -14.265144,70.07893 -23.268821,104.67506 -4.014715,16.16272 -2.129026,8.46126 -5.671154,23.10093 -12.468481,51.54646 60.429215,69.17955 72.897695,17.6331 v 0 c 3.369,-13.93188 1.58729,-6.64864 5.35637,-21.84696 9.89371,-38.02709 20.60662,-75.97457 25.20931,-115.12036 0.96107,-8.5441 2.06427,-17.0734 2.88323,-25.63229 4.43341,-46.33348 4.84312,-92.91851 5.65012,-139.41699 0.61459,-47.91144 0.9985,-95.83237 -0.19871,-143.73939 -0.52108,-17.84454 -1.00029,-35.72298 -2.93581,-53.48345 -6.21027,-52.668139 -80.69426,-43.885496 -74.48399,8.78264 z"/>
<path d="m 240.87923,138.27966 c 0,19.22862 0,38.45724 0,57.68586 0.12125,46.45516 1.46157,92.89308 1.90337,139.34519 0.22346,45.35822 -0.164,90.72554 -2.30521,136.0374 -1.7072,23.43365 -2.99412,47.33082 -10.05356,69.89876 -15.18778,50.81172 56.67085,72.29049 71.85863,21.47877 v 0 c 0.93793,-3.21912 1.97953,-6.40982 2.8138,-9.65734 6.55829,-25.52921 8.54891,-51.99683 10.29848,-78.20032 2.18333,-46.72385 2.64007,-93.50186 2.38444,-140.27322 -0.44279,-46.21348 -1.76249,-92.41293 -1.89995,-138.62924 0,-19.22862 0,-38.45724 0,-57.68586 0,-53.033008 -75,-53.033008 -75,0 z"/>
<path d="m 211.90678,309.34052 c 18.68726,-7.14077 38.4069,-10.94885 58.02515,-14.48521 21.20326,-3.30859 42.61628,-5.42249 64.09058,-5.44068 11.5193,-0.01 13.61429,0.30562 24.52983,1.05087 4.34037,0.53798 9.7288,0.96114 14.07637,2.232 0.43081,0.12593 1.54465,0.69315 1.10288,0.77252 -0.79887,0.14353 -1.58226,-0.36284 -2.37339,-0.54425 45.78856,26.75645 83.6279,-37.99836 37.83933,-64.75481 v 0 c -3.68473,-1.87228 -7.22692,-4.05649 -11.05418,-5.61685 -11.0387,-4.50045 -23.01807,-5.70554 -34.7427,-6.93173 -13.78999,-0.85643 -16.82706,-1.26275 -31.15034,-1.18681 -25.38902,0.13461 -50.70832,2.62169 -75.76504,6.635 -6.07828,1.11783 -12.17862,2.12176 -18.23484,3.35349 -18.72364,3.80808 -37.31488,8.72553 -55.13491,15.66284 -48.9697,20.3585 -20.17844,89.61212 28.79126,69.25362 z"/>
<path d="m 191.07798,443.03215 c 12.89068,-4.75448 25.73799,-9.64246 38.95831,-13.4301 4.54076,-1.30093 9.12948,-2.4282 13.69422,-3.64231 25.5291,-6.02842 51.52403,-10.21109 77.68589,-12.20982 4.64054,-0.35453 9.29174,-0.55223 13.93761,-0.82835 15.73732,-0.43442 31.73918,-1.19851 47.32528,1.58536 52.34157,8.5358 64.41302,-65.48636 12.07145,-74.02216 v 0 c -21.14921,-3.30291 -42.60185,-3.52114 -63.95397,-2.42461 -5.46147,0.33917 -10.92937,0.58713 -16.38441,1.01752 -30.35693,2.39508 -60.51786,7.3011 -90.11378,14.44312 -5.52735,1.49313 -11.08311,2.88478 -16.58204,4.47938 -14.17063,4.10923 -27.99259,9.25204 -41.81385,14.38351 -49.956,17.80162 -24.78071,88.45008 25.17529,70.64846 z"/>
<path d="m 168.64584,623.45166 c 17.32632,-5.73004 35.60666,-8.2035 53.57996,-11.0173 37.17267,-5.18067 74.609,-8.1641 111.99894,-11.27566 24.08015,-1.86265 48.1747,-3.65709 72.32463,-4.24426 4.87049,-0.004 9.75166,-0.20686 14.6222,-0.0332 0.0584,0.002 -0.1129,0.0448 -0.17095,0.0384 -1.5565,-0.17323 -3.10857,-0.38425 -4.66286,-0.57637 -9.46561,-3.61146 -10.38506,-2.83975 -17.69559,-9.98894 -5.38572,-5.26686 -2.78774,-3.84952 -5.3474,-7.72561 -0.0414,-0.0627 -0.14006,0.10934 -0.1305,0.18389 0.12403,0.96703 0.34877,1.91845 0.52315,2.87768 3.25134,18.74778 3.61131,37.81935 3.65897,56.79521 -0.15609,18.0385 -1.254,36.08355 -3.73249,53.95836 -1.66222,11.98788 -2.39796,14.95834 -4.69293,26.86617 -4.97816,24.90984 -12.50859,49.16212 -21.26089,72.97301 -6.8374,17.91855 -14.79971,35.36932 -22.92892,52.72897 -5.03755,10.86803 -10.32156,21.61302 -16.27264,32.011 -1.59854,2.63815 -3.25895,5.25488 -5.24028,7.62707 -0.21459,0.25692 -1.10417,1.5401 -1.77357,1.55067 0.35856,-0.80538 0.23744,-0.64718 1.6785,-1.48241 6.88837,-3.99249 0.95091,-0.14365 9.30851,-3.41193 0.19916,-0.0779 0.11961,-0.54896 -0.0752,-0.63712 -1.70992,-0.7738 -3.55453,-1.2065 -5.33179,-1.80975 -14.08679,-5.37692 -27.68876,-11.96263 -41.3922,-18.22645 -48.23555,-22.04158 -79.40706,46.17379 -31.1715,68.21537 v 0 c 16.95016,7.7432 33.76296,15.95237 51.43278,21.97276 9.50131,2.6181 17.10285,5.38754 27.10027,5.48308 14.84694,0.14187 26.20108,-4.21412 37.48206,-13.3504 1.5335,-1.37849 3.12219,-2.69794 4.60049,-4.13547 7.41172,-7.20738 13.27993,-15.80974 18.54153,-24.65745 6.90807,-12.15822 13.18272,-24.6462 19.03648,-37.34631 9.04646,-19.32395 17.86938,-38.76714 25.42837,-58.73201 10.12995,-27.73005 18.76976,-55.69589 24.50663,-84.70366 2.68529,-14.16973 3.57209,-17.82051 5.50144,-32.09442 2.82545,-20.90349 4.10474,-41.99487 4.25484,-63.08152 -0.11595,-23.9767 -0.76424,-48.07084 -5.21307,-71.70412 -1.57029,-7.2484 -3.00265,-14.86974 -6.70856,-21.42221 -4.10172,-7.25231 -8.18519,-12.42712 -15.52155,-16.91878 -3.62317,-2.21827 -7.84126,-3.27211 -11.7619,-4.90817 -2.41552,-0.39011 -4.81853,-0.86778 -7.24658,-1.17032 -6.8031,-0.84769 -14.38285,0.17216 -21.20221,-0.14197 -25.60612,0.64466 -51.15731,2.47447 -76.6888,4.47976 -39.20735,3.26448 -78.46285,6.40981 -117.43163,11.92817 -24.38954,3.85277 -49.25788,7.35592 -72.32921,16.54517 -48.480034,21.49851 -18.07654,90.05964 30.40349,68.56112 z"/>
<path d="m 27.463608,762.02156 c 7.450533,17.79633 17.785976,34.20592 27.663466,50.71919 9.948011,16.56742 20.263701,33.06961 33.090095,47.6035 1.993002,2.25832 4.124008,4.39099 6.186012,6.58648 1.925186,1.79624 3.850372,3.59247 5.775559,5.3887 39.18335,35.73745 89.72373,-19.67619 50.54037,-55.41363 v 0 c -0.69034,-0.58927 -1.38068,-1.17855 -2.07102,-1.76782 -11.83847,-11.97926 -20.49835,-26.57073 -29.15901,-40.90089 -8.92904,-14.92353 -18.29639,-29.70043 -24.97348,-45.81658 -23.759527,-47.41291 -90.8115196,-13.81187 -67.051992,33.60105 z"/>
<path d="m 117.19222,710.13683 c 2.39471,13.312 9.99935,24.53617 17.07949,35.74272 6.89869,10.91934 4.18464,6.63767 11.23945,17.69838 6.08702,9.91779 13.1304,19.16347 20.23311,28.35801 32.536,41.8797 91.76283,-4.13314 59.22684,-46.01284 v 0 c -5.73441,-7.32458 -11.38032,-14.71949 -16.22842,-22.67845 -9.81894,-15.3924 -1.33227,-2.06238 -11.10377,-17.48488 -1.50155,-2.36993 -2.98446,-4.75189 -4.51334,-7.10428 -0.61203,-0.94169 -1.11421,-1.98265 -1.90852,-2.77664 -0.44831,-0.44814 0.24714,2.92148 -0.0498,1.901 -8.73771,-52.30825 -82.71273,-39.95126 -73.97502,12.35698 z"/>
<path d="m 205.4181,699.53312 c 7.93351,12.01655 16.81055,23.39172 25.34182,34.98979 5.3253,7.14276 2.75792,3.72724 7.69582,10.2513 32.01273,42.28102 91.80713,-2.99182 59.79439,-45.27284 v 0 c -4.51112,-5.95578 -2.15062,-2.81776 -7.07477,-9.41913 -6.84128,-9.30036 -13.67641,-18.67472 -20.67509,-27.8226 -26.35633,-46.02004 -91.43849,-8.74656 -65.08217,37.27348 z"/>
<path d="m 285.86309,670.61647 c 5.98561,14.47604 16.58863,26.1073 26.88453,37.62685 35.36979,39.51554 91.2532,-10.5049 55.88341,-50.02044 v 0 c -4.31638,-4.81386 -8.57577,-9.68083 -12.7873,-14.5825 -19.07497,-49.48379 -89.05562,-22.5077 -69.98064,26.97609 z"/>
<path d="m 581.01065,203.33575 c 22.10547,-6.67219 44.38859,-12.63745 66.81809,-18.11443 40.64198,-9.32258 82.17878,-13.61837 123.63786,-17.33711 22.35878,-1.29296 44.90927,-3.62665 67.31257,-1.82124 0.53421,0.13177 2.14921,0.33217 1.60262,0.39532 -2.35638,0.27227 -7.02066,-1.90537 -8.19016,-2.58735 -5.82714,-3.39797 -8.52834,-7.20306 -11.42033,-13.01584 -0.0951,0.0409 -0.27666,0.0195 -0.28536,0.12264 -0.0827,0.98088 0.0554,1.96903 0.0262,2.95295 -0.10206,3.44063 -0.55346,8.23684 -0.88409,11.42388 -1.03431,9.96997 -1.46318,12.55459 -2.86374,23.11487 -5.44128,40.77374 -13.66377,81.09057 -21.7793,121.39392 -6.95039,30.96094 -12.27835,63.279 -23.8463,92.97462 -1.6426,4.21666 -3.62067,8.29483 -5.431,12.44224 -20.85942,48.75843 48.09542,78.2581 68.95483,29.49967 v 0 c 2.46478,-5.84556 5.13177,-11.60992 7.39433,-17.53668 12.62333,-33.06677 18.90732,-68.1396 26.45253,-102.57567 8.44748,-41.95628 16.96517,-83.93378 22.60976,-126.38202 2.89151,-21.99341 6.66767,-44.47767 2.18221,-66.51953 -3.30578,-9.79894 -3.63786,-13.57812 -10.63113,-21.95723 -9.94162,-11.911727 -23.58771,-17.021963 -38.54482,-18.555004 -26.45275,-1.75393 -52.97867,-0.0526 -79.37424,1.931707 -45.1985,4.072104 -90.46342,8.889057 -134.74348,19.183887 -23.16385,5.67565 -46.19924,11.78226 -69.02867,18.691 -51.10642,14.16452 -31.07477,86.43992 20.03165,72.2754 z"/>
<path d="m 583.48412,432.39256 c 17.37548,-5.12446 35.10764,-8.99551 52.99014,-11.8734 6.52139,-1.0495 13.0729,-1.90235 19.60935,-2.85353 35.60228,-4.7138 71.59349,-6.27028 107.48082,-5.14001 6.27277,0.19756 12.53738,0.60047 18.80608,0.90071 20.56671,1.6303 10.81844,0.68592 29.25414,2.73496 52.7166,5.78454 60.89717,-68.76798 8.18058,-74.55252 v 0 c -21.54745,-2.3385 -10.24398,-1.2731 -33.91935,-3.10001 -7.04828,-0.32464 -14.09225,-0.76276 -21.14483,-0.97391 -39.91808,-1.19514 -79.94271,0.62889 -119.53391,5.92362 -7.34977,1.08412 -14.71731,2.05386 -22.0493,3.25234 -19.49358,3.18641 -38.86931,7.34183 -57.82566,12.91151 -51.45632,12.83536 -33.30439,85.60559 18.15194,72.77024 z"/>
<path d="m 530.78915,213.26597 c 0,20.56023 0,41.12046 0,61.68069 0.22161,50.75648 -1.34538,101.4838 -3.434,152.18935 -0.52646,10.07714 -0.97153,20.15885 -1.57938,30.2314 -1.26559,20.97179 -2.73211,41.09733 -4.97247,61.9944 -3.52913,32.91813 -8.82641,65.53421 -14.25689,98.17764 -5.62678,33.15547 -13.78355,65.79217 -22.46442,98.25499 -5.30601,19.84224 -11.42565,42.09119 -17.6929,61.70897 -2.94533,9.2195 -6.24659,18.32148 -9.36989,27.48223 -8.37907,23.08859 -17.44292,45.91761 -26.46059,68.76109 -19.47152,49.32909 50.29035,76.86599 69.76188,27.53689 v 0 c 9.45915,-23.9657 18.96653,-47.9167 27.70742,-72.1575 3.40372,-10.03834 6.99352,-20.01549 10.21116,-30.11501 6.44866,-20.24105 12.96687,-43.86709 18.43106,-64.34974 9.23934,-34.63388 17.86738,-69.46377 23.86226,-104.83066 4.8575,-29.27762 6.93719,-40.3524 10.84451,-69.66368 5.74759,-43.11635 9.09618,-86.49459 10.91481,-129.94705 2.12718,-51.73309 3.71987,-103.48852 3.49744,-155.27332 0,-20.56023 0,-41.12046 0,-61.68069 0,-53.03301 -75,-53.03301 -75,0 z"/>
<path d="m 621.98684,576.82888 c 1.09934,1.35697 2.18077,2.72864 3.29801,4.0709 5.29796,6.36498 3.87116,4.34376 9.38278,11.24502 7.94095,9.94307 15.37482,20.24474 22.81499,30.56344 14.47494,21.05238 28.94567,42.12923 42.58377,63.73891 7.57461,12.00204 13.3937,21.88549 20.67667,34.0528 16.32451,27.76591 32.75752,55.46592 49.48123,82.99338 9.54563,16.29046 20.95171,31.30025 33.08044,45.72222 8.44006,9.79846 16.5709,19.8472 25.12454,29.54786 16.16339,18.2209 35.30488,33.34581 54.13122,48.66121 17.40994,13.29401 8.04942,6.61309 28.21895,19.84885 44.50376,28.84295 85.29384,-34.09487 40.79008,-62.93781 v 0 c -14.88083,-9.47302 -7.65464,-4.44139 -21.68061,-15.09198 -15.6405,-12.72244 -31.70223,-25.11915 -45.25573,-40.14031 -8.18237,-9.23719 -15.87813,-18.87948 -23.96304,-28.20147 -9.66945,-11.46094 -18.81423,-23.34158 -26.34848,-36.35118 -16.64128,-27.38941 -32.98553,-54.95506 -49.23205,-82.58027 -8.08139,-13.49183 -13.60545,-22.89095 -22.04141,-36.24542 -14.33035,-22.68555 -29.51897,-44.82273 -44.74964,-66.9078 -11.60746,-16.06991 -23.26832,-32.13977 -36.36007,-47.05275 -31.86535,-42.39222 -91.81699,2.67219 -59.95165,45.0644 z"/>
</svg>
