<?xml version="1.0" ?>
<svg xmlns="http://www.w3.org/2000/svg" viewBox="0 0 1000 1000">
<path d="m 128.06754,166.04868 c 2.10614,33.39783 2.63173,66.86487 3.13823,100.31671 0.22762,60.02004 -0.0246,120.09328 -3.06194,180.05247 -0.7102,14.01981 -1.71951,28.02287 -2.57926,42.0343 -1.29859,14.45798 -2.39561,28.93548 -3.89578,43.37394 -2.83582,27.29354 -7.47073,62.92899 -11.54542,89.99921 -4.90809,32.60686 -9.17475,57.51105 -16.147933,89.70144 -3.113907,14.37477 -6.748587,28.63176 -10.12288,42.94764 -9.535928,38.90377 -23.332497,76.51528 -36.805511,114.16449 -17.854808,49.93701 52.7668,75.18753 70.621614,25.25051 v 0 c 14.39838,-40.30334 29.05793,-80.59298 39.1929,-122.24858 3.5636,-15.19109 7.40223,-30.32029 10.69081,-45.57328 7.23815,-33.57175 11.7635,-59.99641 16.8612,-93.94821 4.25894,-28.36556 9.00802,-65.0454 11.9568,-93.60936 1.56294,-15.13966 2.70291,-30.31999 4.05436,-45.47999 0.88694,-14.55197 1.927,-29.09541 2.66082,-43.6559 3.09059,-61.32384 3.3601,-122.76315 3.11156,-184.14867 -0.51661,-33.8533 -1.0215,-67.72627 -3.16633,-101.52456 -1.66017,-53.00701 -76.62341,-50.65918 -74.96324,2.34784 z"/>
<path d="m 192.92699,194.86667 c 18.46588,-6.44278 37.50736,-11.08266 56.48227,-15.74214 24.96597,-5.75538 50.14567,-10.70134 75.58566,-13.81088 5.19233,-0.56822 10.39927,-1.01146 15.61693,-1.26176 0.85812,-0.0412 1.71659,-0.0826 2.57563,-0.093 0.14592,-0.002 0.58008,0.0557 0.43415,0.0565 -0.6877,0.004 -1.37505,-0.0317 -2.06257,-0.0476 -10.08847,-2.20054 -13.02905,-1.86205 -22.37616,-11.51936 -3.45625,-3.57095 -5.23077,-8.47485 -7.36372,-12.96349 -0.71611,-1.507 -0.59191,-3.29535 -1.11515,-4.87968 -0.1395,-0.42241 -0.0575,0.88852 -0.056,1.33337 0.007,2.00831 0.0537,4.01629 0.0806,6.02444 0.9823,36.55148 2.97947,73.06901 4.62923,109.59496 3.4023,69.0313 3.26173,138.15445 2.33346,207.24071 -1.326,80.98925 -7.36403,161.78755 -13.19709,242.54565 -4.58242,60.71715 -8.60417,121.47384 -12.75142,182.22152 -1.21563,15.20655 -1.90723,30.46409 -3.49665,45.64092 -0.27532,2.62897 -0.54147,5.26368 -1.00436,7.86618 -0.15483,0.87048 -1.08153,3.36628 -0.84212,2.51518 0.68125,-2.42191 1.44547,-4.8197 2.16821,-7.22955 4.8044,-4.50432 9.6088,-9.00863 14.41319,-13.51295 3.38741,-0.93882 7.30605,-0.76753 10.16223,-2.81647 1.07381,-0.77032 -2.22425,-1.43722 -3.40485,-2.03106 -3.47057,-1.74571 -7.03182,-3.30512 -10.53644,-4.98143 -19.21854,-9.19249 -12.35273,-5.83758 -32.26751,-16.23319 -5.50973,-3.48476 -11.01947,-6.96953 -16.5292,-10.45429 -44.98515,-28.08623 -84.70508,35.53238 -39.71993,63.61861 v 0 c 7.20219,4.45185 14.40438,8.9037 21.60656,13.35555 16.79567,8.72871 19.19491,10.22378 35.62247,17.87552 17.02104,7.92818 40.4324,19.30333 59.77841,12.4787 9.23531,-3.25791 16.03271,-11.25043 24.04906,-16.87564 2.52985,-5.23402 5.54612,-10.25967 7.58954,-15.70205 1.85282,-4.93477 3.07718,-16.00736 3.62058,-21.23708 1.62991,-15.68622 2.3741,-31.45178 3.61665,-47.16876 4.14026,-60.64946 8.15557,-121.30789 12.73072,-181.92684 5.93835,-82.2222 12.05675,-164.4867 13.38524,-246.94464 0.94092,-70.54932 1.06951,-141.13578 -2.40314,-211.62876 -1.61417,-35.73556 -3.55778,-71.46285 -4.55966,-107.22202 -0.084,-6.18367 0.36705,-16.479 -1.78581,-22.06229 -2.11023,-5.47272 -4.20737,-11.24102 -8.11981,-15.61098 -9.94453,-11.107459 -14.23533,-10.92343 -25.85463,-13.838623 -1.78271,-0.139338 -3.56171,-0.339665 -5.34815,-0.418015 -9.62795,-0.422262 -19.27291,1.142165 -28.83832,1.860627 -28.35623,3.550092 -56.45609,8.897934 -84.27853,15.412521 -22.91031,5.64322 -45.96912,11.21148 -68.05768,19.61187 -48.76191,20.85127 -19.27376,89.81103 29.48815,68.95976 z"/>
<path d="m 184.14061,359.40712 c 21.44065,-3.92417 43.30868,-4.58735 65.03719,-5.35819 19.08833,-0.64122 38.1831,-0.31348 57.2721,0.014 53.02544,0.89574 54.2922,-74.09356 1.26676,-74.9893 v 0 c -20.41263,-0.33975 -40.83136,-0.67469 -61.24264,0.024 -25.74672,0.94277 -51.63884,1.90922 -77.01058,6.75958 -52.0076,10.37833 -37.33043,83.92818 14.67717,73.54986 z"/>
<path d="m 182.69346,569.23079 c 32.13613,-13.91628 63.83119,-28.84836 95.62886,-43.51969 27.60769,-12.3706 55.58593,-23.88762 83.44986,-35.66289 48.85003,-20.64402 19.65498,-89.72838 -29.19504,-69.08437 v 0 c -28.61121,12.09111 -57.33986,23.91735 -85.6762,36.64662 -30.8731,14.24474 -61.65113,28.73142 -92.82912,42.29644 -49.01939,20.23855 -20.39776,89.56244 28.62164,69.32389 z"/>
<path d="m 506.98588,114.92708 c 1.15562,1.82473 2.29421,3.66037 3.46687,5.47421 4.71119,7.28717 2.96981,4.22917 8.1779,12.68131 2.64127,4.28647 9.79437,16.41302 12.08444,20.06506 2.81634,4.49132 5.7625,8.89993 8.64375,13.34989 3.91612,5.13829 7.83224,10.27657 11.74836,15.41486 32.41871,41.97056 91.77403,-3.87642 59.35532,-45.84697 v 0 c -2.73399,-3.47121 -5.46798,-6.94243 -8.20197,-10.41364 -2.43681,-3.73975 -4.93882,-7.43781 -7.31042,-11.21925 -4.45613,-7.10512 -8.58831,-14.4092 -12.99863,-21.542855 -1.59739,-2.583771 -6.79259,-10.747079 -8.99538,-13.94113 -0.0306,-0.04442 -0.10789,0.0018 -0.16184,0.0028 -25.4387,-46.533565 -91.2471,-10.557813 -65.8084,35.975755 z"/>
<path d="m 748.88119,65.755492 c -2.31184,3.920247 -3.63687,6.12626 -6.15029,10.763115 -9.66061,17.822298 -3.35747,7.17053 -14.13088,25.960943 -9.4967,16.56364 -10.67854,18.1822 -21.00537,34.97537 -4.22303,6.00403 -8.44607,12.00807 -12.66911,18.0121 -30.38125,43.46815 31.09199,86.43373 61.47324,42.96558 v 0 c 5.03321,-7.23938 10.06641,-14.47876 15.09962,-21.71814 10.88498,-17.73351 12.57041,-20.15384 22.58317,-37.66763 13.66217,-23.89713 3.72175,-6.76353 13.95434,-25.64658 2.7242,-5.02718 5.72859,-9.8995 8.35811,-14.979516 23.09781,-47.738778 -44.41502,-80.40402 -67.51283,-32.665242 z"/>
<path d="m 525.18958,281.13995 c 2.02336,-0.10215 4.05115,-0.13808 6.07008,-0.30644 10.53366,-0.87838 20.96541,-2.82355 31.36379,-4.64556 14.6451,-2.56613 18.00901,-3.22715 33.28261,-6.04898 26.86431,-5.09028 53.90938,-9.47302 81.18418,-11.6497 18.06487,-1.44168 23.66992,-1.33789 41.63214,-1.78185 28.44152,-0.0413 56.99184,1.01143 85.0854,5.68262 52.34115,8.5384 64.41627,-65.48316 12.07512,-74.02156 v 0 c -9.99588,-1.60728 -12.48541,-2.13062 -23.13776,-3.25925 -25.21871,-2.67194 -50.61716,-3.48658 -75.96324,-3.3767 -20.53189,0.55256 -26.51388,0.43735 -47.19145,2.13266 -29.32686,2.40445 -58.41968,7.05025 -87.31328,12.52248 -18.97657,3.50761 -37.94443,7.26761 -57.08759,9.75228 -53.03301,0 -53.03301,75 0,75 z"/>
<path d="m 437.76499,410.30753 c 20.89492,-2.83251 41.58133,-7.08635 62.30693,-10.93788 40.60346,-7.18005 81.57642,-12.32308 122.66317,-15.77787 9.65479,-0.81183 19.32524,-1.42517 28.98787,-2.13775 45.30737,-2.94914 90.77327,-4.47765 136.1692,-2.86779 7.32317,0.2597 14.6373,0.73118 21.95595,1.09677 17.4911,0.96556 34.9122,2.76711 52.3169,4.69386 52.71348,5.81282 60.93405,-68.7353 8.22057,-74.54812 v 0 c -18.91097,-2.07791 -37.83921,-4.02553 -56.84358,-5.05472 -8.00288,-0.38994 -16.00108,-0.89209 -24.00864,-1.16983 -47.79012,-1.65761 -95.65171,-0.0666 -143.3474,3.05449 -10.18222,0.75651 -20.37267,1.40936 -30.54666,2.26951 -43.30203,3.66093 -86.48015,9.11504 -129.27052,16.70391 -18.09771,3.36326 -36.19568,6.86114 -54.34317,9.89535 -52.8775,4.05836 -47.13811,78.83843 5.73938,74.78007 z"/>
<path d="m 626.33583,48.596802 c -0.43042,15.555607 -0.72167,31.116289 -2.72368,46.573305 -0.7219,5.573613 -1.69928,11.111153 -2.54893,16.666733 -5.85556,30.22812 -13.58733,60.15916 -24.47856,88.99181 -8.92586,23.62969 -13.38684,32.079 -24.20893,55.42078 -35.634,71.16302 -78.41662,138.41977 -120.74884,205.71132 -22.53699,36.75616 -46.4173,72.67018 -69.27951,109.21962 -7.41365,11.85208 -14.59487,23.84798 -21.89231,35.77197 -27.67552,45.23899 36.30207,84.37808 63.97759,39.13909 v 0 c 7.03903,-11.51069 13.96166,-23.09339 21.11708,-34.53209 22.956,-36.69759 46.92985,-72.75989 69.56114,-109.66387 44.04062,-70.01496 88.50962,-140.02506 125.34932,-214.18964 12.22025,-26.53295 16.98876,-35.54248 27.06997,-62.55158 12.3618,-33.11913 21.20516,-67.4668 27.70214,-102.18424 1.00392,-6.79287 2.16444,-13.56443 3.01177,-20.37861 2.05665,-16.539573 2.62249,-33.180667 2.97577,-49.825073 2.94829,-52.95099204 -71.93572,-57.1205165 -74.88402,-4.169525 z"/>
<path d="m 699.61257,340.8339 c 14.31402,14.78866 25.73189,31.58726 37.16668,48.61299 22.6369,34.75665 41.36863,71.8098 60.69739,108.44826 10.44907,19.17705 20.0944,38.91861 33.04704,56.59544 7.99645,10.91297 10.7747,13.40048 19.82625,23.25369 21.76942,21.70796 46.66826,39.86842 71.50852,57.84113 42.97144,31.07981 86.92495,-29.69099 43.95349,-60.77081 v 0 c -20.90069,-15.11091 -41.90169,-30.28039 -60.56041,-48.16645 -5.6243,-5.92153 -7.9027,-7.99035 -12.8614,-14.55499 -11.46741,-15.1813 -19.29115,-32.69374 -28.57852,-49.19332 -20.58293,-39.01572 -40.60151,-78.43461 -64.83673,-115.366 -3.94779,-5.84119 -7.78529,-11.75846 -11.84337,-17.52359 -12.03834,-17.10235 -25.17991,-33.73327 -40.7308,-47.79264 -41.44798,-33.08421 -88.23612,25.53208 -46.78814,58.61629 z"/>
<path d="m 504.52843,472.13208 c 1.15105,26.57678 0.75657,53.15879 0.18383,79.74439 -1.14091,50.35568 -2.24711,100.71263 -3.15466,151.07314 -0.29414,16.71805 -0.50963,33.43727 -0.71506,50.15659 -0.65138,53.02901 74.34297,53.95019 74.99434,0.92118 v 0 c 0.20355,-16.57601 0.41707,-33.15192 0.70855,-49.72668 0.90566,-50.27569 2.01091,-100.5478 3.14964,-150.81867 0.57725,-27.11774 1.04612,-54.24104 -0.16664,-81.34995 0,-53.03301 -75,-53.03301 -75,0 z"/>
<path d="m 562.20058,517.28093 c 21.02282,-7.44614 42.97953,-11.72723 64.82365,-15.93949 38.40615,-7.00621 77.39542,-9.75619 116.35189,-11.25915 15.95138,-0.56915 31.90743,-0.32109 47.85227,0.25101 52.99987,1.87462 55.65098,-73.07851 2.65112,-74.95313 v 0 c -17.80315,-0.6217 -35.61874,-0.88786 -53.42808,-0.24083 -42.76133,1.68628 -85.54978,4.79002 -127.69263,12.57128 -26.05098,5.06837 -52.21065,10.33433 -77.20585,19.46393 -49.5727,18.84273 -22.92506,88.9491 26.64763,70.10638 z"/>
<path d="m 586.05067,608.29178 c 22.17847,-2.53373 44.24429,-5.88544 66.30298,-9.28564 20.85653,-3.08644 41.75858,-6.04366 62.81388,-7.38447 9.54347,-0.60773 15.94643,-0.67898 25.40317,-0.91205 3.38237,-0.0322 6.76475,-0.0643 10.14713,-0.0965 53.03038,-0.52761 52.28423,-75.5239 -0.74615,-74.99629 v 0 c -3.76875,0.039 -7.53749,0.078 -11.30624,0.11697 -11.50912,0.30022 -17.80552,0.35958 -29.54242,1.13181 -22.85538,1.50377 -45.55543,4.64626 -68.19731,8.01626 -21.00702,3.23934 -42.01815,6.45184 -63.13936,8.86659 -52.71006,5.84376 -44.44574,80.38704 8.26432,74.54329 z"/>
<path d="m 569.19199,701.7551 c 20.68946,-0.19985 41.27042,-2.91043 61.87578,-4.59993 27.45346,-2.39297 55.00688,-2.25416 82.53409,-2.36727 16.23755,-0.0421 32.4739,0.24237 48.71115,0.19892 53.03277,-0.15749 52.81005,-75.15716 -0.22272,-74.99967 v 0 c -16.2657,0.0537 -32.53075,-0.25832 -48.79681,-0.19862 -29.47596,0.12128 -58.97791,0.0498 -88.37307,2.619 -17.57932,1.44981 -35.12392,3.46664 -52.73753,4.40723 -52.99082,-2.11488 -55.98171,72.82546 -2.99089,74.94034 z"/>
<path d="m 625.46666,496.36314 c 2.24783,19.14684 2.27251,38.47563 2.57271,57.72545 0.36476,39.33344 -0.67877,78.66031 -1.36258,117.98456 -0.45716,23.12155 -0.8501,46.2442 -1.19694,69.36763 -0.79523,53.02705 74.19633,54.15168 74.99157,1.12463 v 0 c 0.34581,-23.0637 0.73818,-46.12661 1.19404,-69.18843 0.69804,-40.15227 1.75977,-80.30737 1.36462,-120.46902 -0.34615,-21.79093 -0.4777,-43.65928 -3.07941,-65.32725 -6.21011,-52.66816 -80.69413,-43.88573 -74.48401,8.78243 z"/>
<path d="m 550.02905,804.05227 c 18.18396,-4.82814 36.67561,-8.33344 55.18989,-11.61033 33.09022,-5.50759 66.42243,-8.34161 99.90438,-9.91756 26.92727,-0.88686 53.8925,-0.99137 80.79963,0.46597 7.80633,0.45285 15.58305,1.40616 23.02331,3.85727 0.99844,0.35739 2.01416,0.66423 3.01466,1.01544 0.0471,0.0165 -0.10054,-0.009 -0.14723,-0.0265 -0.52485,-0.19691 -1.0721,-0.34866 -1.56488,-0.61588 -2.05136,-1.11243 -4.32377,-1.94977 -6.05394,-3.51569 -3.55485,-3.21739 -6.42193,-7.12132 -9.63289,-10.68198 -4.53485,-11.66383 -3.89579,-13.68811 -4.2523,-6.42181 -0.0959,1.9548 -0.22263,3.9085 -0.38976,5.85851 -0.69399,8.09761 -0.99042,9.51957 -2.11212,17.99184 -3.2377,23.20237 -9.67491,45.74644 -16.71589,68.03238 -4.7864,15.146 -10.06346,30.14493 -16.70283,44.58435 -0.61297,1.21003 -1.21355,2.42642 -1.8389,3.63009 -0.5909,1.13736 -2.46592,4.62625 -3.1802,5.85069 -0.26451,0.45344 -1.88957,3.1871 -1.36894,1.96466 3.8818,-5.63287 10.16528,-8.44595 16.46427,-10.59108 1.56684,-0.53359 3.47572,-0.0167 4.88662,-0.88213 0.73182,-0.44893 -1.6737,-0.38361 -2.51055,-0.57542 -11.93172,-2.76293 -23.53905,-6.72636 -35.17051,-10.51191 -50.44698,-16.35857 -73.58149,54.98422 -23.13452,71.34279 v 0 c 15.81501,5.11203 31.61328,10.50006 48.0163,13.46005 8.22695,0.96442 14.83261,2.35134 23.22876,0.58608 12.07304,-2.53832 20.91429,-8.53425 28.31393,-17.9544 5.6908,-7.89604 10.41138,-16.39381 14.5373,-25.20967 7.82331,-17.26522 14.35701,-35.05827 19.99284,-53.1564 8.32535,-26.48843 15.80915,-53.31007 19.55461,-80.88691 1.42273,-11.07619 2.83724,-22.11337 3.1292,-33.29226 0.0806,-3.08709 0.0525,-12.90937 -0.68855,-16.029 -1.17597,-4.95085 -3.11668,-9.68823 -4.67502,-14.53234 -3.55273,-4.16884 -6.67205,-8.74994 -10.65818,-12.50652 -4.82163,-4.54397 -11.69241,-6.29255 -17.75354,-8.4448 -13.52176,-4.19748 -27.48163,-6.52842 -41.63268,-7.2339 -29.42394,-1.53704 -58.90491,-1.53238 -88.34908,-0.48649 -6.34381,0.30585 -12.69167,0.5369 -19.03143,0.91756 -30.27698,1.81792 -60.46471,5.26473 -90.40889,10.0691 -20.20437,3.59525 -40.38385,7.43237 -60.23491,12.68595 -51.45631,12.83543 -33.30427,85.60564 18.15204,72.77021 z"/>
<path d="m 388.40415,873.73041 c 4.47794,9.59453 9.52344,18.90781 13.92,28.54188 0.91324,2.00116 6.91687,15.78897 7.73794,17.67137 5.70545,12.18199 2.80175,6.26039 8.68702,17.7766 24.25046,47.16371 90.95002,12.86838 66.69956,-34.29532 v 0 c -4.40551,-8.49597 -2.17657,-4.01359 -6.64261,-13.46904 -1.90054,-4.35639 -6.89044,-15.84112 -8.72924,-19.84843 -4.31281,-9.39899 -9.16541,-18.52683 -13.60257,-27.86454 -22.26502,-48.13283 -90.33512,-16.64535 -68.0701,31.48748 z"/>
<path d="m 481.47225,871.75037 c 5.55746,6.86228 8.9834,15.1051 12.12482,23.26984 3.01914,8.31263 5.86709,16.68551 8.7169,25.05716 17.09415,50.20249 88.09119,26.0277 70.99704,-24.17479 v 0 c -3.26092,-9.57426 -6.50892,-19.15438 -10.03745,-28.6346 -1.46542,-3.60732 -2.81635,-7.26329 -4.39626,-10.82195 -4.98548,-11.22947 -11.26617,-21.97047 -18.89122,-31.61189 -33.17478,-41.37552 -91.68861,5.5407 -58.51383,46.91623 z"/>
<path d="m 571.71438,862.39777 c 0.2805,0.37134 0.59717,0.71794 0.8415,1.11402 0.83483,1.35336 1.95744,5.46658 2.26167,6.48145 1.98063,6.60718 1.77119,6.46116 3.25392,13.67487 1.61543,8.84603 2.48898,17.79649 3.38294,26.73547 5.34121,52.76335 79.95986,45.20973 74.61865,-7.55362 v 0 c -1.20514,-11.78694 -2.41917,-23.58622 -4.73681,-35.22153 -0.96988,-4.27617 -1.78906,-8.58933 -2.90964,-12.82849 -3.77398,-14.27698 -9.33682,-28.39662 -18.7174,-39.95846 -33.62738,-41.00853 -91.6222,6.54776 -57.99483,47.55629 z"/>
<path d="m 662.08602,828.16288 c 1.10861,11.47155 2.05592,22.99869 2.10869,34.53233 0.0224,4.90637 -0.21195,9.81055 -0.31792,14.71582 -0.95319,53.02444 74.0347,54.37246 74.98789,1.34802 v 0 c 0.0944,-6.23896 0.33224,-12.4774 0.28309,-18.71687 -0.10947,-13.89676 -1.25939,-27.78777 -2.6945,-41.60104 -6.87431,-52.58559 -81.24156,-42.86384 -74.36725,9.72174 z"/>
</svg>
