<?xml version="1.0" ?>
<svg xmlns="http://www.w3.org/2000/svg" width="1000" height="1000">
<path d="m 301.64633,132.85458 c 9.56904,33.03471 17.53048,66.47664 25.21349,99.99001 7.39335,32.27766 14.12004,64.73025 22.85546,96.6851 1.97995,7.24283 4.16599,14.42776 6.24899,21.64163 14.74655,50.94153 86.78875,30.08675 72.04219,-20.85478 v 0 c -1.89476,-6.52715 -3.88706,-13.02678 -5.68428,-19.58146 -8.57562,-31.27634 -15.09692,-63.06245 -22.35997,-94.65476 -7.75929,-33.82466 -15.7239,-67.60441 -25.43623,-100.93325 -12.5211,-51.533699 -85.40076,-33.826182 -72.87965,17.70751 z"/>
<path d="m 472.41571,143.68944 c 17.08302,-8.57563 36.26316,-11.6313 54.86898,-15.06694 21.89794,-3.61472 43.94836,-6.41944 66.13815,-7.32054 11.89784,-0.48315 14.72688,-0.30223 26.14695,-0.14657 7.35619,0.38236 14.77025,0.60652 22.04123,1.90605 0.89718,0.16035 1.78072,0.39312 2.65935,0.6353 1.35699,0.37403 1.23107,0.0178 1.37216,0.60099 -4.33502,-1.41431 -8.21839,-4.62737 -10.91004,-8.26404 -1.29272,-1.74659 -2.32905,-3.6691 -3.49358,-5.50365 -0.62762,-1.54335 -1.25523,-3.08671 -1.88284,-4.63007 -0.12027,-0.23249 -0.35654,-0.95919 -0.3608,-0.69747 -0.0228,1.40014 0.22429,2.7919 0.30399,4.18996 0.15052,2.64065 0.29559,5.28202 0.3866,7.92539 0.35022,10.17182 0.30269,15.28104 0.37862,25.91972 -0.42336,35.55955 -0.62954,71.26581 -4.97202,106.61789 -0.91116,7.41769 -2.18983,14.78561 -3.28474,22.17841 -5.24,29.49524 -14.05538,58.18374 -24.47417,86.21776 -18.394,49.74094 51.95031,75.75397 70.34431,26.01304 v 0 c 1.79744,-4.88111 3.6842,-9.73024 5.39233,-14.64331 9.82924,-28.27176 17.74762,-57.25562 22.94952,-86.74409 1.24054,-8.59095 2.68574,-17.15484 3.72161,-25.77287 4.56193,-37.9534 4.93508,-76.26215 5.32102,-114.43281 -0.0918,-11.58779 -0.0436,-17.94849 -0.47557,-29.20785 -0.32645,-8.50904 -0.52668,-18.262448 -2.67999,-26.574134 -0.74796,-2.887093 -1.92568,-5.645417 -2.88852,-8.468126 -1.51846,-2.581683 -2.84501,-5.286306 -4.55538,-7.745051 -5.57023,-8.007449 -14.23894,-13.163498 -23.05488,-16.814068 -5.2674,-1.812265 -6.39296,-2.35113 -11.98477,-3.618945 -12.78124,-2.897852 -25.92515,-3.577634 -38.97723,-4.082903 -13.67438,-0.13795 -17.33378,-0.346525 -31.47252,0.273545 -25.313,1.11013 -50.47746,4.268055 -75.45226,8.462146 -6.23209,1.174044 -12.49013,2.217853 -18.69627,3.522133 -20.05779,4.215336 -40.06646,9.752866 -58.26126,19.395211 -46.58129,25.351202 -10.72927,91.227092 35.85202,65.875892 z"/>
<path d="m 480.05939,151.96591 c -3.31595,8.32264 -5.42459,17.06904 -8.57924,25.44771 -2.65507,7.0518 -7.54104,17.78171 -10.99071,24.16457 -2.44689,4.52745 -5.25736,8.84875 -7.88604,13.27313 -9.68722,14.2069 -20.10978,28.02496 -32.72776,39.79814 -4.17808,3.89835 -8.7459,7.35684 -13.11885,11.03527 -40.20512,34.58392 8.70394,91.44255 48.90906,56.85863 v 0 c 6.19157,-5.40905 12.6498,-10.52725 18.57471,-16.22713 16.61063,-15.97976 30.51986,-34.45472 43.13924,-53.66256 3.5704,-6.19807 7.37054,-12.26936 10.71118,-18.59422 5.34743,-10.12433 10.51456,-22.17752 14.54601,-32.94552 2.42461,-6.47613 3.78945,-11.71889 5.9189,-18.05162 0.50223,-1.49357 1.07234,-2.96345 1.60851,-4.44517 18.84527,-49.57173 -51.25974,-76.22296 -70.10501,-26.65123 z"/>
<path d="m 504.00032,275.06208 c -1.39735,4.85459 -5.83187,-5.46227 -7.41457,-3.27283 -0.62073,0.85868 1.38804,1.60254 2.12366,2.36509 6.64808,6.89149 13.62192,13.45405 20.32394,20.29424 7.61282,8.87625 3.91469,4.36333 11.09661,13.53692 32.89406,41.59905 91.724,-4.92018 58.82994,-46.51923 v 0 c -10.40731,-13.06873 -4.94679,-6.53444 -16.41879,-19.57165 -6.65177,-6.75879 -13.42838,-13.37458 -20.12311,-20.08899 -5.68595,-5.70267 -8.6728,-9.20226 -15.78808,-13.63228 -2.80964,-1.7493 -5.97339,-2.85224 -8.96008,-4.27835 -50.32273,-16.73688 -73.99225,54.4302 -23.66952,71.16708 z"/>
<path d="m 141.44635,423.97884 c 6.09269,15.64884 11.04388,31.69185 16.43202,47.58546 2.01147,5.93329 4.13321,11.82863 6.19981,17.74295 6.63641,18.85874 14.99043,37.03224 22.54057,55.52292 2.24287,5.4929 4.33729,11.04524 6.50593,16.56786 19.41808,49.35015 89.20974,21.88883 69.79166,-27.46132 v 0 c -2.4098,-6.11329 -4.74625,-12.256 -7.22941,-18.33986 -6.94511,-17.01581 -14.65925,-33.72678 -20.81755,-51.06067 -1.89847,-5.41716 -3.853,-10.815 -5.69542,-16.25148 -5.4408,-16.05426 -10.39424,-32.28004 -16.59234,-48.07082 -16.80436,-50.30023 -87.93963,-26.53527 -71.13527,23.76496 z"/>
<path d="m 306.40437,457.09838 c 21.78148,-6.22676 44.01161,-10.83584 66.12197,-15.73082 42.0988,-9.20858 84.71961,-16.06202 127.55125,-20.79659 9.74931,-1.07769 19.52072,-1.94514 29.28107,-2.91771 47.73548,-4.21947 95.65837,-6.60569 143.58766,-6.43357 8.4631,0.0304 16.9246,0.24115 25.3869,0.36173 35.51698,0.92802 70.99113,3.26845 106.32896,6.9244 11.82875,1.23125 23.57799,3.07794 35.35051,4.73706 2.76441,0.63741 -4.6384,-1.0661 -4.83644,-1.2264 -7.63746,-6.1818 -16.4419,-11.79455 -21.38781,-20.28475 -3.40783,-5.84991 -1.36199,-13.47271 -2.19157,-20.19182 -0.0165,-0.13397 -0.25455,-0.3459 -0.33034,-0.23421 -0.96389,1.42032 -1.69848,2.9834 -2.54771,4.47511 -1.86398,2.95828 -3.60786,5.99573 -5.59194,8.87484 -8.11756,11.77944 -13.36764,17.99696 -22.9189,29.39495 -10.96629,13.08662 -25.02968,29.20138 -36.10587,41.98491 -34.72609,40.0824 21.95898,89.19251 56.68507,49.11011 v 0 c 10.21938,-11.79666 27.43562,-31.54215 37.56713,-43.72409 13.38159,-16.08979 26.59525,-32.46021 36.79267,-50.82263 1.76447,-3.48723 8.94205,-16.57063 9.30162,-21.23695 0.64803,-8.40963 2.74149,-17.69991 -0.94534,-25.28603 -8.15886,-16.78787 -18.09929,-22.6704 -33.03294,-25.10038 -12.69234,-1.78549 -25.36047,-3.7673 -38.11547,-5.07416 -37.54885,-3.85992 -75.23748,-6.37309 -112.97667,-7.31268 -8.97798,-0.12244 -17.95516,-0.34 -26.93393,-0.36733 -50.25254,-0.15293 -100.49776,2.35268 -150.54511,6.80377 -10.30669,1.03326 -20.62516,1.95508 -30.92007,3.09976 -45.22168,5.02816 -90.21715,12.29122 -134.66762,22.01645 -16.57018,3.66999 -21.62085,4.73947 -37.5971,8.45417 -11.42763,2.65708 -22.93357,5.24222 -34.13539,8.76755 -2.01143,0.63302 -3.98335,1.38536 -5.97503,2.07804 -49.25513,19.65788 -21.45469,89.31515 27.80044,69.65727 z"/>
<path d="m 376.45171,492.79291 c -4.77219,15.55065 -5.85309,31.93163 -6.75973,48.07861 -0.70027,12.47156 -1.26063,31.16693 -1.67566,43.35299 -0.29636,8.73492 -0.60304,17.46949 -0.88908,26.20475 -1.00415,30.66437 -1.80094,61.31247 -1.82889,91.99627 -0.026,28.57027 0.22892,34.51654 0.77262,62.95073 1.58479,51.11544 3.25077,102.23129 5.498,153.32256 0.25486,5.47097 0.50971,10.94195 0.76457,16.41293 2.46817,52.97555 77.3869,49.48502 74.91873,-3.49052 v 0 c -0.25194,-5.40652 -0.50387,-10.81305 -0.75581,-16.21957 -2.22207,-50.47315 -3.86179,-100.97082 -5.43935,-151.46756 -0.59172,-30.58441 -0.97954,-61.14266 -0.5424,-91.73356 0.3117,-21.81255 0.8588,-37.52798 1.56939,-59.22811 0.286,-8.7338 0.59263,-17.46691 0.88894,-26.20037 0.7819,-23.05517 0.88789,-46.29461 4.25079,-69.15361 17.55431,-50.04345 -53.21781,-74.86898 -70.77212,-24.82554 z"/>
<path d="m 471.03936,541.92381 c 12.80961,-4.97015 26.4187,-7.22493 39.90591,-9.48119 21.43971,-3.4427 42.99186,-6.08676 64.55315,-8.62522 7.57753,-0.8326 15.15566,-1.73922 22.76938,-2.17625 -6.00078,0.46499 -11.89078,-1.65585 -17.06513,-4.5289 -1.1703,-0.6498 -2.20661,-1.51601 -3.30991,-2.27401 -3.44381,1.38701 -2.76958,-4.58286 -5.11487,-4.96661 -0.50811,-0.0831 0.21665,1.00676 0.33614,1.50756 0.36431,1.52688 0.7955,3.03844 1.1152,4.57528 2.04256,9.81908 1.97455,11.00946 3.50341,22.16731 5.12426,46.81302 5.2314,93.98628 5.64958,141.02078 0.20287,37.92086 0.31358,75.85169 -0.74755,113.76248 -0.62564,22.35233 -0.94313,26.20061 -2.05609,47.93125 -2.15245,26.04596 -2.79542,52.50001 -8.71227,78.06244 -0.38324,1.18099 -0.76647,2.36197 -1.14971,3.54295 -0.19385,0.27658 -0.6719,1.15518 -0.58154,0.82974 2.98062,-10.73523 13.19874,-13.61479 22.52269,-17.21409 1.54482,-0.59634 3.26769,-0.53904 4.90154,-0.80856 -18.65192,-8.72272 -35.9685,-19.88798 -53.34926,-30.84093 -44.88924,-28.23926 -84.82559,35.24372 -39.93634,63.48298 v 0 c 23.23364,14.59311 46.44241,29.7196 72.29416,39.36045 6.7735,1.22888 13.46131,4.27152 20.32048,3.68665 8.67146,-0.73941 17.2607,-3.55676 24.99316,-7.5505 4.86197,-2.51115 8.29402,-7.21688 11.77445,-11.43959 6.13399,-7.44219 8.82027,-17.71645 11.41967,-26.75804 0.70984,-3.26946 1.50681,-6.5212 2.12953,-9.80836 5.04004,-26.60474 6.20008,-53.79079 8.27605,-80.72426 1.15794,-22.78669 1.48733,-26.79349 2.13685,-50.17278 1.07406,-38.66042 0.97196,-77.34092 0.76119,-116.0115 -0.45143,-50.34369 -0.63012,-100.84185 -6.39544,-150.92309 -3.12228,-21.33018 -5.95011,-45.99522 -19.7251,-63.63739 -1.90217,-2.43618 -4.25881,-4.48056 -6.38821,-6.72083 -1.74514,-1.29219 -3.37835,-2.75115 -5.23542,-3.87656 -8.16612,-4.94881 -17.35524,-7.0595 -26.83419,-6.54073 -9.04968,0.55207 -18.06649,1.5236 -27.07214,2.55759 -22.83174,2.68824 -45.6522,5.50365 -68.35169,9.17131 -21.19495,3.64805 -42.68685,7.58243 -62.20753,17.01961 -46.9526,24.6567 -12.08275,91.05771 34.86985,66.40101 z"/>
<path d="m 423.03851,650.90179 c 17.75163,-0.86605 35.46208,-2.31853 53.21626,-3.16574 12.08051,-0.5673 24.17099,-0.50531 36.25686,-0.23984 53.02086,1.13491 54.62587,-73.84791 1.60501,-74.98283 v 0 c -13.82036,-0.28913 -27.64611,-0.34508 -41.45951,0.30901 -17.47789,0.84425 -34.91631,2.21455 -52.38828,3.13055 -52.99683,1.95845 -50.22718,76.90729 2.76966,74.94885 z"/>
<path d="m 442.08732,772.28833 c 1.1729,-0.35064 2.33583,-0.73651 3.51868,-1.05192 1.78823,-0.47685 3.64258,-0.66132 5.47364,-0.93029 8.48183,-1.2459 16.96762,-1.90277 25.51341,-2.56159 7.73532,-0.52508 15.28185,-1.16897 23.04125,-1.18215 4.03032,-0.007 8.05731,0.23195 12.08596,0.34793 53.01857,1.23777 54.76905,-73.7418 1.75049,-74.97957 v 0 c -5.50898,-0.1067 -11.01704,-0.3551 -16.52693,-0.32008 -8.94187,0.0568 -17.29978,0.7553 -26.19528,1.36193 -16.05497,1.26958 -32.40396,2.30845 -47.94538,6.83732 -51.24998,13.63597 -31.96582,86.11439 19.28416,72.47842 z"/>
</svg>
