<?xml version="1.0" ?>
<svg xmlns="http://www.w3.org/2000/svg" width="1000" height="1000">
<path d="m 158.62885,242.4282 c 13.40265,7.06805 26.74121,14.26044 39.59405,22.30023 4.15165,2.59696 8.21958,5.32541 12.32937,7.98811 15.09336,10.73377 7.81758,5.34453 21.85437,16.13118 42.11614,32.22934 87.69532,-27.33187 45.57917,-59.56122 v 0 c -17.14481,-13.07498 -8.24405,-6.53591 -26.73776,-19.5688 -4.80007,-3.09286 -9.55282,-6.26043 -14.40022,-9.27858 -15.09781,-9.40039 -30.74459,-17.8839 -46.5608,-26.0018 -48.07681,-22.38572 -79.73499,45.60516 -31.65818,67.99088 z"/>
<path d="m 96.898805,454.28584 c 28.017525,-3.47195 55.927465,-7.73352 83.834605,-11.98729 40.3478,-6.48509 80.61507,-13.45855 121.16478,-18.58441 10.7845,-0.90119 21.5546,-2.88525 32.40536,-2.98294 0.86401,-0.008 -1.90901,0.66964 -2.58857,0.136 -11.17922,-8.77877 -21.63826,-18.43782 -32.45739,-27.65673 3.01598,-11.43463 6.57177,-22.74035 9.04795,-34.30389 0.15005,-0.70071 -1.30899,0.59543 -1.91247,0.98185 -2.67585,1.7134 -5.30777,3.49571 -7.91546,5.31116 -9.43918,6.5715 -16.85863,12.02295 -25.99608,19.29938 -5.53055,4.40415 -10.92048,8.98205 -16.38072,13.47307 -34.56971,29.76645 -65.3537,63.60581 -94.18503,98.88129 -6.24808,7.64461 -12.29218,15.45369 -18.43827,23.18054 -25.3118,33.19362 -51.081789,66.43976 -71.101569,103.21162 -2.824743,5.18842 -5.336077,10.54143 -8.004116,15.81215 -1.990841,4.78726 -4.297827,9.45498 -5.972523,14.36179 -1.666263,4.8821 -3.381269,9.82441 -4.02895,14.9422 -2.132147,16.84762 -0.616094,31.46751 12.234163,45.20229 16.004087,17.10569 29.154117,15.26441 49.435235,17.46096 33.05447,-1.23963 64.64618,-11.53695 96.0865,-20.84445 50.8443,-15.07836 29.52028,-86.98306 -21.32402,-71.9047 v 0 c -23.55965,7.00012 -47.14204,14.7207 -71.62093,17.81497 -6.6018,4.01086 0.014,-1.09755 5.75477,10.33056 2.34483,4.66782 3.25473,9.99659 3.88291,15.18235 0.18225,1.50457 -0.0177,4.12455 -1.52495,4.28333 -1.39916,0.1474 0.14854,-2.83925 0.56716,-4.18243 0.96016,-3.08076 2.36268,-6.00581 3.54402,-9.00872 1.98648,-4.00471 3.8409,-8.0777 5.95945,-12.01415 18.07714,-33.58879 41.90281,-63.66982 64.82973,-93.98592 5.72634,-7.21282 11.35757,-14.50219 17.17903,-21.63845 25.89978,-31.74935 53.44554,-62.31457 84.42977,-89.21051 11.90953,-9.83987 23.78414,-19.54309 36.47087,-28.37312 1.17137,-0.81528 16.9436,-11.21296 17.41109,-12.11661 6.40376,-12.37839 9.74282,-26.11529 14.61422,-39.17294 -10.99586,-9.97705 -21.02575,-21.13541 -32.98757,-29.93115 -2.23946,-1.64672 -5.54752,-0.42027 -8.32709,-0.44827 -2.1063,-0.0212 -4.21013,0.16338 -6.31204,0.30081 -10.76608,0.70397 -21.48358,2.00258 -32.20132,3.20346 -41.1732,5.22747 -82.07578,12.217 -123.04047,18.84614 -27.05607,4.12489 -54.114,8.2652 -81.27579,11.64219 -52.671374,6.18274 -43.92766,80.67131 8.743715,74.48857 z"/>
<path d="m 267.07616,623.98538 c 13.5411,12.48754 23.79316,28.08811 34.39565,43.02414 5.26666,8.04731 9.76598,14.46092 14.18716,22.99487 1.92646,3.71853 3.48352,7.61708 5.22529,11.42563 22.61412,47.96979 90.45366,15.98859 67.83953,-31.9812 v 0 c -2.76826,-5.75828 -5.3116,-11.63021 -8.3048,-17.27484 -5.6979,-10.7452 -11.14214,-18.49187 -17.80584,-28.60103 -13.75601,-19.34876 -27.3852,-39.17516 -45.14858,-55.13943 -39.2811,-35.62998 -89.6695,19.92188 -50.38841,55.55186 z"/>
<path d="m 563.7134,69.550672 c -0.73088,1.099787 -1.39464,2.247261 -2.19263,3.299359 -0.61936,0.816565 -1.35894,1.534619 -2.04877,2.292584 -6.1211,6.725704 -6.86159,7.675181 -14.33443,14.541212 -10.76795,9.893563 -15.9388,13.941113 -27.53128,23.600703 -26.86584,21.60502 -54.99443,41.56287 -82.67856,62.09141 -42.59855,31.58898 2.07501,91.83243 44.67356,60.24345 v 0 c 28.83976,-21.38681 58.14844,-42.17342 86.07257,-64.76309 21.36253,-17.86744 43.76252,-35.67378 59.79835,-58.75155 30.09028,-43.670078 -31.66854,-86.224152 -61.75881,-42.554078 z"/>
<path d="m 382.05788,218.4657 c 6.673,18.21021 13.68936,36.30559 18.47634,55.13673 1.71243,6.73641 3.07745,13.5564 4.61618,20.3346 8.70043,45.14113 14.06303,90.91033 17.38007,136.74893 0.66262,9.15688 1.10731,18.32822 1.66096,27.49234 1.63244,26.84228 1.3303,53.71291 0.0845,80.55417 -2.4134,52.97806 72.5089,56.39113 74.9223,3.41306 v 0 c 1.32129,-29.49577 1.66253,-59.0231 -0.14496,-88.51724 -0.59525,-9.73895 -1.07606,-19.48557 -1.78574,-29.21684 -3.60124,-49.38092 -9.45069,-98.68552 -19.02421,-147.27982 -1.88655,-8.11962 -3.56672,-16.28998 -5.65966,-24.35886 -5.24547,-20.22277 -12.57746,-39.7557 -19.81904,-59.31814 -17.68549,-49.99724 -88.39226,-24.98616 -70.70676,25.01107 z"/>
<path d="m 551.0781,277.57164 c 23.31843,-6.91989 46.87893,-12.89426 70.59308,-18.28286 25.96994,-5.42675 52.23546,-9.47056 78.70164,-11.44334 14.45252,-1.07729 20.52294,-1.09337 34.71313,-1.49267 18.27642,-0.26097 36.60989,0.4851 54.66031,3.47846 2.44293,0.49635 4.92229,0.82943 7.33093,1.48408 0.28616,0.0778 1.15327,0.22769 0.85694,0.23897 -0.32273,0.0123 -0.63753,-0.12195 -0.93976,-0.23582 -1.52038,-0.57278 -3.01396,-1.21429 -4.52094,-1.82144 -12.20311,-9.50063 -9.45874,-5.35226 -16.45884,-17.73628 -0.44833,-0.79314 -0.55971,-3.35066 -0.99007,-2.54762 -0.59131,1.10337 0.2483,2.49143 0.35159,3.73899 0.74425,8.98917 0.60243,7.92666 1.14319,18.134 0.91818,21.33379 -0.0605,42.70248 -2.3871,63.91986 -1.81854,16.58408 -3.40057,25.61777 -5.96383,42.2925 -4.87187,30.37689 -10.40247,60.67742 -18.30797,90.42973 -4.43115,16.67658 -7.45539,25.91683 -12.51591,42.32222 -8.459,27.56066 -4.36038,13.59176 -12.27487,41.91284 -14.24475,51.08412 57.9991,71.22925 72.24385,20.14513 v 0 c 7.35518,-26.4399 3.46059,-13.10916 11.70927,-39.98474 5.6064,-18.234 8.73484,-27.77557 13.64754,-46.40322 8.42624,-31.94998 14.42544,-64.46039 19.63411,-97.07073 2.85913,-18.74153 4.53058,-28.25404 6.53311,-47.00159 2.64611,-24.7727 3.67983,-49.71914 2.57213,-74.6165 -0.48254,-8.7538 -0.66086,-14.01056 -1.50598,-22.48461 -1.11144,-11.14458 -2.92196,-22.21063 -10.3981,-31.26121 -3.3996,-4.11555 -8.19732,-6.83988 -12.29598,-10.25982 -2.17322,-0.95531 -4.31126,-1.99505 -6.51968,-2.86593 -6.05292,-2.38698 -12.704,-2.99705 -19.00565,-4.37261 -22.73814,-3.59829 -45.76058,-4.8929 -68.77746,-4.403 -16.21265,0.48459 -22.92335,0.50641 -39.4825,1.78358 -29.7305,2.29306 -59.24277,6.83772 -88.41087,12.99404 -24.50629,5.59496 -48.88737,11.68262 -72.98224,18.86847 -51.29432,13.46821 -32.24739,86.00933 19.04693,72.54112 z"/>
<path d="m 583.35785,260.45668 c 0,23.72698 0,47.45396 0,71.18094 0,45.75432 0,91.50863 0,137.26295 0,13.44806 0,26.89612 0,40.34419 0,53.03301 75,53.03301 75,0 v 0 c 0,-13.44807 0,-26.89613 0,-40.34419 0,-45.75432 0,-91.50863 0,-137.26295 0,-23.72698 0,-47.45396 0,-71.18094 0,-53.03301 -75,-53.03301 -75,0 z"/>
<path d="m 484.67676,422.44515 c 23.13524,-7.85621 47.4857,-11.48065 71.50426,-15.50356 37.91041,-5.92079 76.01344,-11.30204 114.42414,-12.34339 6.26581,-0.16988 12.5361,-0.0542 18.80415,-0.0812 15.03109,0.11699 29.98165,1.60829 44.91242,3.16789 52.75233,5.449 60.45839,-69.15406 7.70606,-74.60306 v 0 c -17.64499,-1.80501 -35.31509,-3.50218 -53.07574,-3.56343 -7.32301,0.0558 -14.64894,-0.0468 -21.96903,0.16735 -41.3585,1.20979 -82.40306,6.87161 -123.22429,13.29179 -29.6046,4.98467 -59.63996,9.62597 -87.87324,20.21404 -48.9697,20.3585 -20.17843,89.61211 28.79127,69.25361 z"/>
<path d="m 466.24444,568.45175 c 21.39639,-0.95059 42.70126,-3.59066 63.9909,-5.85335 39.23579,-4.55161 78.35258,-10.30569 117.79048,-12.91441 7.46379,-0.49371 14.94161,-0.74562 22.41241,-1.11843 19.14694,-0.52304 38.32544,-0.2041 57.40453,1.57405 4.47782,0.41733 8.93216,1.05672 13.39824,1.58508 52.68252,6.08706 61.29091,-68.41728 8.6084,-74.50433 v 0 c -5.56852,-0.63106 -11.12357,-1.39505 -16.70555,-1.89317 -22.10812,-1.97287 -44.32441,-2.33866 -66.5031,-1.66543 -8.23957,0.42367 -16.48671,0.71956 -24.71872,1.27102 -40.04468,2.6826 -79.77903,8.40016 -119.61461,13.08581 -18.6661,1.98461 -37.33318,4.15302 -56.06298,5.43316 -53.03301,0 -53.03301,75 0,75 z"/>
<path d="m 541.94164,565.17453 c 0.0208,-0.47942 0.53756,-1.50494 0.0623,-1.43827 -0.65656,0.0921 -0.83969,1.03123 -1.18689,1.59604 -1.46474,2.3828 -2.75093,4.87344 -4.24393,7.23864 -9.80967,15.54037 -21.20308,29.91452 -32.40504,44.45461 -39.78807,49.04782 -83.26453,94.96241 -127.07672,140.39892 -19.78335,20.13584 -40.22045,39.61028 -60.53053,59.20933 -38.16191,36.8262 13.91819,90.79529 52.0801,53.9691 v 0 c 20.95932,-20.22587 42.04478,-40.32835 62.44447,-61.1242 45.73349,-47.44623 91.10695,-95.40449 132.52328,-146.7168 10.46698,-13.61906 18.63087,-23.84575 28.293,-37.8685 8.24187,-11.9615 16.51481,-24.76166 21.59279,-38.48329 1.06474,-2.87709 1.61481,-5.91926 2.42221,-8.87889 8.7375,-52.30828 -65.23758,-64.66497 -73.97508,-12.35669 z"/>
<path d="m 541.66296,691.57982 c 0,16.86398 0,33.72796 0,50.59194 0.0654,23.00273 -0.23292,46.00747 0.35418,69.00471 0.63121,14.55543 2.11555,29.33613 7.49746,43.01857 4.14389,10.53503 5.86106,12.10855 12.00208,21.45963 11.862,15.91077 27.11241,26.64116 44.88275,35.11718 3.62839,1.73065 7.35848,3.23951 11.03772,4.85927 17.753,7.01838 36.17573,12.2931 54.84244,16.25376 13.28967,2.81977 19.95185,3.70346 33.40755,5.84801 23.47043,3.32305 47.03576,6.06591 70.68521,7.74238 14.19922,1.00656 20.90078,1.18923 34.96748,1.77874 25.04849,0.67183 50.13388,0.22296 75.14931,-1.20749 22.36913,-1.91765 39.86584,-7.75255 51.11546,-29.50172 2.60717,-5.0405 3.25259,-10.87366 4.87888,-16.31049 0.36201,-4.95572 0.96026,-9.89982 1.08604,-14.86715 0.12664,-5.00146 -0.14321,-10.00597 -0.32964,-15.00556 -0.61613,-16.52315 -1.24948,-18.22325 -1.55913,-35.22839 -0.34491,-18.94154 0.12946,-25.9616 0.73199,-45.43972 1.59738,-53.00895 -73.36859,-55.26799 -74.96597,-2.25904 v 0 c -0.2614,8.88875 -0.65916,17.77454 -0.78418,26.66626 -0.11202,7.96722 -0.0778,15.93734 0.0731,23.90392 0.24756,13.06731 0.94531,21.75867 1.53348,34.45448 0.15136,3.26715 0.18518,6.53946 0.36451,9.8052 0.0566,1.03101 0.22864,2.05244 0.34296,3.07865 3.14437,-5.22748 3.70252,-6.83528 9.74473,-11.52099 1.40349,-1.0884 6.29893,-3.7714 9.17239,-3.64772 1.94856,0.0839 -15.71085,3.15907 -5.76517,0.99914 -22.52283,1.34104 -45.11833,1.66511 -67.67269,1.14538 -12.58644,-0.51898 -19.30876,-0.70801 -31.95468,-1.59266 -21.77421,-1.52321 -43.46917,-4.04578 -65.08177,-7.06988 -23.81377,-3.74435 -47.57599,-8.03552 -70.13991,-16.8323 -8.60302,-3.6427 -17.9349,-7.05292 -24.31922,-14.17709 -0.50741,-0.48557 -2.03028,-1.86149 -2.41612,-2.5306 -3.407,-5.90838 -2.86078,-14.43364 -3.55275,-20.90062 -0.60042,-22.34266 -0.22781,-44.69561 -0.32854,-67.04386 0,-16.86398 0,-33.72796 0,-50.59194 0,-53.03301 -75,-53.03301 -75,0 z"/>
<path d="m 689.78879,607.27403 c -4.02144,11.83695 -7.49091,23.86909 -11.562,35.6898 -1.55652,4.51945 -3.26994,8.98333 -4.9049,13.475 -9.98301,24.08824 -20.35948,48.1197 -32.75518,71.08771 -1.96651,3.64374 -4.06673,7.2137 -6.10009,10.82055 -6.52642,11.21999 -13.96161,21.87312 -22.073,31.99511 -9.38672,14.877 -17.58841,24.51784 -0.81437,48.69429 7.15529,10.31293 22.66282,11.14406 34.76848,14.46183 3.54966,0.97285 7.26417,-1.20363 10.86732,-1.95455 6.63905,-1.38362 13.18077,-3.19891 19.77196,-4.79504 21.72635,-5.09608 43.68129,-9.67564 65.94738,-11.63636 4.20238,-0.37005 8.42065,-0.52936 12.63098,-0.79404 4.83709,-0.0927 9.67419,-0.18533 14.51128,-0.278 53.02051,-1.15138 51.39221,-76.1337 -1.6283,-74.98232 v 0 c -5.9483,0.14155 -11.89659,0.28309 -17.84489,0.42464 -5.40749,0.37302 -10.82501,0.62162 -16.22248,1.11906 -25.32692,2.33418 -50.32337,7.42969 -75.04637,13.25399 -3.64012,0.88154 -7.28135,1.75852 -10.92036,2.64463 -2.4338,0.59264 -4.90447,1.05316 -7.29807,1.79164 -0.15046,0.0464 0.1544,0.298 0.29495,0.36899 9.87992,4.98997 24.06779,5.28239 29.7278,14.79434 14.67906,24.66897 8.90213,30.9752 -0.18714,43.74777 10.6484,-13.3212 20.37919,-27.36175 28.91251,-42.1389 2.43766,-4.3566 4.95178,-8.67128 7.31298,-13.06979 13.88044,-25.85694 25.60562,-52.85512 36.6612,-80.01324 1.91629,-5.31256 3.9119,-10.59717 5.74887,-15.93768 2.36784,-6.88383 4.93318,-15.49851 7.24139,-22.57149 2.48815,-7.62436 2.62107,-7.43488 4.72182,-14.39576 0.35713,-1.18334 0.65957,-2.38251 0.98935,-3.57377 12.88944,-51.44281 -59.86168,-69.67122 -72.75112,-18.22841 z"/>
<path d="m 763.39845,752.70336 c 6.53481,9.19451 11.54143,19.31934 15.33542,29.93412 1.17754,3.29453 2.11839,6.66892 3.17758,10.00339 3.39751,14.21254 1.90262,6.86046 4.39966,22.07336 9.02909,52.25874 82.93411,39.48967 73.90501,-12.76907 v 0 c -3.99374,-22.34821 -1.61819,-11.4612 -7.04044,-32.67969 -1.68586,-5.03434 -3.19231,-10.13235 -5.05757,-15.103 -7.64166,-20.36397 -18.15251,-39.97214 -33.12433,-55.89183 -38.48974,-36.48342 -90.08508,17.94931 -51.59533,54.43272 z"/>
</svg>
