<?xml version="1.0" ?>
<svg xmlns="http://www.w3.org/2000/svg" viewBox="0 0 1000 1000">
<path d="m 372.26441,47.453783 c -13.22318,19.304655 -29.84808,36.015938 -46.19561,52.645067 -18.87633,17.80388 -9.08129,8.95733 -29.42612,26.49416 -40.10721,34.69743 8.96237,91.41759 49.06958,56.72015 v 0 c 23.49752,-20.39172 12.22265,-10.14536 33.88079,-30.67713 19.77414,-20.17346 39.69021,-40.57746 55.4501,-64.147767 29.01576,-44.391279 -33.76299,-85.4257597 -62.77874,-41.03448 z"/>
<path d="m 242.23852,184.84131 c -0.88481,-1.24873 -1.68178,-2.56459 -2.65441,-3.74619 -0.10422,-0.12661 -0.0627,0.33178 -0.0248,0.49133 0.31479,1.325 0.74464,2.62041 1.07782,3.94091 0.66078,2.61896 1.32709,5.23754 1.90376,7.8763 2.45104,11.21565 2.76237,14.1447 4.78027,26.25265 7.60069,48.48707 6.07411,97.69162 4.43838,146.5492 -2.26824,52.809 -5.97183,105.53961 -8.56899,158.33153 -0.87561,16.74309 -1.33244,33.51571 -2.54503,50.241 -0.47973,6.617 -1.11008,13.58003 -2.21602,20.15599 -0.33854,2.01298 -0.8522,3.99255 -1.2783,5.98883 -0.37598,1.21713 -0.75196,2.43427 -1.12794,3.6514 -14.25468,51.08135 57.98525,71.24052 72.23994,20.15917 v 0 c 0.811,-3.03636 1.62199,-6.07273 2.43299,-9.1091 0.69317,-3.60291 1.50219,-7.18545 2.07949,-10.80873 4.03275,-25.3103 3.682,-51.08825 5.32442,-76.59618 2.61254,-53.18873 6.36666,-106.31455 8.61803,-159.52202 1.77828,-53.85708 3.14755,-108.07259 -5.43692,-161.48742 -2.4803,-14.61873 -4.86534,-29.22146 -8.89253,-43.51643 -1.42633,-5.06291 -3.72246,-12.28329 -6.21502,-17.10686 -1.40741,-2.72362 -3.18922,-5.23684 -4.78383,-7.85526 -32.60461,-41.826303 -91.75593,4.28358 -59.15131,46.10988 z"/>
<path d="m 309.62667,226.52422 c 19.92543,-2.33959 39.53544,-6.53631 59.12869,-10.7494 28.71312,-6.42932 57.32152,-13.32331 86.23474,-18.82101 18.62573,-3.54159 22.56685,-4.03929 40.8878,-6.96855 24.73304,-3.64497 49.62522,-6.40743 74.61823,-7.30178 2.4467,9e-5 4.30861,-0.0891 6.64103,0.14425 0.20731,0.0207 0.8107,0.10456 0.60708,0.14869 -2.11936,0.45936 -6.71125,-1.8747 -7.85284,-2.30734 -6.00857,-3.9731 -6.71042,-3.70337 -10.92827,-8.91288 -0.92831,-1.14656 -1.58138,-2.49143 -2.40885,-3.71277 -0.12841,-0.18953 -0.42977,-0.74192 -0.45508,-0.51439 -0.0776,0.69791 0.20865,1.38937 0.2801,2.08794 0.13853,1.35443 0.23312,2.713 0.34969,4.0695 0.0897,2.27136 0.23862,4.54115 0.26902,6.81408 0.10653,7.96533 -0.1527,14.0174 -0.49728,22.13347 -0.68299,16.08682 -1.67191,32.14122 -2.81494,48.20089 -2.47445,29.51619 -8.34043,58.58161 -16.11642,87.11906 -2.79624,9.71227 -6.20532,19.22407 -10.46624,28.38579 -21.93114,48.28587 46.35538,79.30119 68.28653,31.01533 v 0 c 5.78484,-12.912 10.79919,-26.13683 14.57121,-39.7932 1.24949,-4.63632 2.5741,-9.25304 3.74846,-13.90896 7.243,-28.71592 12.16568,-58.01773 14.78868,-87.51402 1.19844,-16.96576 2.27376,-33.9278 2.95828,-50.92364 0.40033,-9.93962 0.73357,-18.68725 0.4411,-28.59843 -0.11644,-3.94561 -0.46485,-7.88096 -0.69728,-11.82143 -1.21862,-9.19449 -2.29755,-18.49439 -6.05978,-27.09922 -2.77974,-6.3577 -6.12948,-11.99796 -11.28681,-16.75878 -2.79541,-2.58051 -6.14338,-4.48913 -9.21507,-6.73369 -2.58647,-1.117 -5.11371,-2.38259 -7.75941,-3.35101 -9.25962,-3.38936 -19.46763,-3.11585 -29.15021,-3.11817 -28.0393,1.06129 -55.97455,4.03344 -83.719,8.19567 -19.57467,3.14385 -23.87553,3.6931 -43.73143,7.48064 -29.27032,5.58335 -58.24766,12.50624 -87.31248,19.04484 -18.43944,3.97742 -36.88887,7.88558 -55.64259,10.08455 -52.31457,8.69978 -40.01122,82.68375 12.30334,73.98397 z"/>
<path d="m 332.88002,336.14235 c 13.91714,-4.57536 28.28904,-7.35698 42.70581,-9.78517 24.49315,-3.51806 49.17204,-5.40445 73.87197,-6.65196 10.36559,-0.47834 20.73953,-0.71292 31.11409,-0.87251 53.02663,-0.82255 51.86337,-75.81353 -1.16326,-74.99097 v 0 c -11.25613,0.17595 -22.51155,0.43424 -33.75768,0.96015 -27.6419,1.41288 -55.26397,3.55252 -82.65775,7.62002 -17.77203,3.05441 -35.48352,6.56275 -52.65212,12.18726 -50.5816,15.93743 -28.04266,87.47061 22.53894,71.53318 z"/>
<path d="m 319.68416,448.19678 c 14.82656,-0.87287 29.39226,-4.27678 43.95243,-7.0358 26.25919,-4.986 52.8686,-7.70697 79.48853,-9.83898 24.74158,-1.85591 49.54789,-2.82177 74.35607,-3.06782 6.29741,-0.12063 12.57216,0.28944 18.83222,0.90658 52.7915,5.05543 59.94096,-69.60303 7.14946,-74.65846 v 0 c -8.89612,-0.83528 -17.81487,-1.38641 -26.75743,-1.24411 -26.55818,0.28481 -53.11428,1.29484 -79.60044,3.30581 -29.28245,2.36977 -58.54813,5.40352 -87.43181,10.90829 -5.5079,1.0437 -13.65983,2.59094 -19.34314,3.65927 -2.06377,0.38794 -4.12461,0.79212 -6.19258,1.157 -1.33203,0.23504 -2.66868,0.44393 -4.00662,0.64261 -0.69038,0.10253 -1.47762,-0.0958 -2.07753,0.2609 -0.46726,0.27783 1.08723,0.003 1.63084,0.005 -53.03301,0 -53.03301,75 0,75 z"/>
<path d="m 319.99587,568.45175 c 1.97177,-0.12145 3.9492,-0.1719 5.91531,-0.36436 9.1464,-0.8953 18.2203,-2.78428 27.23487,-4.49766 24.76886,-4.70778 2.04412,-0.52841 28.99845,-5.41439 29.5232,-5.02964 58.99911,-10.45173 88.75858,-13.93976 21.65587,-2.53823 34.7982,-3.40859 56.70666,-5.19626 49.37446,-3.52816 98.99657,-4.55735 148.45594,-2.17801 9.03417,0.43461 18.05271,1.14901 27.07906,1.72351 28.31904,2.301 56.59599,5.4565 84.55165,10.59747 12.0903,2.22337 16.47531,3.30353 28.10365,5.89147 12.41346,2.84409 24.69132,6.22424 36.99203,9.50945 51.23742,13.68309 70.58823,-58.77756 19.35082,-72.46065 v 0 c -13.33286,-3.56027 -26.64468,-7.20976 -40.10494,-10.26991 -13.15731,-2.90865 -18.08539,-4.11697 -31.76541,-6.60844 -30.55987,-5.56573 -61.4569,-9.04735 -92.41025,-11.51087 -9.77391,-0.6104 -19.53968,-1.36924 -29.32172,-1.83118 -52.32595,-2.47103 -104.81823,-1.37078 -157.05126,2.3873 -23.93202,1.96592 -36.80941,2.80405 -60.53217,5.60852 -30.90958,3.65408 -61.53565,9.23699 -92.20079,14.48199 -13.09891,2.37835 -26.1592,4.9447 -39.2552,7.33497 -3.27596,0.59792 -6.58941,0.98541 -9.85559,1.63463 -0.11931,0.0237 0.23354,0.0681 0.35031,0.10218 -53.03301,0 -53.03301,75 0,75 z"/>
<path d="m 264.35315,684.97351 c 15.26845,-2.46024 30.58632,-4.59899 45.88108,-6.88966 35.05646,-5.82097 70.30992,-10.20153 105.64065,-13.94607 35.36238,-3.48473 70.84966,-6.04413 106.39034,-6.58499 7.00725,-0.10663 14.01606,-0.0436 21.02409,-0.0654 36.8594,0.52859 73.66782,2.95651 110.41982,5.69801 21.9811,1.45583 43.87771,3.76968 65.70534,6.70326 7.2108,0.79176 14.33537,2.12783 21.47005,3.40081 0.6332,0.10481 1.26739,0.20384 1.8996,0.31442 0.21486,0.0376 -0.44445,-0.0154 -0.64737,-0.0954 -4.14335,-1.63361 -8.75685,-2.44138 -12.37473,-5.03887 -4.45707,-3.2 -7.87881,-7.67855 -11.30627,-11.96317 -2.70496,-3.38143 -2.14848,-7.2711 -2.46294,-4.48628 1.01193,11.77099 1.0507,23.62359 -0.066,35.39008 -0.37486,3.94968 -0.92676,7.88056 -1.39013,11.82085 -3.75034,24.47768 -10.44014,48.49959 -18.82017,71.78547 -1.69299,4.70438 -3.58617,9.33429 -5.37925,14.00144 -6.63413,16.3728 -14.31942,32.35474 -23.65492,47.3702 -4.55263,7.32257 -7.23287,10.91096 -12.17367,17.91616 -7.87443,11.10673 -16.8433,21.33756 -27.05623,30.32933 -1.1199,0.88874 -3.21811,2.61213 -4.51139,3.44483 -0.0704,0.0453 -0.32083,0.0436 -0.25128,-0.003 3.18648,-2.13987 6.5978,-3.25748 10.30011,-4.1703 -13.46416,-3.43836 -26.98667,-6.6233 -40.70607,-8.89428 -6.79265,-1.12439 -13.6298,-1.96117 -20.44471,-2.94175 -52.50648,-7.45444 -63.04865,66.80095 -10.54216,74.25539 v 0 c 14.30734,1.99841 17.91302,2.23868 31.51091,5.07397 3.1444,0.65564 21.31668,5.07135 24.82785,5.73788 3.68727,0.69995 7.42519,1.10012 11.13779,1.65018 4.05944,-0.006 8.14555,0.4472 12.17833,-0.0173 14.78417,-1.70307 25.54018,-8.74434 36.39123,-18.13611 4.83392,-4.33788 6.56082,-5.76615 11.27616,-10.54025 9.98927,-10.11377 18.94386,-21.19466 27.2755,-32.69836 6.50857,-9.3075 9.44422,-13.22157 15.47867,-23.05799 11.41315,-18.60394 20.90439,-38.32673 29.03091,-58.56754 2.13854,-5.63074 4.39142,-11.21937 6.41563,-16.89222 10.0866,-28.2676 17.97044,-57.44655 22.23686,-87.17476 0.57283,-5.17552 1.26936,-10.33883 1.7185,-15.52655 1.48928,-17.20205 1.32051,-34.57806 -0.68075,-51.72853 -1.0698,-5.97014 -2.05914,-13.90581 -5.3462,-19.01602 -8.07424,-12.55256 -15.8958,-19.78522 -30.70809,-21.97854 -8.18857,-1.45645 -16.37146,-2.95331 -24.64098,-3.89603 -23.29352,-3.12732 -46.66131,-5.5967 -70.11671,-7.1635 -38.69642,-2.88071 -77.45322,-5.42304 -116.2642,-5.9049 -7.60229,0.031 -15.20548,-0.0283 -22.80686,0.093 -37.49836,0.59829 -74.94091,3.28604 -112.251,6.97562 -36.39736,3.86705 -72.71896,8.36637 -108.83617,14.35475 -14.88843,2.23033 -29.80334,4.29243 -44.66153,6.71721 -52.56986,6.99357 -42.67946,81.33858 9.8904,74.34501 z"/>
<path d="m 119.02181,797.55428 c 1.21836,1.82701 2.39431,3.68303 3.65509,5.48104 0.80022,1.1412 1.70604,2.20512 2.52525,3.33276 1.83289,2.52296 3.65267,5.41666 5.35778,7.96854 5.14904,7.70606 5.05853,7.49746 10.60727,15.4993 11.71921,16.26657 23.85075,32.23982 36.2452,47.99761 5.77199,6.80936 11.2194,14.06847 17.91662,20.03407 1.3942,1.2419 2.86725,2.39236 4.30087,3.58854 2.90523,1.696 5.81045,3.39201 8.71568,5.08801 48.31162,21.87436 79.24662,-46.44859 30.935,-68.32295 v 0 c 2.1354,1.34745 4.27081,2.6949 6.40621,4.04235 0.4774,0.45215 0.96838,0.89037 1.43219,1.35646 0.19475,0.19571 -0.42772,-0.35051 -0.6242,-0.5445 -0.54661,-0.53967 -1.07721,-1.09552 -1.60355,-1.65498 -3.00035,-3.18921 -5.77926,-6.57428 -8.54111,-9.9696 -11.47356,-14.57073 -22.68305,-29.35629 -33.56541,-44.37345 -6.01218,-8.65699 -11.6878,-17.56338 -17.87428,-26.09578 -0.54603,-0.75307 -0.78968,-2.43616 -1.69385,-2.21769 -0.86266,0.20844 0.88835,1.53667 1.33252,2.305 -25.79898,-46.33479 -91.326265,-9.84952 -65.52728,36.48527 z"/>
<path d="m 280.28534,803.01583 c 6.03538,4.41869 11.48143,9.45587 16.45474,15.02741 3.02547,3.42502 5.61963,7.16434 7.83573,11.14891 -0.0107,0.003 -0.0213,0.005 -0.032,0.008 24.13133,47.22477 90.91724,13.09792 66.78591,-34.12686 v 0 c -0.47781,-0.91166 -0.95562,-1.82333 -1.43344,-2.73499 -5.06491,-8.91956 -10.98844,-17.31118 -17.85019,-24.95276 -1.8333,-1.97548 -3.61503,-4.0001 -5.4999,-5.92643 -7.25536,-7.41495 -15.27416,-14.02736 -23.63453,-20.15182 -43.63483,-30.14135 -86.26114,31.56763 -42.6263,61.70898 z"/>
<path d="m 406.38131,770.97804 c 5.55628,7.52293 10.58948,15.40976 15.33708,23.46198 3.28331,5.62921 6.5592,11.26467 9.41529,17.125 -0.0121,0.024 -0.0242,0.048 -0.0363,0.072 -0.0916,-0.17847 -0.18326,-0.35694 -0.27489,-0.5354 17.23831,50.15317 88.1656,25.77453 70.9273,-24.37865 v 0 c -2.03372,-5.56714 -0.93789,-2.8399 -3.27953,-8.18493 -3.75058,-7.61711 -7.9094,-15.0155 -12.22567,-22.32584 -5.88145,-9.89253 -12.04749,-19.62175 -18.87961,-28.89179 -30.87062,-43.12197 -91.8543,0.53567 -60.98368,43.65765 z"/>
<path d="m 544.64103,746.75982 c 6.31375,12.33497 12.64642,24.64979 17.97974,37.44608 0.70242,2.34889 1.40484,4.69777 2.10726,7.04665 16.20991,50.49494 87.62054,27.57066 71.41062,-22.92428 v 0 c -1.47298,-4.42763 -2.94596,-8.85526 -4.41894,-13.28289 -1.41867,-3.33249 -2.77473,-6.69233 -4.25603,-9.99747 -4.85156,-10.82504 -10.4972,-21.26997 -15.77056,-31.88894 -23.75939,-47.41298 -90.81148,-13.81214 -67.05209,33.60085 z"/>
</svg>
