<?xml version="1.0" ?>
<svg xmlns="http://www.w3.org/2000/svg" viewBox="0 0 1000 1000">
<path d="m 119.80124,262.84786 c 28.35418,-6.63933 57.23223,-10.94853 85.97795,-15.51823 39.39138,-5.65089 78.80062,-11.37741 118.40403,-15.36729 23.06879,-2.32408 30.39798,-2.67833 52.93939,-4.26327 16.48723,-0.59083 22.94269,-1.17723 38.87998,-0.49803 5.46427,0.23286 10.9094,0.79696 16.36409,1.19544 52.90611,3.66658 58.09143,-71.15396 5.18533,-74.82054 v 0 c -6.88189,-0.45648 -13.75354,-1.11015 -20.64567,-1.36946 -18.55152,-0.69798 -26.16685,-0.0344 -45.06493,0.67876 -23.98853,1.69971 -31.40465,2.05439 -55.96428,4.53846 -40.76494,4.12315 -81.33386,9.99947 -121.87947,15.83707 -21.63491,3.44322 -27.08973,4.213 -47.74768,7.84653 -14.22357,2.50178 -28.4974,5.03093 -42.54438,8.41782 -1.81727,0.43817 -3.6075,0.98169 -5.411257,1.47253 -50.805775,15.20767 -29.298883,87.05788 21.506897,71.85021 z"/>
<path d="m 252.40445,124.21232 c 0.23048,26.28843 0.71129,52.57535 1.05325,78.86295 0.5196,49.0945 0.30884,98.18979 -0.16292,147.28318 -0.50945,53.03056 74.48709,53.75103 74.99654,0.72047 v 0 c 0.4769,-49.65882 0.68765,-99.31961 0.16003,-148.97951 -0.33794,-25.96233 -0.80806,-51.92409 -1.0469,-77.88709 0,-53.033005 -75,-53.033005 -75,0 z"/>
<path d="m 173.83858,408.45003 c 24.87624,-2.50701 49.79839,-4.56834 74.69853,-6.83211 35.13246,-3.10825 70.29128,-6.7762 105.59604,-7.07148 5.24531,-0.0439 10.49026,0.12311 15.73539,0.18466 4.29238,0.20441 8.58476,0.40882 12.87714,0.61324 52.97753,2.42516 56.40724,-72.49637 3.42971,-74.92154 v 0 c -5.1814,-0.22928 -10.3628,-0.45855 -15.5442,-0.68782 -6.15135,-0.0543 -12.30276,-0.22386 -18.45405,-0.16303 -36.91863,0.36513 -73.69205,4.0618 -110.43084,7.35403 -26.43285,2.40331 -52.90639,4.47781 -79.28718,7.39236 -52.41902,8.04649 -41.03957,82.17818 11.37946,74.13169 z"/>
<path d="m 128.12251,473.43768 c 2.30488,23.09904 8.04052,45.69341 13.21384,68.27287 7.05592,28.97421 11.28345,58.50661 15.48772,87.99542 7.48625,52.50196 81.73523,41.91481 74.24899,-10.58716 v 0 c -4.50047,-31.55843 -9.10653,-63.14778 -16.63139,-94.15974 -4.26939,-18.62997 -8.9671,-37.23692 -11.46587,-56.21018 -3.31547,-52.92927 -78.16877,-48.24048 -74.85329,4.68879 z"/>
<path d="m 199.59079,518.44224 c 0.77252,-0.46962 1.51161,-0.99926 2.31757,-1.40885 0.73846,-0.37529 1.53349,-0.62697 2.3011,-0.93836 2.13814,-0.86738 4.25666,-1.78508 6.41612,-2.59794 7.26844,-2.73594 13.36668,-4.76959 20.93584,-6.86701 4.3171,-1.19627 8.68583,-2.19776 13.02875,-3.29663 29.23774,-6.74195 59.22923,-8.50385 89.1262,-9.14888 17.12183,-0.18165 34.2071,1.10421 51.09745,3.85878 3.96498,0.70611 2.59919,0.45256 6.07778,1.10568 0.69947,0.13133 2.7771,0.62003 2.09158,0.42879 -8.00525,-2.23317 -3.43332,-0.78458 -15.10177,-7.8489 -18.74781,10.16329 -4.15549,-13.75585 -10.06172,-15.61776 -1.06574,-0.33597 0.0386,2.23457 0.0495,3.35196 0.0257,2.63389 0.0989,5.26809 0.0603,7.90183 -0.15439,10.54306 -0.48726,13.25512 -1.21142,24.30835 -1.99123,30.06442 -9.13607,59.35906 -16.99114,88.33349 -13.8507,51.19237 58.54624,70.78021 72.39694,19.58785 v 0 c 9.13542,-33.82573 17.18802,-68.06781 19.44247,-103.15298 0.86636,-13.92843 1.80829,-27.84363 1.14719,-41.80797 -0.28665,-6.05483 -1.06381,-16.75198 -3.61607,-22.20198 -2.6115,-5.57653 -6.68354,-10.34412 -10.02531,-15.51617 -4.2733,-2.78158 -8.33851,-5.91259 -12.8199,-8.34474 -5.04695,-2.7391 -13.83137,-3.24471 -19.49962,-4.57111 -21.40108,-3.42126 -43.03749,-5.09591 -64.72342,-4.79614 -35.60868,0.83013 -71.30503,3.18829 -106.06963,11.48073 -22.64774,5.86909 -45.78831,12.03523 -66.05489,24.11824 -45.00008,28.0623 -5.31399,91.70202 39.68609,63.63972 z"/>
<path d="m 214.40226,635.71371 c 24.34809,-2.24459 48.77477,-3.61526 73.16702,-5.31907 25.32345,-1.80757 50.7009,-2.35032 76.07891,-2.51902 53.03173,-0.36814 52.51111,-75.36633 -0.52062,-74.9982 v 0 c -26.94766,0.19446 -53.89483,0.77726 -80.78435,2.69952 -25.13316,1.75557 -50.30142,3.16861 -75.38715,5.50732 -52.77099,5.26526 -45.3248,79.89471 7.44619,74.62945 z"/>
<path d="m 172.75624,732.51821 c 4.50122,11.97336 9.97196,23.54433 15.02314,35.28735 5.04739,11.7342 4.87022,11.528 9.48739,23.1812 4.99488,13.34799 2.67501,6.92932 6.9947,19.24329 17.59705,50.02843 88.34793,25.14245 70.75088,-24.88598 v 0 c -5.00942,-14.20898 -2.34072,-6.8606 -8.03875,-22.03326 -5.19667,-13.0649 -4.93762,-12.67578 -10.51333,-25.63721 -4.57036,-10.62438 -9.54006,-21.08453 -13.63741,-31.90736 -18.91651,-49.54459 -88.98313,-22.79261 -70.06662,26.75197 z"/>
<path d="m 295.42558,674.89623 c 1.96453,10.60113 1.921,21.46076 1.84731,32.19895 -0.12323,17.95521 -0.3467,18.05896 -1.29726,36.87822 -1.55396,28.87936 -9.57586,56.68042 -17.53312,84.29094 -14.62574,50.97634 57.46569,71.66027 72.09144,20.68392 v 0 c 2.18463,-7.64453 4.52512,-15.24623 6.55388,-22.9336 6.77802,-25.68321 12.31023,-51.7372 13.79612,-78.33411 0.94504,-19.45263 1.34318,-22.66539 1.38512,-41.3415 0.0361,-16.088 -0.34617,-32.30487 -3.71655,-48.09969 -11.77819,-51.70855 -84.90513,-35.05168 -73.12694,16.65687 z"/>
<path d="m 181.15489,940.84156 c 39.77475,-16.71578 79.79984,-32.84504 119.87253,-48.83324 42.95766,-16.96688 86.13127,-33.51912 130.18608,-47.45632 9.71869,-3.07461 19.53377,-5.8358 29.30066,-8.7537 50.80513,-15.20984 29.29517,-87.05914 -21.50996,-71.8493 v 0 c -10.49408,3.14775 -21.0384,6.13263 -31.48224,9.44324 -45.43508,14.40254 -89.97882,31.45024 -134.28946,48.95661 -41.19201,16.43734 -82.35212,32.98482 -123.20183,50.25575 -48.25082,22.00816 -17.12659,90.24511 31.12422,68.23696 z"/>
<path d="m 468.18721,361.35718 c 30.73945,-7.0611 61.96736,-11.71502 93.09683,-16.66359 41.1104,-6.32416 82.47297,-10.95941 123.96316,-13.89004 25.96612,-1.8341 34.32234,-2.00558 59.91531,-3.07471 33.38482,-0.93866 66.86833,-0.81032 100.1395,2.34439 52.80182,4.94651 59.79724,-69.72654 6.99543,-74.67305 v 0 c -36.64822,-3.39884 -73.50923,-3.73463 -110.28174,-2.60529 -26.8327,1.13247 -35.5908,1.31541 -62.82345,3.25348 -43.40562,3.08905 -86.67762,7.95279 -129.68645,14.57584 -32.09759,5.10557 -64.2964,9.92037 -95.99575,17.18312 -52.0076,10.37832 -37.33044,83.92817 14.67716,73.54985 z"/>
<path d="m 615.64444,148.15607 c 2.59984,32.77596 3.61154,65.66443 4.54839,98.52273 0.15918,9.52421 0.366,19.04774 0.47754,28.57263 0.20843,17.79738 0.31098,44.86022 0.20414,62.57925 -0.11281,18.70998 -0.38185,41.43359 -1.30876,60.1818 -0.4515,9.13217 -1.2413,18.24447 -1.86194,27.3667 -0.81893,7.90819 -1.63786,15.81638 -2.45679,23.72457 -5.41143,52.7562 69.1971,60.40911 74.60853,7.65291 v 0 c 0.89318,-8.78328 1.78637,-17.56657 2.67955,-26.34986 0.66417,-10.00103 1.5044,-19.99193 1.99252,-30.00311 0.94902,-19.46434 1.2312,-43.08508 1.34689,-62.54086 0.10773,-18.1171 10e-4,-45.69222 -0.21472,-63.87157 -0.1166,-9.81997 -0.33177,-19.63852 -0.49765,-29.45777 -0.98283,-34.22552 -2.04896,-68.48106 -4.77792,-102.61965 -4.41392,-52.849005 -79.1537,-46.606775 -74.73978,6.24223 z"/>
<path d="m 545.80517,530.86946 c 23.53703,-2.74129 47.07558,-5.46534 70.63681,-7.99373 25.10983,-2.65267 50.25438,-5.20525 75.49432,-6.223 12.4523,-0.50211 17.0617,-0.40301 29.2275,-0.42906 14.41715,0.1274 28.80043,1.20037 43.14313,2.59326 0.39506,0.061 1.57958,0.24786 1.18517,0.18284 -19.52021,-3.21808 -23.61721,-14.72612 -29.93315,-34.05457 -1.75254,-5.36323 3.6402,-15.11197 -0.0772,-7.89401 -10.38721,23.81657 -19.98472,47.96931 -31.11923,71.46053 -3.55987,7.51049 -7.31642,14.92618 -10.97463,22.38927 -24.01883,47.56445 -50.72454,93.81564 -80.80062,137.82141 -6.46152,9.45416 -13.22371,18.69927 -19.83556,28.0489 -6.97948,8.98065 -13.73785,18.13761 -20.93845,26.94196 -25.26331,30.89009 -54.43504,61.58269 -86.15913,85.94598 -6.58384,5.05622 -13.58657,9.54225 -20.37985,14.31337 -43.25355,30.686 0.14301,91.85575 43.39656,61.16976 v 0 c 8.36575,-5.98338 16.97296,-11.64279 25.09725,-17.95012 8.30952,-6.45113 16.32085,-13.28901 24.16699,-20.29638 26.4698,-23.64011 50.75119,-49.7161 73.14733,-77.22428 7.8848,-9.68454 15.28559,-19.75329 22.92839,-29.62993 7.06016,-10.00623 14.281,-19.90101 21.18049,-30.0187 31.83272,-46.68078 60.13363,-95.71241 85.56042,-146.15055 3.95508,-8.0916 8.01348,-16.13351 11.86524,-24.2748 11.04203,-23.33901 20.68282,-47.2827 30.8988,-70.98102 2.98437,-6.66343 8.52221,-17.52349 7.03924,-24.44647 -2.28524,-10.66823 -6.83015,-21.15339 -13.4056,-29.85953 -5.47679,-7.25148 -17.12556,-8.98114 -25.60739,-10.14388 -16.81982,-1.62724 -33.69009,-2.83393 -50.5967,-2.94272 -13.96682,0.0503 -18.71932,-0.0568 -33.03919,0.5371 -26.56713,1.10195 -53.03856,3.74014 -79.46997,6.54316 -24.42176,2.623 -48.82249,5.42717 -73.21425,8.31568 -52.50235,7.48354 -41.91902,81.73308 10.58333,74.24953 z"/>
<path d="m 530.61499,642.28188 c 0.17461,0.19842 0.32347,0.42287 0.52383,0.59525 7.09474,6.10402 2.79569,1.83369 11.86731,10.24177 12.27385,11.37609 23.73073,23.5912 35.2738,35.69325 33.46919,36.64379 66.50443,73.67748 100.05366,110.25022 24.06776,25.62896 47.93893,51.46406 72.72047,76.40935 11.56854,11.26695 23.46046,22.31406 36.54885,31.81962 3.05593,2.21939 6.20408,4.30895 9.30612,6.46342 19.98434,12.97167 41.44866,23.50038 63.56584,32.30452 7.34288,2.92296 14.81612,5.50716 22.22418,8.26074 49.74255,18.38961 75.7494,-51.95699 26.00684,-70.3466 v 0 c -6.31095,-2.31828 -12.67441,-4.49829 -18.93283,-6.95483 -17.45294,-6.85059 -34.43503,-14.97585 -50.2924,-25.01054 -5.44297,-3.71334 -6.94926,-4.59488 -11.93566,-8.51672 -8.20542,-6.45363 -15.82017,-13.63265 -23.30246,-20.89669 -24.09228,-24.2151 -47.23624,-49.35848 -70.64125,-74.23219 -33.88453,-36.93639 -67.22624,-74.35991 -101.06755,-111.33374 -11.1201,-11.64313 -17.00908,-18.01218 -28.29251,-29.0839 -9.32195,-9.14706 -18.94065,-18.21728 -29.43043,-26.0411 -2.16211,-1.61261 -4.45401,-3.04346 -6.68102,-4.56519 -45.9219,-26.52696 -83.43668,38.41641 -37.51479,64.94336 z"/>
</svg>
